<?xml version="1.0" encoding="utf-8"?>
<svg xmlns="http://www.w3.org/2000/svg" viewBox="0 0 50 50" width="515" height="515">
  <path d="M40 9L10 9C6.132813 9 3 12.132813 3 16L3 34C3 37.867188 6.132813 41 10 41L40 41C43.867188 41 47 37.867188 47 34L47 16C47 12.132813 43.867188 9 40 9 Z M 25.3125 33.25C20.472656 33.25 19.898438 29.582031 19.875 28.003906L19.871094 27.75L22.25 27.75L22.253906 27.996094C22.304688 30.3125 23.933594 31.132813 25.316406 31.132813C25.347656 31.132813 28.46875 31.101563 28.46875 28.320313C28.46875 25.722656 25.910156 25.589844 25.398438 25.589844C24.988281 25.589844 24.664063 25.589844 24.355469 25.667969L24.042969 25.746094L24.042969 23.558594L25.058594 23.558594C27.757813 23.558594 27.789063 21.351563 27.789063 21.257813C27.789063 20.394531 27.457031 18.953125 25.230469 18.953125C22.757813 18.953125 22.523438 21.5 22.503906 22.011719L22.492188 22.25L20.125 22.25L20.132813 21.996094C20.152344 21.117188 20.496094 16.75 25.230469 16.75C30.003906 16.75 30.246094 20.433594 30.246094 21.171875C30.246094 22.714844 29.21875 23.722656 28.394531 24.285156C29.289063 24.589844 30.925781 25.519531 30.925781 28.234375C30.925781 33.007813 26.25 33.25 25.3125 33.25Z" />
</svg>