<?xml version="1.0" encoding="utf-8"?>
<svg xmlns="http://www.w3.org/2000/svg" viewBox="0 0 50 50" width="515" height="515">
  <path d="M6 5C5.8 5 5.6 5.0992187 5.5 5.1992188L14.400391 15L44.300781 15L33.599609 5.3007812C33.399609 5.1007812 33.200391 5 32.900391 5L6 5 z M 5 7.5996094L5 32.900391C5 33.100391 5.0992187 33.4 5.1992188 33.5L13 43.099609L13 16.400391L5 7.5996094 z M 15 17L15 45L36 45L36 25.199219L39.400391 28.599609L45 34.199219L45 17L15 17 z M 38 30L38 47L41.900391 43.099609L44.800781 50L47.599609 48.800781L44.699219 42L50 42L38 30 z" />
</svg>