<?xml version="1.0" encoding="utf-8"?>
<svg xmlns="http://www.w3.org/2000/svg" viewBox="0 0 50 50" width="515" height="515">
  <path d="M40 9L10 9C6.132813 9 3 12.132813 3 16L3 34C3 37.867188 6.132813 41 10 41L40 41C43.867188 41 47 37.867188 47 34L47 16C47 12.132813 43.867188 9 40 9 Z M 25.074219 33.25C20.863281 33.25 19.75 30.105469 19.75 28.441406L19.75 28.191406L22.058594 28.191406L22.058594 28.441406C22.058594 30.226563 23.871094 31.03125 25.160156 31.03125C28.042969 31.03125 28.265625 28.324219 28.265625 27.496094C28.265625 24.226563 25.246094 24.132813 24.902344 24.132813C23.550781 24.132813 22.671875 24.875 22.175781 25.5L22.09375 25.601563L20.050781 25.492188L21.597656 16.75L29.882813 16.75L29.882813 18.972656L23.492188 18.972656L22.761719 22.839844C23.402344 22.339844 24.292969 22.085938 25.417969 22.085938C29.691406 22.085938 30.828125 25.648438 30.828125 27.753906C30.832031 32.09375 27.214844 33.25 25.074219 33.25Z" />
</svg>