<?xml version="1.0" encoding="utf-8"?>
<svg xmlns="http://www.w3.org/2000/svg" viewBox="0 0 50 50" width="515" height="515">
  <path d="M10 9C6.132813 9 3 12.132813 3 16L3 34C3 37.867188 6.132813 41 10 41L40 41C43.867188 41 47 37.867188 47 34L47 16C47 12.132813 43.867188 9 40 9 Z M 25.96875 16.75C30.046875 16.75 30.585938 19.976563 30.65625 20.96875L30.6875 21.25L28.3125 21.25L28.28125 21.03125C28.175781 20.011719 27.664063 18.78125 25.875 18.78125C22.929688 18.78125 22.402344 22.207031 22.3125 23.9375C23.207031 22.859375 24.460938 22.3125 26.0625 22.3125C30.960938 22.3125 31.09375 27.136719 31.09375 27.6875C31.09375 29.75 29.917969 33.25 25.53125 33.25C21.789063 33.25 19.90625 30.628906 19.90625 25.46875C19.902344 23.578125 20.164063 21.976563 20.65625 20.65625C21.609375 18.101563 23.433594 16.75 25.96875 16.75 Z M 25.71875 24.34375C22.75 24.425781 22.71875 27.554688 22.71875 27.6875C22.71875 30.257813 24.605469 30.96875 25.71875 30.96875C28.554688 30.96875 28.625 28.023438 28.625 27.6875C28.625 27.34375 28.554688 24.34375 25.71875 24.34375Z" />
</svg>