<?xml version="1.0" encoding="utf-8"?>
<svg xmlns="http://www.w3.org/2000/svg" viewBox="0 0 50 50" width="515" height="515">
  <path d="M40 9L10 9C6.132813 9 3 12.132813 3 16L3 34C3 37.867188 6.132813 41 10 41L40 41C43.867188 41 47 37.867188 47 34L47 16C47 12.132813 43.867188 9 40 9 Z M 30.25 18.777344L30.183594 18.851563C26.585938 22.730469 24.410156 27.757813 24.0625 33.007813L24.046875 33.238281L23.8125 33.25L21.335938 33.25L21.351563 32.984375C21.660156 28.058594 23.832031 23.148438 27.484375 19.105469L19.75 19.105469L19.75 16.75L30.25 16.75Z" />
</svg>