<?xml version="1.0" encoding="utf-8"?>
<svg xmlns="http://www.w3.org/2000/svg" viewBox="0 0 50 50" width="515" height="515">
  <path d="M10 9C6.132813 9 3 12.132813 3 16L3 34C3 37.867188 6.132813 41 10 41L40 41C43.867188 41 47 37.867188 47 34L47 16C47 12.132813 43.867188 9 40 9 Z M 24.8125 16.75C29.609375 16.75 29.875 20.316406 29.875 21.03125C29.875 22.789063 28.769531 23.773438 28.09375 24.21875C29.042969 24.625 30.5625 25.6875 30.5625 28.21875C30.5625 32.199219 27.125 33.25 25.09375 33.25C20.929688 33.25 19.4375 30.542969 19.4375 28.21875C19.4375 26.425781 20.269531 25.050781 21.84375 24.25C21.007813 23.753906 19.96875 22.714844 19.96875 21.03125C19.96875 19.554688 20.960938 16.75 24.8125 16.75 Z M 24.90625 18.96875C22.488281 18.96875 22.4375 20.875 22.4375 21.09375C22.4375 21.480469 22.550781 23.4375 25 23.4375C27.203125 23.4375 27.3125 21.480469 27.3125 21.09375C27.3125 20.449219 27.074219 18.96875 24.90625 18.96875 Z M 25 25.5625C22.5625 25.5625 21.90625 27.261719 21.90625 28.28125C21.90625 30.367188 23.507813 31.125 25 31.125C26.949219 31.125 28 29.652344 28 28.28125C28 27.828125 27.480469 25.5625 25 25.5625Z" />
</svg>