<?xml version="1.0" encoding="utf-8"?>
<svg xmlns="http://www.w3.org/2000/svg" viewBox="0 0 50 50" width="515" height="515">
  <path d="M11 7C5.484375 7 1 11.484375 1 17C1 20.160156 2.484375 23.113281 5 25C5 26.652344 6.347656 28 8 28L14 28C15.652344 28 17 26.652344 17 25C19.515625 23.113281 21 20.160156 21 17C21 11.484375 16.515625 7 11 7 Z M 11 12C13.761719 12 16 14.238281 16 17L6 17C6 14.238281 8.238281 12 11 12 Z M 25 12C24.449219 12 24 12.449219 24 13L24 21C24 21.550781 24.449219 22 25 22L47 22C47.554688 22 48 21.550781 48 21L48 13C48 12.449219 47.554688 12 47 12 Z M 25 28C24.449219 28 24 28.445313 24 29L24 37C24 37.554688 24.449219 38 25 38L47 38C47.554688 38 48 37.554688 48 37L48 29C48 28.445313 47.554688 28 47 28 Z M 7 30L7 40C7 40.265625 7.09375 40.53125 7.28125 40.71875L9.28125 42.71875C9.46875 42.90625 9.734375 43 10 43L12 43C12.265625 43 12.53125 42.90625 12.71875 42.71875L14.71875 40.71875C14.90625 40.53125 15 40.265625 15 40L15 38L12 38L12 36L15 36L15 34L12 34L12 32L15 32L15 30Z" />
</svg>