<?xml version="1.0" encoding="utf-8"?>
<svg xmlns="http://www.w3.org/2000/svg" viewBox="0 0 50 50" width="515" height="515">
  <path d="M25.875 3.300781C21.183594 3.40625 18.210938 5.328125 16.933594 8.265625C15.714844 11.066406 15.980469 14.578125 16.855469 18.25C16.394531 18.796875 16.007813 19.535156 16.105469 20.683594L16.105469 20.707031L16.109375 20.734375C16.277344 21.953125 16.613281 22.820313 17.078125 23.433594C17.308594 23.730469 17.636719 23.738281 17.917969 23.90625C18.074219 24.960938 18.355469 26.019531 18.75 26.902344C18.976563 27.402344 19.222656 27.847656 19.480469 28.222656C19.597656 28.398438 19.773438 28.507813 19.902344 28.65625L19.902344 32.269531C19.304688 33.664063 17.316406 34.472656 15.007813 35.394531C11.144531 36.941406 6.335938 38.863281 6 44.941406L5.941406 46L46.054688 46L46 44.945313C45.664063 38.855469 40.832031 36.933594 36.949219 35.386719C34.632813 34.464844 32.632813 33.660156 32 32.265625L32 28.65625C32.128906 28.507813 32.304688 28.398438 32.421875 28.222656C32.679688 27.847656 32.921875 27.402344 33.148438 26.902344C33.542969 26.027344 33.820313 24.972656 33.972656 23.925781C34.292969 23.765625 34.648438 23.753906 34.894531 23.433594C35.375 22.800781 35.683594 21.917969 35.796875 20.691406L35.796875 20.683594C35.886719 19.625 35.558594 18.867188 35.082031 18.289063C35.605469 16.6875 36.21875 14.136719 36.019531 11.511719C35.914063 10.074219 35.554688 8.632813 34.703125 7.441406C33.921875 6.355469 32.65625 5.585938 31.066406 5.253906C30.003906 3.859375 28.09375 3.300781 25.902344 3.300781 Z M 25.902344 5.300781C27.917969 5.300781 29.21875 5.886719 29.636719 6.601563L29.878906 7.023438L30.359375 7.089844C31.734375 7.28125 32.515625 7.828125 33.074219 8.605469C33.632813 9.382813 33.9375 10.464844 34.027344 11.664063C34.210938 14.066406 33.515625 16.882813 33.058594 18.164063L32.761719 19L33.550781 19.394531C33.417969 19.328125 33.878906 19.625 33.800781 20.515625C33.714844 21.484375 33.472656 21.996094 33.304688 22.21875C33.136719 22.4375 33.066406 22.402344 33.097656 22.402344L32.191406 22.402344L32.105469 23.304688C32.019531 24.203125 31.699219 25.25 31.328125 26.078125C31.140625 26.488281 30.941406 26.847656 30.769531 27.097656C30.597656 27.347656 30.410156 27.484375 30.503906 27.433594L30 27.71875L30 32.496094C30 32.496094 30 32.496094 30 32.5C29.980469 32.871094 28.535156 34 26 34C23.507813 34 22 32.957031 22 32.5C22 32.347656 21.960938 32.207031 21.902344 32.078125L21.902344 27.71875L21.394531 27.433594C21.488281 27.484375 21.300781 27.347656 21.128906 27.097656C20.960938 26.847656 20.761719 26.488281 20.574219 26.078125C20.203125 25.25 19.878906 24.203125 19.796875 23.304688L19.707031 22.402344L18.800781 22.402344C18.949219 22.402344 18.851563 22.457031 18.671875 22.21875C18.488281 21.980469 18.238281 21.441406 18.101563 20.496094C18.054688 19.6875 18.539063 19.277344 18.453125 19.332031L19.042969 18.9375L18.871094 18.253906C17.945313 14.609375 17.792969 11.300781 18.765625 9.0625C19.738281 6.824219 21.710938 5.398438 25.902344 5.300781Z" />
</svg>