<?xml version="1.0" encoding="utf-8"?>
<svg xmlns="http://www.w3.org/2000/svg" viewBox="0 0 50 50" width="515" height="515">
  <path d="M5.984375 3 A 1.0001 1.0001 0 0 0 5.2753906 3.3105469L3.2753906 5.4160156 A 1.0001 1.0001 0 0 0 3 6.1054688L3 38 A 1.0001 1.0001 0 0 0 3.0039062 38.099609C3.022729 40.186203 3.6222636 42.091872 4.6503906 43.53125C5.660835 44.945872 7.1424611 45.925105 8.8300781 45.988281 A 1.0001 1.0001 0 0 0 9 46L43 46 A 1.0001 1.0001 0 0 0 43.150391 45.988281C44.846022 45.93196 46.335214 44.949591 47.349609 43.529297C48.394304 42.06658 49 40.124787 49 38C49 35.875213 48.394304 33.93342 47.349609 32.470703C46.339127 31.055887 44.857406 30.075002 43.169922 30.011719 A 1.0001 1.0001 0 0 0 43 30L39 30L39 4 A 1.0001 1.0001 0 0 0 37.292969 3.2929688L34.005859 6.5859375L30.707031 3.2929688 A 1.0001 1.0001 0 0 0 29.292969 3.2929688L26 6.5859375L22.707031 3.2929688 A 1.0001 1.0001 0 0 0 21.292969 3.2929688L18 6.5859375L14.707031 3.2929688 A 1.0001 1.0001 0 0 0 13.292969 3.2929688L10 6.5859375L6.7070312 3.2929688 A 1.0001 1.0001 0 0 0 5.984375 3 z M 9 12L23 12L23 14L9 14L9 12 z M 26 12L33 12L33 14L26 14L26 12 z M 9 16L16 16L16 18L9 18L9 16 z M 19 16L33 16L33 18L19 18L19 16 z M 9 20L14 20L14 22L9 22L9 20 z M 17 20L24 20L24 22L17 22L17 20 z M 27 20L33 20L33 22L27 22L27 20 z M 9 24L20 24L20 26L9 26L9 24 z M 23 24L33 24L33 26L23 26L23 24 z M 38 32L43 32C44.001135 32 44.955398 32.561279 45.720703 33.632812C45.799493 33.74313 45.862371 33.879715 45.935547 34L14.199219 34C13.96153 33.449059 13.680908 32.932568 13.349609 32.46875C13.235045 32.30836 13.11257 32.156502 12.986328 32.007812C20.484483 32.033174 38 32 38 32 z M 8.9765625 32.001953C8.9819565 32.002042 9.0179371 32.001865 9.0234375 32.001953C10.017217 32.010684 10.963681 32.568294 11.722656 33.630859C12.487645 34.701844 13 36.260018 13 38C13 39.739982 12.487645 41.298156 11.722656 42.369141C10.957667 43.440126 10.002404 44 9 44C7.9975962 44 7.042333 43.440126 6.2773438 42.369141C5.5123545 41.298156 5 39.739982 5 38C5 36.260018 5.5123545 34.701844 6.2773438 33.630859C7.036319 32.568294 7.9827833 32.010684 8.9765625 32.001953 z M 9 35 A 2 3 0 0 0 7 38 A 2 3 0 0 0 9 41 A 2 3 0 0 0 11 38 A 2 3 0 0 0 9 35 z" />
</svg>