<?xml version="1.0" encoding="utf-8"?>
<svg xmlns="http://www.w3.org/2000/svg" viewBox="0 0 50 50" width="515" height="515">
  <path d="M45 4L5 4C3.347656 4 2 5.347656 2 7L2 43C2 44.652344 3.347656 46 5 46L45 46C46.652344 46 48 44.652344 48 43L48 7C48 5.347656 46.652344 4 45 4 Z M 39 36L11 36C10.449219 36 10 35.554688 10 35C10 34.445313 10.449219 34 11 34L39 34C39.554688 34 40 34.445313 40 35C40 35.554688 39.554688 36 39 36 Z M 39 26L11 26C10.449219 26 10 25.550781 10 25C10 24.449219 10.449219 24 11 24L39 24C39.554688 24 40 24.449219 40 25C40 25.550781 39.554688 26 39 26 Z M 39 16L11 16C10.449219 16 10 15.550781 10 15C10 14.449219 10.449219 14 11 14L39 14C39.554688 14 40 14.449219 40 15C40 15.550781 39.554688 16 39 16Z" />
</svg>