<?xml version="1.0" encoding="utf-8"?>
<svg xmlns="http://www.w3.org/2000/svg" viewBox="0 0 50 50" width="515" height="515">
  <path d="M25 0C22.242188 0 20 2.242188 20 5C20 7.757813 22.242188 10 25 10C27.757813 10 30 7.757813 30 5C30 2.242188 27.757813 0 25 0 Z M 20.40625 10.25L13.8125 20.375C13.246094 20.152344 12.644531 20 12 20C9.242188 20 7 22.242188 7 25C7 27.757813 9.242188 30 12 30C14.757813 30 17 27.757813 17 25C17 23.605469 16.421875 22.34375 15.5 21.4375L22.0625 11.34375C21.449219 11.058594 20.90625 10.6875 20.40625 10.25 Z M 29.59375 10.25C29.09375 10.6875 28.550781 11.058594 27.9375 11.34375L34.5 21.4375C33.578125 22.34375 33 23.605469 33 25C33 27.757813 35.242188 30 38 30C40.757813 30 43 27.757813 43 25C43 22.242188 40.757813 20 38 20C37.355469 20 36.753906 20.152344 36.1875 20.375 Z M 8.78125 31.21875L5.71875 40.0625C5.480469 40.027344 5.246094 40 5 40C2.242188 40 0 42.242188 0 45C0 47.757813 2.242188 50 5 50C7.757813 50 10 47.757813 10 45C10 43.199219 9.023438 41.632813 7.59375 40.75L10.6875 31.875C10.019531 31.746094 9.367188 31.523438 8.78125 31.21875 Z M 15.21875 31.21875C14.632813 31.523438 13.980469 31.746094 13.3125 31.875L16.4375 40.71875C14.988281 41.59375 14 43.1875 14 45C14 47.757813 16.242188 50 19 50C21.757813 50 24 47.757813 24 45C24 42.242188 21.757813 40 19 40C18.773438 40 18.5625 40.03125 18.34375 40.0625 Z M 34.78125 31.21875L31.65625 40.0625C31.4375 40.03125 31.226563 40 31 40C28.242188 40 26 42.242188 26 45C26 47.757813 28.242188 50 31 50C33.757813 50 36 47.757813 36 45C36 43.1875 35.011719 41.59375 33.5625 40.71875L36.6875 31.875C36.019531 31.746094 35.367188 31.523438 34.78125 31.21875 Z M 41.21875 31.21875C40.632813 31.523438 39.980469 31.746094 39.3125 31.875L42.40625 40.75C40.976563 41.632813 40 43.199219 40 45C40 47.757813 42.242188 50 45 50C47.757813 50 50 47.757813 50 45C50 42.242188 47.757813 40 45 40C44.753906 40 44.519531 40.027344 44.28125 40.0625Z" />
</svg>