<?xml version="1.0" encoding="utf-8"?>
<svg xmlns="http://www.w3.org/2000/svg" viewBox="0 0 50 50" width="515" height="515">
  <path d="M29 2C27.707031 2 26.453125 2.078125 25.5625 2.96875L2.84375 25.6875C2.296875 26.234375 2 26.976563 2 27.75C2 28.523438 2.296875 29.234375 2.84375 29.78125L20.21875 47.15625C20.765625 47.703125 21.476563 48 22.25 48C23.023438 48 23.765625 47.703125 24.3125 47.15625L29.0625 42.40625C30.699219 45.703125 34.078125 48 38 48C43.511719 48 48 43.511719 48 38C48 34.078125 45.703125 30.699219 42.40625 29.0625L47.03125 24.4375C48.007813 23.464844 48.007813 22.039063 48 20.6875L48 5.5C48 3.570313 46.429688 2 44.5 2 Z M 39 8C40.65625 8 42 9.34375 42 11C42 12.65625 40.65625 14 39 14C37.34375 14 36 12.65625 36 11C36 9.34375 37.34375 8 39 8 Z M 38 30C42.429688 30 46 33.570313 46 38C46 42.429688 42.429688 46 38 46C33.570313 46 30 42.429688 30 38C30 33.570313 33.570313 30 38 30 Z M 37 33L37 37L33 37L33 39L37 39L37 43L39 43L39 39L43 39L43 37L39 37L39 33Z" />
</svg>