<?xml version="1.0" encoding="utf-8"?>
<svg xmlns="http://www.w3.org/2000/svg" viewBox="0 0 50 50" width="515" height="515">
  <path d="M25 1C23.346 1 22 2.346 22 4C22 5.654 23.346 7 25 7C26.654 7 28 5.654 28 4C28 2.346 26.654 1 25 1 z M 29.244141 6.609375C28.363141 8.038375 26.798 9 25 9C23.203 9 21.636859 8.0383281 20.755859 6.6113281C15.314859 8.2173281 12 12.821 12 19C12 29.354 9.1935781 31.92975 7.5175781 33.46875C6.7365781 34.18575 6 34.863 6 36C6 40.038 12.215 42 25 42C26.883419 42 28.583028 41.945366 30.179688 41.859375C30.311272 42.550891 30.512208 43.21939 30.779297 43.853516C28.860259 43.96074 26.903293 44 25 44C23.046 44 21.034406 43.961656 19.066406 43.847656C19.480406 46.754656 21.98 49 25 49C27.939788 49 30.371114 46.866736 30.880859 44.072266C32.448709 47.555375 35.949633 50 40 50C45.5 50 50 45.5 50 40C50 34.5 45.5 30 40 30C39.944039 30 39.889735 30.006884 39.833984 30.007812C38.818948 27.891774 38 24.585741 38 19C38 12.805 34.687141 8.211375 29.244141 6.609375 z M 40 32C44.4 32 48 35.6 48 40C48 44.4 44.4 48 40 48C35.6 48 32 44.4 32 40C32 35.6 35.6 32 40 32 z M 39 35L39 39L35 39L35 41L39 41L39 45L41 45L41 41L45 41L45 39L41 39L41 35L39 35 z" />
</svg>