<?xml version="1.0" encoding="utf-8"?>
<svg xmlns="http://www.w3.org/2000/svg" viewBox="0 0 50 50" width="515" height="515">
  <path d="M11 4C9.347656 4 8 5.347656 8 7L8 12L7 12C6.96875 12 6.9375 12 6.90625 12C6.355469 12.027344 5.925781 12.496094 5.953125 13.046875C5.980469 13.597656 6.449219 14.027344 7 14L11 14C11.355469 14.007813 11.6875 13.832031 11.875 13.53125C11.953125 13.671875 12 13.828125 12 14C12 14.550781 11.550781 15 11 15L8 15L8 18L7 18C6.96875 18 6.9375 18 6.90625 18C6.355469 18.027344 5.925781 18.496094 5.953125 19.046875C5.980469 19.597656 6.449219 20.027344 7 20L11 20C11.355469 20.007813 11.6875 19.832031 11.875 19.53125C11.953125 19.671875 12 19.828125 12 20C12 20.550781 11.550781 21 11 21L8 21L8 24L7 24C6.96875 24 6.9375 24 6.90625 24C6.355469 24.027344 5.925781 24.496094 5.953125 25.046875C5.980469 25.597656 6.449219 26.027344 7 26L11 26C11.355469 26.007813 11.6875 25.832031 11.875 25.53125C11.953125 25.671875 12 25.828125 12 26C12 26.554688 11.550781 27 11 27L8 27L8 30L7 30C6.96875 30 6.9375 30 6.90625 30C6.355469 30.027344 5.925781 30.496094 5.953125 31.046875C5.980469 31.597656 6.449219 32.027344 7 32L11 32C11.355469 32.007813 11.6875 31.832031 11.875 31.53125C11.953125 31.671875 12 31.828125 12 32C12 32.554688 11.550781 33 11 33L8 33L8 36L7 36C6.96875 36 6.9375 36 6.90625 36C6.355469 36.027344 5.925781 36.496094 5.953125 37.046875C5.980469 37.597656 6.449219 38.027344 7 38L11 38C11.355469 38.007813 11.6875 37.832031 11.875 37.53125C11.953125 37.671875 12 37.828125 12 38C12 38.554688 11.550781 39 11 39L8 39L8 43C8 44.652344 9.347656 46 11 46L39 46C40.652344 46 42 44.652344 42 43L42 7C42 5.347656 40.652344 4 39 4 Z M 26 16C30.699219 16 34 19.3125 34 23.8125C34 27.8125 31.800781 30.1875 29 30.1875C27.800781 30.1875 26.914063 29.5 26.8125 28L26.6875 28C25.789063 29.5 24.59375 30.1875 23.09375 30.1875C21.394531 30.1875 20.09375 28.886719 20.09375 26.6875C20.09375 23.386719 22.605469 20.40625 26.40625 20.40625C27.605469 20.40625 28.800781 20.699219 29.5 21L28.6875 26C28.386719 27.800781 28.605469 28.59375 29.40625 28.59375C30.707031 28.695313 32.1875 27.007813 32.1875 23.90625C32.1875 20.207031 29.886719 17.40625 25.6875 17.40625C21.386719 17.40625 17.8125 20.699219 17.8125 26C17.8125 30.5 20.6875 33.1875 24.6875 33.1875C26.1875 33.1875 27.585938 32.914063 28.6875 32.3125L29.1875 33.8125C27.585938 34.613281 26.210938 34.8125 24.3125 34.8125C19.8125 34.8125 16 31.613281 16 26.3125C16 20.8125 19.898438 16 26 16 Z M 26.09375 22.1875C23.992188 22.1875 22.40625 24.199219 22.40625 26.5C22.40625 27.601563 22.898438 28.3125 24 28.3125C25.199219 28.3125 26.488281 26.695313 26.6875 25.09375L27.1875 22.40625C26.988281 22.304688 26.59375 22.1875 26.09375 22.1875Z" />
</svg>