<?xml version="1.0" encoding="utf-8"?>
<svg xmlns="http://www.w3.org/2000/svg" viewBox="0 0 50 50" width="515" height="515">
  <path d="M8 2C7.4 2 7 2.4 7 3L7 10L5 10C3.3 10 2 11.3 2 13L2 15C2 16.7 3.3 18 5 18L7 18L9 18L11 18C12.7 18 14 16.7 14 15L14 13C14 11.3 12.7 10 11 10L9 10L9 3C9 2.4 8.6 2 8 2 z M 25 2C24.4 2 24 2.4 24 3L24 31L22 31C20.3 31 19 32.3 19 34L19 36C19 37.7 20.3 39 22 39L24 39L26 39L28 39C29.7 39 31 37.7 31 36L31 34C31 32.3 29.7 31 28 31L26 31L26 3C26 2.4 25.6 2 25 2 z M 42 2C41.4 2 41 2.4 41 3L41 13L39 13C37.3 13 36 14.3 36 16L36 18C36 19.7 37.3 21 39 21L41 21L43 21L45 21C46.7 21 48 19.7 48 18L48 16C48 14.3 46.7 13 45 13L43 13L43 3C43 2.4 42.6 2 42 2 z M 7 20L7 47.099609C7 47.699609 7.4 48.099609 8 48.099609C8.6 48.099609 9 47.699609 9 47.099609L9 20L7 20 z M 41 23L41 47.099609C41 47.699609 41.4 48.099609 42 48.099609C42.6 48.099609 43 47.699609 43 47.099609L43 23L41 23 z M 24 41L24 47.099609C24 47.699609 24.4 48.099609 25 48.099609C25.6 48.099609 26 47.699609 26 47.099609L26 41L24 41 z" />
</svg>