<?xml version="1.0" encoding="utf-8"?>
<svg xmlns="http://www.w3.org/2000/svg" width="515" height="515" viewBox="0 0 50 50">
  <path d="M6 4C4.9 4 4 4.9 4 6L4 44C4 45.1 4.9 46 6 46L44 46C45.1 46 46 45.1 46 44L46 6C46 4.9 45.1 4 44 4L6 4 z M 18.580078 14C20.570078 14 22.260625 14.480313 23.390625 15.570312C24.410625 16.590312 24.949219 18.160781 24.949219 20.050781C24.949219 22.030781 24.470625 23.370938 23.640625 24.460938C22.490625 26.060938 20.470781 26.859375 18.550781 26.859375C18.140781 26.859375 17.820938 26.860078 17.460938 26.830078L17.460938 36L15 36L15 14.419922C15.99 14.159922 17.140078 14 18.580078 14 z M 18.980469 15.640625C18.400469 15.640625 17.919609 15.700781 17.599609 15.800781L17.599609 24.410156C17.889609 24.440156 18.179844 24.470703 18.589844 24.470703C20.989844 24.470703 22.619141 22.870078 22.619141 19.830078C22.619141 17.620078 21.730469 15.640625 18.980469 15.640625 z M 31.710938 20C32.980938 20 33.900312 20.390781 34.570312 20.800781L33.900391 22.669922C33.270391 22.249922 32.61 21.960938 31.75 21.960938C30.39 21.960938 29.689453 22.919219 29.689453 23.949219C29.689453 24.979219 30.089688 25.589141 31.679688 26.619141C33.539687 27.779141 35 29.219141 35 31.369141C35 34.489141 32.810391 36 30.150391 36C28.990391 36 27.7 35.649609 27 35.099609L27.630859 33.240234C28.200859 33.590234 29.190703 34.039062 30.220703 34.039062C31.650703 34.039062 32.580078 33.169062 32.580078 31.789062C32.580078 30.599062 32.149531 29.770234 30.519531 28.740234C28.429531 27.420234 27.300781 26.070547 27.300781 24.310547C27.300781 21.770547 29.220938 20 31.710938 20 z" />
</svg>