<?xml version="1.0" encoding="utf-8"?>
<svg xmlns="http://www.w3.org/2000/svg" viewBox="0 0 50 50" width="515" height="515">
  <path d="M46.78125 0.1875C43.019531 0.1875 36.601563 4.6875 35.28125 6.09375L28.53125 12.84375L4.53125 9.59375C4.21875 9.550781 3.910156 9.679688 3.6875 9.90625L0.28125 13.40625C0.046875 13.644531 -0.0390625 13.984375 0.03125 14.3125C0.101563 14.640625 0.3125 14.910156 0.625 15.03125L19.125 22.28125L9.59375 32L5 32C4.761719 32 4.523438 32.09375 4.34375 32.25L0.34375 35.625C0.0585938 35.867188 -0.0546875 36.261719 0.03125 36.625C0.117188 36.988281 0.386719 37.285156 0.75 37.375L10.28125 39.71875L12.625 49.25C12.710938 49.589844 12.976563 49.863281 13.3125 49.96875C13.644531 50.074219 13.988281 49.980469 14.25 49.75L17.65625 46.75C17.871094 46.558594 18 46.285156 18 46L18 40.4375L27.8125 30.875L34.96875 49.375C35.089844 49.6875 35.359375 49.898438 35.6875 49.96875C35.757813 49.984375 35.835938 50 35.90625 50C36.164063 50 36.40625 49.902344 36.59375 49.71875L40.09375 46.3125C40.320313 46.089844 40.449219 45.78125 40.40625 45.46875L37.15625 21.46875L43.90625 14.71875C45.289063 13.335938 52.070313 4.175781 49 0.96875C48.457031 0.449219 47.707031 0.1875 46.78125 0.1875Z" />
</svg>