<?xml version="1.0" encoding="utf-8"?>
<svg xmlns="http://www.w3.org/2000/svg" viewBox="0 0 50 50" width="515" height="515">
  <path d="M18.921875 2C18.183594 2.023438 17.515625 2.453125 17.175781 3.132813L12.46875 13.050781L12.371094 12.886719C12.128906 12.371094 11.609375 12.03125 10.980469 11.988281C10.265625 11.941406 9.613281 12.285156 9.308594 12.859375L5.484375 27.5C7.316406 25.996094 9.113281 25 11 25C13.300781 25 14.769531 26.503906 15.644531 27.40625C15.753906 27.515625 15.988281 27.753906 16.171875 27.921875C16.847656 27.675781 18.136719 26.988281 18.890625 26.59375C21.214844 25.359375 23.621094 24.085938 25.910156 24L26.09375 24C29.8125 24 32.441406 26.878906 33.703125 28.261719L33.742188 28.300781C33.855469 28.425781 33.949219 28.53125 34.035156 28.621094C36.949219 31.597656 43.007813 34 47 34L48 34L48 32.746094L47.636719 32.445313C47.589844 32.40625 46.507813 31.515625 45.277344 30.824219C44.746094 30.527344 44.214844 30.3125 43.714844 30.191406C42.328125 29.808594 40.945313 29.96875 38.113281 30.96875L26.910156 7.960938L26.855469 7.859375C26.574219 7.421875 26.136719 7.148438 25.621094 7.089844C25.042969 7.023438 24.429688 7.246094 23.980469 7.6875L23.542969 8.464844L20.738281 3.023438C20.363281 2.371094 19.667969 1.972656 18.921875 2 Z M 30.777344 8C30.273438 8.011719 29.789063 8.199219 29.40625 8.523438L39.152344 28.527344C40.425781 28.160156 41.40625 28 42.316406 28C42.964844 28 43.582031 28.082031 44.214844 28.253906C44.25 28.265625 44.285156 28.28125 44.320313 28.289063L40.21875 18.910156C39.921875 18.332031 39.335938 18 38.6875 18L38.671875 18C38.027344 18.003906 37.453125 18.335938 37.15625 18.902344L32.527344 9.117188C32.195313 8.445313 31.523438 8.019531 30.777344 8 Z M 25.964844 26C24.148438 26.070313 21.949219 27.234375 19.820313 28.359375C18.371094 29.128906 16.726563 30 16 30C15.425781 30 14.945313 29.546875 14.21875 28.800781C13.433594 28 12.457031 27 11 27C8.722656 27 6.117188 29.449219 3.429688 32.171875C2.988281 32.621094 2 33.558594 2 33.558594L2 45.964844L48 45.964844L48 36L47 36C43.101563 36 37.667969 34.042969 34.140625 31.355469C34.007813 31.253906 33.878906 31.152344 33.753906 31.050781C33.628906 30.949219 33.503906 30.847656 33.386719 30.742188C33.113281 30.503906 32.851563 30.265625 32.613281 30.019531C32.535156 29.941406 32.445313 29.84375 32.351563 29.742188C32.335938 29.722656 32.320313 29.710938 32.304688 29.691406L32.292969 29.679688C32.285156 29.667969 32.277344 29.664063 32.265625 29.652344L32.230469 29.609375C31.972656 29.328125 31.652344 28.992188 31.296875 28.640625C31.027344 28.371094 30.746094 28.109375 30.421875 27.839844C30.226563 27.675781 30.023438 27.511719 29.8125 27.359375C29.804688 27.355469 29.800781 27.355469 29.796875 27.351563C29.6875 27.273438 29.574219 27.203125 29.457031 27.125C29.328125 27.042969 29.199219 26.960938 29.0625 26.878906C28.933594 26.804688 28.796875 26.734375 28.65625 26.664063C28.539063 26.605469 28.421875 26.546875 28.296875 26.496094C28.136719 26.425781 27.976563 26.359375 27.808594 26.300781C27.789063 26.296875 27.773438 26.289063 27.757813 26.28125L27.757813 26.289063C27.191406 26.101563 26.59375 25.984375 25.964844 26Z" />
</svg>