<?xml version="1.0" encoding="utf-8"?>
<svg xmlns="http://www.w3.org/2000/svg" viewBox="0 0 50 50" width="515" height="515">
  <path d="M5 7C2.242188 7 0 9.242188 0 12L0 38C0 40.757813 2.242188 43 5 43L45 43C47.757813 43 50 40.757813 50 38L50 12C50 9.242188 47.757813 7 45 7 Z M 8.5625 19.90625L11.34375 19.90625L15 28.09375L15 19.90625L18.28125 19.90625L20.84375 25.625L23.40625 19.90625L26.75 19.90625L26.75 28.40625L24.65625 28.40625L24.65625 22.1875L21.8125 28.40625L19.90625 28.40625L17.09375 22.09375L17.09375 28.40625L12.875 28.40625L12.0625 26.53125L7.875 26.53125L7.0625 28.40625L4.84375 28.40625 Z M 29.5 19.90625L37.75 19.90625L40.0625 22.5625L42.46875 19.90625L45.125 19.90625L41.375 24.0625L45.125 28.4375L42.46875 28.4375L40 25.59375L37.46875 28.40625L29.5 28.40625 Z M 9.90625 21.6875L8.65625 24.6875L11.21875 24.6875 Z M 31.5625 21.71875L31.5625 23.3125L36.1875 23.3125L36.1875 24.9375L31.5625 24.9375L31.5625 26.625L36.40625 26.625L38.6875 24.0625L36.65625 21.75Z" />
</svg>