<?xml version="1.0" encoding="utf-8"?>
<svg xmlns="http://www.w3.org/2000/svg" viewBox="0 0 50 50" width="515" height="515">
  <path d="M24.833984 2.0488281C24.172419 2.0525352 23.510422 2.0854691 22.851562 2.1464844C21.098319 2.3088476 19.364731 2.6761938 17.691406 3.25C10.970102 5.3541941 5.4619007 10.866991 3.2558594 17.576172C0.84631239 24.396034 1.9887268 32.297884 6.1796875 38.171875C10.17028 44.045234 17.03813 47.78907 24.166016 48C24.167316 48.000038 24.168622 47.999962 24.169922 48C31.707663 48.310076 39.202132 44.771739 43.609375 38.685547 A 1.0001 1.0001 0 0 0 43.615234 38.679688C46.43941 34.704912 48 29.817391 48 25C48 17.567474 44.2603 10.178681 37.957031 6.0742188C34.104617 3.3952371 29.464941 2.0228789 24.833984 2.0488281 z M 26 5L28 5L31 6L31 8L28 6L26 5 z M 17.691406 5.3652344L19 6.0996094L23 6L24.599609 6.8007812L24.800781 6.3007812L26 7.0996094L25.900391 7.4003906L27 8L28 9L29 10L31 12L28 14L24 18L24.5 19L23 18L22 18L19 19L19 24L20 24L22 23L22 25L24 25L24 26L26 27L28 26L32 25.900391L33 27L35 28L36 29L39.5 30L40 32L39 34L38 37L36 38L27.099609 45L27.841797 45.822266C27.789203 45.829398 27.736244 45.835064 27.683594 45.841797L26 45L29 37L28.300781 36L26 35L25 32L25 30L26 29L26 27.699219L24 27L23 26L18 24L16 23L14 17L14 13L15 11L15 8L13.667969 7.3339844C14.933247 6.5243448 16.282295 5.8603634 17.691406 5.3652344 z M 43.007812 14.234375C44.931278 17.476564 46 21.243463 46 25L44 21L43.099609 16L43.007812 14.234375 z M 26 22L29 23L28.5 23.5L25.300781 22.199219L26 22 z" />
</svg>