<?xml version="1.0" encoding="utf-8"?>
<svg xmlns="http://www.w3.org/2000/svg" viewBox="0 0 50 50" width="515" height="515">
  <path d="M25 2.9882812L25 3.0410156C23.238567 3.103237 21.539718 3.2063304 21.021484 3.2695312C21.020517 3.2696492 21.016583 3.2694137 21.015625 3.2695312 A 1.0001 1.0001 0 0 0 20.849609 3.2832031 A 1.0001 1.0001 0 0 0 20.845703 3.2832031C20.814553 3.2880381 20.786882 3.2958263 20.755859 3.3007812C20.230853 3.3846431 19.722462 3.4873806 19.228516 3.6054688C19.09349 3.6379319 18.966284 3.677959 18.833984 3.7128906C18.448929 3.8139669 18.0707 3.9221924 17.705078 4.0449219C17.567015 4.0914416 17.433623 4.142028 17.298828 4.1914062C16.953943 4.317405 16.617987 4.4534443 16.291016 4.5996094C16.161122 4.657614 16.03279 4.7165153 15.90625 4.7773438C15.621626 4.9145233 15.344728 5.0596661 15.074219 5.2128906C14.907802 5.3065932 14.74207 5.4011464 14.582031 5.5C14.393941 5.6171219 14.212093 5.7417489 14.03125 5.8671875C13.817692 6.0138554 13.603739 6.1603394 13.402344 6.3164062C13.329554 6.3735 13.260956 6.4355572 13.189453 6.4941406C12.234511 7.266855 11.406964 8.1355715 10.722656 9.0976562C9.616869 10.652309 8.8586416 12.408183 8.3222656 14.265625C8.2050806 14.67143 8.0962159 15.081194 8 15.496094C7.9425589 15.73478 7.8896958 15.978912 7.8378906 16.224609C7.8147149 16.338932 7.7933034 16.453535 7.7714844 16.568359C7.6105928 17.382101 7.4681834 18.220309 7.3671875 19.109375L3.3417969 26.046875L3.3378906 26.054688C3.251726 26.209745 3.1823601 26.370819 3.1308594 26.535156C2.8568864 27.370798 3.0229047 28.260024 3.5585938 28.935547C3.5912883 28.976776 3.6325331 29.013179 3.6679688 29.052734C3.8567297 29.269346 4.0758874 29.462696 4.3398438 29.609375L4.359375 29.619141L4.375 29.626953C4.3771054 29.62813 4.3787494 29.629686 4.3808594 29.630859L5.8945312 30.386719L7.4160156 31.148438L8.4003906 38.357422L8.4023438 38.369141C8.4559557 38.704254 8.5397609 39.029615 8.6503906 39.341797C9.4265293 41.564329 11.522228 43.082622 13.865234 42.984375L17 42.986328L17 45.988281L17 46.988281L17.001953 46.988281L17.830078 46.988281 A 1.0001 1.0001 0 0 0 18.164062 46.988281L19 46.988281L35 46.988281L35.001953 46.988281L35.832031 46.988281 A 1.0001 1.0001 0 0 0 36.158203 46.988281L37 46.988281L37.001953 46.988281L37.019531 40.582031C37.019531 39.876517 37.074008 39.165587 37.185547 38.457031C37.193376 38.410707 37.202617 38.364586 37.210938 38.318359C37.248524 38.094483 37.296795 37.871651 37.345703 37.648438C37.683382 36.19919 38.255384 34.802759 39.013672 33.488281 A 1.0001 1.0001 0 0 0 39.107422 33.271484C39.328165 32.910346 39.56543 32.553893 39.822266 32.205078C40.184544 31.712583 40.632531 30.880992 41.083984 29.988281L43.5 29.988281C45.421188 29.988281 47 28.40947 47 26.488281L47 2.9882812L25 2.9882812 z M 27 4.9882812L45 4.9882812L45 26.488281C45 27.329093 44.340812 27.988281 43.5 27.988281L43.5 27.986328C42.673 27.987328 42 27.315281 42 26.488281C42 25.837281 42.419 25.287078 43 25.080078L43 23.037109L43 22.988281L27 22.988281L27 4.9882812 z M 38 8.9882812L39.292969 10.28125L37 12.574219L34 9.5742188L30.292969 13.28125L31.707031 14.695312L34 12.402344L37 15.402344L40.707031 11.695312L42 12.988281L42 8.9882812L38 8.9882812 z M 30 17.988281L30 19.988281L42 19.988281L42 17.988281L30 17.988281 z M 25.5 24.988281L40.355469 24.988281C40.135634 25.443466 40 25.946603 40 26.486328C40 27.025795 40.13266 27.531492 40.351562 27.988281L25.5 27.988281C24.659671 27.988281 24 27.327702 24 26.488281C24 25.647952 24.66058 24.988281 25.5 24.988281 z" />
</svg>