<?xml version="1.0" encoding="utf-8"?>
<svg xmlns="http://www.w3.org/2000/svg" viewBox="0 0 50 50" width="515" height="515">
  <path d="M3 8C1.347656 8 0 9.347656 0 11L0 39C0 40.652344 1.347656 42 3 42L47 42C48.652344 42 50 40.652344 50 39L50 11C50 9.347656 48.652344 8 47 8 Z M 8 10L43 10L43 40L8 40 Z M 22.40625 16.96875C22.382813 16.976563 22.363281 16.988281 22.34375 17C22.203125 17.046875 22.089844 17.152344 22.035156 17.292969C21.980469 17.433594 21.988281 17.589844 22.0625 17.71875L22.59375 18.8125C21.625 19.535156 21 20.671875 21 22L29 22C29 20.671875 28.375 19.535156 27.40625 18.8125L27.9375 17.71875C28.03125 17.542969 28.011719 17.332031 27.890625 17.175781C27.769531 17.023438 27.566406 16.953125 27.375 17C27.234375 17.042969 27.121094 17.144531 27.0625 17.28125L26.5625 18.3125C26.082031 18.113281 25.5625 18 25 18C24.4375 18 23.917969 18.113281 23.4375 18.3125L22.9375 17.28125C22.859375 17.089844 22.675781 16.964844 22.46875 16.96875C22.449219 16.96875 22.425781 16.96875 22.40625 16.96875 Z M 18.90625 20.96875C18.863281 20.976563 18.820313 20.988281 18.78125 21C18.316406 21.105469 17.988281 21.523438 18 22L18 27C17.996094 27.359375 18.183594 27.695313 18.496094 27.878906C18.808594 28.058594 19.191406 28.058594 19.503906 27.878906C19.816406 27.695313 20.003906 27.359375 20 27L20 22C20.011719 21.710938 19.894531 21.433594 19.6875 21.238281C19.476563 21.039063 19.191406 20.941406 18.90625 20.96875 Z M 30.90625 20.96875C30.863281 20.976563 30.820313 20.988281 30.78125 21C30.316406 21.105469 29.988281 21.523438 30 22L30 27C29.996094 27.359375 30.183594 27.695313 30.496094 27.878906C30.808594 28.058594 31.191406 28.058594 31.503906 27.878906C31.816406 27.695313 32.003906 27.359375 32 27L32 22C32.011719 21.710938 31.894531 21.433594 31.6875 21.238281C31.476563 21.039063 31.191406 20.941406 30.90625 20.96875 Z M 4 21C4.550781 21 5 21.449219 5 22L5 28C5 28.554688 4.550781 29 4 29C3.449219 29 3 28.554688 3 28L3 22C3 21.449219 3.449219 21 4 21 Z M 21 23L21 28C21 28.789063 21.386719 29.421875 22 29.75L22 32C21.996094 32.359375 22.183594 32.695313 22.496094 32.878906C22.808594 33.058594 23.191406 33.058594 23.503906 32.878906C23.816406 32.695313 24.003906 32.359375 24 32L24 30L26 30L26 32C25.996094 32.359375 26.183594 32.695313 26.496094 32.878906C26.808594 33.058594 27.191406 33.058594 27.503906 32.878906C27.816406 32.695313 28.003906 32.359375 28 32L28 29.75C28.613281 29.421875 29 28.789063 29 28L29 23Z" />
</svg>