<?xml version="1.0" encoding="utf-8"?>
<svg xmlns="http://www.w3.org/2000/svg" viewBox="0 0 50 50" width="515" height="515">
  <path d="M25 46.101563C16.179688 46.101563 9 38.921875 9 30.101563C9 28.320313 9.277344 26.613281 9.828125 25.003906C6.980469 25.386719 4.234375 24.546875 2.394531 22.707031C0.578125 20.894531 -0.242188 18.328125 0.0820313 15.488281C0.394531 12.734375 1.746094 10.039063 3.894531 7.894531C6.371094 5.414063 9.570313 3.996094 12.667969 3.996094C15.003906 3.996094 17.054688 4.785156 18.597656 6.28125C20.675781 8.363281 21.457031 11.40625 20.804688 14.546875C23.546875 13.824219 26.609375 13.835938 29.125 14.566406C28.554688 11.417969 29.332031 8.355469 31.292969 6.394531C32.828125 4.859375 34.972656 4.015625 37.332031 4.015625C40.445313 4.015625 43.640625 5.429688 46.105469 7.894531C50.625 12.414063 51.289063 18.914063 47.617188 22.695313C46.066406 24.25 43.917969 25.097656 41.554688 25.097656C41.097656 25.097656 40.632813 25.066406 40.167969 25.003906C40.722656 26.613281 41 28.320313 41 30.101563C41 38.921875 33.820313 46.101563 25 46.101563Z" />
</svg>