<?xml version="1.0" encoding="utf-8"?>
<svg xmlns="http://www.w3.org/2000/svg" viewBox="0 0 50 50" width="515" height="515">
  <path d="M5 4C3.347656 4 2 5.347656 2 7L2 8.382813C2.734375 7.542969 3.800781 7 5 7L17.203125 7C17.082031 6.816406 16.972656 6.636719 16.878906 6.492188C16.113281 5.265625 15.316406 4 14 4 Z M 5 8C3.34375 8 2 9.34375 2 11L2 43C2 44.65625 3.34375 46 5 46L45 46C46.65625 46 48 44.65625 48 43L48 11C48 9.34375 46.65625 8 45 8L27 8L27 13L25 13L25 15L27 15L27 19L25 19L25 21L27 21L27 23L23 23L23 18L25 18L25 16L23 16L23 12L25 12L25 10L23 10L23 8 Z M 23 25L27 25C27.550781 25 28 25.449219 28 26L28 27C28 27.550781 27.550781 28 27 28L23 28C22.449219 28 22 27.550781 22 27L22 26C22 25.449219 22.449219 25 23 25 Z M 27 29.984375C27.4375 31.769531 28 34.214844 28 34.960938C28 36.632813 26.648438 38 25 38C23.351563 38 22 36.632813 22 34.960938C22 34.21875 22.558594 31.78125 22.996094 30L27 30 Z M 25 34C24.457031 34 24.011719 34.449219 24.015625 35C24.011719 35.550781 24.457031 36 25 36C25.542969 36 25.988281 35.550781 25.984375 35C25.988281 34.449219 25.542969 34 25 34Z" />
</svg>