<?xml version="1.0" encoding="utf-8"?>
<svg xmlns="http://www.w3.org/2000/svg" viewBox="0 0 50 50" width="515" height="515">
  <path d="M22.1875 13.96875C21.4375 13.957031 20.570313 14.085938 19.5 14.40625L19.5 19.1875C22.601563 15.988281 27.492188 19.59375 30.59375 15.59375C26.367188 16.488281 25.441406 14.015625 22.1875 13.96875 Z M 35.03125 15.96875C34.769531 15.960938 34.480469 15.976563 34.1875 16L34.1875 20.8125C36.789063 18.3125 40.90625 23.011719 43.40625 19.8125C39.375 19.71875 38.941406 16.089844 35.03125 15.96875 Z M 8.71875 16.96875C8.097656 16.964844 7.382813 17.085938 6.5 17.40625L6.5 22.1875C9.101563 18.988281 13.1875 22.59375 15.6875 18.59375C12.195313 19.40625 11.410156 16.992188 8.71875 16.96875 Z M 25 20.3125C12.878906 20.3125 0 23.230469 0 28.6875L0 49C0 49.554688 0.449219 50 1 50L20 50C20.550781 50 21 49.554688 21 49L21 31.65625C21.730469 31.632813 22.980469 31.59375 25 31.59375C27.019531 31.59375 28.269531 31.632813 29 31.65625L29 49C29 49.554688 29.445313 50 30 50L49 50C49.554688 50 50 49.554688 50 49L50 28.6875C50 23.230469 37.117188 20.3125 25 20.3125 Z M 16 31L16 36.3125L12 36.5L12 31.40625C12 31.40625 14.101563 31.199219 16 31 Z M 34 31C35.898438 31.199219 38 31.40625 38 31.40625L38 36.5L34 36.3125 Z M 9 32L9 36.8125L5 37.1875L5 33C5 33 7.101563 32.300781 9 32 Z M 41 32C42.898438 32.300781 45 33 45 33L45 37.3125L41 36.90625 Z M 16 40.40625L16 46L12 46L12 40.59375 Z M 34 40.40625L38 40.59375L38 46L34 46 Z M 9 40.8125L9 46L5 46L5 41.3125 Z M 41 40.8125L45 41.3125L45 46L41 46Z" />
</svg>