<?xml version="1.0" encoding="utf-8"?>
<svg xmlns="http://www.w3.org/2000/svg" viewBox="0 0 50 50" width="515" height="515">
  <path d="M46.6875 0.0625C46.4375 0.0390625 46.199219 0.113281 46 0.3125L40.375 5C39.882813 4.421875 37.886719 2.070313 37.34375 1.4375C36.828125 0.835938 36.078125 0.351563 35.03125 0.46875C34.507813 0.527344 33.949219 0.847656 33.59375 1.34375C33.238281 1.839844 33.058594 2.449219 33 3.21875C32.796875 6.144531 32.902344 8.359375 32.90625 8.40625C31.867188 9.253906 28.242188 12.222656 26.6875 13.59375C26.085938 13.195313 25.304688 12.6875 24.40625 12.6875C23.804688 12.6875 23.1875 12.914063 22.6875 13.3125L12.8125 21.6875L12.59375 21.90625C12.492188 22.105469 12.007813 22.914063 12.40625 24.3125C12.507813 24.511719 12.492188 24.707031 12.59375 24.90625C12.695313 25.105469 12.710938 25.300781 12.8125 25.5C12.210938 26 11 27.1875 11 27.1875C10.898438 27.289063 9.898438 28.289063 10 30.1875C10.101563 31.085938 8.40625 33.386719 6.90625 34.6875C5.40625 35.988281 1 39.59375 1 39.59375C0.199219 40.292969 -0.605469 41.8125 0.59375 43.3125L4.90625 48.40625C5.105469 48.707031 6.101563 50 7.5 50C8 50 8.710938 49.800781 9.3125 49C10.3125 47.601563 14.894531 38.207031 16.59375 34.90625C17.394531 37.605469 20.710938 45.699219 20.8125 46C20.8125 46.101563 20.90625 46.085938 20.90625 46.1875C21.007813 46.289063 21.601563 47 22.5 47C22.898438 47 23.289063 46.800781 23.6875 46.5C24.289063 46 26.59375 43.992188 27.09375 43.59375C27.394531 43.394531 27.613281 43.210938 27.8125 42.8125C28.113281 42.113281 28.007813 41.195313 27.40625 40.09375C26.875 39.136719 25.683594 36.492188 24.625 34.03125C26.519531 32.636719 27.34375 30.691406 26.90625 28.40625C32.207031 32.90625 38.113281 35.09375 45.3125 35.09375C47.511719 35.09375 47.90625 34 47.90625 33L47.90625 28.3125C48.007813 28.011719 48 27.1875 47.5 26.6875C47.300781 26.386719 46.800781 26 46 26C39.199219 26 35.695313 23.585938 34.09375 22.1875L25 29.5C25 30.535156 24.617188 31.34375 23.8125 32.0625C23.4375 31.179688 22.839844 29.738281 22.8125 29.6875C22.8125 29.6875 22.613281 29.289063 22.8125 29.1875C23.613281 28.585938 39.40625 15.3125 39.40625 15.3125C39.507813 15.210938 40.304688 14.585938 40.40625 13.6875C40.40625 13.386719 40.207031 12.898438 39.90625 12.5L39.6875 12.25L49.3125 4.09375C49.511719 3.894531 49.585938 3.707031 49.6875 3.40625C49.6875 3.207031 49.605469 2.886719 49.40625 2.6875L47.40625 0.40625C47.207031 0.207031 46.9375 0.0859375 46.6875 0.0625 Z M 35.25 2.46875C35.304688 2.460938 35.757813 2.648438 35.84375 2.75C36.363281 3.355469 38.320313 5.664063 38.84375 6.28125L36.3125 8.40625L36.09375 8.1875C36.007813 8.101563 35.542969 7.761719 34.90625 7.65625C34.886719 6.933594 34.851563 5.523438 35 3.375C35.039063 2.84375 35.160156 2.582031 35.21875 2.5C35.277344 2.417969 35.222656 2.472656 35.25 2.46875Z" />
</svg>