<?xml version="1.0" encoding="utf-8"?>
<svg xmlns="http://www.w3.org/2000/svg" viewBox="0 0 50 50" width="515" height="515">
  <path d="M27 44L23 44C22.449219 44 22 43.554688 22 43L22 30.222656L10.894531 36.570313C10.421875 36.84375 9.816406 36.679688 9.539063 36.207031L7.539063 32.808594C7.402344 32.578125 7.363281 32.304688 7.433594 32.046875C7.5 31.789063 7.667969 31.570313 7.898438 31.4375L19.003906 25L7.898438 18.566406C7.667969 18.433594 7.5 18.210938 7.433594 17.953125C7.363281 17.695313 7.402344 17.421875 7.535156 17.191406L9.535156 13.792969C9.8125 13.320313 10.421875 13.160156 10.894531 13.433594L22 19.777344L22 7C22 6.449219 22.449219 6 23 6L27 6C27.554688 6 28 6.449219 28 7L28 19.777344L39.105469 13.433594C39.578125 13.160156 40.183594 13.320313 40.460938 13.792969L42.460938 17.191406C42.597656 17.421875 42.636719 17.695313 42.566406 17.953125C42.5 18.210938 42.332031 18.433594 42.101563 18.566406L30.996094 25L42.101563 31.433594C42.328125 31.570313 42.496094 31.789063 42.566406 32.046875C42.632813 32.304688 42.597656 32.578125 42.460938 32.808594L40.460938 36.207031C40.183594 36.679688 39.578125 36.84375 39.105469 36.566406L28 30.222656L28 43C28 43.554688 27.554688 44 27 44Z" />
</svg>