<?xml version="1.0" encoding="utf-8"?>
<svg xmlns="http://www.w3.org/2000/svg" viewBox="0 0 50 50" width="515" height="515">
  <path d="M3 2C2.449219 2 2 2.449219 2 3L2 39C2 39.554688 2.449219 40 3 40L12 40L12 47C12 47.242188 12.089844 47.476563 12.25 47.65625C12.265625 47.671875 12.265625 47.703125 12.28125 47.71875C12.292969 47.71875 12.300781 47.71875 12.3125 47.71875C12.324219 47.726563 12.332031 47.742188 12.34375 47.75C12.507813 47.898438 12.71875 47.984375 12.9375 48C12.957031 48 12.976563 48 13 48L37 48C37.128906 47.992188 37.257813 47.960938 37.375 47.90625C37.40625 47.894531 37.441406 47.890625 37.46875 47.875C37.523438 47.839844 37.578125 47.796875 37.625 47.75C37.632813 47.746094 37.648438 47.757813 37.65625 47.75C37.691406 47.722656 37.722656 47.691406 37.75 47.65625C37.757813 47.644531 37.773438 47.636719 37.78125 47.625C37.921875 47.449219 38 47.226563 38 47L38 40L47 40C47.554688 40 48 39.554688 48 39L48 3C48 2.449219 47.554688 2 47 2 Z M 7 8L10 8C10.550781 8 11 8.449219 11 9L11 11C11 11.550781 10.550781 12 10 12L7 12C6.449219 12 6 11.550781 6 11L6 9C6 8.449219 6.449219 8 7 8 Z M 15 8L35 8C35.554688 8 36 8.449219 36 9L36 23C36 23.550781 35.554688 24 35 24L15 24C14.449219 24 14 23.550781 14 23L14 9C14 8.449219 14.449219 8 15 8 Z M 40 8L43 8C43.550781 8 44 8.449219 44 9L44 11C44 11.550781 43.550781 12 43 12L40 12C39.449219 12 39 11.550781 39 11L39 9C39 8.449219 39.449219 8 40 8 Z M 7 14L10 14C10.550781 14 11 14.449219 11 15L11 17C11 17.550781 10.550781 18 10 18L7 18C6.449219 18 6 17.550781 6 17L6 15C6 14.449219 6.449219 14 7 14 Z M 40 14L43 14C43.550781 14 44 14.449219 44 15L44 17C44 17.550781 43.550781 18 43 18L40 18C39.449219 18 39 17.550781 39 17L39 15C39 14.449219 39.449219 14 40 14 Z M 7 20L10 20C10.550781 20 11 20.449219 11 21L11 23C11 23.550781 10.550781 24 10 24L7 24C6.449219 24 6 23.550781 6 23L6 21C6 20.449219 6.449219 20 7 20 Z M 40 20L43 20C43.550781 20 44 20.449219 44 21L44 23C44 23.550781 43.550781 24 43 24L40 24C39.449219 24 39 23.550781 39 23L39 21C39 20.449219 39.449219 20 40 20 Z M 12 28L38 28C39.105469 28 40 28.894531 40 30C40 31.105469 39.105469 32 38 32L38 30L36 30L36 41.09375C33.484375 41.511719 31.511719 43.484375 31.09375 46L18.90625 46C18.488281 43.484375 16.515625 41.511719 14 41.09375L14 30L12 30L12 32C10.894531 32 10 31.105469 10 30C10 28.894531 10.894531 28 12 28 Z M 17.0625 30C17.515625 32.851563 20.832031 35 25 35C29.167969 35 32.484375 32.851563 32.9375 30 Z M 25 37C22.757813 37 21 38.316406 21 40C21 41.683594 22.757813 43 25 43C27.242188 43 29 41.683594 29 40C29 38.316406 27.242188 37 25 37Z" />
</svg>