<?xml version="1.0" encoding="utf-8"?>
<svg xmlns="http://www.w3.org/2000/svg" viewBox="0 0 50 50" width="515" height="515">
  <path d="M25.910156 4.390625C17.050156 4.550625 15.979688 11.080781 17.929688 18.550781C17.579687 18.760781 17.010391 19.419375 17.150391 20.609375C17.420391 22.819375 18.320391 23.379687 18.900391 23.429688C19.120391 25.489688 20.480937 27.930312 21.210938 28.320312C21.210937 29.790312 21.269141 30.919297 21.119141 32.529297C19.369141 37.239297 7.55 35.92 7 45L29.080078 45C28.390078 43.48 28 41.79 28 40C28 37 29.090391 34.269922 30.900391 32.169922C30.800391 30.739922 30.839844 29.680312 30.839844 28.320312C31.569844 27.930312 32.879609 25.489687 33.099609 23.429688C33.679609 23.379688 34.579609 22.819375 34.849609 20.609375C34.989609 19.419375 34.420078 18.760781 34.080078 18.550781C35.010078 15.740781 36.950234 7.0503906 30.490234 6.1503906C29.820234 4.9803906 28.120156 4.390625 25.910156 4.390625 z M 40 30C34.5 30 30 34.5 30 40C30 45.5 34.5 50 40 50C45.5 50 50 45.5 50 40C50 34.5 45.5 30 40 30 z M 40 32C44.4 32 48 35.6 48 40C48 44.4 44.4 48 40 48C35.6 48 32 44.4 32 40C32 35.6 35.6 32 40 32 z M 45.091797 37.003906C44.837047 36.980656 44.572875 37.055422 44.359375 37.232422L39.060547 41.646484L36.707031 39.292969C36.316031 38.901969 35.683969 38.901969 35.292969 39.292969C34.901969 39.683969 34.901969 40.316031 35.292969 40.707031L38.292969 43.707031C38.486969 43.901031 38.743 44 39 44C39.227 44 39.454625 43.922578 39.640625 43.767578L45.640625 38.767578C46.064625 38.414578 46.121578 37.783375 45.767578 37.359375C45.591078 37.147375 45.346547 37.027156 45.091797 37.003906 z" />
</svg>