<?xml version="1.0" encoding="utf-8"?>
<svg xmlns="http://www.w3.org/2000/svg" viewBox="0 0 50 50" width="515" height="515">
  <path d="M12.970703 5.9726562 A 2.0002 2.0002 0 0 0 11 8L11 42 A 2.0002 2.0002 0 1 0 15 42L15 8 A 2.0002 2.0002 0 0 0 12.970703 5.9726562 z M 36.970703 5.9726562 A 2.0002 2.0002 0 0 0 35 8L35 42 A 2.0002 2.0002 0 1 0 39 42L39 8 A 2.0002 2.0002 0 0 0 36.970703 5.9726562 z M 6.9707031 14.972656 A 2.0002 2.0002 0 0 0 5 17L5 33 A 2.0002 2.0002 0 1 0 9 33L9 17 A 2.0002 2.0002 0 0 0 6.9707031 14.972656 z M 42.970703 14.972656 A 2.0002 2.0002 0 0 0 41 17L41 33 A 2.0002 2.0002 0 1 0 45 33L45 17 A 2.0002 2.0002 0 0 0 42.970703 14.972656 z M 18.970703 15.972656 A 2.0002 2.0002 0 0 0 17 18L17 32 A 2.0002 2.0002 0 1 0 21 32L21 18 A 2.0002 2.0002 0 0 0 18.970703 15.972656 z M 30.970703 15.972656 A 2.0002 2.0002 0 0 0 29 18L29 32 A 2.0002 2.0002 0 1 0 33 32L33 18 A 2.0002 2.0002 0 0 0 30.970703 15.972656 z M 24.970703 20.972656 A 2.0002 2.0002 0 0 0 23 23L23 27 A 2.0002 2.0002 0 1 0 27 27L27 23 A 2.0002 2.0002 0 0 0 24.970703 20.972656 z M 1.4765625 20.978516 A 1.50015 1.50015 0 0 0 0 22.5L0 27.5 A 1.50015 1.50015 0 1 0 3 27.5L3 22.5 A 1.50015 1.50015 0 0 0 1.4765625 20.978516 z M 48.476562 20.978516 A 1.50015 1.50015 0 0 0 47 22.5L47 27.5 A 1.50015 1.50015 0 1 0 50 27.5L50 22.5 A 1.50015 1.50015 0 0 0 48.476562 20.978516 z" />
</svg>