<?xml version="1.0" encoding="utf-8"?>
<svg xmlns="http://www.w3.org/2000/svg" viewBox="0 0 50 50" width="515" height="515">
  <path d="M26.599609 2C25.899609 2 25.300781 2.3007813 24.800781 2.8007812L12 16L12 34L24.900391 47.199219C25.300391 47.699219 25.999219 48 26.699219 48C27.999219 48 29.099609 46.899609 29.099609 45.599609L29.099609 4.4003906C28.999609 3.1003906 27.899609 2 26.599609 2 z M 38.470703 6.7929688 A 1.0001 1.0001 0 0 0 38.046875 8.6914062C44.023195 11.726997 48.099609 17.882222 48.099609 25C48.099609 32.117778 44.023195 38.273003 38.046875 41.308594 A 1.0001377 1.0001377 0 1 0 38.953125 43.091797C45.576805 39.727388 50.099609 32.882222 50.099609 25C50.099609 17.117778 45.576805 10.272612 38.953125 6.9082031 A 1.0001 1.0001 0 0 0 38.470703 6.7929688 z M 34.902344 12.09375 A 1.0001 1.0001 0 0 0 34.419922 13.976562C38.308048 16.105776 41 20.279085 41 25C41 29.733987 38.400474 33.889373 34.535156 35.914062 A 1.0003098 1.0003098 0 1 0 35.464844 37.685547C39.999526 35.310237 43 30.466013 43 25C43 19.520915 39.892733 14.693444 35.380859 12.222656 A 1.0001 1.0001 0 0 0 34.902344 12.09375 z M 5 16C3.3 16 2 17.3 2 19L2 31C2 32.7 3.3 34 5 34L10 34L10 16L5 16 z M 30.636719 18.398438 A 1.0001 1.0001 0 0 0 30.466797 20.373047C32.508799 20.863127 34 22.744444 34 25C34 27.255556 32.525832 29.049798 30.429688 29.636719 A 1.0001 1.0001 0 1 0 30.96875 31.5625C33.872604 30.749421 36 28.144444 36 25C36 21.855556 33.891592 19.137654 30.933594 18.427734 A 1.0001 1.0001 0 0 0 30.636719 18.398438 z" />
</svg>