<?xml version="1.0" encoding="utf-8"?>
<svg xmlns="http://www.w3.org/2000/svg" viewBox="0 0 50 50" width="515" height="515">
  <path d="M28.9375 0C28.808594 0.0078125 28.6875 0.03125 28.5625 0.09375C28.386719 0.179688 24.464844 2.214844 24.0625 8.03125C23.976563 8.035156 23.894531 8.058594 23.8125 8.0625C22.726563 4.640625 18.917969 3.898438 16.9375 4C16.386719 4.027344 15.972656 4.511719 16 5.0625C16.027344 5.613281 16.527344 6.027344 17.0625 6C17.222656 5.988281 20.585938 5.84375 21.71875 8.25C12.382813 9.652344 5.042969 16.910156 4.125 26.0625C1.785156 26.476563 0 28.542969 0 31C0 33.347656 1.667969 35.339844 3.90625 35.84375C6.664063 46.265625 16.917969 50 25 50C33.082031 50 43.335938 46.265625 46.09375 35.84375C48.335938 35.339844 50 33.347656 50 31C50 28.542969 48.214844 26.476563 45.875 26.0625C44.886719 16.1875 36.414063 8.546875 26.03125 8.0625C26.394531 3.523438 29.3125 1.972656 29.4375 1.90625C29.933594 1.660156 30.152344 1.058594 29.90625 0.5625C29.722656 0.191406 29.328125 -0.0234375 28.9375 0 Z M 17 26C18.65625 26 20 27.34375 20 29C20 30.65625 18.65625 32 17 32C15.34375 32 14 30.65625 14 29C14 27.34375 15.34375 26 17 26 Z M 33 26C34.65625 26 36 27.34375 36 29C36 30.65625 34.65625 32 33 32C31.34375 32 30 30.65625 30 29C30 27.34375 31.34375 26 33 26 Z M 18.875 38.21875C19.128906 38.1875 19.410156 38.234375 19.625 38.40625C19.644531 38.417969 21.699219 40 25 40C28.339844 40 30.355469 38.421875 30.375 38.40625C30.808594 38.0625 31.4375 38.160156 31.78125 38.59375C32.125 39.027344 32.058594 39.625 31.625 39.96875C31.519531 40.050781 29.027344 42 25 42C20.972656 42 18.480469 40.050781 18.375 39.96875C17.941406 39.625 17.875 39.027344 18.21875 38.59375C18.390625 38.378906 18.621094 38.25 18.875 38.21875Z" />
</svg>