<?xml version="1.0" encoding="utf-8"?>
<svg xmlns="http://www.w3.org/2000/svg" viewBox="0 0 50 50" width="515" height="515">
  <path d="M26 2C23.792969 2 22 3.792969 22 6C22 8.207031 23.792969 10 26 10C28.207031 10 30 8.207031 30 6C30 3.792969 28.207031 2 26 2 Z M 18 9C15.792969 9 14 10.792969 14 13C14 15.207031 15.792969 17 18 17C20.207031 17 22 15.207031 22 13C22 10.792969 20.207031 9 18 9 Z M 33.871094 11.023438C33.601563 11.027344 33.382813 11.058594 33.25 11.097656L25.679688 12.664063C25.636719 12.671875 25.59375 12.6875 25.554688 12.699219C24.65625 13.011719 23.949219 13.738281 23.644531 14.742188L23.519531 15.355469L25.921875 14.328125C26.421875 14.109375 26.953125 14 27.5 14L32.75 14L37.53125 13.402344C37.054688 12.726563 36.628906 12.125 36.53125 12C35.894531 11.203125 34.667969 11.007813 33.871094 11.023438 Z M 41.15625 15.003906C41.027344 14.996094 40.890625 14.996094 40.75 15.015625L32.875 16L27.5 16C27.230469 16 26.960938 16.054688 26.714844 16.160156L19.714844 19.160156C19.242188 19.363281 18.867188 19.734375 18.664063 20.203125L16.046875 26.238281L10.96875 29.285156C10.023438 29.851563 9.714844 31.082031 10.28125 32.03125C10.660156 32.65625 11.320313 33 12 33C12.351563 33 12.707031 32.90625 13.03125 32.714844L18.65625 29.339844C19.011719 29.125 19.296875 28.804688 19.460938 28.421875L21.347656 24.066406L22.796875 26.015625L23.839844 26C24.71875 25.96875 27.394531 25.496094 28.402344 24.195313C28.6875 23.828125 28.625 23.515625 28.625 23.515625L28 20.015625L33 20C33.082031 20 33.167969 19.996094 33.25 19.984375L41.25 18.984375C42.34375 18.847656 43.121094 17.847656 42.984375 16.75C42.863281 15.792969 42.085938 15.074219 41.15625 15.003906 Z M 42.203125 20.808594C41.976563 20.878906 41.738281 20.9375 41.496094 20.96875L37 21.53125L37 23C37 23.964844 37.691406 24.753906 38.597656 24.941406C38.636719 24.953125 38.679688 24.960938 38.722656 24.96875C38.734375 24.96875 38.746094 24.972656 38.753906 24.972656C38.757813 24.972656 38.757813 24.972656 38.765625 24.972656C38.839844 24.984375 38.910156 25 39 25C39.675781 25 40.324219 24.664063 40.6875 24.152344C41.003906 23.71875 41.105469 23.527344 41.269531 23.199219C41.53125 22.671875 41.886719 21.714844 42.203125 20.808594 Z M 35 21.78125L33.507813 21.96875C33.339844 21.988281 33.167969 22 33.003906 22L30.386719 22.007813L30.738281 24.066406L31.089844 24.484375C31.148438 24.558594 34.914063 29.066406 38.984375 33.566406C38.96875 33.019531 38.871094 32.480469 38.671875 31.945313L36.191406 25.847656C36.191406 25.84375 36.191406 25.84375 36.1875 25.84375C35.457031 25.117188 35 24.109375 35 23 Z M 29.550781 25.765625C27.691406 27.839844 24.070313 27.992188 23.910156 28L23 28.03125C23 28.03125 22 31.875 16.417969 35.9375C11.539063 39.488281 5.964844 40 5.910156 40.003906C5.90625 40.003906 5.902344 40.007813 5.898438 40.007813L5.890625 40.003906C5.824219 40.011719 5.765625 40.042969 5.703125 40.0625C5.652344 40.078125 5.59375 40.085938 5.546875 40.109375C5.484375 40.140625 5.441406 40.1875 5.390625 40.230469C5.34375 40.261719 5.296875 40.289063 5.257813 40.328125C5.210938 40.382813 5.179688 40.449219 5.144531 40.511719C5.121094 40.550781 5.085938 40.589844 5.070313 40.636719C5.023438 40.75 5 40.871094 5 41C5 42.734375 6.175781 46.199219 10.640625 46.910156C12.535156 47.210938 14.0625 46.652344 14.902344 46.222656C14.902344 46.226563 14.90625 46.222656 14.910156 46.226563C15.804688 46.902344 17.613281 48 20 48C22.199219 48 23.914063 47.070313 24.871094 46.390625C25.675781 47.121094 27.222656 48 30 48C32.902344 48 34.460938 47.042969 35.234375 46.296875C35.972656 46.632813 37.191406 47 39 47C43.515625 47 44.878906 43.5 44.9375 43.351563C45.082031 42.964844 44.972656 42.527344 44.664063 42.253906C39.359375 37.539063 29.550781 25.765625 29.550781 25.765625Z" />
</svg>