<?xml version="1.0" encoding="utf-8"?>
<svg xmlns="http://www.w3.org/2000/svg" viewBox="0 0 50 50" width="515" height="515">
  <path d="M48 0L2 0C0.839844 0 0 0.839844 0 2L0 48C0 49.160156 0.839844 50 2 50L48 50C49.160156 50 50 49.160156 50 48L50 2C50 0.839844 49.160156 0 48 0 Z M 26.101563 37.199219L26.101563 40L24.101563 40L24.101563 37.199219C21.398438 36.898438 17.101563 36 16.898438 29.300781L19 29.300781C18.800781 35.601563 24.898438 35.601563 25.101563 35.601563C31 35.601563 31.199219 31.601563 31.199219 30.699219C31.199219 23.601563 17.5 28.601563 17.5 19.199219C17.5 17.300781 18.5 13.101563 24.101563 12.800781L24.101563 10L26.101563 10L26.101563 12.800781C30.898438 13 32.898438 17.101563 32.699219 19.898438L30.601563 19.898438C30.5 18.199219 29.902344 14.398438 25.101563 14.398438C20.398438 14.398438 19.5 17.101563 19.5 19.398438C19.5 26.300781 33.199219 21.699219 33.199219 30.699219C33.199219 31.699219 32.800781 36.699219 26.101563 37.199219Z" />
</svg>