<?xml version="1.0" encoding="utf-8"?>
<svg xmlns="http://www.w3.org/2000/svg" viewBox="0 0 50 50" width="515" height="515">
  <path d="M42.511719 1.984375C41.023438 1.984375 39.617188 2.578125 38.546875 3.648438L28.144531 14.046875C26.101563 16.089844 23.09375 20.113281 19.90625 24.375C16.472656 28.972656 14.917969 31.722656 12.246094 34.445313L6.941406 39.75L10.347656 43.15625L15.65625 37.847656C18.414063 35.035156 21.347656 33.347656 26.121094 29.78125C30.214844 26.71875 34.078125 23.828125 36.054688 21.855469L46.253906 11.652344C48.28125 9.625 48.597656 6.535156 47.003906 4.304688C45.929688 2.832031 44.289063 1.984375 42.511719 1.984375 Z M 15 2C11.691406 2 9 4.691406 9 8C9 8.152344 9.011719 8.304688 9.023438 8.453125C10.484375 8.082031 11.875 7.269531 13.09375 6.050781C14.300781 4.84375 15.109375 3.46875 15.488281 2.023438C15.328125 2.011719 15.164063 2 15 2 Z M 16.953125 2.335938C16.515625 4.0625 15.570313 5.691406 14.152344 7.109375C12.71875 8.542969 11.070313 9.492188 9.320313 9.925781C9.910156 11.65625 11.265625 13.027344 12.984375 13.640625C13.46875 11.925781 14.457031 10.28125 15.90625 8.832031C17.261719 7.476563 18.867188 6.566406 20.683594 6.09375C20.089844 4.335938 18.707031 2.941406 16.953125 2.335938 Z M 20.980469 7.578125C19.457031 7.992188 18.109375 8.757813 16.96875 9.894531C15.726563 11.136719 14.871094 12.53125 14.449219 13.972656C14.628906 13.988281 14.8125 14 15 14C18.308594 14 21 11.308594 21 8C21 7.859375 20.988281 7.71875 20.980469 7.578125 Z M 3.824219 40.238281C3.347656 40.238281 2.875 40.414063 2.523438 40.765625C1.824219 41.464844 1.824219 42.664063 2.523438 43.363281L6.644531 47.484375C7.34375 48.183594 8.542969 48.183594 9.242188 47.484375C9.945313 46.78125 9.945313 45.582031 9.242188 44.882813L5.125 40.765625C4.773438 40.414063 4.300781 40.238281 3.824219 40.238281Z" />
</svg>