<?xml version="1.0" encoding="utf-8"?>
<svg xmlns="http://www.w3.org/2000/svg" viewBox="0 0 50 50" width="515" height="515">
  <path d="M20 3C19.734375 3 19.480469 3.105469 19.292969 3.292969L17.585938 5L9.386719 5C7.53125 5 5.90625 6.289063 5.488281 8.101563L3.203125 18L2 18C0.898438 18 0 18.898438 0 20L0 23C0 24.101563 0.898438 25 2 25L48 25C49.101563 25 50 24.101563 50 23L50 20C50 18.898438 49.101563 18 48 18L46.796875 18L44.511719 8.101563C44.09375 6.289063 42.46875 5 40.613281 5L32.414063 5L30.707031 3.292969C30.519531 3.105469 30.265625 3 30 3 Z M 20.414063 5L29.585938 5L31.292969 6.707031C31.480469 6.894531 31.734375 7 32 7L40.613281 7C41.550781 7 42.351563 7.636719 42.5625 8.550781L44.742188 18L5.257813 18L7.4375 8.550781C7.648438 7.640625 8.449219 7 9.386719 7L18 7C18.265625 7 18.519531 6.894531 18.707031 6.707031 Z M 2.769531 27L7.828125 44.542969C8.070313 45.386719 8.984375 46 10 46L40 46C41.015625 46 41.929688 45.386719 42.171875 44.542969L47.230469 27 Z M 17 30C17.550781 30 18 30.449219 18 31L18 42C18 42.550781 17.550781 43 17 43C16.449219 43 16 42.550781 16 42L16 31C16 30.449219 16.449219 30 17 30 Z M 25 30C25.550781 30 26 30.449219 26 31L26 42C26 42.550781 25.550781 43 25 43C24.449219 43 24 42.550781 24 42L24 31C24 30.449219 24.449219 30 25 30 Z M 33 30C33.550781 30 34 30.449219 34 31L34 42C34 42.550781 33.550781 43 33 43C32.449219 43 32 42.550781 32 42L32 31C32 30.449219 32.449219 30 33 30Z" />
</svg>