<?xml version="1.0" encoding="utf-8"?>
<svg xmlns="http://www.w3.org/2000/svg" viewBox="0 0 50 50" width="515" height="515">
  <path d="M28.998047 2C26.242047 2 24 4.243 24 7C24 9.757 26.242047 12 28.998047 12C31.756047 12 34 9.757 34 7C34 4.243 31.756047 2 28.998047 2 z M 21.501953 13.021484C21.269953 13.021484 21.039453 13.054187 20.814453 13.117188L12.814453 15.998047C12.182453 16.178047 11.657609 16.591812 11.349609 17.132812L7.3300781 23.162109C6.9990781 23.742109 6.9148438 24.416547 7.0898438 25.060547C7.2658438 25.704547 7.6807656 26.241266 8.2597656 26.572266C9.4157656 27.235266 11.022344 26.779781 11.652344 25.675781L15.144531 20.533203L19.089844 19.144531C16.652844 23.685531 14.978 26.836859 15 28.255859L15 36.380859L8.0976562 42.650391C6.8386563 43.752391 6.6317188 45.653672 7.6367188 46.888672C8.2107187 47.594672 9.06075 48 9.96875 48C10.69375 48 11.396359 47.735812 11.943359 47.257812L19.976562 40C20.627562 39.43 21 38.608187 21 37.742188L21 33.351562L25.253906 37.339844L27.089844 45.607422C27.392844 46.969422 28.623578 47.957031 30.017578 47.957031C30.314578 47.957031 30.610437 47.912219 30.898438 47.824219C32.385438 47.374219 33.275828 45.779313 32.923828 44.195312L30.947266 35.304688C30.841266 34.826687 30.615969 34.377 30.292969 34L24.601562 27.658203L27.820312 21.449219L30.466797 24.953125C30.934797 25.608125 31.694953 26 32.501953 26L38.498047 26C36.014047 26 34 28.015047 34 30.498047C34 32.983047 36.014047 35 38.498047 35C40.987047 35 43 32.983047 43 30.498047C43 28.016368 40.989122 26.002144 38.501953 26C39.235953 26 39.928297 25.678187 40.404297 25.117188C40.880297 24.558188 41.086797 23.816031 40.966797 23.082031C40.773797 21.895031 39.665578 21 38.392578 21L33.787109 21L30.173828 14.957031C29.305828 13.744031 27.898203 13.021484 26.408203 13.021484L21.501953 13.021484 z" />
</svg>