<?xml version="1.0" encoding="utf-8"?>
<svg xmlns="http://www.w3.org/2000/svg" viewBox="0 0 50 50" width="515" height="515">
  <path d="M24 2.023438C17.511719 2.304688 11.71875 5.285156 7.703125 9.867188C12.929688 12.539063 16.589844 17.828125 16.949219 24L24 24 Z M 26 2.023438L26 24L33.050781 24C33.410156 17.828125 37.070313 12.539063 42.296875 9.867188C38.28125 5.285156 32.488281 2.304688 26 2.023438 Z M 6.421875 11.464844C3.828125 15.015625 2.226563 19.328125 2.023438 24L14.949219 24C14.582031 18.457031 11.199219 13.742188 6.421875 11.464844 Z M 43.578125 11.464844C38.800781 13.742188 35.417969 18.457031 35.050781 24L47.972656 24C47.773438 19.328125 46.171875 15.015625 43.578125 11.464844 Z M 2.023438 26C2.226563 30.671875 3.828125 34.984375 6.421875 38.535156C11.199219 36.257813 14.582031 31.542969 14.949219 26 Z M 16.949219 26C16.585938 32.171875 12.929688 37.460938 7.703125 40.136719C11.714844 44.714844 17.511719 47.695313 24 47.972656L24 26 Z M 26 26L26 47.972656C32.488281 47.695313 38.28125 44.714844 42.296875 40.136719C37.070313 37.460938 33.410156 32.171875 33.050781 26 Z M 35.050781 26C35.417969 31.542969 38.800781 36.257813 43.578125 38.535156C46.171875 34.984375 47.773438 30.671875 47.972656 26Z" />
</svg>