<?xml version="1.0" encoding="utf-8"?>
<svg xmlns="http://www.w3.org/2000/svg" viewBox="0 0 50 50" width="515" height="515">
  <path d="M25 0C24.4375 0 24 0.4375 24 1L24 3.0625C16.890625 3.664063 2.679688 10.171875 0.34375 18.9375C1.105469 19.757813 1.742188 20.121094 1.75 20.125C1.789063 20.144531 3.789063 21.1875 5.40625 21.1875C6.789063 21.1875 8.898438 20.402344 9.59375 20.09375C9.601563 20.089844 9.617188 20.097656 9.625 20.09375C10.792969 9.675781 21.21875 4.539063 24 3.34375C24.359375 3.191406 24.589844 3.085938 24.65625 3.0625C24.691406 3.046875 24.714844 3.042969 24.75 3.03125C24.820313 3.011719 24.898438 3.003906 24.96875 3C25.019531 3 25.074219 3.023438 25.125 3.03125C25.171875 3.039063 25.203125 3.015625 25.25 3.03125C25.269531 3.035156 25.546875 3.117188 26 3.28125C28.894531 4.3125 39.332031 8.804688 40.40625 20.09375C40.417969 20.097656 40.425781 20.089844 40.4375 20.09375C40.460938 20.105469 42.746094 21.1875 44.6875 21.1875C46.542969 21.1875 48.140625 20.167969 48.15625 20.15625C48.175781 20.144531 48.898438 19.660156 49.65625 18.9375C47.324219 10.171875 33.109375 3.664063 26 3.0625L26 1C26 0.4375 25.5625 0 25 0 Z M 24.9375 5.46875C23.761719 6.914063 21.332031 11.011719 21.03125 20.34375C21.832031 20.667969 23.363281 21.1875 24.90625 21.1875C26.472656 21.1875 28.105469 20.671875 28.96875 20.34375C28.636719 11.496094 26.121094 7.070313 24.9375 5.46875 Z M 27.75 6.1875C29.128906 8.765625 30.714844 13.230469 30.96875 20.34375C31.703125 20.660156 33.195313 21.1875 34.90625 21.1875C36.28125 21.1875 37.5625 20.867188 38.4375 20.5625C37.777344 12.335938 31.582031 8.058594 27.75 6.1875 Z M 21.84375 6.6875C17.988281 8.957031 12.246094 13.496094 11.5625 20.59375C12.382813 20.882813 13.613281 21.1875 15.09375 21.1875C16.972656 21.1875 18.367188 20.683594 19.03125 20.375C19.242188 13.554688 20.5625 9.265625 21.84375 6.6875 Z M 50 21.3125C49.582031 21.636719 49.28125 21.824219 49.25 21.84375C49.179688 21.890625 47.164063 23.1875 44.6875 23.1875C42.835938 23.1875 40.859375 22.457031 40 22.09375C39.136719 22.460938 37.132813 23.1875 34.90625 23.1875C32.695313 23.1875 30.800781 22.472656 29.96875 22.09375C29.074219 22.453125 26.984375 23.1875 24.90625 23.1875C22.867188 23.1875 20.910156 22.496094 20.03125 22.125C19.21875 22.519531 17.464844 23.1875 15.09375 23.1875C12.671875 23.1875 10.800781 22.476563 9.96875 22.09375C9.078125 22.453125 7.027344 23.1875 5.40625 23.1875C3.277344 23.1875 0.910156 21.929688 0.8125 21.875C0.796875 21.867188 0.472656 21.707031 0 21.34375C0 21.367188 0 21.382813 0 21.40625C0 24.496094 2.613281 27 5.8125 27C7.582031 27 9.347656 26.007813 10.4375 24.65625C11.382813 26.121094 12.992188 27 15 27C17.316406 27 18.941406 25.886719 19.90625 24.5C20.875 25.675781 22.472656 26.578125 24 26.875L24 42.8125C24 42.898438 24.011719 42.980469 24.03125 43.0625C20.808594 43.390625 18.40625 45.1875 18.40625 45.1875C17.957031 45.515625 17.859375 46.144531 18.1875 46.59375C18.515625 47.042969 19.144531 47.140625 19.59375 46.8125C19.59375 46.8125 22.105469 45 25 45C27.894531 45 30.40625 46.8125 30.40625 46.8125C30.855469 47.140625 31.484375 47.042969 31.8125 46.59375C32.140625 46.144531 32.042969 45.515625 31.59375 45.1875C31.59375 45.1875 29.191406 43.390625 25.96875 43.0625C25.988281 42.980469 26 42.898438 26 42.8125L26 26.875C27.496094 26.585938 28.976563 25.738281 29.9375 24.65625C30.882813 26.132813 32.484375 27 34.5 27C36.808594 27 38.4375 25.910156 39.40625 24.53125C40.453125 25.972656 42.269531 27 44.1875 27C47.386719 27 50 24.496094 50 21.40625C50 21.371094 50 21.347656 50 21.3125 Z M 10 41C9.449219 41 9 41.449219 9 42C9 42.550781 9.449219 43 10 43C10.550781 43 11 42.550781 11 42C11 41.449219 10.550781 41 10 41 Z M 16 41C15.449219 41 15 41.449219 15 42C15 42.550781 15.449219 43 16 43C16.550781 43 17 42.550781 17 42C17 41.449219 16.550781 41 16 41 Z M 34 41C33.449219 41 33 41.449219 33 42C33 42.550781 33.449219 43 34 43C34.550781 43 35 42.550781 35 42C35 41.449219 34.550781 41 34 41 Z M 40 41C39.449219 41 39 41.449219 39 42C39 42.550781 39.449219 43 40 43C40.550781 43 41 42.550781 41 42C41 41.449219 40.550781 41 40 41 Z M 7 44C6.449219 44 6 44.449219 6 45C6 45.550781 6.449219 46 7 46C7.550781 46 8 45.550781 8 45C8 44.449219 7.550781 44 7 44 Z M 13 44C12.449219 44 12 44.449219 12 45C12 45.550781 12.449219 46 13 46C13.550781 46 14 45.550781 14 45C14 44.449219 13.550781 44 13 44 Z M 37 44C36.449219 44 36 44.449219 36 45C36 45.550781 36.449219 46 37 46C37.550781 46 38 45.550781 38 45C38 44.449219 37.550781 44 37 44 Z M 43 44C42.449219 44 42 44.449219 42 45C42 45.550781 42.449219 46 43 46C43.550781 46 44 45.550781 44 45C44 44.449219 43.550781 44 43 44 Z M 10 47C9.449219 47 9 47.449219 9 48C9 48.550781 9.449219 49 10 49C10.550781 49 11 48.550781 11 48C11 47.449219 10.550781 47 10 47 Z M 16 47C15.449219 47 15 47.449219 15 48C15 48.550781 15.449219 49 16 49C16.550781 49 17 48.550781 17 48C17 47.449219 16.550781 47 16 47 Z M 22 47C21.449219 47 21 47.449219 21 48C21 48.550781 21.449219 49 22 49C22.550781 49 23 48.550781 23 48C23 47.449219 22.550781 47 22 47 Z M 28 47C27.449219 47 27 47.449219 27 48C27 48.550781 27.449219 49 28 49C28.550781 49 29 48.550781 29 48C29 47.449219 28.550781 47 28 47 Z M 34 47C33.449219 47 33 47.449219 33 48C33 48.550781 33.449219 49 34 49C34.550781 49 35 48.550781 35 48C35 47.449219 34.550781 47 34 47 Z M 40 47C39.449219 47 39 47.449219 39 48C39 48.550781 39.449219 49 40 49C40.550781 49 41 48.550781 41 48C41 47.449219 40.550781 47 40 47Z" />
</svg>