<?xml version="1.0" encoding="utf-8"?>
<svg xmlns="http://www.w3.org/2000/svg" viewBox="0 0 50 50" width="515" height="515">
  <path d="M9 4C6.24 4 4 6.24 4 9L4 41C4 43.76 6.24 46 9 46L41 46C43.76 46 46 43.76 46 41L46 9C46 6.24 43.76 4 41 4L9 4 z M 12 18L18.730469 18C19.460469 18 23.410156 17.950312 23.410156 21.570312C23.410156 23.490313 22.099766 24.139688 21.509766 24.429688C22.389766 24.709688 24 25.52 24 28C24 31.83 19.609531 32 19.019531 32L12 32L12 18 z M 29 18L36 18L36 20L29 20L29 18 z M 15 20.429688L15 23.710938L18.220703 23.710938C18.660703 23.710938 20.119141 23.47 20.119141 22C20.119141 20.53 18.219687 20.429688 17.929688 20.429688L15 20.429688 z M 32.730469 21C36.630469 21 37.689609 24.039766 37.849609 24.759766C37.999609 25.489766 38 26.13 38 27L30.099609 27C30.099609 27.87 30.560625 29.830078 32.890625 29.830078C33.510625 29.830078 33.969453 29.680625 34.439453 29.390625C34.899453 29.100625 35.060938 28.819297 35.210938 28.529297L37.839844 28.529297C37.379844 29.679297 36.760078 30.550859 35.830078 31.130859C34.900078 31.710859 33.820078 32 32.580078 32C31.800078 32 31.03 31.850547 30.25 31.560547C29.63 31.270547 29.010781 30.840156 28.550781 30.410156C28.090781 29.970156 27.780703 29.389922 27.470703 28.669922C27.160703 28.089922 27 27.22 27 26.5C27 25.78 27.290469 21 32.730469 21 z M 32.730469 23.029297C30.470469 23.029297 30.099609 25.199844 30.099609 25.339844L35.060547 25.339844C34.900547 24.619844 34.250469 23.029297 32.730469 23.029297 z M 15 25.710938L15 29.570312L18.351562 29.570312C18.640563 29.570312 20.679688 29.480937 20.679688 27.710938C20.679687 25.950937 19.077562 25.710938 18.351562 25.710938L15 25.710938 z" />
</svg>