<?xml version="1.0" encoding="utf-8"?>
<svg xmlns="http://www.w3.org/2000/svg" viewBox="0 0 50 50" width="515" height="515">
  <path d="M5 2L5 48L23 48L23 2 Z M 27 2L27 48L45 48L45 2 Z M 12 8L16 8C16.550781 8 17 8.449219 17 9L17 30C17 30.550781 16.550781 31 16 31L12 31C11.449219 31 11 30.550781 11 30L11 9C11 8.449219 11.449219 8 12 8 Z M 34 8L38 8C38.550781 8 39 8.449219 39 9L39 30C39 30.550781 38.550781 31 38 31L34 31C33.449219 31 33 30.550781 33 30L33 9C33 8.449219 33.449219 8 34 8 Z M 14 35C16.207031 35 18 36.792969 18 39C18 41.207031 16.207031 43 14 43C11.792969 43 10 41.207031 10 39C10 36.792969 11.792969 35 14 35 Z M 36 35C38.207031 35 40 36.792969 40 39C40 41.207031 38.207031 43 36 43C33.792969 43 32 41.207031 32 39C32 36.792969 33.792969 35 36 35 Z M 14 37C12.894531 37 12 37.894531 12 39C12 40.105469 12.894531 41 14 41C15.105469 41 16 40.105469 16 39C16 37.894531 15.105469 37 14 37 Z M 36 37C34.894531 37 34 37.894531 34 39C34 40.105469 34.894531 41 36 41C37.105469 41 38 40.105469 38 39C38 37.894531 37.105469 37 36 37Z" />
</svg>