<?xml version="1.0" encoding="utf-8"?>
<svg xmlns="http://www.w3.org/2000/svg" viewBox="0 0 50 50" width="515" height="515">
  <path d="M10 0.03125C9.71875 0.03125 9.441406 0.125 9.25 0.34375C8.542969 1.160156 5 5.359375 5 7.90625C5 10.304688 6.6875 12.359375 9 12.875L9 8C9 7.449219 9.449219 7 10 7C10.550781 7 11 7.449219 11 8L11 12.90625C13.277344 12.425781 15 10.335938 15 7.90625C15 5.359375 11.460938 1.160156 10.75 0.34375C10.558594 0.125 10.28125 0.03125 10 0.03125 Z M 25 0.03125C24.71875 0.03125 24.441406 0.125 24.25 0.34375C23.542969 1.160156 20 5.359375 20 7.90625C20 10.304688 21.6875 12.359375 24 12.875L24 8C24 7.449219 24.449219 7 25 7C25.550781 7 26 7.449219 26 8L26 12.90625C28.277344 12.425781 30 10.335938 30 7.90625C30 5.359375 26.460938 1.160156 25.75 0.34375C25.558594 0.125 25.28125 0.03125 25 0.03125 Z M 40 0.03125C39.71875 0.03125 39.441406 0.125 39.25 0.34375C38.539063 1.160156 35 5.359375 35 7.90625C35 10.304688 36.6875 12.359375 39 12.875L39 8C39 7.449219 39.445313 7 40 7C40.554688 7 41 7.449219 41 8L41 12.90625C43.277344 12.425781 45 10.335938 45 7.90625C45 5.359375 41.460938 1.160156 40.75 0.34375C40.558594 0.125 40.28125 0.03125 40 0.03125 Z M 5.28125 13.125C4.527344 13.414063 4 14.136719 4 15C4 15.527344 4.300781 16.046875 4.75 16.8125C5.28125 17.714844 6 18.941406 6 20L6 26.15625C6.578125 26.042969 7.195313 26 7.8125 26L14 26L14 19.5C14 18.980469 14.246094 18.457031 14.5 17.9375C14.75 17.421875 15 16.933594 15 16.40625C15 15.234375 14.371094 14.40625 13.375 14.125C12.566406 14.589844 11.683594 14.902344 10.71875 15C10.617188 15.011719 10.507813 15 10.40625 15L9.40625 15C7.800781 14.84375 6.382813 14.148438 5.28125 13.125 Z M 20.28125 13.125C19.527344 13.414063 19 14.136719 19 15C19 15.527344 19.300781 16.046875 19.75 16.8125C20.28125 17.714844 21 18.941406 21 20L21 26L29 26L29 19.5C29 18.980469 29.246094 18.457031 29.5 17.9375C29.75 17.421875 30 16.933594 30 16.40625C30 15.234375 29.371094 14.40625 28.375 14.125C27.5625 14.589844 26.683594 14.902344 25.71875 15C25.617188 15.011719 25.507813 15 25.40625 15L24.40625 15C22.800781 14.84375 21.382813 14.148438 20.28125 13.125 Z M 35.25 13.125C34.492188 13.414063 34 14.136719 34 15C34 15.527344 34.300781 16.046875 34.75 16.8125C35.277344 17.714844 36 18.941406 36 20L36 26L42.1875 26C42.804688 26 43.417969 26.070313 44 26.1875L44 19.5C44 18.980469 44.246094 18.457031 44.5 17.9375C44.75 17.421875 45 16.933594 45 16.40625C45 15.234375 44.371094 14.40625 43.375 14.125C42.5625 14.589844 41.683594 14.902344 40.71875 15C40.617188 15.011719 40.507813 15 40.40625 15L39.40625 15C37.800781 14.84375 36.351563 14.148438 35.25 13.125 Z M 7.8125 28C4 28 1 30.855469 1 34.5C1.867188 36.773438 2.769531 37.957031 2.78125 37.96875C3.285156 38.617188 4.097656 39 5 39C6.652344 39 8 37.652344 8 36C8 35.445313 8.449219 35 9 35C9.550781 35 10 35.445313 10 36C10 37.652344 11.347656 39 13 39C14.652344 39 16 37.652344 16 36C16 35.445313 16.449219 35 17 35C17.550781 35 18 35.445313 18 36C18 37.652344 19.347656 39 21 39C22.652344 39 24 37.652344 24 36C24 35.445313 24.449219 35 25 35C25.550781 35 26 35.445313 26 36C26 37.652344 27.347656 39 29 39C30.652344 39 32 37.652344 32 36C32 35.445313 32.445313 35 33 35C33.554688 35 34 35.445313 34 36C34 37.652344 35.347656 39 37 39C38.652344 39 40 37.652344 40 36C40 35.445313 40.445313 35 41 35C41.554688 35 42 35.445313 42 36C42 37.652344 43.347656 39 45 39C45.8125 39 46.679688 38.585938 47.25 37.9375C47.351563 37.800781 48.183594 36.640625 49 34.5C49 30.914063 45.9375 28 42.1875 28 Z M 49 38.90625C48.878906 39.085938 48.792969 39.203125 48.78125 39.21875C48.773438 39.226563 48.757813 39.242188 48.75 39.25C47.796875 40.339844 46.394531 41 45 41C43.359375 41 41.910156 40.195313 41 38.96875C40.089844 40.195313 38.640625 41 37 41C35.359375 41 33.910156 40.195313 33 38.96875C32.089844 40.195313 30.640625 41 29 41C27.359375 41 25.910156 40.195313 25 38.96875C24.089844 40.195313 22.640625 41 21 41C19.359375 41 17.910156 40.195313 17 38.96875C16.089844 40.195313 14.640625 41 13 41C11.359375 41 9.910156 40.195313 9 38.96875C8.089844 40.195313 6.640625 41 5 41C3.476563 41 2.101563 40.355469 1.21875 39.21875C1.207031 39.203125 1.121094 39.113281 1 38.9375L1 48C0.96875 48 0.9375 48 0.90625 48C0.355469 48.027344 -0.0742188 48.496094 -0.046875 49.046875C-0.0195313 49.597656 0.449219 50.027344 1 50L49 50C49.359375 50.003906 49.695313 49.816406 49.878906 49.503906C50.058594 49.191406 50.058594 48.808594 49.878906 48.496094C49.695313 48.183594 49.359375 47.996094 49 48Z" />
</svg>