<?xml version="1.0" encoding="utf-8"?>
<svg xmlns="http://www.w3.org/2000/svg" viewBox="0 0 50 50" width="515" height="515">
  <path d="M2 2L2 45L16.71875 45L12.46875 40.75L13.28125 39.9375C13.125 39.851563 13 39.691406 13 39.5C13 39.222656 13.222656 39 13.5 39C13.691406 39 13.851563 39.125 13.9375 39.28125L15.28125 37.9375C15.125 37.851563 15 37.691406 15 37.5C15 37.222656 15.222656 37 15.5 37C15.691406 37 15.851563 37.125 15.9375 37.28125L17.28125 35.9375C17.125 35.851563 17 35.691406 17 35.5C17 35.222656 17.222656 35 17.5 35C17.691406 35 17.851563 35.125 17.9375 35.28125L19.28125 33.9375C19.125 33.851563 19 33.691406 19 33.5C19 33.222656 19.222656 33 19.5 33C19.691406 33 19.851563 33.125 19.9375 33.28125L20.59375 32.59375L21.28125 31.9375C21.125 31.851563 21 31.691406 21 31.5C21 31.222656 21.222656 31 21.5 31C21.691406 31 21.851563 31.125 21.9375 31.28125L23.28125 29.9375C23.125 29.851563 23 29.691406 23 29.5C23 29.222656 23.222656 29 23.5 29C23.691406 29 23.851563 29.125 23.9375 29.28125L25.28125 27.9375C25.125 27.851563 25 27.691406 25 27.5C25 27.222656 25.222656 27 25.5 27C25.691406 27 25.851563 27.125 25.9375 27.28125L27.28125 25.9375C27.125 25.851563 27 25.691406 27 25.5C27 25.222656 27.222656 25 27.5 25C27.691406 25 27.851563 25.125 27.9375 25.28125L29.28125 23.9375C29.125 23.851563 29 23.691406 29 23.5C29 23.222656 29.222656 23 29.5 23C29.691406 23 29.851563 23.125 29.9375 23.28125L31.28125 21.9375C31.125 21.851563 31 21.691406 31 21.5C31 21.222656 31.222656 21 31.5 21C31.691406 21 31.851563 21.125 31.9375 21.28125L32.0625 21.125L33.28125 19.9375C33.125 19.851563 33 19.691406 33 19.5C33 19.222656 33.222656 19 33.5 19C33.691406 19 33.851563 19.125 33.9375 19.28125L35.28125 17.9375C35.125 17.851563 35 17.691406 35 17.5C35 17.222656 35.222656 17 35.5 17C35.691406 17 35.851563 17.125 35.9375 17.28125L36.3125 16.90625L39 14.1875L39 2 Z M 7.5 5C7.777344 5 8 5.222656 8 5.5C8 5.777344 7.777344 6 7.5 6C7.222656 6 7 5.777344 7 5.5C7 5.222656 7.222656 5 7.5 5 Z M 11.5 5C11.777344 5 12 5.222656 12 5.5C12 5.777344 11.777344 6 11.5 6C11.222656 6 11 5.777344 11 5.5C11 5.222656 11.222656 5 11.5 5 Z M 15.5 5C15.777344 5 16 5.222656 16 5.5C16 5.777344 15.777344 6 15.5 6C15.222656 6 15 5.777344 15 5.5C15 5.222656 15.222656 5 15.5 5 Z M 19.5 5C19.777344 5 20 5.222656 20 5.5C20 5.777344 19.777344 6 19.5 6C19.222656 6 19 5.777344 19 5.5C19 5.222656 19.222656 5 19.5 5 Z M 23.5 5C23.777344 5 24 5.222656 24 5.5C24 5.777344 23.777344 6 23.5 6C23.222656 6 23 5.777344 23 5.5C23 5.222656 23.222656 5 23.5 5 Z M 27.5 5C27.777344 5 28 5.222656 28 5.5C28 5.777344 27.777344 6 27.5 6C27.222656 6 27 5.777344 27 5.5C27 5.222656 27.222656 5 27.5 5 Z M 31.5 5C31.777344 5 32 5.222656 32 5.5C32 5.777344 31.777344 6 31.5 6C31.222656 6 31 5.777344 31 5.5C31 5.222656 31.222656 5 31.5 5 Z M 35.5 5C35.777344 5 36 5.222656 36 5.5C36 5.777344 35.777344 6 35.5 6C35.222656 6 35 5.777344 35 5.5C35 5.222656 35.222656 5 35.5 5 Z M 5.5 7C5.777344 7 6 7.222656 6 7.5C6 7.777344 5.777344 8 5.5 8C5.222656 8 5 7.777344 5 7.5C5 7.222656 5.222656 7 5.5 7 Z M 7.5 7C7.777344 7 8 7.222656 8 7.5C8 7.777344 7.777344 8 7.5 8C7.222656 8 7 7.777344 7 7.5C7 7.222656 7.222656 7 7.5 7 Z M 9.5 7C9.777344 7 10 7.222656 10 7.5C10 7.777344 9.777344 8 9.5 8C9.222656 8 9 7.777344 9 7.5C9 7.222656 9.222656 7 9.5 7 Z M 11.5 7C11.777344 7 12 7.222656 12 7.5C12 7.777344 11.777344 8 11.5 8C11.222656 8 11 7.777344 11 7.5C11 7.222656 11.222656 7 11.5 7 Z M 13.5 7C13.777344 7 14 7.222656 14 7.5C14 7.777344 13.777344 8 13.5 8C13.222656 8 13 7.777344 13 7.5C13 7.222656 13.222656 7 13.5 7 Z M 15.5 7C15.777344 7 16 7.222656 16 7.5C16 7.777344 15.777344 8 15.5 8C15.222656 8 15 7.777344 15 7.5C15 7.222656 15.222656 7 15.5 7 Z M 17.5 7C17.777344 7 18 7.222656 18 7.5C18 7.777344 17.777344 8 17.5 8C17.222656 8 17 7.777344 17 7.5C17 7.222656 17.222656 7 17.5 7 Z M 19.5 7C19.777344 7 20 7.222656 20 7.5C20 7.777344 19.777344 8 19.5 8C19.222656 8 19 7.777344 19 7.5C19 7.222656 19.222656 7 19.5 7 Z M 21.5 7C21.777344 7 22 7.222656 22 7.5C22 7.777344 21.777344 8 21.5 8C21.222656 8 21 7.777344 21 7.5C21 7.222656 21.222656 7 21.5 7 Z M 23.5 7C23.777344 7 24 7.222656 24 7.5C24 7.777344 23.777344 8 23.5 8C23.222656 8 23 7.777344 23 7.5C23 7.222656 23.222656 7 23.5 7 Z M 25.5 7C25.777344 7 26 7.222656 26 7.5C26 7.777344 25.777344 8 25.5 8C25.222656 8 25 7.777344 25 7.5C25 7.222656 25.222656 7 25.5 7 Z M 27.5 7C27.777344 7 28 7.222656 28 7.5C28 7.777344 27.777344 8 27.5 8C27.222656 8 27 7.777344 27 7.5C27 7.222656 27.222656 7 27.5 7 Z M 29.5 7C29.777344 7 30 7.222656 30 7.5C30 7.777344 29.777344 8 29.5 8C29.222656 8 29 7.777344 29 7.5C29 7.222656 29.222656 7 29.5 7 Z M 31.5 7C31.777344 7 32 7.222656 32 7.5C32 7.777344 31.777344 8 31.5 8C31.222656 8 31 7.777344 31 7.5C31 7.222656 31.222656 7 31.5 7 Z M 33.5 7C33.777344 7 34 7.222656 34 7.5C34 7.777344 33.777344 8 33.5 8C33.222656 8 33 7.777344 33 7.5C33 7.222656 33.222656 7 33.5 7 Z M 35.5 7C35.777344 7 36 7.222656 36 7.5C36 7.777344 35.777344 8 35.5 8C35.222656 8 35 7.777344 35 7.5C35 7.222656 35.222656 7 35.5 7 Z M 7.5 9C7.777344 9 8 9.222656 8 9.5C8 9.777344 7.777344 10 7.5 10C7.222656 10 7 9.777344 7 9.5C7 9.222656 7.222656 9 7.5 9 Z M 11.5 9C11.777344 9 12 9.222656 12 9.5C12 9.777344 11.777344 10 11.5 10C11.222656 10 11 9.777344 11 9.5C11 9.222656 11.222656 9 11.5 9 Z M 15.5 9C15.777344 9 16 9.222656 16 9.5C16 9.777344 15.777344 10 15.5 10C15.222656 10 15 9.777344 15 9.5C15 9.222656 15.222656 9 15.5 9 Z M 19.5 9C19.777344 9 20 9.222656 20 9.5C20 9.777344 19.777344 10 19.5 10C19.222656 10 19 9.777344 19 9.5C19 9.222656 19.222656 9 19.5 9 Z M 23.5 9C23.777344 9 24 9.222656 24 9.5C24 9.777344 23.777344 10 23.5 10C23.222656 10 23 9.777344 23 9.5C23 9.222656 23.222656 9 23.5 9 Z M 27.5 9C27.777344 9 28 9.222656 28 9.5C28 9.777344 27.777344 10 27.5 10C27.222656 10 27 9.777344 27 9.5C27 9.222656 27.222656 9 27.5 9 Z M 31.5 9C31.777344 9 32 9.222656 32 9.5C32 9.777344 31.777344 10 31.5 10C31.222656 10 31 9.777344 31 9.5C31 9.222656 31.222656 9 31.5 9 Z M 35.5 9C35.777344 9 36 9.222656 36 9.5C36 9.777344 35.777344 10 35.5 10C35.222656 10 35 9.777344 35 9.5C35 9.222656 35.222656 9 35.5 9 Z M 5.5 11C5.777344 11 6 11.222656 6 11.5C6 11.777344 5.777344 12 5.5 12C5.222656 12 5 11.777344 5 11.5C5 11.222656 5.222656 11 5.5 11 Z M 7.5 11C7.777344 11 8 11.222656 8 11.5C8 11.777344 7.777344 12 7.5 12C7.222656 12 7 11.777344 7 11.5C7 11.222656 7.222656 11 7.5 11 Z M 9.5 11C9.777344 11 10 11.222656 10 11.5C10 11.777344 9.777344 12 9.5 12C9.222656 12 9 11.777344 9 11.5C9 11.222656 9.222656 11 9.5 11 Z M 11.5 11C11.777344 11 12 11.222656 12 11.5C12 11.777344 11.777344 12 11.5 12C11.222656 12 11 11.777344 11 11.5C11 11.222656 11.222656 11 11.5 11 Z M 13.5 11C13.777344 11 14 11.222656 14 11.5C14 11.777344 13.777344 12 13.5 12C13.222656 12 13 11.777344 13 11.5C13 11.222656 13.222656 11 13.5 11 Z M 15.5 11C15.777344 11 16 11.222656 16 11.5C16 11.777344 15.777344 12 15.5 12C15.222656 12 15 11.777344 15 11.5C15 11.222656 15.222656 11 15.5 11 Z M 17.5 11C17.777344 11 18 11.222656 18 11.5C18 11.777344 17.777344 12 17.5 12C17.222656 12 17 11.777344 17 11.5C17 11.222656 17.222656 11 17.5 11 Z M 19.5 11C19.777344 11 20 11.222656 20 11.5C20 11.777344 19.777344 12 19.5 12C19.222656 12 19 11.777344 19 11.5C19 11.222656 19.222656 11 19.5 11 Z M 21.5 11C21.777344 11 22 11.222656 22 11.5C22 11.777344 21.777344 12 21.5 12C21.222656 12 21 11.777344 21 11.5C21 11.222656 21.222656 11 21.5 11 Z M 23.5 11C23.777344 11 24 11.222656 24 11.5C24 11.777344 23.777344 12 23.5 12C23.222656 12 23 11.777344 23 11.5C23 11.222656 23.222656 11 23.5 11 Z M 25.5 11C25.777344 11 26 11.222656 26 11.5C26 11.777344 25.777344 12 25.5 12C25.222656 12 25 11.777344 25 11.5C25 11.222656 25.222656 11 25.5 11 Z M 27.5 11C27.777344 11 28 11.222656 28 11.5C28 11.777344 27.777344 12 27.5 12C27.222656 12 27 11.777344 27 11.5C27 11.222656 27.222656 11 27.5 11 Z M 29.5 11C29.777344 11 30 11.222656 30 11.5C30 11.777344 29.777344 12 29.5 12C29.222656 12 29 11.777344 29 11.5C29 11.222656 29.222656 11 29.5 11 Z M 31.5 11C31.777344 11 32 11.222656 32 11.5C32 11.777344 31.777344 12 31.5 12C31.222656 12 31 11.777344 31 11.5C31 11.222656 31.222656 11 31.5 11 Z M 33.5 11C33.777344 11 34 11.222656 34 11.5C34 11.777344 33.777344 12 33.5 12C33.222656 12 33 11.777344 33 11.5C33 11.222656 33.222656 11 33.5 11 Z M 35.5 11C35.777344 11 36 11.222656 36 11.5C36 11.777344 35.777344 12 35.5 12C35.222656 12 35 11.777344 35 11.5C35 11.222656 35.222656 11 35.5 11 Z M 7.5 13C7.777344 13 8 13.222656 8 13.5C8 13.777344 7.777344 14 7.5 14C7.222656 14 7 13.777344 7 13.5C7 13.222656 7.222656 13 7.5 13 Z M 11.5 13C11.777344 13 12 13.222656 12 13.5C12 13.777344 11.777344 14 11.5 14C11.222656 14 11 13.777344 11 13.5C11 13.222656 11.222656 13 11.5 13 Z M 15.5 13C15.777344 13 16 13.222656 16 13.5C16 13.777344 15.777344 14 15.5 14C15.222656 14 15 13.777344 15 13.5C15 13.222656 15.222656 13 15.5 13 Z M 19.5 13C19.777344 13 20 13.222656 20 13.5C20 13.777344 19.777344 14 19.5 14C19.222656 14 19 13.777344 19 13.5C19 13.222656 19.222656 13 19.5 13 Z M 23.5 13C23.777344 13 24 13.222656 24 13.5C24 13.777344 23.777344 14 23.5 14C23.222656 14 23 13.777344 23 13.5C23 13.222656 23.222656 13 23.5 13 Z M 27.5 13C27.777344 13 28 13.222656 28 13.5C28 13.777344 27.777344 14 27.5 14C27.222656 14 27 13.777344 27 13.5C27 13.222656 27.222656 13 27.5 13 Z M 31.5 13C31.777344 13 32 13.222656 32 13.5C32 13.777344 31.777344 14 31.5 14C31.222656 14 31 13.777344 31 13.5C31 13.222656 31.222656 13 31.5 13 Z M 35.5 13C35.777344 13 36 13.222656 36 13.5C36 13.777344 35.777344 14 35.5 14C35.222656 14 35 13.777344 35 13.5C35 13.222656 35.222656 13 35.5 13 Z M 5.5 15C5.777344 15 6 15.222656 6 15.5C6 15.777344 5.777344 16 5.5 16C5.222656 16 5 15.777344 5 15.5C5 15.222656 5.222656 15 5.5 15 Z M 7.5 15C7.777344 15 8 15.222656 8 15.5C8 15.777344 7.777344 16 7.5 16C7.222656 16 7 15.777344 7 15.5C7 15.222656 7.222656 15 7.5 15 Z M 9.5 15C9.777344 15 10 15.222656 10 15.5C10 15.777344 9.777344 16 9.5 16C9.222656 16 9 15.777344 9 15.5C9 15.222656 9.222656 15 9.5 15 Z M 11.5 15C11.777344 15 12 15.222656 12 15.5C12 15.777344 11.777344 16 11.5 16C11.222656 16 11 15.777344 11 15.5C11 15.222656 11.222656 15 11.5 15 Z M 13.5 15C13.777344 15 14 15.222656 14 15.5C14 15.777344 13.777344 16 13.5 16C13.222656 16 13 15.777344 13 15.5C13 15.222656 13.222656 15 13.5 15 Z M 15.5 15C15.777344 15 16 15.222656 16 15.5C16 15.777344 15.777344 16 15.5 16C15.222656 16 15 15.777344 15 15.5C15 15.222656 15.222656 15 15.5 15 Z M 17.5 15C17.777344 15 18 15.222656 18 15.5C18 15.777344 17.777344 16 17.5 16C17.222656 16 17 15.777344 17 15.5C17 15.222656 17.222656 15 17.5 15 Z M 19.5 15C19.777344 15 20 15.222656 20 15.5C20 15.777344 19.777344 16 19.5 16C19.222656 16 19 15.777344 19 15.5C19 15.222656 19.222656 15 19.5 15 Z M 21.5 15C21.777344 15 22 15.222656 22 15.5C22 15.777344 21.777344 16 21.5 16C21.222656 16 21 15.777344 21 15.5C21 15.222656 21.222656 15 21.5 15 Z M 23.5 15C23.777344 15 24 15.222656 24 15.5C24 15.777344 23.777344 16 23.5 16C23.222656 16 23 15.777344 23 15.5C23 15.222656 23.222656 15 23.5 15 Z M 25.5 15C25.777344 15 26 15.222656 26 15.5C26 15.777344 25.777344 16 25.5 16C25.222656 16 25 15.777344 25 15.5C25 15.222656 25.222656 15 25.5 15 Z M 27.5 15C27.777344 15 28 15.222656 28 15.5C28 15.777344 27.777344 16 27.5 16C27.222656 16 27 15.777344 27 15.5C27 15.222656 27.222656 15 27.5 15 Z M 29.5 15C29.777344 15 30 15.222656 30 15.5C30 15.777344 29.777344 16 29.5 16C29.222656 16 29 15.777344 29 15.5C29 15.222656 29.222656 15 29.5 15 Z M 31.5 15C31.777344 15 32 15.222656 32 15.5C32 15.777344 31.777344 16 31.5 16C31.222656 16 31 15.777344 31 15.5C31 15.222656 31.222656 15 31.5 15 Z M 33.5 15C33.777344 15 34 15.222656 34 15.5C34 15.777344 33.777344 16 33.5 16C33.222656 16 33 15.777344 33 15.5C33 15.222656 33.222656 15 33.5 15 Z M 35.5 15C35.777344 15 36 15.222656 36 15.5C36 15.777344 35.777344 16 35.5 16C35.222656 16 35 15.777344 35 15.5C35 15.222656 35.222656 15 35.5 15 Z M 40.75 15.28125L37.71875 18.3125L40.09375 20.65625C40.484375 21.046875 40.484375 21.703125 40.09375 22.09375C39.898438 22.289063 39.632813 22.375 39.375 22.375C39.117188 22.375 38.851563 22.289063 38.65625 22.09375L36.3125 19.71875L34.71875 21.3125L37.84375 24.4375C38.234375 24.828125 38.234375 25.453125 37.84375 25.84375C37.648438 26.039063 37.382813 26.125 37.125 26.125C36.867188 26.125 36.632813 26.039063 36.4375 25.84375L33.3125 22.71875L31.71875 24.3125L34.09375 26.65625C34.484375 27.046875 34.484375 27.703125 34.09375 28.09375C33.898438 28.289063 33.632813 28.375 33.375 28.375C33.117188 28.375 32.851563 28.289063 32.65625 28.09375L30.3125 25.71875L28.71875 27.3125L31.84375 30.4375C32.234375 30.828125 32.234375 31.453125 31.84375 31.84375C31.648438 32.039063 31.382813 32.125 31.125 32.125C30.867188 32.125 30.632813 32.039063 30.4375 31.84375L27.3125 28.71875L25.71875 30.3125L28.09375 32.65625C28.484375 33.046875 28.484375 33.703125 28.09375 34.09375C27.898438 34.289063 27.632813 34.375 27.375 34.375C27.117188 34.375 26.851563 34.289063 26.65625 34.09375L24.3125 31.71875L22.71875 33.3125L25.84375 36.4375C26.234375 36.828125 26.234375 37.453125 25.84375 37.84375C25.648438 38.039063 25.382813 38.125 25.125 38.125C24.867188 38.125 24.632813 38.039063 24.4375 37.84375L21.3125 34.71875L19.71875 36.3125L22.09375 38.65625C22.484375 39.046875 22.484375 39.703125 22.09375 40.09375C21.898438 40.289063 21.632813 40.375 21.375 40.375C21.117188 40.375 20.851563 40.289063 20.65625 40.09375L18.3125 37.71875L15.28125 40.75L22.8125 48.25L48.25 22.8125 Z M 7.5 17C7.777344 17 8 17.222656 8 17.5C8 17.777344 7.777344 18 7.5 18C7.222656 18 7 17.777344 7 17.5C7 17.222656 7.222656 17 7.5 17 Z M 11.5 17C11.777344 17 12 17.222656 12 17.5C12 17.777344 11.777344 18 11.5 18C11.222656 18 11 17.777344 11 17.5C11 17.222656 11.222656 17 11.5 17 Z M 15.5 17C15.777344 17 16 17.222656 16 17.5C16 17.777344 15.777344 18 15.5 18C15.222656 18 15 17.777344 15 17.5C15 17.222656 15.222656 17 15.5 17 Z M 19.5 17C19.777344 17 20 17.222656 20 17.5C20 17.777344 19.777344 18 19.5 18C19.222656 18 19 17.777344 19 17.5C19 17.222656 19.222656 17 19.5 17 Z M 23.5 17C23.777344 17 24 17.222656 24 17.5C24 17.777344 23.777344 18 23.5 18C23.222656 18 23 17.777344 23 17.5C23 17.222656 23.222656 17 23.5 17 Z M 27.5 17C27.777344 17 28 17.222656 28 17.5C28 17.777344 27.777344 18 27.5 18C27.222656 18 27 17.777344 27 17.5C27 17.222656 27.222656 17 27.5 17 Z M 31.5 17C31.777344 17 32 17.222656 32 17.5C32 17.777344 31.777344 18 31.5 18C31.222656 18 31 17.777344 31 17.5C31 17.222656 31.222656 17 31.5 17 Z M 5.5 19C5.777344 19 6 19.222656 6 19.5C6 19.777344 5.777344 20 5.5 20C5.222656 20 5 19.777344 5 19.5C5 19.222656 5.222656 19 5.5 19 Z M 7.5 19C7.777344 19 8 19.222656 8 19.5C8 19.777344 7.777344 20 7.5 20C7.222656 20 7 19.777344 7 19.5C7 19.222656 7.222656 19 7.5 19 Z M 9.5 19C9.777344 19 10 19.222656 10 19.5C10 19.777344 9.777344 20 9.5 20C9.222656 20 9 19.777344 9 19.5C9 19.222656 9.222656 19 9.5 19 Z M 11.5 19C11.777344 19 12 19.222656 12 19.5C12 19.777344 11.777344 20 11.5 20C11.222656 20 11 19.777344 11 19.5C11 19.222656 11.222656 19 11.5 19 Z M 13.5 19C13.777344 19 14 19.222656 14 19.5C14 19.777344 13.777344 20 13.5 20C13.222656 20 13 19.777344 13 19.5C13 19.222656 13.222656 19 13.5 19 Z M 15.5 19C15.777344 19 16 19.222656 16 19.5C16 19.777344 15.777344 20 15.5 20C15.222656 20 15 19.777344 15 19.5C15 19.222656 15.222656 19 15.5 19 Z M 17.5 19C17.777344 19 18 19.222656 18 19.5C18 19.777344 17.777344 20 17.5 20C17.222656 20 17 19.777344 17 19.5C17 19.222656 17.222656 19 17.5 19 Z M 19.5 19C19.777344 19 20 19.222656 20 19.5C20 19.777344 19.777344 20 19.5 20C19.222656 20 19 19.777344 19 19.5C19 19.222656 19.222656 19 19.5 19 Z M 21.5 19C21.777344 19 22 19.222656 22 19.5C22 19.777344 21.777344 20 21.5 20C21.222656 20 21 19.777344 21 19.5C21 19.222656 21.222656 19 21.5 19 Z M 23.5 19C23.777344 19 24 19.222656 24 19.5C24 19.777344 23.777344 20 23.5 20C23.222656 20 23 19.777344 23 19.5C23 19.222656 23.222656 19 23.5 19 Z M 25.5 19C25.777344 19 26 19.222656 26 19.5C26 19.777344 25.777344 20 25.5 20C25.222656 20 25 19.777344 25 19.5C25 19.222656 25.222656 19 25.5 19 Z M 27.5 19C27.777344 19 28 19.222656 28 19.5C28 19.777344 27.777344 20 27.5 20C27.222656 20 27 19.777344 27 19.5C27 19.222656 27.222656 19 27.5 19 Z M 29.5 19C29.777344 19 30 19.222656 30 19.5C30 19.777344 29.777344 20 29.5 20C29.222656 20 29 19.777344 29 19.5C29 19.222656 29.222656 19 29.5 19 Z M 31.5 19C31.777344 19 32 19.222656 32 19.5C32 19.777344 31.777344 20 31.5 20C31.222656 20 31 19.777344 31 19.5C31 19.222656 31.222656 19 31.5 19 Z M 7.5 21C7.777344 21 8 21.222656 8 21.5C8 21.777344 7.777344 22 7.5 22C7.222656 22 7 21.777344 7 21.5C7 21.222656 7.222656 21 7.5 21 Z M 11.5 21C11.777344 21 12 21.222656 12 21.5C12 21.777344 11.777344 22 11.5 22C11.222656 22 11 21.777344 11 21.5C11 21.222656 11.222656 21 11.5 21 Z M 15.5 21C15.777344 21 16 21.222656 16 21.5C16 21.777344 15.777344 22 15.5 22C15.222656 22 15 21.777344 15 21.5C15 21.222656 15.222656 21 15.5 21 Z M 19.5 21C19.777344 21 20 21.222656 20 21.5C20 21.777344 19.777344 22 19.5 22C19.222656 22 19 21.777344 19 21.5C19 21.222656 19.222656 21 19.5 21 Z M 23.5 21C23.777344 21 24 21.222656 24 21.5C24 21.777344 23.777344 22 23.5 22C23.222656 22 23 21.777344 23 21.5C23 21.222656 23.222656 21 23.5 21 Z M 27.5 21C27.777344 21 28 21.222656 28 21.5C28 21.777344 27.777344 22 27.5 22C27.222656 22 27 21.777344 27 21.5C27 21.222656 27.222656 21 27.5 21 Z M 5.5 23C5.777344 23 6 23.222656 6 23.5C6 23.777344 5.777344 24 5.5 24C5.222656 24 5 23.777344 5 23.5C5 23.222656 5.222656 23 5.5 23 Z M 7.5 23C7.777344 23 8 23.222656 8 23.5C8 23.777344 7.777344 24 7.5 24C7.222656 24 7 23.777344 7 23.5C7 23.222656 7.222656 23 7.5 23 Z M 9.5 23C9.777344 23 10 23.222656 10 23.5C10 23.777344 9.777344 24 9.5 24C9.222656 24 9 23.777344 9 23.5C9 23.222656 9.222656 23 9.5 23 Z M 11.5 23C11.777344 23 12 23.222656 12 23.5C12 23.777344 11.777344 24 11.5 24C11.222656 24 11 23.777344 11 23.5C11 23.222656 11.222656 23 11.5 23 Z M 13.5 23C13.777344 23 14 23.222656 14 23.5C14 23.777344 13.777344 24 13.5 24C13.222656 24 13 23.777344 13 23.5C13 23.222656 13.222656 23 13.5 23 Z M 15.5 23C15.777344 23 16 23.222656 16 23.5C16 23.777344 15.777344 24 15.5 24C15.222656 24 15 23.777344 15 23.5C15 23.222656 15.222656 23 15.5 23 Z M 17.5 23C17.777344 23 18 23.222656 18 23.5C18 23.777344 17.777344 24 17.5 24C17.222656 24 17 23.777344 17 23.5C17 23.222656 17.222656 23 17.5 23 Z M 19.5 23C19.777344 23 20 23.222656 20 23.5C20 23.777344 19.777344 24 19.5 24C19.222656 24 19 23.777344 19 23.5C19 23.222656 19.222656 23 19.5 23 Z M 21.5 23C21.777344 23 22 23.222656 22 23.5C22 23.777344 21.777344 24 21.5 24C21.222656 24 21 23.777344 21 23.5C21 23.222656 21.222656 23 21.5 23 Z M 23.5 23C23.777344 23 24 23.222656 24 23.5C24 23.777344 23.777344 24 23.5 24C23.222656 24 23 23.777344 23 23.5C23 23.222656 23.222656 23 23.5 23 Z M 25.5 23C25.777344 23 26 23.222656 26 23.5C26 23.777344 25.777344 24 25.5 24C25.222656 24 25 23.777344 25 23.5C25 23.222656 25.222656 23 25.5 23 Z M 27.5 23C27.777344 23 28 23.222656 28 23.5C28 23.777344 27.777344 24 27.5 24C27.222656 24 27 23.777344 27 23.5C27 23.222656 27.222656 23 27.5 23 Z M 7.5 25C7.777344 25 8 25.222656 8 25.5C8 25.777344 7.777344 26 7.5 26C7.222656 26 7 25.777344 7 25.5C7 25.222656 7.222656 25 7.5 25 Z M 11.5 25C11.777344 25 12 25.222656 12 25.5C12 25.777344 11.777344 26 11.5 26C11.222656 26 11 25.777344 11 25.5C11 25.222656 11.222656 25 11.5 25 Z M 15.5 25C15.777344 25 16 25.222656 16 25.5C16 25.777344 15.777344 26 15.5 26C15.222656 26 15 25.777344 15 25.5C15 25.222656 15.222656 25 15.5 25 Z M 19.5 25C19.777344 25 20 25.222656 20 25.5C20 25.777344 19.777344 26 19.5 26C19.222656 26 19 25.777344 19 25.5C19 25.222656 19.222656 25 19.5 25 Z M 23.5 25C23.777344 25 24 25.222656 24 25.5C24 25.777344 23.777344 26 23.5 26C23.222656 26 23 25.777344 23 25.5C23 25.222656 23.222656 25 23.5 25 Z M 5.5 27C5.777344 27 6 27.222656 6 27.5C6 27.777344 5.777344 28 5.5 28C5.222656 28 5 27.777344 5 27.5C5 27.222656 5.222656 27 5.5 27 Z M 7.5 27C7.777344 27 8 27.222656 8 27.5C8 27.777344 7.777344 28 7.5 28C7.222656 28 7 27.777344 7 27.5C7 27.222656 7.222656 27 7.5 27 Z M 9.5 27C9.777344 27 10 27.222656 10 27.5C10 27.777344 9.777344 28 9.5 28C9.222656 28 9 27.777344 9 27.5C9 27.222656 9.222656 27 9.5 27 Z M 11.5 27C11.777344 27 12 27.222656 12 27.5C12 27.777344 11.777344 28 11.5 28C11.222656 28 11 27.777344 11 27.5C11 27.222656 11.222656 27 11.5 27 Z M 13.5 27C13.777344 27 14 27.222656 14 27.5C14 27.777344 13.777344 28 13.5 28C13.222656 28 13 27.777344 13 27.5C13 27.222656 13.222656 27 13.5 27 Z M 15.5 27C15.777344 27 16 27.222656 16 27.5C16 27.777344 15.777344 28 15.5 28C15.222656 28 15 27.777344 15 27.5C15 27.222656 15.222656 27 15.5 27 Z M 17.5 27C17.777344 27 18 27.222656 18 27.5C18 27.777344 17.777344 28 17.5 28C17.222656 28 17 27.777344 17 27.5C17 27.222656 17.222656 27 17.5 27 Z M 19.5 27C19.777344 27 20 27.222656 20 27.5C20 27.777344 19.777344 28 19.5 28C19.222656 28 19 27.777344 19 27.5C19 27.222656 19.222656 27 19.5 27 Z M 21.5 27C21.777344 27 22 27.222656 22 27.5C22 27.777344 21.777344 28 21.5 28C21.222656 28 21 27.777344 21 27.5C21 27.222656 21.222656 27 21.5 27 Z M 23.5 27C23.777344 27 24 27.222656 24 27.5C24 27.777344 23.777344 28 23.5 28C23.222656 28 23 27.777344 23 27.5C23 27.222656 23.222656 27 23.5 27 Z M 7.5 29C7.777344 29 8 29.222656 8 29.5C8 29.777344 7.777344 30 7.5 30C7.222656 30 7 29.777344 7 29.5C7 29.222656 7.222656 29 7.5 29 Z M 11.5 29C11.777344 29 12 29.222656 12 29.5C12 29.777344 11.777344 30 11.5 30C11.222656 30 11 29.777344 11 29.5C11 29.222656 11.222656 29 11.5 29 Z M 15.5 29C15.777344 29 16 29.222656 16 29.5C16 29.777344 15.777344 30 15.5 30C15.222656 30 15 29.777344 15 29.5C15 29.222656 15.222656 29 15.5 29 Z M 19.5 29C19.777344 29 20 29.222656 20 29.5C20 29.777344 19.777344 30 19.5 30C19.222656 30 19 29.777344 19 29.5C19 29.222656 19.222656 29 19.5 29 Z M 5.5 31C5.777344 31 6 31.222656 6 31.5C6 31.777344 5.777344 32 5.5 32C5.222656 32 5 31.777344 5 31.5C5 31.222656 5.222656 31 5.5 31 Z M 7.5 31C7.777344 31 8 31.222656 8 31.5C8 31.777344 7.777344 32 7.5 32C7.222656 32 7 31.777344 7 31.5C7 31.222656 7.222656 31 7.5 31 Z M 9.5 31C9.777344 31 10 31.222656 10 31.5C10 31.777344 9.777344 32 9.5 32C9.222656 32 9 31.777344 9 31.5C9 31.222656 9.222656 31 9.5 31 Z M 11.5 31C11.777344 31 12 31.222656 12 31.5C12 31.777344 11.777344 32 11.5 32C11.222656 32 11 31.777344 11 31.5C11 31.222656 11.222656 31 11.5 31 Z M 13.5 31C13.777344 31 14 31.222656 14 31.5C14 31.777344 13.777344 32 13.5 32C13.222656 32 13 31.777344 13 31.5C13 31.222656 13.222656 31 13.5 31 Z M 15.5 31C15.777344 31 16 31.222656 16 31.5C16 31.777344 15.777344 32 15.5 32C15.222656 32 15 31.777344 15 31.5C15 31.222656 15.222656 31 15.5 31 Z M 17.5 31C17.777344 31 18 31.222656 18 31.5C18 31.777344 17.777344 32 17.5 32C17.222656 32 17 31.777344 17 31.5C17 31.222656 17.222656 31 17.5 31 Z M 19.5 31C19.777344 31 20 31.222656 20 31.5C20 31.777344 19.777344 32 19.5 32C19.222656 32 19 31.777344 19 31.5C19 31.222656 19.222656 31 19.5 31 Z M 7.5 33C7.777344 33 8 33.222656 8 33.5C8 33.777344 7.777344 34 7.5 34C7.222656 34 7 33.777344 7 33.5C7 33.222656 7.222656 33 7.5 33 Z M 11.5 33C11.777344 33 12 33.222656 12 33.5C12 33.777344 11.777344 34 11.5 34C11.222656 34 11 33.777344 11 33.5C11 33.222656 11.222656 33 11.5 33 Z M 15.5 33C15.777344 33 16 33.222656 16 33.5C16 33.777344 15.777344 34 15.5 34C15.222656 34 15 33.777344 15 33.5C15 33.222656 15.222656 33 15.5 33 Z M 39 34.90625L28.90625 45L39 45 Z M 5.5 35C5.777344 35 6 35.222656 6 35.5C6 35.777344 5.777344 36 5.5 36C5.222656 36 5 35.777344 5 35.5C5 35.222656 5.222656 35 5.5 35 Z M 7.5 35C7.777344 35 8 35.222656 8 35.5C8 35.777344 7.777344 36 7.5 36C7.222656 36 7 35.777344 7 35.5C7 35.222656 7.222656 35 7.5 35 Z M 9.5 35C9.777344 35 10 35.222656 10 35.5C10 35.777344 9.777344 36 9.5 36C9.222656 36 9 35.777344 9 35.5C9 35.222656 9.222656 35 9.5 35 Z M 11.5 35C11.777344 35 12 35.222656 12 35.5C12 35.777344 11.777344 36 11.5 36C11.222656 36 11 35.777344 11 35.5C11 35.222656 11.222656 35 11.5 35 Z M 13.5 35C13.777344 35 14 35.222656 14 35.5C14 35.777344 13.777344 36 13.5 36C13.222656 36 13 35.777344 13 35.5C13 35.222656 13.222656 35 13.5 35 Z M 15.5 35C15.777344 35 16 35.222656 16 35.5C16 35.777344 15.777344 36 15.5 36C15.222656 36 15 35.777344 15 35.5C15 35.222656 15.222656 35 15.5 35 Z M 7.5 37C7.777344 37 8 37.222656 8 37.5C8 37.777344 7.777344 38 7.5 38C7.222656 38 7 37.777344 7 37.5C7 37.222656 7.222656 37 7.5 37 Z M 11.5 37C11.777344 37 12 37.222656 12 37.5C12 37.777344 11.777344 38 11.5 38C11.222656 38 11 37.777344 11 37.5C11 37.222656 11.222656 37 11.5 37 Z M 5.5 39C5.777344 39 6 39.222656 6 39.5C6 39.777344 5.777344 40 5.5 40C5.222656 40 5 39.777344 5 39.5C5 39.222656 5.222656 39 5.5 39 Z M 7.5 39C7.777344 39 8 39.222656 8 39.5C8 39.777344 7.777344 40 7.5 40C7.222656 40 7 39.777344 7 39.5C7 39.222656 7.222656 39 7.5 39 Z M 9.5 39C9.777344 39 10 39.222656 10 39.5C10 39.777344 9.777344 40 9.5 40C9.222656 40 9 39.777344 9 39.5C9 39.222656 9.222656 39 9.5 39 Z M 11.5 39C11.777344 39 12 39.222656 12 39.5C12 39.777344 11.777344 40 11.5 40C11.222656 40 11 39.777344 11 39.5C11 39.222656 11.222656 39 11.5 39 Z M 35.5 39C35.777344 39 36 39.222656 36 39.5C36 39.777344 35.777344 40 35.5 40C35.222656 40 35 39.777344 35 39.5C35 39.222656 35.222656 39 35.5 39 Z M 7.5 41C7.777344 41 8 41.222656 8 41.5C8 41.777344 7.777344 42 7.5 42C7.222656 42 7 41.777344 7 41.5C7 41.222656 7.222656 41 7.5 41 Z M 11.5 41C11.777344 41 12 41.222656 12 41.5C12 41.777344 11.777344 42 11.5 42C11.222656 42 11 41.777344 11 41.5C11 41.222656 11.222656 41 11.5 41 Z M 35.5 41C35.777344 41 36 41.222656 36 41.5C36 41.777344 35.777344 42 35.5 42C35.222656 42 35 41.777344 35 41.5C35 41.222656 35.222656 41 35.5 41Z" />
</svg>