<?xml version="1.0" encoding="utf-8"?>
<svg xmlns="http://www.w3.org/2000/svg" viewBox="0 0 50 50" width="515" height="515">
  <path d="M24 0C10.859375 0 5 7.710938 5 25C5 42.289063 10.859375 50 24 50C37.140625 50 43 42.289063 43 25C43 7.710938 37.140625 0 24 0 Z M 23 4.5L33.96875 15.96875L25.34375 24.46875L33.96875 32.96875L23 44.4375L23 26.78125L15.5625 34.125L14.15625 32.6875L22.5 24.46875L14.15625 16.25L15.5625 14.84375L23 22.15625 Z M 25 9.5L25 22L31.15625 15.9375 Z M 25 26.9375L25 39.46875L31.15625 33Z" />
</svg>