<?xml version="1.0" encoding="utf-8"?>
<svg xmlns="http://www.w3.org/2000/svg" viewBox="0 0 50 50" width="515" height="515">
  <path d="M21 0C14.859375 0 11.351563 3.4375 10.25 6.09375C7.421875 6.640625 4.898438 8.519531 3.4375 11.1875C1.574219 14.597656 1.550781 18.863281 3.25 23.40625C4.886719 22.648438 7.035156 22 9.59375 22C14.339844 22 17.433594 24.097656 17.5625 24.1875C18.019531 24.5 18.125 25.109375 17.8125 25.5625C17.5 26.015625 16.894531 26.121094 16.4375 25.8125C16.410156 25.792969 13.691406 24 9.59375 24C6.929688 24 4.730469 24.847656 3.25 25.65625C2.1875 27.464844 1.832031 29.671875 2.34375 31.65625C2.894531 33.800781 4.378906 35.507813 6.59375 36.53125C5.746094 38.484375 5.8125 40.445313 6.78125 42.15625C7.996094 44.300781 10.484375 45.746094 13.25 45.96875C14.71875 50 19.078125 50 21 50C22.152344 50 23.175781 49.640625 24 49.03125L24 0.78125C23.242188 0.257813 22.257813 0 21 0 Z M 29 0C27.742188 0 26.757813 0.257813 26 0.78125L26 49C26.820313 49.609375 27.851563 49.992188 29 50L29.03125 50C31.167969 50 34.40625 48.964844 36.09375 46.28125C33.003906 44.742188 30 41.65625 30 37C30 36.445313 30.449219 36 31 36C31.550781 36 32 36.445313 32 37C32 42.101563 36.261719 44.273438 37.875 44.90625C40.445313 44.59375 42.328125 43.605469 43.28125 42.0625C44.191406 40.589844 44.222656 38.75 43.34375 36.5625C45.683594 35.503906 47.246094 33.695313 47.78125 31.4375C48.199219 29.679688 47.90625 27.78125 47.0625 26.15625C45.1875 27.96875 41.804688 30 36 30C35.449219 30 35 29.554688 35 29C35 28.445313 35.449219 28 36 28C42.683594 28 45.636719 25.027344 46.71875 23.5C48.449219 18.925781 48.4375 14.617188 46.5625 11.1875C45.101563 8.519531 42.578125 6.640625 39.75 6.09375C38.648438 3.4375 35.140625 0 29 0 Z M 19 10C19.550781 10 20 10.445313 20 11C20 12.390625 18.738281 16 13 16C12.449219 16 12 15.554688 12 15C12 14.445313 12.449219 14 13 14C17.078125 14 18 11.777344 18 11C18 10.445313 18.449219 10 19 10 Z M 33 12C33.550781 12 34 12.445313 34 13C34 14.632813 35.710938 18 41 18C41.550781 18 42 18.445313 42 19C42 19.554688 41.550781 20 41 20C34.199219 20 32 15.285156 32 13C32 12.445313 32.449219 12 33 12 Z M 11.15625 30C15.503906 30.722656 18 34.015625 18 39C18 39.554688 17.550781 40 17 40C16.449219 40 16 39.554688 16 39C16 36.703125 15.3125 32.746094 10.8125 32C10.265625 31.910156 9.910156 31.390625 10 30.84375C10.089844 30.296875 10.605469 29.902344 11.15625 30Z" />
</svg>