<?xml version="1.0" encoding="utf-8"?>
<svg xmlns="http://www.w3.org/2000/svg" viewBox="0 0 50 50" width="515" height="515">
  <path d="M4 4C3.398438 4 3 4.398438 3 5L3 13L17 13L17 4 Z M 19 4L19 13L31 13L31 4 Z M 33 4L33 13L47 13L47 5C47 4.398438 46.601563 4 46 4 Z M 3 15L3 24L10 24L10 15 Z M 12 15L12 24L24 24L24 15 Z M 26 15L26 24L38 24L38 15 Z M 40 15L40 24L47 24L47 15 Z M 3 26L3 35L17 35L17 26 Z M 19 26L19 35L31 35L31 26 Z M 33 26L33 35L47 35L47 26 Z M 3 37L3 45C3 45.601563 3.398438 46 4 46L10 46L10 37 Z M 12 37L12 46L24 46L24 37 Z M 26 37L26 46L38 46L38 37 Z M 40 37L40 46L46 46C46.601563 46 47 45.601563 47 45L47 37Z" />
</svg>