<?xml version="1.0" encoding="utf-8"?>
<svg xmlns="http://www.w3.org/2000/svg" viewBox="0 0 50 50" width="515" height="515">
  <path d="M35.953125 7.121094C34.078125 2.929688 29.878906 0 25 0C20.121094 0 15.921875 2.929688 14.046875 7.121094C1.335938 17.003906 0 27.5 0 49C0 49.554688 0.449219 50 1 50C1.550781 50 2 49.554688 2 49C2 29.070313 3.058594 19.351563 13.105469 10.492188C13.042969 10.988281 13 11.488281 13 12C13 12.054688 13.023438 12.101563 13.03125 12.152344C13.03125 12.152344 13.03125 12.152344 13.03125 12.15625C11.480469 13.402344 10.230469 14.839844 9.363281 16.34375C9.359375 16.355469 9.351563 16.367188 9.34375 16.378906C9.148438 16.722656 8.976563 17.066406 8.824219 17.417969C8.804688 17.453125 8.78125 17.492188 8.765625 17.53125C8.628906 17.851563 8.515625 18.175781 8.414063 18.5C8.394531 18.5625 8.363281 18.628906 8.34375 18.695313C8.257813 19 8.195313 19.304688 8.140625 19.609375C8.125 19.691406 8.097656 19.773438 8.089844 19.855469C8.03125 20.238281 8 20.621094 8 21C8 21.339844 8.023438 21.699219 8.054688 22.066406C8.0625 22.160156 8.070313 22.25 8.078125 22.34375C8.113281 22.707031 8.160156 23.078125 8.21875 23.460938C8.222656 23.472656 8.226563 23.484375 8.226563 23.496094C8.285156 23.871094 8.359375 24.25 8.4375 24.628906C8.457031 24.726563 8.476563 24.828125 8.496094 24.925781C8.578125 25.308594 8.664063 25.6875 8.757813 26.058594C8.765625 26.085938 8.773438 26.113281 8.777344 26.140625C8.867188 26.5 8.960938 26.851563 9.054688 27.195313C9.078125 27.285156 9.105469 27.375 9.128906 27.464844C9.230469 27.816406 9.328125 28.160156 9.429688 28.484375C9.433594 28.503906 9.4375 28.515625 9.445313 28.535156C9.542969 28.859375 9.636719 29.160156 9.730469 29.445313C9.75 29.503906 9.765625 29.554688 9.785156 29.609375C9.878906 29.898438 9.96875 30.164063 10.046875 30.394531C9.433594 31.011719 9 31.890625 9 33.101563C9 35.195313 10.316406 36.910156 12.164063 37.378906C13.832031 44.230469 21.625 50 25 50C28.285156 50 36.1875 44.144531 37.839844 37.449219C39.730469 36.925781 41 35.265625 41 33.199219C41 31.972656 40.554688 31.089844 39.925781 30.472656C39.929688 30.460938 39.933594 30.449219 39.9375 30.441406C40.011719 30.21875 40.097656 29.972656 40.1875 29.699219C40.207031 29.632813 40.230469 29.5625 40.253906 29.488281C40.332031 29.253906 40.410156 29.003906 40.492188 28.738281C40.511719 28.664063 40.535156 28.597656 40.558594 28.523438C40.652344 28.210938 40.75 27.878906 40.847656 27.539063C40.875 27.4375 40.902344 27.339844 40.929688 27.238281C41.015625 26.933594 41.097656 26.625 41.175781 26.308594C41.195313 26.234375 41.214844 26.164063 41.234375 26.09375C41.324219 25.722656 41.410156 25.347656 41.492188 24.972656C41.511719 24.867188 41.535156 24.765625 41.554688 24.664063C41.628906 24.308594 41.695313 23.953125 41.753906 23.601563C41.761719 23.558594 41.769531 23.519531 41.773438 23.476563C41.835938 23.097656 41.878906 22.722656 41.917969 22.355469C41.929688 22.261719 41.9375 22.171875 41.941406 22.082031C41.980469 21.710938 42 21.34375 42 21C42 20.621094 41.972656 20.238281 41.910156 19.855469C41.898438 19.765625 41.871094 19.675781 41.851563 19.589844C41.796875 19.289063 41.742188 18.992188 41.652344 18.695313C41.632813 18.621094 41.597656 18.546875 41.574219 18.472656C41.472656 18.160156 41.367188 17.84375 41.234375 17.53125C41.214844 17.484375 41.183594 17.4375 41.164063 17.390625C41.015625 17.050781 40.847656 16.714844 40.65625 16.378906C40.644531 16.359375 40.632813 16.34375 40.621094 16.324219C39.757813 14.824219 38.515625 13.394531 36.972656 12.152344C36.972656 12.152344 36.96875 12.152344 36.96875 12.152344C36.980469 12.101563 37 12.054688 37 12C37 11.488281 36.957031 10.988281 36.894531 10.492188C46.9375 19.351563 48 29.070313 48 49C48 49.554688 48.445313 50 49 50C49.554688 50 50 49.554688 50 49C50 27.496094 48.664063 17 35.953125 7.121094 Z M 18.601563 8C18.601563 6.699219 19.699219 5.601563 21 5.601563C21.398438 5.601563 21.800781 5.699219 22.101563 5.898438C22.601563 4.800781 23.699219 4 25 4C26.300781 4 27.398438 4.800781 27.898438 5.898438C28.199219 5.699219 28.601563 5.601563 29 5.601563C30.300781 5.601563 31.398438 6.699219 31.398438 8C32.371094 8.230469 33.070313 9.171875 33.519531 9.976563C31.03125 8.757813 28.136719 8 25 8C21.875 8 18.988281 8.753906 16.503906 9.964844C16.953125 9.183594 17.644531 8.28125 18.601563 8 Z M 37 28.699219L37 30.300781C37 30.855469 37.445313 31.300781 38 31.300781C38.082031 31.300781 39 31.738281 39 33.199219C39 34.511719 38.167969 35.457031 36.882813 35.605469C36.445313 35.65625 36.097656 35.988281 36.019531 36.417969C34.910156 42.496094 27.496094 48 25 48C22.8125 48 15.136719 42.746094 13.984375 36.324219C13.902344 35.867188 13.519531 35.527344 13.058594 35.503906C11.847656 35.433594 11 34.441406 11 33.101563C11 31.847656 11.917969 31.203125 12 31.203125C12.550781 31.203125 13 30.753906 13 30.203125L13 28C13 22.898438 26.800781 26.699219 28.898438 17.199219C30.398438 26.300781 37 23.199219 37 28.699219Z" />
</svg>