<?xml version="1.0" encoding="utf-8"?>
<svg xmlns="http://www.w3.org/2000/svg" viewBox="0 0 50 50" width="515" height="515">
  <path d="M25 9C24.808594 9 24.605469 9.042969 24.4375 9.15625L12.4375 17.15625C12.410156 17.175781 12.398438 17.230469 12.375 17.25C12.320313 17.292969 12.292969 17.320313 12.25 17.375C12.210938 17.425781 12.152344 17.476563 12.125 17.53125C12.097656 17.585938 12.082031 17.65625 12.0625 17.71875C12.042969 17.785156 12.039063 17.839844 12.03125 17.90625C12.027344 17.9375 12 17.96875 12 18C12 18.058594 12.027344 18.128906 12.03125 18.1875C12.070313 18.980469 12.316406 19.707031 12.75 20.3125C12.765625 20.335938 12.796875 20.351563 12.8125 20.375C12.851563 20.429688 12.894531 20.480469 12.9375 20.53125C13.023438 20.636719 13.121094 20.746094 13.21875 20.84375C13.257813 20.878906 13.304688 20.902344 13.34375 20.9375C13.445313 21.03125 13.542969 21.136719 13.65625 21.21875C13.738281 21.277344 13.820313 21.324219 13.90625 21.375C14.074219 21.484375 14.25 21.574219 14.4375 21.65625C14.546875 21.703125 14.664063 21.742188 14.78125 21.78125C14.835938 21.796875 14.882813 21.828125 14.9375 21.84375C15.070313 21.882813 15.203125 21.914063 15.34375 21.9375C15.378906 21.941406 15.402344 21.964844 15.4375 21.96875C15.621094 21.996094 15.808594 22 16 22C17.199219 22 18.265625 21.464844 19 20.625C19.183594 20.835938 19.402344 21.019531 19.625 21.1875C20.289063 21.695313 21.101563 22 22 22C23.199219 22 24.265625 21.464844 25 20.625C25.183594 20.835938 25.402344 21.019531 25.625 21.1875C26.289063 21.695313 27.101563 22 28 22C29.199219 22 30.265625 21.464844 31 20.625C31.183594 20.835938 31.371094 21.019531 31.59375 21.1875C32.257813 21.695313 33.101563 22 34 22C34.371094 22 34.722656 21.9375 35.0625 21.84375C35.460938 21.730469 35.851563 21.570313 36.1875 21.34375C36.28125 21.28125 36.347656 21.195313 36.4375 21.125C36.539063 21.042969 36.65625 20.964844 36.75 20.875C36.78125 20.84375 36.8125 20.8125 36.84375 20.78125C36.964844 20.65625 37.054688 20.542969 37.15625 20.40625C37.636719 19.777344 37.929688 19.027344 37.96875 18.1875C37.96875 18.179688 37.96875 18.164063 37.96875 18.15625C37.972656 18.097656 38 18.058594 38 18C38 17.96875 37.972656 17.9375 37.96875 17.90625C37.960938 17.835938 37.957031 17.785156 37.9375 17.71875C37.917969 17.65625 37.90625 17.585938 37.875 17.53125C37.847656 17.476563 37.820313 17.425781 37.78125 17.375C37.738281 17.320313 37.679688 17.292969 37.625 17.25C37.601563 17.230469 37.589844 17.175781 37.5625 17.15625L25.5625 9.15625C25.394531 9.042969 25.191406 9 25 9 Z M 10.875 21.0625L3.4375 26.1875C3.410156 26.207031 3.398438 26.230469 3.375 26.25C3.320313 26.292969 3.261719 26.320313 3.21875 26.375C3.179688 26.425781 3.152344 26.476563 3.125 26.53125C3.097656 26.585938 3.082031 26.65625 3.0625 26.71875C3.042969 26.785156 3.039063 26.835938 3.03125 26.90625C3.027344 26.9375 3 26.96875 3 27C3 27.058594 3.027344 27.128906 3.03125 27.1875C3.035156 27.199219 3.027344 27.207031 3.03125 27.21875C3.15625 29.328125 5.097656 31 7.5 31C8.921875 31 10.175781 30.386719 11 29.46875C11.824219 30.386719 13.078125 31 14.5 31C15.921875 31 17.175781 30.386719 18 29.46875C18.824219 30.386719 20.078125 31 21.5 31C22.921875 31 24.175781 30.386719 25 29.46875C25.824219 30.386719 27.078125 31 28.5 31C29.921875 31 31.175781 30.386719 32 29.46875C32.824219 30.386719 34.078125 31 35.5 31C36.921875 31 38.175781 30.386719 39 29.46875C39.824219 30.386719 41.078125 31 42.5 31C44.902344 31 46.84375 29.324219 46.96875 27.21875C46.972656 27.203125 46.964844 27.171875 46.96875 27.15625C46.972656 27.097656 47 27.058594 47 27C47 26.96875 46.972656 26.9375 46.96875 26.90625C46.960938 26.839844 46.957031 26.785156 46.9375 26.71875C46.917969 26.65625 46.90625 26.585938 46.875 26.53125C46.847656 26.476563 46.820313 26.421875 46.78125 26.375C46.738281 26.320313 46.679688 26.292969 46.625 26.25C46.601563 26.230469 46.589844 26.203125 46.5625 26.1875L39.125 21.09375C38.074219 22.835938 36.171875 24 34 24C32.9375 24 31.90625 23.71875 31 23.1875C30.09375 23.71875 29.0625 24 28 24C26.9375 24 25.90625 23.71875 25 23.1875C24.09375 23.71875 23.0625 24 22 24C20.9375 24 19.90625 23.71875 19 23.1875C18.09375 23.71875 17.0625 24 16 24C13.824219 24 11.921875 22.8125 10.875 21.0625 Z M 11 32.03125C10.105469 32.566406 9.074219 32.890625 8 32.96875L8 49L43 49L43 32.96875C42.835938 32.980469 42.667969 33 42.5 33C41.988281 33 41.488281 32.921875 41 32.8125L41 43L30 43L30 32.8125C29.511719 32.921875 29.011719 33 28.5 33C27.246094 33 26.035156 32.652344 25 32.03125C23.964844 32.652344 22.753906 33 21.5 33C20.246094 33 19.035156 32.652344 18 32.03125C16.964844 32.652344 15.753906 33 14.5 33C13.246094 33 12.035156 32.652344 11 32.03125 Z M 15 34L22 34L22 41L15 41Z" />
</svg>