<?xml version="1.0" encoding="utf-8"?>
<svg xmlns="http://www.w3.org/2000/svg" viewBox="0 0 50 50" width="515" height="515">
  <path d="M27.09375 4C17.222656 4 13.664063 11.566406 16.5 17.96875C16.183594 18.179688 15.550781 18.898438 15.65625 20.15625C15.972656 22.46875 16.914063 23.125 17.4375 23.125C17.648438 25.328125 19.109375 27.832031 19.84375 28.25C19.84375 29.824219 19.859375 30.171875 19.8125 31.4375C19.859375 32 20.046875 32.5625 20.1875 32.78125L20.21875 32.78125C20.652344 33.578125 21.671875 34.140625 22.5625 34.5L24 38L22.03125 44.84375C20.949219 41.925781 18.378906 34.644531 18.375 31.0625C18.265625 31.128906 17.339844 31.695313 16.3125 32.78125L17.75 37.71875C17.867188 38.125 17.722656 38.566406 17.375 38.8125L15.4375 40.1875L19.8125 46L30.4375 46L34.5625 40.1875L32.625 38.8125C32.296875 38.578125 32.128906 38.175781 32.21875 37.78125L33.40625 32.75C32.894531 32.222656 32.277344 31.675781 31.625 31.21875C31.539063 34.859375 29.035156 41.960938 27.96875 44.84375L26 38L27.375 34.53125C28.367188 34.136719 29.582031 33.480469 29.90625 32.5C30.21875 31.875 30.167969 31.300781 30.15625 31.28125C30.050781 29.601563 30.03125 29.816406 30.03125 28.34375C30.765625 27.921875 32.15625 25.320313 32.46875 23.21875C33.097656 23.21875 34.039063 22.589844 34.25 20.28125C34.355469 19.019531 33.929688 18.167969 33.40625 18.0625C35.296875 15.648438 34.980469 6.09375 28.15625 6.09375 Z M 14.65625 34.1875C8.675781 35.851563 5 40.9375 5 45C5 45.554688 5.449219 46 6 46L17.28125 46L13.21875 40.625C13.046875 40.410156 12.960938 40.148438 13 39.875C13.039063 39.605469 13.183594 39.347656 13.40625 39.1875L15.65625 37.59375 Z M 35.125 34.1875L34.3125 37.5625L36.59375 39.1875C36.816406 39.347656 36.964844 39.601563 37 39.875C37.039063 40.148438 36.953125 40.410156 36.78125 40.625L32.90625 46L44 46C44.007813 46 44.023438 46 44.03125 46C44.585938 46 45.03125 45.554688 45.03125 45C45.03125 44.925781 45.015625 44.847656 45 44.78125C44.878906 39.898438 40.578125 35.351563 35.125 34.1875Z" />
</svg>