<?xml version="1.0" encoding="utf-8"?>
<svg xmlns="http://www.w3.org/2000/svg" viewBox="0 0 50 50" width="515" height="515">
  <path d="M2 2C0.9 2 0 2.9 0 4C0 5.1 0.9 6 2 6C3.1 6 4 5.1 4 4L8.6992188 4C10.799219 4 11.600781 4.7003906 12.300781 6.9003906L20.300781 39.199219C20.728369 40.767041 21.212941 42.533545 22.972656 43.421875C22.375775 44.121092 22 45.014189 22 46C22 48.2 23.8 50 26 50C28.2 50 30 48.2 30 46C30 45.26916 29.787366 44.59123 29.441406 44L35.558594 44C35.212634 44.59123 35 45.26916 35 46C35 48.2 36.8 50 39 50C41.2 50 43 48.2 43 46C43 44.962553 42.589287 44.023283 41.935547 43.310547C41.967961 43.212696 42 43.113526 42 43C42 42.4 41.6 42 41 42L39 42L26 42L25.699219 42C22.999219 42 22.699609 40.899219 22.099609 38.699219L21.5 36L39.800781 36C40.200781 36 40.599219 35.700391 40.699219 35.400391L47.900391 16.400391C48.000391 16.100391 48.000781 15.8 47.800781 15.5C47.600781 15.2 47.3 15 47 15L16.300781 15L14.199219 6.4003906C13.499219 4.1003906 12.299219 2 8.6992188 2L2 2 z M 27.349609 6.1992188C27.124609 6.1992188 26.899219 6.3 26.699219 6.5L20.199219 13L34.5 13L28 6.5C27.8 6.3 27.574609 6.1992188 27.349609 6.1992188 z M 35.400391 6.1992188C35.150391 6.1992188 34.899219 6.3 34.699219 6.5L32.800781 8.4003906L37.400391 13L42.599609 13L36.099609 6.5C35.899609 6.3 35.650391 6.1992188 35.400391 6.1992188 z M 26 44C27.1 44 28 44.9 28 46C28 47.1 27.1 48 26 48C24.9 48 24 47.1 24 46C24 44.9 24.9 44 26 44 z M 39 44C40.1 44 41 44.9 41 46C41 47.1 40.1 48 39 48C37.9 48 37 47.1 37 46C37 44.9 37.9 44 39 44 z" />
</svg>