<?xml version="1.0" encoding="utf-8"?>
<svg xmlns="http://www.w3.org/2000/svg" viewBox="0 0 50 50" width="515" height="515">
  <path d="M33.65625 -0.0625C31.792969 -0.0625 30.375 1.917969 30.375 3.34375C30.375 5.535156 31.125 6.203125 31.125 6.53125C30.707031 7.042969 29.71875 7.289063 28.71875 7.4375L28.6875 10.125C28.832031 10.113281 28.941406 10.09375 29.09375 10.09375C31.242188 10.09375 33.554688 11.488281 34.21875 13.8125C34.703125 13.125 35.046875 12.453125 35.1875 12.125C35.953125 12.5625 37.15625 12.671875 37.8125 12.125C39.019531 12.671875 40.796875 12.015625 41.125 11.6875C42.441406 12.125 44.390625 11.691406 44.71875 10.8125C48.667969 10.921875 49.875 8.269531 50.09375 7.5C43.1875 8.15625 40.5625 -0.0625 33.65625 -0.0625 Z M 16.375 0C9.496094 0 6.878906 8.1875 0 7.53125C0.21875 8.296875 1.414063 10.921875 5.34375 10.8125C5.5625 11.578125 7.644531 12.015625 8.84375 11.6875C9.171875 12.015625 10.925781 12.671875 12.125 12.125C12.78125 12.671875 13.984375 12.5625 14.75 12.125C14.894531 12.464844 15.269531 13.195313 15.78125 13.90625C16.417969 11.53125 18.730469 10.09375 20.90625 10.09375C21.03125 10.09375 21.132813 10.117188 21.25 10.125L21.15625 7.46875C20.207031 7.316406 19.273438 7.046875 18.875 6.5625C18.875 6.234375 19.65625 5.589844 19.65625 3.40625C19.65625 1.988281 18.230469 0 16.375 0 Z M 25 0C23.34375 0 22 1.34375 22 3C22 4.65625 23.34375 6 25 6C26.65625 6 28 4.65625 28 3C28 1.34375 26.65625 0 25 0 Z M 23.15625 7.625L23.4375 14.96875C24.066406 15.246094 24.617188 15.464844 24.625 15.46875C25.21875 15.699219 25.867188 15.964844 26.53125 16.25L26.71875 7.6875C26.179688 7.886719 25.609375 8 25 8C24.347656 8 23.726563 7.851563 23.15625 7.625 Z M 20.90625 12.09375C19.304688 12.09375 17.59375 13.289063 17.59375 15.1875C17.59375 20.585938 27.5 20.011719 27.5 23.8125C27.5 24.648438 27.015625 25.382813 26.46875 25.96875C26.476563 25.972656 26.492188 25.964844 26.5 25.96875C26.742188 26.136719 26.988281 26.300781 27.1875 26.4375C27.816406 26.871094 28.480469 27.335938 29.125 27.84375C30.03125 26.84375 31 25.335938 31 23.40625C31 17.90625 20.09375 17.304688 20.09375 14.90625C20.894531 15.007813 23.1875 14.992188 23.1875 13.59375C23.1875 12.992188 22.605469 12.09375 20.90625 12.09375 Z M 29.09375 12.09375C27.394531 12.09375 26.8125 12.992188 26.8125 13.59375C26.8125 14.992188 29.105469 15.007813 29.90625 14.90625C29.90625 15.425781 29.261719 16.339844 28.28125 17.0625C29.164063 17.527344 30.015625 18.074219 30.75 18.71875C31.683594 18.03125 32.40625 17.042969 32.40625 15.1875C32.40625 13.289063 30.695313 12.09375 29.09375 12.09375 Z M 20.46875 21.375C19.898438 22.054688 19.40625 22.972656 19.40625 24.09375C19.40625 29.992188 27.3125 30.492188 27.3125 33.59375C27.3125 33.875 27.171875 34.140625 27 34.375C27 34.375 28.992188 35.625 29.375 36.28125C29.957031 35.609375 30.5 34.675781 30.5 33.40625C30.5 29.304688 22.59375 27.304688 22.59375 24.40625C22.59375 23.730469 22.921875 23.117188 23.375 22.59375C23.039063 22.453125 22.730469 22.324219 22.46875 22.21875C21.839844 21.96875 21.148438 21.6875 20.46875 21.375 Z M 25.15625 23.46875C25.082031 23.617188 25.015625 23.777344 24.90625 23.90625C24.722656 24.121094 24.617188 24.261719 24.59375 24.34375C24.648438 24.449219 24.792969 24.578125 24.9375 24.71875C24.972656 24.675781 24.996094 24.632813 25.03125 24.59375C25.386719 24.210938 25.496094 23.941406 25.5 23.8125C25.457031 23.714844 25.320313 23.582031 25.15625 23.46875 Z M 21.0625 30.75C20.496094 31.457031 20 32.390625 20 33.40625C20 38.679688 26.730469 37.4375 25.90625 41.53125C25.945313 41.613281 25.945313 41.695313 26 41.78125C26.71875 42.175781 27.601563 42.683594 28.375 43.3125C28.722656 42.574219 29 41.753906 29 41C29 39.277344 28.214844 37.746094 27.59375 37.28125C27.59375 37.28125 26.292969 36.183594 25.34375 35.625C24.394531 35.066406 23.3125 34.492188 23.3125 33.6875C23.3125 33.351563 23.542969 32.933594 23.84375 32.53125C23.640625 32.402344 23.429688 32.292969 23.25 32.1875C22.585938 31.785156 21.8125 31.308594 21.0625 30.75 Z M 21.28125 39.0625C21.121094 39.492188 21 40 21 40.59375C21 42.175781 22.308594 43.878906 23.90625 44.75C25.734375 45.871094 26.1875 46.226563 26.28125 46.75C26.328125 47 26.136719 47.390625 25.75 47.84375C25.390625 48.265625 25.421875 48.894531 25.84375 49.25C26.03125 49.410156 26.269531 49.5 26.5 49.5C26.78125 49.5 27.050781 49.390625 27.25 49.15625C28.0625 48.199219 28.410156 47.292969 28.25 46.40625C28.011719 45.0625 25.484375 43.84375 24.65625 43.3125C23.828125 42.78125 23.5625 41.757813 23.78125 40.5625C23.476563 40.3125 22.863281 39.964844 22.46875 39.75C22.109375 39.554688 21.707031 39.332031 21.28125 39.0625 Z M 21.59375 44.75C21.222656 45.492188 21.085938 46.226563 21.21875 46.9375C21.519531 48.558594 22.988281 49.324219 23.15625 49.40625C23.296875 49.472656 23.449219 49.5 23.59375 49.5C23.964844 49.5 24.328125 49.292969 24.5 48.9375C24.738281 48.4375 24.527344 47.835938 24.03125 47.59375C24.023438 47.589844 23.304688 47.199219 23.1875 46.5625C23.140625 46.308594 23.199219 46.046875 23.3125 45.78125C23.28125 45.761719 23.25 45.738281 23.21875 45.71875C22.714844 45.445313 22.152344 45.132813 21.59375 44.75Z" />
</svg>