<?xml version="1.0" encoding="utf-8"?>
<svg xmlns="http://www.w3.org/2000/svg" viewBox="0 0 50 50" width="515" height="515">
  <path d="M12 0C11.477778 0 10.94539 0.19132887 10.568359 0.56835938C10.191329 0.94538988 10 1.4777778 10 2L10 4L4 4C2.8 4 2 4.8 2 6L2 13L48 13L48 6C48 4.8 47.2 4 46 4L40 4L40 2C40 1.4777778 39.808671 0.94538988 39.431641 0.56835938C39.05461 0.19132887 38.522222 0 38 0L36 0C35.477778 0 34.94539 0.19132887 34.568359 0.56835938C34.191329 0.94538988 34 1.4777778 34 2L34 4L16 4L16 2C16 1.4777778 15.808671 0.94538988 15.431641 0.56835938C15.05461 0.19132887 14.522222 0 14 0L12 0 z M 12 2L14 2L14 8L12 8L12 2 z M 36 2L38 2L38 8L36 8L36 2 z M 2 15L2 46C2 47.2 2.8 48 4 48L46 48C47.2 48 48 47.2 48 46L48 15L2 15 z M 12 21L17 21L17 26L12 26L12 21 z M 19 21L24 21L24 26L19 26L19 21 z M 26 21L31 21L31 26L26 26L26 21 z M 33 21L38 21L38 26L33 26L33 21 z M 12 28L17 28L17 33L12 33L12 28 z M 19 28L24 28L24 33L19 33L19 28 z M 26 28L31 28L31 33L26 33L26 28 z M 33 28L38 28L38 33L33 33L33 28 z M 12 35L17 35L17 40L12 40L12 35 z M 19 35L24 35L24 40L19 40L19 35 z M 26 35L31 35L31 40L26 40L26 35 z M 33 35L38 35L38 40L33 40L33 35 z" />
</svg>