<?xml version="1.0" encoding="utf-8"?>
<svg xmlns="http://www.w3.org/2000/svg" viewBox="0 0 50 50" width="515" height="515">
  <path d="M12 0C10.90625 0 10 0.90625 10 2L10 4L4 4C2.839844 4 2 4.839844 2 6L2 13L48 13L48 6C48 4.839844 47.160156 4 46 4L40 4L40 2C40 0.90625 39.09375 0 38 0L36 0C34.90625 0 34 0.90625 34 2L34 4L16 4L16 2C16 0.90625 15.09375 0 14 0 Z M 12 2L14 2L14 8L12 8 Z M 36 2L38 2L38 8L36 8 Z M 2 15L2 46C2 47.105469 2.894531 48 4 48L46 48C47.105469 48 48 47.105469 48 46L48 15 Z M 19.984375 22.925781L28.605469 22.925781L28.605469 24.636719C27.945313 25.378906 27.34375 26.152344 26.804688 26.949219C26.265625 27.746094 25.792969 28.59375 25.390625 29.484375C24.992188 30.378906 24.664063 31.328125 24.410156 32.324219C24.160156 33.316406 23.992188 34.386719 23.90625 35.527344L21.65625 35.527344C21.730469 34.53125 21.902344 33.546875 22.171875 32.574219C22.441406 31.601563 22.789063 30.660156 23.214844 29.75C23.640625 28.835938 24.136719 27.960938 24.699219 27.121094C25.261719 26.277344 25.871094 25.492188 26.515625 24.761719L19.984375 24.761719Z" />
</svg>