<?xml version="1.0" encoding="utf-8"?>
<svg xmlns="http://www.w3.org/2000/svg" viewBox="0 0 50 50" width="515" height="515">
  <path d="M12 0C10.90625 0 10 0.90625 10 2L10 4L4 4C2.839844 4 2 4.839844 2 6L2 13L48 13L48 6C48 4.839844 47.160156 4 46 4L40 4L40 2C40 0.90625 39.09375 0 38 0L36 0C34.90625 0 34 0.90625 34 2L34 4L16 4L16 2C16 0.90625 15.09375 0 14 0 Z M 12 2L14 2L14 8L12 8 Z M 36 2L38 2L38 8L36 8 Z M 2 15L2 46C2 47.105469 2.894531 48 4 48L46 48C47.105469 48 48 47.105469 48 46L48 15 Z M 24.980469 22.925781L26.65625 22.925781L26.65625 35.527344L24.40625 35.527344L24.40625 26.636719L21.308594 26.636719L21.308594 25.015625C21.742188 25.015625 22.160156 24.976563 22.566406 24.90625C22.976563 24.835938 23.347656 24.714844 23.675781 24.546875C24.003906 24.378906 24.289063 24.164063 24.519531 23.898438C24.753906 23.632813 24.910156 23.308594 24.980469 22.925781Z" />
</svg>