<?xml version="1.0" encoding="utf-8"?>
<svg xmlns="http://www.w3.org/2000/svg" viewBox="0 0 50 50" width="515" height="515">
  <path d="M18.78125 0C18.382813 0 18.03125 0.226563 17.875 0.59375C17.71875 0.960938 17.789063 1.398438 18.0625 1.6875C19.417969 3.140625 20.097656 5.261719 19.90625 7.53125C19.679688 10.171875 18.347656 12.597656 16.25 14.1875C16.074219 14.320313 15.941406 14.40625 15.875 14.4375C15.769531 14.300781 15.632813 14.007813 15.53125 13.8125C15.125 13.03125 14.449219 11.71875 12.875 11.71875C12.453125 11.71875 12.015625 11.835938 11.53125 12.03125C11.160156 12.183594 10.914063 12.535156 10.90625 12.9375C10.902344 13.339844 11.132813 13.683594 11.5 13.84375C11.679688 13.921875 11.828125 14.128906 11.9375 14.4375C12.300781 15.445313 12.109375 17.261719 11.5 18.46875C11.34375 18.777344 11.011719 19.078125 10.625 19.4375C9.523438 20.453125 8 21.855469 8 25.3125C8 33.453125 17.285156 40 24.96875 40C34.839844 40 40 34.714844 40 29.5C40 26.285156 38.410156 24.359375 37.125 22.8125C36.230469 21.738281 35.503906 20.890625 35.53125 19.90625C35.550781 19.132813 35.871094 18.441406 36.1875 17.6875C37.363281 14.910156 37.789063 12.449219 31.875 8.375C31.542969 8.148438 31.089844 8.128906 30.75 8.34375C30.410156 8.558594 30.25 8.949219 30.3125 9.34375C30.574219 10.96875 30.425781 12.300781 29.9375 12.875C29.703125 13.148438 29.367188 13.246094 28.90625 13.1875C28.429688 13.125 28.246094 13.007813 28.21875 12.96875C28.085938 12.773438 28.320313 11.855469 28.46875 11.25C28.851563 9.679688 29.386719 7.503906 28.3125 5.21875C26.03125 0.363281 20.433594 0 18.78125 0 Z M 22.96875 18.1875C25.164063 20.78125 26.214844 21.683594 23.34375 26.9375C22.699219 28.128906 24.117188 30.1875 25.78125 30.1875C27.792969 30.1875 28.792969 28.03125 28.03125 25.84375C31.363281 29.09375 28.066406 30.476563 28.6875 31.3125C29.160156 31.949219 30.421875 30.960938 30.46875 30.125C32.425781 36.34375 27.648438 38.5 24.3125 38.5C20.972656 38.5 17.28125 35.011719 17.28125 30.59375C17.28125 24.59375 24.257813 24.003906 22.96875 18.1875 Z M 10.4375 39.875C9.339844 39.867188 8.304688 40.597656 8.0625 41.65625C7.929688 42.242188 8.015625 42.863281 8.34375 43.375L18.78125 41.53125L10.90625 39.90625C10.75 39.871094 10.59375 39.875 10.4375 39.875 Z M 39.8125 39.875C39.617188 39.882813 39.390625 39.890625 39.15625 39.9375L7.34375 45.59375C7.261719 45.574219 6.703125 45.910156 6.34375 46.4375C6 46.9375 5.882813 47.535156 6 48.125C6.214844 49.210938 7.199219 50 8.34375 50C8.488281 50 8.636719 49.996094 8.78125 49.96875L40.03125 44.46875C40.675781 44.351563 41.230469 43.996094 41.59375 43.46875C41.933594 42.96875 42.054688 42.371094 41.9375 41.78125C41.726563 40.707031 41.191406 39.832031 39.8125 39.875 Z M 39.6875 46.5625L29.375 48.375L37.09375 49.9375C37.242188 49.96875 37.390625 49.996094 37.53125 50L37.625 50C38.75 50 39.695313 49.246094 39.9375 48.1875C40.066406 47.625 39.988281 47.0625 39.6875 46.5625Z" />
</svg>