<?xml version="1.0" encoding="utf-8"?>
<svg xmlns="http://www.w3.org/2000/svg" viewBox="0 0 50 50" width="515" height="515">
  <path d="M25 0C25 0 19.398438 5.492188 19.5 19.59375L19.5 20.40625C12.699219 11.507813 4 9 4 9C4 9 4.292969 18.269531 10.65625 27.75C4.085938 26.058594 0 27.90625 0 27.90625C0 27.90625 2.707031 34.601563 11.40625 37.5C9.007813 38.898438 7.601563 40.398438 7.5 40.5L5 43C6.703125 43.546875 7.753906 44 14 44C15.699219 44 16.9375 43.804688 18.4375 43.40625C20.835938 42.765625 22.699219 41.988281 24.0625 41.09375C24.394531 46.0625 26.125 49.46875 26.125 49.46875C26.265625 49.828125 26.597656 50.078125 26.984375 50.105469C27.371094 50.132813 27.738281 49.9375 27.929688 49.601563C28.117188 49.261719 28.097656 48.847656 27.875 48.53125C27.875 48.53125 26.417969 45.617188 26.09375 41.1875C27.441406 42.039063 29.253906 42.792969 31.5625 43.40625C33.0625 43.804688 34.300781 44 36 44C42.246094 44 43.296875 43.546875 45 43L42.5 40.5C42.398438 40.398438 40.992188 38.898438 38.59375 37.5C47.292969 34.601563 50 27.90625 50 27.90625C50 27.90625 45.914063 26.058594 39.34375 27.75C45.707031 18.269531 46 9 46 9C46 9 37.300781 11.507813 30.5 20.40625L30.5 19.59375C30.601563 5.492188 25 0 25 0Z" />
</svg>