<?xml version="1.0" encoding="utf-8"?>
<svg xmlns="http://www.w3.org/2000/svg" viewBox="0 0 50 50" width="515" height="515">
  <path d="M0 6L0 25L17.84375 25C19.441406 25 20.507813 24.691406 20.9375 24.09375C21.28125 23.617188 21.234375 22.921875 21.09375 22.28125C21 21.957031 20.910156 21.617188 20.8125 21.28125C20.804688 21.261719 20.820313 21.238281 20.8125 21.21875C19.566406 16.890625 18.15625 12.128906 17.71875 11.09375C16.238281 7.710938 11.621094 6 4 6 Z M 33 8.5C30.5 8.5 28.5 10.5 28.5 13C28.5 15.5 30.5 17.5 33 17.5C35.5 17.5 37.5 15.5 37.5 13C37.5 10.5 35.5 8.5 33 8.5 Z M 39.96875 16.03125C39.238281 16.082031 38.507813 16.382813 37.90625 16.90625L32.40625 23.09375C32.40625 23.09375 26.285156 22.914063 25.1875 22.8125C24.085938 22.8125 23 23.492188 23 24.59375C23 25.59375 23.8125 26.492188 24.8125 26.59375C25.8125 26.695313 31.8125 27 31.8125 27C33.011719 27.101563 34.195313 26.707031 35.09375 25.90625L37.90625 23.40625L42 30.5L37.90625 35.5C37.792969 35.636719 37.683594 35.789063 37.59375 35.9375C37.40625 36.199219 36.460938 37.496094 36.03125 38.15625C35.558594 38.882813 35.355469 39.894531 35.84375 41.9375L37.5 47.8125C37.800781 48.511719 38.386719 48.90625 39.1875 48.90625C40.386719 48.90625 41.304688 47.695313 40.90625 46.59375L39.75 42.4375L43.6875 48.09375C44.289063 48.992188 45.5 49.1875 46.5 48.6875C47.5 48.085938 47.789063 46.804688 47.1875 45.90625L42.3125 38.3125L47.09375 33.8125C48.992188 31.914063 49.601563 29.789063 48.5 27.6875L43.09375 17.6875C42.40625 16.5 41.1875 15.945313 39.96875 16.03125 Z M 22.09375 25.78125C21.191406 26.597656 19.773438 27 17.84375 27L0 27L0 45L17.6875 45C20.660156 45 23 42.660156 23 39.6875L23 29.09375L22.96875 28.84375C22.921875 28.671875 22.574219 27.476563 22.09375 25.78125 Z M 15 32C16.699219 32 18 33.300781 18 35C18 36.699219 16.699219 38 15 38L11 38C9.898438 38 9 37.101563 9 36C9 34.699219 9.894531 34.105469 11.09375 33.40625C12.792969 32.40625 13.300781 32 15 32 Z M 23 44.75C21.679688 46.136719 19.796875 47 17.6875 47L13 47C13 48.652344 14.347656 50 16 50L20 50C21.652344 50 23 48.652344 23 47Z" />
</svg>