<?xml version="1.0" encoding="utf-8"?>
<svg xmlns="http://www.w3.org/2000/svg" viewBox="0 0 50 50" width="515" height="515">
  <path d="M9.84375 4C8.28125 4 7 5.273438 7 6.84375L7 10L18 10L18 6.84375C18 5.273438 16.71875 4 15.15625 4 Z M 34.84375 4C33.28125 4 32 5.273438 32 6.84375L32 10L43 10L43 6.84375C43 5.273438 41.71875 4 40.15625 4 Z M 4.6875 10.9375C2.070313 10.9375 -0.0625 13.054688 -0.0625 15.65625L-0.0625 41.34375C-0.0625 43.945313 2.070313 46.0625 4.6875 46.0625L45.3125 46.0625C47.929688 46.0625 50.0625 43.945313 50.0625 41.34375L50.0625 15.65625C50.0625 13.054688 47.925781 10.9375 45.3125 10.9375 Z M 36 23L39 23L39 27L43 27L43 30L39 30L39 34L36 34L36 30L32 30L32 27L36 27 Z M 7 27L18 27L18 30L7 30Z" />
</svg>