<?xml version="1.0" encoding="utf-8"?>
<svg xmlns="http://www.w3.org/2000/svg" viewBox="0 0 50 50" width="515" height="515">
  <path d="M21 2C19.35499 2 18 3.3549904 18 5C18 6.6450096 19.35499 8 21 8C22.64501 8 24 6.6450096 24 5C24 3.3549904 22.64501 2 21 2 z M 39 3C36.802706 3 35 4.8027056 35 7C35 9.1972944 36.802706 11 39 11C41.197294 11 43 9.1972944 43 7C43 4.8027056 41.197294 3 39 3 z M 21 4C21.564129 4 22 4.4358706 22 5C22 5.5641294 21.564129 6 21 6C20.435871 6 20 5.5641294 20 5C20 4.4358706 20.435871 4 21 4 z M 39 5C40.116414 5 41 5.8835859 41 7C41 8.1164141 40.116414 9 39 9C37.883586 9 37 8.1164141 37 7C37 5.8835859 37.883586 5 39 5 z M 12 9C9.2504209 9 7 11.250421 7 14C7 16.291968 8.5725104 18.216811 10.685547 18.800781C10.65399 18.867435 10.618258 18.93122 10.589844 19L9.3730469 19C6.9372965 19 4.8020296 20.666157 4.2109375 23.029297 A 1.0001 1.0001 0 0 0 4.2050781 23.0625L2.7070312 30.048828C2.2383709 31.927645 2 33.856984 2 35.792969L2 44.5C2 46.293543 3.3935255 47.737672 5.140625 47.927734 A 1.0001 1.0001 0 0 0 5.5 48 A 1.0001 1.0001 0 0 0 5.8613281 47.925781C6.6839896 47.835722 7.4214455 47.461427 7.9785156 46.910156C8.6172875 47.578094 9.5109587 48 10.5 48 A 1.0001 1.0001 0 0 0 10.861328 47.925781C12.559432 47.739915 13.913255 46.367742 13.986328 44.642578L14.011719 44.640625C15.995719 44.770625 21.191875 45 24.046875 45C28.414875 45 31.414812 44.896437 34.007812 44.648438L34.007812 46C34.007812 47.103 34.904812 48 36.007812 48L41.007812 48C42.110813 48 43.007812 47.103 43.007812 46L43.007812 32.105469C43.007812 30.553469 42.484344 29.081672 41.527344 27.888672L43.394531 27.089844C43.796531 26.917844 44.038141 26.503359 43.994141 26.068359C43.877141 24.929359 43.206781 23 41.425781 23L41.083984 22.996094C40.788984 22.991094 40.481078 22.990906 40.330078 23.003906C39.926078 23.033906 39.428234 23.240797 38.990234 23.466797L37.421875 19.042969C36.681875 17.193969 34.918734 16 32.927734 16L32.664062 16L16.574219 16C16.844881 15.386045 17 14.710984 17 14C17 11.250421 14.749579 9 12 9 z M 24 9C21.679991 9 19.598471 10.546271 19.03125 12.75 A 1.0004882 1.0004882 0 1 0 20.96875 13.25C21.289529 12.003729 22.592009 11 24 11C24.977659 11 25.824537 11.467713 26.378906 12.197266 A 1.0001 1.0001 0 0 0 28.107422 11.957031C28.326405 11.39694 28.856352 11 29.5 11C30.340812 11 31 11.659188 31 12.5C31 12.337333 30.998047 12.341051 30.998047 12.511719 A 1.0001 1.0001 0 0 0 32.601562 13.308594C32.86294 13.11088 33.163682 13 33.5 13C34.316718 13 34.955567 13.626638 34.990234 14.435547 A 1.0001 1.0001 0 0 0 36.744141 15.048828C37.302732 14.404241 38.093325 14 39 14C40.668484 14 42 15.331516 42 17C42 17.267096 41.94847 17.543118 41.859375 17.845703 A 1.0001 1.0001 0 0 0 42.544922 19.089844C43.032381 19.229022 43.434895 19.538478 43.693359 19.955078 A 1.0001 1.0001 0 0 0 43.730469 20.007812C43.952651 20.318469 44.080078 20.678633 44.080078 21.080078C44.080078 21.249628 44.046939 21.428865 43.980469 21.640625 A 1.0001 1.0001 0 0 0 44.363281 22.761719C45.353085 23.451249 46 24.582622 46 25.880859C46 27.014908 45.499316 28.010675 44.703125 28.714844 A 1.0001 1.0001 0 0 0 44.789062 30.28125C45.522323 30.798104 46 31.633686 46 32.599609C46 33.641478 45.441084 34.530035 44.603516 35.029297 A 1.0001 1.0001 0 0 0 44.353516 36.535156C44.782555 37.040486 45.039063 37.662991 45.039062 38.359375C45.039062 39.072153 44.781287 39.704064 44.347656 40.199219 A 1.0001 1.0001 0 1 0 45.851562 41.517578C46.587933 40.676733 47.039064 39.566597 47.039062 38.359375C47.039062 37.492048 46.745784 36.722657 46.345703 36.025391C47.295529 35.145007 48 33.995296 48 32.599609C48 31.339776 47.415731 30.27873 46.623047 29.417969C47.419864 28.430236 48 27.251511 48 25.880859C48 24.173062 47.163858 22.719461 45.984375 21.658203C46.018955 21.464978 46.080078 21.296591 46.080078 21.080078C46.080078 20.251661 45.803448 19.487377 45.365234 18.867188C45.008534 18.306504 44.489318 17.894197 43.910156 17.572266C43.937705 17.377359 44 17.211362 44 17C44 14.250484 41.749516 12 39 12C38.060806 12 37.233779 12.328892 36.486328 12.783203C35.881416 11.736183 34.788499 11 33.5 11C33.214865 11 33.010655 11.18993 32.746094 11.255859C32.23841 9.9458505 30.980994 9 29.5 9C28.491792 9 27.68597 9.5241025 27.046875 10.212891C26.192461 9.5184832 25.18711 9 24 9 z M 12 11C13.668699 11 15 12.331301 15 14C15 15.668699 13.668699 17 12 17C10.331301 17 9 15.668699 9 14C9 12.331301 10.331301 11 12 11 z M 24.507812 20C25.20475 20.003746 25.828078 20.493703 25.970703 21.205078C26.133703 22.018078 25.607922 22.808703 24.794922 22.970703L20.390625 23.962891C20.260625 23.974891 20.13 23.987 20 24L19.501953 24L19.5 24L15.166016 24 A 1.0001 1.0001 0 0 0 15.033203 23.986328 A 1.0001 1.0001 0 0 0 14.029297 24.757812L12.029297 32.757812 A 1.0001 1.0001 0 0 0 12 33L12 44.5C12 45.340812 11.340812 46 10.5 46C9.659671 46 9 45.33942 9 44.5L9 36 A 1.0001 1.0001 0 1 0 7 36L7 44.5C7 45.33942 6.340329 46 5.5 46C4.659671 46 4 45.33942 4 44.5L4 35.792969C4 34.020954 4.2171448 32.252433 4.6464844 30.53125 A 1.0001 1.0001 0 0 0 4.6542969 30.5L6.1523438 23.515625C6.1523438 23.515625 6.1542969 23.513672 6.1542969 23.513672C6.526163 22.032348 7.8457519 21 9.3730469 21L14.998047 21L17 21L19.351562 21L24.205078 20.029297C24.306453 20.009172 24.40825 19.999465 24.507812 20 z M 41 32.220703L41 36L36.839844 36C35.778844 36 34.919922 35.141078 34.919922 34.080078L41 32.220703 z M 17 34L32 34L30.125 38C30.125 38 28.009 39 24.5 39C20.991 39 18.875 38 18.875 38L17 34 z" />
</svg>