<?xml version="1.0" encoding="utf-8"?>
<svg xmlns="http://www.w3.org/2000/svg" viewBox="0 0 50 50" width="515" height="515">
  <path d="M1 7L1 12L49 12L49 7L1 7 z M 0.84960938 14L0.009765625 19.859375C-0.000234375 19.909375 0 19.95 0 20C0 21.642232 0.80358032 23.088299 2.0273438 24L2 24L2 44L4 44L4 24.900391C4.3229732 24.965997 4.6577558 25 5 25C6.63 25 8.09 24.21 9 23C9.91 24.21 11.37 25 13 25C14.63 25 16.09 24.21 17 23C17.91 24.21 19.37 25 21 25C22.63 25 24.09 24.21 25 23C25.91 24.21 27.37 25 29 25C30.63 25 32.09 24.21 33 23C33.91 24.21 35.37 25 37 25C38.63 25 40.09 24.21 41 23C41.91 24.21 43.37 25 45 25C45.342244 25 45.677027 24.965997 46 24.900391L46 44L48 44L48 24L47.972656 24C49.19642 23.088299 50 21.642232 50 20C50 19.95 50.000234 19.909375 49.990234 19.859375L49.150391 14L0.84960938 14 z M 15 29C12.26 29 11.130547 29.36 10.810547 29.5C10.110547 29.74 8.9692187 30.139922 8.4492188 31.169922C8.1592188 31.749922 6.4105469 36.499453 6.0605469 37.439453L6 37.609375L6 43C6 43.55 6.45 44 7 44L10 44L10.330078 43L19.669922 43L20 44L23 44C23.55 44 24 43.55 24 43L24 37.609375L23.939453 37.439453C23.849453 37.209453 21.889062 31.999219 21.539062 31.199219C21.049063 30.059219 19.730156 29.650469 19.160156 29.480469C18.810156 29.340469 17.66 29 15 29 z M 35 29C32.26 29 31.130547 29.36 30.810547 29.5C30.110547 29.74 28.969219 30.139922 28.449219 31.169922C28.159219 31.749922 26.410547 36.499453 26.060547 37.439453L26 37.609375L26 43C26 43.55 26.45 44 27 44L30 44L30.330078 43L39.669922 43L40 44L43 44C43.55 44 44 43.55 44 43L44 37.609375L43.939453 37.439453C43.849453 37.209453 41.889062 31.999219 41.539062 31.199219C41.049062 30.059219 39.730156 29.650469 39.160156 29.480469C38.810156 29.340469 37.66 29 35 29 z M 15 31C17.52 31 18.390625 31.330078 18.390625 31.330078L18.550781 31.390625C19.500781 31.660625 19.670938 31.920234 19.710938 31.990234C19.850938 32.330234 20.350859 33.61 20.880859 35L9.0996094 35C9.6696094 33.49 10.130234 32.280313 10.240234 32.070312C10.400234 31.750312 11.090313 31.519844 11.570312 31.339844C11.580312 31.339844 12.44 31 15 31 z M 35 31C37.52 31 38.390625 31.330078 38.390625 31.330078L38.550781 31.390625C39.500781 31.660625 39.670937 31.920234 39.710938 31.990234C39.850938 32.330234 40.350859 33.61 40.880859 35L29.099609 35C29.669609 33.49 30.130234 32.280313 30.240234 32.070312C30.400234 31.750312 31.090313 31.519844 31.570312 31.339844C31.580313 31.339844 32.44 31 35 31 z M 10.5 37C11.33 37 12 37.67 12 38.5C12 39.33 11.33 40 10.5 40C9.67 40 9 39.33 9 38.5C9 37.67 9.67 37 10.5 37 z M 19.5 37C20.33 37 21 37.67 21 38.5C21 39.33 20.33 40 19.5 40C18.67 40 18 39.33 18 38.5C18 37.67 18.67 37 19.5 37 z M 30.5 37C31.33 37 32 37.67 32 38.5C32 39.33 31.33 40 30.5 40C29.67 40 29 39.33 29 38.5C29 37.67 29.67 37 30.5 37 z M 39.5 37C40.33 37 41 37.67 41 38.5C41 39.33 40.33 40 39.5 40C38.67 40 38 39.33 38 38.5C38 37.67 38.67 37 39.5 37 z" />
</svg>