<?xml version="1.0" encoding="utf-8"?>
<svg xmlns="http://www.w3.org/2000/svg" viewBox="0 0 50 50" width="515" height="515">
  <path d="M4 0C1.792969 0 0 1.792969 0 4L0 38C0 40.207031 1.792969 42 4 42L30 42C32.207031 42 34 40.207031 34 38L34 4C34 1.792969 32.207031 0 30 0 Z M 26.125 4L26.90625 4C26.988281 4 27.039063 4.054688 27.0625 4.125L29.78125 11.875C29.804688 11.945313 29.789063 12 29.71875 12L28.875 12C28.792969 12 28.742188 11.957031 28.71875 11.875L28.125 10.15625L24.875 10.15625L24.28125 11.875C24.242188 11.957031 24.195313 12 24.125 12L23.28125 12C23.210938 12 23.195313 11.945313 23.21875 11.875L26 4.125C26.023438 4.054688 26.042969 4 26.125 4 Z M 26.5 5.53125L25.21875 9.1875L27.78125 9.1875L26.53125 5.53125 Z M 36 6.40625L36 38C36 41.308594 33.308594 44 30 44L15.5 44L34.6875 50C35.074219 50.121094 35.472656 50.1875 35.875 50.1875C37.636719 50.1875 39.164063 49.054688 39.6875 47.375L49.8125 14.90625C50.132813 13.886719 50.027344 12.789063 49.53125 11.84375C49.035156 10.898438 48.207031 10.222656 47.1875 9.90625 Z M 42.1875 12.5625C42.214844 12.550781 42.242188 12.550781 42.28125 12.5625L43.03125 12.78125C43.109375 12.804688 43.121094 12.863281 43.125 12.9375L43.4375 21.1875C43.441406 21.261719 43.382813 21.269531 43.3125 21.25L42.53125 21.03125C42.453125 21.007813 42.433594 20.929688 42.4375 20.84375L42.375 19L39.28125 18.0625L38.15625 19.53125C38.097656 19.597656 38.070313 19.613281 38 19.59375L37.1875 19.34375C37.121094 19.324219 37.113281 19.28125 37.15625 19.21875L42.125 12.625C42.144531 12.59375 42.160156 12.574219 42.1875 12.5625 Z M 17 14C17 14 21.964844 17.738281 21.96875 20.375C21.96875 21.949219 20.902344 22.964844 19.40625 22.96875C18.632813 22.96875 17.945313 22.90625 17.5 22.46875C17.5 22.46875 18.449219 24.886719 19 26C19.09375 26.191406 14.90625 26.1875 15 26C15.550781 24.890625 16.5 22.46875 16.5 22.46875C16.054688 22.886719 15.308594 22.964844 14.59375 22.96875C13.101563 22.96875 12.03125 21.980469 12.03125 20.40625C12.027344 17.769531 17 14 17 14 Z M 42.1875 14.15625L39.875 17.21875L42.3125 18 Z M 4.28125 30L5.125 30C5.207031 30 5.257813 30.042969 5.28125 30.125L5.875 31.84375L9.125 31.84375L9.71875 30.125C9.753906 30.042969 9.804688 30 9.875 30L10.71875 30C10.789063 30 10.804688 30.054688 10.78125 30.125L8 37.875C7.976563 37.945313 7.957031 38 7.875 38L7.09375 38C7.011719 38 6.960938 37.945313 6.9375 37.875L4.21875 30.125C4.195313 30.054688 4.210938 30 4.28125 30 Z M 6.21875 32.8125L7.46875 36.46875L7.5 36.46875L8.78125 32.8125Z" />
</svg>