<?xml version="1.0" encoding="utf-8"?>
<svg xmlns="http://www.w3.org/2000/svg" viewBox="0 0 50 50" width="515" height="515">
  <path d="M25 14.90625C17.960938 14.90625 13.828125 15.894531 13.65625 15.9375L13.40625 16C11.910156 16.53125 9.65625 17.339844 8.71875 19.21875C8.285156 20.023438 6.46875 24.730469 5 28.59375C4.597656 29.65625 3.171875 33.457031 3.0625 33.75L3 33.90625L3 47C3 48.652344 4.347656 50 6 50L10 50C11.652344 50 13 48.652344 13 47L13 45L37 45L37 47C37 48.652344 38.347656 50 40 50L44 50C45.652344 50 47 48.652344 47 47L47 33.90625L46.9375 33.75C46.933594 33.738281 46.929688 33.679688 46.90625 33.625C46.410156 32.324219 42.074219 21.035156 41.28125 19.15625C40.273438 17.144531 37.761719 16.371094 36.34375 15.9375C36.171875 15.894531 32.039063 14.90625 25 14.90625 Z M 25 16.90625C31.753906 16.90625 35.804688 17.84375 35.8125 17.84375C36.886719 18.175781 38.871094 18.8125 39.46875 20C39.835938 20.871094 41.070313 24.054688 42.28125 27.21875C42.285156 27.222656 42.308594 27.214844 42.3125 27.21875C42.40625 27.464844 42.5 27.726563 42.59375 27.96875C42.820313 28.648438 42.996094 29.539063 42.65625 30.0625C42.265625 30.671875 41.109375 31 39.40625 31L10.59375 31C8.925781 31 7.785156 30.648438 7.375 30.03125C6.847656 29.238281 7.433594 27.835938 7.625 27.375C7.636719 27.351563 7.617188 27.335938 7.625 27.3125C8.96875 23.796875 10.199219 20.710938 10.5 20.15625C11.09375 18.972656 12.828125 18.355469 14.09375 17.90625L14.1875 17.875C14.652344 17.769531 18.613281 16.90625 25 16.90625 Z M 25 18C22.792969 18 21 19.792969 21 22C21 24.207031 22.792969 26 25 26C27.207031 26 29 24.207031 29 22C29 19.792969 27.207031 18 25 18 Z M 15.5 21C13.019531 21 11 23.019531 11 25.5C11 27.980469 13.019531 30 15.5 30C17.980469 30 20 27.980469 20 25.5C20 23.019531 17.980469 21 15.5 21 Z M 34.5 21C32.019531 21 30 23.019531 30 25.5C30 27.980469 32.019531 30 34.5 30C36.980469 30 39 27.980469 39 25.5C39 23.019531 36.980469 21 34.5 21 Z M 3.4375 27.03125C0.253906 27.332031 0 29.800781 0 30.59375C0 31.117188 0.191406 32.132813 1.34375 32.65625C1.738281 31.601563 2.789063 28.769531 3.125 27.875 Z M 46.5 27.03125C47.324219 29.175781 48.109375 31.253906 48.65625 32.6875C49.703125 32.238281 50 31.363281 50 30.59375C50 29.796875 49.722656 27.3125 46.5 27.03125 Z M 9 35L13 35C14.699219 35 16 36.300781 16 38C16 39.699219 14.699219 41 13 41C11.300781 41 10.792969 40.59375 9.09375 39.59375C7.894531 38.894531 7 38.300781 7 37C7 35.898438 7.898438 35 9 35 Z M 37 35L41 35C42.101563 35 43 35.898438 43 37C43 38.300781 42.105469 38.894531 40.90625 39.59375C39.207031 40.59375 38.699219 41 37 41C35.300781 41 34 39.699219 34 38C34 36.300781 35.300781 35 37 35Z" />
</svg>