<?xml version="1.0" encoding="utf-8"?>
<svg xmlns="http://www.w3.org/2000/svg" viewBox="0 0 50 50" width="515" height="515">
  <path d="M1 6L1 16L3 16L3 44L5 44L5 16L45 16L45 44L47 44L47 16L49 16L49 6 Z M 8 10L10 10L10 12L8 12 Z M 14 10L16 10L16 12L14 12 Z M 20 10L30 10L30 12L20 12 Z M 34 10L36 10L36 12L34 12 Z M 40 10L42 10L42 12L40 12 Z M 19.488281 21C17.4375 21 15.617188 22.230469 14.851563 24.128906L13.203125 28.21875L12.480469 28.9375C11.539063 29.867188 11 31.164063 11 32.488281L11 42C11 43.101563 11.898438 44 13 44L14 44C15.101563 44 16 43.101563 16 42L16 41.5C18.527344 41.832031 21.546875 42 25 42C28.453125 42 31.472656 41.832031 34 41.5L34 42C34 43.101563 34.898438 44 36 44L37 44C38.101563 44 39 43.101563 39 42L39 32.488281C39 31.164063 38.460938 29.867188 37.519531 28.9375L36.796875 28.21875L35.148438 24.128906C34.378906 22.230469 32.5625 21 30.511719 21 Z M 16.5 33C17.328125 33 18 33.671875 18 34.5C18 35.328125 17.328125 36 16.5 36C15.671875 36 15 35.328125 15 34.5C15 33.671875 15.671875 33 16.5 33 Z M 33.5 33C34.328125 33 35 33.671875 35 34.5C35 35.328125 34.328125 36 33.5 36C32.671875 36 32 35.328125 32 34.5C32 33.671875 32.671875 33 33.5 33 Z M 21 34L29 34L29 36L21 36Z" />
</svg>