<?xml version="1.0" encoding="utf-8"?>
<svg xmlns="http://www.w3.org/2000/svg" viewBox="0 0 50 50" width="515" height="515">
  <path d="M17.537109 -0.046875C16.977234 -0.040078125 16.429312 0.177 16.007812 0.5625C15.247813 1.2585 15.10525 1.4690469 15.03125 1.7480469C14.82425 2.5490469 14.1935 4.984 8.0625 5C3.6195 5.012 -0.02 8.6136406 0 13.056641C0.028 19.280641 4.795 21.490922 8 21.919922L8 47C8 48.657 9.343 50 11 50C12.657 50 14 48.657 14 47L14 31.009766C14.050366 30.683161 14.823826 30.159732 16 29.638672L16 47C16 48.657 17.343 50 19 50C20.657 50 22 48.657 22 47L22 28.083984C22.499822 28.035695 23.002317 28 23.5 28C28 28 32.869 30.167 33 31L33 47C33 48.657 34.343 50 36 50C37.657 50 39 48.657 39 47L39 32C39 31.448 39.448 31 40 31C40.552 31 41 31.448 41 32L41 47C41 48.657 42.343 50 44 50C45.657 50 47 48.657 47 47L47 22.371094C45.272 23.397094 43.214 24 41 24C34.935 24 30 19.514 30 14L30 12.830078C27.722 12.300078 24.938 12 22 12C18.152 12 14.094859 13.672531 11.130859 14.894531C9.8748594 15.412531 8.449 16 8 16C6.142 16 4.6725 14.302953 5.0625 12.376953C5.3475 10.973953 6.6656563 10.005 8.0976562 10C16.214656 9.971 18.974141 6.2755781 19.869141 3.1425781C20.197141 1.8325781 19.517 0.53945312 18.25 0.064453125C18.201 0.046453125 18.148703 0.030578125 18.095703 0.017578125C17.910703 -0.028171875 17.723734 -0.049140625 17.537109 -0.046875 z M 32.904297 3.0039062C32.806922 3.01325 32.710687 3.0374219 32.617188 3.0761719C32.243187 3.2311719 32 3.596 32 4L32 14C32 18.411 36.037 22 41 22C45.963 22 50 18.411 50 14L50 4C50 3.596 49.756813 3.2311719 49.382812 3.0761719C49.007812 2.9211719 48.578969 3.0059687 48.292969 3.2929688L44.785156 6.8007812C43.537156 6.2747813 42.241 6 41 6C39.739 6 38.370078 6.2900156 37.205078 6.7910156L33.707031 3.2929688C33.492531 3.0777187 33.196422 2.975875 32.904297 3.0039062 z M 37.5 11C38.328 11 39 11.671 39 12.5C39 13.329 38.328 14 37.5 14C36.672 14 36 13.329 36 12.5C36 11.671 36.672 11 37.5 11 z M 44.5 11C45.328 11 46 11.671 46 12.5C46 13.329 45.328 14 44.5 14C43.672 14 43 13.329 43 12.5C43 11.671 43.672 11 44.5 11 z" />
</svg>