<?xml version="1.0" encoding="utf-8"?>
<svg xmlns="http://www.w3.org/2000/svg" width="515" height="515" viewBox="0 0 50 50">
  <path d="M25 2C12.297 2 2 12.297 2 25C2 28.218 2.6634219 31.2815 3.8574219 34.0625L3.8652344 34.058594C6.2397716 39.582953 10.718834 43.99078 16.289062 46.277344L16.285156 46.285156C16.540768 46.389911 16.800473 46.486237 17.060547 46.582031C17.077004 46.588098 17.0929 46.595532 17.109375 46.601562C17.457556 46.728905 17.810264 46.848129 18.166016 46.958984C18.526566 47.071335 18.889945 47.174634 19.257812 47.269531C19.62473 47.364183 19.995403 47.450574 20.369141 47.527344C21.865273 47.834667 23.412944 48 25 48C37.703 48 48 37.703 48 25C48 23.412962 47.834405 21.865282 47.527344 20.369141C47.373748 19.620755 47.183255 18.886022 46.958984 18.166016C46.846973 17.806408 46.72653 17.451435 46.597656 17.099609C46.468686 16.747521 46.330892 16.398514 46.185547 16.054688C46.154473 15.981179 46.127512 15.905149 46.095703 15.832031L46.085938 15.835938C43.765253 10.511774 39.488227 6.2347481 34.164062 3.9140625L34.167969 3.9042969C34.094851 3.8724883 34.018821 3.8455274 33.945312 3.8144531C33.601486 3.6691078 33.252479 3.531314 32.900391 3.4023438C32.548565 3.2734698 32.193592 3.1530274 31.833984 3.0410156C31.113978 2.8167455 30.379245 2.6262517 29.630859 2.4726562C28.134718 2.1655945 26.587038 2 25 2 z M 33.367188 5.7324219C38.242529 7.8494142 42.150587 11.757472 44.267578 16.632812L33.257812 21.449219C32.347653 19.343313 30.656687 17.652348 28.550781 16.742188L33.367188 5.7324219 z M 25 17.994141C28.881354 17.994141 32.005859 21.118648 32.005859 25C32.005859 28.881352 28.881354 32.005859 25 32.005859C21.118646 32.005859 17.994141 28.881352 17.994141 25C17.994141 21.118648 21.118646 17.994141 25 17.994141 z M 25 22 A 3 3 0 0 0 25 28 A 3 3 0 0 0 25 22 z M 16.736328 28.542969C17.651353 30.666403 19.360722 32.370183 21.488281 33.277344L17.023438 44.4375C11.934592 42.350354 7.8530354 38.326007 5.6894531 33.277344L16.736328 28.542969 z" />
</svg>