<?xml version="1.0" encoding="utf-8"?>
<svg xmlns="http://www.w3.org/2000/svg" viewBox="0 0 50 50" width="515" height="515">
  <path d="M24.78125 -0.03125C23.75 0.0820313 22.976563 0.964844 23 2L23 10.125C21.148438 10.371094 19.359375 10.964844 17.71875 11.875C17.59375 11.941406 17.507813 12.027344 17.40625 12.09375C16.742188 12.445313 16.328125 13.136719 16.335938 13.890625C16.347656 14.640625 16.777344 15.324219 17.449219 15.65625C18.125 15.992188 18.929688 15.917969 19.53125 15.46875C19.578125 15.441406 19.628906 15.421875 19.65625 15.40625C19.65625 15.394531 19.65625 15.386719 19.65625 15.375C20.695313 14.796875 21.839844 14.433594 23 14.21875L23 23L14.1875 23C14.253906 22.652344 14.339844 22.3125 14.4375 21.96875C14.679688 21.113281 15.039063 20.308594 15.5 19.53125C15.890625 18.886719 15.886719 18.082031 15.492188 17.441406C15.09375 16.800781 14.375 16.4375 13.625 16.5C12.972656 16.558594 12.386719 16.929688 12.0625 17.5C11.449219 18.53125 10.945313 19.648438 10.59375 20.875C10.394531 21.578125 10.253906 22.285156 10.15625 23L2 23C1.9375 22.996094 1.875 22.996094 1.8125 23C0.707031 23.050781 -0.144531 23.988281 -0.09375 25.09375C-0.0429688 26.199219 0.894531 27.050781 2 27L10.15625 27C10.402344 28.835938 10.984375 30.621094 11.90625 32.28125C11.964844 32.390625 12.015625 32.484375 12.0625 32.5625C12.402344 33.226563 13.078125 33.644531 13.824219 33.652344C14.566406 33.660156 15.253906 33.253906 15.605469 32.597656C15.957031 31.945313 15.917969 31.148438 15.5 30.53125C15.453125 30.453125 15.402344 30.394531 15.375 30.34375C14.785156 29.28125 14.398438 28.15625 14.1875 27L23 27L23 35.78125C21.78125 35.546875 20.605469 35.125 19.53125 34.5C19.183594 34.292969 18.78125 34.191406 18.375 34.21875C17.480469 34.257813 16.722656 34.890625 16.515625 35.761719C16.3125 36.636719 16.714844 37.535156 17.5 37.96875C19.175781 38.945313 21.035156 39.609375 23 39.875L23 48C22.988281 48.722656 23.367188 49.390625 23.992188 49.753906C24.613281 50.121094 25.386719 50.121094 26.007813 49.753906C26.632813 49.390625 27.011719 48.722656 27 48L27 39.875C28.851563 39.628906 30.640625 39.035156 32.28125 38.125C32.40625 38.054688 32.515625 37.976563 32.625 37.90625C33.558594 37.3125 33.832031 36.074219 33.234375 35.140625C32.640625 34.207031 31.402344 33.9375 30.46875 34.53125C30.425781 34.558594 30.378906 34.605469 30.34375 34.625C29.304688 35.199219 28.160156 35.566406 27 35.78125L27 27L35.8125 27C35.75 27.347656 35.660156 27.6875 35.5625 28.03125C35.3125 28.902344 34.945313 29.707031 34.46875 30.5C33.898438 31.449219 34.207031 32.679688 35.15625 33.25C36.105469 33.820313 37.335938 33.511719 37.90625 32.5625C38.535156 31.511719 39.046875 30.371094 39.40625 29.125C39.605469 28.421875 39.746094 27.714844 39.84375 27L48 27C48.722656 27.011719 49.390625 26.632813 49.753906 26.007813C50.121094 25.386719 50.121094 24.613281 49.753906 23.992188C49.390625 23.367188 48.722656 22.988281 48 23L39.84375 23C39.597656 21.164063 39.015625 19.378906 38.09375 17.71875L38.125 17.71875C38.074219 17.625 38.023438 17.558594 37.96875 17.46875C37.601563 16.800781 36.886719 16.402344 36.125 16.4375C35.410156 16.460938 34.761719 16.867188 34.425781 17.5C34.09375 18.132813 34.121094 18.894531 34.5 19.5C34.53125 19.550781 34.5625 19.601563 34.59375 19.65625C35.183594 20.71875 35.566406 21.847656 35.78125 23L27 23L27 14.1875C28.238281 14.421875 29.414063 14.867188 30.5 15.5C31.117188 15.917969 31.914063 15.957031 32.566406 15.605469C33.222656 15.253906 33.628906 14.566406 33.621094 13.824219C33.613281 13.078125 33.195313 12.402344 32.53125 12.0625C30.851563 11.082031 28.972656 10.398438 27 10.125L27 2C27.007813 1.457031 26.796875 0.9375 26.414063 0.554688C26.03125 0.171875 25.511719 -0.0390625 24.96875 -0.03125C24.90625 -0.0351563 24.84375 -0.0351563 24.78125 -0.03125Z" />
</svg>