<?xml version="1.0" encoding="utf-8"?>
<svg xmlns="http://www.w3.org/2000/svg" viewBox="0 0 50 50" width="515" height="515">
  <path d="M19.3125 0C19.199219 -0.00390625 19.078125 0.0234375 18.96875 0.0625C18.523438 0.214844 18.230469 0.65625 18.28125 1.125C18.667969 4.613281 16.542969 6.082031 16.4375 6.15625C15.980469 6.457031 15.855469 7.070313 16.15625 7.53125C16.347656 7.828125 16.671875 8 17 8C17.1875 8 17.367188 7.957031 17.53125 7.84375C17.640625 7.773438 19.773438 6.339844 20.25 3.21875C21.113281 3.691406 22.148438 3.964844 23.3125 4C24.964844 4.050781 26.578125 3.644531 27.78125 2.90625C28.046875 3.617188 28.476563 4.25 29.03125 4.75C30.0625 5.6875 31.433594 6.113281 33.0625 6C33.613281 5.960938 34.039063 5.488281 34 4.9375C33.960938 4.386719 33.507813 3.964844 32.9375 4C31.871094 4.074219 30.992188 3.808594 30.375 3.25C29.792969 2.722656 29.464844 1.9375 29.4375 0.96875C29.425781 0.535156 29.132813 0.152344 28.71875 0.03125C28.300781 -0.0898438 27.839844 0.0820313 27.59375 0.4375C26.921875 1.414063 25.160156 2.097656 23.375 2.03125C21.867188 1.984375 20.710938 1.425781 20.15625 0.5C19.976563 0.195313 19.648438 0.0078125 19.3125 0 Z M 39.40625 5.3125C39.285156 5.300781 39.15625 5.308594 39.03125 5.34375L25.375 9.15625L26.78125 9.5625C27.355469 9.722656 27.847656 10.027344 28.21875 10.4375L38.6875 7.53125C39.25 9.054688 40.433594 12.320313 41.40625 15.21875L28.5 15.21875C28.003906 17.761719 27.15625 21.929688 26.4375 24.75C28.492188 30.632813 32.445313 34.375 36.78125 34.375C37.492188 34.375 38.226563 34.261719 38.9375 34.0625C45.277344 32.292969 46.230469 24.585938 44.4375 18.15625C43.351563 14.269531 40.34375 6.304688 40.21875 5.96875C40.082031 5.605469 39.773438 5.351563 39.40625 5.3125 Z M 10.8125 7.25C10.445313 7.289063 10.136719 7.511719 10 7.875C9.871094 8.210938 6.867188 16.171875 5.78125 20.0625C3.988281 26.488281 4.941406 34.230469 11.28125 36C11.996094 36.199219 12.726563 36.3125 13.4375 36.3125C18.121094 36.3125 22.367188 31.941406 24.25 25.21875C25.324219 21.363281 26.902344 12.980469 26.96875 12.625C27.066406 12.113281 26.75 11.640625 26.25 11.5L11.1875 7.28125C11.0625 7.246094 10.933594 7.238281 10.8125 7.25 Z M 11.53125 9.4375L24.8125 13.15625C24.605469 14.234375 24.242188 16.164063 23.8125 18.21875L8.4375 18.21875C9.453125 15.105469 10.894531 11.152344 11.53125 9.4375 Z M 40.40625 35.65625C40.09375 35.773438 39.800781 35.90625 39.46875 36C39.144531 36.089844 38.828125 36.128906 38.5 36.1875L39.90625 41.3125C35.417969 42.828125 33.925781 45.398438 34.46875 47.34375C34.539063 47.597656 34.707031 47.804688 34.9375 47.9375C35.089844 48.023438 35.234375 48.0625 35.40625 48.0625C35.496094 48.0625 35.597656 48.058594 35.6875 48.03125L48.9375 44.34375C49.46875 44.195313 49.773438 43.625 49.625 43.09375C49.003906 40.855469 45.875 39.9375 41.84375 40.8125 Z M 9.8125 37.59375L8.375 42.75C7.335938 42.519531 6.367188 42.375 5.46875 42.375C2.878906 42.375 1.058594 43.375 0.59375 45.03125C0.523438 45.289063 0.558594 45.550781 0.6875 45.78125C0.816406 46.011719 1.027344 46.179688 1.28125 46.25L14.53125 49.96875C14.621094 49.992188 14.722656 50 14.8125 50C14.984375 50 15.128906 49.960938 15.28125 49.875C15.511719 49.742188 15.710938 49.539063 15.78125 49.28125C16.324219 47.332031 14.792969 44.765625 10.28125 43.25L11.75 38.125C11.421875 38.066406 11.074219 38.027344 10.75 37.9375C10.417969 37.84375 10.121094 37.710938 9.8125 37.59375Z" />
</svg>