<?xml version="1.0" encoding="utf-8"?>
<svg xmlns="http://www.w3.org/2000/svg" viewBox="0 0 50 50" width="515" height="515">
  <path d="M3 0C1.347656 0 0 1.347656 0 3L0 27C0 28.652344 1.347656 30 3 30L17 30L17 28L3 28C2.449219 28 2 27.550781 2 27L2 7L32 7L32 19L34 19L34 3C34 1.347656 32.652344 0 31 0 Z M 8 12C6.839844 12 6 12.839844 6 14L6 20C6 21.160156 6.839844 22 8 22L13 22C14.160156 22 15 21.160156 15 20L15 14C15 12.839844 14.160156 12 13 12 Z M 21 12C19.839844 12 19 12.839844 19 14L19 19.125C19.320313 19.046875 19.648438 19 20 19L28 19L28 14C28 12.839844 27.160156 12 26 12 Z M 20 20C19.476563 20 18.941406 20.183594 18.5625 20.5625C18.183594 20.941406 18 21.476563 18 22L18 48C18 48.144531 18.007813 48.273438 18.03125 48.40625C18.058594 48.550781 18.101563 48.675781 18.15625 48.8125C18.199219 48.921875 18.25 49.027344 18.3125 49.125C18.453125 49.347656 18.625 49.542969 18.84375 49.6875C18.851563 49.691406 18.867188 49.683594 18.875 49.6875C18.972656 49.75 19.074219 49.800781 19.1875 49.84375C19.324219 49.898438 19.449219 49.941406 19.59375 49.96875C19.726563 49.992188 19.855469 50 20 50L48 50C48.144531 50 48.273438 49.992188 48.40625 49.96875C48.550781 49.941406 48.675781 49.898438 48.8125 49.84375C48.867188 49.820313 48.917969 49.808594 48.96875 49.78125C49.140625 49.695313 49.300781 49.574219 49.4375 49.4375C49.574219 49.300781 49.695313 49.140625 49.78125 48.96875C49.808594 48.917969 49.820313 48.867188 49.84375 48.8125C49.898438 48.675781 49.941406 48.550781 49.96875 48.40625C49.992188 48.273438 50 48.144531 50 48L50 22C50 21.476563 49.816406 20.941406 49.4375 20.5625C49.058594 20.183594 48.523438 20 48 20 Z M 20 22L48 22L48 26L20 26 Z M 25 35L30 35C30.601563 35 31 35.398438 31 36L31 42C31 42.601563 30.601563 43 30 43L25 43C24.398438 43 24 42.601563 24 42L24 36C24 35.398438 24.398438 35 25 35 Z M 38 35L43 35C43.601563 35 44 35.398438 44 36L44 42C44 42.601563 43.601563 43 43 43L38 43C37.398438 43 37 42.601563 37 42L37 36C37 35.398438 37.398438 35 38 35Z" />
</svg>