<?xml version="1.0" encoding="utf-8"?>
<svg xmlns="http://www.w3.org/2000/svg" viewBox="0 0 50 50" width="515" height="515">
  <path d="M7 2C4.239 2 2 4.239 2 7L2 34C2 36.761 4.239 39 7 39L34 39C36.761 39 39 36.761 39 34L39 7C39 6.486 38.899859 6.0002031 38.755859 5.5332031L19.144531 27.347656L9.3554688 18.724609L10.677734 17.222656L18.980469 24.537109L37.724609 3.6933594C36.808609 2.6623594 35.487 2 34 2L7 2 z M 41 11L41 35C41 38.301 38.301 41 35 41L11 41L11 43C11 45.801 13.199 48 16 48L43 48C45.801 48 48 45.801 48 43L48 16C48 13.199 45.801 11 43 11L41 11 z" />
</svg>