<?xml version="1.0" encoding="utf-8"?>
<svg xmlns="http://www.w3.org/2000/svg" viewBox="0 0 50 50" width="515" height="515">
  <path d="M17.5 9C8.951431 9 2 15.951431 2 24.5C2 33.048569 8.951431 40 17.5 40C26.048569 40 33 33.048569 33 24.5C33 15.951431 26.048569 9 17.5 9 z M 26 18C26.25575 18 26.511531 18.097469 26.707031 18.292969C27.098031 18.683969 27.098031 19.316031 26.707031 19.707031L14.707031 31.707031C14.512031 31.902031 14.256 32 14 32C13.744 32 13.487969 31.902031 13.292969 31.707031L8.2929688 26.707031C7.9019687 26.316031 7.9019688 25.683969 8.2929688 25.292969C8.6839688 24.901969 9.3160313 24.901969 9.7070312 25.292969L14 29.585938L25.292969 18.292969C25.488469 18.097469 25.74425 18 26 18 z M 38 24 A 1 1 0 0 0 37 25 A 1 1 0 0 0 38 26L50 26L50 24L38 24 z" />
</svg>