<?xml version="1.0" encoding="utf-8"?>
<svg xmlns="http://www.w3.org/2000/svg" viewBox="0 0 50 50" width="515" height="515">
  <path d="M11 2C10.846625 2 10.693734 2.0349687 10.552734 2.1054688L9 2.8828125L7.4472656 2.1054688C7.1372656 1.9514688 6.7696094 1.9664375 6.4746094 2.1484375C6.1806094 2.3314375 6 2.653 6 3L6 43L5 43C4.20761 43 3.4453019 43.313092 2.8828125 43.871094L2.8828125 43.873047C1.7159515 45.032457 1.7104717 46.948652 2.8710938 48.115234C3.4347282 48.68182 4.2018343 49 5 49L45 49C46.64497 49 48 47.64497 48 46C48 44.35503 46.64497 43 45 43L44 43L44 3C44 2.653 43.820391 2.3314375 43.525391 2.1484375C43.230391 1.9654375 42.862734 1.9514688 42.552734 2.1054688L41 2.8828125L39.447266 2.1054688C39.166266 1.9644687 38.834734 1.9644687 38.552734 2.1054688L37 2.8828125L35.447266 2.1054688C35.166266 1.9644687 34.834734 1.9644687 34.552734 2.1054688L33 2.8828125L31.447266 2.1054688C31.166266 1.9644687 30.834734 1.9644687 30.552734 2.1054688L29 2.8828125L27.447266 2.1054688C27.166266 1.9644687 26.834734 1.9644687 26.552734 2.1054688L25 2.8828125L23.447266 2.1054688C23.166266 1.9644687 22.834734 1.9644687 22.552734 2.1054688L21 2.8828125L19.447266 2.1054688C19.166266 1.9644687 18.834734 1.9644687 18.552734 2.1054688L17 2.8828125L15.447266 2.1054688C15.166266 1.9644687 14.834734 1.9644687 14.552734 2.1054688L13 2.8828125L11.447266 2.1054688C11.306766 2.0349687 11.153375 2 11 2 z M 13 11L28 11C28.553 11 29 11.448 29 12C29 12.552 28.553 13 28 13L13 13C12.448 13 12 12.552 12 12C12 11.448 12.448 11 13 11 z M 34 11L37 11C37.553 11 38 11.448 38 12C38 12.552 37.553 13 37 13L34 13C33.447 13 33 12.552 33 12C33 11.448 33.447 11 34 11 z M 13 17L24 17C24.552 17 25 17.448 25 18C25 18.552 24.552 19 24 19L13 19C12.448 19 12 18.552 12 18C12 17.448 12.448 17 13 17 z M 34 17L37 17C37.553 17 38 17.448 38 18C38 18.552 37.553 19 37 19L34 19C33.447 19 33 18.552 33 18C33 17.448 33.447 17 34 17 z M 13 23L28 23C28.553 23 29 23.448 29 24C29 24.552 28.553 25 28 25L13 25C12.448 25 12 24.552 12 24C12 23.448 12.448 23 13 23 z M 34 23L37 23C37.553 23 38 23.448 38 24C38 24.552 37.553 25 37 25L34 25C33.447 25 33 24.552 33 24C33 23.448 33.447 23 34 23 z M 13 29L24 29C24.552 29 25 29.447 25 30C25 30.553 24.552 31 24 31L13 31C12.448 31 12 30.553 12 30C12 29.447 12.448 29 13 29 z M 34 29L37 29C37.553 29 38 29.447 38 30C38 30.553 37.553 31 37 31L34 31C33.447 31 33 30.553 33 30C33 29.447 33.447 29 34 29 z M 13 35C13.552 35 14 35.448 14 36C14 36.552 13.552 37 13 37C12.448 37 12 36.552 12 36C12 35.448 12.448 35 13 35 z M 16 35C16.552 35 17 35.448 17 36C17 36.552 16.552 37 16 37C15.448 37 15 36.552 15 36C15 35.448 15.448 35 16 35 z M 19 35C19.552 35 20 35.448 20 36C20 36.552 19.552 37 19 37C18.448 37 18 36.552 18 36C18 35.448 18.448 35 19 35 z M 22 35C22.552 35 23 35.448 23 36C23 36.552 22.552 37 22 37C21.448 37 21 36.552 21 36C21 35.448 21.448 35 22 35 z M 25 35C25.552 35 26 35.448 26 36C26 36.552 25.552 37 25 37C24.448 37 24 36.552 24 36C24 35.448 24.448 35 25 35 z M 28 35C28.552 35 29 35.448 29 36C29 36.552 28.552 37 28 37C27.448 37 27 36.552 27 36C27 35.448 27.448 35 28 35 z M 31 35C31.552 35 32 35.448 32 36C32 36.552 31.552 37 31 37C30.448 37 30 36.552 30 36C30 35.448 30.448 35 31 35 z M 34 35C34.552 35 35 35.448 35 36C35 36.552 34.552 37 34 37C33.448 37 33 36.552 33 36C33 35.448 33.448 35 34 35 z M 37 35C37.552 35 38 35.448 38 36C38 36.552 37.552 37 37 37C36.448 37 36 36.552 36 36C36 35.448 36.448 35 37 35 z M 31 40L37 40C37.553 40 38 40.447 38 41C38 41.553 37.553 42 37 42L31 42C30.447 42 30 41.553 30 41C30 40.447 30.447 40 31 40 z M 5 45L6 45L6 47L5 47C4.7321657 47 4.4774282 46.894446 4.2890625 46.705078C3.8916849 46.30566 3.8938298 45.687606 4.2929688 45.291016C4.4824794 45.103017 4.73439 45 5 45 z M 44 45L45 45C45.56503 45 46 45.43497 46 46C46 46.56503 45.56503 47 45 47L44 47L44 45 z" />
</svg>