<?xml version="1.0" encoding="utf-8"?>
<svg xmlns="http://www.w3.org/2000/svg" viewBox="0 0 50 50" width="515" height="515">
  <path d="M37.40625 1.09375C36.078125 1.09375 35.242188 1.832031 34.78125 2.5625C34.222656 2.5 33.578125 2.574219 33.09375 2.84375C31.546875 3.695313 30.886719 5.453125 31.5625 6.9375C31.773438 7.398438 32.082031 7.792969 32.46875 8.09375C31.011719 9.707031 30.214844 12.003906 29.46875 14.15625C28.085938 18.148438 26.882813 21.59375 22.5 21.59375C11.964844 21.59375 6.167969 16.6875 5.1875 15.375C4.605469 14.589844 4.105469 14 3.375 14C2.480469 14 2.03125 14.714844 2.03125 16.15625C2.03125 18.410156 3.910156 21.554688 6.0625 23.4375C5.089844 23.699219 4.167969 24.082031 3.625 24.625C3.15625 25.09375 2.949219 25.582031 3.0625 26.0625C3.226563 26.75 3.867188 26.957031 4.1875 27.0625C4.414063 27.136719 4.738281 27.269531 5.09375 27.4375C4.804688 27.613281 4.574219 27.832031 4.34375 28.125C4.054688 28.496094 3.964844 28.871094 4.0625 29.25C4.21875 29.847656 4.773438 30.085938 5.09375 30.21875C5.714844 30.480469 6.242188 31.007813 6.65625 31.78125C7.332031 33.03125 9.574219 36.082031 13.0625 38.6875C18.105469 39.820313 22.117188 39.300781 24.96875 37.125C27.949219 34.855469 29 31.160156 29 28.6875C29 28.132813 29.445313 27.6875 30 27.6875C30.554688 27.6875 31 28.132813 31 28.6875C31 31.757813 29.742188 36.003906 26.1875 38.71875C23.949219 40.421875 21.160156 41.28125 17.875 41.28125C17.722656 41.28125 17.5625 41.253906 17.40625 41.25C19.382813 42.144531 21.589844 42.804688 24 42.96875L24 45.375C22.222656 46.027344 21.242188 47.332031 21.1875 47.40625C20.863281 47.855469 20.957031 48.488281 21.40625 48.8125C21.582031 48.941406 21.796875 49 22 49C22.308594 49 22.617188 48.863281 22.8125 48.59375C22.824219 48.578125 24.011719 47 26 47C27.988281 47 29.140625 48.535156 29.1875 48.59375C29.507813 49.042969 30.144531 49.132813 30.59375 48.8125C31.042969 48.488281 31.136719 47.855469 30.8125 47.40625C30.742188 47.308594 29.03125 45 26 45L26 42.96875C31.691406 42.671875 42 39.113281 42 29.0625C42 26.378906 41.523438 24.539063 41.09375 22.90625C40.761719 21.632813 40.46875 20.53125 40.46875 19.25C40.46875 17.496094 41.292969 16.390625 41.6875 15.96875C41.75 15.964844 41.84375 15.96875 41.9375 15.96875C42.664063 15.96875 43.683594 16.15625 44.34375 16.71875C44.640625 16.96875 45.054688 17.039063 45.40625 16.875C45.761719 16.710938 45.96875 16.359375 45.96875 15.96875C45.96875 12.667969 44.644531 11.570313 43.96875 11.09375C43.867188 9.851563 43.3125 8.765625 42.4375 7.90625C42.671875 7.6875 42.871094 7.445313 43.03125 7.15625C43.425781 6.4375 43.542969 5.597656 43.3125 4.8125C43.085938 4.039063 42.546875 3.414063 41.84375 3.03125C41.335938 2.757813 40.660156 2.683594 40.0625 2.75C39.59375 1.925781 38.761719 1.09375 37.40625 1.09375 Z M 38.28125 10C39.109375 10 39.78125 10.671875 39.78125 11.5C39.78125 12.328125 39.109375 13 38.28125 13C37.453125 13 36.78125 12.328125 36.78125 11.5C36.78125 10.671875 37.453125 10 38.28125 10Z" />
</svg>