<?xml version="1.0" encoding="utf-8"?>
<svg xmlns="http://www.w3.org/2000/svg" viewBox="0 0 50 50" width="515" height="515">
  <path d="M25 1C11.759318 1 1 11.759318 1 25C1 27.889887 1.5121634 30.661103 2.4511719 33.228516C2.453288 33.234301 2.4549108 33.24031 2.4570312 33.246094C2.5964788 33.635375 2.743374 34.020934 2.9003906 34.400391L2.9140625 34.392578C4.4930509 38.094551 6.9790423 41.316994 10.087891 43.789062C10.38006 44.021388 10.677478 44.246072 10.980469 44.464844C11.019857 44.49333 11.060038 44.52058 11.099609 44.548828C11.371996 44.743006 11.64708 44.93231 11.927734 45.115234C11.978264 45.148154 12.029278 45.180347 12.080078 45.212891C12.370962 45.399378 12.665591 45.579806 12.964844 45.753906C12.990837 45.76899 13.016912 45.78384 13.042969 45.798828C13.369274 45.987032 13.701387 46.166784 14.037109 46.339844C17.325532 48.034976 21.050219 49 25 49C38.240682 49 49 38.240682 49 25C49 19.520158 47.153666 14.468782 44.054688 10.425781L44.099609 10.400391C42.782707 8.7022793 41.221708 7.1768671 39.478516 5.8691406C39.40253 5.8115067 39.326688 5.7540121 39.25 5.6972656C39.082857 5.5748837 38.9126 5.4561718 38.742188 5.3378906C38.556802 5.2079794 38.370805 5.0798331 38.181641 4.9550781C38.096846 4.8996257 38.011313 4.8454523 37.925781 4.7910156C37.643011 4.6096132 37.357095 4.4333715 37.066406 4.2636719C37.065152 4.2629397 37.063754 4.2624507 37.0625 4.2617188C37.06075 4.2607041 37.058391 4.2607798 37.056641 4.2597656C33.511582 2.1922784 29.394237 1 25 1 z M 25 3C26.018664 3 27.018305 3.0752737 28 3.2089844L28 10.304688C27.029777 10.105433 26.026606 10 25 10C23.973394 10 22.970223 10.105433 22 10.304688L22 3.2089844C22.981695 3.0752737 23.981336 3 25 3 z M 42.318359 11.433594C43.567745 13.026801 44.601572 14.795566 45.376953 16.699219L39.216797 20.269531C38.557401 18.30537 37.500237 16.523628 36.142578 15.011719L42.318359 11.433594 z M 7.6386719 11.488281L13.851562 15.019531C12.514738 16.510155 11.470496 18.262558 10.810547 20.193359L4.6308594 16.681641C5.3965489 14.806503 6.4123178 13.062293 7.6386719 11.488281 z M 25 12C32.154545 12 38 17.845455 38 25C38 32.154545 32.154545 38 25 38C17.845455 38 12 32.154545 12 25C12 17.845455 17.845455 12 25 12 z M 39.216797 29.730469L45.376953 33.300781C44.62144 35.155655 43.620659 36.882165 42.414062 38.443359L36.207031 34.916016C37.533694 33.419564 38.567878 31.663423 39.216797 29.730469 z M 10.8125 29.814453C11.47411 31.746704 12.521842 33.499366 13.861328 34.990234L7.7070312 38.599609C6.464054 37.02073 5.4331954 35.268423 4.65625 33.382812L10.8125 29.814453 z M 28 39.695312L28 46.791016C27.018305 46.924726 26.018664 47 25 47C24.015652 47 23.049576 46.927727 22.099609 46.802734L22.099609 39.710938C23.039291 39.897308 24.007992 40 25 40C26.026606 40 27.029777 39.894567 28 39.695312 z" />
</svg>