<?xml version="1.0" encoding="utf-8"?>
<svg xmlns="http://www.w3.org/2000/svg" viewBox="0 0 50 50" width="515" height="515">
  <path d="M25 2C12.318 2 2 12.318 2 25C2 37.682 12.318 48 25 48C37.682 48 48 37.682 48 25C48 12.318 37.682 2 25 2 z M 25 14C28.309 14 31 16.467 31 19.5C31 21.309 30.0375 22.911062 28.5625 23.914062C30.6165 25.048063 32 27.125 32 29.5C32 33.084 28.86 36 25 36C21.14 36 18 33.084 18 29.5C18 27.125 19.3835 25.048062 21.4375 23.914062C19.9625 22.911062 19 21.309 19 19.5C19 16.467 21.691 14 25 14 z M 25 16 A 4 3.5 0 0 0 21 19.5 A 4 3.5 0 0 0 25 23 A 4 3.5 0 0 0 29 19.5 A 4 3.5 0 0 0 25 16 z M 25 25 A 5 4.5 0 0 0 20 29.5 A 5 4.5 0 0 0 25 34 A 5 4.5 0 0 0 30 29.5 A 5 4.5 0 0 0 25 25 z" />
</svg>