<?xml version="1.0" encoding="utf-8"?>
<svg xmlns="http://www.w3.org/2000/svg" viewBox="0 0 50 50" width="515" height="515">
  <path d="M25 2C12.297 2 2 12.297 2 25C2 37.703 12.297 48 25 48C37.703 48 48 37.703 48 25C48 12.297 37.703 2 25 2 z M 18.439453 16L25.324219 16C28.630219 16 30.650391 17.733234 30.650391 20.490234C30.650391 22.361234 29.278922 24.058141 27.544922 24.369141L27.544922 24.570312C30.001922 24.882313 31.5625 26.565266 31.5625 28.947266C31.5615 32.115266 29.291891 34 25.462891 34L18.439453 34L18.439453 16 z M 20.683594 17.982422L20.683594 23.759766L24.275391 23.759766C26.995391 23.759766 28.380859 22.785953 28.380859 20.876953C28.380859 19.042953 27.082609 17.982422 24.849609 17.982422L20.683594 17.982422 z M 20.683594 25.691406L20.683594 32.015625L25.125 32.015625C27.832 32.015625 29.253906 30.918937 29.253906 28.835938C29.253906 26.753938 27.781109 25.691406 24.912109 25.691406L20.683594 25.691406 z" />
</svg>