<?xml version="1.0" encoding="utf-8"?>
<svg xmlns="http://www.w3.org/2000/svg" viewBox="0 0 50 50" width="515" height="515">
  <path d="M25,2C12.317,2,2,12.318,2,25s10.317,23,23,23s23-10.318,23-23S37.683,2,25,2z M24.5,36c-3.622,0-6.652-2.581-7.349-6h2.062 c0.655,2.305,2.775,4,5.287,4c3.032,0,5.5-2.467,5.5-5.5S27.532,23,24.5,23c-1.601,0-3.154,0.76-4.222,2H18.07l0.114-0.542 l-0.017-0.011c0.008-0.012,0.018-0.023,0.027-0.035L20.388,14H31v2h-8.989l-1.274,6.046C21.879,21.38,23.178,21,24.5,21 c4.136,0,7.5,3.364,7.5,7.5S28.636,36,24.5,36z" />
</svg>