<?xml version="1.0" encoding="utf-8"?>
<svg xmlns="http://www.w3.org/2000/svg" viewBox="0 0 50 50" width="515" height="515">
  <path d="M25 2C12.297 2 2 12.297 2 25C2 37.703 12.297 48 25 48C37.703 48 48 37.703 48 25C48 12.297 37.703 2 25 2 z M 17.664062 16L23.839844 16C29.178844 16 32.335938 19.331141 32.335938 24.994141C32.335938 30.669141 29.190844 34 23.839844 34L17.664062 34L17.664062 16 z M 19.910156 18.021484L19.910156 31.978516L23.689453 31.978516C27.706453 31.978516 30.039062 29.408578 30.039062 25.017578C30.039062 20.614578 27.681453 18.021484 23.689453 18.021484L19.910156 18.021484 z" />
</svg>