<?xml version="1.0" encoding="utf-8"?>
<svg xmlns="http://www.w3.org/2000/svg" viewBox="0 0 50 50" width="515" height="515">
  <path d="M41 2C37.14 2 34 5.14 34 9C34 10.845786 34.723158 12.521525 35.894531 13.773438L27.525391 24L15.919922 24C15.432051 20.613417 12.519553 18 9 18C5.14 18 2 21.14 2 25C2 28.86 5.14 32 9 32C12.519553 32 15.432051 29.386583 15.919922 26L27.501953 26L35.533203 36.638672C34.575514 37.836276 34 39.350757 34 41C34 44.86 37.14 48 41 48C44.86 48 48 44.86 48 41C48 37.14 44.86 34 41 34C39.512993 34 38.136901 34.470036 37.001953 35.263672L29.271484 25.025391L37.453125 15.023438C38.494969 15.639401 39.704431 16 41 16C44.86 16 48 12.86 48 9C48 5.14 44.86 2 41 2 z" />
</svg>