<?xml version="1.0" encoding="utf-8"?>
<svg xmlns="http://www.w3.org/2000/svg" viewBox="0 0 50 50" width="515" height="515">
  <path d="M23.5 3C21.433594 3 19.957031 3.824219 18.792969 4.757813C17.875 4.253906 16.8125 4 15.625 4C13.390625 4 11.605469 5.011719 10.3125 7.003906C10.214844 7.003906 10.125 7.003906 10.046875 7C8.242188 6.921875 6.527344 7.582031 5.195313 8.851563C3.894531 10.097656 3.109375 11.8125 3.007813 13.667969C1.785156 14.5 1.007813 15.964844 1.007813 17.5C1.007813 18.75 1.554688 20.066406 2.394531 20.988281C1.488281 21.890625 1.007813 23.011719 1.007813 24.25C1.007813 25.96875 1.734375 27.40625 3 28.21875L3 29C3 32.402344 5.339844 34.972656 8.445313 35C8.929688 35.941406 9.761719 36.59375 10.828125 36.859375L9.226563 45.699219L8.992188 47L14.988281 47C15.109375 46.46875 15.21875 45.992188 15.21875 45.992188C15.351563 45.464844 15.558594 44.757813 15.871094 44C16.789063 41.738281 18.601563 39 22 39C25.472656 39 28.394531 36.386719 28.917969 33L29 33C30.671875 33 32.4375 31.949219 33.378906 30.542969C33.890625 30.8125 34.53125 31 35.375 31C36.808594 31 37.949219 30.296875 38.644531 29L39.25 29C41.832031 29 43.09375 28.015625 43.703125 26.996094C47.601563 26.863281 48.988281 24.382813 48.988281 22.25C48.988281 20.9375 48.632813 20.035156 48.269531 19.46875C48.621094 18.949219 48.988281 18.144531 48.988281 16.875C48.988281 14.660156 47.890625 13.207031 45.703125 12.550781C44.925781 10.082031 42.722656 8.289063 40.144531 8.03125C38.855469 5.628906 36.113281 4 33.25 4C31.644531 4 30.496094 4.132813 29.152344 4.785156C27.675781 3.554688 25.898438 3 23.5 3 Z M 28 10L30 10L30 12.09375C30.636719 12.222656 31.226563 12.476563 31.75 12.824219L33.242188 11.335938L34.65625 12.75L33.167969 14.234375C33.519531 14.761719 33.769531 15.359375 33.898438 16L36 16L36 18L33.890625 18C33.761719 18.625 33.511719 19.207031 33.171875 19.722656L34.65625 21.203125L33.246094 22.621094L31.753906 21.136719C31.230469 21.480469 30.640625 21.734375 30 21.863281L30 23.953125L28 23.953125L28 21.863281C27.363281 21.734375 26.773438 21.480469 26.25 21.136719L24.757813 22.621094L23.34375 21.203125L24.832031 19.722656C24.488281 19.207031 24.242188 18.625 24.109375 18L22 18L22 16L24.097656 16C24.230469 15.359375 24.480469 14.761719 24.828125 14.234375L23.34375 12.75L24.753906 11.335938L26.246094 12.824219C26.769531 12.476563 27.359375 12.222656 28 12.09375 Z M 29 13.988281C27.34375 13.988281 26 15.328125 26 16.980469C26 18.628906 27.34375 19.96875 29 19.96875C30.65625 19.96875 32 18.628906 32 16.980469C32 15.328125 30.65625 13.988281 29 13.988281 Z M 16 18.046875L18 18.046875L18 20.136719C18.636719 20.265625 19.226563 20.519531 19.75 20.863281L21.242188 19.378906L22.65625 20.796875L21.167969 22.277344C21.511719 22.792969 21.757813 23.375 21.890625 24L24 24L24 26L21.902344 26C21.769531 26.640625 21.519531 27.238281 21.171875 27.765625L22.65625 29.25L21.246094 30.664063L19.753906 29.175781C19.230469 29.523438 18.640625 29.777344 18 29.90625L18 32L16 32L16 29.90625C15.363281 29.777344 14.773438 29.523438 14.25 29.175781L12.757813 30.664063L11.34375 29.25L12.832031 27.765625C12.480469 27.238281 12.230469 26.640625 12.101563 26L10 26L10 24L12.109375 24C12.238281 23.375 12.488281 22.792969 12.828125 22.277344L11.34375 20.796875L12.753906 19.378906L14.246094 20.863281C14.769531 20.519531 15.359375 20.265625 16 20.136719 Z M 17 22.03125C15.34375 22.03125 14 23.371094 14 25.019531C14 26.671875 15.34375 28.011719 17 28.011719C18.65625 28.011719 20 26.671875 20 25.019531C20 23.371094 18.65625 22.03125 17 22.03125Z" />
</svg>