<?xml version="1.0" encoding="utf-8"?>
<svg xmlns="http://www.w3.org/2000/svg" viewBox="0 0 50 50" width="515" height="515">
  <path d="M20 0.15625C6.800781 1.472656 2 11.535156 2 21C2 25.265625 3.28125 29.378906 5.6875 32.875C7.863281 36.039063 9 39.589844 9 43.1875L9 50L33 50L33 44.78125L35 44.90625C37.332031 45.121094 39.5625 44.378906 41.28125 42.8125C43.007813 41.238281 44 38.960938 44 36.59375L44 31.8125L47.5 30.0625C48.171875 29.691406 48.640625 29.101563 48.84375 28.375C49.042969 27.652344 48.941406 26.871094 48.5625 26.1875L43.96875 18.28125C42.609375 7.339844 36.410156 1.136719 26 0.15625L26 17.59375C28.929688 18.785156 31 21.648438 31 25C31 26.785156 30.398438 28.417969 29.40625 29.75L34.59375 33.34375C35.011719 33.121094 35.496094 33 36 33C37.652344 33 39 34.347656 39 36C39 37.652344 37.652344 39 36 39C34.347656 39 33 37.652344 33 36C33 35.589844 33.070313 35.199219 33.21875 34.84375L28 31.21875C26.628906 32.324219 24.898438 33 23 33C18.589844 33 15 29.410156 15 25C15 21.648438 17.070313 18.785156 20 17.59375 Z M 23 19C19.691406 19 17 21.691406 17 25C17 28.308594 19.691406 31 23 31C26.308594 31 29 28.308594 29 25C29 21.691406 26.308594 19 23 19 Z M 23 21C25.207031 21 27 22.792969 27 25C27 27.207031 25.207031 29 23 29C20.792969 29 19 27.207031 19 25C19 22.792969 20.792969 21 23 21 Z M 23 23C21.894531 23 21 23.894531 21 25C21 26.105469 21.894531 27 23 27C24.105469 27 25 26.105469 25 25C25 23.894531 24.105469 23 23 23Z" />
</svg>