<?xml version="1.0" encoding="utf-8"?>
<svg xmlns="http://www.w3.org/2000/svg" viewBox="0 0 50 50" width="515" height="515">
  <path d="M18 2C15.243 2 13 4.243 13 7C13 9.757 15.243 12 18 12C18.406969 12 18.796774 11.93789 19.175781 11.845703L20.009766 13.619141C16.423894 15.696553 14 19.565951 14 24C14 25.144401 14.172095 26.247758 14.472656 27.296875L11.201172 28.308594C10.311042 26.924194 8.7646181 26 7 26C4.243 26 2 28.243 2 31C2 33.757 4.243 36 7 36C9.757 36 12 33.757 12 31C12 30.719865 11.972236 30.447396 11.927734 30.179688L15.189453 29.171875C16.716674 32.350673 19.595668 34.75134 23.083984 35.626953L22.785156 38.009766C20.12829 38.123627 18 40.315606 18 43C18 45.757 20.243 48 23 48C25.757 48 28 45.757 28 43C28 40.864925 26.649073 39.051479 24.761719 38.335938L25.060547 35.951172C25.371693 35.975467 25.682722 36 26 36C29.352187 36 32.383157 34.614232 34.5625 32.390625L38.587891 35.697266C38.224771 36.389688 38 37.165413 38 38C38 40.757 40.243 43 43 43C45.757 43 48 40.757 48 38C48 35.243 45.757 33 43 33C41.801309 33 40.715775 33.442534 39.853516 34.148438L35.837891 30.851562C37.196279 28.906888 38 26.546895 38 24C38 21.050949 36.925447 18.351312 35.154297 16.259766L38.248047 13.166016C39.038546 13.689985 39.982644 14 41 14C43.757 14 46 11.757 46 9C46 6.243 43.757 4 41 4C38.243 4 36 6.243 36 9C36 10.017356 36.310015 10.961454 36.833984 11.751953L33.740234 14.845703C31.648688 13.074553 28.949051 12 26 12C24.528241 12 23.124324 12.280626 21.820312 12.767578L20.982422 10.988281C22.199464 10.075427 23 8.6349711 23 7C23 4.243 20.757 2 18 2 z M 26 17C26.926 17 27.6845 17.252766 27.9375 17.759766C29.4685 17.951766 29.99 19.28 30 20.5C30.008 21.428 29.932 22.24 29.75 22.75C29.918 22.834 30.084 23.244 30 23.75C29.832 24.678 29.253 25 29 25C28.916 25.844 28.337 27.081 28 27.25L28 29C28.54 30.297 31.134797 30.287578 32.716797 31.392578C30.940797 33.006578 28.589 34 26 34C23.411 34 21.059203 33.006578 19.283203 31.392578C20.865203 30.287578 23.46 30.297 24 29L24 27.25C23.663 27.081 23.084 25.844 23 25C22.747 25 22.084 24.678 22 23.75C21.916 23.244 22.082 22.834 22.25 22.75C22.049 22.004 22.005 21.286 22 20.625C21.985 18.521 23.241 17 26 17 z" />
</svg>