<?xml version="1.0" encoding="utf-8"?>
<svg xmlns="http://www.w3.org/2000/svg" viewBox="0 0 50 50" width="515" height="515">
  <path d="M37 5C34.238281 5 32 7.238281 32 10C32 12.761719 34.238281 15 37 15C39.761719 15 42 12.761719 42 10C42 7.238281 39.761719 5 37 5 Z M 26.5 11C25.617188 11 24.765625 11.339844 24.121094 11.941406L15.765625 18.675781L15.765625 18.6875C14.660156 19.429688 14 20.671875 14 22C14 23.390625 14.726563 24.679688 15.910156 25.40625L23.625 30.65625L22.046875 40.027344C22.015625 40.183594 22 40.339844 22 40.5C22 41.878906 23.121094 43 24.5 43C25.828125 43 26.921875 41.960938 26.996094 40.636719L28.96875 29.359375L28.96875 29.355469C28.988281 29.238281 29 29.117188 29 29C29 28.339844 28.671875 27.71875 28.125 27.347656L28.121094 27.339844L22.75 23.375L28.207031 18.558594L32.367188 23.160156L32.378906 23.167969C32.753906 23.691406 33.355469 24 34 24L41.5 24C42.878906 24 44 22.878906 44 21.5C44 20.121094 42.878906 19 41.5 19L35 19L29.40625 12.554688C28.757813 11.582031 27.667969 11 26.5 11 Z M 11 28C6.042969 28 2 32.042969 2 37C2 41.957031 6.042969 46 11 46C15.957031 46 20 41.957031 20 37C20 32.042969 15.957031 28 11 28 Z M 39 28C34.042969 28 30 32.042969 30 37C30 41.957031 34.042969 46 39 46C43.957031 46 48 41.957031 48 37C48 32.042969 43.957031 28 39 28 Z M 11 30C14.878906 30 18 33.121094 18 37C18 40.878906 14.878906 44 11 44C7.121094 44 4 40.878906 4 37C4 33.121094 7.121094 30 11 30 Z M 39 30C42.878906 30 46 33.121094 46 37C46 40.878906 42.878906 44 39 44C35.121094 44 32 40.878906 32 37C32 33.121094 35.121094 30 39 30Z" />
</svg>