<?xml version="1.0" encoding="utf-8"?>
<svg xmlns="http://www.w3.org/2000/svg" viewBox="0 0 50 50" width="515" height="515">
  <path d="M21.001953 0C8.4399531 0 -2.3684758e-15 4.6530469 0 8.9980469C0 13.345047 8.4399531 18 21.001953 18C33.563953 18 42 13.345047 42 8.9980469C42 4.6530469 33.563953 -1.1842379e-15 21.001953 0 z M 0 13.609375L0 19.150391C0 23.424391 8.4455781 28 21.017578 28C33.589578 28 42 23.424391 42 19.150391L42 13.609375C38.325 17.363375 30.433578 20 21.017578 20C11.597578 20 3.676 17.362375 0 13.609375 z M 0 23.910156L0 29.195312C0 33.466313 8.4455781 38.046875 21.017578 38.046875C23.527578 38.046875 25.858 37.853391 28 37.525391L28 36.916016L29.660156 36.630859L31.320312 36.34375C31.333313 36.31375 31.344422 36.283906 31.357422 36.253906L30.367188 34.857422L29.392578 33.480469L30.585938 32.287109L32.384766 30.486328L33.587891 29.283203L34.96875 30.277344L36.521484 31.396484L36.826172 29.572266L37.105469 28L42 28L42 23.941406C38.312 27.676406 30.408578 30 21.017578 30C11.597578 30 3.676 27.662156 0 23.910156 z M 38.800781 29.900391L38.300781 32.900391C37.600781 33.100391 36.901781 33.401172 36.300781 33.701172L33.800781 31.900391L32 33.699219L33.699219 36.099609C33.299219 36.699609 33.000391 37.399609 32.900391 38.099609L30 38.599609L30 41.099609L32.900391 41.599609C33.099391 42.299609 33.399219 42.998609 33.699219 43.599609L32 46.099609L33.800781 47.900391L36.300781 46.199219C36.901781 46.599219 37.600781 46.801 38.300781 47L38.800781 50L41.300781 50L41.800781 47C42.500781 46.801 43.200781 46.499219 43.800781 46.199219L46.300781 47.900391L48.099609 46.099609L46.300781 43.699219C46.700781 43.099219 46.900609 42.399219 47.099609 41.699219L50 41.101562L50 38.601562L47 38.101562C46.8 37.401562 46.499219 36.701563 46.199219 36.101562L47.900391 33.601562L46.199219 31.900391L43.800781 33.701172C43.200781 33.302172 42.500781 33.100391 41.800781 32.900391L41.300781 29.900391L38.800781 29.900391 z M 0 33.955078L0 39.150391C0 43.424391 8.4455781 48 21.017578 48C24.398578 48 27.464156 47.659844 30.160156 47.089844L29.414062 46.345703L30.347656 44.976562L31.414062 43.404297C31.410062 43.393297 31.406344 43.384047 31.402344 43.373047L29.660156 43.072266L28 42.785156L28 41.099609L27.982422 39.478516C25.784422 39.804516 23.455 40 21 40C11.58 40 3.676 37.708078 0 33.955078 z M 40 37C41.7 37 43 38.3 43 40C43 41.7 41.7 43 40 43C38.3 43 37 41.7 37 40C37 38.3 38.3 37 40 37 z" />
</svg>