<?xml version="1.0" encoding="utf-8"?>
<svg xmlns="http://www.w3.org/2000/svg" viewBox="0 0 50 50" width="515" height="515">
  <path d="M25 7C15.074219 7 7 15.074219 7 25C7 34.925781 15.074219 43 25 43C34.925781 43 43 34.925781 43 25C43 15.074219 34.925781 7 25 7 Z M 26 34.101563L26 36L24 36L24 34.101563C22.300781 33.800781 19.300781 32.800781 19 28.5L21 28.5C21 29.800781 21.898438 32.199219 25 32.199219C28.101563 32.199219 28.800781 30.699219 28.800781 29.097656C28.800781 24.300781 19.5 27.597656 19.5 21.199219C19.5 17.800781 22.398438 16.398438 24 16.199219L24 14L26 14L26 16.300781C28.898438 16.800781 29.898438 18.800781 30.5 21L28.5 21C28.199219 19.398438 27.199219 18.101563 25.101563 18.101563C22.101563 18.101563 21.699219 20.101563 21.699219 21C21.699219 23.101563 23.601563 23.601563 25.699219 24.101563C28.300781 24.699219 31 25.601563 31 28.898438C31 32.898438 27.5 34 26 34.101563Z" />
</svg>