<?xml version="1.0" encoding="utf-8"?>
<svg xmlns="http://www.w3.org/2000/svg" viewBox="0 0 50 50" width="515" height="515">
  <path d="M8.976563 2.980469C8.164063 2.980469 7.433594 3.476563 7.128906 4.230469C6.820313 4.984375 7.003906 5.847656 7.585938 6.414063L26.171875 25L7.585938 43.585938C7.0625 44.085938 6.851563 44.832031 7.035156 45.535156C7.21875 46.234375 7.765625 46.78125 8.464844 46.964844C9.167969 47.148438 9.914063 46.9375 10.414063 46.414063L31.828125 25L10.414063 3.585938C10.035156 3.199219 9.519531 2.980469 8.976563 2.980469 Z M 21.980469 2.980469C21.164063 2.980469 20.433594 3.476563 20.128906 4.230469C19.820313 4.984375 20.003906 5.847656 20.585938 6.414063L39.171875 25L20.585938 43.585938C20.0625 44.085938 19.851563 44.832031 20.035156 45.535156C20.21875 46.234375 20.765625 46.78125 21.464844 46.964844C22.167969 47.148438 22.914063 46.9375 23.414063 46.414063L44.828125 25L23.414063 3.585938C23.035156 3.199219 22.519531 2.980469 21.980469 2.980469Z" />
</svg>