<?xml version="1.0" encoding="utf-8"?>
<svg xmlns="http://www.w3.org/2000/svg" viewBox="0 0 50 50" width="515" height="515">
  <path d="M25 2C12.309295 2 2 12.309295 2 25C2 37.690705 12.309295 48 25 48C37.690705 48 48 37.690705 48 25C48 12.309295 37.690705 2 25 2 z M 16.089844 6L17 6L17 8L19 7L20 9L18 12L16 12L12.480469 13.759766L14.851562 6.6113281C15.253625 6.3892109 15.672157 6.1959707 16.089844 6 z M 36.613281 7.5039062C42.270987 11.26371 46 17.688303 46 25C46 25.972647 45.928379 26.927962 45.800781 27.865234L45 27L41 28L41 29L43 30L41.25 32.5L40.25 33L37.144531 26.787109L32.833984 27.5L32.126953 25.625L37.126953 23.625L35 21L34 23L31 24L30 27L28 24L25 25L23 27L21 27L21 24L23 24L26.25 20.6875L29.5 20.375L32.980469 16.677734L30.732422 14.255859L29.267578 15.617188L30.267578 16.695312L28.982422 18.0625L26.4375 15.435547L29.935547 12L33.03125 12L34 13.9375L35 11.9375L37 11L36 9L36.613281 7.5039062 z M 12.128906 8.4238281L10.787109 12.404297L9 13L8 20L6 19L4.7226562 19.525391C5.9249563 15.051962 8.5748779 11.18608 12.128906 8.4238281 z M 22 16L22.75 16L24 19.625L23 20L21 20L21 19L22 18L22 16 z M 25 28L30 30L36 29L39 35L40.400391 35L38 39L35.667969 43.072266C33.782237 44.186795 31.717826 45.029798 29.511719 45.511719L28 44L28 40L25 38L22 39L19 38L18 34L20 30L25 28 z" />
</svg>