<?xml version="1.0" encoding="utf-8"?>
<svg xmlns="http://www.w3.org/2000/svg" viewBox="0 0 50 50" width="515" height="515">
  <path d="M25 12C11.670079 12 1.2402344 24.349609 1.2402344 24.349609 A 1.0001261 1.0001261 0 0 0 2.7597656 25.650391C2.7597656 25.650391 12.929921 14 25 14C37.070079 14 47.240234 25.650391 47.240234 25.650391 A 1.0001264 1.0001264 0 0 0 48.759766 24.349609C48.759766 24.349609 38.329921 12 25 12 z M 25 17C22.2 17 20 19.2 20 22C20 24.8 22.2 27 25 27C27.8 27 30 24.8 30 22C30 19.2 27.8 17 25 17 z M 14.699219 18.199219C8.2992188 21.499219 4.0003906 26.599609 3.9003906 26.599609C3.6003906 26.899609 3.2007813 27.200781 2.8007812 27.300781C6.3007812 30.700781 14.8 38 25 38C35.2 38 43.699219 30.700781 47.199219 27.300781C46.799219 27.200781 46.399609 26.999609 46.099609 26.599609C45.999609 26.499609 41.700781 21.499219 35.300781 18.199219C35.700781 19.399219 36 20.600391 36 21.900391C36 28.000391 31.1 32.900391 25 32.900391C18.9 32.900391 14 28.000391 14 21.900391C14 20.600391 14.199219 19.299219 14.699219 18.199219 z" />
</svg>