<?xml version="1.0" encoding="utf-8"?>
<svg xmlns="http://www.w3.org/2000/svg" viewBox="0 0 50 50" width="515" height="515">
  <path d="M25 5C22.800781 5 21 6.800781 21 9C21 10.414063 21.757813 11.664063 22.875 12.375L15.9375 28.40625L7.125 20.4375C7.660156 19.757813 8 18.925781 8 18C8 15.800781 6.199219 14 4 14C1.800781 14 0 15.800781 0 18C0 20.09375 1.636719 21.808594 3.6875 21.96875L6.875 35L43.125 35L46.28125 21.96875C48.347656 21.820313 50 20.101563 50 18C50 15.800781 48.199219 14 46 14C43.800781 14 42 15.800781 42 18C42 18.925781 42.339844 19.757813 42.875 20.4375L34.0625 28.375L27.125 12.375C28.242188 11.664063 29 10.414063 29 9C29 6.800781 27.199219 5 25 5 Z M 25 7C26.117188 7 27 7.882813 27 9C27 10.117188 26.117188 11 25 11C23.882813 11 23 10.117188 23 9C23 7.882813 23.882813 7 25 7 Z M 4 16C5.117188 16 6 16.882813 6 18C6 19.117188 5.117188 20 4 20C2.882813 20 2 19.117188 2 18C2 16.882813 2.882813 16 4 16 Z M 46 16C47.117188 16 48 16.882813 48 18C48 19.117188 47.117188 20 46 20C44.882813 20 44 19.117188 44 18C44 16.882813 44.882813 16 46 16 Z M 7 37L7 44C7 44.554688 7.449219 45 8 45L42 45C42.554688 45 43 44.554688 43 44L43 37Z" />
</svg>