<?xml version="1.0" encoding="utf-8"?>
<svg xmlns="http://www.w3.org/2000/svg" viewBox="0 0 50 50" width="515" height="515">
  <path d="M14 2C11.242188 2 9 4.242188 9 7C9 9.757813 11.242188 12 14 12C16.757813 12 19 9.757813 19 7C19 4.242188 16.757813 2 14 2 Z M 35 2C32.242188 2 30 4.242188 30 7C30 9.757813 32.242188 12 35 12C37.757813 12 40 9.757813 40 7C40 4.242188 37.757813 2 35 2 Z M 9.5 13C6.460938 13 4 15.460938 4 18.5L4 31.90625C4 32.902344 4.671875 33.808594 5.65625 33.96875C6.910156 34.171875 8 33.214844 8 32L8 22L9 22L9 45.5C9 46.882813 10.117188 48 11.5 48C12.882813 48 14 46.882813 14 45.5L14 33L15 33L15 45.5C15 46.882813 16.117188 48 17.5 48C18.882813 48 20 46.882813 20 45.5L20 38.8125C20.316406 38.925781 20.648438 39 21 39L21 45.5C21 46.867188 22.132813 48 23.5 48L26.5 48C27.867188 48 29 46.867188 29 45.5L29 39C29.765625 39 30.46875 38.699219 31 38.21875L31 46C31 47.105469 31.894531 48 33 48C34.105469 48 35 47.105469 35 46L35 38L31.21875 38C31.476563 37.710938 31.679688 37.371094 31.8125 37L41.75 37C43.109375 37 44.078125 35.667969 43.65625 34.375L39.65625 22.125L40.625 21.8125L43.875 31.78125C44.117188 32.515625 44.789063 33.03125 45.5625 33.03125L45.625 33.03125C46.84375 33.03125 47.695313 31.84375 47.3125 30.6875C45.824219 26.183594 42.6875 16.6875 42.6875 16.6875C42.109375 14.902344 40.589844 13 38 13L32 13C30.679688 13 29.5 13.503906 28.5625 14.5L27.53125 15.71875C26.785156 15.273438 25.929688 15 25 15C24.210938 15 23.476563 15.203125 22.8125 15.53125C22.589844 14.984375 22.253906 14.441406 21.78125 14.09375L21.65625 14C20.734375 13.351563 19.625 13 18.5 13 Z M 25 17C26.667969 17 28 18.332031 28 20C28 21.667969 26.667969 23 25 23C23.332031 23 22 21.667969 22 20C22 18.332031 23.332031 17 25 17 Z M 22 26L28 26C29.117188 26 30 26.882813 30 28L30 36C30 36.566406 29.566406 37 29 37L28 37C27.449219 37 27 37.449219 27 38L27 45.5C27 45.785156 26.785156 46 26.5 46L23.5 46C23.214844 46 23 45.785156 23 45.5L23 38C23 37.449219 22.550781 37 22 37L21 37C20.433594 37 20 36.566406 20 36L20 28C20 26.882813 20.882813 26 22 26 Z M 36 38L36 46C36 47.105469 36.894531 48 38 48C39.105469 48 40 47.105469 40 46L40 38Z" />
</svg>