<?xml version="1.0" encoding="utf-8"?>
<svg xmlns="http://www.w3.org/2000/svg" viewBox="0 0 50 50" width="515" height="515">
  <path d="M22 0C19.757813 0 18 1.757813 18 4L18 20C18 22.242188 19.757813 24 22 24L37.625 24L45.34375 30.75C45.527344 30.910156 45.761719 31 46 31C46.140625 31 46.273438 30.96875 46.40625 30.90625C46.765625 30.746094 47 30.394531 47 30L47 23.875C48.742188 23.441406 50 21.898438 50 20L50 4C50 1.757813 48.242188 0 46 0 Z M 33 6.09375L35.09375 6.09375L37.5 17.59375L35.6875 17.59375L35.09375 14.59375L32.90625 14.59375L32.3125 17.59375L30.5 17.59375 Z M 34 8C33.898438 8.800781 33.695313 9.894531 33.59375 10.59375L33.09375 13.1875L35 13.1875L34.5 10.59375C34.300781 9.894531 34.195313 8.800781 34.09375 8 Z M 4 19C1.757813 19 0 20.757813 0 23L0 39C0 40.894531 1.257813 42.441406 3 42.875L3 49C3 49.394531 3.234375 49.746094 3.59375 49.90625C3.726563 49.96875 3.859375 50 4 50C4.238281 50 4.46875 49.910156 4.65625 49.75L12.375 43L28 43C30.242188 43 32 41.242188 32 39L32 26L22 26C18.636719 26 16 23.363281 16 20L16 19 Z M 15.59375 25C17.992188 25 18.90625 27.585938 18.90625 30.6875C18.90625 33.6875 18.195313 35.398438 17.09375 36L17.09375 36.09375C17.792969 36.394531 18.613281 36.707031 19.3125 36.90625L18.6875 38.3125C17.789063 37.914063 16.605469 37.304688 15.90625 36.90625C15.707031 36.804688 15.507813 36.6875 15.40625 36.6875C13.304688 36.6875 12 34.710938 12 30.8125C12 27.414063 13.292969 25 15.59375 25 Z M 15.5 26.5C14.300781 26.5 13.90625 28.585938 13.90625 30.6875C13.90625 33.085938 14.300781 35.09375 15.5 35.09375C16.601563 35.09375 17 33.085938 17 30.6875C17 28.488281 16.601563 26.5 15.5 26.5Z" />
</svg>