<?xml version="1.0" encoding="utf-8"?>
<svg xmlns="http://www.w3.org/2000/svg" viewBox="0 0 50 50" width="515" height="515">
  <path d="M19 11C15.832031 11 13.0625 11.804688 10.96875 13.621094C9.417969 14.964844 8.335938 16.898438 7.65625 19.292969C7.460938 19.859375 7.296875 20.464844 7.164063 21.105469C6.8125 21.132813 6.46875 21.136719 6.089844 21.242188C5.417969 21.425781 4.703125 21.730469 4.203125 22.398438L4.203125 22.402344C3.117188 23.847656 1.453125 26.34375 1.082031 29.664063C1.03125 30.09375 1 30.539063 1 31C1 32.425781 1.863281 33.546875 2.804688 34.347656C3.601563 35.027344 4.484375 35.507813 5.28125 35.800781C6.050781 38.230469 8.324219 40 11 40C13.601563 40 15.820313 38.324219 16.648438 36L34.351563 36C35.179688 38.324219 37.398438 40 40 40C42.984375 40 45.46875 37.792969 45.921875 34.929688C46.683594 34.816406 47.34375 34.558594 47.863281 34.15625C48.582031 33.59375 49 32.746094 49 31.886719L49 26.851563C49 26.175781 48.738281 25.621094 48.265625 24.925781C47.796875 24.234375 47.085938 23.476563 46.078125 22.765625C44.152344 21.40625 41.050781 20.289063 36.589844 20.082031C35.65625 18.742188 34.722656 17.28125 32.832031 14.445313C32.453125 13.875 32.148438 13.367188 31.734375 12.886719C31.324219 12.40625 30.777344 11.976563 30.074219 11.691406C28.671875 11.121094 26.746094 11 23 11 Z M 19 16L27 16C28.148438 16 28.367188 16.042969 29 17L32 22L19 22 Z M 17 16.078125L17 22L12 22C12.097656 19.265625 13.6875 16.535156 17 16.078125 Z M 21 25L24 25C24.550781 25 25 25.449219 25 26C25 26.550781 24.550781 27 24 27L21 27C20.449219 27 20 26.550781 20 26C20 25.449219 20.449219 25 21 25 Z M 11 30C13.222656 30 15 31.777344 15 34C15 36.222656 13.222656 38 11 38C8.777344 38 7 36.222656 7 34C7 31.777344 8.777344 30 11 30 Z M 40 30C42.222656 30 44 31.777344 44 34C44 36.222656 42.222656 38 40 38C37.777344 38 36 36.222656 36 34C36 31.777344 37.777344 30 40 30Z" />
</svg>