<?xml version="1.0" encoding="utf-8"?>
<svg xmlns="http://www.w3.org/2000/svg" viewBox="0 0 50 50" width="515" height="515">
  <path d="M11.5 0.03125C11.199219 0.03125 10.910156 0.160156 10.71875 0.40625L8.40625 3.40625L4.40625 3.40625C3.855469 3.40625 3.40625 3.855469 3.40625 4.40625L3.40625 8.40625L0.40625 10.71875C0.160156 10.910156 0 11.1875 0 11.5C0 11.511719 0 11.519531 0 11.53125C0 11.542969 0 11.550781 0 11.5625C0 11.875 0.160156 12.152344 0.40625 12.34375L3.40625 14.65625L3.40625 18.65625C3.40625 19.023438 3.613281 19.324219 3.90625 19.5C7.328125 17.972656 12.601563 16.089844 19.59375 14.96875L19.59375 14.65625L22.59375 12.34375C22.839844 12.152344 23 11.875 23 11.5625C23 11.550781 23 11.542969 23 11.53125C23 11.519531 23 11.511719 23 11.5C23 11.1875 22.839844 10.90625 22.59375 10.71875L19.59375 8.40625L19.59375 4.40625C19.59375 3.855469 19.144531 3.40625 18.59375 3.40625L14.59375 3.40625L12.28125 0.40625C12.089844 0.160156 11.800781 0.03125 11.5 0.03125 Z M 11.5 7C13.984375 7 16 9.015625 16 11.5C16 13.984375 13.984375 16 11.5 16C9.015625 16 7 13.984375 7 11.5C7 9.015625 9.015625 7 11.5 7 Z M 31.8125 16C27.472656 16.011719 23.574219 16.390625 20.09375 16.9375C19.636719 17.007813 19.160156 17.046875 18.71875 17.125C18.6875 17.128906 18.65625 17.152344 18.625 17.15625C17.695313 17.324219 16.796875 17.496094 15.9375 17.6875C15.90625 17.695313 15.875 17.710938 15.84375 17.71875C14.988281 17.910156 14.160156 18.105469 13.375 18.3125C13.34375 18.320313 13.3125 18.335938 13.28125 18.34375C12.5 18.550781 11.742188 18.75 11.03125 18.96875C11.011719 18.976563 10.988281 18.992188 10.96875 19C9.78125 19.363281 8.710938 19.753906 7.71875 20.125C7.238281 20.304688 6.777344 20.480469 6.34375 20.65625C6.019531 20.789063 5.675781 20.902344 5.375 21.03125C2.292969 22.355469 0.613281 23.445313 0.4375 23.5625C0.160156 23.746094 0 24.070313 0 24.40625L0 39.21875C0.0859375 39.078125 0.140625 38.992188 0.15625 38.96875C7.429688 27.816406 19.195313 21.292969 26.125 18.21875C27.988281 18.074219 29.945313 18 32 18C32.042969 18 32.082031 18 32.125 18C30.964844 18.375 11.765625 24.816406 1.84375 40.03125C1.449219 40.644531 0.671875 41.9375 0 43.21875L0 49C0 49.554688 0.449219 50 1 50L10.125 50C10.359375 49.261719 10.542969 48.746094 10.5625 48.6875C17.847656 29.957031 29.664063 21.390625 35.6875 18.0625C37.238281 18.101563 38.597656 18.144531 39.9375 18.21875C38.644531 18.71875 21.632813 25.726563 12.4375 49.375C12.4375 49.375 12.34375 49.609375 12.21875 50L23.90625 50C24.078125 49.265625 24.234375 48.769531 24.25 48.71875C30.605469 30.332031 38.714844 21.632813 42.4375 18.375C43.515625 18.453125 44.480469 18.515625 45.3125 18.59375C44.1875 19.386719 33.816406 27.164063 26.15625 49.3125C26.15625 49.3125 26.074219 49.582031 25.96875 50L37 50C37.117188 49.316406 37.207031 48.867188 37.21875 48.8125C41.128906 31.867188 45.703125 22.089844 47.40625 18.8125C47.574219 18.832031 47.863281 18.859375 48 18.875C48 18.875 48.730469 18.988281 49.53125 19.125C48.210938 21.597656 43.25 31.605469 39.1875 49.21875C39.1875 49.222656 39.117188 49.523438 39.03125 50L49 50C49.554688 50 50 49.554688 50 49L50 18C50 17.5 49.617188 17.070313 49.125 17C49.117188 17 48.695313 16.964844 48.46875 16.9375C48.417969 16.929688 48.367188 16.914063 48.3125 16.90625C46.453125 16.679688 40.246094 16 32 16C31.945313 16 31.898438 16 31.84375 16C31.832031 16 31.824219 16 31.8125 16Z" />
</svg>