<?xml version="1.0" encoding="utf-8"?>
<svg xmlns="http://www.w3.org/2000/svg" viewBox="0 0 50 50" width="515" height="515">
  <path d="M18.707031 46.742188C18.550781 46.742188 18.390625 46.707031 18.242188 46.628906C17.816406 46.402344 17.613281 45.910156 17.753906 45.453125L22.773438 29L12.277344 29C11.890625 29 11.542969 28.777344 11.375 28.433594C11.210938 28.085938 11.257813 27.675781 11.496094 27.375L30.546875 3.628906C30.847656 3.257813 31.363281 3.148438 31.785156 3.367188C32.210938 3.585938 32.417969 4.070313 32.289063 4.527344L27.605469 21L37.710938 21C38.09375 21 38.445313 21.21875 38.609375 21.566406C38.777344 21.914063 38.730469 22.324219 38.492188 22.625L19.488281 46.367188C19.292969 46.613281 19.003906 46.742188 18.707031 46.742188Z" />
</svg>