<?xml version="1.0" encoding="utf-8"?>
<svg xmlns="http://www.w3.org/2000/svg" viewBox="0 0 50 50" width="515" height="515">
  <path d="M9.3125 0C6.339844 0 4 2.339844 4 5.3125L4 42L35 42L35 5.3125C35 2.339844 32.660156 0 29.6875 0 Z M 10.90625 5L28.09375 5C29.09375 5 30 5.90625 30 6.90625L30 17.09375C30 18.09375 29.09375 19 28.09375 19L10.90625 19C9.90625 19 9 18.09375 9 17.09375L9 6.90625C9 5.90625 9.90625 5 10.90625 5 Z M 37.71875 5.28125L36.28125 6.71875L42 12.40625L42 20.59375C42 21.730469 42.472656 22.910156 43.28125 23.71875L48 28.40625L48 36C48 38.242188 46.242188 40 44 40C41.757813 40 40 38.242188 40 36L40 31C40 28.34375 38.351563 26.152344 36 25.34375L36 27.53125C37.199219 28.214844 38 29.492188 38 31L38 36C38 39.363281 40.636719 42 44 42C47.363281 42 50 39.363281 50 36L50 19.40625C50 18.269531 49.527344 17.089844 48.71875 16.28125 Z M 3 44C2.449219 44 2 44.445313 2 45L2 49C2 49.554688 2.449219 50 3 50L36 50C36.554688 50 37 49.554688 37 49L37 45C37 44.445313 36.554688 44 36 44Z" />
</svg>