<?xml version="1.0" encoding="utf-8"?>
<svg xmlns="http://www.w3.org/2000/svg" viewBox="0 0 50 50" width="515" height="515">
  <path d="M26 2C13.259016 2 3 12.360055 3 25C3 37.645455 13.354545 48 26 48C35.900347 48 41.951796 43.426386 45.099609 37.773438C48.247423 32.120489 48.63188 25.497876 47.677734 20.992188L47.511719 20.203125L25 20.095703L25 21.099609L25 30.5L36.431641 30.5C34.686862 34.491527 31.232881 37.199219 26 37.199219C19.238813 37.199219 13.699219 31.75985 13.699219 24.900391C13.699219 18.040931 19.22968 12.699219 26 12.699219C29.057576 12.699219 31.818811 13.806864 33.943359 15.654297L34.648438 16.265625L42.253906 8.6601562L41.46875 7.9550781C37.394931 4.2990866 31.95731 2 26 2 z M 26 4C31.058339 4 35.659339 5.8640551 39.28125 8.8046875L34.433594 13.652344C32.068847 11.863757 29.197935 10.699219 26 10.699219C18.17032 10.699219 11.699219 16.95985 11.699219 24.900391C11.699219 32.840931 18.161187 39.199219 26 39.199219C32.587097 39.199219 37.245694 35.247491 38.955078 29.798828L39.361328 28.5L27 28.5L27 22.103516L45.8125 22.195312C46.471442 26.196376 46.036865 31.978427 43.351562 36.800781C40.499376 41.922829 35.299653 46 26 46C14.445455 46 5 36.554545 5 25C5 13.439945 14.340984 4 26 4 z" />
</svg>