<?xml version="1.0" encoding="utf-8"?>
<svg xmlns="http://www.w3.org/2000/svg" viewBox="0 0 50 50" width="515" height="515">
  <path d="M7 4C5.35 4 4 5.35 4 7L4 43C4 44.65 5.35 46 7 46L43 46C44.65 46 46 44.65 46 43L46 7C46 5.35 44.65 4 43 4L7 4 z M 22.5 13C27.74 13 32 17.26 32 22.5C32 24.76 31.210625 26.840703 29.890625 28.470703L37.710938 36.289062L36.289062 37.710938L28.470703 29.890625C26.840703 31.210625 24.76 32 22.5 32C17.26 32 13 27.74 13 22.5C13 17.26 17.26 13 22.5 13 z M 22.5 15 A 7.5 7.5 0 0 0 15 22.5 A 7.5 7.5 0 0 0 22.5 30 A 7.5 7.5 0 0 0 30 22.5 A 7.5 7.5 0 0 0 22.5 15 z" />
</svg>