<?xml version="1.0" encoding="utf-8"?>
<svg xmlns="http://www.w3.org/2000/svg" viewBox="0 0 50 50" width="515" height="515">
  <path d="M21 7C19.347656 7 18 8.347656 18 10L18 15C18 16.652344 19.347656 18 21 18L29 18C30.652344 18 32 16.652344 32 15L32 10C32 8.347656 30.652344 7 29 7 Z M 24 20L24 22L11 22C8.242188 22 6 24.242188 6 27L6 30L8 30L8 27C8 25.347656 9.347656 24 11 24L24 24L24 30L26 30L26 24L39 24C40.652344 24 42 25.347656 42 27L42 30L44 30L44 27C44 24.242188 41.757813 22 39 22L26 22L26 20 Z M 3 32C1.347656 32 0 33.347656 0 35L0 40C0 41.652344 1.347656 43 3 43L11 43C12.652344 43 14 41.652344 14 40L14 35C14 33.347656 12.652344 32 11 32 Z M 21 32C19.347656 32 18 33.347656 18 35L18 40C18 41.652344 19.347656 43 21 43L29 43C30.652344 43 32 41.652344 32 40L32 35C32 33.347656 30.652344 32 29 32 Z M 39 32C37.347656 32 36 33.347656 36 35L36 40C36 41.652344 37.347656 43 39 43L47 43C48.652344 43 50 41.652344 50 40L50 35C50 33.347656 48.652344 32 47 32Z" />
</svg>