<?xml version="1.0" encoding="utf-8"?>
<svg xmlns="http://www.w3.org/2000/svg" viewBox="0 0 50 50" width="515" height="515">
  <path d="M0 5L0 29.585938L11.15625 18.429688L15.460938 24.890625L20.328125 23.914063L24.414063 28L30.320313 28L37.320313 33L50 33L50 5 Z M 37.5 14C39.433594 14 41 15.566406 41 17.5C41 19.433594 39.433594 21 37.5 21C35.566406 21 34 19.433594 34 17.5C34 15.566406 35.566406 14 37.5 14 Z M 10.84375 21.570313L0 32.414063L0 45L50 45L50 35L36.679688 35L29.679688 30L23.585938 30L19.671875 26.085938L14.539063 27.109375Z" />
</svg>