<?xml version="1.0" encoding="utf-8"?>
<svg xmlns="http://www.w3.org/2000/svg" viewBox="0 0 50 50" width="515" height="515">
  <path d="M2.9003906 8C1.3003906 8 -2.9605947e-16 9.3003906 0 10.900391L0 37C0 38.7 1.3 40 3 40L7.0898438 40C7.5640708 42.843668 10.017707 45 13 45C15.982293 45 18.435929 42.843668 18.910156 40L31 40L31 10.900391C31 9.3003906 29.699609 8 28.099609 8L2.9003906 8 z M 33 15L33 40L34.099609 40C34.599609 42.8 37 45 40 45C43 45 45.400391 42.8 45.900391 40L47 40C48.7 40 50 38.7 50 37L50 33L50 27.400391C50 25.400391 48.600391 23.399609 48.400391 23.099609L44.300781 17.599609C43.500781 16.599609 42 15 40 15L34 15L33 15 z M 38 17L40 17C40.8 17 41.799219 17.700781 42.699219 18.800781L46.800781 24.300781C47.100781 24.700781 47.8 26 48 27L39 27C38.6 27 38 26.4 38 26L38 17 z M 13 35C15.27619 35 17 36.72381 17 39C17 41.27619 15.27619 43 13 43C10.72381 43 9 41.27619 9 39C9 36.72381 10.72381 35 13 35 z M 40.105469 35.058594C42.621094 35.080469 44.600391 37.474609 43.900391 40.099609C43.500391 41.399609 42.399609 42.500391 41.099609 42.900391C38.099609 43.700391 35.399219 41 36.199219 38C36.599219 36.7 37.6 35.599219 39 35.199219C39.375 35.099219 39.746094 35.055469 40.105469 35.058594 z" />
</svg>