<?xml version="1.0" encoding="utf-8"?>
<svg xmlns="http://www.w3.org/2000/svg" viewBox="0 0 50 50" width="515" height="515">
  <path d="M38 0L38 4L43.1875 4L34 13.1875L31.40625 10.59375L30 9.15625L28.59375 10.59375L18 21.1875L15.40625 18.59375L14 17.15625L12.59375 18.59375L0.59375 30.59375L3.40625 33.40625L14 22.8125L16.59375 25.40625L18 26.84375L19.40625 25.40625L30 14.8125L32.59375 17.40625L34 18.84375L35.40625 17.40625L46 6.8125L46 12L50 12L50 0 Z M 44 15L44 50L48 50L48 15 Z M 30 20L30 50L34 50L34 20 Z M 37 20L37 50L41 50L41 20 Z M 23 24L23 50L27 50L27 24 Z M 16 30L16 50L20 50L20 30 Z M 9 31L9 50L13 50L13 31 Z M 2 38L2 50L6 50L6 38Z" />
</svg>