<?xml version="1.0" encoding="utf-8"?>
<svg xmlns="http://www.w3.org/2000/svg" viewBox="0 0 50 50" width="515" height="515">
  <path d="M23 0C7.515625 0 2 10.847656 2 21C2 25.265625 3.28125 29.378906 5.6875 32.875C7.863281 36.039063 9 39.589844 9 43.1875L9 50L33 50L33 44.78125L35 44.90625C39.878906 45.355469 44 41.449219 44 36.59375L44 31.8125L47.5 30.0625C48.171875 29.691406 48.640625 29.101563 48.84375 28.375C49.042969 27.652344 48.941406 26.871094 48.5625 26.1875L43.96875 18.28125C42.480469 6.324219 35.234375 0 23 0 Z M 20.5 7L23.5 7L24.09375 10.5C24.992188 10.699219 25.800781 11.101563 26.5 11.5L29.40625 9.40625L31.5 11.5L29.40625 14.5C29.90625 15.300781 30.207031 16.105469 30.40625 16.90625L34 17.5L34 20.5L30.40625 21C30.207031 21.898438 29.804688 22.707031 29.40625 23.40625L31.5 26.3125L29.40625 28.40625L26.40625 26.3125C25.605469 26.710938 24.800781 27.113281 24 27.3125L23.40625 30.90625L20.40625 30.90625L19.8125 27.40625C18.914063 27.207031 18.105469 26.804688 17.40625 26.40625L14.5 28.5L12.40625 26.40625L14.5 23.5C14.101563 22.800781 13.699219 21.992188 13.5 21.09375L10 20.5L10 17.5L13.59375 16.8125C13.792969 15.914063 14.195313 15.105469 14.59375 14.40625L12.5 11.5L14.59375 9.40625L17.5 11.5C18.199219 11 19.007813 10.699219 19.90625 10.5 Z M 22 15C19.800781 15 18 16.800781 18 19C18 21.199219 19.800781 23 22 23C24.199219 23 26 21.199219 26 19C26 16.800781 24.199219 15 22 15Z" />
</svg>