<?xml version="1.0" encoding="utf-8"?>
<svg xmlns="http://www.w3.org/2000/svg" viewBox="0 0 50 50" width="515" height="515">
  <path d="M16 3C9.38 3 4 8.38 4 15L4 35C4 41.62 9.38 47 16 47L36 47C42.62 47 48 41.62 48 35L48 15C48 8.38 42.62 3 36 3L16 3 z M 12.619141 18.070312C13.319141 18.070312 13.839844 18.570469 13.839844 19.230469C13.839844 19.880469 13.319141 20.380859 12.619141 20.380859C11.909141 20.380859 11.390625 19.880469 11.390625 19.230469C11.390625 18.570469 11.909141 18.070312 12.619141 18.070312 z M 23.039062 18.640625C26.689062 18.640625 28.939453 21.189297 28.939453 25.279297C28.939453 29.359297 26.709062 31.929688 23.039062 31.929688C19.349062 31.929688 17.109375 29.369297 17.109375 25.279297C17.109375 21.179297 19.399062 18.640625 23.039062 18.640625 z M 35.970703 18.640625C38.540703 18.640625 40.419062 20.139297 40.539062 22.279297L38.619141 22.279297C38.429141 21.109297 37.419453 20.380859 35.939453 20.380859C34.379453 20.380859 33.349609 21.119531 33.349609 22.269531C33.349609 23.169531 34.009922 23.690078 35.669922 24.080078L37.060547 24.419922C39.670547 25.029922 40.740234 26.080234 40.740234 27.990234C40.740234 30.420234 38.859609 31.939453 35.849609 31.939453C33.039609 31.939453 31.149766 30.490703 31.009766 28.220703L32.960938 28.220703C33.130938 29.420703 34.31 30.189453 36 30.189453C37.58 30.189453 38.740234 29.370234 38.740234 28.240234C38.740234 27.280234 38.010078 26.700781 36.330078 26.300781L34.689453 25.910156C32.399453 25.370156 31.349609 24.260391 31.349609 22.400391C31.349609 20.140391 33.200703 18.640625 35.970703 18.640625 z M 23.039062 20.470703C20.649062 20.470703 19.130859 22.339297 19.130859 25.279297C19.130859 28.209297 20.599062 30.099609 23.039062 30.099609C25.449062 30.099609 26.929688 28.209297 26.929688 25.279297C26.929688 22.339297 25.449063 20.470703 23.039062 20.470703 z M 11.679688 22.060547L13.560547 22.060547L13.560547 31.630859L11.679688 31.630859L11.679688 22.060547 z" />
</svg>