<?xml version="1.0" encoding="utf-8"?>
<svg xmlns="http://www.w3.org/2000/svg" viewBox="0 0 50 50" width="515" height="515">
  <path d="M25 2C12.316406 2 2 12.316406 2 25C2 37.683594 12.316406 48 25 48C37.683594 48 48 37.683594 48 25C48 12.316406 37.683594 2 25 2 Z M 34.742188 31.078125C32.082031 33.742188 28.605469 33.429688 25.21875 31.371094L13.851563 42.765625C11.179688 41.082031 8.917969 38.816406 7.234375 36.144531L18.628906 24.777344C16.570313 21.394531 16.257813 17.914063 18.917969 15.253906C21.355469 12.820313 27.289063 10.078125 30.789063 11.300781L25.511719 16.574219C24.785156 17.300781 24.785156 18.484375 25.511719 19.210938L30.789063 24.484375C31.515625 25.214844 32.695313 25.214844 33.425781 24.484375L38.699219 19.210938C39.917969 22.710938 37.179688 28.644531 34.742188 31.078125Z" />
</svg>