<?xml version="1.0" encoding="utf-8"?>
<svg xmlns="http://www.w3.org/2000/svg" viewBox="0 0 50 50" width="515" height="515">
  <path d="M14.5 0C6.503906 0 0 6.503906 0 14.5C0 22.496094 6.503906 29 14.5 29C22.496094 29 29 22.496094 29 14.5C29 6.503906 22.496094 0 14.5 0 Z M 11.5 7C12.394531 7 13.292969 7.339844 13.972656 8.023438C15.339844 9.390625 15.339844 11.609375 13.972656 12.972656C12.609375 14.339844 10.390625 14.339844 9.023438 12.972656C7.65625 11.609375 7.65625 9.390625 9.023438 8.023438C9.707031 7.339844 10.605469 7 11.5 7 Z M 29.871094 20.453125C28.097656 25.007813 24.375 28.578125 19.722656 30.140625L24.585938 35L29 35L29 40L34 40L34 45L39 45L39 50L46.414063 50L48.5 47.914063L29.585938 29L31 27.585938L49.894531 46.480469L50 46.355469L50 45.941406L47.890625 38.472656Z" />
</svg>