<?xml version="1.0" encoding="utf-8"?>
<svg xmlns="http://www.w3.org/2000/svg" viewBox="0 0 50 50" width="515" height="515">
  <path d="M23 2C9 2 3 11.5 3 22C3 26.199219 4.300781 30.101563 6.5 33.300781C8.699219 36.5 10 40.300781 10 44.199219L10 49L32 49L32 44.699219L35.097656 44.902344C39.398438 45.300781 43 41.898438 43 37.597656L43 32.199219L47 30.199219C47.898438 29.699219 48.199219 28.597656 47.699219 27.699219L43 19.597656C41.898438 10.300781 37 2 23 2 Z M 27 8L29 8L29 10.101563C29.636719 10.230469 30.230469 10.484375 30.753906 10.832031L32.242188 9.34375L33.65625 10.757813L32.167969 12.246094C32.515625 12.769531 32.769531 13.363281 32.898438 14L35 14L35 16L32.898438 16C32.769531 16.636719 32.515625 17.230469 32.167969 17.753906L33.65625 19.242188L32.242188 20.65625L30.753906 19.167969C30.230469 19.515625 29.636719 19.769531 29 19.898438L29 22L27 22L27 19.898438C26.363281 19.769531 25.769531 19.515625 25.246094 19.167969L23.757813 20.65625L22.34375 19.242188L23.832031 17.753906C23.484375 17.230469 23.230469 16.636719 23.101563 16L21 16L21 14L23.101563 14C23.230469 13.363281 23.484375 12.769531 23.832031 12.246094L22.34375 10.757813L23.757813 9.34375L25.246094 10.832031C25.769531 10.484375 26.363281 10.230469 27 10.101563 Z M 28 12C26.34375 12 25 13.34375 25 15C25 16.65625 26.34375 18 28 18C29.65625 18 31 16.65625 31 15C31 13.34375 29.65625 12 28 12 Z M 15 16L17 16L17 18.101563C17.636719 18.230469 18.230469 18.484375 18.753906 18.832031L20.242188 17.34375L21.65625 18.757813L20.167969 20.246094C20.515625 20.769531 20.769531 21.363281 20.898438 22L23 22L23 24L20.898438 24C20.769531 24.636719 20.515625 25.230469 20.167969 25.753906L21.65625 27.242188L20.242188 28.65625L18.753906 27.167969C18.230469 27.515625 17.636719 27.769531 17 27.898438L17 30L15 30L15 27.898438C14.363281 27.769531 13.769531 27.515625 13.246094 27.167969L11.757813 28.65625L10.34375 27.242188L11.832031 25.753906C11.484375 25.230469 11.230469 24.636719 11.101563 24L9 24L9 22L11.101563 22C11.230469 21.363281 11.484375 20.769531 11.832031 20.246094L10.34375 18.757813L11.757813 17.34375L13.246094 18.832031C13.769531 18.484375 14.363281 18.230469 15 18.101563 Z M 16 20C14.34375 20 13 21.34375 13 23C13 24.65625 14.34375 26 16 26C17.65625 26 19 24.65625 19 23C19 21.34375 17.65625 20 16 20Z" />
</svg>