<?xml version="1.0" encoding="utf-8"?>
<svg xmlns="http://www.w3.org/2000/svg" viewBox="0 0 50 50" width="515" height="515">
  <path d="M46.5 2.5C44.566406 2.5 43 4.066406 43 6C43 6.277344 43.035156 6.554688 43.09375 6.8125L35.78125 13.59375C35.53125 13.539063 35.265625 13.5 35 13.5C34.492188 13.5 34 13.617188 33.5625 13.8125L28.46875 10.75C28.339844 8.933594 26.847656 7.5 25 7.5C23.066406 7.5 21.5 9.066406 21.5 11C21.5 11.074219 21.527344 11.144531 21.53125 11.21875L15.96875 15.65625C15.664063 15.570313 15.335938 15.5 15 15.5C13.277344 15.5 11.855469 16.734375 11.5625 18.375L5.5625 21.15625C4.988281 20.738281 4.265625 20.5 3.5 20.5C1.566406 20.5 0 22.066406 0 24C0 25.933594 1.566406 27.5 3.5 27.5C5.097656 27.5 6.425781 26.433594 6.84375 24.96875L13.25 22.03125C13.761719 22.328125 14.367188 22.5 15 22.5C16.933594 22.5 18.5 20.933594 18.5 19C18.5 18.925781 18.472656 18.855469 18.46875 18.78125L24.03125 14.34375C24.335938 14.429688 24.664063 14.5 25 14.5C25.5 14.5 25.976563 14.375 26.40625 14.1875L31.53125 17.25C31.660156 19.066406 33.152344 20.5 35 20.5C36.933594 20.5 38.5 18.933594 38.5 17C38.5 16.84375 38.488281 16.683594 38.46875 16.53125L46.125 9.46875C46.246094 9.480469 46.375 9.5 46.5 9.5C48.433594 9.5 50 7.933594 50 6C50 4.066406 48.433594 2.5 46.5 2.5 Z M 46.5 28.5C44.566406 28.5 43 30.066406 43 32C43 32.285156 43.027344 32.578125 43.09375 32.84375L35.78125 39.59375C35.53125 39.539063 35.265625 39.5 35 39.5C34.789063 39.5 34.574219 39.527344 34.375 39.5625L28.4375 33.625C28.472656 33.425781 28.5 33.210938 28.5 33C28.5 31.066406 26.933594 29.5 25 29.5C23.066406 29.5 21.5 31.066406 21.5 33C21.5 33.074219 21.527344 33.144531 21.53125 33.21875L16 37.65625C15.683594 37.5625 15.34375 37.5 15 37.5C14 37.5 13.105469 37.921875 12.46875 38.59375L6.75 37.6875C6.234375 36.398438 4.972656 35.5 3.5 35.5C1.566406 35.5 0 37.066406 0 39C0 40.933594 1.566406 42.5 3.5 42.5C4.394531 42.5 5.195313 42.144531 5.8125 41.59375L11.875 42.53125C12.441406 43.699219 13.617188 44.5 15 44.5C16.933594 44.5 18.5 42.933594 18.5 41C18.5 40.925781 18.472656 40.855469 18.46875 40.78125L24.03125 36.34375C24.335938 36.429688 24.664063 36.5 25 36.5C25.210938 36.5 25.425781 36.472656 25.625 36.4375L31.5625 42.375C31.527344 42.574219 31.5 42.789063 31.5 43C31.5 44.933594 33.066406 46.5 35 46.5C36.933594 46.5 38.5 44.933594 38.5 43C38.5 42.84375 38.488281 42.683594 38.46875 42.53125L46.15625 35.46875C46.269531 35.480469 46.382813 35.5 46.5 35.5C48.433594 35.5 50 33.933594 50 32C50 30.066406 48.433594 28.5 46.5 28.5Z" />
</svg>