<?xml version="1.0" encoding="utf-8"?>
<svg xmlns="http://www.w3.org/2000/svg" viewBox="0 0 50 50" width="515" height="515">
  <path d="M37.03125 1.988281C36.667969 1.980469 36.324219 2.171875 36.140625 2.484375C36.140625 2.484375 33.523438 7 27 7C26.640625 6.996094 26.304688 7.183594 26.121094 7.496094C25.941406 7.808594 25.941406 8.191406 26.121094 8.503906C26.304688 8.816406 26.640625 9.003906 27 9C34.476563 9 37.859375 3.515625 37.859375 3.515625C38.046875 3.210938 38.054688 2.828125 37.886719 2.511719C37.714844 2.199219 37.390625 1.996094 37.03125 1.988281 Z M 28 2C24.085938 2 21.554688 4.214844 20.859375 4.863281C20.207031 4.566406 18.824219 4 17 4C13.554688 4 11.292969 6.292969 11.292969 6.292969C11.03125 6.542969 10.925781 6.917969 11.019531 7.265625C11.109375 7.617188 11.382813 7.890625 11.734375 7.980469C12.082031 8.074219 12.457031 7.96875 12.707031 7.707031C12.707031 7.707031 14.445313 6 17 6C18.667969 6 20.550781 6.894531 20.550781 6.894531L21.199219 7.21875L21.707031 6.707031C21.707031 6.707031 24.5 4 28 4C28.359375 4.003906 28.695313 3.816406 28.878906 3.503906C29.058594 3.191406 29.058594 2.808594 28.878906 2.496094C28.695313 2.183594 28.359375 1.996094 28 2 Z M 38 9.734375L28 17.511719L28 25L15.9375 25L14.9375 10L8.0625 10L7.0625 25L2 25L2 48L48 48L48 17.511719 Z M 33 23L35 23L35 27L33 27 Z M 37 23L39 23L39 27L37 27 Z M 41 23L43 23L43 27L41 27 Z M 7 30L11 30L11 32L7 32 Z M 13 30L17 30L17 32L13 32 Z M 19 30L23 30L23 32L19 32 Z M 25 30L29 30L29 32L25 32 Z M 33 30L35 30L35 34L33 34 Z M 37 30L39 30L39 34L37 34 Z M 41 30L43 30L43 34L41 34 Z M 33 37L35 37L35 41L33 41 Z M 37 37L39 37L39 41L37 41 Z M 41 37L43 37L43 41L41 41Z" />
</svg>