<?xml version="1.0" encoding="utf-8"?>
<svg xmlns="http://www.w3.org/2000/svg" viewBox="0 0 50 50" width="515" height="515">
  <path d="M0.96875 2C0.800781 2.007813 0.617188 2.066406 0.46875 2.15625C0.175781 2.339844 0 2.652344 0 3L0 41C0 41.378906 0.222656 41.734375 0.5625 41.90625L12 47.625L12 7.375L1.4375 2.09375C1.28125 2.015625 1.136719 1.992188 0.96875 2 Z M 49.03125 2C48.859375 1.996094 48.6875 2.039063 48.53125 2.125L39 7.3125L39 47.59375L49.46875 41.875C49.789063 41.699219 50 41.367188 50 41L50 3C50 2.648438 49.800781 2.304688 49.5 2.125C49.347656 2.035156 49.203125 2.003906 49.03125 2 Z M 24 2.375L14 7.375L14 47.625L24 42.625 Z M 26 2.375L26 42.5625L37 47.625L37 7.4375Z" />
</svg>