<?xml version="1.0" encoding="utf-8"?>
<svg xmlns="http://www.w3.org/2000/svg" viewBox="0 0 50 50" width="515" height="515">
  <path d="M3 1C1.898438 1 1 1.898438 1 3L1 24L24 24L24 1 Z M 26 1L26 24L49 24L49 3C49 1.898438 48.101563 1 47 1 Z M 13 7C13.550781 7 14 7.449219 14 8L14 12L18 12C18.550781 12 19 12.449219 19 13C19 13.550781 18.550781 14 18 14L14 14L14 18C14 18.550781 13.550781 19 13 19C12.449219 19 12 18.550781 12 18L12 14L8 14C7.449219 14 7 13.550781 7 13C7 12.449219 7.449219 12 8 12L12 12L12 8C12 7.449219 12.449219 7 13 7 Z M 33 12L43 12C43.554688 12 44 12.449219 44 13C44 13.550781 43.554688 14 43 14L33 14C32.445313 14 32 13.550781 32 13C32 12.449219 32.445313 12 33 12 Z M 1 26L1 47C1 48.101563 1.898438 49 3 49L24 49L24 26 Z M 26 26L26 49L47 49C48.101563 49 49 48.101563 49 47L49 26 Z M 9.46875 33.46875C9.722656 33.46875 9.960938 33.554688 10.15625 33.75L13 36.59375L15.84375 33.75C16.234375 33.359375 16.859375 33.359375 17.25 33.75C17.640625 34.140625 17.640625 34.765625 17.25 35.15625L14.40625 38L17.25 40.84375C17.640625 41.234375 17.640625 41.859375 17.25 42.25C17.054688 42.445313 16.789063 42.53125 16.53125 42.53125C16.273438 42.53125 16.039063 42.445313 15.84375 42.25L13 39.40625L10.15625 42.25C9.960938 42.445313 9.726563 42.53125 9.46875 42.53125C9.210938 42.53125 8.945313 42.445313 8.75 42.25C8.359375 41.859375 8.359375 41.234375 8.75 40.84375L11.59375 38L8.75 35.15625C8.359375 34.765625 8.359375 34.140625 8.75 33.75C8.945313 33.554688 9.214844 33.46875 9.46875 33.46875 Z M 33 34L43 34C43.554688 34 44 34.445313 44 35C44 35.554688 43.554688 36 43 36L33 36C32.445313 36 32 35.554688 32 35C32 34.445313 32.445313 34 33 34 Z M 33 40L43 40C43.554688 40 44 40.445313 44 41C44 41.554688 43.554688 42 43 42L33 42C32.445313 42 32 41.554688 32 41C32 40.445313 32.445313 40 33 40Z" />
</svg>