<?xml version="1.0" encoding="utf-8"?>
<svg xmlns="http://www.w3.org/2000/svg" viewBox="0 0 50 50" width="515" height="515">
  <path d="M25 0C17.296875 0 15.898438 2.171875 15.65625 2.84375C15.628906 2.917969 15.601563 3.015625 15.59375 3.09375L14.4375 13.28125C15.96875 12.613281 18.066406 12.699219 20.78125 12.84375C22.042969 12.910156 23.472656 13 25 13C26.523438 13 27.957031 12.910156 29.21875 12.84375C31.929688 12.699219 34.03125 12.613281 35.5625 13.28125L34.40625 3.09375C34.398438 3.015625 34.371094 2.917969 34.34375 2.84375C34.101563 2.171875 32.699219 0 25 0 Z M 24 4L26 4L26 7L29 7L29 9L26 9L26 12L24 12L24 9L21 9L21 7L24 7 Z M 18.65625 14.75C16.78125 14.695313 15.34375 14.816406 14.65625 15.46875C14.207031 15.898438 14 16.664063 14 17.8125C14 23.878906 18.933594 28.8125 25 28.8125C31.066406 28.8125 36 23.878906 36 17.8125C36 16.664063 35.792969 15.898438 35.34375 15.46875C34.429688 14.601563 32.160156 14.695313 29.3125 14.84375C28.027344 14.910156 26.578125 15 25 15C23.421875 15 21.972656 14.910156 20.6875 14.84375C19.976563 14.804688 19.28125 14.769531 18.65625 14.75 Z M 25 29.8125C22.757813 29.8125 20.527344 30.015625 18.40625 30.40625L25 46.40625L31.6875 30.4375C29.53125 30.03125 27.28125 29.8125 25 29.8125 Z M 16.4375 30.84375C8.300781 32.820313 2 37.347656 2 42.09375L2 50L25 50C24.597656 50 24.214844 49.75 24.0625 49.375 Z M 25 50L48 50L48 42.09375C48 37.371094 41.769531 32.835938 33.6875 30.84375L25.9375 49.375C25.78125 49.746094 25.402344 50 25 50Z" />
</svg>