<?xml version="1.0" encoding="utf-8"?>
<svg xmlns="http://www.w3.org/2000/svg" viewBox="0 0 50 50" width="515" height="515">
  <path d="M38.652344 41.585938L50.0625 41.585938L49.996094 40.527344C49.6875 35.320313 45.554688 33.6875 42.234375 32.378906C40.390625 31.648438 38.644531 30.960938 38.136719 29.851563C38.058594 28.914063 38.066406 28.183594 38.074219 27.34375L38.074219 27.003906C38.871094 26.171875 39.589844 24.535156 39.875 23.164063C40.488281 22.816406 41.222656 22.015625 41.445313 20.171875C41.554688 19.246094 41.296875 18.523438 40.929688 18.03125C41.433594 16.289063 42.398438 11.988281 40.664063 9.199219C39.925781 8.011719 38.816406 7.257813 37.355469 6.957031C36.519531 5.941406 34.96875 5.390625 32.898438 5.390625C30.523438 5.4375 28.628906 6.015625 27.234375 7.089844C26.605469 6.6875 25.890625 6.394531 25.070313 6.234375C24.125 5.039063 22.316406 4.390625 19.886719 4.390625C16.203125 4.460938 13.511719 5.585938 11.878906 7.734375C9.945313 10.28125 9.585938 14.144531 10.808594 19.21875C10.359375 19.769531 10.027344 20.617188 10.160156 21.730469C10.425781 23.9375 11.28125 24.835938 12.003906 25.195313C12.347656 26.925781 13.292969 28.875 14.210938 29.792969L14.214844 30.261719C14.222656 31.273438 14.230469 32.15625 14.132813 33.292969C13.523438 34.699219 11.484375 35.5 9.136719 36.425781C5.226563 37.960938 0.363281 39.871094 0 45.941406L-0.0625 47L40.0625 47L40 45.941406C39.890625 44.160156 39.390625 42.746094 38.652344 41.585938 Z M 2.128906 45C2.882813 41.03125 6.429688 39.640625 9.867188 38.285156C12.609375 37.210938 15.195313 36.191406 16.058594 33.878906L16.117188 33.617188C16.234375 32.3125 16.226563 31.308594 16.214844 30.242188L16.210938 29.316406L16.230469 28.722656L15.695313 28.441406C15.257813 28.144531 14.085938 26.128906 13.894531 24.324219L13.804688 23.5L12.980469 23.433594C12.851563 23.421875 12.335938 23.0625 12.148438 21.492188C12.050781 20.6875 12.445313 20.402344 12.445313 20.402344L13.082031 20.015625L12.894531 19.296875C11.679688 14.625 11.882813 11.046875 13.476563 8.945313C14.71875 7.304688 16.890625 6.445313 19.90625 6.390625C21.785156 6.390625 23.171875 6.859375 23.621094 7.644531L23.863281 8.074219L24.351563 8.140625C25.6875 8.328125 26.636719 8.894531 27.25 9.882813C28.785156 12.355469 27.894531 16.921875 27.128906 19.230469L26.917969 19.980469L27.558594 20.402344C27.5625 20.402344 27.953125 20.6875 27.855469 21.492188C27.667969 23.0625 27.152344 23.421875 27.023438 23.433594L26.199219 23.503906L26.109375 24.324219C25.917969 26.136719 24.78125 28.152344 24.382813 28.433594L23.847656 28.714844L23.84375 30.246094C23.832031 31.3125 23.824219 32.3125 23.941406 33.617188L24 33.878906C24.859375 36.191406 27.4375 37.207031 30.167969 38.285156C32.125 39.058594 34.113281 39.847656 35.601563 41.117188C35.703125 41.277344 35.839844 41.410156 36.011719 41.492188C36.921875 42.386719 37.59375 43.515625 37.878906 45Z" />
</svg>