<?xml version="1.0" encoding="utf-8"?>
<svg xmlns="http://www.w3.org/2000/svg" viewBox="0 0 50 50" width="515" height="515">
  <path d="M25.5 0C23.015625 0 21 2.015625 21 4.5C21 6.984375 23.015625 9 25.5 9C27.984375 9 30 6.984375 30 4.5C30 2.015625 27.984375 0 25.5 0 Z M 14.09375 7.8125C9.75 7.8125 5.875 9.875 3.6875 13.3125C2.796875 14.714844 2.757813 16.480469 3.625 18.0625C4.261719 19.222656 5.277344 20.089844 6.375 20.5C6.898438 19.070313 7.777344 18.042969 8.21875 17.53125L8.3125 17.40625C8.6875 16.964844 9.066406 16.511719 9.46875 16.03125C10.507813 14.789063 11.703125 13.390625 13.28125 11.59375L13.3125 11.53125C14.546875 10.125 15.660156 8.890625 16.78125 8.0625C15.902344 7.890625 14.988281 7.8125 14.09375 7.8125 Z M 19.625 9C18.210938 9 16.703125 10.71875 14.78125 12.90625C12.605469 15.382813 11.183594 17.136719 9.84375 18.71875C9.328125 19.324219 7.6875 21.074219 8 23.375C8.3125 25.675781 10.808594 26.753906 13 27.46875C15.230469 28.195313 19.84375 29.75 19.84375 29.75C19.84375 29.75 24.082031 38.679688 24.65625 39.78125C25.230469 40.882813 26.074219 42.371094 27.65625 41.75C29.238281 41.128906 29.011719 39.449219 28.53125 38.09375C28.003906 36.609375 25.359375 29.65625 24.75 28.1875C24.007813 26.390625 23.8125 26.253906 21.78125 25.1875C19.777344 24.136719 16.21875 22.71875 16.21875 22.71875C16.21875 22.71875 21.46875 16.9375 21.78125 16.59375C22.308594 16.019531 22.949219 15.742188 23.6875 15.9375C24.597656 16.175781 33.773438 18.894531 34.9375 19.28125C36.664063 19.855469 38.339844 19.746094 38.8125 18.84375C39.339844 17.835938 39.167969 16.8125 37.34375 16C35.636719 15.242188 26.019531 11.53125 24.4375 10.8125C22.621094 9.988281 21.0625 9 19.625 9 Z M 40 22C34.488281 22 30 26.488281 30 32C30 37.511719 34.488281 42 40 42C45.511719 42 50 37.511719 50 32C50 26.488281 45.511719 22 40 22 Z M 40 24C44.429688 24 48 27.570313 48 32C48 36.429688 44.429688 40 40 40C35.570313 40 32 36.429688 32 32C32 27.570313 35.570313 24 40 24 Z M 10 30C4.488281 30 0 34.488281 0 40C0 45.511719 4.488281 50 10 50C15.511719 50 20 45.511719 20 40C20 34.488281 15.511719 30 10 30 Z M 10 32C14.429688 32 18 35.570313 18 40C18 44.429688 14.429688 48 10 48C5.570313 48 2 44.429688 2 40C2 35.570313 5.570313 32 10 32Z" />
</svg>