<?xml version="1.0" encoding="utf-8"?>
<svg xmlns="http://www.w3.org/2000/svg" viewBox="0 0 50 50" width="515" height="515">
  <path d="M25 2C23.35499 2 22 3.3549904 22 5C22 6.2931586 22.84267 7.3951413 24 7.8125L24 15L26 15L26 7.8125C27.15733 7.3951413 28 6.2931586 28 5C28 3.3549904 26.64501 2 25 2 z M 25 4C25.564129 4 26 4.4358706 26 5C26 5.5641294 25.564129 6 25 6C24.435871 6 24 5.5641294 24 5C24 4.4358706 24.435871 4 25 4 z M 7 11C5.3549904 11 4 12.35499 4 14C4 15.64501 5.3549904 17 7 17C7.6391535 17 8.2315812 16.791955 8.7207031 16.445312L14 19.863281L14 18C14 17.857 14.023969 17.718078 14.042969 17.580078L9.8710938 14.816406C9.9466233 14.554795 10 14.284463 10 14C10 12.35499 8.6450096 11 7 11 z M 43 11C41.35499 11 40 12.35499 40 14C40 14.285114 40.053043 14.556215 40.128906 14.818359L35.957031 17.582031C35.976031 17.719031 36 17.857 36 18L36 19.863281L41.279297 16.445312C41.768419 16.791955 42.360846 17 43 17C44.64501 17 46 15.64501 46 14C46 12.35499 44.64501 11 43 11 z M 7 13C7.5641294 13 8 13.435871 8 14C8 14.564129 7.5641294 15 7 15C6.4358706 15 6 14.564129 6 14C6 13.435871 6.4358706 13 7 13 z M 43 13C43.564129 13 44 13.435871 44 14C44 14.564129 43.564129 15 43 15C42.435871 15 42 14.564129 42 14C42 13.435871 42.435871 13 43 13 z M 17 17C16.448 17 16 17.448 16 18L16 32C16 32.553 16.448 33 17 33L33 33C33.553 33 34 32.553 34 32L34 18C34 17.448 33.553 17 33 17L17 17 z M 23 21L27 21C27.553 21 28 21.448 28 22C28 22.552 27.553 23 27 23L23 23C22.448 23 22 22.552 22 22C22 21.448 22.448 21 23 21 z M 14 30.136719L8.7207031 33.554688C8.2315812 33.208045 7.6391535 33 7 33C5.3549904 33 4 34.35499 4 36C4 37.64501 5.3549904 39 7 39C8.6450096 39 10 37.64501 10 36C10 35.714886 9.9469567 35.443785 9.8710938 35.181641L14.042969 32.417969C14.023969 32.280969 14 32.143 14 32L14 30.136719 z M 36 30.136719L36 32C36 32.143 35.976031 32.281922 35.957031 32.419922L40.128906 35.183594C40.053377 35.445205 40 35.715537 40 36C40 37.64501 41.35499 39 43 39C44.64501 39 46 37.64501 46 36C46 34.35499 44.64501 33 43 33C42.360846 33 41.768419 33.208045 41.279297 33.554688L36 30.136719 z M 7 35C7.5641294 35 8 35.435871 8 36C8 36.564129 7.5641294 37 7 37C6.4358706 37 6 36.564129 6 36C6 35.435871 6.4358706 35 7 35 z M 24 35L24 42.1875C22.84267 42.604859 22 43.706841 22 45C22 46.64501 23.35499 48 25 48C26.64501 48 28 46.64501 28 45C28 43.706841 27.15733 42.604859 26 42.1875L26 35L24 35 z M 43 35C43.564129 35 44 35.435871 44 36C44 36.564129 43.564129 37 43 37C42.435871 37 42 36.564129 42 36C42 35.435871 42.435871 35 43 35 z M 25 44C25.564129 44 26 44.435871 26 45C26 45.564129 25.564129 46 25 46C24.435871 46 24 45.564129 24 45C24 44.435871 24.435871 44 25 44 z" />
</svg>