<?xml version="1.0" encoding="utf-8"?>
<svg xmlns="http://www.w3.org/2000/svg" viewBox="0 0 50 50" width="515" height="515">
  <path d="M24.199219 3C23.299219 3 22.399609 3.3992187 21.599609 4.1992188L9.9003906 15.800781C9.3003906 16.400781 9 17.499219 9 18.199219L9 31.699219C9 32.499219 9.3003906 33.499609 9.9003906 34.099609L21.5 45.699219C22.6 46.799219 23.499219 47 24.199219 47C25.899219 47 27 45.500781 27 43.300781L27 6.3007812C27 4.0007813 25.499219 3 24.199219 3 z M 3 15.900391C1.3 15.900391 0 17.300391 0 18.900391L0 30.900391C0 32.600391 1.4 33.900391 3 33.900391L7.5 33.900391C7.2 33.300391 7 32.400781 7 31.800781L7 18.199219C7 17.499219 7.1 16.700391 7.5 15.900391L3 15.900391 z M 30.636719 18.398438 A 1.0001 1.0001 0 0 0 30.466797 20.373047C32.508799 20.863127 34 22.744444 34 25C34 27.255556 32.525832 29.049798 30.429688 29.636719 A 1.0001 1.0001 0 1 0 30.96875 31.5625C33.872604 30.749421 36 28.144444 36 25C36 21.855556 33.891592 19.137654 30.933594 18.427734 A 1.0001 1.0001 0 0 0 30.636719 18.398438 z" />
</svg>