<?xml version="1.0" encoding="utf-8"?>
<svg xmlns="http://www.w3.org/2000/svg" viewBox="0 0 50 50" width="515" height="515">
  <path d="M29.1875 1.25C28.941406 1.238281 28.671875 1.296875 28.46875 1.46875L25.75 3.78125L33.0625 12L33.75 12L36.8125 8.9375L35.9375 8L40.59375 8L34.59375 14L32.125 14C32.101563 13.96875 32.085938 13.933594 32.0625 13.90625L22.8125 3.5C22.628906 3.292969 22.371094 3.164063 22.09375 3.15625C21.800781 3.144531 21.566406 3.273438 21.375 3.46875L18.875 6L15.46875 6C15.25 6 15.019531 6.085938 14.84375 6.21875L4.40625 14.21875C4.390625 14.230469 4.359375 14.238281 4.34375 14.25C4.328125 14.265625 4.328125 14.265625 4.3125 14.28125C4.292969 14.300781 4.265625 14.324219 4.25 14.34375C4.210938 14.390625 4.1875 14.449219 4.15625 14.5C4.144531 14.519531 4.105469 14.542969 4.09375 14.5625L0.09375 22.5625C-0.0976563 22.949219 -0.0234375 23.414063 0.28125 23.71875C0.472656 23.910156 0.742188 24 1 24C1.152344 24 1.296875 23.976563 1.4375 23.90625L4 22.625L4 43C4 43.554688 4.449219 44 5 44L35 44C35.148438 44 35.28125 43.964844 35.40625 43.90625C35.441406 43.890625 35.46875 43.863281 35.5 43.84375C35.589844 43.789063 35.683594 43.734375 35.75 43.65625C35.761719 43.644531 35.769531 43.636719 35.78125 43.625L43.78125 33.625C43.921875 33.445313 44 33.226563 44 33L44 26.28125L41.09375 29.3125C40.902344 29.511719 40.648438 29.625 40.375 29.625C40.339844 29.625 40.285156 29.628906 40.25 29.625C39.9375 29.589844 39.660156 29.394531 39.5 29.125L34 19.90625L34 42L6 42L6 16L34 16L40.53125 26.96875L49.71875 17.71875C50.042969 17.394531 50.082031 16.894531 49.84375 16.5L43.84375 6.5C43.835938 6.484375 43.824219 6.453125 43.8125 6.4375C43.785156 6.390625 43.753906 6.351563 43.71875 6.3125C43.710938 6.304688 43.726563 6.289063 43.71875 6.28125C43.703125 6.265625 43.671875 6.265625 43.65625 6.25C43.621094 6.21875 43.601563 6.183594 43.5625 6.15625C43.554688 6.152344 43.539063 6.160156 43.53125 6.15625C43.5 6.136719 43.46875 6.109375 43.4375 6.09375C43.40625 6.078125 43.375 6.074219 43.34375 6.0625C43.289063 6.042969 43.246094 6.042969 43.1875 6.03125C43.167969 6.027344 43.144531 6.003906 43.125 6C43.109375 5.996094 43.078125 6.003906 43.0625 6C43.035156 6 43.027344 6 43 6L34.0625 6L29.84375 1.5625C29.660156 1.367188 29.433594 1.261719 29.1875 1.25 Z M 15.8125 8L16.9375 8L11.03125 14L7.96875 14 Z M 15 20C14.449219 20 14 20.449219 14 21C14 21.550781 14.449219 22 15 22L25 22C25.550781 22 26 21.550781 26 21C26 20.449219 25.550781 20 25 20Z" />
</svg>