<?xml version="1.0" encoding="utf-8"?>
<svg xmlns="http://www.w3.org/2000/svg" viewBox="0 0 50 50" width="515" height="515">
  <path d="M6 4L6 8L2 8L2 43L3 43C15.613281 43 24.507813 46.875 24.59375 46.914063L25 47.09375L25.40625 46.914063C25.492188 46.875 34.386719 43 47 43L48 43L48 8L44 8L44 4L43 4C33.160156 4 25.640625 7.621094 25 7.9375C24.359375 7.621094 16.839844 4 7 4 Z M 8 6.089844C16.246094 6.324219 22.652344 9.046875 24 9.65625L24 40.503906C21.871094 39.585938 15.886719 37.300781 8 37.089844 Z M 42 6.089844L42 37.089844C34.113281 37.300781 28.128906 39.585938 26 40.503906L26 9.65625C27.347656 9.046875 33.753906 6.324219 42 6.089844Z" />
</svg>