<?xml version="1.0" encoding="utf-8"?>
<svg xmlns="http://www.w3.org/2000/svg" viewBox="0 0 50 50" width="515" height="515">
  <path d="M40 4L10 4C8.347656 4 7 5.347656 7 7L7 45C7 45.554688 7.449219 46 8 46L42 46C42.554688 46 43 45.554688 43 45L43 7C43 5.347656 41.652344 4 40 4 Z M 18 41L12 41L12 36L18 36 Z M 18 32L12 32L12 27L18 27 Z M 18 23L12 23L12 18L18 18 Z M 18 14L12 14L12 9L18 9 Z M 28 44L22 44L22 36L28 36 Z M 28 32L22 32L22 27L28 27 Z M 28 23L22 23L22 18L28 18 Z M 28 14L22 14L22 9L28 9 Z M 38 41L32 41L32 36L38 36 Z M 38 32L32 32L32 27L38 27 Z M 38 23L32 23L32 18L38 18 Z M 38 14L32 14L32 9L38 9Z" />
</svg>