<?xml version="1.0" encoding="utf-8"?>
<svg xmlns="http://www.w3.org/2000/svg" viewBox="0 0 50 50" width="515" height="515">
  <path d="M35.8125 2C35.5625 2 35.292969 2.113281 35.09375 2.3125L9.09375 28.3125C8.992188 28.414063 8.90625 28.488281 8.90625 28.6875L2.09375 46.6875C1.894531 46.988281 2.011719 47.386719 2.3125 47.6875C2.511719 47.886719 2.699219 48 3 48C3.101563 48 3.207031 48.007813 3.40625 47.90625L21.40625 41.09375C21.507813 40.992188 21.710938 41.007813 21.8125 40.90625L23.40625 39.3125L47.6875 15C47.886719 14.699219 48 14.488281 48 14.1875C48 13.886719 47.886719 13.699219 47.6875 13.5L36.5 2.3125C36.300781 2.113281 36.0625 2 35.8125 2 Z M 11.09375 29.1875C11.59375 30.1875 11.398438 31.289063 11 32.1875C10.800781 32.585938 11.007813 33.113281 11.40625 33.3125C11.804688 33.613281 12.292969 33.511719 12.59375 33.3125C13.292969 32.8125 15.894531 31.605469 17.09375 32.90625C18.292969 34.105469 17.3125 36.605469 16.8125 37.40625C16.511719 37.707031 16.511719 38.195313 16.8125 38.59375C17.113281 38.894531 17.507813 39.101563 17.90625 39C19.207031 38.601563 20.207031 38.800781 20.90625 39L20.5 39.40625L9.375 43.5625L6.5 40.59375L10.6875 29.59375Z" />
</svg>