<?xml version="1.0" encoding="utf-8"?>
<svg xmlns="http://www.w3.org/2000/svg" viewBox="0 0 50 50" width="515" height="515">
  <path d="M32 2.03125C31.898438 2.03125 31.789063 2.042969 31.6875 2.09375L16.6875 7.09375C16.289063 7.195313 16 7.601563 16 8L16 14.09375L16.8125 14.09375C18.710938 14.09375 20.488281 14.804688 21.6875 15.90625C21.789063 15.90625 21.804688 16 21.90625 16L21.90625 12L29.90625 12L29.90625 16L22.3125 16C23.511719 16.398438 24.488281 17.09375 25.1875 18.09375C25.386719 18.394531 25.585938 18.699219 25.6875 19L30 19L30 23L26.59375 23C26.59375 24.101563 26.511719 25.101563 26.3125 26L30 26L30 30L26.40625 30C26.105469 31.300781 25.507813 32.210938 24.90625 32.8125C24.90625 32.914063 24.8125 32.898438 24.8125 33L30 33L30 37L23.40625 37C24.007813 37.300781 24.707031 37.613281 25.40625 37.8125C28.105469 38.8125 31.90625 40.199219 33.40625 44L47 44C47.601563 44 48 43.601563 48 43L48 8C48 7.601563 47.710938 7.195313 47.3125 7.09375L32.3125 2.09375C32.210938 2.042969 32.101563 2.03125 32 2.03125 Z M 34 12L42 12L42 16L34 16 Z M 16.6875 16C13.988281 16.101563 11.988281 16.898438 10.6875 18.5C9.289063 20.398438 9.011719 23.3125 9.8125 26.8125C9.511719 27.210938 9.1875 27.886719 9.1875 28.6875C9.488281 30.289063 10.210938 31.3125 10.8125 31.8125C11.210938 33.3125 12.199219 34.585938 13 35.1875L13 36.5L13.40625 36.6875C14.40625 37.289063 16.207031 38 16.90625 38C17.605469 38 19.40625 37.1875 20.40625 36.6875L20.8125 36.5L20.8125 35.3125C21.710938 34.613281 22.605469 33.3125 22.90625 31.8125C23.507813 31.3125 24.3125 30.292969 24.3125 29.09375C24.3125 28.292969 24.113281 27.601563 23.8125 27C24.210938 25.601563 25.105469 21.710938 23.40625 19.3125C22.90625 18.613281 22.09375 17.886719 20.59375 17.6875C19.792969 16.6875 18.289063 16 16.6875 16 Z M 34 19L42 19L42 23L34 23 Z M 34 26L42 26L42 30L34 30 Z M 34 33L42 33L42 37L34 37 Z M 12.40625 38.3125C11.707031 38.8125 10.605469 39.1875 9.40625 39.6875C6.304688 40.886719 2.394531 42.300781 2.09375 47C2.09375 47.300781 2.207031 47.488281 2.40625 47.6875C2.507813 47.886719 2.699219 48 3 48L15 48L15 47C15 44.101563 16.59375 41.5 16.59375 41.5L15.8125 39.8125C14.511719 39.414063 12.894531 38.605469 12.59375 38.40625 Z M 21.6875 38.3125L21.5 38.40625C21.101563 38.605469 19.585938 39.414063 18.1875 39.8125L17.40625 41.5C17.40625 41.5 19.09375 44.101563 19.09375 47L19.09375 48L31.09375 48C31.394531 48 31.613281 47.886719 31.8125 47.6875C32.011719 47.488281 32.09375 47.199219 32.09375 47C31.695313 42.300781 27.789063 40.789063 24.6875 39.6875C23.488281 39.289063 22.386719 38.8125 21.6875 38.3125Z" />
</svg>