<?xml version="1.0" encoding="utf-8"?>
<svg xmlns="http://www.w3.org/2000/svg" viewBox="0 0 50 50" width="515" height="515">
  <path d="M0 4L0 46L50 46L50 4 Z M 2 6L48 6L48 44L2 44 Z M 4 8L4 30.6875L17.3125 18.28125C17.507813 18.097656 17.769531 17.972656 18.03125 18C18.296875 18.011719 18.570313 18.117188 18.75 18.3125L29.03125 29.5625L33.28125 25.28125C33.671875 24.890625 34.328125 24.890625 34.71875 25.28125L46 36.59375L46 8 Z M 35 15C36.65625 15 38 16.34375 38 18C38 19.65625 36.65625 21 35 21C33.34375 21 32 19.65625 32 18C32 16.34375 33.34375 15 35 15 Z M 17.9375 20.40625L4 33.4375L4 42L46 42L46 39.40625L34 27.40625L26.40625 35L23.59375 35L27.625 30.96875Z" />
</svg>