<?xml version="1.0" encoding="utf-8"?>
<svg xmlns="http://www.w3.org/2000/svg" viewBox="0 0 50 50" width="515" height="515">
  <path d="M9.875 0.0625C9.617188 0.0976563 9.378906 0.230469 9.21875 0.4375C6.585938 3.582031 5 7.644531 5 12.0625C5 16.429688 6.542969 20.433594 9.125 23.5625C9.480469 23.992188 10.117188 24.058594 10.546875 23.703125C10.976563 23.347656 11.042969 22.710938 10.6875 22.28125C8.390625 19.496094 7 15.957031 7 12.0625C7 8.125 8.40625 4.515625 10.75 1.71875C11.027344 1.40625 11.082031 0.957031 10.886719 0.585938C10.691406 0.21875 10.289063 0.0078125 9.875 0.0625 Z M 39.8125 0.0625C39.453125 0.128906 39.160156 0.378906 39.042969 0.726563C38.925781 1.070313 39.003906 1.449219 39.25 1.71875C41.59375 4.515625 43 8.125 43 12.0625C43 15.957031 41.609375 19.496094 39.3125 22.28125C38.957031 22.710938 39.023438 23.347656 39.453125 23.703125C39.882813 24.058594 40.519531 23.992188 40.875 23.5625C43.457031 20.433594 45 16.429688 45 12.0625C45 7.644531 43.414063 3.582031 40.78125 0.4375C40.570313 0.171875 40.242188 0.03125 39.90625 0.0625C39.875 0.0625 39.84375 0.0625 39.8125 0.0625 Z M 15.6875 3.34375C15.429688 3.378906 15.191406 3.511719 15.03125 3.71875C13.140625 5.976563 12 8.890625 12 12.0625C12 15.234375 13.140625 18.148438 15.03125 20.40625C15.253906 20.707031 15.621094 20.855469 15.988281 20.800781C16.355469 20.742188 16.660156 20.488281 16.78125 20.136719C16.902344 19.785156 16.816406 19.394531 16.5625 19.125C14.960938 17.214844 14 14.753906 14 12.0625C14 9.371094 14.960938 6.914063 16.5625 5C16.839844 4.6875 16.894531 4.238281 16.699219 3.867188C16.503906 3.5 16.101563 3.289063 15.6875 3.34375 Z M 34 3.34375C33.640625 3.410156 33.347656 3.660156 33.230469 4.007813C33.113281 4.351563 33.191406 4.730469 33.4375 5C35.039063 6.914063 36 9.371094 36 12.0625C36 14.753906 35.039063 17.214844 33.4375 19.125C33.183594 19.394531 33.097656 19.785156 33.21875 20.136719C33.339844 20.488281 33.644531 20.742188 34.011719 20.800781C34.378906 20.855469 34.746094 20.707031 34.96875 20.40625C36.859375 18.148438 38 15.234375 38 12.0625C38 8.890625 36.859375 5.976563 34.96875 3.71875C34.757813 3.453125 34.429688 3.3125 34.09375 3.34375C34.0625 3.34375 34.03125 3.34375 34 3.34375 Z M 25 8C22.789063 8 21 9.789063 21 12C21 13.324219 21.632813 14.492188 22.625 15.21875L10.5 47.28125C10.113281 48.316406 10.636719 49.472656 11.671875 49.859375C12.707031 50.246094 13.863281 49.722656 14.25 48.6875L15.53125 45.34375L32.6875 40.5625L35.75 48.6875C36.136719 49.722656 37.292969 50.246094 38.328125 49.859375C39.363281 49.472656 39.886719 48.316406 39.5 47.28125L27.375 15.21875C28.367188 14.492188 29 13.324219 29 12C29 9.789063 27.210938 8 25 8 Z M 25 20.3125L27.5625 27.0625L21.59375 29.3125 Z M 28.96875 30.78125L30.5625 35.03125L24.1875 32.625 Z M 19.40625 35.09375L27.03125 37.96875L17.28125 40.6875Z" />
</svg>