<?xml version="1.0" encoding="utf-8"?>
<svg xmlns="http://www.w3.org/2000/svg" viewBox="0 0 50 50" width="515" height="515">
  <path d="M32 5C29 5 26.59375 7.199219 26.09375 10C28.09375 10 29.914063 10.800781 31.3125 12L31.3125 10.3125L30.09375 10.3125L31.59375 8.8125L32.8125 8.8125L32.8125 13.3125L32.5 13.3125C33.199219 14.3125 33.699219 15.488281 34 16.6875C36.398438 15.886719 38.09375 13.699219 38.09375 11C37.992188 7.699219 35.300781 5 32 5 Z M 26 11C22.101563 11 19 14.101563 19 18C19 21.898438 22.101563 25 26 25C29.898438 25 33 21.898438 33 18C33 14.101563 29.898438 11 26 11 Z M 25.5 15.3125L26.90625 15.3125L26.90625 20.6875L25.09375 20.6875L25.09375 17.09375L23.6875 17.09375 Z M 13.40625 25C10.90625 25 8.699219 25.894531 0.5 29.59375C0 29.792969 -0.199219 30.40625 0 30.90625L5.3125 42.6875C5.414063 42.988281 5.707031 43.210938 5.90625 43.3125C6.207031 43.414063 6.488281 43.289063 6.6875 43.1875L9.40625 41.40625C10.605469 40.605469 11.085938 40.511719 12.6875 41.3125L14.8125 42.40625C17.3125 43.707031 20.6875 45.5 21.6875 46C23.289063 46.800781 24.585938 47.09375 25.6875 47.09375C27.6875 47.09375 28.988281 46.300781 30.1875 45.5C31.386719 44.699219 46.011719 35.210938 47.3125 34.3125C48.914063 33.210938 49.90625 31.90625 49.90625 30.90625C50.007813 28.105469 47.304688 27.40625 44.90625 28.90625L34.1875 36.09375C32.488281 37.09375 31 37 30 37L24 37C21.300781 37 18.007813 36 17.90625 36C17.605469 35.898438 17.492188 35.605469 17.59375 35.40625C17.695313 35.105469 17.886719 34.992188 18.1875 35.09375L18.3125 35.09375C18.613281 35.195313 21.914063 36.09375 24.3125 36.09375L30 36.09375C30.800781 36.09375 31.414063 35.894531 31.8125 35.59375C32.210938 35.292969 32.488281 34.992188 32.6875 34.59375C32.6875 34.492188 32.8125 34.507813 32.8125 34.40625L32.8125 34.3125C32.914063 34.011719 32.90625 33.800781 32.90625 33.5C32.90625 32.300781 31.90625 31.101563 29.90625 31C28.304688 30.898438 26.113281 30.5 24.3125 30C23.3125 29.699219 22.585938 29.386719 22.1875 29.1875C21.886719 28.988281 21.585938 28.710938 21.1875 28.3125C19.988281 27.011719 18.207031 25 13.40625 25 Z M 35.09375 25C33.992188 25 32.8125 25.394531 31.8125 26.09375C31.113281 26.492188 28.113281 28.398438 26.3125 29.5C27.613281 29.800781 29 30 30 30C30.699219 30 31.40625 30.207031 31.90625 30.40625L38.40625 26C38.40625 26 36.894531 25 35.09375 25 Z M 41.6875 26.09375C40.6875 26.09375 39.511719 26.492188 37.8125 27.59375L32.8125 31C33.613281 31.699219 34 32.601563 34 33.5C34 34.101563 33.804688 34.804688 33.40625 35.40625L33.5 35.3125L33.59375 35.1875L44.59375 27.90625C44.292969 26.605469 42.6875 26.09375 41.6875 26.09375Z" />
</svg>