<?xml version="1.0" encoding="utf-8"?>
<svg xmlns="http://www.w3.org/2000/svg" viewBox="0 0 50 50" width="515" height="515">
  <path d="M20 3C14.486 3 10 7.486 10 13L10 33.171875L6.4140625 29.585938 A 2.0002 2.0002 0 0 0 4.9785156 28.980469 A 2.0002 2.0002 0 0 0 3.5859375 32.414062L10.585938 39.414062 A 2.0002 2.0002 0 0 0 13.414062 39.414062L20.414062 32.414062 A 2.0002 2.0002 0 1 0 17.585938 29.585938L14 33.171875L14 13C14 9.691 16.691 7 20 7L30.46875 7L30.734375 3L20 3 z M 37.970703 10 A 2.0002 2.0002 0 0 0 36.585938 10.585938L29.585938 17.585938 A 2.0002 2.0002 0 1 0 32.414062 20.414062L36 16.828125L36 37C36 40.309 33.309 43 30 43L19.509766 43L19.255859 47L30 47C35.514 47 40 42.514 40 37L40 16.828125L43.585938 20.414062 A 2.0002 2.0002 0 1 0 46.414062 17.585938L39.414062 10.585938 A 2.0002 2.0002 0 0 0 37.970703 10 z" />
</svg>