<?xml version="1.0" encoding="utf-8"?>
<svg xmlns="http://www.w3.org/2000/svg" viewBox="0 0 50 50" width="515" height="515">
  <path d="M24.878906 4.3007812C21.193906 4.3837813 18.500047 5.5094375 16.873047 7.6484375C14.947047 10.182437 14.585875 14.065312 15.796875 19.195312C15.383875 19.726312 15.012375 20.576328 15.109375 21.736328C15.405375 23.895328 16.225531 24.785391 16.894531 25.150391C17.202531 26.900391 18.049391 28.825094 18.900391 29.746094L18.900391 33.308594C18.289391 34.683594 16.300766 35.479484 14.009766 36.396484C10.145766 37.942484 5.3359531 39.866312 5.0019531 45.945312L4.9433594 47L26.402344 47L27.917969 41.65625L28.195312 41.378906C28.338313 41.169906 28.466031 41.006625 28.582031 40.890625L33.898438 35.533203C32.525438 34.910203 31.443 34.241828 31 33.298828L31 29.746094C31.846 28.830094 32.690953 26.919734 33.001953 25.177734C33.713953 24.827734 34.591875 23.936594 34.796875 21.683594C34.891875 20.557594 34.580297 19.729312 34.154297 19.195312C35.003297 16.467312 35.748172 11.793266 33.951172 8.8222656C33.099172 7.4132656 31.799031 6.5285469 30.082031 6.1855469C29.116031 4.9655469 27.300906 4.3007812 24.878906 4.3007812 z M 24.900391 6.2988281C26.791391 6.2988281 28.152719 6.7755156 28.636719 7.6035156L28.880859 8.0214844L29.359375 8.0898438C30.691375 8.2778438 31.633234 8.8554219 32.240234 9.8574219C33.688234 12.252422 32.926594 16.734109 32.058594 19.162109L31.742188 19.986328L32.535156 20.382812C32.624156 20.445812 32.864688 20.790813 32.804688 21.507812C32.669687 22.987812 32.199609 23.382391 32.099609 23.400391L31.189453 23.400391L31.103516 24.306641C30.922516 26.202641 29.865906 28.159641 29.503906 28.431641L29 28.71875L29 33.498047C28.982 33.872047 27.536 34.998047 25 34.998047C22.511 34.999047 21 33.958 21 33.5C21 33.348 20.961391 33.207125 20.900391 33.078125L20.900391 29.300781L20.919922 28.732422L20.416016 28.443359C20.035016 28.159359 18.975922 26.200688 18.794922 24.304688L18.78125 23.408203L17.873047 23.408203C17.731047 23.353203 17.283703 22.879578 17.095703 21.517578C17.026703 20.678578 17.454125 20.332031 17.453125 20.332031L18.044922 19.939453L17.869141 19.253906C16.656141 14.470906 16.858797 10.973375 18.466797 8.859375C19.705797 7.229375 21.877391 6.3668281 24.900391 6.2988281 z M 45.900391 28C44.900391 28 43.999219 28.399609 43.199219 29.099609L43 29.199219L42.900391 29.300781L42.599609 29.599609L41.900391 30.300781L41.699219 30.5L30 42.300781C29.9 42.400781 29.799219 42.599219 29.699219 42.699219L28 48.699219C27.8 49.199219 28.099219 49.800391 28.699219 49.900391C28.899219 50.000391 29.099219 50.000391 29.199219 49.900391L35.199219 48.300781C35.399219 48.300781 35.499219 48.2 35.699219 48L48.5 35.199219L48.800781 35C50.400781 33.4 50.400781 30.799219 48.800781 29.199219C48.000781 28.299219 46.900391 28 45.900391 28 z M 43.099609 31.900391L46.099609 34.900391L35.199219 45.800781L32.199219 42.900391L43.099609 31.900391 z" />
</svg>