<?xml version="1.0" encoding="utf-8"?>
<svg xmlns="http://www.w3.org/2000/svg" viewBox="0 0 50 50" width="515" height="515">
  <path d="M25 1 A 2.0002 2.0002 0 1 0 25 5C36.118033 5 45 13.97989 45 25C45 36.02011 36.118033 45 25 45C13.871038 45 5 36.128962 5 25C5 19.959871 6.8890005 15.319498 10 11.796875L10 17 A 2.0002 2.0002 0 1 0 14 17L14 7 A 2.0002 2.0002 0 0 0 12 5L2 5 A 2.0002 2.0002 0 1 0 2 9L7.1386719 9C3.316396 13.254863 1 18.890139 1 25C1 38.271038 11.728962 49 25 49C38.281967 49 49 38.17989 49 25C49 11.82011 38.281967 1 25 1 z" />
</svg>