<?xml version="1.0" encoding="utf-8"?>
<svg xmlns="http://www.w3.org/2000/svg" viewBox="0 0 50 50" width="515" height="515">
  <path d="M38 2C37.746094 2 37.476563 2.085938 37.28125 2.28125L25 14.59375L17.71875 7.28125C17.328125 6.890625 16.671875 6.890625 16.28125 7.28125C15.890625 7.671875 15.890625 8.328125 16.28125 8.71875L22.5625 15L6 15C2.691406 15 0 17.691406 0 21L0 44C0 47.308594 2.691406 50 6 50L44 50C47.308594 50 50 47.308594 50 44L50 21C50 17.691406 47.308594 15 44 15L27.4375 15L38.71875 3.71875C39.109375 3.328125 39.109375 2.671875 38.71875 2.28125C38.523438 2.085938 38.253906 2 38 2 Z M 20.5 19C34.953125 19 37 19.039063 37 32.5C37 45.960938 34.8125 46 20.5 46C6.121094 46 4 45.855469 4 32.5C4 19.148438 6.121094 19 20.5 19 Z M 43 26C44.105469 26 45 26.894531 45 28C45 29.105469 44.105469 30 43 30C41.894531 30 41 29.105469 41 28C41 26.894531 41.894531 26 43 26 Z M 43 35C44.105469 35 45 35.894531 45 37C45 38.105469 44.105469 39 43 39C41.894531 39 41 38.105469 41 37C41 35.894531 41.894531 35 43 35Z" />
</svg>