<?xml version="1.0" encoding="utf-8"?>
<svg xmlns="http://www.w3.org/2000/svg" viewBox="0 0 50 50" width="515" height="515">
  <path d="M11.316406 3.007813C10.707031 3.046875 10.050781 3.265625 9.425781 3.703125C9.359375 3.746094 2.917969 8.414063 3 11.035156C3.238281 18.519531 10.523438 27.328125 16.59375 33.402344C22.664063 39.46875 31.46875 46.753906 38.984375 47L39.03125 47C41.632813 47 46.242188 40.636719 46.285156 40.574219C46.808594 39.828125 47.058594 38.972656 46.984375 38.164063C46.914063 37.363281 46.546875 36.675781 45.976563 36.277344C45.296875 35.800781 37.917969 30.894531 37.019531 30.34375C36.140625 29.804688 34.851563 29.890625 33.570313 30.566406C32.847656 30.949219 30.636719 32.207031 29.605469 32.796875C28.695313 32.160156 26.476563 30.472656 23 26.996094C19.519531 23.519531 17.832031 21.296875 17.199219 20.390625C17.789063 19.359375 19.046875 17.148438 19.425781 16.425781C20.113281 15.125 20.195313 13.824219 19.640625 12.957031C19.113281 12.117188 14.230469 4.71875 13.714844 4.003906C13.238281 3.34375 12.335938 2.933594 11.316406 3.007813 Z M 25 5L25 7C34.925781 7 43 15.074219 43 25L45 25C45 13.972656 36.027344 5 25 5 Z M 25 10.542969L25 12.542969C31.871094 12.542969 37.457031 18.132813 37.457031 25L39.457031 25C39.457031 17.027344 32.972656 10.542969 25 10.542969 Z M 25 16L25 18C28.859375 18 32 21.140625 32 25L34 25C34 20.035156 29.960938 16 25 16Z" />
</svg>