<?xml version="1.0" encoding="utf-8"?>
<svg xmlns="http://www.w3.org/2000/svg" viewBox="0 0 50 50" width="515" height="515">
  <path d="M49.03125 0.96875L47.96875 1C47.664063 1.003906 40.5 1.15625 33.53125 4.625C31.011719 5.882813 28.785156 7.496094 26.90625 9.375C21.1875 15.09375 9.972656 29.332031 9.5 29.9375L9.375 30.0625L9.3125 30.25C9.152344 30.773438 8.9375 32.808594 13.0625 36.9375C16.21875 40.09375 18.175781 40.75 19.25 40.75C19.492188 40.75 19.652344 40.71875 19.75 40.6875L19.9375 40.625L20.09375 40.5C20.703125 40.019531 35.070313 28.648438 40.625 23.09375C42.496094 21.21875 44.089844 18.988281 45.34375 16.46875C48.796875 9.511719 48.992188 2.335938 49 2.03125 Z M 34 12C36.210938 12 38 13.789063 38 16C38 18.210938 36.210938 20 34 20C31.789063 20 30 18.210938 30 16C30 13.789063 31.789063 12 34 12 Z M 9 20C8.703125 20 8.410156 20.117188 8.21875 20.34375L3.21875 26.34375C3 26.609375 2.957031 26.984375 3.0625 27.3125C3.167969 27.640625 3.414063 27.886719 3.75 27.96875L7.6875 28.96875L7.8125 28.84375L7.90625 28.6875C8.148438 28.378906 11.203125 24.496094 14.90625 20 Z M 8 33.59375L7.15625 35C6.589844 36 7.523438 37.710938 9.90625 40.09375C11.851563 42.039063 13.304688 43 14.34375 43C14.65625 43 14.859375 42.925781 15 42.84375L16.40625 42C14.96875 41.292969 13.398438 40.085938 11.65625 38.34375C9.785156 36.46875 8.648438 34.90625 8 33.59375 Z M 30 35.0625C25.515625 38.761719 21.625 41.847656 21.3125 42.09375L21.1875 42.1875L21.03125 42.3125L22.03125 46.25C22.113281 46.585938 22.359375 46.832031 22.6875 46.9375C22.789063 46.96875 22.894531 47 23 47C23.230469 47 23.441406 46.933594 23.625 46.78125L29.625 41.78125C29.851563 41.589844 30 41.296875 30 41 Z M 6.40625 38.21875C4.773438 39.472656 3.296875 39.632813 1.96875 40.9375C1.304688 41.589844 0.777344 42.515625 0.46875 43.78125C0.160156 45.046875 0.03125 46.679688 0.03125 48.96875L0.03125 49.96875L1.03125 49.96875C5.625 49.96875 7.871094 49.242188 9.21875 47.875C10.566406 46.507813 10.789063 44.984375 11.8125 43.59375L10.1875 42.40625C8.890625 44.171875 8.601563 45.636719 7.78125 46.46875C7.058594 47.203125 5.449219 47.742188 2.125 47.875C2.175781 46.421875 2.246094 45.027344 2.4375 44.25C2.6875 43.238281 2.992188 42.75 3.375 42.375C4.136719 41.625 5.628906 41.289063 7.59375 39.78125Z" />
</svg>