<?xml version="1.0" encoding="utf-8"?>
<svg xmlns="http://www.w3.org/2000/svg" viewBox="0 0 50 50" width="515" height="515">
  <path d="M24.984375 4C14.675781 4 7.601563 5.628906 3.9375 8.859375C2.257813 10.34375 3.34375 16.554688 3.351563 16.613281C3.671875 18.3125 5.09375 19.164063 6.230469 18.972656C6.617188 18.910156 8.15625 18.519531 10.464844 17.929688C11.589844 17.640625 12.585938 17.386719 12.910156 17.3125C13.796875 17.113281 14.546875 16.304688 14.921875 15.160156C15.085938 14.671875 16.027344 12.460938 16.726563 10.847656C17.789063 10.59375 20.734375 10 25 10L25.003906 10C29.265625 10 32.210938 10.59375 33.273438 10.84375C33.972656 12.460938 34.914063 14.671875 35.074219 15.15625C35.457031 16.324219 36.214844 17.128906 37.105469 17.316406C37.433594 17.386719 38.507813 17.667969 39.691406 17.972656C41.890625 18.539063 43.363281 18.914063 43.78125 18.980469C43.878906 18.992188 43.972656 19 44.074219 19C45.140625 19 46.355469 18.15625 46.644531 16.621094C46.65625 16.558594 47.742188 10.347656 46.058594 8.859375L46.042969 8.84375C42.398438 5.628906 35.320313 4 25 4 Z M 18 15C17.445313 15 17 15.449219 17 16L17 18.566406C15.988281 19.535156 12.691406 22.75 8.742188 27.347656C5.632813 30.96875 4.992188 34.597656 5 37.003906C5.007813 38.875 5.972656 44.902344 6.015625 45.15625C6.089844 45.644531 6.507813 46 7 46L12 46C12.554688 46 13 45.550781 13 45L13 44L37 44L37 45C37 45.550781 37.445313 46 38 46L43 46C43.492188 46 43.910156 45.644531 43.984375 45.15625C44.027344 44.902344 44.996094 38.886719 45 37C45.003906 34.589844 44.359375 30.957031 41.257813 27.347656C37.308594 22.75 34.011719 19.535156 33 18.566406L33 16C33 15.449219 32.554688 15 32 15L29 15C28.445313 15 28 15.449219 28 16L28 18L22 18L22 16C22 15.449219 21.554688 15 21 15 Z M 17 25L21 25L21 27L17 27 Z M 23 25L27 25L27 27L23 27 Z M 29 25L33 25L33 27L29 27 Z M 17 29L21 29L21 31L17 31 Z M 23 29L27 29L27 31L23 31 Z M 29 29L33 29L33 31L29 31 Z M 17 33L21 33L21 35L17 35 Z M 23 33L27 33L27 35L23 35 Z M 29 33L33 33L33 35L29 35Z" />
</svg>