<?xml version="1.0" encoding="utf-8"?>
<svg xmlns="http://www.w3.org/2000/svg" viewBox="0 0 50 50" width="515" height="515">
  <path d="M25 2C23.894531 2 23 2.894531 23 4L23 7.210938C21.433594 6.199219 19.53125 4.785156 17.21875 4.25C16.316406 4.039063 15.40625 3.980469 14.519531 4C13.636719 4.019531 12.78125 4.117188 11.980469 4.210938C11.265625 4.300781 10.613281 4.371094 10.019531 4.417969L10 4.375L9.980469 4.421875C9.253906 4.476563 8.628906 4.492188 8.226563 4.398438C7.6875 4.273438 7.152344 4.609375 7.023438 5.144531C6.898438 5.683594 7.234375 6.222656 7.773438 6.347656C8.214844 6.449219 8.671875 6.476563 9.132813 6.480469L1.921875 23.996094L2.070313 24.371094C2.070313 24.371094 4.332031 30 10 30C15.667969 30 17.925781 24.371094 17.925781 24.371094L18.078125 23.996094L10.816406 6.359375C11.28125 6.304688 11.738281 6.253906 12.21875 6.195313C13.785156 6.007813 15.390625 5.878906 16.765625 6.195313C18.644531 6.632813 20.511719 8.027344 22.269531 9.125C22.488281 9.257813 22.75 9.304688 23 9.253906L23 42L27 42L27 10.371094C27.128906 10.410156 27.265625 10.425781 27.398438 10.410156C29.496094 10.210938 31.847656 9.75 33.765625 10.199219C35.175781 10.523438 36.5625 11.285156 37.886719 12.0625C38.390625 12.363281 38.875 12.648438 39.359375 12.925781L31.921875 30.996094L32.074219 31.371094C32.074219 31.371094 34.332031 37 40 37C45.667969 37 47.925781 31.371094 47.925781 31.371094L48.078125 30.996094L40.964844 13.710938C41.230469 13.8125 41.496094 13.910156 41.773438 13.972656C42.3125 14.101563 42.847656 13.765625 42.972656 13.226563C43.101563 12.6875 42.765625 12.152344 42.226563 12.027344C41.441406 11.84375 40.257813 11.140625 38.90625 10.34375C37.550781 9.542969 36 8.660156 34.21875 8.25C32.957031 7.953125 31.683594 7.953125 30.484375 8.046875C29.289063 8.140625 28.164063 8.328125 27.207031 8.421875C27.136719 8.425781 27.066406 8.441406 27 8.460938L27 4C27 2.894531 26.105469 2 25 2 Z M 10 9.625L15.886719 23.917969C15.878906 23.929688 15.847656 23.984375 15.84375 24L4.15625 24C4.152344 23.984375 4.121094 23.929688 4.117188 23.917969 Z M 40 16.625L45.886719 30.917969C45.878906 30.929688 45.847656 30.984375 45.84375 31L34.15625 31C34.152344 30.984375 34.121094 30.929688 34.113281 30.917969 Z M 16 44C14.34375 44 13 45.34375 13 47L13 48L37 48L37 47C37 45.34375 35.65625 44 34 44Z" />
</svg>