<?xml version="1.0" encoding="utf-8"?>
<svg xmlns="http://www.w3.org/2000/svg" viewBox="0 0 50 50" width="515" height="515">
  <path d="M23.59375 2C23.113281 2 22.699219 2.34375 22.609375 2.820313L22.078125 5.726563C21.578125 5.882813 21.09375 6.078125 20.625 6.316406L18.238281 4.59375C17.84375 4.308594 17.300781 4.347656 16.953125 4.695313L14.816406 6.800781C14.472656 7.140625 14.421875 7.679688 14.699219 8.078125L16.375 10.503906C16.132813 10.972656 15.929688 11.457031 15.765625 11.953125L12.859375 12.421875C12.378906 12.5 12.023438 12.914063 12.019531 13.402344L12 16.402344C11.996094 16.886719 12.34375 17.304688 12.820313 17.390625L15.734375 17.921875C15.890625 18.417969 16.089844 18.898438 16.324219 19.363281L14.59375 21.761719C14.308594 22.15625 14.347656 22.703125 14.691406 23.050781L16.800781 25.183594C17.140625 25.527344 17.679688 25.578125 18.078125 25.300781L20.53125 23.609375C21 23.847656 21.480469 24.046875 21.972656 24.207031L22.46875 27.148438C22.550781 27.628906 22.964844 27.980469 23.449219 27.984375L26.449219 28L26.453125 28C26.941406 28 27.359375 27.648438 27.441406 27.167969L27.9375 24.230469C28.425781 24.074219 28.902344 23.878906 29.359375 23.644531L31.800781 25.378906C32.195313 25.660156 32.734375 25.617188 33.082031 25.277344L35.214844 23.167969C35.5625 22.824219 35.609375 22.277344 35.328125 21.878906L33.597656 19.449219C33.835938 18.992188 34.035156 18.519531 34.195313 18.03125L37.148438 17.53125C37.628906 17.449219 37.980469 17.035156 37.984375 16.550781L38 13.550781C38.003906 13.0625 37.652344 12.644531 37.167969 12.5625L34.238281 12.066406C34.085938 11.574219 33.886719 11.09375 33.65625 10.628906L35.378906 8.199219C35.660156 7.804688 35.617188 7.261719 35.277344 6.917969L33.171875 4.785156C32.824219 4.433594 32.277344 4.390625 31.878906 4.671875L29.476563 6.382813C29.015625 6.140625 28.539063 5.9375 28.046875 5.777344L27.578125 2.859375C27.5 2.378906 27.085938 2.023438 26.597656 2.019531L23.597656 2 Z M 24.960938 11.03125C25.996094 11.03125 27.03125 11.425781 27.816406 12.222656C29.375 13.800781 29.363281 16.34375 27.785156 17.902344C27.003906 18.675781 25.984375 19.0625 24.964844 19.0625C23.925781 19.0625 22.890625 18.664063 22.105469 17.871094C20.546875 16.292969 20.5625 13.75 22.140625 12.1875C22.921875 11.414063 23.941406 11.03125 24.960938 11.03125 Z M 14.421875 28C12.097656 28 11 28.445313 9.839844 28.917969L9.3125 29.128906C6.898438 30.066406 2.742188 32.023438 2.566406 32.109375C2.066406 32.34375 1.851563 32.9375 2.085938 33.4375C2.324219 33.9375 6.773438 43.808594 7.003906 44.167969C7.300781 44.632813 7.917969 44.765625 8.382813 44.46875L10.851563 42.890625C11.882813 42.242188 12.285156 42.074219 13.765625 42.828125L15.757813 43.84375C18.011719 44.992188 21.101563 46.566406 22.078125 47.03125C23.546875 47.734375 24.769531 48 25.816406 48C27.628906 48 28.90625 47.207031 30.015625 46.523438C30.253906 46.375 30.492188 46.226563 30.734375 46.089844C32.429688 45.125 44.28125 37.386719 45.523438 36.523438C46.980469 35.511719 47.804688 34.441406 47.96875 33.347656C48.082031 32.601563 47.964844 31.867188 47.09375 31.28125C45.953125 30.515625 44.109375 31.667969 44.109375 31.667969L34.8125 37.769531C34.3125 39.453125 32.746094 41 29.5 41L24.25 41C22.167969 41 19.375 40.390625 18.128906 40.09375C18.101563 40.085938 17.746094 40 17.746094 40C17.316406 39.886719 17 39.496094 17 39.03125C17 38.480469 17.449219 38.03125 18 38.03125C18.097656 38.03125 18.277344 38.070313 18.277344 38.070313C19.191406 38.296875 22.179688 39 24.25 39L29.5 39C31.796875 39 33 38.0625 33 36.5C33 35.066406 31.859375 34 29.5 34C27.550781 34 25.25 33.640625 23.015625 33.035156C21.539063 32.636719 20.308594 29.53125 17.625 28.445313C17.402344 28.355469 16.386719 28 14.421875 28 Z M 34.5625 28.019531C33.292969 28.019531 32.015625 28.507813 31.300781 28.925781C31.144531 29.023438 28.5625 30.628906 26.664063 31.8125C27.546875 31.925781 28.476563 32 29.5 32C30.109375 32 30.640625 32.074219 31.144531 32.183594L36.453125 28.890625C36.570313 28.8125 36.730469 28.726563 36.910156 28.636719C36.324219 28.292969 35.550781 28.019531 34.5625 28.019531 Z M 40.507813 29.378906C40.359375 29.378906 40.203125 29.386719 40.035156 29.402344C39.398438 29.460938 38.667969 29.875 38.667969 29.875L33.355469 33.167969C34.117188 33.765625 34.601563 34.535156 34.828125 35.363281L40.894531 31.386719L42.625 30.25C42.535156 30.148438 42.433594 30.050781 42.320313 29.957031C42.304688 29.941406 42.289063 29.929688 42.269531 29.917969C42.160156 29.828125 42.027344 29.746094 41.886719 29.671875C41.859375 29.660156 41.832031 29.648438 41.800781 29.636719C41.652344 29.566406 41.484375 29.507813 41.296875 29.464844C41.265625 29.457031 41.230469 29.453125 41.199219 29.445313C40.996094 29.40625 40.773438 29.378906 40.519531 29.378906C40.515625 29.378906 40.511719 29.378906 40.507813 29.378906Z" />
</svg>