<?xml version="1.0" encoding="utf-8"?>
<svg xmlns="http://www.w3.org/2000/svg" viewBox="0 0 50 50" width="515" height="515">
  <path d="M22.199219 2 A 1.0001 1.0001 0 0 0 21.214844 2.8339844L20.205078 8.796875C19.01608 9.1476749 17.903339 9.6072866 16.835938 10.173828L11.875 6.6816406 A 1.0001 1.0001 0 0 0 10.59375 6.7929688L6.6933594 10.693359 A 1.0001 1.0001 0 0 0 6.5820312 11.974609L10.076172 16.939453C9.5032306 17.983292 9.0447681 19.109183 8.6992188 20.298828L2.8457031 21.212891 A 1.0001 1.0001 0 0 0 2 22.199219L2 27.699219 A 1.0001 1.0001 0 0 0 2.8339844 28.685547L8.7949219 29.693359C9.1451119 30.880887 9.6045402 31.990547 10.169922 33.056641L6.6875 37.917969 A 1.0001 1.0001 0 0 0 6.7929688 39.207031L10.693359 43.107422 A 1.0001 1.0001 0 0 0 11.974609 43.21875L16.939453 39.724609C17.985462 40.298683 19.114316 40.757752 20.306641 41.103516L21.314453 47.066406 A 1.0001 1.0001 0 0 0 22.300781 47.900391L27.800781 47.900391 A 1.0001 1.0001 0 0 0 28.783203 47.082031L29.884766 41.107422C31.077734 40.756262 32.193186 40.294742 33.263672 39.726562L38.224609 43.21875 A 1.0001 1.0001 0 0 0 39.507812 43.107422L43.40625 39.207031 A 1.0001 1.0001 0 0 0 43.509766 37.914062L39.931641 32.957031C40.500209 31.91951 40.957756 30.82106 41.300781 29.693359L47.169922 28.685547 A 1.0001 1.0001 0 0 0 48 27.699219L48 22.199219 A 1.0001 1.0001 0 0 0 47.166016 21.214844L41.199219 20.203125C40.855563 19.074235 40.397841 17.973827 39.828125 16.935547L43.318359 11.974609 A 1.0001 1.0001 0 0 0 43.207031 10.693359L39.306641 6.7929688 A 1.0001 1.0001 0 0 0 38.013672 6.6894531L33.052734 10.273438C32.009656 9.7017023 30.885686 9.2413677 29.697266 8.8964844L28.685547 2.8359375 A 1.0001 1.0001 0 0 0 27.699219 2L22.199219 2 z M 23.044922 4L26.853516 4L27.814453 9.7636719 A 1.0001 1.0001 0 0 0 28.556641 10.570312C30.07104 10.948913 31.478126 11.514935 32.675781 12.251953 A 1.0001 1.0001 0 0 0 33.785156 12.210938L38.494141 8.8085938L41.197266 11.511719L37.882812 16.224609 A 1.0001 1.0001 0 0 0 37.847656 17.324219C38.584675 18.521874 39.154586 19.937607 39.533203 21.357422 A 1.0001 1.0001 0 0 0 40.333984 22.085938L46 23.044922L46 26.857422L40.429688 27.814453 A 1.0001 1.0001 0 0 0 39.632812 28.542969C39.254196 29.962783 38.686237 31.378517 37.949219 32.576172 A 1.0001 1.0001 0 0 0 37.990234 33.685547L41.390625 38.394531L38.6875 41.097656L33.974609 37.78125 A 1.0001 1.0001 0 0 0 32.904297 37.732422C31.566632 38.496802 30.2627 39.053466 28.757812 39.429688 A 1.0001 1.0001 0 0 0 28.017578 40.21875L26.966797 45.900391L23.144531 45.900391L22.185547 40.232422 A 1.0001 1.0001 0 0 0 21.443359 39.429688C19.92896 39.051088 18.521874 38.485065 17.324219 37.748047 A 1.0001 1.0001 0 0 0 16.224609 37.78125L11.511719 41.097656L8.8066406 38.392578L12.113281 33.783203 A 1.0001 1.0001 0 0 0 12.167969 32.703125C11.403582 31.365465 10.846925 30.061529 10.470703 28.556641 A 1.0001 1.0001 0 0 0 9.6660156 27.814453L4 26.855469L4 23.056641L9.5546875 22.1875 A 1.0001 1.0001 0 0 0 10.371094 21.443359C10.749694 19.92896 11.313763 18.521874 12.050781 17.324219 A 1.0001 1.0001 0 0 0 12.017578 16.224609L8.7011719 11.511719L11.412109 8.8027344L16.125 12.117188 A 1.0001 1.0001 0 0 0 17.195312 12.167969C18.532978 11.403589 19.836909 10.846925 21.341797 10.470703 A 1.0001 1.0001 0 0 0 22.085938 9.6660156L23.044922 4 z M 25 17C20.570085 17 17 20.570085 17 25C17 29.429915 20.570085 33 25 33C29.429915 33 33 29.429915 33 25C33 20.570085 29.429915 17 25 17 z M 25 19C28.370085 19 31 21.629915 31 25C31 28.370085 28.370085 31 25 31C21.629915 31 19 28.370085 19 25C19 21.629915 21.629915 19 25 19 z" />
</svg>