<?xml version="1.0" encoding="utf-8"?>
<svg xmlns="http://www.w3.org/2000/svg" viewBox="0 0 50 50" width="515" height="515">
  <path d="M28.84375 2C28.597656 2.015625 28.34375 2.03125 28.09375 2.09375L10.5 7.09375C8.5 7.695313 7.40625 9.6875 7.90625 11.6875L16.1875 40.8125L17.40625 45.1875C17.90625 46.789063 19.398438 47.90625 21 47.90625C21.300781 47.90625 21.699219 47.914063 22 47.8125L39.59375 42.8125C41.59375 42.3125 42.6875 40.1875 42.1875 38.1875L32.6875 4.6875C32.164063 2.9375 30.574219 1.902344 28.84375 2 Z M 28.8125 4C28.898438 3.988281 28.992188 4 29.09375 4C29.894531 4 30.613281 4.511719 30.8125 5.3125L38.8125 33.40625L17.6875 39.40625L9.6875 11.3125C9.488281 10.3125 10 9.292969 11 9.09375L28.59375 4.09375C28.644531 4.042969 28.726563 4.011719 28.8125 4 Z M 38.21875 10.6875C37.9375 10.738281 37.6875 10.90625 37.539063 11.152344C37.390625 11.398438 37.351563 11.695313 37.4375 11.96875L42.4375 29.5625C42.585938 30.097656 43.136719 30.414063 43.671875 30.265625C44.207031 30.117188 44.523438 29.566406 44.375 29.03125L39.375 11.4375C39.253906 10.960938 38.804688 10.640625 38.3125 10.6875C38.28125 10.6875 38.25 10.6875 38.21875 10.6875 Z M 43.8125 13.78125C43.53125 13.832031 43.28125 14 43.132813 14.246094C42.984375 14.492188 42.945313 14.789063 43.03125 15.0625L45.53125 23.96875C45.679688 24.503906 46.230469 24.820313 46.765625 24.671875C47.300781 24.523438 47.617188 23.972656 47.46875 23.4375L44.96875 14.53125C44.847656 14.054688 44.398438 13.734375 43.90625 13.78125C43.875 13.78125 43.84375 13.78125 43.8125 13.78125 Z M 6.40625 19.6875C6.125 19.738281 5.875 19.90625 5.726563 20.152344C5.578125 20.398438 5.539063 20.695313 5.625 20.96875L10.625 38.5625C10.773438 39.097656 11.324219 39.414063 11.859375 39.265625C12.394531 39.117188 12.710938 38.566406 12.5625 38.03125L7.5625 20.4375C7.441406 19.960938 6.992188 19.640625 6.5 19.6875C6.46875 19.6875 6.4375 19.6875 6.40625 19.6875 Z M 3.3125 25.28125C3.03125 25.332031 2.78125 25.5 2.632813 25.746094C2.484375 25.992188 2.445313 26.289063 2.53125 26.5625L5.03125 35.46875C5.179688 36.003906 5.730469 36.320313 6.265625 36.171875C6.800781 36.023438 7.117188 35.472656 6.96875 34.9375L4.46875 26.03125C4.347656 25.554688 3.898438 25.234375 3.40625 25.28125C3.375 25.28125 3.34375 25.28125 3.3125 25.28125 Z M 29.375 39.5625C30 39.515625 30.636719 39.886719 30.8125 40.5C31.011719 41.199219 30.605469 41.988281 29.90625 42.1875C29.207031 42.386719 28.386719 42.011719 28.1875 41.3125C27.988281 40.613281 28.394531 39.792969 29.09375 39.59375C29.179688 39.570313 29.285156 39.570313 29.375 39.5625Z" />
</svg>