<?xml version="1.0" encoding="utf-8"?>
<svg xmlns="http://www.w3.org/2000/svg" viewBox="0 0 50 50" width="515" height="515">
  <path d="M46.6,35.1c-5.8-1-8.4-7.1-8.5-7.1c0,0,0-0.1-0.1-0.1c-0.3-0.6-0.3-0.9-0.2-1.2c0.2-0.6,1.6-1,2.2-1.2c0,0,0.1,0,0.1-0.1c0,0,0.1,0,0.1,0c0.1,0,0.3-0.1,0.4-0.1c1.7-0.7,2.6-1.6,2.6-2.7c0-1-0.9-1.8-1.8-2c-0.2-0.1-0.4-0.1-0.5-0.1c-0.2,0-0.4-0.1-0.6-0.1c-0.3,0-0.7,0-1.1,0.2C38.6,20.9,38,21,37.6,21c0-0.2,0-0.4,0-0.6l0,0l0-0.3c0.2-3.2,0.5-6.8-0.6-9C33.9,4,27.3,3.5,25.4,3.5h-0.9c-2,0-8.6,0.5-11.6,7.5c-0.9,2.3-0.8,5.9-0.6,9.3c0,0.2,0,0.4,0,0.7c-0.1,0-0.2,0-0.3,0c-0.5,0-1.2-0.2-1.8-0.5c-0.4-0.2-0.8-0.2-1-0.2c-1.2,0-2.5,0.7-2.7,2c0,0,0,0.1,0,0.1c0,1.2,0.9,2.2,2.6,2.8c0.2,0.1,0.3,0.1,0.4,0.1c0,0,0.1,0,0.1,0c0,0,0.1,0,0.1,0.1c0.6,0.2,2,0.7,2.2,1.2c0,0,0,0.1,0.1,0.1c0.1,0.1,0.1,0.4-0.2,1c0,0,0,0.1,0,0.1c0,0.1-2.6,6.2-8.5,7.1c-0.1,0-0.2,0-0.3,0.1c-0.4,0.2-1,0.7-1,1.4v0.2c0,0.2,0,0.3,0.1,0.4c0.6,1.2,2.6,2.1,6.1,2.6c0,0.1,0.1,0.2,0.1,0.3c0.1,0.1,0.1,0.3,0.2,0.4c0,0.3,0.1,0.5,0.2,0.8l0.1,0.2c0.2,0.8,0.8,1.3,1.6,1.3c0.2,0,0.6,0,1.1-0.1l0.4-0.1c0.5-0.1,1.2-0.2,1.9-0.2c0.5,0,1.1,0.1,1.6,0.2c1,0.2,1.9,0.7,3,1.5c0,0,0.1,0.1,0.1,0.1c1.7,1.1,3.5,2.4,6.4,2.4h0.5c2.9,0,4.8-1.3,6.3-2.5l0.4-0.2c0.9-0.6,1.8-1.1,2.6-1.3c1.3-0.2,2.4-0.2,3.4,0c0.2,0,0.4,0.1,0.5,0.1c0.5,0.1,0.9,0.1,1.1,0.1h0.1c0.8,0,1.3-0.4,1.5-1.1c0.1-0.2,0.1-0.4,0.1-0.7c0-0.1,0-0.2,0.1-0.3c0,0,0-0.1,0-0.1c0.1-0.4,0.1-0.6,0.2-0.7c3.4-0.5,5.3-1.3,6-2.5c0.3-0.4,0.3-0.7,0.3-0.9C47.9,35.8,47.3,35.2,46.6,35.1z" />
</svg>