<?xml version="1.0" encoding="utf-8"?>
<svg xmlns="http://www.w3.org/2000/svg" viewBox="0 0 50 50" width="515" height="515">
  <path d="M25 2C12.360055 2 2 12.259016 2 25C2 37.740984 12.360055 48 25 48C37.639945 48 48 37.740984 48 25C48 12.259016 37.639945 2 25 2 z M 18.064453 5.1777344L24 8.4003906L24 15.800781L17 19.599609L10 15.800781L10 10.306641C12.237378 8.0244815 14.987229 6.2530524 18.064453 5.1777344 z M 32.048828 5.2148438C35.080761 6.2937805 37.78987 8.0522747 40 10.306641L40 15.800781L33 19.599609L26 15.800781L26 8.5L32.048828 5.2148438 z M 41 17.599609L45.386719 19.949219C45.78446 21.565595 46 23.256458 46 25C46 26.807043 45.771987 28.558989 45.345703 30.228516L41 32.599609L34 28.800781L34 21.400391L41 17.599609 z M 9 17.699219L16 21.5L16 28.900391L9 32.699219L4.6855469 30.345703C4.2396601 28.640888 4 26.849516 4 25C4 23.297688 4.2062329 21.646071 4.5859375 20.064453L9 17.699219 z M 33 30.599609L40 34.400391L40 39.693359C37.683417 42.056309 34.817056 43.871457 31.607422 44.933594L26 41.800781L26 34.400391L33 30.599609 z M 17 30.699219L24 34.5L24 41.900391L18.412109 44.939453C15.194653 43.878216 12.321241 42.061061 10 39.693359L10 34.5L17 30.699219 z" />
</svg>