<?xml version="1.0" encoding="utf-8"?>
<svg xmlns="http://www.w3.org/2000/svg" viewBox="0 0 50 50" width="515" height="515">
  <path d="M50,38V4H26V1c0-0.3-0.1-0.6-0.3-0.8C25.5,0,25.2-0.1,24.9,0c0,0-0.1,0-0.1,0C24.3,0.1,24,0.5,24,1v3H0v34h24v1.6l-8.7,8.7c-0.4,0.4-0.4,1,0,1.4s1,0.4,1.4,0l7.3-7.3V45c0,0.1,0,0.3,0.1,0.4c0,0,0,0,0,0c0.1,0.2,0.2,0.4,0.4,0.5c0.3,0.2,0.7,0.2,1,0c0.2-0.1,0.3-0.3,0.4-0.5c0,0,0,0,0,0c0-0.1,0.1-0.2,0.1-0.4v-2.6l7.3,7.3c0.4,0.4,1,0.4,1.4,0s0.4-1,0-1.4L26,39.6V38H50z M17.8,19.8C17.6,19.9,17.3,20,17,20c-0.3,0-0.5-0.1-0.8-0.2L11,23.8c0,0.1,0,0.2,0,0.2c0,1.1-0.9,2-2,2s-2-0.9-2-2s0.9-2,2-2c0.3,0,0.5,0.1,0.8,0.2l5.2-3.9c0-0.1,0-0.2,0-0.2c0-1.1,0.9-2,2-2s2,0.9,2,2c0,0.1,0,0.1,0,0.2l8.2,6c0.2-0.1,0.5-0.2,0.8-0.2c0.3,0,0.5,0.1,0.8,0.2L39,16.3c0-0.1,0-0.2,0-0.3c0-1.1,0.9-2,2-2s2,0.9,2,2s-0.9,2-2,2c-0.3,0-0.5-0.1-0.8-0.2L30,25.7c0,0.1,0,0.2,0,0.3c0,1.1-0.9,2-2,2s-2-0.9-2-2c0-0.1,0-0.1,0-0.2L17.8,19.8z" />
</svg>