<?xml version="1.0" encoding="utf-8"?>
<svg xmlns="http://www.w3.org/2000/svg" viewBox="0 0 50 50" width="515" height="515">
  <path d="M20.1875 5C18.933594 5 18 5.933594 18 7.1875L18 10L20 10L20 7.1875C20 7.039063 20.039063 7 20.1875 7L29.8125 7C29.960938 7 30 7.039063 30 7.1875L30 10L32 10L32 7.1875C32 5.933594 31.066406 5 29.8125 5 Z M 3.09375 12C1.355469 12 0 13.355469 0 15.09375L0 46.90625C0 48.644531 1.355469 50 3.09375 50L46.90625 50C48.644531 50 50 48.644531 50 46.90625L50 15.09375C50 13.355469 48.644531 12 46.90625 12 Z M 26.5 19C28.984375 19 31 21.015625 31 23.5C31 25.984375 28.984375 28 26.5 28C24.015625 28 22 25.984375 22 23.5C22 21.015625 24.015625 19 26.5 19 Z M 41.625 28.125C41.9375 28.121094 42.238281 28.3125 42.3125 28.6875L44.3125 34C44.511719 34.398438 44.3125 34.898438 43.8125 35L31.6875 39.59375C31.289063 39.792969 30.789063 39.59375 30.6875 39.09375L28.6875 33.8125C28.488281 33.414063 28.6875 32.914063 29.1875 32.8125L41.3125 28.1875C41.414063 28.136719 41.519531 28.125 41.625 28.125Z" />
</svg>