<?xml version="1.0" encoding="utf-8"?>
<svg xmlns="http://www.w3.org/2000/svg" viewBox="0 0 50 50" width="515" height="515">
  <path d="M27 4C18.71 4 15.001953 9.273 15.001953 14.5C15.001953 15.619 15.240797 16.812688 15.716797 18.054688C15.320797 18.551687 15.013 19.251 15 20.125C14.998 20.25 14.998766 20.377766 15.009766 20.509766C15.267766 22.405766 16.024656 23.531047 16.847656 23.998047C17.176656 25.762047 18.117 27.558078 19 28.455078L19 32.326172C18.418 33.787172 16.370766 34.579141 14.009766 35.494141C10.144766 36.991141 5.3329531 38.854312 5.0019531 44.945312C4.9869531 45.219313 5.0844375 45.4885 5.2734375 45.6875C5.4624375 45.8865 5.726 46 6 46L26 46L26 49 A 1.0001 1.0001 0 0 0 27 50L49 50 A 1.0001 1.0001 0 0 0 50 49L50 28 A 1.0001 1.0001 0 0 0 49 27L31.994141 27C32.415079 26.211958 32.860175 25.159156 33.113281 24.056641C33.850281 23.730641 34.788094 22.865031 34.996094 20.582031C35.005094 20.469031 35 20.359 35 20.25C35.003 19.368 34.728547 18.633859 34.310547 18.130859C34.751547 17.153859 35.006 15.850094 35 14.496094C34.984 10.456094 33.001859 6.3823906 28.630859 6.0253906L27.894531 4.5527344C27.724531 4.2147344 27.379 4 27 4 z M 28 29L48 29L48 48L28 48L28 29 z M 34 31 A 1.0001 1.0001 0 1 0 34 33L42 33 A 1.0001 1.0001 0 1 0 42 31L34 31 z" />
</svg>