<?xml version="1.0" encoding="utf-8"?>
<svg xmlns="http://www.w3.org/2000/svg" viewBox="0 0 50 50" width="515" height="515">
  <path d="M37.90625 -0.03125C37.863281 -0.0234375 37.820313 -0.0117188 37.78125 0C37.40625 0.0664063 37.105469 0.339844 37 0.703125C36.894531 1.070313 37.003906 1.460938 37.28125 1.71875L38.5625 3L32.3125 9.25L39.75 16.6875L46 10.4375L47.28125 11.71875C47.679688 12.117188 48.320313 12.117188 48.71875 11.71875C49.117188 11.320313 49.117188 10.679688 48.71875 10.28125L38.71875 0.28125C38.511719 0.0585938 38.210938 -0.0546875 37.90625 -0.03125 Z M 25.90625 5.96875C25.863281 5.976563 25.820313 5.988281 25.78125 6C25.40625 6.066406 25.105469 6.339844 25 6.703125C24.894531 7.070313 25.003906 7.460938 25.28125 7.71875L27.59375 10.03125L6.3125 31.3125C6.113281 31.511719 6 31.886719 6 32.1875L7.75 39.25L1 46L1 50L9.8125 41.1875L16.6875 42.90625L16.90625 42.90625C17.207031 42.90625 17.394531 42.792969 17.59375 42.59375L38.875 21.3125L41.28125 23.71875C41.679688 24.117188 42.320313 24.117188 42.71875 23.71875C43.117188 23.320313 43.117188 22.679688 42.71875 22.28125L26.71875 6.28125C26.511719 6.058594 26.210938 5.945313 25.90625 5.96875 Z M 26.90625 13.5L30.59375 17.3125C30.992188 17.710938 30.992188 18.289063 30.59375 18.6875C30.394531 18.886719 30.105469 19 29.90625 19C29.707031 19 29.386719 18.886719 29.1875 18.6875L25.5 15L25.5 14.90625 Z M 22.90625 17.59375L23 17.59375L24.6875 19.3125C25.085938 19.710938 25.085938 20.289063 24.6875 20.6875C24.488281 20.886719 24.199219 21 24 21C23.800781 21 23.511719 20.886719 23.3125 20.6875L21.59375 19 Z M 18.90625 21.59375L19 21.59375L22.6875 25.3125C23.085938 25.710938 23.085938 26.289063 22.6875 26.6875C22.488281 26.886719 22.199219 27 22 27C21.800781 27 21.511719 26.886719 21.3125 26.6875L17.5 23.09375L17.5 23 Z M 14.90625 25.59375L15 25.59375L16.6875 27.3125C17.085938 27.710938 17.085938 28.289063 16.6875 28.6875C16.488281 28.886719 16.199219 29 16 29C15.800781 29 15.511719 28.886719 15.3125 28.6875L13.59375 27 Z M 10.90625 29.59375L11 29.59375L14.6875 33.3125C15.085938 33.710938 15.085938 34.289063 14.6875 34.6875C14.488281 34.886719 14.199219 35 14 35C13.800781 35 13.511719 34.886719 13.3125 34.6875L9.5 31.09375L9.5 31Z" />
</svg>