<?xml version="1.0" encoding="utf-8"?>
<svg xmlns="http://www.w3.org/2000/svg" viewBox="0 0 50 50" width="515" height="515">
  <path d="M18.5 2C17.672 2 17 2.672 17 3.5L17 9.5C17 10.328 17.672 11 18.5 11L31.5 11C32.328 11 33 10.328 33 9.5L33 3.5C33 2.672 32.328 2 31.5 2L18.5 2 z M 9 4C7.346 4 6 5.346 6 7L6 45C6 46.654 7.346 48 9 48L41 48C42.158 48 43.164062 47.341906 43.664062 46.378906C43.878062 45.965906 44 45.496 44 45L44 7C44 5.346 42.654 4 41 4L35 4L35 9L39 9L39 43L11 43L11 9L15 9L15 4L9 4 z M 33.994141 16.988281 A 1.0001 1.0001 0 0 0 33.175781 17.433594L23.541016 31.482422L16.675781 25.179688 A 1.0001 1.0001 0 1 0 15.324219 26.652344L23.886719 34.515625L34.824219 18.566406 A 1.0001 1.0001 0 0 0 33.994141 16.988281 z" />
</svg>