<?xml version="1.0" encoding="utf-8"?>
<svg xmlns="http://www.w3.org/2000/svg" viewBox="0 0 50 50" width="515" height="515">
  <path d="M22 12C20.347656 12 19 13.355469 19 15.03125L19 16.3125C16.8125 16.582031 15.808594 16.941406 15.53125 17.0625C13.980469 17.589844 11.683594 18.378906 10.6875 20.3125C10.011719 21.628906 5.566406 33.46875 5.0625 34.8125L5 35L5 47C5 48.652344 6.347656 50 8 50L12 50C13.652344 50 15 48.652344 15 47L15 46L35 46L35 47C35 48.652344 36.347656 50 38 50L42 50C43.652344 50 45 48.652344 45 47L45 35L44.9375 34.8125C44.832031 34.53125 43.410156 30.816406 42 27.1875C41.984375 27.15625 41.980469 27.125 41.96875 27.09375C40.796875 24.078125 39.648438 21.152344 39.28125 20.3125C38.441406 18.410156 36.128906 17.546875 34.4375 17.0625C34.128906 16.933594 33.109375 16.574219 31 16.3125L31 15.03125C31 13.355469 29.652344 12 28 12 Z M 25 18C31.550781 18 33.648438 18.902344 33.65625 18.90625L33.8125 18.96875C34.566406 19.183594 36.871094 19.835938 37.4375 21.125C37.773438 21.886719 38.808594 24.546875 39.90625 27.375L40 27.5625C40.015625 27.601563 40.011719 27.640625 40.03125 27.6875C40.058594 27.757813 40.097656 27.835938 40.125 27.90625C40.371094 28.550781 40.640625 29.511719 40.25 30.09375C39.847656 30.6875 38.703125 31 37 31L13 31C11.296875 31 10.085938 30.597656 9.6875 30C9.21875 29.304688 9.726563 28.0625 9.96875 27.46875L10.0625 27.28125C11.222656 24.253906 12.21875 21.734375 12.46875 21.25C13.105469 20.015625 14.972656 19.359375 16.21875 18.9375L16.3125 18.90625C16.332031 18.898438 18.449219 18 25 18 Z M 5.09375 27C2.070313 27 1 28.859375 1 30.59375C1 31.4375 1.378906 32.796875 3.625 32.96875C4.253906 31.300781 5.0625 29.128906 5.875 27 Z M 44.0625 27C44.96875 29.339844 45.863281 31.640625 46.375 32.96875C48.628906 32.800781 49 31.441406 49 30.59375C49 28.859375 47.929688 27 44.90625 27 Z M 11 35L15 35C16.65625 35 18 36.34375 18 38C18 39.65625 16.65625 41 15 41C13.324219 41 12.828125 40.574219 11.09375 39.59375C9.933594 38.9375 9 38.308594 9 37C9 35.894531 9.894531 35 11 35 Z M 35 35L39 35C40.105469 35 41 35.894531 41 37C41 38.308594 40.066406 38.9375 38.90625 39.59375C37.175781 40.574219 36.675781 41 35 41C33.34375 41 32 39.65625 32 38C32 36.34375 33.34375 35 35 35Z" />
</svg>