<?xml version="1.0" encoding="utf-8"?>
<svg xmlns="http://www.w3.org/2000/svg" viewBox="0 0 50 50" width="515" height="515">
  <path d="M25 0C23.457143 0 22.003121 0.31686461 20.865234 1.1386719C19.727347 1.9604791 19 3.3380952 19 5L19 9.8320312 A 1.0001 1.0001 0 0 0 19 10.158203L19 27.685547C15.402868 29.750635 13 33.568826 13 38C13 44.635519 18.364481 50 25 50C31.635519 50 37 44.635519 37 38C37 33.568826 34.597132 29.750635 31 27.685547L31 27L34 27 A 1.0001 1.0001 0 1 0 34 25L31 25L31 23L34 23 A 1.0001 1.0001 0 1 0 34 21L31 21L31 19L34 19 A 1.0001 1.0001 0 1 0 34 17L31 17L31 15L34 15 A 1.0001 1.0001 0 1 0 34 13L31 13L31 11L34 11 A 1.0001 1.0001 0 1 0 34 9L31 9L31 5C31 3.3380952 30.272653 1.9604791 29.134766 1.1386719C27.996879 0.31686461 26.542857 -1.4802974e-16 25 0 z M 25 2C26.257143 2 27.302731 2.2815729 27.964844 2.7597656C28.626957 3.2379584 29 3.8619048 29 5L29 9L21 9L21 5C21 3.8619048 21.373043 3.2379584 22.035156 2.7597656C22.697269 2.2815729 23.742857 2 25 2 z" />
</svg>