<?xml version="1.0" encoding="utf-8"?>
<svg xmlns="http://www.w3.org/2000/svg" viewBox="0 0 50 50" width="515" height="515">
  <path d="M12.0625 -0.03125C11.398438 -0.0078125 10.789063 0.34375 10.4375 0.90625L5.71875 8L3.53125 5.375C3.113281 4.726563 2.359375 4.378906 1.597656 4.476563C0.832031 4.574219 0.191406 5.105469 -0.046875 5.835938C-0.289063 6.570313 -0.0898438 7.375 0.46875 7.90625L4.375 12.59375C4.777344 13.074219 5.382813 13.339844 6.007813 13.308594C6.632813 13.277344 7.210938 12.957031 7.5625 12.4375L13.78125 3.09375C14.207031 2.472656 14.242188 1.664063 13.878906 1.003906C13.519531 0.34375 12.816406 -0.0546875 12.0625 -0.03125 Z M 20 6L20 10L50 10L50 6 Z M 12.0625 16.96875C11.398438 16.992188 10.789063 17.34375 10.4375 17.90625L5.71875 25L3.53125 22.375C3.089844 21.777344 2.351563 21.472656 1.617188 21.585938C0.882813 21.699219 0.273438 22.210938 0.03125 22.914063C-0.210938 23.617188 -0.0429688 24.398438 0.46875 24.9375L4.375 29.625C4.78125 30.101563 5.390625 30.363281 6.015625 30.324219C6.640625 30.289063 7.214844 29.960938 7.5625 29.4375L13.78125 20.09375C14.207031 19.472656 14.242188 18.664063 13.878906 18.003906C13.519531 17.34375 12.816406 16.945313 12.0625 16.96875 Z M 20 23L20 27L50 27L50 23 Z M 12.09375 36C12.019531 36.007813 11.949219 36.015625 11.875 36.03125C11.285156 36.105469 10.757813 36.4375 10.4375 36.9375L5.71875 44.03125L3.53125 41.40625C3.089844 40.808594 2.351563 40.503906 1.617188 40.617188C0.882813 40.730469 0.273438 41.242188 0.03125 41.945313C-0.210938 42.648438 -0.0429688 43.429688 0.46875 43.96875L4.375 48.65625C4.78125 49.132813 5.390625 49.394531 6.015625 49.355469C6.640625 49.320313 7.214844 48.992188 7.5625 48.46875L13.78125 39.15625C14.21875 38.539063 14.269531 37.726563 13.914063 37.054688C13.554688 36.386719 12.851563 35.980469 12.09375 36 Z M 20 42L20 46L50 46L50 42Z" />
</svg>