<?xml version="1.0" encoding="utf-8"?>
<svg xmlns="http://www.w3.org/2000/svg" viewBox="0 0 50 50" width="515" height="515">
  <path d="M12 2C9.242188 2 7 4.242188 7 7C7 9.757813 9.242188 12 12 12C14.757813 12 17 9.757813 17 7C17 4.242188 14.757813 2 12 2 Z M 29 2L29 4L18.3125 4C18.746094 4.910156 19 5.925781 19 7C19 8.488281 18.542969 9.863281 17.75 11L28.5 11C30.980469 11 33 13.019531 33 15.5C33 17.980469 30.980469 20 28.5 20L20 20L20 34L47 34C47.554688 34 48 33.554688 48 33L48 5C48 4.449219 47.554688 4 47 4L31 4L31 2 Z M 7.5 13C4.46875 13 2 15.46875 2 18.5L2 32C2 33.105469 2.898438 34 4 34C5.101563 34 6 33.105469 6 32L6 20.5625C6 20.292969 6.230469 20.0625 6.5 20.0625C6.769531 20.0625 7 20.292969 7 20.5625L7 45.3125C7 46.875 7.839844 48 9.40625 48C10.886719 48 12 46.851563 12 45.3125L12 33.6875C12 33.410156 12.222656 33.1875 12.5 33.1875C12.777344 33.1875 13 33.410156 13 33.6875L13 45.59375C13.003906 45.601563 13.027344 45.585938 13.03125 45.59375C13.167969 46.976563 14.210938 48 15.59375 48C17.15625 48 18 46.875 18 45.3125L18 18L28.5 18C29.882813 18 31 16.882813 31 15.5C31 14.117188 29.882813 13 28.5 13L15.53125 13L12 20L8.53125 13 Z M 27.5 36L23 45L25 45L29.5 36 Z M 30.5 36L35 45L37 45L32.5 36Z" />
</svg>