<?xml version="1.0" encoding="utf-8"?>
<svg xmlns="http://www.w3.org/2000/svg" viewBox="0 0 50 50" width="515" height="515">
  <path d="M19.5 0C17.742188 0 16.308594 1.308594 16.0625 3L15 3C11.140625 3 8 6.015625 8 9.71875L8 38.28125C8 40.859375 9.519531 43.09375 11.75 44.21875L6.9375 48.21875C6.507813 48.574219 6.441406 49.210938 6.796875 49.640625C7.152344 50.070313 7.789063 50.136719 8.21875 49.78125L14 44.9375C14.328125 44.984375 14.660156 45 15 45L35 45C35.339844 45 35.671875 44.984375 36 44.9375L41.78125 49.78125C42.210938 50.136719 42.847656 50.070313 43.203125 49.640625C43.558594 49.210938 43.492188 48.574219 43.0625 48.21875L38.25 44.21875C40.480469 43.09375 42 40.859375 42 38.28125L42 9.71875C42 6.015625 38.859375 3 35 3L33.9375 3C33.691406 1.308594 32.257813 0 30.5 0C28.742188 0 27.308594 1.308594 27.0625 3L22.9375 3C22.691406 1.308594 21.257813 0 19.5 0 Z M 19.5 2C20.328125 2 21 2.671875 21 3.5C21 4.328125 20.328125 5 19.5 5C18.671875 5 18 4.328125 18 3.5C18 2.671875 18.671875 2 19.5 2 Z M 30.5 2C31.328125 2 32 2.671875 32 3.5C32 4.328125 31.328125 5 30.5 5C29.671875 5 29 4.328125 29 3.5C29 2.671875 29.671875 2 30.5 2 Z M 19 10L31 10C31.554688 10 32 10.449219 32 11L32 13L18 13L18 11C18 10.449219 18.449219 10 19 10 Z M 15 15L35 15C36.105469 15 37 15.832031 37 16.84375L37 24.15625C37 25.167969 36.105469 26 35 26L15 26C13.894531 26 13 25.167969 13 24.15625L13 16.84375C13 15.832031 13.894531 15 15 15 Z M 16 33C17.65625 33 19 34.34375 19 36C19 37.65625 17.65625 39 16 39C14.34375 39 13 37.65625 13 36C13 34.34375 14.34375 33 16 33 Z M 34 33C35.65625 33 37 34.34375 37 36C37 37.65625 35.65625 39 34 39C32.34375 39 31 37.65625 31 36C31 34.34375 32.34375 33 34 33Z" />
</svg>