<?xml version="1.0" encoding="utf-8"?>
<svg xmlns="http://www.w3.org/2000/svg" viewBox="0 0 50 50" width="515" height="515">
  <path d="M42 3C41.132813 3 40.359375 3.585938 39.078125 4.554688C37.953125 5.40625 36.394531 6.578125 34.199219 7.738281C34.214844 7.773438 34.238281 7.796875 34.25 7.832031L35.25 10.832031C35.425781 11.355469 35.144531 11.921875 34.621094 12.097656C34.515625 12.132813 34.410156 12.152344 34.304688 12.152344C33.886719 12.152344 33.496094 11.886719 33.355469 11.46875L32.40625 8.617188C31.820313 8.878906 31.179688 9.132813 30.515625 9.382813L31.511719 12.371094C31.6875 12.894531 31.402344 13.460938 30.878906 13.636719C30.773438 13.671875 30.667969 13.6875 30.5625 13.6875C30.144531 13.6875 29.753906 13.421875 29.613281 13.003906L28.621094 10.027344C28.007813 10.214844 27.367188 10.394531 26.695313 10.5625C26.699219 10.574219 26.707031 10.582031 26.710938 10.59375L27.710938 13.59375C27.886719 14.117188 27.601563 14.679688 27.078125 14.855469C26.972656 14.890625 26.867188 14.90625 26.761719 14.90625C26.34375 14.90625 25.953125 14.644531 25.8125 14.222656L24.8125 11.222656C24.789063 11.148438 24.792969 11.070313 24.785156 10.996094C24.1875 11.117188 23.570313 11.226563 22.933594 11.328125L23.890625 14.207031C24.066406 14.730469 23.78125 15.296875 23.257813 15.472656C23.152344 15.507813 23.046875 15.527344 22.941406 15.527344C22.523438 15.527344 22.132813 15.261719 21.996094 14.84375L20.996094 11.84375C20.96875 11.761719 20.972656 11.683594 20.964844 11.605469C20.324219 11.679688 19.671875 11.746094 18.988281 11.800781L19.949219 14.6875C20.125 15.210938 19.84375 15.777344 19.316406 15.953125C19.210938 15.984375 19.105469 16 19 16C18.582031 16 18.191406 15.734375 18.050781 15.316406L17.050781 12.316406C17.007813 12.1875 16.996094 12.054688 17.003906 11.925781C16.039063 11.972656 15.042969 12 14 12C11.867188 12 10 13.585938 10 15.390625C10 17.949219 12.398438 18.65625 13.96875 18.890625C13.59375 23.625 10.15625 24.359375 6.832031 25.074219C4.457031 25.578125 2 26.105469 2 28.5625C2 30.882813 3.171875 32.238281 4.304688 33.546875C4.472656 33.742188 4.644531 33.941406 4.8125 34.140625C5.945313 35.507813 7.953125 39.171875 8.066406 39.378906C8.707031 42.21875 10.121094 43.949219 11.546875 44.882813C12.996094 45.835938 14.351563 46 15 46C16.242188 46 17.367188 45.746094 18.453125 45.183594C19.535156 44.621094 20.578125 43.777344 21.855469 42.605469C21.867188 42.59375 21.875 42.585938 21.886719 42.574219C24.09375 40.367188 24.679688 39.070313 25.046875 38.082031C25.414063 37.097656 25.539063 36.515625 27.324219 34.730469C29.875 32.179688 31.074219 31.796875 32.578125 31.328125C34.082031 30.859375 35.9375 30.320313 38.816406 27.84375C44.511719 22.949219 47.996094 17.558594 47.996094 12C47.996094 7.03125 44.507813 4.117188 44.421875 4.046875C43.773438 3.382813 42.953125 3 42 3 Z M 45.796875 10.179688C45.917969 10.742188 45.996094 11.347656 45.996094 12C45.996094 16.710938 42.960938 21.644531 37.515625 26.328125C34.828125 28.640625 33.542969 28.933594 31.984375 29.417969C30.425781 29.902344 28.632813 30.59375 25.910156 33.316406C23.972656 35.253906 23.523438 36.449219 23.171875 37.382813C22.824219 38.3125 22.542969 39.085938 20.488281 41.140625C19.269531 42.261719 18.34375 42.984375 17.527344 43.410156C16.707031 43.835938 15.996094 44 15 44C14.753906 44 13.679688 43.894531 12.640625 43.210938C11.824219 42.675781 10.972656 41.789063 10.390625 40.21875C10.421875 40.21875 10.449219 40.226563 10.480469 40.226563C12.351563 40.226563 14.765625 39.382813 16.230469 36.285156C17.269531 34.085938 18.984375 33.636719 20.96875 33.113281C22.289063 32.769531 23.660156 32.410156 24.832031 31.484375C27.371094 29.484375 30.691406 26.980469 32.5625 25.664063C33.84375 24.757813 34.242188 23.335938 34.59375 22.082031C34.820313 21.269531 35.035156 20.503906 35.433594 20.15625C35.769531 19.863281 36.277344 19.789063 37.078125 19.695313C38.289063 19.554688 39.789063 19.375 41.183594 17.953125C43.132813 15.96875 45.175781 12.683594 45.796875 10.179688Z" />
</svg>