<?xml version="1.0" encoding="utf-8"?>
<svg xmlns="http://www.w3.org/2000/svg" viewBox="0 0 50 50" width="515" height="515">
  <path d="M10.402344 3C8.523438 3 7 4.523438 7 6.398438L7 24.597656C7 26.472656 8.523438 28 10.402344 28L28.597656 28C30.472656 28 32 26.472656 32 24.597656L32 6.398438C32 4.523438 30.472656 3 28.597656 3 Z M 34 18L34 20L43.597656 20C44.386719 20 45 20.613281 45 21.402344L45 39.597656C45 40.386719 44.386719 41 43.597656 41L25.402344 41C24.613281 41 24 40.386719 24 39.597656L24 30L22 30L22 39.597656C22 41.464844 23.535156 43 25.402344 43L43.597656 43C45.464844 43 47 41.464844 47 39.597656L47 21.402344C47 19.535156 45.464844 18 43.597656 18 Z M 3.984375 29.984375C3.433594 29.996094 2.992188 30.449219 3 31L3 40C3 41.644531 4.355469 43 6 43L15.585938 43L13.292969 45.292969C13.03125 45.542969 12.925781 45.917969 13.019531 46.265625C13.109375 46.617188 13.382813 46.890625 13.734375 46.980469C14.082031 47.074219 14.457031 46.96875 14.707031 46.707031L18.621094 42.796875C18.867188 42.605469 19.011719 42.3125 19.011719 42C19.011719 41.6875 18.867188 41.390625 18.617188 41.203125L14.707031 37.292969C14.519531 37.097656 14.261719 36.992188 13.988281 36.988281C13.582031 36.992188 13.21875 37.238281 13.0625 37.613281C12.910156 37.992188 13 38.421875 13.292969 38.707031L15.585938 41L6 41C5.433594 41 5 40.566406 5 40L5 31C5.003906 30.730469 4.898438 30.46875 4.707031 30.277344C4.515625 30.085938 4.253906 29.980469 3.984375 29.984375Z" />
</svg>