<?xml version="1.0" encoding="utf-8"?>
<svg xmlns="http://www.w3.org/2000/svg" viewBox="0 0 50 50" width="515" height="515">
  <path d="M16 2C14.3 2 13 3.3 13 5L13 7L3 7 A 1.0001 1.0001 0 1 0 3 9L13 9L13 11C13 12.7 14.3 14 16 14L18 14C19.7 14 21 12.7 21 11L21 5C21 3.3 19.7 2 18 2L16 2 z M 22 7L22 9L43 9L47 9 A 1.0001 1.0001 0 1 0 47 7L43 7L22 7 z M 34 19C32.3 19 31 20.3 31 22L31 24L3 24 A 1.0001 1.0001 0 1 0 3 26L31 26L31 28C31 29.7 32.3 31 34 31L36 31C37.7 31 39 29.7 39 28L39 22C39 20.3 37.7 19 36 19L34 19 z M 40 24L40 26L42 26L44 26L47 26 A 1.0001 1.0001 0 1 0 47 24L44 24L42 24L40 24 z M 13 36C11.3 36 10 37.3 10 39L10 41L3 41 A 1.0001 1.0001 0 1 0 3 43L10 43L10 45C10 46.7 11.3 48 13 48L15 48C16.7 48 18 46.7 18 45L18 39C18 37.3 16.7 36 15 36L13 36 z M 19 41L19 43L40 43L47 43 A 1.0001 1.0001 0 1 0 47 41L40 41L19 41 z" />
</svg>