<?xml version="1.0" encoding="utf-8"?>
<svg xmlns="http://www.w3.org/2000/svg" viewBox="0 0 50 50" width="515" height="515">
  <path d="M24.414063 4.003906C15.46875 3.835938 7.046875 9.449219 4.078125 18.375C2.308594 23.699219 2.71875 29.390625 5.230469 34.40625C7.742188 39.421875 12.058594 43.15625 17.378906 44.925781C19.570313 45.652344 21.796875 46 23.988281 46C25.691406 46 27.371094 45.785156 29 45.386719L29 43.316406C25.503906 44.277344 21.699219 44.253906 18.011719 43.03125C13.195313 41.429688 9.292969 38.046875 7.019531 33.511719C4.746094 28.972656 4.375 23.824219 5.976563 19.007813C8.621094 11.046875 16.058594 6 24.019531 6C26 6 28.015625 6.3125 30 6.972656C34.8125 8.574219 38.71875 11.953125 40.992188 16.488281C41.609375 17.722656 42.074219 19 42.410156 20.304688L36.382813 17.824219C35.871094 17.613281 35.289063 17.855469 35.078125 18.363281C34.867188 18.875 35.109375 19.460938 35.621094 19.671875L43.527344 22.925781C43.652344 22.976563 43.777344 23 43.90625 23C44.300781 23 44.671875 22.769531 44.828125 22.382813L47.921875 14.871094C48.132813 14.359375 47.890625 13.777344 47.378906 13.5625C46.867188 13.355469 46.285156 13.597656 46.074219 14.109375L44.09375 18.921875C43.75 17.789063 43.320313 16.671875 42.78125 15.59375C40.265625 10.578125 35.949219 6.84375 30.628906 5.074219C28.570313 4.390625 26.476563 4.042969 24.414063 4.003906 Z M 34.828125 31C32.71875 31 31 32.71875 31 34.828125L31 46.171875C31 48.28125 32.71875 50 34.828125 50L46.171875 50C48.28125 50 50 48.28125 50 46.171875L50 34.828125C50 32.71875 48.28125 31 46.171875 31 Z M 45.199219 36L46.699219 37.300781L40 45L35.300781 41.402344L36.5 39.800781L39.800781 42.300781Z" />
</svg>