<?xml version="1.0" encoding="utf-8"?>
<svg xmlns="http://www.w3.org/2000/svg" viewBox="0 0 50 50" width="515" height="515">
  <path d="M38.53125 7C36.8125 7 36.027344 8.1875 36.027344 9.53125L36.027344 23C36.027344 23.550781 35.582031 24 35.027344 24C34.476563 24 34 23.550781 34 23L34 4.480469C34.019531 3.269531 33.269531 2 31.519531 2C29.769531 2 29.015625 3.363281 29.015625 4.507813L29.015625 22.011719C29.015625 22.566406 28.566406 23.011719 28.015625 23.011719C27.460938 23.011719 27 22.566406 27 22.015625L27 2.507813C27 1.496094 26.21875 0 24.511719 0C22.800781 0 22.003906 1.496094 22.003906 2.507813L22.003906 23C22.003906 23.550781 21.554688 24 21.003906 24C20.453125 24 20 23.550781 20 23L20 6.546875C20 4.710938 18.503906 4.042969 17.496094 4.042969C16.53125 4.042969 15 4.691406 15 6.433594L15 32.296875C14.960938 32.320313 14.914063 32.328125 14.867188 32.34375L14.863281 32.296875L9.863281 26.296875C8.5625 24.898438 6.363281 24.898438 4.964844 26.296875C3.5625 27.601563 3.5625 29.796875 4.964844 31.199219L5.074219 31.34375C5.109375 31.4375 5.144531 31.53125 5.210938 31.613281L13.730469 42.558594L16.460938 46.097656L16.457031 46.0625L16.808594 46.515625C16.8125 46.515625 16.8125 46.515625 16.816406 46.519531C18.378906 48.589844 20.746094 49.820313 23.367188 49.972656C23.492188 49.980469 23.628906 49.988281 23.769531 49.992188C23.8125 49.992188 23.855469 50 23.898438 50C23.902344 50 23.90625 49.996094 23.914063 49.996094C23.941406 49.996094 23.96875 50 24 50L32 50C36.425781 50 41 46.632813 41 41C41 41 41 10.957031 41 9.582031C41 8.207031 40.253906 7 38.53125 7 Z M 33.820313 36.671875L28 42.492188L22.179688 36.671875C21.453125 35.964844 21 34.980469 21 33.890625C21 31.742188 22.742188 30 24.890625 30C26.167969 30 27.289063 30.625 28 31.578125C28.710938 30.625 29.832031 30 31.109375 30C33.257813 30 35 31.742188 35 33.890625C35 34.980469 34.546875 35.964844 33.820313 36.671875Z" />
</svg>