<?xml version="1.0" encoding="utf-8"?>
<svg xmlns="http://www.w3.org/2000/svg" viewBox="0 0 50 50" width="515" height="515">
  <path d="M27.5 2C25.015625 2 23 4.015625 23 6.5C23 8.984375 25.015625 11 27.5 11C29.984375 11 32 8.984375 32 6.5C32 4.015625 29.984375 2 27.5 2 Z M 23.210938 13C22.332031 13 21.476563 13.289063 20.777344 13.824219L13.980469 18.28125C13.929688 18.3125 13.882813 18.34375 13.835938 18.375L13.824219 18.386719C13.519531 18.605469 13.285156 18.90625 13.144531 19.253906L13.136719 19.269531L10.3125 25.929688C10.109375 26.25 10 26.621094 10 27C10 28.105469 10.894531 29 12 29C12.910156 29 13.707031 28.378906 13.933594 27.5L16.480469 21.792969L21.042969 19.183594C20.386719 22.238281 19.15625 27.929688 19.15625 27.929688L19.15625 27.949219C19.066406 28.285156 19 28.632813 19 29C19 29.796875 19.238281 30.539063 19.640625 31.160156L19.644531 31.171875L19.65625 31.183594C19.886719 31.539063 20.183594 31.847656 20.515625 32.109375L25.113281 37.078125L27 45.542969C27.007813 45.878906 27.082031 46.207031 27.21875 46.515625L27.230469 46.5625L27.238281 46.558594C27.648438 47.4375 28.53125 48 29.5 48C30.878906 48 32 46.878906 32 45.5C32 45.105469 31.90625 44.714844 31.726563 44.363281L29.730469 35.351563L26 29.003906L28.855469 17.503906C28.855469 17.503906 28.855469 17.5 28.855469 17.5C28.949219 17.175781 29 16.839844 29 16.5C29 14.566406 27.433594 13 25.5 13C25.492188 13 25.484375 13 25.480469 13C25.476563 13 25.476563 13 25.472656 13 Z M 30.972656 16.828125C30.964844 16.984375 30.960938 17.136719 30.9375 17.285156L29.738281 22.167969L31.609375 24.238281L37.21875 25.84375C37.222656 25.84375 37.222656 25.84375 37.222656 25.84375L37.28125 25.863281L37.28125 25.859375C37.503906 25.949219 37.746094 26 38 26C39.105469 26 40 25.105469 40 24C40 23.125 39.433594 22.390625 38.65625 22.117188L38.65625 22.109375L33.667969 20.644531 Z M 18.441406 32.875L17.503906 37.578125L12.738281 43.722656C12.285156 44.175781 12 44.804688 12 45.5C12 46.882813 13.117188 48 14.5 48C15.417969 48 16.210938 47.5 16.644531 46.765625L16.65625 46.769531L21.625 40.292969L22.519531 36.941406Z" />
</svg>