<?xml version="1.0" encoding="utf-8"?>
<svg xmlns="http://www.w3.org/2000/svg" viewBox="0 0 50 50" width="515" height="515">
  <path d="M5 4C4.45 4 4 4.45 4 5L4 15C4 15.55 4.45 16 5 16L45 16C45.55 16 46 15.55 46 15L46 5C46 4.45 45.55 4 45 4L5 4 z M 10 9C10.55 9 11 9.45 11 10C11 10.55 10.55 11 10 11C9.45 11 9 10.55 9 10C9 9.45 9.45 9 10 9 z M 14 9C14.55 9 15 9.45 15 10C15 10.55 14.55 11 14 11C13.45 11 13 10.55 13 10C13 9.45 13.45 9 14 9 z M 18 9C18.55 9 19 9.45 19 10C19 10.55 18.55 11 18 11C17.45 11 17 10.55 17 10C17 9.45 17.45 9 18 9 z M 4 19L4 45 A 1.0001 1.0001 0 0 0 5 46L45 46 A 1.0001 1.0001 0 0 0 46 45L46 19L44 19L44 44L6 44L6 19L4 19 z M 10 19C9.448 19 9 19.447 9 20L9 40C9 40.553 9.448 41 10 41L23 41C23.552 41 24 40.553 24 40L24 20C24 19.447 23.552 19 23 19L10 19 z M 27 19L27 21L41 21L41 19L27 19 z M 27 24L27 26L41 26L41 24L27 24 z M 27 29L27 31L41 31L41 29L27 29 z M 27 34L27 36L41 36L41 34L27 34 z M 27 39L27 41L41 41L41 39L27 39 z" />
</svg>