<?xml version="1.0" encoding="utf-8"?>
<svg xmlns="http://www.w3.org/2000/svg" viewBox="0 0 50 50" width="515" height="515">
  <path d="M25 2C12.318 2 2 12.318 2 25C2 37.682 12.318 48 25 48C37.682 48 48 37.682 48 25C48 12.318 37.682 2 25 2 z M 24.998047 9C25.299824 9 25.594873 9.0283545 25.892578 9.0449219C25.867808 9.1408872 25.842172 9.2375964 25.847656 9.3417969L26.3125 18.449219C26.3345 18.856219 26.599422 19.20975 26.982422 19.34375C27.691422 19.59175 28.337297 19.963219 28.904297 20.449219C29.090297 20.608219 29.320688 20.691406 29.554688 20.691406C29.718688 20.691406 29.883203 20.650359 30.033203 20.568359L38.117188 16.167969C38.172517 16.137851 38.208677 16.089158 38.255859 16.050781C38.600697 16.559872 38.907898 17.094152 39.193359 17.642578C39.053736 17.664249 38.916031 17.710851 38.791016 17.794922L31.308594 22.800781C30.972594 23.025781 30.806766 23.429172 30.884766 23.826172C30.961766 24.215172 31 24.611 31 25C31 25.389 30.960813 25.784828 30.882812 26.173828C30.803812 26.569828 30.970688 26.972266 31.304688 27.197266L38.927734 32.328125C38.99973 32.376543 39.075808 32.40998 39.154297 32.4375C38.870539 32.975317 38.561756 33.49653 38.220703 33.996094C38.158522 33.936248 38.100732 33.871678 38.021484 33.828125L33.730469 31.466797C33.664469 31.426797 33.601297 31.380422 33.529297 31.357422L30.035156 29.433594C29.670156 29.231594 29.218344 29.279781 28.902344 29.550781C28.335344 30.036781 27.689469 30.410203 26.980469 30.658203C26.597469 30.792203 26.3325 31.144781 26.3125 31.550781L25.847656 40.615234C25.841626 40.734121 25.865782 40.847458 25.898438 40.955078C25.598815 40.971861 25.301796 41 24.998047 41C24.694628 41 24.398906 40.971829 24.099609 40.955078C24.131696 40.849416 24.155676 40.739529 24.150391 40.623047L23.742188 31.578125C23.724187 31.165125 23.456406 30.806828 23.066406 30.673828C22.324406 30.421828 21.646734 30.029766 21.052734 29.509766C20.738734 29.234766 20.286922 29.183813 19.919922 29.382812L11.697266 33.875C11.355136 33.363741 11.050081 32.827746 10.767578 32.277344C10.90933 32.256613 11.050099 32.215949 11.177734 32.130859L18.679688 27.128906C19.012687 26.905906 19.181422 26.505328 19.107422 26.111328C19.035422 25.730328 19 25.357 19 25C19 24.643 19.035422 24.269672 19.107422 23.888672C19.181422 23.494672 19.013687 23.094094 18.679688 22.871094L11.177734 17.876953C11.050413 17.792257 10.909474 17.745504 10.767578 17.724609C11.065466 17.144075 11.385922 16.577873 11.75 16.041016C11.838923 16.185323 11.951355 16.316103 12.111328 16.402344L19.921875 20.615234C20.070875 20.696234 20.234484 20.736328 20.396484 20.736328C20.633484 20.736328 20.867688 20.652281 21.054688 20.488281C21.647687 19.968281 22.324406 19.577219 23.066406 19.324219C23.455406 19.191219 23.724187 18.832875 23.742188 18.421875L24.152344 9.3359375C24.156977 9.2336369 24.131756 9.1391112 24.107422 9.0449219C24.404159 9.0284586 24.69726 9 24.998047 9 z M 22.152344 9.2675781L21.96875 13.390625C19.90775 13.925625 18.048297 14.993719 16.529297 16.511719L13.0625 14.640625C13.002898 14.608569 12.939145 14.603074 12.876953 14.583984C15.223455 11.856725 18.469082 9.9325147 22.152344 9.2675781 z M 27.847656 9.2695312C31.483771 9.9267197 34.690008 11.812101 37.029297 14.484375L33.412109 16.451172C31.923109 14.988172 30.067594 13.931391 28.058594 13.400391L27.847656 9.2695312 z M 39.964844 19.392578C40.622249 21.140718 41 23.024823 41 25C41 26.977996 40.622085 28.865013 39.962891 30.615234L36.529297 28.302734C36.835297 27.232734 37 26.126 37 25C37 23.878 36.839156 22.776938 36.535156 21.710938L39.902344 19.455078C39.927844 19.438023 39.941434 19.41149 39.964844 19.392578 z M 10.003906 19.476562C10.027992 19.496072 10.042063 19.523484 10.068359 19.541016L13.441406 21.787109C13.152406 22.829109 13 23.906 13 25C13 26.095 13.155312 27.171844 13.445312 28.214844L10.068359 30.466797C10.042859 30.483852 10.029275 30.51039 10.005859 30.529297C9.3672041 28.802932 9 26.945804 9 25C9 23.056369 9.3666108 21.20131 10.003906 19.476562 z M 25 21C22.794 21 21 22.794 21 25C21 27.206 22.794 29 25 29C27.206 29 29 27.206 29 25C29 22.794 27.206 21 25 21 z M 25 23C26.103 23 27 23.897 27 25C27 26.103 26.103 27 25 27C23.897 27 23 26.103 23 25C23 23.897 23.897 23 25 23 z M 16.523438 33.486328C18.029438 34.987328 19.917797 36.069469 21.966797 36.605469L22.152344 40.712891C22.152653 40.719798 22.155802 40.725554 22.15625 40.732422C18.498798 40.073058 15.274794 38.170748 12.931641 35.474609L16.523438 33.486328 z M 33.396484 33.564453L37 35.548828C34.661929 38.204959 31.465244 40.078951 27.841797 40.732422C27.842126 40.72751 27.845444 40.723682 27.845703 40.71875L28.056641 36.599609C30.058641 36.070609 31.910484 35.018453 33.396484 33.564453 z" />
</svg>