<?xml version="1.0" encoding="utf-8"?>
<svg xmlns="http://www.w3.org/2000/svg" viewBox="0 0 50 50" width="515" height="515">
  <path d="M4.992188 3.992188C4.582031 3.992188 4.21875 4.238281 4.0625 4.613281C3.910156 4.992188 4 5.421875 4.292969 5.707031L9.3125 10.726563L15.371094 16.78125L18.515625 19.933594L25.613281 27.03125L44.292969 45.707031C44.542969 45.96875 44.917969 46.074219 45.265625 45.980469C45.617188 45.890625 45.890625 45.617188 45.980469 45.265625C46.074219 44.917969 45.96875 44.542969 45.707031 44.292969L28.992188 27.578125C31.347656 28.234375 33.535156 29.457031 35.359375 31.210938L36.078125 31.90625L41.640625 26.113281L40.917969 25.421875C36.605469 21.28125 30.953125 19 25 19C23.582031 19 22.183594 19.144531 20.8125 19.398438L17.488281 16.074219C19.902344 15.371094 22.425781 15 25 15C31.984375 15 38.621094 17.679688 43.683594 22.539063L44.40625 23.230469L49.941406 17.464844L49.21875 16.769531C42.660156 10.46875 34.058594 7 25 7C20.207031 7 15.546875 7.980469 11.246094 9.828125L5.707031 4.292969C5.519531 4.097656 5.261719 3.992188 4.992188 3.992188 Z M 7.476563 11.71875C5.078125 13.113281 2.828125 14.804688 0.78125 16.773438L0.0625 17.464844L5.597656 23.234375L6.320313 22.539063C8.429688 20.511719 10.820313 18.867188 13.394531 17.636719 Z M 16.421875 20.660156C13.726563 21.75 11.238281 23.351563 9.085938 25.421875L8.363281 26.113281L13.921875 31.90625L14.644531 31.210938C16.953125 28.988281 19.839844 27.601563 22.921875 27.164063 Z M 25 31C22.15625 31 19.453125 32.089844 17.390625 34.074219L16.671875 34.765625L25 43.441406L31.953125 36.199219L26.9375 31.175781C26.300781 31.0625 25.65625 31 25 31Z" />
</svg>