<?xml version="1.0" encoding="utf-8"?>
<svg xmlns="http://www.w3.org/2000/svg" viewBox="0 0 50 50" width="515" height="515">
  <path d="M25 7C15.9 7 7.3007812 10.499219 0.80078125 16.699219L0.099609375 17.400391L5.5996094 23.199219L6.3007812 22.5C11.400781 17.7 18 15 25 15C32 15 38.599219 17.7 43.699219 22.5L44.400391 23.199219L49.900391 17.5L49.199219 16.800781C42.699219 10.500781 34.1 7 25 7 z M 25 19C19 19 13.4 21.300391 9 25.400391L8.3007812 26.099609L13.900391 31.900391L14.599609 31.199219C17.499609 28.499219 21.1 27 25 27C28.9 27 32.500391 28.499219 35.400391 31.199219L36.099609 31.900391L41.599609 26.099609L40.900391 25.400391C36.600391 21.300391 31 19 25 19 z M 25 30.900391C22.2 30.900391 19.500391 32 17.400391 34L16.699219 34.699219L25 43.400391L33.300781 34.699219L32.599609 34C30.499609 32 27.8 30.900391 25 30.900391 z" />
</svg>