<?xml version="1.0" encoding="utf-8"?>
<svg xmlns="http://www.w3.org/2000/svg" viewBox="0 0 50 50" width="515" height="515">
  <path d="M35.199219 43.898438C32.699219 43.5 26 41.601563 26 38.101563L26 32C33.398438 31.5 39 26 39 19C39 10.898438 36.101563 3 35.898438 2.601563L35.699219 2L14.300781 2L14.101563 2.601563C13.898438 3 11 10.898438 11 19C11 26 16.601563 31.5 24 32L24 38.199219C24 41.699219 17.398438 43.601563 14.800781 44C13.398438 44.300781 12 45.5 12 47C12 47.601563 12.398438 48 13 48L37 48C37.601563 48 38 47.601563 38 47C38 46.898438 38 46.800781 38 46.699219C37.800781 45.300781 36.5 44.300781 35.199219 43.898438 Z M 15.699219 4L34.300781 4C34.699219 5.199219 35.5 7.800781 36.199219 11C36.199219 11 36.199219 11 36.101563 11L13.898438 11C14.5 7.800781 15.300781 5.199219 15.699219 4Z" />
</svg>