<?xml version="1.0" encoding="utf-8"?>
<svg xmlns="http://www.w3.org/2000/svg" viewBox="0 0 50 50" width="515" height="515">
  <path d="M25.40625 2C22.382813 2 19.90625 4.476563 19.90625 7.5C19.90625 10.523438 22.382813 13 25.40625 13C28.429688 13 30.90625 10.523438 30.90625 7.5C30.90625 4.476563 28.429688 2 25.40625 2 Z M 25.5 14.03125C19.375 14.03125 16.847656 18.953125 16.28125 21.03125C16.28125 21.03125 14.25 28.335938 14.25 28.4375C13.574219 30.195313 15.003906 32.273438 16.75 32.53125L20.15625 21.40625C20.164063 21.378906 20.175781 21.335938 20.1875 21.3125C20.269531 21.148438 20.429688 21.03125 20.625 21.03125C20.902344 21.03125 21.125 21.253906 21.125 21.53125C21.125 21.570313 21.101563 21.617188 21.09375 21.65625L17.0625 34.59375C16.960938 34.894531 17.042969 35.199219 17.1875 35.5C17.386719 35.800781 17.664063 36 18.0625 36L32.9375 36C33.335938 36 33.613281 35.800781 33.8125 35.5C33.957031 35.199219 34.039063 34.894531 33.9375 34.59375L29.90625 21.65625C29.898438 21.617188 29.875 21.570313 29.875 21.53125C29.875 21.253906 30.097656 21.03125 30.375 21.03125C30.570313 21.03125 30.730469 21.148438 30.8125 21.3125C30.824219 21.335938 30.835938 21.378906 30.84375 21.40625L34.25 32.53125C35.996094 32.273438 37.425781 30.195313 36.75 28.4375C36.75 28.335938 34.71875 21.03125 34.71875 21.03125C34.152344 18.953125 31.625 14.03125 25.5 14.03125 Z M 21 37L21 46C21 47.101563 21.898438 48 23 48C24.101563 48 25 47.101563 25 46L25 37 Z M 26 37L26 46C26 47.101563 26.898438 48 28 48C29.101563 48 30 47.101563 30 46L30 37Z" />
</svg>