<?xml version="1.0" encoding="utf-8"?>
<svg xmlns="http://www.w3.org/2000/svg" viewBox="0 0 50 50" width="515" height="515">
  <path d="M32.15625 1C31.617188 1 31.136719 1.433594 31.03125 2L31 2L31 8.40625C31.441406 9.488281 31.726563 10.597656 31.875 11.71875C33.292969 12.714844 33.996094 14.472656 34 17C39.714844 16.902344 43.101563 16.007813 43.25 15.96875L44 15.78125L44 15C44 12.429688 43.105469 11.640625 42.15625 11.3125C41.996094 8.253906 40.367188 4.421875 37 3.3125L37 10C37 10.550781 36.554688 11 36 11C35.445313 11 35 10.550781 35 10L35 2L34.96875 2C34.863281 1.433594 34.382813 1 33.84375 1 Z M 19.15625 2C18.546875 2 18 2.539063 18 3.21875L18 11C18 11.550781 17.550781 12 17 12C16.449219 12 16 11.550781 16 11L16 4.21875C12.238281 5.253906 10.152344 9.164063 10 13C8.972656 13.367188 8 14.199219 8 17L8 17.78125L8.75 17.96875C8.917969 18.011719 12.953125 19 20 19C27.050781 19 31.082031 18.011719 31.25 17.96875L32 17.78125L32 17C32 14.179688 31.03125 13.355469 30 13C29.847656 9.167969 27.757813 5.253906 24 4.21875L24 11C24 11.550781 23.554688 12 23 12C22.445313 12 22 11.550781 22 11L22 3.21875C22 2.539063 21.453125 2 20.84375 2 Z M 29 3.34375C28.570313 3.496094 28.144531 3.691406 27.75 3.9375C28.203125 4.296875 28.621094 4.726563 29 5.15625 Z M 41.15625 18.40625C39.480469 18.667969 37.054688 18.949219 34 19L34 19.34375L32.5 19.71875L31.71875 19.90625C31.710938 19.910156 31.699219 19.902344 31.6875 19.90625C31.851563 20.5625 31.898438 21.265625 31.8125 21.96875C31.535156 24.292969 30.679688 25.613281 29.78125 26.375C29.371094 27.886719 28.648438 29.417969 27.84375 30.5C27.835938 31.257813 27.824219 31.925781 27.875 32.6875C28.417969 33.300781 30.25 34.019531 31.625 34.5625C34.789063 35.8125 39.246094 37.582031 41.125 42L49.96875 42L49.90625 40.9375C49.59375 35.738281 45.480469 33.964844 42.1875 32.53125C40.359375 31.734375 38.636719 30.972656 38.125 29.84375C38.050781 28.910156 38.054688 28.183594 38.0625 27.34375L38.0625 27C38.859375 26.167969 39.59375 24.527344 39.875 23.15625C40.492188 22.808594 41.214844 22.003906 41.4375 20.15625C41.523438 19.445313 41.390625 18.867188 41.15625 18.40625 Z M 10.28125 20.28125C10.160156 20.695313 10.089844 21.171875 10.15625 21.71875C10.421875 23.921875 11.277344 24.828125 12 25.1875C12.34375 26.917969 13.296875 28.863281 14.21875 29.78125L14.21875 30.25C14.226563 31.265625 14.222656 32.144531 14.125 33.28125C13.511719 34.6875 11.476563 35.511719 9.125 36.4375C5.21875 37.972656 0.363281 39.871094 0 45.9375L-0.0625 47L40.0625 47L40 45.9375C39.636719 39.875 34.800781 37.972656 30.90625 36.4375C28.566406 35.511719 26.515625 34.6875 25.90625 33.28125C25.808594 32.144531 25.835938 31.261719 25.84375 30.25L25.84375 29.78125C26.742188 28.863281 27.664063 26.921875 28 25.1875C28.703125 24.824219 29.582031 23.914063 29.84375 21.71875C29.910156 21.175781 29.835938 20.722656 29.71875 20.3125C27.777344 20.625 24.492188 21 20 21C15.539063 21 12.230469 20.59375 10.28125 20.28125Z" />
</svg>