<?xml version="1.0" encoding="utf-8"?>
<svg xmlns="http://www.w3.org/2000/svg" viewBox="0 0 50 50" width="515" height="515">
  <path d="M47.390625 10.242188L46.882813 8.703125L38.757813 16.824219L34.769531 15.230469L33.175781 11.238281L41.296875 3.113281L39.757813 2.605469C38.53125 2.203125 37.269531 2 36 2C29.382813 2 24 7.382813 24 14C24 15.480469 24.269531 16.925781 24.808594 18.308594L3.425781 39.6875C2.507813 40.605469 2 41.828125 2 43.132813C2 44.433594 2.507813 45.652344 3.425781 46.574219C4.375 47.523438 5.621094 47.996094 6.867188 47.996094C8.117188 47.996094 9.363281 47.523438 10.3125 46.574219L31.691406 25.195313C33.074219 25.730469 34.519531 26 36 26C42.617188 26 48 20.617188 48 14C48 12.730469 47.796875 11.46875 47.390625 10.242188Z" />
</svg>