<?xml version="1.0" encoding="utf-8"?>
<svg xmlns="http://www.w3.org/2000/svg" viewBox="0 0 50 50" width="515" height="515">
  <path d="M29.5 17C34.398438 17 34.699219 21.699219 34.699219 25C34.699219 28.199219 34.398438 33 29.5 33C24.101563 33 24.300781 27.5 24.300781 25C24.300781 21.699219 24.5 17 29.5 17 Z M 29.5 31.398438C32.199219 31.398438 32.800781 28.398438 32.800781 25.101563C32.800781 24.699219 33.398438 18.800781 29.5 18.800781C25.601563 18.800781 26.199219 24.800781 26.199219 25.101563C26.199219 25.601563 25.800781 31.398438 29.5 31.398438 Z M 19.101563 32.898438L19.101563 21.601563L15 21.601563L15 20.101563C17.398438 20 19.101563 19.5 19.5 17.101563L21 17.101563L21 32.898438 Z M 40 11C42.800781 11 45 13.199219 45 16L45 34C45 36.800781 42.800781 39 40 39L10 39C7.199219 39 5 36.800781 5 34L5 16C5 13.199219 7.199219 11 10 11L40 11 M 40 9L10 9C6.101563 9 3 12.101563 3 16L3 34C3 37.898438 6.101563 41 10 41L40 41C43.898438 41 47 37.898438 47 34L47 16C47 12.101563 43.898438 9 40 9Z" />
</svg>