<?xml version="1.0" encoding="utf-8"?>
<svg xmlns="http://www.w3.org/2000/svg" viewBox="0 0 50 50" width="515" height="515">
  <path d="M3.984375 3 A 1.0001 1.0001 0 0 0 3.8183594 3.0175781 A 1.0001 1.0001 0 0 0 3.7695312 3.0273438 A 1.0001 1.0001 0 0 0 3.7128906 3.0429688 A 1.0001 1.0001 0 0 0 3.6953125 3.0488281 A 1.0001 1.0001 0 0 0 3.5292969 3.1191406 A 1.0001 1.0001 0 0 0 3.5097656 3.1308594 A 1.0001 1.0001 0 0 0 3.2226562 3.3730469 A 1.0001 1.0001 0 0 0 3.203125 3.3984375 A 1.0001 1.0001 0 0 0 3.1699219 3.4453125 A 1.0001 1.0001 0 0 0 3.1386719 3.4960938 A 1.0001 1.0001 0 0 0 3.1171875 3.5332031 A 1.0001 1.0001 0 0 0 3.1015625 3.5644531 A 1.0001 1.0001 0 0 0 3.0371094 3.7304688 A 1.0001 1.0001 0 0 0 3.0371094 3.7324219 A 1.0001 1.0001 0 0 0 3.0351562 3.7382812 A 1.0001 1.0001 0 0 0 3.0175781 3.8203125 A 1.0001 1.0001 0 0 0 3.0136719 3.8476562 A 1.0001 1.0001 0 0 0 3 4L3 34.75 A 1.0001 1.0001 0 0 0 3.2246094 35.382812L13.224609 47.632812 A 1.0001 1.0001 0 0 0 13.230469 47.638672 A 1.0001 1.0001 0 0 0 13.248047 47.658203 A 1.0001 1.0001 0 0 0 13.302734 47.716797 A 1.0001 1.0001 0 0 0 13.378906 47.783203 A 1.0001 1.0001 0 0 0 13.458984 47.841797 A 1.0001 1.0001 0 0 0 13.830078 47.986328 A 1.0001 1.0001 0 0 0 13.929688 47.998047 A 1.0001 1.0001 0 0 0 14.039062 48L46 48 A 1.0001 1.0001 0 0 0 47 47L47 15 A 1.0001 1.0001 0 0 0 47 14.992188 A 1.0001 1.0001 0 0 0 46.994141 14.900391 A 1.0001 1.0001 0 0 0 46.984375 14.835938 A 1.0001 1.0001 0 0 0 46.972656 14.771484 A 1.0001 1.0001 0 0 0 46.947266 14.685547 A 1.0001 1.0001 0 0 0 46.945312 14.675781 A 1.0001 1.0001 0 0 0 46.939453 14.664062 A 1.0001 1.0001 0 0 0 46.908203 14.583984 A 1.0001 1.0001 0 0 0 46.876953 14.521484 A 1.0001 1.0001 0 0 0 46.835938 14.453125 A 1.0001 1.0001 0 0 0 46.826172 14.435547 A 1.0001 1.0001 0 0 0 46.808594 14.410156 A 1.0001 1.0001 0 0 0 46.787109 14.384766 A 1.0001 1.0001 0 0 0 46.751953 14.339844 A 1.0001 1.0001 0 0 0 46.746094 14.333984 A 1.0001 1.0001 0 0 0 46.697266 14.283203 A 1.0001 1.0001 0 0 0 46.693359 14.279297 A 1.0001 1.0001 0 0 0 46.667969 14.255859L34.417969 3.2558594 A 1.0001 1.0001 0 0 0 33.75 3L4 3 A 1.0001 1.0001 0 0 0 3.984375 3 z M 6.2597656 5L33.367188 5L43.390625 14L29.369141 14L23.818359 9.2402344 A 1.0001 1.0001 0 0 0 23.167969 9L9.8964844 9L6.2597656 5 z M 5 6.5878906L8.0058594 9.8984375 A 1.0001 1.0001 0 0 0 8.0019531 9.9648438 A 1.0001 1.0001 0 0 0 8 10 A 1.0001 1.0001 0 0 0 8 10.029297L8 24.167969 A 1.0001 1.0001 0 0 0 8.2402344 24.818359L13 30.371094L13 44.193359L5 34.394531L5 6.5878906 z M 11.714844 11L22.796875 11L26.296875 14L14.441406 14L11.714844 11 z M 10 12.414062L13 15.414062L13 27.296875L10 23.796875L10 12.414062 z M 15 16L28 16L28 29L21.154297 29 A 1.0001 1.0001 0 0 0 20.984375 28.986328 A 1.0001 1.0001 0 0 0 20.839844 29L15 29L15 16 z M 30 16L45 16L45 46L15 46L15 31L20 31L20 39.585938L18.707031 38.292969 A 1.0001 1.0001 0 0 0 17.990234 37.990234 A 1.0001 1.0001 0 0 0 17.292969 39.707031L20.150391 42.564453 A 1.0001 1.0001 0 0 0 21.005859 43.013672 A 1.0001 1.0001 0 0 0 21.009766 43.013672 A 1.0001 1.0001 0 0 0 21.013672 43.013672 A 1.0001 1.0001 0 0 0 21.853516 42.560547L24.707031 39.707031 A 1.0001 1.0001 0 0 0 23.980469 37.990234 A 1.0001 1.0001 0 0 0 23.292969 38.292969L22 39.585938L22 31L29 31 A 1.0001 1.0001 0 0 0 30 30L30 23L39.585938 23L38.292969 24.292969 A 1.0001 1.0001 0 1 0 39.707031 25.707031L42.601562 22.8125 A 1.0001 1.0001 0 0 0 43.005859 22.089844 A 1.0001 1.0001 0 0 0 43.009766 22.011719 A 1.0001 1.0001 0 0 0 43.009766 22.003906 A 1.0001 1.0001 0 0 0 42.59375 21.179688L39.707031 18.292969 A 1.0001 1.0001 0 0 0 38.990234 17.990234 A 1.0001 1.0001 0 0 0 38.292969 19.707031L39.585938 21L30 21L30 16 z" />
</svg>