<?xml version="1.0" encoding="utf-8"?>
<svg xmlns="http://www.w3.org/2000/svg" viewBox="0 0 50 50" width="515" height="515">
  <path d="M23 2C21.277778 2 19.700066 2.6109179 18.623047 3.8417969C17.717636 4.8765528 17.192833 6.2899707 17.046875 8L8 8C6.3545455 8 5 9.3545455 5 11L5 44C5 45.645455 6.3545455 47 8 47L42 47C43.645455 47 45 45.645455 45 44L45 11C45 9.3545455 43.645455 8 42 8L41 8C39.562821 8 36.21502 6.5899937 32.818359 5.0859375C29.421699 3.5818813 25.9 2 23 2 z M 23 4C25.1 4 28.629473 5.4181187 32.007812 6.9140625C32.831787 7.2789221 33.641397 7.6483844 34.431641 8L19.064453 8C19.201014 6.7132295 19.586904 5.7754025 20.126953 5.1582031C20.799934 4.3890821 21.722222 4 23 4 z M 8 10L17 10L17 13L7 13L7 11C7 10.445455 7.4454545 10 8 10 z M 19 10L41 10L42 10C42.554545 10 43 10.445455 43 11L43 13L19 13L19 10 z M 7 15L15 15L15 16C15 17.1 15.9 18 17 18L17 19L19 19L19 18C20.1 18 21 17.1 21 16L21 15L43 15L43 40L7 40L7 15 z M 25 18.927734L24.636719 19.068359L15 22.816406L15 35.183594L25 39.072266L35 35.183594L35 22.816406L25 18.927734 z M 25 21.072266L32 23.794922L25 26.90625L18 23.794922L25 21.072266 z M 17 25.539062L24 28.650391L24 36.539062L17 33.816406L17 25.539062 z M 33 25.539062L33 33.816406L26 36.539062L26 28.650391L33 25.539062 z M 7 42L43 42L43 44C43 44.554545 42.554545 45 42 45L8 45C7.4454545 45 7 44.554545 7 44L7 42 z" />
</svg>