<?xml version="1.0" encoding="utf-8"?>
<svg xmlns="http://www.w3.org/2000/svg" viewBox="0 0 50 50" width="515" height="515">
  <path d="M25 13C19.183594 13 13.34375 13.859375 8.851563 15.605469C6.605469 16.480469 4.6875 17.570313 3.285156 18.953125C1.882813 20.339844 1 22.066406 1 24C1 25.765625 1.734375 27.363281 2.929688 28.671875C4.121094 29.984375 5.765625 31.042969 7.703125 31.910156C11.339844 33.542969 16.074219 34.457031 21 34.796875L21 41.046875L32.628906 32L21 22.953125L21 28.777344C16.699219 28.4375 13.101563 27.644531 10.683594 26.65625C9.367188 26.121094 8.371094 25.539063 7.757813 25.019531C7.148438 24.503906 7 24.097656 7 24C7 23.894531 7.195313 23.40625 7.949219 22.824219C8.703125 22.238281 9.910156 21.59375 11.488281 21.023438C14.652344 19.878906 19.304688 19 25 19C30.695313 19 35.347656 19.878906 38.511719 21.023438C40.089844 21.59375 41.296875 22.238281 42.050781 22.824219C42.804688 23.40625 43 23.894531 43 24C43 24.121094 42.683594 24.777344 41.613281 25.484375C40.546875 26.1875 38.875 26.929688 36.730469 27.535156L36 27.746094L36 33.917969L37.238281 33.609375C40.492188 32.808594 43.347656 31.664063 45.46875 30.101563C47.585938 28.539063 49 26.457031 49 24C49 22.066406 48.117188 20.339844 46.714844 18.953125C45.3125 17.570313 43.394531 16.480469 41.148438 15.605469C36.65625 13.859375 30.816406 13 25 13 Z M 25 15C30.613281 15 36.273438 15.859375 40.421875 17.46875C42.5 18.277344 44.1875 19.273438 45.3125 20.378906C46.4375 21.488281 47 22.652344 47 24C47 25.710938 46.078125 27.167969 44.28125 28.488281C42.746094 29.621094 40.515625 30.535156 38 31.265625L38 29.15625C39.878906 28.558594 41.574219 27.90625 42.71875 27.152344C44.039063 26.277344 45 25.3125 45 24C45 22.882813 44.269531 22.011719 43.273438 21.238281C42.277344 20.46875 40.910156 19.765625 39.1875 19.140625C35.75 17.898438 30.902344 17 25 17C19.097656 17 14.25 17.898438 10.8125 19.140625C9.089844 19.765625 7.722656 20.46875 6.726563 21.238281C5.730469 22.011719 5 22.882813 5 24C5 25.015625 5.621094 25.835938 6.46875 26.550781C7.320313 27.265625 8.476563 27.917969 9.929688 28.511719C12.832031 29.695313 16.925781 30.628906 21.945313 30.90625L23 30.96875L23 27.042969L29.375 32L23 36.957031L23 32.96875L22.050781 32.921875C16.960938 32.652344 12.054688 31.671875 8.523438 30.089844C6.753906 29.296875 5.34375 28.351563 4.40625 27.328125C3.46875 26.300781 3 25.230469 3 24C3 22.652344 3.5625 21.488281 4.6875 20.378906C5.8125 19.273438 7.5 18.277344 9.578125 17.46875C13.726563 15.859375 19.386719 15 25 15Z" />
</svg>