<?xml version="1.0" encoding="utf-8"?>
<svg xmlns="http://www.w3.org/2000/svg" viewBox="0 0 50 50" width="515" height="515">
  <path d="M8.6738281 0L7.5507812 2.3320312L5 2.6386719L6.9394531 4.3613281L6.4296875 7L8.6738281 5.6816406L10.917969 7L10.408203 4.3613281L12.347656 2.6386719L9.796875 2.3320312L8.6738281 0 z M 10.917969 7L9.3007812 7C6.3730036 7 4 9.3730039 4 12.300781L4 45 A 1.0001 1.0001 0 0 0 5 46L45 46 A 1.0001 1.0001 0 0 0 46 45L46 12.300781C46 9.3730039 43.626997 7 40.699219 7L39.082031 7L35.408203 7L30.917969 7L27.244141 7L22.755859 7L19.082031 7L14.591797 7L10.917969 7 z M 14.591797 7L16.837891 5.6816406L19.082031 7L18.570312 4.3613281L20.509766 2.6386719L17.958984 2.3320312L16.837891 0L15.714844 2.3320312L13.162109 2.6386719L15.101562 4.3613281L14.591797 7 z M 22.755859 7L25 5.6816406L27.244141 7L26.734375 4.3613281L28.673828 2.6386719L26.121094 2.3320312L25 0L23.878906 2.3320312L21.326172 2.6386719L23.265625 4.3613281L22.755859 7 z M 30.917969 7L33.162109 5.6816406L35.408203 7L34.898438 4.3613281L36.837891 2.6386719L34.285156 2.3320312L33.162109 0L32.041016 2.3320312L29.490234 2.6386719L31.429688 4.3613281L30.917969 7 z M 39.082031 7L41.326172 5.6816406L43.570312 7L43.060547 4.3613281L45 2.6386719L42.449219 2.3320312L41.326172 0L40.203125 2.3320312L37.652344 2.6386719L39.591797 4.3613281L39.082031 7 z M 9.3007812 9L40.699219 9C42.571441 9 44 10.428559 44 12.300781L44 44L29 44L29 36 A 1.0001 1.0001 0 0 0 28 35L22 35 A 1.0001 1.0001 0 0 0 21 36L21 44L6 44L6 12.300781C6 10.428559 7.4285592 9 9.3007812 9 z M 10 11 A 1.0001 1.0001 0 0 0 9 12L9 16 A 1.0001 1.0001 0 0 0 10 17L16 17 A 1.0001 1.0001 0 0 0 17 16L17 12 A 1.0001 1.0001 0 0 0 16 11L10 11 z M 22 11 A 1.0001 1.0001 0 0 0 21 12L21 16 A 1.0001 1.0001 0 0 0 22 17L28 17 A 1.0001 1.0001 0 0 0 29 16L29 12 A 1.0001 1.0001 0 0 0 28 11L22 11 z M 34 11 A 1.0001 1.0001 0 0 0 33 12L33 16 A 1.0001 1.0001 0 0 0 34 17L40 17 A 1.0001 1.0001 0 0 0 41 16L41 12 A 1.0001 1.0001 0 0 0 40 11L34 11 z M 11 13L15 13L15 15L11 15L11 13 z M 23 13L27 13L27 15L23 15L23 13 z M 35 13L39 13L39 15L35 15L35 13 z M 10 19 A 1.0001 1.0001 0 0 0 9 20L9 24 A 1.0001 1.0001 0 0 0 10 25L16 25 A 1.0001 1.0001 0 0 0 17 24L17 20 A 1.0001 1.0001 0 0 0 16 19L10 19 z M 22 19 A 1.0001 1.0001 0 0 0 21 20L21 24 A 1.0001 1.0001 0 0 0 22 25L28 25 A 1.0001 1.0001 0 0 0 29 24L29 20 A 1.0001 1.0001 0 0 0 28 19L22 19 z M 34 19 A 1.0001 1.0001 0 0 0 33 20L33 24 A 1.0001 1.0001 0 0 0 34 25L40 25 A 1.0001 1.0001 0 0 0 41 24L41 20 A 1.0001 1.0001 0 0 0 40 19L34 19 z M 11 21L15 21L15 23L11 23L11 21 z M 23 21L27 21L27 23L23 23L23 21 z M 35 21L39 21L39 23L35 23L35 21 z M 10 27 A 1.0001 1.0001 0 0 0 9 28L9 32 A 1.0001 1.0001 0 0 0 10 33L16 33 A 1.0001 1.0001 0 0 0 17 32L17 28 A 1.0001 1.0001 0 0 0 16 27L10 27 z M 22 27 A 1.0001 1.0001 0 0 0 21 28L21 32 A 1.0001 1.0001 0 0 0 22 33L28 33 A 1.0001 1.0001 0 0 0 29 32L29 28 A 1.0001 1.0001 0 0 0 28 27L22 27 z M 34 27 A 1.0001 1.0001 0 0 0 33 28L33 32 A 1.0001 1.0001 0 0 0 34 33L40 33 A 1.0001 1.0001 0 0 0 41 32L41 28 A 1.0001 1.0001 0 0 0 40 27L34 27 z M 11 29L15 29L15 31L11 31L11 29 z M 23 29L27 29L27 31L23 31L23 29 z M 35 29L39 29L39 31L35 31L35 29 z M 10 35 A 1.0001 1.0001 0 0 0 9 36L9 40 A 1.0001 1.0001 0 0 0 10 41L16 41 A 1.0001 1.0001 0 0 0 17 40L17 36 A 1.0001 1.0001 0 0 0 16 35L10 35 z M 34 35 A 1.0001 1.0001 0 0 0 33 36L33 40 A 1.0001 1.0001 0 0 0 34 41L40 41 A 1.0001 1.0001 0 0 0 41 40L41 36 A 1.0001 1.0001 0 0 0 40 35L34 35 z M 11 37L15 37L15 39L11 39L11 37 z M 23 37L27 37L27 44L23 44L23 37 z M 35 37L39 37L39 39L35 39L35 37 z" />
</svg>