<?xml version="1.0" encoding="utf-8"?>
<svg xmlns="http://www.w3.org/2000/svg" viewBox="0 0 50 50" width="515" height="515">
  <path d="M10 9C6.132813 9 3 12.132813 3 16L3 34C3 37.867188 6.132813 41 10 41L40 41C43.867188 41 47 37.867188 47 34L47 16C47 12.132813 43.867188 9 40 9 Z M 10 11L40 11C42.757813 11 45 13.242188 45 16L45 34C45 36.757813 42.757813 39 40 39L10 39C7.242188 39 5 36.757813 5 34L5 16C5 13.242188 7.242188 11 10 11 Z M 25.96875 17C20.066406 17 20.15625 24.355469 20.15625 25.46875C20.15625 32.058594 23.308594 33 25.53125 33C29.722656 33 30.84375 29.742188 30.84375 27.6875C30.847656 26.917969 30.597656 22.5625 26.0625 22.5625C23.582031 22.5625 22.554688 23.941406 22.125 24.625L22.03125 24.53125C22.03125 23.933594 22.023438 18.53125 25.875 18.53125C27.996094 18.53125 28.441406 20.140625 28.53125 21L30.40625 21C30.316406 19.707031 29.628906 17 25.96875 17 Z M 25.71875 24.09375C28.714844 24.09375 28.875 27.171875 28.875 27.6875C28.875 28.800781 28.371094 31.1875 25.71875 31.1875C24.691406 31.1875 22.46875 30.597656 22.46875 27.6875C22.46875 27.257813 22.640625 24.179688 25.71875 24.09375Z" />
</svg>