<?xml version="1.0" encoding="utf-8"?>
<svg xmlns="http://www.w3.org/2000/svg" viewBox="0 0 50 50" width="515" height="515">
  <path d="M10 9C6.132813 9 3 12.132813 3 16L3 34C3 37.867188 6.132813 41 10 41L40 41C43.867188 41 47 37.867188 47 34L47 16C47 12.132813 43.867188 9 40 9 Z M 10 11L40 11C42.757813 11 45 13.242188 45 16L45 34C45 36.757813 42.757813 39 40 39L10 39C7.242188 39 5 36.757813 5 34L5 16C5 13.242188 7.242188 11 10 11 Z M 20 17L20 18.84375L28.0625 18.84375C22.140625 25.121094 21.683594 31.585938 21.59375 33L23.8125 33C23.902344 31.675781 24.34375 24.785156 30 18.6875L30 17Z" />
</svg>