<?xml version="1.0" encoding="utf-8"?>
<svg xmlns="http://www.w3.org/2000/svg" viewBox="0 0 50 50" width="515" height="515">
  <path d="M26.03125 0.90625L25.625 1.09375L3.8125 10C3.652344 10.027344 3.503906 10.089844 3.375 10.1875L3.34375 10.1875C3.320313 10.207031 3.300781 10.226563 3.28125 10.25L3 10.34375L3 10.78125C2.960938 10.933594 2.960938 11.097656 3 11.25L3 35.59375L3.5 35.875L26.5 48.875C26.570313 48.914063 26.640625 48.945313 26.71875 48.96875L27.0625 49.15625L27.5 48.875C27.582031 48.824219 27.65625 48.761719 27.71875 48.6875L46.5625 35.8125L47 35.53125L47 11.0625C47 11.042969 47 11.019531 47 11L47 10.96875C47 10.9375 47 10.90625 47 10.875L47 10.34375L46.59375 10.1875C46.5625 10.164063 46.53125 10.144531 46.5 10.125L46.4375 10.09375C46.425781 10.09375 46.417969 10.09375 46.40625 10.09375L46.34375 10.0625C46.285156 10.035156 46.21875 10.015625 46.15625 10L26.40625 1.09375 Z M 25.96875 3.0625L43.78125 11.0625L26.9375 20.15625L6.5 11.03125 Z M 26.03125 7.28125C25.183594 7.320313 24.378906 7.449219 23.59375 7.65625C22.808594 7.863281 22.085938 8.132813 21.4375 8.46875C20.789063 8.804688 20.292969 9.160156 19.90625 9.5625C19.519531 9.964844 19.292969 10.386719 19.25 10.8125C19.207031 11.238281 19.347656 11.664063 19.6875 12.09375C20.027344 12.519531 20.609375 12.933594 21.40625 13.3125C22.003906 13.597656 22.621094 13.796875 23.28125 13.9375C23.9375 14.078125 24.605469 14.152344 25.28125 14.15625C25.957031 14.160156 26.632813 14.101563 27.3125 13.96875C27.992188 13.835938 28.648438 13.640625 29.28125 13.375L28.34375 12.90625C27.882813 13.101563 27.402344 13.238281 26.875 13.34375C26.347656 13.449219 25.820313 13.519531 25.28125 13.53125C24.742188 13.539063 24.1875 13.503906 23.65625 13.40625C23.121094 13.308594 22.628906 13.132813 22.15625 12.90625C21.484375 12.585938 21 12.261719 20.75 11.90625C20.5 11.550781 20.421875 11.195313 20.5 10.84375C20.578125 10.492188 20.777344 10.140625 21.125 9.8125C21.46875 9.484375 21.898438 9.203125 22.40625 8.9375C22.921875 8.667969 23.519531 8.433594 24.15625 8.25C24.792969 8.066406 25.460938 7.957031 26.15625 7.90625C26.847656 7.855469 27.535156 7.886719 28.25 8C28.960938 8.113281 29.652344 8.332031 30.3125 8.65625C30.675781 8.835938 30.988281 9.035156 31.21875 9.25C31.449219 9.464844 31.605469 9.671875 31.6875 9.90625C31.773438 10.136719 31.746094 10.386719 31.65625 10.625C31.566406 10.863281 31.394531 11.085938 31.125 11.3125L32.0625 11.78125C32.476563 11.5 32.75 11.1875 32.875 10.875C33 10.5625 33.015625 10.25 32.90625 9.9375C32.796875 9.625 32.570313 9.320313 32.25 9.03125C31.929688 8.742188 31.535156 8.484375 31.0625 8.25C30.28125 7.863281 29.453125 7.59375 28.59375 7.4375C27.730469 7.28125 26.875 7.242188 26.03125 7.28125 Z M 5 12.53125L26 21.96875L26 46.25L5 34.40625 Z M 45 12.65625L45 34.5L28 46.09375L28 21.875 Z M 39.125 21.5C38.984375 21.503906 38.816406 21.515625 38.65625 21.5625C38.332031 21.652344 37.980469 21.800781 37.625 22L33.96875 24.03125L33.96875 35.78125L37.65625 33.5C38.113281 33.214844 38.488281 32.910156 38.8125 32.59375C39.132813 32.28125 39.40625 31.96875 39.625 31.65625C39.84375 31.34375 40.027344 31.03125 40.15625 30.71875C40.285156 30.40625 40.367188 30.09375 40.4375 29.8125C40.507813 29.535156 40.570313 29.273438 40.59375 29.03125C40.617188 28.792969 40.625 28.585938 40.625 28.40625C40.625 27.667969 40.46875 27.15625 40.15625 26.84375C39.839844 26.527344 39.410156 26.46875 38.875 26.6875L38.875 26.65625C39.09375 26.464844 39.292969 26.230469 39.46875 25.96875C39.644531 25.707031 39.777344 25.425781 39.90625 25.125C40.03125 24.824219 40.148438 24.507813 40.21875 24.1875C40.289063 23.867188 40.3125 23.578125 40.3125 23.28125C40.3125 22.753906 40.238281 22.367188 40.09375 22.09375C39.949219 21.824219 39.742188 21.644531 39.5 21.5625C39.378906 21.523438 39.265625 21.496094 39.125 21.5 Z M 13.78125 22.5L9.71875 31.5L10.71875 32.03125L11.9375 29.25L16.6875 31.71875L18 35.9375L19.09375 36.53125L14.90625 23.03125 Z M 38.46875 22.59375C39.175781 22.460938 39.53125 22.933594 39.53125 24C39.53125 24.265625 39.484375 24.535156 39.40625 24.8125C39.328125 25.089844 39.21875 25.359375 39.0625 25.625C38.90625 25.890625 38.703125 26.136719 38.46875 26.375C38.234375 26.613281 37.949219 26.839844 37.625 27.03125L34.8125 28.6875L34.8125 24.53125L37.625 22.9375C37.941406 22.757813 38.234375 22.636719 38.46875 22.59375 Z M 14.3125 23.8125L16.34375 30.625L12.25 28.5 Z M 38.96875 27.5C39.082031 27.5 39.1875 27.496094 39.28125 27.53125C39.65625 27.671875 39.84375 28.113281 39.84375 28.84375C39.84375 29.296875 39.773438 29.722656 39.65625 30.09375C39.542969 30.46875 39.386719 30.820313 39.1875 31.125C38.984375 31.429688 38.765625 31.703125 38.5 31.9375C38.234375 32.171875 37.925781 32.375 37.625 32.5625L34.8125 34.3125L34.8125 29.65625L37.625 27.96875C38.160156 27.648438 38.625 27.5 38.96875 27.5Z" />
</svg>