<?xml version="1.0" encoding="utf-8"?>
<svg xmlns="http://www.w3.org/2000/svg" viewBox="0 0 50 50" width="515" height="515">
  <path d="M11 7C5.488281 7 1 11.488281 1 17C1 20.25 2.589844 23.113281 5 24.9375L5 25C5 26.292969 5.84375 27.394531 7 27.8125L7 40C6.992188 40.265625 7.09375 40.527344 7.28125 40.71875L9.28125 42.71875C9.472656 42.90625 9.734375 43.007813 10 43L12 43C12.265625 43.007813 12.527344 42.90625 12.71875 42.71875L14.71875 40.71875C14.90625 40.527344 15.007813 40.265625 15 40L15 27.8125C16.15625 27.394531 17 26.292969 17 25L17 24.9375C19.410156 23.113281 21 20.25 21 17C21 11.488281 16.511719 7 11 7 Z M 11 9C15.429688 9 19 12.570313 19 17C19 19.78125 17.582031 22.222656 15.4375 23.65625C15.167969 23.839844 15.003906 24.144531 15 24.46875L15 25C15 25.566406 14.566406 26 14 26L8 26C7.433594 26 7 25.566406 7 25L7 24.46875C6.996094 24.144531 6.832031 23.839844 6.5625 23.65625C4.417969 22.222656 3 19.78125 3 17C3 12.570313 6.570313 9 11 9 Z M 11 11C7.699219 11 5 13.699219 5 17C5 17.550781 5.449219 18 6 18L16 18C16.550781 18 17 17.550781 17 17C17 13.699219 14.300781 11 11 11 Z M 24.8125 12C24.335938 12.089844 23.992188 12.511719 24 13L24 21C24 21.550781 24.449219 22 25 22L47 22C47.550781 22 48 21.550781 48 21L48 13C48 12.449219 47.550781 12 47 12L25 12C24.96875 12 24.9375 12 24.90625 12C24.875 12 24.84375 12 24.8125 12 Z M 11 13C12.867188 13 14.363281 14.28125 14.8125 16L7.1875 16C7.636719 14.28125 9.132813 13 11 13 Z M 26 14L46 14L46 20L26 20 Z M 9 28L13 28L13 31L12 31L12 33L13 33L13 36L12 36L12 38L13 38L13 39.5625L11.5625 41L10.4375 41L9 39.5625 Z M 24.8125 28C24.335938 28.089844 23.992188 28.511719 24 29L24 37C24 37.550781 24.449219 38 25 38L47 38C47.550781 38 48 37.550781 48 37L48 29C48 28.449219 47.550781 28 47 28L25 28C24.96875 28 24.9375 28 24.90625 28C24.875 28 24.84375 28 24.8125 28 Z M 26 30L46 30L46 36L26 36Z" />
</svg>