<?xml version="1.0" encoding="utf-8"?>
<svg xmlns="http://www.w3.org/2000/svg" viewBox="0 0 50 50" width="515" height="515">
  <path d="M19 1C17.707031 1 16.605469 1.84375 16.1875 3L11.21875 3C11.117188 2.972656 11.011719 2.960938 10.90625 2.96875C10.875 2.976563 10.84375 2.988281 10.8125 3L5 3C3.355469 3 2 4.355469 2 6L2 41C2 42.644531 3.355469 44 5 44L23 44C23 45.644531 24.355469 47 26 47L44 47C45.644531 47 47 45.644531 47 44L47 21C47 19.355469 45.644531 18 44 18L36 18L36 6C36 4.355469 34.644531 3 33 3L21.8125 3C21.394531 1.84375 20.292969 1 19 1 Z M 19 3C19.5 3 19.882813 3.34375 19.96875 3.8125C19.945313 3.9375 19.945313 4.0625 19.96875 4.1875C19.882813 4.65625 19.5 5 19 5C18.46875 5 18.046875 4.613281 18 4.09375C18 4.0625 18 4.03125 18 4C18 3.4375 18.4375 3 19 3 Z M 5 5L10 5L10 8C10 9.644531 11.355469 11 13 11L25 11C26.644531 11 28 9.644531 28 8L28 5L33 5C33.566406 5 34 5.433594 34 6L34 18L26 18C24.355469 18 23 19.355469 23 21L23 42L5 42C4.433594 42 4 41.566406 4 41L4 6C4 5.433594 4.433594 5 5 5 Z M 12 5L16.1875 5C16.605469 6.15625 17.707031 7 19 7C20.292969 7 21.394531 6.15625 21.8125 5L26 5L26 8C26 8.566406 25.566406 9 25 9L13 9C12.433594 9 12 8.566406 12 8 Z M 13 15L13 21L11 21L11 18L9 18L9 21L7 21L7 23L21 23L21 21L19 21L19 17L17 17L17 21L15 21L15 15 Z M 26 20L44 20C44.566406 20 45 20.433594 45 21L45 44C45 44.566406 44.566406 45 44 45L26 45C25.433594 45 25 44.566406 25 44L25 43.1875C25.027344 43.054688 25.027344 42.914063 25 42.78125L25 21C25 20.433594 25.433594 20 26 20 Z M 27.8125 22C27.335938 22.089844 26.992188 22.511719 27 23L27 27C27 27.550781 27.449219 28 28 28L42 28C42.550781 28 43 27.550781 43 27L43 23C43 22.449219 42.550781 22 42 22L28 22C27.96875 22 27.9375 22 27.90625 22C27.875 22 27.84375 22 27.8125 22 Z M 29 24L41 24L41 26L29 26 Z M 13 27C9.699219 27 7 29.699219 7 33C7 36.300781 9.699219 39 13 39C16.300781 39 19 36.300781 19 33C19 29.699219 16.300781 27 13 27 Z M 13 29L13 33L17 33C17 35.222656 15.222656 37 13 37C10.777344 37 9 35.222656 9 33C9 30.777344 10.777344 29 13 29 Z M 28 30C27.449219 30 27 30.449219 27 31L27 32C27 32.550781 27.449219 33 28 33L30 33C30.550781 33 31 32.550781 31 32L31 31C31 30.449219 30.550781 30 30 30 Z M 34 30C33.449219 30 33 30.449219 33 31L33 32C33 32.550781 33.449219 33 34 33L36 33C36.550781 33 37 32.550781 37 32L37 31C37 30.449219 36.550781 30 36 30 Z M 40 30C39.449219 30 39 30.449219 39 31L39 32C39 32.550781 39.449219 33 40 33L42 33C42.550781 33 43 32.550781 43 32L43 31C43 30.449219 42.550781 30 42 30 Z M 28 35C27.449219 35 27 35.449219 27 36L27 37C27 37.550781 27.449219 38 28 38L30 38C30.550781 38 31 37.550781 31 37L31 36C31 35.449219 30.550781 35 30 35 Z M 34 35C33.449219 35 33 35.449219 33 36L33 37C33 37.550781 33.449219 38 34 38L36 38C36.550781 38 37 37.550781 37 37L37 36C37 35.449219 36.550781 35 36 35 Z M 40 35C39.449219 35 39 35.449219 39 36L39 37C39 37.550781 39.449219 38 40 38L42 38C42.550781 38 43 37.550781 43 37L43 36C43 35.449219 42.550781 35 42 35 Z M 28 40C27.449219 40 27 40.449219 27 41L27 42C27 42.550781 27.449219 43 28 43L30 43C30.550781 43 31 42.550781 31 42L31 41C31 40.449219 30.550781 40 30 40 Z M 34 40C33.449219 40 33 40.449219 33 41L33 42C33 42.550781 33.449219 43 34 43L36 43C36.550781 43 37 42.550781 37 42L37 41C37 40.449219 36.550781 40 36 40 Z M 40 40C39.449219 40 39 40.449219 39 41L39 42C39 42.550781 39.449219 43 40 43L42 43C42.550781 43 43 42.550781 43 42L43 41C43 40.449219 42.550781 40 42 40Z" />
</svg>