<?xml version="1.0" encoding="utf-8"?>
<svg xmlns="http://www.w3.org/2000/svg" width="515" height="515" viewBox="0 0 50 50">
  <path d="M24 1L24 19L26 19L26 1L24 1 z M 22 4.2402344C12.823 5.5622344 5.5593281 12.826 4.2363281 22L6.2519531 22C7.5419531 13.93 13.926 7.5507188 22 6.2617188L22 4.2402344 z M 28 4.2402344L28 6.2617188C36.074 7.5507187 42.457094 13.93 43.746094 22L45.763672 22C44.441672 12.826 37.177 5.5622344 28 4.2402344 z M 22 14.425781C18.345 15.464781 15.465781 18.348 14.425781 22L16.521484 22C17.428484 19.453 19.451 17.431391 22 16.525391L22 14.425781 z M 28 14.425781L28 16.525391C30.55 17.431391 32.571516 19.453 33.478516 22L35.574219 22C34.534219 18.348 31.655 15.464781 28 14.425781 z M 25.003906 22C23.347906 22 22 23.345 22 25C22 26.655 23.347906 28 25.003906 28C26.658906 28 27.949219 26.655 27.949219 25C27.949219 23.345 26.659906 22 25.003906 22 z M 1 24L1 26L19 26L19 24L1 24 z M 31 24L31 26L49 26L49 24L31 24 z M 4.2363281 28C5.5593281 37.174 12.823 44.437766 22 45.759766L22 43.738281C13.926 42.449281 7.5429063 36.07 6.2539062 28L4.2363281 28 z M 14.425781 28C15.465781 31.652 18.345 34.535219 22 35.574219L22 33.474609C19.45 32.568609 17.428484 30.547 16.521484 28L14.425781 28 z M 33.474609 28C32.568609 30.55 30.547 32.571516 28 33.478516L28 35.574219C31.652 34.534219 34.535219 31.655 35.574219 28L33.474609 28 z M 43.738281 28C42.449281 36.074 36.07 42.457094 28 43.746094L28 45.763672C37.174 44.441672 44.437766 37.177 45.759766 28L43.738281 28 z M 24 31L24 49L26 49L26 31L24 31 z" />
</svg>