<?xml version="1.0" encoding="utf-8"?>
<svg xmlns="http://www.w3.org/2000/svg" viewBox="0 0 50 50" width="515" height="515">
  <path d="M5.984375 3 A 1.0001 1.0001 0 0 0 5.2753906 3.3105469L3.2753906 5.4160156 A 1.0001 1.0001 0 0 0 3 6.1054688L3 38C2.9953026 39.996687 3.4701588 41.831964 4.4785156 43.265625C4.5362354 43.353817 4.5896725 43.446245 4.6503906 43.53125C5.6950455 44.993767 7.24098 46 9 46C9.1457065 46 9.2870689 45.982246 9.4296875 45.96875C9.6167499 45.982507 9.8030009 45.999368 9.9960938 46 A 1.0001 1.0001 0 0 0 10 46L43 46 A 1.0001 1.0001 0 0 0 43.150391 45.988281C44.846022 45.93196 46.335214 44.949591 47.349609 43.529297C48.394304 42.06658 49 40.124787 49 38C49 35.875213 48.394304 33.93342 47.349609 32.470703C46.33991 31.056983 44.859683 30.076386 43.173828 30.011719C43.172521 30.011669 43.171229 30.011768 43.169922 30.011719 A 1.0001 1.0001 0 0 0 43 30L39 30L39 4 A 1.0001 1.0001 0 0 0 37.292969 3.2929688L34.005859 6.5859375L30.707031 3.2929688 A 1.0001 1.0001 0 0 0 29.292969 3.2929688L26 6.5859375L22.707031 3.2929688 A 1.0001 1.0001 0 0 0 21.292969 3.2929688L18 6.5859375L14.707031 3.2929688 A 1.0001 1.0001 0 0 0 13.292969 3.2929688L10 6.5859375L6.7070312 3.2929688 A 1.0001 1.0001 0 0 0 5.984375 3 z M 14 5.4140625L17.292969 8.7070312 A 1.0001 1.0001 0 0 0 18.707031 8.7070312L22 5.4140625L25.292969 8.7070312 A 1.0001 1.0001 0 0 0 26.707031 8.7070312L30 5.4140625L33.300781 8.7070312 A 1.0001 1.0001 0 0 0 34.714844 8.7070312L37 6.4179688L37 30L9 30C7.4265671 30 6.026184 30.808777 5 32.025391L5 6.5039062L6.0175781 5.4316406L9.2929688 8.7070312 A 1.0001 1.0001 0 0 0 10.707031 8.7070312L14 5.4140625 z M 9 12L9 14L23 14L23 12L9 12 z M 26 12L26 14L33 14L33 12L26 12 z M 9 16L9 18L16 18L16 16L9 16 z M 19 16L19 18L33 18L33 16L19 16 z M 9 20L9 22L14 22L14 20L9 20 z M 17 20L17 22L24 22L24 20L17 20 z M 27 20L27 22L33 22L33 20L27 20 z M 9 24L9 26L20 26L20 24L9 24 z M 23 24L23 26L33 26L33 24L23 24 z M 9 32C10.002404 32 10.957667 32.559874 11.722656 33.630859C12.487645 34.701844 13 36.260018 13 38C13 39.739982 12.487645 41.298156 11.722656 42.369141C11.059441 43.297643 10.252459 43.840347 9.3964844 43.96875C7.9940773 43.836945 7.0101734 43.259608 6.2871094 42.359375C6.2570884 42.321998 6.2321962 42.278906 6.203125 42.240234C5.4838588 41.174802 5.0003789 39.678441 5 38.001953 A 1.0001 1.0001 0 0 0 5 38C5 36.260018 5.5123545 34.701844 6.2773438 33.630859C7.042333 32.559874 7.9975962 32 9 32 z M 12.980469 32L38 32L43 32C44.001135 32 44.955398 32.561279 45.720703 33.632812C46.486008 34.704346 47 36.261787 47 38C47 39.738213 46.486008 41.295654 45.720703 42.367188C44.955398 43.438721 44.001135 44 43 44L12.980469 44C13.109001 43.849048 13.233139 43.694308 13.349609 43.53125C14.394264 42.068733 15 40.126011 15 38C15 35.873989 14.394264 33.931267 13.349609 32.46875C13.233139 32.305692 13.109001 32.150952 12.980469 32 z M 9 35 A 2 3 0 0 0 7 38 A 2 3 0 0 0 9 41 A 2 3 0 0 0 11 38 A 2 3 0 0 0 9 35 z" />
</svg>