<?xml version="1.0" encoding="utf-8"?>
<svg xmlns="http://www.w3.org/2000/svg" viewBox="0 0 50 50" width="515" height="515">
  <path d="M5 4C3.355469 4 2 5.355469 2 7L2 43C2 44.644531 3.355469 46 5 46L45 46C46.644531 46 48 44.644531 48 43L48 7C48 5.355469 46.644531 4 45 4 Z M 5 6L45 6C45.554688 6 46 6.445313 46 7L46 43C46 43.554688 45.554688 44 45 44L5 44C4.445313 44 4 43.554688 4 43L4 7C4 6.445313 4.445313 6 5 6 Z M 10.8125 14C10.261719 14.050781 9.855469 14.542969 9.90625 15.09375C9.957031 15.644531 10.449219 16.050781 11 16L39 16C39.359375 16.003906 39.695313 15.816406 39.878906 15.503906C40.058594 15.191406 40.058594 14.808594 39.878906 14.496094C39.695313 14.183594 39.359375 13.996094 39 14L11 14C10.96875 14 10.9375 14 10.90625 14C10.875 14 10.84375 14 10.8125 14 Z M 10.8125 24C10.261719 24.050781 9.855469 24.542969 9.90625 25.09375C9.957031 25.644531 10.449219 26.050781 11 26L39 26C39.359375 26.003906 39.695313 25.816406 39.878906 25.503906C40.058594 25.191406 40.058594 24.808594 39.878906 24.496094C39.695313 24.183594 39.359375 23.996094 39 24L11 24C10.96875 24 10.9375 24 10.90625 24C10.875 24 10.84375 24 10.8125 24 Z M 10.8125 34C10.261719 34.050781 9.855469 34.542969 9.90625 35.09375C9.957031 35.644531 10.449219 36.050781 11 36L39 36C39.359375 36.003906 39.695313 35.816406 39.878906 35.503906C40.058594 35.191406 40.058594 34.808594 39.878906 34.496094C39.695313 34.183594 39.359375 33.996094 39 34L11 34C10.96875 34 10.9375 34 10.90625 34C10.875 34 10.84375 34 10.8125 34Z" />
</svg>