<?xml version="1.0" encoding="utf-8"?>
<svg xmlns="http://www.w3.org/2000/svg" viewBox="0 0 50 50" width="515" height="515">
  <path d="M25 0C22.25 0 20 2.25 20 5C20 6.390625 20.574219 7.652344 21.5 8.5625L13.8125 20.375C13.246094 20.152344 12.644531 20 12 20C9.25 20 7 22.25 7 25C7 26.820313 8.003906 28.40625 9.46875 29.28125L5.71875 40.0625C5.480469 40.027344 5.246094 40 5 40C2.25 40 0 42.25 0 45C0 47.75 2.25 50 5 50C7.75 50 10 47.75 10 45C10 43.207031 9.023438 41.632813 7.59375 40.75L11.375 29.9375C11.582031 29.964844 11.785156 30 12 30C12.214844 30 12.417969 29.964844 12.625 29.9375L16.4375 40.71875C14.988281 41.597656 14 43.191406 14 45C14 47.75 16.25 50 19 50C21.75 50 24 47.75 24 45C24 42.25 21.75 40 19 40C18.773438 40 18.5625 40.03125 18.34375 40.0625L14.53125 29.28125C15.996094 28.40625 17 26.820313 17 25C17 23.609375 16.425781 22.347656 15.5 21.4375L23.1875 9.625C23.753906 9.847656 24.355469 10 25 10C25.644531 10 26.246094 9.847656 26.8125 9.625L34.5 21.4375C33.574219 22.347656 33 23.609375 33 25C33 26.820313 34.003906 28.40625 35.46875 29.28125L31.65625 40.0625C31.4375 40.03125 31.226563 40 31 40C28.25 40 26 42.25 26 45C26 47.75 28.25 50 31 50C33.75 50 36 47.75 36 45C36 43.191406 35.011719 41.597656 33.5625 40.71875L37.375 29.9375C37.582031 29.964844 37.785156 30 38 30C38.214844 30 38.417969 29.964844 38.625 29.9375L42.40625 40.75C40.976563 41.632813 40 43.207031 40 45C40 47.75 42.25 50 45 50C47.75 50 50 47.75 50 45C50 42.25 47.75 40 45 40C44.753906 40 44.519531 40.027344 44.28125 40.0625L40.53125 29.28125C41.996094 28.40625 43 26.820313 43 25C43 22.25 40.75 20 38 20C37.355469 20 36.753906 20.152344 36.1875 20.375L28.5 8.5625C29.425781 7.652344 30 6.390625 30 5C30 2.25 27.75 0 25 0 Z M 25 2C26.667969 2 28 3.332031 28 5C28 6.667969 26.667969 8 25 8C23.332031 8 22 6.667969 22 5C22 3.332031 23.332031 2 25 2 Z M 12 22C13.667969 22 15 23.332031 15 25C15 26.667969 13.667969 28 12 28C10.332031 28 9 26.667969 9 25C9 23.332031 10.332031 22 12 22 Z M 38 22C39.667969 22 41 23.332031 41 25C41 26.667969 39.667969 28 38 28C36.332031 28 35 26.667969 35 25C35 23.332031 36.332031 22 38 22 Z M 5 42C6.667969 42 8 43.332031 8 45C8 46.667969 6.667969 48 5 48C3.332031 48 2 46.667969 2 45C2 43.332031 3.332031 42 5 42 Z M 19 42C20.667969 42 22 43.332031 22 45C22 46.667969 20.667969 48 19 48C17.332031 48 16 46.667969 16 45C16 43.332031 17.332031 42 19 42 Z M 31 42C32.667969 42 34 43.332031 34 45C34 46.667969 32.667969 48 31 48C29.332031 48 28 46.667969 28 45C28 43.332031 29.332031 42 31 42 Z M 45 42C46.667969 42 48 43.332031 48 45C48 46.667969 46.667969 48 45 48C43.332031 48 42 46.667969 42 45C42 43.332031 43.332031 42 45 42Z" />
</svg>