<?xml version="1.0" encoding="utf-8"?>
<svg xmlns="http://www.w3.org/2000/svg" viewBox="0 0 50 50" width="515" height="515">
  <path d="M25 1C22.802706 1 21 2.8027056 21 5C21 5.513484 21.106233 6.0026619 21.285156 6.4550781C15.527173 7.9114626 12 12.621469 12 19C12 29.354 9.1935781 31.92975 7.5175781 33.46875C6.7365781 34.18575 6 34.863 6 36C6 39.357982 10.315098 41.275902 19.115234 41.828125C19.039382 42.211231 19 42.602936 19 43C19 46.309 21.691 49 25 49C27.021 49 28.808484 47.993031 29.896484 46.457031C29.451484 45.762031 29.079203 45.018328 28.783203 44.236328C28.259203 45.834328 26.771 47 25 47C22.794 47 21 45.206 21 43C21 42.629026 21.06735 42.271842 21.166016 41.921875C22.382247 41.966792 23.634256 42 25 42C26.102 42 27.158828 41.983125 28.173828 41.953125C28.068828 41.316125 28 40.667 28 40C28 39.985 28.001953 39.971031 28.001953 39.957031C27.039953 39.984031 26.043 40 25 40C9.226 40 8 36.938 8 36C8 35.765 8.2520938 35.509406 8.8710938 34.941406C10.664094 33.295406 14 30.233 14 19C14 13.206387 17.229543 9.1813599 22.642578 8.2089844C23.306697 8.6996989 24.11714 9 25 9C25.881879 9 26.691744 8.7006635 27.355469 8.2109375C32.77118 9.1802144 36 13.192676 36 19C36 22.767 36.366656 25.853187 37.097656 28.367188C37.742656 28.207187 38.406891 28.097875 39.087891 28.046875C38.368891 25.677875 38 22.653 38 19C38 12.604806 34.476089 7.9070081 28.714844 6.4550781C28.893767 6.0026619 29 5.513484 29 5C29 2.8027056 27.197294 1 25 1 z M 25 3C26.116414 3 27 3.8835859 27 5C27 6.1164141 26.116414 7 25 7C23.883586 7 23 6.1164141 23 5C23 3.8835859 23.883586 3 25 3 z M 40 30C34.488997 30 30 34.488997 30 40C30 45.511003 34.488997 50 40 50C45.511003 50 50 45.511003 50 40C50 34.488997 45.511003 30 40 30 z M 40 32C44.430123 32 48 35.569877 48 40C48 44.430123 44.430123 48 40 48C35.569877 48 32 44.430123 32 40C32 35.569877 35.569877 32 40 32 z M 39 35L39 39L35 39L35 41L39 41L39 45L41 45L41 41L45 41L45 39L41 39L41 35L39 35 z" />
</svg>