<?xml version="1.0" encoding="utf-8"?>
<svg xmlns="http://www.w3.org/2000/svg" viewBox="0 0 50 50" width="515" height="515">
  <path d="M6 0L6 48L34 48C35.671875 49.257813 37.753906 50 40 50C45.511719 50 50 45.511719 50 40C50 35.914063 47.519531 32.394531 44 30.84375L44 14.59375L43.71875 14.28125L29.71875 0.28125L29.40625 0 Z M 8 2L28 2L28 16L42 16L42 30.21875C41.351563 30.085938 40.6875 30 40 30C34.488281 30 30 34.488281 30 40C30 42.253906 30.765625 44.324219 32.03125 46L8 46 Z M 30 3.4375L40.5625 14L30 14 Z M 40 32C44.429688 32 48 35.570313 48 40C48 44.429688 44.429688 48 40 48C35.570313 48 32 44.429688 32 40C32 35.570313 35.570313 32 40 32 Z M 39 35L39 39L35 39L35 41L39 41L39 45L41 45L41 41L45 41L45 39L41 39L41 35Z" />
</svg>