<?xml version="1.0" encoding="utf-8"?>
<svg xmlns="http://www.w3.org/2000/svg" viewBox="0 0 50 50" width="515" height="515">
  <path d="M2 2C0.9 2 0 2.9 0 4C0 5.1 0.9 6 2 6C3.1 6 4 5.1 4 4C4 3.9980182 4.0000058 3.9961212 4 3.9941406L8.6992188 3.9941406C9.9454628 3.9941406 10.591087 4.2516627 11.068359 4.6855469C11.545632 5.1194311 11.9182 5.8543078 12.246094 6.9785156L20.236328 39.238281 A 0.99359934 0.99359934 0 0 0 20.238281 39.25C20.540205 40.407373 20.818722 41.56725 21.652344 42.517578C21.981776 42.893131 22.394538 43.198758 22.884766 43.435547C22.291328 44.179316 22 45.091927 22 46C22 46.972222 22.318681 47.957881 23.001953 48.726562C23.685226 49.495244 24.75 50 26 50C27.25 50 28.314774 49.495245 28.998047 48.726562C29.681319 47.957881 30 46.972222 30 46C30 45.309714 29.831875 44.615503 29.494141 43.994141L35.505859 43.994141C35.168125 44.615503 35 45.309714 35 46C35 46.972222 35.318681 47.957881 36.001953 48.726562C36.685226 49.495244 37.75 50 39 50C40.25 50 41.314774 49.495245 41.998047 48.726562C42.681319 47.957881 43 46.972222 43 46C43 45.027778 42.681319 44.042119 41.998047 43.273438C41.987764 43.261869 41.973346 43.253636 41.962891 43.242188 A 0.994141 0.994141 0 0 0 41 42.005859L39.056641 42.005859C39.037072 42.005611 39.019661 42 39 42C38.980339 42 38.962928 42.005611 38.943359 42.005859L26.056641 42.005859C26.037072 42.005611 26.019661 42 26 42C25.980339 42 25.962928 42.005611 25.943359 42.005859L25.699219 42.005859C24.164802 42.005859 23.562863 41.681703 23.146484 41.207031C22.730106 40.732359 22.460186 39.892627 22.162109 38.75L21.478516 35.994141L39.800781 35.994141 A 0.99359934 0.99359934 0 0 0 40.728516 35.351562L47.929688 16.351562 A 0.99359934 0.99359934 0 0 0 47 15.005859L16.28125 15.005859L14.164062 6.4609375 A 0.99359934 0.99359934 0 0 0 14.154297 6.421875C13.782226 5.1460834 13.303977 4.0309594 12.40625 3.2148438C11.508523 2.398728 10.252975 2.0058594 8.6992188 2.0058594L2.0566406 2.0058594C2.0374086 2.0053056 2.0193597 2 2 2 z M 16.773438 16.994141L45.560547 16.994141L39.113281 34.005859L20.986328 34.005859L16.773438 16.994141 z M 30.984375 18.986328 A 1.0001 1.0001 0 0 0 30 20L30 24L26 24 A 1.0001 1.0001 0 1 0 26 26L30 26L30 30 A 1.0001 1.0001 0 1 0 32 30L32 26L36 26 A 1.0001 1.0001 0 1 0 36 24L32 24L32 20 A 1.0001 1.0001 0 0 0 30.984375 18.986328 z M 26 44C26.749999 44 27.185226 44.245245 27.501953 44.601562C27.81868 44.957881 28 45.472222 28 46C28 46.527778 27.81868 47.042119 27.501953 47.398438C27.185226 47.754756 26.749999 48 26 48C25.250001 48 24.814774 47.754755 24.498047 47.398438C24.18132 47.042119 24 46.527778 24 46C24 45.472222 24.18132 44.957881 24.498047 44.601562C24.814774 44.245244 25.250001 44 26 44 z M 39 44C39.749999 44 40.185226 44.245245 40.501953 44.601562C40.81868 44.957881 41 45.472222 41 46C41 46.527778 40.81868 47.042119 40.501953 47.398438C40.185226 47.754756 39.749999 48 39 48C38.250001 48 37.814774 47.754755 37.498047 47.398438C37.18132 47.042119 37 46.527778 37 46C37 45.472222 37.18132 44.957881 37.498047 44.601562C37.814774 44.245244 38.250001 44 39 44 z" />
</svg>