<?xml version="1.0" encoding="utf-8"?>
<svg xmlns="http://www.w3.org/2000/svg" viewBox="0 0 50 50" width="515" height="515">
  <path d="M28.625 2C28.285156 2.003906 27.941406 2.019531 27.59375 2.0625C26.902344 2.152344 26.144531 2.386719 25.5625 2.96875L2.84375 25.6875C1.722656 26.808594 1.722656 28.660156 2.84375 29.78125L20.21875 47.15625C21.328125 48.265625 23.15625 48.277344 24.28125 47.1875L24.3125 47.15625L29.03125 42.40625C30.667969 45.710938 34.074219 48 38 48C43.511719 48 48 43.511719 48 38C48 34.078125 45.703125 30.699219 42.40625 29.0625L47.03125 24.4375C47.609375 23.859375 47.847656 23.09375 47.9375 22.40625C48.027344 21.71875 48 21.039063 48 20.375L48 5.5C48 3.578125 46.421875 2 44.5 2L29.625 2C29.300781 2 28.964844 1.996094 28.625 2 Z M 28.65625 4C28.949219 3.992188 29.285156 4 29.625 4L44.5 4C45.339844 4 46 4.65625 46 5.5L46 20.375C46 21.070313 45.996094 21.699219 45.9375 22.15625C45.878906 22.613281 45.785156 22.839844 45.625 23L40.34375 28.28125C39.589844 28.097656 38.808594 28 38 28C32.488281 28 28 32.488281 28 38C28 38.808594 28.097656 39.589844 28.28125 40.34375L22.90625 45.75C22.550781 46.105469 21.980469 46.105469 21.625 45.75L4.375 28.46875L4.25 28.375C3.894531 28.019531 3.894531 27.449219 4.25 27.09375L27 4.375C27.15625 4.21875 27.414063 4.121094 27.875 4.0625C28.105469 4.03125 28.363281 4.007813 28.65625 4 Z M 39 7C36.800781 7 35 8.800781 35 11C35 13.199219 36.800781 15 39 15C41.199219 15 43 13.199219 43 11C43 8.800781 41.199219 7 39 7 Z M 39 9C40.117188 9 41 9.882813 41 11C41 12.117188 40.117188 13 39 13C37.882813 13 37 12.117188 37 11C37 9.882813 37.882813 9 39 9 Z M 38 30C42.429688 30 46 33.570313 46 38C46 42.429688 42.429688 46 38 46C33.570313 46 30 42.429688 30 38C30 33.570313 33.570313 30 38 30 Z M 37 33L37 37L33 37L33 39L37 39L37 43L39 43L39 39L43 39L43 37L39 37L39 33Z" />
</svg>