<?xml version="1.0" encoding="utf-8"?>
<svg xmlns="http://www.w3.org/2000/svg" viewBox="0 0 50 50" width="515" height="515">
  <path d="M6 2L6 48L34 48C34.007813 48.003906 34.023438 47.996094 34.03125 48C35.699219 49.25 37.761719 50 40 50C45.511719 50 50 45.511719 50 40C50 35.914063 47.519531 32.394531 44 30.84375L44 2 Z M 8 4L42 4L42 30.21875C41.351563 30.085938 40.6875 30 40 30C37.761719 30 35.699219 30.75 34.03125 32L20 32L20 34L32.03125 34C30.765625 35.675781 30 37.746094 30 40C30 42.253906 30.765625 44.324219 32.03125 46L8 46 Z M 13 14L13 16L17 16L17 14 Z M 20 14L20 16L37 16L37 14 Z M 13 20L13 22L17 22L17 20 Z M 20 20L20 22L37 22L37 20 Z M 13 26L13 28L17 28L17 26 Z M 20 26L20 28L37 28L37 26 Z M 13 32L13 34L17 34L17 32 Z M 40 32C44.429688 32 48 35.570313 48 40C48 44.429688 44.429688 48 40 48C35.570313 48 32 44.429688 32 40C32 35.570313 35.570313 32 40 32 Z M 39 35L39 39L35 39L35 41L39 41L39 45L41 45L41 41L45 41L45 39L41 39L41 35Z" />
</svg>