<?xml version="1.0" encoding="utf-8"?>
<svg xmlns="http://www.w3.org/2000/svg" viewBox="0 0 50 50" width="515" height="515">
  <path d="M11 4C9.355469 4 8 5.355469 8 7L8 12L7 12C6.96875 12 6.9375 12 6.90625 12C6.355469 12.027344 5.925781 12.496094 5.953125 13.046875C5.980469 13.597656 6.449219 14.027344 7 14L11 14C11.359375 14.003906 11.695313 13.816406 11.878906 13.503906C12.058594 13.191406 12.058594 12.808594 11.878906 12.496094C11.695313 12.183594 11.359375 11.996094 11 12L10 12L10 7C10 6.445313 10.445313 6 11 6L39 6C39.554688 6 40 6.445313 40 7L40 43C40 43.554688 39.554688 44 39 44L11 44C10.445313 44 10 43.554688 10 43L10 39L8 39L8 43C8 44.644531 9.355469 46 11 46L39 46C40.644531 46 42 44.644531 42 43L42 7C42 5.355469 40.644531 4 39 4 Z M 8 15L8 18L7 18C6.96875 18 6.9375 18 6.90625 18C6.875 18 6.84375 18 6.8125 18C6.261719 18.050781 5.855469 18.542969 5.90625 19.09375C5.957031 19.644531 6.449219 20.050781 7 20L11 20C11.359375 20.003906 11.695313 19.816406 11.878906 19.503906C12.058594 19.191406 12.058594 18.808594 11.878906 18.496094C11.695313 18.183594 11.359375 17.996094 11 18L10 18L10 15 Z M 26 16C19.898438 16 16 20.8125 16 26.3125C16 31.613281 19.8125 34.8125 24.3125 34.8125C26.210938 34.8125 27.585938 34.613281 29.1875 33.8125L28.6875 32.3125C27.585938 32.914063 26.1875 33.1875 24.6875 33.1875C20.6875 33.1875 17.8125 30.5 17.8125 26C17.8125 20.699219 21.386719 17.40625 25.6875 17.40625C29.886719 17.40625 32.1875 20.207031 32.1875 23.90625C32.1875 27.007813 30.707031 28.695313 29.40625 28.59375C28.605469 28.59375 28.386719 27.800781 28.6875 26L29.5 21C28.800781 20.699219 27.605469 20.40625 26.40625 20.40625C22.605469 20.40625 20.09375 23.386719 20.09375 26.6875C20.09375 28.886719 21.394531 30.1875 23.09375 30.1875C24.59375 30.1875 25.789063 29.5 26.6875 28L26.8125 28C26.914063 29.5 27.800781 30.1875 29 30.1875C31.800781 30.1875 34 27.8125 34 23.8125C34 19.3125 30.699219 16 26 16 Z M 8 21L8 24L7 24C6.96875 24 6.9375 24 6.90625 24C6.355469 24.027344 5.925781 24.496094 5.953125 25.046875C5.980469 25.597656 6.449219 26.027344 7 26L11 26C11.359375 26.003906 11.695313 25.816406 11.878906 25.503906C12.058594 25.191406 12.058594 24.808594 11.878906 24.496094C11.695313 24.183594 11.359375 23.996094 11 24L10 24L10 21 Z M 26.09375 22.1875C26.59375 22.1875 26.988281 22.304688 27.1875 22.40625L26.6875 25.09375C26.488281 26.695313 25.199219 28.3125 24 28.3125C22.898438 28.3125 22.40625 27.601563 22.40625 26.5C22.40625 24.199219 23.992188 22.1875 26.09375 22.1875 Z M 8 27L8 30L7 30C6.96875 30 6.9375 30 6.90625 30C6.355469 30.027344 5.925781 30.496094 5.953125 31.046875C5.980469 31.597656 6.449219 32.027344 7 32L11 32C11.359375 32.003906 11.695313 31.816406 11.878906 31.503906C12.058594 31.191406 12.058594 30.808594 11.878906 30.496094C11.695313 30.183594 11.359375 29.996094 11 30L10 30L10 27 Z M 8 33L8 36L7 36C6.96875 36 6.9375 36 6.90625 36C6.355469 36.027344 5.925781 36.496094 5.953125 37.046875C5.980469 37.597656 6.449219 38.027344 7 38L11 38C11.359375 38.003906 11.695313 37.816406 11.878906 37.503906C12.058594 37.191406 12.058594 36.808594 11.878906 36.496094C11.695313 36.183594 11.359375 35.996094 11 36L10 36L10 33Z" />
</svg>