<?xml version="1.0" encoding="utf-8"?>
<svg xmlns="http://www.w3.org/2000/svg" viewBox="0 0 50 50" width="515" height="515">
  <path d="M25 2C17.854545 2 12 7.8545455 12 15C12 20.080108 15.104816 26.35118 18.138672 31.496094C21.172527 36.641007 24.205078 40.607422 24.205078 40.607422L25 41.646484L25.794922 40.607422C25.794922 40.607422 28.827473 36.641007 31.861328 31.496094C34.895184 26.35118 38 20.080108 38 15C38 7.8545455 32.145455 2 25 2 z M 25 4C31.054545 4 36 8.9454545 36 15C36 19.219892 33.104816 25.450382 30.138672 30.480469C27.569764 34.836908 25.642165 37.340935 25 38.199219C24.357835 37.340935 22.430236 34.836908 19.861328 30.480469C16.895184 25.450382 14 19.219892 14 15C14 8.9454545 18.945455 4 25 4 z M 25 10C22.254545 10 20 12.254545 20 15C20 17.745455 22.254545 20 25 20C27.745455 20 30 17.745455 30 15C30 12.254545 27.745455 10 25 10 z M 25 12C26.654545 12 28 13.345455 28 15C28 16.654545 26.654545 18 25 18C23.345455 18 22 16.654545 22 15C22 13.345455 23.345455 12 25 12 z M 7.3007812 32L1.5996094 48L48.400391 48L42.699219 32L35 32C34.6 32.7 34.200781 33.4 33.800781 34L41.199219 34L45.5 46L4.4003906 46L8.6992188 34L16.099609 34C15.699609 33.4 15.300391 32.7 14.900391 32L7.3007812 32 z" />
</svg>