<?xml version="1.0" encoding="utf-8"?>
<svg xmlns="http://www.w3.org/2000/svg" viewBox="0 0 50 50" width="515" height="515">
  <path d="M6 4C5.4777778 4 4.9453899 4.1913289 4.5683594 4.5683594C4.1913289 4.9453899 4 5.4777778 4 6L4 44C4 44.522222 4.1913289 45.05461 4.5683594 45.431641C4.9453899 45.808671 5.4777778 46 6 46L44 46C44.522222 46 45.05461 45.808671 45.431641 45.431641C45.808671 45.05461 46 44.522222 46 44L46 6C46 5.4777778 45.808671 4.9453899 45.431641 4.5683594C45.05461 4.1913289 44.522222 4 44 4L6 4 z M 6 6L44 6L44 44L6 44L6 6 z M 18.599609 14C17.099609 14 16 14.100391 15 14.400391L15 36L17.5 36L17.5 26.900391L18.599609 26.900391C20.499609 26.900391 22.499219 26.1 23.699219 24.5C24.499219 23.4 25 22.099609 25 20.099609C25 18.199609 24.400391 16.599609 23.400391 15.599609C22.300391 14.499609 20.599609 14 18.599609 14 z M 19 15.699219C21.7 15.699219 22.599609 17.700391 22.599609 19.900391C22.599609 22.900391 20.999609 24.5 18.599609 24.5C18.199609 24.5 17.899609 24.400391 17.599609 24.400391L17.599609 15.900391C17.899609 15.800391 18.4 15.699219 19 15.699219 z M 31.699219 20C29.199219 20 27.300781 21.800781 27.300781 24.300781C27.300781 26.000781 28.4 27.399219 30.5 28.699219C32.2 29.799219 32.599609 30.600781 32.599609 31.800781C32.599609 33.100781 31.599219 34 30.199219 34C29.199219 34 28.199609 33.599219 27.599609 33.199219L26.900391 35.199219C27.600391 35.699219 28.899609 36.099609 30.099609 36.099609C32.699609 36.099609 34.900391 34.6 34.900391 31.5C34.900391 29.3 33.499609 27.899219 31.599609 26.699219C29.999609 25.599219 29.599609 25 29.599609 24C29.599609 23 30.299219 22 31.699219 22C32.599219 22 33.300391 22.299219 33.900391 22.699219L34.599609 20.800781C33.899609 20.400781 32.999219 20 31.699219 20 z" />
</svg>