<?xml version="1.0" encoding="utf-8"?>
<svg xmlns="http://www.w3.org/2000/svg" width="515" height="515" viewBox="0 0 50 50">
  <path d="M6 4C4.9069372 4 4 4.9069372 4 6L4 44C4 45.093063 4.9069372 46 6 46L44 46C45.093063 46 46 45.093063 46 44L46 6C46 4.9069372 45.093063 4 44 4L6 4 z M 6 6L44 6L44 44L6 44L6 6 z M 17 14L17.035156 36L19.5 36L19.5 14L17 14 z M 31.5 14L31.5 21.867188L31.5 21.875C30.893 20.564 29.823125 20 28.703125 20C26.303125 20 24 22.372 24 27.875C24 32.996 25.856469 36.3125 28.480469 36.3125C30.111469 36.3125 31.02 35.463 31.5 34.375L31.5 36L34 36C33.968 35.104 34 33.681 34 32.625L34 14L31.5 14 z M 29.246094 22.111328C30.430094 22.111328 31.358328 23.525 31.486328 25.125C31.518328 25.476 31.486328 25.8685 31.486328 26.1875L31.486328 30.75C31.486328 30.75 31.457328 31.337 31.361328 31.625C30.817328 33.864 29.824641 34.263672 29.056641 34.263672C27.264641 34.263672 26.462891 31.139 26.462891 27.875C26.462891 24.772 27.198094 22.111328 29.246094 22.111328 z" />
</svg>