<?xml version="1.0" encoding="utf-8"?>
<svg xmlns="http://www.w3.org/2000/svg" width="515" height="515" viewBox="0 0 50 50">
  <path d="M6 4C4.9069372 4 4 4.9069372 4 6L4 44C4 45.093063 4.9069372 46 6 46L44 46C45.093063 46 46 45.093063 46 44L46 6C46 4.9069372 45.093063 4 44 4L6 4 z M 6 6L44 6L44 44L6 44L6 6 z M 19.927734 14L15 36L17.398438 36L18.824219 29.566406L23.625 29.566406L25.015625 36L27.447266 36L22.648438 14L19.927734 14 z M 32.734375 14C31.910375 14 31.25 14.6255 31.25 15.5625C31.25 16.4995 31.877172 17.125 32.701172 17.125L32.734375 17.125C33.657375 17.125 34.25 16.4995 34.25 15.5625C34.25 14.6255 33.657375 14 32.734375 14 z M 21.226562 16.439453L21.322266 16.439453C21.578266 18.039453 21.8675 19.831187 22.1875 21.367188L23.322266 27.001953L19.228516 27L20.330078 21.400391C20.650078 19.927391 20.969562 18.071453 21.226562 16.439453 z M 31.5 19L31.5 36L34 36L34 19L31.5 19 z" />
</svg>