<?xml version="1.0" encoding="utf-8"?>
<svg xmlns="http://www.w3.org/2000/svg" width="515" height="515" viewBox="0 0 50 50">
  <path d="M6 4C4.9069372 4 4 4.9069372 4 6L4 44C4 45.093063 4.9069372 46 6 46L44 46C45.093063 46 46 45.093063 46 44L46 6C46 4.9069372 45.093063 4 44 4L6 4 z M 6 6L44 6L44 44L6 44L6 6 z M 16 14L16 36L25 36L25 33.5L18.5 33.5L18.5 14L16 14 z M 33.488281 19.75C32.051281 19.75 31.130141 20.402 30.619141 21.875L30.494141 22.25L30.494141 20L28 20C28.031 21.152 28 36 28 36L30.494141 36L30.523438 26.75C30.523437 26.206 30.555141 25.757797 30.619141 25.341797C30.874141 23.549797 31.924281 22.09375 33.488281 22.09375C33.681281 22.09375 33.84 22.093 34 22.125L34 19.78125C33.84 19.74925 33.680281 19.75 33.488281 19.75 z" />
</svg>