<?xml version="1.0" encoding="utf-8"?>
<svg xmlns="http://www.w3.org/2000/svg" viewBox="0 0 50 50" width="515" height="515">
  <path d="M12 0C10.90625 0 10 0.90625 10 2L10 4L4 4C3.574219 4 3.136719 4.097656 2.734375 4.382813C2.332031 4.664063 2 5.21875 2 5.792969L2 46.042969C2 47.089844 2.847656 48 3.917969 48L46.082031 48C47.15625 48 48 47.089844 48 46.042969L48 5.792969C48 5.21875 47.667969 4.664063 47.265625 4.382813C46.863281 4.097656 46.425781 4 46 4L40 4L40 2C40 0.90625 39.09375 0 38 0L36 0C34.90625 0 34 0.90625 34 2L34 4L16 4L16 2C16 0.90625 15.09375 0 14 0 Z M 12 2L14 2L14 8L12 8 Z M 36 2L38 2L38 8L36 8 Z M 4 6L10 6L10 8C10 9.09375 10.90625 10 12 10L14 10C15.09375 10 16 9.09375 16 8L16 6L34 6L34 8C34 9.09375 34.90625 10 36 10L38 10C39.09375 10 40 9.09375 40 8L40 6L46 6L46 13L4 13 Z M 4 15L46 15L46 46L4 46 Z M 24.984375 20C24.722656 20.003906 24.476563 20.109375 24.292969 20.292969L18.292969 26.292969C18.007813 26.578125 17.921875 27.007813 18.078125 27.382813C18.230469 27.757813 18.59375 28 19 28L31 28C31.40625 28 31.769531 27.757813 31.921875 27.382813C32.078125 27.007813 31.992188 26.578125 31.707031 26.292969L25.707031 20.292969C25.515625 20.101563 25.253906 19.996094 24.984375 20 Z M 25 22.414063L28.585938 26L21.414063 26 Z M 19 32C18.59375 32 18.230469 32.242188 18.078125 32.617188C17.921875 32.992188 18.007813 33.421875 18.292969 33.707031L24.292969 39.707031C24.683594 40.097656 25.316406 40.097656 25.707031 39.707031L31.707031 33.707031C31.992188 33.421875 32.078125 32.992188 31.921875 32.617188C31.769531 32.242188 31.40625 32 31 32 Z M 21.414063 34L28.585938 34L25 37.585938Z" />
</svg>