<?xml version="1.0" encoding="utf-8"?>
<svg xmlns="http://www.w3.org/2000/svg" viewBox="0 0 50 50" width="515" height="515">
  <path d="M7 2L7 48L43 48L43 14.59375L42.71875 14.28125L30.71875 2.28125L30.40625 2 Z M 9 4L29 4L29 16L41 16L41 46L9 46 Z M 31 5.4375L39.5625 14L31 14 Z M 14 10L14 12L27 12L27 10 Z M 14 14L14 16L27 16L27 14 Z M 14 18L14 20L37 20L37 18 Z M 14 22L14 24L37 24L37 22 Z M 14 26L14 28L37 28L37 26 Z M 20.15625 30.5625C19.019531 30.5625 18.09375 31.289063 17.46875 32.21875C16.84375 33.148438 16.46875 34.34375 16.46875 35.65625C16.46875 36.757813 16.8125 37.953125 17.46875 38.96875C17.554688 39.101563 17.710938 39.183594 17.8125 39.3125C17.488281 39.601563 16.875 40.21875 16.875 40.21875C16.554688 40.414063 16.367188 40.769531 16.394531 41.144531C16.417969 41.519531 16.652344 41.847656 17 41.996094C17.34375 42.144531 17.742188 42.085938 18.03125 41.84375C18.03125 41.84375 18.871094 41.027344 19.46875 40.5C19.835938 40.644531 20.167969 40.875 20.59375 40.875C23.117188 40.875 24.789063 39.515625 25.75 38.28125C26.03125 37.917969 26.183594 37.65625 26.375 37.34375C26.445313 37.558594 26.507813 37.761719 26.59375 37.96875C26.65625 38.117188 26.726563 38.265625 26.84375 38.4375C26.960938 38.609375 27.183594 39 27.8125 39C28.480469 39 28.890625 38.679688 29.28125 38.40625C29.671875 38.132813 30.023438 37.828125 30.40625 37.53125C31.171875 36.933594 31.941406 36.46875 32.5 36.46875C32.859375 36.472656 33.195313 36.285156 33.378906 35.972656C33.558594 35.660156 33.558594 35.277344 33.378906 34.964844C33.195313 34.652344 32.859375 34.464844 32.5 34.46875C31.09375 34.46875 30.027344 35.28125 29.1875 35.9375C28.828125 36.21875 28.539063 36.464844 28.28125 36.65625C28.25 36.5625 28.222656 36.507813 28.1875 36.40625C28.078125 36.085938 27.941406 35.761719 27.78125 35.4375C27.699219 35.273438 27.628906 35.085938 27.46875 34.90625C27.308594 34.726563 27.003906 34.46875 26.53125 34.46875C25.882813 34.46875 25.660156 34.863281 25.5 35.0625C25.339844 35.261719 25.21875 35.441406 25.09375 35.65625C24.839844 36.082031 24.558594 36.585938 24.1875 37.0625C23.515625 37.925781 22.554688 38.636719 21.03125 38.78125C22.058594 37.398438 22.96875 35.675781 22.96875 33.59375C22.96875 32.917969 22.84375 32.179688 22.375 31.5625C21.90625 30.945313 21.074219 30.5625 20.15625 30.5625 Z M 20.15625 32.5625C20.59375 32.5625 20.675781 32.644531 20.78125 32.78125C20.886719 32.917969 20.96875 33.214844 20.96875 33.59375C20.96875 35.1875 20.101563 36.683594 19.15625 37.875C18.738281 37.226563 18.46875 36.316406 18.46875 35.65625C18.46875 34.738281 18.746094 33.878906 19.125 33.3125C19.503906 32.746094 19.9375 32.5625 20.15625 32.5625Z" />
</svg>