<?xml version="1.0" encoding="utf-8"?>
<svg xmlns="http://www.w3.org/2000/svg" viewBox="0 0 50 50" width="515" height="515">
  <path d="M5.65625 3.1875C5.507813 3.191406 5.34375 3.214844 5.1875 3.25C4.5625 3.394531 3.972656 3.910156 3.71875 4.5625C3.054688 6.253906 1 11.539063 0.21875 13.53125C-0.191406 14.578125 0.0117188 15.746094 0.625 16.8125C1.238281 17.878906 2.242188 18.90625 3.625 19.96875C6.394531 22.09375 10.722656 24.34375 16.71875 26.6875C17.242188 26.890625 17.84375 27.125 18.40625 27.34375L6.8125 35.1875L6.75 35.21875L6.75 35.25C6.042969 35.675781 5.523438 36.027344 5.25 36.65625C5.109375 36.984375 5.089844 37.460938 5.28125 37.84375C5.472656 38.226563 5.785156 38.421875 6.0625 38.53125L7.84375 39.21875C8.550781 39.496094 9.339844 39.523438 10.1875 39.46875C11.035156 39.414063 11.910156 39.261719 12.71875 38.96875L31.25 32.28125C32.152344 32.613281 32.992188 32.902344 33.875 33.21875C33.339844 33.835938 33 34.628906 33 35.5C33 37.421875 34.578125 39 36.5 39C38.421875 39 40 37.421875 40 35.5C40 35.445313 40.003906 35.398438 40 35.34375C41.015625 35.671875 41.992188 35.96875 42.875 36.21875C44.511719 36.6875 45.886719 37.023438 46.96875 37.15625C47.511719 37.222656 47.984375 37.257813 48.4375 37.1875C48.890625 37.117188 49.5 36.894531 49.75 36.25C50.34375 34.730469 49.941406 32.730469 48.71875 30.6875C47.496094 28.644531 45.339844 26.59375 42.0625 25.3125C42.0625 25.3125 35.714844 22.828125 30.46875 20.78125L24.375 9.15625C23.976563 8.394531 23.429688 7.644531 22.84375 7.03125C22.257813 6.417969 21.675781 5.933594 20.96875 5.65625L19.1875 4.96875C18.910156 4.859375 18.527344 4.789063 18.125 4.9375C17.722656 5.085938 17.429688 5.445313 17.3125 5.78125C17.082031 6.445313 17.222656 7.046875 17.46875 7.875L17.4375 7.875L19.5 16.5C15.589844 14.972656 10.410156 12.953125 10.125 12.84375C9.863281 12.742188 9.839844 12.695313 9.75 12.5C9.660156 12.304688 9.605469 11.933594 9.53125 11.40625C9.261719 9.558594 8.847656 6.839844 8.75 6.03125C8.601563 4.851563 7.804688 3.992188 6.84375 3.5C6.484375 3.316406 6.097656 3.179688 5.65625 3.1875 Z M 5.625 5.1875C5.617188 5.1875 5.742188 5.179688 5.9375 5.28125C6.320313 5.476563 6.746094 6.066406 6.78125 6.25C6.78125 6.253906 6.78125 6.277344 6.78125 6.28125C6.890625 7.199219 7.261719 9.84375 7.53125 11.6875C7.609375 12.230469 7.679688 12.78125 7.9375 13.34375C8.195313 13.90625 8.722656 14.453125 9.40625 14.71875C9.722656 14.84375 15.414063 17.054688 20.3125 18.96875C20.425781 19.046875 20.554688 19.097656 20.6875 19.125C20.730469 19.140625 20.738281 19.140625 20.78125 19.15625C24.695313 20.683594 25.410156 20.964844 29.34375 22.5C29.375 22.511719 29.40625 22.523438 29.4375 22.53125C34.894531 24.660156 41.34375 27.1875 41.34375 27.1875C44.226563 28.3125 46.039063 30.0625 47.03125 31.71875C47.917969 33.199219 48 34.515625 47.875 35.1875C47.703125 35.191406 47.539063 35.195313 47.21875 35.15625C46.335938 35.046875 44.996094 34.765625 43.40625 34.3125C40.230469 33.40625 36.007813 31.90625 31.625 30.28125L31.28125 30.15625L30.9375 30.28125L12.0625 37.09375C11.476563 37.308594 10.730469 37.457031 10.0625 37.5C9.394531 37.542969 8.765625 37.453125 8.5625 37.375L7.6875 37.03125C7.78125 36.960938 7.714844 36.984375 7.84375 36.90625L7.875 36.875L21.09375 27.96875L22.6875 26.875L20.90625 26.1875C19.679688 25.710938 18.519531 25.265625 17.4375 24.84375C11.542969 22.542969 7.351563 20.328125 4.84375 18.40625C3.589844 17.445313 2.753906 16.554688 2.34375 15.84375C1.933594 15.132813 1.929688 14.667969 2.09375 14.25C2.875 12.253906 4.933594 6.96875 5.59375 5.28125C5.667969 5.089844 5.632813 5.1875 5.625 5.1875 Z M 19.34375 7.15625L20.21875 7.5C20.425781 7.582031 20.945313 7.953125 21.40625 8.4375C21.867188 8.921875 22.304688 9.507813 22.59375 10.0625L27.625 19.65625C24.785156 18.546875 24.476563 18.457031 21.78125 17.40625L19.375 7.40625C19.375 7.386719 19.375 7.363281 19.375 7.34375C19.335938 7.207031 19.363281 7.265625 19.34375 7.15625 Z M 36.125 34C36.65625 34.183594 37.207031 34.417969 37.71875 34.59375C37.742188 34.660156 37.773438 34.722656 37.8125 34.78125C37.929688 34.996094 38 35.234375 38 35.5C38 36.339844 37.339844 37 36.5 37C35.660156 37 35 36.339844 35 35.5C35 34.875 35.375 34.355469 35.90625 34.125C35.984375 34.09375 36.058594 34.050781 36.125 34Z" />
</svg>