<?xml version="1.0" encoding="utf-8"?>
<svg xmlns="http://www.w3.org/2000/svg" width="515" height="515" viewBox="0 0 50 50">
  <path d="M8.1953125 1.5917969L1.6191406 18.726562L4.7167969 18.726562L6.3242188 14.191406L13.164062 14.191406L14.771484 18.726562L17.988281 18.726562L11.386719 1.5917969L8.1953125 1.5917969 z M 9.7324219 4.5429688L9.8046875 4.5429688L12.371094 11.910156L7.140625 11.910156L9.7324219 4.5429688 z M 39.984375 7.9863281 A 1.0001 1.0001 0 0 0 39 9L39 38.529297L31.816406 31.345703 A 1.0001 1.0001 0 1 0 30.402344 32.759766L40 42.357422L49.597656 32.761719 A 1.0001 1.0001 0 1 0 48.183594 31.347656L41 38.529297L41 9 A 1.0001 1.0001 0 0 0 39.984375 7.9863281 z M 3.5527344 30.390625L3.5527344 32.982422L12.767578 32.982422L2.7832031 45.078125L2.7832031 47.527344L16.824219 47.527344L16.824219 44.935547L6.6015625 44.935547L16.583984 32.669922L16.583984 30.390625L3.5527344 30.390625 z" />
</svg>