<?xml version="1.0" encoding="utf-8"?>
<svg xmlns="http://www.w3.org/2000/svg" viewBox="0 0 50 50" width="515" height="515">
  <path d="M18.933594 2.039063C18.226563 2.058594 17.53125 2.421875 17.183594 3.117188L17.179688 3.125L12.46875 13.050781L12.332031 12.828125C12.015625 12.21875 11.363281 11.984375 10.855469 11.984375C10.296875 11.988281 9.660156 12.191406 9.308594 12.859375L9.253906 12.960938L4.5625 31.039063C3.589844 31.988281 2.765625 32.859375 2.328125 33.257813L2 33.558594L2 45.964844L48 45.964844L48 32.746094L47.636719 32.445313C47.636719 32.445313 46.660156 31.644531 45.484375 30.953125L40.234375 18.9375L40.21875 18.910156C39.605469 17.71875 37.78125 17.734375 37.160156 18.910156L32.53125 9.125L32.527344 9.117188C32.179688 8.421875 31.484375 8.058594 30.777344 8.042969C30.070313 8.027344 29.355469 8.351563 28.976563 9.03125L28.972656 9.035156L28.160156 10.53125L26.886719 7.910156L26.855469 7.859375C26.515625 7.332031 25.875 7.058594 25.34375 7.078125C24.8125 7.101563 24.347656 7.328125 23.980469 7.6875L23.855469 7.8125L23.542969 8.464844L20.75 3.039063L20.738281 3.019531C20.355469 2.347656 19.636719 2.023438 18.933594 2.039063 Z M 18.988281 3.960938C18.988281 3.964844 18.988281 3.984375 19.003906 4.015625L23.617188 12.980469L25.347656 9.324219L36.953125 33.148438C35.246094 32.210938 33.707031 31.140625 32.609375 30.019531C31.867188 29.261719 29.4375 25.871094 25.964844 26C24.0625 26.070313 22.082031 27.164063 20.203125 28.15625C19.265625 28.652344 18.371094 29.136719 17.613281 29.480469C16.859375 29.824219 16.214844 30 16 30C15.445313 30 14.945313 29.550781 14.214844 28.800781C13.484375 28.050781 12.519531 27 11 27C9.640625 27 8.414063 27.714844 7.25 28.628906L10.949219 14.394531L12.6875 17.253906L18.976563 4.007813C18.992188 3.972656 18.992188 3.960938 18.988281 3.960938 Z M 30.730469 9.957031C30.726563 9.957031 30.71875 9.972656 30.734375 10.003906L37.109375 23.472656L38.667969 20.347656L42.902344 30.042969C42.699219 30.015625 42.492188 30 42.28125 30C41.074219 30 39.703125 30.402344 38.113281 30.96875L29.234375 12.738281L30.722656 10.003906C30.738281 9.976563 30.734375 9.957031 30.730469 9.957031 Z M 26.035156 28C28.070313 27.925781 30.128906 30.34375 31.179688 31.417969L31.179688 31.421875C34.679688 34.996094 40.929688 37.746094 46 38.078125L46 43.964844L4 43.964844L4 34.421875C4.832031 33.625 5.945313 32.417969 7.257813 31.25C8.703125 29.960938 10.332031 29 11 29C11.554688 29 12.054688 29.449219 12.785156 30.199219C13.515625 30.949219 14.480469 32 16 32C16.832031 32 17.589844 31.6875 18.441406 31.300781C19.296875 30.914063 20.210938 30.417969 21.140625 29.925781C22.996094 28.945313 24.96875 28.039063 26.035156 28 Z M 42.28125 32C42.597656 32 42.90625 32.042969 43.179688 32.121094L43.191406 32.125L43.207031 32.125C43.59375 32.21875 43.964844 32.382813 44.296875 32.570313C45.171875 33.058594 45.734375 33.523438 46 33.734375L46 36.15625C44.132813 35.992188 41.960938 35.386719 39.847656 34.527344L39 32.78125C40.421875 32.296875 41.597656 32 42.28125 32Z" />
</svg>