<?xml version="1.0" encoding="utf-8"?>
<svg xmlns="http://www.w3.org/2000/svg" viewBox="0 0 50 50" width="515" height="515">
  <path d="M24.833984 2.0488281C24.172419 2.0525352 23.510422 2.0854691 22.851562 2.1464844C21.098319 2.3088476 19.364731 2.6761938 17.691406 3.25C10.970102 5.3541941 5.4619007 10.866991 3.2558594 17.576172C0.84631237 24.396034 1.9887268 32.297884 6.1796875 38.171875C10.17028 44.045234 17.03813 47.78907 24.166016 48C24.167316 48.000038 24.168622 47.999962 24.169922 48C31.707663 48.310076 39.202132 44.771739 43.609375 38.685547 A 1.0001 1.0001 0 0 0 43.615234 38.679688C46.43941 34.704912 48 29.817391 48 25C48 24.76871 47.985723 24.537748 47.978516 24.306641 A 1.000544 1.000544 0 0 0 47.964844 23.832031C47.605172 16.969249 44.096175 10.297502 38.373047 6.3652344 A 1.0001 1.0001 0 0 0 37.896484 6.0351562 A 1.0001 1.0001 0 0 0 37.894531 6.0351562C36.287062 4.9254138 34.540282 4.0542066 32.71875 3.4042969 A 1.0001 1.0001 0 0 0 32.275391 3.1386719C30.887485 2.7421275 29.505523 2.3123474 27.867188 2.203125 A 1.0001 1.0001 0 0 0 27.765625 2.2011719 A 1.0001 1.0001 0 0 0 27.623047 2.2167969C26.697039 2.109545 25.76577 2.0436069 24.833984 2.0488281 z M 24.845703 4.0566406C25.066574 4.0555989 25.286934 4.0722645 25.507812 4.078125L25.292969 4.2929688 A 1.0001 1.0001 0 0 0 25.683594 5.9492188L28.458984 6.875L30.292969 8.7070312 A 1.0001 1.0001 0 0 0 31.96875 8.2480469L32.669922 5.5097656C34.13349 6.0821032 35.533099 6.8188098 36.828125 7.7207031 A 1.0001 1.0001 0 0 0 36.855469 7.7382812C36.897015 7.7652863 36.935255 7.7968836 36.976562 7.8242188L39 10.351562L39 11 A 1.0001 1.0001 0 0 0 39.634766 11.931641L41.851562 12.800781L42.103516 16.076172 A 1.0001 1.0001 0 0 0 42.115234 16.177734L43.015625 21.177734 A 1.0001 1.0001 0 0 0 43.105469 21.447266L45.105469 25.447266 A 1.0001 1.0001 0 0 0 45.958984 26C45.758789 30.063223 44.364838 34.171204 41.984375 37.521484C38.90943 41.763232 34.109559 44.661571 28.933594 45.642578 A 1.0001163 1.0001163 0 0 0 28.525391 45.150391L36.539062 38.849609L38.447266 37.894531 A 1.0001 1.0001 0 0 0 38.949219 37.316406L39.925781 34.382812L40.894531 32.447266 A 1.0001 1.0001 0 0 0 40.970703 31.757812L40.470703 29.757812 A 1.0001 1.0001 0 0 0 39.775391 29.039062L36.523438 28.109375L35.707031 27.292969 A 1.0001 1.0001 0 0 0 35.447266 27.105469L33.615234 26.189453L32.740234 25.226562 A 1.0001 1.0001 0 0 0 31.974609 24.900391L27.974609 25 A 1.0001 1.0001 0 0 0 27.552734 25.105469L25.923828 25.919922L23.34375 25.060547L20 23.722656L20 19.720703L22.162109 19L23.382812 19L23.605469 19.447266 A 1.0001163 1.0001163 0 1 0 25.394531 18.552734L25.216797 18.197266L28.636719 14.777344L31.554688 12.832031 A 1.0001 1.0001 0 0 0 31.707031 11.292969L29.707031 9.2929688L28.707031 8.2929688L27.849609 7.4355469 A 1.0001 1.0001 0 0 0 26.798828 7.0078125 A 1.0001 1.0001 0 0 0 26.791016 7.0097656 A 1.0001 1.0001 0 0 0 26.183594 7.4023438L24.78125 8.8046875L24 8.453125L24 6.0449219 A 1.0003223 1.0003223 0 0 0 23.998047 5.9550781 A 1.0001 1.0001 0 0 0 23.998047 5.9453125 A 1.0003223 1.0003223 0 0 0 23.998047 5.9414062 A 1.0001 1.0001 0 0 0 22.984375 4.9863281 A 1.0001 1.0001 0 0 0 22.818359 5.0039062L19.246094 5.09375L18.974609 4.9453125C20.296403 4.5417125 21.657506 4.2684259 23.035156 4.1425781C23.636622 4.0876344 24.241062 4.0594924 24.845703 4.0566406 z M 28.115234 4.2988281C29.010531 4.4334254 29.896288 4.629342 30.767578 4.8769531L30.466797 6.0527344L29.707031 5.2929688 A 1.0001 1.0001 0 0 0 29.316406 5.0507812L27.851562 4.5625L28.115234 4.2988281 z M 16.458984 5.84375 A 1.0001 1.0001 0 0 0 16.517578 5.8769531L18.517578 6.9765625 A 1.0001 1.0001 0 0 0 19.025391 7.0996094L22 7.0253906L22 9.0996094 A 1.0001 1.0001 0 0 0 22.589844 10.011719L24.589844 10.912109 A 1.0001 1.0001 0 0 0 25.707031 10.707031L27 9.4140625L27.292969 9.7070312L28.292969 10.707031L29.429688 11.84375L27.445312 13.167969 A 1.0001 1.0001 0 0 0 27.292969 13.292969L23.585938 17L22 17 A 1.0001 1.0001 0 0 0 21.683594 17.050781L18.683594 18.050781 A 1.0001 1.0001 0 0 0 18 19L18 22.882812L16.818359 22.291016L15 16.837891L15 13.236328L15.894531 11.447266 A 1.0001 1.0001 0 0 0 16 11L16 8 A 1.0001 1.0001 0 0 0 15.447266 7.1054688L14.685547 6.7246094C15.262892 6.4015506 15.854318 6.107461 16.458984 5.84375 z M 12.720703 7.9785156L14 8.6171875L14 10.763672L13.105469 12.552734 A 1.0001 1.0001 0 0 0 13 13L13 17 A 1.0001 1.0001 0 0 0 13.050781 17.316406L15.050781 23.316406 A 1.0001 1.0001 0 0 0 15.552734 23.894531L17.552734 24.894531 A 1.0001 1.0001 0 0 0 17.628906 24.927734L22.628906 26.927734 A 1.0001 1.0001 0 0 0 22.683594 26.949219L25 27.720703L25 28.585938L24.292969 29.292969 A 1.0001 1.0001 0 0 0 24 30L24 32 A 1.0001 1.0001 0 0 0 24.050781 32.316406L25.050781 35.316406 A 1.0001 1.0001 0 0 0 25.601562 35.917969L27.642578 36.804688L27.878906 37.142578L25.064453 44.648438 A 1.0001 1.0001 0 0 0 25.552734 45.894531L25.761719 46C25.255665 46.0171 24.748985 46.021117 24.242188 46 A 1.0001 1.0001 0 0 0 24.228516 46C17.761991 45.809808 11.437852 42.35866 7.828125 37.039062 A 1.0001 1.0001 0 0 0 7.8144531 37.019531C4.0127811 31.697189 2.957794 24.408765 5.1425781 18.234375 A 1.0001 1.0001 0 0 0 5.1503906 18.210938C6.4911934 14.124688 9.2295555 10.498079 12.720703 7.9785156 z M 44.232422 16.640625C45.033104 18.48644 45.580371 20.443295 45.833984 22.433594L44.958984 20.681641L44.232422 16.640625 z M 26.023438 20.996094 A 1.0001 1.0001 0 0 0 25.683594 22.949219L28.683594 23.949219 A 1.0005646 1.0005646 0 1 0 29.316406 22.050781L26.316406 21.050781 A 1.0001 1.0001 0 0 0 26.023438 20.996094 z M 31.568359 26.910156L32.259766 27.671875 A 1.0001 1.0001 0 0 0 32.552734 27.894531L34.408203 28.822266L35.292969 29.707031 A 1.0001 1.0001 0 0 0 35.724609 29.960938L38.669922 30.802734L38.939453 31.882812L38.105469 33.552734 A 1.0001 1.0001 0 0 0 38.050781 33.683594L37.181641 36.291016L35.552734 37.105469 A 1.0001 1.0001 0 0 0 35.380859 37.214844L27.730469 43.234375L29.935547 37.351562 A 1.0001 1.0001 0 0 0 29.818359 36.425781L29.119141 35.425781 A 1.0001 1.0001 0 0 0 28.699219 35.082031L26.808594 34.259766L26 31.837891L26 30.414062L26.707031 29.707031 A 1.0001 1.0001 0 0 0 27 29L27 27.617188L28.248047 26.994141L31.568359 26.910156 z" />
</svg>