<?xml version="1.0" encoding="utf-8"?>
<svg xmlns="http://www.w3.org/2000/svg" viewBox="0 0 50 50" width="515" height="515">
  <path d="M12.46875 4C12.140625 4.007813 11.800781 4.023438 11.46875 4.0625C8.816406 4.375 6.105469 5.707031 3.90625 7.90625C-0.5 12.3125 -1.371094 18.941406 2.40625 22.71875C4.375 24.6875 7.160156 25.347656 9.96875 24.9375C9.390625 26.589844 9 28.300781 9 30.09375C9 38.933594 16.160156 46.09375 25 46.09375C33.839844 46.09375 41 38.933594 41 30.09375C41 28.300781 40.609375 26.589844 40.03125 24.9375C42.839844 25.347656 45.625 24.6875 47.59375 22.71875C47.605469 22.707031 47.613281 22.699219 47.625 22.6875C51.375 18.820313 50.492188 12.304688 46.09375 7.90625C41.6875 3.5 35.058594 2.628906 31.28125 6.40625C29.167969 8.519531 28.625 11.632813 29.21875 14.6875C27.875 14.28125 26.457031 14 25 14C23.511719 14 22.066406 14.277344 20.6875 14.65625C21.355469 11.59375 20.78125 8.46875 18.59375 6.28125C16.941406 4.675781 14.765625 3.949219 12.46875 4 Z M 12.40625 6C14.242188 5.949219 15.953125 6.535156 17.1875 7.71875C19.167969 9.699219 19.5625 12.707031 18.375 15.71875C18.214844 16.09375 18.296875 16.53125 18.585938 16.820313C18.875 17.109375 19.3125 17.191406 19.6875 17.03125C21.257813 16.386719 23.132813 16 25 16C26.867188 16 28.734375 16.382813 30.15625 17.09375C30.523438 17.273438 30.964844 17.210938 31.269531 16.933594C31.570313 16.660156 31.675781 16.226563 31.53125 15.84375C30.433594 12.832031 30.863281 9.667969 32.71875 7.8125C35.539063 4.992188 40.890625 5.515625 44.6875 9.3125C48.480469 13.105469 49.015625 18.34375 46.1875 21.28125C44.390625 23.078125 41.628906 23.566406 38.8125 22.65625C38.425781 22.519531 37.992188 22.632813 37.722656 22.945313C37.457031 23.253906 37.402344 23.699219 37.59375 24.0625C38.523438 25.917969 39 27.9375 39 30.09375C39 37.855469 32.761719 44.09375 25 44.09375C17.238281 44.09375 11 37.855469 11 30.09375C11 27.9375 11.476563 25.917969 12.40625 24.0625C12.597656 23.699219 12.542969 23.253906 12.277344 22.945313C12.007813 22.632813 11.574219 22.519531 11.1875 22.65625C8.371094 23.566406 5.609375 23.078125 3.8125 21.28125C0.992188 18.460938 1.515625 13.109375 5.3125 9.3125C7.214844 7.410156 9.476563 6.328125 11.625 6.0625C11.890625 6.03125 12.144531 6.007813 12.40625 6Z" />
</svg>