<?xml version="1.0" encoding="utf-8"?>
<svg xmlns="http://www.w3.org/2000/svg" viewBox="0 0 50 50" width="515" height="515">
  <path d="M25 3C11.398438 3 8 15.300781 8 19L8 27L10 27L10 30L12.800781 30C14.128906 31.328125 16.113281 32.703125 17.867188 33.796875C18.664063 34.394531 19.371094 34.90625 20 35.34375L20 40C20 40.300781 19.898438 40.601563 19.597656 40.800781L17.597656 42.097656L6.699219 45C6.199219 45.101563 5.898438 45.699219 6 46.199219C6.101563 46.699219 6.699219 47 7.199219 46.902344L18.199219 43.902344C18.300781 43.902344 18.398438 43.800781 18.5 43.800781L20.699219 42.402344C20.699219 42.402344 20.800781 42.402344 20.800781 42.300781C21.5 41.699219 22 40.800781 22 39.902344L22 36.648438C23.804688 37.726563 24.570313 37.878906 24.949219 37.894531L25 38L25.050781 37.898438C25.066406 37.898438 25.085938 37.902344 25.097656 37.902344C25.414063 37.902344 26.078125 37.898438 28 36.777344L28 40C28 40.898438 28.398438 41.800781 29.199219 42.402344C29.199219 42.402344 29.300781 42.398438 29.300781 42.5L31.5 43.902344C31.601563 44 31.699219 44 31.800781 44L42.800781 47L43.097656 47C43.5 47 43.898438 46.699219 44.097656 46.300781C44.097656 45.699219 43.800781 45.199219 43.300781 45L32.402344 42L30.402344 40.699219C30.101563 40.597656 30 40.300781 30 40L30 35.480469C30.855469 34.894531 31.816406 34.210938 33 33.300781C33.101563 33.21875 33.207031 33.128906 33.3125 33.039063C34.730469 32.101563 36.160156 31.039063 37.199219 30L40 30L40 27L42 27L42 19C42 15.300781 38.601563 3 25 3 Z M 25 5C36.898438 5 40 15.601563 40 19L40 25L38 24L38 28L37 28C37 28 36.132813 28.730469 35.203125 29.496094C35.710938 27.976563 36.328125 25.835938 36.699219 23.300781C36.527344 22.785156 36.375 22.304688 36.21875 21.820313C36.039063 20.9375 35.777344 19.941406 35.402344 18.902344C34.800781 17.101563 34.101563 15.402344 33.902344 14.800781L32.902344 12.5L32.402344 15C32.199219 15.800781 31.898438 16.5 31.597656 17.097656C31.300781 14.597656 30.800781 11 30.800781 11L30.5 8.398438L29.402344 10.902344C28.5 13.300781 26.5 15.800781 25.097656 17.097656L26.097656 10.097656C26.097656 10.097656 22.199219 16 19.597656 18.5L19.597656 11.402344L18.402344 13.597656C17.300781 15.597656 14 22 13.597656 23L13.621094 23.089844C13.589844 23.171875 13.558594 23.242188 13.5 23.300781C13.867188 25.730469 14.507813 27.984375 15.136719 29.769531C14.089844 28.921875 13 28 13 28L12 28L12 24L10 25L10 19C10 15.601563 13.101563 5 25 5 Z M 29.597656 13.699219C29.898438 15.699219 30.199219 18.199219 30.300781 19.097656L30.402344 20C31.199219 19.699219 32.5 18.5 33.097656 17.199219C33.757813 19.101563 34.460938 21.257813 34.71875 22.675781C34.28125 25.855469 33.414063 28.878906 32.597656 30.800781C32.398438 31.199219 32.097656 31.5 31.699219 31.902344C27.398438 35.101563 25.398438 36 25 36C24.601563 36 22.601563 35.101563 18.402344 31.800781C18.101563 31.5 17.800781 31.097656 17.597656 30.699219C16.90625 29.144531 15.84375 26.089844 15.375 22.640625C15.816406 21.734375 16.882813 19.652344 18.097656 17.300781C18.097656 17.300781 18 20.199219 18 21C19.398438 20.898438 22.597656 17.699219 23.699219 15.902344L23 20.699219L24.5 19.597656C24.601563 19.5 27.597656 17.199219 29.597656 13.699219 Z M 16 22C16 22 16.300781 23 17 23.597656L17 24C17 24.601563 17.5 25.898438 18 26L21 26C21.5 25.800781 22 24.601563 22 24L22 23C21.699219 22.800781 20.5 22.199219 17.5 22 Z M 32.5 22C29.5 22.101563 28.300781 22.699219 28 23L28 24C28 24.601563 28.5 25.800781 29 26L32 26C32.5 25.898438 33 24.601563 33 24L33 23.597656C33.699219 23 34 22 34 22 Z M 20.5 23C20.800781 23 21 23.199219 21 23.5C21 23.800781 20.800781 24 20.5 24C20.199219 24 20 23.800781 20 23.5C20 23.199219 20.199219 23 20.5 23 Z M 31.5 23C31.800781 23 32 23.199219 32 23.5C32 23.800781 31.800781 24 31.5 24C31.199219 24 31 23.800781 31 23.5C31 23.199219 31.199219 23 31.5 23 Z M 25 31C23.601563 31 23 31.699219 23 32L27 32C27 31.800781 26.398438 31 25 31Z" />
</svg>