<?xml version="1.0" encoding="utf-8"?>
<svg xmlns="http://www.w3.org/2000/svg" viewBox="0 0 50 50" width="515" height="515">
  <path d="M25 1C20.695313 1 16.652344 2.136719 13.15625 4.125C13.027344 4.171875 12.910156 4.246094 12.8125 4.34375C7.597656 7.429688 3.644531 12.425781 1.9375 18.375C1.78125 18.570313 1.703125 18.8125 1.71875 19.0625C1.234375 20.957031 1 22.953125 1 25C1 29.214844 2.089844 33.179688 4 36.625C4.035156 36.882813 4.167969 37.121094 4.375 37.28125C8.566406 44.296875 16.242188 49 25 49C29.308594 49 33.34375 47.835938 36.84375 45.84375C36.875 45.835938 36.90625 45.824219 36.9375 45.8125C44.140625 41.667969 49 33.898438 49 25C49 20.691406 47.839844 16.652344 45.84375 13.15625C45.835938 13.136719 45.824219 13.113281 45.8125 13.09375C45.808594 13.085938 45.816406 13.070313 45.8125 13.0625C45.777344 12.996094 45.734375 12.933594 45.6875 12.875C42.574219 7.589844 37.507813 3.597656 31.46875 1.90625C31.378906 1.859375 31.285156 1.828125 31.1875 1.8125C29.214844 1.285156 27.140625 1 25 1 Z M 25 3C26.722656 3 28.394531 3.191406 30 3.5625L30 20.09375L15.1875 5.28125C18.140625 3.808594 21.472656 3 25 3 Z M 32 4.15625C36.878906 5.792969 41.007813 9.085938 43.6875 13.375L32 25.0625 Z M 13.375 6.3125L25.0625 18L4.15625 18C5.792969 13.117188 9.082031 8.988281 13.375 6.3125 Z M 44.6875 15.1875C46.164063 18.140625 47 21.46875 47 25C47 26.722656 46.808594 28.394531 46.4375 30L29.875 30L31.5625 28.28125C31.644531 28.21875 31.71875 28.144531 31.78125 28.0625 Z M 3.5625 20L20.09375 20L18.34375 21.78125C18.296875 21.820313 18.257813 21.859375 18.21875 21.90625L5.3125 34.78125C3.84375 31.835938 3 28.519531 3 25C3 23.277344 3.191406 21.605469 3.5625 20 Z M 22.90625 20L27.0625 20L30 22.9375L30 27.0625L27.0625 30L22.90625 30L20 27.09375L20 22.90625 Z M 18 24.90625L18 27.28125C17.972656 27.414063 17.972656 27.554688 18 27.6875L18 45.84375C13.109375 44.203125 8.992188 40.890625 6.3125 36.59375 Z M 20 29.90625L21.53125 31.4375C21.621094 31.621094 21.761719 31.773438 21.9375 31.875L22 31.875C22.011719 31.886719 22.019531 31.894531 22.03125 31.90625L34.8125 44.71875C31.859375 46.191406 28.527344 47 25 47C23.277344 47 21.605469 46.808594 20 46.4375 Z M 24.90625 32L27.28125 32C27.414063 32.027344 27.554688 32.027344 27.6875 32L45.84375 32C44.207031 36.882813 40.917969 41.011719 36.625 43.6875Z" />
</svg>