<?xml version="1.0" encoding="utf-8"?>
<svg xmlns="http://www.w3.org/2000/svg" viewBox="0 0 50 50" width="515" height="515">
  <path d="M9 4C6.2504839 4 4 6.2504839 4 9L4 41C4 43.749516 6.2504839 46 9 46L41 46C43.749516 46 46 43.749516 46 41L46 9C46 6.2504839 43.749516 4 41 4L9 4 z M 9 6L41 6C42.668484 6 44 7.3315161 44 9L44 41C44 42.668484 42.668484 44 41 44L9 44C7.3315161 44 6 42.668484 6 41L6 9C6 7.3315161 7.3315161 6 9 6 z M 25 10C16.727573 10 10 16.727573 10 25C10 33.272427 16.727573 40 25 40C33.272427 40 40 33.272427 40 25C40 16.727573 33.272427 10 25 10 z M 25 12C32.191546 12 38 17.808454 38 25C38 32.191546 32.191546 38 25 38C17.808454 38 12 32.191546 12 25C12 17.808454 17.808454 12 25 12 z M 24.359375 16.001953C24.310953 16.007484 24.26425 16.022125 24.21875 16.046875C24.03775 16.144875 23.960062 16.367547 24.039062 16.560547C24.623062 17.956547 26.668625 22.786719 28.390625 26.011719L30 25.140625C28.363 21.923625 25.527328 17.442547 24.736328 16.185547C24.653078 16.052797 24.504641 15.985359 24.359375 16.001953 z M 24.072266 19.007812C23.65775 18.956203 23.233719 19.150406 23.011719 19.535156L23.007812 19.542969L24.863281 20.613281L24.867188 20.607422C25.162188 20.095422 24.985609 19.439531 24.474609 19.144531C24.346359 19.070531 24.210437 19.025016 24.072266 19.007812 z M 22.851562 19.808594L21.886719 21.476562L23.742188 22.548828L24.707031 20.880859L22.851562 19.808594 z M 21.761719 21.699219L17.828125 28.513672L19.683594 29.583984L23.617188 22.771484L21.761719 21.699219 z M 16 24L16 27L18.130859 27L19.859375 24L16 24 z M 23.480469 24L21.75 27L28.550781 27L28.029297 26.199219C27.669297 25.519219 27.289922 24.77 26.919922 24L23.480469 24 z M 29.849609 24C30.029609 24.34 30.209141 24.670234 30.369141 24.990234L31.189453 27L34 27L34 24L29.849609 24 z M 30.113281 25.357422L28.505859 26.228516L29.707031 28.119141L30.980469 27.429688L30.113281 25.357422 z M 31.0625 27.746094L29.919922 28.365234L31.154297 31.396484C31.371297 31.928484 31.991234 32.154766 32.490234 31.884766C32.990234 31.614766 33.153797 30.964375 32.841797 30.484375L31.0625 27.746094 z M 17.689453 28.751953L17 31.912109L17.152344 32L19.546875 29.822266L17.689453 28.751953 z" />
</svg>