<?xml version="1.0" encoding="utf-8"?>
<svg xmlns="http://www.w3.org/2000/svg" viewBox="0 0 50 50" width="515" height="515">
  <path d="M25 0C22.546875 0 20.476563 1.355469 17.40625 2.9375C14.335938 4.519531 10.214844 6.429688 3.78125 7.84375L3 8.03125L3 8.8125C3 24.132813 8.371094 34.371094 13.75 40.71875C19.128906 47.066406 24.59375 49.59375 24.59375 49.59375L25.03125 49.8125L25.46875 49.59375C25.46875 49.59375 47 38.46875 47 8.8125L47 8.03125L46.21875 7.84375C39.785156 6.429688 35.664063 4.519531 32.59375 2.9375C29.523438 1.355469 27.453125 0 25 0 Z M 25 2C26.644531 2 28.550781 3.105469 31.6875 4.71875C34.667969 6.25 38.859375 8.128906 44.9375 9.5625C44.570313 36.679688 26.253906 46.851563 24.96875 47.53125C24.347656 47.230469 20.019531 45.066406 15.25 39.4375C10.222656 33.503906 5.246094 23.960938 5.0625 9.5625C11.140625 8.128906 15.332031 6.25 18.3125 4.71875C21.449219 3.105469 23.355469 2 25 2 Z M 16 13C14.90625 13 14 13.90625 14 15L14 16.6875C13.941406 16.882813 13.941406 17.085938 14 17.28125L14 30C14 31.09375 14.90625 32 16 32L34 32C35.09375 32 36 31.09375 36 30L36 17.1875C36.027344 17.054688 36.027344 16.914063 36 16.78125L36 15C36 13.90625 35.09375 13 34 13 Z M 16 15L31 15C31 15.550781 31.449219 16 32 16C32.550781 16 33 15.550781 33 15L34 15L34 16L16 16 Z M 16 18L34 18L34 30L16 30Z" />
</svg>