<?xml version="1.0" encoding="utf-8"?>
<svg xmlns="http://www.w3.org/2000/svg" viewBox="0 0 50 50" width="515" height="515">
  <path d="M28 2C27.027344 2 26.046875 2.390625 25.3125 3.125L11.34375 17.09375L10.71875 14.21875C9.992188 10.929688 6.601563 8.945313 3.375 9.90625C3.363281 9.90625 3.355469 9.90625 3.34375 9.90625L2.71875 10.09375C2.242188 10.230469 1.933594 10.695313 2 11.1875L4.40625 27.96875L4.4375 27.96875C4.386719 30.570313 5.296875 33.203125 7.28125 35.1875L11.25 39.15625C13.015625 40.921875 15.367188 41.773438 17.6875 41.71875C18.660156 43.085938 20 44.222656 21.65625 44.9375L26.375 47C31.195313 49.082031 36.824219 46.816406 38.90625 42L44.03125 30.09375L47.6875 21.65625C48.515625 19.746094 47.632813 17.511719 45.71875 16.6875C45.117188 16.425781 44.488281 16.378906 43.875 16.4375L44.78125 14.3125C45.605469 12.402344 44.722656 10.167969 42.8125 9.34375C42.097656 9.035156 41.34375 9.019531 40.625 9.15625C40.726563 7.601563 39.910156 6.054688 38.40625 5.40625C38.21875 5.324219 38.035156 5.269531 37.84375 5.21875C37.679688 4.9375 37.488281 4.675781 37.25 4.4375C36.515625 3.703125 35.535156 3.3125 34.5625 3.3125C33.589844 3.3125 32.640625 3.703125 31.90625 4.4375L31.625 4.71875C31.453125 4.132813 31.148438 3.585938 30.6875 3.125C29.953125 2.390625 28.972656 2 28 2 Z M 28 4C28.457031 4 28.894531 4.175781 29.25 4.53125C29.761719 5.042969 29.878906 5.75 29.65625 6.375C28.429688 6.585938 27.335938 7.378906 26.8125 8.59375L26.15625 10.15625L26.125 10.1875C26.113281 10.199219 26.105469 10.207031 26.09375 10.21875L20.71875 15.625C20.421875 15.867188 20.285156 16.253906 20.371094 16.628906C20.457031 17 20.75 17.292969 21.121094 17.378906C21.496094 17.464844 21.882813 17.328125 22.125 17.03125L23.96875 15.1875L19 26.71875L17.34375 24.3125C15.457031 21.523438 11.585938 20.917969 8.9375 23L8.40625 23.4375C8.015625 23.742188 7.910156 24.289063 8.15625 24.71875L16.28125 38.9375L16.3125 38.9375C16.386719 39.175781 16.46875 39.421875 16.5625 39.65625C15.140625 39.464844 13.753906 38.816406 12.65625 37.71875L8.71875 33.75C7.09375 32.125 6.332031 30.003906 6.40625 27.875C6.402344 27.8125 6.390625 27.75 6.375 27.6875L4.125 11.8125C6.207031 11.304688 8.28125 12.535156 8.75 14.65625L9.78125 19.3125C9.867188 19.667969 10.136719 19.949219 10.488281 20.046875C10.835938 20.140625 11.214844 20.042969 11.46875 19.78125L26.71875 4.53125C27.074219 4.175781 27.542969 4 28 4 Z M 34.5625 5.3125C34.8125 5.3125 35.078125 5.363281 35.3125 5.46875C34.503906 5.855469 33.816406 6.523438 33.4375 7.40625L33.25 7.8125C32.972656 7.449219 32.664063 7.125 32.28125 6.875L33.3125 5.84375C33.667969 5.488281 34.105469 5.3125 34.5625 5.3125 Z M 36.84375 7.09375C36.855469 7.09375 36.863281 7.09375 36.875 7.09375C37.023438 7.152344 37.183594 7.171875 37.34375 7.15625C37.351563 7.160156 37.367188 7.152344 37.375 7.15625C37.460938 7.179688 37.542969 7.214844 37.625 7.25C38.542969 7.648438 38.960938 8.675781 38.5625 9.59375L37.84375 11.28125C37.835938 11.296875 37.820313 11.296875 37.8125 11.3125L31.9375 24.90625C31.722656 25.414063 31.960938 26.003906 32.46875 26.21875C32.976563 26.433594 33.566406 26.195313 33.78125 25.6875L39.65625 12.09375C40.054688 11.175781 41.082031 10.757813 42 11.15625C42.917969 11.554688 43.335938 12.613281 42.9375 13.53125L40.71875 18.65625L37.0625 27.09375C36.839844 27.601563 37.070313 28.199219 37.578125 28.421875C38.085938 28.648438 38.683594 28.414063 38.90625 27.90625L42.5625 19.4375C42.960938 18.519531 43.988281 18.101563 44.90625 18.5C45.824219 18.898438 46.238281 19.929688 45.84375 20.84375C45.84375 20.855469 45.84375 20.863281 45.84375 20.875L42.1875 29.3125L37.0625 41.21875C35.410156 45.042969 31.015625 46.808594 27.1875 45.15625L22.4375 43.125C20.972656 42.492188 19.820313 41.445313 19.03125 40.1875C18.632813 39.554688 18.328125 38.875 18.125 38.15625C18.101563 38.078125 18.070313 38.007813 18.03125 37.9375L10.3125 24.5C12.0625 23.253906 14.46875 23.636719 15.6875 25.4375L18.375 29.375C18.582031 29.664063 18.925781 29.820313 19.277344 29.789063C19.632813 29.757813 19.941406 29.539063 20.09375 29.21875L20.1875 29.03125L28.65625 9.375C29.054688 8.457031 30.113281 8.070313 31.03125 8.46875C31.949219 8.867188 32.335938 9.894531 31.9375 10.8125L26.8125 22.6875C26.597656 23.195313 26.835938 23.785156 27.34375 24C27.851563 24.214844 28.441406 23.976563 28.65625 23.46875L33.78125 11.59375L35.25 8.1875C35.449219 7.726563 35.824219 7.386719 36.25 7.21875C36.433594 7.144531 36.644531 7.101563 36.84375 7.09375Z" />
</svg>