<?xml version="1.0" encoding="utf-8"?>
<svg xmlns="http://www.w3.org/2000/svg" viewBox="0 0 50 50" width="515" height="515">
  <path d="M9.984375 15.001953C9.149375 15.041953 8.1182969 15.573313 7.5292969 16.320312C6.9892969 16.964312 6.5275313 18.010188 6.6445312 18.992188C7.5875313 19.074188 8.5301406 18.500438 9.1191406 17.773438C9.6991406 17.026437 10.082375 16.024953 9.984375 15.001953 z M 18 17L18 32L20.375 32L20.375 27L23.625 27C26.608 27 28.75 24.925 28.75 22C28.75 19.075 26.647125 17 23.703125 17L18 17 z M 9.734375 19C8.9340972 19 8.2693664 19.214139 7.7832031 19.394531C7.2970399 19.574924 6.9286275 19.664064 7.0390625 19.664062C7.1376775 19.664062 6.7976003 19.582252 6.3613281 19.40625C5.9250559 19.230248 5.3397189 19.003906 4.6230469 19.003906C2.998071 19.003906 1.5360728 19.970419 0.7421875 21.375C-0.05602008 22.757929 -0.12602494 24.366954 0.1328125 25.841797C0.39161454 27.316438 0.97844818 28.68567 1.6894531 29.720703C2.0062672 30.186269 2.372974 30.704285 2.8652344 31.150391C3.3574948 31.596497 4.0322736 31.992186 4.84375 31.992188L4.8632812 31.992188L4.8808594 31.992188C5.5190747 31.968238 6.0003988 31.754997 6.3046875 31.630859C6.6089762 31.506722 6.7612557 31.441406 7.1503906 31.441406C7.5326066 31.441406 7.6899116 31.510636 8.0234375 31.646484C8.3569638 31.782329 8.882194 32 9.5644531 32C10.367158 32 11.042073 31.594674 11.501953 31.146484C11.961118 30.698992 12.284278 30.198324 12.583984 29.757812L12.585938 29.755859C13.38479 28.58617 13.712891 27.386719 13.712891 27.386719L13.960938 26.503906L13.101562 26.181641C13.101562 26.181641 11.830875 25.810047 11.818359 24.193359L11.818359 24.191406C11.812359 23.546399 12.057866 23.108552 12.330078 22.779297C12.466184 22.614669 12.607041 22.486829 12.714844 22.400391C12.768744 22.357171 12.814474 22.323911 12.847656 22.300781C12.880836 22.277651 12.807336 22.340227 12.96875 22.216797L13.716797 21.644531L13.191406 20.863281C12.08757 19.224488 10.404934 19 9.734375 19 z M 20.375 19L23.125 19C25.172 19 26.375 20.105 26.375 22C26.375 23.895 25.182 25 23.125 25L20.375 25L20.375 19 z M 9.734375 21C9.8676828 21 10.354335 21.142506 10.849609 21.443359C10.827039 21.469429 10.809739 21.478489 10.787109 21.505859C10.300571 22.094354 9.8073349 23.020944 9.8183594 24.210938C9.8332004 26.015998 10.746015 26.901344 11.503906 27.4375C11.380877 27.775502 11.323397 28.058847 10.933594 28.628906L10.931641 28.630859C10.624742 29.081854 10.345792 29.482533 10.107422 29.714844C9.8690986 29.947107 9.7497487 30 9.5644531 30C9.2587122 30 9.1288177 29.938077 8.7773438 29.794922C8.4258696 29.651767 7.8701747 29.441406 7.1503906 29.441406C6.4465256 29.441406 5.8977894 29.636935 5.5488281 29.779297C5.2107791 29.917207 5.0812383 29.973421 4.8300781 29.986328C4.6568213 29.9832 4.476282 29.912158 4.2089844 29.669922C3.9359948 29.422528 3.6319828 29.022138 3.3417969 28.595703L3.3417969 28.59375L3.3398438 28.591797C2.8132629 27.826462 2.3078318 26.660277 2.1035156 25.496094C1.8991994 24.33191 1.9948402 23.199922 2.4746094 22.371094L2.4785156 22.365234L2.4804688 22.361328C2.9352229 21.554577 3.833921 21.003906 4.6230469 21.003906C4.8943748 21.003906 5.2315534 21.107721 5.6132812 21.261719C5.9950092 21.415717 6.3684471 21.664063 7.0390625 21.664062C7.7134975 21.664062 8.071882 21.421139 8.4804688 21.269531C8.8890548 21.117958 9.2896528 21 9.734375 21 z M 34.199219 21C31.710219 21 29.870734 22.395453 29.802734 24.314453L31.912109 24.314453C32.086109 23.402453 32.948859 22.804688 34.130859 22.804688C35.563859 22.804688 36.373047 23.460969 36.373047 24.667969L36.375 25.5L33.443359 25.654297C30.722359 25.815297 29.25 26.908594 29.25 28.808594C29.25 30.727594 30.770219 32.001953 32.949219 32.001953C34.421219 32.001953 35.78725 31.270328 36.40625 30.111328L36.455078 30.111328L36.455078 31.886719L38.623047 31.886719L38.623047 24.515625C38.624047 22.376625 36.882219 21 34.199219 21 z M 39.5 21L43.507812 31.949219L43.292969 32.615234C42.930969 33.744234 42.344828 34.177734 41.298828 34.177734C41.119828 34.177734 40.781 34.159625 40.625 34.140625L40.625 35.945312C40.783 35.980313 41.332906 36 41.503906 36C43.810906 36 44.896703 35.132047 45.845703 32.498047L50 21L47.595703 21L44.808594 29.884766L44.759766 29.884766L41.972656 21L39.5 21 z M 36.375 27L36.367188 27.867188C36.367188 29.254188 35.166125 30.242188 33.578125 30.242188C32.329125 30.242188 31.535156 29.653953 31.535156 28.751953C31.535156 27.820953 32.300672 27.279359 33.763672 27.193359L36.375 27 z" />
</svg>