<?xml version="1.0" encoding="utf-8"?>
<svg xmlns="http://www.w3.org/2000/svg" viewBox="0 0 50 50" width="515" height="515">
  <path d="M46.59375 0C46.394531 0.0273438 46.210938 0.117188 46.0625 0.25L40.40625 5.03125C39.941406 4.488281 37.890625 2.078125 37.34375 1.4375C36.828125 0.835938 36.078125 0.351563 35.03125 0.46875C34.507813 0.527344 33.949219 0.847656 33.59375 1.34375C33.238281 1.839844 33.058594 2.449219 33 3.21875C32.796875 6.175781 32.90625 8.4375 32.90625 8.4375C32.90625 8.457031 32.90625 8.480469 32.90625 8.5C31.824219 9.402344 27.515625 13 26.65625 13.71875C26.425781 13.53125 26.414063 13.472656 26.0625 13.28125C25.652344 13.058594 25.148438 12.839844 24.5625 12.8125C23.976563 12.785156 23.289063 12.976563 22.75 13.4375C21.367188 14.621094 12.84375 21.84375 12.84375 21.84375C12.796875 21.882813 12.757813 21.921875 12.71875 21.96875C12.71875 21.96875 12.476563 22.324219 12.375 22.75C12.273438 23.175781 12.246094 23.773438 12.4375 24.46875C12.605469 25.082031 12.78125 25.519531 12.8125 25.6875C12.429688 25.949219 12.0625 26.273438 11.71875 26.59375C11.335938 26.953125 11.058594 27.222656 11.03125 27.25L11 27.28125C10.972656 27.308594 10.6875 27.582031 10.4375 28.0625C10.296875 28.332031 10.179688 28.683594 10.09375 29.09375C10.019531 29.449219 9.972656 29.847656 10 30.28125C10.011719 30.464844 9.683594 31.441406 9.0625 32.375C8.441406 33.308594 7.59375 34.273438 6.9375 34.84375C5.476563 36.109375 1.0625 39.71875 1.0625 39.71875C1.0625 39.730469 1.0625 39.738281 1.0625 39.75C1.0625 39.75 0.589844 40.128906 0.28125 40.78125C-0.0273438 41.433594 -0.109375 42.558594 0.625 43.4375L4.96875 48.5625L5.03125 48.65625L5.0625 48.65625C5.125 48.75 5.457031 49.269531 6.15625 49.71875C6.535156 49.960938 7.066406 50.191406 7.6875 50.125C8.308594 50.058594 8.898438 49.652344 9.3125 49.0625C9.695313 48.507813 10.277344 47.414063 11.0625 45.90625C11.847656 44.398438 12.8125 42.550781 13.71875 40.75C15.230469 37.746094 16.164063 35.777344 16.59375 34.90625C16.972656 36.234375 17.867188 38.617188 18.8125 41.0625C19.828125 43.695313 20.78125 46.0625 20.78125 46.0625C20.8125 46.152344 20.851563 46.234375 20.90625 46.3125C20.90625 46.3125 21.152344 46.65625 21.625 46.90625C22.097656 47.15625 23.03125 47.191406 23.65625 46.65625L27.15625 43.65625C27.203125 43.628906 27.207031 43.628906 27.25 43.59375C27.441406 43.4375 27.660156 43.175781 27.78125 42.84375C28.019531 42.179688 27.921875 41.367188 27.40625 40.28125C27.398438 40.261719 27.386719 40.238281 27.375 40.21875C26.929688 39.375 25.773438 36.734375 24.75 34.375C24.679688 34.210938 24.695313 34.222656 24.625 34.0625C25.953125 33.117188 26.769531 31.941406 27.03125 30.65625C27.1875 29.898438 27.167969 29.125 27.03125 28.375C32.792969 33.191406 38.9375 35 45.3125 35C45.664063 35 46.15625 35.03125 46.75 34.8125C47.046875 34.703125 47.378906 34.515625 47.625 34.1875C47.871094 33.859375 48 33.417969 48 33L48 28.375C48 28.375 48 28.316406 48 28.3125C48.003906 28.261719 48.039063 27.863281 47.84375 27.34375C47.636719 26.792969 46.914063 26.09375 46 26.09375C40.972656 26.09375 37.75 24.8125 35.78125 23.5625C33.859375 22.339844 33.21875 21.269531 33.1875 21.21875C33.1875 21.21875 33.160156 21.191406 33.15625 21.1875C33.144531 21.160156 33.113281 21.078125 33.09375 20.9375C33.070313 20.773438 33.042969 20.753906 33.15625 20.65625C33.179688 20.636719 33.199219 20.617188 33.21875 20.59375C36.136719 18.136719 39.335938 15.4375 39.375 15.40625C39.375 15.40625 39.433594 15.378906 39.4375 15.375L39.4375 15.34375C39.496094 15.304688 39.785156 15.132813 40.0625 14.71875C40.214844 14.488281 40.351563 14.1875 40.375 13.78125C40.398438 13.375 40.261719 12.902344 39.96875 12.5625C39.789063 12.351563 39.8125 12.390625 39.6875 12.25L49.25 4.0625C49.671875 3.707031 49.726563 3.078125 49.375 2.65625L47.46875 0.375C47.257813 0.109375 46.929688 -0.03125 46.59375 0 Z M 46.5625 2.40625L47.21875 3.15625L38.375 10.75L37.6875 9.90625 Z M 35.25 2.46875C35.304688 2.460938 35.757813 2.648438 35.84375 2.75C36.367188 3.363281 38.378906 5.730469 38.875 6.3125L36.3125 8.46875L36.0625 8.25C36.0625 8.25 35.761719 7.957031 35.28125 7.78125C35.175781 7.742188 35.046875 7.707031 34.90625 7.6875C34.886719 6.984375 34.851563 5.554688 35 3.375C35.039063 2.84375 35.160156 2.582031 35.21875 2.5C35.277344 2.417969 35.222656 2.472656 35.25 2.46875 Z M 34.59375 9.65625C34.578125 9.652344 34.621094 9.660156 34.625 9.65625C34.6875 9.683594 34.75 9.75 34.75 9.75L35.375 10.34375C35.472656 10.503906 35.613281 10.632813 35.78125 10.71875L37.34375 12.59375C37.363281 12.625 37.382813 12.65625 37.40625 12.6875L37.4375 12.71875C37.445313 12.738281 37.457031 12.761719 37.46875 12.78125L37.53125 12.84375C37.550781 12.867188 37.570313 12.886719 37.59375 12.90625C37.59375 12.90625 37.90625 13.222656 38.3125 13.6875C38.277344 13.722656 38.21875 13.78125 38.21875 13.78125C38.195313 13.800781 38.175781 13.820313 38.15625 13.84375C38.15625 13.84375 34.90625 16.589844 31.96875 19.0625C31.925781 19.089844 31.882813 19.121094 31.84375 19.15625C31.007813 19.859375 30.976563 19.882813 30.09375 20.625C28.054688 22.335938 26.007813 24.066406 24.40625 25.40625C24.179688 25.535156 24.03125 25.65625 24.03125 25.65625C23.917969 25.738281 23.820313 25.847656 23.75 25.96875C23.269531 26.367188 22.746094 26.78125 22.40625 27.0625C21.898438 27.484375 21.519531 27.796875 21.5 27.8125C21.480469 27.820313 21.457031 27.832031 21.4375 27.84375C20.769531 28.417969 20.691406 29.253906 20.75 29.78125C20.804688 30.292969 20.988281 30.664063 21 30.6875C21.007813 30.695313 21 30.71875 21 30.71875C21.011719 30.742188 21.703125 32.371094 22.25 33.65625C22.199219 34.035156 22.367188 34.414063 22.6875 34.625C22.808594 34.90625 22.78125 34.894531 22.90625 35.1875C23.925781 37.539063 25.035156 40.058594 25.59375 41.125C25.957031 41.890625 25.871094 42.125 25.875 42.125C25.863281 42.136719 25.855469 42.144531 25.84375 42.15625L22.5 45.03125C22.390625 44.761719 21.601563 42.796875 20.65625 40.34375C19.652344 37.738281 18.578125 34.796875 18.375 34C18.371094 33.988281 18.378906 33.980469 18.375 33.96875C18.261719 33.414063 18.121094 33.019531 17.875 32.65625C17.621094 32.289063 17.078125 31.945313 16.59375 32C16.464844 32.015625 16.378906 32.058594 16.28125 32.09375C16.269531 32.09375 16.261719 32.09375 16.25 32.09375C16.101563 32.082031 15.953125 32.101563 15.8125 32.15625C14.550781 32.539063 13.777344 32.457031 13.3125 32.28125C12.847656 32.105469 12.601563 31.816406 12.40625 31.40625C12.015625 30.582031 12.09375 29.40625 12.09375 29.40625C12.09375 29.375 12.09375 29.34375 12.09375 29.3125C12.09375 29.28125 12.09375 29.25 12.09375 29.21875C12.121094 29.144531 12.160156 29.054688 12.1875 29C12.300781 28.777344 12.34375 28.75 12.34375 28.75C12.363281 28.742188 12.386719 28.730469 12.40625 28.71875C12.40625 28.71875 12.71875 28.378906 13.09375 28.03125C13.46875 27.683594 13.96875 27.269531 14 27.25C14.042969 27.222656 14.085938 27.191406 14.125 27.15625C14.660156 26.710938 14.875 25.875 14.78125 25.34375C14.6875 24.8125 14.507813 24.421875 14.375 23.9375C14.269531 23.550781 14.289063 23.355469 14.3125 23.25C14.3125 23.246094 14.3125 23.222656 14.3125 23.21875C14.589844 22.984375 22.667969 16.164063 24.0625 14.96875C24.222656 14.832031 24.304688 14.804688 24.46875 14.8125C24.632813 14.820313 24.855469 14.902344 25.09375 15.03125C25.574219 15.289063 25.96875 15.6875 25.96875 15.6875C26.328125 16.078125 26.933594 16.121094 27.34375 15.78125C27.34375 15.78125 33.972656 10.171875 34.59375 9.65625 Z M 31.40625 22.125C31.410156 22.136719 31.4375 22.1875 31.4375 22.1875C31.4375 22.199219 31.4375 22.207031 31.4375 22.21875C31.4375 22.21875 32.4375 23.800781 34.71875 25.25C36.996094 26.695313 40.613281 28.085938 45.96875 28.09375C45.980469 28.148438 46 28.21875 46 28.21875C46 28.25 46 28.28125 46 28.3125L46 32.9375C45.890625 32.964844 45.632813 33 45.3125 33C38.855469 33 32.890625 31.109375 27.09375 25.75C28.453125 24.605469 29.871094 23.414063 31.40625 22.125 Z M 24.75 27.6875C25.089844 28.621094 25.21875 29.492188 25.0625 30.25C24.917969 30.949219 24.574219 31.597656 23.8125 32.21875C23.433594 31.347656 22.8125 29.90625 22.8125 29.90625C22.8125 29.894531 22.8125 29.886719 22.8125 29.875C22.8125 29.875 22.738281 29.734375 22.71875 29.5625C22.699219 29.390625 22.71875 29.371094 22.75 29.34375C22.929688 29.203125 23.210938 28.992188 23.6875 28.59375C23.964844 28.363281 24.382813 27.992188 24.75 27.6875 Z M 11.0625 33C11.433594 33.476563 11.933594 33.90625 12.59375 34.15625C13.179688 34.378906 13.863281 34.464844 14.625 34.40625C14.101563 35.460938 13.3125 37.050781 11.90625 39.84375C11 41.640625 10.058594 43.507813 9.28125 45C8.503906 46.492188 7.855469 47.691406 7.6875 47.9375C7.503906 48.199219 7.464844 48.15625 7.46875 48.15625C7.472656 48.15625 7.394531 48.125 7.25 48.03125C6.957031 47.84375 6.625 47.4375 6.625 47.4375C6.605469 47.40625 6.585938 47.375 6.5625 47.34375L2.15625 42.15625C1.890625 41.835938 2 41.824219 2.09375 41.625C2.179688 41.4375 2.324219 41.296875 2.34375 41.28125C2.34375 41.28125 6.710938 37.679688 8.25 36.34375C9.09375 35.613281 9.992188 34.589844 10.71875 33.5C10.832031 33.328125 10.957031 33.167969 11.0625 33Z" />
</svg>