<?xml version="1.0" encoding="utf-8"?>
<svg xmlns="http://www.w3.org/2000/svg" viewBox="0 0 50 50" width="515" height="515">
  <path d="M22.8125 6C22.335938 6.089844 21.992188 6.511719 22 7L22 19.78125L10.90625 13.4375C10.679688 13.300781 10.40625 13.257813 10.148438 13.324219C9.890625 13.386719 9.667969 13.554688 9.53125 13.78125L7.53125 17.1875C7.398438 17.417969 7.359375 17.695313 7.429688 17.953125C7.5 18.210938 7.671875 18.429688 7.90625 18.5625L19 25L7.90625 31.4375C7.671875 31.570313 7.5 31.789063 7.429688 32.046875C7.359375 32.304688 7.398438 32.582031 7.53125 32.8125L9.53125 36.21875C9.667969 36.445313 9.890625 36.613281 10.148438 36.675781C10.40625 36.742188 10.679688 36.699219 10.90625 36.5625L22 30.21875L22 43C22 43.550781 22.449219 44 23 44L27 44C27.550781 44 28 43.550781 28 43L28 30.21875L39.09375 36.5625C39.320313 36.699219 39.59375 36.742188 39.851563 36.675781C40.109375 36.613281 40.332031 36.445313 40.46875 36.21875L42.46875 32.8125C42.601563 32.582031 42.640625 32.304688 42.570313 32.046875C42.5 31.789063 42.328125 31.570313 42.09375 31.4375L31 25L42.09375 18.5625C42.328125 18.429688 42.5 18.210938 42.570313 17.953125C42.640625 17.695313 42.601563 17.417969 42.46875 17.1875L40.46875 13.78125C40.332031 13.554688 40.109375 13.386719 39.851563 13.324219C39.59375 13.257813 39.320313 13.300781 39.09375 13.4375L28 19.78125L28 7C28 6.449219 27.550781 6 27 6L23 6C22.96875 6 22.9375 6 22.90625 6C22.875 6 22.84375 6 22.8125 6 Z M 24 8L26 8L26 21.5C25.996094 21.859375 26.1875 22.191406 26.496094 22.371094C26.804688 22.554688 27.1875 22.554688 27.5 22.375L39.25 15.65625L40.25 17.34375L28.5 24.125C28.183594 24.300781 27.984375 24.636719 27.984375 25C27.984375 25.363281 28.183594 25.699219 28.5 25.875L40.25 32.65625L39.25 34.34375L27.5 27.625C27.1875 27.445313 26.804688 27.445313 26.496094 27.628906C26.1875 27.808594 25.996094 28.140625 26 28.5L26 42L24 42L24 28.5C24.003906 28.140625 23.8125 27.808594 23.503906 27.628906C23.195313 27.445313 22.8125 27.445313 22.5 27.625L10.75 34.34375L9.75 32.65625L21.5 25.875C21.816406 25.699219 22.015625 25.363281 22.015625 25C22.015625 24.636719 21.816406 24.300781 21.5 24.125L9.75 17.34375L10.75 15.65625L22.5 22.375C22.8125 22.554688 23.195313 22.554688 23.503906 22.371094C23.8125 22.191406 24.003906 21.859375 24 21.5Z" />
</svg>