<?xml version="1.0" encoding="utf-8"?>
<svg xmlns="http://www.w3.org/2000/svg" viewBox="0 0 50 50" width="515" height="515">
  <path d="M2.8125 2C2.335938 2.089844 1.992188 2.511719 2 3L2 39C2 39.550781 2.449219 40 3 40L10 40L10 38L4 38L4 4L46 4L46 38L40 38L40 40L47 40C47.550781 40 48 39.550781 48 39L48 3C48 2.449219 47.550781 2 47 2L3 2C2.96875 2 2.9375 2 2.90625 2C2.875 2 2.84375 2 2.8125 2 Z M 7 8C6.449219 8 6 8.449219 6 9L6 11C6 11.550781 6.449219 12 7 12L10 12C10.550781 12 11 11.550781 11 11L11 9C11 8.449219 10.550781 8 10 8 Z M 13.8125 8C13.335938 8.089844 12.992188 8.511719 13 9L13 23C13 23.550781 13.449219 24 14 24L36 24C36.550781 24 37 23.550781 37 23L37 9C37 8.449219 36.550781 8 36 8L14 8C13.96875 8 13.9375 8 13.90625 8C13.875 8 13.84375 8 13.8125 8 Z M 40 8C39.449219 8 39 8.449219 39 9L39 11C39 11.550781 39.449219 12 40 12L43 12C43.550781 12 44 11.550781 44 11L44 9C44 8.449219 43.550781 8 43 8 Z M 15 10L35 10L35 22L15 22 Z M 7 14C6.449219 14 6 14.449219 6 15L6 17C6 17.550781 6.449219 18 7 18L10 18C10.550781 18 11 17.550781 11 17L11 15C11 14.449219 10.550781 14 10 14 Z M 40 14C39.449219 14 39 14.449219 39 15L39 17C39 17.550781 39.449219 18 40 18L43 18C43.550781 18 44 17.550781 44 17L44 15C44 14.449219 43.550781 14 43 14 Z M 7 20C6.449219 20 6 20.449219 6 21L6 23C6 23.550781 6.449219 24 7 24L10 24C10.550781 24 11 23.550781 11 23L11 21C11 20.449219 10.550781 20 10 20 Z M 40 20C39.449219 20 39 20.449219 39 21L39 23C39 23.550781 39.449219 24 40 24L43 24C43.550781 24 44 23.550781 44 23L44 21C44 20.449219 43.550781 20 43 20 Z M 17.90625 27.96875C17.875 27.976563 17.84375 27.988281 17.8125 28L12 28C10.894531 28 10 28.894531 10 30C10 31.105469 10.894531 32 12 32L12 41.53125C11.867188 41.808594 11.867188 42.128906 12 42.40625L12 47C12 47.550781 12.449219 48 13 48L37 48C37.550781 48 38 47.550781 38 47L38 42.1875C38.027344 42.054688 38.027344 41.914063 38 41.78125L38 32C39.105469 32 40 31.105469 40 30C40 28.894531 39.105469 28 38 28L18.21875 28C18.117188 27.972656 18.011719 27.960938 17.90625 27.96875 Z M 14 30L17.15625 30C17.472656 31.261719 18.335938 32.347656 19.5 33.125C20.960938 34.101563 22.886719 34.65625 25 34.65625C27.113281 34.65625 29.039063 34.101563 30.5 33.125C31.664063 32.347656 32.527344 31.261719 32.84375 30L36 30L36 41.09375C33.488281 41.515625 31.515625 43.488281 31.09375 46L18.90625 46C18.484375 43.488281 16.511719 41.515625 14 41.09375 Z M 19.25 30L30.75 30C30.5 30.527344 30.070313 31.027344 29.40625 31.46875C28.335938 32.183594 26.753906 32.65625 25 32.65625C23.246094 32.65625 21.664063 32.183594 20.59375 31.46875C19.929688 31.027344 19.5 30.527344 19.25 30 Z M 25 37C23.992188 37 23.050781 37.257813 22.3125 37.75C21.574219 38.242188 21 39.042969 21 40C21 40.957031 21.574219 41.757813 22.3125 42.25C23.050781 42.742188 23.992188 43 25 43C26.007813 43 26.949219 42.742188 27.6875 42.25C28.425781 41.757813 29 40.957031 29 40C29 39.042969 28.425781 38.242188 27.6875 37.75C26.949219 37.257813 26.007813 37 25 37 Z M 25 39C25.648438 39 26.214844 39.175781 26.5625 39.40625C26.910156 39.636719 27 39.851563 27 40C27 40.148438 26.910156 40.363281 26.5625 40.59375C26.214844 40.824219 25.648438 41 25 41C24.351563 41 23.785156 40.824219 23.4375 40.59375C23.089844 40.363281 23 40.148438 23 40C23 39.851563 23.089844 39.636719 23.4375 39.40625C23.785156 39.175781 24.351563 39 25 39 Z M 14 43.15625C15.40625 43.515625 16.484375 44.59375 16.84375 46L14 46 Z M 36 43.15625L36 46L33.15625 46C33.515625 44.59375 34.59375 43.515625 36 43.15625Z" />
</svg>