<?xml version="1.0" encoding="utf-8"?>
<svg xmlns="http://www.w3.org/2000/svg" viewBox="0 0 50 50" width="515" height="515">
  <path d="M16.082031 4.015625C15.53125 4.054688 14.992188 4.195313 14.5 4.445313C13.476563 4.96875 12.828125 5.949219 12.464844 7.082031C12.097656 8.214844 11.972656 9.539063 12 11.015625C12.03125 12.765625 12.296875 14.742188 12.726563 16.808594C11.082031 17.117188 9.574219 17.511719 8.238281 17.984375C6.453125 18.613281 4.96875 19.378906 3.863281 20.324219C2.757813 21.265625 2.007813 22.449219 1.9375 23.792969C1.863281 25.1875 2.644531 26.421875 3.695313 27.453125C4.75 28.480469 6.136719 29.347656 7.636719 29.933594C7.972656 30.070313 8.351563 30.015625 8.636719 29.789063C8.917969 29.566406 9.058594 29.207031 9.003906 28.847656C8.945313 28.492188 8.703125 28.195313 8.363281 28.066406C7.105469 27.578125 5.910156 26.824219 5.09375 26.023438C4.28125 25.222656 3.90625 24.417969 3.9375 23.894531C3.972656 23.222656 4.332031 22.550781 5.164063 21.84375C5.992188 21.132813 7.273438 20.441406 8.902344 19.871094C10.140625 19.433594 11.582031 19.058594 13.175781 18.765625C13.636719 20.582031 14.203125 22.4375 14.871094 24.261719C11.644531 30.058594 9.933594 35.199219 10 39.015625C10.039063 41.363281 10.878906 43.296875 12.453125 44.320313C13.527344 45.015625 14.820313 45.277344 16.167969 45.003906C17.515625 44.730469 18.925781 43.996094 20.578125 42.8125C20.878906 42.609375 21.042969 42.261719 21.011719 41.898438C20.980469 41.539063 20.753906 41.222656 20.425781 41.078125C20.09375 40.929688 19.710938 40.96875 19.421875 41.1875C17.886719 42.277344 16.683594 42.859375 15.769531 43.046875C14.855469 43.230469 14.242188 43.097656 13.546875 42.640625C12.660156 42.066406 12.03125 40.886719 12 38.984375C11.949219 36.09375 13.242188 31.738281 15.828125 26.714844C16.164063 27.523438 16.515625 28.316406 16.886719 29.089844C19.554688 34.695313 22.914063 39.285156 26.1875 42.28125C27.824219 43.777344 29.4375 44.878906 30.992188 45.488281C32.546875 46.097656 34.113281 46.222656 35.433594 45.550781L35.488281 45.519531L35.539063 45.488281C36.660156 44.730469 37.355469 43.476563 37.734375 41.972656C38.109375 40.472656 38.191406 38.6875 38.015625 36.675781C37.667969 32.65625 36.289063 27.730469 33.90625 22.578125C33.675781 22.078125 33.082031 21.859375 32.578125 22.09375C32.078125 22.324219 31.859375 22.917969 32.09375 23.421875C34.390625 28.394531 35.703125 33.148438 36.023438 36.851563C36.183594 38.703125 36.09375 40.289063 35.792969 41.484375C35.5 42.644531 35.023438 43.378906 34.46875 43.78125C33.808594 44.089844 32.917969 44.097656 31.722656 43.625C30.503906 43.144531 29.046875 42.183594 27.535156 40.800781C24.515625 38.039063 21.261719 33.625 18.6875 28.230469C18.113281 27.015625 17.578125 25.730469 17.078125 24.421875C17.6875 23.355469 18.332031 22.269531 19.050781 21.160156C19.765625 20.0625 20.5 19.011719 21.25 18.015625C21.5 18.011719 21.75 18 22.003906 18C23.078125 17.996094 24.183594 18.027344 25.308594 18.085938C31.296875 18.398438 36.675781 19.546875 40.441406 21.117188C42.328125 21.902344 43.804688 22.796875 44.738281 23.679688C45.671875 24.5625 46.035156 25.363281 46 26.101563C45.960938 26.777344 45.652344 27.433594 44.945313 28.121094C44.234375 28.808594 43.125 29.492188 41.640625 30.066406C41.292969 30.1875 41.035156 30.484375 40.976563 30.847656C40.914063 31.210938 41.054688 31.578125 41.347656 31.804688C41.636719 32.027344 42.023438 32.078125 42.359375 31.933594C44.023438 31.285156 45.363281 30.503906 46.339844 29.558594C47.3125 28.609375 47.929688 27.453125 47.996094 26.203125C48.070313 24.722656 47.308594 23.359375 46.109375 22.222656C44.914063 21.089844 43.246094 20.117188 41.214844 19.269531C37.144531 17.574219 31.589844 16.410156 25.410156 16.089844C24.535156 16.042969 23.679688 16.03125 22.824219 16.019531C24.472656 14.023438 26.152344 12.285156 27.765625 10.890625C30.644531 8.414063 33.351563 7.0625 35.035156 7L35.039063 7C35.664063 6.976563 36.132813 7.101563 36.523438 7.351563C37.789063 8.175781 38.851563 10.382813 37.125 13.515625C36.933594 13.832031 36.929688 14.226563 37.117188 14.542969C37.300781 14.859375 37.644531 15.050781 38.011719 15.039063C38.378906 15.023438 38.710938 14.8125 38.875 14.484375C40.984375 10.65625 39.847656 7.125 37.613281 5.675781L37.609375 5.675781C36.835938 5.171875 35.910156 4.964844 34.964844 5L34.960938 5C32.402344 5.097656 29.515625 6.746094 26.460938 9.375C24.402344 11.152344 22.285156 13.414063 20.25 16.035156C18.304688 16.097656 16.449219 16.25 14.71875 16.488281C14.292969 14.480469 14.027344 12.585938 14 10.984375C13.976563 9.644531 14.105469 8.507813 14.367188 7.695313C14.628906 6.886719 14.980469 6.449219 15.40625 6.230469C15.65625 6.105469 15.917969 6.03125 16.230469 6.007813C17.253906 5.929688 19.261719 7.027344 21.359375 8.769531C21.636719 9.003906 22.015625 9.070313 22.351563 8.945313C22.691406 8.824219 22.9375 8.527344 22.996094 8.171875C23.054688 7.816406 22.917969 7.457031 22.640625 7.230469C20.429688 5.398438 18.308594 3.847656 16.082031 4.015625 Z M 18.707031 18.109375C18.257813 18.75 17.8125 19.398438 17.375 20.074219C16.960938 20.710938 16.585938 21.339844 16.203125 21.96875C15.8125 20.785156 15.476563 19.613281 15.175781 18.453125C16.300781 18.300781 17.480469 18.1875 18.707031 18.109375 Z M 25 22C23.34375 22 22 23.34375 22 25C22 26.65625 23.34375 28 25 28C26.65625 28 28 26.65625 28 25C28 23.34375 26.65625 22 25 22Z" />
</svg>