<?xml version="1.0" encoding="utf-8"?>
<svg xmlns="http://www.w3.org/2000/svg" viewBox="0 0 50 50" width="515" height="515">
  <path d="M25.890625 3.390625C22.210625 3.460625 19.510859 4.5804687 17.880859 6.7304688C15.950859 9.2804688 15.590547 13.140703 16.810547 18.220703C16.360547 18.770703 16.030156 19.620469 16.160156 20.730469C16.430156 22.940469 17.279766 23.839219 18.009766 24.199219C18.349766 25.929219 19.290937 27.879063 20.210938 28.789062L20.220703 29.259766C20.220703 30.279766 20.230625 31.159062 20.140625 32.289062C19.520625 33.699062 17.490625 34.499922 15.140625 35.419922C11.230625 36.959922 6.37 38.869453 6 44.939453L5.9394531 46L29.599609 46C29.229609 45.37 28.929453 44.7 28.689453 44L8.1308594 44C8.8808594 40.03 12.429141 38.639062 15.869141 37.289062C18.609141 36.209063 21.200547 35.190859 22.060547 32.880859L22.119141 32.619141C22.229141 31.309141 22.220703 30.310234 22.220703 29.240234L22.210938 28.320312L22.230469 27.720703L21.689453 27.439453C21.249453 27.149453 20.080625 25.130312 19.890625 23.320312L19.800781 22.5L18.980469 22.429688C18.850469 22.419687 18.340391 22.060234 18.150391 20.490234C18.050391 19.690234 18.439453 19.400391 18.439453 19.400391L19.080078 19.009766L18.890625 18.300781C17.680625 13.620781 17.880703 10.039453 19.470703 7.9394531C20.720703 6.3094531 22.890156 5.450625 25.910156 5.390625C27.780156 5.390625 29.169141 5.860625 29.619141 6.640625L29.859375 7.0703125L30.349609 7.140625C31.689609 7.330625 32.63 7.9008594 33.25 8.8808594C34.78 11.350859 33.890859 15.920469 33.130859 18.230469L32.919922 18.980469L33.550781 19.400391C33.560781 19.400391 33.949609 19.690234 33.849609 20.490234C33.669609 22.060234 33.149531 22.419688 33.019531 22.429688L32.199219 22.5L32.109375 23.320312C31.909375 25.140313 30.780859 27.149688 30.380859 27.429688L29.839844 27.710938L29.839844 29.25C29.829844 30.31 29.819453 31.309141 29.939453 32.619141L30 32.880859C30.04 32.980859 30.080859 33.079688 30.130859 33.179688C30.630859 32.459688 31.199609 31.789453 31.849609 31.189453L31.849609 31.179688C31.829609 30.529688 31.829844 29.929531 31.839844 29.269531L31.839844 28.789062C32.739844 27.869062 33.66 25.919688 34 24.179688C34.7 23.819688 35.579844 22.920469 35.839844 20.730469C35.969844 19.640469 35.650937 18.8 35.210938 18.25C35.800937 16.27 36.989219 11.130078 34.949219 7.8300781C34.089219 6.4400781 32.780312 5.5704688 31.070312 5.2304688C30.130312 4.0404688 28.320625 3.390625 25.890625 3.390625 z M 40 30C34.5 30 30 34.5 30 40C30 45.5 34.5 50 40 50C45.5 50 50 45.5 50 40C50 34.5 45.5 30 40 30 z M 40 32C44.4 32 48 35.6 48 40C48 44.4 44.4 48 40 48C35.6 48 32 44.4 32 40C32 35.6 35.6 32 40 32 z M 45.089844 37.003906C44.835094 36.980656 44.571375 37.055422 44.359375 37.232422L39.060547 41.646484L36.707031 39.292969C36.316031 38.901969 35.683969 38.901969 35.292969 39.292969C34.901969 39.683969 34.901969 40.316031 35.292969 40.707031L38.292969 43.707031C38.486969 43.901031 38.743 44 39 44C39.227 44 39.453672 43.922578 39.638672 43.767578L45.638672 38.767578C46.062672 38.414578 46.121578 37.783375 45.767578 37.359375C45.590578 37.147375 45.344594 37.027156 45.089844 37.003906 z" />
</svg>