<?xml version="1.0" encoding="utf-8"?>
<svg xmlns="http://www.w3.org/2000/svg" viewBox="0 0 50 50" width="515" height="515">
  <path d="M12.984375 5.9863281 A 1.0001 1.0001 0 0 0 12 7L12 43 A 1.0001 1.0001 0 1 0 14 43L14 7 A 1.0001 1.0001 0 0 0 12.984375 5.9863281 z M 36.984375 5.9863281 A 1.0001 1.0001 0 0 0 36 7L36 43 A 1.0001 1.0001 0 1 0 38 43L38 7 A 1.0001 1.0001 0 0 0 36.984375 5.9863281 z M 6.984375 14.986328 A 1.0001 1.0001 0 0 0 6 16L6 34 A 1.0001 1.0001 0 1 0 8 34L8 16 A 1.0001 1.0001 0 0 0 6.984375 14.986328 z M 42.984375 14.986328 A 1.0001 1.0001 0 0 0 42 16L42 34 A 1.0001 1.0001 0 1 0 44 34L44 16 A 1.0001 1.0001 0 0 0 42.984375 14.986328 z M 18.984375 15.986328 A 1.0001 1.0001 0 0 0 18 17L18 33 A 1.0001 1.0001 0 1 0 20 33L20 17 A 1.0001 1.0001 0 0 0 18.984375 15.986328 z M 30.984375 15.986328 A 1.0001 1.0001 0 0 0 30 17L30 33 A 1.0001 1.0001 0 1 0 32 33L32 17 A 1.0001 1.0001 0 0 0 30.984375 15.986328 z M 0.984375 20.986328 A 1.0001 1.0001 0 0 0 0 22L0 28 A 1.0001 1.0001 0 1 0 2 28L2 22 A 1.0001 1.0001 0 0 0 0.984375 20.986328 z M 24.984375 20.986328 A 1.0001 1.0001 0 0 0 24 22L24 28 A 1.0001 1.0001 0 1 0 26 28L26 22 A 1.0001 1.0001 0 0 0 24.984375 20.986328 z M 48.984375 20.986328 A 1.0001 1.0001 0 0 0 48 22L48 28 A 1.0001 1.0001 0 1 0 50 28L50 22 A 1.0001 1.0001 0 0 0 48.984375 20.986328 z" />
</svg>