<?xml version="1.0" encoding="utf-8"?>
<svg xmlns="http://www.w3.org/2000/svg" viewBox="0 0 50 50" width="515" height="515">
  <path d="M9 4C6.25 4 4 6.25 4 9L4 41C4 43.75 6.25 46 9 46L41 46C43.75 46 46 43.75 46 41L46 9C46 6.25 43.75 4 41 4 Z M 9 6L41 6C42.667969 6 44 7.332031 44 9L44 41C44 42.667969 42.667969 44 41 44L9 44C7.332031 44 6 42.667969 6 41L6 9C6 7.332031 7.332031 6 9 6 Z M 21 9L18.25 17L20.363281 17L22.425781 11L24 11L24 17L26 17L26 11L27.574219 11L29.636719 17L31.75 17L29 9 Z M 8 19L8 21L11 21L11 23L14 23L14 21L36 21L36 23L39 23L39 21L42 21L42 19 Z M 16.1875 23L10 41L40 41L33.8125 23L31.699219 23L37.199219 39L26 39L26 23L24 23L24 39L12.800781 39L18.300781 23Z" />
</svg>