<?xml version="1.0" encoding="utf-8"?>
<svg xmlns="http://www.w3.org/2000/svg" viewBox="0 0 50 50" width="515" height="515">
  <path d="M39.5 12C35.921992 12 33 14.921995 33 18.5C33 22.078005 35.921992 25 39.5 25C43.078008 25 46 22.078005 46 18.5C46 14.921995 43.078008 12 39.5 12 z M 39.5 14C41.997128 14 44 16.002873 44 18.5C44 20.997127 41.997128 23 39.5 23C37.002872 23 35 20.997127 35 18.5C35 16.002873 37.002872 14 39.5 14 z M 21.984375 17.986328 A 1.0001 1.0001 0 0 0 21.839844 18L18.771484 18C15.043955 18 12 21.043125 12 24.771484L12 29.5L12 31L12 34L6.5 34C4.5788117 34 3 35.578812 3 37.5C3 39.421188 4.5788117 41 6.5 41L15.5 41C17.421188 41 19 39.421188 19 37.5L19 32L21.832031 32 A 1.0001 1.0001 0 0 0 22.158203 32L26 32L26 34.230469C26 35.361076 26.548521 36.42417 27.46875 37.080078 A 1.0001 1.0001 0 0 0 27.496094 37.099609L33.162109 40.851562C33.162109 40.851562 33.164062 40.851562 33.164062 40.851562C33.775585 41.286063 34.487536 41.5 35.189453 41.5C36.423529 41.5 37.646813 40.833391 38.285156 39.640625C39.143308 38.036937 38.546246 36.091761 37.123047 35.078125 A 1.0001 1.0001 0 0 0 37.087891 35.054688L33 32.398438L33 24.296875C33 20.831248 30.167614 18 26.701172 18L22.154297 18 A 1.0001 1.0001 0 0 0 21.984375 17.986328 z M 18.771484 20L21 20L21 30L19 30L19 29.5C19 27.578812 17.421188 26 15.5 26C14.96199 26 14.457156 26.134994 14 26.355469L14 24.771484C14 22.123844 16.125014 20 18.771484 20 z M 23 20L26.701172 20C29.08673 20 31 21.912502 31 24.296875L31 32.941406 A 1.0001 1.0001 0 0 0 31.455078 33.78125L35.966797 36.710938C36.618092 37.178139 36.866504 38.05055 36.521484 38.695312C36.231827 39.236548 35.721377 39.5 35.189453 39.5C34.887984 39.5 34.588434 39.41143 34.320312 39.220703 A 1.0001 1.0001 0 0 0 34.292969 39.203125L28.628906 35.451172L28.626953 35.449219C28.232605 35.167062 28 34.714932 28 34.230469L28 31L28 28 A 1.0001 1.0001 0 0 0 26.984375 26.986328 A 1.0001 1.0001 0 0 0 26 28L26 30L23 30L23 20 z M 15.5 28C16.340812 28 17 28.659188 17 29.5L17 37.5C17 38.340812 16.340812 39 15.5 39L6.5 39C5.6591883 39 5 38.340812 5 37.5C5 36.659188 5.6591883 36 6.5 36L13 36 A 1.0001 1.0001 0 0 0 14 35L14 31L14 29.5C14 28.659188 14.659188 28 15.5 28 z" />
</svg>