<?xml version="1.0" encoding="utf-8"?>
<svg xmlns="http://www.w3.org/2000/svg" viewBox="0 0 50 50" width="515" height="515">
  <path d="M20.34375 0C19.074219 0 17.796875 0.96875 17.25 2.46875C16.578125 4.316406 17.265625 6.273438 18.78125 6.84375C19.066406 6.949219 19.363281 7 19.65625 7C20.925781 7 22.203125 6.03125 22.75 4.53125C23.425781 2.683594 22.734375 0.726563 21.21875 0.15625C20.9375 0.0507813 20.636719 0 20.34375 0 Z M 14.15625 0.03125C13.179688 0.03125 12.339844 1.046875 12.21875 2.34375C12.09375 3.699219 12.8125 4.875 13.84375 4.96875C13.890625 4.972656 13.925781 4.96875 13.96875 4.96875C14.945313 4.96875 15.816406 3.988281 15.9375 2.6875C16.0625 1.332031 15.34375 0.15625 14.3125 0.0625C14.269531 0.0585938 14.199219 0.03125 14.15625 0.03125 Z M 8.96875 1.1875C8.914063 1.1875 8.867188 1.210938 8.8125 1.21875C8.011719 1.339844 7.511719 2.34375 7.6875 3.46875C7.851563 4.519531 8.539063 5.28125 9.28125 5.28125C9.335938 5.28125 9.382813 5.289063 9.4375 5.28125C10.238281 5.160156 10.738281 4.152344 10.5625 3.03125C10.402344 1.980469 9.710938 1.1875 8.96875 1.1875 Z M 20.34375 2.03125C20.394531 2.03125 20.453125 2.046875 20.5 2.0625C20.847656 2.195313 21.136719 2.957031 20.8125 3.84375C20.554688 4.546875 20.035156 4.96875 19.65625 4.96875C19.601563 4.96875 19.546875 4.957031 19.5 4.9375C19.152344 4.804688 18.863281 4.042969 19.1875 3.15625C19.445313 2.453125 19.964844 2.03125 20.34375 2.03125 Z M 4.90625 3.375C4.707031 3.375 4.515625 3.425781 4.34375 3.53125C3.71875 3.910156 3.632813 4.882813 4.125 5.6875C4.484375 6.273438 5.035156 6.59375 5.5625 6.59375C5.761719 6.59375 5.953125 6.542969 6.125 6.4375C6.75 6.058594 6.867188 5.117188 6.375 4.3125C6.015625 3.726563 5.433594 3.375 4.90625 3.375 Z M 1.96875 5.84375C1.792969 5.84375 1.621094 5.875 1.46875 5.96875C0.917969 6.308594 0.832031 7.179688 1.28125 7.90625C1.609375 8.433594 2.125 8.71875 2.59375 8.71875C2.769531 8.71875 2.941406 8.6875 3.09375 8.59375C3.644531 8.253906 3.730469 7.382813 3.28125 6.65625C2.953125 6.128906 2.4375 5.84375 1.96875 5.84375 Z M 11.84375 6C6.230469 6 1 10.847656 1 17.40625C1 20.023438 1.5 24.730469 3.1875 28.9375C4.03125 31.042969 5.167969 33.035156 6.75 34.53125C8.332031 36.027344 10.40625 37 12.875 37C15.109375 37 16.671875 36.082031 17.53125 34.90625C18.390625 33.730469 18.59375 32.421875 18.59375 31.5C18.59375 29.148438 17.441406 27.734375 16.53125 26.6875C15.621094 25.640625 14.9375 24.929688 14.9375 23.0625C14.9375 21.820313 16.160156 20.566406 17.6875 19.03125C19.214844 17.496094 21 15.640625 21 13C21 10.582031 20.046875 8.664063 18.375 7.53125C16.703125 6.398438 14.46875 6 11.84375 6 Z M 11.84375 8C14.25 8 16.101563 8.40625 17.25 9.1875C18.398438 9.96875 19 11.058594 19 13C19 14.714844 17.75 16.117188 16.25 17.625C14.75 19.132813 12.9375 20.699219 12.9375 23.0625C12.9375 25.496094 14.109375 26.941406 15.03125 28C15.953125 29.058594 16.59375 29.742188 16.59375 31.5C16.59375 32.082031 16.449219 33.015625 15.9375 33.71875C15.425781 34.421875 14.605469 35 12.875 35C10.917969 35 9.410156 34.277344 8.125 33.0625C6.839844 31.847656 5.832031 30.113281 5.0625 28.1875C3.519531 24.339844 3 19.75 3 17.40625C3 11.910156 7.390625 8 11.84375 8 Z M 29.65625 13C29.363281 13 29.0625 13.050781 28.78125 13.15625C27.269531 13.726563 26.578125 15.683594 27.25 17.53125C27.796875 19.03125 29.074219 20 30.34375 20C30.636719 20 30.9375 19.949219 31.21875 19.84375C32.730469 19.273438 33.421875 17.316406 32.75 15.46875C32.203125 13.96875 30.925781 13 29.65625 13 Z M 35.84375 13.03125C35.800781 13.03125 35.734375 13.058594 35.6875 13.0625C34.65625 13.15625 33.9375 14.332031 34.0625 15.6875C34.179688 16.984375 35.054688 17.96875 36.03125 17.96875C36.074219 17.96875 36.109375 17.972656 36.15625 17.96875C37.1875 17.875 37.90625 16.699219 37.78125 15.34375C37.660156 14.042969 36.820313 13.03125 35.84375 13.03125 Z M 41.03125 14.1875C40.289063 14.1875 39.597656 14.980469 39.4375 16.03125C39.261719 17.15625 39.761719 18.160156 40.5625 18.28125C40.617188 18.289063 40.664063 18.28125 40.71875 18.28125C41.460938 18.28125 42.152344 17.519531 42.3125 16.46875C42.488281 15.34375 41.988281 14.339844 41.1875 14.21875C41.132813 14.210938 41.085938 14.1875 41.03125 14.1875 Z M 29.65625 15.03125C30.035156 15.03125 30.554688 15.453125 30.8125 16.15625C31.136719 17.042969 30.847656 17.804688 30.5 17.9375C30.453125 17.957031 30.394531 17.96875 30.34375 17.96875C29.964844 17.96875 29.445313 17.546875 29.1875 16.84375C28.863281 15.957031 29.148438 15.195313 29.5 15.0625C29.546875 15.046875 29.605469 15.03125 29.65625 15.03125 Z M 45.09375 16.375C44.566406 16.375 43.984375 16.726563 43.625 17.3125C43.132813 18.117188 43.25 19.058594 43.875 19.4375C44.046875 19.542969 44.238281 19.59375 44.4375 19.59375C44.964844 19.59375 45.515625 19.273438 45.875 18.6875C46.367188 17.882813 46.28125 16.910156 45.65625 16.53125C45.484375 16.425781 45.292969 16.375 45.09375 16.375 Z M 48.03125 18.84375C47.5625 18.84375 47.046875 19.128906 46.71875 19.65625C46.269531 20.382813 46.355469 21.253906 46.90625 21.59375C47.054688 21.6875 47.230469 21.71875 47.40625 21.71875C47.875 21.71875 48.390625 21.433594 48.71875 20.90625C49.167969 20.179688 49.082031 19.308594 48.53125 18.96875C48.382813 18.875 48.207031 18.84375 48.03125 18.84375 Z M 38.15625 19C35.53125 19 33.296875 19.398438 31.625 20.53125C29.953125 21.664063 29 23.582031 29 26C29 28.640625 30.785156 30.496094 32.3125 32.03125C33.839844 33.566406 35.0625 34.820313 35.0625 36.0625C35.0625 37.929688 34.378906 38.640625 33.46875 39.6875C32.558594 40.734375 31.40625 42.148438 31.40625 44.5C31.40625 45.421875 31.609375 46.730469 32.46875 47.90625C33.328125 49.082031 34.890625 50 37.125 50C39.59375 50 41.667969 49.027344 43.25 47.53125C44.832031 46.035156 45.96875 44.042969 46.8125 41.9375C48.5 37.730469 49 33.023438 49 30.40625C49 23.847656 43.769531 19 38.15625 19 Z M 38.15625 21C42.609375 21 47 24.910156 47 30.40625C47 32.75 46.480469 37.339844 44.9375 41.1875C44.167969 43.113281 43.160156 44.847656 41.875 46.0625C40.589844 47.277344 39.082031 48 37.125 48C35.394531 48 34.574219 47.421875 34.0625 46.71875C33.550781 46.015625 33.40625 45.082031 33.40625 44.5C33.40625 42.742188 34.046875 42.058594 34.96875 41C35.890625 39.941406 37.0625 38.496094 37.0625 36.0625C37.0625 33.699219 35.25 32.132813 33.75 30.625C32.25 29.117188 31 27.714844 31 26C31 24.058594 31.601563 22.96875 32.75 22.1875C33.898438 21.40625 35.75 21 38.15625 21Z" />
</svg>