<?xml version="1.0" encoding="utf-8"?>
<svg xmlns="http://www.w3.org/2000/svg" viewBox="0 0 50 50" width="515" height="515">
  <path d="M15.613281 2.007813C14.746094 2.007813 13.875 2.335938 13.21875 2.992188C12.945313 3.265625 12.746094 3.585938 12.582031 3.921875L2.605469 8.21875C2.238281 8.375 2 8.738281 2 9.136719C2 10.753906 2.871094 11.722656 3.140625 12.003906C3.300781 13.320313 3.929688 14.324219 4.621094 14.839844C5.15625 15.234375 5.417969 15.253906 5.710938 15.339844C5.9375 15.839844 6.871094 17.539063 8.984375 17.847656C9.253906 18.109375 10.234375 19 11.863281 19C12.261719 18.996094 12.621094 18.761719 12.78125 18.394531L15.183594 12.820313C15.234375 12.734375 15.273438 12.640625 15.300781 12.542969L17.078125 8.414063C17.414063 8.253906 17.734375 8.054688 18.007813 7.78125C19.320313 6.46875 19.320313 4.304688 18.007813 2.992188C17.351563 2.335938 16.480469 2.007813 15.613281 2.007813 Z M 36.636719 2.007813C33.726563 2.007813 30.816406 3.113281 28.601563 5.328125L25.328125 8.601563C22.757813 11.171875 21.691406 14.679688 22.105469 18.035156L22.09375 18.035156C22.09375 18.035156 22.324219 19.964844 22.203125 22.246094C22.078125 24.523438 21.507813 27.070313 20.378906 28.203125L20.375 28.207031L20.375 28.210938L12.578125 36.007813L11.09375 36.007813C10.296875 36.007813 9.535156 36.324219 8.972656 36.886719L2.585938 43.273438C1.8125 44.046875 1.8125 45.328125 2.585938 46.101563L3.898438 47.414063C4.671875 48.1875 5.953125 48.1875 6.726563 47.414063L13.113281 41.027344C13.675781 40.464844 13.992188 39.703125 13.992188 38.90625L13.992188 37.421875L21.789063 29.625L21.792969 29.625C22.921875 28.492188 25.472656 27.921875 27.75 27.800781C30.03125 27.679688 31.964844 27.910156 31.964844 27.910156L31.964844 27.894531C35.320313 28.308594 38.828125 27.242188 41.398438 24.671875L44.671875 21.398438C49.101563 16.96875 49.101563 9.757813 44.671875 5.328125C42.457031 3.113281 39.546875 2.007813 36.636719 2.007813 Z M 15.613281 3.992188C15.964844 3.992188 16.320313 4.132813 16.59375 4.40625C17.144531 4.957031 17.144531 5.816406 16.59375 6.367188C16.5625 6.398438 16.519531 6.402344 16.488281 6.429688L14.570313 4.511719C14.597656 4.480469 14.601563 4.4375 14.632813 4.40625C14.90625 4.132813 15.261719 3.992188 15.613281 3.992188 Z M 36.28125 4.011719L34 6.292969L32.621094 4.914063C33.777344 4.359375 35.023438 4.058594 36.28125 4.011719 Z M 37.78125 4.070313C38.941406 4.214844 40.082031 4.574219 41.136719 5.15625L40 6.292969 Z M 37 4.707031L39.292969 7L37 9.292969L34.707031 7 Z M 31.703125 5.410156L33.292969 7L31 9.292969L29.234375 7.523438L30.015625 6.742188C30.535156 6.222656 31.105469 5.78125 31.703125 5.410156 Z M 42.003906 5.703125C42.445313 6.007813 42.867188 6.351563 43.257813 6.742188C43.648438 7.132813 43.992188 7.554688 44.296875 7.992188L43 9.292969L40.707031 7 Z M 13.105469 5.875L15.125 7.894531L13.988281 10.53125L10.46875 7.007813 Z M 34 7.707031L36.292969 10L34 12.292969L31.707031 10 Z M 40 7.707031L42.292969 10L40 12.292969L37.707031 10 Z M 8.492188 7.859375L13.140625 12.507813L11.28125 16.816406C10.6875 16.617188 10.1875 16.277344 10.1875 16.277344C10 16.085938 9.746094 15.976563 9.476563 15.976563C8.234375 15.976563 7.328125 14.191406 7.328125 14.191406C7.195313 13.886719 6.921875 13.667969 6.597656 13.609375C6.597656 13.609375 6.21875 13.53125 5.8125 13.230469C5.402344 12.929688 5.023438 12.519531 5.023438 11.519531C5.023438 11.253906 4.914063 10.996094 4.722656 10.808594C4.722656 10.808594 4.382813 10.316406 4.179688 9.71875 Z M 28.527344 8.234375L30.292969 10L28 12.292969L26.261719 10.554688C26.417969 10.371094 26.570313 10.1875 26.742188 10.015625 Z M 44.84375 8.859375C45.425781 9.917969 45.785156 11.058594 45.925781 12.21875L43.707031 10 Z M 31 10.707031L33.292969 13L31 15.292969L28.707031 13 Z M 37 10.707031L39.292969 13L37 15.292969L34.707031 13 Z M 43 10.707031L45.292969 13L43 15.292969L40.707031 13 Z M 25.648438 11.355469L27.292969 13L25 15.292969L24.246094 14.535156C24.5 13.417969 24.972656 12.339844 25.648438 11.355469 Z M 28 13.707031L30.292969 16L28 18.292969L25.707031 16 Z M 34 13.707031L36.292969 16L34 18.292969L31.707031 16 Z M 40 13.707031L42.292969 16L40 18.292969L37.707031 16 Z M 45.988281 13.71875C45.941406 14.976563 45.640625 16.222656 45.089844 17.378906L43.707031 16 Z M 24.046875 15.75L24.292969 16L24.023438 16.269531C24.03125 16.097656 24.027344 15.925781 24.046875 15.75 Z M 25 16.707031L27.292969 19L25.15625 21.136719C24.585938 20.089844 24.222656 18.964844 24.078125 17.8125L24.078125 17.796875L24.074219 17.796875C24.066406 17.746094 24.070313 17.691406 24.0625 17.640625 Z M 31 16.707031L33.292969 19L31 21.292969L28.707031 19 Z M 37 16.707031L39.292969 19L37 21.292969L34.707031 19 Z M 43 16.707031L44.589844 18.296875C44.21875 18.894531 43.777344 19.464844 43.257813 19.984375L42.472656 20.765625L40.707031 19 Z M 28 19.707031L30.292969 22L27.988281 24.304688C27.550781 23.996094 27.132813 23.648438 26.742188 23.257813C26.351563 22.867188 26.003906 22.449219 25.695313 22.011719 Z M 34 19.707031L36.292969 22L34 24.292969L31.707031 22 Z M 40 19.707031L41.765625 21.472656L39.984375 23.257813C39.8125 23.429688 39.628906 23.582031 39.445313 23.738281L37.707031 22 Z M 31 22.707031L33.292969 25L32.359375 25.9375C32.304688 25.929688 32.253906 25.929688 32.203125 25.921875L32.1875 25.921875C31.039063 25.777344 29.910156 25.414063 28.863281 24.84375 Z M 37 22.707031L38.644531 24.351563C37.660156 25.027344 36.582031 25.5 35.460938 25.753906L34.707031 25 Z M 24.121094 23.222656C24.480469 23.730469 24.875 24.21875 25.328125 24.671875C25.78125 25.125 26.269531 25.519531 26.777344 25.878906C25.714844 25.96875 24.617188 26.117188 23.566406 26.433594C23.878906 25.378906 24.03125 24.285156 24.121094 23.222656 Z M 34 25.707031L34.25 25.953125C34.074219 25.972656 33.902344 25.96875 33.730469 25.976563 Z M 11.09375 38.007813L11.992188 38.007813L11.992188 38.90625C11.992188 39.171875 11.886719 39.425781 11.699219 39.613281L5.3125 46L4 44.6875L10.386719 38.300781C10.574219 38.113281 10.828125 38.007813 11.09375 38.007813Z" />
</svg>