<?xml version="1.0" encoding="utf-8"?>
<svg xmlns="http://www.w3.org/2000/svg" viewBox="0 0 50 50" width="515" height="515">
  <path d="M21.667969 0C20.693902 0 19.732495 0.4229088 18.810547 1.0898438C17.888599 1.7567786 17.0295 2.7033265 16.566406 3.9160156 A 1.0001 1.0001 0 0 0 16.560547 3.9335938C16.014916 5.4409895 15.232932 8.2899825 14.666016 10.398438C14.549027 10.282288 14.439866 10.16063 14.306641 10.056641C13.418997 9.3637894 12.216469 9 10.75 9C7.6963826 9 5 11.100222 5 14C5 16.356956 5.9929613 18.86497 9.0019531 20.476562C9.6030651 20.798513 10.303405 21.083248 11.064453 21.347656C11.058194 21.368728 11.051741 21.391786 11.044922 21.416016C11.035122 21.450926 11.032218 21.526768 11.023438 21.564453C10.352172 21.674648 9.6996464 21.875645 9.1679688 22.349609C8.4026454 23.031854 8 24.109412 8 25.400391C8 27.684404 9.2782145 29.488171 10.970703 29.978516C11.618219 34.375648 14.288166 38.873323 17.136719 42.414062C18.635787 44.2774 20.172297 45.867505 21.501953 47.015625C22.166781 47.589685 22.778075 48.052371 23.332031 48.392578C23.885987 48.732785 24.331125 49 25 49C25.668875 49 26.114017 48.732764 26.667969 48.392578C27.22192 48.052393 27.833212 47.589619 28.498047 47.015625C29.827717 45.867636 31.364105 44.278879 32.863281 42.416016C33.944457 41.072556 34.998601 39.590401 35.927734 38.029297C36.228719 38.40228 36.595575 38.745914 37.025391 39.142578C37.759332 39.81991 38.646703 40.534418 39.503906 41.162109C40.36111 41.7898 41.170251 42.323586 41.820312 42.65625C42.145344 42.822582 42.356699 42.972303 42.851562 42.998047C42.975279 43.004447 43.131841 43.000751 43.333984 42.925781C43.536128 42.850851 43.784253 42.664851 43.914062 42.425781C44.173682 41.947641 44.030732 41.609707 43.951172 41.40625C43.536728 40.346838 43.466171 38.491604 43.308594 36.794922C43.383791 36.812246 43.460521 36.834915 43.535156 36.851562C44.572178 37.082879 45.528883 37.246902 46.257812 37.291016C46.622278 37.313076 46.876171 37.364276 47.339844 37.189453C47.455762 37.145743 47.596799 37.081349 47.751953 36.931641C47.907107 36.781933 48.05899 36.513273 48.082031 36.242188C48.128111 35.700013 47.861499 35.447437 47.707031 35.292969C47.083729 34.669667 46.411698 33.495238 45.791016 32.318359C45.170286 31.141481 44.640057 29.983114 43.828125 29.171875C43.154252 28.498002 42.292079 28.134444 41.40625 28.044922C41.796832 27.270339 42 26.366013 42 25.400391C42 24.129699 41.561068 23.060089 40.800781 22.380859C40.275234 21.911342 39.633642 21.695405 38.974609 21.574219C38.965209 21.533629 38.963615 21.45311 38.953125 21.416016C38.944859 21.386796 38.937193 21.358906 38.929688 21.333984C39.694381 21.066949 40.39676 20.779682 41 20.455078C44.007848 18.836554 45 16.33246 45 14C45 11.099929 42.302786 9 39.25 9C37.783969 9 36.581068 9.363866 35.693359 10.056641C35.560124 10.160619 35.450976 10.282299 35.333984 10.398438C34.767114 8.2908532 33.985219 5.4438187 33.439453 3.9355469C32.982106 2.6432965 32.109683 1.6689795 31.175781 1.0175781C30.240198 0.36500354 29.262365 1.4802974e-16 28.332031 0C27.416098 0 26.67421 0.35970747 26.080078 0.64257812C25.485946 0.92544878 24.979925 1.0917969 25 1.0917969C25.02007 1.0917969 24.514054 0.92544878 23.919922 0.64257812C23.32579 0.35970747 22.583902 0 21.667969 0 z M 21.667969 2C22.002035 2 22.508929 2.1865894 23.060547 2.4492188C23.612165 2.711848 24.146925 3.0917969 25 3.0917969C25.853075 3.0917969 26.387835 2.7118481 26.939453 2.4492188C27.491071 2.1865893 27.997965 2 28.332031 2C28.651698 2 29.383333 2.2062777 30.03125 2.6582031C30.679167 3.1101285 31.263315 3.773206 31.556641 4.6054688 A 1.0001 1.0001 0 0 0 31.560547 4.6132812C32.220408 6.4362587 33.83119 12.49505 33.958984 12.976562C33.512419 14.437934 32.476893 15.106514 30.880859 15.533203C29.203935 15.981519 27.019 16 25 16C22.981 16 20.796065 15.981519 19.119141 15.533203C17.523107 15.106514 16.487581 14.437934 16.041016 12.976562C16.168742 12.495468 17.773476 6.4615187 18.435547 4.6269531C18.722828 3.8766168 19.321607 3.1889694 19.982422 2.7109375C20.644015 2.2323726 21.392035 2 21.667969 2 z M 10.75 11C11.896531 11 12.601316 11.262164 13.076172 11.632812C13.52748 11.985082 13.815807 12.478237 13.998047 13.142578 A 1.0001 1.0001 0 0 0 14.126953 13.53125C14.802243 15.718356 16.626601 16.938802 18.601562 17.466797C20.665138 18.018481 22.981 18 25 18C27.019 18 29.334862 18.01848 31.398438 17.466797C33.373399 16.938802 35.197757 15.718356 35.873047 13.53125 A 1.0001 1.0001 0 0 0 36.001953 13.142578C36.184144 12.478377 36.472345 11.985154 36.923828 11.632812C37.39887 11.262087 38.104031 11 39.25 11C41.421214 11 43 12.354071 43 14C43 15.86754 42.527136 17.363836 40.052734 18.695312C37.578333 20.026789 32.956683 21 25 21C17.042176 21 12.418571 20.039501 9.9453125 18.714844C7.4720543 17.390186 7 15.898044 7 14C7 12.353778 8.5776174 11 10.75 11 z M 37.013672 21.902344C37.016368 21.911099 37.027307 21.953905 37.029297 21.960938C37.054497 22.050017 37.06957 22.104286 37.09375 22.501953L37.150391 23.441406L38.091797 23.441406C38.698264 23.441406 39.164834 23.601324 39.466797 23.871094C39.76876 24.140864 40 24.551082 40 25.400391C40 26.283083 39.753291 27.033627 39.408203 27.509766C39.063116 27.985905 38.684063 28.197266 38.1875 28.197266L37.279297 28.197266L37.191406 29.101562C37.164578 29.378877 37.101858 29.667226 37.052734 29.951172C36.306851 29.681355 34.514498 28.774733 32.449219 27.890625C30.21204 26.93293 27.580139 26.00166 25 26C22.451631 25.9983 19.821667 26.923332 17.574219 27.878906C15.509559 28.756763 13.715371 29.664338 12.951172 29.949219C12.90159 29.66298 12.837503 29.373289 12.810547 29.09375L12.722656 28.189453L11.814453 28.189453C11.312175 28.189453 10 27.151268 10 25.400391C10 24.489369 10.224319 24.087553 10.5 23.841797C10.775681 23.596041 11.23336 23.443359 11.908203 23.443359L12.847656 23.443359L12.90625 22.505859C12.93209 22.096172 12.947773 22.040474 12.970703 21.958984C12.972172 21.953763 12.982442 21.918497 12.984375 21.912109C13.888043 22.130397 14.901859 22.314513 16.005859 22.46875C16.005577 22.481294 16 22.487062 16 22.5C16 23.881 17.119 25 18.5 25C19.743152 25 20.765577 24.090725 20.958984 22.902344C22.217899 22.96023 23.539179 23 25 23C26.460622 23 27.78216 22.959059 29.041016 22.900391C29.233633 24.089705 30.256186 25 31.5 25C32.881 25 34 23.881 34 22.5C34 22.483889 33.998216 22.476437 33.998047 22.460938C35.099091 22.305344 36.111995 22.121842 37.013672 21.902344 z M 25 28C27.081861 28.0013 29.526288 28.816163 31.662109 29.730469C33.7148 30.609187 35.348441 31.532506 36.576172 31.908203C35.56179 35.083393 33.500447 38.436105 31.306641 41.162109C29.878567 42.936621 28.405674 44.453598 27.191406 45.501953C26.584272 46.026131 26.038134 46.433346 25.621094 46.689453C25.324966 46.871307 25.075648 46.949266 25 46.980469C24.924349 46.949268 24.675024 46.871313 24.378906 46.689453C23.961878 46.433339 23.415703 46.026175 22.808594 45.501953C21.594375 44.45351 20.123244 42.935069 18.695312 41.160156C16.502726 38.434779 14.440576 35.082222 13.425781 31.90625C14.632279 31.523943 16.288282 30.599634 18.355469 29.720703C20.502021 28.808028 22.956369 27.998665 25 28 z M 41 29.994141C41.509674 29.994141 42.019019 30.190893 42.414062 30.585938C42.774132 30.945698 43.39287 32.056332 44.023438 33.251953C44.362065 33.894026 44.839154 34.473912 45.242188 35.107422C44.810232 35.038442 44.483866 35.012901 43.970703 34.898438C42.998724 34.681629 41.954391 34.397449 41.109375 34.105469C40.265256 33.813799 39.566544 33.394091 39.585938 33.414062C38.795848 32.623973 38.795848 31.376026 39.585938 30.585938C39.980981 30.190892 40.490326 29.994141 41 29.994141 z M 37.773438 34.34375C37.895161 34.51188 38.018807 34.678963 38.169922 34.830078L38.171875 34.830078C38.77882 35.436505 39.511094 35.669917 40.455078 35.996094C40.698668 36.080262 40.97191 36.154624 41.232422 36.234375C41.373064 37.335835 41.471892 38.760186 41.707031 40.210938C41.354075 39.982335 41.086543 39.842459 40.685547 39.548828C39.882125 38.960519 39.039778 38.280121 38.382812 37.673828C37.725848 37.067535 37.252902 36.402174 37.263672 36.429688C37.205012 36.279617 37.165432 36.131333 37.144531 35.984375 A 1.0001699 1.0001699 0 0 0 37.107422 35.826172C37.346665 35.335734 37.568574 34.842325 37.773438 34.34375 z" />
</svg>