<?xml version="1.0" encoding="utf-8"?>
<svg xmlns="http://www.w3.org/2000/svg" viewBox="0 0 50 50" width="515" height="515">
  <path d="M16.6875 -0.09375C15.492188 0.0546875 14.378906 0.917969 14.0625 2.25C14.058594 2.265625 14.035156 2.265625 14.03125 2.28125C13.578125 4.148438 12.828125 7.382813 12.1875 10.65625C11.546875 13.941406 11 17.226563 11 19.3125L11 36.1875C10.65625 36.121094 10.386719 36 10 36C6.675781 36 4 38.675781 4 42L4 44C4 47.324219 6.675781 50 10 50C13.324219 50 16 47.324219 16 44L16 33.0625C17.117188 33.304688 18 34.328125 18 35.5L18 43.8125C18 46.898438 20.25 49.640625 23.375 50C23.386719 50 23.394531 50 23.40625 50C26.988281 50.359375 30 47.476563 30 44L30 42.1875C30 39.246094 27.976563 36.617188 25 36.125C24.988281 36.121094 24.980469 36.128906 24.96875 36.125C24.28125 35.992188 23.628906 36.03125 23 36.15625L23 19.3125C23 15.085938 21.085938 5.996094 20.28125 2.28125C19.984375 0.9375 18.777344 -0.09375 17.3125 -0.09375L16.8125 -0.09375C16.769531 -0.0976563 16.730469 -0.0976563 16.6875 -0.09375 Z M 27.71875 0C27.167969 0.078125 26.78125 0.589844 26.859375 1.140625C26.9375 1.691406 27.449219 2.078125 28 2L37 2L37 4L28 4C27.96875 4 27.9375 4 27.90625 4C27.355469 4.027344 26.925781 4.496094 26.953125 5.046875C26.980469 5.597656 27.449219 6.027344 28 6L37 6L37 8L28 8C27.96875 8 27.9375 8 27.90625 8C27.875 8 27.84375 8 27.8125 8C27.261719 8.050781 26.855469 8.542969 26.90625 9.09375C26.957031 9.644531 27.449219 10.050781 28 10L37 10L37 12L28 12C27.96875 12 27.9375 12 27.90625 12C27.875 12 27.84375 12 27.8125 12C27.261719 12.050781 26.855469 12.542969 26.90625 13.09375C26.957031 13.644531 27.449219 14.050781 28 14L37 14L37 16L28 16C27.96875 16 27.9375 16 27.90625 16C27.875 16 27.84375 16 27.8125 16C27.261719 16.050781 26.855469 16.542969 26.90625 17.09375C26.957031 17.644531 27.449219 18.050781 28 18L37 18L37 20L28 20C27.96875 20 27.9375 20 27.90625 20C27.875 20 27.84375 20 27.8125 20C27.261719 20.050781 26.855469 20.542969 26.90625 21.09375C26.957031 21.644531 27.449219 22.050781 28 22L37 22L37 24L28 24C27.96875 24 27.9375 24 27.90625 24C27.875 24 27.84375 24 27.8125 24C27.261719 24.050781 26.855469 24.542969 26.90625 25.09375C26.957031 25.644531 27.449219 26.050781 28 26L37 26L37 28L28 28C27.96875 28 27.9375 28 27.90625 28C27.875 28 27.84375 28 27.8125 28C27.261719 28.050781 26.855469 28.542969 26.90625 29.09375C26.957031 29.644531 27.449219 30.050781 28 30L37 30L37 45.5C37 47.960938 39.039063 50 41.5 50C43.960938 50 46 47.960938 46 45.5L46 5C46 2.253906 43.746094 0 41 0L38.0625 0C38.042969 0 38.019531 0 38 0L28 0C27.96875 0 27.9375 0 27.90625 0C27.875 0 27.84375 0 27.8125 0C27.78125 0 27.75 0 27.71875 0 Z M 16.9375 1.90625L17.3125 1.90625C17.847656 1.90625 18.210938 2.261719 18.3125 2.71875C19.109375 6.402344 21 15.738281 21 19.3125L21 37.5C20.996094 37.847656 21.175781 38.167969 21.464844 38.351563C21.757813 38.539063 22.125 38.558594 22.4375 38.40625C23.058594 38.09375 23.84375 37.945313 24.59375 38.09375C24.613281 38.09375 24.636719 38.09375 24.65625 38.09375C26.660156 38.414063 28 40.140625 28 42.1875L28 44C28 46.316406 26.03125 48.222656 23.625 48C23.613281 48 23.605469 48 23.59375 48C21.53125 47.746094 20 45.914063 20 43.8125L20 35.5C20 33.039063 17.960938 31 15.5 31C14.160156 31 13 29.839844 13 28.5L13 19.3125C13 17.597656 13.523438 14.304688 14.15625 11.0625C14.789063 7.820313 15.523438 4.585938 15.96875 2.75C15.96875 2.738281 15.96875 2.730469 15.96875 2.71875C16.066406 2.277344 16.542969 1.957031 16.9375 1.90625 Z M 39 2L41 2C42.65625 2 44 3.34375 44 5L44 45.5C44 46.839844 42.839844 48 41.5 48C40.160156 48 39 46.839844 39 45.5L39 29.1875C39.027344 29.054688 39.027344 28.914063 39 28.78125L39 25.1875C39.027344 25.054688 39.027344 24.914063 39 24.78125L39 21.1875C39.027344 21.054688 39.027344 20.914063 39 20.78125L39 17.1875C39.027344 17.054688 39.027344 16.914063 39 16.78125L39 13.1875C39.027344 13.054688 39.027344 12.914063 39 12.78125L39 9.1875C39.027344 9.054688 39.027344 8.914063 39 8.78125L39 5.1875C39.027344 5.054688 39.027344 4.914063 39 4.78125 Z M 17 24C15.894531 24 15 24.894531 15 26C15 27.105469 15.894531 28 17 28C18.105469 28 19 27.105469 19 26C19 24.894531 18.105469 24 17 24 Z M 13 32.21875C13.308594 32.429688 13.644531 32.589844 14 32.71875L14 44C14 46.277344 12.277344 48 10 48C7.722656 48 6 46.277344 6 44L6 42C6 39.722656 7.722656 38 10 38C10.507813 38 11.117188 38.152344 11.6875 38.34375C11.988281 38.441406 12.320313 38.394531 12.582031 38.207031C12.839844 38.023438 12.996094 37.726563 13 37.40625 Z M 10 40C8.898438 40 8 40.898438 8 42L8 44C8 45.101563 8.898438 46 10 46C11.101563 46 12 45.101563 12 44L12 42C12 40.898438 11.101563 40 10 40 Z M 24 40C22.898438 40 22 40.898438 22 42L22 44C22 45.101563 22.898438 46 24 46C25.101563 46 26 45.101563 26 44L26 42C26 40.898438 25.101563 40 24 40Z" />
</svg>