<?xml version="1.0" encoding="utf-8"?>
<svg xmlns="http://www.w3.org/2000/svg" viewBox="0 0 50 50" width="515" height="515">
  <path d="M30.90625 2C28.246094 2 26.660156 2.496094 26.125 2.625C25.832031 2.695313 25.6875 2.75 25.25 2.90625C24.8125 3.0625 24.226563 3.277344 23.53125 3.53125C22.144531 4.039063 20.335938 4.710938 18.46875 5.40625C14.734375 6.792969 10.796875 8.277344 9.59375 8.75C8.949219 9 8.429688 9.238281 8 9.59375C7.570313 9.949219 7.257813 10.457031 7.125 10.96875C6.859375 11.984375 7.140625 12.875 7.40625 14.0625C7.40625 14.0625 7.40625 14.09375 7.40625 14.09375C7.414063 14.136719 8 17.449219 8.40625 18.84375C8.800781 20.195313 9.589844 21.230469 10.8125 21.6875C20.738281 25.335938 27.285156 25 29 25C29.0625 24.996094 29.125 24.984375 29.1875 24.96875C29.320313 24.941406 29.449219 24.890625 29.5625 24.8125L29.625 24.78125C29.648438 24.761719 29.667969 24.742188 29.6875 24.71875L30.6875 24.0625L30.9375 26.375C30.746094 26.597656 30.503906 26.902344 30 27.46875C29.371094 28.175781 28.660156 28.914063 28.40625 29.15625C28.382813 29.175781 28.363281 29.195313 28.34375 29.21875C28.339844 29.222656 28.316406 29.246094 28.3125 29.25C28.289063 29.269531 28.269531 29.289063 28.25 29.3125C28.226563 29.332031 28.207031 29.351563 28.1875 29.375C28.1875 29.386719 28.1875 29.394531 28.1875 29.40625C28.164063 29.425781 28.144531 29.445313 28.125 29.46875C28.113281 29.5 28.101563 29.53125 28.09375 29.5625C28.066406 29.621094 28.046875 29.6875 28.03125 29.75C28.03125 29.761719 28.03125 29.769531 28.03125 29.78125C28.019531 29.800781 28.007813 29.824219 28 29.84375C28 29.855469 28 29.863281 28 29.875C27.976563 30.066406 28.007813 30.261719 28.09375 30.4375C28.101563 30.480469 28.113281 30.523438 28.125 30.5625L29.09375 33.5625C29.210938 33.898438 29.496094 34.148438 29.84375 34.21875C29.84375 34.21875 31.015625 34.457031 31.71875 34.59375C31.785156 35.242188 31.859375 35.902344 31.90625 36.375C31.9375 36.707031 31.949219 36.992188 31.96875 37.1875C31.976563 37.285156 31.996094 37.355469 32 37.40625C31.996094 37.398438 31.96875 37.484375 31.8125 37.65625C31.605469 37.882813 31.234375 38.1875 30.84375 38.5625C30.058594 39.3125 29.0625 40.417969 29.0625 42.03125C29.0625 42.808594 29.398438 43.488281 29.8125 44.125C30.226563 44.761719 30.785156 45.355469 31.375 45.90625C31.964844 46.457031 32.585938 46.972656 33.21875 47.34375C33.851563 47.714844 34.460938 48 35.1875 48L42.34375 48C43.140625 48 43.84375 47.605469 44.40625 47.0625C44.96875 46.519531 45.4375 45.820313 45.8125 44.96875C46.566406 43.269531 47 41 47 38.40625C47 32.875 43.90625 25.792969 43.90625 19.09375C43.90625 17.210938 44.425781 15.453125 44.875 14.65625C44.980469 14.46875 45.082031 14.285156 45.1875 14.125C45.199219 14.113281 45.207031 14.105469 45.21875 14.09375C45.226563 14.082031 45.242188 14.074219 45.25 14.0625C45.335938 13.960938 45.398438 13.84375 45.4375 13.71875C45.496094 13.621094 45.566406 13.558594 45.625 13.4375C45.875 12.925781 46 12.289063 46 11.375L46 6.28125C46 5.089844 45.359375 4.160156 44.6875 3.71875C44.015625 3.277344 43.367188 3.191406 43.09375 3.15625C43.117188 3.160156 42.492188 3.078125 41.625 2.96875C40.757813 2.859375 39.59375 2.738281 38.3125 2.59375C35.75 2.308594 32.777344 2 30.90625 2 Z M 30.90625 4C32.5625 4 35.558594 4.277344 38.09375 4.5625C39.363281 4.703125 40.515625 4.859375 41.375 4.96875C42.234375 5.078125 42.726563 5.140625 42.84375 5.15625C43.015625 5.175781 43.359375 5.253906 43.59375 5.40625C43.828125 5.558594 44 5.675781 44 6.28125L44 11.375C44 12.117188 43.917969 12.34375 43.8125 12.5625C43.792969 12.605469 43.71875 12.730469 43.6875 12.78125L31.0625 21.40625C30.996094 21.441406 30.933594 21.484375 30.875 21.53125L29.75 22.28125L28.59375 14.375C28.53125 13.9375 28.1875 13.59375 27.75 13.53125C21.207031 12.5 13.007813 10.996094 10.46875 10.53125C11.695313 10.054688 15.492188 8.640625 19.15625 7.28125C21.019531 6.589844 22.835938 5.910156 24.21875 5.40625C24.910156 5.152344 25.480469 4.933594 25.90625 4.78125C26.332031 4.628906 26.730469 4.527344 26.59375 4.5625C27.308594 4.390625 28.472656 4 30.90625 4 Z M 9.09375 12.3125C10.457031 12.566406 19.613281 14.261719 26.71875 15.40625L27.84375 23C25.3125 23.019531 19.984375 22.929688 11.5 19.8125C10.738281 19.527344 10.625 19.386719 10.3125 18.3125C10.015625 17.292969 9.375 13.71875 9.375 13.71875C9.367188 13.699219 9.355469 13.675781 9.34375 13.65625C9.21875 13.101563 9.140625 12.664063 9.09375 12.3125 Z M 42.25 16.15625C42.050781 17.050781 41.90625 18.03125 41.90625 19.09375C41.90625 26.382813 45 33.679688 45 38.40625C45 40.765625 44.570313 42.800781 43.96875 44.15625C43.667969 44.835938 43.335938 45.332031 43.03125 45.625C42.726563 45.917969 42.507813 46 42.34375 46L35.1875 46C35.136719 46 34.6875 45.902344 34.21875 45.625C33.75 45.347656 33.210938 44.929688 32.71875 44.46875C32.226563 44.007813 31.796875 43.488281 31.5 43.03125C31.203125 42.574219 31.0625 42.148438 31.0625 42.03125C31.0625 41.21875 31.539063 40.648438 32.21875 40C32.558594 39.675781 32.941406 39.371094 33.28125 39C33.621094 38.628906 34 38.144531 34 37.4375C34 37.289063 34.003906 37.3125 34 37.25C33.996094 37.1875 33.976563 37.101563 33.96875 37C33.949219 36.796875 33.9375 36.519531 33.90625 36.1875C33.875 35.867188 33.820313 35.378906 33.78125 34.96875C34.707031 35.144531 35.496094 35.320313 35.84375 35.375C35.988281 35.398438 36.140625 35.386719 36.28125 35.34375C37.992188 34.871094 39.03125 33.585938 39.5 32.1875C39.945313 30.871094 40.003906 29.433594 40 28.0625C40.074219 27.769531 40.015625 27.457031 39.832031 27.210938C39.648438 26.96875 39.367188 26.820313 39.0625 26.8125L38.90625 26.8125L32.90625 25.84375L32.53125 22.78125 Z M 32.375 27.78125L36.8125 28.46875L35.125 30.0625L31 29.3125C31.167969 29.125 31.316406 28.988281 31.5 28.78125C31.96875 28.25 32.15625 28.03125 32.375 27.78125 Z M 37.84375 30.28125C37.808594 30.753906 37.746094 31.195313 37.625 31.5625C37.308594 32.5 36.84375 33.03125 35.84375 33.34375C35.3125 33.25 34.347656 33.066406 33.03125 32.8125C32.945313 32.796875 32.929688 32.796875 32.84375 32.78125C32.8125 32.769531 32.78125 32.757813 32.75 32.75C32.695313 32.738281 32.679688 32.761719 32.625 32.75C31.8125 32.59375 31.09375 32.429688 30.8125 32.375L30.46875 31.28125L35.25 32.125C35.554688 32.175781 35.867188 32.085938 36.09375 31.875 Z M 3 32L3 44L6 44L6 32 Z M 8 32L8 44L10 44L10 32 Z M 12 32L12 44L15 44L15 32 Z M 17 32L17 44L19 44L19 32Z" />
</svg>