<?xml version="1.0" encoding="utf-8"?>
<svg xmlns="http://www.w3.org/2000/svg" viewBox="0 0 50 50" width="515" height="515">
  <path d="M5 5L5 17L3 17C1.355469 17 0 18.355469 0 20L0 42C0 43.644531 1.355469 45 3 45L47 45C48.644531 45 50 43.644531 50 42L50 20C50 18.355469 48.644531 17 47 17L45 17L45 5L43 5L43 17L41 17L41 5L37 5L37 17L35 17L35 5L33 5L33 17L31 17L31 5L28 5L28 17L26 17L26 5L24 5L24 17L22 17L22 5L14 5L14 17L12 17L12 5L9 5L9 17L7 17L7 5 Z M 3 19L47 19C47.554688 19 48 19.445313 48 20L48 42C48 42.554688 47.554688 43 47 43L3 43C2.445313 43 2 42.554688 2 42L2 20C2 19.445313 2.445313 19 3 19 Z M 5 21L5 35L7 35L7 21 Z M 9 21L9 35L12 35L12 21 Z M 14 21L14 35L22 35L22 21 Z M 24 21L24 35L26 35L26 21 Z M 28 21L28 35L31 35L31 21 Z M 33 21L33 35L35 35L35 21 Z M 37 21L37 35L41 35L41 21 Z M 43 21L43 35L45 35L45 21Z" />
</svg>