<?xml version="1.0" encoding="utf-8"?>
<svg xmlns="http://www.w3.org/2000/svg" viewBox="0 0 50 50" width="515" height="515">
  <path d="M25 2C17.698355 2 11.189659 5.4169637 6.9746094 10.732422 A 1.0001 1.0001 0 0 0 6.5273438 11.308594C3.6844167 15.135668 2 19.872556 2 25C2 25.220247 2.0094562 25.437479 2.015625 25.65625 A 1.0001 1.0001 0 0 0 2.0292969 26.191406C2.2969543 31.417968 4.3200519 36.183576 7.5117188 39.919922 A 1.0001 1.0001 0 0 0 8.0429688 40.529297C12.249496 45.1194 18.291816 48 25 48C31.708184 48 37.750504 45.1194 41.957031 40.529297 A 1.0001 1.0001 0 0 0 42.488281 39.921875C45.679677 36.186329 47.70023 31.420809 47.96875 26.195312 A 1.0001 1.0001 0 0 0 47.984375 25.662109C47.990654 25.4414 48 25.222212 48 25C48 19.868486 46.313822 15.127491 43.466797 11.298828 A 1.0001 1.0001 0 0 0 43.03125 10.738281C38.816356 5.4191365 32.304596 2 25 2 z M 24 4.0253906L24 24.900391L16.964844 24.900391C16.633315 19.343793 13.563027 14.446727 9.0234375 11.380859C12.671785 7.1038809 17.99945 4.3058783 24 4.0253906 z M 26 4.0253906C32.00055 4.3058783 37.328215 7.1038809 40.976562 11.380859C36.436973 14.446727 33.366685 19.343793 33.035156 24.900391L26 24.900391L26 4.0253906 z M 7.796875 12.96875C11.889461 15.686249 14.633829 20.006025 14.964844 24.900391L4.0019531 24.900391C4.0226278 20.457057 5.4286091 16.351026 7.796875 12.96875 z M 42.203125 12.96875C44.571391 16.351026 45.977372 20.457057 45.998047 24.900391L35.035156 24.900391C35.366171 20.006025 38.110539 15.686249 42.203125 12.96875 z M 4.0878906 26.900391L14.964844 26.900391C14.654804 31.425642 12.259325 35.475531 8.6894531 38.226562C6.1342698 35.078096 4.470674 31.176569 4.0878906 26.900391 z M 16.966797 26.900391L24 26.900391L24 45.974609C18.52812 45.718834 13.614438 43.370981 10.023438 39.716797C13.977918 36.619563 16.656858 32.042496 16.966797 26.900391 z M 26 26.900391L33.033203 26.900391C33.343142 32.042496 36.022081 36.619563 39.976562 39.716797C36.385562 43.370981 31.47188 45.718834 26 45.974609L26 26.900391 z M 35.035156 26.900391L45.912109 26.900391C45.529326 31.176569 43.86573 35.078096 41.310547 38.226562C37.740676 35.475531 35.345196 31.425642 35.035156 26.900391 z" />
</svg>