<?xml version="1.0" encoding="utf-8"?>
<svg xmlns="http://www.w3.org/2000/svg" viewBox="0 0 50 50" width="515" height="515">
  <path d="M20 3C19.734375 3 19.480469 3.105469 19.292969 3.292969L17.585938 5L9.386719 5C7.53125 5 5.90625 6.289063 5.488281 8.101563L3.203125 18L2 18C0.90625 18 0 18.90625 0 20L0 24C0 25.09375 0.90625 26 2 26L2.480469 26L7.828125 44.542969C8.132813 45.597656 9.054688 46 10 46L40 46C40.945313 46 41.867188 45.597656 42.171875 44.542969L47.519531 26L48 26C49.09375 26 50 25.09375 50 24L50 20C50 18.90625 49.09375 18 48 18L46.796875 18L44.511719 8.101563C44.09375 6.289063 42.46875 5 40.613281 5L32.414063 5L30.707031 3.292969C30.519531 3.105469 30.265625 3 30 3 Z M 20.414063 5L29.585938 5L31.292969 6.707031C31.480469 6.894531 31.734375 7 32 7L40.613281 7C41.550781 7 42.351563 7.636719 42.5625 8.550781L44.742188 18L5.257813 18L7.4375 8.550781C7.648438 7.640625 8.449219 7 9.386719 7L18 7C18.265625 7 18.519531 6.894531 18.707031 6.707031 Z M 2 20L48 20L48 24L2 24 Z M 4.5625 26L45.4375 26L40.25 43.984375C40.320313 43.746094 40.15625 44 40 44L10 44C9.84375 44 9.679688 43.746094 9.75 43.984375 Z M 17 27C15.355469 27 14 28.355469 14 30L14 39.921875C14 41.570313 15.355469 42.921875 17 42.921875C18.644531 42.921875 20 41.570313 20 39.921875L20 30C20 28.355469 18.644531 27 17 27 Z M 25 27C23.351563 27 22 28.355469 22 30L22 39.921875C22 41.570313 23.355469 42.921875 25 42.921875C26.644531 42.921875 28 41.570313 28 39.921875L28 30C28 28.355469 26.644531 27 25 27 Z M 33 27C31.355469 27 30 28.355469 30 30L30 39.921875C30 41.570313 31.355469 42.921875 33 42.921875C34.644531 42.921875 36 41.570313 36 39.921875L36 30C36 28.355469 34.644531 27 33 27 Z M 17 29C17.558594 29 18 29.441406 18 30L18 39.921875C18 40.484375 17.558594 40.921875 17 40.921875C16.441406 40.921875 16 40.484375 16 39.921875L16 30C16 29.441406 16.441406 29 17 29 Z M 25 29C25.558594 29 26 29.441406 26 30L26 39.921875C26 40.484375 25.558594 40.921875 25 40.921875C24.441406 40.921875 24 40.484375 24 39.921875L24 30C24 29.441406 24.4375 29 25 29 Z M 33 29C33.558594 29 34 29.441406 34 30L34 39.921875C34 40.484375 33.558594 40.921875 33 40.921875C32.441406 40.921875 32 40.484375 32 39.921875L32 30C32 29.441406 32.441406 29 33 29Z" />
</svg>