<?xml version="1.0" encoding="utf-8"?>
<svg xmlns="http://www.w3.org/2000/svg" width="515" height="515" viewBox="0 0 50 50">
  <path d="M18.185547 5.8046875C16.718323 5.8361828 15.08048 6.0239933 13.369141 6.4414062C8.8055679 7.5545079 3.6952009 10.333818 0.1484375 16.076172 A 1.0001 1.0001 0 0 0 1.3925781 17.519531C4.4906661 16.194918 6.703609 17.214842 8.1679688 18.974609C9.6323284 20.734377 10.064256 23.297198 9.3535156 24.710938 A 1.0001 1.0001 0 0 0 10.246094 26.160156C12.430238 26.160156 13.662442 27.48166 14.136719 29.171875C14.610996 30.86209 14.165129 32.798781 12.798828 33.839844 A 1.0001 1.0001 0 0 0 13.404297 35.636719C15.05195 35.636719 16.000506 35.941204 16.492188 36.273438C16.983868 36.605669 17.132574 36.947175 17.201172 37.46875C17.269772 37.990325 17.179482 38.662613 17.042969 39.316406C16.906457 39.9702 16.702526 40.531132 16.730469 41.240234 A 1.0001 1.0001 0 0 0 18.574219 41.736328C19.566213 40.172463 20.996974 39.410432 22.138672 39.382812C23.28037 39.355193 24.185642 39.863657 24.628906 41.466797 A 1.0001 1.0001 0 0 0 26.558594 41.460938C27.142991 39.306576 28.652242 37.724668 30.291016 37.070312C31.929789 36.415957 33.606186 36.604487 34.962891 38.056641 A 1.0001 1.0001 0 0 0 36.515625 37.941406C37.173575 36.990739 39.350073 36.107196 41.509766 36.330078C43.669458 36.55296 45.678895 37.639789 46.496094 40.251953 A 1.0001 1.0001 0 0 0 48.376953 40.332031C50.939699 34.090236 50.119338 28.324684 48.273438 23.988281C47.350487 21.82008 46.175415 20.000079 45.027344 18.609375C43.879273 17.218671 42.805782 16.262965 41.839844 15.777344 A 1.0001 1.0001 0 0 0 40.402344 16.517578C39.90554 19.752025 38.683356 22.020474 37.144531 23.136719C35.904528 24.036202 34.330487 24.083282 32.494141 23.5C33.087369 22.597367 33.510067 21.602414 33.722656 20.658203C34.056356 19.176082 34.089844 17.886719 34.089844 17.886719 A 1.0001 1.0001 0 0 0 32.511719 17.044922C32.511719 17.044922 31.6112 17.664819 30.974609 18.095703C30.651873 17.812703 30.505893 17.60276 29.777344 17.236328L29.775391 17.236328C29.045834 16.869415 28.790471 16.877264 28.371094 16.787109C28.337034 16.019642 28.298828 14.925781 28.298828 14.925781 A 1.0001 1.0001 0 0 0 26.679688 14.162109C26.679688 14.162109 25.666363 14.957466 24.675781 16.109375C24.04491 16.842991 23.495695 17.774966 23.125 18.789062C21.562612 17.663259 20.662252 16.373008 20.644531 14.841797C20.622531 12.940879 21.713967 10.607024 24.013672 8.2792969 A 1.0001 1.0001 0 0 0 23.75 6.6816406C22.784316 6.1964791 21.383057 5.9089959 19.591797 5.8222656C19.143982 5.8005831 18.674622 5.7941891 18.185547 5.8046875 z M 18.230469 7.8046875C18.672957 7.7950399 19.095674 7.8009248 19.496094 7.8203125C20.494024 7.8686305 20.957114 8.062895 21.587891 8.2246094C19.800852 10.405263 18.619023 12.66113 18.644531 14.865234C18.675281 17.522316 20.303656 19.917829 23.275391 21.412109 A 1.0001 1.0001 0 0 0 24.720703 20.439453C24.658443 19.656725 25.344942 18.400654 26.193359 17.414062C26.290169 17.301485 26.294405 17.327042 26.390625 17.222656C26.399925 17.374097 26.39492 17.491592 26.40625 17.607422 A 1.0001 1.0001 0 0 0 27.277344 18.501953C27.277344 18.501953 28.036777 18.600423 28.876953 19.023438 A 1.0001 1.0001 0 0 0 28.878906 19.023438C29.719029 19.445588 30.251953 19.998047 30.251953 19.998047 A 1.0001 1.0001 0 0 0 31.490234 20.162109C31.589924 20.102079 31.681439 20.028264 31.808594 19.945312C31.782134 20.085248 31.804194 20.07341 31.771484 20.21875C31.485684 21.488129 30.886402 22.787883 30.220703 23.205078 A 1.0001 1.0001 0 0 0 30.302734 24.945312C33.274491 26.439062 36.167435 26.316114 38.318359 24.755859C40.103254 23.461119 41.208268 21.166251 41.892578 18.429688C42.403643 18.841642 42.842583 19.10302 43.486328 19.882812C44.514257 21.127985 45.592544 22.795686 46.433594 24.771484C47.887869 28.187878 48.516636 32.524321 47.181641 37.316406C45.794836 35.502174 43.729307 34.547738 41.714844 34.339844C39.376155 34.098489 37.086985 34.709138 35.619141 36.060547C33.8018 34.663871 31.522884 34.425439 29.550781 35.212891C27.866675 35.885347 26.557053 37.353427 25.597656 39.115234C24.704072 37.990426 23.427544 37.350453 22.089844 37.382812C21.055159 37.407843 20.036032 37.797227 19.095703 38.423828C19.134513 38.012958 19.244364 37.654209 19.185547 37.207031C19.063769 36.281106 18.583115 35.271877 17.611328 34.615234C17.037003 34.22716 16.27727 33.991107 15.40625 33.833984C16.342507 32.279853 16.543516 30.352052 16.060547 28.630859C15.491395 26.602532 13.843397 24.87142 11.496094 24.376953C12.012325 22.170151 11.31404 19.628853 9.7050781 17.695312C8.2939098 15.999527 6.0827389 14.84568 3.4941406 14.998047C6.5544744 11.253425 10.326675 9.2426157 13.84375 8.3847656C15.403723 8.0042725 16.903003 7.8336302 18.230469 7.8046875 z" />
</svg>