<?xml version="1.0" encoding="utf-8"?>
<svg xmlns="http://www.w3.org/2000/svg" viewBox="0 0 50 50" width="515" height="515">
  <path d="M25 9C18.18208 9 12.014509 10.704877 7.4824219 13.539062C2.950335 16.37325 1.1842379e-15 20.420281 0 25C0 29.579719 2.950335 33.62675 7.4824219 36.460938C12.014509 39.295124 18.18208 41 25 41C31.81792 41 37.985491 39.295124 42.517578 36.460938C47.049665 33.62675 50 29.579719 50 25C50 20.465041 47.050143 16.424446 42.519531 13.578125C37.988919 10.731804 31.820426 9 25 9 z M 25 11C31.479574 11 37.31069 12.667805 41.455078 15.271484C45.599466 17.875163 48 21.334959 48 25C48 28.720281 45.599944 32.172859 41.457031 34.763672C37.314118 37.354485 31.48208 39 25 39C18.51792 39 12.685882 37.354485 8.5429688 34.763672C4.4000555 32.172859 2 28.720281 2 25C2 21.279719 4.4000555 17.827141 8.5429688 15.236328C12.685882 12.645515 18.51792 11 25 11 z M 22.099609 14.5L21.5 20.400391C20.1 26.300391 12 21.6 17 15C9.9 16.6 5.1 20.600781 5 24.800781C5.1 26.700781 6.2 28.700391 8 30.400391C9.3 31.600391 11 33.2 13 34C9.7 29.2 16.1 26.8 19 32C20.1 27.8 23.9 30.7 25 36C26.1 30.7 29.9 27.8 31 32C33.9 26.8 40.3 29.2 37 34C39 33.2 40.7 31.6 42 30.5C43.8 28.8 44.9 26.800391 45 24.900391C44.9 20.700391 40.1 16.7 33 15C38 21.6 29.9 26.200391 28.5 20.400391L27.900391 14.5L26.5 16L25 16L23.5 16L22.099609 14.5 z" />
</svg>