<?xml version="1.0" encoding="utf-8"?>
<svg xmlns="http://www.w3.org/2000/svg" viewBox="0 0 50 50" width="515" height="515">
  <path d="M24.875 -0.03125C24.363281 0.0390625 23.988281 0.484375 24 1L24 3.09375C20.175781 3.378906 14.734375 5.269531 9.875 8.25C4.597656 11.484375 0 16.011719 0 21.40625C0 24.464844 2.59375 27 5.8125 27C7.316406 27 8.6875 26.351563 9.71875 25.4375C9.976563 25.210938 10.222656 24.949219 10.4375 24.6875C10.59375 24.929688 10.773438 25.164063 10.96875 25.375C11.945313 26.429688 13.375 27 15 27C16.972656 27 18.539063 26.144531 19.53125 25C19.65625 24.855469 19.765625 24.710938 19.875 24.5625C20.203125 24.949219 20.609375 25.28125 21.03125 25.59375C21.882813 26.226563 22.921875 26.710938 24 26.90625L24 42.8125C24 42.898438 24.011719 42.980469 24.03125 43.0625C20.808594 43.390625 18.40625 45.1875 18.40625 45.1875C17.957031 45.515625 17.859375 46.144531 18.1875 46.59375C18.515625 47.042969 19.144531 47.140625 19.59375 46.8125C19.59375 46.8125 22.105469 45 25 45C27.894531 45 30.40625 46.8125 30.40625 46.8125C30.855469 47.140625 31.484375 47.042969 31.8125 46.59375C32.140625 46.144531 32.042969 45.515625 31.59375 45.1875C31.59375 45.1875 29.191406 43.390625 25.96875 43.0625C25.988281 42.980469 26 42.898438 26 42.8125L26 26.90625C27.082031 26.707031 28.121094 26.203125 28.96875 25.5625C29.324219 25.292969 29.644531 25.003906 29.9375 24.6875C30.09375 24.929688 30.273438 25.164063 30.46875 25.375C31.445313 26.429688 32.875 27 34.5 27C36.472656 27 38.039063 26.144531 39.03125 25C39.164063 24.847656 39.292969 24.695313 39.40625 24.53125C39.671875 24.886719 39.972656 25.207031 40.3125 25.5C41.355469 26.394531 42.710938 27 44.1875 27C47.40625 27 50 24.464844 50 21.40625C50 16.023438 45.460938 11.488281 40.21875 8.25C35.382813 5.265625 29.929688 3.375 26 3.09375L26 1C26.007813 0.707031 25.886719 0.425781 25.671875 0.230469C25.457031 0.03125 25.164063 -0.0625 24.875 -0.03125 Z M 24.625 5.9375C24.835938 6.019531 25.066406 6.03125 25.28125 5.96875C25.65625 6.53125 26.097656 7.246094 26.59375 8.375C27.660156 10.8125 28.726563 14.652344 28.9375 20.3125C28.0625 20.632813 26.433594 21.1875 24.90625 21.1875C23.386719 21.1875 21.875 20.632813 21.0625 20.3125C21.265625 14.21875 22.339844 10.351563 23.40625 8.03125C23.847656 7.070313 24.257813 6.433594 24.625 5.9375 Z M 19.09375 6.21875C18.402344 6.679688 17.839844 6.921875 17.125 7.5C13.742188 10.230469 10.289063 14.390625 9.625 20.0625C9.613281 20.074219 9.605469 20.082031 9.59375 20.09375C9.59375 20.09375 6.886719 21.1875 5.40625 21.1875C4.269531 21.1875 2.742188 20.570313 2.09375 20.28125C2.71875 16.460938 6.386719 12.726563 10.9375 9.9375C13.597656 8.304688 16.460938 7.074219 19.09375 6.21875 Z M 27.65625 6.21875C28.851563 6.785156 30.199219 7.425781 31.65625 8.53125C34.855469 10.957031 37.980469 14.722656 38.4375 20.53125C37.554688 20.835938 36.28125 21.1875 34.90625 21.1875C33.183594 21.1875 31.667969 20.652344 30.9375 20.34375C30.722656 14.414063 29.585938 10.253906 28.40625 7.5625C28.136719 6.953125 27.921875 6.695313 27.65625 6.21875 Z M 32.34375 6.6875C34.605469 7.519531 37 8.585938 39.1875 9.9375C43.710938 12.730469 47.308594 16.476563 47.90625 20.3125C47.386719 20.59375 46.105469 21.1875 44.6875 21.1875C42.851563 21.1875 40.4375 20.09375 40.4375 20.09375C40.425781 20.09375 40.417969 20.09375 40.40625 20.09375C39.804688 13.8125 36.292969 9.585938 32.84375 6.96875C32.664063 6.832031 32.523438 6.816406 32.34375 6.6875 Z M 21.8125 6.8125C21.730469 6.972656 21.675781 7.011719 21.59375 7.1875C20.394531 9.800781 19.265625 13.988281 19.0625 20.34375C18.4375 20.640625 17.070313 21.1875 15.09375 21.1875C13.585938 21.1875 12.40625 20.851563 11.59375 20.5625C12.089844 15.398438 15.175781 11.644531 18.375 9.0625C19.628906 8.050781 20.722656 7.441406 21.8125 6.8125 Z M 9.46875 22.28125C9.355469 22.761719 8.96875 23.410156 8.375 23.9375C7.65625 24.574219 6.707031 25 5.8125 25C4.058594 25 2.667969 23.925781 2.1875 22.5C3.054688 22.839844 4.210938 23.1875 5.40625 23.1875C7.035156 23.1875 8.613281 22.632813 9.46875 22.28125 Z M 40.53125 22.3125C41.378906 22.660156 42.917969 23.1875 44.6875 23.1875C45.894531 23.1875 46.972656 22.878906 47.78125 22.5625C47.28125 23.957031 45.914063 25 44.1875 25C43.265625 25 42.300781 24.605469 41.59375 24C40.996094 23.488281 40.632813 22.867188 40.53125 22.3125 Z M 28.9375 22.46875C28.832031 22.789063 28.449219 23.410156 27.75 23.9375C26.964844 24.527344 25.925781 24.9375 25.09375 24.96875C25.03125 24.960938 24.96875 24.960938 24.90625 24.96875C24.886719 24.976563 24.863281 24.988281 24.84375 25C24.007813 24.953125 22.984375 24.535156 22.21875 23.96875C21.53125 23.457031 21.136719 22.867188 21.03125 22.5C21.945313 22.824219 23.289063 23.1875 24.90625 23.1875C26.558594 23.1875 27.980469 22.800781 28.9375 22.46875 Z M 31.1875 22.53125C32.074219 22.847656 33.3125 23.1875 34.90625 23.1875C36.144531 23.1875 37.230469 23.007813 38.09375 22.78125C37.949219 23.101563 37.773438 23.410156 37.53125 23.6875C36.875 24.445313 35.925781 25 34.5 25C33.328125 25 32.511719 24.621094 31.9375 24C31.59375 23.628906 31.347656 23.128906 31.1875 22.53125 Z M 18.65625 22.625C18.5 23 18.3125 23.363281 18.03125 23.6875C17.375 24.445313 16.425781 25 15 25C13.828125 25 13.011719 24.621094 12.4375 24C12.136719 23.675781 11.9375 23.25 11.78125 22.75C12.632813 22.984375 13.75 23.1875 15.09375 23.1875C16.664063 23.1875 17.804688 22.90625 18.65625 22.625 Z M 10 41C9.449219 41 9 41.449219 9 42C9 42.550781 9.449219 43 10 43C10.550781 43 11 42.550781 11 42C11 41.449219 10.550781 41 10 41 Z M 16 41C15.449219 41 15 41.449219 15 42C15 42.550781 15.449219 43 16 43C16.550781 43 17 42.550781 17 42C17 41.449219 16.550781 41 16 41 Z M 34 41C33.449219 41 33 41.449219 33 42C33 42.550781 33.449219 43 34 43C34.550781 43 35 42.550781 35 42C35 41.449219 34.550781 41 34 41 Z M 40 41C39.449219 41 39 41.449219 39 42C39 42.550781 39.449219 43 40 43C40.550781 43 41 42.550781 41 42C41 41.449219 40.550781 41 40 41 Z M 7 44C6.449219 44 6 44.449219 6 45C6 45.550781 6.449219 46 7 46C7.550781 46 8 45.550781 8 45C8 44.449219 7.550781 44 7 44 Z M 13 44C12.449219 44 12 44.449219 12 45C12 45.550781 12.449219 46 13 46C13.550781 46 14 45.550781 14 45C14 44.449219 13.550781 44 13 44 Z M 37 44C36.449219 44 36 44.449219 36 45C36 45.550781 36.449219 46 37 46C37.550781 46 38 45.550781 38 45C38 44.449219 37.550781 44 37 44 Z M 43 44C42.449219 44 42 44.449219 42 45C42 45.550781 42.449219 46 43 46C43.550781 46 44 45.550781 44 45C44 44.449219 43.550781 44 43 44 Z M 10 47C9.449219 47 9 47.449219 9 48C9 48.550781 9.449219 49 10 49C10.550781 49 11 48.550781 11 48C11 47.449219 10.550781 47 10 47 Z M 16 47C15.449219 47 15 47.449219 15 48C15 48.550781 15.449219 49 16 49C16.550781 49 17 48.550781 17 48C17 47.449219 16.550781 47 16 47 Z M 22 47C21.449219 47 21 47.449219 21 48C21 48.550781 21.449219 49 22 49C22.550781 49 23 48.550781 23 48C23 47.449219 22.550781 47 22 47 Z M 28 47C27.449219 47 27 47.449219 27 48C27 48.550781 27.449219 49 28 49C28.550781 49 29 48.550781 29 48C29 47.449219 28.550781 47 28 47 Z M 34 47C33.449219 47 33 47.449219 33 48C33 48.550781 33.449219 49 34 49C34.550781 49 35 48.550781 35 48C35 47.449219 34.550781 47 34 47 Z M 40 47C39.449219 47 39 47.449219 39 48C39 48.550781 39.449219 49 40 49C40.550781 49 41 48.550781 41 48C41 47.449219 40.550781 47 40 47Z" />
</svg>