<?xml version="1.0" encoding="utf-8"?>
<svg xmlns="http://www.w3.org/2000/svg" viewBox="0 0 50 50" width="515" height="515">
  <path d="M19 0C12.152344 0 7.253906 5.847656 7.0625 13.09375C7.058594 13.238281 7 13.355469 7 13.5C7.007813 13.972656 7.34375 14.378906 7.808594 14.476563C8.269531 14.574219 8.738281 14.335938 8.9375 13.90625C11.15625 8.679688 16.792969 7.210938 20.71875 8.4375C18.023438 8.636719 15.292969 9.179688 12.9375 10.625C9.519531 12.722656 7 16.375 7 21.5C7 25.25 7.851563 28.753906 10.09375 33.34375C10.300781 33.738281 10.738281 33.949219 11.171875 33.871094C11.609375 33.792969 11.945313 33.441406 12 33C12.824219 25.390625 15.976563 21.179688 19.46875 18.65625C21.304688 17.328125 23.234375 16.496094 25 15.9375C24.871094 30.402344 20.320313 37.953125 15.84375 41.96875C11.230469 46.105469 6.71875 46.5 6.71875 46.5C6.6875 46.5 6.65625 46.5 6.625 46.5C3.398438 45.429688 1.5625 44.1875 1.5625 44.1875C1.347656 44.027344 1.078125 43.960938 0.8125 44C0.414063 44.074219 0.0976563 44.382813 0.015625 44.78125C-0.0664063 45.179688 0.101563 45.585938 0.4375 45.8125C0.4375 45.8125 6.414063 50 16 50C19.464844 50 22.386719 49.222656 25.125 48.375C25.183594 48.355469 25.253906 48.363281 25.3125 48.34375C25.410156 48.328125 25.503906 48.296875 25.59375 48.25C25.605469 48.246094 25.613281 48.222656 25.625 48.21875C25.933594 48.121094 26.257813 48.035156 26.5625 47.9375C29.707031 46.9375 32.636719 46 36 46C42.722656 46 48.4375 49.8125 48.4375 49.8125C48.722656 50.085938 49.140625 50.164063 49.507813 50.011719C49.871094 49.863281 50.113281 49.511719 50.125 49.117188C50.136719 48.722656 49.917969 48.359375 49.5625 48.1875C49.5625 48.1875 43.476563 44 36 44C32.898438 44 30.214844 44.742188 27.59375 45.5625C28.339844 44.132813 28.933594 42.429688 29.4375 40.5625C30.265625 37.488281 30.808594 33.9375 31.1875 30.46875C31.886719 24.070313 31.988281 18.023438 32 15.28125C34.933594 15.859375 37.460938 17.304688 39.375 19.53125C41.914063 22.484375 43.386719 26.871094 43 32.71875C42.972656 33.164063 43.238281 33.570313 43.652344 33.730469C44.070313 33.886719 44.539063 33.757813 44.8125 33.40625C48.144531 29.066406 50 25.917969 50 21.90625C50 16.707031 46.140625 13.167969 41.90625 11.1875C38.789063 9.730469 35.714844 9.246094 33.09375 9.21875C33.144531 9.183594 33.132813 9.160156 33.1875 9.125C34.117188 8.546875 35.3125 8.050781 36.6875 8C36.695313 8 36.710938 8 36.71875 8C39.429688 8.007813 43.929688 9.28125 46.65625 12.28125C46.960938 12.609375 47.441406 12.703125 47.84375 12.507813C48.246094 12.3125 48.476563 11.878906 48.40625 11.4375C47.734375 7.207031 46.429688 4.359375 44.65625 2.53125C42.882813 0.703125 40.660156 0 38.5 0C33.679688 0 29.933594 2.917969 29.03125 3.65625C26.066406 0.957031 21.996094 0 19 0 Z M 19 2C21.773438 2 25.835938 3 28.25 5.59375C28.617188 6 29.238281 6.039063 29.65625 5.6875C29.65625 5.6875 34.136719 2 38.5 2C40.242188 2 41.808594 2.515625 43.1875 3.9375C44.140625 4.921875 44.910156 6.625 45.5625 8.75C42.621094 6.789063 39.199219 6 36.6875 6C36.675781 6 36.667969 6 36.65625 6C34.84375 6.058594 33.28125 6.664063 32.09375 7.40625C30.90625 8.148438 30.101563 8.921875 29.6875 9.75C29.511719 10.105469 29.554688 10.53125 29.804688 10.839844C30.054688 11.148438 30.460938 11.285156 30.84375 11.1875C32.625 10.753906 37.222656 11.234375 41.0625 13.03125C44.902344 14.828125 48 17.707031 48 21.90625C48 24.460938 46.796875 26.78125 44.96875 29.5C44.710938 24.824219 43.289063 20.960938 40.90625 18.1875C37.96875 14.765625 33.703125 13 29 13C28.949219 12.996094 28.894531 12.996094 28.84375 13C27.996094 13.125 26.898438 13.316406 25.6875 13.625C25.675781 13.625 25.667969 13.625 25.65625 13.625C23.441406 14.191406 20.800781 15.179688 18.28125 17C14.992188 19.378906 12.078125 23.339844 10.6875 29.3125C9.636719 26.523438 9 24.019531 9 21.5C9 17.023438 11.066406 14.175781 14 12.375C16.933594 10.574219 20.804688 9.9375 24.09375 10.3125C24.519531 10.363281 24.933594 10.136719 25.125 9.75C25.3125 9.367188 25.238281 8.902344 24.9375 8.59375C21.285156 4.847656 14.097656 5 9.6875 9.375C11.046875 5 14.496094 2 19 2 Z M 29.09375 15C29.113281 15 29.136719 15 29.15625 15C29.441406 15.003906 29.722656 15.046875 30 15.0625C29.992188 17.675781 29.917969 23.859375 29.21875 30.28125C28.847656 33.6875 28.285156 37.113281 27.5 40.03125C26.738281 42.855469 25.738281 45.195313 24.59375 46.5C21.917969 47.320313 19.179688 48 16 48C14.003906 48 12.1875 47.824219 10.5625 47.53125C12.449219 46.816406 14.820313 45.589844 17.1875 43.46875C22.160156 39.011719 26.976563 30.640625 27 15.40625C27.777344 15.230469 28.496094 15.089844 29.09375 15Z" />
</svg>