<?xml version="1.0" encoding="utf-8"?>
<svg xmlns="http://www.w3.org/2000/svg" width="515" height="515" viewBox="0 0 50 50">
  <path d="M6 0C4.9148148 0 3.9210934 0.42642112 3.4589844 1.2246094C2.9968754 2.0227976 3 2.8637442 3 3.8007812C3 6.4391533 4.6635402 10.693738 7.71875 14.365234C10.558954 17.778355 14.767733 20.582638 19.976562 20.138672C19.992002 20.453776 20.027031 20.76654 20.082031 21.080078C19.666203 21.041003 19.246259 21.025946 18.824219 21.060547C17.767422 21.147187 16.708433 21.489811 15.732422 22.207031C14.037658 23.452426 12.693051 25.68582 11.794922 29.285156 A 1.0001 1.0001 0 0 0 11.617188 30.09375C11.551323 30.393601 11.48007 30.680583 11.419922 30.998047C11.419681 30.999247 11.420163 31.000753 11.419922 31.001953C11.045606 32.813142 10.934232 34.949441 11.111328 37.095703 A 1.0001 1.0001 0 0 0 11.15625 37.638672C11.298705 38.981581 11.556546 40.318494 11.945312 41.572266C12.476741 43.286119 13.251386 44.85032 14.375 46.035156C14.8713 46.5585 15.449882 46.995076 16.089844 47.328125C17.233615 49.024828 19 50 19 50L19 47.988281C23.51396 47.872616 29.052356 43.817847 31.052734 37.404297C31.453504 36.148551 31.699503 35.009163 31.822266 33.96875 A 1.0003305 1.0003305 0 0 0 31.892578 32.951172C31.954927 31.41063 31.734116 30.103415 31.300781 29.007812C33.439646 29.062714 35.390024 28.512958 36.580078 27.025391 A 1.0001 1.0001 0 0 0 36.589844 27.013672C37.994876 25.207201 38.312732 22.528332 37.423828 19.8125C38.563451 19.971146 39.747836 19.999032 40.888672 19.896484C43.283141 19.681251 45.603738 18.958555 46.587891 17.060547 A 1.0001 1.0001 0 0 0 46.59375 17.046875C47.46621 15.301955 47.053885 13.132456 45.96875 11.113281C44.897512 9.1200384 43.101054 7.2163881 40.753906 5.9648438C41.100066 5.9168982 41.452623 5.8819857 41.794922 5.875C42.927241 5.851891 43.851563 5.9882812 43.851562 5.9882812 A 1.0001 1.0001 0 1 0 44.148438 4.0117188C44.148438 4.0117188 43.071587 3.8481085 41.753906 3.875C40.436225 3.901892 38.823942 4.0468731 37.585938 5.0097656 A 1.0007368 1.0007368 0 0 0 37.560547 5.03125C36.892182 4.981457 36.236517 5.0226224 35.607422 5.1601562L35.138672 3.3945312C35.798332 2.8562416 36.813913 2.4293562 37.828125 2.2324219C39.013378 2.0022758 40 2 40 2 A 1.0001 1.0001 0 1 0 40 0C40 0 38.837013 -0.002275745 37.447266 0.26757812C36.057518 0.53743201 34.357743 1.0345486 33.238281 2.3515625 A 1.0001 1.0001 0 0 0 33.033203 3.2558594L33.732422 5.8984375C32.610882 6.561457 31.66897 7.568372 31.011719 8.8417969C30.511671 9.8106395 30.224215 10.856866 30.140625 11.904297C28.59433 8.0039499 26.156416 5.0849509 23.566406 3.1269531C20.807671 1.0414022 17.916276 2.9605947e-16 15.599609 0C14.219054 0 13.290996 0.40350431 12.765625 0.97265625C12.709816 1.0331161 12.678222 1.0985028 12.632812 1.1621094C10.139912 0.36785698 7.7911641 -1.8775626e-16 6 0 z M 6 2C8.375641 2 12.419307 2.8427604 16.089844 4.75C19.502138 6.523055 22.583077 9.1764058 24.041016 12.849609C23.115136 13.33368 22.282913 14.012487 21.607422 14.890625 A 1.0001 1.0001 0 0 0 21.599609 14.900391C20.876214 15.864918 20.391635 16.964195 20.144531 18.109375C15.533731 18.652316 11.896635 16.259401 9.2558594 13.085938C6.4860692 9.7574338 5 5.4624093 5 3.8007812C5 2.9378184 5.1015621 2.3783743 5.1894531 2.2265625C5.2773441 2.0747507 5.2851852 2 6 2 z M 15.599609 2C17.282943 2 19.89311 2.8582072 22.359375 4.7226562C24.541133 6.3720237 26.627242 8.7876065 28.037109 12.027344C27.316404 11.981887 26.607543 12.029455 25.925781 12.173828C24.251202 7.8920302 20.728682 4.9059729 17.011719 2.9746094C16.340176 2.6256707 15.663134 2.3211499 14.986328 2.0371094C15.153312 2.0139652 15.352633 2 15.599609 2 z M 37.083984 7C37.249707 7.0013145 37.418782 7.0107993 37.589844 7.0292969C37.920738 7.0650776 38.260869 7.1360432 38.609375 7.2402344C38.346958 7.3917925 38.099282 7.57763 37.880859 7.8125C37.039037 8.6666146 36.778727 9.8500759 36.921875 10.931641C37.06598 12.020437 37.585631 13.062067 38.421875 13.833984C39.275335 14.621794 40.406759 15.066865 41.53125 15.216797C42.655741 15.366729 43.853478 15.259807 44.707031 14.40625L44.724609 14.390625L44.740234 14.373047C44.815291 14.290485 44.880858 14.202065 44.945312 14.113281C45.09826 14.942456 45.045152 15.662084 44.804688 16.146484C44.383452 16.946186 42.760944 17.720027 40.710938 17.904297C38.655406 18.089064 36.29862 17.731341 34.847656 17.005859C31.931699 15.547881 31.396338 12.456217 32.789062 9.7578125C33.482661 8.4139647 34.490163 7.5718163 35.671875 7.2050781C36.115017 7.0675513 36.586815 6.9960564 37.083984 7 z M 40.212891 8.7753906C40.333419 8.7690751 40.46199 8.7755221 40.601562 8.7929688C41.15782 8.8625008 41.814221 9.1694826 42.316406 9.6308594C43.027245 10.300756 43.411946 11.049011 43.529297 11.671875C43.644078 12.281096 43.507797 12.715909 43.265625 12.996094C43.10569 13.141481 42.531772 13.332622 41.794922 13.234375C41.044413 13.134307 40.223884 12.777425 39.777344 12.365234C39.313588 11.937152 38.985192 11.279173 38.904297 10.667969C38.823407 10.056765 38.961987 9.5516871 39.306641 9.2070312L39.322266 9.1914062L39.337891 9.1757812C39.56934 8.923283 39.851304 8.7943372 40.212891 8.7753906 z M 27.443359 13.949219C28.393238 13.947763 29.406671 14.201483 30.443359 14.703125C30.968038 16.38717 32.120396 17.878557 33.953125 18.794922C34.296213 18.966466 34.664616 19.111371 35.042969 19.244141C36.330952 21.864385 36.059166 24.427975 35.011719 25.779297C34.203234 26.782125 32.198784 27.242219 29.806641 26.849609 A 1.0006 1.0006 0 0 0 29.583984 26.802734C28.814785 26.738634 25.89512 25.665276 25.199219 25.189453C24.353461 24.50247 22.857279 22.74656 22.511719 21.986328 A 1.0006 1.0006 0 0 0 22.308594 21.695312C22.014883 20.897915 21.910398 20.069352 21.982422 19.25 A 1.0001 1.0001 0 0 0 22.013672 18.914062C22.159655 17.922362 22.559378 16.957757 23.195312 16.107422C23.794617 15.329046 24.52863 14.762168 25.347656 14.400391 A 1.0001 1.0001 0 0 0 25.900391 14.201172C26.392106 14.049249 26.904141 13.950045 27.443359 13.949219 z M 19.511719 23.027344C20.003543 23.056051 20.510287 23.171011 21.023438 23.314453C21.754278 24.60791 22.949135 25.960871 23.974609 26.78125 A 1.0006 1.0006 0 0 0 24.025391 26.820312C25.217011 27.654447 27.254288 28.399556 28.845703 28.65625C29.466608 29.570792 29.900371 30.678121 29.9375 32.208984C21.259129 30.675171 17.681866 26.106029 16.679688 24.021484C16.759164 23.954397 16.83848 23.876771 16.917969 23.818359C17.591957 23.32308 18.294688 23.08328 19.025391 23.029297C19.185805 23.017444 19.347777 23.017775 19.511719 23.027344 z M 15.306641 25.707031C17.025264 28.563515 21.287362 32.765354 29.78125 34.210938C29.652525 34.982784 29.45472 35.829118 29.146484 36.794922 A 1.0006 1.0006 0 0 0 29.144531 36.802734C28.997458 37.274931 28.817763 37.726582 28.625 38.167969C26.937357 38.000883 23.888379 37.18068 20.962891 35.751953C18.007625 34.308684 15.191544 32.242396 13.724609 29.818359C14.168631 28.033745 14.715557 26.702452 15.306641 25.707031 z M 13.197266 32.509766C15.016484 34.646574 17.543764 36.307301 20.085938 37.548828C22.834401 38.891102 25.564614 39.734571 27.619141 40.056641C27.073739 40.913123 26.453473 41.69006 25.785156 42.376953C22.240735 42.189311 19.321859 41.304195 17.150391 40.207031C15.062915 39.152307 13.700066 37.881367 13.123047 37.013672C12.990848 35.451545 13.018707 33.885327 13.197266 32.509766 z M 13.708984 40.435547C14.433408 40.977784 15.279748 41.501955 16.25 41.992188C18.230098 42.992657 20.721063 43.810715 23.646484 44.189453C21.944969 45.359672 20.185045 46 18.800781 46C17.578698 46 16.652558 45.529617 15.826172 44.658203C14.999786 43.786789 14.324041 42.489662 13.855469 40.978516C13.800981 40.802791 13.757837 40.616492 13.708984 40.435547 z" />
</svg>