<?xml version="1.0" encoding="utf-8"?>
<svg xmlns="http://www.w3.org/2000/svg" viewBox="0 0 50 50" width="515" height="515">
  <path d="M18 1C15.620431 1 13.529914 2.2333996 12.292969 4.1171875C11.331123 3.4847454 10.258636 3 9 3C5.6761905 3 3 5.6761905 3 9C3 10.781765 3.77442 12.371675 5 13.46875L5 21.832031 A 1.0001 1.0001 0 0 0 5 22.158203L5 42.400391C5 44.421562 5.5345556 46.126413 6.7109375 47.287109C7.8873194 48.447806 9.6013482 48.955137 11.626953 48.900391L30.400391 48.900391C32.412553 48.900391 34.112682 48.397025 35.289062 47.236328C36.465444 46.075631 37 44.367448 37 42.300781L37 38C40.373729 38 42.961091 35.811388 44.583984 32.927734C46.206878 30.044081 47 26.408974 47 23C47 19.426882 44.252381 17 41 17C39.363633 17 38.007321 17.315269 37 17.617188L37 14.195312C38.794451 13.160399 40 11.228364 40 9C40 5.6761905 37.32381 3 34 3C32.437675 3 31.078579 3.7255292 30 4.7304688C28.921421 3.7255292 27.562325 3 26 3C25.018837 3 24.105425 3.2794193 23.269531 3.7109375C21.996103 2.1358888 20.136594 1 18 1 z M 18 3C19.719048 3 21.429446 4.0312295 22.238281 5.40625 A 1.0001 1.0001 0 0 0 23.699219 5.6992188C24.307219 5.2432188 25.081818 5 26 5C27.266667 5 28.491219 5.6556094 29.199219 6.5996094 A 1.0001 1.0001 0 0 0 30.800781 6.5996094C31.508781 5.6556094 32.733333 5 34 5C36.27619 5 38 6.7238095 38 9C38 11.27619 36.27619 13 34 13C32.774157 13 31.591928 12.383497 30.875 11.488281 A 1.0001 1.0001 0 0 0 30.037109 10.988281 A 1.0001 1.0001 0 0 0 29.236328 11.351562 A 1.0003905 1.0003905 0 0 0 29.224609 11.369141 A 1.0001 1.0001 0 0 0 29.199219 11.400391C28.759219 11.987057 27 13.450199 27 15.699219C27 18.475005 27.536204 20.451642 28.056641 21.921875C28.068225 21.9546 28.074454 21.971703 28.085938 22.003906 A 1.0001 1.0001 0 0 0 28.316406 22.636719C28.695253 23.663285 29 24.462902 29 25C29 26.654545 27.654545 28 26 28C24.345455 28 23 26.654545 23 25C23 24.463215 23.305089 23.664277 23.683594 22.638672 A 1.0001 1.0001 0 0 0 23.914062 22.005859C23.925786 21.972988 23.931531 21.95529 23.943359 21.921875C24.463796 20.451642 25 18.475005 25 15.699219C25 13.766973 23.761233 12.454982 23.091797 11.785156 A 1.0001 1.0001 0 0 0 22.027344 11.298828 A 1.0001 1.0001 0 0 0 21.414062 11.650391C20.477373 12.46733 19.371884 13 18 13C16.333333 13 14.920017 12.170753 13.986328 10.982422 A 1.0001 1.0001 0 0 0 12.318359 11.128906C11.700733 12.286956 10.466667 13 9 13C6.7238095 13 5 11.27619 5 9C5 6.7238095 6.7238095 5 9 5C10.114286 5 11.063052 5.4624106 11.931641 6.2441406 A 1.0001 1.0001 0 0 0 13.519531 5.8945312C14.261058 4.1643023 15.988889 3 18 3 z M 13.251953 12.917969C14.495141 14.101331 16.075445 15 18 15C19.584717 15 20.961147 14.459016 22.085938 13.664062C22.555895 14.229251 23 14.933197 23 15.699219C23 18.075594 22.586962 19.687484 22.138672 21L7 21L7 14.652344C7.6260945 14.872766 8.296696 15 9 15C10.7138 15 12.177175 14.14895 13.251953 12.917969 z M 30.066406 13.521484C31.126979 14.439875 32.514851 15 34 15C34.341517 15 34.674358 14.964462 35 14.910156L35 18.845703 A 1.0001 1.0001 0 0 0 35 19.164062L35 21L29.861328 21C29.413038 19.687484 29 18.075594 29 15.699219C29 14.901842 29.506786 14.209489 30.066406 13.521484 z M 41 19C43.347619 19 45 20.373118 45 23C45 26.091026 44.243903 29.455919 42.841797 31.947266C41.43969 34.438612 39.526271 36 37 36L37 22.167969 A 1.0001 1.0001 0 0 0 37 21.841797L37 19.724609C37.687856 19.479793 39.161296 19 41 19 z M 7 23L21.398438 23C21.17085 23.644341 21 24.285568 21 25C21 27.745455 23.254545 30 26 30C28.745455 30 31 27.745455 31 25C31 24.285568 30.82915 23.644341 30.601562 23L35 23L35 36.832031 A 1.0001 1.0001 0 0 0 35 37.158203L35 42.300781C35 44.034115 34.583384 45.123197 33.884766 45.8125C33.186148 46.501803 32.088228 46.900391 30.400391 46.900391L11.599609 46.900391 A 1.0001 1.0001 0 0 0 11.572266 46.900391C9.8978672 46.945645 8.8138525 46.552584 8.1152344 45.863281C7.4166163 45.173978 7 44.079219 7 42.400391L7 23 z" />
</svg>