<?xml version="1.0" encoding="utf-8"?>
<svg xmlns="http://www.w3.org/2000/svg" viewBox="0 0 50 50" width="515" height="515">
  <path d="M18 2C13.041279 2 9 6.0412829 9 11C9 14.905765 11.512067 18.23176 15 19.472656L15 21L15 32C15 32.351946 15.07397 32.685079 15.1875 33L12.455078 33C13.411581 31.936235 14 30.535615 14 29C14 25.698137 11.301865 23 8 23C6.0833339 23 4.5185588 23.754756 3.5019531 24.898438C2.4853474 26.042119 2 27.527778 2 29C2 30.472222 2.4853474 31.957882 3.5019531 33.101562C3.6482801 33.26618 3.8081071 33.420948 3.9765625 33.568359C2.7988682 34.264328 2 35.53242 2 37L2 39 A 1.0001 1.0001 0 0 0 3 40L37 40 A 1.0001 1.0001 0 0 0 38 39L38 37C38 36.267462 37.78883 35.590391 37.445312 35L41 35L41 44.5C41 46.42381 42.57619 48 44.5 48C46.42381 48 48 46.42381 48 44.5L48 33C48 30.254545 45.745455 28 43 28L37 28C32.372109 28 28.51746 26 24 26L21 26L21 21.099609L21 19.472656C24.487933 18.23176 27 14.905765 27 11C27 6.0412829 22.958721 2 18 2 z M 18 4C21.877841 4 25 7.1221613 25 11C25 14.877839 21.877841 18 18 18C14.122159 18 11 14.877839 11 11C11 7.1221613 14.122159 4 18 4 z M 18 8C16.354545 8 15 9.3545455 15 11C15 12.645455 16.354545 14 18 14C19.645455 14 21 12.645455 21 11C21 9.3545455 19.645455 8 18 8 z M 18 10C18.554545 10 19 10.445455 19 11C19 11.554545 18.554545 12 18 12C17.445455 12 17 11.554545 17 11C17 10.445455 17.445455 10 18 10 z M 17 19.941406C17.328823 19.978046 17.661641 20 18 20C18.338359 20 18.671177 19.978046 19 19.941406L19 21.099609L19 27 A 1.0001 1.0001 0 0 0 20 28L24 28C27.88254 28 31.827891 30 37 30L43 30C44.654545 30 46 31.345455 46 33L46 44.5C46 45.37619 45.37619 46 44.5 46C43.62381 46 43 45.37619 43 44.5L43 34 A 1.0001 1.0001 0 0 0 42 33L34 33L18 33C17.445455 33 17 32.554545 17 32L17 21L17 19.941406 z M 8 25C10.220986 25 12 26.779015 12 29C12 31.220985 10.220986 33 8 33C6.5833342 33 5.6481071 32.504756 4.9980469 31.773438C4.3479866 31.042119 4 30.027778 4 29C4 27.972222 4.3479866 26.957882 4.9980469 26.226562C5.6481071 25.495244 6.5833342 25 8 25 z M 6 35L8 35L34 35C35.190196 35 36 35.809804 36 37L36 38L4 38L4 37C4 35.809804 4.8098039 35 6 35 z" />
</svg>