<?xml version="1.0" encoding="utf-8"?>
<svg xmlns="http://www.w3.org/2000/svg" viewBox="0 0 50 50" width="515" height="515">
  <path d="M9.84375 0C9.613281 0.0390625 9.402344 0.164063 9.25 0.34375C9.25 0.34375 8.222656 1.542969 7.1875 3.03125C6.152344 4.519531 5 6.175781 5 7.90625C5 10.515625 6.960938 12.746094 9.5 13C9.53125 13 9.5625 13 9.59375 13L10.40625 13C10.4375 13 10.46875 13 10.5 13C13.039063 12.746094 15 10.515625 15 7.90625C15 6.175781 13.847656 4.519531 12.8125 3.03125C11.777344 1.542969 10.75 0.34375 10.75 0.34375C10.527344 0.0820313 10.183594 -0.0507813 9.84375 0 Z M 24.84375 0C24.613281 0.0390625 24.402344 0.164063 24.25 0.34375C24.25 0.34375 23.222656 1.542969 22.1875 3.03125C21.152344 4.519531 20 6.175781 20 7.90625C20 10.515625 21.960938 12.746094 24.5 13C24.53125 13 24.5625 13 24.59375 13L25.40625 13C25.4375 13 25.46875 13 25.5 13C28.039063 12.746094 30 10.515625 30 7.90625C30 6.175781 28.847656 4.519531 27.8125 3.03125C26.777344 1.542969 25.75 0.34375 25.75 0.34375C25.527344 0.0820313 25.183594 -0.0507813 24.84375 0 Z M 39.84375 0C39.613281 0.0390625 39.402344 0.164063 39.25 0.34375C39.25 0.34375 38.222656 1.542969 37.1875 3.03125C36.152344 4.519531 35 6.175781 35 7.90625C35 10.515625 36.960938 12.746094 39.5 13C39.53125 13 39.5625 13 39.59375 13L40.40625 13C40.4375 13 40.46875 13 40.5 13C43.039063 12.746094 45 10.515625 45 7.90625C45 6.175781 43.847656 4.519531 42.8125 3.03125C41.777344 1.542969 40.75 0.34375 40.75 0.34375C40.527344 0.0820313 40.183594 -0.0507813 39.84375 0 Z M 10 2.625C10.371094 3.078125 10.597656 3.308594 11.1875 4.15625C12.152344 5.542969 13 7.335938 13 7.90625C13 9.238281 12.132813 10.378906 11 10.8125L11 8C11.011719 7.710938 10.894531 7.433594 10.6875 7.238281C10.476563 7.039063 10.191406 6.941406 9.90625 6.96875C9.863281 6.976563 9.820313 6.988281 9.78125 7C9.316406 7.105469 8.988281 7.523438 9 8L9 10.8125C7.867188 10.378906 7 9.238281 7 7.90625C7 7.335938 7.847656 5.542969 8.8125 4.15625C9.402344 3.308594 9.628906 3.078125 10 2.625 Z M 25 2.625C25.371094 3.078125 25.597656 3.308594 26.1875 4.15625C27.152344 5.542969 28 7.335938 28 7.90625C28 9.238281 27.132813 10.378906 26 10.8125L26 8C26.011719 7.710938 25.894531 7.433594 25.6875 7.238281C25.476563 7.039063 25.191406 6.941406 24.90625 6.96875C24.863281 6.976563 24.820313 6.988281 24.78125 7C24.316406 7.105469 23.988281 7.523438 24 8L24 10.8125C22.867188 10.378906 22 9.238281 22 7.90625C22 7.335938 22.847656 5.542969 23.8125 4.15625C24.402344 3.308594 24.628906 3.078125 25 2.625 Z M 40 2.625C40.371094 3.078125 40.597656 3.308594 41.1875 4.15625C42.152344 5.542969 43 7.335938 43 7.90625C43 9.238281 42.132813 10.378906 41 10.8125L41 8C41.011719 7.710938 40.894531 7.433594 40.6875 7.238281C40.476563 7.039063 40.191406 6.941406 39.90625 6.96875C39.863281 6.976563 39.820313 6.988281 39.78125 7C39.316406 7.105469 38.988281 7.523438 39 8L39 10.8125C37.867188 10.378906 37 9.238281 37 7.90625C37 7.335938 37.847656 5.542969 38.8125 4.15625C39.402344 3.308594 39.628906 3.078125 40 2.625 Z M 5.875 13C4.839844 13.09375 4 13.988281 4 15C4 15.652344 4.230469 15.910156 4.4375 16.28125C4.644531 16.652344 4.886719 17.042969 5.125 17.46875C5.597656 18.320313 6 19.265625 6 20L6 28.25C3.15625 29.003906 1 31.460938 1 34.5L1 38.09375C0.894531 38.34375 0.894531 38.625 1 38.875L1 48C0.96875 48 0.9375 48 0.90625 48C0.875 48 0.84375 48 0.8125 48C0.261719 48.050781 -0.144531 48.542969 -0.09375 49.09375C-0.0429688 49.644531 0.449219 50.050781 1 50L49 50C49.359375 50.003906 49.695313 49.816406 49.878906 49.503906C50.058594 49.191406 50.058594 48.808594 49.878906 48.496094C49.695313 48.183594 49.359375 47.996094 49 48L49 38.84375C49.058594 38.652344 49.058594 38.441406 49 38.25L49 34.5C49 31.527344 46.855469 29.015625 44 28.25L44 19.5C44 19.105469 44.171875 18.648438 44.40625 18.15625C44.640625 17.664063 45 17.234375 45 16.40625C45 15.914063 44.914063 15.324219 44.5 14.8125C44.085938 14.300781 43.355469 14 42.59375 14C39.816406 14 36.46875 13.03125 36.46875 13.03125C36.429688 13.019531 36.386719 13.007813 36.34375 13C36.191406 12.976563 36.023438 12.988281 35.875 13C34.839844 13.09375 34 13.988281 34 15C34 15.652344 34.230469 15.910156 34.4375 16.28125C34.644531 16.652344 34.886719 17.042969 35.125 17.46875C35.597656 18.320313 36 19.265625 36 20L36 28L29 28L29 19.5C29 19.105469 29.171875 18.648438 29.40625 18.15625C29.640625 17.664063 30 17.234375 30 16.40625C30 15.914063 29.914063 15.324219 29.5 14.8125C29.085938 14.300781 28.355469 14 27.59375 14C24.816406 14 21.46875 13.03125 21.46875 13.03125C21.429688 13.019531 21.386719 13.007813 21.34375 13C21.191406 12.976563 21.023438 12.988281 20.875 13C19.839844 13.09375 19 13.988281 19 15C19 15.652344 19.230469 15.910156 19.4375 16.28125C19.644531 16.652344 19.886719 17.042969 20.125 17.46875C20.597656 18.320313 21 19.265625 21 20L21 28L14 28L14 19.5C14 19.105469 14.171875 18.648438 14.40625 18.15625C14.640625 17.664063 15 17.234375 15 16.40625C15 15.914063 14.914063 15.324219 14.5 14.8125C14.085938 14.300781 13.355469 14 12.59375 14C9.816406 14 6.46875 13.03125 6.46875 13.03125C6.429688 13.019531 6.386719 13.007813 6.34375 13C6.191406 12.976563 6.023438 12.988281 5.875 13 Z M 6.0625 15C6.296875 15.070313 9.488281 16 12.59375 16C12.929688 16 12.925781 16.046875 12.9375 16.0625C12.949219 16.078125 13 16.199219 13 16.40625C13 16.28125 12.859375 16.722656 12.59375 17.28125C12.328125 17.839844 12 18.59375 12 19.5L12 28L8 28L8 20C8 18.632813 7.402344 17.449219 6.875 16.5C6.613281 16.027344 6.355469 15.585938 6.1875 15.28125C6.125 15.164063 6.089844 15.078125 6.0625 15 Z M 21.0625 15C21.296875 15.070313 24.488281 16 27.59375 16C27.929688 16 27.925781 16.046875 27.9375 16.0625C27.949219 16.078125 28 16.199219 28 16.40625C28 16.28125 27.859375 16.722656 27.59375 17.28125C27.328125 17.839844 27 18.59375 27 19.5L27 28L23 28L23 20C23 18.632813 22.402344 17.449219 21.875 16.5C21.613281 16.027344 21.355469 15.585938 21.1875 15.28125C21.125 15.164063 21.089844 15.078125 21.0625 15 Z M 36.0625 15C36.296875 15.070313 39.488281 16 42.59375 16C42.929688 16 42.925781 16.046875 42.9375 16.0625C42.949219 16.078125 43 16.199219 43 16.40625C43 16.28125 42.859375 16.722656 42.59375 17.28125C42.328125 17.839844 42 18.59375 42 19.5L42 28L38 28L38 20C38 18.632813 37.402344 17.449219 36.875 16.5C36.613281 16.027344 36.355469 15.585938 36.1875 15.28125C36.125 15.164063 36.089844 15.078125 36.0625 15 Z M 7.8125 30L42.1875 30C44.867188 30 47 32.078125 47 34.5L47 38.15625C46.476563 38.632813 45.746094 39 45 39C43.34375 39 42 37.65625 42 36C42 35.96875 42 35.9375 42 35.90625C41.996094 35.84375 41.984375 35.78125 41.96875 35.71875C41.960938 35.675781 41.949219 35.632813 41.9375 35.59375C41.910156 35.539063 41.878906 35.488281 41.84375 35.4375C41.695313 35.207031 41.457031 35.050781 41.1875 35C41.054688 34.972656 40.914063 34.972656 40.78125 35C40.589844 35.042969 40.417969 35.140625 40.28125 35.28125C40.257813 35.3125 40.238281 35.34375 40.21875 35.375C40.195313 35.394531 40.175781 35.414063 40.15625 35.4375C40.15625 35.449219 40.15625 35.457031 40.15625 35.46875C40.132813 35.488281 40.113281 35.507813 40.09375 35.53125C40.082031 35.5625 40.070313 35.59375 40.0625 35.625C40.035156 35.683594 40.015625 35.75 40 35.8125C39.996094 35.855469 39.996094 35.894531 40 35.9375C40 35.957031 40 35.980469 40 36C40 37.65625 38.65625 39 37 39C35.34375 39 34 37.65625 34 36C34 35.96875 34 35.9375 34 35.90625C33.996094 35.84375 33.984375 35.78125 33.96875 35.71875C33.960938 35.675781 33.949219 35.632813 33.9375 35.59375C33.917969 35.570313 33.898438 35.550781 33.875 35.53125C33.867188 35.5 33.855469 35.46875 33.84375 35.4375C33.78125 35.355469 33.707031 35.28125 33.625 35.21875C33.578125 35.171875 33.523438 35.128906 33.46875 35.09375C33.4375 35.082031 33.40625 35.070313 33.375 35.0625C33.316406 35.035156 33.25 35.015625 33.1875 35C33.054688 34.972656 32.914063 34.972656 32.78125 35C32.589844 35.042969 32.417969 35.140625 32.28125 35.28125C32.28125 35.292969 32.28125 35.300781 32.28125 35.3125C32.234375 35.351563 32.195313 35.390625 32.15625 35.4375C32.15625 35.449219 32.15625 35.457031 32.15625 35.46875C32.132813 35.488281 32.113281 35.507813 32.09375 35.53125C32.066406 35.589844 32.046875 35.65625 32.03125 35.71875C32.019531 35.75 32.007813 35.78125 32 35.8125C32 35.824219 32 35.832031 32 35.84375C31.996094 35.894531 31.996094 35.949219 32 36C32 37.65625 30.65625 39 29 39C27.34375 39 26 37.65625 26 36C26 35.96875 26 35.9375 26 35.90625C25.996094 35.84375 25.984375 35.78125 25.96875 35.71875C25.960938 35.675781 25.949219 35.632813 25.9375 35.59375C25.910156 35.539063 25.878906 35.488281 25.84375 35.4375C25.695313 35.207031 25.457031 35.050781 25.1875 35C25.054688 34.972656 24.914063 34.972656 24.78125 35C24.71875 35.015625 24.652344 35.035156 24.59375 35.0625C24.539063 35.089844 24.488281 35.121094 24.4375 35.15625C24.382813 35.191406 24.328125 35.234375 24.28125 35.28125C24.257813 35.3125 24.238281 35.34375 24.21875 35.375C24.195313 35.394531 24.175781 35.414063 24.15625 35.4375C24.15625 35.449219 24.15625 35.457031 24.15625 35.46875C24.082031 35.574219 24.03125 35.6875 24 35.8125C23.996094 35.855469 23.996094 35.894531 24 35.9375C24 35.957031 24 35.980469 24 36C24 37.65625 22.65625 39 21 39C19.34375 39 18 37.65625 18 36C18 35.96875 18 35.9375 18 35.90625C17.996094 35.84375 17.984375 35.78125 17.96875 35.71875C17.960938 35.675781 17.949219 35.632813 17.9375 35.59375C17.910156 35.539063 17.878906 35.488281 17.84375 35.4375C17.695313 35.207031 17.457031 35.050781 17.1875 35C17.054688 34.972656 16.914063 34.972656 16.78125 35C16.589844 35.042969 16.417969 35.140625 16.28125 35.28125C16.257813 35.3125 16.238281 35.34375 16.21875 35.375C16.195313 35.394531 16.175781 35.414063 16.15625 35.4375C16.15625 35.449219 16.15625 35.457031 16.15625 35.46875C16.132813 35.488281 16.113281 35.507813 16.09375 35.53125C16.082031 35.5625 16.070313 35.59375 16.0625 35.625C16.035156 35.683594 16.015625 35.75 16 35.8125C15.996094 35.855469 15.996094 35.894531 16 35.9375C16 35.957031 16 35.980469 16 36C16 37.65625 14.65625 39 13 39C11.34375 39 10 37.65625 10 36C10 35.96875 10 35.9375 10 35.90625C10 35.875 10 35.84375 10 35.8125C9.988281 35.738281 9.964844 35.664063 9.9375 35.59375C9.917969 35.570313 9.898438 35.550781 9.875 35.53125C9.851563 35.464844 9.820313 35.402344 9.78125 35.34375C9.761719 35.320313 9.742188 35.300781 9.71875 35.28125C9.6875 35.257813 9.65625 35.238281 9.625 35.21875C9.425781 35.042969 9.167969 34.953125 8.90625 34.96875C8.863281 34.976563 8.820313 34.988281 8.78125 35C8.316406 35.105469 7.988281 35.523438 8 36C8 37.65625 6.65625 39 5 39C4.191406 39 3.5 38.71875 3 38.21875L3 34.5C3 31.960938 5.113281 30 7.8125 30 Z M 9 38.96875C9.914063 40.1875 11.371094 41 13 41C14.628906 41 16.085938 40.1875 17 38.96875C17.914063 40.1875 19.371094 41 21 41C22.628906 41 24.085938 40.1875 25 38.96875C25.914063 40.1875 27.371094 41 29 41C30.628906 41 32.085938 40.1875 33 38.96875C33.914063 40.1875 35.371094 41 37 41C38.628906 41 40.085938 40.1875 41 38.96875C41.914063 40.1875 43.371094 41 45 41C45.71875 41 46.394531 40.839844 47 40.5625L47 48L3 48L3 40.5625C3.625 40.835938 4.292969 41 5 41C6.628906 41 8.085938 40.1875 9 38.96875Z" />
</svg>