<?xml version="1.0" encoding="utf-8"?>
<svg xmlns="http://www.w3.org/2000/svg" viewBox="0 0 50 50" width="515" height="515">
  <path d="M25 2C15.128906 2 7 9.300781 7 20.46875C7 28.332031 8.332031 34.773438 12.15625 39C10.441406 41.289063 9.125 43.53125 9.125 43.53125C8.996094 43.769531 8.96875 44.050781 9.050781 44.3125C9.132813 44.570313 9.316406 44.785156 9.5625 44.90625C9.5625 44.90625 15.9375 48 25 48C34.0625 48 40.4375 44.90625 40.4375 44.90625C40.683594 44.785156 40.867188 44.570313 40.949219 44.3125C41.03125 44.050781 41.003906 43.769531 40.875 43.53125C40.875 43.53125 39.558594 41.289063 37.84375 39C41.667969 34.773438 43 28.332031 43 20.46875C43 9.300781 34.871094 2 25 2 Z M 25 4C33.90625 4 41 10.25 41 20.46875C41 28.496094 39.59375 34.703125 35.9375 38.28125C35.574219 38.644531 35.546875 39.226563 35.875 39.625C37.527344 41.667969 38.101563 42.832031 38.46875 43.5C37.128906 44.085938 32.449219 46 25 46C17.550781 46 12.871094 44.085938 11.53125 43.5C11.898438 42.832031 12.472656 41.667969 14.125 39.625C14.453125 39.226563 14.425781 38.644531 14.0625 38.28125C10.40625 34.699219 9 28.496094 9 20.46875C9 10.25 16.09375 4 25 4 Z M 17 20C15.691406 20 14.480469 20.40625 13.5625 21.09375C12.644531 21.78125 12 22.8125 12 24C12 25.1875 12.644531 26.21875 13.5625 26.90625C14.480469 27.59375 15.691406 28 17 28C20.722656 28 23.71875 24.6875 23.71875 24.6875C24.082031 24.300781 24.082031 23.699219 23.71875 23.3125C23.71875 23.3125 20.753906 20 17 20 Z M 33 20C29.246094 20 26.28125 23.3125 26.28125 23.3125C25.917969 23.699219 25.917969 24.300781 26.28125 24.6875C26.28125 24.6875 29.277344 28 33 28C34.308594 28 35.519531 27.59375 36.4375 26.90625C37.355469 26.21875 38 25.1875 38 24C38 22.8125 37.355469 21.78125 36.4375 21.09375C35.519531 20.40625 34.308594 20 33 20 Z M 17 22C18.839844 22 20.492188 23.238281 21.40625 24C20.476563 24.765625 18.800781 26 17 26C16.097656 26 15.308594 25.707031 14.78125 25.3125C14.253906 24.917969 14 24.46875 14 24C14 23.53125 14.253906 23.082031 14.78125 22.6875C15.308594 22.292969 16.097656 22 17 22 Z M 33 22C33.902344 22 34.691406 22.292969 35.21875 22.6875C35.746094 23.082031 36 23.53125 36 24C36 24.46875 35.746094 24.917969 35.21875 25.3125C34.691406 25.707031 33.902344 26 33 26C31.199219 26 29.523438 24.765625 28.59375 24C29.507813 23.238281 31.160156 22 33 22 Z M 25 28C23.40625 28 22.144531 29.109375 21.3125 30.4375C20.480469 31.765625 20 33.402344 20 35C20 38.195313 22.117188 41 25 41C27.882813 41 30 38.195313 30 35C30 33.402344 29.519531 31.765625 28.6875 30.4375C27.855469 29.109375 26.59375 28 25 28 Z M 25 30C25.617188 30 26.351563 30.519531 26.96875 31.5C27.585938 32.480469 28 33.835938 28 35C28 37.328125 26.535156 39 25 39C23.464844 39 22 37.328125 22 35C22 33.835938 22.414063 32.480469 23.03125 31.5C23.648438 30.519531 24.382813 30 25 30Z" />
</svg>