<?xml version="1.0" encoding="utf-8"?>
<svg xmlns="http://www.w3.org/2000/svg" viewBox="0 0 50 50" width="515" height="515">
  <path d="M9 4C6.2504839 4 4 6.2504839 4 9L4 41C4 43.749516 6.2504839 46 9 46L41 46C43.749516 46 46 43.749516 46 41L46 9C46 6.2504839 43.749516 4 41 4L9 4 z M 9 6L41 6C42.668484 6 44 7.3315161 44 9L44 41C44 42.668484 42.668484 44 41 44L9 44C7.3315161 44 6 42.668484 6 41L6 9C6 7.3315161 7.3315161 6 9 6 z M 20 11C15.054545 11 11 15.054545 11 20L11 25L11 30C11 34.945455 15.054545 39 20 39L30 39C34.945455 39 39 34.945455 39 30L39 24C39 22.35503 37.64497 21 36 21L35 21C34.43497 21 34 20.56503 34 20C34 15.054545 29.945455 11 25 11L20 11 z M 20 13L25 13C28.854545 13 32 16.145455 32 20C32 21.64497 33.35503 23 35 23L36 23C36.56503 23 37 23.43497 37 24L37 30C37 33.854545 33.854545 37 30 37L20 37C16.145455 37 13 33.854545 13 30L13 25L13 20C13 16.145455 16.145455 13 20 13 z M 20 17C18.354545 17 17 18.354545 17 20C17 21.645455 18.354545 23 20 23L25 23C26.645455 23 28 21.645455 28 20C28 18.354545 26.645455 17 25 17L20 17 z M 20 19L25 19C25.554545 19 26 19.445455 26 20C26 20.554545 25.554545 21 25 21L20 21C19.445455 21 19 20.554545 19 20C19 19.445455 19.445455 19 20 19 z M 20 27C18.354545 27 17 28.354545 17 30C17 31.645455 18.354545 33 20 33L30 33C31.645455 33 33 31.645455 33 30C33 28.354545 31.645455 27 30 27L20 27 z M 20 29L30 29C30.554545 29 31 29.445455 31 30C31 30.554545 30.554545 31 30 31L20 31C19.445455 31 19 30.554545 19 30C19 29.445455 19.445455 29 20 29 z" />
</svg>