<?xml version="1.0" encoding="utf-8"?>
<svg xmlns="http://www.w3.org/2000/svg" viewBox="0 0 50 50" width="515" height="515">
  <path d="M9.5 4.28125C8.984375 4.328125 8.589844 4.761719 8.59375 5.28125L8.59375 43.84375C8.59375 44.394531 9.042969 44.84375 9.59375 44.84375L28.28125 44.84375C30.082031 44.84375 31.847656 44.605469 33.5625 44.15625C33.570313 44.152344 33.585938 44.160156 33.59375 44.15625C35.324219 43.695313 36.90625 43 38.28125 42.03125C39.6875 41.042969 40.800781 39.738281 41.625 38.1875C42.46875 36.597656 42.875 34.730469 42.875 32.65625C42.875 30.082031 42.230469 27.828125 40.9375 25.9375C39.976563 24.535156 38.546875 23.554688 36.90625 22.78125C37.960938 22.0625 38.898438 21.257813 39.5625 20.28125C40.574219 18.792969 41.03125 16.9375 41.03125 14.84375C41.03125 12.933594 40.742188 11.273438 40.0625 9.875C39.398438 8.507813 38.441406 7.367188 37.21875 6.53125C36.015625 5.707031 34.585938 5.160156 32.96875 4.8125C31.375 4.472656 29.613281 4.28125 27.71875 4.28125L9.59375 4.28125C9.5625 4.28125 9.53125 4.28125 9.5 4.28125 Z M 10.59375 6.28125L27.71875 6.28125C29.484375 6.28125 31.105469 6.449219 32.53125 6.75C32.539063 6.75 32.554688 6.75 32.5625 6.75C33.957031 7.050781 35.144531 7.539063 36.09375 8.1875C37.03125 8.828125 37.726563 9.671875 38.25 10.75C38.761719 11.800781 39.03125 13.152344 39.03125 14.84375C39.03125 16.636719 38.65625 18.050781 37.90625 19.15625C37.140625 20.28125 35.980469 21.230469 34.375 22C34.015625 22.183594 33.800781 22.570313 33.835938 22.972656C33.871094 23.378906 34.144531 23.722656 34.53125 23.84375C36.738281 24.480469 38.285156 25.5625 39.3125 27.0625C40.359375 28.59375 40.875 30.40625 40.875 32.65625C40.875 34.46875 40.542969 35.996094 39.875 37.25C39.1875 38.542969 38.277344 39.566406 37.125 40.375C35.949219 41.203125 34.597656 41.8125 33.0625 42.21875C31.507813 42.628906 29.925781 42.84375 28.28125 42.84375L10.59375 42.84375 Z M 17.875 10.875C17.398438 10.964844 17.054688 11.386719 17.0625 11.875L17.0625 20.90625C17.0625 21.457031 17.511719 21.90625 18.0625 21.90625L26.65625 21.90625C28.328125 21.90625 29.796875 21.496094 30.96875 20.625C32.230469 19.691406 32.84375 18.132813 32.84375 16.3125C32.84375 15.292969 32.652344 14.363281 32.21875 13.59375C31.816406 12.882813 31.25 12.289063 30.5625 11.875C29.90625 11.480469 29.179688 11.238281 28.375 11.09375C27.613281 10.957031 26.8125 10.875 26 10.875L18.0625 10.875C18.03125 10.875 18 10.875 17.96875 10.875C17.9375 10.875 17.90625 10.875 17.875 10.875 Z M 19.0625 12.875L26 12.875C26.691406 12.875 27.367188 12.953125 28 13.0625C28.011719 13.0625 28.019531 13.0625 28.03125 13.0625C28.617188 13.171875 29.113281 13.34375 29.53125 13.59375C29.921875 13.828125 30.222656 14.15625 30.46875 14.59375C30.683594 14.976563 30.84375 15.535156 30.84375 16.3125C30.84375 17.734375 30.464844 18.492188 29.78125 19C29.007813 19.574219 28.011719 19.90625 26.65625 19.90625L19.0625 19.90625 Z M 17.875 25.6875C17.398438 25.777344 17.054688 26.199219 17.0625 26.6875L17.0625 37.25C17.0625 37.800781 17.511719 38.25 18.0625 38.25L27.125 38.25C28.019531 38.25 28.890625 38.175781 29.71875 38C30.578125 37.816406 31.375 37.484375 32.0625 37.03125C32.78125 36.558594 33.367188 35.90625 33.78125 35.125C34.222656 34.289063 34.40625 33.308594 34.40625 32.1875C34.40625 30.019531 33.757813 28.230469 32.34375 27.15625C31.015625 26.152344 29.300781 25.6875 27.3125 25.6875L18.0625 25.6875C18 25.679688 17.9375 25.679688 17.875 25.6875 Z M 19.0625 27.6875L27.3125 27.6875C28.996094 27.6875 30.21875 28.0625 31.125 28.75C31.941406 29.367188 32.40625 30.398438 32.40625 32.1875C32.40625 33.082031 32.242188 33.730469 32 34.1875C31.726563 34.699219 31.402344 35.089844 30.96875 35.375C30.503906 35.679688 29.964844 35.890625 29.3125 36.03125C28.628906 36.175781 27.886719 36.25 27.125 36.25L19.0625 36.25Z" />
</svg>