<?xml version="1.0" encoding="utf-8"?>
<svg xmlns="http://www.w3.org/2000/svg" viewBox="0 0 50 50" width="515" height="515">
  <path d="M13 2C10.800781 2 9 3.800781 9 6L9 44.3125L9.03125 44.3125C9.195313 46.363281 10.910156 48 13 48L42 48L42 46L13 46C11.882813 46 11 45.117188 11 44C11 42.882813 11.882813 42 13 42L42 42L42 40L13 40C11.882813 40 11 39.117188 11 38C11 36.882813 11.882813 36 13 36L42 36L42 2 Z M 13 4L40 4L40 34L13 34C12.257813 34 11.597656 34.261719 11 34.621094L11 6C11 4.882813 11.882813 4 13 4 Z M 16 7C14.90625 7 14 7.90625 14 9L14 12C14 13.09375 14.90625 14 16 14L35 14C36.09375 14 37 13.09375 37 12L37 9C37 7.90625 36.09375 7 35 7 Z M 16 9L35 9L35 12L16 12Z" />
</svg>