<?xml version="1.0" encoding="utf-8"?>
<svg xmlns="http://www.w3.org/2000/svg" viewBox="0 0 50 50" width="515" height="515">
  <path d="M24.964844 1 A 1.0001 1.0001 0 0 0 24.382812 1.2128906L1.3828125 19.212891 A 1.0002305 1.0002305 0 1 0 2.6171875 20.787109L4 19.705078L4 46 A 1.0001 1.0001 0 0 0 5 47L13 47L13 45L6 45L6 18.138672L25 3.2695312L44 18.138672L44 45L37 45L37 47L45 47 A 1.0001 1.0001 0 0 0 46 46L46 19.705078L47.382812 20.787109 A 1.0002308 1.0002308 0 1 0 48.617188 19.212891L25.617188 1.2128906 A 1.0001 1.0001 0 0 0 24.964844 1 z M 15 20L15 47.925781L25 40.259766L35 47.925781L35 45.900391L35 20L15 20 z M 17 22L33 22L33 43.871094L25 37.740234L17 43.871094L17 22 z" />
</svg>