<?xml version="1.0" encoding="utf-8"?>
<svg xmlns="http://www.w3.org/2000/svg" viewBox="0 0 50 50" width="515" height="515">
  <path d="M3 10C2.621094 10 2.375 10.191406 2.25 10.3125C2.125 10.433594 2.082031 10.539063 2.03125 10.625C1.933594 10.796875 1.871094 10.925781 1.8125 11.09375C1.699219 11.429688 1.578125 11.839844 1.46875 12.34375C1.246094 13.351563 1.03125 14.695313 0.8125 16.1875C0.375 19.167969 0 22.683594 0 25C0 27.316406 0.375 30.832031 0.8125 33.8125C1.03125 35.304688 1.246094 36.648438 1.46875 37.65625C1.578125 38.160156 1.699219 38.570313 1.8125 38.90625C1.871094 39.074219 1.933594 39.203125 2.03125 39.375C2.082031 39.460938 2.125 39.566406 2.25 39.6875C2.375 39.808594 2.621094 40 3 40L3.15625 40C3.15625 40 13.714844 38.472656 20.4375 32C20.460938 32 20.476563 32 20.5 32L29.5 32C29.523438 32 29.539063 32 29.5625 32C36.285156 38.472656 46.84375 40 46.84375 40L47 40C47.378906 40 47.625 39.808594 47.75 39.6875C47.875 39.566406 47.917969 39.460938 47.96875 39.375C48.066406 39.203125 48.128906 39.074219 48.1875 38.90625C48.300781 38.570313 48.421875 38.160156 48.53125 37.65625C48.753906 36.648438 48.96875 35.304688 49.1875 33.8125C49.625 30.832031 50 27.316406 50 25C50 22.683594 49.625 19.167969 49.1875 16.1875C48.96875 14.695313 48.753906 13.351563 48.53125 12.34375C48.421875 11.839844 48.300781 11.429688 48.1875 11.09375C48.128906 10.925781 48.066406 10.796875 47.96875 10.625C47.917969 10.539063 47.875 10.433594 47.75 10.3125C47.625 10.191406 47.378906 10 47 10L46.875 10L46.78125 10.03125C46.78125 10.03125 43.78125 10.726563 40.125 12.09375C36.585938 13.417969 32.390625 15.320313 29.5625 18C29.539063 18 29.523438 18 29.5 18L20.5 18C20.476563 18 20.460938 18 20.4375 18C17.609375 15.320313 13.414063 13.417969 9.875 12.09375C6.21875 10.726563 3.21875 10.03125 3.21875 10.03125L3.125 10 Z M 3.5625 12.21875C4.152344 12.363281 6.085938 12.808594 9.1875 13.96875C12.59375 15.242188 16.550781 17.164063 19 19.46875C18.867188 19.765625 18.738281 20.089844 18.625 20.46875C18.507813 20.867188 18.40625 21.328125 18.3125 21.8125C16.589844 21.171875 13.035156 20 10 20C9.96875 20 9.9375 20 9.90625 20C9.355469 20.027344 8.925781 20.496094 8.953125 21.046875C8.980469 21.597656 9.449219 22.027344 10 22C12.855469 22 16.800781 23.375 18.0625 23.84375C18.035156 24.222656 18 24.601563 18 25C18 25.398438 18.035156 25.777344 18.0625 26.15625C16.800781 26.625 12.855469 28 10 28C9.640625 27.996094 9.304688 28.183594 9.121094 28.496094C8.941406 28.808594 8.941406 29.191406 9.121094 29.503906C9.304688 29.816406 9.640625 30.003906 10 30C13.035156 30 16.589844 28.828125 18.3125 28.1875C18.40625 28.671875 18.507813 29.132813 18.625 29.53125C18.738281 29.910156 18.867188 30.234375 19 30.53125C13.328125 35.980469 4.742188 37.609375 3.59375 37.8125C3.542969 37.621094 3.496094 37.488281 3.4375 37.21875C3.234375 36.292969 2.996094 34.957031 2.78125 33.5C2.355469 30.585938 2 27.101563 2 25C2 22.898438 2.355469 19.414063 2.78125 16.5C2.996094 15.042969 3.234375 13.707031 3.4375 12.78125C3.492188 12.53125 3.511719 12.402344 3.5625 12.21875 Z M 46.4375 12.21875C46.488281 12.402344 46.507813 12.53125 46.5625 12.78125C46.765625 13.707031 47.003906 15.042969 47.21875 16.5C47.644531 19.414063 48 22.898438 48 25C48 27.101563 47.644531 30.585938 47.21875 33.5C47.003906 34.957031 46.765625 36.292969 46.5625 37.21875C46.503906 37.488281 46.457031 37.621094 46.40625 37.8125C45.257813 37.609375 36.671875 35.980469 31 30.53125C31.132813 30.234375 31.261719 29.910156 31.375 29.53125C31.492188 29.132813 31.59375 28.671875 31.6875 28.1875C33.410156 28.828125 36.964844 30 40 30C40.359375 30.003906 40.695313 29.816406 40.878906 29.503906C41.058594 29.191406 41.058594 28.808594 40.878906 28.496094C40.695313 28.183594 40.359375 27.996094 40 28C37.144531 28 33.199219 26.625 31.9375 26.15625C31.964844 25.777344 32 25.398438 32 25C32 24.601563 31.964844 24.222656 31.9375 23.84375C33.199219 23.375 37.144531 22 40 22C40.359375 22.003906 40.695313 21.816406 40.878906 21.503906C41.058594 21.191406 41.058594 20.808594 40.878906 20.496094C40.695313 20.183594 40.359375 19.996094 40 20C36.964844 20 33.410156 21.171875 31.6875 21.8125C31.59375 21.328125 31.492188 20.867188 31.375 20.46875C31.261719 20.089844 31.132813 19.765625 31 19.46875C33.449219 17.164063 37.40625 15.242188 40.8125 13.96875C43.914063 12.808594 45.847656 12.363281 46.4375 12.21875 Z M 20.9375 20L29.0625 20C29.175781 20.222656 29.296875 20.566406 29.4375 21.03125C29.734375 22.023438 30 23.453125 30 25C30 26.546875 29.734375 27.976563 29.4375 28.96875C29.296875 29.433594 29.175781 29.777344 29.0625 30L20.9375 30C20.824219 29.777344 20.703125 29.433594 20.5625 28.96875C20.265625 27.976563 20 26.546875 20 25C20 24.417969 20.03125 23.875 20.09375 23.34375C20.097656 23.300781 20.097656 23.261719 20.09375 23.21875C20.199219 22.382813 20.386719 21.621094 20.5625 21.03125C20.703125 20.566406 20.824219 20.222656 20.9375 20Z" />
</svg>