<?xml version="1.0" encoding="utf-8"?>
<svg xmlns="http://www.w3.org/2000/svg" viewBox="0 0 50 50" width="515" height="515">
  <path d="M1 3L1 4L1 15L3 15L3 48L47 48L47 15L49 15L49 3L1 3 z M 3 5L47 5L47 13L3 13L3 5 z M 5 15L45 15L45 46L5 46L5 15 z M 17.5 19C15.57619 19 14 20.57619 14 22.5C14 24.42381 15.57619 26 17.5 26L32.5 26C34.42381 26 36 24.42381 36 22.5C36 20.57619 34.42381 19 32.5 19L17.5 19 z M 17.5 21L32.5 21C33.37619 21 34 21.62381 34 22.5C34 23.37619 33.37619 24 32.5 24L17.5 24C16.62381 24 16 23.37619 16 22.5C16 21.62381 16.62381 21 17.5 21 z" />
</svg>