<?xml version="1.0" encoding="utf-8"?>
<svg xmlns="http://www.w3.org/2000/svg" viewBox="0 0 50 50" width="515" height="515">
  <path d="M27.59375 0C20.910156 0 16.621094 0.796875 13.875 3.03125C11.128906 5.265625 10.3125 8.789063 10.3125 13.5C10.3125 13.632813 10.371094 14.03125 10.375 14.1875C8.207031 13.800781 5.980469 14.601563 4.5625 16.40625C2.882813 18.542969 2.375 21.929688 3.96875 25.96875C6.414063 32.386719 9.101563 35.839844 11.625 37.8125C12.851563 38.769531 14.03125 39.363281 15.0625 39.78125C15.394531 41.839844 15.699219 43.582031 16.03125 44.9375C16.382813 46.367188 16.667969 47.355469 17.40625 48.09375L17.40625 48.125C18.257813 48.914063 19.464844 49.359375 21.1875 49.625C22.910156 49.890625 25.230469 50 28.5 50C31.78125 50 34.199219 49.847656 35.96875 49.5C37.71875 49.15625 38.972656 48.601563 39.5625 47.46875L39.59375 47.46875C39.597656 47.460938 39.589844 47.445313 39.59375 47.4375C40.449219 45.835938 40.679688 43.34375 40.84375 41.0625C41.003906 38.855469 41 37.042969 41 36.90625C42.394531 34.605469 43.246094 31.355469 43.875 27.71875C44.675781 23.078125 45 17.851563 45 13.5C45 8.785156 44.144531 5.261719 41.375 3.03125C38.605469 0.800781 34.277344 0 27.59375 0 Z M 27.59375 2C34.109375 2 37.992188 2.875 40.125 4.59375C42.257813 6.3125 43 9.015625 43 13.5C43 17.75 42.679688 22.890625 41.90625 27.375C41.132813 31.859375 39.789063 35.679688 38.28125 37.1875C38.042969 37.425781 36.707031 38.035156 34.9375 38.40625C33.167969 38.777344 30.960938 39.027344 28.71875 39.1875C26.476563 39.347656 24.179688 39.40625 22.3125 39.34375C20.445313 39.28125 18.910156 39.050781 18.46875 38.875C16.90625 38.261719 15.054688 37.921875 12.875 36.21875C10.695313 34.515625 8.199219 31.433594 5.84375 25.25L5.84375 25.21875C4.4375 21.660156 4.953125 19.113281 6.125 17.625C7.246094 16.199219 8.960938 15.753906 10.59375 16.3125C10.722656 17.765625 10.773438 18.988281 11.03125 20.8125C11.449219 23.777344 11.890625 26.550781 12.46875 27.96875C12.578125 28.335938 12.882813 28.605469 13.257813 28.671875C13.632813 28.734375 14.011719 28.582031 14.238281 28.273438C14.460938 27.964844 14.488281 27.554688 14.3125 27.21875C13.992188 26.4375 13.410156 23.441406 13 20.53125C12.589844 17.621094 12.3125 14.589844 12.3125 13.5C12.3125 9.011719 13.019531 6.277344 15.125 4.5625C17.230469 2.847656 21.078125 2 27.59375 2 Z M 38.90625 39.21875C38.882813 39.777344 38.890625 40.285156 38.84375 40.9375C38.683594 43.144531 38.246094 45.730469 37.8125 46.53125L37.8125 46.5625C37.691406 46.800781 37.121094 47.230469 35.59375 47.53125C34.066406 47.832031 31.71875 48 28.5 48C25.269531 48 23.027344 47.890625 21.5 47.65625C19.996094 47.425781 19.261719 47.09375 18.8125 46.6875C18.8125 46.6875 18.78125 46.65625 18.78125 46.65625C18.707031 46.570313 18.289063 45.765625 17.96875 44.46875C17.722656 43.460938 17.5 42.089844 17.25 40.5625C17.402344 40.613281 17.589844 40.667969 17.71875 40.71875C18.777344 41.140625 20.292969 41.277344 22.25 41.34375C24.207031 41.410156 26.535156 41.351563 28.84375 41.1875C31.152344 41.023438 33.4375 40.742188 35.34375 40.34375C36.773438 40.046875 37.988281 39.753906 38.90625 39.21875Z" />
</svg>