<?xml version="1.0" encoding="utf-8"?>
<svg xmlns="http://www.w3.org/2000/svg" viewBox="0 0 50 50" width="515" height="515">
  <path d="M25 0C21.144531 0 18 3.144531 18 7C18 10.855469 21.144531 14 25 14C28.855469 14 32 10.855469 32 7C32 3.144531 28.855469 0 25 0 Z M 25 2C27.773438 2 30 4.226563 30 7C30 9.773438 27.773438 12 25 12C22.226563 12 20 9.773438 20 7C20 4.226563 22.226563 2 25 2 Z M 21.3125 14.90625C18.359375 14.90625 15.65625 16.875 14.9375 19.75L11.9375 31.4375C11.925781 31.457031 11.914063 31.480469 11.90625 31.5C11.609375 32.992188 12.53125 34.394531 13.875 34.84375C13.914063 34.855469 13.957031 34.867188 14 34.875C15.417969 35.160156 16.996094 34.363281 17.34375 32.84375L17.375 32.84375L17.375 32.78125L18 30.4375L18 35.8125C18 35.84375 18 35.875 18 35.90625L18 36C18 36.03125 18 36.0625 18 36.09375L18 47C18 48.644531 19.355469 50 21 50C22.644531 50 24 48.644531 24 47L24 37L26 37L26 47C26 48.644531 27.355469 50 29 50C30.644531 50 32 48.644531 32 47L32 36.15625C32.003906 36.105469 32.003906 36.050781 32 36C32 35.96875 32 35.9375 32 35.90625L32 31.1875L32.4375 32.84375C32.761719 34.136719 33.886719 35 35.1875 35C35.289063 35 35.742188 35.164063 36.3125 34.59375L36.25 34.53125C37.445313 33.988281 38.222656 32.753906 37.84375 31.4375L37.875 31.4375L34.875 19.75C34.164063 16.898438 31.535156 14.90625 28.5 14.90625 Z M 21.3125 16.90625L28.5 16.90625C30.664063 16.90625 32.449219 18.300781 32.9375 20.25L35.9375 31.9375C35.9375 31.957031 35.9375 31.980469 35.9375 32C36.078125 32.472656 35.851563 32.816406 35.40625 32.90625C35.328125 32.929688 35.257813 32.960938 35.1875 33C34.886719 33 34.453125 32.648438 34.375 32.34375L31.96875 23.15625C31.84375 22.667969 31.375 22.347656 30.875 22.414063C30.375 22.476563 30 22.902344 30 23.40625L30 28L19.8125 28L19.8125 23.40625C19.8125 22.902344 19.4375 22.476563 18.9375 22.414063C18.4375 22.347656 17.96875 22.667969 17.84375 23.15625L15.4375 32.34375C15.425781 32.363281 15.414063 32.386719 15.40625 32.40625C15.324219 32.820313 14.988281 32.988281 14.46875 32.90625C14.0625 32.742188 13.796875 32.402344 13.875 31.9375C13.875 31.925781 13.871094 31.917969 13.875 31.90625L16.875 20.25C17.355469 18.324219 19.265625 16.90625 21.3125 16.90625 Z M 20 30L30 30L30 35L20 35 Z M 20 37L22 37L22 47C22 47.554688 21.554688 48 21 48C20.445313 48 20 47.554688 20 47 Z M 28 37L30 37L30 47C30 47.554688 29.554688 48 29 48C28.445313 48 28 47.554688 28 47Z" />
</svg>