<?xml version="1.0" encoding="utf-8"?>
<svg xmlns="http://www.w3.org/2000/svg" viewBox="0 0 50 50" width="515" height="515">
  <path d="M21 0C14.998508 0 11.470542 3.3009372 10.332031 6.1484375C7.200027 6.7120832 4.4044286 8.8176428 2.9941406 12.078125C1.5478162 15.421921 1.6010304 19.896798 3.9101562 24.939453C2.5990203 26.63431 1.8480763 28.822165 2.2128906 31.037109C2.5736169 33.227233 4.0888502 35.278764 6.7167969 36.488281C5.6679771 38.933881 6.0263568 41.32152 7.3691406 43C8.766132 44.746239 11.016893 45.699324 13.369141 45.867188C14.071262 47.71253 15.370061 48.925583 16.783203 49.439453C18.377717 50.019276 20 50 21 50C22.693537 50 24.098708 49.132785 25 47.871094C25.901292 49.132785 27.306463 50 29 50C30.125439 50 31.741555 49.728066 33.3125 48.878906C34.695786 48.131184 35.931677 46.778879 36.623047 44.925781C38.854558 44.846601 41.064292 44.392507 42.542969 42.970703C43.352723 42.192093 43.896002 41.106592 43.972656 39.841797C44.033276 38.841554 43.744678 37.713345 43.257812 36.503906C45.9103 35.300025 47.470509 33.252404 47.859375 31.048828C48.250472 28.832611 47.485993 26.62729 46.09375 24.927734C48.397475 19.889922 48.451055 15.419311 47.005859 12.078125C45.595571 8.8176428 42.799973 6.7120832 39.667969 6.1484375C38.529458 3.3009372 35.001492 0 29 0C27.514198 0 26.097372 0.35741843 25.199219 1.5097656C25.103661 1.6323685 25.082388 1.8288619 25 1.9628906C24.917612 1.8288619 24.896339 1.6323685 24.800781 1.5097656C23.902628 0.35741844 22.485802 1.4802974e-16 21 0 z M 21 2C22.214198 2 22.797762 2.1925816 23.224609 2.7402344C23.651456 3.2878872 24 4.4934216 24 6.6992188L24 45C24 46.807246 22.807246 48 21 48C20 48 18.622283 47.98072 17.466797 47.560547C16.311311 47.14037 15.394614 46.453454 14.970703 44.757812L14.78125 44L14 44C11.989855 44 10.005047 43.091758 8.9316406 41.75C7.8582342 40.408242 7.5289205 38.727841 8.8574219 36.513672L9.4980469 35.445312L8.3164062 35.050781C5.6041736 34.146704 4.4818752 32.500169 4.1875 30.712891C3.8942188 28.932254 4.5458296 26.963404 5.71875 25.697266C5.7231253 25.692543 5.7260789 25.686344 5.7304688 25.681641L5.7519531 25.660156 A 1.0001 1.0001 0 0 0 5.7558594 25.654297C5.7558594 25.654297 5.7578059 25.652351 5.7578125 25.652344C5.7634722 25.646172 8.191512 23 11 23C14.55812 23 16.310547 24.724609 16.310547 24.724609 A 1.0002018 1.0002018 0 1 0 17.689453 23.275391C17.689453 23.275391 15.24188 21 11 21C8.5149016 21 6.504792 22.298168 5.3417969 23.277344C3.5892473 19.009723 3.7113324 15.457552 4.8300781 12.871094C6.0601713 10.027209 8.4760832 8.3020416 11.115234 7.9941406L11.773438 7.9160156L11.960938 7.2792969C12.499657 5.4322569 15.4 2 21 2 z M 29 2C34.6 2 37.500343 5.4322569 38.039062 7.2792969L38.226562 7.9160156L38.884766 7.9941406C41.523917 8.3020416 43.939829 10.027209 45.169922 12.871094C46.275969 15.428195 46.32873 18.961457 44.638672 23.164062 A 1.0001 1.0001 0 0 0 44.228516 23.767578C44.228516 23.767578 44.021563 24.70688 42.90625 25.779297C41.790937 26.851713 39.791667 28 36 28 A 1.0001 1.0001 0 1 0 36 30C40.208333 30 42.808282 28.648287 44.292969 27.220703C44.54222 26.981039 44.603827 26.778178 44.794922 26.539062C45.639057 27.754766 46.1482 29.241583 45.890625 30.701172C45.576275 32.482489 44.398989 34.14565 41.683594 35.050781L40.589844 35.416016L41.105469 36.447266C41.801803 37.839934 42.024908 38.922998 41.976562 39.720703C41.928213 40.518408 41.646496 41.057907 41.15625 41.529297C40.200966 42.447838 38.254459 42.96386 36.162109 42.990234C34.867513 42.535753 33.859173 41.905432 33.164062 41.011719C32.440186 40.081021 32 38.833333 32 37 A 1.0001 1.0001 0 0 0 30.984375 35.986328 A 1.0001 1.0001 0 0 0 30 37C30 39.166667 30.559814 40.918979 31.585938 42.238281C32.408989 43.296491 33.508507 44.042542 34.748047 44.580078C34.231162 45.796956 33.355812 46.583534 32.361328 47.121094C31.157273 47.771934 29.774561 48 29 48C27.192754 48 26 46.807246 26 45L26 6.6992188C26 4.4934215 26.348544 3.2878872 26.775391 2.7402344C27.202238 2.1925816 27.785802 2 29 2 z M 18.984375 9.9863281 A 1.0001 1.0001 0 0 0 18 11C18 11.166667 17.840938 11.994999 17.167969 12.667969C16.494999 13.340938 15.3 14 13 14 A 1.0001 1.0001 0 1 0 13 16C15.7 16 17.505001 15.159062 18.582031 14.082031C19.659062 13.005001 20 11.833333 20 11 A 1.0001 1.0001 0 0 0 18.984375 9.9863281 z M 32.984375 11.986328 A 1.0001 1.0001 0 0 0 32 13C32 14.333333 32.604407 16.018469 34.042969 17.457031C35.481531 18.895593 37.777778 20 41 20 A 1.0001 1.0001 0 1 0 41 18C38.222222 18 36.518469 17.104407 35.457031 16.042969C34.395593 14.981531 34 13.666667 34 13 A 1.0001 1.0001 0 0 0 32.984375 11.986328 z M 10.964844 29.998047 A 1.0001 1.0001 0 0 0 10.835938 31.986328C13.516025 32.43301 14.675162 33.866394 15.330078 35.394531C15.984998 36.922669 16 38.5 16 39 A 1.0001 1.0001 0 1 0 18 39C18 38.5 18.01501 36.577331 17.169922 34.605469C16.324838 32.633606 14.483975 30.56699 11.164062 30.013672 A 1.0001 1.0001 0 0 0 10.964844 29.998047 z" />
</svg>