<?xml version="1.0" encoding="utf-8"?>
<svg xmlns="http://www.w3.org/2000/svg" viewBox="0 0 50 50" width="515" height="515">
  <path d="M25 2C19.488281 2 15 6.488281 15 12C15 13.152344 15.203125 14.25 15.5625 15.28125C14 15.445313 11.269531 16.042969 9.15625 18.15625C6.03125 21.285156 6 25.96875 6 25.96875C5.992188 26.246094 6.097656 26.511719 6.292969 26.707031C6.488281 26.902344 6.753906 27.007813 7.03125 27C7.03125 27 11.714844 26.96875 14.84375 23.84375C16.488281 22.199219 17.210938 20.183594 17.53125 18.625C19.363281 20.6875 22.035156 22 25 22C30.511719 22 35 17.511719 35 12C35 6.488281 30.511719 2 25 2 Z M 25 4C29.429688 4 33 7.570313 33 12C33 16.429688 29.429688 20 25 20C20.570313 20 17 16.429688 17 12C17 7.570313 20.570313 4 25 4 Z M 15.625 17.375C15.523438 18.566406 15.214844 20.660156 13.4375 22.4375C11.664063 24.210938 9.464844 24.644531 8.1875 24.8125C8.355469 23.535156 8.789063 21.335938 10.5625 19.5625C12.339844 17.785156 14.433594 17.476563 15.625 17.375 Z M 25.1875 24C16.257813 24 9 31.257813 9 40.1875L9 47L11 47L11 40.1875C11 32.363281 17.363281 26 25.1875 26L29.34375 26C35.308594 26 40.664063 29.765625 42.6875 35.375L43.65625 38.0625C44.425781 40.199219 44.105469 42.59375 42.78125 44.4375L40.90625 47L43.375 47L44.40625 45.59375C46.113281 43.210938 46.523438 40.128906 45.53125 37.375L44.5625 34.6875C42.253906 28.289063 36.148438 24 29.34375 24 Z M 34 31C30.140625 31 27 34.140625 27 38C27 38.230469 27.007813 38.453125 27.03125 38.6875C25.039063 39.023438 23.21875 39.96875 21.78125 41.40625L18.21875 44.96875C17.601563 45.585938 17.074219 46.277344 16.65625 47L19.0625 47C19.234375 46.789063 19.429688 46.570313 19.625 46.375L23.1875 42.8125C24.542969 41.457031 26.355469 40.664063 28.28125 40.5625C28.585938 40.546875 28.855469 40.402344 29.03125 40.15625C29.210938 39.910156 29.265625 39.605469 29.1875 39.3125C29.066406 38.871094 29 38.429688 29 38C29 35.242188 31.242188 33 34 33C36.691406 33 38.898438 35.144531 39 37.8125C38.996094 37.855469 38.996094 37.894531 39 37.9375C39 37.957031 39 37.980469 39 38C39 38.171875 38.984375 38.332031 38.96875 38.5C38.960938 38.59375 38.953125 38.691406 38.9375 38.78125C38.9375 38.792969 38.9375 38.800781 38.9375 38.8125C38.898438 39.054688 38.824219 39.269531 38.75 39.5C38.703125 39.648438 38.652344 39.796875 38.59375 39.9375C38.554688 40.03125 38.511719 40.128906 38.46875 40.21875C38.441406 40.273438 38.402344 40.324219 38.375 40.375C38.164063 40.761719 37.925781 41.117188 37.625 41.4375C37.605469 41.457031 37.582031 41.480469 37.5625 41.5C37.277344 41.789063 36.945313 42.035156 36.59375 42.25C35.835938 42.710938 34.957031 43 34 43C33.164063 43 32.378906 42.796875 31.6875 42.4375C31.195313 42.179688 30.585938 42.367188 30.328125 42.859375C30.070313 43.351563 30.257813 43.960938 30.75 44.21875C31.71875 44.722656 32.835938 45 34 45C34.550781 45 35.082031 44.933594 35.59375 44.8125C35.945313 45.515625 36.183594 46.246094 36.3125 47L38.34375 47C38.210938 45.996094 37.917969 44.996094 37.46875 44.0625C37.742188 43.90625 38 43.753906 38.25 43.5625C38.316406 43.511719 38.375 43.457031 38.4375 43.40625C38.460938 43.386719 38.476563 43.363281 38.5 43.34375C38.65625 43.214844 38.796875 43.078125 38.9375 42.9375C39.054688 42.820313 39.171875 42.6875 39.28125 42.5625C39.320313 42.519531 39.367188 42.484375 39.40625 42.4375C39.449219 42.386719 39.488281 42.335938 39.53125 42.28125C39.546875 42.261719 39.546875 42.238281 39.5625 42.21875C39.917969 41.753906 40.207031 41.261719 40.4375 40.71875C40.527344 40.507813 40.617188 40.285156 40.6875 40.0625C40.710938 39.988281 40.730469 39.917969 40.75 39.84375C40.789063 39.699219 40.8125 39.550781 40.84375 39.40625C40.875 39.25 40.917969 39.097656 40.9375 38.9375C40.949219 38.867188 40.960938 38.792969 40.96875 38.71875C40.992188 38.484375 41 38.242188 41 38C41 37.96875 41 37.9375 41 37.90625C41 37.875 41 37.84375 41 37.8125C40.898438 34.039063 37.796875 31 34 31Z" />
</svg>