<?xml version="1.0" encoding="utf-8"?>
<svg xmlns="http://www.w3.org/2000/svg" viewBox="0 0 50 50" width="515" height="515">
  <path d="M46 4L4 4C4 4 3.898438 4 3.898438 4C3.898438 4 3.800781 4 3.800781 4C3.300781 4.101563 3 4.5 3 5L3 45C3 45.601563 3.398438 46 4 46L46 46C46.601563 46 47 45.601563 47 45L47 5C47 4.398438 46.601563 4 46 4 Z M 5 26L17 26L17 34L5 34 Z M 24 24L12 24L12 16L24 16 Z M 19 26L31 26L31 34L19 34 Z M 26 24L26 16L38 16L38 24 Z M 45 24L40 24L40 16L45 16 Z M 33 6L45 6L45 14L33 14 Z M 19 6L31 6L31 14L19 14 Z M 5 6L17 6L17 14L5 14 Z M 5 16L10 16L10 24L5 24 Z M 10 44L5 44L5 36L10 36 Z M 24 44L12 44L12 36L24 36 Z M 38 44L26 44L26 36L38 36 Z M 45 44L40 44L40 36L45 36 Z M 45 34L33 34L33 26L45 26Z" />
</svg>