<?xml version="1.0" encoding="utf-8"?>
<svg xmlns="http://www.w3.org/2000/svg" viewBox="0 0 50 50" width="515" height="515">
  <path d="M0 8L0 10L3 10L3 13L0 13L0 15L50 15L50 13L47 13L47 10L50 10L50 8 Z M 5 10L10 10L10 13L5 13 Z M 12 10L17 10L17 13L12 13 Z M 19 10L24 10L24 13L19 13 Z M 26 10L31 10L31 13L26 13 Z M 33 10L38 10L38 13L33 13 Z M 40 10L45 10L45 13L40 13 Z M 0 17L0 19L1 19C2.65625 19 4 20.34375 4 22L4 35.84375C3.710938 35.871094 3.425781 35.90625 3.1875 35.90625C2.582031 35.90625 2.039063 35.8125 1.40625 35.8125C1.046875 35.808594 0.710938 35.996094 0.527344 36.308594C0.347656 36.621094 0.347656 37.003906 0.527344 37.316406C0.710938 37.628906 1.046875 37.816406 1.40625 37.8125C1.773438 37.8125 2.390625 37.90625 3.1875 37.90625C4.691406 37.90625 6.875 37.457031 8.6875 36.28125C10.503906 37.472656 12.675781 37.90625 14.1875 37.90625C15.691406 37.90625 17.875 37.457031 19.6875 36.28125C21.503906 37.472656 23.675781 37.90625 25.1875 37.90625C26.691406 37.90625 28.875 37.457031 30.6875 36.28125C32.503906 37.472656 34.675781 37.90625 36.1875 37.90625C37.691406 37.90625 39.875 37.457031 41.6875 36.28125C43.503906 37.472656 45.675781 37.90625 47.1875 37.90625C47.984375 37.90625 48.726563 37.789063 49.375 37.53125C49.894531 37.324219 50.144531 36.738281 49.9375 36.21875C49.730469 35.699219 49.144531 35.449219 48.625 35.65625C48.273438 35.796875 47.792969 35.90625 47.1875 35.90625C46.839844 35.90625 46.4375 35.875 46 35.8125L46 22C46 20.34375 47.34375 19 49 19L50 19L50 17L49 17C46.253906 17 44 19.253906 44 22L44 35.34375C43.382813 35.121094 42.808594 34.8125 42.34375 34.4375C41.972656 34.128906 41.433594 34.128906 41.0625 34.4375C40.5 34.894531 39.765625 35.234375 39 35.46875L39 22C39 19.253906 36.746094 17 34 17L16 17C13.253906 17 11 19.253906 11 22L11 35.34375C10.382813 35.121094 9.808594 34.8125 9.34375 34.4375C9.164063 34.277344 8.929688 34.1875 8.6875 34.1875C8.457031 34.195313 8.234375 34.285156 8.0625 34.4375C7.5 34.894531 6.765625 35.234375 6 35.46875L6 22C6 19.253906 3.746094 17 1 17 Z M 16 19L34 19C35.65625 19 37 20.34375 37 22L37 35.84375C36.710938 35.871094 36.425781 35.90625 36.1875 35.90625C34.867188 35.90625 32.640625 35.492188 31.34375 34.4375C30.972656 34.128906 30.433594 34.128906 30.0625 34.4375C28.765625 35.492188 26.507813 35.90625 25.1875 35.90625C23.867188 35.90625 21.640625 35.492188 20.34375 34.4375C19.972656 34.128906 19.433594 34.128906 19.0625 34.4375C17.765625 35.492188 15.507813 35.90625 14.1875 35.90625C13.839844 35.90625 13.4375 35.875 13 35.8125L13 22C13 20.34375 14.34375 19 16 19 Z M 8.59375 38.1875C8.394531 38.214844 8.210938 38.304688 8.0625 38.4375C6.765625 39.492188 4.507813 39.90625 3.1875 39.90625C2.582031 39.90625 2.039063 39.8125 1.40625 39.8125C1.046875 39.808594 0.710938 39.996094 0.527344 40.308594C0.347656 40.621094 0.347656 41.003906 0.527344 41.316406C0.710938 41.628906 1.046875 41.816406 1.40625 41.8125C1.773438 41.8125 2.390625 41.90625 3.1875 41.90625C4.691406 41.90625 6.875 41.457031 8.6875 40.28125C10.503906 41.472656 12.675781 41.90625 14.1875 41.90625C15.691406 41.90625 17.875 41.457031 19.6875 40.28125C21.503906 41.472656 23.675781 41.90625 25.1875 41.90625C26.691406 41.90625 28.875 41.457031 30.6875 40.28125C32.503906 41.472656 34.675781 41.90625 36.1875 41.90625C37.691406 41.90625 39.875 41.457031 41.6875 40.28125C43.503906 41.472656 45.675781 41.90625 47.1875 41.90625C47.984375 41.90625 48.726563 41.789063 49.375 41.53125C49.894531 41.324219 50.144531 40.738281 49.9375 40.21875C49.730469 39.699219 49.144531 39.449219 48.625 39.65625C48.273438 39.796875 47.792969 39.90625 47.1875 39.90625C45.867188 39.90625 43.640625 39.492188 42.34375 38.4375C41.972656 38.128906 41.433594 38.128906 41.0625 38.4375C39.765625 39.492188 37.507813 39.90625 36.1875 39.90625C34.867188 39.90625 32.640625 39.492188 31.34375 38.4375C30.972656 38.128906 30.433594 38.128906 30.0625 38.4375C28.765625 39.492188 26.507813 39.90625 25.1875 39.90625C23.867188 39.90625 21.640625 39.492188 20.34375 38.4375C19.972656 38.128906 19.433594 38.128906 19.0625 38.4375C17.765625 39.492188 15.507813 39.90625 14.1875 39.90625C12.867188 39.90625 10.640625 39.492188 9.34375 38.4375C9.164063 38.277344 8.929688 38.1875 8.6875 38.1875C8.65625 38.1875 8.625 38.1875 8.59375 38.1875Z" />
</svg>