<?xml version="1.0" encoding="utf-8"?>
<svg xmlns="http://www.w3.org/2000/svg" viewBox="0 0 50 50" width="515" height="515">
  <path d="M44.5 0C41.472656 0 39 2.472656 39 5.5C39 8.527344 41.472656 11 44.5 11C47.527344 11 50 8.527344 50 5.5C50 2.472656 47.527344 0 44.5 0 Z M 34.1875 1.34375C34.15625 1.351563 34.125 1.363281 34.09375 1.375C33.726563 1.453125 33.433594 1.726563 33.332031 2.089844C33.234375 2.453125 33.347656 2.839844 33.625 3.09375L35.59375 5L24 5C17.390625 5 13.082031 7.378906 10.5 10.0625C9.207031 11.402344 8.328125 12.808594 7.78125 14.03125C7.234375 15.253906 7 16.230469 7 17C7 17.019531 7 17.042969 7 17.0625C3.066406 17.5625 0 20.933594 0 25C0 29.066406 3.066406 32.4375 7 32.9375C7 32.957031 7 32.980469 7 33C7 33.769531 7.234375 34.746094 7.78125 35.96875C8.328125 37.191406 9.207031 38.597656 10.5 39.9375C13.082031 42.621094 17.390625 45 24 45L35.59375 45L33.625 46.90625C33.324219 47.140625 33.179688 47.527344 33.257813 47.902344C33.335938 48.273438 33.621094 48.574219 33.992188 48.667969C34.359375 48.761719 34.753906 48.636719 35 48.34375L38.6875 44.78125C39.082031 44.398438 39.09375 43.773438 38.71875 43.375L35.15625 39.6875C34.925781 39.4375 34.585938 39.316406 34.25 39.375C33.886719 39.441406 33.585938 39.703125 33.476563 40.058594C33.363281 40.414063 33.457031 40.800781 33.71875 41.0625L35.59375 43L24 43C17.859375 43 14.167969 40.878906 11.9375 38.5625C10.824219 37.402344 10.085938 36.183594 9.625 35.15625C9.164063 34.128906 9 33.230469 9 33C9 32.980469 9 32.957031 9 32.9375C11.902344 32.570313 14.332031 30.621094 15.40625 28C17.53125 28.035156 18.835938 28.316406 19.6875 28.6875C20.59375 29.082031 21.089844 29.582031 21.75 30.21875C22.410156 30.855469 23.242188 31.625 24.59375 32.15625C25.945313 32.6875 27.753906 33 30.53125 33L35.59375 33L33.71875 34.9375C33.425781 35.183594 33.300781 35.578125 33.394531 35.945313C33.488281 36.316406 33.789063 36.601563 34.160156 36.679688C34.535156 36.757813 34.921875 36.613281 35.15625 36.3125L38.71875 32.625C39.09375 32.226563 39.082031 31.601563 38.6875 31.21875L35 27.65625C34.8125 27.457031 34.554688 27.347656 34.28125 27.34375C34.21875 27.347656 34.15625 27.359375 34.09375 27.375C33.726563 27.453125 33.433594 27.726563 33.332031 28.089844C33.234375 28.453125 33.347656 28.839844 33.625 29.09375L35.59375 31L30.53125 31C27.910156 31 26.339844 30.6875 25.3125 30.28125C24.285156 29.875 23.761719 29.394531 23.125 28.78125C22.488281 28.167969 21.714844 27.417969 20.46875 26.875C19.390625 26.40625 17.953125 26.105469 15.9375 26.03125C15.980469 25.691406 16 25.351563 16 25C16 24.988281 16 24.980469 16 24.96875C17.980469 24.890625 19.402344 24.589844 20.46875 24.125C21.714844 23.582031 22.488281 22.832031 23.125 22.21875C23.761719 21.605469 24.285156 21.125 25.3125 20.71875C26.339844 20.3125 27.910156 20 30.53125 20L35.59375 20L33.71875 21.9375C33.425781 22.183594 33.300781 22.578125 33.394531 22.945313C33.488281 23.316406 33.789063 23.601563 34.160156 23.679688C34.535156 23.757813 34.921875 23.613281 35.15625 23.3125L38.71875 19.625C39.09375 19.226563 39.082031 18.601563 38.6875 18.21875L35 14.65625C34.8125 14.457031 34.554688 14.347656 34.28125 14.34375C34.21875 14.347656 34.15625 14.359375 34.09375 14.375C33.726563 14.453125 33.433594 14.726563 33.332031 15.089844C33.234375 15.453125 33.347656 15.839844 33.625 16.09375L35.59375 18L30.53125 18C27.753906 18 25.945313 18.3125 24.59375 18.84375C23.242188 19.375 22.410156 20.144531 21.75 20.78125C21.089844 21.417969 20.59375 21.917969 19.6875 22.3125C18.878906 22.664063 17.652344 22.914063 15.71875 22.96875C14.894531 19.863281 12.25 17.472656 9 17.0625C9 17.042969 9 17.019531 9 17C9 16.769531 9.164063 15.871094 9.625 14.84375C10.085938 13.816406 10.824219 12.597656 11.9375 11.4375C14.167969 9.121094 17.859375 7 24 7L35.59375 7L33.71875 8.9375C33.425781 9.183594 33.300781 9.578125 33.394531 9.945313C33.488281 10.316406 33.789063 10.601563 34.160156 10.679688C34.535156 10.757813 34.921875 10.613281 35.15625 10.3125L38.71875 6.625C39.09375 6.226563 39.082031 5.601563 38.6875 5.21875L35 1.65625C34.8125 1.457031 34.554688 1.347656 34.28125 1.34375C34.25 1.34375 34.21875 1.34375 34.1875 1.34375 Z M 44.5 2C46.445313 2 48 3.554688 48 5.5C48 7.445313 46.445313 9 44.5 9C42.554688 9 41 7.445313 41 5.5C41 3.554688 42.554688 2 44.5 2 Z M 44.5 13C41.472656 13 39 15.472656 39 18.5C39 21.527344 41.472656 24 44.5 24C47.527344 24 50 21.527344 50 18.5C50 15.472656 47.527344 13 44.5 13 Z M 44.5 15C46.445313 15 48 16.554688 48 18.5C48 20.445313 46.445313 22 44.5 22C42.554688 22 41 20.445313 41 18.5C41 16.554688 42.554688 15 44.5 15 Z M 8 19C11.324219 19 14 21.675781 14 25C14 28.324219 11.324219 31 8 31C4.675781 31 2 28.324219 2 25C2 21.675781 4.675781 19 8 19 Z M 44.5 26C41.472656 26 39 28.472656 39 31.5C39 34.527344 41.472656 37 44.5 37C47.527344 37 50 34.527344 50 31.5C50 28.472656 47.527344 26 44.5 26 Z M 44.5 28C46.445313 28 48 29.554688 48 31.5C48 33.445313 46.445313 35 44.5 35C42.554688 35 41 33.445313 41 31.5C41 29.554688 42.554688 28 44.5 28 Z M 44.5 39C41.472656 39 39 41.472656 39 44.5C39 47.527344 41.472656 50 44.5 50C47.527344 50 50 47.527344 50 44.5C50 41.472656 47.527344 39 44.5 39 Z M 44.5 41C46.445313 41 48 42.554688 48 44.5C48 46.445313 46.445313 48 44.5 48C42.554688 48 41 46.445313 41 44.5C41 42.554688 42.554688 41 44.5 41Z" />
</svg>