<?xml version="1.0" encoding="utf-8"?>
<svg xmlns="http://www.w3.org/2000/svg" viewBox="0 0 50 50" width="515" height="515">
  <path d="M15 7C7.8545455 7 2 12.854545 2 20C2 34.761905 18.678418 42.033447 24.359375 46.767578 A 1.0001 1.0001 0 0 0 25.640625 46.767578C31.321582 42.033447 48 34.761905 48 20C48 12.854545 42.145455 7 35 7C32.74127 7 30.668979 7.5431235 28.832031 8.515625 A 1.0001 1.0001 0 0 0 28.326172 9.1738281L27.025391 14.773438 A 1.0001 1.0001 0 0 0 28 16L30.222656 16L27.171875 23.628906 A 1.0001 1.0001 0 0 0 28.099609 25L28.900391 25L24.761719 31.664062L25.976562 26.21875 A 1.0001 1.0001 0 0 0 25 25L23.101562 25L25.746094 17.326172 A 1.0001 1.0001 0 0 0 24.800781 16L21.808594 16L22.882812 10.388672 A 1.0001 1.0001 0 0 0 22.494141 9.3945312C20.416845 7.8638927 17.805128 7 15 7 z M 15 9C17.177038 9 19.138101 9.6721984 20.779297 10.736328L19.617188 16.8125 A 1.0001 1.0001 0 0 0 20.599609 18L23.398438 18L20.753906 25.673828 A 1.0001 1.0001 0 0 0 21.699219 27L23.751953 27L21.523438 36.982422 A 1.0001 1.0001 0 0 0 23.349609 37.728516L31.548828 24.527344 A 1.0001 1.0001 0 0 0 30.699219 23L29.578125 23L32.628906 15.371094 A 1.0001 1.0001 0 0 0 31.699219 14L29.259766 14L30.15625 10.134766C31.620755 9.4263653 33.211056 9 35 9C41.054545 9 46 13.945455 46 20C46 32.887672 31.59915 39.572074 25 44.777344C18.40085 39.572074 4 32.887672 4 20C4 13.945455 8.9454545 9 15 9 z" />
</svg>