<?xml version="1.0" encoding="utf-8"?>
<svg xmlns="http://www.w3.org/2000/svg" viewBox="0 0 50 50" width="515" height="515">
  <path d="M4.8457031 6C3.2714548 6 2 7.3206244 2 8.8925781L2 43 A 1.0001 1.0001 0 0 0 3 44L47 44 A 1.0001 1.0001 0 0 0 48 43L48 8.8925781C48 7.3206244 46.728545 6 45.154297 6L4.8457031 6 z M 4.8457031 8L45.154297 8C45.620049 8 46 8.3745319 46 8.8925781L46 18L4 18L4 8.8925781C4 8.3745319 4.3799515 8 4.8457031 8 z M 19 10L19 11L19 16L43 16L43 10L19 10 z M 8 11 A 2 2 0 0 0 6 13 A 2 2 0 0 0 8 15 A 2 2 0 0 0 10 13 A 2 2 0 0 0 8 11 z M 14 11 A 2 2 0 0 0 12 13 A 2 2 0 0 0 14 15 A 2 2 0 0 0 16 13 A 2 2 0 0 0 14 11 z M 21 12L41 12L41 14L21 14L21 12 z M 4 20L46 20L46 42L4 42L4 20 z" />
</svg>