<?xml version="1.0" encoding="utf-8"?>
<svg xmlns="http://www.w3.org/2000/svg" viewBox="0 0 50 50" width="515" height="515">
  <path d="M41.375 0C41.34375 0.0078125 41.3125 0.0195313 41.28125 0.03125C34.683594 1.445313 31.953125 5.363281 30.8125 9.125C30.683594 9.554688 30.566406 9.988281 30.46875 10.40625L16.34375 5.0625C16.195313 5.003906 16.035156 4.984375 15.875 5C15.800781 5.011719 15.726563 5.035156 15.65625 5.0625L0.65625 10.75C0.261719 10.894531 0 11.269531 0 11.6875L0 49C0 49.550781 0.449219 50 1 50L31 50C31.238281 50.007813 31.46875 49.929688 31.65625 49.78125C32.03125 49.859375 32.28125 49.90625 32.28125 49.90625C32.710938 49.960938 33.125 49.734375 33.3125 49.339844C33.496094 48.949219 33.40625 48.484375 33.09375 48.1875C33.09375 48.1875 28.738281 43.621094 28.125 35.8125C28.515625 35.96875 29.003906 36.222656 29.34375 36.3125C30.152344 36.523438 30.90625 36.566406 31.5625 36.28125C32.21875 35.996094 32.609375 35.429688 32.84375 34.875C33.078125 34.320313 33.195313 33.734375 33.3125 33.125C33.546875 31.90625 33.792969 30.566406 34.46875 29.3125C34.902344 28.503906 35.636719 27.738281 36.59375 27.03125C35.773438 30.730469 35.585938 34.164063 36.34375 36.28125C36.574219 36.925781 36.878906 37.488281 37.375 37.90625C37.871094 38.324219 38.652344 38.496094 39.3125 38.3125C40.289063 38.039063 41.03125 37.144531 41.78125 35.9375C42.121094 36.628906 42.5 37.816406 42.5 40C42.5 41.75 41.667969 43.859375 40.78125 45.5C39.894531 47.140625 39 48.28125 39 48.28125C38.738281 48.613281 38.714844 49.070313 38.941406 49.429688C39.164063 49.785156 39.589844 49.964844 40 49.875C43.238281 49.195313 45.730469 46.6875 47.40625 43.53125C49.082031 40.375 50 36.527344 50 32.8125C50 29.433594 49.363281 25.332031 48.34375 21.53125C47.324219 17.730469 45.945313 14.253906 44.28125 12.09375C44.035156 11.777344 43.625 11.636719 43.234375 11.738281C42.847656 11.839844 42.558594 12.164063 42.5 12.5625C42.371094 13.542969 41.9375 14.785156 41.4375 15.5625C41.1875 15.953125 40.90625 16.234375 40.78125 16.3125C40.398438 16.074219 39.941406 15.363281 39.6875 14.21875C39.429688 13.054688 39.367188 11.535156 39.5 9.9375C39.761719 6.742188 40.867188 3.246094 42.25 1.65625C42.527344 1.34375 42.582031 0.894531 42.386719 0.523438C42.191406 0.15625 41.789063 -0.0546875 41.375 0 Z M 39.46875 2.71875C38.441406 4.816406 37.707031 7.265625 37.5 9.78125C37.355469 11.53125 37.429688 13.210938 37.75 14.65625C38.066406 16.085938 38.644531 17.351563 39.78125 18.03125L39.78125 18.0625C39.789063 18.066406 39.804688 18.058594 39.8125 18.0625C40.449219 18.4375 41.273438 18.328125 41.8125 18C42.359375 17.667969 42.773438 17.203125 43.125 16.65625C43.414063 16.207031 43.476563 15.621094 43.6875 15.09375C44.695313 16.941406 45.664063 19.273438 46.40625 22.03125C47.386719 25.683594 48 29.691406 48 32.8125C48 36.199219 47.152344 39.777344 45.65625 42.59375C44.796875 44.207031 43.738281 45.519531 42.53125 46.46875C43.496094 44.683594 44.5 42.351563 44.5 40C44.5 37.425781 44.015625 35.796875 43.46875 34.78125C43.195313 34.273438 42.902344 33.921875 42.65625 33.6875C42.410156 33.453125 42.15625 33.3125 42.15625 33.3125C41.664063 33.0625 41.0625 33.257813 40.8125 33.75C39.863281 35.625 38.964844 36.355469 38.78125 36.40625C38.691406 36.433594 38.777344 36.449219 38.6875 36.375C38.597656 36.300781 38.40625 36.03125 38.25 35.59375C37.625 33.84375 37.617188 29.652344 38.96875 25.3125C39.09375 24.933594 38.980469 24.515625 38.683594 24.25C38.382813 23.984375 37.957031 23.921875 37.59375 24.09375C35.066406 25.195313 33.550781 26.769531 32.6875 28.375C31.824219 29.980469 31.570313 31.578125 31.34375 32.75C31.230469 33.335938 31.117188 33.8125 31 34.09375C30.882813 34.375 30.828125 34.402344 30.75 34.4375C30.671875 34.472656 30.410156 34.523438 29.84375 34.375C29.277344 34.226563 28.472656 33.890625 27.375 33.3125C27.066406 33.148438 26.695313 33.15625 26.394531 33.335938C26.09375 33.515625 25.910156 33.839844 25.90625 34.1875C25.90625 40.15625 28.027344 44.390625 29.71875 46.9375C28.972656 46.628906 28.246094 46.390625 27.40625 45.8125C24.839844 44.042969 22.3125 40.953125 22.3125 35C22.3125 33.203125 23.207031 29.933594 23.90625 26.53125C24.460938 23.832031 24.878906 21.011719 24.4375 18.46875C24.929688 18.753906 25.457031 19.101563 26.03125 19.4375C26.640625 19.792969 27.339844 20.136719 28.1875 20.09375C29.023438 20.050781 29.835938 19.546875 30.46875 18.71875L30.5 18.71875C30.503906 18.710938 30.496094 18.695313 30.5 18.6875C31.332031 17.597656 31.546875 16.207031 31.78125 14.65625C32.019531 13.097656 32.214844 11.355469 32.71875 9.6875C33.582031 6.84375 35.308594 4.238281 39.46875 2.71875 Z M 16 7.0625L30.0625 12.40625C29.953125 13.078125 29.871094 13.75 29.78125 14.34375C29.550781 15.859375 29.261719 17.042969 28.90625 17.5C28.492188 18.050781 28.292969 18.082031 28.09375 18.09375C27.894531 18.105469 27.511719 18 27.03125 17.71875C26.070313 17.15625 24.820313 15.976563 23.03125 15.90625C22.742188 15.894531 22.464844 16.011719 22.269531 16.21875C22.070313 16.429688 21.972656 16.714844 22 17L19 17L19 23L22.46875 23C22.355469 24.019531 22.183594 25.074219 21.96875 26.125C21.90625 26.421875 21.847656 26.707031 21.78125 27L19 27L19 33L20.46875 33C20.359375 33.707031 20.3125 34.382813 20.3125 35C20.3125 35.695313 20.34375 36.363281 20.40625 37L19 37L19 43L22.25 43C23.363281 44.992188 24.8125 46.457031 26.28125 47.46875C26.570313 47.667969 26.867188 47.832031 27.15625 48L2 48L2 12.375 Z M 7 17L7 23L13 23L13 17 Z M 7 27L7 33L13 33L13 27 Z M 7 37L7 43L13 43L13 37Z" />
</svg>