<?xml version="1.0" encoding="utf-8"?>
<svg xmlns="http://www.w3.org/2000/svg" viewBox="0 0 50 50" width="515" height="515">
  <path d="M4 4C1.800781 4 0 5.800781 0 8C0 10.199219 1.800781 12 4 12C6.199219 12 8 10.199219 8 8C8 5.800781 6.199219 4 4 4 Z M 4 6C5.117188 6 6 6.882813 6 8C6 9.117188 5.117188 10 4 10C2.882813 10 2 9.117188 2 8C2 6.882813 2.882813 6 4 6 Z M 12 7L12 9L50 9L50 7 Z M 4 21C1.800781 21 0 22.800781 0 25C0 27.199219 1.800781 29 4 29C6.199219 29 8 27.199219 8 25C8 22.800781 6.199219 21 4 21 Z M 4 23C5.117188 23 6 23.882813 6 25C6 26.117188 5.117188 27 4 27C2.882813 27 2 26.117188 2 25C2 23.882813 2.882813 23 4 23 Z M 12 24L12 26L50 26L50 24 Z M 4 38C1.800781 38 0 39.800781 0 42C0 44.199219 1.800781 46 4 46C6.199219 46 8 44.199219 8 42C8 39.800781 6.199219 38 4 38 Z M 4 40C5.117188 40 6 40.882813 6 42C6 43.117188 5.117188 44 4 44C2.882813 44 2 43.117188 2 42C2 40.882813 2.882813 40 4 40 Z M 12 41L12 43L50 43L50 41Z" />
</svg>