<?xml version="1.0" encoding="utf-8"?>
<svg xmlns="http://www.w3.org/2000/svg" viewBox="0 0 50 50" width="515" height="515">
  <path d="M2 2 A 1.0001 1.0001 0 0 0 1.8886719 2.0058594 A 2 2 0 0 0 2 6 A 2 2 0 0 0 3.9980469 4L9.4003906 4C10.458724 4 11.767202 5.0610893 12.033203 6.0585938L14.488281 15.990234 A 1.0001 1.0001 0 0 0 14.607422 16.476562L20.529297 40.441406L20.529297 40.443359C20.854904 41.74576 21.733039 42.821131 22.882812 43.4375C22.290554 44.180891 22 45.092802 22 46C22 46.972222 22.318681 47.957881 23.001953 48.726562C23.685226 49.495244 24.75 50 26 50C27.25 50 28.314774 49.495245 28.998047 48.726562C29.681319 47.957881 30 46.972222 30 46C30 45.311722 29.831818 44.619993 29.496094 44L35.503906 44C35.168182 44.619993 35 45.311722 35 46C35 46.972222 35.318681 47.957881 36.001953 48.726562C36.685226 49.495244 37.75 50 39 50C40.25 50 41.314774 49.495245 41.998047 48.726562C42.681319 47.957881 43 46.972222 43 46C43 45.027778 42.681319 44.042119 41.998047 43.273438C41.992905 43.267653 41.985654 43.263567 41.980469 43.257812 A 1.0001 1.0001 0 0 0 41 42L39 42L26 42L25.099609 42C23.870198 42 22.756569 41.100494 22.470703 39.957031L21.492188 36L40 36 A 1.0001 1.0001 0 0 0 40.9375 35.345703L47.9375 16.345703 A 1.0001 1.0001 0 0 0 47 15L16.302734 15L13.96875 5.5507812L13.966797 5.5429688C13.432845 3.5404706 11.542057 2 9.4003906 2L2 2 z M 16.798828 17L45.566406 17L39.302734 34L20.998047 34L16.798828 17 z M 26 44C26.749999 44 27.185226 44.245245 27.501953 44.601562C27.81868 44.957881 28 45.472222 28 46C28 46.527778 27.81868 47.042119 27.501953 47.398438C27.185226 47.754756 26.749999 48 26 48C25.250001 48 24.814774 47.754755 24.498047 47.398438C24.18132 47.042119 24 46.527778 24 46C24 45.472222 24.18132 44.957881 24.498047 44.601562C24.814774 44.245244 25.250001 44 26 44 z M 39 44C39.749999 44 40.185226 44.245245 40.501953 44.601562C40.81868 44.957881 41 45.472222 41 46C41 46.527778 40.81868 47.042119 40.501953 47.398438C40.185226 47.754756 39.749999 48 39 48C38.250001 48 37.814774 47.754755 37.498047 47.398438C37.18132 47.042119 37 46.527778 37 46C37 45.472222 37.18132 44.957881 37.498047 44.601562C37.814774 44.245244 38.250001 44 39 44 z" />
</svg>