<?xml version="1.0" encoding="utf-8"?>
<svg xmlns="http://www.w3.org/2000/svg" viewBox="0 0 50 50" width="515" height="515">
  <path d="M25 2C24.285156 2 23.574219 2.179688 22.933594 2.539063L6.089844 12.003906C4.808594 12.726563 4 14.074219 4 15.535156L4 34.464844C4 35.929688 4.808594 37.277344 6.089844 38L22.933594 47.460938C24.214844 48.183594 25.785156 48.183594 27.066406 47.460938L43.910156 38C45.195313 37.277344 46 35.925781 46 34.464844L46 15.535156C46 14.074219 45.191406 12.726563 43.910156 12.003906L27.066406 2.539063C26.425781 2.179688 25.714844 2 25 2 Z M 25 4C25.375 4 25.753906 4.09375 26.089844 4.28125L42.933594 13.746094C43.601563 14.125 44 14.804688 44 15.535156L44 34.464844C44 35.195313 43.601563 35.875 42.929688 36.253906L26.089844 45.71875C25.417969 46.09375 24.582031 46.09375 23.910156 45.71875L7.070313 36.253906C6.398438 35.875 6 35.199219 6 34.464844L6 15.535156C6 14.804688 6.398438 14.125 7.070313 13.746094L23.910156 4.28125C24.246094 4.09375 24.625 4 25 4 Z M 25 12C17.839844 12 12 17.839844 12 25C12 32.160156 17.839844 38 25 38C29.089844 38 32.886719 36.09375 35.339844 32.863281L36.023438 31.960938L29.96875 28.453125L29.421875 29.046875C28.292969 30.28125 26.691406 31 25 31C21.683594 31 19 28.316406 19 25C19 21.683594 21.683594 19 25 19C26.691406 19 28.292969 19.71875 29.421875 20.953125L29.96875 21.546875L36.023438 18.039063L35.339844 17.136719C32.886719 13.90625 29.089844 12 25 12 Z M 25 14C28.074219 14 30.886719 15.316406 32.945313 17.511719L30.203125 19.097656C28.757813 17.832031 26.960938 17 25 17C20.597656 17 17 20.597656 17 25C17 29.402344 20.597656 33 25 33C26.960938 33 28.757813 32.167969 30.203125 30.902344L32.945313 32.488281C30.886719 34.683594 28.074219 36 25 36C18.925781 36 14 31.074219 14 25C14 18.925781 18.925781 14 25 14 Z M 35 20L35 22L33 22L33 24L35 24L35 26L33 26L33 28L35 28L35 30L37 30L37 28L39 28L39 30L41 30L41 28L43 28L43 26L41 26L41 24L43 24L43 22L41 22L41 20L39 20L39 22L37 22L37 20 Z M 37 24L39 24L39 26L37 26Z" />
</svg>