<?xml version="1.0" encoding="utf-8"?>
<svg xmlns="http://www.w3.org/2000/svg" viewBox="0 0 50 50" width="515" height="515">
  <path d="M11 4C9.3545455 4 8 5.3545455 8 7L8 43C8 44.645455 9.3545455 46 11 46L39 46C40.645455 46 42 44.645455 42 43L42 7C42 5.3545455 40.645455 4 39 4L11 4 z M 11 6L39 6C39.554545 6 40 6.4454545 40 7L40 43C40 43.554545 39.554545 44 39 44L11 44C10.445455 44 10 43.554545 10 43L10 7C10 6.4454545 10.445455 6 11 6 z M 12 8L12 9L12 18L38 18L38 8L12 8 z M 14 10L36 10L36 16L14 16L14 10 z M 24 12L24 14L26 14L26 12L24 12 z M 28 12L28 14L30 14L30 12L28 12 z M 32 12L32 14L34 14L34 12L32 12 z M 13 22 A 1.0001 1.0001 0 0 0 12 23L12 41 A 1.0001 1.0001 0 0 0 13 42L37 42 A 1.0001 1.0001 0 0 0 38 41L38 23 A 1.0001 1.0001 0 0 0 37 22L13 22 z M 14 24L18 24L18 28L14 28L14 24 z M 20 24L24 24L24 28L20 28L20 24 z M 26 24L30 24L30 28L26 28L26 24 z M 32 24L36 24L36 28L32 28L32 24 z M 14 30L18 30L18 34L14 34L14 30 z M 20 30L24 30L24 34L20 34L20 30 z M 26 30L30 30L30 34L26 34L26 30 z M 32 30L36 30L36 34L32 34L32 30 z M 14 36L18 36L18 40L14 40L14 36 z M 20 36L24 36L24 40L20 40L20 36 z M 26 36L30 36L30 40L26 40L26 36 z M 32 36L36 36L36 40L32 40L32 36 z" />
</svg>