<?xml version="1.0" encoding="utf-8"?>
<svg xmlns="http://www.w3.org/2000/svg" viewBox="0 0 50 50" width="515" height="515">
  <path d="M12 0C10.90625 0 10 0.90625 10 2L10 4L4 4C3.59375 4 3.148438 4.0625 2.722656 4.359375C2.296875 4.65625 2 5.246094 2 5.792969L2 46.042969C2 46.542969 2.171875 47.054688 2.53125 47.425781C2.886719 47.800781 3.410156 48 3.917969 48L46.082031 48C46.589844 48 47.113281 47.800781 47.46875 47.425781C47.828125 47.054688 48 46.542969 48 46.042969L48 5.792969C48 5.246094 47.703125 4.65625 47.277344 4.359375C46.851563 4.0625 46.40625 4 46 4L40 4L40 2C40 0.90625 39.09375 0 38 0L36 0C34.90625 0 34 0.90625 34 2L34 4L16 4L16 2C16 0.90625 15.09375 0 14 0 Z M 12 2L14 2L14 8L12 8 Z M 36 2L38 2L38 8L36 8 Z M 4 6L10 6L10 8C10 9.09375 10.90625 10 12 10L14 10C15.09375 10 16 9.09375 16 8L16 6L34 6L34 8C34 9.09375 34.90625 10 36 10L38 10C39.09375 10 40 9.09375 40 8L40 6L46 6L46 13L4 13 Z M 4 15L46 15L46 46L4 46 Z M 24.625 23.425781C24.554688 23.808594 24.402344 24.132813 24.167969 24.398438C23.933594 24.664063 23.648438 24.878906 23.320313 25.046875C22.992188 25.214844 22.621094 25.335938 22.214844 25.40625C21.808594 25.476563 21.386719 25.515625 20.953125 25.515625L20.953125 27.136719L24.050781 27.136719L24.050781 36.027344L26.300781 36.027344L26.300781 23.425781Z" />
</svg>