<?xml version="1.0" encoding="utf-8"?>
<svg xmlns="http://www.w3.org/2000/svg" viewBox="0 0 50 50" width="515" height="515">
  <path d="M12 0C10.898438 0 10 0.898438 10 2L10 4L4 4C2.839844 4 2 4.839844 2 6L2 46C2 47.160156 2.839844 48 4 48L31.078125 48C30.527344 47.386719 30.039063 46.71875 29.625 46L4 46L4 15L46 15L46 29.625C46.71875 30.039063 47.386719 30.53125 48 31.082031L48 6C48 4.839844 47.160156 4 46 4L40 4L40 2C40 0.898438 39.101563 0 38 0L36 0C34.898438 0 34 0.898438 34 2L34 4L16 4L16 2C16 0.898438 15.101563 0 14 0 Z M 12 2L14 2L14 8L12 8 Z M 36 2L38 2L38 8L36 8 Z M 4 6L10 6L10 8C10 9.101563 10.898438 10 12 10L14 10C15.101563 10 16 9.101563 16 8L16 6L34 6L34 8C34 9.101563 34.898438 10 36 10L38 10C39.101563 10 40 9.101563 40 8L40 6L46 6L46 13L4 13 Z M 10 19L10 42L28.183594 42C28.070313 41.347656 28 40.683594 28 40L26 40L26 35L29.105469 35C29.429688 34.292969 29.824219 33.625 30.273438 33L26 33L26 28L31 28L31 32.089844C31.597656 31.410156 32.265625 30.800781 33 30.273438L33 28L40 28L40 19 Z M 12 21L17 21L17 26L12 26 Z M 19 21L24 21L24 26L19 26 Z M 26 21L31 21L31 26L26 26 Z M 33 21L38 21L38 26L33 26 Z M 12 28L17 28L17 33L12 33 Z M 19 28L24 28L24 33L19 33 Z M 40 30C34.484375 30 30 34.484375 30 40C30 45.515625 34.484375 50 40 50C45.515625 50 50 45.515625 50 40C50 34.484375 45.515625 30 40 30 Z M 40 32C44.410156 32 48 35.589844 48 40C48 44.410156 44.410156 48 40 48C35.589844 48 32 44.410156 32 40C32 35.589844 35.589844 32 40 32 Z M 40 34.097656C39.398438 34.097656 39 34.5 39 35.097656L39 39L35.097656 39C34.5 39 34.097656 39.398438 34.097656 40C34.097656 40.601563 34.5 41 35.097656 41L39 41L39 44.902344C39 45.5 39.398438 45.902344 40 45.902344C40.601563 45.902344 41 45.5 41 44.902344L41 41L44.902344 41C45.5 41 45.902344 40.601563 45.902344 40C45.902344 39.398438 45.5 39 44.902344 39L41 39L41 35.097656C41 34.5 40.601563 34.097656 40 34.097656 Z M 12 35L17 35L17 40L12 40 Z M 19 35L24 35L24 40L19 40Z" />
</svg>