<?xml version="1.0" encoding="utf-8"?>
<svg xmlns="http://www.w3.org/2000/svg" viewBox="0 0 50 50" width="515" height="515">
  <path d="M17 7C16.179688 7 15.609375 7.492188 15.191406 7.960938C14.777344 8.433594 14.449219 8.96875 14.136719 9.46875C13.820313 9.96875 13.519531 10.4375 13.277344 10.71875C13.03125 11 12.914063 11 13 11L4 11C2.355469 11 1 12.355469 1 14L1 40C1 41.644531 2.355469 43 4 43L46 43C47.644531 43 49 41.644531 49 40L49 14C49 12.355469 47.644531 11 46 11L37 11C37.085938 11 36.96875 11 36.722656 10.71875C36.480469 10.4375 36.179688 9.96875 35.863281 9.46875C35.550781 8.96875 35.222656 8.433594 34.808594 7.960938C34.390625 7.492188 33.820313 7 33 7 Z M 17 9L33 9C32.9375 9 33.0625 9.007813 33.308594 9.289063C33.554688 9.566406 33.855469 10.03125 34.171875 10.53125C34.484375 11.03125 34.804688 11.5625 35.214844 12.03125C35.621094 12.5 36.179688 13 37 13L46 13C46.5625 13 47 13.4375 47 14L47 40C47 40.5625 46.5625 41 46 41L4 41C3.4375 41 3 40.5625 3 40L3 14C3 13.4375 3.4375 13 4 13L13 13C13.820313 13 14.378906 12.5 14.785156 12.03125C15.195313 11.5625 15.515625 11.03125 15.828125 10.53125C16.144531 10.03125 16.445313 9.566406 16.691406 9.289063C16.9375 9.007813 17.0625 9 17 9 Z M 25 17C19.484375 17 15 21.484375 15 27C15 32.515625 19.484375 37 25 37C30.515625 37 35 32.515625 35 27C35 21.484375 30.515625 17 25 17 Z M 25 19C29.410156 19 33 22.589844 33 27C33 31.410156 29.410156 35 25 35C20.589844 35 17 31.410156 17 27C17 22.589844 20.589844 19 25 19 Z M 25 21C25 21 23.789063 24.210938 23 25C22.210938 25.789063 19 27 19 27C19 27 22.210938 28.210938 23 29C23.789063 29.789063 25 33 25 33C25 33 26.210938 29.789063 27 29C27.789063 28.210938 31 27 31 27C31 27 27.789063 25.789063 27 25C26.210938 24.210938 25 21 25 21Z" />
</svg>