<?xml version="1.0" encoding="utf-8"?>
<svg xmlns="http://www.w3.org/2000/svg" viewBox="0 0 50 50" width="515" height="515">
  <path d="M14.023438 5.992188C13.574219 5.988281 13.175781 6.285156 13.050781 6.71875C13.050781 6.71875 13.050781 6.71875 13.046875 6.71875L0.101563 33.382813C-0.0273438 33.644531 -0.0351563 33.953125 0.0820313 34.21875C0.199219 34.488281 0.429688 34.691406 0.710938 34.777344C0.710938 34.777344 6.480469 36.53125 7.84375 36.972656C8.296875 37.117188 8.785156 36.929688 9.023438 36.515625C10.835938 33.316406 12.078125 29.785156 12.941406 27.046875C13.742188 30.382813 15.066406 35.335938 17.417969 39.949219C17.535156 40.183594 17.742188 40.363281 17.996094 40.445313C19.570313 40.960938 28.113281 43.761719 28.46875 43.878906C28.710938 44.015625 29 44.046875 29.265625 43.964844C29.273438 43.964844 29.277344 43.960938 29.28125 43.960938C29.292969 43.957031 29.304688 43.953125 29.316406 43.949219C29.320313 43.949219 29.324219 43.945313 29.328125 43.941406L29.375 43.925781L49.328125 36.941406C49.589844 36.851563 49.800781 36.660156 49.914063 36.40625C50.023438 36.15625 50.027344 35.871094 49.921875 35.617188L37.921875 6.617188C37.820313 6.367188 37.621094 6.171875 37.367188 6.070313C37.117188 5.972656 36.835938 5.976563 36.589844 6.085938C36.164063 6.277344 34.820313 6.628906 33.109375 6.898438C31.398438 7.164063 29.265625 7.386719 27.011719 7.488281C22.503906 7.691406 17.472656 7.359375 14.410156 6.078125C14.40625 6.074219 14.398438 6.074219 14.390625 6.070313C14.367188 6.058594 14.34375 6.050781 14.316406 6.042969C14.3125 6.039063 14.304688 6.039063 14.296875 6.039063C14.292969 6.035156 14.289063 6.035156 14.28125 6.03125C14.199219 6.007813 14.113281 5.996094 14.023438 5.992188 Z M 36.394531 8.15625L47.671875 35.40625L29.5625 41.746094L15.78125 8.621094C19.15625 9.507813 23.292969 9.65625 27.101563 9.484375C29.429688 9.382813 31.625 9.152344 33.417969 8.875C34.753906 8.664063 35.574219 8.414063 36.394531 8.15625 Z M 13.953125 9.433594L27.238281 41.371094C25.015625 40.640625 20.71875 39.234375 19.046875 38.6875C15.949219 32.40625 14.035156 23.070313 14.035156 23.070313C13.945313 22.613281 13.550781 22.28125 13.085938 22.265625C12.621094 22.253906 12.207031 22.558594 12.089844 23.011719C12.089844 23.011719 10.140625 29.972656 7.589844 34.800781C5.894531 34.273438 3.523438 33.546875 2.410156 33.207031Z" />
</svg>