<?xml version="1.0" encoding="utf-8"?>
<svg xmlns="http://www.w3.org/2000/svg" viewBox="0 0 50 50" width="515" height="515">
  <path d="M25 0C25 0 19.398438 5.492188 19.5 19.59375L19.5 20.40625C12.699219 11.507813 4 9 4 9C4 9 4.292969 18.269531 10.65625 27.75C4.085938 26.058594 0 27.90625 0 27.90625C0 27.90625 2.707031 34.601563 11.40625 37.5C9.007813 38.898438 7.601563 40.398438 7.5 40.5L5 43C6.703125 43.546875 7.753906 44 14 44C15.699219 44 16.9375 43.804688 18.4375 43.40625C20.835938 42.765625 22.699219 41.988281 24.0625 41.09375C24.394531 46.0625 26.125 49.46875 26.125 49.46875C26.265625 49.828125 26.597656 50.078125 26.984375 50.105469C27.371094 50.132813 27.738281 49.9375 27.929688 49.601563C28.117188 49.261719 28.097656 48.847656 27.875 48.53125C27.875 48.53125 26.417969 45.617188 26.09375 41.1875C27.441406 42.039063 29.253906 42.792969 31.5625 43.40625C33.0625 43.804688 34.300781 44 36 44C42.246094 44 43.296875 43.546875 45 43L42.5 40.5C42.398438 40.398438 40.992188 38.898438 38.59375 37.5C47.292969 34.601563 50 27.90625 50 27.90625C50 27.90625 45.914063 26.058594 39.34375 27.75C45.707031 18.269531 46 9 46 9C46 9 37.300781 11.507813 30.5 20.40625L30.5 19.59375C30.601563 5.492188 25 0 25 0 Z M 25 3.3125C25 3.3125 28.5 9.789063 28.5 19.6875C28.5 21.667969 28.324219 23.457031 28.125 25.25C27.921875 26.75 27.671875 28.179688 27.40625 29.5C27.839844 28.484375 28.386719 27.429688 29 26.34375C29.683594 25.140625 30.5625 24.03125 31.40625 22.8125C36.507813 15.8125 43.90625 12.09375 43.90625 12.09375C43.90625 12.09375 42.402344 20.085938 37.3125 27.09375C36.835938 27.746094 36.324219 28.386719 35.8125 29C35.285156 29.621094 34.773438 30.167969 34.28125 30.6875C34.097656 30.882813 33.933594 31.097656 33.75 31.28125C33.507813 31.523438 33.257813 31.761719 33 32C33.898438 31.5 34.398438 31.304688 35.5 30.90625C35.820313 30.769531 36.125 30.648438 36.4375 30.53125C36.515625 30.5 36.609375 30.46875 36.6875 30.4375C42.292969 28.421875 46.40625 29.3125 46.40625 29.3125C46.40625 29.3125 43.613281 33.605469 37.3125 35.90625C35.414063 36.605469 33.511719 37.011719 31.8125 37.3125C32.3125 37.3125 32.90625 37.492188 33.40625 37.59375C37.804688 38.792969 41.0625 41.8125 41.0625 41.8125C40.515625 41.96875 39.234375 42 38.09375 42L36 42C34.699219 42 33.84375 41.898438 32.34375 41.5C28.609375 40.445313 25.671875 38.730469 25 38C24.328125 38.730469 21.390625 40.445313 17.65625 41.5C16.15625 41.898438 15.300781 42 14 42L11.90625 42C10.765625 42 9.515625 41.96875 8.96875 41.8125C8.96875 41.8125 12.195313 38.792969 16.59375 37.59375C17.09375 37.492188 17.6875 37.3125 18.1875 37.3125C16.488281 37.011719 14.585938 36.605469 12.6875 35.90625C6.386719 33.605469 3.59375 29.3125 3.59375 29.3125C3.59375 29.3125 7.707031 28.421875 13.3125 30.4375C13.390625 30.46875 13.484375 30.5 13.5625 30.53125C13.875 30.648438 14.179688 30.773438 14.5 30.90625C15.601563 31.304688 16.101563 31.5 17 32C16.742188 31.761719 16.492188 31.523438 16.25 31.28125C16.066406 31.097656 15.902344 30.882813 15.71875 30.6875C15.226563 30.167969 14.714844 29.621094 14.1875 29C13.675781 28.386719 13.164063 27.746094 12.6875 27.09375C7.597656 20.085938 6.09375 12.09375 6.09375 12.09375C6.09375 12.09375 13.492188 15.8125 18.59375 22.8125C19.4375 24.03125 20.316406 25.140625 21 26.34375C21.613281 27.429688 22.160156 28.484375 22.59375 29.5C22.328125 28.179688 22.078125 26.75 21.875 25.25C21.675781 23.457031 21.5 21.667969 21.5 19.6875C21.5 9.789063 25 3.3125 25 3.3125Z" />
</svg>