<?xml version="1.0" encoding="utf-8"?>
<svg xmlns="http://www.w3.org/2000/svg" viewBox="0 0 50 50" width="515" height="515">
  <path d="M1 7L1 12.927734L0.009765625 19.859375 A 1.0001 1.0001 0 0 0 0 20C0 21.638502 0.80935817 23.086591 2.0371094 24L2 24L2 44L4 44L4 24.898438C4.3235067 24.964842 4.6576374 25 5 25C6.6385018 25 8.0865911 24.190642 9 22.962891C9.9134089 24.190642 11.361498 25 13 25C14.638502 25 16.086591 24.190642 17 22.962891C17.913409 24.190642 19.361498 25 21 25C22.638502 25 24.086591 24.190642 25 22.962891C25.913409 24.190642 27.361498 25 29 25C30.638502 25 32.086591 24.190642 33 22.962891C33.913409 24.190642 35.361498 25 37 25C38.638502 25 40.086591 24.190642 41 22.962891C41.913409 24.190642 43.361498 25 45 25C45.342363 25 45.676493 24.964842 46 24.898438L46 44L48 44L48 24L47.962891 24C49.190642 23.086591 50 21.638502 50 20 A 1.0001 1.0001 0 0 0 49.990234 19.859375L49 12.927734L49 7L1 7 z M 3 9L47 9L47 12L3 12L3 9 z M 2.8671875 14L47.132812 14L47.992188 20.019531C47.980077 21.677288 46.660848 23 45 23C43.331516 23 42 21.668484 42 20 A 1.0001 1.0001 0 0 0 40.001953 19.929688 A 1.0001 1.0001 0 0 0 40 20C40 21.668484 38.668484 23 37 23C35.331516 23 34 21.668484 34 20 A 1.0001 1.0001 0 0 0 33.773438 19.351562 A 1.0001 1.0001 0 0 0 33.707031 19.279297 A 1.0001 1.0001 0 0 0 33.466797 19.101562 A 1.0001 1.0001 0 0 0 33.464844 19.101562 A 1.0001 1.0001 0 0 0 33.375 19.058594 A 1.0001 1.0001 0 0 0 33.083984 18.990234 A 1.0001 1.0001 0 0 0 32.984375 18.986328 A 1.0001 1.0001 0 0 0 32.689453 19.035156 A 1.0001 1.0001 0 0 0 32.597656 19.070312 A 1.0001 1.0001 0 0 0 32.595703 19.072266 A 1.0001 1.0001 0 0 0 32.455078 19.148438 A 1.0001 1.0001 0 0 0 32.388672 19.197266 A 1.0001 1.0001 0 0 0 32.271484 19.300781 A 1.0001 1.0001 0 0 0 32.150391 19.458984 A 1.0001 1.0001 0 0 0 32.101562 19.544922 A 1.0001 1.0001 0 0 0 32.101562 19.546875 A 1.0001 1.0001 0 0 0 32.0625 19.636719 A 1.0001 1.0001 0 0 0 32.0625 19.638672 A 1.0001 1.0001 0 0 0 32.033203 19.732422 A 1.0001 1.0001 0 0 0 32.033203 19.734375 A 1.0001 1.0001 0 0 0 32.011719 19.830078 A 1.0001 1.0001 0 0 0 32.011719 19.832031 A 1.0001 1.0001 0 0 0 32.001953 19.929688 A 1.0001 1.0001 0 0 0 32.001953 19.931641 A 1.0001 1.0001 0 0 0 32 20C32 21.668484 30.668484 23 29 23C27.331516 23 26 21.668484 26 20 A 1.0001 1.0001 0 0 0 25.996094 19.900391 A 1.0001 1.0001 0 0 0 25.773438 19.353516 A 1.0001 1.0001 0 0 0 25.773438 19.351562 A 1.0001 1.0001 0 0 0 25.464844 19.101562 A 1.0001 1.0001 0 0 0 25.375 19.058594 A 1.0001 1.0001 0 0 0 25.083984 18.990234 A 1.0001 1.0001 0 0 0 24.884766 18.992188 A 1.0001 1.0001 0 0 0 24.785156 19.009766 A 1.0001 1.0001 0 0 0 24.597656 19.070312 A 1.0001 1.0001 0 0 0 24.595703 19.072266 A 1.0001 1.0001 0 0 0 24.455078 19.148438 A 1.0001 1.0001 0 0 0 24.388672 19.197266 A 1.0001 1.0001 0 0 0 24.271484 19.300781 A 1.0001 1.0001 0 0 0 24.101562 19.544922 A 1.0001 1.0001 0 0 0 24.101562 19.546875 A 1.0001 1.0001 0 0 0 24.0625 19.636719 A 1.0001 1.0001 0 0 0 24.0625 19.638672 A 1.0001 1.0001 0 0 0 24.033203 19.732422 A 1.0001 1.0001 0 0 0 24.033203 19.734375 A 1.0001 1.0001 0 0 0 24.011719 19.830078 A 1.0001 1.0001 0 0 0 24.011719 19.832031 A 1.0001 1.0001 0 0 0 24.001953 19.929688 A 1.0001 1.0001 0 0 0 24.001953 19.931641 A 1.0001 1.0001 0 0 0 24 20C24 21.668484 22.668484 23 21 23C19.331516 23 18 21.668484 18 20 A 1.0001 1.0001 0 0 0 17.773438 19.351562 A 1.0001 1.0001 0 0 0 17.707031 19.279297 A 1.0001 1.0001 0 0 0 17.466797 19.101562 A 1.0001 1.0001 0 0 0 17.464844 19.101562 A 1.0001 1.0001 0 0 0 17.375 19.058594 A 1.0001 1.0001 0 0 0 17.083984 18.990234 A 1.0001 1.0001 0 0 0 16.984375 18.986328 A 1.0001 1.0001 0 0 0 16.689453 19.035156 A 1.0001 1.0001 0 0 0 16.597656 19.070312 A 1.0001 1.0001 0 0 0 16.595703 19.072266 A 1.0001 1.0001 0 0 0 16.455078 19.148438 A 1.0001 1.0001 0 0 0 16.388672 19.197266 A 1.0001 1.0001 0 0 0 16.271484 19.300781 A 1.0001 1.0001 0 0 0 16.150391 19.458984 A 1.0001 1.0001 0 0 0 16.101562 19.544922 A 1.0001 1.0001 0 0 0 16.101562 19.546875 A 1.0001 1.0001 0 0 0 16.0625 19.636719 A 1.0001 1.0001 0 0 0 16.0625 19.638672 A 1.0001 1.0001 0 0 0 16.033203 19.732422 A 1.0001 1.0001 0 0 0 16.033203 19.734375 A 1.0001 1.0001 0 0 0 16.011719 19.830078 A 1.0001 1.0001 0 0 0 16.011719 19.832031 A 1.0001 1.0001 0 0 0 16.001953 19.929688 A 1.0001 1.0001 0 0 0 16.001953 19.931641 A 1.0001 1.0001 0 0 0 16 20C16 21.668484 14.668484 23 13 23C11.331516 23 10 21.668484 10 20 A 1.0001 1.0001 0 0 0 9.7734375 19.351562 A 1.0001 1.0001 0 0 0 9.7070312 19.279297 A 1.0001 1.0001 0 0 0 9.4667969 19.101562 A 1.0001 1.0001 0 0 0 9.4648438 19.101562 A 1.0001 1.0001 0 0 0 9.375 19.058594 A 1.0001 1.0001 0 0 0 9.0839844 18.990234 A 1.0001 1.0001 0 0 0 8.984375 18.986328 A 1.0001 1.0001 0 0 0 8.7851562 19.009766 A 1.0001 1.0001 0 0 0 8.6894531 19.035156 A 1.0001 1.0001 0 0 0 8.5976562 19.070312 A 1.0001 1.0001 0 0 0 8.5957031 19.072266 A 1.0001 1.0001 0 0 0 8.4550781 19.148438 A 1.0001 1.0001 0 0 0 8.421875 19.169922 A 1.0001 1.0001 0 0 0 8.3886719 19.197266 A 1.0001 1.0001 0 0 0 8.2714844 19.300781 A 1.0001 1.0001 0 0 0 8.1503906 19.458984 A 1.0001 1.0001 0 0 0 8.1015625 19.544922 A 1.0001 1.0001 0 0 0 8.1015625 19.546875 A 1.0001 1.0001 0 0 0 8.0625 19.636719 A 1.0001 1.0001 0 0 0 8.0625 19.638672 A 1.0001 1.0001 0 0 0 8.0332031 19.732422 A 1.0001 1.0001 0 0 0 8.0332031 19.734375 A 1.0001 1.0001 0 0 0 8.0117188 19.830078 A 1.0001 1.0001 0 0 0 8.0117188 19.832031 A 1.0001 1.0001 0 0 0 8.0019531 19.929688 A 1.0001 1.0001 0 0 0 8.0019531 19.931641 A 1.0001 1.0001 0 0 0 8 20C8 21.668484 6.6684839 23 5 23C3.339152 23 2.0199235 21.677288 2.0078125 20.019531L2.8671875 14 z M 14.998047 28.998047C13.476023 28.998047 12.460412 29.110079 11.798828 29.230469C11.137244 29.350859 10.730469 29.529297 10.730469 29.529297L10.839844 29.482422C10.21817 29.698346 9.0457314 29.998792 8.453125 31.171875C8.2994673 31.47565 8.1627581 31.852021 7.9277344 32.460938C7.6924052 33.070645 7.4071233 33.824982 7.1308594 34.5625C6.5783316 36.037536 6.0625 37.441406 6.0625 37.441406L6 37.609375L6 41.203125L6 43C6 43.552 6.448 44 7 44L10 44L10.333984 43L19.666016 43L20 44L23 44C23.552 44 24 43.552 24 43L24 41.205078L24 37.605469L23.935547 37.435547C23.935547 37.435547 23.426995 36.084647 22.875 34.632812C22.323002 33.180979 21.755717 31.689544 21.541016 31.193359C20.975058 29.8847 19.676055 29.63126 19.107422 29.466797L19.265625 29.529297C19.265625 29.529297 18.860803 29.350859 18.199219 29.230469C17.537635 29.110079 16.520071 28.998047 14.998047 28.998047 z M 34.998047 28.998047C33.476023 28.998047 32.460412 29.110079 31.798828 29.230469C31.137244 29.350859 30.730469 29.529297 30.730469 29.529297L30.839844 29.482422C30.21817 29.698351 29.045731 29.998792 28.453125 31.171875C28.299467 31.47565 28.162758 31.85202 27.927734 32.460938C27.692405 33.070645 27.407123 33.824982 27.130859 34.5625C26.578332 36.037536 26.0625 37.441406 26.0625 37.441406L26 37.609375L26 41.203125L26 43C26 43.552 26.448 44 27 44L30 44L30.333984 43L39.666016 43L40 44L43 44C43.552 44 44 43.552 44 43L44 41.205078L44 37.605469L43.935547 37.435547C43.935547 37.435547 43.426995 36.084647 42.875 34.632812C42.323002 33.180979 41.755717 31.689544 41.541016 31.193359C40.975058 29.8847 39.676055 29.63126 39.107422 29.466797L39.265625 29.529297C39.265625 29.529297 38.860803 29.350859 38.199219 29.230469C37.537635 29.110079 36.520071 28.998047 34.998047 28.998047 z M 14.998047 30.998047C16.423023 30.998047 17.322678 31.103156 17.839844 31.197266C18.35701 31.291376 18.392578 31.328125 18.392578 31.328125L18.470703 31.365234L18.552734 31.388672C19.042101 31.530209 19.669036 31.90494 19.705078 31.988281C19.78259 32.167414 20.174579 33.196216 20.484375 34L9.4824219 34C9.5858163 33.727421 9.7020492 33.415247 9.7929688 33.179688C10.023952 32.581238 10.251182 32.048737 10.238281 32.074219L10.238281 32.072266C10.329671 31.891349 10.879767 31.587118 11.496094 31.373047L11.550781 31.353516L11.605469 31.328125C11.605469 31.328125 11.641039 31.291375 12.158203 31.197266C12.675369 31.103156 13.573071 30.998047 14.998047 30.998047 z M 34.998047 30.998047C36.423023 30.998047 37.322678 31.103156 37.839844 31.197266C38.35701 31.291376 38.392578 31.328125 38.392578 31.328125L38.470703 31.365234L38.552734 31.388672C39.042101 31.530209 39.669036 31.90494 39.705078 31.988281C39.78259 32.167414 40.174579 33.196216 40.484375 34L29.482422 34C29.585816 33.727421 29.702049 33.415247 29.792969 33.179688C30.023952 32.581238 30.251182 32.048737 30.238281 32.074219L30.238281 32.072266C30.329671 31.891349 30.879767 31.587118 31.496094 31.373047L31.550781 31.353516L31.605469 31.328125C31.605469 31.328125 31.641039 31.291375 32.158203 31.197266C32.675369 31.103156 33.573071 30.998047 34.998047 30.998047 z M 8.7304688 36L21.253906 36C21.593165 36.895395 21.957721 37.858401 22 37.970703L22 41L11 41L8 41L8 37.964844C8.0401949 37.855694 8.403887 36.877348 8.7304688 36 z M 28.730469 36L41.253906 36C41.593165 36.895395 41.957721 37.858401 42 37.970703L42 41L31 41L28 41L28 37.964844C28.040198 37.855694 28.403888 36.877348 28.730469 36 z M 10.5 37 A 1.5 1.5 0 0 0 9 38.5 A 1.5 1.5 0 0 0 10.5 40 A 1.5 1.5 0 0 0 12 38.5 A 1.5 1.5 0 0 0 10.5 37 z M 19.5 37 A 1.5 1.5 0 0 0 18 38.5 A 1.5 1.5 0 0 0 19.5 40 A 1.5 1.5 0 0 0 21 38.5 A 1.5 1.5 0 0 0 19.5 37 z M 30.5 37 A 1.5 1.5 0 0 0 29 38.5 A 1.5 1.5 0 0 0 30.5 40 A 1.5 1.5 0 0 0 32 38.5 A 1.5 1.5 0 0 0 30.5 37 z M 39.5 37 A 1.5 1.5 0 0 0 38 38.5 A 1.5 1.5 0 0 0 39.5 40 A 1.5 1.5 0 0 0 41 38.5 A 1.5 1.5 0 0 0 39.5 37 z" />
</svg>