<?xml version="1.0" encoding="utf-8"?>
<svg xmlns="http://www.w3.org/2000/svg" viewBox="0 0 50 50" width="515" height="515">
  <path d="M0 6L0 8L4 8C8.800781 8 11.679688 8.734375 13.375 9.5625C15.050781 10.382813 15.59375 11.242188 15.875 11.875C15.875 11.878906 15.875 11.902344 15.875 11.90625C16.015625 12.242188 16.480469 13.625 17 15.34375C17.515625 17.046875 18.128906 19.140625 18.71875 21.1875L18.65625 21.21875C18.90625 21.96875 19.171875 23.070313 18.96875 23.71875C18.867188 24.042969 18.742188 24.28125 18.28125 24.53125C17.820313 24.78125 16.980469 25 15.6875 25L0 25L0 27L15.6875 27C17.195313 27 18.347656 26.753906 19.21875 26.28125C19.519531 26.117188 19.769531 25.90625 20 25.6875C20.339844 26.898438 20.984375 29.199219 21 29.25L21 39.6875C21 41.558594 19.558594 43 17.6875 43L0 43L0 45L13 45L13 47C13 48.644531 14.355469 50 16 50L20 50C21.644531 50 23 48.644531 23 47L23 28.96875L22.96875 28.84375C22.96875 28.84375 21.859375 24.917969 20.65625 20.75C20.054688 18.667969 19.433594 16.496094 18.90625 14.75C18.378906 13.003906 17.984375 11.75 17.71875 11.125L17.71875 11.09375C17.296875 10.128906 16.332031 8.769531 14.25 7.75C12.167969 6.730469 9 6 4 6 Z M 33 7.5C29.964844 7.5 27.5 9.964844 27.5 13C27.5 16.035156 29.964844 18.5 33 18.5C34.070313 18.5 35.058594 18.1875 35.90625 17.65625L31.96875 22.09375C31.613281 22.082031 30.664063 22.054688 29.25 22C27.589844 21.9375 25.726563 21.851563 25.28125 21.8125C25.25 21.8125 25.21875 21.8125 25.1875 21.8125C24.425781 21.8125 23.703125 22.039063 23.09375 22.5C22.484375 22.960938 22 23.710938 22 24.59375C22 26.128906 23.148438 27.441406 24.6875 27.59375C25.285156 27.652344 26.996094 27.757813 28.625 27.84375C30.234375 27.929688 31.6875 28 31.71875 28C31.730469 28 31.738281 28 31.75 28C33.214844 28.113281 34.652344 27.632813 35.75 26.65625C35.761719 26.65625 35.769531 26.65625 35.78125 26.65625L37.65625 24.96875L40.78125 30.40625L37.125 34.875C36.726563 35.363281 36.445313 35.910156 36.28125 36.5C36.226563 36.578125 36.1875 36.660156 36.15625 36.75L35.375 38.8125L35.375 38.84375C34.789063 40.273438 34.792969 41.785156 35.125 43.21875C35.125 43.238281 35.125 43.261719 35.125 43.28125L36.53125 48.09375C36.550781 48.125 36.570313 48.15625 36.59375 48.1875C37.03125 49.203125 38.054688 49.90625 39.1875 49.90625C40.675781 49.90625 41.84375 48.699219 41.9375 47.3125L42.875 48.65625C43.777344 50.011719 45.554688 50.285156 46.9375 49.59375C46.957031 49.585938 46.980469 49.574219 47 49.5625C48.472656 48.679688 48.964844 46.742188 48.03125 45.34375L43.59375 38.46875L47.78125 34.53125C47.792969 34.519531 47.800781 34.511719 47.8125 34.5C48.855469 33.457031 49.601563 32.316406 49.90625 31.0625C50.210938 29.808594 50.023438 28.488281 49.375 27.25C49.375 27.238281 49.375 27.230469 49.375 27.21875L43.96875 17.21875C43.96875 17.207031 43.96875 17.199219 43.96875 17.1875C43.265625 15.972656 42.09375 15.277344 40.84375 15.09375C39.777344 14.9375 38.65625 15.15625 37.71875 15.78125C38.203125 14.960938 38.5 14.019531 38.5 13C38.5 9.964844 36.035156 7.5 33 7.5 Z M 33 9.5C34.964844 9.5 36.5 11.035156 36.5 13C36.5 14.964844 34.964844 16.5 33 16.5C31.035156 16.5 29.5 14.964844 29.5 13C29.5 11.035156 31.035156 9.5 33 9.5 Z M 40.03125 17.03125C40.203125 17.015625 40.363281 17.007813 40.53125 17.03125C41.207031 17.125 41.851563 17.503906 42.25 18.1875L42.21875 18.1875L47.625 28.15625C47.628906 28.167969 47.621094 28.175781 47.625 28.1875C48.0625 29.035156 48.160156 29.804688 47.96875 30.59375C47.777344 31.382813 47.25 32.214844 46.40625 33.0625L41.625 37.5625C41.265625 37.894531 41.203125 38.4375 41.46875 38.84375L46.375 46.4375C46.375 46.449219 46.375 46.457031 46.375 46.46875C46.636719 46.859375 46.523438 47.484375 46.03125 47.8125C45.421875 48.101563 44.824219 47.96875 44.53125 47.53125L40.65625 41.9375C40.613281 41.597656 40.402344 41.304688 40.09375 41.15625L38.4375 38.75C37.894531 37.933594 38.023438 36.9375 38.6875 36.125L42.78125 31.125C43.042969 30.804688 43.078125 30.359375 42.875 30L38.78125 22.90625C38.632813 22.632813 38.367188 22.445313 38.0625 22.398438C37.753906 22.347656 37.445313 22.445313 37.21875 22.65625L34.4375 25.15625C33.742188 25.773438 32.800781 26.078125 31.875 26C31.863281 26 31.855469 26 31.84375 26C31.84375 26 30.339844 25.929688 28.71875 25.84375C27.097656 25.757813 25.308594 25.632813 24.90625 25.59375C24.445313 25.546875 24 25.058594 24 24.59375C24 24.378906 24.066406 24.257813 24.28125 24.09375C24.496094 23.929688 24.851563 23.8125 25.1875 23.8125L25.1875 23.78125C25.867188 23.839844 27.546875 23.9375 29.1875 24C30.851563 24.0625 32.375 24.09375 32.375 24.09375C32.671875 24.101563 32.960938 23.976563 33.15625 23.75L38.5625 17.65625C38.996094 17.277344 39.519531 17.074219 40.03125 17.03125 Z M 15 31C14.070313 31 13.328125 31.132813 12.65625 31.40625C11.984375 31.679688 11.429688 32.039063 10.59375 32.53125C9.980469 32.890625 9.382813 33.238281 8.875 33.78125C8.367188 34.324219 8 35.121094 8 36C8 37.644531 9.355469 39 11 39L15 39C17.210938 39 19 37.210938 19 35C19 32.789063 17.210938 31 15 31 Z M 15 33C16.191406 33 17 33.808594 17 35C17 36.191406 16.191406 37 15 37L11 37C10.445313 37 10 36.554688 10 36C10 35.582031 10.101563 35.414063 10.34375 35.15625C10.585938 34.898438 11.007813 34.59375 11.59375 34.25C12.457031 33.742188 13.007813 33.425781 13.4375 33.25C13.867188 33.074219 14.226563 33 15 33 Z M 37.03125 40.21875L38.84375 42.875L39.9375 46.875C39.945313 46.894531 39.957031 46.917969 39.96875 46.9375C40.125 47.367188 39.722656 47.90625 39.1875 47.90625C38.742188 47.90625 38.59375 47.777344 38.4375 47.4375L37.0625 42.78125C37.058594 42.761719 37.066406 42.738281 37.0625 42.71875C36.863281 41.832031 36.847656 40.992188 37.03125 40.21875 Z M 21 43.8125L21 47C21 47.554688 20.554688 48 20 48L16 48C15.445313 48 15 47.554688 15 47L15 45L17.6875 45C18.945313 45 20.089844 44.546875 21 43.8125Z" />
</svg>