<?xml version="1.0" encoding="utf-8"?>
<svg xmlns="http://www.w3.org/2000/svg" viewBox="0 0 50 50" width="515" height="515">
  <path d="M9.84375 4C8.285156 4 7 5.289063 7 6.84375L7 10L9 10L9 6.84375C9 6.359375 9.375 6 9.84375 6L15.15625 6C15.625 6 16 6.359375 16 6.84375L16 10L18 10L18 6.84375C18 5.289063 16.714844 4 15.15625 4 Z M 34.84375 4C33.285156 4 32 5.289063 32 6.84375L32 10L34 10L34 6.84375C34 6.359375 34.375 6 34.84375 6L40.15625 6C40.625 6 41 6.359375 41 6.84375L41 10L43 10L43 6.84375C43 5.289063 41.714844 4 40.15625 4 Z M 4.6875 10.9375C2.082031 10.9375 -0.0625 13.058594 -0.0625 15.65625L-0.0625 41.34375C-0.0625 43.941406 2.082031 46.0625 4.6875 46.0625L45.3125 46.0625C47.917969 46.0625 50.0625 43.941406 50.0625 41.34375L50.0625 15.65625C50.0625 13.058594 47.917969 10.9375 45.3125 10.9375 Z M 4.6875 13.0625L45.3125 13.0625C46.785156 13.0625 47.9375 14.203125 47.9375 15.65625L47.9375 41.34375C47.9375 42.796875 46.789063 43.9375 45.3125 43.9375L4.6875 43.9375C3.214844 43.9375 2.0625 42.796875 2.0625 41.34375L2.0625 15.65625C2.0625 14.203125 3.214844 13.0625 4.6875 13.0625 Z M 36 23L36 27L32 27L32 30L36 30L36 34L39 34L39 30L43 30L43 27L39 27L39 23 Z M 7 27L7 30L18 30L18 27Z" />
</svg>