<?xml version="1.0" encoding="utf-8"?>
<svg xmlns="http://www.w3.org/2000/svg" viewBox="0 0 50 50" width="515" height="515">
  <path d="M39.292969 2.2929688L33.585938 8L39.292969 13.707031L40.707031 12.292969L37.414062 9L41 9C43.754545 9 46 11.245455 46 14L46 19L48 19L48 14C48 10.154545 44.845455 7 41 7L37.414062 7L40.707031 3.7070312L39.292969 2.2929688 z M 6 6.9960938C3.8005048 6.9960938 1.9960936 8.8005048 1.9960938 11L1.9960938 25C1.9960938 27.199495 3.8005048 29.003906 6 29.003906L18.996094 29.003906L18.996094 39C18.996094 41.199495 20.800505 43.003906 23 43.003906L44 43.003906C46.199495 43.003906 48.003906 41.199495 48.003906 39L48.003906 25C48.003906 22.800505 46.199495 20.996094 44 20.996094L31.003906 20.996094L31.003906 11C31.003906 8.8005048 29.199495 6.9960937 27 6.9960938L6 6.9960938 z M 6 9.0039062L27 9.0039062C28.114505 9.0039062 28.996094 9.8854952 28.996094 11L28.996094 13L4.0039062 13L4.0039062 11C4.0039062 9.8854952 4.8854952 9.0039062 6 9.0039062 z M 4.0039062 17L28.996094 17L28.996094 20.996094L23 20.996094C21.075442 20.996094 19.453572 22.3784 19.078125 24.197266C19.02449 24.457104 18.996094 24.725063 18.996094 25L18.996094 26.996094L6 26.996094C4.8854952 26.996094 4.0039062 26.114505 4.0039062 25L4.0039062 17 z M 23 23.003906L44 23.003906C45.114505 23.003906 45.996094 23.885495 45.996094 25L45.996094 27L21.003906 27L21.003906 25C21.003906 24.860687 21.018639 24.724518 21.044922 24.59375C21.228901 23.678377 22.024808 23.003906 23 23.003906 z M 2 31L2 36C2 39.845455 5.1545455 43 9 43L12.585938 43L9.2929688 46.292969L10.707031 47.707031L16.414062 42L10.707031 36.292969L9.2929688 37.707031L12.585938 41L9 41C6.2454545 41 4 38.754545 4 36L4 31L2 31 z M 21.003906 31L45.996094 31L45.996094 39C45.996094 40.114505 45.114505 40.996094 44 40.996094L23 40.996094C21.885495 40.996094 21.003906 40.114505 21.003906 39L21.003906 31 z" />
</svg>