<?xml version="1.0" encoding="utf-8"?>
<svg xmlns="http://www.w3.org/2000/svg" viewBox="0 0 50 50" width="515" height="515">
  <path d="M9.90625 13.96875C9.863281 13.976563 9.820313 13.988281 9.78125 14C9.316406 14.105469 8.988281 14.523438 9 15L9 19L5 19C4.96875 19 4.9375 19 4.90625 19C4.390625 19.046875 3.996094 19.480469 4 20L4 31L3 31C2.167969 31 1.46875 31.390625 0.9375 31.90625C0.40625 32.421875 0 33.113281 0 33.9375L0 36.875C0 38.097656 0.601563 39.40625 1.59375 40.78125C2.351563 41.828125 3.363281 42.851563 4.59375 43.71875C3.953125 43.84375 3.335938 43.9375 2.84375 43.9375C2.214844 43.9375 1.675781 43.890625 1.15625 43.8125C0.789063 43.722656 0.40625 43.847656 0.160156 44.132813C-0.0859375 44.417969 -0.148438 44.820313 -0.00390625 45.167969C0.140625 45.515625 0.46875 45.753906 0.84375 45.78125C1.433594 45.871094 2.09375 45.9375 2.84375 45.9375C4.390625 45.9375 6.550781 45.515625 8.375 44.34375C10.203125 45.527344 12.382813 45.9375 13.9375 45.9375C15.484375 45.9375 17.644531 45.515625 19.46875 44.34375C21.292969 45.515625 23.453125 45.9375 25 45.9375C26.546875 45.9375 28.707031 45.515625 30.53125 44.34375C32.152344 45.382813 34.015625 45.820313 35.5 45.90625C35.65625 45.980469 35.828125 46.011719 36 46C36.425781 46 36.832031 45.945313 37.25 45.84375C38.625 45.683594 40.21875 45.25 41.625 44.34375C43.449219 45.515625 45.609375 45.9375 47.15625 45.9375C48.019531 45.9375 48.75 45.804688 49.34375 45.59375C49.871094 45.402344 50.144531 44.824219 49.953125 44.296875C49.761719 43.769531 49.183594 43.496094 48.65625 43.6875C48.261719 43.828125 47.804688 43.9375 47.15625 43.9375C45.847656 43.9375 43.738281 43.515625 42.375 42.53125C43.417969 41.492188 44.433594 40.289063 45.34375 38.96875C48.011719 35.097656 50 30.378906 50 26.5C50 25.890625 49.90625 25.246094 49.46875 24.71875C49.03125 24.191406 48.324219 24 47.65625 24L38 24C36.640625 24 35.625 24.335938 34.9375 24.90625C34.363281 25.382813 34.1875 25.894531 33.84375 26.53125C33.5 27.167969 33.121094 27.914063 32.65625 28.59375C31.726563 29.949219 30.625 31 29 31L14 31L14 24.4375L15.71875 22.71875C15.90625 22.527344 16.007813 22.265625 16 22L16 20C16 19.449219 15.550781 19 15 19L11 19L11 15C11.011719 14.710938 10.894531 14.433594 10.6875 14.238281C10.476563 14.039063 10.191406 13.941406 9.90625 13.96875 Z M 6 21L14 21L14 21.5625L12.28125 23.28125C12.09375 23.472656 11.992188 23.734375 12 24L12 31L6 31 Z M 38 26L47.65625 26C47.824219 26 47.90625 26.019531 47.9375 26.03125C47.914063 26.003906 48 26.109375 48 26.5C48 29.65625 46.179688 34.195313 43.6875 37.8125C42.441406 39.621094 41.023438 41.210938 39.65625 42.3125C38.664063 43.109375 37.703125 43.644531 36.875 43.875C36.59375 43.902344 36.300781 43.9375 36.0625 43.9375C34.707031 43.9375 32.511719 43.503906 31.15625 42.4375C30.789063 42.144531 30.273438 42.144531 29.90625 42.4375C28.554688 43.503906 26.355469 43.9375 25 43.9375C23.644531 43.9375 21.449219 43.503906 20.09375 42.4375C19.726563 42.144531 19.210938 42.144531 18.84375 42.4375C17.492188 43.503906 15.292969 43.9375 13.9375 43.9375C12.582031 43.9375 10.351563 43.503906 9 42.4375C8.8125 42.289063 8.582031 42.210938 8.34375 42.21875C8.136719 42.230469 7.941406 42.308594 7.78125 42.4375C7.554688 42.617188 7.296875 42.761719 7.03125 42.90625C6.957031 42.84375 6.871094 42.789063 6.78125 42.75C5.300781 41.945313 4.050781 40.746094 3.21875 39.59375C2.386719 38.441406 2 37.257813 2 36.875L2 33.9375C2 33.835938 2.09375 33.558594 2.3125 33.34375C2.53125 33.128906 2.832031 33 3 33L29 33C31.511719 33 33.222656 31.3125 34.3125 29.71875C34.855469 28.921875 35.285156 28.125 35.625 27.5C35.964844 26.875 36.300781 26.398438 36.21875 26.46875C36.542969 26.199219 36.941406 26 38 26 Z M 39.65625 29.34375C39.039063 29.34375 39 29.71875 39 29.71875L39 31.03125C39 31.949219 40.0625 32 40.0625 32L42.09375 32C42.09375 32 43 31.980469 43 31.0625L43 29.71875C43 29.71875 42.964844 29.34375 42.34375 29.34375C41.722656 29.34375 41.65625 29.71875 41.65625 29.71875L41.65625 30.5C41.65625 30.5 41.589844 30.90625 41 30.90625C40.410156 30.90625 40.34375 30.5 40.34375 30.5L40.34375 29.71875C40.34375 29.71875 40.277344 29.34375 39.65625 29.34375 Z M 8.25 46.21875C8.078125 46.25 7.914063 46.324219 7.78125 46.4375C6.429688 47.503906 4.199219 47.9375 2.84375 47.9375C2.214844 47.9375 1.675781 47.890625 1.15625 47.8125C0.789063 47.722656 0.40625 47.847656 0.160156 48.132813C-0.0859375 48.417969 -0.148438 48.820313 -0.00390625 49.167969C0.140625 49.515625 0.46875 49.753906 0.84375 49.78125C1.433594 49.871094 2.09375 49.9375 2.84375 49.9375C4.390625 49.9375 6.550781 49.515625 8.375 48.34375C10.203125 49.527344 12.382813 49.9375 13.9375 49.9375C15.484375 49.9375 17.644531 49.515625 19.46875 48.34375C21.292969 49.515625 23.453125 49.9375 25 49.9375C26.546875 49.9375 28.707031 49.515625 30.53125 48.34375C32.355469 49.515625 34.515625 49.9375 36.0625 49.9375C37.617188 49.9375 39.796875 49.527344 41.625 48.34375C43.449219 49.515625 45.609375 49.9375 47.15625 49.9375C48.019531 49.9375 48.75 49.804688 49.34375 49.59375C49.871094 49.402344 50.144531 48.824219 49.953125 48.296875C49.761719 47.769531 49.183594 47.496094 48.65625 47.6875C48.261719 47.828125 47.804688 47.9375 47.15625 47.9375C45.800781 47.9375 43.570313 47.503906 42.21875 46.4375C41.859375 46.160156 41.359375 46.160156 41 46.4375C39.648438 47.503906 37.417969 47.9375 36.0625 47.9375C34.707031 47.9375 32.511719 47.503906 31.15625 46.4375C30.789063 46.144531 30.273438 46.144531 29.90625 46.4375C28.554688 47.503906 26.355469 47.9375 25 47.9375C23.644531 47.9375 21.449219 47.503906 20.09375 46.4375C19.726563 46.144531 19.210938 46.144531 18.84375 46.4375C17.492188 47.503906 15.292969 47.9375 13.9375 47.9375C12.582031 47.9375 10.351563 47.503906 9 46.4375C8.8125 46.289063 8.582031 46.210938 8.34375 46.21875C8.3125 46.21875 8.28125 46.21875 8.25 46.21875Z" />
</svg>