<?xml version="1.0" encoding="utf-8"?>
<svg xmlns="http://www.w3.org/2000/svg" viewBox="0 0 50 50" width="515" height="515">
  <path d="M25 14.90625C17.90625 14.90625 13.65625 15.9375 13.65625 15.9375L13.625 15.9375L13.5625 15.96875C12.191406 16.457031 9.820313 17.128906 8.75 19.21875C8.742188 19.234375 8.726563 19.234375 8.71875 19.25C8.441406 19.765625 8.054688 20.71875 7.5 22.125C6.945313 23.53125 6.277344 25.292969 5.625 27C5.625 27.003906 5.59375 26.996094 5.59375 27L4.09375 27C2.601563 27 1.480469 27.460938 0.8125 28.21875C0.144531 28.976563 0 29.890625 0 30.59375C0 31.359375 0.414063 32.148438 1.03125 32.53125C1.648438 32.914063 2.339844 33 3.09375 33L3.34375 33C3.316406 33.078125 3.0625 33.75 3.0625 33.75L3 33.90625L3 47C3 48.644531 4.355469 50 6 50L10 50C11.644531 50 13 48.644531 13 47L13 46L37 46L37 47C37 48.644531 38.355469 50 40 50L44 50C45.644531 50 47 48.644531 47 47L47 33.90625L46.9375 33.75C46.9375 33.75 46.6875 33.078125 46.65625 33L46.90625 33C47.632813 33 48.300781 32.9375 48.9375 32.5625C49.574219 32.1875 50 31.386719 50 30.59375C50 29.890625 49.855469 28.976563 49.1875 28.21875C48.519531 27.460938 47.398438 27 45.90625 27L44.34375 27C43.078125 23.714844 41.726563 20.207031 41.3125 19.21875L41.3125 19.1875L41.28125 19.15625C40.207031 17.003906 37.714844 16.339844 36.40625 15.9375L36.34375 15.9375C36.34375 15.9375 32.09375 14.90625 25 14.90625 Z M 25 16.90625C31.90625 16.90625 35.875 17.875 35.875 17.875C37.164063 18.277344 38.984375 19.03125 39.5 20.0625C39.84375 20.882813 41.050781 24.007813 42.1875 26.96875C42.1875 27.121094 42.21875 27.269531 42.28125 27.40625C42.535156 27.960938 42.957031 29.050781 42.8125 29.6875C42.742188 30.003906 42.621094 30.238281 42.15625 30.5C41.691406 30.761719 40.824219 31 39.40625 31L10.59375 31C9.226563 31 8.378906 30.757813 7.90625 30.5C7.433594 30.242188 7.304688 30.007813 7.21875 29.6875C7.042969 29.046875 7.382813 27.957031 7.625 27.375C7.652344 27.316406 7.671875 27.25 7.6875 27.1875C8.273438 25.664063 8.882813 24.117188 9.375 22.875C9.929688 21.46875 10.394531 20.324219 10.46875 20.1875L10.5 20.15625C11.023438 19.105469 12.726563 18.378906 14.125 17.875C14.164063 17.859375 14.210938 17.855469 14.25 17.84375C14.421875 17.800781 18.25 16.90625 25 16.90625 Z M 25 18C22.800781 18 21 19.800781 21 22C21 24.199219 22.800781 26 25 26C27.199219 26 29 24.199219 29 22C29 19.800781 27.199219 18 25 18 Z M 25 20C26.117188 20 27 20.882813 27 22C27 23.117188 26.117188 24 25 24C23.882813 24 23 23.117188 23 22C23 20.882813 23.882813 20 25 20 Z M 15.5 21C13.027344 21 11 23.027344 11 25.5C11 27.972656 13.027344 30 15.5 30C17.972656 30 20 27.972656 20 25.5C20 23.027344 17.972656 21 15.5 21 Z M 34.5 21C32.027344 21 30 23.027344 30 25.5C30 27.972656 32.027344 30 34.5 30C36.972656 30 39 27.972656 39 25.5C39 23.027344 36.972656 21 34.5 21 Z M 15.5 23C16.890625 23 18 24.109375 18 25.5C18 26.890625 16.890625 28 15.5 28C14.109375 28 13 26.890625 13 25.5C13 24.109375 14.109375 23 15.5 23 Z M 34.5 23C35.890625 23 37 24.109375 37 25.5C37 26.890625 35.890625 28 34.5 28C33.109375 28 32 26.890625 32 25.5C32 24.109375 33.109375 23 34.5 23 Z M 4.09375 29L4.84375 29C4.5 29.914063 4.335938 30.355469 4.09375 31L3.09375 31C2.546875 31 2.203125 30.878906 2.09375 30.8125C1.984375 30.746094 2 30.828125 2 30.59375C2 30.195313 2.078125 29.828125 2.3125 29.5625C2.546875 29.296875 2.984375 29 4.09375 29 Z M 45.125 29L45.90625 29C47.015625 29 47.453125 29.296875 47.6875 29.5625C47.921875 29.828125 48 30.195313 48 30.59375C48 30.902344 48.023438 30.792969 47.9375 30.84375C47.851563 30.894531 47.480469 31 46.90625 31L45.875 31C45.625 30.347656 45.480469 29.929688 45.125 29 Z M 6.03125 31.53125C6.28125 31.804688 6.574219 32.050781 6.9375 32.25C7.828125 32.742188 9.011719 33 10.59375 33L39.40625 33C41.039063 33 42.226563 32.753906 43.125 32.25C43.453125 32.066406 43.703125 31.8125 43.9375 31.5625C44.28125 32.46875 44.976563 34.257813 45 34.3125L45 43.09375C45 43.492188 44.492188 44 44.09375 44L5.90625 44C5.441406 44 5 43.648438 5 43.09375L5 34.28125C5.023438 34.21875 5.695313 32.421875 6.03125 31.53125 Z M 9 34C7.355469 34 6 35.355469 6 37C6 37.878906 6.367188 38.675781 6.875 39.21875C7.382813 39.761719 7.980469 40.109375 8.59375 40.46875C9.429688 40.960938 9.984375 41.320313 10.65625 41.59375C11.328125 41.867188 12.070313 42 13 42C15.210938 42 17 40.210938 17 38C17 35.789063 15.210938 34 13 34 Z M 37 34C34.789063 34 33 35.789063 33 38C33 40.210938 34.789063 42 37 42C37.929688 42 38.671875 41.867188 39.34375 41.59375C40.015625 41.320313 40.570313 40.960938 41.40625 40.46875C42.019531 40.109375 42.617188 39.761719 43.125 39.21875C43.632813 38.675781 44 37.878906 44 37C44 35.355469 42.644531 34 41 34 Z M 9 36L13 36C14.191406 36 15 36.808594 15 38C15 39.191406 14.191406 40 13 40C12.226563 40 11.867188 39.925781 11.4375 39.75C11.007813 39.574219 10.457031 39.257813 9.59375 38.75C9.007813 38.40625 8.585938 38.101563 8.34375 37.84375C8.101563 37.585938 8 37.417969 8 37C8 36.445313 8.445313 36 9 36 Z M 37 36L41 36C41.554688 36 42 36.445313 42 37C42 37.417969 41.898438 37.585938 41.65625 37.84375C41.414063 38.101563 40.992188 38.40625 40.40625 38.75C39.542969 39.257813 38.992188 39.574219 38.5625 39.75C38.132813 39.925781 37.773438 40 37 40C35.808594 40 35 39.191406 35 38C35 36.808594 35.808594 36 37 36 Z M 5 45.84375C5.289063 45.941406 5.589844 46 5.90625 46L11 46L11 47C11 47.554688 10.554688 48 10 48L6 48C5.445313 48 5 47.554688 5 47 Z M 45 45.84375L45 47C45 47.554688 44.554688 48 44 48L40 48C39.445313 48 39 47.554688 39 47L39 46L44.09375 46C44.410156 46 44.714844 45.9375 45 45.84375Z" />
</svg>