<?xml version="1.0" encoding="utf-8"?>
<svg xmlns="http://www.w3.org/2000/svg" viewBox="0 0 50 50" width="515" height="515">
  <path d="M24.140625 3C23.028625 3 22.112766 3.8856719 22.009766 5.0136719C17.607766 5.5726719 15.171812 9.8379062 15.007812 14.003906C13.982813 14.369906 13 15.199 13 18C13 18.459 13.312812 18.858703 13.757812 18.970703C13.815697 18.985174 14.489217 19.121277 15.429688 19.28125C15.53888 19.862485 15.668814 20.404557 15.824219 20.974609C15.839219 21.030609 15.854141 21.086531 15.869141 21.144531C15.395141 21.642531 14.999 22.371672 15 23.263672C15 23.416672 15.008297 23.576141 15.029297 23.744141C15.272297 25.763141 16.180516 26.843391 17.103516 27.275391C17.395516 28.854391 18.121 30.606469 19 31.480469L19 33.802734C18.372 35.171734 16.368547 35.895516 14.060547 36.728516C10.187547 38.126516 5.3669531 39.868406 5.0019531 45.941406C4.9849531 46.215406 5.0824844 46.485547 5.2714844 46.685547C5.4604844 46.886547 5.725 47 6 47L36 47L36 45L7.1289062 45C7.8789062 41.087 11.361281 39.828375 14.738281 38.609375C17.479281 37.619375 20.0685 36.684656 20.9375 34.347656C20.9795 34.236656 21 34.119 21 34L21 31C21 30.662 20.757609 30.304141 20.474609 30.119141C20.137609 29.899141 19.200141 28.322578 18.994141 26.392578C18.944141 25.922578 18.551031 25.550953 18.082031 25.501953C17.865031 25.479953 17.204578 25.063859 17.017578 23.505859C17.005578 23.420859 17 23.339719 17 23.261719C17 22.687719 17.514531 22.358469 17.519531 22.355469C17.895531 22.126469 18.07975 21.676 17.96875 21.25C17.89375 20.96 17.821906 20.695312 17.753906 20.445312C17.688306 20.205304 17.622798 19.889284 17.556641 19.587891C19.418315 19.806096 21.900186 20 25.005859 20C28.180236 20 30.701216 19.798361 32.572266 19.574219C32.451896 20.014896 32.321953 20.396387 32.199219 20.748047L32.050781 21.185547C31.903781 21.627547 32.081469 22.114469 32.480469 22.355469C32.485469 22.359469 33.001 22.677953 33 23.251953C33 23.328953 32.994375 23.409141 32.984375 23.494141C32.796375 25.057141 32.135922 25.478906 31.919922 25.503906C31.440922 25.542906 31.057859 25.916531 31.005859 26.394531C30.798859 28.322531 29.862156 29.902187 29.535156 30.117188C29.206156 30.288188 29 30.629 29 31L29 34C29 34.119 29.0215 34.237609 29.0625 34.349609C29.9325 36.686609 32.521719 37.620328 35.261719 38.611328C35.506719 38.700328 35.752047 38.796672 35.998047 38.888672L35.998047 36.75C35.97869 36.74315 35.960819 36.73531 35.941406 36.728516C33.632406 35.895516 31.628 35.171734 31 33.802734L31 31.478516C31.881 30.601516 32.607438 28.840812 32.898438 27.257812C33.753437 26.839813 34.719703 25.819469 34.970703 23.730469C34.990703 23.563469 35 23.402953 35 23.251953C35.002 22.386953 34.625969 21.676641 34.167969 21.181641C34.342862 20.67445 34.523545 20.024089 34.681641 19.263672C35.558544 19.111718 36.18635 18.984662 36.242188 18.970703C36.687188 18.858703 37 18.459 37 18C37 15.179 36.018234 14.350188 34.990234 13.992188C34.822234 9.8291875 32.390234 5.5706719 27.990234 5.0136719C27.888234 3.8856719 26.971422 3 25.857422 3L24.140625 3 z M 24.142578 5L25.857422 5C25.892422 5 26 5.0796094 26 5.2246094L26 12C26 12.552 26.448 13 27 13C27.552 13 28 12.552 28 12L28 7.0371094C31.622 7.6791094 33 11.786125 33 14.453125C33 15.495125 33.912891 15.758703 34.212891 15.845703C34.490891 15.925703 34.855797 16.030313 34.966797 17.195312C33.495797 17.472313 30.031859 18 25.005859 18C19.977859 18 16.506203 17.470359 15.033203 17.193359C15.142203 16.046359 15.499875 15.939609 15.796875 15.849609C16.093875 15.759609 17 15.486125 17 14.453125C17 11.679125 18.354 7.6572031 22 7.0332031L22 12C22 12.552 22.448 13 23 13C23.552 13 24 12.552 24 12L24 5.2246094C24 5.0796094 24.106578 5 24.142578 5 z M 39 20 A 1.0001 1.0001 0 0 0 38 21L38 41L38 47C38 48.64497 39.35503 50 41 50L47 50C48.64497 50 50 48.64497 50 47L50 43 A 1.0001 1.0001 0 0 0 49.707031 42.292969L48.414062 41L49.707031 39.707031 A 1.0001 1.0001 0 0 0 49.707031 38.292969L47.414062 36L48.707031 34.707031 A 1.0001 1.0001 0 0 0 48.707031 33.292969L46.414062 31L47.707031 29.707031 A 1.0001 1.0001 0 0 0 47.707031 28.292969L45.414062 26L46.707031 24.707031 A 1.0001 1.0001 0 0 0 46.707031 23.292969L43.707031 20.292969 A 1.0001 1.0001 0 0 0 43 20L39 20 z M 40 22L42.585938 22L44.585938 24L43.292969 25.292969 A 1.0001 1.0001 0 0 0 43.292969 26.707031L45.585938 29L44.292969 30.292969 A 1.0001 1.0001 0 0 0 44.292969 31.707031L46.585938 34L45.292969 35.292969 A 1.0001 1.0001 0 0 0 45.292969 36.707031L47.585938 39L46.585938 40L40 40L40 22 z M 40 42L46.585938 42L48 43.414062L48 47C48 47.56503 47.56503 48 47 48L41 48C40.43497 48 40 47.56503 40 47L40 42 z M 43 44 A 1.0001 1.0001 0 1 0 43 46L45 46 A 1.0001 1.0001 0 1 0 45 44L43 44 z" />
</svg>