<?xml version="1.0" encoding="utf-8"?>
<svg xmlns="http://www.w3.org/2000/svg" width="515" height="515" viewBox="0 0 50 50">
  <path d="M9.984375 5.9863281 A 1.0001 1.0001 0 0 0 9.8398438 6L3 6 A 1.0001 1.0001 0 0 0 2 7L2 31 A 1.0001 1.0001 0 0 0 3 32L9.8320312 32 A 1.0001 1.0001 0 0 0 10.158203 32L39.832031 32 A 1.0001 1.0001 0 0 0 40.158203 32L47 32 A 1.0001 1.0001 0 0 0 48 31L48 7 A 1.0001 1.0001 0 0 0 47 6L40.154297 6 A 1.0001 1.0001 0 0 0 39.984375 5.9863281 A 1.0001 1.0001 0 0 0 39.839844 6L10.154297 6 A 1.0001 1.0001 0 0 0 9.984375 5.9863281 z M 4 8L9 8L9 30L4 30L4 8 z M 11 8L39 8L39 30L11 30L11 8 z M 41 8L46 8L46 30L41 30L41 8 z M 25 11C22.052633 11 19.698522 13.189731 19.203125 16L19 16C16.802666 16 15 17.802666 15 20C15 22.197334 16.802666 24 19 24 A 1.0001 1.0001 0 1 0 19 22C17.883334 22 17 21.116666 17 20C17 18.883334 17.883334 18 19 18L20 18 A 1.0001 1.0001 0 0 0 21 17C21 14.779625 22.779625 13 25 13C27.220375 13 29 14.779625 29 17 A 1.0001 1.0001 0 0 0 30 18L31 18C32.116666 18 33 18.883334 33 20C33 21.116666 32.116666 22 31 22 A 1.0001 1.0001 0 1 0 31 24C33.197334 24 35 22.197334 35 20C35 17.802666 33.197334 16 31 16L30.796875 16C30.301478 13.189731 27.947367 11 25 11 z M 37.984375 32.986328 A 1.0001 1.0001 0 0 0 37 34L37 36.699219C36.110522 36.460815 35.69667 36.267971 34.626953 36.025391C27.935261 34.507914 17.610269 33 3 33 A 1.0001 1.0001 0 1 0 3 35C17.472731 35 27.647989 36.492086 34.185547 37.974609C40.723104 39.457133 43.550781 40.892578 43.550781 40.892578 A 1.0001 1.0001 0 0 0 45 40L45 34 A 1.0001 1.0001 0 1 0 43 34L43 38.519531C42.221402 38.197612 40.868535 37.834624 39 37.267578L39 34 A 1.0001 1.0001 0 0 0 37.984375 32.986328 z M 3 36 A 1.0001 1.0001 0 1 0 3 38C16.309432 38 25.673546 40.473776 31.697266 42.925781C37.720985 45.377787 40.332031 47.744141 40.332031 47.744141 A 1.0001 1.0001 0 0 0 42 47L42 42 A 1.0001 1.0001 0 1 0 40 42L40 45.048828C39.322165 44.570339 38.257668 44.095934 37 43.392578L37 40.697266 A 1.0001 1.0001 0 1 0 35 40.697266L35 42.373047C34.072969 41.917272 33.5977 41.540923 32.451172 41.074219C26.191642 38.526224 16.557568 36 3 36 z" />
</svg>