<?xml version="1.0" encoding="utf-8"?>
<svg xmlns="http://www.w3.org/2000/svg" viewBox="0 0 50 50" width="515" height="515">
  <path d="M4.8125 9C4.335938 9.089844 3.992188 9.511719 4 10C4 11.65625 2.65625 13 1 13C0.449219 13 0 13.449219 0 14L0 36C0 36.550781 0.449219 37 1 37C2.65625 37 4 38.34375 4 40C4 40.550781 4.449219 41 5 41L45 41C45.550781 41 46 40.550781 46 40C46 38.34375 47.34375 37 49 37C49.550781 37 50 36.550781 50 36L50 14C50 13.449219 49.550781 13 49 13C47.34375 13 46 11.65625 46 10C46 9.449219 45.550781 9 45 9L5 9C4.96875 9 4.9375 9 4.90625 9C4.875 9 4.84375 9 4.8125 9 Z M 5.78125 11L44.21875 11C44.628906 12.917969 46.082031 14.371094 48 14.78125L48 35.21875C46.082031 35.628906 44.628906 37.082031 44.21875 39L5.78125 39C5.371094 37.082031 3.917969 35.628906 2 35.21875L2 14.78125C3.917969 14.371094 5.371094 12.917969 5.78125 11 Z M 10 20L10 22L40 22L40 20 Z M 10 28L10 30L40 30L40 28Z" />
</svg>