<?xml version="1.0" encoding="utf-8"?>
<svg xmlns="http://www.w3.org/2000/svg" viewBox="0 0 50 50" width="515" height="515">
  <path d="M25 2.0058594C12.313047 2.0058594 2.0058594 12.313047 2.0058594 25C2.0058594 37.686953 12.313047 47.994141 25 47.994141C37.686953 47.994141 47.994141 37.686953 47.994141 25C47.994141 12.313047 37.686953 2.0058594 25 2.0058594 z M 25 3.9941406C27.588714 3.9941406 30.064901 4.4643361 32.353516 5.3183594L27.605469 16.396484C26.779817 16.145511 25.905979 16.005859 25 16.005859C20.044997 16.005859 16.005859 20.044997 16.005859 25C16.005859 25.905979 16.145511 26.779817 16.396484 27.605469L5.3183594 32.353516C4.4643361 30.064901 3.9941406 27.588714 3.9941406 25C3.9941406 13.386953 13.386953 3.9941406 25 3.9941406 z M 34.173828 6.1210938C38.401031 8.1766361 41.823364 11.598969 43.878906 15.826172L32.814453 20.568359C32.011455 19.159611 30.840389 17.988545 29.431641 17.185547L34.173828 6.1210938 z M 44.681641 17.646484C45.535664 19.935099 46.005859 22.411286 46.005859 25C46.005859 36.613047 36.613047 46.005859 25 46.005859C22.411286 46.005859 19.935099 45.535664 17.646484 44.681641L22.394531 33.603516C23.220183 33.854489 24.094021 33.994141 25 33.994141C29.955003 33.994141 33.994141 29.955003 33.994141 25C33.994141 24.094021 33.854489 23.220183 33.603516 22.394531L44.681641 17.646484 z M 25 17.994141C28.880997 17.994141 32.005859 21.119003 32.005859 25C32.005859 28.880997 28.880997 32.005859 25 32.005859C21.119003 32.005859 17.994141 28.880997 17.994141 25C17.994141 21.119003 21.119003 17.994141 25 17.994141 z M 25 22C23.343 22 22 23.343 22 25C22 26.657 23.343 28 25 28C26.657 28 28 26.657 28 25C28 23.343 26.657 22 25 22 z M 17.185547 29.431641C17.988545 30.840389 19.159611 32.011455 20.568359 32.814453L15.826172 43.878906C11.598969 41.823364 8.1766361 38.401031 6.1210938 34.173828L17.185547 29.431641 z" />
</svg>