<?xml version="1.0" encoding="utf-8"?>
<svg xmlns="http://www.w3.org/2000/svg" viewBox="0 0 50 50" width="515" height="515">
  <path d="M25 2C12.309534 2 2 12.309534 2 25C2 34.432875 7.6885276 42.54993 15.828125 46.09375L16.626953 44.259766C9.1985507 41.025586 4 33.629125 4 25C4 13.390466 13.390466 4 25 4C36.609534 4 46 13.390466 46 25C46 33.629125 40.801449 41.025586 33.373047 44.259766L34.171875 46.09375C42.311472 42.54993 48 34.432875 48 25C48 12.309534 37.690466 2 25 2 z M 25 8C15.622621 8 8 15.622621 8 25C8 31.97005 12.206567 37.966318 18.222656 40.585938L19.021484 38.753906C13.715574 36.443525 10 31.16595 10 25C10 16.703379 16.703379 10 25 10C33.296621 10 40 16.703379 40 25C40 31.16595 36.284426 36.443525 30.978516 38.753906L31.777344 40.585938C37.793433 37.966318 42 31.97005 42 25C42 15.622621 34.377379 8 25 8 z M 25 14C18.936593 14 14 18.936593 14 25C14 29.507111 16.722265 33.390327 20.615234 35.085938L21.414062 33.251953C18.231032 31.865562 16 28.702889 16 25C16 20.017407 20.017407 16 25 16C29.982593 16 34 20.017407 34 25C34 28.702889 31.768968 31.865562 28.585938 33.251953L29.384766 35.085938C33.277735 33.390327 36 29.507111 36 25C36 18.936593 31.063407 14 25 14 z M 25 20C22.250421 20 20 22.250421 20 25C20 27.407209 21.725392 29.43156 24 29.898438L24 48L26 48L26 29.898438C28.274608 29.43156 30 27.407209 30 25C30 22.250421 27.749579 20 25 20 z M 25 22C26.668699 22 28 23.331301 28 25C28 26.668699 26.668699 28 25 28C23.331301 28 22 26.668699 22 25C22 24.791413 22.020885 24.588681 22.060547 24.392578C22.33818 23.019861 23.539888 22 25 22 z" />
</svg>