<?xml version="1.0" encoding="utf-8"?>
<svg xmlns="http://www.w3.org/2000/svg" viewBox="0 0 50 50" width="515" height="515">
  <path d="M24.90625 -0.03125C24.863281 -0.0234375 24.820313 -0.0117188 24.78125 0C24.316406 0.105469 23.988281 0.523438 24 1L24 10.03125C21.808594 10.175781 19.65625 10.800781 17.71875 11.875C17.160156 12.1875 16.75 12.546875 16.375 12.8125C15.917969 13.132813 15.804688 13.761719 16.125 14.21875C16.445313 14.675781 17.074219 14.789063 17.53125 14.46875C17.992188 14.144531 18.339844 13.816406 18.6875 13.625C20.328125 12.714844 22.148438 12.171875 24 12.03125L24 24L12.03125 24C12.097656 23.144531 12.257813 22.285156 12.5 21.4375C12.90625 20.015625 13.585938 18.703125 14.4375 17.5C14.675781 17.179688 14.703125 16.753906 14.507813 16.40625C14.308594 16.0625 13.925781 15.863281 13.53125 15.90625C13.238281 15.9375 12.976563 16.097656 12.8125 16.34375C11.855469 17.695313 11.074219 19.199219 10.59375 20.875C10.300781 21.90625 10.132813 22.949219 10.0625 24L1 24C0.96875 24 0.9375 24 0.90625 24C0.355469 24.027344 -0.0742188 24.496094 -0.046875 25.046875C-0.0195313 25.597656 0.449219 26.027344 1 26L10.0625 26C10.207031 28.179688 10.816406 30.320313 11.90625 32.28125C12.1875 32.792969 12.476563 33.261719 12.78125 33.6875C13.101563 34.144531 13.730469 34.257813 14.1875 33.9375C14.644531 33.617188 14.757813 32.988281 14.4375 32.53125C14.148438 32.121094 13.878906 31.714844 13.65625 31.3125C12.730469 29.640625 12.207031 27.839844 12.0625 26L24 26L24 37.96875C21.632813 37.777344 19.398438 36.910156 17.5 35.5625C17.042969 35.242188 16.414063 35.355469 16.09375 35.8125C15.773438 36.269531 15.886719 36.898438 16.34375 37.21875C18.566406 38.796875 21.203125 39.746094 24 39.9375L24 49C23.996094 49.359375 24.183594 49.695313 24.496094 49.878906C24.808594 50.058594 25.191406 50.058594 25.503906 49.878906C25.816406 49.695313 26.003906 49.359375 26 49L26 39.96875C28.191406 39.824219 30.34375 39.199219 32.28125 38.125C32.839844 37.8125 33.246094 37.453125 33.625 37.1875C34.019531 36.941406 34.191406 36.457031 34.042969 36.019531C33.894531 35.578125 33.460938 35.300781 33 35.34375C32.808594 35.355469 32.625 35.417969 32.46875 35.53125C32.011719 35.855469 31.664063 36.179688 31.3125 36.375C29.671875 37.285156 27.851563 37.828125 26 37.96875L26 26L37.96875 26C37.902344 26.855469 37.742188 27.714844 37.5 28.5625C37.09375 29.984375 36.414063 31.296875 35.5625 32.5C35.320313 32.789063 35.261719 33.1875 35.410156 33.53125C35.558594 33.878906 35.886719 34.113281 36.261719 34.136719C36.636719 34.164063 36.992188 33.976563 37.1875 33.65625C38.144531 32.304688 38.925781 30.800781 39.40625 29.125C39.699219 28.09375 39.867188 27.050781 39.9375 26L49 26C49.359375 26.003906 49.695313 25.816406 49.878906 25.503906C50.058594 25.191406 50.058594 24.808594 49.878906 24.496094C49.695313 24.183594 49.359375 23.996094 49 24L39.9375 24C39.792969 21.820313 39.183594 19.679688 38.09375 17.71875C37.8125 17.207031 37.523438 16.738281 37.21875 16.3125C36.984375 15.96875 36.558594 15.808594 36.15625 15.90625C35.828125 15.980469 35.558594 16.210938 35.4375 16.527344C35.316406 16.84375 35.363281 17.195313 35.5625 17.46875C35.851563 17.878906 36.121094 18.285156 36.34375 18.6875C37.269531 20.359375 37.792969 22.160156 37.9375 24L26 24L26 12.03125C28.367188 12.222656 30.601563 13.089844 32.5 14.4375C32.957031 14.757813 33.585938 14.644531 33.90625 14.1875C34.226563 13.730469 34.113281 13.101563 33.65625 12.78125C31.433594 11.203125 28.796875 10.253906 26 10.0625L26 1C26.011719 0.710938 25.894531 0.433594 25.6875 0.238281C25.476563 0.0390625 25.191406 -0.0585938 24.90625 -0.03125Z" />
</svg>