<?xml version="1.0" encoding="utf-8"?>
<svg xmlns="http://www.w3.org/2000/svg" width="515" height="515" viewBox="0 0 50 50">
  <path d="M9 4 A 1.0001 1.0001 0 0 0 8 5L8 45 A 1.0001 1.0001 0 0 0 9 46L15 46L15 44L10 44L10 6L40 6L40 44L27 44L27 46L41 46 A 1.0001 1.0001 0 0 0 42 45L42 5 A 1.0001 1.0001 0 0 0 41 4L9 4 z M 15 16L15 18L35 18L35 16L15 16 z M 15 22L15 24L35 24L35 22L15 22 z M 21 30C20.226904 30 19.59049 30.437595 19.125 31.042969C18.428643 30.889868 17.693708 30.925893 17.076172 31.419922C16.459526 31.913238 16.293791 32.65971 16.320312 33.380859C15.670196 33.734719 15.141149 34.270294 15.013672 35.035156C14.886787 35.796463 15.204862 36.466729 15.683594 37.005859C15.405575 37.714519 15.371447 38.497328 15.742188 39.115234C15.815249 39.237003 15.907285 39.337939 16 39.4375L16 48 A 1.0001 1.0001 0 0 0 17.599609 48.800781L21 46.25L24.400391 48.800781 A 1.0001 1.0001 0 0 0 26 48L26 39.435547C26.092429 39.336301 26.184953 39.236668 26.257812 39.115234C26.691637 38.392196 26.610319 37.654225 26.330078 36.990234C26.7995 36.452537 27.111981 35.789075 26.986328 35.035156C26.858851 34.270294 26.329804 33.734719 25.679688 33.380859C25.706208 32.65971 25.540474 31.913238 24.923828 31.419922C24.305736 30.925451 23.569912 30.889206 22.873047 31.042969C22.418968 30.459511 21.791529 30 21 30 z M 22.599609 31.099609C22.596209 31.099609 22.624357 31.105469 22.623047 31.105469C22.572601 31.12216 22.519175 31.12814 22.466797 31.136719L22.599609 31.099609 z M 23.019531 31.238281C23.048261 31.262051 23.134865 31.320409 23.107422 31.292969L23.349609 31.683594C23.290879 31.507408 23.118943 31.396457 23.019531 31.238281 z M 21 32C21.319048 32 21.367122 32.06426 21.451172 32.316406 A 1.0001 1.0001 0 0 0 21.693359 32.707031C21.743359 32.757031 21.789219 32.850665 22.052734 32.982422C22.316248 33.114179 22.549609 33.099609 22.599609 33.099609 A 1.0001 1.0001 0 0 0 23.115234 32.957031C23.262149 32.868881 23.531299 32.864879 23.675781 32.980469C23.845658 33.11637 23.857087 33.16898 23.751953 33.484375 A 1.0001 1.0001 0 0 0 23.699219 33.800781C23.699219 33.915927 23.761919 33.935586 23.802734 34.042969 A 1.0001 1.0001 0 0 0 24.634766 34.986328C24.790444 35.012278 24.987725 35.209556 25.013672 35.365234C25.042582 35.538686 24.932072 35.753648 24.785156 35.841797 A 1.0001 1.0001 0 0 0 24.300781 36.699219L24.300781 37 A 1.0001 1.0001 0 0 0 24.5 37.599609C24.528 37.636939 24.580679 38.023091 24.542969 38.085938C24.454819 38.232852 24.237904 38.343362 24.064453 38.314453 A 1.0001 1.0001 0 0 0 23.087891 38.71875C23.040011 38.75543 23.047488 38.737669 22.992188 38.792969 A 1.0001 1.0001 0 0 0 22.699219 39.5C22.699219 39.766667 22.704919 39.778054 22.484375 39.851562 A 1.0001 1.0001 0 0 0 22.353516 39.90625C22.345477 39.910269 22.350301 39.909677 22.347656 39.912109C22.348816 39.90675 22.367446 39.900391 22.300781 39.900391C22.234111 39.900391 22.049115 39.836221 21.90625 39.693359 A 1.0001 1.0001 0 0 0 21.199219 39.400391L21 39.400391L20.800781 39.400391 A 1.0001 1.0001 0 0 0 20.09375 39.693359C19.939454 39.847656 19.754608 39.894848 19.550781 39.841797C19.425648 39.776447 19.300781 39.643265 19.300781 39.5C19.300781 39.308333 19.225392 39.044092 19.101562 38.867188C18.977729 38.690281 18.854388 38.609306 18.792969 38.568359C18.737133 38.531137 18.727187 38.523159 18.732422 38.527344 A 1.0001 1.0001 0 0 0 17.935547 38.314453C17.762096 38.343363 17.54518 38.232852 17.457031 38.085938C17.338618 37.888582 17.32425 37.820271 17.480469 37.625 A 1.0001 1.0001 0 0 0 17.699219 37L17.699219 36.699219 A 1.0001 1.0001 0 0 0 17.214844 35.841797C17.067929 35.753647 16.95742 35.538686 16.986328 35.365234C17.012278 35.209556 17.209556 35.012275 17.365234 34.986328 A 1.0001 1.0001 0 0 0 18.197266 34.042969C18.238076 33.935586 18.300781 33.915927 18.300781 33.800781 A 1.0001 1.0001 0 0 0 18.248047 33.484375C18.142915 33.16898 18.154349 33.11637 18.324219 32.980469C18.468701 32.864883 18.737851 32.868884 18.884766 32.957031 A 1.0001 1.0001 0 0 0 19.945312 32.9375 A 1.0001 1.0001 0 0 0 20.548828 32.316406C20.601253 32.159126 20.844444 32 21 32 z M 16.339844 33.833984C16.359394 33.925914 16.322402 34.029696 16.351562 34.117188L16.310547 33.867188L16.339844 33.833984 z M 25.660156 33.833984L25.689453 33.867188L25.648438 34.117188C25.677598 34.029697 25.640636 33.925913 25.660156 33.833984 z M 18 41.095703C18.220668 41.372796 18.495088 41.595301 18.828125 41.728516 A 1.0001 1.0001 0 0 0 18.882812 41.748047C19.652076 42.004468 20.389681 41.784547 21 41.400391L21.160156 41.400391C21.519072 41.613694 21.838305 41.900391 22.300781 41.900391C22.482203 41.900391 22.854872 41.841011 23.160156 41.714844C23.508399 41.588312 23.784421 41.375238 24 41.111328L24 46L21.599609 44.199219 A 1.0001 1.0001 0 0 0 20.400391 44.199219L18 46L18 41.095703 z" />
</svg>