<?xml version="1.0" encoding="utf-8"?>
<svg xmlns="http://www.w3.org/2000/svg" viewBox="0 0 50 50" width="515" height="515">
  <path d="M42.46875 2.007813C41.25 2.007813 40.03125 2.46875 39.109375 3.390625L37.292969 5.207031C36.941406 5.558594 36.902344 6.117188 37.203125 6.515625L35.078125 8.640625C30.746094 12.972656 27.132813 14.285156 23.503906 15.496094C19.878906 16.707031 16.175781 17.8125 12.371094 21.621094L3.195313 30.792969C1.609375 32.378906 1.609375 34.980469 3.195313 36.570313L8.3125 41.6875L13.429688 46.800781C15.019531 48.390625 17.621094 48.390625 19.207031 46.800781L28.378906 37.628906C32.1875 33.824219 33.292969 30.121094 34.5 26.496094C35.710938 22.867188 37.023438 19.253906 41.359375 14.921875L43.484375 12.796875C43.882813 13.097656 44.441406 13.058594 44.792969 12.707031L46.609375 10.890625C48.457031 9.042969 48.457031 6.019531 46.609375 4.171875L45.828125 3.390625C44.902344 2.46875 43.6875 2.003906 42.46875 2.007813 Z M 42.46875 3.992188C43.171875 3.996094 43.875 4.265625 44.417969 4.804688L45.195313 5.585938C46.277344 6.667969 46.277344 8.394531 45.195313 9.476563L44.09375 10.578125L41.757813 8.242188C41.730469 8.214844 41.699219 8.1875 41.667969 8.164063L39.417969 5.914063L40.519531 4.804688C41.0625 4.265625 41.765625 3.992188 42.46875 3.992188 Z M 25 4C24.449219 4 24 4.449219 24 5C24 5.550781 24.449219 6 25 6C25.550781 6 26 5.550781 26 5C26 4.449219 25.550781 4 25 4 Z M 31 7C30.449219 7 30 7.449219 30 8C30 8.550781 30.449219 9 31 9C31.550781 9 32 8.550781 32 8C32 7.449219 31.550781 7 31 7 Z M 38.609375 7.9375L42.0625 11.390625L39.941406 13.507813C38.441406 15.011719 37.292969 16.453125 36.347656 17.855469L32.144531 13.652344C33.546875 12.707031 34.988281 11.558594 36.492188 10.058594 Z M 30.402344 14.734375L35.265625 19.597656C34.410156 21.113281 33.785156 22.570313 33.269531 23.96875L27.84375 22.15625L26.03125 16.730469C27.429688 16.214844 28.886719 15.589844 30.402344 14.734375 Z M 24.144531 17.390625L26.105469 23.265625C26.203125 23.5625 26.4375 23.796875 26.734375 23.894531L32.609375 25.855469C32.605469 25.855469 32.605469 25.859375 32.605469 25.859375C31.382813 29.53125 30.460938 32.722656 26.96875 36.21875L17.796875 45.390625C16.972656 46.210938 15.667969 46.210938 14.84375 45.390625L4.609375 35.15625C3.789063 34.332031 3.789063 33.027344 4.609375 32.203125L13.78125 23.03125C17.277344 19.539063 20.46875 18.617188 24.140625 17.394531C24.140625 17.394531 24.144531 17.394531 24.144531 17.390625 Z M 44 18C43.449219 18 43 18.449219 43 19C43 19.550781 43.449219 20 44 20C44.550781 20 45 19.550781 45 19C45 18.449219 44.550781 18 44 18 Z M 47 22C46.449219 22 46 22.449219 46 23C46 23.550781 46.449219 24 47 24C47.550781 24 48 23.550781 48 23C48 22.449219 47.550781 22 47 22 Z M 42 24C41.449219 24 41 24.449219 41 25C41 25.550781 41.449219 26 42 26C42.550781 26 43 25.550781 43 25C43 24.449219 42.550781 24 42 24 Z M 23 25C21.894531 25 21 25.894531 21 27C21 28.105469 21.894531 29 23 29C24.105469 29 25 28.105469 25 27C25 25.894531 24.105469 25 23 25 Z M 15.304688 25.566406C15.042969 25.570313 14.796875 25.675781 14.609375 25.859375L8.3125 32.160156C7.921875 32.550781 7.921875 33.1875 8.3125 33.578125L16.421875 41.6875C16.8125 42.074219 17.449219 42.074219 17.839844 41.6875L24.136719 35.386719C24.527344 34.996094 24.527344 34.363281 24.136719 33.972656L16.027344 25.859375C15.835938 25.671875 15.574219 25.566406 15.304688 25.566406 Z M 15.316406 27.984375L22.015625 34.679688L17.128906 39.5625L10.433594 32.871094Z" />
</svg>