<?xml version="1.0" encoding="utf-8"?>
<svg xmlns="http://www.w3.org/2000/svg" viewBox="0 0 50 50" width="515" height="515">
  <path d="M3 0C1.355469 0 0 1.355469 0 3L0 27C0 28.644531 1.355469 30 3 30L17 30L17 28L3 28C2.445313 28 2 27.554688 2 27L2 8L32 8L32 19L34 19L34 3C34 1.355469 32.644531 0 31 0 Z M 4 2L6 2C6 2.550781 6.449219 3 7 3C7.550781 3 8 2.550781 8 2L10 2C10 2.550781 10.449219 3 11 3C11.550781 3 12 2.550781 12 2L14 2C14 2.550781 14.449219 3 15 3C15.550781 3 16 2.550781 16 2L18 2C18 2.550781 18.449219 3 19 3C19.550781 3 20 2.550781 20 2L22 2C22 2.550781 22.449219 3 23 3C23.550781 3 24 2.550781 24 2L26 2C26 2.550781 26.449219 3 27 3C27.550781 3 28 2.550781 28 2L30 2C30 2.550781 30.449219 3 31 3C31.363281 3 31.667969 2.792969 31.84375 2.5C31.933594 2.648438 32 2.8125 32 3L32 6C32 5.449219 31.550781 5 31 5C30.449219 5 30 5.449219 30 6L28 6C28 5.449219 27.550781 5 27 5C26.449219 5 26 5.449219 26 6L24 6C24 5.449219 23.550781 5 23 5C22.449219 5 22 5.449219 22 6L20 6C20 5.449219 19.550781 5 19 5C18.449219 5 18 5.449219 18 6L16 6C16 5.449219 15.550781 5 15 5C14.449219 5 14 5.449219 14 6L12 6C12 5.449219 11.550781 5 11 5C10.449219 5 10 5.449219 10 6L8 6C8 5.449219 7.550781 5 7 5C6.449219 5 6 5.449219 6 6L4 6C4 5.449219 3.550781 5 3 5C2.449219 5 2 5.449219 2 6L2 3C2 2.8125 2.066406 2.648438 2.15625 2.5C2.332031 2.792969 2.636719 3 3 3C3.550781 3 4 2.550781 4 2 Z M 5 3C4.449219 3 4 3.449219 4 4C4 4.550781 4.449219 5 5 5C5.550781 5 6 4.550781 6 4C6 3.449219 5.550781 3 5 3 Z M 9 3C8.449219 3 8 3.449219 8 4C8 4.550781 8.449219 5 9 5C9.550781 5 10 4.550781 10 4C10 3.449219 9.550781 3 9 3 Z M 13 3C12.449219 3 12 3.449219 12 4C12 4.550781 12.449219 5 13 5C13.550781 5 14 4.550781 14 4C14 3.449219 13.550781 3 13 3 Z M 17 3C16.449219 3 16 3.449219 16 4C16 4.550781 16.449219 5 17 5C17.550781 5 18 4.550781 18 4C18 3.449219 17.550781 3 17 3 Z M 21 3C20.449219 3 20 3.449219 20 4C20 4.550781 20.449219 5 21 5C21.550781 5 22 4.550781 22 4C22 3.449219 21.550781 3 21 3 Z M 25 3C24.449219 3 24 3.449219 24 4C24 4.550781 24.449219 5 25 5C25.550781 5 26 4.550781 26 4C26 3.449219 25.550781 3 25 3 Z M 29 3C28.449219 3 28 3.449219 28 4C28 4.550781 28.449219 5 29 5C29.550781 5 30 4.550781 30 4C30 3.449219 29.550781 3 29 3 Z M 8 12C7.476563 12 6.941406 12.183594 6.5625 12.5625C6.183594 12.941406 6 13.476563 6 14L6 20C6 20.523438 6.183594 21.058594 6.5625 21.4375C6.941406 21.816406 7.476563 22 8 22L13 22C13.523438 22 14.058594 21.816406 14.4375 21.4375C14.816406 21.058594 15 20.523438 15 20L15 14C15 13.476563 14.816406 12.941406 14.4375 12.5625C14.058594 12.183594 13.523438 12 13 12 Z M 21 12C20.476563 12 19.941406 12.183594 19.5625 12.5625C19.183594 12.941406 19 13.476563 19 14L19 19L21 19L21 17C21.550781 17 22 16.550781 22 16C22 15.449219 21.550781 15 21 15L21 14L22 14C22 14.550781 22.449219 15 23 15C23.550781 15 24 14.550781 24 14L26 14L26 19L28 19L28 14C28 13.476563 27.816406 12.941406 27.4375 12.5625C27.058594 12.183594 26.523438 12 26 12 Z M 26 16C26 15.449219 25.550781 15 25 15C24.449219 15 24 15.449219 24 16C24 16.550781 24.449219 17 25 17C25.550781 17 26 16.550781 26 16 Z M 8 14L10 14C10 14.550781 10.449219 15 11 15C11.550781 15 12 14.550781 12 14L13 14L13 15C12.449219 15 12 15.449219 12 16C12 16.550781 12.449219 17 13 17L13 19C12.449219 19 12 19.449219 12 20L10 20C10 19.449219 9.550781 19 9 19C8.449219 19 8 19.449219 8 20 Z M 8 16C8 16.550781 8.449219 17 9 17C9.550781 17 10 16.550781 10 16C10 15.449219 9.550781 15 9 15C8.449219 15 8 15.449219 8 16 Z M 11 17C10.449219 17 10 17.449219 10 18C10 18.550781 10.449219 19 11 19C11.550781 19 12 18.550781 12 18C12 17.449219 11.550781 17 11 17 Z M 23 17C22.449219 17 22 17.449219 22 18C22 18.550781 22.449219 19 23 19C23.550781 19 24 18.550781 24 18C24 17.449219 23.550781 17 23 17 Z M 20 20C19.476563 20 18.941406 20.183594 18.5625 20.5625C18.183594 20.941406 18 21.476563 18 22L18 48C18 48.523438 18.183594 49.058594 18.5625 49.4375C18.941406 49.816406 19.476563 50 20 50L48 50C48.523438 50 49.058594 49.816406 49.4375 49.4375C49.816406 49.058594 50 48.523438 50 48L50 22C50 21.476563 49.816406 20.941406 49.4375 20.5625C49.058594 20.183594 48.523438 20 48 20 Z M 20 22L48 22L48 26L20 26 Z M 20 28L48 28C47.449219 28 47 28.449219 47 29C47 29.550781 47.449219 30 48 30L48 32C47.449219 32 47 32.449219 47 33C47 33.550781 47.449219 34 48 34L48 36C47.449219 36 47 36.449219 47 37C47 37.550781 47.449219 38 48 38L48 40C47.449219 40 47 40.449219 47 41C47 41.550781 47.449219 42 48 42L48 44C47.449219 44 47 44.449219 47 45C47 45.550781 47.449219 46 48 46L48 48L20 48L20 46C20.550781 46 21 45.550781 21 45C21 44.449219 20.550781 44 20 44L20 42C20.550781 42 21 41.550781 21 41C21 40.449219 20.550781 40 20 40L20 38C20.550781 38 21 37.550781 21 37C21 36.449219 20.550781 36 20 36L20 34C20.550781 34 21 33.550781 21 33C21 32.449219 20.550781 32 20 32L20 30C20.550781 30 21 29.550781 21 29C21 28.449219 20.550781 28 20 28 Z M 22 48C22.550781 48 23 47.550781 23 47C23 46.449219 22.550781 46 22 46C21.449219 46 21 46.449219 21 47C21 47.550781 21.449219 48 22 48 Z M 26 48C26.550781 48 27 47.550781 27 47C27 46.449219 26.550781 46 26 46C25.449219 46 25 46.449219 25 47C25 47.550781 25.449219 48 26 48 Z M 30 48C30.550781 48 31 47.550781 31 47C31 46.449219 30.550781 46 30 46C29.449219 46 29 46.449219 29 47C29 47.550781 29.449219 48 30 48 Z M 34 48C34.550781 48 35 47.550781 35 47C35 46.449219 34.550781 46 34 46C33.449219 46 33 46.449219 33 47C33 47.550781 33.449219 48 34 48 Z M 38 48C38.550781 48 39 47.550781 39 47C39 46.449219 38.550781 46 38 46C37.449219 46 37 46.449219 37 47C37 47.550781 37.449219 48 38 48 Z M 42 48C42.550781 48 43 47.550781 43 47C43 46.449219 42.550781 46 42 46C41.449219 46 41 46.449219 41 47C41 47.550781 41.449219 48 42 48 Z M 46 48C46.550781 48 47 47.550781 47 47C47 46.449219 46.550781 46 46 46C45.449219 46 45 46.449219 45 47C45 47.550781 45.449219 48 46 48 Z M 44 28C43.449219 28 43 28.449219 43 29C43 29.550781 43.449219 30 44 30C44.550781 30 45 29.550781 45 29C45 28.449219 44.550781 28 44 28 Z M 40 28C39.449219 28 39 28.449219 39 29C39 29.550781 39.449219 30 40 30C40.550781 30 41 29.550781 41 29C41 28.449219 40.550781 28 40 28 Z M 36 28C35.449219 28 35 28.449219 35 29C35 29.550781 35.449219 30 36 30C36.550781 30 37 29.550781 37 29C37 28.449219 36.550781 28 36 28 Z M 32 28C31.449219 28 31 28.449219 31 29C31 29.550781 31.449219 30 32 30C32.550781 30 33 29.550781 33 29C33 28.449219 32.550781 28 32 28 Z M 28 28C27.449219 28 27 28.449219 27 29C27 29.550781 27.449219 30 28 30C28.550781 30 29 29.550781 29 29C29 28.449219 28.550781 28 28 28 Z M 24 28C23.449219 28 23 28.449219 23 29C23 29.550781 23.449219 30 24 30C24.550781 30 25 29.550781 25 29C25 28.449219 24.550781 28 24 28 Z M 22 30C21.449219 30 21 30.449219 21 31C21 31.550781 21.449219 32 22 32C22.550781 32 23 31.550781 23 31C23 30.449219 22.550781 30 22 30 Z M 26 30C25.449219 30 25 30.449219 25 31C25 31.550781 25.449219 32 26 32C26.550781 32 27 31.550781 27 31C27 30.449219 26.550781 30 26 30 Z M 30 30C29.449219 30 29 30.449219 29 31C29 31.550781 29.449219 32 30 32C30.550781 32 31 31.550781 31 31C31 30.449219 30.550781 30 30 30 Z M 34 30C33.449219 30 33 30.449219 33 31C33 31.550781 33.449219 32 34 32C34.550781 32 35 31.550781 35 31C35 30.449219 34.550781 30 34 30 Z M 38 30C37.449219 30 37 30.449219 37 31C37 31.550781 37.449219 32 38 32C38.550781 32 39 31.550781 39 31C39 30.449219 38.550781 30 38 30 Z M 42 30C41.449219 30 41 30.449219 41 31C41 31.550781 41.449219 32 42 32C42.550781 32 43 31.550781 43 31C43 30.449219 42.550781 30 42 30 Z M 46 30C45.449219 30 45 30.449219 45 31C45 31.550781 45.449219 32 46 32C46.550781 32 47 31.550781 47 31C47 30.449219 46.550781 30 46 30 Z M 24 32C23.449219 32 23 32.449219 23 33C23 33.550781 23.449219 34 24 34C24.550781 34 25 33.550781 25 33C25 32.449219 24.550781 32 24 32 Z M 28 32C27.449219 32 27 32.449219 27 33C27 33.550781 27.449219 34 28 34C28.550781 34 29 33.550781 29 33C29 32.449219 28.550781 32 28 32 Z M 28 34L25 34C24.476563 34 23.941406 34.183594 23.5625 34.5625C23.183594 34.941406 23 35.476563 23 36L23 42C23 42.523438 23.183594 43.058594 23.5625 43.4375C23.941406 43.816406 24.476563 44 25 44L30 44C30.523438 44 31.058594 43.816406 31.4375 43.4375C31.816406 43.058594 32 42.523438 32 42C32.550781 42 33 41.550781 33 41C33 40.449219 32.550781 40 32 40L32 38C32.550781 38 33 37.550781 33 37C33 36.449219 32.550781 36 32 36C32 35.476563 31.816406 34.941406 31.4375 34.5625C31.058594 34.183594 30.523438 34 30 34 Z M 28 44C27.449219 44 27 44.449219 27 45C27 45.550781 27.449219 46 28 46C28.550781 46 29 45.550781 29 45C29 44.449219 28.550781 44 28 44 Z M 23 39C23 38.449219 22.550781 38 22 38C21.449219 38 21 38.449219 21 39C21 39.550781 21.449219 40 22 40C22.550781 40 23 39.550781 23 39 Z M 32 32C31.449219 32 31 32.449219 31 33C31 33.550781 31.449219 34 32 34C32.550781 34 33 33.550781 33 33C33 32.449219 32.550781 32 32 32 Z M 36 32C35.449219 32 35 32.449219 35 33C35 33.550781 35.449219 34 36 34C36.550781 34 37 33.550781 37 33C37 32.449219 36.550781 32 36 32 Z M 40 32C39.449219 32 39 32.449219 39 33C39 33.550781 39.449219 34 40 34C40.550781 34 41 33.550781 41 33C41 32.449219 40.550781 32 40 32 Z M 40 34L38 34C37.476563 34 36.941406 34.183594 36.5625 34.5625C36.183594 34.941406 36 35.476563 36 36C35.449219 36 35 36.449219 35 37C35 37.550781 35.449219 38 36 38L36 40C35.449219 40 35 40.449219 35 41C35 41.550781 35.449219 42 36 42C36 42.523438 36.183594 43.058594 36.5625 43.4375C36.941406 43.816406 37.476563 44 38 44L43 44C43.523438 44 44.058594 43.816406 44.4375 43.4375C44.816406 43.058594 45 42.523438 45 42L45 36C45 35.476563 44.816406 34.941406 44.4375 34.5625C44.058594 34.183594 43.523438 34 43 34 Z M 45 39C45 39.550781 45.449219 40 46 40C46.550781 40 47 39.550781 47 39C47 38.449219 46.550781 38 46 38C45.449219 38 45 38.449219 45 39 Z M 40 44C39.449219 44 39 44.449219 39 45C39 45.550781 39.449219 46 40 46C40.550781 46 41 45.550781 41 45C41 44.449219 40.550781 44 40 44 Z M 44 32C43.449219 32 43 32.449219 43 33C43 33.550781 43.449219 34 44 34C44.550781 34 45 33.550781 45 33C45 32.449219 44.550781 32 44 32 Z M 22 34C21.449219 34 21 34.449219 21 35C21 35.550781 21.449219 36 22 36C22.550781 36 23 35.550781 23 35C23 34.449219 22.550781 34 22 34 Z M 34 34C33.449219 34 33 34.449219 33 35C33 35.550781 33.449219 36 34 36C34.550781 36 35 35.550781 35 35C35 34.449219 34.550781 34 34 34 Z M 46 34C45.449219 34 45 34.449219 45 35C45 35.550781 45.449219 36 46 36C46.550781 36 47 35.550781 47 35C47 34.449219 46.550781 34 46 34 Z M 25 36L30 36L30 42L25 42 Z M 38 36L43 36L43 42L38 42 Z M 34 38C33.449219 38 33 38.449219 33 39C33 39.550781 33.449219 40 34 40C34.550781 40 35 39.550781 35 39C35 38.449219 34.550781 38 34 38 Z M 22 42C21.449219 42 21 42.449219 21 43C21 43.550781 21.449219 44 22 44C22.550781 44 23 43.550781 23 43C23 42.449219 22.550781 42 22 42 Z M 34 42C33.449219 42 33 42.449219 33 43C33 43.550781 33.449219 44 34 44C34.550781 44 35 43.550781 35 43C35 42.449219 34.550781 42 34 42 Z M 46 42C45.449219 42 45 42.449219 45 43C45 43.550781 45.449219 44 46 44C46.550781 44 47 43.550781 47 43C47 42.449219 46.550781 42 46 42 Z M 24 44C23.449219 44 23 44.449219 23 45C23 45.550781 23.449219 46 24 46C24.550781 46 25 45.550781 25 45C25 44.449219 24.550781 44 24 44 Z M 32 44C31.449219 44 31 44.449219 31 45C31 45.550781 31.449219 46 32 46C32.550781 46 33 45.550781 33 45C33 44.449219 32.550781 44 32 44 Z M 36 44C35.449219 44 35 44.449219 35 45C35 45.550781 35.449219 46 36 46C36.550781 46 37 45.550781 37 45C37 44.449219 36.550781 44 36 44 Z M 44 44C43.449219 44 43 44.449219 43 45C43 45.550781 43.449219 46 44 46C44.550781 46 45 45.550781 45 45C45 44.449219 44.550781 44 44 44Z" />
</svg>