<?xml version="1.0" encoding="utf-8"?>
<svg xmlns="http://www.w3.org/2000/svg" viewBox="0 0 50 50" width="515" height="515">
  <path d="M25 0C12.859375 0 3 9.859375 3 22C3 27.320313 4.886719 32.195313 8.03125 36L3.3125 36C2.953125 35.996094 2.617188 36.183594 2.433594 36.496094C2.253906 36.808594 2.253906 37.191406 2.433594 37.503906C2.617188 37.816406 2.953125 38.003906 3.3125 38L12 38L12 29.3125C12.003906 29.023438 11.878906 28.75 11.664063 28.558594C11.449219 28.367188 11.160156 28.277344 10.875 28.3125C10.371094 28.375 9.996094 28.804688 10 29.3125L10 35.1875C6.898438 31.664063 5 27.070313 5 22C5 10.941406 13.941406 2 25 2C36.058594 2 45 10.941406 45 22C45 27.285156 42.96875 32.082031 39.625 35.65625C39.332031 35.902344 39.207031 36.296875 39.300781 36.664063C39.394531 37.035156 39.695313 37.320313 40.066406 37.398438C40.441406 37.476563 40.828125 37.332031 41.0625 37.03125C44.738281 33.101563 47 27.800781 47 22C47 9.859375 37.140625 0 25 0 Z M 24.875 7.40625C20.203125 7.492188 17.21875 9.378906 15.9375 12.3125C14.714844 15.105469 14.988281 18.632813 15.875 22.28125C15.398438 22.839844 15.019531 23.589844 15.15625 24.71875C15.304688 25.949219 15.644531 26.824219 16.125 27.4375C16.390625 27.773438 16.738281 27.804688 17.0625 27.96875C17.238281 29.015625 17.53125 30.0625 17.96875 30.9375C18.21875 31.441406 18.503906 31.90625 18.78125 32.28125C18.90625 32.449219 19.085938 32.546875 19.21875 32.6875C19.226563 33.921875 19.230469 34.949219 19.125 36.25C18.800781 37.035156 18.042969 37.667969 16.8125 38.28125C15.542969 38.914063 13.890625 39.5 12.21875 40.21875C10.546875 40.9375 8.828125 41.8125 7.46875 43.1875C6.109375 44.5625 5.148438 46.449219 5 48.9375L4.9375 50L45.0625 50L45 48.9375C44.851563 46.449219 43.886719 44.5625 42.53125 43.1875C41.175781 41.8125 39.476563 40.9375 37.8125 40.21875C36.148438 39.5 34.515625 38.914063 33.25 38.28125C32.035156 37.671875 31.269531 37.054688 30.9375 36.28125C30.828125 34.964844 30.835938 33.929688 30.84375 32.6875C30.972656 32.546875 31.160156 32.449219 31.28125 32.28125C31.554688 31.902344 31.816406 31.4375 32.0625 30.9375C32.488281 30.0625 32.796875 29.011719 32.96875 27.96875C33.28125 27.804688 33.617188 27.765625 33.875 27.4375C34.355469 26.824219 34.695313 25.949219 34.84375 24.71875C34.976563 23.625 34.609375 22.902344 34.15625 22.34375C34.644531 20.757813 35.269531 18.195313 35.0625 15.5625C34.949219 14.125 34.582031 12.691406 33.71875 11.5C32.929688 10.40625 31.648438 9.609375 30.03125 9.28125C28.980469 7.917969 27.089844 7.40625 24.90625 7.40625 Z M 24.90625 9.40625C24.917969 9.40625 24.925781 9.40625 24.9375 9.40625C26.949219 9.414063 28.253906 10.003906 28.625 10.65625L28.875 11.0625L29.34375 11.125C30.734375 11.320313 31.53125 11.878906 32.09375 12.65625C32.65625 13.433594 32.96875 14.519531 33.0625 15.71875C33.25 18.117188 32.558594 20.910156 32.125 22.21875L31.875 23L32.5625 23.40625C32.519531 23.378906 32.945313 23.667969 32.84375 24.5C32.726563 25.480469 32.492188 25.988281 32.3125 26.21875C32.132813 26.449219 32.039063 26.4375 32.03125 26.4375L31.1875 26.5L31.09375 27.3125C31 28.175781 30.652344 29.234375 30.25 30.0625C30.046875 30.476563 29.839844 30.839844 29.65625 31.09375C29.472656 31.347656 29.28125 31.488281 29.375 31.4375L28.84375 31.71875L28.84375 32.3125C28.84375 33.757813 28.785156 34.949219 28.9375 36.625L28.9375 36.75L29 36.875C29.570313 38.410156 30.890625 39.367188 32.34375 40.09375C33.796875 40.820313 35.464844 41.355469 37.03125 42.03125C38.597656 42.707031 40.03125 43.515625 41.09375 44.59375C41.9375 45.449219 42.46875 46.582031 42.75 48L7.25 48C7.53125 46.585938 8.058594 45.449219 8.90625 44.59375C9.972656 43.515625 11.425781 42.707031 13 42.03125C14.574219 41.355469 16.230469 40.820313 17.6875 40.09375C19.144531 39.367188 20.492188 38.410156 21.0625 36.875L21.125 36.625C21.277344 34.949219 21.21875 33.761719 21.21875 32.3125L21.21875 31.71875L20.6875 31.4375C20.777344 31.484375 20.5625 31.347656 20.375 31.09375C20.1875 30.839844 19.957031 30.476563 19.75 30.0625C19.335938 29.234375 18.996094 28.167969 18.90625 27.3125L18.8125 26.5L17.96875 26.4375C17.960938 26.4375 17.867188 26.449219 17.6875 26.21875C17.507813 25.988281 17.273438 25.480469 17.15625 24.5C17.058594 23.667969 17.480469 23.378906 17.4375 23.40625L18.09375 23L17.90625 22.28125C16.964844 18.65625 16.800781 15.363281 17.78125 13.125C18.757813 10.894531 20.75 9.492188 24.90625 9.40625Z" />
</svg>