<?xml version="1.0" encoding="utf-8"?>
<svg xmlns="http://www.w3.org/2000/svg" viewBox="0 0 50 50" width="515" height="515">
  <path d="M1.71875 2C1.6875 2.007813 1.65625 2.019531 1.625 2.03125C1.613281 2.03125 1.605469 2.027344 1.59375 2.03125C1.574219 2.039063 1.550781 2.050781 1.53125 2.0625C0.652344 2.273438 0 3.058594 0 4C0 5.105469 0.894531 6 2 6C3.105469 6 4 5.105469 4 4L8.6875 4C9.933594 4 10.585938 4.253906 11.0625 4.6875C11.53125 5.113281 11.894531 5.84375 12.21875 6.9375L20.21875 39.25C20.519531 40.40625 20.820313 41.578125 21.65625 42.53125C21.996094 42.921875 22.429688 43.230469 22.9375 43.46875C22.359375 44.164063 22 45.035156 22 46C22 48.199219 23.800781 50 26 50C28.199219 50 30 48.199219 30 46C30 45.265625 29.785156 44.59375 29.4375 44L35.5625 44C35.214844 44.59375 35 45.265625 35 46C35 48.199219 36.800781 50 39 50C41.199219 50 43 48.199219 43 46C43 44.972656 42.582031 44.054688 41.9375 43.34375C42.050781 43.039063 42.003906 42.695313 41.820313 42.429688C41.632813 42.160156 41.328125 42 41 42L25.6875 42C24.152344 42 23.570313 41.660156 23.15625 41.1875C22.742188 40.714844 22.453125 39.894531 22.15625 38.75L21.46875 36L39.8125 36C40.230469 36 40.605469 35.738281 40.75 35.34375L47.9375 16.34375C48.066406 16.011719 48.003906 15.632813 47.777344 15.355469C47.554688 15.078125 47.195313 14.941406 46.84375 15C46.484375 15.058594 46.183594 15.3125 46.0625 15.65625L39.125 34L20.96875 34L14.15625 6.46875C14.15625 6.449219 14.15625 6.425781 14.15625 6.40625C13.785156 5.128906 13.304688 4.035156 12.40625 3.21875C11.507813 2.402344 10.242188 2 8.6875 2L2 2C1.96875 2 1.9375 2 1.90625 2C1.875 2 1.84375 2 1.8125 2C1.78125 2 1.75 2 1.71875 2 Z M 33.90625 9.96875C33.863281 9.976563 33.820313 9.988281 33.78125 10C33.40625 10.066406 33.105469 10.339844 33 10.703125C32.894531 11.070313 33.003906 11.460938 33.28125 11.71875L36.5625 15L23 15C22.96875 15 22.9375 15 22.90625 15C22.875 15 22.84375 15 22.8125 15C22.261719 15.050781 21.855469 15.542969 21.90625 16.09375C21.957031 16.644531 22.449219 17.050781 23 17L36.5625 17L33.28125 20.28125C32.882813 20.679688 32.882813 21.320313 33.28125 21.71875C33.679688 22.117188 34.320313 22.117188 34.71875 21.71875L39.71875 16.71875L40.40625 16L39.71875 15.28125L34.71875 10.28125C34.511719 10.058594 34.210938 9.945313 33.90625 9.96875 Z M 26 44C27.117188 44 28 44.882813 28 46C28 47.117188 27.117188 48 26 48C24.882813 48 24 47.117188 24 46C24 44.882813 24.882813 44 26 44 Z M 39 44C40.117188 44 41 44.882813 41 46C41 47.117188 40.117188 48 39 48C37.882813 48 37 47.117188 37 46C37 44.882813 37.882813 44 39 44Z" />
</svg>