<?xml version="1.0" encoding="utf-8"?>
<svg xmlns="http://www.w3.org/2000/svg" viewBox="0 0 50 50" width="515" height="515">
  <path d="M3 3L3 8.6875C2.941406 8.878906 2.941406 9.089844 3 9.28125L3 32L18 32L20 30L5 30L5 10.625L5.5625 10.90625C5.839844 11.039063 6.160156 11.039063 6.4375 10.90625L8 10.125L9.5625 10.90625C9.839844 11.039063 10.160156 11.039063 10.4375 10.90625L12 10.125L13.5625 10.90625C13.839844 11.039063 14.160156 11.039063 14.4375 10.90625L16 10.125L17.5625 10.90625C17.839844 11.039063 18.160156 11.039063 18.4375 10.90625L20 10.125L21.5625 10.90625C21.839844 11.039063 22.160156 11.039063 22.4375 10.90625L24 10.125L25.5625 10.90625C25.839844 11.039063 26.160156 11.039063 26.4375 10.90625L28 10.125L29.5625 10.90625C29.839844 11.039063 30.160156 11.039063 30.4375 10.90625L32 10.125L33.5625 10.90625C33.839844 11.039063 34.160156 11.039063 34.4375 10.90625L36 10.125L37.5625 10.90625C37.839844 11.039063 38.160156 11.039063 38.4375 10.90625L40 10.125L41.5625 10.90625C41.839844 11.039063 42.160156 11.039063 42.4375 10.90625L44 10.125L45 10.625L45 30L36 30L34 32L47 32L47 10.125C47.015625 10.019531 47.015625 9.917969 47 9.8125L47 3 Z M 5 5L45 5L45 8.375L44.4375 8.09375C44.160156 7.960938 43.839844 7.960938 43.5625 8.09375L42 8.875L40.4375 8.09375C40.160156 7.960938 39.839844 7.960938 39.5625 8.09375L38 8.875L36.4375 8.09375C36.160156 7.960938 35.839844 7.960938 35.5625 8.09375L34 8.875L32.4375 8.09375C32.160156 7.960938 31.839844 7.960938 31.5625 8.09375L30 8.875L28.4375 8.09375C28.160156 7.960938 27.839844 7.960938 27.5625 8.09375L26 8.875L24.4375 8.09375C24.160156 7.960938 23.839844 7.960938 23.5625 8.09375L22 8.875L20.4375 8.09375C20.160156 7.960938 19.839844 7.960938 19.5625 8.09375L18 8.875L16.4375 8.09375C16.160156 7.960938 15.839844 7.960938 15.5625 8.09375L14 8.875L12.4375 8.09375C12.160156 7.960938 11.839844 7.960938 11.5625 8.09375L10 8.875L8.4375 8.09375C8.160156 7.960938 7.839844 7.960938 7.5625 8.09375L6 8.875L5 8.375 Z M 8.71875 16C8.167969 16.078125 7.78125 16.589844 7.859375 17.140625C7.9375 17.691406 8.449219 18.078125 9 18L25 18C25.359375 18.003906 25.695313 17.816406 25.878906 17.503906C26.058594 17.191406 26.058594 16.808594 25.878906 16.496094C25.695313 16.183594 25.359375 15.996094 25 16L9 16C8.96875 16 8.9375 16 8.90625 16C8.875 16 8.84375 16 8.8125 16C8.78125 16 8.75 16 8.71875 16 Z M 31.71875 16C31.167969 16.078125 30.78125 16.589844 30.859375 17.140625C30.9375 17.691406 31.449219 18.078125 32 18L41 18C41.359375 18.003906 41.695313 17.816406 41.878906 17.503906C42.058594 17.191406 42.058594 16.808594 41.878906 16.496094C41.695313 16.183594 41.359375 15.996094 41 16L32 16C31.96875 16 31.9375 16 31.90625 16C31.875 16 31.84375 16 31.8125 16C31.78125 16 31.75 16 31.71875 16 Z M 8.71875 21C8.167969 21.078125 7.78125 21.589844 7.859375 22.140625C7.9375 22.691406 8.449219 23.078125 9 23L25 23C25.359375 23.003906 25.695313 22.816406 25.878906 22.503906C26.058594 22.191406 26.058594 21.808594 25.878906 21.496094C25.695313 21.183594 25.359375 20.996094 25 21L9 21C8.96875 21 8.9375 21 8.90625 21C8.875 21 8.84375 21 8.8125 21C8.78125 21 8.75 21 8.71875 21 Z M 34.875 22C34.652344 22.023438 34.441406 22.125 34.28125 22.28125L33.625 22.90625C33.445313 22.746094 33.210938 22.65625 32.96875 22.65625C32.9375 22.65625 32.90625 22.65625 32.875 22.65625C32.777344 22.671875 32.683594 22.703125 32.59375 22.75L27.90625 24.75C27.789063 24.800781 27.683594 24.875 27.59375 24.96875L19.09375 33.5L19.0625 33.5C19.019531 33.527344 18.976563 33.558594 18.9375 33.59375C18.878906 33.640625 18.828125 33.691406 18.78125 33.75C18.746094 33.800781 18.714844 33.851563 18.6875 33.90625L10.84375 41.71875C10.46875 42.097656 10.457031 42.699219 10.8125 43.09375C9.722656 44.21875 9.730469 46.046875 10.84375 47.15625C11.957031 48.269531 13.78125 48.277344 14.90625 47.1875C15.300781 47.542969 15.902344 47.53125 16.28125 47.15625L17 46.4375C17.191406 46.566406 17.417969 46.695313 17.65625 46.8125C18.082031 47.019531 18.59375 47.214844 19.1875 47.21875C19.78125 47.222656 20.460938 46.976563 20.96875 46.46875C21.738281 45.699219 22.707031 44.410156 23.625 43.15625C24.542969 41.902344 25.484375 40.609375 25.65625 40.4375C26 40.09375 26.90625 40.0625 26.90625 40.0625C27.292969 40.152344 27.695313 40.003906 27.933594 39.6875C28.171875 39.371094 28.199219 38.941406 28.003906 38.59375C27.808594 38.25 27.425781 38.054688 27.03125 38.09375C27.03125 38.09375 26.917969 38.066406 26.75 38.0625C26.371094 38.054688 25.644531 38.101563 24.9375 38.5L33.03125 30.40625C33.125 30.316406 33.199219 30.210938 33.25 30.09375L35.25 25.40625C35.394531 25.058594 35.335938 24.664063 35.09375 24.375L35.71875 23.71875C36.042969 23.417969 36.128906 22.941406 35.933594 22.546875C35.742188 22.148438 35.308594 21.929688 34.875 22 Z M 32.75 24.84375L32.78125 24.84375L32.8125 24.875C32.890625 25.011719 32.996094 25.128906 33.125 25.21875L33.15625 25.25L31.46875 29.15625L23.625 37L21 34.375L28.84375 26.53125 Z M 19.5625 35.8125L22.1875 38.4375L16.59375 44.0625L16.5625 44.0625C16.210938 44.152344 15.933594 44.429688 15.84375 44.78125L15.59375 45.03125C15.5625 45.007813 15.53125 44.988281 15.5 44.96875L15.34375 44.84375L13.1875 42.71875C13.1875 42.707031 13.1875 42.699219 13.1875 42.6875L13.15625 42.625C13.117188 42.535156 13.0625 42.449219 13 42.375 Z M 23.5625 39.84375C23.109375 40.429688 22.589844 41.164063 22 41.96875C21.089844 43.214844 20.089844 44.535156 19.5625 45.0625C19.421875 45.203125 19.34375 45.21875 19.1875 45.21875C19.03125 45.21875 18.78125 45.152344 18.53125 45.03125C18.496094 45.011719 18.472656 44.988281 18.4375 44.96875 Z M 12.21875 44.5L13.5 45.78125C13.140625 46.105469 12.597656 46.097656 12.25 45.75C11.902344 45.402344 11.890625 44.859375 12.21875 44.5Z" />
</svg>