<?xml version="1.0" encoding="utf-8"?>
<svg xmlns="http://www.w3.org/2000/svg" viewBox="0 0 50 50" width="515" height="515">
  <path d="M7 2C4.2 2 2 4.2 2 7L2 34C2 36.8 4.2 39 7 39L34 39C36.8 39 39 36.8 39 34L39 9.8007812L37 12L37 34C37 35.7 35.7 37 34 37L7 37C5.3 37 4 35.7 4 34L4 7C4 5.3 5.3 4 7 4L33.400391 4L35.099609 2.0996094C34.699609 2.0996094 34.4 2 34 2L7 2 z M 36.255859 5.3300781L18.921875 24.591797L10.664062 17.251953L9.3359375 18.748047L19.078125 27.408203L37.744141 6.6699219L36.255859 5.3300781 z M 41 11L41 13L43 13C44.7 13 46 14.3 46 16L46 43C46 44.7 44.7 46 43 46L16 46C14.3 46 13 44.7 13 43L13 41L11 41L11 43C11 45.8 13.2 48 16 48L43 48C45.8 48 48 45.8 48 43L48 16C48 13.2 45.8 11 43 11L41 11 z" />
</svg>