<?xml version="1.0" encoding="utf-8"?>
<svg xmlns="http://www.w3.org/2000/svg" viewBox="0 0 50 50" width="515" height="515">
  <path d="M25 2C21.339844 2 18.15625 3.839844 16.15625 6.59375C15.144531 6.285156 14.117188 6 13 6C6.9375 6 2 10.9375 2 17C2 21.640625 4.921875 25.542969 9 27.15625L9 38.6875C8.941406 38.882813 8.941406 39.085938 9 39.28125L9 47C9 47.550781 9.449219 48 10 48L40 48C40.550781 48 41 47.550781 41 47L41 39.1875C41.027344 39.054688 41.027344 38.914063 41 38.78125L41 27.15625C45.078125 25.542969 48 21.640625 48 17C48 10.9375 43.0625 6 37 6C35.882813 6 34.855469 6.285156 33.84375 6.59375C31.84375 3.839844 28.660156 2 25 2 Z M 25 4C28.207031 4 30.996094 5.667969 32.59375 8.1875C32.847656 8.601563 33.363281 8.773438 33.8125 8.59375C34.8125 8.210938 35.875 8 37 8C41.984375 8 46 12.015625 46 17C46 21.039063 43.335938 24.445313 39.6875 25.59375C39.28125 25.726563 39.003906 26.105469 39 26.53125L39 38L11 38L11 26.53125C10.996094 26.105469 10.71875 25.726563 10.3125 25.59375C6.664063 24.445313 4 21.039063 4 17C4 12.015625 8.015625 8 13 8C14.125 8 15.1875 8.210938 16.1875 8.59375C16.636719 8.773438 17.152344 8.601563 17.40625 8.1875C19.003906 5.667969 21.792969 4 25 4 Z M 17.90625 26.96875C17.863281 26.976563 17.820313 26.988281 17.78125 27C17.316406 27.105469 16.988281 27.523438 17 28L17 31C16.996094 31.359375 17.183594 31.695313 17.496094 31.878906C17.808594 32.058594 18.191406 32.058594 18.503906 31.878906C18.816406 31.695313 19.003906 31.359375 19 31L19 28C19.011719 27.710938 18.894531 27.433594 18.6875 27.238281C18.476563 27.039063 18.191406 26.941406 17.90625 26.96875 Z M 24.90625 26.96875C24.863281 26.976563 24.820313 26.988281 24.78125 27C24.316406 27.105469 23.988281 27.523438 24 28L24 32C23.996094 32.359375 24.183594 32.695313 24.496094 32.878906C24.808594 33.058594 25.191406 33.058594 25.503906 32.878906C25.816406 32.695313 26.003906 32.359375 26 32L26 28C26.011719 27.710938 25.894531 27.433594 25.6875 27.238281C25.476563 27.039063 25.191406 26.941406 24.90625 26.96875 Z M 31.90625 26.96875C31.863281 26.976563 31.820313 26.988281 31.78125 27C31.316406 27.105469 30.988281 27.523438 31 28L31 31C30.996094 31.359375 31.183594 31.695313 31.496094 31.878906C31.808594 32.058594 32.191406 32.058594 32.503906 31.878906C32.816406 31.695313 33.003906 31.359375 33 31L33 28C33.011719 27.710938 32.894531 27.433594 32.6875 27.238281C32.476563 27.039063 32.191406 26.941406 31.90625 26.96875 Z M 11 40L39 40L39 46L11 46Z" />
</svg>