<?xml version="1.0" encoding="utf-8"?>
<svg xmlns="http://www.w3.org/2000/svg" viewBox="0 0 523 523" width="515" height="515">
  <path d="M261.7793 94.144531 A 10.461046 10.461046 0 0 0 257.17188 95.078125L27.072266 199.67773 A 10.461046 10.461046 0 0 0 20.939453 209.19922L20.939453 272 A 10.461046 10.461046 0 0 0 35.728516 281.52148L261.5 178.89062L487.27148 281.52148 A 10.461046 10.461046 0 0 0 502.06055 272L502.06055 209.19922 A 10.461046 10.461046 0 0 0 495.92773 199.67773L265.82812 95.078125 A 10.461046 10.461046 0 0 0 261.7793 94.144531 z M 261.5 116.08984L481.14062 215.93555L481.14062 255.75586L265.82812 157.87695 A 10.461046 10.461046 0 0 0 257.17188 157.87695L41.859375 255.75586L41.859375 215.93555L261.5 116.08984 z M 261.7793 240.54297 A 10.461046 10.461046 0 0 0 257.17188 241.47852L27.072266 346.07812 A 10.461046 10.461046 0 0 0 20.939453 355.59961L20.939453 418.40039 A 10.461046 10.461046 0 0 0 35.728516 427.92188L261.5 325.29102L487.27148 427.92188 A 10.461046 10.461046 0 0 0 502.06055 418.40039L502.06055 355.59961 A 10.461046 10.461046 0 0 0 495.92773 346.07812L265.82812 241.47852 A 10.461046 10.461046 0 0 0 261.7793 240.54297 z M 261.5 262.49023L481.14062 362.33594L481.14062 402.1543L265.82812 304.27734 A 10.461046 10.461046 0 0 0 257.17188 304.27734L41.859375 402.1543L41.859375 362.33594L261.5 262.49023 z" />
</svg>