<?xml version="1.0" encoding="utf-8"?>
<svg xmlns="http://www.w3.org/2000/svg" viewBox="0 0 50 50" width="515" height="515">
  <path d="M13 0C9.144531 0 6 3.144531 6 7C6 10.855469 9.144531 14 13 14C16.855469 14 20 10.855469 20 7C20 3.144531 16.855469 0 13 0 Z M 37 0C34.617188 0 32.484375 1.199219 31.21875 3.03125C31.175781 3.050781 31.132813 3.070313 31.09375 3.09375C29.984375 3.570313 28.53125 4.300781 27.3125 5.6875C26.09375 7.074219 25.160156 9.101563 25 11.9375C24.984375 12.214844 25.082031 12.484375 25.269531 12.683594C25.460938 12.886719 25.722656 13 26 13L30 13C30.550781 13 31 12.550781 31 12C31 11.507813 31.011719 11.089844 31.03125 10.65625C32.265625 12.660156 34.484375 14 37 14C39.515625 14 41.734375 12.660156 42.96875 10.65625C42.988281 11.089844 43 11.507813 43 12C43 12.550781 43.449219 13 44 13L48 13C48.277344 13 48.539063 12.886719 48.730469 12.683594C48.917969 12.484375 49.015625 12.214844 49 11.9375C48.839844 9.101563 47.90625 7.074219 46.6875 5.6875C45.46875 4.300781 44.015625 3.570313 42.90625 3.09375C42.867188 3.082031 42.824219 3.070313 42.78125 3.0625C41.519531 1.21875 39.394531 0 37 0 Z M 13 2C15.773438 2 18 4.226563 18 7C18 9.773438 15.773438 12 13 12C10.226563 12 8 9.773438 8 7C8 4.226563 10.226563 2 13 2 Z M 37 2C39.773438 2 42 4.226563 42 7C42 9.773438 39.773438 12 37 12C34.226563 12 32 9.773438 32 7C32 4.226563 34.226563 2 37 2 Z M 29.5625 6.375C29.300781 7.492188 29.125 8.992188 29.0625 11L27.21875 11C27.5 9.222656 28.042969 7.878906 28.8125 7C29.039063 6.742188 29.316406 6.582031 29.5625 6.375 Z M 44.4375 6.375C44.683594 6.582031 44.960938 6.742188 45.1875 7C45.957031 7.878906 46.5 9.222656 46.78125 11L44.9375 11C44.875 8.992188 44.699219 7.492188 44.4375 6.375 Z M 9.40625 14.90625C6.453125 14.90625 3.75 16.875 3.03125 19.75L0.03125 31.4375C0.03125 31.457031 0.03125 31.480469 0.03125 31.5C-0.265625 32.992188 0.625 34.394531 1.96875 34.84375C2.007813 34.855469 2.050781 34.867188 2.09375 34.875C3.503906 35.15625 5.074219 34.375 5.4375 32.875L5.46875 32.875L6 30.90625L6 35.8125C5.992188 35.875 5.992188 35.9375 6 36C6 36.03125 6 36.0625 6 36.09375L6 47C6 48.644531 7.355469 50 9 50C10.644531 50 12 48.644531 12 47L12 37L14 37L14 47C14 48.644531 15.355469 50 17 50C18.644531 50 20 48.644531 20 47L20 36.15625C20.003906 36.105469 20.003906 36.050781 20 36C20 35.96875 20 35.9375 20 35.90625L20 31.1875L20.4375 32.84375C20.761719 34.136719 21.886719 35 23.1875 35C23.289063 35 23.742188 35.164063 24.3125 34.59375L24.25 34.53125C24.449219 34.441406 24.640625 34.3125 24.8125 34.1875C25.109375 34.476563 25.476563 34.714844 25.90625 34.84375C26.171875 34.921875 26.445313 34.964844 26.71875 34.96875L26.46875 35.65625C26.355469 35.960938 26.402344 36.304688 26.585938 36.570313C26.773438 36.839844 27.078125 37 27.40625 37L32 37L32 47C32 48.644531 33.355469 50 35 50C35.765625 50 36.46875 49.699219 37 49.21875C37.53125 49.699219 38.234375 50 39 50C40.644531 50 42 48.644531 42 47L42 37L46.59375 37C46.921875 37 47.226563 36.839844 47.414063 36.570313C47.597656 36.304688 47.644531 35.960938 47.53125 35.65625L47.28125 35C47.476563 34.980469 47.726563 34.914063 48 34.8125L48 34.84375C48.039063 34.832031 48.054688 34.792969 48.09375 34.78125C48.117188 34.769531 48.132813 34.792969 48.15625 34.78125L48.15625 34.75C49.597656 34.203125 50.191406 32.609375 49.75 31.28125C49.75 31.269531 49.75 31.261719 49.75 31.25L45.125 19.15625C44.171875 16.648438 41.707031 15 39 15L34.90625 15C32.199219 15 29.703125 16.648438 28.75 19.15625L25.15625 28.625L22.875 19.75C22.164063 16.898438 19.535156 14.90625 16.5 14.90625 Z M 9.40625 16.90625L16.5 16.90625C18.664063 16.90625 20.449219 18.300781 20.9375 20.25L23.9375 31.9375C23.9375 31.957031 23.9375 31.980469 23.9375 32C24.078125 32.472656 23.851563 32.816406 23.40625 32.90625C23.328125 32.929688 23.257813 32.960938 23.1875 33C22.886719 33 22.453125 32.648438 22.375 32.34375L19.96875 23.15625C19.84375 22.667969 19.375 22.347656 18.875 22.414063C18.375 22.476563 18 22.902344 18 23.40625L18 28L8 28L8 23.40625C8.019531 22.894531 7.648438 22.453125 7.140625 22.382813C6.636719 22.308594 6.15625 22.628906 6.03125 23.125L3.53125 32.34375C3.53125 32.363281 3.53125 32.386719 3.53125 32.40625C3.449219 32.820313 3.082031 32.988281 2.5625 32.90625C2.15625 32.742188 1.890625 32.402344 1.96875 31.9375C1.96875 31.925781 1.964844 31.917969 1.96875 31.90625L4.96875 20.25C5.449219 18.324219 7.359375 16.90625 9.40625 16.90625 Z M 34.90625 17L39 17C40.894531 17 42.605469 18.148438 43.25 19.84375L47.84375 31.90625C47.980469 32.320313 47.832031 32.808594 47.40625 32.9375C47.351563 32.953125 47.300781 32.976563 47.25 33C47.289063 32.980469 47.292969 33 47.09375 33C46.878906 33 46.503906 32.753906 46.34375 32.4375C46.335938 32.421875 46.320313 32.421875 46.3125 32.40625L46.125 31.9375C46.117188 31.90625 46.105469 31.875 46.09375 31.84375L42.9375 23.625C42.730469 23.105469 42.144531 22.855469 41.625 23.0625C41.105469 23.269531 40.855469 23.855469 41.0625 24.375L44.21875 32.46875C44.222656 32.53125 44.234375 32.59375 44.25 32.65625L45.15625 35L28.84375 35L29.75 32.65625C29.777344 32.585938 29.800781 32.511719 29.8125 32.4375L32.9375 24.375C33.144531 23.855469 32.894531 23.269531 32.375 23.0625C31.855469 22.855469 31.269531 23.105469 31.0625 23.625L27.65625 32.4375C27.433594 32.988281 27.089844 33.113281 26.5 32.9375C26.054688 32.804688 25.847656 32.339844 26 32C26.011719 31.988281 26.019531 31.980469 26.03125 31.96875L30.625 19.84375C31.269531 18.148438 33.011719 17 34.90625 17 Z M 8 30L18 30L18 35L8 35 Z M 8 37L10 37L10 47C10 47.554688 9.554688 48 9 48C8.445313 48 8 47.554688 8 47 Z M 16 37L18 37L18 47C18 47.554688 17.554688 48 17 48C16.445313 48 16 47.554688 16 47 Z M 34 37L36 37L36 47C36 47.554688 35.554688 48 35 48C34.445313 48 34 47.554688 34 47 Z M 38 37L40 37L40 47C40 47.554688 39.554688 48 39 48C38.445313 48 38 47.554688 38 47Z" />
</svg>