<?xml version="1.0" encoding="utf-8"?>
<svg xmlns="http://www.w3.org/2000/svg" viewBox="0 0 50 50" width="515" height="515">
  <path d="M18 2L18 14L7 14L7 28L18 28L18 48L32 48L32 28L43 28L43 14L32 14L32 2 Z M 20 4L30 4L30 16L41 16L41 26L30 26L30 46L20 46L20 26L9 26L9 16L20 16 Z M 21.953125 5.953125L21.953125 17.953125L10.953125 17.953125L10.953125 24.046875L21.953125 24.046875L21.953125 44.046875L28.046875 44.046875L28.046875 24.046875L39.046875 24.046875L39.046875 17.953125L28.046875 17.953125L28.046875 5.953125 Z M 24.046875 8.046875L25.953125 8.046875L25.953125 20.046875L36.953125 20.046875L36.953125 21.953125L25.953125 21.953125L25.953125 41.953125L24.046875 41.953125L24.046875 21.953125L13.046875 21.953125L13.046875 20.046875L24.046875 20.046875Z" />
</svg>