<?xml version="1.0" encoding="utf-8"?>
<svg xmlns="http://www.w3.org/2000/svg" viewBox="0 0 50 50" width="515" height="515">
  <path d="M25 2C12.309295 2 2 12.309295 2 25C2 37.690705 12.309295 48 25 48C37.690705 48 48 37.690705 48 25C48 12.309295 37.690705 2 25 2 z M 25 4C36.609824 4 46 13.390176 46 25C46 36.609824 36.609824 46 25 46C13.390176 46 4 36.609824 4 25C4 13.390176 13.390176 4 25 4 z M 17.664062 16L17.664062 34L23.839844 34C29.191844 34 32.335938 30.670141 32.335938 24.994141C32.335938 19.331141 29.178844 16 23.839844 16L17.664062 16 z M 19.910156 18.021484L23.691406 18.021484C27.682406 18.021484 30.039062 20.616531 30.039062 25.019531C30.039063 29.409531 27.708406 31.978516 23.691406 31.978516L19.910156 31.978516L19.910156 18.021484 z" />
</svg>