<?xml version="1.0" encoding="utf-8"?>
<svg xmlns="http://www.w3.org/2000/svg" viewBox="0 0 50 50" width="515" height="515">
  <path d="M25 2C12.264481 2 2 12.264481 2 25C2 37.735519 12.264481 48 25 48C37.735519 48 48 37.735519 48 25C48 12.264481 37.735519 2 25 2 z M 25 4C36.664481 4 46 13.335519 46 25C46 36.664481 36.664481 46 25 46C13.335519 46 4 36.664481 4 25C4 13.335519 13.335519 4 25 4 z M 18.025391 13 A 1.0001 1.0001 0 0 0 17 14L17 36 A 1.0001 1.0001 0 0 0 18.501953 36.865234L37.501953 25.865234 A 1.0001 1.0001 0 0 0 37.501953 24.134766L18.501953 13.134766 A 1.0001 1.0001 0 0 0 18.025391 13 z M 19 15.734375L35.003906 25L19 34.265625L19 15.734375 z" />
</svg>