<?xml version="1.0" encoding="utf-8"?>
<svg xmlns="http://www.w3.org/2000/svg" viewBox="0 0 50 50" width="515" height="515">
  <path d="M25 2C12.309295 2 2 12.309295 2 25C2 37.690705 12.309295 48 25 48C37.690705 48 48 37.690705 48 25C48 12.309295 37.690705 2 25 2 z M 25 4C36.609824 4 46 13.390176 46 25C46 36.609824 36.609824 46 25 46C13.390176 46 4 36.609824 4 25C4 13.390176 13.390176 4 25 4 z M 18.439453 16L18.439453 34L25.462891 34C29.292891 34 31.5625 32.115266 31.5625 28.947266C31.5625 26.565266 30.001922 24.882313 27.544922 24.570312L27.544922 24.369141C29.278922 24.058141 30.650391 22.361234 30.650391 20.490234C30.650391 17.733234 28.630219 16 25.324219 16L18.439453 16 z M 20.685547 17.984375L24.851562 17.984375C27.084563 17.984375 28.380859 19.044906 28.380859 20.878906C28.380859 22.786906 26.996344 23.759766 24.277344 23.759766L20.685547 23.759766L20.685547 17.984375 z M 20.683594 25.693359L24.912109 25.693359C27.781109 25.693359 29.253906 26.752937 29.253906 28.835938C29.253906 30.918937 27.832 32.017578 25.125 32.017578L20.683594 32.017578L20.683594 25.693359 z" />
</svg>