<?xml version="1.0" encoding="utf-8"?>
<svg xmlns="http://www.w3.org/2000/svg" viewBox="0 0 50 50" width="515" height="515">
  <path d="M25 2C12.309295 2 2 12.309295 2 25C2 37.690705 12.309295 48 25 48C37.690705 48 48 37.690705 48 25C48 12.309295 37.690705 2 25 2 z M 25 4C36.609824 4 46 13.390176 46 25C46 36.609824 36.609824 46 25 46C13.390176 46 4 36.609824 4 25C4 13.390176 13.390176 4 25 4 z M 23.888672 16L17.253906 34L19.611328 34L21.419922 28.847656L28.580078 28.847656L30.386719 34L32.744141 34L26.109375 16L23.888672 16 z M 24.900391 18.90625L25.099609 18.90625L27.919922 26.939453L22.080078 26.939453L24.900391 18.90625 z" />
</svg>