<?xml version="1.0" encoding="utf-8"?>
<svg xmlns="http://www.w3.org/2000/svg" viewBox="0 0 50 50" width="515" height="515">
  <path d="M25 2C12.309295 2 2 12.309295 2 25C2 37.690705 12.309295 48 25 48C37.690705 48 48 37.690705 48 25C48 12.309295 37.690705 2 25 2 z M 25 4C36.609824 4 46 13.390176 46 25C46 36.609824 36.609824 46 25 46C13.390176 46 4 36.609824 4 25C4 13.390176 13.390176 4 25 4 z M 25.326172 15.5C20.397172 15.5 17.330078 19.145859 17.330078 25.005859C17.330078 30.852859 20.409844 34.5 25.339844 34.5C29.199844 34.5 32.067875 32.350578 32.671875 29.017578L30.369141 29.017578C29.790141 31.117578 27.866844 32.412109 25.339844 32.412109C21.843844 32.412109 19.65625 29.557859 19.65625 25.005859C19.65625 20.453859 21.843172 17.587891 25.326172 17.587891C27.828172 17.587891 29.765141 19.057484 30.369141 21.396484L32.669922 21.396484C32.129922 17.901484 29.149172 15.5 25.326172 15.5 z" />
</svg>