<?xml version="1.0" encoding="utf-8"?>
<svg xmlns="http://www.w3.org/2000/svg" viewBox="0 0 50 50" width="515" height="515">
  <path d="M25 2C12.309295 2 2 12.309295 2 25C2 37.690705 12.309295 48 25 48C37.690705 48 48 37.690705 48 25C48 12.309295 37.690705 2 25 2 z M 25 4C36.609824 4 46 13.390176 46 25C46 36.609824 36.609824 46 25 46C13.390176 46 4 36.609824 4 25C4 13.390176 13.390176 4 25 4 z M 25.257812 15.5C20.290812 15.5 17.033203 19.260141 17.033203 24.994141C17.033203 30.803141 20.240813 34.5 25.257812 34.5C29.897813 34.5 32.966797 31.532641 32.966797 27.056641L32.966797 24.84375L25.609375 24.84375L25.609375 26.830078L30.716797 26.830078L30.716797 27.269531C30.716797 30.337531 28.515484 32.412109 25.271484 32.412109C21.624484 32.412109 19.361328 29.571141 19.361328 24.994141C19.361328 20.480141 21.661812 17.587891 25.257812 17.587891C27.948813 17.587891 29.772734 18.883938 30.552734 21.335938L32.853516 21.335938C32.199516 17.738938 29.281813 15.5 25.257812 15.5 z" />
</svg>