<?xml version="1.0" encoding="utf-8"?>
<svg xmlns="http://www.w3.org/2000/svg" viewBox="0 0 50 50" width="515" height="515">
  <path d="M25 2C12.309295 2 2 12.309295 2 25C2 37.690705 12.309295 48 25 48C37.690705 48 48 37.690705 48 25C48 12.309295 37.690705 2 25 2 z M 25 4C36.609824 4 46 13.390176 46 25C46 36.609824 36.609824 46 25 46C13.390176 46 4 36.609824 4 25C4 13.390176 13.390176 4 25 4 z M 25 14C21.75218 14 19 16.41423 19 19.5C19 21.331708 19.973872 22.922055 21.441406 23.916016C19.397765 25.04296 18 27.103675 18 29.5C18 33.127137 21.190888 36 25 36C28.809112 36 32 33.127137 32 29.5C32 27.103675 30.602235 25.04296 28.558594 23.916016C30.026128 22.922055 31 21.331708 31 19.5C31 16.41423 28.24782 14 25 14 z M 25 16C27.275028 16 29 17.615208 29 19.5C29 21.384792 27.275028 23 25 23C22.724972 23 21 21.384792 21 19.5C21 17.615208 22.724972 16 25 16 z M 25 25C27.818305 25 30 27.052005 30 29.5C30 31.947995 27.818305 34 25 34C22.181695 34 20 31.947995 20 29.5C20 27.052005 22.181695 25 25 25 z" />
</svg>