<?xml version="1.0" encoding="utf-8"?>
<svg xmlns="http://www.w3.org/2000/svg" viewBox="0 0 50 50" width="515" height="515">
  <path d="M25 2C12.309295 2 2 12.309295 2 25C2 37.690705 12.309295 48 25 48C37.690705 48 48 37.690705 48 25C48 12.309295 37.690705 2 25 2 z M 25 4C36.609824 4 46 13.390176 46 25C46 36.609824 36.609824 46 25 46C13.390176 46 4 36.609824 4 25C4 13.390176 13.390176 4 25 4 z M 37.039062 10.990234 A 1.0001 1.0001 0 0 0 36.265625 11.322266L26.183594 22.244141 A 3 3 0 0 0 25 22 A 3 3 0 0 0 22 25 A 3 3 0 0 0 25 28 A 3 3 0 0 0 25.5 27.958984L29.125 34.486328 A 1.0010694 1.0010694 0 1 0 30.875 33.513672L27.246094 26.984375 A 3 3 0 0 0 28 25 A 3 3 0 0 0 27.652344 23.599609L37.734375 12.677734 A 1.0001 1.0001 0 0 0 37.039062 10.990234 z" />
</svg>