<?xml version="1.0" encoding="utf-8"?>
<svg xmlns="http://www.w3.org/2000/svg" viewBox="0 0 50 50" width="515" height="515">
  <path d="M9 4C6.2545455 4 4 6.2545455 4 9L4 41C4 43.745455 6.2545455 46 9 46L41 46C43.745455 46 46 43.745455 46 41L46 9C46 6.2545455 43.745455 4 41 4L9 4 z M 9 6L41 6C42.654545 6 44 7.3454545 44 9L44 41C44 42.654545 42.654545 44 41 44L9 44C7.3454545 44 6 42.654545 6 41L6 9C6 7.3454545 7.3454545 6 9 6 z M 16.707031 15.292969L15.292969 16.707031L23.585938 25L15.292969 33.292969L16.707031 34.707031L25 26.414062L33.292969 34.707031L34.707031 33.292969L26.414062 25L34.707031 16.707031L33.292969 15.292969L25 23.585938L16.707031 15.292969 z" />
</svg>