<?xml version="1.0" encoding="utf-8"?>
<svg xmlns="http://www.w3.org/2000/svg" viewBox="0 0 50 50" width="515" height="515">
  <path d="M19.875 3.40625C15.203125 3.492188 12.21875 5.378906 10.9375 8.3125C9.714844 11.105469 9.988281 14.632813 10.875 18.28125C10.398438 18.839844 10.019531 19.589844 10.15625 20.71875C10.304688 21.949219 10.644531 22.824219 11.125 23.4375C11.390625 23.773438 11.738281 23.804688 12.0625 23.96875C12.238281 25.015625 12.53125 26.0625 12.96875 26.9375C13.21875 27.441406 13.503906 27.90625 13.78125 28.28125C13.90625 28.449219 14.085938 28.546875 14.21875 28.6875C14.226563 29.921875 14.230469 30.949219 14.125 32.25C13.800781 33.035156 13.042969 33.667969 11.8125 34.28125C10.542969 34.914063 8.890625 35.5 7.21875 36.21875C5.546875 36.9375 3.828125 37.8125 2.46875 39.1875C1.109375 40.5625 0.148438 42.449219 0 44.9375L-0.0625 46L40.0625 46L40 44.9375C39.851563 42.449219 38.886719 40.5625 37.53125 39.1875C36.175781 37.8125 34.476563 36.9375 32.8125 36.21875C31.148438 35.5 29.515625 34.914063 28.25 34.28125C27.035156 33.671875 26.269531 33.054688 25.9375 32.28125C25.828125 30.964844 25.835938 29.933594 25.84375 28.6875C25.976563 28.542969 26.15625 28.449219 26.28125 28.28125C26.554688 27.902344 26.816406 27.4375 27.0625 26.9375C27.488281 26.0625 27.796875 25.011719 27.96875 23.96875C28.28125 23.804688 28.617188 23.765625 28.875 23.4375C29.355469 22.824219 29.695313 21.949219 29.84375 20.71875C29.976563 19.625 29.609375 18.902344 29.15625 18.34375C29.644531 16.757813 30.269531 14.195313 30.0625 11.5625C29.949219 10.125 29.582031 8.691406 28.71875 7.5C27.929688 6.40625 26.648438 5.609375 25.03125 5.28125C23.980469 3.917969 22.089844 3.40625 19.90625 3.40625 Z M 19.90625 5.40625C19.917969 5.40625 19.925781 5.40625 19.9375 5.40625C21.949219 5.414063 23.253906 6.003906 23.625 6.65625L23.875 7.0625L24.34375 7.125C25.734375 7.316406 26.53125 7.878906 27.09375 8.65625C27.65625 9.433594 27.96875 10.519531 28.0625 11.71875C28.25 14.117188 27.558594 16.910156 27.125 18.21875L26.875 19L27.5625 19.40625C27.519531 19.378906 27.945313 19.667969 27.84375 20.5C27.726563 21.480469 27.492188 21.988281 27.3125 22.21875C27.132813 22.449219 27.039063 22.4375 27.03125 22.4375L26.1875 22.5L26.09375 23.3125C26 24.175781 25.652344 25.234375 25.25 26.0625C25.046875 26.476563 24.839844 26.839844 24.65625 27.09375C24.472656 27.347656 24.28125 27.488281 24.375 27.4375L23.84375 27.71875L23.84375 28.3125C23.84375 29.761719 23.785156 30.949219 23.9375 32.625L23.9375 32.75L24 32.875C24.570313 34.410156 25.890625 35.367188 27.34375 36.09375C28.796875 36.820313 30.464844 37.355469 32.03125 38.03125C33.597656 38.707031 35.03125 39.515625 36.09375 40.59375C36.9375 41.449219 37.46875 42.582031 37.75 44L2.25 44C2.53125 42.585938 3.058594 41.449219 3.90625 40.59375C4.972656 39.515625 6.425781 38.707031 8 38.03125C9.574219 37.355469 11.230469 36.820313 12.6875 36.09375C14.144531 35.367188 15.492188 34.410156 16.0625 32.875L16.125 32.625C16.277344 30.949219 16.21875 29.761719 16.21875 28.3125L16.21875 27.71875L15.6875 27.4375C15.777344 27.484375 15.5625 27.347656 15.375 27.09375C15.1875 26.839844 14.957031 26.476563 14.75 26.0625C14.335938 25.234375 13.996094 24.167969 13.90625 23.3125L13.8125 22.5L12.96875 22.4375C12.960938 22.4375 12.867188 22.449219 12.6875 22.21875C12.507813 21.988281 12.273438 21.480469 12.15625 20.5C12.058594 19.667969 12.480469 19.378906 12.4375 19.40625L13.09375 19L12.90625 18.28125C11.964844 14.65625 11.800781 11.363281 12.78125 9.125C13.757813 6.894531 15.75 5.492188 19.90625 5.40625 Z M 37 8C35.09375 8 33.292969 8.355469 31.65625 9C31.136719 9.199219 30.878906 9.777344 31.078125 10.296875C31.277344 10.816406 31.855469 11.074219 32.375 10.875C33.777344 10.320313 35.34375 10 37 10C43.160156 10 48 14.277344 48 19.375C48 24.472656 43.160156 28.71875 37 28.71875C35.949219 28.71875 34.929688 28.609375 33.96875 28.375C33.597656 28.289063 33.210938 28.421875 32.96875 28.71875C32.96875 28.71875 31.835938 30.007813 30 30.59375C30.191406 30.144531 30.558594 29.578125 30.65625 29.21875C30.886719 28.363281 30.90625 27.71875 30.90625 27.71875C30.90625 27.375 30.726563 27.058594 30.4375 26.875C30.203125 26.726563 29.96875 26.570313 29.75 26.40625C29.46875 26.144531 29.0625 26.066406 28.707031 26.203125C28.347656 26.34375 28.097656 26.671875 28.070313 27.058594C28.039063 27.441406 28.230469 27.804688 28.5625 28C28.652344 28.066406 28.753906 28.121094 28.84375 28.1875C28.824219 28.34375 28.839844 28.347656 28.75 28.6875C28.574219 29.34375 28.214844 30.285156 27.46875 31.34375C27.261719 31.648438 27.238281 32.042969 27.410156 32.367188C27.578125 32.695313 27.914063 32.902344 28.28125 32.90625C31.628906 32.921875 33.480469 30.988281 34.03125 30.375C34.992188 30.574219 35.972656 30.71875 37 30.71875C44.09375 30.71875 50 25.726563 50 19.375C50 13.023438 44.09375 8 37 8Z" />
</svg>