<?xml version="1.0" encoding="utf-8"?>
<svg xmlns="http://www.w3.org/2000/svg" viewBox="0 0 50 50" width="515" height="515">
  <path d="M17 5C16.179688 5 15.601563 5.5 15.1875 5.96875C14.773438 6.4375 14.4375 6.96875 14.125 7.46875C13.8125 7.96875 13.527344 8.4375 13.28125 8.71875C13.097656 8.929688 12.976563 8.988281 12.96875 9L3 9C1.355469 9 0 10.355469 0 12L0 39C0 40.644531 1.355469 42 3 42L47 42C48.644531 42 50 40.644531 50 39L50 12C50 10.355469 48.644531 9 47 9L37.03125 9C37.035156 9.003906 37.023438 9 37 9C36.96875 8.976563 36.878906 8.902344 36.71875 8.71875C36.472656 8.4375 36.1875 7.96875 35.875 7.46875C35.5625 6.96875 35.226563 6.4375 34.8125 5.96875C34.398438 5.5 33.820313 5 33 5 Z M 17 7L33 7C32.9375 7 33.066406 7 33.3125 7.28125C33.558594 7.5625 33.84375 8.03125 34.15625 8.53125C34.46875 9.03125 34.8125 9.5625 35.21875 10.03125C35.625 10.5 36.179688 11 37 11L47 11C47.5625 11 48 11.4375 48 12L48 39C48 39.5625 47.5625 40 47 40L3 40C2.4375 40 2 39.5625 2 39L2 12C2 11.4375 2.4375 11 3 11L13 11C13.820313 11 14.375 10.5 14.78125 10.03125C15.1875 9.5625 15.53125 9.03125 15.84375 8.53125C16.15625 8.03125 16.441406 7.5625 16.6875 7.28125C16.933594 7 17.0625 7 17 7 Z M 25 11C17.832031 11 12 16.832031 12 24C12 31.167969 17.832031 37 25 37C32.167969 37 38 31.167969 38 24C38 16.832031 32.167969 11 25 11 Z M 25 13C31.085938 13 36 17.914063 36 24C36 30.085938 31.085938 35 25 35C18.914063 35 14 30.085938 14 24C14 17.914063 18.914063 13 25 13 Z M 8 14C6.894531 14 6 14.894531 6 16C6 17.105469 6.894531 18 8 18L9 18C10.105469 18 11 17.105469 11 16C11 14.894531 10.105469 14 9 14 Z M 25 15C20.042969 15 16 19.042969 16 24C16 28.957031 20.042969 33 25 33C29.957031 33 34 28.957031 34 24C34 19.042969 29.957031 15 25 15 Z M 25 17C28.878906 17 32 20.121094 32 24C32 27.878906 28.878906 31 25 31C21.121094 31 18 27.878906 18 24C18 20.121094 21.121094 17 25 17Z" />
</svg>