<?xml version="1.0" encoding="utf-8"?>
<svg xmlns="http://www.w3.org/2000/svg" viewBox="0 0 50 50" width="515" height="515">
  <path d="M26.8125 5C22.339844 5 19.0625 6.765625 17.34375 9.375C16.992188 9.910156 16.71875 10.472656 16.5 11.0625L16.28125 10.5625C16.113281 10.214844 15.761719 9.996094 15.375 10C11.890625 10 9.292969 11.402344 7.9375 13.5C6.699219 15.410156 6.636719 17.824219 7.40625 20.0625C7.074219 20.519531 6.84375 21.074219 6.9375 21.875C7.042969 22.777344 7.28125 23.445313 7.65625 23.9375C7.816406 24.148438 8.046875 24.148438 8.25 24.28125C8.382813 25.023438 8.574219 25.761719 8.875 26.375C9.054688 26.742188 9.265625 27.058594 9.46875 27.34375C9.535156 27.4375 9.648438 27.507813 9.71875 27.59375C9.722656 28.382813 9.71875 29.058594 9.65625 29.875C9.472656 30.339844 9.042969 30.765625 8.21875 31.1875C7.375 31.621094 6.226563 32.015625 5.0625 32.53125C3.898438 33.046875 2.695313 33.667969 1.71875 34.6875C0.742188 35.707031 0.0429688 37.121094 -0.0625 38.9375C-0.078125 39.214844 0.0195313 39.484375 0.207031 39.683594C0.398438 39.886719 0.660156 40 0.9375 40L7.25 40C7.078125 40.601563 6.949219 41.238281 6.90625 41.9375C6.890625 42.214844 6.988281 42.484375 7.175781 42.683594C7.367188 42.886719 7.628906 43 7.90625 43L42.09375 43C42.371094 43 42.632813 42.886719 42.824219 42.683594C43.011719 42.484375 43.109375 42.214844 43.09375 41.9375C43.050781 41.238281 42.921875 40.601563 42.75 40L49 40C49.277344 40 49.539063 39.886719 49.730469 39.683594C49.917969 39.484375 50.015625 39.214844 50 38.9375C49.894531 37.128906 49.1875 35.730469 48.21875 34.71875C47.25 33.707031 46.0625 33.074219 44.90625 32.5625C43.75 32.050781 42.617188 31.648438 41.78125 31.21875C40.984375 30.808594 40.566406 30.386719 40.375 29.9375C40.3125 29.113281 40.308594 28.425781 40.3125 27.625C40.375 27.542969 40.5 27.492188 40.5625 27.40625C40.761719 27.121094 40.953125 26.804688 41.125 26.4375C41.40625 25.84375 41.585938 25.117188 41.71875 24.40625C41.929688 24.273438 42.175781 24.25 42.34375 24.03125C42.71875 23.539063 42.925781 22.867188 43.03125 21.96875C43.097656 21.40625 43.058594 20.910156 42.875 20.46875C42.824219 20.351563 42.664063 20.296875 42.59375 20.1875C42.800781 19.691406 43.035156 19.234375 43.09375 18.625C43.183594 17.699219 43.136719 16.640625 42.875 15.625C42.613281 14.609375 42.140625 13.625 41.34375 12.84375C40.703125 12.214844 39.800781 11.839844 38.78125 11.6875L38.28125 10.59375C38.121094 10.234375 37.765625 10.003906 37.375 10C35.996094 10 34.597656 10.164063 33.28125 10.5625C32.929688 9.761719 32.460938 9 31.8125 8.375C30.964844 7.558594 29.746094 7.089844 28.375 6.9375L27.6875 5.5625C27.523438 5.226563 27.1875 5.007813 26.8125 5 Z M 26.21875 7.0625L26.8125 8.25C26.976563 8.585938 27.3125 8.804688 27.6875 8.8125C28.921875 8.8125 29.753906 9.179688 30.40625 9.8125C30.945313 10.332031 31.375 11.039063 31.65625 11.84375C31.664063 11.886719 31.675781 11.929688 31.6875 11.96875C31.691406 11.976563 31.683594 11.992188 31.6875 12C31.707031 12.121094 31.75 12.238281 31.8125 12.34375C31.816406 12.351563 31.808594 12.367188 31.8125 12.375C32.078125 13.390625 32.121094 14.507813 32.03125 15.4375C31.941406 16.367188 31.648438 17.113281 31.46875 17.34375C31.269531 17.59375 31.199219 17.925781 31.289063 18.238281C31.375 18.546875 31.605469 18.796875 31.90625 18.90625C31.914063 18.917969 31.894531 18.914063 31.90625 18.9375C31.960938 19.0625 32.015625 19.324219 31.96875 19.71875C31.964844 19.753906 31.972656 19.78125 31.96875 19.8125C31.878906 19.355469 31.484375 19 31 19C30.449219 19 30 19.449219 30 20C30 20.550781 30.449219 21 31 21C31.339844 21 31.632813 20.820313 31.8125 20.5625C31.710938 20.910156 31.589844 21.132813 31.5 21.25C31.351563 21.441406 31.289063 21.40625 31.3125 21.40625C30.839844 21.445313 30.464844 21.8125 30.40625 22.28125C30.324219 23.054688 30.015625 24.003906 29.65625 24.75C29.476563 25.121094 29.285156 25.464844 29.125 25.6875C28.964844 25.910156 28.761719 26.03125 28.875 25.96875C28.550781 26.140625 28.347656 26.476563 28.34375 26.84375C28.34375 27.28125 28.34375 27.683594 28.34375 28.09375C28.230469 28.050781 28.128906 28 28 28C27.449219 28 27 28.449219 27 29C27 29.550781 27.449219 30 28 30C28.148438 30 28.28125 29.964844 28.40625 29.90625C28.421875 30.191406 28.410156 30.433594 28.4375 30.75C28.449219 30.835938 28.46875 30.917969 28.5 31C29.023438 32.425781 30.246094 33.304688 31.5625 33.96875C32.050781 34.214844 32.566406 34.441406 33.09375 34.65625C33.050781 34.769531 33 34.871094 33 35C33 35.550781 33.449219 36 34 36C34.40625 36 34.75 35.75 34.90625 35.40625C35.195313 35.523438 35.496094 35.625 35.78125 35.75C37.1875 36.363281 38.464844 37.066406 39.40625 38.03125C39.976563 38.617188 40.386719 39.367188 40.65625 40.25C40.480469 40.097656 40.25 40 40 40C39.449219 40 39 40.449219 39 41L35 41C35 40.449219 34.550781 40 34 40C33.449219 40 33 40.449219 33 41L29 41C29 40.449219 28.550781 40 28 40C27.449219 40 27 40.449219 27 41L23 41C23 40.449219 22.550781 40 22 40C21.449219 40 21 40.449219 21 41L17 41C17 40.449219 16.550781 40 16 40C15.449219 40 15 40.449219 15 41L11 41C11 40.449219 10.550781 40 10 40C9.75 40 9.519531 40.097656 9.34375 40.25C9.613281 39.375 10.019531 38.648438 10.59375 38.0625C11.539063 37.097656 12.839844 36.363281 14.25 35.75C14.527344 35.628906 14.8125 35.519531 15.09375 35.40625C15.25 35.75 15.59375 36 16 36C16.550781 36 17 35.550781 17 35C17 34.871094 16.949219 34.769531 16.90625 34.65625C17.441406 34.4375 17.96875 34.21875 18.46875 33.96875C19.789063 33.304688 21.003906 32.425781 21.53125 31C21.5625 30.917969 21.582031 30.835938 21.59375 30.75C21.621094 30.433594 21.609375 30.191406 21.625 29.90625C21.746094 29.957031 21.863281 30 22 30C22.550781 30 23 29.550781 23 29C23 28.449219 22.550781 28 22 28C21.886719 28 21.789063 28.027344 21.6875 28.0625C21.6875 27.664063 21.6875 27.269531 21.6875 26.84375C21.683594 26.476563 21.480469 26.140625 21.15625 25.96875C21.265625 26.027344 21.070313 25.914063 20.90625 25.6875C20.742188 25.460938 20.558594 25.121094 20.375 24.75C20.003906 24.003906 19.675781 23.046875 19.59375 22.28125C19.535156 21.8125 19.160156 21.445313 18.6875 21.40625C18.710938 21.40625 18.648438 21.441406 18.5 21.25C18.410156 21.132813 18.289063 20.910156 18.1875 20.5625C18.367188 20.820313 18.660156 21 19 21C19.550781 21 20 20.550781 20 20C20 19.449219 19.550781 19 19 19C18.515625 19 18.121094 19.355469 18.03125 19.8125C18.027344 19.78125 18.035156 19.753906 18.03125 19.71875C17.945313 18.992188 18.328125 18.765625 18.25 18.8125C18.679688 18.554688 18.851563 18.023438 18.65625 17.5625C17.941406 15.953125 17.738281 14.273438 18.0625 12.75C18.074219 12.71875 18.085938 12.6875 18.09375 12.65625C18.269531 11.875 18.589844 11.136719 19.03125 10.46875C20.03125 8.953125 21.753906 7.796875 24.25 7.3125C24.085938 7.492188 24 7.738281 24 8C24 8.550781 24.449219 9 25 9C25.550781 9 26 8.550781 26 8C26 7.621094 25.78125 7.292969 25.46875 7.125C25.71875 7.101563 25.957031 7.074219 26.21875 7.0625 Z M 22 10C21.449219 10 21 10.449219 21 11C21 11.550781 21.449219 12 22 12C22.550781 12 23 11.550781 23 11C23 10.449219 22.550781 10 22 10 Z M 28 10C27.449219 10 27 10.449219 27 11C27 11.550781 27.449219 12 28 12C28.550781 12 29 11.550781 29 11C29 10.449219 28.550781 10 28 10 Z M 36.78125 12.09375L37.125 12.9375C37.289063 13.304688 37.660156 13.539063 38.0625 13.53125C38.941406 13.53125 39.480469 13.800781 39.9375 14.25C40.394531 14.699219 40.742188 15.367188 40.9375 16.125C41.132813 16.882813 41.191406 17.710938 41.125 18.40625C41.058594 19.101563 40.808594 19.664063 40.71875 19.78125C40.535156 20.011719 40.464844 20.316406 40.523438 20.605469C40.585938 20.894531 40.769531 21.140625 41.03125 21.28125C41.054688 21.347656 41.09375 21.492188 41.0625 21.75C40.984375 22.40625 40.828125 22.710938 40.75 22.8125C40.71875 22.851563 40.691406 22.839844 40.6875 22.84375C40.253906 22.925781 39.921875 23.28125 39.875 23.71875C39.816406 24.28125 39.578125 25.003906 39.3125 25.5625C39.179688 25.839844 39.050781 26.089844 38.9375 26.25C38.824219 26.410156 38.6875 26.488281 38.84375 26.40625C38.519531 26.578125 38.316406 26.914063 38.3125 27.28125C38.3125 28.292969 38.269531 29.117188 38.375 30.3125C38.386719 30.398438 38.40625 30.480469 38.4375 30.5625C38.863281 31.742188 39.851563 32.472656 40.875 33C41.898438 33.527344 43.039063 33.90625 44.09375 34.375C45.148438 34.84375 46.097656 35.382813 46.78125 36.09375C47.257813 36.589844 47.578125 37.230469 47.78125 38L42 38C41.957031 37.996094 41.917969 37.996094 41.875 38C41.570313 37.503906 41.230469 37.054688 40.84375 36.65625C39.609375 35.390625 38.066406 34.59375 36.5625 33.9375C35.058594 33.28125 33.597656 32.757813 32.46875 32.1875C31.390625 31.644531 30.726563 31.078125 30.4375 30.40625C30.34375 29.25 30.335938 28.316406 30.34375 27.21875C30.460938 27.089844 30.640625 26.992188 30.75 26.84375C31 26.496094 31.214844 26.085938 31.4375 25.625C31.820313 24.832031 32.089844 23.882813 32.25 22.9375C32.53125 22.785156 32.835938 22.761719 33.0625 22.46875C33.511719 21.890625 33.835938 21.09375 33.96875 19.96875C34.050781 19.28125 33.96875 18.667969 33.75 18.15625C33.675781 17.980469 33.457031 17.902344 33.34375 17.75C33.652344 17.101563 33.949219 16.464844 34.03125 15.625C34.128906 14.640625 34.089844 13.554688 33.875 12.46875C34.769531 12.226563 35.78125 12.136719 36.78125 12.09375 Z M 14.8125 12.125L15.15625 12.84375C15.308594 13.160156 15.617188 13.375 15.96875 13.40625C15.855469 14.84375 16.085938 16.347656 16.625 17.78125C16.230469 18.308594 15.914063 18.996094 16.03125 19.96875C16.164063 21.09375 16.488281 21.890625 16.9375 22.46875C17.175781 22.773438 17.488281 22.8125 17.78125 22.96875C17.949219 23.90625 18.207031 24.84375 18.59375 25.625C18.820313 26.085938 19.058594 26.496094 19.3125 26.84375C19.414063 26.984375 19.578125 27.066406 19.6875 27.1875C19.691406 28.28125 19.710938 29.207031 19.625 30.34375C19.351563 31.039063 18.675781 31.628906 17.5625 32.1875C16.429688 32.757813 14.945313 33.28125 13.4375 33.9375C11.929688 34.59375 10.394531 35.390625 9.15625 36.65625C8.765625 37.054688 8.429688 37.507813 8.125 38C8.082031 37.996094 8.042969 37.996094 8 38L2.15625 38C2.363281 37.226563 2.675781 36.5625 3.15625 36.0625C3.84375 35.347656 4.808594 34.8125 5.875 34.34375C6.941406 33.875 8.09375 33.496094 9.125 32.96875C10.15625 32.441406 11.164063 31.714844 11.59375 30.53125C11.613281 30.449219 11.625 30.367188 11.625 30.28125C11.730469 29.078125 11.71875 28.234375 11.71875 27.21875C11.71875 26.875 11.539063 26.558594 11.25 26.375C11.246094 26.375 11.226563 26.363281 11.1875 26.34375C11.148438 26.3125 11.113281 26.261719 11.0625 26.1875C10.945313 26.027344 10.824219 25.78125 10.6875 25.5C10.414063 24.9375 10.183594 24.214844 10.125 23.65625C10.085938 23.183594 9.71875 22.808594 9.25 22.75C9.242188 22.746094 9.230469 22.753906 9.21875 22.75C9.210938 22.742188 9.230469 22.730469 9.21875 22.71875C9.136719 22.613281 8.984375 22.316406 8.90625 21.65625C8.871094 21.359375 8.929688 21.210938 8.96875 21.15625C9.007813 21.132813 9.003906 21.121094 9 21.125C9.402344 20.863281 9.558594 20.351563 9.375 19.90625C8.558594 18.039063 8.664063 16.082031 9.625 14.59375C10.511719 13.222656 12.242188 12.28125 14.8125 12.125 Z M 19 13C18.449219 13 18 13.449219 18 14C18 14.550781 18.449219 15 19 15C19.550781 15 20 14.550781 20 14C20 13.449219 19.550781 13 19 13 Z M 25 13C24.449219 13 24 13.449219 24 14C24 14.550781 24.449219 15 25 15C25.550781 15 26 14.550781 26 14C26 13.449219 25.550781 13 25 13 Z M 31 13C30.449219 13 30 13.449219 30 14C30 14.550781 30.449219 15 31 15C31.550781 15 32 14.550781 32 14C32 13.449219 31.550781 13 31 13 Z M 22 16C21.449219 16 21 16.449219 21 17C21 17.550781 21.449219 18 22 18C22.550781 18 23 17.550781 23 17C23 16.449219 22.550781 16 22 16 Z M 28 16C27.449219 16 27 16.449219 27 17C27 17.550781 27.449219 18 28 18C28.550781 18 29 17.550781 29 17C29 16.449219 28.550781 16 28 16 Z M 25 19C24.449219 19 24 19.449219 24 20C24 20.550781 24.449219 21 25 21C25.550781 21 26 20.550781 26 20C26 19.449219 25.550781 19 25 19 Z M 22 22C21.449219 22 21 22.449219 21 23C21 23.550781 21.449219 24 22 24C22.550781 24 23 23.550781 23 23C23 22.449219 22.550781 22 22 22 Z M 28 22C27.449219 22 27 22.449219 27 23C27 23.550781 27.449219 24 28 24C28.550781 24 29 23.550781 29 23C29 22.449219 28.550781 22 28 22 Z M 25 25C24.449219 25 24 25.449219 24 26C24 26.550781 24.449219 27 25 27C25.550781 27 26 26.550781 26 26C26 25.449219 25.550781 25 25 25 Z M 25 31C24.449219 31 24 31.449219 24 32C24 32.550781 24.449219 33 25 33C25.550781 33 26 32.550781 26 32C26 31.449219 25.550781 31 25 31 Z M 22 34C21.449219 34 21 34.449219 21 35C21 35.550781 21.449219 36 22 36C22.550781 36 23 35.550781 23 35C23 34.449219 22.550781 34 22 34 Z M 28 34C27.449219 34 27 34.449219 27 35C27 35.550781 27.449219 36 28 36C28.550781 36 29 35.550781 29 35C29 34.449219 28.550781 34 28 34 Z M 13 37C12.449219 37 12 37.449219 12 38C12 38.550781 12.449219 39 13 39C13.550781 39 14 38.550781 14 38C14 37.449219 13.550781 37 13 37 Z M 19 37C18.449219 37 18 37.449219 18 38C18 38.550781 18.449219 39 19 39C19.550781 39 20 38.550781 20 38C20 37.449219 19.550781 37 19 37 Z M 25 37C24.449219 37 24 37.449219 24 38C24 38.550781 24.449219 39 25 39C25.550781 39 26 38.550781 26 38C26 37.449219 25.550781 37 25 37 Z M 31 37C30.449219 37 30 37.449219 30 38C30 38.550781 30.449219 39 31 39C31.550781 39 32 38.550781 32 38C32 37.449219 31.550781 37 31 37 Z M 37 37C36.449219 37 36 37.449219 36 38C36 38.550781 36.449219 39 37 39C37.550781 39 38 38.550781 38 38C38 37.449219 37.550781 37 37 37Z" />
</svg>