<?xml version="1.0" encoding="utf-8"?>
<svg xmlns="http://www.w3.org/2000/svg" viewBox="0 0 50 50" width="515" height="515">
  <path d="M3 7C1.355469 7 0 8.355469 0 10L0 42C0 43.644531 1.355469 45 3 45L10 45L10 43L12 43L12 45L38 45L38 43L40 43L40 45L47 45C48.644531 45 50 43.644531 50 42L50 14C50 12.355469 48.644531 11 47 11L26 11L26 10C26 8.355469 24.644531 7 23 7 Z M 3 9L23 9C23.5625 9 24 9.4375 24 10L24 13L47 13C47.5625 13 48 13.4375 48 14L48 42C48 42.5625 47.5625 43 47 43L42 43L42 41L36 41L36 43L14 43L14 41L8 41L8 43L3 43C2.4375 43 2 42.5625 2 42L2 10C2 9.4375 2.4375 9 3 9 Z M 13.46875 18C10.109375 18.0625 9.703125 20.617188 10.4375 23.5625C10.308594 23.644531 10.101563 23.9375 10.15625 24.40625C10.257813 25.277344 10.59375 25.480469 10.8125 25.5C10.894531 26.3125 11.410156 27.285156 11.6875 27.4375C11.6875 28.015625 11.710938 28.457031 11.65625 29.09375C10.992188 30.949219 6.207031 30.421875 6 34L21 34C20.792969 30.421875 16.039063 30.949219 15.375 29.09375C15.320313 28.457031 15.34375 28.015625 15.34375 27.4375C15.621094 27.285156 16.101563 26.3125 16.1875 25.5C16.40625 25.480469 16.742188 25.277344 16.84375 24.40625C16.898438 23.9375 16.691406 23.675781 16.5625 23.59375C16.914063 22.488281 17.636719 19.042969 15.1875 18.6875C14.933594 18.226563 14.308594 18 13.46875 18 Z M 26 22L26 24L44 24L44 22 Z M 26 27L26 29L44 29L44 27 Z M 26 32L26 34L44 34L44 32Z" />
</svg>