<?xml version="1.0" encoding="utf-8"?>
<svg xmlns="http://www.w3.org/2000/svg" viewBox="0 0 50 50" width="515" height="515">
  <path d="M37.5 4C35.750001 4 34.310226 4.6922556 33.376953 5.7421875C32.443681 6.7921194 32 8.1527779 32 9.5C32 10.847222 32.443681 12.207881 33.376953 13.257812C34.310226 14.307745 35.750001 15 37.5 15C39.249999 15 40.689774 14.307744 41.623047 13.257812C42.556319 12.207882 43 10.847222 43 9.5C43 8.1527779 42.556319 6.7921194 41.623047 5.7421875C40.689774 4.6922556 39.249999 4 37.5 4 z M 37.5 6C38.749999 6 39.560226 6.4327444 40.126953 7.0703125C40.69368 7.7078806 41 8.5972221 41 9.5C41 10.402778 40.69368 11.292119 40.126953 11.929688C39.560226 12.567255 38.749999 13 37.5 13C36.250001 13 35.439774 12.567256 34.873047 11.929688C34.30632 11.292118 34 10.402778 34 9.5C34 8.5972221 34.30632 7.7078806 34.873047 7.0703125C35.439774 6.4327444 36.250001 6 37.5 6 z M 26.5 10C25.381558 10 24.364963 10.426759 23.589844 11.087891L15.134766 17.90625C13.845447 18.809757 13 20.312768 13 22C13 23.64853 13.815059 25.111886 15.042969 26.017578 A 1.0001 1.0001 0 0 0 15.072266 26.039062L22.533203 31.123047L21.044922 39.960938 A 1.0001 1.0001 0 0 0 21.039062 40C21.039062 40 21 40.210542 21 40.5C21 42.421188 22.578812 44 24.5 44C26.2981 44 27.782102 42.617225 27.96875 40.869141L27.958984 40.935547L29.949219 29.521484L29.949219 29.519531C29.974491 29.376711 30 29.20228 30 29C30 27.97627 29.47852 27.060506 28.689453 26.521484L24.337891 23.306641L28.435547 19.681641L31.576172 23.757812C32.117244 24.503092 33.004671 25 34 25L42 25C43.64497 25 45 23.64497 45 22C45 20.35503 43.64497 19 42 19L35.5 19L30.216797 11.970703L30.25 12.019531C29.445924 10.80442 28.06081 10 26.5 10 z M 26.5 12C27.37719 12 28.136063 12.446156 28.583984 13.123047 A 1.0001 1.0001 0 0 0 28.617188 13.171875L34.201172 20.601562 A 1.0001 1.0001 0 0 0 35 21L42 21C42.56503 21 43 21.43497 43 22C43 22.56503 42.56503 23 42 23L34 23C33.663329 23 33.378287 22.838706 33.193359 22.583984 A 1.0001 1.0001 0 0 0 33.177734 22.560547L29.365234 17.613281 A 1.0001 1.0001 0 0 0 27.910156 17.474609L22.087891 22.626953 A 1.0001 1.0001 0 0 0 22.15625 24.179688L27.53125 28.152344 A 1.0001 1.0001 0 0 0 27.5625 28.173828C27.827437 28.354814 28 28.64973 28 29C28 29.03497 27.995099 29.08903 27.980469 29.171875 A 1.0001 1.0001 0 0 0 27.980469 29.175781L25.988281 40.591797 A 1.0001 1.0001 0 0 0 25.980469 40.65625C25.899104 41.418175 25.2839 42 24.5 42C23.659188 42 23 41.340812 23 40.5C23 40.53161 23.019204 40.293436 23.021484 40.265625C23.021618 40.264025 23.023438 40.251953 23.023438 40.251953L24.611328 30.822266 A 1.0001 1.0001 0 0 0 24.1875 29.830078L16.226562 24.402344C15.483711 23.851848 15 22.990938 15 22C15 20.957681 15.525098 20.052116 16.322266 19.513672 A 1.0001 1.0001 0 0 0 16.390625 19.462891L24.867188 12.626953 A 1.0001 1.0001 0 0 0 24.888672 12.609375C25.337555 12.226507 25.884442 12 26.5 12 z M 11 28C6.0412792 28 2 32.041283 2 37C2 41.958717 6.0412792 46 11 46C15.958721 46 20 41.958717 20 37C20 32.041283 15.958721 28 11 28 z M 39 28C34.041279 28 30 32.041283 30 37C30 41.958717 34.041279 46 39 46C43.958721 46 48 41.958717 48 37C48 32.041283 43.958721 28 39 28 z M 11 30C14.877841 30 18 33.122161 18 37C18 40.877839 14.877841 44 11 44C7.1221588 44 4 40.877839 4 37C4 33.122161 7.1221588 30 11 30 z M 39 30C42.877841 30 46 33.122161 46 37C46 40.877839 42.877841 44 39 44C35.122159 44 32 40.877839 32 37C32 33.122161 35.122159 30 39 30 z" />
</svg>