<?xml version="1.0" encoding="utf-8"?>
<svg xmlns="http://www.w3.org/2000/svg" viewBox="0 0 50 50" width="515" height="515">
  <path d="M14.984375 3.9863281 A 1.0001 1.0001 0 0 0 14.839844 4L5 4 A 1.0001 1.0001 0 0 0 4 5L4 14.832031 A 1.0001 1.0001 0 0 0 4 15.158203L4 24.832031 A 1.0001 1.0001 0 0 0 4 25.158203L4 34.832031 A 1.0001 1.0001 0 0 0 4 35.158203L4 45 A 1.0001 1.0001 0 0 0 5 46L14.832031 46 A 1.0001 1.0001 0 0 0 15.158203 46L24.832031 46 A 1.0001 1.0001 0 0 0 25.158203 46L34.832031 46 A 1.0001 1.0001 0 0 0 35.158203 46L45 46 A 1.0001 1.0001 0 0 0 46 45L46 35.167969 A 1.0001 1.0001 0 0 0 46 34.841797L46 25.167969 A 1.0001 1.0001 0 0 0 46 24.841797L46 15.167969 A 1.0001 1.0001 0 0 0 46 14.841797L46 5 A 1.0001 1.0001 0 0 0 45 4L35.154297 4 A 1.0001 1.0001 0 0 0 34.984375 3.9863281 A 1.0001 1.0001 0 0 0 34.839844 4L25.154297 4 A 1.0001 1.0001 0 0 0 24.984375 3.9863281 A 1.0001 1.0001 0 0 0 24.839844 4L15.154297 4 A 1.0001 1.0001 0 0 0 14.984375 3.9863281 z M 6 6L14 6L14 14L6 14L6 6 z M 16 6L24 6L24 14L16 14L16 6 z M 26 6L34 6L34 14L26 14L26 6 z M 36 6L44 6L44 14L36 14L36 6 z M 8 7 A 1 1 0 0 0 7 8 A 1 1 0 0 0 8 9 A 1 1 0 0 0 9 8 A 1 1 0 0 0 8 7 z M 12 7 A 1 1 0 0 0 11 8 A 1 1 0 0 0 12 9 A 1 1 0 0 0 13 8 A 1 1 0 0 0 12 7 z M 18 7 A 1 1 0 0 0 17 8 A 1 1 0 0 0 18 9 A 1 1 0 0 0 19 8 A 1 1 0 0 0 18 7 z M 22 7 A 1 1 0 0 0 21 8 A 1 1 0 0 0 22 9 A 1 1 0 0 0 23 8 A 1 1 0 0 0 22 7 z M 28 7 A 1 1 0 0 0 27 8 A 1 1 0 0 0 28 9 A 1 1 0 0 0 29 8 A 1 1 0 0 0 28 7 z M 32 7 A 1 1 0 0 0 31 8 A 1 1 0 0 0 32 9 A 1 1 0 0 0 33 8 A 1 1 0 0 0 32 7 z M 38 7 A 1 1 0 0 0 37 8 A 1 1 0 0 0 38 9 A 1 1 0 0 0 39 8 A 1 1 0 0 0 38 7 z M 42 7 A 1 1 0 0 0 41 8 A 1 1 0 0 0 42 9 A 1 1 0 0 0 43 8 A 1 1 0 0 0 42 7 z M 8 11 A 1 1 0 0 0 7 12 A 1 1 0 0 0 8 13 A 1 1 0 0 0 9 12 A 1 1 0 0 0 8 11 z M 12 11 A 1 1 0 0 0 11 12 A 1 1 0 0 0 12 13 A 1 1 0 0 0 13 12 A 1 1 0 0 0 12 11 z M 18 11 A 1 1 0 0 0 17 12 A 1 1 0 0 0 18 13 A 1 1 0 0 0 19 12 A 1 1 0 0 0 18 11 z M 22 11 A 1 1 0 0 0 21 12 A 1 1 0 0 0 22 13 A 1 1 0 0 0 23 12 A 1 1 0 0 0 22 11 z M 28 11 A 1 1 0 0 0 27 12 A 1 1 0 0 0 28 13 A 1 1 0 0 0 29 12 A 1 1 0 0 0 28 11 z M 32 11 A 1 1 0 0 0 31 12 A 1 1 0 0 0 32 13 A 1 1 0 0 0 33 12 A 1 1 0 0 0 32 11 z M 38 11 A 1 1 0 0 0 37 12 A 1 1 0 0 0 38 13 A 1 1 0 0 0 39 12 A 1 1 0 0 0 38 11 z M 42 11 A 1 1 0 0 0 41 12 A 1 1 0 0 0 42 13 A 1 1 0 0 0 43 12 A 1 1 0 0 0 42 11 z M 6 16L14 16L14 24L6 24L6 16 z M 16 16L24 16L24 24L16 24L16 16 z M 26 16L34 16L34 24L26 24L26 16 z M 36 16L44 16L44 24L36 24L36 16 z M 8 17 A 1 1 0 0 0 7 18 A 1 1 0 0 0 8 19 A 1 1 0 0 0 9 18 A 1 1 0 0 0 8 17 z M 12 17 A 1 1 0 0 0 11 18 A 1 1 0 0 0 12 19 A 1 1 0 0 0 13 18 A 1 1 0 0 0 12 17 z M 8 21 A 1 1 0 0 0 7 22 A 1 1 0 0 0 8 23 A 1 1 0 0 0 9 22 A 1 1 0 0 0 8 21 z M 12 21 A 1 1 0 0 0 11 22 A 1 1 0 0 0 12 23 A 1 1 0 0 0 13 22 A 1 1 0 0 0 12 21 z M 6 26L14 26L14 34L6 34L6 26 z M 16 26L24 26L24 34L16 34L16 26 z M 26 26L34 26L34 34L26 34L26 26 z M 36 26L44 26L44 34L36 34L36 26 z M 8 27 A 1 1 0 0 0 7 28 A 1 1 0 0 0 8 29 A 1 1 0 0 0 9 28 A 1 1 0 0 0 8 27 z M 12 27 A 1 1 0 0 0 11 28 A 1 1 0 0 0 12 29 A 1 1 0 0 0 13 28 A 1 1 0 0 0 12 27 z M 8 31 A 1 1 0 0 0 7 32 A 1 1 0 0 0 8 33 A 1 1 0 0 0 9 32 A 1 1 0 0 0 8 31 z M 12 31 A 1 1 0 0 0 11 32 A 1 1 0 0 0 12 33 A 1 1 0 0 0 13 32 A 1 1 0 0 0 12 31 z M 6 36L14 36L14 44L6 44L6 36 z M 16 36L24 36L24 44L16 44L16 36 z M 26 36L34 36L34 44L26 44L26 36 z M 36 36L44 36L44 44L36 44L36 36 z M 8 37 A 1 1 0 0 0 7 38 A 1 1 0 0 0 8 39 A 1 1 0 0 0 9 38 A 1 1 0 0 0 8 37 z M 12 37 A 1 1 0 0 0 11 38 A 1 1 0 0 0 12 39 A 1 1 0 0 0 13 38 A 1 1 0 0 0 12 37 z M 8 41 A 1 1 0 0 0 7 42 A 1 1 0 0 0 8 43 A 1 1 0 0 0 9 42 A 1 1 0 0 0 8 41 z M 12 41 A 1 1 0 0 0 11 42 A 1 1 0 0 0 12 43 A 1 1 0 0 0 13 42 A 1 1 0 0 0 12 41 z" />
</svg>