<?xml version="1.0" encoding="utf-8"?>
<svg xmlns="http://www.w3.org/2000/svg" viewBox="0 0 50 50" width="515" height="515">
  <path d="M24.982422 2 A 1.0001 1.0001 0 0 0 24.535156 2.1132812L3.5351562 13.113281 A 1.0001 1.0001 0 0 0 3 14L3 45 A 1.0001 1.0001 0 0 0 4 46L21 46L29 46L46 46 A 1.0001 1.0001 0 0 0 47 45L47 14 A 1.0001 1.0001 0 0 0 46.464844 13.113281L25.464844 2.1132812 A 1.0001 1.0001 0 0 0 24.982422 2 z M 25 4.1289062L45 14.605469L45 44L30 44L30 35 A 1.0001 1.0001 0 0 0 29 34L21 34 A 1.0001 1.0001 0 0 0 20 35L20 44L5 44L5 14.605469L25 4.1289062 z M 8 16 A 1.0001 1.0001 0 0 0 7 17L7 22 A 1.0001 1.0001 0 0 0 8 23L15 23 A 1.0001 1.0001 0 0 0 16 22L16 17 A 1.0001 1.0001 0 0 0 15 16L8 16 z M 21 16 A 1.0001 1.0001 0 0 0 20 17L20 22 A 1.0001 1.0001 0 0 0 21 23L29 23 A 1.0001 1.0001 0 0 0 30 22L30 17 A 1.0001 1.0001 0 0 0 29 16L21 16 z M 35 16 A 1.0001 1.0001 0 0 0 34 17L34 22 A 1.0001 1.0001 0 0 0 35 23L42 23 A 1.0001 1.0001 0 0 0 43 22L43 17 A 1.0001 1.0001 0 0 0 42 16L35 16 z M 9 18L14 18L14 21L9 21L9 18 z M 22 18L28 18L28 21L22 21L22 18 z M 36 18L41 18L41 21L36 21L36 18 z M 8 25 A 1.0001 1.0001 0 0 0 7 26L7 31 A 1.0001 1.0001 0 0 0 8 32L15 32 A 1.0001 1.0001 0 0 0 16 31L16 26 A 1.0001 1.0001 0 0 0 15 25L8 25 z M 21 25 A 1.0001 1.0001 0 0 0 20 26L20 31 A 1.0001 1.0001 0 0 0 21 32L29 32 A 1.0001 1.0001 0 0 0 30 31L30 26 A 1.0001 1.0001 0 0 0 29 25L21 25 z M 35 25 A 1.0001 1.0001 0 0 0 34 26L34 31 A 1.0001 1.0001 0 0 0 35 32L42 32 A 1.0001 1.0001 0 0 0 43 31L43 26 A 1.0001 1.0001 0 0 0 42 25L35 25 z M 9 27L14 27L14 30L9 30L9 27 z M 22 27L28 27L28 30L22 30L22 27 z M 36 27L41 27L41 30L36 30L36 27 z M 8 34 A 1.0001 1.0001 0 0 0 7 35L7 40 A 1.0001 1.0001 0 0 0 8 41L15 41 A 1.0001 1.0001 0 0 0 16 40L16 35 A 1.0001 1.0001 0 0 0 15 34L8 34 z M 35 34 A 1.0001 1.0001 0 0 0 34 35L34 40 A 1.0001 1.0001 0 0 0 35 41L42 41 A 1.0001 1.0001 0 0 0 43 40L43 35 A 1.0001 1.0001 0 0 0 42 34L35 34 z M 9 36L14 36L14 39L9 39L9 36 z M 22 36L28 36L28 44L22 44L22 36 z M 36 36L41 36L41 39L36 39L36 36 z" />
</svg>