<?xml version="1.0" encoding="utf-8"?>
<svg xmlns="http://www.w3.org/2000/svg" viewBox="0 0 50 50" width="515" height="515">
  <path d="M10 4C6.15625 4 3 7.15625 3 11L3 14C3 14.550781 3.449219 15 4 15L9 15L9 45C9 45.550781 9.449219 46 10 46L24 46L24 44L11 44L11 15L30 15C30.550781 15 31 14.550781 31 14L31 11C31 8.246094 33.246094 6 36 6C36.03125 6 36.0625 6 36.09375 6C38.804688 6.050781 41 8.277344 41 11L41 44L36 44L36 46L42 46C42.550781 46 43 45.550781 43 45L43 11C43 7.207031 39.929688 4.082031 36.15625 4C36.105469 4 36.050781 4 36 4 Z M 10 6L31.15625 6C29.839844 7.273438 29 9.035156 29 11L29 13L5 13L5 11C5 8.246094 7.246094 6 10 6 Z M 16 18L16 20L36 20L36 18 Z M 16 24L16 26L36 26L36 24 Z M 30 30C29.226563 30 28.589844 30.429688 28.125 31.03125C27.429688 30.878906 26.679688 30.914063 26.0625 31.40625C25.449219 31.898438 25.289063 32.65625 25.3125 33.375C24.664063 33.730469 24.128906 34.265625 24 35.03125C23.875 35.789063 24.214844 36.460938 24.6875 37C24.40625 37.710938 24.378906 38.503906 24.75 39.125C24.816406 39.238281 24.914063 39.3125 25 39.40625L25 48C24.996094 48.378906 25.207031 48.726563 25.546875 48.898438C25.882813 49.070313 26.289063 49.039063 26.59375 48.8125L30 46.25L33.40625 48.8125C33.710938 49.039063 34.117188 49.070313 34.453125 48.898438C34.792969 48.726563 35.003906 48.378906 35 48L35 39.40625C35.085938 39.3125 35.183594 39.238281 35.25 39.125C35.683594 38.402344 35.589844 37.664063 35.3125 37C35.785156 36.460938 36.125 35.789063 36 35.03125C35.871094 34.265625 35.335938 33.730469 34.6875 33.375C34.710938 32.65625 34.550781 31.898438 33.9375 31.40625C33.320313 30.914063 32.570313 30.878906 31.875 31.03125C31.421875 30.457031 30.785156 30 30 30 Z M 32 31.21875C32.042969 31.25 32.125 31.3125 32.09375 31.28125L32.0625 31.3125C32.042969 31.28125 32.019531 31.25 32 31.21875 Z M 30 32C30.320313 32 30.351563 32.058594 30.4375 32.3125C30.488281 32.464844 30.574219 32.605469 30.6875 32.71875C30.738281 32.769531 30.800781 32.835938 31.0625 32.96875C31.324219 33.101563 31.542969 33.09375 31.59375 33.09375C31.777344 33.101563 31.964844 33.058594 32.125 32.96875C32.273438 32.878906 32.542969 32.851563 32.6875 32.96875C32.855469 33.105469 32.855469 33.152344 32.75 33.46875C32.710938 33.578125 32.6875 33.695313 32.6875 33.8125C32.6875 33.949219 32.757813 33.96875 32.8125 34.09375C32.847656 34.542969 33.179688 34.917969 33.625 35C33.78125 35.027344 33.972656 35.21875 34 35.375C34.027344 35.546875 33.929688 35.753906 33.78125 35.84375C33.492188 36.027344 33.3125 36.34375 33.3125 36.6875L33.3125 37C33.308594 37.210938 33.375 37.421875 33.5 37.59375C33.527344 37.632813 33.570313 38.03125 33.53125 38.09375C33.441406 38.242188 33.234375 38.339844 33.0625 38.3125C32.695313 38.246094 32.320313 38.390625 32.09375 38.6875C32.09375 38.699219 32.09375 38.707031 32.09375 38.71875C32.058594 38.746094 32.074219 38.742188 32.03125 38.78125C32.019531 38.792969 32.011719 38.769531 32 38.78125C31.800781 38.96875 31.691406 39.226563 31.6875 39.5C31.6875 39.765625 31.6875 39.769531 31.46875 39.84375C31.425781 39.863281 31.382813 39.882813 31.34375 39.90625C31.335938 39.902344 31.363281 39.90625 31.3125 39.90625C31.246094 39.90625 31.050781 39.832031 30.90625 39.6875C30.714844 39.5 30.453125 39.398438 30.1875 39.40625L29.8125 39.40625C29.546875 39.398438 29.285156 39.5 29.09375 39.6875C28.929688 39.851563 28.75 39.917969 28.53125 39.84375C28.410156 39.777344 28.3125 39.640625 28.3125 39.5C28.3125 39.308594 28.21875 39.050781 28.09375 38.875C27.980469 38.714844 27.878906 38.636719 27.8125 38.59375C27.582031 38.363281 27.257813 38.257813 26.9375 38.3125C26.765625 38.339844 26.558594 38.242188 26.46875 38.09375C26.351563 37.894531 26.3125 37.820313 26.46875 37.625C26.609375 37.449219 26.6875 37.226563 26.6875 37L26.6875 36.6875C26.6875 36.34375 26.507813 36.027344 26.21875 35.84375C26.070313 35.753906 25.972656 35.546875 26 35.375C26.027344 35.21875 26.21875 35.027344 26.375 35C26.820313 34.917969 27.152344 34.542969 27.1875 34.09375C27.242188 33.96875 27.3125 33.949219 27.3125 33.8125C27.3125 33.695313 27.289063 33.578125 27.25 33.46875C27.144531 33.152344 27.144531 33.105469 27.3125 32.96875C27.457031 32.851563 27.726563 32.878906 27.875 32.96875C28.183594 33.148438 28.566406 33.148438 28.875 32.96875C28.886719 32.96875 28.894531 32.96875 28.90625 32.96875C28.917969 32.957031 28.925781 32.949219 28.9375 32.9375C28.957031 32.929688 28.980469 32.917969 29 32.90625C29.261719 32.796875 29.46875 32.582031 29.5625 32.3125C29.613281 32.15625 29.84375 32 30 32 Z M 27 41.0625C27.226563 41.351563 27.5 41.582031 27.84375 41.71875C27.855469 41.730469 27.863281 41.738281 27.875 41.75C28.632813 42.003906 29.363281 41.78125 29.96875 41.40625C29.976563 41.402344 29.992188 41.410156 30 41.40625L30.1875 41.40625C30.542969 41.613281 30.859375 41.90625 31.3125 41.90625C31.484375 41.90625 31.828125 41.832031 32.125 41.71875C32.140625 41.703125 32.167969 41.695313 32.1875 41.6875C32.207031 41.679688 32.230469 41.699219 32.25 41.6875L32.25 41.65625C32.558594 41.527344 32.804688 41.332031 33 41.09375L33 46L30.59375 44.1875C30.242188 43.925781 29.757813 43.925781 29.40625 44.1875L27 46Z" />
</svg>