<?xml version="1.0" encoding="utf-8"?>
<svg xmlns="http://www.w3.org/2000/svg" viewBox="0 0 50 50" width="515" height="515">
  <path d="M25 0C20.664063 0 16.984375 3.015625 15.84375 7.09375C14.789063 7.386719 14 8.359375 14 9.5L14 12.5C14 13.867188 15.132813 15 16.5 15C17 15 17.484375 14.851563 17.875 14.59375C19.195313 17.199219 21.886719 19 25 19C28.113281 19 30.804688 17.199219 32.125 14.59375C32.515625 14.851563 33 15 33.5 15C34.867188 15 36 13.867188 36 12.5L36 9.5C36 8.359375 35.210938 7.386719 34.15625 7.09375C33.015625 3.015625 29.339844 0 25 0 Z M 25 19L21.3125 19C21.3125 19 21.171875 19.023438 21.125 19.03125C18.410156 19.074219 15.488281 19.941406 13.90625 22.71875L6 37L3 37C1.355469 37 0 38.355469 0 40L0 47C0 48.644531 1.355469 50 3 50L47 50C48.644531 50 50 48.644531 50 47L50 40C50 38.355469 48.644531 37 47 37L44 37L36.09375 22.71875C34.523438 19.960938 31.636719 19.089844 28.9375 19.03125C28.921875 19.027344 28.875 19 28.875 19C28.875 19 28.6875 19 28.6875 19 Z M 25 2C28.328125 2 31.144531 4.265625 32.125 7.40625C30.804688 4.800781 28.113281 3 25 3C21.886719 3 19.195313 4.800781 17.875 7.40625C18.847656 4.261719 21.664063 2 25 2 Z M 25 5C28.324219 5 31 7.675781 31 11C31 14.324219 28.324219 17 25 17C21.675781 17 19 14.324219 19 11C19 7.675781 21.675781 5 25 5 Z M 16.40625 9C16.476563 9.019531 16.550781 9.027344 16.625 9.03125C16.644531 9.035156 16.667969 9.023438 16.6875 9.03125C16.699219 9.03125 16.707031 9.03125 16.71875 9.03125C16.886719 9.109375 17 9.292969 17 9.5L17 12.5C17 12.785156 16.785156 13 16.5 13C16.214844 13 16 12.785156 16 12.5L16 9.5C16 9.246094 16.171875 9.042969 16.40625 9 Z M 33.4375 9C33.480469 9.003906 33.519531 9.003906 33.5625 9C33.8125 9.03125 34 9.234375 34 9.5L34 12.5C34 12.785156 33.785156 13 33.5 13C33.214844 13 33 12.785156 33 12.5L33 9.5C33 9.234375 33.1875 9.03125 33.4375 9 Z M 28.5 20.96875C28.546875 20.976563 28.6875 21 28.6875 21C31.085938 21.007813 33.148438 21.589844 34.34375 23.6875L41.71875 37L37.59375 37L32.875 28.5C32.675781 28.144531 32.277344 27.949219 31.875 28C31.371094 28.0625 30.996094 28.492188 31 29L31 41L19 41L19 29C19.003906 28.710938 18.878906 28.4375 18.664063 28.246094C18.449219 28.054688 18.160156 27.964844 17.875 28C17.558594 28.039063 17.28125 28.222656 17.125 28.5L12.40625 37L8.28125 37L15.65625 23.6875C16.851563 21.589844 18.914063 21.003906 21.3125 21C21.3125 21 21.46875 21 21.46875 21L28.53125 21C28.53125 21 28.511719 20.972656 28.5 20.96875 Z M 17 32.875L17 41C17.0625 41 16.933594 41 16.6875 40.71875C16.441406 40.4375 16.15625 39.96875 15.84375 39.46875C15.53125 38.96875 15.1875 38.4375 14.78125 37.96875C14.667969 37.835938 14.515625 37.71875 14.375 37.59375 Z M 33 32.875L35.625 37.5625C35.476563 37.691406 35.335938 37.832031 35.21875 37.96875C34.8125 38.4375 34.46875 38.96875 34.15625 39.46875C33.84375 39.96875 33.558594 40.4375 33.3125 40.71875C33.066406 41 32.9375 41 33 41 Z M 3 39L6.0625 39C6.355469 39.15625 6.707031 39.15625 7 39L13 39C13.03125 39.023438 13.121094 39.097656 13.28125 39.28125C13.527344 39.5625 13.8125 40.03125 14.125 40.53125C14.4375 41.03125 14.773438 41.5625 15.1875 42.03125C15.601563 42.5 16.179688 43 17 43L33 43C33.820313 43 34.398438 42.5 34.8125 42.03125C35.226563 41.5625 35.5625 41.03125 35.875 40.53125C36.1875 40.03125 36.472656 39.5625 36.71875 39.28125C36.878906 39.097656 36.96875 39.023438 37 39L47 39C47.5625 39 48 39.4375 48 40L48 47C48 47.5625 47.5625 48 47 48L3 48C2.4375 48 2 47.5625 2 47L2 40C2 39.4375 2.4375 39 3 39Z" />
</svg>