<?xml version="1.0" encoding="utf-8"?>
<svg xmlns="http://www.w3.org/2000/svg" viewBox="0 0 50 50" width="515" height="515">
  <path d="M25.001953 1 A 1.0001 1.0001 0 0 0 24.433594 1.1757812L1.4335938 16.976562 A 1.0001 1.0001 0 0 0 1 17.800781L1 22.300781 A 1.0001 1.0001 0 0 0 2.5683594 23.123047L5 21.441406L5 46 A 1.0001 1.0001 0 0 0 6 47L17 47 A 1.0001 1.0001 0 0 0 18 46L18 33C18 29.122516 21.122516 26 25 26C28.877484 26 32 29.122516 32 33L32 46 A 1.0001 1.0001 0 0 0 33 47L44 47 A 1.0001 1.0001 0 0 0 45 46L45 21.441406L47.431641 23.123047 A 1.0001 1.0001 0 0 0 49 22.300781L49 17.800781 A 1.0001 1.0001 0 0 0 48.566406 16.976562L25.566406 1.1757812 A 1.0001 1.0001 0 0 0 25.001953 1 z M 25 3.2128906L47 18.326172L47 20.392578L25.568359 5.578125 A 1.0001 1.0001 0 0 0 24.431641 5.578125L3 20.392578L3 18.326172L25 3.2128906 z M 25 7.6152344L43 20.058594L43 45L34 45L34 33C34 28.041484 29.958516 24 25 24C20.041484 24 16 28.041484 16 33L16 45L7 45L7 20.058594L25 7.6152344 z" />
</svg>