<?xml version="1.0" encoding="utf-8"?>
<svg xmlns="http://www.w3.org/2000/svg" viewBox="0 0 50 50" width="515" height="515">
  <path d="M25 7C15.0625 7 7 15.0625 7 25C7 34.9375 15.0625 43 25 43C34.9375 43 43 34.9375 43 25C43 15.0625 34.9375 7 25 7 Z M 25 9C33.859375 9 41 16.140625 41 25C41 33.859375 33.859375 41 25 41C16.140625 41 9 33.859375 9 25C9 16.140625 16.140625 9 25 9 Z M 24 14L24 16.1875C22.398438 16.386719 19.5 17.789063 19.5 21.1875C19.5 27.585938 28.8125 24.292969 28.8125 29.09375C28.8125 30.695313 28.101563 32.1875 25 32.1875C21.898438 32.1875 21 29.800781 21 28.5L19 28.5C19.300781 32.800781 22.300781 33.792969 24 34.09375L24 36L26 36L26 34.09375C27.5 33.992188 31 32.90625 31 28.90625C31 25.605469 28.289063 24.695313 25.6875 24.09375C23.585938 23.59375 21.6875 23.101563 21.6875 21C21.6875 20.101563 22.09375 18.09375 25.09375 18.09375C27.195313 18.09375 28.199219 19.398438 28.5 21L30.5 21C29.898438 18.800781 28.898438 16.8125 26 16.3125L26 14Z" />
</svg>