<?xml version="1.0" encoding="utf-8"?>
<svg xmlns="http://www.w3.org/2000/svg" viewBox="0 0 50 50" width="515" height="515">
  <path d="M37.90625 8.96875C37.863281 8.976563 37.820313 8.988281 37.78125 9C37.554688 9.054688 37.355469 9.1875 37.21875 9.375L12.9375 38.5L1.71875 27.28125C1.320313 26.882813 0.679688 26.882813 0.28125 27.28125C-0.117188 27.679688 -0.117188 28.320313 0.28125 28.71875L12.28125 40.71875C12.484375 40.921875 12.765625 41.03125 13.050781 41.011719C13.339844 40.992188 13.605469 40.851563 13.78125 40.625L38.78125 10.625C39.058594 10.3125 39.113281 9.863281 38.917969 9.492188C38.722656 9.125 38.320313 8.914063 37.90625 8.96875 Z M 48.90625 8.96875C48.863281 8.976563 48.820313 8.988281 48.78125 9C48.554688 9.054688 48.355469 9.1875 48.21875 9.375L23.9375 38.5L21.375 35.96875C21.132813 35.671875 20.746094 35.535156 20.371094 35.621094C20 35.707031 19.707031 36 19.621094 36.371094C19.535156 36.746094 19.671875 37.132813 19.96875 37.375L23.28125 40.71875C23.484375 40.921875 23.765625 41.03125 24.050781 41.011719C24.339844 40.992188 24.605469 40.851563 24.78125 40.625L49.78125 10.625C50.058594 10.3125 50.113281 9.863281 49.917969 9.492188C49.722656 9.125 49.320313 8.914063 48.90625 8.96875Z" />
</svg>