<?xml version="1.0" encoding="utf-8"?>
<svg xmlns="http://www.w3.org/2000/svg" viewBox="0 0 50 50" width="515" height="515">
  <path d="M8.992188 3.992188C8.582031 3.992188 8.21875 4.238281 8.0625 4.613281C7.910156 4.992188 8 5.421875 8.292969 5.707031L27.585938 25L8.292969 44.292969C8.03125 44.542969 7.925781 44.917969 8.019531 45.265625C8.109375 45.617188 8.382813 45.890625 8.734375 45.980469C9.082031 46.074219 9.457031 45.96875 9.707031 45.707031L30.414063 25L9.707031 4.292969C9.519531 4.097656 9.261719 3.992188 8.992188 3.992188 Z M 21.988281 3.992188C21.582031 3.992188 21.21875 4.238281 21.0625 4.613281C20.910156 4.992188 21 5.421875 21.292969 5.707031L40.585938 25L21.292969 44.292969C21.03125 44.542969 20.925781 44.917969 21.019531 45.265625C21.109375 45.617188 21.382813 45.890625 21.734375 45.980469C22.082031 46.074219 22.457031 45.96875 22.707031 45.707031L43.414063 25L22.707031 4.292969C22.519531 4.097656 22.261719 3.992188 21.988281 3.992188Z" />
</svg>