<?xml version="1.0" encoding="utf-8"?>
<svg xmlns="http://www.w3.org/2000/svg" viewBox="0 0 50 50" width="515" height="515">
  <path d="M25 2C22.25 2 20 4.25 20 7C20 9.75 22.25 12 25 12C27.75 12 30 9.75 30 7C30 4.25 27.75 2 25 2 Z M 25 4C26.667969 4 28 5.332031 28 7C28 8.667969 26.667969 10 25 10C23.332031 10 22 8.667969 22 7C22 5.332031 23.332031 4 25 4 Z M 25 13C19.488281 13 15 17.488281 15 23L15 32.675781L18.519531 34.082031L19.25 48L30.75 48L31.480469 34.082031L35 32.675781L35 23C35 17.488281 30.511719 13 25 13 Z M 24 15.066406L24 16L26 16L26 15.066406C29.953125 15.558594 33 18.910156 33 23L33 31.324219L29.550781 32.703125L28.851563 46L21.148438 46L20.449219 32.703125L17 31.324219L17 23C17 18.910156 20.046875 15.558594 24 15.066406 Z M 24 17L24 27L26 27L26 17Z" />
</svg>