<?xml version="1.0" encoding="utf-8"?>
<svg xmlns="http://www.w3.org/2000/svg" viewBox="0 0 50 50" width="515" height="515">
  <path d="M32.59375 4C31.816406 4 31.054688 4.285156 30.46875 4.875L3.875 31.75C2.707031 32.929688 2.707031 34.878906 3.875 36.0625L13.4375 45.71875C13.628906 45.902344 13.890625 46.003906 14.15625 46L41 46C41.390625 46.058594 41.78125 45.878906 41.996094 45.546875C42.210938 45.214844 42.210938 44.785156 41.996094 44.453125C41.78125 44.121094 41.390625 43.941406 41 44L25.03125 44L47.125 21.6875C48.292969 20.507813 48.296875 18.558594 47.125 17.375L34.75 4.875C34.164063 4.285156 33.371094 4 32.59375 4 Z M 32.59375 6C32.84375 6 33.113281 6.109375 33.3125 6.3125L45.6875 18.8125C45.949219 19.074219 46.015625 19.421875 45.9375 19.75C45.820313 19.328125 45.460938 19 45 19C44.449219 19 44 19.449219 44 20C44 20.542969 44.429688 20.984375 44.96875 21L43 22.96875C42.984375 22.429688 42.542969 22 42 22C41.449219 22 41 22.449219 41 23C41 23.542969 41.429688 23.984375 41.96875 24L40 26C40 25.449219 39.550781 25 39 25C38.449219 25 38 25.449219 38 26C38 26.550781 38.449219 27 39 27L37 29C37 28.449219 36.550781 28 36 28C35.449219 28 35 28.449219 35 29C35 29.550781 35.449219 30 36 30C36.023438 30 36.042969 30 36.0625 30L33.96875 32.09375C33.972656 32.058594 34 32.035156 34 32C34 31.449219 33.550781 31 33 31C32.8125 31 32.648438 31.066406 32.5 31.15625L30.8125 29.5625C30.925781 29.402344 31 29.210938 31 29C31 28.449219 30.550781 28 30 28C29.75 28 29.519531 28.097656 29.34375 28.25L27.71875 26.71875C27.898438 26.539063 28 26.277344 28 26C28 25.449219 27.550781 25 27 25C26.699219 25 26.433594 25.132813 26.25 25.34375L24.59375 23.78125C24.835938 23.597656 25 23.324219 25 23C25 22.449219 24.550781 22 24 22C23.648438 22 23.367188 22.195313 23.1875 22.46875L21.4375 20.875C21.761719 20.710938 22 20.390625 22 20C22 19.449219 21.550781 19 21 19C20.585938 19 20.246094 19.265625 20.09375 19.625L19.53125 19.09375C19.484375 19.046875 19.429688 19.003906 19.375 18.96875L31.90625 6.3125C32.105469 6.109375 32.34375 6 32.59375 6 Z M 33 7C32.449219 7 32 7.449219 32 8C32 8.550781 32.449219 9 33 9C33.550781 9 34 8.550781 34 8C34 7.449219 33.550781 7 33 7 Z M 30 10C29.449219 10 29 10.449219 29 11C29 11.550781 29.449219 12 30 12C30.550781 12 31 11.550781 31 11C31 10.449219 30.550781 10 30 10 Z M 36 10C35.449219 10 35 10.449219 35 11C35 11.550781 35.449219 12 36 12C36.550781 12 37 11.550781 37 11C37 10.449219 36.550781 10 36 10 Z M 27 13C26.449219 13 26 13.449219 26 14C26 14.550781 26.449219 15 27 15C27.550781 15 28 14.550781 28 14C28 13.449219 27.550781 13 27 13 Z M 33 13C32.449219 13 32 13.449219 32 14C32 14.550781 32.449219 15 33 15C33.550781 15 34 14.550781 34 14C34 13.449219 33.550781 13 33 13 Z M 39 13C38.449219 13 38 13.449219 38 14C38 14.550781 38.449219 15 39 15C39.550781 15 40 14.550781 40 14C40 13.449219 39.550781 13 39 13 Z M 24 16C23.449219 16 23 16.449219 23 17C23 17.550781 23.449219 18 24 18C24.550781 18 25 17.550781 25 17C25 16.449219 24.550781 16 24 16 Z M 30 16C29.449219 16 29 16.449219 29 17C29 17.550781 29.449219 18 30 18C30.550781 18 31 17.550781 31 17C31 16.449219 30.550781 16 30 16 Z M 36 16C35.449219 16 35 16.449219 35 17C35 17.550781 35.449219 18 36 18C36.550781 18 37 17.550781 37 17C37 16.449219 36.550781 16 36 16 Z M 42 16C41.449219 16 41 16.449219 41 17C41 17.550781 41.449219 18 42 18C42.550781 18 43 17.550781 43 17C43 16.449219 42.550781 16 42 16 Z M 27 19C26.449219 19 26 19.449219 26 20C26 20.550781 26.449219 21 27 21C27.550781 21 28 20.550781 28 20C28 19.449219 27.550781 19 27 19 Z M 33 19C32.449219 19 32 19.449219 32 20C32 20.550781 32.449219 21 33 21C33.550781 21 34 20.550781 34 20C34 19.449219 33.550781 19 33 19 Z M 39 19C38.449219 19 38 19.449219 38 20C38 20.550781 38.449219 21 39 21C39.550781 21 40 20.550781 40 20C40 19.449219 39.550781 19 39 19 Z M 17.96875 20.40625C18.023438 20.476563 18.085938 20.539063 18.15625 20.59375L32.34375 33.75L22.1875 44L14.59375 44L5.3125 34.625C4.910156 34.21875 4.914063 33.589844 5.3125 33.1875 Z M 30 22C29.449219 22 29 22.449219 29 23C29 23.550781 29.449219 24 30 24C30.550781 24 31 23.550781 31 23C31 22.449219 30.550781 22 30 22 Z M 36 22C35.449219 22 35 22.449219 35 23C35 23.550781 35.449219 24 36 24C36.550781 24 37 23.550781 37 23C37 22.449219 36.550781 22 36 22 Z M 33 25C32.449219 25 32 25.449219 32 26C32 26.550781 32.449219 27 33 27C33.550781 27 34 26.550781 34 26C34 25.449219 33.550781 25 33 25Z" />
</svg>