<?xml version="1.0" encoding="utf-8"?>
<svg xmlns="http://www.w3.org/2000/svg" viewBox="0 0 50 50" width="515" height="515">
  <path d="M24.947266 3.4003906 A 1.0001 1.0001 0 0 0 24.134766 3.9003906L0.13476562 45.5 A 1.0001 1.0001 0 0 0 1 47L49 47 A 1.0001 1.0001 0 0 0 49.865234 45.5L25.865234 3.9003906 A 1.0001 1.0001 0 0 0 25.046875 3.4003906 A 1.0001 1.0001 0 0 0 24.947266 3.4003906 z M 25 6.4003906L47.269531 45L2.7304688 45L25 6.4003906 z M 23.800781 18.900391C23.500781 18.900391 23.400391 19.100781 23.400391 19.300781L23.400391 33.800781C23.400391 34.100781 23.600781 34.199219 23.800781 34.199219L26.099609 34.199219C26.399609 34.199219 26.5 34.000781 26.5 33.800781L26.5 19.300781C26.5 19.000781 26.299609 18.900391 26.099609 18.900391L23.800781 18.900391 z M 23.800781 37C23.500781 37 23.400391 37.200391 23.400391 37.400391L23.400391 40C23.400391 40.3 23.600781 40.400391 23.800781 40.400391L26.199219 40.400391C26.499219 40.400391 26.599609 40.2 26.599609 40L26.599609 37.400391C26.599609 37.100391 26.399219 37 26.199219 37L23.800781 37 z" />
</svg>