<?xml version="1.0" encoding="utf-8"?>
<svg xmlns="http://www.w3.org/2000/svg" viewBox="0 0 50 50" width="515" height="515">
  <path d="M25 2C14.196036 2 5.1225839 9.4734257 2.6621094 19.525391 A 1.0001 1.0001 0 0 0 2.5371094 20.066406C2.1886997 21.656441 2 23.306284 2 25C2 37.690705 12.309295 48 25 48C28.560265 48 31.932988 47.187942 34.943359 45.740234 A 1.0001 1.0001 0 0 0 35.332031 45.542969C41.676502 42.341703 46.338829 36.290995 47.632812 29.076172 A 1.0006407 1.0006407 0 0 0 47.666016 28.880859C47.881158 27.618485 48 26.323132 48 25C48 17.009164 43.910404 9.9651652 37.714844 5.8417969 A 1.0001 1.0001 0 0 0 37.353516 5.6113281C33.782853 3.3295758 29.546461 2 25 2 z M 25 4C28.935139 4 32.602148 5.0981797 35.748047 6.9765625L35.074219 8.6210938 A 1.0001 1.0001 0 0 0 35.105469 9.4472656L35.783203 10.802734L34.292969 12.292969 A 1.0001 1.0001 0 0 0 34.105469 12.552734L34 12.763672L33.894531 12.552734 A 1.0001 1.0001 0 0 0 33 12L30 12 A 1.0001 1.0001 0 0 0 29.292969 12.292969L27.292969 14.292969L25.292969 16.292969 A 1.0001 1.0001 0 0 0 25.292969 17.707031L27.585938 20L27 20 A 1.0001 1.0001 0 0 0 26.292969 20.292969L24.292969 22.292969L22.585938 24L21 24 A 1.0001 1.0001 0 0 0 20 25L20 27 A 1.0001 1.0001 0 0 0 21 28L22.308594 28L19.628906 29.072266 A 1.0001 1.0001 0 0 0 19.105469 29.552734L17.105469 33.552734 A 1.0001 1.0001 0 0 0 17.029297 34.242188L18.029297 38.242188 A 1.0001 1.0001 0 0 0 18.683594 38.949219L21.683594 39.949219 A 1.0001 1.0001 0 0 0 22.316406 39.949219L24.851562 39.103516L27 40.535156L27 44 A 1.0001 1.0001 0 0 0 27.292969 44.707031L28.322266 45.736328C27.240149 45.907887 26.130863 46 25 46C13.390176 46 4 36.609824 4 25C4 23.534759 4.1508242 22.104726 4.4355469 20.724609L5.9589844 20.097656L7.5527344 20.894531 A 1.0001 1.0001 0 0 0 8.9902344 20.140625L9.9023438 13.753906L11 13.388672L11 14 A 1.0001 1.0001 0 0 0 12.447266 14.894531L16.236328 13L18 13 A 1.0001 1.0001 0 0 0 18.832031 12.554688L20.832031 9.5546875 A 1.0001 1.0001 0 0 0 20.894531 8.5527344L19.894531 6.5527344 A 1.0001 1.0001 0 0 0 18.552734 6.1054688L18 6.3828125L18 6 A 1.0001 1.0001 0 0 0 17.710938 5.2988281C19.981286 4.4599906 22.435856 4 25 4 z M 14.720703 7L16 7L16 8 A 1.0001 1.0001 0 0 0 17.447266 8.8945312L18.552734 8.3417969L18.845703 8.9277344L17.464844 11L16 11 A 1.0001 1.0001 0 0 0 15.552734 11.105469L13 12.382812L13 12.169922 A 1.0001 1.0001 0 0 0 13.001953 12.154297L14.720703 7 z M 37.447266 8.1074219C42.628317 11.929329 46 18.058489 46 25C46 25.518978 45.974387 26.031549 45.9375 26.541016L45.734375 26.320312 A 1.0001 1.0001 0 0 0 45.023438 26 A 1.0001 1.0001 0 0 0 44.757812 26.029297L40.757812 27.029297 A 1.0001 1.0001 0 0 0 40 28L40 29 A 1.0001 1.0001 0 0 0 40.552734 29.894531L41.658203 30.447266L40.253906 33.253906L39.447266 33.658203L37 28.763672L37 28 A 1.0001 1.0001 0 0 0 36 27L33.720703 27L33.246094 25.578125L37.330078 23.943359 A 1.0001163 1.0001163 0 0 0 37.371094 23.927734 A 1.0001 1.0001 0 0 0 37.421875 23.90625 A 1.0001163 1.0001163 0 0 0 37.4375 23.898438 A 1.0001 1.0001 0 0 0 37.503906 23.863281 A 1.0001 1.0001 0 0 0 37.511719 23.859375 A 1.0001163 1.0001163 0 0 0 37.515625 23.857422 A 1.0001 1.0001 0 0 0 37.59375 23.804688 A 1.0001 1.0001 0 0 0 37.332031 22.046875L35.447266 21.105469 A 1.0001 1.0001 0 0 0 34.105469 21.552734L33.291016 23.181641L30.683594 24.050781 A 1.0001 1.0001 0 0 0 30.105469 24.552734L29.876953 25.011719L28.832031 23.445312 A 1.0001 1.0001 0 0 0 27.683594 23.050781L25.703125 23.710938L25.707031 23.707031L27.414062 22L29.847656 22 A 1.0001 1.0001 0 0 0 30.945312 21.382812L32.832031 18.554688 A 1.0001 1.0001 0 0 0 32.707031 17.292969L31.707031 16.292969 A 1.0001 1.0001 0 0 0 30.990234 15.990234 A 1.0001 1.0001 0 0 0 30.292969 17.707031L30.712891 18.126953L29.84375 19.429688L27.414062 17L28.707031 15.707031L30.414062 14L32.382812 14L33.09375 15.421875L33.105469 15.447266 A 1.0001 1.0001 0 0 0 33.130859 15.492188 A 1.0001 1.0001 0 0 0 33.144531 15.517578 A 1.0001 1.0001 0 0 0 33.175781 15.564453 A 1.0001 1.0001 0 0 0 33.210938 15.613281 A 1.0001 1.0001 0 0 0 33.21875 15.623047 A 1.0001 1.0001 0 0 0 33.265625 15.679688 A 1.0001 1.0001 0 0 0 33.3125 15.726562 A 1.0001 1.0001 0 0 0 33.335938 15.748047 A 1.0001 1.0001 0 0 0 33.408203 15.804688 A 1.0001 1.0001 0 0 0 33.472656 15.849609 A 1.0001 1.0001 0 0 0 33.498047 15.865234 A 1.0001 1.0001 0 0 0 33.580078 15.90625 A 1.0001 1.0001 0 0 0 33.638672 15.931641 A 1.0001 1.0001 0 0 0 33.691406 15.951172 A 1.0001 1.0001 0 0 0 33.71875 15.958984 A 1.0001 1.0001 0 0 0 33.783203 15.974609 A 1.0001 1.0001 0 0 0 33.857422 15.988281 A 1.0001 1.0001 0 0 0 33.867188 15.990234 A 1.0001 1.0001 0 0 0 33.869141 15.990234 A 1.0001 1.0001 0 0 0 33.929688 15.996094 A 1.0001 1.0001 0 0 0 33.992188 16 A 1.0001 1.0001 0 0 0 34 16 A 1.0001 1.0001 0 0 0 34.294922 15.955078 A 1.0001 1.0001 0 0 0 34.564453 15.826172 A 1.0001 1.0001 0 0 0 34.716797 15.697266 A 1.0001 1.0001 0 0 0 34.783203 15.621094 A 1.0001 1.0001 0 0 0 34.890625 15.453125 A 1.0001 1.0001 0 0 0 34.894531 15.447266L35.822266 13.591797L37.707031 11.707031 A 1.0001 1.0001 0 0 0 37.894531 10.552734L37.097656 8.9589844L37.447266 8.1074219 z M 12.140625 8.4160156L11.208984 11.208984L8.6835938 12.050781 A 1.0001 1.0001 0 0 0 8.3203125 12.265625C9.4233835 10.82226 10.705818 9.5296363 12.140625 8.4160156 z M 8.1054688 12.554688 A 1.0001 1.0001 0 0 0 8.0097656 12.859375L7.2070312 18.484375L6.4472656 18.105469 A 1.0001 1.0001 0 0 0 5.6191406 18.076172L5.0996094 18.291016C5.7997993 16.209425 6.8285816 14.28613 8.1054688 12.554688 z M 22.078125 16.001953C21.948469 15.991859 21.815094 16.008484 21.683594 16.052734C21.159594 16.227734 20.875781 16.792406 21.050781 17.316406L21.357422 18.234375C21.335422 18.252375 21.313969 18.271969 21.292969 18.292969L20.292969 19.292969C20.006969 19.578969 19.921172 20.008813 20.076172 20.382812C20.231172 20.755813 20.596 21 21 21L23 21C23.321 21 23.623547 20.846938 23.810547 20.585938C23.998547 20.324938 24.049266 19.988594 23.947266 19.683594L22.947266 16.683594C22.816766 16.291344 22.467094 16.032234 22.078125 16.001953 z M 27.591797 25.189453L29.167969 27.554688 A 1.0001 1.0001 0 0 0 30.894531 27.447266L31.414062 26.408203L32.050781 28.316406 A 1.0001 1.0001 0 0 0 32.214844 28.617188L30.111328 28.966797L25.371094 27.072266 A 1.0001 1.0001 0 0 0 24.980469 27 A 1.0001 1.0001 0 0 0 24.628906 27.072266L24.150391 27.263672L25.541016 25.875L27.591797 25.189453 z M 44.667969 28.113281L45.595703 29.117188C44.566712 34.306536 41.616514 38.784988 37.53125 41.830078L38.863281 39.505859L41.857422 34.513672 A 1.0001 1.0001 0 0 0 41.861328 34.505859 A 1.0001163 1.0001163 0 0 0 41.894531 34.447266L43.894531 30.447266 A 1.0001 1.0001 0 0 0 43.447266 29.105469L42.53125 28.648438L44.667969 28.113281 z M 25 29.076172L29.628906 30.927734 A 1.0001 1.0001 0 0 0 30.164062 30.986328L35.435547 30.107422L38.105469 35.447266 A 1.0001 1.0001 0 0 0 38.667969 35.943359L37.142578 38.486328 A 1.0001 1.0001 0 0 0 37.132812 38.503906L34.011719 43.951172C32.93319 44.464321 31.813327 44.903306 30.642578 45.228516L29 43.585938L29 40 A 1.0001 1.0001 0 0 0 28.554688 39.167969L25.554688 37.167969 A 1.0001 1.0001 0 0 0 24.683594 37.050781L22 37.945312L19.837891 37.224609L19.060547 34.117188L20.724609 30.787109L25 29.076172 z" />
</svg>