<?xml version="1.0" encoding="utf-8"?>
<svg xmlns="http://www.w3.org/2000/svg" viewBox="0 0 50 50" width="515" height="515">
  <path d="M23.6875 2.03125C23.019531 2.011719 22.375 2.261719 21.84375 2.65625C21.3125 3.050781 20.835938 3.570313 20.375 4.21875C20.023438 4.714844 19.675781 4.925781 19.0625 5.0625C18.449219 5.199219 17.59375 5.1875 16.59375 5.1875C15.476563 5.1875 14.667969 5.285156 14 5.53125C13.464844 5.726563 12.976563 6.109375 12.71875 6.59375C12.707031 6.625 12.695313 6.65625 12.6875 6.6875C12.675781 6.710938 12.664063 6.726563 12.65625 6.75C12.644531 6.769531 12.632813 6.792969 12.625 6.8125C12.605469 6.867188 12.574219 6.914063 12.5625 6.96875C12.402344 7.640625 12.628906 8.207031 12.90625 8.65625C13.179688 9.097656 13.542969 9.476563 13.90625 9.8125C14.324219 10.230469 15.210938 10.988281 16.0625 12.34375C16.832031 13.566406 17.390625 15.230469 17.34375 17.21875C14.03125 18.230469 10.867188 20.640625 8.4375 23.71875C5.800781 27.058594 4 31.132813 4 35.09375C4 39.980469 5.53125 43.460938 9 45.4375C12.46875 47.414063 17.59375 48 25 48C32.40625 48 37.53125 47.414063 41 45.4375C44.46875 43.460938 46 39.980469 46 35.09375C46 27.53125 40.074219 20.609375 33.25 17.59375C33.730469 17.53125 34.226563 17.484375 34.75 17.5C36.433594 17.542969 38.230469 18.050781 39.78125 19.6875C40.015625 19.988281 40.402344 20.132813 40.777344 20.054688C41.148438 19.976563 41.449219 19.691406 41.542969 19.320313C41.636719 18.953125 41.511719 18.558594 41.21875 18.3125C39.40625 16.394531 37.210938 15.667969 35.25 15.53125C36.890625 14.84375 38.777344 14.636719 41.03125 15.875C41.347656 16.097656 41.761719 16.117188 42.101563 15.929688C42.4375 15.738281 42.632813 15.371094 42.605469 14.984375C42.578125 14.597656 42.328125 14.265625 41.96875 14.125C40.5625 13.351563 39.226563 13.039063 37.96875 13.03125C35.136719 13.015625 32.753906 14.523438 31.1875 15.59375C30.960938 11.949219 33.023438 9.042969 33.28125 8.71875L33.3125 8.6875L33.34375 8.625C33.691406 8.078125 34.234375 7.300781 34.46875 6.375C34.585938 5.914063 34.652344 5.304688 34.25 4.75C33.847656 4.195313 33.167969 4 32.5 4C31.25 4 30.121094 4.425781 29.21875 4.59375C28.316406 4.761719 27.859375 4.734375 27.40625 4.28125L27.40625 4.3125C27.398438 4.304688 27.382813 4.320313 27.375 4.3125C26.074219 2.960938 25.019531 2.070313 23.6875 2.03125 Z M 23.625 4.03125C23.988281 4.042969 24.777344 4.449219 25.96875 5.6875L26 5.6875L26 5.71875C27.046875 6.765625 28.472656 6.738281 29.59375 6.53125C30.441406 6.375 31.246094 6.164063 31.90625 6.0625C31.917969 6.136719 31.933594 6.140625 31.84375 6.28125C31.753906 6.421875 31.546875 6.660156 31.21875 6.9375C30.5625 7.492188 29.46875 8.199219 28.3125 9.25C27.839844 9.683594 27.277344 9.976563 26.84375 10.03125C26.410156 10.085938 26.160156 10 25.875 9.65625L25.84375 9.65625C25.335938 9.023438 24.878906 8.542969 24.34375 8.21875C23.796875 7.886719 23.152344 7.71875 22.5625 7.8125C21.394531 7.996094 20.652344 8.835938 19.75 9.6875L19.71875 9.6875L19.71875 9.65625C19.203125 10.140625 18.589844 10.300781 17.65625 9.90625C16.867188 9.574219 15.894531 8.742188 14.96875 7.375C15.3125 7.28125 15.8125 7.1875 16.59375 7.1875C17.59375 7.1875 18.5625 7.210938 19.5 7C20.4375 6.789063 21.351563 6.28125 22 5.375L22.03125 5.375C22.421875 4.824219 22.761719 4.449219 23.03125 4.25C23.300781 4.050781 23.445313 4.027344 23.625 4.03125 Z M 22.875 9.8125C23 9.792969 23.078125 9.765625 23.3125 9.90625C23.546875 10.046875 23.878906 10.359375 24.3125 10.90625L24.3125 10.9375L24.34375 10.9375C25.058594 11.792969 26.128906 12.121094 27.09375 12C28.058594 11.878906 28.957031 11.417969 29.6875 10.75C29.792969 10.652344 29.894531 10.59375 30 10.5C29.328125 12.125 28.796875 14.296875 29.21875 16.78125C24.59375 19.027344 20.890625 17.839844 19.46875 17.1875C19.507813 15.148438 18.917969 13.398438 18.1875 12.03125C19.265625 12.136719 20.324219 11.847656 21.09375 11.125C21.984375 10.285156 22.625 9.851563 22.875 9.8125 Z M 30.25 18.5C37.164063 20.523438 44 27.84375 44 35.09375C44 39.605469 42.886719 42.09375 40.03125 43.71875C37.175781 45.34375 32.292969 46 25 46C17.707031 46 12.824219 45.34375 9.96875 43.71875C7.113281 42.09375 6 39.605469 6 35.09375C6 31.753906 7.585938 27.996094 10 24.9375C12.382813 21.921875 15.554688 19.617188 18.5 18.90625C20.175781 19.660156 24.800781 21.203125 30.25 18.5 Z M 25.6875 25C21.136719 25 19.789063 29.261719 19.4375 31.0625L18.25 31.0625L17.65625 32.375L19.28125 32.375C19.265625 32.476563 19.25 32.601563 19.25 32.71875L19.25 33.3125C19.25 33.386719 19.265625 33.457031 19.28125 33.53125L18.25 33.53125L17.65625 34.875L19.375 34.875C19.992188 39.140625 22.066406 41.28125 25.65625 41.28125C26.933594 41.28125 28.082031 40.941406 29.0625 40.3125L29.0625 38.03125C28.445313 38.601563 27.507813 39.59375 25.65625 39.59375C23.355469 39.59375 21.984375 38.027344 21.5 34.875L26.28125 34.875L26.84375 33.53125L21.375 33.53125C21.359375 33.457031 21.375 33.386719 21.375 33.3125L21.375 32.75C21.375 32.632813 21.359375 32.492188 21.375 32.375L27.15625 32.375L27.75 31.0625L21.53125 31.0625C21.78125 29.847656 22.65625 26.6875 25.5 26.6875C26.570313 26.6875 27.597656 27.207031 28.625 28.21875L29.65625 26.375C28.335938 25.449219 27.019531 25 25.6875 25Z" />
</svg>