<?xml version="1.0" encoding="utf-8"?>
<svg xmlns="http://www.w3.org/2000/svg" viewBox="0 0 50 50" width="515" height="515">
  <path d="M25 5C22.800781 5 21 6.800781 21 9C21 10.414063 21.757813 11.664063 22.875 12.375L15.9375 28.375L7.125 20.4375C7.660156 19.757813 8 18.925781 8 18C8 15.800781 6.199219 14 4 14C1.800781 14 0 15.800781 0 18C0 20.09375 1.636719 21.808594 3.6875 21.96875L7.0625 35.65625C7.023438 35.765625 7 35.882813 7 36L7 44C7 44.550781 7.449219 45 8 45L42 45C42.550781 45 43 44.550781 43 44L43 36C42.996094 35.894531 42.976563 35.789063 42.9375 35.6875L46.3125 21.96875C48.363281 21.808594 50 20.09375 50 18C50 15.800781 48.199219 14 46 14C43.800781 14 42 15.800781 42 18C42 18.933594 42.332031 19.785156 42.875 20.46875L34.0625 28.375L27.125 12.375C28.242188 11.664063 29 10.414063 29 9C29 6.800781 27.199219 5 25 5 Z M 25 7C26.117188 7 27 7.882813 27 9C27 10.117188 26.117188 11 25 11C23.882813 11 23 10.117188 23 9C23 7.882813 23.882813 7 25 7 Z M 24.8125 12.96875C24.875 12.972656 24.9375 13 25 13C25.074219 13 25.144531 12.972656 25.21875 12.96875L32.78125 30.46875C32.910156 30.765625 33.171875 30.984375 33.488281 31.050781C33.804688 31.121094 34.136719 31.03125 34.375 30.8125L44.25 21.90625L41.0625 35L8.9375 35L5.75 21.9375L15.625 30.8125C15.863281 31.03125 16.195313 31.121094 16.511719 31.050781C16.828125 30.984375 17.089844 30.765625 17.21875 30.46875 Z M 4 16C5.117188 16 6 16.882813 6 18C6 19.117188 5.117188 20 4 20C2.882813 20 2 19.117188 2 18C2 16.882813 2.882813 16 4 16 Z M 46 16C47.117188 16 48 16.882813 48 18C48 19.117188 47.117188 20 46 20C44.882813 20 44 19.117188 44 18C44 16.882813 44.882813 16 46 16 Z M 9 37L41 37L41 43L9 43Z" />
</svg>