<?xml version="1.0" encoding="utf-8"?>
<svg xmlns="http://www.w3.org/2000/svg" viewBox="0 0 50 50" width="515" height="515">
  <path d="M12.8125 0C12.335938 0.0898438 11.992188 0.511719 12 1L12 40C12 41.871094 12.917969 43.394531 14.09375 44.40625C15.269531 45.417969 16.683594 46 18 46L33 46C35.746094 46 38 43.746094 38 41L38 10C38 7.253906 35.746094 5 33 5L17 5L17 1C17 0.449219 16.550781 0 16 0L13 0C12.96875 0 12.9375 0 12.90625 0C12.875 0 12.84375 0 12.8125 0 Z M 14 2L15 2L15 6C15 6.550781 15.449219 7 16 7L33 7C34.65625 7 36 8.34375 36 10L36 41C36 42.65625 34.65625 44 33 44L18 44C17.316406 44 16.230469 43.617188 15.40625 42.90625C14.582031 42.195313 14 41.226563 14 40 Z M 19 10C17.355469 10 16 11.355469 16 13L16 21C16 22.644531 17.355469 24 19 24L31 24C32.644531 24 34 22.644531 34 21L34 13C34 11.355469 32.644531 10 31 10 Z M 19 12L31 12C31.554688 12 32 12.445313 32 13L32 21C32 21.554688 31.554688 22 31 22L19 22C18.445313 22 18 21.554688 18 21L18 13C18 12.445313 18.445313 12 19 12 Z M 19 26C17.894531 26 17 26.894531 17 28C17 29.105469 17.894531 30 19 30C20.105469 30 21 29.105469 21 28C21 26.894531 20.105469 26 19 26 Z M 25 26C23.894531 26 23 26.894531 23 28C23 29.105469 23.894531 30 25 30C26.105469 30 27 29.105469 27 28C27 26.894531 26.105469 26 25 26 Z M 31 26C29.894531 26 29 26.894531 29 28C29 29.105469 29.894531 30 31 30C32.105469 30 33 29.105469 33 28C33 26.894531 32.105469 26 31 26 Z M 19 32C17.894531 32 17 32.894531 17 34C17 35.105469 17.894531 36 19 36C20.105469 36 21 35.105469 21 34C21 32.894531 20.105469 32 19 32 Z M 25 32C23.894531 32 23 32.894531 23 34C23 35.105469 23.894531 36 25 36C26.105469 36 27 35.105469 27 34C27 32.894531 26.105469 32 25 32 Z M 31 32C29.894531 32 29 32.894531 29 34C29 35.105469 29.894531 36 31 36C32.105469 36 33 35.105469 33 34C33 32.894531 32.105469 32 31 32 Z M 19 38C17.894531 38 17 38.894531 17 40C17 41.105469 17.894531 42 19 42C20.105469 42 21 41.105469 21 40C21 38.894531 20.105469 38 19 38 Z M 25 38C23.894531 38 23 38.894531 23 40C23 41.105469 23.894531 42 25 42C26.105469 42 27 41.105469 27 40C27 38.894531 26.105469 38 25 38 Z M 31 38C29.894531 38 29 38.894531 29 40C29 41.105469 29.894531 42 31 42C32.105469 42 33 41.105469 33 40C33 38.894531 32.105469 38 31 38Z" />
</svg>