<?xml version="1.0" encoding="utf-8"?>
<svg xmlns="http://www.w3.org/2000/svg" viewBox="0 0 50 50" width="515" height="515">
  <path d="M23.699219 2C18.447899 2 13.987929 3.6009027 10.861328 6.6738281C7.7347272 9.7467536 6 14.245174 6 19.800781C6 22.832068 6.7809504 25.872671 6.8886719 28.972656C6.9963934 32.072642 6.5037918 35.198084 3.9941406 38.607422 A 1.0001 1.0001 0 0 0 4.2558594 40.039062C4.2558594 40.039062 5.3865816 40.764463 7.6113281 41.566406C9.7754938 42.346512 13.081433 43.224374 17.5625 43.740234C19.810031 46.445075 22.393041 48.099609 25 48.099609C27.606959 48.099609 30.189969 46.445075 32.4375 43.740234C36.973339 43.223028 40.352965 42.320203 42.578125 41.515625C44.864637 40.688864 46.041016 39.941406 46.041016 39.941406 A 1.0001 1.0001 0 0 0 46.287109 38.484375C43.721578 35.206196 43.177095 32.392068 43.224609 29.529297C43.272124 26.666526 44 23.76072 44 20.599609C44 17.359824 43.339213 13.841434 41.541016 11.035156C39.804218 8.324699 36.878924 6.3804798 32.808594 6.2480469C31.641077 5.0857343 28.441841 2 23.699219 2 z M 23.699219 4C27.725145 4 30.693359 6.90625 31.693359 7.90625 A 1.0001 1.0001 0 0 0 32.400391 8.1992188C36.100391 8.1992188 38.355619 9.7715128 39.857422 12.115234C41.359224 14.458956 42 17.639394 42 20.599609C42 23.438498 41.277095 26.333865 41.224609 29.496094C41.177219 32.35128 41.835592 35.438902 44.033203 38.675781C43.624955 38.902479 43.390031 39.095432 41.898438 39.634766C40.113215 40.280269 37.507943 41.014925 34.041016 41.527344C35.582341 38.993799 38 34.123755 38 28.300781C38 20.046842 33.023196 15.570522 32.259766 14.931641 A 1.0001 1.0001 0 0 0 31.460938 14.587891 A 1.0001 1.0001 0 0 0 31.263672 14.617188 A 1.0001 1.0001 0 0 0 31.257812 14.619141 A 1.0001 1.0001 0 0 0 31.167969 14.644531 A 1.0001 1.0001 0 0 0 31.166016 14.644531 A 1.0001 1.0001 0 0 0 30.505859 15.416016C30.435896 15.665689 29.201238 19.832395 23.703125 21.544922C21.886246 22.103701 19.060281 22.502979 16.595703 23.714844C14.130442 24.927044 12 27.207005 12 31C12 35.67195 14.058168 39.3347 15.638672 41.466797C12.407398 40.964331 9.9577553 40.285099 8.2890625 39.683594C6.8373648 39.160307 6.6170363 38.974038 6.2304688 38.757812C8.4134668 35.327405 8.9932592 31.968345 8.8867188 28.902344C8.7694401 25.527329 8 22.469495 8 19.800781C8 14.656389 9.5652728 10.753637 12.263672 8.1015625C14.962071 5.4494879 18.850539 4 23.699219 4 z M 31.835938 17.283203C33.308672 18.824761 36 22.428041 36 28.300781C36 35.975054 31.236374 42.15295 31.21875 42.175781 A 1.0001 1.0001 0 0 0 31.212891 42.181641C31.212891 42.181641 31.212891 42.183594 31.212891 42.183594C29.133337 44.829803 26.864932 46.099609 25 46.099609C23.215248 46.099609 21.063158 44.921376 19.058594 42.501953 A 1.0001 1.0001 0 0 0 18.777344 42.064453C18.777344 42.064453 14 37.621127 14 31C14 27.892995 15.418777 26.522565 17.478516 25.509766C19.538254 24.496966 22.211744 24.096056 24.294922 23.455078L24.296875 23.455078C28.760885 22.064649 30.905257 19.064342 31.835938 17.283203 z M 19.5 28C18.7 28 18 28.7 18 29.5C18 30.3 18.7 31 19.5 31C20.3 31 21 30.3 21 29.5C21 28.7 20.3 28 19.5 28 z M 30.5 28C29.7 28 29 28.7 29 29.5C29 30.3 29.7 31 30.5 31C31.3 31 32 30.3 32 29.5C32 28.7 31.3 28 30.5 28 z" />
</svg>