<?xml version="1.0" encoding="utf-8"?>
<svg xmlns="http://www.w3.org/2000/svg" viewBox="0 0 50 50" width="515" height="515">
  <path d="M19 11C15.832031 11 13.0625 11.804688 10.96875 13.621094C9.042969 15.289063 7.832031 17.855469 7.230469 21.097656C6.851563 21.132813 6.492188 21.132813 6.089844 21.242188C5.417969 21.425781 4.703125 21.730469 4.203125 22.398438L4.203125 22.402344C2.972656 24.035156 1 27.007813 1 31C1 32.425781 1.863281 33.546875 2.804688 34.347656C3.601563 35.027344 4.484375 35.507813 5.28125 35.800781C6.050781 38.230469 8.324219 40 11 40C13.601563 40 15.820313 38.324219 16.648438 36L34.351563 36C35.179688 38.324219 37.398438 40 40 40C42.984375 40 45.46875 37.792969 45.921875 34.929688C46.683594 34.816406 47.34375 34.558594 47.863281 34.15625C48.582031 33.59375 49 32.746094 49 31.886719L49 26.851563C49 26.175781 48.738281 25.621094 48.265625 24.925781C47.796875 24.234375 47.085938 23.476563 46.078125 22.765625C44.152344 21.40625 41.050781 20.289063 36.589844 20.082031C35.65625 18.742188 34.722656 17.28125 32.832031 14.445313C32.453125 13.875 32.148438 13.367188 31.734375 12.886719C31.324219 12.40625 30.777344 11.976563 30.074219 11.691406C28.671875 11.121094 26.746094 11 23 11 Z M 19 13L23 13C26.6875 13 28.476563 13.203125 29.324219 13.546875C29.746094 13.714844 29.957031 13.890625 30.21875 14.191406C30.480469 14.492188 30.765625 14.949219 31.167969 15.554688C33.164063 18.546875 34.160156 20.121094 35.183594 21.578125L35.472656 21.988281L35.976563 22C40.488281 22.105469 43.28125 23.238281 44.925781 24.398438C45.75 24.980469 46.289063 25.574219 46.609375 26.046875C46.929688 26.523438 47 26.957031 47 26.851563L47 31.886719C47 32.152344 46.917969 32.355469 46.636719 32.574219C46.476563 32.699219 46.226563 32.816406 45.890625 32.894531C45.371094 30.117188 42.925781 28 40 28C36.699219 28 34 30.699219 34 34L17 34C17 30.699219 14.300781 28 11 28C7.878906 28 5.300781 30.414063 5.027344 33.46875C4.707031 33.28125 4.382813 33.070313 4.101563 32.828125C3.410156 32.238281 3 31.574219 3 31C3 27.671875 4.65625 25.125 5.796875 23.601563C5.890625 23.480469 6.183594 23.289063 6.617188 23.171875C7.046875 23.050781 7.578125 23 8.003906 23L8.867188 22.996094L8.992188 22.140625C9.464844 18.804688 10.621094 16.566406 12.28125 15.128906C13.9375 13.695313 16.167969 13 19 13 Z M 17 15L17 15.066406C15.21875 15.289063 13.777344 16.089844 12.789063 17.214844C11.621094 18.546875 11.0625 20.265625 11 21.964844L10.964844 23L33.765625 23L29.847656 16.46875L29.835938 16.449219C29.496094 15.929688 29.164063 15.492188 28.617188 15.234375C28.070313 14.980469 27.585938 15 27 15 Z M 19 17L27 17C27.5625 17 27.757813 17.042969 27.769531 17.046875C27.78125 17.050781 27.875 17.109375 28.164063 17.550781L30.234375 21L19 21 Z M 17 17.191406L17 21L13.199219 21C13.386719 20.082031 13.707031 19.203125 14.292969 18.53125C14.917969 17.820313 15.847656 17.394531 17 17.191406 Z M 21 25C20.449219 25 20 25.449219 20 26C20 26.550781 20.449219 27 21 27L24 27C24.550781 27 25 26.550781 25 26C25 25.449219 24.550781 25 24 25 Z M 11 30C13.222656 30 15 31.777344 15 34C15 36.222656 13.222656 38 11 38C8.777344 38 7 36.222656 7 34C7 31.777344 8.777344 30 11 30 Z M 40 30C42.222656 30 44 31.777344 44 34C44 36.222656 42.222656 38 40 38C37.777344 38 36 36.222656 36 34C36 31.777344 37.777344 30 40 30Z" />
</svg>