<?xml version="1.0" encoding="utf-8"?>
<svg xmlns="http://www.w3.org/2000/svg" viewBox="0 0 50 50" width="515" height="515">
  <path d="M11.40625 0C11.128906 0.0351563 10.882813 0.179688 10.71875 0.40625L8.375 3.40625L4.40625 3.40625C3.855469 3.40625 3.40625 3.855469 3.40625 4.40625L3.40625 8.375L0.40625 10.71875C0.167969 10.910156 0.03125 11.195313 0.03125 11.5C0.03125 11.804688 0.167969 12.089844 0.40625 12.28125L3.40625 14.625L3.40625 17.59375C3.402344 17.953125 3.589844 18.289063 3.902344 18.472656C4.214844 18.652344 4.597656 18.652344 4.910156 18.472656C5.222656 18.289063 5.410156 17.953125 5.40625 17.59375L5.40625 14.09375C5.398438 13.785156 5.25 13.496094 5 13.3125L2.625 11.5L5 9.6875C5.25 9.503906 5.398438 9.214844 5.40625 8.90625L5.40625 5.40625L8.90625 5.40625C9.214844 5.398438 9.503906 5.25 9.6875 5L11.5 2.625L13.3125 5C13.496094 5.25 13.785156 5.398438 14.09375 5.40625L17.59375 5.40625L17.59375 8.90625C17.601563 9.214844 17.75 9.503906 18 9.6875L20.375 11.5L18 13.3125C17.558594 13.648438 17.476563 14.277344 17.8125 14.71875C18.148438 15.160156 18.777344 15.242188 19.21875 14.90625L22.59375 12.28125C22.832031 12.089844 22.96875 11.804688 22.96875 11.5C22.96875 11.195313 22.832031 10.910156 22.59375 10.71875L19.59375 8.375L19.59375 4.40625C19.59375 3.855469 19.144531 3.40625 18.59375 3.40625L14.625 3.40625L12.28125 0.40625C12.078125 0.128906 11.75 -0.0234375 11.40625 0 Z M 11.5 6C8.472656 6 6 8.472656 6 11.5C6 14.527344 8.472656 17 11.5 17C14.527344 17 17 14.527344 17 11.5C17 8.472656 14.527344 6 11.5 6 Z M 11.5 8C13.445313 8 15 9.554688 15 11.5C15 13.445313 13.445313 15 11.5 15C9.554688 15 8 13.445313 8 11.5C8 9.554688 9.554688 8 11.5 8 Z M 32.03125 15.96875C31.988281 15.976563 31.945313 15.988281 31.90625 16C31.894531 16 31.886719 16 31.875 16C31.832031 15.996094 31.792969 15.996094 31.75 16C11.761719 16.0625 0.4375 23.5625 0.4375 23.5625C0.160156 23.753906 -0.00390625 24.070313 0 24.40625L0 39.21875C-0.0585938 39.410156 -0.0585938 39.621094 0 39.8125L0 49C0 49.550781 0.449219 50 1 50L49 50C49.550781 50 50 49.550781 50 49L50 18.21875C50.058594 17.949219 50 17.664063 49.84375 17.4375C49.835938 17.417969 49.824219 17.394531 49.8125 17.375C49.71875 17.257813 49.601563 17.160156 49.46875 17.09375C49.457031 17.082031 49.449219 17.074219 49.4375 17.0625C49.417969 17.0625 49.394531 17.0625 49.375 17.0625C49.363281 17.050781 49.355469 17.042969 49.34375 17.03125C49.324219 17.03125 49.300781 17.03125 49.28125 17.03125C49.269531 17.019531 49.261719 17.011719 49.25 17C49.230469 17 49.207031 17 49.1875 17C49.175781 17 49.167969 17 49.15625 17C49.074219 16.980469 48.992188 16.96875 48.90625 16.96875C48.511719 16.914063 45.292969 16.496094 40.25 16.21875C40.078125 16.160156 39.894531 16.148438 39.71875 16.1875C39.707031 16.1875 39.699219 16.1875 39.6875 16.1875C37.488281 16.074219 35.011719 16.007813 32.3125 16C32.21875 15.976563 32.125 15.964844 32.03125 15.96875 Z M 32.21875 18C33.445313 18 34.609375 18.035156 35.71875 18.0625C33.828125 19.113281 31.390625 20.65625 28.6875 22.875C22.824219 27.6875 15.769531 35.59375 10.8125 48L2 48L2 39.8125C12.148438 24.480469 31.695313 18.167969 32.21875 18 Z M 39.9375 18.21875C40.796875 18.265625 41.699219 18.320313 42.4375 18.375C41.179688 19.492188 39.429688 21.21875 37.4375 23.6875C33.53125 28.53125 28.636719 36.292969 24.5 48L13 48C17.800781 36.371094 24.449219 28.96875 29.96875 24.4375C35.371094 20.007813 39.460938 18.398438 39.9375 18.21875 Z M 26.09375 18.25C19.726563 21.09375 9.277344 26.832031 2 36.375L2 24.96875C2.988281 24.339844 11.257813 19.363281 26.09375 18.25 Z M 45.3125 18.59375C46.261719 18.6875 46.945313 18.785156 47.40625 18.84375C45.730469 22.09375 41.238281 31.722656 37.40625 48L26.625 48C30.636719 36.863281 35.304688 29.515625 39 24.9375C42.394531 20.726563 44.78125 18.964844 45.3125 18.59375 Z M 48 22.21875L48 48L39.46875 48C42.515625 35.183594 45.941406 26.671875 48 22.21875Z" />
</svg>