<?xml version="1.0" encoding="utf-8"?>
<svg xmlns="http://www.w3.org/2000/svg" viewBox="0 0 50 50" width="515" height="515">
  <path d="M25 2C12.309295 2 2 12.309295 2 25C2 37.690705 12.309295 48 25 48C37.690705 48 48 37.690705 48 25C48 12.309295 37.690705 2 25 2 z M 25 4C25.677131 4 26.345252 4.0351941 27.005859 4.0976562 A 1 1 0 0 0 27.005859 4.0996094 A 1 1 0 0 0 28 5 A 1 1 0 0 0 28.927734 4.3710938C31.488429 4.8544994 33.871933 5.8159869 36.011719 7.1367188 A 1 1 0 0 0 37 8 A 1 1 0 0 0 37.255859 7.9648438C37.914082 8.4389518 38.54079 8.9506428 39.138672 9.4960938 A 1 1 0 0 0 39 10 A 1 1 0 0 0 40 11 A 1 1 0 0 0 40.503906 10.861328C41.049006 11.458825 41.561306 12.084425 42.035156 12.742188 A 1 1 0 0 0 42 13 A 1 1 0 0 0 42.863281 13.990234C44.183556 16.12966 45.145607 18.512137 45.628906 21.072266 A 1 1 0 0 0 45 22 A 1 1 0 0 0 45.904297 22.994141C45.96675 23.654701 46 24.322919 46 25C46 25.677131 45.964806 26.345252 45.902344 27.005859 A 1 1 0 0 0 45.900391 27.005859 A 1 1 0 0 0 45 28 A 1 1 0 0 0 45.628906 28.927734C45.145501 31.488429 44.184013 33.871933 42.863281 36.011719 A 1 1 0 0 0 42 37 A 1 1 0 0 0 42.035156 37.255859C41.561048 37.914082 41.049357 38.54079 40.503906 39.138672 A 1 1 0 0 0 40 39 A 1 1 0 0 0 39 40 A 1 1 0 0 0 39.138672 40.503906C38.541175 41.049006 37.915575 41.561306 37.257812 42.035156 A 1 1 0 0 0 37 42 A 1 1 0 0 0 36.009766 42.863281C33.87034 44.183556 31.487863 45.145607 28.927734 45.628906 A 1 1 0 0 0 28 45 A 1 1 0 0 0 27.005859 45.904297C26.345299 45.96675 25.677081 46 25 46C24.322869 46 23.654748 45.964806 22.994141 45.902344 A 1 1 0 0 0 22.994141 45.900391 A 1 1 0 0 0 22 45 A 1 1 0 0 0 21.072266 45.628906C18.511571 45.145501 16.128067 44.184013 13.988281 42.863281 A 1 1 0 0 0 13 42 A 1 1 0 0 0 12.744141 42.035156C12.085918 41.561048 11.45921 41.049357 10.861328 40.503906 A 1 1 0 0 0 11 40 A 1 1 0 0 0 10 39 A 1 1 0 0 0 9.4960938 39.138672C8.9509939 38.541175 8.4386944 37.915575 7.9648438 37.257812 A 1 1 0 0 0 8 37 A 1 1 0 0 0 7.1367188 36.009766C5.8164442 33.87034 4.8543925 31.487863 4.3710938 28.927734 A 1 1 0 0 0 5 28 A 1 1 0 0 0 4.0957031 27.005859C4.03325 26.345299 4 25.677081 4 25C4 24.322869 4.0351941 23.654748 4.0976562 22.994141 A 1 1 0 0 0 4.0996094 22.994141 A 1 1 0 0 0 5 22 A 1 1 0 0 0 4.3710938 21.072266C4.8544994 18.511571 5.8159869 16.128067 7.1367188 13.988281 A 1 1 0 0 0 8 13 A 1 1 0 0 0 7.9648438 12.744141C8.4389518 12.085918 8.9506428 11.45921 9.4960938 10.861328 A 1 1 0 0 0 10 11 A 1 1 0 0 0 11 10 A 1 1 0 0 0 10.861328 9.4960938C11.458825 8.9509939 12.084425 8.4386944 12.742188 7.9648438 A 1 1 0 0 0 13 8 A 1 1 0 0 0 13.990234 7.1367188C16.12966 5.8164442 18.512137 4.8543925 21.072266 4.3710938 A 1 1 0 0 0 22 5 A 1 1 0 0 0 22.994141 4.0957031C23.654701 4.03325 24.322919 4 25 4 z M 19 6 A 1 1 0 0 0 18 7 A 1 1 0 0 0 19 8 A 1 1 0 0 0 20 7 A 1 1 0 0 0 19 6 z M 25 6 A 1 1 0 0 0 24 7 A 1 1 0 0 0 25 8 A 1 1 0 0 0 26 7 A 1 1 0 0 0 25 6 z M 31 6 A 1 1 0 0 0 30 7 A 1 1 0 0 0 31 8 A 1 1 0 0 0 32 7 A 1 1 0 0 0 31 6 z M 16 9 A 1 1 0 0 0 15 10 A 1 1 0 0 0 16 11 A 1 1 0 0 0 17 10 A 1 1 0 0 0 16 9 z M 22 9 A 1 1 0 0 0 21 10 A 1 1 0 0 0 22 11 A 1 1 0 0 0 23 10 A 1 1 0 0 0 22 9 z M 28 9 A 1 1 0 0 0 27 10 A 1 1 0 0 0 28 11 A 1 1 0 0 0 29 10 A 1 1 0 0 0 28 9 z M 34 9 A 1 1 0 0 0 33 10 A 1 1 0 0 0 34 11 A 1 1 0 0 0 35 10 A 1 1 0 0 0 34 9 z M 13 12 A 1 1 0 0 0 12 13 A 1 1 0 0 0 13 14 A 1 1 0 0 0 14 13 A 1 1 0 0 0 13 12 z M 19 12 A 1 1 0 0 0 18 13 A 1 1 0 0 0 19 14 A 1 1 0 0 0 20 13 A 1 1 0 0 0 19 12 z M 25 12 A 1 1 0 0 0 24 13 A 1 1 0 0 0 25 14 A 1 1 0 0 0 26 13 A 1 1 0 0 0 25 12 z M 31 12 A 1 1 0 0 0 30 13 A 1 1 0 0 0 31 14 A 1 1 0 0 0 32 13 A 1 1 0 0 0 31 12 z M 37 12 A 1 1 0 0 0 36 13 A 1 1 0 0 0 37 14 A 1 1 0 0 0 38 13 A 1 1 0 0 0 37 12 z M 10 15 A 1 1 0 0 0 9 16 A 1 1 0 0 0 10 17 A 1 1 0 0 0 11 16 A 1 1 0 0 0 10 15 z M 16 15 A 1 1 0 0 0 15 16 A 1 1 0 0 0 16 17 A 1 1 0 0 0 17 16 A 1 1 0 0 0 16 15 z M 22 15 A 1 1 0 0 0 21 16 A 1 1 0 0 0 22 17 A 1 1 0 0 0 23 16 A 1 1 0 0 0 22 15 z M 28 15 A 1 1 0 0 0 27 16 A 1 1 0 0 0 28 17 A 1 1 0 0 0 29 16 A 1 1 0 0 0 28 15 z M 34 15 A 1 1 0 0 0 33 16 A 1 1 0 0 0 34 17 A 1 1 0 0 0 35 16 A 1 1 0 0 0 34 15 z M 40 15 A 1 1 0 0 0 39 16 A 1 1 0 0 0 40 17 A 1 1 0 0 0 41 16 A 1 1 0 0 0 40 15 z M 7 18 A 1 1 0 0 0 6 19 A 1 1 0 0 0 7 20 A 1 1 0 0 0 8 19 A 1 1 0 0 0 7 18 z M 13 18 A 1 1 0 0 0 12 19 A 1 1 0 0 0 13 20 A 1 1 0 0 0 14 19 A 1 1 0 0 0 13 18 z M 19 18 A 1 1 0 0 0 18 19 A 1 1 0 0 0 19 20 A 1 1 0 0 0 20 19 A 1 1 0 0 0 19 18 z M 25 18 A 1 1 0 0 0 24 19 A 1 1 0 0 0 25 20 A 1 1 0 0 0 26 19 A 1 1 0 0 0 25 18 z M 31 18 A 1 1 0 0 0 30 19 A 1 1 0 0 0 31 20 A 1 1 0 0 0 32 19 A 1 1 0 0 0 31 18 z M 37 18 A 1 1 0 0 0 36 19 A 1 1 0 0 0 37 20 A 1 1 0 0 0 38 19 A 1 1 0 0 0 37 18 z M 43 18 A 1 1 0 0 0 42 19 A 1 1 0 0 0 43 20 A 1 1 0 0 0 44 19 A 1 1 0 0 0 43 18 z M 10 21 A 1 1 0 0 0 9 22 A 1 1 0 0 0 10 23 A 1 1 0 0 0 11 22 A 1 1 0 0 0 10 21 z M 16 21 A 1 1 0 0 0 15 22 A 1 1 0 0 0 16 23 A 1 1 0 0 0 17 22 A 1 1 0 0 0 16 21 z M 22 21 A 1 1 0 0 0 21 22 A 1 1 0 0 0 22 23 A 1 1 0 0 0 23 22 A 1 1 0 0 0 22 21 z M 28 21 A 1 1 0 0 0 27 22 A 1 1 0 0 0 28 23 A 1 1 0 0 0 29 22 A 1 1 0 0 0 28 21 z M 34 21 A 1 1 0 0 0 33 22 A 1 1 0 0 0 34 23 A 1 1 0 0 0 35 22 A 1 1 0 0 0 34 21 z M 40 21 A 1 1 0 0 0 39 22 A 1 1 0 0 0 40 23 A 1 1 0 0 0 41 22 A 1 1 0 0 0 40 21 z M 7 24 A 1 1 0 0 0 6 25 A 1 1 0 0 0 7 26 A 1 1 0 0 0 8 25 A 1 1 0 0 0 7 24 z M 13 24 A 1 1 0 0 0 12 25 A 1 1 0 0 0 13 26 A 1 1 0 0 0 14 25 A 1 1 0 0 0 13 24 z M 19 24 A 1 1 0 0 0 18 25 A 1 1 0 0 0 19 26 A 1 1 0 0 0 20 25 A 1 1 0 0 0 19 24 z M 25 24 A 1 1 0 0 0 24 25 A 1 1 0 0 0 25 26 A 1 1 0 0 0 26 25 A 1 1 0 0 0 25 24 z M 31 24 A 1 1 0 0 0 30 25 A 1 1 0 0 0 31 26 A 1 1 0 0 0 32 25 A 1 1 0 0 0 31 24 z M 37 24 A 1 1 0 0 0 36 25 A 1 1 0 0 0 37 26 A 1 1 0 0 0 38 25 A 1 1 0 0 0 37 24 z M 43 24 A 1 1 0 0 0 42 25 A 1 1 0 0 0 43 26 A 1 1 0 0 0 44 25 A 1 1 0 0 0 43 24 z M 10 27 A 1 1 0 0 0 9 28 A 1 1 0 0 0 10 29 A 1 1 0 0 0 11 28 A 1 1 0 0 0 10 27 z M 16 27 A 1 1 0 0 0 15 28 A 1 1 0 0 0 16 29 A 1 1 0 0 0 17 28 A 1 1 0 0 0 16 27 z M 22 27 A 1 1 0 0 0 21 28 A 1 1 0 0 0 22 29 A 1 1 0 0 0 23 28 A 1 1 0 0 0 22 27 z M 28 27 A 1 1 0 0 0 27 28 A 1 1 0 0 0 28 29 A 1 1 0 0 0 29 28 A 1 1 0 0 0 28 27 z M 34 27 A 1 1 0 0 0 33 28 A 1 1 0 0 0 34 29 A 1 1 0 0 0 35 28 A 1 1 0 0 0 34 27 z M 40 27 A 1 1 0 0 0 39 28 A 1 1 0 0 0 40 29 A 1 1 0 0 0 41 28 A 1 1 0 0 0 40 27 z M 7 30 A 1 1 0 0 0 6 31 A 1 1 0 0 0 7 32 A 1 1 0 0 0 8 31 A 1 1 0 0 0 7 30 z M 13 30 A 1 1 0 0 0 12 31 A 1 1 0 0 0 13 32 A 1 1 0 0 0 14 31 A 1 1 0 0 0 13 30 z M 19 30 A 1 1 0 0 0 18 31 A 1 1 0 0 0 19 32 A 1 1 0 0 0 20 31 A 1 1 0 0 0 19 30 z M 25 30 A 1 1 0 0 0 24 31 A 1 1 0 0 0 25 32 A 1 1 0 0 0 26 31 A 1 1 0 0 0 25 30 z M 31 30 A 1 1 0 0 0 30 31 A 1 1 0 0 0 31 32 A 1 1 0 0 0 32 31 A 1 1 0 0 0 31 30 z M 37 30 A 1 1 0 0 0 36 31 A 1 1 0 0 0 37 32 A 1 1 0 0 0 38 31 A 1 1 0 0 0 37 30 z M 43 30 A 1 1 0 0 0 42 31 A 1 1 0 0 0 43 32 A 1 1 0 0 0 44 31 A 1 1 0 0 0 43 30 z M 10 33 A 1 1 0 0 0 9 34 A 1 1 0 0 0 10 35 A 1 1 0 0 0 11 34 A 1 1 0 0 0 10 33 z M 16 33 A 1 1 0 0 0 15 34 A 1 1 0 0 0 16 35 A 1 1 0 0 0 17 34 A 1 1 0 0 0 16 33 z M 22 33 A 1 1 0 0 0 21 34 A 1 1 0 0 0 22 35 A 1 1 0 0 0 23 34 A 1 1 0 0 0 22 33 z M 28 33 A 1 1 0 0 0 27 34 A 1 1 0 0 0 28 35 A 1 1 0 0 0 29 34 A 1 1 0 0 0 28 33 z M 34 33 A 1 1 0 0 0 33 34 A 1 1 0 0 0 34 35 A 1 1 0 0 0 35 34 A 1 1 0 0 0 34 33 z M 40 33 A 1 1 0 0 0 39 34 A 1 1 0 0 0 40 35 A 1 1 0 0 0 41 34 A 1 1 0 0 0 40 33 z M 13 36 A 1 1 0 0 0 12 37 A 1 1 0 0 0 13 38 A 1 1 0 0 0 14 37 A 1 1 0 0 0 13 36 z M 19 36 A 1 1 0 0 0 18 37 A 1 1 0 0 0 19 38 A 1 1 0 0 0 20 37 A 1 1 0 0 0 19 36 z M 25 36 A 1 1 0 0 0 24 37 A 1 1 0 0 0 25 38 A 1 1 0 0 0 26 37 A 1 1 0 0 0 25 36 z M 31 36 A 1 1 0 0 0 30 37 A 1 1 0 0 0 31 38 A 1 1 0 0 0 32 37 A 1 1 0 0 0 31 36 z M 37 36 A 1 1 0 0 0 36 37 A 1 1 0 0 0 37 38 A 1 1 0 0 0 38 37 A 1 1 0 0 0 37 36 z M 16 39 A 1 1 0 0 0 15 40 A 1 1 0 0 0 16 41 A 1 1 0 0 0 17 40 A 1 1 0 0 0 16 39 z M 22 39 A 1 1 0 0 0 21 40 A 1 1 0 0 0 22 41 A 1 1 0 0 0 23 40 A 1 1 0 0 0 22 39 z M 28 39 A 1 1 0 0 0 27 40 A 1 1 0 0 0 28 41 A 1 1 0 0 0 29 40 A 1 1 0 0 0 28 39 z M 34 39 A 1 1 0 0 0 33 40 A 1 1 0 0 0 34 41 A 1 1 0 0 0 35 40 A 1 1 0 0 0 34 39 z M 19 42 A 1 1 0 0 0 18 43 A 1 1 0 0 0 19 44 A 1 1 0 0 0 20 43 A 1 1 0 0 0 19 42 z M 25 42 A 1 1 0 0 0 24 43 A 1 1 0 0 0 25 44 A 1 1 0 0 0 26 43 A 1 1 0 0 0 25 42 z M 31 42 A 1 1 0 0 0 30 43 A 1 1 0 0 0 31 44 A 1 1 0 0 0 32 43 A 1 1 0 0 0 31 42 z" />
</svg>