<?xml version="1.0" encoding="utf-8"?>
<svg xmlns="http://www.w3.org/2000/svg" viewBox="0 0 50 50" width="515" height="515">
  <path d="M19 0C8.5545455 0 0 8.5545455 0 19C0 29.445455 8.5545455 38 19 38C29.445455 38 38 29.445455 38 19C38 17.023877 37.69223 15.11596 37.125 13.320312C41.579791 19.643024 41.991169 25.84631 41.863281 31.464844C41.770751 35.530005 41.326334 39.261552 41.955078 42.509766C42.583819 45.757979 44.518302 48.506862 48.673828 49.945312 A 1.0001 1.0001 0 1 0 49.326172 48.054688C45.681695 46.793138 44.454853 44.904521 43.917969 42.130859C43.381085 39.357198 43.766358 35.682104 43.861328 31.509766C44.051268 23.165088 42.785762 12.719829 29.585938 3.1894531 A 1.0001 1.0001 0 0 0 29.205078 3.015625C26.249992 1.1172297 22.751719 0 19 0 z M 19 2C28.354545 2 36 9.6454545 36 19C36 28.354545 28.354545 36 19 36C9.6454545 36 2 28.354545 2 19C2 9.6454545 9.6454545 2 19 2 z M 19 3.5C17.516667 3.5 16.309906 3.650167 15.345703 4.2929688C14.3815 4.9357704 13.900391 6.1034209 13.900391 7.4003906C13.900391 8.9852391 14.92457 10.225206 15.953125 11.126953C16.467403 11.577827 17.004437 11.946022 17.503906 12.216797C18.003376 12.487572 18.386111 12.699219 19 12.699219C19.613889 12.699219 19.996624 12.487572 20.496094 12.216797C20.995563 11.946022 21.532597 11.577827 22.046875 11.126953C23.07543 10.225206 24.099609 8.9852391 24.099609 7.4003906C24.099609 6.1034209 23.6185 4.9357704 22.654297 4.2929688C21.690094 3.650167 20.483333 3.5 19 3.5 z M 19 5.5C20.316667 5.5 21.159125 5.699833 21.544922 5.9570312C21.930719 6.2142295 22.099609 6.4973603 22.099609 7.4003906C22.099609 8.0155421 21.524961 8.9247938 20.728516 9.6230469C20.330293 9.9721734 19.896624 10.267259 19.542969 10.458984C19.304113 10.588474 19.079276 10.649724 19 10.677734C18.920724 10.649724 18.695887 10.588474 18.457031 10.458984C18.103376 10.267259 17.669707 9.9721734 17.271484 9.6230469C16.475039 8.9247938 15.900391 8.0155421 15.900391 7.4003906C15.900391 6.4973603 16.069281 6.2142296 16.455078 5.9570312C16.840875 5.6998331 17.683333 5.5 19 5.5 z M 29.558594 10.605469C29.109676 10.613326 28.645107 10.697726 28.183594 10.851562C26.677322 11.353654 25.81702 12.715873 25.28125 13.970703C25.013365 14.598118 24.829914 15.217167 24.730469 15.771484C24.631019 16.325802 24.535559 16.743256 24.763672 17.351562C24.964531 17.887187 25.262875 18.172009 25.664062 18.560547C26.065251 18.949085 26.568783 19.351636 27.146484 19.710938C28.301886 20.429541 29.796582 21.055436 31.316406 20.548828C32.54259 20.1401 33.511935 19.344521 33.835938 18.228516C34.159939 17.11251 33.926158 15.915189 33.449219 14.484375C32.975794 13.064102 32.476015 11.965577 31.574219 11.244141C31.123321 10.883422 30.583122 10.68235 30.001953 10.623047C29.856661 10.608222 29.708233 10.60285 29.558594 10.605469 z M 8.4277344 10.615234C8.2770548 10.61495 8.1282736 10.623078 7.9824219 10.640625C7.399015 10.710815 6.8605685 10.924529 6.4160156 11.289062C5.5269098 12.01813 5.0278776 13.105663 4.5546875 14.472656 A 1.0001 1.0001 0 0 0 4.5410156 14.515625C4.1211927 15.932527 3.8935714 17.107253 4.1972656 18.214844C4.5009598 19.322434 5.4528921 20.138594 6.6835938 20.548828C8.2034178 21.055436 9.6981134 20.429541 10.853516 19.710938C11.431217 19.351636 11.934748 18.949085 12.335938 18.560547C12.737125 18.172009 13.035469 17.887188 13.236328 17.351562C13.464444 16.743256 13.36898 16.325802 13.269531 15.771484C13.170081 15.217167 12.986635 14.598118 12.71875 13.970703C12.18298 12.715873 11.322678 11.353653 9.8164062 10.851562C9.349811 10.696031 8.879773 10.616087 8.4277344 10.615234 z M 29.767578 12.564453C29.992832 12.580501 30.15207 12.667361 30.326172 12.806641C30.674376 13.085204 31.124206 13.83746 31.550781 15.117188C31.973843 16.386374 32.040062 17.237881 31.914062 17.671875C31.788065 18.105869 31.55741 18.359119 30.683594 18.650391C30.103418 18.843783 29.097723 18.570071 28.203125 18.013672C27.755826 17.735474 27.347249 17.406384 27.054688 17.123047C26.822779 16.89845 26.700481 16.70891 26.669922 16.681641C26.674306 16.618625 26.651998 16.388229 26.699219 16.125C26.768519 15.738693 26.912026 15.240944 27.119141 14.755859C27.53337 13.785689 28.222678 12.945956 28.816406 12.748047C29.251056 12.603164 29.542324 12.548405 29.767578 12.564453 z M 8.2480469 12.574219C8.47089 12.553779 8.7557208 12.605419 9.1835938 12.748047C9.7773222 12.945956 10.46663 13.785689 10.880859 14.755859C11.087974 15.240944 11.231477 15.738693 11.300781 16.125C11.348002 16.388229 11.325694 16.618625 11.330078 16.681641C11.299519 16.70891 11.177221 16.89845 10.945312 17.123047C10.652752 17.406384 10.244174 17.735474 9.796875 18.013672C8.9022768 18.570068 7.8965822 18.843783 7.3164062 18.650391C6.4471079 18.360624 6.2482589 18.127956 6.1269531 17.685547C6.0067455 17.247143 6.0838451 16.371597 6.4550781 15.107422C6.8787115 13.892571 7.3257241 13.129391 7.6835938 12.835938C7.8640408 12.687971 8.0252037 12.594654 8.2480469 12.574219 z M 19 17C17.9 17 17 17.9 17 19C17 20.1 17.9 21 19 21C20.1 21 21 20.1 21 19C21 17.9 20.1 17 19 17 z M 25.183594 23.552734C24.868433 23.557614 24.568879 23.579584 24.291016 23.615234C23.735289 23.686524 23.31592 23.730536 22.818359 24.085938C22.331795 24.433484 22.145934 24.810742 21.890625 25.308594C21.635316 25.806446 21.402033 26.405257 21.232422 27.0625C20.8932 28.376985 20.752448 29.987764 21.689453 31.285156C22.449505 32.337535 23.505852 33.010559 24.65625 32.974609C25.806648 32.938659 26.858265 32.364648 28.070312 31.521484 A 1.0001 1.0001 0 0 0 28.087891 31.507812C29.251278 30.661714 30.128937 29.856367 30.552734 28.796875C30.976531 27.737383 30.742664 26.512434 30.03125 25.445312 A 1.0001 1.0001 0 0 0 30.009766 25.414062C29.078698 24.124893 27.521753 23.718714 26.167969 23.591797C25.829523 23.560067 25.498755 23.547854 25.183594 23.552734 z M 12.779297 23.716797C12.465521 23.725228 12.137685 23.75104 11.802734 23.796875C10.46293 23.980217 8.9385979 24.440736 8.0683594 25.746094C7.3569452 26.813215 7.1183456 28.046092 7.5664062 29.103516C8.0144671 30.160939 8.9324593 30.941431 10.154297 31.738281C11.379097 32.537064 12.474377 33.054841 13.626953 33.037109C14.77953 33.019379 15.819836 32.321027 16.53125 31.253906C17.410971 29.934325 17.203182 28.340905 16.822266 27.042969C16.631808 26.394001 16.379684 25.805767 16.109375 25.320312C15.847933 24.850784 15.662249 24.492089 15.128906 24.169922C14.630115 23.832682 14.210534 23.790187 13.671875 23.742188C13.39279 23.717318 13.093073 23.708366 12.779297 23.716797 z M 25.216797 25.554688C25.461011 25.550973 25.720868 25.559464 25.982422 25.583984C27.021944 25.681444 27.998569 26.074016 28.373047 26.580078C28.837637 27.287052 28.870476 27.619709 28.697266 28.052734C28.521632 28.491818 27.948234 29.134018 26.917969 29.884766C25.838473 30.633406 25.04107 30.960631 24.59375 30.974609C24.144148 30.988659 23.850495 30.862855 23.310547 30.115234C22.947552 29.612626 22.907191 28.573015 23.167969 27.5625C23.298358 27.057243 23.489684 26.575976 23.671875 26.220703C23.79249 25.985504 23.938176 25.807027 23.990234 25.734375C24.072469 25.711082 24.286505 25.633013 24.546875 25.599609C24.744012 25.574319 24.972583 25.558402 25.216797 25.554688 z M 12.832031 25.716797C13.074212 25.710578 13.299788 25.717055 13.494141 25.734375C13.75829 25.757915 13.972628 25.837907 14.037109 25.851562C14.065997 25.897424 14.232572 26.061728 14.361328 26.292969C14.550394 26.632515 14.755302 27.10639 14.902344 27.607422C15.196428 28.609486 15.187471 29.664112 14.867188 30.144531C14.378602 30.87741 14.07008 31.029841 13.597656 31.037109C13.125233 31.044409 12.321294 30.763717 11.246094 30.0625C10.16793 29.359345 9.5851423 28.739842 9.4082031 28.322266C9.2312639 27.904689 9.243836 27.588348 9.7324219 26.855469C10.062183 26.360827 11.03707 25.919002 12.072266 25.777344C12.331065 25.741929 12.589851 25.723016 12.832031 25.716797 z M 14.019531 25.814453 A 1.0001 1.0001 0 0 0 14.103516 25.869141C14.066989 25.848268 14.062967 25.849774 14.050781 25.845703C14.047754 25.839655 14.049656 25.835971 14.019531 25.814453 z" />
</svg>