<?xml version="1.0" encoding="utf-8"?>
<svg xmlns="http://www.w3.org/2000/svg" viewBox="0 0 50 50" width="515" height="515">
  <path d="M16.90625 -0.03125C16.875 -0.0234375 16.84375 -0.0117188 16.8125 0L3 0C2.96875 0 2.9375 0 2.90625 0C2.390625 0.046875 1.996094 0.480469 2 1L2 49C2 49.550781 2.449219 50 3 50L7 50C7.550781 50 8 49.550781 8 49L8 32L47 32C47.550781 32 48 31.550781 48 31L48 21.1875C48.027344 21.054688 48.027344 20.914063 48 20.78125L48 11.1875C48.027344 11.054688 48.027344 10.914063 48 10.78125L48 1C48 0.449219 47.550781 0 47 0L37.1875 0C37.097656 -0.0234375 37 -0.0351563 36.90625 -0.03125C36.863281 -0.0234375 36.820313 -0.0117188 36.78125 0L27.21875 0C27.117188 -0.0273438 27.011719 -0.0390625 26.90625 -0.03125C26.875 -0.0234375 26.84375 -0.0117188 26.8125 0L17.21875 0C17.117188 -0.0273438 17.011719 -0.0390625 16.90625 -0.03125 Z M 4 2L6 2L6 10.53125C5.867188 10.808594 5.867188 11.128906 6 11.40625L6 20.53125C5.867188 20.808594 5.867188 21.128906 6 21.40625L6 31C6 31.03125 6 31.0625 6 31.09375L6 48L4 48 Z M 8 2L16 2L16 10L8 10 Z M 18 2L26 2L26 10L18 10 Z M 28 2L36 2L36 10L28 10 Z M 38 2L46 2L46 10L38 10 Z M 22 4C20.894531 4 20 4.894531 20 6C20 7.105469 20.894531 8 22 8C23.105469 8 24 7.105469 24 6C24 4.894531 23.105469 4 22 4 Z M 42 4C40.894531 4 40 4.894531 40 6C40 7.105469 40.894531 8 42 8C43.105469 8 44 7.105469 44 6C44 4.894531 43.105469 4 42 4 Z M 8 12L16 12L16 20L8 20 Z M 18 12L26 12L26 20L18 20 Z M 28 12L36 12L36 20L28 20 Z M 38 12L46 12L46 20L38 20 Z M 12 14C10.894531 14 10 14.894531 10 16C10 17.105469 10.894531 18 12 18C13.105469 18 14 17.105469 14 16C14 14.894531 13.105469 14 12 14 Z M 32 14C30.894531 14 30 14.894531 30 16C30 17.105469 30.894531 18 32 18C33.105469 18 34 17.105469 34 16C34 14.894531 33.105469 14 32 14 Z M 8 22L16 22L16 30L8 30 Z M 18 22L26 22L26 30L18 30 Z M 28 22L36 22L36 30L28 30 Z M 38 22L46 22L46 30L38 30 Z M 22 24C20.894531 24 20 24.894531 20 26C20 27.105469 20.894531 28 22 28C23.105469 28 24 27.105469 24 26C24 24.894531 23.105469 24 22 24 Z M 42 24C40.894531 24 40 24.894531 40 26C40 27.105469 40.894531 28 42 28C43.105469 28 44 27.105469 44 26C44 24.894531 43.105469 24 42 24Z" />
</svg>