<?xml version="1.0" encoding="utf-8"?>
<svg xmlns="http://www.w3.org/2000/svg" viewBox="0 0 50 50" width="515" height="515">
  <path d="M13 0C7.9826599 0 4.8944056 0.50356787 3.0136719 1.0371094C2.073305 1.3038801 1.4349279 1.578976 1.0117188 1.8046875C0.81954266 1.9071814 0.66867786 2.0100029 0.54882812 2.0957031C0.54823786 2.0961252 0.54746321 2.0972352 0.546875 2.0976562 A 1.0001 1.0001 0 0 0 0.046875 2.6953125 A 1.0001 1.0001 0 0 0 0.021484375 2.7910156 A 1.0001 1.0001 0 0 0 0.005859375 2.890625 A 1.0001 1.0001 0 0 0 0 2.9824219 A 1.0001 1.0001 0 0 0 0 2.9902344 A 1.0001 1.0001 0 0 0 0 3L0 30L0 49 A 1.0001 1.0001 0 1 0 2 49L2 30.708984C2.2735428 30.582134 2.6744914 30.356248 4.2070312 29.970703C6.1166053 29.490307 9.0323045 29 13 29C16.885391 29 19.777801 29.954372 23.300781 30.960938C26.823761 31.967503 30.937955 33 37 33C43.998507 33 49.492188 29.871094 49.492188 29.871094 A 1.0001 1.0001 0 0 0 50 29L50 4 A 1.0001 1.0001 0 0 0 48.513672 3.125C47.69614 3.5791846 43.03545 6 37 6C32.2 6 28.867181 4.5797416 25.355469 3.0800781C21.843757 1.5804147 18.15202 2.9605947e-16 13 0 z M 13 2C17.74798 2 21.057024 3.4195853 24.570312 4.9199219C28.083602 6.4202584 31.8 8 37 8C42.389163 8 46.09173 6.4324812 48 5.5078125L48 28.345703C47.305813 28.716884 42.917015 31 37 31C31.162045 31 27.32663 30.032498 23.849609 29.039062C20.372589 28.045628 17.214609 27 13 27C8.8676955 27 5.7841761 27.509693 3.71875 28.029297C3.1598956 28.169889 2.8639147 28.263032 2.640625 28.347656C2.4173353 28.43228 2.2667366 28.508384 2 28.613281L2 3.5527344C2.284568 3.4035515 2.7623656 3.189325 3.5605469 2.9628906C5.2048132 2.4964321 8.1173401 2 13 2 z" />
</svg>