<?xml version="1.0" encoding="utf-8"?>
<svg xmlns="http://www.w3.org/2000/svg" viewBox="0 0 50 50" width="515" height="515">
  <path d="M5 3C3.3545455 3 2 4.3545455 2 6L2 10L2 16L2 27L2 40L2 44C2 45.645455 3.3545455 47 5 47L44 47C45.645455 47 47 45.645455 47 44L47 27L47 16L47 10C47 8.3545455 45.645455 7 44 7L18 7C18.06944 7 17.95032 6.99708 17.705078 6.7167969C17.459833 6.4365165 17.160156 5.9707031 16.847656 5.4707031C16.535156 4.9707031 16.209833 4.4365165 15.798828 3.9667969C15.387823 3.4970773 14.819444 3 14 3L5 3 z M 5 5L14 5C13.93056 5 14.04968 5.00292 14.294922 5.2832031C14.540167 5.5634835 14.839844 6.0292969 15.152344 6.5292969C15.464844 7.0292969 15.790167 7.5634835 16.201172 8.0332031C16.612177 8.5029227 17.180556 9 18 9L44 9C44.554545 9 45 9.4454545 45 10L45 13.1875C44.685079 13.07397 44.351946 13 44 13L5 13C4.6480538 13 4.3149207 13.07397 4 13.1875L4 10L4 6C4 5.4454545 4.4454545 5 5 5 z M 5 15L44 15C44.554545 15 45 15.445455 45 16L45 27L45 44C45 44.554545 44.554545 45 44 45L5 45C4.4454545 45 4 44.554545 4 44L4 40L4 27L4 16C4 15.445455 4.4454545 15 5 15 z" />
</svg>