<?xml version="1.0" encoding="utf-8"?>
<svg xmlns="http://www.w3.org/2000/svg" viewBox="0 0 50 50" width="515" height="515">
  <path d="M36.90625 -0.03125C36.863281 -0.0234375 36.820313 -0.0117188 36.78125 0C36.316406 0.105469 35.988281 0.523438 36 1L36 15C35.996094 15.359375 36.183594 15.695313 36.496094 15.878906C36.808594 16.058594 37.191406 16.058594 37.503906 15.878906C37.816406 15.695313 38.003906 15.359375 38 15L38 1C38.011719 0.710938 37.894531 0.433594 37.6875 0.238281C37.476563 0.0390625 37.191406 -0.0585938 36.90625 -0.03125 Z M 42.90625 -0.03125C42.863281 -0.0234375 42.820313 -0.0117188 42.78125 0C42.316406 0.105469 41.988281 0.523438 42 1L42 15C41.996094 15.359375 42.183594 15.695313 42.496094 15.878906C42.808594 16.058594 43.191406 16.058594 43.503906 15.878906C43.816406 15.695313 44.003906 15.359375 44 15L44 1C44.011719 0.710938 43.894531 0.433594 43.6875 0.238281C43.476563 0.0390625 43.191406 -0.0585938 42.90625 -0.03125 Z M 48.90625 -0.03125C48.863281 -0.0234375 48.820313 -0.0117188 48.78125 0C48.316406 0.105469 47.988281 0.523438 48 1L48 19C48 21.773438 45.773438 24 43 24C42.449219 24 42 24.449219 42 25L42 49C41.996094 49.359375 42.183594 49.695313 42.496094 49.878906C42.808594 50.058594 43.191406 50.058594 43.503906 49.878906C43.816406 49.695313 44.003906 49.359375 44 49L44 25.78125C47.363281 25.273438 50 22.5 50 19L50 1C50.011719 0.710938 49.894531 0.433594 49.6875 0.238281C49.476563 0.0390625 49.191406 -0.0585938 48.90625 -0.03125 Z M 0.8125 0C0.335938 0.0898438 -0.0078125 0.511719 0 1L0 18C0 25.421875 5.128906 31.574219 12 33.375L12 43C12 44.761719 11.421875 45.871094 10.3125 46.6875C9.203125 47.503906 7.429688 48 5 48C4.640625 47.996094 4.304688 48.183594 4.121094 48.496094C3.941406 48.808594 3.941406 49.191406 4.121094 49.503906C4.304688 49.816406 4.640625 50.003906 5 50C7.691406 50 9.890625 49.496094 11.5 48.3125C13.109375 47.128906 14 45.238281 14 43L14 32.6875C13.992188 32.210938 13.652344 31.808594 13.1875 31.71875C6.800781 30.421875 2 24.785156 2 18L2 2L30 2L30 18C30 24.785156 25.199219 30.421875 18.8125 31.71875C18.347656 31.808594 18.007813 32.210938 18 32.6875L18 43C18 45.238281 18.890625 47.128906 20.5 48.3125C22.109375 49.496094 24.308594 50 27 50C27.359375 50.003906 27.695313 49.816406 27.878906 49.503906C28.058594 49.191406 28.058594 48.808594 27.878906 48.496094C27.695313 48.183594 27.359375 47.996094 27 48C24.570313 48 22.796875 47.503906 21.6875 46.6875C20.578125 45.871094 20 44.761719 20 43L20 33.375C26.871094 31.574219 32 25.421875 32 18L32 1C32 0.449219 31.550781 0 31 0L1 0C0.96875 0 0.9375 0 0.90625 0C0.875 0 0.84375 0 0.8125 0Z" />
</svg>