<?xml version="1.0" encoding="utf-8"?>
<svg xmlns="http://www.w3.org/2000/svg" viewBox="0 0 50 50" width="515" height="515">
  <path d="M43.90625 0.96875C43.863281 0.976563 43.820313 0.988281 43.78125 1C43.316406 1.105469 42.988281 1.523438 43 2C43 3.898438 42.121094 4.941406 40.5 5.96875C38.878906 6.996094 36.535156 7.828125 34.125 8.84375C31.714844 9.859375 29.21875 11.082031 27.28125 13.125C25.519531 14.984375 24.296875 17.539063 24.09375 20.96875C22.289063 20.832031 21.230469 20.273438 19.96875 19.625C18.507813 18.875 16.773438 18 14 18C12.289063 18 10.652344 19 9.09375 20.46875C7.535156 21.9375 6.027344 23.933594 4.6875 26.25C2.007813 30.882813 0 36.738281 0 42C0 44.167969 0.539063 46.101563 1.5625 47.5625C2.585938 49.023438 4.167969 50 6 50C10.832031 50 14.339844 47.558594 17.25 45.28125C20.160156 43.003906 22.5 41 25 41C27.5 41 29.839844 43.003906 32.75 45.28125C35.660156 47.558594 39.167969 50 44 50C45.832031 50 47.414063 49.023438 48.4375 47.5625C49.460938 46.101563 50 44.167969 50 42C50 36.738281 47.992188 30.882813 45.3125 26.25C43.972656 23.933594 42.464844 21.9375 40.90625 20.46875C39.347656 19 37.710938 18 36 18C33.226563 18 31.492188 18.875 30.03125 19.625C28.820313 20.246094 27.796875 20.773438 26.125 20.9375C26.320313 17.996094 27.300781 16.027344 28.75 14.5C30.367188 12.792969 32.578125 11.640625 34.90625 10.65625C37.234375 9.671875 39.628906 8.878906 41.5625 7.65625C43.496094 6.433594 45 4.601563 45 2C45.011719 1.710938 44.894531 1.433594 44.6875 1.238281C44.476563 1.039063 44.191406 0.941406 43.90625 0.96875 Z M 14 20C16.386719 20 17.570313 20.625 19.03125 21.375C20.492188 22.125 22.226563 23 25 23C25.097656 23 25.1875 23.003906 25.28125 23C25.292969 23 25.300781 23 25.3125 23C27.902344 22.9375 29.566406 22.097656 30.96875 21.375C32.429688 20.625 33.613281 20 36 20C36.867188 20 38.167969 20.625 39.53125 21.90625C40.894531 23.1875 42.296875 25.066406 43.5625 27.25C46.09375 31.617188 48 37.261719 48 42C48 43.832031 47.539063 45.398438 46.8125 46.4375C46.085938 47.476563 45.167969 48 44 48C39.832031 48 36.839844 45.941406 34 43.71875C31.160156 41.496094 28.5 39 25 39C21.5 39 18.839844 41.496094 16 43.71875C13.160156 45.941406 10.167969 48 6 48C4.832031 48 3.914063 47.476563 3.1875 46.4375C2.460938 45.398438 2 43.832031 2 42C2 37.261719 3.90625 31.617188 6.4375 27.25C7.703125 25.066406 9.105469 23.1875 10.46875 21.90625C11.832031 20.625 13.132813 20 14 20 Z M 37 27C35.894531 27 35 27.894531 35 29C35 30.105469 35.894531 31 37 31C38.105469 31 39 30.105469 39 29C39 27.894531 38.105469 27 37 27 Z M 12 28L12 31L9 31L9 34L12 34L12 37L15 37L15 34L18 34L18 31L15 31L15 28 Z M 33 31C31.894531 31 31 31.894531 31 33C31 34.105469 31.894531 35 33 35C34.105469 35 35 34.105469 35 33C35 31.894531 34.105469 31 33 31 Z M 41 31C39.894531 31 39 31.894531 39 33C39 34.105469 39.894531 35 41 35C42.105469 35 43 34.105469 43 33C43 31.894531 42.105469 31 41 31 Z M 37 35C35.894531 35 35 35.894531 35 37C35 38.105469 35.894531 39 37 39C38.105469 39 39 38.105469 39 37C39 35.894531 38.105469 35 37 35Z" />
</svg>