<?xml version="1.0" encoding="utf-8"?>
<svg xmlns="http://www.w3.org/2000/svg" viewBox="0 0 50 50" width="515" height="515">
  <path d="M9.3125 0C6.382813 0 4 2.382813 4 5.3125L4 44L3 44C2.96875 44 2.9375 44 2.90625 44C2.390625 44.046875 1.996094 44.480469 2 45L2 49C2 49.550781 2.449219 50 3 50L36 50C36.550781 50 37 49.550781 37 49L37 45C37 44.449219 36.550781 44 36 44L35 44L35 27.15625C36.753906 27.585938 38 29.078125 38 31L38 36C38 39.324219 40.675781 42 44 42C47.324219 42 50 39.324219 50 36L50 19.40625C50 18.210938 49.515625 17.078125 48.71875 16.28125L37.71875 5.28125L36.28125 6.71875L42 12.4375L42 20.59375C42 21.789063 42.484375 22.921875 43.28125 23.71875L48 28.4375L48 36C48 38.277344 46.277344 40 44 40C41.722656 40 40 38.277344 40 36L40 31C40 28.015625 37.847656 25.566406 35 25.09375L35 5.3125C35 2.382813 32.617188 0 29.6875 0 Z M 9.3125 2L29.6875 2C31.558594 2 33 3.441406 33 5.3125L33 44L6 44L6 5.3125C6 3.441406 7.441406 2 9.3125 2 Z M 10.90625 4C9.304688 4 8 5.304688 8 6.90625L8 17.09375C8 18.695313 9.304688 20 10.90625 20L28.09375 20C29.695313 20 31 18.695313 31 17.09375L31 6.90625C31 5.304688 29.695313 4 28.09375 4 Z M 10.90625 6L28.09375 6C28.492188 6 29 6.507813 29 6.90625L29 17.09375C29 17.492188 28.492188 18 28.09375 18L10.90625 18C10.507813 18 10 17.492188 10 17.09375L10 6.90625C10 6.507813 10.507813 6 10.90625 6 Z M 44 14.4375L47.28125 17.71875C47.683594 18.121094 48 18.800781 48 19.40625L48 25.5625L44.71875 22.28125C44.316406 21.878906 44 21.199219 44 20.59375 Z M 4 46L35 46L35 48L4 48Z" />
</svg>