<?xml version="1.0" encoding="utf-8"?>
<svg xmlns="http://www.w3.org/2000/svg" viewBox="0 0 50 50" width="515" height="515">
  <path d="M36 2C32.460938 2 29.292969 3.554688 27.09375 6L6.34375 6C3.960938 6 2 7.960938 2 10.34375L2 43.21875C1.984375 43.324219 1.984375 43.425781 2 43.53125L2 43.65625C2 46.039063 3.960938 48 6.34375 48L39.65625 48C42.039063 48 44 46.039063 44 43.65625L44 43.5625C44.015625 43.457031 44.015625 43.355469 44 43.25L44 23.4375C46.105469 20.632813 48 17.894531 48 14C48 7.382813 42.617188 2 36 2 Z M 36 4C41.535156 4 46 8.464844 46 14C46 17.414063 44.308594 19.691406 42.09375 22.625C39.972656 25.433594 37.476563 28.824219 36 33.9375C34.523438 28.824219 32.027344 25.433594 29.90625 22.625C29.082031 21.53125 28.308594 20.535156 27.6875 19.53125C27.6875 19.519531 27.6875 19.511719 27.6875 19.5C27.675781 19.480469 27.667969 19.457031 27.65625 19.4375C27.613281 19.273438 27.527344 19.121094 27.40625 19C26.542969 17.480469 26 15.921875 26 14C26 8.464844 30.464844 4 36 4 Z M 6.34375 8L25.625 8C24.597656 9.765625 24 11.8125 24 14C24 16.136719 24.578125 17.917969 25.4375 19.5625L4 40.96875L4 10.34375C4 9.042969 5.042969 8 6.34375 8 Z M 12.125 10C8.75 10 6 12.75 6 16.125C6 19.5 8.75 22.21875 12.125 22.21875C17.46875 22.21875 18.378906 17.414063 17.875 15.03125L12.125 15.03125L12.125 17.375L15.4375 17.375C15.003906 18.789063 13.835938 19.8125 12.125 19.8125C10.089844 19.8125 8.4375 18.160156 8.4375 16.125C8.4375 14.089844 10.089844 12.4375 12.125 12.4375C13.039063 12.4375 13.855469 12.761719 14.5 13.3125L16.21875 11.59375C15.132813 10.605469 13.710938 10 12.125 10 Z M 36 10C33.800781 10 32 11.800781 32 14C32 16.199219 33.800781 18 36 18C38.199219 18 40 16.199219 40 14C40 11.800781 38.199219 10 36 10 Z M 36 12C37.117188 12 38 12.882813 38 14C38 15.117188 37.117188 16 36 16C34.882813 16 34 15.117188 34 14C34 12.882813 34.882813 12 36 12 Z M 26.5 21.3125C27.0625 22.160156 27.648438 23.007813 28.28125 23.84375C28.289063 23.855469 28.304688 23.863281 28.3125 23.875L6.21875 45.96875C5.023438 45.902344 4.097656 44.976563 4.03125 43.78125 Z M 29.5 25.5C30.929688 27.453125 32.355469 29.621094 33.4375 32.4375L28 27 Z M 42 26.15625L42 40.96875L37.34375 36.34375C37.390625 36.261719 37.441406 36.167969 37.46875 36.09375C37.632813 35.660156 37.613281 35.375 37.6875 35.09375C38.683594 31.265625 40.3125 28.523438 42 26.15625 Z M 26.59375 28.40625L41.96875 43.78125C41.902344 44.976563 40.976563 45.902344 39.78125 45.96875L24.40625 30.59375 Z M 23 32L36.96875 46L9.03125 46Z" />
</svg>