<?xml version="1.0" encoding="utf-8"?>
<svg xmlns="http://www.w3.org/2000/svg" viewBox="0 0 50 50" width="515" height="515">
  <path d="M7 4C5.3545455 4 4 5.3545455 4 7L4 43C4 44.645455 5.3545455 46 7 46L43 46C44.645455 46 46 44.645455 46 43L46 7C46 5.3545455 44.645455 4 43 4L7 4 z M 7 6L43 6C43.554545 6 44 6.4454545 44 7L44 43C44 43.554545 43.554545 44 43 44L7 44C6.4454545 44 6 43.554545 6 43L6 7C6 6.4454545 6.4454545 6 7 6 z M 22.5 13C17.26514 13 13 17.26514 13 22.5C13 27.73486 17.26514 32 22.5 32C24.758219 32 26.832076 31.201761 28.464844 29.878906L36.292969 37.707031L37.707031 36.292969L29.878906 28.464844C31.201761 26.832076 32 24.758219 32 22.5C32 17.26514 27.73486 13 22.5 13 z M 22.5 15C26.65398 15 30 18.34602 30 22.5C30 26.65398 26.65398 30 22.5 30C18.34602 30 15 26.65398 15 22.5C15 18.34602 18.34602 15 22.5 15 z" />
</svg>