<?xml version="1.0" encoding="utf-8"?>
<svg xmlns="http://www.w3.org/2000/svg" viewBox="0 0 50 50" width="515" height="515">
  <path d="M21.373047 1.0273438C20.022857 1.0706464 18.726405 1.7652191 17.958984 2.9589844L18 2.9003906L17.683594 3.3222656L17.667969 3.3457031C17.210205 4.0323574 16.636754 4.4003906 15.900391 4.4003906L15.400391 4.4003906C13.151371 4.4003906 11.428725 6.2663653 11.300781 8.4414062L11.300781 8.4707031L11.300781 9C11.300781 9.7363636 10.932748 10.309809 10.246094 10.767578L10.222656 10.783203L9.8007812 11.099609L9.859375 11.058594C8.0403041 12.227996 7.3802321 14.624557 8.4179688 16.570312L8.6152344 16.966797L8.625 16.986328C8.9417385 17.556457 8.9417385 18.443543 8.625 19.013672L8.5507812 19.150391L8.4355469 19.726562C7.5397271 21.635147 8.1998911 23.91017 9.9589844 25.041016L9.9003906 25L10.322266 25.316406L10.345703 25.332031C11.032357 25.7898 11.400391 26.363246 11.400391 27.099609L11.400391 27.599609C11.400391 29.410733 12.617511 30.863093 14.224609 31.433594L9.0917969 42.582031 A 1.0001 1.0001 0 0 0 10 44L16.519531 44L20.21875 48.625 A 1.0001 1.0001 0 0 0 21.916016 48.400391L25.017578 41.296875L28.1875 48.40625 A 1.0001 1.0001 0 0 0 29.880859 48.625L33.580078 44L40.099609 44 A 1.0001 1.0001 0 0 0 41.005859 42.576172L35.804688 31.458984C37.381939 30.901154 38.49606 29.38534 38.597656 27.658203L38.599609 27.628906L38.599609 27.099609C38.599609 26.363246 38.967643 25.7898 39.654297 25.332031L39.677734 25.316406L40.099609 25L40.041016 25.041016C41.860086 23.871613 42.520158 21.475053 41.482422 19.529297L41.529297 19.628906L41.304688 19.070312L41.273438 19.013672C40.956699 18.443543 40.956699 17.556457 41.273438 16.986328L41.285156 16.966797L41.482422 16.570312C42.520158 14.624557 41.860086 12.227996 40.041016 11.058594L40.099609 11.099609L39.677734 10.783203L39.654297 10.767578C38.967649 10.309813 38.599609 9.7363636 38.599609 9L38.599609 8.5C38.599609 6.2509804 36.733635 4.5302873 34.558594 4.4023438L34.529297 4.4003906L34 4.4003906C33.263636 4.4003906 32.690191 4.0323569 32.232422 3.3457031L32.216797 3.3222656L31.900391 2.9003906L31.941406 2.9589844C30.772004 1.1399096 28.375443 0.47984154 26.429688 1.5175781L26.033203 1.7148438L26.013672 1.7265625C25.443543 2.043301 24.556457 2.043301 23.986328 1.7265625L23.929688 1.6953125L23.371094 1.4707031L23.470703 1.5175781C22.984262 1.2581437 22.469701 1.1044374 21.953125 1.0488281C21.759409 1.0279747 21.565931 1.0211577 21.373047 1.0273438 z M 21.318359 3.015625C21.717727 2.987011 22.133955 3.0723542 22.529297 3.2832031L22.578125 3.3085938L23.128906 3.5292969C24.337518 4.1513746 25.793929 4.1370534 26.986328 3.4746094L27.359375 3.2890625L27.371094 3.2832031C28.425338 2.7209397 29.629168 3.0600865 30.259766 4.0410156L30.279297 4.0703125L30.599609 4.5L30.568359 4.4550781C31.31059 5.5684244 32.536364 6.4003906 34 6.4003906L34.445312 6.4003906C35.667912 6.4744551 36.599609 7.3505219 36.599609 8.5L36.599609 9C36.599609 10.463636 37.431576 11.68941 38.544922 12.431641L38.5 12.400391L38.929688 12.720703L38.958984 12.740234C39.939914 13.370832 40.27906 14.574662 39.716797 15.628906L39.710938 15.640625L39.525391 16.013672C38.862946 17.206071 38.848625 18.662482 39.470703 19.871094L39.691406 20.421875L39.716797 20.470703C40.27906 21.524947 39.939914 22.728778 38.958984 23.359375L38.929688 23.378906L38.5 23.699219L38.544922 23.667969C37.431576 24.4102 36.599609 25.635973 36.599609 27.099609L36.599609 27.544922C36.525549 28.767522 35.649478 29.699219 34.5 29.699219L34 29.699219C32.536364 29.699219 31.31059 30.531185 30.568359 31.644531L30.599609 31.599609L30.279297 32.029297L30.259766 32.058594C29.629168 33.039523 28.425338 33.380623 27.371094 32.818359L27.359375 32.810547L26.986328 32.625C25.756457 31.941739 24.243543 31.941739 23.013672 32.625L22.640625 32.810547L22.628906 32.818359C21.574662 33.380623 20.370832 33.039523 19.740234 32.058594L19.720703 32.029297L19.400391 31.599609L19.431641 31.644531C18.68941 30.531202 17.463636 29.699219 16 29.699219L15.554688 29.699219C14.332088 29.625149 13.400391 28.749087 13.400391 27.599609L13.400391 27.099609C13.400391 25.635973 12.568424 24.4102 11.455078 23.667969L11.5 23.699219L11.070312 23.378906L11.041016 23.359375C10.060086 22.728778 9.7209398 21.524947 10.283203 20.470703L10.351562 20.339844L10.457031 19.814453C11.049874 18.617068 11.027179 17.187595 10.375 16.013672L10.189453 15.640625L10.181641 15.628906C9.6193698 14.574662 9.9604773 13.370832 10.941406 12.740234L10.970703 12.720703L11.400391 12.400391L11.355469 12.431641C12.46881 11.689409 13.300781 10.463636 13.300781 9L13.300781 8.5546875C13.374841 7.3320876 14.250913 6.4003906 15.400391 6.4003906L15.900391 6.4003906C17.364027 6.4003906 18.5898 5.5684244 19.332031 4.4550781L19.300781 4.5L19.621094 4.0703125L19.640625 4.0410156C19.955924 3.5505511 20.414328 3.2192992 20.925781 3.0820312C21.053645 3.0477143 21.185237 3.025163 21.318359 3.015625 z M 32.357422 11.160156L24.095703 24.064453L17.472656 18.058594L16.128906 19.541016L24.503906 27.134766L34.042969 12.238281L32.357422 11.160156 z M 33.726562 31.734375L38.527344 42L33.099609 42 A 1.0001 1.0001 0 0 0 32.318359 42.375L29.34375 46.091797L26.101562 38.814453L27.761719 35.011719C29.371105 35.259277 31.029075 34.559808 31.941406 33.140625L31.900391 33.199219L32.216797 32.777344L32.232422 32.753906C32.630425 32.1569 33.122628 31.817198 33.726562 31.734375 z M 16.287109 31.736328C16.884733 31.822608 17.372571 32.161395 17.767578 32.753906L17.783203 32.777344L18.099609 33.199219L18.058594 33.140625C19.227996 34.959696 21.624557 35.619768 23.570312 34.582031L23.966797 34.384766L23.986328 34.375C24.5161 34.080682 25.31039 34.071568 25.878906 34.324219L20.746094 46.082031L17.78125 42.375 A 1.0001 1.0001 0 0 0 17 42L11.560547 42L16.287109 31.736328 z" />
</svg>