<?xml version="1.0" encoding="utf-8"?>
<svg xmlns="http://www.w3.org/2000/svg" viewBox="0 0 50 50" width="515" height="515">
  <path d="M23 3C20.804688 3 19 4.804688 19 7L19 31.0625C18.253906 30.726563 17.722656 30.488281 16.328125 29.875C14.207031 28.9375 11.996094 27.96875 11.152344 27.664063C10.425781 27.394531 9.722656 27 8.601563 27C7.054688 27 5.851563 27.597656 5.09375 28.402344C4.339844 29.207031 4 30.148438 4 31C4 32.191406 4.707031 33.355469 5.914063 34.109375L21.3125 45.308594C21.3125 45.3125 21.316406 45.3125 21.316406 45.3125C22.882813 46.433594 24.703125 47 26.597656 47L36 47C40.945313 47 45 42.945313 45 38L45 23C45 21.484375 44.382813 20.222656 43.558594 19.371094C42.730469 18.515625 41.734375 18 40.699219 18C39.835938 18 39.125 18.207031 38.589844 18.417969C38.066406 17.445313 37.074219 16 34.800781 16C33.398438 16 32.449219 16.675781 31.835938 17.347656C31.164063 16.679688 30.164063 16 28.699219 16C28.007813 16 27.503906 16.265625 27 16.515625L27 7C27 4.804688 25.195313 3 23 3 Z M 23 5C24.105469 5 25 5.894531 25 7L25 18.535156C25 18.980469 25.289063 19.367188 25.710938 19.496094C26.132813 19.621094 26.589844 19.457031 26.832031 19.089844C27.175781 18.574219 27.695313 18 28.699219 18C30.164063 18 31.023438 19.484375 31.023438 19.484375C31.210938 19.820313 31.574219 20.023438 31.960938 20C32.347656 19.972656 32.683594 19.730469 32.828125 19.371094C32.828125 19.371094 33.335938 18 34.800781 18C36.449219 18 37.261719 20.046875 37.261719 20.046875C37.371094 20.335938 37.605469 20.5625 37.902344 20.65625C38.199219 20.746094 38.519531 20.699219 38.773438 20.519531C38.773438 20.519531 39.511719 20 40.699219 20C40.964844 20 41.617188 20.234375 42.117188 20.753906C42.617188 21.277344 43 22.015625 43 23L43 38C43 41.855469 39.855469 45 36 45L26.597656 45C25.09375 45 23.714844 44.566406 22.480469 43.6875L7.085938 32.492188C7.0625 32.476563 7.039063 32.457031 7.015625 32.441406C6.265625 31.996094 6 31.382813 6 31C6 30.753906 6.160156 30.191406 6.554688 29.769531C6.949219 29.351563 7.542969 29 8.601563 29C9.277344 29 9.570313 29.207031 10.449219 29.535156C10.453125 29.539063 10.457031 29.539063 10.464844 29.542969C11.019531 29.742188 13.398438 30.765625 15.519531 31.703125C17.644531 32.640625 19.589844 33.511719 19.589844 33.511719C19.898438 33.652344 20.257813 33.625 20.542969 33.4375C20.828125 33.253906 21 32.9375 21 32.597656L21 7C21 5.894531 21.894531 5 23 5Z" />
</svg>