<?xml version="1.0" encoding="utf-8"?>
<svg xmlns="http://www.w3.org/2000/svg" viewBox="0 0 50 50" width="515" height="515">
  <path d="M26 0C23.539063 0 22 2.078125 22 4L22 4.59375C21.371094 4.238281 20.6875 4 20 4C18.125 4 16.035156 5.402344 15.90625 7.84375C15.90625 7.863281 15.90625 7.886719 15.90625 7.90625L15.90625 29.375L12.65625 25.46875C12.648438 25.449219 12.636719 25.425781 12.625 25.40625C10.953125 23.605469 8.085938 23.636719 6.3125 25.375C6.304688 25.382813 6.320313 25.398438 6.3125 25.40625C4.546875 27.066406 4.535156 29.855469 6.21875 31.625L6.28125 31.71875L17.8125 46.5C19.5 48.75 22.113281 50 24.90625 50L33 50C37.945313 50 42 45.945313 42 41L42 12C42 11.253906 41.960938 10.113281 41.4375 9.03125C40.914063 7.949219 39.710938 7 38 7C37.207031 7 36.5625 7.265625 36 7.59375L36 7C36 5.480469 35.734375 4.257813 35.03125 3.34375C34.328125 2.429688 33.199219 2 32 2C31.09375 2 30.371094 2.296875 29.75 2.6875C29.234375 1.238281 27.898438 0 26 0 Z M 26 2C27.339844 2 28 3.125 28 4L28 22L30 22L30 6C30 5.464844 30.132813 4.933594 30.40625 4.59375C30.679688 4.253906 31.082031 4 32 4C32.800781 4 33.171875 4.175781 33.46875 4.5625C33.765625 4.949219 34 5.71875 34 7L34 24L36 24L36 12C36 11.347656 36.066406 10.476563 36.34375 9.90625C36.621094 9.335938 36.910156 9 38 9C39.089844 9 39.378906 9.335938 39.65625 9.90625C39.933594 10.476563 40 11.347656 40 12L40 41C40 44.855469 36.855469 48 33 48L24.90625 48C22.699219 48 20.71875 47.0625 19.40625 45.3125C19.394531 45.300781 19.386719 45.292969 19.375 45.28125L7.78125 30.375C7.761719 30.34375 7.742188 30.3125 7.71875 30.28125C6.6875 29.25 6.699219 27.761719 7.6875 26.84375C7.699219 26.832031 7.707031 26.824219 7.71875 26.8125C8.738281 25.792969 10.203125 25.792969 11.125 26.75C11.136719 26.761719 11.144531 26.769531 11.15625 26.78125L16.125 32.75C16.394531 33.085938 16.847656 33.214844 17.253906 33.066406C17.65625 32.914063 17.921875 32.523438 17.90625 32.09375L17.90625 7.90625C17.996094 6.570313 19.085938 6 20 6C20.460938 6 21 6.175781 21.375 6.5C21.75 6.824219 22 7.265625 22 8L22 23L24 23L24 4C24 3.125 24.660156 2 26 2Z" />
</svg>