<?xml version="1.0" encoding="utf-8"?>
<svg xmlns="http://www.w3.org/2000/svg" viewBox="0 0 50 50" width="515" height="515">
  <path d="M5.90625 4.96875C5.863281 4.976563 5.820313 4.988281 5.78125 5C5.40625 5.066406 5.105469 5.339844 5 5.703125C4.894531 6.070313 5.003906 6.460938 5.28125 6.71875L43.28125 44.71875C43.679688 45.117188 44.320313 45.117188 44.71875 44.71875C45.117188 44.320313 45.117188 43.679688 44.71875 43.28125L36.25 34.8125C42.824219 31.265625 47.464844 25.988281 47.75 25.65625C48.070313 25.28125 48.070313 24.71875 47.75 24.34375C47.316406 23.839844 37.007813 12 25 12C21.691406 12 18.535156 12.90625 15.65625 14.21875L6.71875 5.28125C6.511719 5.058594 6.210938 4.945313 5.90625 4.96875 Z M 25 14C31.066406 14 36 18.933594 36 25C36 27.667969 35.054688 30.125 33.46875 32.03125L28.4375 27C28.785156 26.410156 29 25.734375 29 25C29 22.789063 27.210938 21 25 21C24.265625 21 23.589844 21.214844 23 21.5625L17.96875 16.53125C19.566406 15.199219 21.550781 14.316406 23.71875 14.0625C24.140625 14.03125 24.574219 14 25 14 Z M 12 16.15625C6.347656 19.625 2.511719 24.039063 2.25 24.34375C1.929688 24.71875 1.929688 25.28125 2.25 25.65625C2.667969 26.140625 12.25 37.132813 23.6875 37.9375C24.121094 37.96875 24.558594 38 25 38C25.3125 38 25.628906 37.984375 25.9375 37.96875C25.949219 37.96875 25.957031 37.96875 25.96875 37.96875C28.214844 37.851563 30.382813 37.351563 32.4375 36.59375L30.40625 34.5625C28.804688 35.472656 26.972656 36 25 36C24.625 36 24.25 35.964844 23.875 35.9375C18.335938 35.375 14 30.6875 14 25C14 23.027344 14.527344 21.195313 15.4375 19.59375L14 18.125C12.75 20.121094 12 22.476563 12 25C12 28.089844 13.070313 30.921875 14.875 33.15625C9.769531 30.4375 5.796875 26.535156 4.34375 25C5.660156 23.609375 9.042969 20.265625 13.46875 17.625 Z M 35.125 16.84375C40.230469 19.5625 44.203125 23.464844 45.65625 25C44.199219 26.539063 40.191406 30.4375 35.0625 33.15625C36.882813 30.921875 38 28.101563 38 25C38 21.910156 36.929688 19.078125 35.125 16.84375 Z M 21.03125 25.15625C21.113281 27.234375 22.761719 28.886719 24.84375 28.96875Z" />
</svg>