<?xml version="1.0" encoding="utf-8"?>
<svg xmlns="http://www.w3.org/2000/svg" viewBox="0 0 50 50" width="515" height="515">
  <path d="M15 3C8.3845336 3 3 8.3845336 3 15L3 35C3 41.615466 8.3845336 47 15 47L35 47C41.615466 47 47 41.615466 47 35L47 15C47 8.3845336 41.615466 3 35 3L15 3 z M 15 5L35 5C40.534534 5 45 9.4654664 45 15L45 35C45 40.534534 40.534534 45 35 45L15 45C9.4654664 45 5 40.534534 5 35L5 15C5 9.4654664 9.4654664 5 15 5 z M 11.615234 18.066406C10.912234 18.066406 10.394531 18.567563 10.394531 19.226562C10.394531 19.876563 10.912234 20.376953 11.615234 20.376953C12.318234 20.376953 12.837891 19.876562 12.837891 19.226562C12.837891 18.567562 12.318234 18.066406 11.615234 18.066406 z M 22.037109 18.636719C18.398109 18.636719 16.113281 21.18525 16.113281 25.28125C16.113281 29.36825 18.354109 31.933594 22.037109 31.933594C25.711109 31.933594 27.943359 29.35925 27.943359 25.28125C27.943359 21.19425 25.693109 18.637719 22.037109 18.636719 z M 34.966797 18.636719C32.198797 18.636719 30.351562 20.139437 30.351562 22.398438C30.351562 24.261437 31.397406 25.37025 33.691406 25.90625L35.326172 26.302734C37.005172 26.697734 37.744141 27.277141 37.744141 28.244141C37.744141 29.369141 36.583953 30.185547 35.001953 30.185547C33.306858 30.185547 32.128927 29.421639 31.960938 28.21875L30.007812 28.21875C30.148813 30.48675 32.037609 31.935547 34.849609 31.935547C37.855609 31.935547 39.736328 30.416234 39.736328 27.990234C39.736328 26.083234 38.6645 25.027875 36.0625 24.421875L34.666016 24.078125C33.014016 23.691125 32.345703 23.172578 32.345703 22.267578C32.345703 21.124578 33.383453 20.378906 34.939453 20.378906C36.416453 20.378906 37.434141 21.106391 37.619141 22.275391L39.535156 22.275391C39.421156 20.139391 37.541797 18.636719 34.966797 18.636719 z M 22.037109 20.472656C24.446109 20.472656 25.931641 22.33725 25.931641 25.28125C25.931641 28.20725 24.445109 30.097656 22.037109 30.097656C19.603109 30.097656 18.126953 28.20825 18.126953 25.28125C18.126953 22.33725 19.646109 20.473656 22.037109 20.472656 z M 10.675781 22.056641L10.675781 31.626953L12.556641 31.626953L12.556641 22.056641L10.675781 22.056641 z" />
</svg>