<?xml version="1.0" encoding="utf-8"?>
<svg xmlns="http://www.w3.org/2000/svg" viewBox="0 0 50 50" width="515" height="515">
  <path d="M24.984375 6.9863281 A 1.0001 1.0001 0 0 0 24 8L24 11 A 1.0001 1.0001 0 1 0 26 11L26 8 A 1.0001 1.0001 0 0 0 24.984375 6.9863281 z M 16.503906 10.505859 A 1.0001 1.0001 0 0 0 15.808594 12.222656L17.929688 14.34375 A 1.0001 1.0001 0 1 0 19.34375 12.929688L17.222656 10.808594 A 1.0001 1.0001 0 0 0 16.503906 10.505859 z M 33.464844 10.505859 A 1.0001 1.0001 0 0 0 32.777344 10.808594L30.65625 12.929688 A 1.0001 1.0001 0 1 0 32.070312 14.34375L34.191406 12.222656 A 1.0001 1.0001 0 0 0 33.464844 10.505859 z M 25 14C21.698136 14 19 16.698136 19 20C19 23.301864 21.698136 26 25 26C28.301864 26 31 23.301864 31 20C31 16.698136 28.301864 14 25 14 z M 25 16C27.220984 16 29 17.779016 29 20C29 22.220984 27.220984 24 25 24C22.779016 24 21 22.220984 21 20C21 17.779016 22.779016 16 25 16 z M 13 19 A 1.0001 1.0001 0 1 0 13 21L16 21 A 1.0001 1.0001 0 1 0 16 19L13 19 z M 34 19 A 1.0001 1.0001 0 1 0 34 21L37 21 A 1.0001 1.0001 0 1 0 37 19L34 19 z M 9 23C6.2504209 23 4 25.250421 4 28C4 30.749579 6.2504209 33 9 33C11.749579 33 14 30.749579 14 28C14 25.250421 11.749579 23 9 23 z M 41 23C38.250421 23 36 25.250421 36 28C36 30.749579 38.250421 33 41 33C43.749579 33 46 30.749579 46 28C46 25.250421 43.749579 23 41 23 z M 9 25C10.668699 25 12 26.331301 12 28C12 29.668699 10.668699 31 9 31C7.3313011 31 6 29.668699 6 28C6 26.331301 7.3313011 25 9 25 z M 41 25C42.668699 25 44 26.331301 44 28C44 29.668699 42.668699 31 41 31C39.331301 31 38 29.668699 38 28C38 26.331301 39.331301 25 41 25 z M 21 28C17.704545 28 15 30.704545 15 34L15 35.972656C14.187108 35.36982 13.192854 35 12.111328 35L9 35L5.8886719 35C3.2042457 35 1 37.204246 1 39.888672L1 42L3 42L3 39.888672C3 38.295098 4.2950981 37 5.8886719 37L9 37L12.111328 37C13.704902 37 15 38.295098 15 39.888672L15 41L15 42L17 42L17 39.888672L17 34C17 31.795455 18.795455 30 21 30L29 30C31.204545 30 33 31.795455 33 34L33 39.888672L33 42L35 42L35 39.888672C35 38.295098 36.295098 37 37.888672 37L41 37L44.111328 37C45.704902 37 47 38.295098 47 39.888672L47 42L49 42L49 39.888672C49 37.204246 46.795754 35 44.111328 35L41 35L37.888672 35C36.807146 35 35.812892 35.36982 35 35.972656L35 34C35 30.704545 32.295455 28 29 28L21 28 z" />
</svg>