<?xml version="1.0" encoding="utf-8"?>
<svg xmlns="http://www.w3.org/2000/svg" viewBox="0 0 50 50" width="515" height="515">
  <path d="M39.974609 1 A 1.0001 1.0001 0 0 0 39.183594 1.4238281C38.020434 3.0698085 36.274556 4.0787422 34.033203 4.8652344C31.79185 5.6517266 29.094384 6.1852957 26.242188 6.90625C20.537795 8.3481586 14.139024 10.630019 9.6601562 17.556641C5.6541888 23.725827 7.183767 29.451183 10.328125 33.261719C11.900509 35.167235 13.846157 36.643315 15.714844 37.630859C16.700083 38.151529 17.628863 38.486037 18.513672 38.6875C16.53876 40.367592 14.543436 41.766363 12.613281 42.751953C9.6636444 44.258119 6.9173512 44.794767 4.5703125 44.136719 A 1.0001663 1.0001663 0 1 0 4.0292969 46.0625C7.0322582 46.904452 10.298074 46.180162 13.523438 44.533203C15.77161 43.385224 18.022707 41.774221 20.214844 39.863281C20.590214 41.00305 21.187667 42.19909 22.257812 43.259766C23.865674 44.853398 26.399609 46 30.099609 46C39.046023 46 53.864889 32.555174 40.921875 1.6132812 A 1.0001 1.0001 0 0 0 39.974609 1 z M 39.546875 3.7773438C51.107789 32.918352 36.839454 44 30.099609 44C26.799609 44 24.883154 43.046211 23.666016 41.839844C22.619227 40.802318 22.090675 39.527527 21.814453 38.380859C22.221756 37.993482 22.63369 37.622445 23.035156 37.216797C29.140333 31.048024 34.511352 22.888856 37.228516 16.070312 A 1.0001 1.0001 0 0 0 36.269531 14.6875 A 1.0001 1.0001 0 0 0 35.371094 15.330078C32.788257 21.811535 27.508104 29.852366 21.613281 35.808594C21.20131 36.224856 20.780487 36.60325 20.363281 36.998047C19.578452 37.007096 18.157975 36.661027 16.648438 35.863281C15.004623 34.994575 13.24871 33.657765 11.871094 31.988281C9.115861 28.649313 7.745822 24.174426 11.337891 18.644531 A 1.0001 1.0001 0 0 0 11.339844 18.642578C15.460929 12.269247 21.161815 10.251841 26.732422 8.84375C29.517726 8.1397043 32.252291 7.6111642 34.695312 6.7539062C36.56433 6.0980668 38.175151 5.0897263 39.546875 3.7773438 z" />
</svg>