<?xml version="1.0" encoding="utf-8"?>
<svg xmlns="http://www.w3.org/2000/svg" viewBox="0 0 50 50" width="515" height="515">
  <path d="M24 1C16.77381 1 11.445563 3.4910019 8 7.4003906C4.554437 11.309779 3 16.559524 3 22C3 26.406349 4.3650803 30.506168 6.6757812 33.867188C8.7705902 36.914181 10 40.521441 10 44.199219L10 49L12 49L12 44.199219C12 40.076997 10.62941 36.08738 8.3242188 32.734375C6.2349197 29.695395 5 25.993651 5 22C5 16.940476 6.445563 12.190221 9.5 8.7246094C12.554437 5.2589981 17.22619 3 24 3C30.802381 3 35.207167 4.9789703 38.117188 8.0058594C41.027208 11.032748 42.474081 15.204341 43.007812 19.716797L43.03125 19.923828L47.826172 28.185547C48.074892 28.633244 47.95029 29.078295 47.515625 29.322266L43 31.582031L43 37.599609C43 41.34147 39.921743 44.251123 36.193359 43.904297L36.177734 43.902344L32 43.632812L32 49L34 49L34 45.765625L36.007812 45.896484C40.87943 46.349658 45 42.457749 45 37.599609L45 32.818359L48.466797 31.083984L48.486328 31.074219C49.848147 30.317653 50.324676 28.565667 49.574219 27.214844L49.570312 27.207031L44.921875 19.197266C44.327137 14.515148 42.805351 9.9962901 39.558594 6.6191406C36.243615 3.1710297 31.197619 1 24 1 z M 28 8L28 10.201172C27.341856 10.326915 26.761702 10.536815 26.251953 10.865234L24.691406 9.3769531L23.308594 10.824219L24.839844 12.285156C24.507465 12.823156 24.284342 13.38955 24.169922 14L22 14L22 16L24.169922 16C24.285724 16.617824 24.512435 17.191232 24.851562 17.734375L23.292969 19.292969L24.707031 20.707031L26.267578 19.146484C26.773569 19.469446 27.349025 19.674455 28 19.798828L28 22L30 22L30 19.798828C30.650975 19.674455 31.226431 19.469446 31.732422 19.146484L33.292969 20.707031L34.707031 19.292969L33.148438 17.734375C33.487566 17.191232 33.714276 16.617824 33.830078 16L36 16L36 14L33.830078 14C33.715658 13.38955 33.492535 12.823156 33.160156 12.285156L34.691406 10.824219L33.308594 9.3769531L31.748047 10.865234C31.238298 10.536815 30.658144 10.326915 30 10.201172L30 8L28 8 z M 29 12C30.083333 12 30.768559 12.370244 31.251953 12.914062C31.735347 13.457882 32 14.222222 32 15C32 15.777778 31.735347 16.542119 31.251953 17.085938C30.768559 17.629756 30.083333 18 29 18C27.916667 18 27.231441 17.629756 26.748047 17.085938C26.264653 16.542119 26 15.777778 26 15C26 14.222222 26.264653 13.457881 26.748047 12.914062C27.231441 12.370245 27.916667 12 29 12 z M 16 16L16 18.201172C15.356775 18.324065 14.787035 18.524696 14.285156 18.841797L12.824219 17.308594L11.376953 18.691406L12.863281 20.248047C12.517841 20.795914 12.287004 21.375348 12.169922 22L10 22L10 24L12.169922 24C12.287004 24.624652 12.517841 25.204086 12.863281 25.751953L11.376953 27.308594L12.824219 28.691406L14.285156 27.158203C14.787035 27.475304 15.356775 27.675935 16 27.798828L16 30L18 30L18 27.798828C18.650975 27.674455 19.226431 27.469446 19.732422 27.146484L21.292969 28.707031L22.707031 27.292969L21.148438 25.734375C21.487565 25.191232 21.714276 24.617824 21.830078 24L24 24L24 22L21.830078 22C21.714276 21.382176 21.487565 20.808768 21.148438 20.265625L22.707031 18.707031L21.292969 17.292969L19.732422 18.853516C19.226431 18.530554 18.650975 18.325545 18 18.201172L18 16L16 16 z M 17 20C18.083333 20 18.768559 20.370244 19.251953 20.914062C19.735347 21.457881 20 22.222222 20 23C20 23.777778 19.735347 24.542118 19.251953 25.085938C18.768559 25.629756 18.083333 26 17 26C15.916667 26 15.231441 25.629756 14.748047 25.085938C14.264653 24.542119 14 23.777778 14 23C14 22.222222 14.264653 21.457882 14.748047 20.914062C15.231441 20.370244 15.916667 20 17 20 z" />
</svg>