<?xml version="1.0" encoding="utf-8"?>
<svg xmlns="http://www.w3.org/2000/svg" viewBox="0 0 50 50" width="515" height="515">
  <path d="M48 3 A 2 2 0 0 0 46.050781 5.4394531L35.59375 15.091797 A 2 2 0 0 0 35 15 A 2 2 0 0 0 34.029297 15.251953L26.998047 11.033203 A 2 2 0 0 0 25 9 A 2 2 0 0 0 23.025391 11.298828L15.726562 17.138672 A 2 2 0 0 0 15 17 A 2 2 0 0 0 13.011719 18.816406L3.1503906 23.367188 A 2 2 0 0 0 2 23 A 2 2 0 0 0 2 27 A 2 2 0 0 0 3.9882812 25.183594L13.849609 20.632812 A 2 2 0 0 0 15 21 A 2 2 0 0 0 16.974609 18.701172L24.273438 12.861328 A 2 2 0 0 0 25 13 A 2 2 0 0 0 25.970703 12.748047L33.001953 16.966797 A 2 2 0 0 0 35 19 A 2 2 0 0 0 36.949219 16.558594L47.40625 6.9082031 A 2 2 0 0 0 48 7 A 2 2 0 0 0 48 3 z M 48 29 A 2 2 0 0 0 46.050781 31.439453L35.591797 41.091797 A 2 2 0 0 0 35 41 A 2 2 0 0 0 34.484375 41.070312L26.931641 33.517578 A 2 2 0 0 0 25 31 A 2 2 0 0 0 23.025391 33.298828L15.726562 39.138672 A 2 2 0 0 0 15 39 A 2 2 0 0 0 13.439453 39.748047L3.8613281 38.275391 A 2 2 0 0 0 2 37 A 2 2 0 0 0 2 41 A 2 2 0 0 0 3.5605469 40.251953L13.138672 41.724609 A 2 2 0 0 0 15 43 A 2 2 0 0 0 16.974609 40.699219L24.273438 34.861328 A 2 2 0 0 0 25 35 A 2 2 0 0 0 25.515625 34.929688L33.068359 42.482422 A 2 2 0 0 0 35 45 A 2 2 0 0 0 36.949219 42.560547L47.40625 32.908203 A 2 2 0 0 0 48 33 A 2 2 0 0 0 48 29 z" />
</svg>