<?xml version="1.0" encoding="utf-8"?>
<svg xmlns="http://www.w3.org/2000/svg" viewBox="0 0 50 50" width="515" height="515">
  <path d="M3 0C1.3 0 0 1.3 0 3L0 47C0 48.7 1.3 50 3 50L37 50C38.7 50 40 48.7 40 47L40 40.599609L38 42.599609L38 47C38 47.6 37.6 48 37 48L3 48C2.4 48 2 47.6 2 47L2 3C2 2.4 2.4 2 3 2L37 2C37.6 2 38 2.4 38 3L38 7.5C38.2 7.6 38.4 7.8003906 38.5 7.9003906L40 9.4003906L40 3C40 1.3 38.7 0 37 0L3 0 z M 34.990234 10.390625 A 1.0001 1.0001 0 0 0 34.292969 12.107422L46.185547 24L17 24 A 1.0001 1.0001 0 1 0 17 26L46.185547 26L33.693359 38.492188 A 1.0001 1.0001 0 1 0 35.107422 39.90625L50.013672 25L35.707031 10.693359 A 1.0001 1.0001 0 0 0 34.990234 10.390625 z" />
</svg>