<?xml version="1.0" encoding="utf-8"?>
<svg xmlns="http://www.w3.org/2000/svg" viewBox="0 0 50 50" width="515" height="515">
  <path d="M28 5L28 7L41.5625 7L28.15625 20.40625C25.699219 18.28125 22.496094 17 19 17C11.28125 17 5 23.28125 5 31C5 38.71875 11.28125 45 19 45C26.71875 45 33 38.71875 33 31C33 27.503906 31.71875 24.300781 29.59375 21.84375L43 8.4375L43 22L45 22L45 5 Z M 19 19C22.222656 19 25.160156 20.25 27.3125 22.3125C27.316406 22.316406 27.308594 22.339844 27.3125 22.34375C27.398438 22.484375 27.515625 22.601563 27.65625 22.6875C29.726563 24.84375 31 27.769531 31 31C31 37.640625 25.640625 43 19 43C12.359375 43 7 37.640625 7 31C7 24.359375 12.359375 19 19 19Z" />
</svg>