<?xml version="1.0" encoding="utf-8"?>
<svg xmlns="http://www.w3.org/2000/svg" viewBox="0 0 50 50" width="515" height="515">
  <path d="M28 2C23.446528 2 19.622273 5.0267865 18.408203 9.1816406L13.230469 11.949219L3.6171875 6.1445312 A 1.0001 1.0001 0 0 0 2.0996094 7L2.0996094 43 A 1.0001 1.0001 0 0 0 2.6425781 43.888672L13.542969 49.490234 A 1.0001 1.0001 0 0 0 14.470703 49.482422L24.537109 44.113281L37.388672 49.912109 A 1.0001 1.0001 0 0 0 38.345703 49.837891L47.546875 43.837891 A 1.0001 1.0001 0 0 0 48 43L48 7 A 1.0001 1.0001 0 0 0 46.970703 6 A 1.0001 1.0001 0 0 0 46.453125 6.1621094L37.984375 11.685547C37.817349 6.299882 33.427075 2 28 2 z M 28 4C32.466667 4 36 7.5333333 36 12C36 15.734146 33.852556 20.403086 31.644531 24.058594C29.817731 27.082963 28.569596 28.555831 27.994141 29.271484C27.416334 28.564927 26.176046 27.127909 24.353516 24.130859C22.147155 20.502621 20 15.842857 20 12C20 7.5333333 23.533333 4 28 4 z M 28 8C25.254545 8 23 10.254545 23 13C23 15.745455 25.254545 18 28 18C30.745455 18 33 15.745455 33 13C33 10.254545 30.745455 8 28 8 z M 4.0996094 8.7714844L12.683594 13.955078 A 1.0001 1.0001 0 0 0 13.671875 13.982422L18.017578 11.660156C18.01376 11.774057 18 11.88515 18 12C18 16.557143 20.352845 21.39816 22.646484 25.169922C24.940123 28.941684 27.238281 31.646484 27.238281 31.646484 A 1.0001 1.0001 0 0 0 28.767578 31.640625C28.767578 31.640625 31.063494 28.886289 33.355469 25.091797C35.308817 21.857954 37.292288 17.872025 37.839844 14 A 1.0001 1.0001 0 0 0 38.345703 13.837891L46 8.8457031L46 42.458984L37.712891 47.863281L24.912109 42.087891 A 1.0001 1.0001 0 0 0 24.029297 42.117188L13.992188 47.470703L4.0996094 42.388672L4.0996094 8.7714844 z M 28 10C29.654545 10 31 11.345455 31 13C31 14.654545 29.654545 16 28 16C26.345455 16 25 14.654545 25 13C25 11.345455 26.345455 10 28 10 z" />
</svg>