<?xml version="1.0" encoding="utf-8"?>
<svg xmlns="http://www.w3.org/2000/svg" viewBox="0 0 50 50" width="515" height="515">
  <path d="M25 3C19.709908 3 15.400391 7.3095219 15.400391 12.599609C15.400391 16.841548 18.174433 20.448313 22 21.712891L22 43.552734L25 49.103516L28 43.552734L28 21.712891C31.825567 20.448313 34.599609 16.841548 34.599609 12.599609C34.599609 7.3095219 30.290092 3 25 3 z M 25 5C29.209212 5 32.599609 8.3904002 32.599609 12.599609C32.599609 16.808819 29.209212 20.199219 25 20.199219C20.790788 20.199219 17.400391 16.808819 17.400391 12.599609C17.400391 8.3904002 20.790788 5 25 5 z M 25 6.8007812C21.75679 6.8007814 19.199219 9.4611482 19.199219 12.599609 A 1.0001 1.0001 0 1 0 21.199219 12.599609C21.199219 10.538071 22.84321 8.8007814 25 8.8007812 A 1.0001 1.0001 0 1 0 25 6.8007812 z M 24 22.146484C24.328622 22.180695 24.662533 22.199219 25 22.199219C25.337467 22.199219 25.671378 22.180695 26 22.146484L26 43.046875L25 44.898438L24 43.046875L24 22.146484 z" />
</svg>