<?xml version="1.0" encoding="utf-8"?>
<svg xmlns="http://www.w3.org/2000/svg" viewBox="0 0 50 50" width="515" height="515">
  <path d="M3 2 A 1.0001 1.0001 0 0 0 2 3L2 41 A 1.0001 1.0001 0 0 0 2.5214844 41.876953L13.521484 47.876953 A 1.0001 1.0001 0 0 0 14.478516 47.876953L25.017578 42.128906L36.449219 47.892578 A 1.0001 1.0001 0 0 0 37.410156 47.859375L47.509766 41.859375 A 1.0001 1.0001 0 0 0 48 41L48 3 A 1.0001 1.0001 0 0 0 46.490234 2.140625L36.861328 7.859375L25.451172 2.1074219 A 1.0001 1.0001 0 0 0 24.521484 2.1230469L14 7.8613281L3.4785156 2.1230469 A 1.0001 1.0001 0 0 0 3 2 z M 24.099609 4.6289062L24.099609 40.353516L15 45.316406L15 9.5917969L24.099609 4.6289062 z M 26.099609 4.6738281L36 9.6660156L36 45.425781L26.099609 40.433594L26.099609 4.6738281 z M 4 4.6835938L13 9.5917969L13 45.316406L4 40.40625L4 4.6835938 z M 46 4.7558594L46 40.431641L38 45.183594L38 9.5097656L46 4.7558594 z" />
</svg>