<?xml version="1.0" encoding="utf-8"?>
<svg xmlns="http://www.w3.org/2000/svg" viewBox="0 0 50 50" width="515" height="515">
  <path d="M24.90625 0.96875C24.863281 0.976563 24.820313 0.988281 24.78125 1L3 1C1.90625 1 1 1.90625 1 3L1 24.6875C0.941406 24.882813 0.941406 25.085938 1 25.28125L1 47C1 48.09375 1.90625 49 3 49L47 49C48.09375 49 49 48.09375 49 47L49 25.1875C49.027344 25.054688 49.027344 24.914063 49 24.78125L49 3C49 1.90625 48.09375 1 47 1L25.1875 1C25.097656 0.976563 25 0.964844 24.90625 0.96875 Z M 3 3L24 3L24 24L3 24 Z M 26 3L47 3L47 24L26 24 Z M 13.90625 6.96875C13.863281 6.976563 13.820313 6.988281 13.78125 7C13.316406 7.105469 12.988281 7.523438 13 8L13 12L9 12C8.96875 12 8.9375 12 8.90625 12C8.355469 12.027344 7.925781 12.496094 7.953125 13.046875C7.980469 13.597656 8.449219 14.027344 9 14L13 14L13 18C12.996094 18.359375 13.183594 18.695313 13.496094 18.878906C13.808594 19.058594 14.191406 19.058594 14.503906 18.878906C14.816406 18.695313 15.003906 18.359375 15 18L15 14L19 14C19.359375 14.003906 19.695313 13.816406 19.878906 13.503906C20.058594 13.191406 20.058594 12.808594 19.878906 12.496094C19.695313 12.183594 19.359375 11.996094 19 12L15 12L15 8C15.011719 7.710938 14.894531 7.433594 14.6875 7.238281C14.476563 7.039063 14.191406 6.941406 13.90625 6.96875 Z M 31.71875 12C31.167969 12.078125 30.78125 12.589844 30.859375 13.140625C30.9375 13.691406 31.449219 14.078125 32 14L42 14C42.359375 14.003906 42.695313 13.816406 42.878906 13.503906C43.058594 13.191406 43.058594 12.808594 42.878906 12.496094C42.695313 12.183594 42.359375 11.996094 42 12L32 12C31.96875 12 31.9375 12 31.90625 12C31.875 12 31.84375 12 31.8125 12C31.78125 12 31.75 12 31.71875 12 Z M 3 26L24 26L24 47L3 47 Z M 26 26L47 26L47 47L26 47 Z M 10.34375 32.4375C10.3125 32.445313 10.28125 32.457031 10.25 32.46875C9.890625 32.542969 9.601563 32.8125 9.496094 33.164063C9.390625 33.515625 9.488281 33.898438 9.75 34.15625L12.59375 37L9.75 39.84375C9.453125 40.085938 9.316406 40.472656 9.402344 40.847656C9.488281 41.21875 9.78125 41.511719 10.152344 41.597656C10.527344 41.683594 10.914063 41.546875 11.15625 41.25L14 38.40625L16.84375 41.25C17.085938 41.546875 17.472656 41.683594 17.847656 41.597656C18.21875 41.511719 18.511719 41.21875 18.597656 40.847656C18.683594 40.472656 18.546875 40.085938 18.25 39.84375L15.40625 37L18.25 34.15625C18.5625 33.859375 18.652344 33.394531 18.46875 33.003906C18.28125 32.609375 17.867188 32.382813 17.4375 32.4375C17.394531 32.445313 17.351563 32.457031 17.3125 32.46875C17.132813 32.515625 16.972656 32.613281 16.84375 32.75L14 35.59375L11.15625 32.75C10.96875 32.550781 10.710938 32.441406 10.4375 32.4375C10.40625 32.4375 10.375 32.4375 10.34375 32.4375 Z M 31.71875 33C31.167969 33.078125 30.78125 33.589844 30.859375 34.140625C30.9375 34.691406 31.449219 35.078125 32 35L42 35C42.359375 35.003906 42.695313 34.816406 42.878906 34.503906C43.058594 34.191406 43.058594 33.808594 42.878906 33.496094C42.695313 33.183594 42.359375 32.996094 42 33L32 33C31.96875 33 31.9375 33 31.90625 33C31.875 33 31.84375 33 31.8125 33C31.78125 33 31.75 33 31.71875 33 Z M 31.71875 39C31.167969 39.078125 30.78125 39.589844 30.859375 40.140625C30.9375 40.691406 31.449219 41.078125 32 41L42 41C42.359375 41.003906 42.695313 40.816406 42.878906 40.503906C43.058594 40.191406 43.058594 39.808594 42.878906 39.496094C42.695313 39.183594 42.359375 38.996094 42 39L32 39C31.96875 39 31.9375 39 31.90625 39C31.875 39 31.84375 39 31.8125 39C31.78125 39 31.75 39 31.71875 39Z" />
</svg>