<?xml version="1.0" encoding="utf-8"?>
<svg xmlns="http://www.w3.org/2000/svg" viewBox="0 0 50 50" width="515" height="515">
  <path d="M38.652344 41.585938L50.0625 41.585938L49.996094 40.527344C49.6875 35.320313 45.554688 33.6875 42.234375 32.378906C40.390625 31.648438 38.644531 30.960938 38.136719 29.851563C38.058594 28.914063 38.066406 28.183594 38.074219 27.34375L38.074219 27.003906C38.871094 26.171875 39.589844 24.535156 39.875 23.164063C40.488281 22.816406 41.222656 22.015625 41.445313 20.171875C41.554688 19.246094 41.296875 18.523438 40.929688 18.03125C41.433594 16.289063 42.398438 11.988281 40.664063 9.199219C39.925781 8.011719 38.816406 7.257813 37.355469 6.957031C36.519531 5.941406 34.96875 5.390625 32.898438 5.390625C30.527344 5.4375 28.628906 6.015625 27.234375 7.089844C26.605469 6.6875 25.890625 6.398438 25.070313 6.234375C24.128906 5.042969 22.316406 4.390625 19.886719 4.390625C16.207031 4.460938 13.511719 5.585938 11.882813 7.734375C9.945313 10.28125 9.589844 14.144531 10.8125 19.21875C10.359375 19.769531 10.027344 20.621094 10.160156 21.730469C10.425781 23.9375 11.28125 24.835938 12.003906 25.195313C12.347656 26.925781 13.292969 28.878906 14.214844 29.792969L14.214844 30.261719C14.222656 31.277344 14.230469 32.15625 14.136719 33.296875C13.523438 34.699219 11.484375 35.503906 9.136719 36.425781C5.226563 37.964844 0.363281 39.875 0 45.941406L-0.0625 47L40.0625 47L40 45.941406C39.890625 44.160156 39.390625 42.746094 38.652344 41.585938 Z M 35.910156 8.367188L36.152344 8.796875L36.640625 8.863281C37.714844 9.011719 38.476563 9.46875 38.96875 10.257813C39.304688 10.800781 39.492188 11.480469 39.582031 12.210938C39.417969 12.085938 39.222656 12 39 12C38.445313 12 38 12.449219 38 13C38 13.550781 38.445313 14 39 14C39.242188 14 39.460938 13.902344 39.632813 13.757813C39.566406 15.335938 39.199219 16.945313 38.847656 17.996094L38.839844 18.03125C38.367188 18.109375 38 18.503906 38 19C38 19.550781 38.445313 20 39 20C39.167969 20 39.320313 19.949219 39.457031 19.875C39.457031 19.894531 39.460938 19.910156 39.457031 19.929688C39.320313 21.074219 38.96875 21.402344 38.894531 21.429688L38.074219 21.496094L37.988281 22.316406C37.824219 23.816406 36.90625 25.425781 36.613281 25.652344L36.078125 25.933594L36.074219 27.011719C36.046875 27.011719 36.027344 27 36 27C35.445313 27 35 27.449219 35 28C35 28.550781 35.445313 29 36 29C36.03125 29 36.054688 28.984375 36.085938 28.984375C36.097656 29.355469 36.117188 29.742188 36.15625 30.175781L36.214844 30.4375C36.914063 32.308594 38.867188 33.191406 41.007813 34.042969C41.03125 34.574219 41.460938 35 42 35C42.269531 35 42.511719 34.890625 42.6875 34.71875C43.617188 35.105469 44.519531 35.53125 45.308594 36.0625C45.210938 36.03125 45.109375 36 45 36C44.445313 36 44 36.449219 44 37C44 37.550781 44.445313 38 45 38C45.554688 38 46 37.550781 46 37C46 36.785156 45.917969 36.597656 45.800781 36.433594C46.648438 37.105469 47.3125 37.949219 47.679688 39.0625C47.421875 39.152344 47.207031 39.339844 47.09375 39.585938L42.90625 39.585938C42.746094 39.242188 42.402344 39 42 39C41.597656 39 41.253906 39.242188 41.09375 39.585938L36.953125 39.585938C36.9375 39.585938 36.925781 39.59375 36.910156 39.59375C36.78125 39.300781 36.507813 39.097656 36.179688 39.035156C35.417969 38.492188 34.597656 38.035156 33.757813 37.636719C33.902344 37.460938 34 37.246094 34 37C34 36.449219 33.554688 36 33 36C32.492188 36 32.089844 36.386719 32.023438 36.878906C31.644531 36.722656 31.265625 36.570313 30.898438 36.425781C28.558594 35.5 26.527344 34.699219 25.917969 33.292969C25.820313 32.15625 25.828125 31.273438 25.839844 30.261719L25.839844 29.785156C26.738281 28.867188 27.660156 26.917969 27.996094 25.183594C28.558594 24.894531 29.21875 24.257813 29.601563 22.914063C29.722656 22.96875 29.859375 23 30 23C30.554688 23 31 22.550781 31 22C31 21.449219 30.554688 21 30 21C29.949219 21 29.90625 21.023438 29.855469 21.027344C29.8125 20.277344 29.554688 19.675781 29.214844 19.25C29.378906 18.695313 29.589844 17.890625 29.761719 16.953125C29.839844 16.972656 29.914063 17 30 17C30.554688 17 31 16.550781 31 16C31 15.457031 30.566406 15.023438 30.03125 15.007813C30.144531 13.691406 30.121094 12.277344 29.808594 10.960938C29.871094 10.972656 29.929688 11 30 11C30.554688 11 31 10.550781 31 10C31 9.449219 30.554688 9 30 9C29.691406 9 29.425781 9.148438 29.242188 9.371094C29.148438 9.183594 29.054688 9.003906 28.945313 8.828125C28.871094 8.710938 28.777344 8.621094 28.699219 8.511719C29.570313 7.925781 30.71875 7.570313 32.121094 7.453125C32.285156 7.773438 32.613281 8 33 8C33.386719 8 33.714844 7.773438 33.878906 7.449219C34.898438 7.574219 35.644531 7.902344 35.910156 8.367188 Z M 2.128906 45C2.882813 41.03125 6.429688 39.640625 9.867188 38.285156C12.609375 37.210938 15.195313 36.191406 16.058594 33.878906L16.117188 33.617188C16.234375 32.3125 16.226563 31.308594 16.214844 30.242188L16.210938 29.316406L16.230469 28.722656L15.695313 28.441406C15.257813 28.144531 14.085938 26.128906 13.894531 24.324219L13.804688 23.5L12.980469 23.433594C12.851563 23.421875 12.335938 23.0625 12.148438 21.492188C12.050781 20.6875 12.445313 20.402344 12.445313 20.402344L13.082031 20.015625L12.894531 19.296875C11.679688 14.625 11.882813 11.046875 13.476563 8.945313C14.71875 7.304688 16.890625 6.445313 19.90625 6.390625C21.785156 6.390625 23.171875 6.859375 23.617188 7.644531L23.863281 8.074219L24.351563 8.140625C25.6875 8.328125 26.636719 8.894531 27.246094 9.882813C28.785156 12.355469 27.894531 16.921875 27.128906 19.230469L26.917969 19.976563L27.554688 20.402344C27.558594 20.402344 27.953125 20.6875 27.855469 21.492188C27.664063 23.0625 27.148438 23.425781 27.019531 23.433594L26.195313 23.503906L26.109375 24.324219C25.914063 26.136719 24.78125 28.152344 24.378906 28.433594L23.84375 28.714844L23.839844 30.242188C23.832031 31.304688 23.820313 32.3125 23.941406 33.617188L24 33.878906C24.859375 36.191406 27.4375 37.207031 30.164063 38.285156C33.589844 39.636719 37.121094 41.03125 37.875 45 Z M 35 16C35 15.449219 35.445313 15 36 15C36.554688 15 37 15.449219 37 16C37 16.550781 36.554688 17 36 17C35.445313 17 35 16.550781 35 16 Z M 38 37C38 36.449219 38.445313 36 39 36C39.554688 36 40 36.449219 40 37C40 37.550781 39.554688 38 39 38C38.445313 38 38 37.550781 38 37 Z M 35 10C35 9.449219 35.445313 9 36 9C36.554688 9 37 9.449219 37 10C37 10.550781 36.554688 11 36 11C35.445313 11 35 10.550781 35 10 Z M 31 28C31 28.550781 30.554688 29 30 29C29.445313 29 29 28.550781 29 28C29 27.449219 29.445313 27 30 27C30.554688 27 31 27.449219 31 28 Z M 28 31C28 31.550781 27.554688 32 27 32C26.445313 32 26 31.550781 26 31C26 30.449219 26.445313 30 27 30C27.554688 30 28 30.449219 28 31 Z M 31 34C31 34.550781 30.554688 35 30 35C29.445313 35 29 34.550781 29 34C29 33.449219 29.445313 33 30 33C30.554688 33 31 33.449219 31 34 Z M 35 34C35 33.449219 35.445313 33 36 33C36.554688 33 37 33.449219 37 34C37 34.550781 36.554688 35 36 35C35.445313 35 35 34.550781 35 34 Z M 34 13C34 13.550781 33.554688 14 33 14C32.445313 14 32 13.550781 32 13C32 12.449219 32.445313 12 33 12C33.554688 12 34 12.449219 34 13 Z M 34 19C34 19.550781 33.554688 20 33 20C32.445313 20 32 19.550781 32 19C32 18.449219 32.445313 18 33 18C33.554688 18 34 18.449219 34 19 Z M 34 25C34 25.550781 33.554688 26 33 26C32.445313 26 32 25.550781 32 25C32 24.449219 32.445313 24 33 24C33.554688 24 34 24.449219 34 25 Z M 35 22C35 21.449219 35.445313 21 36 21C36.554688 21 37 21.449219 37 22C37 22.550781 36.554688 23 36 23C35.445313 23 35 22.550781 35 22 Z M 34 31C34 31.550781 33.554688 32 33 32C32.445313 32 32 31.550781 32 31C32 30.449219 32.445313 30 33 30C33.554688 30 34 30.449219 34 31Z" />
</svg>