<?xml version="1.0" encoding="utf-8"?>
<svg xmlns="http://www.w3.org/2000/svg" viewBox="0 0 50 50" width="515" height="515">
  <path d="M9 4C6.2504839 4 4 6.2504839 4 9L4 41C4 43.749516 6.2504839 46 9 46L41 46C43.749516 46 46 43.749516 46 41L46 9C46 6.2504839 43.749516 4 41 4L9 4 z M 9 6L41 6C42.668484 6 44 7.3315161 44 9L44 41C44 42.668484 42.668484 44 41 44L9 44C7.3315161 44 6 42.668484 6 41L6 9C6 7.3315161 7.3315161 6 9 6 z M 14 32C12.906937 32 12 32.906937 12 34L12 36C12 37.093063 12.906937 38 14 38L36 38C37.093063 38 38 37.093063 38 36L38 34C38 32.906937 37.093063 32 36 32L14 32 z M 14 34L36 34L36 36L14 36L14 34 z" />
</svg>