<?xml version="1.0" encoding="utf-8"?>
<svg xmlns="http://www.w3.org/2000/svg" viewBox="0 0 50 50" width="515" height="515">
  <path d="M6 0C4.355469 0 3 1.355469 3 3L3 36C3 37.644531 4.355469 39 6 39L20 39L20 37L6 37C5.433594 37 5 36.566406 5 36L5 3C5 2.433594 5.433594 2 6 2L26 2C26.566406 2 27 2.433594 27 3L27 10L29 10L29 3C29 1.355469 27.644531 0 26 0 Z M 7.8125 4C7.335938 4.089844 6.992188 4.511719 7 5L7 31C7 31.550781 7.449219 32 8 32L20 32L20 30L9 30L9 6L23 6L23 10L25 10L25 5C25 4.449219 24.550781 4 24 4L8 4C7.96875 4 7.9375 4 7.90625 4C7.875 4 7.84375 4 7.8125 4 Z M 24 11C22.355469 11 21 12.355469 21 14L21 47C21 48.644531 22.355469 50 24 50L44 50C45.644531 50 47 48.644531 47 47L47 14C47 12.355469 45.644531 11 44 11 Z M 24 13L44 13C44.566406 13 45 13.433594 45 14L45 47C45 47.566406 44.566406 48 44 48L24 48C23.433594 48 23 47.566406 23 47L23 14C23 13.433594 23.433594 13 24 13 Z M 25.8125 15C25.335938 15.089844 24.992188 15.511719 25 16L25 42C25 42.550781 25.449219 43 26 43L42 43C42.550781 43 43 42.550781 43 42L43 16C43 15.449219 42.550781 15 42 15L26 15C25.96875 15 25.9375 15 25.90625 15C25.875 15 25.84375 15 25.8125 15 Z M 27 17L41 17L41 41L27 41 Z M 16 33C15.171875 33 14.5 33.671875 14.5 34.5C14.5 35.328125 15.171875 36 16 36C16.828125 36 17.5 35.328125 17.5 34.5C17.5 33.671875 16.828125 33 16 33 Z M 34 44C33.171875 44 32.5 44.671875 32.5 45.5C32.5 46.328125 33.171875 47 34 47C34.828125 47 35.5 46.328125 35.5 45.5C35.5 44.671875 34.828125 44 34 44Z" />
</svg>