<?xml version="1.0" encoding="utf-8"?>
<svg xmlns="http://www.w3.org/2000/svg" viewBox="0 0 50 50" width="515" height="515">
  <path d="M5 4C3.3545455 4 2 5.3545455 2 7L2 28.832031 A 1.0001 1.0001 0 0 0 2 29.158203L2 35C2 36.645455 3.3545455 38 5 38L19 38L19 41L17 41C14.790196 41 13 42.790196 13 45L13 46 A 1.0001 1.0001 0 0 0 14 47L36 47 A 1.0001 1.0001 0 0 0 37 46L37 45C37 42.790196 35.209804 41 33 41L31 41L31 38L45 38C46.645455 38 48 36.645455 48 35L48 29.167969 A 1.0001 1.0001 0 0 0 48 28.841797L48 7C48 5.3545455 46.645455 4 45 4L5 4 z M 5 6L45 6C45.554545 6 46 6.4454545 46 7L46 28L4 28L4 7C4 6.4454545 4.4454545 6 5 6 z M 4 30L46 30L46 35C46 35.554545 45.554545 36 45 36L30 36L20 36L5 36C4.4454545 36 4 35.554545 4 35L4 30 z M 41 32L41 34L43 34L43 32L41 32 z M 21 38L29 38L29 41L21 41L21 38 z M 17 43L20 43L30 43L33 43C34.190196 43 35 43.809804 35 45L15 45C15 43.809804 15.809804 43 17 43 z" />
</svg>