<?xml version="1.0" encoding="utf-8"?>
<svg xmlns="http://www.w3.org/2000/svg" viewBox="0 0 50 50" width="515" height="515">
  <path d="M26.046875 6.921875L18.558594 19.859375C18.539063 19.886719 18.523438 19.914063 18.507813 19.945313L14.785156 26.371094L11.75 23.335938L1.867188 42L4.132813 42L12.25 26.664063L15.214844 29.625L19.65625 21.949219L22.421875 24.316406L25.921875 21.316406L29.421875 24.316406L31.769531 22.300781L39.890625 37.964844L41.921875 34.921875L45.855469 42L48.144531 42L42.078125 31.078125L40.109375 34.035156L33.089844 20.5C33.089844 20.496094 33.089844 20.496094 33.089844 20.496094C33.050781 20.316406 32.964844 20.152344 32.84375 20.019531 Z M 25.953125 11.078125L30.828125 20.480469L29.421875 21.683594L25.921875 18.683594L22.421875 21.683594L20.675781 20.1875Z" />
</svg>