<?xml version="1.0" encoding="utf-8"?>
<svg xmlns="http://www.w3.org/2000/svg" viewBox="0 0 50 50" width="515" height="515">
  <path d="M25.5 0C22.472656 0 20 2.472656 20 5.5C20 6.445313 20.230469 7.347656 20.65625 8.125C20.316406 8.054688 19.980469 8 19.625 8C19.066406 8 18.574219 8.160156 18.09375 8.40625C16.75 8.011719 15.363281 7.800781 14 7.8125C9.90625 7.847656 5.976563 9.707031 3.6875 13.3125C2.398438 15.34375 3.097656 17.769531 4.5 19.25C5.199219 19.988281 6.082031 20.535156 7.09375 20.71875C7.175781 20.734375 7.261719 20.742188 7.34375 20.75C7.039063 21.542969 6.859375 22.46875 7 23.5C7.203125 24.980469 8.140625 26.089844 9.21875 26.84375C10.296875 27.597656 11.550781 28.066406 12.6875 28.4375C14.78125 29.121094 18.632813 30.402344 19.125 30.5625C19.429688 31.199219 22.691406 38.027344 23.3125 39.21875L23.4375 39.40625C23.722656 39.949219 24.078125 40.585938 24.6875 41.125C25.359375 41.722656 26.492188 42.058594 27.59375 41.625C28.683594 41.195313 29.328125 40.207031 29.4375 39.28125C29.546875 38.355469 29.296875 37.46875 29.03125 36.71875C28.488281 35.1875 26.300781 29.363281 25.65625 27.8125C25.277344 26.894531 24.984375 26.265625 24.4375 25.71875C23.890625 25.171875 23.242188 24.816406 22.21875 24.28125C20.601563 23.433594 18.957031 22.800781 17.90625 22.375C19.140625 21.007813 22.28125 17.519531 22.5 17.28125C22.863281 16.886719 23.078125 16.8125 23.4375 16.90625C24.144531 17.09375 33.621094 19.917969 34.625 20.25C35.597656 20.574219 36.554688 20.710938 37.4375 20.625C38.320313 20.539063 39.261719 20.183594 39.71875 19.3125C40.070313 18.636719 40.222656 17.78125 39.875 16.96875C39.527344 16.15625 38.796875 15.527344 37.75 15.0625C36.8125 14.644531 34.027344 13.546875 31.21875 12.4375C29.667969 11.824219 28.203125 11.257813 27 10.78125C29.296875 10.121094 31 8.003906 31 5.5C31 2.472656 28.527344 0 25.5 0 Z M 25.5 2C27.445313 2 29 3.554688 29 5.5C29 7.445313 27.445313 9 25.5 9C23.554688 9 22 7.445313 22 5.5C22 3.554688 23.554688 2 25.5 2 Z M 14.03125 9.8125C14.703125 9.808594 15.382813 9.886719 16.0625 10C15.410156 10.660156 14.75 11.429688 14.03125 12.25C11.84375 14.738281 10.394531 16.492188 9.0625 18.0625C9.007813 18.128906 8.878906 18.292969 8.78125 18.40625C8.332031 18.75 7.902344 18.832031 7.4375 18.75C6.9375 18.660156 6.390625 18.351563 5.9375 17.875C5.035156 16.921875 4.652344 15.511719 5.375 14.375C7.273438 11.386719 10.554688 9.828125 14.03125 9.8125 Z M 19.625 10C20.605469 10 22.144531 10.859375 24.03125 11.71875C24.925781 12.125 27.65625 13.203125 30.46875 14.3125C33.28125 15.421875 36.167969 16.5625 36.9375 16.90625C37.714844 17.25 37.957031 17.582031 38.03125 17.75C38.105469 17.917969 38.113281 18.074219 37.9375 18.40625C37.921875 18.441406 37.757813 18.578125 37.25 18.625C36.742188 18.671875 36.003906 18.59375 35.25 18.34375C33.921875 17.902344 25.046875 15.261719 23.9375 14.96875C22.824219 14.675781 21.722656 15.183594 21.03125 15.9375C20.667969 16.335938 15.5 22.0625 15.5 22.0625L14.53125 23.125L15.875 23.65625C15.875 23.65625 19.410156 25.066406 21.3125 26.0625C22.324219 26.589844 22.785156 26.878906 23.03125 27.125C23.277344 27.371094 23.449219 27.714844 23.8125 28.59375C24.386719 29.984375 26.644531 35.96875 27.15625 37.40625C27.371094 38.011719 27.484375 38.632813 27.4375 39.03125C27.390625 39.429688 27.367188 39.585938 26.875 39.78125C26.394531 39.96875 26.296875 39.890625 26 39.625C25.703125 39.359375 25.371094 38.8125 25.09375 38.28125L25.0625 38.1875C24.503906 37.101563 20.75 29.3125 20.75 29.3125L20.5625 28.90625L20.15625 28.78125C20.15625 28.78125 15.546875 27.261719 13.3125 26.53125C12.253906 26.1875 11.167969 25.742188 10.375 25.1875C9.582031 24.632813 9.113281 24.039063 9 23.21875C8.808594 21.808594 9.546875 20.636719 10.15625 19.875C10.179688 19.855469 10.199219 19.835938 10.21875 19.8125C10.277344 19.765625 10.328125 19.714844 10.375 19.65625C10.410156 19.617188 10.441406 19.574219 10.46875 19.53125C10.46875 19.519531 10.46875 19.511719 10.46875 19.5C10.503906 19.460938 10.5625 19.410156 10.59375 19.375C11.945313 17.78125 13.367188 16.027344 15.53125 13.5625C16.492188 12.46875 17.34375 11.511719 18.0625 10.875C18.78125 10.238281 19.328125 10 19.625 10 Z M 40 22C34.488281 22 30 26.488281 30 32C30 37.511719 34.488281 42 40 42C45.511719 42 50 37.511719 50 32C50 26.488281 45.511719 22 40 22 Z M 40 24C44.429688 24 48 27.570313 48 32C48 36.429688 44.429688 40 40 40C35.570313 40 32 36.429688 32 32C32 27.570313 35.570313 24 40 24 Z M 10 30C4.488281 30 0 34.488281 0 40C0 45.511719 4.488281 50 10 50C15.511719 50 20 45.511719 20 40C20 34.488281 15.511719 30 10 30 Z M 10 32C14.429688 32 18 35.570313 18 40C18 44.429688 14.429688 48 10 48C5.570313 48 2 44.429688 2 40C2 35.570313 5.570313 32 10 32Z" />
</svg>