<?xml version="1.0" encoding="utf-8"?>
<svg xmlns="http://www.w3.org/2000/svg" width="515" height="515" viewBox="0 0 50 50">
  <path d="M24.173828 3.0117188C23.868952 3.0128862 23.561744 3.0627041 23.259766 3.1582031C22.655809 3.3491981 22.072412 3.7186896 21.568359 4.2304688L9.8027344 15.960938L3 15.960938C1.3325274 15.960936 -0.0390625 17.333644 -0.0390625 19L-0.0390625 31C-0.0390625 32.666356 1.3325274 34.039062 3 34.039062L9.8164062 34.039062L21.509766 45.695312C22.630216 46.832965 24.061799 47.308081 25.238281 46.753906C26.414763 46.199732 26.990234 44.86081 26.990234 43.314453L26.990234 6.3261719C26.990234 4.8270486 26.246096 3.5686323 25.074219 3.1601562C24.781249 3.0580373 24.478705 3.0105513 24.173828 3.0117188 z M 24.164062 4.9902344C24.263997 4.988793 24.351032 5.0046034 24.421875 5.0292969C24.705248 5.1280709 25.009766 5.3962952 25.009766 6.3261719L25.009766 43.314453C25.009766 44.382096 24.638299 44.846111 24.394531 44.960938C24.150763 45.075763 23.688471 45.086989 22.919922 44.306641 A 0.99009901 0.99009901 0 0 0 22.914062 44.300781L10.302734 31.728516 A 0.99009901 0.99009901 0 0 0 10.251953 31.681641C10.327833 31.747271 9.9902344 31.125663 9.9902344 30.753906L9.9902344 19.246094C9.9902344 18.874337 10.338496 18.231786 10.251953 18.306641 A 0.99009901 0.99009901 0 0 0 10.302734 18.259766L22.972656 5.6269531 A 0.99009901 0.99009901 0 0 0 22.978516 5.6210938C23.445686 5.1467623 23.864259 4.9945586 24.164062 4.9902344 z M 3 18.039062L8.1679688 18.039062C8.052721 18.423911 8.0097656 18.828879 8.0097656 19.246094L8.0097656 30.753906C8.0097656 31.171704 8.054845 31.577105 8.171875 31.960938L3 31.960938C2.4614726 31.960938 2.0390625 31.537644 2.0390625 31L2.0390625 19C2.0390625 18.462356 2.4614726 18.039062 3 18.039062 z M 30.644531 18.414062 A 1.0001 1.0001 0 0 0 30.435547 20.384766C32.481497 20.918743 34 22.77597 34 25C34 27.22403 32.481805 29.082303 30.435547 29.617188 A 1.0001 1.0001 0 1 0 30.941406 31.550781C33.853148 30.789664 36 28.13597 36 25C36 21.86403 33.853456 19.209242 30.941406 18.449219 A 1.0001 1.0001 0 0 0 30.644531 18.414062 z" />
</svg>