<?xml version="1.0" encoding="utf-8"?>
<svg xmlns="http://www.w3.org/2000/svg" viewBox="0 0 50 50" width="515" height="515">
  <path d="M24.84375 0C24.507813 0.0585938 24.226563 0.28125 24.09375 0.59375L2.1875 48.59375C2.023438 48.941406 2.070313 49.351563 2.308594 49.648438C2.546875 49.949219 2.9375 50.085938 3.3125 50C3.367188 49.984375 3.417969 49.960938 3.46875 49.9375L25 41.65625L46.53125 49.9375C46.589844 49.964844 46.65625 49.984375 46.71875 50C46.851563 50.027344 46.992188 50.027344 47.125 50C47.226563 49.972656 47.320313 49.929688 47.40625 49.875C47.851563 49.617188 48.027344 49.0625 47.8125 48.59375L25.90625 0.59375C25.828125 0.414063 25.695313 0.261719 25.53125 0.15625C25.328125 0.0234375 25.085938 -0.03125 24.84375 0 Z M 24 5.59375L24 39.90625L5 47.1875 Z M 26 5.59375L27.3125 8.4375L28.9375 12C28.414063 12.035156 28 12.46875 28 13C28 13.550781 28.449219 14 29 14C29.277344 14 29.539063 13.898438 29.71875 13.71875L34.5 24.15625C34.207031 24.332031 34 24.636719 34 25C34 25.550781 34.449219 26 35 26C35.101563 26 35.1875 25.964844 35.28125 25.9375L38.625 33.21875C38.453125 33.082031 38.238281 33 38 33C37.449219 33 37 33.449219 37 34C37 34.550781 37.449219 35 38 35C38.542969 35 38.984375 34.570313 39 34.03125L40.125 36.53125C40.046875 36.671875 40 36.828125 40 37C40 37.472656 40.34375 37.832031 40.78125 37.9375L44 45C43.449219 45 43 45.449219 43 46C43 46.175781 43.074219 46.324219 43.15625 46.46875L35.75 43.625C35.894531 43.453125 36 43.242188 36 43C36 42.449219 35.550781 42 35 42C34.457031 42 34.015625 42.429688 34 42.96875L26.9375 40.25C26.960938 40.164063 27 40.09375 27 40C27 39.449219 26.550781 39 26 39L26 35C26.550781 35 27 34.550781 27 34C27 33.449219 26.550781 33 26 33L26 29C26.550781 29 27 28.550781 27 28C27 27.449219 26.550781 27 26 27L26 23C26.550781 23 27 22.550781 27 22C27 21.449219 26.550781 21 26 21L26 17C26.550781 17 27 16.550781 27 16C27 15.449219 26.550781 15 26 15L26 11C26.550781 11 27 10.550781 27 10C27 9.449219 26.550781 9 26 9 Z M 29 18C28.449219 18 28 18.449219 28 19C28 19.550781 28.449219 20 29 20C29.550781 20 30 19.550781 30 19C30 18.449219 29.550781 18 29 18 Z M 32 21C31.449219 21 31 21.449219 31 22C31 22.550781 31.449219 23 32 23C32.550781 23 33 22.550781 33 22C33 21.449219 32.550781 21 32 21 Z M 29 24C28.449219 24 28 24.449219 28 25C28 25.550781 28.449219 26 29 26C29.550781 26 30 25.550781 30 25C30 24.449219 29.550781 24 29 24 Z M 32 27C31.449219 27 31 27.449219 31 28C31 28.550781 31.449219 29 32 29C32.550781 29 33 28.550781 33 28C33 27.449219 32.550781 27 32 27 Z M 29 30C28.449219 30 28 30.449219 28 31C28 31.550781 28.449219 32 29 32C29.550781 32 30 31.550781 30 31C30 30.449219 29.550781 30 29 30 Z M 35 30C34.449219 30 34 30.449219 34 31C34 31.550781 34.449219 32 35 32C35.550781 32 36 31.550781 36 31C36 30.449219 35.550781 30 35 30 Z M 32 33C31.449219 33 31 33.449219 31 34C31 34.550781 31.449219 35 32 35C32.550781 35 33 34.550781 33 34C33 33.449219 32.550781 33 32 33 Z M 29 36C28.449219 36 28 36.449219 28 37C28 37.550781 28.449219 38 29 38C29.550781 38 30 37.550781 30 37C30 36.449219 29.550781 36 29 36 Z M 35 36C34.449219 36 34 36.449219 34 37C34 37.550781 34.449219 38 35 38C35.550781 38 36 37.550781 36 37C36 36.449219 35.550781 36 35 36 Z M 32 39C31.449219 39 31 39.449219 31 40C31 40.550781 31.449219 41 32 41C32.550781 41 33 40.550781 33 40C33 39.449219 32.550781 39 32 39 Z M 38 39C37.449219 39 37 39.449219 37 40C37 40.550781 37.449219 41 38 41C38.550781 41 39 40.550781 39 40C39 39.449219 38.550781 39 38 39 Z M 41 42C40.449219 42 40 42.449219 40 43C40 43.550781 40.449219 44 41 44C41.550781 44 42 43.550781 42 43C42 42.449219 41.550781 42 41 42 Z M 44.75 46.65625L45 47.1875L44.3125 46.9375C44.480469 46.878906 44.636719 46.785156 44.75 46.65625Z" />
</svg>