<?xml version="1.0" encoding="utf-8"?>
<svg xmlns="http://www.w3.org/2000/svg" viewBox="0 0 50 50" width="515" height="515">
  <path d="M19 3L19 7L12 7C9.2 7 7 9.2 7 12L7 20L2 20L2 30L14 30L14 20L9 20L9 12C9 10.3 10.3 9 12 9L19 9L19 13L31 13L31 3L19 3 z M 21 5L29 5L29 11L21 11L21 5 z M 33 7L33 9L38 9C39.7 9 41 10.3 41 12L41 20L36 20L36 30L48 30L48 20L43 20L43 12C43 9.2 40.8 7 38 7L33 7 z M 4 22L12 22L12 28L4 28L4 22 z M 38 22L46 22L46 28L38 28L38 22 z M 7 32L7 38C7 40.8 9.2 43 12 43L19 43L19 47L31 47L31 37L19 37L19 41L12 41C10.3 41 9 39.7 9 38L9 32L7 32 z M 41 32L41 38C41 39.7 39.7 41 38 41L33 41L33 43L38 43C40.8 43 43 40.8 43 38L43 32L41 32 z M 21 39L29 39L29 45L21 45L21 39 z" />
</svg>