<?xml version="1.0" encoding="utf-8"?>
<svg xmlns="http://www.w3.org/2000/svg" viewBox="0 0 50 50" width="515" height="515">
  <path d="M10 4C8.355469 4 7 5.355469 7 7L7 45C7 45.550781 7.449219 46 8 46L42 46C42.550781 46 43 45.550781 43 45L43 7C43 5.355469 41.644531 4 40 4 Z M 10 6L40 6C40.554688 6 41 6.445313 41 7L41 44L29 44L29 36C29 35.449219 28.550781 35 28 35L22 35C21.96875 35 21.9375 35 21.90625 35C21.390625 35.046875 20.996094 35.480469 21 36L21 44L9 44L9 7C9 6.445313 9.445313 6 10 6 Z M 11.8125 8C11.335938 8.089844 10.992188 8.511719 11 9L11 14C11 14.550781 11.449219 15 12 15L18 15C18.550781 15 19 14.550781 19 14L19 9C19 8.449219 18.550781 8 18 8L12 8C11.96875 8 11.9375 8 11.90625 8C11.875 8 11.84375 8 11.8125 8 Z M 21.8125 8C21.335938 8.089844 20.992188 8.511719 21 9L21 14C21 14.550781 21.449219 15 22 15L28 15C28.550781 15 29 14.550781 29 14L29 9C29 8.449219 28.550781 8 28 8L22 8C21.96875 8 21.9375 8 21.90625 8C21.875 8 21.84375 8 21.8125 8 Z M 31.8125 8C31.335938 8.089844 30.992188 8.511719 31 9L31 14C31 14.550781 31.449219 15 32 15L38 15C38.550781 15 39 14.550781 39 14L39 9C39 8.449219 38.550781 8 38 8L32 8C31.96875 8 31.9375 8 31.90625 8C31.875 8 31.84375 8 31.8125 8 Z M 13 10L17 10L17 13L13 13 Z M 23 10L27 10L27 13L23 13 Z M 33 10L37 10L37 13L33 13 Z M 11.8125 17C11.335938 17.089844 10.992188 17.511719 11 18L11 23C11 23.550781 11.449219 24 12 24L18 24C18.550781 24 19 23.550781 19 23L19 18C19 17.449219 18.550781 17 18 17L12 17C11.96875 17 11.9375 17 11.90625 17C11.875 17 11.84375 17 11.8125 17 Z M 21.8125 17C21.335938 17.089844 20.992188 17.511719 21 18L21 23C21 23.550781 21.449219 24 22 24L28 24C28.550781 24 29 23.550781 29 23L29 18C29 17.449219 28.550781 17 28 17L22 17C21.96875 17 21.9375 17 21.90625 17C21.875 17 21.84375 17 21.8125 17 Z M 31.8125 17C31.335938 17.089844 30.992188 17.511719 31 18L31 23C31 23.550781 31.449219 24 32 24L38 24C38.550781 24 39 23.550781 39 23L39 18C39 17.449219 38.550781 17 38 17L32 17C31.96875 17 31.9375 17 31.90625 17C31.875 17 31.84375 17 31.8125 17 Z M 13 19L17 19L17 22L13 22 Z M 23 19L27 19L27 22L23 22 Z M 33 19L37 19L37 22L33 22 Z M 11.8125 26C11.335938 26.089844 10.992188 26.511719 11 27L11 32C11 32.550781 11.449219 33 12 33L18 33C18.550781 33 19 32.550781 19 32L19 27C19 26.449219 18.550781 26 18 26L12 26C11.96875 26 11.9375 26 11.90625 26C11.875 26 11.84375 26 11.8125 26 Z M 21.8125 26C21.335938 26.089844 20.992188 26.511719 21 27L21 32C21 32.550781 21.449219 33 22 33L28 33C28.550781 33 29 32.550781 29 32L29 27C29 26.449219 28.550781 26 28 26L22 26C21.96875 26 21.9375 26 21.90625 26C21.875 26 21.84375 26 21.8125 26 Z M 31.8125 26C31.335938 26.089844 30.992188 26.511719 31 27L31 32C31 32.550781 31.449219 33 32 33L38 33C38.550781 33 39 32.550781 39 32L39 27C39 26.449219 38.550781 26 38 26L32 26C31.96875 26 31.9375 26 31.90625 26C31.875 26 31.84375 26 31.8125 26 Z M 13 28L17 28L17 31L13 31 Z M 23 28L27 28L27 31L23 31 Z M 33 28L37 28L37 31L33 31 Z M 11.8125 35C11.335938 35.089844 10.992188 35.511719 11 36L11 41C11 41.550781 11.449219 42 12 42L18 42C18.550781 42 19 41.550781 19 41L19 36C19 35.449219 18.550781 35 18 35L12 35C11.96875 35 11.9375 35 11.90625 35C11.875 35 11.84375 35 11.8125 35 Z M 31.8125 35C31.335938 35.089844 30.992188 35.511719 31 36L31 41C31 41.550781 31.449219 42 32 42L38 42C38.550781 42 39 41.550781 39 41L39 36C39 35.449219 38.550781 35 38 35L32 35C31.96875 35 31.9375 35 31.90625 35C31.875 35 31.84375 35 31.8125 35 Z M 13 37L17 37L17 40L13 40 Z M 23 37L27 37L27 44L23 44 Z M 33 37L37 37L37 40L33 40Z" />
</svg>