<?xml version="1.0" encoding="utf-8"?>
<svg xmlns="http://www.w3.org/2000/svg" viewBox="0 0 50 50" width="515" height="515">
  <path d="M41.013672 10.009766 A 0.99009901 0.99009901 0 0 0 40.529297 10.128906L11.529297 25.830078 A 0.99009901 0.99009901 0 0 0 11.697266 27.642578L19.640625 30.199219L18.914062 38.007812 A 0.99009901 0.99009901 0 0 0 20.640625 38.757812L25.546875 33.236328L33.103516 40.705078 A 0.99009901 0.99009901 0 0 0 34.761719 40.238281L41.960938 11.238281 A 0.99009901 0.99009901 0 0 0 41.013672 10.009766 z M 39.498047 12.939453L33.259766 38.072266L26.798828 31.691406L37.001953 17.580078 A 0.99009901 0.99009901 0 0 0 35.578125 16.228516L20.494141 28.394531L14.507812 26.466797L39.498047 12.939453 z M 31.0625 22.416016L24.726562 31.179688L21.166016 35.185547L21.646484 30.009766L31.0625 22.416016 z" />
</svg>