<?xml version="1.0" encoding="utf-8"?>
<svg xmlns="http://www.w3.org/2000/svg" viewBox="0 0 50 50" width="515" height="515">
  <path d="M42.900391 2.8984375C41.845047 2.8984375 40.788605 3.2973314 39.992188 4.09375L39.167969 4.9179688 A 1.0001 1.0001 0 0 0 38.685547 4.8007812 A 1.0001 1.0001 0 0 0 37.992188 5.09375L6.59375 36.492188 A 1.0001 1.0001 0 0 0 6.3632812 36.849609L3.0644531 45.648438 A 1.0001 1.0001 0 0 0 4.3515625 46.935547L13.150391 43.636719 A 1.0001 1.0001 0 0 0 13.507812 43.40625L44.90625 12.007812 A 1.0001 1.0001 0 0 0 45.003906 10.708984L45.806641 9.90625C47.399478 8.3134129 47.399478 5.6865871 45.806641 4.09375C45.010222 3.2973314 43.955735 2.8984375 42.900391 2.8984375 z M 42.898438 4.9023438C43.443229 4.9023438 43.988997 5.1042311 44.392578 5.5078125C45.199741 6.3149754 45.199741 7.6850246 44.392578 8.4921875L43.597656 9.2851562L40.613281 6.3007812L41.40625 5.5078125C41.809832 5.1042311 42.353646 4.9023438 42.898438 4.9023438 z M 38.699219 7.2148438L42.785156 11.300781L40.050781 14.035156L35.964844 9.9492188L38.699219 7.2148438 z M 34.550781 11.363281L38.636719 15.449219L12.75 41.335938L12 40.585938L12 39 A 1.0001 1.0001 0 0 0 11 38L9.4140625 38L8.6640625 37.25L34.550781 11.363281 z M 7.6640625 39.078125L8.2929688 39.707031 A 1.0001 1.0001 0 0 0 9 40L10 40L10 41 A 1.0001 1.0001 0 0 0 10.292969 41.707031L10.921875 42.335938L7.078125 43.777344L6.2226562 42.921875L7.6640625 39.078125 z" />
</svg>