<?xml version="1.0" encoding="utf-8"?>
<svg xmlns="http://www.w3.org/2000/svg" width="515" height="515" viewBox="0 0 50 50">
  <path d="M35.947266 0.009765625C35.747749 0.016994491 35.550795 0.048067315 35.365234 0.099609375C34.622991 0.30577763 33.962989 0.78717116 33.4375 1.4628906 A 1.0001 1.0001 0 0 0 33.410156 1.4980469L25.083984 13.207031C19.950102 12.011128 14.34327 13.332511 10.345703 17.330078 A 1.0001 1.0001 0 0 0 10.345703 18.746094L17.773438 26.173828L0.21484375 48.378906 A 1.0001 1.0001 0 0 0 1.6210938 49.783203L23.8125 32.210938L31.242188 39.640625 A 1.0001 1.0001 0 0 0 32.65625 39.640625C36.703999 35.594911 38.012613 29.896726 36.736328 24.710938L48.453125 16.724609 A 1.0001 1.0001 0 0 0 48.486328 16.701172C49.171258 16.191472 49.666277 15.540535 49.886719 14.802734C50.106923 14.065728 49.992592 13.150376 49.386719 12.539062L37.623047 0.63476562C37.321229 0.32781687 36.942902 0.14333694 36.546875 0.060546875C36.348861 0.01915185 36.146782 0.0025367587 35.947266 0.009765625 z M 36.119141 1.9921875C36.158875 1.9971894 36.175583 2.0150559 36.197266 2.0371094 A 1.0001 1.0001 0 0 0 36.199219 2.0390625L47.964844 13.945312 A 1.0001 1.0001 0 0 0 47.966797 13.947266C48.011207 13.991956 48.038513 14.003516 47.970703 14.230469C47.903063 14.456852 47.679223 14.806853 47.294922 15.09375C47.294922 15.09375 47.292969 15.095703 47.292969 15.095703L35.134766 23.380859 A 1.0001 1.0001 0 0 0 35.083984 23.417969L35.044922 23.449219 A 1.0001 1.0001 0 0 0 34.699219 24.525391C36.0096 28.910161 35.004457 33.767786 31.851562 37.421875L12.564453 18.134766C16.168721 15.02642 20.936766 14.00725 25.275391 15.238281 A 1.0001 1.0001 0 0 0 26.363281 14.857422L35.015625 2.6914062C35.312136 2.3101258 35.667884 2.0919255 35.900391 2.0273438C36.016644 1.9950528 36.079406 1.9871856 36.119141 1.9921875 z M 19.197266 27.597656L22.386719 30.787109L7.109375 42.886719L19.197266 27.597656 z" />
</svg>