<?xml version="1.0" encoding="utf-8"?>
<svg xmlns="http://www.w3.org/2000/svg" viewBox="0 0 50 50" width="515" height="515">
  <path d="M12.599609 3C12.316276 3 11.871522 2.964415 11.417969 3.4179688C11.191192 3.6447453 11.057871 3.989362 11.039062 4.2714844C11.020252 4.5536068 11.074042 4.7865681 11.150391 5.015625L11.15625 5.0332031L11.164062 5.0507812C11.270328 5.3341531 11.696965 6.3926164 12.330078 7.9589844C12.963191 9.5253523 13.779604 11.537686 14.585938 13.525391C15.915814 16.803692 16.798297 18.974967 17.214844 20L6.6035156 20C6.2000804 19.240439 4.3149899 15.694433 3.9941406 15.052734L4.0703125 15.257812C3.9489784 14.772476 3.5103179 14.332252 3.109375 14.171875C2.7084321 14.011498 2.3555556 14 2 14L1.3007812 14C1.2507812 14 0.96280081 13.9606 0.59765625 14.179688C0.23251169 14.398773 7.4014868e-17 14.928559 0 15.300781C0 15.498698 0.016184225 15.534334 0.033203125 15.644531C0.050222035 15.754729 0.07325199 15.884062 0.1015625 16.039062C0.1581835 16.349063 0.23764352 16.753077 0.33203125 17.222656C0.52080671 18.161814 0.77111449 19.361924 1.0214844 20.544922C1.4998046 22.804985 1.9366697 24.811297 1.9785156 25.003906C1.9013846 25.377297 0.13216192 33.940753 0.01953125 34.503906L0 34.601562L0 34.699219C0 35.071441 0.23251169 35.601226 0.59765625 35.820312C0.96280081 36.039397 1.2507813 36 1.3007812 36L2 36C2.5333333 36 2.8796377 36.02893 3.3476562 35.794922C3.5816655 35.677917 3.7916208 35.463936 3.9003906 35.300781C4.0091604 35.137627 4.0512036 35.032359 4.09375 34.947266C4.4406393 34.253487 6.2216882 30.767099 6.6132812 30L17.207031 30C16.782837 31.028034 15.888097 33.193228 14.548828 36.458984C13.736031 38.440959 12.91827 40.443809 12.289062 41.998047C11.97446 42.775166 11.707676 43.440135 11.511719 43.935547C11.320461 44.419079 11.23142 44.617656 11.148438 44.902344C10.995036 45.374159 10.946308 45.992086 11.376953 46.476562C11.759679 46.90713 12.276579 46.958065 12.675781 46.896484C13.252711 46.889658 14.221304 46.791673 15.023438 46.691406L15.033203 46.691406L15.041016 46.689453C15.991803 46.553626 16.632031 45.854687 16.832031 45.554688C16.741411 45.690613 16.864871 45.511908 16.964844 45.382812C17.064814 45.253715 17.208144 45.070127 17.386719 44.841797C17.743868 44.385136 18.244814 43.748859 18.839844 42.992188C20.029903 41.478845 21.597803 39.486923 23.160156 37.505859C26.133908 33.735158 28.805815 30.352212 29.083984 30L43.699219 30C45.862377 30 47.479281 29.114962 48.492188 28.072266C49.505093 27.029569 50 26 50 25C50 24 49.505092 22.970431 48.492188 21.927734C47.479281 20.885038 45.862377 20 43.699219 20L29.087891 20C28.810718 19.643981 26.163135 16.241909 23.201172 12.447266C21.644659 10.453179 20.079138 8.4505097 18.882812 6.9257812C18.28465 6.1634171 17.77903 5.5197572 17.412109 5.0566406C17.228649 4.8250823 17.078587 4.6382109 16.96875 4.5019531C16.858913 4.3656953 16.897647 4.3839756 16.707031 4.1933594C16.635599 4.1219268 16.524568 3.9439761 16.240234 3.7070312C15.955901 3.4700865 15.523009 3.2797937 15.041016 3.2109375L15.025391 3.2070312L15.009766 3.2070312C14.093615 3.1052393 13.121832 3 12.599609 3 z M 13.324219 5.0644531C13.768282 5.0993831 14.177489 5.1268892 14.763672 5.1914062C14.961106 5.2203843 14.943782 5.2314716 14.958984 5.2441406C14.974654 5.2571956 15.064401 5.3788545 15.292969 5.6074219C15.139853 5.4543056 15.308809 5.6296659 15.412109 5.7578125C15.515408 5.885959 15.662171 6.0696442 15.84375 6.2988281C16.206908 6.7571959 16.711444 7.399083 17.308594 8.1601562C18.502893 9.682303 20.069013 11.684321 21.625 13.677734C24.736974 17.66456 27.810547 21.615234 27.810547 21.615234L28.111328 22L43.699219 22C45.336061 22 46.371499 22.614962 47.058594 23.322266C47.745689 24.029569 48 25 48 25C48 25 47.745689 25.970431 47.058594 26.677734C46.371499 27.385038 45.336061 28 43.699219 28L28.115234 28L27.814453 28.380859C27.814453 28.380859 24.715138 32.304706 21.589844 36.267578C20.027197 38.249014 18.458769 40.241077 17.267578 41.755859C16.671983 42.513251 16.169804 43.15002 15.810547 43.609375C15.630919 43.839052 15.48841 44.024361 15.384766 44.158203C15.281122 44.292045 15.283586 44.271886 15.167969 44.445312C14.969745 44.742649 15.194899 44.648218 14.761719 44.708984C14.243768 44.773304 13.77627 44.802904 13.306641 44.837891C13.341921 44.745181 13.330944 44.771421 13.371094 44.669922C13.563418 44.183694 13.829057 43.522491 14.142578 42.748047C14.76962 41.199159 15.588188 39.197322 16.400391 37.216797C18.024799 33.255747 19.625 29.380859 19.625 29.380859L20.195312 28L5.3886719 28L5.109375 28.544922C5.109375 28.544922 2.7757879 33.114237 2.3300781 34.003906C2.3277881 33.998906 2.2516601 33.992763 2.1640625 34.001953C2.518577 32.274981 3.9785156 25.203125 3.9785156 25.203125L4.0214844 24.994141L3.9765625 24.787109C3.9765625 24.787109 3.4777759 22.489864 2.9785156 20.130859C2.7288855 18.951357 2.4791933 17.756545 2.2929688 16.830078C2.2266248 16.500019 2.1819129 16.259288 2.1347656 16.011719C2.1833906 16.016719 2.2199876 16.015731 2.2441406 16.019531C2.7347604 16.993064 5.1171875 21.46875 5.1171875 21.46875L5.3984375 22L20.185547 22L19.626953 20.623047C19.626953 20.623047 18.051787 16.748027 16.439453 12.773438C15.633286 10.786142 14.818059 8.7738664 14.185547 7.2089844C13.711163 6.0353228 13.505172 5.5186735 13.324219 5.0644531 z" />
</svg>