<?xml version="1.0" encoding="utf-8"?>
<svg xmlns="http://www.w3.org/2000/svg" viewBox="0 0 50 50" width="515" height="515">
  <path d="M25.136719 2 A 1.0001 1.0001 0 0 0 24.427734 2.2597656L21.605469 4.8164062L17.804688 4.0214844 A 1.0001 1.0001 0 0 0 16.654297 4.6777344L15.417969 8.2949219L11.705078 9.4453125 A 1.0001 1.0001 0 0 0 11.021484 10.605469L11.816406 14.40625L9.2597656 17.228516 A 1.0001 1.0001 0 0 0 9.2597656 18.572266L11.816406 21.394531L11.021484 25.195312 A 1.0001 1.0001 0 0 0 11.677734 26.345703L15.294922 27.582031L16 29.857422L16 47 A 1.0001 1.0001 0 0 0 17.447266 47.894531L25 44.117188L32.552734 47.894531 A 1.0001 1.0001 0 0 0 34 47L34 29.457031L34.578125 27.806641L38.294922 26.65625 A 1.0001 1.0001 0 0 0 38.978516 25.496094L38.183594 21.693359L40.740234 18.871094 A 1.0001 1.0001 0 0 0 40.751953 17.539062L38.181641 14.615234L38.978516 10.804688 A 1.0001 1.0001 0 0 0 38.322266 9.6542969L34.705078 8.4179688L33.554688 4.7050781 A 1.0001 1.0001 0 0 0 32.394531 4.0214844L28.59375 4.8183594L25.771484 2.2597656 A 1.0001 1.0001 0 0 0 25.136719 2 z M 25.099609 4.3496094L27.628906 6.640625 A 1.0001 1.0001 0 0 0 28.503906 6.8789062L31.914062 6.1660156L32.945312 9.4960938 A 1.0001 1.0001 0 0 0 33.576172 10.146484L36.839844 11.259766L36.121094 14.695312 A 1.0001 1.0001 0 0 0 36.349609 15.560547L38.660156 18.189453L36.359375 20.728516 A 1.0001 1.0001 0 0 0 36.121094 21.605469L36.833984 25.013672L33.503906 26.044922 A 1.0001 1.0001 0 0 0 32.855469 26.669922L31.746094 29.841797L28.304688 29.121094 A 1.0001 1.0001 0 0 0 27.427734 29.359375L24.900391 31.650391L22.371094 29.359375 A 1.0001 1.0001 0 0 0 21.496094 29.121094L18.085938 29.833984L17.054688 26.503906 A 1.0001 1.0001 0 0 0 16.423828 25.853516L13.160156 24.740234L13.878906 21.304688 A 1.0001 1.0001 0 0 0 13.640625 20.427734L11.349609 17.900391L13.640625 15.371094 A 1.0001 1.0001 0 0 0 13.878906 14.496094L13.166016 11.085938L16.496094 10.054688 A 1.0001 1.0001 0 0 0 17.146484 9.4238281L18.259766 6.1601562L21.695312 6.8789062 A 1.0001 1.0001 0 0 0 22.572266 6.640625L25.099609 4.3496094 z M 25 8C19.466667 8 15 12.466667 15 18C15 23.533333 19.466667 28 25 28C30.533333 28 35 23.533333 35 18C35 12.466667 30.533333 8 25 8 z M 25 10C29.466667 10 33 13.533333 33 18C33 22.466667 29.466667 26 25 26C20.533333 26 17 22.466667 17 18C17 13.533333 20.533333 10 25 10 z M 21.40625 31.183594L24.228516 33.740234 A 1.0001 1.0001 0 0 0 25.572266 33.740234L28.394531 31.183594L32 31.9375L32 45.382812L25.447266 42.105469 A 1.0001 1.0001 0 0 0 24.552734 42.105469L18 45.382812L18 31.896484L21.40625 31.183594 z" />
</svg>