<?xml version="1.0" encoding="utf-8"?>
<svg xmlns="http://www.w3.org/2000/svg" viewBox="0 0 50 50" width="515" height="515">
  <path d="M25 0C21.5 0 18.199609 1.2996094 15.599609 3.5996094C12.699609 6.1996094 11 10 11 14C11 15.1 11.9 16 13 16L15 16C16.1 16 17 15.1 17 14C17 11.7 17.999219 9.6 19.699219 8C21.199219 6.7 23 6 25 6C25.3 6 25.600391 5.9996094 25.900391 6.0996094C29.600391 6.4996094 32.500391 9.4996094 32.900391 13.099609C33.300391 16.399609 31.599219 19.499609 28.699219 21.099609C24.499219 23.299609 21.900391 27.499609 21.900391 32.099609L21.900391 38C21.900391 39.1 22.800391 40 23.900391 40L25.900391 40C27.000391 40 27.900391 39.1 27.900391 38L27.900391 32.099609C27.900391 29.799609 29.3 27.600391 31.5 26.400391C36.6 23.700391 39.500781 18.2 38.800781 12.5C38.200781 6 32.999609 0.79960938 26.599609 0.099609375C26.099609 -0.000390625 25.5 1.8503717e-17 25 0 z M 25 2C25.4 2 25.900781 1.9996094 26.300781 2.0996094C31.800781 2.6996094 36.300391 7.1992188 36.900391 12.699219C37.400391 17.599219 34.999609 22.299219 30.599609 24.699219C27.799609 26.099219 26 28.999609 26 32.099609L26 38L24 38L24 32.099609C24 28.299609 26.199219 24.700391 29.699219 22.900391C33.299219 21.000391 35.400391 17.000391 34.900391 12.900391C34.400391 8.3003906 30.699609 4.5996094 26.099609 4.0996094C25.799609 3.9996094 25.4 4 25 4C22.5 4 20.200781 4.9 18.300781 6.5C16.200781 8.4 15 11.2 15 14L13 14C13 10.6 14.5 7.2996094 17 5.0996094C19.2 3.0996094 22.1 2 25 2 z M 23 44 A 1.0001 1.0001 0 0 0 22 45L22 49 A 1.0001 1.0001 0 0 0 23 50L27 50 A 1.0001 1.0001 0 0 0 28 49L28 45 A 1.0001 1.0001 0 0 0 27 44L23 44 z M 24 46L26 46L26 48L24 48L24 46 z" />
</svg>