<?xml version="1.0" encoding="utf-8"?>
<svg xmlns="http://www.w3.org/2000/svg" viewBox="0 0 50 50" width="515" height="515">
  <path d="M9.875 0.0625C9.617188 0.0976563 9.378906 0.230469 9.21875 0.4375C6.585938 3.582031 5 7.644531 5 12.0625C5 16.429688 6.542969 20.433594 9.125 23.5625C9.480469 23.992188 10.117188 24.058594 10.546875 23.703125C10.976563 23.347656 11.042969 22.710938 10.6875 22.28125C8.390625 19.496094 7 15.957031 7 12.0625C7 8.125 8.40625 4.515625 10.75 1.71875C11.027344 1.40625 11.082031 0.957031 10.886719 0.585938C10.691406 0.21875 10.289063 0.0078125 9.875 0.0625 Z M 39.8125 0.0625C39.453125 0.128906 39.160156 0.378906 39.042969 0.726563C38.925781 1.070313 39.003906 1.449219 39.25 1.71875C41.59375 4.515625 43 8.125 43 12.0625C43 15.957031 41.609375 19.496094 39.3125 22.28125C38.957031 22.710938 39.023438 23.347656 39.453125 23.703125C39.882813 24.058594 40.519531 23.992188 40.875 23.5625C43.457031 20.433594 45 16.429688 45 12.0625C45 7.644531 43.414063 3.582031 40.78125 0.4375C40.570313 0.171875 40.242188 0.03125 39.90625 0.0625C39.875 0.0625 39.84375 0.0625 39.8125 0.0625 Z M 15.6875 3.34375C15.429688 3.378906 15.191406 3.511719 15.03125 3.71875C13.140625 5.976563 12 8.890625 12 12.0625C12 15.234375 13.140625 18.148438 15.03125 20.40625C15.253906 20.707031 15.621094 20.855469 15.988281 20.800781C16.355469 20.742188 16.660156 20.488281 16.78125 20.136719C16.902344 19.785156 16.816406 19.394531 16.5625 19.125C14.960938 17.214844 14 14.753906 14 12.0625C14 9.371094 14.960938 6.914063 16.5625 5C16.839844 4.6875 16.894531 4.238281 16.699219 3.867188C16.503906 3.5 16.101563 3.289063 15.6875 3.34375 Z M 34 3.34375C33.640625 3.410156 33.347656 3.660156 33.230469 4.007813C33.113281 4.351563 33.191406 4.730469 33.4375 5C35.039063 6.914063 36 9.371094 36 12.0625C36 14.753906 35.039063 17.214844 33.4375 19.125C33.183594 19.394531 33.097656 19.785156 33.21875 20.136719C33.339844 20.488281 33.644531 20.742188 34.011719 20.800781C34.378906 20.855469 34.746094 20.707031 34.96875 20.40625C36.859375 18.148438 38 15.234375 38 12.0625C38 8.890625 36.859375 5.976563 34.96875 3.71875C34.757813 3.453125 34.429688 3.3125 34.09375 3.34375C34.0625 3.34375 34.03125 3.34375 34 3.34375 Z M 25 9C23.34375 9 22 10.34375 22 12C22 12.917969 22.414063 13.730469 23.0625 14.28125L10.0625 48.65625C9.914063 48.996094 9.96875 49.390625 10.203125 49.679688C10.433594 49.96875 10.804688 50.105469 11.171875 50.035156C11.535156 49.964844 11.828125 49.699219 11.9375 49.34375L14.09375 43.65625L33.875 38.3125L38.0625 49.34375C38.171875 49.699219 38.464844 49.964844 38.828125 50.035156C39.195313 50.105469 39.566406 49.96875 39.796875 49.679688C40.03125 49.390625 40.085938 48.996094 39.9375 48.65625L26.9375 14.28125C27.585938 13.730469 28 12.917969 28 12C28 10.34375 26.65625 9 25 9 Z M 24.9375 15C24.957031 15 24.976563 15 25 15C25.023438 15 25.042969 15 25.0625 15L29.375 26.40625L19.25 30.0625 Z M 30.09375 28.3125L32.96875 35.84375L20.8125 31.625 Z M 18.1875 32.8125L30.5625 37.125L14.9375 41.375Z" />
</svg>