<?xml version="1.0" encoding="utf-8"?>
<svg xmlns="http://www.w3.org/2000/svg" viewBox="0 0 50 50" width="515" height="515">
  <path d="M25 0C19.464844 0 15 4.464844 15 10C15 11.972656 15.5625 13.789063 16.53125 15.3125C12.972656 14.574219 8.417969 14 3 14C2.96875 14 2.9375 14 2.90625 14C2.390625 14.046875 1.996094 14.480469 2 15L2 22.1875C0.84375 22.605469 0 23.707031 0 25L0 29C0 30.644531 1.355469 32 3 32L4 32C6.210938 32 8 30.210938 8 28L8 26C8 23.789063 6.210938 22 4 22L4 16.0625C16.4375 16.253906 23.289063 19.378906 24 19.71875L24 47.1875C21.074219 45.488281 14.144531 42.277344 4 42.0625L4 33L2 33L2 43C2 43.550781 2.449219 44 3 44C16.359375 44 23.828125 49.359375 24.3125 49.71875C24.359375 49.765625 24.414063 49.808594 24.46875 49.84375C24.480469 49.84375 24.488281 49.84375 24.5 49.84375C24.578125 49.886719 24.664063 49.917969 24.75 49.9375C24.761719 49.9375 24.769531 49.9375 24.78125 49.9375C24.800781 49.949219 24.824219 49.960938 24.84375 49.96875C24.855469 49.96875 24.863281 49.96875 24.875 49.96875C24.894531 49.96875 24.917969 49.96875 24.9375 49.96875C24.949219 49.96875 24.957031 49.96875 24.96875 49.96875C25.03125 49.976563 25.09375 49.976563 25.15625 49.96875C25.289063 49.941406 25.417969 49.890625 25.53125 49.8125C25.550781 49.804688 25.574219 49.792969 25.59375 49.78125C25.628906 49.753906 25.660156 49.722656 25.6875 49.6875C26.246094 49.277344 33.714844 44 47 44C47.550781 44 48 43.550781 48 43L48 33L46 33L46 42.0625C35.855469 42.277344 28.925781 45.488281 26 47.1875L26 19.71875C26.710938 19.378906 33.5625 16.253906 46 16.0625L46 22C43.789063 22 42 23.789063 42 26L42 28C42 30.210938 43.789063 32 46 32L47 32C48.644531 32 50 30.644531 50 29L50 25C50 23.707031 49.15625 22.605469 48 22.1875L48 15C48 14.449219 47.550781 14 47 14C41.566406 14 37 14.570313 33.4375 15.3125C34.421875 13.761719 35 11.933594 35 10C35 4.464844 30.535156 0 25 0 Z M 25 2C29.464844 2 33 5.535156 33 10C33 12.472656 31.855469 14.78125 30.03125 16.1875C30.019531 16.191406 30.011719 16.214844 30 16.21875C27.46875 16.921875 25.738281 17.550781 25 17.875C24.261719 17.550781 22.53125 16.921875 20 16.21875C19.988281 16.210938 19.980469 16.195313 19.96875 16.1875C18.132813 14.769531 17 12.585938 17 10C17 5.535156 20.535156 2 25 2 Z M 3 24L4 24C5.191406 24 6 24.808594 6 26L6 28C6 29.191406 5.191406 30 4 30L3 30C2.445313 30 2 29.554688 2 29L2 25C2 24.445313 2.445313 24 3 24 Z M 46 24L47 24C47.554688 24 48 24.445313 48 25L48 29C48 29.554688 47.554688 30 47 30L46 30C44.808594 30 44 29.191406 44 28L44 26C44 24.808594 44.808594 24 46 24Z" />
</svg>