<?xml version="1.0" encoding="utf-8"?>
<svg xmlns="http://www.w3.org/2000/svg" viewBox="0 0 50 50" width="515" height="515">
  <path d="M32 5C28.699219 5 26 7.699219 26 11C22.144531 11 19 14.144531 19 18C19 21.855469 22.144531 25 26 25C29.855469 25 33 21.855469 33 18C33 17.640625 32.960938 17.285156 32.90625 16.9375C35.789063 16.503906 38 14 38 11C38 7.699219 35.300781 5 32 5 Z M 32 7C34.21875 7 36 8.78125 36 11C36 13.125 34.367188 14.824219 32.28125 14.96875C31.4375 13.230469 29.902344 11.886719 28.03125 11.3125C28.023438 11.207031 28 11.105469 28 11C28 8.78125 29.78125 7 32 7 Z M 31.5625 8.75L30.0625 10.25L31.25 10.25L31.25 13.25L32.75 13.25L32.75 8.75 Z M 26 13C28.773438 13 31 15.226563 31 18C31 20.773438 28.773438 23 26 23C23.226563 23 21 20.773438 21 18C21 15.226563 23.226563 13 26 13 Z M 25.5 15.28125L23.6875 17.09375L25.09375 17.09375L25.09375 20.71875L26.90625 20.71875L26.90625 15.28125 Z M 13.46875 25C10.632813 25 9.324219 25.6875 7.90625 26.25C5.199219 27.324219 0.5625 29.5625 0.5625 29.5625C0.195313 29.6875 -0.0625 30.015625 -0.105469 30.398438C-0.148438 30.785156 0.0351563 31.160156 0.367188 31.363281C0.695313 31.5625 1.113281 31.554688 1.4375 31.34375C1.4375 31.34375 6.109375 29.101563 8.65625 28.09375C10.214844 27.476563 10.921875 27 13.46875 27C19.085938 27 18.917969 29.527344 21.21875 30.90625C22.046875 31.402344 23.347656 31.785156 24.8125 32.15625C24.9375 32.226563 25.074219 32.269531 25.21875 32.28125C25.230469 32.285156 25.238281 32.277344 25.25 32.28125C26.902344 32.683594 28.65625 33 30 33C30.585938 33 31.089844 33.066406 31.5 33.15625C31.519531 33.15625 31.542969 33.15625 31.5625 33.15625C31.9375 33.246094 32.230469 33.371094 32.4375 33.5C32.875 33.777344 33 34.003906 33 34.5C33 35.082031 32.875 35.269531 32.4375 35.53125C32 35.792969 31.152344 36 30 36L24.1875 36C21.738281 36 18.28125 35.03125 18.28125 35.03125C17.746094 34.875 17.1875 35.183594 17.03125 35.71875C16.875 36.253906 17.183594 36.8125 17.71875 36.96875C17.71875 36.96875 21.246094 38 24.1875 38L30 38C31.351563 38 32.5 37.804688 33.4375 37.25C33.707031 37.089844 33.945313 36.890625 34.15625 36.65625C34.246094 36.625 34.328125 36.585938 34.40625 36.53125L43.40625 30.46875C44.964844 29.542969 46.046875 29.300781 46.6875 29.3125C47.328125 29.324219 47.546875 29.515625 47.75 29.78125C48.046875 30.167969 48.066406 30.386719 47.875 30.84375C47.683594 31.300781 47.152344 31.941406 46.1875 32.625C44.988281 33.476563 31.773438 42.257813 30.21875 43.15625C29.070313 43.820313 28.152344 44.542969 27.09375 44.84375C26.035156 45.144531 24.769531 45.121094 22.71875 44.125C21.351563 43.460938 15.5625 40.4375 13.6875 39.46875C12.652344 38.933594 11.800781 38.636719 10.90625 38.6875C10.011719 38.738281 9.230469 39.148438 8.4375 39.65625L5.75 41.40625C5.285156 41.707031 5.152344 42.332031 5.453125 42.796875C5.753906 43.261719 6.378906 43.394531 6.84375 43.09375L9.53125 41.34375C10.230469 40.898438 10.625 40.707031 11 40.6875C11.375 40.667969 11.886719 40.789063 12.78125 41.25C14.640625 42.210938 20.339844 45.207031 21.84375 45.9375C24.207031 47.085938 26.101563 47.183594 27.625 46.75C29.148438 46.316406 30.238281 45.445313 31.21875 44.875C33.300781 43.667969 45.839844 35.316406 47.34375 34.25C48.492188 33.4375 49.300781 32.585938 49.71875 31.59375C50.136719 30.601563 50.007813 29.429688 49.34375 28.5625C48.820313 27.878906 47.902344 27.335938 46.71875 27.3125C45.886719 27.296875 44.878906 27.601563 43.78125 28.09375C43.738281 27.890625 43.839844 27.664063 43.75 27.46875C43.410156 26.730469 42.632813 26.230469 41.78125 26.0625C40.667969 25.84375 39.40625 26.179688 38.15625 26.75C38.066406 26.476563 37.996094 26.183594 37.8125 25.96875C37.277344 25.328125 36.5 25.117188 35.78125 25.0625C34.347656 24.953125 32.859375 25.417969 31.78125 26.0625C30.285156 26.953125 25.8125 29.773438 25.15625 30.1875C23.820313 29.828125 22.605469 29.402344 22.25 29.1875C21.335938 28.636719 19.773438 25 13.46875 25 Z M 35.625 27.0625C36.023438 27.09375 36.226563 27.214844 36.28125 27.28125C36.324219 27.332031 36.398438 27.410156 36.375 27.6875C36.375 27.695313 36.375 27.710938 36.375 27.71875L31.4375 31.09375C30.984375 31.023438 30.515625 31 30 31C29.472656 31 28.753906 30.90625 27.96875 30.78125C29.707031 29.6875 31.859375 28.347656 32.8125 27.78125C33.484375 27.382813 34.824219 27 35.625 27.0625 Z M 40.75 28C41.015625 27.976563 41.234375 27.964844 41.40625 28C41.820313 28.082031 41.871094 28.167969 41.9375 28.3125C41.984375 28.417969 42.007813 28.6875 41.96875 29.03125L34.90625 33.78125C34.734375 33.058594 34.316406 32.417969 33.71875 31.96875L37.84375 29.125C37.898438 29.089844 37.953125 29.046875 38 29C38.054688 28.964844 38.109375 28.921875 38.15625 28.875C39.050781 28.332031 40.039063 28.066406 40.75 28Z" />
</svg>