<?xml version="1.0" encoding="utf-8"?>
<svg xmlns="http://www.w3.org/2000/svg" viewBox="0 0 50 50" width="515" height="515">
  <path d="M19.0625 1C17.519531 1.089844 15.015625 1.527344 13.6875 3.71875L7.59375 14.28125L7.09375 15.15625L7.96875 15.65625L11.5 17.6875L3.15625 18.71875L0.1875 19.0625L2.75 20.5625L3.65625 21.09375L0.625 26.21875C0.246094 26.875 0.0234375 27.707031 0 28.65625C-0.0234375 29.605469 0.164063 30.691406 0.78125 31.625C1.164063 32.207031 2.582031 34.710938 3.9375 37.125C5.203125 39.378906 6.351563 41.398438 6.90625 42.28125C6.941406 42.382813 6.996094 42.476563 7.0625 42.5625C7.070313 42.574219 7.085938 42.582031 7.09375 42.59375C7.949219 43.878906 9.550781 45.792969 12.09375 45.84375L25.28125 45.84375L25.28125 40.78125L30.34375 47.5L32.15625 49.875L32.15625 45.84375L38.125 45.9375C38.882813 45.9375 39.699219 45.671875 40.53125 45.21875C41.363281 44.765625 42.1875 44.09375 42.6875 43.09375C43 42.46875 44.464844 39.972656 45.875 37.59375C47.214844 35.335938 48.464844 33.273438 48.9375 32.375C48.988281 32.308594 49.03125 32.234375 49.0625 32.15625C49.066406 32.148438 49.058594 32.132813 49.0625 32.125C49.753906 30.742188 50.601563 28.417969 49.375 26.1875L49.375 26.15625L43.28125 15.59375L42.78125 14.75L41.90625 15.25L38.40625 17.28125L41.65625 9.53125L42.84375 6.78125L40.25 8.28125L39.375 8.78125L36.4375 3.59375L36.40625 3.59375C36.027344 2.9375 35.433594 2.335938 34.625 1.84375C33.832031 1.359375 32.839844 0.984375 31.75 1.03125C31.738281 1.03125 31.730469 1.03125 31.71875 1.03125C31.691406 1.03125 31.621094 1.03125 31.59375 1.03125C29.5 1.078125 24.636719 1.019531 19.125 1 Z M 19.09375 3C19.121094 3 19.128906 3 19.15625 3C22.796875 3.011719 24.953125 3.023438 27.4375 3.03125C26.988281 3.46875 26.445313 3.84375 26.15625 4.34375L24.25 7.65625L24.21875 7.71875C24.167969 7.785156 24.125 7.859375 24.09375 7.9375L17.71875 18.96875L9.8125 14.40625L15.40625 4.75C16.1875 3.457031 17.808594 3.082031 19.09375 3 Z M 31.625 3.03125C31.667969 3.035156 31.707031 3.035156 31.75 3.03125C31.761719 3.03125 31.769531 3.03125 31.78125 3.03125C32.363281 2.996094 33.015625 3.226563 33.5625 3.5625C34.109375 3.898438 34.558594 4.371094 34.6875 4.59375L38.125 10.65625L38.625 11.53125L38.6875 11.5L36.40625 16.8125L30.71875 16.125L30.75 16.09375L30.25 15.21875L26.21875 8.21875L27.875 5.34375C28.503906 4.253906 30.058594 3.070313 31.625 3.03125 Z M 25.0625 10.25L28 15.34375L27.125 15.875L24.53125 17.375L27.5 17.71875L35.84375 18.75L32.28125 20.78125L31.4375 21.28125L31.9375 22.15625L38.03125 32.75L32.15625 32.75L32.15625 28.71875L30.34375 31.125L25.28125 37.84375L25.28125 32.75L12.0625 32.75L15 27.625L15.90625 28.15625L18.5 29.65625L17.3125 26.90625L14 19.125L17.5625 21.1875L18.4375 21.6875L18.9375 20.84375 Z M 42.0625 17.46875L47.625 27.125C48.363281 28.46875 47.828125 30.125 47.25 31.28125C47.25 31.285156 47.25 31.308594 47.25 31.3125C47.25 31.316406 47.21875 31.339844 47.21875 31.34375C47.21875 31.355469 47.21875 31.363281 47.21875 31.375C47.027344 31.742188 46.601563 32.085938 46 32.34375C45.371094 32.613281 44.59375 32.75 43.96875 32.75L40.375 32.75L34.15625 22.03125 Z M 12.0625 19.625L14.28125 24.90625L13.78125 25.78125L9.65625 32.90625C9.394531 33.082031 9.234375 33.371094 9.21875 33.6875L7.375 36.875C7.148438 37.269531 7.0625 37.785156 6.90625 38.25C6.425781 37.402344 6.226563 37.085938 5.6875 36.125C4.332031 33.710938 2.988281 31.339844 2.4375 30.5C2.117188 30.011719 1.984375 29.359375 2 28.71875C2.015625 28.089844 2.214844 27.484375 2.34375 27.25C2.347656 27.246094 2.339844 27.222656 2.34375 27.21875L5.875 21.21875L6.40625 20.34375L6.375 20.3125 Z M 45.375 34.46875C44.882813 35.304688 44.714844 35.621094 44.15625 36.5625C42.742188 38.941406 41.355469 41.289063 40.90625 42.1875C40.644531 42.710938 40.15625 43.160156 39.59375 43.46875C39.03125 43.777344 38.382813 43.9375 38.125 43.9375L31.15625 43.84375L30.15625 43.84375L30.15625 43.9375L26.65625 39.3125L30.15625 34.6875L30.15625 34.75L43.96875 34.75C44.417969 34.75 44.898438 34.5625 45.375 34.46875 Z M 10.90625 34.75L23.28125 34.75L23.28125 43.84375L12.125 43.84375C12.113281 43.84375 12.105469 43.84375 12.09375 43.84375C10.578125 43.796875 9.429688 42.542969 8.71875 41.46875C8.71875 41.457031 8.71875 41.449219 8.71875 41.4375C8.472656 41.09375 8.355469 40.523438 8.4375 39.84375C8.519531 39.164063 8.78125 38.414063 9.09375 37.875Z" />
</svg>