<?xml version="1.0" encoding="utf-8"?>
<svg xmlns="http://www.w3.org/2000/svg" viewBox="0 0 50 50" width="515" height="515">
  <path d="M20 4C15.054545 4 11 8.0545455 11 13L11 35.585938L5.7070312 30.292969L4.2929688 31.707031L12 39.414062L19.707031 31.707031L18.292969 30.292969L13 35.585938L13 13C13 12.759091 13.01313 12.521884 13.037109 12.287109C13.396795 8.7654918 16.386364 6 20 6L30 6L30.5 6L30.5 4L30 4L20 4 z M 38 10.585938L30.292969 18.292969L31.707031 19.707031L37 14.414062L37 37C37 40.613636 34.234508 43.603205 30.712891 43.962891C30.478116 43.98687 30.240909 44 30 44L20 44L19.5 44L19.5 46L20 46L30 46C30.309091 46 30.614657 45.984029 30.916016 45.953125C35.436391 45.489569 39 41.636364 39 37L39 14.414062L44.292969 19.707031L45.707031 18.292969L38 10.585938 z" />
</svg>