<?xml version="1.0" encoding="utf-8"?>
<svg xmlns="http://www.w3.org/2000/svg" viewBox="0 0 50 50" width="515" height="515">
  <path d="M25 3C15.621094 3 8 10.621094 8 20C8 25.265625 12.148438 32.046875 16.1875 37.75C20.226563 43.453125 24.25 47.96875 24.25 47.96875C24.441406 48.183594 24.714844 48.308594 25 48.308594C25.285156 48.308594 25.558594 48.183594 25.75 47.96875C25.75 47.96875 29.773438 43.476563 33.8125 37.78125C37.851563 32.085938 42 25.292969 42 20C42 10.621094 34.378906 3 25 3 Z M 25 5C33.296875 5 40 11.703125 40 20C40 24.164063 36.148438 31.039063 32.1875 36.625C28.824219 41.367188 25.941406 44.679688 25 45.75C24.058594 44.675781 21.175781 41.34375 17.8125 36.59375C13.851563 30.996094 10 24.128906 10 20C10 11.703125 16.703125 5 25 5 Z M 15.3125 12.9375C13.863281 14.917969 13 17.355469 13 20C13 22.644531 13.863281 25.082031 15.3125 27.0625L16.9375 25.90625C15.722656 24.25 15 22.207031 15 20C15 17.792969 15.722656 15.75 16.9375 14.09375 Z M 34.6875 12.9375L33.0625 14.09375C34.277344 15.75 35 17.792969 35 20C35 22.207031 34.277344 24.25 33.0625 25.90625L34.6875 27.0625C36.136719 25.082031 37 22.644531 37 20C37 17.355469 36.136719 14.917969 34.6875 12.9375 Z M 25 16C22.800781 16 21 17.800781 21 20C21 22.199219 22.800781 24 25 24C27.199219 24 29 22.199219 29 20C29 17.800781 27.199219 16 25 16 Z M 25 18C26.117188 18 27 18.882813 27 20C27 21.117188 26.117188 22 25 22C23.882813 22 23 21.117188 23 20C23 18.882813 23.882813 18 25 18Z" />
</svg>