<?xml version="1.0" encoding="utf-8"?>
<svg xmlns="http://www.w3.org/2000/svg" viewBox="0 0 50 50" width="515" height="515">
  <path d="M37.875 2C37.652344 2.023438 37.441406 2.125 37.28125 2.28125L25 14.5625L17.71875 7.28125C17.320313 6.882813 16.679688 6.882813 16.28125 7.28125C15.882813 7.679688 15.882813 8.320313 16.28125 8.71875L22.5625 15L6 15C2.699219 15 0 17.699219 0 21L0 44C0 47.300781 2.699219 50 6 50L44 50C47.300781 50 50 47.300781 50 44L50 21C50 17.699219 47.300781 15 44 15L27.4375 15L38.71875 3.71875C39.042969 3.417969 39.128906 2.941406 38.933594 2.546875C38.742188 2.148438 38.308594 1.929688 37.875 2 Z M 6 17L24.8125 17C24.9375 17.023438 25.0625 17.023438 25.1875 17L44 17C46.21875 17 48 18.78125 48 21L48 44C48 46.21875 46.21875 48 44 48L6 48C3.78125 48 2 46.21875 2 44L2 21C2 18.78125 3.78125 17 6 17 Z M 20.5 18C13.308594 18 9.058594 17.902344 6.28125 19.9375C4.894531 20.953125 4.050781 22.5 3.59375 24.53125C3.136719 26.5625 3 29.136719 3 32.5C3 35.867188 3.136719 38.4375 3.59375 40.46875C4.050781 42.5 4.894531 44.046875 6.28125 45.0625C9.058594 47.097656 13.308594 47 20.5 47C27.65625 47 31.929688 47.113281 34.71875 45.09375C36.113281 44.085938 36.945313 42.539063 37.40625 40.5C37.867188 38.460938 38 35.894531 38 32.5C38 29.109375 37.886719 26.535156 37.4375 24.5C36.988281 22.464844 36.136719 20.917969 34.75 19.90625C31.976563 17.882813 27.726563 18 20.5 18 Z M 20.5 20C27.726563 20 31.730469 20.140625 33.59375 21.5C34.527344 22.179688 35.082031 23.179688 35.46875 24.9375C35.855469 26.695313 36 29.160156 36 32.5C36 35.839844 35.867188 38.308594 35.46875 40.0625C35.070313 41.816406 34.472656 42.816406 33.53125 43.5C31.648438 44.863281 27.65625 45 20.5 45C13.316406 45 9.316406 44.8125 7.4375 43.4375C6.496094 42.75 5.921875 41.78125 5.53125 40.03125C5.140625 38.28125 5 35.8125 5 32.5C5 29.1875 5.140625 26.71875 5.53125 24.96875C5.921875 23.21875 6.496094 22.25 7.4375 21.5625C9.316406 20.183594 13.316406 20 20.5 20 Z M 43 26C41.894531 26 41 26.894531 41 28C41 29.105469 41.894531 30 43 30C44.105469 30 45 29.105469 45 28C45 26.894531 44.105469 26 43 26 Z M 43 35C41.894531 35 41 35.894531 41 37C41 38.105469 41.894531 39 43 39C44.105469 39 45 38.105469 45 37C45 35.894531 44.105469 35 43 35Z" />
</svg>