<?xml version="1.0" encoding="utf-8"?>
<svg xmlns="http://www.w3.org/2000/svg" width="515" height="515" viewBox="0 0 50 50">
  <path d="M11.908203 6C5.3435879 6 0 11.343588 0 17.908203C0 31.398041 15.198138 38.467336 20.359375 42.767578L21 43.300781L21.640625 42.767578C22.649149 41.927416 24.083044 40.938847 25.666016 39.849609C27.035602 41.615757 28.319522 43.137049 29.039062 44.28125L29.482422 44.986328L30.255859 44.677734C34.560502 42.959549 46.529469 41.808982 49.568359 32.476562C51.060343 27.888011 48.539273 22.928778 43.949219 21.435547C43.204246 21.192835 42.453179 21.073525 41.708984 21.041016C41.894761 20.035269 42 18.991403 42 17.908203C42 11.343588 36.656412 6 30.091797 6C26.399085 6 23.177896 7.8239332 21 10.462891C18.822104 7.8239332 15.600915 6 11.908203 6 z M 11.908203 8C15.34277 8 18.385708 9.8693109 20.167969 12.552734L21 13.806641L21.832031 12.552734C23.614292 9.8693109 26.65723 8 30.091797 8C35.575182 8 40 12.424818 40 17.908203C40 19.058727 39.868992 20.152354 39.636719 21.201172C38.670583 21.396893 37.741445 21.74545 36.890625 22.236328C35.916892 20.044514 34.106723 18.231608 31.652344 17.431641C30.50516 17.058349 29.334646 16.93505 28.201172 17.033203C24.800749 17.327664 21.731241 19.606322 20.611328 23.048828C18.717845 28.863031 21.497462 34.150049 24.458984 38.259766C23.173234 39.153313 22.009445 39.979053 21.001953 40.769531C14.978818 36.015714 2 29.526624 2 17.908203C2 12.424818 6.4248185 8 11.908203 8 z M 29.025391 18.998047C29.690702 19.007103 30.365466 19.114751 31.033203 19.332031C33.277181 20.063421 34.864615 21.847114 35.453125 23.957031L35.857422 25.40625L37.037109 24.472656C38.753161 23.113934 41.088734 22.607663 43.330078 23.337891C46.892024 24.496659 48.824032 28.295975 47.666016 31.857422C45.195535 39.444256 35.527342 40.682511 30.267578 42.572266C27.128216 37.946563 20.043371 31.253369 22.513672 23.667969C23.382759 20.996475 25.737923 19.243024 28.363281 19.021484C28.582061 19.003022 28.80362 18.995028 29.025391 18.998047 z" />
</svg>