<?xml version="1.0" encoding="utf-8"?>
<svg xmlns="http://www.w3.org/2000/svg" viewBox="0 0 50 50" width="515" height="515">
  <path d="M8 3.9003906C6.3545455 3.9003906 5 5.2549361 5 6.9003906L5 41.900391C5 43.545845 6.3545455 44.900391 8 44.900391L42 44.900391C43.645455 44.900391 45 43.545845 45 41.900391L45 13.099609 A 1.0001 1.0001 0 0 0 44.707031 12.392578L36.507812 4.1933594 A 1.0001 1.0001 0 0 0 35.800781 3.9003906L8 3.9003906 z M 8 5.9003906L13 5.9003906L13 16.900391C13 18.545845 14.354545 19.900391 16 19.900391L33 19.900391C34.645455 19.900391 36 18.545845 36 16.900391L36 6.5136719L43 13.513672L43 41.900391C43 42.454936 42.554545 42.900391 42 42.900391L37 42.900391L37 27.900391C37 26.254936 35.645455 24.900391 34 24.900391L16 24.900391C14.354545 24.900391 13 26.254936 13 27.900391L13 42.900391L8 42.900391C7.4454545 42.900391 7 42.454936 7 41.900391L7 6.9003906C7 6.3458452 7.4454545 5.9003906 8 5.9003906 z M 15 5.9003906L34 5.9003906L34 16.900391C34 17.454936 33.554545 17.900391 33 17.900391L16 17.900391C15.445455 17.900391 15 17.454936 15 16.900391L15 5.9003906 z M 28 7.9003906 A 1.0001 1.0001 0 0 0 27 8.9003906L27 14.900391 A 1.0001 1.0001 0 0 0 28 15.900391L31 15.900391 A 1.0001 1.0001 0 0 0 32 14.900391L32 8.9003906 A 1.0001 1.0001 0 0 0 31 7.9003906L28 7.9003906 z M 29 9.9003906L30 9.9003906L30 13.900391L29 13.900391L29 9.9003906 z M 16 26.900391L34 26.900391C34.554545 26.900391 35 27.345845 35 27.900391L35 42.900391L15 42.900391L15 27.900391C15 27.345845 15.445455 26.900391 16 26.900391 z M 9 38.900391L9 40.900391L11 40.900391L11 38.900391L9 38.900391 z M 39 38.900391L39 40.900391L41 40.900391L41 38.900391L39 38.900391 z" />
</svg>