<?xml version="1.0" encoding="utf-8"?>
<svg xmlns="http://www.w3.org/2000/svg" viewBox="0 0 50 50" width="515" height="515">
  <path d="M25 0C22.546875 0 20.476563 1.367188 17.40625 2.945313C14.332031 4.527344 10.21875 6.433594 3.785156 7.84375L3 8.019531L3 8.820313C3 24.144531 8.355469 34.371094 13.734375 40.71875C19.117188 47.070313 24.578125 49.601563 24.578125 49.601563L25.019531 49.804688L25.453125 49.585938C25.453125 49.585938 47 38.480469 47 8.820313L47 8.019531L46.214844 7.84375C39.78125 6.433594 35.667969 4.527344 32.59375 2.945313C29.523438 1.367188 27.453125 0 25 0 Z M 25 2C26.644531 2 28.542969 3.109375 31.683594 4.726563C34.660156 6.257813 38.863281 8.113281 44.9375 9.546875C44.582031 36.679688 26.277344 46.839844 24.984375 47.519531C24.359375 47.21875 20.03125 45.054688 15.265625 39.425781C10.234375 33.492188 5.242188 23.960938 5.0625 9.546875C11.136719 8.113281 15.339844 6.257813 18.316406 4.726563C21.457031 3.109375 23.355469 2 25 2 Z M 25 16C22.789063 16 21 17.789063 21 20C21 21.347656 21.683594 22.605469 22.8125 23.34375L21 31.5L29 31.5L27.1875 23.34375C28.316406 22.609375 29 21.347656 29 20C29 17.789063 27.210938 16 25 16Z" />
</svg>