<?xml version="1.0" encoding="utf-8"?>
<svg xmlns="http://www.w3.org/2000/svg" viewBox="0 0 50 50" width="515" height="515">
  <path d="M23.599609 2 A 1.0001 1.0001 0 0 0 22.615234 2.8300781L22.103516 5.8027344C21.653305 5.9463265 21.200965 6.1395393 20.744141 6.3710938L18.287109 4.5898438 A 1.0001 1.0001 0 0 0 16.992188 4.6933594L14.892578 6.7929688 A 1.0001 1.0001 0 0 0 14.777344 8.0683594L16.476562 10.529297C16.241352 10.991303 16.047469 11.449006 15.902344 11.904297L12.835938 12.414062 A 1.0001 1.0001 0 0 0 12 13.400391L12 16.400391 A 1.0001 1.0001 0 0 0 12.830078 17.384766L15.802734 17.896484C15.946327 18.346695 16.139539 18.799035 16.371094 19.255859L14.589844 21.712891 A 1.0001 1.0001 0 0 0 14.693359 23.007812L16.792969 25.107422 A 1.0001 1.0001 0 0 0 18.054688 25.232422L20.630859 23.513672C21.093559 23.753296 21.545416 23.956087 22.001953 24.09375L22.513672 27.164062 A 1.0001 1.0001 0 0 0 23.5 28L26.5 28 A 1.0001 1.0001 0 0 0 27.486328 27.164062L27.998047 24.097656C28.450935 23.953123 28.9057 23.759043 29.365234 23.525391L31.925781 25.318359 A 1.0001 1.0001 0 0 0 33.207031 25.207031L35.306641 23.107422 A 1.0001 1.0001 0 0 0 35.410156 21.814453L33.623047 19.345703C33.853856 18.911631 34.050703 18.464419 34.191406 17.996094L37.169922 17.486328 A 1.0001 1.0001 0 0 0 38 16.5L38 13.5 A 1.0001 1.0001 0 0 0 37.164062 12.513672L34.097656 12.001953C33.954149 11.552279 33.760568 11.100796 33.529297 10.644531L35.310547 8.1855469 A 1.0001 1.0001 0 0 0 35.207031 6.8925781L33.107422 4.7929688 A 1.0001 1.0001 0 0 0 31.814453 4.6894531L29.345703 6.4785156C28.917221 6.2506613 28.475619 6.0558741 28.013672 5.9160156L27.589844 2.8632812 A 1.0001 1.0001 0 0 0 26.599609 2L23.599609 2 z M 24.443359 4L25.728516 4L26.109375 6.7382812 A 1.0001 1.0001 0 0 0 26.882812 7.5761719C27.698593 7.7574563 28.357256 8.0135537 28.917969 8.4140625 A 1.0001 1.0001 0 0 0 30.085938 8.4101562L32.294922 6.8105469L33.189453 7.7050781L31.589844 9.9140625 A 1.0001 1.0001 0 0 0 31.552734 11.029297C31.989214 11.727664 32.248709 12.418668 32.429688 13.142578 A 1.0001 1.0001 0 0 0 33.236328 13.886719L36 14.347656L36 15.65625L33.330078 16.115234 A 1.0001 1.0001 0 0 0 32.523438 16.882812C32.342152 17.698593 32.086056 18.357256 31.685547 18.917969 A 1.0001 1.0001 0 0 0 31.689453 20.085938L33.289062 22.294922L32.386719 23.199219L30.074219 21.580078 A 1.0001 1.0001 0 0 0 28.970703 21.552734C28.272336 21.989214 27.581332 22.24871 26.857422 22.429688 A 1.0001 1.0001 0 0 0 26.113281 23.236328L25.652344 26L24.347656 26L23.886719 23.236328 A 1.0001 1.0001 0 0 0 23.142578 22.429688C22.399645 22.243953 21.606089 21.960264 21.082031 21.585938 A 1.0001 1.0001 0 0 0 19.945312 21.568359L17.626953 23.113281L16.710938 22.195312L18.310547 19.986328 A 1.0001 1.0001 0 0 0 18.347656 18.869141C17.911177 18.170773 17.651681 17.481723 17.470703 16.757812 A 1.0001 1.0001 0 0 0 16.669922 16.013672L14 15.556641L14 14.248047L16.763672 13.787109 A 1.0001 1.0001 0 0 0 17.570312 13.042969C17.75129 12.319058 18.010786 11.628055 18.447266 10.929688 A 1.0001 1.0001 0 0 0 18.423828 9.8320312L16.896484 7.6171875L17.804688 6.7109375L20.013672 8.3105469 A 1.0001 1.0001 0 0 0 21.130859 8.3476562C21.829227 7.9111768 22.518276 7.6516807 23.242188 7.4707031 A 1.0001 1.0001 0 0 0 23.986328 6.6699219L24.443359 4 z M 24.994141 10.003906C23.69465 10.002806 22.384086 10.500678 21.392578 11.492188C19.424293 13.460472 19.424293 16.639137 21.392578 18.607422C23.360863 20.575707 26.539528 20.575707 28.507812 18.607422C30.471567 16.643668 30.472258 13.477109 28.517578 11.507812C27.571355 10.504658 26.289034 10.004992 24.994141 10.003906 z M 24.980469 11.996094C25.755978 11.994994 26.517486 12.295083 27.070312 12.884766 A 1.0001 1.0001 0 0 0 27.09375 12.90625C28.325465 14.137965 28.325465 15.961644 27.09375 17.193359C25.862035 18.425075 24.038356 18.425075 22.806641 17.193359C21.574925 15.961644 21.574925 14.137965 22.806641 12.90625C23.415133 12.297758 24.20496 11.997183 24.980469 11.996094 z M 14.5 28C11.918474 28 10.702174 28.584092 9.4609375 29.158203C9.4432905 29.164603 9.4318625 29.171284 9.4140625 29.177734C9.4037385 29.182534 9.3911884 29.186636 9.3808594 29.191406C6.772854 30.140619 2.578125 32.09375 2.578125 32.09375 A 1.0001 1.0001 0 1 0 3.421875 33.90625C3.421875 33.90625 7.7390686 31.904873 10.138672 31.041016 A 1.0001 1.0001 0 0 0 10.21875 31.007812C11.551228 30.392819 12.133333 30 14.5 30C19.672727 30 19.430208 32.163593 21.585938 33.457031 A 1.0001 1.0001 0 0 0 21.697266 33.515625C24.378856 34.695529 27.212653 35 29.599609 35C30.646832 35 31.289848 35.243312 31.632812 35.511719C31.975777 35.780126 32.099609 36.061905 32.099609 36.5C32.099609 36.829085 32.046436 37.043122 31.935547 37.21875L31.253906 37.662109 A 1.0001 1.0001 0 0 0 31.097656 37.785156C30.728637 37.909746 30.241895 38 29.599609 38L24.300781 38C22.067448 38 18.253906 37.033203 18.253906 37.033203 A 1.0001 1.0001 0 1 0 17.746094 38.966797C17.746094 38.966797 21.534115 40 24.300781 40L29.599609 40C30.880044 40 31.965091 39.763286 32.798828 39.160156C32.953161 39.048511 33.080418 38.910473 33.208984 38.773438L41.814453 33.158203C43.216374 32.317051 44.182528 32.07945 44.748047 32.087891C45.313565 32.096291 45.518358 32.26607 45.710938 32.513672 A 1.0001 1.0001 0 0 0 45.726562 32.533203C45.975933 32.837989 45.988074 32.957875 45.828125 33.335938C45.668588 33.713026 45.188157 34.289392 44.339844 34.871094C44.337644 34.872594 44.338138 34.8735 44.335938 34.875C43.739723 35.272427 40.49575 37.417043 37.191406 39.574219C35.536828 40.654377 33.866701 41.738457 32.507812 42.605469C31.148924 43.47248 30.052323 44.147047 29.732422 44.316406 A 1.0001 1.0001 0 0 0 29.699219 44.333984C28.674407 44.927297 27.835447 45.547153 26.873047 45.810547C25.910647 46.073941 24.772768 46.072729 22.929688 45.197266 A 1.0001 1.0001 0 0 0 22.919922 45.191406C21.71739 44.636425 16.339305 41.90045 14.667969 41.015625 A 1.0001 1.0001 0 0 0 14.646484 41.005859C13.686856 40.526045 12.894286 40.238971 12.056641 40.275391C11.218996 40.311811 10.509366 40.676317 9.7597656 41.158203L7.2617188 42.757812 A 1.0001 1.0001 0 1 0 8.3398438 44.441406L10.839844 42.841797C11.490244 42.423683 11.830223 42.287017 12.142578 42.273438C12.454933 42.259858 12.911582 42.374736 13.751953 42.794922L13.732422 42.783203C15.459149 43.697353 20.66589 46.355144 22.070312 47.003906C22.072512 47.004906 22.073972 47.004787 22.076172 47.005859C22.076826 47.006161 22.079478 47.007512 22.080078 47.007812C24.23198 48.027459 25.992148 48.126183 27.402344 47.740234C28.811609 47.354541 29.819593 46.575138 30.693359 46.068359C31.227221 45.784 32.226673 45.157021 33.583984 44.291016C34.953221 43.417402 36.625281 42.332342 38.283203 41.25C41.599047 39.085317 44.844411 36.938362 45.455078 36.53125 A 1.0001 1.0001 0 0 0 45.464844 36.525391C46.512427 35.808623 47.281824 35.037172 47.671875 34.115234C48.060789 33.195983 47.923089 32.070233 47.277344 31.275391C46.768414 30.628164 45.880444 30.104355 44.777344 30.087891C44.189726 30.079091 43.542293 30.211543 42.835938 30.460938C42.716071 30.28179 42.614078 30.067835 42.183594 29.748047C41.592386 29.308864 40.65674 28.900391 39.400391 28.900391C38.812295 28.900391 38.332607 29.074563 37.935547 29.236328C37.837387 29.276318 37.830163 29.287925 37.742188 29.328125C37.183488 28.727432 36.284648 28 34.599609 28C33.334592 28 32.105878 28.397314 31.25 28.966797C31.2489 28.967539 31.247194 28.96795 31.246094 28.96875C31.183194 29.00516 31.125074 29.03737 31.037109 29.091797C30.904067 29.174117 30.726598 29.285424 30.515625 29.417969C30.093679 29.683057 29.535035 30.035333 28.929688 30.416016C27.718992 31.17738 26.316336 32.052316 25.492188 32.537109 A 1.0007212 1.0007212 0 0 0 25.414062 32.587891C24.45578 32.387337 23.498464 32.105018 22.578125 31.707031C21.730669 31.159192 20.277735 28 14.5 28 z M 34.599609 30C35.245966 30 35.57739 30.201579 35.886719 30.386719L31.333984 33.212891C30.811908 33.075479 30.235893 33 29.599609 33C29.28086 33 28.942846 32.976778 28.611328 32.962891C29.106347 32.654665 29.512529 32.412244 29.994141 32.109375C30.601293 31.727557 31.161399 31.374365 31.580078 31.111328C31.789418 30.97981 31.964683 30.870413 32.089844 30.792969C32.215004 30.715519 32.387025 30.625826 32.248047 30.695312 A 1.0001 1.0001 0 0 0 32.355469 30.632812C32.699447 30.403446 33.866276 30 34.599609 30 z M 39.400391 30.900391C40.237744 30.900391 40.694165 31.13992 40.978516 31.349609C40.908706 31.390079 40.85619 31.400739 40.785156 31.443359 A 1.0001 1.0001 0 0 0 40.753906 31.462891L34.029297 35.851562C33.919474 35.304359 33.663719 34.789076 33.285156 34.355469L38.080078 31.378906C38.235986 31.300066 38.425838 31.195289 38.689453 31.087891C38.967393 30.974656 39.288486 30.900391 39.400391 30.900391 z" />
</svg>