<?xml version="1.0" encoding="utf-8"?>
<svg xmlns="http://www.w3.org/2000/svg" viewBox="0 0 50 50" width="515" height="515">
  <path d="M38.599609 3C34.484928 3 31.03463 5.9134996 30.197266 9.7832031L15.353516 17.205078 A 1.0001165 1.0001165 0 0 0 15.03125 17.462891C13.850997 16.852082 12.516366 16.5 11.099609 16.5C6.3618031 16.5 2.5 20.361806 2.5 25.099609C2.5 29.837413 6.3618031 33.699219 11.099609 33.699219C12.568712 33.699219 13.952435 33.325481 15.164062 32.671875 A 1.0001 1.0001 0 0 0 15.353516 32.794922L30.154297 40.195312C30.90608 44.174198 34.407232 47.199219 38.599609 47.199219C43.337416 47.199219 47.199219 43.337413 47.199219 38.599609C47.199219 33.861806 43.337416 30 38.599609 30C36.784431 30 35.101032 30.571307 33.710938 31.537109L20.634766 25L33.550781 18.542969C34.971101 19.579254 36.712887 20.199219 38.599609 20.199219C43.337416 20.199219 47.199219 16.337413 47.199219 11.599609C47.199219 6.8618066 43.337416 3 38.599609 3 z M 38.599609 5C42.256537 5 45.199219 7.9426849 45.199219 11.599609C45.199219 15.256534 42.256537 18.199219 38.599609 18.199219C37.164406 18.199219 35.84219 17.742496 34.761719 16.970703 A 1.0001 1.0001 0 0 0 33.964844 16.304688C32.751243 15.109273 32 13.446081 32 11.599609C32 7.9426849 34.942682 5 38.599609 5 z M 30.025391 12.105469C30.136272 13.991771 30.849479 15.719113 31.988281 17.087891L19.511719 23.324219C19.127769 21.506088 18.162563 19.903509 16.826172 18.705078L30.025391 12.105469 z M 11.099609 18.5C14.756537 18.5 17.699219 21.442685 17.699219 25.099609C17.699219 28.756534 14.756537 31.699219 11.099609 31.699219C7.4426826 31.699219 4.5 28.756534 4.5 25.099609C4.5 21.442685 7.4426826 18.5 11.099609 18.5 z M 19.544922 26.691406L32.113281 32.974609C30.945245 34.319129 30.187678 36.024228 30.035156 37.900391L16.966797 31.365234C18.273639 30.140521 19.20038 28.519437 19.544922 26.691406 z M 38.599609 32C42.256537 32 45.199219 34.942685 45.199219 38.599609C45.199219 42.256534 42.256537 45.199219 38.599609 45.199219C34.942682 45.199219 32 42.256534 32 38.599609C32 36.543114 32.929625 34.71234 34.394531 33.503906 A 1.0001161 1.0001161 0 0 0 34.396484 33.503906C35.536358 32.56402 36.999704 32 38.599609 32 z" />
</svg>