<?xml version="1.0" encoding="utf-8"?>
<svg xmlns="http://www.w3.org/2000/svg" viewBox="0 0 50 50" width="515" height="515">
  <path d="M2 2C0.9 2 0 2.9 0 4C0 5.1 0.9 6 2 6C3.1 6 4 5.1 4 4C4 3.9980182 4.0000058 3.9961212 4 3.9941406L8.6992188 3.9941406C9.9454628 3.9941406 10.591087 4.2516627 11.068359 4.6855469C11.545632 5.1194311 11.9182 5.8543078 12.246094 6.9785156L20.236328 39.238281 A 0.99359934 0.99359934 0 0 0 20.238281 39.25C20.540205 40.407373 20.818722 41.56725 21.652344 42.517578C21.992858 42.905765 22.423228 43.219282 22.935547 43.458984C22.360513 44.151678 22 45.02898 22 46C22 48.209804 23.790196 50 26 50C28.209804 50 30 48.209804 30 46C30 45.264957 29.787105 44.58589 29.441406 43.994141L35.558594 43.994141C35.212895 44.58589 35 45.264957 35 46C35 48.209804 36.790196 50 39 50C41.209804 50 43 48.209804 43 46C43 44.959564 42.59205 44.021896 41.941406 43.310547 A 0.994141 0.994141 0 0 0 41 42.005859L39.058594 42.005859C39.038603 42.005565 39.020061 42 39 42C38.979939 42 38.961397 42.005565 38.941406 42.005859L26.058594 42.005859C26.038603 42.005565 26.020061 42 26 42C25.979939 42 25.961397 42.005565 25.941406 42.005859L25.699219 42.005859C24.164802 42.005859 23.562863 41.681703 23.146484 41.207031C22.730106 40.732359 22.460186 39.892627 22.162109 38.75L21.478516 35.994141L39.800781 35.994141 A 0.99359934 0.99359934 0 0 0 40.728516 35.351562L47.929688 16.351562 A 0.99359934 0.99359934 0 0 0 47 15.005859L16.28125 15.005859L14.164062 6.4609375 A 0.99359934 0.99359934 0 0 0 14.154297 6.421875C13.782226 5.1460834 13.303977 4.0309594 12.40625 3.2148438C11.508523 2.398728 10.252975 2.0058594 8.6992188 2.0058594L2.0566406 2.0058594C2.0374086 2.0053056 2.0193597 2 2 2 z M 16.773438 16.994141L45.560547 16.994141L39.113281 34.005859L20.986328 34.005859L16.773438 16.994141 z M 26 44C27.190196 44 28 44.809804 28 46C28 47.190196 27.190196 48 26 48C24.809804 48 24 47.190196 24 46C24 44.809804 24.809804 44 26 44 z M 39 44C40.190196 44 41 44.809804 41 46C41 47.190196 40.190196 48 39 48C37.809804 48 37 47.190196 37 46C37 44.809804 37.809804 44 39 44 z" />
</svg>