<?xml version="1.0" encoding="utf-8"?>
<svg xmlns="http://www.w3.org/2000/svg" viewBox="0 0 50 50" width="515" height="515">
  <path d="M25 1C19.466667 1 15 5.4666667 15 11L15 13L8 13 A 1.0001 1.0001 0 0 0 7.0058594 13.886719L3.0058594 48.886719 A 1.0001 1.0001 0 0 0 4 50L46 50 A 1.0001 1.0001 0 0 0 46.994141 48.886719L42.994141 13.886719 A 1.0001 1.0001 0 0 0 42 13L35 13L35 11C35 5.4666667 30.533333 1 25 1 z M 25 3C29.466667 3 33 6.5333333 33 11L33 13L17 13L17 11C17 6.5333333 20.533333 3 25 3 z M 8.8925781 15L15 15L15 17.279297C14.405192 17.626887 14 18.265006 14 19C14 20.1 14.9 21 16 21C17.1 21 18 20.1 18 19C18 18.265006 17.594808 17.626887 17 17.279297L17 15L33 15L33 17.279297C32.405192 17.626887 32 18.265006 32 19C32 20.1 32.9 21 34 21C35.1 21 36 20.1 36 19C36 18.265006 35.594808 17.626887 35 17.279297L35 15L41.107422 15L44.878906 48L5.1210938 48L8.8925781 15 z" />
</svg>