<?xml version="1.0" encoding="utf-8"?>
<svg xmlns="http://www.w3.org/2000/svg" viewBox="0 0 50 50" width="515" height="515">
  <path d="M25 7C23.145038 7 21.654113 8.2878226 21.201172 10L3 10 A 1.0001 1.0001 0 1 0 3 12L21.201172 12C21.654113 13.712177 23.145038 15 25 15C26.854962 15 28.345887 13.712177 28.798828 12L47 12 A 1.0001 1.0001 0 1 0 47 10L28.798828 10C28.345887 8.2878226 26.854962 7 25 7 z M 25 9C26.177376 9 26.971073 9.7995296 26.988281 10.96875 A 1.0001 1.0001 0 0 0 26.988281 11.033203C26.970146 12.201282 26.176675 13 25 13C23.822624 13 23.028927 12.20047 23.011719 11.03125 A 1.0001 1.0001 0 0 0 23.011719 10.966797C23.029854 9.7987178 23.823325 9 25 9 z M 37 21C35.145038 21 33.654113 22.287823 33.201172 24L3 24 A 1.0001 1.0001 0 1 0 3 26L33.201172 26C33.654113 27.712177 35.145038 29 37 29C38.854962 29 40.345887 27.712177 40.798828 26L47 26 A 1.0001 1.0001 0 1 0 47 24L40.798828 24C40.345887 22.287823 38.854962 21 37 21 z M 37 23C38.177376 23 38.971073 23.79953 38.988281 24.96875 A 1.0001 1.0001 0 0 0 38.988281 25.033203C38.970146 26.201282 38.176675 27 37 27C35.822624 27 35.028927 26.20047 35.011719 25.03125 A 1.0001 1.0001 0 0 0 35.011719 24.966797C35.029854 23.798718 35.823325 23 37 23 z M 14 35C12.145038 35 10.654113 36.287823 10.201172 38L3 38 A 1.0001 1.0001 0 1 0 3 40L10.201172 40C10.654113 41.712177 12.145038 43 14 43C15.854962 43 17.345887 41.712177 17.798828 40L47 40 A 1.0001 1.0001 0 1 0 47 38L17.798828 38C17.345887 36.287823 15.854962 35 14 35 z M 14 37C15.177376 37 15.971073 37.79953 15.988281 38.96875 A 1.0001 1.0001 0 0 0 15.988281 39.033203C15.970146 40.201282 15.176675 41 14 41C12.822624 41 12.028927 40.20047 12.011719 39.03125 A 1.0001 1.0001 0 0 0 12.011719 38.966797C12.029854 37.798718 12.823325 37 14 37 z" />
</svg>