<?xml version="1.0" encoding="utf-8"?>
<svg xmlns="http://www.w3.org/2000/svg" viewBox="0 0 50 50" width="515" height="515">
  <path d="M7 8C4.253906 8 2 10.253906 2 13L2 37C2 39.746094 4.253906 42 7 42L11.09375 42C11.230469 43.203125 11.214844 44.316406 10.90625 45.25C10.527344 46.398438 9.820313 47.363281 8.5 48.15625C8.128906 48.390625 7.957031 48.839844 8.070313 49.261719C8.183594 49.683594 8.5625 49.984375 9 50C13.242188 50 18.105469 47.785156 20.5625 42L43 42C45.746094 42 48 39.746094 48 37L48 13C48 10.253906 45.746094 8 43 8 Z M 7 10L43 10C44.65625 10 46 11.34375 46 13L46 37C46 38.65625 44.65625 40 43 40L20 40C19.582031 40 19.207031 40.261719 19.0625 40.65625C17.507813 44.898438 14.730469 46.917969 11.84375 47.65625C12.234375 47.097656 12.605469 46.507813 12.8125 45.875C13.332031 44.296875 13.289063 42.570313 12.96875 40.8125C12.878906 40.347656 12.476563 40.007813 12 40L7 40C5.34375 40 4 38.65625 4 37L4 13C4 11.34375 5.34375 10 7 10 Z M 15 22C13.355469 22 12 23.355469 12 25C12 26.644531 13.355469 28 15 28C16.644531 28 18 26.644531 18 25C18 23.355469 16.644531 22 15 22 Z M 25 22C23.355469 22 22 23.355469 22 25C22 26.644531 23.355469 28 25 28C26.644531 28 28 26.644531 28 25C28 23.355469 26.644531 22 25 22 Z M 35 22C33.355469 22 32 23.355469 32 25C32 26.644531 33.355469 28 35 28C36.644531 28 38 26.644531 38 25C38 23.355469 36.644531 22 35 22 Z M 15 24C15.5625 24 16 24.4375 16 25C16 25.5625 15.5625 26 15 26C14.4375 26 14 25.5625 14 25C14 24.4375 14.4375 24 15 24 Z M 25 24C25.5625 24 26 24.4375 26 25C26 25.5625 25.5625 26 25 26C24.4375 26 24 25.5625 24 25C24 24.4375 24.4375 24 25 24 Z M 35 24C35.5625 24 36 24.4375 36 25C36 25.5625 35.5625 26 35 26C34.4375 26 34 25.5625 34 25C34 24.4375 34.4375 24 35 24Z" />
</svg>