<?xml version="1.0" encoding="utf-8"?>
<svg xmlns="http://www.w3.org/2000/svg" viewBox="0 0 50 50" width="515" height="515">
  <path d="M25 2 A 1.0001 1.0001 0 0 0 24.845703 2.015625C12.228918 2.1010104 2 12.362336 2 25C2 37.690521 12.310489 48 25 48C37.689511 48 48 37.690521 48 25C48 12.363661 37.773165 2.1031375 25.158203 2.015625 A 1.0001 1.0001 0 0 0 25 2 z M 25 4C26.343385 4 27.654848 4.13069 28.927734 4.3710938L25 6.8222656L21.072266 4.3710938C22.345152 4.13069 23.656615 4 25 4 z M 18.400391 5.0625L24.025391 8.5703125L24.025391 14.472656L15.355469 20.771484L9.6679688 18.9375L8.0878906 12.580078C10.640724 9.1080254 14.22091 6.4429428 18.400391 5.0625 z M 31.599609 5.0625C35.779974 6.4432348 39.36113 9.1088987 41.914062 12.582031L40.322266 18.990234L34.646484 20.771484L26.025391 14.509766L26.025391 8.5390625L31.599609 5.0625 z M 6.5976562 14.878906L7.7109375 19.359375L4.1738281 22.330078C4.5125171 19.655982 5.3526991 17.140282 6.5976562 14.878906 z M 43.404297 14.880859C44.658821 17.160307 45.500976 19.698608 45.833984 22.396484L42.279297 19.408203L43.404297 14.880859 z M 25 16.236328L33.287109 22.257812L30.123047 32L19.876953 32L16.712891 22.257812L25 16.236328 z M 9.0527344 20.841797L14.746094 22.673828L18.042969 32.828125L14.519531 37.681641L7.9375 37.21875C5.4843331 33.797342 4.0201531 29.618586 4.0019531 25.085938L9.0527344 20.841797 z M 40.935547 20.892578L45.996094 25.144531C45.965552 29.666654 44.497373 33.834489 42.042969 37.246094L35.447266 37.712891L31.958984 32.820312L35.253906 22.677734L40.935547 20.892578 z M 19.664062 34L30.345703 34L33.826172 38.882812L31.337891 45.025391C29.338047 45.656638 27.210066 46 25 46C22.779067 46 20.641206 45.65285 18.632812 45.015625L16.138672 38.855469L19.664062 34 z M 9.6855469 39.345703L14.3125 39.671875L16.056641 43.982422C13.64434 42.84507 11.48727 41.268506 9.6855469 39.345703 z M 40.289062 39.375C38.484795 41.293441 36.325323 42.865197 33.912109 43.998047L35.652344 39.703125L40.289062 39.375 z" />
</svg>