<?xml version="1.0" encoding="utf-8"?>
<svg xmlns="http://www.w3.org/2000/svg" viewBox="0 0 50 50" width="515" height="515">
  <path d="M26.609375 2C25.941406 2 25.304688 2.277344 24.855469 2.765625L12.5625 16L5 16C3.355469 16 2 17.355469 2 19L2 31C2 32.644531 3.355469 34 5 34L12.5625 34L24.855469 47.234375C25.304688 47.722656 25.941406 48 26.609375 48C27.917969 48 29 46.917969 29 45.609375L29 4.390625C29 3.082031 27.917969 2 26.609375 2 Z M 26.609375 4C26.835938 4 27 4.164063 27 4.390625L27 45.609375C27 45.835938 26.835938 46 26.609375 46C26.496094 46 26.394531 45.953125 26.320313 45.875L14 32.609375L14 17.390625L26.316406 4.125C26.394531 4.042969 26.496094 4 26.609375 4 Z M 39.695313 10.421875L38.574219 12.074219C43.007813 14.679688 46 19.492188 46 25C46 30.507813 43.007813 35.320313 38.574219 37.925781L39.695313 39.578125C44.660156 36.609375 48 31.195313 48 25C48 18.804688 44.660156 13.390625 39.695313 10.421875 Z M 36.324219 15.378906L35.191406 17.042969C38.046875 18.554688 40 21.550781 40 25C40 28.449219 38.046875 31.445313 35.191406 32.957031L36.324219 34.621094C39.707031 32.738281 42 29.136719 42 25C42 20.863281 39.707031 17.261719 36.324219 15.378906 Z M 5 18L12 18L12 32L5 32C4.441406 32 4 31.558594 4 31L4 19C4 18.441406 4.441406 18 5 18 Z M 32.921875 20.386719L31.753906 22.109375C33.042969 22.445313 34 23.605469 34 25C34 26.394531 33.042969 27.554688 31.753906 27.890625L32.921875 29.613281C34.726563 28.855469 36 27.074219 36 25C36 22.925781 34.726563 21.140625 32.921875 20.386719Z" />
</svg>