<?xml version="1.0" encoding="utf-8"?>
<svg xmlns="http://www.w3.org/2000/svg" viewBox="0 0 50 50" width="515" height="515">
  <path d="M25 4.0703125C12.368265 4.0703125 2.0703125 12.921644 2.0703125 24C2.0703125 30.432481 5.5907163 36.030749 11.003906 39.6875C10.995106 39.903125 11.010706 40.250912 10.728516 41.294922C10.378462 42.590119 9.6725023 44.413033 8.2382812 46.46875L7.21875 47.929688L9 47.929688C15.17102 47.929688 18.741544 43.907595 19.294922 43.261719C21.134317 43.693171 23.024914 43.929686 25 43.929688C37.631735 43.929688 47.929688 35.078356 47.929688 24C47.929688 12.921644 37.631735 4.0703125 25 4.0703125 z M 25 5.9296875C36.768265 5.9296875 46.070312 14.078356 46.070312 24C46.070312 33.921644 36.768265 42.070312 25 42.070312C22.959016 42.070312 21.040073 41.87506 19.236328 41.400391L18.654297 41.248047L18.277344 41.714844C18.277344 41.714844 15.390792 44.972581 10.78125 45.757812C11.617979 44.248964 12.233683 42.844161 12.521484 41.779297C12.921431 40.299494 12.929687 39.300781 12.929688 39.300781L12.929688 38.789062L12.5 38.515625C7.2214165 35.156526 3.9296875 29.955741 3.9296875 24C3.9296875 14.078356 13.231735 5.9296875 25 5.9296875 z" />
</svg>