<?xml version="1.0" encoding="utf-8"?>
<svg xmlns="http://www.w3.org/2000/svg" viewBox="0 0 50 50" width="515" height="515">
  <path d="M25 2C12.308594 2 2 12.308594 2 25C2 37.691406 12.308594 48 25 48C37.691406 48 48 37.691406 48 25C48 12.308594 37.691406 2 25 2 Z M 25 4C36.609375 4 46 13.390625 46 25C46 36.609375 36.609375 46 25 46C13.390625 46 4 36.609375 4 25C4 13.390625 13.390625 4 25 4 Z M 40.984375 23.984375C40.433594 23.996094 39.992188 24.449219 40 25C40 33.296875 33.296875 40 25 40C24.640625 39.996094 24.304688 40.183594 24.121094 40.496094C23.941406 40.808594 23.941406 41.191406 24.121094 41.503906C24.304688 41.816406 24.640625 42.003906 25 42C34.378906 42 42 34.378906 42 25C42.003906 24.730469 41.898438 24.46875 41.707031 24.277344C41.515625 24.085938 41.253906 23.980469 40.984375 23.984375Z" />
</svg>