<?xml version="1.0" encoding="utf-8"?>
<svg xmlns="http://www.w3.org/2000/svg" viewBox="0 0 50 50" width="515" height="515">
  <path d="M25 2C21.699219 2 19 4.699219 19 8C19 11.300781 21.699219 14 25 14C28.300781 14 31 11.300781 31 8C31 4.699219 28.300781 2 25 2 Z M 25 4C27.222656 4 29 5.777344 29 8C29 10.222656 27.222656 12 25 12C22.777344 12 21 10.222656 21 8C21 5.777344 22.777344 4 25 4 Z M 20.5 15C17.476563 15 15 17.476563 15 20.5L15 31.8125C14.996094 31.855469 14.996094 31.894531 15 31.9375L15 32C14.996094 32.09375 15.007813 32.191406 15.03125 32.28125C15.179688 33.792969 16.453125 35 18 35C18.351563 35 18.683594 34.925781 19 34.8125L19 44.5C19 46.421875 20.578125 48 22.5 48C23.476563 48 24.363281 47.589844 25 46.9375C25.636719 47.589844 26.523438 48 27.5 48C29.421875 48 31 46.421875 31 44.5L31 34.8125C31.316406 34.925781 31.648438 35 32 35C33.589844 35 34.914063 33.726563 35 32.15625C35.003906 32.105469 35.003906 32.050781 35 32C35 31.96875 35 31.9375 35 31.90625L35 20.5C35 17.476563 32.523438 15 29.5 15 Z M 20.5 17L29.5 17C31.441406 17 33 18.5625 33 20.5L33 31.84375C33 31.875 33 31.90625 33 31.9375L33 32C33 32.03125 33 32.0625 33 32.09375C32.953125 32.613281 32.53125 33 32 33C31.433594 33 31 32.566406 31 32L31 31.90625C31 31.875 31 31.84375 31 31.8125L31 23L29 23L29 31.8125C28.996094 31.855469 28.996094 31.894531 29 31.9375L29 44.5C29 45.339844 28.339844 46 27.5 46C26.710938 46 26.074219 45.421875 26 44.65625C25.996094 44.605469 26 44.550781 26 44.5L26 33L24 33L24 44.65625C23.925781 45.421875 23.289063 46 22.5 46C21.660156 46 21 45.339844 21 44.5L21 23L19 23L19 31.84375C19 31.875 19 31.90625 19 31.9375L19 32C19 32.566406 18.566406 33 18 33C17.457031 33 17.03125 32.597656 17 32.0625C17 32.042969 17 32.019531 17 32C17.007813 31.9375 17.007813 31.875 17 31.8125L17 20.5C17 18.5625 18.558594 17 20.5 17Z" />
</svg>