<?xml version="1.0" encoding="utf-8"?>
<svg xmlns="http://www.w3.org/2000/svg" viewBox="0 0 50 50" width="515" height="515">
  <path d="M24.90625 -0.03125C24.863281 -0.0234375 24.820313 -0.0117188 24.78125 0C24.316406 0.105469 23.988281 0.523438 24 1L24 4L0 4L0 38L24 38L24 39.5625L15.28125 48.28125C14.882813 48.679688 14.882813 49.320313 15.28125 49.71875C15.679688 50.117188 16.320313 50.117188 16.71875 49.71875L24 42.4375L24 45C23.996094 45.359375 24.183594 45.695313 24.496094 45.878906C24.808594 46.058594 25.191406 46.058594 25.503906 45.878906C25.816406 45.695313 26.003906 45.359375 26 45L26 42.4375L33.28125 49.71875C33.679688 50.117188 34.320313 50.117188 34.71875 49.71875C35.117188 49.320313 35.117188 48.679688 34.71875 48.28125L26 39.59375L26 38L50 38L50 4L26 4L26 1C26.011719 0.710938 25.894531 0.433594 25.6875 0.238281C25.476563 0.0390625 25.191406 -0.0585938 24.90625 -0.03125 Z M 2 6L48 6L48 36L25.1875 36C25.054688 35.972656 24.914063 35.972656 24.78125 36L2 36 Z M 41 14C39.894531 14 39 14.894531 39 16C39 16.085938 39.019531 16.167969 39.03125 16.25L28.78125 24.15625C28.542969 24.054688 28.277344 24 28 24C27.722656 24 27.457031 24.054688 27.21875 24.15625L27.1875 24.15625L19 18.1875C19.003906 18.125 19 18.0625 19 18C19 16.894531 18.105469 16 17 16C15.894531 16 15 16.894531 15 18C15 18.074219 15.023438 18.144531 15.03125 18.21875L9.78125 22.15625C9.542969 22.054688 9.277344 22 9 22C7.894531 22 7 22.894531 7 24C7 25.105469 7.894531 26 9 26C10.105469 26 11 25.105469 11 24C11 23.925781 10.976563 23.855469 10.96875 23.78125L16.21875 19.84375C16.457031 19.945313 16.722656 20 17 20C17.277344 20 17.542969 19.945313 17.78125 19.84375L17.8125 19.84375L26 25.8125C25.996094 25.875 26 25.9375 26 26C26 27.105469 26.894531 28 28 28C29.105469 28 30 27.105469 30 26C30 25.914063 29.980469 25.832031 29.96875 25.75L40.21875 17.84375L40.25 17.84375C40.480469 17.9375 40.734375 18 41 18C42.105469 18 43 17.105469 43 16C43 14.894531 42.105469 14 41 14Z" />
</svg>