<?xml version="1.0" encoding="utf-8"?>
<svg xmlns="http://www.w3.org/2000/svg" viewBox="0 0 50 50" width="515" height="515">
  <path d="M8 0 A 2 2 0 0 0 6.2011719 1.1269531C5.7862814 1.2126438 5.234587 1.3491647 4.65625 1.5605469C4.0925211 1.7665898 3.5040787 2.0363261 2.9882812 2.4628906C2.4724839 2.8894551 2 3.5621244 2 4.3847656C2 4.7428479 2.05524 5.1630116 2.1542969 5.828125C2.2533539 6.4932384 2.4003002 7.3466831 2.5976562 8.3359375C2.9923684 10.314446 3.5881955 12.833941 4.3964844 15.435547C5.9883274 20.559147 8.271426 26.041655 12.011719 28.318359C12.00657 28.408122 12 28.497137 12 28.589844C12 29.785863 12.368668 31.204122 12.980469 32.457031C13.286369 33.083486 13.652262 33.663257 14.126953 34.134766C14.358163 34.364426 14.735656 34.400524 15.039062 34.556641C15.060852 37.188419 15.261161 40.582047 17.160156 43.523438C19.181626 46.65453 23.115545 49 30 49C36.265611 49 39.927012 46.40201 41.837891 43.458984C43.414805 41.030311 43.845156 38.514118 43.953125 36.925781C47.35669 36.456516 50 33.528964 50 30C50 26.146736 46.852226 23 43 23C39.146101 23 36 26.147138 36 30C36 33.494401 38.590516 36.400155 41.947266 36.912109C41.829164 38.273792 41.424025 40.42561 40.162109 42.369141C38.572988 44.816615 35.734389 47 30 47C23.551455 47 20.485124 44.985906 18.839844 42.4375C17.295781 40.045871 17.064081 37.035333 17.037109 34.521484C17.309824 34.370209 17.661184 34.345235 17.873047 34.134766C18.347635 33.663297 18.713575 33.083455 19.019531 32.457031C19.631443 31.204183 20 29.786036 20 28.589844C20 28.491834 19.941287 28.422866 19.935547 28.328125C23.70233 26.068009 26.005361 20.57946 27.603516 15.435547C28.411804 12.833941 29.007632 10.314446 29.402344 8.3359375C29.599697 7.3466831 29.746646 6.4932384 29.845703 5.828125C29.94476 5.1630116 30 4.7428479 30 4.3847656C30 3.5621244 29.527516 2.8894551 29.011719 2.4628906C28.495921 2.0363261 27.907479 1.7665898 27.34375 1.5605469C26.763851 1.3485939 26.212062 1.2125843 25.796875 1.1269531 A 2 2 0 0 0 24 0 A 2 2 0 0 0 24 4 A 2 2 0 0 0 25.636719 3.1445312C25.943776 3.2159551 26.297123 3.3081922 26.65625 3.4394531C27.092521 3.5989102 27.504079 3.8102207 27.738281 4.0039062C27.972488 4.1975918 28 4.2844068 28 4.3847656C28 4.4236836 27.96038 4.9074923 27.867188 5.5332031C27.773998 6.158914 27.630956 6.9834419 27.439453 7.9433594C27.056446 9.8631943 26.4774 12.324528 25.695312 14.841797C24.162433 19.775615 21.711458 24.833877 18.982422 26.548828C18.773092 26.408716 18.599514 26.181795 18.386719 26.123047C17.516007 25.882664 16.75564 26.026888 16 26.027344C15.244181 26.027344 14.481895 25.882852 13.611328 26.123047C13.366032 26.190726 13.109395 26.320235 12.875 26.496094C10.201409 24.69892 7.8117826 19.692622 6.3046875 14.841797C5.5226013 12.324528 4.9435535 9.8631943 4.5605469 7.9433594C4.3690435 6.9834419 4.2260014 6.158914 4.1328125 5.5332031C4.0396236 4.9074923 4 4.4236833 4 4.3847656C4 4.2844068 4.0275162 4.1975918 4.2617188 4.0039062C4.4959213 3.8102207 4.9074789 3.5989102 5.34375 3.4394531C5.702176 3.3084484 6.0546389 3.2159243 6.3613281 3.1445312 A 2 2 0 0 0 8 4 A 2 2 0 0 0 8 0 z M 43 25C45.769774 25 48 27.229264 48 30C48 32.731078 45.831751 34.931579 43.117188 34.994141 A 1.0001 1.0001 0 0 0 42.875 34.994141C40.161738 34.927766 38 32.728997 38 30C38 27.228862 40.227899 25 43 25 z M 43 27 A 3 3 0 0 0 43 33 A 3 3 0 0 0 43 27 z M 17.185547 28.015625C17.509864 28.014132 17.74795 28.021096 17.855469 28.050781C17.962988 28.080461 17.913315 28.058886 17.921875 28.072266C17.930475 28.085616 18 28.22456 18 28.589844C18 29.321651 17.696495 30.609926 17.222656 31.580078C16.985737 32.065154 16.706146 32.47514 16.462891 32.716797C16.229845 32.94831 16.088233 32.98464 16.019531 32.988281 A 1.0001 1.0001 0 0 0 15.978516 32.986328C15.908906 32.982228 15.768943 32.947078 15.537109 32.716797C15.293849 32.47523 15.014193 32.065123 14.777344 31.580078C14.303644 30.609987 14 29.321824 14 28.589844C14 28.224474 14.069665 28.085458 14.078125 28.072266C14.086625 28.059076 14.037061 28.080461 14.144531 28.050781C14.359464 27.991481 15.097819 28.027344 16 28.027344C16.45068 28.027072 16.861229 28.017118 17.185547 28.015625 z" />
</svg>