<?xml version="1.0" encoding="utf-8"?>
<svg xmlns="http://www.w3.org/2000/svg" viewBox="0 0 50 50" width="515" height="515">
  <path d="M16.5 0C13.472656 0 11 2.472656 11 5.5C11 8.527344 13.472656 11 16.5 11C19.527344 11 22 8.527344 22 5.5C22 2.472656 19.527344 0 16.5 0 Z M 16.5 2C18.445313 2 20 3.554688 20 5.5C20 7.445313 18.445313 9 16.5 9C14.554688 9 13 7.445313 13 5.5C13 3.554688 14.554688 2 16.5 2 Z M 6.15625 9.78125C5.003906 9.742188 3.941406 10.550781 3.5625 11.6875C3.550781 11.699219 3.542969 11.707031 3.53125 11.71875L0.28125 22.65625L0.25 22.65625C0.242188 22.675781 0.257813 22.699219 0.25 22.71875C-0.0078125 23.476563 0.00390625 24.289063 0.3125 24.96875C0.628906 25.65625 1.261719 26.203125 2.0625 26.375C2.070313 26.378906 2.082031 26.371094 2.09375 26.375L6.375 27.375C6.75 27.457031 7.113281 27.453125 7.46875 27.375C7.558594 28.054688 7.804688 28.671875 8.0625 29.21875C8.050781 29.230469 8.042969 29.238281 8.03125 29.25L5.90625 37.21875C5.808594 37.359375 2.0625 42.753906 0.96875 44.34375C0.53125 44.996094 0.078125 45.738281 -0.03125 46.65625C-0.140625 47.574219 0.269531 48.65625 1.1875 49.375C1.1875 49.386719 1.1875 49.394531 1.1875 49.40625C2.253906 50.207031 3.582031 50.09375 4.40625 49.59375C5.230469 49.09375 5.785156 48.382813 6.15625 47.96875C6.59375 47.464844 7.503906 46.261719 8.46875 44.96875C9.414063 43.707031 10.328125 42.421875 10.75 41.84375C10.757813 41.832031 10.765625 41.796875 10.78125 41.78125C11.386719 41.058594 11.773438 40.394531 12 39.75C12.007813 39.730469 12.023438 39.707031 12.03125 39.6875C12.039063 39.667969 12.054688 39.644531 12.0625 39.625C12.144531 39.445313 12.210938 39.269531 12.3125 39C12.433594 38.675781 12.566406 38.265625 12.71875 37.84375C12.820313 37.558594 12.898438 37.347656 13 37.0625C13.609375 38.007813 13.722656 38.207031 14.375 39.21875C16.890625 43.109375 19.371094 46.941406 20.09375 47.90625C20.738281 48.769531 21.425781 49.496094 22.34375 49.875C23.261719 50.253906 24.351563 50.136719 25.375 49.59375C25.386719 49.582031 25.394531 49.574219 25.40625 49.5625C26.40625 48.992188 26.902344 47.941406 26.9375 46.96875C26.972656 45.996094 26.644531 45.074219 26.15625 44.28125C25.367188 43 16.777344 29.085938 16.375 28.4375L17.40625 24.40625C17.535156 24.609375 17.632813 24.71875 17.71875 24.875C17.746094 24.917969 17.777344 24.960938 17.8125 25C18.132813 25.429688 18.570313 25.835938 19.375 26.25C19.402344 26.265625 19.410156 26.265625 19.4375 26.28125C20.347656 26.847656 22.433594 27.984375 23.65625 28.59375C23.667969 28.605469 23.675781 28.613281 23.6875 28.625C24.335938 28.921875 25.089844 29.140625 25.875 29.125C26.660156 29.109375 27.570313 28.726563 28.0625 27.90625C28.085938 27.875 28.105469 27.84375 28.125 27.8125C28.503906 26.976563 28.40625 26.101563 28.09375 25.40625C27.789063 24.722656 27.292969 24.183594 26.59375 23.90625C26.585938 23.902344 26.601563 23.878906 26.59375 23.875C26.589844 23.875 26.566406 23.875 26.5625 23.875C26.273438 23.742188 25.003906 23.015625 23.90625 22.375C22.964844 21.824219 22.363281 21.484375 22.125 21.34375C22 21.078125 20.054688 16.992188 19 14.59375L19.03125 14.59375C18.503906 13.382813 17.988281 12.542969 17.28125 11.9375C16.574219 11.332031 15.695313 11.09375 14.8125 11.09375L12.59375 11.09375C12.054688 11.09375 11.597656 11.28125 11.25 11.53125C10.941406 11.214844 10.566406 10.964844 10.09375 10.84375L10.03125 10.8125L6.6875 9.84375C6.675781 9.84375 6.667969 9.84375 6.65625 9.84375C6.488281 9.800781 6.320313 9.785156 6.15625 9.78125 Z M 6.15625 11.75L9.53125 12.75C9.550781 12.761719 9.574219 12.773438 9.59375 12.78125C9.882813 12.84375 10.121094 13.285156 10.03125 13.6875C9.960938 13.878906 9.949219 14.085938 10 14.28125C9.640625 15.894531 9.222656 17.824219 8.75 19.9375C8.316406 21.875 7.984375 23.410156 7.75 24.5C7.746094 24.511719 7.722656 24.519531 7.71875 24.53125C7.671875 24.621094 7.640625 24.714844 7.625 24.8125C7.523438 25.320313 7.160156 25.515625 6.8125 25.4375L2.53125 24.4375C2.519531 24.425781 2.511719 24.417969 2.5 24.40625C2.3125 24.367188 2.207031 24.304688 2.125 24.125C2.042969 23.945313 2.007813 23.667969 2.125 23.34375C2.136719 23.324219 2.148438 23.300781 2.15625 23.28125L5.46875 12.28125C5.636719 11.839844 5.902344 11.71875 6.15625 11.78125 Z M 40 12C37.25 12 35 14.25 35 17C35 19.75 37.25 22 40 22C42.75 22 45 19.75 45 17C45 14.25 42.75 12 40 12 Z M 12.59375 13.09375L14.8125 13.09375C15.429688 13.09375 15.683594 13.167969 16 13.4375C16.316406 13.707031 16.714844 14.316406 17.1875 15.40625C18.296875 17.929688 20.40625 22.4375 20.40625 22.4375C20.492188 22.605469 20.621094 22.746094 20.78125 22.84375C20.78125 22.84375 21.789063 23.472656 22.90625 24.125C24.023438 24.777344 25.15625 25.441406 25.78125 25.71875C25.800781 25.730469 25.824219 25.742188 25.84375 25.75C25.921875 25.78125 26.167969 25.964844 26.28125 26.21875C26.382813 26.441406 26.359375 26.675781 26.28125 26.90625C26.1875 27.035156 26.109375 27.117188 25.8125 27.125C25.492188 27.132813 24.996094 27 24.5625 26.8125C24.546875 26.804688 24.519531 26.789063 24.5 26.78125C23.324219 26.191406 21.136719 25 20.4375 24.5625C20.40625 24.539063 20.375 24.519531 20.34375 24.5C19.601563 24.128906 19.675781 24.167969 19.40625 23.8125C18.820313 22.789063 17.8125 21.40625 17.8125 21.40625C17.585938 21.089844 17.195313 20.9375 16.8125 21.007813C16.429688 21.082031 16.125 21.371094 16.03125 21.75L14.34375 28.34375C14.265625 28.605469 14.300781 28.886719 14.4375 29.125C14.4375 29.125 23.644531 44.023438 24.4375 45.3125C24.75 45.820313 24.953125 46.453125 24.9375 46.90625C24.921875 47.34375 24.800781 47.589844 24.4375 47.8125C23.761719 48.171875 23.453125 48.148438 23.09375 48C22.734375 47.851563 22.242188 47.425781 21.6875 46.6875C21.210938 46.054688 18.574219 42.011719 16.0625 38.125C13.550781 34.238281 11.09375 30.414063 10.75 29.875C10.738281 29.863281 10.730469 29.855469 10.71875 29.84375C9.90625 28.621094 9.148438 27.597656 9.46875 26C9.480469 25.988281 9.488281 25.980469 9.5 25.96875C9.578125 25.503906 10.101563 23.011719 10.6875 20.375C11.269531 17.765625 11.898438 14.933594 12.25 13.375C12.25 13.375 12.277344 13.351563 12.28125 13.34375C12.28125 13.335938 12.28125 13.320313 12.28125 13.3125C12.296875 13.285156 12.296875 13.273438 12.34375 13.21875C12.417969 13.128906 12.425781 13.09375 12.59375 13.09375 Z M 40 14C41.667969 14 43 15.332031 43 17C43 18.667969 41.667969 20 40 20C38.332031 20 37 18.667969 37 17C37 15.332031 38.332031 14 40 14 Z M 32.875 20.90625C32.457031 20.9375 32.070313 21.019531 31.71875 21.21875C31.019531 21.621094 30.582031 22.28125 30.28125 23C30.269531 23.019531 30.257813 23.042969 30.25 23.0625C29.800781 24.292969 28.824219 27.707031 28.34375 29.15625C28.339844 29.164063 28.347656 29.179688 28.34375 29.1875C27.996094 30.1875 27.976563 31.152344 28.375 31.90625C28.777344 32.667969 29.535156 33.054688 30.25 33.25C30.261719 33.261719 30.269531 33.269531 30.28125 33.28125C31.082031 33.460938 31.660156 33.726563 32.25 33.875C32.789063 34.019531 33.316406 34.015625 33.78125 33.90625C33.839844 34.082031 33.929688 34.242188 34 34.40625L32.375 40.375C32.246094 40.566406 29.667969 44.339844 28.875 45.53125C28.535156 46.039063 28.175781 46.632813 28.09375 47.375C28.015625 48.113281 28.367188 48.996094 29.0625 49.5625L29.09375 49.5625C29.5 49.886719 29.992188 50.117188 30.46875 50.125C30.957031 50.132813 31.359375 49.976563 31.6875 49.78125C32.339844 49.390625 32.757813 48.835938 33 48.59375C33.023438 48.574219 33.042969 48.554688 33.0625 48.53125C33.394531 48.132813 34.019531 47.261719 34.71875 46.3125C35.417969 45.363281 36.167969 44.371094 36.4375 44.0625C36.449219 44.050781 36.457031 44.042969 36.46875 44.03125C36.96875 43.402344 37.234375 42.777344 37.40625 42.4375C37.417969 42.398438 37.429688 42.355469 37.4375 42.3125C37.421875 42.363281 37.523438 42.160156 37.625 41.9375C37.726563 41.714844 37.832031 41.425781 37.96875 41.125C37.996094 41.070313 38.003906 41.027344 38.03125 40.96875C38.316406 41.414063 38.363281 41.480469 38.65625 41.9375C40.496094 44.800781 42.273438 47.582031 42.78125 48.28125C42.789063 48.300781 42.800781 48.324219 42.8125 48.34375C43.296875 48.9375 43.800781 49.464844 44.53125 49.78125C45.261719 50.097656 46.210938 50.023438 47 49.5625C47.785156 49.089844 48.210938 48.242188 48.25 47.46875C48.289063 46.707031 48.023438 45.984375 47.625 45.375C47.625 45.371094 47.625 45.347656 47.625 45.34375C46.972656 44.257813 41.019531 34.566406 40.59375 33.875L40.96875 32.5625C41.125 32.796875 41.355469 33.003906 41.5625 33.15625C41.769531 33.308594 41.945313 33.417969 42.1875 33.5625C42.207031 33.574219 42.230469 33.585938 42.25 33.59375C42.847656 33.890625 45.167969 35.058594 46.15625 35.5C46.164063 35.503906 46.179688 35.496094 46.1875 35.5C46.699219 35.753906 47.253906 35.925781 47.875 35.90625C48.480469 35.886719 49.191406 35.59375 49.59375 34.96875L49.625 34.96875C49.636719 34.949219 49.613281 34.925781 49.625 34.90625L49.65625 34.90625C50.085938 34.246094 50.042969 33.433594 49.78125 32.875C49.511719 32.296875 49.101563 31.863281 48.5625 31.59375C48.542969 31.59375 48.519531 31.59375 48.5 31.59375C48.265625 31.492188 47.101563 30.917969 46.09375 30.40625C45.234375 29.972656 44.652344 29.671875 44.4375 29.5625C44.257813 29.195313 42.953125 26.433594 42.21875 24.78125L42.1875 24.78125C41.820313 23.855469 41.472656 23.144531 40.90625 22.65625C40.324219 22.152344 39.578125 22 38.90625 22L37.3125 22C37.101563 22 36.898438 22.058594 36.71875 22.125C36.40625 21.824219 36.050781 21.578125 35.625 21.4375C35.59375 21.4375 35.5625 21.4375 35.53125 21.4375C35.53125 21.4375 35.175781 21.328125 34.1875 21.03125C33.75 20.90625 33.292969 20.875 32.875 20.90625 Z M 33.03125 22.875C33.171875 22.867188 33.363281 22.894531 33.625 22.96875C34.570313 23.253906 34.914063 23.328125 34.96875 23.34375C35.203125 23.421875 35.351563 23.53125 35.4375 23.625C35.1875 24.722656 34.75 26.511719 34.375 28.15625C34.03125 29.675781 33.761719 30.855469 33.65625 31.53125C33.582031 31.703125 33.507813 31.847656 33.4375 31.90625C33.339844 31.988281 33.273438 32.078125 32.75 31.9375C32.539063 31.886719 31.71875 31.535156 30.71875 31.3125C30.382813 31.210938 30.222656 31.097656 30.15625 30.96875C30.082031 30.832031 30.007813 30.53125 30.25 29.84375C30.25 29.832031 30.25 29.824219 30.25 29.8125C30.769531 28.257813 31.769531 24.761719 32.125 23.78125C32.125 23.777344 32.125 23.753906 32.125 23.75C32.320313 23.292969 32.550781 23.066406 32.71875 22.96875C32.804688 22.917969 32.890625 22.882813 33.03125 22.875 Z M 37.53125 24L38.90625 24C39.335938 24 39.425781 24.039063 39.59375 24.1875C39.761719 24.335938 40.050781 24.730469 40.375 25.5625C40.375 25.574219 40.375 25.582031 40.375 25.59375C41.191406 27.429688 42.8125 30.75 42.8125 30.75C42.910156 30.9375 43.0625 31.089844 43.25 31.1875C43.25 31.1875 44.171875 31.671875 45.1875 32.1875C46.179688 32.6875 47.175781 33.164063 47.65625 33.375L47.65625 33.40625C47.71875 33.4375 47.914063 33.597656 47.96875 33.71875C48.023438 33.839844 48.023438 33.78125 48 33.8125C47.976563 33.84375 47.957031 33.875 47.9375 33.90625C47.925781 33.925781 47.980469 33.902344 47.8125 33.90625C47.644531 33.910156 47.34375 33.859375 47.0625 33.71875C47.042969 33.707031 47.019531 33.695313 47 33.6875C46.1875 33.328125 43.867188 32.167969 43.21875 31.84375C43.207031 31.839844 43.167969 31.816406 43.15625 31.8125C42.949219 31.6875 42.777344 31.574219 42.71875 31.53125C42.652344 31.480469 42.667969 31.503906 42.625 31.4375C42.195313 30.792969 41.40625 29.71875 41.40625 29.71875C41.183594 29.421875 40.8125 29.269531 40.445313 29.328125C40.078125 29.386719 39.773438 29.648438 39.65625 30L38.53125 33.71875C38.453125 33.996094 38.5 34.289063 38.65625 34.53125C38.65625 34.53125 45.378906 45.472656 45.9375 46.40625C45.945313 46.425781 45.957031 46.449219 45.96875 46.46875C46.160156 46.753906 46.261719 47.125 46.25 47.375C46.238281 47.625 46.214844 47.714844 46 47.84375C45.589844 48.082031 45.539063 48.050781 45.34375 47.96875C45.148438 47.886719 44.789063 47.570313 44.375 47.0625C44.054688 46.617188 42.164063 43.679688 40.34375 40.84375C38.507813 37.984375 36.664063 35.144531 36.4375 34.78125C36.4375 34.769531 36.4375 34.761719 36.4375 34.75C35.875 33.90625 35.390625 33.167969 35.53125 32.25C35.539063 32.226563 35.554688 32.210938 35.5625 32.1875C35.566406 32.167969 35.558594 32.148438 35.5625 32.125C35.574219 32.09375 35.585938 32.0625 35.59375 32.03125C35.609375 31.980469 35.644531 31.921875 35.65625 31.875C35.71875 31.714844 35.742188 31.542969 35.71875 31.375C35.820313 30.832031 36.007813 29.925781 36.3125 28.59375C36.605469 27.308594 36.90625 26.105469 37.15625 25.03125C37.324219 24.875 37.4375 24.664063 37.46875 24.4375C37.503906 24.292969 37.523438 24.144531 37.53125 24 Z M 9.46875 31.59375C9.742188 32.019531 10.855469 33.742188 11.625 34.9375C11.421875 35.503906 11.128906 36.386719 10.84375 37.1875C10.695313 37.605469 10.554688 37.972656 10.4375 38.28125C10.320313 38.589844 10.210938 38.863281 10.21875 38.84375C10.195313 38.882813 10.175781 38.925781 10.15625 38.96875C9.988281 39.472656 9.773438 39.953125 9.25 40.5625C9.226563 40.582031 9.207031 40.601563 9.1875 40.625C8.792969 41.167969 7.835938 42.464844 6.875 43.75C5.921875 45.023438 4.925781 46.316406 4.65625 46.625C4.226563 47.109375 3.75 47.648438 3.375 47.875C3 48.101563 2.941406 48.210938 2.40625 47.8125C1.921875 47.433594 1.925781 47.261719 1.96875 46.90625C2.011719 46.550781 2.261719 46.015625 2.625 45.46875C3.71875 43.878906 7.625 38.28125 7.625 38.28125C7.695313 38.1875 7.746094 38.082031 7.78125 37.96875 Z M 35.40625 36.84375C35.660156 37.242188 36.25 38.1875 36.75 38.96875C36.59375 39.316406 36.386719 39.777344 36.15625 40.28125C36.019531 40.582031 35.886719 40.886719 35.78125 41.125C35.699219 41.3125 35.648438 41.421875 35.59375 41.5625C35.371094 42.007813 35.21875 42.386719 34.9375 42.75C34.929688 42.761719 34.914063 42.769531 34.90625 42.78125C34.476563 43.277344 33.816406 44.1875 33.125 45.125C32.445313 46.046875 31.792969 46.941406 31.59375 47.1875C31.585938 47.195313 31.535156 47.242188 31.53125 47.25C31.199219 47.585938 30.894531 47.9375 30.6875 48.0625C30.578125 48.128906 30.511719 48.125 30.5 48.125C30.488281 48.125 30.484375 48.144531 30.34375 48.03125C30.332031 48.03125 30.324219 48.03125 30.3125 48.03125C30.023438 47.800781 30.074219 47.773438 30.09375 47.59375C30.113281 47.414063 30.269531 47.050781 30.53125 46.65625C31.316406 45.476563 34.125 41.375 34.125 41.375C34.183594 41.277344 34.226563 41.171875 34.25 41.0625Z" />
</svg>