<?xml version="1.0" encoding="utf-8"?>
<svg xmlns="http://www.w3.org/2000/svg" viewBox="0 0 50 50" width="515" height="515">
  <path d="M36.888672 1.9902344 A 1.0001 1.0001 0 0 0 36.193359 3.7070312L37.291016 4.8046875L30.496094 11.681641L26.607422 7.7929688 A 1.0001 1.0001 0 0 0 25.888672 7.4902344 A 1.0001 1.0001 0 0 0 25.193359 9.2070312L27.236328 11.25L7.6933594 30.792969 A 1.0001 1.0001 0 0 0 7.4316406 31.751953L9.0878906 38.111328L2.9003906 44.300781L2.9003906 48L10.982422 40.009766L17.347656 41.667969 A 1.0001 1.0001 0 0 0 18.308594 41.40625L37.802734 21.816406L39.892578 23.90625 A 1.0001 1.0001 0 1 0 41.306641 22.492188L38.648438 19.833984 A 1.0001 1.0001 0 0 0 38.369141 19.554688L37.410156 18.595703L44.205078 11.71875L45.392578 12.90625 A 1.0001 1.0001 0 1 0 46.806641 11.492188L37.607422 2.2929688 A 1.0001 1.0001 0 0 0 36.888672 1.9902344 z M 38.705078 6.21875L42.791016 10.304688L35.996094 17.181641L31.910156 13.095703L38.705078 6.21875 z M 28.650391 12.664062L36.388672 20.402344L17.296875 39.587891L11.119141 37.980469L9.5117188 31.802734L10.75 30.564453 A 1.0001 1.0001 0 0 0 10.792969 30.607422L14.193359 34.007812 A 1.0001 1.0001 0 1 0 15.607422 32.59375L12.207031 29.193359 A 1.0001 1.0001 0 0 0 12.162109 29.152344L14.400391 26.914062L15.992188 28.507812 A 1.0001 1.0001 0 1 0 17.40625 27.09375L15.814453 25.5L18.050781 23.263672 A 1.0001 1.0001 0 0 0 18.09375 23.306641L21.492188 26.707031 A 1.0001 1.0001 0 1 0 22.90625 25.292969L19.507812 21.892578 A 1.0001 1.0001 0 0 0 19.462891 21.851562L21.75 19.564453 A 1.0001 1.0001 0 0 0 21.792969 19.607422L23.292969 21.107422 A 1.0001 1.0001 0 1 0 24.707031 19.693359L23.207031 18.193359 A 1.0001 1.0001 0 0 0 23.162109 18.152344L25.451172 15.863281 A 1.0001 1.0001 0 0 0 25.492188 15.90625L28.892578 19.306641 A 1.0001 1.0001 0 1 0 30.306641 17.892578L26.90625 14.492188 A 1.0001 1.0001 0 0 0 26.863281 14.451172L28.650391 12.664062 z" />
</svg>