<?xml version="1.0" encoding="utf-8"?>
<svg xmlns="http://www.w3.org/2000/svg" viewBox="0 0 50 50" width="515" height="515">
  <path d="M25.132812 1.9921875C24.839804 1.9935629 24.541855 2.0055014 24.234375 2.0449219C23.619415 2.1237629 22.927773 2.3573835 22.392578 2.8925781L2.7929688 22.492188C1.7608478 23.524307 1.7608478 25.17491 2.7929688 26.207031L8.7929688 32.207031L23.792969 47.207031C24.82509 48.239152 26.475692 48.239152 27.507812 47.207031L47.107422 27.607422C47.623482 27.091361 47.82238 26.435444 47.914062 25.824219C48.005747 25.212994 48 24.6 48 24L48 11.199219C48 9.443663 46.556337 8 44.800781 8L42 8L42 5.1992188C42 3.4436631 40.606451 2 38.900391 2L26 2C25.713889 2 25.425821 1.9908121 25.132812 1.9921875 z M 25.144531 3.9980469C25.398496 3.9964925 25.686111 4 26 4L38.900391 4C39.39433 4 40 4.5547743 40 5.1992188L40 8L36.203125 8C36.171535 7.9657423 36.129088 7.914244 36.107422 7.8925781C35.530645 7.3158014 34.765165 7.0273436 34 7.0273438C33.234835 7.0273438 32.469355 7.3158014 31.892578 7.8925781C31.871328 7.9138287 31.829662 7.9646708 31.798828 7.9980469C31.329346 7.9928845 30.821592 7.9766465 30.275391 8.0449219C29.653264 8.1226879 28.944609 8.3405476 28.392578 8.8925781L8.7929688 28.492188C8.6391079 28.646048 8.5161911 28.816889 8.4082031 28.994141L4.2070312 24.792969C4.0391521 24.62509 4.0391521 24.074129 4.2070312 23.90625L23.806641 4.3066406C23.971446 4.1418353 24.130195 4.0754558 24.490234 4.0292969C24.670254 4.0062174 24.890567 3.9996012 25.144531 3.9980469 z M 31.107422 10L32 10L37.318359 10L44.800781 10C45.445226 10 46 10.554774 46 11.199219L46 24C46 24.6 45.993897 25.138569 45.935547 25.527344C45.877227 25.916119 45.777299 26.10942 45.693359 26.193359L26.09375 45.792969C25.925871 45.960848 25.37491 45.960848 25.207031 45.792969L10.207031 30.792969C10.123092 30.709029 10.082031 30.529319 10.082031 30.349609C10.082031 30.259754 10.092296 30.169681 10.113281 30.091797C10.134266 30.013913 10.165062 29.94822 10.207031 29.90625L29.806641 10.306641C29.95461 10.158671 30.145564 10.076531 30.523438 10.029297C30.690081 10.008466 30.892865 10.002609 31.107422 10 z M 40 13.027344C39.234835 13.027344 38.469355 13.315801 37.892578 13.892578C36.739025 15.046132 36.739025 16.953868 37.892578 18.107422C39.046132 19.260975 40.953868 19.260975 42.107422 18.107422C43.260975 16.953868 43.260975 15.046132 42.107422 13.892578C41.530645 13.315801 40.765165 13.027344 40 13.027344 z M 40 14.972656C40.234835 14.972656 40.470136 15.083417 40.693359 15.306641C41.139806 15.753087 41.139806 16.246913 40.693359 16.693359C40.246913 17.139806 39.753087 17.139806 39.306641 16.693359C38.860194 16.246913 38.860194 15.753087 39.306641 15.306641C39.529864 15.083417 39.765165 14.972656 40 14.972656 z" />
</svg>