<?xml version="1.0" encoding="utf-8"?>
<svg xmlns="http://www.w3.org/2000/svg" viewBox="0 0 50 50" width="515" height="515">
  <path d="M10.984375 5.9863281 A 1.0001 1.0001 0 0 0 10.839844 6L3 6 A 1.0001 1.0001 0 0 0 2 7L2 15 A 1.0001 1.0001 0 0 0 3 16L10.832031 16 A 1.0001 1.0001 0 0 0 11.158203 16L47 16 A 1.0001 1.0001 0 0 0 48 15L48 7 A 1.0001 1.0001 0 0 0 47 6L11.154297 6 A 1.0001 1.0001 0 0 0 10.984375 5.9863281 z M 5 8L9 8 A 1 1 0 0 0 10 9L10 13 A 1 1 0 0 0 9 14L5 14 A 1 1 0 0 0 4 13L4 9 A 1 1 0 0 0 5 8 z M 12 8L46 8L46 14L12 14L12 8 z M 7 10 A 1 1 0 0 0 7 12 A 1 1 0 0 0 7 10 z M 34.984375 19.986328 A 1.0001 1.0001 0 0 0 34.839844 20L3 20 A 1.0001 1.0001 0 0 0 2 21L2 29 A 1.0001 1.0001 0 0 0 3 30L34.832031 30 A 1.0001 1.0001 0 0 0 35.158203 30L47 30 A 1.0001 1.0001 0 0 0 48 29L48 21 A 1.0001 1.0001 0 0 0 47 20L35.154297 20 A 1.0001 1.0001 0 0 0 34.984375 19.986328 z M 5 22L9 22 A 1 1 0 0 0 10 23 A 1 1 0 0 0 11 22L15 22 A 1 1 0 0 0 16 23 A 1 1 0 0 0 17 22L21 22 A 1 1 0 0 0 22 23 A 1 1 0 0 0 23 22L27 22 A 1 1 0 0 0 28 23 A 1 1 0 0 0 29 22L33 22 A 1 1 0 0 0 34 23L34 27 A 1 1 0 0 0 33 28L29 28 A 1 1 0 0 0 28 27 A 1 1 0 0 0 27 28L23 28 A 1 1 0 0 0 22 27 A 1 1 0 0 0 21 28L17 28 A 1 1 0 0 0 16 27 A 1 1 0 0 0 15 28L11 28 A 1 1 0 0 0 10 27 A 1 1 0 0 0 9 28L5 28 A 1 1 0 0 0 4 27L4 23 A 1 1 0 0 0 5 22 z M 36 22L46 22L46 28L36 28L36 22 z M 7 24 A 1 1 0 0 0 7 26 A 1 1 0 0 0 7 24 z M 13 24 A 1 1 0 0 0 13 26 A 1 1 0 0 0 13 24 z M 19 24 A 1 1 0 0 0 19 26 A 1 1 0 0 0 19 24 z M 25 24 A 1 1 0 0 0 25 26 A 1 1 0 0 0 25 24 z M 31 24 A 1 1 0 0 0 31 26 A 1 1 0 0 0 31 24 z M 22.984375 33.986328 A 1.0001 1.0001 0 0 0 22.839844 34L3 34 A 1.0001 1.0001 0 0 0 2 35L2 43 A 1.0001 1.0001 0 0 0 3 44L22.832031 44 A 1.0001 1.0001 0 0 0 23.158203 44L47 44 A 1.0001 1.0001 0 0 0 48 43L48 35 A 1.0001 1.0001 0 0 0 47 34L23.154297 34 A 1.0001 1.0001 0 0 0 22.984375 33.986328 z M 5 36L9 36 A 1 1 0 0 0 10 37 A 1 1 0 0 0 11 36L15 36 A 1 1 0 0 0 16 37 A 1 1 0 0 0 17 36L21 36 A 1 1 0 0 0 22 37L22 41 A 1 1 0 0 0 21 42L17 42 A 1 1 0 0 0 16 41 A 1 1 0 0 0 15 42L11 42 A 1 1 0 0 0 10 41 A 1 1 0 0 0 9 42L5 42 A 1 1 0 0 0 4 41L4 37 A 1 1 0 0 0 5 36 z M 24 36L46 36L46 42L24 42L24 36 z M 7 38 A 1 1 0 0 0 7 40 A 1 1 0 0 0 7 38 z M 13 38 A 1 1 0 0 0 13 40 A 1 1 0 0 0 13 38 z M 19 38 A 1 1 0 0 0 19 40 A 1 1 0 0 0 19 38 z" />
</svg>