<?xml version="1.0" encoding="utf-8"?>
<svg xmlns="http://www.w3.org/2000/svg" viewBox="0 0 50 50" width="515" height="515">
  <path d="M22 12C20.34375 12 19 13.375 19 15.03125L19 16.3125C18.496094 16.375 18.039063 16.433594 17.65625 16.5C16.269531 16.746094 15.667969 17.03125 15.59375 17.0625C15.589844 17.066406 15.46875 17.09375 15.46875 17.09375C13.988281 17.59375 11.734375 18.28125 10.6875 20.3125L10.6875 20.34375C10.433594 20.835938 10.054688 21.804688 9.5 23.21875C9.074219 24.304688 8.574219 25.675781 8.0625 27L5.09375 27C3.609375 27 2.507813 27.496094 1.84375 28.25C1.179688 29.003906 1 29.898438 1 30.59375C1 31.371094 1.40625 32.148438 2.03125 32.53125C2.65625 32.914063 3.355469 33 4.09375 33L5.75 33C5.59375 33.417969 5.0625 34.8125 5.0625 34.8125L5 35L5 47C5 48.644531 6.355469 50 8 50L12 50C13.644531 50 15 48.644531 15 47L15 46L35 46L35 47C35 48.644531 36.355469 50 38 50L42 50C43.644531 50 45 48.644531 45 47L45 35L44.9375 34.8125C44.9375 34.8125 44.414063 33.421875 44.25 33L45.90625 33C46.644531 33 47.34375 32.914063 47.96875 32.53125C48.59375 32.148438 49 31.371094 49 30.59375C49 29.898438 48.820313 29.003906 48.15625 28.25C47.492188 27.496094 46.390625 27 44.90625 27L41.9375 27C41.875 26.851563 41.8125 26.707031 41.78125 26.625C40.699219 23.828125 39.652344 21.164063 39.28125 20.3125C38.324219 18.140625 35.863281 17.46875 34.53125 17.09375C34.488281 17.082031 34.414063 17.042969 34.375 17.03125L34.375 17.0625C34.28125 17.023438 33.710938 16.746094 32.34375 16.5C31.960938 16.433594 31.503906 16.375 31 16.3125L31 15.03125C31 13.375 29.65625 12 28 12 Z M 22 14L28 14C28.550781 14 29 14.4375 29 15.03125L29 16.125C27.871094 16.050781 26.578125 16 25 16C23.421875 16 22.128906 16.050781 21 16.125L21 15.03125C21 14.4375 21.449219 14 22 14 Z M 25 18C28.453125 18 30.671875 18.261719 32 18.5C33.328125 18.738281 33.65625 18.90625 33.65625 18.90625L33.75 18.9375L33.8125 18.96875C35.03125 19.316406 36.996094 20.117188 37.4375 21.125C37.726563 21.785156 38.863281 24.707031 39.90625 27.375C40.15625 28.011719 40.574219 29.050781 40.4375 29.6875C40.367188 30.007813 40.246094 30.238281 39.78125 30.5C39.316406 30.761719 38.441406 31 37 31L13 31C11.558594 31 10.683594 30.761719 10.21875 30.5C9.753906 30.238281 9.632813 30.007813 9.5625 29.6875C9.425781 29.050781 9.84375 28.011719 10.09375 27.375L10.03125 27.34375C10.488281 26.152344 10.957031 24.917969 11.34375 23.9375C11.894531 22.535156 12.386719 21.410156 12.46875 21.25C13.023438 20.171875 14.753906 19.4375 16.21875 18.9375L16.28125 18.9375L16.34375 18.90625C16.34375 18.90625 16.671875 18.738281 18 18.5C19.328125 18.261719 21.546875 18 25 18 Z M 5.09375 29L7.25 29C6.871094 29.996094 6.804688 30.191406 6.5 31L4.09375 31C3.535156 31 3.1875 30.902344 3.09375 30.84375C3 30.785156 3 30.875 3 30.59375C3 30.230469 3.101563 29.835938 3.34375 29.5625C3.585938 29.289063 4.007813 29 5.09375 29 Z M 42.6875 29L44.90625 29C45.992188 29 46.414063 29.289063 46.65625 29.5625C46.898438 29.835938 47 30.230469 47 30.59375C47 30.875 47 30.785156 46.90625 30.84375C46.8125 30.902344 46.460938 31 45.90625 31L43.46875 31C43.148438 30.179688 43.078125 30.011719 42.6875 29 Z M 8.4375 31.59375C8.667969 31.835938 8.933594 32.070313 9.25 32.25C10.152344 32.757813 11.347656 33 13 33L37 33C38.652344 33 39.847656 32.757813 40.75 32.25C41.066406 32.070313 41.332031 31.835938 41.5625 31.59375C42.148438 33.132813 42.964844 35.289063 43 35.375L43 43.15625C43 43.621094 42.609375 44 42.09375 44L7.90625 44C7.390625 44 7 43.625 7 43.15625L7 35.375C7.03125 35.289063 7.867188 33.117188 8.4375 31.59375 Z M 11 34C9.355469 34 8 35.355469 8 37C8 37.886719 8.367188 38.675781 8.875 39.21875C9.382813 39.761719 9.996094 40.128906 10.59375 40.46875C11.441406 40.949219 12.019531 41.316406 12.6875 41.59375C13.355469 41.871094 14.074219 42 15 42C17.195313 42 19 40.199219 19 38C19 35.800781 17.195313 34 15 34 Z M 35 34C32.804688 34 31 35.800781 31 38C31 40.199219 32.804688 42 35 42C35.925781 42 36.644531 41.871094 37.3125 41.59375C37.980469 41.316406 38.558594 40.949219 39.40625 40.46875C40.003906 40.128906 40.617188 39.761719 41.125 39.21875C41.632813 38.675781 42 37.886719 42 37C42 35.355469 40.644531 34 39 34 Z M 11 36L15 36C16.117188 36 17 36.882813 17 38C17 39.117188 16.117188 40 15 40C14.25 40 13.878906 39.933594 13.4375 39.75C12.996094 39.566406 12.449219 39.21875 11.5625 38.71875C11 38.402344 10.585938 38.101563 10.34375 37.84375C10.101563 37.585938 10 37.417969 10 37C10 36.4375 10.4375 36 11 36 Z M 35 36L39 36C39.5625 36 40 36.4375 40 37C40 37.417969 39.898438 37.585938 39.65625 37.84375C39.414063 38.101563 39 38.402344 38.4375 38.71875C37.550781 39.21875 37.003906 39.566406 36.5625 39.75C36.121094 39.933594 35.75 40 35 40C33.882813 40 33 39.117188 33 38C33 36.882813 33.882813 36 35 36 Z M 7 45.84375C7.289063 45.9375 7.589844 46 7.90625 46L13 46L13 47C13 47.5625 12.5625 48 12 48L8 48C7.4375 48 7 47.5625 7 47 Z M 43 45.84375L43 47C43 47.5625 42.5625 48 42 48L38 48C37.4375 48 37 47.5625 37 47L37 46L42.09375 46C42.410156 46 42.710938 45.9375 43 45.84375Z" />
</svg>