<?xml version="1.0" encoding="utf-8"?>
<svg xmlns="http://www.w3.org/2000/svg" viewBox="0 0 50 50" width="515" height="515">
  <path d="M29 0.8125C21.800781 0.8125 14.421875 3.007813 8.96875 9.96875C3.515625 16.929688 0 28.472656 0 47C-0.00390625 47.292969 0.121094 47.574219 0.347656 47.769531C0.570313 47.960938 0.863281 48.046875 1.15625 48C1.15625 48 6.960938 47 18 47C18.019531 47 18.042969 47 18.0625 47C20.007813 48.808594 22.292969 50 25 50C27.710938 50 30.183594 48.828125 32.3125 47C32.324219 47 32.332031 47 32.34375 47C32.394531 47.003906 32.449219 47.003906 32.5 47C43.339844 47 48.8125 48 48.8125 48C49.109375 48.054688 49.414063 47.976563 49.644531 47.78125C49.875 47.589844 50.003906 47.300781 50 47C50 42.042969 49.5625 38.550781 49.125 36.28125C48.808594 34.644531 48.535156 33.820313 48.375 33.375C48.765625 32.664063 49 31.863281 49 31L49 28C49 26.386719 48.199219 24.949219 47 24.03125C46.945313 18.5 45.292969 13.546875 42.375 9.9375C39.566406 6.464844 35.519531 4.320313 30.78125 4.09375L29.96875 1.5C29.832031 1.082031 29.4375 0.804688 29 0.8125 Z M 28.28125 2.875L29.03125 5.3125C29.167969 5.730469 29.5625 6.007813 30 6C34.507813 6 38.179688 7.933594 40.8125 11.1875C43.238281 14.1875 44.746094 18.347656 44.96875 23.09375C44.652344 23.03125 44.332031 23 44 23L42 23C41.96875 23 41.9375 23 41.90625 23C41.390625 23.046875 40.996094 23.480469 41 24L41 25.8125C40.472656 25.558594 39.960938 25.445313 39.59375 25.40625C38.394531 23.90625 33.398438 17.601563 31 11.5C30.800781 11.101563 30.5 10.804688 30 10.90625C29.601563 10.90625 29.195313 11.195313 29.09375 11.59375C28.09375 15.195313 19.789063 25.707031 11.1875 25.90625C10.6875 25.804688 9.507813 25.605469 8.40625 26.40625C7.40625 27.207031 7 28.3125 7 29.8125C7 32.113281 8.488281 34 10.6875 34.5C12.019531 37.980469 13.808594 41.976563 16.21875 45.03125C7.820313 45.109375 3.394531 45.679688 2.0625 45.875C2.214844 28.335938 5.597656 17.511719 10.53125 11.21875C15.398438 5.007813 21.738281 3.015625 28.28125 2.875 Z M 30 14.40625C33 20.804688 37.988281 26.699219 38.1875 27C38.386719 27.199219 38.699219 27.40625 39 27.40625C39 27.40625 40.425781 27.425781 41 28.625L41 31C41 32.300781 38.5 32.59375 38.5 32.59375C38.101563 32.59375 37.695313 33.007813 37.59375 33.40625C37.09375 35.707031 36.289063 37.898438 35.1875 40L37.40625 40C38.207031 38.199219 38.914063 36.300781 39.3125 34.5C39.921875 34.371094 40.480469 34.148438 41 33.875L41 35C41 35.550781 41.449219 36 42 36L43 36C43 38.753906 40.753906 41 38 41L29.8125 41C29.394531 39.84375 28.292969 39 27 39L25 39C23.355469 39 22 40.355469 22 42C22 43.644531 23.355469 45 25 45L27 45C28.292969 45 29.394531 44.15625 29.8125 43L38 43C41.84375 43 45 39.84375 45 36L45 35.90625C45.671875 35.765625 46.296875 35.503906 46.84375 35.125C46.949219 35.539063 47.035156 36.03125 47.15625 36.65625C47.53125 38.589844 47.902344 41.703125 47.96875 45.84375C46.664063 45.644531 42.453125 45.105469 34.28125 45.03125C34.566406 44.695313 34.828125 44.359375 35.09375 44L32.5 44C30.398438 46.398438 27.800781 48 25 48C20.199219 48 16.113281 43.1875 12.3125 33.1875C12.210938 32.789063 11.800781 32.59375 11.5 32.59375C10.101563 32.492188 9 31.3125 9 29.8125C9 29.210938 9.101563 28.394531 9.5 28.09375C9.898438 27.792969 10.6875 27.90625 10.6875 27.90625L11 27.90625C19.300781 27.90625 27.199219 19.707031 30 14.40625 Z M 43 25L44 25C45.65625 25 47 26.34375 47 28L47 31C47 31.597656 46.832031 32.15625 46.53125 32.625C46.46875 32.691406 46.417969 32.765625 46.375 32.84375C45.824219 33.550781 44.960938 34 44 34L43 34L43 28.78125C43.070313 28.582031 43.082031 28.34375 43 28.09375 Z M 25 41L27 41C27.554688 41 28 41.445313 28 42C28 42.554688 27.554688 43 27 43L25 43C24.445313 43 24 42.554688 24 42C24 41.445313 24.445313 41 25 41Z" />
</svg>