<?xml version="1.0" encoding="utf-8"?>
<svg xmlns="http://www.w3.org/2000/svg" viewBox="0 0 50 50" width="515" height="515">
  <path d="M32.050781 3.1191406C31.380258 3.1191406 30.70942 3.3765177 30.193359 3.8925781L3.6972656 30.089844 A 1.0001 1.0001 0 0 0 3.6933594 30.09375C2.6612386 31.125871 2.6612386 32.77452 3.6933594 33.806641L6.3925781 36.507812 A 1.0001 1.0001 0 0 0 7.7148438 36.589844C8.485309 35.990593 9.3785592 35.599609 10.300781 35.599609C12.553162 35.599609 14.300781 37.442819 14.300781 39.599609C14.300781 40.577387 13.956876 41.529452 13.392578 42.09375 A 1.0001 1.0001 0 0 0 13.392578 43.507812L16.09375 46.207031C17.125871 47.239152 18.77452 47.239152 19.806641 46.207031L46.107422 19.90625L46 20C47.226667 19.08 47.299478 17.285806 46.306641 16.292969L43.607422 13.59375 A 1.0001 1.0001 0 0 0 42.285156 13.509766C41.522787 14.10272 40.778559 14.400391 39.800781 14.400391C37.5484 14.400391 35.800781 12.557181 35.800781 10.400391C35.800781 9.4226124 36.127168 8.5591853 36.652344 7.9589844 A 1.0001 1.0001 0 0 0 36.607422 6.59375L33.90625 3.8925781C33.39019 3.3765177 32.721304 3.1191406 32.050781 3.1191406 z M 32.048828 5.1816406C32.22805 5.1816406 32.408248 5.222701 32.492188 5.3066406L34.662109 7.4765625C34.150362 8.3464116 33.800781 9.3230836 33.800781 10.400391C33.800781 13.643601 36.453162 16.400391 39.800781 16.400391C40.893128 16.400391 41.846666 16.036675 42.71875 15.533203L44.892578 17.707031C45.099741 17.914194 45.174118 18.120391 44.800781 18.400391 A 1.0001 1.0001 0 0 0 44.693359 18.492188L40.132812 23.052734 A 1.0001 1.0001 0 0 0 39.578125 22.890625 A 1.0001 1.0001 0 0 0 38.75 24.435547L18.392578 44.792969C18.224699 44.960848 17.675693 44.960848 17.507812 44.792969L15.351562 42.638672C15.932597 41.720152 16.300781 40.68017 16.300781 39.599609C16.300781 36.356399 13.6484 33.599609 10.300781 33.599609C9.1560666 33.599609 8.1596122 34.019493 7.2695312 34.556641L5.1074219 32.392578C4.9395427 32.224699 4.9395427 31.675693 5.1074219 31.507812L25.587891 11.259766 A 1.0004883 1.0004883 0 0 0 26.962891 9.8984375L31.603516 5.3105469 A 1.0001 1.0001 0 0 0 31.607422 5.3066406C31.691361 5.222701 31.869606 5.1816406 32.048828 5.1816406 z M 28.496094 11.804688L27.742188 12.287109L27.675781 13.181641L27.865234 13.478516L29.064453 14.777344L29.904297 15.09375L30.658203 14.613281L30.724609 13.71875L30.535156 13.421875L29.333984 12.121094L28.496094 11.804688 z M 32.197266 15.505859L31.441406 15.988281L31.375 16.880859L31.564453 17.177734L32.765625 18.478516L33.603516 18.794922L34.359375 18.3125L34.423828 17.417969L34.234375 17.121094L33.035156 15.822266L32.197266 15.505859 z M 35.755859 19.210938L35.021484 19.722656L34.992188 20.617188L35.193359 20.90625L36.492188 22.207031L37.34375 22.490234L38.078125 21.978516L38.109375 21.082031L37.90625 20.792969L36.607422 19.492188L35.755859 19.210938 z" />
</svg>