<?xml version="1.0" encoding="utf-8"?>
<svg xmlns="http://www.w3.org/2000/svg" viewBox="0 0 50 50" width="515" height="515">
  <path d="M7.984375 0.98632812 A 1.0001 1.0001 0 0 0 7 2L7 12L17 12 A 1.0001 1.0001 0 1 0 17 10L10.324219 10C14.085967 6.2999999 19.267499 4 25 4C36.664481 4 46 13.335519 46 25C46 36.664481 36.664481 46 25 46C13.335519 46 4 36.664481 4 25C4 21.566667 4.8625008 18.212498 6.2949219 15.347656L4.5058594 14.453125C2.9382804 17.588283 2 21.233333 2 25C2 37.735519 12.264481 48 25 48C37.735519 48 48 37.735519 48 25C48 12.264481 37.735519 2 25 2C18.772566 2 13.118718 4.4872487 9 8.4980469L9 2 A 1.0001 1.0001 0 0 0 7.984375 0.98632812 z M 24 9L24 23.279297C23.405192 23.626887 23 24.265006 23 25C23 25.177502 23.03029 25.347573 23.074219 25.511719L16.292969 32.292969L17.707031 33.707031L24.488281 26.925781C24.652427 26.96971 24.822498 27 25 27C26.1 27 27 26.1 27 25C27 24.265006 26.594808 23.626887 26 23.279297L26 9L24 9 z" />
</svg>