<?xml version="1.0" encoding="utf-8"?>
<svg xmlns="http://www.w3.org/2000/svg" viewBox="0 0 50 50" width="515" height="515">
  <path d="M13.212891 5.3828125L7.3671875 12.847656L4.6621094 10.451172L3.3378906 11.949219L7.6328125 15.753906L14.787109 6.6171875L13.212891 5.3828125 z M 19 10L19 12L46 12L46 10L19 10 z M 13.212891 19.382812L7.3671875 26.847656L4.6621094 24.451172L3.3378906 25.949219L7.6328125 29.753906L14.787109 20.617188L13.212891 19.382812 z M 19 24L19 26L46 26L46 24L19 24 z M 13.212891 33.382812L7.3671875 40.847656L4.6621094 38.451172L3.3378906 39.949219L7.6328125 43.753906L14.787109 34.617188L13.212891 33.382812 z M 19 38L19 40L46 40L46 38L19 38 z" />
</svg>