<?xml version="1.0" encoding="utf-8"?>
<svg xmlns="http://www.w3.org/2000/svg" viewBox="0 0 50 50" width="515" height="515">
  <path d="M10 0C6.699219 0 4 2.699219 4 6C4 9.300781 6.699219 12 10 12C13.300781 12 16 9.300781 16 6C16 2.699219 13.300781 0 10 0 Z M 37 0C33.699219 0 31 2.699219 31 6C31 9.300781 33.699219 12 37 12C40.300781 12 43 9.300781 43 6C43 2.699219 40.300781 0 37 0 Z M 10 2C12.222656 2 14 3.777344 14 6C14 8.222656 12.222656 10 10 10C7.777344 10 6 8.222656 6 6C6 3.777344 7.777344 2 10 2 Z M 37 2C39.222656 2 41 3.777344 41 6C41 8.222656 39.222656 10 37 10C34.777344 10 33 8.222656 33 6C33 3.777344 34.777344 2 37 2 Z M 5.5 13C2.464844 13 0 15.464844 0 18.5L0 31.8125C-0.0078125 31.875 -0.0078125 31.9375 0 32C-0.00390625 32.09375 0.0078125 32.191406 0.03125 32.28125C0.179688 33.792969 1.453125 35 3 35C3.351563 35 3.683594 34.925781 4 34.8125L4 46.5C4 48.421875 5.578125 50 7.5 50C8.476563 50 9.363281 49.589844 10 48.9375C10.636719 49.589844 11.523438 50 12.5 50C14.421875 50 16 48.421875 16 46.5L16 34.8125C16.316406 34.925781 16.648438 35 17 35C18.546875 35 19.820313 33.792969 19.96875 32.28125C19.972656 32.238281 19.996094 32.199219 20 32.15625C20.003906 32.105469 20.003906 32.050781 20 32C20 31.96875 20 31.9375 20 31.90625L20 18.5C20 15.464844 17.535156 13 14.5 13 Z M 33.09375 13C31.5625 13 30.402344 13.675781 29.65625 14.46875C28.910156 15.261719 28.523438 16.144531 28.34375 16.6875C28.34375 16.6875 25.253906 26.136719 24.34375 28.96875C24.339844 28.976563 24.347656 28.992188 24.34375 29C24.015625 29.941406 24.109375 30.945313 24.59375 31.71875C25.082031 32.5 25.992188 33 27 33L26.5625 34.28125C26.550781 34.300781 26.539063 34.324219 26.53125 34.34375C26.402344 34.859375 26.410156 35.601563 26.78125 36.15625C26.816406 36.210938 26.859375 36.265625 26.90625 36.3125C27.222656 36.628906 27.660156 37 28.40625 37L32 37L32 47C32 48.644531 33.355469 50 35 50C35.765625 50 36.46875 49.699219 37 49.21875C37.53125 49.699219 38.234375 50 39 50C40.644531 50 42 48.644531 42 47L42 37L45.59375 37C46.339844 37 46.777344 36.628906 47.09375 36.3125C47.140625 36.265625 47.183594 36.210938 47.21875 36.15625C47.589844 35.601563 47.597656 34.859375 47.46875 34.34375C47.460938 34.324219 47.449219 34.300781 47.4375 34.28125L47 33C48.007813 33 48.917969 32.5 49.40625 31.71875C49.890625 30.945313 49.984375 29.941406 49.65625 29C49.652344 28.992188 49.660156 28.976563 49.65625 28.96875C48.746094 26.136719 45.65625 16.6875 45.65625 16.6875C45.476563 16.144531 45.089844 15.261719 44.34375 14.46875C43.597656 13.675781 42.4375 13 40.90625 13 Z M 5.5 15L14.5 15C16.464844 15 18 16.535156 18 18.5L18 31.84375C18 31.875 18 31.90625 18 31.9375L18 32C18 32.554688 17.554688 33 17 33C16.445313 33 16 32.554688 16 32L16 31.90625C16 31.875 16 31.84375 16 31.8125L16 21C16.007813 20.691406 15.871094 20.398438 15.632813 20.203125C15.398438 20.007813 15.082031 19.933594 14.78125 20C14.316406 20.105469 13.988281 20.523438 14 21L14 31.8125C13.996094 31.855469 13.996094 31.894531 14 31.9375L14 46.5C14 47.375 13.375 48 12.5 48C11.625 48 11 47.375 11 46.5L11 46.40625C11 46.375 11 46.34375 11 46.3125L11 34C11.011719 33.710938 10.894531 33.433594 10.6875 33.238281C10.476563 33.039063 10.191406 32.941406 9.90625 32.96875C9.863281 32.976563 9.820313 32.988281 9.78125 33C9.316406 33.105469 8.988281 33.523438 9 34L9 46.3125C8.996094 46.355469 8.996094 46.394531 9 46.4375L9 46.5C9 47.375 8.375 48 7.5 48C6.625 48 6 47.375 6 46.5L6 21C6.011719 20.710938 5.894531 20.433594 5.6875 20.238281C5.476563 20.039063 5.191406 19.941406 4.90625 19.96875C4.863281 19.976563 4.820313 19.988281 4.78125 20C4.316406 20.105469 3.988281 20.523438 4 21L4 31.84375C4 31.875 4 31.90625 4 31.9375L4 32C4 32.554688 3.554688 33 3 33C2.46875 33 2.03125 32.585938 2 32.0625C2 32.042969 2 32.019531 2 32C2.007813 31.9375 2.007813 31.875 2 31.8125L2 18.5C2 16.535156 3.535156 15 5.5 15 Z M 33.09375 15L40.90625 15C41.875 15 42.449219 15.359375 42.90625 15.84375C43.363281 16.328125 43.632813 16.957031 43.75 17.3125C43.75 17.3125 46.851563 26.804688 47.75 29.59375C47.75 29.605469 47.75 29.613281 47.75 29.625C47.910156 30.074219 47.855469 30.4375 47.71875 30.65625C47.582031 30.875 47.390625 31 47 31C46.617188 31 46.292969 30.792969 46.125 30.34375C46.117188 30.3125 46.105469 30.28125 46.09375 30.25L43.25 21.6875C43.097656 21.179688 42.578125 20.878906 42.0625 21C41.785156 21.0625 41.546875 21.242188 41.40625 21.496094C41.269531 21.746094 41.246094 22.042969 41.34375 22.3125L44.1875 30.84375C44.199219 30.917969 44.222656 30.992188 44.25 31.0625C44.265625 31.105469 44.292969 31.144531 44.3125 31.1875L45.53125 34.84375C45.589844 35.082031 45.578125 34.996094 45.5625 35L37 35C36.96875 35 36.9375 35 36.90625 35L28.4375 35C28.421875 34.996094 28.410156 35.082031 28.46875 34.84375L29.75 31.0625C29.785156 30.972656 29.804688 30.878906 29.8125 30.78125L32.65625 22.3125C32.777344 21.96875 32.703125 21.589844 32.464844 21.316406C32.222656 21.042969 31.855469 20.921875 31.5 21C31.144531 21.074219 30.855469 21.339844 30.75 21.6875L27.875 30.34375C27.707031 30.792969 27.382813 31 27 31C26.609375 31 26.417969 30.875 26.28125 30.65625C26.144531 30.4375 26.089844 30.074219 26.25 29.625C26.25 29.613281 26.25 29.605469 26.25 29.59375C27.148438 26.804688 30.25 17.3125 30.25 17.3125C30.367188 16.957031 30.636719 16.328125 31.09375 15.84375C31.550781 15.359375 32.125 15 33.09375 15 Z M 34 37L36 37L36 47C36 47.554688 35.554688 48 35 48C34.445313 48 34 47.554688 34 47 Z M 38 37L40 37L40 47C40 47.554688 39.554688 48 39 48C38.445313 48 38 47.554688 38 47Z" />
</svg>