<?xml version="1.0" encoding="utf-8"?>
<svg xmlns="http://www.w3.org/2000/svg" viewBox="0 0 50 50" width="515" height="515">
  <path d="M12 2C9.25 2 7 4.25 7 7C7 9.75 9.25 12 12 12C14.75 12 17 9.75 17 7C17 4.25 14.75 2 12 2 Z M 29 2L29 4L19 4L19 6L46 6L46 32L20 32L20 34L28.5 34L23 45L25 45L30 35L35 45L37 45L31.5 34L47 34C47.550781 34 48 33.550781 48 33L48 5C48 4.449219 47.550781 4 47 4L31 4L31 2 Z M 12 4C13.667969 4 15 5.332031 15 7C15 8.667969 13.667969 10 12 10C10.332031 10 9 8.667969 9 7C9 5.332031 10.332031 4 12 4 Z M 7.5 13C4.472656 13 2 15.472656 2 18.5L2 30.8125C1.996094 30.855469 1.996094 30.894531 2 30.9375L2 31C1.996094 31.09375 2.007813 31.191406 2.03125 31.28125C2.179688 32.792969 3.453125 34 5 34C5.351563 34 5.683594 33.925781 6 33.8125L6 44.5C6 46.421875 7.578125 48 9.5 48C10.476563 48 11.363281 47.589844 12 46.9375C12.636719 47.589844 13.523438 48 14.5 48C16.421875 48 18 46.421875 18 44.5L18 19L29 19C30.644531 19 32 17.644531 32 16C32 14.375 30.679688 13.035156 29.0625 13C29.042969 13 29.019531 13 29 13L15 13C14.613281 12.996094 14.261719 13.214844 14.09375 13.5625L12 17.75L9.90625 13.5625C9.738281 13.214844 9.386719 12.996094 9 13 Z M 7.5 15L8.375 15L11.09375 20.4375C11.257813 20.789063 11.613281 21.015625 12 21.015625C12.386719 21.015625 12.742188 20.789063 12.90625 20.4375L15.625 15L29 15C29.03125 15 29.0625 15 29.09375 15C29.613281 15.046875 30 15.46875 30 16C30 16.566406 29.566406 17 29 17L17 17C16.449219 17 16 17.449219 16 18L16 44.5C16 45.339844 15.339844 46 14.5 46C13.710938 46 13.074219 45.421875 13 44.65625L13 44.40625C13 44.375 13 44.34375 13 44.3125L13 34C13.011719 33.710938 12.894531 33.433594 12.6875 33.238281C12.476563 33.039063 12.191406 32.941406 11.90625 32.96875C11.863281 32.976563 11.820313 32.988281 11.78125 33C11.316406 33.105469 10.988281 33.523438 11 34L11 44.3125C10.996094 44.355469 10.996094 44.394531 11 44.4375L11 44.65625C10.925781 45.421875 10.289063 46 9.5 46C8.660156 46 8 45.339844 8 44.5L8 21C8.007813 20.691406 7.871094 20.398438 7.632813 20.203125C7.398438 20.007813 7.082031 19.933594 6.78125 20C6.316406 20.105469 5.988281 20.523438 6 21L6 30.84375C6 30.875 6 30.90625 6 30.9375L6 31C6 31.566406 5.566406 32 5 32C4.457031 32 4.03125 31.597656 4 31.0625C4 31.042969 4 31.019531 4 31C4.007813 30.9375 4.007813 30.875 4 30.8125L4 18.5C4 16.554688 5.554688 15 7.5 15Z" />
</svg>