<?xml version="1.0" encoding="utf-8"?>
<svg xmlns="http://www.w3.org/2000/svg" viewBox="0 0 50 50" width="515" height="515">
  <path d="M19.5 0C17.753906 0 16.28125 1.320313 16.03125 3L15 3C11.171875 3 8 5.996094 8 9.71875L8 38.28125C8 40.863281 9.535156 43.09375 11.75 44.21875L6.9375 48.21875C6.507813 48.574219 6.441406 49.210938 6.796875 49.640625C7.152344 50.070313 7.789063 50.136719 8.21875 49.78125L14 44.9375C14.324219 44.980469 14.664063 45 15 45L35 45C35.335938 45 35.675781 44.980469 36 44.9375L41.78125 49.78125C42.210938 50.136719 42.847656 50.070313 43.203125 49.640625C43.558594 49.210938 43.492188 48.574219 43.0625 48.21875L38.25 44.21875C40.464844 43.09375 42 40.863281 42 38.28125L42 9.71875C42 5.996094 38.828125 3 35 3L33.96875 3C33.71875 1.320313 32.246094 0 30.5 0C28.753906 0 27.28125 1.320313 27.03125 3L22.96875 3C22.71875 1.320313 21.246094 0 19.5 0 Z M 19.5 2C20.339844 2 21 2.660156 21 3.5C21 4.339844 20.339844 5 19.5 5C18.660156 5 18 4.339844 18 3.5C18 2.660156 18.660156 2 19.5 2 Z M 30.5 2C31.339844 2 32 2.660156 32 3.5C32 4.339844 31.339844 5 30.5 5C29.785156 5 29.191406 4.535156 29.03125 3.875C29.03125 3.855469 29.03125 3.832031 29.03125 3.8125C29.03125 3.804688 29.03125 3.792969 29.03125 3.78125C29.015625 3.691406 29 3.59375 29 3.5C29 2.660156 29.660156 2 30.5 2 Z M 15 5L16.375 5C16.945313 6.164063 18.125 7 19.5 7C20.875 7 22.054688 6.164063 22.625 5L27.375 5C27.945313 6.164063 29.125 7 30.5 7C31.875 7 33.054688 6.164063 33.625 5L35 5C37.796875 5 40 7.132813 40 9.71875L40 38.28125C40 40.867188 37.796875 43 35 43L15 43C12.203125 43 10 40.867188 10 38.28125L10 9.71875C10 7.132813 12.203125 5 15 5 Z M 19 9C17.90625 9 17 9.90625 17 11L17 13L15 13C13.398438 13 12 14.242188 12 15.84375L12 24.15625C12 25.757813 13.398438 27 15 27L35 27C36.601563 27 38 25.757813 38 24.15625L38 15.84375C38 14.242188 36.601563 13 35 13L33 13L33 11C33 9.90625 32.09375 9 31 9 Z M 19 11L31 11L31 13L19 13 Z M 15 15L35 15C35.609375 15 36 15.421875 36 15.84375L36 24.15625C36 24.578125 35.609375 25 35 25L15 25C14.390625 25 14 24.578125 14 24.15625L14 15.84375C14 15.421875 14.390625 15 15 15 Z M 16 32C13.800781 32 12 33.800781 12 36C12 38.199219 13.800781 40 16 40C18.199219 40 20 38.199219 20 36C20 33.800781 18.199219 32 16 32 Z M 34 32C31.800781 32 30 33.800781 30 36C30 38.199219 31.800781 40 34 40C36.199219 40 38 38.199219 38 36C38 33.800781 36.199219 32 34 32 Z M 16 34C17.117188 34 18 34.882813 18 36C18 37.117188 17.117188 38 16 38C14.882813 38 14 37.117188 14 36C14 34.882813 14.882813 34 16 34 Z M 34 34C35.117188 34 36 34.882813 36 36C36 37.117188 35.117188 38 34 38C32.882813 38 32 37.117188 32 36C32 34.882813 32.882813 34 34 34Z" />
</svg>