<?xml version="1.0" encoding="utf-8"?>
<svg xmlns="http://www.w3.org/2000/svg" viewBox="0 0 50 50" width="515" height="515">
  <path d="M16.8125 3.09375C16.59375 3.132813 16.398438 3.242188 16.25 3.40625L5.34375 14.28125L4.65625 15L5.34375 15.71875L16.25 26.59375C16.492188 26.890625 16.878906 27.027344 17.253906 26.941406C17.625 26.855469 17.917969 26.5625 18.003906 26.191406C18.089844 25.816406 17.953125 25.429688 17.65625 25.1875L8.46875 16L24 16C30.007813 16 34.242188 17.519531 36.96875 19.96875C39.695313 22.417969 41 25.835938 41 30C41 38.347656 37.15625 44.46875 37.15625 44.46875C36.933594 44.769531 36.894531 45.171875 37.0625 45.507813C37.230469 45.847656 37.570313 46.0625 37.945313 46.066406C38.320313 46.070313 38.667969 45.863281 38.84375 45.53125C38.84375 45.53125 43 38.964844 43 30C43 25.40625 41.5 21.332031 38.3125 18.46875C35.125 15.605469 30.347656 14 24 14L8.46875 14L17.65625 4.8125C17.980469 4.511719 18.066406 4.035156 17.871094 3.640625C17.679688 3.242188 17.246094 3.023438 16.8125 3.09375Z" />
</svg>