<?xml version="1.0" encoding="utf-8"?>
<svg xmlns="http://www.w3.org/2000/svg" viewBox="0 0 50 50" width="515" height="515">
  <path d="M25 0C22.800781 0 21 1.800781 21 4L21 4.53125C20.371094 4.179688 19.679688 4 19 4C18.0625 4 17.085938 4.308594 16.3125 4.96875C15.539063 5.628906 15 6.699219 15 7.9375L15 29.25L11.75 25.375C11.730469 25.351563 11.710938 25.332031 11.6875 25.3125C9.9375 23.5625 7.0625 23.5625 5.3125 25.3125C3.589844 27.035156 3.582031 29.839844 5.25 31.59375L5.3125 31.6875L16.8125 46.5C18.515625 48.699219 21.125 50 23.90625 50L32 50C36.957031 50 41 45.957031 41 41L41 13C41 10.800781 39.199219 9 37 9C36.265625 9 35.59375 9.214844 35 9.5625L35 6C35 3.800781 33.199219 2 31 2C30.167969 2 29.394531 2.246094 28.75 2.6875C28.203125 1.128906 26.738281 0 25 0 Z M 25 2C26.117188 2 27 2.882813 27 4L27 22C27.003906 22.0625 27.015625 22.125 27.03125 22.1875C27.046875 22.285156 27.078125 22.378906 27.125 22.46875C27.164063 22.558594 27.21875 22.644531 27.28125 22.71875C27.328125 22.765625 27.382813 22.808594 27.4375 22.84375C27.46875 22.867188 27.5 22.886719 27.53125 22.90625C27.621094 22.953125 27.714844 22.984375 27.8125 23C27.945313 23.027344 28.085938 23.027344 28.21875 23C28.320313 22.972656 28.414063 22.929688 28.5 22.875C28.519531 22.867188 28.542969 22.855469 28.5625 22.84375C28.621094 22.796875 28.671875 22.746094 28.71875 22.6875C28.792969 22.625 28.855469 22.550781 28.90625 22.46875C28.953125 22.371094 28.984375 22.265625 29 22.15625C29.003906 22.105469 29.003906 22.050781 29 22L29 6C29 4.882813 29.882813 4 31 4C32.117188 4 33 4.882813 33 6L33 22C33.003906 22.0625 33.015625 22.125 33.03125 22.1875C33.046875 22.285156 33.078125 22.378906 33.125 22.46875C33.164063 22.558594 33.21875 22.644531 33.28125 22.71875C33.328125 22.765625 33.382813 22.808594 33.4375 22.84375C33.46875 22.867188 33.5 22.886719 33.53125 22.90625C33.621094 22.953125 33.714844 22.984375 33.8125 23C33.945313 23.027344 34.085938 23.027344 34.21875 23C34.320313 22.972656 34.414063 22.929688 34.5 22.875C34.519531 22.867188 34.542969 22.855469 34.5625 22.84375C34.621094 22.796875 34.671875 22.746094 34.71875 22.6875C34.792969 22.625 34.855469 22.550781 34.90625 22.46875C34.953125 22.371094 34.984375 22.265625 35 22.15625C35.003906 22.105469 35.003906 22.050781 35 22L35 13C35 11.882813 35.882813 11 37 11C38.117188 11 39 11.882813 39 13L39 41C39 44.878906 35.878906 48 32 48L23.90625 48C21.742188 48 19.699219 46.992188 18.375 45.28125L6.8125 30.375C6.785156 30.339844 6.753906 30.308594 6.71875 30.28125C5.734375 29.296875 5.734375 27.703125 6.71875 26.71875C7.703125 25.734375 9.296875 25.734375 10.28125 26.71875L15.25 32.65625C15.523438 32.96875 15.960938 33.078125 16.351563 32.929688C16.738281 32.785156 16.996094 32.414063 17 32L17 7.9375C17 7.253906 17.25 6.820313 17.625 6.5C18 6.179688 18.539063 6 19 6C19.460938 6 20 6.175781 20.375 6.5C20.75 6.824219 21 7.265625 21 8L21 22C20.992188 22.308594 21.128906 22.601563 21.367188 22.796875C21.601563 22.992188 21.917969 23.066406 22.21875 23C22.320313 22.972656 22.414063 22.929688 22.5 22.875C22.519531 22.867188 22.542969 22.855469 22.5625 22.84375C22.621094 22.796875 22.671875 22.746094 22.71875 22.6875C22.898438 22.503906 22.996094 22.257813 23 22L23 4C23 2.882813 23.882813 2 25 2 Z M 24.875 29C22.1875 29 20 31.1875 20 33.875C20 35.242188 20.558594 36.488281 21.46875 37.375L28 43.90625L34.53125 37.375C35.441406 36.488281 36 35.242188 36 33.875C36 31.1875 33.8125 29 31.125 29C29.90625 29 28.855469 29.539063 28 30.28125C27.144531 29.539063 26.09375 29 24.875 29 Z M 24.875 31C25.828125 31 26.65625 31.472656 27.1875 32.1875L28 33.25L28.8125 32.1875C29.34375 31.472656 30.171875 31 31.125 31C32.734375 31 34 32.265625 34 33.875C34 34.691406 33.667969 35.441406 33.125 35.96875L28 41.0625L22.875 35.96875C22.332031 35.441406 22 34.691406 22 33.875C22 32.265625 23.265625 31 24.875 31Z" />
</svg>