<?xml version="1.0" encoding="utf-8"?>
<svg xmlns="http://www.w3.org/2000/svg" viewBox="0 0 50 50" width="515" height="515">
  <path d="M27 2C25.416667 2 24.101892 2.6297556 23.251953 3.5859375C22.402014 4.5421194 22 5.7777779 22 7C22 8.2222221 22.402014 9.4578811 23.251953 10.414062C24.101892 11.370245 25.416667 12 27 12C28.583333 12 29.898108 11.370244 30.748047 10.414062C31.597986 9.4578811 32 8.2222221 32 7C32 5.7777779 31.597986 4.5421194 30.748047 3.5859375C29.898108 2.6297556 28.583333 2 27 2 z M 27 4C28.083333 4 28.768559 4.3702444 29.251953 4.9140625C29.735347 5.4578806 30 6.2222221 30 7C30 7.7777779 29.735347 8.5421194 29.251953 9.0859375C28.768559 9.6297556 28.083333 10 27 10C25.916667 10 25.231441 9.6297556 24.748047 9.0859375C24.264653 8.5421194 24 7.7777779 24 7C24 6.2222221 24.264653 5.4578806 24.748047 4.9140625C25.231441 4.3702444 25.916667 4 27 4 z M 23.199219 13 A 1.0001 1.0001 0 0 0 23.009766 13.015625 A 1.0001 1.0001 0 0 0 23 13.017578C21.957972 13.061105 21.00707 13.423243 20.21875 13.986328 A 1.0001 1.0001 0 0 0 20.191406 14.005859L14.191406 18.605469L14.246094 18.568359C13.732748 18.91059 13.434892 19.393887 13.205078 19.853516 A 1.0001 1.0001 0 0 0 13.177734 19.914062L10.386719 26.591797C10.113131 27.05751 10 27.527218 10 28C10 29.645455 11.354545 31 13 31C13.672222 31 14.310725 30.748757 14.78125 30.353516C15.249492 29.960192 15.569087 29.455275 15.810547 28.914062L15.814453 28.908203L18.300781 23.455078L19.378906 22.675781C18.761596 25.232005 18.130859 27.751953 18.130859 27.751953 A 1.0001 1.0001 0 0 0 18.099609 28C18.099609 28.07778 18 28.433333 18 29C18 29.024799 18.003601 29.049416 18.003906 29.074219L16.566406 36.167969L11.914062 42.082031L11.992188 41.992188C11.303621 42.680746 11 43.609524 11 44.5C11 46.42381 12.57619 48 14.5 48C15.720906 48 16.792829 47.3652 17.392578 46.410156L17.400391 46.400391L22.392578 39.910156 A 1.0001 1.0001 0 0 0 22.564453 39.560547L23.472656 36.208984L25.103516 37.644531L26.929688 45.039062 A 1.0001 1.0001 0 0 0 26.951172 45.117188C26.986842 45.224196 26.945772 45.494982 27.197266 46.019531C27.771629 47.291642 29.073108 48 30.400391 48C32.3242 48 33.900391 46.42381 33.900391 44.5C33.900391 43.933333 33.760411 43.520158 33.669922 43.158203L31.669922 35.158203 A 1.0001 1.0001 0 0 0 31.505859 34.808594L27.089844 28.794922C27.193856 28.408503 27.70953 26.492292 28.310547 24.25L29.857422 25.96875 A 1.0001 1.0001 0 0 0 30.330078 26.263672L36.029297 27.863281C36.489404 28.044309 36.822727 28 37 28C38.645455 28 40 26.645455 40 25C40 23.655556 39.121261 22.622003 38.09375 22.181641 A 1.0001 1.0001 0 0 0 37.988281 22.142578L33.320312 20.742188L29.519531 15.326172 A 1.0001 1.0001 0 0 0 29.267578 15.072266C28.460899 13.832918 27.069889 13 25.5 13L23.199219 13 z M 23.199219 15L25.5 15C26.838596 15 28 16.161404 28 17.5C28 17.733333 27.95156 17.883594 27.851562 18.183594 A 1.0001 1.0001 0 0 0 27.818359 18.310547C27.815359 18.323507 27.808358 18.352535 27.798828 18.390625C27.779698 18.466815 27.750791 18.583007 27.712891 18.728516C27.637091 19.019533 27.527533 19.432007 27.396484 19.925781C27.134386 20.913329 26.783491 22.223432 26.433594 23.529297C25.7338 26.141027 25.035156 28.740234 25.035156 28.740234 A 1.0001 1.0001 0 0 0 25.193359 29.591797L29.777344 35.833984L31.730469 43.642578C31.83998 44.080623 31.900391 44.266667 31.900391 44.5C31.900391 45.37619 31.276581 46 30.400391 46C29.733724 46 29.243401 45.710249 29.013672 45.193359 A 1.0001 1.0001 0 0 0 28.994141 45.152344C29.067806 45.299684 29.010668 44.997534 28.871094 44.560547L26.970703 36.861328 A 1.0001 1.0001 0 0 0 26.660156 36.349609L21.707031 31.992188C21.702431 31.987588 21.701866 31.985089 21.697266 31.980469C21.154648 31.438528 20.604458 30.931258 20.457031 30.685547 A 1.0001 1.0001 0 0 0 20.431641 30.644531C20.173909 30.257887 20 29.633333 20 29C20 28.814046 20.054288 28.538167 20.080078 28.203125C20.093216 28.151658 21.168769 23.917838 21.876953 20.826172 A 1.0001546 1.0001546 0 0 0 21.476562 19.273438 A 1.0001 1.0001 0 0 0 20.144531 19.65625L16.914062 21.990234 A 1.0001 1.0001 0 0 0 16.589844 22.384766L13.990234 28.085938 A 1.0001 1.0001 0 0 0 13.986328 28.09375C13.828198 28.449543 13.648615 28.692507 13.494141 28.822266C13.339666 28.952077 13.227778 29 13 29C12.445455 29 12 28.554545 12 28C12 27.92222 12.075041 27.641341 12.132812 27.554688 A 1.0001 1.0001 0 0 0 12.222656 27.384766L15.001953 20.736328C15.165439 20.413254 15.270753 20.288899 15.355469 20.232422 A 1.0001 1.0001 0 0 0 15.408203 20.193359L21.380859 15.613281L21.384766 15.611328C21.944317 15.212609 22.522969 15 23.199219 15 z M 29.691406 19.056641L31.880859 22.173828 A 1.0001 1.0001 0 0 0 32.412109 22.558594L37.3125 24.029297C37.680485 24.191275 38 24.548753 38 25C38 25.554545 37.554545 26 37 26C36.8 26 36.590276 25.926929 36.748047 26.005859 A 1.0001 1.0001 0 0 0 36.570312 25.9375L31.148438 24.416016L28.925781 21.945312C29.059538 21.443892 29.218374 20.852981 29.328125 20.439453C29.459576 19.944165 29.569159 19.529295 29.646484 19.232422C29.665688 19.158687 29.676098 19.115287 29.691406 19.056641 z M 19.353516 32.490234C19.680451 32.839285 20.020787 33.134068 20.292969 33.40625 A 1.0001 1.0001 0 0 0 20.339844 33.451172L21.800781 34.736328L20.6875 38.847656L15.806641 45.189453 A 1.0001 1.0001 0 0 0 15.732422 45.304688C15.515611 45.684105 15.02963 46 14.5 46C13.62381 46 13 45.37619 13 44.5C13 43.990476 13.09481 43.717688 13.40625 43.40625 A 1.0001 1.0001 0 0 0 13.486328 43.318359L18.285156 37.21875 A 1.0001 1.0001 0 0 0 18.480469 36.798828L19.353516 32.490234 z" />
</svg>