<?xml version="1.0" encoding="utf-8"?>
<svg xmlns="http://www.w3.org/2000/svg" width="515" height="515" viewBox="0 0 50 50">
  <path d="M25 2C14.393 2 5.4448281 9.219 2.7988281 19L4.8847656 19C5.6328266 16.497895 6.8461316 14.19903 8.40625 12.181641C10.114235 13.141537 12.090616 13.940594 14.279297 14.550781C13.91318 15.956331 13.6105 17.438405 13.398438 19L15.4375 19C15.641857 17.613835 15.92184 16.291374 16.253906 15.035156C18.665969 15.556821 21.266428 15.878153 24 15.941406L24 19L26 19L26 15.941406C28.733724 15.878186 31.3343 15.556666 33.746094 15.035156C34.07816 16.291374 34.358143 17.613835 34.5625 19L36.601562 19C36.3895 17.438405 36.08682 15.956331 35.720703 14.550781C37.909413 13.94061 39.885958 13.141814 41.59375 12.181641C43.153868 14.19903 44.367173 16.497895 45.115234 19L47.201172 19C44.555172 9.219 35.607 2 25 2 z M 24 4.1210938L24 13.941406C21.462321 13.878225 19.049112 13.58048 16.822266 13.107422C18.463769 8.2008368 21.066677 4.7669231 24 4.1210938 z M 26 4.1210938C28.933323 4.7669231 31.536231 8.2008368 33.177734 13.107422C30.95091 13.580576 28.538108 13.878252 26 13.941406L26 4.1210938 z M 19.132812 4.8535156C17.375631 6.7059051 15.9039 9.3811595 14.841797 12.623047C12.925833 12.09135 11.199958 11.418336 9.7207031 10.628906C12.253987 7.9337069 15.490342 5.9174973 19.132812 4.8535156 z M 30.867188 4.8535156C34.509658 5.9174973 37.746013 7.9337069 40.279297 10.628906C38.800219 11.418695 37.074397 12.091158 35.158203 12.623047C34.0961 9.3811595 32.624369 6.7059051 30.867188 4.8535156 z M 3 21L5.5390625 29L7.8691406 29L9.9824219 23.019531L12.101562 29L14.380859 29L16.964844 21L14.800781 21L13.167969 26.587891L11.302734 21L8.7480469 21L6.8027344 26.494141L5.1992188 21L3 21 z M 18.017578 21L20.558594 29L22.888672 29L25 23.019531L27.119141 29L29.398438 29L31.982422 21L29.818359 21L28.185547 26.587891L26.320312 21L23.765625 21L21.820312 26.494141L20.216797 21L18.017578 21 z M 32.982422 21L35.533203 29L37.871094 29L39.992188 23.019531L42.119141 29L44.40625 29L47 21L44.828125 21L43.189453 26.587891L41.318359 21L38.753906 21L36.800781 26.494141L35.189453 21L32.982422 21 z M 2.7988281 31C5.4448281 40.781 14.393 48 25 48C35.607 48 44.555172 40.781 47.201172 31L45.115234 31C44.367173 33.502105 43.153868 35.80097 41.59375 37.818359C39.885765 36.858463 37.909384 36.059406 35.720703 35.449219C36.086859 34.043669 36.3895 32.561595 36.601562 31L34.5625 31C34.357981 32.386165 34.07823 33.708626 33.746094 34.964844C31.334031 34.443179 28.733572 34.121847 26 34.058594L26 31L24 31L24 34.058594C21.266276 34.121814 18.6657 34.443334 16.253906 34.964844C15.92184 33.708626 15.641857 32.386165 15.4375 31L13.398438 31C13.610645 32.561503 13.913102 34.043742 14.279297 35.449219C12.090587 36.05939 10.114042 36.858186 8.40625 37.818359C6.8461316 35.80097 5.6328266 33.502105 4.8847656 31L2.7988281 31 z M 24 36.058594L24 45.878906C21.066677 45.233077 18.463769 41.799163 16.822266 36.892578C19.04909 36.419424 21.461892 36.121748 24 36.058594 z M 26 36.058594C28.537679 36.121775 30.950888 36.41952 33.177734 36.892578C31.536099 41.799163 28.933231 45.233077 26 45.878906L26 36.058594 z M 14.841797 37.376953C15.904122 40.61909 17.375624 43.29399 19.132812 45.146484C15.490342 44.082503 12.253987 42.066293 9.7207031 39.371094C11.199781 38.581305 12.925603 37.908842 14.841797 37.376953 z M 35.158203 37.376953C37.074167 37.90865 38.800042 38.581664 40.279297 39.371094C37.746013 42.066293 34.509658 44.082503 30.867188 45.146484C32.624474 43.29402 34.095973 40.619018 35.158203 37.376953 z" />
</svg>