<?xml version="1.0" encoding="utf-8"?>
<svg xmlns="http://www.w3.org/2000/svg" viewBox="0 0 50 50" width="515" height="515">
  <path d="M25 2C12.3 2 2 12.3 2 25C2 29.1 3.1 32.899219 5 36.199219L2 46.699219C1.9 46.999219 1.9992187 47.399219 2.1992188 47.699219C2.4992187 47.999219 2.8992187 48 3.1992188 48L14.199219 45.300781C17.399219 47.000781 21.1 48 25 48C37.7 48 48 37.7 48 25C48 12.3 37.7 2 25 2 z M 25 4C36.6 4 46 13.4 46 25C46 36.6 36.6 46 25 46C21.3 46 17.800781 45.000781 14.800781 43.300781C14.600781 43.200781 14.299609 43.099219 14.099609 43.199219L4.5 45.599609L7 36.400391C7.1 36.100391 7.0003906 35.899609 6.9003906 35.599609C5.1003906 32.499609 4 28.9 4 25C4 13.4 13.4 4 25 4 z M 18.113281 12.988281C17.925781 12.975781 17.800781 13 17.800781 13L16.599609 13C15.999609 13 15.100781 13.2 14.300781 14C13.800781 14.5 12 16.3 12 19.5C12 22.9 14.299609 25.799609 14.599609 26.099609C14.599609 26.099609 15 26.600781 15.5 27.300781C16 28.000781 16.699609 28.800781 17.599609 29.800781C19.399609 31.700781 21.899609 33.899219 25.099609 35.199219C26.499609 35.799219 27.699609 36.2 28.599609 36.5C30.199609 37 31.700781 36.900781 32.800781 36.800781C33.600781 36.700781 34.500391 36.299219 35.400391 35.699219C36.300391 35.099219 37.199609 34.400391 37.599609 33.400391C37.899609 32.600391 37.999609 31.900781 38.099609 31.300781L38.099609 30.5C38.099609 30.2 38.000781 30.200781 37.800781 29.800781C37.300781 29.000781 36.799219 29.000781 36.199219 28.800781C35.899219 28.600781 34.999219 28.200781 34.199219 27.800781C33.299219 27.400781 32.599609 27.000781 32.099609 26.800781C31.799609 26.700781 31.400391 26.499609 30.900391 26.599609C30.400391 26.699609 29.899609 27 29.599609 27.5C29.299609 27.9 28.200781 29.299219 27.800781 29.699219L27.699219 29.599609C27.299219 29.399609 26.7 29.200781 26 28.800781C25.2 28.400781 24.299219 27.800781 23.199219 26.800781C21.599219 25.400781 20.499219 23.699609 20.199219 23.099609C20.499219 22.699609 20.899609 22.3 21.099609 22C21.199609 21.9 21.280859 21.799219 21.349609 21.699219C21.418359 21.599219 21.475391 21.500391 21.525391 21.400391C21.625391 21.200391 21.700781 21.000781 21.800781 20.800781C22.200781 20.100781 22.000781 19.300391 21.800781 18.900391C21.800781 18.900391 21.7 18.600781 21.5 18.300781C21.4 18.000781 21.2 17.499609 21 17.099609C20.6 16.199609 20.2 15.199609 20 14.599609C19.7 13.899609 19.300781 13.399219 18.800781 13.199219C18.550781 13.049219 18.300781 13.000781 18.113281 12.988281 z M 16.599609 15L17.699219 15L17.900391 15C17.900391 15 17.999609 15.100391 18.099609 15.400391C18.299609 16.000391 18.799609 17.000391 19.099609 17.900391C19.299609 18.300391 19.499609 18.799609 19.599609 19.099609C19.699609 19.399609 19.800391 19.600781 19.900391 19.800781C19.900391 19.900781 20 19.900391 20 19.900391C19.8 20.300391 19.8 20.399219 19.5 20.699219C19.2 21.099219 18.799219 21.499219 18.699219 21.699219C18.599219 21.899219 18.299609 22.1 18.099609 22.5C17.899609 22.9 18.000781 23.599609 18.300781 24.099609C18.700781 24.699609 19.900781 26.700391 21.800781 28.400391C23.000781 29.500391 24.1 30.199609 25 30.599609C25.9 31.099609 26.600781 31.300391 26.800781 31.400391C27.200781 31.600391 27.599609 31.699219 28.099609 31.699219C28.599609 31.699219 29.000781 31.3 29.300781 31C29.700781 30.6 30.699219 29.399609 31.199219 28.599609L31.400391 28.699219C31.400391 28.699219 31.699609 28.8 32.099609 29C32.499609 29.2 32.900391 29.399609 33.400391 29.599609C34.300391 29.999609 35.100391 30.399609 35.400391 30.599609L36 30.900391L36 31.199219C36 31.599219 35.899219 32.200781 35.699219 32.800781C35.599219 33.100781 35.000391 33.699609 34.400391 34.099609C33.700391 34.499609 32.899609 34.800391 32.599609 34.900391C31.699609 35.000391 30.600781 35.099219 29.300781 34.699219C28.500781 34.399219 27.4 34.1 26 33.5C23.2 32.3 20.899219 30.3 19.199219 28.5C18.399219 27.6 17.699219 26.799219 17.199219 26.199219C16.699219 25.599219 16.500781 25.2 16.300781 25C15.900781 24.6 14 21.999609 14 19.599609C14 17.099609 15.200781 16.100391 15.800781 15.400391C16.100781 15.000391 16.499609 15 16.599609 15 z" />
</svg>