<?xml version="1.0" encoding="utf-8"?>
<svg xmlns="http://www.w3.org/2000/svg" viewBox="0 0 50 50" width="515" height="515">
  <path d="M27.490234 3.4902344 A 1.0001 1.0001 0 0 0 26.792969 5.2070312C31.111833 9.5258958 31.111833 16.474104 26.792969 20.792969 A 1.0001 1.0001 0 1 0 28.207031 22.207031C33.288167 17.125896 33.288167 8.8741042 28.207031 3.7929688 A 1.0001 1.0001 0 0 0 27.490234 3.4902344 z M 24.689453 6.2890625 A 1.0001 1.0001 0 0 0 23.992188 8.0078125C26.704418 10.720044 26.704418 15.180346 23.992188 17.892578 A 1.0001 1.0001 0 1 0 25.40625 19.306641C28.894018 15.818872 28.894018 10.081518 25.40625 6.59375 A 1.0001 1.0001 0 0 0 24.689453 6.2890625 z M 21.789062 9.1894531 A 1.0001 1.0001 0 0 0 21.09375 10.90625C22.325465 12.137965 22.325465 13.961644 21.09375 15.193359 A 1.0001 1.0001 0 1 0 22.507812 16.607422C24.476098 14.639137 24.476098 11.460472 22.507812 9.4921875 A 1.0001 1.0001 0 0 0 21.789062 9.1894531 z M 9.984375 11.986328 A 1.0001 1.0001 0 0 0 9 13L9 34L7 34C5.3545455 34 4 35.354545 4 37L4 43C4 44.645455 5.3545455 46 7 46L43 46C44.645455 46 46 44.645455 46 43L46 37C46 35.354545 44.645455 34 43 34L19 34L19 13 A 1.0001 1.0001 0 0 0 17.984375 11.986328 A 1.0001 1.0001 0 0 0 17 13L17 34L11 34L11 13 A 1.0001 1.0001 0 0 0 9.984375 11.986328 z M 7 36L9.8320312 36 A 1.0001 1.0001 0 0 0 10.158203 36L17.832031 36 A 1.0001 1.0001 0 0 0 18.158203 36L43 36C43.554545 36 44 36.445455 44 37L44 43C44 43.554545 43.554545 44 43 44L7 44C6.4454545 44 6 43.554545 6 43L6 37C6 36.445455 6.4454545 36 7 36 z M 10 39C9.4 39 9 39.4 9 40C9 40.6 9.4 41 10 41C10.6 41 11 40.6 11 40C11 39.4 10.6 39 10 39 z M 14 39C13.4 39 13 39.4 13 40C13 40.6 13.4 41 14 41C14.6 41 15 40.6 15 40C15 39.4 14.6 39 14 39 z M 18 39C17.4 39 17 39.4 17 40C17 40.6 17.4 41 18 41C18.6 41 19 40.6 19 40C19 39.4 18.6 39 18 39 z M 22 39C21.4 39 21 39.4 21 40C21 40.6 21.4 41 22 41C22.6 41 23 40.6 23 40C23 39.4 22.6 39 22 39 z M 26 39C25.4 39 25 39.4 25 40C25 40.6 25.4 41 26 41C26.6 41 27 40.6 27 40C27 39.4 26.6 39 26 39 z" />
</svg>