<?xml version="1.0" encoding="utf-8"?>
<svg xmlns="http://www.w3.org/2000/svg" viewBox="0 0 50 50" width="515" height="515">
  <path d="M24.984375 -0.013671875 A 1.0001 1.0001 0 0 0 24 1L24 8.5859375L19.707031 4.2929688 A 1.0001 1.0001 0 0 0 18.990234 3.9902344 A 1.0001 1.0001 0 0 0 18.292969 5.7070312L24 11.414062L24 23.269531L13.734375 17.341797L11.646484 9.5449219 A 1.0001 1.0001 0 0 0 10.699219 8.7910156 A 1.0001 1.0001 0 0 0 9.7148438 10.0625L11.285156 15.927734L4.7148438 12.134766 A 1.0001 1.0001 0 0 0 4.2402344 11.992188 A 1.0001 1.0001 0 0 0 4.140625 11.994141 A 1.0001 1.0001 0 0 0 3.7148438 13.865234L10.285156 17.658203L4.421875 19.230469 A 1.0001 1.0001 0 1 0 4.9394531 21.162109L12.736328 19.074219L23.001953 25L12.736328 30.925781L4.9394531 28.837891 A 1.0001 1.0001 0 0 0 4.6425781 28.800781 A 1.0001 1.0001 0 0 0 4.421875 30.769531L10.285156 32.341797L3.7148438 36.134766 A 1.0001 1.0001 0 1 0 4.7148438 37.865234L11.285156 34.072266L9.7148438 39.9375 A 1.0001 1.0001 0 1 0 11.646484 40.455078L13.734375 32.658203L24 26.730469L24 38.585938L18.292969 44.292969 A 1.0001 1.0001 0 1 0 19.707031 45.707031L24 41.414062L24 49 A 1.0001 1.0001 0 1 0 26 49L26 41.414062L30.292969 45.707031 A 1.0001 1.0001 0 1 0 31.707031 44.292969L26 38.585938L26 26.730469L36.265625 32.658203L38.353516 40.455078 A 1.0001 1.0001 0 1 0 40.285156 39.9375L38.714844 34.072266L45.285156 37.865234 A 1.0001 1.0001 0 1 0 46.285156 36.134766L39.714844 32.341797L45.578125 30.769531 A 1.0001 1.0001 0 0 0 45.328125 28.800781 A 1.0001 1.0001 0 0 0 45.060547 28.837891L37.263672 30.925781L26.998047 25L37.263672 19.074219L45.060547 21.162109 A 1.0001 1.0001 0 1 0 45.578125 19.230469L39.714844 17.658203L46.285156 13.865234 A 1.0001 1.0001 0 0 0 45.830078 11.994141 A 1.0001 1.0001 0 0 0 45.285156 12.134766L38.714844 15.927734L40.285156 10.0625 A 1.0001 1.0001 0 0 0 39.269531 8.7910156 A 1.0001 1.0001 0 0 0 38.353516 9.5449219L36.265625 17.341797L26 23.269531L26 11.414062L31.707031 5.7070312 A 1.0001 1.0001 0 1 0 30.292969 4.2929688L26 8.5859375L26 1 A 1.0001 1.0001 0 0 0 24.984375 -0.013671875 z" />
</svg>