<?xml version="1.0" encoding="utf-8"?>
<svg xmlns="http://www.w3.org/2000/svg" viewBox="0 0 50 50" width="515" height="515">
  <path d="M24.15625 0C23.007813 0 22.148438 0.941406 22.0625 2.0625C19.710938 2.355469 17.898438 3.671875 16.78125 5.34375C15.609375 7.105469 15.132813 9.152344 15.0625 11C14.90625 11.042969 14.777344 11.058594 14.5 11.21875C14.085938 11.453125 13.636719 11.910156 13.375 12.53125C13.113281 13.152344 13 13.933594 13 15L13 15.78125L13.75 15.96875C13.75 15.96875 14.441406 16.113281 15.4375 16.28125C15.554688 16.964844 15.699219 17.613281 15.875 18.3125C15.40625 18.871094 15.023438 19.601563 15.15625 20.71875C15.304688 21.949219 15.644531 22.824219 16.125 23.4375C16.390625 23.773438 16.738281 23.804688 17.0625 23.96875C17.238281 25.015625 17.53125 26.0625 17.96875 26.9375C18.21875 27.441406 18.503906 27.90625 18.78125 28.28125C18.90625 28.449219 19.085938 28.546875 19.21875 28.6875C19.226563 29.921875 19.230469 30.949219 19.125 32.25C18.800781 33.035156 18.042969 33.667969 16.8125 34.28125C15.542969 34.914063 13.890625 35.5 12.21875 36.21875C10.546875 36.9375 8.828125 37.8125 7.46875 39.1875C6.109375 40.5625 5.148438 42.449219 5 44.9375L4.9375 46L45.0625 46L45 44.9375C44.851563 42.449219 43.886719 40.5625 42.53125 39.1875C41.175781 37.8125 39.476563 36.9375 37.8125 36.21875C36.148438 35.5 34.515625 34.914063 33.25 34.28125C32.035156 33.671875 31.269531 33.054688 30.9375 32.28125C30.828125 30.964844 30.835938 29.933594 30.84375 28.6875C30.976563 28.542969 31.15625 28.449219 31.28125 28.28125C31.554688 27.902344 31.816406 27.4375 32.0625 26.9375C32.488281 26.0625 32.796875 25.011719 32.96875 23.96875C33.28125 23.804688 33.617188 23.765625 33.875 23.4375C34.355469 22.824219 34.695313 21.949219 34.84375 20.71875C34.976563 19.625 34.609375 18.902344 34.15625 18.34375C34.34375 17.753906 34.546875 17.117188 34.71875 16.25C35.621094 16.09375 36.25 15.96875 36.25 15.96875L37 15.78125L37 15C37 13.925781 36.886719 13.15625 36.625 12.53125C36.363281 11.90625 35.917969 11.453125 35.5 11.21875C35.222656 11.0625 35.09375 11.042969 34.9375 11C34.863281 9.148438 34.363281 7.070313 33.1875 5.3125C32.070313 3.644531 30.269531 2.359375 27.9375 2.0625C27.851563 0.941406 26.992188 0 25.84375 0 Z M 24.15625 2L25.84375 2C25.859375 2 26 2.0625 26 2.21875L26 2.78125C25.976563 2.90625 25.976563 3.03125 26 3.15625L26 9C25.996094 9.359375 26.183594 9.695313 26.496094 9.878906C26.808594 10.058594 27.191406 10.058594 27.503906 9.878906C27.816406 9.695313 28.003906 9.359375 28 9L28 4.21875C29.527344 4.511719 30.726563 5.234375 31.53125 6.4375C32.523438 7.914063 33 9.871094 33 11.4375C33 11.734375 33.113281 12.128906 33.34375 12.375C33.574219 12.621094 33.8125 12.726563 33.96875 12.78125C34.285156 12.890625 34.417969 12.890625 34.5 12.9375C34.582031 12.984375 34.636719 13.011719 34.75 13.28125C34.808594 13.425781 34.828125 13.882813 34.875 14.1875C34.65625 14.234375 34.289063 14.300781 33.875 14.375C33.84375 14.375 33.8125 14.375 33.78125 14.375C33.71875 14.378906 33.65625 14.390625 33.59375 14.40625C33.5625 14.414063 33.53125 14.425781 33.5 14.4375C33.472656 14.441406 33.433594 14.464844 33.40625 14.46875C31.808594 14.71875 29.132813 15 25 15C21.074219 15 18.503906 14.742188 16.875 14.5C16.863281 14.5 16.855469 14.46875 16.84375 14.46875C16.59375 14.304688 16.285156 14.257813 16 14.34375C15.988281 14.339844 15.980469 14.347656 15.96875 14.34375C15.644531 14.285156 15.308594 14.226563 15.125 14.1875C15.171875 13.894531 15.191406 13.453125 15.25 13.3125C15.363281 13.042969 15.414063 13.015625 15.5 12.96875C15.585938 12.921875 15.714844 12.894531 16.03125 12.78125C16.1875 12.722656 16.429688 12.617188 16.65625 12.375C16.882813 12.132813 17 11.734375 17 11.4375C17 9.871094 17.484375 7.914063 18.46875 6.4375C19.273438 5.230469 20.449219 4.476563 22 4.1875L22 9C21.996094 9.359375 22.183594 9.695313 22.496094 9.878906C22.808594 10.058594 23.191406 10.058594 23.503906 9.878906C23.816406 9.695313 24.003906 9.359375 24 9L24 3.125C24.023438 3 24.023438 2.875 24 2.75L24 2.21875C24 2.0625 24.140625 2 24.15625 2 Z M 17.5 16.59375C19.378906 16.816406 21.882813 17 25 17C28.148438 17 30.679688 16.820313 32.5625 16.59375C32.421875 17.203125 32.28125 17.746094 32.125 18.21875L31.875 19L32.5625 19.40625C32.519531 19.378906 32.945313 19.667969 32.84375 20.5C32.726563 21.480469 32.492188 21.988281 32.3125 22.21875C32.132813 22.449219 32.039063 22.4375 32.03125 22.4375L31.1875 22.5L31.09375 23.3125C31 24.175781 30.652344 25.234375 30.25 26.0625C30.046875 26.476563 29.839844 26.839844 29.65625 27.09375C29.472656 27.347656 29.28125 27.488281 29.375 27.4375L28.84375 27.71875L28.84375 28.3125C28.84375 29.761719 28.785156 30.949219 28.9375 32.625L28.9375 32.75L29 32.875C29.570313 34.410156 30.890625 35.367188 32.34375 36.09375C33.796875 36.820313 35.464844 37.355469 37.03125 38.03125C38.597656 38.707031 40.03125 39.515625 41.09375 40.59375C41.9375 41.449219 42.46875 42.582031 42.75 44L7.25 44C7.53125 42.585938 8.058594 41.449219 8.90625 40.59375C9.972656 39.515625 11.425781 38.707031 13 38.03125C14.574219 37.355469 16.230469 36.820313 17.6875 36.09375C19.144531 35.367188 20.492188 34.410156 21.0625 32.875L21.125 32.625C21.277344 30.949219 21.21875 29.761719 21.21875 28.3125L21.21875 27.71875L20.6875 27.4375C20.777344 27.484375 20.5625 27.347656 20.375 27.09375C20.1875 26.839844 19.957031 26.476563 19.75 26.0625C19.335938 25.234375 18.996094 24.167969 18.90625 23.3125L18.8125 22.5L17.96875 22.4375C17.960938 22.4375 17.867188 22.449219 17.6875 22.21875C17.507813 21.988281 17.273438 21.480469 17.15625 20.5C17.058594 19.667969 17.480469 19.378906 17.4375 19.40625L18.09375 19L17.90625 18.28125C17.734375 17.621094 17.605469 17.101563 17.5 16.59375Z" />
</svg>