<?xml version="1.0" encoding="utf-8"?>
<svg xmlns="http://www.w3.org/2000/svg" viewBox="0 0 50 50" width="515" height="515">
  <path d="M32.15625 1C30.972656 1 30.070313 1.988281 30.03125 3.15625C28.445313 3.417969 27.128906 4.238281 26.15625 5.34375C25.25 4.730469 24.1875 4.285156 22.96875 4.125C22.917969 2.972656 22.015625 2 20.84375 2L19.15625 2C17.984375 2 17.082031 2.972656 17.03125 4.125C14.695313 4.425781 12.890625 5.710938 11.78125 7.375C10.605469 9.136719 10.132813 11.214844 10.0625 13.0625C9.90625 13.105469 9.792969 13.105469 9.53125 13.25C9.109375 13.480469 8.667969 13.910156 8.40625 14.53125C8.144531 15.152344 8 15.933594 8 17L8 17.78125L8.75 17.96875C8.75 17.96875 9.511719 18.128906 10.625 18.3125C10.695313 18.640625 10.761719 18.984375 10.84375 19.3125C10.382813 19.871094 10.023438 20.613281 10.15625 21.71875C10.304688 22.949219 10.644531 23.824219 11.125 24.4375C11.390625 24.773438 11.738281 24.804688 12.0625 24.96875C12.238281 26.015625 12.53125 27.0625 12.96875 27.9375C13.21875 28.441406 13.503906 28.90625 13.78125 29.28125C13.90625 29.449219 14.085938 29.546875 14.21875 29.6875C14.226563 30.921875 14.230469 31.949219 14.125 33.25C13.800781 34.035156 13.035156 34.667969 11.8125 35.28125C10.550781 35.914063 8.910156 36.5 7.25 37.21875C5.589844 37.9375 3.914063 38.8125 2.5625 40.1875C1.210938 41.5625 0.242188 43.449219 0.09375 45.9375L0.03125 47L40.0625 47L40 45.9375C39.90625 44.394531 39.492188 43.101563 38.875 42L49.96875 42L49.90625 40.9375C49.777344 38.8125 48.957031 37.15625 47.8125 35.9375C46.667969 34.71875 45.238281 33.910156 43.84375 33.25C42.449219 32.589844 41.078125 32.0625 40.03125 31.5C39.019531 30.957031 38.414063 30.429688 38.15625 29.8125C38.074219 28.761719 38.054688 27.90625 38.0625 26.90625C38.160156 26.796875 38.316406 26.71875 38.40625 26.59375C38.644531 26.265625 38.882813 25.867188 39.09375 25.4375C39.449219 24.707031 39.691406 23.84375 39.84375 22.96875C40.105469 22.824219 40.382813 22.800781 40.59375 22.53125C41.023438 21.984375 41.308594 21.242188 41.4375 20.1875L41.4375 20.15625C41.546875 19.242188 41.25 18.628906 40.875 18.125C41.039063 17.640625 41.234375 17.167969 41.375 16.34375C42.484375 16.152344 43.25 15.96875 43.25 15.96875L44 15.78125L44 15C44 14.015625 43.871094 13.300781 43.625 12.71875C43.378906 12.136719 42.964844 11.714844 42.5625 11.5C42.335938 11.378906 42.269531 11.382813 42.125 11.34375C42.046875 9.652344 41.578125 7.769531 40.53125 6.15625C39.546875 4.640625 37.976563 3.445313 35.96875 3.125C35.917969 1.972656 35.015625 1 33.84375 1 Z M 32.15625 3L33.84375 3C33.859375 3 34 3.0625 34 3.21875L34 3.8125C34 3.84375 34 3.875 34 3.90625L34 4C33.992188 4.074219 33.992188 4.144531 34 4.21875L34 10C33.996094 10.359375 34.183594 10.695313 34.496094 10.878906C34.808594 11.058594 35.191406 11.058594 35.503906 10.878906C35.816406 10.695313 36.003906 10.359375 36 10L36 5.28125C37.199219 5.574219 38.15625 6.191406 38.84375 7.25C39.722656 8.605469 40.1875 10.414063 40.1875 11.8125C40.1875 12.101563 40.296875 12.507813 40.53125 12.75C40.765625 12.992188 41.003906 13.078125 41.15625 13.125C41.457031 13.222656 41.574219 13.222656 41.625 13.25C41.675781 13.277344 41.6875 13.277344 41.78125 13.5C41.824219 13.601563 41.835938 13.972656 41.875 14.1875C40.886719 14.414063 38.109375 15 33 15L31.78125 15C31.734375 14.835938 31.65625 14.679688 31.59375 14.53125C31.332031 13.90625 30.894531 13.445313 30.46875 13.21875C30.203125 13.078125 30.097656 13.074219 29.9375 13.03125C29.859375 11.1875 29.359375 9.125 28.1875 7.375C28.023438 7.132813 27.847656 6.914063 27.65625 6.6875C28.296875 5.984375 29.09375 5.519531 30 5.28125L30 10C29.996094 10.359375 30.183594 10.695313 30.496094 10.878906C30.808594 11.058594 31.191406 11.058594 31.503906 10.878906C31.816406 10.695313 32.003906 10.359375 32 10L32 4.1875C32.027344 4.054688 32.027344 3.914063 32 3.78125L32 3.21875C32 3.0625 32.140625 3 32.15625 3 Z M 19.15625 4L20.84375 4C20.859375 4 21 4.0625 21 4.21875L21 4.8125C21 4.84375 21 4.875 21 4.90625L21 5C20.992188 5.074219 20.992188 5.144531 21 5.21875L21 11C20.996094 11.359375 21.183594 11.695313 21.496094 11.878906C21.808594 12.058594 22.191406 12.058594 22.503906 11.878906C22.816406 11.695313 23.003906 11.359375 23 11L23 6.25C24.53125 6.539063 25.726563 7.296875 26.53125 8.5C27.523438 9.976563 28 11.933594 28 13.5C28 13.796875 28.136719 14.191406 28.375 14.4375C28.613281 14.683594 28.839844 14.761719 29 14.8125C29.320313 14.917969 29.457031 14.960938 29.53125 15C29.605469 15.039063 29.667969 15.046875 29.78125 15.3125C29.839844 15.449219 29.859375 15.890625 29.90625 16.1875C29.660156 16.242188 29.296875 16.320313 28.78125 16.40625C28.699219 16.394531 28.613281 16.394531 28.53125 16.40625C28.433594 16.414063 28.339844 16.433594 28.25 16.46875C26.628906 16.714844 24.003906 17 20 17C16.183594 17 13.644531 16.769531 12 16.53125C11.769531 16.382813 11.484375 16.339844 11.21875 16.40625C10.703125 16.320313 10.339844 16.242188 10.09375 16.1875C10.136719 15.894531 10.160156 15.449219 10.21875 15.3125C10.332031 15.050781 10.390625 15.042969 10.46875 15C10.546875 14.957031 10.683594 14.921875 11 14.8125C11.160156 14.757813 11.390625 14.683594 11.625 14.4375C11.859375 14.191406 12 13.796875 12 13.5C12 11.933594 12.484375 9.976563 13.46875 8.5C14.273438 7.292969 15.453125 6.539063 17 6.25L17 11C16.996094 11.359375 17.183594 11.695313 17.496094 11.878906C17.808594 12.058594 18.191406 12.058594 18.503906 11.878906C18.816406 11.695313 19.003906 11.359375 19 11L19 5.1875C19.027344 5.054688 19.027344 4.914063 19 4.78125L19 4.21875C19 4.0625 19.140625 4 19.15625 4 Z M 39.25 16.65625C39.132813 17.15625 39.007813 17.5 38.84375 18L38.59375 18.75L39.28125 19.15625C39.191406 19.101563 39.546875 19.292969 39.46875 19.9375C39.371094 20.746094 39.160156 21.148438 39.03125 21.3125C38.902344 21.476563 38.871094 21.441406 38.90625 21.4375L38.0625 21.5L38 22.3125C37.925781 23.015625 37.613281 23.878906 37.28125 24.5625C37.113281 24.902344 36.960938 25.203125 36.8125 25.40625C36.722656 25.527344 36.660156 25.617188 36.625 25.65625L36.59375 25.65625C36.589844 25.660156 36.59375 25.6875 36.59375 25.6875L36.0625 25.9375L36.0625 26.53125C36.0625 27.746094 36.027344 28.765625 36.15625 30.1875L36.15625 30.3125L36.21875 30.4375C36.71875 31.777344 37.839844 32.621094 39.0625 33.28125C40.285156 33.941406 41.699219 34.445313 43 35.0625C44.300781 35.679688 45.472656 36.386719 46.34375 37.3125C47 38.011719 47.441406 38.914063 47.6875 40L37.34375 40C36.023438 38.730469 34.402344 37.902344 32.8125 37.21875C31.148438 36.5 29.515625 35.914063 28.25 35.28125C27.035156 34.671875 26.269531 34.054688 25.9375 33.28125C25.828125 31.964844 25.835938 30.933594 25.84375 29.6875C25.976563 29.542969 26.15625 29.449219 26.28125 29.28125C26.554688 28.902344 26.816406 28.4375 27.0625 27.9375C27.488281 27.0625 27.796875 26.011719 27.96875 24.96875C28.28125 24.804688 28.617188 24.765625 28.875 24.4375C29.355469 23.824219 29.695313 22.949219 29.84375 21.71875C29.976563 20.625 29.609375 19.902344 29.15625 19.34375C29.257813 19.03125 29.363281 18.707031 29.46875 18.3125C30.523438 18.136719 31.25 17.96875 31.25 17.96875L32 17.78125L32 17L33 17C35.507813 17 37.597656 16.851563 39.25 16.65625 Z M 12.71875 18.625C14.574219 18.835938 17.007813 19 20 19C23.007813 19 25.453125 18.839844 27.3125 18.625C27.253906 18.816406 27.195313 19.011719 27.125 19.21875L26.875 20L27.5625 20.40625C27.519531 20.378906 27.945313 20.667969 27.84375 21.5C27.726563 22.480469 27.492188 22.988281 27.3125 23.21875C27.132813 23.449219 27.039063 23.4375 27.03125 23.4375L26.1875 23.5L26.09375 24.3125C26 25.175781 25.652344 26.234375 25.25 27.0625C25.046875 27.476563 24.839844 27.839844 24.65625 28.09375C24.472656 28.347656 24.28125 28.488281 24.375 28.4375L23.84375 28.71875L23.84375 29.3125C23.84375 30.761719 23.785156 31.949219 23.9375 33.625L23.9375 33.75L24 33.875C24.570313 35.410156 25.890625 36.367188 27.34375 37.09375C28.796875 37.820313 30.464844 38.355469 32.03125 39.03125C33.597656 39.707031 35.03125 40.515625 36.09375 41.59375C36.9375 42.449219 37.46875 43.582031 37.75 45L2.34375 45C2.625 43.582031 3.128906 42.449219 3.96875 41.59375C5.027344 40.515625 6.503906 39.707031 8.0625 39.03125C9.621094 38.355469 11.269531 37.820313 12.71875 37.09375C14.167969 36.367188 15.492188 35.410156 16.0625 33.875L16.125 33.625C16.277344 31.949219 16.21875 30.761719 16.21875 29.3125L16.21875 28.71875L15.6875 28.4375C15.777344 28.484375 15.5625 28.347656 15.375 28.09375C15.1875 27.839844 14.957031 27.476563 14.75 27.0625C14.335938 26.234375 13.996094 25.167969 13.90625 24.3125L13.8125 23.5L12.96875 23.4375C12.960938 23.4375 12.867188 23.449219 12.6875 23.21875C12.507813 22.988281 12.273438 22.480469 12.15625 21.5C12.058594 20.667969 12.480469 20.378906 12.4375 20.40625L13.09375 20L12.90625 19.28125C12.835938 19.011719 12.773438 18.828125 12.71875 18.625Z" />
</svg>