<?xml version="1.0" encoding="utf-8"?>
<svg xmlns="http://www.w3.org/2000/svg" viewBox="0 0 50 50" width="515" height="515">
  <path d="M10 9C6.132813 9 3 12.132813 3 16L3 34C3 37.867188 6.132813 41 10 41L40 41C43.867188 41 47 37.867188 47 34L47 16C47 12.132813 43.867188 9 40 9 Z M 29.5 16.75C34.96875 16.75 34.96875 22.5625 34.96875 25.042969C34.96875 27.5 34.96875 33.25 29.5 33.25C27.933594 33.25 26.683594 32.796875 25.789063 31.898438C24.019531 30.128906 24.027344 27.082031 24.03125 25.265625L24.03125 25.042969C24.03125 22.351563 24.03125 16.75 29.5 16.75 Z M 19.335938 16.828125L21.25 16.828125L21.25 33.089844L19.113281 33.089844L19.113281 32.921875L18.863281 32.921875L18.863281 21.863281L14.753906 21.863281L14.753906 19.832031L14.996094 19.824219C17.359375 19.738281 18.902344 19.242188 19.296875 17.03125 Z M 29.5 18.960938C28.746094 18.960938 28.121094 19.214844 27.648438 19.714844C27.027344 20.371094 26.320313 21.800781 26.492188 24.890625C26.496094 24.964844 26.5 25.019531 26.5 25.042969L26.496094 25.230469C26.421875 27.75 26.832031 29.488281 27.722656 30.40625C28.191406 30.890625 28.773438 31.125 29.5 31.125C31.574219 31.125 32.5 29.25 32.5 25.042969C32.5 25.011719 32.503906 24.949219 32.511719 24.859375C32.667969 21.773438 31.972656 20.359375 31.363281 19.714844C30.886719 19.214844 30.261719 18.960938 29.5 18.960938Z" />
</svg>