<?xml version="1.0" encoding="utf-8"?>
<svg xmlns="http://www.w3.org/2000/svg" viewBox="0 0 50 50" width="515" height="515">
  <path d="M40 9L10 9C6.132813 9 3 12.132813 3 16L3 34C3 37.867188 6.132813 41 10 41L40 41C43.867188 41 47 37.867188 47 34L47 16C47 12.132813 43.867188 9 40 9 Z M 30.164063 31.019531L30.164063 33.25L19.394531 33.25L19.394531 33C19.394531 29.214844 21.984375 27.519531 24.269531 26.023438C26.199219 24.761719 27.867188 23.671875 27.867188 21.585938C27.867188 21.558594 27.789063 18.980469 25.035156 18.980469C22.238281 18.980469 22.207031 22.554688 22.207031 22.710938L22.207031 22.960938L19.835938 22.960938L19.824219 22.722656C19.773438 21.621094 19.886719 19.566406 21.226563 18.160156C22.121094 17.226563 23.402344 16.75 25.035156 16.75C30.105469 16.75 30.25 21.089844 30.25 21.585938C30.25 24.792969 27.6875 26.410156 25.429688 27.835938C23.882813 28.8125 22.414063 29.738281 22.085938 31.019531Z" />
</svg>