<?xml version="1.0" encoding="utf-8"?>
<svg xmlns="http://www.w3.org/2000/svg" viewBox="0 0 50 50" width="515" height="515">
  <path d="M25 13C13.441406 13 1 16.441406 1 24C1 30.6875 10.746094 34.152344 21 34.859375L21 41.046875L32.628906 32L21 22.953125L21 28.847656C11.800781 28.140625 7 25.132813 7 24C7 22.714844 13.1875 19 25 19C36.8125 19 43 22.714844 43 24C43 24.554688 41.421875 26.210938 36.726563 27.539063L36 27.742188L36 33.917969L37.238281 33.609375C44.824219 31.734375 49 28.320313 49 24C49 16.441406 36.558594 13 25 13Z" />
</svg>