<?xml version="1.0" encoding="utf-8"?>
<svg xmlns="http://www.w3.org/2000/svg" viewBox="0 0 50 50" width="515" height="515">
  <path d="M8.6738281 0L7.5507812 2.3320312L5 2.6386719L6.9394531 4.3613281L6.4296875 7L8.6738281 5.6816406L10.917969 7L10.408203 4.3613281L12.347656 2.6386719L9.796875 2.3320312L8.6738281 0 z M 10.917969 7L9.3007812 7C6.3307812 7 4 9.3307812 4 12.300781L4 45C4 45.55 4.45 46 5 46L22 46L22 36L28 36L28 46L45 46C45.55 46 46 45.55 46 45L46 12.300781C46 9.3307812 43.669219 7 40.699219 7L39.082031 7L35.408203 7L30.917969 7L27.244141 7L22.755859 7L19.082031 7L14.591797 7L10.917969 7 z M 14.591797 7L16.837891 5.6816406L19.082031 7L18.570312 4.3613281L20.509766 2.6386719L17.958984 2.3320312L16.837891 0L15.714844 2.3320312L13.162109 2.6386719L15.101562 4.3613281L14.591797 7 z M 22.755859 7L25 5.6816406L27.244141 7L26.734375 4.3613281L28.673828 2.6386719L26.121094 2.3320312L25 0L23.878906 2.3320312L21.326172 2.6386719L23.265625 4.3613281L22.755859 7 z M 30.917969 7L33.162109 5.6816406L35.408203 7L34.898438 4.3613281L36.837891 2.6386719L34.285156 2.3320312L33.162109 0L32.041016 2.3320312L29.490234 2.6386719L31.429688 4.3613281L30.917969 7 z M 39.082031 7L41.326172 5.6816406L43.570312 7L43.060547 4.3613281L45 2.6386719L42.449219 2.3320312L41.326172 0L40.203125 2.3320312L37.652344 2.6386719L39.591797 4.3613281L39.082031 7 z M 10 12L16 12L16 16L10 16L10 12 z M 22 12L28 12L28 16L22 16L22 12 z M 34 12L40 12L40 16L34 16L34 12 z M 10 20L16 20L16 24L10 24L10 20 z M 22 20L28 20L28 24L22 24L22 20 z M 34 20L40 20L40 24L34 24L34 20 z M 10 28L16 28L16 32L10 32L10 28 z M 22 28L28 28L28 32L22 32L22 28 z M 34 28L40 28L40 32L34 32L34 28 z M 10 36L16 36L16 40L10 40L10 36 z M 34 36L40 36L40 40L34 40L34 36 z" />
</svg>