<?xml version="1.0" encoding="utf-8"?>
<svg xmlns="http://www.w3.org/2000/svg" viewBox="0 0 50 50" width="515" height="515">
  <path d="M10 9C6.132813 9 3 12.132813 3 16L3 34C3 37.867188 6.132813 41 10 41L40 41C43.867188 41 47 37.867188 47 34L47 16C47 12.132813 43.867188 9 40 9 Z M 24.40625 16.75C26.808594 16.75 28.492188 17.871094 29.375 20.0625C30.066406 21.777344 30.0625 23.660156 30.0625 24.46875L30.0625 24.53125C30.0625 30.316406 28.144531 33.25 24.34375 33.25C20.777344 33.25 19.378906 31.050781 19.28125 29L19.28125 28.75L21.65625 28.75L21.6875 28.96875C21.785156 30.320313 22.824219 31.21875 24.34375 31.21875C26.875 31.21875 27.457031 28.449219 27.625 26.0625C26.988281 26.839844 25.839844 27.6875 24.15625 27.6875C21.753906 27.6875 18.9375 26.226563 18.9375 22.125C18.9375 20.125 20.089844 16.75 24.40625 16.75 Z M 24.34375 19.03125C21.71875 19.03125 21.5 21.738281 21.5 22.5625C21.5 24.871094 23.457031 25.65625 24.34375 25.65625C27.261719 25.65625 27.34375 22.40625 27.34375 22.375C27.34375 22.34375 27.3125 19.03125 24.34375 19.03125Z" />
</svg>