<?xml version="1.0" encoding="utf-8"?>
<svg xmlns="http://www.w3.org/2000/svg" viewBox="0 0 50 50" width="515" height="515">
  <path d="M26.03125 0.90625L4 9.9375L4.3125 10.0625C4.339844 10.074219 4.378906 10.082031 4.40625 10.09375L26.90625 20.1875L46 9.90625 Z M 26.03125 7.28125C26.878906 7.242188 27.730469 7.28125 28.59375 7.4375C29.453125 7.59375 30.28125 7.863281 31.0625 8.25C31.535156 8.484375 31.929688 8.742188 32.25 9.03125C32.570313 9.320313 32.792969 9.625 32.90625 9.9375C33.015625 10.25 33 10.5625 32.875 10.875C32.746094 11.1875 32.476563 11.5 32.0625 11.78125L31.125 11.3125C31.394531 11.085938 31.566406 10.863281 31.65625 10.625C31.746094 10.386719 31.773438 10.136719 31.6875 9.90625C31.605469 9.671875 31.449219 9.464844 31.21875 9.25C30.988281 9.035156 30.675781 8.835938 30.3125 8.65625C29.652344 8.332031 28.960938 8.113281 28.25 8C27.535156 7.886719 26.847656 7.855469 26.15625 7.90625C25.460938 7.957031 24.792969 8.066406 24.15625 8.25C23.519531 8.433594 22.921875 8.667969 22.40625 8.9375C21.898438 9.203125 21.46875 9.484375 21.125 9.8125C20.777344 10.140625 20.578125 10.492188 20.5 10.84375C20.421875 11.195313 20.5 11.550781 20.75 11.90625C21 12.261719 21.484375 12.585938 22.15625 12.90625C22.628906 13.132813 23.121094 13.308594 23.65625 13.40625C24.1875 13.503906 24.710938 13.539063 25.25 13.53125C25.789063 13.519531 26.347656 13.449219 26.875 13.34375C27.398438 13.238281 27.882813 13.101563 28.34375 12.90625L29.28125 13.375C28.648438 13.640625 27.992188 13.835938 27.3125 13.96875C26.632813 14.101563 25.957031 14.160156 25.28125 14.15625C24.605469 14.152344 23.9375 14.078125 23.28125 13.9375C22.621094 13.796875 22.003906 13.597656 21.40625 13.3125C20.609375 12.933594 20.027344 12.519531 19.6875 12.09375C19.347656 11.664063 19.207031 11.238281 19.25 10.8125C19.292969 10.386719 19.519531 9.964844 19.90625 9.5625C20.292969 9.160156 20.789063 8.804688 21.4375 8.46875C22.085938 8.132813 22.808594 7.863281 23.59375 7.65625C24.378906 7.449219 25.183594 7.320313 26.03125 7.28125 Z M 3 11.65625L3 35.59375L26 48.5625L26 21.9375 Z M 47 11.65625L28 21.875L28 48.53125L47 35.53125 Z M 39.125 21.5C39.265625 21.496094 39.378906 21.523438 39.5 21.5625C39.742188 21.644531 39.949219 21.824219 40.09375 22.09375C40.238281 22.367188 40.3125 22.753906 40.3125 23.28125C40.3125 23.578125 40.289063 23.867188 40.21875 24.1875C40.152344 24.507813 40.03125 24.824219 39.90625 25.125C39.777344 25.425781 39.644531 25.707031 39.46875 25.96875C39.292969 26.230469 39.09375 26.464844 38.875 26.65625L38.875 26.6875C39.410156 26.46875 39.839844 26.527344 40.15625 26.84375C40.46875 27.15625 40.625 27.667969 40.625 28.40625C40.625 28.585938 40.617188 28.792969 40.59375 29.03125C40.570313 29.273438 40.507813 29.535156 40.4375 29.8125C40.367188 30.09375 40.289063 30.40625 40.15625 30.71875C40.027344 31.03125 39.84375 31.34375 39.625 31.65625C39.40625 31.96875 39.132813 32.28125 38.8125 32.59375C38.488281 32.910156 38.113281 33.214844 37.65625 33.5L33.96875 35.78125L33.96875 24.03125L37.65625 22C38.011719 21.800781 38.332031 21.652344 38.65625 21.5625C38.816406 21.515625 38.984375 21.503906 39.125 21.5 Z M 13.78125 22.5L14.90625 23.03125L19.09375 36.53125L18 35.9375L16.6875 31.71875L11.9375 29.25L10.71875 32.03125L9.71875 31.5 Z M 38.46875 22.59375C38.234375 22.636719 37.941406 22.757813 37.625 22.9375L34.8125 24.53125L34.8125 28.6875L37.65625 27.03125C37.976563 26.84375 38.234375 26.644531 38.46875 26.40625C38.703125 26.167969 38.910156 25.890625 39.0625 25.625C39.21875 25.359375 39.328125 25.089844 39.40625 24.8125C39.484375 24.535156 39.53125 24.265625 39.53125 24C39.53125 22.933594 39.175781 22.460938 38.46875 22.59375 Z M 14.3125 23.8125L12.25 28.5L16.34375 30.625 Z M 38.96875 27.5C38.621094 27.5 38.160156 27.648438 37.625 27.96875L34.8125 29.65625L34.8125 34.3125L37.625 32.5625C37.925781 32.375 38.234375 32.171875 38.5 31.9375C38.765625 31.703125 38.988281 31.433594 39.1875 31.125C39.386719 30.820313 39.539063 30.46875 39.65625 30.09375C39.773438 29.722656 39.84375 29.296875 39.84375 28.84375C39.84375 28.113281 39.652344 27.675781 39.28125 27.53125C39.1875 27.496094 39.085938 27.5 38.96875 27.5Z" />
</svg>