<?xml version="1.0" encoding="utf-8"?>
<svg xmlns="http://www.w3.org/2000/svg" viewBox="0 0 50 50" width="515" height="515">
  <path d="M19 1C17.707031 1 16.605469 1.84375 16.1875 3L5 3C3.347656 3 2 4.347656 2 6L2 41C2 42.652344 3.347656 44 5 44L21 44L21 21C21 18.242188 23.242188 16 26 16L36 16L36 6C36 4.347656 34.652344 3 33 3L21.8125 3C21.394531 1.84375 20.292969 1 19 1 Z M 19 3C19.5625 3 20 3.4375 20 4C20 4.5625 19.5625 5 19 5C18.4375 5 18 4.5625 18 4C18 3.4375 18.4375 3 19 3 Z M 11 5L16.1875 5C16.605469 6.15625 17.707031 7 19 7C20.292969 7 21.394531 6.15625 21.8125 5L27 5L27 8C27 9.105469 26.105469 10 25 10L13 10C11.894531 10 11 9.105469 11 8 Z M 11 15L13 15L13 21L15 21L15 17L17 17L17 21L19 21L19 23L5 23L5 21L7 21L7 18L9 18L9 21L11 21 Z M 26 18C24.347656 18 23 19.347656 23 21L23 44C23 45.652344 24.347656 47 26 47L44 47C45.652344 47 47 45.652344 47 44L47 21C47 19.347656 45.652344 18 44 18 Z M 28 22L42 22C42.554688 22 43 22.449219 43 23L43 27C43 27.554688 42.554688 28 42 28L28 28C27.445313 28 27 27.554688 27 27L27 23C27 22.449219 27.445313 22 28 22 Z M 12 27C15.308594 27 18 29.691406 18 33C18 36.308594 15.308594 39 12 39C8.691406 39 6 36.308594 6 33C6 29.691406 8.691406 27 12 27 Z M 12 29C9.792969 29 8 30.792969 8 33C8 35.207031 9.792969 37 12 37C14.207031 37 16 35.207031 16 33L12 33 Z M 28 30L30 30C30.550781 30 31 30.449219 31 31L31 32C31 32.550781 30.550781 33 30 33L28 33C27.449219 33 27 32.550781 27 32L27 31C27 30.449219 27.449219 30 28 30 Z M 34 30L36 30C36.550781 30 37 30.449219 37 31L37 32C37 32.550781 36.550781 33 36 33L34 33C33.449219 33 33 32.550781 33 32L33 31C33 30.449219 33.449219 30 34 30 Z M 40 30L42 30C42.550781 30 43 30.449219 43 31L43 32C43 32.550781 42.550781 33 42 33L40 33C39.449219 33 39 32.550781 39 32L39 31C39 30.449219 39.449219 30 40 30 Z M 28 35L30 35C30.550781 35 31 35.449219 31 36L31 37C31 37.550781 30.550781 38 30 38L28 38C27.449219 38 27 37.550781 27 37L27 36C27 35.449219 27.449219 35 28 35 Z M 34 35L36 35C36.550781 35 37 35.449219 37 36L37 37C37 37.550781 36.550781 38 36 38L34 38C33.449219 38 33 37.550781 33 37L33 36C33 35.449219 33.449219 35 34 35 Z M 40 35L42 35C42.550781 35 43 35.449219 43 36L43 37C43 37.550781 42.550781 38 42 38L40 38C39.449219 38 39 37.550781 39 37L39 36C39 35.449219 39.449219 35 40 35 Z M 28 40L30 40C30.550781 40 31 40.449219 31 41L31 42C31 42.550781 30.550781 43 30 43L28 43C27.449219 43 27 42.550781 27 42L27 41C27 40.449219 27.449219 40 28 40 Z M 34 40L36 40C36.550781 40 37 40.449219 37 41L37 42C37 42.550781 36.550781 43 36 43L34 43C33.449219 43 33 42.550781 33 42L33 41C33 40.449219 33.449219 40 34 40 Z M 40 40L42 40C42.550781 40 43 40.449219 43 41L43 42C43 42.550781 42.550781 43 42 43L40 43C39.449219 43 39 42.550781 39 42L39 41C39 40.449219 39.449219 40 40 40Z" />
</svg>