<?xml version="1.0" encoding="utf-8"?>
<svg xmlns="http://www.w3.org/2000/svg" viewBox="0 0 50 50" width="515" height="515">
  <path d="M24 1L24 19L26 19L26 1 Z M 22 4.242188C12.824219 5.5625 5.558594 12.824219 4.234375 22L8.265625 22C9.515625 15.03125 15.027344 9.53125 22 8.28125 Z M 28 4.242188L28 8.28125C34.972656 9.527344 40.484375 15.03125 41.734375 22L45.765625 22C44.441406 12.824219 37.175781 5.5625 28 4.242188 Z M 22 13.394531C17.792969 14.484375 14.472656 17.796875 13.382813 22L17.609375 22C18.425781 20.003906 20.003906 18.402344 22 17.589844 Z M 28 13.394531L28 17.589844C30 18.402344 31.578125 20.003906 32.390625 22L36.621094 22C35.53125 17.796875 32.207031 14.484375 28 13.394531 Z M 25.003906 22C23.347656 22 22 23.34375 22 25C22 26.65625 23.347656 28 25.003906 28C26.660156 28 27.949219 26.65625 27.949219 25C27.949219 23.34375 26.660156 22 25.003906 22 Z M 1 24L1 26L19 26L19 24 Z M 31 24L31 26L49 26L49 24 Z M 4.242188 28C5.5625 37.175781 12.824219 44.441406 22 45.765625L22 41.734375C15.03125 40.484375 9.53125 34.972656 8.28125 28 Z M 13.378906 28C14.46875 32.203125 17.792969 35.515625 22 36.605469L22 32.410156C20 31.597656 18.421875 29.996094 17.609375 28 Z M 41.71875 28C40.46875 34.972656 34.96875 40.484375 28 41.734375L28 45.765625C37.175781 44.441406 44.4375 37.175781 45.761719 28 Z M 32.410156 28C31.597656 30 29.996094 31.578125 28 32.390625L28 36.621094C32.203125 35.53125 35.515625 32.207031 36.605469 28 Z M 24 31L24 49L26 49L26 31Z" />
</svg>