<?xml version="1.0" encoding="utf-8"?>
<svg xmlns="http://www.w3.org/2000/svg" viewBox="0 0 50 50" width="515" height="515">
  <path d="M1.8125 2C1.78125 2.007813 1.75 2.019531 1.71875 2.03125C0.746094 2.167969 0 2.992188 0 4C0 5.105469 0.894531 6 2 6C3.105469 6 4 5.105469 4 4L8.65625 4C9.902344 4 10.550781 4.257813 11.03125 4.6875C11.503906 5.113281 11.886719 5.824219 12.21875 6.9375L12.21875 6.96875L20.21875 39.21875C20.519531 40.363281 20.789063 41.539063 21.625 42.5C21.96875 42.898438 22.410156 43.222656 22.9375 43.46875C22.359375 44.164063 22 45.035156 22 46C22 48.199219 23.800781 50 26 50C28.199219 50 30 48.199219 30 46C30 45.265625 29.785156 44.59375 29.4375 44L35.5625 44C35.214844 44.59375 35 45.265625 35 46C35 48.199219 36.800781 50 39 50C41.199219 50 43 48.199219 43 46C43 44.972656 42.582031 44.054688 41.9375 43.34375C42.050781 43.039063 42.003906 42.695313 41.820313 42.429688C41.632813 42.160156 41.328125 42 41 42L25.71875 42C24.179688 42 23.578125 41.671875 23.15625 41.1875C22.738281 40.710938 22.453125 39.867188 22.15625 38.75L22.15625 38.71875L21.46875 36L39.8125 36C40.226563 36 40.601563 35.734375 40.75 35.34375L47.9375 16.34375C48.054688 16.035156 48 15.707031 47.8125 15.4375C47.625 15.167969 47.328125 15 47 15L16.28125 15L14.15625 6.46875C14.15625 6.449219 14.15625 6.425781 14.15625 6.40625C13.773438 5.117188 13.28125 4 12.375 3.1875C11.46875 2.375 10.207031 2 8.65625 2L2 2C1.96875 2 1.9375 2 1.90625 2C1.875 2 1.84375 2 1.8125 2 Z M 31 19C31.554688 19 32 19.449219 32 20L32 24L36 24C36.554688 24 37 24.449219 37 25C37 25.550781 36.554688 26 36 26L32 26L32 30C32 30.554688 31.554688 31 31 31C30.445313 31 30 30.554688 30 30L30 26L26 26C25.449219 26 25 25.550781 25 25C25 24.449219 25.449219 24 26 24L30 24L30 20C30 19.449219 30.445313 19 31 19 Z M 26 44C27.117188 44 28 44.882813 28 46C28 47.117188 27.117188 48 26 48C24.882813 48 24 47.117188 24 46C24 44.882813 24.882813 44 26 44 Z M 39 44C40.117188 44 41 44.882813 41 46C41 47.117188 40.117188 48 39 48C37.882813 48 37 47.117188 37 46C37 44.882813 37.882813 44 39 44Z" />
</svg>