<?xml version="1.0" encoding="utf-8"?>
<svg xmlns="http://www.w3.org/2000/svg" width="515" height="515" viewBox="0 0 50 50">
  <path d="M5 4C3.346 4 2 5.346 2 7L2 13L3 13L47 13L48 13L48 11C48 9.346 46.654 8 45 8L18.044922 8.0058594C17.765922 7.9048594 17.188906 6.9861875 16.878906 6.4921875C16.111906 5.2681875 15.317 4 14 4L5 4 z M 3 15C2.449 15 2 15.448 2 16L2 43C2 44.654 3.346 46 5 46L32.027344 46C33.856756 48.421534 36.749111 50 40 50C45.5 50 50 45.5 50 40C50 37.767371 49.248916 35.706061 48 34.037109L48 16C48 15.448 47.551 15 47 15L3 15 z M 40 32C44.4 32 48 35.6 48 40C48 44.4 44.4 48 40 48C35.6 48 32 44.4 32 40C32 35.6 35.6 32 40 32 z M 40 34.099609C39.4 34.099609 39 34.499609 39 35.099609L39 39L35.099609 39C34.499609 39 34.099609 39.4 34.099609 40C34.099609 40.6 34.499609 41 35.099609 41L39 41L39 44.900391C39 45.500391 39.4 45.900391 40 45.900391C40.6 45.900391 41 45.500391 41 44.900391L41 41L44.900391 41C45.500391 41 45.900391 40.6 45.900391 40C45.900391 39.4 45.500391 39 44.900391 39L41 39L41 35.099609C41 34.499609 40.6 34.099609 40 34.099609 z" />
</svg>