<?xml version="1.0" encoding="utf-8"?>
<svg xmlns="http://www.w3.org/2000/svg" viewBox="0 0 50 50" width="515" height="515">
  <path d="M25 0C18.898438 0 14 4.789063 14 10.6875L14 11L21.5 11C22.101563 11 22.5 11.398438 22.5 12C22.5 12.601563 22.101563 13 21.5 13L14 13L14 15L21.5 15C22.101563 15 22.5 15.398438 22.5 16C22.5 16.601563 22.101563 17 21.5 17L14 17L14 19L21.5 19C22.101563 19 22.5 19.398438 22.5 20C22.5 20.601563 22.101563 21 21.5 21L14 21L14 23.3125C14 29.113281 18.695313 33.800781 24.59375 34C26.09375 28.898438 30.601563 24.988281 36 24.1875L36 21L28.5 21C27.898438 21 27.5 20.601563 27.5 20C27.5 19.398438 27.898438 19 28.5 19L36 19L36 17L28.5 17C27.898438 17 27.5 16.601563 27.5 16C27.5 15.398438 27.898438 15 28.5 15L36 15L36 13L28.5 13C27.898438 13 27.5 12.601563 27.5 12C27.5 11.398438 27.898438 11 28.5 11L36 11L36 10.6875C36 4.789063 31.101563 0 25 0 Z M 10 17C9.398438 17 9 17.398438 9 18L9 23C9 30.800781 14.601563 37.289063 22 38.6875L22 45L15.5 45C13.601563 45 12 46.601563 12 48.5L12 50L30.8125 50C29.914063 49.398438 28.988281 48.800781 28.1875 48L27.3125 47C26.8125 46.398438 26.304688 45.699219 25.90625 45L24 45L24 38.90625L24.09375 38.90625C24.09375 38.605469 24 38.300781 24 38C24 37.601563 23.992188 37.304688 24.09375 36.90625C16.792969 36.40625 11 30.398438 11 23L11 18C11 17.398438 10.601563 17 10 17 Z M 40 17C39.398438 17 39 17.398438 39 18L39 23C39 23.398438 39.007813 23.695313 38.90625 24.09375C39.605469 24.09375 40.304688 24.207031 40.90625 24.40625C40.90625 24.007813 41 23.492188 41 23.09375L41 18.09375C41 17.394531 40.601563 17 40 17 Z M 38 26.09375C31.398438 26.09375 26 31.492188 26 38.09375C26 41.292969 27.304688 44.304688 29.40625 46.40625C29.40625 46.40625 29.398438 46.5 29.5 46.5L29.8125 46.8125C32.011719 48.914063 34.894531 50.1875 38.09375 50.1875C44.695313 50.1875 50.09375 44.789063 50.09375 38.1875C49.992188 34.789063 48.6875 31.914063 46.6875 29.8125C46.636719 29.761719 46.625 29.71875 46.625 29.71875C46.480469 29.554688 46.398438 29.40625 46.3125 29.40625C44.113281 27.304688 41.300781 26.09375 38 26.09375 Z M 38 28C40.699219 28 43.105469 29.113281 44.90625 30.8125L45.1875 31.09375L45.1875 31.1875C46.886719 32.988281 48 35.398438 48 38C48 43.5 43.5 48 38 48C35.300781 48 32.894531 46.886719 31.09375 45.1875C30.992188 45.1875 31.007813 45.09375 30.90625 45.09375L30.8125 45C30.8125 45 30.789063 44.90625 30.6875 44.90625C29.085938 43.105469 28 40.699219 28 38C28 32.5 32.5 28 38 28 Z M 37 32L37 37L32 37L32 39L37 39L37 44L39 44L39 39L44 39L44 37L39 37L39 32Z" />
</svg>