<?xml version="1.0" encoding="utf-8"?>
<svg xmlns="http://www.w3.org/2000/svg" viewBox="0 0 50 50" width="515" height="515">
  <path d="M6 2L6 48L34.03125 48C35.699219 49.25 37.761719 50 40 50C45.511719 50 50 45.511719 50 40C50 35.914063 47.519531 32.394531 44 30.84375L44 2 Z M 13 14L17 14L17 16L13 16 Z M 20 14L37 14L37 16L20 16 Z M 13 20L17 20L17 22L13 22 Z M 20 20L37 20L37 22L20 22 Z M 13 26L17 26L17 28L13 28 Z M 20 26L37 26L37 28L20 28 Z M 13 32L17 32L17 34L13 34 Z M 20 32L34.03125 32C33.273438 32.566406 32.601563 33.246094 32.03125 34L20 34 Z M 40 32C44.429688 32 48 35.570313 48 40C48 44.429688 44.429688 48 40 48C35.570313 48 32 44.429688 32 40C32 35.570313 35.570313 32 40 32 Z M 39 35L39 39L35 39L35 41L39 41L39 45L41 45L41 41L45 41L45 39L41 39L41 35Z" />
</svg>