<?xml version="1.0" encoding="utf-8"?>
<svg xmlns="http://www.w3.org/2000/svg" viewBox="0 0 50 50" width="515" height="515">
  <path d="M2.8125 0C1.269531 0 0 1.269531 0 2.8125L0 7L44 7L44 2.8125C44 1.269531 42.730469 0 41.1875 0 Z M 0 9L0 40C0 40.554688 0.449219 41 1 41L30.0625 41C30.566406 46.046875 34.824219 50 40 50C45.515625 50 50 45.515625 50 40C50 35.90625 47.527344 32.390625 44 30.84375L44 9 Z M 7 15L11 15L11 17L7 17 Z M 14 15L37 15L37 17L14 17 Z M 7 20L11 20L11 22L7 22 Z M 14 20L37 20L37 22L14 22 Z M 7 25L11 25L11 27L7 27 Z M 14 25L37 25L37 27L14 27 Z M 7 30L11 30L11 32L7 32 Z M 14 30L30 30L30 32L14 32 Z M 40 32C44.410156 32 48 35.589844 48 40C48 44.410156 44.410156 48 40 48C35.589844 48 32 44.410156 32 40C32 35.589844 35.589844 32 40 32 Z M 39 35L39 39L35 39L35 41L39 41L39 45L41 45L41 41L45 41L45 39L41 39L41 35Z" />
</svg>