<?xml version="1.0" encoding="utf-8"?>
<svg xmlns="http://www.w3.org/2000/svg" viewBox="0 0 50 50" width="515" height="515">
  <path d="M11 4C9.347656 4 8 5.347656 8 7L8 12L7 12C6.640625 11.996094 6.304688 12.183594 6.121094 12.496094C5.941406 12.808594 5.941406 13.191406 6.121094 13.503906C6.304688 13.816406 6.640625 14.003906 7 14L11 14C11.351563 14.003906 11.679688 13.824219 11.863281 13.527344C11.941406 13.667969 12 13.824219 12 14C12 14.550781 11.550781 15 11 15L8 15L8 18L7 18C6.640625 17.996094 6.304688 18.183594 6.121094 18.496094C5.941406 18.808594 5.941406 19.191406 6.121094 19.503906C6.304688 19.816406 6.640625 20.003906 7 20L11 20C11.351563 20.003906 11.679688 19.824219 11.863281 19.527344C11.941406 19.667969 12 19.824219 12 20C12 20.550781 11.550781 21 11 21L8 21L8 24L7 24C6.640625 23.996094 6.304688 24.183594 6.121094 24.496094C5.941406 24.808594 5.941406 25.191406 6.121094 25.503906C6.304688 25.816406 6.640625 26.003906 7 26L11 26C11.351563 26.003906 11.679688 25.824219 11.863281 25.527344C11.941406 25.667969 12 25.824219 12 26C12 26.554688 11.550781 27 11 27L8 27L8 30L7 30C6.640625 29.996094 6.304688 30.183594 6.121094 30.496094C5.941406 30.808594 5.941406 31.191406 6.121094 31.503906C6.304688 31.816406 6.640625 32.003906 7 32L11 32C11.351563 32.003906 11.679688 31.824219 11.863281 31.527344C11.941406 31.667969 12 31.824219 12 32C12 32.554688 11.550781 33 11 33L8 33L8 36L7 36C6.640625 35.996094 6.304688 36.183594 6.121094 36.496094C5.941406 36.808594 5.941406 37.191406 6.121094 37.503906C6.304688 37.816406 6.640625 38.003906 7 38L11 38C11.351563 38.003906 11.679688 37.824219 11.863281 37.527344C11.941406 37.667969 12 37.824219 12 38C12 38.554688 11.550781 39 11 39L8 39L8 43C8 44.652344 9.347656 46 11 46L39 46C40.652344 46 42 44.652344 42 43L42 7C42 5.347656 40.652344 4 39 4 Z M 26.5 15L27 16C30.269531 16 30.414063 20.257813 29.546875 21.3125C29.78125 21.378906 30.003906 21.734375 29.933594 22.304688C29.800781 23.363281 29.347656 23.632813 29.058594 23.65625C28.949219 24.644531 28 26 28 26L28 28.019531C28.855469 30.277344 34.734375 29.644531 35 34L16 34C16.265625 29.644531 22.148438 30.277344 23 28.019531C23 27.082031 23.046875 26 23.046875 26L23 26C22.632813 25.816406 22.050781 24.644531 21.941406 23.65625C21.652344 23.632813 21.199219 23.363281 21.066406 22.304688C20.996094 21.734375 21.28125 21.414063 21.453125 21.3125C20.09375 18.414063 21.804688 15 26.5 15Z" />
</svg>