<?xml version="1.0" encoding="utf-8"?>
<svg xmlns="http://www.w3.org/2000/svg" viewBox="0 0 50 50" width="515" height="515">
  <path d="M25 2C17.8 2 12 7.8 12 15C12 24.5 23.699219 39.999609 24.199219 40.599609L25 41.599609L25.800781 40.599609C26.300781 39.999609 38 24.5 38 15C38 7.8 32.2 2 25 2 z M 25 11C27.2 11 29 12.8 29 15C29 17.2 27.2 19 25 19C22.8 19 21 17.2 21 15C21 12.8 22.8 11 25 11 z M 7.3007812 32L1.5996094 48L48.400391 48L42.699219 32L34 32C33.6 32.7 33.200781 33.4 32.800781 34L41.199219 34L45.5 46L4.4003906 46L8.6992188 34L17.099609 34C16.699609 33.4 16.300391 32.7 15.900391 32L7.3007812 32 z" />
</svg>