<?xml version="1.0" encoding="utf-8"?>
<svg xmlns="http://www.w3.org/2000/svg" viewBox="0 0 50 50" width="515" height="515">
  <path d="M24.9375 3C21.25 3.082031 18.558594 4.210938 16.933594 6.351563C15.003906 8.882813 14.554688 13.066406 15.765625 18.199219C15.351563 18.726563 14.980469 19.578125 15.078125 20.734375C15.375 22.898438 16.195313 23.789063 16.863281 24.152344C17.183594 25.871094 18.171875 27.824219 19.058594 28.753906L19.058594 32.308594C19.042969 32.34375 19.023438 32.375 19.007813 32.40625C18.957031 32.515625 18.898438 32.621094 18.828125 32.722656C18.804688 32.75 18.78125 32.78125 18.761719 32.808594C18.675781 32.921875 18.582031 33.035156 18.472656 33.140625C18.308594 33.304688 18.132813 33.460938 17.925781 33.609375L21.050781 37.414063L23.28125 34.640625L23.285156 34.644531L24.558594 33.074219L21.140625 31.042969C21.117188 31.027344 21.085938 31.027344 21.058594 31.015625L21.058594 28.300781L21.074219 27.730469L20.566406 27.441406C20.203125 27.179688 18.945313 25.195313 18.765625 23.308594L18.75 22.410156L17.84375 22.410156C17.703125 22.355469 17.253906 21.878906 17.066406 20.515625C16.996094 19.675781 17.425781 19.328125 17.421875 19.328125L18.011719 18.9375L17.839844 18.253906C16.625 13.46875 16.914063 9.671875 18.523438 7.558594C19.761719 5.929688 21.933594 5.066406 24.957031 5C26.847656 5 28.210938 5.476563 28.691406 6.304688L28.9375 6.71875L29.421875 6.789063C30.75 6.976563 31.425781 7.5625 32.03125 8.5625C33.480469 10.960938 33.226563 15.734375 32.359375 18.160156L32.042969 18.984375L32.835938 19.378906C32.925781 19.445313 33.164063 19.789063 33.105469 20.503906C32.96875 21.988281 32.5 22.382813 32.402344 22.402344L31.53125 22.402344L31.410156 23.257813C31.121094 25.269531 29.878906 27.179688 29.5625 27.433594L29.058594 27.71875L29.058594 30.570313L31.546875 28.082031C32.195313 27.058594 32.996094 25.550781 33.277344 24.1875C33.992188 23.847656 34.890625 22.960938 35.09375 20.683594C35.191406 19.558594 34.878906 18.730469 34.453125 18.195313C35.300781 15.46875 35.542969 10.503906 33.746094 7.53125C32.890625 6.121094 31.855469 5.226563 30.140625 4.882813C29.175781 3.664063 27.355469 3 24.9375 3 Z M 36.902344 28L36.402344 31.199219C36.101563 31.300781 35.699219 31.5 35.402344 31.597656L32.699219 29.699219L29.699219 32.699219L31.5 35.199219C31.300781 35.5 31.199219 35.902344 31.097656 36.300781L28 36.800781L28 41L31.097656 41.5C31.199219 41.800781 31.398438 42.199219 31.5 42.5L29.699219 45.199219L32.699219 48.199219L35.402344 46.402344C35.800781 46.601563 36.101563 46.699219 36.5 46.800781L36.902344 50L41.097656 50L41.597656 46.800781C41.898438 46.699219 42.300781 46.5 42.597656 46.402344L45.300781 48.199219L48.300781 45.199219L46.402344 42.597656C46.601563 42.300781 46.699219 41.898438 46.800781 41.597656L50 41L50 36.800781L46.800781 36.300781C46.699219 36 46.5 35.601563 46.402344 35.300781L48.199219 32.597656L45.300781 29.699219L42.699219 31.597656C42.398438 31.398438 42 31.300781 41.699219 31.199219L41.097656 28 Z M 16.140625 34.582031C15.523438 34.855469 14.855469 35.125 14.152344 35.40625C10.25 36.949219 5.394531 38.875 5.0625 44.945313L5 46L22.15625 46L22.15625 45.597656C22.15625 41.902344 24.558594 37.800781 24.558594 37.800781L23.800781 37.1875L21.839844 39.625C21.648438 39.859375 21.363281 39.996094 21.0625 40L21.058594 40C20.757813 40 20.476563 39.867188 20.285156 39.636719 Z M 39 36C40.699219 36 42 37.300781 42 39C42 40.699219 40.699219 42 39 42C37.300781 42 36 40.699219 36 39C36 37.300781 37.300781 36 39 36Z" />
</svg>