<?xml version="1.0" encoding="utf-8"?>
<svg xmlns="http://www.w3.org/2000/svg" viewBox="0 0 50 50" width="515" height="515">
  <path d="M6 4C4.9 4 4 4.9 4 6L4 44C4 45.1 4.9 46 6 46L44 46C45.1 46 46 45.1 46 44L46 6C46 4.9 45.1 4 44 4L6 4 z M 17.929688 14L20.650391 14L25.449219 36L23.009766 36L21.619141 29.570312L16.820312 29.570312L15.400391 36L13 36L17.929688 14 z M 19.230469 16.439453C18.970469 18.069453 18.650078 19.930391 18.330078 21.400391L17.230469 27L21.320312 27L20.189453 21.369141C19.869453 19.829141 19.580313 18.039453 19.320312 16.439453L19.230469 16.439453 z M 32.519531 20C36.859531 20 38 24.620312 38 27.070312L38 28.070312L29 28.070312C29 29.280313 29.190625 31.460781 30.390625 32.800781C31.120625 33.610781 32.099922 34 33.419922 34C34.939922 34 36.550547 33.240469 36.560547 33.230469L37.429688 35.029297C37.349688 35.069297 35.409922 36 33.419922 36C31.529922 36 30.010391 35.370859 28.900391 34.130859C26.680391 31.650859 26.989063 27.579766 27.039062 27.009766C27.059062 24.559766 28.219531 20 32.519531 20 z M 32.519531 22C30.029531 22 29.319141 24.590312 29.119141 26.070312L35.919922 26.070312C35.719922 24.590312 35.019531 22 32.519531 22 z" />
</svg>