<?xml version="1.0" encoding="utf-8"?>
<svg xmlns="http://www.w3.org/2000/svg" viewBox="0 0 50 50" width="515" height="515">
  <path d="M6 4C4.9 4 4 4.9 4 6L4 44C4 45.1 4.9 46 6 46L44 46C45.1 46 46 45.1 46 44L46 6C46 4.9 45.1 4 44 4L6 4 z M 19.929688 14L22.650391 14L27.449219 36L25.009766 36L23.619141 29.570312L18.820312 29.570312L17.400391 36L15 36L19.929688 14 z M 32.730469 14C33.660469 14 34.25 14.630547 34.25 15.560547C34.25 16.500547 33.660469 17.130859 32.730469 17.130859L32.699219 17.130859C31.879219 17.130859 31.25 16.500547 31.25 15.560547C31.25 14.630547 31.910469 14 32.730469 14 z M 21.230469 16.439453C20.970469 18.069453 20.650078 19.930391 20.330078 21.400391L19.230469 27L23.320312 27L22.189453 21.369141C21.869453 19.829141 21.580312 18.039453 21.320312 16.439453L21.230469 16.439453 z M 31.5 19L34 19L34 36L31.5 36L31.5 19 z" />
</svg>