<?xml version="1.0" encoding="utf-8"?>
<svg xmlns="http://www.w3.org/2000/svg" viewBox="0 0 50 50" width="515" height="515">
  <path d="M38.78125 13.96875C38.003906 14.042969 37.339844 14.566406 37.085938 15.304688C36.828125 16.046875 37.027344 16.867188 37.59375 17.40625L43.1875 23L16 23L16 27L43.1875 27L37.59375 32.59375C36.996094 33.074219 36.726563 33.851563 36.898438 34.597656C37.070313 35.347656 37.652344 35.929688 38.402344 36.101563C39.148438 36.273438 39.925781 36.003906 40.40625 35.40625L49.40625 26.40625C50.175781 25.628906 50.175781 24.371094 49.40625 23.59375L40.40625 14.59375C40.03125 14.199219 39.511719 13.972656 38.96875 13.96875C38.90625 13.964844 38.84375 13.964844 38.78125 13.96875 Z M 0 23L0 27L2 27L2 23 Z M 4 23L4 27L6 27L6 23 Z M 8 23L8 27L10 27L10 23 Z M 12 23L12 27L14 27L14 23Z" />
</svg>