<?xml version="1.0" encoding="utf-8"?>
<svg xmlns="http://www.w3.org/2000/svg" viewBox="0 0 50 50" width="515" height="515">
  <path d="M25 3C23.90625 3 23 3.90625 23 5C23 5.730469 23.40625 6.367188 24 6.71875L24 12.445313L16.714844 17L9.648438 17L10.046875 18.296875L14.261719 32L17.382813 32L18.550781 34.34375C18.867188 34.972656 19.382813 35.457031 20 35.734375L20 48L30 48L30 35.734375C30.617188 35.457031 31.128906 34.972656 31.449219 34.34375L32.617188 32L35.738281 32L40.355469 17L33.285156 17L26 12.445313L26 6.71875C26.59375 6.367188 27 5.730469 27 5C27 3.90625 26.09375 3 25 3 Z M 12.355469 19L24 19L24 30L15.738281 30 Z M 26 19L37.644531 19L34.261719 30L26 30Z" />
</svg>