<?xml version="1.0" encoding="utf-8"?>
<svg xmlns="http://www.w3.org/2000/svg" viewBox="0 0 50 50" width="515" height="515">
  <path d="M11 1C9.300781 1 8 2.300781 8 4L8 15.5C5.269531 14.65625 2.691406 14 1 14L1 16C2.605469 16 5.25 16.730469 8 17.59375L8 23.5C5.269531 22.65625 2.691406 22 1 22L1 24C2.605469 24 5.25 24.730469 8 25.59375L8 31.5C5.269531 30.65625 2.691406 30 1 30L1 32C2.605469 32 5.25 32.730469 8 33.59375L8 46C8 47.699219 9.300781 49 11 49L39 49C40.699219 49 42 47.699219 42 46L42 36.53125C41.40625 36.355469 40.796875 36.179688 40.1875 36C37.386719 35.101563 34.398438 34 32 34C30.101563 34 27.585938 35 25.1875 36C22.585938 37 20.101563 38 18 38C16.5 38 14.398438 37.511719 12 36.8125L12 34.8125C13.800781 35.335938 15.445313 35.734375 16.78125 35.90625C17.234375 35.976563 17.644531 36 18 36C18.210938 36 18.421875 35.996094 18.65625 35.96875C20.613281 35.796875 22.851563 34.898438 25.1875 34C27.25 33.140625 29.390625 32.285156 31.15625 32.0625C31.445313 32.03125 31.726563 32 32 32C32.472656 32 32.984375 32.050781 33.5 32.125C33.941406 32.1875 34.421875 32.300781 34.90625 32.40625C36.617188 32.808594 38.4375 33.4375 40.1875 34C43.585938 35 46.800781 36 49 36L49 34C47.429688 34 44.722656 33.230469 42 32.4375L42 28.53125C41.40625 28.359375 40.796875 28.179688 40.1875 28C37.085938 27 33.898438 26 32 26C30.101563 26 27.585938 27 25.1875 28C22.585938 29 20.101563 30 18 30C16.5 30 14.398438 29.511719 12 28.8125L12 26.8125C13.800781 27.335938 15.445313 27.734375 16.78125 27.90625C17.234375 27.976563 17.644531 28 18 28C18.210938 28 18.421875 27.996094 18.65625 27.96875C18.902344 27.945313 19.152344 27.886719 19.40625 27.84375C21.183594 27.542969 23.140625 26.785156 25.1875 26C27.167969 25.175781 29.214844 24.355469 30.9375 24.09375C31.011719 24.082031 31.085938 24.070313 31.15625 24.0625C31.445313 24.03125 31.726563 24 32 24C32.238281 24 32.503906 24 32.78125 24.03125C32.8125 24.035156 32.84375 24.027344 32.875 24.03125C34.800781 24.253906 37.515625 25.136719 40.1875 26C43.585938 27 46.800781 28 49 28L49 26C47.429688 26 44.722656 25.230469 42 24.4375L42 20.53125C41.40625 20.359375 40.796875 20.179688 40.1875 20C37.085938 19 33.898438 18 32 18C30.101563 18 27.585938 19 25.1875 20C22.585938 21 20.101563 22 18 22C16.5 22 14.398438 21.511719 12 20.8125L12 18.8125C13.800781 19.335938 15.445313 19.734375 16.78125 19.90625C17.234375 19.976563 17.644531 20 18 20C18.210938 20 18.421875 19.996094 18.65625 19.96875C20.613281 19.796875 22.851563 18.898438 25.1875 18C27.25 17.140625 29.390625 16.285156 31.15625 16.0625C31.445313 16.03125 31.726563 16 32 16C32.238281 16 32.503906 16 32.78125 16.03125C32.8125 16.035156 32.84375 16.027344 32.875 16.03125C34.800781 16.253906 37.515625 17.136719 40.1875 18C43.585938 19 46.800781 20 49 20L49 18C47.429688 18 44.722656 17.230469 42 16.4375L42 4C42 2.300781 40.699219 1 39 1Z" />
</svg>