<?xml version="1.0" encoding="utf-8"?>
<svg xmlns="http://www.w3.org/2000/svg" viewBox="0 0 50 50" width="515" height="515">
  <path d="M26.5 1C23.410156 1 20.21875 2.792969 18.6875 5.9375C18.203125 6.9375 18.625 8.140625 19.625 8.625C20.625 9.109375 21.828125 8.6875 22.3125 7.6875C23.058594 6.152344 25.171875 5 26.5 5C28.484375 5 31 6.527344 31 9.5C31 12.496094 28.496094 15 25.5 15L2 15C1.9375 14.996094 1.875 14.996094 1.8125 15C0.707031 15.050781 -0.144531 15.988281 -0.09375 17.09375C-0.0429688 18.199219 0.894531 19.050781 2 19L25.5 19C30.707031 19 35 14.707031 35 9.5C35 4.273438 30.59375 1 26.5 1 Z M 1.8125 23C0.707031 23.050781 -0.144531 23.988281 -0.09375 25.09375C-0.0429688 26.199219 0.894531 27.050781 2 27L38.40625 27C38.46875 27.003906 38.53125 27.003906 38.59375 27C42.722656 27.097656 46 30.4375 46 34.59375C46 36.640625 45.125 38.238281 43.8125 39.40625C42.5 40.574219 40.730469 41.1875 39.40625 41.1875C37.023438 41.1875 34.90625 40.671875 33.3125 37.09375C33.082031 36.359375 32.449219 35.820313 31.6875 35.710938C30.921875 35.601563 30.164063 35.941406 29.738281 36.585938C29.3125 37.226563 29.292969 38.058594 29.6875 38.71875C31.851563 43.574219 36.023438 45.1875 39.40625 45.1875C41.886719 45.1875 44.433594 44.183594 46.46875 42.375C48.503906 40.566406 50 37.847656 50 34.59375C50 28.328125 44.972656 23.214844 38.75 23.03125C38.699219 23.019531 38.644531 23.007813 38.59375 23C38.574219 23 38.550781 23 38.53125 23C38.488281 23 38.449219 23 38.40625 23L2 23C1.9375 22.996094 1.875 22.996094 1.8125 23 Z M 1.8125 30C0.707031 30.050781 -0.144531 30.988281 -0.09375 32.09375C-0.0429688 33.199219 0.894531 34.050781 2 34L13.5 34C13.5625 34.003906 13.625 34.003906 13.6875 34C16.597656 34.101563 19 36.566406 19 39.5C19 40.96875 18.417969 41.996094 17.53125 42.78125C16.644531 43.566406 15.417969 44 14.5 44C13.386719 44 11.964844 43.777344 10.5 41.8125C10.113281 41.148438 9.378906 40.765625 8.613281 40.824219C7.847656 40.886719 7.183594 41.382813 6.90625 42.097656C6.628906 42.8125 6.785156 43.625 7.3125 44.1875C9.523438 47.148438 12.472656 48 14.5 48C16.511719 48 18.554688 47.222656 20.1875 45.78125C21.820313 44.339844 23 42.128906 23 39.5C23 34.410156 18.890625 30.214844 13.84375 30.03125C13.800781 30.019531 13.761719 30.007813 13.71875 30C13.6875 30 13.65625 30 13.625 30C13.582031 30 13.542969 30 13.5 30L2 30C1.9375 29.996094 1.875 29.996094 1.8125 30Z" />
</svg>