<?xml version="1.0" encoding="utf-8"?>
<svg xmlns="http://www.w3.org/2000/svg" viewBox="0 0 50 50" width="515" height="515">
  <path d="M5.625 3.1875C4.765625 3.1875 4.058594 3.703125 3.71875 4.5625L0.21875 13.53125C-1.667969 18.363281 8.15625 23.34375 16.71875 26.6875L18.40625 27.375L6.8125 35.1875C6.058594 35.636719 5.074219 36.339844 5.15625 37.34375C5.199219 37.875 5.519531 38.316406 6.0625 38.53125L7.84375 39.21875C8.308594 39.398438 8.910156 39.5 9.625 39.5C10.664063 39.5 11.785156 39.308594 12.71875 38.96875L31.25 32.28125C40.347656 35.644531 45.644531 37.21875 47.875 37.21875C48.871094 37.21875 49.5 36.894531 49.75 36.25C50.714844 33.78125 48.960938 28.003906 42.0625 25.3125C42.0625 25.3125 11.074219 13.214844 10.125 12.84375C9.78125 12.710938 9.691406 12.535156 9.53125 11.40625C9.382813 10.394531 8.867188 7.019531 8.75 6.03125C8.570313 4.601563 7.023438 3.1875 5.625 3.1875 Z M 18.71875 4.84375C18.25 4.8125 17.808594 5.003906 17.53125 5.375C17.128906 5.917969 17.097656 6.742188 17.4375 7.875L18.9375 14.125C22.007813 15.324219 25.613281 16.746094 29.0625 18.09375L24.375 9.15625C23.6875 7.835938 22.238281 6.164063 20.9375 5.65625L19.1875 4.96875C19.03125 4.90625 18.875 4.855469 18.71875 4.84375 Z M 33.03125 35.0625C33.011719 35.207031 33 35.351563 33 35.5C33 37.429688 34.570313 39 36.5 39C37.773438 39 38.886719 38.300781 39.5 37.28125C37.652344 36.6875 35.511719 35.957031 33.03125 35.0625Z" />
</svg>