<?xml version="1.0" encoding="utf-8"?>
<svg xmlns="http://www.w3.org/2000/svg" width="515" height="515" viewBox="0 0 50 50">
  <path d="M38.029297 2.0039062C36.849447 1.9981848 35.661094 2.2002344 34.519531 2.6230469L32.957031 3.234375L45.677734 15.951172L46.794922 16.970703L47.347656 15.535156C47.378656 15.465156 47.408594 15.394266 47.433594 15.322266C48.701594 11.712266 47.773313 7.6336875 45.070312 4.9296875C43.175563 3.0363125 40.624967 2.0164934 38.029297 2.0039062 z M 12.554688 2.0175781C9.757375 1.8701094 6.9569375 2.9016875 4.9296875 4.9296875C2.1746875 7.6846875 1.2680937 11.825516 2.6210938 15.478516L3.2324219 17.039062L15.951172 4.3203125L16.964844 3.2109375L15.539062 2.6523438C15.467063 2.6213437 15.396266 2.5904531 15.322266 2.5644531C14.419516 2.2469531 13.487125 2.0667344 12.554688 2.0175781 z M 25 6C13.42 6 4 15.42 4 27C4 38.58 13.42 48 25 48C36.58 48 46 38.58 46 27C46 15.42 36.58 6 25 6 z M 25 12C25.552 12 26 12.448 26 13L26 27C26 27.552 25.552 28 25 28L17 28C16.448 28 16 27.552 16 27C16 26.448 16.448 26 17 26L24 26L24 13C24 12.448 24.448 12 25 12 z M 8.5429688 43.044922L5.2929688 46.292969C4.9019687 46.683969 4.9019688 47.316031 5.2929688 47.707031C5.4879688 47.902031 5.744 48 6 48C6.256 48 6.5120312 47.902031 6.7070312 47.707031L10 44.414062C9.495 43.978063 9.0089688 43.522922 8.5429688 43.044922 z M 41.457031 43.044922C40.991031 43.522922 40.505 43.978063 40 44.414062L43.292969 47.707031C43.487969 47.902031 43.744 48 44 48C44.256 48 44.512031 47.902031 44.707031 47.707031C45.098031 47.316031 45.098031 46.683969 44.707031 46.292969L41.457031 43.044922 z" />
</svg>