<?xml version="1.0" encoding="utf-8"?>
<svg xmlns="http://www.w3.org/2000/svg" viewBox="0 0 50 50" width="515" height="515">
  <path d="M15.9375 1.96875C15.679688 1.964844 15.441406 2.066406 15.25 2.25C14.511719 2.953125 13.273438 4.355469 12.25 5.5625C11.871094 6.007813 12.011719 6.671875 12.53125 6.9375C14.066406 7.722656 16.96875 9.527344 19.4375 12.84375C19.765625 13.285156 19.691406 13.921875 19.25 14.25C19.070313 14.382813 18.863281 14.4375 18.65625 14.4375C18.351563 14.4375 18.039063 14.296875 17.84375 14.03125C15.480469 10.851563 12.480469 9.164063 10.90625 8.4375C10.832031 8.402344 10.765625 8.394531 10.6875 8.375C9.925781 8.882813 8.839844 9.644531 7.6875 10.59375C6.234375 12.269531 4.730469 14.238281 3.6875 16.625C3.507813 17.035156 3.652344 17.507813 4 17.78125C6.25 19.035156 9.335938 20.820313 11.1875 22.46875C7.070313 23.390625 3.761719 27.089844 1.28125 30.6875C1.136719 30.902344 1.023438 31.085938 0.90625 31.25C0.636719 31.621094 0.628906 32.113281 0.875 32.5C1.886719 34.09375 4.445313 38.148438 4.46875 38.1875C4.632813 38.457031 4.902344 38.628906 5.21875 38.65625C5.402344 38.675781 5.589844 38.640625 5.75 38.5625C6.855469 37.4375 8.332031 36 9.40625 35.28125C8.894531 36.746094 8.96875 39.5625 8.96875 39.5625L9 40.25C9.132813 40.503906 9.363281 40.683594 9.65625 40.75L14.25 41.8125C14.296875 41.824219 14.328125 41.808594 14.375 41.8125C15.851563 43.183594 18.238281 44.40625 22.125 44.8125C22.898438 45.574219 23.917969 46 25 46C26.074219 46 27.105469 45.570313 27.875 44.8125C31.785156 44.417969 34.179688 43.199219 35.65625 41.8125C35.777344 41.8125 35.914063 41.796875 36.03125 41.75L40.21875 40.09375C40.601563 39.945313 40.84375 39.566406 40.84375 39.15625C40.742188 37.960938 40.535156 36.039063 40 34.5625C40.910156 34.894531 42.71875 36.097656 44.0625 37.03125C44.105469 37.046875 44.125 37.039063 44.15625 37.0625C44.582031 37.378906 45.191406 37.308594 45.53125 36.90625C45.550781 36.882813 47.628906 34.359375 49 32.6875C49.4375 32.15625 49.390625 31.359375 48.875 30.90625C48.4375 30.523438 47.886719 30.050781 47.3125 29.59375C44.578125 27.597656 42.03125 26.5625 42.03125 26.5625L47.34375 26.5C47.601563 26.472656 47.835938 26.359375 48 26.15625C48.1875 25.929688 48.273438 25.632813 48.21875 25.34375L47.5625 22.3125C47.496094 21.960938 47.226563 21.683594 46.90625 21.5625C44.90625 21.578125 41.566406 21.605469 40.125 21.65625C41.269531 20.660156 43.472656 19.289063 45.0625 18.34375C45.070313 18.328125 45.09375 18.3125 45.09375 18.3125C45.328125 18.1875 45.515625 17.976563 45.59375 17.71875C45.667969 17.460938 45.628906 17.171875 45.5 16.9375C44.628906 15.34375 41.429688 8.988281 39.625 7.8125C39.371094 7.648438 39.066406 7.597656 38.78125 7.6875C33.988281 9.542969 32.867188 12.011719 31.875 12.9375C32.640625 11.175781 33.847656 8.84375 34.6875 7.21875C34.679688 7.210938 34.65625 7.1875 34.65625 7.1875C34.832031 6.847656 34.789063 6.433594 34.5625 6.125C34.375 5.871094 33.40625 4.371094 32.21875 3.5C31.890625 3.257813 31.441406 3.222656 31.09375 3.4375C30.265625 3.953125 28.449219 6.121094 27.96875 8.375C27.976563 7.328125 28.03125 3.484375 28.03125 3.46875C28.050781 2.917969 27.644531 2.457031 27.09375 2.4375L23.1875 2.1875C22.882813 2.179688 22.605469 2.300781 22.40625 2.53125C22.3125 2.636719 22.226563 2.773438 22.1875 2.90625L23.4375 9.71875C23.4375 9.71875 20.933594 4.507813 16.75 2.1875C16.554688 2.113281 16.390625 2.046875 16.21875 2C16.132813 1.976563 16.023438 1.96875 15.9375 1.96875 Z M 25.15625 17C29.140625 17.046875 32.035156 18.820313 33 19.5C33.023438 22.300781 33.234375 24.890625 33.65625 27.4375C33.742188 27.957031 34.230469 28.324219 34.75 28.28125C34.761719 28.28125 34.894531 28.25 34.90625 28.25C35.792969 28.25 36.53125 28.988281 36.53125 29.875C36.53125 30.546875 36.082031 31.144531 35.4375 31.375C34.941406 31.554688 34.664063 32.085938 34.8125 32.59375C35.035156 33.367188 35.25 34.042969 35.4375 34.625C35.734375 35.546875 36 36.335938 36 36.6875C36 37.960938 35.375 42.191406 27.3125 42.875C27.042969 42.898438 26.796875 43.011719 26.625 43.21875C25.796875 44.210938 24.195313 44.214844 23.375 43.21875C23.203125 43.011719 22.953125 42.867188 22.6875 42.84375C14.425781 42.109375 14 37.585938 14 36.6875C14 36.128906 14.339844 34.964844 14.71875 33.625L15.03125 32.53125C15.164063 32.050781 14.898438 31.542969 14.4375 31.34375C13.847656 31.089844 13.46875 30.519531 13.46875 29.875C13.46875 28.988281 14.207031 28.253906 15.03125 28.25C15.058594 28.253906 15.128906 28.277344 15.15625 28.28125C15.679688 28.300781 16.125 27.964844 16.21875 27.46875C16.703125 24.855469 16.960938 22.292969 17 19.71875C18.367188 19.28125 21.5625 18.257813 25.15625 17 Z M 22.8125 22.0625C22.78125 22.070313 22.75 22.082031 22.71875 22.09375C22.632813 22.113281 22.546875 22.144531 22.46875 22.1875L18.28125 24.28125C17.949219 24.433594 17.722656 24.757813 17.699219 25.125C17.675781 25.488281 17.855469 25.839844 18.164063 26.035156C18.476563 26.230469 18.867188 26.242188 19.1875 26.0625L23.375 23.96875C23.84375 23.769531 24.089844 23.253906 23.945313 22.765625C23.800781 22.277344 23.3125 21.972656 22.8125 22.0625 Z M 26.9375 23.125C26.453125 23.183594 26.085938 23.582031 26.0625 24.070313C26.039063 24.554688 26.367188 24.988281 26.84375 25.09375L31.03125 26.15625C31.390625 26.273438 31.785156 26.183594 32.050781 25.917969C32.316406 25.652344 32.414063 25.257813 32.296875 24.898438C32.179688 24.539063 31.871094 24.277344 31.5 24.21875L27.34375 23.15625C27.210938 23.117188 27.074219 23.109375 26.9375 23.125 Z M 20.71875 28.125C20.070313 28.125 19.53125 28.632813 19.53125 29.28125C19.53125 29.929688 20.070313 30.46875 20.71875 30.46875C21.367188 30.46875 21.875 29.929688 21.875 29.28125C21.875 28.632813 21.367188 28.125 20.71875 28.125 Z M 28.90625 28.125C28.257813 28.125 27.75 28.632813 27.75 29.28125C27.75 29.929688 28.257813 30.46875 28.90625 30.46875C29.554688 30.46875 30.09375 29.929688 30.09375 29.28125C30.09375 28.632813 29.554688 28.125 28.90625 28.125 Z M 21.875 33.53125C17.054688 34.707031 16.65625 38.75 16.65625 38.75L33.34375 38.75C33.34375 38.75 33.402344 34.921875 28.125 33.53125C28.125 33.53125 27.054688 35.59375 25 35.59375C22.945313 35.59375 21.875 33.53125 21.875 33.53125Z" />
</svg>