<?xml version="1.0" encoding="utf-8"?>
<svg xmlns="http://www.w3.org/2000/svg" viewBox="0 0 50 50" width="515" height="515">
  <path d="M25.3125 3C19.210938 3 12.492188 5.3125 11.09375 12.8125C10.894531 13.613281 11.5 13.992188 12 14.09375L18.1875 14.6875C18.789063 14.6875 19.207031 14.101563 19.40625 13.5C19.90625 10.898438 22.101563 9.59375 24.5 9.59375C25.800781 9.59375 27.292969 10.113281 28.09375 11.3125C28.992188 12.613281 28.8125 14.40625 28.8125 15.90625L28.8125 16.8125C25.113281 17.210938 20.3125 17.5 16.8125 19C12.8125 20.699219 10 24.207031 10 29.40625C10 36.007813 14.199219 39.3125 19.5 39.3125C24 39.3125 26.5 38.195313 30 34.59375C31.199219 36.292969 31.585938 37.105469 33.6875 38.90625C34.1875 39.207031 34.789063 39.085938 35.1875 38.6875L35.1875 38.8125C36.488281 37.710938 38.792969 35.601563 40.09375 34.5C40.59375 34.199219 40.492188 33.5 40.09375 33C38.894531 31.398438 37.6875 30.09375 37.6875 27.09375L37.6875 17.1875C37.6875 12.988281 38.007813 9.085938 34.90625 6.1875C32.40625 3.789063 28.414063 3 25.3125 3 Z M 27 22L28.6875 22L28.6875 23.40625C28.6875 25.804688 28.792969 27.894531 27.59375 30.09375C26.59375 31.894531 24.988281 33 23.1875 33C20.789063 33 19.3125 31.207031 19.3125 28.40625C19.3125 23.707031 23 22.300781 27 22 Z M 44.59375 36.59375C42.992188 36.59375 41.085938 37 39.6875 38C39.289063 38.300781 39.3125 38.6875 39.8125 38.6875C41.414063 38.488281 44.988281 38.007813 45.6875 38.90625C46.289063 39.707031 45.007813 43.085938 44.40625 44.6875C44.207031 45.1875 44.601563 45.300781 45 45C47.699219 42.699219 48.40625 38.007813 47.90625 37.40625C47.605469 36.90625 46.195313 36.59375 44.59375 36.59375 Z M 2.1875 37.5C1.886719 37.5 1.695313 38.011719 2.09375 38.3125C8.09375 43.710938 16.007813 47 24.90625 47C31.207031 47 38.492188 45.011719 43.59375 41.3125C44.394531 40.710938 43.707031 39.695313 42.90625 40.09375C37.207031 42.492188 31.101563 43.6875 25.5 43.6875C17.199219 43.6875 9.1875 41.386719 2.6875 37.6875C2.488281 37.488281 2.289063 37.5 2.1875 37.5Z" />
</svg>