<?xml version="1.0" encoding="utf-8"?>
<svg xmlns="http://www.w3.org/2000/svg" viewBox="0 0 50 50" width="515" height="515">
  <path d="M26 6C23.8 6 22 7.8 22 10L22 11L30 11L30 10C30 7.8 28.2 6 26 6 z M 4.8007812 13C3.3007812 13 2 14.200781 2 15.800781L2 40.300781C2 41.800781 3.3007813 43 4.8007812 43L7 43C7 44.472222 7.4853474 45.957881 8.5019531 47.101562C9.5185588 48.245244 11.083334 49 13 49C16.301865 49 19 46.301863 19 43L31 43C31 44.472222 31.485347 45.957881 32.501953 47.101562C33.518559 48.245244 35.083334 49 37 49C40.301865 49 43 46.301863 43 43L45.199219 43C46.699219 43 48 41.799219 48 40.199219L48 33.199219C48 31.299219 46.6 29.399219 46.5 29.199219L37.5 15.199219L37.400391 15.099609L37.199219 14.900391C36.399219 14.000391 35.6 13 34 13L4.8007812 13 z M 30 18L36.800781 18L44 29L30 29L30 18 z M 15 21L17 21L17 25L21 25L21 27L17 27L17 31L15 31L15 27L11 27L11 25L15 25L15 21 z M 13 39C15.220986 39 17 40.779015 17 43C17 45.220985 15.220986 47 13 47C11.583334 47 10.648107 46.504755 9.9980469 45.773438C9.3479866 45.042119 9 44.027778 9 43C9 41.972222 9.3479866 40.957882 9.9980469 40.226562C10.648107 39.495244 11.583334 39 13 39 z M 37 39C39.220986 39 41 40.779015 41 43C41 45.220985 39.220986 47 37 47C35.583334 47 34.648107 46.504755 33.998047 45.773438C33.347987 45.042119 33 44.027778 33 43C33 41.972222 33.347987 40.957882 33.998047 40.226562C34.648107 39.495244 35.583334 39 37 39 z" />
</svg>