<?xml version="1.0" encoding="utf-8"?>
<svg xmlns="http://www.w3.org/2000/svg" viewBox="0 0 50 50" width="515" height="515">
  <path d="M6 0C5.449219 0 5 0.449219 5 1L5 44C5 44.554688 5.449219 45 6 45L25.8125 45C27.914063 46.261719 30.375 47 33 47C36.503906 47 39.699219 45.695313 42.15625 43.5625L48.59375 50L50 48.59375L43.59375 42.15625C45.71875 39.699219 47 36.496094 47 33C47 28.253906 44.621094 24.066406 41 21.53125L41 1C41 0.449219 40.554688 0 40 0 Z M 14 10L33 10L33 12L14 12 Z M 14 16L33 16L33 18L14 18 Z M 33 21C39.617188 21 45 26.382813 45 33C45 39.617188 39.617188 45 33 45C26.382813 45 21 39.617188 21 33C21 26.382813 26.382813 21 33 21 Z M 14 22L24.375 22C23.617188 22.59375 22.933594 23.265625 22.3125 24L14 24 Z M 25 27C24.300781 27.898438 23.800781 28.898438 23.5 30L38 30L38 27 Z M 14 28L19.9375 28C19.691406 28.644531 19.464844 29.3125 19.3125 30L14 30 Z M 14 34L19.0625 34C19.113281 34.683594 19.199219 35.347656 19.34375 36L14 36 Z M 23.1875 35C23.386719 36.101563 23.8125 37.101563 24.3125 38L38 38L38 35Z" />
</svg>