<?xml version="1.0" encoding="utf-8"?>
<svg xmlns="http://www.w3.org/2000/svg" viewBox="0 0 50 50" width="515" height="515">
  <path d="M15 3C13.347656 3 12 4.347656 12 6L12 44C12 45.652344 13.347656 47 15 47L35 47C36.652344 47 38 45.652344 38 44L38 6C38 4.347656 36.652344 3 35 3 Z M 14 10L36 10L36 39L14 39 Z M 22.40625 15.96875C22.382813 15.976563 22.363281 15.988281 22.34375 16C22.203125 16.046875 22.089844 16.152344 22.035156 16.292969C21.980469 16.433594 21.988281 16.589844 22.0625 16.71875L22.59375 17.8125C21.625 18.535156 21 19.671875 21 21L29 21C29 19.671875 28.375 18.535156 27.40625 17.8125L27.9375 16.71875C28.03125 16.542969 28.011719 16.332031 27.890625 16.175781C27.769531 16.023438 27.566406 15.953125 27.375 16C27.234375 16.042969 27.121094 16.144531 27.0625 16.28125L26.5625 17.3125C26.082031 17.113281 25.5625 17 25 17C24.4375 17 23.917969 17.113281 23.4375 17.3125L22.9375 16.28125C22.859375 16.089844 22.675781 15.964844 22.46875 15.96875C22.449219 15.96875 22.425781 15.96875 22.40625 15.96875 Z M 18.90625 19.96875C18.863281 19.976563 18.820313 19.988281 18.78125 20C18.316406 20.105469 17.988281 20.523438 18 21L18 26C17.996094 26.359375 18.183594 26.695313 18.496094 26.878906C18.808594 27.058594 19.191406 27.058594 19.503906 26.878906C19.816406 26.695313 20.003906 26.359375 20 26L20 21C20.011719 20.710938 19.894531 20.433594 19.6875 20.238281C19.476563 20.039063 19.191406 19.941406 18.90625 19.96875 Z M 30.90625 19.96875C30.863281 19.976563 30.820313 19.988281 30.78125 20C30.316406 20.105469 29.988281 20.523438 30 21L30 26C29.996094 26.359375 30.183594 26.695313 30.496094 26.878906C30.808594 27.058594 31.191406 27.058594 31.503906 26.878906C31.816406 26.695313 32.003906 26.359375 32 26L32 21C32.011719 20.710938 31.894531 20.433594 31.6875 20.238281C31.476563 20.039063 31.191406 19.941406 30.90625 19.96875 Z M 21 22L21 27C21 27.789063 21.386719 28.421875 22 28.75L22 31C21.996094 31.359375 22.183594 31.695313 22.496094 31.878906C22.808594 32.058594 23.191406 32.058594 23.503906 31.878906C23.816406 31.695313 24.003906 31.359375 24 31L24 29L26 29L26 31C25.996094 31.359375 26.183594 31.695313 26.496094 31.878906C26.808594 32.058594 27.191406 32.058594 27.503906 31.878906C27.816406 31.695313 28.003906 31.359375 28 31L28 28.75C28.613281 28.421875 29 27.789063 29 27L29 22 Z M 22 42L28 42C28.554688 42 29 42.445313 29 43C29 43.554688 28.554688 44 28 44L22 44C21.449219 44 21 43.554688 21 43C21 42.445313 21.449219 42 22 42Z" />
</svg>