<?xml version="1.0" encoding="utf-8"?>
<svg xmlns="http://www.w3.org/2000/svg" viewBox="0 0 50 50" width="515" height="515">
  <path d="M25 3C11.398438 3 8 15.300781 8 19L8 27L10 27L10 30L12.800781 30C13.902344 31.101563 15.5 32.300781 17 33.300781L17.097656 33.402344C18.238281 34.273438 19.167969 34.9375 20 35.511719L20 40C20 40.300781 19.898438 40.601563 19.597656 40.800781L17.597656 42.097656L6.699219 45C6.199219 45.101563 5.898438 45.699219 6 46.199219C6.101563 46.699219 6.699219 47 7.199219 46.902344L18.199219 43.902344C18.300781 43.902344 18.398438 43.800781 18.5 43.800781L20.699219 42.402344C20.699219 42.402344 20.800781 42.402344 20.800781 42.300781C21.5 41.699219 22 40.800781 22 39.902344L22 36.8125C23.992188 37.988281 24.683594 38 25 38C25.316406 38 26.007813 37.988281 28 36.8125L28 40C28 40.898438 28.398438 41.800781 29.199219 42.402344C29.199219 42.402344 29.300781 42.398438 29.300781 42.5L31.5 43.902344C31.601563 44 31.699219 44 31.800781 44L42.800781 47L43.097656 47C43.5 47 43.898438 46.699219 44.097656 46.300781C44.097656 45.699219 43.800781 45.199219 43.300781 45L32.402344 42L30.402344 40.699219C30.101563 40.597656 30 40.300781 30 40L30 35.511719C30.832031 34.9375 31.761719 34.273438 32.902344 33.402344L33 33.300781C34.5 32.300781 36.097656 31.199219 37.199219 30L40 30L40 27L42 27L42 19C42 15.300781 38.601563 3 25 3 Z M 29.5 13.699219C29.699219 15.699219 30.097656 18.199219 30.199219 19.097656L30.300781 20C31.101563 19.699219 32.398438 18.5 33 17.199219C33.699219 19.097656 34.398438 21.300781 34.699219 22.699219C34.300781 25.800781 33.398438 28.800781 32.597656 30.699219C32.398438 31.097656 32.097656 31.402344 31.699219 31.800781C27.398438 35.101563 25.398438 36 25 36C24.601563 36 22.601563 35.101563 18.402344 31.800781C18.101563 31.5 17.800781 31.097656 17.597656 30.699219C16.898438 29.199219 15.902344 26.097656 15.402344 22.597656C15.800781 21.699219 17 19.402344 18.097656 17.300781C18.097656 17.300781 18 20.300781 18 21C19.398438 20.800781 22.597656 17.699219 23.699219 15.902344L23 20.699219L24.402344 19.597656C24.601563 19.5 27.5 17.199219 29.5 13.699219 Z M 16 22C16 22 16.300781 23 17 23.597656L17 24C17 24.601563 17.5 25.898438 18 26L21 26C21.5 25.800781 22 24.601563 22 24L22 23C21.699219 22.800781 20.5 22.199219 17.5 22 Z M 32.5 22C29.5 22.101563 28.300781 22.699219 28 23L28 24C28 24.601563 28.5 25.800781 29 26L32 26C32.5 25.898438 33 24.601563 33 24L33 23.597656C33.699219 23 34 22 34 22 Z M 20.5 23C20.800781 23 21 23.199219 21 23.5C21 23.800781 20.800781 24 20.5 24C20.199219 24 20 23.800781 20 23.5C20 23.199219 20.199219 23 20.5 23 Z M 31.5 23C31.800781 23 32 23.199219 32 23.5C32 23.800781 31.800781 24 31.5 24C31.199219 24 31 23.800781 31 23.5C31 23.199219 31.199219 23 31.5 23 Z M 25 31C23.601563 31 23 31.699219 23 32L27 32C27 31.800781 26.398438 31 25 31Z" />
</svg>