<?xml version="1.0" encoding="utf-8"?>
<svg xmlns="http://www.w3.org/2000/svg" viewBox="0 0 50 50" width="515" height="515">
  <path d="M25 2C15.058594 2 7 4.6875 7 8C7 8 7 16.082031 7 25C7 30.082031 12.417969 44.082031 25 47C37.582031 44.082031 43 30.082031 43 25C43 16.082031 43 8 43 8C43 4.6875 34.941406 2 25 2 Z M 17 11C20.4375 11 22.195313 14.074219 22.5625 14.4375C23.148438 15.023438 23.148438 15.976563 22.5625 16.558594C21.976563 17.144531 21.023438 17.144531 20.441406 16.558594C20.027344 16.148438 18.6875 13 16 13C14.613281 13 12.953125 13.640625 11 15C12.855469 11.878906 15.003906 11 17 11 Z M 20 18.5C19.082031 19.40625 17.640625 20 16 20C14.359375 20 12.917969 19.40625 12 18.5C12.917969 17.59375 14.359375 17 16 17C17.640625 17 19.082031 17.59375 20 18.5 Z M 27 43L25 45L23 43L23 38L27 38 Z M 34 34L27 34L25 32L23 34L16 34L11 26L17 31L21 31L24 28L26 28L29 31L33 31L39 26 Z M 30 18.5C30.917969 17.59375 32.359375 17 34 17C35.640625 17 37.082031 17.59375 38 18.5C37.082031 19.40625 35.640625 20 34 20C32.359375 20 30.917969 19.40625 30 18.5 Z M 34 13C31.3125 13 29.972656 16.148438 29.5625 16.5625C28.976563 17.148438 28.023438 17.148438 27.441406 16.5625C26.855469 15.976563 26.855469 15.023438 27.441406 14.441406C27.804688 14.074219 29.5625 11 33 11C34.996094 11 37.144531 11.878906 39 15C37.046875 13.640625 35.386719 13 34 13Z" />
</svg>