<?xml version="1.0" encoding="utf-8"?>
<svg xmlns="http://www.w3.org/2000/svg" viewBox="0 0 50 50" width="515" height="515">
  <path d="M9 4C6.24 4 4 6.24 4 9L4 41C4 43.76 6.24 46 9 46L41 46C43.76 46 46 43.76 46 41L46 9C46 6.24 43.76 4 41 4L9 4 z M 25 10C33.27 10 40 16.73 40 25C40 33.27 33.27 40 25 40C16.73 40 10 33.27 10 25C10 16.73 16.73 10 25 10 z M 25 12C17.83 12 12 17.83 12 25C12 32.17 17.83 38 25 38C32.17 38 38 32.17 38 25C38 17.83 32.17 12 25 12 z M 24.361328 16.003906C24.507109 15.986562 24.657734 16.052188 24.740234 16.179688C25.530234 17.439688 28.36 21.920625 30 25.140625L28.390625 26.009766C26.670625 22.789766 24.619062 17.960547 24.039062 16.560547C23.959063 16.370547 24.040703 16.140781 24.220703 16.050781C24.265703 16.025781 24.312734 16.009688 24.361328 16.003906 z M 23.939453 19C24.119453 19 24.300703 19.040625 24.470703 19.140625C24.820703 19.340625 25.009766 19.700313 25.009766 20.070312C25.009766 20.250312 24.969141 20.439375 24.869141 20.609375L24.859375 20.609375L23.009766 19.539062C23.209766 19.189063 23.569453 19 23.939453 19 z M 22.849609 19.810547L24.710938 20.880859L23.75 22.550781L21.890625 21.480469L22.849609 19.810547 z M 21.759766 21.699219L23.619141 22.769531L19.679688 29.580078L17.830078 28.509766L21.759766 21.699219 z M 16 24L19.859375 24L18.130859 27L16 27L16 24 z M 23.480469 24L26.919922 24C27.289922 24.77 27.669297 25.519219 28.029297 26.199219L28.550781 27L21.75 27L23.480469 24 z M 29.849609 24L34 24L34 27L31.189453 27L30.369141 24.990234C30.209141 24.670234 30.029609 24.34 29.849609 24 z M 30.109375 25.359375L30.980469 27.429688L29.710938 28.119141L28.5 26.230469L30.109375 25.359375 z M 31.060547 27.75L32.839844 30.490234C33.149844 30.970234 32.990234 31.620625 32.490234 31.890625C32.350234 31.970625 32.189062 32 32.039062 32C31.669062 32 31.310156 31.780391 31.160156 31.400391L29.919922 28.369141L31.060547 27.75 z M 17.689453 28.75L19.550781 29.820312L17.150391 32L17 31.910156L17.689453 28.75 z" />
</svg>