<?xml version="1.0" encoding="utf-8"?>
<svg xmlns="http://www.w3.org/2000/svg" viewBox="0 0 50 50" width="515" height="515">
  <path d="M25 0C23.019531 0 21.226563 0.945313 18.75 2.25C15.558594 3.929688 11.183594 6.21875 3.78125 7.84375L3 8.03125L3 8.8125C3 39.277344 24.378906 49.496094 24.59375 49.59375L25.03125 49.8125L25.4375 49.59375C25.652344 49.484375 47 38.261719 47 8.8125L47 8.03125L46.21875 7.84375C38.816406 6.21875 34.441406 3.929688 31.25 2.25C28.773438 0.945313 26.980469 0 25 0 Z M 16 14L34 14C34.550781 14 35 14.449219 35 15L35 16L15 16L15 15C15 14.449219 15.449219 14 16 14 Z M 32 16C32.550781 16 33 15.550781 33 15C33 14.449219 32.550781 14 32 14C31.449219 14 31 14.449219 31 15C31 15.550781 31.449219 16 32 16 Z M 15 18L35 18L35 30C35 30.550781 34.550781 31 34 31L16 31C15.449219 31 15 30.550781 15 30Z" />
</svg>