<?xml version="1.0" encoding="utf-8"?>
<svg xmlns="http://www.w3.org/2000/svg" viewBox="0 0 50 50" width="515" height="515">
  <path d="M9.984375 15.001953C9.149375 15.041953 8.1182969 15.573313 7.5292969 16.320312C6.9892969 16.964312 6.5275313 18.010188 6.6445312 18.992188C7.5875313 19.074188 8.5301406 18.500438 9.1191406 17.773438C9.6991406 17.026437 10.082375 16.024953 9.984375 15.001953 z M 18 17L18 32L20.375 32L20.375 27L23.625 27C26.608 27 28.75 24.925 28.75 22C28.75 19.075 26.647125 17 23.703125 17L18 17 z M 20.375 19L23.125 19C25.172 19 26.375 20.105 26.375 22C26.375 23.895 25.182 25 23.125 25L20.375 25L20.375 19 z M 9.875 19.5C8.5 19.5 7.517 20.25 6.875 20.25C6.223 20.25 5.25 19.509766 4.125 19.509766C2.75 19.509766 1.4033594 20.372859 0.69335938 21.630859C-0.76564063 24.145859 0.31460937 27.869016 1.7246094 29.916016C2.4156094 30.930016 3.25 32 4.375 32C5.406 31.961 5.755 31.375 7 31.375C8.254 31.375 8.625 32 9.75 32C10.875 32 11.556094 30.969078 12.246094 29.955078C13.034094 28.805078 13.356 27.684 13.375 27.625C13.356 27.606 11.197734 26.77725 11.177734 24.28125C11.158734 22.19525 12.879031 21.200578 12.957031 21.142578C11.984031 19.700578 10.375 19.5 10 19.5L9.875 19.5 z M 34.199219 21C31.710219 21 29.870734 22.395453 29.802734 24.314453L31.912109 24.314453C32.086109 23.402453 32.948859 22.804688 34.130859 22.804688C35.563859 22.804688 36.373047 23.460969 36.373047 24.667969L36.375 25.5L33.443359 25.654297C30.722359 25.815297 29.25 26.908594 29.25 28.808594C29.25 30.727594 30.770219 32.001953 32.949219 32.001953C34.421219 32.001953 35.78725 31.270328 36.40625 30.111328L36.455078 30.111328L36.455078 31.886719L38.623047 31.886719L38.623047 24.515625C38.624047 22.376625 36.882219 21 34.199219 21 z M 39.5 21L43.507812 31.949219L43.292969 32.615234C42.930969 33.744234 42.344828 34.177734 41.298828 34.177734C41.119828 34.177734 40.781 34.159625 40.625 34.140625L40.625 35.945312C40.783 35.980313 41.332906 36 41.503906 36C43.810906 36 44.896703 35.132047 45.845703 32.498047L50 21L47.595703 21L44.808594 29.884766L44.759766 29.884766L41.972656 21L39.5 21 z M 36.375 27L36.367188 27.867188C36.367188 29.254188 35.166125 30.242188 33.578125 30.242188C32.329125 30.242188 31.535156 29.653953 31.535156 28.751953C31.535156 27.820953 32.300672 27.279359 33.763672 27.193359L36.375 27 z" />
</svg>