<?xml version="1.0" encoding="utf-8"?>
<svg xmlns="http://www.w3.org/2000/svg" viewBox="0 0 50 50" width="515" height="515">
  <path d="M28 39C27.847656 39 27.695313 38.964844 27.558594 38.894531C27.214844 38.726563 27 38.382813 27 38L27 30L5 30C4.449219 30 4 29.554688 4 29L4 21C4 20.449219 4.449219 20 5 20L27 20L27 12C27 11.621094 27.214844 11.273438 27.558594 11.105469C27.898438 10.9375 28.304688 10.976563 28.609375 11.207031L45.609375 24.207031C45.855469 24.394531 46 24.6875 46 25C46 25.3125 45.855469 25.605469 45.605469 25.792969L28.605469 38.792969C28.429688 38.929688 28.214844 39 28 39Z" />
</svg>