<?xml version="1.0" encoding="utf-8"?>
<svg xmlns="http://www.w3.org/2000/svg" viewBox="0 0 50 50" width="515" height="515">
  <path d="M19.361328 2C15.282328 2 12.300094 4.4832344 11.246094 7.1152344C7.1350938 8.0162344 4 12.649 4 18C4 19.599 4.3106094 21.201 4.9746094 23L10.183594 23C10.597594 21.839 11.698 21 13 21C14.654 21 16 22.346 16 24C16 25.654 14.654 27 13 27C11.698 27 10.597594 26.161 10.183594 25L5.296875 25C4.561875 26.003 4 27.237 4 29C4 31.778 5.738375 34.199438 8.609375 35.523438C7.812375 37.377437 7.8465625 39.203953 8.7265625 40.751953C9.7605625 42.570953 11.835953 43.76375 14.251953 43.96875C15.424953 47.12875 18.576328 48 20.361328 48C22.021328 48 24 47.189031 24 43.332031L24 30L18 30L18 34.183594C19.161 34.597594 20 35.698 20 37C20 38.654 18.654 40 17 40C15.346 40 14 38.654 14 37C14 35.698 14.839 34.597594 16 34.183594L16 28L24 28L24 20L18 20L18 15L15.816406 15C15.402406 16.161 14.302 17 13 17C11.346 17 10 15.654 10 14C10 12.346 11.346 11 13 11C14.302 11 15.402406 11.839 15.816406 13L20 13L20 18L24 18L24 7.1875C24 2.3495 22.247328 2 19.361328 2 z M 30.638672 2C27.752672 2 26 2.3495 26 7.1875L26 13L34.183594 13C34.660594 11.664 36.044609 10.754594 37.599609 11.058594C38.774609 11.288594 39.730266 12.257547 39.947266 13.435547C40.296266 15.336547 38.839 17 37 17C35.698 17 34.597594 16.161 34.183594 15L26 15L26 36L30.183594 36C30.660594 34.664 32.044609 33.754594 33.599609 34.058594C34.774609 34.288594 35.730266 35.257547 35.947266 36.435547C36.296266 38.336547 34.839 40 33 40C31.698 40 30.597594 39.161 30.183594 38L26 38L26 43.333984C26 47.190984 27.978672 48 29.638672 48C31.423672 48 34.575094 47.12875 35.746094 43.96875C38.162094 43.76375 40.239438 42.570953 41.273438 40.751953C41.695437 40.009953 41.919172 39.203328 41.951172 38.361328C41.991172 37.319328 41.54675 36.351109 41.09375 35.412109C41.03475 35.287109 41 35.149 41 35L41 31L32 31L32 25.816406C30.664 25.340406 29.754594 23.955391 30.058594 22.400391C30.288594 21.225391 31.257547 20.269734 32.435547 20.052734C34.336547 19.703734 36 21.161 36 23C36 24.302 35.161 25.402406 34 25.816406L34 29L43 29L43 34.5625C44.89 33.1765 46 31.206 46 29C46 26.985 45.266906 25.660031 44.378906 24.582031C45.497906 22.104031 46 20.052 46 18C46 12.649 42.864906 8.0162344 38.753906 7.1152344C37.698906 4.4822344 34.717672 2 30.638672 2 z M 13 13 A 1 1 0 0 0 12 14 A 1 1 0 0 0 13 15 A 1 1 0 0 0 14 14 A 1 1 0 0 0 13 13 z M 37 13 A 1 1 0 0 0 36 14 A 1 1 0 0 0 37 15 A 1 1 0 0 0 38 14 A 1 1 0 0 0 37 13 z M 33 22 A 1 1 0 0 0 32 23 A 1 1 0 0 0 33 24 A 1 1 0 0 0 34 23 A 1 1 0 0 0 33 22 z M 13 23 A 1 1 0 0 0 12 24 A 1 1 0 0 0 13 25 A 1 1 0 0 0 14 24 A 1 1 0 0 0 13 23 z M 17 36 A 1 1 0 0 0 16 37 A 1 1 0 0 0 17 38 A 1 1 0 0 0 18 37 A 1 1 0 0 0 17 36 z M 33 36 A 1 1 0 0 0 32 37 A 1 1 0 0 0 33 38 A 1 1 0 0 0 34 37 A 1 1 0 0 0 33 36 z" />
</svg>