<?xml version="1.0" encoding="utf-8"?>
<svg xmlns="http://www.w3.org/2000/svg" viewBox="0 0 50 50" width="515" height="515">
  <path d="M1.8125 7C0.707031 7.050781 -0.144531 7.988281 -0.09375 9.09375C-0.0429688 10.199219 0.894531 11.050781 2 11L6 11C6.722656 11.011719 7.390625 10.632813 7.753906 10.007813C8.121094 9.386719 8.121094 8.613281 7.753906 7.992188C7.390625 7.367188 6.722656 6.988281 6 7L2 7C1.9375 6.996094 1.875 6.996094 1.8125 7 Z M 39.78125 7.96875C38.75 8.082031 37.976563 8.964844 38 10L38 34.6875L33.53125 30.21875C33.15625 29.824219 32.636719 29.597656 32.09375 29.59375C31.277344 29.585938 30.535156 30.078125 30.226563 30.835938C29.917969 31.59375 30.101563 32.460938 30.6875 33.03125L40 42.34375L49.3125 33.03125C49.832031 32.527344 50.039063 31.78125 49.851563 31.082031C49.664063 30.382813 49.113281 29.839844 48.414063 29.660156C47.710938 29.480469 46.96875 29.695313 46.46875 30.21875L42 34.6875L42 10C42.007813 9.457031 41.796875 8.9375 41.414063 8.554688C41.03125 8.171875 40.511719 7.960938 39.96875 7.96875C39.90625 7.964844 39.84375 7.964844 39.78125 7.96875 Z M 1.8125 15C0.707031 15.050781 -0.144531 15.988281 -0.09375 17.09375C-0.0429688 18.199219 0.894531 19.050781 2 19L10 19C10.722656 19.011719 11.390625 18.632813 11.753906 18.007813C12.121094 17.386719 12.121094 16.613281 11.753906 15.992188C11.390625 15.367188 10.722656 14.988281 10 15L2 15C1.9375 14.996094 1.875 14.996094 1.8125 15 Z M 1.8125 23C0.707031 23.050781 -0.144531 23.988281 -0.09375 25.09375C-0.0429688 26.199219 0.894531 27.050781 2 27L14 27C14.722656 27.011719 15.390625 26.632813 15.753906 26.007813C16.121094 25.386719 16.121094 24.613281 15.753906 23.992188C15.390625 23.367188 14.722656 22.988281 14 23L2 23C1.9375 22.996094 1.875 22.996094 1.8125 23 Z M 1.8125 31C0.707031 31.050781 -0.144531 31.988281 -0.09375 33.09375C-0.0429688 34.199219 0.894531 35.050781 2 35L18 35C18.722656 35.011719 19.390625 34.632813 19.753906 34.007813C20.121094 33.386719 20.121094 32.613281 19.753906 31.992188C19.390625 31.367188 18.722656 30.988281 18 31L2 31C1.9375 30.996094 1.875 30.996094 1.8125 31 Z M 1.8125 39C0.707031 39.050781 -0.144531 39.988281 -0.09375 41.09375C-0.0429688 42.199219 0.894531 43.050781 2 43L25 43C25.722656 43.011719 26.390625 42.632813 26.753906 42.007813C27.121094 41.386719 27.121094 40.613281 26.753906 39.992188C26.390625 39.367188 25.722656 38.988281 25 39L2 39C1.9375 38.996094 1.875 38.996094 1.8125 39Z" />
</svg>