<?xml version="1.0" encoding="utf-8"?>
<svg xmlns="http://www.w3.org/2000/svg" viewBox="0 0 50 50" width="515" height="515">
  <path d="M29 3C28.488281 3 27.976563 3.195313 27.585938 3.585938L19.585938 11.585938C18.804688 12.367188 18.804688 13.632813 19.585938 14.410156C20.296875 15.121094 21.402344 15.179688 22.1875 14.597656L25.171875 17.589844L33.589844 9.171875L30.597656 6.1875C31.179688 5.402344 31.125 4.296875 30.414063 3.585938C30.023438 3.195313 29.511719 3 29 3 Z M 34.828125 10.410156L26.410156 18.828125L31.171875 23.589844L39.589844 15.171875 Z M 40.828125 16.410156L32.410156 24.828125L35.402344 27.8125C34.820313 28.597656 34.875 29.703125 35.585938 30.414063C36.367188 31.195313 37.632813 31.195313 38.414063 30.414063L46.414063 22.414063C47.195313 21.632813 47.195313 20.367188 46.414063 19.585938C45.703125 18.875 44.597656 18.820313 43.8125 19.402344 Z M 26.609375 21.132813L16.222656 30.808594L19.191406 33.777344L28.867188 23.390625 Z M 14.753906 32.171875L3.871094 42.277344C2.738281 43.328125 2.707031 45.109375 3.796875 46.203125C4.890625 47.292969 6.671875 47.261719 7.722656 46.128906L17.828125 35.246094Z" />
</svg>