<?xml version="1.0" encoding="utf-8"?>
<svg xmlns="http://www.w3.org/2000/svg" viewBox="0 0 50 50" width="515" height="515">
  <path d="M25 1C22.789063 1 21 2.789063 21 5L21 6L12 6C10.300781 6 9 7.300781 9 9L9 46C9 47.699219 10.300781 49 12 49L38 49C39.699219 49 41 47.699219 41 46L41 9C41 7.300781 39.699219 6 38 6L29 6L29 5C29 2.789063 27.210938 1 25 1 Z M 25 3C26.191406 3 27 3.808594 27 5L27 9L23 9L23 5C23 3.808594 23.808594 3 25 3 Z M 25 4C24.449219 4 24 4.449219 24 5C24 5.550781 24.449219 6 25 6C25.550781 6 26 5.550781 26 5C26 4.449219 25.550781 4 25 4 Z M 33.292969 21.292969L34.707031 22.707031L22 35.414063L15.292969 28.707031L16.707031 27.292969L22 32.585938Z" />
</svg>