<?xml version="1.0" encoding="utf-8"?>
<svg xmlns="http://www.w3.org/2000/svg" viewBox="0 0 50 50" width="515" height="515">
  <path d="M9 4C6.24 4 4 6.24 4 9L4 41C4 43.76 6.24 46 9 46L41 46C43.76 46 46 43.76 46 41L46 9C46 6.24 43.76 4 41 4L9 4 z M 23.429688 10L26.410156 10L27.279297 14.720703C28.379297 14.960703 29.319766 15.430469 30.259766 15.980469L34.339844 13.310547L36.470703 15.429688L33.800781 19.529297C34.350781 20.469297 34.820781 21.419531 35.050781 22.519531L39.839844 23.460938L40 23.460938L40 26.460938L35.210938 27.400391C34.970937 28.500391 34.499219 29.450625 33.949219 30.390625L36.619141 34.490234L34.5 36.609375L30.419922 33.939453C29.479922 34.489453 28.529687 34.959219 27.429688 35.199219L26.490234 40L23.509766 40L22.570312 35.199219C21.470312 34.959219 20.520078 34.489453 19.580078 33.939453L15.5 36.609375L13.380859 34.490234L16.050781 30.390625C15.500781 29.450625 15.029063 28.500391 14.789062 27.400391L10 26.460938L10 23.460938L14.710938 22.599609C14.950938 21.499609 15.420703 20.549375 15.970703 19.609375L13.300781 15.509766L15.419922 13.390625L19.5 16.060547C20.45 15.510547 21.390234 15.040781 22.490234 14.800781L23.429688 10 z M 25 20C22.25 20 20 22.25 20 25C20 27.75 22.25 30 25 30C27.75 30 30 27.75 30 25C30 22.25 27.75 20 25 20 z" />
</svg>