<?xml version="1.0" encoding="utf-8"?>
<svg xmlns="http://www.w3.org/2000/svg" viewBox="0 0 50 50" width="515" height="515">
  <path d="M26 0C24.355469 0 23 1.355469 23 3C23 4.644531 24.355469 6 26 6C27.644531 6 29 4.644531 29 3C29 1.355469 27.644531 0 26 0 Z M 41 1C38.800781 1 37 2.800781 37 5C37 7.199219 38.800781 9 41 9C43.199219 9 45 7.199219 45 5C45 2.800781 43.199219 1 41 1 Z M 26 2C26.5625 2 27 2.4375 27 3C27 3.5625 26.5625 4 26 4C25.4375 4 25 3.5625 25 3C25 2.4375 25.4375 2 26 2 Z M 41 3C42.117188 3 43 3.882813 43 5C43 6.117188 42.117188 7 41 7C39.882813 7 39 6.117188 39 5C39 3.882813 39.882813 3 41 3 Z M 15 5C12.25 5 10 7.25 10 10C8.320313 10 6.832031 10.839844 5.921875 12.121094C5.625 12.046875 5.320313 12 5 12C2.800781 12 1 13.800781 1 16C1 17.488281 1.835938 18.78125 3.050781 19.46875C3.027344 19.644531 3 19.820313 3 20C3 20.007813 3 20.007813 3 20.015625C1.269531 21.070313 0 22.832031 0 25C0 26.429688 0.609375 27.660156 1.445313 28.6875C0.613281 29.578125 0 30.6875 0 32C0 33.320313 0.601563 34.445313 1.4375 35.332031C1.234375 35.863281 1 36.386719 1 37C1 38.261719 1.472656 39.421875 2.25 40.296875C2.617188 40.710938 3.25 40.75 3.664063 40.382813C4.074219 40.019531 4.113281 39.386719 3.75 38.972656C3.28125 38.445313 3 37.761719 3 37C3 36.492188 3.136719 36.019531 3.378906 35.578125C3.609375 35.152344 3.503906 34.625 3.128906 34.324219C2.441406 33.765625 2 32.945313 2 32C2 30.980469 2.503906 30.097656 3.28125 29.550781C3.527344 29.375 3.683594 29.09375 3.703125 28.789063C3.71875 28.484375 3.59375 28.1875 3.367188 27.984375C2.527344 27.246094 2 26.195313 2 25C2 23.339844 3.003906 21.929688 4.433594 21.320313C4.847656 21.144531 5.09375 20.710938 5.03125 20.265625C5.011719 20.113281 5 20.03125 5 20C7.199219 20 9 18.199219 9 16C9 14.84375 8.492188 13.808594 7.703125 13.074219C8.25 12.417969 9.070313 12 10 12C10.292969 12 10.585938 12.058594 10.902344 12.15625C11.257813 12.273438 11.648438 12.179688 11.914063 11.914063C12.179688 11.648438 12.273438 11.257813 12.15625 10.902344C12.058594 10.585938 12 10.292969 12 10C12 8.332031 13.332031 7 15 7C16.410156 7 17.5625 7.960938 17.894531 9.261719C18.011719 9.71875 18.433594 10.035156 18.90625 10.015625C19.097656 10.003906 19.125 10 19 10C19.671875 10 20.246094 10.324219 20.613281 10.832031C20.820313 11.113281 21.160156 11.269531 21.507813 11.238281C21.855469 11.210938 22.164063 11 22.316406 10.6875C22.808594 9.6875 23.8125 9 25 9C26.1875 9 27.191406 9.6875 27.683594 10.6875C27.835938 11 28.144531 11.210938 28.492188 11.238281C28.839844 11.269531 29.179688 11.113281 29.386719 10.832031C29.753906 10.324219 30.328125 10 31 10C31.929688 10 32.6875 10.628906 32.921875 11.484375C32.996094 11.757813 33.183594 11.988281 33.4375 12.117188C33.695313 12.242188 33.992188 12.253906 34.257813 12.148438C34.496094 12.054688 34.742188 12 35 12C35.988281 12 36.789063 12.703125 36.960938 13.628906C37.03125 14.011719 37.316406 14.316406 37.691406 14.414063C38.066406 14.511719 38.460938 14.382813 38.710938 14.089844C39.269531 13.421875 40.074219 13 41 13C42.667969 13 44 14.332031 44 16C44 16.265625 43.949219 16.542969 43.859375 16.84375C43.785156 17.101563 43.8125 17.375 43.941406 17.609375C44.070313 17.84375 44.289063 18.015625 44.546875 18.089844C45.386719 18.328125 46 19.078125 46 20C46 20.183594 45.964844 20.375 45.894531 20.59375C45.761719 21.011719 45.917969 21.46875 46.277344 21.71875C47.320313 22.441406 48 23.632813 48 25C48 26.195313 47.472656 27.246094 46.636719 27.984375C46.40625 28.1875 46.28125 28.484375 46.296875 28.789063C46.316406 29.09375 46.472656 29.375 46.71875 29.550781C47.496094 30.097656 48 30.980469 48 32C48 33.101563 47.410156 34.039063 46.527344 34.566406C46.273438 34.71875 46.097656 34.972656 46.050781 35.261719C46.003906 35.550781 46.085938 35.847656 46.277344 36.074219C46.726563 36.605469 47 37.265625 47 38C47 38.753906 46.726563 39.421875 46.265625 39.945313C46.027344 40.214844 45.953125 40.589844 46.066406 40.929688C46.183594 41.269531 46.472656 41.523438 46.824219 41.589844C47.175781 41.660156 47.539063 41.535156 47.773438 41.261719C48.535156 40.394531 49 39.246094 49 38C49 37.09375 48.6875 36.289063 48.265625 35.5625C49.261719 34.652344 50 33.453125 50 32C50 30.6875 49.386719 29.578125 48.554688 28.6875C49.390625 27.660156 50 26.429688 50 25C50 23.222656 49.128906 21.710938 47.898438 20.613281C47.9375 20.410156 48 20.230469 48 20C48 18.527344 47.082031 17.394531 45.890625 16.703125C45.929688 16.46875 46 16.261719 46 16C46 13.25 43.75 11 41 11C39.925781 11 39.003906 11.429688 38.191406 12.011719C37.484375 10.882813 36.421875 10 35 10C34.75 10 34.539063 10.09375 34.300781 10.136719C33.613281 8.929688 32.480469 8 31 8C30.097656 8 29.328125 8.378906 28.65625 8.890625C27.742188 7.8125 26.519531 7 25 7C23.480469 7 22.257813 7.8125 21.34375 8.890625C20.820313 8.492188 20.230469 8.238281 19.554688 8.136719C18.808594 6.316406 17.082031 5 15 5 Z M 5 14C5.304688 14 5.585938 14.070313 5.84375 14.1875C5.871094 14.203125 5.902344 14.21875 5.929688 14.234375C6.566406 14.566406 7 15.222656 7 16C7 17.117188 6.117188 18 5 18C3.882813 18 3 17.117188 3 16C3 14.882813 3.882813 14 5 14 Z M 15.707031 15C13.648438 15 11.828125 16.234375 11.0625 18.144531L9.347656 22.4375C8.910156 22.164063 8.460938 22.007813 8 22.007813L6.820313 22.007813C4.875 22.007813 4.136719 24.050781 4.007813 25.253906C3.957031 25.6875 4.195313 26.101563 4.59375 26.277344L6.523438 27.128906C5.539063 28.363281 5 29.882813 5 31.484375L5 46C5 47.101563 5.898438 48 7 48L12 48C13.101563 48 14 47.101563 14 46L14 44.507813C17.226563 44.832031 20.921875 45 25 45C29.078125 45 32.773438 44.832031 36 44.507813L36 46C36 47.101563 36.898438 48 38 48L43 48C44.101563 48 45 47.101563 45 46L45 31.484375C45 29.875 44.457031 28.347656 43.460938 27.109375L45.390625 26.28125C45.796875 26.105469 46.042969 25.691406 45.996094 25.253906C45.863281 24.050781 45.125 22.007813 43.179688 22.007813L42.78125 22.003906C42.449219 22 42.101563 21.996094 41.925781 22.011719C41.5 22.042969 41.066406 22.253906 40.683594 22.503906L38.9375 18.140625C38.171875 16.234375 36.351563 15 34.292969 15 Z M 7 31.164063L13 33C13 34.105469 12.105469 35 11 35L7 35 Z M 43 31.164063L43 35L39 35C37.894531 35 37 34.105469 37 33 Z M 17 34L33 34L31 38C31 38 28.742188 39 25 39C21.257813 39 19 38 19 38Z" />
</svg>