<?xml version="1.0" encoding="utf-8"?>
<svg xmlns="http://www.w3.org/2000/svg" viewBox="0 0 50 50" width="515" height="515">
  <path d="M39.5 12 A 6.5 6.5 0 0 0 39.5 25 A 6.5 6.5 0 0 0 39.5 12 z M 18.271484 18C14.813484 18 12 20.813484 12 24.271484L12 25.947266C13.2 25.090266 14.705688 24.795438 16.179688 25.148438C18.393688 25.681438 20 27.827859 20 30.255859L20 31L22 31L22 18L18.271484 18 z M 24 18L24 31L27 31L27 34.230469C27 35.198469 27.471688 36.111172 28.304688 36.701172L34.951172 40.441406C35.463172 40.805406 36.063453 40.998047 36.689453 40.998047C37.800453 40.998047 38.81775 40.387344 39.34375 39.402344C40.05175 38.083344 39.617594 36.397797 38.308594 35.466797L33 32.164062L33 23.798828C33 20.601828 30.398172 18 27.201172 18L24 18 z M 14.992188 27C14.281984 26.986078 13.608469 27.21075 13.042969 27.65625C12.524969 28.06525 12.172 28.619328 12 29.236328L12 30.119141L12 30.5L12 35L6 35C5.075 35 4.2155781 35.416531 3.6425781 36.144531C3.0695781 36.872531 2.8678906 37.818281 3.0878906 38.738281C3.4028906 40.048281 4.6791406 41 6.1191406 41L15 41C16.654 41 18 39.654 18 38L18 31L18 30.255859C18 28.741859 17.038891 27.41175 15.712891 27.09375C15.470641 27.0355 15.228922 27.004641 14.992188 27 z" />
</svg>