<?xml version="1.0" encoding="utf-8"?>
<svg xmlns="http://www.w3.org/2000/svg" viewBox="0 0 50 50" width="515" height="515">
  <path d="M33.1875 1.8125L26.75 18L48.78125 18C47.722656 10.347656 42.183594 4.226563 34.03125 2.03125 Z M 4 10C1.792969 10 0 11.792969 0 14C0 16.207031 1.792969 18 4 18C5.378906 18 6.59375 17.3125 7.3125 16.25C9.019531 17.269531 10 19.144531 10 21.46875C10 21.523438 10.023438 21.570313 10.03125 21.625C10.238281 27.785156 13.46875 32.972656 18.5 36.03125C15.421875 36.28125 13 38.855469 13 42C13 45.308594 15.691406 48 19 48C22.308594 48 25 45.308594 25 42C25 40.578125 24.488281 39.28125 23.65625 38.25C25.484375 38.742188 27.453125 39 29.5 39C32.082031 39 34.5 38.550781 36.71875 37.78125C35.652344 38.863281 35 40.359375 35 42C35 45.308594 37.691406 48 41 48C44.308594 48 47 45.308594 47 42C47 38.691406 44.308594 36 41 36C40.84375 36 40.683594 36.019531 40.53125 36.03125C45.71875 32.867188 49 27.421875 49 21L49 20L11.875 20C11.496094 17.464844 10.125 15.429688 7.96875 14.3125C7.976563 14.207031 8 14.105469 8 14C8 11.792969 6.207031 10 4 10 Z M 19 38C21.207031 38 23 39.792969 23 42C23 44.207031 21.207031 46 19 46C16.792969 46 15 44.207031 15 42C15 39.792969 16.792969 38 19 38 Z M 41 38C43.207031 38 45 39.792969 45 42C45 44.207031 43.207031 46 41 46C38.792969 46 37 44.207031 37 42C37 39.792969 38.792969 38 41 38Z" />
</svg>