<?xml version="1.0" encoding="utf-8"?>
<svg xmlns="http://www.w3.org/2000/svg" viewBox="0 0 50 50" width="515" height="515">
  <path d="M36.78125 1C36.464844 0.929688 36.128906 1.222656 36.03125 1.625C35.960938 1.917969 36.019531 2.183594 36.1875 2.34375C36.25 2.402344 36.351563 2.449219 36.4375 2.46875C36.753906 2.539063 37.089844 2.277344 37.1875 1.875C37.257813 1.582031 37.167969 1.285156 37 1.125C36.9375 1.066406 36.867188 1.019531 36.78125 1 Z M 38.40625 1.15625C38.144531 1.222656 37.894531 1.476563 37.8125 1.8125C37.730469 2.136719 37.8125 2.445313 38 2.625C38.070313 2.695313 38.183594 2.757813 38.28125 2.78125C38.640625 2.867188 39.015625 2.570313 39.125 2.125C39.207031 1.800781 39.125 1.492188 38.9375 1.3125C38.867188 1.242188 38.785156 1.179688 38.6875 1.15625C38.597656 1.136719 38.492188 1.132813 38.40625 1.15625 Z M 40.8125 1.8125C40.507813 1.785156 40.128906 1.949219 39.875 2.28125C39.558594 2.695313 39.546875 3.214844 39.8125 3.46875C39.832031 3.488281 39.851563 3.484375 39.875 3.5C40.203125 3.734375 40.722656 3.570313 41.0625 3.125C41.378906 2.710938 41.421875 2.191406 41.15625 1.9375C41.136719 1.917969 41.117188 1.921875 41.09375 1.90625C41.011719 1.847656 40.914063 1.820313 40.8125 1.8125 Z M 36.1875 3C32.363281 3 28 8.191406 28 12.75C28 14.390625 28.988281 17 31.625 17C34.230469 17 34.816406 15.371094 35.25 14.1875C35.449219 13.640625 35.640625 13.140625 36 12.78125C36.21875 12.5625 37.019531 12.363281 37.65625 12.21875C39.390625 11.824219 42 11.234375 42 8.3125C42 6.257813 40.421875 3 36.1875 3 Z M 42.71875 3.125C42.445313 3.144531 42.160156 3.234375 41.90625 3.4375C41.378906 3.859375 41.230469 4.519531 41.5625 4.90625C41.578125 4.921875 41.578125 4.953125 41.59375 4.96875C41.941406 5.304688 42.589844 5.246094 43.09375 4.84375C43.621094 4.421875 43.800781 3.761719 43.46875 3.375C43.453125 3.359375 43.421875 3.359375 43.40625 3.34375C43.230469 3.175781 42.992188 3.105469 42.71875 3.125 Z M 44.75 5.03125C44.402344 4.992188 44.019531 5.054688 43.65625 5.21875C42.757813 5.621094 42.289063 6.535156 42.625 7.25C42.6875 7.382813 42.769531 7.492188 42.875 7.59375C43.328125 8.027344 44.144531 8.140625 44.875 7.8125C45.773438 7.410156 46.210938 6.496094 45.875 5.78125C45.8125 5.648438 45.730469 5.539063 45.625 5.4375C45.398438 5.21875 45.097656 5.070313 44.75 5.03125 Z M 14.78125 12C14.464844 11.929688 14.128906 12.222656 14.03125 12.625C13.960938 12.917969 14.019531 13.183594 14.1875 13.34375C14.25 13.402344 14.351563 13.449219 14.4375 13.46875C14.753906 13.539063 15.089844 13.277344 15.1875 12.875C15.257813 12.582031 15.167969 12.285156 15 12.125C14.9375 12.066406 14.867188 12.019531 14.78125 12 Z M 16.40625 12.15625C16.144531 12.222656 15.894531 12.476563 15.8125 12.8125C15.730469 13.136719 15.8125 13.445313 16 13.625C16.070313 13.695313 16.183594 13.757813 16.28125 13.78125C16.640625 13.867188 17.015625 13.570313 17.125 13.125C17.207031 12.800781 17.125 12.492188 16.9375 12.3125C16.867188 12.242188 16.785156 12.179688 16.6875 12.15625C16.597656 12.136719 16.492188 12.132813 16.40625 12.15625 Z M 18.8125 12.8125C18.507813 12.785156 18.128906 12.949219 17.875 13.28125C17.558594 13.695313 17.546875 14.214844 17.8125 14.46875C17.832031 14.488281 17.851563 14.484375 17.875 14.5C18.203125 14.734375 18.722656 14.570313 19.0625 14.125C19.378906 13.710938 19.421875 13.191406 19.15625 12.9375C19.136719 12.917969 19.117188 12.921875 19.09375 12.90625C19.011719 12.847656 18.914063 12.820313 18.8125 12.8125 Z M 14.1875 14C10.363281 14 6 19.191406 6 23.75C6 25.390625 6.988281 28 9.625 28C12.230469 28 12.816406 26.371094 13.25 25.1875C13.449219 24.640625 13.640625 24.140625 14 23.78125C14.21875 23.5625 15.019531 23.363281 15.65625 23.21875C17.390625 22.824219 20 22.234375 20 19.3125C20 17.257813 18.421875 14 14.1875 14 Z M 20.71875 14.125C20.445313 14.144531 20.160156 14.234375 19.90625 14.4375C19.378906 14.859375 19.230469 15.519531 19.5625 15.90625C19.578125 15.921875 19.578125 15.953125 19.59375 15.96875C19.941406 16.304688 20.589844 16.246094 21.09375 15.84375C21.621094 15.421875 21.800781 14.761719 21.46875 14.375C21.453125 14.359375 21.421875 14.359375 21.40625 14.34375C21.230469 14.175781 20.992188 14.105469 20.71875 14.125 Z M 22.75 16.03125C22.402344 15.992188 22.019531 16.054688 21.65625 16.21875C20.757813 16.621094 20.289063 17.535156 20.625 18.25C20.6875 18.382813 20.769531 18.492188 20.875 18.59375C21.328125 19.027344 22.144531 19.140625 22.875 18.8125C23.773438 18.410156 24.210938 17.496094 23.875 16.78125C23.8125 16.648438 23.730469 16.539063 23.625 16.4375C23.398438 16.21875 23.097656 16.070313 22.75 16.03125 Z M 39.65625 19C39.082031 19.027344 38.488281 19.453125 38.1875 20.125C37.863281 20.855469 37.972656 21.671875 38.40625 22.125C38.507813 22.230469 38.617188 22.3125 38.75 22.375C39.464844 22.710938 40.378906 22.242188 40.78125 21.34375C41.109375 20.613281 40.996094 19.828125 40.5625 19.375C40.460938 19.269531 40.351563 19.1875 40.21875 19.125C40.039063 19.039063 39.847656 18.992188 39.65625 19 Z M 42.28125 21.375C41.914063 21.304688 41.472656 21.507813 41.15625 21.90625C40.753906 22.410156 40.695313 23.058594 41.03125 23.40625C41.046875 23.421875 41.078125 23.421875 41.09375 23.4375C41.480469 23.769531 42.140625 23.621094 42.5625 23.09375C42.964844 22.585938 42.992188 21.941406 42.65625 21.59375C42.640625 21.578125 42.640625 21.546875 42.625 21.53125C42.527344 21.449219 42.402344 21.398438 42.28125 21.375 Z M 37.6875 23C34.765625 23 34.175781 25.609375 33.78125 27.34375C33.636719 27.984375 33.4375 28.78125 33.21875 29C32.859375 29.359375 32.359375 29.550781 31.8125 29.75C30.628906 30.183594 29 30.765625 29 33.375C29 36.011719 31.609375 37 33.25 37C37.8125 37 43 32.636719 43 28.8125C43 24.578125 39.742188 23 37.6875 23 Z M 43.53125 23.65625C43.320313 23.667969 43.082031 23.78125 42.875 23.9375C42.429688 24.277344 42.265625 24.796875 42.5 25.125C42.515625 25.148438 42.511719 25.167969 42.53125 25.1875C42.785156 25.453125 43.304688 25.441406 43.71875 25.125C44.164063 24.785156 44.328125 24.234375 44.09375 23.90625C44.078125 23.882813 44.082031 23.863281 44.0625 23.84375C43.933594 23.710938 43.742188 23.644531 43.53125 23.65625 Z M 44.125 25.84375C44.046875 25.84375 43.957031 25.855469 43.875 25.875C43.429688 25.984375 43.132813 26.359375 43.21875 26.71875C43.242188 26.816406 43.304688 26.929688 43.375 27C43.554688 27.1875 43.863281 27.269531 44.1875 27.1875C44.632813 27.078125 44.929688 26.671875 44.84375 26.3125C44.820313 26.214844 44.757813 26.132813 44.6875 26.0625C44.550781 25.921875 44.359375 25.839844 44.125 25.84375 Z M 44.125 27.8125C43.722656 27.910156 43.460938 28.246094 43.53125 28.5625C43.550781 28.648438 43.597656 28.75 43.65625 28.8125C43.816406 28.980469 44.082031 29.039063 44.375 28.96875C44.777344 28.871094 45.070313 28.535156 45 28.21875C44.980469 28.132813 44.933594 28.0625 44.875 28C44.714844 27.832031 44.417969 27.742188 44.125 27.8125 Z M 17.65625 31C17.082031 31.027344 16.488281 31.453125 16.1875 32.125C15.863281 32.855469 15.972656 33.671875 16.40625 34.125C16.507813 34.230469 16.617188 34.3125 16.75 34.375C17.464844 34.710938 18.378906 34.242188 18.78125 33.34375C19.109375 32.613281 18.996094 31.828125 18.5625 31.375C18.460938 31.269531 18.351563 31.1875 18.21875 31.125C18.039063 31.039063 17.847656 30.992188 17.65625 31 Z M 20.28125 33.375C19.914063 33.304688 19.472656 33.507813 19.15625 33.90625C18.753906 34.410156 18.695313 35.058594 19.03125 35.40625C19.046875 35.421875 19.078125 35.421875 19.09375 35.4375C19.480469 35.769531 20.140625 35.621094 20.5625 35.09375C20.964844 34.585938 20.992188 33.941406 20.65625 33.59375C20.640625 33.578125 20.640625 33.546875 20.625 33.53125C20.527344 33.449219 20.402344 33.398438 20.28125 33.375 Z M 15.6875 35C12.765625 35 12.175781 37.609375 11.78125 39.34375C11.636719 39.984375 11.4375 40.78125 11.21875 41C10.859375 41.359375 10.359375 41.550781 9.8125 41.75C8.628906 42.183594 7 42.765625 7 45.375C7 48.011719 9.609375 49 11.25 49C15.8125 49 21 44.636719 21 40.8125C21 36.578125 17.742188 35 15.6875 35 Z M 21.53125 35.65625C21.320313 35.667969 21.082031 35.78125 20.875 35.9375C20.429688 36.277344 20.265625 36.796875 20.5 37.125C20.515625 37.148438 20.511719 37.167969 20.53125 37.1875C20.785156 37.453125 21.304688 37.441406 21.71875 37.125C22.164063 36.785156 22.328125 36.234375 22.09375 35.90625C22.078125 35.882813 22.082031 35.863281 22.0625 35.84375C21.933594 35.710938 21.742188 35.644531 21.53125 35.65625 Z M 22.125 37.84375C22.046875 37.84375 21.957031 37.855469 21.875 37.875C21.429688 37.984375 21.132813 38.359375 21.21875 38.71875C21.242188 38.816406 21.304688 38.929688 21.375 39C21.554688 39.1875 21.863281 39.269531 22.1875 39.1875C22.632813 39.078125 22.929688 38.671875 22.84375 38.3125C22.820313 38.214844 22.757813 38.132813 22.6875 38.0625C22.550781 37.921875 22.359375 37.839844 22.125 37.84375 Z M 22.125 39.8125C21.722656 39.910156 21.460938 40.246094 21.53125 40.5625C21.550781 40.648438 21.597656 40.75 21.65625 40.8125C21.816406 40.980469 22.082031 41.039063 22.375 40.96875C22.777344 40.871094 23.070313 40.535156 23 40.21875C22.980469 40.132813 22.933594 40.0625 22.875 40C22.714844 39.832031 22.417969 39.742188 22.125 39.8125Z" />
</svg>