<?xml version="1.0" encoding="utf-8"?>
<svg xmlns="http://www.w3.org/2000/svg" viewBox="0 0 50 50" width="515" height="515">
  <path d="M20.34375 0C19.074219 0 17.796875 0.96875 17.25 2.46875C16.578125 4.316406 17.265625 6.273438 18.78125 6.84375C19.066406 6.949219 19.363281 7 19.65625 7C20.925781 7 22.203125 6.03125 22.75 4.53125C23.425781 2.683594 22.734375 0.726563 21.21875 0.15625C20.9375 0.0507813 20.636719 0 20.34375 0 Z M 14.15625 0.03125C13.179688 0.03125 12.339844 1.046875 12.21875 2.34375C12.09375 3.699219 12.8125 4.875 13.84375 4.96875C13.890625 4.972656 13.925781 4.96875 13.96875 4.96875C14.945313 4.96875 15.816406 3.988281 15.9375 2.6875C16.0625 1.332031 15.34375 0.15625 14.3125 0.0625C14.269531 0.0585938 14.199219 0.03125 14.15625 0.03125 Z M 8.96875 1.1875C8.914063 1.1875 8.867188 1.210938 8.8125 1.21875C8.011719 1.339844 7.511719 2.34375 7.6875 3.46875C7.851563 4.519531 8.539063 5.28125 9.28125 5.28125C9.335938 5.28125 9.382813 5.289063 9.4375 5.28125C10.238281 5.160156 10.738281 4.152344 10.5625 3.03125C10.402344 1.980469 9.710938 1.1875 8.96875 1.1875 Z M 4.90625 3.375C4.707031 3.375 4.515625 3.425781 4.34375 3.53125C3.71875 3.910156 3.632813 4.882813 4.125 5.6875C4.484375 6.273438 5.035156 6.59375 5.5625 6.59375C5.761719 6.59375 5.953125 6.542969 6.125 6.4375C6.75 6.058594 6.867188 5.117188 6.375 4.3125C6.015625 3.726563 5.433594 3.375 4.90625 3.375 Z M 1.96875 5.84375C1.792969 5.84375 1.621094 5.875 1.46875 5.96875C0.917969 6.308594 0.832031 7.179688 1.28125 7.90625C1.609375 8.433594 2.125 8.71875 2.59375 8.71875C2.769531 8.71875 2.941406 8.6875 3.09375 8.59375C3.644531 8.253906 3.730469 7.382813 3.28125 6.65625C2.953125 6.128906 2.4375 5.84375 1.96875 5.84375 Z M 11.84375 6C6.609375 6 1 10.582031 1 17.40625C1 20.199219 1.570313 24.898438 3.1875 28.9375C5.300781 34.214844 8.652344 37 12.875 37C17.398438 37 18.59375 33.546875 18.59375 31.5C18.59375 29.09375 17.519531 27.851563 16.5625 26.75C15.695313 25.753906 14.9375 24.863281 14.9375 23.0625C14.9375 21.757813 16.171875 20.550781 17.46875 19.25C19.125 17.589844 21 15.695313 21 13C21 8.347656 17.921875 6 11.84375 6 Z M 29.65625 13C29.363281 13 29.0625 13.050781 28.78125 13.15625C27.265625 13.726563 26.578125 15.683594 27.25 17.53125C27.796875 19.03125 29.070313 20 30.34375 20C30.632813 20 30.9375 19.949219 31.21875 19.84375C32.730469 19.273438 33.421875 17.316406 32.75 15.46875C32.199219 13.96875 30.925781 13 29.65625 13 Z M 35.84375 13.03125C35.800781 13.03125 35.734375 13.058594 35.6875 13.0625C34.65625 13.15625 33.9375 14.332031 34.0625 15.6875C34.179688 16.984375 35.054688 17.96875 36.03125 17.96875C36.078125 17.96875 36.109375 17.972656 36.15625 17.96875C37.1875 17.875 37.90625 16.699219 37.78125 15.34375C37.660156 14.042969 36.820313 13.03125 35.84375 13.03125 Z M 41.03125 14.1875C40.289063 14.1875 39.601563 14.980469 39.4375 16.03125C39.261719 17.15625 39.761719 18.160156 40.5625 18.28125C40.617188 18.289063 40.664063 18.28125 40.71875 18.28125C41.460938 18.28125 42.148438 17.519531 42.3125 16.46875C42.488281 15.34375 41.988281 14.339844 41.1875 14.21875C41.132813 14.210938 41.085938 14.1875 41.03125 14.1875 Z M 45.09375 16.375C44.566406 16.375 43.984375 16.726563 43.625 17.3125C43.132813 18.117188 43.253906 19.058594 43.875 19.4375C44.046875 19.542969 44.238281 19.59375 44.4375 19.59375C44.964844 19.59375 45.515625 19.273438 45.875 18.6875C46.367188 17.882813 46.28125 16.910156 45.65625 16.53125C45.484375 16.425781 45.292969 16.375 45.09375 16.375 Z M 48.03125 18.84375C47.558594 18.84375 47.046875 19.128906 46.71875 19.65625C46.269531 20.382813 46.355469 21.253906 46.90625 21.59375C47.054688 21.6875 47.226563 21.71875 47.40625 21.71875C47.875 21.71875 48.390625 21.433594 48.71875 20.90625C49.167969 20.179688 49.082031 19.308594 48.53125 18.96875C48.382813 18.875 48.207031 18.84375 48.03125 18.84375 Z M 38.15625 19C32.078125 19 29 21.347656 29 26C29 28.695313 30.875 30.589844 32.53125 32.25C33.828125 33.550781 35.0625 34.757813 35.0625 36.0625C35.0625 37.863281 34.304688 38.722656 33.4375 39.71875C32.480469 40.820313 31.40625 42.09375 31.40625 44.5C31.40625 46.546875 32.601563 50 37.125 50C41.347656 50 44.699219 47.214844 46.8125 41.9375C48.429688 37.898438 49 33.199219 49 30.40625C49 23.582031 43.390625 19 38.15625 19Z" />
</svg>