<?xml version="1.0" encoding="utf-8"?>
<svg xmlns="http://www.w3.org/2000/svg" viewBox="0 0 50 50" width="515" height="515">
  <path d="M45.21875 2C43.550781 1.972656 41.476563 3.042969 39.375 4.28125L45.71875 10.625C47.519531 7.570313 48.964844 4.527344 47.21875 2.78125C46.671875 2.234375 45.976563 2.011719 45.21875 2 Z M 36.15625 3.21875C34.007813 3.316406 30.542969 4.144531 27 7.6875C23.378906 11.304688 21.792969 14.257813 20.75 16.21875C20.246094 17.167969 19.839844 17.902344 19.40625 18.375C18.574219 19.28125 17.433594 18.890625 17.3125 18.84375C16.800781 18.632813 16.210938 18.863281 16 19.375C15.789063 19.886719 16.019531 20.476563 16.53125 20.6875C16.582031 20.707031 17.234375 20.96875 18.09375 20.96875C18.574219 20.96875 19.113281 20.871094 19.65625 20.625C20.390625 19.84375 21.140625 19.066406 21.875 18.3125C22.082031 17.953125 22.273438 17.582031 22.5 17.15625C23.546875 15.1875 24.996094 12.5 28.40625 9.09375C31.648438 5.855469 34.722656 5.195313 36.40625 5.15625C36.652344 4.960938 36.902344 4.808594 37.09375 4.65625L37.78125 4.09375L38.625 3.5625C38.53125 3.492188 38.453125 3.410156 38.34375 3.375C38.261719 3.347656 37.445313 3.160156 36.15625 3.21875 Z M 37.71875 5.4375C35.59375 7.097656 29.996094 11.597656 24.09375 17.5C17.78125 23.8125 10.628906 32.199219 8.53125 34.6875L15.3125 41.46875C17.800781 39.375 26.1875 32.21875 32.5 25.90625C38.402344 20.003906 42.902344 14.410156 44.5625 12.28125 Z M 7.4375 36.4375C4.546875 40.800781 3.824219 43.820313 3.625 45C3.625 45.003906 3.59375 44.996094 3.59375 45L2.25 46.3125C1.859375 46.703125 1.859375 47.359375 2.25 47.75C2.445313 47.945313 2.710938 48.03125 2.96875 48.03125C3.226563 48.03125 3.492188 47.945313 3.6875 47.75L5 46.40625C5.003906 46.40625 4.996094 46.375 5 46.375C6.179688 46.175781 9.203125 45.453125 13.5625 42.5625Z" />
</svg>