<?xml version="1.0" encoding="utf-8"?>
<svg xmlns="http://www.w3.org/2000/svg" viewBox="0 0 50 50" width="515" height="515">
  <path d="M21.669922 0C19.959922 0 17.450547 1.6096875 16.560547 3.9296875C16.230547 4.8396875 15.73 6.5795313 15.25 8.2695312C16.55 9.1695313 17.470156 10.529531 17.910156 12.269531C18.270156 13.719531 20.68 14 25 14C29.32 14 31.729844 13.719531 32.089844 12.269531C32.529844 10.529531 33.45 9.1695313 34.75 8.2695312C34.27 6.5795312 33.769453 4.8394531 33.439453 3.9394531C32.579453 1.5094531 30.120078 0 28.330078 0C27.420078 -7.4014868e-17 26.580156 0.40046875 25.910156 0.73046875C25.610156 0.87046875 25.15 1.0898438 25 1.0898438C24.85 1.0898437 24.389844 0.87046875 24.089844 0.73046875C23.419844 0.40046875 22.579922 0 21.669922 0 z M 10.75 9C7.525 9 5 11.196 5 14C5 17.461232 6.8138998 19.827275 10.753906 21.263672C10.727257 21.348377 10.704196 21.428644 10.685547 21.509766C8.7515469 21.822766 7.6640625 23.199438 7.6640625 25.398438C7.6640625 27.755437 9.065125 29.516203 10.578125 30.033203C11.883125 38.265203 21.557109 49 24.662109 49C26.924109 49 32.668906 43.306156 36.128906 37.035156C37.207906 38.771156 43.172641 43.027484 42.681641 41.771484C42.014641 40.066484 42.107031 37.388 41.832031 35.625L41.746094 35.451172C44.306094 36.173172 47.299109 36.637 46.662109 36C45.081109 34.419 43.955203 31.049906 42.783203 29.878906C42.129203 29.224906 41.250484 28.949391 40.396484 29.025391C41.180484 28.159391 41.662109 26.879391 41.662109 25.400391C41.662109 23.312391 40.504578 21.865484 38.642578 21.521484C38.635411 21.491108 38.623527 21.459882 38.615234 21.429688C42.957858 20.00178 45 17.570699 45 14C45 11.196 42.475 9 39.25 9C35.712 9 34.457297 11.043813 34.029297 12.757812C33.278297 15.761812 29.657 16 25 16C20.343 16 16.721703 15.761812 15.970703 12.757812C15.542703 11.043812 14.288 9 10.75 9 z M 12.666016 21.851562C13.579566 22.08229 14.583993 22.274003 15.673828 22.433594C15.672563 22.459275 15.662109 22.472557 15.662109 22.5C15.662109 23.881 16.781109 25 18.162109 25C19.40864 25 20.433683 24.08572 20.623047 22.892578C21.989069 22.960763 23.436998 23 25 23C26.310185 23 27.529193 22.9664 28.703125 22.916016C28.902026 24.097863 29.923594 25 31.162109 25C32.541785 25 33.659965 23.883079 33.662109 22.503906C34.756351 22.356904 35.756572 22.17206 36.685547 21.957031C36.715458 22.065768 36.735863 22.176281 36.755859 22.503906L36.8125 23.441406L37.753906 23.441406C39.662906 23.441406 39.662109 24.915391 39.662109 25.400391C39.662109 26.994391 38.882609 28.197266 37.849609 28.197266L36.941406 28.197266L36.855469 29.101562C36.827469 29.388562 36.785422 29.67775 36.732422 29.96875C36.258422 29.80475 35.530547 29.464453 34.685547 29.064453C32.103547 27.845453 28.203063 26.002 24.664062 26L24.65625 26C21.13525 26 17.185313 27.860797 14.570312 29.091797C13.761313 29.472797 13.064563 29.796891 12.601562 29.962891C12.547562 29.671891 12.500656 29.38075 12.472656 29.09375L12.384766 28.189453L11.476562 28.189453C10.753562 28.189453 9.6621094 27.077391 9.6621094 25.400391C9.6621094 24.009391 10.216266 23.441406 11.572266 23.441406L12.509766 23.441406L12.570312 22.505859C12.598313 22.066859 12.615016 22.011563 12.666016 21.851562 z" />
</svg>