<?xml version="1.0" encoding="utf-8"?>
<svg xmlns="http://www.w3.org/2000/svg" viewBox="0 0 50 50" width="515" height="515">
  <path d="M24.949219 2.0253906C24.799219 2.0253906 24.65 2.0496094 24.5 2.0996094L2.5 12.400391C2.2 12.600391 2 12.900781 2 13.300781L2 15C2 15.6 2.4 16 3 16L11 16C11.5 16 12 16.5 12 17C12 17.5 11.5 18 11 18L10 18L10 39L40 39L40 18L39 18C38.5 18 38 17.5 38 17C38 16.5 38.5 16 39 16L47 16C47.6 16 48 15.6 48 15L48 13.300781C48 12.900781 47.800391 12.600391 47.400391 12.400391L25.400391 2.0996094C25.250391 2.0496094 25.099219 2.0253906 24.949219 2.0253906 z M 24 11L26 11L26 14.099609C29.8 14.599609 31 18.1 31 20L29 20C29 19.6 28.8 16 25 16C21.1 16 21 18.9 21 19C21 21.1 22.600781 21.7 25.300781 22.5C27.800781 23.3 31 24.2 31 28C31 29.3 30.599219 30.500781 29.699219 31.300781C28.599219 32.400781 27 32.800391 26 32.900391L26 36L24 36L24 32.900391C22.7 32.700391 21.499219 32.200391 20.699219 31.400391C18.999219 29.600391 19 27.1 19 27L21 27C21 27 20.999609 28.8 22.099609 30C22.799609 30.7 23.7 31 25 31C25 31 27.200781 31.000391 28.300781 29.900391C28.800781 29.400391 29 28.8 29 28C29 25.9 27.399219 25.3 24.699219 24.5C22.199219 23.7 19 22.7 19 19C19 17.4 20.2 14.499609 24 14.099609L24 11 z M 6 18L6 39L8 39L8 18L6 18 z M 42 18L42 39L44 39L44 18L42 18 z M 5 41C3.3 41 2 42.3 2 44L2 46L48 46L48 44C48 42.3 46.7 41 45 41L5 41 z" />
</svg>