<?xml version="1.0" encoding="utf-8"?>
<svg xmlns="http://www.w3.org/2000/svg" viewBox="0 0 50 50" width="515" height="515">
  <path d="M36.414063 4C35.902344 4 35.390625 4.195313 35 4.585938L33.300781 6.28125L43.71875 16.699219L45.414063 15C45.792969 14.621094 46 14.121094 46 13.585938C46 13.050781 45.792969 12.550781 45.414063 12.171875L37.828125 4.585938C37.4375 4.195313 36.925781 4 36.414063 4 Z M 42.828125 4.03125C42.050781 4.027344 41.273438 4.3125 40.707031 4.878906L40.667969 4.917969L45.082031 9.332031L45.121094 9.292969C46.292969 8.125 46.289063 6.21875 45.121094 5.046875L44.949219 4.878906C44.382813 4.3125 43.609375 4.03125 42.828125 4.03125 Z M 28.550781 4.964844C28.039063 4.964844 27.527344 5.160156 27.136719 5.550781L26.050781 6.632813C25.269531 7.414063 25.269531 8.683594 26.050781 9.464844L40.515625 23.925781C40.890625 24.304688 41.394531 24.511719 41.925781 24.511719C42.460938 24.511719 42.964844 24.304688 43.34375 23.925781L44.425781 22.84375C44.804688 22.464844 45.015625 21.960938 45.015625 21.425781C45.015625 20.894531 44.804688 20.390625 44.425781 20.015625L42.535156 18.121094L29.964844 5.550781C29.574219 5.160156 29.0625 4.964844 28.550781 4.964844 Z M 30.292969 16.292969L16.292969 30.292969L19.707031 33.707031L33.707031 19.707031 Z M 8.070313 25.507813C7.554688 25.507813 7.035156 25.695313 6.65625 26.074219L5.570313 27.15625C5.195313 27.535156 4.984375 28.039063 4.984375 28.574219C4.984375 29.105469 5.195313 29.609375 5.570313 29.984375L18 42.414063L18.046875 42.464844L18.65625 43.070313L20.035156 44.449219C20.425781 44.839844 20.9375 45.035156 21.449219 45.035156C21.960938 45.035156 22.472656 44.839844 22.863281 44.449219L23.949219 43.363281C24.730469 42.585938 24.730469 41.316406 23.949219 40.535156L9.484375 26.074219C9.109375 25.695313 8.589844 25.507813 8.070313 25.507813 Z M 6.28125 33.300781L4.585938 35C4.207031 35.378906 4 35.878906 4 36.414063C4 36.949219 4.207031 37.449219 4.585938 37.828125L12.171875 45.414063C12.5625 45.804688 13.074219 46 13.585938 46C14.097656 46 14.609375 45.804688 15 45.414063L16.699219 43.71875 Z M 4.917969 40.667969L4.878906 40.707031C3.707031 41.875 3.710938 43.78125 4.882813 44.953125L5.050781 45.121094C5.617188 45.6875 6.371094 46 7.171875 46C7.972656 46 8.726563 45.6875 9.292969 45.121094L9.332031 45.082031Z" />
</svg>