<?xml version="1.0" encoding="utf-8"?>
<svg xmlns="http://www.w3.org/2000/svg" viewBox="0 0 50 50" width="515" height="515">
  <path d="M18.28125 5.78125C12.71875 5.886719 4.761719 8.335938 -0.125 16.25C7.105469 13.15625 11.578125 21.203125 9.5625 25.21875C15.042969 25.21875 16.527344 32.34375 12.875 35.125C20.265625 35.125 17.34375 40.378906 17.40625 42C19.800781 38.226563 24.496094 37.910156 25.625 42C27.015625 36.867188 32.78125 34.355469 36.1875 38C38.265625 34.996094 46.535156 34.40625 48.5 40.6875C53.632813 28.183594 45.5625 17.625 41.8125 15.8125C40.71875 22.941406 36.980469 26.320313 31.25 23.4375C33.554688 21.992188 33.6875 16.96875 33.6875 16.96875C33.6875 16.96875 32.046875 18.121094 31.46875 18.46875C31.46875 18.46875 30.800781 17.777344 29.75 17.25C28.699219 16.722656 27.75 16.59375 27.75 16.59375C27.683594 15.921875 27.40625 13.71875 27.40625 13.71875C27.40625 13.71875 23.691406 17.039063 23.90625 19.75C18.175781 16.871094 18.808594 11.941406 23.875 6.8125C22.839844 6.191406 20.808594 5.734375 18.28125 5.78125Z" />
</svg>