<?xml version="1.0" encoding="utf-8"?>
<svg xmlns="http://www.w3.org/2000/svg" viewBox="0 0 50 50" width="515" height="515">
  <path d="M17 4C14.238281 4 12 6.238281 12 9C12 11.761719 14.238281 14 17 14C19.761719 14 22 11.761719 22 9C22 6.238281 19.761719 4 17 4 Z M 32.800781 4C30.039063 4 27.800781 6.238281 27.800781 9C27.800781 11.761719 30.039063 14 32.800781 14C35.5625 14 37.800781 11.761719 37.800781 9C37.800781 6.238281 35.5625 4 32.800781 4 Z M 17 15C15.101563 15 13.328125 15.679688 11.921875 16.835938C14.339844 18.082031 16 20.597656 16 23.5C16 25.757813 14.996094 27.777344 13.414063 29.152344C14.546875 29.71875 15.554688 30.480469 16.394531 31.378906C17.378906 30.445313 18.535156 29.660156 19.828125 29.09375C18.101563 27.621094 17 25.4375 17 23C17 20.046875 18.617188 17.464844 21.003906 16.078125C19.808594 15.386719 18.4375 15 17 15 Z M 33 15C31.5625 15 30.191406 15.386719 28.996094 16.078125C31.382813 17.464844 33 20.046875 33 23C33 25.4375 31.898438 27.621094 30.171875 29.09375C31.058594 29.484375 31.878906 29.976563 32.628906 30.546875C33.65625 29.742188 34.820313 29.105469 36.078125 28.671875C34.792969 27.324219 34 25.503906 34 23.5C34 20.597656 35.660156 18.082031 38.078125 16.835938C36.671875 15.679688 34.898438 15 33 15 Z M 25 17C21.6875 17 19 19.6875 19 23C19 26.3125 21.6875 29 25 29C28.3125 29 31 26.3125 31 23C31 19.6875 28.3125 17 25 17 Z M 8.5 18C5.460938 18 3 20.460938 3 23.5C3 26.539063 5.460938 29 8.5 29C11.539063 29 14 26.539063 14 23.5C14 20.460938 11.539063 18 8.5 18 Z M 41.5 18C38.460938 18 36 20.460938 36 23.5C36 25.429688 36.992188 27.121094 38.496094 28.105469C38.988281 28.042969 39.488281 28 40 28C41.269531 28 42.492188 28.199219 43.640625 28.566406C45.617188 27.730469 47 25.777344 47 23.5C47 20.460938 44.539063 18 41.5 18 Z M 8.5 30C3.8125 30 0 33.523438 0 37.859375L0 41.714844C0 42.042969 0.164063 42.351563 0.4375 42.539063C0.652344 42.6875 2.730469 44 8.5 44C10.375 44 11.859375 43.859375 13.015625 43.667969C13.011719 43.628906 13 43.589844 13 43.546875L13 39.007813C13 36.730469 13.757813 34.617188 15.050781 32.859375C13.492188 31.113281 11.132813 30 8.5 30 Z M 25 30C19.484375 30 15 34.039063 15 39.007813L15 43.546875C15 43.851563 15.15625 44.136719 15.421875 44.3125C15.675781 44.484375 18.128906 46 25 46C26.769531 46 28.242188 45.898438 29.464844 45.746094C28.53125 44.039063 28 42.082031 28 40C28 36.882813 29.199219 34.050781 31.148438 31.917969C29.449219 30.722656 27.320313 30 25 30 Z M 40 30C34.488281 30 30 34.488281 30 40C30 45.511719 34.488281 50 40 50C45.511719 50 50 45.511719 50 40C50 34.488281 45.511719 30 40 30 Z M 40 32C44.429688 32 48 35.570313 48 40C48 44.429688 44.429688 48 40 48C35.570313 48 32 44.429688 32 40C32 35.570313 35.570313 32 40 32 Z M 44.238281 35.347656L38.847656 41.640625L35.597656 39.199219L34.402344 40.800781L39.152344 44.359375L45.761719 36.652344Z" />
</svg>