<?xml version="1.0" encoding="utf-8"?>
<svg xmlns="http://www.w3.org/2000/svg" viewBox="0 0 50 50" width="515" height="515">
  <path d="M25 9C18.183594 9 12.015625 10.703125 7.484375 13.539063C2.949219 16.375 0 20.421875 0 25C0 29.578125 2.949219 33.625 7.484375 36.460938C12.015625 39.296875 18.183594 41 25 41C31.816406 41 37.984375 39.296875 42.515625 36.460938C47.050781 33.625 50 29.578125 50 25C50 20.464844 47.050781 16.425781 42.519531 13.578125C37.988281 10.730469 31.820313 9 25 9 Z M 25 11C31.480469 11 37.3125 12.667969 41.453125 15.269531C45.597656 17.875 48 21.335938 48 25C48 28.71875 45.601563 32.171875 41.457031 34.765625C37.3125 37.355469 31.480469 39 25 39C18.519531 39 12.6875 37.355469 8.542969 34.765625C4.398438 32.171875 2 28.71875 2 25C2 21.28125 4.398438 17.828125 8.542969 15.234375C12.6875 12.644531 18.519531 11 25 11 Z M 22.097656 14.5L21.5 20.402344C20.101563 26.300781 12 21.601563 17 15C9.898438 16.601563 5.101563 20.601563 5 24.800781C5.101563 26.699219 6.199219 28.699219 8 30.402344C9.300781 31.601563 11 33.199219 13 34C9.699219 29.199219 16.101563 26.800781 19 32C20.101563 27.800781 23.898438 30.699219 25 36C26.101563 30.699219 29.898438 27.800781 31 32C33.898438 26.800781 40.300781 29.199219 37 34C39 33.199219 40.699219 31.601563 42 30.5C43.800781 28.800781 44.898438 26.800781 45 24.902344C44.898438 20.699219 40.101563 16.699219 33 15C38 21.601563 29.898438 26.199219 28.5 20.402344L27.902344 14.5L26.5 16L23.5 16Z" />
</svg>