<?xml version="1.0" encoding="utf-8"?>
<svg xmlns="http://www.w3.org/2000/svg" viewBox="0 0 50 50" width="515" height="515">
  <path d="M25 2C12.308594 2 2 12.308594 2 25C2 27.378906 2.363281 29.675781 3.035156 31.835938C3.035156 31.835938 3.035156 31.839844 3.039063 31.839844C3.039063 31.84375 3.039063 31.847656 3.039063 31.851563C3.054688 31.898438 3.066406 31.941406 3.085938 31.984375C6.046875 41.265625 14.746094 48 25 48C29.753906 48 34.171875 46.554688 37.84375 44.078125C37.984375 44.019531 38.113281 43.925781 38.21875 43.8125C42.863281 40.535156 46.25 35.589844 47.484375 29.84375C47.511719 29.769531 47.53125 29.6875 47.539063 29.605469C47.84375 28.117188 48 26.578125 48 25C48 12.308594 37.691406 2 25 2 Z M 33.265625 5.6875C40.757813 8.894531 46 16.328125 46 25C46 25.523438 45.976563 26.039063 45.9375 26.550781C41.1875 19.875 32.632813 18.523438 32.042969 18.4375C31.914063 18.289063 31.78125 18.148438 31.632813 18.015625C32.035156 16.859375 32.507813 14.9375 32.886719 12.589844C33.242188 10.351563 33.476563 7.875 33.265625 5.6875 Z M 14.808594 6.640625C15.25 6.847656 16.023438 7.335938 16.875 8.054688C17.910156 8.925781 19.09375 10.085938 20.25 11.359375C22.503906 13.847656 24.652344 16.808594 25.46875 18.71875C17.46875 19.496094 9.683594 23.625 4.484375 29.480469C4.167969 28.035156 4 26.539063 4 25C4 17.09375 8.363281 10.222656 14.808594 6.640625 Z M 29 19C30.117188 19 31 19.882813 31 21C31 22.117188 30.117188 23 29 23C27.882813 23 27 22.117188 27 21C27 19.882813 27.882813 19 29 19 Z M 29.429688 24.953125C31.007813 26.777344 32.714844 30.300781 34.011719 33.871094C35.214844 37.191406 36.070313 40.53125 36.375 42.640625C33.09375 44.757813 29.199219 46 25 46C22.511719 46 20.125 45.5625 17.910156 44.769531C19.917969 42.328125 22.238281 38.96875 24.25 35.4375C26.347656 31.75 28.082031 28.003906 28.625 24.960938C28.75 24.972656 28.871094 25 29 25C29.148438 25 29.285156 24.972656 29.429688 24.953125Z" />
</svg>