<?xml version="1.0" encoding="utf-8"?>
<svg xmlns="http://www.w3.org/2000/svg" viewBox="0 0 50 50" width="515" height="515">
  <path d="M6 0C3 0 3 2.484375 3 3.8125C3 6.757813 5.488281 12.898438 10.15625 16.8125C12.542969 18.8125 15.199219 19.953125 17.96875 20.15625C17.875 17.902344 18.539063 15.632813 20 13.6875C21.3125 11.984375 23.066406 10.835938 25.03125 10.3125C20.753906 2.679688 10.535156 0 6 0 Z M 15.40625 0C19.960938 1.800781 24.648438 4.96875 27.15625 10C27.269531 9.996094 27.382813 9.96875 27.5 9.96875C27.71875 9.96875 27.9375 9.980469 28.15625 10L28.28125 10.03125L28.4375 10.03125C28.527344 9.695313 28.628906 9.363281 28.75 9.03125C25.152344 2.839844 19.242188 0 15.59375 0C15.527344 0 15.472656 -0.00390625 15.40625 0 Z M 40 0C39.511719 0 35.195313 0.0585938 33.25 2.34375C33.039063 2.59375 32.945313 2.933594 33.03125 3.25L33.71875 5.875C33.671875 5.902344 33.636719 5.941406 33.59375 5.96875C33.574219 5.980469 33.550781 5.988281 33.53125 6C33.441406 6.054688 33.367188 6.125 33.28125 6.1875C33.113281 6.304688 32.9375 6.429688 32.78125 6.5625C32.59375 6.722656 32.421875 6.914063 32.25 7.09375C32.164063 7.1875 32.082031 7.277344 32 7.375C31.871094 7.527344 31.742188 7.679688 31.625 7.84375C31.550781 7.945313 31.476563 8.050781 31.40625 8.15625C31.261719 8.378906 31.125 8.601563 31 8.84375C30.757813 9.3125 30.550781 9.789063 30.40625 10.28125C30.230469 10.871094 30.164063 11.464844 30.125 12.0625C30.117188 12.1875 30.09375 12.3125 30.09375 12.4375C30.09375 12.488281 30.09375 12.542969 30.09375 12.59375C30.09375 12.734375 30.117188 12.863281 30.125 13C30.136719 13.234375 30.152344 13.457031 30.1875 13.6875C30.191406 13.71875 30.183594 13.75 30.1875 13.78125C30.203125 13.878906 30.230469 13.96875 30.25 14.0625C30.273438 14.179688 30.3125 14.292969 30.34375 14.40625C30.375 14.53125 30.398438 14.660156 30.4375 14.78125C30.453125 14.832031 30.480469 14.886719 30.5 14.9375C30.546875 15.074219 30.601563 15.210938 30.65625 15.34375C30.683594 15.410156 30.71875 15.46875 30.75 15.53125C30.789063 15.621094 30.800781 15.726563 30.84375 15.8125C30.882813 15.890625 30.925781 15.957031 30.96875 16.03125C31.027344 16.132813 31.09375 16.214844 31.15625 16.3125C31.214844 16.40625 31.277344 16.503906 31.34375 16.59375C31.417969 16.699219 31.511719 16.804688 31.59375 16.90625C31.792969 17.148438 31.984375 17.378906 32.21875 17.59375C32.34375 17.714844 32.488281 17.824219 32.625 17.9375C33.027344 18.261719 33.449219 18.539063 33.9375 18.78125C34.667969 19.148438 35.476563 19.429688 36.34375 19.625C36.40625 19.640625 36.46875 19.644531 36.53125 19.65625C36.761719 19.703125 37.015625 19.746094 37.25 19.78125C37.5 19.820313 37.742188 19.847656 38 19.875C38.9375 19.972656 39.882813 19.984375 40.8125 19.90625C40.832031 19.90625 40.855469 19.90625 40.875 19.90625C41.253906 19.871094 41.628906 19.8125 42 19.75C42.242188 19.707031 42.457031 19.648438 42.6875 19.59375C42.8125 19.566406 42.941406 19.5625 43.0625 19.53125C43.203125 19.492188 43.335938 19.449219 43.46875 19.40625C44.5625 19.058594 45.503906 18.507813 46.15625 17.6875C46.324219 17.484375 46.476563 17.289063 46.59375 17.0625C46.910156 16.425781 47.054688 15.722656 47.0625 15C47.0625 14.980469 47.0625 14.957031 47.0625 14.9375C47.0625 14.917969 47.0625 14.894531 47.0625 14.875C47.058594 14.640625 47.03125 14.425781 47 14.1875C46.984375 14.0625 46.960938 13.941406 46.9375 13.8125C46.914063 13.691406 46.902344 13.558594 46.875 13.4375C46.757813 12.945313 46.589844 12.429688 46.375 11.9375C46.367188 11.917969 46.351563 11.894531 46.34375 11.875C46.234375 11.632813 46.128906 11.394531 46 11.15625C45.992188 11.144531 45.976563 11.136719 45.96875 11.125C45.839844 10.886719 45.710938 10.644531 45.5625 10.40625C45.554688 10.394531 45.539063 10.386719 45.53125 10.375C45.484375 10.300781 45.425781 10.230469 45.375 10.15625C45.257813 9.984375 45.160156 9.792969 45.03125 9.625C44.664063 9.132813 44.234375 8.671875 43.78125 8.21875C43.554688 7.992188 43.339844 7.773438 43.09375 7.5625C42.84375 7.347656 42.582031 7.167969 42.3125 6.96875C42.054688 6.777344 41.800781 6.578125 41.53125 6.40625C41.523438 6.402344 41.507813 6.410156 41.5 6.40625C41.242188 6.242188 40.992188 6.082031 40.71875 5.9375C41.808594 5.796875 43.03125 5.878906 43.84375 6C44.394531 6.085938 44.921875 5.703125 45 5.15625C45.082031 4.609375 44.703125 4.082031 44.15625 4C43.703125 3.933594 39.671875 3.382813 37.59375 5C37.582031 5.007813 37.574219 5.023438 37.5625 5.03125C37.386719 5.019531 37.207031 5 37.03125 5C36.96875 5 36.90625 5 36.84375 5C36.59375 5.007813 36.339844 5.027344 36.09375 5.0625C36.019531 5.074219 35.949219 5.082031 35.875 5.09375C35.792969 5.109375 35.707031 5.136719 35.625 5.15625L35.125 3.3125C36.445313 2.253906 39.027344 2.003906 40 2C40.550781 2 41 1.550781 41 1C41 0.449219 40.550781 0 40 0 Z M 39.96875 7.8125C41.867188 8.867188 43.363281 10.46875 44.21875 12.0625C44.328125 12.269531 44.414063 12.484375 44.5 12.6875C44.417969 13.074219 44.257813 13.40625 44 13.6875C43 14.6875 40.394531 14.292969 39.09375 13.09375C37.792969 11.894531 37.394531 9.699219 38.59375 8.5C38.96875 8.09375 39.449219 7.882813 39.96875 7.8125 Z M 27.5 11.96875C25.152344 11.96875 23.046875 13.015625 21.59375 14.90625C20.019531 17.003906 19.566406 19.566406 20.28125 21.9375C20.363281 22.222656 20.472656 22.535156 20.59375 22.8125C20.617188 22.871094 20.707031 23 20.84375 23.21875C20.996094 23.464844 21.179688 23.699219 21.53125 24.15625C21.546875 24.175781 21.546875 24.199219 21.5625 24.21875C21.695313 24.390625 21.839844 24.589844 22 24.78125C22.105469 24.90625 22.203125 25.03125 22.3125 25.15625C22.324219 25.167969 22.332031 25.175781 22.34375 25.1875C22.699219 25.582031 23.363281 26.023438 24.0625 26.46875C24.949219 27.03125 25.914063 27.601563 26.5625 27.9375C26.585938 27.949219 26.632813 27.957031 26.65625 27.96875C26.964844 28.128906 27.207031 28.257813 27.25 28.28125C27.25 28.28125 27.28125 28.28125 27.28125 28.28125C27.402344 28.320313 27.535156 28.371094 27.65625 28.40625C27.761719 28.433594 27.839844 28.4375 27.96875 28.46875C28.089844 28.5 28.117188 28.53125 28.25 28.5625C28.65625 28.660156 29.15625 28.769531 29.21875 28.78125C29.578125 28.847656 29.933594 28.902344 30.28125 28.9375C30.707031 28.984375 31.125 29 31.53125 29C33.773438 29 35.566406 28.285156 36.59375 27C37.660156 25.628906 38.074219 23.816406 37.875 21.875C36.085938 21.699219 34.394531 21.257813 33.0625 20.59375C30.835938 19.480469 29.269531 17.679688 28.53125 15.40625C28.175781 14.324219 28.058594 13.160156 28.125 12C27.914063 11.984375 27.707031 11.96875 27.5 11.96875 Z M 18.0625 21.15625C15.09375 21.765625 12.980469 24.523438 11.78125 29.34375L11.625 30.03125C11.554688 30.34375 11.46875 30.671875 11.40625 31C11.027344 32.835938 10.929688 35.035156 11.125 37.25C11.121094 37.335938 11.105469 37.414063 11.125 37.5C11.425781 40.539063 12.324219 43.574219 13.96875 45.59375C14.582031 46.34375 15.296875 46.90625 16.0625 47.3125C17.207031 49.023438 19 50 19 50L19 48C23.289063 47.886719 29.054688 43.855469 31.0625 37.40625C31.460938 36.160156 31.710938 35.011719 31.84375 33.9375L31.90625 33.0625C31.945313 32.339844 31.9375 31.652344 31.84375 31C31.738281 31.003906 31.636719 31 31.53125 31C30.960938 31 30.378906 30.949219 29.78125 30.875C29.859375 31.277344 29.894531 31.695313 29.90625 32.1875C20.527344 30.53125 17.394531 25.460938 16.6875 24.03125C17.261719 23.546875 17.871094 23.226563 18.5625 23.09375C18.324219 22.453125 18.160156 21.816406 18.0625 21.15625 Z M 13.1875 32.5C16.847656 36.761719 23.597656 39.433594 27.625 40.0625C27.089844 40.914063 26.472656 41.683594 25.8125 42.375C19.171875 42.03125 14.527344 39.140625 13.125 37.03125C12.988281 35.46875 13.003906 33.898438 13.1875 32.5Z" />
</svg>