<?xml version="1.0" encoding="utf-8"?>
<svg xmlns="http://www.w3.org/2000/svg" viewBox="0 0 50 50" width="515" height="515">
  <path d="M23 -0.09375C21.300781 -0.09375 19.90625 1.300781 19.90625 3L19.90625 4C19.90625 4.597656 20.402344 5.09375 21 5.09375L29 5.09375C29.597656 5.09375 30.09375 4.597656 30.09375 4L30.09375 3C30.09375 1.300781 28.699219 -0.09375 27 -0.09375 Z M 20.84375 7.0625L20.03125 15.25C18.847656 16.324219 14.9375 20.175781 14.9375 24.15625C14.9375 25.566406 15.046875 26.8125 15.15625 28L21.3125 28C22.226563 26.535156 23.546875 26 25 26C26.453125 26 27.773438 26.535156 28.6875 28L34.84375 28C34.953125 26.8125 35.0625 25.566406 35.0625 24.15625C35.0625 20.179688 31.152344 16.324219 29.96875 15.25L29.15625 7.0625C29.105469 7.066406 29.054688 7.09375 29 7.09375L21 7.09375C20.945313 7.09375 20.894531 7.066406 20.84375 7.0625 Z M 15.34375 30C15.511719 31.5625 15.65625 33.070313 15.65625 34.75C15.65625 36.429688 15.589844 37.777344 15.5 39L20.5 39C20.1875 37.824219 20 36.355469 20 34.5C20 32.644531 20.1875 31.175781 20.5 30 Z M 29.5 30C29.8125 31.175781 30 32.644531 30 34.5C30 36.355469 29.8125 37.824219 29.5 39L34.5 39C34.410156 37.777344 34.34375 36.429688 34.34375 34.75C34.34375 33.066406 34.488281 31.5625 34.65625 30 Z M 15.34375 41C15.324219 41.1875 15.300781 41.378906 15.28125 41.5625C15.109375 43.3125 14.9375 44.957031 14.9375 47.15625C14.9375 48.78125 16.210938 50.0625 17.8125 50.0625L32.1875 50.0625C33.789063 50.0625 35.0625 48.78125 35.0625 47.15625C35.0625 44.960938 34.890625 43.3125 34.71875 41.5625C34.699219 41.378906 34.675781 41.1875 34.65625 41L28.6875 41C27.773438 42.464844 26.453125 43 25 43C23.546875 43 22.226563 42.464844 21.3125 41Z" />
</svg>