<?xml version="1.0" encoding="utf-8"?>
<svg xmlns="http://www.w3.org/2000/svg" viewBox="0 0 50 50" width="515" height="515">
  <path d="M18 1C15.699219 1 13.613281 2.101563 12.3125 4C11.3125 3.398438 10.199219 3 9 3C5.699219 3 3 5.699219 3 9C3 10.800781 3.800781 12.398438 5 13.5L5 21L24.1875 21C24.585938 19.699219 25 17.988281 25 15.6875C25 13.789063 23.789063 12.511719 23.1875 11.8125L23 11.59375C22.800781 11.394531 22.613281 11.3125 22.3125 11.3125C22.011719 11.3125 21.792969 11.394531 21.59375 11.59375C20.59375 12.492188 19.300781 13 18 13C16.398438 13 15 12.300781 14 11C13.800781 10.699219 13.488281 10.59375 13.1875 10.59375C12.886719 10.59375 12.605469 10.792969 12.40625 11.09375C11.707031 12.292969 10.398438 13 9 13C6.800781 13 5 11.199219 5 9C5 6.800781 6.800781 5 9 5C10.101563 5 11.113281 5.386719 11.8125 6.1875C12.011719 6.386719 12.386719 6.5 12.6875 6.5C12.988281 6.398438 13.304688 6.207031 13.40625 5.90625C14.304688 4.105469 16.101563 3 18 3C19.800781 3 21.414063 3.90625 22.3125 5.40625C22.414063 5.605469 22.707031 5.804688 22.90625 5.90625C23.207031 6.007813 23.488281 5.886719 23.6875 5.6875C24.386719 5.289063 25.199219 5 26 5C27.300781 5 28.386719 5.59375 29.1875 6.59375C29.585938 7.09375 30.414063 7.09375 30.8125 6.59375C31.613281 5.59375 32.699219 5 34 5C36.199219 5 38 6.800781 38 9C38 11.199219 36.199219 13 34 13C32.699219 13 31.613281 12.40625 30.8125 11.40625C30.414063 10.90625 29.585938 10.90625 29.1875 11.40625C29.085938 11.507813 29.011719 11.707031 28.8125 11.90625C28.113281 12.707031 27 13.988281 27 15.6875C27 17.988281 27.3125 19.699219 27.8125 21L37 21L37 14.1875C38.800781 13.085938 40 11.199219 40 9C40 5.699219 37.300781 3 34 3C32.5 3 31.101563 3.601563 30 4.5C28.898438 3.5 27.5 3 26 3C25.101563 3 24.207031 3.195313 23.40625 3.59375C22.105469 1.992188 20.101563 1 18 1 Z M 41 17C40.300781 17 39.601563 17.085938 39 17.1875L39 19.1875C39.601563 19.085938 40.300781 19 41 19C43.398438 19 45 20.601563 45 23C45 28.5 42.800781 34.09375 39 35.59375L39 37.6875C44.199219 36.289063 47 29.5 47 23C47 19.5 44.5 17 41 17 Z M 5 23L5 42.40625C5 46.707031 7.394531 49 11.59375 49L30.40625 49C34.707031 49 37 46.605469 37 42.40625L37 23L28.5 23C28.800781 23.800781 29 24.398438 29 25C29 26.699219 27.699219 28 26 28C24.300781 28 23 26.699219 23 25C23 24.398438 23.199219 23.800781 23.5 23Z" />
</svg>