<?xml version="1.0" encoding="utf-8"?>
<svg xmlns="http://www.w3.org/2000/svg" viewBox="0 0 50 50" width="515" height="515">
  <path d="M18 2C13.039063 2 9 6.039063 9 11C9 15.960938 13.039063 20 18 20C22.960938 20 27 15.960938 27 11C27 6.039063 22.960938 2 18 2 Z M 18 9C19.105469 9 20 9.894531 20 11C20 12.105469 19.105469 13 18 13C16.894531 13 16 12.105469 16 11C16 9.894531 16.894531 9 18 9 Z M 15 21.574219L15 33C15 34.101563 14.898438 35 16 35L43 35L43 45.5C43 46.898438 44.101563 48 45.5 48C46.898438 48 48 46.898438 48 45.5L48 33C48 30.800781 46.199219 29 44 29L39 29C34.101563 29 28.199219 27 24 27L20 27L20 21.808594C19.351563 21.929688 18.683594 22 18 22C16.960938 22 15.953125 21.84375 15 21.574219 Z M 7.5 24C4.421875 24 2 26.421875 2 29.5C2 32.578125 4.421875 35 7.5 35C10.578125 35 13 32.578125 13 29.5C13 26.421875 10.578125 24 7.5 24 Z M 3 37C2.449219 37 2 37.445313 2 38L2 39C2 39.554688 2.449219 40 3 40L39 40C39.554688 40 40 39.554688 40 39L40 38C40 37.445313 39.554688 37 39 37Z" />
</svg>