<?xml version="1.0" encoding="utf-8"?>
<svg xmlns="http://www.w3.org/2000/svg" viewBox="0 0 50 50" width="515" height="515">
  <path d="M25 1 A 11 6 0 0 0 14 7 A 11 6 0 0 0 25 13 A 11 6 0 0 0 36 7 A 11 6 0 0 0 25 1 z M 14 11.306641L14 13C14 16.252 19.037 19 25 19C30.963 19 36 16.252 36 13L36 11.306641C33.718 13.539641 29.691 15 25 15C20.309 15 16.282 13.539641 14 11.306641 z M 13 19 A 11 6 0 0 0 2 25 A 11 6 0 0 0 13 31 A 11 6 0 0 0 24 25 A 11 6 0 0 0 13 19 z M 37 19 A 11 6 0 0 0 26 25 A 11 6 0 0 0 37 31 A 11 6 0 0 0 48 25 A 11 6 0 0 0 37 19 z M 2 29.306641L2 31C2 34.252 7.037 37 13 37C18.963 37 24 34.252 24 31L24 29.306641C21.718 31.539641 17.691 33 13 33C8.309 33 4.282 31.539641 2 29.306641 z M 26 29.306641L26 31C26 34.252 31.037 37 37 37C42.963 37 48 34.252 48 31L48 29.306641C45.718 31.539641 41.691 33 37 33C32.309 33 28.282 31.539641 26 29.306641 z M 2 35.306641L2 37C2 40.252 7.037 43 13 43C18.963 43 24 40.252 24 37L24 35.306641C21.718 37.539641 17.691 39 13 39C8.309 39 4.282 37.539641 2 35.306641 z M 26 35.306641L26 37C26 40.252 31.037 43 37 43C42.963 43 48 40.252 48 37L48 35.306641C45.718 37.539641 41.691 39 37 39C32.309 39 28.282 37.539641 26 35.306641 z M 2 41.306641L2 43C2 46.532 6.523 49 13 49C19.477 49 24 46.531047 24 42.998047L24 41.306641C21.718 43.539641 17.691 45 13 45C8.309 45 4.282 43.539641 2 41.306641 z M 26 41.306641L26 43C26 46.532 30.523 49 37 49C43.477 49 48 46.531047 48 42.998047L48 41.306641C45.718 43.539641 41.691 45 37 45C32.309 45 28.282 43.539641 26 41.306641 z" />
</svg>