<?xml version="1.0" encoding="utf-8"?>
<svg xmlns="http://www.w3.org/2000/svg" viewBox="0 0 50 50" width="515" height="515">
  <path d="M12.90625 1.96875C12.863281 1.976563 12.820313 1.988281 12.78125 2C12.316406 2.105469 11.988281 2.523438 12 3L12 6C11.96875 6 11.9375 6 11.90625 6C11.355469 6.027344 10.925781 6.496094 10.953125 7.046875C10.980469 7.597656 11.449219 8.027344 12 8L14 8C14.359375 8.003906 14.695313 7.816406 14.878906 7.503906C15.058594 7.191406 15.058594 6.808594 14.878906 6.496094C14.695313 6.183594 14.359375 5.996094 14 6L14 3C14.011719 2.710938 13.894531 2.433594 13.6875 2.238281C13.476563 2.039063 13.191406 1.941406 12.90625 1.96875 Z M 24.90625 1.96875C24.863281 1.976563 24.820313 1.988281 24.78125 2C24.316406 2.105469 23.988281 2.523438 24 3L24 6C23.96875 6 23.9375 6 23.90625 6C23.355469 6.027344 22.925781 6.496094 22.953125 7.046875C22.980469 7.597656 23.449219 8.027344 24 8L26 8C26.359375 8.003906 26.695313 7.816406 26.878906 7.503906C27.058594 7.191406 27.058594 6.808594 26.878906 6.496094C26.695313 6.183594 26.359375 5.996094 26 6L26 3C26.011719 2.710938 25.894531 2.433594 25.6875 2.238281C25.476563 2.039063 25.191406 1.941406 24.90625 1.96875 Z M 36.90625 1.96875C36.863281 1.976563 36.820313 1.988281 36.78125 2C36.316406 2.105469 35.988281 2.523438 36 3L36 6C35.96875 6 35.9375 6 35.90625 6C35.355469 6.027344 34.925781 6.496094 34.953125 7.046875C34.980469 7.597656 35.449219 8.027344 36 8L38 8C38.359375 8.003906 38.695313 7.816406 38.878906 7.503906C39.058594 7.191406 39.058594 6.808594 38.878906 6.496094C38.695313 6.183594 38.359375 5.996094 38 6L38 3C38.011719 2.710938 37.894531 2.433594 37.6875 2.238281C37.476563 2.039063 37.191406 1.941406 36.90625 1.96875 Z M 3 3C2.449219 3 2 3.449219 2 4L2 31C2 31.554688 2.449219 32 3 32L47 32C47.554688 32 48 31.554688 48 31L48 4C48 3.449219 47.554688 3 47 3L40 3L40 4.78125C40.613281 5.332031 41 6.113281 41 7C41 8.652344 39.652344 10 38 10L36 10C34.347656 10 33 8.652344 33 7C33 6.113281 33.386719 5.332031 34 4.78125L34 3L28 3L28 4.78125C28.613281 5.332031 29 6.113281 29 7C29 8.652344 27.652344 10 26 10L24 10C22.347656 10 21 8.652344 21 7C21 6.113281 21.386719 5.332031 22 4.78125L22 3L16 3L16 4.78125C16.613281 5.332031 17 6.113281 17 7C17 8.652344 15.652344 10 14 10L12 10C10.347656 10 9 8.652344 9 7C9 6.113281 9.386719 5.332031 10 4.78125L10 3 Z M 20 34L20 46L18 46C17.96875 46 17.9375 46 17.90625 46C17.875 46 17.84375 46 17.8125 46C17.261719 46.050781 16.855469 46.542969 16.90625 47.09375C16.957031 47.644531 17.449219 48.050781 18 48L32 48C32.359375 48.003906 32.695313 47.816406 32.878906 47.503906C33.058594 47.191406 33.058594 46.808594 32.878906 46.496094C32.695313 46.183594 32.359375 45.996094 32 46L30 46L30 34Z" />
</svg>