<?xml version="1.0" encoding="utf-8"?>
<svg xmlns="http://www.w3.org/2000/svg" viewBox="0 0 50 50" width="515" height="515">
  <path d="M7 2L7 48L43 48L43 14.597656L30.402344 2 Z M 30 4.398438L40.597656 15L30 15 Z M 14 20L17 20L17 29L15 29L15 22L14 22 Z M 23.5 20C25.429688 20 27 21.570313 27 23.5L27 25.5C27 27.429688 25.429688 29 23.5 29C21.570313 29 20 27.429688 20 25.5L20 23.5C20 21.570313 21.570313 20 23.5 20 Z M 32.5 20C34.429688 20 36 21.570313 36 23.5L36 25.5C36 27.429688 34.429688 29 32.5 29C30.570313 29 29 27.429688 29 25.5L29 23.5C29 21.570313 30.570313 20 32.5 20 Z M 23.5 22C22.671875 22 22 22.671875 22 23.5L22 25.5C22 26.328125 22.671875 27 23.5 27C24.328125 27 25 26.328125 25 25.5L25 23.5C25 22.671875 24.328125 22 23.5 22 Z M 32.5 22C31.671875 22 31 22.671875 31 23.5L31 25.5C31 26.328125 31.671875 27 32.5 27C33.328125 27 34 26.328125 34 25.5L34 23.5C34 22.671875 33.328125 22 32.5 22 Z M 17.5 33C19.429688 33 21 34.570313 21 36.5L21 38.5C21 40.429688 19.429688 42 17.5 42C15.570313 42 14 40.429688 14 38.5L14 36.5C14 34.570313 15.570313 33 17.5 33 Z M 26.5 33C28.429688 33 30 34.570313 30 36.5L30 38.5C30 40.429688 28.429688 42 26.5 42C24.570313 42 23 40.429688 23 38.5L23 36.5C23 34.570313 24.570313 33 26.5 33 Z M 32 33L35 33L35 42L33 42L33 35L32 35 Z M 17.5 35C16.671875 35 16 35.671875 16 36.5L16 38.5C16 39.328125 16.671875 40 17.5 40C18.328125 40 19 39.328125 19 38.5L19 36.5C19 35.671875 18.328125 35 17.5 35 Z M 26.5 35C25.671875 35 25 35.671875 25 36.5L25 38.5C25 39.328125 25.671875 40 26.5 40C27.328125 40 28 39.328125 28 38.5L28 36.5C28 35.671875 27.328125 35 26.5 35Z" />
</svg>