<?xml version="1.0" encoding="utf-8"?>
<svg xmlns="http://www.w3.org/2000/svg" viewBox="0 0 50 50" width="515" height="515">
  <path d="M14 5C11.851563 5 9.949219 6.140625 8.90625 7.84375C10.007813 7.453125 11.320313 7.1875 12.90625 7.1875C16.132813 7.1875 18.378906 8.761719 19.96875 10.3125C19.632813 7.289063 17.128906 5 14 5 Z M 36 5C32.8125 5 30.285156 7.386719 30.03125 10.5C31.644531 8.886719 33.960938 7.1875 37.3125 7.1875C38.78125 7.1875 39.980469 7.429688 41.03125 7.78125C39.980469 6.117188 38.121094 5 36 5 Z M 12.90625 9.1875C6.871094 9.1875 5.75 13.054688 5.15625 15.09375C4.402344 17.410156 3.171875 22.042969 2.1875 25.90625C4.289063 24.101563 7.019531 23 10 23C16.617188 23 22 28.382813 22 35C22 35.5 21.964844 35.984375 21.90625 36.46875C21.925781 36.476563 21.945313 36.492188 21.96875 36.5C22.070313 36.535156 22.175781 36.558594 22.28125 36.59375C22.394531 36.628906 22.507813 36.65625 22.625 36.6875C22.753906 36.71875 22.894531 36.753906 23.03125 36.78125C23.140625 36.804688 23.230469 36.855469 23.34375 36.875C23.507813 36.902344 23.671875 36.917969 23.84375 36.9375C23.941406 36.949219 24.058594 36.960938 24.15625 36.96875C24.433594 36.992188 24.703125 37 25 37C25.296875 37 25.570313 36.992188 25.84375 36.96875C25.941406 36.960938 26.03125 36.949219 26.125 36.9375C26.300781 36.917969 26.492188 36.902344 26.65625 36.875C26.765625 36.855469 26.863281 36.804688 26.96875 36.78125C27.105469 36.753906 27.246094 36.71875 27.375 36.6875C27.492188 36.65625 27.609375 36.628906 27.71875 36.59375C27.828125 36.5625 27.929688 36.539063 28.03125 36.5C28.050781 36.492188 28.070313 36.472656 28.09375 36.46875C28.035156 35.984375 28 35.5 28 35C28 28.382813 33.382813 23 40 23C43.085938 23 45.902344 24.171875 48.03125 26.09375C47.023438 22.195313 45.777344 17.457031 45.0625 15.09375C44.332031 12.894531 43.101563 9.1875 37.3125 9.1875C33.691406 9.1875 31.5 11.730469 30.0625 13.40625C29.753906 13.765625 29.382813 14.246094 29.125 14.46875C27.953125 13.605469 26.484375 13.09375 25.09375 13.09375C23.628906 13.09375 22.101563 13.632813 21.0625 14.46875C20.800781 14.25 20.382813 13.753906 20.0625 13.375C18.644531 11.710938 16.503906 9.1875 12.90625 9.1875 Z M 10 25C6.03125 25 2.613281 27.332031 1 30.6875C0.695313 31.324219 0.449219 31.992188 0.28125 32.6875C0.273438 32.71875 0.257813 32.75 0.25 32.78125C0.179688 33.085938 0.132813 33.402344 0.09375 33.71875C0.0859375 33.78125 0.0703125 33.84375 0.0625 33.90625C0.0195313 34.265625 0 34.625 0 35C0 40.515625 4.484375 45 10 45C10.339844 45 10.667969 44.96875 11 44.9375C11.167969 44.917969 11.335938 44.898438 11.5 44.875C11.660156 44.851563 11.8125 44.84375 11.96875 44.8125C12.191406 44.765625 12.40625 44.683594 12.625 44.625C12.714844 44.601563 12.816406 44.589844 12.90625 44.5625C13.164063 44.484375 13.410156 44.410156 13.65625 44.3125C13.699219 44.292969 13.765625 44.269531 13.8125 44.25C14.089844 44.136719 14.359375 44.015625 14.625 43.875C14.636719 43.867188 14.644531 43.851563 14.65625 43.84375C17.703125 42.234375 19.804688 39.113281 19.96875 35.46875C19.976563 35.316406 20 35.152344 20 35C20 29.476563 15.523438 25 10 25 Z M 40 25C34.484375 25 30 29.484375 30 35C30 35.152344 30.027344 35.316406 30.03125 35.46875C30.105469 37.121094 30.558594 38.648438 31.34375 40C31.351563 40.011719 31.367188 40.023438 31.375 40.03125C31.523438 40.289063 31.671875 40.539063 31.84375 40.78125C31.859375 40.800781 31.890625 40.824219 31.90625 40.84375C32.070313 41.074219 32.253906 41.285156 32.4375 41.5C32.46875 41.535156 32.496094 41.589844 32.53125 41.625C32.703125 41.816406 32.878906 42.007813 33.0625 42.1875C33.101563 42.226563 33.148438 42.277344 33.1875 42.3125C33.371094 42.488281 33.550781 42.652344 33.75 42.8125C33.816406 42.867188 33.898438 42.914063 33.96875 42.96875C34.148438 43.105469 34.3125 43.222656 34.5 43.34375C34.59375 43.40625 34.6875 43.472656 34.78125 43.53125C34.953125 43.636719 35.132813 43.746094 35.3125 43.84375C35.433594 43.90625 35.558594 43.9375 35.6875 44C35.847656 44.078125 36.023438 44.183594 36.1875 44.25C36.34375 44.3125 36.496094 44.347656 36.65625 44.40625C36.800781 44.457031 36.917969 44.519531 37.0625 44.5625C37.222656 44.613281 37.398438 44.648438 37.5625 44.6875C37.707031 44.722656 37.882813 44.78125 38.03125 44.8125C38.140625 44.835938 38.230469 44.828125 38.34375 44.84375C38.457031 44.863281 38.574219 44.890625 38.6875 44.90625C38.785156 44.921875 38.898438 44.925781 39 44.9375C39.332031 44.964844 39.660156 45 40 45C45.515625 45 50 40.515625 50 35C50 34.6875 49.964844 34.398438 49.9375 34.09375C49.925781 33.980469 49.921875 33.863281 49.90625 33.75C49.886719 33.570313 49.875 33.394531 49.84375 33.21875C49.820313 33.078125 49.78125 32.949219 49.75 32.8125C49.71875 32.664063 49.664063 32.488281 49.625 32.34375C49.585938 32.199219 49.546875 32.078125 49.5 31.9375C48.199219 27.921875 44.4375 25 40 25 Z M 25 27C26.105469 27 27 27.894531 27 29C27 30.105469 26.105469 31 25 31C23.898438 31 23 30.105469 23 29C23 27.894531 23.898438 27 25 27 Z M 5 34C5.550781 34 6 34.445313 6 35C6 37.242188 7.757813 39 10 39C10.550781 39 11 39.445313 11 40C11 40.554688 10.550781 41 10 41C6.636719 41 4 38.363281 4 35C4 34.445313 4.449219 34 5 34 Z M 36 34C36.554688 34 37 34.445313 37 35C37 37.242188 38.757813 39 41 39C41.554688 39 42 39.445313 42 40C42 40.554688 41.554688 41 41 41C37.636719 41 35 38.363281 35 35C35 34.445313 35.445313 34 36 34Z" />
</svg>