<?xml version="1.0" encoding="utf-8"?>
<svg xmlns="http://www.w3.org/2000/svg" viewBox="0 0 50 50" width="515" height="515">
  <path d="M21.4375 1.09375C21.347656 1.089844 21.277344 1.105469 21.1875 1.125C14.308594 2.652344 9.5 7.878906 9.5 13.8125C9.5 15.476563 9.84375 17.070313 10.53125 18.5625C8.945313 18.730469 7.382813 19.210938 5.90625 20.03125C0.707031 23.105469 -1.421875 29.878906 0.75 36.5C0.785156 36.613281 0.832031 36.71875 0.90625 36.8125L1.3125 37.3125C1.507813 37.554688 1.796875 37.6875 2.09375 37.6875C2.101563 37.6875 2.117188 37.6875 2.125 37.6875C2.675781 37.6875 3.125 37.242188 3.125 36.6875C3.125 36.511719 3.078125 36.359375 3 36.21875C1.609375 31.648438 3.0625 26.945313 6.5 24.96875C7.65625 24.292969 8.941406 23.9375 10.34375 23.9375C14.03125 23.9375 17.808594 26.324219 19.9375 30C22.960938 35.222656 21.925781 41.523438 17.625 44.03125C16.460938 44.683594 15.160156 45 13.78125 45C10.957031 45 8.09375 43.621094 5.9375 41.21875C5.621094 40.867188 5.097656 40.792969 4.6875 41.03125C4.277344 41.269531 4.101563 41.769531 4.25 42.21875L4.4375 42.8125C4.480469 42.9375 4.570313 43.054688 4.65625 43.15625C7.613281 46.539063 11.601563 48.46875 15.625 48.46875C17.695313 48.46875 19.632813 47.964844 21.375 46.96875C22.8125 46.167969 24.050781 45.085938 25 43.75C25.949219 45.085938 27.164063 46.175781 28.59375 46.96875C30.320313 47.957031 32.261719 48.46875 34.3125 48.46875C38.320313 48.46875 42.367188 46.542969 45.4375 43.1875C45.53125 43.082031 45.613281 42.945313 45.65625 42.8125L45.84375 42.21875C45.992188 41.769531 45.816406 41.269531 45.40625 41.03125C45 40.792969 44.472656 40.867188 44.15625 41.21875C41.980469 43.632813 39.117188 45.03125 36.3125 45.03125C34.929688 45.03125 33.648438 44.691406 32.5 44.03125C30.636719 42.941406 29.296875 41.121094 28.71875 38.875C27.992188 36.066406 28.515625 32.878906 30.15625 30.125C32.355469 26.441406 36.101563 24.0625 39.6875 24.0625C41.066406 24.0625 42.328125 24.378906 43.5 25.0625C47.039063 27.046875 48.453125 31.761719 46.9375 36.5C46.789063 36.960938 47.011719 37.457031 47.4375 37.6875C47.863281 37.917969 48.386719 37.8125 48.6875 37.4375L49.09375 36.9375C49.171875 36.839844 49.214844 36.710938 49.25 36.59375C51.351563 29.835938 49.242188 23.078125 44.125 20.15625C42.726563 19.300781 41.15625 18.773438 39.46875 18.625C40.152344 17.136719 40.5 15.566406 40.5 13.90625C40.5 7.863281 35.699219 2.640625 28.8125 1.21875C28.691406 1.195313 28.558594 1.199219 28.4375 1.21875L27.84375 1.3125C27.371094 1.390625 27.011719 1.800781 27 2.28125C26.988281 2.761719 27.308594 3.183594 27.78125 3.28125C32.613281 4.304688 36 7.886719 36 12C36 16.960938 31.066406 21 25 21C18.933594 21 14 16.960938 14 12C14 7.886719 17.386719 4.304688 22.21875 3.28125C22.660156 3.1875 22.972656 2.792969 23 2.34375C23.023438 1.894531 22.742188 1.488281 22.3125 1.34375L21.71875 1.15625C21.632813 1.128906 21.527344 1.097656 21.4375 1.09375 Z M 25 12C21.996094 12 19.09375 12.929688 16.65625 14.59375C17.601563 16.429688 19.515625 17.875 21.90625 18.5625C22.894531 18.195313 23.917969 18 25 18C26.132813 18 27.203125 18.179688 28.1875 18.53125C30.542969 17.835938 32.40625 16.410156 33.34375 14.59375C30.90625 12.929688 28.003906 12 25 12 Z M 25 25C26.105469 25 27 25.894531 27 27C27 28.105469 26.105469 29 25 29C23.894531 29 23 28.105469 23 27C23 25.894531 23.894531 25 25 25 Z M 10.34375 25.9375C10.253906 25.9375 10.183594 25.964844 10.09375 25.96875C9.878906 28.964844 10.53125 31.949219 12.03125 34.5C13.582031 37.132813 15.832031 39.207031 18.5 40.5C19.648438 38.761719 19.960938 36.355469 19.375 33.9375C18.527344 33.253906 17.800781 32.441406 17.25 31.5C16.703125 30.5625 16.367188 29.523438 16.1875 28.46875C14.5 26.890625 12.394531 25.9375 10.34375 25.9375 Z M 39.6875 26.0625C37.683594 26.0625 35.609375 27.007813 33.90625 28.625C33.71875 29.621094 33.363281 30.609375 32.84375 31.5C32.277344 32.472656 31.53125 33.3125 30.6875 34C30.316406 35.480469 30.300781 36.992188 30.65625 38.375C30.855469 39.148438 31.183594 39.847656 31.59375 40.46875C34.269531 39.164063 36.476563 37.109375 37.96875 34.5C39.453125 31.902344 40.097656 28.988281 39.90625 26.0625C39.828125 26.058594 39.769531 26.0625 39.6875 26.0625Z" />
</svg>