<?xml version="1.0" encoding="utf-8"?>
<svg xmlns="http://www.w3.org/2000/svg" viewBox="0 0 50 50" width="515" height="515">
  <path d="M8.9375 1.96875C8.863281 1.976563 8.792969 1.984375 8.71875 2C7.714844 2.15625 6.988281 3.046875 7.03125 4.0625C7.230469 11.042969 9.492188 15.933594 12.78125 19.375C15.101563 21.800781 17.84375 23.511719 20.625 25C13.867188 28.640625 7.34375 33.683594 7 45.96875C6.96875 47.074219 7.863281 47.96875 8.96875 48C8.988281 48 8.980469 48.03125 9 48.03125C10.078125 48.03125 10.96875 47.148438 11 46.0625C11.328125 34.269531 17.871094 30.816406 25.5 27C25.835938 26.925781 26.148438 26.761719 26.40625 26.53125C34.101563 22.675781 42.605469 18.125 43 4.03125C43.03125 2.925781 42.136719 2.03125 41.03125 2C39.953125 1.988281 39.03125 2.832031 39 3.9375C39 3.960938 39 3.976563 39 4L13 4C12.96875 4 12.9375 4 12.90625 4C12.875 4 12.84375 4 12.8125 4C12.261719 4.050781 11.855469 4.542969 11.90625 5.09375C11.957031 5.644531 12.449219 6.050781 13 6L38.84375 6C38.773438 6.695313 38.679688 7.367188 38.5625 8L13.59375 8C13.5625 8 13.53125 8 13.5 8C13.46875 8 13.4375 8 13.40625 8C12.855469 8.050781 12.449219 8.542969 12.5 9.09375C12.550781 9.644531 13.042969 10.050781 13.59375 10L38.09375 10C37.886719 10.714844 37.648438 11.367188 37.375 12L16 12C15.96875 12 15.9375 12 15.90625 12C15.875 12 15.84375 12 15.8125 12C15.261719 12.050781 14.855469 12.542969 14.90625 13.09375C14.957031 13.644531 15.449219 14.050781 16 14L36.34375 14C35.902344 14.71875 35.40625 15.382813 34.875 16L19.40625 16C19.375 16 19.34375 16 19.3125 16C19.28125 16 19.25 16 19.21875 16C18.667969 16.050781 18.261719 16.542969 18.3125 17.09375C18.363281 17.644531 18.855469 18.050781 19.40625 18L32.84375 18C31.976563 18.722656 31.046875 19.382813 30.0625 20L25 20C24.96875 20 24.9375 20 24.90625 20C24.875 20 24.84375 20 24.8125 20C24.261719 20.050781 23.855469 20.542969 23.90625 21.09375C23.957031 21.644531 24.449219 22.050781 25 22L26.46875 22C25.988281 22.25 25.492188 22.503906 25 22.75C21.441406 20.957031 18.105469 19.15625 15.65625 16.59375C12.996094 13.8125 11.179688 10.171875 11 3.96875C11 3.425781 10.78125 2.910156 10.390625 2.53125C10.003906 2.15625 9.480469 1.953125 8.9375 1.96875 Z M 31.4375 26.15625C30.261719 26.824219 29.089844 27.417969 27.9375 28L24.3125 28C24.269531 27.996094 24.230469 27.996094 24.1875 28C24.15625 28 24.125 28 24.09375 28C23.542969 28.058594 23.140625 28.558594 23.203125 29.109375C23.261719 29.660156 23.761719 30.0625 24.3125 30L30.03125 30C31.015625 30.628906 31.960938 31.289063 32.8125 32L18.8125 32C18.769531 31.996094 18.730469 31.996094 18.6875 32C18.65625 32 18.625 32 18.59375 32C18.042969 32.058594 17.640625 32.558594 17.703125 33.109375C17.761719 33.660156 18.261719 34.0625 18.8125 34L34.875 34C35.414063 34.621094 35.898438 35.28125 36.34375 36L15.59375 36C15.5625 36 15.53125 36 15.5 36C15.46875 36 15.4375 36 15.40625 36C14.855469 36.050781 14.449219 36.542969 14.5 37.09375C14.550781 37.644531 15.042969 38.050781 15.59375 38L37.40625 38C37.675781 38.625 37.917969 39.296875 38.125 40L13.59375 40C13.5625 40 13.53125 40 13.5 40C13.46875 40 13.4375 40 13.40625 40C12.855469 40.050781 12.449219 40.542969 12.5 41.09375C12.550781 41.644531 13.042969 42.050781 13.59375 42L38.5625 42C38.679688 42.632813 38.773438 43.304688 38.84375 44L13 44C12.96875 44 12.9375 44 12.90625 44C12.875 44 12.84375 44 12.8125 44C12.261719 44.050781 11.855469 44.542969 11.90625 45.09375C11.957031 45.644531 12.449219 46.050781 13 46L39 46C39 46.011719 39 46.019531 39 46.03125C39.03125 47.117188 39.890625 48 40.96875 48C40.988281 48 41.011719 47.96875 41.03125 47.96875C42.136719 47.9375 43 47.042969 42.96875 45.9375C42.640625 34.542969 36.996094 29.527344 31.4375 26.15625Z" />
</svg>