<?xml version="1.0" encoding="utf-8"?>
<svg xmlns="http://www.w3.org/2000/svg" viewBox="0 0 50 50" width="515" height="515">
  <path d="M12 0C10.906937 0 10 0.9069372 10 2L10 4L4 4C2.841 4 2 4.841 2 6L2 13L48 13L48 6C48 4.841 47.159 4 46 4L40 4L40 2C40 0.9069372 39.093063 0 38 0L36 0C34.906937 0 34 0.9069372 34 2L34 4L16 4L16 2C16 0.9069372 15.093063 0 14 0L12 0 z M 12 2L14 2L14 8L12 8L12 2 z M 36 2L38 2L38 8L36 8L36 2 z M 2 15L2 46C2 47.105 2.895 48 4 48L46 48C47.105 48 48 47.105 48 46L48 15L2 15 z M 25 19C25 19 27 21.613359 27 22.818359C27 24.023359 26.104 25 25 25C23.896 25 23 24.023359 23 22.818359C23 21.613359 25 19 25 19 z M 24 26L26 26C26.552 26 27 26.448 27 27L27 30.980469L33.105469 30.980469C35.263469 30.980469 37.019531 32.719422 37.019531 34.857422L37.019531 40L38 40C38.553 40 39 40.447 39 41C39 41.553 38.553 42 38 42L37.019531 42L37.019531 42.019531L12.980469 42.019531L12.980469 42L12 42C11.447 42 11 41.553 11 41C11 40.447 11.447 40 12 40L12.980469 40L12.980469 34.857422C12.980469 32.719422 14.736531 30.980469 16.894531 30.980469L23 30.980469L23 27C23 26.448 23.448 26 24 26 z M 16.894531 33.019531C15.860531 33.019531 15.019531 33.843422 15.019531 34.857422L15.019531 39.980469L34.980469 39.980469L34.980469 34.857422C34.980469 33.843422 34.140469 33.019531 33.105469 33.019531L16.894531 33.019531 z" />
</svg>