<?xml version="1.0" encoding="utf-8"?>
<svg xmlns="http://www.w3.org/2000/svg" viewBox="0 0 50 50" width="515" height="515">
  <path d="M25 2C12.317 2 2 12.318 2 25C2 37.682 12.317 48 25 48C37.683 48 48 37.682 48 25C48 12.318 37.683 2 25 2 z M 21 10L23 10L23 13L25 13L25 10L27 10L27 13.015625C29.064 13.107625 33.900391 13.797391 33.900391 18.900391C33.900391 23.000391 30.399219 24.100781 29.699219 24.300781L29.699219 24.400391C31.199219 24.600391 34.800781 25.999219 34.800781 30.199219C34.800781 36.277219 29.301 36.927187 27 36.992188L27 40L25 40L25 37L23 37L23 40L21 40L21 37L16 37L16 13L21 13L21 10 z M 18.300781 14.900391L18.300781 23.5L26.199219 23.5C27.099219 23.5 27.899609 23.399219 28.599609 23.199219C29.299609 22.999219 29.800781 22.700781 30.300781 22.300781C30.700781 21.900781 31.100781 21.5 31.300781 21C31.500781 20.5 31.599609 20.000391 31.599609 19.400391C31.599609 16.400391 29.799219 14.900391 26.199219 14.900391L18.300781 14.900391 z M 18.300781 25.5L18.300781 35.099609L26.199219 35.099609C27.099219 35.099609 27.899609 35.000391 28.599609 34.900391C29.399609 34.800391 29.999609 34.499609 30.599609 34.099609C31.199609 33.699609 31.6 33.199609 32 32.599609C32.3 31.999609 32.5 31.199219 32.5 30.199219C32.5 28.699219 32.000391 27.499219 30.900391 26.699219C29.800391 25.899219 28.199219 25.5 26.199219 25.5L18.300781 25.5 z" />
</svg>