<?xml version="1.0" encoding="utf-8"?>
<svg xmlns="http://www.w3.org/2000/svg" viewBox="0 0 50 50" width="515" height="515">
  <path d="M37.964844 39.21875C41.394531 35.402344 43 29.460938 43 20.644531C43 9.941406 35.429688 2.171875 25 2.171875C14.570313 2.171875 7 9.941406 7 20.644531C7 29.460938 8.605469 35.398438 12.035156 39.21875C10.199219 41.613281 9.160156 43.621094 9.109375 43.714844C8.988281 43.953125 8.964844 44.230469 9.050781 44.484375C9.136719 44.742188 9.320313 44.953125 9.5625 45.070313C9.820313 45.195313 16.035156 48.171875 25 48.171875C33.964844 48.171875 40.179688 45.195313 40.4375 45.070313C40.679688 44.953125 40.863281 44.742188 40.949219 44.484375C41.035156 44.230469 41.011719 43.953125 40.890625 43.714844C40.84375 43.621094 39.800781 41.613281 37.964844 39.21875 Z M 13 24C13 22.34375 14.789063 21 17 21C20.113281 21 23 24 23 24C23 24 20.070313 27 17 27C14.789063 27 13 25.65625 13 24 Z M 25 40C22.789063 40 21 37.761719 21 35C21 32.238281 22.789063 29 25 29C27.210938 29 29 32.238281 29 35C29 37.761719 27.210938 40 25 40 Z M 33 27C29.929688 27 27 24 27 24C27 24 29.886719 21 33 21C35.210938 21 37 22.34375 37 24C37 25.65625 35.210938 27 33 27Z" />
</svg>