<?xml version="1.0" encoding="utf-8"?>
<svg xmlns="http://www.w3.org/2000/svg" viewBox="0 0 50 50" width="515" height="515">
  <path d="M6 2C3.792969 2 2 3.792969 2 6L2.015625 30.683594L2.03125 30.683594C2.023438 30.789063 2 30.890625 2 31C2 33.207031 3.792969 35 6 35L18 35L18 33L6 33C4.898438 33 4 32.101563 4 31C4 29.898438 4.898438 29 6 29L18 29L18 19C18 15.691406 20.691406 13 24 13L30 13L30 2 Z M 9 7L23 7C23.550781 7 24 7.449219 24 8L24 10C24 10.550781 23.550781 11 23 11L9 11C8.449219 11 8 10.550781 8 10L8 8C8 7.449219 8.449219 7 9 7 Z M 24 15C21.792969 15 20 16.792969 20 19L20.015625 43.683594L20.03125 43.683594C20.023438 43.789063 20 43.890625 20 44C20 46.207031 21.792969 48 24 48L48 48L48 46L24 46C22.898438 46 22 45.101563 22 44C22 42.898438 22.898438 42 24 42L48 42L48 15 Z M 27 20L41 20C41.550781 20 42 20.449219 42 21L42 23C42 23.550781 41.550781 24 41 24L27 24C26.449219 24 26 23.550781 26 23L26 21C26 20.449219 26.449219 20 27 20Z" />
</svg>