<?xml version="1.0" encoding="utf-8"?>
<svg xmlns="http://www.w3.org/2000/svg" viewBox="0 0 50 50" width="515" height="515">
  <path d="M13 2C10.792969 2 9 3.792969 9 6L9 44.3125L9.03125 44.3125C9.195313 46.363281 10.910156 48 13 48L42 48L42 46L13 46C11.882813 46 11 45.117188 11 44C11 42.882813 11.882813 42 13 42L42 42L42 40L13 40C11.898438 40 11 39.101563 11 38C11 36.898438 11.898438 36 13 36L42 36L42 2 Z M 16 8L35 8C35.550781 8 36 8.449219 36 9L36 12C36 12.550781 35.550781 13 35 13L16 13C15.449219 13 15 12.550781 15 12L15 9C15 8.449219 15.449219 8 16 8Z" />
</svg>