<?xml version="1.0" encoding="utf-8"?>
<svg xmlns="http://www.w3.org/2000/svg" viewBox="0 0 50 50" width="515" height="515">
  <path d="M16.5 1C14.800781 1 13.597656 1.519531 12.4375 2.03125C11.785156 2.316406 11.175781 2.597656 10.46875 2.78125C9.792969 2.953125 9.238281 2.992188 8.53125 3.03125C7.757813 3.074219 6.871094 3.125 5.65625 3.375C3.183594 3.882813 3 5.886719 3 9.125C3 9.484375 2.992188 10.1875 3 11.09375C3.023438 13.964844 3.082031 18.773438 3 20.78125C2.960938 21.722656 2.917969 22.574219 2.84375 23.34375C3.625 23.605469 4.226563 23.824219 4.28125 23.84375C4.691406 24.019531 12.964844 27.652344 15.96875 34.75C16.183594 35.257813 15.945313 35.847656 15.4375 36.0625C15.308594 36.117188 15.191406 36.125 15.0625 36.125C14.671875 36.125 14.285156 35.914063 14.125 35.53125C11.4375 29.179688 3.640625 25.722656 3.5625 25.6875C3.335938 25.609375 2.957031 25.488281 2.53125 25.34375C2.390625 25.960938 2.203125 26.492188 1.96875 26.96875C1 28.953125 -0.03125 32.21875 -0.03125 35.375C-0.03125 36.023438 0.03125 36.546875 0.09375 37L1.625 37.3125C1.625 37.3125 2.875 37.546875 6.96875 38.15625C7.554688 38.246094 8.417969 38.296875 9.40625 38.34375C11.382813 38.4375 13.828125 38.5625 15.78125 39.15625C24.035156 41.652344 28.925781 41.761719 36.125 41.0625C43.410156 40.355469 47.492188 38.175781 47.53125 38.15625C48.007813 37.929688 48.492188 37.65625 48.90625 37.40625C48.769531 36.394531 48.464844 35.113281 47.75 34.125C46.507813 32.40625 44.125 31.238281 42 31.34375C40.410156 31.402344 39.515625 31.78125 38.875 32.0625C38.246094 32.339844 38.023438 32.425781 37.25 32.1875C36.875 32.074219 36.5 31.941406 36.15625 31.8125C35.535156 33.691406 34.171875 35.582031 33.125 37.03125C32.648438 37.6875 32.230469 38.277344 32 38.6875C31.816406 39.011719 31.472656 39.1875 31.125 39.1875C30.960938 39.1875 30.8125 39.152344 30.65625 39.0625C30.175781 38.792969 30.011719 38.167969 30.28125 37.6875C30.566406 37.179688 30.988281 36.582031 31.5 35.875C32.65625 34.277344 34.242188 32.097656 34.46875 30.34375C34.550781 29.691406 34.410156 29.199219 33.90625 28.78125C33.699219 28.625 33.476563 28.464844 33.25 28.34375C32.628906 28.039063 31.742188 27.773438 30.53125 27.46875C30.519531 27.464844 30.507813 27.441406 30.5 27.4375C30.300781 27.398438 30.132813 27.375 29.96875 27.34375L29.46875 27.25C27.902344 26.972656 26.769531 26.773438 25.1875 25.71875C23.601563 24.660156 23.0625 23.09375 22.34375 19.1875C21.957031 17.070313 21.980469 10.390625 22 6.40625L22 4.46875C22 2.453125 19.691406 1 16.5 1 Z M 17.71875 5.65625C18.382813 5.65625 18.90625 6.210938 18.90625 6.875C18.90625 7.539063 18.382813 8.0625 17.71875 8.0625C17.054688 8.0625 16.5 7.539063 16.5 6.875C16.5 6.210938 17.054688 5.65625 17.71875 5.65625 Z M 17.625 10.9375C18.289063 10.9375 18.84375 11.492188 18.84375 12.15625C18.84375 12.820313 18.289063 13.34375 17.625 13.34375C16.960938 13.34375 16.4375 12.820313 16.4375 12.15625C16.4375 11.492188 16.960938 10.9375 17.625 10.9375 Z M 17.78125 15.90625C18.445313 15.90625 19 16.460938 19 17.125C19 17.789063 18.445313 18.3125 17.78125 18.3125C17.117188 18.3125 16.59375 17.789063 16.59375 17.125C16.59375 16.460938 17.117188 15.90625 17.78125 15.90625 Z M 18.5 21.40625C19.164063 21.40625 19.71875 21.929688 19.71875 22.59375C19.71875 23.257813 19.164063 23.8125 18.5 23.8125C17.835938 23.8125 17.3125 23.257813 17.3125 22.59375C17.3125 21.929688 17.835938 21.40625 18.5 21.40625 Z M 20.90625 25.75C21.570313 25.75 22.125 26.304688 22.125 26.96875C22.125 27.632813 21.570313 28.15625 20.90625 28.15625C20.242188 28.15625 19.71875 27.632813 19.71875 26.96875C19.71875 26.304688 20.242188 25.75 20.90625 25.75 Z M 24.6875 28.46875C25.351563 28.46875 25.875 29.023438 25.875 29.6875C25.875 30.351563 25.351563 30.875 24.6875 30.875C24.023438 30.875 23.46875 30.351563 23.46875 29.6875C23.46875 29.023438 24.023438 28.46875 24.6875 28.46875 Z M 29.40625 30C30.070313 30 30.59375 30.523438 30.59375 31.1875C30.59375 31.851563 30.070313 32.40625 29.40625 32.40625C28.742188 32.40625 28.1875 31.851563 28.1875 31.1875C28.1875 30.523438 28.742188 30 29.40625 30 Z M 0.03125 39.03125C0.0273438 39.078125 0.03125 39.140625 0.03125 39.1875L0.3125 46.375C0.3125 47.113281 0.882813 47.90625 1.96875 47.90625C2.394531 47.90625 3.625 47.96875 3.625 47.96875C3.683594 47.972656 3.722656 47.976563 3.78125 47.96875C4.410156 47.878906 4.882813 47.484375 5 46.96875L5 44.90625L6.40625 45C6.414063 45.21875 6.46875 46.96875 6.46875 46.96875C6.511719 47.167969 6.625 47.398438 6.8125 47.59375C6.996094 47.785156 7.316406 48 7.875 48L11.375 48C11.445313 48 11.523438 47.984375 11.59375 47.96875C12.222656 47.828125 12.84375 47.339844 12.84375 46.5625L12.84375 44.40625C14.140625 44.554688 16.679688 44.769531 20.40625 45.0625C20.398438 45.28125 20.386719 45.511719 20.375 45.6875C20.363281 45.832031 20.386719 45.988281 20.4375 46.125C20.578125 46.492188 20.964844 46.917969 21.625 47.0625C22.183594 47.183594 23.898438 47.382813 24.09375 47.40625C24.15625 47.414063 24.21875 47.410156 24.28125 47.40625C25.394531 47.3125 25.8125 46.710938 25.8125 46.1875C25.8125 46.164063 25.804688 46.109375 25.8125 46.0625C25.890625 46.0625 25.957031 46.0625 26.03125 46.0625C26.054688 46.207031 26.097656 46.363281 26.125 46.5C26.1875 47.175781 26.738281 47.84375 27.625 47.84375L27.75 47.84375C28.160156 47.84375 30.089844 47.9375 30.09375 47.9375C30.148438 47.941406 30.199219 47.941406 30.25 47.9375C30.808594 47.878906 31.410156 47.417969 31.46875 46.625C31.476563 46.511719 31.46875 46.34375 31.46875 46.1875L31.625 46.1875C32.222656 46.179688 32.992188 46.1875 33.4375 46.1875L33.5 46.78125C33.519531 46.992188 33.613281 47.183594 33.75 47.34375C33.839844 47.449219 34.175781 47.816406 34.65625 47.9375C34.765625 47.964844 34.875 47.96875 35.03125 47.96875C35.585938 47.96875 37.164063 47.800781 37.34375 47.78125C37.660156 47.746094 37.964844 47.585938 38.125 47.3125C38.371094 46.890625 38.519531 46.519531 38.53125 46.1875C38.578125 46.066406 38.65625 45.859375 38.75 45.65625C39.03125 45.59375 39.464844 45.511719 39.78125 45.4375C39.875 45.582031 39.988281 45.726563 40.0625 45.84375C40.207031 46.339844 40.628906 46.71875 41.15625 46.71875C41.230469 46.71875 41.394531 46.703125 41.46875 46.6875C41.730469 46.625 43.53125 46.3125 43.53125 46.3125C43.785156 46.269531 44 46.140625 44.15625 45.9375L44.46875 45.5C44.578125 45.351563 44.640625 45.183594 44.65625 45L44.75 44C44.921875 43.9375 45.164063 43.863281 45.4375 43.75L45.6875 44.1875C45.785156 44.347656 45.925781 44.476563 46.09375 44.5625C46.242188 44.636719 46.835938 44.796875 47.25 44.65625C47.308594 44.636719 47.457031 44.609375 49.21875 43.78125C49.4375 43.679688 49.621094 43.5 49.71875 43.28125C50.089844 42.449219 49.972656 42.070313 49.9375 41.96875C49.867188 41.675781 49.511719 39.738281 49.5 39.4375C49.5 39.417969 49.5 39.394531 49.5 39.375C49.121094 39.585938 48.742188 39.792969 48.4375 39.9375C48.3125 40.007813 44.042969 42.28125 36.3125 43.03125C33.933594 43.261719 31.785156 43.40625 29.65625 43.40625C25.242188 43.40625 20.972656 42.800781 15.21875 41.0625C13.5 40.542969 11.179688 40.433594 9.3125 40.34375C8.273438 40.292969 7.371094 40.257813 6.6875 40.15625C2.539063 39.539063 1.300781 39.289063 1.25 39.28125Z" />
</svg>