<?xml version="1.0" encoding="utf-8"?>
<svg xmlns="http://www.w3.org/2000/svg" viewBox="0 0 50 50" width="515" height="515">
  <path d="M43 26L43 22.03125C43 17.601563 39.394531 14 34.96875 14L26 14L26 10.859375C27.722656 10.410156 29 8.859375 29 7C29 4.792969 27.207031 3 25 3C22.792969 3 21 4.792969 21 7C21 8.859375 22.28125 10.410156 24 10.859375L24 14L15.03125 14C10.605469 14 7 17.601563 7 22.03125L7 26L2 26L2 38L7 38L7 47L43 47L43 38L48 38L48 26 Z M 27 38L27 45L23 45L23 38 Z M 15 26.5C15 24.566406 16.566406 23 18.5 23C20.433594 23 22 24.566406 22 26.5C22 28.433594 20.433594 30 18.5 30C16.566406 30 15 28.433594 15 26.5 Z M 17 38L21 38L21 45L17 45 Z M 33 45L29 45L29 38L33 38 Z M 31.5 30C29.566406 30 28 28.433594 28 26.5C28 24.566406 29.566406 23 31.5 23C33.433594 23 35 24.566406 35 26.5C35 28.433594 33.433594 30 31.5 30Z" />
</svg>