<?xml version="1.0" encoding="utf-8"?>
<svg xmlns="http://www.w3.org/2000/svg" viewBox="0 0 50 50" width="515" height="515">
  <path d="M27.59375 0C15.382813 0 10.925781 2.84375 10.375 11.46875C10.808594 19.085938 12.984375 24.113281 14 26.4375C14.132813 26.746094 14.222656 27 14.3125 27.21875C14.523438 27.730469 14.292969 28.320313 13.78125 28.53125C13.65625 28.582031 13.53125 28.59375 13.40625 28.59375C13.011719 28.59375 12.625 28.355469 12.46875 27.96875C12.382813 27.761719 12.285156 27.507813 12.15625 27.21875C11.210938 25.050781 9.285156 20.667969 8.5625 14.09375C6.878906 14.324219 5.296875 15.261719 4.28125 16.75C3.347656 18.125 2.074219 21.175781 3.96875 25.96875C8.410156 37.625 13.625 39.335938 16.75 40.375C17.105469 40.492188 17.433594 40.605469 17.71875 40.71875C19.054688 41.253906 21.871094 41.375 24 41.375C27.59375 41.375 37.449219 40.863281 39.71875 38.59375C43.625 34.6875 45 22.640625 45 13.5C45 3.28125 40.765625 0 27.59375 0 Z M 40.90625 40.21875C37.449219 43.226563 26.25 43.375 24 43.375C18.949219 43.375 17.480469 42.785156 17 42.59375C16.753906 42.496094 16.460938 42.394531 16.125 42.28125C15.910156 42.210938 15.675781 42.144531 15.4375 42.0625C16.105469 45.785156 16.632813 47.351563 17.40625 48.125C18.9375 49.535156 21.644531 50 28.5 50C35.65625 50 38.679688 49.300781 39.59375 47.46875C40.417969 45.945313 40.761719 42.742188 40.90625 40.21875Z" />
</svg>