<?xml version="1.0" encoding="utf-8"?>
<svg xmlns="http://www.w3.org/2000/svg" viewBox="0 0 50 50" width="515" height="515">
  <path d="M25 0C21.140625 0 18 3.140625 18 7C18 10.859375 21.140625 14 25 14C28.859375 14 32 10.859375 32 7C32 3.140625 28.859375 0 25 0 Z M 20.4375 14.90625C17.449219 14.90625 14.765625 16.941406 14.0625 19.75C14.0625 19.75 10.957031 32.066406 10.9375 32.15625C10.695313 33.363281 11.382813 34.511719 12.5625 34.90625C12.601563 34.921875 12.648438 34.929688 12.6875 34.9375C12.863281 34.972656 13.046875 35 13.21875 35C14.328125 35 15.285156 34.292969 15.5 33.21875C15.511719 33.160156 17.96875 23.65625 17.96875 23.65625L18 23.65625L18 28L32 28L32 23.65625L32.03125 23.65625C32.03125 23.65625 34.519531 33.171875 34.53125 33.21875C34.746094 34.292969 35.703125 35 36.8125 35C36.984375 35 37.136719 34.972656 37.3125 34.9375C37.351563 34.929688 37.398438 34.917969 37.4375 34.90625C38.617188 34.511719 39.304688 33.363281 39.0625 32.15625C39.035156 32.007813 35.875 19.75 35.875 19.75C35.15625 16.890625 32.535156 14.90625 29.5 14.90625 Z M 18 29L18 36L32 36L32 29 Z M 18 37L18 47.5C18 48.875 19.125 50 20.5 50C21.875 50 23 48.875 23 47.5L23 37 Z M 27 37L27 47.5C27 48.875 28.125 50 29.5 50C30.875 50 32 48.875 32 47.5L32 37Z" />
</svg>