<?xml version="1.0" encoding="utf-8"?>
<svg xmlns="http://www.w3.org/2000/svg" viewBox="0 0 50 50" width="515" height="515">
  <path d="M19.822266 4.4960938 A 1.0001 1.0001 0 0 0 18.90625 5.25L18.388672 7.1816406 A 1.0001 1.0001 0 1 0 20.320312 7.6992188L20.837891 5.765625 A 1.0001 1.0001 0 0 0 19.822266 4.4960938 z M 12.125 4.5 A 1.0001 1.0001 0 0 0 11.140625 5.7734375L11.660156 7.7050781 A 1.0001437 1.0001437 0 1 0 13.591797 7.1855469L13.072266 5.2539062 A 1.0001 1.0001 0 0 0 12.125 4.5 z M 26.578125 8.3769531 A 1.0001 1.0001 0 0 0 25.890625 8.6796875L24.478516 10.09375 A 1.0005836 1.0005836 0 1 0 25.894531 11.507812L27.306641 10.091797 A 1.0001 1.0001 0 0 0 26.578125 8.3769531 z M 5.375 8.390625 A 1.0001 1.0001 0 0 0 4.6796875 10.109375L6.09375 11.521484 A 1.0005837 1.0005837 0 0 0 7.5078125 10.105469L6.0917969 8.6933594 A 1.0001 1.0001 0 0 0 5.375 8.390625 z M 15.689453 10C10.349453 10.17 6 14.659297 6 20.029297C6 23.139297 7.740625 25.540703 9.140625 27.470703C10.120625 28.830703 10.97 30 11 31L21 31C21 30.02 21.850078 28.850234 22.830078 27.490234C24.250078 25.560234 26 23.14 26 20C26 17.27 24.920938 14.720312 22.960938 12.820312C21.010938 10.920313 18.409453 9.93 15.689453 10 z M 34.689453 11.419922 A 1.0001 1.0001 0 0 0 33.701172 12.691406L34.214844 14.623047 A 1.0001 1.0001 0 1 0 36.148438 14.111328L35.634766 12.177734 A 1.0001 1.0001 0 0 0 34.689453 11.419922 z M 41.349609 11.439453 A 1.0001 1.0001 0 0 0 40.431641 12.191406L39.910156 14.121094 A 1.0001 1.0001 0 1 0 41.839844 14.642578L42.363281 12.712891 A 1.0001 1.0001 0 0 0 41.349609 11.439453 z M 28.824219 14.773438 A 1.0001 1.0001 0 0 0 28.123047 16.488281L29.533203 17.90625 A 1.0001 1.0001 0 1 0 30.951172 16.496094L29.541016 15.078125 A 1.0001 1.0001 0 0 0 28.824219 14.773438 z M 47.199219 14.822266 A 1.0001 1.0001 0 0 0 46.511719 15.123047L45.09375 16.533203 A 1.0001 1.0001 0 1 0 46.503906 17.951172L47.921875 16.541016 A 1.0001 1.0001 0 0 0 47.199219 14.822266 z M 38 17C33.59 17 30 20.59 30 25C30 28.14 31.439844 29.890781 32.589844 31.300781C33.089844 31.910781 33.529531 32.44 33.769531 33L42.240234 33C42.480234 32.47 42.910625 31.949609 43.390625 31.349609C44.550625 29.939609 46 28.18 46 25C46 20.59 42.41 17 38 17 z M 13 33L13 35C13 35.55 13.45 36 14 36L18 36C18.55 36 19 35.55 19 35L19 33L13 33 z M 11 34.699219C10.15 35.339219 8.9508594 35.840859 7.6308594 36.380859C4.5308594 37.660859 0.66976563 39.249375 0.009765625 43.859375C-0.030234375 44.149375 0.050234375 44.440156 0.24023438 44.660156C0.43023438 44.870156 0.71 45 1 45L31 45C31.29 45 31.569766 44.870156 31.759766 44.660156C31.949766 44.440156 32.030234 44.149375 31.990234 43.859375C31.330234 39.249375 27.469141 37.660859 24.369141 36.380859C23.049141 35.840859 21.85 35.339219 21 34.699219L21 35C21 36.65 19.65 38 18 38L17.720703 38C17.380703 38.6 16.74 39 16 39C15.26 39 14.619297 38.6 14.279297 38L14 38C12.35 38 11 36.65 11 35L11 34.699219 z M 36 35L36 36C36 36.55 36.45 37 37 37L39 37C39.55 37 40 36.55 40 36L40 35L36 35 z M 34.080078 36.669922C33.440078 37.069922 32.570703 37.419766 31.720703 37.759766C31.520703 37.839766 31.330859 37.92 31.130859 38C32.520859 39.33 33.620703 41.100078 33.970703 43.580078C34.040703 44.060078 33.990078 44.55 33.830078 45L49 45C49.28 45 49.540469 44.879688 49.730469 44.679688C49.920469 44.479687 50.02 44.199688 50 43.929688C49.72 40.199688 46.680469 38.910859 44.230469 37.880859C43.360469 37.510859 42.520391 37.160234 41.900391 36.740234C41.640391 37.780234 40.829062 38.590859 39.789062 38.880859C39.459062 39.540859 38.79 40 38 40C37.21 40 36.540937 39.540859 36.210938 38.880859C35.150938 38.590859 34.320078 37.739922 34.080078 36.669922 z" />
</svg>