<?xml version="1.0" encoding="utf-8"?>
<svg xmlns="http://www.w3.org/2000/svg" viewBox="0 0 50 50" width="515" height="515">
  <path d="M24.921875 3C14.343875 3 8.5982344 8.2759531 7.3652344 19.126953L3.3378906 26.066406C2.9968906 26.679406 2.90875 27.384828 3.09375 28.048828C3.27975 28.720828 3.7239062 29.277625 4.3789062 29.640625L7.4199219 31.162109L8.4003906 37.943359C8.8053906 40.475359 11.112891 43.1 13.962891 43L17 43L17 47L37 47L37 40.59375C37 37.73275 37.969875 34.834562 39.796875 32.226562C40.119576 31.777157 40.398446 31.28812 40.662109 30.785156C41.418113 30.442999 42 29.716399 42 28.818359L42 25L42 22.455078C42 21.841495 42.183287 21.460863 42.5625 20.986328C42.941713 20.511793 43.538383 20.001847 44.195312 19.367188C45.509172 18.097869 47 16.188841 47 12.910156C47 7.4424434 42.505835 3 37 3C35.260017 3 33.621353 3.4452844 32.193359 4.2246094C30.094621 3.4491629 27.684955 3 24.921875 3 z M 37 5C41.436165 5 45 8.5338696 45 12.910156C45 15.633471 43.990828 16.783756 42.804688 17.929688C42.211616 18.502652 41.558287 19.03966 41 19.738281C40.441713 20.436903 40 21.355161 40 22.455078L40 25L38 25L38 16.414062L40.707031 13.707031 A 1.0001 1.0001 0 1 0 39.292969 12.292969L37 14.585938L34.707031 12.292969 A 1.0001 1.0001 0 0 0 33.990234 11.990234 A 1.0001 1.0001 0 0 0 33.292969 13.707031L36 16.414062L36 25L34 25L34 22.453125C34 21.46385 33.521605 20.648655 32.976562 20.015625C32.431522 19.382595 31.801195 18.853098 31.214844 18.253906C30.042142 17.055522 29 15.701316 29 12.908203C29 8.5330272 32.563835 5 37 5 z M 34 27L40 27L40 28.818359C40 28.966931 39.965697 29 39.714844 29L34.285156 29C34.032659 29 34 28.966931 34 28.818359L34 27 z M 35.271484 31L38.726562 31C38.488674 31.410339 38.106771 31.727631 37.646484 31.884766C37.617484 31.894766 37.590547 31.901156 37.560547 31.910156C37.382547 31.962156 37.196 32 37 32C36.804 32 36.618453 31.962156 36.439453 31.910156C36.410453 31.901156 36.381516 31.894766 36.353516 31.884766C35.89234 31.727327 35.509399 31.411087 35.271484 31 z" />
</svg>