<?xml version="1.0" encoding="utf-8"?>
<svg xmlns="http://www.w3.org/2000/svg" viewBox="0 0 50 50" width="515" height="515">
  <path d="M25 2C19.5 2 15 6.5 15 12C15 13.1875 15.210938 14.316406 15.59375 15.375C14.015625 15.535156 11.195313 16.085938 9.09375 18.1875C6.09375 21.1875 6 25.800781 6 26C6 26.300781 6.113281 26.488281 6.3125 26.6875C6.511719 26.886719 6.699219 27 7 27C7.199219 27 11.804688 26.898438 14.90625 24C16.550781 22.300781 17.253906 20.230469 17.5625 18.65625C19.398438 20.699219 22.054688 22 25 22C30.5 22 35 17.5 35 12C35 6.5 30.5 2 25 2 Z M 25.1875 24C16.289063 24 9 31.289063 9 40.1875L9 47L17.8125 47L18.59375 46L22.5 42.09375C23.800781 40.792969 25.386719 39.988281 27.1875 39.6875C27.789063 39.585938 28.488281 39.5 29.1875 39.5C29.085938 39 29 38.5 29 38C29 35.199219 31.199219 33 34 33C36.738281 33 38.90625 35.101563 39 37.8125C38.996094 37.855469 38.996094 37.894531 39 37.9375C39 37.957031 39 37.980469 39 38C39 38.171875 38.984375 38.332031 38.96875 38.5C38.96875 38.511719 38.96875 38.519531 38.96875 38.53125C38.953125 38.6875 38.9375 38.847656 38.90625 39C38.902344 39.011719 38.910156 39.019531 38.90625 39.03125C38.769531 39.671875 38.511719 40.257813 38.15625 40.78125C38.152344 40.789063 38.160156 40.804688 38.15625 40.8125C37.804688 41.328125 37.328125 41.804688 36.8125 42.15625C36.804688 42.160156 36.789063 42.152344 36.78125 42.15625C36.257813 42.511719 35.671875 42.769531 35.03125 42.90625C34.695313 42.976563 34.355469 43 34 43C33.132813 43 32.4375 42.855469 31.6875 42.4375C31.203125 42.167969 30.59375 42.34375 30.328125 42.828125C30.058594 43.3125 30.234375 43.921875 30.71875 44.1875C31.765625 44.769531 32.867188 45 34 45C34.730469 45 35.429688 44.898438 36.09375 44.6875C36.261719 44.636719 36.433594 44.59375 36.59375 44.53125L37.1875 46L37.40625 47L43.40625 47L44.40625 45.59375C46.105469 43.195313 46.5 40.105469 45.5 37.40625L44.5 34.6875C42.300781 28.289063 36.113281 24 29.3125 24Z" />
</svg>