<?xml version="1.0" encoding="utf-8"?>
<svg xmlns="http://www.w3.org/2000/svg" viewBox="0 0 50 50" width="515" height="515">
  <path d="M0 8L0 10L3 10L3 13L0 13L0 19L1 19C2.652344 19 4 20.347656 4 22L4 35.84375C3.71875 35.871094 3.433594 35.90625 3.1875 35.90625C2.839844 35.90625 2.515625 35.867188 2.21875 35.84375C1.917969 35.820313 1.660156 35.8125 1.40625 35.8125C0.855469 35.8125 0.40625 36.257813 0.40625 36.8125C0.40625 37.367188 0.855469 37.8125 1.40625 37.8125C1.609375 37.8125 1.820313 37.824219 2.0625 37.84375C2.410156 37.871094 2.777344 37.90625 3.1875 37.90625C4.796875 37.90625 6.992188 37.511719 8.6875 36.4375C10.382813 37.511719 12.578125 37.90625 14.1875 37.90625C15.796875 37.90625 17.992188 37.511719 19.6875 36.4375C21.382813 37.511719 23.578125 37.90625 25.1875 37.90625C26.796875 37.90625 28.992188 37.511719 30.6875 36.4375C32.378906 37.511719 34.578125 37.90625 36.1875 37.90625C37.796875 37.90625 39.992188 37.511719 41.6875 36.4375C43.378906 37.511719 45.578125 37.90625 47.1875 37.90625C48.011719 37.90625 48.757813 37.777344 49.375 37.53125C49.886719 37.324219 50.140625 36.730469 49.9375 36.21875C49.730469 35.707031 49.136719 35.453125 48.625 35.65625C48.246094 35.808594 47.757813 35.90625 47.1875 35.90625C46.828125 35.90625 46.429688 35.871094 46 35.8125L46 22C46 20.347656 47.347656 19 49 19L50 19L50 13L47 13L47 10L50 10L50 8 Z M 5 10L10 10L10 13L5 13 Z M 12 10L17 10L17 13L12 13 Z M 19 10L24 10L24 13L19 13 Z M 26 10L31 10L31 13L26 13 Z M 33 10L38 10L38 13L33 13 Z M 40 10L45 10L45 13L40 13 Z M 16 19L34 19C35.652344 19 37 20.347656 37 22L37 35.84375C36.71875 35.867188 36.433594 35.90625 36.1875 35.90625C34.78125 35.90625 32.683594 35.527344 31.34375 34.4375C30.976563 34.136719 30.429688 34.136719 30.0625 34.4375C28.71875 35.527344 26.59375 35.90625 25.1875 35.90625C23.78125 35.90625 21.683594 35.527344 20.34375 34.4375C19.976563 34.136719 19.429688 34.136719 19.0625 34.4375C17.71875 35.527344 15.59375 35.90625 14.1875 35.90625C13.828125 35.90625 13.429688 35.871094 13 35.8125L13 22C13 20.347656 14.347656 19 16 19 Z M 8.59375 38.1875C8.394531 38.214844 8.210938 38.304688 8.0625 38.4375C6.765625 39.492188 4.507813 39.90625 3.1875 39.90625C2.582031 39.90625 2.039063 39.8125 1.40625 39.8125C1.046875 39.808594 0.710938 39.996094 0.527344 40.308594C0.347656 40.621094 0.347656 41.003906 0.527344 41.316406C0.710938 41.628906 1.046875 41.816406 1.40625 41.8125C1.773438 41.8125 2.390625 41.90625 3.1875 41.90625C4.691406 41.90625 6.875 41.457031 8.6875 40.28125C10.503906 41.472656 12.675781 41.90625 14.1875 41.90625C15.691406 41.90625 17.875 41.457031 19.6875 40.28125C21.503906 41.472656 23.675781 41.90625 25.1875 41.90625C26.691406 41.90625 28.875 41.457031 30.6875 40.28125C32.503906 41.472656 34.675781 41.90625 36.1875 41.90625C37.691406 41.90625 39.875 41.457031 41.6875 40.28125C43.503906 41.472656 45.675781 41.90625 47.1875 41.90625C47.984375 41.90625 48.726563 41.789063 49.375 41.53125C49.894531 41.324219 50.144531 40.738281 49.9375 40.21875C49.730469 39.699219 49.144531 39.449219 48.625 39.65625C48.273438 39.796875 47.792969 39.90625 47.1875 39.90625C45.867188 39.90625 43.640625 39.492188 42.34375 38.4375C41.972656 38.128906 41.433594 38.128906 41.0625 38.4375C39.761719 39.492188 37.507813 39.90625 36.1875 39.90625C34.867188 39.90625 32.640625 39.492188 31.34375 38.4375C30.972656 38.128906 30.433594 38.128906 30.0625 38.4375C28.761719 39.492188 26.507813 39.90625 25.1875 39.90625C23.867188 39.90625 21.640625 39.492188 20.34375 38.4375C19.972656 38.128906 19.433594 38.128906 19.0625 38.4375C17.765625 39.492188 15.507813 39.90625 14.1875 39.90625C12.867188 39.90625 10.640625 39.492188 9.34375 38.4375C9.164063 38.277344 8.929688 38.1875 8.6875 38.1875C8.65625 38.1875 8.625 38.1875 8.59375 38.1875Z" />
</svg>