<?xml version="1.0" encoding="utf-8"?>
<svg xmlns="http://www.w3.org/2000/svg" viewBox="0 0 50 50" width="515" height="515">
  <path d="M44.5 0C41.46875 0 39 2.46875 39 5.5C39 8.53125 41.46875 11 44.5 11C47.53125 11 50 8.53125 50 5.5C50 2.46875 47.53125 0 44.5 0 Z M 34.28125 1.34375C34.21875 1.347656 34.15625 1.359375 34.09375 1.375C33.726563 1.453125 33.433594 1.726563 33.332031 2.089844C33.234375 2.453125 33.347656 2.839844 33.625 3.09375L35.59375 5L24 5C13.324219 5 8.640625 11.1875 7.375 15.03125C7.578125 15.019531 7.792969 15 8 15C8.519531 15 9.03125 15.046875 9.53125 15.125C10.78125 12.160156 14.582031 7 24 7L35.59375 7L33.71875 8.9375C33.425781 9.183594 33.300781 9.578125 33.394531 9.945313C33.488281 10.316406 33.789063 10.601563 34.160156 10.679688C34.535156 10.757813 34.921875 10.613281 35.15625 10.3125L38.71875 6.625C39.09375 6.226563 39.082031 5.601563 38.6875 5.21875L35 1.65625C34.8125 1.457031 34.554688 1.347656 34.28125 1.34375 Z M 44.5 13C41.46875 13 39 15.46875 39 18.5C39 21.53125 41.46875 24 44.5 24C47.53125 24 50 21.53125 50 18.5C50 15.46875 47.53125 13 44.5 13 Z M 34.28125 14.34375C34.21875 14.347656 34.15625 14.359375 34.09375 14.375C33.726563 14.453125 33.433594 14.726563 33.332031 15.089844C33.234375 15.453125 33.347656 15.839844 33.625 16.09375L35.59375 18L30.53125 18C24.609375 18 23.046875 19.53125 21.65625 20.875C20.765625 21.734375 19.957031 22.480469 17.75 22.8125C17.894531 23.453125 17.988281 24.132813 18 24.8125C20.878906 24.390625 21.964844 23.339844 23.03125 22.3125C24.257813 21.128906 25.417969 20 30.53125 20L35.59375 20L33.71875 21.9375C33.425781 22.183594 33.300781 22.578125 33.394531 22.945313C33.488281 23.316406 33.789063 23.601563 34.160156 23.679688C34.535156 23.757813 34.921875 23.613281 35.15625 23.3125L38.71875 19.625C39.09375 19.226563 39.082031 18.601563 38.6875 18.21875L35 14.65625C34.8125 14.457031 34.554688 14.347656 34.28125 14.34375 Z M 8 17C3.589844 17 0 20.589844 0 25C0 29.410156 3.589844 33 8 33C12.410156 33 16 29.410156 16 25C16 20.589844 12.410156 17 8 17 Z M 44.5 26C41.46875 26 39 28.46875 39 31.5C39 34.53125 41.46875 37 44.5 37C47.53125 37 50 34.53125 50 31.5C50 28.46875 47.53125 26 44.5 26 Z M 17.9375 26.1875C17.855469 26.863281 17.707031 27.496094 17.5 28.125C19.90625 28.4375 20.730469 29.234375 21.65625 30.125C23.046875 31.46875 24.609375 33 30.53125 33L35.59375 33L33.71875 34.9375C33.425781 35.183594 33.300781 35.578125 33.394531 35.945313C33.488281 36.316406 33.789063 36.601563 34.160156 36.679688C34.535156 36.757813 34.921875 36.613281 35.15625 36.3125L38.71875 32.625C39.09375 32.226563 39.082031 31.601563 38.6875 31.21875L35 27.65625C34.765625 27.417969 34.425781 27.308594 34.09375 27.375C33.726563 27.453125 33.433594 27.726563 33.332031 28.089844C33.234375 28.453125 33.347656 28.839844 33.625 29.09375L35.59375 31L30.53125 31C25.417969 31 24.257813 29.871094 23.03125 28.6875C21.957031 27.652344 20.867188 26.601563 17.9375 26.1875 Z M 9.53125 34.875C9.03125 34.953125 8.519531 35 8 35C7.792969 35 7.578125 34.980469 7.375 34.96875C8.640625 38.8125 13.324219 45 24 45L35.59375 45L33.625 46.90625C33.324219 47.140625 33.179688 47.527344 33.257813 47.902344C33.335938 48.273438 33.621094 48.574219 33.992188 48.667969C34.359375 48.761719 34.753906 48.636719 35 48.34375L38.6875 44.78125C39.082031 44.398438 39.09375 43.773438 38.71875 43.375L35.15625 39.6875C34.925781 39.4375 34.585938 39.316406 34.25 39.375C33.886719 39.441406 33.585938 39.703125 33.476563 40.058594C33.363281 40.414063 33.457031 40.800781 33.71875 41.0625L35.59375 43L24 43C14.582031 43 10.78125 37.839844 9.53125 34.875 Z M 44.5 39C41.46875 39 39 41.46875 39 44.5C39 47.53125 41.46875 50 44.5 50C47.53125 50 50 47.53125 50 44.5C50 41.46875 47.53125 39 44.5 39Z" />
</svg>