<?xml version="1.0" encoding="utf-8"?>
<svg xmlns="http://www.w3.org/2000/svg" viewBox="0 0 50 50" width="515" height="515">
  <path d="M17 2C15.347656 2 14 3.347656 14 5L14 45C14 46.652344 15.347656 48 17 48L33 48C34.652344 48 36 46.652344 36 45L36 5C36 3.347656 34.652344 2 33 2 Z M 5 4C3.347656 4 2 5.347656 2 7L2 43C2 44.652344 3.347656 46 5 46L13 46L13 32L12 32L12 30L13 30L13 28L12 28L12 26L13 26L13 18L7 18L7 16L13 16L13 14L7 14L7 12L13 12L13 4 Z M 37 4L37 12L43 12L43 14L37 14L37 16L43 16L43 18L37 18L37 26L43 26L43 28L37 28L37 30L43 30L43 32L37 32L37 34L43 34L43 36L37 36L37 46L45 46C46.652344 46 48 44.652344 48 43L48 7C48 5.347656 46.652344 4 45 4 Z M 19 10L31 10L31 12L19 12 Z M 19 14L31 14L31 16L19 16 Z M 9 26C9.550781 26 10 26.449219 10 27C10 27.550781 9.550781 28 9 28C8.449219 28 8 27.550781 8 27C8 26.449219 8.449219 26 9 26 Z M 20 26C20.550781 26 21 26.449219 21 27C21 27.550781 20.550781 28 20 28C19.449219 28 19 27.550781 19 27C19 26.449219 19.449219 26 20 26 Z M 23 26L31 26L31 28L23 28 Z M 9 30C9.550781 30 10 30.449219 10 31C10 31.550781 9.550781 32 9 32C8.449219 32 8 31.550781 8 31C8 30.449219 8.449219 30 9 30 Z M 20 30C20.550781 30 21 30.449219 21 31C21 31.550781 20.550781 32 20 32C19.449219 32 19 31.550781 19 31C19 30.449219 19.449219 30 20 30 Z M 23 30L31 30L31 32L23 32 Z M 20 34C20.550781 34 21 34.449219 21 35C21 35.550781 20.550781 36 20 36C19.449219 36 19 35.550781 19 35C19 34.449219 19.449219 34 20 34 Z M 23 34L31 34L31 36L23 36 Z M 20 38C20.550781 38 21 38.449219 21 39C21 39.550781 20.550781 40 20 40C19.449219 40 19 39.550781 19 39C19 38.449219 19.449219 38 20 38 Z M 23 38L31 38L31 40L23 40Z" />
</svg>