<?xml version="1.0" encoding="utf-8"?>
<svg xmlns="http://www.w3.org/2000/svg" viewBox="0 0 50 50" width="515" height="515">
  <path d="M35 7C33.082031 7 31.261719 7.414063 29.5625 8.183594L28 15L31.699219 15L28.101563 24L30.699219 24L22.5 37.199219L25 26L21.699219 26L24.800781 17L20.601563 17L22.105469 9.132813C20.054688 7.742188 17.613281 7 15 7C7.832031 7 2 12.832031 2 20C2 31.601563 12.167969 38.40625 19.59375 43.378906C21.5 44.652344 23.144531 45.753906 24.359375 46.769531C24.546875 46.921875 24.773438 47 25 47C25.226563 47 25.453125 46.921875 25.640625 46.769531C26.859375 45.753906 28.5 44.65625 30.40625 43.378906C37.832031 38.40625 48 31.601563 48 20C48 12.832031 42.167969 7 35 7Z" />
</svg>