<?xml version="1.0" encoding="utf-8"?>
<svg xmlns="http://www.w3.org/2000/svg" viewBox="0 0 50 50" width="515" height="515">
  <path d="M4.8457031 6C3.2757031 6 2 7.2757031 2 8.8457031L2 18L48 18L48 8.8457031C48 7.2757031 46.724297 6 45.154297 6L4.8457031 6 z M 8 10C9.104 10 10 10.895 10 12C10 13.104 9.104 14 8 14C6.896 14 6 13.104 6 12C6 10.895 6.896 10 8 10 z M 14 10C15.104 10 16 10.895 16 12C16 13.104 15.104 14 14 14C12.896 14 12 13.104 12 12C12 10.895 12.896 10 14 10 z M 19 10L43 10L43 14L19 14L19 10 z M 2 20L2 43C2 43.553 2.447 44 3 44L47 44C47.553 44 48 43.553 48 43L48 20L2 20 z" />
</svg>