<?xml version="1.0" encoding="utf-8"?>
<svg xmlns="http://www.w3.org/2000/svg" viewBox="0 0 50 50" width="515" height="515">
  <path d="M5 4C3.346 4 2 5.346 2 7L2 13L3 13L46.998047 13L47.998047 13L47.998047 11C47.998047 9.346 46.652047 8 44.998047 8L18.044922 8.0058594C17.765922 7.9048594 17.188906 6.9861875 16.878906 6.4921875C16.111906 5.2681875 15.317 4 14 4L5 4 z M 3 15C2.449 15 2 15.448 2 16L2 43C2 44.654 3.346 46 5 46L45 46C46.172 46 47.188641 45.323797 47.681641 44.341797C47.885641 43.937797 48 43.482 48 43L48 16C48 15.448 47.551 15 47 15L3 15 z M 24.5 19C29.194 19 33 22.806 33 27.5C33 32.194 29.194 36 24.5 36C19.806 36 16 32.194 16 27.5C16 22.806 19.806 19 24.5 19 z M 32.59375 34.179688L37.957031 39.542969L36.542969 40.957031L31.179688 35.59375C31.694688 35.16775 32.16775 34.694688 32.59375 34.179688 z" />
</svg>