<?xml version="1.0" encoding="utf-8"?>
<svg xmlns="http://www.w3.org/2000/svg" viewBox="0 0 50 50" width="515" height="515">
  <path d="M25 3C22.636719 3 20.566406 4.390625 19.59375 6.4375C21.199219 6.113281 22.996094 5.9375 25 5.9375C27.007813 5.9375 28.800781 6.113281 30.40625 6.4375C29.4375 4.390625 27.375 3 25 3 Z M 25 7.9375C19.195313 7.9375 12.9375 9.46875 12.9375 15C12.9375 16.195313 13.101563 17.21875 13.40625 18.125C14.210938 18.203125 15.03125 18.449219 16.03125 18.71875C17.9375 19.234375 20.820313 20 25 20C28.804688 20 31.523438 19.421875 33.5 19C34.648438 18.753906 35.578125 18.570313 36.46875 18.53125C36.871094 17.539063 37.0625 16.367188 37.0625 15C37.0625 9.46875 30.804688 7.9375 25 7.9375 Z M 3 8C2.449219 8 2 8.449219 2 9C2 14.769531 3.3125 18.914063 5.90625 21.34375C7.453125 22.789063 9.089844 23.265625 10.09375 23.40625C10.007813 24.472656 10 25.773438 10 27.46875C10 27.632813 10.027344 27.800781 10.03125 27.96875L2 27.96875C1.4375 27.96875 0.96875 28.4375 0.96875 29C0.96875 29.5625 1.4375 30.03125 2 30.03125L10.15625 30.03125C10.375 31.828125 10.851563 33.617188 11.53125 35.3125C9 35.917969 2 38.25 2 46C2 46.554688 2.449219 47 3 47C3.550781 47 4 46.554688 4 46C4 39.125 10.757813 37.429688 12.375 37.125C14.652344 41.476563 18.542969 44.9375 24 45.84375L24 29C24 28.445313 24.449219 28 25 28C25.550781 28 26 28.445313 26 29L26 45.84375C31.457031 44.9375 35.378906 41.507813 37.65625 37.15625C39.363281 37.488281 46 39.199219 46 46C46 46.554688 46.445313 47 47 47C47.554688 47 48 46.554688 48 46C48 38.25 41 35.917969 38.46875 35.3125C39.148438 33.617188 39.625 31.828125 39.84375 30.03125L48 30.03125C48.5625 30.03125 49.03125 29.5625 49.03125 29C49.03125 28.4375 48.5625 27.96875 48 27.96875L39.96875 27.96875C39.972656 27.800781 40 27.632813 40 27.46875C40 25.808594 39.992188 24.476563 39.84375 23.40625C40.84375 23.273438 42.519531 22.816406 44.09375 21.34375C46.6875 18.914063 48 14.769531 48 9C48 8.449219 47.554688 8 47 8C46.863281 8 46.746094 8.042969 46.625 8.09375C46.503906 8.144531 46.371094 8.191406 46.28125 8.28125C46.101563 8.460938 46 8.722656 46 9C46 14.085938 44.898438 17.828125 42.78125 19.84375C41.460938 21.101563 40.082031 21.378906 39.4375 21.4375C39.292969 21.449219 39.25 21.46875 39.1875 21.46875C38.714844 20.835938 37.960938 20.5 36.78125 20.5C36 20.5 35.085938 20.714844 33.90625 20.96875C31.84375 21.40625 29.015625 22 25 22C20.554688 22 17.507813 21.167969 15.5 20.625C14.351563 20.3125 13.546875 20.09375 12.8125 20.09375C11.558594 20.09375 10.851563 20.484375 10.46875 21.40625C9.808594 21.332031 8.535156 21.078125 7.28125 19.90625C5.136719 17.898438 4 14.121094 4 9C4 8.449219 3.550781 8 3 8Z" />
</svg>