<?xml version="1.0" encoding="utf-8"?>
<svg xmlns="http://www.w3.org/2000/svg" viewBox="0 0 50 50" width="515" height="515">
  <path d="M41.59375 0C41.492188 -0.0117188 41.386719 0.0078125 41.28125 0.03125C31.597656 2.105469 30.589844 9.070313 29.90625 13.6875C29.671875 15.292969 29.4375 16.8125 28.90625 17.5C28.453125 18.105469 28.164063 18.09375 28.0625 18.09375C27.621094 18.09375 26.949219 17.667969 26.3125 17.25C25.375 16.636719 24.304688 15.957031 23.03125 15.90625C22.683594 15.894531 22.382813 16.035156 22.1875 16.3125C21.992188 16.589844 21.933594 16.96875 22.0625 17.28125C23.304688 20.359375 22.25 24.96875 21.3125 29.03125C20.769531 31.382813 20.3125 33.410156 20.3125 35C20.3125 48.230469 32.160156 49.890625 32.28125 49.90625C32.585938 49.941406 32.882813 49.824219 33.09375 49.625C32.703125 49.222656 32.40625 48.90625 32.40625 48.90625C32.40625 48.90625 26.90625 43.488281 26.90625 34.1875C36.007813 38.988281 28.601563 29.101563 38 25C35.199219 34 37.6875 42.085938 41.6875 34.1875C41.6875 34.1875 43.5 35.097656 43.5 40C43.5 41.875 42.796875 43.722656 41.96875 45.375C41.34375 46.628906 40.5625 47.699219 39.84375 48.875C39.84375 48.875 39.554688 49.257813 39.21875 49.71875C39.386719 49.835938 39.601563 49.90625 39.8125 49.90625C39.878906 49.90625 39.933594 49.890625 40 49.875C46.492188 48.507813 50 40.074219 50 32.8125C50 26.527344 47.644531 16.464844 44.28125 12.09375C44.035156 11.773438 43.640625 11.648438 43.25 11.75C42.859375 11.855469 42.550781 12.160156 42.5 12.5625C42.257813 14.433594 41.1875 16.226563 40.8125 16.34375C40.269531 16.027344 39.816406 15.085938 39.59375 13.75C38.9375 9.785156 40.199219 4.015625 42.25 1.65625C42.53125 1.332031 42.59375 0.871094 42.375 0.5C42.210938 0.222656 41.902344 0.03125 41.59375 0 Z M 16 5.0625C15.878906 5.0625 15.769531 5.082031 15.65625 5.125L0.65625 10.8125C0.269531 10.960938 0 11.335938 0 11.75L0 49.0625C0 49.617188 0.449219 50.0625 1 50.0625L26.8125 50.0625C22.929688 48 18.3125 43.710938 18.3125 35C18.3125 33.183594 18.804688 31.039063 19.375 28.5625C20.203125 24.972656 21.226563 20.523438 20.21875 18.03125C19.835938 17.085938 19.945313 16.023438 20.53125 15.1875C21.09375 14.390625 22.019531 13.90625 23 13.90625L23.125 13.90625C24.953125 13.976563 26.363281 14.910156 27.40625 15.59375C27.441406 15.617188 27.492188 15.632813 27.53125 15.65625C27.6875 15.015625 27.804688 14.097656 27.90625 13.40625C28.058594 12.363281 28.265625 11.117188 28.59375 9.78125L16.34375 5.125C16.230469 5.082031 16.121094 5.0625 16 5.0625 Z M 7 17.0625L13 17.0625L13 23.0625L7 23.0625 Z M 7 27.0625L13 27.0625L13 33.0625L7 33.0625 Z M 7 37.0625L13 37.0625L13 43.0625L7 43.0625Z" />
</svg>