<?xml version="1.0" encoding="utf-8"?>
<svg xmlns="http://www.w3.org/2000/svg" viewBox="0 0 50 50" width="515" height="515">
  <path d="M9 4C6.239 4 4 6.239 4 9L4 41C4 43.761 6.239 46 9 46L41 46C43.761 46 46 43.761 46 41L46 9C46 6.239 43.761 4 41 4L9 4 z M 25 12C29.35 12 32.460547 12.660703 34.310547 13.220703C35.100547 13.460703 35.77 13.959141 36.25 14.619141C36.72 15.279141 37 16.100937 37 16.960938L37 22L38 22L38 27L37 27L37 38.519531C37 39.339531 36.349062 40 35.539062 40L34.619141 40C33.819141 40 33.169922 39.339531 33.169922 38.519531L33.169922 38.070312L16.830078 38.070312L16.830078 38.519531C16.830078 39.339531 16.180859 40 15.380859 40L14.460938 40C13.650938 40 13 39.339531 13 38.519531L13 27L12 27L12 22L13 22L13 16.960938C13 15.240937 14.109453 13.700703 15.689453 13.220703C17.539453 12.660703 20.65 12 25 12 z M 15 18L15 27L24 27L24 18L15 18 z M 26 18L26 27L35 27L35 18L26 18 z M 17.5 31 A 1.5 1.5 0 0 0 16 32.5 A 1.5 1.5 0 0 0 17.5 34 A 1.5 1.5 0 0 0 19 32.5 A 1.5 1.5 0 0 0 17.5 31 z M 32.5 31 A 1.5 1.5 0 0 0 31 32.5 A 1.5 1.5 0 0 0 32.5 34 A 1.5 1.5 0 0 0 34 32.5 A 1.5 1.5 0 0 0 32.5 31 z" />
</svg>