<?xml version="1.0" encoding="utf-8"?>
<svg xmlns="http://www.w3.org/2000/svg" viewBox="0 0 50 50" width="515" height="515">
  <path d="M26 4C14.355469 4 13.332031 14.648438 12.65625 21.6875C12.398438 24.375 12.140625 27.140625 11.34375 27.84375C11.128906 28.035156 11 28.308594 11 28.59375C11 30.875 14.339844 31.585938 19.15625 32.1875L19.1875 32.1875L25 40.3125L30.90625 32.25C30.90625 32.230469 30.90625 32.210938 30.90625 32.1875C30.921875 32.183594 30.917969 32.191406 30.9375 32.1875L30.96875 32.15625L31.03125 32.1875C33.6875 31.851563 39.1875 30.855469 39.1875 28.5C39.1875 28.21875 39.085938 27.9375 38.875 27.75C38.171875 27.109375 38.09375 24.394531 38.03125 22C37.875 15.75 37.652344 6.371094 27.625 6L26.90625 4.5625C26.734375 4.222656 26.378906 4 26 4 Z M 17.875 33.90625C17.925781 35.4375 18 37.636719 18.0625 39.46875C19.050781 39.796875 21.054688 40.410156 22.875 40.75 Z M 32 34.15625L27.15625 40.75C28.964844 40.410156 30.917969 39.796875 31.90625 39.46875C31.933594 37.875 31.972656 35.765625 32 34.15625 Z M 34 34.625C33.960938 36.996094 33.910156 40.015625 33.90625 40.21875C33.898438 40.632813 33.640625 41.015625 33.25 41.15625C33.039063 41.230469 28.039063 43 25 43C21.960938 42.996094 16.960938 41.230469 16.75 41.15625C16.363281 41.019531 16.109375 40.65625 16.09375 40.25C16.078125 39.761719 15.980469 36.921875 15.90625 34.71875C15.359375 34.953125 14.777344 35.175781 14.1875 35.40625C10.242188 36.9375 5.335938 38.828125 5 44.9375C4.984375 45.210938 5.09375 45.488281 5.28125 45.6875C5.46875 45.886719 5.726563 46 6 46L44 46C44.273438 46 44.527344 45.886719 44.71875 45.6875C44.90625 45.488281 45.015625 45.210938 45 44.9375C44.664063 38.847656 39.785156 36.917969 35.875 35.375C35.210938 35.113281 34.589844 34.882813 34 34.625Z" />
</svg>