<?xml version="1.0" encoding="utf-8"?>
<svg xmlns="http://www.w3.org/2000/svg" viewBox="0 0 50 50" width="515" height="515">
  <path d="M4 12C1.792969 12 0 13.792969 0 16L0 34C0 36.207031 1.792969 38 4 38L46 38C48.207031 38 50 36.207031 50 34L50 16C50 13.792969 48.207031 12 46 12 Z M 33.523438 22.308594C35.21875 22.308594 36.296875 23.445313 36.296875 25.277344C36.296875 27.113281 35.21875 28.25 33.523438 28.25C31.820313 28.25 30.742188 27.113281 30.742188 25.277344C30.742188 23.445313 31.832031 22.308594 33.523438 22.308594 Z M 6.914063 22.464844L9.542969 22.464844C10.667969 22.464844 11.328125 22.992188 11.328125 23.867188C11.328125 24.472656 10.878906 24.984375 10.28125 25.066406L10.28125 25.140625C11.015625 25.179688 11.589844 25.753906 11.589844 26.472656C11.589844 27.460938 10.824219 28.097656 9.617188 28.097656L6.914063 28.097656 Z M 13.015625 22.464844L14.449219 22.464844L14.449219 26C14.449219 26.65625 14.808594 27.046875 15.445313 27.046875C16.082031 27.046875 16.4375 26.65625 16.4375 26L16.4375 22.464844L17.871094 22.464844L17.871094 26.152344C17.871094 27.417969 16.910156 28.25 15.445313 28.25C13.980469 28.25 13.015625 27.417969 13.015625 26.152344 Z M 19.296875 22.464844L23.980469 22.464844L23.980469 23.613281L22.347656 23.613281L22.347656 28.097656L20.921875 28.097656L20.921875 23.613281L19.296875 23.613281 Z M 25.089844 22.464844L29.773438 22.464844L29.773438 23.613281L28.144531 23.613281L28.144531 28.097656L26.714844 28.097656L26.714844 23.613281L25.089844 23.613281 Z M 37.761719 22.464844L38.90625 22.464844L41.253906 25.636719L41.328125 25.636719L41.328125 22.464844L42.6875 22.464844L42.6875 28.097656L41.550781 28.097656L39.195313 24.894531L39.121094 24.894531L39.121094 28.097656L37.761719 28.097656 Z M 8.347656 23.472656L8.347656 24.757813L9.105469 24.757813C9.628906 24.757813 9.933594 24.515625 9.933594 24.117188C9.933594 23.714844 9.648438 23.472656 9.160156 23.472656 Z M 33.523438 23.496094C32.730469 23.496094 32.203125 24.191406 32.203125 25.277344C32.203125 26.367188 32.722656 27.0625 33.523438 27.0625C34.316406 27.0625 34.839844 26.367188 34.839844 25.277344C34.839844 24.191406 34.3125 23.496094 33.523438 23.496094 Z M 8.347656 25.628906L8.347656 27.089844L9.214844 27.089844C9.808594 27.089844 10.132813 26.824219 10.132813 26.347656C10.132813 25.886719 9.800781 25.628906 9.203125 25.628906Z" />
</svg>