<?xml version="1.0" encoding="utf-8"?>
<svg xmlns="http://www.w3.org/2000/svg" viewBox="0 0 50 50" width="515" height="515">
  <path d="M11 4C9.347656 4 8 5.347656 8 7L8 43C8 44.652344 9.347656 46 11 46L39 46C40.652344 46 42 44.652344 42 43L42 7C42 5.347656 40.652344 4 39 4 Z M 14 9L36 9L36 17L14 17 Z M 24 12L24 14L26 14L26 12 Z M 28 12L28 14L30 14L30 12 Z M 32 12L32 14L34 14L34 12 Z M 14 24L18 24L18 28L14 28 Z M 20 24L24 24L24 28L20 28 Z M 26 24L30 24L30 28L26 28 Z M 32 24L36 24L36 28L32 28 Z M 14 30L18 30L18 34L14 34 Z M 20 30L24 30L24 34L20 34 Z M 26 30L30 30L30 34L26 34 Z M 32 30L36 30L36 34L32 34 Z M 14 36L18 36L18 40L14 40 Z M 20 36L24 36L24 40L20 40 Z M 26 36L30 36L30 40L26 40 Z M 32 36L36 36L36 40L32 40Z" />
</svg>