<?xml version="1.0" encoding="utf-8"?>
<svg xmlns="http://www.w3.org/2000/svg" viewBox="0 0 50 50" width="515" height="515">
  <path d="M12 0C10.90625 0 10 0.90625 10 2L10 4L4 4C2.839844 4 2 4.839844 2 6L2 13L48 13L48 6C48 4.839844 47.160156 4 46 4L40 4L40 2C40 0.90625 39.09375 0 38 0L36 0C34.90625 0 34 0.90625 34 2L34 4L16 4L16 2C16 0.90625 15.09375 0 14 0 Z M 12 2L14 2L14 8L12 8 Z M 36 2L38 2L38 8L36 8 Z M 2 15L2 46C2 47.105469 2.894531 48 4 48L34.027344 48C35.695313 49.25 37.757813 50 40 50C45.515625 50 50 45.515625 50 40C50 37.757813 49.25 35.695313 48 34.027344L48 15 Z M 12 21L17 21L17 26L12 26 Z M 19 21L24 21L24 26L19 26 Z M 26 21L31 21L31 26L26 26 Z M 33 21L38 21L38 26L33 26 Z M 12 28L17 28L17 33L12 33 Z M 19 28L24 28L24 33L19 33 Z M 26 28L31 28L31 33L26 33 Z M 33 28L38 28L38 30.203125C36.074219 30.59375 34.351563 31.542969 33 32.871094 Z M 40 32C44.410156 32 48 35.589844 48 40C48 44.410156 44.410156 48 40 48C35.589844 48 32 44.410156 32 40C32 35.589844 35.589844 32 40 32 Z M 40 34.097656C39.398438 34.097656 39 34.5 39 35.097656L39 39L35.097656 39C34.5 39 34.097656 39.398438 34.097656 40C34.097656 40.601563 34.5 41 35.097656 41L39 41L39 44.902344C39 45.5 39.398438 45.902344 40 45.902344C40.601563 45.902344 41 45.5 41 44.902344L41 41L44.902344 41C45.5 41 45.902344 40.601563 45.902344 40C45.902344 39.398438 45.5 39 44.902344 39L41 39L41 35.097656C41 34.5 40.601563 34.097656 40 34.097656 Z M 12 35L17 35L17 40L12 40 Z M 19 35L24 35L24 40L19 40 Z M 26 35L31 35L31 35.671875C30.367188 36.980469 30 38.449219 30 40L26 40Z" />
</svg>