<?xml version="1.0" encoding="utf-8"?>
<svg xmlns="http://www.w3.org/2000/svg" viewBox="0 0 50 50" width="515" height="515">
  <path d="M22.4375 0.03125C21.214844 0.0625 20.019531 0.574219 19.09375 1.5L17.6875 2.90625L30.78125 16L28.375 18.4375L35.0625 25.25L36.1875 24.125L39.5 27.40625C41.292969 29.199219 44.300781 29.199219 46.09375 27.40625L46.8125 26.6875L41.5 21.40625L46.8125 16.09375L36.78125 6.0625L24.625 0.5C23.921875 0.171875 23.171875 0.0117188 22.4375 0.03125 Z M 13.8125 6.6875L12.40625 8.09375C10.96875 9.53125 10.527344 11.8125 11.375 13.625L16.96875 25.78125L17.6875 26.5L15.78125 28.40625C15.242188 28.945313 14.394531 29.207031 13.46875 29.5C12.410156 29.835938 11.3125 30.1875 10.5 31C8.953125 32.546875 8.90625 35.371094 8.90625 35.6875L8.90625 36.125L12.09375 39.3125L29.3125 22.1875 Z M 31.1875 24.1875L14.0625 41.3125L17.6875 45.125L30.90625 31.90625L36.1875 37.1875L36.875 36.53125C37.789063 35.675781 38.3125 34.449219 38.3125 33.1875C38.3125 31.925781 37.800781 30.738281 36.90625 29.90625 Z M 8.40625 38.46875L0.28125 46.59375C0.0195313 46.855469 -0.078125 47.238281 0.03125 47.59375C0.140625 47.949219 0.449219 48.210938 0.8125 48.28125L9.71875 49.96875C9.78125 49.980469 9.84375 50 9.90625 50C10.167969 50 10.40625 49.90625 10.59375 49.71875L15.0625 45.25Z" />
</svg>