<?xml version="1.0" encoding="utf-8"?>
<svg xmlns="http://www.w3.org/2000/svg" viewBox="0 0 50 50" width="515" height="515">
  <path d="M17 7C15.683594 7 14.886719 8.265625 14.121094 9.492188C13.808594 9.984375 13.234375 10.90625 13 11L4 11C2.347656 11 1 12.347656 1 14L1 40C1 41.652344 2.347656 43 4 43L46 43C47.652344 43 49 41.652344 49 40L49 14C49 12.347656 47.652344 11 46 11L37.046875 11.003906C36.765625 10.90625 36.191406 9.984375 35.878906 9.492188C35.113281 8.265625 34.316406 7 33 7 Z M 25 17C30.515625 17 35 21.484375 35 27C35 32.515625 30.515625 37 25 37C19.484375 37 15 32.515625 15 27C15 21.484375 19.484375 17 25 17 Z M 25 21C25 21 23.789063 24.210938 23 25C22.210938 25.789063 19 27 19 27C19 27 22.210938 28.210938 23 29C23.789063 29.789063 25 33 25 33C25 33 26.210938 29.789063 27 29C27.789063 28.210938 31 27 31 27C31 27 27.789063 25.789063 27 25C26.210938 24.210938 25 21 25 21Z" />
</svg>