<?xml version="1.0" encoding="utf-8"?>
<svg xmlns="http://www.w3.org/2000/svg" viewBox="0 0 50 50" width="515" height="515">
  <path d="M19.09375 5C18.097656 5 17.1875 5.53125 16.5625 6.46875L14.9375 9L6 9C3.242188 9 1 11.242188 1 14L1 38C1 40.757813 3.242188 43 6 43L44 43C46.757813 43 49 40.757813 49 38L49 14C49 11.242188 46.757813 9 44 9L34.9375 9L33.34375 6.4375C32.730469 5.519531 31.808594 5 30.8125 5 Z M 10 14C11.101563 14 12 14.898438 12 16C12 17.101563 11.101563 18 10 18C8.898438 18 8 17.101563 8 16C8 14.898438 8.898438 14 10 14 Z M 25 15C31.066406 15 36 19.933594 36 26C36 32.066406 31.066406 37 25 37C18.933594 37 14 32.066406 14 26C14 19.933594 18.933594 15 25 15 Z M 25 17C20.039063 17 16 21.039063 16 26C16 30.964844 20.039063 35 25 35C29.964844 35 34 30.964844 34 26C34 21.039063 29.964844 17 25 17Z" />
</svg>