<?xml version="1.0" encoding="utf-8"?>
<svg xmlns="http://www.w3.org/2000/svg" viewBox="0 0 50 50" width="515" height="515">
  <path d="M23.824219 4C22.558594 4 21.257813 4.984375 20.738281 6.3125L20.449219 7L18 7C18 6.445313 17.554688 6 17 6L14.109375 6C13.558594 6 13.109375 6.445313 13.109375 7L13.109375 7.335938C11.269531 8.058594 10 9.859375 10 11.890625L10 23.109375C10 25.804688 12.191406 28 14.890625 28L35.109375 28C37.804688 28 40 25.808594 40 23.109375L40 11.890625C40 9.191406 37.808594 7 35.109375 7L34.21875 7L33.9375 6.339844C33.410156 4.984375 32.109375 4 30.84375 4 Z M 27 10C30.859375 10 34 13.140625 34 17C34 20.859375 30.859375 24 27 24C23.140625 24 20 20.859375 20 17C20 13.140625 23.140625 10 27 10 Z M 15 11C15.550781 11 16 11.449219 16 12C16 12.550781 15.550781 13 15 13C14.449219 13 14 12.550781 14 12C14 11.449219 14.449219 11 15 11 Z M 27 12C24.242188 12 22 14.242188 22 17C22 19.757813 24.242188 22 27 22C29.757813 22 32 19.757813 32 17C32 14.242188 29.757813 12 27 12 Z M 20 29L20 31L22.285156 31L13.8125 46L16.109375 46L24 32.035156L24 46L26 46L26 32.066406L33.714844 46L36 46L27.699219 31L30 31L30 29Z" />
</svg>