<?xml version="1.0" encoding="utf-8"?>
<svg xmlns="http://www.w3.org/2000/svg" viewBox="0 0 50 50" width="515" height="515">
  <path d="M7 9C4.242188 9 2 11.242188 2 14L2 36C2 38.757813 4.242188 41 7 41L43 41C45.757813 41 48 38.757813 48 36L48 14C48 11.242188 45.757813 9 43 9 Z M 15 17C15.152344 17 15.296875 17.023438 15.4375 17.09375L21.4375 20.09375C21.929688 20.339844 22.152344 20.945313 21.90625 21.4375C21.730469 21.789063 21.367188 22 21 22C20.851563 22 20.707031 21.976563 20.5625 21.90625L15 19.125L9.4375 21.90625C8.945313 22.15625 8.339844 21.929688 8.09375 21.4375C7.847656 20.945313 8.070313 20.339844 8.5625 20.09375L14.5625 17.09375C14.703125 17.023438 14.847656 17 15 17 Z M 27 18L41 18C41.554688 18 42 18.449219 42 19C42 19.550781 41.554688 20 41 20L27 20C26.445313 20 26 19.550781 26 19C26 18.449219 26.445313 18 27 18 Z M 27 22L38 22C38.554688 22 39 22.449219 39 23C39 23.550781 38.554688 24 38 24L27 24C26.445313 24 26 23.550781 26 23C26 22.449219 26.445313 22 27 22 Z M 11.71875 23L18.28125 23C19.144531 23 19.914063 23.558594 20.1875 24.375L21 26.84375L21 32.5C21 32.777344 20.777344 33 20.5 33L18.5 33C18.222656 33 18 32.777344 18 32.5L18 32L12 32L12 32.5C12 32.777344 11.777344 33 11.5 33L9.5 33C9.222656 33 9 32.777344 9 32.5L9 26.84375L9.8125 24.375C10.085938 23.558594 10.855469 23 11.71875 23 Z M 11.71875 25L11.0625 27L18.9375 27L18.28125 25 Z M 27 26L41 26C41.554688 26 42 26.445313 42 27C42 27.554688 41.554688 28 41 28L27 28C26.445313 28 26 27.554688 26 27C26 26.445313 26.445313 26 27 26 Z M 11 29C10.449219 29 10 29.449219 10 30C10 30.550781 10.449219 31 11 31C11.550781 31 12 30.550781 12 30C12 29.449219 11.550781 29 11 29 Z M 19 29C18.449219 29 18 29.449219 18 30C18 30.550781 18.449219 31 19 31C19.550781 31 20 30.550781 20 30C20 29.449219 19.550781 29 19 29 Z M 27 30L38 30C38.554688 30 39 30.445313 39 31C39 31.554688 38.554688 32 38 32L27 32C26.445313 32 26 31.554688 26 31C26 30.445313 26.445313 30 27 30Z" />
</svg>