<?xml version="1.0" encoding="utf-8"?>
<svg xmlns="http://www.w3.org/2000/svg" viewBox="0 0 50 50" width="515" height="515">
  <path d="M30 9L30 11L7.125 11C5.332031 11 3.746094 12.203125 3.269531 13.9375C2.679688 16.074219 2 19.699219 2 25C2 30.300781 2.679688 33.925781 3.269531 36.0625C3.746094 37.796875 5.332031 39 7.125 39L30 39L30 41L32 41L32 39L41.152344 39C43.996094 39 46.449219 36.992188 47.03125 34.214844C47.523438 31.847656 48 28.628906 48 25C48 21.371094 47.523438 18.152344 47.03125 15.785156C46.449219 13.007813 43.996094 11 41.152344 11L32 11L32 9 Z M 12 13L30 13L25 17L17 17 Z M 43 14L43.789063 14C44.421875 14.558594 44.886719 15.3125 45.074219 16.195313C45.300781 17.285156 45.519531 18.578125 45.691406 20L43 20 Z M 9 16L13 20L13 30L9 34C9 34 8 30.929688 8 24.996094C8 19.0625 9 16 9 16 Z M 33 16C33 16 35 19.953125 35 25C35 30.046875 33 34 33 34L29 30L29 20 Z M 43 30L45.691406 30C45.519531 31.421875 45.296875 32.714844 45.070313 33.804688C44.886719 34.6875 44.421875 35.441406 43.785156 36L43 36 Z M 17 33L25 33L30 37L12 37Z" />
</svg>