<?xml version="1.0" encoding="utf-8"?>
<svg xmlns="http://www.w3.org/2000/svg" viewBox="0 0 50 50" width="515" height="515">
  <path d="M38 2C36.941406 2 35.894531 2.164063 34.875 2.5L33.3125 3L40.09375 9.78125L38.875 12.875L35.78125 14.09375L29.03125 7.3125L28.5 8.875C28.164063 9.894531 28 10.945313 28 12C28 15.984375 30.382813 19.578125 34 21.15625L34 43C34 45.757813 36.242188 48 39 48C41.757813 48 44 45.757813 44 43L44 20C46.515625 18.113281 48 15.160156 48 12C48 6.484375 43.515625 2 38 2 Z M 22.5 14C21.289063 14 20.128906 14.453125 19.21875 15.25L12.53125 21.09375L2.28125 23.65625C0.949219 23.988281 0 25.191406 0 26.5625L0 32C0 33.644531 1.355469 35 3 35L4.09375 35C4.5625 37.273438 6.59375 39 9 39C11.40625 39 13.4375 37.273438 13.90625 35L32 35L32 33L13.90625 33C13.4375 30.726563 11.40625 29 9 29C6.59375 29 4.5625 30.726563 4.09375 33L3 33C2.433594 33 2 32.566406 2 32L2 26.5625C2 26.097656 2.300781 25.707031 2.75 25.59375L13.25 22.96875C13.402344 22.929688 13.539063 22.855469 13.65625 22.75L20.53125 16.75C21.078125 16.269531 21.773438 16 22.5 16L27 16L27 14 Z M 9 31C10.667969 31 12 32.332031 12 34C12 35.667969 10.667969 37 9 37C7.332031 37 6 35.667969 6 34C6 32.332031 7.332031 31 9 31Z" />
</svg>