<?xml version="1.0" encoding="utf-8"?>
<svg xmlns="http://www.w3.org/2000/svg" viewBox="0 0 50 50" width="515" height="515">
  <path d="M39.292969 2.2929688L33.585938 8L39.292969 13.707031L40.707031 12.292969L37.414062 9L41 9C43.754545 9 46 11.245455 46 14L46 19L48 19L48 14C48 10.154545 44.845455 7 41 7L37.414062 7L40.707031 3.7070312L39.292969 2.2929688 z M 6 7C3.794 7 2 8.794 2 11L2 25C2 27.206 3.794 29 6 29L17 29L17 25C17 21.692 19.692 19 23 19L31 19L31 11C31 8.794 29.206 7 27 7L6 7 z M 4 13L29 13L29 17L4 17L4 13 z M 23 21C20.794 21 19 22.794 19 25L19 39C19 41.206 20.794 43 23 43L44 43C46.206 43 48 41.206 48 39L48 25C48 22.794 46.206 21 44 21L23 21 z M 21 27L46 27L46 31L21 31L21 27 z M 2 31L2 36C2 39.845455 5.1545455 43 9 43L12.585938 43L9.2929688 46.292969L10.707031 47.707031L16.414062 42L10.707031 36.292969L9.2929688 37.707031L12.585938 41L9 41C6.2454545 41 4 38.754545 4 36L4 31L2 31 z" />
</svg>