<?xml version="1.0" encoding="utf-8"?>
<svg xmlns="http://www.w3.org/2000/svg" viewBox="0 0 50 50" width="515" height="515">
  <path d="M10 14C9.449219 14 9 14.449219 9 15L9 19L5 19C4.449219 19 4 19.449219 4 20L4 29L14 29L14 24.40625L15.71875 22.71875C15.90625 22.53125 16 22.265625 16 22L16 20C16 19.449219 15.550781 19 15 19L11 19L11 15C11 14.449219 10.550781 14 10 14 Z M 38 24C36.679688 24 35.699219 24.277344 34.9375 24.90625C34.53125 25.246094 34.21875 25.84375 33.78125 26.65625C32.792969 28.488281 31.441406 31 29 31L3 31C1.457031 31 0 32.433594 0 33.9375L0 36.875C0 38.222656 0.96875 40.203125 2.5625 41.9375C2.652344 41.941406 2.753906 41.9375 2.84375 41.9375C3.964844 41.9375 5.605469 41.601563 6.53125 40.875C7.058594 40.457031 7.703125 40.21875 8.375 40.21875C9.042969 40.21875 9.722656 40.460938 10.25 40.875C11.179688 41.605469 12.816406 41.9375 13.9375 41.9375C15.058594 41.9375 16.667969 41.601563 17.59375 40.875C18.121094 40.457031 18.792969 40.21875 19.46875 40.21875C20.140625 40.21875 20.789063 40.460938 21.3125 40.875C22.246094 41.605469 23.878906 41.9375 25 41.9375C26.121094 41.9375 27.757813 41.605469 28.6875 40.875C29.214844 40.460938 29.859375 40.21875 30.53125 40.21875C31.203125 40.21875 31.882813 40.460938 32.40625 40.875C33.339844 41.605469 34.941406 41.9375 36.0625 41.9375C37.183594 41.9375 38.824219 41.605469 39.75 40.875C40.277344 40.457031 40.953125 40.21875 41.625 40.21875C42.296875 40.21875 42.945313 40.460938 43.46875 40.875C43.558594 40.945313 43.648438 41 43.75 41.0625C47.257813 36.875 50 30.878906 50 26.5C50 24.324219 48.527344 24 47.65625 24 Z M 39.65625 29.34375C40.277344 29.34375 40.34375 29.71875 40.34375 29.71875L40.34375 30.53125C40.34375 30.53125 40.410156 30.90625 41 30.90625C41.589844 30.90625 41.65625 30.53125 41.65625 30.53125L41.65625 29.71875C41.65625 29.71875 41.722656 29.34375 42.34375 29.34375C42.964844 29.34375 43 29.71875 43 29.71875L43 31.0625C43 31.980469 42.09375 32 42.09375 32L40.0625 32C40.0625 32 39 31.949219 39 31.03125L39 29.71875C39 29.71875 39.039063 29.34375 39.65625 29.34375 Z M 8.375 42.21875C8.15625 42.21875 7.960938 42.292969 7.78125 42.4375C6.378906 43.539063 4.238281 43.9375 2.84375 43.9375C2.289063 43.9375 1.757813 43.90625 1.15625 43.8125C0.617188 43.730469 0.0859375 44.109375 0 44.65625C-0.0859375 45.203125 0.296875 45.699219 0.84375 45.78125C1.546875 45.890625 2.1875 45.9375 2.84375 45.9375C4.441406 45.9375 6.640625 45.527344 8.375 44.4375C10.109375 45.527344 12.339844 45.9375 13.9375 45.9375C15.535156 45.9375 17.734375 45.527344 19.46875 44.4375C21.203125 45.527344 23.402344 45.9375 25 45.9375C26.597656 45.9375 28.796875 45.527344 30.53125 44.4375C32.265625 45.527344 34.464844 45.9375 36.0625 45.9375C37.660156 45.9375 39.890625 45.527344 41.625 44.4375C43.359375 45.527344 45.558594 45.9375 47.15625 45.9375C47.949219 45.9375 48.671875 45.832031 49.34375 45.59375C49.863281 45.410156 50.121094 44.832031 49.9375 44.3125C49.753906 43.792969 49.175781 43.503906 48.65625 43.6875C48.203125 43.847656 47.71875 43.9375 47.15625 43.9375C45.761719 43.9375 43.617188 43.539063 42.21875 42.4375C41.855469 42.152344 41.363281 42.152344 41 42.4375C39.601563 43.539063 37.457031 43.9375 36.0625 43.9375C34.667969 43.9375 32.558594 43.542969 31.15625 42.4375C30.796875 42.152344 30.265625 42.152344 29.90625 42.4375C28.503906 43.539063 26.394531 43.9375 25 43.9375C23.605469 43.9375 21.464844 43.542969 20.0625 42.4375C19.699219 42.152344 19.207031 42.152344 18.84375 42.4375C17.445313 43.539063 15.332031 43.9375 13.9375 43.9375C12.542969 43.9375 10.402344 43.542969 9 42.4375C8.820313 42.296875 8.59375 42.21875 8.375 42.21875 Z M 8.25 46.21875C8.078125 46.25 7.914063 46.324219 7.78125 46.4375C6.429688 47.503906 4.199219 47.9375 2.84375 47.9375C2.214844 47.9375 1.675781 47.890625 1.15625 47.8125C0.789063 47.722656 0.40625 47.847656 0.160156 48.132813C-0.0859375 48.417969 -0.148438 48.820313 -0.00390625 49.167969C0.140625 49.515625 0.46875 49.753906 0.84375 49.78125C1.433594 49.871094 2.09375 49.9375 2.84375 49.9375C4.394531 49.9375 6.546875 49.488281 8.375 48.3125C10.203125 49.5 12.378906 49.9375 13.9375 49.9375C15.484375 49.9375 17.644531 49.511719 19.46875 48.34375C21.292969 49.511719 23.453125 49.9375 25 49.9375C26.546875 49.9375 28.707031 49.511719 30.53125 48.34375C32.355469 49.511719 34.515625 49.9375 36.0625 49.9375C37.621094 49.9375 39.796875 49.5 41.625 48.3125C43.453125 49.488281 45.605469 49.9375 47.15625 49.9375C48.019531 49.9375 48.75 49.804688 49.34375 49.59375C49.871094 49.402344 50.144531 48.824219 49.953125 48.296875C49.761719 47.769531 49.183594 47.496094 48.65625 47.6875C48.261719 47.824219 47.804688 47.9375 47.15625 47.9375C45.800781 47.9375 43.570313 47.503906 42.21875 46.4375C41.859375 46.160156 41.359375 46.160156 41 46.4375C39.648438 47.503906 37.417969 47.9375 36.0625 47.9375C34.707031 47.9375 32.511719 47.503906 31.15625 46.4375C30.789063 46.144531 30.273438 46.144531 29.90625 46.4375C28.550781 47.503906 26.355469 47.9375 25 47.9375C23.644531 47.9375 21.449219 47.503906 20.09375 46.4375C19.726563 46.144531 19.210938 46.144531 18.84375 46.4375C17.492188 47.503906 15.292969 47.9375 13.9375 47.9375C12.582031 47.9375 10.351563 47.503906 9 46.4375C8.8125 46.289063 8.582031 46.210938 8.34375 46.21875C8.3125 46.21875 8.28125 46.21875 8.25 46.21875Z" />
</svg>