<?xml version="1.0" encoding="utf-8"?>
<svg xmlns="http://www.w3.org/2000/svg" viewBox="0 0 50 50" width="515" height="515">
  <path d="M24.142578 3C23.531578 3 23 3.5466094 23 4.2246094L23 12C23 12.552 22.552 13 22 13C21.448 13 21 12.552 21 12L21 5.2246094C17.239 6.2606094 15.160766 10.168906 15.009766 14.003906C14.012766 14.359906 13.062766 15.167203 13.009766 17.783203L13.757812 17.970703C13.925812 18.012703 17.957859 19 25.005859 19C32.054859 19 36.074188 18.012703 36.242188 17.970703L36.990234 17.78125C36.937234 15.14725 35.989234 14.340188 34.990234 13.992188C34.836234 10.162187 32.758 6.2596094 29 5.2246094L29 12C29 12.552 28.553 13 28 13C27.447 13 27 12.552 27 12L27 4.2246094C27 3.5466094 26.469422 3 25.857422 3L24.142578 3 z M 39 20 A 1.0001 1.0001 0 0 0 38 21L38 37.517578C37.303638 37.234029 36.60786 36.969791 35.939453 36.728516C33.631453 35.895516 31.627 35.171734 31 33.802734L31 30.478516C31.879 29.604516 32.604484 27.852438 32.896484 26.273438C33.819484 25.840438 34.728703 24.762141 34.970703 22.744141C34.991703 22.575141 35 22.416672 35 22.263672C35.001 21.490672 34.698547 20.849234 34.310547 20.365234C32.330547 20.665234 29.193859 21 25.005859 21C20.852859 21 17.685359 20.661328 15.693359 20.361328C15.304359 20.845328 14.999 21.486719 15 22.261719C15 22.414719 15.008297 22.574187 15.029297 22.742188C15.272297 24.761187 16.180516 25.841437 17.103516 26.273438C17.395516 27.852438 18.121 29.604516 19 30.478516L19 33.800781C18.372 35.169781 16.368547 35.893563 14.060547 36.726562C10.187547 38.124563 5.3669531 39.866453 5.0019531 45.939453C4.9849531 46.213453 5.0824844 46.483594 5.2714844 46.683594C5.4604844 46.886594 5.725 47 6 47L38 47C38 48.64497 39.35503 50 41 50L47 50C48.64497 50 50 48.64497 50 47L50 43 A 1.0001 1.0001 0 0 0 49.707031 42.292969L48.414062 41L49.707031 39.707031 A 1.0001 1.0001 0 0 0 49.707031 38.292969L47.414062 36L48.707031 34.707031 A 1.0001 1.0001 0 0 0 48.707031 33.292969L46.414062 31L47.707031 29.707031 A 1.0001 1.0001 0 0 0 47.707031 28.292969L45.414062 26L46.707031 24.707031 A 1.0001 1.0001 0 0 0 46.707031 23.292969L43.707031 20.292969 A 1.0001 1.0001 0 0 0 43 20L39 20 z M 40 22L42.585938 22L44.585938 24L43.292969 25.292969 A 1.0001 1.0001 0 0 0 43.292969 26.707031L45.585938 29L44.292969 30.292969 A 1.0001 1.0001 0 0 0 44.292969 31.707031L46.585938 34L45.292969 35.292969 A 1.0001 1.0001 0 0 0 45.292969 36.707031L47.585938 39L46.585938 40L40 40L40 22 z M 40 42L46.585938 42L48 43.414062L48 47C48 47.56503 47.56503 48 47 48L41 48C40.43497 48 40 47.56503 40 47L40 42 z M 43 44 A 1.0001 1.0001 0 1 0 43 46L45 46 A 1.0001 1.0001 0 1 0 45 44L43 44 z" />
</svg>