<?xml version="1.0" encoding="utf-8"?>
<svg xmlns="http://www.w3.org/2000/svg" viewBox="0 0 50 50" width="515" height="515">
  <path d="M2.8007812 6C2.3007812 6.1 2 6.5 2 7L2 31C2 31.6 2.4 32 3 32L47 32C47.6 32 48 31.6 48 31L48 7C48 6.4 47.6 6 47 6L3 6L2.8007812 6 z M 4 8L10 8L10 30L4 30L4 8 z M 40 8L46 8L46 30L40 30L40 8 z M 25 11C28 11 30.400391 13.2 30.900391 16L31 16C33.2 16 35 17.8 35 20C35 22.2 33.2 24 31 24C30.4 24 30 23.6 30 23C30 22.4 30.4 22 31 22C32.1 22 33 21.1 33 20C33 18.9 32.1 18 31 18L30 18C29.4 18 29 17.6 29 17C29 14.8 27.2 13 25 13C22.8 13 21 14.8 21 17C21 17.6 20.6 18 20 18L19 18C17.9 18 17 18.9 17 20C17 21.1 17.9 22 19 22C19.6 22 20 22.4 20 23C20 23.6 19.6 24 19 24C16.8 24 15 22.2 15 20C15 17.8 16.8 16 19 16L19.099609 16C19.599609 13.2 22 11 25 11 z M 2.8007812 33C2.2007812 33.1 1.8003906 33.499609 1.9003906 34.099609C2.0003906 34.599609 2.4 35 3 35C3.3 35 33.599609 36.200391 43.599609 40.900391C44.299609 41.200391 45 40.7 45 40L45 34C45 33.4 44.6 33 44 33C43.4 33 43 33.4 43 34L43 38.5C41.6 37.9 39.9 37.5 38 37L38 33L2.8007812 33 z M 2.8007812 36C2.2007812 36.1 1.8003906 36.499609 1.9003906 37.099609C1.9003906 37.599609 2.4003906 38 2.9003906 38C2.9003906 38 26.600391 39.699219 37.400391 45.699219C37.500391 45.799219 37.599219 45.800391 37.699219 45.900391C38.699219 46.500391 39.300781 47.000781 39.800781 47.300781C40.000781 47.400781 40.200391 47.599219 40.400391 47.699219C40.600391 47.899219 40.899609 48.000391 41.099609 47.900391C41.599609 47.900391 42 47.400391 42 46.900391L42 41.900391C42 41.400391 41.5 40.900391 41 40.900391C40.4 40.900391 40 41.300391 40 41.900391L40 45C39.5 44.7 39.000391 44.4 38.400391 44C37.700391 43.6 36.9 43.099609 36 42.599609L36 40C27 37 4 36 4 36L2.8007812 36 z" />
</svg>