<?xml version="1.0" encoding="utf-8"?>
<svg xmlns="http://www.w3.org/2000/svg" viewBox="0 0 50 50" width="515" height="515">
  <path d="M25.5 2C22.46875 2 20 4.46875 20 7.5C20 10.53125 22.46875 13 25.5 13C28.53125 13 31 10.53125 31 7.5C31 4.46875 28.53125 2 25.5 2 Z M 20.5 14C17.46875 14 15 16.46875 15 19.5L15 22L24 22C26.207031 22 28 23.792969 28 26C28 28.207031 26.207031 30 24 30L20 30L20 45.300781C20 46.863281 20.835938 48 22.402344 48C23.882813 48 25 46.839844 25 45.300781L25 32.457031C25 32.179688 25.222656 31.957031 25.5 31.957031C25.777344 31.957031 26 32.179688 26 32.457031L26 45.300781C26 46.863281 26.835938 48 28.402344 48C29.882813 48 31 46.839844 31 45.300781L31 22.644531C31 22.375 31.230469 22.144531 31.5 22.144531C31.769531 22.144531 32 22.375 32 22.644531L32 32C32 33.105469 32.898438 34 34 34C35.101563 34 36 33.105469 36 32L36 19.5C36 16.46875 33.53125 14 30.5 14 Z M 16 24C14.894531 24 14 24.894531 14 26C14 27.105469 14.894531 28 16 28L24 28C25.105469 28 26 27.105469 26 26C26 24.894531 25.105469 24 24 24Z" />
</svg>