<?xml version="1.0" encoding="utf-8"?>
<svg xmlns="http://www.w3.org/2000/svg" viewBox="0 0 50 50" width="515" height="515">
  <path d="M49 13C47.347656 13 46 11.652344 46 10C46 9.449219 45.554688 9 45 9L5 9C4.449219 9 4 9.449219 4 10C4 11.652344 2.652344 13 1 13C0.449219 13 0 13.449219 0 14L0 36C0 36.554688 0.449219 37 1 37C2.652344 37 4 38.347656 4 40C4 40.554688 4.449219 41 5 41L45 41C45.554688 41 46 40.554688 46 40C46 38.347656 47.347656 37 49 37C49.554688 37 50 36.554688 50 36L50 14C50 13.449219 49.554688 13 49 13 Z M 40 30L10 30L10 28L40 28 Z M 40 22L10 22L10 20L40 20Z" />
</svg>