<?xml version="1.0" encoding="utf-8"?>
<svg xmlns="http://www.w3.org/2000/svg" viewBox="0 0 50 50" width="515" height="515">
  <path d="M29.601563 4.003906C18.296875 4.003906 9.101563 13.199219 9.101563 24.503906C9.101563 25.769531 9.234375 27.058594 9.476563 28.34375C7.621094 29.792969 5.371094 31 3 31L2 31L2.007813 32.09375C2.023438 32.253906 2.417969 36.097656 6.703125 39.84375C7.273438 40.300781 7.488281 40.445313 8.027344 40.816406C8.902344 41.429688 10.097656 42.222656 11.582031 42.90625L11.6875 42.957031L11.675781 43L20.765625 43C23.515625 44.308594 26.546875 45.003906 29.597656 45.003906C36.695313 45.003906 43.144531 41.425781 46.851563 35.429688L47.265625 34.753906L38.824219 26.3125L38.15625 27.367188C36.511719 29.964844 32.753906 32 29.5 32C29.171875 32 28.835938 31.976563 28.5 31.933594C28.578125 31.6875 28.644531 31.417969 28.714844 31.164063L28.792969 31.179688L28.984375 30.191406L29.21875 29.222656L29.171875 29.214844L29.984375 24.996094C30.078125 24.507813 29.96875 23.976563 29.707031 23.582031C29.449219 23.191406 29.070313 22.933594 28.671875 22.773438L28.652344 22.765625L28.628906 22.753906C28.628906 22.753906 27.769531 22.457031 26.957031 22.175781C27.667969 20.308594 28.320313 18.59375 28.90625 17.039063C29.136719 17.015625 29.359375 17 29.601563 17C32.765625 17 36.40625 18.914063 38.066406 21.449219L38.769531 22.523438L46.984375 13.585938L46.519531 12.925781C42.574219 7.339844 36.25 4.003906 29.601563 4.003906 Z M 28.132813 10C28.132813 10 28.136719 10 28.136719 10C28.652344 10.003906 29 10.351563 29 10.851563C29 10.851563 29 10.855469 29 10.855469C28.992188 10.945313 28.925781 11.234375 28.851563 11.476563L28.847656 11.484375C28.8125 11.601563 28.554688 12.3125 27.246094 15.777344C26.605469 17.46875 25.863281 19.433594 25.066406 21.527344C24.996094 21.503906 24.96875 21.5 24.910156 21.480469C24.851563 21.460938 24.773438 21.433594 24.730469 21.421875C24.667969 21.398438 24.613281 21.386719 24.5625 21.371094C24.558594 21.371094 24.550781 21.367188 24.542969 21.363281L22.621094 20.613281L24.492188 16.675781L27.28125 10.8125C27.417969 10.574219 27.585938 10.34375 27.746094 10.199219C27.777344 10.171875 27.808594 10.152344 27.839844 10.128906C27.878906 10.101563 27.917969 10.070313 27.949219 10.054688C28.011719 10.023438 28.074219 10 28.132813 10 Z M 18.429688 21.128906C18.433594 21.132813 18.433594 21.132813 18.4375 21.136719L21.757813 22.429688L21.761719 22.425781L24.316406 23.425781C24.296875 23.417969 24.300781 23.425781 24.3125 23.4375L24.308594 23.441406L22.542969 27.535156L20.261719 26.109375L16.453125 23.726563L18.328125 21.199219C18.328125 21.199219 18.332031 21.195313 18.332031 21.195313C18.363281 21.175781 18.386719 21.15625 18.402344 21.144531C18.410156 21.140625 18.421875 21.132813 18.429688 21.128906 Z M 26.222656 24.039063C27.070313 24.332031 27.90625 24.621094 27.9375 24.632813C27.992188 24.65625 27.996094 24.664063 28.007813 24.671875L27.207031 28.824219L24.410156 28.261719L26.121094 24.296875L26.058594 24.417969C26.132813 24.292969 26.179688 24.167969 26.222656 24.039063 Z M 15.253906 25.339844L21.734375 29.390625C21.707031 29.441406 21.6875 29.496094 21.660156 29.546875C21.566406 29.75 21.464844 29.949219 21.363281 30.148438C21.28125 30.308594 21.203125 30.46875 21.121094 30.625C21 30.84375 20.875 31.0625 20.75 31.277344C20.679688 31.398438 20.609375 31.527344 20.535156 31.652344C20.378906 31.910156 20.21875 32.160156 20.054688 32.410156C20.011719 32.476563 19.96875 32.546875 19.925781 32.613281C19.917969 32.621094 19.914063 32.632813 19.90625 32.640625C19.871094 32.691406 19.835938 32.738281 19.800781 32.792969C19.507813 33.226563 19.199219 33.632813 18.890625 34.035156C18.636719 34.371094 18.378906 34.699219 18.117188 35.011719C17.929688 35.238281 17.742188 35.464844 17.550781 35.679688C17.246094 36.027344 16.941406 36.363281 16.640625 36.683594C16.484375 36.84375 16.332031 37.003906 16.179688 37.15625C15.839844 37.5 15.511719 37.824219 15.1875 38.125C15.089844 38.21875 14.988281 38.316406 14.890625 38.40625C13.597656 39.585938 12.492188 40.425781 11.90625 40.84375C10.796875 40.285156 9.875 39.671875 9.167969 39.175781C8.671875 38.835938 8.476563 38.699219 7.984375 38.3125C5.601563 36.226563 4.628906 34.117188 4.242188 32.917969C6.332031 32.632813 8.261719 31.660156 9.9375 30.484375L9.953125 30.5625L11.09375 29.625C11.136719 29.589844 11.175781 29.558594 11.214844 29.523438C11.601563 29.203125 11.960938 28.878906 12.308594 28.554688C12.464844 28.40625 12.613281 28.269531 12.761719 28.125C12.921875 27.964844 13.066406 27.816406 13.21875 27.660156C13.679688 27.183594 14.105469 26.726563 14.453125 26.316406C14.460938 26.308594 14.464844 26.304688 14.46875 26.296875C14.777344 25.9375 15.050781 25.605469 15.253906 25.339844 Z M 23.597656 30.140625L26.761719 30.773438C26.65625 31.144531 26.539063 31.5 26.421875 31.847656L26.246094 32.332031C25.753906 33.675781 25.179688 34.835938 24.582031 35.832031C24.5625 35.867188 24.546875 35.902344 24.527344 35.9375C24.277344 36.347656 24.019531 36.714844 23.765625 37.074219C23.535156 37.394531 23.304688 37.691406 23.074219 37.96875C22.980469 38.082031 22.886719 38.210938 22.792969 38.320313C22.121094 39.097656 21.476563 39.699219 20.949219 40.132813C20.671875 40.355469 20.429688 40.539063 20.222656 40.683594C20.019531 40.824219 19.855469 40.929688 19.738281 41L14.972656 41C15.003906 40.972656 15.039063 40.941406 15.074219 40.914063C15.277344 40.742188 15.476563 40.566406 15.699219 40.375C16.058594 40.058594 16.429688 39.722656 16.8125 39.359375C17.261719 38.929688 17.71875 38.480469 18.191406 37.980469C18.261719 37.90625 18.332031 37.828125 18.402344 37.753906C18.679688 37.453125 18.957031 37.140625 19.234375 36.816406C19.351563 36.683594 19.46875 36.546875 19.582031 36.40625C19.835938 36.105469 20.085938 35.792969 20.332031 35.472656C20.4375 35.335938 20.542969 35.203125 20.648438 35.0625C20.992188 34.601563 21.335938 34.125 21.660156 33.625C21.664063 33.625 21.667969 33.617188 21.671875 33.613281C21.6875 33.589844 21.699219 33.5625 21.71875 33.539063C22.023438 33.070313 22.316406 32.578125 22.601563 32.078125C22.683594 31.929688 22.761719 31.777344 22.84375 31.625C23.050781 31.242188 23.25 30.851563 23.4375 30.453125L23.457031 30.46875Z" />
</svg>