<?xml version="1.0" encoding="utf-8"?>
<svg xmlns="http://www.w3.org/2000/svg" viewBox="0 0 50 50" width="515" height="515">
  <path d="M47,20h-2v-3c0-2.758-2.242-5-5-5H8c-2.758,0-5,2.242-5,5v16c0,2.758,2.242,5,5,5h32c2.758,0,5-2.242,5-5v-3h2c0.555,0,1-0.445,1-1v-8C48,20.449,47.555,20,47,20z M9,33c0,0.555-0.449,1-1,1s-1-0.445-1-1V17c0-0.551,0.449-1,1-1s1,0.449,1,1V33z M13,33c0,0.555-0.449,1-1,1s-1-0.445-1-1V17c0-0.551,0.449-1,1-1s1,0.449,1,1V33z M17,33c0,0.555-0.449,1-1,1s-1-0.445-1-1V17c0-0.551,0.449-1,1-1s1,0.449,1,1V33z M21,33c0,0.555-0.449,1-1,1s-1-0.445-1-1V17c0-0.551,0.449-1,1-1s1,0.449,1,1V33z M25,33c0,0.555-0.449,1-1,1s-1-0.445-1-1V17c0-0.551,0.449-1,1-1s1,0.449,1,1V33z M29,32.965c0,0.553-0.448,1-1,1s-1-0.447-1-1V17c0-0.552,0.448-1,1-1s1,0.448,1,1V32.965z" />
</svg>