<?xml version="1.0" encoding="utf-8"?>
<svg xmlns="http://www.w3.org/2000/svg" viewBox="0 0 50 50" width="515" height="515">
  <path d="M3 2L3 7.375L3.5625 7.09375C3.84375 6.953125 4.15625 6.953125 4.4375 7.09375L6 7.875L7.5625 7.09375C7.84375 6.953125 8.15625 6.953125 8.4375 7.09375L10 7.875L11.5625 7.09375C11.582031 7.085938 11.605469 7.101563 11.625 7.09375C11.722656 7.054688 11.800781 7.039063 11.90625 7.03125C11.945313 7.027344 11.992188 7 12.03125 7C12.171875 7.003906 12.300781 7.027344 12.4375 7.09375L14 7.875L15.5625 7.09375C15.703125 7.023438 15.847656 7 16 7C16.152344 7 16.296875 7.023438 16.4375 7.09375L18 7.875L19.5625 7.09375C19.703125 7.023438 19.847656 7 20 7C20.152344 7 20.296875 7.023438 20.4375 7.09375L22 7.875L23.5625 7.09375C23.703125 7.023438 23.847656 7 24 7C24.152344 7 24.296875 7.023438 24.4375 7.09375L26 7.875L27.5625 7.09375C27.703125 7.023438 27.847656 7 28 7C28.152344 7 28.296875 7.023438 28.4375 7.09375L30 7.875L31.5625 7.09375C31.703125 7.023438 31.847656 7 32 7C32.152344 7 32.296875 7.023438 32.4375 7.09375L34 7.875L35.5625 7.09375C35.703125 7.023438 35.847656 7 36 7C36.152344 7 36.296875 7.023438 36.4375 7.09375L38 7.875L39.5625 7.09375C39.703125 7.023438 39.847656 7 40 7C40.152344 7 40.296875 7.023438 40.4375 7.09375L42 7.875L43.5625 7.09375C43.84375 6.953125 44.15625 6.953125 44.4375 7.09375L46 7.875L47 7.375L47 2 Z M 4 9.125L3 9.625L3 32L19.125 32L26.875 24.25C27.148438 23.976563 27.464844 23.773438 27.8125 23.625L31.90625 21.875L32.875 20.875C33.441406 20.308594 34.199219 20 35 20C35.800781 20 36.558594 20.308594 37.125 20.875C37.691406 21.441406 38 22.199219 38 23C38 23.800781 37.691406 24.558594 37.125 25.125L36.1875 26.0625L34.40625 30.21875C34.253906 30.574219 34.054688 30.882813 33.78125 31.15625L32.9375 32L47 32L47 9.625L46.4375 9.90625C46.15625 10.046875 45.84375 10.046875 45.5625 9.90625L44 9.125L42.4375 9.90625C42.425781 9.914063 42.421875 9.898438 42.40625 9.90625C42.277344 9.964844 42.140625 10 42 10C41.851563 10 41.707031 9.976563 41.5625 9.90625L40 9.125L38.4375 9.90625C38.296875 9.976563 38.152344 10 38 10C37.847656 10 37.703125 9.976563 37.5625 9.90625L36 9.125L34.4375 9.90625C34.296875 9.976563 34.152344 10 34 10C33.847656 10 33.703125 9.976563 33.5625 9.90625L32 9.125L30.4375 9.90625C30.296875 9.976563 30.152344 10 30 10C29.847656 10 29.703125 9.976563 29.5625 9.90625L28 9.125L26.4375 9.90625C26.296875 9.976563 26.152344 10 26 10C25.847656 10 25.703125 9.976563 25.5625 9.90625L24 9.125L22.4375 9.90625C22.296875 9.976563 22.152344 10 22 10C21.847656 10 21.703125 9.976563 21.5625 9.90625L20 9.125L18.4375 9.90625C18.296875 9.976563 18.152344 10 18 10C17.847656 10 17.703125 9.976563 17.5625 9.90625L16 9.125L14.4375 9.90625C14.296875 9.976563 14.152344 10 14 10C13.847656 10 13.703125 9.976563 13.5625 9.90625L12 9.125L10.4375 9.90625C10.15625 10.046875 9.84375 10.046875 9.5625 9.90625L8 9.125L6.4375 9.90625C6.15625 10.046875 5.84375 10.046875 5.5625 9.90625 Z M 8 15L24 15C24.550781 15 25 15.449219 25 16C25 16.550781 24.550781 17 24 17L8 17C7.449219 17 7 16.550781 7 16C7 15.449219 7.449219 15 8 15 Z M 32 15L42 15C42.554688 15 43 15.449219 43 16C43 16.550781 42.554688 17 42 17L32 17C31.445313 17 31 16.550781 31 16C31 15.449219 31.445313 15 32 15 Z M 8 20L24 20C24.550781 20 25 20.449219 25 21C25 21.550781 24.550781 22 24 22L8 22C7.449219 22 7 21.550781 7 21C7 20.449219 7.449219 20 8 20 Z M 34.875 22C34.652344 22.023438 34.441406 22.125 34.28125 22.28125L33 23.5625L28.59375 25.4375C28.476563 25.488281 28.371094 25.566406 28.28125 25.65625L20.28125 33.65625L24.34375 37.75L32.34375 29.75C32.433594 29.660156 32.511719 29.554688 32.5625 29.4375L34.46875 24.96875L35.71875 23.71875C36.042969 23.417969 36.128906 22.941406 35.933594 22.546875C35.742188 22.148438 35.308594 21.929688 34.875 22 Z M 18.875 35.0625L12.65625 41.28125C12.46875 41.46875 12.375 41.734375 12.375 42C12.375 42.265625 12.46875 42.5 12.65625 42.6875L15.3125 45.34375C15.507813 45.539063 15.773438 45.65625 16.03125 45.65625C16.085938 45.714844 16.148438 45.769531 16.21875 45.8125C16.21875 45.8125 16.808594 46.398438 17.65625 46.8125C18.082031 47.019531 18.59375 47.214844 19.1875 47.21875C19.78125 47.222656 20.460938 46.976563 20.96875 46.46875C21.738281 45.699219 22.707031 44.410156 23.625 43.15625C24.542969 41.902344 25.484375 40.609375 25.65625 40.4375C26 40.09375 26.90625 40.0625 26.90625 40.0625C27.292969 40.152344 27.695313 40.003906 27.933594 39.6875C28.171875 39.371094 28.199219 38.941406 28.003906 38.59375C27.808594 38.25 27.425781 38.054688 27.03125 38.09375C27.03125 38.09375 25.425781 37.855469 24.25 39.03125C23.664063 39.617188 22.910156 40.722656 22 41.96875C21.089844 43.214844 20.089844 44.535156 19.5625 45.0625C19.421875 45.203125 19.34375 45.21875 19.1875 45.21875C19.03125 45.21875 18.78125 45.152344 18.53125 45.03125C18.074219 44.808594 17.722656 44.46875 17.65625 44.40625L22.9375 39.15625 Z M 11.1875 44L10.59375 44.59375C9.8125 45.375 9.8125 46.625 10.59375 47.40625C10.984375 47.796875 11.488281 48 12 48C12.511719 48 13.015625 47.796875 13.40625 47.40625L14 46.8125Z" />
</svg>