<?xml version="1.0" encoding="utf-8"?>
<svg xmlns="http://www.w3.org/2000/svg" viewBox="0 0 50 50" width="515" height="515">
  <path d="M25 2C21.5 2 18.1875 3.699219 16.1875 6.5C15.085938 6.199219 14.101563 6 13 6C6.898438 6 2 10.898438 2 17C2 21.601563 4.800781 25.585938 9 27.1875L9 38L41 38L41 27.1875C45.199219 25.585938 48 21.5 48 17C48 10.898438 43.101563 6 37 6C35.898438 6 34.914063 6.199219 33.8125 6.5C31.8125 3.699219 28.5 2 25 2 Z M 18 27C18.601563 27 19 27.398438 19 28L19 31C19 31.601563 18.601563 32 18 32C17.398438 32 17 31.601563 17 31L17 28C17 27.398438 17.398438 27 18 27 Z M 25 27C25.601563 27 26 27.398438 26 28L26 32C26 32.601563 25.601563 33 25 33C24.398438 33 24 32.601563 24 32L24 28C24 27.398438 24.398438 27 25 27 Z M 32 27C32.601563 27 33 27.398438 33 28L33 31C33 31.601563 32.601563 32 32 32C31.398438 32 31 31.601563 31 31L31 28C31 27.398438 31.398438 27 32 27 Z M 9 40L9 47C9 47.601563 9.398438 48 10 48L40 48C40.601563 48 41 47.601563 41 47L41 40Z" />
</svg>