<?xml version="1.0" encoding="utf-8"?>
<svg xmlns="http://www.w3.org/2000/svg" viewBox="0 0 50 50" width="515" height="515">
  <path d="M25 9C24.859375 9 24.726563 9.035156 24.59375 9.09375L2.59375 19.09375C2.238281 19.253906 2 19.609375 2 20L2 26C2 26.339844 2.183594 26.660156 2.46875 26.84375C2.753906 27.027344 3.097656 27.046875 3.40625 26.90625L25 17.09375L46.59375 26.90625C46.726563 26.96875 46.859375 27 47 27C47.1875 27 47.367188 26.949219 47.53125 26.84375C47.816406 26.660156 48 26.339844 48 26L48 20C48 19.609375 47.765625 19.253906 47.40625 19.09375L25.40625 9.09375C25.273438 9.035156 25.140625 9 25 9 Z M 25 23C24.859375 23 24.726563 23.035156 24.59375 23.09375L2.59375 33.09375C2.238281 33.253906 2 33.605469 2 34L2 40C2 40.339844 2.183594 40.660156 2.46875 40.84375C2.753906 41.027344 3.097656 41.050781 3.40625 40.90625L25 31.09375L46.59375 40.90625C46.726563 40.96875 46.859375 41 47 41C47.1875 41 47.367188 40.949219 47.53125 40.84375C47.816406 40.660156 48 40.339844 48 40L48 34C48 33.605469 47.765625 33.253906 47.40625 33.09375L25.40625 23.09375C25.273438 23.035156 25.140625 23 25 23Z" />
</svg>