<?xml version="1.0" encoding="utf-8"?>
<svg xmlns="http://www.w3.org/2000/svg" viewBox="0 0 50 50" width="515" height="515">
  <path d="M39.695313 47.226563C39.511719 47.226563 39.324219 47.175781 39.164063 47.070313L25 38.179688L10.835938 47.070313C10.492188 47.289063 10.046875 47.273438 9.71875 47.035156C9.386719 46.796875 9.234375 46.378906 9.335938 45.980469L13.414063 29.765625L0.582031 19.042969C0.269531 18.78125 0.148438 18.355469 0.273438 17.964844C0.398438 17.578125 0.75 17.304688 1.15625 17.277344L17.839844 16.144531L24.070313 0.628906C24.222656 0.25 24.59375 0 25 0C25.40625 0 25.777344 0.25 25.929688 0.628906L32.160156 16.144531L48.84375 17.277344C49.25 17.304688 49.601563 17.578125 49.726563 17.964844C49.851563 18.355469 49.730469 18.777344 49.417969 19.042969L36.585938 29.765625L40.664063 45.980469C40.765625 46.378906 40.613281 46.792969 40.28125 47.035156C40.109375 47.160156 39.902344 47.226563 39.695313 47.226563Z" />
</svg>