<?xml version="1.0" encoding="utf-8"?>
<svg xmlns="http://www.w3.org/2000/svg" width="515" height="515" viewBox="0 0 50 50">
  <path d="M25 2C12.317 2 2 12.317 2 25C2 37.683 12.317 48 25 48C37.683 48 48 37.683 48 25C48 12.317 37.683 2 25 2 z M 8.0429688 12.664062L15.046875 24.076172C15.514875 18.994172 19.798 15 25 15L43.462891 15C43.813891 15.646 44.125203 16.316 44.408203 17L30.974609 17C33.412609 18.825 35 21.727 35 25C35 26.787 34.522266 28.463016 33.697266 29.916016C33.690266 29.930016 33.691594 29.944984 33.683594 29.958984L24.537109 45.976562C23.790109 45.959562 23.054125 45.902547 22.328125 45.810547L28.976562 34.171875C27.756563 34.702875 26.413 35 25 35C21.441 35 18.318875 33.124406 16.546875 30.316406C16.523875 30.287406 16.496562 30.264422 16.476562 30.232422L6.8320312 14.515625C7.2030312 13.874625 7.6079688 13.259062 8.0429688 12.664062 z M 25 17 A 8 8 0 0 0 17 25 A 8 8 0 0 0 25 33 A 8 8 0 0 0 33 25 A 8 8 0 0 0 25 17 z" />
</svg>