<?xml version="1.0" encoding="utf-8"?>
<svg xmlns="http://www.w3.org/2000/svg" viewBox="0 0 50 50" width="515" height="515">
  <path d="M24 2L24 4L22 4L22 6L24 6L24 9.816406L18.199219 22.402344L24.402344 17.597656C24.800781 17.300781 25.300781 17.300781 25.597656 17.597656L31.800781 22.402344L26 9.816406L26 6L28 6L28 4L26 4L26 2 Z M 25 19.597656L18 25L18 48L32 48L32 25 Z M 25 24C26.101563 24 27 24.898438 27 26C27 27.101563 26.101563 28 25 28C23.898438 28 23 27.101563 23 26C23 24.898438 23.898438 24 25 24 Z M 16 29.300781L4.699219 33.097656C4.300781 33.199219 4 33.601563 4 34L4 47C4 47.601563 4.398438 48 5 48L16 48 Z M 34 29.300781L34 48L45 48C45.601563 48 46 47.601563 46 47L46 34C46 33.601563 45.699219 33.199219 45.300781 33.097656 Z M 25 38C25 38 27 40 27 42L27 46L23 46L23 42C23 40 25 38 25 38 Z M 10 39C10 39 13 41 13 44L13 46L7 46L7 44C7 41 10 39 10 39 Z M 40 39C40 39 43 41 43 44L43 46L37 46L37 44C37 41 40 39 40 39Z" />
</svg>