<?xml version="1.0" encoding="utf-8"?>
<svg xmlns="http://www.w3.org/2000/svg" viewBox="0 0 50 50" width="515" height="515">
  <path d="M25 2C12.297 2 2 12.297 2 25C2 37.703 12.297 48 25 48C37.703 48 48 37.703 48 25C48 12.297 37.703 2 25 2 z M 18.720703 16L25.517578 16C28.922578 16 31.28125 18.394219 31.28125 21.824219C31.28125 25.192219 28.872187 27.576172 25.492188 27.576172L20.964844 27.576172L20.964844 34L18.720703 34L18.720703 16 z M 20.964844 17.996094L20.964844 25.580078L24.931641 25.580078C27.488641 25.580078 28.972656 24.207219 28.972656 21.824219C28.972656 19.354219 27.538641 17.996094 24.931641 17.996094L20.964844 17.996094 z" />
</svg>