<?xml version="1.0" encoding="utf-8"?>
<svg xmlns="http://www.w3.org/2000/svg" viewBox="0 0 50 50" width="515" height="515">
  <path d="M25,2C12.297,2,2,12.297,2,25c0,12.703,10.297,23,23,23s23-10.297,23-23C48,12.297,37.703,2,25,2z M24.981,34.5 c-3.848,0-6.501-2.037-6.74-5.168h2.289c0.277,1.899,2.087,3.106,4.665,3.106c2.439,0,4.238-1.32,4.238-3.118 c0-1.547-1.132-2.527-3.634-3.156l-2.326-0.604c-3.282-0.83-4.703-2.314-4.703-4.891c0-3.081,2.578-5.168,6.413-5.168 c3.508,0,6.124,2.087,6.312,5.017h-2.276c-0.314-1.861-1.848-2.968-4.112-2.968c-2.414,0-4.011,1.207-4.011,3.043 c0,1.421,0.993,2.238,3.496,2.88l1.899,0.503c3.76,0.943,5.269,2.402,5.269,5.068C31.759,32.375,29.131,34.5,24.981,34.5z" />
</svg>