<?xml version="1.0" encoding="utf-8"?>
<svg xmlns="http://www.w3.org/2000/svg" viewBox="0 0 50 50" width="515" height="515">
  <path d="M25 2C12.297 2 2 12.297 2 25C2 37.703 12.297 48 25 48C37.703 48 48 37.703 48 25C48 12.297 37.703 2 25 2 z M 18.419922 16L25.292969 16C28.760969 16 31.03125 18.120281 31.03125 21.363281C31.03125 23.870281 29.671062 25.816344 27.414062 26.527344L31.580078 34L28.947266 34L25.09375 26.876953L20.666016 26.876953L20.666016 34L18.419922 34L18.419922 16 z M 20.666016 17.996094L20.666016 24.882812L25.09375 24.882812C27.40075 24.881813 28.710938 23.647453 28.710938 21.439453C28.710938 19.281453 27.314141 17.996094 24.994141 17.996094L20.666016 17.996094 z" />
</svg>