<?xml version="1.0" encoding="utf-8"?>
<svg xmlns="http://www.w3.org/2000/svg" viewBox="0 0 50 50" width="515" height="515">
  <path d="M25,2C12.297,2,2,12.297,2,25c0,12.703,10.297,23,23,23s23-10.297,23-23C48,12.297,37.703,2,25,2z M32.966,27.056 c0,4.477-3.068,7.444-7.708,7.444c-5.017,0-8.224-3.697-8.224-9.506c0-5.734,3.257-9.494,8.224-9.494 c4.024,0,6.941,2.238,7.595,5.835h-2.301c-0.78-2.452-2.603-3.747-5.294-3.747c-3.596,0-5.897,2.892-5.897,7.406 c0,4.577,2.263,7.419,5.91,7.419c3.244,0,5.445-2.075,5.445-5.143v-0.44H25.61v-1.987h7.356V27.056z" />
</svg>