<?xml version="1.0" encoding="utf-8"?>
<svg xmlns="http://www.w3.org/2000/svg" viewBox="0 0 50 50" width="515" height="515">
  <path d="M7 4C5.35 4 4 5.35 4 7L4 43C4 44.65 5.35 46 7 46L42.775391 46C42.175391 45.39 35.789219 38.789219 35.699219 38.699219C35.169219 38.899219 34.6 39 34 39C31.24 39 29 36.76 29 34C29 31.24 31.24 29 34 29C36.76 29 39 31.24 39 34C39 34.6 38.899219 35.169219 38.699219 35.699219C38.749219 35.749219 45.285 42.470547 45.875 43.060547L45.875 7C45.875 5.35 44.525 4 42.875 4L30.904297 4C30.904297 4 20.769219 14.230781 20.699219 14.300781C20.899219 14.830781 21 15.4 21 16C21 18.76 18.76 21 16 21C13.24 21 11 18.76 11 16C11 13.24 13.24 11 16 11C16.6 11 17.169219 11.100781 17.699219 11.300781C17.749219 11.250781 24.255703 4.6 24.845703 4L7 4 z M 34 11C36.76 11 39 13.24 39 16C39 18.76 36.76 21 34 21C33.4 21 32.830781 20.899219 32.300781 20.699219L20.699219 32.300781C20.899219 32.830781 21 33.4 21 34C21 36.76 18.76 39 16 39C13.24 39 11 36.76 11 34C11 31.24 13.24 29 16 29C16.6 29 17.169219 29.100781 17.699219 29.300781L29.300781 17.699219C29.100781 17.169219 29 16.6 29 16C29 13.24 31.24 11 34 11 z M 16 14 A 2 2 0 0 0 14 16 A 2 2 0 0 0 16 18 A 2 2 0 0 0 18 16 A 2 2 0 0 0 16 14 z M 34 14 A 2 2 0 0 0 32 16 A 2 2 0 0 0 34 18 A 2 2 0 0 0 36 16 A 2 2 0 0 0 34 14 z M 16 32 A 2 2 0 0 0 14 34 A 2 2 0 0 0 16 36 A 2 2 0 0 0 18 34 A 2 2 0 0 0 16 32 z M 34 32 A 2 2 0 0 0 32 34 A 2 2 0 0 0 34 36 A 2 2 0 0 0 36 34 A 2 2 0 0 0 34 32 z" />
</svg>