<?xml version="1.0" encoding="utf-8"?>
<svg xmlns="http://www.w3.org/2000/svg" viewBox="0 0 50 50" width="515" height="515">
  <path d="M24 2C11.317 2 1 12.318 1 25C1 37.682 11.317 48 24 48C36.683 48 47 37.682 47 25C47 12.318 36.683 2 24 2 z M 24 14C29.537 14 31 18.579 31 21L30 21L29 21.003906C28.996 20.492906 28.824 16 24 16C19.057 16 19 20.796 19 21L19 24.111328C20.272 22.810328 22.042 22 24 22C27.859 22 31 25.14 31 29C31 32.86 27.859 36 24 36C20.141 36 17 32.86 17 29L17 21C17 18.579 18.463 14 24 14 z M 24 24 A 5 5 0 0 0 19 29 A 5 5 0 0 0 24 34 A 5 5 0 0 0 29 29 A 5 5 0 0 0 24 24 z" />
</svg>