<?xml version="1.0" encoding="utf-8"?>
<svg xmlns="http://www.w3.org/2000/svg" viewBox="0 0 50 50" width="515" height="515">
  <path d="M25,2C12.318,2,2,12.318,2,25s10.318,23,23,23s23-10.318,23-23S37.682,2,25,2z M25,36c-3.86,0-7-2.916-7-6.5 c0-0.17,0.022-0.334,0.036-0.5h2.02C20.035,29.166,20,29.329,20,29.5c0,2.481,2.243,4.5,5,4.5s5-2.019,5-4.5S27.757,25,25,25v-2 c2.206,0,4-1.57,4-3.5S27.206,16,25,16s-4,1.57-4,3.5c0,0.171,0.02,0.337,0.049,0.5h-2.008C19.023,19.834,19,19.67,19,19.5 c0-3.033,2.691-5.5,6-5.5s6,2.467,6,5.5c0,1.809-0.962,3.412-2.437,4.415C30.617,25.049,32,27.125,32,29.5C32,33.084,28.86,36,25,36 z" />
</svg>