<?xml version="1.0" encoding="utf-8"?>
<svg xmlns="http://www.w3.org/2000/svg" viewBox="0 0 50 50" width="515" height="515">
  <path d="M25 2C12.317 2 2 12.318 2 25C2 37.682 12.317 48 25 48C37.683 48 48 37.682 48 25C48 12.318 37.683 2 25 2 z M 25 14C28.859 14 32 17.14 32 21L32 29C32 31.421 30.537 36 25 36C19.463 36 18 31.421 18 29L19 29L20 28.996094C20.004 29.507094 20.176 34 25 34C29.943 34 30 29.204 30 29L30 25.888672C28.728 27.189672 26.958 28 25 28C21.141 28 18 24.86 18 21C18 17.14 21.141 14 25 14 z M 25 16 A 5 5 0 0 0 20 21 A 5 5 0 0 0 25 26 A 5 5 0 0 0 30 21 A 5 5 0 0 0 25 16 z" />
</svg>