<?xml version="1.0" encoding="utf-8"?>
<svg xmlns="http://www.w3.org/2000/svg" viewBox="0 0 50 50" width="515" height="515">
  <path d="M9 2C4.039063 2 0 6.039063 0 11L0 45C0 46.652344 1.347656 48 3 48L47 48C48.652344 48 50 46.652344 50 45L50 27C50 22.039063 45.964844 18 41 18L35.90625 18C33.261719 18 30.816406 16.5 29.6875 14.15625L26.09375 6.96875C24.640625 3.953125 21.5 2 18.09375 2 Z M 2 36L8.03125 36L8.3125 43L10.6875 43L10.96875 36L12.03125 36L12.3125 43L14.6875 43L14.96875 36L20.03125 36L20.3125 43L22.6875 43L22.96875 36L24.03125 36L24.3125 43L26.6875 43L26.96875 36L28.03125 36L28.3125 43L30.6875 43L30.96875 36L36.03125 36L36.3125 43L38.6875 43L38.96875 36L40.03125 36L40.3125 43L42.6875 43L42.96875 36L48 36L48 45C48 45.550781 47.550781 46 47 46L3 46C2.449219 46 2 45.550781 2 45Z" />
</svg>