<?xml version="1.0" encoding="utf-8"?>
<svg xmlns="http://www.w3.org/2000/svg" viewBox="0 0 50 50" width="515" height="515">
  <path d="M3 8C2.449219 8 2 8.449219 2 9L2 38L11 38L11 34L21.90625 34L23 36L21.90625 38L48 38L48 9C48 8.449219 47.554688 8 47 8 Z M 39.15625 15C39.410156 15.042969 39.652344 15.183594 39.8125 15.40625C40.132813 15.855469 40.042969 16.492188 39.59375 16.8125L25.59375 26.8125C25.222656 27.078125 24.722656 27.070313 24.375 26.78125L18.96875 22.28125L11.59375 27.8125C11.414063 27.949219 11.207031 28 11 28C10.695313 28 10.382813 27.855469 10.1875 27.59375C9.855469 27.152344 9.964844 26.519531 10.40625 26.1875L18.40625 20.1875C18.777344 19.910156 19.269531 19.921875 19.625 20.21875L25.0625 24.75L38.40625 15.1875C38.628906 15.027344 38.902344 14.957031 39.15625 15 Z M 1 40C0.449219 40 0 40.445313 0 41L0 44C0 44.554688 0.449219 45 1 45L49 45C49.554688 45 50 44.554688 50 44L50 41C50 40.445313 49.554688 40 49 40Z" />
</svg>