<?xml version="1.0" encoding="utf-8"?>
<svg xmlns="http://www.w3.org/2000/svg" viewBox="0 0 50 50" width="515" height="515">
  <path d="M22.5 7C21.074219 7 20 8.074219 20 9.5L20 13.6875C20.445313 13.59375 20.894531 13.5625 21.34375 13.5625C22.734375 13.5625 24.011719 13.996094 25 14.8125L25 9.5C25 8.074219 23.925781 7 22.5 7 Z M 29.5 8.03125C28.074219 8.03125 27 9.105469 27 10.53125L27 18.65625C27 20.082031 28.074219 21.15625 29.5 21.15625C30.925781 21.15625 32 20.082031 32 18.65625L32 10.53125C32 9.105469 30.925781 8.03125 29.5 8.03125 Z M 36.5 9.96875C35.074219 9.96875 34 11.042969 34 12.46875L34 20.6875C34 22.113281 35.074219 23.1875 36.5 23.1875C37.925781 23.1875 39 22.113281 39 20.6875L39 12.46875C39 11.042969 37.925781 9.96875 36.5 9.96875 Z M 15.5 10.5C14.074219 10.5 13 11.574219 13 13L13 16.15625L18 14.375L18 13C18 11.574219 16.925781 10.5 15.5 10.5 Z M 21.4375 15.5625C20.410156 15.589844 19.515625 15.9375 19.375 16L18 16.46875L11.75 18.71875C11.75 18.71875 11.621094 18.765625 11.40625 18.84375C11.382813 18.851563 11.367188 18.863281 11.34375 18.875C11.324219 18.882813 11.300781 18.871094 11.28125 18.875C10.125 19.324219 7 20.972656 7 25.59375C7 27.5625 7.804688 29.457031 8.09375 30.125L12.09375 38.34375C13.445313 41.160156 16.253906 42.90625 19.40625 42.90625L32 42.90625C36.964844 42.90625 41 38.871094 41 33.90625L41 23C41 22.496094 40.957031 22 40.90625 21.53125C40.519531 23.636719 38.734375 25.1875 36.5 25.1875C34.515625 25.1875 32.894531 23.972656 32.28125 22.21875C31.519531 22.808594 30.558594 23.15625 29.5 23.15625C28.324219 23.15625 27.289063 22.71875 26.5 22C26.445313 21.949219 26.363281 21.929688 26.3125 21.875C25.417969 23.019531 24.539063 23.203125 23.375 24.09375L22.625 24.53125L21.28125 25.34375C23.152344 26.332031 26.914063 28.980469 27.96875 34.8125C28.066406 35.355469 27.730469 35.902344 27.1875 36C27.128906 36.011719 27.058594 36 27 36C26.523438 36 26.121094 35.671875 26.03125 35.1875C24.859375 28.6875 19.777344 26.824219 19.5625 26.75C19.445313 26.710938 19.371094 26.636719 19.28125 26.5625L18.90625 26.78125L20.8125 30.78125C21.050781 31.277344 20.839844 31.855469 20.34375 32.09375C20.203125 32.160156 20.050781 32.1875 19.90625 32.1875C19.535156 32.1875 19.171875 31.984375 19 31.625L16.6875 26.84375C16.464844 26.378906 16.652344 25.796875 17.09375 25.53125L22.21875 22.34375C23.019531 21.921875 24.320313 21.3125 24.84375 19.9375C24.902344 19.785156 25.3125 18.589844 24.34375 17.03125C23.625 15.820313 22.464844 15.535156 21.4375 15.5625Z" />
</svg>