<?xml version="1.0" encoding="utf-8"?>
<svg xmlns="http://www.w3.org/2000/svg" viewBox="0 0 50 50" width="515" height="515">
  <path d="M5 4 A 1.0001 1.0001 0 0 0 4 5L4 17L6 17L6 6L16 6L16 4L5 4 z M 34 4L34 6L44 6L44 17L46 17L46 5 A 1.0001 1.0001 0 0 0 45 4L34 4 z M 25.949219 13C20.364219 13 18.329266 17.309609 19.947266 20.974609C19.742266 21.101609 19.403281 21.507562 19.488281 22.226562C19.646281 23.566562 20.185344 23.905594 20.527344 23.933594C20.658344 25.182594 21.468297 26.662531 21.904297 26.894531C21.904297 27.786531 21.936609 28.467359 21.849609 29.443359C20.806609 32.297359 14.325 31.497 14 37L36 37C35.675 31.497 28.741266 32.298313 27.697266 29.445312C27.610266 28.469313 27.644531 27.786531 27.644531 26.894531C28.079531 26.662531 28.858234 25.182594 28.990234 23.933594C29.332234 23.905594 29.871297 23.565563 30.029297 22.226562C30.114297 21.507562 29.847313 21.055562 29.570312 20.976562C30.600313 19.640563 30.432875 14.199219 26.546875 14.199219L25.949219 13 z M 4 35L4 45 A 1.0001 1.0001 0 0 0 5 46L16 46L16 44L6 44L6 35L4 35 z M 44 35L44 44L34 44L34 46L45 46 A 1.0001 1.0001 0 0 0 46 45L46 35L44 35 z" />
</svg>