<?xml version="1.0" encoding="utf-8"?>
<svg xmlns="http://www.w3.org/2000/svg" viewBox="0 0 50 50" width="515" height="515">
  <path d="M22.003906 2C19.239906 2 17 4.238 17 7C17 9.763 19.239906 12 22.003906 12C24.761906 12 27 9.763 27 7C27 4.238 24.761906 2 22.003906 2 z M 45.001953 2C44.514939 2 44.126965 2.354491 44.037109 2.8144531L44.017578 2.8105469C42.625848 10.00986 38.590628 16.293952 30 20.585938L30 18.8125L39.423828 7.1289062L39.40625 7.1152344 A 2.5 2.5 0 0 0 37.5 3 A 2.5 2.5 0 0 0 35.326172 4.2714844L28 13L14.228516 17.728516L10.693359 12.306641 A 2.5 2.5 0 0 0 8.5 11 A 2.5 2.5 0 0 0 6.515625 15.017578L11.177734 22.205078 A 1.5 1.5 0 0 0 12.5 23 A 1.5 1.5 0 0 0 12.935547 22.935547L12.943359 22.933594 A 1.5 1.5 0 0 0 12.945312 22.933594L20 21L20.738281 26.902344L29.919922 22.855469L29.921875 22.857422C29.938022 22.849912 29.95263 22.841509 29.96875 22.833984L30 22.820312L30 22.818359C39.677004 18.290389 44.44403 11.147435 45.982422 3.1894531L45.962891 3.1855469C45.975062 3.1231588 46 3.0659859 46 3C46 2.448 45.552953 2 45.001953 2 z M 37.5 22 A 2.5 2.5 0 0 0 36.234375 22.347656L20.996094 28.974609L21 29L16.242188 42.828125 A 3 3 0 0 0 19 47 A 3 3 0 0 0 21.896484 44.777344L26 33L34.394531 29.390625L35.001953 36.054688 A 3 3 0 0 0 38 39 A 3 3 0 0 0 40.992188 35.845703L41.005859 35.845703L39.990234 24.710938 A 2.5 2.5 0 0 0 37.5 22 z M 31 33.023438L29 33.777344L29 36L29 47 A 1.0001 1.0001 0 1 0 31 47L31 35L31 33.023438 z" />
</svg>