<?xml version="1.0" encoding="utf-8"?>
<svg xmlns="http://www.w3.org/2000/svg" viewBox="0 0 50 50" width="515" height="515">
  <path d="M18.5 1C17.672 1 17 1.672 17 2.5L17 8.5C17 9.328 17.672 10 18.5 10L31.5 10C32.328 10 33 9.328 33 8.5L33 2.5C33 1.672 32.328 1 31.5 1L18.5 1 z M 9 3C7.346 3 6 4.346 6 6L6 45C6 46.654 7.346 48 9 48L41 48C42.654 48 44 46.654 44 45L44 6C44 4.346 42.654 3 41 3L35 3L35 8L39 8L39 43L11 43L11 8L15 8L15 3L9 3 z M 16 19L16 21L34 21L34 19L16 19 z M 16 25L16 27L34 27L34 25L16 25 z M 16 31L16 33L34 33L34 31L16 31 z" />
</svg>