<?xml version="1.0" encoding="utf-8"?>
<svg xmlns="http://www.w3.org/2000/svg" viewBox="0 0 50 50" width="515" height="515">
  <path d="M10 0C6.699219 0 4 2.699219 4 6C4 9.300781 6.699219 12 10 12C13.300781 12 16 9.300781 16 6C16 2.699219 13.300781 0 10 0 Z M 40 0C36.699219 0 34 2.699219 34 6C34 9.300781 36.699219 12 40 12C43.300781 12 46 9.300781 46 6C46 2.699219 43.300781 0 40 0 Z M 6.09375 13C2.695313 13 0 15.695313 0 19.09375L0 32.8125C0 34.011719 1.113281 35 2.3125 35L4 35L4 47.6875C4 48.886719 5.113281 50 6.3125 50L13.6875 50C14.886719 50 16 48.886719 16 47.6875L16 35L17.6875 35C18.886719 35 20 33.886719 20 32.6875L20 26L11 26C10.398438 26 10 25.601563 10 25C10 24.398438 10.398438 24 11 24L20 24L20 19.09375C20 15.695313 17.304688 13 13.90625 13 Z M 20 24L20 26L30 26L30 24 Z M 30 24L36.59375 24L32.3125 19.6875C31.914063 19.289063 31.914063 18.710938 32.3125 18.3125C32.710938 17.914063 33.289063 17.914063 33.6875 18.3125L39.6875 24.3125L40.40625 25L39.6875 25.6875L33.6875 31.6875C33.488281 31.886719 33.300781 32 33 32C32.699219 32 32.511719 31.886719 32.3125 31.6875C31.914063 31.289063 31.914063 30.710938 32.3125 30.3125L36.59375 26L30 26L30 32.8125C30 34.011719 31.113281 35 32.3125 35L34 35L34 47.6875C34 48.886719 35.113281 50 36.3125 50L43.6875 50C44.886719 50 46 48.886719 46 47.6875L46 35L47.6875 35C48.886719 35 50 33.886719 50 32.6875L50 19.09375C50 15.695313 47.304688 13 43.90625 13L36.09375 13C32.695313 13 30 15.695313 30 19.09375Z" />
</svg>