<?xml version="1.0" encoding="utf-8"?>
<svg xmlns="http://www.w3.org/2000/svg" viewBox="0 0 50 50" width="515" height="515">
  <path d="M25 5C23.898438 5 23 5.898438 23 7C23 8.101563 23.898438 9 25 9C26.101563 9 27 8.101563 27 7C27 5.898438 26.101563 5 25 5 Z M 21.4375 8.8125L8.78125 17L12.46875 17L22.78125 10.3125C22.210938 9.933594 21.75 9.421875 21.4375 8.8125 Z M 28.5625 8.8125C28.25 9.421875 27.785156 9.933594 27.21875 10.3125L37.53125 17L41.1875 17 Z M 3 19C2.449219 19 2 19.449219 2 20L2 44C2 44.554688 2.449219 45 3 45L47 45C47.554688 45 48 44.554688 48 44L48 20C48 19.449219 47.554688 19 47 19 Z M 11 26C12.652344 26 14 27.347656 14 29L14 30L12 30L12 29C12 28.449219 11.550781 28 11 28C10.449219 28 10 28.449219 10 29L10 35C10 35.550781 10.449219 36 11 36C11.550781 36 12 35.550781 12 35L12 34L14 34L14 35C14 36.652344 12.652344 38 11 38C9.347656 38 8 36.652344 8 35L8 29C8 27.347656 9.347656 26 11 26 Z M 16 26L18 26L18 36L21 36L21 38L16 38 Z M 25 26C26.652344 26 28 27.347656 28 29L28 35C28 36.652344 26.652344 38 25 38C23.347656 38 22 36.652344 22 35L22 29C22 27.347656 23.347656 26 25 26 Z M 33 26C34.652344 26 36 27.347656 36 29L36 30L34 30L34 29C34 28.449219 33.550781 28 33 28C32.449219 28 32 28.449219 32 29L32 30.375L36 32.375L36 35C36 36.652344 34.652344 38 33 38C31.347656 38 30 36.652344 30 35L30 34L32 34L32 35C32 35.550781 32.449219 36 33 36C33.550781 36 34 35.550781 34 35L34 33.625L30 31.625L30 29C30 27.347656 31.347656 26 33 26 Z M 38 26L43 26L43 28L40 28L40 31L42 31L42 33L40 33L40 36L43 36L43 38L38 38 Z M 25 28C24.449219 28 24 28.449219 24 29L24 35C24 35.550781 24.449219 36 25 36C25.550781 36 26 35.550781 26 35L26 29C26 28.449219 25.550781 28 25 28Z" />
</svg>