<?xml version="1.0" encoding="utf-8"?>
<svg xmlns="http://www.w3.org/2000/svg" viewBox="0 0 50 50" width="515" height="515">
  <path d="M5 6C3.347656 6 2 7.347656 2 9L2 41C2 42.652344 3.347656 44 5 44L45 44C46.652344 44 48 42.652344 48 41L48 9C48 7.347656 46.652344 6 45 6 Z M 5 8L29 8L29 42L5 42C4.449219 42 4 41.550781 4 41L4 9C4 8.449219 4.449219 8 5 8 Z M 18.996094 18.988281C18.589844 18.988281 18.222656 19.234375 18.066406 19.609375C17.910156 19.984375 18 20.417969 18.289063 20.703125L21.546875 24L9 24C8.640625 23.996094 8.304688 24.183594 8.121094 24.496094C7.941406 24.808594 7.941406 25.191406 8.121094 25.503906C8.304688 25.816406 8.640625 26.003906 9 26L21.546875 26L18.289063 29.296875C18.03125 29.550781 17.925781 29.921875 18.019531 30.273438C18.113281 30.621094 18.386719 30.894531 18.738281 30.984375C19.089844 31.074219 19.460938 30.964844 19.710938 30.703125L25.347656 25L19.710938 19.296875C19.523438 19.101563 19.265625 18.992188 18.996094 18.988281Z" />
</svg>