<?xml version="1.0" encoding="utf-8"?>
<svg xmlns="http://www.w3.org/2000/svg" viewBox="0 0 50 50" width="515" height="515">
  <path d="M38 45L12 45C11.449219 45 11 44.554688 11 44L11 29.414063L8.707031 31.707031C8.511719 31.902344 8.242188 32.019531 7.96875 32C7.691406 31.988281 7.429688 31.867188 7.246094 31.65625L0.246094 23.65625C-0.0898438 23.269531 -0.0820313 22.691406 0.269531 22.316406L15.269531 6.316406C15.566406 5.996094 16.035156 5.910156 16.429688 6.097656C16.46875 6.117188 20.496094 8 25 8C29.519531 8 33.53125 6.117188 33.570313 6.097656C33.949219 5.914063 34.40625 5.992188 34.707031 6.292969L49.707031 21.292969C50.097656 21.683594 50.097656 22.316406 49.707031 22.707031L41.707031 30.707031C41.316406 31.097656 40.683594 31.097656 40.292969 30.707031L39 29.414063L39 44C39 44.554688 38.554688 45 38 45Z" />
</svg>