<?xml version="1.0" encoding="utf-8"?>
<svg xmlns="http://www.w3.org/2000/svg" viewBox="0 0 50 50" width="515" height="515">
  <path d="M29 8C23.805395 8 19.6756 11.153526 17.623047 15.599609C16.274333 14.677074 14.625017 14 13 14C11.277778 14 9.5024818 14.583456 8.1679688 15.917969C6.9592545 17.126683 6.2490085 18.996489 6.109375 21.330078C2.4915446 22.704882 0 25.955442 0 30.199219C0 35.554774 4.4666667 40 10 40L41 40C46.48 40 50 35.854545 50 31C50 26.408551 46.457983 22.726989 42 22.203125L42 21C42 13.680392 36.217413 8 29 8 z M 26 20C28.2 20 30.199609 20.900391 31.599609 22.400391L34 20L34 26L28 26L30.199219 23.800781C29.099219 22.700781 27.6 22 26 22C22.6 22 20 24.6 20 28L18 28C18 23.5 21.5 20 26 20 z M 32 28L34 28C34 32.5 30.5 36 26 36C23.8 36 21.800391 35.099609 20.400391 33.599609L18 36L18 30L24 30L21.800781 32.199219C22.900781 33.299219 24.4 34 26 34C29.4 34 32 31.4 32 28 z" />
</svg>