<?xml version="1.0" encoding="utf-8"?>
<svg xmlns="http://www.w3.org/2000/svg" viewBox="0 0 50 50" width="515" height="515">
  <path d="M35.34375 -0.09375C31.921875 -0.09375 28.792969 1.820313 27.1875 4.78125C26.429688 4.351563 25.550781 4.125 24.65625 4.125C22.03125 4.125 19.871094 6.101563 19.59375 8.65625C18.792969 8.976563 18.082031 9.460938 17.46875 10.03125C17.429688 10.027344 17.386719 10 17.34375 10L7.6875 10C6.777344 10 5.953125 10.691406 5.8125 11.53125L0.875 32.1875C1.234375 32.082031 1.609375 32 2 32L48 32C48.378906 32 48.746094 32.058594 49.09375 32.15625L46.5 21.3125C47.097656 21.011719 47.636719 20.613281 48.125 20.125C49.332031 18.917969 50 17.300781 50 15.59375C50 12.429688 47.675781 9.816406 44.625 9.3125C44.625 9.273438 44.625 9.226563 44.625 9.1875C44.625 4.0625 40.46875 -0.09375 35.34375 -0.09375 Z M 35.34375 1.90625C39.363281 1.90625 42.625 5.164063 42.625 9.1875C42.625 9.496094 42.597656 9.796875 42.5625 10.09375L42.46875 11.21875L43.59375 11.21875C46.015625 11.21875 48 13.171875 48 15.59375C48 16.765625 47.546875 17.890625 46.71875 18.71875C45.890625 19.546875 44.796875 20 43.625 20L22.15625 20C19.445313 20 17.25 17.804688 17.25 15.09375C17.25 12.894531 18.71875 10.929688 20.84375 10.34375L21.59375 10.125L21.5625 9.21875C21.5625 7.507813 22.945313 6.125 24.65625 6.125C25.484375 6.125 26.289063 6.445313 26.875 7.03125L27.96875 8.125L28.5 6.65625C29.554688 3.804688 32.3125 1.90625 35.34375 1.90625 Z M 2 34C0.898438 34 0 34.898438 0 36L0 48C0 49.101563 0.898438 50 2 50L48 50C49.101563 50 50 49.101563 50 48L50 36C50 34.898438 49.101563 34 48 34 Z M 40 40C41.105469 40 42 40.894531 42 42C42 43.105469 41.105469 44 40 44C38.894531 44 38 43.105469 38 42C38 40.894531 38.894531 40 40 40Z" />
</svg>