<?xml version="1.0" encoding="utf-8"?>
<svg xmlns="http://www.w3.org/2000/svg" viewBox="0 0 50 50" width="515" height="515">
  <path d="M41.953125 23.050781C41.984375 22.6875 42 22.339844 42 22C42 14.832031 36.167969 9 29 9C23.8125 9 19.183594 12.0625 17.117188 16.738281C16.15625 16.253906 15.097656 16 14 16C10.734375 16 7.917969 18.28125 7.1875 21.40625C2.984375 22.640625 0 26.570313 0 31C0 36.515625 4.484375 41 10 41L41 41C45.964844 41 50 36.964844 50 32C50 27.359375 46.46875 23.527344 41.953125 23.050781 Z M 23.03125 34.445313L16.292969 27.707031L17.707031 26.292969L22.96875 31.554688L33.261719 20.324219L34.738281 21.675781Z" />
</svg>