<?xml version="1.0" encoding="utf-8"?>
<svg xmlns="http://www.w3.org/2000/svg" viewBox="0 0 50 50" width="515" height="515">
  <path d="M23.21875 1C20.746094 0.984375 18.78125 2.613281 18.21875 5.46875C17.675781 8.257813 19.210938 13.96875 20.875 18.75C17.089844 15.28125 12.472656 11.367188 9.625 10.75C6.382813 10.042969 3.890625 11.636719 3.25 14.53125C3.09375 15.238281 3.296875 17.421875 2.84375 19.4375C2.417969 21.378906 1.320313 23.171875 1.15625 23.90625C0.519531 26.8125 2.128906 29.289063 5.375 30C8.632813 30.710938 15.671875 28.886719 20.875 27.125C16.933594 30.769531 11.878906 35.773438 11 38.90625C10.136719 41.996094 11.570313 44.511719 14.375 45.28125C15.058594 45.476563 17.199219 45.394531 19.15625 45.9375C21.046875 46.460938 22.761719 47.582031 23.46875 47.78125C26.28125 48.550781 28.8125 47.128906 29.6875 44.03125C30.410156 41.453125 29.3125 36.296875 28.09375 31.6875C34.265625 40.992188 43.101563 48.5 44.9375 48.96875C45.148438 49.023438 45.375 49.0625 45.59375 49.0625C46.691406 49.0625 47.792969 48.335938 48.40625 47.21875C48.902344 46.3125 48.925781 45.359375 48.5 44.6875C48.386719 44.507813 48.226563 44.390625 48.03125 44.3125C40.746094 41.4375 34.027344 34.636719 30.46875 30.59375C33.992188 33.027344 37.84375 35.238281 40.1875 35.5C43.335938 35.855469 45.582031 34.09375 45.90625 31.28125C45.984375 30.59375 45.550781 28.558594 45.78125 26.59375C45.996094 24.707031 46.851563 22.898438 46.9375 22.1875C47.257813 19.367188 45.464844 17.171875 42.3125 16.8125C39.777344 16.527344 35.546875 18.027344 31.3125 19.8125C34.546875 16.101563 37.355469 11.925781 37.875 9.25C38.519531 5.992188 36.828125 3.535156 33.875 2.96875C33.15625 2.824219 30.96875 3.082031 28.90625 2.6875C26.917969 2.304688 25.0625 1.269531 24.3125 1.125C23.941406 1.054688 23.570313 1.003906 23.21875 1Z" />
</svg>