<?xml version="1.0" encoding="utf-8"?>
<svg xmlns="http://www.w3.org/2000/svg" viewBox="0 0 50 50" width="515" height="515">
  <path d="M22.023438 2C21.152344 2 20.039063 2.082031 19.015625 2.410156C16.964844 3.070313 15.207031 4.742188 15.132813 4.8125C14.886719 5.050781 14.777344 5.398438 14.84375 5.734375L16.484375 13.78125L27.65625 10.0625L24.339844 2.679688C24.199219 2.363281 23.90625 2.144531 23.566406 2.097656C23.519531 2.089844 22.894531 2.003906 22.023438 2 Z M 39.945313 7.992188C39.574219 8.007813 39.246094 8.226563 39.085938 8.5625C38.929688 8.898438 38.96875 9.292969 39.191406 9.589844C39.191406 9.589844 40.09375 10.808594 41.058594 13.515625C42.023438 16.222656 43 20.355469 43 26C42.996094 26.359375 43.183594 26.695313 43.496094 26.878906C43.808594 27.058594 44.191406 27.058594 44.503906 26.878906C44.816406 26.695313 45.003906 26.359375 45 26C45 20.125 43.976563 15.757813 42.941406 12.84375C41.90625 9.933594 40.808594 8.410156 40.808594 8.410156C40.609375 8.132813 40.285156 7.972656 39.945313 7.992188 Z M 30.207031 11.316406L15.015625 16.382813L12.183594 20.425781C12.171875 20.441406 12.167969 20.460938 12.160156 20.472656C12.136719 20.507813 12.125 20.546875 12.109375 20.582031C12.078125 20.644531 12.058594 20.710938 12.042969 20.777344L12.730469 20.578125L34.699219 13.589844L35.675781 13.277344C35.667969 13.269531 35.660156 13.261719 35.652344 13.253906C35.585938 13.195313 35.511719 13.152344 35.4375 13.113281C35.40625 13.097656 35.382813 13.082031 35.355469 13.066406C35.34375 13.0625 35.335938 13.058594 35.324219 13.050781 Z M 36.4375 15.132813L35.308594 15.496094L13.300781 22.496094L12.535156 22.71875C13.664063 25.679688 17.0625 33.363281 26.246094 47.546875C26.433594 47.835938 26.753906 48 27.085938 48C27.191406 48 27.296875 47.980469 27.402344 47.949219L39.316406 43.949219C39.742188 43.804688 40.019531 43.398438 40 42.953125C39.1875 26.253906 37.339844 18.191406 36.4375 15.132813 Z M 5.984375 16.984375C5.433594 16.996094 4.992188 17.449219 5 18C5 28.660156 11.253906 35.667969 11.253906 35.667969C11.621094 36.078125 12.253906 36.113281 12.667969 35.746094C13.078125 35.378906 13.113281 34.746094 12.746094 34.332031C12.746094 34.332031 7 27.878906 7 18C7.003906 17.730469 6.898438 17.46875 6.707031 17.277344C6.515625 17.085938 6.253906 16.980469 5.984375 16.984375Z" />
</svg>