<?xml version="1.0" encoding="utf-8"?>
<svg xmlns="http://www.w3.org/2000/svg" viewBox="0 0 50 50" width="515" height="515">
  <path d="M24 1C23.449219 1 23 1.449219 23 2C23 4.921875 21.75 6.023438 20.3125 7.3125C18.765625 8.699219 17.03125 10.28125 17.03125 14C17.03125 14.550781 17.480469 15 18.03125 15C18.582031 15 19.03125 14.550781 19.03125 14C19.03125 11.175781 20.242188 10.082031 21.65625 8.8125C23.226563 7.40625 25 5.816406 25 2C25 1.449219 24.550781 1 24 1 Z M 29 6C28.445313 6 28 6.449219 28 7C28 8.816406 27.257813 9.472656 26.3125 10.3125C25.28125 11.230469 24 12.386719 24 15C24 15.550781 24.449219 16 25 16C25.550781 16 26 15.550781 26 15C26 13.28125 26.699219 12.664063 27.65625 11.8125C28.707031 10.875 30 9.714844 30 7C30 6.449219 29.554688 6 29 6 Z M 10 18C9.675781 18 9.375 18.140625 9.1875 18.40625C9 18.671875 8.957031 19.007813 9.0625 19.3125C9.816406 21.476563 12.355469 29.917969 13.53125 47.3125C13.632813 48.824219 14.824219 50 16.25 50L29.75 50C31.175781 50 32.367188 48.824219 32.46875 47.3125C33.644531 29.917969 36.183594 21.476563 36.9375 19.3125C37.042969 19.007813 37 18.671875 36.8125 18.40625C36.625 18.144531 36.324219 18 36 18 Z M 37.4375 25.03125C37.300781 25.636719 37.175781 26.320313 37.03125 27.03125C40.363281 27.164063 42 28.464844 42 31.0625C42 32.179688 41.992188 35.359375 35.5 36.625C35.417969 37.300781 35.328125 37.96875 35.25 38.6875C41.058594 37.710938 44 35.148438 44 31.0625C44 28.914063 43.101563 25.394531 37.4375 25.03125Z" />
</svg>