<?xml version="1.0" encoding="utf-8"?>
<svg xmlns="http://www.w3.org/2000/svg" viewBox="0 0 50 50" width="515" height="515">
  <path d="M24.78125 -0.03125C23.75 0.0820313 22.976563 0.964844 23 2L23 12.1875L19.40625 8.59375C19.03125 8.199219 18.511719 7.972656 17.96875 7.96875C17.15625 7.976563 16.429688 8.472656 16.128906 9.226563C15.824219 9.980469 16.011719 10.839844 16.59375 11.40625L23.59375 18.40625L25 19.84375L26.40625 18.40625L33.40625 11.40625C34.003906 10.925781 34.273438 10.148438 34.101563 9.402344C33.929688 8.652344 33.347656 8.070313 32.597656 7.898438C31.851563 7.726563 31.074219 7.996094 30.59375 8.59375L27 12.1875L27 2C27.007813 1.457031 26.796875 0.9375 26.414063 0.554688C26.03125 0.171875 25.511719 -0.0390625 24.96875 -0.03125C24.90625 -0.0351563 24.84375 -0.0351563 24.78125 -0.03125 Z M 9.78125 15.96875C9.003906 16.042969 8.339844 16.566406 8.085938 17.304688C7.828125 18.046875 8.027344 18.867188 8.59375 19.40625L12.1875 23L2 23C1.9375 22.996094 1.875 22.996094 1.8125 23C0.707031 23.050781 -0.144531 23.988281 -0.09375 25.09375C-0.0429688 26.199219 0.894531 27.050781 2 27L12.1875 27L8.59375 30.59375C7.996094 31.074219 7.726563 31.851563 7.898438 32.597656C8.070313 33.347656 8.652344 33.929688 9.402344 34.101563C10.148438 34.273438 10.925781 34.003906 11.40625 33.40625L18.40625 26.40625L19.84375 25L18.40625 23.59375L11.40625 16.59375C11.03125 16.199219 10.511719 15.972656 9.96875 15.96875C9.90625 15.964844 9.84375 15.964844 9.78125 15.96875 Z M 39.96875 15.96875C39.445313 15.988281 38.953125 16.214844 38.59375 16.59375L31.59375 23.59375L30.15625 25L31.59375 26.40625L38.59375 33.40625C39.074219 34.003906 39.851563 34.273438 40.597656 34.101563C41.347656 33.929688 41.929688 33.347656 42.101563 32.597656C42.273438 31.851563 42.003906 31.074219 41.40625 30.59375L37.8125 27L48 27C48.722656 27.011719 49.390625 26.632813 49.753906 26.007813C50.121094 25.386719 50.121094 24.613281 49.753906 23.992188C49.390625 23.367188 48.722656 22.988281 48 23L37.8125 23L41.40625 19.40625C42 18.832031 42.179688 17.957031 41.859375 17.195313C41.542969 16.4375 40.792969 15.949219 39.96875 15.96875 Z M 25 22C23.355469 22 22 23.355469 22 25C22 26.644531 23.355469 28 25 28C26.644531 28 28 26.644531 28 25C28 23.355469 26.644531 22 25 22 Z M 25 24C25.5625 24 26 24.4375 26 25C26 25.5625 25.5625 26 25 26C24.4375 26 24 25.5625 24 25C24 24.4375 24.4375 24 25 24 Z M 25 30.15625L23.59375 31.59375L16.59375 38.59375C15.996094 39.074219 15.726563 39.851563 15.898438 40.597656C16.070313 41.347656 16.652344 41.929688 17.402344 42.101563C18.148438 42.273438 18.925781 42.003906 19.40625 41.40625L23 37.8125L23 48C22.988281 48.722656 23.367188 49.390625 23.992188 49.753906C24.613281 50.121094 25.386719 50.121094 26.007813 49.753906C26.632813 49.390625 27.011719 48.722656 27 48L27 37.8125L30.59375 41.40625C31.074219 42.003906 31.851563 42.273438 32.597656 42.101563C33.347656 41.929688 33.929688 41.347656 34.101563 40.597656C34.273438 39.851563 34.003906 39.074219 33.40625 38.59375L26.40625 31.59375Z" />
</svg>