<?xml version="1.0" encoding="utf-8"?>
<svg xmlns="http://www.w3.org/2000/svg" viewBox="0 0 50 50" width="515" height="515">
  <path d="M50 27.421875C49.96875 27.023438 49.050781 17.742188 32.976563 17.597656L30.957031 15.84375C30.886719 15.78125 30.808594 15.730469 30.722656 15.691406C30.644531 15.65625 29.464844 15.117188 28 14.695313C28 15.640625 28 17.257813 28 18C27 18 26 18 25 18.101563C24 18.101563 23 18.101563 22 18.101563C22 16.101563 22 14.300781 22 14.199219C22 12.902344 22.601563 12 23.5 11.402344C23.839844 11.199219 24.09375 11.078125 24.371094 11.007813C22.929688 8.179688 20.695313 4.996094 18.398438 4.996094C2.621094 4.996094 0.132813 13.277344 0.0351563 13.632813C0.0117188 13.71875 -0.00390625 13.808594 -0.00390625 13.898438L-0.00390625 44C-0.00390625 44.554688 0.445313 45.003906 1 45.003906L49 45.003906C49.554688 45.003906 50.003906 44.554688 50.003906 44 Z M 41 28.300781C41 26.601563 42.101563 25.800781 43.5 25.902344C44.898438 26 46 27.101563 46 28.699219C46 28.898438 46 31.097656 46 32.5L45.601563 32.5C44.300781 32.300781 42.800781 32 41 31.800781C41 30.398438 41 28.5 41 28.300781 Z M 43.5 37.800781C44.898438 37.898438 46 39 46 40.601563C46 40.738281 46 41.859375 46 42.996094L41 42.996094C41 41.761719 41 40.433594 41 40.199219C41 38.601563 42.101563 37.699219 43.5 37.800781 Z M 32 27.398438C32 25.5 33.300781 24.5 35 24.601563C36.699219 24.699219 38 26 38 27.898438C38 28.097656 38 29.898438 38 31.5C36.101563 31.398438 34.101563 31.199219 32 31.101563C32 29.398438 32 27.601563 32 27.398438 Z M 35 36.699219C36.699219 36.898438 38 38.097656 38 40C38 40.214844 38 41.601563 38 42.996094L32 42.996094C32 41.429688 32 39.664063 32 39.5C32 37.601563 33.300781 36.5 35 36.699219 Z M 22 27C22 25 23.300781 23.898438 25 23.898438C26.699219 23.898438 28 25.101563 28 27C28 27.300781 28 29.300781 28 31C27 31 26 31 25 31C24 31 23 31 22 31C22 29.199219 22 27.199219 22 27 Z M 25 36C26.699219 36 28 37.101563 28 39.101563C28 39.347656 28 41.347656 28 42.996094L22 42.996094C22 41.324219 22 39.265625 22 39.101563C22 37.199219 23.300781 36 25 36 Z M 12 15.398438C12 13.5 13.300781 12.300781 15 12.101563C16.699219 11.898438 18 13 18 14.898438C18 15 18 16.5 18 18.199219C15.898438 18.398438 13.898438 18.601563 12 18.898438C12 17.199219 12 15.5 12 15.398438 Z M 12 27.898438C12 26 13.300781 24.800781 15 24.601563C16.699219 24.398438 18 25.5 18 27.398438C18 27.597656 18 29.5 18 31.097656C15.898438 31.199219 13.898438 31.398438 12 31.5C12 29.898438 12 28.101563 12 27.898438 Z M 15 36.601563C16.699219 36.5 18 37.5 18 39.402344C18 39.652344 18 41.425781 18 42.996094L12 42.996094C12 41.570313 12 40.121094 12 39.902344C12 38 13.300781 36.699219 15 36.601563 Z M 4 16.699219C4 15.101563 5.101563 14 6.5 13.898438C7.898438 13.800781 9 14.699219 9 16.300781C9 16.398438 9 17.898438 9 19.398438C7.101563 19.800781 5.398438 20.199219 4 20.800781C4 19 4 16.898438 4 16.699219 Z M 4 28.699219C4 27.101563 5.101563 26 6.5 25.898438C7.898438 25.800781 9 26.699219 9 28.300781C9 28.5 9 30.402344 9 31.800781C7.199219 32 5.699219 32.300781 4.398438 32.5L4 32.5C4 31.101563 4 28.898438 4 28.699219 Z M 6.5 37.898438C7.898438 37.800781 9 38.699219 9 40.300781C9 40.453125 9 41.761719 9 42.996094L4 42.996094C4 41.894531 4 40.835938 4 40.699219C4 39.101563 5.101563 38 6.5 37.898438Z" />
</svg>