<?xml version="1.0" encoding="utf-8"?>
<svg xmlns="http://www.w3.org/2000/svg" viewBox="0 0 50 50" width="515" height="515">
  <path d="M4 3C3.445313 3 3 3.449219 3 4L3 46C3 46.550781 3.445313 47 4 47L15 47C15.554688 47 16 46.550781 16 46L16 4C16 3.449219 15.554688 3 15 3 Z M 24.082031 5.449219C23.699219 5.398438 23.304688 5.578125 23.09375 5.933594L18 14.582031L18 27.210938L21.894531 29.453125L20.875 31.171875L18 29.515625L18 40.207031L34.296875 12.53125C34.429688 12.300781 34.46875 12.027344 34.402344 11.769531C34.335938 11.511719 34.167969 11.292969 33.9375 11.15625L24.460938 5.578125C24.339844 5.507813 24.210938 5.464844 24.082031 5.449219 Z M 19.660156 15.558594L27.484375 20.0625L26.464844 21.78125L18.632813 17.277344 Z M 37.988281 16.011719C37.859375 16.03125 37.734375 16.078125 37.621094 16.144531L32.734375 19.125L30.269531 23.300781L34.804688 30.742188L33.097656 31.78125L29.121094 25.257813L23.941406 34.058594L25.410156 36.46875L23.703125 37.503906L22.792969 36.011719L18.761719 42.859375L44.386719 27.246094C44.855469 26.960938 45.007813 26.34375 44.71875 25.875L38.996094 16.480469C38.855469 16.253906 38.636719 16.089844 38.378906 16.027344C38.25 15.996094 38.117188 15.992188 37.988281 16.011719 Z M 37.148438 34L34 35.925781L25 41.433594L25 45L23 45L23 42.65625L18 45.71875L18 47L46 47C46.554688 47 47 46.550781 47 46L47 35C47 34.449219 46.554688 34 46 34 Z M 34 36L36 36L36 45L34 45 Z M 9.5 39C10.328125 39 11 39.671875 11 40.5C11 41.328125 10.328125 42 9.5 42C8.671875 42 8 41.328125 8 40.5C8 39.671875 8.671875 39 9.5 39Z" />
</svg>