<?xml version="1.0" encoding="utf-8"?>
<svg xmlns="http://www.w3.org/2000/svg" viewBox="0 0 50 50" width="515" height="515">
  <path d="M45,2c-1.1,0-2,0.9-2,2c0,0.3,0.1,0.6,0.2,0.8l-8,11.2c-0.1,0-0.1,0-0.2,0c-0.4,0-0.8,0.1-1.1,0.3L27,12.9c-0.1-1-0.9-1.9-2-1.9c-1.1,0-2,0.9-2,2c0,0.1,0,0.2,0,0.3l-7.3,5.8C15.5,19,15.3,19,15,19c-1,0-1.8,0.7-2,1.7l-6.8,2.8C5.9,23.2,5.5,23,5,23c-1.1,0-2,0.9-2,2s0.9,2,2,2c1,0,1.8-0.7,2-1.7l6.8-2.7c0.3,0.3,0.8,0.4,1.2,0.4c1.1,0,2-0.9,2-2c0-0.1,0-0.2,0-0.3l7.3-5.8C24.5,15,24.7,15,25,15c0.4,0,0.8-0.1,1.1-0.3l6.9,3.4c0.1,1,0.9,1.9,2,1.9c1.1,0,2-0.9,2-2c0-0.3-0.1-0.6-0.2-0.8l8-11.2c0.1,0,0.1,0,0.2,0c1.1,0,2-0.9,2-2S46.1,2,45,2z M41,15v35h8V15H41z M21,24v26h8V24H21z M31,29v21h8V29H31z M11,32v18h8V32H11z M1,36v14h8V36H1z" />
</svg>