<?xml version="1.0" encoding="utf-8"?>
<svg xmlns="http://www.w3.org/2000/svg" viewBox="0 0 50 50" width="515" height="515">
  <path d="M44.886719 9.453125C44.738281 9.148438 40.992188 2.007813 25.039063 2.007813C9.09375 2.007813 5.269531 9.140625 5.117188 9.445313L5.007813 9.65625L5.007813 9.894531C5.007813 44.480469 23.988281 48.804688 24.800781 48.972656L25.007813 49.015625L25.214844 48.96875C26.023438 48.789063 44.992188 44.222656 44.992188 9.894531L44.992188 9.664063 Z M 12 20C12 20 15.125 16 18 16C20.378906 16 23 19 23 19C23 19 20.164063 19.546875 17.382813 19.84375C14.597656 20.144531 12 20 12 20 Z M 25 38C18.085938 38 15 27 15 27C15 27 21.296875 29 25 29C28.703125 29 35 27 35 27C35 27 31.914063 38 25 38 Z M 32.617188 19.84375C29.835938 19.546875 27 19 27 19C27 19 29.621094 16 32 16C34.875 16 38 20 38 20C38 20 35.402344 20.144531 32.617188 19.84375Z" />
</svg>