<?xml version="1.0" encoding="utf-8"?>
<svg xmlns="http://www.w3.org/2000/svg" viewBox="0 0 50 50" width="515" height="515">
  <path d="M19.875 3.375C16.195313 3.441406 13.507813 4.570313 11.875 6.71875C9.941406 9.265625 9.589844 13.144531 10.8125 18.21875C10.363281 18.769531 10.023438 19.605469 10.15625 20.71875C10.421875 22.921875 11.277344 23.828125 12 24.1875C12.34375 25.917969 13.300781 27.863281 14.21875 28.78125L14.21875 29.25C14.226563 30.261719 14.222656 31.144531 14.125 32.28125C13.511719 33.6875 11.476563 34.511719 9.125 35.4375C5.21875 36.972656 0.363281 38.875 0 44.9375L-0.0625 46L40.0625 46L40 44.9375C39.636719 38.871094 34.800781 36.972656 30.90625 35.4375C28.566406 34.511719 26.515625 33.6875 25.90625 32.28125C25.808594 31.148438 25.835938 30.265625 25.84375 29.25L25.84375 28.78125C26.308594 28.308594 26.761719 27.539063 27.15625 26.6875C27.53125 27.070313 27.917969 27.445313 28.34375 27.78125C28.40625 27.863281 28.480469 27.9375 28.5625 28C28.617188 28.039063 28.664063 28.085938 28.71875 28.125C28.75 28.148438 28.78125 28.164063 28.8125 28.1875C28.792969 28.34375 28.839844 28.351563 28.75 28.6875C28.574219 29.34375 28.214844 30.285156 27.46875 31.34375C27.261719 31.648438 27.238281 32.042969 27.410156 32.367188C27.578125 32.695313 27.914063 32.902344 28.28125 32.90625C31.628906 32.921875 33.480469 30.988281 34.03125 30.375C34.992188 30.574219 35.972656 30.71875 37 30.71875C44.09375 30.71875 50 25.722656 50 19.375C50 13.171875 44.339844 8.320313 37.46875 8.09375C37.449219 8.082031 37.425781 8.070313 37.40625 8.0625C37.394531 8.0625 37.386719 8.0625 37.375 8.0625C37.34375 8.050781 37.3125 8.039063 37.28125 8.03125C37.210938 8.011719 37.136719 8.003906 37.0625 8C37.042969 8 37.019531 8 37 8C35.480469 8 34.046875 8.265625 32.6875 8.6875C32.589844 8.71875 32.472656 8.71875 32.375 8.75C32.308594 8.773438 32.253906 8.820313 32.1875 8.84375C32.015625 8.90625 31.824219 8.933594 31.65625 9C31.484375 9.0625 31.332031 9.171875 31.21875 9.3125C30.730469 9.527344 30.265625 9.765625 29.8125 10.03125C29.632813 9.25 29.355469 8.484375 28.9375 7.8125C28.078125 6.429688 26.773438 5.558594 25.0625 5.21875C24.117188 4.027344 22.304688 3.375 19.875 3.375 Z M 37 10C37.03125 10 37.0625 10 37.09375 10C43.207031 10.042969 48 14.300781 48 19.375C48 24.472656 43.160156 28.71875 37 28.71875C35.949219 28.71875 34.929688 28.609375 33.96875 28.375C33.585938 28.277344 33.183594 28.410156 32.9375 28.71875C32.9375 28.71875 31.835938 30.007813 30 30.59375C30.191406 30.144531 30.558594 29.578125 30.65625 29.21875C30.886719 28.363281 30.90625 27.71875 30.90625 27.71875C30.90625 27.375 30.726563 27.058594 30.4375 26.875C30.292969 26.78125 30.140625 26.691406 30 26.59375C29.96875 26.570313 29.9375 26.550781 29.90625 26.53125C29.90625 26.519531 29.90625 26.511719 29.90625 26.5C29.128906 25.9375 28.472656 25.273438 27.90625 24.5625C27.9375 24.4375 27.976563 24.3125 28 24.1875C28.722656 23.828125 29.578125 22.921875 29.84375 20.71875C29.976563 19.628906 29.65625 18.800781 29.21875 18.25C29.578125 17.023438 30.179688 14.589844 30.09375 12.125C30.863281 11.597656 31.730469 11.15625 32.65625 10.8125C33.988281 10.320313 35.449219 10 37 10Z" />
</svg>