<?xml version="1.0" encoding="utf-8"?>
<svg xmlns="http://www.w3.org/2000/svg" viewBox="0 0 50 50" width="515" height="515">
  <path d="M24.921875 3C14.343875 3 8.5992344 8.275 7.3652344 19.125L3.3378906 26.066406C2.6248906 27.349406 3.0659063 28.910625 4.3789062 29.640625L7.421875 31.162109L8.4003906 37.943359C8.8063906 40.476359 11.130891 43.123047 13.962891 42.998047L17 42.998047L17 46.998047L37 46.998047L37 40.59375C37 37.73275 37.969875 34.835563 39.796875 32.226562C41.555363 29.779006 42.465362 26.475816 42.818359 23.53125C45.363747 21.402028 47 18.442011 47 15.072266C47 8.3372936 40.907156 3 33.535156 3C32.194816 3 30.896651 3.1809082 29.666016 3.5097656C28.209882 3.1910564 26.641884 3 24.921875 3 z M 33.535156 5C39.951156 5 45 9.5492368 45 15.072266C45 20.537101 39.429925 25 33 25C32.072863 25 31.168408 24.93068 30.369141 24.746094L30.054688 24.673828L29.755859 24.800781C28.818075 25.197437 27.097435 25.97678 25.380859 26.509766C24.616451 26.747109 23.884459 26.869563 23.234375 26.941406C24.19759 26.171567 25.413437 25.037305 25.804688 23.298828L25.9375 22.710938L25.478516 22.318359C23.31005 20.469486 22 17.895268 22 15.072266C22 9.557951 27.119253 5 33.535156 5 z M 27.5 13 A 1.5 1.5 0 0 0 26 14.5 A 1.5 1.5 0 0 0 27.5 16 A 1.5 1.5 0 0 0 29 14.5 A 1.5 1.5 0 0 0 27.5 13 z M 33.5 13 A 1.5 1.5 0 0 0 32 14.5 A 1.5 1.5 0 0 0 33.5 16 A 1.5 1.5 0 0 0 35 14.5 A 1.5 1.5 0 0 0 33.5 13 z M 39.5 13 A 1.5 1.5 0 0 0 38 14.5 A 1.5 1.5 0 0 0 39.5 16 A 1.5 1.5 0 0 0 41 14.5 A 1.5 1.5 0 0 0 39.5 13 z" />
</svg>