<?xml version="1.0" encoding="utf-8"?>
<svg xmlns="http://www.w3.org/2000/svg" viewBox="0 0 50 50" width="515" height="515">
  <path d="M19.546875 3C9.871094 3 2 10.050781 2 18.714844C2 22.785156 3.769531 26.730469 6.875 29.640625C6.921875 29.6875 7.101563 29.824219 7.101563 29.824219C7.316406 30 7.53125 30.171875 7.722656 30.3125C6.9375 32.648438 4.195313 34.546875 2.941406 35C2.113281 35.300781 1.839844 36.066406 2.148438 36.453125C2.617188 37.042969 4.046875 36.988281 5.421875 36.988281C9.964844 36.988281 15.699219 33.671875 15.699219 33.671875C16.773438 33.890625 17.988281 34 19.394531 34C29.265625 34 37 27.285156 37 18.714844C37 10.050781 29.171875 3 19.546875 3 Z M 11 12L28 12L28 14L11 14 Z M 11 17L28 17L28 19L11 19 Z M 38.785156 21.191406C38.394531 23.683594 37.429688 25.988281 36 28L39 28L39 30L34.339844 30C33.238281 31.140625 31.96875 32.152344 30.5625 33L39 33L39 35L26.03125 35C23.960938 35.636719 21.738281 36 19.394531 36C18.390625 36 17.480469 35.945313 16.628906 35.839844C18.488281 40.746094 24.4375 44 32.125 44C33.277344 44 34.285156 43.929688 35.183594 43.792969C35.222656 43.785156 38 46.996094 44.03125 46.996094C47.433594 46.894531 47.953125 45.871094 47.984375 45.503906C48.066406 44.675781 44.457031 44.4375 42.789063 41.75C43.066406 41.554688 43.386719 41.324219 43.59375 41.164063C46.394531 38.851563 47.984375 35.738281 47.984375 32.511719C47.984375 27.605469 44.316406 23.226563 38.785156 21.191406 Z M 11 22L23 22L23 24L11 24Z" />
</svg>