<?xml version="1.0" encoding="utf-8"?>
<svg xmlns="http://www.w3.org/2000/svg" viewBox="0 0 50 50" width="515" height="515">
  <path d="M2 2L2 39.96875L31 40L31 13.59375L19.40625 2.03125 Z M 19 4L29 14L19 14 Z M 33 10L33 28.59375L34.28125 27.28125L35.71875 28.71875L33 31.40625L33 32L42 32L42 34L33 34L33 34.59375L35.71875 37.28125L34.28125 38.71875L33 37.40625L33 42L19 42L19 47.96875L48 48L48 21.59375L36.40625 10.03125 Z M 36 12L46 22L36 22 Z M 17.71875 20.28125L23.40625 26L17.71875 31.71875L16.28125 30.28125L19.59375 27L10 27L10 25L19.59375 25L16.28125 21.71875Z" />
</svg>