<?xml version="1.0" encoding="utf-8"?>
<svg xmlns="http://www.w3.org/2000/svg" viewBox="0 0 50 50" width="515" height="515">
  <path d="M0 8L0 10.542969C6.473 16.089969 19.711219 27.428359 20.824219 28.318359C22.213219 29.507359 23.606 29.599609 24 29.599609C24.304493 29.599609 25.206585 29.538696 26.228516 28.974609C26.279271 29.025187 27.41935 30.158671 27.693359 30.431641C26.130899 31.470117 24.630072 31.599609 24 31.599609C23.272 31.599609 21.381828 31.429375 19.548828 29.859375C19.222828 29.599375 4.175 16.755734 0 13.177734L0 42L39.337891 42C41.312858 43.953631 42.823001 45.439453 42.851562 45.439453C42.853494 45.441366 42.85737 45.443401 42.859375 45.445312L43.150391 45.734375C44.744391 47.321375 47.333734 47.519375 48.927734 45.734375C50.421734 44.147375 50.322125 41.767078 48.828125 40.080078L48.130859 39.386719L48 39.257812L48 13.111328C45.258846 15.469773 34.841415 24.393529 33.896484 25.203125L32.486328 23.796875C37.036019 19.899722 43.463801 14.375807 48 10.472656L48 8L0 8 z M 26.490234 23.46875L30.414062 24.509766L46.785156 40.726562L43.847656 43.650391L43.798828 43.699219L27.625 27.484375L26.490234 23.46875 z" />
</svg>