<?xml version="1.0" encoding="utf-8"?>
<svg xmlns="http://www.w3.org/2000/svg" viewBox="0 0 50 50" width="515" height="515">
  <path d="M24 2C12.1 2.5 2.5 12.1 2 24L5 24C5.6 24 6 24.4 6 25C6 25.6 5.6 26 5 26L2 26C2.5 37.9 12.1 47.5 24 48L24 45C24 44.4 24.4 44 25 44C25.6 44 26 44.4 26 45L26 48C37.9 47.5 47.5 37.9 48 26L45 26C44.4 26 44 25.6 44 25C44 24.4 44.4 24 45 24L48 24C47.5 12.1 37.9 2.5 26 2L26 5C26 5.6 25.6 6 25 6C24.4 6 24 5.6 24 5L24 2 z M 37.150391 11.925781C37.375391 11.950781 37.600781 12.049219 37.800781 12.199219C38.000781 12.599219 38.100781 13.199609 37.800781 13.599609L28.099609 27.900391L27.800781 28.199219L13.5 37.900391C13.4 37.900391 13.2 38 13 38C12.7 38 12.500781 37.899219 12.300781 37.699219C12.000781 37.399219 11.899219 36.800391 12.199219 36.400391L21.900391 22.099609L22.199219 21.800781L36.5 12.099609C36.7 11.949609 36.925391 11.900781 37.150391 11.925781 z M 23.400391 23.400391L16.699219 33.300781L26.599609 26.599609L23.400391 23.400391 z" />
</svg>