<?xml version="1.0" encoding="utf-8"?>
<svg xmlns="http://www.w3.org/2000/svg" viewBox="0 0 50 50" width="515" height="515">
  <path d="M10 2L10 4L5 4L5 30L19 30L19 48L45 48L45 14L40 14L40 12L26 12L26 4L21 4L21 2 Z M 9 8L12 8L12 10L9 10 Z M 14 8L17 8L17 10L14 10 Z M 19 8L22 8L22 10L19 10 Z M 9 12L12 12L12 14L9 14 Z M 14 12L17 12L17 14L14 14 Z M 19 12L22 12L22 14L19 14 Z M 26 14L38 14L38 16L43 16L43 46L21 46L21 16L26 16 Z M 9 16L12 16L12 18L9 18 Z M 14 16L17 16L17 18L14 18 Z M 23 18L23 20L26 20L26 18 Z M 28 18L28 20L31 20L31 18 Z M 33 18L33 20L36 20L36 18 Z M 38 18L38 20L41 20L41 18 Z M 9 20L12 20L12 22L9 22 Z M 14 20L17 20L17 22L14 22 Z M 23 22L23 24L26 24L26 22 Z M 28 22L28 24L31 24L31 22 Z M 33 22L33 24L36 24L36 22 Z M 38 22L38 24L41 24L41 22 Z M 9 24L12 24L12 26L9 26 Z M 14 24L17 24L17 26L14 26 Z M 23 26L23 28L26 28L26 26 Z M 28 26L28 28L31 28L31 26 Z M 33 26L33 28L36 28L36 26 Z M 38 26L38 28L41 28L41 26 Z M 23 30L23 32L26 32L26 30 Z M 28 30L28 32L31 32L31 30 Z M 33 30L33 32L36 32L36 30 Z M 38 30L38 32L41 32L41 30 Z M 23 34L23 36L26 36L26 34 Z M 28 34L28 36L31 36L31 34 Z M 33 34L33 36L36 36L36 34 Z M 38 34L38 36L41 36L41 34 Z M 23 38L23 40L26 40L26 38 Z M 28 38L28 40L31 40L31 38 Z M 33 38L33 40L36 40L36 38 Z M 38 38L38 40L41 40L41 38 Z M 23 42L23 44L26 44L26 42 Z M 28 42L28 44L31 44L31 42 Z M 33 42L33 44L36 44L36 42 Z M 38 42L38 44L41 44L41 42Z" />
</svg>