<?xml version="1.0" encoding="utf-8"?>
<svg xmlns="http://www.w3.org/2000/svg" viewBox="0 0 50 50" width="515" height="515">
  <path d="M24 2L24 3C24 4.71875 23.121094 5.382813 21.5625 6.40625C20.136719 7.34375 18.40625 8.488281 18.0625 11.0625C15.828125 11.328125 13.777344 12.507813 12.46875 14.125C12.054688 17.011719 12.632813 19.355469 14.1875 21.09375C18.484375 25.90625 28.800781 25.007813 28.90625 25C29.460938 24.945313 29.949219 25.355469 30 25.90625C30.050781 26.457031 29.644531 26.949219 29.09375 27C28.972656 27.011719 28.101563 27.09375 26.8125 27.09375C23.230469 27.09375 16.335938 26.523438 12.6875 22.4375C11.382813 20.976563 10.625 19.199219 10.40625 17.15625C6.679688 17.851563 3.273438 20.941406 3.03125 25.75C3.277344 32.796875 9.195313 37 19 37C27.90625 37 31.410156 35.015625 34.03125 32.9375C35.355469 31.886719 37.691406 30.179688 38.125 29.90625C39.195313 29.242188 40.320313 28.84375 41.1875 28.84375C41.519531 28.84375 41.957031 28.90625 42.21875 29.1875C42.523438 29.519531 42.828125 29.914063 43.125 30.625L43.4375 31.40625C43.644531 31.324219 46.730469 29.671875 46.96875 24.625C46.726563 19.753906 41.996094 14.953125 35.875 13.375C34.683594 6.78125 29 2.992188 25.34375 2.03125 Z M 41 30.875C40.597656 30.921875 39.941406 31.125 39.1875 31.59375C38.929688 31.757813 37.523438 32.777344 36.28125 33.71875L35.09375 42.34375C35.027344 42.84375 34.585938 43.1875 34.09375 43.1875C34.046875 43.1875 34.015625 43.195313 33.96875 43.1875C33.421875 43.113281 33.019531 42.609375 33.09375 42.0625L34.03125 35.40625C33.136719 36.019531 32.160156 36.585938 31.0625 37.0625L30.6875 42.28125C30.652344 42.808594 30.207031 43.1875 29.6875 43.1875C29.664063 43.1875 29.648438 43.191406 29.625 43.1875C29.074219 43.148438 28.648438 42.675781 28.6875 42.125L29 37.8125C28.164063 38.066406 27.246094 38.257813 26.25 38.4375L26.40625 42.15625C26.425781 42.707031 25.988281 43.167969 25.4375 43.1875C25.425781 43.1875 25.417969 43.1875 25.40625 43.1875C24.871094 43.1875 24.425781 42.789063 24.40625 42.25L24.28125 38.71875C23.480469 38.808594 22.628906 38.890625 21.71875 38.9375L22.09375 42.09375C22.160156 42.640625 21.769531 43.121094 21.21875 43.1875C21.179688 43.191406 21.132813 43.1875 21.09375 43.1875C20.59375 43.1875 20.152344 42.820313 20.09375 42.3125L19.71875 39C19.480469 39.003906 19.242188 39 19 39C18.34375 39 17.691406 38.972656 17.0625 38.9375L17.78125 41.96875C17.90625 42.507813 17.570313 43.0625 17.03125 43.1875C16.957031 43.207031 16.886719 43.1875 16.8125 43.1875C16.359375 43.1875 15.917969 42.898438 15.8125 42.4375L14.96875 38.75C12.433594 38.421875 10.21875 37.753906 8.3125 36.8125L10.21875 45.625L10.25 45.71875C10.699219 47.066406 11.898438 48 13.1875 48L36.8125 48C38.253906 48 39.46875 47.03125 39.78125 45.625L42.5 33.15625C42.09375 32.941406 41.777344 32.613281 41.59375 32.15625L41.28125 31.40625C41.183594 31.175781 41.09375 31.011719 41 30.875Z" />
</svg>