<?xml version="1.0" encoding="utf-8"?>
<svg xmlns="http://www.w3.org/2000/svg" viewBox="0 0 50 50" width="515" height="515">
  <path d="M48.566406 26.199219L43.96875 18.277344C42.480469 6.320313 35.234375 0 23 0C7.515625 0 2 10.847656 2 21C2 25.265625 3.269531 29.367188 5.675781 32.867188C7.851563 36.027344 9 39.601563 9 43.199219L9 50L33 50L33 44.765625L35.007813 44.898438C39.886719 45.347656 44 41.453125 44 36.601563L44 31.820313L47.484375 30.074219C48.15625 29.703125 48.636719 29.097656 48.839844 28.367188C49.039063 27.644531 48.945313 26.882813 48.566406 26.199219 Z M 25.101563 33.699219L22.398438 33.699219L22.398438 30.300781L25.101563 30.300781 Z M 29.699219 19.398438C29.199219 20.199219 28.5 21 27.699219 21.800781C27 22.5 26.5 23 26.101563 23.398438C25.699219 23.800781 25.398438 24.101563 25.199219 24.5C25 24.898438 24.902344 25.300781 24.800781 25.800781C24.699219 26.300781 24.699219 27.101563 24.699219 28.101563L22.699219 28.101563C22.699219 27.101563 22.699219 26.300781 22.902344 25.601563C23 24.898438 23.199219 24.300781 23.5 23.800781C23.800781 23.300781 24.199219 22.800781 24.699219 22.300781C25.199219 21.800781 25.800781 21.300781 26.402344 20.601563C27 20 27.5 19.398438 27.902344 18.699219C28.300781 18 28.5 17.300781 28.5 16.398438C28.5 15.800781 28.402344 15.199219 28.101563 14.601563C27.800781 14 27.5 13.601563 27.101563 13.199219C26.703125 12.800781 26.203125 12.5 25.601563 12.300781C25 12.101563 24.5 12 23.800781 12C22.898438 12 22.199219 12.101563 21.5 12.398438C20.800781 12.699219 20.300781 13.101563 19.898438 13.601563C19.5 14.101563 19.199219 14.699219 18.898438 15.398438C18.699219 16.101563 18.601563 16.898438 18.601563 17.699219L16.601563 17.699219C16.699219 16.800781 16.898438 15.800781 17.199219 14.800781C17.5 13.898438 18 13.101563 18.601563 12.398438C19.199219 11.699219 20 11.199219 20.898438 10.898438C21.800781 10.5 22.800781 10.398438 24 10.398438C24.898438 10.398438 25.699219 10.5 26.5 10.800781C27.300781 11.101563 28 11.5 28.601563 12C29.199219 12.5 29.699219 13.101563 30 13.898438C30.300781 14.601563 30.5 15.5 30.5 16.398438C30.5 17.601563 30.199219 18.601563 29.699219 19.398438Z" />
</svg>