<?xml version="1.0" encoding="utf-8"?>
<svg xmlns="http://www.w3.org/2000/svg" viewBox="0 0 50 50" width="515" height="515">
  <path d="M41.1875 2.40625L30.1875 17.40625L31.8125 18.59375L42.8125 3.59375 Z M 20.9375 5.6875L19.0625 6.3125L21.0625 12.3125L22.9375 11.6875 Z M 10.75 6.34375L9.25 7.65625L18.25 17.65625L19.75 16.34375 Z M 28 8L19 27L24 27L22 42L31 24L26 24 Z M 8 18L8 22L2 22L2 28L8 28L8 32L9 32L16 25L9 18 Z M 41 18L34 25L41 32L42 32L42 28L48 28L48 22L42 22L42 18 Z M 17.4375 32.75L7.1875 46.40625L8.8125 47.59375L19.03125 33.9375 Z M 29.875 34.5L28.125 35.5L35.125 47.5L36.875 46.5 Z M 39.625 37.21875L38.375 38.78125L44.375 43.78125L45.625 42.21875Z" />
</svg>