<?xml version="1.0" encoding="utf-8"?>
<svg xmlns="http://www.w3.org/2000/svg" viewBox="0 0 50 50" width="515" height="515">
  <path d="M44 1.59375L33.5625 12L31.3125 9.75C28.96875 7.410156 25.1875 7.410156 22.84375 9.75L18.5 14.125L17.1875 12.8125C16.980469 12.589844 16.679688 12.476563 16.375 12.5C15.984375 12.539063 15.652344 12.800781 15.527344 13.167969C15.398438 13.539063 15.5 13.949219 15.78125 14.21875L35.78125 34.21875C36.023438 34.515625 36.410156 34.652344 36.785156 34.566406C37.15625 34.480469 37.449219 34.1875 37.535156 33.816406C37.621094 33.441406 37.484375 33.054688 37.1875 32.8125L35.875 31.5L40.25 27.15625C42.59375 24.8125 42.59375 21.03125 40.25 18.6875L40.25 18.65625L38 16.40625L48.40625 6 Z M 13.40625 15.46875C13.015625 15.507813 12.683594 15.769531 12.558594 16.136719C12.429688 16.507813 12.53125 16.917969 12.8125 17.1875L14.125 18.5L9.75 22.84375C7.40625 25.1875 7.40625 29 9.75 31.34375L12 33.59375L1.59375 44L6 48.40625L16.40625 38L18.65625 40.25C21 42.589844 24.8125 42.589844 27.15625 40.25L31.5 35.875L32.8125 37.1875C33.054688 37.484375 33.441406 37.621094 33.816406 37.535156C34.1875 37.449219 34.480469 37.15625 34.566406 36.785156C34.652344 36.410156 34.515625 36.023438 34.21875 35.78125L14.21875 15.78125C14.03125 15.582031 13.773438 15.472656 13.5 15.46875C13.46875 15.46875 13.4375 15.46875 13.40625 15.46875Z" />
</svg>