<?xml version="1.0" encoding="utf-8"?>
<svg xmlns="http://www.w3.org/2000/svg" viewBox="0 0 50 50" width="515" height="515">
  <path d="M4.1875 -0.0625C3.476563 -0.109375 2.761719 0.300781 2.5 1L0.09375 8.40625C-0.105469 9.007813 0.0117188 9.710938 0.3125 10.3125L2.8125 14.09375C3.113281 14.59375 3.507813 14.8125 3.90625 14.8125C4.304688 14.8125 4.792969 14.507813 5.09375 13.90625L6.9375 8.1875L8.6875 8.6875C8.707031 8.707031 8.730469 8.707031 8.75 8.71875C8.769531 8.8125 8.789063 8.902344 8.8125 9C9.511719 11.199219 10.09375 13.300781 10.59375 15C11.195313 17.101563 11.710938 18.5 11.8125 19C12.113281 19.699219 12.5 20.398438 13 21C14.101563 22.199219 18.394531 27.011719 19.09375 27.8125L16.5 42L33.09375 42L33.90625 34.59375L39.1875 42L46.3125 42L35.6875 27C34.886719 25.699219 33.09375 25.105469 32.59375 24.90625L25 22C21.898438 20.699219 18.3125 17 17.8125 16.5L14.59375 7.8125C13.492188 5.511719 12.210938 5 11.3125 5L10.8125 5C10.113281 5.101563 9.492188 5.492188 9.09375 6.09375C8.964844 6.277344 8.886719 6.496094 8.8125 6.71875L7.53125 6.28125L8.59375 3C8.695313 2.601563 8.699219 2.210938 8.5 1.8125C8.300781 1.414063 7.992188 1.101563 7.59375 1L4.5 0C4.398438 -0.0234375 4.289063 -0.0546875 4.1875 -0.0625 Z M 31 10C27.699219 10 25 12.699219 25 16C25 19.300781 27.699219 22 31 22C34.300781 22 37 19.300781 37 16C37 12.699219 34.300781 10 31 10 Z M 10 44C9.398438 44 9 44.398438 9 45L9 49C9 49.601563 9.398438 50 10 50L49 50C49.601563 50 50 49.601563 50 49L50 45C50 44.398438 49.601563 44 49 44Z" />
</svg>