<?xml version="1.0" encoding="utf-8"?>
<svg xmlns="http://www.w3.org/2000/svg" viewBox="0 0 50 50" width="515" height="515">
  <path d="M2.84375 3C1.273438 3 0 4.273438 0 5.84375L0 10L50 10L50 5.84375C50 4.273438 48.726563 3 47.15625 3 Z M 0 12L0 46C0 46.554688 0.449219 47 1 47L49 47C49.554688 47 50 46.554688 50 46L50 12 Z M 15.09375 19.96875C15.351563 19.972656 15.589844 20.050781 15.78125 20.25L22.40625 27.0625L15.625 33.6875C15.429688 33.875 15.191406 33.96875 14.9375 33.96875C14.675781 33.96875 14.414063 33.855469 14.21875 33.65625C13.832031 33.261719 13.824219 32.636719 14.21875 32.25L19.59375 27.03125L14.375 21.65625C13.988281 21.261719 13.980469 20.636719 14.375 20.25C14.574219 20.054688 14.835938 19.964844 15.09375 19.96875 Z M 23 32L36 32C36.554688 32 37 32.445313 37 33C37 33.554688 36.554688 34 36 34L23 34C22.449219 34 22 33.554688 22 33C22 32.445313 22.449219 32 23 32Z" />
</svg>