<?xml version="1.0" encoding="utf-8"?>
<svg xmlns="http://www.w3.org/2000/svg" viewBox="0 0 50 50" width="515" height="515">
  <path d="M26 1C24.355469 1 23 2.355469 23 4L23 15C23 16.644531 24.355469 18 26 18L28.199219 18C28.269531 18.28125 28.320313 18.371094 28.382813 18.875C28.496094 19.773438 28.457031 20.851563 28.105469 21.550781C27.949219 21.863281 27.96875 22.230469 28.148438 22.527344C28.332031 22.820313 28.652344 23 29 23C31.054688 23 32.492188 21.433594 33.441406 20.074219C34.171875 19.03125 34.398438 18.425781 34.582031 18L43 18C44.644531 18 46 16.644531 46 15L46 4C46 2.355469 44.644531 1 43 1 Z M 26 3L43 3C43.566406 3 44 3.433594 44 4L44 15C44 15.566406 43.566406 16 43 16L34 16C33.589844 16 33.222656 16.25 33.074219 16.628906C33.074219 16.628906 32.605469 17.785156 31.808594 18.925781C31.398438 19.507813 30.917969 20.027344 30.421875 20.40625C30.46875 19.769531 30.433594 19.160156 30.367188 18.625C30.230469 17.523438 29.949219 16.683594 29.949219 16.683594C29.8125 16.273438 29.429688 16 29 16L26 16C25.433594 16 25 15.566406 25 15L25 4C25 3.433594 25.433594 3 26 3 Z M 19.996094 5.03125C19.96875 5.03125 19.945313 5.03125 19.921875 5.03125C16.097656 5.316406 13.652344 7.351563 12.699219 10.1875C11.792969 12.882813 12.09375 16.199219 12.9375 19.691406C12.464844 20.183594 12 20.871094 11.996094 21.996094C11.988281 23.320313 12.441406 24.34375 13.042969 24.996094C13.386719 25.367188 13.757813 25.410156 14.121094 25.574219C14.191406 26.578125 14.363281 27.59375 14.726563 28.464844C15.054688 29.257813 15.511719 29.800781 15.996094 30.328125C15.996094 31.605469 16.003906 32.59375 15.996094 33.84375C15.605469 34.683594 14.800781 35.363281 13.578125 36.003906C12.308594 36.675781 10.675781 37.277344 9.039063 38.03125C7.398438 38.785156 5.730469 39.707031 4.40625 41.113281C3.082031 42.519531 2.144531 44.4375 1.996094 46.9375L1.933594 48.003906L42.066406 48.003906L42.003906 46.9375C41.855469 44.4375 40.917969 42.519531 39.589844 41.109375C38.261719 39.703125 36.59375 38.785156 34.949219 38.027344C33.304688 37.269531 31.675781 36.671875 30.40625 36C29.1875 35.359375 28.386719 34.679688 28.003906 33.847656C27.992188 32.503906 28.003906 31.511719 28.003906 30.25C28.488281 29.738281 28.953125 29.207031 29.269531 28.550781C29.691406 27.675781 30.003906 26.847656 30.003906 26C30.003906 25.726563 29.894531 25.464844 29.695313 25.273438C29.496094 25.085938 29.230469 24.984375 28.953125 24.996094C27.871094 24.972656 27 24.089844 27 23L27 21C27 19.898438 26.101563 19 25 19L24 19C22.898438 19 21 18 21 16L21 6.308594C21.085938 6 21.023438 5.664063 20.824219 5.414063C20.625 5.160156 20.316406 5.015625 19.996094 5.03125 Z M 29 6L29 8L36 8L36 6 Z M 38 6L38 8L41 8L41 6 Z M 29 11L29 13L32 13L32 11 Z M 34 11L34 13L41 13L41 11Z" />
</svg>