<?xml version="1.0" encoding="utf-8"?>
<svg xmlns="http://www.w3.org/2000/svg" viewBox="0 0 50 50" width="515" height="515">
  <path d="M0 0L0 9.46875L5.59375 4.78125L8.90625 8.78125L11.34375 7.53125L16 11.84375L16 0 Z M 11.5 3C12.328125 3 13 3.671875 13 4.5C13 5.328125 12.328125 6 11.5 6C10.671875 6 10 5.328125 10 4.5C10 3.671875 10.671875 3 11.5 3 Z M 20.71875 4C20.167969 4.078125 19.78125 4.589844 19.859375 5.140625C19.9375 5.691406 20.449219 6.078125 21 6L49 6C49.359375 6.003906 49.695313 5.816406 49.878906 5.503906C50.058594 5.191406 50.058594 4.808594 49.878906 4.496094C49.695313 4.183594 49.359375 3.996094 49 4L21 4C20.96875 4 20.9375 4 20.90625 4C20.875 4 20.84375 4 20.8125 4C20.78125 4 20.75 4 20.71875 4 Z M 5.34375 7.59375L0 12.0625L0 16L16 16L16 14.59375L11 9.9375L8.375 11.25 Z M 20.71875 10C20.167969 10.078125 19.78125 10.589844 19.859375 11.140625C19.9375 11.691406 20.449219 12.078125 21 12L49 12C49.359375 12.003906 49.695313 11.816406 49.878906 11.503906C50.058594 11.191406 50.058594 10.808594 49.878906 10.496094C49.695313 10.183594 49.359375 9.996094 49 10L21 10C20.96875 10 20.9375 10 20.90625 10C20.875 10 20.84375 10 20.8125 10C20.78125 10 20.75 10 20.71875 10 Z M 0 17L0 33L16 33L16 17 Z M 9.375 20.03125C9.761719 20.03125 10.144531 20.125 10.46875 20.3125C11.585938 20.953125 11.679688 22.289063 11.625 23.125C12.324219 23.644531 13.273438 24.601563 12.9375 25.90625C12.617188 27.144531 11.414063 27.644531 10.625 27.84375C10.332031 28.652344 9.707031 29.898438 8.40625 29.96875L8.28125 29.96875C7.894531 29.96875 7.519531 29.863281 7.15625 29.65625C6.59375 29.335938 6.152344 28.820313 5.875 28.40625C5.183594 28.414063 4.570313 28.273438 4.09375 28C3.636719 27.738281 3.300781 27.351563 3.125 26.875C2.714844 25.769531 3.253906 24.710938 3.84375 24C3.550781 23.101563 3.472656 21.878906 4.375 21C4.808594 20.578125 5.367188 20.34375 6 20.34375C6.546875 20.34375 7.058594 20.5 7.46875 20.6875C7.941406 20.371094 8.628906 20.03125 9.375 20.03125 Z M 20.71875 21C20.167969 21.078125 19.78125 21.589844 19.859375 22.140625C19.9375 22.691406 20.449219 23.078125 21 23L49 23C49.359375 23.003906 49.695313 22.816406 49.878906 22.503906C50.058594 22.191406 50.058594 21.808594 49.878906 21.496094C49.695313 21.183594 49.359375 20.996094 49 21L21 21C20.96875 21 20.9375 21 20.90625 21C20.875 21 20.84375 21 20.8125 21C20.78125 21 20.75 21 20.71875 21 Z M 9.46875 22.03125C9.027344 22.003906 8.46875 22.421875 8.25 22.625L7.65625 23.1875L7 22.71875C6.992188 22.714844 6.945313 22.664063 6.875 22.625C6.359375 22.328125 5.886719 22.332031 5.78125 22.4375C5.460938 22.75 5.796875 23.574219 5.875 23.71875L6.28125 24.4375L5.65625 24.96875C5.367188 25.210938 4.871094 25.839844 5 26.1875C5.007813 26.207031 5.023438 26.210938 5.09375 26.25C5.238281 26.335938 5.5 26.40625 5.8125 26.40625C6.050781 26.40625 6.222656 26.378906 6.25 26.375L7 26.25L7.34375 26.9375C7.457031 27.175781 7.8125 27.742188 8.15625 27.9375C8.210938 27.96875 8.25 27.96875 8.28125 27.96875C8.4375 27.910156 8.753906 27.34375 8.875 26.78125L9.03125 26.0625L9.78125 25.96875C10.238281 25.925781 10.925781 25.683594 11 25.40625C11.035156 25.269531 10.714844 24.839844 10.125 24.5L9.46875 24.15625L9.59375 23.375C9.710938 22.824219 9.644531 22.132813 9.46875 22.03125 Z M 8.65625 23.0625C8.722656 23.046875 8.773438 23.054688 8.84375 23.09375C9.414063 23.417969 8.09375 24.65625 8.09375 24.65625C8.09375 24.65625 9.847656 24.4375 9.75 25.09375C9.652344 25.753906 8.0625 24.84375 8.0625 24.84375C8.0625 24.84375 8.78125 26.457031 8.125 26.5625C7.46875 26.667969 7.84375 24.875 7.84375 24.875C7.84375 24.875 6.425781 26.054688 6.21875 25.46875C6.011719 24.882813 7.75 24.6875 7.75 24.6875C7.75 24.6875 6.175781 23.769531 6.6875 23.34375C7.199219 22.917969 7.90625 24.53125 7.90625 24.53125C7.90625 24.53125 8.203125 23.179688 8.65625 23.0625 Z M 20.71875 27C20.167969 27.078125 19.78125 27.589844 19.859375 28.140625C19.9375 28.691406 20.449219 29.078125 21 29L49 29C49.359375 29.003906 49.695313 28.816406 49.878906 28.503906C50.058594 28.191406 50.058594 27.808594 49.878906 27.496094C49.695313 27.183594 49.359375 26.996094 49 27L21 27C20.96875 27 20.9375 27 20.90625 27C20.875 27 20.84375 27 20.8125 27C20.78125 27 20.75 27 20.71875 27 Z M 0 34L0 50L16 50L16 34 Z M 8 37.34375C8 37.34375 8.707031 39.007813 9.21875 39.28125C9.730469 39.554688 11.3125 38.6875 11.3125 38.6875C11.3125 38.6875 10.585938 40.222656 10.8125 40.90625C10.953125 41.332031 12.65625 42 12.65625 42C12.65625 42 10.898438 42.667969 10.75 43.09375C10.558594 43.640625 11.3125 45.3125 11.3125 45.3125C11.3125 45.3125 9.628906 44.523438 9.09375 44.75C8.558594 44.980469 8 46.65625 8 46.65625C8 46.65625 7.292969 44.992188 6.78125 44.71875C6.269531 44.445313 4.6875 45.3125 4.6875 45.3125C4.6875 45.3125 5.367188 43.789063 5.1875 43.09375C5.066406 42.625 3.34375 42 3.34375 42C3.34375 42 5.121094 41.300781 5.25 40.90625C5.429688 40.359375 4.6875 38.6875 4.6875 38.6875C4.6875 38.6875 6.371094 39.476563 6.90625 39.25C7.441406 39.019531 8 37.34375 8 37.34375 Z M 20.71875 38C20.167969 38.078125 19.78125 38.589844 19.859375 39.140625C19.9375 39.691406 20.449219 40.078125 21 40L49 40C49.359375 40.003906 49.695313 39.816406 49.878906 39.503906C50.058594 39.191406 50.058594 38.808594 49.878906 38.496094C49.695313 38.183594 49.359375 37.996094 49 38L21 38C20.96875 38 20.9375 38 20.90625 38C20.875 38 20.84375 38 20.8125 38C20.78125 38 20.75 38 20.71875 38 Z M 8 40.53125C7.1875 40.53125 6.53125 41.1875 6.53125 42C6.53125 42.8125 7.1875 43.46875 8 43.46875C8.8125 43.46875 9.46875 42.8125 9.46875 42C9.46875 41.1875 8.8125 40.53125 8 40.53125 Z M 20.71875 44C20.167969 44.078125 19.78125 44.589844 19.859375 45.140625C19.9375 45.691406 20.449219 46.078125 21 46L49 46C49.359375 46.003906 49.695313 45.816406 49.878906 45.503906C50.058594 45.191406 50.058594 44.808594 49.878906 44.496094C49.695313 44.183594 49.359375 43.996094 49 44L21 44C20.96875 44 20.9375 44 20.90625 44C20.875 44 20.84375 44 20.8125 44C20.78125 44 20.75 44 20.71875 44Z" />
</svg>