<?xml version="1.0" encoding="utf-8"?>
<svg xmlns="http://www.w3.org/2000/svg" viewBox="0 0 50 50" width="515" height="515">
  <path d="M3 7C1.347656 7 0 8.347656 0 10L0 43C0 44.652344 1.347656 46 3 46L9 46C9.550781 46 10 45.554688 10 45L10 43.5C9.398438 43 9 42.300781 9 41.5C9 40.101563 10.101563 39 11.5 39C12.898438 39 14 40.101563 14 41.5C14 42.300781 13.601563 43 13 43.5L13 45C13 45.554688 13.445313 46 14 46L36 46C36.554688 46 37 45.554688 37 45L37 43.5C36.398438 43 36 42.300781 36 41.5C36 40.101563 37.101563 39 38.5 39C39.898438 39 41 40.101563 41 41.5C41 42.300781 40.601563 43 40 43.5L40 45C40 45.554688 40.445313 46 41 46L47 46C48.652344 46 50 44.652344 50 43L50 10C50 8.347656 48.652344 7 47 7 Z M 16.5 14C17.601563 14 18.511719 14.304688 18.8125 14.90625C22.011719 15.304688 21.09375 19.601563 20.59375 21C20.792969 21.101563 21.101563 21.398438 21 22C20.800781 23.101563 20.394531 23.40625 20.09375 23.40625C19.992188 24.40625 19.398438 25.613281 19 25.8125C19 26.613281 18.898438 27.105469 19 27.90625C19.800781 30.207031 25.699219 29.5 26 34L7 34C7.300781 29.5 13.1875 30.207031 14.1875 27.90625L14.1875 25.8125C13.789063 25.613281 13.101563 24.40625 13 23.40625C12.699219 23.40625 12.195313 23.101563 12.09375 22C11.992188 21.398438 12.300781 21.101563 12.5 21C11.5 17.300781 12.101563 14.101563 16.5 14 Z M 37.6875 17C41.386719 17 44 19.414063 44 22.8125C44 25.8125 42.292969 27.59375 40.09375 27.59375C39.09375 27.59375 38.414063 27.09375 38.3125 26.09375C37.613281 27.09375 36.695313 27.59375 35.59375 27.59375C34.292969 27.59375 33.3125 26.601563 33.3125 25C33.3125 22.5 35.1875 20.3125 38.1875 20.3125C39.085938 20.3125 40.085938 20.511719 40.6875 20.8125L40.09375 24.5C39.894531 25.699219 39.992188 26.1875 40.59375 26.1875C41.492188 26.1875 42.59375 25.113281 42.59375 22.8125C42.59375 20.210938 40.886719 18.1875 37.6875 18.1875C34.488281 18.1875 31.8125 20.601563 31.8125 24.5C31.8125 27.898438 33.992188 29.8125 37.09375 29.8125C38.195313 29.8125 39.292969 29.585938 40.09375 29.1875L40.3125 30.3125C39.011719 30.8125 37.898438 31 36.5 31C33 31 30 28.585938 30 24.6875C30 20.585938 33.085938 17 37.6875 17 Z M 37.8125 21.90625C36.414063 21.90625 35.40625 23.210938 35.40625 24.8125C35.40625 25.613281 35.804688 26 36.40625 26C37.207031 26 37.988281 25.105469 38.1875 23.90625L38.40625 22C38.207031 22 38.011719 21.90625 37.8125 21.90625Z" />
</svg>