<?xml version="1.0" encoding="utf-8"?>
<svg xmlns="http://www.w3.org/2000/svg" viewBox="0 0 50 50" width="515" height="515">
  <path d="M9 3L9 8L4 8L4 45L19.1875 45C19.605469 46.15625 20.707031 47 22 47L41 47C42.644531 47 44 45.644531 44 44L44 31C44 29.355469 42.644531 28 41 28L38 28L38 8L13 8L13 6L33 6L33 3 Z M 10 13L14 13L14 15L10 15 Z M 19 13L23 13L23 15L19 15 Z M 28 13L32 13L32 15L28 15 Z M 10 18L14 18L14 20L10 20 Z M 19 18L23 18L23 20L19 20 Z M 28 18L32 18L32 20L28 20 Z M 10 23L14 23L14 25L10 25 Z M 19 23L23 23L23 25L19 25 Z M 28 23L32 23L32 25L28 25 Z M 10 28L14 28L14 30L10 30 Z M 22 30L41 30C41.566406 30 42 30.433594 42 31L42 44C42 44.566406 41.566406 45 41 45L22 45C21.433594 45 21 44.566406 21 44L21 31C21 30.433594 21.433594 30 22 30 Z M 31.472656 32C29.011719 32.042969 28.714844 33.8125 29.253906 35.835938C29.160156 35.894531 29 36.074219 29.042969 36.394531C29.117188 36.996094 29.363281 37.144531 29.527344 37.15625C29.585938 37.714844 29.964844 38.375 30.167969 38.480469C30.167969 38.878906 30.183594 39.183594 30.140625 39.621094C29.65625 40.898438 26.152344 40.539063 26 43L37 43C36.847656 40.539063 33.359375 40.898438 32.871094 39.621094C32.832031 39.183594 32.84375 38.882813 32.84375 38.484375C33.046875 38.378906 33.410156 37.71875 33.472656 37.15625C33.632813 37.144531 33.886719 36.992188 33.957031 36.394531C34 36.074219 33.839844 35.894531 33.746094 35.835938C34.003906 35.074219 34.546875 32.722656 32.75 32.480469C32.5625 32.160156 32.089844 32 31.472656 32 Z M 10 33L14 33L14 35L10 35 Z M 10 38L14 38L14 40L10 40Z" />
</svg>