<?xml version="1.0" encoding="utf-8"?>
<svg xmlns="http://www.w3.org/2000/svg" viewBox="0 0 50 50" width="515" height="515">
  <path d="M25 7C21.410156 7 18.246094 9.414063 17.25 12.8125C13.367188 13.601563 10.378906 14.882813 8.3125 16L41.6875 16C39.621094 14.882813 36.632813 13.601563 32.75 12.8125C31.753906 9.414063 28.589844 7 25 7 Z M 25 9C27.355469 9 29.4375 10.390625 30.4375 12.4375C28.761719 12.207031 26.957031 12.0625 25 12.0625C23.03125 12.0625 21.214844 12.203125 19.53125 12.4375C20.527344 10.386719 22.640625 9 25 9 Z M 6 18C2.332031 18 1 20.390625 1 22C1 22.847656 1.753906 23.148438 2.15625 23.3125C2.890625 23.613281 4 24.082031 4 27L4 29.15625L1.375 28.0625C0.863281 27.847656 0.273438 28.117188 0.0625 28.625C-0.148438 29.136719 0.113281 29.726563 0.625 29.9375L4 31.34375L4 39C4 43.980469 9.351563 50 16 50L34 50C40.648438 50 46 43.980469 46 39L46 31.3125L49.375 29.9375C49.886719 29.726563 50.152344 29.136719 49.9375 28.625C49.722656 28.113281 49.132813 27.851563 48.625 28.0625L46 29.15625L46 27C46 24.082031 47.109375 23.613281 47.84375 23.3125C48.246094 23.148438 49 22.847656 49 22C49 20.390625 47.667969 18 44 18Z" />
</svg>