<?xml version="1.0" encoding="utf-8"?>
<svg xmlns="http://www.w3.org/2000/svg" viewBox="0 0 50 50" width="515" height="515">
  <path d="M25,2C12.318,2,2,12.318,2,25s10.318,23,23,23s23-10.318,23-23S37.682,2,25,2z M39.768,33.64C39.552,33.9,34.361,40,25,40 c-5.353,0-7.613-2.199-7.707-2.293c-0.391-0.391-0.391-1.023,0-1.414c0.389-0.387,1.016-0.39,1.407-0.008 C18.75,36.332,20.591,38,25,38c8.394,0,13.186-5.585,13.233-5.642c0.355-0.423,0.984-0.479,1.408-0.125 C40.064,32.588,40.121,33.216,39.768,33.64z M43,21.75c0,4.229-3,7.25-8,7.25s-8-2-8-8c0-0.001,0-0.538,0-1.155 c-0.08-0.047-0.162-0.089-0.229-0.159C26.73,19.644,26.083,19,25,19c-1.094,0-1.746,0.659-1.773,0.687 c-0.067,0.069-0.148,0.111-0.227,0.157c0,0.619,0,1.156,0,1.157c0,6-3,8-8,8s-8-3.021-8-7.25c0-2.854-2-2.244-2-3.007 S7.644,17,16.604,17c2.609,0,3.713,0.56,5.662,0.891C22.796,17.502,23.722,17,25,17c1.279,0,2.205,0.502,2.734,0.891 C29.683,17.56,30.787,17,33.396,17C42.356,17,45,17.98,45,18.743S43,18.896,43,21.75z" />
</svg>