<?xml version="1.0" encoding="utf-8"?>
<svg xmlns="http://www.w3.org/2000/svg" viewBox="0 0 50 50" width="515" height="515">
  <path d="M33.90625 3C33.507813 3 33.195313 3.292969 33.09375 3.59375L30.1875 11.5L23.40625 20L17.8125 20L9.40625 19L6.90625 19C5.40625 19 2.40625 20.511719 1.90625 20.8125C1.105469 21.210938 0.386719 21.792969 0.1875 22.59375C-0.113281 23.292969 0.0117188 23.988281 0.3125 24.6875C0.914063 25.886719 2.289063 26.585938 3.6875 26.1875L4 26.09375L4 38.90625C4 40.707031 5.085938 42.3125 6.6875 42.8125C7.988281 43.210938 9.3125 42.988281 10.3125 42.1875C11.3125 41.386719 11.90625 40.199219 11.90625 39L11.90625 35L15.6875 35C16.585938 35.398438 20.195313 37 23.59375 37L30 37L30 38.90625C30 40.707031 31.085938 42.3125 32.6875 42.8125C33.085938 42.914063 33.5 43 34 43C34.800781 43 35.707031 42.6875 36.40625 42.1875C37.40625 41.386719 38 40.199219 38 39L38 34.3125C38.699219 33.3125 41 30.007813 41 26.40625C41 25.105469 40.792969 23.90625 40.59375 22.90625L39 22.90625C36.601563 22.90625 34.90625 23.8125 34.90625 23.8125C34.804688 24.011719 34.601563 24 34.5 24C34.101563 24 33.792969 23.800781 33.59375 23.5C33.292969 23 33.5 22.394531 34 22.09375C34.101563 22.09375 36.101563 21 39 21C42.699219 21 45.59375 20.585938 47.09375 19.6875C48.59375 18.789063 49.585938 17.789063 49.6875 17.6875C49.886719 17.488281 50 17.300781 50 17L50 14C50 13.601563 49.710938 13.199219 49.3125 13L43.8125 11.1875L41.59375 9.1875C41.492188 9.085938 41.289063 9 41.1875 9L37.59375 8.09375L34.8125 3.5C34.710938 3.199219 34.304688 3 33.90625 3 Z M 40 13C40.601563 13 41 13.398438 41 14C41 14.601563 40.601563 15 40 15C39.398438 15 39 14.601563 39 14C39 13.398438 39.398438 13 40 13 Z M 14 37L14 39C14 39.800781 13.800781 40.613281 13.5 41.3125C14.199219 42.414063 15.300781 43 16.5 43C16.699219 43 16.988281 43.007813 17.1875 42.90625C18.289063 42.605469 19.1875 41.90625 19.6875 40.90625C19.988281 40.207031 20.113281 39.300781 19.8125 38.5C17.914063 38.101563 16.210938 37.398438 15.3125 37Z" />
</svg>