<?xml version="1.0" encoding="utf-8"?>
<svg xmlns="http://www.w3.org/2000/svg" viewBox="0 0 50 50" width="515" height="515">
  <path d="M2 11 A 1.0001 1.0001 0 0 0 1 12L1 38 A 1.0001 1.0001 0 0 0 2 39L48 39 A 1.0001 1.0001 0 0 0 49 38L49 12 A 1.0001 1.0001 0 0 0 48 11L2 11 z M 16 13L18 13L18 37L16 37L16 13 z M 32 13L34 13L34 37L32 37L32 13 z M 9 18C12.09 18 14 20.570234 14 24.990234C14 29.390234 12.12 32 9 32C5.88 32 4 29.400469 4 24.980469C4 20.570469 5.9 18 9 18 z M 25 18C28.09 18 30 20.570234 30 24.990234C30 29.390234 28.12 32 25 32C21.88 32 20 29.400469 20 24.980469C20 20.570469 21.9 18 25 18 z M 41 18C44.09 18 46 20.570234 46 24.990234C46 29.390234 44.12 32 41 32C37.88 32 36 29.400469 36 24.980469C36 20.570469 37.9 18 41 18 z M 9 20.279297C7.57 20.279297 6.6699219 21.890469 6.6699219 24.980469C6.6699219 28.090469 7.56 29.730469 9 29.730469C10.45 29.730469 11.330078 28.100469 11.330078 24.980469C11.330078 21.880469 10.44 20.279297 9 20.279297 z M 25 20.279297C24.6425 20.279297 24.318672 20.380859 24.033203 20.580078C23.462266 20.978516 23.045469 21.770469 22.832031 22.941406C22.778672 23.234141 22.73834 23.550879 22.710938 23.890625C22.683535 24.230371 22.669922 24.594219 22.669922 24.980469C22.669922 25.369219 22.683789 25.733691 22.710938 26.076172C22.738086 26.418652 22.779062 26.739609 22.832031 27.035156C22.937969 27.62625 23.093672 28.122109 23.294922 28.521484C23.395547 28.721172 23.508398 28.896113 23.630859 29.046875C23.75332 29.197637 23.886328 29.324609 24.029297 29.425781C24.172266 29.526953 24.32418 29.603379 24.486328 29.654297C24.648477 29.705215 24.82 29.730469 25 29.730469C25.90625 29.730469 26.589355 29.092773 26.974609 27.853516C27.128711 27.357812 27.235273 26.766406 27.289062 26.080078C27.315957 25.736914 27.330078 25.370469 27.330078 24.980469C27.330078 24.592969 27.316211 24.229102 27.289062 23.888672C27.261914 23.548242 27.220938 23.230469 27.167969 22.9375C27.115 22.644531 27.050117 22.375977 26.972656 22.130859C26.895195 21.885742 26.805703 21.663672 26.705078 21.466797C26.503828 21.073047 26.256641 20.776563 25.970703 20.578125C25.827734 20.478906 25.67582 20.405273 25.513672 20.355469C25.351523 20.305664 25.18 20.279297 25 20.279297 z M 41 20.279297C39.569 20.279297 38.669922 21.885516 38.669922 24.978516C38.669922 28.088516 39.56 29.730469 41 29.730469C42.449 29.731469 43.330078 28.097516 43.330078 24.978516C43.330078 21.877516 42.441 20.279297 41 20.279297 z" />
</svg>