<?xml version="1.0" encoding="utf-8"?>
<svg xmlns="http://www.w3.org/2000/svg" viewBox="0 0 50 50" width="515" height="515">
  <path d="M25 1C19.82 1 15.550781 4.95 15.050781 10C12.970781 10 11 9.9657031 11 13.095703C11 13.245703 11.029609 13.404922 11.099609 13.544922C11.729609 14.794922 11.860547 15.804922 11.810547 16.294922C9.6405469 15.634922 6.9196875 16.800703 6.1796875 17.720703C5.8996875 18.060703 5.8291406 18.399453 5.8691406 18.689453C5.5991406 19.189453 4.7396094 20.360234 4.0996094 21.240234C1.3596094 24.950234 0.6028125 26.323281 1.3828125 27.363281C1.4928125 27.503281 1.6327344 27.613594 1.8027344 27.683594C5.9327344 29.393594 5.9190625 31.399844 6.0390625 33.339844C6.1190625 34.849844 6.2299219 36.729766 8.6699219 37.509766C9.3499219 37.849766 9.5104688 40.059375 9.2304688 41.859375C9.1804687 42.169375 9.2702344 42.479219 9.4902344 42.699219C13.460234 46.949219 14.379453 46.800391 14.939453 46.400391C15.579453 46.370391 17.796719 46.798437 19.136719 47.148438C22.516719 48.028438 23.647266 48.329609 24.197266 47.349609C24.247266 47.259609 24.31625 47.119219 24.40625 46.949219C24.76625 46.249219 25.819531 44.359453 26.769531 43.689453C27.869531 43.899453 31.800938 46.000391 33.960938 47.150391C36.320937 48.410391 37.190859 48.860938 37.630859 48.960938C37.750859 48.990937 37.87 49 38 49C39.11 49 40.4 48.026953 43.25 45.626953C43.37 45.526953 43.46 45.447969 43.5 45.417969C43.72 45.247969 43.880156 44.967266 43.910156 44.697266C43.980156 44.137266 43.629766 43.69625 43.009766 42.90625C42.729766 42.55625 42.520625 41.800469 42.390625 41.480469C42.540625 40.650469 44.194922 37.554063 45.294922 35.664062C47.874922 31.194063 48.345781 30.334922 47.675781 29.544922C47.585781 29.434922 47.465937 29.343203 47.335938 29.283203C44.765937 28.103203 44.420859 23.660156 44.380859 22.160156C44.770859 21.970156 45.231875 21.824531 45.671875 21.644531C47.251875 20.994531 47.782891 20.760391 47.962891 20.150391C48.932891 16.830391 49.572266 13.526953 46.822266 12.376953C45.892266 11.996953 44.579688 12.135703 42.179688 12.595703C41.309688 12.755703 40.42 13.170469 39.75 13.230469L37.880859 10.439453C37.690859 10.169453 37.380781 10 37.050781 10L34.949219 10C34.449219 4.95 30.18 1 25 1 z M 25 3C29.41 3 33 6.59 33 11C33 15.67 27.15 23.630625 25 26.390625C22.21 22.770625 17 15.15 17 11C17 6.59 20.59 3 25 3 z M 25 7C22.802706 7 21 8.8027056 21 11C21 13.197294 22.802706 15 25 15C27.197294 15 29 13.197294 29 11C29 8.8027056 27.197294 7 25 7 z M 25 9C26.116414 9 27 9.8835859 27 11C27 12.116414 26.116414 13 25 13C23.883586 13 23 12.116414 23 11C23 9.8835859 23.883586 9 25 9 z M 17.5 27C18.88 27 20 28.12 20 29.5C20 30.88 18.88 32 17.5 32C16.12 32 15 30.88 15 29.5C15 28.12 16.12 27 17.5 27 z" />
</svg>