<?xml version="1.0" encoding="utf-8"?>
<svg xmlns="http://www.w3.org/2000/svg" viewBox="0 0 50 50" width="515" height="515">
  <path d="M4.0625 5C3.039063 5 1.988281 5.417969 1.1875 6.21875C-0.414063 7.820313 -0.414063 10.304688 1.1875 11.90625C1.585938 12.308594 2.789063 13.507813 3.1875 13.90625C4.085938 14.804688 5.394531 15.199219 6.59375 15L9.1875 17.59375L12.59375 14.21875L10 11.625C10.199219 10.425781 9.804688 9.117188 8.90625 8.21875L6.90625 6.21875C6.105469 5.417969 5.085938 5 4.0625 5 Z M 27.09375 5C25.492188 5 24.007813 5.613281 22.90625 6.8125L6.59375 23C5.394531 22.800781 4.085938 23.195313 3.1875 24.09375L1.1875 26.09375C-0.414063 27.695313 -0.414063 30.179688 1.1875 31.78125C2.789063 33.382813 5.304688 33.382813 6.90625 31.78125C7.304688 31.382813 8.507813 30.179688 8.90625 29.78125C9.804688 28.882813 10.199219 27.574219 10 26.375L31.40625 5 Z M 3.84375 7.53125C4.308594 7.457031 4.796875 7.609375 5.15625 8C5.347656 8.207031 6.464844 9.324219 6.65625 9.53125C7.136719 10.050781 7.085938 11.042969 6.5625 11.625C5.941406 12.203125 5.042969 12.152344 4.46875 11.53125C4.277344 11.324219 3.160156 10.238281 2.96875 10.03125C2.394531 9.410156 2.441406 8.511719 3.0625 7.9375C3.296875 7.722656 3.5625 7.578125 3.84375 7.53125 Z M 23 16L21 18L26 18L26 16 Z M 28 16L28 18L32 18L32 16 Z M 34 16L34 18L38 18L38 16 Z M 40 16L40 18L44 18L44 16 Z M 46 16L46 18L48 18L48 20L50 20L50 16 Z M 14 17.90625C14.605469 17.90625 15.09375 18.394531 15.09375 19C15.09375 19.605469 14.605469 20.09375 14 20.09375C13.394531 20.09375 12.90625 19.605469 12.90625 19C12.90625 18.394531 13.394531 17.90625 14 17.90625 Z M 18.8125 20.40625L15.46875 23.75L21.90625 30.1875C23.007813 31.386719 24.492188 32 26.09375 32L30.40625 32 Z M 48 22L48 26L50 26L50 22 Z M 5.6875 25.90625C6.0625 25.90625 6.449219 26.042969 6.75 26.34375C7.25 26.945313 7.25 27.9375 6.75 28.4375C6.550781 28.636719 5.386719 29.707031 5.1875 29.90625C4.585938 30.507813 3.695313 30.507813 3.09375 29.90625C2.492188 29.304688 2.492188 28.414063 3.09375 27.8125C3.292969 27.613281 4.457031 26.542969 4.65625 26.34375C4.957031 26.042969 5.3125 25.90625 5.6875 25.90625 Z M 12 27L10 31L10 32L12 32 Z M 48 28L48 32L50 32L50 28 Z M 10 34L10 38L12 38L12 34 Z M 48 34L48 38L50 38L50 34 Z M 10 40L10 44L14 44L14 42L12 42L12 40 Z M 48 40L48 42L46 42L46 44L50 44L50 40 Z M 16 42L16 44L20 44L20 42 Z M 22 42L22 44L26 44L26 42 Z M 28 42L28 44L32 44L32 42 Z M 34 42L34 44L38 44L38 42 Z M 40 42L40 44L44 44L44 42Z" />
</svg>