<?xml version="1.0" encoding="utf-8"?>
<svg xmlns="http://www.w3.org/2000/svg" viewBox="0 0 50 50" width="515" height="515">
  <path d="M11.15625 8.71875C4.285156 8.71875 0 12.90625 0 19.71875C0 19.734375 0 19.765625 0 19.78125C0 19.8125 0 19.84375 0 19.875C0 20.664063 0.195313 21.710938 0.4375 22.84375C0.632813 23.742188 0.878906 24.515625 1.09375 25.21875C0.910156 25.390625 0.742188 25.453125 0.5625 25.71875C0.191406 26.273438 -0.078125 27.09375 0.03125 28.03125C0.320313 30.472656 1.761719 31.382813 2.4375 31.75C2.664063 32.992188 3.246094 34.449219 4.25 35.96875C5.277344 37.523438 6.730469 38.980469 8.46875 39.875C8.488281 39.886719 8.511719 39.894531 8.53125 39.90625C9.207031 40.710938 10.230469 41.28125 11.375 41.28125C12.363281 41.28125 13.214844 40.8125 13.875 40.1875C15.839844 39.339844 17.394531 37.6875 18.53125 36C19.546875 34.492188 20.171875 33.027344 20.40625 31.78125C20.667969 31.648438 20.824219 31.628906 21.21875 31.25C21.867188 30.625 22.539063 29.578125 22.71875 28.0625C22.828125 27.148438 22.589844 26.347656 22.25 25.78125C22.089844 25.515625 21.925781 25.429688 21.75 25.25C22.226563 23.648438 22.71875 21.328125 22.71875 18.75C22.71875 17.476563 22.433594 15.910156 21.5625 14.53125C21.332031 14.164063 21.023438 13.832031 20.6875 13.53125C20.015625 12.671875 19.035156 12.097656 17.625 12C17.332031 11.5625 16.796875 10.816406 15.90625 10.15625C15.839844 10.101563 15.757813 10.050781 15.6875 10C15.648438 9.976563 15.601563 9.960938 15.5625 9.9375C14.695313 9.328125 13.503906 8.828125 11.875 8.75C11.636719 8.734375 11.414063 8.71875 11.15625 8.71875 Z M 33.625 9C28.925781 9 25.488281 11.113281 23.34375 13.625C24.265625 15.148438 24.71875 16.976563 24.71875 18.75C24.71875 21.128906 24.324219 23.296875 23.96875 24.75C24.589844 25.792969 24.867188 27.027344 24.71875 28.28125C24.425781 30.753906 23.171875 32.242188 22.15625 33.0625C21.835938 34.070313 21.304688 35.238281 20.59375 36.40625C22.585938 37.015625 26.121094 37.988281 28.59375 38C30.132813 39.855469 32.03125 41 34 41C35.976563 41 37.863281 39.835938 39.40625 37.96875C39.449219 37.976563 39.484375 38 39.53125 38C45.464844 38 49.097656 37.011719 49.25 36.96875C49.601563 36.871094 49.886719 36.574219 49.96875 36.21875C50.050781 35.863281 49.929688 35.492188 49.65625 35.25C47.472656 33.308594 47.917969 30.902344 48.46875 27.84375C48.734375 26.359375 49 24.820313 49 23.1875C49 16.398438 45.832031 12.273438 40.5 12.03125C39.710938 11.089844 37.539063 9 33.625 9 Z M 16.15625 17.5C16.824219 18.566406 17.875 20.59375 17.875 22.75C17.886719 23.855469 18.3125 25.636719 19.71875 25.9375C19.804688 26.121094 19.949219 26.273438 20.125 26.375C20.179688 26.410156 20.386719 26.570313 20.53125 26.8125C20.675781 27.054688 20.804688 27.34375 20.75 27.8125C20.625 28.871094 20.183594 29.453125 19.8125 29.8125C19.441406 30.171875 19.1875 30.25 19.1875 30.25C18.824219 30.382813 18.570313 30.710938 18.53125 31.09375C18.460938 31.773438 17.867188 33.402344 16.875 34.875C15.882813 36.347656 14.488281 37.726563 13.0625 38.34375C12.917969 38.40625 12.789063 38.503906 12.6875 38.625C12.363281 39.023438 11.914063 39.28125 11.375 39.28125C10.832031 39.28125 10.355469 39.023438 10.03125 38.625C9.929688 38.503906 9.800781 38.40625 9.65625 38.34375C8.246094 37.726563 6.910156 36.347656 5.9375 34.875C4.964844 33.402344 4.355469 31.78125 4.28125 31.09375C4.242188 30.710938 3.988281 30.382813 3.625 30.25C3.625 30.25 2.246094 29.902344 2 27.8125C1.949219 27.367188 2.058594 27.082031 2.21875 26.84375C2.378906 26.605469 2.617188 26.4375 2.71875 26.375C3.019531 26.1875 3.195313 25.855469 3.1875 25.5C3.722656 24.738281 3.972656 23.519531 4.125 22.75C4.554688 20.605469 6.917969 20 10.3125 20C13.511719 20 15.308594 18.507813 16.15625 17.5 Z M 38 19C39.035156 20.113281 41 23.511719 41 27.28125C41 33.777344 37.171875 39 34 39C30.828125 39 27 33.777344 27 27.28125C27 24.839844 28.40625 23.398438 31.0625 22.8125C31.667969 22.679688 32.300781 22.523438 32.875 22.34375C35.5 21.515625 37.140625 20.011719 38 19 Z M 7 26C6.449219 26 6 26.449219 6 27C6 27.550781 6.449219 28 7 28C7.550781 28 8 27.550781 8 27C8 26.449219 7.550781 26 7 26 Z M 16 26C15.449219 26 15 26.449219 15 27C15 27.550781 15.449219 28 16 28C16.550781 28 17 27.550781 17 27C17 26.449219 16.550781 26 16 26 Z M 30 27C29.449219 27 29 27.449219 29 28C29 28.550781 29.449219 29 30 29C30.550781 29 31 28.550781 31 28C31 27.449219 30.550781 27 30 27 Z M 38 27C37.449219 27 37 27.449219 37 28C37 28.550781 37.449219 29 38 29C38.550781 29 39 28.550781 39 28C39 27.449219 38.550781 27 38 27Z" />
</svg>