<?xml version="1.0" encoding="utf-8"?>
<svg xmlns="http://www.w3.org/2000/svg" viewBox="0 0 50 50" width="515" height="515">
  <path d="M25 1C24.7825 1 24.565859 1.0709375 24.380859 1.2109375L1.3808594 19.210938C0.95085938 19.550937 0.8709375 20.179141 1.2109375 20.619141C1.5509375 21.049141 2.1791406 21.129063 2.6191406 20.789062L4 19.710938L4 46C4 46.55 4.45 47 5 47L45 47C45.55 47 46 46.55 46 46L46 19.710938L47.380859 20.789062C47.570859 20.929063 47.78 21 48 21C48.3 21 48.589063 20.869141 48.789062 20.619141C49.129063 20.179141 49.049141 19.550937 48.619141 19.210938L25.619141 1.2109375C25.434141 1.0709375 25.2175 1 25 1 z M 25 16.400391C25.56 17.120391 26.240938 17.969141 26.460938 18.869141C27.900938 17.779141 29.600938 17.830547 31.210938 18.560547C31.820937 18.840547 32.380234 19.219531 32.990234 19.519531C33.750234 19.879531 34.440938 19.809531 35.210938 20.019531C36.170938 20.289531 36.609219 22.200234 36.949219 22.990234C37.769219 24.850234 38.580625 26.719844 39.390625 28.589844C39.890625 29.719844 40.560156 30.890078 40.910156 32.080078C41.250156 33.230078 40.550469 34.509062 39.730469 35.289062C38.490469 36.489063 36.7 37 35 37C32.57 37 29.359297 35.740703 29.029297 32.970703C28.909297 31.920703 29.629297 30.840156 30.029297 29.910156C31.199297 27.220156 32.369063 24.520078 33.539062 21.830078C31.929063 21.470078 29.840625 19.350156 28.140625 20.160156C27.800625 20.310156 27.130703 20.779141 26.970703 21.119141C26.810703 21.439141 27.049219 21.970391 26.949219 22.400391C26.759219 23.310391 25.94 24 25 24C24.11 24 23.310312 23.379297 23.070312 22.529297C22.950312 22.099297 23.240391 21.580234 23.150391 21.240234C23.070391 20.920234 22.240703 20.360937 21.970703 20.210938C20.240703 19.290937 18.110937 21.460078 16.460938 21.830078C17.540937 24.310078 18.609453 26.789531 19.689453 29.269531C20.089453 30.189531 20.639922 31.139609 20.919922 32.099609C21.559922 34.319609 19.030703 36.159453 17.220703 36.689453C14.830703 37.389453 11.739766 36.969297 10.009766 35.029297C9.0597656 33.959297 8.809375 32.730938 9.359375 31.460938C10.629375 28.530938 11.899687 25.609453 13.179688 22.689453C13.549687 21.829453 13.880625 20.279766 14.890625 20.009766C15.690625 19.799766 16.360859 19.839219 17.130859 19.449219C17.690859 19.169219 18.219063 18.820547 18.789062 18.560547C20.399062 17.830547 22.099063 17.779141 23.539062 18.869141C23.759062 17.969141 24.44 17.120391 25 16.400391 z M 15 25.509766C13.91 28.009766 12.820234 30.5 11.740234 33L18.259766 33C17.169766 30.5 16.09 28.009766 15 25.509766 z M 35 25.509766C33.91 28.009766 32.820234 30.5 31.740234 33L38.259766 33C37.169766 30.5 36.09 28.009766 35 25.509766 z" />
</svg>