<?xml version="1.0" encoding="utf-8"?>
<svg xmlns="http://www.w3.org/2000/svg" viewBox="0 0 50 50" width="515" height="515">
  <path d="M5.101563 3C3.941406 3 3 3.941406 3 5.101563L3 44.902344C3 46.058594 3.941406 47 5.101563 47L15 47C16.105469 47 17 46.105469 17 45L17 5.101563C17 3.941406 16.058594 3 14.902344 3 Z M 35.097656 3C33.941406 3 33 3.941406 33 5.101563L33 30.265625C34.972656 28.847656 37.382813 28 40 28C42.617188 28 45.027344 28.847656 47 30.265625L47 5.101563C47 3.941406 46.058594 3 44.902344 3 Z M 6 11L14 11C14.554688 11 15 11.449219 15 12C15 12.550781 14.554688 13 14 13L6 13C5.445313 13 5 12.550781 5 12C5 11.449219 5.445313 11 6 11 Z M 36 11L44 11C44.554688 11 45 11.449219 45 12C45 12.550781 44.554688 13 44 13L36 13C35.445313 13 35 12.550781 35 12C35 11.449219 35.445313 11 36 11 Z M 20 12C18.894531 12 18 12.894531 18 14L18 45C18 46.105469 18.894531 47 20 47L30.265625 47C29.03125 45.28125 28.234375 43.230469 28.050781 41L21 41C20.449219 41 20 40.550781 20 40C20 39.449219 20.449219 39 21 39L28.050781 39C28.3125 35.855469 29.78125 33.0625 32 31.074219L32 14C32 12.894531 31.105469 12 30 12 Z M 21 20L29 20C29.554688 20 30 20.449219 30 21C30 21.550781 29.554688 22 29 22L21 22C20.445313 22 20 21.550781 20 21C20 20.449219 20.445313 20 21 20 Z M 40 30C34.488281 30 30 34.488281 30 40C30 45.511719 34.488281 50 40 50C45.511719 50 50 45.511719 50 40C50 34.488281 45.511719 30 40 30 Z M 40 32C44.429688 32 48 35.570313 48 40C48 44.429688 44.429688 48 40 48C35.570313 48 32 44.429688 32 40C32 35.570313 35.570313 32 40 32 Z M 6 34L14 34C14.554688 34 15 34.449219 15 35C15 35.550781 14.554688 36 14 36L6 36C5.445313 36 5 35.550781 5 35C5 34.449219 5.445313 34 6 34 Z M 44.238281 35.347656L38.847656 41.640625L35.597656 39.199219L34.402344 40.800781L39.152344 44.359375L45.761719 36.652344 Z M 6 38L14 38C14.554688 38 15 38.449219 15 39C15 39.550781 14.554688 40 14 40L6 40C5.445313 40 5 39.550781 5 39C5 38.449219 5.445313 38 6 38Z" />
</svg>