<?xml version="1.0" encoding="utf-8"?>
<svg xmlns="http://www.w3.org/2000/svg" viewBox="0 0 50 50" width="515" height="515">
  <path d="M38.84375 1.09375C38.515625 1.121094 38.226563 1.292969 38.0625 1.59375C36.257813 4.929688 34.34375 5.773438 31.875 5.96875C32.433594 6.730469 33.195313 7.4375 34.65625 8.09375C35.761719 8.589844 36.65625 9.191406 37.4375 9.875C39.054688 8.199219 39.949219 5.554688 39.9375 2.09375C39.9375 1.636719 39.632813 1.238281 39.1875 1.125C39.074219 1.097656 38.953125 1.085938 38.84375 1.09375 Z M 11.15625 1.125C11.046875 1.117188 10.921875 1.128906 10.8125 1.15625C10.371094 1.265625 10.0625 1.699219 10.0625 2.15625C10.050781 5.574219 10.914063 8.207031 12.53125 9.875C13.3125 9.1875 14.238281 8.589844 15.34375 8.09375C16.804688 7.4375 17.566406 6.730469 18.125 5.96875C15.660156 5.773438 13.742188 4.929688 11.9375 1.59375C11.773438 1.292969 11.484375 1.144531 11.15625 1.125 Z M 25 2.875C22.289063 2.875 21.449219 4.351563 20.625 5.78125C19.84375 7.132813 18.960938 8.660156 16.1875 9.90625C11.660156 11.941406 10.714844 16.160156 9.96875 21.4375C9.960938 21.484375 9.96875 21.515625 9.96875 21.5625C9.96875 27.625 12.472656 31.546875 14.3125 34.40625C15.175781 35.75 15.933594 36.925781 15.9375 37.625C15.917969 37.707031 15.859375 37.792969 15.8125 37.90625C15.523438 38.59375 15 39.882813 15 43.09375C15 46.023438 18.09375 48.96875 25 48.96875C31.90625 48.96875 35 46.023438 35 43.09375C35 39.882813 34.476563 38.59375 34.1875 37.90625C34.140625 37.792969 34.078125 37.695313 34.0625 37.65625C34.0625 36.914063 34.824219 35.75 35.6875 34.40625C37.527344 31.546875 40.03125 27.625 40.03125 21.5625C40.03125 21.515625 40.039063 21.484375 40.03125 21.4375C39.285156 16.160156 38.339844 11.941406 33.8125 9.90625C31.039063 8.660156 30.152344 7.132813 29.375 5.78125C28.550781 4.351563 27.710938 2.875 25 2.875 Z M 7.65625 10.375C4.855469 10.375 0.09375 10.96875 0.09375 13.21875C0.09375 15.117188 2.460938 18.824219 6.78125 18.84375C6.785156 18.84375 6.808594 18.84375 6.8125 18.84375C7.355469 18.84375 7.878906 18.804688 8.375 18.71875C8.910156 15.765625 9.722656 13.105469 11.4375 11.03125C10.386719 10.675781 9.148438 10.386719 7.875 10.375 Z M 42.125 10.375C40.855469 10.386719 39.613281 10.675781 38.5625 11.03125C40.28125 13.105469 41.089844 15.765625 41.625 18.71875C42.121094 18.804688 42.644531 18.84375 43.1875 18.84375L43.21875 18.84375C47.539063 18.824219 49.90625 15.117188 49.90625 13.21875C49.90625 10.96875 45.144531 10.375 42.34375 10.375 Z M 25 15.71875C27.195313 15.71875 30.234375 16.609375 32.21875 17.84375C32.921875 18.433594 33.113281 22.84375 32.75 23.90625C32.5 24.195313 31.816406 24.53125 31.21875 24.84375C29.945313 25.511719 28.371094 26.347656 27.78125 27.90625C27.738281 28.019531 27.71875 28.160156 27.71875 28.28125C27.71875 34.40625 29.042969 35.714844 30.78125 36.8125C31.390625 37.199219 31.835938 37.492188 32.1875 38.3125C32.230469 38.433594 32.292969 38.539063 32.34375 38.65625C32.589844 39.242188 32.984375 40.265625 33 42.9375C32.28125 42.664063 30.847656 42.316406 29.53125 43.09375C28.035156 43.972656 28 45.535156 28 46.6875C27.109375 46.847656 26.125 46.96875 25 46.96875C23.875 46.96875 22.890625 46.847656 22 46.6875C22 45.601563 21.992188 43.988281 20.46875 43.09375C19.148438 42.320313 17.71875 42.667969 17 42.9375C17.015625 40.265625 17.410156 39.273438 17.65625 38.6875C17.703125 38.574219 17.769531 38.429688 17.8125 38.3125C18.167969 37.480469 18.605469 37.203125 19.21875 36.8125C20.957031 35.714844 22.28125 34.410156 22.28125 28.28125C22.28125 28.160156 22.261719 28.019531 22.21875 27.90625C21.628906 26.34375 20.023438 25.511719 18.75 24.84375C18.152344 24.53125 17.5 24.195313 17.25 23.90625C16.886719 22.84375 17.058594 18.460938 17.75 17.875C19.746094 16.632813 22.804688 15.71875 25 15.71875 Z M 18.46875 44.625C18.792969 44.59375 19.125 44.628906 19.4375 44.8125C19.839844 45.050781 19.972656 45.464844 20 46.1875C19.019531 45.816406 18.25 45.34375 17.75 44.8125C17.933594 44.746094 18.1875 44.652344 18.46875 44.625 Z M 31.1875 44.625C31.601563 44.597656 31.996094 44.6875 32.25 44.78125C31.75 45.324219 31 45.808594 30 46.1875C30.027344 45.464844 30.128906 45.050781 30.53125 44.8125C30.738281 44.691406 30.964844 44.640625 31.1875 44.625Z" />
</svg>