<?xml version="1.0" encoding="utf-8"?>
<svg xmlns="http://www.w3.org/2000/svg" viewBox="0 0 50 50" width="515" height="515">
  <path d="M16.1875 10.09375C13.703125 10.09375 11.761719 11.226563 10.6875 13.3125C10.351563 13.960938 9.085938 17.183594 7.84375 20.4375L7.8125 20.4375C7.78125 20.515625 7.726563 20.59375 7.6875 20.6875C7.554688 20.992188 7.367188 21.421875 7.28125 21.90625C6.21875 24.703125 5.28125 27.234375 5.0625 27.8125L5 28L5 40C5 41.652344 6.347656 43 8 43L12 43C13.652344 43 15 41.652344 15 40L15 39.1875L35 39.6875L35 40C35 41.652344 36.347656 43 38 43L42 43C43.652344 43 45 41.652344 45 40C45 40 45 37.332031 45 37C45 32.902344 43.691406 31.570313 42.6875 31.15625L42.5 25.8125L39.21875 22.71875C39.992188 21.371094 41.273438 18.578125 39.65625 16.875C38.105469 15.242188 34.574219 14.960938 33.28125 14.90625C32.160156 13.832031 28.222656 11.035156 16.90625 10.125C16.664063 10.105469 16.414063 10.09375 16.1875 10.09375 Z M 16 12.09375C16.238281 12.085938 16.492188 12.105469 16.75 12.125C29.175781 13.125 32.019531 16.453125 32.03125 16.46875L32.3125 16.875L32.8125 16.875C34.398438 16.886719 37.257813 17.269531 38.1875 18.25C38.871094 18.96875 37.960938 21.097656 37.125 22.3125L36.625 23.03125L40.46875 26.625C40.390625 27.109375 40.191406 27.59375 39.78125 27.8125C39.359375 28.042969 38.050781 28.335938 35 26.21875C32.445313 21.1875 24.875 22.207031 18.78125 23.03125C16.527344 23.335938 14.402344 23.613281 12.9375 23.53125C9.890625 23.359375 9.359375 22.722656 9.28125 22.59375C9.25 22.542969 9.25 22.476563 9.25 22.40625C10.742188 18.492188 12.160156 14.847656 12.46875 14.25C13.175781 12.875 14.335938 12.144531 16 12.09375 Z M 5.09375 20C2.070313 20 1 21.859375 1 23.59375C1 24.4375 1.378906 25.796875 3.625 25.96875C4.039063 24.871094 4.679688 23.171875 5.375 21.34375C5.5 20.765625 5.679688 20.304688 5.8125 20 Z M 42.40625 21.375L42 22.5625L43.875 24.34375L44.46875 24.90625L44.5 25.75L44.59375 28.46875C45.164063 28.671875 45.65625 28.78125 46.09375 28.78125C47.125 28.78125 47.890625 28.238281 48.25 27.25C48.46875 26.648438 48.660156 25.722656 48.28125 24.75C47.886719 23.730469 47 22.972656 45.625 22.46875 Z M 11 28L15 28C16.65625 28 18 29.34375 18 31C18 32.65625 16.65625 34 15 34C13.324219 34 12.828125 33.574219 11.09375 32.59375C9.933594 31.9375 9 31.308594 9 30C9 28.894531 9.894531 28 11 28 Z M 34.625 30.53125C34.996094 30.523438 35.359375 30.589844 35.71875 30.71875C35.71875 30.71875 38.28125 32.0625 39.3125 31.75L39.28125 32.90625L40.4375 34C39.636719 35.386719 38.789063 35.726563 37.5625 35.9375L37.21875 34.9375L39.4375 34.1875L37.6875 33.875L38.1875 32.6875L36.59375 33.65625C36.582031 33.664063 36.570313 33.632813 36.5625 33.625L34.8125 31.625L35.3125 33.84375C35.316406 33.863281 35.296875 33.90625 35.28125 33.90625L32.75 33.90625L35.65625 35.09375C35.664063 35.097656 35.6875 35.085938 35.6875 35.09375L35.78125 36.21875C35.089844 36.292969 34.523438 36.25 33.65625 35.9375C32.164063 35.402344 31.425781 33.734375 32.03125 32.25C32.464844 31.1875 33.515625 30.550781 34.625 30.53125Z" />
</svg>