<?xml version="1.0" encoding="utf-8"?>
<svg xmlns="http://www.w3.org/2000/svg" viewBox="0 0 50 50" width="515" height="515">
  <path d="M24.984375 2.984375C24.433594 2.996094 23.992188 3.449219 24 4L24 6C23.996094 6.359375 24.183594 6.695313 24.496094 6.878906C24.808594 7.058594 25.191406 7.058594 25.503906 6.878906C25.816406 6.695313 26.003906 6.359375 26 6L26 4C26.003906 3.730469 25.898438 3.46875 25.707031 3.277344C25.515625 3.085938 25.253906 2.980469 24.984375 2.984375 Z M 8.992188 7.992188C8.582031 7.992188 8.21875 8.238281 8.0625 8.613281C7.910156 8.992188 8 9.421875 8.292969 9.707031L10.292969 11.707031C10.542969 11.96875 10.917969 12.074219 11.265625 11.980469C11.617188 11.890625 11.890625 11.617188 11.980469 11.265625C12.074219 10.917969 11.96875 10.542969 11.707031 10.292969L9.707031 8.292969C9.519531 8.097656 9.261719 7.992188 8.992188 7.992188 Z M 40.980469 7.992188C40.71875 7.996094 40.472656 8.105469 40.292969 8.292969L38.292969 10.292969C38.03125 10.542969 37.925781 10.917969 38.019531 11.265625C38.109375 11.617188 38.382813 11.890625 38.734375 11.980469C39.082031 12.074219 39.457031 11.96875 39.707031 11.707031L41.707031 9.707031C42.003906 9.417969 42.089844 8.980469 41.929688 8.601563C41.769531 8.21875 41.394531 7.976563 40.980469 7.992188 Z M 22 10C20.542969 10 19.222656 10.800781 18.527344 12.035156C18.351563 12.011719 18.175781 12 18 12C15.792969 12 14 13.792969 14 16C14 16.042969 14 16.085938 14 16.125C14.03125 16.390625 14.070313 16.496094 14.140625 16.710938C14.1875 16.851563 14.625 18 16 18C16.554688 18 17 18.449219 17 19C17 19.550781 16.554688 20 16 20C13.6875 20 12.523438 18.246094 12.234375 17.316406C12.214844 17.257813 12.226563 17.199219 12.21875 17.140625C11.472656 17.867188 11 18.878906 11 20C11 20.675781 11.167969 21.324219 11.484375 21.902344C10.566406 22.648438 10 23.78125 10 25C10 26.21875 10.566406 27.351563 11.484375 28.097656C11.167969 28.675781 11 29.324219 11 30C11 31.859375 12.273438 33.554688 14 34C14.050781 34 15.007813 34 15.5 33.519531C15.832031 33.203125 16 32.6875 16 32C16 31.449219 16.445313 31 17 31C17.554688 31 18 31.449219 18 32C18 33.265625 17.621094 34.269531 16.867188 34.984375C16.0625 35.742188 15.085938 35.929688 14.539063 35.96875C15.230469 37.175781 16.511719 38 18 38C18.175781 38 18.351563 37.988281 18.527344 37.964844C19.222656 39.199219 20.542969 40 22 40C22.492188 40 22.960938 39.898438 23.390625 39.722656C23.765625 39.570313 24 39.199219 24 38.796875L24 23C22.898438 23 22 23.898438 22 25C22 25.550781 21.554688 26 21 26C20.445313 26 20 25.550781 20 25C20 22.792969 21.792969 21 24 21L24 11.203125C24 10.796875 23.761719 10.425781 23.390625 10.277344C22.957031 10.101563 22.492188 10 22 10 Z M 27.980469 10C27.496094 10 27.039063 10.097656 26.613281 10.265625C26.238281 10.414063 26 10.789063 26 11.191406L26 26.558594C26.589844 26.210938 27.269531 26 28 26C28.554688 26 29 26.449219 29 27C29 27.550781 28.554688 28 28 28C26.898438 28 26 28.898438 26 30L26 38.808594C26 39.210938 26.238281 39.585938 26.613281 39.734375C27.039063 39.902344 27.496094 40 27.980469 40C29.4375 40 30.753906 39.199219 31.453125 37.964844C31.625 37.988281 31.804688 38 31.980469 38C34.1875 38 35.980469 36.207031 35.980469 34C35.980469 33.957031 35.980469 33.914063 35.980469 33.875C37.703125 33.429688 38.980469 31.859375 38.980469 30C38.980469 29.230469 38.441406 28.65625 38.304688 28.527344C38.105469 28.332031 37.027344 27.421875 35.683594 28.71875C35.488281 28.90625 35.234375 29 34.984375 29C34.722656 29 34.464844 28.898438 34.265625 28.695313C33.882813 28.296875 33.894531 27.664063 34.292969 27.28125C36.347656 25.292969 38.460938 26.078125 39.472656 26.894531C39.789063 26.324219 39.980469 25.679688 39.980469 25C39.980469 23.78125 39.414063 22.648438 38.496094 21.902344C38.8125 21.324219 38.980469 20.675781 38.980469 20C38.980469 18.882813 38.511719 17.871094 37.769531 17.144531C37.765625 17.171875 37.773438 17.199219 37.765625 17.222656C37.566406 18.183594 36.519531 20 34 20C33.445313 20 33 19.550781 33 19C33 18.449219 33.445313 18 34 18C35.796875 18 36 16.042969 36 16C36 13.792969 34.1875 12 31.980469 12C31.804688 12 31.625 12.011719 31.453125 12.035156C30.753906 10.800781 29.4375 10 27.980469 10 Z M 4 24C3.640625 23.996094 3.304688 24.183594 3.121094 24.496094C2.941406 24.808594 2.941406 25.191406 3.121094 25.503906C3.304688 25.816406 3.640625 26.003906 4 26L7 26C7.359375 26.003906 7.695313 25.816406 7.878906 25.503906C8.058594 25.191406 8.058594 24.808594 7.878906 24.496094C7.695313 24.183594 7.359375 23.996094 7 24 Z M 43 24C42.640625 23.996094 42.304688 24.183594 42.121094 24.496094C41.941406 24.808594 41.941406 25.191406 42.121094 25.503906C42.304688 25.816406 42.640625 26.003906 43 26L46 26C46.359375 26.003906 46.695313 25.816406 46.878906 25.503906C47.058594 25.191406 47.058594 24.808594 46.878906 24.496094C46.695313 24.183594 46.359375 23.996094 46 24 Z M 10.980469 37.988281C10.71875 37.996094 10.472656 38.105469 10.292969 38.292969L8.292969 40.292969C8.03125 40.542969 7.925781 40.917969 8.019531 41.265625C8.109375 41.617188 8.382813 41.890625 8.734375 41.980469C9.082031 42.074219 9.457031 41.96875 9.707031 41.707031L11.707031 39.707031C12.003906 39.417969 12.089844 38.980469 11.929688 38.601563C11.769531 38.21875 11.394531 37.976563 10.980469 37.988281 Z M 38.988281 37.988281C38.582031 37.992188 38.21875 38.238281 38.0625 38.613281C37.910156 38.992188 38 39.421875 38.292969 39.707031L40.292969 41.707031C40.542969 41.96875 40.917969 42.074219 41.265625 41.980469C41.617188 41.890625 41.890625 41.617188 41.980469 41.265625C42.074219 40.917969 41.96875 40.542969 41.707031 40.292969L39.707031 38.292969C39.519531 38.097656 39.261719 37.992188 38.988281 37.988281 Z M 24.984375 42.984375C24.433594 42.996094 23.992188 43.449219 24 44L24 46C23.996094 46.359375 24.183594 46.695313 24.496094 46.878906C24.808594 47.058594 25.191406 47.058594 25.503906 46.878906C25.816406 46.695313 26.003906 46.359375 26 46L26 44C26.003906 43.730469 25.898438 43.46875 25.707031 43.277344C25.515625 43.085938 25.253906 42.980469 24.984375 42.984375Z" />
</svg>