<?xml version="1.0" encoding="utf-8"?>
<svg xmlns="http://www.w3.org/2000/svg" viewBox="0 0 50 50" width="515" height="515">
  <path d="M44.25 1C43.039063 1 41.859375 1.496094 40.9375 2.40625L40.90625 2.40625L39.5 3.78125L33.25 10.03125L2.96875 10.03125C2.414063 10.03125 1.96875 10.480469 1.96875 11.03125L1.96875 47.03125C1.96875 47.582031 2.414063 48.03125 2.96875 48.03125L38.96875 48.03125C39.523438 48.03125 39.96875 47.582031 39.96875 47.03125L39.96875 16.75L46.28125 10.4375C46.320313 10.398438 46.371094 10.347656 46.4375 10.28125C46.566406 10.152344 46.730469 9.988281 46.90625 9.8125C47.253906 9.464844 47.59375 9.09375 47.59375 9.09375C49.441406 7.246094 49.46875 4.25 47.625 2.40625L47.625 2.375C46.699219 1.453125 45.46875 1 44.25 1 Z M 44.25 3C44.949219 3 45.644531 3.269531 46.1875 3.8125C47.261719 4.886719 47.25 6.574219 46.1875 7.65625L42.34375 3.8125C42.882813 3.285156 43.558594 3 44.25 3 Z M 40.90625 5.1875L44.8125 9.09375L22.21875 31.65625L18.34375 27.78125 Z M 16.9375 29.21875L20.78125 33.0625L15.96875 34.03125Z" />
</svg>