<?xml version="1.0" encoding="utf-8"?>
<svg xmlns="http://www.w3.org/2000/svg" viewBox="0 0 50 50" width="515" height="515">
  <path d="M5 0C2.242188 0 0 3.140625 0 7C0 10.859375 2.242188 14 5 14L33 14C33.554688 14 34 13.550781 34 13C34 12.449219 33.554688 12 33 12C31.402344 12 30 9.664063 30 7C30 6.757813 30.035156 6.503906 30.0625 6.25C30.117188 5.699219 30.214844 5.171875 30.375 4.6875C30.410156 4.574219 30.460938 4.484375 30.5 4.375C30.519531 4.332031 30.511719 4.261719 30.53125 4.21875C31.179688 2.457031 32.671875 0.53125 34.46875 0.1875C33.6875 0 33.355469 0 33 0 Z M 36.625 1.3125C33.816406 1.96875 32.839844 3.761719 32.40625 4.9375C32.390625 4.972656 32.390625 5.027344 32.375 5.0625C32.347656 5.140625 32.316406 5.191406 32.28125 5.3125C32.160156 5.675781 32.074219 6.058594 32.03125 6.46875C32.007813 6.683594 32 6.859375 32 7C32 8.71875 32.746094 9.820313 33.0625 10C34.683594 10.035156 36 11.367188 36 13C36 14.652344 34.652344 16 33 16L8 16L8 41C8 46.632813 12.808594 50 17 50L40 50C45.511719 50 50 45.511719 50 40C50 34.488281 45.511719 30 40 30L40 9C40 5.425781 38.550781 2.78125 36.625 1.3125 Z M 15 21L17 21C17.550781 21 18 21.449219 18 22C18 22.550781 17.550781 23 17 23L15 23C14.449219 23 14 22.550781 14 22C14 21.449219 14.449219 21 15 21 Z M 21 21L33 21C33.554688 21 34 21.449219 34 22C34 22.550781 33.554688 23 33 23L21 23C20.449219 23 20 22.550781 20 22C20 21.449219 20.449219 21 21 21 Z M 15 27L17 27C17.550781 27 18 27.445313 18 28C18 28.554688 17.550781 29 17 29L15 29C14.449219 29 14 28.554688 14 28C14 27.445313 14.449219 27 15 27 Z M 21 27L33 27C33.554688 27 34 27.445313 34 28C34 28.554688 33.554688 29 33 29L21 29C20.449219 29 20 28.554688 20 28C20 27.445313 20.449219 27 21 27 Z M 40 32C44.429688 32 48 35.570313 48 40C48 44.429688 44.429688 48 40 48C35.570313 48 32 44.429688 32 40C32 35.570313 35.570313 32 40 32 Z M 15 33L17 33C17.550781 33 18 33.445313 18 34C18 34.554688 17.550781 35 17 35L15 35C14.449219 35 14 34.554688 14 34C14 33.445313 14.449219 33 15 33 Z M 21 33L32.875 33C32.289063 33.59375 31.796875 34.273438 31.375 35L21 35C20.449219 35 20 34.554688 20 34C20 33.445313 20.449219 33 21 33 Z M 39 35L39 39L35 39L35 41L39 41L39 45L41 45L41 41L45 41L45 39L41 39L41 35 Z M 15 39L17 39C17.550781 39 18 39.445313 18 40C18 40.554688 17.550781 41 17 41L15 41C14.449219 41 14 40.554688 14 40C14 39.445313 14.449219 39 15 39 Z M 21 39L30.0625 39C30.03125 39.324219 30 39.664063 30 40C30 40.335938 30.03125 40.675781 30.0625 41L21 41C20.449219 41 20 40.554688 20 40C20 39.445313 20.449219 39 21 39Z" />
</svg>