<?xml version="1.0" encoding="utf-8"?>
<svg xmlns="http://www.w3.org/2000/svg" viewBox="0 0 50 50" width="515" height="515">
  <path d="M38.265625 1.972656C37.234375 1.996094 36.699219 2.398438 36.699219 2.398438L12.464844 26.734375C11.863281 27.335938 11.863281 28.335938 12.464844 28.9375L21.0625 37.535156C21.664063 38.136719 22.664063 38.136719 23.265625 37.535156L47.597656 13.300781C47.597656 13.300781 49.699219 10.5 44.597656 5.398438C41.730469 2.53125 39.589844 1.941406 38.265625 1.972656 Z M 13.5 2C13.097656 2 12.710938 2.046875 12.332031 2.125C11.636719 3.046875 11.25 5.871094 13.402344 7.9375C15.457031 9.914063 17.855469 9.820313 18.6875 9.316406C18.882813 8.746094 19 8.136719 19 7.5C19 4.46875 16.53125 2 13.5 2 Z M 10.101563 3.183594C8.824219 4.191406 8 5.75 8 7.5C8 10.53125 10.46875 13 13.5 13C15.089844 13 16.523438 12.316406 17.53125 11.234375C17.253906 11.246094 16.980469 11.253906 16.710938 11.253906C15.25 11.253906 13.640625 10.710938 12.128906 9.261719C10.242188 7.449219 9.792969 5.136719 10.101563 3.183594 Z M 12.007813 31.691406L12.007813 32.792969C12.007813 33.894531 11.507813 34.894531 10.808594 35.59375L2.398438 44C1.800781 44.601563 1.800781 45.699219 2.398438 46.300781L3.699219 47.597656C4.300781 48.199219 5.398438 48.199219 6 47.597656L14.40625 39.191406C15.207031 38.394531 16.207031 37.992188 17.308594 37.992188L18.40625 37.992188Z" />
</svg>