<?xml version="1.0" encoding="utf-8"?>
<svg xmlns="http://www.w3.org/2000/svg" viewBox="0 0 50 50" width="515" height="515">
  <path d="M9 3C8.449219 3 8 3.449219 8 4L8 41C8 41.554688 8.449219 42 9 42L46 42C46.554688 42 47 41.554688 47 41L47 35C47 34.445313 46.554688 34 46 34L16 34L16 4C16 3.449219 15.550781 3 15 3 Z M 4 8C3.449219 8 3 8.449219 3 9L3 15C3 15.550781 3.449219 16 4 16L6 16L6 8 Z M 18 8L18 16L34 16L34 32L42 32L42 9C42 8.449219 41.554688 8 41 8 Z M 34 44L34 46C34 46.554688 34.445313 47 35 47L41 47C41.554688 47 42 46.554688 42 46L42 44Z" />
</svg>