<?xml version="1.0" encoding="utf-8"?>
<svg xmlns="http://www.w3.org/2000/svg" viewBox="0 0 50 50" width="515" height="515">
  <path d="M25 6C22.800781 6 21 7.800781 21 10C21 11.183594 21.546875 12.234375 22.375 12.96875L15.5 24.875L8.71875 21.46875C8.898438 21.015625 9 20.515625 9 20C9 17.800781 7.199219 16 5 16C2.800781 16 1 17.800781 1 20C1 22.175781 2.769531 23.964844 4.9375 24L7.75 36L42.25 36L45.0625 24C47.230469 23.964844 49 22.175781 49 20C49 17.800781 47.199219 16 45 16C42.800781 16 41 17.800781 41 20C41 20.46875 41.097656 20.925781 41.25 21.34375L34.40625 24.78125L27.59375 13C28.441406 12.265625 29 11.199219 29 10C29 7.800781 27.199219 6 25 6 Z M 25 8C26.117188 8 27 8.882813 27 10C27 11.117188 26.117188 12 25 12C23.882813 12 23 11.117188 23 10C23 8.882813 23.882813 8 25 8 Z M 5 18C6.117188 18 7 18.882813 7 20C7 21.117188 6.117188 22 5 22C3.882813 22 3 21.117188 3 20C3 18.882813 3.882813 18 5 18 Z M 45 18C46.117188 18 47 18.882813 47 20C47 21.117188 46.117188 22 45 22C43.882813 22 43 21.117188 43 20C43 18.882813 43.882813 18 45 18 Z M 8 38L8 43C8 43.554688 8.449219 44 9 44L41 44C41.554688 44 42 43.554688 42 43L42 38Z" />
</svg>