<?xml version="1.0" encoding="utf-8"?>
<svg xmlns="http://www.w3.org/2000/svg" viewBox="0 0 50 50" width="515" height="515">
  <path d="M18 2C15.242188 2 13 4.242188 13 7C13 9.757813 15.242188 12 18 12C18.402344 12 18.78125 11.933594 19.15625 11.84375L20 13.625C16.417969 15.703125 14 19.570313 14 24C14 25.152344 14.164063 26.257813 14.46875 27.3125L11.21875 28.3125C10.328125 26.929688 8.765625 26 7 26C4.242188 26 2 28.242188 2 31C2 33.757813 4.242188 36 7 36C9.757813 36 12 33.757813 12 31C12 30.71875 11.980469 30.453125 11.9375 30.1875L15.1875 29.1875C16.71875 32.359375 19.609375 34.75 23.09375 35.625L22.78125 38C20.128906 38.117188 18 40.316406 18 43C18 45.757813 20.242188 48 23 48C25.757813 48 28 45.757813 28 43C28 40.863281 26.640625 39.058594 24.75 38.34375L25.0625 35.9375C25.375 35.960938 25.679688 36 26 36C29.347656 36 32.351563 34.59375 34.53125 32.375L38.59375 35.6875C38.226563 36.382813 38 37.160156 38 38C38 40.757813 40.242188 43 43 43C45.757813 43 48 40.757813 48 38C48 35.242188 45.757813 33 43 33C41.792969 33 40.707031 33.441406 39.84375 34.15625L35.84375 30.84375C37.195313 28.902344 38 26.539063 38 24C38 21.050781 36.929688 18.34375 35.15625 16.25L38.25 13.1875C39.042969 13.710938 39.980469 14 41 14C43.757813 14 46 11.757813 46 9C46 6.242188 43.757813 4 41 4C38.242188 4 36 6.242188 36 9C36 10.019531 36.289063 10.957031 36.8125 11.75L33.75 14.84375C31.65625 13.070313 28.949219 12 26 12C24.523438 12 23.121094 12.261719 21.8125 12.75L20.96875 11C22.1875 10.085938 23 8.636719 23 7C23 4.242188 20.757813 2 18 2 Z M 25.125 17L26.875 17L26.875 18.75C27.621094 18.875 28.289063 19.230469 28.78125 19.78125C29.363281 20.433594 29.679688 21.363281 29.625 22.1875L29.59375 22.625L27.84375 22.625L27.8125 22.15625C27.800781 21.328125 27.503906 20.34375 26.03125 20.34375C24.761719 20.34375 24.15625 20.84375 24.15625 21.9375C24.15625 22.851563 24.964844 23.074219 26.375 23.40625C27.945313 23.777344 29.878906 24.265625 29.875 26.65625C29.875 27.117188 29.730469 29.351563 26.875 29.78125L26.875 31L25.09375 31L25.09375 29.75C23.128906 29.402344 22.152344 28.199219 22.09375 26.0625L22.09375 25.59375L23.9375 25.59375L23.90625 26.0625C23.890625 26.726563 24.054688 27.234375 24.40625 27.59375C25 28.199219 25.960938 28.21875 26 28.21875C27.820313 28.21875 28.09375 27.238281 28.09375 26.65625C28.09375 25.683594 27.285156 25.449219 25.875 25.125C24.304688 24.765625 22.34375 24.320313 22.34375 21.84375C22.34375 21.5625 22.445313 19.148438 25.125 18.75Z" />
</svg>