<?xml version="1.0" encoding="utf-8"?>
<svg xmlns="http://www.w3.org/2000/svg" viewBox="0 0 50 50" width="515" height="515">
  <path d="M19 2C18.480469 2 18.046875 2.398438 18.003906 2.917969L17.003906 14.917969C16.960938 15.425781 17.304688 15.882813 17.800781 15.980469L21 16.621094L21 16C21 15.117188 21.390625 14.328125 22 13.78125L22 9L20 9L20 7L26 7L26 9L24 9L24 13L28.839844 13L27.996094 2.917969C27.953125 2.398438 27.519531 2 27 2 Z M 14 15C11.242188 15 9 17.242188 9 20L9 22.828125C8.621094 23.859375 6.511719 29.730469 6.082031 33.003906C6.050781 33 6.015625 33 5.984375 33C5.707031 33.003906 5.449219 33.121094 5.261719 33.328125C5.078125 33.53125 4.984375 33.800781 5.003906 34.078125L6.003906 47.078125C6.042969 47.597656 6.476563 48 7 48L30.066406 48C27.5 46.070313 23.675781 42.441406 21.933594 37L14.300781 37C13.90625 37.609375 13.390625 38.484375 12.882813 39.53125C12.835938 39.445313 12.777344 39.363281 12.707031 39.292969L11 37.585938L11 36L14 28L14.875 35L21.40625 35C21.152344 33.75 21 32.417969 21 31L21 18.65625L17.410156 17.941406C16.367188 17.734375 15.5625 16.996094 15.207031 16.058594C15.203125 16.046875 15.199219 16.039063 15.195313 16.03125C15.160156 15.9375 15.136719 15.839844 15.109375 15.742188C15.050781 15.503906 15.015625 15.257813 15.015625 15.003906C15.007813 15.003906 15.003906 15 15 15 Z M 24 15C23.449219 15 23 15.449219 23 16L23 31C23 42.226563 33.105469 47.660156 33.535156 47.886719C33.679688 47.960938 33.839844 48 34 48C34.152344 48 34.304688 47.964844 34.449219 47.894531C34.878906 47.679688 45 42.484375 45 31L45 16C45 15.449219 44.550781 15 44 15 Z M 14 17L14.898438 17C14.4375 19.449219 12.382813 20.835938 11 21.511719L11 20C11 18.347656 12.347656 17 14 17 Z M 32 19L36 19C36 19 35 19.582031 35 21L35 26L39 26C40.4375 26 41 25 41 25L41 29C41 29 40.417969 28 39 28L35 28L35 41C35 42.417969 36 43 36 43L32 43C32 43 33 42.4375 33 41L33 28L29 28C27.582031 28 27 29 27 29L27 25C27 25 27.5625 26 29 26L33 26L33 21C33 19.5625 32 19 32 19 Z M 7.203125 36.617188L10.9375 40.355469L10.132813 46L7.925781 46Z" />
</svg>