<?xml version="1.0" encoding="utf-8"?>
<svg xmlns="http://www.w3.org/2000/svg" viewBox="0 0 50 50" width="515" height="515">
  <path d="M47.336,30.475C47.773,28.69,48,26.85,48,25C48,12.318,37.683,2,25,2S2,12.318,2,25s10.317,23,23,23 c7.03,0,13.53-3.132,17.924-8.598C43.531,39.774,44.237,40,45,40c2.206,0,4-1.794,4-4C49,33.698,48.304,31.89,47.336,30.475z M10.314,15.272C10.413,15.179,12.765,13,16,13s5.587,2.179,5.686,2.272c0.402,0.378,0.421,1.011,0.043,1.414 C21.531,16.895,21.266,17,21,17c-0.245,0-0.49-0.089-0.683-0.27C20.298,16.713,18.426,15,16,15s-4.298,1.713-4.317,1.73 c-0.403,0.374-1.035,0.354-1.412-0.049C9.895,16.279,9.913,15.649,10.314,15.272z M12,27.5c0,1.381-1.119,2.5-2.5,2.5 S7,28.881,7,27.5C7,22,13,20,13,20S12,23.425,12,27.5z M25,33c-5,0-11,1-11,1s1-11,11-11s11,11,11,11S30,33,25,33z M39.728,16.686 C39.53,16.895,39.265,17,38.999,17c-0.246,0-0.492-0.09-0.686-0.272C38.297,16.713,36.425,15,34,15c-2.426,0-4.298,1.713-4.317,1.73 c-0.403,0.374-1.035,0.354-1.412-0.049c-0.376-0.402-0.357-1.032,0.044-1.41C28.413,15.179,30.765,13,34,13 c3.234,0,5.586,2.179,5.685,2.272C40.087,15.65,40.105,16.283,39.728,16.686z M45,38c-1.103,0-2-0.897-2-2 c0-3.193-0.327-5.722-0.614-7.329C44.248,29.67,47,31.849,47,36C47,37.103,46.103,38,45,38z" />
</svg>