<?xml version="1.0" encoding="utf-8"?>
<svg xmlns="http://www.w3.org/2000/svg" viewBox="0 0 50 50" width="515" height="515">
  <path d="M14 0C6.28125 0 0 6.28125 0 14C0 19.953125 3.75 25.042969 9 27.0625L9 43L17 43L17 39L27.90625 39L29 41L27.90625 43L48 43L48 17C48 16.449219 47.554688 16 47 16L27.84375 16C27.9375 15.34375 28 14.679688 28 14C28 6.28125 21.71875 0 14 0 Z M 14 2C20.617188 2 26 7.382813 26 14C26 20.617188 20.617188 26 14 26C7.382813 26 2 20.617188 2 14C2 7.382813 7.382813 2 14 2 Z M 14 5C13.449219 5 13 5.449219 13 6L13 14C13 14.011719 13 14.019531 13 14.03125C13.003906 14.238281 13.089844 14.425781 13.21875 14.59375C13.265625 14.65625 13.316406 14.699219 13.375 14.75C13.390625 14.765625 13.386719 14.800781 13.40625 14.8125L17.40625 17.8125C17.585938 17.949219 17.792969 18 18 18C18.304688 18 18.617188 17.855469 18.8125 17.59375C19.144531 17.152344 19.035156 16.519531 18.59375 16.1875L15 13.5L15 6C15 5.449219 14.550781 5 14 5 Z M 8 45C7.449219 45 7 45.445313 7 46L7 49C7 49.554688 7.449219 50 8 50L49 50C49.554688 50 50 49.554688 50 49L50 46C50 45.445313 49.554688 45 49 45Z" />
</svg>