<?xml version="1.0" encoding="utf-8"?>
<svg xmlns="http://www.w3.org/2000/svg" viewBox="0 0 50 50" width="515" height="515">
  <path d="M16 0C7.179688 0 0 7.179688 0 16C0 24.820313 7.179688 32 16 32C16.039063 32 16.085938 32 16.125 32C16.46875 28.929688 17.589844 26.09375 19.28125 23.6875C18.613281 23.941406 17.886719 24.09375 17.09375 24.09375C13.492188 24.09375 11.386719 21.988281 10.6875 17.6875L9 17.6875L9.59375 16.40625L10.59375 16.40625L10.59375 15.3125L9 15.3125L9.59375 14L10.8125 14C11.210938 12.199219 11.8125 10.789063 12.8125 9.6875C13.914063 8.488281 15.292969 7.90625 17.09375 7.90625C18.394531 7.90625 19.792969 8.414063 21.09375 9.3125L20 11C19 10 17.914063 9.5 16.8125 9.5C15.710938 9.5 14.792969 10.007813 14.09375 10.90625C13.492188 11.707031 13.105469 12.605469 12.90625 13.90625L19.1875 13.90625L18.59375 15.1875L12.8125 15.1875L12.8125 16.3125L18.3125 16.3125L17.6875 17.59375L12.90625 17.59375C13.40625 20.792969 14.792969 22.40625 17.09375 22.40625C17.792969 22.40625 18.398438 22.300781 19 22C19.398438 21.800781 19.898438 21.414063 20.5 20.8125L20.5 22.125C23.382813 18.847656 27.433594 16.632813 32 16.125C32 16.085938 32 16.039063 32 16C32 7.179688 24.820313 0 16 0 Z M 40.28125 0.28125L35.28125 5.28125L34.59375 6L35.28125 6.71875L40.28125 11.71875L41.71875 10.28125L38.4375 7L43 7C45.753906 7 48 9.246094 48 12L48 18L50 18L50 12C50 8.15625 46.84375 5 43 5L38.4375 5L41.71875 1.71875 Z M 34 18C25.179688 18 18 25.179688 18 34C18 42.820313 25.179688 50 34 50C42.820313 50 50 42.820313 50 34C50 25.179688 42.820313 18 34 18 Z M 33.59375 24.1875L34.8125 24.1875L34.8125 25.6875C36.011719 25.789063 36.988281 26.300781 37.6875 27C38.386719 27.699219 38.886719 28.792969 39.1875 30.09375L37.3125 30.09375C37.011719 28.59375 36.210938 27.800781 34.8125 27.5L34.8125 33L36.09375 33.40625C36.394531 33.507813 36.695313 33.613281 37.09375 33.8125C37.492188 34.011719 37.914063 34.195313 38.3125 34.59375C38.710938 34.894531 38.988281 35.3125 39.1875 35.8125C39.488281 36.3125 39.59375 36.894531 39.59375 37.59375C39.59375 38.292969 39.488281 39 39.1875 39.5C38.988281 40.101563 38.585938 40.601563 38.1875 41C37.789063 41.398438 37.289063 41.699219 36.6875 42C36.085938 42.199219 35.488281 42.40625 34.6875 42.40625L34.6875 44.1875L33.5 44.1875L33.5 42.40625C32 42.304688 30.800781 41.710938 30 40.8125C29.101563 39.914063 28.601563 38.695313 28.5 37.09375L30.40625 37.09375C30.304688 38.195313 30.6875 39 31.1875 39.5C31.789063 40.101563 32.507813 40.394531 33.40625 40.59375L33.40625 34.6875C32.605469 34.488281 31.90625 34.292969 31.40625 34.09375C30.804688 33.894531 30.398438 33.613281 30 33.3125C29.601563 33.011719 29.289063 32.59375 29.1875 32.09375C28.988281 31.59375 28.90625 31.105469 28.90625 30.40625C28.90625 29.707031 29.011719 29.09375 29.3125 28.59375C29.511719 27.992188 29.914063 27.59375 30.3125 27.09375C30.710938 26.695313 31.210938 26.394531 31.8125 26.09375C32.414063 25.894531 32.992188 25.6875 33.59375 25.6875 Z M 33.40625 27.59375C32.804688 27.59375 32.09375 27.8125 31.59375 28.3125C31.09375 28.714844 30.90625 29.386719 30.90625 30.1875C30.90625 30.585938 30.996094 30.886719 31.09375 31.1875C31.195313 31.488281 31.394531 31.707031 31.59375 31.90625C31.792969 32.105469 32.105469 32.207031 32.40625 32.40625C32.707031 32.507813 33.105469 32.714844 33.40625 32.8125 Z M 0 32L0 38C0 41.84375 3.15625 45 7 45L11.5625 45L8.28125 48.28125L9.71875 49.71875L14.71875 44.71875L15.40625 44L14.71875 43.28125L9.71875 38.28125L8.28125 39.71875L11.5625 43L7 43C4.246094 43 2 40.753906 2 38L2 32 Z M 34.6875 35.09375L34.6875 40.6875C35.085938 40.585938 35.511719 40.507813 35.8125 40.40625C36.113281 40.304688 36.488281 40.105469 36.6875 39.90625C36.988281 39.707031 37.210938 39.398438 37.3125 39C37.414063 38.699219 37.5 38.210938 37.5 37.8125C37.5 37.414063 37.414063 36.988281 37.3125 36.6875C37.210938 36.386719 36.988281 36.199219 36.6875 36C36.386719 35.800781 36.113281 35.601563 35.8125 35.5C35.414063 35.398438 35.085938 35.195313 34.6875 35.09375Z" />
</svg>