<?xml version="1.0" encoding="utf-8"?>
<svg xmlns="http://www.w3.org/2000/svg" viewBox="0 0 50 50" width="515" height="515">
  <path d="M28.125 0C27.375 -0.0898438 26.652344 0.257813 26.25 0.90625C25.855469 1.546875 25.878906 2.363281 26.28125 2.96875C26.300781 3 26.320313 3.003906 26.34375 3.03125L28.84375 6L46 6L46 2.8125C46 2.300781 45.601563 1.867188 45.09375 1.8125 Z M 14.375 5.96875C14.25 5.96875 14.125 6.007813 14 6.03125C13.9375 6.042969 13.871094 6.039063 13.8125 6.0625L1.75 11.03125C1.117188 11.132813 0.726563 11.457031 0.5 11.71875C0.0820313 12.199219 -0.0898438 12.863281 0.03125 13.6875L3 28.375C3.082031 28.867188 3.457031 30 5.09375 30L14.59375 30C15.304688 30 15.925781 29.753906 16.3125 29.28125C16.667969 28.847656 16.800781 28.28125 16.6875 27.71875L13.6875 12.75C13.507813 11.679688 12.636719 11 11.40625 11L7.125 11L14.34375 8.03125L17.71875 25C17.8125 25.476563 18.21875 25.8125 18.6875 25.8125C18.753906 25.8125 18.84375 25.792969 18.90625 25.78125C19.449219 25.671875 19.792969 25.136719 19.6875 24.59375L16.28125 7.5C16.179688 6.988281 15.882813 6.558594 15.4375 6.28125C15.117188 6.082031 14.746094 5.964844 14.375 5.96875 Z M 28.125 8L26.59375 9.21875C26.5625 9.242188 26.527344 9.253906 26.5 9.28125C26.03125 9.75 25.878906 10.433594 26.125 11.03125C26.371094 11.625 26.949219 12 27.59375 12L45 12C45.554688 12 46 11.550781 46 11L46 8 Z M 45.78125 12.84375C45.539063 12.949219 45.28125 13 45 13L30.25 13C31.117188 16.484375 34.207031 19 38 19C41.851563 19 44.972656 16.414063 45.78125 12.84375 Z M 31.8125 21C30.027344 21 27.492188 21.9375 26.03125 23.15625L17.9375 30.375C17.898438 30.429688 17.886719 30.480469 17.84375 30.53125C17.070313 31.472656 15.914063 32 14.59375 32L6.8125 32L13.78125 39.59375C14.652344 40.464844 15.894531 41 17.09375 41C18.234375 41 19.269531 40.605469 20.15625 39.84375L23.90625 36.59375L23.90625 49C23.90625 49.554688 24.355469 50 24.90625 50L48.90625 50C49.460938 50 49.90625 49.554688 49.90625 49L49.90625 27.71875C49.917969 27.363281 49.886719 27.035156 49.84375 26.6875C49.835938 26.636719 49.820313 26.578125 49.8125 26.53125C49.761719 26.199219 49.691406 25.878906 49.59375 25.5625C49.578125 25.511719 49.578125 25.457031 49.5625 25.40625C49.457031 25.089844 49.3125 24.796875 49.15625 24.5C49.140625 24.472656 49.140625 24.433594 49.125 24.40625C48.957031 24.097656 48.75 23.8125 48.53125 23.53125C48.390625 23.351563 48.253906 23.167969 48.09375 23C46.851563 21.714844 45.160156 21 43.3125 21 Z M 41.875 23L43.3125 23C44.613281 23 45.792969 23.484375 46.65625 24.375C46.886719 24.613281 47.082031 24.878906 47.25 25.15625L29.25 48L25.90625 48L25.90625 42.8125Z" />
</svg>