<?xml version="1.0" encoding="utf-8"?>
<svg xmlns="http://www.w3.org/2000/svg" viewBox="0 0 50 50" width="515" height="515">
  <path d="M7.625 2C2.03125 2 0 6.300781 0 9.1875C0 11.453125 0.855469 14.527344 4.9375 16.34375C5.628906 16.652344 6.355469 16.925781 7.09375 17.21875C10.5 18.570313 14.039063 19.972656 17.09375 24.46875C14.046875 28.988281 10.523438 30.421875 7.09375 31.78125C6.351563 32.074219 5.628906 32.347656 4.9375 32.65625C0.855469 34.476563 0 37.546875 0 39.8125C0 42.699219 2.03125 47 7.625 47C13.480469 47 15.4375 41.941406 15.4375 39.625C15.4375 38.085938 14.769531 35.929688 13.46875 34.78125C13.582031 34.691406 13.757813 34.570313 14.0625 34.40625C15.695313 33.527344 22.542969 29.382813 22.90625 29.15625L49.59375 9.46875C49.839844 9.285156 49.992188 8.996094 50 8.6875C50.007813 8.378906 49.863281 8.070313 49.625 7.875C48.148438 6.667969 46.464844 6.0625 44.59375 6.0625C41.167969 6.0625 38.378906 8.148438 38.28125 8.21875L22.4375 19.5625C21.585938 19.046875 15.617188 15.429688 14.0625 14.59375C13.753906 14.429688 13.582031 14.304688 13.46875 14.21875C14.769531 13.070313 15.4375 10.914063 15.4375 9.375C15.4375 7.058594 13.480469 2 7.625 2 Z M 7.34375 5.75C9.484375 5.75 11.195313 7.203125 11.4375 9.21875C11.574219 10.335938 11.257813 11.464844 10.53125 12.28125C9.878906 13.015625 8.992188 13.40625 8.03125 13.40625C5.949219 13.40625 4.03125 11.742188 3.78125 9.6875C3.660156 8.664063 3.964844 7.683594 4.625 6.9375C5.296875 6.179688 6.292969 5.75 7.34375 5.75 Z M 23 22.90625C23.605469 22.90625 24.09375 23.394531 24.09375 24C24.09375 24.605469 23.605469 25.09375 23 25.09375C22.394531 25.09375 21.90625 24.605469 21.90625 24C21.90625 23.394531 22.394531 22.90625 23 22.90625 Z M 30.5625 25.5L23.84375 30.4375L38.25 40.78125C38.367188 40.871094 41.167969 42.9375 44.59375 42.9375C46.460938 42.9375 48.148438 42.332031 49.625 41.125C49.863281 40.929688 50.007813 40.621094 50 40.3125C49.992188 40.003906 49.839844 39.714844 49.59375 39.53125 Z M 8.03125 35.59375C8.992188 35.59375 9.878906 35.984375 10.53125 36.71875C11.253906 37.535156 11.574219 38.660156 11.4375 39.78125C11.195313 41.796875 9.480469 43.25 7.34375 43.25C6.292969 43.25 5.296875 42.820313 4.625 42.0625C3.964844 41.316406 3.660156 40.332031 3.78125 39.3125C4.027344 37.253906 5.949219 35.59375 8.03125 35.59375Z" />
</svg>