<?xml version="1.0" encoding="utf-8"?>
<svg xmlns="http://www.w3.org/2000/svg" viewBox="0 0 50 50" width="515" height="515">
  <path d="M11 0C10.449219 0 10 0.449219 10 1L10 15C10 18.867188 12.234375 20.566406 13.71875 21.6875C14.402344 22.203125 15 22.644531 15 23C15 23.832031 14.839844 25.746094 14.65625 27.96875C14.363281 31.492188 14 35.882813 14 39C14 46.914063 15.261719 50 18.5 50C21.738281 50 23 46.914063 23 39C23 35.882813 22.636719 31.492188 22.34375 27.96875C22.160156 25.746094 22 23.832031 22 23C22 22.65625 22.578125 22.214844 23.25 21.71875C24.742188 20.609375 27 18.945313 27 15L27 1C27 0.449219 26.554688 0 26 0L23 0C22.449219 0 22 0.449219 22 1L22 11.5C22 11.746094 21.746094 12 21.5 12C21.253906 12 21 11.746094 21 11.5L21 1C21 0.449219 20.550781 0 20 0L17 0C16.449219 0 16 0.449219 16 1L16 11.5C16 11.746094 15.746094 12 15.5 12C15.253906 12 15 11.746094 15 11.5L15 1C15 0.449219 14.550781 0 14 0 Z M 30 0C29.445313 0 29 0.449219 29 1L29 13C29 23.046875 28.601563 28.164063 28.3125 31.90625C28.136719 34.148438 28 35.929688 28 38C28 47.085938 29.09375 50 32.5 50C35.90625 50 37 47.085938 37 38C37 34.441406 35.808594 32.167969 34.9375 30.5C34.414063 29.503906 34 28.710938 34 28C34 26.699219 34.835938 25.8125 36.21875 24.46875C37.898438 22.832031 40 20.792969 40 17C40 10.6875 37.894531 0 30 0Z" />
</svg>