<?xml version="1.0" encoding="utf-8"?>
<svg xmlns="http://www.w3.org/2000/svg" viewBox="0 0 50 50" width="515" height="515">
  <path d="M19 1C17.90625 1 17 1.90625 17 3L9 3C7.355469 3 6 4.355469 6 6L6 45C6 46.644531 7.355469 48 9 48L41 48C42.644531 48 44 46.644531 44 45L44 6C44 4.355469 42.644531 3 41 3L33 3C33 1.90625 32.09375 1 31 1 Z M 19 3L31 3L31 7C31 7.566406 30.566406 8 30 8L20 8C19.433594 8 19 7.566406 19 7 Z M 12 8L17.1875 8C17.605469 9.15625 18.707031 10 20 10L30 10C31.292969 10 32.394531 9.15625 32.8125 8L38 8L38 42L12 42 Z M 25.453125 14C22.726563 14 21.777344 15.972656 22.558594 17.65625C22.453125 17.753906 22.289063 18.042969 22.296875 18.253906C22.320313 18.75 22.675781 18.9375 22.839844 19.011719C22.902344 19.585938 23.269531 20.132813 23.640625 20.367188L23.640625 21.535156C23.132813 22.84375 20 22.460938 20 25L30 25C30 22.460938 26.867188 22.84375 26.363281 21.535156L26.363281 20.367188C26.738281 20.027344 26.914063 19.507813 26.929688 19.011719C27.09375 18.878906 27.351563 18.710938 27.429688 18.308594C27.492188 17.980469 27.359375 17.714844 27.203125 17.519531C27.695313 16.792969 27.625 14.546875 25.746094 14.546875 Z M 17 29L17 31L33 31L33 29 Z M 17 34L17 36L30 36L30 34Z" />
</svg>