<?xml version="1.0" encoding="utf-8"?>
<svg xmlns="http://www.w3.org/2000/svg" viewBox="0 0 50 50" width="515" height="515">
  <path d="M21.001953 0C8.4399531 0 -2.3684758e-15 4.6530469 0 8.9980469C0 13.345047 8.4399531 18 21.001953 18C33.563953 18 42 13.345047 42 8.9980469C42 4.6530469 33.563953 -1.1842379e-15 21.001953 0 z M 0 13.609375L0 19.150391C0 23.424391 8.4455781 28 21.017578 28C25.813578 28 30.003422 27.330531 33.357422 26.269531C32.865422 27.061531 32.493625 27.934234 32.265625 28.865234C28.952625 29.724234 25.127625 30 21.015625 30C11.595625 30 3.6740469 27.662156 -0.001953125 23.910156L-0.001953125 29.195312C-0.001953125 33.468312 8.443625 38 21.015625 38C23.546625 38 25.900547 37.854437 28.060547 37.523438L25.771484 39.814453C24.312484 39.947453 22.554 40 21 40C11.58 40 3.6740469 37.710031 -0.001953125 33.957031L-0.001953125 39.150391C4.6875e-05 43.423391 8.4455781 48 21.017578 48C21.351578 48 21.671 47.984516 22 47.978516L22 49C22 49.553 22.448 50 23 50L28 50C28.266 50 28.520031 49.895031 28.707031 49.707031L29.414062 49L32 49C32.553 49 33 48.553 33 48L33 46L35 46C35.553 46 36 45.553 36 45L36 43L38 43C38.553 43 39 42.553 39 42L39 39.775391C39.644 39.922391 40.313 40 41 40C45.963 40 50 35.963 50 31C50 26.037 45.963 22 41 22C40.929 22 40.858109 22.009719 40.787109 22.011719C41.586109 21.078719 42 20.108391 42 19.150391L42 13.609375C38.325 17.363375 30.434578 20 21.017578 20C11.597578 20 3.676 17.362375 0 13.609375 z M 41 24C44.859 24 48 27.141 48 31C48 34.859 44.859 38 41 38C37.141 38 34 34.859 34 31C34 27.141 37.141 24 41 24 z M 44 26.998047 A 2 2 0 0 0 42 28.998047 A 2 2 0 0 0 44 30.998047 A 2 2 0 0 0 46 28.998047 A 2 2 0 0 0 44 26.998047 z M 33.101562 35.308594C33.385562 35.829594 33.720609 36.319484 34.099609 36.771484L27.21875 43.652344C26.82775 44.043344 26.82775 44.675406 27.21875 45.066406C27.60975 45.457406 28.241813 45.457406 28.632812 45.066406L35.544922 38.154297C35.997922 38.501297 36.485 38.8055 37 39.0625L37 41L35 41C34.447 41 34 41.447 34 42L34 44L32 44C31.447 44 31 44.447 31 45L31 47L29 47C28.734 47 28.479969 47.104969 28.292969 47.292969L27.585938 48L24 48L24 44.417969L33.101562 35.308594 z" />
</svg>