<?xml version="1.0" encoding="utf-8"?>
<svg xmlns="http://www.w3.org/2000/svg" viewBox="0 0 50 50" width="515" height="515">
  <path d="M21.001953 0C8.4389531 0 -2.3684758e-15 4.6530469 0 8.9980469C0 13.345047 8.4389531 18 21.001953 18C33.563953 18 42 13.345047 42 8.9980469C41.999 4.6530469 33.563953 -1.1842379e-15 21.001953 0 z M 0 13.609375L0 19.150391C0 23.424391 8.4445781 28 21.017578 28C33.588578 28 42 23.424391 42 19.150391L42 13.609375C38.325 17.363375 30.433578 20 21.017578 20C11.597578 20 3.676 17.362375 0 13.609375 z M -0.001953125 23.910156L-0.001953125 29.195312C-0.001953125 33.466313 8.4445781 38 21.017578 38C24.167578 38 27.023984 37.737328 29.583984 37.236328C30.130984 36.490328 31.007 36 32 36L34.119141 36C34.417141 35.896 34.717 35.792594 35 35.683594L35 33C35 31.346 36.346 30 38 30L42 30L42 23.910156C38.325 27.662156 30.433578 30 21.017578 30C11.597578 30 3.6740469 27.662156 -0.001953125 23.910156 z M 38 32C37.447 32 37 32.447 37 33L37 38L32 38C31.447 38 31 38.447 31 39L31 43C31 43.553 31.447 44 32 44L37 44L37 49C37 49.553 37.447 50 38 50L42 50C42.553 50 43 49.553 43 49L43 44L48 44C48.553 44 49 43.553 49 43L49 39C49 38.447 48.553 38 48 38L43 38L43 33C43 32.447 42.553 32 42 32L38 32 z M 0 33.955078L0 34L0 39.150391L0 39.541016C0 39.562016 0.025640625 39.585328 0.056640625 39.611328C0.63564062 43.746328 8.8955781 48 21.017578 48C24.330578 48 27.344 47.676906 30 47.128906L30 47.107422C31.477 46.804422 32.831359 46.427 34.068359 46L32 46C30.346 46 29 44.654 29 43L29 39.587891C26.518 40.011891 23.843578 40 21.017578 40C11.597578 40 3.676 37.708078 0 33.955078 z" />
</svg>