<?xml version="1.0" encoding="utf-8"?>
<svg xmlns="http://www.w3.org/2000/svg" viewBox="0 0 50 50" width="515" height="515">
  <path d="M21.001953 0C8.4399531 0 -2.3684758e-15 4.6530469 0 8.9980469C0 13.345047 8.4399531 18 21.001953 18C33.563953 18 42 13.345047 42 8.9980469C42 4.6530469 33.563953 -1.1842379e-15 21.001953 0 z M 0 13.609375L0 19.150391C0 23.424391 8.4455781 28 21.017578 28C33.589578 28 42 23.424391 42 19.150391L42 13.609375C38.325 17.363375 30.433578 20 21.017578 20C11.597578 20 3.676 17.362375 0 13.609375 z M 0 23.910156L0 29.195312C0 33.467312 8.4455781 38 21.017578 38C24.504578 38 27.657969 37.683984 30.417969 37.083984C30.137969 38.006984 29.999719 39.609016 30.011719 39.416016C27.256719 39.955016 24.228578 40 21.017578 40C11.597578 40 3.676 37.708078 0 33.955078L0 39.150391C0 43.424391 8.4455781 48 21.017578 48C25.384578 48 29.236734 47.439062 32.427734 46.539062C34.266734 48.665062 36.975 50.017578 40 50.017578C45.523 50.017578 50.019531 45.523047 50.019531 39.998047C50.019531 35.116047 46.506 31.045063 41.875 30.164062C41.969 29.841062 42 29.518313 42 29.195312L42 23.910156C38.325 27.662156 30.433578 30 21.017578 30C11.597578 30 3.676 27.662156 0 23.910156 z M 40 32.019531C44.4 32.019531 47.980469 35.6 47.980469 40C47.980469 44.4 44.4 47.980469 40 47.980469C35.6 47.980469 32.019531 44.4 32.019531 40C32.019531 35.6 35.6 32.019531 40 32.019531 z M 44.240234 35.349609L38.849609 41.638672L35.599609 39.199219L34.400391 40.800781L39.150391 44.361328L45.759766 36.650391L44.240234 35.349609 z" />
</svg>