<?xml version="1.0" encoding="utf-8"?>
<svg xmlns="http://www.w3.org/2000/svg" viewBox="0 0 50 50" width="515" height="515">
  <path d="M24.990234 0C12.410234 0 4.1699219 4.6499219 4.1699219 8.9199219C4.1699219 13.189922 12.42 18 25 18C37.57 18 46 13.309063 46 9.0390625C46 4.7690625 37.560234 0 24.990234 0 z M 4 13.619141L4 19.150391C4 23.420391 12.44 28 25 28C37.56 28 46 23.420391 46 19.150391L46 13.619141C42.33 17.369141 34.41 20.060547 25 20.060547C15.59 20.060547 7.67 17.369141 4 13.619141 z M 4 23.919922L4 29.199219C4 33.469219 12.44 37.880859 25 37.880859C26.98 37.880859 28.859141 37.930938 30.619141 37.710938L27.099609 40.029297C26.409609 40.069297 25.71 40.080078 25 40.080078C15.59 40.080078 7.67 37.720703 4 33.970703L4 39.160156C4 43.430156 12.44 48 25 48C28.97 48 32.540781 47.539297 35.550781 46.779297L40 49.929688L40 44L50 44L50 37L40 37L40 35.310547C43.81 33.630547 46 31.369219 46 29.199219L46 23.919922C42.33 27.669922 34.439297 30.160156 25.029297 30.160156C15.619297 30.160156 7.67 27.669922 4 23.919922 z M 38 34.929688L38 39L48 39L48 42L38 42L38 46.070312L37.980469 46.060547L30.150391 40.320312L38 34.929688 z" />
</svg>