<?xml version="1.0" encoding="utf-8"?>
<svg xmlns="http://www.w3.org/2000/svg" viewBox="0 0 50 50" width="515" height="515">
  <path d="M10 4C9.734375 4 9.46875 4.09375 9.28125 4.28125L5.59375 8L20 8C20.550781 8 21 8.449219 21 9C21 11.242188 22.757813 13 25 13C27.242188 13 29 11.242188 29 9C29 8.449219 29.445313 8 30 8L44.40625 8L40.71875 4.28125C40.53125 4.09375 40.265625 4 40 4 Z M 5 10L5 45C5 45.554688 5.449219 46 6 46L44 46C44.554688 46 45 45.554688 45 45L45 10L30.90625 10C30.441406 12.871094 28.023438 15 25 15C21.976563 15 19.554688 12.871094 19.09375 10 Z M 34.28125 20.28125L35.71875 21.71875L23 34.40625L16.28125 27.71875L17.71875 26.28125L23 31.59375Z" />
</svg>