<?xml version="1.0" encoding="utf-8"?>
<svg xmlns="http://www.w3.org/2000/svg" viewBox="0 0 50 50" width="515" height="515">
  <path d="M5 4C4.45 4 4 4.45 4 5L4 13L13 13L13 4L5 4 z M 15 4L15 13L24 13L24 4L15 4 z M 26 4L26 13L35 13L35 4L26 4 z M 37 4L37 13L46 13L46 5C46 4.45 45.55 4 45 4L37 4 z M 4 15L4 24L13 24L13 15L4 15 z M 15 15L15 24L15 26L15 35L15 37L15 44L15 45L15 46L45 46 A 1.0001 1.0001 0 0 0 46 45L46 15L45 15L44 15L37 15L35 15L26 15L24 15L15 15 z M 17 17L24 17L24 24L17 24L17 17 z M 26 17L35 17L35 24L26 24L26 17 z M 37 17L44 17L44 24L37 24L37 17 z M 4 26L4 35L13 35L13 26L4 26 z M 17 26L24 26L24 35L17 35L17 26 z M 26 26L35 26L35 35L26 35L26 26 z M 37 26L44 26L44 35L37 35L37 26 z M 4 37L4 45C4 45.55 4.45 46 5 46L13 46L13 37L4 37 z M 17 37L24 37L24 44L17 44L17 37 z M 26 37L35 37L35 44L26 44L26 37 z M 37 37L44 37L44 44L37 44L37 37 z" />
</svg>