<?xml version="1.0" encoding="utf-8"?>
<svg xmlns="http://www.w3.org/2000/svg" viewBox="0 0 50 50" width="515" height="515">
  <path d="M21.001953 0C8.4399531 0 -2.3684758e-15 4.6530469 0 8.9980469C0 13.343047 8.4399531 18 21.001953 18C33.563953 18 42 13.345047 42 8.9980469C42 4.6530469 33.563953 -1.1842379e-15 21.001953 0 z M 0 13.550781L0 19.091797C0 23.365797 8.4455781 28 21.017578 28C22.404578 28 23.730719 27.876484 25.011719 27.771484C25.023719 28.529484 25.056234 29.268469 25.115234 29.980469C23.786234 30.088469 22.420578 30 21.017578 30C11.597578 30 3.6779531 27.603563 0.001953125 23.851562L0.001953125 29.136719C0.001953125 33.409719 8.4455781 38 21.017578 38C23.053578 38 24.967578 37.853766 26.767578 37.634766C27.044578 38.378766 27.343109 39.086906 27.662109 39.753906C25.565109 40.042906 23.337578 40 21.017578 40C11.597578 40 3.6779531 37.649484 0.001953125 33.896484L0.001953125 39.089844C0.001953125 43.362844 8.4455781 47.939453 21.017578 47.939453C25.395578 47.939453 29.257172 47.376656 32.451172 46.472656C34.810172 48.785656 36.867359 49.803391 37.068359 49.900391L37.521484 50.119141L37.966797 49.884766C38.457797 49.625766 50 43.36775 50 27.21875L50 26.410156L49.210938 26.240234C45.214937 25.377234 42.852953 24.152766 41.126953 23.259766C40.611953 22.993766 40.144453 22.762547 39.689453 22.560547C39.818453 22.579547 39.949031 22.611781 40.082031 22.675781C41.335031 21.529781 42 20.300797 42 19.091797L42 13.550781C38.325 17.304781 30.434578 20 21.017578 20C11.597578 20 3.676 17.303781 0 13.550781 z M 37.498047 23.998047C38.204047 23.998047 39.044078 24.434156 40.205078 25.035156C41.914078 25.920156 44.211281 27.110672 47.988281 28.013672C47.662281 40.801672 39.525469 46.599469 37.480469 47.855469C35.429469 46.681469 27.324766 41.213672 27.009766 28.013672C30.785766 27.110672 33.083969 25.920156 34.792969 25.035156C35.953969 24.434156 36.792047 23.998047 37.498047 23.998047 z" />
</svg>