<?xml version="1.0" encoding="utf-8"?>
<svg xmlns="http://www.w3.org/2000/svg" viewBox="0 0 50 50" width="515" height="515">
  <path d="M21.001953 0C8.4399531 0 -2.3684758e-15 4.6530469 0 8.9980469C0 13.345047 8.4399531 18 21.001953 18C33.563953 18 42 13.345047 42 8.9980469C42 4.6530469 33.563953 -1.1842379e-15 21.001953 0 z M 0 13.609375L0 19.150391C0 23.424391 8.4455781 28 21.017578 28C33.589578 28 42 23.424391 42 19.150391L42 13.609375C38.325 17.363375 30.434578 20 21.017578 20C11.597578 20 3.676 17.362375 0 13.609375 z M 0 23.910156L0 29.195312C0 33.468313 8.4455781 38 21.017578 38C24.504578 38 27.657969 37.683984 30.417969 37.083984C30.191152 37.827382 30.058818 38.610705 30.011719 39.416016C27.257719 39.955016 24.228578 40 21.017578 40C11.597578 40 3.676 37.708078 0 33.955078L0 39.150391C0 43.424391 8.4455781 48 21.017578 48C25.384578 48 29.237734 47.439062 32.427734 46.539062C34.265734 48.665062 36.975 50.017578 40 50.017578C45.524 50.017578 50.019531 45.523047 50.019531 39.998047C50.019531 39.437047 49.563 38.980469 49 38.980469C48.437 38.980469 47.980469 39.437 47.980469 40C47.980469 44.401 44.401 47.980469 40 47.980469C35.599 47.980469 32.019531 44.401 32.019531 40C32.019531 35.599 35.599 32.019531 40 32.019531C43.198905 32.019531 45.110914 34.020745 45.861328 35L42.320312 35C41.767313 35 41.320312 35.447 41.320312 36C41.320312 36.553 41.767313 37 42.320312 37L49 37L49 30.320312C49 29.767312 48.553 29.320312 48 29.320312C47.447 29.320312 47 29.767312 47 30.320312L47 33.197266C46.022407 32.111076 44.332345 30.680639 41.871094 30.171875C41.967094 29.845875 42 29.520312 42 29.195312L42 23.910156C38.325 27.662156 30.434578 30 21.017578 30C11.597578 30 3.676 27.662156 0 23.910156 z" />
</svg>