<?xml version="1.0" encoding="utf-8"?>
<svg xmlns="http://www.w3.org/2000/svg" viewBox="0 0 50 50" width="515" height="515">
  <path d="M12 0C10.90625 0 10 0.90625 10 2L10 4L4 4C2.839844 4 2 4.839844 2 6L2 13L48 13L48 6C48 4.839844 47.160156 4 46 4L40 4L40 2C40 0.90625 39.09375 0 38 0L36 0C34.90625 0 34 0.90625 34 2L34 4L16 4L16 2C16 0.90625 15.09375 0 14 0 Z M 12 2L14 2L14 8L12 8 Z M 36 2L38 2L38 8L36 8 Z M 2 15L2 29L21.015625 29L16.078125 23.839844C15.695313 23.4375 15.710938 22.804688 16.109375 22.421875C16.207031 22.328125 16.320313 22.261719 16.4375 22.214844C16.480469 22.199219 16.523438 22.203125 16.5625 22.191406C16.640625 22.171875 16.722656 22.148438 16.800781 22.148438C16.804688 22.148438 16.804688 22.152344 16.8125 22.152344C16.898438 22.152344 16.980469 22.179688 17.0625 22.203125C17.105469 22.214844 17.152344 22.210938 17.191406 22.230469C17.3125 22.28125 17.425781 22.355469 17.523438 22.457031L24.5 29.75L17.519531 37.046875C17.324219 37.25 17.0625 37.355469 16.796875 37.355469C16.550781 37.355469 16.300781 37.261719 16.109375 37.078125C15.710938 36.695313 15.695313 36.0625 16.078125 35.660156L20.535156 31L2 31L2 46C2 47.078125 3.019531 48 4 48L46 48C46.863281 48 48 46.933594 48 46L48 15Z" />
</svg>