<?xml version="1.0" encoding="utf-8"?>
<svg xmlns="http://www.w3.org/2000/svg" viewBox="0 0 50 50" width="515" height="515">
  <path d="M27.125 3.0019531C26.411 2.9879531 25.688187 3.1016562 24.992188 3.3476562L13.296875 7.4882812C11.283875 8.3162812 9.9292656 8.1217656 8.0722656 6.7597656L3 3.0429688L3 18.046875L9.0058594 21.001953C12.198859 22.333953 15.779531 22.300547 18.894531 20.935547C20.867531 20.070547 23.182047 19.092484 25.123047 18.271484C26.804047 17.562484 28.205953 16.970016 28.876953 16.666016C29.196953 16.522016 30.0715 16.090156 30.6875 15.785156C31.4675 15.346156 32 14.5205 32 13.5625C32 12.1465 30.8525 11 29.4375 11C29.1855 11 28.94775 11.047234 28.71875 11.115234C28.72075 11.110234 28.729469 11.104609 28.730469 11.099609L19.289062 13.958984C19.193062 13.987984 19.094047 14.001953 18.998047 14.001953C18.569047 14.001953 18.173969 13.723016 18.042969 13.291016C17.882969 12.762016 18.181938 12.204922 18.710938 12.044922L27.964844 9.2441406C27.996844 9.2341406 28.028547 9.2218437 28.060547 9.2148438C28.498547 9.0748438 28.9535 9 29.4375 9C31.9525 9 34 11.0465 34 13.5625C34 14.7195 33.553797 15.765312 32.841797 16.570312L41.246094 21.435547C42.971094 22.522547 45.305016 21.996234 46.416016 20.240234C46.807016 19.620234 46.997953 18.932 47.001953 18.25C47.007953 17.046 46.432234 15.865859 45.365234 15.130859L30.621094 4.2148438C29.598094 3.4398438 28.374 3.0259531 27.125 3.0019531 z M 27.007812 20.994141 A 1.0001 1.0001 0 0 0 26.556641 21.103516C26.556641 21.103516 25.843449 21.469218 25.220703 22.246094C24.830031 22.733457 24.467932 23.430265 24.238281 24.291016C23.774394 23.763653 23.185489 23.420692 22.669922 23.25C21.763921 22.950044 20.947266 23.003906 20.947266 23.003906 A 1.0001 1.0001 0 1 0 21.052734 25C21.052734 25 21.543266 24.98364 22.041016 25.148438C22.181925 25.195089 22.307843 25.247617 22.423828 25.308594C18.170614 26.310827 14.854014 29.733051 14.107422 34.134766C12.887422 34.515766 12 35.656 12 37C12 38.399 12.962766 39.577203 14.259766 39.908203C15.873766 44.053203 20.282 47 25 47C29.718 47 34.126234 44.053203 35.740234 39.908203C37.037234 39.577203 38 38.399 38 37C38 35.656 37.112578 34.515766 35.892578 34.134766C35.060747 29.230505 31.042564 25.53174 26.087891 25.054688C26.225522 24.328474 26.507016 23.835764 26.779297 23.496094C27.156551 23.02547 27.443359 22.896484 27.443359 22.896484 A 1.0001 1.0001 0 0 0 27.007812 20.994141 z M 21.5 34C22.328 34 23 34.672 23 35.5C23 36.328 22.328 37 21.5 37C20.672 37 20 36.328 20 35.5C20 34.672 20.672 34 21.5 34 z M 28.5 34C29.328 34 30 34.672 30 35.5C30 36.328 29.328 37 28.5 37C27.672 37 27 36.328 27 35.5C27 34.672 27.672 34 28.5 34 z M 22 40C22.25575 40 22.511531 40.097469 22.707031 40.292969C22.727031 40.310969 23.481 41 25 41C26.519 41 27.273688 40.31025 27.304688 40.28125C27.703688 39.90725 28.333891 39.918547 28.712891 40.310547C29.092891 40.702547 29.093031 41.321031 28.707031 41.707031C28.575031 41.839031 27.347 43 25 43C22.653 43 21.424969 41.839031 21.292969 41.707031C20.901969 41.316031 20.901969 40.683969 21.292969 40.292969C21.488469 40.097469 21.74425 40 22 40 z" />
</svg>