<?xml version="1.0" encoding="utf-8"?>
<svg xmlns="http://www.w3.org/2000/svg" viewBox="0 0 50 50" width="515" height="515">
  <path d="M24.5 3 A 4.5 4.5 0 0 0 20 7.5 A 4.5 4.5 0 0 0 24.5 12 A 4.5 4.5 0 0 0 29 7.5 A 4.5 4.5 0 0 0 24.5 3 z M 20.5 14C17.462 14 15 16.462 15 19.5L15 32C15 33.105 15.895 34 17 34C18.105 34 19 33.105 19 32L19 22C19 21.448 19.448 21 20 21C20.552 21 21 21.448 21 22L21 30L28 30L28 22C28 21.448 28.448 21 29 21C29.552 21 30 21.448 30 22L30 32C30 33.105 30.895 34 32 34C33.105 34 34 33.105 34 32L34 19.5C34 16.462 31.538 14 28.5 14L20.5 14 z M 5.984375 22.986328 A 1.0001 1.0001 0 0 0 5 24L5 30L4 30 A 1.0001 1.0001 0 1 0 4 32L5 32L5 38 A 1.0001 1.0001 0 1 0 7 38L7 31.167969 A 1.0001 1.0001 0 0 0 7 30.841797L7 24 A 1.0001 1.0001 0 0 0 5.984375 22.986328 z M 9.984375 22.986328 A 1.0001 1.0001 0 0 0 9 24L9 38 A 1.0001 1.0001 0 1 0 11 38L11 32L13 32L13 30L11 30L11 24 A 1.0001 1.0001 0 0 0 9.984375 22.986328 z M 38.984375 22.986328 A 1.0001 1.0001 0 0 0 38 24L38 30L36 30L36 32L38 32L38 38 A 1.0001 1.0001 0 1 0 40 38L40 24 A 1.0001 1.0001 0 0 0 38.984375 22.986328 z M 42.984375 22.986328 A 1.0001 1.0001 0 0 0 42 24L42 30.832031 A 1.0001 1.0001 0 0 0 42 31.158203L42 38 A 1.0001 1.0001 0 1 0 44 38L44 32L45 32 A 1.0001 1.0001 0 1 0 45 30L44 30L44 24 A 1.0001 1.0001 0 0 0 42.984375 22.986328 z M 21 32C21 33.938 19.61325 35.556875 17.78125 35.921875L16.056641 43.976562C16.018641 44.152563 16 44.327 16 44.5C15.999 45.654 16.802563 46.692359 17.976562 46.943359C18.153562 46.981359 18.329906 47 18.503906 47C19.656906 47 20.693312 46.196438 20.945312 45.023438L23.306641 34L25.693359 34L28.056641 45.023438C28.307641 46.196438 29.343094 47 30.496094 47C30.669094 47 30.847437 46.981359 31.023438 46.943359C32.197438 46.692359 32.999047 45.654 32.998047 44.5C32.999047 44.327 32.981359 44.152562 32.943359 43.976562L31.21875 35.921875C29.38675 35.556875 28 33.938 28 32L21 32 z" />
</svg>