<?xml version="1.0" encoding="utf-8"?>
<svg xmlns="http://www.w3.org/2000/svg" viewBox="0 0 50 50" width="515" height="515">
  <path d="M43,9H7c-2.8,0-5,2.2-5,5v22c0,2.8,2.2,5,5,5h36c2.8,0,5-2.2,5-5V14C48,11.2,45.8,9,43,9z M41,20H28c-0.6,0-1-0.4-1-1s0.4-1,1-1h13c0.6,0,1,0.4,1,1S41.6,20,41,20z M42,29c0,0.6-0.4,1-1,1h-5c-0.6,0-1-0.4-1-1s0.4-1,1-1h5C41.6,28,42,28.4,42,29z M33,29c0,0.6-0.4,1-1,1h-5c-0.6,0-1-0.4-1-1s0.4-1,1-1h5C32.6,28,33,28.4,33,29z M9,28h5c0.6,0,1,0.4,1,1s-0.4,1-1,1H9c-0.6,0-1-0.4-1-1S8.4,28,9,28z M8,21v-3c0-1.1,0.9-2,2-2h4c1.1,0,2,0.9,2,2v3c0,1.1-0.9,2-2,2h-4C8.9,23,8,22.1,8,21z M9,33h13c0.6,0,1,0.4,1,1s-0.4,1-1,1H9c-0.6,0-1-0.4-1-1S8.4,33,9,33z M18,30c-0.6,0-1-0.4-1-1s0.4-1,1-1h5c0.6,0,1,0.4,1,1s-0.4,1-1,1H18z" />
</svg>