<?xml version="1.0" encoding="utf-8"?>
<svg xmlns="http://www.w3.org/2000/svg" viewBox="0 0 50 50" width="515" height="515">
  <path d="M42.675781 23.96875C43.601563 16.734375 42.234375 10.777344 38.703125 6.710938C35.515625 3.035156 30.648438 1.011719 25 1.011719C19.21875 1.011719 14.261719 3.085938 11.039063 6.855469C7.5625 10.925781 6.265625 16.816406 7.28125 23.925781C5.832031 25.371094 5.011719 27.558594 5.011719 30.023438C5.011719 33.707031 8.191406 36.675781 10.6875 37.8125C13.300781 45.765625 21.8125 48.988281 25 48.988281C28.167969 48.988281 36.636719 45.789063 39.285156 37.902344C42.125 36.730469 44.988281 33.441406 44.988281 30.023438C44.988281 27.660156 44.132813 25.4375 42.675781 23.96875 Z M 25.671875 34.859375C25.671875 35.023438 25.5625 35.132813 25.394531 35.132813L24 35.132813C23.832031 35.132813 23.71875 35.023438 23.71875 34.859375L23.71875 33.03125C23.71875 32.867188 23.832031 32.757813 24 32.757813L25.394531 32.757813C25.5625 32.757813 25.671875 32.867188 25.671875 33.03125 Z M 27.90625 24.730469L26.371094 26.753906C25.617188 27.652344 25.476563 28.117188 25.476563 29.152344L25.476563 30.109375C25.476563 30.273438 25.367188 30.382813 25.199219 30.382813L24.222656 30.382813C24.054688 30.382813 23.945313 30.273438 23.945313 30.109375L23.945313 29.046875C23.945313 27.925781 24.136719 27.246094 24.835938 26.371094L26.371094 24.378906C27.765625 22.714844 28.074219 21.949219 28.074219 20.800781C28.074219 18.835938 26.648438 17.71875 24.78125 17.71875C22.941406 17.71875 21.710938 18.808594 21.320313 20.773438C21.292969 20.9375 21.179688 21.019531 21.011719 20.992188L20.066406 20.828125C19.898438 20.800781 19.8125 20.664063 19.84375 20.5C20.234375 18.042969 22.046875 16.296875 24.808594 16.296875C27.683594 16.296875 29.609375 18.179688 29.609375 20.800781C29.609375 22.273438 29.136719 23.285156 27.90625 24.730469Z" />
</svg>