<?xml version="1.0" encoding="utf-8"?>
<svg xmlns="http://www.w3.org/2000/svg" viewBox="0 0 50 50" width="515" height="515">
  <path d="M29 5C28.746094 5 28.476563 5.085938 28.28125 5.28125C27.890625 5.671875 27.890625 6.328125 28.28125 6.71875L45.5625 24L39 24C38.449219 24 38 24.449219 38 25C38 25.550781 38.445313 26 39 26L49 26L49 16C49 15.449219 48.554688 15 48 15C47.445313 15 47 15.449219 47 16L47 22.5625L29.71875 5.28125C29.523438 5.085938 29.253906 5 29 5 Z M 2 11L2 50L16 50L16 11 Z M 18 24L18 50L32 50L32 24 Z M 34 35L34 50L48 50L48 35Z" />
</svg>