<?xml version="1.0" encoding="utf-8"?>
<svg xmlns="http://www.w3.org/2000/svg" viewBox="0 0 50 50" width="515" height="515">
  <path d="M3.40625 0.59375L0.59375 3.40625L14.59375 17.40625L16 18.84375L17.40625 17.40625L20 14.8125L30.59375 25.40625L32 26.84375L33.40625 25.40625L36 22.8125L43.1875 30L38 30L38 34L50 34L50 22L46 22L46 27.1875L37.40625 18.59375L36 17.15625L34.59375 18.59375L32 21.1875L21.40625 10.59375L20 9.15625L18.59375 10.59375L16 13.1875 Z M 2 13L2 50L6 50L6 13 Z M 9 20L9 50L13 50L13 20 Z M 16 25L16 50L20 50L20 25 Z M 23 27L23 50L27 50L27 27 Z M 30 32L30 50L34 50L34 32 Z M 37 38L37 50L41 50L41 38 Z M 44 40L44 50L48 50L48 40Z" />
</svg>