<?xml version="1.0" encoding="utf-8"?>
<svg xmlns="http://www.w3.org/2000/svg" viewBox="0 0 50 50" width="515" height="515">
  <path d="M4 0L4 48L28.1875 48C28.335938 48.414063 28.554688 48.804688 28.875 49.125C29.441406 49.691406 30.199219 50 31 50C31.800781 50 32.558594 49.691406 33.125 49.125L39 43.25L44.875 49.125C45.441406 49.691406 46.199219 50 47 50C47.800781 50 48.558594 49.691406 49.125 49.125C49.691406 48.558594 50 47.800781 50 47C50 46.199219 49.691406 45.441406 49.125 44.875L43.25 39L49.125 33.125C49.691406 32.558594 50 31.800781 50 31C50 30.199219 49.691406 29.441406 49.125 28.875C48.558594 28.308594 47.800781 28 47 28C46.199219 28 45.441406 28.308594 44.875 28.875L40 33.75L40 14.59375L25.40625 0 Z M 25 2.40625L37.59375 15L25 15 Z M 31 30C31.257813 30 31.523438 30.085938 31.71875 30.28125L39 37.59375L46.28125 30.28125C46.476563 30.085938 46.742188 30 47 30C47.257813 30 47.523438 30.085938 47.71875 30.28125C48.109375 30.671875 48.109375 31.328125 47.71875 31.71875L40.40625 39L47.71875 46.28125C48.109375 46.671875 48.109375 47.328125 47.71875 47.71875C47.523438 47.914063 47.257813 48 47 48C46.742188 48 46.476563 47.914063 46.28125 47.71875L39 40.40625L31.71875 47.71875C31.523438 47.914063 31.257813 48 31 48C30.742188 48 30.476563 47.914063 30.28125 47.71875C29.890625 47.328125 29.890625 46.671875 30.28125 46.28125L37.59375 39L30.28125 31.71875C29.890625 31.328125 29.890625 30.671875 30.28125 30.28125C30.476563 30.085938 30.742188 30 31 30Z" />
</svg>