<?xml version="1.0" encoding="utf-8"?>
<svg xmlns="http://www.w3.org/2000/svg" viewBox="0 0 50 50" width="515" height="515">
  <path d="M2.8125 0C1.269531 0 0 1.269531 0 2.8125L0 7L44 7L44 2.8125C44 1.269531 42.730469 0 41.1875 0 Z M 0 9L0 40C0 40.554688 0.449219 41 1 41L30.0625 41C30.566406 46.046875 34.824219 50 40 50C45.515625 50 50 45.515625 50 40C50 35.90625 47.527344 32.390625 44 30.84375L44 9 Z M 7 15L11 15L11 17L7 17 Z M 14 15L37 15L37 17L14 17 Z M 7 20L11 20L11 22L7 22 Z M 14 20L37 20L37 22L14 22 Z M 7 25L11 25L11 27L7 27 Z M 14 25L37 25L37 27L14 27 Z M 7 30L11 30L11 32L7 32 Z M 14 30L30 30L30 32L14 32 Z M 40 32C44.410156 32 48 35.589844 48 40C48 44.410156 44.410156 48 40 48C35.601563 48 32.019531 44.425781 32 40.03125C32 40.019531 32 40.011719 32 40C32 39.988281 32 39.980469 32 39.96875C32.019531 35.574219 35.601563 32 40 32 Z M 36.5 35.5C36.246094 35.5 35.976563 35.585938 35.78125 35.78125C35.390625 36.171875 35.390625 36.828125 35.78125 37.21875L38.5625 40L35.78125 42.78125C35.390625 43.171875 35.390625 43.828125 35.78125 44.21875C35.976563 44.414063 36.242188 44.5 36.5 44.5C36.757813 44.5 37.023438 44.414063 37.21875 44.21875L40 41.4375L42.78125 44.21875C42.976563 44.414063 43.242188 44.5 43.5 44.5C43.757813 44.5 44.023438 44.414063 44.21875 44.21875C44.609375 43.828125 44.609375 43.171875 44.21875 42.78125L41.4375 40L44.21875 37.21875C44.609375 36.828125 44.609375 36.171875 44.21875 35.78125C43.828125 35.390625 43.171875 35.390625 42.78125 35.78125L40 38.5625L37.21875 35.78125C37.023438 35.585938 36.753906 35.5 36.5 35.5Z" />
</svg>