<?xml version="1.0" encoding="utf-8"?>
<svg xmlns="http://www.w3.org/2000/svg" viewBox="0 0 50 50" width="515" height="515">
  <path d="M3.8007812 8C1.8007813 8.2 1 9.8003906 1 10.900391L1 37C1 38.7 2.3 40 4 40L7.0996094 40C7.5996094 42.8 10 45 13 45C16 45 18.400391 42.8 18.900391 40L31 40L31 10.900391C31 9.4003906 29.599609 8 28.099609 8L3.8007812 8 z M 16 13C20.9 13 25 17.1 25 22C25 26.9 20.9 31 16 31C11.1 31 7 26.9 7 22C7 17.1 11.1 13 16 13 z M 33 15L33 40L34.099609 40L35.099609 40C35.599609 42.8 38 45 41 45C44 45 46.500391 42.700781 46.900391 39.800781C48.000391 39.400781 49 38.2 49 37L49 27.400391C49 25.400391 47.600391 23.399609 47.400391 23.099609L43.300781 17.599609C42.500781 16.599609 41 15 39 15L33 15 z M 15 16L15 21.5L11.400391 24.199219L12.599609 25.800781L17 22.5L17 16L15 16 z M 37 17L39 17C39.8 17 40.799219 17.700781 41.699219 18.800781L45.800781 24.300781C46.100781 24.700781 46.8 26 47 27L38 27C37.6 27 37 26.4 37 26L37 17 z M 13 35C15.2 35 17 36.8 17 39C17 41.2 15.2 43 13 43C10.8 43 9 41.2 9 39C9 36.8 10.8 35 13 35 z M 41 35C43.2 35 45 36.8 45 39C45 41.2 43.2 43 41 43C38.8 43 37 41.2 37 39C37 36.8 38.8 35 41 35 z" />
</svg>