<?xml version="1.0" encoding="utf-8"?>
<svg xmlns="http://www.w3.org/2000/svg" viewBox="0 0 50 50" width="515" height="515">
  <path d="M14 2C13.449219 2 13 2.445313 13 3L13 23C13 23.554688 13.449219 24 14 24L26 24L26 28.1875C25.851563 28.246094 25.707031 28.316406 25.566406 28.402344C24.914063 28.8125 24.46875 29.453125 24.320313 30.195313L22.921875 36.910156L18.769531 38.902344L12.625 38.902344C8.800781 39.195313 8 41.671875 8 43.699219L8 49C8 49.554688 8.449219 50 9 50L22 50C22.550781 50 23 49.554688 23 49L23 44.585938L26.824219 41.578125C27.464844 41.066406 28.027344 40.167969 28.175781 39.40625L29.878906 31.394531C30.027344 30.65625 29.890625 29.902344 29.496094 29.269531C29.144531 28.707031 28.617188 28.3125 28 28.113281L28 24L40 24C40.550781 24 41 23.554688 41 23L41 3C41 2.445313 40.550781 2 40 2 Z M 26 7L28 7L28 15L26 15 Z M 27 17C27.550781 17 28 17.449219 28 18C28 18.550781 27.550781 19 27 19C26.449219 19 26 18.550781 26 18C26 17.449219 26.449219 17 27 17 Z M 15.5 27C12.460938 27 10 29.460938 10 32.5C10 35.539063 12.460938 38 15.5 38C18.539063 38 21 35.539063 21 32.5C21 29.460938 18.539063 27 15.5 27Z" />
</svg>