<?xml version="1.0" encoding="utf-8"?>
<svg xmlns="http://www.w3.org/2000/svg" viewBox="0 0 50 50" width="515" height="515">
  <path d="M32 6 A 5 5.0120001 0 0 0 27 11.011719 A 5 5.0120001 0 0 0 28.951172 14.976562C27.40865 15.014299 25.349445 15.461121 23.335938 17.251953 A 1.0001 1.0001 0 0 0 23.283203 17.302734C20.819906 19.838477 19.443941 22.698448 19 28.583984C18.898503 29.931556 19.180891 31.112127 19.800781 32L18 32L18 19 A 1.0001 1.0001 0 0 0 17 18L8 18 A 1.0001 1.0001 0 0 0 7 19L7 28C7 29.590957 7.6321666 31.117741 8.7578125 32.242188C9.3954894 32.880544 10.16521 33.352786 11 33.648438C11.000606 33.845819 11.001953 34.05803 11.001953 34.085938C11.001953 36.963122 12.769005 39.600094 15 41.363281L15 44 A 1.0001 1.0001 0 0 0 16 45L28.998047 45 A 1.0001 1.0001 0 0 0 29.998047 44L29.998047 41.369141C30.91346 40.657358 31.738591 39.801935 32.40625 38.84375C32.224355 40.241977 32.016765 41.807904 32.013672 41.830078L32.013672 41.832031C32.013313 41.833831 31.893164 42.440054 32.011719 43.148438C32.071109 43.503155 32.189118 43.918397 32.507812 44.304688C32.826507 44.690978 33.385932 44.980097 33.964844 45C34.834161 45.03021 35.67598 44.768697 36.179688 44.179688C36.683394 43.590677 36.824669 42.926611 36.978516 42.210938 A 1.0001 1.0001 0 0 0 36.994141 42.109375C36.994141 42.109375 37.225731 39.987811 37.466797 37.675781C37.707863 35.363752 37.955618 32.924935 37.998047 32.048828C38.018157 31.637258 38.208057 30.762449 37.908203 29.806641C37.823204 29.535602 37.673965 29.255414 37.472656 29C38.961408 28.998158 42 29 42 29C43.272 29 44 28.245 44 27C44 25.755 43.272 25 42 25L35.689453 25C34.932015 23.389385 34.282703 21.256041 33.601562 19.330078C33.228986 18.276594 32.84311 17.31098 32.328125 16.521484C32.214647 16.347518 32.083711 16.181499 31.945312 16.021484 A 5 5.0120001 0 0 0 32 16.023438 A 5 5.0120001 0 0 0 37 11.011719 A 5 5.0120001 0 0 0 32 6 z M 9 20L16 20L16 32L13 32C11.938957 32 10.921429 31.578479 10.171875 30.828125C9.4215209 30.078571 9 29.061043 9 28L9 20 z M 30 24C30 24 31.903 28.223 32 29C30.647375 28.999625 29 29 29 29L30 24 z M 13.001953 34L17 34L31.998047 34C31.998014 34.01737 31.998047 34.077027 31.998047 34.085938C31.998047 36.45078 30.470688 38.76175 28.429688 40.177734 A 1.0001 1.0001 0 0 0 27.998047 41L27.998047 43L17 43L17 41 A 1.0001 1.0001 0 0 0 16.576172 40.181641C14.585163 38.780792 13.001953 36.27805 13.001953 34.085938C13.001953 34.077038 13.001986 34.01737 13.001953 34 z" clip-rule="evenodd" fill-rule="evenodd" />
</svg>