<?xml version="1.0" encoding="utf-8"?>
<svg xmlns="http://www.w3.org/2000/svg" viewBox="0 0 50 50" width="515" height="515">
  <path d="M12 2C8.691406 2 6 4.691406 6 8L6 42.417969C6 45.496094 8.691406 48 12 48L44 48L44 46L12 46C9.832031 46 8 44.359375 8 42.417969C8 40.503906 9.757813 39 12 39L44 39L44 2 Z M 19.285156 13L21.714844 13L27 28.421875L27 29L25 29L25 28.753906L24.058594 26L16.941406 26L16 28.753906L16 29L14 29L14 28.421875 Z M 20.5 15.625L17.628906 24L23.371094 24 Z M 32 17C33.792969 17 35 18.40625 35 20.5L35 26C35 26.550781 35.449219 27 36 27L36 29C35.230469 29 34.53125 28.699219 34 28.21875C33.46875 28.699219 32.769531 29 32 29L31 29C29.347656 29 28 27.652344 28 26L28 24C28 22.347656 29.347656 21 31 21L32 21C32.351563 21 32.6875 21.070313 33 21.183594L33 20.5C33 19.816406 32.824219 19 32 19C31.507813 19 31 19.117188 31 20L29 20C29 18.207031 30.207031 17 32 17 Z M 31 23C30.449219 23 30 23.449219 30 24L30 26C30 26.550781 30.449219 27 31 27L32 27C32.550781 27 33 26.550781 33 26L33 24C33 23.449219 32.550781 23 32 23Z" />
</svg>