<?xml version="1.0" encoding="utf-8"?>
<svg xmlns="http://www.w3.org/2000/svg" viewBox="0 0 50 50" width="515" height="515">
  <path d="M11.875 0C11.378906 0 10.945313 0.351563 10.875 0.84375C10.683594 2.195313 9 14.136719 9 16C9 17.914063 11.734375 21.058594 12.96875 22.375L12 46C12 48.394531 14.007813 50 17 50C19.992188 50 22 48.402344 22 45.96875L21.03125 22.375C22.257813 21.042969 25 17.847656 25 16C25 14.210938 23.316406 2.234375 23.125 0.875C23.054688 0.382813 22.621094 0 22.125 0L20 0L20 15.5C20 15.777344 19.777344 16 19.5 16C19.222656 16 19 15.777344 19 15.5L19 0L15 0L15 15.5C15 15.777344 14.777344 16 14.5 16C14.222656 16 14 15.777344 14 15.5L14 0 Z M 38 0C35.367188 0 30 5.628906 30 12.15625C30 19.148438 31.96875 22.828125 33.15625 25.03125C33.621094 25.894531 34 26.578125 34 27C34 28.859375 33.671875 30.828125 33.28125 33.09375C32.714844 36.359375 32 40.414063 32 46C32 48.46875 33.726563 50 36.5 50C39.273438 50 41 48.46875 41 46L41 3.8125C41 1.273438 39.988281 0 38 0Z" />
</svg>