<?xml version="1.0" encoding="utf-8"?>
<svg xmlns="http://www.w3.org/2000/svg" viewBox="0 0 50 50" width="515" height="515">
  <path d="M10 4C6.140625 4 3 7.140625 3 11L3 13C3 13.550781 3.449219 14 4 14L30 14C30.554688 14 31 13.550781 31 13L31 10C31 7.453125 32.367188 5.226563 34.40625 4 Z M 38 5C35.238281 5 33 7.238281 33 10L33 13C33 14.652344 31.652344 16 30 16L9 16L9 45C9 45.554688 9.449219 46 10 46L25 46L25 48.09375C24.996094 48.472656 25.207031 48.820313 25.546875 48.992188C25.882813 49.164063 26.289063 49.132813 26.59375 48.90625L30 46.34375L33.40625 48.90625C33.710938 49.132813 34.117188 49.164063 34.453125 48.992188C34.792969 48.820313 35.003906 48.472656 35 48.09375L35 46L42 46C42.554688 46 43 45.554688 43 45L43 10C43 7.238281 40.761719 5 38 5 Z M 16 19L36 19L36 21L16 21 Z M 16 25L36 25L36 27L16 27 Z M 30 30.1875C30.699219 30.1875 31.207031 30.585938 31.40625 31.1875C31.507813 31.289063 31.496094 31.3125 31.59375 31.3125C31.824219 31.171875 32.097656 31.09375 32.375 31.09375C32.695313 31.09375 33.042969 31.191406 33.3125 31.40625C33.8125 31.804688 33.886719 32.398438 33.6875 33C33.6875 33.101563 33.8125 33.089844 33.8125 33.1875C34.414063 33.289063 34.902344 33.808594 35 34.40625C35.101563 35.007813 34.8125 35.605469 34.3125 35.90625L34.3125 36.1875C34.613281 36.585938 34.707031 37.3125 34.40625 37.8125C34.144531 38.25 33.644531 38.53125 33.125 38.53125C33.046875 38.53125 32.980469 38.511719 32.90625 38.5C32.90625 38.601563 32.785156 38.589844 32.6875 38.6875C32.6875 39.289063 32.414063 39.800781 31.8125 40C31.613281 40.101563 31.511719 40.09375 31.3125 40.09375C30.914063 40.09375 30.488281 39.894531 30.1875 39.59375L29.8125 39.59375C29.519531 39.886719 29.117188 40.0625 28.6875 40.0625C28.53125 40.0625 28.347656 40.054688 28.1875 40C27.6875 39.800781 27.3125 39.289063 27.3125 38.6875C27.3125 38.585938 27.195313 38.597656 27.09375 38.5C27.015625 38.511719 26.953125 38.53125 26.875 38.53125C26.355469 38.53125 25.855469 38.25 25.59375 37.8125C25.292969 37.3125 25.285156 36.6875 25.6875 36.1875L25.6875 35.90625C25.1875 35.605469 24.898438 35.007813 25 34.40625C25.101563 33.804688 25.585938 33.285156 26.1875 33.1875C26.1875 33.085938 26.3125 33.097656 26.3125 33C26.113281 32.398438 26.1875 31.808594 26.6875 31.40625C26.957031 31.191406 27.304688 31.09375 27.625 31.09375C27.902344 31.09375 28.175781 31.171875 28.40625 31.3125C28.507813 31.210938 28.496094 31.1875 28.59375 31.1875C28.792969 30.585938 29.398438 30.1875 30 30.1875 Z M 27 41.625C27.148438 41.714844 27.304688 41.777344 27.46875 41.84375C27.503906 41.859375 27.527344 41.894531 27.5625 41.90625C27.921875 42.027344 28.308594 42.0625 28.6875 42.0625C29.132813 42.0625 29.554688 41.976563 29.96875 41.8125C30.390625 41.992188 30.867188 42.09375 31.3125 42.09375C31.660156 42.09375 32.046875 42.074219 32.5625 41.84375C32.710938 41.789063 32.863281 41.730469 33 41.65625L33 46.125L30.59375 44.3125C30.242188 44.050781 29.757813 44.050781 29.40625 44.3125L27 46.125Z" />
</svg>