<?xml version="1.0" encoding="utf-8"?>
<svg xmlns="http://www.w3.org/2000/svg" viewBox="0 0 50 50" width="515" height="515">
  <path d="M25 2C12.264481 2 2 12.264481 2 25C2 37.735519 12.264481 48 25 48C37.735519 48 48 37.735519 48 25C48 12.264481 37.735519 2 25 2 z M 20.900391 22C21.150391 22 21.399609 22.100781 21.599609 22.300781C21.999609 22.700781 21.999609 23.299219 21.599609 23.699219C17.899609 27.599219 14.000391 28 12.400391 28L11.900391 28C11.400391 27.9 11 27.400391 11 26.900391C11.1 26.400391 11.599609 26 12.099609 26C12.299609 26 16.399219 26.400781 20.199219 22.300781C20.399219 22.100781 20.650391 22 20.900391 22 z M 28.900391 22C29.150391 22 29.399609 22.100781 29.599609 22.300781C33.499609 26.400781 37.599219 26 37.699219 26C38.199219 25.9 38.700781 26.300391 38.800781 26.900391C39.100781 27.400391 38.699609 27.9 38.099609 28L37.400391 28C35.800391 28 31.899219 27.599219 28.199219 23.699219C27.799219 23.299219 27.799219 22.700781 28.199219 22.300781C28.399219 22.100781 28.650391 22 28.900391 22 z M 25.099609 32.900391C30.599609 32.900391 33.8 38.200391 34 38.400391C34.1 39.000391 34 39.600391 33.5 39.900391C33.4 40.000391 33.2 40 33 40C32.7 40 32.299609 39.8 32.099609 39.5C32.099609 39.5 29.3 35 25 35C20.6 35 17.900391 39.5 17.900391 39.5C17.600391 40 17 40.100781 16.5 39.800781C16 39.500781 15.899219 38.900391 16.199219 38.400391C16.299219 38.200391 19.599609 32.900391 25.099609 32.900391 z" />
</svg>