<?xml version="1.0" encoding="utf-8"?>
<svg xmlns="http://www.w3.org/2000/svg" viewBox="0 0 50 50" width="515" height="515">
  <path d="M43.6875 2L38.65625 7.0625L36.34375 4.75C34 2.410156 30.1875 2.410156 27.84375 4.75L23.03125 9.59375L21.71875 8.28125C21.476563 8.03125 21.121094 7.925781 20.78125 8C20.40625 8.066406 20.105469 8.339844 20 8.703125C19.894531 9.070313 20.003906 9.460938 20.28125 9.71875L25.0625 14.5L18.9375 20.65625L20.34375 22.0625L26.5 15.9375L34.0625 23.5L27.9375 29.65625L29.34375 31.0625L35.5 24.9375L40.28125 29.71875C40.679688 30.117188 41.320313 30.117188 41.71875 29.71875C42.117188 29.320313 42.117188 28.679688 41.71875 28.28125L40.40625 26.96875L45.25 22.15625C47.59375 19.8125 47.59375 16.03125 45.25 13.6875L45.25 13.65625L42.9375 11.34375L48 6.3125 Z M 8.90625 19.96875C8.863281 19.976563 8.820313 19.988281 8.78125 20C8.40625 20.066406 8.105469 20.339844 8 20.703125C7.894531 21.070313 8.003906 21.460938 8.28125 21.71875L9.59375 23.03125L4.75 27.84375C2.40625 30.1875 2.40625 34 4.75 36.34375L7.0625 38.625L2 43.6875L6.3125 48L11.375 42.9375L13.65625 45.25C16 47.589844 19.8125 47.589844 22.15625 45.25L26.96875 40.40625L28.28125 41.71875C28.679688 42.117188 29.320313 42.117188 29.71875 41.71875C30.117188 41.320313 30.117188 40.679688 29.71875 40.28125L9.71875 20.28125C9.511719 20.058594 9.210938 19.945313 8.90625 19.96875Z" />
</svg>