<?xml version="1.0" encoding="utf-8"?>
<svg xmlns="http://www.w3.org/2000/svg" viewBox="0 0 50 50" width="515" height="515">
  <path d="M7 2C5.347656 2 4 3.347656 4 5L4 6.117188L0.398438 9L4 11.878906L4 13C4 14.652344 5.347656 16 7 16L37 16C38.652344 16 40 14.652344 40 13L40 5C40 3.347656 38.652344 2 37 2 Z M 11 8C11.550781 8 12 8.449219 12 9C12 9.550781 11.550781 10 11 10C10.449219 10 10 9.550781 10 9C10 8.449219 10.449219 8 11 8 Z M 15 8C15.550781 8 16 8.449219 16 9C16 9.550781 15.550781 10 15 10C14.449219 10 14 9.550781 14 9C14 8.449219 14.449219 8 15 8 Z M 19 8C19.550781 8 20 8.449219 20 9C20 9.550781 19.550781 10 19 10C18.449219 10 18 9.550781 18 9C18 8.449219 18.449219 8 19 8 Z M 23 8C23.550781 8 24 8.449219 24 9C24 9.550781 23.550781 10 23 10C22.449219 10 22 9.550781 22 9C22 8.449219 22.449219 8 23 8 Z M 27 8C27.550781 8 28 8.449219 28 9C28 9.550781 27.550781 10 27 10C26.449219 10 26 9.550781 26 9C26 8.449219 26.449219 8 27 8 Z M 11 18C9.347656 18 8 19.347656 8 21L8 22.121094L4.398438 25L8 27.878906L8 29C8 30.652344 9.347656 32 11 32L41 32C42.652344 32 44 30.652344 44 29L44 21C44 19.347656 42.652344 18 41 18 Z M 15 24C15.550781 24 16 24.449219 16 25C16 25.550781 15.550781 26 15 26C14.449219 26 14 25.550781 14 25C14 24.449219 14.449219 24 15 24 Z M 19 24C19.550781 24 20 24.449219 20 25C20 25.550781 19.550781 26 19 26C18.449219 26 18 25.550781 18 25C18 24.449219 18.449219 24 19 24 Z M 23 24C23.550781 24 24 24.449219 24 25C24 25.550781 23.550781 26 23 26C22.449219 26 22 25.550781 22 25C22 24.449219 22.449219 24 23 24 Z M 15 34C13.347656 34 12 35.347656 12 37L12 38.121094L8.398438 41L12 43.878906L12 45C12 46.652344 13.347656 48 15 48L45 48C46.652344 48 48 46.652344 48 45L48 37C48 35.347656 46.652344 34 45 34 Z M 19 40C19.550781 40 20 40.449219 20 41C20 41.550781 19.550781 42 19 42C18.449219 42 18 41.550781 18 41C18 40.449219 18.449219 40 19 40 Z M 23 40C23.550781 40 24 40.449219 24 41C24 41.550781 23.550781 42 23 42C22.449219 42 22 41.550781 22 41C22 40.449219 22.449219 40 23 40 Z M 27 40C27.550781 40 28 40.449219 28 41C28 41.550781 27.550781 42 27 42C26.449219 42 26 41.550781 26 41C26 40.449219 26.449219 40 27 40 Z M 31 40C31.550781 40 32 40.449219 32 41C32 41.550781 31.550781 42 31 42C30.449219 42 30 41.550781 30 41C30 40.449219 30.449219 40 31 40 Z M 35 40C35.550781 40 36 40.449219 36 41C36 41.550781 35.550781 42 35 42C34.449219 42 34 41.550781 34 41C34 40.449219 34.449219 40 35 40 Z M 39 40C39.550781 40 40 40.449219 40 41C40 41.550781 39.550781 42 39 42C38.449219 42 38 41.550781 38 41C38 40.449219 38.449219 40 39 40Z" />
</svg>