<?xml version="1.0" encoding="utf-8"?>
<svg xmlns="http://www.w3.org/2000/svg" viewBox="0 0 50 50" width="515" height="515">
  <path d="M25 0C20.753906 0 17.03125 2.945313 15.875 7.09375C14.800781 7.375 14 8.339844 14 9.5L14 12.5C14 13.878906 15.121094 15 16.5 15C16.910156 15 17.285156 14.894531 17.625 14.71875C16.910156 13.472656 16.5 12.035156 16.5 10.5C16.5 5.8125 20.3125 2 25 2C29.6875 2 33.5 5.8125 33.5 10.5C33.5 12.035156 33.089844 13.476563 32.375 14.71875C32.714844 14.894531 33.089844 15 33.5 15C34.878906 15 36 13.878906 36 12.5L36 9.5C36 8.339844 35.199219 7.375 34.125 7.09375C32.96875 2.945313 29.242188 0 25 0 Z M 25 3C20.863281 3 17.5 6.363281 17.5 10.5C17.5 14.636719 20.863281 18 25 18C29.136719 18 32.5 14.636719 32.5 10.5C32.5 6.363281 29.136719 3 25 3 Z M 21.9375 19C18.640625 19.015625 16.332031 20.183594 15.03125 22.46875L6.96875 37L13 37C13.507813 37 13.960938 37.089844 14.375 37.25L18.15625 30.4375L18.15625 41L31.84375 41L31.84375 30.4375L35.625 37.25C36.039063 37.09375 36.492188 37 37 37L43.03125 37L34.96875 22.46875C33.671875 20.191406 31.359375 19.015625 28.0625 19C28.050781 19 28.042969 19 28.03125 19L21.96875 19C21.957031 19 21.949219 19 21.9375 19 Z M 3 39C1.347656 39 0 40.347656 0 42L0 47C0 48.652344 1.347656 50 3 50L47 50C48.652344 50 50 48.652344 50 47L50 42C50 40.347656 48.652344 39 47 39L37 39C35.71875 39 34.941406 40.238281 34.1875 41.4375C33.863281 41.953125 33.265625 42.914063 33 43L17.03125 43C16.738281 42.910156 16.132813 41.953125 15.8125 41.4375C15.058594 40.238281 14.28125 39 13 39Z" />
</svg>