<?xml version="1.0" encoding="utf-8"?>
<svg xmlns="http://www.w3.org/2000/svg" viewBox="0 0 50 50" width="515" height="515">
  <path d="M12 2C9.243 2 7 4.243 7 7C7 9.757 9.243 12 12 12C14.757 12 17 9.757 17 7C17 4.243 14.757 2 12 2 z M 7.5 13C4.467 13 2 15.467 2 18.5L2 32C2 33.104 2.897 34 4 34C5.103 34 6 33.104 6 32L6 20.546875C6 20.275875 6.229 20.046875 6.5 20.046875C6.771 20.046875 7 20.275875 7 20.546875L7 45.300781C7 46.864781 7.8353906 48 9.4003906 48C10.882391 48 12 46.839781 12 45.300781L12 33.699219C12 33.423219 12.224 33.199219 12.5 33.199219C12.776 33.199219 13 33.423219 13 33.699219L13 45.591797C13.004 45.597797 13.011625 45.601422 13.015625 45.607422C13.152625 46.990422 14.217609 48 15.599609 48C17.163609 48 18 46.864781 18 45.300781L18 18L28.5 18C29.881 18 31 16.881 31 15.5C31 14.119 29.881 13 28.5 13L15.517578 13L12 20L8.515625 13L7.5 13 z M 32.240234 20.279297L31.769531 23.480469C29.759531 24.050469 29.169297 25.399219 29.029297 26.449219C28.549297 26.759219 27.769453 27.289922 26.439453 28.169922L26.070312 28.419922L26.009766 28.869141C25.999766 28.949141 25.95 29.35 26 30C26 31.25 27.02 32 28 32L30.130859 32C30.410859 34 31.220078 39.019531 32.580078 43.019531C32.720078 43.009531 32.86 43 33 43L33.400391 43C34.030391 41.44 35.45 40 38 40L39 40L39 42L38 42C35 42 35 45 35 45L33 45C31.47 45 31.089766 46.37 31.009766 47.25L31.080078 48L43.050781 48C43.890781 48 44.609141 47.699141 45.119141 47.119141C45.539419 46.656409 45.762517 46.087674 45.882812 45.552734C46.331619 45.130027 47.256666 44.127263 47.705078 42.669922C48.308935 40.707386 47.846324 37.903837 44.640625 35.232422L43.359375 36.767578C46.153676 39.096163 46.191065 40.792614 45.794922 42.080078C45.774356 42.146916 45.746374 42.207056 45.722656 42.271484C45.345432 41.079132 44.623151 40.033785 43.810547 38.880859C43.510547 38.440859 43.179844 37.969219 42.839844 37.449219C41.279844 35.079219 39.919922 32.599609 39.919922 32.599609C39.879922 32.519609 37.580703 27.279531 36.970703 24.769531C36.630703 23.349531 34.280547 21.659922 33.560547 21.169922L32.240234 20.279297 z" />
</svg>