<?xml version="1.0" encoding="utf-8"?>
<svg xmlns="http://www.w3.org/2000/svg" viewBox="0 0 50 50" width="515" height="515">
  <path d="M16 50C11.515625 50 8 46.484375 8 42C3.515625 42 0 38.484375 0 34C0 29.515625 3.515625 26 8 26C9.835938 26 11.53125 26.59375 12.960938 27.726563L27.730469 12.957031C26.621094 11.535156 26 9.777344 26 8C26 3.515625 29.515625 0 34 0C38.484375 0 42 3.515625 42 8C46.484375 8 50 11.515625 50 16C50 20.484375 46.484375 24 42 24C40.164063 24 38.46875 23.40625 37.039063 22.273438L22.269531 37.042969C23.378906 38.464844 24 40.222656 24 42C24 46.484375 20.484375 50 16 50Z" />
</svg>