<?xml version="1.0" encoding="utf-8"?>
<svg xmlns="http://www.w3.org/2000/svg" viewBox="0 0 50 50" width="515" height="515">
  <path d="M45 3C43.894531 3 43 3.894531 43 5C43 6.105469 43.894531 7 45 7C46.105469 7 47 6.105469 47 5C47 3.894531 46.105469 3 45 3 Z M 33 3.8125C32.898438 3.8125 32.789063 3.855469 32.6875 3.90625L28.5 5.1875C25.601563 4.289063 22.511719 6.804688 22.3125 6.90625C22.113281 7.007813 22 7.289063 22 7.6875C22 7.988281 22.199219 8.300781 22.5 8.5L26.40625 10.59375L24.40625 14.5L10.6875 23.3125L7.1875 22.90625C5.789063 22.707031 4.613281 23.699219 4.3125 25C4.210938 25.699219 4.3125 26.398438 4.8125 27C5.210938 27.601563 5.800781 27.898438 6.5 28L8.59375 28.3125C8.894531 29.511719 9.6875 31.90625 11.6875 33.90625C10.886719 35.605469 8.613281 40.105469 7.3125 42.90625C6.914063 43.707031 6.792969 44.695313 7.09375 45.59375C7.394531 46.492188 8.007813 47.195313 8.90625 47.59375L9 47.59375C9.5 47.792969 10 47.90625 10.5 47.90625C11.800781 47.90625 12.992188 47.199219 13.59375 46L20.6875 31.8125C21.886719 31.3125 26.105469 29.488281 30.40625 26.1875L43.90625 29.09375C45.707031 29.492188 47.507813 28.394531 47.90625 26.59375C48.207031 25.792969 47.992188 24.894531 47.59375 24.09375C47.09375 23.292969 46.304688 22.699219 45.40625 22.5L35.6875 20.3125C35.585938 18.613281 34.6875 17.414063 34.1875 16.8125L35.1875 13.8125L40.5 11C40.800781 10.800781 41 10.492188 41 10.09375L41 6.40625C41 5.90625 40.59375 5.507813 40.09375 5.40625L36 4.90625L33.3125 3.90625C33.210938 3.855469 33.101563 3.8125 33 3.8125 Z M 34 7C34.601563 7 35 7.398438 35 8C35 8.601563 34.601563 9 34 9C33.398438 9 33 8.601563 33 8C33 7.398438 33.398438 7 34 7 Z M 43.75 14.96875C43.539063 14.960938 43.304688 14.960938 43.09375 15L36.40625 16.1875L36.3125 16.40625C36.710938 17.007813 37.113281 17.695313 37.3125 18.59375L45.8125 20.5C45.914063 20.5 46 20.59375 46 20.59375C46.101563 20.492188 46.304688 20.292969 46.40625 20.09375C46.90625 19.394531 47.105469 18.394531 46.90625 17.59375C46.554688 16.105469 45.21875 15.019531 43.75 14.96875 Z M 8.1875 32.6875L3 37.59375C2.398438 38.195313 2 39.101563 2 40C2 40.898438 2.398438 41.804688 3 42.40625C3.601563 43.007813 4.292969 43.3125 5.09375 43.3125C5.195313 42.914063 5.300781 42.492188 5.5 42.09375C6.601563 39.792969 8.3125 36.414063 9.3125 34.3125C8.914063 33.8125 8.488281 33.1875 8.1875 32.6875Z" />
</svg>