<?xml version="1.0" encoding="utf-8"?>
<svg xmlns="http://www.w3.org/2000/svg" viewBox="0 0 50 50" width="515" height="515">
  <path d="M23.0625 0.1875C22.238281 0.351563 20.085938 1.6875 19.34375 4.53125C16.597656 5.882813 15 9.5 15 11.65625C15 14.710938 16.816406 19 20.84375 19C25.078125 19 26 13.539063 26 11.4375C26 7.164063 24.871094 5.25 23.5 4.46875C24.046875 2.136719 23.683594 0.367188 23.3125 0.1875C23.257813 0.160156 23.183594 0.164063 23.0625 0.1875 Z M 30.71875 1.25C30.351563 1.410156 30.207031 2.917969 30.34375 5.125C28.207031 5.710938 27 8.394531 27 12.6875C27 14.980469 28.425781 20 32.6875 20C37.035156 20 39 16.027344 39 13.21875C39 10.742188 37.238281 7.3125 34.375 5.78125C33.601563 3.164063 31.144531 1.066406 30.71875 1.25 Z M 10.375 15.1875C9.9375 15.070313 8.164063 16.117188 7.8125 19.5625C7.695313 19.6875 7.609375 19.832031 7.5 19.96875C6.121094 21.710938 5.65625 24.40625 6.28125 27.03125C6.984375 29.992188 9.46875 33 12.875 33C14.644531 33 15.390625 31.902344 16 31.03125C16.28125 30.625 16.5625 30.242188 16.9375 29.90625L17.09375 29.78125C18.113281 28.871094 19 28.070313 19 26.1875C19 25.117188 18.109375 23.902344 17.09375 22.5C16.84375 22.15625 16.609375 21.8125 16.375 21.46875C15.222656 19.789063 13.808594 18 11.59375 18C11.5 18 11.40625 17.996094 11.3125 18C11.070313 16.609375 10.679688 15.273438 10.375 15.1875 Z M 43.1875 18.625C42.839844 18.625 42.003906 19.914063 41.4375 21.34375C40.84375 21.117188 40.199219 21 39.5 21C37.59375 21 35.839844 22.0625 34.4375 24.09375L33.96875 24.75C32.902344 26.261719 32 27.570313 32 28.71875C32 30.144531 32.675781 30.839844 33.28125 31.46875C33.539063 31.734375 33.8125 32.019531 34.0625 32.375L34.21875 32.59375C35.277344 34.113281 36.59375 36 38.9375 36C43.109375 36 43.976563 32.636719 44.5625 30.40625L44.65625 30.03125C45.164063 28.128906 45.074219 26.195313 44.46875 24.59375C46.035156 21.234375 43.675781 18.625 43.1875 18.625 Z M 24.6875 28C21.621094 28 20.503906 28.671875 18.9375 33.03125C18.195313 35.101563 16.542969 36.148438 14.96875 37.1875C13.011719 38.480469 11 39.816406 11 42.84375C11 46.058594 14.261719 50 18.0625 50C19.6875 50 20.890625 49.667969 21.96875 49.375C22.84375 49.136719 23.621094 48.9375 24.46875 48.9375C25.296875 48.9375 25.929688 49.097656 26.65625 49.3125C27.597656 49.589844 28.660156 49.90625 30.34375 49.90625C34.921875 49.90625 37 46.496094 37 43.3125C37 41.171875 35.339844 39.5625 33.71875 38C32.285156 36.621094 30.789063 35.195313 30.40625 33.4375C29.898438 31.105469 28.757813 28 24.6875 28Z" />
</svg>