<?xml version="1.0" encoding="utf-8"?>
<svg xmlns="http://www.w3.org/2000/svg" viewBox="0 0 50 50" width="515" height="515">
  <path d="M25 1C24.80225 1 24.604594 1.0587813 24.433594 1.1757812L1.4335938 16.976562C1.1625937 17.162562 1 17.471781 1 17.800781L1 21.300781C1 21.672781 1.2061562 22.012547 1.5351562 22.185547C1.8651563 22.357547 2.2643594 22.335047 2.5683594 22.123047L25 6.6152344L47.431641 22.121094C47.601641 22.239094 47.801 22.300781 48 22.300781C48.159 22.300781 48.317844 22.261547 48.464844 22.185547C48.793844 22.012547 49 21.672781 49 21.300781L49 17.800781C49 17.471781 48.838406 17.162563 48.566406 16.976562L25.566406 1.1757812C25.395406 1.0587813 25.19775 1 25 1 z M 25 9.0507812L7 21.490234L5 22.869141L5 46C5 46.55 5.45 47 6 47L17 47C17.55 47 18 46.55 18 46L18 33C18 29.14 21.14 26 25 26C28.86 26 32 29.14 32 33L32 46C32 46.55 32.45 47 33 47L44 47C44.55 47 45 46.55 45 46L45 22.880859L43 21.5L25 9.0507812 z" />
</svg>