<?xml version="1.0" encoding="utf-8"?>
<svg xmlns="http://www.w3.org/2000/svg" viewBox="0 0 50 50" width="515" height="515">
  <path d="M25 5C24.684 5 24.337 5.01825 24 5.03125L24 22.941406C24 25.956406 22.344313 28.72575 19.570312 30.34375C16.227313 32.29675 14 34.627203 14 39.658203C14 41.736203 15.306563 43.027719 16.601562 43.386719C17.002562 43.497719 18.376578 43.760328 19.142578 42.486328C20.145578 40.810328 21.992 38.890266 24 38.697266L24 34.912109C22.278 34.633109 21 33.664 21 32.5C21 31.119 22.791 30 25 30C27.209 30 29 31.119 29 32.5C29 33.664 27.722 34.633109 26 34.912109L26 38.667969C28.172 38.711969 29.802797 40.845937 30.841797 42.460938C31.480797 43.451937 32.616656 43.539109 33.472656 43.287109C34.638656 42.943109 36 41.787203 36 39.658203C36 34.627203 33.772687 32.29675 30.429688 30.34375C27.655687 28.72575 26 25.956406 26 22.941406L26 5.0292969C25.655 5.0112969 25.319 5 25 5 z M 22 5.1738281C18.141 5.5768281 13.530922 6.7552031 9.7949219 9.1582031C4.0229219 12.870203 3.5477813 20.158375 5.5507812 25.359375C6.2637813 27.212375 7.77825 28.759688 9.40625 29.304688C9.68125 29.395688 9.9555156 29.458234 10.228516 29.490234C10.283516 24.227234 11.960313 19.904906 12.070312 19.628906C12.275313 19.116906 12.857141 18.865313 13.369141 19.070312C13.882141 19.275312 14.133688 19.856141 13.929688 20.369141C13.896688 20.453141 11.007797 27.862234 12.841797 34.740234C14.031797 31.677234 16.314453 29.929234 18.564453 28.615234C20.715453 27.359234 22 25.237406 22 22.941406L22 5.1738281 z M 28 5.2070312L28 22.941406C28 25.237406 29.2855 27.358234 31.4375 28.615234C33.7665 29.975234 36.124391 31.807172 37.275391 35.076172C39.298391 28.105172 36.328922 20.457094 36.294922 20.371094C36.090922 19.858094 36.340516 19.277266 36.853516 19.072266C37.363516 18.866266 37.947344 19.115906 38.152344 19.628906C38.261344 19.902906 39.930047 24.194641 39.998047 29.431641C40.165047 29.399641 40.332953 29.375313 40.501953 29.320312C42.113953 28.795313 43.639672 27.244094 44.388672 25.371094C46.422672 20.285094 45.147766 12.560016 40.009766 9.1660156C36.895766 7.1090156 32.022 5.7080312 28 5.2070312 z M 18 21C19.105 21 20 21.895 20 23C20 24.105 19.105 25 18 25C16.895 25 16 24.105 16 23C16 21.895 16.895 21 18 21 z M 32 21C33.105 21 34 21.895 34 23C34 24.105 33.105 25 32 25C30.895 25 30 24.105 30 23C30 21.895 30.895 21 32 21 z M 24.320312 40.658203C23.169313 40.658203 21.706422 42.095672 20.857422 43.513672C20.826422 43.564672 20.789813 43.609203 20.757812 43.658203C21.935813 44.497203 23.405 45 25 45C26.598 45 28.068094 44.495297 29.246094 43.654297C29.219094 43.614297 29.184203 43.583969 29.158203 43.542969C27.927203 41.629969 26.843594 40.658203 25.933594 40.658203L24.320312 40.658203 z" />
</svg>