<?xml version="1.0" encoding="utf-8"?>
<svg xmlns="http://www.w3.org/2000/svg" viewBox="0 0 50 50" width="515" height="515">
  <path d="M16.839844 2.015625C16.558594 2.035156 16.289063 2.105469 16.058594 2.222656C15.128906 2.691406 14.753906 3.5625 14.597656 4.34375C14.515625 4.769531 14.53125 5.148438 14.53125 5.636719C14.53125 6.125 14.539063 6.6875 14.519531 7.289063C14.484375 8.414063 14.332031 9.671875 13.921875 10.785156C13.378906 11.152344 12.75 11.546875 11.9375 12C7.949219 14.21875 5.484375 18.054688 4.003906 21.625C2.523438 25.191406 2 28.441406 2 30C2 32.976563 1.945313 38.472656 7.242188 44.652344C10.5625 48.523438 16.035156 49.230469 20.996094 48.828125C25.957031 48.429688 30.460938 46.949219 32.46875 45.882813C39.144531 42.34375 43.128906 37.707031 45.261719 33.523438C46.324219 31.429688 46.929688 29.453125 47.183594 27.761719C47.4375 26.066406 47.371094 24.675781 46.921875 23.609375C45.265625 19.714844 46 17.382813 46 15C46 13.636719 45.417969 11.773438 44.777344 9.90625C44.136719 8.039063 43.492188 6.40625 43.011719 5.601563C42.628906 4.960938 42.101563 4.1875 41.257813 3.6875C40.835938 3.433594 40.277344 3.253906 39.683594 3.367188C39.089844 3.484375 38.566406 3.882813 38.1875 4.417969C37.738281 5.042969 36.496094 6.3125 35.414063 7.335938C34.535156 8.171875 34.035156 8.609375 33.765625 8.84375C32.980469 8.578125 30.246094 7.742188 26.65625 8.273438C26.132813 8.070313 25.589844 7.917969 25.046875 7.789063L25.0625 7.757813C25.0625 7.757813 22.273438 6.433594 19.238281 3.183594C18.746094 2.65625 18.246094 2.292969 17.6875 2.113281C17.410156 2.023438 17.121094 1.992188 16.839844 2.015625 Z M 40.0625 5.335938C40.058594 5.335938 40.09375 5.320313 40.234375 5.40625C40.519531 5.574219 41.003906 6.144531 41.296875 6.632813C41.492188 6.953125 42.269531 8.761719 42.886719 10.554688C43.5 12.347656 44 14.363281 44 15C44 15.722656 43.890625 16.617188 43.851563 17.683594C43 17.007813 41.886719 16.203125 40.574219 15.414063C40.207031 15.03125 39.875 14.578125 39.621094 14.128906C39.230469 13.453125 39.09375 13.03125 39.042969 12.882813C39.191406 12.34375 39.960938 9.40625 39.5 5.972656C39.605469 5.84375 39.726563 5.703125 39.8125 5.582031C39.996094 5.328125 40.066406 5.332031 40.0625 5.335938 Z M 12.265625 19C13.039063 19 13.792969 19.671875 14.183594 20.074219C13.777344 19.867188 13.273438 19.667969 12.75 19.640625C12.015625 20.140625 11.558594 20.808594 11.558594 21.550781C11.558594 21.867188 11.65625 22.167969 11.808594 22.449219C11.886719 22.457031 11.96875 22.464844 12.058594 22.464844C12.578125 22.464844 13.042969 22.292969 13.449219 22.058594C12.992188 22.621094 12.40625 23.109375 11.714844 23.109375C10.070313 23.109375 10.074219 20.640625 10.074219 20.640625C10.074219 20.640625 11.167969 19 12.265625 19 Z M 24.5 20C25.238281 20 26.269531 20 27.28125 21.011719C27.332031 21.0625 27.355469 21.089844 27.402344 21.140625C26.582031 20.75 25.785156 20.6875 25.144531 20.683594C24.304688 21.515625 23.816406 22.519531 23.816406 23.59375C23.816406 23.695313 23.832031 23.789063 23.839844 23.886719C24.292969 24.070313 24.832031 24.179688 25.453125 24.128906C26.128906 24.074219 26.714844 23.871094 27.214844 23.628906C26.65625 24.171875 25.914063 24.695313 25.003906 24.808594C22.980469 25.0625 21.894531 22.5625 21.894531 22.5625C21.894531 22.5625 22 20 24.5 20 Z M 39.082031 22.109375C41.117188 22.066406 42.875 22.875 44 24C44.601563 24.601563 45.007813 25.195313 45.300781 25.746094C45.320313 26.238281 45.300781 26.8125 45.203125 27.464844C44.988281 28.917969 44.449219 30.703125 43.476563 32.613281C41.53125 36.4375 37.859375 40.761719 31.53125 44.117188C29.980469 44.9375 25.484375 46.460938 20.832031 46.835938C16.183594 47.210938 11.4375 46.476563 8.757813 43.347656C3.835938 37.605469 4 33.023438 4 30C4 29.085938 4.363281 26.480469 5.375 23.625C6.316406 23.960938 7.945313 24.78125 8.507813 26.234375C7.902344 26.476563 7.335938 27.03125 7.148438 28.144531C6.890625 29.703125 8.445313 32.03125 9.742188 32.03125C9.742188 32.03125 10.164063 32.164063 11.199219 31.90625C12.234375 31.644531 14.152344 30.21875 14.925781 28.144531C15.179688 27.472656 14.800781 27.011719 14.132813 26.699219C15.949219 25.988281 18.503906 25.25 22 27C28 30 31.117188 26.164063 34 24C35.75 22.6875 37.5 22.140625 39.082031 22.109375 Z M 10.375 33.042969C8.8125 32.964844 7.5625 34.5625 7.5625 34.5625C7.5625 34.5625 9.457031 35.765625 11.375 36.207031C19.230469 38.015625 21.8125 34.625 21.8125 34.625C21.8125 34.625 18.570313 35.65625 15.007813 35.230469C12.871094 34.972656 11.621094 33.105469 10.375 33.042969 Z M 10.703125 37.804688C10.296875 37.804688 9.933594 38.054688 9.78125 38.429688C9.628906 38.808594 9.722656 39.242188 10.015625 39.523438C10.988281 40.492188 12.644531 41.238281 14.558594 41.238281C14.917969 41.242188 15.253906 41.054688 15.433594 40.742188C15.617188 40.429688 15.617188 40.046875 15.433594 39.734375C15.253906 39.421875 14.917969 39.234375 14.558594 39.238281C13.230469 39.238281 11.878906 38.558594 11.421875 38.105469C11.234375 37.914063 10.976563 37.804688 10.703125 37.804688Z" />
</svg>