<?xml version="1.0" encoding="utf-8"?>
<svg xmlns="http://www.w3.org/2000/svg" viewBox="0 0 50 50" width="515" height="515">
  <path d="M18.5 0C13.81 0 10 3.81 10 8.5C10 11.54 11.6 14.200938 14 15.710938L14 13.169922C12.77 11.989922 12 10.33 12 8.5C12 4.92 14.92 2 18.5 2C22.08 2 25 4.92 25 8.5C25 10.33 24.23 11.989922 23 13.169922L23 15.710938C25.4 14.200938 27 11.54 27 8.5C27 3.81 23.19 0 18.5 0 z M 18.498047 6.0429688C17.532047 6.0429688 16 6.6906406 16 8.4316406L16 29.296875C15.15 29.806875 12 31.182 12 36C12 40 14.516234 43.156734 15.990234 45.177734C17.468234 47.204734 19.271969 49.934141 24.792969 49.994141C24.829969 49.996141 33 50 33 50C37.424 50 42 46.634 42 41L42 23.582031C42 22.207031 41.254203 21 39.533203 21C37.812203 21 37.027344 22.18825 37.027344 23.53125L37.027344 26C37.027344 26.552 36.580344 27 36.027344 27C35.474344 27 35 26.552 35 26L35 21.478516C35.021 20.270516 34.272484 19 32.521484 19C30.770484 19 30.015625 20.362859 30.015625 21.505859L30.015625 25.013672C30.015625 25.565672 29.568625 26.013672 29.015625 26.013672C28.463625 26.013672 27.999047 25.565672 27.998047 25.013672L27.998047 20.505859C27.999047 19.494859 27.218766 18 25.509766 18C23.799766 18 23.003906 19.494859 23.003906 20.505859L23.003906 26C23.003906 26.552 22.555906 27 22.003906 27C21.451906 27 21 26.552 21 26L21 8.5488281C21 6.7098281 19.505047 6.0429688 18.498047 6.0429688 z" />
</svg>