<?xml version="1.0" encoding="utf-8"?>
<svg xmlns="http://www.w3.org/2000/svg" viewBox="0 0 50 50" width="515" height="515">
  <path d="M27.960938 2.980469C27.441406 2.996094 26.949219 3.214844 26.585938 3.585938L5.171875 25L26.585938 46.414063C27.085938 46.9375 27.832031 47.148438 28.535156 46.964844C29.234375 46.78125 29.78125 46.234375 29.964844 45.535156C30.148438 44.832031 29.9375 44.085938 29.414063 43.585938L10.828125 25L29.414063 6.414063C30.003906 5.839844 30.183594 4.960938 29.863281 4.199219C29.539063 3.441406 28.785156 2.957031 27.960938 2.980469 Z M 40.960938 2.980469C40.441406 2.996094 39.949219 3.214844 39.585938 3.585938L18.171875 25L39.585938 46.414063C40.085938 46.9375 40.832031 47.148438 41.535156 46.964844C42.234375 46.78125 42.78125 46.234375 42.964844 45.535156C43.148438 44.832031 42.9375 44.085938 42.414063 43.585938L23.828125 25L42.414063 6.414063C43.003906 5.839844 43.183594 4.960938 42.863281 4.199219C42.539063 3.441406 41.785156 2.957031 40.960938 2.980469Z" />
</svg>