<?xml version="1.0" encoding="utf-8"?>
<svg xmlns="http://www.w3.org/2000/svg" viewBox="0 0 50 50" width="515" height="515">
  <path d="M24.984375 1.9863281 A 1.0001 1.0001 0 0 0 24.814453 2.0039062C12.217953 2.1044612 2 12.37923 2 25C2 37.683 12.318 48 25 48C37.682 48 48 37.683 48 25C48 18.821 45.546359 13.209266 41.568359 9.0722656C41.567359 9.0712656 41.567406 9.0693594 41.566406 9.0683594C41.566406 9.0683594 41.564453 9.0664062 41.564453 9.0664062C40.511214 7.971913 39.349663 6.9816979 38.099609 6.1113281 A 1.0001 1.0001 0 0 0 37.683594 5.8359375C34.093798 3.4497831 29.803143 2.0412222 25.1875 2.0039062C25.186193 2.0038957 25.184901 2.0039166 25.183594 2.0039062 A 1.0001 1.0001 0 0 0 24.984375 1.9863281 z M 24 4.0253906L24 16.058594C19.507586 16.558435 16 20.375651 16 25C16 29.963 20.038 34 25 34C27.122 34 29.071328 33.258391 30.611328 32.025391L39.101562 40.515625C35.370562 43.909625 30.43 46 25 46C13.42 46 4 36.579 4 25C4 13.756623 12.883163 4.5497804 24 4.0253906 z M 26 4.0253906C26.21863 4.0357702 26.435531 4.0532223 26.652344 4.0703125L26 4.7226562L26 4.0253906 z M 29.134766 4.4160156C29.986189 4.5879512 30.812271 4.8273331 31.623047 5.0996094L26 10.722656L26 7.546875 A 1.0001 1.0001 0 0 0 26.070312 7.4804688L29.134766 4.4160156 z M 33.650391 5.9003906C34.365386 6.2273132 35.058871 6.5920131 35.728516 6.9941406L26.582031 16.140625C26.390739 16.106513 26.195249 16.084256 26 16.0625L26 13.550781L33.650391 5.9003906 z M 37.423828 8.1269531C38.1134 8.6373146 38.782161 9.173301 39.404297 9.7617188L30.748047 18.083984C30.139379 17.576761 29.462606 17.150606 28.734375 16.816406L37.423828 8.1269531 z M 24.884766 18.005859 A 1.0001 1.0001 0 0 0 25.123047 18.005859C28.925931 18.072423 32 21.182507 32 25C32 28.859 28.86 32 25 32C21.14 32 18 28.859 18 25C18 21.179878 21.078258 18.068267 24.884766 18.005859 z" />
</svg>