<?xml version="1.0" encoding="utf-8"?>
<svg xmlns="http://www.w3.org/2000/svg" viewBox="0 0 50 50" width="515" height="515">
  <path d="M12.875 2L11.757813 2.28125C10.113281 2.691406 7 4.21875 7 8C7 9.695313 7.480469 11.089844 7.820313 11.859375C7.140625 12.785156 6 14.8125 6 18C6 22.132813 8.863281 24.675781 10.015625 25.53125C10.226563 29.703125 12.914063 32.722656 17.0625 33.675781C13.75 37.617188 10.5 41.277344 8.328125 43.261719C8.117188 43.449219 8 43.71875 8 44C8 45.851563 11.496094 48 16 48C20.855469 48 24.453125 46.898438 26.695313 44.71875C26.890625 44.53125 27 44.269531 27 44L27 38.875C31.605469 38.144531 39 35.148438 39 28C39 25.796875 38.570313 23.414063 38.265625 22L43 22C43.367188 22 43.707031 21.796875 43.882813 21.472656C44.058594 21.148438 44.035156 20.753906 43.832031 20.445313L41.960938 17.640625C41.789063 16.484375 40.875 12 37 12C33.546875 12 32.019531 14.261719 30.25 16.878906C29.917969 17.371094 29.566406 17.890625 29.1875 18.417969C28.691406 19.109375 27.816406 20.269531 26.695313 21.71875C23.925781 20.21875 14.164063 14.195313 12.996094 3.140625 Z M 27 3C21.4375 3 21.03125 8 21 10.46875C20.332031 11 19.710938 11.816406 19.246094 12.800781C21.566406 15.757813 24.316406 17.851563 26.203125 19.074219C26.78125 18.316406 27.246094 17.691406 27.558594 17.253906L28.074219 16.53125C28.421875 16.042969 28.769531 15.554688 29.128906 15.078125C28.53125 12.660156 28 9.085938 28 4L28 3Z" />
</svg>