<?xml version="1.0" encoding="utf-8"?>
<svg xmlns="http://www.w3.org/2000/svg" viewBox="0 0 50 50" width="515" height="515">
  <path d="M29 4C23.805395 4 19.6756 7.1535267 17.623047 11.599609C16.274333 10.677074 14.625017 10 13 10C11.277778 10 9.5024818 10.583456 8.1679688 11.917969C6.9592545 13.126683 6.2490085 14.996489 6.109375 17.330078C2.4915446 18.704882 0 21.955442 0 26.199219C0 31.554774 4.4666667 36 10 36L18 36L32 36L41 36C46.48 36 50 31.854545 50 27C50 22.408551 46.457983 18.726989 42 18.203125L42 17C42 9.6803922 36.217413 4 29 4 z" />
</svg>