<?xml version="1.0" encoding="utf-8"?>
<svg xmlns="http://www.w3.org/2000/svg" viewBox="0 0 50 50" width="515" height="515">
  <path d="M25 2C12.316406 2 2 12.316406 2 25C2 37.683594 12.316406 48 25 48C37.683594 48 48 37.683594 48 25C48 12.316406 37.683594 2 25 2 Z M 35.707031 22.707031L25.707031 32.707031C25.511719 32.902344 25.257813 33 25 33C24.742188 33 24.488281 32.902344 24.292969 32.707031L14.292969 22.707031C13.902344 22.316406 13.902344 21.683594 14.292969 21.292969C14.683594 20.902344 15.316406 20.902344 15.707031 21.292969L25 30.585938L34.292969 21.292969C34.683594 20.902344 35.316406 20.902344 35.707031 21.292969C36.097656 21.683594 36.097656 22.316406 35.707031 22.707031Z" />
</svg>