<?xml version="1.0" encoding="utf-8"?>
<svg xmlns="http://www.w3.org/2000/svg" viewBox="0 0 50 50" width="515" height="515">
  <path d="M23 0C22.449219 0 22 0.449219 22 1L22 3.53125C22.941406 3.195313 23.945313 3 25 3C26.054688 3 27.058594 3.195313 28 3.53125L28 1C28 0.449219 27.554688 0 27 0 Z M 25 5C21.140625 5 18 8.140625 18 12C18 15.859375 21.140625 19 25 19C28.859375 19 32 15.859375 32 12C32 8.140625 28.859375 5 25 5 Z M 25 9C26.65625 9 28 10.34375 28 12C28 13.65625 26.65625 15 25 15C23.34375 15 22 13.65625 22 12C22 10.34375 23.34375 9 25 9 Z M 17.75 17.28125L10.5625 33L5.71875 33C5.371094 32.402344 4.738281 32 4 32C2.894531 32 2 32.894531 2 34C2 35.105469 2.894531 36 4 36C4.738281 36 5.371094 35.597656 5.71875 35L22 35L22 37C22 37.554688 22.449219 38 23 38L27 38C27.554688 38 28 37.554688 28 37L28 35L44.28125 35C44.628906 35.597656 45.261719 36 46 36C47.105469 36 48 35.105469 48 34C48 32.894531 47.105469 32 46 32C45.261719 32 44.628906 32.402344 44.28125 33L39.4375 33L32.25 17.28125C31.035156 18.945313 29.269531 20.191406 27.21875 20.71875L32.84375 33L28 33L28 31C28 30.445313 27.554688 30 27 30L23 30C22.449219 30 22 30.445313 22 31L22 33L17.15625 33L22.78125 20.71875C20.730469 20.191406 18.964844 18.945313 17.75 17.28125 Z M 8.75 37L6.34375 42.28125C5.8125 43.460938 6.125 44.800781 7 45.65625L5.6875 48.59375C5.460938 49.097656 5.683594 49.679688 6.1875 49.90625C6.320313 49.96875 6.457031 50 6.59375 50C6.976563 50 7.332031 49.773438 7.5 49.40625L8.8125 46.5C8.898438 46.507813 8.976563 46.53125 9.0625 46.53125C10.238281 46.53125 11.296875 45.851563 11.78125 44.78125L15.34375 37 Z M 34.65625 37L38.21875 44.78125C38.703125 45.851563 39.761719 46.53125 40.9375 46.53125C41.023438 46.53125 41.101563 46.507813 41.1875 46.5L42.5 49.40625C42.667969 49.773438 43.023438 50 43.40625 50C43.542969 50 43.679688 49.96875 43.8125 49.90625C44.316406 49.679688 44.539063 49.097656 44.3125 48.59375L43 45.6875C43.886719 44.832031 44.195313 43.46875 43.65625 42.28125L41.25 37Z" />
</svg>