<?xml version="1.0" encoding="utf-8"?>
<svg xmlns="http://www.w3.org/2000/svg" viewBox="0 0 50 50" width="515" height="515">
  <path d="M2 13L2 17L48 17L48 13 Z M 2 23L2 27L48 27L48 23 Z M 2 33L2 37L48 37L48 33 Z M 18 41C17.597656 41 17.21875 41.25 17.0625 41.625C16.90625 42 16.996094 42.433594 17.28125 42.71875L24.28125 49.71875C24.476563 49.914063 24.742188 50 25 50C25.257813 50 25.523438 49.914063 25.71875 49.71875L32.71875 42.71875C33.003906 42.433594 33.09375 42 32.9375 41.625C32.785156 41.25 32.402344 41 32 41Z" />
</svg>