<?xml version="1.0" encoding="utf-8"?>
<svg xmlns="http://www.w3.org/2000/svg" viewBox="0 0 50 50" width="515" height="515">
  <path d="M25 0.09375L16.09375 9C15.570313 9.5 15.355469 10.242188 15.535156 10.945313C15.714844 11.644531 16.257813 12.195313 16.957031 12.382813C17.65625 12.570313 18.402344 12.363281 18.90625 11.84375L23 7.75L23 23L7.6875 23L11.78125 18.90625C12.375 18.332031 12.554688 17.457031 12.234375 16.695313C11.917969 15.9375 11.167969 15.449219 10.34375 15.46875C9.820313 15.488281 9.328125 15.714844 8.96875 16.09375L0.0625 25L8.96875 33.90625C9.449219 34.503906 10.226563 34.773438 10.972656 34.601563C11.722656 34.429688 12.304688 33.847656 12.476563 33.097656C12.648438 32.351563 12.378906 31.574219 11.78125 31.09375L7.6875 27L23 27L23 42.28125L18.90625 38.1875C18.53125 37.792969 18.011719 37.566406 17.46875 37.5625C16.65625 37.570313 15.929688 38.066406 15.628906 38.820313C15.324219 39.574219 15.511719 40.433594 16.09375 41L23.59375 48.5L25 49.9375L26.40625 48.5L33.90625 41C34.503906 40.519531 34.773438 39.742188 34.601563 38.996094C34.429688 38.246094 33.847656 37.664063 33.097656 37.492188C32.351563 37.320313 31.574219 37.589844 31.09375 38.1875L27 42.28125L27 27L42.25 27L38.15625 31.09375C37.558594 31.574219 37.289063 32.351563 37.460938 33.097656C37.632813 33.847656 38.214844 34.429688 38.964844 34.601563C39.710938 34.773438 40.488281 34.503906 40.96875 33.90625L48.46875 26.40625L49.90625 25L48.46875 23.59375L40.96875 16.09375C40.59375 15.699219 40.074219 15.472656 39.53125 15.46875C39.46875 15.464844 39.40625 15.464844 39.34375 15.46875C38.566406 15.542969 37.902344 16.066406 37.648438 16.804688C37.390625 17.546875 37.589844 18.367188 38.15625 18.90625L42.25 23L27 23L27 7.75L31.09375 11.84375C31.597656 12.363281 32.34375 12.570313 33.042969 12.382813C33.742188 12.195313 34.285156 11.644531 34.464844 10.945313C34.644531 10.242188 34.429688 9.5 33.90625 9Z" />
</svg>