<?xml version="1.0" encoding="utf-8"?>
<svg xmlns="http://www.w3.org/2000/svg" viewBox="0 0 50 50" width="515" height="515">
  <path d="M24 0C23.445313 0 23 0.445313 23 1L23 3.4375C21.242188 4.210938 20 5.957031 20 8C20 10.757813 22.242188 13 25 13C27.757813 13 30 10.757813 30 8C30 5.957031 28.757813 4.210938 27 3.4375L27 1C27 0.445313 26.554688 0 26 0 Z M 19.09375 11.75L13.8125 26L7.96875 26C7.925781 25.996094 7.886719 25.996094 7.84375 26C7.292969 26.035156 6.871094 26.511719 6.90625 27.0625C6.941406 27.613281 7.417969 28.035156 7.96875 28L23 28L23 31C23 31.554688 23.445313 32 24 32L26 32C26.554688 32 27 31.554688 27 31L27 28L42 28C42.359375 28.003906 42.695313 27.816406 42.878906 27.503906C43.058594 27.191406 43.058594 26.808594 42.878906 26.496094C42.695313 26.183594 42.359375 25.996094 42 26L36.1875 26L30.90625 11.75C29.777344 13.523438 27.886719 14.757813 25.6875 14.96875L29.9375 26L27 26L27 23C27 22.445313 26.554688 22 26 22L24 22C23.445313 22 23 22.445313 23 23L23 26L20.0625 26L24.3125 14.96875C22.113281 14.757813 20.222656 13.523438 19.09375 11.75 Z M 12.375 29.90625L8.3125 40.84375C8.238281 41.046875 8.25 41.289063 8.3125 41.5L10 47.125L10 49C9.996094 49.359375 10.183594 49.695313 10.496094 49.878906C10.808594 50.058594 11.191406 50.058594 11.503906 49.878906C11.816406 49.695313 12.003906 49.359375 12 49L12 47.125L18.59375 29.90625 Z M 31.40625 29.90625L38 47.125L38 49C37.996094 49.359375 38.183594 49.695313 38.496094 49.878906C38.808594 50.058594 39.191406 50.058594 39.503906 49.878906C39.816406 49.695313 40.003906 49.359375 40 49L40 47.125L41.6875 41.5C41.75 41.289063 41.765625 41.046875 41.6875 40.84375L37.625 29.90625Z" />
</svg>