<?xml version="1.0" encoding="utf-8"?>
<svg xmlns="http://www.w3.org/2000/svg" viewBox="0 0 50 50" width="515" height="515">
  <path d="M24.90625 0.96875C24.863281 0.976563 24.820313 0.988281 24.78125 1C24.316406 1.105469 23.988281 1.523438 24 2L24 4.1875L20 5.03125C20 5.019531 20 5.011719 20 5C20 4.679688 19.855469 4.375 19.59375 4.1875C19.332031 4 18.992188 3.957031 18.6875 4.0625L15.6875 5.0625C15.28125 5.199219 15 5.570313 15 6C15 6.039063 15 6.085938 15 6.125L10.78125 7.03125C10.398438 7.070313 10.070313 7.328125 9.941406 7.691406C9.8125 8.054688 9.90625 8.460938 10.175781 8.734375C10.449219 9.003906 10.855469 9.097656 11.21875 8.96875L15.0625 8.125C15.289063 12.824219 16.152344 17.910156 16.65625 20.5C19.066406 21.199219 22.300781 21.9375 25 21.9375C27.699219 21.9375 30.933594 21.199219 33.34375 20.5C33.847656 17.910156 34.710938 12.824219 34.9375 8.125L38.78125 8.96875C39.144531 9.097656 39.550781 9.003906 39.824219 8.734375C40.09375 8.460938 40.1875 8.054688 40.058594 7.691406C39.929688 7.328125 39.601563 7.070313 39.21875 7.03125L35 6.125C35 6.085938 35 6.039063 35 6C35 5.570313 34.722656 5.199219 34.3125 5.0625L31.3125 4.0625C31.007813 3.957031 30.667969 4 30.40625 4.1875C30.144531 4.375 30 4.679688 30 5C30 5.011719 30 5.019531 30 5.03125L26 4.1875L26 2C26.011719 1.710938 25.894531 1.433594 25.6875 1.238281C25.476563 1.039063 25.191406 0.941406 24.90625 0.96875 Z M 25 6L25.03125 6L29.84375 7.0625C29.375 9.707031 27.980469 10.796875 26.625 11.84375C26.050781 12.285156 25.46875 12.726563 25 13.28125C24.539063 12.746094 23.964844 12.308594 23.40625 11.875C22.042969 10.820313 20.628906 9.71875 20.15625 7.0625 Z M 16.78125 22.59375C15.816406 25.980469 12.378906 38.347656 11.03125 45.8125C10.933594 46.347656 11.277344 46.863281 11.8125 46.96875C12.019531 47.007813 16.996094 48 25 48C33.003906 48 37.980469 47.011719 38.1875 46.96875C38.722656 46.863281 39.066406 46.347656 38.96875 45.8125C37.621094 38.347656 34.183594 25.980469 33.21875 22.59375C30.777344 23.269531 27.691406 23.9375 25 23.9375C22.308594 23.9375 19.222656 23.269531 16.78125 22.59375Z" />
</svg>