<?xml version="1.0" encoding="utf-8"?>
<svg xmlns="http://www.w3.org/2000/svg" viewBox="0 0 50 50" width="515" height="515">
  <path d="M24.90625 0.96875C24.863281 0.976563 24.820313 0.988281 24.78125 1C24.316406 1.105469 23.988281 1.523438 24 2L24 4L19 4C18.894531 4 18.789063 4.027344 18.6875 4.0625L15.6875 5.0625C15.277344 5.199219 15 5.570313 15 6C15 6.039063 15 6.082031 15 6.125L10.78125 7.03125C10.398438 7.070313 10.070313 7.328125 9.941406 7.691406C9.8125 8.054688 9.90625 8.460938 10.175781 8.734375C10.449219 9.003906 10.855469 9.097656 11.21875 8.96875L15.0625 8.125C15.289063 12.855469 16.183594 17.960938 16.6875 20.53125C18.878906 21.160156 22.242188 22 25 22C27.757813 22 31.121094 21.160156 33.3125 20.53125C33.8125 17.960938 34.707031 12.855469 34.9375 8.125L38.78125 8.96875C39.144531 9.097656 39.550781 9.003906 39.824219 8.734375C40.09375 8.460938 40.1875 8.054688 40.058594 7.691406C39.929688 7.328125 39.601563 7.070313 39.21875 7.03125L35 6.125C35 6.082031 35 6.039063 35 6C35 5.570313 34.722656 5.199219 34.3125 5.0625L31.3125 4.0625C31.210938 4.027344 31.105469 4 31 4L26 4L26 2C26.011719 1.710938 25.894531 1.433594 25.6875 1.238281C25.476563 1.039063 25.191406 0.941406 24.90625 0.96875 Z M 16.78125 22.65625C15.800781 26.097656 12.371094 38.378906 11.03125 45.8125C10.933594 46.347656 11.277344 46.863281 11.8125 46.96875C12.019531 47.011719 16.996094 48 25 48C32.96875 48 37.976563 47.011719 38.1875 46.96875C38.722656 46.863281 39.066406 46.347656 38.96875 45.8125C37.628906 38.378906 34.195313 26.097656 33.21875 22.65625C30.929688 23.285156 27.742188 24 25 24C22.253906 24 19.070313 23.285156 16.78125 22.65625Z" />
</svg>