<?xml version="1.0" encoding="utf-8"?>
<svg xmlns="http://www.w3.org/2000/svg" viewBox="0 0 50 50" width="515" height="515">
  <path d="M4.75 7C2.300781 7 0 9.34375 0 11.8125L0 23.1875C0 25.65625 2.300781 28 4.75 28L25.46875 28C26.476563 28 34 25.296875 34 23.1875L34 11.8125C34 9.703125 26.476563 7 25.46875 7 Z M 35.875 11C35.953125 11.261719 36 11.539063 36 11.8125L36 23.1875C36 23.460938 35.953125 23.738281 35.875 24L38.40625 24C39.953125 24 43 20.914063 43 19.34375L43 15.65625C43 14.085938 39.953125 11 38.40625 11 Z M 45 16L45 19L47 19L49 18L49 17L47 16 Z M 6.71875 30C6.707031 30.09375 6.703125 30.1875 6.6875 30.28125C6.433594 31.648438 4.140625 41.839844 4.125 41.90625C3.8125 43.09375 4.128906 43.820313 4.4375 44.21875C4.714844 44.578125 5.246094 45 6.21875 45L16.34375 45C17.644531 45 19 44.089844 19 42.5625C19 41.222656 18.078125 40.40625 17.34375 39.75C16.445313 38.945313 16.171875 38.621094 16.40625 37.90625C17.460938 34.683594 18.660156 30.8125 18.65625 30.8125C18.660156 30.800781 18.796875 30.449219 19.0625 30 Z M 21.75 30C21.503906 30 20.835938 30.796875 20.53125 31.53125L20.5 31.5C20.371094 32.0625 20.136719 32.867188 19.78125 34L22 34C22.550781 34 23 33.554688 23 33C23 31.742188 23.171875 30.761719 23.40625 30Z" />
</svg>