<?xml version="1.0" encoding="utf-8"?>
<svg xmlns="http://www.w3.org/2000/svg" viewBox="0 0 50 50" width="515" height="515">
  <path d="M25 0C20.039063 0 16 4.484375 16 10C16 15.515625 20.039063 20 25 20C29.964844 20 34 15.515625 34 10C34 4.484375 29.964844 0 25 0 Z M 25 21.0625C19.832031 21.0625 16.03125 21.699219 12.28125 23.15625C10.730469 23.757813 9.78125 25.289063 8.6875 27.0625C8.4375 27.464844 8.183594 27.882813 7.90625 28.3125C7.488281 28.953125 7.015625 29.683594 6.5 30.46875C4.378906 33.703125 1.75 37.714844 0.84375 39.46875C-0.125 41.347656 -0.179688 42.855469 0.65625 44.46875C1.320313 45.757813 2.246094 47.441406 3.40625 49.46875L3.71875 50L10 50L10 49C10 41.820313 16.714844 36 25 36C33.285156 36 40 41.820313 40 49L40 50L46.28125 50L46.59375 49.46875C47.746094 47.457031 48.667969 45.773438 49.34375 44.46875C50.179688 42.855469 50.125 41.347656 49.15625 39.46875C48.511719 38.222656 46.960938 35.867188 45.3125 33.34375C44.121094 31.515625 42.886719 29.625 42.125 28.34375L41.6875 27.625C40.472656 25.554688 39.449219 23.746094 37.71875 23.125C34.265625 21.882813 30.765625 21.0625 25 21.0625 Z M 25 40C18.933594 40 14 44.058594 14 49L14 50L36 50L36 49C36 44.058594 31.0625 40 25 40Z" />
</svg>