<?xml version="1.0" encoding="utf-8"?>
<svg xmlns="http://www.w3.org/2000/svg" viewBox="0 0 50 50" width="515" height="515">
  <path d="M7 9C4.242188 9 2 11.242188 2 14L2 36C2 38.757813 4.242188 41 7 41L43 41C45.757813 41 48 38.757813 48 36L48 14C48 11.242188 45.757813 9 43 9 Z M 23 12C23.550781 12 24 12.449219 24 13C24 13.550781 23.550781 14 23 14C22.449219 14 22 13.550781 22 13C22 12.449219 22.449219 12 23 12 Z M 13.4375 14L13.6875 14.5625C15.453125 14.5625 15.53125 17.042969 15.0625 17.65625C15.1875 17.691406 15.320313 17.890625 15.28125 18.21875C15.210938 18.832031 14.96875 18.988281 14.8125 19C14.753906 19.574219 14.386719 20.269531 14.1875 20.375C14.1875 20.785156 14.179688 21.082031 14.21875 21.53125C14.695313 22.839844 17.851563 22.476563 18 25L8 25C8.148438 22.476563 11.089844 22.839844 11.5625 21.53125C11.601563 21.082031 11.59375 20.785156 11.59375 20.375C11.394531 20.269531 11.027344 19.574219 10.96875 19C10.8125 18.988281 10.570313 18.832031 10.5 18.21875C10.460938 17.890625 10.59375 17.714844 10.6875 17.65625C9.953125 15.976563 10.898438 14 13.4375 14 Z M 23 15C23.550781 15 24 15.449219 24 16C24 16.550781 23.550781 17 23 17C22.449219 17 22 16.550781 22 16C22 15.449219 22.449219 15 23 15 Z M 23 18C23.550781 18 24 18.449219 24 19C24 19.550781 23.550781 20 23 20C22.449219 20 22 19.550781 22 19C22 18.449219 22.449219 18 23 18 Z M 28 18L41 18C41.554688 18 42 18.449219 42 19C42 19.550781 41.554688 20 41 20L28 20C27.445313 20 27 19.550781 27 19C27 18.449219 27.445313 18 28 18 Z M 23 21C23.550781 21 24 21.449219 24 22C24 22.550781 23.550781 23 23 23C22.449219 23 22 22.550781 22 22C22 21.449219 22.449219 21 23 21 Z M 28 22L38 22C38.554688 22 39 22.449219 39 23C39 23.550781 38.554688 24 38 24L28 24C27.445313 24 27 23.550781 27 23C27 22.449219 27.445313 22 28 22 Z M 23 24C23.550781 24 24 24.449219 24 25C24 25.550781 23.550781 26 23 26C22.449219 26 22 25.550781 22 25C22 24.449219 22.449219 24 23 24 Z M 28 26L41 26C41.554688 26 42 26.445313 42 27C42 27.554688 41.554688 28 41 28L28 28C27.445313 28 27 27.554688 27 27C27 26.445313 27.445313 26 28 26 Z M 10.71875 27L15.28125 27C16.144531 27 16.914063 27.558594 17.1875 28.375L18 30.84375L18 35.5C18 35.777344 17.777344 36 17.5 36L16.5 36C16.222656 36 16 35.777344 16 35.5L16 35L10 35L10 35.5C10 35.777344 9.777344 36 9.5 36L8.5 36C8.222656 36 8 35.777344 8 35.5L8 30.84375L8.8125 28.375C9.085938 27.558594 9.855469 27 10.71875 27 Z M 23 27C23.550781 27 24 27.449219 24 28C24 28.550781 23.550781 29 23 29C22.449219 29 22 28.550781 22 28C22 27.449219 22.449219 27 23 27 Z M 10.71875 29L10.0625 31L15.9375 31L15.28125 29 Z M 23 30C23.550781 30 24 30.449219 24 31C24 31.550781 23.550781 32 23 32C22.449219 32 22 31.550781 22 31C22 30.449219 22.449219 30 23 30 Z M 28 30L38 30C38.554688 30 39 30.445313 39 31C39 31.554688 38.554688 32 38 32L28 32C27.445313 32 27 31.554688 27 31C27 30.445313 27.445313 30 28 30 Z M 10 32C9.449219 32 9 32.449219 9 33C9 33.550781 9.449219 34 10 34C10.550781 34 11 33.550781 11 33C11 32.449219 10.550781 32 10 32 Z M 16 32C15.449219 32 15 32.449219 15 33C15 33.550781 15.449219 34 16 34C16.550781 34 17 33.550781 17 33C17 32.449219 16.550781 32 16 32 Z M 23 33C23.550781 33 24 33.449219 24 34C24 34.550781 23.550781 35 23 35C22.449219 35 22 34.550781 22 34C22 33.449219 22.449219 33 23 33 Z M 23 36C23.550781 36 24 36.449219 24 37C24 37.550781 23.550781 38 23 38C22.449219 38 22 37.550781 22 37C22 36.449219 22.449219 36 23 36Z" />
</svg>