<?xml version="1.0" encoding="utf-8"?>
<svg xmlns="http://www.w3.org/2000/svg" viewBox="0 0 50 50" width="515" height="515">
  <path d="M15.5 3C13.015625 3 11 5.015625 11 7.5C11 9.984375 13.015625 12 15.5 12C17.984375 12 20 9.984375 20 7.5C20 5.015625 17.984375 3 15.5 3 Z M 4 11L4 13L10.375 17.28125C10.503906 16.917969 10.683594 16.554688 10.875 16.21875C10.964844 16.070313 11.023438 15.921875 11.125 15.78125 Z M 40 11.96875C39.9375 11.972656 39.875 11.984375 39.8125 12C39.488281 12.066406 39.222656 12.289063 39.09375 12.59375L36.96875 17.25C36.957031 17.15625 36.960938 17.0625 36.9375 16.96875C36.660156 15.898438 35.570313 15.253906 34.5 15.53125L26.375 17.53125L17.59375 15.125C16.878906 14.921875 16.132813 14.917969 15.40625 15.0625C13.015625 15.601563 11.523438 17.949219 12.0625 20.34375C12.097656 20.496094 12.136719 20.664063 12.1875 20.8125L15.8125 33.25C16.355469 35.132813 17.933594 36.527344 19.875 36.8125L24 28L21.46875 20.59375L26.46875 21.375C26.984375 21.449219 27.496094 21.4375 28 21.3125L35.5 19.40625C35.726563 19.347656 35.941406 19.25 36.125 19.125L34.09375 23.59375C33.894531 23.925781 33.90625 24.339844 34.117188 24.660156C34.332031 24.980469 34.710938 25.152344 35.09375 25.097656C35.472656 25.042969 35.792969 24.773438 35.90625 24.40625L40.90625 13.40625C41.058594 13.09375 41.039063 12.726563 40.851563 12.433594C40.667969 12.144531 40.347656 11.964844 40 11.96875 Z M 19.875 36.8125L17 43L19 43L21.9375 36.71875L21.65625 36.78125C21.070313 36.902344 20.46875 36.902344 19.875 36.8125 Z M 21.9375 36.71875L32.59375 34.40625L37.84375 45.4375C38.457031 46.796875 40.046875 47.425781 41.40625 46.8125C42.765625 46.199219 43.394531 44.578125 42.78125 43.21875L36.78125 29.78125C36.300781 28.710938 35.238281 28.007813 34.0625 28L26 28Z" />
</svg>