<?xml version="1.0" encoding="utf-8"?>
<svg xmlns="http://www.w3.org/2000/svg" viewBox="0 0 50 50" width="515" height="515">
  <path d="M15.59375 2L1 11.40625L11 19L25 10.09375 Z M 25 10.09375L39.6875 18.59375L49 11L34.8125 2 Z M 39.6875 18.59375L25 27.8125L34.59375 35.09375L49 26.5 Z M 25 27.8125L11 19L1 26.5L15.59375 35.09375 Z M 25 30.3125L16.8125 36.6875C16.460938 36.957031 16.035156 37.09375 15.59375 37.09375C15.238281 37.09375 14.902344 36.992188 14.59375 36.8125L9 33.53125L9 39.09375C9 39.429688 9.15625 39.75 9.4375 39.9375L24.4375 49.84375C24.605469 49.953125 24.808594 50 25 50C25.191406 50 25.398438 49.953125 25.5625 49.84375L40.5625 40.03125C40.84375 39.847656 41 39.527344 41 39.1875L41 33.59375L35.625 36.8125C35.316406 37 34.953125 37.09375 34.59375 37.09375C34.15625 37.09375 33.722656 36.949219 33.375 36.6875Z" />
</svg>