<?xml version="1.0" encoding="utf-8"?>
<svg xmlns="http://www.w3.org/2000/svg" viewBox="0 0 50 50" width="515" height="515">
  <path d="M23.390625 2.0625C11.640625 2.8845 2 12.592 2 24C2 24.356866 2.1888225 24.67602 2.4804688 24.853516L17 33.929688L17 48L33 48L33 33.929688L47.525391 24.851562C47.814094 24.673437 48 24.35475 48 24C48 12.592 38.359375 2.8845 26.609375 2.0625C31.007375 6.2265 34 14.965 34 24L33 24L32 24C32 15.293 29.15 6.9676875 25 3.3046875C20.85 6.9676875 18 15.293 18 24L17 24L16 24C16 14.965 18.992625 6.2265 23.390625 2.0625 z M 10 21C12.747 21 15.190984 22.367344 16.083984 24.402344C16.101261 24.44166 16.128632 24.47358 16.150391 24.509766L16.142578 24.515625L21.232422 33L19.287109 33L4.3339844 23.654297C5.4413953 22.039739 7.6053577 21 10 21 z M 25 21C27.979543 21 30.62962 22.195981 31.828125 24.009766L26.433594 33L23.566406 33L18.173828 24.009766C19.372614 22.196474 22.020938 21 25 21 z M 40 21C42.394642 21 44.558605 22.039739 45.666016 23.654297L30.712891 33L28.767578 33L33.857422 24.515625L33.849609 24.509766C33.871434 24.47358 33.898628 24.44166 33.916016 24.402344C34.809016 22.367344 37.253 21 40 21 z M 23 37L27 37C27.553 37 28 37.447 28 38C28 38.553 27.553 39 27 39L23 39C22.447 39 22 38.553 22 38C22 37.447 22.447 37 23 37 z" />
</svg>