<?xml version="1.0" encoding="utf-8"?>
<svg xmlns="http://www.w3.org/2000/svg" viewBox="0 0 50 50" width="515" height="515">
  <path d="M2.8125 3C2.359375 3.082031 2.023438 3.460938 1.992188 3.917969C1.960938 4.378906 2.25 4.796875 2.6875 4.9375L8 6.71875L8 14L10 14L10 7.375L14.6875 8.9375C15.039063 9.117188 15.460938 9.074219 15.769531 8.828125C16.078125 8.582031 16.210938 8.179688 16.113281 7.796875C16.015625 7.417969 15.703125 7.128906 15.3125 7.0625L10.96875 5.59375C10.78125 4.683594 9.960938 4 9 4C8.492188 4 8.042969 4.214844 7.6875 4.53125L3.3125 3.0625C3.152344 3 2.980469 2.976563 2.8125 3 Z M 42 4C40.898438 4 40 4.898438 40 6L44 6C44 4.898438 43.101563 4 42 4 Z M 35.71875 7C35.167969 7.078125 34.78125 7.589844 34.859375 8.140625C34.9375 8.691406 35.449219 9.078125 36 9L48 9C48.359375 9.003906 48.695313 8.816406 48.878906 8.503906C49.058594 8.191406 49.058594 7.808594 48.878906 7.496094C48.695313 7.183594 48.359375 6.996094 48 7L36 7C35.96875 7 35.9375 7 35.90625 7C35.875 7 35.84375 7 35.8125 7C35.78125 7 35.75 7 35.71875 7 Z M 35.71875 10C35.167969 10.078125 34.78125 10.589844 34.859375 11.140625C34.9375 11.691406 35.449219 12.078125 36 12L41 12L41 14L43 14L43 12L48 12C48.359375 12.003906 48.695313 11.816406 48.878906 11.503906C49.058594 11.191406 49.058594 10.808594 48.878906 10.496094C48.695313 10.183594 48.359375 9.996094 48 10L36 10C35.96875 10 35.9375 10 35.90625 10C35.875 10 35.84375 10 35.8125 10C35.78125 10 35.75 10 35.71875 10 Z M 2 15C1.398438 15 1 15.398438 1 16L1 26C1 26.601563 1.398438 27 2 27L8 27L8 46C8 46.601563 8.398438 47 9 47C9.601563 47 10 46.601563 10 46L10 27L11.3125 27C12.511719 24.199219 14.5 21.914063 17 20.3125L17 16C17 15.398438 16.601563 15 16 15 Z M 34 15C33.398438 15 33 15.398438 33 16L33 20.3125C35.5 21.914063 37.488281 24.199219 38.6875 27L40 27L40 46C39.996094 46.359375 40.183594 46.695313 40.496094 46.878906C40.808594 47.058594 41.191406 47.058594 41.503906 46.878906C41.816406 46.695313 42.003906 46.359375 42 46L42 27L48 27C48.601563 27 49 26.601563 49 26L49 16C49 15.398438 48.601563 15 48 15 Z M 5 17L7 17L7 23L5 23 Z M 11 17L13 17L13 23L11 23 Z M 37 17L39 17L39 23L37 23 Z M 43 17L45 17L45 23L43 23 Z M 25 20C17.800781 20 12 25.800781 12 33C12 40.199219 17.800781 46 25 46C32.199219 46 38 40.199219 38 33C38 25.800781 32.199219 20 25 20 Z M 30 35C31.101563 35 32 35.898438 32 37C32 38.101563 31.101563 39 30 39C28.898438 39 28 38.101563 28 37C28 35.898438 28.898438 35 30 35 Z M 14.6875 43.90625L13.3125 45.3125C12.914063 45.710938 12.914063 46.289063 13.3125 46.6875C13.511719 46.886719 13.800781 47 14 47C14.199219 47 14.488281 46.886719 14.6875 46.6875L16.1875 45.1875C15.6875 44.789063 15.1875 44.304688 14.6875 43.90625 Z M 35.3125 43.90625C34.8125 44.40625 34.3125 44.789063 33.8125 45.1875L35.3125 46.6875C35.511719 46.886719 35.800781 47 36 47C36.199219 47 36.488281 46.886719 36.6875 46.6875C37.085938 46.289063 37.085938 45.710938 36.6875 45.3125Z" />
</svg>