<?xml version="1.0" encoding="utf-8"?>
<svg xmlns="http://www.w3.org/2000/svg" viewBox="0 0 50 50" width="515" height="515">
  <path d="M25 3C18.382813 3 13 8.382813 13 15C13 18.585938 14.589844 21.800781 17.089844 24L14.5 24C13.671875 24 13 24.671875 13 25.5C13 26.328125 13.671875 27 14.5 27L35.5 27C36.328125 27 37 26.328125 37 25.5C37 24.671875 36.328125 24 35.5 24L32.910156 24C35.410156 21.800781 37 18.585938 37 15C37 8.382813 31.617188 3 25 3 Z M 24 7L26 7L26 9.171875C27.371094 9.5625 29 10.640625 29 13L27 13C27 11.179688 25.148438 11.011719 24.9375 11L24.933594 11C24.675781 11 23.800781 11.09375 23.339844 11.550781C23.191406 11.695313 23 11.949219 23 12.496094C23 13.320313 23.503906 13.585938 25.230469 14.074219C26.820313 14.519531 29 15.132813 29 17.6875C29.003906 17.789063 29.007813 18.949219 28.089844 19.890625C27.5625 20.429688 26.859375 20.773438 26 20.917969L26 23L24 23L24 20.890625C23.261719 20.738281 22.628906 20.414063 22.128906 19.90625C20.996094 18.75 20.996094 17.15625 21 16.980469L22 17L23 17.015625C23 17.023438 23.003906 17.949219 23.566406 18.515625C23.894531 18.839844 24.359375 19 25 19C25.53125 19 26.25 18.914063 26.65625 18.496094C26.984375 18.15625 27 17.71875 27 17.714844C27 16.785156 26.480469 16.503906 24.6875 16C23.132813 15.558594 21 14.960938 21 12.496094C21 11.546875 21.324219 10.722656 21.941406 10.117188C22.570313 9.503906 23.367188 9.234375 24 9.109375 Z M 5 11C3.347656 11 2 12.347656 2 14L2 37C2 38.652344 3.347656 40 5 40L45 40C46.652344 40 48 38.652344 48 37L48 14C48 12.347656 46.652344 11 45 11L38.410156 11C38.605469 11.648438 38.742188 12.316406 38.84375 13L45 13C45.550781 13 46 13.449219 46 14L46 34L4 34L4 14C4 13.449219 4.449219 13 5 13L11.15625 13C11.257813 12.316406 11.394531 11.648438 11.589844 11 Z M 18.652344 42L18.152344 45L16 45C15.640625 44.996094 15.304688 45.183594 15.121094 45.496094C14.941406 45.808594 14.941406 46.191406 15.121094 46.503906C15.304688 46.816406 15.640625 47.003906 16 47L34 47C34.359375 47.003906 34.695313 46.816406 34.878906 46.503906C35.058594 46.191406 35.058594 45.808594 34.878906 45.496094C34.695313 45.183594 34.359375 44.996094 34 45L31.847656 45L31.347656 42Z" />
</svg>