<?xml version="1.0" encoding="utf-8"?>
<svg xmlns="http://www.w3.org/2000/svg" viewBox="0 0 50 50" width="515" height="515">
  <path d="M15.53125 2.582031C15.339844 2.59375 15.152344 2.65625 15 2.769531C5.492188 9.390625 3.148438 22.496094 9.769531 32C13.636719 37.554688 19.71875 40.640625 26 40.949219L26 44.054688C21.980469 44.324219 17.636719 46.070313 17.636719 46.070313C17.1875 46.246094 16.933594 46.714844 17.019531 47.1875C17.109375 47.65625 17.519531 48 18 48L26.832031 48C26.941406 48.019531 27.050781 48.019531 27.15625 48L36 48C36.480469 48 36.890625 47.65625 36.980469 47.1875C37.066406 46.714844 36.8125 46.246094 36.363281 46.070313C36.363281 46.070313 32.019531 44.324219 28 44.054688L28 40.953125C31.820313 40.773438 35.636719 39.574219 39 37.230469C39.308594 37.03125 39.480469 36.683594 39.453125 36.316406C39.425781 35.953125 39.203125 35.636719 38.871094 35.484375C38.539063 35.332031 38.152344 35.371094 37.859375 35.589844C34.585938 37.867188 30.851563 38.972656 27.152344 39C27.09375 38.992188 27.039063 38.984375 26.984375 38.984375C26.957031 38.988281 26.929688 38.988281 26.902344 38.988281C20.9375 38.957031 15.082031 36.132813 11.410156 30.859375C5.40625 22.238281 7.519531 10.414063 16.140625 4.410156C16.496094 4.167969 16.660156 3.726563 16.542969 3.3125C16.429688 2.894531 16.058594 2.601563 15.628906 2.582031C15.597656 2.582031 15.5625 2.582031 15.53125 2.582031 Z M 27 3C25.226563 3 23.523438 3.285156 21.917969 3.796875C23.035156 4.117188 24.222656 4.585938 25.472656 5.242188C26.726563 5.898438 27.945313 6.691406 29.121094 7.574219L33.707031 4.382813C31.648438 3.496094 29.382813 3 27 3 Z M 18.996094 5.320313C18.796875 5.320313 18.609375 5.332031 18.429688 5.351563C18.316406 5.421875 18.199219 5.480469 18.089844 5.550781L22.65625 12.070313L27.386719 8.78125C26.457031 8.117188 25.503906 7.515625 24.542969 7.007813C22.433594 5.902344 20.480469 5.320313 18.996094 5.320313 Z M 35.75 5.453125L30.78125 8.90625C32.324219 10.253906 33.722656 11.757813 34.910156 13.347656L40.386719 9.554688C39.105469 7.917969 37.535156 6.527344 35.75 5.453125 Z M 16.449219 6.695313C16.355469 6.765625 16.269531 6.847656 16.179688 6.921875C15.214844 8.867188 15.269531 12.53125 16.328125 16.472656L21.015625 13.214844 Z M 13.566406 9.617188C11.335938 12.492188 10 16.089844 10 20C10 20.285156 10.027344 20.5625 10.042969 20.84375L14.582031 17.6875C13.738281 14.816406 13.386719 11.988281 13.566406 9.617188 Z M 29.074219 10.097656L23.828125 13.746094L27.265625 18.652344L33.265625 14.488281C32.082031 12.917969 30.648438 11.421875 29.074219 10.097656 Z M 41.515625 11.203125L36.046875 14.996094C37.09375 16.65625 37.988281 18.476563 38.695313 20.359375L43.695313 16.84375C43.3125 14.8125 42.558594 12.910156 41.515625 11.203125 Z M 22.1875 14.886719L16.957031 18.519531C17.613281 20.382813 18.492188 22.246094 19.585938 23.976563L25.621094 19.792969 Z M 34.402344 16.136719L28.410156 20.289063L31.832031 25.179688L36.992188 21.554688C36.316406 19.648438 35.433594 17.792969 34.402344 16.136719 Z M 43.957031 19.15625L39.371094 22.382813C39.757813 23.703125 40.0625 25.03125 40.246094 26.34375C40.453125 27.855469 40.484375 29.230469 40.375 30.457031C42.640625 27.574219 44 23.945313 44 20C44 19.714844 43.972656 19.4375 43.957031 19.15625 Z M 15.261719 19.703125L10.304688 23.148438C10.695313 25.214844 11.460938 27.140625 12.527344 28.871094L17.953125 25.109375C16.867188 23.402344 15.957031 21.570313 15.261719 19.703125 Z M 26.765625 21.429688L20.730469 25.613281C21.941406 27.207031 23.386719 28.695313 24.980469 29.996094L30.199219 26.328125 Z M 37.640625 23.597656L33.003906 26.851563L37.507813 33.28125C38.371094 31.96875 38.667969 29.558594 38.265625 26.617188C38.125 25.628906 37.914063 24.613281 37.640625 23.597656 Z M 19.085938 26.753906L13.667969 30.515625C14.96875 32.160156 16.566406 33.554688 18.382813 34.628906L23.28125 31.1875C21.714844 29.851563 20.289063 28.351563 19.085938 26.753906 Z M 31.371094 28L26.6875 31.292969C27.558594 31.890625 28.453125 32.433594 29.363281 32.902344C31.957031 34.230469 34.304688 34.75 35.855469 34.40625 Z M 24.964844 32.503906L20.4375 35.683594C22.460938 36.53125 24.675781 37 27 37C28.828125 37 30.582031 36.695313 32.234375 36.15625C31.050781 35.851563 29.78125 35.363281 28.453125 34.683594C27.257813 34.066406 26.089844 33.324219 24.964844 32.503906Z" />
</svg>