<?xml version="1.0" encoding="utf-8"?>
<svg xmlns="http://www.w3.org/2000/svg" viewBox="0 0 50 50" width="515" height="515">
  <path d="M20.1875 3.015625C19.636719 2.914063 19.121094 3.269531 19.015625 3.8125L18.03125 9L8 9C7.445313 9 7 9.449219 7 10L7 34L3 34L3 36L47 36L47 34L43 34L43 10C43 9.449219 42.554688 9 42 9L31.96875 9L30.984375 3.8125C30.878906 3.269531 30.363281 2.917969 29.8125 3.015625C29.269531 3.121094 28.914063 3.644531 29.015625 4.1875L29.933594 9L20.066406 9L20.984375 4.1875C21.085938 3.644531 20.730469 3.121094 20.1875 3.015625 Z M 14.5 14C15.328125 14 16 14.671875 16 15.5C16 16.328125 15.328125 17 14.5 17C13.671875 17 13 16.328125 13 15.5C13 14.671875 13.671875 14 14.5 14 Z M 29.488281 18.734375L38 30L20.457031 30 Z M 21 19L23.761719 22.679688L17.890625 30L12 30 Z M 12.503906 38L11.015625 45.8125C10.914063 46.355469 11.269531 46.878906 11.8125 46.984375C11.875 46.996094 11.941406 47 12 47C12.472656 47 12.890625 46.667969 12.984375 46.1875L14.542969 38 Z M 24 38L24 43C24 43.550781 24.445313 44 25 44C25.554688 44 26 43.550781 26 43L26 38 Z M 35.457031 38L37.015625 46.1875C37.109375 46.667969 37.527344 47 38 47C38.058594 47 38.125 46.996094 38.1875 46.984375C38.730469 46.878906 39.085938 46.355469 38.984375 45.8125L37.496094 38Z" />
</svg>