<?xml version="1.0" encoding="utf-8"?>
<svg xmlns="http://www.w3.org/2000/svg" viewBox="0 0 50 50" width="515" height="515">
  <path d="M6 3C4.347656 3 3 4.347656 3 6L3 38L10.550781 38C11.175781 36.4375 12 29.894531 12 27C12 26.449219 12.445313 26 13 26C13.554688 26 14 26.449219 14 27C14 29.894531 14.824219 36.4375 15.449219 38L18.34375 38C19.035156 34.667969 20 17.019531 20 9C20 8.449219 20.445313 8 21 8C21.554688 8 22 8.449219 22 9C22 17.234375 22.945313 34.671875 23.65625 38L28.453125 38C29.15625 35.660156 30 24.707031 30 19C30 18.449219 30.445313 18 31 18C31.554688 18 32 18.449219 32 19C32 24.710938 32.84375 35.667969 33.546875 38L36.859375 38C37.277344 37.582031 38 35.601563 38 33C38 32.449219 38.445313 32 39 32C39.554688 32 40 32.449219 40 33C40 35.714844 40.796875 37.585938 41.171875 38L47 38L47 6C47 4.347656 45.652344 3 44 3 Z M 21 32.128906C20.40625 40 19.9375 40 19 40L15 40C14.140625 40 13.566406 39.410156 13 36.441406C12.433594 39.410156 11.859375 40 11 40L3 40L3 44C3 45.652344 4.347656 47 6 47L44 47C45.652344 47 47 45.652344 47 44L47 40L41 40C40.160156 40 39.503906 39.296875 39.019531 38.269531C38.550781 39.292969 37.886719 40 37 40L33 40C32.21875 40 31.621094 40 31 34.90625C30.375 40 29.777344 40 29 40L23 40C22.0625 40 21.589844 40 21 32.128906Z" />
</svg>