<?xml version="1.0" encoding="utf-8"?>
<svg xmlns="http://www.w3.org/2000/svg" viewBox="0 0 50 50" width="515" height="515">
  <path d="M21.980469 2C18.136719 2.085938 15.375 3.199219 13.765625 5.3125C11.949219 7.703125 11.632813 11.265625 12.796875 16.195313C12.386719 16.726563 12.011719 17.574219 12.109375 18.734375C12.402344 20.898438 13.230469 21.789063 13.898438 22.152344C14.234375 23.953125 15.21875 25.863281 16.101563 26.765625C16.105469 26.988281 16.109375 27.203125 16.113281 27.417969C16.132813 28.375 16.144531 29.203125 16.019531 30.265625C15.816406 30.792969 15.402344 31.234375 14.839844 31.632813L17.984375 35.421875L20.921875 31.773438C21.1875 31.445313 21.617188 31.140625 22 31.257813C22.378906 31.140625 22.8125 31.445313 23.078125 31.773438L23.742188 32.597656C23.9375 32.800781 24.132813 33.039063 24.316406 33.3125L26.75 36.25L29.152344 31.648438C28.601563 31.265625 28.179688 30.84375 27.960938 30.339844C27.902344 29.128906 27.800781 27.191406 27.800781 26.753906C28.667969 25.839844 29.585938 23.925781 29.96875 22.191406C30.6875 21.851563 31.589844 20.96875 31.796875 18.683594C31.890625 17.558594 31.582031 16.734375 31.15625 16.199219C31.816406 14.128906 32.9375 9.535156 31.09375 6.488281C30.253906 5.101563 28.941406 4.230469 27.183594 3.882813C26.214844 2.664063 24.398438 2 21.980469 2 Z M 22 4C23.890625 4 25.253906 4.476563 25.734375 5.304688L25.980469 5.722656L26.457031 5.789063C27.835938 5.984375 28.792969 6.550781 29.378906 7.523438C30.664063 9.640625 30.007813 13.5 29.058594 16.160156L28.742188 16.984375L29.535156 17.382813C29.625 17.445313 29.863281 17.789063 29.804688 18.507813C29.667969 19.988281 29.199219 20.382813 29.097656 20.402344L28.234375 20.402344L28.109375 21.261719C27.835938 23.183594 26.683594 25.15625 26.304688 25.433594L25.800781 25.71875L25.800781 26.300781C25.800781 27.335938 25.804688 28.183594 25.832031 29.125L22 31.253906L18.109375 29.09375C18.128906 28.503906 18.121094 27.945313 18.109375 27.378906C18.105469 27.035156 18.097656 26.679688 18.097656 26.296875L18.035156 25.734375L17.609375 25.4375C17.214844 25.167969 15.972656 23.171875 15.796875 21.304688L15.78125 20.40625L14.875 20.40625C14.730469 20.351563 14.285156 19.878906 14.09375 18.515625C14.027344 17.679688 14.453125 17.332031 14.453125 17.332031L15.046875 16.9375L14.871094 16.253906C13.707031 11.667969 13.867188 8.484375 15.359375 6.523438C16.578125 4.921875 18.820313 4.070313 22 4 Z M 45.015625 30C44.25 30 43.484375 30.289063 42.902344 30.875C42.902344 30.875 42.726563 31.050781 42.578125 31.199219L42.574219 31.195313L31.328125 42.441406C31.203125 42.566406 31.113281 42.71875 31.066406 42.890625L30.03125 46.738281C29.941406 47.085938 30.039063 47.453125 30.292969 47.707031C30.480469 47.894531 30.738281 48 31 48C31.085938 48 31.175781 47.988281 31.261719 47.96875L35.109375 46.933594C35.28125 46.886719 35.433594 46.796875 35.558594 46.671875L46.804688 35.421875L46.800781 35.421875C46.949219 35.269531 47.125 35.09375 47.125 35.09375C48.289063 33.929688 48.292969 32.039063 47.125 30.875C46.542969 30.289063 45.777344 30 45.015625 30 Z M 30.921875 32.546875L27.636719 37.636719C27.445313 37.867188 27.160156 38 26.859375 38C26.859375 38 26.285156 38.050781 25.894531 37.601563L23.253906 35.15625L22.5 35.769531C22.5 35.769531 24.277344 38.746094 24.769531 42C24.769531 42 24.769531 42 24.765625 42L19.238281 42C19.742188 38.8125 21.5 35.800781 21.5 35.800781L20.742188 35.1875L18.78125 37.625C18.589844 37.859375 18.308594 37.996094 18.007813 38L18 38C17.703125 38 17.421875 37.867188 17.230469 37.640625L13.042969 32.597656C12.4375 32.871094 11.78125 33.132813 11.09375 33.40625C7.191406 34.949219 2.335938 36.875 2 42.945313L1.945313 44L25.664063 44L28.984375 44.019531L29.65625 41.65625C29.65625 41.65625 33.15625 38.09375 36.0625 34.96875C34.722656 34.203125 34.21875 33.882813 32.882813 33.355469C32.191406 33.082031 31.53125 32.816406 30.921875 32.546875 Z M 43.808594 32.792969L45.207031 34.191406L34.332031 45.070313L32.414063 45.585938L32.929688 43.667969Z" />
</svg>