<?xml version="1.0" encoding="utf-8"?>
<svg xmlns="http://www.w3.org/2000/svg" viewBox="0 0 50 50" width="515" height="515">
  <path d="M26 4 A 5 5 0 0 0 21 9 A 5 5 0 0 0 26 14 A 5 5 0 0 0 31 9 A 5 5 0 0 0 26 4 z M 48 4.2226562C42.495 5.0146562 37.684828 7.9416719 34.423828 12.138672C34.776828 12.051672 35.136047 11.998047 35.498047 11.998047C37.497047 11.998047 39.277172 13.342672 39.826172 15.263672C40.508172 17.648672 39.122328 20.143172 36.736328 20.826172L30.130859 22.714844C30.048859 23.465844 30 24.227 30 25C30 35.577 37.827 44.302719 48 45.761719L48 4.2226562 z M 35.626953 14.037109C35.310766 14.014594 34.988328 14.046969 34.673828 14.136719L28.150391 16L21.158203 16C19.283203 16 17.492016 16.894078 16.416016 18.330078L10.675781 24.792969C10.675781 24.792969 10.665344 24.808984 10.652344 24.833984C9.8093438 25.766984 9.7758594 27.198156 10.630859 28.160156L18 36.449219L18 43.357422C18 44.665422 18.941188 45.856328 20.242188 45.986328C21.739187 46.136328 23 44.966 23 43.5L23 35.5C23 34.959 22.824906 34.436859 22.503906 34.005859C22.460906 33.948859 17.962891 28.007813 17.962891 28.007812L24 21L28.431641 21C28.710641 21 28.987859 20.960766 29.255859 20.884766L36.1875 18.904297C37.2665 18.595297 37.976 17.623594 38 16.558594C38.007 16.230594 37.951313 15.895359 37.820312 15.568359C37.457313 14.656359 36.575516 14.104656 35.626953 14.037109 z M 10.105469 30.578125L8.7558594 35.710938L2.7324219 41.732422C1.7554219 42.709422 1.7554219 44.291578 2.7324219 45.267578C3.2194219 45.756578 3.86 46 4.5 46C5.14 46 5.7795781 45.755578 6.2675781 45.267578L12.767578 38.767578C13.080578 38.454578 13.305969 38.065719 13.417969 37.636719L14.09375 35.066406L10.105469 30.578125 z" />
</svg>