<?xml version="1.0" encoding="utf-8"?>
<svg xmlns="http://www.w3.org/2000/svg" viewBox="0 0 50 50" width="515" height="515">
  <path d="M15 1C7.105469 1 1 12.097656 1 21.65625C1 29.609375 5.699219 34.691406 11.0625 36.375C11.019531 35.914063 11 35.460938 11 35C11 27.234375 17.066406 19 28.34375 19C28.515625 19 28.703125 18.996094 28.875 19C27.890625 10.15625 22.167969 1 15 1 Z M 28.34375 21C18.367188 21 13 28.207031 13 35C13 41.792969 18.367188 49 28.34375 49C37.902344 49 49 42.894531 49 35C49 27.105469 37.902344 21 28.34375 21Z" />
</svg>