<?xml version="1.0" encoding="utf-8"?>
<svg xmlns="http://www.w3.org/2000/svg" viewBox="0 0 50 50" width="515" height="515">
  <path d="M24.59375 0L24.3125 3L22 3C21.449219 3 21 3.449219 21 4L21 5L29 5L29 4C29 3.449219 28.554688 3 28 3L25.6875 3L25.40625 0 Z M 21 6C20.449219 6 20 6.449219 20 7L20 9C20 9.550781 20.449219 10 21 10L29 10C29.554688 10 30 9.550781 30 9L30 7C30 6.449219 29.554688 6 29 6 Z M 21.46875 12C20.957031 16.488281 20.28125 20.058594 19.53125 23L30.53125 23C29.785156 20.058594 29.105469 16.488281 28.59375 12 Z M 17.6875 25C17.367188 25 17.066406 25.148438 16.875 25.40625C16.683594 25.664063 16.625 25.972656 16.71875 26.28125L17.53125 29L32.46875 29L33.28125 26.28125C33.375 25.976563 33.316406 25.664063 33.125 25.40625C32.9375 25.148438 32.632813 25 32.3125 25 Z M 16.71875 31C16.390625 31.746094 15.996094 32.59375 15.8125 33C15.496094 33.695313 15.207031 34.359375 14.9375 35L21.40625 35L22.71875 31 Z M 27.25 31L28.5625 35L35.0625 35C34.792969 34.359375 34.5 33.722656 34.1875 33.03125C34.003906 32.625 33.632813 31.75 33.3125 31 Z M 13.84375 37L7.125 48.5C6.945313 48.808594 6.945313 49.1875 7.125 49.5C7.304688 49.8125 7.640625 50 8 50L16 50C16.527344 50 16.96875 49.589844 17 49.0625C17.019531 48.734375 17.566406 41 25 41C32.4375 41 32.980469 48.734375 33 49.0625C33.027344 49.589844 33.472656 50 34 50L42 50C42.355469 50 42.695313 49.8125 42.875 49.5C43.054688 49.1875 43.054688 48.808594 42.875 48.5L36.15625 37Z" />
</svg>