<?xml version="1.0" encoding="utf-8"?>
<svg xmlns="http://www.w3.org/2000/svg" viewBox="0 0 50 50" width="515" height="515">
  <path d="M29 2C26.199219 2 24 4.199219 24 7C24 9.800781 26.199219 12 29 12C31.800781 12 34 9.800781 34 7C34 4.199219 31.800781 2 29 2 Z M 20.53125 8.09375C19.898438 8.132813 19.355469 8.3125 18.90625 8.6875C14.605469 12.289063 12.289063 23.101563 12.1875 23.5C11.789063 25.5 12.292969 27.386719 13.59375 28.6875L19.8125 35.5L23 45.6875C23.101563 46.386719 23.488281 47.101563 24.1875 47.5C24.6875 47.800781 25.210938 48 25.8125 48L26.3125 48C27.8125 47.699219 28.894531 46.289063 28.59375 44.6875L24.90625 33.3125C24.90625 33.3125 24.914063 33.1875 24.8125 33.1875L20 26.40625C20 25.507813 20.113281 21.007813 22.3125 17.40625L29.5 27.90625C30.300781 29.007813 31.800781 29.394531 33 28.59375C33.601563 28.195313 33.992188 27.699219 34.09375 27C34.195313 26.300781 34.085938 25.601563 33.6875 25L23.40625 9.5C22.90625 8.699219 22.085938 8.195313 21.1875 8.09375C20.960938 8.070313 20.742188 8.082031 20.53125 8.09375 Z M 33.59375 30.40625C32.992188 30.707031 32.386719 30.90625 31.6875 30.90625L36 48L38 48 Z M 15.1875 33.5L11.5 44.40625C11 45.804688 11.789063 47.40625 13.1875 47.90625C13.488281 48.007813 13.792969 48.09375 14.09375 48.09375C14.492188 48.09375 14.914063 48.011719 15.3125 47.8125C16.011719 47.511719 16.488281 46.886719 16.6875 46.1875L18.90625 39.40625L18 36.59375Z" />
</svg>