<?xml version="1.0" encoding="utf-8"?>
<svg xmlns="http://www.w3.org/2000/svg" viewBox="0 0 50 50" width="515" height="515">
  <path d="M9 4C8.445313 4 8 4.449219 8 5L8 14.875C8 20.734375 10.148438 22.722656 12.40625 24.8125C12.933594 25.300781 13.464844 25.804688 14 26.375L14 38L36 38L36 20C36 19.445313 35.554688 19 35 19L34.9375 19C34.636719 16.445313 33.242188 14.085938 31.78125 12.34375C30.152344 10.402344 24.75 4.34375 24.75 4.34375C24.527344 4.082031 24.183594 3.949219 23.84375 4C23.480469 4.054688 23.175781 4.304688 23.054688 4.652344C22.929688 4.996094 23.003906 5.382813 23.25 5.65625C23.25 5.65625 28.664063 11.804688 30.21875 13.65625C31.449219 15.121094 32.585938 17.105469 32.90625 19L21.03125 19L20.40625 17.625C20.175781 17.125 19.5625 16.894531 19.0625 17.125C18.558594 17.355469 18.363281 17.933594 18.59375 18.4375L22.875 27.71875C24.605469 30.960938 24.925781 32.75 23.9375 33.5C23.371094 33.929688 22.699219 34.109375 22 34C20.941406 33.835938 19.898438 33.089844 19.0625 31.90625C17.382813 29.53125 16.230469 26.003906 16.21875 25.96875L16.15625 25.78125L16.03125 25.625C15.265625 24.722656 14.488281 24.027344 13.75 23.34375C11.574219 21.328125 10 19.859375 10 14.875L10 5C10 4.449219 9.554688 4 9 4 Z M 8 30C7.527344 30 7.128906 30.320313 7.03125 30.78125L4.03125 44.78125C3.96875 45.078125 4.027344 45.390625 4.21875 45.625C4.410156 45.859375 4.695313 46 5 46L45 46C45.304688 46 45.589844 45.859375 45.78125 45.625C45.972656 45.390625 46.03125 45.078125 45.96875 44.78125L42.96875 30.78125C42.871094 30.316406 42.472656 30 42 30L38 30L38 36C39.101563 36 40 36.898438 40 38C40 39.101563 39.101563 40 38 40L12 40C10.898438 40 10 39.101563 10 38C10 36.898438 10.898438 36 12 36L12 30Z" />
</svg>