<?xml version="1.0" encoding="utf-8"?>
<svg xmlns="http://www.w3.org/2000/svg" viewBox="0 0 50 50" width="515" height="515">
  <path d="M4 5C3.45 5 3 5.45 3 6L3 44C3 44.55 3.45 45 4 45L46 45C46.55 45 47 44.55 47 44L47 6C47 5.45 46.55 5 46 5L4 5 z M 9 11L24 11C24.6 11 25 11.4 25 12L25 20C25 20.6 24.6 21 24 21L9 21C8.4 21 8 20.6 8 20L8 12C8 11.4 8.4 11 9 11 z M 20 13L20 19L22 19L22 13L20 13 z M 32 13C33.66 13 35 14.34 35 16C35 17.66 33.66 19 32 19C30.34 19 29 17.66 29 16C29 14.34 30.34 13 32 13 z M 40 13C41.66 13 43 14.34 43 16C43 17.66 41.66 19 40 19C38.34 19 37 17.66 37 16C37 14.34 38.34 13 40 13 z M 14 14L14 19L16 19L16 14L14 14 z M 17 15L17 19L19 19L19 15L17 15 z M 11 17L11 19L13 19L13 17L11 17 z M 5 27L9.0195312 27L9.3007812 38.300781C9.4007812 38.700781 9.6996094 39 10.099609 39L11.900391 39C12.300391 39 12.599609 38.700781 12.599609 38.300781L12.970703 27L15.019531 27L15.300781 38.300781C15.400781 38.700781 15.699609 39 16.099609 39L17.900391 39C18.300391 39 18.599609 38.700781 18.599609 38.300781L18.970703 27L21.019531 27L21.300781 38.300781C21.400781 38.700781 21.699609 39 22.099609 39L23.900391 39C24.300391 39 24.599609 38.700781 24.599609 38.300781L24.970703 27L31.019531 27L31.300781 38.300781C31.400781 38.700781 31.699609 39 32.099609 39L33.900391 39C34.300391 39 34.599609 38.700781 34.599609 38.300781L34.970703 27L37.019531 27L37.300781 38.300781C37.400781 38.700781 37.699609 39 38.099609 39L39.900391 39C40.300391 39 40.599609 38.700781 40.599609 38.300781L40.970703 27L45 27L45 43L5 43L5 27 z" />
</svg>