<?xml version="1.0" encoding="utf-8"?>
<svg xmlns="http://www.w3.org/2000/svg" viewBox="0 0 50 50" width="515" height="515">
  <path d="M30 0C29.613281 0 29.257813 0.210938 29.09375 0.5625C28.929688 0.914063 28.972656 1.328125 29.21875 1.625L34.21875 7.625C34.410156 7.851563 34.703125 8 35 8C35.296875 8 35.589844 7.851563 35.78125 7.625L40.78125 1.625C41.027344 1.328125 41.070313 0.914063 40.90625 0.5625C40.742188 0.210938 40.386719 0 40 0 Z M 16 0.03125C15.710938 0.03125 15.410156 0.148438 15.21875 0.375L10.21875 6.375C9.96875 6.671875 9.929688 7.085938 10.09375 7.4375C10.257813 7.789063 10.613281 8 11 8L21 8C21.386719 8 21.742188 7.789063 21.90625 7.4375C22.070313 7.085938 22.03125 6.671875 21.78125 6.375L16.78125 0.375C16.589844 0.148438 16.289063 0.03125 16 0.03125 Z M 3 10C1.347656 10 0 11.347656 0 13L0 47C0 48.652344 1.347656 50 4 50L48 50C48.652344 50 50 48.652344 50 47L50 13C50 11.347656 48.652344 10 47 10 Z M 11 14C12.652344 14 14 15.347656 14 17C14 18.652344 12.652344 20 11 20C9.347656 20 8 18.652344 8 17C8 15.347656 9.347656 14 11 14 Z M 25 14C26.65625 14 28 15.347656 28 17C28 18.652344 26.65625 20 25 20C23.347656 20 22 18.652344 22 17C22 15.347656 23.347656 14 25 14 Z M 39 14C40.65625 14 42 15.347656 42 17C42 18.652344 40.65625 20 39 20C37.34375 20 36 18.652344 36 17C36 15.347656 37.34375 14 39 14 Z M 11 22C14.363281 22 16 24.636719 16 28L16 35C16 35.378906 15.777344 35.734375 15.4375 35.90625L14 36.625L14 45C14 45.554688 13.550781 46 13 46L9 46C8.449219 46 8 45.554688 8 45L8 36.625L6.5625 35.90625C6.222656 35.738281 6 35.378906 6 35L6 28C6 24.636719 7.636719 22 11 22 Z M 25 22C28.363281 22 30 24.636719 30 28L30 35C30 35.378906 29.777344 35.734375 29.4375 35.90625L28 36.625L28 45C28 45.554688 27.554688 46 27 46L23 46C22.449219 46 22 45.554688 22 45L22 36.625L20.5625 35.90625C20.222656 35.738281 20 35.378906 20 35L20 28C20 24.636719 21.636719 22 25 22 Z M 39 22C42.363281 22 44 24.636719 44 28L44 35C44 35.378906 43.777344 35.734375 43.4375 35.90625L42 36.625L42 45C42 45.554688 41.554688 46 41 46L37 46C36.445313 46 36 45.554688 36 45L36 36.625L34.5625 35.90625C34.222656 35.738281 34 35.378906 34 35L34 28C34 24.636719 35.636719 22 39 22Z" />
</svg>