<?xml version="1.0" encoding="utf-8"?>
<svg xmlns="http://www.w3.org/2000/svg" viewBox="0 0 50 50" width="515" height="515">
  <path d="M8 3L8 47L24 47L24 50L50 50L50 31L42 31L42 14.585938L30.414062 3L8 3 z M 30 5L40.353516 15L30 15L30 5 z M 16 21L34 21L34 23L16 23L16 21 z M 16 27L29 27L29 29L16 29L16 27 z M 16 33L22 33L22 35L16 35L16 33 z M 26 33L48 33L48 48L26 48L26 33 z M 46.839844 33.871094L37 39.511719L27.130859 33.914062L27.130859 36.265625L37 41.923828L46.871094 36.263672L46.839844 33.871094 z" />
</svg>