<?xml version="1.0" encoding="utf-8"?>
<svg xmlns="http://www.w3.org/2000/svg" viewBox="0 0 50 50" width="515" height="515">
  <path d="M45.960938 1.9804688 A 2.0002 2.0002 0 0 0 44.585938 2.5859375L39.783203 7.3886719C35.784866 4.0305094 30.620477 2 25 2C12.321124 2 2 12.321124 2 25C2 30.620022 4.0284529 35.786167 7.3867188 39.785156L2.5859375 44.585938 A 2.0002 2.0002 0 1 0 5.4140625 47.414062L47.414062 5.4140625 A 2.0002 2.0002 0 0 0 45.960938 1.9804688 z M 25 6C29.537325 6 33.684636 7.5809169 36.947266 10.224609L10.224609 36.947266C7.5806394 33.684274 6 29.537298 6 25C6 14.482876 14.482876 6 25 6 z M 43.845703 11.8125L40.955078 14.699219C42.928078 17.741219 44 21.281 44 25C44 35.517124 35.517124 44 25 44C21.292 44 17.741312 42.936891 14.695312 40.962891L11.826172 43.830078C15.666172 46.525078 20.221 48 25 48C37.678876 48 48 37.678876 48 25C48 20.204 46.543703 15.6475 43.845703 11.8125 z" />
</svg>