<?xml version="1.0" encoding="utf-8"?>
<svg xmlns="http://www.w3.org/2000/svg" viewBox="0 0 50 50" width="515" height="515">
  <path d="M25 13C14.5 13 7.101563 14.992188 3 19.09375L2.90625 19.1875C1.207031 20.789063 2.3125 27.105469 2.3125 27.40625C2.511719 28.304688 2.894531 29.09375 3.59375 29.59375C4.09375 29.992188 4.710938 30.101563 5.3125 30C6.011719 29.800781 13.507813 28.292969 14.40625 28.09375C15.304688 27.894531 16.101563 26.988281 16.5 25.6875C16.699219 24.988281 17.292969 21.992188 17.59375 20.59375C18.59375 20.394531 20.898438 20.09375 25 20.09375C29.101563 20.09375 31.40625 20.488281 32.40625 20.6875C32.707031 21.988281 33.300781 24.988281 33.5 25.6875C33.898438 26.988281 34.695313 27.894531 35.59375 28.09375C36.394531 28.292969 43.886719 29.898438 44.6875 30L45 30C46.101563 30 47.289063 29.105469 47.6875 27.40625C47.6875 27.105469 48.792969 20.789063 47.09375 19.1875L47 19.09375C42.898438 14.992188 35.5 13 25 13 Z M 24.90625 27.96875C24.863281 27.976563 24.820313 27.988281 24.78125 28C24.316406 28.105469 23.988281 28.523438 24 29L24 42.5625L20.71875 39.28125C20.476563 39.03125 20.121094 38.925781 19.78125 39C19.40625 39.066406 19.105469 39.339844 19 39.703125C18.894531 40.070313 19.003906 40.460938 19.28125 40.71875L24.15625 45.5625C24.175781 45.59375 24.195313 45.625 24.21875 45.65625L24.28125 45.71875C24.328125 45.765625 24.382813 45.808594 24.4375 45.84375L25 46.40625L25.5625 45.84375C25.644531 45.78125 25.71875 45.707031 25.78125 45.625L30.71875 40.71875C31.117188 40.320313 31.117188 39.679688 30.71875 39.28125C30.320313 38.882813 29.679688 38.882813 29.28125 39.28125L26 42.5625L26 29C26.011719 28.710938 25.894531 28.433594 25.6875 28.238281C25.476563 28.039063 25.191406 27.941406 24.90625 27.96875Z" />
</svg>