<?xml version="1.0" encoding="utf-8"?>
<svg xmlns="http://www.w3.org/2000/svg" viewBox="0 0 50 50" width="515" height="515">
  <path d="M0.8125 17C0.335938 17.089844 -0.0078125 17.511719 0 18L0 24C0 24.417969 0.261719 24.792969 0.65625 24.9375L8 27.6875L8 39C8 39.554688 8.449219 40 9 40L32 40C32.324219 40 32.625 39.832031 32.8125 39.5625L46.53125 20L49 20C49.554688 20 50 19.550781 50 19C50 18.449219 49.554688 18 49 18L45 18C44.8125 18 44.625 18.058594 44.46875 18.15625L33 25.21875L33 24C33 23.449219 32.554688 23 32 23L22 23L22 21L25 21C25.550781 21 26 20.550781 26 20L26 18C26 17.449219 25.550781 17 25 17L17 17C16.449219 17 16 17.449219 16 18L16 20C16 20.550781 16.449219 21 17 21L20 21L20 23L9.625 23L7.90625 19.5625C7.785156 19.324219 7.570313 19.140625 7.3125 19.0625L1.3125 17.0625C1.183594 17.015625 1.042969 16.992188 0.90625 17C0.875 17 0.84375 17 0.8125 17 Z M 2 19.375L6.28125 20.8125L8 24.25L8 25.5625L2 23.3125 Z M 48 27C48 27 46 30.894531 46 32C46 33.105469 46.894531 34 48 34C49.105469 34 50 33.105469 50 32C50 30.894531 48 27 48 27Z" />
</svg>