<?xml version="1.0" encoding="utf-8"?>
<svg xmlns="http://www.w3.org/2000/svg" viewBox="0 0 50 50" width="515" height="515">
  <path d="M21 5C20.449219 5 20 5.449219 20 6L20 10C20 10.550781 20.449219 11 21 11L25 11L25 13L31 13L31 11L35 11C35.554688 11 36 10.550781 36 10L36 6C36 5.449219 35.554688 5 35 5 Z M 20 14C19.253906 14 18.503906 14.292969 17.9375 14.875L13.53125 20L11 20C9.457031 20 8 21.457031 8 23L8 35C8 36.570313 9.429688 38 11 38L13.53125 38L18 43.15625C18.523438 43.6875 19.253906 44 20 44L32.84375 44C33.585938 44 34.320313 43.6875 34.84375 43.15625L42.1875 35.6875C42.714844 35.152344 43 34.449219 43 33.6875L43 32L44 32L44 36C44 36.554688 44.445313 37 45 37L49 37C49.554688 37 50 36.554688 50 36L50 20C50 19.445313 49.554688 19 49 19L45 19C44.445313 19 44 19.445313 44 20L44 24L43 24L43 16.84375C43 15.273438 41.738281 14 40.1875 14 Z M 1 20C0.449219 20 0 20.449219 0 21L0 37C0 37.554688 0.449219 38 1 38L5 38C5.550781 38 6 37.554688 6 37L6 32L7 32L7 26L6 26L6 21C6 20.449219 5.550781 20 5 20 Z M 27 20L32 20L27 28L32 28L24 39L27 30L22 30Z" />
</svg>