<?xml version="1.0" encoding="utf-8"?>
<svg xmlns="http://www.w3.org/2000/svg" viewBox="0 0 50 50" width="515" height="515">
  <path d="M24.140625 2C23.53125 2 23 2.546875 23 3.226563L23 11C23 11.550781 22.550781 12 22 12C21.449219 12 21 11.550781 21 11L21 4.226563C17.238281 5.261719 15.160156 9.167969 15.011719 13.003906C13.984375 13.371094 13 14.199219 13 17L13 17.78125L13.757813 17.96875C13.925781 18.011719 17.957031 19 25.003906 19C32.054688 19 36.074219 18.011719 36.242188 17.96875L37 17.78125L37 17C37 14.179688 36.019531 13.351563 34.988281 12.996094C34.835938 9.164063 32.757813 5.257813 29 4.226563L29 11C29 11.550781 28.554688 12 28 12C27.445313 12 27 11.550781 27 11L27 3.226563C27 2.546875 26.46875 2 25.859375 2 Z M 15.464844 20.121094C15.085938 20.691406 14.917969 21.378906 15.007813 22.121094C15.242188 24.078125 16.148438 25.273438 17.097656 25.753906C17.386719 27.386719 18.121094 29.472656 19.015625 30.453125C19.015625 31.1875 19.011719 32.074219 19.007813 32.902344L18.902344 32.902344C18.722656 32.902344 18.546875 32.949219 18.390625 33.039063C18.328125 33.078125 17.023438 33.863281 15.769531 35.390625C15.820313 35.457031 15.878906 35.511719 15.910156 35.589844L17.714844 39.589844C17.90625 40.023438 17.769531 40.539063 17.378906 40.8125L15.394531 42.234375L19.515625 48L22.660156 48C22.824219 48.042969 23 48.042969 23.160156 48L26.839844 48C27.003906 48.042969 27.175781 48.042969 27.339844 48L30.015625 48L34.566406 42.203125L32.621094 40.8125C32.203125 40.515625 32.078125 39.957031 32.328125 39.511719L34.375 35.859375C33.832031 35.203125 32.84375 34.105469 31.722656 33.296875C31.535156 33.097656 31.273438 32.984375 31 32.984375C31 32.488281 30.996094 31.980469 30.996094 31.503906L31 30.449219C31.886719 29.46875 32.613281 27.390625 32.902344 25.753906C33.851563 25.273438 34.757813 24.078125 34.992188 22.121094C35.074219 21.4375 34.9375 20.789063 34.621094 20.238281C33.933594 20.339844 33.050781 20.460938 32.035156 20.574219L32.5 20.855469C32.890625 21.089844 33.0625 21.4375 33.007813 21.878906C32.816406 23.503906 32.089844 23.96875 31.921875 24L31.09375 24.066406L31.003906 24.890625C30.804688 26.78125 29.882813 28.828125 29.535156 29.113281L29 29.394531L28.996094 31.5C28.992188 32.300781 28.996094 33.160156 29 34.003906C28.996094 34.203125 28.914063 34.386719 28.65625 34.640625C28.394531 34.902344 27.96875 35.171875 27.519531 35.386719C26.6875 35.78125 25.894531 35.972656 25.769531 36L24.230469 36C24.105469 35.972656 23.3125 35.78125 22.480469 35.386719C22.03125 35.171875 21.605469 34.902344 21.34375 34.640625C21.089844 34.390625 21.007813 34.207031 21.003906 34.015625C21.011719 32.59375 21.015625 31.183594 21.015625 30L21.054688 29.421875L20.519531 29.140625C20.128906 28.828125 19.195313 26.777344 18.996094 24.894531L18.921875 24.074219L18.09375 24.003906C17.910156 23.96875 17.1875 23.503906 16.992188 21.882813C16.972656 21.71875 16.914063 21.222656 17.519531 20.855469L18.042969 20.535156C16.90625 20.386719 16.023438 20.230469 15.464844 20.121094 Z M 14.074219 36.34375C8.425781 38.164063 5 43.066406 5 47C5 47.554688 5.449219 48 6 48L17.058594 48L13.1875 42.578125C12.863281 42.132813 12.96875 41.507813 13.421875 41.1875L15.550781 39.660156L14.089844 36.410156C14.078125 36.390625 14.082031 36.367188 14.074219 36.34375 Z M 36.304688 36.503906L34.511719 39.707031L36.578125 41.1875C36.804688 41.34375 36.953125 41.585938 36.988281 41.859375C37.027344 42.128906 36.953125 42.402344 36.785156 42.617188L32.558594 48L44 48C44.554688 48 45 47.554688 45 47C45 42.398438 41.257813 38.058594 36.304688 36.503906 Z M 20.550781 36.574219C20.902344 36.816406 21.265625 37.023438 21.621094 37.191406C22.164063 37.449219 22.691406 37.632813 23.105469 37.761719L24 40L22.886719 43.902344C22.578125 42.996094 22.257813 42.074219 21.902344 40.976563C21.414063 39.492188 20.929688 37.941406 20.574219 36.652344C20.5625 36.621094 20.5625 36.601563 20.550781 36.574219 Z M 29.449219 36.574219C29.4375 36.601563 29.4375 36.621094 29.425781 36.652344C29.070313 37.941406 28.585938 39.492188 28.097656 40.976563C27.742188 42.074219 27.421875 42.996094 27.113281 43.902344L26 40L26.894531 37.761719C27.308594 37.632813 27.835938 37.449219 28.378906 37.191406C28.734375 37.023438 29.097656 36.816406 29.449219 36.574219Z" />
</svg>