<?xml version="1.0" encoding="utf-8"?>
<svg xmlns="http://www.w3.org/2000/svg" viewBox="0 0 50 50" width="515" height="515">
  <path d="M20.46875 18C19.011719 18 17.675781 18.601563 16.6875 19.59375C16.636719 19.644531 16.582031 19.695313 16.53125 19.75C15.179688 21.179688 10.964844 25 7.5 25C5.074219 25 2.589844 24.5 1.03125 21C1.03125 21 -0.339844 32 13.0625 32C17.910156 32 21.566406 30.992188 23.96875 28.625C24.09375 28.511719 24.226563 28.40625 24.34375 28.28125C24.484375 28.128906 24.589844 27.976563 24.71875 27.8125C24.734375 27.789063 24.765625 27.773438 24.78125 27.75C24.855469 27.652344 24.933594 27.539063 25 27.4375C25.082031 27.566406 25.191406 27.691406 25.28125 27.8125C25.359375 27.910156 25.417969 28 25.5 28.09375C25.664063 28.285156 25.84375 28.457031 26.03125 28.625C28.433594 30.992188 32.089844 32 36.9375 32C50.339844 32 48.96875 21 48.96875 21C47.410156 24.5 44.925781 25 42.5 25C39.035156 25 34.820313 21.179688 33.46875 19.75C32.464844 18.664063 31.0625 18 29.53125 18C27.652344 18 26.003906 19.019531 25 20.5625C23.996094 19.019531 22.347656 18 20.46875 18Z" />
</svg>