<?xml version="1.0" encoding="utf-8"?>
<svg xmlns="http://www.w3.org/2000/svg" viewBox="0 0 50 50" width="515" height="515">
  <path d="M29.40625 5C28.300781 5.050781 27.449219 5.988281 27.5 7.09375C27.550781 8.199219 28.488281 9.050781 29.59375 9L38.1875 9L9 38.1875L9 29.59375C9.007813 29.050781 8.796875 28.53125 8.414063 28.148438C8.03125 27.765625 7.511719 27.554688 6.96875 27.5625C5.863281 27.578125 4.984375 28.488281 5 29.59375L5 45L20.40625 45C21.128906 45.011719 21.796875 44.632813 22.160156 44.007813C22.527344 43.386719 22.527344 42.613281 22.160156 41.992188C21.796875 41.367188 21.128906 40.988281 20.40625 41L11.8125 41L41 11.8125L41 20.40625C40.988281 21.128906 41.367188 21.796875 41.992188 22.160156C42.613281 22.527344 43.386719 22.527344 44.007813 22.160156C44.632813 21.796875 45.011719 21.128906 45 20.40625L45 5L29.59375 5C29.53125 4.996094 29.46875 4.996094 29.40625 5Z" />
</svg>