<?xml version="1.0" encoding="utf-8"?>
<svg xmlns="http://www.w3.org/2000/svg" width="515" height="515" viewBox="0 0 50 50">
  <path d="M13 0C11.346 0 10 1.346 10 3L10 24L30.529297 24L21.347656 14.816406C20.956656 14.425406 20.956656 13.793344 21.347656 13.402344C21.738656 13.011344 22.370719 13.011344 22.761719 13.402344L34.357422 25L22.759766 36.597656C22.564766 36.792656 22.308734 36.890625 22.052734 36.890625C21.796734 36.890625 21.540703 36.792656 21.345703 36.597656C20.954703 36.206656 20.954703 35.574594 21.345703 35.183594L30.529297 26L10 26L10 47C10 48.654 11.346 50 13 50L47 50C48.654 50 50 48.654 50 47L50 3C50 1.346 48.654 0 47 0L13 0 z M 10 26L10 24L1 24C0.448 24 0 24.448 0 25C0 25.552 0.448 26 1 26L10 26 z" />
</svg>