<?xml version="1.0" encoding="utf-8"?>
<svg xmlns="http://www.w3.org/2000/svg" viewBox="0 0 50 50" width="515" height="515">
  <path d="M10 3L10 7L7 7L7 47L16 47L16 39L20 39L20 47L29 47L29 42.335938C29.317955 42.644155 29.650127 42.905701 29.986328 43.107422C30.758958 43.570999 31.42402 43.765804 31.931641 43.861328C31.351362 45.537816 31 47.268453 31 49 A 1.0001 1.0001 0 1 0 33 49C33 47.739091 33.227382 46.4368 33.621094 45.140625C34.480279 45.883719 35.613252 46.460764 36.982422 46.773438C39.334622 47.310603 42.257219 46.956364 44.675781 44.736328C47.292027 42.334729 47.727019 39.333054 47.953125 36.648438C48.179231 33.96382 48.266199 31.571249 49.789062 29.613281 A 1.0001 1.0001 0 0 0 49.232422 28.027344C47.744281 27.671208 46.336109 27.424848 45 27.267578L45 14L31 14L31 18L33 18L33 20L31 20L31 22L33 22L33 24L31 24L31 26L33 26L33 28L31 28L31 30L31.152344 29.978516C30.302358 30.5853 29.587094 31.256095 29 31.964844L29 7L26 7L26 3L10 3 z M 11 11L13 11L13 13L11 13L11 11 z M 15 11L17 11L17 13L15 13L15 11 z M 19 11L21 11L21 13L19 13L19 11 z M 23 11L25 11L25 13L23 13L23 11 z M 11 15L13 15L13 19L11 19L11 15 z M 15 15L17 15L17 19L15 19L15 15 z M 19 15L21 15L21 19L19 19L19 15 z M 23 15L25 15L25 19L23 19L23 15 z M 35 18L37 18L37 20L35 20L35 18 z M 39 18L41 18L41 20L39 20L39 18 z M 11 21L13 21L13 25L11 25L11 21 z M 15 21L17 21L17 25L15 25L15 21 z M 19 21L21 21L21 25L19 25L19 21 z M 23 21L25 21L25 25L23 25L23 21 z M 35 22L37 22L37 24L35 24L35 22 z M 39 22L41 22L41 24L39 24L39 22 z M 35 26L37 26L37 27.519531C36.354026 27.65511 35.730975 27.811962 35.148438 28L35 28L35 26 z M 39 26L41 26L41 27.083984C40.469999 27.0967 39.936884 27.105991 39.4375 27.150391C39.286845 27.163785 39.147875 27.188934 39 27.205078L39 26 z M 11 27L13 27L13 31L11 31L11 27 z M 15 27L17 27L17 31L15 31L15 27 z M 19 27L21 27L21 31L19 31L19 27 z M 23 27L25 27L25 31L23 31L23 27 z M 41.375 29.064453C43.17048 29.072825 45.201521 29.305007 47.414062 29.746094C46.27603 31.945927 46.140715 34.322736 45.958984 36.480469C45.739341 39.088352 45.424973 41.335271 43.324219 43.263672C41.405781 45.024636 39.270534 45.245054 37.427734 44.824219C36.078517 44.516102 34.952629 43.75201 34.357422 43.164062C34.932774 41.845488 35.655786 40.558578 36.490234 39.361328C38.545912 36.411883 41.227072 34.003491 43.447266 32.894531 A 1.0001 1.0001 0 0 0 43.005859 30.994141 A 1.0001 1.0001 0 0 0 42.552734 31.105469C39.891928 32.434509 37.073682 35.025742 34.849609 38.216797C34.030771 39.391651 33.294776 40.649734 32.689453 41.958984C32.364061 41.928306 31.761145 41.841095 31.013672 41.392578C30.015876 40.7939 29 39.722222 29 37C29 34.333333 32.094246 29.793843 39.660156 29.130859C40.204357 29.083172 40.776507 29.061663 41.375 29.064453 z M 11 33L13 33L13 37L11 37L11 33 z M 15 33L17 33L17 37L15 37L15 33 z M 19 33L21 33L21 37L19 37L19 33 z M 23 33L25 33L25 37L23 37L23 33 z M 11 39L13 39L13 43L11 43L11 39 z M 23 39L25 39L25 43L23 43L23 39 z" />
</svg>