<?xml version="1.0" encoding="utf-8"?>
<svg xmlns="http://www.w3.org/2000/svg" viewBox="0 0 50 50" width="515" height="515">
  <path d="M46.105469 16.992188L33.054688 3.941406C32.019531 2.761719 29.945313 2.738281 28.792969 3.894531L3.941406 28.746094C3.359375 29.253906 3.027344 29.972656 3 30.765625C2.972656 31.597656 3.296875 32.414063 3.894531 33.007813L16.992188 46.109375C17.570313 46.683594 18.316406 47 19.101563 47C19.882813 47 20.632813 46.683594 21.207031 46.105469L46.058594 21.253906C46.640625 20.746094 46.972656 20.027344 47 19.234375C47.027344 18.402344 46.699219 17.585938 46.105469 16.992188 Z M 19.792969 44.691406C19.390625 45.09375 18.808594 45.09375 18.40625 44.691406L5.308594 31.59375C5.101563 31.390625 4.992188 31.109375 5 30.832031C5.003906 30.695313 5.042969 30.441406 5.308594 30.207031L17.851563 17.664063L32.335938 32.148438Z" />
</svg>