<?xml version="1.0" encoding="utf-8"?>
<svg xmlns="http://www.w3.org/2000/svg" viewBox="0 0 50 50" width="515" height="515">
  <path d="M32.59375 4.03125C31.808594 4.03125 31.039063 4.296875 30.46875 4.875L3.875 31.75C2.703125 32.933594 2.703125 34.875 3.875 36.0625L13.4375 45.71875C13.628906 45.910156 13.886719 46 14.15625 46L41 46C41.390625 46.058594 41.78125 45.878906 41.996094 45.546875C42.210938 45.214844 42.210938 44.785156 41.996094 44.453125C41.78125 44.121094 41.390625 43.941406 41 44L25.03125 44L47.125 21.6875C48.296875 20.503906 48.296875 18.558594 47.125 17.375L34.75 4.875C34.179688 4.296875 33.378906 4.03125 32.59375 4.03125 Z M 18 20.375L32.3125 33.78125L22.21875 44L14.5625 44L5.3125 34.625C4.917969 34.222656 4.917969 33.585938 5.3125 33.1875Z" />
</svg>