<?xml version="1.0" encoding="utf-8"?>
<svg xmlns="http://www.w3.org/2000/svg" viewBox="0 0 50 50" width="515" height="515">
  <path d="M49.866,45.5l-24-41.6c-0.357-0.619-1.375-0.619-1.732,0l-24,41.6c-0.179,0.31-0.178,0.69,0,1C0.313,46.81,0.643,47,1,47h48c0.357,0,0.688-0.19,0.866-0.5S50.045,45.81,49.866,45.5z M23.4,19.3c0-0.2,0.1-0.4,0.4-0.4h2.3c0.2,0,0.4,0.1,0.4,0.4v14.5c0,0.2-0.1,0.4-0.4,0.4h-2.3c-0.2,0-0.4-0.1-0.4-0.4V19.3z M26.6,40c0,0.2-0.1,0.4-0.4,0.4h-2.4c-0.2,0-0.4-0.1-0.4-0.4v-2.6c0-0.2,0.1-0.4,0.4-0.4h2.4c0.2,0,0.4,0.1,0.4,0.4V40z" />
</svg>