<?xml version="1.0" encoding="utf-8"?>
<svg xmlns="http://www.w3.org/2000/svg" viewBox="0 0 50 50" width="515" height="515">
  <path d="M9 4C6.243 4 4 6.243 4 9L4 41C4 43.757 6.243 46 9 46L41 46C43.757 46 46 43.757 46 41L46 9C46 6.243 43.757 4 41 4L9 4 z M 12 14L38 14L38 30L34 30L34 33L30 33L30 36L20 36L20 33L16 33L16 30L12 30L12 14 z M 15 17L15 24L17 24L17 17L15 17 z M 18 17L18 24L20 24L20 17L18 17 z M 21 17L21 24L23 24L23 17L21 17 z M 24 17L24 24L26 24L26 17L24 17 z M 27 17L27 24L29 24L29 17L27 17 z M 30 17L30 24L32 24L32 17L30 17 z M 33 17L33 24L35 24L35 17L33 17 z" />
</svg>