<?xml version="1.0" encoding="utf-8"?>
<svg xmlns="http://www.w3.org/2000/svg" viewBox="0 0 50 50" width="515" height="515">
  <path d="M23.59375 2.03125C22.125 2.03125 21.097656 3.199219 20.375 4.21875C19.707031 5.15625 18.621094 5.1875 16.59375 5.1875C15.515625 5.1875 14.132813 5.289063 13.28125 5.90625C14.550781 8.035156 16.207031 9.621094 17.71875 10.03125C18.519531 10.25 19.164063 10.105469 19.75 9.625C20.722656 8.703125 21.800781 7.710938 23.125 7.8125C24.066406 7.878906 24.898438 8.457031 25.875 9.6875C26.050781 9.902344 26.300781 10.011719 26.59375 10.03125C27.113281 10.066406 27.757813 9.757813 28.3125 9.25C28.898438 8.726563 29.574219 8.191406 30.28125 7.625C31.425781 6.707031 33.457031 5.085938 33.78125 4.3125C33.484375 4.132813 33.074219 4 32.5 4C31.707031 4 30.9375 4.195313 30.1875 4.375C29.546875 4.527344 28.949219 4.65625 28.4375 4.65625C27.984375 4.65625 27.652344 4.558594 27.40625 4.3125C25.867188 2.710938 24.734375 2.03125 23.59375 2.03125 Z M 34.34375 6.78125C33.574219 7.554688 32.589844 8.339844 31.53125 9.1875C30.863281 9.722656 30.203125 10.265625 29.65625 10.75C28.691406 11.632813 27.515625 12.105469 26.4375 12.03125C25.597656 11.972656 24.886719 11.589844 24.34375 10.9375C23.578125 9.96875 23.148438 9.796875 22.96875 9.78125C22.53125 9.769531 21.738281 10.515625 21.09375 11.125C20.289063 11.789063 19.371094 12.125 18.40625 12.125C18.003906 12.125 17.609375 12.050781 17.1875 11.9375C16.371094 11.714844 15.566406 11.261719 14.78125 10.65625C15.765625 11.703125 17.160156 13.5625 17.40625 16.15625C19.476563 17.4375 24.285156 19.601563 29.90625 16.4375C30.222656 16.257813 30.589844 16 31 15.71875C31.03125 15.695313 31.058594 15.679688 31.09375 15.65625C30.820313 11.941406 33 9.070313 33.28125 8.71875L33.375 8.59375C33.714844 8.058594 34.105469 7.425781 34.34375 6.78125 Z M 38.21875 13C36.261719 12.910156 34.515625 13.585938 33.09375 14.375C33.066406 14.683594 33.078125 14.988281 33.09375 15.3125C33.542969 15.496094 33.988281 15.722656 34.4375 15.9375C36.53125 16.945313 38.582031 18.324219 40.4375 20C40.460938 20.003906 40.476563 20 40.5 20C40.746094 20 40.992188 19.902344 41.1875 19.71875C41.589844 19.339844 41.597656 18.714844 41.21875 18.3125C39.496094 16.492188 37.371094 15.691406 35.28125 15.53125C36.929688 14.867188 38.859375 14.683594 41.03125 15.875C41.515625 16.140625 42.109375 15.953125 42.375 15.46875C42.640625 14.984375 42.453125 14.390625 41.96875 14.125C40.632813 13.394531 39.394531 13.054688 38.21875 13 Z M 32.4375 17.15625C32.332031 17.226563 32.226563 17.304688 32.125 17.375C31.664063 17.691406 31.269531 17.949219 30.90625 18.15625C28.445313 19.542969 26.097656 20.0625 24 20.0625C20.359375 20.0625 17.46875 18.574219 16.03125 17.65625C9.6875 20.375 4 28.308594 4 35.09375C4 46 11.070313 48 25 48C38.929688 48 46 46 46 35.09375C46 27.015625 39.257813 19.878906 32.4375 17.15625 Z M 25.6875 26C27.019531 26 28.335938 26.449219 29.65625 27.375L28.625 29.21875C27.597656 28.207031 26.570313 27.6875 25.5 27.6875C22.65625 27.6875 21.78125 30.847656 21.53125 32.0625L27.75 32.0625L27.15625 33.375L21.375 33.375C21.359375 33.492188 21.375 33.632813 21.375 33.75L21.375 34.3125C21.375 34.386719 21.359375 34.457031 21.375 34.53125L26.84375 34.53125L26.28125 35.875L21.5 35.875C21.984375 39.027344 23.355469 40.59375 25.65625 40.59375C27.507813 40.59375 28.445313 39.601563 29.0625 39.03125L29.0625 41.3125C28.082031 41.941406 26.933594 42.28125 25.65625 42.28125C22.066406 42.28125 19.992188 40.140625 19.375 35.875L17.65625 35.875L18.25 34.53125L19.28125 34.53125C19.265625 34.457031 19.25 34.386719 19.25 34.3125L19.25 33.71875C19.25 33.601563 19.265625 33.476563 19.28125 33.375L17.65625 33.375L18.25 32.0625L19.4375 32.0625C19.789063 30.261719 21.136719 26 25.6875 26Z" />
</svg>