<?xml version="1.0" encoding="utf-8"?>
<svg xmlns="http://www.w3.org/2000/svg" viewBox="0 0 50 50" width="515" height="515">
  <path d="M12 0C10.90625 0 10 0.90625 10 2L10 4L4 4C2.839844 4 2 4.839844 2 6L2 13L48 13L48 6C48 4.839844 47.160156 4 46 4L40 4L40 2C40 0.90625 39.09375 0 38 0L36 0C34.90625 0 34 0.90625 34 2L34 4L16 4L16 2C16 0.90625 15.09375 0 14 0 Z M 12 2L14 2L14 8L12 8 Z M 36 2L38 2L38 8L36 8 Z M 2 15L2 46C2 47.105469 2.894531 48 4 48L34.027344 48C35.695313 49.25 37.757813 50 40 50C45.515625 50 50 45.515625 50 40C50 37.757813 49.25 35.695313 48 34.027344L48 15 Z M 24.5 20L27.015625 26.5L34 26.875L28.574219 31.265625L29.6875 35.441406L30.371094 38L24.5 34.214844L18.628906 38L20.429688 31.265625L15 26.875L21.984375 26.5 Z M 40 32C44.410156 32 48 35.589844 48 40C48 44.410156 44.410156 48 40 48C35.589844 48 32 44.410156 32 40C32 35.589844 35.589844 32 40 32 Z M 39 34L39 38.886719C38.683594 39.167969 38.5 39.574219 38.5 40C38.5 40.828125 39.171875 41.5 40 41.5C40.097656 41.5 40.195313 41.488281 40.292969 41.46875L43.402344 43.800781L44.597656 42.199219L41.496094 39.871094C41.460938 39.488281 41.285156 39.136719 41 38.886719L41 34Z" />
</svg>