<?xml version="1.0" encoding="utf-8"?>
<svg xmlns="http://www.w3.org/2000/svg" viewBox="0 0 50 50" width="515" height="515">
  <path d="M20 2C17.242188 2 15 4.242188 15 7L15 12C15 12.550781 14.550781 13 14 13L9 13C6.839844 13 5.0625 14.742188 5.039063 16.886719C4.992188 21.289063 5.472656 25.53125 6.3125 28.230469C7.277344 31.304688 9.199219 33.296875 11.71875 33.839844L18.789063 35.449219C19.875 35.679688 20.980469 35.460938 21.894531 34.832031C22.808594 34.203125 23.410156 33.253906 23.589844 32.066406L23.75 29.730469C24.898438 31.167969 26.800781 32 29 32L32 32C34.207031 32 36 33.792969 36 36L36 39C36 40.652344 34.652344 42 33 42L30.105469 42C29.570313 42 29.085938 41.640625 29.015625 41.175781C28.964844 40.871094 29.042969 40.582031 29.234375 40.355469C29.425781 40.128906 29.707031 40 30 40L32 40C32.554688 40 33 39.550781 33 39L33 35C33 34.449219 32.554688 34 32 34L29 34C25.691406 34 23 36.691406 23 40L23 42C23 45.308594 25.691406 48 29 48L34 48C44 48 44 33.816406 44 27C44 20.09375 43.835938 15.574219 42.96875 11.46875C42.28125 8.226563 40.324219 6.320313 37.101563 5.804688C36.839844 5.777344 31.136719 5.199219 27.839844 5.03125C27.285156 3.375 25.390625 2 23.40625 2 Z M 13.453125 4.546875L6.390625 11.609375C7.179688 11.222656 8.066406 11 9 11L13 11L13 7C13 6.136719 13.164063 5.3125 13.453125 4.546875 Z M 34.5 20C35.882813 20 37 21.121094 37 22.5C37 23.09375 36.785156 23.628906 36.441406 24.058594C35.683594 23.429688 34.210938 23 32.5 23C32.347656 23 32.203125 23.011719 32.058594 23.019531C32.019531 22.851563 32 22.679688 32 22.5C32 21.117188 33.117188 20 34.5 20Z" />
</svg>