<?xml version="1.0" encoding="utf-8"?>
<svg xmlns="http://www.w3.org/2000/svg" viewBox="0 0 50 50" width="515" height="515">
  <path d="M7 0L7 50L43 50L43 16L27 16L27 0 Z M 29 0.59375L29 14L42.40625 14 Z M 19.875 19.75C20.253906 19.6875 20.621094 19.902344 20.78125 20.25C23.144531 25.402344 24.90625 31.84375 25.71875 35.8125C25.8125 36.273438 25.523438 36.75 25.0625 36.84375C24.597656 36.933594 24.15625 36.617188 24.0625 36.15625C23.816406 34.953125 23.480469 33.53125 23.0625 31.96875L17 32.3125C16.5625 33.984375 16.210938 35.511719 16.03125 36.625C15.964844 37.042969 15.597656 37.34375 15.1875 37.34375C15.140625 37.34375 15.109375 37.351563 15.0625 37.34375C14.597656 37.269531 14.300781 36.839844 14.375 36.375C14.765625 33.976563 15.921875 29.664063 16.8125 26.71875C18.875 19.914063 19.328125 19.839844 19.875 19.75 Z M 19.96875 22.625C19.308594 24.421875 18.304688 27.578125 17.46875 30.59375L22.59375 30.28125C21.875 27.792969 20.996094 25.109375 19.96875 22.625 Z M 32.0625 26.0625C32.527344 26.035156 32.914063 26.375 32.9375 26.84375L33.125 30L35.96875 29.84375C36.433594 29.816406 36.816406 30.1875 36.84375 30.65625C36.871094 31.125 36.5 31.535156 36.03125 31.5625L33.1875 31.6875L33.34375 34.46875C33.367188 34.9375 33 35.320313 32.53125 35.34375C32.515625 35.34375 32.515625 35.34375 32.5 35.34375C32.050781 35.34375 31.679688 34.984375 31.65625 34.53125L31.5 31.78125L28.65625 31.9375C28.640625 31.9375 28.609375 31.9375 28.59375 31.9375C28.144531 31.9375 27.773438 31.609375 27.75 31.15625C27.726563 30.6875 28.09375 30.277344 28.5625 30.25L31.40625 30.09375L31.25 26.9375C31.226563 26.46875 31.59375 26.085938 32.0625 26.0625Z" />
</svg>