<?xml version="1.0" encoding="utf-8"?>
<svg xmlns="http://www.w3.org/2000/svg" viewBox="0 0 50 50" width="515" height="515">
  <path d="M23 6L23 9.1582031C19.571726 9.703163 17.349835 11.607027 16.263672 13.507812C14.97871 15.756497 15 18 15 18C15 20.842593 16.494146 23.079472 18.367188 24.367188C20.240229 25.654902 22.404297 26.283203 24.404297 26.908203C26.404297 27.533203 28.240229 28.154903 29.367188 28.929688C30.494146 29.704472 31 30.342593 31 32C31 32 30.97871 33.256496 30.263672 34.507812C29.548634 35.75913 28.416667 37 25 37C21.666667 37 20.550549 35.628441 19.789062 34.105469C19.027576 32.582497 19 31 19 31L15 31C15 31 14.97242 33.417503 16.210938 35.894531C17.261112 37.994882 19.500047 40.19698 23 40.820312L23 44L27 44L27 40.841797C30.428274 40.296837 32.650165 38.392973 33.736328 36.492188C35.02129 34.243504 35 32 35 32C35 29.157407 33.505854 26.920528 31.632812 25.632812C29.759771 24.345098 27.595703 23.716797 25.595703 23.091797C23.595703 22.466797 21.759771 21.845097 20.632812 21.070312C19.505854 20.295528 19 19.657407 19 18C19 18 19.02129 16.743504 19.736328 15.492188C20.451366 14.24087 21.583333 13 25 13C28.333333 13 29.449451 14.371559 30.210938 15.894531C30.972424 17.417503 31 19 31 19L35 19C35 19 35.02758 16.582497 33.789062 14.105469C32.738888 12.005118 30.499953 9.8030201 27 9.1796875L27 6L23 6 z M 40.955078 8.9902344 A 1.0001 1.0001 0 0 0 40.318359 10.730469L45.962891 16L36.619141 16C36.787141 16.682 36.897125 17.354 36.953125 18L45.962891 18L40.318359 23.269531 A 1.0001 1.0001 0 1 0 41.681641 24.730469L49.964844 17L41.681641 9.2695312 A 1.0001 1.0001 0 0 0 40.955078 8.9902344 z M 2 16C1.447 16 1 16.447 1 17C1 17.553 1.447 18 2 18L13 18C13 17.369 13.073937 16.693 13.210938 16L2 16 z M 8.9804688 24.990234 A 1.0001 1.0001 0 0 0 8.2929688 25.292969L0.5859375 33L8.2929688 40.707031 A 1.0001 1.0001 0 1 0 9.7070312 39.292969L4.4140625 34L13.380859 34C13.212859 33.318 13.102875 32.646 13.046875 32L4.4140625 32L9.7070312 26.707031 A 1.0001 1.0001 0 0 0 8.9804688 24.990234 z M 37 32C37 32.631 36.926062 33.307 36.789062 34L48.5 34C49.053 34 49.5 33.553 49.5 33C49.5 32.447 49.053 32 48.5 32L37 32 z" />
</svg>