<?xml version="1.0" encoding="utf-8"?>
<svg xmlns="http://www.w3.org/2000/svg" viewBox="0 0 50 50" width="515" height="515">
  <path d="M12 2C9.242188 2 7 4.242188 7 7C7 9.757813 9.242188 12 12 12C14.757813 12 17 9.757813 17 7C17 4.242188 14.757813 2 12 2 Z M 24 4C23.449219 4 23 4.449219 23 5L23 11L25 11L25 6L44 6L44 39L25 39L25 20L23 20L23 39.777344L21.070313 44.628906C20.949219 44.9375 20.984375 45.289063 21.171875 45.5625C21.359375 45.835938 21.667969 46 22 46L47 46C47.332031 46 47.644531 45.835938 47.828125 45.558594C48.015625 45.28125 48.050781 44.929688 47.925781 44.625L46.011719 39.921875C46.007813 39.894531 46.003906 39.867188 46 39.84375L46 5C46 4.449219 45.550781 4 45 4 Z M 28 8C27.449219 8 27 8.449219 27 9L27 11L29 11L29 10L40 10L40 28L29 28L29 20L27 20L27 29C27 29.550781 27.449219 30 28 30L41 30C41.550781 30 42 29.550781 42 29L42 9C42 8.449219 41.550781 8 41 8 Z M 7.5 13C4.46875 13 2 15.46875 2 18.5L2 32C2 33.105469 2.898438 34 4 34C5.101563 34 6 33.105469 6 32L6 20.546875C6 20.277344 6.230469 20.046875 6.5 20.046875C6.769531 20.046875 7 20.277344 7 20.546875L7 45.300781C7 46.863281 7.835938 48 9.398438 48C10.882813 48 12 46.839844 12 45.300781L12 33.699219C12 33.421875 12.222656 33.199219 12.5 33.199219C12.777344 33.199219 13 33.421875 13 33.699219L13 45.59375C13.003906 45.597656 13.011719 45.601563 13.015625 45.609375C13.152344 46.992188 14.21875 48 15.597656 48C17.164063 48 18 46.863281 18 45.300781L18 18L28.5 18C29.882813 18 31 16.882813 31 15.5C31 14.117188 29.882813 13 28.5 13L15.515625 13L12.5 19L13 19C13.550781 19 14 19.449219 14 20L14 24C14 24.550781 13.550781 25 13 25L11 25C10.449219 25 10 24.550781 10 24L10 20C10 19.449219 10.449219 19 11 19L11.5 19L8.515625 13Z" />
</svg>