<?xml version="1.0" encoding="utf-8"?>
<svg xmlns="http://www.w3.org/2000/svg" viewBox="0 0 50 50" width="515" height="515">
  <path d="M7 3C6.45 3 6 3.45 6 4L6 31C6 31.55 6.45 32 7 32L10.359375 32C9.529375 31.27 9 30.2 9 29C9 27.99 9.38 27.069375 10 26.359375L10 8C10 7.45 10.45 7 11 7L39 7C39.55 7 40 7.45 40 8L40 26.359375C40.62 27.069375 41 27.99 41 29C41 30.2 40.470625 31.27 39.640625 32L43 32C43.55 32 44 31.55 44 31L44 4C44 3.45 43.55 3 43 3L7 3 z M 12 9L12 25.130859C12.16 25.085859 12.322031 25.0525 12.488281 25.03125C12.654531 25.01 12.825 25 13 25C13.505 25 13.986641 25.095078 14.431641 25.267578C14.654141 25.353828 14.868437 25.459219 15.070312 25.582031C15.272188 25.704844 15.463125 25.845 15.640625 26L34.359375 26C34.536875 25.845 34.727812 25.704844 34.929688 25.582031C35.333438 25.336406 35.782969 25.158984 36.261719 25.068359C36.501094 25.023047 36.7475 25 37 25C37.35 25 37.68 25.040859 38 25.130859L38 9L12 9 z M 13 27 A 2 2 0 0 0 11 29 A 2 2 0 0 0 11.955078 30.705078C11.515701 35.2649 6.8756065 39 1 39L1 41C5.5899108 41 9.6819853 38.962504 12 35.851562L12 46L10 46L10 48L16 48L16 46L14 46L14 35.851562C16.318015 38.962505 20.410089 41 25 41C29.589911 41 33.681985 38.962505 36 35.851562L36 46L34 46L34 48L40 48L40 46L38 46L38 35.851562C40.318015 38.962504 44.410089 41 49 41L49 39C43.123563 39 38.48317 35.263826 38.044922 30.703125 A 2 2 0 0 0 39 29 A 2 2 0 0 0 37 27 A 2 2 0 0 0 35 29 A 2 2 0 0 0 35.955078 30.705078C35.515701 35.2649 30.875606 39 25 39C19.123563 39 14.48317 35.263826 14.044922 30.703125 A 2 2 0 0 0 15 29 A 2 2 0 0 0 13 27 z M 16.869141 28C16.959141 28.32 17 28.65 17 29C17 30.2 16.470625 31.27 15.640625 32L34.359375 32C33.529375 31.27 33 30.2 33 29C33 28.65 33.040859 28.32 33.130859 28L16.869141 28 z" />
</svg>