<?xml version="1.0" encoding="utf-8"?>
<svg xmlns="http://www.w3.org/2000/svg" viewBox="0 0 50 50" width="515" height="515">
  <path d="M43 0L7 0C6.398438 0 6 0.398438 6 1L6 36.097656C4.9375 36.933594 4 38.402344 4 41C4 43 4 43 4 43L6 43L6 50L33.167969 50L25.003906 40.367188C25.003906 40.367188 25.007813 40.363281 25.007813 40.363281L19 33.300781C18.679688 32.914063 18.394531 32.53125 18.1875 32.121094C18.175781 32.097656 18.160156 32.070313 18.148438 32.046875C17.945313 31.628906 17.820313 31.1875 17.828125 30.695313C17.824219 30.695313 17.824219 30.695313 17.824219 30.695313C17.828125 30.191406 17.964844 29.636719 18.300781 29L22.398438 20L18.101563 20L14.140625 27.878906C13.738281 28.578125 13.039063 28.980469 12.339844 28.980469C12.039063 28.980469 11.738281 28.878906 11.4375 28.777344C10.4375 28.277344 10.039063 27.078125 10.539063 26.078125L15.101563 17.101563C15.398438 16.398438 16.101563 16 16.898438 16L26.898438 16C28.699219 16 30.5 16.800781 31.800781 18.101563L37.800781 24L42 24L42 28L37 28C36.5 28 36 27.800781 35.5 27.398438L31.5 23.398438L26 30.898438L37 50L44 50L44 1C44 0.398438 43.601563 0 43 0 Z M 17 37L17.605469 34.75L21.378906 39.183594L21.199219 39.601563C20.800781 40.5 20.199219 41 19.398438 41L6 41L6 40C6 39.855469 6.023438 39.714844 6.039063 39.574219C6.0625 39.429688 6.097656 39.253906 6.15625 39.0625C6.15625 39.054688 6.160156 39.046875 6.160156 39.039063C6.191406 38.941406 6.226563 38.84375 6.269531 38.742188C6.730469 37.699219 7.753906 37 9 37 Z M 32 15C29.238281 15 27 12.761719 27 10C27 7.238281 29.238281 5 32 5C34.761719 5 37 7.238281 37 10C37 12.761719 34.761719 15 32 15Z" />
</svg>