<?xml version="1.0" encoding="utf-8"?>
<svg xmlns="http://www.w3.org/2000/svg" viewBox="0 0 50 50" width="515" height="515">
  <path d="M5 5L5 18 A 2.0002 2.0002 0 1 0 9 18L9 11.828125L20.085938 22.914062 A 2.0002 2.0002 0 1 0 22.914062 20.085938L11.828125 9L18 9 A 2.0002 2.0002 0 1 0 18 5L5 5 z M 32 5 A 2.0002 2.0002 0 1 0 32 9L38.087891 9L27.080078 20.091797 A 2.0002 2.0002 0 1 0 29.919922 22.908203L41 11.744141L41 18 A 2.0002 2.0002 0 1 0 45 18L45 5L32 5 z M 21.46875 26.480469 A 2.0002 2.0002 0 0 0 20.091797 27.080078L9 38.087891L9 32 A 2.0002 2.0002 0 1 0 5 32L5 45L18 45 A 2.0002 2.0002 0 1 0 18 41L11.744141 41L22.908203 29.919922 A 2.0002 2.0002 0 0 0 21.46875 26.480469 z M 28.478516 26.480469 A 2.0002 2.0002 0 0 0 27.085938 29.914062L38.171875 41L32 41 A 2.0002 2.0002 0 1 0 32 45L45 45L45 32 A 2.0002 2.0002 0 1 0 41 32L41 38.171875L29.914062 27.085938 A 2.0002 2.0002 0 0 0 28.478516 26.480469 z" />
</svg>