<?xml version="1.0" encoding="utf-8"?>
<svg xmlns="http://www.w3.org/2000/svg" viewBox="0 0 50 50" width="515" height="515">
  <path d="M18.5 2C17.101563 2 16 3.101563 16 4.5C16 5.699219 16.898438 6.707031 18 6.90625L18 40.90625C18 44.804688 21.101563 47.90625 25 47.90625C28.898438 47.90625 32 44.804688 32 40.90625L32 6.90625C33.101563 6.707031 34 5.699219 34 4.5C34 3.101563 32.898438 2 31.5 2 Z M 18.5 4L31.5 4C31.800781 4 32 4.199219 32 4.5C32 4.800781 31.800781 5 31.5 5L23 5L23 7L30 7L30 13L20 13L20 7L21 7L21 5L18.5 5C18.199219 5 18 4.800781 18 4.5C18 4.199219 18.199219 4 18.5 4 Z M 26 21C27.101563 21 28 21.898438 28 23C28 24.101563 27.101563 25 26 25C24.898438 25 24 24.101563 24 23C24 21.898438 24.898438 21 26 21 Z M 23.5 31C24.300781 31 25 31.699219 25 32.5C25 33.300781 24.300781 34 23.5 34C22.699219 34 22 33.300781 22 32.5C22 31.699219 22.699219 31 23.5 31Z" />
</svg>