<?xml version="1.0" encoding="utf-8"?>
<svg xmlns="http://www.w3.org/2000/svg" viewBox="0 0 50 50" width="515" height="515">
  <path d="M18 7C8.074219 7 0 15.074219 0 25C0 34.925781 8.074219 43 18 43C27.925781 43 36 34.925781 36 25C36 15.074219 27.925781 7 18 7 Z M 26.84375 7.09375C33.433594 10.367188 38 17.15625 38 25C38 32.847656 33.433594 39.632813 26.84375 42.90625C35.898438 41.976563 43 34.296875 43 25C43 15.703125 35.898438 8.027344 26.84375 7.09375 Z M 33.84375 7.09375C40.433594 10.367188 44.96875 17.15625 44.96875 25C44.96875 32.847656 40.433594 39.632813 33.84375 42.90625C42.898438 41.972656 49.96875 34.296875 49.96875 25C49.96875 15.703125 42.898438 8.027344 33.84375 7.09375 Z M 17.5 16.5L19 16.5L19 33.5L17 33.5L17 21.3125L12.59375 21.3125L12.59375 19.6875C13.195313 19.6875 13.710938 19.695313 14.3125 19.59375C14.8125 19.492188 15.3125 19.292969 15.8125 19.09375C16.210938 18.894531 16.605469 18.492188 16.90625 18.09375C17.207031 17.695313 17.398438 17.199219 17.5 16.5Z" />
</svg>