<?xml version="1.0" encoding="utf-8"?>
<svg xmlns="http://www.w3.org/2000/svg" viewBox="0 0 50 50" width="515" height="515">
  <path d="M24 3 A 1.0001 1.0001 0 0 0 23.728516 3.0390625C13.918842 3.4318911 8.5505285 8.6957877 7.3652344 19.126953L3.3378906 26.066406C2.9968906 26.679406 2.90875 27.384828 3.09375 28.048828C3.27975 28.720828 3.7239062 29.277625 4.3789062 29.640625L7.4199219 31.162109L8.4003906 37.943359C8.8053906 40.475359 11.115891 43.1 13.962891 43L17 43L17 47L37 47L37 40.59375C37 38.42475 37.562859 36.235969 38.630859 34.167969C38.861859 33.719969 38.998141 33.228609 38.994141 32.724609L38.96875 29.248047 A 1.0001 1.0001 0 0 0 39 29L39 16.380859L46.748047 7.6640625 A 1.0001 1.0001 0 0 0 47 7L47 4 A 1.0001 1.0001 0 0 0 46 3L24.921875 3L24 3 z M 25 5L45 5L45 6.6191406L37.550781 15L32.449219 15L25 6.6191406L25 5 z M 33 17L37 17L37 27.130859L33 24.464844L33 17 z" />
</svg>