<?xml version="1.0" encoding="utf-8"?>
<svg xmlns="http://www.w3.org/2000/svg" viewBox="0 0 50 50" width="515" height="515">
  <path d="M42 3C38.800781 3 37.601563 5.300781 36.5 7.398438C36 8.199219 35.601563 9 35 9.800781C35.5 10.199219 36 10.699219 36.402344 11.300781C37.199219 10.402344 37.699219 9.398438 38.199219 8.398438C39.300781 6.199219 40.101563 5 42 5C43.5 5 44.601563 5.5 45.300781 6.5C46.5 8.300781 46.300781 11.597656 44.800781 15.199219C43.800781 17.597656 42.601563 19.699219 41.402344 21.597656C39.402344 25 37.398438 28.199219 37 32.800781C36.644531 36.542969 38.503906 39.585938 40.140625 41.503906L36 42L39.800781 43.902344L36.902344 48L41.402344 45.5L43.300781 48L43.300781 44.800781L48 46.402344L44.800781 43.300781L47.402344 41.402344L44.199219 41.402344L44.199219 35L41.617188 40.164063C40.242188 38.527344 38.710938 35.996094 39 33C39.398438 28.898438 41.097656 26.097656 43.097656 22.699219C44.300781 20.699219 45.597656 18.601563 46.597656 16C48.398438 11.699219 48.5 7.699219 46.902344 5.398438C46.199219 4.300781 44.800781 3 42 3 Z M 30.097656 8C30.300781 12.199219 33.699219 15.601563 37.902344 15.800781C37.902344 14.101563 37.300781 12.5 36.300781 11.199219C35.902344 11.800781 35.300781 12.402344 34.5 12.902344C34 13.199219 33.398438 13 33.097656 12.597656C32.800781 12.097656 33 11.5 33.402344 11.199219C34 10.800781 34.5 10.402344 34.902344 9.800781C33.601563 8.699219 31.898438 8.101563 30.097656 8 Z M 28.300781 9.199219L26.199219 11.300781L26.199219 11.402344C26 16 30 20 34.597656 19.800781L34.699219 19.800781L36.800781 17.699219C32.402344 16.898438 29.101563 13.5 28.300781 9.199219 Z M 18.914063 9.886719C18.304688 9.886719 17.699219 9.925781 17.097656 10C9.300781 11 3 17.199219 2.101563 24.902344C1.5 30.199219 3.300781 35.300781 7 39C10.199219 42.199219 14.5 44 19 44C19.699219 44 20.398438 44 21.097656 43.902344C28.800781 43 35.101563 36.699219 35.902344 28.902344C36.199219 26.402344 35.898438 24 35.097656 21.699219C34.898438 21.800781 34.699219 21.800781 34.5 21.800781C29 22 24 17 24.199219 11.402344C24.199219 11.199219 24.199219 11 24.300781 10.800781C22.574219 10.199219 20.738281 9.882813 18.914063 9.886719Z" />
</svg>