<?xml version="1.0" encoding="utf-8"?>
<svg xmlns="http://www.w3.org/2000/svg" viewBox="0 0 50 50" width="515" height="515">
  <path d="M7 1L7 47L39.951172 47L41.693359 49.003906L50 39L45 39L45 30L43 30L43 14.564453L29.392578 1L7 1 z M 29 3L41 15L29 15L29 3 z M 23.78125 18C24.63825 18 25.314719 18.487891 25.636719 19.337891C26.065719 20.470891 25.818828 22.485625 25.173828 24.765625C26.062828 26.278625 27.220844 27.737781 28.464844 28.800781C30.263844 28.438781 31.845391 28.293891 32.900391 28.462891C34.779391 28.765891 34.982422 29.958031 34.982422 30.457031C34.981422 32.466031 32.88375 32.466797 32.09375 32.466797C30.69775 32.466797 29.296141 31.880266 27.994141 30.947266C27.864141 30.978266 27.731703 31.010922 27.595703 31.044922C25.417703 31.586922 23.364297 32.291906 21.654297 33.003906C20.773297 34.509906 19.859344 35.756188 19.027344 36.492188C18.218344 37.207188 17.52775 37.439453 16.96875 37.439453C16.60075 37.439453 16.291922 37.339937 16.044922 37.210938C15.012922 36.674937 14.874844 35.783859 15.089844 35.130859C15.474844 33.967859 17.584437 32.610875 20.273438 31.421875C20.366437 31.252875 20.460641 31.077484 20.556641 30.896484C21.646641 28.833484 22.47325 26.785391 23.03125 25.025391C22.13025 23.325391 21.59375 21.668844 21.59375 20.464844C21.59375 19.778844 21.758031 19.215062 22.082031 18.789062C22.357031 18.429063 22.87425 18 23.78125 18 z M 24.373047 27.199219C23.985047 28.246219 23.5425 29.303359 23.0625 30.318359C24.0865 29.956359 25.134203 29.627609 26.158203 29.349609C25.514203 28.686609 24.913047 27.957219 24.373047 27.199219 z M 40 32L43 32L43 41L46 41L41.693359 46L37 41L40 41L40 32 z M 33.117188 38.998047L33.134766 39L33.119141 39L33.117188 38.998047 z" />
</svg>