<?xml version="1.0" encoding="utf-8"?>
<svg xmlns="http://www.w3.org/2000/svg" viewBox="0 0 50 50" width="515" height="515">
  <path d="M1 -0.03125C0.425781 -0.03125 -0.03125 0.425781 -0.03125 1L-0.03125 49C-0.03125 49.574219 0.425781 50.03125 1 50.03125L31 50.03125C31.574219 50.03125 32.03125 49.574219 32.03125 49L32.03125 26L16 26C15.449219 26 15 25.550781 15 25C15 24.449219 15.449219 24 16 24L32.03125 24L32.03125 1C32.03125 0.425781 31.574219 -0.03125 31 -0.03125 Z M 32.03125 24L32.03125 26L45.59375 26L38.40625 33.1875C38.015625 33.578125 38.015625 34.203125 38.40625 34.59375C38.601563 34.789063 38.835938 34.90625 39.09375 34.90625C39.351563 34.90625 39.617188 34.789063 39.8125 34.59375L49.40625 25L39.8125 15.40625C39.421875 15.015625 38.796875 15.015625 38.40625 15.40625C38.015625 15.796875 38.015625 16.421875 38.40625 16.8125L45.59375 24Z" />
</svg>