<?xml version="1.0" encoding="utf-8"?>
<svg xmlns="http://www.w3.org/2000/svg" viewBox="0 0 50 50" width="515" height="515">
  <path d="M40.09375 0C38.523438 0 37.308594 1.175781 37.3125 2.59375L34 37L34 23C34 23 34 22 33 22L33 16C33 15.65625 32.820313 15.339844 32.53125 15.15625C32.242188 14.972656 31.875 14.949219 31.5625 15.09375L17 21.90625L17 17C17 16.648438 16.800781 16.335938 16.5 16.15625C16.199219 15.976563 15.84375 15.960938 15.53125 16.125L0.53125 24.125C0.207031 24.300781 0 24.632813 0 25L0 49C0 49.554688 0.449219 50 1 50L49 50C49.273438 50 49.527344 49.886719 49.71875 49.6875C49.90625 49.488281 50.015625 49.210938 50 48.9375L47.1875 2.6875C47.035156 1.171875 45.820313 0 44.40625 0 Z M 7 27L10 27L10 32L7 32 Z M 16 27L19 27L19 32L16 32 Z M 25 27L28 27L28 32L25 32 Z M 7 36L10 36L10 41L7 41 Z M 16 36L19 36L19 41L16 41 Z M 25 36L28 36L28 41L25 41Z" />
</svg>