<?xml version="1.0" encoding="utf-8"?>
<svg xmlns="http://www.w3.org/2000/svg" viewBox="0 0 50 50" width="515" height="515">
  <path d="M18.371094 4.0039062C17.825937 4.034375 17.300859 4.24125 16.880859 4.59375C16.320859 5.07375 16 5.7739062 16 6.5039062L16.017578 14.582031C16.017578 15.612031 16.668906 16.551875 17.628906 16.921875L24.5 20L22.679688 25.269531L17.929688 22.376953C16.819687 21.766953 15.44 21.906328 14.5 22.736328L7.0507812 28.75C6.4507812 29.28 6.0890625 30.010547 6.0390625 30.810547C5.9790625 31.610547 6.2395312 32.380234 6.7695312 32.990234C7.8195313 34.180234 9.81 34.309531 11 33.269531L16.869141 28.626953L20.929688 31.050781L15.890625 34.210938C14.960625 34.580938 14.290078 35.380313 14.080078 36.320312L12.070312 43.349609C11.900312 44.129609 12.040703 44.929375 12.470703 45.609375C12.900703 46.289375 13.569609 46.749688 14.349609 46.929688C14.569609 46.979687 14.79 47 15 47C16.4 47 17.629922 46.009453 17.919922 44.689453L19.570312 39.199219L27.269531 35.689453C29.269531 34.849453 30.750078 33.170078 31.330078 31.080078L34 23.710938L37.339844 24.980469L35.130859 31.599609C34.740859 32.799609 35.219531 34.129453 36.269531 34.689453C36.639531 34.889453 37.050703 35 37.470703 35C38.550703 35 39.499844 34.309063 39.839844 33.289062L42.839844 24.289062C43.269844 23.019062 42.619375 21.640156 41.359375 21.160156L21 13L21 6.6132812C21 5.3332812 20.099922 4.2332031 18.919922 4.0332031C18.737422 4.0032031 18.552813 3.99375 18.371094 4.0039062 z M 33.5 6 A 4.5 4.5 0 0 0 29 10.5 A 4.5 4.5 0 0 0 33.5 15 A 4.5 4.5 0 0 0 38 10.5 A 4.5 4.5 0 0 0 33.5 6 z" />
</svg>