<?xml version="1.0" encoding="utf-8"?>
<svg xmlns="http://www.w3.org/2000/svg" viewBox="0 0 50 50" width="515" height="515">
  <path d="M33.59375 0.09375L30.1875 9.09375L21.5 4.6875L25.5 13.5L16.3125 16.5L24.34375 19.65625L17.78125 26.28125C17.707031 26.355469 17.644531 26.4375 17.59375 26.53125L2 42.09375C0.699219 43.492188 0.800781 45.605469 2 46.90625L3.09375 48C3.792969 48.601563 4.699219 49 5.5 49C6.398438 49 7.207031 48.699219 7.90625 48L23.53125 32.375L23.71875 32.21875L26 29.90625L29.96875 25.96875L32.6875 33.6875L36.1875 24.8125L44.6875 29.09375L40.8125 20.40625L50 17.3125L41 13.8125L45.40625 5.3125L36.59375 9.1875 Z M 31.3125 16.09375C31.691406 16.09375 31.96875 16.1875 32.28125 16.5L32.3125 16.53125L33.46875 17.5625C34.035156 18.191406 34.007813 19.085938 33.5 19.59375L24.59375 28.5L21.5 25.40625L30.3125 16.5C30.625 16.1875 30.933594 16.09375 31.3125 16.09375 Z M 41 33.1875L38.8125 38.8125L33.1875 41L38.8125 43.1875L41 48.8125L43.1875 43.1875L48.8125 41L43.1875 38.8125 Z M 28.1875 34L27.1875 36.5L24.6875 37.5L27.1875 38.5L28.1875 41L29.1875 38.5L31.6875 37.5L29.1875 36.5Z" />
</svg>