<?xml version="1.0" encoding="utf-8"?>
<svg xmlns="http://www.w3.org/2000/svg" viewBox="0 0 50 50" width="515" height="515">
  <path d="M25 1.9980469C24.87 1.9980469 24.739141 2.0250781 24.619141 2.0800781L7.6191406 9.0800781C7.3891406 9.1700781 7.1998437 9.3500781 7.0898438 9.5800781L1.0898438 22.580078C0.94984375 22.890078 0.97015625 23.249062 1.1601562 23.539062C1.3401563 23.829062 1.66 24 2 24L4 24L4 45C4 45.55 4.45 46 5 46L45 46C45.55 46 46 45.55 46 45L46 24L48 24C48.34 24 48.659844 23.829062 48.839844 23.539062C49.029844 23.249063 49.050156 22.890078 48.910156 22.580078L42.910156 9.5800781C42.800156 9.3500781 42.610859 9.1700781 42.380859 9.0800781L25.380859 2.0800781C25.260859 2.0250781 25.13 1.9980469 25 1.9980469 z M 21 12L29 12L29 20L21 20L21 12 z M 16.744141 27L33.255859 27L25 32.779297L16.744141 27 z M 15 28.220703L23.255859 34L15 39.779297L15 28.220703 z M 35 28.220703L35 39.779297L26.744141 34L35 28.220703 z M 25 35.220703L33.255859 41L16.744141 41L25 35.220703 z" />
</svg>