<?xml version="1.0" encoding="utf-8"?>
<svg xmlns="http://www.w3.org/2000/svg" viewBox="0 0 50 50" width="515" height="515">
  <path d="M25 2C21.699219 2 19 4.699219 19 8C19 11.300781 21.699219 14 25 14C28.300781 14 31 11.300781 31 8C31 4.699219 28.300781 2 25 2 Z M 19.609375 13.890625C12.875 16.15625 8 22.523438 8 30C8 31.652344 9.347656 33 11 33C12.652344 33 14 31.652344 14 30C14 28.773438 14.199219 27.574219 14.589844 26.4375C15.015625 28.097656 15.835938 29.636719 17.003906 30.9375L17.003906 44.5C17.003906 46.429688 18.574219 48 20.503906 48C22.4375 48 24.003906 46.429688 24.003906 44.5L24.003906 33.453125C24.667969 33.515625 25.335938 33.515625 26 33.453125L26 44.5C26 46.429688 27.566406 48 29.5 48C31.429688 48 33 46.429688 33 44.5L33 30.925781C34.164063 29.632813 34.984375 28.09375 35.410156 26.4375C35.800781 27.574219 36 28.773438 36 30C36 31.683594 37.316406 33 38.996094 33C40.617188 33 41.945313 31.703125 41.996094 30.09375C42 30.0625 42 30.03125 42 30C42 22.523438 37.125 16.15625 30.390625 13.890625C28.96875 15.195313 27.078125 16 25 16C22.921875 16 21.03125 15.195313 19.609375 13.890625Z" />
</svg>