<?xml version="1.0" encoding="utf-8"?>
<svg xmlns="http://www.w3.org/2000/svg" viewBox="0 0 50 50" width="515" height="515">
  <path d="M5 4C3.3 4 2 5.3 2 7L2 13L3 13L47 13L48 13L48 11C48 9.3 46.7 8 45 8L18 8C17.7 7.9 17.100781 7 16.800781 6.5C16.100781 5.3 15.3 4 14 4L5 4 z M 3 15C2.4 15 2 15.4 2 16L2 43C2 44.7 3.3 46 5 46L12 46L33.300781 46L45 46C46.7 46 48 44.7 48 43L48 35.900391L48 23L48 16C48 15.4 47.6 15 47 15L3 15 z M 20.699219 20C22.199219 20 23.7 20.599609 25 21.599609C26.3 20.599609 27.800781 20 29.300781 20C33.000781 20 36 22.800781 36 26.300781C36 31.900781 26.699609 39.000781 25.599609 39.800781L25 40.300781L24.400391 39.800781C23.300391 39.000781 14 31.800781 14 26.300781C14 22.800781 16.999219 20 20.699219 20 z M 20.699219 22C18.099219 22 16 23.900781 16 26.300781C16 29.900781 22 35.400781 25 37.800781C28 35.500781 34 30.000781 34 26.300781C34 23.900781 31.900781 22 29.300781 22C28.100781 22 26.799219 22.599219 25.699219 23.699219L25 24.5L24.300781 23.699219C23.300781 22.599219 21.999219 22 20.699219 22 z" />
</svg>