<?xml version="1.0" encoding="utf-8"?>
<svg xmlns="http://www.w3.org/2000/svg" viewBox="0 0 50 50" width="515" height="515">
  <path d="M21 3L21 13L19 13C17.347656 13 16 14.347656 16 16L16 38C16 39.652344 17.347656 41 19 41L47 41C48.652344 41 50 39.652344 50 38L50 16C50 14.347656 48.652344 13 47 13L45 13L45 3 Z M 23 5L43 5L43 17L23 17 Z M 3 7C1.347656 7 0 8.347656 0 10L0 38C0 39.652344 1.347656 41 3 41L11 41C12.652344 41 14 39.652344 14 38L14 10C14 8.347656 12.652344 7 11 7 Z M 27 21C28.105469 21 29 21.894531 29 23C29 24.105469 28.105469 25 27 25C25.894531 25 25 24.105469 25 23C25 21.894531 25.894531 21 27 21 Z M 33 21C34.105469 21 35 21.894531 35 23C35 24.105469 34.105469 25 33 25C31.894531 25 31 24.105469 31 23C31 21.894531 31.894531 21 33 21 Z M 39 21C40.105469 21 41 21.894531 41 23C41 24.105469 40.105469 25 39 25C37.894531 25 37 24.105469 37 23C37 21.894531 37.894531 21 39 21 Z M 27 27C28.105469 27 29 27.894531 29 29C29 30.105469 28.105469 31 27 31C25.894531 31 25 30.105469 25 29C25 27.894531 25.894531 27 27 27 Z M 33 27C34.105469 27 35 27.894531 35 29C35 30.105469 34.105469 31 33 31C31.894531 31 31 30.105469 31 29C31 27.894531 31.894531 27 33 27 Z M 39 27C40.105469 27 41 27.894531 41 29C41 30.105469 40.105469 31 39 31C37.894531 31 37 30.105469 37 29C37 27.894531 37.894531 27 39 27 Z M 27 33C28.105469 33 29 33.894531 29 35C29 36.105469 28.105469 37 27 37C25.894531 37 25 36.105469 25 35C25 33.894531 25.894531 33 27 33 Z M 33 33C34.105469 33 35 33.894531 35 35C35 36.105469 34.105469 37 33 37C31.894531 37 31 36.105469 31 35C31 33.894531 31.894531 33 33 33 Z M 39 33C40.105469 33 41 33.894531 41 35C41 36.105469 40.105469 37 39 37C37.894531 37 37 36.105469 37 35C37 33.894531 37.894531 33 39 33 Z M 6.15625 42C6.867188 45.972656 10.324219 49 14.5 49C18.675781 49 22.132813 45.972656 22.84375 42L20.8125 42C20.113281 44.828125 17.507813 47 14.5 47C11.492188 47 8.886719 44.828125 8.1875 42Z" />
</svg>