<?xml version="1.0" encoding="utf-8"?>
<svg xmlns="http://www.w3.org/2000/svg" viewBox="0 0 50 50" width="515" height="515">
  <path d="M31.140625 9.496094C24.042969 14.601563 16.816406 20.785156 13.347656 24.257813C12.972656 24.628906 12.632813 25.015625 12.308594 25.414063C12.203125 25.539063 12.113281 25.671875 12.015625 25.804688C11.804688 26.078125 11.597656 26.355469 11.410156 26.636719C11.308594 26.789063 11.214844 26.945313 11.117188 27.101563C10.953125 27.371094 10.789063 27.640625 10.640625 27.914063C10.550781 28.074219 10.46875 28.238281 10.386719 28.402344C10.246094 28.675781 10.113281 28.953125 9.988281 29.230469C9.917969 29.390625 9.847656 29.546875 9.78125 29.707031C9.660156 29.996094 9.550781 30.289063 9.445313 30.578125C9.390625 30.726563 9.339844 30.867188 9.289063 31.011719C9.183594 31.328125 9.085938 31.640625 8.996094 31.953125C8.964844 32.074219 8.925781 32.191406 8.894531 32.308594C8.796875 32.671875 8.707031 33.03125 8.628906 33.390625C8.613281 33.449219 8.597656 33.511719 8.585938 33.574219C8.398438 34.4375 8.269531 35.269531 8.179688 36.046875C8.179688 36.0625 8.179688 36.074219 8.175781 36.085938C8.136719 36.449219 8.101563 36.796875 8.078125 37.132813C8.070313 37.214844 8.066406 37.285156 8.0625 37.363281C8.042969 37.625 8.03125 37.878906 8.019531 38.117188C8.015625 38.21875 8.011719 38.308594 8.011719 38.402344C8.003906 38.605469 8 38.796875 7.996094 38.980469C7.996094 39.085938 7.996094 39.183594 7.996094 39.28125C7.996094 39.429688 8 39.566406 8 39.699219C8.003906 39.804688 8.003906 39.90625 8.007813 40.003906C8.011719 40.089844 8.015625 40.164063 8.015625 40.242188C8.023438 40.359375 8.027344 40.464844 8.03125 40.558594L2.292969 46.296875C1.902344 46.6875 1.902344 47.316406 2.292969 47.710938C2.488281 47.902344 2.746094 48 3 48C3.257813 48 3.511719 47.902344 3.707031 47.707031L9.445313 41.96875C9.570313 41.976563 9.726563 41.984375 9.894531 41.988281C9.941406 41.992188 9.976563 41.992188 10.027344 41.992188C10.246094 42 10.492188 42.003906 10.765625 42.003906C14.03125 42.003906 21 41.394531 25.742188 36.652344C25.746094 36.648438 25.75 36.644531 25.753906 36.640625C25.78125 36.613281 25.8125 36.585938 25.839844 36.558594C26.308594 36.085938 26.828125 35.542969 27.386719 34.945313C27.390625 34.941406 27.398438 34.933594 27.40625 34.925781C28.523438 33.726563 29.796875 32.304688 31.152344 30.722656C31.152344 30.71875 31.152344 30.71875 31.152344 30.71875C31.164063 30.707031 31.171875 30.695313 31.183594 30.6875C31.1875 30.679688 31.191406 30.675781 31.195313 30.671875C31.742188 30.03125 32.300781 29.371094 32.867188 28.6875C32.890625 28.660156 32.914063 28.632813 32.9375 28.605469C33.503906 27.925781 34.078125 27.226563 34.65625 26.507813C34.660156 26.503906 34.660156 26.5 34.664063 26.496094C34.667969 26.492188 34.671875 26.488281 34.675781 26.484375C35.089844 25.96875 35.507813 25.445313 35.925781 24.917969C35.953125 24.878906 35.984375 24.84375 36.011719 24.808594C36.015625 24.804688 36.015625 24.804688 36.015625 24.804688C36.667969 23.976563 37.320313 23.132813 37.96875 22.285156C37.96875 22.285156 37.96875 22.28125 37.96875 22.28125C38.09375 22.121094 38.21875 21.957031 38.339844 21.792969C38.59375 21.457031 38.847656 21.117188 39.101563 20.777344C39.101563 20.773438 39.105469 20.769531 39.109375 20.769531C39.214844 20.621094 39.324219 20.476563 39.433594 20.332031C39.792969 19.84375 40.152344 19.351563 40.503906 18.859375C50.113281 5.507813 48.070313 3.464844 47.304688 2.695313C46.535156 1.929688 44.492188 -0.113281 31.140625 9.496094 Z M 13.289063 35.296875L13.296875 35.289063 Z M 35 9.234375C35.710938 8.753906 36.378906 8.3125 37 7.914063L37 11.585938L35 13.585938 Z M 29 13.570313C29.664063 13.066406 30.332031 12.5625 31 12.070313L31 17.585938L29 19.585938 Z M 25.296875 23.292969L25.292969 23.292969 Z M 23 18.339844C23.652344 17.800781 24.320313 17.253906 25 16.707031L25 23.585938L23 25.585938 Z M 19.296875 29.292969L19.292969 29.292969 Z M 17 23.539063C17.613281 22.976563 18.285156 22.375 19 21.746094L19 29.585938L17 31.585938 Z M 24.328125 35.238281C23.644531 35.921875 22.902344 36.496094 22.125 37L14.414063 37L16.414063 35L24.5625 35C24.484375 35.078125 24.402344 35.164063 24.328125 35.238281 Z M 28.253906 31L20.414063 31L22.414063 29L29.984375 29C29.390625 29.699219 28.8125 30.367188 28.253906 31 Z M 33.292969 25L26.414063 25L28.414063 23L34.882813 23C34.355469 23.675781 33.824219 24.34375 33.292969 25 Z M 37.929688 19L32.414063 19L34.414063 17L39.375 17C39.210938 17.230469 38.25 18.5625 37.929688 19Z" />
</svg>