<?xml version="1.0" encoding="utf-8"?>
<svg xmlns="http://www.w3.org/2000/svg" viewBox="0 0 50 50" width="515" height="515">
  <path d="M8 0.083984375L7.1894531 2.1875L6.0136719 5.2382812L0.49804688 5.5351562L4.7851562 9.0175781L3.3652344 14.353516L8 11.353516L12.636719 14.351562L11.214844 9.0175781L15.501953 5.5351562L9.9882812 5.2382812L8 0.083984375 z M 20 6.0175781L20 7.9824219L50 7.9824219L50 6.0175781L20 6.0175781 z M 8 17.583984L7.1894531 19.6875L6.0136719 22.738281L0.49804688 23.035156L4.7851562 26.517578L3.3652344 31.853516L8 28.853516L12.636719 31.851562L11.214844 26.517578L15.501953 23.035156L9.9882812 22.738281L8 17.583984 z M 20 24.017578L20 25.982422L50 25.982422L50 24.017578L20 24.017578 z M 8 34.583984L7.1894531 36.6875L6.0136719 39.738281L0.49804688 40.035156L4.7851562 43.517578L3.3652344 48.853516L8 45.853516L12.636719 48.851562L11.214844 43.517578L15.501953 40.035156L9.9882812 39.738281L8 34.583984 z M 20 42.017578L20 43.982422L50 43.982422L50 42.017578L20 42.017578 z" />
</svg>