<?xml version="1.0" encoding="utf-8"?>
<svg xmlns="http://www.w3.org/2000/svg" viewBox="0 0 50 50" width="515" height="515">
  <path d="M24.5 3C19.8 3 16 6.8 16 11.5C16 13.3 16.6 15.000781 17.5 16.300781C17.7 16.600781 17.899609 16.799609 18.099609 17.099609C20.299609 20.299609 18.300781 25.099219 14.300781 25.699219C14.300781 25.699219 12.499219 26 11.699219 26L11.5 26C6.8 26 3 29.8 3 34.5C3 39.2 6.8 43 11.5 43C14.5 43 17.199219 41.4 18.699219 39C19.199219 38.2 19.499219 37.4 19.699219 36.5L19.699219 36.400391C21.599219 31.800391 28.199609 31.800391 30.099609 36.400391L30.099609 36.5C30.299609 37.4 30.699609 38.200391 31.099609 38.900391C32.599609 41.300391 35.300781 42.900391 38.300781 42.900391C43.000781 42.900391 46.800781 39.100391 46.800781 34.400391C46.800781 29.700391 43.2 26 38.5 26C37.3 26 34.900391 25.599609 34.900391 25.599609C30.600391 24.899609 28.700391 19.800391 31.400391 16.400391C32.400391 15.000391 33 13.3 33 11.5C33 6.8 29.2 3 24.5 3 z M 24.5 6C27.5 6 30 8.5 30 11.5C30 14.5 27.5 17 24.5 17C21.5 17 19 14.5 19 11.5C19 8.5 21.5 6 24.5 6 z M 24.5 8C22.6 8 21 9.6 21 11.5C21 13.4 22.6 15 24.5 15C26.4 15 28 13.4 28 11.5C28 9.6 26.4 8 24.5 8 z M 24.5 10C25.3 10 26 10.7 26 11.5C26 12.3 25.3 13 24.5 13C23.7 13 23 12.3 23 11.5C23 10.7 23.7 10 24.5 10 z M 24.5 23C25.9 23 27 24.1 27 25.5C27 26.9 25.9 28 24.5 28C23.1 28 22 26.9 22 25.5C22 24.1 23.1 23 24.5 23 z M 11.5 29C14.5 29 17 31.5 17 34.5C17 37.5 14.5 40 11.5 40C8.5 40 6 37.5 6 34.5C6 31.5 8.5 29 11.5 29 z M 38.5 29C41.5 29 44 31.5 44 34.5C44 37.5 41.5 40 38.5 40C35.5 40 33 37.5 33 34.5C33 31.5 35.5 29 38.5 29 z M 11.5 31C9.6 31 8 32.6 8 34.5C8 36.4 9.6 38 11.5 38C13.4 38 15 36.4 15 34.5C15 32.6 13.4 31 11.5 31 z M 38.5 31C36.6 31 35 32.6 35 34.5C35 36.4 36.6 38 38.5 38C40.4 38 42 36.4 42 34.5C42 32.6 40.4 31 38.5 31 z M 11.5 33C12.3 33 13 33.7 13 34.5C13 35.3 12.3 36 11.5 36C10.7 36 10 35.3 10 34.5C10 33.7 10.7 33 11.5 33 z M 38.5 33C39.3 33 40 33.7 40 34.5C40 35.3 39.3 36 38.5 36C37.7 36 37 35.3 37 34.5C37 33.7 37.7 33 38.5 33 z" />
</svg>