<?xml version="1.0" encoding="utf-8"?>
<svg xmlns="http://www.w3.org/2000/svg" viewBox="0 0 50 50" width="515" height="515">
  <path d="M10 1C9.699219 1 9.410156 1.140625 9.21875 1.375C9.027344 1.609375 8.96875 1.894531 9.03125 2.1875L12.6875 20L12.40625 20L5.40625 13.28125C5.105469 12.992188 4.628906 12.910156 4.25 13.09375L0.5625 14.90625C0.324219 15.023438 0.148438 15.214844 0.0625 15.46875C-0.0234375 15.722656 -0.0273438 16.011719 0.09375 16.25L3.6875 23.34375L3.6875 26.5625L0.09375 33.75C-0.0234375 33.988281 -0.0234375 34.277344 0.0625 34.53125C0.148438 34.785156 0.324219 34.976563 0.5625 35.09375L4.25 36.90625C4.628906 37.089844 5.105469 37.007813 5.40625 36.71875L12.40625 30L12.78125 30L9.03125 47.78125C8.96875 48.078125 9.027344 48.390625 9.21875 48.625C9.410156 48.859375 9.699219 49 10 49L13.90625 49C14.195313 49 14.464844 48.875 14.65625 48.65625L20.5 41.96875L24.09375 41.96875C24.632813 41.96875 25.0625 41.539063 25.0625 41C25.0625 40.460938 24.632813 40.03125 24.09375 40.03125L22.1875 40.03125L30.96875 30L37.90625 30C43.660156 30 49.355469 25.984375 49.59375 25.8125C49.855469 25.625 50 25.320313 50 25C50 24.679688 49.855469 24.375 49.59375 24.1875C49.359375 24.015625 43.761719 20 37.90625 20L30.96875 20L22.1875 9.96875L24.09375 9.96875C24.632813 9.96875 25.0625 9.539063 25.0625 9C25.0625 8.460938 24.632813 8.03125 24.09375 8.03125L20.5 8.03125L14.65625 1.34375C14.464844 1.125 14.195313 1 13.90625 1Z" />
</svg>