<?xml version="1.0" encoding="utf-8"?>
<svg xmlns="http://www.w3.org/2000/svg" viewBox="0 0 50 50" width="515" height="515">
  <path d="M15 2C12.800781 2 11 3.800781 11 6C11 8.199219 12.800781 10 15 10C17.199219 10 19 8.199219 19 6C19 3.800781 17.199219 2 15 2 Z M 41 3C38.800781 3 37 4.800781 37 7C37 9.199219 38.800781 11 41 11C43.199219 11 45 9.199219 45 7C45 4.800781 43.199219 3 41 3 Z M 31.0625 7.9375C30.914063 7.945313 30.742188 7.960938 30.59375 8L11.90625 12.1875C10.804688 12.386719 9.894531 13.011719 9.09375 13.8125L3.3125 20.1875C2.511719 21.085938 2.304688 22.398438 2.90625 23.5C3.605469 24.800781 5.101563 25.3125 6.5 24.8125L8 24.1875L12.1875 22.5C13.289063 22.101563 13.898438 20.789063 13.5 19.6875C13.300781 19.085938 12.914063 18.707031 12.3125 18.40625C12.011719 18.304688 11.707031 18.1875 11.40625 18.1875C11.105469 18.1875 10.792969 18.304688 10.59375 18.40625L9.1875 18.90625L8.90625 18.90625C8.40625 18.90625 7.90625 18.507813 7.90625 17.90625C7.90625 17.507813 8.195313 17.101563 8.59375 17L10 16.40625C10.5 16.207031 10.992188 16.09375 11.59375 16.09375C12.195313 16.09375 12.8125 16.199219 13.3125 16.5C14.414063 17 15.199219 17.804688 15.5 18.90625C16.300781 21.007813 15.195313 23.386719 13.09375 24.1875L8.09375 26.1875L8.09375 34.40625L5.09375 44.40625C4.695313 45.804688 5.414063 47.1875 6.8125 47.6875C7.511719 47.886719 8.210938 47.894531 8.8125 47.59375C9.414063 47.292969 9.894531 46.699219 10.09375 46L12.90625 36.5L13.3125 30.09375L16.09375 35.8125L16.09375 45.5C16.09375 46.898438 17.195313 48 18.59375 48C19.992188 48 21.09375 46.898438 21.09375 45.5L21.09375 35.3125C21.09375 34.710938 21.011719 34.1875 20.8125 33.6875L17.5 23.8125L19.59375 15.6875L31.8125 12.59375C32.414063 12.394531 32.886719 12.007813 33.1875 11.40625C33.488281 10.804688 33.605469 10.195313 33.40625 9.59375C33.054688 8.542969 32.101563 7.886719 31.0625 7.9375 Z M 37.34375 12.25C36.085938 12.246094 34.882813 12.675781 33.90625 13.5L28.09375 18.59375L22.1875 19.90625C20.988281 20.207031 20.199219 21.394531 20.5 22.59375C20.800781 23.792969 21.894531 24.613281 23.09375 24.3125L29.1875 23.09375C29.289063 23.09375 29.304688 23.101563 29.40625 23L33.6875 20.3125L31.40625 27.40625L27.40625 33.40625C27.007813 33.90625 26.789063 34.492188 26.6875 35.09375L25 45.1875C24.800781 46.488281 25.605469 47.707031 26.90625 47.90625L27.40625 47.90625C27.90625 47.90625 28.414063 47.800781 28.8125 47.5C29.3125 47.101563 29.710938 46.605469 29.8125 45.90625L31.59375 36.8125L36.09375 31L40.1875 46C40.386719 46.699219 40.804688 47.195313 41.40625 47.59375C42.007813 47.894531 42.707031 48.011719 43.40625 47.8125C44.707031 47.414063 45.488281 45.988281 45.1875 44.6875L41.3125 30L41.5 29.09375C41.199219 28.992188 40.988281 28.792969 40.6875 28.59375L37.59375 26.1875C36.695313 25.488281 36.199219 24.507813 36 23.40625C35.898438 22.304688 36.207031 21.210938 36.90625 20.3125C37.707031 19.3125 38.886719 18.6875 40.1875 18.6875C41.085938 18.6875 41.988281 19 42.6875 19.5L43.90625 20.40625C44.105469 20.605469 44.1875 20.792969 44.1875 21.09375C44.1875 21.695313 43.789063 22.09375 43.1875 22.09375C42.988281 22.09375 42.789063 22.007813 42.6875 21.90625L41.5 21C41.101563 20.699219 40.6875 20.59375 40.1875 20.59375C39.585938 20.59375 38.898438 20.90625 38.5 21.40625C38.101563 21.90625 38 22.398438 38 23C38.101563 23.601563 38.414063 24.105469 38.8125 24.40625L41.90625 26.8125C42.007813 26.914063 42.207031 26.992188 42.40625 27.09375C42.507813 27.09375 42.492188 27.1875 42.59375 27.1875C42.695313 27.1875 42.804688 27.3125 42.90625 27.3125C43.007813 27.3125 42.992188 27.304688 43.09375 27.40625C43.195313 27.40625 43.304688 27.398438 43.40625 27.5L43.90625 27.5C44.40625 27.5 44.914063 27.394531 45.3125 27.09375C45.613281 26.894531 45.792969 26.800781 46.09375 26.5C46.792969 25.699219 47.113281 24.695313 46.8125 23.59375L45.3125 16.90625C44.8125 15.105469 43.394531 13.6875 41.59375 13.1875L38.59375 12.40625C38.167969 12.304688 37.761719 12.25 37.34375 12.25Z" />
</svg>