<?xml version="1.0" encoding="utf-8"?>
<svg xmlns="http://www.w3.org/2000/svg" viewBox="0 0 50 50" width="515" height="515">
  <path d="M11 3C8.242188 3 6 5.242188 6 8L6 17L44 17L44 8C44 5.242188 41.757813 3 39 3 Z M 20 9C20.550781 9 21 9.449219 21 10C21 10.878906 21.480469 11 22 11L28 11C28.492188 11 29 10.882813 29 10C29 9.449219 29.445313 9 30 9C30.554688 9 31 9.449219 31 10C31 11.792969 29.792969 13 28 13L22 13C20.179688 13 19 11.820313 19 10C19 9.449219 19.449219 9 20 9 Z M 6 19L6 32L44 32L44 19 Z M 20 24C20.550781 24 21 24.449219 21 25C21 25.878906 21.480469 26 22 26L28 26C28.492188 26 29 25.882813 29 25C29 24.449219 29.445313 24 30 24C30.554688 24 31 24.449219 31 25C31 26.792969 29.792969 28 28 28L22 28C20.179688 28 19 26.820313 19 25C19 24.449219 19.449219 24 20 24 Z M 6 34L6 43C6 45.757813 8.242188 48 11 48L39 48C41.757813 48 44 45.757813 44 43L44 34 Z M 20 39C20.550781 39 21 39.445313 21 40C21 40.878906 21.480469 41 22 41L28 41C28.492188 41 29 40.882813 29 40C29 39.445313 29.445313 39 30 39C30.554688 39 31 39.445313 31 40C31 41.792969 29.792969 43 28 43L22 43C20.179688 43 19 41.820313 19 40C19 39.445313 19.449219 39 20 39Z" />
</svg>