<?xml version="1.0" encoding="utf-8"?>
<svg xmlns="http://www.w3.org/2000/svg" viewBox="0 0 50 50" width="515" height="515">
  <path d="M22.6875 3C22.4375 3 22.199219 3.113281 22 3.3125L12.65625 12.5625L12.625 12.59375L11.3125 13.875C13.726563 15.746094 19.25 17 26 17C27.65625 17 29 18.34375 29 20C29 21.65625 27.65625 23 26 23C24.660156 23 23.539063 22.121094 23.15625 20.90625C24.105469 20.957031 25.050781 21 26 21C26.554688 21 27 20.550781 27 20C27 19.449219 26.554688 19 26 19C17.695313 19 8 17.074219 8 11.6875C8 9.207031 11.050781 7.308594 15.96875 6.46875L18.28125 4.15625C10.621094 4.824219 6 7.589844 6 11.6875C6 13.734375 6.921875 15.40625 8.46875 16.71875L3.1875 22C2.386719 22.800781 2 23.898438 2 25C2 26.101563 2.386719 27.199219 3.1875 28L19 43.8125C19.800781 44.613281 20.800781 45 22 45C23.101563 45 24.199219 44.613281 25 43.8125L43 25.78125C43.964844 26.863281 45 28.300781 45 29.6875C45 31.921875 44 36.054688 44 39C44 40.644531 45.355469 42 47 42C48.644531 42 50 40.644531 50 39L50 28.3125C50 23.859375 46.449219 20.246094 42.5 17.46875C38.722656 14.808594 34.476563 12.894531 31.9375 11.84375L23.40625 3.3125C23.207031 3.113281 22.9375 3 22.6875 3 Z M 36.03125 15.9375C37.777344 16.835938 39.652344 17.882813 41.375 19.09375C45.101563 21.714844 48 24.964844 48 28.3125L48 39C48 39.554688 47.554688 40 47 40C46.445313 40 46 39.554688 46 39C46 36.546875 47 32.453125 47 29.6875C47 26.835938 44.839844 24.714844 43.71875 23.59375L43.6875 23.59375Z" />
</svg>