<?xml version="1.0" encoding="utf-8"?>
<svg xmlns="http://www.w3.org/2000/svg" viewBox="0 0 50 50" width="515" height="515">
  <path d="M19 0C8.518428 0 0 8.5184356 0 19C0 29.481564 8.518428 38 19 38C29.481572 38 38 29.481564 38 19C38 17.028821 37.697616 15.126608 37.138672 13.337891C41.581738 19.654466 41.99105 25.851563 41.863281 31.464844C41.770751 35.530005 41.326334 39.261552 41.955078 42.509766C42.583819 45.757979 44.518302 48.506862 48.673828 49.945312 A 1.0001 1.0001 0 1 0 49.326172 48.054688C45.681695 46.793138 44.454853 44.904521 43.917969 42.130859C43.381085 39.357198 43.766358 35.682104 43.861328 31.509766C44.051268 23.165088 42.785762 12.719829 29.585938 3.1894531 A 1.0001 1.0001 0 0 0 29.257812 3.0292969C26.295774 1.1207498 22.780278 0 19 0 z M 19 3.5C21.4 3.5 24.099609 3.9003906 24.099609 7.4003906C24.099609 10.200391 20.4 12.699219 19 12.699219C17.6 12.699219 13.900391 10.200391 13.900391 7.4003906C13.900391 3.9003906 16.6 3.5 19 3.5 z M 29.908203 10.517578C31.969287 10.565503 32.949609 12.450391 33.599609 14.400391C34.199609 16.700391 34.600781 19.4 31.300781 20.5C30.900781 20.6 30.599219 20.699219 30.199219 20.699219C27.699219 20.699219 25.100781 18.300781 24.800781 17.300781C24.500781 16.400781 24.9 14.799609 25.5 13.599609C26 12.599609 26.900781 11.300781 28.300781 10.800781C28.900781 10.594531 29.432568 10.506519 29.908203 10.517578 z M 8.5585938 10.552734C8.9369141 10.57168 9.3507813 10.650781 9.8007812 10.800781C11.200781 11.300781 12.099609 12.599609 12.599609 13.599609C13.199609 14.799609 13.600781 16.400781 13.300781 17.300781C12.900781 18.300781 10.400391 20.699219 7.9003906 20.699219C7.5003906 20.699219 7.1007813 20.6 6.8007812 20.5C3.5007812 19.5 3.8 16.9 4.5 14.5C4.9375 13.1875 5.9103516 10.420117 8.5585938 10.552734 z M 19 17C20.1 17 21 17.9 21 19C21 20.1 20.1 21 19 21C17.9 21 17 20.1 17 19C17 17.9 17.9 17 19 17 z M 25.183594 23.580078C26.90625 23.548828 29 24.025391 30 25.400391C32.1 28.600391 29.299609 30.6 28.099609 31.5C26.999609 32.3 25.7 33 24.5 33C23.5 33 22.499219 32.500781 21.699219 31.300781C21.099219 30.400781 20.899609 29.200781 21.099609 27.800781C21.299609 26.400781 22.000781 24.699609 22.800781 24.099609C23.250781 23.799609 24.15 23.598828 25.183594 23.580078 z M 13.300781 23.787109C13.975781 23.824609 14.6 23.949219 15 24.199219C15.8 24.699219 16.500781 26.2 16.800781 27.5C17.200781 28.5 17.3 30.100781 16.5 31.300781C15.6 32.600781 14.5 33.099609 13.5 33.099609C12.1 33.099609 10.799609 32.200781 10.099609 31.800781C8.3996094 30.700781 7.6007813 29.699609 7.3007812 28.599609C7.1007812 27.699609 7.3 26.800781 8 25.800781C8.8 24.600781 10.300781 24.100391 11.300781 23.900391C11.900781 23.800391 12.625781 23.749609 13.300781 23.787109 z" />
</svg>