<?xml version="1.0" encoding="utf-8"?>
<svg xmlns="http://www.w3.org/2000/svg" viewBox="0 0 50 50" width="515" height="515">
  <path d="M15.984375 1.984375C15.675781 1.992188 15.390625 2.136719 15.203125 2.382813L10.292969 7.292969C10.03125 7.542969 9.925781 7.917969 10.019531 8.265625C10.109375 8.617188 10.382813 8.890625 10.734375 8.980469C11.082031 9.074219 11.457031 8.96875 11.707031 8.707031L15 5.414063L15 14C14.996094 14.359375 15.183594 14.695313 15.496094 14.878906C15.808594 15.058594 16.191406 15.058594 16.503906 14.878906C16.816406 14.695313 17.003906 14.359375 17 14L17 5.414063L20.292969 8.707031C20.542969 8.96875 20.917969 9.074219 21.265625 8.980469C21.617188 8.890625 21.890625 8.617188 21.980469 8.265625C22.074219 7.917969 21.96875 7.542969 21.707031 7.292969L16.792969 2.375C16.597656 2.125 16.300781 1.980469 15.984375 1.984375 Z M 33.984375 1.984375C33.433594 1.996094 32.992188 2.449219 33 3L33 11.585938L29.707031 8.292969C29.519531 8.097656 29.261719 7.992188 28.988281 7.992188C28.582031 7.992188 28.21875 8.238281 28.0625 8.613281C27.910156 8.992188 28 9.421875 28.292969 9.707031L33.203125 14.621094C33.394531 14.867188 33.6875 15.011719 34 15.011719C34.3125 15.011719 34.609375 14.867188 34.796875 14.617188L39.707031 9.707031C39.96875 9.457031 40.074219 9.082031 39.980469 8.734375C39.890625 8.382813 39.617188 8.109375 39.265625 8.019531C38.917969 7.925781 38.542969 8.03125 38.292969 8.292969L35 11.585938L35 3C35.003906 2.730469 34.898438 2.46875 34.707031 2.277344C34.515625 2.085938 34.253906 1.980469 33.984375 1.984375 Z M 6 17C5.445313 17 5 17.445313 5 18L5 21C5 21.265625 5.105469 21.519531 5.292969 21.707031L19 35L31 35L44.707031 21.707031C44.894531 21.519531 45 21.265625 45 21L45 18C45 17.445313 44.554688 17 44 17 Z M 19 37L19 41C19 41.351563 19.183594 41.675781 19.484375 41.859375L29.484375 47.859375C29.644531 47.953125 29.820313 48 30 48C30.171875 48 30.339844 47.957031 30.492188 47.871094C30.804688 47.691406 31 47.359375 31 47L31 37Z" />
</svg>