<?xml version="1.0" encoding="utf-8"?>
<svg xmlns="http://www.w3.org/2000/svg" viewBox="0 0 50 50" width="515" height="515">
  <path d="M39.53125 18C37.8125 18 37.027344 19.1875 37.027344 20.53125L37.027344 23C37.027344 23.550781 36.582031 24 36.027344 24C35.476563 24 35 23.550781 35 23L35 18.480469C35.019531 17.269531 34.273438 16 32.519531 16C30.769531 16 30.015625 17.363281 30.015625 18.507813L30.015625 22.011719C30.015625 22.566406 29.566406 23.011719 29.015625 23.011719C28.464844 23.011719 28 22.566406 28 22.015625L28 17.507813C28 16.496094 27.21875 15 25.511719 15C23.800781 15 23.003906 16.496094 23.003906 17.507813L23.003906 23C23.003906 23.550781 22.554688 24 22.003906 24C21.453125 24 21 23.550781 21 23L21 6.546875C21 4.710938 19.503906 4.042969 18.496094 4.042969C17.53125 4.042969 16 4.691406 16 6.433594L16 32.296875C15.960938 32.320313 15.914063 32.328125 15.867188 32.34375L15.863281 32.296875L10.863281 26.296875C9.5625 24.898438 7.363281 24.898438 5.964844 26.296875C4.5625 27.597656 4.5625 29.796875 5.964844 31.199219L6.074219 31.34375C6.109375 31.4375 6.144531 31.53125 6.210938 31.613281L14.730469 42.558594L17.460938 46.097656L17.457031 46.0625L17.808594 46.515625C17.8125 46.515625 17.8125 46.515625 17.816406 46.519531C19.378906 48.589844 21.746094 49.820313 24.367188 49.96875C24.492188 49.980469 24.628906 49.988281 24.769531 49.992188C24.8125 49.992188 24.855469 50 24.898438 50C24.902344 50 24.90625 49.996094 24.914063 49.996094C24.941406 49.996094 24.96875 50 25 50L33 50C37.425781 50 42 46.632813 42 41C42 41 42 20.710938 42 20.582031C42 19.207031 41.253906 18 39.53125 18Z" />
</svg>