<?xml version="1.0" encoding="utf-8"?>
<svg xmlns="http://www.w3.org/2000/svg" viewBox="0 0 50 50" width="515" height="515">
  <path d="M23.46875 2.0625C21.371094 2.121094 19.339844 2.457031 17.46875 3.09375C16.414063 3.449219 15.847656 4.585938 16.203125 5.640625C16.558594 6.695313 17.695313 7.261719 18.75 6.90625C22.554688 5.609375 28.085938 5.84375 32.28125 7.71875C33.289063 8.167969 34.472656 7.710938 34.921875 6.703125C35.371094 5.695313 34.914063 4.511719 33.90625 4.0625C31.304688 2.898438 28.433594 2.257813 25.59375 2.09375C24.882813 2.054688 24.167969 2.042969 23.46875 2.0625 Z M 12.96875 5.96875C12.894531 5.976563 12.824219 5.984375 12.75 6C12.433594 6.042969 12.136719 6.160156 11.875 6.34375C8.558594 8.554688 5.898438 11.6875 3.875 15.09375C3.457031 15.710938 3.417969 16.507813 3.769531 17.160156C4.121094 17.816406 4.808594 18.222656 5.550781 18.214844C6.296875 18.207031 6.972656 17.789063 7.3125 17.125C9.089844 14.132813 11.441406 11.445313 14.125 9.65625C14.890625 9.171875 15.234375 8.234375 14.960938 7.367188C14.691406 6.503906 13.875 5.929688 12.96875 5.96875 Z M 37.8125 6.96875C36.949219 7.023438 36.21875 7.632813 36.003906 8.472656C35.789063 9.3125 36.140625 10.195313 36.875 10.65625C40.007813 12.769531 43.355469 19.238281 44 25.21875C44.121094 26.324219 45.113281 27.121094 46.21875 27C47.324219 26.878906 48.121094 25.886719 48 24.78125C47.246094 17.761719 43.992188 10.628906 39.125 7.34375C38.796875 7.109375 38.402344 6.976563 38 6.96875C37.9375 6.964844 37.875 6.964844 37.8125 6.96875 Z M 24.71875 8C23.613281 8.042969 22.753906 8.972656 22.796875 10.078125C22.839844 11.183594 23.769531 12.042969 24.875 12C29.015625 12.25 31.800781 13.570313 33.84375 15.46875C35.886719 17.367188 37.21875 19.925781 38 22.78125C39.558594 28.492188 38.839844 35.289063 38.0625 38.53125C37.824219 39.246094 38.011719 40.035156 38.542969 40.570313C39.074219 41.105469 39.859375 41.296875 40.578125 41.0625C41.296875 40.828125 41.820313 40.214844 41.9375 39.46875C42.863281 35.609375 43.683594 28.460938 41.84375 21.71875C40.921875 18.347656 39.324219 15.066406 36.59375 12.53125C33.863281 9.996094 30.03125 8.296875 25.125 8C24.988281 7.984375 24.855469 7.984375 24.71875 8 Z M 19.96875 8.59375C19.785156 8.609375 19.609375 8.652344 19.4375 8.71875C15.121094 10.195313 11.734375 13.289063 9.34375 16.875C8.722656 17.789063 8.960938 19.035156 9.875 19.65625C10.789063 20.277344 12.035156 20.039063 12.65625 19.125C14.664063 16.113281 17.46875 13.625 20.75 12.5C21.742188 12.207031 22.34375 11.203125 22.140625 10.191406C21.9375 9.175781 20.996094 8.484375 19.96875 8.59375 Z M 24.71875 13.9375C21.511719 13.996094 19.246094 15.238281 17.75 16.4375C16.886719 17.128906 16.746094 18.386719 17.4375 19.25C18.128906 20.113281 19.386719 20.253906 20.25 19.5625C21.539063 18.53125 22.824219 17.742188 25.84375 18C26.949219 18.085938 27.914063 17.261719 28 16.15625C28.085938 15.050781 27.261719 14.085938 26.15625 14C25.660156 13.957031 25.175781 13.929688 24.71875 13.9375 Z M 30.84375 15.96875C30.027344 16.019531 29.324219 16.566406 29.070313 17.34375C28.8125 18.121094 29.058594 18.976563 29.6875 19.5C31.105469 20.738281 32.140625 23.09375 32.65625 25.8125C33.171875 28.53125 33.1875 31.546875 33 33.84375C32.914063 34.949219 33.738281 35.914063 34.84375 36C35.949219 36.085938 36.914063 35.261719 37 34.15625C37.210938 31.554688 37.171875 28.269531 36.5625 25.0625C35.953125 21.855469 34.792969 18.664063 32.3125 16.5C31.960938 16.175781 31.507813 15.988281 31.03125 15.96875C30.96875 15.964844 30.90625 15.964844 30.84375 15.96875 Z M 14.84375 19.96875C14.035156 20.03125 13.34375 20.574219 13.09375 21.34375C12.484375 23.128906 11.375 25.136719 9.84375 26.59375C8.3125 28.050781 6.457031 29 4 29C3.277344 28.988281 2.609375 29.367188 2.246094 29.992188C1.878906 30.613281 1.878906 31.386719 2.246094 32.007813C2.609375 32.632813 3.277344 33.011719 4 33C7.542969 33 10.472656 31.519531 12.59375 29.5C14.714844 27.480469 16.117188 24.972656 16.90625 22.65625C17.144531 22.011719 17.035156 21.289063 16.617188 20.742188C16.199219 20.195313 15.527344 19.90625 14.84375 19.96875 Z M 24 20C22.125 20 20.515625 20.796875 19.46875 21.84375C18.421875 22.890625 17.824219 24.070313 17.3125 25.09375C16.953125 25.734375 16.972656 26.519531 17.363281 27.140625C17.757813 27.761719 18.457031 28.117188 19.191406 28.070313C19.921875 28.019531 20.570313 27.574219 20.875 26.90625C21.363281 25.929688 21.828125 25.109375 22.28125 24.65625C22.734375 24.203125 23.078125 24 24 24C24.832031 24 25.351563 24.261719 25.875 24.75C26.398438 25.238281 26.859375 25.992188 27.125 26.75C27.292969 27.503906 27.878906 28.089844 28.628906 28.261719C29.378906 28.4375 30.164063 28.160156 30.644531 27.558594C31.121094 26.957031 31.210938 26.128906 30.875 25.4375C30.441406 24.195313 29.753906 22.902344 28.625 21.84375C27.496094 20.785156 25.867188 20 24 20 Z M 7.8125 20.96875C7.089844 21.050781 6.46875 21.515625 6.1875 22.1875C6.0625 22.472656 5.792969 22.835938 4.8125 23.03125C3.726563 23.246094 3.019531 24.304688 3.234375 25.390625C3.449219 26.476563 4.507813 27.183594 5.59375 26.96875C7.613281 26.566406 9.140625 25.328125 9.8125 23.8125C10.117188 23.164063 10.054688 22.398438 9.640625 21.808594C9.226563 21.222656 8.527344 20.898438 7.8125 20.96875 Z M 23.9375 26.96875C23.070313 27.003906 22.324219 27.597656 22.09375 28.4375C19.292969 38.058594 13.550781 40.144531 9.15625 42.1875C8.484375 42.476563 8.027344 43.105469 7.953125 43.828125C7.882813 44.554688 8.210938 45.261719 8.8125 45.675781C9.414063 46.085938 10.191406 46.140625 10.84375 45.8125C15.046875 43.855469 22.707031 40.539063 25.90625 29.5625C26.097656 28.945313 25.980469 28.273438 25.589844 27.757813C25.199219 27.242188 24.582031 26.949219 23.9375 26.96875 Z M 16.84375 28.96875C16.246094 29.027344 15.710938 29.347656 15.375 29.84375C12.699219 33.554688 7.339844 36 5 36C4.277344 35.988281 3.609375 36.367188 3.246094 36.992188C2.878906 37.613281 2.878906 38.386719 3.246094 39.007813C3.609375 39.632813 4.277344 40.011719 5 40C9.457031 40 15.101563 37.042969 18.625 32.15625C19.070313 31.550781 19.140625 30.746094 18.804688 30.074219C18.46875 29.402344 17.78125 28.976563 17.03125 28.96875C16.96875 28.964844 16.90625 28.964844 16.84375 28.96875 Z M 28.84375 29.96875C27.902344 30.050781 27.144531 30.78125 27.03125 31.71875C25.558594 42.222656 18.21875 45.15625 18.21875 45.15625C17.199219 45.585938 16.726563 46.761719 17.15625 47.78125C17.585938 48.800781 18.761719 49.273438 19.78125 48.84375C19.78125 48.84375 29.242188 44.578125 30.96875 32.28125C31.066406 31.675781 30.882813 31.0625 30.464844 30.609375C30.050781 30.160156 29.453125 29.921875 28.84375 29.96875 Z M 33.875 37.96875C33 38.027344 32.265625 38.648438 32.0625 39.5C30.960938 43.730469 28.0625 45.25 28.0625 45.25C27.339844 45.53125 26.847656 46.199219 26.789063 46.96875C26.734375 47.742188 27.128906 48.476563 27.800781 48.855469C28.472656 49.238281 29.304688 49.195313 29.9375 48.75C29.9375 48.75 34.4375 46.269531 35.9375 40.5C36.109375 39.875 35.972656 39.203125 35.5625 38.699219C35.152344 38.199219 34.523438 37.925781 33.875 37.96875Z" />
</svg>