<?xml version="1.0" encoding="utf-8"?>
<svg xmlns="http://www.w3.org/2000/svg" viewBox="0 0 50 50" width="515" height="515">
  <path d="M21.84375 0C20.847656 0.0585938 20.046875 0.847656 19.96875 1.84375C19.371094 9.222656 15.78125 13.367188 11.96875 17.75C8.15625 22.132813 4 26.847656 4 34.34375C4 39.246094 6.171875 43.210938 9.09375 45.875C12.015625 48.539063 15.640625 50 19 50C19.722656 50.011719 20.390625 49.632813 20.753906 49.007813C21.121094 48.386719 21.121094 47.613281 20.753906 46.992188C20.390625 46.367188 19.722656 45.988281 19 46C16.859375 46 13.984375 44.945313 11.78125 42.9375C9.578125 40.929688 8 38.089844 8 34.34375C8 28.289063 11.164063 24.78125 15 20.375C18.257813 16.632813 21.792969 12.160156 23.25 5.6875C36.949219 16.523438 42.179688 24.824219 42 32.21875C41.851563 38.25 38.273438 44.523438 34.25 46.15625C33.519531 46.371094 32.976563 46.984375 32.847656 47.734375C32.71875 48.488281 33.027344 49.246094 33.640625 49.691406C34.257813 50.140625 35.074219 50.199219 35.75 49.84375C42.015625 47.304688 45.820313 39.738281 46 32.3125C46.238281 22.492188 39.421875 12.644531 23.15625 0.40625C22.78125 0.121094 22.316406 -0.0234375 21.84375 0 Z M 25.5 15.40625C24.949219 15.464844 24.449219 15.753906 24.117188 16.199219C23.785156 16.640625 23.652344 17.203125 23.75 17.75C24.351563 21.210938 24.464844 24.011719 24.28125 26.0625C24.097656 28.113281 23.535156 29.378906 23.1875 29.78125C22.839844 30.183594 23.0625 30.148438 22.5 29.90625C21.9375 29.664063 20.792969 28.742188 19.625 26.9375C19.246094 26.355469 18.589844 26.011719 17.894531 26.03125C17.199219 26.050781 16.566406 26.429688 16.21875 27.03125C13.535156 31.746094 13.675781 35.566406 14.8125 38.0625C15.949219 40.558594 18.03125 41.75 18.03125 41.75C18.996094 42.285156 20.214844 41.933594 20.75 40.96875C21.285156 40.003906 20.933594 38.785156 19.96875 38.25C19.96875 38.25 19.078125 37.746094 18.46875 36.40625C18.023438 35.433594 17.722656 34.011719 18.4375 31.8125C19.210938 32.585938 20.007813 33.175781 20.90625 33.5625C22.671875 34.324219 24.964844 33.859375 26.21875 32.40625C27.472656 30.953125 28.054688 28.9375 28.28125 26.40625C28.371094 25.394531 28.355469 24.230469 28.3125 23.03125C29.730469 24.875 30.828125 26.761719 31.3125 28.65625C32.164063 31.984375 31.640625 35.34375 29.3125 38.90625C28.707031 39.839844 28.972656 41.082031 29.90625 41.6875C30.839844 42.292969 32.082031 42.027344 32.6875 41.09375C35.53125 36.742188 36.308594 32.035156 35.1875 27.65625C34.066406 23.277344 31.152344 19.300781 27 15.875C26.585938 15.519531 26.042969 15.351563 25.5 15.40625Z" />
</svg>