<?xml version="1.0" encoding="utf-8"?>
<svg xmlns="http://www.w3.org/2000/svg" viewBox="0 0 50 50" width="515" height="515">
  <path d="M14 0C11.800781 0 10 1.800781 10 4C10 5.214844 10.570313 6.296875 11.4375 7.03125C10.621094 7.375 9.886719 7.785156 9.25 8.28125C7.421875 9.714844 6.410156 11.695313 6.03125 13.8125C5.894531 14.183594 5.988281 14.601563 6.273438 14.878906C6.558594 15.15625 6.980469 15.234375 7.347656 15.085938C7.714844 14.9375 7.957031 14.582031 7.96875 14.1875C8.277344 12.46875 9.085938 10.953125 10.5 9.84375C11.757813 8.859375 13.539063 8.171875 16.03125 8.03125L16.03125 11.15625C16.460938 11.0625 16.898438 11 17.34375 11L24.65625 11C25.121094 11 25.585938 11.085938 26.03125 11.1875L26.03125 3.875C26.03125 2.3125 24.6875 1.03125 23.03125 1.03125L19.03125 1.03125C18.335938 1.03125 17.695313 1.25 17.1875 1.625C16.457031 0.652344 15.300781 0 14 0 Z M 42.78125 1.03125L30.53125 3.71875C29.960938 3.890625 29.511719 4.367188 29.25 5L28.03125 5L28.03125 10L29.25 10C29.515625 10.632813 29.976563 11.128906 30.59375 11.3125L42.78125 13.96875C42.851563 13.984375 42.929688 14 43 14C43.226563 14 43.445313 13.925781 43.625 13.78125C43.859375 13.589844 44 13.304688 44 13L44 2C44 1.695313 43.859375 1.410156 43.625 1.21875C43.386719 1.027344 43.078125 0.96875 42.78125 1.03125 Z M 14 2C15.117188 2 16 2.882813 16 4C16 5.117188 15.117188 6 14 6C12.882813 6 12 5.117188 12 4C12 2.882813 12.882813 2 14 2 Z M 17.34375 13C12.824219 13 9 19.28125 9 23.21875L9 45.3125C9 47.894531 11.082031 50 13.65625 50L28.34375 50C30.917969 50 33 47.894531 33 45.3125L33 23.21875C33 19.28125 29.175781 13 24.65625 13Z" />
</svg>