<?xml version="1.0" encoding="utf-8"?>
<svg xmlns="http://www.w3.org/2000/svg" viewBox="0 0 50 50" width="515" height="515">
  <path d="M20 0C19.644531 0 19.304688 0.195313 19.125 0.5C18.945313 0.804688 18.953125 1.160156 19.125 1.46875C22.128906 6.894531 20.871094 10.710938 19.84375 11.375C19.445313 11.632813 19.015625 11.429688 18.375 11.1875C17.746094 10.949219 16.972656 10.65625 16.03125 10.65625C15.285156 10.65625 14.558594 10.847656 13.8125 11.21875C13.539063 11.355469 13.34375 11.605469 13.28125 11.90625C13.21875 12.207031 13.300781 12.515625 13.5 12.75C14.257813 13.640625 14.808594 15.695313 14.34375 16.71875C14.21875 16.996094 13.941406 17.296875 13.625 17.65625C12.691406 18.714844 11.40625 20.144531 11.40625 23.28125C11.40625 24.21875 11.507813 25.109375 11.75 26L14.0625 26C15.246094 26 16.296875 26.523438 17.03125 27.34375C17.632813 26.675781 18.449219 26.210938 19.375 26.0625C19.371094 25.980469 19.375 25.925781 19.375 25.875C19.375 20.46875 25.238281 19.933594 24.15625 14.6875C25.636719 15.855469 27.410156 17.511719 25 22.25C24.457031 23.324219 25.101563 25.5 26.5 25.5C28.1875 25.5 29.042969 23.535156 28.40625 21.5625C30.257813 22.710938 31.117188 24.25 31.15625 26L39 26C38.972656 23.230469 37.433594 21.429688 36.3125 20.125C35.609375 19.308594 34.984375 18.609375 35 18.03125C35.015625 17.359375 35.234375 16.5625 35.46875 15.71875C36.191406 13.121094 37.292969 9.191406 31.34375 7.0625C31.015625 6.941406 30.648438 6.996094 30.375 7.21875C30.105469 7.441406 29.949219 7.808594 30 8.15625C30.296875 10.152344 30.023438 11.296875 29.6875 11.6875C29.554688 11.839844 29.386719 11.875 29.15625 11.84375C28.804688 11.792969 28.675781 11.714844 28.65625 11.6875C28.535156 11.519531 28.664063 10.664063 28.75 10.15625C28.980469 8.761719 29.3125 6.859375 28.3125 4.84375C26.652344 1.496094 22.941406 0 20 0 Z M 2.0625 28C0.957031 28 0.0625 28.894531 0.0625 30L0.0625 36C0.0625 37.105469 0.957031 38 2.0625 38L14.0625 38C15.167969 38 16.0625 37.105469 16.0625 36L16.0625 30C16.0625 28.894531 15.167969 28 14.0625 28 Z M 20 28C18.894531 28 18 28.894531 18 30L18 36C18 37.105469 18.894531 38 20 38L48 38C49.105469 38 50 37.105469 50 36L50 30C50 28.894531 49.105469 28 48 28 Z M 2 40C0.894531 40 0 40.894531 0 42L0 48C0 49.105469 0.894531 50 2 50L30 50C31.105469 50 32 49.105469 32 48L32 42C32 40.894531 31.105469 40 30 40 Z M 35.9375 40C34.832031 40 33.9375 40.894531 33.9375 42L33.9375 48C33.9375 49.105469 34.832031 50 35.9375 50L47.9375 50C49.042969 50 49.9375 49.105469 49.9375 48L49.9375 42C49.9375 40.894531 49.042969 40 47.9375 40Z" />
</svg>