<?xml version="1.0" encoding="utf-8"?>
<svg xmlns="http://www.w3.org/2000/svg" viewBox="0 0 50 50" width="515" height="515">
  <path d="M15.75 3.0625C15.707031 3.070313 15.664063 3.082031 15.625 3.09375C15.625 3.09375 12.382813 3.652344 9.34375 6.6875C6.296875 9.734375 5.71875 13.125 5.71875 13.125C5.640625 13.484375 5.765625 13.855469 6.042969 14.09375C6.324219 14.335938 6.710938 14.402344 7.050781 14.273438C7.394531 14.140625 7.640625 13.832031 7.6875 13.46875C7.6875 13.46875 8.125 10.75 10.75 8.125C13.382813 5.492188 15.96875 5.0625 15.96875 5.0625C16.519531 5.003906 16.917969 4.503906 16.859375 3.953125C16.800781 3.402344 16.300781 3.003906 15.75 3.0625 Z M 28.84375 4C28.15625 4 27.460938 4.257813 26.9375 4.78125L25.875 5.84375C26.871094 6.328125 27.6875 6.96875 28.15625 7.625L29.5 9.8125L30.75 8.59375C31.800781 7.542969 31.800781 5.832031 30.75 4.78125C30.226563 4.257813 29.53125 4 28.84375 4 Z M 22.75 7.0625C22.238281 7.054688 21.730469 7.097656 21.21875 7.25L14.96875 9.125C12.613281 9.832031 10.984375 11.984375 10.875 14.4375L10.375 25.4375L3.28125 32.53125C3.113281 32.699219 3.019531 32.921875 3 33.15625L2.96875 33.40625C2.964844 33.457031 2.964844 33.515625 2.96875 33.5625C2.976563 33.691406 3.964844 46.425781 18.34375 46.71875L18.375 46.71875C18.640625 46.71875 18.90625 46.625 19.09375 46.4375L25.125 40.40625L20.34375 37.625C19.867188 37.347656 19.691406 36.726563 19.96875 36.25C20.246094 35.769531 20.867188 35.597656 21.34375 35.875L26.4375 38.84375C28.21875 39.492188 30.019531 39.476563 31.625 38.84375C32.503906 38.414063 33.316406 37.839844 34.03125 37.125L39.78125 31.40625C39.429688 31.488281 39.058594 31.53125 38.6875 31.53125C37.4375 31.53125 36.261719 31.039063 35.375 30.15625C34.488281 29.269531 34 28.097656 34 26.84375C34 26.554688 34.042969 26.28125 34.09375 26C32.851563 25.996094 31.664063 25.503906 30.78125 24.625C29.894531 23.738281 29.40625 22.566406 29.40625 21.3125C29.40625 21.269531 29.433594 21.230469 29.4375 21.1875C27.953125 21.535156 26.605469 20.949219 25.9375 20.40625C25.890625 20.367188 25.851563 20.328125 25.8125 20.28125L22.9375 16.9375L22.34375 17.03125C23.941406 19.480469 26.980469 24.867188 25.90625 28.75C25.785156 29.191406 25.40625 29.46875 24.96875 29.46875C24.878906 29.46875 24.777344 29.460938 24.6875 29.4375C24.15625 29.289063 23.851563 28.75 24 28.21875C24.949219 24.792969 21.320313 18.914063 19.84375 16.9375C19.636719 16.660156 19.59375 16.289063 19.71875 15.96875C19.84375 15.648438 20.128906 15.40625 20.46875 15.34375L23.125 14.84375C23.472656 14.777344 23.859375 14.917969 24.09375 15.1875L27.25 18.90625C27.601563 19.15625 28.851563 19.835938 30.25 18.4375C30.535156 18.171875 31.742188 16.957031 30.46875 15.15625L26.5625 8.875C26.328125 8.59375 26.09375 8.34375 25.8125 8.125C25.796875 8.113281 25.765625 8.105469 25.75 8.09375C25.675781 8.039063 25.605469 7.988281 25.53125 7.9375C24.804688 7.488281 23.789063 7.121094 22.75 7.0625 Z M 34.84375 8C34.15625 8 33.460938 8.257813 32.9375 8.78125L30.4375 11.3125L32.125 14.03125C32.6875 14.824219 32.960938 15.601563 33.03125 16.3125L36.75 12.59375C37.800781 11.546875 37.800781 9.832031 36.75 8.78125C36.226563 8.257813 35.53125 8 34.84375 8 Z M 38.84375 14C38.15625 14 37.460938 14.257813 36.9375 14.78125L32.1875 19.40625C31.136719 20.457031 31.136719 22.167969 32.1875 23.21875C33.238281 24.265625 34.949219 24.265625 36 23.21875L40.75 18.59375C41.800781 17.542969 41.800781 15.832031 40.75 14.78125C40.226563 14.257813 39.53125 14 38.84375 14 Z M 41.84375 21C41.15625 21 40.460938 21.257813 39.9375 21.78125L36.78125 24.9375C35.730469 25.988281 35.730469 27.699219 36.78125 28.75C37.832031 29.796875 39.542969 29.796875 40.59375 28.75L43.75 25.59375C44.800781 24.542969 44.800781 22.832031 43.75 21.78125C43.226563 21.257813 42.53125 21 41.84375 21 Z M 45.125 30.8125C44.828125 30.875 44.574219 31.070313 44.4375 31.34375C44.4375 31.34375 42.664063 34.742188 39.875 37.53125C37.09375 40.3125 33.65625 42.03125 33.65625 42.03125C33.15625 42.28125 32.953125 42.890625 33.203125 43.390625C33.453125 43.890625 34.0625 44.09375 34.5625 43.84375C34.5625 43.84375 38.246094 42.003906 41.3125 38.9375C44.375 35.878906 46.21875 32.28125 46.21875 32.28125C46.398438 31.953125 46.375 31.550781 46.164063 31.242188C45.957031 30.933594 45.589844 30.765625 45.21875 30.8125C45.1875 30.8125 45.15625 30.8125 45.125 30.8125 Z M 46.0625 37.125C45.777344 37.175781 45.523438 37.34375 45.375 37.59375C45.375 37.59375 44.371094 39.21875 42.96875 40.625C41.570313 42.023438 39.9375 43 39.9375 43C39.460938 43.285156 39.308594 43.902344 39.59375 44.375C39.878906 44.851563 40.492188 45.003906 40.96875 44.71875C40.96875 44.71875 42.765625 43.636719 44.375 42.03125C45.976563 40.429688 47.0625 38.65625 47.0625 38.65625C47.277344 38.324219 47.277344 37.898438 47.0625 37.566406C46.84375 37.234375 46.453125 37.0625 46.0625 37.125Z" />
</svg>