<?xml version="1.0" encoding="utf-8"?>
<svg xmlns="http://www.w3.org/2000/svg" viewBox="0 0 50 50" width="515" height="515">
  <path d="M5 6L5 17C4.988281 17.722656 5.367188 18.390625 5.992188 18.753906C6.613281 19.121094 7.386719 19.121094 8.007813 18.753906C8.632813 18.390625 9.011719 17.722656 9 17L9 12.828125L15.585938 19.414063C16.085938 19.9375 16.832031 20.148438 17.535156 19.964844C18.234375 19.78125 18.78125 19.234375 18.964844 18.535156C19.148438 17.832031 18.9375 17.085938 18.414063 16.585938L11.828125 10L16 10C16.722656 10.011719 17.390625 9.632813 17.753906 9.007813C18.121094 8.386719 18.121094 7.613281 17.753906 6.992188C17.390625 6.367188 16.722656 5.988281 16 6 Z M 32 6C31.277344 5.988281 30.609375 6.367188 30.246094 6.992188C29.878906 7.613281 29.878906 8.386719 30.246094 9.007813C30.609375 9.632813 31.277344 10.011719 32 10L36.171875 10L29.585938 16.585938C29.0625 17.085938 28.851563 17.832031 29.035156 18.535156C29.21875 19.234375 29.765625 19.78125 30.464844 19.964844C31.167969 20.148438 31.914063 19.9375 32.414063 19.414063L39 12.828125L39 17C38.988281 17.722656 39.367188 18.390625 39.992188 18.753906C40.613281 19.121094 41.386719 19.121094 42.007813 18.753906C42.632813 18.390625 43.011719 17.722656 43 17L43 6 Z M 16.960938 29.980469C16.441406 29.996094 15.949219 30.214844 15.585938 30.585938L9 37.171875L9 33C9.007813 32.460938 8.796875 31.941406 8.414063 31.558594C8.03125 31.175781 7.511719 30.964844 6.96875 30.972656C5.867188 30.988281 4.984375 31.894531 5 33L5 44L16 44C16.722656 44.011719 17.390625 43.632813 17.753906 43.007813C18.121094 42.386719 18.121094 41.613281 17.753906 40.992188C17.390625 40.367188 16.722656 39.988281 16 40L11.828125 40L18.414063 33.414063C19.003906 32.839844 19.183594 31.960938 18.863281 31.199219C18.539063 30.441406 17.785156 29.957031 16.960938 29.980469 Z M 30.980469 29.980469C30.164063 29.980469 29.433594 30.476563 29.128906 31.230469C28.820313 31.984375 29.003906 32.847656 29.585938 33.414063L36.171875 40L32 40C31.277344 39.988281 30.609375 40.367188 30.246094 40.992188C29.878906 41.613281 29.878906 42.386719 30.246094 43.007813C30.609375 43.632813 31.277344 44.011719 32 44L43 44L43 33C43.007813 32.460938 42.796875 31.941406 42.414063 31.558594C42.03125 31.175781 41.511719 30.964844 40.96875 30.972656C39.867188 30.988281 38.984375 31.894531 39 33L39 37.171875L32.414063 30.585938C32.035156 30.199219 31.519531 29.980469 30.980469 29.980469Z" />
</svg>