<?xml version="1.0" encoding="utf-8"?>
<svg xmlns="http://www.w3.org/2000/svg" viewBox="0 0 50 50" width="515" height="515">
  <path d="M26.09375 4.59375C23.496094 4.59375 21.40625 6.714844 21.40625 9.3125C21.40625 11.910156 23.496094 14 26.09375 14C28.691406 14 30.8125 11.910156 30.8125 9.3125C30.8125 6.714844 28.691406 4.59375 26.09375 4.59375 Z M 37.5625 10.28125C37.304688 10.28125 37.03125 10.375 36.84375 10.5625L34.8125 12.5625L33.8125 11.5L32.375 12.875L33.40625 13.96875L31.53125 15.84375C31.140625 16.234375 31.140625 16.890625 31.53125 17.28125L34 19.71875C34.1875 19.90625 34.453125 20.03125 34.71875 20.03125C34.984375 20.03125 35.21875 19.90625 35.40625 19.71875L40.71875 14.4375C41.109375 14.046875 41.109375 13.421875 40.71875 13.03125L38.25 10.5625C38.0625 10.375 37.820313 10.28125 37.5625 10.28125 Z M 25.375 15.71875C24.289063 15.71875 23.207031 16.148438 22.40625 17L12.40625 27L3.96875 27C1.46875 27 -0.40625 29.3125 0.09375 31.8125L2.84375 45C3.042969 46.199219 4.050781 47 5.25 47C6.851563 47 7.957031 45.601563 7.65625 44L5.09375 32L9.78125 32C9.300781 32.53125 9 33.234375 9 34C9 35.644531 10.355469 37 12 37L21 37C21.265625 37.007813 21.527344 36.90625 21.71875 36.71875L31.9375 26.46875L33.59375 27.3125C33.894531 27.511719 34.285156 27.59375 34.6875 27.59375C35.1875 27.59375 35.699219 27.394531 36 27.09375L42 21C42.699219 20.199219 42.699219 19.011719 42 18.3125C41.300781 17.613281 40.105469 17.613281 39.40625 18.3125L34.59375 23.09375L28.40625 17C27.554688 16.148438 26.460938 15.71875 25.375 15.71875 Z M 46.59375 19.21875C46.339844 19.21875 46.070313 19.304688 45.875 19.5L40.5625 24.8125C40.375 25 40.28125 25.234375 40.28125 25.5C40.28125 25.765625 40.375 26.03125 40.5625 26.21875L43.03125 28.6875C43.226563 28.882813 43.492188 28.96875 43.75 28.96875C44.007813 28.96875 44.242188 28.882813 44.4375 28.6875L46.28125 26.84375L47.1875 27.78125L48.625 26.40625L47.6875 25.4375L49.75 23.375C49.9375 23.1875 50.0625 22.921875 50.0625 22.65625C50.0625 22.390625 49.9375 22.15625 49.75 21.96875L47.28125 19.5C47.085938 19.304688 46.847656 19.21875 46.59375 19.21875 Z M 27.96875 24.46875L30.0625 25.5L30.0625 25.53125L20.5625 35L12 35C11.445313 35 11 34.554688 11 34C11 33.445313 11.445313 33 12 33L19 33C19.265625 33.007813 19.527344 32.90625 19.71875 32.71875Z" />
</svg>