<?xml version="1.0" encoding="utf-8"?>
<svg xmlns="http://www.w3.org/2000/svg" viewBox="0 0 50 50" width="515" height="515">
  <path d="M49 7L1 7C0.398438 7 0 7.398438 0 8L0 42C0 42.601563 0.398438 43 1 43L49 43C49.601563 43 50 42.601563 50 42L50 8C50 7.398438 49.601563 7 49 7 Z M 34.5 18.5L35.101563 17.300781L35.699219 18.5L37.101563 18.699219L36.101563 19.699219L36.300781 21.101563L35.101563 20.5L33.898438 21L34.101563 19.601563L33.101563 18.601563 Z M 11.5 24.601563L12.898438 24.398438L13.5 23.199219L14.101563 24.398438L15.5 24.601563L14.5 25.601563L14.699219 27L13.5 26.398438L12.300781 27L12.5 25.601563 Z M 16.101563 32.101563L14.898438 31.5L13.699219 32.101563L13.898438 30.699219L12.898438 29.699219L14.300781 29.5L14.898438 28.300781L15.5 29.5L16.898438 29.699219L15.898438 30.699219 Z M 15.898438 19.699219L16.101563 21.101563L14.898438 20.5L13.699219 21L13.898438 19.601563L12.898438 18.601563L14.300781 18.398438L14.898438 17.199219L15.5 18.398438L16.898438 18.601563 Z M 20.300781 36L19.101563 35.398438L17.898438 36L18.101563 34.601563L17.101563 33.601563L18.5 33.398438L19.101563 32.199219L19.699219 33.398438L21.101563 33.601563L20.101563 34.601563 Z M 20.101563 15.800781L20.300781 17.199219L19.101563 16.601563L17.898438 17.199219L18.101563 15.800781L17.101563 14.800781L18.5 14.601563L19.101563 13.398438L19.699219 14.601563L21.101563 14.800781 Z M 26.199219 38.398438L25 37.800781L23.800781 38.398438L24 37L23 36L24.398438 35.800781L25 34.601563L25.601563 35.800781L27 36L26 37 Z M 26 14L26.199219 15.398438L25 14.699219L23.800781 15.300781L24 14L23 13L24.398438 12.800781L25 11.601563L25.601563 12.800781L27 13 Z M 32.101563 36L30.898438 35.398438L29.699219 36L29.898438 34.601563L28.898438 33.601563L30.300781 33.398438L30.898438 32.199219L31.5 33.398438L32.898438 33.601563L31.898438 34.601563 Z M 31.898438 15.800781L32.101563 17.199219L30.898438 16.601563L29.699219 17.199219L29.898438 15.800781L28.898438 14.800781L30.300781 14.601563L30.898438 13.398438L31.5 14.601563L32.898438 14.800781 Z M 36.300781 32.101563L35.101563 31.5L33.898438 32.101563L34.101563 30.699219L33.101563 29.699219L34.5 29.5L35.101563 28.300781L35.699219 29.5L37.101563 29.699219L36.101563 30.699219 Z M 37.699219 26.898438L36.5 26.300781L35.300781 26.898438L35.5 25.5L34.5 24.5L35.898438 24.300781L36.5 23.101563L37.101563 24.300781L38.5 24.5L37.5 25.5Z" />
</svg>