<?xml version="1.0" encoding="utf-8"?>
<svg xmlns="http://www.w3.org/2000/svg" viewBox="0 0 50 50" width="515" height="515">
  <path d="M26.46875 3.25C26.128906 3.207031 25.785156 3.347656 25.5625 3.625L6.5 27.375C6.257813 27.675781 6.210938 28.089844 6.375 28.4375C6.542969 28.785156 6.894531 29 7.28125 29L17.78125 29L12.75 45.4375C12.609375 45.898438 12.824219 46.398438 13.25 46.625C13.398438 46.703125 13.5625 46.75 13.71875 46.75C14.015625 46.75 14.304688 46.617188 14.5 46.375L33.5 22.625C33.738281 22.324219 33.789063 21.910156 33.625 21.5625C33.457031 21.214844 33.105469 21 32.71875 21L22.59375 21L27.28125 4.53125C27.410156 4.074219 27.203125 3.59375 26.78125 3.375C26.675781 3.320313 26.582031 3.265625 26.46875 3.25 Z M 40.3125 4C39.9375 4.070313 39.632813 4.347656 39.53125 4.71875L36.03125 16.71875C35.875 17.253906 36.183594 17.8125 36.71875 17.96875C37.253906 18.125 37.8125 17.816406 37.96875 17.28125L38.625 15L43.375 15L44.03125 17.28125C44.1875 17.816406 44.746094 18.125 45.28125 17.96875C45.816406 17.8125 46.125 17.253906 45.96875 16.71875L42.46875 4.71875C42.34375 4.289063 41.949219 3.996094 41.5 4L40.5 4C40.46875 4 40.4375 4 40.40625 4C40.375 4 40.34375 4 40.3125 4 Z M 41 6.875L42.78125 13L39.21875 13Z" />
</svg>