<?xml version="1.0" encoding="utf-8"?>
<svg xmlns="http://www.w3.org/2000/svg" viewBox="0 0 50 50" width="515" height="515">
  <path d="M31.46875 3.25C31.132813 3.207031 30.785156 3.347656 30.5625 3.625L19.1875 17.78125L8.53125 7.125C8.296875 6.863281 7.941406 6.746094 7.59375 6.8125C7.226563 6.890625 6.933594 7.164063 6.832031 7.527344C6.734375 7.890625 6.847656 8.277344 7.125 8.53125L41.46875 42.875C41.710938 43.171875 42.097656 43.308594 42.472656 43.222656C42.84375 43.136719 43.136719 42.84375 43.222656 42.472656C43.308594 42.097656 43.171875 41.710938 42.875 41.46875L32.0625 30.65625L38.5 22.625C38.738281 22.324219 38.789063 21.910156 38.625 21.5625C38.460938 21.214844 38.105469 21 37.71875 21L27.59375 21L32.28125 4.53125C32.410156 4.074219 32.203125 3.59375 31.78125 3.375C31.675781 3.320313 31.582031 3.265625 31.46875 3.25 Z M 16.71875 20.875L11.5 27.375C11.257813 27.675781 11.210938 28.089844 11.375 28.4375C11.542969 28.78125 11.898438 29 12.28125 29L22.78125 29L17.75 45.4375C17.609375 45.898438 17.824219 46.398438 18.25 46.625C18.398438 46.703125 18.5625 46.75 18.71875 46.75C19.015625 46.75 19.304688 46.617188 19.5 46.375L29.59375 33.75Z" />
</svg>