<?xml version="1.0" encoding="utf-8"?>
<svg xmlns="http://www.w3.org/2000/svg" viewBox="0 0 50 50" width="515" height="515">
  <path d="M31 1C30.398438 1 29.894531 1.1875 29.59375 1.6875C29.59375 1.6875 29.601563 1.8125 29.5 1.8125L22.6875 13.90625L22.40625 14.5C22.304688 14.699219 22.289063 14.898438 22.1875 15L22.1875 15.09375C22.085938 15.492188 22.085938 16 22.1875 16.5C22.289063 17.5 22.789063 18.601563 23.6875 19.5L30.59375 26.40625C31.59375 27.40625 32.894531 27.90625 34.09375 27.90625C34.894531 27.90625 35.585938 27.710938 36.1875 27.3125L48.3125 20.5C48.3125 20.5 48.40625 20.507813 48.40625 20.40625C48.804688 20.105469 49.304688 19.398438 48.90625 18C47.304688 13.5 34.898438 1 31 1 Z M 20.59375 18.3125L1.59375 39.1875C0.59375 40.289063 0.792969 42.105469 2.09375 43.40625L6.6875 48C7.386719 48.601563 8.289063 49 9.1875 49C9.789063 49 10.40625 48.804688 10.90625 48.40625L31.6875 29.5C30.6875 29.101563 29.894531 28.511719 29.09375 27.8125L22.1875 20.90625C21.386719 20.105469 20.894531 19.210938 20.59375 18.3125 Z M 20.09375 28C20.59375 28 21.101563 28.195313 21.5 28.59375C22.300781 29.292969 22.300781 30.605469 21.5 31.40625L19.40625 33.5C18.605469 34.300781 17.394531 34.300781 16.59375 33.5C15.792969 32.699219 15.792969 31.488281 16.59375 30.6875L18.6875 28.59375C19.085938 28.195313 19.59375 28 20.09375 28Z" />
</svg>