<?xml version="1.0" encoding="utf-8"?>
<svg xmlns="http://www.w3.org/2000/svg" viewBox="0 0 50 50" width="515" height="515">
  <path d="M38 2C34.269531 2 31.195313 4.941406 31 8.625C30.925781 8.835938 30.925781 9.070313 31 9.28125L31 14C31 17.855469 34.144531 21 38 21C41.855469 21 45 17.855469 45 14L45 9.1875C45.007813 9.125 45.007813 9.0625 45 9C45 8.957031 45 8.917969 45 8.875C45.003906 8.832031 45.003906 8.792969 45 8.75C44.867188 5.011719 41.769531 2 38 2 Z M 8.90625 3.03125C8.425781 2.992188 7.953125 3.050781 7.46875 3.21875C5.617188 3.855469 4.578125 5.882813 5.15625 7.75L13 33.0625C13.90625 35.992188 16.621094 38 19.6875 38L34.5 38C36.421875 38 38 36.421875 38 34.5C38 32.578125 36.421875 31 34.5 31L20.75 31C20.308594 31 19.910156 30.703125 19.78125 30.28125L12.125 5.59375C11.671875 4.132813 10.347656 3.144531 8.90625 3.03125 Z M 38 4C40.425781 4 42.441406 5.714844 42.90625 8L33.09375 8C33.558594 5.714844 35.574219 4 38 4 Z M 18.25 22L19.8125 27L30 27C30.550781 27 31 26.554688 31 26L31 25.21875C31 23.4375 29.5625 22 27.78125 22 Z M 17.25 39L15.125 45C14.882813 45.6875 15.015625 46.46875 15.4375 47.0625C15.859375 47.65625 16.550781 48 17.28125 48L34.75 48C35.480469 48 36.140625 47.65625 36.5625 47.0625C36.984375 46.46875 37.113281 45.6875 36.875 45L34.75 39L32.625 39L34.96875 45.65625C35.003906 45.757813 34.972656 45.859375 34.9375 45.90625C34.902344 45.953125 34.828125 46 34.71875 46L17.28125 46C17.171875 46 17.097656 45.953125 17.0625 45.90625C17.027344 45.859375 16.996094 45.757813 17.03125 45.65625L19.34375 39Z" />
</svg>