<?xml version="1.0" encoding="utf-8"?>
<svg xmlns="http://www.w3.org/2000/svg" viewBox="0 0 50 50" width="515" height="515">
  <path d="M25 0C22 0 19.5 2.5 19.5 5.5C19.5 8.5 22 11 25 11C28 11 30.5 8.5 30.5 5.5C30.5 2.5 28 0 25 0 Z M 25 12.09375C21.898438 12.09375 16.914063 13.988281 16.3125 14.1875C15.3125 14.585938 14.394531 15.492188 14.09375 16.59375L11.6875 23.40625C11.6875 23.40625 7.898438 25.792969 6.5 26.59375C5 27.492188 4.5 28.6875 5 29.6875C5.101563 29.988281 5.394531 30.210938 5.59375 30.3125C6.492188 28.613281 8.085938 27.59375 10.1875 27.59375C10.988281 27.59375 11.804688 27.800781 12.40625 28C13.304688 27.5 14.101563 27.105469 14.5 26.90625C15.101563 26.507813 15.289063 26.386719 15.6875 25.6875C15.886719 25.289063 16.894531 23.210938 17.59375 21.8125L17.59375 28.8125L14.90625 29.5L25 34.5L35.09375 29.40625L32.40625 28.8125L32.40625 21.8125C33.105469 23.210938 34.113281 25.289063 34.3125 25.6875C34.710938 26.386719 34.894531 26.5 35.59375 27C35.894531 27.199219 36.6875 27.59375 37.6875 28.09375C38.386719 27.792969 39.207031 27.6875 39.90625 27.6875C41.90625 27.6875 43.601563 28.707031 44.5 30.40625C44.800781 30.304688 44.992188 30.113281 45.09375 29.8125C45.59375 28.914063 45.09375 27.585938 43.59375 26.6875C42.09375 25.886719 38.40625 23.5 38.40625 23.5L36 16.6875C35.699219 15.585938 34.8125 14.710938 33.8125 14.3125C33.210938 14.011719 28.101563 12.09375 25 12.09375 Z M 39.96875 29.625C39.292969 29.621094 38.617188 29.792969 38.09375 30.09375L17.90625 40.3125C16.605469 40.914063 15.992188 42.511719 16.59375 43.8125C17.492188 45.710938 19.695313 45.292969 20.09375 45.09375L41.5 35.8125C42.898438 35.210938 43.710938 33.304688 42.8125 31.40625C42.25 30.15625 41.09375 29.636719 39.96875 29.625 Z M 10.03125 29.6875C8.90625 29.714844 7.75 30.21875 7.1875 31.40625C6.289063 33.40625 7.101563 35.3125 8.5 35.8125L16.09375 39.09375C16.394531 38.894531 16.695313 38.699219 17.09375 38.5L22.8125 35.59375L11.90625 30.09375C11.382813 29.832031 10.707031 29.671875 10.03125 29.6875 Z M 33.40625 41.5L27.5 44L29.90625 45C30.304688 45.199219 32.507813 45.585938 33.40625 43.6875C33.707031 42.988281 33.707031 42.101563 33.40625 41.5 Z M 11.90625 48C11.355469 48.050781 10.949219 48.542969 11 49.09375C11.050781 49.644531 11.542969 50.050781 12.09375 50L37.90625 50C38.265625 50.003906 38.601563 49.816406 38.785156 49.503906C38.964844 49.191406 38.964844 48.808594 38.785156 48.496094C38.601563 48.183594 38.265625 47.996094 37.90625 48L12.09375 48C12.0625 48 12.03125 48 12 48C11.96875 48 11.9375 48 11.90625 48Z" />
</svg>