<?xml version="1.0" encoding="utf-8"?>
<svg xmlns="http://www.w3.org/2000/svg" viewBox="0 0 50 50" width="515" height="515">
  <path d="M17.1875 0C15.792969 0 14.5 0.460938 13.40625 1.3125C11.242188 2.957031 10.742188 5.324219 10.75 7.15625C11.777344 7.332031 12.722656 7.648438 13.5 8C14.929688 7.339844 16.378906 7 17.8125 7C17.828125 7 17.828125 7 17.84375 7C18.238281 6.535156 18.660156 6.097656 19.15625 5.71875C20.605469 4.589844 22.34375 4 24.1875 4C25.820313 4 27.339844 4.476563 28.5 5C29.632813 4.484375 30.796875 4.171875 31.9375 4.0625C31.457031 2.902344 30.65625 1.933594 29.5625 1.1875C27.359375 -0.355469 24.332031 -0.433594 21.40625 1.21875C20.550781 0.71875 18.996094 0 17.1875 0 Z M 2 1C1.601563 1 1.253906 1.230469 1.09375 1.59375C0.933594 1.957031 0.980469 2.394531 1.25 2.6875C2.933594 4.523438 4.136719 6.660156 4.875 8.28125C6.050781 7.539063 7.351563 7.105469 8.75 7.03125C8.761719 5.433594 9.105469 3.941406 9.75 2.65625C7.613281 1.648438 4.75 1 2 1 Z M 24.1875 6C22.792969 6 21.5 6.460938 20.40625 7.3125C17.433594 9.570313 17.609375 13.175781 17.90625 14.90625C15.417969 17.09375 14.480469 20.15625 15.4375 23.21875C16.398438 26.101563 18.742188 27.945313 21.90625 28.34375C23.285156 31.378906 25.695313 33.09375 28.59375 33.09375C31.488281 33.09375 33.902344 31.367188 35.28125 28.34375C38.597656 28.023438 41.097656 26.035156 41.875 23.03125C42.585938 20.191406 41.714844 17.527344 39.375 15.25C40.070313 10.730469 38.25 8.375 36.5625 7.1875C34.300781 5.605469 31.359375 5.625 28.5 7.25C27.5625 6.730469 25.9375 6 24.1875 6 Z M 9.1875 9C7.792969 9 6.5 9.460938 5.40625 10.3125C2.433594 12.570313 2.609375 16.175781 2.90625 17.90625C0.417969 20.09375 -0.519531 23.15625 0.4375 26.21875C1.398438 29.101563 3.742188 30.945313 6.90625 31.34375C8.285156 34.378906 10.695313 36.09375 13.59375 36.09375C16.492188 36.09375 18.902344 34.375 20.28125 31.34375C20.613281 31.304688 20.9375 31.25 21.25 31.1875C21.011719 30.855469 20.800781 30.496094 20.59375 30.125C17.980469 29.539063 15.863281 28.082031 14.53125 25.9375C14.320313 25.976563 14.128906 26 13.90625 26C11.804688 26 10.09375 24.199219 10.09375 22C10.09375 19.933594 11.609375 18.230469 13.53125 18.03125C13.96875 16.632813 14.707031 15.335938 15.78125 14.1875C15.617188 12.335938 15.890625 10.613281 16.53125 9.125C15.527344 9.296875 14.515625 9.671875 13.5 10.25C12.496094 9.6875 10.917969 9 9.1875 9 Z M 47.15625 12.84375C44.761719 12.84375 43.074219 13.6875 41.59375 14.71875C43.792969 17.3125 44.601563 20.378906 43.8125 23.53125C42.917969 26.976563 40.199219 29.460938 36.59375 30.1875C35.613281 31.917969 34.289063 33.199219 32.75 34.03125C31.671875 42.175781 27.292969 46.828125 25.84375 48.15625C25.726563 48.261719 25.617188 48.367188 25.5 48.46875C24.796875 49.070313 24.121094 49.539063 23.46875 49.875C23.394531 49.914063 23.296875 49.949219 23.21875 49.96875C24.160156 49.886719 39.742188 48.277344 43.28125 33.21875L43.96875 30.0625C46.035156 20.773438 46.910156 16.917969 49.625 14.78125C49.9375 14.535156 50.066406 14.132813 49.96875 13.75C49.871094 13.367188 49.546875 13.066406 49.15625 13C48.460938 12.882813 47.785156 12.84375 47.15625 12.84375 Z M 28.8125 15C30.910156 15 32.59375 16.789063 32.59375 19C32.59375 21.210938 30.910156 23 28.8125 23C26.714844 23 25 21.210938 25 19C25 16.789063 26.714844 15 28.8125 15 Z M 22.5 32.9375C22.203125 33.023438 21.90625 33.09375 21.59375 33.15625C20.445313 35.191406 18.863281 36.652344 16.96875 37.4375C19.46875 39.441406 21.601563 43.269531 21.96875 48.5C22.136719 48.378906 22.308594 48.265625 22.53125 48.125C24.679688 46.441406 24.878906 38.203125 22.5 32.9375 Z M 25.1875 34.40625C26.253906 37.945313 26.507813 42.074219 25.9375 45.15625C27.925781 42.765625 29.796875 39.238281 30.59375 34.875C29.953125 35.019531 29.28125 35.09375 28.59375 35.09375C27.378906 35.09375 26.246094 34.851563 25.1875 34.40625Z" />
</svg>