<?xml version="1.0" encoding="utf-8"?>
<svg xmlns="http://www.w3.org/2000/svg" viewBox="0 0 50 50" width="515" height="515">
  <path d="M3 6C1.347656 6 0 7.347656 0 9L0 15C0 16.652344 1.347656 18 3 18L11 18C12.652344 18 14 16.652344 14 15L14 9C14 7.347656 12.652344 6 11 6 Z M 23 6C21.347656 6 20 7.347656 20 9L20 11L16 11L16 13L20 13L20 15C20 16.652344 21.347656 18 23 18L31 18C32.652344 18 34 16.652344 34 15L34 9C34 7.347656 32.652344 6 31 6 Z M 36 11L36 13L39 13C40.652344 13 42 14.347656 42 16L42 17L44 17L44 16C44 13.242188 41.757813 11 39 11 Z M 39 19C37.347656 19 36 20.347656 36 22L36 28C36 29.652344 37.347656 31 39 31L47 31C48.652344 31 50 29.652344 50 28L50 22C50 20.347656 48.652344 19 47 19 Z M 3 32C1.347656 32 0 33.347656 0 35L0 41C0 42.652344 1.347656 44 3 44L11 44C12.652344 44 14 42.652344 14 41L14 35C14 33.347656 12.652344 32 11 32 Z M 23 32C21.347656 32 20 33.347656 20 35L20 37L16 37L16 39L20 39L20 41C20 42.652344 21.347656 44 23 44L31 44C32.652344 44 34 42.652344 34 41L34 35C34 33.347656 32.652344 32 31 32 Z M 42 33L42 34C42 35.652344 40.652344 37 39 37L36 37L36 39L39 39C41.757813 39 44 36.757813 44 34L44 33Z" />
</svg>