<?xml version="1.0" encoding="utf-8"?>
<svg xmlns="http://www.w3.org/2000/svg" viewBox="0 0 50 50" width="515" height="515">
  <path d="M48.359375 18.96875C46.699219 12.90625 38.429688 12.226563 35.421875 12.183594C34.53125 9.746094 31.21875 1.984375 25.03125 1.984375C18.878906 1.984375 15.566406 9.664063 14.65625 12.144531C14.449219 12.136719 14.210938 12.132813 13.941406 12.132813C10.851563 12.132813 3.472656 12.796875 1.710938 18.957031C-0.179688 25.542969 6.054688 30.523438 8.1875 32C7.429688 34.457031 5.589844 42.136719 10.574219 46.289063C11.945313 47.4375 13.597656 48.015625 15.480469 48.015625C19.542969 48.015625 23.59375 45.300781 25.085938 44.1875C26.652344 45.171875 30.902344 47.574219 34.988281 47.574219C36.671875 47.574219 38.15625 47.167969 39.398438 46.363281C44.460938 43.078125 42.542969 34.5 41.84375 31.972656C43.835938 30.425781 50.023438 25.042969 48.359375 18.96875 Z M 25.730469 25.953125C25.730469 25.953125 31.640625 30.203125 29.507813 31.921875C27.371094 33.644531 25 26.484375 25 26.484375C25 26.484375 22.429688 33.59375 20.488281 31.921875C18.550781 30.253906 24.269531 25.953125 24.269531 25.953125C24.269531 25.953125 16.746094 25.902344 17.703125 23.34375C18.660156 20.785156 24.546875 25.09375 24.546875 25.09375C24.546875 25.09375 22.300781 18.042969 25 18.042969C27.699219 18.042969 25.449219 25.09375 25.449219 25.09375C25.449219 25.09375 31.296875 20.792969 32.296875 23.34375C33.292969 25.894531 25.730469 25.953125 25.730469 25.953125Z" />
</svg>