<?xml version="1.0" encoding="utf-8"?>
<svg xmlns="http://www.w3.org/2000/svg" viewBox="0 0 50 50" width="515" height="515">
  <path d="M37.357422 0.47070312L10.775391 9.2441406L2.0039062 35.826172L6 34.767578L6 41.1875C4.8425715 41.604757 4 42.706491 4 44C4 44.57803 4.1850925 45.011271 4.3964844 45.492188C4.6078762 45.973104 4.8732018 46.462865 5.1347656 46.914062C5.6578934 47.816459 6.1777344 48.568359 6.1777344 48.568359L7 49.761719L7.8222656 48.568359C7.8222656 48.568359 8.3421066 47.816459 8.8652344 46.914062C9.1267982 46.462865 9.3921238 45.973104 9.6035156 45.492188C9.8149075 45.011271 10 44.57803 10 44C10 42.706491 9.1574285 41.604757 8 41.1875L8 34.238281L29.955078 28.423828L37.357422 0.47070312 z M 35.638672 14.591797L31.855469 28.867188C31.763469 29.228188 31.580172 29.538969 31.326172 29.792969C31.072172 30.046969 30.760391 30.230266 30.400391 30.322266L16.123047 34.105469C17.382047 38.814469 20.231891 42.796703 24.962891 47.470703C30.210891 42.222703 35.574266 39.46875 39.447266 39.46875C40.083266 39.46875 40.677563 39.541406 41.226562 39.691406C40.165563 35.802406 42.896859 29.538688 49.005859 23.429688C44.329859 18.700688 40.347672 15.850797 35.638672 14.591797 z M 7 43C7.5545455 43 8 43.445455 8 44C8 43.97197 7.935092 44.315291 7.7714844 44.6875C7.6078762 45.059709 7.3732018 45.498854 7.1347656 45.910156C7.0674809 46.026222 7.0660933 46.015482 7 46.125C6.9339067 46.015482 6.9325191 46.026222 6.8652344 45.910156C6.6267982 45.498854 6.3921238 45.059709 6.2285156 44.6875C6.0649075 44.315291 6 43.97197 6 44C6 43.445455 6.4454545 43 7 43 z" />
</svg>