<?xml version="1.0" encoding="utf-8"?>
<svg xmlns="http://www.w3.org/2000/svg" viewBox="0 0 50 50" width="515" height="515">
  <path d="M34.5 2.03125C33.492188 2.03125 32 2.722656 32 4.5625L32 25.9375L37 27.59375L37 4.4375C37 2.695313 35.464844 2.03125 34.5 2.03125 Z M 27.5 18C25.789063 18 25 19.488281 25 20.5L25 24.03125C25.628906 23.960938 26.257813 24.015625 26.875 24.21875L30 25.25L30 20.5C30 19.488281 29.210938 18 27.5 18 Z M 20.5 20C19.121094 20 18 21.121094 18 22.5L18 28.5C18 29.878906 19.121094 31 20.5 31C20.902344 31 21.289063 30.890625 21.625 30.71875C21.585938 30.648438 21.535156 30.605469 21.5 30.53125C20.957031 29.460938 20.847656 28.234375 21.21875 27.09375C21.53125 26.136719 22.148438 25.335938 22.96875 24.78125L22.96875 22.34375C22.890625 21.035156 21.828125 20 20.5 20 Z M 13.46875 21C12.28125 21.007813 11.308594 21.851563 11.0625 22.96875C11.058594 22.988281 11.066406 23.011719 11.0625 23.03125C11.042969 23.128906 11.039063 23.214844 11.03125 23.3125C11.023438 23.402344 11 23.5 11 23.59375L11 29.5C11 30.878906 12.121094 32 13.5 32C14.878906 32 16 30.878906 16 29.5L16 26.125C15.992188 26.078125 15.96875 26.050781 15.96875 26L15.96875 23.53125C15.96875 23.226563 15.925781 22.929688 15.84375 22.65625C15.523438 21.765625 14.722656 21.128906 13.75 21.03125C13.664063 21.023438 13.5625 21 13.46875 21 Z M 25.59375 26C25.367188 25.992188 25.125 26.011719 24.90625 26.0625C24.832031 26.082031 24.757813 26.101563 24.6875 26.125C24.613281 26.148438 24.542969 26.1875 24.46875 26.21875C24.402344 26.25 24.34375 26.277344 24.28125 26.3125C24.214844 26.347656 24.15625 26.394531 24.09375 26.4375C24.027344 26.484375 23.96875 26.542969 23.90625 26.59375C23.859375 26.632813 23.792969 26.675781 23.75 26.71875C23.6875 26.78125 23.621094 26.835938 23.5625 26.90625C23.53125 26.945313 23.53125 26.992188 23.5 27.03125C23.414063 27.148438 23.316406 27.273438 23.25 27.40625C23.207031 27.496094 23.1875 27.59375 23.15625 27.6875C23.136719 27.742188 23.109375 27.785156 23.09375 27.84375C23.070313 27.9375 23.046875 28.03125 23.03125 28.125C23.019531 28.191406 23.003906 28.277344 23 28.34375C22.996094 28.421875 22.996094 28.484375 23 28.5625C23.007813 28.773438 23.039063 28.996094 23.09375 29.1875C23.109375 29.234375 23.140625 29.265625 23.15625 29.3125C23.207031 29.457031 23.265625 29.585938 23.34375 29.71875C23.378906 29.78125 23.429688 29.847656 23.46875 29.90625C23.558594 30.035156 23.636719 30.171875 23.75 30.28125C23.78125 30.3125 23.8125 30.347656 23.84375 30.375C23.988281 30.5 24.140625 30.59375 24.3125 30.6875C24.4375 30.753906 24.582031 30.796875 24.71875 30.84375L31.3125 33.03125C31.613281 33.128906 31.835938 33.355469 31.9375 33.65625L32.9375 36.6875C33.113281 37.210938 32.835938 37.761719 32.3125 37.9375C32.207031 37.96875 32.105469 38 32 38C31.582031 38 31.203125 37.734375 31.0625 37.3125L30.1875 34.75L24.09375 32.75C23.699219 32.621094 23.335938 32.441406 23 32.21875C22.285156 32.710938 21.433594 33 20.5 33C19.289063 33 18.183594 32.5 17.375 31.71875C16.597656 33.066406 15.164063 34 13.5 34C12.574219 34 11.714844 33.730469 11 33.25L11 39C11 39.3125 11.03125 39.632813 11.0625 39.9375C11.394531 43.523438 13.640625 46.0625 16.40625 47.25C16.464844 47.277344 16.503906 47.289063 16.5625 47.3125C16.722656 47.378906 16.898438 47.445313 17.0625 47.5C17.191406 47.546875 17.304688 47.585938 17.4375 47.625C17.550781 47.660156 17.667969 47.691406 17.78125 47.71875C17.949219 47.761719 18.109375 47.8125 18.28125 47.84375C18.402344 47.867188 18.535156 47.855469 18.65625 47.875C18.8125 47.898438 18.964844 47.953125 19.125 47.96875C19.410156 47.996094 19.714844 48 20 48L30.46875 48C33.007813 48 35.359375 46.628906 36.59375 44.40625L39.875 38.46875C40.277344 37.664063 41 36.238281 41 35C41 31.933594 38.839844 30.519531 37.25 29.78125L26.25 26.125C26.03125 26.054688 25.820313 26.007813 25.59375 26Z" />
</svg>