<?xml version="1.0" encoding="utf-8"?>
<svg xmlns="http://www.w3.org/2000/svg" viewBox="0 0 50 50" width="515" height="515">
  <path d="M15.974609 8.0273438C15.029984 8.1092188 14.069578 8.5995781 13.392578 9.2675781C10.450578 12.170578 7.4985 15.064609 4.5625 17.974609C2.8455 19.676609 1.8657188 21.177656 1.7617188 23.597656C1.6397187 26.427656 1.2669062 29.268844 1.0039062 32.089844C0.95190625 32.533844 1.3723594 33.124859 1.5683594 33.505859C1.9853594 34.314859 4.1926719 38.635469 5.0136719 39.980469C5.6996719 41.103469 7.5720469 40.849969 8.7480469 40.792969C10.377047 40.714969 11.950422 40.284125 13.357422 39.453125C15.378422 38.259125 17.197547 36.810625 19.060547 35.390625C19.912547 34.741625 20.950922 34.118406 21.669922 33.316406C22.822922 32.030406 22.500766 30.142094 21.134766 29.121094C17.274766 33.865094 9.4848438 32.346734 7.4648438 26.677734C6.5618437 24.142734 7.0259219 21.255953 8.6699219 19.126953C9.4959219 18.056953 10.593031 17.197203 11.832031 16.658203C12.481031 16.375203 13.166187 16.182031 13.867188 16.082031C14.301187 16.020031 14.740688 15.994906 15.179688 16.003906C15.770687 16.016906 15.965766 16.158781 16.384766 15.675781C17.733766 14.116781 19.805891 11.346328 18.462891 9.2363281C17.848391 8.2708281 16.919234 7.9454687 15.974609 8.0273438 z M 34.03125 8.0273438C33.086875 7.9454687 32.157469 8.2708281 31.542969 9.2363281C30.199969 11.346328 32.272094 14.116781 33.621094 15.675781C34.039094 16.158781 34.235172 16.016906 34.826172 16.003906C35.264172 15.994906 35.702719 16.020031 36.136719 16.082031C36.837719 16.182031 37.522875 16.375203 38.171875 16.658203C39.410875 17.197203 40.507984 18.056953 41.333984 19.126953C42.977984 21.255953 43.442062 24.142734 42.539062 26.677734C40.519063 32.346734 32.729141 33.865094 28.869141 29.121094C27.503141 30.142094 27.182938 32.030406 28.335938 33.316406C29.054937 34.118406 30.091359 34.741625 30.943359 35.390625C32.806359 36.810625 34.537594 38.259125 36.558594 39.453125C37.965594 40.284125 39.538969 40.714969 41.167969 40.792969C42.343969 40.849969 44.216344 41.103469 44.902344 39.980469C45.723344 38.635469 48.018547 34.314859 48.435547 33.505859C48.631547 33.124859 49.052 32.533844 49 32.089844C48.737 29.268844 48.364187 26.427656 48.242188 23.597656C48.138187 21.177656 47.158406 19.676609 45.441406 17.974609C42.505406 15.064609 39.553328 12.170578 36.611328 9.2675781C35.934328 8.5995781 34.975625 8.1092188 34.03125 8.0273438 z M 15 18 A 6 6 0 0 0 9 24 A 6 6 0 0 0 15 30 A 6 6 0 0 0 21 24 A 6 6 0 0 0 15 18 z M 35 18 A 6 6 0 0 0 29 24 A 6 6 0 0 0 35 30 A 6 6 0 0 0 41 24 A 6 6 0 0 0 35 18 z M 20.998047 19C22.595047 20.837 23.201406 23.338391 22.691406 25.650391C24.115406 24.855391 25.898594 24.764625 27.308594 25.640625C27.308594 24.540625 27.050109 23.568219 27.287109 22.449219C27.551109 21.203219 28.144 19.986 29 19L20.998047 19 z" />
</svg>