<?xml version="1.0" encoding="utf-8"?>
<svg xmlns="http://www.w3.org/2000/svg" viewBox="0 0 50 50" width="515" height="515">
  <path d="M13.917969 3C13.500969 3 13.129422 3.2574844 12.982422 3.6464844L2.0644531 32.646484C1.9494531 32.953484 1.9907344 33.299359 2.1777344 33.568359C2.3637344 33.839359 2.672 34 3 34L6.8125 34C7.2305 34 7.6069531 33.739656 7.7519531 33.347656L10.466797 26L21.484375 26L22.640625 29.126953L25.617188 21.220703L19.001953 3.6464844C18.854953 3.2574844 18.481453 3 18.064453 3L13.917969 3 z M 15.992188 10L19.992188 21.017578L11.992188 21.017578L15.992188 10 z M 31.917969 12C31.500969 12 31.129422 12.257484 30.982422 12.646484L20.064453 41.646484C19.949453 41.953484 19.990734 42.299359 20.177734 42.568359C20.363734 42.839359 20.672 43 21 43L24.8125 43C25.2305 43 25.605 42.739656 25.75 42.347656L28.466797 35L39.484375 35L42.199219 42.347656C42.345219 42.739656 42.720672 43 43.138672 43L46.984375 43C47.312375 43 47.620641 42.838359 47.806641 42.568359C47.993641 42.298359 48.034922 41.954484 47.919922 41.646484L37.001953 12.646484C36.853953 12.257484 36.481453 12 36.064453 12L31.917969 12 z M 33.992188 19L37.992188 30.017578L29.992188 30.017578L33.992188 19 z M 20.984375 45 A 1.0001 1.0001 0 1 0 20.984375 47L46.984375 47 A 1.0001 1.0001 0 1 0 46.984375 45L20.984375 45 z" />
</svg>