<?xml version="1.0" encoding="utf-8"?>
<svg xmlns="http://www.w3.org/2000/svg" viewBox="0 0 50 50" width="515" height="515">
  <path d="M22.179688 2L22.019531 2.804688C22.019531 2.804688 20 12.734375 20 18L20 19C20 25.617188 25.382813 31 32 31L33 31L33 38.199219L29.875 38.890625L19.398438 29L4.125 29C4.070313 28.992188 4.015625 28.988281 3.960938 28.988281C3.921875 28.992188 3.886719 28.996094 3.851563 29L3.273438 29L3.101563 29.535156C3.042969 29.644531 3.007813 29.765625 2.996094 29.890625C2.851563 30.378906 2 33.480469 2 39C2 43.667969 3.304688 47.332031 3.304688 47.332031L3.542969 48L22 48C22.015625 48 22.027344 48 22.042969 48L39.515625 48L37.6875 46.273438L35.28125 44L44 44L44 43C44 41.367188 42.855469 39.945313 41.265625 39.589844L35 38.199219L35 31L36 31C42.617188 31 48 25.617188 48 19L48 18C48 12.773438 45.980469 2.804688 45.980469 2.804688L45.820313 2 Z M 23.839844 4L44.160156 4C44.328125 4.863281 45.117188 9.046875 45.605469 13L22.390625 13C22.882813 9.039063 23.671875 4.863281 23.839844 4 Z M 6.515625 31L18.601563 31L34.484375 46L22.398438 46 Z M 13.363281 32.433594C13.300781 32.433594 13.242188 32.441406 13.1875 32.457031C12.757813 32.597656 12.847656 33.257813 13.390625 33.933594C13.933594 34.609375 14.722656 35.046875 15.15625 34.910156C15.585938 34.773438 15.496094 34.113281 14.953125 33.4375C14.476563 32.84375 13.8125 32.433594 13.363281 32.433594 Z M 20.917969 36.03125C20.828125 36.027344 20.746094 36.039063 20.671875 36.0625C20.074219 36.253906 20.199219 37.167969 20.953125 38.105469C21.703125 39.042969 22.796875 39.648438 23.390625 39.457031C23.988281 39.265625 23.863281 38.355469 23.109375 37.417969C22.453125 36.597656 21.535156 36.03125 20.917969 36.03125 Z M 22.582031 41.015625C22.519531 41.015625 22.457031 41.027344 22.40625 41.042969C21.972656 41.179688 22.0625 41.839844 22.609375 42.515625C23.152344 43.195313 23.941406 43.632813 24.371094 43.496094C24.800781 43.355469 24.710938 42.695313 24.167969 42.019531C23.691406 41.425781 23.03125 41.019531 22.582031 41.015625Z" />
</svg>