<?xml version="1.0" encoding="utf-8"?>
<svg xmlns="http://www.w3.org/2000/svg" viewBox="0 0 50 50" width="515" height="515">
  <path d="M10 2C5.589844 2 2 5.589844 2 10C2 14.410156 5.589844 18 10 18C14.410156 18 18 14.410156 18 10C18 5.589844 14.410156 2 10 2 Z M 36 7C35.445313 7 35 7.449219 35 8L35 15L34 15C33.445313 15 33 15.449219 33 16C33 16.550781 33.445313 17 34 17L48 17C48.554688 17 49 16.550781 49 16C49 15.449219 48.554688 15 48 15L47 15L47 12C47 11.449219 46.550781 11 46 11L44 11L44 8C44 7.449219 43.554688 7 43 7 Z M 44 13L45 13L45 15L44 15 Z M 30.8125 18C30.261719 18.050781 29.855469 18.542969 29.90625 19.09375C29.957031 19.644531 30.449219 20.050781 31 20L46 20C46.359375 20.003906 46.695313 19.816406 46.878906 19.503906C47.058594 19.191406 47.058594 18.808594 46.878906 18.496094C46.695313 18.183594 46.359375 17.996094 46 18L31 18C30.96875 18 30.9375 18 30.90625 18C30.875 18 30.84375 18 30.8125 18 Z M 5 20C4.296875 20 2.121094 20.210938 0.84375 20.40625C0.355469 20.480469 0 20.914063 0 21.40625L0 47C0 47.554688 0.449219 48 1 48L21 48C21.550781 48 22 47.554688 22 47L22 35.15625L24.6875 38.1875C25.464844 39.074219 26.257813 40 27.5 40C28.761719 40 29.410156 39.425781 30.40625 38.09375C30.753906 37.609375 35.007813 32.648438 37.71875 29.5C38.015625 29.207031 39.542969 28.785156 40.5625 28.5C42.726563 27.890625 44.953125 27.261719 45.71875 26L31.53125 26L27.65625 29.75L22.03125 21.4375C21.996094 21.386719 21.953125 21.324219 21.90625 21.28125C20.675781 20.050781 15.9375 20 15 20C14.535156 20 14.136719 20.332031 14.03125 20.78125L10 39.6875L5.96875 20.78125C5.863281 20.332031 5.464844 20 5 20 Z M 29 21C28.445313 21 28 21.449219 28 22C28 24.242188 30.757813 25 33 25L45 25C47.242188 25 50 24.242188 50 22C50 21.449219 49.554688 21 49 21Z" />
</svg>