<?xml version="1.0" encoding="utf-8"?>
<svg xmlns="http://www.w3.org/2000/svg" viewBox="0 0 50 50" width="515" height="515">
  <path d="M32.8125 0.0625C31.285156 0.28125 29.859375 2.101563 29.5 4.46875C29.09375 7.171875 30.199219 9.585938 31.96875 9.875C33.738281 10.164063 35.496094 8.210938 35.90625 5.5C36.316406 2.792969 35.238281 0.351563 33.46875 0.0625C33.246094 0.0273438 33.03125 0.03125 32.8125 0.0625 Z M 26.34375 1.15625C24.839844 1.015625 23.429688 2.601563 23.21875 4.71875C23.003906 6.835938 24.0625 8.671875 25.5625 8.8125C27.058594 8.953125 28.441406 7.367188 28.65625 5.25C28.863281 3.136719 27.84375 1.296875 26.34375 1.15625 Z M 20.34375 3.53125C19.132813 3.527344 18.15625 4.734375 18.15625 6.25C18.15625 7.761719 19.132813 8.996094 20.34375 9C21.554688 8.996094 22.53125 7.761719 22.53125 6.25C22.527344 4.734375 21.554688 3.527344 20.34375 3.53125 Z M 16.15625 6.8125C15.285156 6.964844 14.78125 8.078125 15.03125 9.28125C15.285156 10.484375 16.191406 11.34375 17.0625 11.1875C17.933594 11.027344 18.445313 9.917969 18.1875 8.71875C17.933594 7.515625 17.03125 6.652344 16.15625 6.8125 Z M 13.5 9.90625C13.390625 9.894531 13.296875 9.917969 13.1875 9.9375C12.316406 10.089844 11.8125 11.199219 12.0625 12.40625C12.316406 13.609375 13.222656 14.441406 14.09375 14.28125C14.964844 14.121094 15.472656 13.011719 15.21875 11.8125C14.996094 10.761719 14.261719 9.976563 13.5 9.90625 Z M 27.84375 12C23.175781 12 14.261719 14.285156 14 22.875C13.863281 27.328125 15.210938 30.242188 16.5 33.0625C17.746094 35.789063 18.90625 38.355469 18.90625 42.375C18.90625 46.125 21.25 50 25.15625 50C29.757813 50 32.167969 47.601563 32.3125 42.84375C32.421875 39.28125 30.832031 37.320313 29.4375 35.59375C28.234375 34.101563 27.1875 32.800781 27.1875 30.5625C27.1875 27.535156 28.683594 26.148438 30.40625 24.53125C32.089844 22.949219 34 21.148438 34 17.71875C34 14.082031 31.761719 12 27.84375 12Z" />
</svg>