<?xml version="1.0" encoding="utf-8"?>
<svg xmlns="http://www.w3.org/2000/svg" viewBox="0 0 50 50" width="515" height="515">
  <path d="M17 1.898438L16.699219 2C16.597656 2 11.300781 4 2.800781 6L2 6.199219L2 31C2 39.5 15.898438 47.5 16.5 47.902344L17 48.199219L17.5 47.902344C18.101563 47.5 32 39.5 32 31L32 6.199219L31.199219 6C22.800781 4 17.402344 2.101563 17.300781 2 Z M 41 2C40.601563 2 40.300781 2.199219 40.097656 2.398438L36.402344 9C36.101563 9.5 36 10 36 10.597656L36.96875 31.277344L35.300781 31.800781C34.5 32.101563 34 32.800781 34 33.699219L34 34.5C34 35.300781 34.699219 36 35.5 36L46.5 36C47.300781 36 48 35.300781 48 34.5L48 33.699219C48 32.898438 47.5 32.101563 46.699219 31.800781L45.03125 31.277344L46 10.597656C46 10 45.898438 9.5 45.597656 9L41.902344 2.5C41.699219 2.199219 41.398438 2 41 2 Z M 41 5L43.902344 10C44 10.199219 44 10.398438 44 10.597656L43.0625 30.652344L41 30L38.941406 30.652344L38.097656 10.5C38.097656 10.398438 38.097656 10.199219 38.199219 10 Z M 17 5.898438L17.402344 6.101563C17.402344 6.101563 21.800781 8.101563 27.199219 9L28 9.199219L28 30C28 36.699219 17.898438 42.601563 17.5 42.902344L17 43.199219L16.5 42.902344C16.101563 42.601563 6 36.699219 6 30L6 9.199219L6.800781 9C12.199219 8 16.5 6.101563 16.597656 6.101563 Z M 17 8.101563C15.898438 8.601563 12.601563 9.898438 8.5 10.699219L26 21.199219L26 10.800781C21.699219 9.902344 18.199219 8.601563 17 8.101563 Z M 8 12.800781L8 15.402344L26 26.199219L26 23.597656 Z M 8 17.800781L8 20.402344L25.902344 31.097656C26 30.699219 26 30.300781 26 30L26 28.597656 Z M 8 22.800781L8 30C8 34.398438 14.101563 39 17 40.800781C18.5 39.800781 23.199219 36.699219 25.097656 33 Z M 38.5 38L38.5 41.929688C37.886719 42.539063 37.5 43.371094 37.5 44.300781C37.5 46.199219 39 47.902344 40.902344 47.902344L41 47.902344C42.898438 47.902344 44.5 46.398438 44.5 44.5C44.550781 43.515625 44.167969 42.617188 43.5 41.960938L43.5 38 Z M 41 42.902344C41.898438 42.902344 42.5 43.601563 42.5 44.5C42.5 45.300781 41.800781 46 40.902344 46C40.101563 46 39.402344 45.300781 39.402344 44.402344C39.5 43.601563 40.199219 42.902344 41 42.902344Z" />
</svg>