<?xml version="1.0" encoding="utf-8"?>
<svg xmlns="http://www.w3.org/2000/svg" viewBox="0 0 50 50" width="515" height="515">
  <path d="M16.53125 0.0625C14.761719 0.351563 13.683594 2.792969 14.09375 5.5C14.503906 8.210938 16.261719 10.164063 18.03125 9.875C19.800781 9.585938 20.90625 7.171875 20.5 4.46875C20.089844 1.761719 18.300781 -0.222656 16.53125 0.0625 Z M 23.65625 1.15625C22.15625 1.296875 21.136719 3.136719 21.34375 5.25C21.5625 7.367188 22.941406 8.953125 24.4375 8.8125C25.9375 8.671875 26.964844 6.835938 26.75 4.71875C26.539063 2.601563 25.160156 1.015625 23.65625 1.15625 Z M 29.65625 3.53125C28.445313 3.527344 27.472656 4.734375 27.46875 6.25C27.46875 7.761719 28.445313 8.996094 29.65625 9C30.871094 8.996094 31.84375 7.761719 31.84375 6.25C31.84375 4.734375 30.867188 3.527344 29.65625 3.53125 Z M 33.5 6.8125C32.738281 6.882813 32.03125 7.667969 31.8125 8.71875C31.554688 9.917969 32.070313 11.027344 32.9375 11.1875C33.808594 11.34375 34.714844 10.484375 34.96875 9.28125C35.21875 8.078125 34.714844 6.964844 33.84375 6.8125C33.734375 6.792969 33.609375 6.800781 33.5 6.8125 Z M 36.5 9.90625C35.738281 9.976563 35.003906 10.761719 34.78125 11.8125C34.527344 13.011719 35.035156 14.121094 35.90625 14.28125C36.777344 14.441406 37.683594 13.609375 37.9375 12.40625C38.1875 11.199219 37.683594 10.089844 36.8125 9.9375C36.703125 9.917969 36.609375 9.894531 36.5 9.90625 Z M 22.15625 12C18.238281 12 16 14.082031 16 17.71875C16 21.148438 17.910156 22.949219 19.59375 24.53125C21.316406 26.148438 22.8125 27.535156 22.8125 30.5625C22.8125 32.800781 21.765625 34.105469 20.5625 35.59375C19.167969 37.320313 17.582031 39.28125 17.6875 42.84375C17.832031 47.601563 20.242188 50 24.84375 50C28.75 50 31.09375 46.125 31.09375 42.375C31.09375 38.355469 32.253906 35.789063 33.5 33.0625C34.789063 30.242188 36.136719 27.328125 36 22.875C35.738281 14.285156 26.824219 12 22.15625 12Z" />
</svg>