<?xml version="1.0" encoding="utf-8"?>
<svg xmlns="http://www.w3.org/2000/svg" viewBox="0 0 50 50" width="515" height="515">
  <path d="M25 2C18.382813 2 13 7.382813 13 14L13 16L15 16L15 14C15 8.484375 19.484375 4 25 4C30.515625 4 35 8.484375 35 14L35 16L37 16L37 14C37 7.382813 31.617188 2 25 2 Z M 9 18C7.347656 18 6 19.347656 6 21L6 45C6 46.652344 7.347656 48 9 48L41 48C42.652344 48 44 46.652344 44 45L44 21C44 19.347656 42.652344 18 41 18 Z M 25 25C27.757813 25 30 27.242188 30 30C30 32.972656 28.027344 33.945313 26.84375 34.53125C26.539063 34.679688 26.082031 34.90625 26 35.03125L26 37L24 37L24 35C24 33.703125 25.070313 33.179688 25.9375 32.75C27.035156 32.207031 28 31.726563 28 30C28 28.347656 26.652344 27 25 27C23.347656 27 22 28.347656 22 30L20 30C20 27.242188 22.242188 25 25 25 Z M 24 38L26 38L26 40L24 40Z" />
</svg>