<?xml version="1.0" encoding="utf-8"?>
<svg xmlns="http://www.w3.org/2000/svg" viewBox="0 0 50 50" width="515" height="515">
  <path d="M26.84375 3C23.59575 3 20.753484 5.1282187 18.396484 9.3242188C17.119484 11.598219 16.127281 14.901 15.238281 18L10.300781 18L8.5078125 21.908203L14.253906 21.908203C13.952906 23.269203 12.963828 27.673391 12.798828 28.650391C12.370828 31.177391 11.928281 33.791359 11.363281 36.318359C11.298281 36.608359 11.232156 36.934109 11.160156 37.287109C10.694156 39.552109 9.9146563 43.345875 8.0976562 43.921875C7.8586563 43.996875 7.6645313 44.016906 7.5195312 44.003906C7.9585313 43.501906 8.2449375 42.865969 8.3359375 42.167969C8.3699375 42.020969 8.3970469 41.828094 8.3730469 41.621094C8.3310469 39.792094 6.9185 38.318359 5.1875 38.318359C3.4305 38.318359 2 39.836641 2 41.681641C1.998 41.777641 1.9653281 44.043609 3.4863281 45.599609C4.3963281 46.528609 5.63025 47 7.15625 47C14.38225 47 16.948969 37.470844 17.792969 34.339844C18.646969 31.170844 19.223297 27.895562 19.779297 24.726562C19.984297 23.559562 20.256609 23.073156 20.474609 21.910156L25.582031 21.910156L27.375 18L21.287109 18C21.743109 16.037 22.152266 13.685766 22.697266 12.134766C22.774266 11.914766 22.859219 11.665484 22.949219 11.396484C23.484219 9.8044844 24.594344 6.4950781 25.902344 6.0800781C26.140344 6.0050781 26.332422 5.9880469 26.482422 5.9980469C26.039422 6.5040469 25.751063 7.1445625 25.664062 7.8515625C25.632062 7.9935625 25.604953 8.176 25.626953 8.375C25.665953 10.206 27.081453 11.683594 28.814453 11.683594C30.572453 11.683594 32.002953 10.164312 32.001953 8.3203125C32.002953 8.2233125 32.035672 5.9563906 30.513672 4.4003906C29.604672 3.4713906 28.36975 3 26.84375 3 z M 33.921875 18C31.332875 18 28.903984 20.287453 27.083984 24.439453L26.560547 25.634766L30.460938 26.220703L30.742188 25.458984C31.450187 23.552984 32.268625 22.699219 32.765625 22.699219C33.215625 22.699219 33.618859 22.856156 34.005859 24.785156L34.693359 28.201172C34.693359 28.201172 34.697078 28.223719 34.705078 28.261719L30.814453 32.587891C30.496453 32.464891 30.156547 32.398438 29.810547 32.398438C28.261547 32.398438 27 33.655219 27 35.199219C27 36.743219 28.260547 37.998047 29.810547 37.998047C30.637547 37.998047 31.420547 37.631578 31.935547 37.017578L35.753906 32.78125C36.265906 34.84525 37.311453 38 41.064453 38C43.657453 38 46.091016 35.7145 47.916016 31.5625L48.441406 30.363281L44.537109 29.779297L44.253906 30.539062C43.543906 32.446062 42.721656 33.300781 42.222656 33.300781C41.770656 33.300781 41.366516 33.143844 40.978516 31.214844L40.285156 27.777344L40.279297 27.753906L44.185547 23.410156C44.504547 23.534156 44.846406 23.599609 45.191406 23.599609C46.740406 23.599609 48.001953 22.342828 48.001953 20.798828C48.001953 19.254828 46.739453 18 45.189453 18C44.387453 18 43.619844 18.349219 43.089844 18.949219L39.224609 23.238281C38.716609 21.175281 37.678875 18 33.921875 18 z" />
</svg>