<?xml version="1.0" encoding="utf-8"?>
<svg xmlns="http://www.w3.org/2000/svg" viewBox="0 0 50 50" width="515" height="515">
  <path d="M43.382813 25.207031C45.9375 16.835938 45.449219 10.105469 42.011719 6.25C39.765625 3.726563 36.4375 2.664063 32.609375 3.21875C30.632813 1 27.433594 0 25 0C19.179688 0 11.539063 2.019531 7.542969 7.679688C4.363281 12.183594 4.015625 18.148438 6.480469 25.410156C5.503906 26.246094 5 27.378906 5 28.800781C5 31.078125 6.742188 33.859375 9.085938 34.484375C13.53125 44.925781 18.738281 50 25 50C31.261719 50 36.46875 44.925781 40.914063 34.484375C43.257813 33.859375 45 31.078125 45 28.800781C45 27.265625 44.449219 26.0625 43.382813 25.207031 Z M 25 21.5C23.066406 21.5 15.949219 21.085938 10.929688 20.753906C13.355469 14.480469 27.152344 17.917969 31.199219 10.398438C33.023438 16.742188 37.980469 15.808594 38.984375 20.785156C33.902344 21.109375 26.871094 21.5 25 21.5 Z M 35 26.101563C35 29.101563 33 31 31.398438 31C29.800781 31 28 29.699219 28 28.5C28 28.5 30.101563 26.800781 35 26.101563 Z M 22 28.5C22 29.699219 20.199219 31 18.601563 31C17 31 15 29.101563 15 26.101563C19.898438 26.800781 22 28.5 22 28.5 Z M 40.105469 32.605469L39.507813 32.660156L39.277344 33.214844C35.132813 43.164063 30.460938 48 25 48C19.539063 48 14.867188 43.164063 10.722656 33.214844L10.492188 32.660156L9.894531 32.605469C8.363281 32.460938 7 30.355469 7 28.800781C7 27.824219 7.347656 27.167969 8.125 26.675781C8.976563 27.230469 9.914063 28.789063 10.828125 30.308594C12.617188 33.289063 14.84375 37 18.601563 37C21.535156 37 22.875 36.136719 23.855469 35.503906C24.914063 34.824219 25.085938 34.824219 26.144531 35.503906C27.125 36.136719 28.464844 37 31.398438 37C35.179688 37 37.4375 33.253906 39.253906 30.246094C40.167969 28.726563 41.109375 27.167969 41.9375 26.644531C42.652344 27.136719 43 27.808594 43 28.800781C43 30.355469 41.636719 32.460938 40.105469 32.605469Z" />
</svg>