<?xml version="1.0" encoding="utf-8"?>
<svg xmlns="http://www.w3.org/2000/svg" viewBox="0 0 50 50" width="515" height="515">
  <path d="M3 8C1.347656 8 0 9.347656 0 11L0 35C0 36.652344 1.347656 38 3 38L7.09375 38C7.570313 40.835938 10.035156 43 13 43C15.964844 43 18.429688 40.835938 18.90625 38L28.1875 38C29.730469 38 31 36.730469 31 35.1875L31 11C31 9.347656 29.652344 8 28 8 Z M 33 13L33 38L33.09375 38C33.570313 40.835938 36.035156 43 39 43C41.964844 43 44.429688 40.835938 44.90625 38L47 38C48.542969 38 50 36.542969 50 35L50 25.40625C50 24.28125 49.570313 23.25 49.1875 22.46875C48.804688 21.6875 48.40625 21.125 48.40625 21.125L48.40625 21.09375L46.09375 18L44.28125 15.59375L44.28125 15.5625C44.089844 15.320313 43.847656 15.066406 43.5625 14.78125C42.828125 14.019531 41.910156 13.28125 40.71875 13.0625C40.488281 13.019531 40.246094 13 40 13 Z M 38 19L44.3125 19L46.78125 22.28125L46.8125 22.3125C46.832031 22.339844 47.101563 22.722656 47.40625 23.34375C47.652344 23.847656 47.851563 24.476563 47.9375 25L38 25C37.832031 25 37.5625 24.875 37.34375 24.65625C37.125 24.4375 37 24.167969 37 24L37 20C37 19.507813 37.601563 19 38 19 Z M 5 20L9 20L9 21.09375L6.3125 21.09375L6.3125 22.40625L8.6875 22.40625L8.6875 23.40625L6.3125 23.40625L6.3125 25.8125L5 25.8125 Z M 10 20L13 20C13.5 20 14.6875 20.292969 14.6875 21.59375C14.6875 22.492188 14.113281 22.898438 13.8125 23C14.011719 23 14.59375 23.195313 14.59375 24.59375C14.59375 24.695313 14.613281 25.394531 14.8125 25.59375L13.5 25.59375C13.398438 25.394531 13.40625 25.203125 13.40625 25C13.304688 24.101563 13.304688 23.40625 12.40625 23.40625L11.09375 23.40625L11.09375 25.59375L10 25.59375 Z M 16 20L20.1875 20L20.1875 21.09375L17.1875 21.09375L17.1875 22.3125L20 22.3125L20 23.3125L17.1875 23.3125L17.1875 24.6875L20.3125 24.6875L20.3125 25.8125L16 25.8125 Z M 21.6875 20L25.90625 20L25.90625 21.09375L22.90625 21.09375L22.90625 22.3125L25.6875 22.3125L25.6875 23.3125L22.90625 23.3125L22.90625 24.6875L26 24.6875L26 25.8125L21.6875 25.8125 Z M 11.1875 21L11.1875 22.59375L12.59375 22.59375C12.894531 22.59375 13.5 22.613281 13.5 21.8125C13.5 21.113281 12.894531 21 12.59375 21 Z M 13 33C15.222656 33 17 34.777344 17 37C17 39.222656 15.222656 41 13 41C10.777344 41 9 39.222656 9 37C9 34.777344 10.777344 33 13 33 Z M 39 33C41.222656 33 43 34.777344 43 37C43 39.222656 41.222656 41 39 41C36.777344 41 35 39.222656 35 37C35 34.777344 36.777344 33 39 33Z" />
</svg>