<?xml version="1.0" encoding="utf-8"?>
<svg xmlns="http://www.w3.org/2000/svg" viewBox="0 0 50 50" width="515" height="515">
  <path d="M20 2C17.242188 2 15 4.242188 15 7C15 9.753906 17.242188 12 20 12C22.757813 12 25 9.753906 25 7C25 4.242188 22.757813 2 20 2 Z M 31 2C28.242188 2 26 4.242188 26 7C26 9.757813 28.242188 12 31 12C33.757813 12 36 9.757813 36 7C36 4.242188 33.757813 2 31 2 Z M 38.625 11C38.621094 11 38.230469 11.015625 37.625 11.25C36.222656 11.800781 30.980469 13.910156 30.980469 13.910156C30.847656 13.96875 30.710938 14 30.566406 14L15.625 14C14.296875 14 12.082031 14.695313 11.453125 15.8125C11.425781 15.859375 11.402344 15.90625 11.386719 15.957031L9.40625 21.386719C8.871094 22.382813 8.863281 23.566406 9.347656 24.496094L11.640625 30.085938C11.949219 30.679688 12.433594 31.144531 13 31.472656L13 20.5C13 20.222656 13.222656 20 13.5 20C13.777344 20 14 20.222656 14 20.5L14 45.359375C14 46.664063 14.941406 47.855469 16.242188 47.984375C17.738281 48.136719 19 46.964844 19 45.5L19 31.5C19 31.222656 19.222656 31 19.5 31C19.777344 31 20 31.222656 20 31.5L20 45.5C20 46.882813 21.121094 48 22.5 48C23.882813 48 25 46.882813 25 45.5C25 44.867188 25.003906 24.738281 25.003906 19.996094C25.003906 19.441406 25.453125 19 26.003906 19L31.125 19C31.699219 19 32.269531 18.875 32.796875 18.632813C34.121094 18.019531 38.144531 16.140625 38.144531 16.140625C38.144531 16.140625 38.148438 16.140625 38.148438 16.140625C38.359375 16.042969 39.589844 15.445313 39.75 15.359375C40.492188 14.976563 41 14.203125 41 13.3125C41 12.035156 39.964844 11 38.6875 11 Z M 39.078125 16.808594C38.488281 17.089844 37.019531 17.78125 33.226563 19.535156C32.566406 19.839844 31.84375 20 31.121094 20L26.503906 20C26.226563 20 26.003906 20.222656 26.003906 20.5L26 45.5C25.898438 46.25 26.199219 47.015625 26.824219 47.441406C28.839844 48.832031 31 47.417969 31 45.5L31 31.5C31 31.222656 31.222656 31 31.5 31C31.777344 31 32 31.222656 32 31.5L32 45.359375C32 46.664063 32.941406 47.855469 34.242188 47.984375C35.738281 48.136719 37 46.964844 37 45.5L37 20.5C37 20.222656 37.222656 20 37.5 20C37.777344 20 38 20.222656 38 20.5L38 31.46875C38.574219 31.128906 39.066406 30.640625 39.398438 29.996094L40.53125 27.21875L41.613281 24.574219C42.136719 23.5625 42.128906 22.378906 41.59375 21.386719Z" />
</svg>