<?xml version="1.0" encoding="utf-8"?>
<svg xmlns="http://www.w3.org/2000/svg" viewBox="0 0 50 50" width="515" height="515">
  <path d="M25 0C21.691406 0 19 2.691406 19 6C19 9.308594 21.691406 12 25 12C28.308594 12 31 9.308594 31 6C31 2.691406 28.308594 0 25 0 Z M 22 13C18.140625 13 15 16.140625 15 20L15 22L35 22L35 20C35 16.140625 31.859375 13 28 13 Z M 42 19L42 20L44 20L44 19 Z M 43 20C40.585938 20 38.5625 21.722656 38.09375 24L1 24C0.449219 24 0 24.449219 0 25L0 29C0 29.554688 0.449219 30 1 30L49 30C49.554688 30 50 29.554688 50 29L50 25C50 24.449219 49.554688 24 49 24L47.90625 24C47.4375 21.722656 45.414063 20 43 20 Z M 43 22C44.300781 22 45.394531 22.84375 45.8125 24L40.1875 24C40.605469 22.84375 41.699219 22 43 22 Z M 2 32L2 49C2 49.554688 2.449219 50 3 50L47 50C47.554688 50 48 49.554688 48 49L48 32Z" />
</svg>