<?xml version="1.0" encoding="utf-8"?>
<svg xmlns="http://www.w3.org/2000/svg" viewBox="0 0 50 50" width="515" height="515">
  <path d="M46.710938 15.214844C46.898438 14.816406 47 14.375 47 13.929688C47 12.3125 45.742188 11 44.199219 11C44.050781 11 43.886719 11.035156 43.71875 11.070313C40.878906 5.191406 33.578125 1 25 1C16.421875 1 9.121094 5.191406 6.28125 11.070313C6.113281 11.035156 5.949219 11 5.800781 11C4.257813 11 3 12.3125 3 13.929688C3 14.378906 3.101563 14.816406 3.289063 15.214844C3.101563 15.613281 3 16.050781 3 16.5C3 16.949219 3.101563 17.386719 3.289063 17.785156C3.101563 18.183594 3 18.625 3 19.070313C3 20.4375 3.902344 21.578125 5.113281 21.898438C5.042969 22.257813 5 22.621094 5 23C5 24.777344 5.8125 26.367188 7.105469 27.46875C7.3125 27.644531 7.753906 28.363281 8.078125 29.019531C8.03125 29.339844 8 29.664063 8 30C8 31.621094 8.554688 33.105469 9.480469 34.292969C11.109375 39.621094 13.308594 41.191406 14.472656 42C16.074219 43.109375 17.632813 43.546875 17.632813 45C17.632813 46.648438 20.261719 48 22 48L28 48C29.738281 48 32.367188 46.648438 32.367188 45C32.367188 43.546875 33.921875 43.109375 35.527344 42C36.691406 41.191406 38.890625 39.621094 40.519531 34.292969C41.445313 33.105469 42 31.621094 42 30C42 29.664063 41.96875 29.339844 41.921875 29.019531C42.246094 28.363281 42.6875 27.644531 42.894531 27.464844C44.1875 26.367188 45 24.777344 45 23C45 22.621094 44.957031 22.257813 44.886719 21.898438C46.097656 21.578125 47 20.4375 47 19.070313C47 18.621094 46.898438 18.183594 46.710938 17.785156C46.898438 17.386719 47 16.949219 47 16.5C47 16.050781 46.898438 15.613281 46.710938 15.214844 Z M 8.769531 17.144531C8.875 17.269531 9 17.484375 9 17.785156C9 18.1875 8.777344 18.546875 8.445313 18.671875C8.386719 18.691406 8.191406 18.792969 7.925781 18.953125C6.515625 19.792969 5.988281 19.984375 5.800781 20C5.359375 20 5 19.582031 5 19.070313C5 18.769531 5.125 18.554688 5.230469 18.429688L5.773438 17.785156L5.230469 17.140625C5.125 17.015625 5 16.800781 5 16.5C5 16.199219 5.125 15.984375 5.230469 15.855469L5.773438 15.214844L5.230469 14.570313C5.125 14.445313 5 14.230469 5 13.929688C5 13.417969 5.359375 13 5.792969 13C5.988281 13.015625 6.515625 13.207031 7.925781 14.046875C8.195313 14.207031 8.386719 14.308594 8.445313 14.328125C8.777344 14.457031 9 14.8125 9 15.214844C9 15.515625 8.875 15.730469 8.769531 15.855469L8.226563 16.5 Z M 27.4375 13.4375C27.804688 13.074219 29.5625 10 33 10C34.308594 10 35.683594 10.378906 36.996094 11.519531C37.6875 12.117188 37.628906 13.113281 36.996094 12.804688C35.882813 12.261719 34.886719 12 34 12C31.3125 12 29.972656 15.148438 29.5625 15.5625C28.976563 16.148438 28.023438 16.148438 27.441406 15.5625C26.855469 14.976563 26.855469 14.023438 27.4375 13.4375 Z M 36 19.867188C36 21.863281 34.101563 20.597656 32.597656 20.597656C31.09375 20.597656 29 21.742188 29 20.199219C29 18.65625 30.996094 17.007813 32.5 17.007813C34.003906 17.007813 36 17.855469 36 19.867188 Z M 13.003906 11.519531C14.316406 10.378906 15.691406 10 17 10C20.4375 10 22.195313 13.074219 22.5625 13.4375C23.148438 14.023438 23.148438 14.976563 22.5625 15.558594C21.976563 16.144531 21.023438 16.144531 20.441406 15.558594C20.027344 15.148438 18.6875 12 16 12C15.113281 12 14.117188 12.261719 13.003906 12.804688C12.371094 13.109375 12.3125 12.117188 13.003906 11.519531 Z M 21 20.199219C21 21.742188 18.90625 20.597656 17.402344 20.597656C15.898438 20.597656 14 21.859375 14 19.863281C14 17.851563 15.996094 17.003906 17.5 17.003906C19.003906 17.003906 21 18.65625 21 20.199219 Z M 35.699219 35.386719C33.863281 35.984375 32.945313 36 29.410156 36C29.410156 36 20.589844 36 20.589844 36C17.054688 36 16.136719 35.984375 14.300781 35.386719C11.960938 34.625 10 32.730469 10 29.96875C10 27.570313 12.136719 25 14.410156 25C13.488281 25.597656 12.648438 26.546875 12.648438 27.46875C12.648438 29.402344 14.03125 30.96875 15.734375 30.96875C17.074219 30.96875 19.34375 27.027344 20.996094 27C21.398438 27.617188 22.039063 28.023438 22.769531 28.023438C22.886719 28.023438 23.148438 28.125 23.210938 28.199219C23.472656 29.25 26.527344 29.25 26.789063 28.199219C26.847656 28.125 27.113281 28.023438 27.230469 28.023438C27.960938 28.023438 28.601563 27.617188 29.003906 27C30.65625 27.023438 32.925781 30.96875 34.265625 30.96875C35.96875 30.96875 37.351563 29.402344 37.351563 27.46875C37.351563 26.546875 36.714844 25.6875 35.585938 25C37.792969 25 40 27.570313 40 29.96875C40 32.730469 38.039063 34.625 35.699219 35.386719 Z M 44.769531 15.855469C44.875 15.984375 45 16.199219 45 16.5C45 16.800781 44.875 17.015625 44.769531 17.144531L44.226563 17.785156L44.769531 18.429688C44.875 18.554688 45 18.769531 45 19.070313C45 19.582031 44.640625 20 44.207031 20C44.011719 19.984375 43.484375 19.792969 42.074219 18.953125C41.808594 18.792969 41.613281 18.691406 41.554688 18.671875C41.222656 18.542969 41 18.1875 41 17.785156C41 17.484375 41.125 17.269531 41.230469 17.144531L41.773438 16.5L41.230469 15.855469C41.125 15.730469 41 15.515625 41 15.214844C41 14.8125 41.222656 14.453125 41.554688 14.328125C41.613281 14.308594 41.804688 14.207031 42.074219 14.046875C43.484375 13.207031 44.011719 13.011719 44.199219 13C44.640625 13 45 13.417969 45 13.929688C45 14.230469 44.875 14.445313 44.769531 14.570313L44.230469 15.214844Z" />
</svg>