<?xml version="1.0" encoding="utf-8"?>
<svg xmlns="http://www.w3.org/2000/svg" viewBox="0 0 50 50" width="515" height="515">
  <path d="M11 2C10.014286 2 9.1880309 2.4994691 8.59375 3.09375 A 1.0001 1.0001 0 0 0 8.4355469 3.296875L6.421875 6.75C6.162847 7.0861683 6.0058594 7.5121281 6.0058594 8L6.0058594 46C6.0058594 47.159 6.8468594 48 8.0058594 48L23.994141 48L24.003906 48C24.010174 49.067579 24.889779 50 25.994141 50L45.244141 50C46.448903 50 47.492902 49.124657 47.705078 47.939453L50 36.095703L50 36C50 34.906937 49.093063 34 48 34L47.994141 34L47.994141 32C47.994141 30.908145 47.087225 30 45.994141 30L34.005859 30L34.005859 8C34.005859 7.4300953 33.80154 6.9379298 33.457031 6.5839844L31.462891 3.1933594 A 1.0001 1.0001 0 0 0 31.400391 3.0996094C30.860391 2.3796094 30.032943 2 29.099609 2L11 2 z M 11 4L29.099609 4C29.362601 4 29.723404 4.2142393 29.791016 4.296875L30.792969 6L9.1757812 6L10.0625 4.4804688C10.42317 4.1279839 10.60844 4 11 4 z M 12 11L28 11C28.6 11 29 11.4 29 12L29 16C29 16.6 28.6 17 28 17L12 17C11.4 17 11 16.6 11 16L11 12C11 11.4 11.4 11 12 11 z M 12 19L28 19C28.6 19 29 19.4 29 20L29 24C29 24.6 28.6 25 28 25L12 25C11.4 25 11 24.6 11 24L11 20C11 19.4 11.4 19 12 19 z M 20 30C21.105 30 22 30.895 22 32C22 33.105 21.105 34 20 34C18.895 34 18 33.105 18 32C18 30.895 18.895 30 20 30 z M 25.994141 30L30.291016 30C30.374466 30.0989 30.507393 30.293839 30.65625 30.53125C30.812237 30.780034 30.978988 31.062919 31.222656 31.34375C31.466324 31.624581 31.856508 32 32.494141 32L45.994141 32L45.994141 34L28.494141 34C27.469758 34 26.619767 34.799032 26.515625 35.798828L25.994141 38.28125L25.994141 30 z M 28.494141 36L47.980469 36L45.738281 47.580078L45.736328 47.587891C45.692552 47.832699 45.493378 48 45.244141 48L25.994141 48L28.494141 36.103516L28.494141 36 z M 20 38C21.105 38 22 38.895 22 40C22 41.105 21.105 42 20 42C18.895 42 18 41.105 18 40C18 38.895 18.895 38 20 38 z" />
</svg>