<?xml version="1.0" encoding="utf-8"?>
<svg xmlns="http://www.w3.org/2000/svg" viewBox="0 0 50 50" width="515" height="515">
  <path d="M47 20L45 20L45 17C45 14.242188 42.757813 12 40 12L8 12C5.242188 12 3 14.242188 3 17L3 33C3 35.757813 5.242188 38 8 38L40 38C42.757813 38 45 35.757813 45 33L45 30L47 30C47.554688 30 48 29.554688 48 29L48 21C48 20.449219 47.554688 20 47 20 Z M 9 33C9 33.554688 8.550781 34 8 34C7.449219 34 7 33.554688 7 33L7 17C7 16.449219 7.449219 16 8 16C8.550781 16 9 16.449219 9 17 Z M 13 33C13 33.554688 12.550781 34 12 34C11.449219 34 11 33.554688 11 33L11 17C11 16.449219 11.449219 16 12 16C12.550781 16 13 16.449219 13 17 Z M 17 33C17 33.554688 16.550781 34 16 34C15.449219 34 15 33.554688 15 33L15 17C15 16.449219 15.449219 16 16 16C16.550781 16 17 16.449219 17 17 Z M 21 33C21 33.554688 20.550781 34 20 34C19.449219 34 19 33.554688 19 33L19 17C19 16.449219 19.449219 16 20 16C20.550781 16 21 16.449219 21 17 Z M 25 33C25 33.554688 24.550781 34 24 34C23.449219 34 23 33.554688 23 33L23 17C23 16.449219 23.449219 16 24 16C24.550781 16 25 16.449219 25 17 Z M 29 33C29 33.554688 28.554688 34 28 34C27.445313 34 27 33.554688 27 33L27 17C27 16.449219 27.445313 16 28 16C28.554688 16 29 16.449219 29 17 Z M 33 33C33 33.554688 32.554688 34 32 34C31.445313 34 31 33.554688 31 33L31 17C31 16.449219 31.445313 16 32 16C32.554688 16 33 16.449219 33 17 Z M 37 33C37 33.554688 36.554688 34 36 34C35.445313 34 35 33.554688 35 33L35 17C35 16.449219 35.445313 16 36 16C36.554688 16 37 16.449219 37 17 Z M 41 33C41 33.554688 40.554688 34 40 34C39.445313 34 39 33.554688 39 33L39 17C39 16.449219 39.445313 16 40 16C40.554688 16 41 16.449219 41 17Z" />
</svg>