<?xml version="1.0" encoding="utf-8"?>
<svg xmlns="http://www.w3.org/2000/svg" viewBox="0 0 50 50" width="515" height="515">
  <path d="M25 2C12.32 2 2 12.32 2 25C2 37.68 12.32 48 25 48C28.02 48 30.910781 47.409844 33.550781 46.339844L29.330078 37.060547C29.940078 36.800547 30.520547 36.459062 31.060547 36.039062L35.369141 45.519531C42.579141 41.869531 47.610703 34.53 47.970703 26L32.890625 26C32.320625 25.15 31.560469 24.5 30.730469 24L47.970703 24C47.670703 16.78 44.019062 10.419922 38.539062 6.4199219L32.070312 16.189453C31.750312 15.559453 31.349609 14.959688 30.849609 14.429688L36.890625 5.3105469C33.420625 3.2105469 29.35 2 25 2 z M 24 11L26 11L26 14.070312C29.87 14.590312 30.98 18.070234 31 19.990234L29 20.009766C28.99 19.599766 28.81 16 25 16C22.91 16 21.440625 16.699844 20.640625 18.089844C20.010625 19.179844 20 20.320078 20 20.330078C20 22.900078 21.980703 23.469453 25.220703 24.189453C28.240703 24.859453 32 25.7 32 30C32 34.15 28.5 35.629453 26 35.939453L26 39L24 39L24 35.949219C19.28 35.509219 18 31.94 18 30L19 30L20 29.990234C20 30.400234 20.19 34 25 34C25.2 34 30 33.93 30 30C30 27.43 28.019297 26.860625 24.779297 26.140625C21.759297 25.470625 18 24.640078 18 20.330078C18 20.190078 18.010313 17.720625 19.820312 15.890625C20.860312 14.830625 22.27 14.220781 24 14.050781L24 11 z" />
</svg>