<?xml version="1.0" encoding="utf-8"?>
<svg xmlns="http://www.w3.org/2000/svg" viewBox="0 0 50 50" width="515" height="515">
  <path d="M43.453125 11.28125L43.453125 4.046875C43.453125 2.390625 42.109375 1.046875 40.453125 1.046875C38.800781 1.046875 37.453125 2.390625 37.453125 4.046875L37.453125 5.683594C33.863281 3.363281 29.59375 2 25 2C12.296875 2 2 12.296875 2 25C2 37.703125 12.296875 48 25 48C37.703125 48 48 37.703125 48 25C48 19.855469 46.308594 15.113281 43.453125 11.28125 Z M 25 45.953125C13.421875 45.953125 4 36.535156 4 24.953125C4 13.375 13.421875 3.953125 25 3.953125C30.425781 3.953125 35.585938 6.039063 39.453125 9.734375L39.453125 4.046875C39.453125 3.492188 39.902344 3.046875 40.453125 3.046875C41.007813 3.046875 41.453125 3.492188 41.453125 4.046875L41.453125 13.226563L32.273438 13.226563C31.71875 13.226563 31.273438 12.777344 31.273438 12.226563C31.273438 11.675781 31.71875 11.226563 32.273438 11.226563L38.121094 11.226563C34.613281 7.859375 29.933594 5.953125 25 5.953125C14.523438 5.953125 6 14.476563 6 24.953125C6 35.429688 14.523438 43.953125 25 43.953125C35.476563 43.953125 44 35.433594 44 24.953125C44 21.957031 43.28125 18.9375 41.921875 16.21875L43.710938 15.324219C45.210938 18.316406 46 21.648438 46 24.953125C46 36.535156 36.578125 45.953125 25 45.953125 Z M 27 25C27 25.179688 26.96875 25.347656 26.925781 25.511719L33.707031 32.292969L32.292969 33.707031L25.511719 26.925781C25.347656 26.96875 25.179688 27 25 27C23.894531 27 23 26.105469 23 25C23 24.261719 23.40625 23.625 24 23.277344L24 9L26 9L26 23.277344C26.597656 23.625 27 24.261719 27 25Z" />
</svg>