<?xml version="1.0" encoding="utf-8"?>
<svg xmlns="http://www.w3.org/2000/svg" viewBox="0 0 50 50" width="515" height="515">
  <path d="M15 2C14.398438 2 14 2.398438 14 3L14 46L12 46L12 7C12 6.449219 11.550781 6 11 6L4 6C3.96875 6 3.9375 6 3.90625 6C3.390625 6.046875 2.996094 6.480469 3 7L3 46C2.398438 46 2 46.398438 2 47C2 47.601563 2.398438 48 3 48L47 48C47.601563 48 48 47.601563 48 47C48 46.398438 47.601563 46 47 46L47 18C47 17.398438 46.601563 17 46 17L39 17C38.398438 17 38 17.398438 38 18L38 46L36 46L36 23C36 22.449219 35.550781 22 35 22L28 22C27.96875 22 27.9375 22 27.90625 22C27.390625 22.046875 26.996094 22.480469 27 23L27 46L23 46L23 3C23 2.398438 22.601563 2 22 2 Z M 5 8L10 8L10 46L5 46 Z M 29 24L34 24L34 46L29 46Z" />
</svg>