<?xml version="1.0" encoding="utf-8"?>
<svg xmlns="http://www.w3.org/2000/svg" viewBox="0 0 50 50" width="515" height="515">
  <path d="M25 1C24.7825 1 24.565859 1.0709375 24.380859 1.2109375L1.3808594 19.210938C0.95085938 19.550937 0.8709375 20.179141 1.2109375 20.619141C1.5509375 21.049141 2.1791406 21.129063 2.6191406 20.789062L4 19.699219L4 46C4 46.55 4.45 47 5 47L45 47C45.55 47 46 46.55 46 46L46 19.699219L47.380859 20.789062C47.570859 20.929063 47.78 21 48 21C48.3 21 48.589063 20.869141 48.789062 20.619141C49.129063 20.179141 49.049141 19.550937 48.619141 19.210938L25.619141 1.2109375C25.434141 1.0709375 25.2175 1 25 1 z M 18.480469 19L31.519531 19C32.509531 19 33.729062 19.759297 34.289062 20.779297L37.859375 28L40 28C40.55 28 41 28.45 41 29L41 31C41 31.55 40.55 32 40 32L38.859375 32C38.999375 32.53 39 32.85 39 33L39 44C39 44.55 38.55 45 38 45L35 45C34.45 45 34 44.55 34 44L34 41L16 41L16 44C16 44.55 15.55 45 15 45L12 45C11.45 45 11 44.55 11 44L11 33C11 32.85 11.000625 32.53 11.140625 32L10 32C9.45 32 9 31.55 9 31L9 29C9 28.45 9.45 28 10 28L13.140625 28L15.710938 20.779297C16.270937 19.759297 17.490469 19 18.480469 19 z M 19.070312 23L16 30L34 30L30.919922 23L19.070312 23 z M 17 34C15.9 34 15 34.9 15 36C15 37.1 15.9 38 17 38C18.1 38 19 37.1 19 36C19 34.9 18.1 34 17 34 z M 33 34C31.9 34 31 34.9 31 36C31 37.1 31.9 38 33 38C34.1 38 35 37.1 35 36C35 34.9 34.1 34 33 34 z" />
</svg>