<?xml version="1.0" encoding="utf-8"?>
<svg xmlns="http://www.w3.org/2000/svg" viewBox="0 0 50 50" width="515" height="515">
  <path d="M28.53125 0C28.4375 0.015625 28.335938 0.0507813 28.25 0.09375C27.464844 0.484375 9 9.855469 9 26.1875C9 36.632813 20.820313 39.9375 20.9375 39.96875C21.023438 39.992188 21.101563 40 21.1875 40C21.195313 40 21.207031 40 21.21875 40C21.769531 40 22.21875 39.554688 22.21875 39C22.21875 38.710938 22.101563 38.464844 21.90625 38.28125C21.324219 37.476563 18 32.621094 18 26.3125C18 20.667969 21.265625 16.605469 23.5 14.5C22.152344 23.683594 25.976563 26.917969 26.15625 27.0625C26.441406 27.292969 26.847656 27.363281 27.1875 27.21875C27.527344 27.078125 27.746094 26.773438 27.78125 26.40625C27.84375 25.753906 28.0625 24.347656 28.5 23.03125C28.828125 24.277344 29.261719 25.386719 29.65625 26.40625C30.375 28.25 31 29.835938 31 31.90625C31 34.742188 28.402344 38.371094 28.375 38.40625C28.121094 38.761719 28.144531 39.246094 28.40625 39.59375C28.667969 39.945313 29.121094 40.082031 29.53125 39.9375C35.019531 38.039063 39 32.25 39 26.1875C39 20.925781 36.296875 16.960938 33.6875 13.125C30.941406 9.09375 28.558594 5.632813 29.65625 1.25C29.75 0.871094 29.617188 0.460938 29.3125 0.21875C29.085938 0.0351563 28.8125 -0.0507813 28.53125 0 Z M 10.40625 42C9.058594 42 8 43.058594 8 44.40625L8 49C8 49.554688 8.449219 50 9 50L41 50C41.554688 50 42 49.554688 42 49L42 44.40625C42 43.0625 40.941406 42 39.59375 42L37 42C36.445313 42 36 42.445313 36 43L36 45L35 45L35 43C35 42.445313 34.554688 42 34 42L30 42C29.445313 42 29 42.445313 29 43L29 45L28 45L28 43C28 42.445313 27.554688 42 27 42L23 42C22.449219 42 22 42.445313 22 43L22 45L21 45L21 43C21 42.445313 20.550781 42 20 42L16 42C15.449219 42 15 42.445313 15 43L15 45L14 45L14 43C14 42.445313 13.550781 42 13 42Z" />
</svg>