<?xml version="1.0" encoding="utf-8"?>
<svg xmlns="http://www.w3.org/2000/svg" viewBox="0 0 50 50" width="515" height="515">
  <path d="M41 0C39.453125 0.117188 37.882813 0.867188 36.625 2.125L33.5 5.28125L35.625 7.375L38.75 4.25C39.476563 3.523438 40.351563 3.078125 41.15625 3L50 3L50 0 Z M 24.3125 4.5625C23.21875 4.5625 22.097656 4.964844 21.28125 5.78125L17.5 9.59375C16.972656 10.121094 16.6875 10.828125 16.6875 11.5625C16.6875 12.296875 16.972656 12.972656 17.5 13.5L30.90625 26.90625C31.433594 27.433594 32.132813 27.71875 32.875 27.71875C33.59375 27.71875 34.289063 27.453125 34.90625 26.90625L35.8125 26C36.457031 25.355469 36.871094 24.480469 37 23.4375L37 23.28125L36.09375 16.6875C36.191406 15.417969 35.789063 14.285156 34.90625 13.40625L34.4375 12.9375L34.9375 11.40625L34.96875 11.28125C35.148438 10.390625 34.90625 9.5 34.3125 8.90625L31.59375 6.1875C31.101563 5.699219 30.457031 5.4375 29.8125 5.4375C29.539063 5.4375 29.285156 5.484375 29.09375 5.5625L27.5625 6.0625L27.3125 5.78125C26.496094 4.964844 25.40625 4.5625 24.3125 4.5625 Z M 15.28125 13.8125L4.28125 24.78125C3.410156 25.652344 3.382813 27.148438 4.28125 28.21875L13.1875 37.09375C14.199219 38.105469 15.527344 38.6875 16.9375 38.6875C18.347656 38.6875 19.707031 38.105469 20.71875 37.09375L29.46875 28.3125L16.09375 14.9375C15.761719 14.605469 15.5 14.210938 15.28125 13.8125 Z M 18.25 20.5C18.722656 20.5 19.203125 20.601563 19.65625 20.75C16.730469 23.894531 16.988281 27.710938 17 27.875C17.042969 28.398438 17.484375 28.8125 18 28.8125C18.027344 28.8125 18.066406 28.816406 18.09375 28.8125C18.644531 28.765625 19.046875 28.269531 19 27.71875C18.996094 27.6875 18.769531 24.449219 21.3125 21.90625C21.351563 21.867188 21.375 21.824219 21.40625 21.78125L24.1875 24.59375C24.789063 25.195313 24.789063 26.085938 24.1875 26.6875L18.8125 32.09375C17.8125 33.195313 16.09375 33.1875 15.09375 32.1875L11 28.09375C10.398438 27.492188 10.398438 26.601563 11 26L15.3125 21.6875C16.113281 20.886719 17.164063 20.5 18.25 20.5 Z M 2.21875 28.65625C0.796875 30.742188 0 33.292969 0 35.90625C0 41.058594 3.457031 47.644531 11.0625 49.9375L11.9375 47.0625C5.382813 45.089844 3 39.3125 3 35.90625C3 34.167969 3.457031 32.484375 4.28125 31.03125L2.75 29.5C2.53125 29.238281 2.375 28.941406 2.21875 28.65625Z" />
</svg>