<?xml version="1.0" encoding="utf-8"?>
<svg xmlns="http://www.w3.org/2000/svg" viewBox="0 0 50 50" width="515" height="515">
  <path d="M37 2L37 6L43.1875 6L37.9375 11.25C35.976563 9.851563 33.585938 9 31 9C24.382813 9 19 14.382813 19 21C19 25.121094 21.136719 28.925781 24.59375 31.125C24.847656 30.457031 25 29.730469 25 29C25 27.578125 24.601563 26.191406 24.0625 25L24.09375 25C23.386719 23.808594 23 22.4375 23 21C23 16.589844 26.589844 13 31 13C35.410156 13 39 16.589844 39 21C39 24.703125 36.480469 27.808594 33 28.71875C33.003906 28.8125 33 28.90625 33 29C33 30.339844 32.78125 31.648438 32.40625 32.90625C38.363281 32.207031 43 27.140625 43 21C43 18.414063 42.148438 16.023438 40.75 14.0625L46 8.8125L46 15L50 15L50 2 Z M 17.5625 17.09375C11.617188 17.800781 7 22.867188 7 29C7 31.578125 7.828125 33.980469 9.21875 35.9375L5.96875 39.1875L2.84375 36.15625L0.0625 39.03125L3.15625 42.03125L0.0625 45.09375L2.90625 47.9375L6.03125 44.8125L9.15625 47.84375L11.9375 44.96875L8.84375 41.96875L12.0625 38.75C14.023438 40.148438 16.414063 41 19 41C25.617188 41 31 35.617188 31 29C31 24.882813 28.859375 21.105469 25.40625 18.90625C25.148438 19.574219 25 20.273438 25 21C25 22.039063 25.929688 25.152344 26.46875 26.0625L26.4375 26.125C26.792969 27.027344 27 27.992188 27 29C27 33.410156 23.410156 37 19 37C14.589844 37 11 33.410156 11 29C11 25.273438 13.546875 22.136719 17 21.25C16.996094 21.160156 17 21.085938 17 21C17 19.664063 17.1875 18.351563 17.5625 17.09375Z" />
</svg>