<?xml version="1.0" encoding="utf-8"?>
<svg xmlns="http://www.w3.org/2000/svg" viewBox="0 0 50 50" width="515" height="515">
  <path d="M15 5C8.879 5 4.7296406 7.0175156 4.5566406 7.1035156C4.2156406 7.2715156 4 7.62 4 8L4 11L3 11C1.346 11 0 12.346 0 14L0 40C0 41.654 1.346 43 3 43L22.779297 43C23.328297 43.61 24.115 44 25 44C25.885 44 26.671703 43.61 27.220703 43L47 43C48.654 43 50 41.654 50 40L50 14C50 12.346 48.654 11 47 11L46 11L46 8C46 7.62 45.784359 7.2715156 45.443359 7.1035156C45.270359 7.0175156 41.121 5 35 5C29.936 5 26.23 6.3782969 25 6.9042969C23.77 6.3782969 20.064 5 15 5 z M 15 7C19.395 7 22.73 8.14625 24 8.65625L24 37.509766C22.267 36.886766 19.084 36 15 36C10.916 36 7.733 36.886766 6 37.509766L6 8.65625C7.27 8.14625 10.605 7 15 7 z M 35 7C39.395 7 42.73 8.14625 44 8.65625L44 37.509766C42.267 36.886766 39.084 36 35 36C30.916 36 27.733 36.886766 26 37.509766L26 8.65625C27.27 8.14625 30.605 7 35 7 z M 34 11L34 13.085938C32.285589 13.362889 31.169784 14.321403 30.628906 15.279297C29.988564 16.413342 30 17.542969 30 17.542969C30 18.964265 30.714063 20.097044 31.619141 20.833984C32.524219 21.570925 33.597025 22.024695 34.595703 22.466797C35.594381 22.908899 36.516793 23.339719 37.111328 23.832031C37.705863 24.324343 38 24.77018 38 25.625C38 25.625 37.9916 26.210521 37.640625 26.802734C37.289684 27.394947 36.71875 28 35 28C33.333333 28 32.775274 27.31422 32.394531 26.552734C32.013788 25.791248 32 25 32 25L30 25C30 25 29.98621 26.208752 30.605469 27.447266C31.130176 28.496681 32.252207 29.59171 34 29.904297L34 32L36 32L36 29.917969C37.701972 29.654727 38.81166 28.746534 39.359375 27.822266C40.008434 26.726979 40 25.625 40 25.625C40 24.18832 39.294137 23.040797 38.388672 22.291016C37.483207 21.541234 36.405619 21.081945 35.404297 20.638672C34.402975 20.195399 33.475781 19.767606 32.880859 19.283203C32.285937 18.7988 32 18.371672 32 17.542969C32 17.542969 32.01144 16.898673 32.371094 16.261719C32.730752 15.624764 33.295167 15 35 15C36.666667 15 37.224726 15.68578 37.605469 16.447266C37.986212 17.208752 38 18 38 18L40 18C40 18 40.01379 16.791248 39.394531 15.552734C38.869824 14.503319 37.747793 13.40829 36 13.095703L36 11L34 11 z" />
</svg>