<?xml version="1.0" encoding="utf-8"?>
<svg xmlns="http://www.w3.org/2000/svg" viewBox="0 0 50 50" width="515" height="515">
  <path d="M40 0L40 10L50 10L50 0 Z M 33 5L33 11L29 11L29 13L33 13L33 19L39 19L39 17L35 17L35 7L39 7L39 5 Z M 18 7L18 17L28 17L28 7 Z M 13 11L13 24L11 24L11 26L13 26L13 39L17 39L17 37L15 37L15 13L17 13L17 11 Z M 40 14L40 24L50 24L50 14 Z M 0 18L0 32L10 32L10 18 Z M 40 26L40 36L50 36L50 26 Z M 33 31L33 37L29 37L29 39L33 39L33 45L39 45L39 43L35 43L35 33L39 33L39 31 Z M 18 33L18 43L28 43L28 33 Z M 40 40L40 50L50 50L50 40Z" />
</svg>