<?xml version="1.0" encoding="utf-8"?>
<svg xmlns="http://www.w3.org/2000/svg" viewBox="0 0 50 50" width="515" height="515">
  <path d="M37.824219 1.445313L26.5 17.671875L23.46875 19.691406L11.421875 24.03125C10.625 24.203125 9.589844 24.601563 8.585938 25.265625C8.125 25.449219 5.886719 26.351563 4.15625 28.34375C2.339844 30.4375 1.183594 33.898438 3.1875 38.453125L3.101563 38.0625L3.4375 38.0625C2.785156 39.191406 2.191406 39.839844 2.183594 39.851563L2.019531 40.101563L2.019531 44.8125C2.019531 46.09375 2.871094 48 5.21875 48L9 48L9 46.9375C8.933594 45.8125 8.636719 43.835938 7.082031 43.203125C7.316406 42.820313 8.085938 41.777344 10.203125 40.078125C12.480469 38.257813 13.839844 36.753906 14.4375 36C16.289063 36.179688 22.3125 36.699219 26.058594 36.910156L26.058594 44.8125L26.0625 44.921875C26.1875 45.988281 27.0625 48 29.511719 48L34.800781 48L34.652344 46.867188C34.5 45.730469 33.710938 43.730469 32 43.15625L32 35.828125L32.285156 35.609375C32.511719 35.382813 32.832031 35.125 33.207031 34.816406C33.902344 34.25 34.769531 33.542969 35.597656 32.65625C36.820313 31.355469 37.628906 30.027344 38.0625 28.597656C38.347656 27.699219 39.644531 20.894531 39.980469 18L44.78125 18C46.359375 18 47.898438 17.292969 48 15.730469C48 15.730469 48.003906 13.925781 48 13.894531L47.988281 13.292969L47.425781 13.070313C44.65625 11.976563 43.222656 11.410156 42.453125 11.113281C42.296875 9.039063 41.332031 8.375 38.941406 7.925781C38.652344 6.144531 38.246094 3.828125 38.246094 3.828125 Z M 5.320313 30.09375C5.234375 30.566406 5.179688 31.0625 5.179688 31.597656C5.179688 33.28125 4.84375 34.71875 4.410156 35.933594C3.671875 33.253906 4.300781 31.445313 5.320313 30.09375 Z M 15.289063 38.039063C14.480469 38.945313 13.222656 40.226563 11.453125 41.640625C10.875 42.105469 10.421875 42.5 10.058594 42.84375L10.058594 43.34375C10.539063 44.175781 10.902344 45.289063 10.996094 46.816406L11 46.878906L11 47.109375C11.507813 47.625 12.234375 48 13.261719 48L17 48L17 47.085938C17 47.085938 17.058594 45.011719 16.085938 43.855469C15.808594 43.550781 15.476563 43.324219 15.097656 43.183594C15.4375 42.582031 16.484375 40.914063 18.722656 38.355469C17.433594 38.242188 16.230469 38.128906 15.289063 38.039063Z" />
</svg>