<?xml version="1.0" encoding="utf-8"?>
<svg xmlns="http://www.w3.org/2000/svg" viewBox="0 0 50 50" width="515" height="515">
  <path d="M6 8C3.242188 8 1 10.242188 1 13L1 23L6.679688 23C7.039063 23.753906 7.539063 24.421875 8.132813 25L1 25L1 36C1 38.757813 3.242188 41 6 41L16 41L16 29.28125L17 28.296875L18 29.28125L18 41L44 41C46.757813 41 49 38.757813 49 36L49 25L25.871094 25C26.460938 24.421875 26.960938 23.753906 27.320313 23L49 23L49 13C49 10.242188 46.757813 8 44 8L18 8L18 13.6875C17.652344 13.851563 17.316406 14.042969 17 14.265625C16.683594 14.042969 16.347656 13.851563 16 13.6875L16 8 Z M 13 15C13.308594 15 13.605469 15.035156 13.894531 15.089844C13.957031 15.101563 14.019531 15.109375 14.078125 15.125C14.339844 15.183594 14.59375 15.261719 14.839844 15.359375C14.929688 15.394531 15.011719 15.4375 15.101563 15.480469C15.269531 15.558594 15.429688 15.644531 15.582031 15.738281C15.742188 15.839844 15.894531 15.945313 16.042969 16.0625C16.132813 16.128906 16.222656 16.203125 16.308594 16.277344C16.5625 16.503906 16.796875 16.753906 17 17.03125C17.203125 16.753906 17.4375 16.503906 17.691406 16.277344C17.777344 16.203125 17.867188 16.128906 17.957031 16.0625C18.105469 15.945313 18.253906 15.835938 18.417969 15.738281C18.570313 15.644531 18.734375 15.558594 18.898438 15.480469C18.988281 15.4375 19.070313 15.394531 19.160156 15.359375C19.40625 15.261719 19.660156 15.183594 19.921875 15.125C19.980469 15.109375 20.042969 15.101563 20.105469 15.089844C20.394531 15.035156 20.691406 15 21 15C23.757813 15 26 17.242188 26 20C26 22.757813 23.757813 25 21 25L19.355469 25L23.703125 29.285156L22.296875 30.714844L17 25.488281L11.703125 30.714844L10.296875 29.285156L14.644531 25L13 25C10.242188 25 8 22.757813 8 20C8 17.242188 10.242188 15 13 15 Z M 13 17C11.347656 17 10 18.347656 10 20C10 21.652344 11.347656 23 13 23L16 23L16 20C16 18.347656 14.652344 17 13 17 Z M 21 17C19.347656 17 18 18.347656 18 20L18 23L21 23C22.652344 23 24 21.652344 24 20C24 18.347656 22.652344 17 21 17 Z M 32 33C32.550781 33 33 33.449219 33 34C33 34.550781 32.550781 35 32 35C31.449219 35 31 34.550781 31 34C31 33.449219 31.449219 33 32 33 Z M 35 33C35.550781 33 36 33.449219 36 34C36 34.550781 35.550781 35 35 35C34.449219 35 34 34.550781 34 34C34 33.449219 34.449219 33 35 33 Z M 38 33C38.550781 33 39 33.449219 39 34C39 34.550781 38.550781 35 38 35C37.449219 35 37 34.550781 37 34C37 33.449219 37.449219 33 38 33 Z M 41 33C41.550781 33 42 33.449219 42 34C42 34.550781 41.550781 35 41 35C40.449219 35 40 34.550781 40 34C40 33.449219 40.449219 33 41 33Z" />
</svg>