<?xml version="1.0" encoding="utf-8"?>
<svg xmlns="http://www.w3.org/2000/svg" viewBox="0 0 50 50" width="515" height="515">
  <path d="M25 0C21.140625 0 18 3.140625 18 7C18 10.859375 21.140625 14 25 14C28.859375 14 32 10.859375 32 7C32 3.140625 28.859375 0 25 0 Z M 17.6875 3.78125C15.847656 4.839844 13.277344 7.066406 13 11.9375C12.984375 12.210938 13.09375 12.488281 13.28125 12.6875C13.46875 12.886719 13.726563 13 14 13L18 13C18.472656 13 18.863281 12.660156 18.96875 12.21875C17.753906 10.816406 17 8.996094 17 7C17 5.855469 17.25 4.769531 17.6875 3.78125 Z M 32.3125 3.78125C32.75 4.769531 33 5.855469 33 7C33 8.996094 32.246094 10.816406 31.03125 12.21875C31.132813 12.660156 31.523438 13 32 13L36 13C36.273438 13 36.53125 12.886719 36.71875 12.6875C36.90625 12.488281 37.015625 12.210938 37 11.9375C36.726563 7.066406 34.152344 4.839844 32.3125 3.78125 Z M 21.75 14.84375C19.023438 14.84375 16.570313 16.519531 15.625 19L11.03125 31.78125C11.027344 31.792969 11.003906 31.800781 11 31.8125C10.742188 32.390625 10.761719 33.070313 11.03125 33.65625C11.304688 34.253906 11.808594 34.6875 12.4375 34.875C12.695313 34.953125 12.964844 35 13.21875 35C14.082031 35 14.847656 34.5625 15.28125 33.78125C15.289063 33.769531 15.304688 33.761719 15.3125 33.75C15.34375 33.714844 15.375 33.667969 15.40625 33.625C15.429688 33.59375 15.449219 33.570313 15.46875 33.53125C15.496094 33.480469 15.511719 33.425781 15.53125 33.375L19.1875 23.71875C19.226563 23.480469 19.4375 23.3125 19.6875 23.3125C19.964844 23.3125 20.1875 23.535156 20.1875 23.8125C20.1875 23.871094 20.171875 23.917969 20.15625 23.96875L15.71875 35.65625C15.601563 35.964844 15.625 36.289063 15.8125 36.5625C16.003906 36.832031 16.328125 37 16.65625 37L32.375 37C32.703125 37 33 36.835938 33.1875 36.5625C33.375 36.289063 33.429688 35.933594 33.3125 35.625L28.875 23.96875C28.855469 23.917969 28.84375 23.839844 28.84375 23.78125C28.84375 23.503906 29.066406 23.28125 29.34375 23.28125C29.59375 23.28125 29.773438 23.480469 29.8125 23.71875C29.816406 23.71875 29.84375 23.71875 29.84375 23.71875L33.5 33.375C33.519531 33.425781 33.535156 33.484375 33.5625 33.53125C33.582031 33.566406 33.601563 33.59375 33.625 33.625C33.65625 33.667969 33.6875 33.714844 33.71875 33.75C33.726563 33.761719 33.710938 33.769531 33.71875 33.78125C34.152344 34.558594 34.949219 35 35.8125 35C36.066406 35 36.335938 34.953125 36.59375 34.875C37.222656 34.6875 37.726563 34.253906 38 33.65625C38.269531 33.070313 38.289063 32.390625 38.03125 31.8125C38.027344 31.804688 38.003906 31.820313 38 31.8125C37.996094 31.800781 38.003906 31.792969 38 31.78125L33.40625 19C32.464844 16.519531 30.007813 14.84375 27.28125 14.84375 Z M 20 38L20 48C20 49.101563 20.898438 50 22 50C23.101563 50 24 49.101563 24 48L24 38 Z M 25 38L25 48C25 49.101563 25.898438 50 27 50C28.101563 50 29 49.101563 29 48L29 38Z" />
</svg>