<?xml version="1.0" encoding="utf-8"?>
<svg xmlns="http://www.w3.org/2000/svg" viewBox="0 0 50 50" width="515" height="515">
  <path d="M16 4C11.59375 4 8 7.59375 8 12C8 16.40625 11.59375 20 16 20C20.40625 20 24 16.40625 24 12C24 7.59375 20.40625 4 16 4 Z M 30.921875 10.285156C30.71875 10.296875 30.519531 10.324219 30.324219 10.367188C29.542969 10.535156 28.847656 10.929688 28.328125 11.449219C27.285156 12.492188 26.75 13.988281 27.097656 15.421875C27.238281 15.984375 27.550781 16.496094 28.003906 16.921875C28 16.945313 28 16.972656 28 17L28 27C28 27.40625 28.246094 27.773438 28.625 27.925781L26.726563 29.722656L23.390625 26.390625C23.363281 26.238281 23.304688 26.09375 23.21875 25.96875C21.496094 23.566406 18.675781 22 15.5 22C10.617188 22 6.664063 25.738281 6.144531 30.484375C6.050781 30.640625 6 30.816406 6 31L6 47C6 47.550781 6.449219 48 7 48L24 48C24.550781 48 25 47.550781 25 47L25 42C25 41.734375 24.894531 41.480469 24.707031 41.292969L15.707031 32.292969C15.660156 32.246094 15.605469 32.167969 15.550781 32.09375C15.339844 31.78125 15.359375 31.359375 15.636719 31.082031C15.945313 30.773438 16.441406 30.773438 16.753906 31.074219L16.761719 31.066406C16.777344 31.085938 16.789063 31.105469 16.808594 31.121094L23.875 38.191406C25.429688 39.746094 27.980469 39.746094 29.535156 38.191406L35.171875 32.558594C35.757813 32.757813 36.332031 33 37 33C39.960938 33 42.429688 30.828125 42.90625 28L45 28C45.550781 28 46 27.550781 46 27L46 17C46 16.9375 45.992188 16.871094 45.980469 16.808594C46.347656 16.449219 46.625 16.03125 46.789063 15.578125C47.273438 14.210938 46.929688 12.707031 45.984375 11.644531C45.515625 11.117188 44.855469 10.726563 44.101563 10.558594C43.347656 10.386719 42.492188 10.441406 41.636719 10.800781C40.140625 11.433594 38.621094 12.847656 37.0625 15.34375C35.738281 12.773438 34.316406 11.296875 32.828125 10.636719C32.183594 10.351563 31.535156 10.25 30.921875 10.285156 Z M 31 12.242188C31.300781 12.230469 31.636719 12.296875 32.015625 12.464844C32.828125 12.824219 33.90625 14.054688 35.003906 16L31.011719 16C29.515625 16 29.1875 15.53125 29.042969 14.945313C28.898438 14.359375 29.171875 13.433594 29.742188 12.863281C30.027344 12.578125 30.34375 12.367188 30.714844 12.28125C30.804688 12.261719 30.902344 12.246094 31 12.242188 Z M 43.421875 12.421875C43.511719 12.421875 43.601563 12.433594 43.683594 12.453125C44.015625 12.527344 44.269531 12.722656 44.492188 12.972656C44.941406 13.476563 45.113281 14.316406 44.90625 14.90625C44.695313 15.496094 44.246094 16 42.808594 16L39.167969 16C40.417969 14.183594 41.582031 12.996094 42.414063 12.644531C42.8125 12.476563 43.140625 12.410156 43.421875 12.421875 Z M 30 18L36 18L36 26L30 26 Z M 38 18L44 18L44 26L38 26Z" />
</svg>