<?xml version="1.0" encoding="utf-8"?>
<svg xmlns="http://www.w3.org/2000/svg" viewBox="0 0 50 50" width="515" height="515">
  <path d="M16 4C11.59375 4 8 7.59375 8 12C8 16.40625 11.59375 20 16 20C20.40625 20 24 16.40625 24 12C24 7.59375 20.40625 4 16 4 Z M 29 16C28.449219 16 28 16.449219 28 17L28 27C28 27.40625 28.246094 27.773438 28.625 27.925781L26.726563 29.722656L23.390625 26.390625C23.363281 26.238281 23.304688 26.09375 23.21875 25.96875C21.496094 23.566406 18.675781 22 15.5 22C10.617188 22 6.664063 25.738281 6.144531 30.484375C6.050781 30.640625 6 30.816406 6 31L6 47C6 47.550781 6.449219 48 7 48L24 48C24.550781 48 25 47.550781 25 47L25 42C25 41.734375 24.894531 41.480469 24.707031 41.292969L15.707031 32.292969C15.652344 32.238281 15.59375 32.15625 15.53125 32.066406C15.511719 32.035156 15.484375 32.003906 15.46875 31.964844C15.464844 31.960938 15.460938 31.957031 15.457031 31.953125C15.421875 31.859375 15.398438 31.757813 15.398438 31.652344C15.398438 31.207031 15.757813 30.847656 16.203125 30.847656C16.417969 30.847656 16.609375 30.9375 16.753906 31.074219L16.761719 31.066406C16.777344 31.082031 16.789063 31.105469 16.808594 31.121094L23.875 38.191406C25.429688 39.746094 27.980469 39.746094 29.535156 38.191406L35.171875 32.558594C35.757813 32.757813 36.332031 33 37 33C39.960938 33 42.429688 30.828125 42.90625 28L45 28C45.550781 28 46 27.550781 46 27L46 17C46 16.449219 45.550781 16 45 16 Z M 30 18L44 18L44 26L30 26Z" />
</svg>