<?xml version="1.0" encoding="utf-8"?>
<svg xmlns="http://www.w3.org/2000/svg" viewBox="0 0 50 50" width="515" height="515">
  <path d="M10.5 9C9.472656 9 8.8125 9.75 8.0625 10.96875C7.253906 12.285156 0.824219 26.480469 0.09375 28.09375C0.046875 28.199219 0.0429688 28.300781 0.03125 28.40625C0.0273438 28.460938 -0.00390625 28.507813 0 28.5625C-0.00390625 28.605469 0 28.652344 0 28.6875C0 29.613281 0.78125 29.992188 1.15625 30.15625C1.648438 30.378906 2 30.511719 2 31.6875C2 36.667969 5 42 13.40625 42C19.777344 42 23 38.300781 23 31L23 28.53125C23.402344 28.304688 24.117188 28 25 28C25.886719 28 26.597656 28.304688 27 28.53125L27 31C27 38.300781 30.222656 42 36.59375 42C45 42 48 36.742188 48 31.8125C48 30.582031 48.359375 30.417969 48.84375 30.21875C49.191406 30.074219 50 29.757813 50 28.8125C50 28.75 49.976563 28.667969 49.96875 28.59375C49.988281 28.421875 49.984375 28.261719 49.90625 28.09375C49.175781 26.480469 42.75 12.285156 41.9375 10.96875C41.1875 9.75 40.527344 9 39.5 9C38.535156 9 37.902344 9.703125 37.15625 10.875C36.578125 11.839844 36.164063 12.425781 36.15625 12.4375C35.847656 12.898438 35.976563 13.539063 36.4375 13.84375C36.894531 14.152344 37.535156 14.019531 37.84375 13.5625C37.84375 13.5625 38.242188 12.941406 38.84375 11.9375C39.203125 11.371094 39.425781 11.125 39.53125 11.03125C39.636719 11.125 39.855469 11.390625 40.25 12.03125C40.757813 12.851563 44.332031 20.625 47.125 26.78125C45.175781 26.332031 41.914063 26 36.40625 26C34.300781 26 32.117188 26.347656 30.1875 26.65625C29.515625 26.765625 28.855469 26.886719 28.25 26.96875C27.679688 26.605469 26.515625 26 25 26C23.484375 26 22.320313 26.605469 21.75 26.96875C21.144531 26.886719 20.484375 26.765625 19.8125 26.65625C17.882813 26.347656 15.699219 26 13.59375 26C8.082031 26 4.824219 26.339844 2.875 26.78125C5.667969 20.625 9.246094 12.851563 9.75 12.03125C10.160156 11.359375 10.390625 11.109375 10.46875 11.03125C10.570313 11.121094 10.796875 11.34375 11.15625 11.90625C11.769531 12.929688 12.15625 13.5625 12.15625 13.5625C12.460938 14.019531 13.101563 14.148438 13.5625 13.84375C14.023438 13.539063 14.148438 12.898438 13.84375 12.4375C13.835938 12.425781 13.4375 11.863281 12.84375 10.875C12.109375 9.726563 11.464844 9 10.5 9Z" />
</svg>