<?xml version="1.0" encoding="utf-8"?>
<svg xmlns="http://www.w3.org/2000/svg" viewBox="0 0 50 50" width="515" height="515">
  <path d="M20 12C19.582031 12 19.210938 12.265625 19.0625 12.65625L17 19L33 19L30.9375 12.65625C30.789063 12.265625 30.417969 12 30 12 Z M 11.3125 21C10.914063 21 10.5625 21.226563 10.40625 21.59375L8 28L25 28L22.53125 21.59375C22.375 21.226563 22.023438 21 21.625 21 Z M 28.3125 21C27.914063 21 27.5625 21.226563 27.40625 21.59375L26.0625 25.1875L26.875 27.28125L27.15625 28L42 28L39.59375 21.59375C39.4375 21.226563 39.085938 21 38.6875 21 Z M 3.3125 30C2.894531 30 2.523438 30.203125 2.375 30.59375L0 37L16.625 37L14.25 30.59375C14.101563 30.203125 13.730469 30 13.3125 30 Z M 20 30C19.582031 30 19.210938 30.265625 19.0625 30.65625L17.71875 34.1875L18.5 36.3125L18.78125 37L33.3125 37L30.9375 30.65625C30.792969 30.265625 30.417969 30 30 30 Z M 36.6875 30C36.269531 30 35.898438 30.203125 35.75 30.59375L34.40625 34.1875L35.1875 36.3125L35.46875 37L50 37L47.625 30.59375C47.480469 30.203125 47.105469 30 46.6875 30Z" />
</svg>