<?xml version="1.0" encoding="utf-8"?>
<svg xmlns="http://www.w3.org/2000/svg" viewBox="0 0 50 50" width="515" height="515">
  <path d="M29.992188 5.9824219C25.852127 5.9552181 20.947689 7.3250697 15.763672 11.931641L14.142578 10.34375C13.751578 9.96075 13.124328 9.9636094 12.736328 10.349609L10.292969 12.779297C9.9029687 13.167297 9.8981562 13.799406 10.285156 14.191406L11.957031 15.882812C5.4971063 23.558175 5.1777726 30.427751 7.0664062 35.357422 A 1.0001 1.0001 0 0 0 9 35C9 30.954504 11.36092 26.598979 13.792969 23.298828C14.671495 22.106719 15.506754 21.125595 16.269531 20.269531L38.097656 42.976562C38.729656 43.629563 39.582094 43.993 40.496094 44L40.523438 44C41.447438 44 42.316516 43.636563 42.978516 42.976562C43.645516 42.309562 44.009953 41.428141 44.001953 40.494141C43.994953 39.580141 43.628656 38.729703 42.972656 38.095703L20.244141 16.306641C21.176792 15.498252 22.496724 14.431297 24.099609 13.351562C27.368535 11.149548 31.725176 9 35.964844 9 A 1.0001 1.0001 0 0 0 36.273438 7.0488281C34.9784 6.6281999 33.502225 6.2634768 31.878906 6.0898438C31.270162 6.0247313 30.64026 5.9866803 29.992188 5.9824219 z M 30.240234 8.0664062C27.537407 8.9730473 25.033901 10.309491 22.982422 11.691406C20.819718 13.148245 19.201547 14.541686 18.232422 15.427734C18.172037 15.465242 18.107654 15.493328 18.054688 15.544922L15.498047 18.03125C15.39394 18.13245 15.321842 18.25209 15.271484 18.378906C14.386015 19.340885 13.306119 20.585476 12.181641 22.111328C10.653026 24.185571 9.1702037 26.697599 8.1679688 29.388672C8.2422908 25.293407 10.011824 20.411705 15.685547 14.751953 A 1.0001 1.0001 0 0 0 15.701172 14.734375C21.273438 9.1566386 26.1385 7.9045633 30.240234 8.0664062 z" />
</svg>