<?xml version="1.0" encoding="utf-8"?>
<svg xmlns="http://www.w3.org/2000/svg" viewBox="0 0 50 50" width="515" height="515">
  <path d="M11 0C10.640625 0 10.300781 0.1875 10.125 0.5C9.945313 0.8125 9.96875 1.191406 10.15625 1.5L17.65625 14.0625L23.84375 3.78125L21.84375 0.5C21.664063 0.199219 21.351563 0 21 0 Z M 29 0C28.648438 0 28.335938 0.199219 28.15625 0.5L25 5.75L20.65625 13L20.625 13L18 17L18 19.625C12.679688 22.226563 9 27.6875 9 34C9 42.820313 16.179688 50 25 50C33.820313 50 41 42.820313 41 34C41 27.6875 37.320313 22.226563 32 19.625L32 15.6875C32.007813 15.433594 31.917969 15.1875 31.75 15L39.84375 1.5C40.03125 1.191406 40.054688 0.8125 39.875 0.5C39.695313 0.1875 39.359375 0 39 0 Z M 20 17L30 17L30 18.8125C28.425781 18.292969 26.75 18 25 18C23.25 18 21.574219 18.292969 20 18.8125 Z M 25 22C31.617188 22 37 27.382813 37 34C37 40.617188 31.617188 46 25 46C18.382813 46 13 40.617188 13 34C13 27.382813 18.382813 22 25 22 Z M 25 24C19.484375 24 15 28.484375 15 34C15 39.515625 19.484375 44 25 44C30.515625 44 35 39.515625 35 34C35 28.484375 30.515625 24 25 24 Z M 22 29L28 29L28 31L26 31L26 38L28 38L28 40L22 40L22 38L24 38L24 31L22 31Z" />
</svg>