<?xml version="1.0" encoding="utf-8"?>
<svg xmlns="http://www.w3.org/2000/svg" viewBox="0 0 50 50" width="515" height="515">
  <path d="M25 2C15.625 2 8 9.625 8 19C8 25.488281 11.671875 31.136719 17.03125 34L32.96875 34C38.328125 31.136719 42 25.488281 42 19C42 9.625 34.375 2 25 2 Z M 35 19C35.550781 19 36 19.449219 36 20C36 20.550781 35.550781 21 35 21C34.449219 21 34 20.550781 34 20C34 19.449219 34.449219 19 35 19 Z M 32 22C32.550781 22 33 22.449219 33 23C33 23.550781 32.550781 24 32 24C31.449219 24 31 23.550781 31 23C31 22.449219 31.449219 22 32 22 Z M 36 23C36.550781 23 37 23.449219 37 24C37 24.550781 36.550781 25 36 25C35.449219 25 35 24.550781 35 24C35 23.449219 35.449219 23 36 23 Z M 29 25C29.550781 25 30 25.449219 30 26C30 26.550781 29.550781 27 29 27C28.449219 27 28 26.550781 28 26C28 25.449219 28.449219 25 29 25 Z M 33 26C33.550781 26 34 26.449219 34 27C34 27.550781 33.550781 28 33 28C32.449219 28 32 27.550781 32 27C32 26.449219 32.449219 26 33 26 Z M 26 28C26.550781 28 27 28.449219 27 29C27 29.550781 26.550781 30 26 30C25.449219 30 25 29.550781 25 29C25 28.449219 25.449219 28 26 28 Z M 30 29C30.550781 29 31 29.449219 31 30C31 30.550781 30.550781 31 30 31C29.449219 31 29 30.550781 29 30C29 29.449219 29.449219 29 30 29 Z M 17 36C16.449219 36 16 36.445313 16 37C16 37.429688 16.277344 37.800781 16.6875 37.9375C19.867188 39 23 41.960938 23 45.3125L23 46L9.5 46C9.46875 46 9.4375 46 9.40625 46C8.855469 46.027344 8.425781 46.496094 8.453125 47.046875C8.480469 47.597656 8.949219 48.027344 9.5 48L40.5 48C40.859375 48.003906 41.195313 47.816406 41.378906 47.503906C41.558594 47.191406 41.558594 46.808594 41.378906 46.496094C41.195313 46.183594 40.859375 45.996094 40.5 46L27 46L27 45.3125C27 41.960938 30.132813 39 33.3125 37.9375C33.722656 37.800781 34 37.429688 34 37C34 36.445313 33.554688 36 33 36Z" />
</svg>