<?xml version="1.0" encoding="utf-8"?>
<svg xmlns="http://www.w3.org/2000/svg" viewBox="0 0 50 50" width="515" height="515">
  <path d="M12 1C10.839844 1 10 1.839844 10 3L10 47C10 48.160156 10.839844 49 12 49L38 49C39.160156 49 40 48.160156 40 47L40 3C40 1.839844 39.160156 1 38 1 Z M 15 6L35 6L35 28L15 28 Z M 25 30C26.105469 30 27 30.894531 27 32C27 33.105469 26.105469 34 25 34C23.894531 34 23 33.105469 23 32C23 30.894531 23.894531 30 25 30 Z M 18 36L20 36L20 39L15 39C15 37.300781 16.300781 36 18 36 Z M 22 36L28 36L28 39L22 39 Z M 30 36L32 36C33.699219 36 35 37.300781 35 39L30 39 Z M 15 41L20 41L20 44L18 44C16.300781 44 15 42.699219 15 41 Z M 22 41L28 41L28 44L22 44 Z M 30 41L35 41C35 42.699219 33.699219 44 32 44L30 44Z" />
</svg>