<?xml version="1.0" encoding="utf-8"?>
<svg xmlns="http://www.w3.org/2000/svg" viewBox="0 0 50 50" width="515" height="515">
  <path d="M13 3.9980469C12.79 3.9980469 12.580391 4.0642188 12.400391 4.1992188L9 6.75L5.5996094 4.1992188C5.2996094 3.9692188 4.8907812 3.939375 4.5507812 4.109375C4.2107813 4.279375 4 4.62 4 5L4 43.089844C4 44.699844 5.2603125 46 6.8203125 46L35 46C35.27 46 35.520938 45.890938 35.710938 45.710938L45.710938 35.710938C45.890937 35.520938 46 35.27 46 35L46 5C46 4.62 45.789219 4.279375 45.449219 4.109375C45.109219 3.939375 44.700391 3.9692188 44.400391 4.1992188L41 6.75L37.599609 4.1992188C37.239609 3.9292187 36.760391 3.9292188 36.400391 4.1992188L33 6.75L29.599609 4.1992188C29.239609 3.9292187 28.760391 3.9292188 28.400391 4.1992188L25 6.75L21.599609 4.1992188C21.239609 3.9292187 20.760391 3.9292188 20.400391 4.1992188L17 6.75L13.599609 4.1992188C13.419609 4.0642188 13.21 3.9980469 13 3.9980469 z M 9 12L41 12L41 16L9 16L9 12 z M 9 21L22 21L22 33L9 33L9 21 z M 26 21L41 21L41 23L26 23L26 21 z M 13.199219 24L12 25.199219L12 28.699219L13.199219 29.800781L17.800781 29.800781L19 28.699219L19 27.5L19 26.300781L17.800781 26.300781L16.699219 26.300781L15.5 27.5L17.800781 27.5L17.800781 28.699219L14.300781 28.699219L13.199219 28.699219L13.199219 25.199219L13.199219 24 z M 13.199219 25.199219L14.300781 25.199219L14.300781 28.699219L15.5 27.5L15.5 25.199219L19 25.199219L17.800781 24L14.300781 24L13.199219 25.199219 z M 26 25L41 25L41 27L26 27L26 25 z M 26 29L41 29L41 31L26 31L26 29 z M 26 33L32 33L32 35L26 35L26 33 z M 35 35L43.589844 35L35 43.589844L35 35 z M 9 37L22 37L22 39L9 39L9 37 z M 26 37L32 37L32 39L26 39L26 37 z" />
</svg>