<?xml version="1.0" encoding="utf-8"?>
<svg xmlns="http://www.w3.org/2000/svg" viewBox="0 0 50 50" width="515" height="515">
  <path d="M25,2C12.317,2,2,12.317,2,25s10.317,23,23,23s23-10.317,23-23S37.683,2,25,2z M20,35c-5.514,0-10-4.486-10-10 s4.486-10,10-10c1.989,0,3.911,0.583,5.559,1.686c0.388,0.26,0.762,0.551,1.11,0.863l-1.336,1.488 c-0.278-0.25-0.577-0.481-0.888-0.689C23.129,17.466,21.592,17,20,17c-4.411,0-8,3.589-8,8s3.589,8,8,8s8-3.589,8-8h-7v-2h8.841 l0.099,0.891C29.979,24.255,30,24.625,30,25C30,30.514,25.514,35,20,35z M41,25h-3v3h-2v-3h-3v-2h3v-3h2v3h3V25z" />
</svg>