<?xml version="1.0" encoding="utf-8"?>
<svg xmlns="http://www.w3.org/2000/svg" viewBox="0 0 50 50" width="515" height="515">
  <path d="M35 3C32.794 3 31 4.794 31 7L31 17L21 17C18.802666 17 17 18.802666 17 21L17 31L7 31C4.8026661 31 3 32.802666 3 35L3 43C3 45.197334 4.8026661 47 7 47L31 47L32 47L43 47C45.206 47 47 45.206 47 43L47 7C47 4.794 45.206 3 43 3L35 3 z M 21 19L31 19L31 45L7 45C5.8833339 45 5 44.116666 5 43L5 35C5 33.883334 5.8833339 33 7 33L18 33 A 1.0001 1.0001 0 0 0 19 32L19 21C19 19.883334 19.883334 19 21 19 z" />
</svg>