<?xml version="1.0" encoding="utf-8"?>
<svg xmlns="http://www.w3.org/2000/svg" viewBox="0 0 50 50" width="515" height="515">
  <path d="M5 2C3.347656 2 2 3.347656 2 5L2 35C2 36.652344 3.347656 38 5 38L45 38C46.652344 38 48 36.652344 48 35L48 5C48 3.347656 46.652344 2 45 2 Z M 7 7L43 7L43 33L7 33 Z M 19.28125 11.28125L11.28125 19.28125L10.59375 20L11.28125 20.71875L19.28125 28.71875L20.71875 27.28125L13.4375 20L20.71875 12.71875 Z M 30.71875 11.28125L29.28125 12.71875L36.5625 20L29.28125 27.28125L30.71875 28.71875L38.71875 20.71875L39.40625 20L38.71875 19.28125 Z M 20 39L20 43L30 43L30 39 Z M 10 40C9.703125 40 9.410156 40.117188 9.21875 40.34375L4.21875 46.34375C3.96875 46.644531 3.929688 47.085938 4.09375 47.4375C4.257813 47.789063 4.613281 48 5 48L45 48C45.386719 48 45.742188 47.789063 45.90625 47.4375C46.070313 47.085938 46.027344 46.644531 45.78125 46.34375L40.78125 40.34375C40.589844 40.117188 40.296875 40 40 40L32 40L32 45L18 45L18 40Z" />
</svg>