<?xml version="1.0" encoding="utf-8"?>
<svg xmlns="http://www.w3.org/2000/svg" viewBox="0 0 50 50" width="515" height="515">
  <path d="M41.707031 13.792969L30.207031 2.292969C30.019531 2.105469 29.765625 2 29.5 2L11.492188 2C9.566406 2 8 3.5625 8 5.480469L8 43.902344C8 46.160156 9.84375 48 12.113281 48L37.886719 48C40.15625 48 42 46.160156 42 43.902344L42 14.5C42 14.234375 41.894531 13.980469 41.707031 13.792969 Z M 26 38L17 38L17 36L26 36 Z M 33 34L17 34L17 32L33 32 Z M 33 30L17 30L17 28L33 28 Z M 33 26L17 26L17 24L33 24 Z M 31.667969 14C30.746094 14 30 13.253906 30 12.332031L30 4.914063L39.085938 14Z" />
</svg>