<?xml version="1.0" encoding="utf-8"?>
<svg xmlns="http://www.w3.org/2000/svg" viewBox="0 0 50 50" width="515" height="515">
  <path d="M41.707031 13.792969L30.207031 2.292969C30.019531 2.105469 29.765625 2 29.5 2L11.492188 2C9.566406 2 8 3.5625 8 5.480469L8 43.902344C8 46.160156 9.84375 48 12.113281 48L37.886719 48C40.15625 48 42 46.160156 42 43.902344L42 14.5C42 14.234375 41.894531 13.980469 41.707031 13.792969 Z M 17 37C16.449219 37 16 36.550781 16 36C16 35.449219 16.449219 35 17 35C17.550781 35 18 35.449219 18 36C18 36.550781 17.550781 37 17 37 Z M 17 32C16.449219 32 16 31.550781 16 31C16 30.449219 16.449219 30 17 30C17.550781 30 18 30.449219 18 31C18 31.550781 17.550781 32 17 32 Z M 17 27C16.449219 27 16 26.550781 16 26C16 25.449219 16.449219 25 17 25C17.550781 25 18 25.449219 18 26C18 26.550781 17.550781 27 17 27 Z M 33 37L21 37L21 35L33 35 Z M 33 32L21 32L21 30L33 30 Z M 33 27L21 27L21 25L33 25 Z M 31.667969 14C30.746094 14 30 13.253906 30 12.332031L30 4.914063L39.085938 14Z" />
</svg>