<?xml version="1.0" encoding="utf-8"?>
<svg xmlns="http://www.w3.org/2000/svg" viewBox="0 0 50 50" width="515" height="515">
  <path d="M39.8125 2C37.878906 2 36.207031 3.085938 35.3125 4.65625C36.859375 4.996094 38.425781 5.59375 40.03125 6.46875C41.871094 7.472656 43.273438 8.585938 44.3125 9.78125C44.753906 9.007813 45 8.121094 45 7.1875C45 4.320313 42.679688 2 39.8125 2 Z M 32.1875 6.3125C26.082031 6.460938 22.210938 11.957031 19.65625 15.59375C18.617188 17.074219 17.726563 18.363281 17 18.90625C16.082031 19.578125 14.382813 19.738281 12.5625 19.9375C10.160156 20.199219 7.3125 20.53125 5.625 22.25C6.265625 22.097656 7.015625 22 7.90625 22C12.324219 22 17.804688 22.460938 27.1875 27.84375C35.054688 32.324219 41.488281 38.683594 43.03125 43.46875C43.617188 41.554688 43.105469 39.183594 40.75 35.28125C39.6875 33.519531 40.984375 30.335938 42.34375 26.96875C44.84375 20.773438 47.9375 13.066406 39.0625 8.21875C36.488281 6.820313 34.222656 6.261719 32.1875 6.3125 Z M 7.90625 24C6.050781 24 4.738281 24.472656 4.25 25.3125L4.15625 25.25C2.996094 29.671875 9.558594 36.335938 17.28125 41.09375C18.183594 44.523438 21.246094 47 25 47C26.132813 47 27.1875 46.78125 28.15625 46.375C31.367188 47.449219 34.164063 48 36.40625 48C38.414063 48 39.984375 47.523438 41 46.625C41.074219 46.542969 41.132813 46.4375 41.1875 46.34375C41.515625 45.773438 41.378906 44.960938 41.21875 44.375C40.238281 40.792969 34.664063 34.371094 26.21875 29.5625C17.261719 24.421875 12.257813 24 7.90625 24 Z M 25 33C28.363281 33 31 35.636719 31 39C31 42.363281 28.363281 45 25 45C21.636719 45 19 42.363281 19 39C19 35.636719 21.636719 33 25 33Z" />
</svg>