<?xml version="1.0" encoding="utf-8"?>
<svg xmlns="http://www.w3.org/2000/svg" viewBox="0 0 50 50" width="515" height="515">
  <path d="M46.59375 0.09375L46.28125 0.28125L44.1875 2.40625L43.90625 3.25L44.40625 3.96875L45.3125 4L45.59375 3.8125L47.71875 1.71875L48 0.84375L47.46875 0.125 Z M 41.65625 5.03125L41.375 5.21875L39.25 7.34375L38.96875 8.1875L39.46875 8.9375L40.375 8.96875L40.65625 8.75L42.78125 6.625L43.0625 5.78125L42.5625 5.0625 Z M 8.8125 9.6875C8.511719 9.65625 8.28125 9.808594 8.09375 10C3.148438 15.078125 -0.820313 27.082031 9.59375 37.6875C13.65625 41.832031 18.625 44.03125 23.96875 44.03125C29.648438 44.03125 34.597656 41.621094 37 39.21875C37.390625 38.828125 37.386719 38.203125 37 37.8125L9.5 10C9.3125 9.808594 9.078125 9.6875 8.8125 9.6875 Z M 36.71875 9.96875L36.40625 10.15625L34.28125 12.28125L34 13.15625L34.53125 13.875L35.40625 13.90625L35.71875 13.71875L37.84375 11.59375L38.125 10.75L37.59375 10 Z M 29.5 15C27.628906 15 26.128906 16.46875 26.03125 18.3125C25.945313 18.308594 25.835938 18.324219 25.75 18.34375L21.5625 19.34375L27.6875 25.53125L28.625 21.875C28.902344 21.945313 29.199219 22 29.5 22C31.433594 22 33 20.433594 33 18.5C33 16.566406 31.433594 15 29.5 15 Z M 7.8125 38.71875L4.5625 42L11.5625 42C10.378906 41.160156 9.230469 40.1875 8.15625 39.09375C8.03125 38.964844 7.933594 38.847656 7.8125 38.71875 Z M 1 44C0.449219 44 0 44.445313 0 45L0 49C0 49.554688 0.449219 50 1 50L17 50C17.550781 50 18 49.554688 18 49L18 45.15625C16.96875 44.851563 15.949219 44.464844 14.96875 44Z" />
</svg>