<?xml version="1.0" encoding="utf-8"?>
<svg xmlns="http://www.w3.org/2000/svg" viewBox="0 0 50 50" width="515" height="515">
  <path d="M8.8007812 9.6992188C8.4997813 9.6672187 8.2700313 9.8089531 8.0820312 10.001953C3.1370312 15.081953 -0.8280625 27.093219 9.5859375 37.699219C13.646937 41.842219 18.617938 44.03125 23.960938 44.03125C29.639938 44.03125 34.604812 41.609031 37.007812 39.207031C37.396813 38.818031 37.398719 38.187875 37.011719 37.796875L9.5117188 9.9960938C9.3237187 9.8060937 9.0677812 9.6992188 8.8007812 9.6992188 z M 29.5 15 A 3.5 3.5 0 0 0 26.005859 18.398438L21.673828 19.447266L28.269531 26.115234L29.308594 21.992188 A 3.5 3.5 0 0 0 29.5 22 A 3.5 3.5 0 1 0 29.5 15 z M 7.7988281 38.716797L4.5566406 42L11.548828 42C10.365828 41.158 9.2312031 40.195563 8.1582031 39.101562C8.0332031 38.973562 7.9198281 38.844797 7.7988281 38.716797 z M 1 44C0.448 44 0 44.447 0 45L0 49C0 49.553 0.448 50 1 50L17 50C17.552 50 18 49.553 18 49L18 45C18 44.447 17.552 44 17 44L1 44 z" />
</svg>