<?xml version="1.0" encoding="utf-8"?>
<svg xmlns="http://www.w3.org/2000/svg" viewBox="0 0 50 50" width="515" height="515">
  <path d="M24.998047 1.9707031C24.494672 1.9719531 23.98825 2.1041406 23.53125 2.3691406C2.03625 15.442141 2.039 15.928563 2 16.601562C2 17.364876 2.5223788 17.85982 3.9726562 18.892578 A 1.0331033 1.0331033 0 0 0 3.9667969 19C3.9667969 21.969779 3.9774639 26.845768 3.9804688 28.28125 A 2 2 0 0 0 3 30 A 2 2 0 0 0 3.1191406 30.673828C2.4416497 31.218386 2 32.039571 2 32.96875C2 34.65275 3.8380312 37.130375 4.2070312 37.609375C4.3960313 37.855375 4.667 37.999 5 38C5.308 38 5.5971094 37.857234 5.7871094 37.615234C6.1561094 37.144234 8 34.70175 8 32.96875C8 32.039571 7.5583503 31.218386 6.8808594 30.673828 A 2 2 0 0 0 7 30 A 2 2 0 0 0 6.046875 28.298828C6.0443338 27.085596 6.0377395 23.474474 6.0351562 20.337891C7.3161548 21.237689 8.8595243 22.345901 11 24L11 18C11 18 16.292 15 25 15C33.708 15 39 18 39 18L39 24C45.84 18.76 48 18.166609 48 16.599609C47.96 15.927609 47.963219 15.442375 26.449219 2.359375C26.002719 2.099375 25.501422 1.9694531 24.998047 1.9707031 z M 25 17C19.043 17 14.827 18.471812 13 19.257812L13 24.412109C15.308 23.823109 19.511 23 25 23C30.492 23 34.692 23.822109 37 24.412109L37 19.263672C35.161 18.478672 30.91 17 25 17 z M 42.400391 23.945312L39 26.988281L36.505859 26.351562C35.446859 26.080562 34.072266 25.790875 32.447266 25.546875C33.639266 27.508875 35.705078 29 35.705078 29C35.705078 29 38 28.551094 38 31.621094C38 33.213094 36.859297 34.505063 35.404297 34.664062C33.990297 38.563063 31.610875 42.393266 28.921875 44.447266C28.830875 44.484266 28.736484 44.517641 28.646484 44.556641L28.677734 44.628906C27.933734 45.162906 27.169484 45.565109 26.396484 45.787109C26.260484 45.828109 26.121375 45.857719 25.984375 45.886719C25.899375 45.903719 25.815469 45.926453 25.730469 45.939453C25.489469 45.976453 25.247906 46 25.003906 46C24.019906 46 23.070437 45.689891 22.148438 45.087891C19.136437 43.275891 16.175563 39.009016 14.601562 34.666016C13.143563 34.510016 12 33.215094 12 31.621094C12 28.661094 14.25 29 14.25 29C19.955 28.97 23.663953 27.093766 25.501953 25.009766C25.331953 25.007766 25.172 25 25 25C19.862 25 15.907141 25.733609 13.494141 26.349609L11 26.986328L7.5429688 24.042969C7.2239688 24.808969 6.9588437 25.600391 6.7148438 26.400391C8.0628437 27.043391 9 28.407 9 30C9 30.005 8.9980469 30.009625 8.9980469 30.015625C9.6190469 30.843625 10 31.85875 10 32.96875C10 35.23475 8.1562813 37.836609 7.3632812 38.849609C6.7982813 39.572609 5.9502969 39.985094 5.0292969 39.996094C5.0082969 41.348094 5 42.69 5 44C5 44.184 5.0661562 44.352813 5.1601562 44.507812C5.2111563 44.591813 5.2570312 44.677141 5.3320312 44.744141C5.5440312 44.934141 5.829375 45.024141 6.109375 44.994141C6.198375 44.984141 14.998844 44.053516 20.464844 46.353516C20.465844 46.353516 20.46775 46.355469 20.46875 46.355469C21.78675 47.371469 23.285906 47.998047 25.003906 47.998047C26.724906 47.998047 28.224922 47.367609 29.544922 46.349609L29.546875 46.349609C34.673875 44.197609 42.715391 44.879422 43.775391 44.982422C43.845391 44.989422 43.885625 44.993141 43.890625 44.994141C44.170625 45.023141 44.456969 44.932141 44.667969 44.744141C44.879969 44.554141 45 44.284 45 44C45 37.709 44.990391 30.148312 42.400391 23.945312 z" />
</svg>