<?xml version="1.0" encoding="utf-8"?>
<svg xmlns="http://www.w3.org/2000/svg" viewBox="0 0 50 50" width="515" height="515">
  <path d="M25 2C12.317 2 2 12.317 2 25C2 37.683 12.317 48 25 48C37.683 48 48 37.683 48 25C48 12.317 37.683 2 25 2 z M 32.992188 14.998047C33.38125 14.995703 33.754469 15.224469 33.917969 15.605469L35.087891 18.335938L37.550781 17.103516C38.045781 16.858516 38.644578 17.056781 38.892578 17.550781C39.141578 18.046781 38.941266 18.646531 38.447266 18.894531L35.878906 20.179688L36.917969 22.607422C37.135969 23.114422 36.899578 23.701922 36.392578 23.919922C36.265578 23.974922 36.132 24 36 24C35.612 24 35.242078 23.773531 35.080078 23.394531L34.087891 21.074219L32.447266 21.894531C32.304266 21.965531 32.151953 22 32.001953 22C31.634953 22 31.281469 21.798266 31.105469 21.447266C30.858469 20.953266 31.058734 20.352469 31.552734 20.105469L33.296875 19.232422L32.080078 16.392578C31.862078 15.885578 32.098469 15.298078 32.605469 15.080078C32.731469 15.025078 32.8625 14.998828 32.992188 14.998047 z M 18.1875 15.025391C20.279952 14.95161 24.157187 19.555 27.25 23.757812L28.552734 23.105469C29.046734 22.859469 29.647531 23.058734 29.894531 23.552734C30.141531 24.046734 29.941266 24.647531 29.447266 24.894531L28.435547 25.400391C30.397547 28.169391 31.823375 30.426281 31.859375 30.488281C32.141375 30.962281 31.985719 31.577375 31.511719 31.859375C31.036719 32.142375 30.423625 31.986719 30.140625 31.511719C29.209625 29.946719 27.978203 28.114063 26.658203 26.289062L18.574219 30.330078C18.905219 32.382078 19.364687 34.221953 19.929688 35.626953C20.135687 36.139953 19.886047 36.721734 19.373047 36.927734C19.250047 36.977734 19.124 37 19 37C18.604 37 18.229266 36.763047 18.072266 36.373047C17.515266 34.988047 17.057938 33.221672 16.710938 31.263672L15.447266 31.894531C15.304266 31.966531 15.151953 32 15.001953 32C14.634953 32 14.281469 31.798266 14.105469 31.447266C13.858469 30.953266 14.058734 30.352469 14.552734 30.105469L16.394531 29.183594C16.143531 27.205594 16 25.102 16 23C16 15.804 17.303922 15.294516 17.794922 15.103516C17.917797 15.055516 18.048003 15.030309 18.1875 15.025391 z M 18.580078 17.09375C18.317078 17.79275 18 19.715 18 23C18 24.777 18.102109 26.553281 18.287109 28.238281L25.449219 24.65625C22.690219 21.00025 19.815078 17.70875 18.580078 17.09375 z" />
</svg>