<?xml version="1.0" encoding="utf-8"?>
<svg xmlns="http://www.w3.org/2000/svg" viewBox="0 0 50 50" width="515" height="515">
  <path d="M25 2C22.238281 2 20 4.238281 20 7C20 9.761719 22.238281 12 25 12C27.761719 12 30 9.761719 30 7C30 4.238281 27.761719 2 25 2 Z M 21 14C17.132813 14 14 17.132813 14 21L14 31L16.90625 32.21875L18 47L24 47L25.8125 22.515625L30.824219 30.953125C30.316406 31.492188 30 32.210938 30 33L30 34L32 34L32 33C32 32.433594 32.433594 32 33 32C33.566406 32 34 32.433594 34 33L34 48L36 48L36 33C36 31.707031 35.15625 30.605469 34 30.1875L34 30L28.402344 18.96875C27.207031 16.054688 24.34375 14 21 14Z" />
</svg>