<?xml version="1.0" encoding="utf-8"?>
<svg xmlns="http://www.w3.org/2000/svg" viewBox="0 0 50 50" width="515" height="515">
  <path d="M28.90625 0C28.523438 0.0273438 28.171875 0.273438 28.03125 0.65625C27.847656 1.167969 28.117188 1.742188 28.625 1.9375C28.714844 1.972656 30.761719 2.820313 30.5 6.96875C29.6875 7.789063 28.90625 8.699219 28.15625 9.71875C27.828125 10.164063 27.929688 10.796875 28.375 11.125C28.554688 11.257813 28.765625 11.3125 28.96875 11.3125C29.277344 11.3125 29.554688 11.171875 29.75 10.90625C35.3125 3.34375 43.664063 2.011719 43.75 2C44.296875 1.917969 44.675781 1.390625 44.59375 0.84375C44.511719 0.296875 44.015625 -0.0820313 43.46875 0C43.175781 0.0429688 37.730469 0.910156 32.46875 5.1875C32.0625 1.0625 29.410156 0.105469 29.28125 0.0625C29.152344 0.0195313 29.035156 -0.0078125 28.90625 0 Z M 21.5 7C18.46875 7 16 9.46875 16 12.5C16 15.53125 18.46875 18 21.5 18C24.53125 18 27 15.53125 27 12.5C27 9.46875 24.53125 7 21.5 7 Z M 32.53125 12.0625C29.5 12.0625 27.03125 14.53125 27.03125 17.5625C27.03125 20.59375 29.5 23.0625 32.53125 23.0625C35.5625 23.0625 38.03125 20.59375 38.03125 17.5625C38.03125 14.53125 35.5625 12.0625 32.53125 12.0625 Z M 11.5 15C8.46875 15 6 17.46875 6 20.5C6 23.53125 8.46875 26 11.5 26C14.53125 26 17 23.53125 17 20.5C17 17.46875 14.53125 15 11.5 15 Z M 22.5 20C19.46875 20 17 22.46875 17 25.5C17 28.53125 19.46875 31 22.5 31C25.53125 31 28 28.53125 28 25.5C28 22.46875 25.53125 20 22.5 20 Z M 34.4375 24.125C31.40625 24.125 28.9375 26.59375 28.9375 29.625C28.9375 32.65625 31.40625 35.125 34.4375 35.125C37.46875 35.125 39.9375 32.65625 39.9375 29.625C39.9375 26.59375 37.46875 24.125 34.4375 24.125 Z M 12.5 27C9.46875 27 7 29.46875 7 32.5C7 35.53125 9.46875 38 12.5 38C15.53125 38 18 35.53125 18 32.5C18 29.46875 15.53125 27 12.5 27 Z M 24.40625 32C21.375 32 18.90625 34.46875 18.90625 37.5C18.90625 40.53125 21.375 43 24.40625 43C27.4375 43 29.90625 40.53125 29.90625 37.5C29.90625 34.46875 27.4375 32 24.40625 32 Z M 14.40625 39C11.375 39 8.90625 41.46875 8.90625 44.5C8.90625 47.53125 11.375 50 14.40625 50C17.4375 50 19.90625 47.53125 19.90625 44.5C19.90625 41.46875 17.4375 39 14.40625 39Z" />
</svg>