<?xml version="1.0" encoding="utf-8"?>
<svg xmlns="http://www.w3.org/2000/svg" viewBox="0 0 50 50" width="515" height="515">
  <path d="M7 2C6.253906 2 5.96875 2.5 5.90625 2.65625C5.609375 3.375 6.097656 3.851563 6.8125 4.5625C12.578125 10.289063 16.453125 18.757813 18.4375 29.78125C21.566406 34.664063 23.929688 40.929688 24 48.59375C24.015625 48.710938 24.03125 48.816406 24.03125 48.9375C24.03125 49.289063 23.957031 49.625 23.84375 49.9375L28 49.9375C28.007813 49.9375 28.023438 49.9375 28.03125 49.9375C28.585938 49.9375 29.03125 49.492188 29.03125 48.9375C29.03125 48.871094 29.011719 48.816406 29 48.75C28.929688 12.804688 9.136719 2 7 2 Z M 41.9375 10C41.828125 10 32.226563 10.183594 26.71875 22.71875C27.925781 25.96875 28.957031 29.710938 29.71875 33.96875C31.152344 25.542969 34.570313 16.914063 42.125 12.25C42.660156 11.917969 43.261719 11.546875 43.0625 10.78125C42.96875 10.421875 42.644531 10.027344 42.03125 10C42.015625 10 41.949219 10 41.9375 10 Z M 3 19C2.226563 19 1.941406 19.53125 1.875 19.6875C1.554688 20.4375 2.023438 20.925781 2.96875 21.90625C5.710938 24.746094 13 32.277344 13 48.9375C13 49.492188 13.449219 49.9375 14 49.9375L21.03125 49.9375C21.582031 49.9375 22.03125 49.492188 22.03125 48.9375C22.03125 48.867188 22.011719 48.816406 22 48.75C21.886719 28.542969 5.195313 19 3 19 Z M 49 19C46.070313 19 31 29.414063 31 48.9375C31 49.492188 31.445313 49.9375 32 49.9375L39 49.9375C39.554688 49.9375 40 49.492188 40 48.9375C40 32.464844 46.605469 24.839844 49.09375 21.96875C50 20.921875 50.464844 20.394531 50.125 19.65625C50.035156 19.457031 49.742188 19 49 19Z" />
</svg>