<?xml version="1.0" encoding="utf-8"?>
<svg xmlns="http://www.w3.org/2000/svg" viewBox="0 0 50 50" width="515" height="515">
  <path d="M0 7L0 43L50 43L50 7 Z M 2 9L5.96875 9L19 17.90625L19 9L22 9L22 22L2 22L2 19L13.59375 19L2 11.09375 Z M 28 9L31 9L31 17.90625L44.03125 9L48 9L48 11.09375L36.40625 19L48 19L48 22L28 22 Z M 2 28L22 28L22 41L19 41L19 32.09375L5.96875 41L2 41L2 38.90625L13.59375 31L2 31 Z M 28 28L48 28L48 31L36.40625 31L48 38.90625L48 41L44.03125 41L31 32.09375L31 41L28 41Z" />
</svg>