<?xml version="1.0" encoding="utf-8"?>
<svg xmlns="http://www.w3.org/2000/svg" viewBox="0 0 50 50" width="515" height="515">
  <path d="M25 0C15.074219 0 7 7.324219 7 16.3125C7 21.75 11.050781 26.359375 14.3125 30.0625C16.117188 32.113281 17.839844 34.054688 18.25 35.5L24.34375 35.5C25.503906 32.984375 26.054688 29.648438 26.03125 26.1875C23.660156 27.714844 17.949219 27.445313 17.21875 22.28125C16.214844 15.183594 21.03125 11.082031 21.21875 6.9375C34.90625 11.207031 35.339844 22.195313 33.15625 24.53125C31.753906 26.03125 29.472656 26.550781 28.03125 25.9375C28.078125 29.410156 27.566406 32.769531 26.5 35.5L31.78125 35.5C32.195313 34.0625 33.875 32.136719 35.65625 30.125C38.921875 26.429688 43 21.855469 43 16.3125C43 7.324219 34.925781 0 25 0 Z M 28.03125 25.9375C27.964844 21.261719 26.878906 16.417969 24.78125 12.75C24.507813 12.269531 23.917969 12.101563 23.4375 12.375C22.957031 12.648438 22.789063 13.238281 23.0625 13.71875C25.015625 17.136719 26 21.765625 26.03125 26.1875C26.507813 25.878906 26.863281 25.523438 27 25.09375C27.230469 25.484375 27.601563 25.753906 28.03125 25.9375 Z M 17 37.5C16.453125 37.507813 16 37.953125 16 38.5L16 43.5C16 44.867188 17.121094 46 18.5 46L20.40625 46C20.726563 48.257813 22.65625 50 25 50C27.34375 50 29.273438 48.257813 29.59375 46L31.5 46C32.878906 46 34 44.867188 34 43.5L34 38.5C34 37.953125 33.546875 37.507813 33 37.5C33 37.5 17.035156 37.5 17 37.5Z" />
</svg>