<?xml version="1.0" encoding="utf-8"?>
<svg xmlns="http://www.w3.org/2000/svg" viewBox="0 0 50 50" width="515" height="515">
  <path d="M5 4C4.45 4 4 4.45 4 5L4 13L13 13L13 4L5 4 z M 15 4L15 13L24 13L24 4L15 4 z M 26 4L26 13L35 13L35 4L26 4 z M 37 4L37 13L46 13L46 5C46 4.45 45.55 4 45 4L37 4 z M 4 15L4 24L13 24L13 15L4 15 z M 15 15L15 24L24 24L24 15L15 15 z M 26 15L26 24L35 24L35 15L26 15 z M 37 15L37 24L46 24L46 15L37 15 z M 4 26L4 35L13 35L13 26L4 26 z M 15 26L15 35L24 35L24 26L15 26 z M 26 26L26 35L35 35L35 26L26 26 z M 37 26L37 35L46 35L46 26L37 26 z M 4 37L4 45C4 45.55 4.45 46 5 46L13 46L13 37L4 37 z M 15 37L15 46L24 46L24 37L15 37 z M 26 37L26 46L35 46L35 37L26 37 z M 37 37L37 46L45 46C45.55 46 46 45.55 46 45L46 37L37 37 z" />
</svg>