<?xml version="1.0" encoding="utf-8"?>
<svg xmlns="http://www.w3.org/2000/svg" viewBox="0 0 50 50" width="515" height="515">
  <path d="M25 0C14.195313 0 8 5.316406 8 14.59375C8 17.847656 8.5 21.058594 8.71875 22.28125C8.289063 22.710938 8 23.367188 8 24.3125C8 27.152344 9.34375 28.179688 10.6875 28.5C14.414063 36.800781 19.238281 41 25 41C30.765625 41 35.585938 36.800781 39.3125 28.5C40.65625 28.179688 42 27.152344 42 24.3125C42 23.402344 41.734375 22.75 41.34375 22.3125C41.511719 21.027344 42 17 42 13.59375C42 10.554688 42.007813 4.304688 33.65625 4C32.941406 2.683594 30.757813 0 25 0 Z M 32.59375 8.59375C33.863281 16.996094 36.863281 12.136719 37 18.53125C37 18.597656 37 18.679688 37 18.75L37 23.125C37 23.484375 37.1875 23.820313 37.5 24C37.8125 24.179688 38.191406 24.183594 38.5 24C38.804688 23.816406 38.863281 23.5625 39.5625 23.5625C39.824219 23.5625 40 23.570313 40 24.3125C40 26.292969 39.261719 26.515625 38.5 26.59375C38.140625 26.628906 37.832031 26.859375 37.6875 27.1875C34.234375 35.128906 30.078125 39 25 39C19.921875 39 15.769531 35.128906 12.3125 27.1875C12.167969 26.859375 11.859375 26.628906 11.5 26.59375C10.738281 26.515625 10 26.292969 10 24.3125C10 23.613281 10.179688 23.59375 10.46875 23.59375C11.179688 23.59375 11.175781 23.8125 11.5 24C11.808594 24.175781 12.191406 24.179688 12.5 24C12.808594 23.820313 13 23.480469 13 23.125L13 19C13 7.398438 30.992188 16.492188 32.59375 8.59375 Z M 16.71875 40C16.445313 39.996094 16.183594 40.078125 15.9375 40.21875C15.371094 40.539063 15 41.203125 15 41.90625L15 48.1875C15 48.828125 15.3125 49.410156 15.8125 49.75C16.089844 49.9375 16.390625 50.0625 16.71875 50.0625C16.949219 50.0625 17.195313 50.003906 17.4375 49.90625L20.96875 48.1875C20.375 47.636719 20 46.871094 20 46L20 44C20 43.164063 20.351563 42.421875 20.90625 41.875L17.5 40.25C17.253906 40.101563 16.992188 40.003906 16.71875 40 Z M 33.28125 40C33.019531 40 32.769531 40.058594 32.5625 40.1875L29.125 41.84375C29.667969 42.382813 30 43.140625 30 44L30 46C30 46.871094 29.628906 47.636719 29.03125 48.1875L32.625 49.9375C32.835938 50.019531 33.035156 50.0625 33.25 50.0625C33.578125 50.0625 33.902344 49.941406 34.1875 49.75C34.6875 49.410156 35 48.828125 35 48.1875L35 41.90625C35 41.203125 34.628906 40.539063 34.0625 40.21875C33.816406 40.078125 33.542969 40 33.28125 40 Z M 23 43C22.5 43 22 43.398438 22 44L22 46C22 46.5 22.398438 47 23 47L27 47C27.5 47 28 46.601563 28 46L28 44C28 43.398438 27.601563 43 27 43Z" />
</svg>