<?xml version="1.0" encoding="utf-8"?>
<svg xmlns="http://www.w3.org/2000/svg" viewBox="0 0 50 50" width="515" height="515">
  <path d="M0 7L0 37L4 37L4 11L44 11L44 7 Z M 6 13L6 15.03125C11.917969 19.910156 24.160156 30 25.15625 30.84375C26.25 31.769531 27.402344 31.90625 28 31.90625C28.597656 31.90625 29.75 31.769531 30.84375 30.84375C31.925781 29.929688 45.253906 18.964844 50 15.0625L50 13 Z M 6 17.625L6 38.21875L19.125 28.4375C15.230469 25.222656 9.78125 20.742188 6 17.625 Z M 50 17.65625C46.605469 20.449219 40.960938 25.097656 36.90625 28.4375L50 38.25 Z M 20.6875 29.75L6 40.71875L6 43L50 43L50 40.75L35.3125 29.75C33.636719 31.132813 32.441406 32.132813 32.15625 32.375C30.578125 33.710938 28.871094 33.90625 28 33.90625C27.128906 33.90625 25.421875 33.714844 23.84375 32.375C23.566406 32.140625 22.378906 31.148438 20.6875 29.75Z" />
</svg>