<?xml version="1.0" encoding="utf-8"?>
<svg xmlns="http://www.w3.org/2000/svg" viewBox="0 0 50 50" width="515" height="515">
  <path d="M5 2C2.243 2 0 4.243 0 7L0 31C0 33.757 2.243 36 5 36L42 36L42 6L9.8984375 6C9.4344375 3.721 7.415 2 5 2 z M 5 4C6.654 4 8 5.346 8 7L8 27.025391C7.162 26.390391 6.13 26 5 26C3.87 26 2.838 26.390391 2 27.025391L2 7C2 5.346 3.346 4 5 4 z M 44 10 A 1.0001 1.0001 0 1 0 44 12L44 38L9 38C8.2478825 38 7.5758531 37.717643 7.0390625 37.248047 A 1.0001 1.0001 0 1 0 5.7207031 38.751953C6.5899125 39.512357 7.7381175 40 9 40L46 40L46 10L44 10 z M 29 13L35 13L35 19L32.650391 16.650391L25.931641 23.005859L20.931641 17.755859L15.322266 23.060547L13.947266 21.607422L21.005859 14.933594L26.005859 20.183594L31.236328 15.236328L29 13 z M 48 14 A 1.0001 1.0001 0 1 0 48 16L48 42L13 42C12.247882 42 11.575854 41.717643 11.039062 41.248047 A 1.0001 1.0001 0 1 0 9.7207031 42.751953C10.589913 43.512357 11.738118 44 13 44L50 44L50 14L48 14 z M 14 27L35 27L35 29L14 29L14 27 z" />
</svg>