<?xml version="1.0" encoding="utf-8"?>
<svg xmlns="http://www.w3.org/2000/svg" viewBox="0 0 50 50" width="515" height="515">
  <path d="M14 5C9.589844 5 6 8.589844 6 13C6 17.410156 9.589844 21 14 21C18.410156 21 22 17.410156 22 13C22 8.589844 18.410156 5 14 5 Z M 40 18C36.691406 18 34 20.691406 34 24C34 27.308594 36.691406 30 40 30C43.308594 30 46 27.308594 46 24C46 20.691406 43.308594 18 40 18 Z M 14 22C12.328125 22 8.292969 22.269531 4.96875 23.34375C1.996094 24.375 0 27.1875 0 30.3125L0 43C0 43.554688 0.449219 44 1 44L26 44C26.554688 44 27 43.554688 27 43L27 34.90625L28.75 35.3125C29.605469 33.273438 31.148438 31.628906 33.21875 30.6875C33.71875 30.449219 34.257813 30.222656 34.78125 30.03125C33.566406 28.976563 32.660156 27.574219 32.25 25.96875L22.8125 23.34375C19.613281 22.277344 15.769531 22 14 22 Z M 40 31C38.292969 31 36.027344 31.582031 34.09375 32.5C31.574219 33.644531 30 36.128906 30 39L30 43C30 43.554688 30.445313 44 31 44L49 44C49.554688 44 50 43.554688 50 43L50 39C50 36.304688 48.460938 33.820313 45.9375 32.5C43.988281 31.574219 41.707031 31 40 31Z" />
</svg>