<?xml version="1.0" encoding="utf-8"?>
<svg xmlns="http://www.w3.org/2000/svg" viewBox="0 0 50 50" width="515" height="515">
  <path d="M40.90625 -0.03125C40.863281 -0.0234375 40.820313 -0.0117188 40.78125 0C40.40625 0.0664063 40.105469 0.339844 40 0.703125C39.894531 1.070313 40.003906 1.460938 40.28125 1.71875L41.28125 2.71875C41.410156 2.855469 41.570313 2.949219 41.75 3L41 3.75C40.949219 3.570313 40.855469 3.410156 40.71875 3.28125L39.71875 2.28125C39.476563 2.03125 39.121094 1.925781 38.78125 2C38.40625 2.066406 38.105469 2.339844 38 2.703125C37.894531 3.070313 38.003906 3.460938 38.28125 3.71875L39.28125 4.71875C39.410156 4.855469 39.570313 4.949219 39.75 5L38.84375 5.90625C38.363281 6.386719 38.21875 7.074219 38.375 7.6875L31.03125 15.0625L34.9375 18.96875L27.71875 26.21875C27.136719 24.351563 25.675781 22.871094 23.8125 22.28125L31.03125 15.0625L30.9375 14.96875C29.164063 13.433594 26.414063 11.59375 23.375 11.59375C21.855469 11.59375 20.410156 12.035156 19.09375 12.9375C17.242188 14.203125 16.664063 15.898438 16.1875 17.25C15.871094 18.144531 15.589844 18.902344 15.03125 19.4375C14.515625 19.933594 13.394531 20.136719 12.09375 20.375C9.597656 20.828125 6.15625 21.464844 2.9375 24.6875C0.957031 26.667969 -0.0273438 28.984375 0 31.59375C0.0390625 35.417969 2.257813 39.574219 6.40625 43.5625C10.457031 47.777344 14.648438 50 18.5 50C21.070313 50 23.359375 49.015625 25.3125 47.0625C28.535156 43.839844 29.171875 40.402344 29.625 37.90625C29.859375 36.601563 30.066406 35.484375 30.5625 34.96875C31.09375 34.414063 31.851563 34.152344 32.75 33.84375C34.113281 33.378906 35.828125 32.789063 37.09375 30.9375C39.445313 27.5 38.722656 23.277344 35 19L34.96875 18.96875L42.3125 11.625C42.921875 11.78125 43.613281 11.636719 44.09375 11.15625L45 10.28125C45.054688 10.449219 45.152344 10.601563 45.28125 10.71875L46.28125 11.71875C46.679688 12.117188 47.320313 12.117188 47.71875 11.71875C48.117188 11.320313 48.117188 10.679688 47.71875 10.28125L46.71875 9.28125C46.589844 9.144531 46.429688 9.046875 46.25 9L47 8.28125C47.054688 8.449219 47.152344 8.601563 47.28125 8.71875L48.28125 9.71875C48.679688 10.117188 49.320313 10.117188 49.71875 9.71875C50.117188 9.320313 50.117188 8.679688 49.71875 8.28125L48.71875 7.28125C48.589844 7.144531 48.429688 7.046875 48.25 7L48.46875 6.78125C49.191406 6.058594 49.191406 4.875 48.46875 4.15625L45.84375 1.53125C45.125 0.808594 43.941406 0.808594 43.21875 1.53125L43 1.75C42.949219 1.570313 42.855469 1.410156 42.71875 1.28125L41.71875 0.28125C41.511719 0.0585938 41.210938 -0.0546875 40.90625 -0.03125 Z M 44.40625 3.1875C44.546875 3.1875 44.703125 3.234375 44.8125 3.34375C45.03125 3.5625 45.03125 3.90625 44.8125 4.125L41.09375 7.84375C40.984375 7.953125 40.863281 8 40.71875 8C40.574219 8 40.421875 7.953125 40.3125 7.84375C40.09375 7.625 40.09375 7.28125 40.3125 7.0625L44.03125 3.34375C44.140625 3.234375 44.265625 3.1875 44.40625 3.1875 Z M 46.25 5.03125C46.390625 5.03125 46.546875 5.078125 46.65625 5.1875C46.875 5.40625 46.875 5.75 46.65625 5.96875L42.96875 9.6875C42.859375 9.796875 42.707031 9.84375 42.5625 9.84375C42.417969 9.84375 42.265625 9.796875 42.15625 9.6875C41.9375 9.46875 41.9375 9.125 42.15625 8.90625L45.875 5.1875C45.984375 5.078125 46.109375 5.03125 46.25 5.03125 Z M 22 24C22.03125 24 22.066406 24 22.09375 24C24.238281 24.050781 25.96875 25.789063 26 27.9375C26 27.957031 26 27.980469 26 28C26 29.933594 24.636719 31.535156 22.8125 31.90625C22.550781 31.960938 22.277344 32 22 32C19.789063 32 18 30.210938 18 28C18 27.722656 18.039063 27.449219 18.09375 27.1875C18.253906 26.40625 18.613281 25.699219 19.15625 25.15625C19.335938 24.976563 19.539063 24.832031 19.75 24.6875C20.386719 24.257813 21.171875 24 22 24 Z M 11.15625 31.15625C11.300781 31.15625 11.453125 31.203125 11.5625 31.3125L18.6875 38.4375C18.90625 38.660156 18.90625 39.03125 18.6875 39.25L17.5 40.4375C17.28125 40.65625 16.90625 40.65625 16.6875 40.4375L9.5625 33.3125C9.339844 33.089844 9.339844 32.71875 9.5625 32.5L10.75 31.3125C10.859375 31.203125 11.011719 31.15625 11.15625 31.15625Z" />
</svg>