<?xml version="1.0" encoding="utf-8"?>
<svg xmlns="http://www.w3.org/2000/svg" viewBox="0 0 50 50" width="515" height="515">
  <path d="M9 8C8.449219 8 8 8.449219 8 9L5 9C4.449219 9 4 9.449219 4 10L4 19C4 19.550781 4.449219 20 5 20C6.457031 20 8 21.542969 8 23C8 24.296875 7.144531 25.582031 6.054688 27.214844C4.34375 29.78125 2 33.296875 2 39C2 39.058594 2.003906 39.117188 2.015625 39.171875C2.035156 39.289063 2.558594 42 6.550781 42L11.882813 42C14.375 42 15.714844 41.082031 16.214844 39.03125L18.777344 29L28.320313 29C28.75 29 29.132813 28.722656 29.269531 28.316406L31.71875 21L44 21C44.265625 21 44.519531 20.894531 44.707031 20.707031L45.414063 20L47 20C47.550781 20 48 19.550781 48 19L48 10C48 9.449219 47.550781 9 47 9L45.414063 9L44.707031 8.292969C44.519531 8.105469 44.265625 8 44 8L42 8C41.449219 8 41 8.449219 41 9L12.414063 9L11.707031 8.292969C11.519531 8.105469 11.265625 8 11 8 Z M 21 13L27 13C27.550781 13 28 13.449219 28 14C28 14.550781 27.550781 15 27 15L21 15C20.449219 15 20 14.550781 20 14C20 13.449219 20.449219 13 21 13 Z M 24.191406 21L29.609375 21L27.601563 27L21.871094 27C21.5625 26.648438 21 25.757813 21 24C21 22.769531 21.402344 21.929688 22.203125 21.453125C22.285156 23.035156 23 24.941406 25.34375 25.824219C25.457031 25.867188 25.578125 25.890625 25.691406 25.890625C26.097656 25.890625 26.480469 25.640625 26.628906 25.242188C26.824219 24.722656 26.5625 24.148438 26.046875 23.953125C24.355469 23.316406 24.152344 21.875 24.191406 21Z" />
</svg>