<?xml version="1.0" encoding="utf-8"?>
<svg xmlns="http://www.w3.org/2000/svg" viewBox="0 0 50 50" width="515" height="515">
  <path d="M25 8C21.960938 8 19.5 10.460938 19.5 13.5C19.5 16.539063 21.960938 19 25 19C28.039063 19 30.5 16.539063 30.5 13.5C30.5 10.460938 28.039063 8 25 8 Z M 25 20.03125C21.078125 20.03125 16.90625 21.6875 16.90625 21.6875L16.90625 21.71875C15.566406 21.984375 14.488281 22.960938 14.09375 24.25L14.0625 24.25L10.78125 32.8125C10.78125 32.8125 6.015625 36.976563 4.875 37.90625C3.734375 38.835938 3.808594 40.464844 4.75 41.3125C5.691406 42.15625 6.976563 41.902344 8.28125 40.875C9.222656 40.136719 13.242188 36.988281 13.8125 36.4375C14.382813 35.886719 14.808594 35.207031 15.09375 34.65625C15.292969 34.273438 17.132813 30.855469 18 29.25L18 37.59375C18 38.960938 14.617188 40.898438 12.6875 42.09375C10.269531 43.597656 8.375 44.613281 8.375 46.6875C8.375 49.050781 10.878906 50.0625 13.0625 50.0625L16.03125 50.0625C15.679688 49.558594 15.46875 48.9375 15.46875 48.15625C15.46875 44.160156 20.164063 43.355469 22.96875 42.875C27.074219 42.171875 30.03125 41.691406 30.0625 41.6875C30.117188 41.679688 30.195313 41.691406 30.25 41.6875C30.269531 41.683594 30.261719 41.6875 30.28125 41.6875C30.289063 41.6875 30.304688 41.6875 30.3125 41.6875C30.335938 41.6875 30.351563 41.6875 30.375 41.6875C30.382813 41.6875 30.398438 41.683594 30.40625 41.6875C30.902344 41.746094 31.28125 42.171875 31.28125 42.6875C31.28125 43.207031 30.882813 43.605469 30.375 43.65625C30.375 43.660156 30.375 43.6875 30.375 43.6875C30.375 43.6875 27.453125 44.132813 23.3125 44.84375C20.042969 45.40625 17.46875 46.070313 17.46875 48.15625C17.46875 49.558594 18.855469 49.964844 20.21875 50.0625L22.4375 50.0625C22.449219 50.0625 22.457031 50.0625 22.46875 50.0625L34.59375 50.0625C36.171875 50.0625 41.625 49.996094 41.625 46.96875C41.625 45.082031 40.082031 44.085938 38.21875 42.84375C34.683594 40.488281 32 38.808594 32 37.53125L32 29.28125C32.867188 30.886719 34.707031 34.269531 34.90625 34.65625C35.191406 35.207031 35.617188 35.886719 36.1875 36.4375C36.757813 36.988281 40.78125 40.136719 41.71875 40.875C43.027344 41.902344 44.308594 42.15625 45.25 41.3125C46.191406 40.464844 46.265625 38.835938 45.125 37.90625C43.984375 36.976563 39.21875 32.8125 39.21875 32.8125L35.9375 24.25L35.90625 24.25C35.511719 22.953125 34.414063 21.945313 33.0625 21.6875C32.378906 21.425781 28.558594 20.03125 25 20.03125Z" />
</svg>