<?xml version="1.0" encoding="utf-8"?>
<svg xmlns="http://www.w3.org/2000/svg" viewBox="0 0 50 50" width="515" height="515">
  <path d="M21.5 3C20.121094 3 19 4.121094 19 5.5L19 18.667969L14.078125 37.847656L14.089844 37.851563C14.03125 38.0625 14 38.28125 14 38.5C14 39.878906 15.121094 41 16.5 41C17.703125 41 18.734375 40.140625 18.953125 38.953125L22 27L29 27L25.121094 43.71875L25.125 43.71875C25.042969 43.972656 25 44.234375 25 44.5C25 45.878906 26.121094 47 27.5 47C28.710938 47 29.746094 46.128906 29.957031 44.9375L33.8125 28.328125L38.066406 45.089844L38.074219 45.089844C38.34375 46.207031 39.347656 47 40.5 47C41.878906 47 43 45.878906 43 44.5C43 44.285156 42.972656 44.074219 42.917969 43.871094L37.867188 24.585938C37.199219 20.84375 33.933594 18 30 18L24 18L24 5.5C24 4.121094 22.878906 3 21.5 3 Z M 11 15C8.238281 15 6 17.238281 6 20C6 22.761719 8.238281 25 11 25C13.761719 25 16 22.761719 16 20C16 17.238281 13.761719 15 11 15Z" />
</svg>