<?xml version="1.0" encoding="utf-8"?>
<svg xmlns="http://www.w3.org/2000/svg" viewBox="0 0 50 50" width="515" height="515">
  <path d="M2 2C0.839844 2 0 2.839844 0 4L0 40C0 41.160156 0.839844 42 2 42L48 42C49.160156 42 50 41.160156 50 40L50 4C50 2.839844 49.160156 2 48 2 Z M 6 7L44 7C44.601563 7 45 7.398438 45 8L45 32C45 32.601563 44.601563 33 44 33L6 33C5.398438 33 5 32.601563 5 32L5 8C5 7.398438 5.398438 7 6 7 Z M 21.90625 10C19.285156 10 18.214844 13.453125 17.28125 16.5C17.164063 16.886719 17.054688 17.265625 16.9375 17.625C14.886719 18.078125 11.1875 19.410156 11.1875 21C11.1875 22.449219 13.910156 23.199219 17.1875 23.59375C17.40625 25.394531 18.085938 29 19.8125 29C22.511719 29 23.40625 27.09375 24.90625 27.09375C26.40625 27.09375 27.601563 29 30 29C31.714844 29 32.5 25.433594 32.78125 23.625C36.164063 23.238281 39 22.484375 39 21C39 20.945313 39.007813 20.894531 39 20.84375C38.769531 19.445313 35.382813 18.105469 33.21875 17.625C32.355469 14.222656 31.113281 10 28.1875 10C27.160156 10 26.5 10.632813 26 11.09375C25.144531 11.878906 24.835938 11.855469 24 11.0625C23.492188 10.582031 22.882813 10 21.90625 10 Z M 19.1875 24.5C20.6875 24.699219 22.90625 25.1875 22.90625 25.6875C22.90625 26.085938 22.210938 26.710938 21.3125 26.8125C19.511719 27.210938 19.1875 25 19.1875 24.5 Z M 30.3125 24.5C30.3125 25 29.988281 27.210938 28.1875 26.8125C27.289063 26.613281 26.59375 26.085938 26.59375 25.6875C26.59375 25.289063 28.8125 24.800781 30.3125 24.5 Z M 43 35C44.101563 35 45 35.898438 45 37C45 38.101563 44.101563 39 43 39C41.898438 39 41 38.101563 41 37C41 35.898438 41.898438 35 43 35 Z M 19 43L19 44L14.90625 44C13.28125 44 12 45.316406 12 47L12 50L38 50L38 47C38 45.375 36.664063 44 35.09375 44L31 44L31 43Z" />
</svg>