<?xml version="1.0" encoding="utf-8"?>
<svg xmlns="http://www.w3.org/2000/svg" viewBox="0 0 50 50" width="515" height="515">
  <path d="M21.902344 2C19.277344 2 18.21875 5.457031 17.285156 8.503906C17.167969 8.890625 17.050781 9.269531 16.9375 9.628906C14.882813 10.082031 11.199219 11.410156 11.199219 13C11.199219 14.320313 13.425781 14.8125 16.296875 14.984375C16.542969 15.792969 16.917969 16.890625 17.53125 18L32.46875 18C33.078125 16.894531 33.453125 15.800781 33.703125 14.988281C36.664063 14.832031 39 14.347656 39 13C39 12.945313 38.996094 12.890625 38.984375 12.835938C38.753906 11.4375 35.378906 10.117188 33.214844 9.640625C32.355469 6.234375 31.125 2 28.199219 2C27.171875 2 26.484375 2.628906 25.984375 3.09375C25.132813 3.878906 24.847656 3.867188 24.011719 3.074219C23.503906 2.59375 22.875 2 21.902344 2 Z M 19.199219 15.5C20.699219 15.699219 22.902344 16.199219 22.902344 16.699219C22.902344 17.097656 22.199219 17.699219 21.300781 17.800781C19.5 18.199219 19.199219 16 19.199219 15.5 Z M 30.800781 15.5C30.800781 16 30.5 18.199219 28.699219 17.800781C27.800781 17.699219 27.097656 17.097656 27.097656 16.699219C27.097656 16.199219 29.300781 15.699219 30.800781 15.5 Z M 8 20C6.839844 20 6 20.839844 6 22L6 41C6 42.160156 6.839844 43 8 43L19.128906 43L20.003906 32.914063C20.050781 32.363281 20.535156 31.945313 21.089844 32.003906C21.625 32.050781 22.019531 32.515625 21.992188 33.050781L21.015625 44.386719C20.871094 45.277344 19.96875 46 19 46L18 46C17.910156 46 17.859375 46.015625 17.820313 46.035156C17.355469 46.121094 17 46.511719 17 47C17 47.488281 17.355469 47.878906 17.820313 47.964844C17.859375 47.984375 17.910156 48 18 48L32 48C32.089844 48 32.140625 47.984375 32.179688 47.964844C32.644531 47.878906 33 47.488281 33 47C33 46.511719 32.644531 46.121094 32.179688 46.035156C32.140625 46.015625 32.089844 46 32 46L31 46C30.03125 46 29.128906 45.273438 28.996094 44.457031L28.007813 33.050781C27.980469 32.515625 28.375 32.050781 28.914063 32.003906C29.464844 31.945313 29.949219 32.363281 29.996094 32.914063L30.871094 43L42 43C43.160156 43 44 42.160156 44 41L44 22C44 20.839844 43.160156 20 42 20Z" />
</svg>