<?xml version="1.0" encoding="utf-8"?>
<svg xmlns="http://www.w3.org/2000/svg" viewBox="0 0 50 50" width="515" height="515">
  <path d="M25 3C12.87 3 3 12.87 3 25C3 37.13 12.87 47 25 47C37.13 47 47 37.13 47 25C47 12.87 37.13 3 25 3 z M 16.539062 11C16.539062 11 17.15 13.189687 18 13.679688C18 13.679688 17.390625 14.659375 17.390625 16.359375C17.390625 18.059375 18.249766 24.639375 17.759766 25.859375C17.269766 27.079375 15.199297 30.12 12.279297 30C9.3492969 29.87 8.1297656 28.170938 8.0097656 26.460938C7.8897656 24.770937 8.7300781 23.199375 9.8300781 21.859375C9.6800781 22.169375 7.9707031 25.790938 9.7207031 26.960938C11.540703 28.170938 14.710781 27.920938 16.300781 26.460938C17.880781 25.010938 15.449219 12.949219 15.449219 12.949219C15.449219 12.949219 16.299062 11.61 16.539062 11 z M 27.224609 14.015625C27.237422 14.054063 27.230469 14.160156 27.230469 14.160156C27.230469 14.160156 27.930547 13.789063 28.060547 17.539062C28.170547 21.289062 28.080938 26.529297 30.210938 26.779297C32.330937 27.019297 34.939609 26.900313 36.349609 25.570312C36.349609 25.570312 33.28 23.759375 31.75 24.609375C30.57 25.249375 30.220859 25.760938 30.130859 25.960938C30.290859 25.410937 31.330156 22.290312 33.160156 22.070312C35.170156 21.830313 37.179609 23.64 38.599609 24.25C40.019609 24.85 42 24.619141 42 24.619141L40.609375 27.019531C40.609375 27.019531 38.759688 26.770859 37.179688 27.380859C34.699688 28.350859 31.27 29.560938 29.5 28.710938C27.73 27.870938 27.099609 25.640859 27.099609 18.380859C27.099609 18.380859 26.279609 23.460859 25.099609 25.880859C23.919609 28.290859 20.61 30.589375 16 29.859375C16 29.859375 24.270547 27.929219 25.810547 20.199219C26.965547 14.394219 27.186172 13.900312 27.224609 14.015625 z M 18.050781 16C18.050781 16 23.619453 17.78 22.939453 24C22.939453 24 22.259766 21.220078 21.009766 20.330078C19.749766 19.440078 18.160781 19.67 18.050781 18C17.940781 16.33 18.050781 16 18.050781 16 z M 12 32L13.25 32L13.25 33.960938L15.220703 33.960938L15.220703 32L16.470703 32L16.470703 37L15.220703 37L15.220703 34.980469L13.25 34.980469L13.25 37L12 37L12 32 z M 19.279297 32L20.810547 32L22.470703 37L21.099609 37L20.800781 35.900391L19.189453 35.900391L18.869141 37L17.619141 37L19.279297 32 z M 23.619141 32L24.880859 32L24.880859 35.949219L26.970703 35.949219L26.970703 37L23.619141 37L23.619141 32 z M 29.810547 32L31.339844 32L33 37L31.630859 37L31.320312 35.900391L29.710938 35.900391L29.400391 37L28.150391 37L29.810547 32 z M 34.650391 32L35.910156 32L35.910156 35.949219L38 35.949219L38 37L34.650391 37L34.650391 32 z M 19.970703 33.130859L19.429688 34.990234L20.560547 34.990234L20.029297 33.130859L19.970703 33.130859 z M 30.490234 33.130859L29.949219 34.990234L31.089844 34.990234L30.560547 33.130859L30.490234 33.130859 z" />
</svg>