<?xml version="1.0" encoding="utf-8"?>
<svg xmlns="http://www.w3.org/2000/svg" viewBox="0 0 50 50" width="515" height="515">
  <path d="M17 0C14.789063 0 13 1.789063 13 4C13 6.210938 14.789063 8 17 8C19.210938 8 21 6.210938 21 4C21 1.789063 19.210938 0 17 0 Z M 33.5 4C31 4 29 6 29 8.5C29 11 31 13 33.5 13C36 13 38 11 38 8.5C38 6 36 4 33.5 4 Z M 11.15625 6.03125C9.953125 6.0625 9.4375 7.394531 10.8125 8.90625C11.414063 9.605469 14.792969 13.292969 16.09375 14.59375C16.492188 14.992188 16.8125 15.304688 17.3125 15.40625L22 16.1875L14.40625 28C14.40625 28 11.8125 31.695313 10.3125 34.59375C9.3125 36.492188 11.398438 38 13.5 36C14.898438 34.699219 21.6875 27.8125 21.6875 27.8125C21.6875 27.8125 13.289063 45.269531 12.6875 46.46875C12.1875 47.46875 11.195313 49.175781 13.09375 49.875C14.792969 50.574219 16.28125 47.96875 16.28125 47.96875L32.84375 21.59375C32.84375 21.59375 35.933594 24.1875 36.53125 24.6875C37.230469 25.1875 37.039063 25.582031 36.9375 26.28125C36.738281 26.980469 35.980469 28.824219 35.78125 29.625C35.582031 30.324219 35.640625 31.515625 36.90625 31.90625C38.171875 32.296875 38.792969 31.105469 39.09375 30.40625C39.292969 29.90625 40.304688 27.585938 40.90625 25.6875C41.003906 24.988281 41.09375 24.105469 40.59375 23.40625L35.1875 16.59375C34.886719 16.292969 34.585938 16.011719 34.1875 15.8125C32.585938 15.011719 28.886719 13 27.6875 12.5C26.1875 11.800781 24.5 11.6875 24.5 11.6875L18.1875 11.1875C18.1875 11.1875 14.292969 7.804688 13.09375 6.90625C12.375 6.28125 11.703125 6.019531 11.15625 6.03125Z" />
</svg>