<?xml version="1.0" encoding="utf-8"?>
<svg xmlns="http://www.w3.org/2000/svg" viewBox="0 0 50 50" width="515" height="515">
  <path d="M25 2C24.875 2 24.746094 2.03125 24.628906 2.097656L15.855469 7.101563L25 13.253906L34.199219 7.136719L25.367188 2.097656C25.253906 2.03125 25.125 2 25 2 Z M 15 8.4375L15 17.71875C15 17.960938 15.101563 18.191406 15.28125 18.34375L24.230469 26L24.230469 14.652344 Z M 35 8.507813L25.769531 14.652344L25.769531 26L34.71875 18.34375C34.894531 18.191406 35 17.960938 35 17.71875 Z M 5 12C3.394531 12 2 13 2 15L2 27C2 30 2.933594 30.839844 4 32C4 32 9.96875 39.660156 11 41L11 47.140625C11 48 11.800781 48 12 48L20 48C21 48 21 47.433594 21 47L21 39C21 35.320313 19.171875 32.628906 17.0625 30.507813L12.269531 25.394531C10.4375 23.5625 9.03125 24.757813 8.757813 25.046875C7.855469 25.992188 7.851563 27.464844 8.742188 28.394531L13.535156 33.488281C13.855469 33.824219 13.855469 34.367188 13.535156 34.703125C13.378906 34.871094 13.167969 34.953125 12.957031 34.953125C12.75 34.953125 12.539063 34.871094 12.378906 34.703125L7.988281 30.011719C5 27 7 24 8 24L8 15C8 13 6.605469 12 5 12 Z M 45 12C43.394531 12 42 13 42 15L42 24C43 24 45 27 42.011719 30.011719L37.621094 34.703125C37.460938 34.871094 37.25 34.953125 37.042969 34.953125C36.832031 34.953125 36.621094 34.871094 36.464844 34.703125C36.144531 34.367188 36.144531 33.824219 36.464844 33.488281L41.261719 28.394531C42.148438 27.464844 42.144531 25.992188 41.246094 25.046875C40.96875 24.757813 39.5625 23.5625 37.730469 25.394531L32.9375 30.507813C30.828125 32.628906 29 35.320313 29 39L29 47C29 47.433594 29 48 30 48L38 48C38.199219 48 39 48 39 47.140625L39 41C40.03125 39.660156 46 32 46 32C47.066406 30.839844 48 30 48 27L48 15C48 13 46.605469 12 45 12Z" />
</svg>