<?xml version="1.0" encoding="utf-8"?>
<svg xmlns="http://www.w3.org/2000/svg" viewBox="0 0 50 50" width="515" height="515">
  <path d="M30.03125 2.09375C29.75 2.101563 29.472656 2.125 29.1875 2.1875C28.074219 2.4375 27.089844 3.097656 26.46875 4.03125C25.886719 4.90625 25.675781 5.972656 25.84375 7.03125L22.8125 8.625L24.3125 10.125L26.59375 8.90625C26.90625 9.347656 27.300781 9.734375 27.75 10.03125C28.210938 10.339844 28.820313 10.210938 29.125 9.75C29.433594 9.289063 29.304688 8.679688 28.84375 8.375C28.667969 8.257813 28.542969 8.09375 28.40625 7.9375L28.875 7.6875C29.363281 7.425781 29.542969 6.832031 29.28125 6.34375C29.023438 5.855469 28.425781 5.648438 27.9375 5.90625L27.8125 5.96875C27.859375 5.675781 27.957031 5.40625 28.125 5.15625C28.828125 4.097656 30.335938 3.765625 31.34375 4.4375C31.375 4.457031 31.402344 4.484375 31.4375 4.5C31.597656 4.582031 32.324219 5.058594 32.75 5.34375C33.019531 5.523438 33.261719 5.695313 33.46875 5.84375C33.71875 6.023438 33.921875 6.167969 34.0625 6.25C35.097656 6.960938 35.441406 8.460938 34.75 9.5C34.566406 9.804688 34.214844 10.078125 33.75 10.3125C33.257813 10.558594 33.066406 11.164063 33.3125 11.65625C33.488281 12.007813 33.820313 12.1875 34.1875 12.1875C34.339844 12.1875 34.511719 12.164063 34.65625 12.09375C35.472656 11.683594 36.082031 11.160156 36.4375 10.5625C37.070313 9.613281 37.257813 8.433594 37 7.28125C36.753906 6.171875 36.089844 5.183594 35.15625 4.5625C35.136719 4.546875 35.082031 4.511719 35.0625 4.5C34.972656 4.449219 34.839844 4.351563 34.65625 4.21875C34.429688 4.054688 34.136719 3.851563 33.84375 3.65625C33.128906 3.179688 32.664063 2.890625 32.40625 2.75C31.699219 2.292969 30.875 2.070313 30.03125 2.09375 Z M 16.34375 4.9375C15.554688 4.9375 14.773438 5.226563 14.1875 5.8125L11.3125 8.75C7.976563 8.449219 4.902344 9.476563 2.78125 11.59375C-1.464844 15.949219 -0.796875 23.640625 4.28125 28.71875C6.976563 31.414063 10.542969 32.9375 14.0625 32.9375C16.9375 32.9375 19.5625 31.894531 21.375 30.03125C23.566406 28.035156 24.582031 25.050781 24.25 21.5625L27.09375 18.59375C27.667969 18.019531 28 17.253906 28 16.4375C28 15.621094 27.671875 14.859375 27.09375 14.28125L18.5 5.78125C17.925781 5.207031 17.132813 4.9375 16.34375 4.9375 Z M 32.96875 7.3125C32.839844 7.328125 32.714844 7.367188 32.59375 7.4375C31.582031 8.015625 30.917969 8.671875 30.59375 9.4375C30.085938 10.453125 30.046875 11.730469 30.46875 12.84375C30.480469 12.871094 30.484375 12.910156 30.5 12.9375C30.542969 13.027344 30.707031 13.484375 30.9375 14.28125C31.140625 14.996094 31.421875 15.707031 31.5625 16C32.058594 17.328125 33.207031 18.300781 34.5 18.65625L34.1875 21.0625L36.25 20.71875L36.53125 18.71875C36.679688 18.6875 36.828125 18.660156 36.96875 18.625L37.21875 18.5625C38.277344 18.210938 39.101563 17.421875 39.6875 16.25C40.195313 15.238281 40.261719 13.957031 39.84375 12.84375C39.832031 12.8125 39.796875 12.777344 39.78125 12.75C39.738281 12.660156 39.59375 12.234375 39.375 11.46875C39.300781 11.171875 39.171875 10.859375 39.0625 10.59375C39.015625 10.480469 38.96875 10.375 38.9375 10.28125C38.761719 9.757813 38.210938 9.484375 37.6875 9.65625C37.164063 9.832031 36.886719 10.382813 37.0625 10.90625C37.105469 11.039063 37.15625 11.1875 37.21875 11.34375C37.292969 11.527344 37.378906 11.734375 37.4375 11.96875C37.539063 12.328125 37.78125 13.183594 37.96875 13.59375C38.171875 14.171875 38.15625 14.84375 37.90625 15.34375C37.601563 15.949219 37.21875 16.367188 36.8125 16.5625L36.90625 15.9375C36.976563 15.390625 36.578125 14.886719 36.03125 14.8125C35.496094 14.738281 34.976563 15.109375 34.90625 15.65625L34.78125 16.625C34.175781 16.382813 33.667969 15.894531 33.4375 15.25C33.425781 15.214844 33.425781 15.191406 33.40625 15.15625C33.332031 15.003906 33.054688 14.347656 32.875 13.71875C32.773438 13.359375 32.5 12.53125 32.3125 12.125C32.105469 11.546875 32.132813 10.832031 32.40625 10.28125C32.582031 9.875 32.964844 9.515625 33.59375 9.15625C34.074219 8.882813 34.242188 8.292969 33.96875 7.8125C33.761719 7.453125 33.355469 7.265625 32.96875 7.3125 Z M 19.65625 11.84375C20.019531 11.84375 20.386719 12.011719 20.6875 12.3125C21.289063 12.8125 21.289063 13.710938 20.6875 14.3125C20.386719 14.613281 19.988281 14.6875 19.6875 14.6875L19.1875 15.1875C18.789063 15.585938 18.210938 15.585938 17.8125 15.1875C17.414063 14.789063 17.414063 14.210938 17.8125 13.8125L18.3125 13.3125C18.3125 12.914063 18.386719 12.613281 18.6875 12.3125C18.9375 12.011719 19.292969 11.84375 19.65625 11.84375 Z M 9.75 13.8125C11.933594 13.699219 14.46875 14.65625 16.40625 16.59375C19.507813 19.695313 20.207031 24.292969 17.90625 26.59375C15.605469 28.894531 11.007813 28.1875 7.90625 25.1875C4.804688 22.085938 4.105469 17.488281 6.40625 15.1875C7.269531 14.324219 8.441406 13.878906 9.75 13.8125 Z M 40.53125 21L28.625 23.03125C27.042969 23.320313 25.96875 24.738281 26.125 26.4375L26.75 30.46875C24.605469 32.90625 23.585938 35.980469 24 38.96875C24.855469 44.1875 30.007813 47.96875 36.25 47.96875C37.039063 47.96875 37.859375 47.902344 38.65625 47.78125C42.480469 47.203125 45.871094 45.207031 47.96875 42.3125C49.625 40.027344 50.300781 37.386719 49.875 34.84375C49.386719 31.898438 47.539063 29.316406 44.625 27.5625L43.96875 23.53125C43.699219 22.042969 42.445313 21 40.90625 21C40.808594 21 40.707031 20.980469 40.53125 21 Z M 35.09375 25C35.894531 24.898438 36.585938 25.386719 36.6875 26.1875C36.789063 26.585938 36.707031 27.011719 36.40625 27.3125C36.40625 27.511719 36.5 27.804688 36.5 27.90625C36.601563 28.40625 36.1875 28.898438 35.6875 29C35.1875 29.101563 34.695313 28.6875 34.59375 28.1875C34.59375 28.085938 34.5 27.792969 34.5 27.59375C34.199219 27.394531 34.007813 27.085938 33.90625 26.6875C33.804688 25.886719 34.292969 25.101563 35.09375 25 Z M 37.6875 30.78125C41.359375 30.757813 44.5625 32.707031 45 35.59375C45.5 38.792969 42.300781 42.113281 38 42.8125C33.699219 43.511719 29.59375 41.394531 29.09375 38.09375C28.59375 34.894531 31.792969 31.605469 36.09375 30.90625C36.632813 30.820313 37.164063 30.785156 37.6875 30.78125Z" />
</svg>