<?xml version="1.0" encoding="utf-8"?>
<svg xmlns="http://www.w3.org/2000/svg" viewBox="0 0 50 50" width="515" height="515">
  <path d="M13.800781 5.875C10.726563 5.875 7.652344 7.050781 5.300781 9.398438C0.601563 14.101563 0.601563 21.699219 5.300781 26.402344L7.300781 28.402344C7.601563 28.199219 7.800781 28 8 27.800781L11.902344 23.902344C12.5 23.300781 13.199219 23 14 23C14.800781 23 15.597656 23.300781 16.097656 23.902344L17.699219 25.5C18.300781 26.101563 18.597656 26.800781 18.597656 27.597656C19.398438 27.597656 20.097656 27.898438 20.699219 28.5L22.300781 30.097656C22.902344 30.699219 23.199219 31.398438 23.199219 32.199219C24 32.199219 24.699219 32.5 25.300781 33.097656L26.902344 34.699219C27.5 35.300781 27.800781 36 27.800781 36.800781C28.601563 36.800781 29.300781 37.097656 29.902344 37.699219L31.5 39.300781C31.699219 39.5 31.898438 39.699219 32 40L33.5 38.5C33.699219 38.300781 33.800781 38.101563 33.800781 37.800781C33.800781 37.5 33.699219 37.300781 33.5 37.097656L27.097656 30.699219C26.699219 30.300781 26.699219 29.699219 27.097656 29.300781C27.5 28.902344 28.101563 28.902344 28.5 29.300781L34.902344 35.699219C35.300781 36.097656 35.902344 36.097656 36.300781 35.699219L37.902344 34.097656C38.101563 33.898438 38.199219 33.699219 38.199219 33.402344C38.199219 33.101563 38.101563 32.898438 37.902344 32.699219L31.5 26.300781C31.101563 25.902344 31.101563 25.300781 31.5 24.902344C31.898438 24.5 32.5 24.5 32.902344 24.902344L35.699219 27.699219L39.402344 31.199219C39.800781 31.597656 40.402344 31.597656 40.800781 31.199219L42.402344 29.597656C42.601563 29.398438 42.699219 29.199219 42.699219 28.902344C42.5 28.199219 42.398438 28 42.199219 27.800781L30.902344 16.5L24.902344 22.597656C24 23.5 22.898438 24 21.597656 24C20.300781 24 19.199219 23.5 18.300781 22.597656C17.402344 21.699219 16.902344 20.601563 16.902344 19.300781C16.902344 18.101563 17.402344 16.898438 18.300781 16L23.597656 10.699219L22.300781 9.398438C19.949219 7.050781 16.875 5.875 13.800781 5.875 Z M 36.574219 6.011719C33.722656 5.925781 30.851563 6.898438 28.5 8.898438C28.398438 8.898438 19.902344 17.5 19.902344 17.5C19.402344 18 19.097656 18.699219 19.097656 19.402344C19.097656 20.101563 19.402344 20.800781 19.902344 21.300781C20.902344 22.300781 22.597656 22.300781 23.597656 21.300781L30.300781 14.5C30.300781 14.5 30.5 14.199219 31 14.199219C31.398438 14.199219 31.699219 14.5 31.699219 14.5L44.199219 27L44.597656 26.597656C49.199219 21.800781 49.199219 14.199219 44.5 9.5C42.25 7.25 39.425781 6.097656 36.574219 6.011719 Z M 14 25C13.699219 25 13.5 25.101563 13.300781 25.300781L9.398438 29.199219C9 29.597656 9 30.199219 9.398438 30.597656L11 32.199219C11.199219 32.398438 11.5 32.5 11.699219 32.5C12 32.5 12.199219 32.398438 12.402344 32.199219L16.300781 28.300781C16.699219 27.902344 16.699219 27.300781 16.300781 26.902344L14.699219 25.300781C14.5 25.101563 14.300781 25 14 25 Z M 18.5 29.5C18.199219 29.5 18 29.601563 17.800781 29.800781L13.902344 33.699219C13.5 34.097656 13.5 34.699219 13.902344 35.097656L15.5 36.699219C15.699219 36.898438 16 37 16.199219 37C16.398438 37 16.699219 36.898438 16.902344 36.699219L20.800781 32.800781C21.199219 32.402344 21.199219 31.800781 20.800781 31.402344L19.199219 29.800781C19 29.601563 18.699219 29.5 18.5 29.5 Z M 23 34C22.699219 34 22.5 34.101563 22.300781 34.300781L18.402344 38.199219C18 38.597656 18 39.199219 18.402344 39.597656L20 41.199219C20.199219 41.398438 20.5 41.5 20.699219 41.5C20.898438 41.5 21.199219 41.398438 21.402344 41.199219L25.300781 37.300781C25.699219 36.902344 25.699219 36.300781 25.300781 35.902344L23.699219 34.300781C23.5 34.101563 23.300781 34 23 34 Z M 27.5 38.5C27.199219 38.5 27 38.601563 26.800781 38.800781L22.902344 42.699219C22.5 43.097656 22.5 43.699219 22.902344 44.097656L24.5 45.699219C24.699219 45.898438 25 46 25.199219 46C25.398438 46 25.699219 45.898438 25.902344 45.699219L29.800781 41.800781C30.199219 41.402344 30.199219 40.800781 29.800781 40.402344L28.199219 38.800781C28 38.601563 27.699219 38.5 27.5 38.5Z" />
</svg>