<?xml version="1.0" encoding="utf-8"?>
<svg xmlns="http://www.w3.org/2000/svg" viewBox="0 0 50 50" width="515" height="515">
  <path d="M19 5C17.769531 5 16.589844 5.742188 15.84375 6.984375L4.691406 22.3125C3.566406 23.882813 3 25.660156 3 27.597656L3 37C3 41.964844 7.039063 46 12 46L27 46C30.097656 46 32 43.496094 32 41.699219C32 40.863281 31.824219 40.164063 31.628906 39.640625C32.617188 39.027344 34 37.808594 34 35.800781C34 34.394531 33.335938 33.433594 32.675781 32.828125C33.328125 32.144531 34 31.101563 34 29.699219C34 28.308594 33.472656 27.515625 33 27L43.5 27C45.425781 27 47 25.425781 47 23.5C47 21.574219 45.425781 20 43.5 20L18 20C19.039063 17.671875 20.960938 12.597656 21.34375 11.535156C21.394531 11.394531 21.453125 11.25 21.511719 11.109375C21.75 10.519531 22 9.910156 22 9C22 5.828125 20.660156 5 19 5Z" />
</svg>