<?xml version="1.0" encoding="utf-8"?>
<svg xmlns="http://www.w3.org/2000/svg" viewBox="0 0 50 50" width="515" height="515">
  <path d="M36 47L26.601563 47C24.660156 47 22.886719 46.433594 21.3125 45.308594L5.984375 34.15625C4.742188 33.410156 4 32.230469 4 31C4 29.339844 4.828125 28 8 28C8.910156 28 9.519531 28.25 10.109375 28.488281C10.25 28.546875 10.394531 28.605469 10.535156 28.65625C11.597656 29.039063 16.671875 30.960938 19 32L19 6.5C19 4.574219 20.574219 3 22.5 3C24.425781 3 26 4.574219 26 6.5L26 16.921875C26.515625 16.445313 27.308594 16 28.699219 16C30.105469 16 31.144531 16.671875 31.824219 17.324219C32.433594 16.664063 33.390625 16 34.800781 16C36.808594 16 38.023438 17.382813 38.640625 18.371094C39.164063 18.175781 39.867188 18 40.699219 18C42.496094 18 45 19.902344 45 23L45 38C45 42.960938 40.964844 47 36 47Z" />
</svg>