<?xml version="1.0" encoding="utf-8"?>
<svg xmlns="http://www.w3.org/2000/svg" viewBox="0 0 50 50" width="515" height="515">
  <path d="M3.78125 18C1.863281 18 0 19.015625 0 23C0 27.542969 2.917969 32 12 32C18.707031 32 23.140625 29.898438 25 27.125C26.859375 29.898438 31.292969 32 38 32C47.082031 32 50 27.542969 50 23C50 19.015625 48.136719 18 46.21875 18C44.421875 18 44 20 44 20C44 20 44.625 19 46 19C48 19 48 21.25 48 22C48 22.75 47.1875 27 43 27C36.9375 27 30.917969 21 28 21C27.335938 21 25.953125 21.101563 25 21.84375C24.046875 21.101563 22.664063 21 22 21C19.082031 21 13.0625 27 7 27C2.8125 27 2 22.75 2 22C2 21.25 2 19 4 19C5.375 19 6 20 6 20C6 20 5.578125 18 3.78125 18Z" />
</svg>