<?xml version="1.0" encoding="utf-8"?>
<svg xmlns="http://www.w3.org/2000/svg" viewBox="0 0 50 50" width="515" height="515">
  <path d="M25 12C22.261719 12 20 14.261719 20 17C19.988281 17.722656 20.367188 18.390625 20.992188 18.753906C21.613281 19.121094 22.386719 19.121094 23.007813 18.753906C23.632813 18.390625 24.011719 17.722656 24 17C24 16.421875 24.421875 16 25 16C25.578125 16 26 16.421875 26 17C26 17.871094 25.859375 17.84375 25.21875 18.375C24.898438 18.640625 24.453125 18.945313 23.96875 19.5C23.484375 20.054688 23 21 23 22L23 22.875C22.027344 23.308594 18.640625 24.804688 14.15625 26.8125C9.070313 29.089844 4.066406 31.34375 3.21875 31.75C2.78125 31.960938 2.195313 32.179688 1.5625 32.59375C0.929688 33.007813 0 33.90625 0 35.21875C0 35.90625 0.351563 36.609375 0.75 37C1.148438 37.390625 1.546875 37.558594 1.90625 37.6875C2.628906 37.945313 3.296875 38 4 38L46 38C46.488281 38 47.058594 38.105469 48 37.8125C48.472656 37.667969 49.105469 37.320313 49.5 36.75C49.894531 36.179688 50 35.546875 50 35C50 34.304688 49.652344 33.640625 49.3125 33.25C48.972656 32.859375 48.640625 32.667969 48.34375 32.5C47.75 32.160156 47.246094 31.96875 46.84375 31.78125C46.078125 31.421875 40.976563 29.128906 35.875 26.84375C31.375 24.828125 27.972656 23.308594 27 22.875L27 22.09375C27.089844 21.996094 27.367188 21.78125 27.78125 21.4375C28.640625 20.71875 30 19.179688 30 17C30 14.261719 27.738281 12 25 12 Z M 25 26.375C25.710938 26.691406 29.535156 28.402344 34.21875 30.5C37.859375 32.132813 40.003906 33.085938 42.03125 34L7.9375 34C9.910156 33.109375 12.101563 32.113281 15.78125 30.46875C20.453125 28.378906 24.289063 26.691406 25 26.375Z" />
</svg>