<?xml version="1.0" encoding="utf-8"?>
<svg xmlns="http://www.w3.org/2000/svg" viewBox="0 0 50 50" width="515" height="515">
  <path d="M25 2C12.264481 2 2 12.264481 2 25C2 37.735519 12.264481 48 25 48C37.735519 48 48 37.735519 48 25C48 12.264481 37.735519 2 25 2 z M 17 19C18.7 19 20 20.3 20 22C20 23.7 18.7 25 17 25C15.3 25 14 23.7 14 22C14 20.3 15.3 19 17 19 z M 33 19C34.7 19 36 20.3 36 22C36 23.7 34.7 25 33 25C31.3 25 30 23.7 30 22C30 20.3 31.3 19 33 19 z M 37.824219 30C38.074219 29.975 38.349609 30.049219 38.599609 30.199219C39.099609 30.499219 39.100781 31.099609 38.800781 31.599609C38.600781 31.899609 33.4 39 25 39C16.6 39 11.399219 31.899609 11.199219 31.599609C10.899219 31.099609 11.000391 30.499219 11.400391 30.199219C11.800391 29.899219 12.500781 30.000391 12.800781 30.400391C12.800781 30.500391 17.6 37 25 37C32.4 37 37.099219 30.500391 37.199219 30.400391C37.349219 30.150391 37.574219 30.025 37.824219 30 z" />
</svg>