<?xml version="1.0" encoding="utf-8"?>
<svg xmlns="http://www.w3.org/2000/svg" viewBox="0 0 50 50" width="515" height="515">
  <path d="M11 4C9.347656 4 8 5.347656 8 7L8 12L7 12C6.96875 12 6.9375 12 6.90625 12C6.355469 12.027344 5.925781 12.496094 5.953125 13.046875C5.980469 13.597656 6.449219 14.027344 7 14L11 14C11.355469 14.007813 11.6875 13.832031 11.875 13.53125C11.953125 13.671875 12 13.828125 12 14C12 14.550781 11.550781 15 11 15L8 15L8 18L7 18C6.96875 18 6.9375 18 6.90625 18C6.355469 18.027344 5.925781 18.496094 5.953125 19.046875C5.980469 19.597656 6.449219 20.027344 7 20L11 20C11.355469 20.007813 11.6875 19.832031 11.875 19.53125C11.953125 19.671875 12 19.828125 12 20C12 20.550781 11.550781 21 11 21L8 21L8 24L7 24C6.96875 24 6.9375 24 6.90625 24C6.355469 24.027344 5.925781 24.496094 5.953125 25.046875C5.980469 25.597656 6.449219 26.027344 7 26L11 26C11.355469 26.007813 11.6875 25.832031 11.875 25.53125C11.953125 25.671875 12 25.828125 12 26C12 26.554688 11.550781 27 11 27L8 27L8 30L7 30C6.96875 30 6.9375 30 6.90625 30C6.355469 30.027344 5.925781 30.496094 5.953125 31.046875C5.980469 31.597656 6.449219 32.027344 7 32L11 32C11.355469 32.007813 11.6875 31.832031 11.875 31.53125C11.953125 31.671875 12 31.828125 12 32C12 32.554688 11.550781 33 11 33L8 33L8 36L7 36C6.96875 36 6.9375 36 6.90625 36C6.355469 36.027344 5.925781 36.496094 5.953125 37.046875C5.980469 37.597656 6.449219 38.027344 7 38L11 38C11.355469 38.007813 11.6875 37.832031 11.875 37.53125C11.953125 37.671875 12 37.828125 12 38C12 38.554688 11.550781 39 11 39L8 39L8 43C8 44.652344 9.347656 46 11 46L39 46C40.652344 46 42 44.652344 42 43L42 7C42 5.347656 40.652344 4 39 4 Z M 23 17L27 17L27 23L33 23L33 27L27 27L27 33L23 33L23 27L17 27L17 23L23 23Z" />
</svg>