<?xml version="1.0" encoding="utf-8"?>
<svg xmlns="http://www.w3.org/2000/svg" viewBox="0 0 50 50" width="515" height="515">
  <path d="M46.453125 12.351563C46.210938 12.621094 45.984375 12.875 45.730469 13.152344L24.964844 33.207031L11.878906 20.121094C10.707031 18.949219 10.707031 17.050781 11.878906 15.878906C13.050781 14.707031 14.949219 14.707031 16.121094 15.878906L25.035156 24.796875L41.613281 8.789063C41.605469 8.78125 41.851563 8.496094 42.265625 8.027344L41.875 7.753906C39.777344 6.589844 37.617188 6 35.449219 6C31.273438 6 27.347656 8.117188 25.011719 11.519531C22.710938 8.074219 18.847656 6 14.550781 6C7.628906 6 2 11.5625 2 18.398438C2 21.800781 3.363281 24.953125 5.8125 27.25L25 46.414063L44.511719 26.929688C46.730469 24.742188 48 21.632813 48 18.398438C48 16.507813 47.527344 14.539063 46.628906 12.710938Z" />
</svg>