<?xml version="1.0" encoding="utf-8"?>
<svg xmlns="http://www.w3.org/2000/svg" viewBox="0 0 50 50" width="515" height="515">
  <path d="M15.8125 1C14.707031 1.050781 13.855469 1.988281 13.90625 3.09375C13.957031 4.199219 14.894531 5.050781 16 5L34 5C34.722656 5.011719 35.390625 4.632813 35.753906 4.007813C36.121094 3.386719 36.121094 2.613281 35.753906 1.992188C35.390625 1.367188 34.722656 0.988281 34 1L16 1C15.9375 0.996094 15.875 0.996094 15.8125 1 Z M 24.9375 5.96875C24.894531 5.976563 24.851563 5.988281 24.8125 6C24.558594 6.050781 24.335938 6.195313 24.1875 6.40625L20.1875 11.6875C19.851563 12.136719 19.941406 12.773438 20.390625 13.109375C20.839844 13.445313 21.476563 13.355469 21.8125 12.90625L24 10L24 40L21.8125 37.09375C21.59375 36.785156 21.21875 36.628906 20.84375 36.6875C20.480469 36.730469 20.171875 36.96875 20.035156 37.304688C19.898438 37.644531 19.957031 38.03125 20.1875 38.3125L24.1875 43.59375C24.375 43.855469 24.679688 44.011719 25 44.011719C25.320313 44.011719 25.625 43.855469 25.8125 43.59375L29.8125 38.3125C30.148438 37.863281 30.058594 37.226563 29.609375 36.890625C29.160156 36.554688 28.523438 36.644531 28.1875 37.09375L26 40L26 10L28.1875 12.90625C28.523438 13.355469 29.160156 13.445313 29.609375 13.109375C30.058594 12.773438 30.148438 12.136719 29.8125 11.6875L25.8125 6.40625C25.617188 6.117188 25.285156 5.953125 24.9375 5.96875 Z M 15 6C14.449219 6 14 6.449219 14 7C14 7.550781 14.449219 8 15 8C15.550781 8 16 7.550781 16 7C16 6.449219 15.550781 6 15 6 Z M 35 6C34.449219 6 34 6.449219 34 7C34 7.550781 34.449219 8 35 8C35.550781 8 36 7.550781 36 7C36 6.449219 35.550781 6 35 6 Z M 15 10C14.449219 10 14 10.449219 14 11C14 11.550781 14.449219 12 15 12C15.550781 12 16 11.550781 16 11C16 10.449219 15.550781 10 15 10 Z M 35 10C34.449219 10 34 10.449219 34 11C34 11.550781 34.449219 12 35 12C35.550781 12 36 11.550781 36 11C36 10.449219 35.550781 10 35 10 Z M 15 14C14.449219 14 14 14.449219 14 15C14 15.550781 14.449219 16 15 16C15.550781 16 16 15.550781 16 15C16 14.449219 15.550781 14 15 14 Z M 35 14C34.449219 14 34 14.449219 34 15C34 15.550781 34.449219 16 35 16C35.550781 16 36 15.550781 36 15C36 14.449219 35.550781 14 35 14 Z M 15 18C14.449219 18 14 18.449219 14 19C14 19.550781 14.449219 20 15 20C15.550781 20 16 19.550781 16 19C16 18.449219 15.550781 18 15 18 Z M 35 18C34.449219 18 34 18.449219 34 19C34 19.550781 34.449219 20 35 20C35.550781 20 36 19.550781 36 19C36 18.449219 35.550781 18 35 18 Z M 15 22C14.449219 22 14 22.449219 14 23C14 23.550781 14.449219 24 15 24C15.550781 24 16 23.550781 16 23C16 22.449219 15.550781 22 15 22 Z M 35 22C34.449219 22 34 22.449219 34 23C34 23.550781 34.449219 24 35 24C35.550781 24 36 23.550781 36 23C36 22.449219 35.550781 22 35 22 Z M 15 26C14.449219 26 14 26.449219 14 27C14 27.550781 14.449219 28 15 28C15.550781 28 16 27.550781 16 27C16 26.449219 15.550781 26 15 26 Z M 35 26C34.449219 26 34 26.449219 34 27C34 27.550781 34.449219 28 35 28C35.550781 28 36 27.550781 36 27C36 26.449219 35.550781 26 35 26 Z M 15 30C14.449219 30 14 30.449219 14 31C14 31.550781 14.449219 32 15 32C15.550781 32 16 31.550781 16 31C16 30.449219 15.550781 30 15 30 Z M 35 30C34.449219 30 34 30.449219 34 31C34 31.550781 34.449219 32 35 32C35.550781 32 36 31.550781 36 31C36 30.449219 35.550781 30 35 30 Z M 15 34C14.449219 34 14 34.449219 14 35C14 35.550781 14.449219 36 15 36C15.550781 36 16 35.550781 16 35C16 34.449219 15.550781 34 15 34 Z M 35 34C34.449219 34 34 34.449219 34 35C34 35.550781 34.449219 36 35 36C35.550781 36 36 35.550781 36 35C36 34.449219 35.550781 34 35 34 Z M 15 38C14.449219 38 14 38.449219 14 39C14 39.550781 14.449219 40 15 40C15.550781 40 16 39.550781 16 39C16 38.449219 15.550781 38 15 38 Z M 35 38C34.449219 38 34 38.449219 34 39C34 39.550781 34.449219 40 35 40C35.550781 40 36 39.550781 36 39C36 38.449219 35.550781 38 35 38 Z M 15 42C14.449219 42 14 42.449219 14 43C14 43.550781 14.449219 44 15 44C15.550781 44 16 43.550781 16 43C16 42.449219 15.550781 42 15 42 Z M 35 42C34.449219 42 34 42.449219 34 43C34 43.550781 34.449219 44 35 44C35.550781 44 36 43.550781 36 43C36 42.449219 35.550781 42 35 42 Z M 15.8125 45C14.707031 45.050781 13.855469 45.988281 13.90625 47.09375C13.957031 48.199219 14.894531 49.050781 16 49L34 49C34.722656 49.011719 35.390625 48.632813 35.753906 48.007813C36.121094 47.386719 36.121094 46.613281 35.753906 45.992188C35.390625 45.367188 34.722656 44.988281 34 45L16 45C15.9375 44.996094 15.875 44.996094 15.8125 45Z" />
</svg>