<?xml version="1.0" encoding="utf-8"?>
<svg xmlns="http://www.w3.org/2000/svg" viewBox="0 0 50 50" width="515" height="515">
  <path d="M25 2C12.309295 2 2 12.309295 2 25C2 37.690705 12.309295 48 25 48C37.690705 48 48 37.690705 48 25C48 12.309295 37.690705 2 25 2 z M 25 4C36.609824 4 46 13.390176 46 25C46 36.609824 36.609824 46 25 46C13.390176 46 4 36.609824 4 25C4 13.390176 13.390176 4 25 4 z M 25 6C14.523 6 6 14.523 6 25C6 35.477 14.523 44 25 44C35.477 44 44 35.477 44 25C44 14.523 35.477 6 25 6 z M 24 13L26 13C26.552 13 27 13.448 27 14L27 27C27 27.552 26.552 28 26 28L24 28C23.448 28 23 27.552 23 27L23 14C23 13.448 23.448 13 24 13 z M 24 32L26 32C26.552 32 27 32.448 27 33L27 35C27 35.552 26.552 36 26 36L24 36C23.448 36 23 35.552 23 35L23 33C23 32.448 23.448 32 24 32 z" />
</svg>