<?xml version="1.0" encoding="utf-8"?>
<svg xmlns="http://www.w3.org/2000/svg" viewBox="0 0 50 50" width="515" height="515">
  <path d="M8 3C7.449219 3 7 3.449219 7 4L7 8C7 8.550781 7.449219 9 8 9L11 9L11 12C11 12.550781 11.449219 13 12 13L13 13L13 15.3125C13 19.609375 15.578125 23.289063 19.25 25C15.578125 26.710938 13 30.390625 13 34.6875L13 37L12 37C11.449219 37 11 37.445313 11 38L11 41L8 41C7.449219 41 7 41.445313 7 42L7 46C7 46.554688 7.449219 47 8 47L42 47C42.554688 47 43 46.554688 43 46L43 42C43 41.445313 42.554688 41 42 41L39 41L39 38C39 37.445313 38.554688 37 38 37L37 37L37 34.6875C37 30.390625 34.421875 26.710938 30.75 25C34.421875 23.289063 37 19.609375 37 15.3125L37 13L38 13C38.554688 13 39 12.550781 39 12L39 9L42 9C42.554688 9 43 8.550781 43 8L43 4C43 3.449219 42.554688 3 42 3 Z M 15 13L35 13L35 15.3125C35 19.890625 31.394531 23.640625 26.90625 24C26.359375 24.007813 25.921875 24.453125 25.921875 25C25.921875 25.546875 26.359375 25.992188 26.90625 26C31.394531 26.359375 35 30.109375 35 34.6875L35 37L15 37L15 34.6875C15 30.109375 18.605469 26.359375 23.09375 26C23.640625 25.992188 24.078125 25.546875 24.078125 25C24.078125 24.453125 23.640625 24.007813 23.09375 24C18.605469 23.640625 15 19.890625 15 15.3125 Z M 18 17C18 17 19.800781 22 25 22C30.199219 22 32 17 32 17 Z M 25 30C20.949219 30 18.738281 33.632813 17.71875 36L32.28125 36C31.261719 33.632813 29.050781 30 25 30Z" />
</svg>