<?xml version="1.0" encoding="utf-8"?>
<svg xmlns="http://www.w3.org/2000/svg" viewBox="0 0 50 50" width="515" height="515">
  <path d="M20.90625 2.78125L14.40625 18L27.65625 18 Z M 23.40625 3.5L29.78125 17.84375L39.09375 17C39.507813 16.960938 39.859375 16.652344 39.96875 16.25C40.078125 15.847656 39.933594 15.433594 39.59375 15.1875 Z M 18.34375 3.6875L2.40625 15.1875C2.066406 15.429688 1.921875 15.847656 2.03125 16.25C2.140625 16.652344 2.492188 16.960938 2.90625 17L12.28125 17.84375 Z M 20 19L20 27.90625C20.144531 28.003906 20.300781 28.105469 20.4375 28.21875L22 29.53125L22 19 Z M 41 22C38.792969 22 37 23.792969 37 26C37 28.207031 38.792969 30 41 30C41.34375 30 41.679688 29.925781 42 29.84375L27.75 37L3 37C2.449219 37 2 37.445313 2 38L2 41C2 41.554688 2.449219 42 3 42L47 42C47.554688 42 48 41.554688 48 41L48 38C48 37.445313 47.554688 37 47 37L44.75 37L43.1875 31.5L46.3125 29.9375C46.839844 29.765625 47.125 29.199219 46.953125 28.671875C46.78125 28.144531 46.214844 27.859375 45.6875 28.03125C45.601563 28.050781 45.515625 28.082031 45.4375 28.125L43.46875 29.09375C44.390625 28.359375 45 27.265625 45 26C45 23.792969 43.207031 22 41 22 Z M 33.28125 27C32.828125 27.027344 32.367188 27.160156 31.9375 27.375L20.65625 33L7 33C5.898438 33 5 33.898438 5 35C5 35.363281 5.109375 35.703125 5.28125 36L27.53125 36L36.875 31.3125C37.058594 30.539063 37.007813 29.703125 36.625 28.9375C35.976563 27.644531 34.640625 26.914063 33.28125 27 Z M 17.21875 29C16.527344 28.972656 15.8125 29.171875 15.21875 29.59375L11.8125 32L20.4375 32L21.3125 31.5625L19.15625 29.75C18.597656 29.28125 17.910156 29.027344 17.21875 29 Z M 41.34375 32.4375L42.65625 37L32.25 37 Z M 5 44L5 47C5 47.554688 5.449219 48 6 48L10 48C10.550781 48 11 47.554688 11 47L11 44 Z M 39 44L39 47C39 47.554688 39.449219 48 40 48L44 48C44.550781 48 45 47.554688 45 47L45 44Z" />
</svg>