<?xml version="1.0" encoding="utf-8"?>
<svg xmlns="http://www.w3.org/2000/svg" viewBox="0 0 50 50" width="515" height="515">
  <path d="M25 1C24.7825 1 24.565859 1.0709375 24.380859 1.2109375L1.3808594 19.210938C0.95085938 19.550937 0.8709375 20.179141 1.2109375 20.619141C1.5509375 21.049141 2.1791406 21.129063 2.6191406 20.789062L4 19.699219L4 46C4 46.55 4.45 47 5 47L45 47C45.55 47 46 46.55 46 46L46 19.699219L47.380859 20.789062C47.570859 20.929063 47.78 21 48 21C48.3 21 48.589063 20.869141 48.789062 20.619141C49.129063 20.179141 49.049141 19.550937 48.619141 19.210938L25.619141 1.2109375C25.434141 1.0709375 25.2175 1 25 1 z M 22.619141 16L27.109375 16C27.379375 16 27.660156 16.190938 27.660156 16.460938L27.929688 19.300781C28.669687 19.670781 29.309219 20.040234 29.949219 20.490234L32.609375 19.300781C32.699375 19.240781 32.800625 19.210938 32.890625 19.210938C33.060625 19.210938 33.219844 19.310234 33.339844 19.490234L35.630859 23.429688C35.720859 23.699688 35.719219 23.980156 35.449219 24.160156L33.160156 25.810547C33.250156 26.270547 33.25 26.63 33.25 27C33.25 27.37 33.250156 27.729453 33.160156 28.189453L35.720703 29.839844C36.000703 30.019844 36.090391 30.300312 35.900391 30.570312L33.609375 34.509766C33.479375 34.649766 33.299609 34.730469 33.099609 34.730469C33.029609 34.730469 32.950859 34.719219 32.880859 34.699219L30.220703 33.509766C29.580703 34.059766 28.940937 34.419219 28.210938 34.699219L27.929688 37.539062C27.929688 37.809063 27.660859 38 27.380859 38L22.890625 38C22.620625 38 22.339844 37.809062 22.339844 37.539062L22.070312 34.699219C21.330313 34.329219 20.690781 33.959766 20.050781 33.509766L17.390625 34.699219C17.300625 34.759219 17.199375 34.789062 17.109375 34.789062C16.939375 34.789062 16.780156 34.689766 16.660156 34.509766L14.369141 30.570312C14.279141 30.300313 14.280781 30.019844 14.550781 29.839844L16.839844 28.189453C16.749844 27.729453 16.75 27.37 16.75 27C16.75 26.63 16.750859 26.25 16.880859 25.75L14.279297 24.160156C13.999297 23.980156 13.909609 23.699687 14.099609 23.429688L16.390625 19.490234C16.520625 19.350234 16.700391 19.269531 16.900391 19.269531C16.970391 19.269531 17.049141 19.280781 17.119141 19.300781L19.779297 20.490234C20.419297 19.940234 21.059063 19.580781 21.789062 19.300781L22.070312 16.460938C22.070312 16.190938 22.339141 16 22.619141 16 z M 25 23C22.76 23 21 24.76 21 27C21 29.24 22.76 31 25 31C27.24 31 29 29.24 29 27C29 24.76 27.24 23 25 23 z" />
</svg>