<?xml version="1.0" encoding="utf-8"?>
<svg xmlns="http://www.w3.org/2000/svg" viewBox="0 0 50 50" width="515" height="515">
  <path d="M25 2C12.317 2 2 12.318 2 25C2 37.682 12.317 48 25 48C37.683 48 48 37.682 48 25C48 12.318 37.683 2 25 2 z M 19 16L31 16C32.654 16 34 17.346 34 19L34 31C34 32.654 32.654 34 31 34L19 34C17.346 34 16 32.654 16 31L16 19C16 17.346 17.346 16 19 16 z M 19 18C18.448 18 18 18.449 18 19L18 31C18 31.551 18.448 32 19 32L31 32C31.552 32 32 31.551 32 31L32 19C32 18.449 31.552 18 31 18L19 18 z" />
</svg>