<?xml version="1.0" encoding="utf-8"?>
<svg xmlns="http://www.w3.org/2000/svg" viewBox="0 0 50 50" width="515" height="515">
  <path d="M22.4375 0L19.53125 2.75L20.71875 4L13.59375 4C8.3125 4 4 8.3125 4 13.59375L4 17.40625L8 17.40625L8 13.59375C8 10.472656 10.472656 8 13.59375 8L20.71875 8L19.5625 9.21875L22.46875 11.96875L26.78125 7.375L28.0625 6L26.78125 4.625 Z M 32.59375 4L32.59375 8L36.40625 8C39.527344 8 42 10.472656 42 13.59375L42 20.71875L40.78125 19.5625L38.03125 22.46875L42.625 26.78125L44 28.09375L45.375 26.78125L49.9375 22.5L47.1875 19.59375L46 20.71875L46 13.59375C46 8.3125 41.6875 4 36.40625 4 Z M 6 21.90625L4.625 23.21875L0 27.5625L2.71875 30.46875L4 29.28125L4 36.40625C4 41.6875 8.3125 46 13.59375 46L17.40625 46L17.40625 42L13.59375 42C10.472656 42 8 39.527344 8 36.40625L8 29.28125L9.25 30.46875L11.96875 27.53125L7.375 23.21875 Z M 42 32.59375L42 36.40625C42 39.527344 39.527344 42 36.40625 42L29.28125 42L30.4375 40.78125L27.53125 38.03125L23.21875 42.625L21.9375 44L23.21875 45.375L27.5625 49.96875L30.46875 47.25L29.28125 46L36.40625 46C41.6875 46 46 41.683594 46 36.40625L46 32.59375Z" />
</svg>