<?xml version="1.0" encoding="utf-8"?>
<svg xmlns="http://www.w3.org/2000/svg" viewBox="0 0 50 50" width="515" height="515">
  <path d="M35 3C34.734375 3 34.46875 3.121094 34.28125 3.3125C34.09375 3.503906 33.996094 3.734375 34 4C34.003906 4.359375 34.074219 6.652344 35.09375 8L32.4375 8L31.71875 7.28125C31.476563 7.03125 31.121094 6.925781 30.78125 7C30.40625 7.066406 30.105469 7.339844 30 7.703125C29.894531 8.070313 30.003906 8.460938 30.28125 8.71875L31.28125 9.71875C31.472656 9.90625 31.734375 10.007813 32 10L42 10C42.265625 10.007813 42.527344 9.90625 42.71875 9.71875L43.71875 8.71875C44.117188 8.320313 44.117188 7.679688 43.71875 7.28125C43.320313 6.882813 42.679688 6.882813 42.28125 7.28125L41.5625 8L38.90625 8C39.925781 6.652344 39.996094 4.359375 40 4C40.003906 3.734375 39.90625 3.503906 39.71875 3.3125C39.53125 3.121094 39.265625 3 39 3 Z M 11.90625 8.96875C11.863281 8.976563 11.820313 8.988281 11.78125 9C11.316406 9.105469 10.988281 9.523438 11 10L4 10L4 12L11 12C10.996094 12.359375 11.183594 12.695313 11.496094 12.878906C11.808594 13.058594 12.191406 13.058594 12.503906 12.878906C12.816406 12.695313 13.003906 12.359375 13 12C14.742188 12 16 13.230469 16 15L16 42C16 42 15.980469 43.21875 16.59375 44.46875C17.207031 45.71875 18.648438 47.03125 21 47.03125C23.351563 47.03125 24.792969 45.710938 25.40625 44.46875C26.019531 43.226563 26 42.03125 26 42.03125C26 36.140625 26.023438 30.140625 26.40625 25.6875C26.597656 23.460938 26.875 21.632813 27.25 20.4375C27.4375 19.839844 27.652344 19.390625 27.8125 19.1875C27.972656 18.984375 27.988281 19.03125 28 19.03125C28.078125 19.03125 28.46875 19.171875 28.78125 19.375C29.074219 19.5625 29.253906 19.726563 29.28125 19.75L29.3125 19.78125L33.8125 24.25C33.492188 24.8125 33.253906 25.417969 33.125 26L40.875 26C40.746094 25.417969 40.507813 24.8125 40.1875 24.25L42.40625 22.03125L41 20.625L40.28125 21.3125L38.875 22.75C38.601563 22.542969 38.316406 22.367188 38 22.25L38 11L36 11L36 22.21875C35.675781 22.335938 35.40625 22.535156 35.125 22.75L30.6875 18.3125C30.675781 18.300781 30.667969 18.292969 30.65625 18.28125C30.65625 18.28125 30.335938 17.984375 29.875 17.6875C29.414063 17.390625 28.820313 17.03125 28 17.03125C27.285156 17.03125 26.652344 17.457031 26.25 17.96875C25.847656 18.480469 25.574219 19.082031 25.34375 19.8125C24.882813 21.277344 24.601563 23.234375 24.40625 25.53125C24.011719 30.128906 24 36.132813 24 42.03125C24 42.03125 24 42.835938 23.625 43.59375C23.25 44.351563 22.6875 45.03125 21 45.03125C19.3125 45.03125 18.75 44.328125 18.375 43.5625C18 42.796875 18 42 18 42L18 15C18 12.207031 15.757813 10 13 10C13.011719 9.710938 12.894531 9.433594 12.6875 9.238281C12.476563 9.039063 12.191406 8.941406 11.90625 8.96875 Z M 33.28125 28L34 30.15625L34 34.3125C32.289063 35.019531 28 37.175781 28 41C28 44.558594 32.375 46.8125 32.5625 46.90625C32.703125 46.976563 32.84375 47 33 47L41 47C41.152344 47 41.300781 46.972656 41.4375 46.90625C41.625 46.816406 46 44.632813 46 41C46 37.175781 41.710938 35.019531 40 34.3125L40 30.15625L40.71875 28Z" />
</svg>