<?xml version="1.0" encoding="utf-8"?>
<svg xmlns="http://www.w3.org/2000/svg" viewBox="0 0 50 50" width="515" height="515">
  <path d="M38.4375 2.9375C30.105469 2.9375 27.351563 12.441406 26.78125 14.9375C26.164063 15.144531 24.914063 15.46875 23.09375 15.46875C21.808594 15.46875 20.847656 15.253906 19.71875 15C18.402344 14.703125 16.878906 14.34375 14.6875 14.34375C10.023438 14.34375 7.34375 17.203125 7.34375 22.1875C7.34375 24.058594 9.140625 28.714844 9.625 29.9375L9.15625 34.375C9.144531 34.492188 9.160156 34.636719 9.1875 34.75L11.6875 45.1875C12.015625 46.332031 12.9375 47.03125 14.09375 47.03125L16.40625 47.03125C16.722656 47.03125 17.019531 46.902344 17.21875 46.65625C17.417969 46.410156 17.472656 46.089844 17.40625 45.78125L15.125 35.5C15.789063 34.714844 17.203125 32.871094 18.40625 30.25C19.664063 30.828125 21.996094 31.625 25.46875 31.625C27.191406 31.625 29.027344 31.4375 30.9375 31.0625L32.875 44.46875C32.917969 45.832031 33.992188 46.9375 35.3125 46.9375L37 46.9375C37.007813 46.9375 37.023438 46.9375 37.03125 46.9375C37.605469 46.9375 38.0625 46.480469 38.0625 45.90625C38.0625 45.820313 38.050781 45.734375 38.03125 45.65625C37.960938 43.820313 37.488281 31.339844 37.1875 28.3125C39.109375 25.652344 39.226563 22.039063 39.3125 19.125C39.339844 18.238281 39.367188 17.238281 39.46875 16.4375C40.691406 17.59375 42.5 17.984375 43.90625 17.71875C44.960938 17.519531 46.390625 18.175781 46.8125 18.40625C47.214844 18.628906 47.703125 18.578125 48.03125 18.25L49.125 17.125C49.96875 16.277344 50.058594 14.78125 49.28125 13.8125L44.5625 8.375L46 6.5625C46.195313 6.320313 46.28125 5.992188 46.21875 5.6875C46.15625 5.382813 45.964844 5.113281 45.6875 4.96875C43.085938 3.617188 40.652344 2.9375 38.4375 2.9375 Z M 6.5625 16.875C3.625 18.277344 -0.03125 21.84375 -0.03125 30.8125C-0.03125 31.25 0.242188 31.632813 0.65625 31.78125L5.9375 33.6875C6.050781 33.726563 6.195313 33.75 6.3125 33.75C6.542969 33.75 6.75 33.648438 6.9375 33.5C7.125 33.351563 7.261719 33.164063 7.3125 32.9375L7.34375 32.6875C7.34375 32.648438 7.347656 32.601563 7.34375 32.5625C7.199219 31.335938 7.117188 30.070313 7.09375 28.84375C6.269531 26.589844 5.34375 23.785156 5.34375 22.1875C5.34375 20.128906 5.792969 18.347656 6.5625 16.875 Z M 40.71875 25.09375C40.421875 26.378906 39.976563 27.632813 39.25 28.8125C39.296875 29.40625 39.324219 30.171875 39.375 31.03125L41.3125 31.6875L40.46875 36.6875C40.144531 38.140625 41 39.628906 42.3125 40.0625L43.5 40.5625C43.628906 40.617188 43.769531 40.65625 43.90625 40.65625C44.066406 40.65625 44.226563 40.605469 44.375 40.53125C44.648438 40.390625 44.835938 40.140625 44.90625 39.84375L46.90625 31.46875C47.34375 29.726563 46.554688 27.957031 45.0625 27.28125 Z M 19.375 32.78125C18.628906 34.144531 17.875 35.222656 17.28125 36L19.1875 44.5C19.730469 44.898438 20.367188 45.15625 21.03125 45.15625L22.75 45.25C22.769531 45.25 22.792969 45.25 22.8125 45.25C23.363281 45.273438 23.875 44.765625 23.875 44.1875C23.875 43.992188 23.8125 43.8125 23.71875 43.65625L20.875 35.75L22.5 33.40625C21.296875 33.25 20.238281 33.046875 19.375 32.78125Z" />
</svg>