<?xml version="1.0" encoding="utf-8"?>
<svg xmlns="http://www.w3.org/2000/svg" viewBox="0 0 50 50" width="515" height="515">
  <path d="M25.5 2C23.601563 2 22 3.601563 22 5.5C22 7.09375 23.140625 8.472656 24.625 8.875C23.425781 8.890625 22.320313 9.710938 22 11L20.09375 17.1875C19.59375 18.6875 20.292969 20.292969 21.59375 21.09375L25.1875 23.3125L23.8125 26.59375C23.710938 26.695313 23.488281 27.386719 23.6875 28.1875C23.886719 28.585938 24.195313 28.988281 24.59375 29.1875C24.792969 29.289063 25.113281 29.40625 25.3125 29.40625C26.113281 29.40625 26.789063 28.800781 27.1875 28L28.59375 24.5C29.195313 23 28.800781 21.3125 27.5 20.3125L25.59375 18.90625L26.59375 15.6875L29.5625 16.59375L29.3125 17.5C29.210938 18.101563 29.101563 18.605469 29 18.90625C30.800781 20.507813 31.40625 22.992188 30.40625 25.09375L29 28.59375L29 28.8125C28.199219 30.414063 26.8125 31.3125 25.3125 31.3125C24.8125 31.3125 24.3125 31.199219 23.8125 31C22.914063 30.601563 22.210938 29.804688 21.8125 28.90625C21.3125 27.507813 21.707031 26.210938 21.90625 25.8125L22.59375 24.09375L20.5 22.8125C19.199219 22.011719 18.300781 20.601563 18 19L17.09375 19C12.695313 19 10 21.613281 10 25.8125C10 28.3125 10.804688 29.511719 11.40625 30.3125C11.707031 30.8125 11.90625 31.011719 11.90625 31.3125C11.90625 32.113281 11.007813 33.195313 9.90625 34.59375C9.40625 35.195313 8.90625 35.800781 8.40625 36.5C8.304688 36.699219 8.1875 36.894531 8.1875 37.09375L8.1875 47C8.1875 47.601563 8.585938 48 9.1875 48L12.09375 48C12.695313 48 13.09375 47.601563 13.09375 47L13.09375 38.90625C14.59375 38.007813 18.507813 35.40625 19.40625 31.90625C21.304688 32.605469 25.1875 33.800781 30.1875 34C29.789063 38.300781 29 43.804688 29 43.90625C29 44.105469 28.992188 44.394531 29.09375 44.59375C29.292969 44.992188 30 46.195313 30 47.09375C30 47.695313 30.398438 48.09375 31 48.09375L34 48.09375C34.601563 48.09375 35 47.695313 35 47.09375C35 45.894531 34.394531 44.605469 34.09375 43.90625C34.394531 42.40625 35.5 36.992188 36 32.59375C36.898438 31.894531 38.90625 30 38.90625 27C38.90625 26.398438 38.914063 25.699219 38.8125 25C38.710938 22.898438 38.605469 19.792969 39.40625 18.59375C40.605469 18.894531 41.886719 18.792969 42.6875 18.59375C43.585938 18.894531 45.304688 19.3125 45.40625 19.3125L45.6875 19.3125C45.988281 19.3125 46.207031 19.199219 46.40625 19C47.507813 17.800781 47.507813 15.886719 46.40625 14.6875L44.59375 12.6875C44.195313 11.988281 43.007813 9.789063 40.40625 9.1875C40.605469 8.289063 40.488281 7.210938 39.6875 6.3125C39.289063 5.914063 38.710938 5.914063 38.3125 6.3125C38.011719 6.511719 38 6.886719 38 7.1875C34.300781 8.085938 32.113281 10.59375 30.8125 13.09375L30.78125 13.125L27.59375 12.1875C27.792969 10.789063 26.898438 9.398438 25.5 9C27.398438 9 29 7.398438 29 5.5C29 3.601563 27.398438 2 25.5 2 Z M 9.09375 21C5.695313 21 2 24.398438 2 30C2 30.601563 2.398438 31 3 31L6 31C6.601563 31 7 30.601563 7 30C7 29.898438 6.992188 28.289063 8.09375 27.1875C7.992188 26.789063 8 26.3125 8 25.8125C8 24.011719 8.511719 22.398438 9.3125 21 Z M 38.1875 33.1875C38.085938 33.289063 38.011719 33.492188 37.8125 33.59375C37.3125 37.394531 36.492188 41.59375 36.09375 43.59375C36.292969 43.992188 36.394531 44.40625 36.59375 44.90625L36.6875 44.90625C36.988281 44.90625 37.207031 44.699219 37.40625 44.5L39.90625 41C40.105469 40.699219 40.101563 40.394531 40 40.09375C39.898438 39.992188 38.789063 36.988281 38.1875 33.1875 Z M 20.6875 34.40625C19.789063 36.105469 18.394531 37.492188 17.09375 38.59375L20.3125 47.3125C20.414063 47.710938 20.789063 48 21.1875 48L24.09375 48C24.394531 48 24.707031 47.792969 24.90625 47.59375C25.105469 47.394531 25.101563 46.988281 25 46.6875L22.09375 38.09375C22.394531 37.492188 22.886719 36.492188 23.1875 35.09375C22.289063 34.894531 21.386719 34.707031 20.6875 34.40625Z" />
</svg>