<?xml version="1.0" encoding="utf-8"?>
<svg xmlns="http://www.w3.org/2000/svg" viewBox="0 0 50 50" width="515" height="515">
  <path d="M25 2C15.601563 2 8 9.601563 8 19C8 26 12.789063 30.613281 16.6875 34.3125C18.988281 36.511719 21 38.398438 21 40C21 40.601563 21.398438 41 22 41L28 41C28.601563 41 29 40.601563 29 40C29 38.398438 31.011719 36.511719 33.3125 34.3125C37.210938 30.613281 42 26 42 19C42 9.601563 34.398438 2 25 2 Z M 25 3C30 3 36 9.898438 36 19C36 29.5 27.894531 32.601563 27.09375 39L25.0625 39C25.570313 33.53125 30 29.371094 30 19C30 9.898438 27.699219 3 25 3 Z M 25 3C22.300781 3 20 10.199219 20 19C20 29.386719 24.441406 33.367188 24.9375 39L22.90625 39C22.105469 32.5 14 29.5 14 19C14 10.199219 20 3 25 3 Z M 22 42C21.398438 42 21 42.398438 21 43L21 46C21 47.199219 21.800781 48 23 48L27 48C28.199219 48 29 47.199219 29 46L29 43C29 42.398438 28.601563 42 28 42Z" />
</svg>