<?xml version="1.0" encoding="utf-8"?>
<svg xmlns="http://www.w3.org/2000/svg" viewBox="0 0 50 50" width="515" height="515">
  <path d="M25 0C20.039063 0 16 4.039063 16 9C16 13.960938 20.039063 18 25 18C29.964844 18 34 13.960938 34 9C34 4.039063 29.964844 0 25 0 Z M 25 4.8125C25.660156 4.8125 26.1875 5.339844 26.1875 6C26.1875 6.660156 25.660156 7.1875 25 7.1875C24.335938 7.1875 23.8125 6.660156 23.8125 6C23.8125 5.339844 24.339844 4.8125 25 4.8125 Z M 24 8.3125L26 8.3125L26 13L24 13 Z M 3 22C2 22 0 23.039063 0 25L0 50L6 50L6 46L44 46L44 50L50 50L50 34C50 32.035156 48 31 47 31C46 31 44 32.035156 44 34L44 40L6 40L6 25C6 23.039063 4 22 3 22 Z M 13 28C10.242188 28 8 30.242188 8 33C8 35.757813 10.242188 38 13 38C15.757813 38 18 35.757813 18 33C18 30.242188 15.757813 28 13 28 Z M 22 28C20.347656 28 19 29.347656 19 31L19 38L42 38L42 31C42 29.347656 40.652344 28 39 28Z" />
</svg>