<?xml version="1.0" encoding="utf-8"?>
<svg xmlns="http://www.w3.org/2000/svg" viewBox="0 0 50 50" width="515" height="515">
  <path d="M17 2L15.90625 4.3125L13.40625 4.59375L15.3125 6.3125L14.8125 8.90625L17 7.59375L19.1875 8.90625L18.6875 6.3125L20.59375 4.59375L18.09375 4.3125 Z M 25 2L23.90625 4.3125L21.40625 4.59375L23.3125 6.3125L22.8125 8.90625L25 7.59375L27.1875 8.90625L26.6875 6.3125L28.59375 4.59375L26.09375 4.3125 Z M 33 2L31.90625 4.3125L29.40625 4.59375L31.3125 6.3125L30.8125 8.90625L33 7.59375L35.1875 8.90625L34.6875 6.3125L36.59375 4.59375L34.09375 4.3125 Z M 11.3125 9C8.382813 9.003906 6.003906 11.382813 6 14.3125L6 25L3 25L3 33L6 33L6 47C6 47.550781 6.449219 48 7 48L43 48C43.550781 48 44 47.550781 44 47L44 14.3125C43.996094 11.382813 41.617188 9.003906 38.6875 9 Z M 12 16L18 16L18 22L14.5625 22L12 19.40625 Z M 22 16L28 16L28 22L22 22 Z M 32 16L38 16L38 22L32 22 Z M 12 23.28125L17.59375 29L12 34.71875L12 31L5 31L5 27L12 27 Z M 22 26L28 26L28 32L22 32 Z M 32 26L38 26L38 32L32 32 Z M 14.53125 36L18 36L18 42L12 42L12 38.59375 Z M 22 36L28 36L28 46L22 46 Z M 32 36L38 36L38 42L32 42Z" />
</svg>