<?xml version="1.0" encoding="utf-8"?>
<svg xmlns="http://www.w3.org/2000/svg" viewBox="0 0 50 50" width="515" height="515">
  <path d="M6 1L6 5C6 6.6454545 7.3545455 8 9 8L11 8L11 14.699219C11 17.720206 12.473262 20.554743 15.054688 22.238281L19.197266 25L15.041016 27.771484L15.037109 27.773438C12.572958 29.453489 11 32.255102 11 35.300781L11 42L9 42C7.3545455 42 6 43.354545 6 45L6 49L44 49L44 48L44 45C44 43.354545 42.645455 42 41 42L39 42L39 35.300781C39 32.255102 37.427035 29.453536 34.962891 27.773438L34.958984 27.771484L30.802734 25L34.945312 22.238281C37.526739 20.554743 39 17.720206 39 14.699219L39 8L41 8C42.645455 8 44 6.6454545 44 5L44 1L6 1 z M 13 8L37 8L37 14.699219C37 17.078231 35.87209 19.246038 33.853516 20.5625L33.849609 20.564453L27.197266 25L33.835938 29.425781C35.771793 30.745683 37 32.94646 37 35.300781L37 42L13 42L13 35.300781C13 32.94646 14.228207 30.745683 16.164062 29.425781L22.802734 25L16.150391 20.564453L16.146484 20.5625C14.127903 19.246085 13 17.078231 13 14.699219L13 8 z M 25 30.800781C25 30.800781 17.300391 33.5 15.400391 40L34.599609 40C32.699609 33.3 25 30.800781 25 30.800781 z" />
</svg>