<?xml version="1.0" encoding="utf-8"?>
<svg xmlns="http://www.w3.org/2000/svg" viewBox="0 0 50 50" width="515" height="515">
  <path d="M6.4707031 6C4.7607031 6 3.19 6.5399219 2 7.4199219L2 36.009766C2.0893034 36.066595 2.685593 36.170643 3.9882812 35.548828C3.9264281 42.406875 2.807853 43.887476 2.6289062 44.070312C2.2329063 44.228313 1.9699062 44.631219 2.0039062 45.074219C2.0429062 45.596219 2.477 46 3 46L10 46C10.552 46 11 45.553 11 45C11 44.551 10.704875 44.171922 10.296875 44.044922C10.093875 43.818922 9 42.269 9 35C9 34.899952 8.9706496 34.809839 8.9433594 34.71875C9.4361178 34.48871 9.9549657 34.301212 11 35C11.68 35.45 12.35 35.710547 13 35.810547L13 45C13 45.55 13.45 46 14 46L37.769531 46L40 46L43.691406 46C45.475406 46 46.923828 44.545 46.923828 42.75C46.923828 41.866 46.570953 41.066469 46.001953 40.480469C47.150953 40.171469 48 39.128 48 37.875C48 36.379 46.795594 35.167969 45.308594 35.167969C45.063594 35.167969 44.829516 35.210484 44.603516 35.271484C44.188516 33.957484 42.981109 33 41.537109 33C41.353264 33 41.175119 33.017077 41 33.046875L41 26.580078L42.339844 27.75C42.529844 27.92 42.77 28 43 28C43.28 28 43.56 27.880156 43.75 27.660156C44.12 27.240156 44.070156 26.61 43.660156 26.25L38 21.310547L38 14L32 14L32 16.080078L27.660156 12.300781C27.280156 11.970781 26.719844 11.970781 26.339844 12.300781L19.039062 18.660156C18.919063 17.100156 18.149297 15.060859 17.029297 14.130859C17.089297 13.870859 17 13.28 17 13C17 10.85 15.119844 9.4092969 12.589844 9.2792969C11.509844 7.3492969 9.1807031 6 6.4707031 6 z M 27 14.380859L39.009766 24.849609C38.999766 24.899609 39 24.95 39 25L39 34.271484C38.744455 34.606071 38.544156 34.984865 38.431641 35.404297C38.059641 35.254297 37.655469 35.167969 37.230469 35.167969C35.446469 35.167969 34 36.622969 34 38.417969C34 39.726969 34.773813 40.847328 35.882812 41.361328C35.385813 41.852328 35.076172 42.535969 35.076172 43.292969C35.076172 43.539694 35.12023 43.772887 35.181641 44L31 44L31 32L23 32L23 44L15 44L15 25C15 24.95 15.000234 24.899609 14.990234 24.849609L27 14.380859 z" />
</svg>