<?xml version="1.0" encoding="utf-8"?>
<svg xmlns="http://www.w3.org/2000/svg" viewBox="0 0 50 50" width="515" height="515">
  <path d="M44.089844 4L5.910156 4C4.804688 4 4 4.804688 4 5.910156L4 44.089844C4 45.195313 4.804688 46 5.910156 46L44.089844 46C45.195313 46 46 45.195313 46 44.089844L46 5.910156C46 4.804688 45.195313 4 44.089844 4 Z M 18.417969 30L16.453125 30L16.453125 25.769531L14.398438 25.769531L14.398438 30L12.433594 30L12.433594 19.890625L14.398438 19.890625L14.398438 23.941406L16.453125 23.941406L16.453125 19.890625L18.417969 19.890625 Z M 25.019531 21.707031L23.21875 21.707031L23.21875 30L21.253906 30L21.253906 21.707031L19.46875 21.707031L19.46875 19.890625L25.019531 19.890625 Z M 32.410156 30L32.230469 26.460938C32.1875 25.5 32.113281 24.195313 32.140625 23.113281L32.097656 23.113281C31.917969 24.195313 31.648438 25.441406 31.453125 26.21875L30.582031 29.835938L29.1875 29.835938L28.347656 26.277344C28.152344 25.46875 27.882813 24.210938 27.730469 23.113281L27.6875 23.113281C27.65625 24.210938 27.597656 25.484375 27.535156 26.488281L27.371094 30L25.675781 30L26.410156 19.890625L28.480469 19.890625L29.292969 23.550781C29.578125 24.824219 29.832031 25.949219 30.011719 27.089844L30.042969 27.089844C30.191406 25.964844 30.417969 24.824219 30.6875 23.550781L31.480469 19.890625L33.550781 19.890625L34.167969 30 Z M 40.167969 30L35.605469 30L35.605469 19.890625L37.570313 19.890625L37.570313 28.335938L40.167969 28.335938Z" />
</svg>