<?xml version="1.0" encoding="utf-8"?>
<svg xmlns="http://www.w3.org/2000/svg" viewBox="0 0 50 50" width="515" height="515">
  <path d="M21 4 A 4 3.9070001 0 0 0 17 7.90625 A 4 3.9070001 0 0 0 21 11.814453 A 4 3.9070001 0 0 0 25 7.90625 A 4 3.9070001 0 0 0 21 4 z M 38 4C33.589 4 30 7.5054531 30 11.814453C30 16.123453 33.589 19.628906 38 19.628906C42.411 19.628906 46 16.123453 46 11.814453C46 7.5054531 42.411 4 38 4 z M 37 7.90625L39 7.90625L39 11.408203L41 13.361328L39.585938 14.744141L37.292969 12.503906C37.105969 12.320906 37 12.073453 37 11.814453L37 7.90625 z M 17.001953 14C16.653953 14 16.311766 14.090672 16.009766 14.263672L9.0097656 18.263672C8.6667656 18.458672 8.3898906 18.751469 8.2128906 19.105469L5.2128906 25.105469C4.7188906 26.093469 5.1184219 27.294062 6.1074219 27.789062C6.3944219 27.933062 6.7 28.001953 7 28.001953C7.734 28.001953 8.4400156 27.597484 8.7910156 26.896484L11.519531 21.4375L14.798828 20.146484L13.730469 24.226562C13.730469 24.226562 13.132625 26.283109 13.015625 27.912109C12.933625 29.065109 13.263766 30.156359 14.134766 30.943359L16.798828 33.351562L20.109375 36.341797L22.076172 44.107422C22.358172 45.241422 23.378047 46 24.498047 46C24.699047 46 24.904422 45.976781 25.107422 45.925781C26.108422 45.675781 26.816703 44.852531 26.970703 43.894531C27.022703 43.570531 27.011734 43.230578 26.927734 42.892578L24.927734 34.892578C24.835734 34.527578 24.661875 34.187438 24.421875 33.898438L20.234375 28.875L22.068359 21.642578L22.072266 21.648438L22.806641 18.759766C23.315641 16.715766 22.702797 15.612969 22.341797 15.167969C22.236797 15.063969 22.140391 14.947422 22.025391 14.857422L22.007812 14.84375C21.311812 14.30075 20.453734 14 19.552734 14L17.001953 14 z M 24.886719 18.501953C24.847719 18.742953 24.813047 18.982188 24.748047 19.242188L23.640625 23.601562L24.142578 24.226562C24.372578 24.539562 24.689734 24.778062 25.052734 24.914062L30.302734 26.873047C31.335734 27.259047 32.49 26.732266 32.875 25.697266C33.26 24.663266 32.733219 23.511 31.699219 23.125L27.007812 21.375L24.886719 18.501953 z M 12.033203 31.591797L11.158203 36.404297L6.5800781 41.898438C6.2040781 42.349438 6.0149531 42.8935 6.0019531 43.4375C5.9849531 44.1745 6.2903906 44.911922 6.9003906 45.419922C7.3683906 45.809922 7.935 45.998047 8.5 45.998047C9.216 45.998047 9.926875 45.691609 10.421875 45.099609L15.421875 39.099609C15.696875 38.767609 15.883938 38.372266 15.960938 37.947266L16.376953 35.664062L12.792969 32.425781C12.510969 32.170781 12.258203 31.889797 12.033203 31.591797 z" />
</svg>