<?xml version="1.0" encoding="utf-8"?>
<svg xmlns="http://www.w3.org/2000/svg" viewBox="0 0 50 50" width="515" height="515">
  <path d="M25 0.25C20.816406 0.25 17.40625 3.660156 17.40625 7.84375C17.40625 8.230469 17.46875 8.617188 17.53125 9.03125C17.871094 8.996094 18.214844 8.96875 18.5625 8.96875C23.851563 8.96875 28.15625 13.273438 28.15625 18.5625C28.15625 20.292969 27.703125 21.992188 26.84375 23.46875C26.5625 23.945313 25.945313 24.121094 25.46875 23.84375C24.992188 23.566406 24.847656 22.945313 25.125 22.46875C25.808594 21.296875 26.15625 19.941406 26.15625 18.5625C26.15625 14.378906 22.746094 10.96875 18.5625 10.96875C14.378906 10.96875 10.96875 14.378906 10.96875 18.5625C10.96875 21.234375 12.4375 23.757813 14.78125 25.125C14.820313 25.140625 16.703125 26 25 26C33.347656 26 35.480469 25.011719 35.5 25C37.703125 23.65625 39.035156 21.226563 39.03125 18.5625C39.03125 14.378906 35.625 10.96875 31.4375 10.96875C30.550781 10.96875 29.585938 11.167969 28.78125 11.46875C28.265625 11.664063 27.691406 11.390625 27.5 10.875C27.308594 10.359375 27.574219 9.789063 28.09375 9.59375C29.125 9.207031 30.304688 8.96875 31.4375 8.96875C31.792969 8.96875 32.15625 8.992188 32.5 9.03125C32.554688 8.632813 32.59375 8.21875 32.59375 7.84375C32.59375 3.660156 29.183594 0.25 25 0.25 Z M 34.65625 27.125C32.648438 27.492188 30.097656 27.820313 27.15625 27.9375L30.53125 31.3125 Z M 15.40625 27.1875L19.5 31.28125L22.84375 27.96875C20.003906 27.855469 17.460938 27.535156 15.40625 27.1875 Z M 25 28.625L20.90625 32.6875L25.03125 36.8125L29.09375 32.71875 Z M 15.84375 30.46875L17.21875 33.59375L18.09375 32.6875 Z M 34.125 30.5L31.9375 32.71875L32.78125 33.59375 Z M 19.5 34.125L18.0625 35.5625L20.5625 41.3125L23.625 38.21875 Z M 30.53125 34.125L26.4375 38.21875L29.46875 41.25L31.9375 35.5625 Z M 25.03125 39.65625L21.40625 43.28125L24.09375 49.40625C24.253906 49.773438 24.601563 50 25 50C25.398438 50 25.746094 49.773438 25.90625 49.40625L28.59375 43.21875Z" />
</svg>