<?xml version="1.0" encoding="utf-8"?>
<svg xmlns="http://www.w3.org/2000/svg" viewBox="0 0 50 50" width="515" height="515">
  <path d="M29.691406 2.007813C24.347656 2.167969 20 6.664063 20 12.03125C20 14.945313 21.519531 17.21875 22.859375 19.226563C23.492188 20.171875 24.09375 21.085938 24.5 22L29 22L29 13.414063L27.292969 11.707031C26.902344 11.316406 26.902344 10.683594 27.292969 10.292969C27.683594 9.902344 28.316406 9.902344 28.707031 10.292969L30 11.585938L31.292969 10.292969C31.683594 9.902344 32.316406 9.902344 32.707031 10.292969C33.097656 10.683594 33.097656 11.316406 32.707031 11.707031L31 13.414063L31 22L35.488281 22C35.890625 21.09375 36.492188 20.183594 37.125 19.246094C38.472656 17.226563 40 14.941406 40 12C40 9.273438 38.921875 6.722656 36.964844 4.820313C35.007813 2.921875 32.441406 1.914063 29.691406 2.007813 Z M 24.996094 24C24.996094 24.019531 25 24.035156 25 24.050781L25 26C25 27.652344 26.347656 29 28 29L28.277344 29C28.625 29.59375 29.261719 30 30 30C30.738281 30 31.375 29.59375 31.722656 29L32 29C33.652344 29 35 27.652344 35 26L35 24 Z M 44.34375 27.992188C43.621094 27.96875 42.882813 28.152344 42.226563 28.566406L32.875 34.328125C33.585938 35.050781 34 36.035156 34 37.066406C34 39.238281 32.234375 41 30.0625 41C29.757813 41 29.457031 40.964844 29.160156 40.894531C28.394531 40.714844 18.570313 37.773438 17.453125 37.4375C16.921875 37.28125 16.625 36.722656 16.78125 36.191406C16.941406 35.664063 17.496094 35.367188 18.027344 35.523438C22.390625 36.832031 29.085938 38.824219 29.625 38.953125C29.765625 38.984375 29.914063 39.003906 30.0625 39.003906C31.132813 39.003906 32 38.136719 32 37.066406C32 36.378906 31.640625 35.761719 31.042969 35.410156C30.753906 35.242188 20.882813 30.925781 18.894531 30.058594C15.785156 28.691406 12.199219 28.65625 9.0625 29.964844L2.617188 32.648438C2.105469 32.859375 2 33.320313 2 33.953125L2 46C2 46.550781 2.449219 47 3 47C3.304688 47 3.550781 46.835938 3.585938 46.808594L7.070313 44.25C8.847656 42.945313 11.214844 42.660156 13.296875 43.515625L24.996094 47.664063C25.652344 47.898438 26.332031 48.011719 27.007813 48.011719C28.296875 48.011719 29.570313 47.59375 30.632813 46.789063L46.371094 34.863281C48.039063 33.714844 48.5 31.464844 47.417969 29.75C46.726563 28.648438 45.554688 28.03125 44.34375 27.992188Z" />
</svg>