<?xml version="1.0" encoding="utf-8"?>
<svg xmlns="http://www.w3.org/2000/svg" viewBox="0 0 50 50" width="515" height="515">
  <path d="M44 9L6 9C3.792969 9 2 10.792969 2 13L2 37C2 39.207031 3.792969 41 6 41L44 41C46.207031 41 48 39.207031 48 37L48 13C48 10.792969 46.207031 9 44 9 Z M 8 34C8.242188 29.972656 13.421875 30.558594 14.199219 28.472656C14.261719 27.757813 14.199219 27.257813 14.199219 26.605469C13.875 26.433594 12.96875 25.515625 12.828125 24.492188C12.828125 24.492188 12.097656 24.144531 12.058594 23.042969C12.035156 22.460938 12.445313 22.046875 12.445313 22.046875C11.683594 19.113281 12.011719 16.070313 15.9375 16C16.917969 16 17.65625 16.472656 17.949219 16.992188C20.679688 16.992188 19.972656 20.800781 19.558594 22.046875C19.710938 22.199219 19.898438 22.621094 19.898438 23.191406C19.898438 24.007813 19.125 24.492188 19.125 24.492188C18.980469 25.53125 18.246094 26.390625 17.800781 26.605469C17.800781 27.257813 17.734375 27.757813 17.800781 28.472656C18.578125 30.558594 23.757813 29.972656 24 34 Z M 41 31L29 31C28.445313 31 28 30.554688 28 30C28 29.445313 28.445313 29 29 29L41 29C41.554688 29 42 29.445313 42 30C42 30.554688 41.554688 31 41 31 Z M 41 26L29 26C28.445313 26 28 25.550781 28 25C28 24.449219 28.445313 24 29 24L41 24C41.554688 24 42 24.449219 42 25C42 25.550781 41.554688 26 41 26 Z M 41 21L29 21C28.445313 21 28 20.550781 28 20C28 19.449219 28.445313 19 29 19L41 19C41.554688 19 42 19.449219 42 20C42 20.550781 41.554688 21 41 21Z" />
</svg>