<?xml version="1.0" encoding="utf-8"?>
<svg xmlns="http://www.w3.org/2000/svg" viewBox="0 0 50 50" width="515" height="515">
  <path d="M2 -0.03125C1.425781 -0.03125 0.96875 0.425781 0.96875 1L0.96875 49C0.96875 49.574219 1.425781 50.03125 2 50.03125L32 50.03125C32.574219 50.03125 33.03125 49.574219 33.03125 49L33.03125 26L18.40625 26L25.59375 33.1875C25.984375 33.578125 25.984375 34.203125 25.59375 34.59375C25.398438 34.789063 25.132813 34.90625 24.875 34.90625C24.617188 34.90625 24.382813 34.789063 24.1875 34.59375L14.59375 25L24.1875 15.40625C24.578125 15.015625 25.203125 15.015625 25.59375 15.40625C25.984375 15.796875 25.984375 16.421875 25.59375 16.8125L18.40625 24L33.03125 24L33.03125 1C33.03125 0.425781 32.574219 -0.03125 32 -0.03125 Z M 33.03125 24L33.03125 26L48 26C48.554688 26 49 25.550781 49 25C49 24.449219 48.554688 24 48 24Z" />
</svg>