<?xml version="1.0" encoding="utf-8"?>
<svg xmlns="http://www.w3.org/2000/svg" viewBox="0 0 50 50" width="515" height="515">
  <path d="M25,2C12.3,2,2,12.3,2,25s10.3,23,23,23s23-10.3,23-23S37.7,2,25,2z M14.3,16c1.1,0,2.1,1.2,2.7,2c0.6-0.8,1.6-2,2.7-2 c1.8,0,3.3,1.4,3.3,3.1c0,3.6-4.4,5.6-6,6.9c-1.6-1.3-6-3.3-6-6.9C11,17.4,12.5,16,14.3,16z M38.8,30.6C38.6,30.9,33.4,38,25,38 s-13.6-7.1-13.8-7.4c-0.3-0.5-0.2-1.1,0.2-1.4s1.1-0.2,1.4,0.2c0,0.1,4.8,6.6,12.2,6.6s12.1-6.5,12.2-6.6c0.3-0.5,0.9-0.5,1.4-0.2 S39.1,30.1,38.8,30.6z M33,26c-1.6-1.3-6-3.3-6-6.9c0-1.7,1.5-3.1,3.3-3.1c1.1,0,2.1,1.2,2.7,2c0.6-0.8,1.6-2,2.7-2 c1.8,0,3.3,1.4,3.3,3.1C39,22.8,34.6,24.7,33,26z" />
</svg>