<?xml version="1.0" encoding="utf-8"?>
<svg xmlns="http://www.w3.org/2000/svg" viewBox="0 0 50 50" width="515" height="515">
  <path d="M24.949219 2L23.869141 2.0273438L23.818359 2.0292969L23.767578 2.0332031L22.701172 2.1132812L22.650391 2.1171875L22.601562 2.125L21.808594 2.2246094L22.3125 6.1933594L23.029297 6.1015625L24.005859 6.0273438L25 6.0019531L25.994141 6.0273438L26.894531 6.0957031L27.199219 2.1074219L26.232422 2.0332031L26.181641 2.0292969L26.130859 2.0273438L25.050781 2L25 2L24.949219 2 z M 30.451172 2.65625L29.550781 6.5527344L29.701172 6.5859375L29.722656 6.5917969L30.644531 6.8515625L31.513672 7.1445312L32.390625 7.4921875L33.796875 8.1699219L35.533203 4.5664062L34.042969 3.8476562L33.976562 3.8164062L33.908203 3.7890625L32.955078 3.4140625L32.908203 3.3964844L32.861328 3.3789062L31.886719 3.0488281L31.837891 3.0332031L31.791016 3.0195312L30.794922 2.7363281L30.746094 2.7226562L30.697266 2.7128906L30.451172 2.65625 z M 18.583984 2.9140625L18.208984 3.0195312L18.162109 3.0332031L18.113281 3.0488281L17.138672 3.3789062L17.091797 3.3964844L17.044922 3.4140625L16.091797 3.7890625L16.023438 3.8164062L15.957031 3.8476562L14.123047 4.7324219L14.035156 4.7753906L13.951172 4.8261719L13.509766 5.09375L15.585938 8.5136719L15.958984 8.2871094L17.609375 7.4921875L18.486328 7.1445312L19.355469 6.8515625L19.675781 6.7617188L18.583984 2.9140625 z M 38.414062 6.3398438L36.017578 9.5429688L37.085938 10.339844L38.433594 11.566406L39.417969 12.648438L42.376953 9.9589844L41.330078 8.8046875L41.265625 8.734375L41.195312 8.6699219L39.703125 7.3144531L39.632812 7.2519531L39.556641 7.1933594L38.414062 6.3398438 z M 10.865234 6.8789062L10.443359 7.1933594L10.367188 7.2519531L10.296875 7.3144531L8.8046875 8.6699219L8.734375 8.734375L8.6699219 8.8046875L7.3144531 10.296875L7.2519531 10.367188L7.1933594 10.443359L6.9277344 10.798828L10.130859 13.195312L10.339844 12.914062L11.566406 11.566406L12.914062 10.341797L13.261719 10.082031L10.865234 6.8789062 z M 44.394531 12.667969L40.976562 14.746094L41.712891 15.957031L42.507812 17.609375L42.853516 18.484375L42.970703 18.833984L46.759766 17.550781L46.621094 17.138672L46.603516 17.091797L46.585938 17.044922L46.210938 16.091797L46.183594 16.023438L46.152344 15.957031L45.267578 14.123047L45.224609 14.035156L45.173828 13.951172L44.394531 12.667969 z M 5.1367188 13.4375L4.8261719 13.951172L4.7753906 14.035156L4.7324219 14.123047L3.8476562 15.957031L3.8164062 16.023438L3.7890625 16.091797L3.4140625 17.044922L3.3964844 17.091797L3.3789062 17.138672L3.0488281 18.113281L3.0332031 18.162109L3.0195312 18.208984L2.9375 18.503906L6.7851562 19.595703L6.8535156 19.351562L7.1445312 18.486328L7.4921875 17.609375L8.2871094 15.957031L8.5566406 15.513672L5.1367188 13.4375 z M 47.599609 20.738281L43.662109 21.441406L43.779297 22.097656L43.898438 23.029297L43.972656 24.005859L43.998047 25L43.972656 25.994141L43.898438 26.970703L43.779297 27.904297L43.615234 28.824219L43.458984 29.503906L47.355469 30.402344L47.521484 29.681641L47.533203 29.632812L47.542969 29.583984L47.726562 28.548828L47.736328 28.5L47.742188 28.451172L47.875 27.398438L47.882812 27.349609L47.886719 27.298828L47.966797 26.232422L47.970703 26.181641L47.972656 26.130859L48 25.050781L46 25L48 24.949219L47.972656 23.869141L47.970703 23.818359L47.966797 23.767578L47.886719 22.701172L47.882812 22.650391L47.875 22.601562L47.742188 21.548828L47.736328 21.5L47.726562 21.451172L47.599609 20.738281 z M 2.2363281 21.724609L2.125 22.601562L2.1171875 22.650391L2.1132812 22.701172L2.0332031 23.767578L2.0292969 23.818359L2.0273438 23.869141L2 24.949219L2 25L2 25.050781L2.0273438 26.130859L2.0292969 26.181641L2.0332031 26.232422L2.0996094 27.115234L6.0878906 26.8125L6.0273438 25.996094L6.0019531 25L6.0273438 24.005859L6.1015625 23.027344L6.203125 22.228516L2.2363281 21.724609 z M 6.5351562 29.470703L2.6367188 30.371094L2.7128906 30.697266L2.7226562 30.746094L2.7363281 30.794922L3.0195312 31.791016L3.0332031 31.837891L3.0488281 31.886719L3.3789062 32.861328L3.3964844 32.908203L3.4140625 32.955078L3.7890625 33.908203L3.8164062 33.976562L3.8476562 34.042969L4.53125 35.458984L8.1347656 33.722656L7.4921875 32.390625L7.1445312 31.513672L6.8515625 30.644531L6.5917969 29.724609L6.5351562 29.470703 z M 42.632812 32.074219L42.507812 32.390625L41.712891 34.042969L40.757812 35.615234L40.486328 35.978516L43.691406 38.373047L44.015625 37.939453L44.072266 37.861328L44.123047 37.779297L45.173828 36.048828L45.224609 35.964844L45.267578 35.876953L46.152344 34.042969L46.183594 33.976562L46.210938 33.908203L46.355469 33.541016L42.632812 32.074219 z M 9.4921875 35.951172L6.2890625 38.345703L7.1933594 39.556641L7.2519531 39.632812L7.3144531 39.703125L8.6699219 41.195312L8.734375 41.265625L8.8046875 41.330078L9.8964844 42.322266L12.587891 39.361328L11.566406 38.433594L10.339844 37.085938L9.4921875 35.951172 z M 38.699219 38.140625L38.433594 38.433594L37.085938 39.660156L35.617188 40.757812L35.296875 40.951172L37.375 44.369141L37.779297 44.123047L37.861328 44.072266L37.939453 44.015625L39.556641 42.806641L39.632812 42.748047L39.703125 42.685547L41.195312 41.330078L41.265625 41.265625L41.330078 41.195312L41.660156 40.830078L38.699219 38.140625 z M 14.673828 40.933594L12.597656 44.351562L13.951172 45.173828L14.035156 45.224609L14.123047 45.267578L15.957031 46.152344L16.023438 46.183594L16.091797 46.210938L17.044922 46.585938L17.091797 46.603516L17.138672 46.621094L17.472656 46.732422L18.753906 42.943359L18.482422 42.853516L17.609375 42.507812L15.957031 41.712891L14.673828 40.933594 z M 32.835938 42.292969L32.388672 42.507812L31.513672 42.855469L30.644531 43.148438L29.71875 43.408203L29.701172 43.414062L28.830078 43.613281L28.607422 43.652344L29.310547 47.591797L29.583984 47.542969L29.632812 47.533203L29.681641 47.521484L30.697266 47.287109L30.746094 47.277344L30.794922 47.263672L31.791016 46.980469L31.837891 46.966797L31.886719 46.951172L32.861328 46.621094L32.908203 46.603516L32.955078 46.585938L33.908203 46.210938L33.976562 46.183594L34.042969 46.152344L34.572266 45.896484L32.835938 42.292969 z M 21.359375 43.646484L20.65625 47.585938L21.451172 47.726562L21.5 47.736328L21.548828 47.742188L22.601562 47.875L22.650391 47.882812L22.701172 47.886719L23.767578 47.966797L23.818359 47.970703L23.869141 47.972656L24.949219 48L25 48L25.050781 48L26.033203 47.974609L25.931641 43.976562L25.001953 43.998047L24.005859 43.972656L23.029297 43.898438L22.097656 43.779297L21.359375 43.646484 z" />
</svg>