<?xml version="1.0" encoding="utf-8"?>
<svg xmlns="http://www.w3.org/2000/svg" viewBox="0 0 50 50" width="515" height="515">
  <path d="M9 7C8.570313 7 8.1875 7.273438 8.050781 7.683594L2.050781 25.683594C2.015625 25.785156 2 25.890625 2 26L2 41C2 41.554688 2.445313 42 3 42L47 42C47.554688 42 48 41.554688 48 41L48 26.019531C48 26.011719 48 26.007813 48 26C48 25.890625 47.984375 25.785156 47.949219 25.683594L41.949219 7.683594C41.8125 7.273438 41.429688 7 41 7 Z M 9.71875 9L40.28125 9L45.609375 25L32 25C31.445313 25 31 25.445313 31 26C31 29.308594 28.308594 32 25 32C21.691406 32 19 29.308594 19 26C19 25.445313 18.554688 25 18 25L4.390625 25Z" />
</svg>