<?xml version="1.0" encoding="utf-8"?>
<svg xmlns="http://www.w3.org/2000/svg" viewBox="0 0 50 50" width="515" height="515">
  <path d="M18.4375 4.28125C18.027344 4.28125 17.648438 4.554688 17.5 4.9375L2.46875 43.5C2.347656 43.808594 2.40625 44.132813 2.59375 44.40625C2.78125 44.679688 3.078125 44.84375 3.40625 44.84375L8.65625 44.84375C9.074219 44.84375 9.449219 44.578125 9.59375 44.1875L13.65625 33.25L28.5625 33.25L32.5625 44.1875C32.707031 44.582031 33.078125 44.84375 33.5 44.84375L39.1875 44.84375C39.738281 44.84375 40.1875 44.398438 40.1875 43.84375C40.1875 43.648438 40.128906 43.46875 40.03125 43.3125L25.03125 4.9375C24.882813 4.554688 24.503906 4.28125 24.09375 4.28125 Z M 21.15625 12.75L26.25 26.90625L16.03125 26.90625 Z M 42 19C41.445313 19 41 19.449219 41 20L41 24L37 24C36.445313 24 36 24.449219 36 25C36 25.550781 36.445313 26 37 26L41 26L41 30C41 30.554688 41.445313 31 42 31C42.554688 31 43 30.554688 43 30L43 26L47 26C47.554688 26 48 25.550781 48 25C48 24.449219 47.554688 24 47 24L43 24L43 20C43 19.449219 42.554688 19 42 19Z" />
</svg>