<?xml version="1.0" encoding="utf-8"?>
<svg xmlns="http://www.w3.org/2000/svg" viewBox="0 0 50 50" width="515" height="515">
  <path d="M13.34375 12C6.195313 12 0.511719 17.214844 0 24.03125L0 24.375C-0.0117188 24.59375 -0.03125 24.808594 -0.03125 25.03125C-0.03125 25.195313 -0.00390625 25.347656 0.03125 25.5C0.265625 32.660156 5.847656 38 13.21875 38C18.632813 38 21.414063 34.539063 23.40625 30.84375C22.554688 29.472656 21.785156 28.09375 21.0625 26.75C19.089844 31.082031 17.253906 34.09375 13.21875 34.09375C7.976563 34.09375 4.136719 30.46875 3.9375 25.4375C3.964844 25.308594 3.96875 25.167969 3.96875 25.03125C3.96875 19.886719 8 16 13.34375 16C17.285156 16 19.464844 19.539063 22.59375 25.375C25.753906 31.273438 29.339844 37.96875 37.15625 37.96875C43.808594 37.96875 49.445313 32.601563 49.96875 26.03125C49.976563 25.917969 49.992188 25.800781 50 25.6875C50.011719 25.46875 50.03125 25.25 50.03125 25.03125C50.03125 24.867188 50.003906 24.714844 49.96875 24.5625C49.722656 17.484375 44.074219 12 36.875 12C31.382813 12 28.40625 15.671875 26.28125 19.59375C26.84375 20.578125 27.351563 21.585938 27.875 22.5625C28.109375 23 28.339844 23.402344 28.5625 23.8125C30.542969 19.484375 32.558594 15.90625 36.875 15.90625C42.113281 15.90625 45.925781 19.621094 46.0625 24.75C46.050781 24.839844 46.03125 24.9375 46.03125 25.03125C46.03125 29.792969 41.890625 33.96875 37.15625 33.96875C31.734375 33.96875 29.011719 28.886719 26.125 23.5C23.097656 17.847656 19.964844 12 13.34375 12Z" />
</svg>