<?xml version="1.0" encoding="utf-8"?>
<svg xmlns="http://www.w3.org/2000/svg" viewBox="0 0 50 50" width="515" height="515">
  <path d="M50 25C50 17.800781 43.699219 12 36 12C31.300781 12 28.300781 14.199219 26.199219 16.699219C26.597656 17.300781 26.699219 17.398438 27 18C27.398438 18.699219 29.101563 22 29.398438 22.699219L29.5 22.601563C31.300781 19.398438 33 18 36 18C40.398438 18 44 21.101563 44 25C44 28.898438 40.398438 32 36 32C31.464844 32 29.605469 28.050781 27.457031 23.476563C24.925781 18.097656 22.054688 12 14 12C6.246094 12.148438 0 17.832031 0 25C0 32.199219 6.300781 38 14 38C18.699219 38 21.699219 35.898438 23.800781 33.300781C23.398438 32.699219 23.300781 32.601563 23 32C22.601563 31.199219 20.898438 27.898438 20.601563 27.199219L20.5 27.300781C18.699219 30.601563 17 32 14 32C9.601563 32 6 28.898438 6 25C6 21.109375 9.585938 18.015625 13.972656 18C18.539063 18.015625 20.449219 21.984375 22.664063 26.582031C25.230469 31.902344 28.136719 37.929688 36 37.992188C36 37.996094 36 37.996094 36 38C36.019531 38 36.042969 37.996094 36.0625 37.996094C36.085938 37.996094 36.105469 38 36.125 38L36.125 37.992188C43.769531 37.929688 50 32.160156 50 25Z" />
</svg>