<?xml version="1.0" encoding="utf-8"?>
<svg xmlns="http://www.w3.org/2000/svg" viewBox="0 0 50 50" width="515" height="515">
  <path d="M27 2.5625L16.75 14L23 14L23 18L5 18L5 21L2 21L2 47L45 47L45 44L49 44L49 18L31 18L31 14L37.25 14 Z M 12.5625 20L41.4375 20C42.433594 20 42.78125 20.550781 43.28125 21.71875C43.484375 22.191406 43.671875 22.640625 44 22.96875C44.378906 23.347656 44.949219 23.558594 45.53125 23.78125C46.339844 24.089844 47 24.386719 47 24.75L47 37.25C47 37.390625 46.988281 37.417969 46.875 37.53125C46.816406 37.589844 46.710938 37.648438 46.59375 37.71875C46.578125 37.726563 46.578125 37.742188 46.5625 37.75C46.449219 37.8125 46.328125 37.875 46.1875 37.9375C45.875 38.078125 45.527344 38.226563 45.15625 38.375C45 38.4375 44.832031 38.492188 44.6875 38.5625C44.652344 38.578125 44.628906 38.605469 44.59375 38.625C44.5625 38.640625 44.53125 38.667969 44.5 38.6875C44.335938 38.777344 44.160156 38.871094 44 39.03125L44 39.0625C43.925781 39.140625 43.84375 39.222656 43.78125 39.3125C43.578125 39.582031 43.457031 39.863281 43.34375 40.125C43.320313 40.175781 43.304688 40.226563 43.28125 40.28125C43.15625 40.574219 43.054688 40.816406 42.9375 41.03125C42.921875 41.0625 42.890625 41.097656 42.875 41.125C42.792969 41.265625 42.707031 41.390625 42.625 41.5C42.601563 41.527344 42.585938 41.570313 42.5625 41.59375C42.546875 41.609375 42.515625 41.609375 42.5 41.625C42.378906 41.742188 42.25 41.84375 42.09375 41.90625C42.0625 41.917969 42.035156 41.929688 42 41.9375C41.933594 41.957031 41.855469 41.957031 41.78125 41.96875C41.675781 41.984375 41.570313 42 41.4375 42L12.5625 42C11.566406 42 11.21875 41.445313 10.71875 40.28125C10.515625 39.808594 10.328125 39.359375 10 39.03125C9.621094 38.652344 9.050781 38.441406 8.46875 38.21875C7.660156 37.910156 7 37.613281 7 37.25L7 24.75C7 24.386719 7.660156 24.089844 8.46875 23.78125C9.050781 23.558594 9.621094 23.347656 10 22.96875C10.328125 22.640625 10.515625 22.191406 10.71875 21.71875C11.21875 20.550781 11.566406 20 12.5625 20 Z M 27 21C22.039063 21 18 25.484375 18 31C18 36.515625 22.039063 41 27 41C31.960938 41 36 36.515625 36 31C36 25.484375 31.960938 21 27 21 Z M 4 23L5 23L5 44L43 44L43 45L4 45 Z M 12.5 28C11.121094 28 10 29.121094 10 30.5C10 31.878906 11.121094 33 12.5 33C13.878906 33 15 31.878906 15 30.5C15 29.121094 13.878906 28 12.5 28 Z M 41.5 28C40.121094 28 39 29.121094 39 30.5C39 31.878906 40.121094 33 41.5 33C42.878906 33 44 31.878906 44 30.5C44 29.121094 42.878906 28 41.5 28Z" />
</svg>