<?xml version="1.0" encoding="utf-8"?>
<svg xmlns="http://www.w3.org/2000/svg" viewBox="0 0 50 50" width="515" height="515">
  <path d="M24.970703 1.9726562 A 2.0002 2.0002 0 0 0 23 4L23 15.171875L20.414062 12.585938 A 2.0002 2.0002 0 0 0 18.978516 11.980469 A 2.0002 2.0002 0 0 0 17.585938 15.414062L25 22.828125L32.414062 15.414062 A 2.0002 2.0002 0 1 0 29.585938 12.585938L27 15.171875L27 4 A 2.0002 2.0002 0 0 0 24.970703 1.9726562 z M 4 21 A 2.0002 2.0002 0 1 0 4 25L9 25C10.679749 25 12 26.320251 12 28L12 31.171875L10.414062 29.585938 A 2.0002 2.0002 0 0 0 8.9785156 28.980469 A 2.0002 2.0002 0 0 0 7.5859375 32.414062L12.408203 37.236328 A 2.0002 2.0002 0 0 0 12.791016 37.619141L14 38.828125L15.208984 37.619141 A 2.0002 2.0002 0 0 0 15.599609 37.228516L20.414062 32.414062 A 2.0002 2.0002 0 1 0 17.585938 29.585938L16 31.171875L16 28C16 24.157749 12.842251 21 9 21L4 21 z M 41 21C37.157749 21 34 24.157749 34 28L34 31.171875L32.414062 29.585938 A 2.0002 2.0002 0 0 0 30.978516 28.980469 A 2.0002 2.0002 0 0 0 29.585938 32.414062L34.408203 37.236328 A 2.0002 2.0002 0 0 0 34.791016 37.619141L36 38.828125L37.208984 37.619141 A 2.0002 2.0002 0 0 0 37.599609 37.228516L42.414062 32.414062 A 2.0002 2.0002 0 0 0 40.982422 28.970703 A 2.0002 2.0002 0 0 0 39.585938 29.585938L38 31.171875L38 28C38 26.320251 39.320251 25 41 25L46 25 A 2.0002 2.0002 0 1 0 46 21L41 21 z M 3.9707031 37.972656 A 2.0002 2.0002 0 0 0 2 40L2 48L48 48L48 40 A 2.0002 2.0002 0 1 0 44 40L44 44L6 44L6 40 A 2.0002 2.0002 0 0 0 3.9707031 37.972656 z" />
</svg>