<?xml version="1.0" encoding="utf-8"?>
<svg xmlns="http://www.w3.org/2000/svg" viewBox="0 0 50 50" width="515" height="515">
  <path d="M41.1875 3C37.386719 3 35.414063 5.386719 35.3125 8.1875L37.59375 8.1875C37.695313 6.1875 38.992188 5 41.09375 5C43.09375 5 44.40625 6.207031 44.40625 7.90625C44.40625 9.40625 43.789063 10.1875 42.1875 11.1875C40.386719 12.386719 39.5 13.605469 39.5 15.40625L39.5 16.6875L41.90625 16.6875L41.90625 15.8125C41.90625 14.414063 42.394531 13.59375 44.09375 12.59375C45.894531 11.59375 47 10.007813 47 7.90625C47 5.105469 44.585938 3 41.1875 3 Z M 21 5C17.398438 5.101563 14.699219 6.207031 13 8.40625C11 11.007813 10.605469 15.085938 11.90625 20.1875C11.40625 20.6875 11.085938 21.585938 11.1875 22.6875C11.386719 24.886719 12.300781 25.789063 13 26.1875C13.300781 27.886719 14.289063 29.914063 15.1875 30.8125L15.1875 31.3125C15.1875 32.3125 15.195313 33.210938 15.09375 34.3125C14.492188 35.710938 12.699219 36.507813 10.5 37.40625C6.898438 38.90625 2.398438 40.804688 2 46.90625L1.90625 48L40.09375 48L40.09375 46.90625C39.695313 40.90625 35.195313 38.90625 31.59375 37.40625C29.492188 36.507813 27.601563 35.710938 27 34.3125C26.898438 33.210938 26.90625 32.3125 26.90625 31.3125L26.90625 30.8125C27.804688 29.914063 28.792969 27.886719 29.09375 26.1875C29.792969 25.789063 30.605469 24.886719 30.90625 22.6875C31.105469 21.585938 30.710938 20.789063 30.3125 20.1875C30.914063 18.1875 32 13.113281 30 9.8125C29.101563 8.414063 27.792969 7.488281 26.09375 7.1875C25.09375 5.789063 23.199219 5 21 5 Z M 40.90625 19.3125C39.804688 19.3125 39 20.085938 39 21.1875C39 22.289063 39.804688 23.09375 40.90625 23.09375C42.007813 23.09375 42.8125 22.289063 42.8125 21.1875C42.8125 20.085938 42.007813 19.3125 40.90625 19.3125Z" />
</svg>