<?xml version="1.0" encoding="utf-8"?>
<svg xmlns="http://www.w3.org/2000/svg" viewBox="0 0 50 50" width="515" height="515">
  <path d="M7 4C5.346 4 4 5.346 4 7L4 42C4 43.654 5.346 45 7 45L39.369141 45L43.099609 48.699219C44.699609 50.299219 47.200391 50.399219 48.900391 48.699219C50.500391 47.099219 50.300391 44.500391 48.900391 42.900391L46 40.037109L46 7C46 5.346 44.654 4 43 4L7 4 z M 13 13L37 13C37.552 13 38 13.448 38 14C38 14.552 37.552 15 37 15L13 15C12.448 15 12 14.552 12 14C12 13.448 12.448 13 13 13 z M 13 20L37 20C37.552 20 38 20.448 38 21C38 21.552 37.552 22 37 22L13 22C12.448 22 12 21.552 12 21C12 20.448 12.448 20 13 20 z M 13 27L23 27C23.552 27 24 27.448 24 28C24 28.552 23.552 29 23 29L13 29C12.448 29 12 28.552 12 28C12 27.448 12.448 27 13 27 z M 29.441406 29.419922L33.486328 30.498047L33.628906 30.640625L30.660156 33.542969L30.591797 33.474609L29.441406 29.419922 z M 35.048828 32.048828L46.740234 43.658203L43.755859 46.644531L32.074219 34.957031L35.048828 32.048828 z" />
</svg>