<?xml version="1.0" encoding="utf-8"?>
<svg xmlns="http://www.w3.org/2000/svg" viewBox="0 0 50 50" width="515" height="515">
  <path d="M17 0C16.449219 0 16 0.449219 16 1L16 9C16 9.550781 16.449219 10 17 10L33 10C33.554688 10 34 9.550781 34 9L34 1C34 0.449219 33.554688 0 33 0 Z M 8 2C6.347656 2 5 3.347656 5 5L5 47C5 48.652344 6.347656 50 8 50L42 50C43.652344 50 45 48.652344 45 47L45 5C45 3.347656 43.652344 2 42 2L36 2L36 6L41 6L41 46L9 46L9 6L14 6L14 2 Z M 11 8L11 44L39 44L39 8L36 8L36 9C36 10.652344 34.652344 12 33 12L17 12C15.347656 12 14 10.652344 14 9L14 8 Z M 32.71875 18.625L34.375 19.6875L24.40625 35.125L16.59375 28.0625L17.9375 26.59375L24 32.0625Z" />
</svg>