<?xml version="1.0" encoding="utf-8"?>
<svg xmlns="http://www.w3.org/2000/svg" viewBox="0 0 50 50" width="515" height="515">
  <path d="M4.8457031 6C3.2757031 6 2 7.2757031 2 8.8457031L2 18L48 18L48 8.8457031C48 7.2757031 46.724297 6 45.154297 6L4.8457031 6 z M 8 10C9.104 10 10 10.895 10 12C10 13.104 9.104 14 8 14C6.896 14 6 13.104 6 12C6 10.895 6.896 10 8 10 z M 14 10C15.104 10 16 10.895 16 12C16 13.104 15.104 14 14 14C12.896 14 12 13.104 12 12C12 10.895 12.896 10 14 10 z M 19 10L43 10L43 14L19 14L19 10 z M 2 20L2 43C2 43.553 2.447 44 3 44L25.365234 44C24.499234 42.179 24 40.15 24 38C24 30.268 30.268 24 38 24C41.92 24 45.459 25.614937 48 28.210938L48 20L2 20 z M 38 26C31.384428 26 26 31.384428 26 38C26 44.615572 31.384428 50 38 50C44.615572 50 50 44.615572 50 38C50 31.384428 44.615572 26 38 26 z M 38 28C38.180732 28 38.437682 28.09556 38.798828 28.515625C39.159974 28.935692 39.554657 29.645912 39.888672 30.564453C40.04607 30.997299 40.188772 31.482968 40.318359 32L35.681641 32C35.811228 31.482968 35.95393 30.997299 36.111328 30.564453C36.445343 29.645912 36.840026 28.935692 37.201172 28.515625C37.562318 28.095558 37.819268 28 38 28 z M 34.824219 28.521484C34.60801 28.937897 34.411136 29.389395 34.232422 29.880859C33.998951 30.522905 33.806227 31.244008 33.634766 32L30.005859 32C31.209851 30.396688 32.880471 29.169947 34.824219 28.521484 z M 41.175781 28.521484C43.119529 29.169947 44.790149 30.396688 45.994141 32L42.365234 32C42.193773 31.244008 42.001049 30.522905 41.767578 29.880859C41.588864 29.389395 41.39199 28.937897 41.175781 28.521484 z M 28.833984 34L33.275391 34C33.145451 34.949274 33.068309 35.956169 33.035156 37L28.048828 37C28.153398 35.941643 28.426942 34.934268 28.833984 34 z M 35.289062 34L40.710938 34C40.849461 34.932424 40.926032 35.948395 40.962891 37L35.037109 37C35.073968 35.948395 35.150539 34.932424 35.289062 34 z M 42.724609 34L47.166016 34C47.573058 34.934268 47.846602 35.941643 47.951172 37L42.964844 37C42.931691 35.956169 42.854549 34.949274 42.724609 34 z M 28.048828 39L33.035156 39C33.068309 40.043831 33.145451 41.050726 33.275391 42L28.833984 42C28.426942 41.065732 28.153398 40.058357 28.048828 39 z M 35.037109 39L40.962891 39C40.926032 40.051605 40.849461 41.067576 40.710938 42L35.289062 42C35.150539 41.067576 35.073968 40.051605 35.037109 39 z M 42.964844 39L47.951172 39C47.846602 40.058357 47.573058 41.065732 47.166016 42L42.724609 42C42.854549 41.050726 42.931691 40.043831 42.964844 39 z M 30.005859 44L33.634766 44C33.806227 44.755992 33.998951 45.477095 34.232422 46.119141C34.411136 46.610605 34.60801 47.062103 34.824219 47.478516C32.880471 46.830053 31.209851 45.603312 30.005859 44 z M 35.681641 44L40.318359 44C40.188772 44.517032 40.04607 45.002701 39.888672 45.435547C39.554657 46.354088 39.159974 47.064308 38.798828 47.484375C38.437682 47.904442 38.180732 48 38 48C37.819268 48 37.562318 47.904442 37.201172 47.484375C36.840026 47.064308 36.445343 46.354088 36.111328 45.435547C35.95393 45.002701 35.811228 44.517032 35.681641 44 z M 42.365234 44L45.994141 44C44.790149 45.603312 43.119529 46.830053 41.175781 47.478516C41.39199 47.062103 41.588864 46.610605 41.767578 46.119141C42.001049 45.477095 42.193773 44.755992 42.365234 44 z" />
</svg>