<?xml version="1.0" encoding="utf-8"?>
<svg xmlns="http://www.w3.org/2000/svg" viewBox="0 0 50 50" width="515" height="515">
  <path d="M40.34375 0C35.324219 0 28.234375 3.839844 21.34375 10.03125C21.1875 10.171875 21.03125 10.324219 20.875 10.46875C20.410156 10.894531 19.960938 11.335938 19.5 11.78125C19.253906 12.019531 18.996094 12.253906 18.75 12.5C18.242188 13.003906 17.75 13.535156 17.25 14.0625C17.101563 14.21875 16.960938 14.375 16.8125 14.53125C16.179688 15.207031 15.523438 15.882813 14.90625 16.59375C14.324219 17.265625 13.796875 17.953125 13.25 18.625C13.121094 18.785156 12.972656 18.933594 12.84375 19.09375C12.246094 19.84375 11.675781 20.59375 11.125 21.34375C11.074219 21.414063 11.019531 21.492188 10.96875 21.5625C9.800781 23.160156 8.734375 24.746094 7.78125 26.3125C7.707031 26.4375 7.636719 26.5625 7.5625 26.6875C7.066406 27.511719 6.585938 28.316406 6.15625 29.125C6.15625 29.136719 6.15625 29.144531 6.15625 29.15625C1.570313 37.761719 0.585938 45.265625 4.28125 48.46875C5.457031 49.488281 7.003906 50 8.875 50C12.21875 50 16.597656 48.277344 21.28125 45.15625C18.75 44.84375 16.402344 44.175781 14.3125 43.1875C11.484375 44.53125 9.222656 44.835938 8.1875 43.9375C6.921875 42.839844 7.136719 39.921875 8.71875 35.96875C8.949219 35.390625 9.242188 34.773438 9.53125 34.15625C9.789063 33.609375 10.070313 33.046875 10.375 32.46875C10.457031 32.308594 10.539063 32.128906 10.625 31.96875C10.820313 31.605469 11.035156 31.214844 11.25 30.84375C11.324219 30.71875 11.394531 30.597656 11.46875 30.46875C11.828125 29.855469 12.21875 29.230469 12.625 28.59375C13.109375 27.832031 13.632813 27.070313 14.1875 26.28125C14.609375 25.679688 15.039063 25.054688 15.5 24.4375C15.542969 24.378906 15.582031 24.308594 15.625 24.25C15.882813 23.90625 16.167969 23.5625 16.4375 23.21875C16.703125 22.878906 16.972656 22.5625 17.25 22.21875C17.808594 21.527344 18.394531 20.824219 19 20.125C20.039063 18.929688 21.066406 17.800781 22.09375 16.75C22.125 16.71875 22.15625 16.6875 22.1875 16.65625C22.671875 16.160156 23.144531 15.683594 23.625 15.21875C23.667969 15.175781 23.707031 15.136719 23.75 15.09375C23.898438 14.953125 24.042969 14.824219 24.1875 14.6875C24.5625 14.332031 24.941406 13.992188 25.3125 13.65625C25.757813 13.253906 26.1875 12.871094 26.625 12.5C26.695313 12.441406 26.742188 12.371094 26.8125 12.3125C27.082031 12.082031 27.359375 11.875 27.625 11.65625C27.855469 11.46875 28.082031 11.273438 28.3125 11.09375C28.703125 10.785156 29.085938 10.503906 29.46875 10.21875C29.566406 10.148438 29.652344 10.070313 29.75 10C30.222656 9.65625 30.703125 9.335938 31.15625 9.03125C34.589844 6.71875 37.488281 5.53125 39.34375 5.53125C40.078125 5.53125 40.628906 5.714844 41.03125 6.0625C42.136719 7.023438 42.117188 9.398438 41.03125 12.625C42.46875 14.210938 43.597656 16.046875 44.40625 18.125C47.972656 10.355469 48.183594 4.34375 44.9375 1.53125C43.757813 0.511719 42.21875 0 40.34375 0 Z M 19.75 8.78125C17.859375 9.214844 15.820313 9.957031 13.78125 11.1875C5.890625 16.214844 5.867188 24.976563 5.875 25.59375C7.941406 22.152344 10.484375 18.652344 13.40625 15.28125C15.464844 12.90625 17.59375 10.742188 19.75 8.78125 Z M 33.5625 9.84375C31.046875 11.382813 28.042969 13.722656 24.78125 16.90625C24.976563 16.894531 25.164063 16.875 25.375 16.875C31.253906 16.875 31 22.5 31 22.5L19.59375 22.5C14.410156 28.699219 11.5 34.136719 10.1875 37.78125C11.632813 39.335938 13.359375 40.527344 15.25 41.40625C15.667969 41.601563 16.09375 41.769531 16.53125 41.9375C16.710938 42.003906 16.882813 42.0625 17.0625 42.125C17.320313 42.214844 17.582031 42.296875 17.84375 42.375C18.070313 42.445313 18.300781 42.535156 18.53125 42.59375C18.796875 42.664063 19.070313 42.722656 19.34375 42.78125C19.609375 42.84375 19.886719 42.886719 20.15625 42.9375C20.542969 43.007813 20.914063 43.074219 21.3125 43.125C22.410156 43.273438 23.527344 43.375 24.625 43.375C39.007813 43.375 43.625 30.6875 43.625 30.6875L30.875 30.6875C30.875 30.6875 29.960938 34.8125 25.375 34.8125C19.082031 34.8125 19.46875 28.25 19.46875 28.25L43.8125 28.25C44.046875 24.84375 43.648438 21.90625 42.75 19.375L42.5625 18.875C41.855469 17.054688 40.824219 15.394531 39.53125 13.96875L39.21875 13.625C37.640625 12 35.71875 10.734375 33.5625 9.84375Z" />
</svg>