<?xml version="1.0" encoding="utf-8"?>
<svg xmlns="http://www.w3.org/2000/svg" viewBox="0 0 50 50" width="515" height="515">
  <path d="M23.601563 25L4 25C4 13.398438 13.398438 4 25 4L25 23.601563L41.898438 40.5C45.699219 36.398438 48 31 48 25C48 12.699219 38.300781 2.601563 26.101563 2C26.101563 2 26 2 26 2C26 2 25.898438 2 25.898438 2C25.601563 2 25.300781 2 25 2C12.300781 2 2 12.300781 2 25C2 25.300781 2 25.601563 2 25.898438C2 25.898438 2 26 2 26C2 26.101563 2 26.101563 2 26.101563C2.601563 38.300781 12.699219 48 25 48C31 48 36.398438 45.699219 40.5 41.898438Z" />
</svg>