<?xml version="1.0" encoding="utf-8"?>
<svg xmlns="http://www.w3.org/2000/svg" viewBox="0 0 50 50" width="515" height="515">
  <path d="M15.199219 5C14.849219 5 14.519844 5.1802344 14.339844 5.4902344L10.429688 12L24 12L24 5L15.199219 5 z M 26 5L26 12L39.570312 12L35.660156 5.4902344C35.480156 5.1802344 35.150781 5 34.800781 5L26 5 z M 10 14L10 43C10 43.55 10.45 44 11 44L39 44C39.55 44 40 43.55 40 43L40 14L10 14 z M 45 15L45 18L42 18L42 20L45 20L45 23L50 19L45 15 z M 1 18 A 1.0001 1.0001 0 1 0 1 20L4 20L5 20L8 20L8 18L5 18L4 18L1 18 z M 20 18L30 18C30.55 18 31 18.45 31 19C31 19.55 30.55 20 30 20L20 20C19.45 20 19 19.55 19 19C19 18.45 19.45 18 20 18 z M 5 33L0 37L5 41L5 38L8 38L8 36L5 36L5 33 z M 42 36L42 38L45 38L46 38L49 38 A 1.0001 1.0001 0 1 0 49 36L46 36L45 36L42 36 z" />
</svg>