<?xml version="1.0" encoding="utf-8"?>
<svg xmlns="http://www.w3.org/2000/svg" viewBox="0 0 50 50" width="515" height="515">
  <path d="M25 0C23.976563 0 22.023438 0.207031 20.40625 1.59375C20.171875 1.769531 19.667969 2.207031 18.75 3L31.25 3C30.449219 2.292969 29.871094 1.785156 29.65625 1.625C27.992188 0.199219 26.019531 0 25 0 Z M 9 5C8.449219 5 8 5.449219 8 6L8 25.25L16.3125 31.78125C18.457031 30.09375 20.03125 28.871094 20.40625 28.59375C22.421875 27.117188 24.433594 27 25 27C25.972656 27 27.863281 27.214844 29.625 28.625C29.984375 28.914063 31.511719 30.121094 33.625 31.78125L42 25.25L42 6C42 5.449219 41.554688 5 41 5 Z M 24 10L26 10L26 16L32 16L32 18L26 18L26 24L24 24L24 18L18 18L18 16L24 16 Z M 6 14.21875C2.777344 17.074219 0.34375 19.25 0.34375 19.25L6 23.6875 Z M 44 14.21875L44 23.6875L49.65625 19.25C49.65625 19.25 47.222656 17.074219 44 14.21875 Z M 0 21.53125L0 44.65625C3.453125 41.925781 9.957031 36.808594 14.71875 33.0625L8 27.8125L7.71875 27.59375 Z M 50 21.53125L44 26.21875L42 27.8125L42 27.78125L35.25 33.0625C39.996094 36.789063 46.519531 41.894531 50 44.625 Z M 25 29C24.707031 29 23.160156 29.070313 21.59375 30.21875C20.324219 31.152344 4.402344 43.707031 0 47.1875L0 49C0 49.554688 0.449219 50 1 50L49 50C49.554688 50 50 49.554688 50 49L50 47.15625C45.496094 43.625 29.65625 31.210938 28.375 30.1875C27.089844 29.15625 25.710938 29 25 29Z" />
</svg>