<?xml version="1.0" encoding="utf-8"?>
<svg xmlns="http://www.w3.org/2000/svg" viewBox="0 0 50 50" width="515" height="515">
  <path d="M44 6L6 6C2.28125 6 0 9.496094 0 12L0 38.382813C0 41.480469 2.519531 44 5.617188 44L44.382813 44C47.480469 44 50 41.480469 50 38.382813L50 11.847656C50 8.785156 47.140625 6 44 6 Z M 4 26.5C3.171875 26.5 2.5 25.828125 2.5 25C2.5 24.171875 3.171875 23.5 4 23.5C4.828125 23.5 5.5 24.171875 5.5 25C5.5 25.828125 4.828125 26.5 4 26.5 Z M 44 39L7 39L7 11L44 11Z" />
</svg>