<?xml version="1.0" encoding="utf-8"?>
<svg xmlns="http://www.w3.org/2000/svg" viewBox="0 0 50 50" width="515" height="515">
  <path d="M25 2C12.264481 2 2 12.264481 2 25C2 37.735519 12.264481 48 25 48C37.735519 48 48 37.735519 48 25C48 12.264481 37.735519 2 25 2 z M 34.023438 11.990234C34.5375 12.027148 34.975781 12.475 34.800781 13L34.800781 30C34.800781 32.8 32.499219 35.099609 29.699219 35.099609L29.599609 35.099609C27.799609 35.099609 26.200391 33.899609 25.900391 32.099609L25.900391 31.099609C26.100391 29.699609 27.100391 28.599219 28.400391 28.199219L28.699219 28.099609L32.099609 27.199219C32.599609 27.099219 32.900391 26.699219 32.900391 26.199219L32.900391 20C32.900391 19.4 32.299219 18.9 31.699219 19L22 20.900391C21.4 21.000391 20.900391 21.600781 20.900391 22.300781L20.900391 33.099609C20.900391 35.899609 18.600781 38.199219 15.800781 38.199219L15.699219 38.199219C13.899219 38.199219 12.3 36.999219 12 35.199219L12 34.199219C12.2 32.799219 13.2 31.700781 14.5 31.300781L14.800781 31.199219L18.199219 30.300781C18.699219 30.200781 19 29.800781 19 29.300781L19 16C19 15.3 19.499609 14.699609 20.099609 14.599609L33.800781 12C33.875781 11.9875 33.95 11.984961 34.023438 11.990234 z" />
</svg>