<?xml version="1.0" encoding="utf-8"?>
<svg xmlns="http://www.w3.org/2000/svg" viewBox="0 0 50 50" width="515" height="515">
  <path d="M25 0C21.183594 0 16.605469 0.886719 16.03125 1C15.726563 0.949219 15.398438 0.976563 15.1875 1.1875C15.167969 1.230469 15.144531 1.269531 15.125 1.3125C14.90625 1.523438 14.792969 1.828125 14.824219 2.132813C14.855469 2.4375 15.023438 2.710938 15.28125 2.875C15.539063 3.464844 16.25 5.136719 16.5 6.8125L11.6875 8.40625L11.5 8.40625C11.300781 8.507813 6.710938 10.804688 4.8125 16.40625C4.613281 16.90625 4.300781 17.710938 4 18.8125C2 24.710938 0 30.59375 0 32.09375L0 48C0 48.601563 0.398438 49 1 49L8 49C8.601563 49 9 48.601563 9 48L9 33C9 32.5 9.898438 30.488281 11 28.1875L11 44C11 44.601563 11.398438 45 12 45L38 45C38.601563 45 39 44.601563 39 44L39 28.3125C40.101563 30.613281 41 32.601563 41 33L41 48C41 48.601563 41.398438 49 42 49L49 49C49.601563 49 50 48.601563 50 48L50 32.09375C50 30.59375 48.007813 24.707031 45.90625 18.90625C45.507813 17.804688 45.195313 17 45.09375 16.5C43.195313 10.898438 38.605469 8.601563 38.40625 8.5L38.1875 8.5C38.085938 8.398438 35.007813 7.40625 33.40625 6.90625C33.605469 4.90625 34 2.1875 34 2.1875C34.003906 2.164063 33.996094 2.148438 34 2.125C34 2.09375 34 2.0625 34 2.03125C34.003906 1.953125 34.015625 1.886719 34 1.8125C33.984375 1.75 33.964844 1.683594 33.9375 1.625C33.921875 1.59375 33.894531 1.5625 33.875 1.53125C33.867188 1.511719 33.855469 1.488281 33.84375 1.46875C33.816406 1.433594 33.785156 1.402344 33.75 1.375C33.621094 1.210938 33.449219 1.089844 33.25 1.03125C33.25 1.03125 29.070313 0 25 0 Z M 25 2C26.960938 2 28.972656 2.277344 30.46875 2.53125L28.09375 4.1875C27.894531 4.289063 27.789063 4.488281 27.6875 4.6875C27.585938 4.886719 26.304688 8.699219 24.90625 15C23.507813 8.601563 22.1875 4.6875 22.1875 4.6875C22.085938 4.488281 21.988281 4.292969 21.6875 4.09375L18.9375 2.53125C20.714844 2.277344 23.027344 2 25 2Z" />
</svg>