<?xml version="1.0" encoding="utf-8"?>
<svg xmlns="http://www.w3.org/2000/svg" viewBox="0 0 50 50" width="515" height="515">
  <path d="M16 0C12.691406 0 10 2.691406 10 6C10 9.308594 12.691406 12 16 12C19.308594 12 22 9.308594 22 6C22 2.691406 19.308594 0 16 0 Z M 16 12L13.59375 12C11.597656 12 9.769531 12.964844 8.5625 14.65625C8.5625 14.65625 8.222656 15.253906 8.125 15.625L5.5625 11.375C4.648438 10.003906 2.964844 9.519531 1.71875 10.21875C0.96875 10.558594 0.40625 11.164063 0.15625 11.96875C-0.109375 12.824219 0.00390625 13.757813 0.46875 14.53125L5.21875 22.375C5.429688 22.800781 6.070313 23.96875 7.40625 23.96875C8.558594 23.96875 9.210938 23.425781 9.5 23.03125C9.773438 22.660156 9.976563 22.101563 10 22.03125L10 47.5C10 48.878906 11.121094 50 12.5 50C13.878906 50 15 48.878906 15 47.5L15 34L16 34L16 47.5C16 48.878906 17.121094 50 18.5 50C19.878906 50 21 48.878906 21 47.5L21 30.5L3.34375 14.75C2.933594 14.382813 2.882813 13.757813 3.25 13.34375C3.449219 13.121094 3.726563 13 4 13C4.238281 13 4.464844 13.078125 4.65625 13.25L20.71875 27.5625L19.21875 21.625C19.152344 21.355469 19.324219 21.066406 19.59375 21C19.859375 20.933594 20.121094 21.105469 20.1875 21.375L20.5625 22.875C20.566406 22.875 20.589844 22.90625 20.59375 22.90625L23.03125 32.71875C23.234375 33.632813 23.910156 34.441406 24.71875 34.8125C26.203125 35.375 27.136719 34.558594 27.5625 33.78125C28.039063 32.90625 28.054688 32.339844 27.78125 31.1875L24.375 16.625C23.890625 13.945313 21.457031 12 18.59375 12 Z M 47 29C45.347656 29 44 30.347656 44 32C44 33.652344 45.347656 35 47 35C48.652344 35 50 33.652344 50 32C50 30.347656 48.652344 29 47 29 Z M 40.5 33C39.671875 33 39 33.671875 39 34.5C39 35.328125 39.671875 36 40.5 36C41.328125 36 42 35.328125 42 34.5C42 33.671875 41.328125 33 40.5 33 Z M 29.21875 33.59375C29.03125 33.589844 28.851563 33.648438 28.6875 33.75C28.621094 33.917969 28.535156 34.101563 28.4375 34.28125C28.046875 34.984375 27.457031 35.507813 26.78125 35.78125L26.5625 36.03125C26.234375 36.394531 26.21875 36.960938 26.53125 37.34375L29.03125 40.4375L33.0625 36.09375L29.78125 33.78125C29.617188 33.664063 29.40625 33.597656 29.21875 33.59375 Z M 34.9375 37L34.53125 37.4375L30.46875 41.78125L29.78125 42.53125C31.015625 45.972656 34.0625 50 37.59375 50C37.863281 50 38.125 49.90625 38.3125 49.71875L41.40625 46.625C41.332031 46.625 41.230469 46.625 41.15625 46.625C36.453125 46.625 34.292969 43.742188 34.1875 43.59375C33.863281 43.148438 33.957031 42.511719 34.40625 42.1875C34.851563 41.867188 35.484375 41.960938 35.8125 42.40625C35.921875 42.554688 38.273438 45.554688 43.6875 44.3125L48.21875 39.8125C48.542969 39.484375 48.582031 38.988281 48.34375 38.59375C48.101563 38.199219 47.628906 38.015625 47.1875 38.15625C47.171875 38.160156 45.757813 38.59375 43.34375 38.59375C41.402344 38.59375 38.460938 38.285156 34.9375 37Z" />
</svg>