<?xml version="1.0" encoding="utf-8"?>
<svg xmlns="http://www.w3.org/2000/svg" viewBox="0 0 50 50" width="515" height="515">
  <path d="M16 2C15.820313 2 15.65625 2.0625 15.5 2.15625L0.5 11.15625C0.078125 11.410156 -0.121094 11.917969 0.0625 12.375L4.0625 22.375C4.265625 22.878906 4.835938 23.125 5.34375 22.9375L10 21.1875L10 47C10 47.554688 10.449219 48 11 48L39 48C39.554688 48 40 47.554688 40 47L40 21.1875L44.65625 22.9375C45.167969 23.125 45.734375 22.878906 45.9375 22.375L49.9375 12.375C50.121094 11.917969 49.921875 11.410156 49.5 11.15625L34.5 2.15625C34.34375 2.0625 34.183594 2 34 2 Z M 17.875 4L32.125 4L25 12 Z M 5.65625 10.375L8.15625 16.5625C8.359375 17.074219 8.105469 17.671875 7.59375 17.875C7.472656 17.925781 7.339844 17.9375 7.21875 17.9375C6.820313 17.9375 6.46875 17.703125 6.3125 17.3125L3.9375 11.40625 Z M 44.3125 10.375L46.0625 11.40625L43.6875 17.3125C43.53125 17.703125 43.179688 17.9375 42.78125 17.9375C42.65625 17.9375 42.527344 17.925781 42.40625 17.875C41.894531 17.671875 41.640625 17.074219 41.84375 16.5625 Z M 20 21L21 21C21.550781 21 22 21.449219 22 22L22 29C22.550781 29 23 29.445313 23 30C23 30.554688 22.550781 31 22 31L20 31C19.449219 31 19 30.554688 19 30C19 29.445313 19.449219 29 20 29L20 23C19.449219 23 19 22.550781 19 22C19 21.449219 19.449219 21 20 21 Z M 28 21C29.652344 21 31 22.347656 31 24L31 28C31 29.652344 29.652344 31 28 31C26.347656 31 25 29.652344 25 28L25 24C25 22.347656 26.347656 21 28 21 Z M 28 23C27.449219 23 27 23.449219 27 24L27 28C27 28.550781 27.449219 29 28 29C28.550781 29 29 28.550781 29 28L29 24C29 23.449219 28.550781 23 28 23Z" />
</svg>