<?xml version="1.0" encoding="utf-8"?>
<svg xmlns="http://www.w3.org/2000/svg" viewBox="0 0 50 50" width="515" height="515">
  <path d="M20 2C18.355469 2 17 3.355469 17 5L17 7L4.917969 7C3.308594 7 2 8.296875 2 9.890625L2 25C2 25.550781 2.410156 26 2.917969 26L33.378906 26C35.28125 24.738281 37.554688 24 40 24C43.074219 24 45.875 25.171875 48 27.078125L48 9.890625C48 8.296875 46.691406 7 45.082031 7L33 7L33 5C33 3.355469 31.644531 2 30 2 Z M 20 4L30 4C30.5625 4 31 4.4375 31 5L31 7L19 7L19 5C19 4.4375 19.4375 4 20 4 Z M 25 20C26.105469 20 27 20.894531 27 22C27 23.105469 26.105469 24 25 24C23.894531 24 23 23.105469 23 22C23 20.894531 23.894531 20 25 20 Z M 40 26C34.488281 26 30 30.488281 30 36C30 38.398438 30.851563 40.597656 32.265625 42.324219L26.292969 48.292969L27.707031 49.707031L33.675781 43.734375C35.402344 45.148438 37.601563 46 40 46C45.511719 46 50 41.511719 50 36C50 30.488281 45.511719 26 40 26 Z M 2 27.832031L2 40.109375C2 41.703125 3.308594 43 4.917969 43L28.757813 43L29.667969 42.09375C28.585938 40.253906 28 38.144531 28 36C28 32.925781 29.171875 30.125 31.078125 28L2.917969 28C2.597656 28 2.289063 27.933594 2 27.832031 Z M 40 28C44.429688 28 48 31.570313 48 36C48 40.429688 44.429688 44 40 44C35.570313 44 32 40.429688 32 36C32 31.570313 35.570313 28 40 28Z" />
</svg>