<?xml version="1.0" encoding="utf-8"?>
<svg xmlns="http://www.w3.org/2000/svg" viewBox="0 0 50 50" width="515" height="515">
  <path d="M15.90625 1.96875C15.863281 1.976563 15.820313 1.988281 15.78125 2C15.316406 2.105469 14.988281 2.523438 15 3L15 10.5625L12.71875 8.28125C12.476563 8.03125 12.121094 7.925781 11.78125 8C11.40625 8.066406 11.105469 8.339844 11 8.703125C10.894531 9.070313 11.003906 9.460938 11.28125 9.71875L15.15625 13.5625C15.175781 13.59375 15.195313 13.625 15.21875 13.65625L15.28125 13.71875C15.300781 13.742188 15.320313 13.761719 15.34375 13.78125C15.355469 13.78125 15.363281 13.78125 15.375 13.78125C15.441406 13.84375 15.515625 13.894531 15.59375 13.9375C15.605469 13.9375 15.613281 13.9375 15.625 13.9375C15.644531 13.949219 15.667969 13.960938 15.6875 13.96875C15.699219 13.96875 15.707031 13.96875 15.71875 13.96875C15.851563 14.007813 15.988281 14.015625 16.125 14C16.144531 14 16.167969 14 16.1875 14C16.273438 13.980469 16.359375 13.949219 16.4375 13.90625C16.570313 13.839844 16.6875 13.742188 16.78125 13.625L20.71875 9.71875C21.117188 9.320313 21.117188 8.679688 20.71875 8.28125C20.320313 7.882813 19.679688 7.882813 19.28125 8.28125L17 10.5625L17 3C17.011719 2.710938 16.894531 2.433594 16.6875 2.238281C16.476563 2.039063 16.191406 1.941406 15.90625 1.96875 Z M 36.9375 14C35.191406 14 33.6875 14.394531 32.46875 15.125C33.699219 15.777344 34.699219 16.835938 35.375 18.21875C36.441406 20.402344 36.480469 22.886719 36.03125 24.6875C36.21875 25.320313 36.273438 26.042969 36.1875 26.75C35.984375 28.453125 35.347656 29.503906 34.6875 30.15625C34.433594 31 34.050781 31.941406 33.5 32.75C33.5 32.984375 33.492188 33.207031 33.5 33.4375C33.949219 33.714844 34.855469 34.078125 35.4375 34.3125C37.621094 35.191406 40.988281 36.554688 42.375 40L47 40C47.273438 40 47.53125 39.886719 47.71875 39.6875C47.90625 39.488281 48.015625 39.210938 48 38.9375C47.769531 35.015625 44.648438 33.765625 42.375 32.84375C41.164063 32.351563 40.023438 31.894531 39.6875 31.21875C39.636719 30.578125 39.652344 30.054688 39.65625 29.46875L39.65625 29.3125C40.207031 28.671875 40.660156 27.585938 40.875 26.625C41.347656 26.308594 41.875 25.675781 42.03125 24.34375C42.101563 23.757813 42.003906 23.230469 41.78125 22.8125C42.269531 21.46875 42.25 19.308594 41.4375 17.65625C40.753906 16.265625 39.617188 15.441406 38.1875 15.25L37.84375 14.5625C37.675781 14.222656 37.316406 14 36.9375 14 Z M 28.59375 15C26.1875 15 24.109375 15.683594 22.625 16.90625C23.480469 17.5625 24.1875 18.429688 24.71875 19.5C25.773438 21.621094 26.0625 24.449219 25.46875 26.6875C25.679688 27.363281 25.746094 28.113281 25.65625 28.875C25.441406 30.726563 24.761719 31.851563 24.0625 32.53125C23.792969 33.46875 23.332031 34.589844 22.71875 35.5C22.714844 35.882813 22.734375 36.214844 22.75 36.59375C23.195313 36.921875 24.257813 37.378906 25 37.6875C27.503906 38.722656 31.066406 40.203125 32.4375 44.03125L40 44C40.273438 44 40.53125 43.886719 40.71875 43.6875C40.90625 43.488281 41.015625 43.210938 41 42.9375C40.742188 38.601563 37.238281 37.210938 34.6875 36.1875C33.273438 35.621094 31.953125 35.066406 31.5625 34.25C31.503906 33.519531 31.492188 32.945313 31.5 32.28125L31.5 32.09375C32.132813 31.390625 32.699219 30.132813 32.9375 29.03125C33.457031 28.707031 34.039063 27.996094 34.21875 26.5C34.296875 25.84375 34.164063 25.234375 33.90625 24.78125C34.464844 23.316406 34.464844 20.941406 33.5625 19.09375C32.796875 17.527344 31.527344 16.566406 29.90625 16.375L29.46875 15.5625C29.300781 15.222656 28.972656 15 28.59375 15 Z M 17.65625 16C14.175781 16 11.425781 17.292969 9.875 19.65625C8.542969 21.683594 8.261719 24.296875 9.125 26.75C8.828125 27.207031 8.65625 27.859375 8.75 28.65625C8.941406 30.316406 9.558594 31.066406 10.125 31.40625C10.382813 32.621094 10.988281 34.042969 11.6875 34.8125L11.6875 35.09375C11.695313 35.847656 11.722656 36.476563 11.65625 37.3125C11.234375 38.273438 9.894531 38.867188 8.375 39.53125C5.796875 40.664063 2.273438 42.207031 2 46.9375C1.984375 47.210938 2.09375 47.488281 2.28125 47.6875C2.46875 47.886719 2.726563 48 3 48L30 48C30.277344 48 30.527344 47.886719 30.71875 47.6875C30.90625 47.488281 31.015625 47.210938 31 46.9375C30.726563 42.199219 27.136719 40.722656 24.25 39.53125C22.632813 38.863281 21.207031 38.265625 20.78125 37.3125C20.714844 36.476563 20.742188 35.847656 20.75 35.09375L20.75 34.8125C21.433594 34.046875 22.027344 32.621094 22.28125 31.40625C22.847656 31.066406 23.464844 30.3125 23.65625 28.65625C23.738281 27.933594 23.628906 27.265625 23.34375 26.78125C23.980469 25.164063 23.96875 22.449219 22.9375 20.375C22.113281 18.71875 20.738281 17.726563 19.03125 17.53125L18.5625 16.5625C18.394531 16.21875 18.039063 16 17.65625 16Z" />
</svg>