<?xml version="1.0" encoding="utf-8"?>
<svg xmlns="http://www.w3.org/2000/svg" viewBox="0 0 50 50" width="515" height="515">
  <path d="M25 2C12.300781 2 2 12.300781 2 25C2 37.699219 12.300781 48 25 48C37.699219 48 48 37.699219 48 25C48 12.300781 37.699219 2 25 2 Z M 38 28C38 28.601563 37.601563 29 37 29L29 29L29 37C29 37.601563 28.601563 38 28 38L22 38C21.398438 38 21 37.601563 21 37L21 29L13 29C12.398438 29 12 28.601563 12 28L12 22C12 21.398438 12.398438 21 13 21L21 21L21 13C21 12.398438 21.398438 12 22 12L28 12C28.601563 12 29 12.398438 29 13L29 21L37 21C37.601563 21 38 21.398438 38 22Z" />
</svg>