<?xml version="1.0" encoding="utf-8"?>
<svg xmlns="http://www.w3.org/2000/svg" viewBox="0 0 50 50" width="515" height="515">
  <path d="M26 3C22.14 3 19 6.14 19 10C19 13.519553 21.613417 16.432051 25 16.919922L25 24.082031C22.282806 24.473703 20.065097 26.422634 19.294922 29L32.705078 29C31.934903 26.422634 29.717194 24.473703 27 24.082031L27 16.919922C30.386583 16.432051 33 13.519553 33 10C33 6.14 29.86 3 26 3 z M 10 26C8.897 26 8 26.897 8 28L8 29L15 29L15 28C15 26.897 14.103 26 13 26L10 26 z M 6 31C3.794 31 2 32.794 2 35L2 43C2 45.206 3.794 47 6 47L44 47C46.206 47 48 45.206 48 43L48 35C48 32.794 46.206 31 44 31L6 31 z" />
</svg>