<?xml version="1.0" encoding="utf-8"?>
<svg xmlns="http://www.w3.org/2000/svg" viewBox="0 0 50 50" width="515" height="515">
  <path d="M22.875 4C18.226563 4.085938 15.269531 5.828125 13.96875 8.625C12.730469 11.285156 12.992188 14.65625 13.875 18.28125C13.398438 18.839844 13.019531 19.589844 13.15625 20.71875C13.304688 21.949219 13.644531 22.824219 14.125 23.4375C14.390625 23.773438 14.738281 23.804688 15.0625 23.96875C15.238281 25.015625 15.53125 26.0625 15.96875 26.9375C16.21875 27.441406 16.503906 27.90625 16.78125 28.28125C16.90625 28.449219 17.085938 28.546875 17.21875 28.6875C17.226563 29.921875 17.230469 30.949219 17.125 32.25C17.125 32.261719 17.125 32.269531 17.125 32.28125C17.046875 32.457031 16.960938 32.625 16.84375 32.78125C16.703125 32.972656 16.515625 33.167969 16.3125 33.34375C16.1875 33.453125 16.050781 33.554688 15.90625 33.65625C15.824219 33.714844 15.746094 33.753906 15.65625 33.8125C15.535156 33.886719 15.414063 33.957031 15.28125 34.03125C15.128906 34.117188 14.980469 34.195313 14.8125 34.28125C14.621094 34.375 14.421875 34.46875 14.21875 34.5625C13.730469 34.785156 13.210938 34.996094 12.65625 35.21875C12.476563 35.289063 12.308594 35.363281 12.125 35.4375C12.105469 35.445313 12.082031 35.460938 12.0625 35.46875C11.59375 35.652344 11.109375 35.828125 10.625 36.03125C10.484375 36.089844 10.359375 36.15625 10.21875 36.21875C9.847656 36.378906 9.492188 36.539063 9.125 36.71875C8.65625 36.945313 8.171875 37.199219 7.71875 37.46875C7.207031 37.777344 6.710938 38.121094 6.25 38.5C6.058594 38.65625 5.871094 38.828125 5.6875 39C5.636719 39.046875 5.578125 39.078125 5.53125 39.125C5.511719 39.144531 5.488281 39.167969 5.46875 39.1875C5.3125 39.34375 5.175781 39.484375 5.03125 39.65625C4.855469 39.863281 4.691406 40.082031 4.53125 40.3125C4.523438 40.324219 4.507813 40.332031 4.5 40.34375C4.367188 40.539063 4.242188 40.757813 4.125 40.96875C4.023438 41.148438 3.933594 41.335938 3.84375 41.53125C3.8125 41.59375 3.777344 41.652344 3.75 41.71875C3.675781 41.894531 3.597656 42.066406 3.53125 42.25C3.5 42.339844 3.5 42.441406 3.46875 42.53125C3.421875 42.679688 3.351563 42.816406 3.3125 42.96875C3.246094 43.21875 3.203125 43.484375 3.15625 43.75C3.148438 43.800781 3.132813 43.851563 3.125 43.90625C3.070313 44.238281 3.023438 44.578125 3 44.9375L2.9375 46L29.375 46L35.03125 40.34375C34.664063 39.804688 34.335938 39.253906 34.0625 38.75C33.449219 38.730469 32.84375 38.5 32.375 38.03125C31.46875 37.125 31.414063 35.730469 32.1875 34.75C30.628906 34.078125 29.40625 33.34375 28.9375 32.3125C28.824219 30.972656 28.835938 29.945313 28.84375 28.6875C28.976563 28.542969 29.15625 28.449219 29.28125 28.28125C29.554688 27.902344 29.816406 27.4375 30.0625 26.9375C30.488281 26.0625 30.796875 25.011719 30.96875 23.96875C31.28125 23.804688 31.617188 23.765625 31.875 23.4375C32.355469 22.824219 32.695313 21.949219 32.84375 20.71875C32.976563 19.625 32.609375 18.902344 32.15625 18.34375C32.636719 16.816406 33.269531 14.441406 33.0625 12.03125C32.949219 10.707031 32.5625 9.375 31.6875 8.28125C30.859375 7.246094 29.546875 6.542969 27.875 6.25C26.855469 4.933594 25.144531 4 22.90625 4 Z M 22.90625 6C22.917969 6 22.925781 6 22.9375 6C24.835938 6.011719 26.207031 6.921875 26.625 7.65625L26.875 8.0625L27.34375 8.125C28.757813 8.320313 29.574219 8.84375 30.125 9.53125C30.675781 10.21875 30.972656 11.15625 31.0625 12.21875C31.246094 14.34375 30.570313 16.875 30.125 18.21875L29.875 19L30.5625 19.40625C30.519531 19.378906 30.945313 19.667969 30.84375 20.5C30.726563 21.480469 30.492188 21.988281 30.3125 22.21875C30.132813 22.449219 30.039063 22.4375 30.03125 22.4375L29.1875 22.5L29.09375 23.3125C29 24.175781 28.652344 25.234375 28.25 26.0625C28.046875 26.476563 27.839844 26.839844 27.65625 27.09375C27.472656 27.347656 27.28125 27.488281 27.375 27.4375L26.84375 27.71875L26.84375 28.3125C26.84375 29.691406 26.78125 30.847656 26.90625 32.40625C26.835938 32.433594 26.757813 32.445313 26.6875 32.46875C26.578125 32.507813 26.480469 32.554688 26.34375 32.59375C25.921875 32.714844 25.34375 32.828125 24.625 32.90625C24.148438 32.957031 23.621094 33 23 33C22.128906 33 21.4375 32.933594 20.84375 32.84375C20.398438 32.777344 20.023438 32.710938 19.71875 32.625C19.605469 32.59375 19.53125 32.5625 19.4375 32.53125C19.296875 32.488281 19.253906 32.472656 19.15625 32.4375C19.285156 30.863281 19.21875 29.703125 19.21875 28.3125L19.21875 27.71875L18.6875 27.4375C18.777344 27.484375 18.5625 27.347656 18.375 27.09375C18.1875 26.839844 17.957031 26.476563 17.75 26.0625C17.335938 25.234375 16.996094 24.167969 16.90625 23.3125L16.8125 22.5L15.96875 22.4375C15.960938 22.4375 15.867188 22.449219 15.6875 22.21875C15.507813 21.988281 15.273438 21.480469 15.15625 20.5C15.058594 19.667969 15.480469 19.378906 15.4375 19.40625L16.09375 19L15.90625 18.28125C14.964844 14.652344 14.820313 11.539063 15.78125 9.46875C16.742188 7.40625 18.726563 6.085938 22.90625 6 Z M 40.40625 28.90625C40.183594 28.929688 39.972656 29.03125 39.8125 29.1875L39.1875 29.84375L38.75 30.25L33.4375 35.5625C33.332031 35.648438 33.25 35.753906 33.1875 35.875C33.175781 35.90625 33.164063 35.9375 33.15625 35.96875C32.953125 36.453125 33.15625 37.011719 33.625 37.25C33.65625 37.261719 33.6875 37.273438 33.71875 37.28125C33.867188 37.339844 34.027344 37.359375 34.1875 37.34375C34.355469 37.324219 34.519531 37.257813 34.65625 37.15625C34.726563 37.101563 34.789063 37.039063 34.84375 36.96875C34.960938 37.226563 35.097656 37.492188 35.25 37.78125C35.277344 37.835938 35.285156 37.882813 35.3125 37.9375C35.433594 38.160156 35.574219 38.386719 35.71875 38.625C36.078125 39.230469 36.515625 39.855469 37.03125 40.46875L29.1875 48.28125C28.847656 48.601563 28.769531 49.113281 29 49.519531C29.230469 49.925781 29.707031 50.125 30.15625 50C30.222656 49.976563 30.285156 49.945313 30.34375 49.90625C30.449219 49.859375 30.542969 49.796875 30.625 49.71875L38.4375 41.875C39.289063 42.589844 40.171875 43.171875 40.96875 43.59375C41.242188 43.742188 41.503906 43.851563 41.75 43.96875C41.808594 43.996094 41.878906 44.035156 41.9375 44.0625C41.578125 44.339844 41.453125 44.824219 41.628906 45.242188C41.804688 45.660156 42.238281 45.90625 42.6875 45.84375C42.855469 45.824219 43.019531 45.757813 43.15625 45.65625C43.214844 45.609375 43.265625 45.558594 43.3125 45.5C43.324219 45.488281 43.332031 45.480469 43.34375 45.46875L49.71875 39.09375C49.9375 38.882813 50.050781 38.578125 50.019531 38.273438C49.988281 37.96875 49.820313 37.695313 49.5625 37.53125C49.476563 37.476563 49.382813 37.433594 49.28125 37.40625C49.179688 37.378906 49.074219 37.367188 48.96875 37.375C48.839844 37.382813 48.710938 37.414063 48.59375 37.46875C48.527344 37.492188 48.464844 37.523438 48.40625 37.5625C48.359375 37.601563 48.320313 37.640625 48.28125 37.6875C48.140625 37.375 48.007813 37.09375 47.8125 36.71875C47.746094 36.589844 47.667969 36.449219 47.59375 36.3125C47.566406 36.261719 47.527344 36.207031 47.5 36.15625C47.347656 35.886719 47.183594 35.621094 47 35.34375C46.820313 35.074219 46.644531 34.800781 46.4375 34.53125C46.398438 34.480469 46.351563 34.425781 46.3125 34.375C46.054688 34.054688 45.769531 33.738281 45.46875 33.4375C45.117188 33.085938 44.746094 32.757813 44.375 32.46875C44.003906 32.179688 43.617188 31.917969 43.25 31.6875C42.511719 31.226563 41.8125 30.886719 41.21875 30.625C41.417969 30.441406 41.535156 30.183594 41.539063 29.914063C41.546875 29.640625 41.441406 29.378906 41.25 29.1875C41.21875 29.164063 41.1875 29.144531 41.15625 29.125C40.945313 28.953125 40.675781 28.875 40.40625 28.90625 Z M 39.6875 32.15625C40.390625 32.421875 42.429688 33.214844 44.0625 34.84375C44.46875 35.25 44.816406 35.691406 45.125 36.125C45.277344 36.339844 45.433594 36.539063 45.5625 36.75C46.214844 37.808594 46.585938 38.78125 46.75 39.21875L46.21875 39.75L43.46875 42.53125C43.300781 42.46875 43.050781 42.351563 42.75 42.21875C42.742188 42.214844 42.726563 42.222656 42.71875 42.21875C42.117188 41.949219 41.285156 41.539063 40.46875 40.96875C40.425781 40.941406 40.386719 40.90625 40.34375 40.875C40.175781 40.753906 40.011719 40.632813 39.84375 40.5C39.796875 40.464844 39.765625 40.414063 39.71875 40.375C39.5625 40.246094 39.398438 40.113281 39.25 39.96875C39.246094 39.964844 39.253906 39.941406 39.25 39.9375C39.230469 39.90625 39.210938 39.875 39.1875 39.84375C39.167969 39.820313 39.148438 39.800781 39.125 39.78125C39.09375 39.757813 39.0625 39.738281 39.03125 39.71875C39.003906 39.683594 38.972656 39.652344 38.9375 39.625C38.917969 39.613281 38.894531 39.601563 38.875 39.59375C38.753906 39.464844 38.644531 39.320313 38.53125 39.1875C38.339844 38.957031 38.167969 38.734375 38 38.5C37.703125 38.078125 37.464844 37.675781 37.25 37.28125C37.230469 37.246094 37.207031 37.222656 37.1875 37.1875C36.988281 36.820313 36.816406 36.480469 36.6875 36.1875C36.679688 36.171875 36.664063 36.171875 36.65625 36.15625C36.523438 35.859375 36.4375 35.601563 36.375 35.4375L38.03125 33.8125 Z M 21.34375 34.9375C21.84375 34.980469 22.390625 35 23 35C23.609375 35 24.15625 34.980469 24.65625 34.9375L26.625 44L19.375 44Z" />
</svg>