<?xml version="1.0" encoding="utf-8"?>
<svg xmlns="http://www.w3.org/2000/svg" viewBox="0 0 50 50" width="515" height="515">
  <path d="M25 2C22.199219 2 20 4.199219 20 7C20 9.800781 22.199219 12 25 12C27.800781 12 30 9.800781 30 7C30 4.199219 27.800781 2 25 2 Z M 9.375 9C9.242188 9.015625 9.125 9.042969 9 9.09375C8.898438 9.09375 8.695313 9.1875 8.59375 9.1875L8.5 9.1875C8.398438 9.289063 8.195313 9.304688 8.09375 9.40625C8.09375 9.507813 8 9.5 8 9.5C7.898438 9.601563 7.8125 9.585938 7.8125 9.6875C7.3125 10.1875 7 10.800781 7 11.5C7 12.5 7.511719 13.289063 8.3125 13.6875C8.414063 13.789063 8.398438 13.8125 8.5 13.8125L20 18L20 25.09375L10.59375 34.8125C10.195313 35.210938 9.90625 35.800781 9.90625 36.5C9.90625 37.898438 11.007813 39 12.40625 39C12.707031 39 13.011719 38.914063 13.3125 38.8125C13.613281 38.710938 13.886719 38.511719 14.1875 38.3125L25 28.09375L35.6875 38.3125C35.886719 38.511719 36.195313 38.710938 36.59375 38.8125C36.894531 38.914063 37.199219 39 37.5 39C38.898438 39 40 37.898438 40 36.5C40 35.800781 39.710938 35.3125 39.3125 34.8125L30 25.09375L30 18L41.5 13.8125C41.601563 13.8125 41.585938 13.6875 41.6875 13.6875C42.488281 13.289063 43 12.5 43 11.5C43 10.800781 42.6875 10.1875 42.1875 9.6875L42 9.5C41.898438 9.5 41.914063 9.40625 41.8125 9.40625C41.710938 9.304688 41.605469 9.289063 41.40625 9.1875L41.3125 9.1875C41.210938 9.085938 41.007813 9.09375 40.90625 9.09375C40.40625 8.992188 39.804688 8.988281 39.40625 9.1875L28.90625 13L21.09375 13L10.5 9.1875C10.199219 9.039063 9.773438 8.953125 9.375 9 Z M 25 39C21.632813 39 18.71875 39.84375 18.71875 39.84375C18.339844 39.910156 18.035156 40.1875 17.929688 40.558594C17.824219 40.929688 17.941406 41.324219 18.230469 41.578125C18.519531 41.832031 18.925781 41.898438 19.28125 41.75C19.28125 41.75 21.964844 41 25 41C28.035156 41 30.71875 41.75 30.71875 41.75C31.074219 41.898438 31.480469 41.832031 31.769531 41.578125C32.058594 41.324219 32.175781 40.929688 32.070313 40.558594C31.964844 40.1875 31.660156 39.910156 31.28125 39.84375C31.28125 39.84375 28.367188 39 25 39 Z M 25 43C17.136719 43 10.5625 46.09375 10.5625 46.09375C10.0625 46.335938 9.851563 46.9375 10.09375 47.4375C10.335938 47.9375 10.9375 48.148438 11.4375 47.90625C11.4375 47.90625 17.664063 45 25 45C32.335938 45 38.5625 47.90625 38.5625 47.90625C39.0625 48.148438 39.664063 47.9375 39.90625 47.4375C40.148438 46.9375 39.9375 46.335938 39.4375 46.09375C39.4375 46.09375 32.863281 43 25 43Z" />
</svg>