<?xml version="1.0" encoding="utf-8"?>
<svg xmlns="http://www.w3.org/2000/svg" viewBox="0 0 50 50" width="515" height="515">
  <path d="M34 0C25.179688 0 18 7.179688 18 16C18 17.957031 18.355469 19.828125 19 21.5625L0 40.59375L0 46.59375L18.5625 28L20 29.4375L1 48.40625L2.59375 50L9.40625 50L13 46.40625L13 44L15.40625 44L19 40.40625L19 39L20.40625 39L23 36.40625L23 35L24.40625 35L28.4375 30.96875C30.175781 31.617188 32.039063 32 34 32C42.820313 32 50 24.820313 50 16C50 7.179688 42.820313 0 34 0 Z M 34 5C36.9375 5 39.703125 6.140625 41.78125 8.21875C43.859375 10.296875 45 13.0625 45 16C45 18.9375 43.859375 21.703125 41.78125 23.78125L41.0625 24.5L25.5 8.9375L26.21875 8.21875C28.296875 6.140625 31.0625 5 34 5Z" />
</svg>