<?xml version="1.0" encoding="utf-8"?>
<svg xmlns="http://www.w3.org/2000/svg" viewBox="0 0 50 50" width="515" height="515">
  <path d="M5 3C3.898438 3 3 3.898438 3 5L3 9C3 10.101563 3.898438 11 5 11L13 11C14.101563 11 15 10.101563 15 9L15 5C15 3.898438 14.101563 3 13 3 Z M 21 3C19.898438 3 19 3.898438 19 5L19 9C19 10.101563 19.898438 11 21 11L29 11C30.101563 11 31 10.101563 31 9L31 5C31 3.898438 30.101563 3 29 3 Z M 37 3C35.898438 3 35 3.898438 35 5L35 9C35 10.101563 35.898438 11 37 11L45 11C46.101563 11 47 10.101563 47 9L47 5C47 3.898438 46.101563 3 45 3 Z M 5 15C3.898438 15 3 15.898438 3 17L3 21C3 22.101563 3.898438 23 5 23L13 23C14.101563 23 15 22.101563 15 21L15 17C15 15.898438 14.101563 15 13 15 Z M 21 15C19.898438 15 19 15.898438 19 17L19 21C19 22.101563 19.898438 23 21 23L29 23C30.101563 23 31 22.101563 31 21L31 17C31 15.898438 30.101563 15 29 15 Z M 37 15C35.898438 15 35 15.898438 35 17L35 21C35 22.101563 35.898438 23 37 23L45 23C46.101563 23 47 22.101563 47 21L47 17C47 15.898438 46.101563 15 45 15 Z M 5 27C3.898438 27 3 27.898438 3 29L3 33C3 34.101563 3.898438 35 5 35L13 35C14.101563 35 15 34.101563 15 33L15 29C15 27.898438 14.101563 27 13 27 Z M 21 27C19.898438 27 19 27.898438 19 29L19 33C19 34.101563 19.898438 35 21 35L29 35C30.101563 35 31 34.101563 31 33L31 29C31 27.898438 30.101563 27 29 27 Z M 37 27C35.898438 27 35 27.898438 35 29L35 33C35 34.101563 35.898438 35 37 35L45 35C46.101563 35 47 34.101563 47 33L47 29C47 27.898438 46.101563 27 45 27 Z M 21 39C19.898438 39 19 39.898438 19 41L19 45C19 46.101563 19.898438 47 21 47L29 47C30.101563 47 31 46.101563 31 45L31 41C31 39.898438 30.101563 39 29 39Z" />
</svg>