<?xml version="1.0" encoding="utf-8"?>
<svg xmlns="http://www.w3.org/2000/svg" viewBox="0 0 50 50" width="515" height="515">
  <path d="M24.90625 7.03125C24.722656 7.019531 24.53125 7.039063 24.34375 7.0625L20.6875 7.5625C19.933594 7.660156 19.273438 8.050781 18.8125 8.65625C18.351563 9.257813 18.148438 9.996094 18.25 10.75L18.3125 11.25L11.90625 12.09375C9.660156 12.390625 8.722656 13.683594 7.875 14.8125C7.039063 15.925781 6.570313 16.53125 5.15625 16.71875C4.609375 16.792969 4.207031 17.296875 4.28125 17.84375C4.332031 18.226563 4.601563 18.53125 4.9375 18.65625C5.046875 18.699219 5.15625 18.71875 5.28125 18.71875C5.324219 18.71875 5.390625 18.726563 5.4375 18.71875L42.03125 13.84375C42.578125 13.769531 42.949219 13.296875 42.875 12.75C42.820313 12.339844 42.535156 12.007813 42.15625 11.90625C42.027344 11.871094 41.890625 11.855469 41.75 11.875C40.347656 12.0625 39.726563 11.578125 38.625 10.71875C37.515625 9.851563 36.277344 8.886719 34.03125 9.1875L27.625 10.03125L27.5625 9.5C27.464844 8.746094 27.074219 8.085938 26.46875 7.625C26.015625 7.277344 25.460938 7.066406 24.90625 7.03125 Z M 24.625 9.0625C24.847656 9.035156 25.070313 9.082031 25.25 9.21875C25.429688 9.355469 25.53125 9.554688 25.5625 9.78125L25.625 10.28125L20.28125 11L20.21875 10.46875C20.1875 10.246094 20.269531 10.023438 20.40625 9.84375C20.542969 9.664063 20.746094 9.5625 20.96875 9.53125 Z M 5 21C4.449219 21 4 21.449219 4 22C4 22.550781 4.449219 23 5 23L5 30.9375C2.332031 30.621094 2.023438 29.082031 2 28.90625C1.945313 28.355469 1.464844 27.953125 0.90625 28C0.355469 28.054688 -0.0546875 28.542969 0 29.09375C0.125 30.332031 1.359375 32.582031 5 32.9375L5 45.1875C5 47.835938 7.164063 50 9.8125 50L40.1875 50C42.832031 50 45 47.835938 45 45.1875L45 32.9375C48.640625 32.582031 49.875 30.332031 50 29.09375C50.054688 28.550781 49.664063 28.097656 49.125 28.03125C48.578125 27.960938 48.074219 28.335938 48 28.875C47.972656 29.070313 47.667969 30.621094 45 30.9375L45 23C45.554688 23 46 22.550781 46 22C46 21.449219 45.554688 21 45 21Z" />
</svg>