<?xml version="1.0" encoding="utf-8"?>
<svg xmlns="http://www.w3.org/2000/svg" viewBox="0 0 50 50" width="515" height="515">
  <path d="M25 4.96875L24.75 5.03125C24.628906 5.058594 12.773438 8 9 8L8 8L8 28C8 40.480469 23.976563 46.679688 24.65625 46.9375L25 47.0625L25.34375 46.9375C26.023438 46.683594 42 40.574219 42 28L42 8L41 8C37.21875 8 25.367188 5.058594 25.25 5.03125 Z M 25 9.09375L25.25 9.15625C27.960938 9.8125 33.109375 11.007813 37.15625 11.625L38 11.75L38 28C38 35.746094 29.21875 40.742188 25.4375 42.53125L25 42.75L24.5625 42.53125C20.785156 40.742188 12 35.753906 12 28L12 11.75L12.84375 11.625C16.902344 11.003906 22.042969 9.8125 24.75 9.15625 Z M 25 11.15625C22.398438 11.785156 17.855469 12.832031 14 13.46875L14 28C14 28.429688 14.03125 28.835938 14.09375 29.25L36 14.65625L36 13.46875C32.152344 12.832031 27.605469 11.785156 25 11.15625 Z M 19 16.5L21 19L19 21.5L17 19 Z M 36 21.34375L16.53125 34.3125C19.011719 37.296875 22.738281 39.421875 25 40.53125C28.628906 38.75 36 34.34375 36 28 Z M 31 28.5L33 31L31 33.5L29 31Z" />
</svg>