<?xml version="1.0" encoding="utf-8"?>
<svg xmlns="http://www.w3.org/2000/svg" viewBox="0 0 50 50" width="515" height="515">
  <path d="M26.736328 1.0605469C26.655391 1.0544531 26.572734 1.0578125 26.490234 1.0703125C21.480234 1.9103125 20.400234 6.0999219 19.990234 7.6699219C19.980234 7.6899219 19.980703 7.7202344 19.970703 7.7402344C18.540703 8.6602344 16.830625 10.189141 15.640625 11.369141C11.890625 15.129141 10.810625 21.090078 12.890625 26.580078C13.040625 26.950078 13.210156 27.349062 13.410156 27.789062C13.920156 28.959063 14.530313 30.34 14.820312 32L35.789062 32C34.849063 27.49 30.980703 23.830938 28.720703 21.710938C29.280703 21.510938 29.780469 21.119531 30.230469 20.769531C30.540469 20.539531 31.050469 20.150625 31.230469 20.140625C31.920469 20.140625 32.119531 20.370313 32.519531 20.820312C32.959531 21.320313 33.610937 22.070312 34.960938 22.070312C36.480937 22.070312 37.279766 20.860859 37.759766 20.130859C37.859766 19.980859 37.949062 19.840469 38.039062 19.730469C38.089062 19.670469 38.309219 19.579766 38.449219 19.509766C38.899219 19.309766 39.569609 19.01 39.849609 18.25C40.079609 17.65 39.999844 16.969844 39.589844 16.089844C39.039844 14.869844 36.910938 10.769063 32.710938 9.0390625C32.470938 8.9390625 32.399219 8.8309375 32.199219 8.4609375C31.569219 7.3209375 30.759922 6.37 27.419922 6.25C27.309922 5.42 27.340625 3.74 27.640625 2.25C27.700625 1.93 27.610859 1.599375 27.380859 1.359375C27.208359 1.179375 26.979141 1.0788281 26.736328 1.0605469 z M 12 34C10.34 34 9 35.34 9 37C9 38.66 10.34 40 12 40L37.669922 40C39.319922 40 40.669922 38.66 40.669922 37C40.669922 35.34 39.319922 34 37.669922 34L12 34 z M 10.859375 42C9.079375 43.67 7.5408594 45.879297 8.1308594 47.529297C8.3208594 48.079297 8.9209375 49 10.710938 49L39.289062 49C41.089063 49 41.679141 48.079062 41.869141 47.539062C42.459141 45.879062 40.910859 43.67 39.130859 42L10.859375 42 z" />
</svg>