<?xml version="1.0" encoding="utf-8"?>
<svg xmlns="http://www.w3.org/2000/svg" viewBox="0 0 50 50" width="515" height="515">
  <path d="M14 2C13.445313 2 13 2.449219 13 3L13 21C13 21.550781 13.445313 22 14 22L22.1875 22C24.703125 22 27 24 27 24L27 3.375C26.265625 2.535156 25.199219 2 24 2 Z M 32 2C30.800781 2 29.734375 2.535156 29 3.375L29 24C29 24 31.296875 22 33.8125 22L42 22C42.554688 22 43 21.550781 43 21L43 3C43 2.449219 42.554688 2 42 2 Z M 44.9375 28C44.359375 28.011719 43.789063 28.203125 43.28125 28.5625L32.6875 35.0625C32.90625 35.683594 33.019531 36.328125 33 37.03125C32.988281 37.371094 32.984375 37.769531 32.84375 38.1875C31.890625 41 29.546875 41 28.78125 41C26.808594 41 20.003906 38.449219 18.65625 37.9375C18.140625 37.742188 17.867188 37.171875 18.0625 36.65625C18.257813 36.140625 18.828125 35.863281 19.34375 36.0625C22.328125 37.195313 27.542969 39 28.78125 39C29.625 39 30.484375 38.902344 30.9375 37.5625C30.984375 37.429688 30.992188 37.222656 31 37C31.019531 36.335938 31.058594 34.328125 27.375 32.71875C25.980469 32.109375 24.042969 31.3125 22.09375 30.5C20.414063 29.800781 18.757813 29.109375 17.40625 28.53125C14.671875 27.726563 11.710938 27.863281 9.0625 28.96875L2.625 31.65625C2.253906 31.8125 2 32.160156 2 32.5625L2 45C2 45.378906 2.195313 45.734375 2.53125 45.90625C2.867188 46.078125 3.289063 46.035156 3.59375 45.8125L7.0625 43.25C8.835938 41.949219 11.214844 41.65625 13.25 42.5L23 46.53125C23.742188 46.835938 24.503906 46.96875 25.28125 46.96875C26.015625 46.96875 26.746094 46.828125 27.4375 46.5625C27.558594 46.535156 27.65625 46.480469 27.71875 46.4375L27.75 46.4375C28.066406 46.292969 28.394531 46.136719 28.6875 45.9375L46.375 33.875C46.519531 33.773438 46.613281 33.648438 46.6875 33.5L46.71875 33.4375C48.074219 32.480469 48.390625 30.636719 47.4375 29.28125C46.839844 28.4375 45.898438 27.980469 44.9375 28Z" />
</svg>