<?xml version="1.0" encoding="utf-8"?>
<svg xmlns="http://www.w3.org/2000/svg" viewBox="0 0 50 50" width="515" height="515">
  <path d="M17.5 25C18.328125 25 19 25.671875 19 26.5C19 27.328125 18.328125 28 17.5 28C16.671875 28 16 27.328125 16 26.5C16 25.671875 16.671875 25 17.5 25 Z M 31.5 25C32.328125 25 33 25.671875 33 26.5C33 27.328125 32.328125 28 31.5 28C30.671875 28 30 27.328125 30 26.5C30 25.671875 30.671875 25 31.5 25 Z M 24.5 24C22.019531 24 20 26.019531 20 28.5L20 33.5C20 35.980469 22.019531 38 24.5 38C26.980469 38 29 35.980469 29 33.5L29 28.5C29 26.019531 26.980469 24 24.5 24 Z M 41.507813 17.503906C41.828125 16.949219 42 16.3125 42 15.667969C42 15.023438 41.828125 14.386719 41.507813 13.835938C40.699219 12.433594 38.976563 11.710938 37.410156 12.117188C37.089844 12.199219 36.78125 12.328125 36.496094 12.492188C36.019531 12.769531 35.855469 13.382813 36.136719 13.859375C36.410156 14.339844 37.027344 14.5 37.503906 14.222656C37.628906 14.148438 37.769531 14.089844 37.914063 14.054688C38.621094 13.871094 39.40625 14.195313 39.777344 14.835938C39.921875 15.085938 40 15.375 40 15.667969C40 15.960938 39.921875 16.25 39.777344 16.5C39.5 16.976563 39.664063 17.589844 40.140625 17.867188C40.296875 17.957031 40.472656 18 40.640625 18C40.984375 18 41.320313 17.824219 41.507813 17.503906 Z M 8.859375 17.867188C9.335938 17.589844 9.5 16.976563 9.222656 16.5C9.078125 16.25 9 15.960938 9 15.667969C9 15.375 9.078125 15.085938 9.222656 14.835938C9.589844 14.195313 10.382813 13.871094 11.085938 14.054688C11.230469 14.089844 11.371094 14.148438 11.5 14.222656C11.976563 14.496094 12.589844 14.332031 12.867188 13.855469C13.140625 13.375 12.976563 12.765625 12.5 12.488281C12.214844 12.324219 11.90625 12.199219 11.589844 12.117188C10.023438 11.714844 8.300781 12.433594 7.492188 13.832031C7.171875 14.386719 7 15.023438 7 15.667969C7 16.3125 7.171875 16.945313 7.492188 17.503906C7.675781 17.820313 8.011719 18 8.359375 18C8.527344 18 8.699219 17.957031 8.859375 17.867188 Z M 24.5 43C14.523438 43 7 37.410156 7 30C7 27.019531 13.417969 16.820313 15.386719 13.769531C16.765625 11.71875 21.15625 11 24.5 11C27.847656 11 32.234375 11.71875 33.601563 13.746094L33.585938 13.757813C34.574219 15.253906 42 26.890625 42 30C42 37.410156 34.476563 43 24.5 43 Z M 17.0625 14.855469C13.152344 20.925781 9 28.296875 9 30C9 37.144531 16.984375 41 24.5 41C32.015625 41 40 37.144531 40 30C40 28.148438 35.191406 19.871094 31.9375 14.855469C31.40625 14.085938 28.757813 13 24.5 13C20.246094 13 17.597656 14.082031 17.0625 14.855469 Z M 9.089844 29.21875L8.046875 28.117188C4.261719 24.136719 2 19.339844 2 15.285156C2 10.71875 6.074219 7 11.085938 7C14.878906 7 18.304688 9.1875 19.609375 12.441406L20.007813 13.429688L18.996094 13.761719C17.589844 14.226563 17.164063 14.710938 17.0625 14.855469C16.808594 15.25 11.636719 23.304688 9.6875 27.824219 Z M 11.085938 9C7.179688 9 4 11.820313 4 15.285156C4 18.480469 5.660156 22.265625 8.5 25.628906C10.753906 20.996094 14.878906 14.558594 15.386719 13.769531L15.402344 13.746094C15.777344 13.183594 16.414063 12.695313 17.300781 12.28125C16.074219 10.285156 13.695313 9 11.085938 9 Z M 39.90625 29.214844L39.308594 27.828125C37.324219 23.234375 32.089844 15.097656 31.9375 14.859375C31.839844 14.714844 31.417969 14.230469 30.003906 13.761719L28.992188 13.429688L29.390625 12.441406C30.695313 9.1875 34.121094 7 37.914063 7C42.925781 7 47 10.71875 47 15.285156C47 19.339844 44.738281 24.136719 40.949219 28.121094 Z M 33.5625 13.769531C34.855469 15.414063 38.710938 22.109375 40.484375 25.644531C43.332031 22.277344 45 18.488281 45 15.285156C45 11.820313 41.820313 9 37.914063 9C35.304688 9 32.929688 10.285156 31.699219 12.28125C32.585938 12.695313 33.222656 13.183594 33.597656 13.746094Z" />
</svg>