<?xml version="1.0" encoding="utf-8"?>
<svg xmlns="http://www.w3.org/2000/svg" viewBox="0 0 50 50" width="515" height="515">
  <path d="M26 4C21.882813 4 18.933594 5.410156 16.980469 7.585938C15.027344 9.757813 14.058594 12.59375 13.484375 15.4375C12.90625 18.285156 12.730469 21.175781 12.476563 23.496094C12.351563 24.65625 12.203125 25.675781 12 26.441406C11.796875 27.207031 11.527344 27.683594 11.339844 27.851563C11.125 28.042969 11 28.3125 11 28.597656C11 29.417969 11.546875 30.074219 12.140625 30.464844C12.738281 30.851563 13.445313 31.105469 14.265625 31.328125C15.617188 31.695313 17.347656 31.914063 19.074219 32.128906C19.027344 32.242188 19 32.367188 19 32.5C19 32.515625 19.003906 32.53125 19.003906 32.546875C18.304688 33.785156 16.3125 34.570313 14.195313 35.394531C10.25 36.925781 5.335938 38.835938 5 44.945313C4.984375 45.21875 5.085938 45.488281 5.273438 45.6875C5.464844 45.886719 5.726563 46 6 46L44 46C44.273438 46 44.535156 45.886719 44.726563 45.6875C44.914063 45.488281 45.015625 45.21875 45 44.945313C44.664063 38.855469 39.792969 36.933594 35.882813 35.386719C33.640625 34.5 31.695313 33.71875 30.984375 32.421875C30.976563 32.308594 30.949219 32.203125 30.90625 32.105469C32.71875 31.878906 34.535156 31.59375 35.917969 31.152344C36.75 30.886719 37.457031 30.59375 38.03125 30.230469C38.601563 29.867188 39.199219 29.371094 39.199219 28.5C39.199219 28.21875 39.078125 27.949219 38.871094 27.761719C38.726563 27.628906 38.503906 27.226563 38.359375 26.539063C38.21875 25.851563 38.140625 24.929688 38.09375 23.875C38.007813 21.765625 38.039063 19.136719 37.71875 16.539063C37.394531 13.941406 36.71875 11.335938 35.0625 9.320313C33.515625 7.425781 31.050781 6.207031 27.644531 6.058594L26.894531 4.554688C26.726563 4.214844 26.378906 4 26 4 Z M 25.433594 6.101563L26.105469 7.445313C26.273438 7.785156 26.621094 8 27 8C30.332031 8 32.238281 9.023438 33.515625 10.585938C34.796875 12.148438 35.429688 14.375 35.734375 16.785156C36.035156 19.199219 36.003906 21.765625 36.097656 23.957031C36.144531 25.054688 36.21875 26.0625 36.40625 26.949219C36.523438 27.519531 36.832031 27.96875 37.125 28.433594C37.09375 28.453125 37.066406 28.472656 36.953125 28.546875C36.625 28.753906 36.039063 29.015625 35.308594 29.25C33.847656 29.714844 31.792969 30.109375 29.707031 30.304688C29.425781 30.332031 29.167969 30.476563 29 30.703125C28.828125 30.929688 28.765625 31.21875 28.820313 31.496094C28.898438 31.894531 28.902344 32.199219 28.902344 32.5C28.898438 32.558594 28.90625 32.617188 28.917969 32.675781C28.585938 33.144531 27.214844 34 25 34C22.855469 34 21.441406 33.226563 21.09375 32.71875C21.195313 32 21.199219 31.597656 21.199219 31.300781C21.199219 30.792969 20.820313 30.367188 20.316406 30.308594C18.226563 30.058594 16.199219 29.777344 14.785156 29.394531C14.078125 29.207031 13.527344 28.980469 13.238281 28.792969C13 28.636719 13.035156 28.632813 13.042969 28.632813C13.390625 28.117188 13.757813 27.617188 13.933594 26.953125C14.183594 26.003906 14.332031 24.910156 14.464844 23.714844C14.726563 21.316406 14.90625 18.5 15.441406 15.835938C15.980469 13.171875 16.878906 10.6875 18.46875 8.921875C19.957031 7.261719 22.144531 6.234375 25.433594 6.101563Z" />
</svg>