<?xml version="1.0" encoding="utf-8"?>
<svg xmlns="http://www.w3.org/2000/svg" viewBox="0 0 50 50" width="515" height="515">
  <path d="M29 2C28.604 2 28.246938 2.23175 28.085938 2.59375L24.085938 11.59375C23.947937 11.90375 23.976156 12.260922 24.160156 12.544922C24.344156 12.828922 24.661 13 25 13L28 13L28 15L30 15L30 13L33 13C33.339 13 33.654844 12.828922 33.839844 12.544922C34.024844 12.260922 34.052062 11.90275 33.914062 11.59375L29.914062 2.59375C29.753062 2.23175 29.396 2 29 2 z M 42 5 A 6 6 0 0 0 36 11 A 6 6 0 0 0 41 16.910156L41 22L43 22L43 16.914062 A 6 6 0 0 0 48 11 A 6 6 0 0 0 42 5 z M 19 15C16 15 15.08 16.56 14 17C12.17 17.75 9.8492969 17.759766 9.7792969 17.759766C4.9292969 17.759766 1 20.730859 1 24.380859C1 26.480859 2.2905469 28.340781 4.3105469 29.550781C5.1605469 30.060781 5.6191406 30.949141 5.6191406 31.869141L5.6191406 31.900391C5.6191406 33.080391 5.2099219 34.229922 4.4199219 35.169922C3.9999219 35.659922 3.7695312 36.190234 3.7695312 36.740234C3.7695312 39.420234 9.1490625 41.589844 15.789062 41.589844L15.820312 41.589844C17.370312 41.589844 18.799219 42.289922 19.699219 43.419922C20.939219 44.979922 23.070234 46 25.490234 46C27.370234 46 29.070547 45.380859 30.310547 44.380859C32.440547 42.670859 35.079688 41.579844 37.929688 41.589844L38.429688 41.589844C43.789687 41.589844 47 41 47 38C47 34.97 49 33.65 49 31C49 28.56 47 26 43 26L41 26C37 26 36.57 22.57 35 21C33 19 30 19 27 19C25.6 19 24.909688 17.580937 23.929688 16.710938C21.999688 15.000937 21 15 19 15 z M 7 23L10 23C10.55 23 11 23.45 11 24C11 24.55 10.55 25 10 25L7 25C6.45 25 6 24.55 6 24C6 23.45 6.45 23 7 23 z M 15 23L28 23C28.55 23 29 23.45 29 24C29 24.55 28.55 25 28 25L15 25C14.45 25 14 24.55 14 24C14 23.45 14.45 23 15 23 z M 11 30L31 30C31.55 30 32 30.45 32 31C32 31.55 31.55 32 31 32L11 32C10.45 32 10 31.55 10 31C10 30.45 10.45 30 11 30 z M 36 30L40 30C40.55 30 41 30.45 41 31C41 31.55 40.55 32 40 32L36 32C35.45 32 35 31.55 35 31C35 30.45 35.45 30 36 30 z M 20 36L43 36C43.55 36 44 36.45 44 37C44 37.55 43.55 38 43 38L20 38C19.45 38 19 37.55 19 37C19 36.45 19.45 36 20 36 z" />
</svg>