<?xml version="1.0" encoding="utf-8"?>
<svg xmlns="http://www.w3.org/2000/svg" viewBox="0 0 50 50" width="515" height="515">
  <path d="M39.5 0.03125C39.210938 0.03125 38.910156 0.148438 38.71875 0.375L36.53125 3L33 3C32.445313 3 32 3.449219 32 4L32 7.53125L29.34375 9.71875C29.117188 9.910156 29 10.203125 29 10.5C29 10.796875 29.117188 11.089844 29.34375 11.28125L32 13.46875L32 17C32 17.550781 32.445313 18 33 18L36.53125 18L38.71875 20.625C38.910156 20.851563 39.203125 21 39.5 21C39.796875 21 40.089844 20.851563 40.28125 20.625L42.46875 18L46 18C46.554688 18 47 17.550781 47 17L47 13.46875L49.65625 11.28125C49.882813 11.089844 50 10.796875 50 10.5C50 10.203125 49.882813 9.910156 49.65625 9.71875L47 7.53125L47 4C47 3.449219 46.554688 3 46 3L42.46875 3L40.28125 0.375C40.089844 0.148438 39.789063 0.03125 39.5 0.03125 Z M 39.5 7C41.433594 7 43 8.566406 43 10.5C43 12.433594 41.433594 14 39.5 14C37.566406 14 36 12.433594 36 10.5C36 8.566406 37.566406 7 39.5 7 Z M 17 18.03125C16.644531 18.03125 16.300781 18.207031 16.125 18.53125L0.125 48.53125C-0.0390625 48.839844 -0.0234375 49.199219 0.15625 49.5C0.335938 49.800781 0.648438 50 1 50L33 50C33.351563 50 33.664063 49.800781 33.84375 49.5C34.023438 49.199219 34.039063 48.839844 33.875 48.53125L17.875 18.53125C17.699219 18.207031 17.355469 18.03125 17 18.03125 Z M 36 24C35.632813 24 35.300781 24.210938 35.125 24.53125L29.15625 35.4375L35.65625 47.59375C36.054688 48.339844 36.089844 49.214844 35.8125 50L49 50C49.351563 50 49.664063 49.800781 49.84375 49.5C50.023438 49.195313 50.042969 48.84375 49.875 48.53125L36.875 24.53125C36.699219 24.210938 36.367188 24 36 24Z" />
</svg>