<?xml version="1.0" encoding="utf-8"?>
<svg xmlns="http://www.w3.org/2000/svg" viewBox="0 0 50 50" width="515" height="515">
  <path d="M25 2C23.898438 2 23 2.898438 23 4L23 6L5 6C4.398438 6 4 6.398438 4 7L4 26C4 26.601563 4.398438 27 5 27L45 27C45.601563 27 46 26.601563 46 26L46 7C46 6.398438 45.601563 6 45 6L27 6L27 4C27 2.898438 26.101563 2 25 2 Z M 12.3125 11.90625C14.3125 11.90625 15.6875 12.992188 15.6875 14.59375L14 14.59375C13.898438 13.894531 13.304688 13.40625 12.40625 13.40625C11.507813 13.40625 10.8125 13.800781 10.8125 14.5C10.8125 15.101563 11.210938 15.394531 12.3125 15.59375L13.40625 15.8125C15.207031 16.210938 16 17.011719 16 18.3125C15.898438 20.113281 14.488281 21.1875 12.1875 21.1875C10.085938 21.1875 8.695313 20.199219 8.59375 18.5L10.40625 18.5C10.507813 19.199219 11.210938 19.6875 12.3125 19.6875C13.3125 19.6875 14 19.195313 14 18.59375C14 17.992188 13.601563 17.699219 12.5 17.5L11.3125 17.3125C9.710938 17.011719 8.90625 16.085938 8.90625 14.6875C8.90625 12.988281 10.3125 11.90625 12.3125 11.90625 Z M 27.59375 12L29.5 12L29.5 19.3125L33.5 19.3125L33.40625 21L27.59375 21 Z M 35.40625 12L41.3125 12L41.3125 13.59375L37.3125 13.59375L37.3125 15.6875L41.09375 15.6875L41.09375 17.1875L37.3125 17.1875L37.3125 19.40625L41.3125 19.40625L41.3125 21L35.40625 21 Z M 20.40625 12.09375L22.59375 12.09375L25.6875 21L23.6875 21L23 18.8125L19.90625 18.8125L19.1875 21L17.3125 21 Z M 21.40625 13.90625L20.3125 17.40625L22.59375 17.40625L21.5 13.90625 Z M 23 28L23 41.5C23 41.5 23.601563 42 25 42C26.398438 42 27 41.5 27 41.5L27 28 Z M 9 32C8.601563 32 8.195313 32.195313 8.09375 32.59375L2.09375 46.59375C1.992188 46.894531 1.988281 47.300781 2.1875 47.5C2.386719 47.800781 2.699219 48 3 48L47 48C47.300781 48 47.613281 47.792969 47.8125 47.59375C48.011719 47.292969 48.105469 46.894531 47.90625 46.59375L41.90625 32.59375C41.804688 32.195313 41.398438 32 41 32L29 32L29 42.5L28.1875 43.09375C27.886719 43.292969 26.898438 44 25 44C23.101563 44 22.113281 43.292969 21.8125 43.09375L21 42.5L21 32Z" />
</svg>