<?xml version="1.0" encoding="utf-8"?>
<svg xmlns="http://www.w3.org/2000/svg" viewBox="0 0 50 50" width="515" height="515">
  <path d="M25 2C12.316406 2 2 11.421875 2 23C2 27.753906 3.777344 32.414063 7.03125 36.125C8.339844 38.503906 5.246094 42.675781 3.90625 44.46875C3.21875 45.386719 3 45.65625 3 46.09375C3 47.011719 3.679688 48 5.1875 48C8.757813 48 12.21875 45.828125 15.25 43.90625C15.902344 43.492188 16.519531 43.078125 17.125 42.71875C19.652344 43.5625 22.300781 44 25 44C37.683594 44 48 34.578125 48 23C48 11.421875 37.683594 2 25 2 Z M 16.5 12C16.925781 12 17.296875 12.285156 17.4375 12.6875L21.9375 25.6875C22.117188 26.207031 21.835938 26.757813 21.3125 26.9375C21.203125 26.972656 21.109375 27 21 27C20.585938 27 20.207031 26.726563 20.0625 26.3125L18.90625 23L14.09375 23L12.9375 26.3125C12.757813 26.832031 12.210938 27.117188 11.6875 26.9375C11.164063 26.757813 10.882813 26.207031 11.0625 25.6875L15.5625 12.6875C15.703125 12.285156 16.074219 12 16.5 12 Z M 16.5 16.0625L14.78125 21L18.21875 21 Z M 33 19C33.554688 19 34 19.449219 34 20L34 22L39 22C39.554688 22 40 22.449219 40 23C40 23.550781 39.554688 24 39 24L37.8125 24C37.449219 25.394531 36.449219 28.265625 33.90625 30.875C34.886719 31.660156 36.050781 32.429688 37.4375 33.09375C37.933594 33.332031 38.144531 33.941406 37.90625 34.4375C37.734375 34.796875 37.371094 35 37 35C36.855469 35 36.703125 34.972656 36.5625 34.90625C34.890625 34.105469 33.515625 33.160156 32.375 32.21875C31.027344 33.28125 29.363281 34.234375 27.3125 34.9375C27.207031 34.972656 27.105469 35 27 35C26.585938 35 26.203125 34.726563 26.0625 34.3125C25.882813 33.789063 26.164063 33.242188 26.6875 33.0625C28.363281 32.488281 29.707031 31.703125 30.84375 30.84375C29.058594 29.046875 28.246094 27.546875 28.1875 27.4375C27.925781 26.949219 28.109375 26.324219 28.59375 26.0625C29.082031 25.800781 29.675781 25.984375 29.9375 26.46875C29.960938 26.511719 30.734375 27.902344 32.375 29.53125C34.367188 27.507813 35.308594 25.304688 35.71875 24L27 24C26.445313 24 26 23.550781 26 23C26 22.449219 26.445313 22 27 22L32 22L32 20C32 19.449219 32.445313 19 33 19Z" />
</svg>