<?xml version="1.0" encoding="utf-8"?>
<svg xmlns="http://www.w3.org/2000/svg" viewBox="0 0 50 50" width="515" height="515">
  <path d="M24.984375 6.9863281 A 1.0001 1.0001 0 0 0 24 8L24 11 A 1.0001 1.0001 0 1 0 26 11L26 8 A 1.0001 1.0001 0 0 0 24.984375 6.9863281 z M 16.503906 10.505859 A 1.0001 1.0001 0 0 0 15.808594 12.222656L17.929688 14.34375 A 1.0001 1.0001 0 1 0 19.34375 12.929688L17.222656 10.808594 A 1.0001 1.0001 0 0 0 16.503906 10.505859 z M 33.464844 10.505859 A 1.0001 1.0001 0 0 0 32.777344 10.808594L30.65625 12.929688 A 1.0001 1.0001 0 1 0 32.070312 14.34375L34.191406 12.222656 A 1.0001 1.0001 0 0 0 33.464844 10.505859 z M 25 14C21.691 14 19 16.691 19 20C19 23.309 21.691 26 25 26C28.309 26 31 23.309 31 20C31 16.691 28.309 14 25 14 z M 13 19 A 1.0001 1.0001 0 1 0 13 21L16 21 A 1.0001 1.0001 0 1 0 16 19L13 19 z M 34 19 A 1.0001 1.0001 0 1 0 34 21L37 21 A 1.0001 1.0001 0 1 0 37 19L34 19 z M 7 23C4.243 23 2 25.243 2 28C2 30.757 4.243 33 7 33C9.757 33 12 30.757 12 28C12 25.243 9.757 23 7 23 z M 43 23C40.243 23 38 25.243 38 28C38 30.757 40.243 33 43 33C45.757 33 48 30.757 48 28C48 25.243 45.757 23 43 23 z M 21 28C18.239 28 16 30.239 16 33L16 42L34 42L34 33C34 30.239 31.761 28 29 28L21 28 z M 4 35C1.791 35 0 36.791 0 39L0 42L14 42L14 39C14 36.791 12.209 35 10 35L4 35 z M 40 35C37.791 35 36 36.791 36 39L36 42L50 42L50 39C50 36.791 48.209 35 46 35L40 35 z" />
</svg>