<?xml version="1.0" encoding="utf-8"?>
<svg xmlns="http://www.w3.org/2000/svg" viewBox="0 0 50 50" width="515" height="515">
  <path d="M9 4C6.24 4 4 6.24 4 9L4 41C4 43.76 6.24 46 9 46L41 46C43.76 46 46 43.76 46 41L46 9C46 6.24 43.76 4 41 4L9 4 z M 25 11C33.27 11 40 16.359219 40 22.949219C40 25.579219 38.959297 27.960781 36.779297 30.300781C35.209297 32.080781 32.660547 34.040156 30.310547 35.660156C27.960547 37.260156 25.8 38.519609 25 38.849609C24.68 38.979609 24.44 39.039062 24.25 39.039062C23.59 39.039062 23.649219 38.340781 23.699219 38.050781C23.739219 37.830781 23.919922 36.789063 23.919922 36.789062C23.969922 36.419063 24.019141 35.830937 23.869141 35.460938C23.699141 35.050938 23.029062 34.840234 22.539062 34.740234C15.339063 33.800234 10 28.849219 10 22.949219C10 16.359219 16.73 11 25 11 z M 23.992188 18.998047C23.488379 19.007393 23 19.391875 23 20L23 26C23 26.552 23.448 27 24 27C24.552 27 25 26.552 25 26L25 23.121094L27.185547 26.580078C27.751547 27.372078 29 26.973 29 26L29 20C29 19.448 28.552 19 28 19C27.448 19 27 19.448 27 20L27 23L24.814453 19.419922C24.602203 19.122922 24.294473 18.992439 23.992188 18.998047 z M 15 19C14.448 19 14 19.448 14 20L14 26C14 26.552 14.448 27 15 27L18 27C18.552 27 19 26.552 19 26C19 25.448 18.552 25 18 25L16 25L16 20C16 19.448 15.552 19 15 19 z M 21 19C20.448 19 20 19.448 20 20L20 26C20 26.552 20.448 27 21 27C21.552 27 22 26.552 22 26L22 20C22 19.448 21.552 19 21 19 z M 31 19C30.448 19 30 19.448 30 20L30 26C30 26.552 30.448 27 31 27L34 27C34.552 27 35 26.552 35 26C35 25.448 34.552 25 34 25L32 25L32 24L34 24C34.553 24 35 23.552 35 23C35 22.448 34.553 22 34 22L32 22L32 21L34 21C34.552 21 35 20.552 35 20C35 19.448 34.552 19 34 19L31 19 z" />
</svg>