<?xml version="1.0" encoding="utf-8"?>
<svg xmlns="http://www.w3.org/2000/svg" viewBox="0 0 50 50" width="515" height="515">
  <path d="M38.84375 0C35.09375 0 30.394531 2.386719 28.1875 4.59375C25.90625 6.875 25.371094 9.820313 26.59375 13.03125C26.640625 13.148438 26.707031 13.265625 26.75 13.375C26.925781 13.796875 27.109375 14.195313 27.34375 14.625L26.625 15.375L34.625 23.375L35.375 22.65625C39.226563 24.769531 42.859375 24.457031 45.40625 21.8125C48.039063 19.179688 51.011719 12.824219 49.65625 8.875L49.125 7.375L42.6875 13.78125C42.390625 14.078125 41.796875 14.078125 41.5 13.78125L36.21875 8.5C36.074219 8.351563 35.96875 8.136719 35.96875 7.90625C35.96875 7.675781 36.070313 7.460938 36.21875 7.3125L42.65625 0.875L41.125 0.34375C40.449219 0.113281 39.679688 0 38.84375 0 Z M 17.28125 9.0625C14.535156 9.0625 11.957031 10.136719 10 12.09375L3 19.09375C-1 23.09375 -1 29.589844 3 33.59375L12.0625 42.65625C12.957031 43.773438 14.226563 44.40625 15.6875 44.40625C16.753906 44.40625 17.597656 44.160156 18.28125 43.625C18.945313 43.1875 19.484375 42.515625 19.75 41.71875C20.351563 42.117188 21.894531 43.054688 23.84375 41.71875C25.792969 40.382813 25.539063 38.226563 25.4375 38.125C26.039063 38.425781 27.496094 39.15625 29.34375 38C31.191406 36.84375 31.035156 34.539063 30.9375 34.4375C31.535156 34.738281 33.347656 35.21875 34.9375 34.25C36.097656 33.453125 37 32.035156 37 30.40625C37 28.941406 36.304688 27.527344 35.15625 26.71875L23.78125 15.34375L24.9375 14.21875C24.9375 14.21875 24.238281 12.542969 24.125 11.625C22.234375 9.980469 19.792969 9.0625 17.28125 9.0625 Z M 3.5 36.9375L2.09375 38.28125C1.125 39.253906 -0.0195313 41.15625 0 43.3125C0.0117188 45.007813 0.75 46.605469 2.09375 47.90625C3.453125 49.265625 5.09375 50 6.8125 50C9.007813 50 10.832031 48.859375 11.71875 47.90625L13.5 46.0625C12.359375 45.679688 11.359375 44.964844 10.5625 44Z" />
</svg>