<?xml version="1.0" encoding="utf-8"?>
<svg xmlns="http://www.w3.org/2000/svg" viewBox="0 0 50 50" width="515" height="515">
  <path d="M6 0C2.691406 0 0 2.691406 0 6C0 9.308594 2.691406 12 6 12C7.296875 12 8.488281 11.578125 9.46875 10.875L17.25 18.6875C15.839844 20.410156 15 22.605469 15 25C15 26.980469 15.597656 28.820313 16.59375 30.375L10.03125 35.5625C8.964844 34.59375 7.550781 34 6 34C2.691406 34 0 36.691406 0 40C0 43.308594 2.691406 46 6 46C9.308594 46 12 43.308594 12 40C12 38.964844 11.742188 38.007813 11.28125 37.15625L17.84375 31.9375C19.664063 33.8125 22.1875 35 25 35C26.320313 35 27.566406 34.746094 28.71875 34.28125L31.34375 39.25C29.921875 40.347656 29 42.066406 29 44C29 47.308594 31.691406 50 35 50C38.308594 50 41 47.308594 41 44C41 40.691406 38.308594 38 35 38C34.34375 38 33.714844 38.117188 33.125 38.3125L30.5 33.34375C32.386719 32.097656 33.828125 30.230469 34.53125 28.03125L38 28.75C37.996094 28.832031 38 28.917969 38 29C38 32.308594 40.691406 35 44 35C47.308594 35 50 32.308594 50 29C50 25.691406 47.308594 23 44 23C41.460938 23 39.28125 24.578125 38.40625 26.8125L34.9375 26.0625C34.972656 25.714844 35 25.355469 35 25C35 21.050781 32.675781 17.65625 29.34375 16.03125L30.875 11.90625C31.234375 11.972656 31.621094 12 32 12C35.308594 12 38 9.308594 38 6C38 2.691406 35.308594 0 32 0C28.691406 0 26 2.691406 26 6C26 8.21875 27.234375 10.148438 29.03125 11.1875L27.46875 15.3125C26.675781 15.109375 25.855469 15 25 15C22.605469 15 20.410156 15.839844 18.6875 17.25L10.875 9.46875C11.578125 8.488281 12 7.296875 12 6C12 2.691406 9.308594 0 6 0Z" />
</svg>