<?xml version="1.0" encoding="utf-8"?>
<svg xmlns="http://www.w3.org/2000/svg" viewBox="0 0 50 50" width="515" height="515">
  <path d="M6 0C4.347656 0 3 1.347656 3 3L3 36C3 37.652344 4.347656 39 6 39L20 39L20 31L8 31L8 5L24 5L24 10L29 10L29 3C29 1.347656 27.652344 0 26 0 Z M 24 11C22.347656 11 21 12.347656 21 14L21 47C21 48.652344 22.347656 50 24 50L44 50C45.652344 50 47 48.652344 47 47L47 14C47 12.347656 45.652344 11 44 11 Z M 26 16L42 16L42 42L26 42 Z M 16 33C16.828125 33 17.5 33.671875 17.5 34.5C17.5 35.328125 16.828125 36 16 36C15.171875 36 14.5 35.328125 14.5 34.5C14.5 33.671875 15.171875 33 16 33 Z M 34 44C34.828125 44 35.5 44.671875 35.5 45.5C35.5 46.328125 34.828125 47 34 47C33.171875 47 32.5 46.328125 32.5 45.5C32.5 44.671875 33.171875 44 34 44Z" />
</svg>