<?xml version="1.0" encoding="utf-8"?>
<svg xmlns="http://www.w3.org/2000/svg" viewBox="0 0 50 50" width="515" height="515">
  <path d="M25 0C24.609375 0 24.257813 0.238281 24.09375 0.59375L2.1875 48.59375C2.019531 48.960938 2.097656 49.390625 2.375 49.6875C2.566406 49.890625 2.824219 50 3.09375 50C3.214844 50 3.351563 49.984375 3.46875 49.9375L25 41.65625L46.53125 49.9375C46.914063 50.082031 47.347656 49.984375 47.625 49.6875C47.902344 49.390625 47.980469 48.960938 47.8125 48.59375L25.90625 0.59375C25.742188 0.238281 25.390625 0 25 0 Z M 24 5.59375L24 39.90625L5.03125 47.1875Z" />
</svg>