<?xml version="1.0" encoding="utf-8"?>
<svg xmlns="http://www.w3.org/2000/svg" viewBox="0 0 50 50" width="515" height="515">
  <path d="M19 3L19 7L12 7C9.242188 7 7 9.242188 7 12L7 20L2 20L2 30L14 30L14 20L9 20L9 12C9 10.347656 10.347656 9 12 9L19 9L19 13L31 13L31 3 Z M 33 7L33 9L38 9C39.652344 9 41 10.347656 41 12L41 20L36 20L36 30L48 30L48 20L43 20L43 12C43 9.242188 40.757813 7 38 7 Z M 7 32L7 38C7 40.757813 9.242188 43 12 43L19 43L19 47L31 47L31 37L19 37L19 41L12 41C10.347656 41 9 39.652344 9 38L9 32 Z M 41 32L41 38C41 39.652344 39.652344 41 38 41L33 41L33 43L38 43C40.757813 43 43 40.757813 43 38L43 32Z" />
</svg>