<?xml version="1.0" encoding="utf-8"?>
<svg xmlns="http://www.w3.org/2000/svg" viewBox="0 0 50 50" width="515" height="515">
  <path d="M25 1 A 4 4 0 0 0 25 9 A 4 4 0 0 0 25 1 z M 19.400391 7.0996094C14.800391 8.9996094 12 13.4 12 19C12 29.4 9.2 31.9 7.5 33.5C6.7 34.2 6 34.9 6 36C6 40 12.2 42 25 42C37.8 42 44 40 44 36C44 34.9 43.3 34.2 42.5 33.5C40.8 31.9 38 29.4 38 19C38 13.3 35.299609 8.9996094 30.599609 7.0996094C29.799609 9.3996094 27.6 11 25 11C22.4 11 20.200391 9.3996094 19.400391 7.0996094 z M 19.099609 43.800781C19.499609 46.800781 22 49 25 49C28 49 30.500391 46.800781 30.900391 43.800781C29.000391 44.000781 27 44 25 44C23 44 20.999609 44.000781 19.099609 43.800781 z" />
</svg>