<?xml version="1.0" encoding="utf-8"?>
<svg xmlns="http://www.w3.org/2000/svg" viewBox="0 0 50 50" width="515" height="515">
  <path d="M3 4C1.347656 4 0 5.347656 0 7L0 33.09375C1.464844 25.296875 3.105469 16.550781 3.1875 16.125C3.695313 13.535156 5.648438 12 8.4375 12L47 12L47 11C47 9.347656 45.652344 8 44 8L18.03125 8C17.753906 7.898438 17.183594 6.992188 16.875 6.5C16.105469 5.273438 15.316406 4 14 4 Z M 8.4375 14C7.15625 14 5.5625 14.449219 5.15625 16.53125C5.027344 17.179688 1.132813 37.910156 0 43.9375L0 44C0 45.652344 1.347656 47 3 47L42 47C43.621094 47 44.945313 45.703125 45 44.09375L49.96875 17.1875L50 17C50 15.347656 48.652344 14 47 14Z" />
</svg>