<?xml version="1.0" encoding="utf-8"?>
<svg xmlns="http://www.w3.org/2000/svg" viewBox="0 0 50 50" width="515" height="515">
  <path d="M19.1875 3C18.886719 3.007813 18.59375 3.089844 18.3125 3.21875C17.230469 3.71875 16.714844 4.984375 17.15625 6.09375L19.125 11.03125L15.96875 16.46875L10.71875 17.1875L6.75 13.375L8 7.53125C8.070313 6.917969 7.867188 6.285156 7.46875 5.8125C7.070313 5.339844 6.492188 5.03125 5.875 5L5.625 5C4.425781 4.945313 3.40625 5.816406 3.28125 7L2.03125 13.90625C1.941406 14.726563 2.15625 15.5625 2.65625 16.21875L8.28125 22.84375L5.90625 27.46875C5.230469 28.953125 4.957031 30.597656 5.125 32.21875L6.84375 45.6875C6.980469 47.007813 8.078125 48 9.40625 48C10.128906 48 10.824219 47.6875 11.3125 47.15625C11.800781 46.625 12.0625 45.90625 12 45.1875L11 33L12 32L15.46875 36.8125L14.0625 44.96875C13.902344 45.710938 14.085938 46.472656 14.5625 47.0625C15.039063 47.65625 15.738281 48 16.5 48C17.640625 48 18.621094 47.226563 18.90625 46.125L20.78125 37.46875C21.003906 36.617188 20.882813 35.710938 20.46875 34.9375L17 28.4375L18.6875 21.0625L23.625 13C24.0625 12.265625 24.132813 11.355469 23.8125 10.5625L21.3125 4.40625C21.078125 3.832031 20.640625 3.386719 20.0625 3.15625C19.773438 3.042969 19.488281 2.992188 19.1875 3 Z M 45.6875 3C44.570313 2.953125 43.511719 3.691406 43.21875 4.8125L41.1875 10.15625L37.5625 15.46875L31 17C30.078125 17.207031 29.273438 17.679688 28.65625 18.375L24.625 23.1875C24.15625 23.710938 23.808594 24.355469 23.625 25.03125L22.0625 30.21875C21.75 31.382813 22.460938 32.585938 23.625 32.90625C24.773438 33.226563 25.96875 32.574219 26.3125 31.4375L27.90625 26.71875L31 23C31.269531 24.722656 30.703125 27.976563 30.34375 29L26.40625 36.59375C26.21875 36.953125 26.085938 37.347656 26 37.75L24.0625 45C23.90625 45.734375 24.085938 46.507813 24.5625 47.09375C25.035156 47.679688 25.746094 48 26.5 48L26.78125 48C27.957031 48 28.984375 47.152344 29.21875 46L31.09375 38.96875L35 32L38.09375 36.5L39.03125 45.78125C39.175781 47.039063 40.234375 48 41.5 48C42.203125 48 42.90625 47.710938 43.375 47.1875C43.847656 46.664063 44.070313 45.949219 44 45.25L43.09375 35.5625C43.039063 35.050781 42.90625 34.554688 42.6875 34.09375L39.75 27.9375C40.042969 27.070313 41 24.105469 41 20L45.4375 12.34375C45.460938 12.308594 45.488281 12.257813 45.5 12.21875L47.90625 6.09375C48.089844 5.457031 48.019531 4.792969 47.6875 4.21875C47.355469 3.644531 46.800781 3.222656 46.15625 3.0625C45.996094 3.023438 45.847656 3.007813 45.6875 3 Z M 13 7C10.789063 7 9 8.789063 9 11C9 13.210938 10.789063 15 13 15C15.210938 15 17 13.210938 17 11C17 8.789063 15.210938 7 13 7 Z M 33 7C30.789063 7 29 8.789063 29 11C29 13.210938 30.789063 15 33 15C35.210938 15 37 13.210938 37 11C37 8.789063 35.210938 7 33 7Z" />
</svg>