<?xml version="1.0" encoding="utf-8"?>
<svg xmlns="http://www.w3.org/2000/svg" viewBox="0 0 50 50" width="515" height="515">
  <path d="M25 3C21.132813 3 18 6.132813 18 10C18 13.867188 21.132813 17 25 17C28.867188 17 32 13.867188 32 10C32 6.132813 28.867188 3 25 3 Z M 18 21C14.75 21 12.527344 23.273438 12.0625 23.886719C10.285156 26.242188 6.054688 33.160156 6.054688 33.160156C4.644531 35.578125 4.632813 37.460938 6.585938 39.414063L11.730469 44.5625C12.785156 45.621094 14.5 45.621094 15.558594 44.5625C15.859375 44.261719 16.0625 43.90625 16.191406 43.53125L16.5 48L33.5 48L33.78125 43.8125C33.914063 44.136719 34.109375 44.4375 34.375 44.703125C35.429688 45.757813 37.144531 45.757813 38.203125 44.703125L43.414063 39.414063C45.367188 37.460938 45.355469 35.578125 43.945313 33.160156C43.945313 33.160156 39.714844 26.242188 37.9375 23.886719C37.472656 23.273438 35.25 21 32 21L30.953125 21L26.503906 31.667969L27.5625 32.03125C27.90625 32.144531 28.082031 32.503906 27.960938 32.832031L26.183594 37.582031C26.058594 37.910156 25.683594 38.078125 25.339844 37.964844L22.4375 36.96875C22.09375 36.855469 21.914063 36.496094 22.035156 36.167969L23.613281 31.957031L19.027344 21 Z M 20.921875 21L25 30.730469L29.0625 21 Z M 14.996094 30L16 41.34375C15.878906 41.128906 15.738281 40.917969 15.558594 40.734375L10.707031 35.878906 Z M 35.003906 30L39.292969 35.878906L34.375 40.875C34.226563 41.019531 34.105469 41.179688 34 41.347656Z" />
</svg>