<?xml version="1.0" encoding="utf-8"?>
<svg xmlns="http://www.w3.org/2000/svg" viewBox="0 0 50 50" width="515" height="515">
  <path d="M12.998047 3C6.9350469 3.001 2.001 7.9559219 2 14.044922C2.001 14.504922 2.0019531 19.753 2.0019531 25C2.0019531 30.291 2.001 35.579078 2 35.955078C2.001 38.905078 3.1457031 41.678672 5.2207031 43.763672C7.2987031 45.850672 10.061 47 13 47C16.123 47 19.078672 45.643625 21.138672 43.390625C18.571672 40.481625 17 36.675 17 32.5C17 29.798 17.664312 27.253 18.820312 25L4 25C4 20.103 4.001 14.471969 4 14.042969C4.001 9.0579688 8.038 5.001 13 5C15.403 5 17.662328 5.9414375 19.361328 7.6484375C21.061328 9.3564375 21.999 11.626969 22 14.042969L22 20.691406C22.621 20.086406 23.291 19.53325 24 19.03125L24 14.044922C23.999 11.095922 22.855297 8.3213281 20.779297 6.2363281C18.702297 4.1493281 15.938047 3 12.998047 3 z M 33.5 18C25.505 18 19 24.505 19 32.5C19 40.495 25.505 47 33.5 47C41.495 47 48 40.495 48 32.5C48 24.505 41.495 18 33.5 18 z M 41 24C41.25575 24 41.511531 24.097469 41.707031 24.292969C42.098031 24.683969 42.098031 25.316031 41.707031 25.707031L26.707031 40.707031C26.512031 40.902031 26.256 41 26 41C25.744 41 25.487969 40.902031 25.292969 40.707031C24.901969 40.316031 24.901969 39.683969 25.292969 39.292969L40.292969 24.292969C40.488469 24.097469 40.74425 24 41 24 z" />
</svg>