<?xml version="1.0" encoding="utf-8"?>
<svg xmlns="http://www.w3.org/2000/svg" viewBox="0 0 50 50" width="515" height="515">
  <path d="M44.910156 5.085938C42.273438 2.453125 38.769531 1 35.039063 1C31.3125 1 27.808594 2.453125 25.167969 5.089844C24.375 5.886719 5.921875 24.339844 5.085938 25.171875C-0.351563 30.613281 -0.351563 39.46875 5.085938 44.910156C7.726563 47.546875 11.230469 49 14.960938 49C18.6875 49 22.191406 47.550781 24.832031 44.910156C25.507813 44.230469 44.070313 25.667969 44.914063 24.828125C50.355469 19.386719 50.351563 10.53125 44.910156 5.085938 Z M 43.5 23.410156C43.132813 23.78125 39.347656 27.5625 35.160156 31.746094L18.25 14.835938C22.445313 10.640625 26.234375 6.851563 26.585938 6.503906C28.847656 4.242188 31.847656 3 35.039063 3C38.234375 3 41.238281 4.242188 43.496094 6.503906C48.15625 11.164063 48.160156 18.753906 43.5 23.410156Z" />
</svg>