<?xml version="1.0" encoding="utf-8"?>
<svg xmlns="http://www.w3.org/2000/svg" width="515" height="515" viewBox="0 0 50 50">
  <path d="M31.95 39.934c-.256 0-.512-.098-.707-.293L10.345 18.745c-.188-.188-.293-.442-.293-.707s.105-.52.293-.707c2.978-2.978 6.938-4.618 11.15-4.618 1.227 0 2.448.142 3.639.423l8.279-11.639C34.148.547 35.135 0 36.074 0c.597 0 1.146.225 1.549.634l11.764 11.904c.438.441.655 1.044.606 1.697-.065.89-.629 1.811-1.505 2.464L36.81 24.66c1.338 5.369-.219 11.049-4.152 14.98C32.462 39.836 32.206 39.934 31.95 39.934zM16.525 27.753L.216 48.38c-.315.398-.282.969.077 1.327C.487 49.901.743 50 1 50c.218 0 .438-.071.62-.216L22.233 33.46 16.525 27.753z" />
</svg>