<?xml version="1.0" encoding="utf-8"?>
<svg xmlns="http://www.w3.org/2000/svg" viewBox="0 0 50 50" width="515" height="515">
  <path d="M12.496094 46.972656C11.78125 46.972656 11.417969 46.601563 11.265625 46.378906C11.070313 46.09375 10.890625 45.605469 11.160156 44.882813C11.40625 44.234375 15.679688 33.828125 17.253906 30L6.640625 30L4.042969 34.992188C3.582031 35.894531 3.046875 35.988281 2.007813 36L1.296875 36C0.886719 36 0.515625 35.832031 0.277344 35.535156C0.0351563 35.242188 -0.0507813 34.855469 0.0390625 34.449219C0.125 34.03125 1.699219 26.359375 1.976563 25.003906C1.367188 22.121094 0.0625 15.898438 0.0195313 15.433594C-0.0273438 14.910156 0.164063 14.578125 0.335938 14.390625C0.570313 14.132813 0.894531 14 1.296875 14L2 14C2.4375 14.011719 3.539063 14.039063 4.042969 15.007813L6.640625 20L17.253906 20C15.679688 16.171875 11.40625 5.765625 11.160156 5.117188C10.890625 4.398438 11.066406 3.90625 11.265625 3.625C11.417969 3.402344 11.785156 3.027344 12.496094 3.027344L12.679688 3.035156C13.042969 3.066406 14.164063 3.175781 15.03125 3.273438C16.09375 3.390625 16.539063 3.953125 16.78125 4.257813C17.011719 4.539063 27.191406 17.527344 29.128906 20L43.734375 20C48.136719 20 50 23.578125 50 25C50 26.421875 48.136719 30 43.734375 30L29.128906 30C26.953125 32.777344 17.015625 45.457031 16.824219 45.691406C16.542969 46.046875 16.09375 46.609375 15.03125 46.726563C14.164063 46.824219 13.039063 46.933594 12.679688 46.964844 Z M 12.496094 44.980469L12.5 45.972656L12.503906 44.972656C12.5 44.972656 12.496094 44.972656 12.496094 44.972656Z" />
</svg>