<?xml version="1.0" encoding="utf-8"?>
<svg xmlns="http://www.w3.org/2000/svg" viewBox="0 0 50 50" width="515" height="515">
  <path d="M13 7C12.449219 7 12 7.449219 12 8C12 8.550781 12.449219 9 13 9L19.5625 9L2.28125 26.28125C1.890625 26.671875 1.890625 27.328125 2.28125 27.71875C2.476563 27.914063 2.742188 28 3 28C3.257813 28 3.523438 27.914063 3.71875 27.71875L21 10.4375L21 17C21 17.550781 21.449219 18 22 18C22.550781 18 23 17.550781 23 17L23 7 Z M 34 11L34 50L48 50L48 11 Z M 18 24L18 50L32 50L32 24 Z M 2 35L2 50L16 50L16 35Z" />
</svg>