<?xml version="1.0" encoding="utf-8"?>
<svg xmlns="http://www.w3.org/2000/svg" viewBox="0 0 50 50" width="515" height="515">
  <path d="M25 2C24.291509 2 23.546391 2.038765 22.822266 2.1035156 A 2.0002 2.0002 0 1 0 23.177734 6.0878906C23.795609 6.032641 24.438491 6 25 6C31.410212 6 37.015049 9.1671243 40.455078 14L37 14 A 2.0002 2.0002 0 1 0 37 18L45 18 A 2.0002 2.0002 0 0 0 47 16L47 8 A 2.0002 2.0002 0 0 0 44.970703 5.9726562 A 2.0002 2.0002 0 0 0 43 8L43 10.740234C38.792356 5.4310174 32.307644 2 25 2 z M 7 4 A 2.0002 2.0002 0 1 0 7 8L9.4980469 8C4.8770745 12.223525 2 18.31134 2 25C2 25.704968 2.0259141 26.439541 2.0800781 27.152344 A 2.0002 2.0002 0 1 0 6.0683594 26.847656C6.0225237 26.244459 6 25.603032 6 25C6 19.076941 8.720596 13.746515 13 10.255859L13 14 A 2.0002 2.0002 0 1 0 17 14L17 6 A 2.0002 2.0002 0 0 0 15 4L7 4 z M 46.046875 21.972656 A 2.0002 2.0002 0 0 0 43.976562 24.095703C43.99122 24.400772 44 24.701928 44 25C44 31.41007 40.832458 37.01502 36 40.455078L36 37 A 2.0002 2.0002 0 0 0 33.970703 34.972656 A 2.0002 2.0002 0 0 0 32 37L32 45 A 2.0002 2.0002 0 0 0 34 47L42 47 A 2.0002 2.0002 0 1 0 42 43L39.259766 43C44.568642 38.79239 48 32.307778 48 25C48 24.630072 47.989996 24.265228 47.972656 23.904297 A 2.0002 2.0002 0 0 0 46.046875 21.972656 z M 5 33 A 2.0002 2.0002 0 0 0 3 35L3 43 A 2.0002 2.0002 0 1 0 7 43L7 39.277344C11.225048 44.592036 17.739389 48 25 48C25.348691 48 25.711936 47.993299 26.072266 47.980469 A 2.0003298 2.0003298 0 0 0 25.927734 43.982422C25.616064 43.993553 25.299309 44 25 44C19.084635 44 13.786624 41.269576 10.296875 37L13 37 A 2.0002 2.0002 0 1 0 13 33L5 33 z" />
</svg>