<?xml version="1.0" encoding="utf-8"?>
<svg xmlns="http://www.w3.org/2000/svg" viewBox="0 0 50 50" width="515" height="515">
  <path d="M16 2L16 14.09375L16.8125 14.09375C18.710938 14.09375 20.488281 14.804688 21.6875 15.90625C23.085938 16.207031 24.289063 16.988281 25.1875 18.1875C27.085938 20.886719 26.59375 24.804688 26.09375 26.90625C26.292969 27.605469 26.5 28.394531 26.5 29.09375C26.5 30.894531 25.605469 32.207031 24.90625 32.90625C24.507813 34.105469 23.800781 35.289063 23 36.1875L23 36.8125C23.5 37.113281 24.699219 37.605469 25.5 37.90625C28.199219 38.90625 32 40.292969 33.5 44.09375L48 44.09375L48 12.5L37.40625 2 Z M 37 4.40625L45.6875 13L37 13 Z M 16.8125 16C14.113281 16.101563 12.113281 16.898438 10.8125 18.5C9.414063 20.398438 9.105469 23.3125 9.90625 26.8125C9.605469 27.210938 9.3125 27.886719 9.3125 28.6875C9.511719 30.289063 10.210938 31.3125 10.8125 31.8125C11.210938 33.3125 12.199219 34.585938 13 35.1875L13 36.5L13.40625 36.6875C14.40625 37.289063 16.207031 38 16.90625 38C17.605469 38 19.1875 37.3125 20.1875 36.8125L20.90625 36.40625L20.90625 35.3125C21.804688 34.613281 22.699219 33.3125 23 31.8125C23.601563 31.3125 24.40625 30.292969 24.40625 29.09375C24.40625 28.292969 24.207031 27.601563 23.90625 27C24.304688 25.601563 25.199219 21.710938 23.5 19.3125C23 18.613281 22.1875 17.886719 20.6875 17.6875C19.886719 16.6875 18.414063 16 16.8125 16 Z M 12.40625 38.3125C11.707031 38.8125 10.605469 39.1875 9.40625 39.6875C6.304688 40.886719 2.394531 42.300781 2.09375 47C2.09375 47.300781 2.207031 47.488281 2.40625 47.6875C2.507813 47.886719 2.699219 48 3 48L15 48L15 47C15 44.101563 16.59375 41.5 16.59375 41.5L15.8125 39.8125C14.511719 39.414063 12.894531 38.605469 12.59375 38.40625 Z M 21.6875 38.3125L21.3125 38.5C21.011719 38.699219 19.488281 39.414063 18.1875 39.8125L17.40625 41.5C17.40625 41.5 19.09375 44.101563 19.09375 47L19.09375 48L31.09375 48C31.394531 48 31.613281 47.886719 31.8125 47.6875C32.011719 47.488281 32.09375 47.199219 32.09375 47C31.695313 42.300781 27.789063 40.789063 24.6875 39.6875C23.488281 39.289063 22.386719 38.8125 21.6875 38.3125Z" />
</svg>