<?xml version="1.0" encoding="utf-8"?>
<svg xmlns="http://www.w3.org/2000/svg" viewBox="0 0 50 50" width="515" height="515">
  <path d="M36.9375 9C35.191406 9 33.6875 9.394531 32.46875 10.125C33.699219 10.777344 34.699219 11.835938 35.375 13.21875C36.441406 15.402344 36.480469 17.886719 36.03125 19.6875C36.21875 20.320313 36.273438 21.042969 36.1875 21.75C35.984375 23.453125 35.347656 24.503906 34.6875 25.15625C34.433594 26 34.050781 26.941406 33.5 27.75C33.5 27.984375 33.492188 28.207031 33.5 28.4375C33.949219 28.714844 34.855469 29.078125 35.4375 29.3125C37.621094 30.191406 40.988281 31.554688 42.375 35L47 35C47.273438 35 47.53125 34.886719 47.71875 34.6875C47.90625 34.488281 48.015625 34.210938 48 33.9375C47.769531 30.015625 44.648438 28.765625 42.375 27.84375C41.164063 27.351563 40.023438 26.894531 39.6875 26.21875C39.636719 25.578125 39.652344 25.054688 39.65625 24.46875L39.65625 24.3125C40.207031 23.671875 40.660156 22.585938 40.875 21.625C41.347656 21.308594 41.875 20.675781 42.03125 19.34375C42.101563 18.757813 42.003906 18.230469 41.78125 17.8125C42.269531 16.46875 42.25 14.308594 41.4375 12.65625C40.753906 11.265625 39.617188 10.441406 38.1875 10.25L37.84375 9.5625C37.675781 9.222656 37.316406 9 36.9375 9 Z M 28.59375 10C26.1875 10 24.109375 10.683594 22.625 11.90625C23.480469 12.5625 24.1875 13.429688 24.71875 14.5C25.773438 16.621094 26.0625 19.449219 25.46875 21.6875C25.679688 22.363281 25.746094 23.113281 25.65625 23.875C25.441406 25.726563 24.761719 26.851563 24.0625 27.53125C23.792969 28.46875 23.332031 29.589844 22.71875 30.5C22.714844 30.882813 22.734375 31.214844 22.75 31.59375C23.195313 31.921875 24.257813 32.378906 25 32.6875C27.503906 33.722656 31.066406 35.203125 32.4375 39.03125L40 39C40.273438 39 40.53125 38.886719 40.71875 38.6875C40.90625 38.488281 41.015625 38.210938 41 37.9375C40.742188 33.601563 37.238281 32.210938 34.6875 31.1875C33.273438 30.621094 31.953125 30.066406 31.5625 29.25C31.503906 28.519531 31.492188 27.945313 31.5 27.28125L31.5 27.09375C32.132813 26.390625 32.699219 25.132813 32.9375 24.03125C33.457031 23.707031 34.039063 22.996094 34.21875 21.5C34.296875 20.84375 34.164063 20.234375 33.90625 19.78125C34.464844 18.316406 34.464844 15.941406 33.5625 14.09375C32.796875 12.527344 31.527344 11.566406 29.90625 11.375L29.46875 10.5625C29.300781 10.222656 28.972656 10 28.59375 10 Z M 17.65625 11C14.175781 11 11.425781 12.292969 9.875 14.65625C8.542969 16.683594 8.261719 19.296875 9.125 21.75C8.828125 22.207031 8.65625 22.859375 8.75 23.65625C8.941406 25.316406 9.558594 26.066406 10.125 26.40625C10.382813 27.621094 10.988281 29.042969 11.6875 29.8125L11.6875 30.09375C11.695313 30.847656 11.722656 31.476563 11.65625 32.3125C11.234375 33.273438 9.894531 33.867188 8.375 34.53125C5.796875 35.664063 2.273438 37.207031 2 41.9375C1.984375 42.210938 2.09375 42.488281 2.28125 42.6875C2.46875 42.886719 2.726563 43 3 43L30 43C30.277344 43 30.527344 42.886719 30.71875 42.6875C30.90625 42.488281 31.015625 42.210938 31 41.9375C30.726563 37.199219 27.136719 35.722656 24.25 34.53125C22.632813 33.863281 21.207031 33.265625 20.78125 32.3125C20.714844 31.476563 20.742188 30.847656 20.75 30.09375L20.75 29.8125C21.433594 29.046875 22.027344 27.621094 22.28125 26.40625C22.847656 26.066406 23.464844 25.3125 23.65625 23.65625C23.738281 22.933594 23.628906 22.265625 23.34375 21.78125C23.980469 20.164063 23.96875 17.449219 22.9375 15.375C22.113281 13.71875 20.738281 12.726563 19.03125 12.53125L18.5625 11.5625C18.394531 11.21875 18.039063 11 17.65625 11Z" />
</svg>