<?xml version="1.0" encoding="utf-8"?>
<svg xmlns="http://www.w3.org/2000/svg" viewBox="0 0 50 50" width="515" height="515">
  <path d="M45,26c-0.552,0-1-0.447-1-1s0.448-1,1-1h2.964c-0.18-4.176-1.471-8.17-3.772-11.652l3.02-3.321 c1.117-1.219,1.035-3.12-0.185-4.239c-1.221-1.118-3.122-1.032-4.241,0.188l-2.559,2.816C36.268,4.286,31.278,2.275,26,2.046V5 c0,0.553-0.448,1-1,1s-1-0.447-1-1V2.025C12.112,2.537,2.537,12.112,2.025,24H5c0.552,0,1,0.447,1,1s-0.448,1-1,1H2.025 C2.537,37.888,12.112,47.463,24,47.975V45c0-0.553,0.448-1,1-1s1,0.447,1,1v2.975C37.888,47.463,47.463,37.888,47.975,26H45z M25.029,30.443l-9.736-9.736c-0.39-0.39-0.39-1.024,0-1.414C15.482,19.104,15.733,19,16,19s0.518,0.104,0.707,0.293l8.265,8.265 L44.263,6.324c0.373-0.406,1.007-0.433,1.412-0.063c0.407,0.373,0.434,1.008,0.059,1.417L25.029,30.443z" />
</svg>