<?xml version="1.0" encoding="utf-8"?>
<svg xmlns="http://www.w3.org/2000/svg" viewBox="0 0 50 50" width="515" height="515">
  <path d="M25 3C15.625 3 8 10.625 8 20C8 29.664063 23.589844 47.21875 24.253906 47.960938C24.441406 48.171875 24.714844 48.292969 25 48.292969C25.285156 48.292969 25.554688 48.171875 25.746094 47.960938C26.40625 47.222656 42 29.726563 42 20C42 10.625 34.375 3 25 3 Z M 16.933594 25.890625L15.320313 27.074219C13.800781 25 13 22.554688 13 20C13 17.445313 13.800781 15 15.320313 12.925781L16.933594 14.109375C15.667969 15.835938 15 17.875 15 20C15 22.125 15.667969 24.164063 16.933594 25.890625 Z M 25 23C23.34375 23 22 21.65625 22 20C22 18.34375 23.34375 17 25 17C26.65625 17 28 18.34375 28 20C28 21.65625 26.65625 23 25 23 Z M 34.679688 27.074219L33.066406 25.890625C34.332031 24.164063 35 22.125 35 20C35 17.875 34.332031 15.835938 33.066406 14.109375L34.679688 12.925781C36.195313 15 37 17.445313 37 20C37 22.554688 36.195313 25 34.679688 27.074219Z" />
</svg>