<?xml version="1.0" encoding="utf-8"?>
<svg xmlns="http://www.w3.org/2000/svg" viewBox="0 0 50 50" width="515" height="515">
  <path d="M25 2C12.321124 2 2 12.321124 2 25C2 37.678876 12.321124 48 25 48C37.678876 48 48 37.678876 48 25 A 2.0002 2.0002 0 1 0 44 25C44 35.517124 35.517124 44 25 44C14.482876 44 6 35.517124 6 25C6 14.482876 14.482876 6 25 6C30.475799 6 35.391893 8.3080175 38.855469 12L35 12 A 2.0002 2.0002 0 1 0 35 16L46 16L46 5 A 2.0002 2.0002 0 0 0 43.970703 2.9726562 A 2.0002 2.0002 0 0 0 42 5L42 9.5253906C37.79052 4.9067015 31.727675 2 25 2 z" />
</svg>