<?xml version="1.0" encoding="utf-8"?>
<svg xmlns="http://www.w3.org/2000/svg" viewBox="0 0 50 50" width="515" height="515">
  <path d="M5 4C2.242188 4 0 6.242188 0 9L0 38C0 40.757813 2.242188 43 5 43L21 43C22.652344 43 24 44.347656 24 46L24 9C24 6.242188 21.757813 4 19 4 Z M 31 4C28.242188 4 26 6.242188 26 9L26 46C26 44.347656 27.347656 43 29 43L45 43C47.757813 43 50 40.757813 50 38L50 9C50 6.242188 47.757813 4 45 4 Z M 11.40625 10C14.238281 10 16 14.5 16 18C16 22.75 13 22.167969 13 24L13 32C13 36 12.613281 37 11.53125 37C10.449219 37 10 36.25 10 32L10 24C10 22.167969 7 22.667969 7 18C7 14.75 8.570313 10 11.40625 10 Z M 31 12L40 12C40.550781 12 41 12.445313 41 13C41 13.554688 40.550781 14 40 14L31 14C30.449219 14 30 13.554688 30 13C30 12.445313 30.449219 12 31 12 Z M 44 12L45 12C45.550781 12 46 12.445313 46 13C46 13.554688 45.550781 14 45 14L44 14C43.449219 14 43 13.554688 43 13C43 12.445313 43.449219 12 44 12 Z M 31 17L40 17C40.550781 17 41 17.445313 41 18C41 18.554688 40.550781 19 40 19L31 19C30.449219 19 30 18.554688 30 18C30 17.445313 30.449219 17 31 17 Z M 44 17L45 17C45.550781 17 46 17.445313 46 18C46 18.554688 45.550781 19 45 19L44 19C43.449219 19 43 18.554688 43 18C43 17.445313 43.449219 17 44 17 Z M 31 22L40 22C40.550781 22 41 22.445313 41 23C41 23.554688 40.550781 24 40 24L31 24C30.449219 24 30 23.554688 30 23C30 22.445313 30.449219 22 31 22 Z M 44 22L45 22C45.550781 22 46 22.445313 46 23C46 23.554688 45.550781 24 45 24L44 24C43.449219 24 43 23.554688 43 23C43 22.445313 43.449219 22 44 22 Z M 31 27L40 27C40.550781 27 41 27.445313 41 28C41 28.554688 40.550781 29 40 29L31 29C30.449219 29 30 28.554688 30 28C30 27.445313 30.449219 27 31 27 Z M 44 27L45 27C45.550781 27 46 27.445313 46 28C46 28.554688 45.550781 29 45 29L44 29C43.449219 29 43 28.554688 43 28C43 27.445313 43.449219 27 44 27 Z M 31 32L40 32C40.550781 32 41 32.445313 41 33C41 33.554688 40.550781 34 40 34L31 34C30.449219 34 30 33.554688 30 33C30 32.445313 30.449219 32 31 32 Z M 44 32L45 32C45.550781 32 46 32.445313 46 33C46 33.554688 45.550781 34 45 34L44 34C43.449219 34 43 33.554688 43 33C43 32.445313 43.449219 32 44 32Z" />
</svg>