<?xml version="1.0" encoding="utf-8"?>
<svg xmlns="http://www.w3.org/2000/svg" viewBox="0 0 50 50" width="515" height="515">
  <path d="M7 2L7 48L43 48L43 2 Z M 16.445313 14.929688C16.480469 14.53125 16.445313 14.257813 16.445313 13.894531C16.265625 13.796875 15.761719 13.289063 15.683594 12.71875C15.683594 12.71875 15.277344 12.523438 15.253906 11.914063C15.242188 11.589844 15.46875 11.359375 15.46875 11.359375C15.046875 9.730469 15.230469 8.039063 17.410156 8C17.953125 8 18.363281 8.261719 18.527344 8.550781C20.042969 8.550781 19.648438 10.664063 19.421875 11.359375C19.503906 11.445313 19.609375 11.679688 19.609375 11.992188C19.609375 12.445313 19.179688 12.71875 19.179688 12.71875C19.097656 13.296875 18.691406 13.773438 18.445313 13.890625C18.445313 14.253906 18.40625 14.53125 18.445313 14.929688C18.875 16.089844 21.753906 15.761719 21.890625 18L13 18C13.132813 15.761719 16.011719 16.089844 16.445313 14.929688 Z M 28 39L14 39C13.449219 39 13 38.554688 13 38C13 37.445313 13.449219 37 14 37L28 37C28.554688 37 29 37.445313 29 38C29 38.554688 28.554688 39 28 39 Z M 13 32C13 31.445313 13.449219 31 14 31L25 31C25.550781 31 26 31.445313 26 32C26 32.554688 25.550781 33 25 33L14 33C13.449219 33 13 32.554688 13 32 Z M 28 27L14 27C13.449219 27 13 26.554688 13 26C13 25.449219 13.449219 25 14 25L28 25C28.554688 25 29 25.449219 29 26C29 26.554688 28.554688 27 28 27 Z M 36 39L33 39C32.445313 39 32 38.554688 32 38C32 37.445313 32.445313 37 33 37L36 37C36.554688 37 37 37.445313 37 38C37 38.554688 36.554688 39 36 39 Z M 36 33L33 33C32.445313 33 32 32.554688 32 32C32 31.445313 32.445313 31 33 31L36 31C36.554688 31 37 31.445313 37 32C37 32.554688 36.554688 33 36 33 Z M 36 27L33 27C32.445313 27 32 26.554688 32 26C32 25.449219 32.445313 25 33 25L36 25C36.554688 25 37 25.449219 37 26C37 26.554688 36.554688 27 36 27 Z M 36 17L28 17C27.445313 17 27 16.550781 27 16C27 15.449219 27.445313 15 28 15L36 15C36.554688 15 37 15.449219 37 16C37 16.550781 36.554688 17 36 17 Z M 36 12L28 12C27.445313 12 27 11.550781 27 11C27 10.449219 27.445313 10 28 10L36 10C36.554688 10 37 10.449219 37 11C37 11.550781 36.554688 12 36 12Z" />
</svg>