<?xml version="1.0" encoding="utf-8"?>
<svg xmlns="http://www.w3.org/2000/svg" viewBox="0 0 50 50" width="515" height="515">
  <path d="M11.976563 4.042969C11.976563 4.042969 9.796875 4.042969 7.367188 5.195313L7.367188 5.191406C5.507813 6.074219 3.941406 7.363281 3.1875 8.417969C2.964844 8.707031 2.917969 9.097656 3.0625 9.429688C3.210938 9.765625 3.527344 9.992188 3.894531 10.027344C4.257813 10.058594 4.609375 9.886719 4.8125 9.582031C5.171875 9.078125 6.710938 7.71875 8.226563 7C10.246094 6.042969 11.976563 6.042969 11.976563 6.042969C12.335938 6.046875 12.671875 5.859375 12.855469 5.546875C13.035156 5.234375 13.035156 4.851563 12.855469 4.539063C12.671875 4.226563 12.335938 4.039063 11.976563 4.042969 Z M 31.863281 5C29.554688 4.992188 26.777344 5.089844 23.6875 5.488281C19.582031 6.015625 15.875 6.832031 12.351563 7.984375C6.367188 9.933594 4.382813 12.222656 3.636719 13.082031L3.566406 13.164063C2.089844 14.855469 3.96875 20.886719 3.984375 20.945313C4.429688 22.3125 5.558594 23 6.5625 23C6.765625 23 6.960938 22.972656 7.144531 22.917969C7.519531 22.804688 8.996094 22.21875 11.203125 21.34375C12.289063 20.910156 13.25 20.527344 13.5625 20.414063C14.414063 20.101563 15.058594 19.203125 15.28125 18.015625C15.390625 17.460938 15.996094 14.925781 16.386719 13.3125C17.40625 12.902344 20.234375 11.894531 24.46875 11.347656C28.699219 10.800781 31.699219 11.015625 32.789063 11.128906C33.90625 13.007813 35.519531 15.722656 35.59375 15.835938C36.132813 16.660156 36.84375 17.144531 37.597656 17.203125C37.9375 17.230469 39.042969 17.371094 40.265625 17.523438C42.515625 17.804688 44.019531 17.988281 44.445313 18C45.542969 18.019531 46.886719 16.996094 46.984375 15.289063C46.988281 15.226563 47.25 9.046875 45.382813 7.78125C45.382813 7.78125 45.199219 7.65625 45.09375 7.589844C43.933594 6.832031 40.972656 5.199219 34.015625 5.03125C33.351563 5.011719 32.636719 5 31.863281 5 Z M 19 16C18.449219 16 18 16.449219 18 17L18 19.566406C16.988281 20.535156 13.691406 23.75 9.742188 28.347656C6.429688 32.203125 5.992188 34.898438 6 37.027344C6.007813 38.898438 6.972656 44.902344 7.015625 45.15625C7.089844 45.644531 7.507813 46 8 46L13 46C13.550781 46 14 45.550781 14 45L14 44L38 44L38 45C38 45.550781 38.449219 46 39 46L44 46C44.492188 46 44.910156 45.644531 44.984375 45.15625C45.027344 44.902344 45.996094 38.886719 46 37C46.003906 34.882813 45.566406 32.195313 42.257813 28.347656C38.308594 23.75 35.011719 20.535156 34 19.566406L34 17C34 16.449219 33.550781 16 33 16L30 16C29.449219 16 29 16.449219 29 17L29 19L23 19L23 17C23 16.449219 22.550781 16 22 16 Z M 37.996094 19.042969C37.570313 19.039063 37.1875 19.308594 37.046875 19.707031C36.902344 20.109375 37.03125 20.554688 37.359375 20.824219C38.234375 21.546875 39.476563 21.910156 40.9375 22C42.695313 22.105469 43.515625 21.902344 44.40625 21.5625C44.921875 21.359375 45.175781 20.78125 44.976563 20.265625C44.777344 19.75 44.199219 19.492188 43.683594 19.691406C42.855469 20.011719 42.679688 20.101563 41.0625 20C39.898438 19.929688 38.972656 19.5625 38.636719 19.28125C38.457031 19.128906 38.230469 19.042969 37.996094 19.042969 Z M 18 25L22 25L22 27L18 27 Z M 24 25L28 25L28 27L24 27 Z M 30 25L34 25L34 27L30 27 Z M 18 29L22 29L22 31L18 31 Z M 24 29L28 29L28 31L24 31 Z M 30 29L34 29L34 31L30 31 Z M 18 33L22 33L22 35L18 35 Z M 24 33L28 33L28 35L24 35 Z M 30 33L34 33L34 35L30 35Z" />
</svg>