<?xml version="1.0" encoding="utf-8"?>
<svg xmlns="http://www.w3.org/2000/svg" viewBox="0 0 50 50" width="515" height="515">
  <path d="M11.900391 6C5.3003906 6 1.1842379e-15 11.499219 0 18.199219C0 28.999219 9.2996094 35.4 16.099609 40C17.799609 41.2 19.3 42.199219 20.5 43.199219L21.099609 43.699219L21.699219 43.199219C22.399219 42.599219 23.300781 41.899219 24.300781 41.199219C20.800781 36.699219 16.299219 30.000391 18.699219 22.400391C20.199219 18.000391 24.300391 15 28.900391 15C30.000391 15 31.099219 15.2 32.199219 15.5C34.399219 16.2 36.299219 17.699609 37.699219 19.599609C38.799219 19.199609 39.999219 19 41.199219 19L41.900391 19L41.900391 18.099609C42.000391 11.499609 36.699609 6 30.099609 6C26.499609 6 23.2 7.6003906 21 10.400391C18.8 7.6003906 15.400391 6 11.900391 6 z M 28.900391 17C25.100391 17 21.799609 19.399609 20.599609 23.099609C18.199609 30.399609 23.400781 37.000781 26.800781 41.300781C27.700781 42.500781 28.5 43.400781 29 44.300781L29.400391 45L30.199219 44.699219C31.099219 44.299219 32.300781 43.999609 33.800781 43.599609C39.100781 42.099609 47.199609 39.8 49.599609 32.5C51.099609 27.9 48.6 23 44 21.5C41.7 20.7 39.1 20.999219 37 22.199219C36 19.999219 34.099219 18.3 31.699219 17.5C30.799219 17.2 29.900391 17 28.900391 17 z" />
</svg>