<?xml version="1.0" encoding="utf-8"?>
<svg xmlns="http://www.w3.org/2000/svg" viewBox="0 0 50 50" width="515" height="515">
  <path d="M34.5 3C32.015625 3 30 5.015625 30 7.5C30 9.984375 32.015625 12 34.5 12C36.988281 12 39 9.984375 39 7.5C39 5.015625 36.988281 3 34.5 3 Z M 20 10C19.617188 10 19.242188 10.109375 18.921875 10.316406L18.917969 10.316406L18.886719 10.324219L11.957031 15.296875C11.363281 15.65625 11 16.304688 11 17C11 18.105469 11.894531 19 13 19C13.472656 19 13.925781 18.832031 14.285156 18.527344L14.289063 18.53125L20.28125 14.21875L24.691406 15.621094L19.757813 23.660156L19.757813 23.664063C19.265625 24.34375 19 25.160156 19 26C19.003906 27.511719 19.859375 28.894531 21.210938 29.574219L28.753906 34.226563L27.046875 43.011719C27.015625 43.171875 27 43.335938 27 43.5C27 44.878906 28.121094 46 29.5 46C30.703125 46 31.734375 45.144531 31.953125 43.964844L31.957031 43.964844L33.984375 33.289063L33.980469 33.273438C33.992188 33.183594 34 33.089844 34 33C34 32.4375 33.761719 31.902344 33.34375 31.523438L33.339844 31.507813L27.9375 26.71875L32.609375 17.484375L32.605469 17.484375C32.863281 17.03125 33 16.519531 33 16C33 14.804688 32.289063 13.722656 31.191406 13.25L31.191406 13.246094L28.6875 11.847656L20.519531 10.066406L20.507813 10.066406C20.34375 10.023438 20.171875 10 20 10 Z M 34.214844 18.742188L31.972656 23.171875L33.183594 25.839844L33.191406 25.84375C33.511719 26.527344 34.199219 27 35 27L42 27C43.105469 27 44 26.105469 44 25C44 23.894531 43.105469 23 42 23L36 23 Z M 17.515625 28.414063L15.242188 32L7.5 32C6.117188 32 5 33.117188 5 34.5C5 35.882813 6.117188 37 7.5 37L15.933594 37C17.230469 37 18.445313 36.371094 19.195313 35.3125L21.480469 32.089844C20.652344 31.578125 20.054688 31.207031 20.046875 31.203125C18.90625 30.554688 18.03125 29.570313 17.515625 28.414063Z" />
</svg>