<?xml version="1.0" encoding="utf-8"?>
<svg xmlns="http://www.w3.org/2000/svg" viewBox="0 0 50 50" width="515" height="515">
  <path d="M25,2C12.317,2,2,12.317,2,25s10.317,23,23,23s23-10.317,23-23S37.683,2,25,2z M17,18c1.657,0,3,1.343,3,3s-1.343,3-3,3 s-3-1.343-3-3S15.343,18,17,18z M35.707,34.707C35.512,34.902,35.256,35,35,35s-0.512-0.098-0.707-0.293 C34.257,34.672,30.49,31,25,31c-5.521,0-9.256,3.67-9.293,3.707c-0.391,0.391-1.023,0.391-1.414,0s-0.391-1.023,0-1.414 C14.468,33.117,18.659,29,25,29s10.532,4.117,10.707,4.293C36.098,33.684,36.098,34.316,35.707,34.707z M33,24c-1.657,0-3-1.343-3-3 s1.343-3,3-3s3,1.343,3,3S34.657,24,33,24z" />
</svg>