<?xml version="1.0" encoding="utf-8"?>
<svg xmlns="http://www.w3.org/2000/svg" viewBox="0 0 50 50" width="515" height="515">
  <path d="M5 2C3.3 2 2 3.3 2 5L2 45C2 46.7 3.3 48 5 48L45 48C46.7 48 48 46.7 48 45L48 12C48 11.7 47.899219 11.500781 47.699219 11.300781L38.699219 2.3007812C38.499219 2.1007812 38.3 2 38 2L5 2 z M 12 4L35 4C36.1 4 37 4.9 37 6L37 17C37 18.1 36.1 19 35 19L12 19C10.9 19 10 18.1 10 17L10 6C10 4.9 10.9 4 12 4 z M 30 6C29.5 6 29 6.5 29 7L29 16C29 16.5 29.5 17 30 17L33 17C33.5 17 34 16.5 34 16L34 7C34 6.5 33.5 6 33 6L30 6 z M 13 26L37 26C38.7 26 40 27.3 40 29L40 46L10 46L10 29C10 27.3 11.3 26 13 26 z M 6 41L8 41L8 43L6 43L6 41 z M 42 41L44 41L44 43L42 43L42 41 z" />
</svg>