<?xml version="1.0" encoding="utf-8"?>
<svg xmlns="http://www.w3.org/2000/svg" viewBox="0 0 50 50" width="515" height="515">
  <path d="M26.1875 2.96875C25.269531 2.96875 24.328125 3.40625 23.59375 4.1875L11.875 15.8125C11.386719 16.324219 11 17.351563 11 18.1875L11 31.71875C11 32.59375 11.339844 33.515625 11.84375 34.0625L23.5 45.71875C24.335938 46.554688 25.257813 47 26.15625 47C27.835938 47 29 45.484375 29 43.3125L29 6.3125C29 4.019531 27.550781 2.96875 26.1875 2.96875 Z M 31 8L31 10C39.253906 10 46 16.746094 46 25C46 33.253906 39.253906 40 31 40L31 42C40.34375 42 48 34.34375 48 25C48 15.65625 40.34375 8 31 8 Z M 31 14L31 16C35.953125 16 40 20.046875 40 25C40 29.953125 35.953125 34 31 34L31 36C37.046875 36 42 31.046875 42 25C42 18.953125 37.046875 14 31 14 Z M 5 16C3.347656 16 2 17.347656 2 19L2 31C2 32.652344 3.347656 34 5 34L9.5 34C9.195313 33.292969 9 32.507813 9 31.71875L9 18.1875C9 17.464844 9.183594 16.699219 9.46875 16 Z M 31 20L31 22C32.65625 22 34 23.34375 34 25C34 26.65625 32.65625 28 31 28L31 30C33.746094 30 36 27.746094 36 25C36 22.253906 33.746094 20 31 20Z" />
</svg>