<?xml version="1.0" encoding="utf-8"?>
<svg xmlns="http://www.w3.org/2000/svg" viewBox="0 0 50 50" width="515" height="515">
  <path d="M43.578125 31.992188C42.128906 31.40625 40.757813 30.847656 40.359375 29.996094C40.296875 29.238281 40.304688 28.636719 40.308594 27.949219L40.3125 27.714844C40.953125 26.992188 41.519531 25.683594 41.757813 24.546875C42.28125 24.214844 42.867188 23.503906 43.042969 21.96875C43.121094 21.296875 43.007813 20.679688 42.742188 20.21875C43.324219 18.699219 43.324219 16.203125 42.375 14.28125C41.601563 12.722656 40.320313 11.78125 38.71875 11.578125L38.28125 10.59375C38.121094 10.230469 37.765625 10 37.367188 10C35.851563 10 34.480469 10.191406 33.265625 10.5625C33.222656 10.460938 33.1875 10.355469 33.140625 10.257813C32.144531 8.226563 30.453125 7.027344 28.332031 6.828125L27.695313 5.550781C27.523438 5.214844 27.179688 5 26.800781 5C22.535156 5 19.171875 6.566406 17.320313 9.414063C16.988281 9.929688 16.726563 10.476563 16.511719 11.042969L16.273438 10.558594C16.105469 10.21875 15.757813 10 15.375 10C12.066406 10 9.4375 11.234375 7.972656 13.476563C6.730469 15.371094 6.488281 17.808594 7.289063 20.097656C7.015625 20.535156 6.835938 21.136719 6.921875 21.882813C7.105469 23.425781 7.695313 24.140625 8.222656 24.472656C8.464844 25.601563 9.050781 26.929688 9.707031 27.660156L9.710938 27.878906C9.714844 28.578125 9.71875 29.183594 9.65625 29.953125C9.257813 30.8125 7.871094 31.371094 6.40625 31.964844C3.785156 33.023438 0.195313 34.476563 -0.0664063 38.941406C-0.0820313 39.21875 0.015625 39.488281 0.207031 39.6875C0.394531 39.886719 0.65625 40 0.933594 40L7.214844 40C7.050781 40.589844 6.941406 41.234375 6.902344 41.941406C6.882813 42.214844 6.980469 42.484375 7.171875 42.683594C7.359375 42.886719 7.625 43 7.898438 43L42.101563 43C42.375 43 42.640625 42.886719 42.828125 42.6875C43.015625 42.484375 43.113281 42.214844 43.097656 41.941406C43.058594 41.234375 42.949219 40.589844 42.785156 40L49 40C49.273438 40 49.539063 39.886719 49.726563 39.6875C49.914063 39.488281 50.015625 39.21875 50 38.941406C49.738281 34.492188 46.179688 33.050781 43.578125 31.992188 Z M 9.035156 41C9.035156 35.1875 19.03125 34.949219 20.605469 30.667969C20.738281 29.203125 20.6875 28.179688 20.6875 26.84375C20.03125 26.492188 18.808594 24.273438 18.609375 22.402344C18.09375 22.359375 17.277344 21.847656 17.039063 19.839844C16.910156 18.761719 17.421875 18.152344 17.730469 17.964844C17.5 16.007813 17.589844 14.023438 18.199219 12.285156C18.378906 11.65625 18.640625 11.054688 18.996094 10.503906C20.128906 8.761719 22.046875 7.636719 24.492188 7.207031C24.609375 7.183594 24.726563 7.160156 24.847656 7.140625C24.972656 7.121094 25.101563 7.109375 25.226563 7.09375C25.484375 7.0625 25.730469 7.019531 26 7L26.015625 7.027344C26.074219 7.023438 26.128906 7.015625 26.1875 7.011719L26.804688 8.246094C26.976563 8.585938 27.320313 8.800781 27.699219 8.800781C29.359375 8.800781 30.585938 9.585938 31.34375 11.136719C31.402344 11.257813 31.445313 11.394531 31.496094 11.519531C32.449219 13.589844 32.59375 16.371094 32.269531 17.964844C32.6875 18.082031 33.089844 18.761719 32.960938 19.839844C32.722656 21.847656 31.90625 22.359375 31.390625 22.402344C31.191406 24.273438 30.015625 26.492188 29.359375 26.84375C29.359375 28.179688 29.308594 29.203125 29.4375 30.667969C31.015625 34.949219 40.964844 34.5 40.964844 41Z" />
</svg>