<?xml version="1.0" encoding="utf-8"?>
<svg xmlns="http://www.w3.org/2000/svg" viewBox="0 0 50 50" width="515" height="515">
  <path d="M25.5 2C22.46875 2 20 4.46875 20 7.5C20 10.53125 22.46875 13 25.5 13C28.53125 13 31 10.53125 31 7.5C31 4.46875 28.53125 2 25.5 2 Z M 20.5 14C17.46875 14 15 16.46875 15 19.5L15 32C15 33.105469 15.898438 34 17 34C18.101563 34 19 33.105469 19 32L19 22.46875C19 22.199219 19.230469 21.96875 19.5 21.96875C19.769531 21.96875 20 22.199219 20 22.46875L20 45.3125C20 46.875 20.839844 48 22.40625 48C23.886719 48 25 46.851563 25 45.3125L25 32.46875C25 32.191406 25.222656 31.96875 25.5 31.96875C25.777344 31.96875 26 32.191406 26 32.46875L26 45.59375C26.003906 45.601563 26.027344 45.585938 26.03125 45.59375C26.167969 46.976563 27.210938 48 28.59375 48C30.15625 48 31 46.875 31 45.3125L31 22.65625C31 22.386719 31.230469 22.15625 31.5 22.15625C31.769531 22.15625 32 22.386719 32 22.65625L32 32C32 33.105469 32.898438 34 34 34C35.101563 34 36 33.105469 36 32L36 19.5C36 16.46875 33.53125 14 30.5 14Z" />
</svg>