<?xml version="1.0" encoding="utf-8"?>
<svg xmlns="http://www.w3.org/2000/svg" viewBox="0 0 50 50" width="515" height="515">
  <path d="M25 0C21.691406 0 19 2.691406 19 6C19 9.308594 21.691406 12 25 12C28.308594 12 31 9.308594 31 6C31 2.691406 28.308594 0 25 0 Z M 25.03125 13C15.285156 13 15 18.75 15 19.40625L15 29.1875C15 30.730469 16.269531 32 17.8125 32L19 32L19 22C19 21.722656 19.222656 21.5 19.5 21.5C19.777344 21.5 20 21.722656 20 22L20 43.34375C20 44.816406 21.183594 46 22.65625 46L27.34375 46C28.816406 46 30 44.816406 30 43.34375L30 22C30 21.722656 30.226563 21.5 30.5 21.5C30.773438 21.5 31 21.722656 31 22L31 32L32.1875 32C33.730469 32 35 30.730469 35 29.1875L35 19.40625C35 18.335938 34.523438 13 25.03125 13 Z M 16.84375 36.5625C13.527344 37.050781 10.707031 37.835938 8.625 38.84375C7.582031 39.347656 6.738281 39.886719 6.09375 40.5625C5.449219 41.238281 5 42.085938 5 43C5 44.257813 5.804688 45.300781 6.90625 46.125C8.007813 46.949219 9.460938 47.621094 11.25 48.1875C14.828125 49.316406 19.667969 50 25 50C30.332031 50 35.171875 49.316406 38.75 48.1875C40.539063 47.621094 41.992188 46.945313 43.09375 46.125C44.195313 45.304688 45 44.257813 45 43C45 42.085938 44.550781 41.238281 43.90625 40.5625C43.261719 39.886719 42.417969 39.347656 41.375 38.84375C39.292969 37.835938 36.472656 37.050781 33.15625 36.5625C32.605469 36.476563 32.085938 36.855469 32 37.40625C31.914063 37.957031 32.292969 38.476563 32.84375 38.5625C36.019531 39.03125 38.707031 39.757813 40.5 40.625C41.398438 41.058594 42.066406 41.546875 42.46875 41.96875C42.871094 42.390625 43 42.710938 43 43C43 43.398438 42.726563 43.917969 41.90625 44.53125C41.085938 45.144531 39.773438 45.761719 38.125 46.28125C34.828125 47.324219 30.164063 48 25 48C19.835938 48 15.171875 47.324219 11.875 46.28125C10.226563 45.761719 8.914063 45.144531 8.09375 44.53125C7.273438 43.917969 7 43.402344 7 43C7 42.710938 7.128906 42.390625 7.53125 41.96875C7.933594 41.546875 8.601563 41.058594 9.5 40.625C11.292969 39.757813 13.980469 39.03125 17.15625 38.5625C17.707031 38.476563 18.085938 37.957031 18 37.40625C17.914063 36.855469 17.394531 36.476563 16.84375 36.5625Z" />
</svg>