<?xml version="1.0" encoding="utf-8"?>
<svg xmlns="http://www.w3.org/2000/svg" viewBox="0 0 50 50" width="515" height="515">
  <path d="M16.125 0C13.363281 0 11.125 2.238281 11.125 5C11.125 7.761719 13.363281 10 16.125 10C18.886719 10 21.125 7.761719 21.125 5C21.125 2.238281 18.886719 0 16.125 0 Z M 6.15625 9.75C5.023438 9.703125 3.941406 10.484375 3.53125 11.71875L0.25 22.65625C-0.0625 23.511719 -0.00390625 24.425781 0.40625 25.15625C0.769531 25.804688 1.371094 26.238281 2.0625 26.375L6.375 27.375C6.511719 27.40625 6.671875 27.429688 6.8125 27.4375C6.734375 26.875 6.710938 26.25 6.84375 25.59375C7.058594 24.3125 9.144531 15.046875 9.875 11.8125L9.875 11.75C9.941406 11.523438 10.085938 11.226563 10.3125 10.9375C10.230469 10.910156 10.175781 10.863281 10.09375 10.84375L6.65625 9.84375C6.492188 9.804688 6.316406 9.757813 6.15625 9.75 Z M 12.1875 11C11.152344 11 10.84375 12.03125 10.84375 12.03125C10.117188 15.246094 8.050781 24.507813 7.84375 25.75C7.5625 27.152344 7.933594 28.289063 8.46875 29.25L6.0625 38.25C6.0625 38.25 2.046875 44.058594 0.90625 45.71875C0.078125 46.960938 -0.542969 48.421875 0.90625 49.5625C2.5625 50.804688 3.796875 49.152344 4.625 48.21875C5.351563 47.390625 8.578125 43.015625 9.40625 41.875C10.027344 41.148438 10.324219 40.527344 10.53125 39.90625C10.726563 39.511719 11.816406 36.480469 12.28125 35.1875C15.347656 39.957031 19.78125 46.824219 20.6875 48.03125C21.929688 49.691406 23.082031 50.429688 24.84375 49.5C26.292969 48.671875 26.078125 46.816406 25.25 45.46875C24.421875 44.121094 14.875 28.65625 14.875 28.65625L16.65625 21.21875C16.65625 21.21875 17.792969 23.378906 18.3125 24.3125C18.625 24.726563 18.828125 24.929688 19.65625 25.34375C20.484375 25.863281 22.757813 27.128906 24 27.75C25.140625 28.269531 26.597656 28.476563 27.21875 27.4375C27.734375 26.296875 27.015625 25.03125 26.1875 24.71875C25.253906 24.304688 21.09375 21.8125 21.09375 21.8125C21.09375 21.8125 19.015625 16.589844 17.875 14C16.839844 11.617188 16.023438 11 14.46875 11 Z M 40.46875 12.03125C37.984375 12.03125 35.96875 14.046875 35.96875 16.53125C35.96875 19.015625 37.984375 21.03125 40.46875 21.03125C42.953125 21.03125 44.96875 19.015625 44.96875 16.53125C44.96875 14.046875 42.953125 12.03125 40.46875 12.03125 Z M 33.09375 20.875C32.210938 20.875 31.003906 21.25 30.25 23.0625C30.019531 23.691406 29.632813 24.976563 29.21875 26.34375C28.890625 27.425781 28.5625 28.5 28.34375 29.15625C27.96875 30.21875 27.988281 31.136719 28.375 31.875C28.617188 32.339844 29.136719 32.96875 30.28125 33.28125C30.796875 33.394531 31.257813 33.5625 31.625 33.6875C31.878906 33.773438 32.097656 33.835938 32.25 33.875C32.5625 33.957031 32.839844 34 33.125 34C33.320313 34 33.617188 33.953125 33.9375 33.84375C33.789063 33.261719 33.761719 32.621094 33.90625 31.90625C34.007813 31.210938 34.636719 28.535156 35.4375 25.09375C35.664063 24.117188 35.859375 23.21875 36 22.59375C36.066406 22.332031 36.199219 22.085938 36.375 21.84375C36.132813 21.683594 35.839844 21.539063 35.53125 21.4375C35.511719 21.433594 35.148438 21.320313 34.1875 21.03125C33.8125 20.925781 33.433594 20.875 33.09375 20.875 Z M 37.90625 22.03125C37.179688 22.03125 36.96875 22.84375 36.96875 22.84375C36.449219 25.125 34.976563 31.265625 34.875 32.09375C34.664063 33.074219 34.960938 33.898438 35.34375 34.625L33.53125 41.3125C33.53125 41.3125 30.546875 45.632813 29.71875 46.875C29.097656 47.808594 28.683594 48.828125 29.71875 49.65625C30.859375 50.589844 31.785156 49.339844 32.40625 48.71875C32.925781 48.097656 35.304688 44.828125 36.03125 44C36.445313 43.480469 36.636719 42.976563 36.84375 42.5625C36.9375 42.285156 37.878906 40.285156 38.3125 39.3125C40.628906 42.910156 43.785156 47.816406 44.375 48.625C45.308594 49.765625 46.164063 50.414063 47.40625 49.6875C48.441406 49.066406 48.339844 47.714844 47.71875 46.78125C47.097656 45.746094 39.96875 34.25 39.96875 34.25L41.09375 29.96875C41.09375 29.96875 41.929688 31.566406 42.34375 32.1875C42.550781 32.5 42.761719 32.59375 43.28125 32.90625C43.902344 33.21875 46.378906 34.460938 47.3125 34.875C48.140625 35.289063 49.179688 35.414063 49.59375 34.6875C50.109375 33.960938 49.496094 33.03125 48.875 32.71875C48.148438 32.40625 44.3125 30.4375 44.3125 30.4375C44.3125 30.4375 42.859375 26.144531 42.03125 24.28125C41.304688 22.414063 40.703125 22.03125 39.5625 22.03125Z" />
</svg>