<?xml version="1.0" encoding="utf-8"?>
<svg xmlns="http://www.w3.org/2000/svg" viewBox="0 0 50 50" width="515" height="515">
  <path d="M24.8125 2C23.917969 2.039063 23.066406 2.214844 22.40625 2.875L2.78125 22.5C2.285156 22.996094 2 23.671875 2 24.375C2 25.078125 2.285156 25.722656 2.78125 26.21875L6.09375 29.53125C6.261719 28.609375 6.667969 27.769531 7.34375 27.09375L27 7.46875C28.453125 6.011719 30.371094 6 31.53125 6L42 6L42 5.15625C42 3.414063 40.585938 2 38.84375 2L25.71875 2C25.417969 2 25.109375 1.988281 24.8125 2 Z M 30.8125 8C29.917969 8.039063 29.066406 8.214844 28.40625 8.875L8.78125 28.5C8.285156 28.996094 8 29.671875 8 30.375C8 31.078125 8.285156 31.722656 8.78125 32.21875L23.78125 47.21875C24.277344 47.714844 24.921875 48 25.625 48C26.328125 48 27.003906 47.714844 27.5 47.21875L47.125 27.59375C48.007813 26.710938 48.003906 25.476563 48 24.28125L48 23C48 20.449219 48 13.726563 48 11.71875L48 11.15625C48 9.414063 46.585938 8 44.84375 8L31.71875 8C31.417969 8 31.109375 7.988281 30.8125 8 Z M 40 14C40.511719 14 41.015625 14.203125 41.40625 14.59375C42.1875 15.375 42.1875 16.625 41.40625 17.40625C40.625 18.1875 39.375 18.1875 38.59375 17.40625C37.8125 16.625 37.8125 15.375 38.59375 14.59375C38.984375 14.203125 39.488281 14 40 14Z" />
</svg>