<?xml version="1.0" encoding="utf-8"?>
<svg xmlns="http://www.w3.org/2000/svg" viewBox="0 0 50 50" width="515" height="515">
  <path d="M2.8125 6C2.335938 6.089844 1.992188 6.511719 2 7L2 15C2 15.550781 2.449219 16 3 16L47 16C47.550781 16 48 15.550781 48 15L48 7C48 6.449219 47.550781 6 47 6L3 6C2.96875 6 2.9375 6 2.90625 6C2.875 6 2.84375 6 2.8125 6 Z M 12 8L46 8L46 14L12 14 Z M 2.8125 20C2.335938 20.089844 1.992188 20.511719 2 21L2 29C2 29.550781 2.449219 30 3 30L47 30C47.550781 30 48 29.550781 48 29L48 21C48 20.449219 47.550781 20 47 20L3 20C2.96875 20 2.9375 20 2.90625 20C2.875 20 2.84375 20 2.8125 20 Z M 36 22L46 22L46 28L36 28 Z M 2.8125 34C2.335938 34.089844 1.992188 34.511719 2 35L2 43C2 43.550781 2.449219 44 3 44L47 44C47.550781 44 48 43.550781 48 43L48 35C48 34.449219 47.550781 34 47 34L3 34C2.96875 34 2.9375 34 2.90625 34C2.875 34 2.84375 34 2.8125 34 Z M 24 36L46 36L46 42L24 42Z" />
</svg>