<?xml version="1.0" encoding="utf-8"?>
<svg xmlns="http://www.w3.org/2000/svg" viewBox="0 0 50 50" width="515" height="515">
  <path d="M29 0.8125C9.757813 0.8125 0 16.34375 0 47C0 47.292969 0.121094 47.558594 0.34375 47.75C0.527344 47.902344 0.765625 48 1 48C1.054688 48 1.101563 48.007813 1.15625 48C1.214844 47.992188 7.109375 47 18 47C18.011719 47 18.019531 47 18.03125 47C19.984375 48.824219 22.28125 50 25 50C27.734375 50 30.234375 48.824219 32.375 46.96875C32.417969 46.972656 32.453125 47 32.5 47C43.160156 47 48.757813 47.960938 48.8125 47.96875C48.871094 47.980469 48.941406 48 49 48C49.230469 48 49.476563 47.933594 49.65625 47.78125C49.882813 47.589844 50 47.296875 50 47C50 41.417969 49.457031 37.710938 48.96875 35.5C47.910156 36.4375 46.519531 37 45 37L44.90625 37C44.417969 40.386719 41.519531 43 38 43L33.28125 43C32.8125 43.617188 32.410156 44.097656 32.09375 44.4375C32.039063 44.496094 31.964844 44.566406 31.90625 44.625C31.644531 44.894531 31.5 45.03125 31.5 45.03125C29.597656 46.84375 27.371094 48 25 48C20.199219 48 16.113281 43.1875 12.3125 33.1875C12.210938 32.789063 11.800781 32.59375 11.5 32.59375C10.101563 32.496094 9 31.3125 9 29.8125C9 29.210938 9.101563 28.394531 9.5 28.09375C9.898438 27.792969 10.6875 27.90625 10.6875 27.90625L11 27.90625C19.300781 27.90625 27.199219 19.707031 30 14.40625C33 20.804688 37.988281 26.699219 38.1875 27C38.386719 27.199219 38.699219 27.40625 39 27.40625C39 27.40625 40.421875 27.40625 41 28.59375L41 24C41 22 43 22 43 22L45 22C45.675781 22 46.332031 22.105469 46.9375 22.3125C46.203125 11.871094 39.664063 4.421875 30.75 4.03125L29.96875 1.5C29.839844 1.082031 29.4375 0.8125 29 0.8125 Z M 33.28125 43C33.703125 42.445313 34.167969 41.769531 34.625 41L29.8125 41C29.394531 39.84375 28.300781 39 27 39L25 39C23.347656 39 22 40.347656 22 42C22 43.652344 23.347656 45 25 45L27 45C28.300781 45 29.394531 44.15625 29.8125 43 Z M 34.625 41L38 41C40.414063 41 42.441406 39.277344 42.90625 37C42.90625 37 41 37 41 35L41 31C41 32.300781 38.5 32.59375 38.5 32.59375C38.101563 32.59375 37.695313 33.003906 37.59375 33.40625C37.246094 34.996094 36.757813 36.539063 36.125 38.03125C36.035156 38.207031 35.941406 38.394531 35.84375 38.625C35.460938 39.507813 35.046875 40.289063 34.625 41 Z M 43 24L43 35L45 35C47.199219 35 49 33.199219 49 31L49 28C49 25.800781 47.199219 24 45 24Z" />
</svg>