<?xml version="1.0" encoding="utf-8"?>
<svg xmlns="http://www.w3.org/2000/svg" viewBox="0 0 50 50" width="515" height="515">
  <path d="M23 15C20.266667 15 18.028883 16.316613 15.052734 17.804688C13.892487 18.384811 12.136488 19.156238 10.314453 20.871094 A 1.0001 1.0001 0 0 0 10.292969 20.892578C8.8376203 22.347926 8 24.585884 8 26.599609L8 36C8 40.945455 12.054545 45 17 45L36 45C37.516667 45 38.775498 44.380898 39.630859 43.556641C40.486221 42.732383 41 41.733834 41 40.699219C41 39.83606 40.791454 39.124512 40.582031 38.587891C41.554369 38.066867 43 37.072649 43 34.800781C43 33.396907 42.324564 32.448932 41.650391 31.835938C42.321435 31.162668 43 30.164355 43 28.699219C43 26.462657 41.591038 25.5405 40.759766 25.103516C40.84621 24.594455 41 23.82054 41 22.900391C41 20.933724 39.135173 19.099609 36.400391 19.099609C33.253947 19.007919 30.128684 19.008342 29.580078 19.007812C28.969745 17.683829 28.099116 16.632889 27.027344 16.009766C25.761318 15.273704 24.338889 15 23 15 z" />
</svg>