<?xml version="1.0" encoding="utf-8"?>
<svg xmlns="http://www.w3.org/2000/svg" viewBox="0 0 50 50" width="515" height="515">
  <path d="M10 0C6.691406 0 4 2.691406 4 6C4 9.308594 6.691406 12 10 12C13.308594 12 16 9.308594 16 6C16 2.691406 13.308594 0 10 0 Z M 37 0C33.691406 0 31 2.691406 31 6C31 9.308594 33.691406 12 37 12C40.308594 12 43 9.308594 43 6C43 2.691406 40.308594 0 37 0 Z M 5.5 13C2.46875 13 0 15.46875 0 18.5L0 33C0 34.105469 0.898438 35 2 35C3.101563 35 4 34.105469 4 33L4 21C4 20.730469 4.230469 20.5 4.5 20.5C4.769531 20.5 5 20.730469 5 21L5 47.3125C5 48.875 5.839844 50 7.40625 50C8.886719 50 10 48.851563 10 47.3125L10 33.6875C10 33.410156 10.222656 33.1875 10.5 33.1875C10.777344 33.1875 11 33.410156 11 33.6875L11 47.59375C11.003906 47.601563 11.027344 47.585938 11.03125 47.59375C11.167969 48.976563 12.210938 50 13.59375 50C15.15625 50 16 48.875 16 47.3125L16 21C16 20.730469 16.230469 20.5 16.5 20.5C16.769531 20.5 17 20.730469 17 21L17 33C17 34.105469 17.898438 35 19 35C20.101563 35 21 34.105469 21 33L21 18.5C21 15.46875 18.53125 13 15.5 13 Z M 32 13C30.609375 12.90625 28.253906 13.898438 27.3125 16.78125L23.25 29.375C22.90625 30.425781 23.484375 31.5625 24.53125 31.90625C25.582031 32.25 26.71875 31.675781 27.0625 30.625L30.125 21.34375C30.207031 21.085938 30.492188 20.945313 30.75 21.03125C30.984375 21.105469 31.132813 21.355469 31.09375 21.59375C31.074219 21.628906 31.042969 21.648438 31.03125 21.6875L27.75 31.5L26.6875 34.65625L26.78125 34.5C26.679688 34.988281 26.640625 35.570313 27.03125 36.15625C27.066406 36.210938 27.140625 36.265625 27.1875 36.3125C27.449219 36.570313 27.976563 37 28.6875 37L31 37L31 47.3125C31 48.875 31.839844 50 33.40625 50C34.886719 50 36 48.851563 36 47.3125L36 37L37 37L37 47.59375C37.003906 47.601563 37.027344 47.585938 37.03125 47.59375C37.167969 48.976563 38.210938 50 39.59375 50C41.15625 50 42 48.875 42 47.3125L42 37L44.3125 37C45.023438 37 45.554688 36.570313 45.8125 36.3125C45.859375 36.265625 45.902344 36.210938 45.9375 36.15625C46.339844 35.550781 46.296875 34.9375 46.1875 34.4375L46.3125 34.65625L43.65625 26.8125L41.9375 21.6875C41.929688 21.664063 41.917969 21.648438 41.90625 21.625C41.84375 21.375 42 21.109375 42.25 21.03125C42.507813 20.945313 42.792969 21.085938 42.875 21.34375L45.96875 30.625C46.3125 31.675781 47.421875 32.25 48.46875 31.90625C49.515625 31.5625 50.09375 30.425781 49.75 29.375L45.6875 16.78125C44.746094 13.898438 42.390625 12.90625 41 13Z" />
</svg>