<?xml version="1.0" encoding="utf-8"?>
<svg xmlns="http://www.w3.org/2000/svg" viewBox="0 0 50 50" width="515" height="515">
  <path d="M25 2C24.855 2 24.710078 2.0298437 24.580078 2.0898438L2.5800781 12.380859C2.2200781 12.540859 2 12.899063 2 13.289062L2 15L48 15L48 13.289062C48 12.899063 47.779922 12.540859 47.419922 12.380859L25.419922 2.0898438C25.289922 2.0298437 25.145 2 25 2 z M 5.1699219 17C5.4699219 17.87 6.15 18.71 7 19L8 19L8 35L13 35L13 19L18 19L18 35L23 35L23 19L27 19L27 35L32 35L32 19L37 19L37 35L42 35L42 19L43 19C43.85 18.71 44.530078 17.87 44.830078 17L5.1699219 17 z M 7.8457031 37C6.2767031 37 5 38.346 5 40L45 40C45 38.346 43.724297 37 42.154297 37L7.8457031 37 z M 4.8457031 42C3.2767031 42 2 43.346 2 45L2 47L48 47L48 45C48 43.346 46.724297 42 45.154297 42L4.8457031 42 z" />
</svg>