<?xml version="1.0" encoding="utf-8"?>
<svg xmlns="http://www.w3.org/2000/svg" viewBox="0 0 50 50" width="515" height="515">
  <path d="M33 0C31.898438 0 31 0.898438 31 2L31 4C31 5.101563 31.898438 6 33 6L45 6C46.101563 6 47 5.101563 47 4L47 2C47 0.898438 46.101563 0 45 0 Z M 32.09375 7.875C30.394531 11.011719 28.859375 16.011719 28.21875 19.28125C33.15625 21.089844 36 25.800781 36 32.25C36 39.3125 33.320313 44.363281 29.46875 47.59375C30.183594 48.269531 31.109375 48.742188 32.125 48.90625C32.136719 48.910156 32.144531 48.933594 32.15625 48.9375C32.402344 48.976563 32.648438 49 32.90625 49L45 49C45.257813 49 45.503906 48.976563 45.75 48.9375C45.761719 48.933594 45.769531 48.910156 45.78125 48.90625C48.160156 48.523438 50 46.484375 50 44L50 21.8125C50 19.492188 48.09375 12.074219 45.84375 7.90625C45.574219 7.964844 45.285156 8 45 8L33 8C32.683594 8 32.390625 7.945313 32.09375 7.875 Z M 19.21875 14.96875C18.683594 14.957031 18.21875 15.03125 18.21875 15.03125C18.21875 15.03125 16.808594 17.328125 16.65625 20C14.101563 16.109375 10.886719 19.464844 9.6875 16.375C9.6875 21.304688 13.59375 20.378906 15.03125 21C10.644531 21 12.191406 24.773438 8.6875 24.875C11.804688 26.253906 14.597656 25.972656 16.65625 21.96875C15.703125 24.753906 15.011719 27.003906 18.90625 29.34375C19.933594 27.507813 19.4375 24.171875 18.40625 21.5C20.273438 24.589844 22.855469 26.710938 26.25 24.5625C23.527344 23.851563 24.746094 21.855469 19.9375 21.09375C23.027344 21.515625 25.136719 21.953125 26 18.6875C23.511719 19.632813 22.519531 15.890625 18.4375 20.125C18.421875 20.132813 18.460938 17.445313 20.71875 15.4375C20.375 15.101563 19.753906 14.980469 19.21875 14.96875 Z M 8.8125 20.40625C8.421875 20.53125 8.160156 20.640625 8.125 20.65625C2.882813 22.609375 0 27.28125 0 33.84375C0 42.597656 7.785156 50 17 50C25.1875 50 34 44.445313 34 32.25C34 26.519531 31.617188 22.554688 27.34375 21.09375C27.328125 21.085938 27.277344 21.066406 27.1875 21.03125C26.886719 21.539063 26.511719 21.96875 26.09375 22.3125C26.269531 22.464844 26.429688 22.539063 26.75 22.625C27.519531 22.824219 28.128906 23.464844 28.25 24.25C28.371094 25.035156 28.015625 25.824219 27.34375 26.25C26.105469 27.03125 24.84375 27.4375 23.59375 27.4375C22.867188 27.4375 22.152344 27.289063 21.46875 27.03125C21.429688 28.234375 21.179688 29.371094 20.65625 30.3125C20.390625 30.785156 19.960938 31.140625 19.4375 31.28125C19.269531 31.328125 19.078125 31.34375 18.90625 31.34375C18.546875 31.34375 18.1875 31.25 17.875 31.0625C15.796875 29.8125 14.734375 28.480469 14.25 27.15625C13.484375 27.46875 12.660156 27.625 11.78125 27.625C10.566406 27.625 9.28125 27.308594 7.875 26.6875C7.019531 26.308594 6.539063 25.386719 6.71875 24.46875C6.898438 23.550781 7.691406 22.902344 8.625 22.875C9.175781 22.859375 9.21875 22.84375 9.71875 22.03125C9.804688 21.890625 9.898438 21.71875 10 21.5625C9.566406 21.269531 9.164063 20.886719 8.8125 20.40625Z" />
</svg>