<?xml version="1.0" encoding="utf-8"?>
<svg xmlns="http://www.w3.org/2000/svg" viewBox="0 0 50 50" width="515" height="515">
  <path d="M44.8,13.2c-0.8-2.8-2.3-5-4.6-6.6c-2.9-2-6.1-2.7-9-3.1c-3.9-0.6-7.5-0.7-10.9-0.3c-3.2,0.4-5.6,1-7.8,2c-4.3,2-6.9,5.2-7.6,9.5c-0.4,2.1-0.6,4-0.8,5.8c-0.3,4.2,0,7.9,1,11.3c1,3.3,2.6,5.7,5.1,7.3c0.6,0.4,1.4,0.7,2.2,1c0.4,0.2,0.9,0.3,1.2,0.5C14,40.7,14,40.7,14,41c0,2.4,0,7,0,7l0,1h1.8l0.3-0.3c0.2-0.2,4.6-4.4,6.2-6.2l0.2-0.2C22.7,42,22.7,42,23,42c2.1,0,4.3-0.1,6.5-0.2c2.6-0.1,5.6-0.4,8.5-1.6c2.6-1.1,4.5-2.8,5.7-5.1c1.2-2.4,1.9-5,2.2-8C46.3,21.8,45.9,17.3,44.8,13.2z M35.4,33.5c-0.7,1.1-1.6,1.8-2.8,2.3c-0.8,0.4-1.7,0.3-2.5-0.1c-6-2.6-10.9-6.4-14.5-11.7c-0.6-0.8-1.1-1.7-1.6-2.6c-0.7-1.4-1.3-2.9-1.9-4.3c-0.1-0.3-0.1-0.6-0.2-1c0,0,0,0,0,0s0,0,0,0c0-2.1,1.5-3.4,3.2-3.9c0.2-0.1,0.3-0.1,0.5-0.1c0.1,0,0.2,0,0.3,0c0.3,0,0.6,0,0.9,0.2c0.2,0.1,0.4,0.2,0.6,0.4c0.4,0.4,0.7,0.7,1.1,1.1c0.9,1.1,1.7,2.3,2.3,3.6c0.1,0.2,0.1,0.3,0.2,0.5c0,0,0,0,0,0.1c0,0,0,0.1,0,0.1c0,0.4-0.1,0.9-0.5,1.2c0,0.1-0.1,0.1-0.1,0.2c0,0,0,0,0,0c-0.1,0.1-0.3,0.2-0.4,0.3c-1.4,1.1-1.7,1.9-0.9,3.5c1.3,2.8,3.5,4.7,6.3,5.8c0.2,0.1,0.4,0.1,0.5,0.1c0.5,0.1,1-0.1,1.5-0.6c0.1-0.1,0.2-0.2,0.2-0.3c0.4-0.7,0.9-1.1,1.4-1.3c0.4-0.2,0.9-0.1,1.4,0c0.5,0.1,0.9,0.4,1.4,0.7c0.9,0.7,1.8,1.3,2.7,2c0.1,0,0.1,0.1,0.2,0.1c0.9,0.7,1.3,1.3,1.2,2.1C35.9,32.4,35.7,32.9,35.4,33.5z M34,20.9C34,20.9,34,20.9,34,20.9c0,0.4,0,0.9-0.1,1.3c0,0,0,0,0,0c-0.1,0.5-0.5,0.8-1,0.8c-0.1,0-0.1,0-0.2,0c-0.3-0.1-0.6-0.3-0.7-0.5c-0.1-0.2-0.2-0.4-0.1-0.6c0.1-0.3,0.1-0.6,0.1-1c0-0.2,0-0.3,0-0.5c0,0,0-0.1,0-0.1c0-0.4-0.1-0.8-0.3-1.2c-0.5-1.6-1.7-2.9-3.2-3.5c0,0-0.1,0-0.1,0c0,0-0.1,0-0.1,0c-0.7-0.3-1.4-0.4-2.2-0.4c-0.3,0-0.7,0-1,0.1c-0.1,0-0.1,0-0.2,0c-0.3,0-0.6-0.2-0.8-0.4c-0.1-0.1-0.1-0.2-0.1-0.4c-0.1-0.5,0.2-0.9,0.6-1.1c0.1,0,0.1-0.1,0.2-0.1c0,0,0,0,0,0c0.4-0.1,0.9-0.1,1.3-0.1c0,0,0,0,0,0c0,0,0,0,0,0c0,0,0,0,0,0C30.5,13,34,16.5,34,20.9C34,20.9,34,20.9,34,20.9C34,20.9,34,20.9,34,20.9z M31,21c0,0.6-0.4,1-1,1s-1-0.4-1-1c0-1.7-1.3-3-3-3c-0.6,0-1-0.4-1-1s0.4-1,1-1C28.8,16,31,18.2,31,21z M37,20.8c0,0.1,0,0.2,0,0.3c0,0.7-0.1,1.4-0.2,2.1c-0.1,0.4-0.5,0.7-0.9,0.8c0,0-0.1,0-0.1,0c0,0,0,0,0,0c0,0,0,0,0,0c-0.1,0-0.1,0-0.2,0c-0.5-0.1-0.9-0.7-0.8-1.2c0.1-0.6,0.2-1.3,0.2-2c0-0.3,0-0.5,0-0.8c0,0,0-0.1,0-0.1c0-0.4-0.1-0.8-0.2-1.2c-0.9-3.5-3.8-6.2-7.5-6.6c-0.1,0-0.1,0-0.2,0c-0.1,0-0.3,0-0.4,0c-0.2,0-0.3,0-0.5,0c-0.7,0-1.3,0.1-2,0.2c-0.3,0.1-0.5,0-0.8-0.1c-0.2-0.1-0.4-0.4-0.4-0.6c-0.1-0.5,0.2-1.1,0.8-1.2c0.4-0.1,0.8-0.1,1.2-0.2c0.1,0,0.2,0,0.4,0c0.3,0,0.6,0,0.9,0h0C32.1,10,37,14.9,37,20.8C37,20.8,37,20.8,37,20.8C37,20.8,37,20.8,37,20.8z" />
</svg>