<?xml version="1.0" encoding="utf-8"?>
<svg xmlns="http://www.w3.org/2000/svg" viewBox="0 0 50 50" width="515" height="515">
  <path d="M35.5 2C34.866 2 34.274437 2.2413418 33.832031 2.6386719C33.825631 2.6448319 33.739511 2.7298469 33.707031 2.765625C33.673791 2.802239 33.629402 2.854329 33.570312 2.9199219C33.452143 3.0511082 33.280995 3.2392971 33.066406 3.4785156C32.637228 3.9569526 32.030002 4.6367416 31.302734 5.4492188C29.848199 7.074173 27.917029 9.2335577 25.988281 11.390625L18.919922 19.296875C17.159139 17.866935 15.192599 16.270881 13.789062 15.130859C12.45704 14.048925 11.344871 13.145586 10.560547 12.507812C10.168385 12.188927 9.8582026 11.935839 9.6445312 11.761719C9.5376956 11.674659 9.4548777 11.606726 9.3984375 11.560547C9.3739425 11.540507 9.3556719 11.527035 9.3417969 11.515625L9.3398438 11.513672C9.3398438 11.513672 9.3378906 11.513672 9.3378906 11.513672C8.9855648 11.197609 8.5105802 11 8 11C7.6109517 11 7.5065274 11.07872 7.3085938 11.150391C7.1106599 11.222061 6.8960205 11.312721 6.6601562 11.417969C6.1884279 11.628464 5.6382127 11.898996 5.1054688 12.167969C4.0399809 12.705915 3.0488281 13.240234 3.0488281 13.240234L3.0546875 13.251953C2.4326139 13.593568 2 14.249289 2 15L2 36C2 36.783714 2.4699351 37.466299 3.1367188 37.792969L3.1328125 37.800781C3.1328125 37.800781 4.0513356 38.268979 5.0175781 38.755859C5.5006994 38.999299 5.9968919 39.247409 6.3964844 39.445312C6.7960769 39.643217 7.0192646 39.760213 7.25 39.853516C7.4806217 39.946957 7.7366742 40 8 40C8.3520389 40 8.6924996 39.903755 8.984375 39.738281L8.9863281 39.740234C8.9865234 39.740125 9.077902 39.680635 9.0898438 39.671875C9.1017848 39.663075 9.1083533 39.66007 9.1132812 39.65625C9.1231412 39.64865 9.1273745 39.643032 9.1328125 39.638672C9.1436885 39.629972 9.1538666 39.623221 9.1660156 39.613281C9.1903136 39.593391 9.2228089 39.567033 9.2636719 39.533203C9.3453989 39.465543 9.4619503 39.368886 9.609375 39.246094C9.9042245 39.000509 10.320665 38.651819 10.820312 38.234375C11.819608 37.399487 13.146933 36.289019 14.472656 35.179688C16.765386 33.261187 18.475547 31.828942 19.052734 31.345703C22.673837 35.276098 26.298155 39.209905 29.029297 42.171875C30.431404 43.692484 31.605065 44.964683 32.433594 45.861328C32.847858 46.309651 33.175989 46.664122 33.404297 46.910156C33.518451 47.033173 33.606565 47.129531 33.669922 47.197266C33.701602 47.231136 33.727957 47.256164 33.748047 47.277344C33.768137 47.298514 33.705268 47.248244 33.835938 47.365234L33.837891 47.367188C34.278658 47.759717 34.868088 48 35.5 48C35.870742 48 36.220975 47.911811 36.539062 47.763672L36.542969 47.771484C36.542969 47.771484 38.94805 46.527287 41.388672 45.261719C42.608983 44.628935 43.83808 43.990536 44.78125 43.5C45.252835 43.254732 45.65321 43.04533 45.945312 42.892578C46.237415 42.739826 46.354526 42.681966 46.488281 42.605469C47.392548 42.088102 48 41.107799 48 40L48 10C48 8.9718357 47.475826 8.0522335 46.677734 7.5136719C46.542033 7.421786 46.528131 7.4228766 46.433594 7.3710938C46.339057 7.3193108 46.215907 7.2534306 46.066406 7.1738281C45.767405 7.0146232 45.361831 6.8004611 44.884766 6.5507812C43.930635 6.0514216 42.690851 5.4070926 41.460938 4.7695312C39.001888 3.4948116 36.585512 2.248834 36.583984 2.2480469C36.583984 2.2480469 36.582031 2.2480469 36.582031 2.2480469C36.253185 2.0903793 35.883742 2 35.5 2 z M 35.5 4C35.609499 4 35.698099 4.029176 35.779297 4.0839844C35.91376 4.1749743 36 4.3191943 36 4.5L36 14.533203L24.708984 23.998047C24.121838 23.521433 24.118846 23.51924 23.527344 23.039062C22.419306 22.139551 21.556407 21.438992 20.474609 20.560547C21.080284 19.882553 23.971109 16.64526 27.478516 12.722656C29.407143 10.565724 31.338911 8.4056708 32.792969 6.78125C33.519998 5.9690396 34.128401 5.2918443 34.556641 4.8144531C34.770761 4.5757576 34.938328 4.3869875 35.054688 4.2578125C35.107258 4.1994465 35.146168 4.1557089 35.175781 4.1230469C35.262314 4.0478056 35.369277 4 35.5 4 z M 38 5.2324219C38.922499 5.708658 39.26028 5.8810153 40.541016 6.5449219C41.769728 7.1818606 43.009333 7.8272034 43.958984 8.3242188C44.43381 8.5727263 44.835794 8.7844237 45.126953 8.9394531C45.272533 9.0169681 45.390423 9.0799567 45.472656 9.125C45.554886 9.170043 45.652472 9.2348076 45.556641 9.1699219L45.558594 9.1699219L45.558594 9.171875C45.82446 9.3513164 46 9.6481643 46 10L46 40C46 40.380201 45.795873 40.696507 45.494141 40.869141C45.554901 40.834391 45.307186 40.969646 45.017578 41.121094C44.72797 41.272541 44.330259 41.479706 43.859375 41.724609C42.917607 42.214417 41.686736 42.853737 40.466797 43.486328C39.223798 44.130877 38.910725 44.292152 38 44.763672L38 5.2324219 z M 8.0273438 13.023438C8.0349728 13.029458 8.052793 13.044737 8.0625 13.052734C8.079846 13.067034 8.1016554 13.085485 8.1308594 13.109375C8.1892694 13.157165 8.2734909 13.225006 8.3808594 13.3125C8.5955963 13.487489 8.9044355 13.739482 9.296875 14.058594C10.081754 14.696817 11.195179 15.601544 12.527344 16.683594C15.191673 18.847693 18.732542 21.72208 22.267578 24.591797C29.142259 30.172612 35.626161 35.434911 36 35.738281L36 45.5C36 45.692926 35.89838 45.845862 35.748047 45.929688C35.746285 45.930599 35.678493 45.966404 35.677734 45.966797C35.622626 45.986454 35.564004 46 35.5 46C35.368245 46 35.262126 45.95386 35.173828 45.876953C35.160738 45.863063 35.150269 45.850818 35.130859 45.830078C35.070969 45.766048 34.982356 45.670834 34.869141 45.548828C34.642711 45.304812 34.316124 44.951705 33.902344 44.503906C33.074783 43.608309 31.901877 42.336766 30.5 40.816406C27.696246 37.775688 23.97428 33.737278 20.255859 29.701172C16.537439 25.665065 12.822516 21.631904 10.03125 18.603516C8.6356171 17.089321 7.4710883 15.826397 6.6523438 14.939453C6.298475 14.556108 6.0418574 14.279898 5.8261719 14.046875C5.9171422 14.000447 5.9132376 13.999888 6.0058594 13.953125C6.5228655 13.692098 7.0555254 13.431145 7.4746094 13.244141C7.6841514 13.150641 7.8679728 13.075519 7.9902344 13.03125C8.0059117 13.025573 8.0119865 13.027378 8.0273438 13.023438 z M 4 15.017578C4.056614 15.078398 4.1301917 15.157339 4.2304688 15.265625C4.45149 15.504298 4.7745773 15.851835 5.1835938 16.294922C5.6235836 16.771562 6.3777994 17.590299 7 18.265625L7 32.640625L4.0039062 35.994141C4.0019856 35.997293 4.0017683 36 4 36L4 15.017578 z M 36 17.142578L36 33.162109C34.932707 32.295986 30.961742 29.072459 26.291016 25.28125L36 17.142578 z M 9 20.435547C10.268134 21.811509 11.98519 23.676338 13.519531 25.341797L9 30.400391L9 20.435547 z M 14.880859 26.818359C15.867082 27.888898 16.674491 28.766923 17.695312 29.875C17.07318 30.395866 15.444605 31.75943 13.189453 33.646484C11.863926 34.755652 10.537579 35.864982 9.5390625 36.699219C9.0398041 37.116337 8.6233927 37.464678 8.3300781 37.708984C8.1834208 37.831137 8.0670278 37.926991 7.9882812 37.992188C7.9882812 37.992188 7.9863281 37.994141 7.9863281 37.994141C8.0179269 38.00611 7.6679239 37.842882 7.2832031 37.652344C6.8911706 37.458185 6.3988474 37.213013 5.9179688 36.970703C5.8808696 36.952009 5.8826194 36.952208 5.8457031 36.933594L14.880859 26.818359 z M 8.0097656 37.994141L8.4707031 38.818359L7.9980469 38.001953L8 38C8.0014421 37.999069 8.0097839 37.99413 8.0097656 37.994141 z" />
</svg>