<?xml version="1.0" encoding="utf-8"?>
<svg xmlns="http://www.w3.org/2000/svg" viewBox="0 0 50 50" width="515" height="515">
  <path d="M10 2C5.589844 2 2 5.589844 2 10C2 14.410156 5.589844 18 10 18C14.410156 18 18 14.410156 18 10C18 5.589844 14.410156 2 10 2 Z M 38.90625 11.3125C37.914063 11.3125 37.09375 12.101563 37.09375 13.09375C37.09375 13.492188 37.21875 13.859375 37.4375 14.15625C32.667969 14.910156 29 19.019531 29 24L28.8125 24C28.257813 24 27.8125 24.449219 27.8125 25C27.8125 25.550781 28.257813 26 28.8125 26L49.09375 26C49.644531 26 50.09375 25.550781 50.09375 25C50.09375 24.449219 49.648438 24 49.09375 24L49.03125 24C49.03125 23.929688 49.015625 23.847656 49 23.78125C48.898438 18.839844 45.1875 14.804688 40.40625 14.125C40.609375 13.832031 40.6875 13.476563 40.6875 13.09375C40.6875 12.101563 39.898438 11.3125 38.90625 11.3125 Z M 5 20C4.296875 20 2.121094 20.210938 0.84375 20.40625C0.355469 20.480469 0 20.914063 0 21.40625L0 47C0 47.554688 0.449219 48 1 48L21 48C21.550781 48 22 47.554688 22 47L22 35.15625L24.6875 38.1875C25.464844 39.074219 26.257813 40 27.5 40C28.761719 40 29.410156 39.425781 30.40625 38.09375C30.753906 37.609375 35.007813 32.648438 37.71875 29.5C38.015625 29.207031 39.542969 28.785156 40.5625 28.5C42.058594 28.078125 43.601563 27.640625 44.65625 27L30.5 27L27.65625 29.75L22.03125 21.4375C21.996094 21.386719 21.953125 21.324219 21.90625 21.28125C20.675781 20.050781 15.9375 20 15 20C14.535156 20 14.136719 20.332031 14.03125 20.78125L10 37.6875L5.96875 20.78125C5.863281 20.332031 5.464844 20 5 20Z" />
</svg>