<?xml version="1.0" encoding="utf-8"?>
<svg xmlns="http://www.w3.org/2000/svg" viewBox="0 0 50 50" width="515" height="515">
  <path d="M5.5 0.1875C5.324219 0.1875 5.140625 0.21875 4.96875 0.25L2.3125 0.75C0.769531 1.039063 -0.230469 2.519531 0.0625 4.0625L2.4375 16.75C2.691406 18.09375 3.882813 19.0625 5.25 19.0625C5.425781 19.0625 5.609375 19.0625 5.78125 19.03125L8.40625 18.53125C9.945313 18.242188 10.976563 16.761719 10.6875 15.21875L8.28125 2.53125C8.027344 1.1875 6.867188 0.1875 5.5 0.1875 Z M 44.46875 0.21875C43.132813 0.242188 41.964844 1.207031 41.71875 2.53125L39.34375 15.21875C39.203125 15.964844 39.351563 16.714844 39.78125 17.34375C40.210938 17.972656 40.839844 18.421875 41.59375 18.5625L44.21875 19.03125C44.398438 19.066406 44.574219 19.0625 44.75 19.0625C46.113281 19.0625 47.308594 18.09375 47.5625 16.75L49.9375 4.0625C50.078125 3.316406 49.929688 2.566406 49.5 1.9375C49.070313 1.308594 48.441406 0.863281 47.6875 0.71875L45.0625 0.25C44.867188 0.210938 44.660156 0.214844 44.46875 0.21875 Z M 34.59375 5.03125C33.851563 5.003906 33.292969 5.585938 33.1875 6.3125C33.167969 6.449219 33.144531 6.582031 33.125 6.71875C32.949219 6.707031 32.878906 6.699219 32.6875 6.6875C32.683594 6.6875 32.660156 6.6875 32.65625 6.6875C32.617188 6.683594 32.570313 6.691406 32.53125 6.6875C32.414063 6.679688 32.308594 6.664063 32.1875 6.65625C27.386719 6.386719 22.214844 6.402344 17.40625 6.6875C17.234375 6.691406 17.078125 6.710938 16.90625 6.71875C16.667969 5.0625 15.734375 5.144531 15.34375 5.15625C14.246094 5.191406 14.023438 5.953125 14 6.9375C13.855469 6.953125 13.589844 6.960938 13.5 6.96875C12.886719 7.027344 12.066406 7.125 11.21875 7.21875L11.59375 9.1875C12.375 9.101563 13.121094 9.023438 13.6875 8.96875C13.738281 8.964844 13.957031 8.945313 14.03125 8.9375C14.726563 23.859375 18.726563 25.597656 19.25 26.9375C19.402344 27.769531 20.53125 32.21875 20.53125 32.21875L6.625 46.3125C5.371094 47.1875 5.433594 48.3125 5.78125 49.09375C6.195313 50.023438 7.683594 50.351563 8.78125 49.5625L26.03125 35.53125L34.75 37.15625C34.75 37.15625 33.933594 45.660156 33.8125 46.875C33.691406 48.089844 33.941406 50 35.46875 50C36.847656 50 37.355469 49.515625 37.84375 47.78125C37.84375 47.78125 39.785156 35.980469 39.90625 34.84375C40.035156 33.640625 39.695313 33.261719 38.75 32.875C37.804688 32.488281 31.0625 30.03125 31.0625 30.03125C31.0625 30.03125 31.601563 27.316406 31.6875 25.75C32.972656 23.183594 35.132813 19.769531 36 8.9375C36.175781 8.953125 36.449219 8.988281 36.5625 9C36.929688 9.035156 37.535156 9.105469 38.4375 9.21875L38.8125 7.25C37.972656 7.144531 37.265625 7.050781 36.75 7C36.628906 6.988281 36.328125 6.957031 36.125 6.9375C36.246094 5.824219 35.707031 5.074219 34.59375 5.03125 Z M 24.9375 8.46875C27.476563 8.46875 30.007813 8.542969 32.4375 8.6875C32.621094 8.699219 32.675781 8.707031 32.84375 8.71875C31.773438 16.984375 30.699219 24 25 24C19.292969 24 18.261719 15.671875 17.1875 8.6875C17.253906 8.683594 17.347656 8.691406 17.40625 8.6875C19.847656 8.539063 22.398438 8.46875 24.9375 8.46875 Z M 25 14C22.789063 14 21 15.789063 21 18C21 20.210938 22.789063 22 25 22C27.210938 22 29 20.210938 29 18C29 15.789063 27.210938 14 25 14Z" />
</svg>