<?xml version="1.0" encoding="utf-8"?>
<svg xmlns="http://www.w3.org/2000/svg" viewBox="0 0 50 50" width="515" height="515">
  <path d="M0 4L0 46L50 46L50 4 Z M 5 9L45 9L45 41L5 41 Z M 33 15C30.792969 15 29 16.792969 29 19C29 21.207031 30.792969 23 33 23C35.207031 23 37 21.207031 37 19C37 16.792969 35.207031 15 33 15 Z M 17.03125 16C16.726563 15.992188 16.449219 16.109375 16.25 16.34375L7 27.15625L7 39L43 39L43 29.125L35.375 26.0625C35.113281 25.957031 34.820313 25.96875 34.5625 26.09375L27.3125 29.71875L17.8125 16.40625C17.632813 16.15625 17.339844 16.015625 17.03125 16Z" />
</svg>