<?xml version="1.0" encoding="utf-8"?>
<svg xmlns="http://www.w3.org/2000/svg" viewBox="0 0 50 50" width="515" height="515">
  <path d="M10 9C6.132813 9 3 12.132813 3 16L3 34C3 37.867188 6.132813 41 10 41L40 41C43.867188 41 47 37.867188 47 34L47 16C47 12.132813 43.867188 9 40 9 Z M 10 11L40 11C42.757813 11 45 13.242188 45 16L45 34C45 36.757813 42.757813 39 40 39L10 39C7.242188 39 5 36.757813 5 34L5 16C5 13.242188 7.242188 11 10 11 Z M 25.03125 17C20.410156 17 19.976563 20.902344 20.0625 22.71875L21.96875 22.71875C21.96875 22.199219 22.121094 18.71875 25.03125 18.71875C27.769531 18.71875 28.125 21.160156 28.125 21.59375C28.125 26.4375 19.65625 26.253906 19.65625 33L29.90625 33L29.90625 31.28125L21.78125 31.28125C22.210938 27.734375 30 27.042969 30 21.59375C30 20.816406 29.652344 17 25.03125 17Z" />
</svg>