<?xml version="1.0" encoding="utf-8"?>
<svg xmlns="http://www.w3.org/2000/svg" viewBox="0 0 50 50" width="515" height="515">
  <path d="M10 9C6.132813 9 3 12.132813 3 16L3 34C3 37.867188 6.132813 41 10 41L40 41C43.867188 41 47 37.867188 47 34L47 16C47 12.132813 43.867188 9 40 9 Z M 10 11L40 11C42.757813 11 45 13.242188 45 16L45 34C45 36.757813 42.757813 39 40 39L10 39C7.242188 39 5 36.757813 5 34L5 16C5 13.242188 7.242188 11 10 11 Z M 25.21875 17C20.789063 17 20.398438 21.023438 20.375 22L22.25 22C22.277344 21.324219 22.582031 18.6875 25.21875 18.6875C27.6875 18.6875 28.03125 20.398438 28.03125 21.25C28.03125 21.675781 27.785156 23.8125 25.0625 23.8125L24.28125 23.8125L24.28125 25.4375C24.621094 25.351563 24.980469 25.34375 25.40625 25.34375C25.832031 25.34375 28.71875 25.417969 28.71875 28.3125C28.71875 31.121094 25.738281 31.375 25.3125 31.375C23.804688 31.375 22.054688 30.46875 22 28L20.125 28C20.140625 29.226563 20.511719 33 25.3125 33C26.25 33 30.6875 32.730469 30.6875 28.21875C30.6875 25.410156 28.8125 24.578125 27.875 24.40625L27.875 24.3125C28.472656 23.972656 30 22.941406 30 21.15625C30 20.476563 29.816406 17 25.21875 17Z" />
</svg>