<?xml version="1.0" encoding="utf-8"?>
<svg xmlns="http://www.w3.org/2000/svg" viewBox="0 0 50 50" width="515" height="515">
  <path d="M40 11C42.800781 11 45 13.199219 45 16L45 34C45 36.800781 42.800781 39 40 39L10 39C7.199219 39 5 36.800781 5 34L5 16C5 13.199219 7.199219 11 10 11L40 11 M 40 9L10 9C6.101563 9 3 12.101563 3 16L3 34C3 37.898438 6.101563 41 10 41L40 41C43.898438 41 47 37.898438 47 34L47 16C47 12.101563 43.898438 9 40 9 Z M 23.300781 18.800781L22.398438 23.398438L22.5 23.5C22.800781 23.101563 23.601563 22.398438 25.398438 22.398438C30.199219 22.398438 30.601563 27 30.601563 27.800781C30.601563 32.101563 26.898438 33 25.101563 33C20.898438 33 20 29.699219 20 28.398438L21.800781 28.398438C21.800781 30.300781 23.699219 31.199219 25.199219 31.199219C28.398438 31.199219 28.601563 28.101563 28.601563 27.398438C28.601563 24.199219 25.800781 23.800781 25 23.800781C23.398438 23.800781 22.398438 24.800781 22.101563 25.300781L20.5 25.199219L22 16.898438L29.800781 16.898438L29.800781 18.601563Z" />
</svg>