<?xml version="1.0" encoding="utf-8"?>
<svg xmlns="http://www.w3.org/2000/svg" viewBox="0 0 50 50" width="515" height="515">
  <path d="M10 9C6.132813 9 3 12.132813 3 16L3 34C3 37.867188 6.132813 41 10 41L40 41C43.867188 41 47 37.867188 47 34L47 16C47 12.132813 43.867188 9 40 9 Z M 10 11L40 11C42.757813 11 45 13.242188 45 16L45 34C45 36.757813 42.757813 39 40 39L10 39C7.242188 39 5 36.757813 5 34L5 16C5 13.242188 7.242188 11 10 11 Z M 24.84375 17C21.25 17 20.21875 19.578125 20.21875 21.03125C20.21875 23 21.753906 24.023438 22.4375 24.28125C21.582031 24.625 19.6875 25.566406 19.6875 28.21875C19.6875 30.441406 21.074219 33 25.09375 33C26.632813 33 30.3125 32.238281 30.3125 28.21875C30.3125 25.480469 28.410156 24.539063 27.46875 24.28125C28.066406 24.023438 29.625 23 29.625 21.03125C29.625 20.261719 29.378906 17 24.84375 17 Z M 24.90625 18.71875C27.214844 18.71875 27.5625 20.324219 27.5625 21.09375C27.5625 21.949219 27.140625 23.6875 25 23.6875C22.347656 23.6875 22.1875 21.523438 22.1875 21.09375C22.1875 20.75 22.339844 18.71875 24.90625 18.71875 Z M 25 25.3125C27.566406 25.3125 28.25 27.597656 28.25 28.28125C28.25 29.734375 27.140625 31.375 25 31.375C23.375 31.375 21.65625 30.507813 21.65625 28.28125C21.65625 26.996094 22.519531 25.3125 25 25.3125Z" />
</svg>