<?xml version="1.0" encoding="utf-8"?>
<svg xmlns="http://www.w3.org/2000/svg" viewBox="0 0 50 50" width="515" height="515">
  <path d="M10 9C6.132813 9 3 12.132813 3 16L3 34C3 37.867188 6.132813 41 10 41L40 41C43.867188 41 47 37.867188 47 34L47 16C47 12.132813 43.867188 9 40 9 Z M 10 11L40 11C42.757813 11 45 13.242188 45 16L45 34C45 36.757813 42.757813 39 40 39L10 39C7.242188 39 5 36.757813 5 34L5 16C5 13.242188 7.242188 11 10 11 Z M 24.40625 17C20.128906 17 19.1875 20.414063 19.1875 22.125C19.1875 26.402344 22.273438 27.4375 24.15625 27.4375C26.296875 27.4375 27.5 25.996094 27.84375 25.3125L27.9375 25.375C27.851563 27.429688 27.507813 31.46875 24.34375 31.46875C22.558594 31.46875 21.53125 30.359375 21.4375 29L19.53125 29C19.625 30.960938 20.933594 33 24.34375 33C27.167969 33 29.8125 31.292969 29.8125 24.53125C29.8125 23.078125 29.882813 17 24.40625 17 Z M 24.34375 18.78125C27.335938 18.78125 27.59375 21.859375 27.59375 22.375C27.59375 23.230469 27.082031 25.90625 24.34375 25.90625C23.230469 25.90625 21.25 24.957031 21.25 22.5625C21.25 22.050781 21.351563 18.78125 24.34375 18.78125Z" />
</svg>