<?xml version="1.0" encoding="utf-8"?>
<svg xmlns="http://www.w3.org/2000/svg" viewBox="0 0 50 50" width="515" height="515">
  <path d="M25 1C11.222656 1 0 10.878906 0 23.1875C0 29.234375 2.773438 34.664063 7.21875 38.6875C6.546875 40.761719 5.046875 42.398438 3.53125 43.65625C2.714844 44.332031 1.933594 44.910156 1.3125 45.46875C1.003906 45.746094 0.722656 46.027344 0.5 46.375C0.277344 46.722656 0.078125 47.21875 0.21875 47.75L0.34375 48.15625L0.6875 48.375C1.976563 49.117188 3.582031 49.246094 5.3125 49.125C7.042969 49.003906 8.929688 48.605469 10.78125 48.09375C14.375 47.101563 17.75 45.6875 19.53125 44.90625C21.289063 45.273438 23.054688 45.5 24.90625 45.5C38.683594 45.5 49.90625 35.621094 49.90625 23.3125C49.90625 11.007813 38.78125 1 25 1 Z M 25 3C37.820313 3 47.90625 12.214844 47.90625 23.3125C47.90625 34.402344 37.730469 43.5 24.90625 43.5C23.078125 43.5 21.355469 43.320313 19.625 42.9375L19.28125 42.84375L19 43C17.328125 43.738281 13.792969 45.179688 10.25 46.15625C8.476563 46.644531 6.710938 47.019531 5.1875 47.125C4.167969 47.195313 3.539063 46.953125 2.84375 46.78125C3.339844 46.355469 4.019531 45.847656 4.8125 45.1875C6.554688 43.742188 8.644531 41.730469 9.375 38.75L9.53125 38.125L9.03125 37.75C4.625 34.015625 2 28.875 2 23.1875C2 12.097656 12.175781 3 25 3 Z M 23.8125 12.8125C23.511719 12.8125 23.40625 12.988281 23.40625 13.1875L23.40625 15.8125C23.40625 16.113281 23.613281 16.1875 23.8125 16.1875L26.1875 16.1875C26.488281 16.1875 26.59375 16.011719 26.59375 15.8125L26.59375 13.1875C26.59375 12.886719 26.386719 12.8125 26.1875 12.8125 Z M 23.90625 20.09375C23.605469 20.09375 23.5 20.300781 23.5 20.5L23.5 33.90625C23.5 34.207031 23.707031 34.3125 23.90625 34.3125L23.90625 34.40625L26.1875 34.40625C26.488281 34.40625 26.59375 34.199219 26.59375 34L26.59375 20.5C26.59375 20.199219 26.386719 20.09375 26.1875 20.09375Z" />
</svg>