<?xml version="1.0" encoding="utf-8"?>
<svg xmlns="http://www.w3.org/2000/svg" width="515" height="515" viewBox="0 0 50 50">
  <path d="M25.001953 1 A 1.0001 1.0001 0 0 0 24.066406 1.640625L17.898438 17.638672L0.94335938 18.601562 A 1.0001 1.0001 0 0 0 0.3671875 20.375L13.564453 31.162109L9.0351562 47.736328 A 1.0001 1.0001 0 0 0 10.542969 48.839844L25 39.490234L39.457031 48.839844 A 1.0001 1.0001 0 0 0 40.964844 47.736328L36.435547 31.162109L49.632812 20.375 A 1.0001 1.0001 0 0 0 49.056641 18.601562L32.101562 17.638672L25.933594 1.640625 A 1.0001 1.0001 0 0 0 25.001953 1 z M 25 4.78125L30.466797 18.958984 A 1.0001 1.0001 0 0 0 31.34375 19.597656L46.378906 20.451172L34.667969 30.025391 A 1.0001 1.0001 0 0 0 34.335938 31.064453L38.345703 45.738281L25.542969 37.460938 A 1.0001 1.0001 0 0 0 24.457031 37.460938L11.654297 45.738281L15.664062 31.064453 A 1.0001 1.0001 0 0 0 15.332031 30.025391L3.6210938 20.451172L18.65625 19.597656 A 1.0001 1.0001 0 0 0 19.533203 18.958984L25 4.78125 z M 24 20L24 26L18 26L18 28L24 28L24 34L26 34L26 28L32 28L32 26L26 26L26 20L24 20 z" />
</svg>