<?xml version="1.0" encoding="utf-8"?>
<svg xmlns="http://www.w3.org/2000/svg" viewBox="0 0 50 50" width="515" height="515">
  <path d="M37 4C34.596 4 32.336719 4.9367188 30.636719 6.6367188L25.636719 11.636719C24.191719 13.081719 23.2985 14.930688 23.0625 16.929688C23.0215 17.281688 23 17.64 23 18C23 19.368 23.313672 20.686766 23.888672 21.884766L25.414062 20.357422C25.147062 19.609422 25 18.817 25 18C25 16.13 25.728781 14.373781 27.050781 13.050781L32.050781 8.0507812C33.373781 6.7287812 35.13 6 37 6C38.87 6 40.626219 6.7287812 41.949219 8.0507812C43.272219 9.3727813 44 11.13 44 13C44 14.87 43.271219 16.626219 41.949219 17.949219L36.949219 22.949219C35.626219 24.271219 33.87 25 32 25C31.183 25 30.390578 24.852938 29.642578 24.585938L28.115234 26.111328C29.313234 26.686328 30.632 27 32 27C34.404 27 36.663281 26.063281 38.363281 24.363281L43.363281 19.363281C45.063281 17.663281 46 15.404 46 13C46 10.596 45.063281 8.3367187 43.363281 6.6367188C41.663281 4.9367187 39.404 4 37 4 z M 30.980469 17.990234 A 1.0001 1.0001 0 0 0 30.292969 18.292969L18.292969 30.292969 A 1.0001 1.0001 0 1 0 19.707031 31.707031L31.707031 19.707031 A 1.0001 1.0001 0 0 0 30.980469 17.990234 z M 18 23C15.596 23 13.336719 23.936719 11.636719 25.636719L6.6367188 30.636719C5.0727187 32.199719 4.1545781 34.236828 4.0175781 36.423828C4.0055781 36.614828 4 36.807 4 37C4 39.404 4.9367188 41.663281 6.6367188 43.363281C8.3367187 45.063281 10.596 46 13 46C15.404 46 17.663281 45.063281 19.363281 43.363281L24.363281 38.363281C26.063281 36.663281 27 34.404 27 32C27 30.632 26.686328 29.313234 26.111328 28.115234L24.585938 29.642578C24.852938 30.390578 25 31.183 25 32C25 33.87 24.271219 35.626219 22.949219 36.949219L17.949219 41.949219C16.626219 43.271219 14.87 44 13 44C11.13 44 9.3737813 43.271219 8.0507812 41.949219C6.7277812 40.627219 6 38.87 6 37C6 35.13 6.7287812 33.373781 8.0507812 32.050781L13.050781 27.050781C14.373781 25.728781 16.13 25 18 25C18.817 25 19.609422 25.147062 20.357422 25.414062L21.884766 23.888672C20.686766 23.313672 19.368 23 18 23 z M 40 30C34.488997 30 30 34.488997 30 40C30 45.511003 34.488997 50 40 50C45.511003 50 50 45.511003 50 40C50 34.488997 45.511003 30 40 30 z M 40 32C44.430123 32 48 35.569877 48 40C48 44.430123 44.430123 48 40 48C35.569877 48 32 44.430123 32 40C32 35.569877 35.569877 32 40 32 z M 39.984375 33.986328 A 1.0001 1.0001 0 0 0 39 35L39 39L35 39 A 1.0001 1.0001 0 1 0 35 41L39 41L39 45 A 1.0001 1.0001 0 1 0 41 45L41 41L45 41 A 1.0001 1.0001 0 1 0 45 39L41 39L41 35 A 1.0001 1.0001 0 0 0 39.984375 33.986328 z" />
</svg>