<?xml version="1.0" encoding="utf-8"?>
<svg xmlns="http://www.w3.org/2000/svg" viewBox="0 0 50 50" width="515" height="515">
  <path d="M7.984375 1.9863281 A 1.0001 1.0001 0 0 0 7 3L7 10L5 10C3.3545455 10 2 11.354545 2 13L2 15C2 16.645455 3.3545455 18 5 18L11 18C12.645455 18 14 16.645455 14 15L14 13C14 11.354545 12.645455 10 11 10L9 10L9 3 A 1.0001 1.0001 0 0 0 7.984375 1.9863281 z M 24.984375 1.9863281 A 1.0001 1.0001 0 0 0 24 3L24 31L22 31C20.354545 31 19 32.354545 19 34L19 36C19 37.645455 20.354545 39 22 39L28 39C29.645455 39 31 37.645455 31 36L31 34C31 32.354545 29.645455 31 28 31L26 31L26 3 A 1.0001 1.0001 0 0 0 24.984375 1.9863281 z M 41.984375 1.9863281 A 1.0001 1.0001 0 0 0 41 3L41 13L39 13C37.354545 13 36 14.354545 36 16L36 18C36 19.645455 37.354545 21 39 21L45 21C46.645455 21 48 19.645455 48 18L48 16C48 14.354545 46.645455 13 45 13L43 13L43 3 A 1.0001 1.0001 0 0 0 41.984375 1.9863281 z M 5 12L7.8320312 12 A 1.0001 1.0001 0 0 0 8.1582031 12L11 12C11.554545 12 12 12.445455 12 13L12 15C12 15.554545 11.554545 16 11 16L5 16C4.4454545 16 4 15.554545 4 15L4 13C4 12.445455 4.4454545 12 5 12 z M 39 15L41.832031 15 A 1.0001 1.0001 0 0 0 42.158203 15L45 15C45.554545 15 46 15.445455 46 16L46 18C46 18.554545 45.554545 19 45 19L39 19C38.445455 19 38 18.554545 38 18L38 16C38 15.445455 38.445455 15 39 15 z M 7 19L7 26L7 40L7 47 A 1.0001 1.0001 0 1 0 9 47L9 40L9 26L9 19L7 19 z M 41 22L41 43L41 47 A 1.0001 1.0001 0 1 0 43 47L43 29L43 22L41 22 z M 22 33L24.832031 33 A 1.0001 1.0001 0 0 0 25.158203 33L28 33C28.554545 33 29 33.445455 29 34L29 36C29 36.554545 28.554545 37 28 37L22 37C21.445455 37 21 36.554545 21 36L21 34C21 33.445455 21.445455 33 22 33 z M 24 40L24 42L24 44L24 47 A 1.0001 1.0001 0 1 0 26 47L26 44L26 42L26 40L24 40 z" />
</svg>