<?xml version="1.0" encoding="utf-8"?>
<svg xmlns="http://www.w3.org/2000/svg" viewBox="0 0 50 50" width="515" height="515">
  <path d="M20.09375 0C19.644531 0.0507813 19.285156 0.398438 19.21875 0.84375L18.25 6.8125C17.082031 7.152344 15.957031 7.585938 14.90625 8.15625L10 4.65625C9.605469 4.371094 9.066406 4.414063 8.71875 4.75L4.8125 8.65625C4.476563 9.003906 4.433594 9.542969 4.71875 9.9375L8.15625 14.875C7.574219 15.941406 7.097656 17.058594 6.75 18.25L0.84375 19.21875C0.351563 19.296875 -0.0078125 19.722656 0 20.21875L0 25.71875C0.0078125 26.195313 0.347656 26.597656 0.8125 26.6875L6.78125 27.75C7.128906 28.925781 7.578125 30.039063 8.15625 31.09375L4.65625 36C4.371094 36.394531 4.414063 36.933594 4.75 37.28125L8.65625 41.1875C9.003906 41.523438 9.542969 41.566406 9.9375 41.28125L14.84375 37.8125C15.90625 38.394531 17.035156 38.839844 18.21875 39.1875L19.21875 45.15625C19.296875 45.648438 19.722656 46.007813 20.21875 46L25.71875 46C25.816406 45.992188 25.910156 45.972656 26 45.9375L26 49C26 49.550781 26.449219 50 27 50L49 50C49.550781 50 50 49.550781 50 49L50 33C50 32.96875 50 32.9375 50 32.90625L50 31.84375C50 30.285156 48.714844 29 47.15625 29L38.78125 29C38.933594 28.585938 39.089844 28.152344 39.21875 27.75L45.15625 26.6875C45.636719 26.613281 45.992188 26.203125 46 25.71875L46 20.21875C46.007813 19.722656 45.648438 19.296875 45.15625 19.21875L39.15625 18.25C38.8125 17.09375 38.347656 15.980469 37.78125 14.9375L41.28125 9.9375C41.566406 9.542969 41.523438 9.003906 41.1875 8.65625L37.28125 4.75C36.933594 4.414063 36.394531 4.371094 36 4.65625L31.09375 8.1875C30.042969 7.609375 28.925781 7.160156 27.75 6.8125L26.6875 0.8125C26.597656 0.347656 26.195313 0.0078125 25.71875 0L20.21875 0C20.175781 -0.00390625 20.136719 -0.00390625 20.09375 0 Z M 21.0625 2L24.875 2L25.875 7.6875C25.945313 8.0625 26.222656 8.367188 26.59375 8.46875C28.054688 8.832031 29.433594 9.429688 30.6875 10.1875C31.027344 10.394531 31.457031 10.382813 31.78125 10.15625L36.46875 6.78125L39.15625 9.46875L35.84375 14.21875C35.605469 14.539063 35.582031 14.96875 35.78125 15.3125C36.53125 16.5625 37.105469 17.917969 37.46875 19.375C37.5625 19.765625 37.882813 20.0625 38.28125 20.125L44 21.0625L44 24.875L38.28125 25.875C37.882813 25.9375 37.5625 26.234375 37.46875 26.625C37.351563 27.101563 36.96875 28.160156 36.65625 29L28.84375 29C28.824219 29 28.800781 29 28.78125 29C30.359375 27.480469 31.34375 25.351563 31.34375 23C31.34375 18.410156 27.589844 14.65625 23 14.65625C18.410156 14.65625 14.65625 18.410156 14.65625 23C14.65625 27.589844 18.410156 31.34375 23 31.34375C24.148438 31.34375 25.253906 31.109375 26.25 30.6875C26.089844 31.042969 26 31.429688 26 31.84375L26 32.8125C25.996094 32.855469 25.996094 32.894531 26 32.9375L26 38.46875L24.875 44L21.0625 44L20.125 38.34375C20.0625 37.945313 19.765625 37.625 19.375 37.53125C17.910156 37.171875 16.511719 36.601563 15.25 35.84375C14.910156 35.636719 14.480469 35.648438 14.15625 35.875L9.46875 39.15625L6.78125 36.46875L10.09375 31.8125C10.320313 31.488281 10.332031 31.058594 10.125 30.71875C9.359375 29.453125 8.800781 28.09375 8.4375 26.625C8.34375 26.234375 8.023438 25.9375 7.625 25.875L2 24.875L2 21.0625L7.625 20.125C8.023438 20.0625 8.34375 19.765625 8.4375 19.375C8.804688 17.898438 9.394531 16.515625 10.15625 15.25C10.363281 14.910156 10.351563 14.480469 10.125 14.15625L6.8125 9.46875L9.53125 6.78125L14.1875 10.09375C14.507813 10.332031 14.9375 10.355469 15.28125 10.15625C16.535156 9.402344 17.910156 8.828125 19.375 8.46875C19.765625 8.375 20.0625 8.054688 20.125 7.65625 Z M 23 16.65625C26.507813 16.65625 29.34375 19.492188 29.34375 23C29.34375 26.507813 26.507813 29.34375 23 29.34375C19.492188 29.34375 16.65625 26.507813 16.65625 23C16.65625 19.492188 19.492188 16.65625 23 16.65625 Z M 28.84375 31L37.0625 31C37.253906 31.058594 37.464844 31.058594 37.65625 31L47.15625 31C47.636719 31 48 31.363281 48 31.84375L48 32L28 32L28 31.84375C28 31.363281 28.363281 31 28.84375 31 Z M 28 34L48 34L48 48L28 48L28 38.59375C28.042969 38.429688 28.042969 38.257813 28 38.09375 Z M 37 34.59375L36.28125 35.28125L32.9375 38.625L31.65625 37.53125L30.90625 36.875L29.59375 38.40625L30.34375 39.03125L32.34375 40.75L33.0625 41.375L37.71875 36.71875L38.40625 36 Z M 37 39.59375L36.28125 40.28125L32.9375 43.625L31.65625 42.53125L30.90625 41.875L29.59375 43.40625L30.34375 44.03125L32.34375 45.75L33.0625 46.375L37.71875 41.71875L38.40625 41Z" />
</svg>