<?xml version="1.0" encoding="utf-8"?>
<svg xmlns="http://www.w3.org/2000/svg" viewBox="0 0 50 50" width="515" height="515">
  <path d="M6 4C5.4777778 4 4.9453899 4.1913289 4.5683594 4.5683594C4.1913289 4.9453899 4 5.4777778 4 6L4 44C4 44.522222 4.1913289 45.05461 4.5683594 45.431641C4.9453899 45.808671 5.4777778 46 6 46L44 46C44.522222 46 45.05461 45.808671 45.431641 45.431641C45.808671 45.05461 46 44.522222 46 44L46 6C46 5.4777778 45.808671 4.9453899 45.431641 4.5683594C45.05461 4.1913289 44.522222 4 44 4L6 4 z M 6 6L44 6L44 44L6 44L6 6 z M 17.900391 14L13 36L15.400391 36L16.800781 29.599609L21.599609 29.599609L23 36L25.400391 36L20.599609 14L17.900391 14 z M 19.199219 16.5L19.300781 16.5C19.600781 18.1 19.899219 19.900391 20.199219 21.400391L21.300781 27L17.199219 27L18.300781 21.5C18.600781 20 18.899219 18.1 19.199219 16.5 z M 32.5 20C28.2 20 27 24.5 27 27C27 27.6 26.700391 31.699609 28.900391 34.099609C30.000391 35.399609 31.500391 36 33.400391 36C35.400391 36 37.400391 35.1 37.400391 35L36.5 33.199219C36.5 33.199219 34.900391 34 33.400391 34C32.100391 34 31.100391 33.600781 30.400391 32.800781C29.200391 31.500781 29 29.299609 29 28.099609L38 28.099609L38 27.099609C38 24.599609 36.8 20 32.5 20 z M 32.5 22C35 22 35.700391 24.599609 35.900391 26.099609L29.099609 26.099609C29.299609 24.599609 30 22 32.5 22 z" />
</svg>