<?xml version="1.0" encoding="utf-8"?>
<svg xmlns="http://www.w3.org/2000/svg" viewBox="0 0 523 523" width="515" height="515">
  <path d="M376.49023 146.33398 A 10.461046 10.461046 0 0 0 369.20312 164.29688L455.94531 251.03906L180.59961 251.03906L170.14062 251.03906L170.14062 271.96094L180.59961 271.96094L455.94531 271.96094L369.20312 358.70312 A 10.461046 10.461046 0 1 0 383.99609 373.49609L488.5957 268.89648 A 10.461046 10.461046 0 0 0 488.5957 254.10352L383.99609 149.50391 A 10.461046 10.461046 0 0 0 376.49023 146.33398 z M 0 251L0 272L20.900391 272L20.900391 251L0 251 z M 41.800781 251L41.800781 272L62.699219 272L62.699219 251L41.800781 251 z M 83.699219 251L83.699219 272L104.59961 272L104.59961 251L83.699219 251 z M 125.5 251L125.5 272L146.40039 272L146.40039 251L125.5 251 z" />
</svg>