<?xml version="1.0" encoding="utf-8"?>
<svg xmlns="http://www.w3.org/2000/svg" viewBox="0 0 50 50" width="515" height="515">
  <path d="M2.046875 5C1.773438 4.988281 1.507813 5.085938 1.308594 5.277344C1.109375 5.464844 1 5.726563 1 6L1 41.691406C1 42.140625 1.300781 42.535156 1.734375 42.65625L13.734375 45.964844C13.90625 46.011719 14.089844 46.011719 14.265625 45.964844L25.011719 43.03125L36.757813 45.96875C36.933594 46.015625 37.113281 46.007813 37.285156 45.957031L48.285156 42.652344C48.710938 42.523438 49 42.132813 49 41.691406L49 6.003906C49 6.003906 49 6 49 6C49 5.449219 48.550781 5 48 5C47.910156 5 47.820313 5.011719 47.734375 5.039063L47.734375 5.035156L47.703125 5.046875L36.988281 7.96875L25.242188 5.03125C25.074219 4.988281 24.902344 4.988281 24.734375 5.035156L13.988281 7.96875L2.242188 5.03125C2.175781 5.011719 2.113281 5.003906 2.046875 5 Z M 25.011719 7.03125L36.757813 9.96875C36.925781 10.011719 37.097656 10.011719 37.265625 9.964844L47 7.308594L47 40.949219L36.972656 43.964844L25.242188 41.03125C25.074219 40.988281 24.902344 40.988281 24.734375 41.035156L14 43.964844L3 40.929688L3 7.28125L13.757813 9.96875C13.925781 10.011719 14.097656 10.011719 14.265625 9.964844 Z M 15.972656 16.558594L15.625 16.605469L15.027344 16.796875L14.96875 16.816406L14.910156 16.84375L14.574219 17L14.015625 17.699219L14.246094 18.566406L15.078125 18.902344L15.417969 18.8125L15.699219 18.683594L16.238281 18.507813L16.875 17.878906L16.757813 16.992188 Z M 20.1875 16.679688L19.296875 16.789063L18.851563 17.5625L19.203125 18.390625L19.476563 18.542969L19.484375 18.546875L19.511719 18.5625L19.527344 18.566406L20.027344 18.820313L20.183594 18.921875L21.074219 19.027344L21.6875 18.375L21.535156 17.492188L21.28125 17.25L21.074219 17.113281L21.027344 17.082031L20.976563 17.058594L20.375 16.757813L20.324219 16.730469L20.265625 16.707031 Z M 12.347656 19.519531L11.453125 19.578125L11.1875 19.808594L11.011719 20.019531L10.992188 20.046875L10.550781 20.660156L10.410156 21.546875L11.035156 22.1875L11.921875 22.074219L12.175781 21.828125L12.597656 21.238281L12.734375 21.078125L12.929688 20.203125 Z M 23.578125 19.890625L22.765625 20.273438L22.585938 21.152344L22.734375 21.46875L23.277344 22.234375L23.304688 22.277344L23.324219 22.261719L24.042969 22.703125L24.875 22.375L25.109375 21.511719L24.980469 21.183594L24.96875 21.171875L24.953125 21.144531L24.9375 21.121094L24.367188 20.3125 Z M 9.539063 23.742188L8.695313 24.042969L8.5 24.339844L8.101563 25.253906L8.152344 26.152344L8.898438 26.644531L9.742188 26.34375L9.9375 26.046875L10.335938 25.128906L10.285156 24.234375 Z M 26.230469 24.078125L25.453125 24.523438L25.34375 25.414063L25.519531 25.71875L26.160156 26.484375L26.984375 26.839844L27.761719 26.390625L27.871094 25.503906L27.691406 25.199219L27.050781 24.433594 Z M 43 25.988281C42.707031 25.992188 42.429688 26.121094 42.238281 26.347656L40 28.964844L37.761719 26.347656C37.5625 26.113281 37.273438 25.984375 36.96875 25.988281C36.578125 26 36.230469 26.234375 36.074219 26.589844C35.917969 26.945313 35.984375 27.359375 36.238281 27.652344L38.683594 30.5L36.238281 33.347656C35.882813 33.769531 35.929688 34.402344 36.347656 34.761719C36.769531 35.117188 37.402344 35.070313 37.761719 34.652344L40 32.035156L42.238281 34.652344C42.597656 35.070313 43.230469 35.117188 43.652344 34.761719C44.070313 34.402344 44.117188 33.769531 43.761719 33.347656L41.316406 30.5L43.761719 27.652344C44.019531 27.355469 44.082031 26.933594 43.921875 26.574219C43.757813 26.214844 43.398438 25.984375 43 25.988281 Z M 29.519531 27.601563L28.910156 28.253906L29.066406 29.136719L29.328125 29.378906L30.167969 29.921875L31.058594 30.019531L31.667969 29.363281L31.511719 28.484375L31.25 28.242188L30.410156 27.699219 Z M 34.546875 29.621094L33.6875 29.878906L33.382813 30.722656L33.875 31.46875L34.203125 31.59375L34.53125 31.648438L34.589844 31.65625L34.644531 31.660156L35.308594 31.703125L36.128906 31.351563L36.34375 30.480469L35.773438 29.792969L35.429688 29.707031L34.816406 29.671875Z" />
</svg>