<?xml version="1.0" encoding="utf-8"?>
<svg xmlns="http://www.w3.org/2000/svg" viewBox="0 0 50 50" width="515" height="515">
  <path d="M11 1C9.300781 1 8 2.300781 8 4L8 15.5C5.269531 14.65625 2.691406 14 1 14L1 16C2.605469 16 5.25 16.730469 8 17.59375L8 23.5C5.269531 22.65625 2.691406 22 1 22L1 24C2.605469 24 5.25 24.730469 8 25.59375L8 31.5C5.269531 30.65625 2.691406 30 1 30L1 32C2.605469 32 5.25 32.730469 8 33.59375L8 46C8 47.699219 9.300781 49 11 49L39 49C40.699219 49 42 47.699219 42 46L42 36.59375L40 36L40 46C40 46.601563 39.601563 47 39 47L11 47C10.398438 47 10 46.601563 10 46L10 4C10 3.398438 10.398438 3 11 3L39 3C39.601563 3 40 3.398438 40 4L40 15.84375C36.910156 14.851563 34.023438 14 32 14C29.800781 14 27.101563 15.09375 24.5 16.09375C22.101563 16.992188 19.699219 18 18 18C16.601563 18 14.398438 17.386719 12 16.6875L12 18.8125C14.398438 19.511719 16.5 20 18 20C20.101563 20 22.585938 19 25.1875 18C27.585938 17 30.101563 16 32 16C33.898438 16 37.085938 17 40.1875 18C43.585938 19 46.800781 20 49 20L49 18C47.429688 18 44.722656 17.230469 42 16.4375L42 4C42 2.300781 40.699219 1 39 1 Z M 32 22C29.800781 22 27.101563 23.09375 24.5 24.09375C22.101563 24.992188 19.699219 26 18 26C16.601563 26 14.398438 25.386719 12 24.6875L12 26.8125C14.398438 27.511719 16.5 28 18 28C20.101563 28 22.585938 27 25.1875 26C27.585938 25 30.101563 24 32 24C33.898438 24 37.085938 25 40.1875 26C43.585938 27 46.800781 28 49 28L49 26C47.199219 26 43.914063 24.992188 40.8125 24.09375C37.414063 22.992188 34.199219 22 32 22 Z M 32 30C29.800781 30 27.101563 31.09375 24.5 32.09375C22.101563 32.992188 19.699219 34 18 34C16.601563 34 14.398438 33.386719 12 32.6875L12 34.8125C14.398438 35.511719 16.5 36 18 36C20.101563 36 22.585938 35 25.1875 34C27.585938 33 30.101563 32 32 32C34.398438 32 37.386719 33.101563 40.1875 34C43.585938 35 46.800781 36 49 36L49 34C47.199219 34 43.914063 32.992188 40.8125 32.09375C37.414063 30.992188 34.199219 30 32 30Z" />
</svg>