<?xml version="1.0" encoding="utf-8"?>
<svg xmlns="http://www.w3.org/2000/svg" viewBox="0 0 50 50" width="515" height="515">
  <path d="M25 3C23.90625 3 23 3.90625 23 5C23 5.730469 23.40625 6.367188 24 6.71875L24 12.445313L16.714844 17L9.648438 17L10.046875 18.296875L14.261719 32L17.382813 32L18.550781 34.34375C18.867188 34.96875 19.382813 35.449219 20 35.730469L20 48L22 48L22 36L28 36L28 48L30 48L30 35.730469C30.617188 35.449219 31.132813 34.96875 31.449219 34.34375L32.617188 32L35.738281 32L40.355469 17L33.285156 17L26 12.449219L26 6.71875C26.59375 6.367188 27 5.730469 27 5C27 3.90625 26.09375 3 25 3 Z M 25 14.179688L29.515625 17L20.484375 17 Z M 12.355469 19L24 19L24 30L15.738281 30 Z M 26 19L37.644531 19L34.261719 30L26 30 Z M 19.617188 32L30.382813 32L29.65625 33.449219C29.488281 33.789063 29.144531 34 28.765625 34L21.234375 34C20.855469 34 20.511719 33.789063 20.34375 33.449219Z" />
</svg>