<?xml version="1.0" encoding="utf-8"?>
<svg xmlns="http://www.w3.org/2000/svg" viewBox="0 0 50 50" width="515" height="515">
  <path d="M26.5 1C22.882813 1 19.808594 3.269531 18.5625 6.4375C18.363281 6.957031 18.621094 7.535156 19.140625 7.734375C19.660156 7.933594 20.238281 7.675781 20.4375 7.15625C21.394531 4.722656 23.714844 3 26.5 3C30.046875 3 33 5.953125 33 9.5C33 13.046875 30.046875 16 26.5 16L1 16C0.96875 16 0.9375 16 0.90625 16C0.355469 16.027344 -0.0742188 16.496094 -0.046875 17.046875C-0.0195313 17.597656 0.449219 18.027344 1 18L26.5 18C31.152344 18 35 14.152344 35 9.5C35 4.847656 31.152344 1 26.5 1 Z M 0.8125 24C0.261719 24.050781 -0.144531 24.542969 -0.09375 25.09375C-0.0429688 25.644531 0.449219 26.050781 1 26L39.40625 26C39.4375 26 39.46875 26 39.5 26C44.214844 26.050781 48 29.867188 48 34.59375C48 39.351563 44.179688 43.007813 39.375 43.1875C35.695313 43.277344 32.710938 41.105469 31.4375 37.5625C31.328125 37.207031 31.035156 36.941406 30.671875 36.871094C30.304688 36.800781 29.933594 36.9375 29.703125 37.226563C29.46875 37.515625 29.414063 37.910156 29.5625 38.25C31.089844 42.507813 34.917969 45.296875 39.4375 45.1875C45.230469 44.96875 50 40.433594 50 34.59375C50 28.847656 45.398438 24.179688 39.6875 24.03125C39.65625 24.019531 39.625 24.007813 39.59375 24C39.550781 24 39.511719 24 39.46875 24C39.449219 24 39.425781 24 39.40625 24L1 24C0.96875 24 0.9375 24 0.90625 24C0.875 24 0.84375 24 0.8125 24 Z M 0.8125 31C0.261719 31.050781 -0.144531 31.542969 -0.09375 32.09375C-0.0429688 32.644531 0.449219 33.050781 1 33L14.5 33C14.53125 33 14.5625 33 14.59375 33C18.097656 33.050781 21 35.984375 21 39.5C21 43.046875 18.046875 46 14.5 46C11.96875 46 9.8125 44.625 8.78125 42.5625C8.65625 42.195313 8.328125 41.9375 7.945313 41.894531C7.558594 41.851563 7.183594 42.035156 6.980469 42.367188C6.78125 42.695313 6.789063 43.113281 7 43.4375C8.367188 46.175781 11.230469 48 14.5 48C19.152344 48 23 44.152344 23 39.5C23 34.910156 19.257813 31.101563 14.6875 31C14.644531 31 14.605469 31 14.5625 31C14.542969 31 14.519531 31 14.5 31L1 31C0.96875 31 0.9375 31 0.90625 31C0.875 31 0.84375 31 0.8125 31Z" />
</svg>