<?xml version="1.0" encoding="utf-8"?>
<svg xmlns="http://www.w3.org/2000/svg" viewBox="0 0 50 50" width="515" height="515">
  <path d="M11.544922 2.0058594C9.1595357 2.1076106 6.7865443 3.0709309 4.90625 4.8789062L4.9003906 4.8867188L4.8925781 4.8925781C2.0972151 7.6879412 1.3120074 11.667629 2.5 15.158203L2.5 17.599609L17.628906 2.5996094L15.28125 2.5996094C15.244067 2.5817119 15.210971 2.5637912 15.173828 2.546875L15.234375 2.5566406C14.370387 2.2500639 13.472764 2.0706937 12.566406 2.015625C12.226522 1.9949742 11.885691 1.9913235 11.544922 2.0058594 z M 38.337891 2.0292969C37.989184 2.0207379 37.639451 2.0292925 37.291016 2.0566406C36.460462 2.121829 35.64084 2.3265627 34.839844 2.5996094L32.386719 2.5996094L47.400391 17.613281L47.400391 15.28125C47.418679 15.243254 47.437907 15.210191 47.455078 15.171875L47.445312 15.224609C47.45394 15.19951 47.45837 15.17163 47.466797 15.146484C47.467098 15.145658 47.466499 15.143414 47.466797 15.142578C48.644703 11.621097 47.855182 7.6500925 45.121094 4.8066406L45.099609 4.7851562L45.078125 4.765625C43.190587 3.0232892 40.77884 2.0892094 38.337891 2.0292969 z M 11.630859 4.0019531C11.9022 3.9907628 12.173073 3.9929398 12.443359 4.0097656C12.703639 4.0259686 12.951654 4.123926 13.208984 4.1660156L4.09375 13.205078C3.7033322 10.776904 4.3882268 8.2315068 6.3007812 6.3144531C7.8320293 4.8454664 9.7314773 4.0802852 11.630859 4.0019531 z M 38.283203 4.0292969C40.235582 4.0773768 42.172994 4.8226961 43.695312 6.2167969C45.575483 8.185067 46.235713 10.744063 45.828125 13.210938L36.808594 4.1933594C37.024036 4.1589014 37.230204 4.0677539 37.447266 4.0507812C37.725648 4.0290128 38.004292 4.0224283 38.283203 4.0292969 z M 25 6C13.413858 6 4 15.413866 4 27C4 32.687393 6.2865848 37.835179 9.9667969 41.619141L5.2929688 46.292969 A 1.0001 1.0001 0 1 0 6.7070312 47.707031L11.476562 42.9375C15.140095 46.050406 19.823095 48 25 48C30.176905 48 34.859906 46.050406 38.523438 42.9375L43.292969 47.707031 A 1.0001 1.0001 0 1 0 44.707031 46.292969L40.033203 41.619141C43.713415 37.835179 46 32.687393 46 27C46 15.413866 36.586142 6 25 6 z M 25 8C35.505263 8 44 16.494744 44 27C44 37.505256 35.505263 46 25 46C14.494737 46 6 37.505256 6 27C6 16.494744 14.494737 8 25 8 z M 15.089844 16.089844 A 1.0001 1.0001 0 0 0 14.392578 17.806641L22.585938 26L17 26 A 1.0001 1.0001 0 1 0 17 28L24.873047 28 A 1.0001 1.0001 0 0 0 25.923828 27.414062 A 1.0001 1.0001 0 0 0 25.974609 27.277344 A 1.0001 1.0001 0 0 0 25.623047 26.207031 A 1.0001 1.0001 0 0 0 25.617188 26.203125L15.806641 16.392578 A 1.0001 1.0001 0 0 0 15.089844 16.089844 z" />
</svg>