<?xml version="1.0" encoding="utf-8"?>
<svg xmlns="http://www.w3.org/2000/svg" viewBox="0 0 50 50" width="515" height="515">
  <path d="M16.40625 1.21875C16.195313 1.25 15.996094 1.347656 15.84375 1.5C15.148438 2.160156 13.976563 3.519531 12.90625 4.78125C11.964844 5.890625 11.34375 6.648438 11.15625 6.875C11.125 6.894531 11.09375 6.914063 11.0625 6.9375C11.0625 6.9375 5.527344 12.214844 3.21875 17.46875C3.007813 17.945313 3.199219 18.5 3.65625 18.75C5.339844 19.675781 7.28125 20.8125 9.15625 22.21875C5.816406 23.683594 2.449219 26.726563 0.15625 30.375C-0.0507813 30.714844 -0.0390625 31.144531 0.1875 31.46875C1.691406 33.640625 4.96875 39 4.96875 39C5.136719 39.265625 5.421875 39.4375 5.734375 39.460938C6.046875 39.484375 6.355469 39.359375 6.5625 39.125C6.5625 39.125 7.53125 38.308594 8 37.84375C8 37.871094 8 37.910156 8 37.9375C7.953125 38.863281 7.96875 39.59375 7.96875 39.59375C7.984375 40.046875 8.308594 40.433594 8.75 40.53125L14.25 41.8125C14.300781 41.828125 14.351563 41.835938 14.40625 41.84375C14.410156 41.847656 14.433594 41.839844 14.4375 41.84375C15.980469 43.234375 18.433594 44.394531 22.1875 44.78125C22.925781 45.496094 23.882813 46 25 46C26.109375 46 27.046875 45.488281 27.78125 44.78125C31.585938 44.402344 34.082031 43.273438 35.625 41.875C35.769531 41.863281 35.90625 41.820313 36.03125 41.75L41.21875 39.75C41.625 39.601563 41.886719 39.210938 41.875 38.78125C41.875 38.78125 41.753906 37.78125 41.5 36.5C41.71875 36.632813 41.890625 36.710938 42.09375 36.84375C42.910156 37.378906 43.53125 37.84375 43.53125 37.84375C43.957031 38.167969 44.5625 38.097656 44.90625 37.6875C44.90625 37.6875 47.441406 34.695313 49.78125 31.75C50.074219 31.382813 50.074219 30.867188 49.78125 30.5C48.816406 29.246094 47.351563 28.304688 45.96875 27.5L47.4375 27.46875C47.734375 27.464844 48.011719 27.328125 48.199219 27.101563C48.386719 26.871094 48.460938 26.570313 48.40625 26.28125L47.5 21.40625C47.410156 20.929688 46.988281 20.585938 46.5 20.59375C46.5 20.59375 44.710938 20.617188 43.5 20.625C44.351563 20.113281 45.6875 19.1875 45.6875 19.1875C46.167969 18.925781 46.347656 18.328125 46.09375 17.84375C46.09375 17.84375 44.808594 15.492188 43.3125 13C42.5625 11.753906 41.765625 10.464844 41.03125 9.40625C40.296875 8.347656 39.769531 7.566406 39 7.0625C38.742188 6.886719 38.421875 6.839844 38.125 6.9375C36.972656 7.328125 36.015625 7.808594 35.21875 8.3125C35.230469 8.289063 35.375 7.9375 35.375 7.9375C35.550781 7.59375 35.515625 7.179688 35.28125 6.875C35.28125 6.875 34.84375 6.28125 34.25 5.5625C33.65625 4.84375 32.941406 4.03125 32.21875 3.5C32.058594 3.371094 31.863281 3.292969 31.65625 3.28125C31.457031 3.277344 31.261719 3.332031 31.09375 3.4375C30.265625 3.953125 29.558594 4.566406 28.9375 5.25C28.949219 4.214844 28.96875 3.46875 28.96875 3.46875C28.984375 3.199219 28.890625 2.933594 28.710938 2.730469C28.527344 2.53125 28.269531 2.414063 28 2.40625L22.375 2.1875C22.074219 2.183594 21.785156 2.3125 21.59375 2.542969C21.398438 2.773438 21.320313 3.078125 21.375 3.375L21.8125 5.6875C21.785156 5.652344 21.777344 5.660156 21.75 5.625C21.003906 4.699219 20.167969 3.757813 19.34375 2.96875C18.519531 2.179688 17.761719 1.515625 16.8125 1.25C16.679688 1.210938 16.542969 1.203125 16.40625 1.21875 Z M 16.71875 3.5C17.0625 3.695313 17.433594 3.890625 17.96875 4.40625C18.691406 5.101563 19.476563 5.992188 20.1875 6.875C21.609375 8.644531 22.75 10.34375 22.75 10.34375C23.015625 10.738281 23.523438 10.894531 23.964844 10.710938C24.40625 10.53125 24.65625 10.0625 24.5625 9.59375L23.53125 4.25L26.96875 4.375C26.945313 5.113281 26.882813 6.4375 26.96875 8.40625C26.96875 8.4375 26.96875 8.46875 26.96875 8.5C26.773438 9.035156 26.609375 9.582031 26.5 10.15625C26.394531 10.699219 26.753906 11.222656 27.296875 11.328125C27.839844 11.433594 28.363281 11.074219 28.46875 10.53125C28.851563 8.488281 29.953125 6.925781 31.59375 5.6875C31.957031 6.046875 32.324219 6.371094 32.6875 6.8125C33.035156 7.230469 33.140625 7.367188 33.3125 7.59375C33.074219 8.054688 32.136719 9.835938 30.96875 12.53125C30.757813 12.96875 30.890625 13.492188 31.28125 13.777344C31.671875 14.0625 32.214844 14.023438 32.5625 13.6875C33.292969 13.007813 33.78125 12.148438 34.65625 11.28125C35.433594 10.511719 36.582031 9.742188 38.21875 9.09375C38.46875 9.351563 38.855469 9.769531 39.40625 10.5625C40.097656 11.5625 40.859375 12.808594 41.59375 14.03125C42.800781 16.042969 43.5 17.316406 43.84375 17.9375C42.863281 18.480469 41.039063 19.539063 39.46875 20.90625C39.152344 21.183594 39.046875 21.628906 39.199219 22.023438C39.351563 22.414063 39.734375 22.667969 40.15625 22.65625C41.96875 22.59375 44.828125 22.59375 45.6875 22.59375L46.21875 25.5L42.03125 25.5625C41.542969 25.550781 41.113281 25.890625 41.023438 26.371094C40.929688 26.851563 41.199219 27.328125 41.65625 27.5C41.65625 27.5 42.890625 28.011719 44.34375 28.8125C45.5625 29.484375 46.734375 30.390625 47.59375 31.25C45.835938 33.429688 44.355469 35.222656 43.9375 35.71875C43.664063 35.523438 43.617188 35.46875 43.1875 35.1875C42.316406 34.617188 41.265625 33.972656 40.3125 33.625C39.949219 33.492188 39.539063 33.582031 39.265625 33.859375C38.988281 34.132813 38.898438 34.542969 39.03125 34.90625C39.679688 36.699219 39.691406 37.722656 39.71875 38.1875L37.53125 39.03125C37.894531 38.058594 38 37.207031 38 36.6875C38 35.589844 37.441406 34.335938 36.90625 32.65625C37.820313 32.003906 38.53125 31.078125 38.53125 29.875C38.53125 28.125 37.226563 26.695313 35.5625 26.375C35.246094 24.277344 35 21.925781 35 19C35 18.710938 34.875 18.4375 34.65625 18.25C34.65625 18.25 30.832031 15 25 15C24.96875 15 24.9375 15 24.90625 15C24.820313 15.011719 24.738281 15.03125 24.65625 15.0625C19.820313 16.757813 15.6875 18.03125 15.6875 18.03125C15.269531 18.167969 14.992188 18.5625 15 19C15 21.8125 14.691406 24.21875 14.3125 26.40625C12.710938 26.773438 11.46875 28.167969 11.46875 29.875C11.46875 31.023438 12.125 31.933594 12.96875 32.59375C12.488281 34.253906 12 35.613281 12 36.6875C12 37.277344 12.097656 38.273438 12.59375 39.375L10 38.78125C10 38.511719 9.980469 38.453125 10 38.03125C10.042969 37.1875 10.15625 36.15625 10.34375 35.625C10.480469 35.21875 10.347656 34.769531 10.007813 34.507813C9.667969 34.246094 9.199219 34.230469 8.84375 34.46875C7.617188 35.289063 6.660156 36.152344 5.96875 36.84375C5.328125 35.800781 3.644531 33.066406 2.21875 30.9375C4.703125 27.257813 8.542969 24.167969 11.4375 23.4375C11.796875 23.34375 12.070313 23.058594 12.15625 22.699219C12.242188 22.339844 12.121094 21.960938 11.84375 21.71875C9.683594 19.796875 7.425781 18.554688 5.5 17.5C7.542969 13.492188 11.246094 9.628906 11.96875 8.90625C12.695313 9.238281 15.183594 10.457031 17.84375 14.03125C18.039063 14.363281 18.402344 14.554688 18.785156 14.523438C19.171875 14.496094 19.5 14.246094 19.640625 13.886719C19.777344 13.53125 19.699219 13.125 19.4375 12.84375C17.226563 9.871094 14.804688 8.1875 13.375 7.375C13.742188 6.9375 13.863281 6.773438 14.4375 6.09375C15.308594 5.070313 16.117188 4.132813 16.71875 3.5 Z M 25.125 17C29.800781 17.042969 32.625 19.234375 33.03125 19.5625C33.066406 22.605469 33.296875 25.261719 33.65625 27.4375C33.738281 27.964844 34.21875 28.335938 34.75 28.28125C34.90625 28.265625 34.945313 28.25 34.90625 28.25C35.808594 28.25 36.53125 28.972656 36.53125 29.875C36.53125 30.582031 36.066406 31.152344 35.4375 31.375C34.941406 31.550781 34.667969 32.085938 34.8125 32.59375C35.46875 34.859375 36 36.410156 36 36.6875C36 37.226563 35.847656 38.585938 34.75 39.875C33.652344 41.164063 31.5625 42.515625 27.3125 42.875C27.046875 42.894531 26.800781 43.015625 26.625 43.21875C26.226563 43.699219 25.660156 44 25 44C24.335938 44 23.773438 43.703125 23.375 43.21875C23.207031 43.003906 22.957031 42.871094 22.6875 42.84375C18.480469 42.46875 16.359375 41.132813 15.25 39.84375C14.140625 38.554688 14 37.203125 14 36.6875C14 36.199219 14.453125 34.625 15.03125 32.53125C15.164063 32.042969 14.90625 31.53125 14.4375 31.34375C13.867188 31.097656 13.46875 30.546875 13.46875 29.875C13.46875 28.996094 14.160156 28.28125 15.03125 28.25C15.039063 28.257813 15.074219 28.277344 15.15625 28.28125C15.667969 28.320313 16.125 27.972656 16.21875 27.46875C16.628906 25.261719 16.882813 22.613281 16.9375 19.75C17.445313 19.589844 20.742188 18.53125 25.125 17 Z M 22.8125 22.0625C22.78125 22.070313 22.75 22.082031 22.71875 22.09375C22.632813 22.113281 22.546875 22.144531 22.46875 22.1875L18.28125 24.28125C17.949219 24.433594 17.722656 24.757813 17.699219 25.125C17.675781 25.488281 17.855469 25.839844 18.164063 26.035156C18.476563 26.230469 18.867188 26.242188 19.1875 26.0625L23.375 23.96875C23.84375 23.769531 24.089844 23.253906 23.945313 22.765625C23.800781 22.277344 23.3125 21.972656 22.8125 22.0625 Z M 26.9375 23.125C26.453125 23.183594 26.085938 23.582031 26.0625 24.070313C26.039063 24.554688 26.367188 24.988281 26.84375 25.09375L31.03125 26.15625C31.390625 26.273438 31.785156 26.183594 32.050781 25.917969C32.316406 25.652344 32.414063 25.257813 32.296875 24.898438C32.179688 24.539063 31.871094 24.277344 31.5 24.21875L27.34375 23.15625C27.210938 23.117188 27.074219 23.109375 26.9375 23.125 Z M 20.71875 28.125C20.070313 28.125 19.53125 28.632813 19.53125 29.28125C19.53125 29.929688 20.070313 30.46875 20.71875 30.46875C21.367188 30.46875 21.875 29.929688 21.875 29.28125C21.875 28.632813 21.367188 28.125 20.71875 28.125 Z M 28.90625 28.125C28.257813 28.125 27.75 28.632813 27.75 29.28125C27.75 29.929688 28.257813 30.46875 28.90625 30.46875C29.554688 30.46875 30.09375 29.929688 30.09375 29.28125C30.09375 28.632813 29.554688 28.125 28.90625 28.125 Z M 21.875 33.53125C17.054688 34.707031 16.65625 38.75 16.65625 38.75L33.34375 38.75C33.34375 38.75 33.402344 34.921875 28.125 33.53125C28.125 33.53125 27.054688 35.59375 25 35.59375C22.945313 35.59375 21.875 33.53125 21.875 33.53125Z" />
</svg>