<?xml version="1.0" encoding="utf-8"?>
<svg xmlns="http://www.w3.org/2000/svg" viewBox="0 0 50 50" width="515" height="515">
  <path d="M5 7C2.25 7 0 9.25 0 12L0 38C0 40.75 2.25 43 5 43L45 43C47.75 43 50 40.75 50 38L50 12C50 9.25 47.75 7 45 7 Z M 5 9L45 9C46.667969 9 48 10.332031 48 12L48 38C48 39.667969 46.667969 41 45 41L5 41C3.332031 41 2 39.667969 2 38L2 12C2 10.332031 3.332031 9 5 9 Z M 8.5625 19.90625L4.84375 28.40625L7.0625 28.40625L7.875 26.5L12.0625 26.5L12.875 28.40625L17.09375 28.40625L17.09375 22.09375L19.90625 28.40625L21.8125 28.40625L24.65625 22.1875L24.65625 28.40625L26.75 28.40625L26.75 19.90625L23.40625 19.90625L20.84375 25.625L18.28125 19.90625L15 19.90625L15 28.09375L11.34375 19.90625 Z M 29.5 19.90625L29.5 28.4375L37.5 28.4375L40 25.59375L42.46875 28.4375L45.125 28.4375L41.375 24.0625L45.125 19.90625L42.46875 19.90625L40.0625 22.5625L37.75 19.90625 Z M 9.90625 21.6875L11.21875 24.6875L8.65625 24.6875 Z M 31.5625 21.71875L36.65625 21.75L38.6875 24.0625L36.40625 26.625L31.5625 26.625L31.5625 24.9375L36.1875 24.9375L36.1875 23.3125L31.5625 23.3125Z" />
</svg>