<?xml version="1.0" encoding="utf-8"?>
<svg xmlns="http://www.w3.org/2000/svg" viewBox="0 0 50 50" width="515" height="515">
  <path d="M6 0C5.4 0 5 0.4 5 1L5 44C5 44.6 5.4 45 6 45L25.8125 45C27.914879 46.261148 30.367858 47 33 47C36.507938 47 39.704602 45.702802 42.160156 43.574219L48.59375 50.007812L50.007812 48.59375L43.574219 42.160156C45.702802 39.704602 47 36.507938 47 33C47 28.240593 44.625138 24.046664 41 21.517578L41 1C41 0.4 40.6 0 40 0L6 0 z M 7 2L39 2L39 20.363281C37.179853 19.498135 35.150872 19 33 19C29.732427 19 26.734519 20.12659 24.353516 22L14 22L14 24L22.279297 24C21.286674 25.181502 20.494835 26.532957 19.933594 28L14 28L14 30L19.330078 30C19.118971 30.967355 19 31.968958 19 33C19 33.337775 19.027306 33.668243 19.050781 34L14 34L14 36L19.330078 36C19.921762 38.711265 21.293588 41.127569 23.205078 43L7 43L7 2 z M 14 10L14 12L33 12L33 10L14 10 z M 14 16L14 18L33 18L33 16L14 16 z M 33 21C39.662963 21 45 26.337037 45 33C45 39.662963 39.662963 45 33 45C26.337037 45 21 39.662963 21 33C21 26.337037 26.337037 21 33 21 z M 25 27C24.4 27.9 23.8 28.9 23.5 30L38 30L38 27L25 27 z M 23.199219 35C23.399219 36.1 23.800781 37.1 24.300781 38L38 38L38 35L23.199219 35 z" />
</svg>