<?xml version="1.0" encoding="utf-8"?>
<svg xmlns="http://www.w3.org/2000/svg" viewBox="0 0 50 50" width="515" height="515">
  <path d="M25 2.9882812L25 23.089844C23.322871 23.344263 22 24.743578 22 26.488281C22 28.408861 23.578329 29.988281 25.5 29.988281L43.5 29.988281C45.421188 29.988281 47 28.40947 47 26.488281L47 2.9882812L25 2.9882812 z M 21.015625 3.2695312 A 1.0001 1.0001 0 0 0 20.845703 3.2832031C16.069112 4.0245878 12.798817 6.1787323 10.722656 9.0976562C8.6963508 11.946488 7.8053184 15.458357 7.3925781 19.066406L3.3417969 26.046875L3.3378906 26.054688C2.6485733 27.295144 3.088337 28.913918 4.3398438 29.609375L4.359375 29.619141L7.4160156 31.148438L8.4003906 38.357422L8.4023438 38.369141C8.8312394 41.050044 11.181506 43.091631 13.904297 42.982422L13.863281 42.984375L17 42.986328L17 45.988281L17 46.988281L17.830078 46.988281 A 1.0001 1.0001 0 0 0 18.164062 46.988281L19 46.988281L19 44.988281L19 40.988281L13.845703 40.984375L13.824219 40.984375C12.159009 41.051165 10.650057 39.759831 10.376953 38.052734L10.378906 38.076172L9.2558594 29.832031L5.3125 27.859375C4.9857794 27.676667 4.8976664 27.366146 5.0859375 27.027344L9.3066406 19.751953L9.3300781 19.539062C9.7080068 16.02472 10.572426 12.759935 12.353516 10.255859C14.134605 7.7517838 16.807888 5.9343808 21.154297 5.2597656 A 1.0001 1.0001 0 0 0 21.015625 3.2695312 z M 27 4.9882812L45 4.9882812L45 26.488281C45 27.329093 44.340812 27.988281 43.5 27.988281L43.5 27.986328C42.673 27.987328 42 27.315281 42 26.488281C42 25.837281 42.419 25.287078 43 25.080078L43 23.037109L43 22.988281L27 22.988281L27 4.9882812 z M 38 8.9882812L39.292969 10.28125L37 12.574219L34 9.5742188L30.292969 13.28125L31.707031 14.695312L34 12.402344L37 15.402344L40.707031 11.695312L42 12.988281L42 8.9882812L38 8.9882812 z M 30 17.988281L30 19.988281L42 19.988281L42 17.988281L30 17.988281 z M 25.5 24.988281L40.355469 24.988281C40.135634 25.443466 40 25.946603 40 26.486328C40 27.025795 40.13266 27.531492 40.351562 27.988281L25.5 27.988281C24.659671 27.988281 24 27.327702 24 26.488281C24 25.647952 24.66058 24.988281 25.5 24.988281 z M 38.162109 31.976562 A 1.0001 1.0001 0 0 0 37.28125 32.488281C35.876424 34.923523 35 37.675243 35 40.582031L35 44.988281L35 45.988281L35 46.988281L35.832031 46.988281 A 1.0001 1.0001 0 0 0 36.158203 46.988281L37 46.988281L37 45.988281L37 44.988281L37 40.582031C37 38.07682 37.754497 35.671039 39.013672 33.488281 A 1.0001 1.0001 0 0 0 38.162109 31.976562 z" />
</svg>