<?xml version="1.0" encoding="utf-8"?>
<svg xmlns="http://www.w3.org/2000/svg" viewBox="0 0 50 50" width="515" height="515">
  <path d="M15 3C13.355469 3 12 4.355469 12 6L12 8.6875C11.941406 8.882813 11.941406 9.085938 12 9.28125L12 39.53125C11.867188 39.808594 11.867188 40.128906 12 40.40625L12 44C12 45.644531 13.355469 47 15 47L35 47C36.644531 47 38 45.644531 38 44L38 40.1875C38.027344 40.054688 38.027344 39.914063 38 39.78125L38 9.1875C38.027344 9.054688 38.027344 8.914063 38 8.78125L38 6C38 4.355469 36.644531 3 35 3 Z M 15 5L35 5C35.554688 5 36 5.445313 36 6L36 8L14 8L14 6C14 5.445313 14.445313 5 15 5 Z M 14 10L36 10L36 39L14 39 Z M 22.40625 15.96875C22.382813 15.976563 22.363281 15.988281 22.34375 16C22.203125 16.046875 22.089844 16.152344 22.035156 16.292969C21.980469 16.433594 21.988281 16.589844 22.0625 16.71875L22.59375 17.8125C21.695313 18.488281 21.117188 19.53125 21.03125 20.71875C21.027344 20.773438 21 20.820313 21 20.875C20.996094 20.917969 20.996094 20.957031 21 21C21 21.03125 21 21.0625 21 21.09375L21 27C21 27.523438 21.183594 28.058594 21.5625 28.4375C21.691406 28.566406 21.84375 28.664063 22 28.75L22 31C21.996094 31.359375 22.183594 31.695313 22.496094 31.878906C22.808594 32.058594 23.191406 32.058594 23.503906 31.878906C23.816406 31.695313 24.003906 31.359375 24 31L24 29L26 29L26 31C25.996094 31.359375 26.183594 31.695313 26.496094 31.878906C26.808594 32.058594 27.191406 32.058594 27.503906 31.878906C27.816406 31.695313 28.003906 31.359375 28 31L28 28.75C28.15625 28.664063 28.308594 28.566406 28.4375 28.4375C28.816406 28.058594 29 27.523438 29 27L29 21.15625C29.003906 21.105469 29.003906 21.050781 29 21C29 20.96875 29 20.9375 29 20.90625C29 20.894531 29 20.886719 29 20.875C29 20.820313 28.972656 20.773438 28.96875 20.71875C28.882813 19.53125 28.304688 18.488281 27.40625 17.8125L27.9375 16.71875C28.03125 16.542969 28.011719 16.332031 27.890625 16.175781C27.769531 16.023438 27.566406 15.953125 27.375 16C27.234375 16.042969 27.121094 16.144531 27.0625 16.28125L26.5625 17.3125C26.082031 17.109375 25.550781 17 25 17C24.449219 17 23.917969 17.109375 23.4375 17.3125L22.9375 16.28125C22.859375 16.089844 22.675781 15.964844 22.46875 15.96875C22.449219 15.96875 22.425781 15.96875 22.40625 15.96875 Z M 25 19C25.808594 19 26.429688 19.386719 26.75 20L23.25 20C23.570313 19.386719 24.191406 19 25 19 Z M 18.90625 19.96875C18.863281 19.976563 18.820313 19.988281 18.78125 20C18.316406 20.105469 17.988281 20.523438 18 21L18 26C17.996094 26.359375 18.183594 26.695313 18.496094 26.878906C18.808594 27.058594 19.191406 27.058594 19.503906 26.878906C19.816406 26.695313 20.003906 26.359375 20 26L20 21C20.011719 20.710938 19.894531 20.433594 19.6875 20.238281C19.476563 20.039063 19.191406 19.941406 18.90625 19.96875 Z M 30.90625 19.96875C30.863281 19.976563 30.820313 19.988281 30.78125 20C30.316406 20.105469 29.988281 20.523438 30 21L30 26C29.996094 26.359375 30.183594 26.695313 30.496094 26.878906C30.808594 27.058594 31.191406 27.058594 31.503906 26.878906C31.816406 26.695313 32.003906 26.359375 32 26L32 21C32.011719 20.710938 31.894531 20.433594 31.6875 20.238281C31.476563 20.039063 31.191406 19.941406 30.90625 19.96875 Z M 23 22L27 22L27 26.96875C26.96875 26.96875 26.9375 26.96875 26.90625 26.96875C26.875 26.976563 26.84375 26.988281 26.8125 27L23.21875 27C23.148438 26.980469 23.074219 26.972656 23 26.96875 Z M 14 41L36 41L36 44C36 44.554688 35.554688 45 35 45L15 45C14.445313 45 14 44.554688 14 44 Z M 21.71875 42C21.167969 42.078125 20.78125 42.589844 20.859375 43.140625C20.9375 43.691406 21.449219 44.078125 22 44L28 44C28.359375 44.003906 28.695313 43.816406 28.878906 43.503906C29.058594 43.191406 29.058594 42.808594 28.878906 42.496094C28.695313 42.183594 28.359375 41.996094 28 42L22 42C21.96875 42 21.9375 42 21.90625 42C21.875 42 21.84375 42 21.8125 42C21.78125 42 21.75 42 21.71875 42Z" />
</svg>