<?xml version="1.0" encoding="utf-8"?>
<svg xmlns="http://www.w3.org/2000/svg" viewBox="0 0 50 50" width="515" height="515">
  <path d="M6.90625 7.96875C6.875 7.976563 6.84375 7.988281 6.8125 8L3 8C1.355469 8 0 9.355469 0 11L0 39C0 40.644531 1.355469 42 3 42L47 42C48.644531 42 50 40.644531 50 39L50 11C50 9.355469 48.644531 8 47 8L44.1875 8C44.097656 7.976563 44 7.964844 43.90625 7.96875C43.863281 7.976563 43.820313 7.988281 43.78125 8L7.21875 8C7.117188 7.972656 7.011719 7.960938 6.90625 7.96875 Z M 3 10L6 10L6 40L3 40C2.445313 40 2 39.554688 2 39L2 11C2 10.445313 2.445313 10 3 10 Z M 8 10L43 10L43 40L8 40 Z M 45 10L47 10C47.554688 10 48 10.445313 48 11L48 39C48 39.554688 47.554688 40 47 40L45 40 Z M 22.40625 16.96875C22.382813 16.976563 22.363281 16.988281 22.34375 17C22.203125 17.046875 22.089844 17.152344 22.035156 17.292969C21.980469 17.433594 21.988281 17.589844 22.0625 17.71875L22.59375 18.8125C21.695313 19.488281 21.117188 20.53125 21.03125 21.71875C21.027344 21.773438 21 21.820313 21 21.875C20.996094 21.917969 20.996094 21.957031 21 22C21 22.03125 21 22.0625 21 22.09375L21 28C21 28.523438 21.183594 29.058594 21.5625 29.4375C21.691406 29.566406 21.84375 29.664063 22 29.75L22 32C21.996094 32.359375 22.183594 32.695313 22.496094 32.878906C22.808594 33.058594 23.191406 33.058594 23.503906 32.878906C23.816406 32.695313 24.003906 32.359375 24 32L24 30L26 30L26 32C25.996094 32.359375 26.183594 32.695313 26.496094 32.878906C26.808594 33.058594 27.191406 33.058594 27.503906 32.878906C27.816406 32.695313 28.003906 32.359375 28 32L28 29.75C28.15625 29.664063 28.308594 29.566406 28.4375 29.4375C28.816406 29.058594 29 28.523438 29 28L29 22.15625C29.003906 22.105469 29.003906 22.050781 29 22C29 21.96875 29 21.9375 29 21.90625C29 21.894531 29 21.886719 29 21.875C29 21.820313 28.972656 21.773438 28.96875 21.71875C28.882813 20.53125 28.304688 19.488281 27.40625 18.8125L27.9375 17.71875C28.03125 17.542969 28.011719 17.332031 27.890625 17.175781C27.769531 17.023438 27.566406 16.953125 27.375 17C27.234375 17.042969 27.121094 17.144531 27.0625 17.28125L26.5625 18.3125C26.082031 18.109375 25.550781 18 25 18C24.449219 18 23.917969 18.109375 23.4375 18.3125L22.9375 17.28125C22.859375 17.089844 22.675781 16.964844 22.46875 16.96875C22.449219 16.96875 22.425781 16.96875 22.40625 16.96875 Z M 25 20C25.808594 20 26.429688 20.386719 26.75 21L23.25 21C23.570313 20.386719 24.191406 20 25 20 Z M 3.90625 20.96875C3.863281 20.976563 3.820313 20.988281 3.78125 21C3.316406 21.105469 2.988281 21.523438 3 22L3 28C2.996094 28.359375 3.183594 28.695313 3.496094 28.878906C3.808594 29.058594 4.191406 29.058594 4.503906 28.878906C4.816406 28.695313 5.003906 28.359375 5 28L5 22C5.011719 21.710938 4.894531 21.433594 4.6875 21.238281C4.476563 21.039063 4.191406 20.941406 3.90625 20.96875 Z M 18.90625 20.96875C18.863281 20.976563 18.820313 20.988281 18.78125 21C18.316406 21.105469 17.988281 21.523438 18 22L18 27C17.996094 27.359375 18.183594 27.695313 18.496094 27.878906C18.808594 28.058594 19.191406 28.058594 19.503906 27.878906C19.816406 27.695313 20.003906 27.359375 20 27L20 22C20.011719 21.710938 19.894531 21.433594 19.6875 21.238281C19.476563 21.039063 19.191406 20.941406 18.90625 20.96875 Z M 30.90625 20.96875C30.863281 20.976563 30.820313 20.988281 30.78125 21C30.316406 21.105469 29.988281 21.523438 30 22L30 27C29.996094 27.359375 30.183594 27.695313 30.496094 27.878906C30.808594 28.058594 31.191406 28.058594 31.503906 27.878906C31.816406 27.695313 32.003906 27.359375 32 27L32 22C32.011719 21.710938 31.894531 21.433594 31.6875 21.238281C31.476563 21.039063 31.191406 20.941406 30.90625 20.96875 Z M 23 23L27 23L27 27.96875C26.96875 27.96875 26.9375 27.96875 26.90625 27.96875C26.875 27.976563 26.84375 27.988281 26.8125 28L23.21875 28C23.148438 27.980469 23.074219 27.972656 23 27.96875Z" />
</svg>