<?xml version="1.0" encoding="utf-8"?>
<svg xmlns="http://www.w3.org/2000/svg" viewBox="0 0 50 50" width="515" height="515">
  <path d="M24 0L24 10.6875C21.566406 9.039063 18.621094 8 15.40625 8C6.882813 8 0 14.746094 0 23.09375C0 30.472656 3.621094 37.15625 7.875 42C10.003906 44.421875 12.269531 46.394531 14.40625 47.78125C16.542969 49.167969 18.492188 50 20.1875 50C21.972656 50 23.582031 49.507813 25 48.78125C26.417969 49.507813 28.027344 50 29.8125 50C31.433594 50 33.386719 49.347656 35.53125 48.15625C37.675781 46.964844 39.984375 45.1875 42.125 42.90625C46.40625 38.339844 50 31.625 50 23.09375C50 15.277344 43.953125 8.847656 36.1875 8.0625C38.347656 4.894531 38.5 1.0625 38.5 1.0625C38.515625 0.792969 38.421875 0.527344 38.242188 0.324219C38.058594 0.125 37.800781 0.0078125 37.53125 0C37.53125 0 32.003906 -0.183594 28.3125 3.28125C27.300781 4.230469 26.566406 5.304688 26 6.375L26 0 Z M 36.25 2.15625C36.046875 3.5 35.519531 6.09375 33.625 8.03125C31.0625 8.203125 28.699219 9.058594 26.65625 10.3125C27.070313 8.71875 27.914063 6.386719 29.6875 4.71875C31.960938 2.585938 34.835938 2.257813 36.25 2.15625 Z M 15.40625 10C18.855469 10 22.023438 11.300781 24.34375 13.34375L25 13.9375L25.65625 13.34375C27.792969 11.464844 30.652344 10.21875 33.78125 10.03125C33.996094 10.09375 34.226563 10.085938 34.4375 10C34.488281 10 34.542969 10 34.59375 10C42.070313 10 48 15.839844 48 23.09375C48 31.0625 44.652344 37.300781 40.65625 41.5625C38.660156 43.691406 36.511719 45.320313 34.5625 46.40625C32.613281 47.492188 30.84375 48 29.8125 48C28.199219 48 26.769531 47.570313 25.5 46.84375L25 46.5625L24.5 46.84375C23.230469 47.570313 21.800781 48 20.1875 48C19.234375 48 17.457031 47.363281 15.5 46.09375C13.542969 44.824219 11.386719 42.976563 9.375 40.6875C5.355469 36.109375 2 29.816406 2 23.09375C2 15.839844 7.929688 10 15.40625 10 Z M 21 22.96875C20.53125 22.96875 20.089844 23.191406 19.78125 23.5L19.71875 23.5625L19.6875 23.625C19.160156 24.363281 18 25.984375 18 28C18 29.964844 19.078125 31.503906 19.78125 32.34375C19.800781 32.367188 19.824219 32.414063 19.84375 32.4375L19.875 32.40625C20.15625 32.757813 20.566406 33.03125 21 33.03125C21.46875 33.03125 21.910156 32.808594 22.21875 32.5L22.28125 32.4375L22.3125 32.375C22.839844 31.636719 24 30.015625 24 28C24 26.035156 22.921875 24.496094 22.21875 23.65625C22.199219 23.632813 22.175781 23.585938 22.15625 23.5625L22.125 23.59375C21.84375 23.242188 21.433594 22.96875 21 22.96875 Z M 30 22.96875C29.53125 22.96875 29.089844 23.191406 28.78125 23.5L28.71875 23.5625L28.6875 23.625C28.160156 24.363281 27 25.984375 27 28C27 29.964844 28.078125 31.503906 28.78125 32.34375C28.800781 32.367188 28.824219 32.414063 28.84375 32.4375L28.875 32.40625C29.15625 32.757813 29.566406 33.03125 30 33.03125C30.46875 33.03125 30.910156 32.808594 31.21875 32.5L31.28125 32.4375L31.3125 32.375C31.839844 31.636719 33 30.015625 33 28C33 26.035156 31.921875 24.496094 31.21875 23.65625C31.199219 23.632813 31.175781 23.585938 31.15625 23.5625L31.125 23.59375C30.84375 23.242188 30.433594 22.96875 30 22.96875 Z M 20.96875 25.34375C21.449219 26.03125 22 27.035156 22 28C22 28.945313 21.488281 29.925781 21.03125 30.65625C20.550781 29.96875 20 28.964844 20 28C20 27.054688 20.511719 26.074219 20.96875 25.34375 Z M 29.96875 25.34375C30.449219 26.03125 31 27.035156 31 28C31 28.945313 30.488281 29.925781 30.03125 30.65625C29.550781 29.96875 29 28.964844 29 28C29 27.054688 29.511719 26.074219 29.96875 25.34375Z" />
</svg>