<?xml version="1.0" encoding="utf-8"?>
<svg xmlns="http://www.w3.org/2000/svg" viewBox="0 0 50 50" width="515" height="515">
  <path d="M3.5 2C3.101563 2 2.699219 2.199219 2.398438 2.5C2.101563 2.800781 2 3.199219 2 3.601563C2 4 2.199219 4.5 2.5 4.800781C3.007813 5.308594 3.558594 5.703125 4.132813 6.023438L7.941406 33.644531L2.292969 39.292969C2.027344 39.558594 1.933594 39.949219 2.046875 40.304688C2.164063 40.660156 2.464844 40.925781 2.835938 40.984375L8.132813 41.871094L9.015625 47.164063C9.074219 47.535156 9.339844 47.835938 9.695313 47.953125C10.050781 48.066406 10.441406 47.972656 10.707031 47.707031L16.355469 42.058594L43.964844 45.863281C44.28125 46.433594 44.679688 46.980469 45.199219 47.5C45.5 47.800781 46 48 46.402344 48C46.800781 48 47.199219 47.898438 47.5 47.597656C48.199219 47 48.199219 46 47.597656 45.402344C45.699219 43.5 46.199219 40.699219 46.5 37.597656C47.300781 28.898438 46.898438 24.199219 44.199219 18.402344C42.902344 16.003906 40.808594 12.914063 38.511719 12.902344L41.707031 9.707031C41.773438 9.640625 41.832031 9.566406 41.875 9.484375C42.179688 9.644531 42.5 9.75 42.84375 9.78125C43.503906 9.847656 44.210938 9.605469 44.707031 9.109375C45.09375 8.722656 45.265625 8.359375 45.589844 7.804688C45.910156 7.25 46.269531 6.585938 46.609375 5.945313C47.292969 4.65625 47.894531 3.445313 47.894531 3.445313C48.046875 3.140625 48.035156 2.78125 47.859375 2.488281C47.683594 2.195313 47.375 2.011719 47.03125 2C46.863281 1.996094 46.695313 2.03125 46.546875 2.109375C46.546875 2.109375 45.3125 2.738281 44.015625 3.429688C43.367188 3.777344 42.703125 4.140625 42.15625 4.453125C41.882813 4.609375 41.640625 4.753906 41.4375 4.882813C41.234375 5.015625 41.097656 5.089844 40.890625 5.292969C40.144531 6.039063 40.058594 7.164063 40.53125 8.113281C40.441406 8.160156 40.363281 8.222656 40.292969 8.292969L37.214844 11.371094C37.035156 9.117188 34.078125 7.089844 31.699219 5.898438C27.5 4 23.898438 3.199219 19.097656 3.199219C17.097656 3.199219 14.902344 3.300781 12.300781 3.601563C11 3.699219 9.800781 3.898438 8.699219 3.898438C7.097656 3.898438 5.699219 3.601563 4.601563 2.5C4.300781 2.101563 3.898438 2 3.5 2 Z M 18.5 5.199219L19.097656 5.199219C23.699219 5.199219 26.898438 5.898438 30.699219 7.699219C33.597656 9.097656 35.199219 10.800781 35.097656 11.597656C35 12.097656 34.800781 12.699219 34 12.699219C33.601563 12.699219 33.199219 12.601563 32.902344 12.300781C30.5 10.402344 25 6.5 18.5 5.199219 Z M 44.644531 5.367188C44.375 5.875 44.097656 6.390625 43.859375 6.804688C43.558594 7.316406 43.207031 7.777344 43.292969 7.695313C43.1875 7.796875 43.148438 7.804688 43.03125 7.792969C42.917969 7.78125 42.722656 7.707031 42.507813 7.492188C42.144531 7.128906 42.277344 6.734375 42.308594 6.707031C42.226563 6.785156 42.351563 6.671875 42.515625 6.570313C42.675781 6.46875 42.894531 6.335938 43.152344 6.1875C43.578125 5.945313 44.117188 5.652344 44.644531 5.367188 Z M 14.199219 6.699219C20.597656 6.699219 27.199219 10.300781 31.800781 13.902344C32.445313 14.359375 33.171875 14.636719 33.90625 14.683594L14.65625 33.929688L9.890625 33.136719L6.261719 6.835938C7.101563 7.027344 7.957031 7.101563 8.800781 7.101563C10.199219 7.101563 11.5 6.902344 12.800781 6.800781C13.300781 6.800781 13.699219 6.699219 14.199219 6.699219 Z M 38.402344 14.902344L38.5 14.902344C39.300781 14.902344 41 16.5 42.300781 19.300781C44.101563 23.101563 44.800781 26.402344 44.800781 31.402344C43.5 25 39.597656 19.5 37.699219 17.097656C37.398438 16.699219 37.199219 16 37.402344 15.597656C37.5 15.5 37.601563 15.101563 38.402344 14.902344 Z M 35.3125 16.101563C35.34375 16.882813 35.609375 17.671875 36.097656 18.300781C39.898438 23.199219 43.800781 30.398438 43.199219 37.199219C43.011719 39.246094 42.679688 41.558594 43.160156 43.734375L16.863281 40.109375L16.070313 35.34375 Z M 9.34375 35.070313L12.921875 35.667969L8.65625 39.929688L5.078125 39.332031 Z M 14.332031 37.078125L14.929688 40.65625L10.667969 44.921875L10.070313 41.34375Z" />
</svg>