<?xml version="1.0" encoding="utf-8"?>
<svg xmlns="http://www.w3.org/2000/svg" viewBox="0 0 50 50" width="515" height="515">
  <path d="M50 2.28125L48.25 4.34375L36.65625 17.84375L23.28125 14.03125L22.8125 13.90625L22.40625 14.1875L8.78125 23.90625L1.25 22.03125L0 21.71875L0 33.15625C0 33.1875 0 33.21875 0 33.25L0 50.15625L50 50.15625L50 21.3125C50.003906 21.261719 50.003906 21.207031 50 21.15625 Z M 48 7.6875L48 20.6875L40.78125 26.875L35.96875 25.15625C35.976563 25.101563 36 25.058594 36 25C36 24.449219 35.550781 24 35 24C34.636719 24 34.332031 24.207031 34.15625 24.5L27.34375 22.0625L27 21.9375C26.964844 21.414063 26.53125 21 26 21C25.449219 21 25 21.449219 25 22C25 22.480469 25.359375 22.84375 25.8125 22.9375L16.5625 35.875L9 33.96875C8.984375 33.429688 8.542969 33 8 33C7.636719 33 7.332031 33.207031 7.15625 33.5L2 32.21875L2 29C2.550781 29 3 28.550781 3 28C3 27.449219 2.550781 27 2 27L2 24.28125L4.0625 24.78125C4.042969 24.855469 4 24.917969 4 25C4 25.550781 4.449219 26 5 26C5.460938 26 5.820313 25.671875 5.9375 25.25L8.75 25.96875L9.21875 26.09375L9.59375 25.8125L10.125 25.4375C10.289063 25.761719 10.609375 26 11 26C11.550781 26 12 25.550781 12 25C12 24.722656 11.898438 24.460938 11.71875 24.28125L13.625 22.90625C13.746094 22.957031 13.863281 23 14 23C14.550781 23 15 22.550781 15 22C15 21.976563 15 21.957031 15 21.9375L23.1875 16.09375L25.25 16.6875C25.433594 16.886719 25.707031 17 26 17C26.070313 17 26.121094 16.953125 26.1875 16.9375L34.0625 19.1875C34.15625 19.640625 34.519531 20 35 20C35.292969 20 35.566406 19.886719 35.75 19.6875L36.71875 19.96875L37.34375 20.125L37.75 19.65625 Z M 48 19C48 18.449219 47.550781 18 47 18C46.449219 18 46 18.449219 46 19C46 19.550781 46.449219 20 47 20C47.550781 20 48 19.550781 48 19 Z M 48 13C48 12.449219 47.550781 12 47 12C46.449219 12 46 12.449219 46 13C46 13.550781 46.449219 14 47 14C47.550781 14 48 13.550781 48 13 Z M 44 15C43.449219 15 43 15.449219 43 16C43 16.550781 43.449219 17 44 17C44.550781 17 45 16.550781 45 16C45 15.449219 44.550781 15 44 15 Z M 23 18C22.449219 18 22 18.449219 22 19C22 19.550781 22.449219 20 23 20C23.550781 20 24 19.550781 24 19C24 18.449219 23.550781 18 23 18 Z M 29 18C28.449219 18 28 18.449219 28 19C28 19.550781 28.449219 20 29 20C29.550781 20 30 19.550781 30 19C30 18.449219 29.550781 18 29 18 Z M 41 18C40.449219 18 40 18.449219 40 19C40 19.550781 40.449219 20 41 20C41.550781 20 42 19.550781 42 19C42 18.449219 41.550781 18 41 18 Z M 20 21C19.449219 21 19 21.449219 19 22C19 22.550781 19.449219 23 20 23C20.550781 23 21 22.550781 21 22C21 21.449219 20.550781 21 20 21 Z M 32 21C31.449219 21 31 21.449219 31 22C31 22.550781 31.449219 23 32 23C32.550781 23 33 22.550781 33 22C33 21.449219 32.550781 21 32 21 Z M 38 21C37.449219 21 37 21.449219 37 22C37 22.550781 37.449219 23 38 23C38.550781 23 39 22.550781 39 22C39 21.449219 38.550781 21 38 21 Z M 44 21C43.449219 21 43 21.449219 43 22C43 22.550781 43.449219 23 44 23C44.550781 23 45 22.550781 45 22C45 21.449219 44.550781 21 44 21 Z M 48 23.3125L48 48.15625L2 48.15625L2 34.28125L16.75 37.96875L17.40625 38.125L17.8125 37.59375L27.375 24.1875L40.65625 28.9375L41.21875 29.125 Z M 17 24C16.449219 24 16 24.449219 16 25C16 25.550781 16.449219 26 17 26C17.550781 26 18 25.550781 18 25C18 24.449219 17.550781 24 17 24 Z M 23 24C22.449219 24 22 24.449219 22 25C22 25.550781 22.449219 26 23 26C23.550781 26 24 25.550781 24 25C24 24.449219 23.550781 24 23 24 Z M 41 24C40.449219 24 40 24.449219 40 25C40 25.550781 40.449219 26 41 26C41.550781 26 42 25.550781 42 25C42 24.449219 41.550781 24 41 24 Z M 8 27C7.449219 27 7 27.449219 7 28C7 28.550781 7.449219 29 8 29C8.550781 29 9 28.550781 9 28C9 27.449219 8.550781 27 8 27 Z M 14 27C13.449219 27 13 27.449219 13 28C13 28.550781 13.449219 29 14 29C14.550781 29 15 28.550781 15 28C15 27.449219 14.550781 27 14 27 Z M 20 27C19.449219 27 19 27.449219 19 28C19 28.550781 19.449219 29 20 29C20.550781 29 21 28.550781 21 28C21 27.449219 20.550781 27 20 27 Z M 5 30C4.449219 30 4 30.449219 4 31C4 31.550781 4.449219 32 5 32C5.550781 32 6 31.550781 6 31C6 30.449219 5.550781 30 5 30 Z M 11 30C10.449219 30 10 30.449219 10 31C10 31.550781 10.449219 32 11 32C11.550781 32 12 31.550781 12 31C12 30.449219 11.550781 30 11 30 Z M 17 30C16.449219 30 16 30.449219 16 31C16 31.550781 16.449219 32 17 32C17.550781 32 18 31.550781 18 31C18 30.449219 17.550781 30 17 30 Z M 14 33C13.449219 33 13 33.449219 13 34C13 34.550781 13.449219 35 14 35C14.550781 35 15 34.550781 15 34C15 33.449219 14.550781 33 14 33Z" />
</svg>