<?xml version="1.0" encoding="utf-8"?>
<svg xmlns="http://www.w3.org/2000/svg" viewBox="0 0 50 50" width="515" height="515">
  <path d="M22.1875 13.96875C21.4375 13.957031 20.570313 14.085938 19.5 14.40625L19.5 19.1875C22.601563 15.988281 27.492188 19.59375 30.59375 15.59375C26.367188 16.488281 25.441406 14.015625 22.1875 13.96875 Z M 35.03125 15.96875C34.769531 15.960938 34.480469 15.976563 34.1875 16L34.1875 20.8125C36.789063 18.3125 40.90625 23.011719 43.40625 19.8125C39.375 19.71875 38.941406 16.089844 35.03125 15.96875 Z M 8.71875 16.96875C8.097656 16.964844 7.382813 17.085938 6.5 17.40625L6.5 22.1875C9.101563 18.988281 13.1875 22.59375 15.6875 18.59375C12.195313 19.40625 11.410156 16.992188 8.71875 16.96875 Z M 25 20.3125C18.265625 20.3125 12.195313 21.121094 7.71875 22.5C5.480469 23.191406 3.632813 24.011719 2.28125 25C0.929688 25.988281 0 27.226563 0 28.6875L0 49C0 49.550781 0.449219 50 1 50L20 50C20.550781 50 21 49.550781 21 49L21 31.65625C21.335938 31.632813 21.753906 31.59375 25 31.59375C28.246094 31.59375 28.664063 31.632813 29 31.65625L29 49C29 49.550781 29.449219 50 30 50L49 50C49.550781 50 50 49.550781 50 49L50 28.6875C50 27.226563 49.070313 25.988281 47.71875 25C46.367188 24.011719 44.519531 23.191406 42.28125 22.5C37.804688 21.121094 31.734375 20.3125 25 20.3125 Z M 25 22.3125C31.566406 22.3125 37.488281 23.109375 41.6875 24.40625C43.789063 25.054688 45.460938 25.84375 46.53125 26.625C47.601563 27.40625 48 28.097656 48 28.6875L48 48L31 48L31 30.6875C30.988281 30.183594 30.597656 29.765625 30.09375 29.71875C30.09375 29.71875 29.015625 29.59375 25 29.59375C20.984375 29.59375 19.90625 29.71875 19.90625 29.71875C19.402344 29.765625 19.011719 30.183594 19 30.6875L19 48L2 48L2 28.6875C2 28.097656 2.398438 27.40625 3.46875 26.625C4.539063 25.84375 6.210938 25.054688 8.3125 24.40625C12.511719 23.109375 18.433594 22.3125 25 22.3125 Z M 16 31C14.101563 31.199219 12 31.40625 12 31.40625L12 36.5L16 36.3125 Z M 34 31L34 36.3125L38 36.5L38 31.40625C38 31.40625 35.898438 31.199219 34 31 Z M 9 32C7.101563 32.300781 5 33 5 33L5 37.1875L9 36.8125 Z M 41 32L41 36.90625L45 37.3125L45 33C45 33 42.898438 32.300781 41 32 Z M 16 40.40625L12 40.59375L12 46L16 46 Z M 34 40.40625L34 46L38 46L38 40.59375 Z M 9 40.8125L5 41.3125L5 46L9 46 Z M 41 40.8125L41 46L45 46L45 41.3125Z" />
</svg>