<?xml version="1.0" encoding="utf-8"?>
<svg xmlns="http://www.w3.org/2000/svg" viewBox="0 0 523 523" width="515" height="515">
  <path d="M292.40625 114.95312 A 10.461046 10.461046 0 0 0 282.43945 125.40039L282.43945 209.24023L52.300781 209.24023 A 10.461046 10.461046 0 0 0 41.839844 219.69922L41.839844 303.40039 A 10.461046 10.461046 0 0 0 52.300781 313.85938L282.43945 313.85938L282.43945 397.40039 A 10.461046 10.461046 0 0 0 299.25586 405.70898L477.05469 269.70898 A 10.461046 10.461046 0 0 0 477.05469 253.0918L299.25586 117.0918 A 10.461046 10.461046 0 0 0 292.40625 114.95312 z M 303.35938 146.57031L453.48242 261.40039L303.35938 376.23047L303.35938 303.30078 A 10.461046 10.461046 0 0 0 290.63867 292.93945L62.759766 292.93945L62.759766 230.16016L292.5 230.16016 A 10.461046 10.461046 0 0 0 294.86914 229.91211 A 10.461046 10.461046 0 0 0 303.35938 219.5L303.35938 146.57031 z" />
</svg>