<?xml version="1.0" encoding="utf-8"?>
<svg xmlns="http://www.w3.org/2000/svg" viewBox="0 0 50 50" width="515" height="515">
  <path d="M39.90625 7.96875C39.863281 7.976563 39.820313 7.988281 39.78125 8C39.316406 8.105469 38.988281 8.523438 39 9L39 38.53125L31.8125 31.34375C31.625 31.144531 31.367188 31.035156 31.09375 31.03125C30.6875 31.035156 30.324219 31.28125 30.171875 31.660156C30.023438 32.035156 30.113281 32.46875 30.40625 32.75L39.28125 41.65625L40 42.34375L40.71875 41.65625L49.59375 32.75C49.890625 32.507813 50.027344 32.121094 49.941406 31.746094C49.855469 31.375 49.5625 31.082031 49.191406 30.996094C48.816406 30.910156 48.429688 31.046875 48.1875 31.34375L41 38.53125L41 9C41.011719 8.710938 40.894531 8.433594 40.6875 8.238281C40.476563 8.039063 40.191406 7.941406 39.90625 7.96875 Z M 0.8125 8.03125C0.308594 8.117188 -0.0390625 8.578125 0.0078125 9.085938C0.0585938 9.59375 0.488281 9.980469 1 9.96875L7 9.96875C7.375 10.015625 7.742188 9.839844 7.945313 9.523438C8.144531 9.203125 8.144531 8.796875 7.945313 8.476563C7.742188 8.160156 7.375 7.984375 7 8.03125L1 8.03125C0.9375 8.023438 0.875 8.023438 0.8125 8.03125 Z M 0.8125 16.03125C0.339844 16.148438 0.0234375 16.59375 0.0703125 17.082031C0.117188 17.566406 0.511719 17.945313 1 17.96875L11 17.96875C11.386719 18.035156 11.777344 17.867188 11.992188 17.539063C12.207031 17.210938 12.207031 16.789063 11.992188 16.460938C11.777344 16.132813 11.386719 15.964844 11 16.03125L1 16.03125C0.9375 16.023438 0.875 16.023438 0.8125 16.03125 Z M 0.8125 24C0.261719 24.050781 -0.144531 24.542969 -0.09375 25.09375C-0.0429688 25.644531 0.449219 26.050781 1 26L15 26C15.550781 26 16 25.550781 16 25C16 24.449219 15.550781 24 15 24L1 24C0.96875 24 0.9375 24 0.90625 24C0.875 24 0.84375 24 0.8125 24 Z M 0.71875 32C0.167969 32.078125 -0.21875 32.589844 -0.140625 33.140625C-0.0625 33.691406 0.449219 34.078125 1 34L19 34C19.550781 34 20 33.550781 20 33C20 32.449219 19.550781 32 19 32L1 32C0.96875 32 0.9375 32 0.90625 32C0.875 32 0.84375 32 0.8125 32C0.78125 32 0.75 32 0.71875 32 Z M 0.71875 40C0.167969 40.078125 -0.21875 40.589844 -0.140625 41.140625C-0.0625 41.691406 0.449219 42.078125 1 42L26 42C26.550781 42 27 41.550781 27 41C27 40.449219 26.550781 40 26 40L1 40C0.96875 40 0.9375 40 0.90625 40C0.875 40 0.84375 40 0.8125 40C0.78125 40 0.75 40 0.71875 40Z" />
</svg>