<?xml version="1.0" encoding="utf-8"?>
<svg xmlns="http://www.w3.org/2000/svg" viewBox="0 0 50 50" width="515" height="515">
  <path d="M29 2.007813C28.230469 2.007813 27.460938 2.296875 26.878906 2.878906L18.878906 10.878906C17.714844 12.042969 17.714844 13.957031 18.878906 15.121094C19.792969 16.035156 21.167969 16.21875 22.28125 15.695313L26.492188 19.90625L15.488281 30.125C15.339844 30.035156 15.164063 29.992188 14.988281 29.988281C14.648438 29.992188 14.328125 30.167969 14.144531 30.457031C13.960938 30.75 13.941406 31.113281 14.089844 31.421875L3.191406 41.546875C1.652344 42.972656 1.605469 45.425781 3.089844 46.90625L3.09375 46.90625C4.574219 48.390625 7.027344 48.347656 8.453125 46.8125L18.578125 35.910156C18.972656 36.105469 19.449219 36.015625 19.746094 35.695313C20.046875 35.371094 20.101563 34.890625 19.878906 34.511719L30.09375 23.507813L34.304688 27.71875C33.78125 28.832031 33.964844 30.207031 34.878906 31.121094C36.042969 32.285156 37.957031 32.285156 39.121094 31.121094L47.121094 23.121094C48.285156 21.957031 48.285156 20.042969 47.121094 18.878906C46.539063 18.296875 45.769531 18.003906 45 18.003906C44.558594 18.003906 44.125 18.113281 43.71875 18.304688L31.695313 6.28125C32.21875 5.167969 32.035156 3.792969 31.121094 2.878906C30.539063 2.296875 29.769531 2.007813 29 2.007813 Z M 29 3.992188C29.253906 3.992188 29.507813 4.09375 29.707031 4.292969C30.105469 4.691406 30.105469 5.308594 29.707031 5.707031L21.707031 13.707031C21.308594 14.105469 20.691406 14.105469 20.292969 13.707031C19.894531 13.308594 19.894531 12.691406 20.292969 12.292969L28.292969 4.292969C28.492188 4.09375 28.746094 3.992188 29 3.992188 Z M 30.414063 7.828125L32.585938 10L26 16.585938L23.828125 14.414063 Z M 34 11.414063L38.585938 16L32 22.585938L27.414063 18 Z M 40 17.414063L42.171875 19.585938L35.585938 26.171875L33.414063 24 Z M 45 19.996094C45.253906 19.996094 45.507813 20.09375 45.707031 20.292969C46.105469 20.691406 46.105469 21.308594 45.707031 21.707031L37.707031 29.707031C37.308594 30.105469 36.691406 30.105469 36.292969 29.707031C35.894531 29.308594 35.894531 28.691406 36.292969 28.292969L44.292969 20.292969C44.492188 20.09375 44.746094 19.996094 45 19.996094 Z M 27.8125 21.40625L28.59375 22.1875L18.484375 33.070313L16.929688 31.515625 Z M 15.464844 32.875L17.125 34.535156L6.992188 45.449219C6.316406 46.175781 5.207031 46.195313 4.507813 45.496094C3.804688 44.792969 3.824219 43.683594 4.550781 43.011719Z" />
</svg>