<?xml version="1.0" encoding="utf-8"?>
<svg xmlns="http://www.w3.org/2000/svg" viewBox="0 0 50 50" width="515" height="515">
  <path d="M25 1C22.800781 1 21 2.800781 21 5L21 6L12 6C10.355469 6 9 7.355469 9 9L9 46C9 47.644531 10.355469 49 12 49L38 49C39.644531 49 41 47.644531 41 46L41 9C41 7.355469 39.644531 6 38 6L29 6L29 5C29 2.800781 27.199219 1 25 1 Z M 25 3C26.117188 3 27 3.882813 27 5L27 6.832031C26.980469 6.941406 26.980469 7.050781 27 7.15625L27 9L23 9L23 7.167969C23.019531 7.058594 23.019531 6.949219 23 6.84375L23 5C23 3.882813 23.882813 3 25 3 Z M 25 4C24.449219 4 24 4.449219 24 5C24 5.550781 24.449219 6 25 6C25.550781 6 26 5.550781 26 5C26 4.449219 25.550781 4 25 4 Z M 12 8L21 8L21 10C21 10.550781 21.449219 11 22 11L28 11C28.550781 11 29 10.550781 29 10L29 8L38 8C38.566406 8 39 8.433594 39 9L39 46C39 46.566406 38.566406 47 38 47L12 47C11.433594 47 11 46.566406 11 46L11 9C11 8.433594 11.433594 8 12 8 Z M 33.292969 21.292969L22 32.585938L16.707031 27.292969L15.292969 28.707031L22 35.414063L34.707031 22.707031Z" />
</svg>