<?xml version="1.0" encoding="utf-8"?>
<svg xmlns="http://www.w3.org/2000/svg" viewBox="0 0 50 50" width="515" height="515">
  <path d="M40.105469 0.5 A 1.0001 1.0001 0 0 0 39.25 0.97265625L37.740234 3.40625C37.237606 3.376407 36.748456 3.3787851 36.267578 3.4082031L34.855469 1.0800781 A 1.0001 1.0001 0 0 0 33.605469 0.68164062L30.806641 1.8808594 A 1.0001 1.0001 0 0 0 30.230469 3.0429688L30.896484 5.7070312C30.514151 6.0309064 30.147918 6.3945171 29.802734 6.7988281L27.035156 6.1289062 A 1.0001 1.0001 0 0 0 25.880859 6.7070312L24.681641 9.5058594 A 1.0001 1.0001 0 0 0 25.072266 10.75L27.505859 12.259766C27.476019 12.762394 27.478342 13.251544 27.507812 13.732422L25.181641 15.144531 A 1.0001 1.0001 0 0 0 24.78125 16.394531L25.980469 19.193359 A 1.0001 1.0001 0 0 0 27.134766 19.771484L29.904297 19.101562C30.228962 19.485214 30.594358 19.851016 31 20.197266L30.328125 22.964844 A 1.0001 1.0001 0 0 0 30.90625 24.119141L33.707031 25.318359 A 1.0001 1.0001 0 0 0 34.949219 24.927734L36.460938 22.494141C36.965207 22.524021 37.457135 22.522008 37.939453 22.492188L39.451172 24.927734 A 1.0001 1.0001 0 0 0 40.693359 25.318359L43.494141 24.119141 A 1.0001 1.0001 0 0 0 44.072266 22.964844L43.400391 20.195312C43.783533 19.871056 44.150269 19.506518 44.496094 19.101562L47.263672 19.771484 A 1.0001 1.0001 0 0 0 48.419922 19.193359L49.619141 16.394531 A 1.0001 1.0001 0 0 0 49.226562 15.150391L46.728516 13.597656C46.659836 13.194361 46.609742 12.714794 46.566406 12.214844L48.927734 10.75 A 1.0001 1.0001 0 0 0 49.318359 9.5058594L48.119141 6.7070312 A 1.0001 1.0001 0 0 0 46.957031 6.1289062L44.292969 6.7949219C43.969483 6.4131383 43.604875 6.047859 43.201172 5.703125L43.871094 2.9355469 A 1.0001 1.0001 0 0 0 43.292969 1.78125L40.494141 0.58007812 A 1.0001 1.0001 0 0 0 40.105469 0.5 z M 40.496094 2.7578125L41.728516 3.2851562L41.128906 5.7636719 A 1.0001 1.0001 0 0 0 41.5 6.8007812C42.236 7.3527813 42.748383 7.8684398 43.185547 8.4804688 A 1.0001 1.0001 0 0 0 44.242188 8.8710938L46.617188 8.2773438L47.142578 9.5039062L44.972656 10.849609 A 1.0001 1.0001 0 0 0 44.507812 11.824219C44.596362 12.532624 44.587282 13.472158 44.830078 14.443359 A 1.0001 1.0001 0 0 0 45.273438 15.048828L47.441406 16.396484L46.914062 17.628906L44.435547 17.027344 A 1.0001 1.0001 0 0 0 43.400391 17.400391C42.848391 18.136391 42.330779 18.648774 41.71875 19.085938 A 1.0001 1.0001 0 0 0 41.328125 20.134766L41.929688 22.613281L40.695312 23.142578L39.349609 20.972656 A 1.0001 1.0001 0 0 0 38.375 20.507812C37.666595 20.596363 36.837042 20.597829 36.009766 20.505859 A 1.0001 1.0001 0 0 0 35.050781 20.972656L33.703125 23.142578L32.470703 22.613281L33.072266 20.134766 A 1.0001 1.0001 0 0 0 32.699219 19.099609C31.963219 18.547609 31.450835 18.029998 31.013672 17.417969 A 1.0001 1.0001 0 0 0 29.964844 17.027344L27.486328 17.628906L26.960938 16.404297L29.019531 15.154297 A 1.0001 1.0001 0 0 0 29.492188 14.175781C29.403637 13.467376 29.402171 12.637824 29.494141 11.810547 A 1.0001 1.0001 0 0 0 29.027344 10.849609L26.857422 9.5039062L27.386719 8.2714844L29.865234 8.8710938 A 1.0001 1.0001 0 0 0 30.900391 8.5C31.452391 7.764 31.970002 7.2516166 32.582031 6.8144531 A 1.0001 1.0001 0 0 0 32.970703 5.7578125L32.376953 3.3828125L33.595703 2.8613281L34.845703 4.9199219 A 1.0001 1.0001 0 0 0 35.824219 5.3925781C36.532624 5.3040271 37.362176 5.3026142 38.189453 5.3945312 A 1.0001 1.0001 0 0 0 39.150391 4.9277344L40.496094 2.7578125 z M 37 8.0996094C35.45 8.0996094 34.161397 8.716865 33.328125 9.6542969C32.494853 10.591729 32.099609 11.802778 32.099609 13C32.099609 14.197222 32.494853 15.408271 33.328125 16.345703C34.161397 17.283135 35.45 17.900391 37 17.900391C38.55 17.900391 39.838603 17.283135 40.671875 16.345703C41.505147 15.408271 41.900391 14.197222 41.900391 13C41.900391 11.802778 41.505147 10.591729 40.671875 9.6542969C39.838603 8.716865 38.55 8.0996094 37 8.0996094 z M 37 10.099609C38.049999 10.099609 38.711007 10.457354 39.177734 10.982422C39.644461 11.50749 39.900391 12.247222 39.900391 13C39.900391 13.752778 39.644461 14.49251 39.177734 15.017578C38.711007 15.542646 38.049999 15.900391 37 15.900391C35.950001 15.900391 35.288993 15.542646 34.822266 15.017578C34.355539 14.49251 34.099609 13.752778 34.099609 13C34.099609 12.247222 34.355539 11.50749 34.822266 10.982422C35.288993 10.457354 35.950001 10.099609 37 10.099609 z M 14.599609 17.599609 A 1.0001 1.0001 0 0 0 13.613281 18.439453L13 22.203125C12.299733 22.428033 11.617407 22.715652 10.949219 23.064453L7.8964844 20.796875 A 1.0001 1.0001 0 0 0 6.59375 20.892578L3.8925781 23.59375 A 1.0001 1.0001 0 0 0 3.796875 24.896484L6.0644531 27.949219C5.7156524 28.617407 5.4280329 29.299733 5.203125 30L1.4394531 30.613281 A 1.0001 1.0001 0 0 0 0.59960938 31.599609L0.59960938 35.400391 A 1.0001 1.0001 0 0 0 1.4394531 36.386719L5.203125 37C5.4280329 37.700267 5.7156525 38.382593 6.0644531 39.050781L3.796875 42.103516 A 1.0001 1.0001 0 0 0 3.8925781 43.40625L6.59375 46.107422 A 1.0001 1.0001 0 0 0 7.8964844 46.203125L10.949219 43.935547C11.617407 44.284348 12.299733 44.571967 13 44.796875L13.613281 48.560547 A 1.0001 1.0001 0 0 0 14.599609 49.400391L18.400391 49.400391 A 1.0001 1.0001 0 0 0 19.386719 48.560547L20 44.796875C20.700267 44.571967 21.382593 44.284348 22.050781 43.935547L25.103516 46.203125 A 1.0001 1.0001 0 0 0 26.40625 46.107422L29.107422 43.40625 A 1.0001 1.0001 0 0 0 29.203125 42.103516L26.935547 39.050781C27.284348 38.382593 27.571967 37.700267 27.796875 37L31.560547 36.386719 A 1.0001 1.0001 0 0 0 32.400391 35.400391L32.400391 31.599609 A 1.0001 1.0001 0 0 0 31.560547 30.613281L27.796875 30C27.571967 29.299733 27.284348 28.617407 26.935547 27.949219L29.203125 24.896484 A 1.0001 1.0001 0 0 0 29.107422 23.59375L26.40625 20.892578 A 1.0001 1.0001 0 0 0 25.103516 20.796875L22.050781 23.064453C21.382593 22.715649 20.700267 22.428033 20 22.203125L19.386719 18.439453 A 1.0001 1.0001 0 0 0 18.400391 17.599609L14.599609 17.599609 z M 15.451172 19.599609L17.548828 19.599609L18.113281 23.060547 A 1.0001 1.0001 0 0 0 18.835938 23.865234C19.866671 24.146344 20.769615 24.507081 21.685547 25.056641 A 1.0001 1.0001 0 0 0 22.796875 25.001953L25.603516 22.917969L27.082031 24.396484L24.998047 27.203125 A 1.0001 1.0001 0 0 0 24.943359 28.314453C25.492919 29.230385 25.853656 30.133328 26.134766 31.164062 A 1.0001 1.0001 0 0 0 26.939453 31.886719L30.400391 32.451172L30.400391 34.548828L26.939453 35.113281 A 1.0001 1.0001 0 0 0 26.134766 35.835938C25.853656 36.866672 25.492919 37.769615 24.943359 38.685547 A 1.0001 1.0001 0 0 0 24.998047 39.796875L27.082031 42.603516L25.603516 44.082031L22.796875 41.998047 A 1.0001 1.0001 0 0 0 21.685547 41.943359C20.769615 42.492919 19.866672 42.853656 18.835938 43.134766 A 1.0001 1.0001 0 0 0 18.113281 43.939453L17.548828 47.400391L15.451172 47.400391L14.886719 43.939453 A 1.0001 1.0001 0 0 0 14.164062 43.134766C13.133328 42.853656 12.230385 42.492919 11.314453 41.943359 A 1.0001 1.0001 0 0 0 10.203125 41.998047L7.3964844 44.082031L5.9179688 42.603516L8.0019531 39.796875 A 1.0001 1.0001 0 0 0 8.0566406 38.685547C7.5070819 37.769615 7.1463439 36.866672 6.8652344 35.835938 A 1.0001 1.0001 0 0 0 6.0605469 35.113281L2.5996094 34.548828L2.5996094 32.451172L6.0605469 31.886719 A 1.0001 1.0001 0 0 0 6.8652344 31.164062C7.1463439 30.133329 7.5070814 29.230385 8.0566406 28.314453 A 1.0001 1.0001 0 0 0 8.0019531 27.203125L5.9179688 24.396484L7.3964844 22.917969L10.203125 25.001953 A 1.0001 1.0001 0 0 0 11.314453 25.056641C12.230385 24.507081 13.133329 24.146344 14.164062 23.865234 A 1.0001 1.0001 0 0 0 14.886719 23.060547L15.451172 19.599609 z M 16.5 27.5C14.583334 27.5 13.018559 28.254756 12.001953 29.398438C10.985347 30.542119 10.5 32.027778 10.5 33.5C10.5 34.972222 10.985347 36.457881 12.001953 37.601562C13.018559 38.745244 14.583334 39.5 16.5 39.5C19.801865 39.5 22.5 36.801863 22.5 33.5C22.5 30.198137 19.801865 27.5 16.5 27.5 z M 16.5 29.5C18.720986 29.5 20.5 31.279015 20.5 33.5C20.5 35.720985 18.720986 37.5 16.5 37.5C15.083334 37.5 14.148107 37.004756 13.498047 36.273438C12.847987 35.542119 12.5 34.527778 12.5 33.5C12.5 32.472222 12.847987 31.457881 13.498047 30.726562C14.148107 29.995244 15.083334 29.5 16.5 29.5 z" />
</svg>