<?xml version="1.0" encoding="utf-8"?>
<svg xmlns="http://www.w3.org/2000/svg" width="515" height="515" viewBox="0 0 50 50">
  <path d="M33.179688 1.8085938L25.966797 20.013672L11.873047 20.013672C11.486836 17.500011 10.104383 15.424219 7.9667969 14.316406C7.9753855 14.210201 8 14.108291 8 14C8 11.802706 6.1972944 10 4 10C1.8027056 10 0 11.802706 0 14C0 16.197294 1.8027056 18 4 18C5.3698293 18 6.5866486 17.298345 7.3085938 16.238281C9.0123611 17.239473 10.005859 19.02515 10.005859 21.462891 A 0.99459943 0.99459943 0 0 0 10.033203 21.71875C10.274925 27.913818 13.62285 33.009874 18.589844 36.021484C15.478486 36.234762 13 38.836602 13 42C13 45.301864 15.698136 48 19 48C22.301864 48 25 45.301864 25 42C25 40.555434 24.484447 39.225565 23.626953 38.1875C25.48463 38.705978 27.456504 38.986328 29.5 38.986328C32.075064 38.986328 34.536809 38.540679 36.796875 37.730469C35.690044 38.820292 35 40.332232 35 42C35 45.301864 37.698136 48 41 48C44.301864 48 47 45.301864 47 42C47 38.698136 44.301864 36 41 36C40.795606 36 40.593801 36.011069 40.394531 36.03125C45.561646 32.905111 48.986328 27.526614 48.986328 21L48.986328 20.84375 A 0.99459943 0.99459943 0 0 0 48.994141 20.691406C48.994141 20.630633 48.98688 20.57231 48.986328 20.511719L48.986328 20.013672L48.964844 20.013672C48.659256 11.139566 42.435746 4.2999594 34.037109 2.0390625L33.179688 1.8085938 z M 34.330078 4.3105469C41.529183 6.5820549 46.687302 12.362542 46.978516 20.013672L28.107422 20.013672L34.330078 4.3105469 z M 4 12C5.1164141 12 6 12.883586 6 14C6 15.116414 5.1164141 16 4 16C2.8835859 16 2 15.116414 2 14C2 12.883586 2.8835859 12 4 12 z M 12.089844 21.986328L46.910156 21.986328C46.372881 30.816733 38.911754 37.013672 29.5 37.013672C20.08724 37.013672 12.62705 30.816787 12.089844 21.986328 z M 19 38C21.220984 38 23 39.779016 23 42C23 44.220984 21.220984 46 19 46C16.779016 46 15 44.220984 15 42C15 39.779016 16.779016 38 19 38 z M 41 38C43.220984 38 45 39.779016 45 42C45 44.220984 43.220984 46 41 46C38.779016 46 37 44.220984 37 42C37 39.779016 38.779016 38 41 38 z" />
</svg>