<?xml version="1.0" encoding="utf-8"?>
<svg xmlns="http://www.w3.org/2000/svg" viewBox="0 0 50 50" width="515" height="515">
  <path d="M36.78125 1C36.464844 0.929688 36.128906 1.222656 36.03125 1.625C35.960938 1.917969 36.019531 2.183594 36.1875 2.34375C36.25 2.402344 36.351563 2.449219 36.4375 2.46875C36.753906 2.539063 37.089844 2.277344 37.1875 1.875C37.257813 1.582031 37.167969 1.285156 37 1.125C36.9375 1.066406 36.867188 1.019531 36.78125 1 Z M 38.40625 1.15625C38.144531 1.222656 37.894531 1.476563 37.8125 1.8125C37.730469 2.136719 37.8125 2.445313 38 2.625C38.070313 2.695313 38.183594 2.757813 38.28125 2.78125C38.640625 2.867188 39.015625 2.570313 39.125 2.125C39.207031 1.800781 39.125 1.492188 38.9375 1.3125C38.867188 1.242188 38.785156 1.179688 38.6875 1.15625C38.597656 1.136719 38.492188 1.132813 38.40625 1.15625 Z M 40.8125 1.8125C40.507813 1.785156 40.128906 1.949219 39.875 2.28125C39.558594 2.695313 39.546875 3.214844 39.8125 3.46875C39.832031 3.488281 39.851563 3.484375 39.875 3.5C40.203125 3.734375 40.722656 3.570313 41.0625 3.125C41.378906 2.710938 41.421875 2.191406 41.15625 1.9375C41.136719 1.917969 41.117188 1.921875 41.09375 1.90625C41.011719 1.847656 40.914063 1.820313 40.8125 1.8125 Z M 36.1875 3C34.144531 3 32.1875 4.367188 30.65625 6.1875C29.125 8.007813 28 10.347656 28 12.75C28 13.433594 28.140625 14.355469 28.65625 15.25C29.171875 16.144531 30.226563 17 31.625 17C32.507813 17 33.246094 16.800781 33.8125 16.40625C34.378906 16.011719 34.714844 15.488281 34.9375 15C35.382813 14.023438 35.542969 13.238281 36 12.78125C36.046875 12.734375 36.394531 12.546875 36.9375 12.40625C37.480469 12.265625 38.167969 12.117188 38.875 11.90625C39.582031 11.695313 40.347656 11.421875 40.96875 10.84375C41.589844 10.265625 42 9.359375 42 8.3125C42 7.304688 41.667969 6.035156 40.75 4.9375C39.832031 3.839844 38.28125 3 36.1875 3 Z M 42.71875 3.125C42.445313 3.144531 42.160156 3.234375 41.90625 3.4375C41.378906 3.859375 41.230469 4.519531 41.5625 4.90625C41.578125 4.921875 41.578125 4.953125 41.59375 4.96875C41.941406 5.304688 42.589844 5.246094 43.09375 4.84375C43.621094 4.421875 43.800781 3.761719 43.46875 3.375C43.453125 3.359375 43.421875 3.359375 43.40625 3.34375C43.230469 3.175781 42.992188 3.105469 42.71875 3.125 Z M 36.1875 5C37.773438 5 38.648438 5.539063 39.21875 6.21875C39.789063 6.898438 40 7.808594 40 8.3125C40 8.898438 39.855469 9.132813 39.59375 9.375C39.332031 9.617188 38.882813 9.832031 38.3125 10C37.742188 10.167969 37.082031 10.300781 36.4375 10.46875C35.792969 10.636719 35.152344 10.785156 34.59375 11.34375C33.609375 12.328125 33.414063 13.523438 33.125 14.15625C32.980469 14.472656 32.828125 14.628906 32.65625 14.75C32.484375 14.871094 32.226563 15 31.625 15C30.945313 15 30.679688 14.722656 30.40625 14.25C30.132813 13.777344 30 13.074219 30 12.75C30 11.007813 30.902344 8.992188 32.1875 7.46875C33.472656 5.945313 35.136719 5 36.1875 5 Z M 44.75 5.03125C44.402344 4.992188 44.019531 5.054688 43.65625 5.21875C42.757813 5.621094 42.289063 6.535156 42.625 7.25C42.6875 7.382813 42.769531 7.492188 42.875 7.59375C43.328125 8.027344 44.144531 8.140625 44.875 7.8125C45.773438 7.410156 46.210938 6.496094 45.875 5.78125C45.8125 5.648438 45.730469 5.539063 45.625 5.4375C45.398438 5.21875 45.097656 5.070313 44.75 5.03125 Z M 14.78125 12C14.464844 11.929688 14.128906 12.222656 14.03125 12.625C13.960938 12.917969 14.019531 13.183594 14.1875 13.34375C14.25 13.402344 14.351563 13.449219 14.4375 13.46875C14.753906 13.539063 15.089844 13.277344 15.1875 12.875C15.257813 12.582031 15.167969 12.285156 15 12.125C14.9375 12.066406 14.867188 12.019531 14.78125 12 Z M 16.40625 12.15625C16.144531 12.222656 15.894531 12.476563 15.8125 12.8125C15.730469 13.136719 15.8125 13.445313 16 13.625C16.070313 13.695313 16.183594 13.757813 16.28125 13.78125C16.640625 13.867188 17.015625 13.570313 17.125 13.125C17.207031 12.800781 17.125 12.492188 16.9375 12.3125C16.867188 12.242188 16.785156 12.179688 16.6875 12.15625C16.597656 12.136719 16.492188 12.132813 16.40625 12.15625 Z M 18.8125 12.8125C18.507813 12.785156 18.128906 12.949219 17.875 13.28125C17.558594 13.695313 17.546875 14.214844 17.8125 14.46875C17.832031 14.488281 17.851563 14.484375 17.875 14.5C18.203125 14.734375 18.722656 14.570313 19.0625 14.125C19.378906 13.710938 19.421875 13.191406 19.15625 12.9375C19.136719 12.917969 19.117188 12.921875 19.09375 12.90625C19.011719 12.847656 18.914063 12.820313 18.8125 12.8125 Z M 14.1875 14C12.144531 14 10.1875 15.367188 8.65625 17.1875C7.125 19.007813 6 21.347656 6 23.75C6 24.433594 6.140625 25.355469 6.65625 26.25C7.171875 27.144531 8.226563 28 9.625 28C10.507813 28 11.246094 27.800781 11.8125 27.40625C12.378906 27.011719 12.714844 26.488281 12.9375 26C13.382813 25.023438 13.542969 24.238281 14 23.78125C14.046875 23.734375 14.394531 23.546875 14.9375 23.40625C15.480469 23.265625 16.167969 23.117188 16.875 22.90625C17.582031 22.695313 18.347656 22.421875 18.96875 21.84375C19.589844 21.265625 20 20.359375 20 19.3125C20 18.304688 19.667969 17.035156 18.75 15.9375C17.832031 14.839844 16.28125 14 14.1875 14 Z M 20.71875 14.125C20.445313 14.144531 20.160156 14.234375 19.90625 14.4375C19.378906 14.859375 19.230469 15.519531 19.5625 15.90625C19.578125 15.921875 19.578125 15.953125 19.59375 15.96875C19.941406 16.304688 20.589844 16.246094 21.09375 15.84375C21.621094 15.421875 21.800781 14.761719 21.46875 14.375C21.453125 14.359375 21.421875 14.359375 21.40625 14.34375C21.230469 14.175781 20.992188 14.105469 20.71875 14.125 Z M 14.1875 16C15.773438 16 16.648438 16.539063 17.21875 17.21875C17.789063 17.898438 18 18.808594 18 19.3125C18 19.898438 17.855469 20.132813 17.59375 20.375C17.332031 20.617188 16.882813 20.832031 16.3125 21C15.742188 21.167969 15.082031 21.300781 14.4375 21.46875C13.792969 21.636719 13.152344 21.785156 12.59375 22.34375C11.609375 23.328125 11.414063 24.523438 11.125 25.15625C10.980469 25.472656 10.828125 25.628906 10.65625 25.75C10.484375 25.871094 10.226563 26 9.625 26C8.945313 26 8.679688 25.722656 8.40625 25.25C8.132813 24.777344 8 24.074219 8 23.75C8 22.007813 8.902344 19.992188 10.1875 18.46875C11.472656 16.945313 13.136719 16 14.1875 16 Z M 22.75 16.03125C22.402344 15.992188 22.019531 16.054688 21.65625 16.21875C20.757813 16.621094 20.289063 17.535156 20.625 18.25C20.6875 18.382813 20.769531 18.492188 20.875 18.59375C21.328125 19.027344 22.144531 19.140625 22.875 18.8125C23.773438 18.410156 24.210938 17.496094 23.875 16.78125C23.8125 16.648438 23.730469 16.539063 23.625 16.4375C23.398438 16.21875 23.097656 16.070313 22.75 16.03125 Z M 39.65625 19C39.082031 19.027344 38.488281 19.453125 38.1875 20.125C37.863281 20.855469 37.972656 21.671875 38.40625 22.125C38.507813 22.230469 38.617188 22.3125 38.75 22.375C39.464844 22.710938 40.378906 22.242188 40.78125 21.34375C41.109375 20.613281 40.996094 19.828125 40.5625 19.375C40.460938 19.269531 40.351563 19.1875 40.21875 19.125C40.039063 19.039063 39.847656 18.992188 39.65625 19 Z M 42.28125 21.375C41.914063 21.304688 41.472656 21.507813 41.15625 21.90625C40.753906 22.410156 40.695313 23.058594 41.03125 23.40625C41.046875 23.421875 41.078125 23.421875 41.09375 23.4375C41.480469 23.769531 42.140625 23.621094 42.5625 23.09375C42.964844 22.585938 42.992188 21.941406 42.65625 21.59375C42.640625 21.578125 42.640625 21.546875 42.625 21.53125C42.527344 21.449219 42.402344 21.398438 42.28125 21.375 Z M 37.6875 23C36.640625 23 35.734375 23.410156 35.15625 24.03125C34.578125 24.652344 34.304688 25.417969 34.09375 26.125C33.882813 26.832031 33.734375 27.519531 33.59375 28.0625C33.453125 28.605469 33.265625 28.953125 33.21875 29C32.761719 29.457031 31.976563 29.617188 31 30.0625C30.511719 30.285156 29.988281 30.621094 29.59375 31.1875C29.199219 31.753906 29 32.492188 29 33.375C29 34.773438 29.855469 35.828125 30.75 36.34375C31.644531 36.859375 32.566406 37 33.25 37C35.652344 37 37.992188 35.875 39.8125 34.34375C41.632813 32.8125 43 30.855469 43 28.8125C43 26.71875 42.160156 25.167969 41.0625 24.25C39.964844 23.332031 38.695313 23 37.6875 23 Z M 43.53125 23.65625C43.320313 23.667969 43.082031 23.78125 42.875 23.9375C42.429688 24.277344 42.265625 24.796875 42.5 25.125C42.515625 25.148438 42.511719 25.167969 42.53125 25.1875C42.785156 25.453125 43.304688 25.441406 43.71875 25.125C44.164063 24.785156 44.328125 24.234375 44.09375 23.90625C44.078125 23.882813 44.082031 23.863281 44.0625 23.84375C43.933594 23.710938 43.742188 23.644531 43.53125 23.65625 Z M 37.6875 25C38.191406 25 39.101563 25.210938 39.78125 25.78125C40.460938 26.351563 41 27.226563 41 28.8125C41 29.863281 40.054688 31.527344 38.53125 32.8125C37.007813 34.097656 34.992188 35 33.25 35C32.925781 35 32.222656 34.867188 31.75 34.59375C31.277344 34.320313 31 34.054688 31 33.375C31 32.773438 31.128906 32.515625 31.25 32.34375C31.371094 32.171875 31.527344 32.019531 31.84375 31.875C32.476563 31.585938 33.671875 31.390625 34.65625 30.40625C35.214844 29.847656 35.363281 29.207031 35.53125 28.5625C35.699219 27.917969 35.832031 27.257813 36 26.6875C36.167969 26.117188 36.382813 25.667969 36.625 25.40625C36.867188 25.144531 37.101563 25 37.6875 25 Z M 44.125 25.84375C44.046875 25.84375 43.957031 25.855469 43.875 25.875C43.429688 25.984375 43.132813 26.359375 43.21875 26.71875C43.242188 26.816406 43.304688 26.929688 43.375 27C43.554688 27.1875 43.863281 27.269531 44.1875 27.1875C44.632813 27.078125 44.929688 26.671875 44.84375 26.3125C44.820313 26.214844 44.757813 26.132813 44.6875 26.0625C44.550781 25.921875 44.359375 25.839844 44.125 25.84375 Z M 44.125 27.8125C43.722656 27.910156 43.460938 28.246094 43.53125 28.5625C43.550781 28.648438 43.597656 28.75 43.65625 28.8125C43.816406 28.980469 44.082031 29.039063 44.375 28.96875C44.777344 28.871094 45.070313 28.535156 45 28.21875C44.980469 28.132813 44.933594 28.0625 44.875 28C44.714844 27.832031 44.417969 27.742188 44.125 27.8125 Z M 17.65625 31C17.082031 31.027344 16.488281 31.453125 16.1875 32.125C15.863281 32.855469 15.972656 33.671875 16.40625 34.125C16.507813 34.230469 16.617188 34.3125 16.75 34.375C17.464844 34.710938 18.378906 34.242188 18.78125 33.34375C19.109375 32.613281 18.996094 31.828125 18.5625 31.375C18.460938 31.269531 18.351563 31.1875 18.21875 31.125C18.039063 31.039063 17.847656 30.992188 17.65625 31 Z M 20.28125 33.375C19.914063 33.304688 19.472656 33.507813 19.15625 33.90625C18.753906 34.410156 18.695313 35.058594 19.03125 35.40625C19.046875 35.421875 19.078125 35.421875 19.09375 35.4375C19.480469 35.769531 20.140625 35.621094 20.5625 35.09375C20.964844 34.585938 20.992188 33.941406 20.65625 33.59375C20.640625 33.578125 20.640625 33.546875 20.625 33.53125C20.527344 33.449219 20.402344 33.398438 20.28125 33.375 Z M 15.6875 35C14.640625 35 13.734375 35.410156 13.15625 36.03125C12.578125 36.652344 12.304688 37.417969 12.09375 38.125C11.882813 38.832031 11.734375 39.519531 11.59375 40.0625C11.453125 40.605469 11.265625 40.953125 11.21875 41C10.761719 41.457031 9.976563 41.617188 9 42.0625C8.511719 42.285156 7.988281 42.621094 7.59375 43.1875C7.199219 43.753906 7 44.492188 7 45.375C7 46.773438 7.855469 47.828125 8.75 48.34375C9.644531 48.859375 10.566406 49 11.25 49C13.652344 49 15.992188 47.875 17.8125 46.34375C19.632813 44.8125 21 42.855469 21 40.8125C21 38.71875 20.160156 37.167969 19.0625 36.25C17.964844 35.332031 16.695313 35 15.6875 35 Z M 21.53125 35.65625C21.320313 35.667969 21.082031 35.78125 20.875 35.9375C20.429688 36.277344 20.265625 36.796875 20.5 37.125C20.515625 37.148438 20.511719 37.167969 20.53125 37.1875C20.785156 37.453125 21.304688 37.441406 21.71875 37.125C22.164063 36.785156 22.328125 36.234375 22.09375 35.90625C22.078125 35.882813 22.082031 35.863281 22.0625 35.84375C21.933594 35.710938 21.742188 35.644531 21.53125 35.65625 Z M 15.6875 37C16.191406 37 17.101563 37.210938 17.78125 37.78125C18.460938 38.351563 19 39.226563 19 40.8125C19 41.863281 18.054688 43.527344 16.53125 44.8125C15.007813 46.097656 12.992188 47 11.25 47C10.925781 47 10.222656 46.867188 9.75 46.59375C9.277344 46.320313 9 46.054688 9 45.375C9 44.773438 9.128906 44.515625 9.25 44.34375C9.371094 44.171875 9.527344 44.019531 9.84375 43.875C10.476563 43.585938 11.671875 43.390625 12.65625 42.40625C13.214844 41.847656 13.363281 41.207031 13.53125 40.5625C13.699219 39.917969 13.832031 39.257813 14 38.6875C14.167969 38.117188 14.382813 37.667969 14.625 37.40625C14.867188 37.144531 15.101563 37 15.6875 37 Z M 22.125 37.84375C22.046875 37.84375 21.957031 37.855469 21.875 37.875C21.429688 37.984375 21.132813 38.359375 21.21875 38.71875C21.242188 38.816406 21.304688 38.929688 21.375 39C21.554688 39.1875 21.863281 39.269531 22.1875 39.1875C22.632813 39.078125 22.929688 38.671875 22.84375 38.3125C22.820313 38.214844 22.757813 38.132813 22.6875 38.0625C22.550781 37.921875 22.359375 37.839844 22.125 37.84375 Z M 22.125 39.8125C21.722656 39.910156 21.460938 40.246094 21.53125 40.5625C21.550781 40.648438 21.597656 40.75 21.65625 40.8125C21.816406 40.980469 22.082031 41.039063 22.375 40.96875C22.777344 40.871094 23.070313 40.535156 23 40.21875C22.980469 40.132813 22.933594 40.0625 22.875 40C22.714844 39.832031 22.417969 39.742188 22.125 39.8125Z" />
</svg>