<?xml version="1.0" encoding="utf-8"?>
<svg xmlns="http://www.w3.org/2000/svg" viewBox="0 0 50 50" width="515" height="515">
  <path d="M25 2C12.308594 2 2 12.308594 2 25C2 37.691406 12.308594 48 25 48C37.691406 48 48 37.691406 48 25C48 12.308594 37.691406 2 25 2 Z M 25 4C36.609375 4 46 13.390625 46 25C46 36.609375 36.609375 46 25 46C13.390625 46 4 36.609375 4 25C4 13.390625 13.390625 4 25 4 Z M 20.875 16C20.652344 16.023438 20.441406 16.125 20.28125 16.28125L12.4375 24.15625L12.34375 24.1875C12.320313 24.207031 12.300781 24.226563 12.28125 24.25L12.28125 24.28125C12.257813 24.300781 12.238281 24.320313 12.21875 24.34375C12.195313 24.363281 12.175781 24.382813 12.15625 24.40625C12.15625 24.417969 12.15625 24.425781 12.15625 24.4375C12.132813 24.457031 12.113281 24.476563 12.09375 24.5C12.09375 24.511719 12.09375 24.519531 12.09375 24.53125C12.03125 24.636719 11.988281 24.753906 11.96875 24.875C11.96875 24.886719 11.96875 24.894531 11.96875 24.90625C11.96875 24.9375 11.96875 24.96875 11.96875 25C11.96875 25.019531 11.96875 25.042969 11.96875 25.0625C11.96875 25.074219 11.96875 25.082031 11.96875 25.09375C11.984375 25.226563 12.027344 25.351563 12.09375 25.46875C12.101563 25.488281 12.113281 25.511719 12.125 25.53125C12.136719 25.542969 12.144531 25.550781 12.15625 25.5625C12.164063 25.582031 12.175781 25.605469 12.1875 25.625C12.199219 25.636719 12.207031 25.644531 12.21875 25.65625C12.230469 25.667969 12.238281 25.675781 12.25 25.6875C12.261719 25.699219 12.269531 25.707031 12.28125 25.71875C12.335938 25.777344 12.398438 25.832031 12.46875 25.875L20.28125 33.71875C20.679688 34.117188 21.320313 34.117188 21.71875 33.71875C22.117188 33.320313 22.117188 32.679688 21.71875 32.28125L15.4375 26L37 26C37.359375 26.003906 37.695313 25.816406 37.878906 25.503906C38.058594 25.191406 38.058594 24.808594 37.878906 24.496094C37.695313 24.183594 37.359375 23.996094 37 24L15.4375 24L21.71875 17.71875C22.042969 17.417969 22.128906 16.941406 21.933594 16.546875C21.742188 16.148438 21.308594 15.929688 20.875 16Z" />
</svg>