<?xml version="1.0" encoding="utf-8"?>
<svg xmlns="http://www.w3.org/2000/svg" viewBox="0 0 50 50" width="515" height="515">
  <path d="M25.099609 2C23.693798 2 22.25857 2.5416711 21.095703 3.4277344C19.932837 4.3137976 19 5.6148751 19 7.1796875L19 7.9492188C12.289747 10.079077 7 15.671204 7 23L7 24L7 28.050781L6.0097656 28.050781C5.193099 28.050781 4.4359021 28.380504 3.8925781 28.923828L3.8886719 28.927734L3.8828125 28.933594C3.3572616 29.473743 3.0097656 30.221993 3.0097656 31.050781C3.0097656 31.170316 3.0310328 31.284334 3.0449219 31.400391L3 31.400391L3 40C3 42.195455 4.8045455 44 7 44L7.6855469 44C8.8133746 46.359626 11.219173 48 14 48L36 48C38.772877 48 41.179841 46.356755 42.310547 44L43 44C45.195455 44 47 42.195455 47 40L47 31.400391L46.964844 31.400391C46.978733 31.284334 47 31.170316 47 31.050781C47 30.221993 46.652504 29.473743 46.126953 28.933594L46.121094 28.927734L46.117188 28.923828C45.573898 28.380538 44.816667 28.050781 44 28.050781L43 28.050781L43 24L43 23C43 15.671204 37.710253 10.079077 31 7.9492188L31 7.1796875C31 5.6437351 30.138923 4.3384105 29.023438 3.4433594C27.907952 2.5483083 26.505421 2 25.099609 2 z M 25.099609 4C25.953798 4 27.00197 4.3864574 27.771484 5.0039062C28.540999 5.6213552 29 6.4056399 29 7.1796875L29 7.4257812C27.693837 7.1563977 26.354776 7 25 7C23.645224 7 22.306163 7.1563977 21 7.4257812L21 7.1796875C21 6.4344999 21.48646 5.645968 22.308594 5.0195312C23.130727 4.3930945 24.245421 4 25.099609 4 z M 25 9C33.330303 9 41 14.821212 41 23L41 24L41 41C41 43.754545 38.754545 46 36 46L14 46C11.226334 46 9 43.773666 9 41L9 24L9 23C9 14.821212 16.669697 9 25 9 z M 24.976562 12C19.486894 12.127959 15.423962 14.349057 13.191406 17.410156 A 1.0008697 1.0008697 0 1 0 14.808594 18.589844C16.630942 16.091188 20.035418 14.124073 25 14.001953C29.963421 14.124072 33.369102 16.092147 35.191406 18.589844 A 1.0008697 1.0008697 0 1 0 36.808594 17.410156C34.575994 14.350097 30.512277 12.127965 25.023438 12L25 12L24.976562 12 z M 35.984375 20.042969 A 1.0001 1.0001 0 0 0 35 21.056641L35 23.107422 A 1.0001 1.0001 0 1 0 37 23.107422L37 21.056641 A 1.0001 1.0001 0 0 0 35.984375 20.042969 z M 16 27C14.354545 27 13 28.354545 13 30L13 31L13 40C13 41.645455 14.354545 43 16 43L34 43C35.645455 43 37 41.645455 37 40L37 30C37 28.354545 35.645455 27 34 27L16 27 z M 16 29L34 29C34.554545 29 35 29.445455 35 30C35 30.56503 34.56503 31 34 31L16 31C15.43497 31 15 30.56503 15 30C15 29.445455 15.445455 29 16 29 z M 6.0097656 30.050781L7 30.050781L7 32.050781L6.0097656 32.050781C5.4552202 32.050781 5.0097656 31.605327 5.0097656 31.050781C5.0097656 30.782581 5.1220187 30.5347 5.3125 30.335938C5.4888065 30.161763 5.7287314 30.050781 6.0097656 30.050781 z M 43 30.050781L44 30.050781C44.281034 30.050781 44.520959 30.161763 44.697266 30.335938C44.887747 30.5347 45 30.782581 45 31.050781C45 31.605327 44.554545 32.050781 44 32.050781L43 32.050781L43 30.050781 z M 15 32.78125C15.30191 32.91689 15.632729 33 16 33L34 33C34.367271 33 34.69809 32.91689 35 32.78125L35 40C35 40.554545 34.554545 41 34 41L16 41C15.445455 41 15 40.554545 15 40L15 32.78125 z M 5 33.861328C5.3175467 33.976999 5.654357 34.050781 6.0097656 34.050781L7 34.050781L7 41C7 41.340337 7.0327033 41.672392 7.0800781 42L7 42C5.8954545 42 5 41.104545 5 40L5 33.861328 z M 45 33.863281L45 40C45 41.104545 44.104545 42 43 42L42.919922 42C42.967567 41.672412 43 41.340101 43 41L43 34.050781L44 34.050781C44.351946 34.050781 44.685079 33.976811 45 33.863281 z M 18 37 A 1.0001 1.0001 0 1 0 18 39L20 39 A 1.0001 1.0001 0 1 0 20 37L18 37 z M 24 37 A 1.0001 1.0001 0 1 0 24 39L26 39 A 1.0001 1.0001 0 1 0 26 37L24 37 z M 30 37 A 1.0001 1.0001 0 1 0 30 39L32 39 A 1.0001 1.0001 0 1 0 32 37L30 37 z" />
</svg>