<?xml version="1.0" encoding="utf-8"?>
<svg xmlns="http://www.w3.org/2000/svg" viewBox="0 0 50 50" width="515" height="515">
  <path d="M44.78125 2C44.269531 2.046875 43.746094 2.195313 43.21875 2.375C41.925781 2.816406 40.535156 3.582031 39.09375 4.4375L38.53125 3.84375C38.410156 3.722656 38.257813 3.636719 38.09375 3.59375C38.09375 3.59375 37.746094 3.507813 37.125 3.4375C36.503906 3.367188 35.625 3.339844 34.59375 3.5C32.535156 3.820313 29.792969 4.863281 27 7.65625C24.28125 10.375 22.6875 12.746094 21.625 14.59375C20.5625 16.441406 19.980469 17.75 19.40625 18.375C18.492188 19.371094 17.3125 18.84375 17.3125 18.84375C16.804688 18.628906 16.214844 18.867188 16 19.375C15.785156 19.882813 16.023438 20.472656 16.53125 20.6875C16.53125 20.6875 19.097656 21.6875 20.875 19.75C21.84375 18.695313 22.371094 17.339844 23.375 15.59375C24.378906 13.847656 25.820313 11.679688 28.40625 9.09375C30.921875 6.582031 33.234375 5.730469 34.90625 5.46875C36.460938 5.226563 37.21875 5.496094 37.34375 5.53125L37.4375 5.625C35.160156 7.417969 29.820313 11.773438 24.09375 17.5C16.53125 25.0625 7.90625 35.40625 7.90625 35.40625C7.757813 35.59375 7.679688 35.824219 7.6875 36.0625C5.808594 38.835938 4.75 41.140625 4.1875 42.78125C3.828125 43.832031 3.667969 44.527344 3.59375 45L2.25 46.3125C1.851563 46.710938 1.851563 47.351563 2.25 47.75C2.648438 48.148438 3.289063 48.148438 3.6875 47.75L5 46.40625C5.472656 46.332031 6.167969 46.171875 7.21875 45.8125C8.863281 45.25 11.1875 44.203125 13.96875 42.3125C14.195313 42.3125 14.414063 42.234375 14.59375 42.09375C14.59375 42.09375 24.9375 33.46875 32.5 25.90625C39.761719 18.644531 44.730469 12.082031 45.125 11.5625C45.183594 11.507813 45.238281 11.445313 45.28125 11.375C45.292969 11.363281 45.300781 11.355469 45.3125 11.34375C45.324219 11.332031 45.332031 11.324219 45.34375 11.3125C45.382813 11.253906 45.414063 11.191406 45.4375 11.125C46.347656 9.609375 47.160156 8.136719 47.625 6.78125C47.867188 6.078125 48.023438 5.402344 48 4.71875C47.976563 4.035156 47.738281 3.300781 47.21875 2.78125C46.699219 2.261719 45.964844 2.023438 45.28125 2C45.109375 1.992188 44.953125 1.984375 44.78125 2 Z M 45.21875 4C45.535156 4.011719 45.648438 4.085938 45.78125 4.21875C45.914063 4.351563 45.988281 4.464844 46 4.78125C46.011719 5.097656 45.941406 5.5625 45.75 6.125C45.460938 6.964844 44.886719 8.011719 44.25 9.125L40.875 5.75C41.988281 5.113281 43.035156 4.539063 43.875 4.25C44.4375 4.058594 44.902344 3.988281 45.21875 4 Z M 39.15625 6.875L43.125 10.875C42.402344 11.828125 37.960938 17.632813 31.09375 24.5C24.246094 31.347656 15.332031 38.84375 13.875 40.0625L9.9375 36.125C11.15625 34.667969 18.652344 25.753906 25.5 18.90625C32.386719 12.019531 38.226563 7.578125 39.15625 6.875 Z M 8.84375 37.375L12.625 41.15625C10.175781 42.769531 8.101563 43.734375 6.6875 44.21875C5.871094 44.5 5.863281 44.457031 5.46875 44.53125C5.542969 44.136719 5.5 44.128906 5.78125 43.3125C6.265625 41.898438 7.230469 39.824219 8.84375 37.375Z" />
</svg>