<?xml version="1.0" encoding="utf-8"?>
<svg xmlns="http://www.w3.org/2000/svg" viewBox="0 0 50 50" width="515" height="515">
  <path d="M2 0C1.476563 0 0.941406 0.183594 0.5625 0.5625C0.183594 0.941406 0 1.476563 0 2L0 48C0 48.523438 0.183594 49.058594 0.5625 49.4375C0.941406 49.816406 1.476563 50 2 50L48 50C48.523438 50 49.058594 49.816406 49.4375 49.4375C49.816406 49.058594 50 48.523438 50 48L50 2C50 1.476563 49.816406 0.941406 49.4375 0.5625C49.058594 0.183594 48.523438 0 48 0 Z M 2 2L48 2L48 48L2 48 Z M 24.09375 10L24.09375 12.8125C18.492188 13.113281 17.5 17.289063 17.5 19.1875C17.5 28.585938 31.1875 23.585938 31.1875 30.6875C31.1875 31.585938 30.992188 35.59375 25.09375 35.59375C24.894531 35.59375 18.800781 35.613281 19 29.3125L16.90625 29.3125C17.105469 36.011719 21.394531 36.886719 24.09375 37.1875L24.09375 40L26.09375 40L26.09375 37.1875C32.792969 36.6875 33.1875 31.6875 33.1875 30.6875C33.1875 21.6875 19.5 26.304688 19.5 19.40625C19.5 17.105469 20.394531 14.40625 25.09375 14.40625C29.894531 14.40625 30.492188 18.207031 30.59375 19.90625L32.6875 19.90625C32.886719 17.105469 30.894531 13.011719 26.09375 12.8125L26.09375 10Z" />
</svg>