<?xml version="1.0" encoding="utf-8"?>
<svg xmlns="http://www.w3.org/2000/svg" viewBox="0 0 50 50" width="515" height="515">
  <path d="M25.037109 2 A 1.0001 1.0001 0 0 0 24.576172 2.09375L2.5761719 12.394531 A 1.0001 1.0001 0 0 0 2 13.300781L2 16 A 1.0001 1.0001 0 0 0 3 17L6 17L6 40L4.8007812 40C3.2007813 40 2 41.415152 2 43L2 46L48 46L48 43C48 41.415152 46.799219 40 45.199219 40L44 40L44 17L47 17 A 1.0001 1.0001 0 0 0 48 16L48 13.300781 A 1.0001 1.0001 0 0 0 47.423828 12.394531L25.423828 2.09375 A 1.0001 1.0001 0 0 0 25.037109 2 z M 25 4.1035156L46 13.935547L46 15L37 15 A 1.0001 1.0001 0 1 0 37 17L38 17L38 40L12 40L12 17L13 17 A 1.0001 1.0001 0 1 0 13 15L11 15L7 15L4 15L4 13.935547L25 4.1035156 z M 24 11L24 14.060547C21.864575 14.317317 20.509402 15.378903 19.818359 16.462891C19.024786 17.707712 19 18.974609 19 18.974609 A 1.0001 1.0001 0 0 0 19 19C19 20.777778 19.85529 22.119015 20.988281 22.912109C22.121273 23.705203 23.462891 24.082031 24.712891 24.457031C25.962891 24.832031 27.121273 25.205203 27.863281 25.724609C28.60529 26.244015 29 26.777778 29 28C29 28.821748 28.774685 29.320619 28.447266 29.716797C28.119846 30.112975 27.651202 30.40482 27.136719 30.605469C26.107752 31.006766 25.019531 31 25.019531 31 A 1.0001 1.0001 0 0 0 25 31C22.776797 31 21.978189 30.064344 21.486328 29.060547C20.994468 28.05675 21 27.019531 21 27.019531L19 26.980469C19 26.980469 18.95631 28.44325 19.689453 29.939453C20.332949 31.252711 21.724428 32.613742 24 32.927734L24 36L26 36L26 32.927734C26.520984 32.861766 27.178107 32.735966 27.863281 32.46875C28.598798 32.181899 29.380154 31.730384 29.990234 30.992188C30.600315 30.253988 31 29.228252 31 28C31 26.222222 30.14471 24.880985 29.011719 24.087891C27.878727 23.294797 26.537109 22.917969 25.287109 22.542969C24.037109 22.167969 22.878727 21.794797 22.136719 21.275391C21.398886 20.758907 21.008313 20.223277 21.003906 19.015625C21.004252 19.005925 21.027646 18.287242 21.505859 17.537109C21.987286 16.78193 22.822109 16 25 16C27.109864 16 27.927545 16.936017 28.447266 17.955078C28.966987 18.974139 29 20.019531 29 20.019531L31 19.980469C31 19.980469 30.9838 18.525861 30.228516 17.044922C29.56828 15.75034 28.197957 14.393552 26 14.072266L26 11L24 11 z M 8 17L10 17L10 40L8 40L8 17 z M 40 17L42 17L42 40L40 40L40 17 z M 4.8007812 42L45.199219 42C45.599219 42 46 42.384848 46 43L46 44L4 44L4 43C4 42.384848 4.4007812 42 4.8007812 42 z" />
</svg>