<?xml version="1.0" encoding="utf-8"?>
<svg xmlns="http://www.w3.org/2000/svg" width="515" height="515" viewBox="0 0 50 50">
  <path d="M8 8.5C5.9721984 8.5 4.3079355 9.5026651 3.2148438 10.765625C2.1309943 12.017906 1.5 13.533354 1.5 15L1.5 35.375C1.5 38.738568 4.2614322 41.5 7.625 41.5L42.375 41.5C45.737822 41.5 48.5 38.738891 48.5 35.375L48.5 14.84375C48.5 11.357298 45.431232 8.5 42 8.5L8 8.5 z M 8 9.5L42 9.5C44.869332 9.5 47.5 11.953124 47.5 14.84375L47.5 35.375C47.5 38.191893 45.190864 40.5 42.375 40.5L7.625 40.5C4.8083064 40.5 2.5 38.191694 2.5 35.375L2.5 15C2.5 13.825312 3.025747 12.515936 3.9726562 11.421875C4.9103231 10.338493 6.3016066 9.5 8 9.5 z M 8 10.5C6.6278594 10.5 5.5022994 11.168298 4.7148438 12.078125C3.9142742 13.003104 3.5 14.135128 3.5 15L3.5 16.5L46.5 16.5L46.5 14.84375C46.5 13.711511 45.911122 12.643371 45.076172 11.845703C44.241222 11.048035 43.139719 10.5 42 10.5L8 10.5 z M 8 11.5L42 11.5C42.807999 11.5 43.706645 11.920518 44.384766 12.568359C45.062886 13.216201 45.5 14.070528 45.5 14.84375L45.5 15.5L4.5 15.5L4.5 15C4.5 14.506206 4.8419844 13.463054 5.4726562 12.734375C6.116442 11.990544 6.9463356 11.5 8 11.5 z M 3.5 20.5L3.5 21L3.5 35.375C3.5 37.652736 5.347264 39.5 7.625 39.5L42.375 39.5C44.651729 39.5 46.5 37.652711 46.5 35.375L46.5 20.5L3.5 20.5 z M 4.5 21.5L45.5 21.5L45.5 35.375C45.5 37.116505 44.115585 38.5 42.375 38.5L7.625 38.5C5.8829974 38.5 4.5 37.117002 4.5 35.375L4.5 21.5 z" />
</svg>