<?xml version="1.0" encoding="utf-8"?>
<svg xmlns="http://www.w3.org/2000/svg" viewBox="0 0 50 50" width="515" height="515">
  <path d="M29.550781 3.96875C29.035156 3.96875 28.523438 4.164063 28.136719 4.550781L26.050781 6.636719C25.277344 7.410156 25.277344 8.691406 26.050781 9.464844L31.085938 14.5L14.5 31.085938L9.53125 26.117188C9.144531 25.730469 8.632813 25.535156 8.117188 25.535156C7.601563 25.535156 7.089844 25.730469 6.703125 26.117188L4.617188 28.203125C3.84375 28.976563 3.84375 30.257813 4.617188 31.03125L6.585938 33L4.585938 35C3.8125 35.773438 3.8125 37.054688 4.585938 37.828125L6.171875 39.414063L4.878906 40.707031C3.714844 41.871094 3.714844 43.785156 4.878906 44.949219L5.050781 45.121094C6.214844 46.285156 8.128906 46.285156 9.292969 45.121094L10.585938 43.828125L12.171875 45.414063C12.945313 46.1875 14.226563 46.1875 15 45.414063L17 43.414063L18.992188 45.40625C19.765625 46.179688 21.046875 46.179688 21.820313 45.40625L23.90625 43.320313C24.679688 42.546875 24.679688 41.265625 23.90625 40.492188L18.914063 35.5L35.5 18.914063L40.515625 23.925781C41.285156 24.699219 42.570313 24.699219 43.34375 23.925781L45.425781 21.84375C46.199219 21.070313 46.199219 19.785156 45.425781 19.015625L43.414063 17L45.414063 15C46.1875 14.226563 46.1875 12.945313 45.414063 12.171875L43.828125 10.585938L45.121094 9.292969C46.285156 8.128906 46.285156 6.214844 45.121094 5.050781L44.949219 4.878906C44.367188 4.296875 43.597656 4.007813 42.828125 4.007813C42.058594 4.007813 41.289063 4.296875 40.707031 4.878906L39.414063 6.171875L37.828125 4.585938C37.441406 4.199219 36.929688 4.007813 36.414063 4.007813C35.898438 4.003906 35.386719 4.199219 35 4.585938L33 6.585938L30.964844 4.550781C30.578125 4.164063 30.066406 3.972656 29.550781 3.96875 Z M 29.550781 5.964844L44.011719 20.425781L44.015625 20.425781L41.925781 22.511719L27.464844 8.050781 Z M 42.828125 5.992188C43.082031 5.992188 43.335938 6.09375 43.535156 6.292969L43.707031 6.464844C44.105469 6.863281 44.105469 7.480469 43.707031 7.878906L42.414063 9.171875L40.828125 7.585938L42.121094 6.292969C42.320313 6.09375 42.574219 5.992188 42.828125 5.992188 Z M 36.410156 6L36.414063 6L44 13.585938L42 15.585938L34.414063 8 Z M 32.5 15.914063L34.085938 17.5L17.5 34.085938L15.914063 32.5 Z M 8.117188 27.53125L22.492188 41.90625L20.40625 43.992188L6.03125 29.617188 Z M 8 34.414063L15.585938 42L13.585938 44L6 36.414063 Z M 7.585938 40.828125L9.171875 42.414063L7.878906 43.707031C7.480469 44.105469 6.863281 44.105469 6.464844 43.707031L6.292969 43.535156C5.894531 43.136719 5.894531 42.519531 6.292969 42.121094Z" />
</svg>