<?xml version="1.0" encoding="utf-8"?>
<svg xmlns="http://www.w3.org/2000/svg" viewBox="0 0 50 50" width="515" height="515">
  <path d="M28.998047 2C26.248984 2 24 4.2503431 24 6.9980469C24 9.7472611 26.248984 12 28.998047 12C31.750887 12 34 9.7469594 34 6.9980469C34 4.2506451 31.750887 2 28.998047 2 z M 28.998047 4C30.671207 4 32 5.3314486 32 6.9980469C32 8.6671344 30.671207 10 28.998047 10C27.33111 10 26 8.6668326 26 6.9980469C26 5.3317507 27.33111 4 28.998047 4 z M 21 13C20.72081 13 20.444277 13.03929 20.177734 13.115234 A 1.0001 1.0001 0 0 0 20.175781 13.115234L13.175781 15.115234C12.422568 15.329795 11.782791 15.831139 11.394531 16.511719L11.431641 16.453125L7.4316406 22.453125 A 1.0001 1.0001 0 0 0 7.3945312 22.511719C6.5783952 23.939957 7.0832856 25.789221 8.5117188 26.605469C8.9779466 26.870581 9.4933961 27 9.9980469 27C11.039789 27 12.05381 26.450638 12.603516 25.488281L12.5625 25.554688L15.955078 20.5625L18.162109 19.931641C17.577497 21.045471 16.978463 22.131102 16.46875 23.255859C15.640988 25.082438 14.977348 26.656791 15 28.03125L15 35.914062L8.2988281 41.775391C6.8898139 43.009134 6.5525488 45.196875 7.7792969 46.705078 A 1.0001 1.0001 0 0 0 7.78125 46.705078C8.4725138 47.552877 9.4882176 48 10.501953 48C11.31883 48 12.14456 47.711508 12.804688 47.134766 A 1.0001 1.0001 0 0 0 12.804688 47.132812L20.804688 40.132812C21.563897 39.468901 22 38.508564 22 37.5L22 34.460938L24.273438 37.113281L26.082031 45.259766C26.442531 46.88132 27.890732 48 29.498047 48C29.839812 48 30.186162 47.94829 30.525391 47.845703C32.324999 47.300281 33.286601 45.402694 32.892578 43.628906L30.916016 34.738281C30.791411 34.17826 30.531341 33.658683 30.158203 33.222656 A 1.0001 1.0001 0 0 0 30.148438 33.210938L25.203125 27.583984L27.888672 22.40625L29.558594 24.742188C30.121225 25.531323 31.032019 26 32 26L35.029297 26C34.393077 26.83877 34 27.870854 34 28.998047C34 31.747261 36.248984 34 38.998047 34C41.750887 34 44 31.746959 44 28.998047C44 26.840293 42.604849 25.007782 40.675781 24.3125C40.945328 23.773361 41.06646 23.152042 40.960938 22.503906C40.714627 20.990639 39.344401 20 37.892578 20L33.544922 20L30.078125 15.146484 A 1.0001 1.0001 0 0 0 30.078125 15.144531C29.116066 13.798937 27.560072 13 25.90625 13L21 13 z M 21 15L25.90625 15C26.916428 15 27.863231 15.486235 28.451172 16.308594L32.216797 21.582031 A 1.0001 1.0001 0 0 0 33.029297 22L37.892578 22C38.432755 22 38.912638 22.371486 38.986328 22.824219C39.095517 23.494874 38.620761 24 38 24L32 24C31.675981 24 31.372951 23.844897 31.185547 23.582031 A 1.0001 1.0001 0 0 0 31.185547 23.580078L28.566406 19.914062 A 1.0001 1.0001 0 0 0 26.865234 20.035156L23.111328 27.271484 A 1.0001 1.0001 0 0 0 23.248047 28.390625L28.640625 34.523438C28.800554 34.710985 28.91164 34.934711 28.964844 35.173828L28.962891 35.173828L30.939453 44.0625C31.119431 44.872712 30.679705 45.709062 29.945312 45.931641C29.789332 45.978672 29.641669 46 29.498047 46C28.813362 46 28.192656 45.532665 28.035156 44.824219L26.171875 36.435547 A 1.0001 1.0001 0 0 0 25.955078 36.001953L21.759766 31.107422 A 1.0001 1.0001 0 0 0 20 31.757812L20 37.5C20 37.933436 19.813072 38.344865 19.488281 38.628906L11.488281 45.628906C11.198408 45.882164 10.853076 46 10.501953 46C10.066564 46 9.6386363 45.818028 9.3320312 45.443359L9.3320312 45.441406C8.8342473 44.827558 8.9687409 43.849035 9.6171875 43.28125L16.658203 37.119141 A 1.0001 1.0001 0 0 0 17 36.367188L17 28.015625 A 1.0001 1.0001 0 0 0 17 27.998047C16.9917 27.491506 17.499325 25.824703 18.289062 24.082031C19.0788 22.33936 20.101992 20.406681 20.972656 18.820312 A 1.0001 1.0001 0 0 0 19.822266 17.376953L15.056641 18.738281 A 1.0001 1.0001 0 0 0 14.505859 19.138672L10.908203 24.429688 A 1.0001 1.0001 0 0 0 10.867188 24.496094C10.678888 24.825735 10.344304 25 9.9980469 25C9.8306977 25 9.6617717 24.958075 9.5019531 24.867188C9.0169711 24.588273 8.8555672 23.999134 9.1289062 23.511719L13.095703 17.5625 A 1.0001 1.0001 0 0 0 13.130859 17.503906C13.260599 17.276486 13.473823 17.110502 13.724609 17.039062L20.724609 15.039062C20.816063 15.013001 20.90719 15 21 15 z M 38.998047 26C40.671207 26 42 27.331449 42 28.998047C42 30.667134 40.671207 32 38.998047 32C37.33111 32 36 30.666833 36 28.998047C36 27.331751 37.33111 26 38.998047 26 z" />
</svg>