<?xml version="1.0" encoding="utf-8"?>
<svg xmlns="http://www.w3.org/2000/svg" viewBox="0 0 50 50" width="515" height="515">
  <path d="M25 1C21.839277 1 19.19831 1.5686133 17.259766 2.5761719C15.321221 3.5837304 14 5.1451015 14 7L14 13L14 17L16 17L16 16.617188C16.380074 16.913955 16.801337 17.18556 17.259766 17.423828C19.19831 18.431387 21.839277 19 25 19C28.160723 19 30.80169 18.431387 32.740234 17.423828C33.198663 17.18556 33.619926 16.913955 34 16.617188L34 17L36 17L36 13L36 7C36 5.1451015 34.678779 3.5837304 32.740234 2.5761719C30.80169 1.5686133 28.160723 1 25 1 z M 25 3C27.915277 3 30.273951 3.5498711 31.816406 4.3515625C33.358862 5.1532539 34 6.0918985 34 7C34 7.9081015 33.358862 8.8467461 31.816406 9.6484375C30.273951 10.450129 27.915277 11 25 11C22.084723 11 19.726049 10.450129 18.183594 9.6484375C16.641138 8.8467461 16 7.9081015 16 7C16 6.0918985 16.641138 5.1532539 18.183594 4.3515625C19.726049 3.5498711 22.084723 3 25 3 z M 16 10.617188C16.380074 10.913955 16.801337 11.18556 17.259766 11.423828C19.19831 12.431387 21.839277 13 25 13C28.160723 13 30.80169 12.431387 32.740234 11.423828C33.198663 11.18556 33.619926 10.913955 34 10.617188L34 13C34 13.908102 33.358862 14.846744 31.816406 15.648438C30.273951 16.450128 27.915277 17 25 17C22.084723 17 19.726049 16.450128 18.183594 15.648438C16.641138 14.846744 16 13.908102 16 13L16 10.617188 z M 13 19C9.8392767 19 7.19831 19.568613 5.2597656 20.576172C3.3212213 21.58373 2 23.145102 2 25L2 31L2 43C2 44.854898 3.3212213 46.41627 5.2597656 47.423828C7.19831 48.431387 9.8392767 49 13 49C16.160723 49 18.80169 48.431387 20.740234 47.423828C22.678779 46.41627 24 44.854898 24 43L24 31L24 25C24 23.145102 22.678779 21.58373 20.740234 20.576172C18.80169 19.568613 16.160723 19 13 19 z M 37 19C33.839277 19 31.19831 19.568613 29.259766 20.576172C27.321221 21.58373 26 23.145102 26 25L26 31L26 43C26 44.854898 27.321221 46.41627 29.259766 47.423828C31.19831 48.431387 33.839277 49 37 49C40.160723 49 42.80169 48.431387 44.740234 47.423828C46.678779 46.41627 48 44.854898 48 43L48 31L48 25C48 23.145102 46.678779 21.58373 44.740234 20.576172C42.80169 19.568613 40.160723 19 37 19 z M 13 21C15.915277 21 18.273951 21.549871 19.816406 22.351562C21.358862 23.153254 22 24.091898 22 25C22 25.908102 21.358862 26.846746 19.816406 27.648438C18.273951 28.450129 15.915277 29 13 29C10.084723 29 7.7260492 28.450129 6.1835938 27.648438C4.6411381 26.846746 4 25.908102 4 25C4 24.091898 4.6411381 23.153254 6.1835938 22.351562C7.7260494 21.549871 10.084723 21 13 21 z M 37 21C39.915277 21 42.273951 21.549871 43.816406 22.351562C45.358862 23.153254 46 24.091898 46 25C46 25.908102 45.358862 26.846746 43.816406 27.648438C42.273951 28.450129 39.915277 29 37 29C34.084723 29 31.726049 28.450129 30.183594 27.648438C28.641138 26.846746 28 25.908102 28 25C28 24.091898 28.641138 23.153254 30.183594 22.351562C31.726049 21.549871 34.084723 21 37 21 z M 4 28.617188C4.3800741 28.913955 4.8013374 29.18556 5.2597656 29.423828C7.19831 30.431387 9.8392767 31 13 31C16.160723 31 18.80169 30.431387 20.740234 29.423828C21.198663 29.18556 21.619926 28.913954 22 28.617188L22 31C22 31.908102 21.358862 32.846746 19.816406 33.648438C18.273951 34.450128 15.915277 35 13 35C10.084723 35 7.7260492 34.450128 6.1835938 33.648438C4.6411381 32.846746 4 31.908102 4 31L4 28.617188 z M 28 28.617188C28.380074 28.913955 28.801337 29.18556 29.259766 29.423828C31.19831 30.431387 33.839277 31 37 31C40.160723 31 42.80169 30.431387 44.740234 29.423828C45.198663 29.18556 45.619926 28.913955 46 28.617188L46 31C46 31.908102 45.358862 32.846746 43.816406 33.648438C42.273951 34.450128 39.915277 35 37 35C34.084723 35 31.726049 34.450128 30.183594 33.648438C28.641138 32.846746 28 31.908102 28 31L28 28.617188 z M 4 34.617188C4.3800741 34.913955 4.8013374 35.18556 5.2597656 35.423828C7.19831 36.431387 9.8392767 37 13 37C16.160723 37 18.80169 36.431387 20.740234 35.423828C21.198663 35.18556 21.619926 34.913955 22 34.617188L22 37C22 37.908102 21.358862 38.846746 19.816406 39.648438C18.273951 40.450128 15.915277 41 13 41C10.084723 41 7.7260492 40.450128 6.1835938 39.648438C4.6411381 38.846746 4 37.908102 4 37L4 34.617188 z M 28 34.617188C28.380074 34.913955 28.801337 35.18556 29.259766 35.423828C31.19831 36.431387 33.839277 37 37 37C40.160723 37 42.80169 36.431387 44.740234 35.423828C45.198663 35.18556 45.619926 34.913955 46 34.617188L46 37C46 37.908102 45.358862 38.846746 43.816406 39.648438C42.273951 40.450128 39.915277 41 37 41C34.084723 41 31.726049 40.450128 30.183594 39.648438C28.641138 38.846746 28 37.908102 28 37L28 34.617188 z M 4 40.617188C4.3800741 40.913955 4.8013374 41.18556 5.2597656 41.423828C7.19831 42.431387 9.8392767 43 13 43C16.160723 43 18.80169 42.431387 20.740234 41.423828C21.198663 41.18556 21.619926 40.913955 22 40.617188L22 43C22 43.908102 21.358862 44.846746 19.816406 45.648438C18.273951 46.450128 15.915277 47 13 47C10.084723 47 7.7260492 46.450128 6.1835938 45.648438C4.6411381 44.846746 4 43.908102 4 43L4 40.617188 z M 28 40.617188C28.380074 40.913955 28.801337 41.18556 29.259766 41.423828C31.19831 42.431387 33.839277 43 37 43C40.160723 43 42.80169 42.431387 44.740234 41.423828C45.198663 41.18556 45.619926 40.913955 46 40.617188L46 43C46 43.908102 45.358862 44.846746 43.816406 45.648438C42.273951 46.450128 39.915277 47 37 47C34.084723 47 31.726049 46.450128 30.183594 45.648438C28.641138 44.846746 28 43.908102 28 43L28 40.617188 z" />
</svg>