<?xml version="1.0" encoding="utf-8"?>
<svg xmlns="http://www.w3.org/2000/svg" viewBox="0 0 50 50" width="515" height="515">
  <path d="M12.90625 1.96875C12.863281 1.976563 12.820313 1.988281 12.78125 2C12.316406 2.105469 11.988281 2.523438 12 3L12 6C11.96875 6 11.9375 6 11.90625 6C11.875 6 11.84375 6 11.8125 6C11.261719 6.050781 10.855469 6.542969 10.90625 7.09375C10.957031 7.644531 11.449219 8.050781 12 8L14 8C14.359375 8.003906 14.695313 7.816406 14.878906 7.503906C15.058594 7.191406 15.058594 6.808594 14.878906 6.496094C14.695313 6.183594 14.359375 5.996094 14 6L14 3C14.011719 2.710938 13.894531 2.433594 13.6875 2.238281C13.476563 2.039063 13.191406 1.941406 12.90625 1.96875 Z M 24.90625 1.96875C24.863281 1.976563 24.820313 1.988281 24.78125 2C24.316406 2.105469 23.988281 2.523438 24 3L24 6C23.96875 6 23.9375 6 23.90625 6C23.355469 6.027344 22.925781 6.496094 22.953125 7.046875C22.980469 7.597656 23.449219 8.027344 24 8L26 8C26.359375 8.003906 26.695313 7.816406 26.878906 7.503906C27.058594 7.191406 27.058594 6.808594 26.878906 6.496094C26.695313 6.183594 26.359375 5.996094 26 6L26 3C26.011719 2.710938 25.894531 2.433594 25.6875 2.238281C25.476563 2.039063 25.191406 1.941406 24.90625 1.96875 Z M 36.90625 1.96875C36.863281 1.976563 36.820313 1.988281 36.78125 2C36.316406 2.105469 35.988281 2.523438 36 3L36 6C35.96875 6 35.9375 6 35.90625 6C35.875 6 35.84375 6 35.8125 6C35.261719 6.050781 34.855469 6.542969 34.90625 7.09375C34.957031 7.644531 35.449219 8.050781 36 8L38 8C38.359375 8.003906 38.695313 7.816406 38.878906 7.503906C39.058594 7.191406 39.058594 6.808594 38.878906 6.496094C38.695313 6.183594 38.359375 5.996094 38 6L38 3C38.011719 2.710938 37.894531 2.433594 37.6875 2.238281C37.476563 2.039063 37.191406 1.941406 36.90625 1.96875 Z M 2.8125 3C2.335938 3.089844 1.992188 3.511719 2 4L2 31C2 31.550781 2.449219 32 3 32L20 32L20 46L18 46C17.96875 46 17.9375 46 17.90625 46C17.355469 46.027344 16.925781 46.496094 16.953125 47.046875C16.980469 47.597656 17.449219 48.027344 18 48L32 48C32.359375 48.003906 32.695313 47.816406 32.878906 47.503906C33.058594 47.191406 33.058594 46.808594 32.878906 46.496094C32.695313 46.183594 32.359375 45.996094 32 46L30 46L30 32L47 32C47.550781 32 48 31.550781 48 31L48 4C48 3.449219 47.550781 3 47 3L39 3L39 5L46 5L46 30L4 30L4 5L11 5L11 3L3 3C2.96875 3 2.9375 3 2.90625 3C2.875 3 2.84375 3 2.8125 3 Z M 15 3L15 5L23 5L23 3 Z M 27 3L27 5L35 5L35 3 Z M 22 32L28 32L28 46L22 46Z" />
</svg>