<?xml version="1.0" encoding="utf-8"?>
<svg xmlns="http://www.w3.org/2000/svg" viewBox="0 0 50 50" width="515" height="515">
  <path d="M29.984375 1.984375C29.9375 1.988281 29.886719 1.992188 29.839844 2L7 2L7 48L43 48L43 15.167969C43.019531 15.058594 43.019531 14.949219 43 14.84375L43 14.585938L42.808594 14.390625C42.753906 14.324219 42.691406 14.261719 42.625 14.207031C42.621094 14.207031 42.621094 14.203125 42.617188 14.203125L30.792969 2.375C30.738281 2.304688 30.675781 2.242188 30.605469 2.1875L30.414063 2L30.15625 2C30.097656 1.992188 30.042969 1.984375 29.984375 1.984375 Z M 9 4L29 4L29 16L41 16L41 46L9 46 Z M 31 5.414063L39.585938 14L31 14 Z M 14 20L14 22L15 22L15 29L17 29L17 20 Z M 23.5 20C21.578125 20 20 21.578125 20 23.5L20 25.5C20 27.421875 21.578125 29 23.5 29C25.421875 29 27 27.421875 27 25.5L27 23.5C27 21.578125 25.421875 20 23.5 20 Z M 32.5 20C30.578125 20 29 21.578125 29 23.5L29 25.5C29 27.421875 30.578125 29 32.5 29C34.421875 29 36 27.421875 36 25.5L36 23.5C36 21.578125 34.421875 20 32.5 20 Z M 23.5 22C24.339844 22 25 22.660156 25 23.5L25 25.5C25 26.339844 24.339844 27 23.5 27C22.660156 27 22 26.339844 22 25.5L22 23.5C22 22.660156 22.660156 22 23.5 22 Z M 32.5 22C33.339844 22 34 22.660156 34 23.5L34 25.5C34 26.339844 33.339844 27 32.5 27C31.660156 27 31 26.339844 31 25.5L31 23.5C31 22.660156 31.660156 22 32.5 22 Z M 17.5 33C15.578125 33 14 34.578125 14 36.5L14 38.5C14 40.421875 15.578125 42 17.5 42C19.421875 42 21 40.421875 21 38.5L21 36.5C21 34.578125 19.421875 33 17.5 33 Z M 26.5 33C24.578125 33 23 34.578125 23 36.5L23 38.5C23 40.421875 24.578125 42 26.5 42C28.421875 42 30 40.421875 30 38.5L30 36.5C30 34.578125 28.421875 33 26.5 33 Z M 32 33L32 35L33 35L33 42L35 42L35 33 Z M 17.5 35C18.339844 35 19 35.660156 19 36.5L19 38.5C19 39.339844 18.339844 40 17.5 40C16.660156 40 16 39.339844 16 38.5L16 36.5C16 35.660156 16.660156 35 17.5 35 Z M 26.5 35C27.339844 35 28 35.660156 28 36.5L28 38.5C28 39.339844 27.339844 40 26.5 40C25.660156 40 25 39.339844 25 38.5L25 36.5C25 35.660156 25.660156 35 26.5 35Z" />
</svg>