<?xml version="1.0" encoding="utf-8"?>
<svg xmlns="http://www.w3.org/2000/svg" viewBox="0 0 50 50" width="515" height="515">
  <path d="M5 2L5 48L23 48L23 2 Z M 27 2L27 48L45 48L45 2 Z M 7 4L21 4L21 46L7 46 Z M 29 4L43 4L43 46L29 46 Z M 12 7C10.90625 7 10 7.90625 10 9L10 30C10 31.09375 10.90625 32 12 32L16 32C17.09375 32 18 31.09375 18 30L18 9C18 7.90625 17.09375 7 16 7 Z M 34 7C32.90625 7 32 7.90625 32 9L32 30C32 31.09375 32.90625 32 34 32L38 32C39.09375 32 40 31.09375 40 30L40 9C40 7.90625 39.09375 7 38 7 Z M 12 9L16 9L16 30L12 30 Z M 34 9L38 9L38 30L34 30 Z M 14 35C11.800781 35 10 36.800781 10 39C10 41.199219 11.800781 43 14 43C16.199219 43 18 41.199219 18 39C18 36.800781 16.199219 35 14 35 Z M 36 35C33.800781 35 32 36.800781 32 39C32 41.199219 33.800781 43 36 43C38.199219 43 40 41.199219 40 39C40 36.800781 38.199219 35 36 35 Z M 14 37C15.117188 37 16 37.882813 16 39C16 40.117188 15.117188 41 14 41C12.882813 41 12 40.117188 12 39C12 37.882813 12.882813 37 14 37 Z M 36 37C37.117188 37 38 37.882813 38 39C38 40.117188 37.117188 41 36 41C34.882813 41 34 40.117188 34 39C34 37.882813 34.882813 37 36 37Z" />
</svg>