<?xml version="1.0" encoding="utf-8"?>
<svg xmlns="http://www.w3.org/2000/svg" viewBox="0 0 50 50" width="515" height="515">
  <path d="M21.3125 1.09375C21.269531 1.101563 21.226563 1.113281 21.1875 1.125C14.527344 2.605469 9.5 7.664063 9.5 13.8125C9.5 15.566406 10 17.152344 10.71875 18.65625C9.050781 18.804688 7.398438 19.203125 5.90625 20.03125C0.550781 23.199219 -1.367188 30.039063 0.75 36.5C0.785156 36.613281 0.835938 36.71875 0.90625 36.8125L1.3125 37.3125C1.605469 37.699219 2.136719 37.820313 2.570313 37.59375C3 37.371094 3.210938 36.871094 3.0625 36.40625C1.582031 31.773438 2.980469 26.992188 6.5 24.96875C7.671875 24.285156 8.984375 23.96875 10.34375 23.96875C9.636719 27.421875 10.097656 31.210938 12.03125 34.5C13.964844 37.785156 16.964844 40.089844 20.375 41.21875C19.703125 42.375 18.789063 43.347656 17.625 44.03125C17.617188 44.035156 17.601563 44.027344 17.59375 44.03125C13.96875 46.046875 9.175781 44.824219 5.9375 41.21875C5.617188 40.863281 5.09375 40.785156 4.683594 41.027344C4.273438 41.269531 4.09375 41.769531 4.25 42.21875L4.4375 42.8125C4.484375 42.941406 4.558594 43.058594 4.65625 43.15625C9.109375 48.242188 16.011719 50.015625 21.375 46.96875C21.386719 46.960938 21.394531 46.945313 21.40625 46.9375C22.894531 46.101563 24.058594 44.898438 25 43.53125C25.941406 44.898438 27.105469 46.101563 28.59375 46.9375L28.59375 46.96875C28.601563 46.972656 28.617188 46.964844 28.625 46.96875C34 50.019531 40.890625 48.15625 45.4375 43.1875C45.535156 43.078125 45.613281 42.953125 45.65625 42.8125L45.84375 42.21875C46 41.769531 45.820313 41.269531 45.410156 41.027344C45 40.785156 44.476563 40.863281 44.15625 41.21875C40.8125 44.9375 36.027344 46.058594 32.5 44.03125C31.308594 43.335938 30.378906 42.355469 29.6875 41.1875C29.875 41.125 30.0625 41.070313 30.25 41C30.398438 41.011719 30.546875 40.988281 30.6875 40.9375C36.152344 38.6875 40 33.308594 40 27C40 26.117188 39.882813 25.277344 39.78125 24.5625C39.769531 24.488281 39.746094 24.414063 39.71875 24.34375C39.703125 24.25 39.707031 24.15625 39.6875 24.0625C41.019531 24.066406 42.332031 24.378906 43.5 25.0625C47.113281 27.089844 48.421875 31.855469 46.9375 36.5C46.753906 36.972656 46.953125 37.503906 47.398438 37.742188C47.84375 37.980469 48.394531 37.851563 48.6875 37.4375L49.09375 36.9375C49.167969 36.832031 49.21875 36.71875 49.25 36.59375C51.253906 30.160156 49.476563 23.242188 44.125 20.15625C44.113281 20.148438 44.105469 20.132813 44.09375 20.125C42.59375 19.214844 40.953125 18.84375 39.3125 18.71875C40.015625 17.226563 40.5 15.640625 40.5 13.90625C40.5 7.757813 35.496094 2.597656 28.8125 1.21875C28.6875 1.195313 28.5625 1.195313 28.4375 1.21875L27.84375 1.3125C27.363281 1.382813 27.003906 1.785156 26.988281 2.269531C26.972656 2.753906 27.304688 3.183594 27.78125 3.28125C32.609375 4.300781 36 7.839844 36 12C36 13.359375 35.625 14.667969 34.9375 15.84375C32.320313 13.464844 28.828125 12 25 12C21.171875 12 17.679688 13.464844 15.0625 15.84375C14.375 14.667969 14 13.359375 14 12C14 7.839844 17.390625 4.300781 22.21875 3.28125C22.667969 3.191406 23 2.808594 23.019531 2.347656C23.042969 1.890625 22.75 1.476563 22.3125 1.34375L21.71875 1.15625C21.589844 1.109375 21.449219 1.085938 21.3125 1.09375 Z M 12.40625 9.9375C12.25 10.621094 12 11.273438 12 12C12 14.125 12.722656 16.082031 13.9375 17.75C13.996094 17.90625 14.09375 18.046875 14.21875 18.15625C14.949219 19.066406 15.835938 19.875 16.84375 20.5625C17.007813 20.847656 17.296875 21.035156 17.625 21.0625C19.734375 22.292969 22.289063 23 25 23C27.761719 23 30.335938 22.242188 32.46875 20.96875C32.488281 20.960938 32.511719 20.949219 32.53125 20.9375C32.539063 20.933594 32.554688 20.941406 32.5625 20.9375C32.703125 20.882813 32.832031 20.796875 32.9375 20.6875C34.019531 19.980469 34.976563 19.148438 35.75 18.1875C35.875 18.078125 35.972656 17.9375 36.03125 17.78125C37.261719 16.105469 38 14.136719 38 12C38 11.304688 37.734375 10.6875 37.59375 10.03125C38.148438 11.246094 38.5 12.554688 38.5 13.90625C38.5 15.816406 37.972656 17.507813 36.96875 19.0625C36.773438 19.375 36.765625 19.769531 36.949219 20.089844C37.128906 20.410156 37.476563 20.605469 37.84375 20.59375C39.675781 20.503906 41.484375 20.859375 43.09375 21.84375C43.09375 21.855469 43.09375 21.863281 43.09375 21.875C44.300781 22.5625 45.253906 23.539063 46.03125 24.65625C45.527344 24.199219 45.117188 23.660156 44.5 23.3125L44.5 23.34375C42.699219 22.292969 40.710938 21.9375 38.71875 22.125C38.558594 22.074219 38.386719 22.0625 38.21875 22.09375C38.097656 22.113281 37.980469 22.15625 37.875 22.21875C36.773438 22.410156 35.675781 22.765625 34.625 23.28125C34.617188 23.285156 34.601563 23.277344 34.59375 23.28125C34.324219 23.308594 34.074219 23.441406 33.90625 23.65625C31.761719 24.875 29.84375 26.738281 28.4375 29.09375C26.164063 32.902344 25.835938 37.242188 27.21875 40.71875C27.242188 40.941406 27.34375 41.152344 27.5 41.3125C28.355469 43.132813 29.695313 44.699219 31.5 45.75C31.5 45.761719 31.5 45.769531 31.5 45.78125C32.050781 46.097656 32.664063 46.179688 33.25 46.375C31.96875 46.242188 30.734375 45.871094 29.59375 45.21875C27.972656 44.316406 26.71875 42.972656 25.90625 41.34375C25.742188 40.992188 25.386719 40.765625 25 40.765625C24.613281 40.765625 24.257813 40.992188 24.09375 41.34375C23.28125 42.972656 22.027344 44.316406 20.40625 45.21875C19.234375 45.886719 17.96875 46.273438 16.65625 46.40625C17.304688 46.207031 17.980469 46.125 18.59375 45.78125C18.59375 45.769531 18.59375 45.761719 18.59375 45.75C20.449219 44.667969 21.785156 43.054688 22.625 41.15625C22.636719 41.136719 22.648438 41.113281 22.65625 41.09375C22.671875 41.058594 22.703125 41.035156 22.71875 41C22.730469 40.96875 22.742188 40.9375 22.75 40.90625C23.214844 39.785156 23.492188 38.574219 23.59375 37.3125C23.792969 37.015625 23.816406 36.632813 23.65625 36.3125C23.667969 33.882813 23.007813 31.335938 21.65625 29C20.277344 26.617188 18.308594 24.777344 16.125 23.5625C16.105469 23.539063 16.085938 23.519531 16.0625 23.5C16.03125 23.480469 16 23.457031 15.96875 23.4375C15.910156 23.398438 15.847656 23.367188 15.78125 23.34375C15.753906 23.328125 15.714844 23.328125 15.6875 23.3125C15.65625 23.300781 15.625 23.289063 15.59375 23.28125C12.316406 21.640625 8.605469 21.4375 5.5 23.25L5.5 23.21875C4.875 23.578125 4.449219 24.148438 3.9375 24.625C4.71875 23.503906 5.667969 22.503906 6.875 21.78125C6.886719 21.773438 6.894531 21.757813 6.90625 21.75C8.546875 20.847656 10.367188 20.410156 12.15625 20.5C12.523438 20.511719 12.871094 20.316406 13.050781 19.996094C13.234375 19.675781 13.226563 19.28125 13.03125 18.96875C12.027344 17.414063 11.5 15.722656 11.5 13.8125C11.5 12.449219 11.847656 11.152344 12.40625 9.9375 Z M 25 14C28.378906 14 31.449219 15.316406 33.71875 17.4375C33.292969 17.894531 32.835938 18.304688 32.3125 18.6875C30.386719 16.96875 27.832031 16 25 16C22.136719 16 19.699219 17.117188 17.75 18.75C17.199219 18.351563 16.726563 17.914063 16.28125 17.4375C18.550781 15.316406 21.621094 14 25 14 Z M 25 18C27.128906 18 28.988281 18.644531 30.46875 19.78125C28.863281 20.542969 27 21 25 21C23.027344 21 21.183594 20.554688 19.59375 19.8125C21.121094 18.6875 22.898438 18 25 18 Z M 12.375 24.21875C13.007813 24.363281 13.632813 24.574219 14.25 24.84375C13.742188 27.386719 14.140625 30.113281 15.53125 32.5C16.929688 34.898438 19.160156 36.546875 21.59375 37.40625C21.519531 38.09375 21.390625 38.773438 21.1875 39.40625C18.144531 38.457031 15.472656 36.429688 13.75 33.5C12.058594 30.621094 11.710938 27.265625 12.375 24.21875 Z M 37.65625 24.3125C38.289063 27.320313 37.90625 30.546875 36.21875 33.5C35.519531 34.722656 34.683594 35.777344 33.71875 36.65625C33.539063 36.820313 33.34375 36.972656 33.15625 37.125C33.011719 37.242188 32.867188 37.359375 32.71875 37.46875C32.617188 37.546875 32.511719 37.613281 32.40625 37.6875C31.328125 38.433594 30.132813 38.980469 28.875 39.375C28.679688 38.765625 28.542969 38.128906 28.46875 37.46875C29.15625 37.246094 29.800781 36.925781 30.4375 36.5625C30.675781 36.425781 30.898438 36.28125 31.125 36.125C31.785156 35.675781 32.4375 35.15625 33 34.5625C33.082031 34.476563 33.171875 34.402344 33.25 34.3125C33.347656 34.203125 33.4375 34.085938 33.53125 33.96875C33.671875 33.796875 33.804688 33.621094 33.9375 33.4375C33.964844 33.398438 33.972656 33.351563 34 33.3125C34.15625 33.089844 34.328125 32.859375 34.46875 32.625C34.496094 32.578125 34.535156 32.546875 34.5625 32.5C35.941406 30.132813 36.363281 27.429688 35.875 24.90625C36.460938 24.644531 37.058594 24.453125 37.65625 24.3125 Z M 25 25C23.894531 25 23 25.894531 23 27C23 28.105469 23.894531 29 25 29C26.105469 29 27 28.105469 27 27C27 25.894531 26.105469 25 25 25 Z M 16.125 25.875C17.605469 26.890625 18.9375 28.269531 19.9375 30C20.9375 31.726563 21.480469 33.546875 21.625 35.3125C19.847656 34.550781 18.273438 33.253906 17.25 31.5C16.230469 29.753906 15.890625 27.757813 16.125 25.875 Z M 33.90625 26.03125C33.953125 26.371094 34 26.699219 34 27C34 29.910156 32.648438 32.472656 30.5625 34.09375C30.511719 34.132813 30.457031 34.179688 30.40625 34.21875C29.9375 34.566406 29.4375 34.875 28.90625 35.125C28.757813 35.195313 28.589844 35.25 28.4375 35.3125C28.589844 33.59375 29.144531 31.824219 30.15625 30.125C31.171875 28.421875 32.472656 27.046875 33.90625 26.03125Z" />
</svg>