<?xml version="1.0" encoding="utf-8"?>
<svg xmlns="http://www.w3.org/2000/svg" viewBox="0 0 50 50" width="515" height="515">
  <path d="M8.90625 1.96875C8.863281 1.976563 8.820313 1.988281 8.78125 2C8.316406 2.105469 7.988281 2.523438 8 3C8 10.191406 10.089844 15.011719 13.25 18.4375C15.941406 21.355469 19.359375 23.261719 22.78125 25C19.359375 26.738281 15.941406 28.644531 13.25 31.5625C10.089844 34.988281 8 39.808594 8 47C7.996094 47.359375 8.183594 47.695313 8.496094 47.878906C8.808594 48.058594 9.191406 48.058594 9.503906 47.878906C9.816406 47.695313 10.003906 47.359375 10 47C10 40.191406 11.910156 36.011719 14.75 32.9375C17.566406 29.886719 21.375 27.921875 25.34375 25.9375C25.433594 25.90625 25.515625 25.867188 25.59375 25.8125C29.542969 23.839844 33.628906 21.816406 36.75 18.4375C38.015625 17.066406 39.085938 15.445313 39.9375 13.5625C39.949219 13.542969 39.960938 13.519531 39.96875 13.5C39.972656 13.488281 39.996094 13.480469 40 13.46875C40.027344 13.410156 40.046875 13.34375 40.0625 13.28125C40.566406 12.117188 41 10.859375 41.3125 9.46875C41.402344 9.285156 41.4375 9.078125 41.40625 8.875C41.636719 7.71875 41.820313 6.511719 41.90625 5.1875C41.953125 4.480469 42 3.757813 42 3C42.007813 2.691406 41.871094 2.398438 41.632813 2.203125C41.398438 2.007813 41.082031 1.933594 40.78125 2C40.316406 2.105469 39.988281 2.523438 40 3C40 3.347656 39.980469 3.664063 39.96875 4L12 4C11.96875 4 11.9375 4 11.90625 4C11.355469 4.027344 10.925781 4.496094 10.953125 5.046875C10.980469 5.597656 11.449219 6.027344 12 6L39.84375 6C39.777344 6.703125 39.675781 7.359375 39.5625 8L12.59375 8C12.5625 8 12.53125 8 12.5 8C12.46875 8 12.4375 8 12.40625 8C11.855469 8.050781 11.449219 8.542969 11.5 9.09375C11.550781 9.644531 12.042969 10.050781 12.59375 10L39.09375 10C38.898438 10.699219 38.6875 11.375 38.4375 12L15 12C14.96875 12 14.9375 12 14.90625 12C14.875 12 14.84375 12 14.8125 12C14.261719 12.050781 13.855469 12.542969 13.90625 13.09375C13.957031 13.644531 14.449219 14.050781 15 14L37.46875 14C37.066406 14.710938 36.636719 15.386719 36.15625 16L18.40625 16C18.375 16 18.34375 16 18.3125 16C18.28125 16 18.25 16 18.21875 16C17.667969 16.050781 17.261719 16.542969 17.3125 17.09375C17.363281 17.644531 17.855469 18.050781 18.40625 18L34.3125 18C33.535156 18.726563 32.695313 19.382813 31.8125 20L24 20C23.96875 20 23.9375 20 23.90625 20C23.875 20 23.84375 20 23.8125 20C23.261719 20.050781 22.855469 20.542969 22.90625 21.09375C22.957031 21.644531 23.449219 22.050781 24 22L28.59375 22C27.429688 22.644531 26.222656 23.261719 25 23.875C21.160156 21.949219 17.484375 20.023438 14.75 17.0625C11.910156 13.988281 10 9.808594 10 3C10.011719 2.710938 9.894531 2.433594 9.6875 2.238281C9.476563 2.039063 9.191406 1.941406 8.90625 1.96875 Z M 29.125 26.1875C28.722656 26.253906 28.398438 26.558594 28.308594 26.957031C28.21875 27.355469 28.382813 27.769531 28.71875 28L23.3125 28C23.269531 27.996094 23.230469 27.996094 23.1875 28C23.15625 28 23.125 28 23.09375 28C22.542969 28.058594 22.140625 28.558594 22.203125 29.109375C22.261719 29.660156 22.761719 30.0625 23.3125 30L31.875 30C32.738281 30.613281 33.550781 31.28125 34.3125 32L17.8125 32C17.769531 31.996094 17.730469 31.996094 17.6875 32C17.65625 32 17.625 32 17.59375 32C17.042969 32.058594 16.640625 32.558594 16.703125 33.109375C16.761719 33.660156 17.261719 34.0625 17.8125 34L36.15625 34C36.339844 34.238281 36.511719 34.46875 36.6875 34.71875C36.972656 35.125 37.246094 35.554688 37.5 36L14.59375 36C14.5625 36 14.53125 36 14.5 36C14.46875 36 14.4375 36 14.40625 36C13.855469 36.050781 13.449219 36.542969 13.5 37.09375C13.550781 37.644531 14.042969 38.050781 14.59375 38L38.46875 38C38.722656 38.628906 38.929688 39.292969 39.125 40L12.59375 40C12.5625 40 12.53125 40 12.5 40C12.46875 40 12.4375 40 12.40625 40C11.855469 40.050781 11.449219 40.542969 11.5 41.09375C11.550781 41.644531 12.042969 42.050781 12.59375 42L39.5625 42C39.675781 42.632813 39.777344 43.308594 39.84375 44L12 44C11.96875 44 11.9375 44 11.90625 44C11.875 44 11.84375 44 11.8125 44C11.261719 44.050781 10.855469 44.542969 10.90625 45.09375C10.957031 45.644531 11.449219 46.050781 12 46L39.96875 46C39.980469 46.335938 40 46.652344 40 47C39.996094 47.359375 40.183594 47.695313 40.496094 47.878906C40.808594 48.058594 41.191406 48.058594 41.503906 47.878906C41.816406 47.695313 42.003906 47.359375 42 47C42 44.730469 41.789063 42.699219 41.40625 40.875C41.398438 40.777344 41.378906 40.683594 41.34375 40.59375C41.027344 39.164063 40.582031 37.875 40.0625 36.6875C40.054688 36.65625 40.042969 36.625 40.03125 36.59375C39.542969 35.492188 38.984375 34.480469 38.34375 33.5625C36.082031 30.324219 32.988281 28.175781 29.78125 26.34375C29.613281 26.238281 29.417969 26.183594 29.21875 26.1875C29.1875 26.1875 29.15625 26.1875 29.125 26.1875Z" />
</svg>