<?xml version="1.0" encoding="utf-8"?>
<svg xmlns="http://www.w3.org/2000/svg" viewBox="0 0 50 50" width="515" height="515">
  <path d="M12 0C10.906937 0 10 0.9069372 10 2L10 4L4 4C3.5737457 4 3.136697 4.0967565 2.734375 4.3808594C2.332053 4.6649623 2 5.2171896 2 5.7929688L2 46.042969C2 47.089927 2.8467513 48 3.9179688 48L46.083984 48C47.155321 48 48 47.089927 48 46.042969L48 5.7929688C48 5.2171896 47.667947 4.6649623 47.265625 4.3808594C46.863303 4.0967565 46.426254 4 46 4L40 4L40 2C40 0.9069372 39.093063 0 38 0L36 0C34.906937 0 34 0.9069372 34 2L34 4L16 4L16 2C16 0.9069372 15.093063 0 14 0L12 0 z M 12 2L14 2L14 8L12 8L12 2 z M 36 2L38 2L38 8L36 8L36 2 z M 4 6L10 6L10 8C10 9.0930628 10.906937 10 12 10L14 10C15.093063 10 16 9.0930628 16 8L16 6L34 6L34 8C34 9.0930628 34.906937 10 36 10L38 10C39.093063 10 40 9.0930628 40 8L40 6L46 6L46 13L4 13L4 6 z M 4 15L46 15L46 46L4 46L4 15 z M 25 17.355469L24.205078 18.392578C24.205078 18.392578 23.679979 19.07824 23.150391 19.929688C22.620802 20.781134 22 21.662609 22 22.818359C22 23.494756 22.212951 24.130673 22.568359 24.658203C22.209966 25.062858 22 25.608663 22 26.167969L22 30.980469L16.894531 30.980469C14.75215 30.980469 12.980469 32.72149 12.980469 34.857422L12.980469 40L12 40 A 1.0001 1.0001 0 1 0 12 42L12.980469 42L12.980469 42.019531L37.019531 42.019531L37.019531 42L38 42 A 1.0001 1.0001 0 1 0 38 40L37.019531 40L37.019531 34.857422C37.019531 32.72149 35.247191 30.980469 33.105469 30.980469L28 30.980469L28 26.167969C28 25.608663 27.790034 25.062858 27.431641 24.658203C27.787049 24.130673 28 23.494756 28 22.818359C28 21.662609 27.379198 20.781132 26.849609 19.929688C26.320021 19.07824 25.794922 18.392578 25.794922 18.392578L25 17.355469 z M 25 20.765625C25.07305 20.877052 25.07562 20.864175 25.150391 20.984375C25.620802 21.740679 26 22.76911 26 22.818359C26 23.527647 25.514024 24 25 24C24.485976 24 24 23.527647 24 22.818359C24 22.769109 24.379198 21.740679 24.849609 20.984375C24.924379 20.86417 24.926949 20.877052 25 20.765625 z M 24 26L26 26C25.92157 26 26 25.98602 26 26.167969L26 30.980469L24 30.980469L24 26.167969C24 25.986018 24.078435 26 24 26 z M 16.894531 33.019531L33.105469 33.019531C34.159747 33.019531 34.980469 33.837353 34.980469 34.857422L34.980469 39.980469L15.019531 39.980469L15.019531 34.857422C15.019531 33.837353 15.838913 33.019531 16.894531 33.019531 z" />
</svg>