<?xml version="1.0" encoding="utf-8"?>
<svg xmlns="http://www.w3.org/2000/svg" viewBox="0 0 50 50" width="515" height="515">
  <path d="M25 2C12.264481 2 2 12.264481 2 25C2 37.735519 12.264481 48 25 48C37.735519 48 48 37.735519 48 25C48 12.264481 37.735519 2 25 2 z M 25 4C36.664481 4 46 13.335519 46 25C46 36.664481 36.664481 46 25 46C13.335519 46 4 36.664481 4 25C4 13.335519 13.335519 4 25 4 z M 21 10L21 13L16 13L16 37L21 37L21 40L23 40L23 37L25 37L25 40L27 40L27 37C29.3 36.9 34.800781 36.299219 34.800781 30.199219C34.800781 25.999219 31.199219 24.600391 29.699219 24.400391L29.699219 24.300781C30.399219 24.100781 33.900391 23.000391 33.900391 18.900391C33.900391 13.800391 29.1 13.1 27 13L27 10L25 10L25 13L23 13L23 10L21 10 z M 18.300781 14.900391L26.199219 14.900391C29.799219 14.900391 31.599609 16.400391 31.599609 19.400391C31.599609 20.600391 31.200781 21.500781 30.300781 22.300781C29.200781 23.200781 27.799219 23.5 26.199219 23.5L18.300781 23.5L18.300781 14.900391 z M 18.300781 25.5L26.199219 25.5C28.199219 25.5 29.800391 25.899219 30.900391 26.699219C32.000391 27.499219 32.5 28.699219 32.5 30.199219C32.5 30.599219 32.500391 31.000781 32.400391 31.300781C32.200391 32.400781 31.499609 33.499609 30.599609 34.099609C29.299609 34.999609 27.899219 34.999609 26.199219 35.099609L18.300781 35.099609L18.300781 25.5 z" />
</svg>