<?xml version="1.0" encoding="utf-8"?>
<svg xmlns="http://www.w3.org/2000/svg" viewBox="0 0 50 50" width="515" height="515">
  <path d="M9.8125 2C9.335938 2.089844 8.992188 2.511719 9 3L9 18L4 18L4 20L0 20L0 26L4 26L4 43C4 45.75 6.25 48 9 48L41 48C43.75 48 46 45.75 46 43L46 26L50 26L50 20L46 20L46 18L41 18L41 3C41 2.449219 40.550781 2 40 2L10 2C9.96875 2 9.9375 2 9.90625 2C9.875 2 9.84375 2 9.8125 2 Z M 11 4L39 4L39 18L30.5 18C28.578125 18 27 19.578125 27 21.5C27 23.421875 28.578125 25 30.5 25L33 25C33.566406 25 34 25.433594 34 26C34 26.566406 33.566406 27 33 27L17 27C16.433594 27 16 26.566406 16 26C16 25.433594 16.433594 25 17 25L19.5 25C21.421875 25 23 23.421875 23 21.5C23 19.578125 21.421875 18 19.5 18L11.0625 18C11.042969 18 11.019531 18 11 18 Z M 15.8125 8C15.261719 8.050781 14.855469 8.542969 14.90625 9.09375C14.957031 9.644531 15.449219 10.050781 16 10L34 10C34.359375 10.003906 34.695313 9.816406 34.878906 9.503906C35.058594 9.191406 35.058594 8.808594 34.878906 8.496094C34.695313 8.183594 34.359375 7.996094 34 8L16 8C15.96875 8 15.9375 8 15.90625 8C15.875 8 15.84375 8 15.8125 8 Z M 15.8125 12C15.261719 12.050781 14.855469 12.542969 14.90625 13.09375C14.957031 13.644531 15.449219 14.050781 16 14L29 14C29.359375 14.003906 29.695313 13.816406 29.878906 13.503906C30.058594 13.191406 30.058594 12.808594 29.878906 12.496094C29.695313 12.183594 29.359375 11.996094 29 12L16 12C15.96875 12 15.9375 12 15.90625 12C15.875 12 15.84375 12 15.8125 12 Z M 6 20L19.5 20C20.339844 20 21 20.660156 21 21.5C21 22.339844 20.339844 23 19.5 23L17 23C15.355469 23 14 24.355469 14 26C14 27.644531 15.355469 29 17 29L33 29C34.644531 29 36 27.644531 36 26C36 24.355469 34.644531 23 33 23L30.5 23C29.660156 23 29 22.339844 29 21.5C29 20.660156 29.660156 20 30.5 20L44 20L44 43C44 44.667969 42.667969 46 41 46L9 46C7.332031 46 6 44.667969 6 43 Z M 2 22L4 22L4 24L2 24 Z M 46 22L48 22L48 24L46 24 Z M 11 33C10.449219 33 10 33.449219 10 34C10 34.550781 10.449219 35 11 35C11.550781 35 12 34.550781 12 34C12 33.449219 11.550781 33 11 33 Z M 15 33C14.449219 33 14 33.449219 14 34C14 34.550781 14.449219 35 15 35C15.550781 35 16 34.550781 16 34C16 33.449219 15.550781 33 15 33 Z M 19 33C18.449219 33 18 33.449219 18 34C18 34.550781 18.449219 35 19 35C19.550781 35 20 34.550781 20 34C20 33.449219 19.550781 33 19 33 Z M 23 33C22.449219 33 22 33.449219 22 34C22 34.550781 22.449219 35 23 35C23.550781 35 24 34.550781 24 34C24 33.449219 23.550781 33 23 33 Z M 27 33C26.449219 33 26 33.449219 26 34C26 34.550781 26.449219 35 27 35C27.550781 35 28 34.550781 28 34C28 33.449219 27.550781 33 27 33 Z M 31 33C30.449219 33 30 33.449219 30 34C30 34.550781 30.449219 35 31 35C31.550781 35 32 34.550781 32 34C32 33.449219 31.550781 33 31 33 Z M 35 33C34.449219 33 34 33.449219 34 34C34 34.550781 34.449219 35 35 35C35.550781 35 36 34.550781 36 34C36 33.449219 35.550781 33 35 33 Z M 39 33C38.449219 33 38 33.449219 38 34C38 34.550781 38.449219 35 39 35C39.550781 35 40 34.550781 40 34C40 33.449219 39.550781 33 39 33 Z M 13 37C12.449219 37 12 37.449219 12 38C12 38.550781 12.449219 39 13 39C13.550781 39 14 38.550781 14 38C14 37.449219 13.550781 37 13 37 Z M 17 37C16.449219 37 16 37.449219 16 38C16 38.550781 16.449219 39 17 39C17.550781 39 18 38.550781 18 38C18 37.449219 17.550781 37 17 37 Z M 21 37C20.449219 37 20 37.449219 20 38C20 38.550781 20.449219 39 21 39C21.550781 39 22 38.550781 22 38C22 37.449219 21.550781 37 21 37 Z M 25 37C24.449219 37 24 37.449219 24 38C24 38.550781 24.449219 39 25 39C25.550781 39 26 38.550781 26 38C26 37.449219 25.550781 37 25 37 Z M 29 37C28.449219 37 28 37.449219 28 38C28 38.550781 28.449219 39 29 39C29.550781 39 30 38.550781 30 38C30 37.449219 29.550781 37 29 37 Z M 33 37C32.449219 37 32 37.449219 32 38C32 38.550781 32.449219 39 33 39C33.550781 39 34 38.550781 34 38C34 37.449219 33.550781 37 33 37 Z M 37 37C36.449219 37 36 37.449219 36 38C36 38.550781 36.449219 39 37 39C37.550781 39 38 38.550781 38 38C38 37.449219 37.550781 37 37 37 Z M 16 41C15.449219 41 15 41.449219 15 42C15 42.550781 15.449219 43 16 43L34 43C34.550781 43 35 42.550781 35 42C35 41.449219 34.550781 41 34 41Z" />
</svg>