<?xml version="1.0" encoding="utf-8"?>
<svg xmlns="http://www.w3.org/2000/svg" viewBox="0 0 50 50" width="515" height="515">
  <path d="M24 0C18.515625 0 13.652344 1.328125 10.25 5.21875C6.847656 9.109375 5 15.359375 5 25C5 34.640625 6.847656 40.890625 10.25 44.78125C13.652344 48.671875 18.515625 50 24 50C29.484375 50 34.347656 48.671875 37.75 44.78125C41.152344 40.890625 43 34.640625 43 25C43 15.359375 41.152344 9.109375 37.75 5.21875C34.347656 1.328125 29.484375 0 24 0 Z M 24 2C29.171875 2 33.316406 3.175781 36.25 6.53125C39.183594 9.886719 41 15.617188 41 25C41 34.382813 39.183594 40.113281 36.25 43.46875C33.316406 46.824219 29.171875 48 24 48C18.828125 48 14.683594 46.824219 11.75 43.46875C8.816406 40.113281 7 34.382813 7 25C7 15.617188 8.816406 9.886719 11.75 6.53125C14.683594 3.175781 18.828125 2 24 2 Z M 23 4.5L23 22.1875L15.5625 14.84375L14.15625 16.25L22.5 24.46875L14.15625 32.6875L15.5625 34.125L23 26.78125L23 44.4375L24.71875 42.65625L33.28125 33.6875L33.96875 32.96875L33.25 32.28125L25.34375 24.5L33.25 16.6875L33.96875 15.96875L33.28125 15.28125L24.71875 6.3125 Z M 25 9.5L31.15625 15.9375L25 22 Z M 25 26.96875L31.15625 33.03125L25 39.46875Z" />
</svg>