<?xml version="1.0" encoding="utf-8"?>
<svg xmlns="http://www.w3.org/2000/svg" viewBox="0 0 50 50" width="515" height="515">
  <path d="M25 3C22.792969 3 21 4.792969 21 7C21 8.859375 22.28125 10.410156 24 10.859375L24 14L15.03125 14C10.601563 14 7 17.601563 7 22.03125L7 26L2 26L2 38L7 38L7 47L43 47L43 38L48 38L48 26L43 26L43 22.03125C43 17.601563 39.398438 14 34.96875 14L26 14L26 10.859375C27.722656 10.410156 29 8.859375 29 7C29 4.792969 27.207031 3 25 3 Z M 25 5C26.101563 5 27 5.898438 27 7C27 8.101563 26.101563 9 25 9C23.898438 9 23 8.101563 23 7C23 5.898438 23.898438 5 25 5 Z M 15.03125 16L34.96875 16C38.292969 16 41 18.707031 41 22.03125L41 45L35 45L35 37L15 37L15 45L9 45L9 22.03125C9 18.707031 11.707031 16 15.03125 16 Z M 18.5 22C16.019531 22 14 24.019531 14 26.5C14 28.980469 16.019531 31 18.5 31C20.980469 31 23 28.980469 23 26.5C23 24.019531 20.980469 22 18.5 22 Z M 31.5 22C29.019531 22 27 24.019531 27 26.5C27 28.980469 29.019531 31 31.5 31C33.980469 31 36 28.980469 36 26.5C36 24.019531 33.980469 22 31.5 22 Z M 18.5 24C19.878906 24 21 25.121094 21 26.5C21 27.878906 19.878906 29 18.5 29C17.121094 29 16 27.878906 16 26.5C16 25.121094 17.121094 24 18.5 24 Z M 31.5 24C32.878906 24 34 25.121094 34 26.5C34 27.878906 32.878906 29 31.5 29C30.121094 29 29 27.878906 29 26.5C29 25.121094 30.121094 24 31.5 24 Z M 4 28L7 28L7 36L4 36 Z M 43 28L46 28L46 36L43 36 Z M 17 39L21 39L21 45L17 45 Z M 23 39L27 39L27 45L23 45 Z M 29 39L33 39L33 45L29 45Z" />
</svg>