<?xml version="1.0" encoding="utf-8"?>
<svg xmlns="http://www.w3.org/2000/svg" viewBox="0 0 50 50" width="515" height="515">
  <path d="M24.921875 3C18.581252 3 14.303756 4.9302084 11.599609 8.0019531C8.9557509 11.005216 7.8672852 14.978385 7.3984375 19.066406L3.3457031 26.050781 A 1.0001 1.0001 0 0 0 3.3359375 26.066406C2.646307 27.307427 3.0876317 28.925449 4.3378906 29.621094 A 1.0001 1.0001 0 0 0 4.3769531 29.640625L7.4199219 31.162109L8.3984375 37.929688 A 1.0001 1.0001 0 0 0 8.4003906 37.943359C8.6154808 39.287826 9.3136276 40.53304 10.292969 41.470703C11.272309 42.408367 12.573122 43.05731 14.001953 43L17 43L17 46L17 47L17.832031 47 A 1.0001 1.0001 0 0 0 18.158203 47L19 47L19 45L19 42 A 1.0001 1.0001 0 0 0 18 41L13.962891 41 A 1.0001 1.0001 0 0 0 13.921875 41C13.15671 41.03069 12.347191 40.67018 11.675781 40.027344C11.004372 39.384507 10.51091 38.478439 10.375 37.628906L9.3242188 30.359375 A 1.0001 1.0001 0 0 0 8.78125 29.607422L5.3105469 27.873047C4.9828058 27.690692 4.897568 27.378042 5.0859375 27.039062L9.2011719 19.947266 A 1.0001 1.0001 0 0 0 9.3300781 19.552734C9.7571873 15.578233 10.80346 11.932771 13.101562 9.3222656C15.399668 6.7117604 18.976498 5 24.921875 5C25.607616 5 26.266517 5.0348609 26.912109 5.0917969 A 1.0001 1.0001 0 1 0 27.087891 3.0996094C26.395483 3.0385451 25.676134 3 24.921875 3 z M 37 3C31.494165 3 27 7.4413793 27 12.908203C27 16.24509 28.457858 18.295978 29.785156 19.652344C30.448805 20.330527 31.068478 20.8645 31.460938 21.320312C31.853395 21.776127 32 22.0719 32 22.453125L32 25L32 26L32 28.818359C32 30.031592 33.056857 30.935734 34.179688 30.990234C34.590935 32.154487 35.701526 33 37 33C38.298474 33 39.409065 32.154487 39.820312 30.990234C40.942839 30.935734 42 30.031592 42 28.818359L42 26L42 25L42 22.455078C42 21.841495 42.183287 21.460863 42.5625 20.986328C42.941713 20.511793 43.538383 20.001847 44.195312 19.367188C45.509172 18.097869 47 16.188841 47 12.910156C47 7.4424436 42.505835 3 37 3 z M 37 5C41.436165 5 45 8.5338698 45 12.910156C45 15.633471 43.990828 16.783756 42.804688 17.929688C42.211616 18.502652 41.558287 19.03966 41 19.738281C40.441713 20.436903 40 21.355161 40 22.455078L40 25L38 25L38 16.414062L40.707031 13.707031 A 1.0001 1.0001 0 0 0 39.990234 11.986328 A 1.0001 1.0001 0 0 0 39.292969 12.292969L37 14.585938L34.707031 12.292969 A 1.0001 1.0001 0 0 0 33.990234 11.990234 A 1.0001 1.0001 0 0 0 33.292969 13.707031L36 16.414062L36 25L34 25L34 22.453125C34 21.46385 33.521605 20.648655 32.976562 20.015625C32.431522 19.382595 31.801195 18.853098 31.214844 18.253906C30.042142 17.055522 29 15.701316 29 12.908203C29 8.5330273 32.563835 5 37 5 z M 34 27L40 27L40 28.818359C40 28.966931 39.965697 29 39.714844 29L34.285156 29C34.032659 29 34 28.966931 34 28.818359L34 27 z M 36.779297 34.986328 A 1.0001 1.0001 0 0 0 35.818359 35.681641C35.295238 37.244625 35 38.894009 35 40.59375L35 45L35 46L35 47L35.832031 47 A 1.0001 1.0001 0 0 0 36.158203 47L37 47L37 46L37 45L37 40.59375C37 39.125491 37.253965 37.695375 37.714844 36.318359 A 1.0001 1.0001 0 0 0 36.779297 34.986328 z" />
</svg>