<?xml version="1.0" encoding="utf-8"?>
<svg xmlns="http://www.w3.org/2000/svg" viewBox="0 0 50 50" width="515" height="515">
  <path d="M25 0C20.097656 0 15.894531 2.921875 14.03125 7.125C7.660156 12.082031 4.085938 17.308594 2.1875 23.875C0.273438 30.496094 0 38.433594 0 49C-0.00390625 49.359375 0.183594 49.695313 0.496094 49.878906C0.808594 50.058594 1.191406 50.058594 1.503906 49.878906C1.816406 49.695313 2.003906 49.359375 2 49C2 38.46875 2.285156 30.691406 4.09375 24.4375C5.664063 19.011719 8.347656 14.6875 13.09375 10.5C13.03125 10.996094 13 11.488281 13 12C12.996094 12.042969 12.996094 12.082031 13 12.125C9.972656 14.542969 8 17.761719 8 21C8 23.15625 8.636719 25.742188 9.25 27.84375C9.546875 28.859375 9.835938 29.746094 10.0625 30.40625C9.457031 31.035156 9 31.953125 9 33.09375C9 35.179688 10.371094 36.851563 12.21875 37.3125C13.027344 40.722656 15.242188 43.75 17.6875 46C18.988281 47.195313 20.34375 48.179688 21.59375 48.875C22.84375 49.570313 23.941406 50 25 50C26.058594 50 27.15625 49.566406 28.40625 48.875C29.65625 48.183594 31.015625 47.1875 32.3125 46C34.761719 43.757813 36.976563 40.753906 37.78125 37.375C39.59375 36.859375 41 35.285156 41 33.1875C41 32.039063 40.519531 31.128906 39.90625 30.5C40.132813 29.832031 40.445313 28.894531 40.75 27.84375C41.363281 25.742188 42 23.15625 42 21C42 17.765625 40.015625 14.574219 37 12.15625C37.003906 12.105469 37.003906 12.050781 37 12C37 11.488281 36.96875 10.996094 36.90625 10.5C41.652344 14.6875 44.335938 19.011719 45.90625 24.4375C47.714844 30.691406 48 38.46875 48 49C47.996094 49.359375 48.183594 49.695313 48.496094 49.878906C48.808594 50.058594 49.191406 50.058594 49.503906 49.878906C49.816406 49.695313 50.003906 49.359375 50 49C50 38.433594 49.726563 30.496094 47.8125 23.875C45.914063 17.308594 42.339844 12.082031 35.96875 7.125C34.105469 2.921875 29.902344 0 25 0 Z M 25 2C29.171875 2 32.710938 4.5 34.21875 8.09375C34.242188 8.171875 34.273438 8.242188 34.3125 8.3125C34.582031 8.996094 34.761719 9.71875 34.875 10.46875C34.847656 10.398438 34.820313 10.339844 34.78125 10.25C34.644531 9.945313 34.445313 9.570313 34.1875 9.15625C33.78125 8.5 33.136719 7.8125 32.28125 7.375C31.976563 5.816406 30.644531 4.59375 29 4.59375C28.734375 4.59375 28.480469 4.746094 28.21875 4.8125C27.460938 3.796875 26.375 3 25 3C23.625 3 22.539063 3.796875 21.78125 4.8125C21.519531 4.746094 21.265625 4.59375 21 4.59375C19.355469 4.59375 18.023438 5.816406 17.71875 7.375C16.859375 7.832031 16.226563 8.53125 15.8125 9.1875C15.554688 9.59375 15.355469 9.984375 15.21875 10.28125C15.175781 10.375 15.15625 10.433594 15.125 10.5C15.238281 9.738281 15.417969 9.003906 15.6875 8.3125C15.710938 8.261719 15.734375 8.210938 15.75 8.15625C15.753906 8.144531 15.777344 8.136719 15.78125 8.125C15.78125 8.113281 15.78125 8.105469 15.78125 8.09375C15.789063 8.070313 15.804688 8.054688 15.8125 8.03125C17.335938 4.472656 20.851563 2 25 2 Z M 25 5C25.890625 5 26.652344 5.550781 27 6.3125C27.125 6.578125 27.359375 6.777344 27.640625 6.855469C27.921875 6.933594 28.226563 6.882813 28.46875 6.71875C28.554688 6.660156 28.765625 6.59375 29 6.59375C29.734375 6.59375 30.40625 7.265625 30.40625 8C30.40625 8.457031 30.714844 8.855469 31.15625 8.96875C31.242188 8.988281 31.34375 9.042969 31.4375 9.09375C29.449219 8.402344 27.285156 8 25 8C22.753906 8 20.617188 8.390625 18.65625 9.0625C18.730469 9.023438 18.800781 8.988281 18.875 8.96875C19.304688 8.84375 19.597656 8.449219 19.59375 8C19.59375 7.265625 20.265625 6.59375 21 6.59375C21.234375 6.59375 21.445313 6.660156 21.53125 6.71875C21.773438 6.882813 22.078125 6.933594 22.359375 6.855469C22.640625 6.777344 22.875 6.578125 23 6.3125C23.347656 5.550781 24.109375 5 25 5 Z M 25 10C29.160156 10 32.964844 11.507813 35.6875 13.65625C38.410156 15.804688 40 18.570313 40 21C40 22.746094 39.433594 25.257813 38.84375 27.28125C38.570313 28.21875 38.308594 29 38.09375 29.625C38.0625 29.617188 38.03125 29.632813 38 29.625L38 28.6875C38 27.113281 37.464844 25.945313 36.65625 25.15625C35.847656 24.367188 34.878906 23.9375 34 23.4375C32.242188 22.433594 30.582031 21.332031 29.875 17.03125C29.800781 16.550781 29.390625 16.195313 28.90625 16.1875C28.441406 16.191406 28.039063 16.515625 27.9375 16.96875C27.464844 19.105469 26.386719 20.398438 24.96875 21.34375C23.550781 22.289063 21.753906 22.851563 19.9375 23.28125C18.121094 23.710938 16.328125 23.992188 14.84375 24.5625C14.101563 24.847656 13.410156 25.214844 12.875 25.78125C12.339844 26.347656 12 27.136719 12 28L12 29.5C11.957031 29.507813 11.917969 29.523438 11.875 29.53125C11.664063 28.914063 11.417969 28.179688 11.15625 27.28125C10.566406 25.257813 10 22.746094 10 21C10 18.570313 11.589844 15.804688 14.3125 13.65625C17.035156 11.507813 20.839844 10 25 10 Z M 28.6875 20.15625C29.777344 22.953125 31.542969 24.304688 33.03125 25.15625C33.992188 25.703125 34.773438 26.132813 35.25 26.59375C35.726563 27.054688 36 27.511719 36 28.6875L36 30.3125C36 30.863281 36.449219 31.3125 37 31.3125C37.300781 31.3125 37.90625 31.433594 38.3125 31.71875C38.71875 32.003906 39 32.328125 39 33.1875C39 34.632813 38.132813 35.445313 36.875 35.59375C36.449219 35.65625 36.109375 35.980469 36.03125 36.40625C35.492188 39.378906 33.347656 42.355469 30.96875 44.53125C29.78125 45.617188 28.523438 46.523438 27.4375 47.125C26.351563 47.726563 25.390625 48 25 48C24.609375 48 23.648438 47.726563 22.5625 47.125C21.476563 46.523438 20.21875 45.625 19.03125 44.53125C16.652344 42.34375 14.511719 39.335938 13.96875 36.3125C13.886719 35.867188 13.511719 35.535156 13.0625 35.5C11.878906 35.429688 11 34.539063 11 33.09375C11 32.234375 11.28125 31.878906 11.6875 31.59375C12.09375 31.308594 12.699219 31.1875 13 31.1875C13.550781 31.1875 14 30.738281 14 30.1875L14 28C14 27.589844 14.085938 27.398438 14.3125 27.15625C14.539063 26.914063 14.976563 26.660156 15.5625 26.4375C16.730469 25.988281 18.507813 25.664063 20.40625 25.21875C22.304688 24.773438 24.335938 24.171875 26.09375 23C27.128906 22.308594 27.980469 21.320313 28.6875 20.15625Z" />
</svg>