<?xml version="1.0" encoding="utf-8"?>
<svg xmlns="http://www.w3.org/2000/svg" viewBox="0 0 50 50" width="515" height="515">
  <path d="M31.90625 1.96875C31.863281 1.976563 31.820313 1.988281 31.78125 2L7 2L7 48L43 48L43 13.1875C43.027344 13.054688 43.027344 12.914063 43 12.78125L43 12.59375L42.84375 12.4375C42.835938 12.417969 42.824219 12.394531 42.8125 12.375L42.78125 12.34375C42.761719 12.320313 42.742188 12.300781 42.71875 12.28125L42.6875 12.28125C42.667969 12.257813 42.648438 12.238281 42.625 12.21875L32.84375 2.4375C32.769531 2.324219 32.675781 2.230469 32.5625 2.15625L32.40625 2L32.1875 2C32.097656 1.976563 32 1.964844 31.90625 1.96875 Z M 9 4L31 4L31 14L41 14L41 46L9 46 Z M 33 5.4375L39.5625 12L33 12 Z M 14 18L14 24L20 24L20 18 Z M 16 20L18 20L18 22L16 22 Z M 22 20L22 22L36 22L36 20 Z M 14 26L14 32L20 32L20 26 Z M 16 28L18 28L18 30L16 30 Z M 22 28L22 30L36 30L36 28 Z M 14 34L14 40L20 40L20 34 Z M 16 36L18 36L18 38L16 38 Z M 22 36L22 38L36 38L36 36Z" />
</svg>