<?xml version="1.0" encoding="utf-8"?>
<svg xmlns="http://www.w3.org/2000/svg" viewBox="0 0 50 50" width="515" height="515">
  <path d="M17 2C15.707031 2 14.605469 2.84375 14.1875 4L5 4C3.355469 4 2 5.355469 2 7L2 43C2 44.644531 3.355469 46 5 46L14.1875 46C14.605469 47.15625 15.707031 48 17 48L33 48C34.292969 48 35.394531 47.15625 35.8125 46L45 46C46.644531 46 48 44.644531 48 43L48 7C48 5.355469 46.644531 4 45 4L35.8125 4C35.394531 2.84375 34.292969 2 33 2 Z M 17 4L33 4C33.566406 4 34 4.433594 34 5L34 45C34 45.566406 33.566406 46 33 46L17 46C16.433594 46 16 45.566406 16 45L16 5C16 4.433594 16.433594 4 17 4 Z M 5 6L14 6L14 12L7 12L7 14L14 14L14 16L7 16L7 18L14 18L14 26L12 26L12 28L14 28L14 30L12 30L12 32L14 32L14 44L5 44C4.433594 44 4 43.566406 4 43L4 7C4 6.433594 4.433594 6 5 6 Z M 36 6L45 6C45.566406 6 46 6.433594 46 7L46 43C46 43.566406 45.566406 44 45 44L36 44L36 36L43 36L43 34L36 34L36 32L43 32L43 30L36 30L36 28L43 28L43 26L36 26L36 18L43 18L43 16L36 16L36 14L43 14L43 12L36 12 Z M 19 10L19 12L31 12L31 10 Z M 19 14L19 16L31 16L31 14 Z M 9 26C8.449219 26 8 26.449219 8 27C8 27.550781 8.449219 28 9 28C9.550781 28 10 27.550781 10 27C10 26.449219 9.550781 26 9 26 Z M 20 26C19.449219 26 19 26.449219 19 27C19 27.550781 19.449219 28 20 28C20.550781 28 21 27.550781 21 27C21 26.449219 20.550781 26 20 26 Z M 23 26L23 28L31 28L31 26 Z M 9 30C8.449219 30 8 30.449219 8 31C8 31.550781 8.449219 32 9 32C9.550781 32 10 31.550781 10 31C10 30.449219 9.550781 30 9 30 Z M 20 30C19.449219 30 19 30.449219 19 31C19 31.550781 19.449219 32 20 32C20.550781 32 21 31.550781 21 31C21 30.449219 20.550781 30 20 30 Z M 23 30L23 32L31 32L31 30 Z M 20 34C19.449219 34 19 34.449219 19 35C19 35.550781 19.449219 36 20 36C20.550781 36 21 35.550781 21 35C21 34.449219 20.550781 34 20 34 Z M 23 34L23 36L31 36L31 34 Z M 20 38C19.449219 38 19 38.449219 19 39C19 39.550781 19.449219 40 20 40C20.550781 40 21 39.550781 21 39C21 38.449219 20.550781 38 20 38 Z M 23 38L23 40L31 40L31 38Z" />
</svg>