<?xml version="1.0" encoding="utf-8"?>
<svg xmlns="http://www.w3.org/2000/svg" viewBox="0 0 50 50" width="515" height="515">
  <path d="M2.8125 3C1.277344 3 0 4.277344 0 5.8125L0 10.8125C-0.00390625 10.855469 -0.00390625 10.894531 0 10.9375L0 46C0 46.550781 0.449219 47 1 47L49 47C49.550781 47 50 46.550781 50 46L50 11C50 10.96875 50 10.9375 50 10.90625L50 5.8125C50 4.277344 48.722656 3 47.1875 3 Z M 2.8125 5L47.1875 5C47.652344 5 48 5.347656 48 5.8125L48 10L2 10L2 5.8125C2 5.347656 2.347656 5 2.8125 5 Z M 2 12L48 12L48 45L2 45 Z M 10 17L10 19L40 19L40 17 Z M 10 25L10 27L13 27L13 25 Z M 17 25L17 27L40 27L40 25 Z M 10 31L10 33L13 33L13 31 Z M 17 31L17 33L40 33L40 31 Z M 10 37L10 39L13 39L13 37 Z M 17 37L17 39L40 39L40 37Z" />
</svg>