<?xml version="1.0" encoding="utf-8"?>
<svg xmlns="http://www.w3.org/2000/svg" viewBox="0 0 50 50" width="515" height="515">
  <path d="M24.875 9C24.71875 9.015625 24.570313 9.070313 24.4375 9.15625L12.5625 17.0625C12.507813 17.089844 12.457031 17.121094 12.40625 17.15625C12.167969 17.335938 12.019531 17.609375 12 17.90625C12 17.9375 12 17.96875 12 18C11.992188 18.136719 12.015625 18.277344 12.0625 18.40625C12.121094 18.960938 12.269531 19.472656 12.53125 19.9375L3.65625 26.03125C3.539063 26.082031 3.433594 26.15625 3.34375 26.25C3.101563 26.402344 2.9375 26.648438 2.890625 26.929688C2.84375 27.207031 2.917969 27.496094 3.09375 27.71875C3.476563 29.640625 5.359375 31 7.5 31C7.671875 31 7.832031 30.984375 8 30.96875L8 49L43 49L43 41.15625C43.003906 41.105469 43.003906 41.050781 43 41L43 30.96875C44.941406 30.769531 46.597656 29.472656 46.9375 27.6875C47.203125 27.300781 47.164063 26.78125 46.84375 26.4375C46.84375 26.425781 46.84375 26.417969 46.84375 26.40625C46.824219 26.382813 46.804688 26.363281 46.78125 26.34375C46.753906 26.308594 46.722656 26.277344 46.6875 26.25C46.667969 26.238281 46.644531 26.226563 46.625 26.21875C46.613281 26.21875 46.605469 26.21875 46.59375 26.21875C46.582031 26.207031 46.574219 26.199219 46.5625 26.1875C46.503906 26.140625 46.441406 26.097656 46.375 26.0625L37.46875 19.96875C37.765625 19.453125 37.929688 18.871094 37.96875 18.25C37.988281 18.167969 38 18.085938 38 18C38 17.988281 38 17.980469 38 17.96875C38 17.949219 38 17.925781 38 17.90625C38 17.886719 38 17.863281 38 17.84375C37.992188 17.800781 37.980469 17.757813 37.96875 17.71875C37.96875 17.699219 37.96875 17.675781 37.96875 17.65625C37.957031 17.644531 37.949219 17.636719 37.9375 17.625C37.929688 17.605469 37.917969 17.582031 37.90625 17.5625C37.894531 17.550781 37.886719 17.542969 37.875 17.53125C37.855469 17.488281 37.835938 17.445313 37.8125 17.40625C37.804688 17.386719 37.792969 17.363281 37.78125 17.34375C37.753906 17.308594 37.722656 17.277344 37.6875 17.25C37.667969 17.238281 37.644531 17.226563 37.625 17.21875C37.613281 17.207031 37.605469 17.199219 37.59375 17.1875C37.582031 17.175781 37.574219 17.167969 37.5625 17.15625C37.53125 17.132813 37.5 17.113281 37.46875 17.09375L25.5625 9.15625C25.359375 9.023438 25.117188 8.96875 24.875 9 Z M 25 11.21875L35.9375 18.5C35.71875 19.367188 34.941406 20 34 20C32.882813 20 32 19.117188 32 18C32 17.96875 32 17.9375 32 17.90625C31.996094 17.84375 31.984375 17.78125 31.96875 17.71875C31.960938 17.675781 31.949219 17.632813 31.9375 17.59375C31.917969 17.570313 31.898438 17.550781 31.875 17.53125C31.867188 17.5 31.855469 17.46875 31.84375 17.4375C31.78125 17.355469 31.707031 17.28125 31.625 17.21875C31.578125 17.171875 31.523438 17.128906 31.46875 17.09375C31.4375 17.082031 31.40625 17.070313 31.375 17.0625C31.316406 17.035156 31.25 17.015625 31.1875 17C31.054688 16.972656 30.914063 16.972656 30.78125 17C30.589844 17.042969 30.417969 17.140625 30.28125 17.28125C30.28125 17.292969 30.28125 17.300781 30.28125 17.3125C30.234375 17.351563 30.195313 17.390625 30.15625 17.4375C30.15625 17.449219 30.15625 17.457031 30.15625 17.46875C30.121094 17.519531 30.089844 17.570313 30.0625 17.625C30.050781 17.65625 30.039063 17.6875 30.03125 17.71875C30.019531 17.75 30.007813 17.78125 30 17.8125C30 17.824219 30 17.832031 30 17.84375C29.996094 17.894531 29.996094 17.949219 30 18C30 19.117188 29.117188 20 28 20C26.882813 20 26 19.117188 26 18C26 17.96875 26 17.9375 26 17.90625C25.996094 17.84375 25.984375 17.78125 25.96875 17.71875C25.960938 17.675781 25.949219 17.632813 25.9375 17.59375C25.917969 17.570313 25.898438 17.550781 25.875 17.53125C25.867188 17.5 25.855469 17.46875 25.84375 17.4375C25.78125 17.355469 25.707031 17.28125 25.625 17.21875C25.578125 17.171875 25.523438 17.128906 25.46875 17.09375C25.4375 17.082031 25.40625 17.070313 25.375 17.0625C25.316406 17.035156 25.25 17.015625 25.1875 17C25.054688 16.972656 24.914063 16.972656 24.78125 17C24.589844 17.042969 24.417969 17.140625 24.28125 17.28125C24.28125 17.292969 24.28125 17.300781 24.28125 17.3125C24.234375 17.351563 24.195313 17.390625 24.15625 17.4375C24.15625 17.449219 24.15625 17.457031 24.15625 17.46875C24.121094 17.519531 24.089844 17.570313 24.0625 17.625C24.050781 17.65625 24.039063 17.6875 24.03125 17.71875C24.019531 17.75 24.007813 17.78125 24 17.8125C24 17.824219 24 17.832031 24 17.84375C23.996094 17.894531 23.996094 17.949219 24 18C24 19.117188 23.117188 20 22 20C20.882813 20 20 19.117188 20 18C20 17.96875 20 17.9375 20 17.90625C19.996094 17.84375 19.984375 17.78125 19.96875 17.71875C19.960938 17.675781 19.949219 17.632813 19.9375 17.59375C19.917969 17.570313 19.898438 17.550781 19.875 17.53125C19.867188 17.5 19.855469 17.46875 19.84375 17.4375C19.78125 17.355469 19.707031 17.28125 19.625 17.21875C19.578125 17.171875 19.523438 17.128906 19.46875 17.09375C19.4375 17.082031 19.40625 17.070313 19.375 17.0625C19.316406 17.035156 19.25 17.015625 19.1875 17C19.054688 16.972656 18.914063 16.972656 18.78125 17C18.589844 17.042969 18.417969 17.140625 18.28125 17.28125C18.28125 17.292969 18.28125 17.300781 18.28125 17.3125C18.234375 17.351563 18.195313 17.390625 18.15625 17.4375C18.15625 17.449219 18.15625 17.457031 18.15625 17.46875C18.082031 17.574219 18.03125 17.6875 18 17.8125C18 17.824219 18 17.832031 18 17.84375C17.996094 17.894531 17.996094 17.949219 18 18C18 19.117188 17.117188 20 16 20C15.058594 20 14.28125 19.367188 14.0625 18.5 Z M 19 20.59375C19.734375 21.441406 20.800781 22 22 22C23.199219 22 24.265625 21.441406 25 20.59375C25.734375 21.441406 26.800781 22 28 22C29.199219 22 30.265625 21.441406 31 20.59375C31.734375 21.441406 32.800781 22 34 22C34.746094 22 35.429688 21.769531 36.03125 21.40625L44.90625 27.46875C44.648438 28.300781 43.738281 29 42.5 29C41.03125 29 40 28.027344 40 27C40 26.96875 40 26.9375 40 26.90625C39.996094 26.84375 39.984375 26.78125 39.96875 26.71875C39.960938 26.675781 39.949219 26.632813 39.9375 26.59375C39.917969 26.570313 39.898438 26.550781 39.875 26.53125C39.867188 26.5 39.855469 26.46875 39.84375 26.4375C39.78125 26.355469 39.707031 26.28125 39.625 26.21875C39.578125 26.171875 39.523438 26.128906 39.46875 26.09375C39.4375 26.082031 39.40625 26.070313 39.375 26.0625C39.316406 26.035156 39.25 26.015625 39.1875 26C39.054688 25.972656 38.914063 25.972656 38.78125 26C38.589844 26.042969 38.417969 26.140625 38.28125 26.28125C38.28125 26.292969 38.28125 26.300781 38.28125 26.3125C38.234375 26.351563 38.195313 26.390625 38.15625 26.4375C38.15625 26.449219 38.15625 26.457031 38.15625 26.46875C38.121094 26.519531 38.089844 26.570313 38.0625 26.625C38.050781 26.65625 38.039063 26.6875 38.03125 26.71875C38.019531 26.75 38.007813 26.78125 38 26.8125C38 26.824219 38 26.832031 38 26.84375C37.996094 26.894531 37.996094 26.949219 38 27C38 28.027344 36.96875 29 35.5 29C34.03125 29 33 28.027344 33 27C33 26.96875 33 26.9375 33 26.90625C32.996094 26.84375 32.984375 26.78125 32.96875 26.71875C32.960938 26.675781 32.949219 26.632813 32.9375 26.59375C32.917969 26.570313 32.898438 26.550781 32.875 26.53125C32.867188 26.5 32.855469 26.46875 32.84375 26.4375C32.78125 26.355469 32.707031 26.28125 32.625 26.21875C32.578125 26.171875 32.523438 26.128906 32.46875 26.09375C32.4375 26.082031 32.40625 26.070313 32.375 26.0625C32.316406 26.035156 32.25 26.015625 32.1875 26C32.054688 25.972656 31.914063 25.972656 31.78125 26C31.589844 26.042969 31.417969 26.140625 31.28125 26.28125C31.28125 26.292969 31.28125 26.300781 31.28125 26.3125C31.234375 26.351563 31.195313 26.390625 31.15625 26.4375C31.15625 26.449219 31.15625 26.457031 31.15625 26.46875C31.121094 26.519531 31.089844 26.570313 31.0625 26.625C31.050781 26.65625 31.039063 26.6875 31.03125 26.71875C31.019531 26.75 31.007813 26.78125 31 26.8125C31 26.824219 31 26.832031 31 26.84375C30.996094 26.894531 30.996094 26.949219 31 27C31 28.027344 29.96875 29 28.5 29C27.03125 29 26 28.027344 26 27C26 26.96875 26 26.9375 26 26.90625C25.996094 26.84375 25.984375 26.78125 25.96875 26.71875C25.960938 26.675781 25.949219 26.632813 25.9375 26.59375C25.917969 26.570313 25.898438 26.550781 25.875 26.53125C25.867188 26.5 25.855469 26.46875 25.84375 26.4375C25.78125 26.355469 25.707031 26.28125 25.625 26.21875C25.578125 26.171875 25.523438 26.128906 25.46875 26.09375C25.4375 26.082031 25.40625 26.070313 25.375 26.0625C25.316406 26.035156 25.25 26.015625 25.1875 26C25.054688 25.972656 24.914063 25.972656 24.78125 26C24.589844 26.042969 24.417969 26.140625 24.28125 26.28125C24.28125 26.292969 24.28125 26.300781 24.28125 26.3125C24.234375 26.351563 24.195313 26.390625 24.15625 26.4375C24.15625 26.449219 24.15625 26.457031 24.15625 26.46875C24.121094 26.519531 24.089844 26.570313 24.0625 26.625C24.050781 26.65625 24.039063 26.6875 24.03125 26.71875C24.019531 26.75 24.007813 26.78125 24 26.8125C24 26.824219 24 26.832031 24 26.84375C23.996094 26.894531 23.996094 26.949219 24 27C24 28.027344 22.96875 29 21.5 29C20.03125 29 19 28.027344 19 27C19 26.96875 19 26.9375 19 26.90625C18.996094 26.84375 18.984375 26.78125 18.96875 26.71875C18.960938 26.675781 18.949219 26.632813 18.9375 26.59375C18.917969 26.570313 18.898438 26.550781 18.875 26.53125C18.867188 26.5 18.855469 26.46875 18.84375 26.4375C18.78125 26.355469 18.707031 26.28125 18.625 26.21875C18.578125 26.171875 18.523438 26.128906 18.46875 26.09375C18.4375 26.082031 18.40625 26.070313 18.375 26.0625C18.316406 26.035156 18.25 26.015625 18.1875 26C18.054688 25.972656 17.914063 25.972656 17.78125 26C17.589844 26.042969 17.417969 26.140625 17.28125 26.28125C17.28125 26.292969 17.28125 26.300781 17.28125 26.3125C17.234375 26.351563 17.195313 26.390625 17.15625 26.4375C17.15625 26.449219 17.15625 26.457031 17.15625 26.46875C17.121094 26.519531 17.089844 26.570313 17.0625 26.625C17.050781 26.65625 17.039063 26.6875 17.03125 26.71875C17.019531 26.75 17.007813 26.78125 17 26.8125C17 26.824219 17 26.832031 17 26.84375C16.996094 26.894531 16.996094 26.949219 17 27C17 28.027344 15.96875 29 14.5 29C13.03125 29 12 28.027344 12 27C12 26.96875 12 26.9375 12 26.90625C11.996094 26.84375 11.984375 26.78125 11.96875 26.71875C11.960938 26.675781 11.949219 26.632813 11.9375 26.59375C11.917969 26.570313 11.898438 26.550781 11.875 26.53125C11.867188 26.5 11.855469 26.46875 11.84375 26.4375C11.78125 26.355469 11.707031 26.28125 11.625 26.21875C11.578125 26.171875 11.523438 26.128906 11.46875 26.09375C11.4375 26.082031 11.40625 26.070313 11.375 26.0625C11.316406 26.035156 11.25 26.015625 11.1875 26C11.054688 25.972656 10.914063 25.972656 10.78125 26C10.589844 26.042969 10.417969 26.140625 10.28125 26.28125C10.28125 26.292969 10.28125 26.300781 10.28125 26.3125C10.234375 26.351563 10.195313 26.390625 10.15625 26.4375C10.15625 26.449219 10.15625 26.457031 10.15625 26.46875C10.082031 26.574219 10.03125 26.6875 10 26.8125C10 26.824219 10 26.832031 10 26.84375C9.996094 26.894531 9.996094 26.949219 10 27C10 28.027344 8.96875 29 7.5 29C6.246094 29 5.339844 28.28125 5.09375 27.4375L13.9375 21.40625C14.542969 21.777344 15.242188 22 16 22C17.199219 22 18.265625 21.441406 19 20.59375 Z M 11 29.5C11.839844 30.421875 13.117188 31 14.5 31C15.882813 31 17.160156 30.421875 18 29.5C18.839844 30.421875 20.117188 31 21.5 31C22.882813 31 24.160156 30.421875 25 29.5C25.839844 30.421875 27.117188 31 28.5 31C28.671875 31 28.832031 30.984375 29 30.96875L29 43L41 43L41 47L10 47L10 30.3125C10.371094 30.089844 10.714844 29.8125 11 29.5 Z M 32 29.5C32.839844 30.421875 34.117188 31 35.5 31C36.882813 31 38.160156 30.421875 39 29.5C39.523438 30.074219 40.21875 30.5 41 30.75L41 41L31 41L31 30.3125C31.371094 30.089844 31.714844 29.8125 32 29.5 Z M 14 32L14 41L23 41L23 32 Z M 16 34L21 34L21 39L16 39Z" />
</svg>