<?xml version="1.0" encoding="utf-8"?>
<svg xmlns="http://www.w3.org/2000/svg" viewBox="0 0 50 50" width="515" height="515">
  <path d="M9 4C6.2504839 4 4 6.2504839 4 9L4 41C4 43.749516 6.2504839 46 9 46L41 46C43.749516 46 46 43.749516 46 41L46 9C46 6.2504839 43.749516 4 41 4L9 4 z M 9 6L41 6C42.668484 6 44 7.3315161 44 9L44 41C44 42.668484 42.668484 44 41 44L9 44C7.3315161 44 6 42.668484 6 41L6 9C6 7.3315161 7.3315161 6 9 6 z M 25 11C20.301121 11 16.92853 11.677278 14.888672 12.263672L14.886719 12.263672C13.177338 12.755881 12 14.331455 12 16.107422L12 22L11 22L11 27L12 27L12 38.5C12 39.317063 12.682937 40 13.5 40L14.5 40C15.317063 40 16 39.317063 16 38.5L16 38L34 38L34 38.5C34 39.317063 34.682937 40 35.5 40L36.5 40C37.317063 40 38 39.317063 38 38.5L38 27L39 27L39 22L38 22L38 16.107422C38 14.331455 36.822709 12.755881 35.113281 12.263672L35.111328 12.263672C33.071517 11.677278 29.698879 11 25 11 z M 25 13C29.507121 13 32.690405 13.647941 34.560547 14.185547C35.385221 14.423742 35.94543 15.14758 35.990234 16L14.009766 16C14.05457 15.14758 14.614779 14.423742 15.439453 14.185547C17.309595 13.647941 20.492879 13 25 13 z M 14 18L24 18L24 27L14 27L14 18 z M 26 18L36 18L36 27L26 27L26 18 z M 14 29L36 29L36 36L14 36L14 29 z M 17.5 31 A 1.5 1.5 0 0 0 16 32.5 A 1.5 1.5 0 0 0 17.5 34 A 1.5 1.5 0 0 0 19 32.5 A 1.5 1.5 0 0 0 17.5 31 z M 32.5 31 A 1.5 1.5 0 0 0 31 32.5 A 1.5 1.5 0 0 0 32.5 34 A 1.5 1.5 0 0 0 34 32.5 A 1.5 1.5 0 0 0 32.5 31 z" />
</svg>