<?xml version="1.0" encoding="utf-8"?>
<svg xmlns="http://www.w3.org/2000/svg" width="515" height="515" viewBox="0 0 50 50">
  <path d="M25 2C22.525483 2 20.317379 2.7238585 18.6875 3.9609375C17.348036 4.9775914 16.558657 6.4228011 16.261719 8L3 8C1.3550302 8 0 9.3550302 0 11L0 28L0 45C0 46.64497 1.3550302 48 3 48L47 48C48.64497 48 50 46.64497 50 45L50 28L50 11C50 9.3550302 48.64497 8 47 8L33.738281 8C33.441343 6.4228011 32.651964 4.9775914 31.3125 3.9609375C29.682621 2.7238585 27.474517 2 25 2 z M 25 4C27.081483 4 28.872395 4.6202665 30.103516 5.5546875C31.004215 6.2383188 31.482349 7.0924152 31.738281 8L18.261719 8C18.517651 7.0924152 18.995785 6.2383188 19.896484 5.5546875C21.127605 4.6202665 22.918517 4 25 4 z M 3 10L16.832031 10 A 1.0001 1.0001 0 0 0 17.158203 10L32.832031 10 A 1.0001 1.0001 0 0 0 33.158203 10L47 10C47.56503 10 48 10.43497 48 11L48 28C48 28.56503 47.56503 29 47 29L30 29C30 27.35503 28.64497 26 27 26L23 26C21.35503 26 20 27.35503 20 29L3 29C2.4349698 29 2 28.56503 2 28L2 11C2 10.43497 2.4349698 10 3 10 z M 23 28L27 28C27.56503 28 28 28.43497 28 29L28 29.832031 A 1.0001 1.0001 0 0 0 28 30.158203L28 31C28 31.56503 27.56503 32 27 32L23 32C22.43497 32 22 31.56503 22 31L22 30.167969 A 1.0001 1.0001 0 0 0 22 29.841797L22 29C22 28.43497 22.43497 28 23 28 z M 2 30.8125C2.3148915 30.92606 2.6481575 31 3 31L20 31C20 32.64497 21.35503 34 23 34L27 34C28.64497 34 30 32.64497 30 31L47 31C47.351843 31 47.685108 30.92606 48 30.8125L48 45C48 45.56503 47.56503 46 47 46L3 46C2.4349698 46 2 45.56503 2 45L2 30.8125 z" />
</svg>