<?xml version="1.0" encoding="utf-8"?>
<svg xmlns="http://www.w3.org/2000/svg" viewBox="0 0 50 50" width="515" height="515">
  <path d="M26 4C21.882813 4 18.921875 5.421875 16.96875 7.59375C15.015625 9.765625 14.042969 12.589844 13.46875 15.4375C12.894531 18.285156 12.722656 21.179688 12.46875 23.5C12.34375 24.660156 12.203125 25.671875 12 26.4375C11.796875 27.203125 11.53125 27.675781 11.34375 27.84375C11.125 28.03125 11 28.304688 11 28.59375C11 29.410156 11.5625 30.078125 12.15625 30.46875C12.75 30.859375 13.433594 31.089844 14.25 31.3125C15.621094 31.683594 17.402344 31.90625 19.15625 32.125C19.148438 32.183594 19.132813 32.210938 19.125 32.28125C18.832031 33.023438 18.101563 33.683594 16.90625 34.28125C16.898438 34.285156 16.882813 34.277344 16.875 34.28125C16.84375 34.289063 16.8125 34.300781 16.78125 34.3125C16.621094 34.347656 16.46875 34.421875 16.34375 34.53125C15.144531 35.066406 13.703125 35.554688 12.21875 36.1875C10.542969 36.902344 8.828125 37.777344 7.46875 39.15625C6.109375 40.535156 5.136719 42.445313 5 44.9375C4.984375 45.214844 5.082031 45.484375 5.269531 45.683594C5.460938 45.886719 5.722656 46 6 46L44 46C44.277344 46 44.539063 45.886719 44.730469 45.683594C44.917969 45.484375 45.015625 45.214844 45 44.9375C44.863281 42.445313 43.914063 40.539063 42.5625 39.15625C41.210938 37.773438 39.511719 36.910156 37.84375 36.1875C36.175781 35.464844 34.523438 34.886719 33.25 34.25C32.007813 33.628906 31.207031 33.011719 30.875 32.21875C30.875 32.1875 30.875 32.128906 30.875 32.09375C32.703125 31.867188 34.511719 31.601563 35.90625 31.15625C36.738281 30.890625 37.457031 30.582031 38.03125 30.21875C38.605469 29.855469 39.1875 29.371094 39.1875 28.5C39.195313 28.21875 39.082031 27.945313 38.875 27.75C38.730469 27.621094 38.519531 27.21875 38.375 26.53125C38.230469 25.84375 38.136719 24.929688 38.09375 23.875C38.003906 21.765625 38.042969 19.128906 37.71875 16.53125C37.394531 13.933594 36.714844 11.328125 35.0625 9.3125C33.511719 7.421875 31.058594 6.210938 27.65625 6.0625L26.90625 4.5625C26.738281 4.214844 26.386719 3.996094 26 4 Z M 25.4375 6.09375L26.09375 7.4375C26.261719 7.785156 26.613281 8.003906 27 8C30.332031 8 32.253906 9.03125 33.53125 10.59375C34.808594 12.15625 35.417969 14.367188 35.71875 16.78125C36.019531 19.195313 36 21.773438 36.09375 23.96875C36.140625 25.066406 36.222656 26.050781 36.40625 26.9375C36.527344 27.511719 36.835938 27.972656 37.125 28.4375C37.097656 28.457031 37.070313 28.464844 36.96875 28.53125C36.636719 28.742188 36.042969 29.015625 35.3125 29.25C33.851563 29.71875 31.804688 30.117188 29.71875 30.3125C29.433594 30.335938 29.171875 30.476563 29 30.703125C28.828125 30.929688 28.757813 31.21875 28.8125 31.5C28.890625 31.898438 28.90625 32.199219 28.90625 32.5C28.90625 32.617188 28.929688 32.734375 28.96875 32.84375C29.140625 33.289063 29.375 33.671875 29.65625 34.03125L25 40.3125L20.4375 34C20.675781 33.679688 20.886719 33.332031 21.03125 32.9375C21.058594 32.878906 21.078125 32.8125 21.09375 32.75C21.199219 32.011719 21.1875 31.613281 21.1875 31.3125C21.191406 30.804688 20.816406 30.375 20.3125 30.3125C18.222656 30.0625 16.195313 29.789063 14.78125 29.40625C14.074219 29.214844 13.539063 28.96875 13.25 28.78125C13.003906 28.621094 13.027344 28.621094 13.03125 28.625C13.382813 28.109375 13.761719 27.605469 13.9375 26.9375C14.1875 25.988281 14.335938 24.917969 14.46875 23.71875C14.730469 21.324219 14.898438 18.507813 15.4375 15.84375C15.976563 13.179688 16.878906 10.675781 18.46875 8.90625C19.960938 7.246094 22.144531 6.226563 25.4375 6.09375 Z M 18.9375 35.375L22.84375 40.75C21.960938 40.582031 21.046875 40.355469 20.21875 40.125C19.011719 39.789063 18.492188 39.578125 18.09375 39.4375C18.074219 38.582031 18.015625 36.710938 18 35.90625C18.320313 35.738281 18.640625 35.570313 18.9375 35.375 Z M 31.15625 35.375C31.425781 35.554688 31.710938 35.71875 32 35.875C31.984375 36.664063 31.925781 38.574219 31.90625 39.4375C31.507813 39.578125 30.988281 39.789063 29.78125 40.125C28.960938 40.351563 28.058594 40.585938 27.1875 40.75 Z M 33.96875 36.78125C34.980469 37.199219 36.019531 37.59375 37.03125 38.03125C38.601563 38.710938 40.066406 39.480469 41.125 40.5625C41.96875 41.425781 42.476563 42.574219 42.75 44L7.25 44C7.523438 42.574219 8.027344 41.421875 8.875 40.5625C9.941406 39.484375 11.425781 38.703125 13 38.03125C14.003906 37.601563 15.035156 37.214844 16.03125 36.8125C16.058594 38.285156 16.09375 40.21875 16.09375 40.21875C16.09375 40.636719 16.355469 41.011719 16.75 41.15625C16.75 41.15625 18.039063 41.601563 19.6875 42.0625C21.25 42.5 23.117188 42.921875 24.71875 42.96875C24.808594 42.972656 24.910156 43 25 43C25.019531 43 25.042969 43 25.0625 43C25.105469 43.003906 25.144531 43.003906 25.1875 43C25.207031 42.992188 25.230469 42.980469 25.25 42.96875C25.261719 42.96875 25.269531 42.96875 25.28125 42.96875C26.882813 42.921875 28.75 42.5 30.3125 42.0625C31.960938 41.601563 33.25 41.15625 33.25 41.15625C33.644531 41.011719 33.90625 40.636719 33.90625 40.21875C33.90625 40.21875 33.941406 38.253906 33.96875 36.78125Z" />
</svg>