<?xml version="1.0" encoding="utf-8"?>
<svg xmlns="http://www.w3.org/2000/svg" viewBox="0 0 50 50" width="515" height="515">
  <path d="M4 12C1.800781 12 0 13.800781 0 16L0 34C0 36.199219 1.800781 38 4 38L46 38C48.199219 38 50 36.199219 50 34L50 16C50 13.800781 48.199219 12 46 12 Z M 4 14L46 14C47.117188 14 48 14.882813 48 16L48 34C48 35.117188 47.117188 36 46 36L4 36C2.882813 36 2 35.117188 2 34L2 16C2 14.882813 2.882813 14 4 14 Z M 33.527344 22.308594C31.835938 22.308594 30.746094 23.445313 30.746094 25.277344C30.746094 27.113281 31.824219 28.25 33.527344 28.25C35.21875 28.25 36.296875 27.113281 36.296875 25.277344C36.296875 23.445313 35.21875 22.308594 33.527344 22.308594 Z M 6.914063 22.464844L6.914063 28.097656L9.617188 28.097656C10.824219 28.097656 11.589844 27.460938 11.589844 26.472656C11.589844 25.753906 11.015625 25.179688 10.28125 25.140625L10.28125 25.066406C10.878906 24.984375 11.328125 24.472656 11.328125 23.867188C11.328125 22.992188 10.667969 22.464844 9.542969 22.464844 Z M 13.015625 22.464844L13.015625 26.152344C13.015625 27.417969 13.980469 28.25 15.445313 28.25C16.910156 28.25 17.871094 27.417969 17.871094 26.152344L17.871094 22.464844L16.4375 22.464844L16.4375 26C16.4375 26.65625 16.082031 27.046875 15.445313 27.046875C14.808594 27.046875 14.449219 26.65625 14.449219 26L14.449219 22.464844 Z M 19.296875 22.464844L19.296875 23.613281L20.921875 23.613281L20.921875 28.097656L22.347656 28.097656L22.347656 23.613281L23.980469 23.613281L23.980469 22.464844 Z M 25.089844 22.464844L25.089844 23.613281L26.714844 23.613281L26.714844 28.097656L28.144531 28.097656L28.144531 23.613281L29.773438 23.613281L29.773438 22.464844 Z M 37.761719 22.464844L37.761719 28.097656L39.121094 28.097656L39.121094 24.894531L39.195313 24.894531L41.550781 28.097656L42.6875 28.097656L42.6875 22.464844L41.328125 22.464844L41.328125 25.636719L41.253906 25.636719L38.90625 22.464844 Z M 8.347656 23.472656L9.160156 23.472656C9.648438 23.472656 9.933594 23.714844 9.933594 24.117188C9.933594 24.515625 9.628906 24.761719 9.105469 24.761719L8.347656 24.761719 Z M 33.523438 23.496094C34.3125 23.496094 34.839844 24.191406 34.839844 25.277344C34.839844 26.367188 34.316406 27.0625 33.523438 27.0625C32.722656 27.0625 32.203125 26.367188 32.203125 25.277344C32.203125 24.191406 32.730469 23.496094 33.523438 23.496094 Z M 8.347656 25.628906L9.203125 25.628906C9.800781 25.628906 10.132813 25.886719 10.132813 26.347656C10.132813 26.824219 9.808594 27.089844 9.214844 27.089844L8.347656 27.089844Z" />
</svg>