<?xml version="1.0" encoding="utf-8"?>
<svg xmlns="http://www.w3.org/2000/svg" viewBox="0 0 50 50" width="515" height="515">
  <path d="M37.21875 4.734375C36.984375 4.738281 36.75 4.757813 36.515625 4.78125C35.578125 4.890625 34.652344 5.179688 33.800781 5.605469C32.464844 6.273438 31.292969 7.296875 30.558594 8.582031C29.78125 8.210938 28.914063 8 28 8C24.699219 8 22 10.699219 22 14C22 14.398438 22.046875 14.785156 22.121094 15.160156C21.765625 15.058594 21.394531 15 21 15C18.59375 15 16.570313 16.726563 16.101563 19L13.796875 19C13.316406 16.742188 11.394531 15 9 15C6.25 15 4 17.25 4 20C4 22.40625 5.726563 24.429688 8 24.898438L8 44L44 44L44 19L39.898438 19C39.429688 16.726563 37.40625 15 35 15C34.605469 15 34.234375 15.058594 33.878906 15.160156C33.953125 14.785156 34 14.398438 34 14C34 12.332031 33.3125 10.820313 32.207031 9.734375C32.710938 8.78125 33.613281 7.9375 34.699219 7.394531C36 6.742188 37.5 6.554688 38.683594 6.949219C39.207031 7.125 39.773438 6.839844 39.949219 6.316406C40.125 5.792969 39.839844 5.226563 39.316406 5.050781C38.636719 4.824219 37.925781 4.726563 37.21875 4.734375 Z M 28 10C30.21875 10 32 11.78125 32 14C32 14.890625 31.636719 15.648438 31.140625 16.3125C31.035156 16.21875 30.921875 16.144531 30.8125 16.058594C30.78125 16.035156 30.746094 16.011719 30.71875 15.988281C30.535156 15.851563 30.34375 15.730469 30.144531 15.617188C30.015625 15.539063 29.882813 15.457031 29.746094 15.394531C29.722656 15.382813 29.703125 15.375 29.679688 15.363281C29.4375 15.257813 29.183594 15.171875 28.917969 15.109375C28.847656 15.09375 28.777344 15.082031 28.707031 15.066406C28.632813 15.054688 28.5625 15.039063 28.488281 15.03125C28.328125 15.011719 28.167969 15 28 15C27.832031 15 27.671875 15.011719 27.511719 15.03125C27.4375 15.039063 27.367188 15.054688 27.292969 15.066406C27.222656 15.082031 27.152344 15.09375 27.082031 15.109375C26.816406 15.171875 26.5625 15.257813 26.320313 15.363281C26.296875 15.375 26.277344 15.382813 26.253906 15.394531C26.117188 15.457031 25.984375 15.539063 25.855469 15.617188C25.65625 15.730469 25.464844 15.851563 25.28125 15.988281C25.253906 16.011719 25.21875 16.035156 25.1875 16.058594C25.078125 16.144531 24.964844 16.21875 24.859375 16.3125C24.363281 15.648438 24 14.890625 24 14C24 11.78125 25.78125 10 28 10 Z M 9 17C10.667969 17 12 18.332031 12 20L12 21L42 21L42 23L9 23C7.332031 23 6 21.667969 6 20C6 18.332031 7.332031 17 9 17 Z M 21 17C22.140625 17 23.109375 17.636719 23.621094 18.578125L23.851563 19L18.410156 19C18.847656 17.886719 19.722656 17 21 17 Z M 28 17C28.246094 17 28.480469 17.035156 28.707031 17.089844C28.722656 17.09375 28.738281 17.09375 28.753906 17.097656C28.96875 17.15625 29.171875 17.238281 29.363281 17.339844C29.386719 17.351563 29.414063 17.367188 29.4375 17.378906C29.628906 17.488281 29.8125 17.617188 29.976563 17.765625C29.980469 17.769531 29.988281 17.777344 29.992188 17.78125C30.164063 17.941406 30.320313 18.117188 30.453125 18.3125L30.460938 18.324219C30.515625 18.40625 30.574219 18.488281 30.621094 18.578125L30.851563 19L25.148438 19L25.378906 18.578125C25.425781 18.488281 25.484375 18.40625 25.539063 18.324219C25.542969 18.320313 25.542969 18.316406 25.546875 18.3125C25.679688 18.117188 25.835938 17.941406 26.007813 17.78125C26.011719 17.777344 26.019531 17.769531 26.023438 17.765625C26.1875 17.617188 26.371094 17.488281 26.5625 17.378906C26.585938 17.367188 26.613281 17.351563 26.636719 17.339844C26.828125 17.238281 27.03125 17.15625 27.246094 17.097656C27.261719 17.09375 27.277344 17.09375 27.292969 17.089844C27.519531 17.035156 27.753906 17 28 17 Z M 35 17C36.277344 17 37.152344 17.886719 37.589844 19L32.148438 19L32.378906 18.578125C32.890625 17.636719 33.859375 17 35 17 Z M 10 25L42 25L42 30L10 30 Z M 10 32L42 32L42 35L10 35 Z M 10 37L42 37L42 42L10 42Z" />
</svg>