<?xml version="1.0" encoding="utf-8"?>
<svg xmlns="http://www.w3.org/2000/svg" viewBox="0 0 50 50" width="515" height="515">
  <path d="M12 0C10.90625 0 10 0.90625 10 2L10 4L4 4C3.59375 4 3.148438 4.0625 2.722656 4.359375C2.296875 4.65625 2 5.246094 2 5.792969L2 46.042969C2 46.542969 2.171875 47.054688 2.53125 47.425781C2.886719 47.800781 3.410156 48 3.917969 48L46.082031 48C46.589844 48 47.113281 47.800781 47.46875 47.425781C47.828125 47.054688 48 46.542969 48 46.042969L48 5.792969C48 5.246094 47.703125 4.65625 47.277344 4.359375C46.851563 4.0625 46.40625 4 46 4L40 4L40 2C40 0.90625 39.09375 0 38 0L36 0C34.90625 0 34 0.90625 34 2L34 4L16 4L16 2C16 0.90625 15.09375 0 14 0 Z M 12 2L14 2L14 8L12 8 Z M 36 2L38 2L38 8L36 8 Z M 4 6L10 6L10 8C10 9.09375 10.90625 10 12 10L14 10C15.09375 10 16 9.09375 16 8L16 6L34 6L34 8C34 9.09375 34.90625 10 36 10L38 10C39.09375 10 40 9.09375 40 8L40 6L46 6L46 13L4 13 Z M 4 15L46 15L46 46L4 46 Z M 20.605469 23.425781L20.605469 25.261719L26.855469 25.261719C26.234375 25.992188 25.652344 26.777344 25.113281 27.621094C24.574219 28.460938 24.101563 29.335938 23.691406 30.25C23.285156 31.160156 22.953125 32.101563 22.695313 33.074219C22.4375 34.046875 22.273438 35.03125 22.203125 36.027344L24.359375 36.027344C24.4375 34.886719 24.597656 33.816406 24.839844 32.824219C25.078125 31.828125 25.390625 30.878906 25.777344 29.984375C26.160156 29.09375 26.613281 28.246094 27.128906 27.449219C27.644531 26.652344 28.21875 25.878906 28.847656 25.136719L28.847656 23.425781Z" />
</svg>