<?xml version="1.0" encoding="utf-8"?>
<svg xmlns="http://www.w3.org/2000/svg" viewBox="0 0 50 50" width="515" height="515">
  <path d="M22.4375 0.0625C22.191406 0.0703125 21.960938 0.0820313 21.71875 0.125C20.753906 0.300781 19.832031 0.761719 19.09375 1.5L17.6875 2.90625L18.40625 3.59375L30.78125 16L26.9375 19.84375L14.5 7.40625L13.8125 6.6875L12.40625 8.09375C11.007813 9.492188 10.515625 11.714844 11.40625 13.625L16.90625 25.625L16.96875 25.78125L17.6875 26.5L15.78125 28.40625C15.308594 28.878906 14.484375 29.15625 13.5 29.46875C12.515625 29.78125 11.394531 30.105469 10.5 31C9.605469 31.894531 9.273438 33.0625 9.09375 34C8.914063 34.9375 8.90625 35.6875 8.90625 35.6875L8.90625 36.125L9.1875 36.40625L9.84375 37.03125L0.28125 46.59375C-0.105469 46.992188 -0.101563 47.628906 0.296875 48.015625C0.695313 48.402344 1.332031 48.398438 1.71875 48L11.25 38.46875L11.40625 38.59375L12.09375 39.3125L12.8125 38.59375L28.59375 22.90625L29.3125 22.1875L28.59375 21.5L28.375 21.25L33.625 16L20.53125 2.90625C21.453125 2 22.652344 1.785156 23.78125 2.3125L35.65625 7.75L44 16.09375L38.6875 21.40625L39.40625 22.09375L43.6875 26.40625C42.730469 26.746094 41.636719 26.730469 40.90625 26L36.1875 21.28125L35.5 22L32.25 25.25L31.1875 24.1875L30.5 24.90625L14.6875 40.6875L14 41.40625L15.03125 42.4375L9.1875 48.28125C8.789063 48.667969 8.785156 49.304688 9.171875 49.703125C9.558594 50.101563 10.195313 50.105469 10.59375 49.71875L16.4375 43.875L17 44.40625L17.6875 45.125L30.90625 31.90625L36.1875 37.1875L36.875 36.53125C38.78125 34.753906 38.789063 31.699219 36.90625 29.90625L33.65625 26.65625L36.1875 24.125L39.5 27.40625C41.304688 29.210938 44.289063 29.210938 46.09375 27.40625L46.8125 26.6875L46.09375 26L41.5 21.40625L46.8125 16.09375L46.09375 15.40625L36.90625 6.1875L36.78125 6.0625L36.625 6L24.625 0.5C23.925781 0.175781 23.171875 0.0429688 22.4375 0.0625 Z M 13.8125 9.53125L26.46875 22.1875L12.09375 36.5L10.9375 35.34375C10.945313 35.140625 10.925781 34.921875 11.03125 34.375C11.175781 33.636719 11.5 32.8125 11.90625 32.40625C12.3125 32 13.132813 31.71875 14.125 31.40625C15.117188 31.09375 16.292969 30.738281 17.21875 29.8125L19.8125 27.21875L20.5 26.5L19.8125 25.78125L18.65625 24.65625L13.21875 12.78125C12.714844 11.699219 13.027344 10.335938 13.8125 9.53125 Z M 31.1875 27L35.53125 31.34375C36.34375 32.101563 36.34375 33.167969 35.9375 34.125L30.90625 29.09375L30.1875 29.78125L17.6875 42.28125L16.8125 41.40625Z" />
</svg>