<?xml version="1.0" encoding="utf-8"?>
<svg xmlns="http://www.w3.org/2000/svg" viewBox="0 0 50 50" width="515" height="515">
  <path d="M23.824219 4C22.421875 4 21.253906 4.980469 20.726563 6.339844L20.449219 7L18 7C18 6.449219 17.550781 6 17 6L14.109375 6C13.558594 6 13.113281 6.449219 13.109375 7L13.109375 7.414063C11.308594 8.136719 10 9.839844 10 11.890625L10 23.109375C10 25.796875 12.203125 28 14.890625 28L35.109375 28C37.796875 28 40 25.796875 40 23.109375L40 11.890625C40 9.203125 37.796875 7 35.109375 7L34.21875 7L33.9375 6.339844C33.410156 4.980469 32.242188 4 30.84375 4 Z M 23.824219 6L30.84375 6C31.101563 6 31.832031 6.4375 32.074219 7.0625C32.078125 7.074219 32.082031 7.082031 32.085938 7.09375L32.632813 8.390625C32.789063 8.757813 33.152344 9 33.554688 9L35.109375 9C36.703125 9 38 10.296875 38 11.890625L38 23.109375C38 24.703125 36.703125 26 35.109375 26L14.890625 26C13.296875 26 12 24.703125 12 23.109375L12 11.890625C12 10.496094 13.003906 9.328125 14.3125 9.058594C14.777344 8.964844 15.113281 8.554688 15.109375 8.078125L15.109375 8L16 8C16 8.550781 16.449219 9 17 9L21.109375 9C21.511719 9 21.875 8.757813 22.03125 8.390625L22.578125 7.09375C22.585938 7.082031 22.589844 7.074219 22.59375 7.0625C22.835938 6.4375 23.5625 6 23.824219 6 Z M 27 10C23.144531 10 20 13.144531 20 17C20 20.855469 23.144531 24 27 24C30.855469 24 34 20.855469 34 17C34 13.144531 30.855469 10 27 10 Z M 15 11C14.449219 11 14 11.449219 14 12C14 12.550781 14.449219 13 15 13C15.550781 13 16 12.550781 16 12C16 11.449219 15.550781 11 15 11 Z M 27 12C29.773438 12 32 14.226563 32 17C32 19.773438 29.773438 22 27 22C24.226563 22 22 19.773438 22 17C22 14.226563 24.226563 12 27 12 Z M 20 29L20 31L22.285156 31L13.8125 46L16.109375 46L24 32.035156L24 46L26 46L26 32.066406L33.714844 46L36 46L27.699219 31L30 31L30 29Z" />
</svg>