<?xml version="1.0" encoding="utf-8"?>
<svg xmlns="http://www.w3.org/2000/svg" viewBox="0 0 50 50" width="515" height="515">
  <path d="M30 9L30 11L7.125 11C5.332031 11 3.746094 12.203125 3.269531 13.9375C2.679688 16.074219 2 19.699219 2 25C2 30.300781 2.679688 33.925781 3.269531 36.0625C3.746094 37.796875 5.332031 39 7.125 39L30 39L30 41L32 41L32 39L41.152344 39C43.996094 39 46.449219 36.992188 47.03125 34.214844C47.523438 31.847656 48 28.628906 48 25C48 21.371094 47.523438 18.152344 47.03125 15.785156C46.449219 13.007813 43.996094 11 41.152344 11L32 11L32 9 Z M 7.125 13L11.652344 13L16.652344 17L25.351563 17L30.351563 13L41.152344 13C42.160156 13 43.082031 13.375 43.789063 14L43 14L43 20L45.691406 20C45.875 21.527344 46 23.210938 46 25C46 26.789063 45.875 28.472656 45.691406 30L43 30L43 36L43.785156 36C43.078125 36.625 42.160156 37 41.152344 37L30.351563 37L25.347656 33L16.648438 33L11.648438 37L7.125 37C6.21875 37 5.4375 36.410156 5.199219 35.535156L5.195313 35.53125C4.65625 33.570313 4 30.132813 4 25C4 19.867188 4.65625 16.429688 5.195313 14.46875L5.199219 14.464844C5.4375 13.589844 6.21875 13 7.125 13 Z M 14.851563 13L27.152344 13L24.652344 15L17.351563 15 Z M 8.554688 14.140625L8.046875 15.6875C8.003906 15.820313 7 18.972656 7 24.996094C7 31.019531 8.003906 34.179688 8.046875 34.3125L8.554688 35.859375L14 30.414063L14 19.585938 Z M 33.269531 14.316406L28 19.585938L28 30.414063L33.269531 35.683594L33.890625 34.453125C33.980469 34.28125 36 30.222656 36 25C36 19.777344 33.980469 15.71875 33.890625 15.546875 Z M 32.65625 17.761719C33.214844 19.269531 34 21.9375 34 25C34 28.0625 33.214844 30.730469 32.65625 32.238281L30 29.585938L30 20.414063 Z M 9.570313 17.984375L12 20.414063L12 29.585938L9.570313 32.015625C9.304688 30.574219 9 28.214844 9 24.996094C9 21.777344 9.304688 19.421875 9.570313 17.984375 Z M 17.351563 35L24.652344 35L27.152344 37L14.851563 37Z" />
</svg>