<?xml version="1.0" encoding="utf-8"?>
<svg xmlns="http://www.w3.org/2000/svg" viewBox="0 0 50 50" width="515" height="515">
  <path d="M7 9C4.25 9 2 11.25 2 14L2 36C2 38.75 4.25 41 7 41L43 41C45.75 41 48 38.75 48 36L48 14C48 11.25 45.75 9 43 9 Z M 7 11L43 11C44.667969 11 46 12.332031 46 14L46 36C46 37.667969 44.667969 39 43 39L7 39C5.332031 39 4 37.667969 4 36L4 14C4 12.332031 5.332031 11 7 11 Z M 14.875 17C14.765625 17.015625 14.660156 17.046875 14.5625 17.09375L8.5625 20.09375C8.0625 20.335938 7.851563 20.9375 8.09375 21.4375C8.335938 21.9375 8.9375 22.148438 9.4375 21.90625L15 19.125L20.5625 21.90625C21.0625 22.148438 21.664063 21.9375 21.90625 21.4375C22.148438 20.9375 21.9375 20.335938 21.4375 20.09375L15.4375 17.09375C15.261719 17.007813 15.066406 16.976563 14.875 17 Z M 26.71875 18C26.167969 18.078125 25.78125 18.589844 25.859375 19.140625C25.9375 19.691406 26.449219 20.078125 27 20L41 20C41.359375 20.003906 41.695313 19.816406 41.878906 19.503906C42.058594 19.191406 42.058594 18.808594 41.878906 18.496094C41.695313 18.183594 41.359375 17.996094 41 18L27 18C26.96875 18 26.9375 18 26.90625 18C26.875 18 26.84375 18 26.8125 18C26.78125 18 26.75 18 26.71875 18 Z M 26.71875 22C26.167969 22.078125 25.78125 22.589844 25.859375 23.140625C25.9375 23.691406 26.449219 24.078125 27 24L38 24C38.359375 24.003906 38.695313 23.816406 38.878906 23.503906C39.058594 23.191406 39.058594 22.808594 38.878906 22.496094C38.695313 22.183594 38.359375 21.996094 38 22L27 22C26.96875 22 26.9375 22 26.90625 22C26.875 22 26.84375 22 26.8125 22C26.78125 22 26.75 22 26.71875 22 Z M 11.71875 23C10.863281 23 10.082031 23.5625 9.8125 24.375L9.0625 26.6875L9 26.84375L9 32.5C9 32.777344 9.222656 33 9.5 33L11.5 33C11.777344 33 12 32.777344 12 32.5L12 32L18 32L18 32.5C18 32.777344 18.222656 33 18.5 33L20.5 33C20.777344 33 21 32.777344 21 32.5L21 26.84375L20.9375 26.6875L20.1875 24.375C19.917969 23.558594 19.136719 23 18.28125 23 Z M 11.71875 25L18.28125 25L18.96875 27L11.03125 27 Z M 26.71875 26C26.167969 26.078125 25.78125 26.589844 25.859375 27.140625C25.9375 27.691406 26.449219 28.078125 27 28L41 28C41.359375 28.003906 41.695313 27.816406 41.878906 27.503906C42.058594 27.191406 42.058594 26.808594 41.878906 26.496094C41.695313 26.183594 41.359375 25.996094 41 26L27 26C26.96875 26 26.9375 26 26.90625 26C26.875 26 26.84375 26 26.8125 26C26.78125 26 26.75 26 26.71875 26 Z M 11 29C11.550781 29 12 29.449219 12 30C12 30.550781 11.550781 31 11 31C10.449219 31 10 30.550781 10 30C10 29.449219 10.449219 29 11 29 Z M 19 29C19.550781 29 20 29.449219 20 30C20 30.550781 19.550781 31 19 31C18.449219 31 18 30.550781 18 30C18 29.449219 18.449219 29 19 29 Z M 26.71875 30C26.167969 30.078125 25.78125 30.589844 25.859375 31.140625C25.9375 31.691406 26.449219 32.078125 27 32L38 32C38.359375 32.003906 38.695313 31.816406 38.878906 31.503906C39.058594 31.191406 39.058594 30.808594 38.878906 30.496094C38.695313 30.183594 38.359375 29.996094 38 30L27 30C26.96875 30 26.9375 30 26.90625 30C26.875 30 26.84375 30 26.8125 30C26.78125 30 26.75 30 26.71875 30Z" />
</svg>