<?xml version="1.0" encoding="utf-8"?>
<svg xmlns="http://www.w3.org/2000/svg" viewBox="0 0 50 50" width="515" height="515">
  <path d="M16.28125 6C16.121094 6.035156 15.96875 6.109375 15.84375 6.21875L5.625 14.0625C5.242188 14.214844 4.996094 14.589844 5 15L5 43C5 43.550781 5.449219 44 6 44L36 44C36.011719 44 36.019531 44 36.03125 44C36.09375 43.996094 36.15625 43.984375 36.21875 43.96875C36.25 43.960938 36.28125 43.949219 36.3125 43.9375C36.5625 43.863281 36.777344 43.695313 36.90625 43.46875L44.78125 33.625C44.921875 33.449219 45 33.226563 45 33L45 7.1875C45.058594 6.851563 44.9375 6.511719 44.6875 6.28125C44.679688 6.261719 44.667969 6.238281 44.65625 6.21875C44.644531 6.21875 44.636719 6.21875 44.625 6.21875C44.605469 6.195313 44.585938 6.175781 44.5625 6.15625C44.550781 6.15625 44.542969 6.15625 44.53125 6.15625C44.480469 6.121094 44.429688 6.089844 44.375 6.0625C44.285156 6.027344 44.191406 6.007813 44.09375 6C44.0625 6 44.03125 6 44 6L16.46875 6C16.4375 6 16.40625 6 16.375 6C16.34375 6 16.3125 6 16.28125 6 Z M 16.78125 8L27.375 8L20.625 14L8.9375 14 Z M 30.375 8L41.5625 8L35.5625 14L23.625 14 Z M 43 9.4375L43 32.65625L37 40.15625L37 15.4375 Z M 7 16L20.625 16C20.816406 16.058594 21.027344 16.058594 21.21875 16L35 16L35 42L7 42 Z M 15.8125 20C15.261719 20.050781 14.855469 20.542969 14.90625 21.09375C14.957031 21.644531 15.449219 22.050781 16 22L26 22C26.359375 22.003906 26.695313 21.816406 26.878906 21.503906C27.058594 21.191406 27.058594 20.808594 26.878906 20.496094C26.695313 20.183594 26.359375 19.996094 26 20L16 20C15.96875 20 15.9375 20 15.90625 20C15.875 20 15.84375 20 15.8125 20Z" />
</svg>