<?xml version="1.0" encoding="utf-8"?>
<svg xmlns="http://www.w3.org/2000/svg" viewBox="0 0 50 50" width="515" height="515">
  <path d="M4 0C1.804688 0 0 1.800781 0 4L0 38C0 40.195313 1.804688 42 4 42L9.125 42L34.6875 50C36.785156 50.652344 39.035156 49.472656 39.6875 47.375L49.8125 14.90625C50.46875 12.808594 49.285156 10.558594 47.1875 9.90625L34 5.8125L34 4C34 1.800781 32.195313 0 30 0 Z M 4 2L30 2C31.117188 2 32 2.882813 32 4L32 6.28125C31.957031 6.445313 31.957031 6.617188 32 6.78125L32 38C32 39.113281 31.113281 40 30 40L4 40C2.886719 40 2 39.113281 2 38L2 4C2 2.882813 2.882813 2 4 2 Z M 26.125 4C26.042969 4 26.023438 4.054688 26 4.125L23.21875 11.875C23.195313 11.945313 23.210938 12 23.28125 12L24.125 12C24.195313 12 24.246094 11.957031 24.28125 11.875L24.875 10.15625L28.125 10.15625L28.71875 11.875C28.742188 11.957031 28.792969 12 28.875 12L29.71875 12C29.789063 12 29.804688 11.945313 29.78125 11.875L27.0625 4.125C27.039063 4.054688 26.988281 4 26.90625 4 Z M 26.5 5.53125L26.53125 5.53125L27.78125 9.1875L25.21875 9.1875 Z M 34 7.875L46.59375 11.8125C47.660156 12.144531 48.238281 13.246094 47.90625 14.3125L37.78125 46.78125C37.449219 47.84375 36.347656 48.425781 35.28125 48.09375L15.8125 42L30 42C32.195313 42 34 40.195313 34 38 Z M 42.1875 12.5625C42.160156 12.574219 42.144531 12.59375 42.125 12.625L37.15625 19.21875C37.113281 19.28125 37.121094 19.324219 37.1875 19.34375L38 19.59375C38.070313 19.613281 38.097656 19.597656 38.15625 19.53125L39.28125 18.0625L42.375 19L42.4375 20.84375C42.433594 20.929688 42.453125 21.007813 42.53125 21.03125L43.3125 21.25C43.378906 21.269531 43.441406 21.261719 43.4375 21.1875L43.125 12.9375C43.121094 12.863281 43.109375 12.804688 43.03125 12.78125L42.28125 12.5625C42.242188 12.550781 42.214844 12.550781 42.1875 12.5625 Z M 17 14C17 14 12.027344 17.769531 12.03125 20.40625C12.03125 21.980469 13.101563 22.96875 14.59375 22.96875C15.308594 22.964844 16.054688 22.886719 16.5 22.46875C16.5 22.46875 15.550781 24.890625 15 26C14.90625 26.1875 19.09375 26.191406 19 26C18.449219 24.886719 17.5 22.46875 17.5 22.46875C17.945313 22.90625 18.632813 22.96875 19.40625 22.96875C20.902344 22.964844 21.96875 21.949219 21.96875 20.375C21.964844 17.738281 17 14 17 14 Z M 42.1875 14.15625L42.3125 18L39.875 17.21875 Z M 4.28125 30C4.210938 30 4.195313 30.054688 4.21875 30.125L6.9375 37.875C6.960938 37.945313 7.011719 38 7.09375 38L7.875 38C7.957031 38 7.976563 37.945313 8 37.875L10.78125 30.125C10.804688 30.054688 10.789063 30 10.71875 30L9.875 30C9.804688 30 9.753906 30.042969 9.71875 30.125L9.125 31.84375L5.875 31.84375L5.28125 30.125C5.257813 30.042969 5.207031 30 5.125 30 Z M 6.21875 32.8125L8.78125 32.8125L7.5 36.46875L7.46875 36.46875Z" />
</svg>