<?xml version="1.0" encoding="utf-8"?>
<svg xmlns="http://www.w3.org/2000/svg" viewBox="0 0 50 50" width="515" height="515">
  <path d="M25 2C21.699219 2 19 4.699219 19 8C19 11.300781 21.699219 14 25 14C28.300781 14 31 11.300781 31 8C31 4.699219 28.300781 2 25 2 Z M 25 4C27.222656 4 29 5.777344 29 8C29 10.222656 27.222656 12 25 12C22.777344 12 21 10.222656 21 8C21 5.777344 22.777344 4 25 4 Z M 20.5 15C17.476563 15 15 17.476563 15 20.5L15 21L17 21L17 20.5C17 18.5625 18.558594 17 20.5 17L29.5 17C31.441406 17 33 18.5625 33 20.5L33 32C33 32.566406 32.566406 33 32 33C31.433594 33 31 32.566406 31 32L31 23L29 23L29 44.5C29 45.339844 28.339844 46 27.5 46C26.660156 46 26 45.339844 26 44.5L26 33L24 33L24 44.5C24 45.339844 23.339844 46 22.5 46C21.660156 46 21 45.339844 21 44.5L21 31L19 31L19 44.5C19 46.421875 20.578125 48 22.5 48C23.480469 48 24.363281 47.585938 25 46.925781C25.636719 47.585938 26.519531 48 27.5 48C29.421875 48 31 46.421875 31 44.5L31 34.8125C31.316406 34.925781 31.648438 35 32 35C33.644531 35 35 33.644531 35 32L35 20.5C35 17.476563 32.523438 15 29.5 15 Z M 16 23C14.355469 23 13 24.355469 13 26C13 27.644531 14.355469 29 16 29L24 29C25.644531 29 27 27.644531 27 26C27 24.355469 25.644531 23 24 23 Z M 16 25L24 25C24.566406 25 25 25.433594 25 26C25 26.566406 24.566406 27 24 27L16 27C15.433594 27 15 26.566406 15 26C15 25.433594 15.433594 25 16 25Z" />
</svg>