<?xml version="1.0" encoding="utf-8"?>
<svg xmlns="http://www.w3.org/2000/svg" viewBox="0 0 50 50" width="515" height="515">
  <path d="M17.599609 0.22265625C17.158579 0.19402326 16.711161 0.26747577 16.289062 0.4609375C15.726265 0.71888647 15.205386 1.2526729 15.029297 1.9570312C14.862586 2.6238745 14.582156 3.3326596 13.646484 3.9765625C12.710813 4.6204654 11.023016 5.1992188 8 5.1992188C5.0606918 5.1992188 2.9570803 6.5402991 1.7128906 8.1992188C0.468701 9.8581382 0 11.763108 0 13.199219 A 1.0001 1.0001 0 0 0 0 13.212891C0.05400127 17.154983 1.9543367 19.45282 4.0136719 20.525391C5.5611922 21.331391 6.9717123 21.482571 8 21.533203L8 26.800781L8 47.099609C8 48.316276 8.7993589 49.190608 9.5351562 49.648438C10.270954 50.106269 10.85 50.300781 11.5 50.300781C12.133333 50.300781 12.777083 50.090309 13.480469 49.587891C14.183855 49.085472 14.861146 48.206719 14.994141 47.009766 A 1.0001 1.0001 0 0 0 14.998047 46.953125C15.054197 45.886344 15.049619 42.773133 15.037109 39.470703C15.024608 36.168273 15 32.739287 15 31.300781C15 31.124392 15.131853 30.832161 15.619141 30.447266C16.106428 30.06237 16.879252 29.664439 17.759766 29.337891C19.520792 28.684795 21.733908 28.300781 23 28.300781C24.488384 28.300781 26.676428 28.687073 28.375 29.345703C29.224286 29.675018 29.953859 30.075925 30.408203 30.464844C30.862547 30.853762 31 31.155391 31 31.400391L31 46.800781 A 1.0001 1.0001 0 0 0 31 46.841797C31.06037 48.29057 31.750086 49.328176 32.566406 49.810547C33.382727 50.292918 34.20199 50.300781 34.599609 50.300781C35.166276 50.300781 35.9168 50.179896 36.630859 49.685547C37.344919 49.191198 37.934447 48.261124 37.998047 47.052734 A 1.0001 1.0001 0 0 0 38 46.992188C37.94985 39.921315 37.706653 35.746219 37.847656 33.513672C37.918156 32.397398 38.116699 31.828034 38.246094 31.658203C38.375489 31.488372 38.488202 31.421185 39.132812 31.400391 A 1.0001 1.0001 0 0 0 39.134766 31.398438C39.682209 31.378888 39.65801 31.393138 39.757812 31.537109C39.857613 31.681045 40.048044 32.28716 40.113281 33.419922C40.243756 35.685445 40.049449 39.884381 40.099609 46.90625 A 1.0001 1.0001 0 0 0 40.113281 47.058594C40.356414 48.578176 41.213107 49.526041 41.996094 49.953125C42.387587 50.166667 42.74527 50.266623 43.039062 50.308594C43.105263 50.318094 43.181865 50.310353 43.244141 50.314453C43.265721 50.318853 43.302016 50.338177 43.322266 50.341797C43.525007 50.378087 43.683459 50.371306 43.861328 50.353516C44.217066 50.317946 44.623707 50.209848 45.050781 49.978516C45.90493 49.515852 46.774077 48.468249 46.896484 46.876953 A 1.0001 1.0001 0 0 0 46.900391 46.820312C46.998821 41.800238 46.998017 22.412558 46.998047 21.376953C47.419345 21.149274 47.911412 20.771905 48.367188 20.125C49.314754 18.780066 50.099609 16.422625 50.099609 12.099609C50.099609 7.9670894 49.898436 4.2460937 49.898438 4.2460938 A 1.0001 1.0001 0 0 0 48.203125 3.5839844L44.820312 6.875C44.536783 6.7857811 44.381232 6.7298779 43.830078 6.5839844C42.947255 6.350296 41.914286 6.0996094 41 6.0996094C40.038095 6.0996094 39.041616 6.415504 38.199219 6.7050781C37.721748 6.8692086 37.621038 6.921461 37.347656 7.0332031L33.806641 3.4921875 A 1.0001 1.0001 0 0 0 32.099609 4.1992188L32.099609 13.199219C32.099609 13.398614 32.174101 13.513871 32.181641 13.705078C31.799567 13.525114 31.433375 13.340978 30.794922 13.144531C29.054197 12.608923 26.279365 12.099609 22 12.099609C19.387589 12.099609 16.274387 13.06983 13.539062 14.044922C12.171401 14.532468 10.906345 15.027781 9.8886719 15.414062C8.9212065 15.781287 8.1804642 16.023318 7.9277344 16.080078C7.7593091 16.076529 7.062191 16.048762 6.4101562 15.6875C5.7325405 15.312064 5.0993035 14.708531 5.0058594 13.078125C5.0063102 13.056698 5.0195748 12.329017 5.390625 11.605469C5.7671036 10.871336 6.325 10.199219 8 10.199219C9.9400901 10.199219 12.42652 9.9503199 14.703125 8.9824219C16.976905 8.0157251 19.070169 6.2425683 19.861328 3.375C20.076121 2.6232255 19.96577 1.8399354 19.580078 1.28125C19.194387 0.72256458 18.615232 0.41041619 18.037109 0.28515625C17.892579 0.25384126 17.74662 0.23220058 17.599609 0.22265625 z M 17.345703 2.2265625C17.432752 2.2185701 17.527343 2.2216141 17.613281 2.2402344C17.785158 2.2774744 17.894285 2.359076 17.933594 2.4160156C17.972904 2.4729556 18.02271 2.5279464 17.9375 2.8261719 A 1.0001 1.0001 0 0 0 17.935547 2.8359375C17.324501 5.0620776 15.82027 6.3354762 13.921875 7.1425781C12.02348 7.9496801 9.7599099 8.1992186 8 8.1992188C5.675 8.1992188 4.2328964 9.477493 3.609375 10.693359C2.9858536 11.909226 3 13.099609 3 13.099609 A 1.0001 1.0001 0 0 0 3.0019531 13.150391C3.1167746 15.38941 4.2726244 16.791014 5.4394531 17.4375C6.6062849 18.083988 7.7166667 18.099609 8 18.099609 A 1.0001 1.0001 0 0 0 8.1738281 18.083984C8.8196884 17.970009 9.5653291 17.675047 10.597656 17.283203C11.629984 16.891359 12.878599 16.40464 14.210938 15.929688C16.875614 14.979785 19.912411 14.099609 22 14.099609C26.120635 14.099609 28.695805 14.592249 30.205078 15.056641C30.959715 15.288837 31.449385 15.51392 31.734375 15.667969C32.019365 15.822017 32.042969 15.855469 32.042969 15.855469 A 1.0001 1.0001 0 0 0 32.566406 16.099609C32.953682 17.603333 33.521314 18.879716 34.375 19.714844C35.729962 21.04035 37.411526 21.560262 38.775391 21.875 A 1.0001564 1.0001564 0 1 0 39.224609 19.925781C37.988474 19.640519 36.718476 19.20965 35.773438 18.285156C34.828398 17.360662 34.099609 15.909564 34.099609 13.199219L34.099609 6.6132812L36.392578 8.90625 A 1.0001 1.0001 0 0 0 37.501953 9.1152344C37.501953 9.1152344 38.092007 8.856129 38.849609 8.5957031C39.607212 8.3352773 40.561905 8.0996094 41 8.0996094C41.485714 8.0996094 42.501182 8.3012665 43.318359 8.5175781C44.135537 8.7338898 44.783203 8.9492186 44.783203 8.9492188 A 1.0001 1.0001 0 0 0 45.796875 8.7167969L47.958984 6.6113281C48.017084 7.9326773 48.099609 9.2176977 48.099609 12.099609C48.099609 16.176594 47.334855 18.119544 46.732422 18.974609C46.431206 19.402142 46.175173 19.571129 46.025391 19.648438C45.875608 19.725748 45.935547 19.701172 45.935547 19.701172 A 1.0001 1.0001 0 0 0 45 20.699219C45 20.699219 44.998701 41.628144 44.900391 46.728516C44.821321 47.73043 44.444489 48.033893 44.099609 48.220703C43.945228 48.304323 43.799884 48.335687 43.708984 48.349609 A 1.0001 1.0001 0 0 0 43.265625 48.308594C43.265625 48.308594 43.263672 48.308594 43.263672 48.308594C43.192282 48.293654 43.086639 48.270094 42.953125 48.197266C42.64121 48.02713 42.261332 47.718709 42.099609 46.775391C42.054509 39.906559 42.254606 35.792522 42.111328 33.304688C42.039068 32.049948 41.924416 31.149423 41.402344 30.396484C40.88104 29.644655 39.919982 29.370884 39.068359 29.400391L39.064453 29.400391C38.160255 29.430231 37.224095 29.699406 36.654297 30.447266C36.083692 31.196185 35.931061 32.127993 35.851562 33.386719C35.693205 35.894065 35.948702 39.975828 36 46.953125C35.96202 47.636457 35.753753 47.861284 35.494141 48.041016C35.2332 48.221667 34.832943 48.300781 34.599609 48.300781C34.297228 48.300781 33.867664 48.257471 33.583984 48.089844C33.300346 47.92222 33.039634 47.709039 33 46.757812L33 31.400391C33 30.395391 32.426515 29.55952 31.708984 28.945312C30.991454 28.331107 30.087823 27.863654 29.099609 27.480469C27.123182 26.714099 24.811616 26.300781 23 26.300781C21.366092 26.300781 19.078427 26.715987 17.064453 27.462891C16.057466 27.836343 15.125994 28.286849 14.378906 28.876953C13.631819 29.467058 13 30.27717 13 31.300781C13 32.762276 13.024619 36.180945 13.037109 39.478516C13.049509 42.752489 13.044913 45.933616 13.001953 46.794922C12.933173 47.391951 12.66318 47.714637 12.318359 47.960938C11.971745 48.208518 11.466667 48.300781 11.5 48.300781C11.65 48.300781 10.979046 48.193342 10.589844 47.951172C10.200644 47.709001 10 47.482943 10 47.099609L10 26.800781L10 20.599609 A 1.0001 1.0001 0 0 0 9 19.599609C8.2722222 19.599609 6.4781649 19.55243 4.9375 18.75C3.3981996 17.948281 2.0482655 16.544836 2 13.193359C2.0012092 12.229003 2.3831658 10.639503 3.3125 9.4003906C4.2433103 8.1593102 5.6393082 7.1992187 8 7.1992188C11.276984 7.1992188 13.389968 6.579144 14.779297 5.6230469C16.168625 4.6669498 16.737414 3.3765162 16.970703 2.4433594C16.994613 2.3477174 17.010843 2.3307229 17.123047 2.2792969C17.179148 2.2535839 17.258654 2.2345549 17.345703 2.2265625 z M 37.5 11C36.7 11 36 11.7 36 12.5C36 13.2 36.6 14 37.5 14C38.5 14 39 13.1 39 12.5C39 11.6 38.3 11 37.5 11 z M 44.5 11C43.6 11 43.207031 11.731641 43.066406 12.181641C43.019531 12.331641 43 12.45 43 12.5C43 12.675 43.15332 13.691797 44.0625 13.943359C44.192383 13.979297 44.3375 14 44.5 14C45.6 14 46 13.1 46 12.5C46 12.2 45.8 11 44.5 11 z M 43.910156 48.460938C43.915656 48.464038 43.914122 48.461544 43.919922 48.464844C43.921622 48.465812 43.923981 48.473509 43.925781 48.474609C43.921781 48.472709 43.914046 48.462727 43.910156 48.460938 z M 42.427734 49.347656C42.458904 49.766239 42.723365 50.03381 42.898438 50.146484C42.823568 50.112984 42.728508 50.090844 42.576172 49.859375C42.531622 49.791675 42.454872 49.596965 42.455078 49.597656C42.455219 49.59813 42.439114 49.455331 42.427734 49.347656 z" />
</svg>