<?xml version="1.0" encoding="utf-8"?>
<svg xmlns="http://www.w3.org/2000/svg" viewBox="0 0 50 50" width="515" height="515">
  <path d="M29.597656 4C18.261719 4 9.101563 13.164063 9.101563 24.5C9.101563 25.820313 9.238281 27.101563 9.476563 28.34375C7.617188 29.792969 5.367188 31 3 31L2 31L2.003906 32.09375C2.019531 32.253906 2.417969 36.097656 6.703125 39.84375C7.273438 40.300781 7.488281 40.445313 8.023438 40.816406C8.898438 41.429688 10.09375 42.222656 11.578125 42.90625L11.6875 42.957031L11.675781 43L21 43L21 43.136719L21.609375 43.394531C24.066406 44.429688 26.769531 45 29.601563 45C36.847656 45 43.273438 41.214844 46.851563 35.425781L47.265625 34.75L38.824219 26.3125L38.15625 27.363281C36.492188 29.992188 32.589844 32 29.601563 32L29.5 32C29.164063 32 28.828125 31.976563 28.5 31.929688C28.578125 31.683594 28.644531 31.417969 28.714844 31.164063L28.792969 31.179688L28.980469 30.191406L29.21875 29.222656L29.171875 29.214844L29.980469 25C30.078125 24.507813 29.96875 23.976563 29.707031 23.582031C29.445313 23.191406 29.070313 22.933594 28.671875 22.773438L28.652344 22.765625L28.628906 22.753906C28.628906 22.753906 27.769531 22.457031 26.957031 22.175781C27.667969 20.308594 28.316406 18.59375 28.90625 17.039063C29.109375 17.015625 29.308594 17 29.5 17L29.597656 17C32.609375 17 36.402344 18.910156 38.0625 21.449219L38.765625 22.523438L46.984375 13.582031L46.515625 12.921875C42.742188 7.574219 36.542969 4 29.597656 4 Z M 29.597656 6C35.578125 6 40.902344 8.996094 44.355469 13.484375L38.90625 19.414063C36.644531 16.75 33.042969 15.035156 29.671875 15.011719C29.710938 14.910156 29.746094 14.816406 29.785156 14.707031C29.957031 14.25 30.140625 13.761719 30.269531 13.414063C30.3125 13.308594 30.332031 13.253906 30.367188 13.15625C30.480469 12.847656 30.574219 12.597656 30.640625 12.410156C30.707031 12.234375 30.726563 12.222656 30.78125 12.007813C30.789063 11.980469 30.828125 11.847656 30.875 11.652344C30.929688 11.4375 31 11.234375 31 10.867188C31 9.300781 29.699219 8 28.132813 8C27.4375 8 26.851563 8.320313 26.4375 8.683594C26.023438 9.046875 25.738281 9.46875 25.527344 9.84375L25.511719 9.875L20.75 19.886719L19.164063 19.269531L19.25 19.308594C18.78125 19.074219 18.324219 19.0625 17.921875 19.171875C17.71875 19.230469 17.527344 19.320313 17.355469 19.425781C17.183594 19.53125 17.027344 19.660156 16.890625 19.792969L16.84375 19.84375L14.75 22.664063L14.71875 22.644531L14.175781 23.433594C14.175781 23.433594 14.152344 23.464844 14.152344 23.464844C14.113281 23.511719 12.945313 24.980469 11.332031 26.59375C11.25 25.894531 11.097656 25.21875 11.097656 24.5C11.097656 14.238281 19.335938 6 29.597656 6 Z M 28.132813 10C28.417969 10 28.632813 10.078125 28.78125 10.222656C28.925781 10.367188 29 10.582031 29 10.867188C29 10.765625 28.976563 11.003906 28.9375 11.167969C28.894531 11.328125 28.855469 11.457031 28.855469 11.457031L28.847656 11.484375L28.84375 11.507813C28.882813 11.347656 28.824219 11.558594 28.761719 11.734375C28.746094 11.785156 28.753906 11.75 28.734375 11.804688C28.65625 12.023438 28.539063 12.332031 28.398438 12.714844C28.113281 13.480469 27.714844 14.539063 27.246094 15.777344C26.605469 17.46875 25.859375 19.433594 25.0625 21.527344C24.992188 21.503906 24.960938 21.496094 24.902344 21.480469C24.847656 21.460938 24.773438 21.433594 24.726563 21.421875C24.664063 21.398438 24.613281 21.386719 24.5625 21.371094C24.558594 21.371094 24.554688 21.367188 24.546875 21.367188L22.621094 20.613281L27.273438 10.824219L27.277344 10.816406C27.414063 10.570313 27.597656 10.328125 27.761719 10.183594C27.925781 10.039063 28.027344 10 28.132813 10 Z M 18.355469 21.09375L18.390625 21.113281L18.378906 21.125C18.371094 21.113281 18.386719 21.113281 18.355469 21.09375 Z M 18.390625 21.113281L18.394531 21.113281L19.890625 21.699219L21.757813 22.425781L21.929688 22.496094L23.90625 23.265625L24.316406 23.425781C24.296875 23.417969 24.300781 23.421875 24.3125 23.4375L24.308594 23.441406L22.542969 27.535156L16.453125 23.730469L18.328125 21.199219C18.359375 21.179688 18.390625 21.164063 18.40625 21.15625C18.414063 21.148438 18.386719 21.132813 18.382813 21.125 Z M 26.21875 24.039063C27.066406 24.332031 27.898438 24.621094 27.933594 24.628906C27.996094 24.65625 28 24.664063 28.007813 24.671875L27.207031 28.824219L24.40625 28.261719L26.121094 24.296875L26.058594 24.417969C26.128906 24.292969 26.179688 24.167969 26.21875 24.039063 Z M 15.253906 25.339844L21.734375 29.390625C21.714844 29.429688 21.695313 29.472656 21.675781 29.511719C21.578125 29.722656 21.472656 29.929688 21.367188 30.140625C21.277344 30.3125 21.195313 30.488281 21.101563 30.65625C21.007813 30.835938 20.90625 31.007813 20.808594 31.179688C20.714844 31.335938 20.625 31.496094 20.53125 31.652344C20.40625 31.863281 20.273438 32.066406 20.140625 32.269531C20.054688 32.40625 19.972656 32.542969 19.882813 32.671875C19.878906 32.683594 19.871094 32.691406 19.867188 32.699219C19.859375 32.714844 19.84375 32.726563 19.835938 32.738281C19.527344 33.199219 19.203125 33.625 18.878906 34.050781C18.636719 34.371094 18.390625 34.683594 18.140625 34.984375C17.9375 35.230469 17.730469 35.472656 17.527344 35.707031C17.238281 36.035156 16.949219 36.351563 16.660156 36.65625C16.5 36.828125 16.335938 37 16.171875 37.164063C15.847656 37.492188 15.53125 37.800781 15.21875 38.09375C15.101563 38.203125 14.980469 38.320313 14.867188 38.425781C14.464844 38.792969 14.078125 39.132813 13.722656 39.425781C12.949219 40.078125 12.308594 40.558594 11.90625 40.84375C10.796875 40.285156 9.875 39.671875 9.167969 39.175781C8.671875 38.835938 8.476563 38.699219 7.984375 38.3125C5.601563 36.226563 4.628906 34.117188 4.242188 32.914063C6.332031 32.632813 8.257813 31.660156 9.933594 30.484375L9.953125 30.5625L11.035156 29.667969C11.289063 29.460938 11.519531 29.253906 11.757813 29.042969C11.925781 28.894531 12.101563 28.746094 12.261719 28.597656C12.488281 28.386719 12.695313 28.183594 12.902344 27.976563C13.015625 27.863281 13.121094 27.757813 13.230469 27.644531C14.105469 26.746094 14.8125 25.910156 15.253906 25.339844 Z M 39.050781 29.363281L44.660156 34.976563C41.371094 39.816406 35.875 43 29.601563 43C27.261719 43 25.054688 42.523438 23 41.738281L23 41.003906C24.523438 39.589844 26.421875 37.285156 27.839844 33.769531C28.382813 33.875 28.921875 34 29.5 34L29.601563 34C33.027344 34 36.761719 32.171875 39.050781 29.363281 Z M 23.597656 30.140625L26.761719 30.773438C26.652344 31.152344 26.535156 31.519531 26.410156 31.875L26.246094 32.328125C26.058594 32.839844 25.859375 33.320313 25.65625 33.78125C25.636719 33.824219 25.613281 33.867188 25.59375 33.910156C25.386719 34.371094 25.167969 34.804688 24.945313 35.214844C24.746094 35.578125 24.542969 35.910156 24.335938 36.234375C24.238281 36.390625 24.140625 36.539063 24.042969 36.683594C23.972656 36.785156 23.90625 36.878906 23.839844 36.976563C22.089844 39.449219 20.304688 40.660156 19.738281 41L14.972656 41C15.015625 40.964844 15.0625 40.921875 15.105469 40.886719C15.289063 40.730469 15.472656 40.570313 15.671875 40.398438C16.042969 40.074219 16.425781 39.722656 16.824219 39.34375C17.269531 38.921875 17.71875 38.480469 18.1875 37.984375C18.265625 37.898438 18.347656 37.808594 18.425781 37.722656C18.6875 37.441406 18.949219 37.148438 19.207031 36.847656C19.335938 36.699219 19.464844 36.550781 19.59375 36.394531C19.832031 36.109375 20.066406 35.8125 20.300781 35.511719C20.421875 35.351563 20.546875 35.199219 20.667969 35.039063C21 34.589844 21.328125 34.132813 21.644531 33.652344C21.644531 33.652344 21.644531 33.648438 21.644531 33.648438C21.703125 33.5625 21.753906 33.46875 21.8125 33.382813C22.078125 32.96875 22.335938 32.542969 22.585938 32.105469C22.679688 31.9375 22.769531 31.765625 22.859375 31.59375C23.058594 31.222656 23.253906 30.84375 23.4375 30.453125L23.457031 30.46875Z" />
</svg>