<?xml version="1.0" encoding="utf-8"?>
<svg xmlns="http://www.w3.org/2000/svg" viewBox="0 0 50 50" width="515" height="515">
  <path d="M36 0.585938L23.585938 13L31 13L31 16L16 16C12.144531 16 9 19.144531 9 23L9 37L1.585938 37L14 49.414063L26.414063 37L19 37L19 34L34 34C37.855469 34 41 30.855469 41 27L41 13L48.414063 13 Z M 36 3.414063L43.585938 11L39 11L39 27C39 29.773438 36.773438 32 34 32L19 32L19 26L33 26L33 11L28.414063 11 Z M 16 18L31 18L31 24L17 24L17 39L21.585938 39L14 46.585938L6.414063 39L11 39L11 23C11 20.226563 13.226563 18 16 18Z" />
</svg>