<?xml version="1.0" encoding="utf-8"?>
<svg xmlns="http://www.w3.org/2000/svg" viewBox="0 0 50 50" width="515" height="515">
  <path d="M8 12C5.2545455 12 3 14.254545 3 17L3 33C3 35.745455 5.2545455 38 8 38L40 38C42.745455 38 45 35.745455 45 33L45 30L47 30 A 1.0001 1.0001 0 0 0 48 29L48 21 A 1.0001 1.0001 0 0 0 47 20L45 20L45 17C45 14.254545 42.745455 12 40 12L8 12 z M 8 14L40 14C41.654545 14 43 15.345455 43 17L43 21 A 1.0001 1.0001 0 0 0 44 22L46 22L46 28L44 28 A 1.0001 1.0001 0 0 0 43 29L43 33C43 34.654545 41.654545 36 40 36L8 36C6.3454545 36 5 34.654545 5 33L5 17C5 15.345455 6.3454545 14 8 14 z M 7.984375 15.986328 A 1.0001 1.0001 0 0 0 7 17L7 33 A 1.0001 1.0001 0 1 0 9 33L9 17 A 1.0001 1.0001 0 0 0 7.984375 15.986328 z M 11.984375 15.986328 A 1.0001 1.0001 0 0 0 11 17L11 33 A 1.0001 1.0001 0 1 0 13 33L13 17 A 1.0001 1.0001 0 0 0 11.984375 15.986328 z M 15.984375 15.986328 A 1.0001 1.0001 0 0 0 15 17L15 33 A 1.0001 1.0001 0 1 0 17 33L17 17 A 1.0001 1.0001 0 0 0 15.984375 15.986328 z M 19.984375 15.986328 A 1.0001 1.0001 0 0 0 19 17L19 33 A 1.0001 1.0001 0 1 0 21 33L21 17 A 1.0001 1.0001 0 0 0 19.984375 15.986328 z M 23.984375 15.986328 A 1.0001 1.0001 0 0 0 23 17L23 33 A 1.0001 1.0001 0 1 0 25 33L25 17 A 1.0001 1.0001 0 0 0 23.984375 15.986328 z M 27.984375 15.986328 A 1.0001 1.0001 0 0 0 27 17L27 33 A 1.0001 1.0001 0 1 0 29 33L29 17 A 1.0001 1.0001 0 0 0 27.984375 15.986328 z" />
</svg>