<?xml version="1.0" encoding="utf-8"?>
<svg xmlns="http://www.w3.org/2000/svg" viewBox="0 0 50 50" width="515" height="515">
  <path d="M19 0C8.621094 0 0 7.492188 0 16.90625C0 21.460938 2.042969 25.589844 5.3125 28.625C4.832031 30.042969 3.8125 31.171875 2.71875 32.0625C2.109375 32.558594 1.515625 32.984375 1.03125 33.40625C0.789063 33.617188 0.566406 33.804688 0.375 34.09375C0.183594 34.382813 -0.0078125 34.882813 0.125 35.375L0.25 35.75L0.59375 35.96875C1.632813 36.558594 2.894531 36.65625 4.21875 36.5625C5.542969 36.46875 6.972656 36.136719 8.375 35.75C10.308594 35.21875 11.964844 34.585938 13.34375 34.03125C16.09375 40.390625 22.996094 44.8125 31 44.8125C32.386719 44.8125 33.707031 44.59375 34.9375 44.40625C36.332031 45.039063 38.828125 46.082031 41.53125 46.8125C44.339844 47.574219 47.210938 48.140625 49.28125 46.96875L49.65625 46.75L49.75 46.375C49.882813 45.886719 49.71875 45.417969 49.53125 45.125C49.34375 44.832031 49.144531 44.621094 48.90625 44.40625C48.429688 43.972656 47.824219 43.535156 47.21875 43.03125C46.128906 42.125 45.105469 40.984375 44.59375 39.59375C47.851563 36.558594 49.90625 32.449219 49.90625 27.90625C49.90625 20.488281 44.5 14.160156 37.09375 11.90625C34.707031 4.96875 27.457031 0 19 0 Z M 19 2C28.421875 2 35.90625 8.710938 35.90625 16.90625C35.90625 25.09375 28.328125 31.8125 18.90625 31.8125C17.554688 31.8125 16.226563 31.714844 15.03125 31.4375L14.71875 31.34375L14.40625 31.46875C14.289063 31.519531 14.042969 31.628906 13.90625 31.6875C13.882813 31.695313 13.835938 31.679688 13.8125 31.6875C13.578125 31.703125 13.355469 31.804688 13.1875 31.96875C11.773438 32.550781 9.910156 33.277344 7.84375 33.84375C6.519531 34.207031 5.183594 34.480469 4.0625 34.5625C3.566406 34.597656 3.359375 34.449219 2.96875 34.40625C3.289063 34.15625 3.558594 33.957031 3.96875 33.625C5.300781 32.539063 6.941406 30.96875 7.46875 28.625L7.59375 28.03125L7.15625 27.625C3.957031 24.894531 2 21.09375 2 16.90625C2 8.71875 9.578125 2 19 2 Z M 37.65625 14.1875C37.84375 14.257813 38.035156 14.328125 38.21875 14.40625C38.089844 14.574219 38 14.773438 38 15C38 15.550781 38.449219 16 39 16C39.460938 16 39.820313 15.671875 39.9375 15.25C42.15625 16.476563 44.007813 18.136719 45.375 20.09375C45.253906 20.042969 45.136719 20 45 20C44.449219 20 44 20.449219 44 21C44 21.550781 44.449219 22 45 22C45.53125 22 45.964844 21.585938 46 21.0625C46.460938 21.84375 46.859375 22.679688 47.15625 23.53125C47.074219 23.675781 47 23.824219 47 24C47 24.375 47.226563 24.671875 47.53125 24.84375C47.769531 25.835938 47.90625 26.855469 47.90625 27.90625C47.90625 28.28125 47.875 28.660156 47.84375 29.03125C47.371094 29.109375 47 29.503906 47 30C47 30.390625 47.238281 30.710938 47.5625 30.875C46.875 33.875 45.175781 36.558594 42.75 38.625L42.28125 39.03125L42.4375 39.65625C42.945313 41.632813 44.191406 43.039063 45.375 44.09375C45.253906 44.042969 45.136719 44 45 44C44.449219 44 44 44.449219 44 45C44 45.101563 44.035156 45.1875 44.0625 45.28125C43.425781 45.195313 42.769531 45.066406 42.0625 44.875C39.921875 44.296875 37.835938 43.472656 36.4375 42.875C36.761719 42.710938 37 42.390625 37 42C37 41.449219 36.550781 41 36 41C35.449219 41 35 41.449219 35 42C35 42.136719 35.042969 42.253906 35.09375 42.375L34.9375 42.40625C33.644531 42.605469 32.304688 42.8125 31 42.8125C30.855469 42.8125 30.707031 42.816406 30.5625 42.8125C30.820313 42.632813 31 42.339844 31 42C31 41.449219 30.550781 41 30 41C29.449219 41 29 41.449219 29 42C29 42.277344 29.101563 42.539063 29.28125 42.71875C27.777344 42.585938 26.328125 42.296875 24.96875 41.84375C24.890625 41.371094 24.496094 41 24 41C23.761719 41 23.546875 41.082031 23.375 41.21875C22.5625 40.859375 21.792969 40.464844 21.0625 40C21.585938 39.964844 22 39.53125 22 39C22 38.449219 21.550781 38 21 38C20.449219 38 20 38.449219 20 39C20 39.113281 20.027344 39.210938 20.0625 39.3125C19.046875 38.558594 18.132813 37.6875 17.34375 36.75C17.519531 36.902344 17.75 37 18 37C18.550781 37 19 36.550781 19 36C19 35.449219 18.550781 35 18 35C17.449219 35 17 35.449219 17 36C17 36.226563 17.089844 36.425781 17.21875 36.59375C16.523438 35.742188 15.914063 34.84375 15.4375 33.875C15.59375 33.796875 15.71875 33.675781 15.8125 33.53125C16.835938 33.691406 17.875 33.8125 18.90625 33.8125C19.375 33.8125 19.851563 33.78125 20.3125 33.75C20.492188 33.914063 20.738281 34 21 34C21.324219 34 21.597656 33.835938 21.78125 33.59375C23.304688 33.386719 24.769531 33.042969 26.15625 32.53125C26.074219 32.675781 26 32.824219 26 33C26 33.550781 26.449219 34 27 34C27.550781 34 28 33.550781 28 33C28 32.539063 27.671875 32.179688 27.25 32.0625C28.050781 31.710938 28.828125 31.320313 29.5625 30.875C29.699219 30.945313 29.835938 31 30 31C30.550781 31 31 30.550781 31 30C31 29.976563 30.96875 29.960938 30.96875 29.9375C31.796875 29.328125 32.578125 28.660156 33.28125 27.9375C33.625 27.832031 33.863281 27.542969 33.9375 27.1875C34.566406 26.464844 35.164063 25.71875 35.65625 24.90625C35.769531 24.949219 35.871094 25 36 25C36.550781 25 37 24.550781 37 24C37 23.648438 36.804688 23.367188 36.53125 23.1875C37.40625 21.25 37.90625 19.132813 37.90625 16.90625C37.90625 15.980469 37.816406 15.070313 37.65625 14.1875 Z M 42 17C41.449219 17 41 17.449219 41 18C41 18.550781 41.449219 19 42 19C42.550781 19 43 18.550781 43 18C43 17.449219 42.550781 17 42 17 Z M 39 20C38.449219 20 38 20.449219 38 21C38 21.550781 38.449219 22 39 22C39.550781 22 40 21.550781 40 21C40 20.449219 39.550781 20 39 20 Z M 42 23C41.449219 23 41 23.449219 41 24C41 24.550781 41.449219 25 42 25C42.550781 25 43 24.550781 43 24C43 23.449219 42.550781 23 42 23 Z M 39 26C38.449219 26 38 26.449219 38 27C38 27.550781 38.449219 28 39 28C39.550781 28 40 27.550781 40 27C40 26.449219 39.550781 26 39 26 Z M 45 26C44.449219 26 44 26.449219 44 27C44 27.550781 44.449219 28 45 28C45.550781 28 46 27.550781 46 27C46 26.449219 45.550781 26 45 26 Z M 36 29C35.449219 29 35 29.449219 35 30C35 30.550781 35.449219 31 36 31C36.550781 31 37 30.550781 37 30C37 29.449219 36.550781 29 36 29 Z M 42 29C41.449219 29 41 29.449219 41 30C41 30.550781 41.449219 31 42 31C42.550781 31 43 30.550781 43 30C43 29.449219 42.550781 29 42 29 Z M 33 32C32.449219 32 32 32.449219 32 33C32 33.550781 32.449219 34 33 34C33.550781 34 34 33.550781 34 33C34 32.449219 33.550781 32 33 32 Z M 39 32C38.449219 32 38 32.449219 38 33C38 33.550781 38.449219 34 39 34C39.550781 34 40 33.550781 40 33C40 32.449219 39.550781 32 39 32 Z M 45 32C44.449219 32 44 32.449219 44 33C44 33.550781 44.449219 34 45 34C45.550781 34 46 33.550781 46 33C46 32.449219 45.550781 32 45 32 Z M 24 35C23.449219 35 23 35.449219 23 36C23 36.550781 23.449219 37 24 37C24.550781 37 25 36.550781 25 36C25 35.449219 24.550781 35 24 35 Z M 30 35C29.449219 35 29 35.449219 29 36C29 36.550781 29.449219 37 30 37C30.550781 37 31 36.550781 31 36C31 35.449219 30.550781 35 30 35 Z M 36 35C35.449219 35 35 35.449219 35 36C35 36.550781 35.449219 37 36 37C36.550781 37 37 36.550781 37 36C37 35.449219 36.550781 35 36 35 Z M 42 35C41.449219 35 41 35.449219 41 36C41 36.550781 41.449219 37 42 37C42.550781 37 43 36.550781 43 36C43 35.449219 42.550781 35 42 35 Z M 27 38C26.449219 38 26 38.449219 26 39C26 39.550781 26.449219 40 27 40C27.550781 40 28 39.550781 28 39C28 38.449219 27.550781 38 27 38 Z M 33 38C32.449219 38 32 38.449219 32 39C32 39.550781 32.449219 40 33 40C33.550781 40 34 39.550781 34 39C34 38.449219 33.550781 38 33 38 Z M 39 38C38.449219 38 38 38.449219 38 39C38 39.550781 38.449219 40 39 40C39.550781 40 40 39.550781 40 39C40 38.449219 39.550781 38 39 38 Z M 42 41C41.449219 41 41 41.449219 41 42C41 42.550781 41.449219 43 42 43C42.550781 43 43 42.550781 43 42C43 41.449219 42.550781 41 42 41 Z M 45.8125 44.4375C45.855469 44.472656 45.894531 44.527344 45.9375 44.5625C46.351563 44.90625 46.648438 45.117188 46.96875 45.375C46.632813 45.40625 46.265625 45.410156 45.875 45.40625C45.9375 45.277344 46 45.152344 46 45C46 44.789063 45.925781 44.597656 45.8125 44.4375Z" />
</svg>