<?xml version="1.0" encoding="utf-8"?>
<svg xmlns="http://www.w3.org/2000/svg" viewBox="0 0 50 50" width="515" height="515">
  <path d="M21.90625 0.40625C18.207031 0.507813 15.507813 1.585938 13.90625 3.6875C12.007813 6.1875 11.613281 10.085938 12.8125 15.1875C12.3125 15.789063 11.992188 16.585938 12.09375 17.6875C12.394531 19.886719 13.207031 20.789063 13.90625 21.1875C14.207031 22.886719 15.007813 24.914063 15.90625 25.8125L15.90625 29.40625C15.304688 30.804688 13.300781 31.601563 11 32.5C7.199219 34 2.398438 35.90625 2 41.90625L1.90625 43L34.40625 43L32.1875 41L4.09375 41C4.894531 37 8.414063 35.613281 11.8125 34.3125C14.511719 33.210938 17.105469 32.207031 17.90625 29.90625L18 29.6875L18 24.6875L17.5 24.40625C17.101563 24.105469 16.105469 22.210938 15.90625 20.3125L15.8125 19.5L15 19.40625C14.898438 19.40625 14.386719 19 14.1875 17.5C14.085938 16.699219 14.5 16.40625 14.5 16.40625L15.09375 16L14.90625 15.3125C13.707031 10.613281 13.898438 7.007813 15.5 4.90625C16.699219 3.304688 18.90625 2.414063 21.90625 2.3125C23.804688 2.3125 25.195313 2.792969 25.59375 3.59375L25.8125 4L26.3125 4.09375C27.613281 4.292969 28.585938 4.914063 29.1875 5.8125C30.6875 8.3125 29.792969 12.792969 29.09375 15.09375L28.90625 16L29.5 16.40625C29.5 16.40625 29.914063 16.699219 29.8125 17.5C29.613281 19.101563 29.101563 19.40625 29 19.40625L28.1875 19.5L28.09375 20.3125C27.894531 22.210938 26.898438 24.207031 26.5 24.40625L26 24.6875L26 29.6875L26.09375 29.90625C26.992188 32.207031 29.488281 33.210938 32.1875 34.3125C34.988281 35.414063 37.914063 36.585938 39.3125 39.1875L39.8125 39.6875L41 38.1875C39.300781 34.988281 35.898438 33.601563 33 32.5C30.699219 31.601563 28.695313 30.804688 28.09375 29.40625L28.09375 25.8125C28.992188 24.914063 29.792969 22.886719 30.09375 21.1875C30.792969 20.789063 31.707031 19.886719 31.90625 17.6875C32.007813 16.585938 31.710938 15.789063 31.3125 15.1875C31.914063 13.1875 33.101563 8.113281 31 4.8125C30.101563 3.414063 28.792969 2.488281 27.09375 2.1875C26.195313 0.988281 24.304688 0.40625 21.90625 0.40625 Z M 48.4375 31.90625L47.8125 32.6875L40.0625 42.5625L34.65625 37.84375L33.90625 37.1875L32.59375 38.6875L33.34375 39.34375L39.53125 44.75L40.34375 45.4375L41 44.625L49.375 33.90625L50 33.125Z" />
</svg>