<?xml version="1.0" encoding="utf-8"?>
<svg xmlns="http://www.w3.org/2000/svg" viewBox="0 0 50 50" width="515" height="515">
  <path d="M11 4C7.1545455 4 4 7.1545455 4 11L4 39C4 42.845455 7.1545455 46 11 46L39 46C42.845455 46 46 42.845455 46 39L46 11C46 7.1545455 42.845455 4 39 4L11 4 z M 11 6L39 6C41.754545 6 44 8.2454545 44 11L44 39C44 41.754545 41.754545 44 39 44L11 44C8.2454545 44 6 41.754545 6 39L6 11C6 8.2454545 8.2454545 6 11 6 z M 36.238281 15.853516L22.916016 31.554688L14.78125 23.96875L13.417969 25.431641L23.083984 34.445312L37.761719 17.146484L36.238281 15.853516 z" />
</svg>