<?xml version="1.0" encoding="utf-8"?>
<svg xmlns="http://www.w3.org/2000/svg" viewBox="0 0 50 50" width="515" height="515">
  <path d="M17.5 9C8.951431 9 2 15.951431 2 24.5C2 33.048569 8.951431 40 17.5 40C26.048569 40 33 33.048569 33 24.5C33 15.951431 26.048569 9 17.5 9 z M 17.5 11C24.967689 11 31 17.032311 31 24.5C31 31.967689 24.967689 38 17.5 38C10.032311 38 4 31.967689 4 24.5C4 17.032311 10.032311 11 17.5 11 z M 25.980469 17.990234 A 1.0001 1.0001 0 0 0 25.292969 18.292969L14 29.585938L9.7070312 25.292969 A 1.0001 1.0001 0 1 0 8.2929688 26.707031L13.292969 31.707031 A 1.0001 1.0001 0 0 0 14.707031 31.707031L26.707031 19.707031 A 1.0001 1.0001 0 0 0 25.980469 17.990234 z M 38 24 A 1 1 0 0 0 37 25 A 1 1 0 0 0 38 26L50 26L50 24L38 24 z" />
</svg>