<?xml version="1.0" encoding="utf-8"?>
<svg xmlns="http://www.w3.org/2000/svg" viewBox="0 0 50 50" width="515" height="515">
  <path d="M6.9628906 2 A 1.0001 1.0001 0 0 0 6 3L6 44L5 44 A 2 2 0 0 0 3.5800781 47.410156 A 2 2 0 0 0 5 48L7 48L43 48L45 48 A 2 2 0 0 0 47 46 A 2 2 0 0 0 45 44L44 44L44 3 A 1.0001 1.0001 0 0 0 42.552734 2.1054688L41 2.8828125L39.447266 2.1054688 A 1.0001 1.0001 0 0 0 38.552734 2.1054688L37 2.8828125L35.447266 2.1054688 A 1.0001 1.0001 0 0 0 34.552734 2.1054688L33 2.8828125L31.447266 2.1054688 A 1.0001 1.0001 0 0 0 30.552734 2.1054688L29 2.8828125L27.447266 2.1054688 A 1.0001 1.0001 0 0 0 26.552734 2.1054688L25 2.8828125L23.447266 2.1054688 A 1.0001 1.0001 0 0 0 22.552734 2.1054688L21 2.8828125L19.447266 2.1054688 A 1.0001 1.0001 0 0 0 18.552734 2.1054688L17 2.8828125L15.447266 2.1054688 A 1.0001 1.0001 0 0 0 14.552734 2.1054688L13 2.8828125L11.447266 2.1054688 A 1.0001 1.0001 0 0 0 10.552734 2.1054688L9 2.8828125L7.4472656 2.1054688 A 1.0001 1.0001 0 0 0 6.9628906 2 z M 11 4.1171875L12.552734 4.8945312 A 1.0001 1.0001 0 0 0 13.447266 4.8945312L15 4.1171875L16.552734 4.8945312 A 1.0001 1.0001 0 0 0 17.447266 4.8945312L19 4.1171875L20.552734 4.8945312 A 1.0001 1.0001 0 0 0 21.447266 4.8945312L23 4.1171875L24.552734 4.8945312 A 1.0001 1.0001 0 0 0 25.447266 4.8945312L27 4.1171875L28.552734 4.8945312 A 1.0001 1.0001 0 0 0 29.447266 4.8945312L31 4.1171875L32.552734 4.8945312 A 1.0001 1.0001 0 0 0 33.447266 4.8945312L35 4.1171875L36.552734 4.8945312 A 1.0001 1.0001 0 0 0 37.447266 4.8945312L39 4.1171875L40.552734 4.8945312 A 1.0001 1.0001 0 0 0 41.447266 4.8945312L42 4.6171875L42 46L8 46L8 4.6171875L8.5527344 4.8945312 A 1.0001 1.0001 0 0 0 9.4472656 4.8945312L11 4.1171875 z M 13 11 A 1.0001 1.0001 0 1 0 13 13L28 13 A 1.0001 1.0001 0 1 0 28 11L13 11 z M 34 11 A 1.0001 1.0001 0 1 0 34 13L37 13 A 1.0001 1.0001 0 1 0 37 11L34 11 z M 13 17 A 1.0001 1.0001 0 1 0 13 19L24 19 A 1.0001 1.0001 0 1 0 24 17L13 17 z M 34 17 A 1.0001 1.0001 0 1 0 34 19L37 19 A 1.0001 1.0001 0 1 0 37 17L34 17 z M 13 23 A 1.0001 1.0001 0 1 0 13 25L28 25 A 1.0001 1.0001 0 1 0 28 23L13 23 z M 34 23 A 1.0001 1.0001 0 1 0 34 25L37 25 A 1.0001 1.0001 0 1 0 37 23L34 23 z M 13 29 A 1.0001 1.0001 0 1 0 13 31L24 31 A 1.0001 1.0001 0 1 0 24 29L13 29 z M 34 29 A 1.0001 1.0001 0 1 0 34 31L37 31 A 1.0001 1.0001 0 1 0 37 29L34 29 z M 13 35 A 1 1 0 1 0 14 36 A 1 1 0 0 0 13 35 z M 16 35 A 1 1 0 1 0 17 36 A 1 1 0 0 0 16 35 z M 19 35 A 1 1 0 1 0 20 36 A 1 1 0 0 0 19 35 z M 22 35 A 1 1 0 1 0 23 36 A 1 1 0 0 0 22 35 z M 25 35 A 1 1 0 1 0 26 36 A 1 1 0 0 0 25 35 z M 28 35 A 1 1 0 1 0 29 36 A 1 1 0 0 0 28 35 z M 31 35 A 1 1 0 1 0 32 36 A 1 1 0 0 0 31 35 z M 34 35 A 1 1 0 1 0 35 36 A 1 1 0 0 0 34 35 z M 37 35 A 1 1 0 1 0 38 36 A 1 1 0 0 0 37 35 z M 31 40 A 1.0001 1.0001 0 1 0 31 42L37 42 A 1.0001 1.0001 0 1 0 37 40L31 40 z" />
</svg>