<?xml version="1.0" encoding="utf-8"?>
<svg xmlns="http://www.w3.org/2000/svg" viewBox="0 0 50 50" width="515" height="515">
  <path d="M25 1C11.759318 1 1 11.759318 1 25C1 38.240682 11.759318 49 25 49C38.240682 49 49 38.240682 49 25C49 11.759318 38.240682 1 25 1 z M 25 3C25.674908 3 26.340665 3.0344009 27 3.09375L27 10.150391C26.343779 10.061616 25.67941 10 25 10C24.32059 10 23.656221 10.061616 23 10.150391L23 3.09375C23.659335 3.0344009 24.325092 3 25 3 z M 21 3.3691406L21 10.5625C18.526728 11.253462 16.303389 12.556571 14.515625 14.310547L8.2851562 10.699219C11.494966 6.9501434 15.942328 4.2971349 21 3.3691406 z M 29 3.3691406C34.075199 4.3003509 38.535748 6.968611 41.748047 10.738281L35.523438 14.347656C33.729128 12.57475 31.491005 11.258416 29 10.5625L29 3.3691406 z M 25 12C32.154545 12 38 17.845455 38 25C38 32.154545 32.154545 38 25 38C17.845455 38 12 32.154545 12 25C12 17.845455 17.845455 12 25 12 z M 7.0410156 12.291016L13.164062 15.839844C12.346687 16.891853 11.658077 18.047361 11.140625 19.292969L5.0351562 15.753906C5.6001328 14.534853 6.2717605 13.376539 7.0410156 12.291016 z M 42.988281 12.332031C43.754883 13.419078 44.424192 14.578638 44.986328 15.798828L38.876953 19.341797C38.363597 18.09385 37.67931 16.935832 36.865234 15.880859L42.988281 12.332031 z M 4.2695312 17.623047L10.501953 21.234375C10.185979 22.441056 10 23.698294 10 25C10 26.301706 10.185979 27.558944 10.501953 28.765625L4.2695312 32.376953C3.4499789 30.070945 3 27.588809 3 25C3 22.411191 3.4499789 19.929055 4.2695312 17.623047 z M 45.746094 17.669922C46.55516 19.962815 47 22.428571 47 25C47 27.571429 46.55516 30.037185 45.746094 32.330078L39.511719 28.714844C39.819154 27.523527 40 26.283406 40 25C40 23.716594 39.819154 22.476473 39.511719 21.285156L45.746094 17.669922 z M 38.876953 30.658203L44.986328 34.201172C44.424192 35.421362 43.754883 36.580922 42.988281 37.667969L36.865234 34.119141C37.67931 33.064168 38.363597 31.90615 38.876953 30.658203 z M 11.140625 30.707031C11.658077 31.952639 12.346687 33.108147 13.164062 34.160156L7.0410156 37.708984C6.2717605 36.623461 5.6001328 35.465147 5.0351562 34.246094L11.140625 30.707031 z M 35.523438 35.652344L41.748047 39.261719C38.535748 43.031389 34.075199 45.699649 29 46.630859L29 39.4375C31.491005 38.741584 33.729128 37.42525 35.523438 35.652344 z M 14.515625 35.689453C16.303389 37.443429 18.526728 38.746538 21 39.4375L21 46.630859C15.942328 45.702865 11.494966 43.049857 8.2851562 39.300781L14.515625 35.689453 z M 23 39.849609C23.656221 39.938384 24.32059 40 25 40C25.67941 40 26.343779 39.938384 27 39.849609L27 46.90625C26.340665 46.965599 25.674908 47 25 47C24.325092 47 23.659335 46.965599 23 46.90625L23 39.849609 z" />
</svg>