<?xml version="1.0" encoding="utf-8"?>
<svg xmlns="http://www.w3.org/2000/svg" viewBox="0 0 50 50" width="515" height="515">
  <path d="M24 2L24 4L22 4L22 6L24 6L24 9.78125L18.09375 22.578125C18.089844 22.589844 18.085938 22.597656 18.082031 22.605469C18.070313 22.636719 18.058594 22.667969 18.046875 22.699219C18.035156 22.730469 18.027344 22.761719 18.019531 22.796875C18.015625 22.828125 18.007813 22.859375 18.003906 22.894531C18.003906 22.925781 18 22.957031 18 22.988281C18 22.992188 18 22.996094 18 23L18 28.675781L4.6875 33.050781C4.277344 33.1875 4 33.570313 4 34L4 47C4 47.550781 4.449219 48 5 48L45 48C45.550781 48 46 47.550781 46 47L46 34C46 33.570313 45.722656 33.1875 45.3125 33.050781L32 28.675781L32 23.035156C32 23.023438 32 23.011719 32 23C32 22.933594 31.992188 22.867188 31.980469 22.804688C31.980469 22.804688 31.980469 22.800781 31.980469 22.800781C31.980469 22.796875 31.980469 22.796875 31.980469 22.792969C31.972656 22.761719 31.964844 22.734375 31.953125 22.703125C31.949219 22.683594 31.941406 22.664063 31.9375 22.644531C31.929688 22.632813 31.925781 22.621094 31.921875 22.609375C31.921875 22.609375 31.917969 22.605469 31.917969 22.601563C31.914063 22.59375 31.910156 22.585938 31.90625 22.578125L26 9.78125L26 6L28 6L28 4L26 4L26 2 Z M 25 12.390625L28.355469 19.65625L25.617188 17.515625C25.433594 17.367188 25.199219 17.292969 24.964844 17.300781C24.898438 17.304688 24.832031 17.3125 24.765625 17.328125C24.734375 17.335938 24.703125 17.34375 24.671875 17.355469C24.609375 17.378906 24.546875 17.40625 24.488281 17.4375C24.453125 17.460938 24.417969 17.488281 24.382813 17.515625L21.644531 19.65625 Z M 25 19.570313L30 23.484375L30 46L28 46L28 42C28 40.667969 27.390625 39.53125 26.832031 38.695313C26.273438 37.859375 25.707031 37.292969 25.707031 37.292969C25.515625 37.101563 25.253906 36.996094 24.984375 37C24.722656 37.003906 24.476563 37.109375 24.292969 37.292969C24.292969 37.292969 23.726563 37.859375 23.167969 38.695313C22.609375 39.53125 22 40.667969 22 42L22 46L20 46L20 23.484375 Z M 25 23C23.355469 23 22 24.355469 22 26C22 27.644531 23.355469 29 25 29C26.644531 29 28 27.644531 28 26C28 24.355469 26.644531 23 25 23 Z M 25 25C25.5625 25 26 25.4375 26 26C26 26.5625 25.5625 27 25 27C24.4375 27 24 26.5625 24 26C24 25.4375 24.4375 25 25 25 Z M 18 30.78125L18 46L16 46L16 44C16 40.332031 12.554688 38.167969 12.554688 38.167969C12.386719 38.054688 12.191406 37.996094 11.988281 38C11.792969 38.003906 11.605469 38.0625 11.445313 38.167969C11.445313 38.167969 8 40.332031 8 44L8 46L6 46L6 34.722656 Z M 32 30.78125L44 34.722656L44 46L42 46L42 44C42 40.332031 38.554688 38.167969 38.554688 38.167969C38.386719 38.054688 38.191406 37.996094 37.988281 38C37.792969 38.003906 37.605469 38.0625 37.445313 38.167969C37.445313 38.167969 34 40.332031 34 44L34 46L32 46 Z M 25 39.59375C25.082031 39.703125 25.082031 39.675781 25.167969 39.804688C25.609375 40.46875 26 41.332031 26 42L26 46L24 46L24 42C24 41.332031 24.390625 40.46875 24.832031 39.804688C24.917969 39.675781 24.917969 39.703125 25 39.59375 Z M 12 40.359375C12.679688 40.933594 14 42.171875 14 44L14 46L10 46L10 44C10 42.171875 11.320313 40.933594 12 40.359375 Z M 38 40.359375C38.679688 40.933594 40 42.171875 40 44L40 46L36 46L36 44C36 42.171875 37.320313 40.933594 38 40.359375Z" />
</svg>