<?xml version="1.0" encoding="utf-8"?>
<svg xmlns="http://www.w3.org/2000/svg" viewBox="0 0 50 50" width="515" height="515">
  <path d="M25 2C12.309295 2 2 12.309295 2 25C2 37.690705 12.309295 48 25 48C37.690705 48 48 37.690705 48 25C48 12.309295 37.690705 2 25 2 z M 25 4C36.609824 4 46 13.390176 46 25C46 36.609824 36.609824 46 25 46C13.390176 46 4 36.609824 4 25C4 13.390176 13.390176 4 25 4 z M 25 14C21.691 14 19 16.467 19 19.5C19 19.67 19.023016 19.834 19.041016 20L21.048828 20C21.019828 19.837 21 19.671 21 19.5C21 17.57 22.794 16 25 16C27.206 16 29 17.57 29 19.5C29 21.43 27.206 23 25 23L25 25C27.757 25 30 27.019 30 29.5C30 31.981 27.757 34 25 34C22.243 34 20 31.981 20 29.5C20 29.329 20.035641 29.166 20.056641 29L18.035156 29C18.021156 29.166 18 29.33 18 29.5C18 33.084 21.14 36 25 36C28.86 36 32 33.084 32 29.5C32 27.125 30.6165 25.048062 28.5625 23.914062C30.0375 22.911062 31 21.309 31 19.5C31 16.467 28.309 14 25 14 z" />
</svg>