<?xml version="1.0" encoding="utf-8"?>
<svg xmlns="http://www.w3.org/2000/svg" viewBox="0 0 50 50" width="515" height="515">
  <path d="M25 2C12.309295 2 2 12.309295 2 25C2 37.690705 12.309295 48 25 48C37.690705 48 48 37.690705 48 25C48 12.309295 37.690705 2 25 2 z M 25 4C36.609824 4 46 13.390176 46 25C46 36.609824 36.609824 46 25 46C13.390176 46 4 36.609824 4 25C4 13.390176 13.390176 4 25 4 z M 20.388672 14L18.193359 24.412109C18.185359 24.424109 18.176969 24.435266 18.167969 24.447266L18.183594 24.457031L18.070312 25L20.277344 25C21.345344 23.76 22.899 23 24.5 23C27.532 23 30 25.467 30 28.5C30 31.533 27.532 34 24.5 34C21.988 34 19.868891 32.305 19.212891 30L17.150391 30C17.847391 33.419 20.878 36 24.5 36C28.636 36 32 32.636 32 28.5C32 24.364 28.636 21 24.5 21C23.178 21 21.879328 21.380875 20.736328 22.046875L22.011719 16L31 16L31 14L20.388672 14 z" />
</svg>