<?xml version="1.0" encoding="utf-8"?>
<svg xmlns="http://www.w3.org/2000/svg" viewBox="0 0 50 50" width="515" height="515">
  <path d="M25 2C12.309295 2 2 12.309295 2 25C2 37.690705 12.309295 48 25 48C37.690705 48 48 37.690705 48 25C48 12.309295 37.690705 2 25 2 z M 25 4C36.609824 4 46 13.390176 46 25C46 36.609824 36.609824 46 25 46C13.390176 46 4 36.609824 4 25C4 13.390176 13.390176 4 25 4 z M 18.720703 16L18.720703 34L20.964844 34L20.964844 27.576172L25.492188 27.576172C28.873187 27.576172 31.28125 25.192219 31.28125 21.824219C31.28125 18.394219 28.922578 16 25.517578 16L18.720703 16 z M 20.964844 17.994141L24.931641 17.994141C27.538641 17.994141 28.974609 19.354219 28.974609 21.824219C28.974609 24.207219 27.488641 25.580078 24.931641 25.580078L20.964844 25.580078L20.964844 17.994141 z" />
</svg>