<?xml version="1.0" encoding="utf-8"?>
<svg xmlns="http://www.w3.org/2000/svg" viewBox="0 0 50 50" width="515" height="515">
  <path d="M25 2C12.309295 2 2 12.309295 2 25C2 37.690705 12.309295 48 25 48C37.690705 48 48 37.690705 48 25C48 12.309295 37.690705 2 25 2 z M 25 4C36.609824 4 46 13.390176 46 25C46 36.609824 36.609824 46 25 46C13.390176 46 4 36.609824 4 25C4 13.390176 13.390176 4 25 4 z M 13.761719 16L18.662109 34L20.783203 34L24.925781 19.792969L25.074219 19.792969L29.216797 34L31.337891 34L36.238281 16L33.894531 16L30.314453 30.632812L30.164062 30.632812L26.134766 16L23.865234 16L19.835938 30.632812L19.685547 30.632812L16.105469 16L13.761719 16 z" />
</svg>