<?xml version="1.0" encoding="utf-8"?>
<svg xmlns="http://www.w3.org/2000/svg" viewBox="0 0 50 50" width="515" height="515">
  <path d="M25 2C12.309295 2 2 12.309295 2 25C2 37.690705 12.309295 48 25 48C37.690705 48 48 37.690705 48 25C48 12.309295 37.690705 2 25 2 z M 25 4C36.609824 4 46 13.390176 46 25C46 36.609824 36.609824 46 25 46C13.390176 46 4 36.609824 4 25C4 13.390176 13.390176 4 25 4 z M 27 13.998047L27 14L17 28.998047L17.003906 29L17 29L17 31L27 31L27 36L29 36L29 31L32 31L32 29L29 29L29 14L27.003906 14L27 13.998047 z M 27 17.603516L27 29L19.404297 29L27 17.603516 z" />
</svg>