<?xml version="1.0" encoding="utf-8"?>
<svg xmlns="http://www.w3.org/2000/svg" viewBox="0 0 50 50" width="515" height="515">
  <path d="M25 2C12.309295 2 2 12.309295 2 25C2 37.690705 12.309295 48 25 48C37.690705 48 48 37.690705 48 25C48 12.309295 37.690705 2 25 2 z M 25 4C36.609824 4 46 13.390176 46 25C46 36.609824 36.609824 46 25 46C13.390176 46 4 36.609824 4 25C4 13.390176 13.390176 4 25 4 z M 25 14C21.666667 14 19.724726 15.81422 18.855469 17.552734C17.986212 19.291248 18 21 18 21L18 29C18 32.854149 21.145851 36 25 36C28.854149 36 32 32.854149 32 29C32 25.145851 28.854149 22 25 22C23.043737 22 21.272554 22.81305 20 24.115234L20 21C20 21 20.01379 19.708752 20.644531 18.447266C21.275274 17.18578 22.333333 16 25 16C27.666667 16 28.724726 17.18578 29.355469 18.447266C29.986212 19.708752 30 21 30 21L32 21C32 21 32.01379 19.291248 31.144531 17.552734C30.275274 15.81422 28.333333 14 25 14 z M 25 24C27.773268 24 30 26.226732 30 29C30 31.773268 27.773268 34 25 34C22.226732 34 20 31.773268 20 29C20 26.226732 22.226732 24 25 24 z" />
</svg>