<?xml version="1.0" encoding="utf-8"?>
<svg xmlns="http://www.w3.org/2000/svg" viewBox="0 0 50 50" width="515" height="515">
  <path d="M25 2C12.309295 2 2 12.309295 2 25C2 37.690705 12.309295 48 25 48C37.690705 48 48 37.690705 48 25C48 12.309295 37.690705 2 25 2 z M 25 4C36.609824 4 46 13.390176 46 25C46 36.609824 36.609824 46 25 46C13.390176 46 4 36.609824 4 25C4 13.390176 13.390176 4 25 4 z M 25 14C21.145851 14 18 17.145851 18 21C18 24.854149 21.145851 28 25 28C26.956263 28 28.727446 27.18695 30 25.884766L30 29C30 29 29.98621 30.291248 29.355469 31.552734C28.724726 32.81422 27.666667 34 25 34C22.333333 34 21.275274 32.81422 20.644531 31.552734C20.013788 30.291248 20 29 20 29L18 29C18 29 17.98621 30.708752 18.855469 32.447266C19.724726 34.18578 21.666667 36 25 36C28.333333 36 30.275274 34.18578 31.144531 32.447266C32.013788 30.708752 32 29 32 29L32 21C32 17.145851 28.854149 14 25 14 z M 25 16C27.773268 16 30 18.226732 30 21C30 23.773268 27.773268 26 25 26C22.226732 26 20 23.773268 20 21C20 18.226732 22.226732 16 25 16 z" />
</svg>