<?xml version="1.0" encoding="utf-8"?>
<svg xmlns="http://www.w3.org/2000/svg" viewBox="0 0 50 50" width="515" height="515">
  <path d="M25 2C12.309295 2 2 12.309295 2 25C2 37.690705 12.309295 48 25 48C37.690705 48 48 37.690705 48 25C48 12.309295 37.690705 2 25 2 z M 25 4C36.609824 4 46 13.390176 46 25C46 36.609824 36.609824 46 25 46C13.390176 46 4 36.609824 4 25C4 13.390176 13.390176 4 25 4 z M 25.183594 15.501953C21.348594 15.501953 18.769531 17.588922 18.769531 20.669922C18.769531 23.246922 20.190656 24.730547 23.472656 25.560547L25.798828 26.164062C28.300828 26.793062 29.433594 27.773312 29.433594 29.320312C29.433594 31.118313 27.634313 32.4375 25.195312 32.4375C22.617312 32.4375 20.806297 31.231031 20.529297 29.332031L18.242188 29.332031C18.481187 32.463031 21.134422 34.501953 24.982422 34.501953C29.132422 34.501953 31.759766 32.376922 31.759766 29.044922C31.759766 26.378922 30.250234 24.919563 26.490234 23.976562L24.591797 23.472656C22.088797 22.830656 21.095703 22.01475 21.095703 20.59375C21.095703 18.75775 22.693422 17.550781 25.107422 17.550781C27.371422 17.550781 28.90475 18.656578 29.21875 20.517578L31.494141 20.517578C31.306141 17.587578 28.691594 15.501953 25.183594 15.501953 z" />
</svg>