<?xml version="1.0" encoding="utf-8"?>
<svg xmlns="http://www.w3.org/2000/svg" viewBox="0 0 50 50" width="515" height="515">
  <path d="M25 2C12.309295 2 2 12.309295 2 25C2 37.690705 12.309295 48 25 48C37.690705 48 48 37.690705 48 25C48 12.309295 37.690705 2 25 2 z M 25 4C36.609824 4 46 13.390176 46 25C46 36.609824 36.609824 46 25 46C13.390176 46 4 36.609824 4 25C4 13.390176 13.390176 4 25 4 z M 16.128906 16L16.128906 34L18.224609 34L18.224609 20.253906L18.375 20.253906L24.050781 33.876953L25.947266 33.876953L31.623047 20.253906L31.773438 20.253906L31.773438 34L33.869141 34L33.869141 16L31.261719 16L25.099609 30.894531L24.900391 30.894531L18.736328 16L16.128906 16 z" />
</svg>