<?xml version="1.0" encoding="utf-8"?>
<svg xmlns="http://www.w3.org/2000/svg" viewBox="0 0 50 50" width="515" height="515">
  <path d="M25 2C12.309295 2 2 12.309295 2 25C2 37.690705 12.309295 48 25 48C37.690705 48 48 37.690705 48 25C48 12.309295 37.690705 2 25 2 z M 25 4C36.609824 4 46 13.390176 46 25C46 36.609824 36.609824 46 25 46C13.390176 46 4 36.609824 4 25C4 13.390176 13.390176 4 25 4 z M 19 14L19 16L29.720703 16C26.569424 18.986692 24.714967 23.053389 23.605469 26.71875C22.255693 31.177895 22 34.982372 22 36L24 36C24 35.392628 24.244307 31.50973 25.519531 27.296875C26.778787 23.136776 29.043258 18.601737 32.902344 16L33 16L33 15.931641C33.016027 15.921049 33.030793 15.908962 33.046875 15.898438L33 15.826172L33 14L19 14 z" />
</svg>