<?xml version="1.0" encoding="utf-8"?>
<svg xmlns="http://www.w3.org/2000/svg" viewBox="0 0 50 50" width="515" height="515">
  <path d="M25 2C12.309295 2 2 12.309295 2 25C2 37.690705 12.309295 48 25 48C37.690705 48 48 37.690705 48 25C48 12.309295 37.690705 2 25 2 z M 25 4C36.609824 4 46 13.390176 46 25C46 36.609824 36.609824 46 25 46C13.390176 46 4 36.609824 4 25C4 13.390176 13.390176 4 25 4 z M 18.095703 16L18.095703 34L20.341797 34L20.341797 27.714844L22.498047 25.330078L28.998047 34L31.904297 34L24.044922 23.771484L31.242188 16L28.423828 16L20.541016 24.744141L20.341797 24.744141L20.341797 16L18.095703 16 z" />
</svg>