<?xml version="1.0" encoding="utf-8"?>
<svg xmlns="http://www.w3.org/2000/svg" viewBox="0 0 50 50" width="515" height="515">
  <path d="M25 2C12.309295 2 2 12.309295 2 25C2 37.690705 12.309295 48 25 48C37.690705 48 48 37.690705 48 25C48 12.309295 37.690705 2 25 2 z M 25 4C36.609824 4 46 13.390176 46 25C46 36.609824 36.609824 46 25 46C13.390176 46 4 36.609824 4 25C4 13.390176 13.390176 4 25 4 z M 18.419922 16L18.419922 34L20.664062 34L20.666016 34L20.666016 26.876953L25.09375 26.876953L28.947266 34L31.580078 34L27.414062 26.527344C29.671062 25.816344 31.03125 23.870281 31.03125 21.363281C31.03125 18.120281 28.760969 16 25.292969 16L18.419922 16 z M 20.664062 17.994141L24.992188 17.994141C27.312187 17.994141 28.710938 19.2795 28.710938 21.4375C28.710938 23.6455 27.40175 24.880859 25.09375 24.880859L20.664062 24.880859L20.664062 17.994141 z" />
</svg>