<?xml version="1.0" encoding="utf-8"?>
<svg xmlns="http://www.w3.org/2000/svg" viewBox="0 0 50 50" width="515" height="515">
  <path d="M9 2C4.054688 2 0 6.054688 0 11L0 45C0 46.644531 1.355469 48 3 48L47 48C48.644531 48 50 46.644531 50 45L50 27C50 22.054688 45.945313 18 41 18L35.90625 18C33.285156 18 30.816406 16.5 29.6875 14.15625L26.09375 6.96875C26.089844 6.960938 26.097656 6.945313 26.09375 6.9375C24.617188 3.894531 21.460938 2 18.09375 2 Z M 9 4L18.09375 4C20.714844 4 23.183594 5.5 24.3125 7.84375L27.90625 15.03125C27.910156 15.039063 27.902344 15.054688 27.90625 15.0625C29.382813 18.105469 32.539063 20 35.90625 20L41 20C44.855469 20 48 23.144531 48 27L48 34L2 34L2 11C2 7.144531 5.144531 4 9 4 Z M 2 36L8.03125 36L8.3125 43L10.6875 43L10.96875 36L12.03125 36L12.3125 43L14.6875 43L14.96875 36L20.03125 36L20.3125 43L22.6875 43L22.96875 36L24.03125 36L24.3125 43L26.6875 43L26.96875 36L28.03125 36L28.3125 43L30.6875 43L30.96875 36L36.03125 36L36.3125 43L38.6875 43L38.96875 36L40.03125 36L40.3125 43L42.6875 43L42.96875 36L48 36L48 45C48 45.554688 47.554688 46 47 46L3 46C2.445313 46 2 45.554688 2 45Z" />
</svg>