<?xml version="1.0" encoding="utf-8"?>
<svg xmlns="http://www.w3.org/2000/svg" viewBox="0 0 50 50" width="515" height="515">
  <path d="M2.8125 8C2.335938 8.089844 1.992188 8.511719 2 9L2 38L1 38C0.96875 38 0.9375 38 0.90625 38C0.390625 38.046875 -0.00390625 38.480469 0 39L0 44C0 44.550781 0.449219 45 1 45L49 45C49.550781 45 50 44.550781 50 44L50 39C50 38.449219 49.550781 38 49 38L48 38L48 9C48 8.449219 47.550781 8 47 8L3 8C2.96875 8 2.9375 8 2.90625 8C2.875 8 2.84375 8 2.8125 8 Z M 4 10L46 10L46 38L21.90625 38L23 36L21.90625 34L11 34L11 38L4 38 Z M 39 14.96875C38.945313 14.976563 38.894531 14.984375 38.84375 15C38.683594 15.027344 38.535156 15.089844 38.40625 15.1875L25.03125 24.71875L19.625 20.21875C19.273438 19.933594 18.773438 19.921875 18.40625 20.1875L10.40625 26.1875C9.957031 26.515625 9.859375 27.144531 10.1875 27.59375C10.515625 28.042969 11.144531 28.140625 11.59375 27.8125L18.96875 22.28125L24.375 26.78125C24.726563 27.066406 25.226563 27.078125 25.59375 26.8125L39.59375 16.8125C39.980469 16.570313 40.152344 16.09375 40.011719 15.660156C39.871094 15.226563 39.457031 14.941406 39 14.96875 Z M 2 40L48 40L48 43L2 43Z" />
</svg>