<?xml version="1.0" encoding="utf-8"?>
<svg xmlns="http://www.w3.org/2000/svg" viewBox="0 0 50 50" width="515" height="515">
  <path d="M0.8125 0C0.335938 0.0898438 -0.0078125 0.511719 0 1L0 4C0.00390625 4.257813 0.101563 4.503906 0.28125 4.6875L16 21.375L16 39C16.007813 39.347656 16.199219 39.667969 16.5 39.84375L26.5 45.84375C26.804688 46.019531 27.183594 46.023438 27.492188 45.847656C27.796875 45.675781 27.992188 45.351563 28 45L28 21.375L43.5625 4.84375C43.574219 4.832031 43.582031 4.824219 43.59375 4.8125L43.71875 4.6875C43.765625 4.640625 43.808594 4.585938 43.84375 4.53125C43.867188 4.511719 43.886719 4.492188 43.90625 4.46875C43.964844 4.339844 43.996094 4.203125 44 4.0625C44 4.042969 44 4.019531 44 4C44.003906 3.949219 44.003906 3.894531 44 3.84375L44 1C44 0.449219 43.550781 0 43 0L1 0C0.96875 0 0.9375 0 0.90625 0C0.875 0 0.84375 0 0.8125 0 Z M 2 2L42 2L42 3.625L26.5625 20L17.4375 20L2 3.625 Z M 18 22L26 22L26 43.25L18 38.46875 Z M 32.90625 31.96875C32.863281 31.976563 32.820313 31.988281 32.78125 32C32.40625 32.066406 32.105469 32.339844 32 32.703125C31.894531 33.070313 32.003906 33.460938 32.28125 33.71875L39.5625 41L32.28125 48.28125C31.882813 48.679688 31.882813 49.320313 32.28125 49.71875C32.679688 50.117188 33.320313 50.117188 33.71875 49.71875L41 42.4375L48.28125 49.71875C48.679688 50.117188 49.320313 50.117188 49.71875 49.71875C50.117188 49.320313 50.117188 48.679688 49.71875 48.28125L42.4375 41L49.71875 33.71875C50.042969 33.417969 50.128906 32.941406 49.933594 32.546875C49.742188 32.148438 49.308594 31.929688 48.875 32C48.652344 32.023438 48.441406 32.125 48.28125 32.28125L41 39.5625L33.71875 32.28125C33.511719 32.058594 33.210938 31.945313 32.90625 31.96875Z" />
</svg>