<?xml version="1.0" encoding="utf-8"?>
<svg xmlns="http://www.w3.org/2000/svg" viewBox="0 0 50 50" width="515" height="515">
  <path d="M12.939453 10L0.08203125 25L12.939453 40L13.400391 40L46 40C48.209804 40 50 38.209804 50 36L50 14C50 11.790196 48.209804 10 46 10L12.939453 10 z M 13.859375 12L46 12C47.190196 12 48 12.809804 48 14L48 36C48 37.190196 47.190196 38 46 38L13.861328 38L2.7167969 25L13.859375 12 z M 21.707031 18.292969L20.292969 19.707031L25.585938 25L20.292969 30.292969L21.707031 31.707031L27 26.414062L32.292969 31.707031L33.707031 30.292969L28.414062 25L33.707031 19.707031L32.292969 18.292969L27 23.585938L21.707031 18.292969 z" />
</svg>