<?xml version="1.0" encoding="utf-8"?>
<svg xmlns="http://www.w3.org/2000/svg" viewBox="0 0 50 50" width="515" height="515">
  <path d="M23 7C20.9375 7 19.28125 8.5625 19.0625 10.5625C18.464844 10.203125 17.75 10 17 10C14.789063 10 13 11.789063 13 14L13 18.28125L11.75 18.71875L11.65625 18.75L11.65625 18.78125C11.5625 18.804688 10.472656 19.089844 9.34375 20.0625C8.167969 21.078125 7 22.871094 7 25.59375C7 27.566406 7.785156 29.371094 8.09375 30.09375C8.09375 30.105469 8.09375 30.113281 8.09375 30.125L12.09375 38.34375C13.460938 41.191406 16.335938 42.90625 19.40625 42.90625L32 42.90625C36.945313 42.90625 41 38.851563 41 33.90625L41 23C41 19.152344 39.378906 16.304688 39 15.6875L39 14C39 11.789063 37.210938 10 35 10C34.171875 10 33.386719 10.257813 32.75 10.6875C32.207031 9.125 30.75 8 29 8C28.015625 8 27.101563 8.347656 26.40625 8.9375C25.707031 7.777344 24.453125 7 23 7 Z M 23 9C24.191406 9 25 9.808594 25 11L25 17.1875C24.03125 15.992188 22.519531 15.363281 21 15.53125L21 11C21 9.808594 21.808594 9 23 9 Z M 29 10C30.191406 10 31 10.808594 31 12L31 19C31 20.191406 30.191406 21 29 21C27.808594 21 27 20.191406 27 19L27 18.15625C27.003906 18.105469 27.003906 18.050781 27 18L27 12C27 10.808594 27.808594 10 29 10 Z M 17 12C18.191406 12 19 12.808594 19 14L19 16.125L15 17.5625L15 14C15 12.808594 15.808594 12 17 12 Z M 35 12C36.191406 12 37 12.808594 37 14L37 15.71875C37 15.75 37 15.78125 37 15.8125C36.976563 15.9375 36.976563 16.0625 37 16.1875L37 21C37 22.191406 36.191406 23 35 23C33.808594 23 33 22.191406 33 21L33 14C33 12.808594 33.808594 12 35 12 Z M 21.5 17.46875C22.46875 17.433594 23.335938 18 23.78125 19C24.367188 20.324219 23.835938 21.6875 22.5 22.28125C22.457031 22.300781 22.414063 22.320313 22.375 22.34375L17.09375 25.53125C16.632813 25.792969 16.453125 26.367188 16.6875 26.84375L19 31.625C19.144531 31.960938 19.457031 32.191406 19.820313 32.226563C20.183594 32.261719 20.539063 32.097656 20.742188 31.796875C20.949219 31.496094 20.976563 31.105469 20.8125 30.78125L18.90625 26.78125L19.21875 26.59375C19.324219 26.667969 19.4375 26.71875 19.5625 26.75C19.5625 26.75 24.816406 28.46875 26.03125 35.1875C26.042969 35.582031 26.285156 35.9375 26.652344 36.085938C27.019531 36.234375 27.441406 36.15625 27.726563 35.878906C28.011719 35.601563 28.105469 35.183594 27.96875 34.8125C26.933594 29.085938 23.148438 26.363281 21.28125 25.34375L23.3125 24.125L23.375 24.09375C23.390625 24.085938 23.390625 24.070313 23.40625 24.0625C24.574219 23.507813 25.40625 22.496094 25.78125 21.34375C26.507813 22.347656 27.667969 23 29 23C29.828125 23 30.613281 22.742188 31.25 22.3125C31.792969 23.875 33.25 25 35 25C36.933594 25 38.535156 23.636719 38.90625 21.8125C38.945313 22.195313 39 22.59375 39 23L39 33.90625C39 37.761719 35.855469 40.90625 32 40.90625L19.40625 40.90625C17.078125 40.90625 14.9375 39.621094 13.90625 37.46875L9.90625 29.25L9.875 29.25C9.578125 28.546875 9 26.988281 9 25.59375C9 23.414063 9.832031 22.273438 10.65625 21.5625C11.480469 20.851563 12.25 20.65625 12.25 20.65625C12.28125 20.65625 12.3125 20.65625 12.34375 20.65625L20.21875 17.8125C20.292969 17.800781 20.367188 17.777344 20.4375 17.75C20.457031 17.742188 20.480469 17.730469 20.5 17.71875C20.832031 17.570313 21.175781 17.480469 21.5 17.46875Z" />
</svg>