<?xml version="1.0" encoding="utf-8"?>
<svg xmlns="http://www.w3.org/2000/svg" viewBox="0 0 50 50" width="515" height="515">
  <path d="M44.978516 1.9863281 A 1.0001 1.0001 0 0 0 44.017578 2.8105469C42.709987 9.5746169 37.348957 17.25281 31 22.837891L31 17.71875L40.089844 7.1328125L40 7.2246094C40.602483 6.6828185 41 5.8854162 41 5C41 3.3550302 39.64497 2 38 2C36.960071 2 36.033296 2.5392602 35.498047 3.3496094L35.59375 3.2246094L27.433594 12.136719L14.246094 16.677734L10.554688 11.451172L10.609375 11.539062C10.099495 10.630793 9.1206667 10 8 10C6.3550302 10 5 11.35503 5 13C5 13.596337 5.1826103 14.153889 5.4765625 14.613281 A 1.0001 1.0001 0 0 0 5.4960938 14.642578L11.388672 23.154297 A 1.0001 1.0001 0 0 0 11.408203 23.181641C11.748841 23.640192 12.326522 24 13 24C13.289991 24 13.507568 23.92629 13.636719 23.882812L13.595703 23.896484L19.152344 22.287109L19.980469 28.900391L15.222656 43.289062L15.240234 43.242188C15.09359 43.621021 15 44.046302 15 44.5C15 46.421188 16.578812 48 18.5 48C19.894 48 21.101794 47.172008 21.660156 45.988281 A 1.0001 1.0001 0 0 0 21.679688 45.945312L26.761719 33.769531L29 32.861328L29 47 A 1.0001 1.0001 0 1 0 31 47L31 32.050781L34.095703 30.796875L35.058594 36.097656C35.342532 37.74253 36.781937 39 38.5 39C40.421188 39 42 37.421188 42 35.5C42 35.262829 41.973814 35.03786 41.933594 34.830078L39.964844 23.611328L39.972656 23.675781C39.808812 22.18168 38.536658 21 37 21C36.509848 21 36.056447 21.127777 35.671875 21.318359L35.359375 21.460938C40.600586 16.069195 44.766029 9.4817582 45.982422 3.1894531 A 1.0001 1.0001 0 0 0 44.978516 1.9863281 z M 22.003906 2C19.252425 2 17 4.2497285 17 7C17 9.7510271 19.252726 12 22.003906 12C24.750553 12 27 9.7510271 27 7C27 4.2497285 24.750855 2 22.003906 2 z M 22.003906 4C23.668957 4 25 5.3302715 25 7C25 8.6709729 23.66926 10 22.003906 10C20.331086 10 19 8.6709729 19 7C19 5.3302715 20.331388 4 22.003906 4 z M 38 4C38.56503 4 39 4.4349698 39 5C39 5.2965838 38.87558 5.5480721 38.664062 5.7382812 A 1.0001 1.0001 0 0 0 38.574219 5.8300781L29.242188 16.697266 A 1.0001 1.0001 0 0 0 29 17.349609L29 24.308594L21.761719 27.025391L20.992188 20.875 A 1.0001 1.0001 0 0 0 19.722656 20.039062L13.039062 21.974609 A 1.0001 1.0001 0 0 0 13.011719 21.984375L7.1582031 13.529297C7.0563505 13.368177 7 13.193501 7 13C7 12.43497 7.4349698 12 8 12C8.3793333 12 8.6891146 12.203849 8.8652344 12.517578 A 1.0001 1.0001 0 0 0 8.921875 12.605469L13.046875 18.445312 A 1.0001 1.0001 0 0 0 14.189453 18.814453L28.326172 13.945312 A 1.0001 1.0001 0 0 0 28.738281 13.675781L37.070312 4.5761719 A 1.0001 1.0001 0 0 0 37.166016 4.4511719C37.34677 4.1775221 37.643929 4 38 4 z M 37 23C37.525342 23 37.928235 23.382636 37.984375 23.894531 A 1.0001 1.0001 0 0 0 37.994141 23.957031L39.966797 35.193359 A 1.0001 1.0001 0 0 0 39.970703 35.210938C39.990459 35.313154 40 35.409171 40 35.5C40 36.340812 39.340812 37 38.5 37C37.750063 37 37.15136 36.46494 37.029297 35.757812 A 1.0001 1.0001 0 0 0 37.027344 35.75L35.841797 29.228516 A 1.0001 1.0001 0 0 0 34.482422 28.480469L25.625 32.074219 A 1.0001 1.0001 0 0 0 25.078125 32.615234L19.851562 45.134766C19.609924 45.647039 19.106 46 18.5 46C17.659188 46 17 45.340812 17 44.5C17 44.319698 17.03611 44.144007 17.105469 43.964844 A 1.0001 1.0001 0 0 0 17.123047 43.916016L21.949219 29.314453 A 1.0001 1.0001 0 0 0 21.996094 29.074219L30.324219 25.945312 A 1.0001 1.0001 0 0 0 30.351562 25.935547 A 1.0001 1.0001 0 0 0 30.414062 25.910156L30.443359 25.896484L36.529297 23.125 A 1.0001 1.0001 0 0 0 36.558594 23.111328C36.709675 23.036348 36.850833 23 37 23 z" />
</svg>