<?xml version="1.0" encoding="utf-8"?>
<svg xmlns="http://www.w3.org/2000/svg" viewBox="0 0 50 50" width="515" height="515">
  <path d="M19 1C18.476563 1 17.941406 1.183594 17.5625 1.5625C17.183594 1.941406 17 2.476563 17 3L9 3C7.355469 3 6 4.355469 6 6L6 44C6 45.644531 7.355469 47 9 47L41 47C42.644531 47 44 45.644531 44 44L44 6C44 4.355469 42.644531 3 41 3L33 3C33 2.476563 32.816406 1.941406 32.4375 1.5625C32.058594 1.183594 31.523438 1 31 1 Z M 19 3L31 3L31 9L19 9 Z M 9 5L17 5L17 7L10 7L10 43L40 43L40 7L33 7L33 5L41 5C41.554688 5 42 5.445313 42 6L42 44C42 44.554688 41.554688 45 41 45L9 45C8.445313 45 8 44.554688 8 44L8 6C8 5.445313 8.445313 5 9 5 Z M 12 9L17 9C17 9.523438 17.183594 10.058594 17.5625 10.4375C17.941406 10.816406 18.476563 11 19 11L31 11C31.523438 11 32.058594 10.816406 32.4375 10.4375C32.816406 10.058594 33 9.523438 33 9L38 9L38 41L12 41 Z M 16 19L16 21L34 21L34 19 Z M 16 25L16 27L34 27L34 25 Z M 16 31L16 33L34 33L34 31Z" />
</svg>