<?xml version="1.0" encoding="utf-8"?>
<svg xmlns="http://www.w3.org/2000/svg" viewBox="0 0 50 50" width="515" height="515">
  <path d="M10 0C6.699219 0 4 2.699219 4 6C4 9.300781 6.699219 12 10 12C13.300781 12 16 9.300781 16 6C16 2.699219 13.300781 0 10 0 Z M 40 0C36.699219 0 34 2.699219 34 6C34 9.300781 36.699219 12 40 12C43.300781 12 46 9.300781 46 6C46 2.699219 43.300781 0 40 0 Z M 10 2C12.222656 2 14 3.777344 14 6C14 8.222656 12.222656 10 10 10C7.777344 10 6 8.222656 6 6C6 3.777344 7.777344 2 10 2 Z M 40 2C42.222656 2 44 3.777344 44 6C44 8.222656 42.222656 10 40 10C37.777344 10 36 8.222656 36 6C36 3.777344 37.777344 2 40 2 Z M 6.09375 13C2.746094 13 0 15.746094 0 19.09375L0 32.8125C0 34.078125 1.042969 35 2.3125 35L4 35L4 47.6875C4 48.957031 5.042969 50 6.3125 50L13.8125 50C15.082031 50 16.09375 48.957031 16.09375 47.6875L16.09375 35L17.8125 35C19.082031 35 20.09375 33.957031 20.09375 32.6875L20.09375 29C20.097656 28.640625 19.910156 28.304688 19.597656 28.121094C19.285156 27.941406 18.902344 27.941406 18.589844 28.121094C18.277344 28.304688 18.089844 28.640625 18.09375 29L18.09375 32.6875C18.09375 32.816406 17.941406 33 17.8125 33L15.09375 33C14.542969 33 14.09375 33.449219 14.09375 34L14.09375 47.6875C14.09375 47.816406 13.941406 48 13.8125 48L6.3125 48C6.183594 48 6 47.816406 6 47.6875L6 34C6 33.449219 5.550781 33 5 33L2.3125 33C2.183594 33 2 32.746094 2 32.8125L2 19.09375C2 16.839844 3.839844 15 6.09375 15L13.90625 15C16.160156 15 18 16.839844 18 19.09375L18 21C17.996094 21.359375 18.183594 21.695313 18.496094 21.878906C18.808594 22.058594 19.191406 22.058594 19.503906 21.878906C19.816406 21.695313 20.003906 21.359375 20 21L20 19.09375C20 15.746094 17.253906 13 13.90625 13 Z M 36.09375 13C34.671875 13 33.347656 13.484375 32.28125 14.3125C31.945313 14.507813 31.75 14.882813 31.789063 15.269531C31.824219 15.660156 32.082031 15.992188 32.449219 16.121094C32.816406 16.25 33.226563 16.15625 33.5 15.875C34.234375 15.304688 35.117188 15 36.09375 15L44 15C46.253906 15 48.09375 16.839844 48.09375 19.09375L48.09375 32.6875C48.09375 32.816406 47.941406 33 47.8125 33L45.09375 33C44.542969 33 44.09375 33.449219 44.09375 34L44.09375 47.6875C44.09375 47.816406 43.941406 48 43.8125 48L36.3125 48C36.183594 48 36 47.816406 36 47.6875L36 34C36 33.449219 35.550781 33 35 33L32.3125 33C31.953125 32.996094 31.617188 33.183594 31.433594 33.496094C31.253906 33.808594 31.253906 34.191406 31.433594 34.503906C31.617188 34.816406 31.953125 35.003906 32.3125 35L34 35L34 47.6875C34 48.957031 35.042969 50 36.3125 50L43.8125 50C45.082031 50 46.09375 48.957031 46.09375 47.6875L46.09375 35L47.8125 35C49.082031 35 50.09375 33.957031 50.09375 32.6875L50.09375 19.09375C50.09375 15.746094 47.347656 13 44 13 Z M 27.90625 17.96875C27.863281 17.976563 27.820313 17.988281 27.78125 18C27.40625 18.066406 27.105469 18.339844 27 18.703125C26.894531 19.070313 27.003906 19.460938 27.28125 19.71875L31.5625 24L14 24C13.96875 24 13.9375 24 13.90625 24C13.355469 24.027344 12.925781 24.496094 12.953125 25.046875C12.980469 25.597656 13.449219 26.027344 14 26L31.5625 26L27.28125 30.28125C26.882813 30.679688 26.882813 31.320313 27.28125 31.71875C27.679688 32.117188 28.320313 32.117188 28.71875 31.71875L34.5625 25.84375C34.617188 25.808594 34.671875 25.765625 34.71875 25.71875L34.78125 25.625C34.804688 25.605469 34.824219 25.585938 34.84375 25.5625L35.40625 25L34.84375 24.4375C34.808594 24.382813 34.765625 24.328125 34.71875 24.28125L34.6875 24.28125C34.667969 24.257813 34.648438 24.238281 34.625 24.21875L28.71875 18.28125C28.511719 18.058594 28.210938 17.945313 27.90625 17.96875Z" />
</svg>