<?xml version="1.0" encoding="utf-8"?>
<svg xmlns="http://www.w3.org/2000/svg" viewBox="0 0 50 50" width="515" height="515">
  <path d="M35.34375 -0.09375C31.796875 -0.09375 28.78125 1.941406 27.21875 4.875C26.457031 4.425781 25.601563 4.125 24.65625 4.125C22.023438 4.125 19.917969 6.15625 19.65625 8.71875C18.882813 9.023438 18.171875 9.460938 17.5625 10C17.488281 9.992188 17.417969 9.992188 17.34375 10L7.6875 10C6.753906 10 6.027344 10.636719 5.84375 11.53125L5.8125 11.53125L5.8125 11.59375L0.125 35.34375C0.113281 35.375 0.101563 35.40625 0.09375 35.4375C0.0390625 35.617188 0 35.804688 0 36L0 48C0 49.09375 0.90625 50 2 50L48 50C49.09375 50 50 49.09375 50 48L50 36C50 35.746094 49.933594 35.503906 49.84375 35.28125L49.84375 35.21875C49.835938 35.199219 49.824219 35.175781 49.8125 35.15625L46.46875 21.3125C48.554688 20.253906 50 18.078125 50 15.59375C50 12.4375 47.640625 9.949219 44.625 9.4375C44.628906 9.351563 44.625 9.273438 44.625 9.1875C44.625 4.066406 40.464844 -0.09375 35.34375 -0.09375 Z M 35.34375 1.90625C39.382813 1.90625 42.625 5.148438 42.625 9.1875C42.625 9.480469 42.601563 9.78125 42.5625 10.09375L42.4375 11.21875L43.59375 11.21875C46.035156 11.21875 48 13.15625 48 15.59375C48 17.480469 46.820313 19.089844 45.15625 19.71875C45.125 19.726563 45.09375 19.738281 45.0625 19.75C44.601563 19.914063 44.109375 20 43.59375 20L22.15625 20C19.425781 20 17.25 17.820313 17.25 15.09375C17.25 12.824219 18.765625 10.917969 20.84375 10.34375L21.59375 10.125L21.5625 9.34375C21.558594 9.226563 21.5625 9.195313 21.5625 9.21875C21.5625 7.492188 22.929688 6.125 24.65625 6.125C25.519531 6.125 26.3125 6.46875 26.875 7.03125L27.96875 8.125L28.5 6.65625C29.527344 3.875 32.195313 1.90625 35.34375 1.90625 Z M 7.75 12L16 12C15.519531 12.925781 15.25 13.976563 15.25 15.09375C15.25 18.902344 18.347656 22 22.15625 22L43.59375 22C43.925781 22 44.246094 21.957031 44.5625 21.90625L47.46875 34L2.5 34 Z M 2 36L47.96875 36C47.976563 36.019531 47.988281 36.042969 48 36.0625L48 48L2 48 Z M 40 40C38.894531 40 38 40.894531 38 42C38 43.105469 38.894531 44 40 44C41.105469 44 42 43.105469 42 42C42 40.894531 41.105469 40 40 40Z" />
</svg>