<?xml version="1.0" encoding="utf-8"?>
<svg xmlns="http://www.w3.org/2000/svg" viewBox="0 0 50 50" width="515" height="515">
  <path d="M29 8C23.805395 8 19.6756 11.153526 17.623047 15.599609C16.274333 14.677074 14.625017 14 13 14C11.277778 14 9.5024818 14.583456 8.1679688 15.917969C6.9592545 17.126683 6.2490085 18.996489 6.109375 21.330078C2.4915446 22.704882 0 25.955442 0 30.199219C0 35.554774 4.4666667 40 10 40L41 40C46.48 40 50 35.854545 50 31C50 26.408551 46.457983 22.726989 42 22.203125L42 21C42 13.680392 36.217413 8 29 8 z M 29 10C35.182587 10 40 14.719608 40 21L40 23 A 1.0001 1.0001 0 0 0 41 24C44.854545 24 48 27.145455 48 31C48 34.945455 45.52 38 41 38L10 38C5.5333333 38 2 34.443663 2 30.199219C2 26.489463 4.0601214 23.944846 7.2929688 22.957031 A 1.0001 1.0001 0 0 0 8 22C8 19.7 8.6665444 18.247518 9.5820312 17.332031C10.497518 16.416544 11.722222 16 13 16C14.347059 16 16.471526 16.885588 17.292969 17.707031 A 1.0001 1.0001 0 0 0 18.939453 17.339844C20.515454 12.982666 24.223077 10 29 10 z M 26 20C21.570085 20 18 23.570085 18 28L20 28C20 24.629915 22.629915 22 26 22C27.686916 22 29.178438 22.69462 30.224609 23.775391L28 26L34 26L34 20L31.636719 22.363281C30.218559 20.911553 28.219819 20 26 20 z M 32 28C32 31.370085 29.370085 34 26 34C24.313084 34 22.821562 33.30538 21.775391 32.224609L24 30L18 30L18 36L20.363281 33.636719C21.781441 35.088447 23.780181 36 26 36C30.429915 36 34 32.429915 34 28L32 28 z" />
</svg>