<?xml version="1.0" encoding="utf-8"?>
<svg xmlns="http://www.w3.org/2000/svg" viewBox="0 0 50 50" width="515" height="515">
  <path d="M22.5 11C16.710938 11 12 15.710938 12 21.5C12 21.671875 12.023438 21.832031 12.03125 22C12.019531 22 12.011719 22 12 22C7.59375 22 4 25.59375 4 30C4 34.40625 7.59375 38 12 38L36 38C41.511719 38 46 33.511719 46 28C46 22.488281 41.511719 18 36 18C34.746094 18 33.574219 18.296875 32.46875 18.71875C31.230469 14.296875 27.308594 11 22.5 11 Z M 22.5 13C26.75 13 30.234375 16.097656 30.875 20.15625L31.09375 21.53125L32.34375 20.90625C33.449219 20.335938 34.675781 20 36 20C40.429688 20 44 23.570313 44 28C44 32.429688 40.429688 36 36 36L12 36C8.675781 36 6 33.324219 6 30C6 26.675781 8.675781 24 12 24C12.324219 24 12.632813 24.039063 12.96875 24.09375L14.375 24.3125L14.125 22.9375C14.042969 22.457031 14 21.976563 14 21.5C14 16.792969 17.792969 13 22.5 13Z" />
</svg>