<?xml version="1.0" encoding="utf-8"?>
<svg xmlns="http://www.w3.org/2000/svg" viewBox="0 0 50 50" width="515" height="515">
  <path d="M23.28125 1C22.878906 1 22.476563 1.050781 22.09375 1.125C21.328125 1.273438 20.597656 1.558594 19.96875 2C18.710938 2.886719 17.847656 4.324219 17.5 6.09375C17.183594 7.726563 17.457031 9.828125 17.96875 12.15625C18.253906 13.449219 18.71875 14.777344 19.125 16.125C18.03125 15.175781 16.96875 14.167969 15.875 13.34375C13.933594 11.882813 12.148438 10.710938 10.46875 10.34375C8.710938 9.960938 7.027344 10.210938 5.71875 11C4.410156 11.789063 3.515625 13.132813 3.15625 14.75C3.015625 15.386719 3.054688 15.988281 3.03125 16.8125C3.007813 17.636719 2.941406 18.578125 2.75 19.4375C2.570313 20.261719 2.257813 21.113281 1.9375 21.84375C1.617188 22.574219 1.296875 23.085938 1.15625 23.71875C0.800781 25.339844 1.082031 26.925781 1.9375 28.1875C2.792969 29.449219 4.210938 30.363281 5.96875 30.75C7.847656 31.15625 10.34375 30.828125 13.09375 30.25C14.609375 29.929688 16.089844 29.414063 17.625 28.96875C16.53125 30.046875 15.425781 31.039063 14.4375 32.15625C12.613281 34.210938 11.109375 36.1875 10.59375 38.03125C10.121094 39.714844 10.257813 41.34375 10.96875 42.65625C11.679688 43.96875 12.929688 44.914063 14.5 45.34375C15.128906 45.523438 15.722656 45.527344 16.53125 45.59375C17.339844 45.660156 18.261719 45.738281 19.09375 45.96875C19.894531 46.191406 20.707031 46.558594 21.40625 46.90625C22.105469 47.253906 22.609375 47.578125 23.21875 47.75C24.789063 48.179688 26.367188 48.011719 27.65625 47.25C28.945313 46.488281 29.929688 45.15625 30.40625 43.46875C30.949219 41.539063 30.613281 38.945313 30.0625 36.09375C29.910156 35.3125 29.722656 34.546875 29.53125 33.78125C31.933594 37.105469 34.585938 40.097656 37 42.53125C38.820313 44.367188 40.496094 45.875 41.84375 46.96875C42.515625 47.515625 43.128906 47.949219 43.625 48.28125C44.121094 48.613281 44.441406 48.84375 44.9375 48.96875C46.238281 49.296875 47.371094 48.589844 48.03125 47.75C48.363281 47.328125 48.632813 46.855469 48.75 46.34375C48.867188 45.832031 48.84375 45.230469 48.5 44.6875C48.386719 44.515625 48.222656 44.386719 48.03125 44.3125C42.292969 42.050781 36.910156 37.289063 33.125 33.40625C35.433594 34.773438 37.582031 35.824219 39.40625 36.03125C41.121094 36.222656 42.667969 35.855469 43.84375 34.96875C45.019531 34.082031 45.785156 32.707031 45.96875 31.125C46.039063 30.492188 45.902344 29.9375 45.84375 29.15625C45.785156 28.375 45.746094 27.457031 45.84375 26.625C45.933594 25.832031 46.175781 25.003906 46.40625 24.28125C46.636719 23.558594 46.863281 23.03125 46.9375 22.40625C47.117188 20.820313 46.726563 19.3125 45.78125 18.1875C44.835938 17.0625 43.375 16.351563 41.65625 16.15625C39.535156 15.917969 36.78125 16.761719 33.90625 17.84375C36.023438 15.09375 37.839844 12.351563 38.28125 10.09375C38.628906 8.324219 38.335938 6.664063 37.5 5.375C36.664063 4.085938 35.300781 3.191406 33.65625 2.875C33.007813 2.746094 32.402344 2.8125 31.5625 2.8125C30.722656 2.8125 29.757813 2.792969 28.875 2.625C28.03125 2.460938 27.1875 2.144531 26.4375 1.84375C25.6875 1.542969 25.144531 1.246094 24.5 1.125C24.085938 1.046875 23.683594 1 23.28125 1 Z M 23.25 3C23.527344 3.003906 23.824219 3.035156 24.125 3.09375C24.199219 3.109375 24.894531 3.367188 25.6875 3.6875C26.480469 4.007813 27.441406 4.359375 28.5 4.5625C29.589844 4.773438 30.679688 4.808594 31.5625 4.8125C32.445313 4.816406 33.242188 4.835938 33.28125 4.84375C34.46875 5.070313 35.316406 5.65625 35.84375 6.46875C36.371094 7.28125 36.578125 8.335938 36.3125 9.6875C36.3125 9.699219 36.3125 9.707031 36.3125 9.71875C35.90625 11.808594 33.296875 15.851563 30.25 19.34375C29.960938 19.691406 29.941406 20.191406 30.207031 20.5625C30.472656 20.929688 30.953125 21.070313 31.375 20.90625C35.394531 19.210938 39.515625 17.910156 41.4375 18.125C42.742188 18.273438 43.667969 18.777344 44.25 19.46875C44.824219 20.152344 45.085938 21.054688 44.96875 22.15625C44.96875 22.167969 44.96875 22.175781 44.96875 22.1875C44.953125 22.265625 44.773438 22.933594 44.53125 23.6875C44.285156 24.453125 43.988281 25.390625 43.875 26.40625C43.753906 27.453125 43.8125 28.449219 43.875 29.28125C43.9375 30.113281 43.972656 30.882813 43.96875 30.90625C43.839844 32.019531 43.378906 32.828125 42.65625 33.375C41.933594 33.921875 40.925781 34.207031 39.625 34.0625C38.460938 33.929688 36.332031 32.996094 34.125 31.6875C32 30.429688 29.726563 28.863281 27.8125 27.40625C27.792969 27.382813 27.773438 27.363281 27.75 27.34375C27.640625 27.21875 27.5 27.121094 27.34375 27.0625C27.3125 27.050781 27.28125 27.039063 27.25 27.03125C27.179688 27.011719 27.105469 27.003906 27.03125 27C27 27 26.96875 27 26.9375 27C26.875 27.003906 26.8125 27.015625 26.75 27.03125C26.71875 27.039063 26.6875 27.050781 26.65625 27.0625C26.625 27.070313 26.59375 27.082031 26.5625 27.09375C26.441406 27.15625 26.335938 27.238281 26.25 27.34375C26.226563 27.363281 26.207031 27.382813 26.1875 27.40625C26.164063 27.4375 26.144531 27.46875 26.125 27.5C26.085938 27.558594 26.054688 27.621094 26.03125 27.6875C26.015625 27.75 26.003906 27.8125 26 27.875C25.992188 27.9375 25.992188 28 26 28.0625C26 28.074219 26 28.082031 26 28.09375C26.003906 28.15625 26.015625 28.21875 26.03125 28.28125C26.046875 28.34375 26.066406 28.410156 26.09375 28.46875C26.796875 30.894531 27.609375 33.792969 28.125 36.46875C28.652344 39.207031 28.804688 41.742188 28.46875 42.9375C28.109375 44.21875 27.460938 45.054688 26.65625 45.53125C25.851563 46.007813 24.875 46.152344 23.75 45.84375C23.683594 45.824219 23.023438 45.492188 22.28125 45.125C21.539063 44.757813 20.632813 44.339844 19.625 44.0625C18.585938 43.773438 17.539063 43.664063 16.6875 43.59375C15.835938 43.523438 15.085938 43.445313 15.0625 43.4375C15.050781 43.4375 15.042969 43.4375 15.03125 43.4375C13.910156 43.128906 13.160156 42.53125 12.71875 41.71875C12.277344 40.90625 12.144531 39.839844 12.5 38.5625C12.824219 37.40625 14.160156 35.46875 15.90625 33.5C17.652344 31.53125 19.8125 29.453125 21.6875 27.71875C22.015625 27.394531 22.082031 26.890625 21.84375 26.496094C21.605469 26.101563 21.125 25.921875 20.6875 26.0625C18.222656 26.898438 15.324219 27.757813 12.6875 28.3125C10.050781 28.867188 7.613281 29.082031 6.375 28.8125C5.023438 28.515625 4.101563 27.886719 3.5625 27.09375C3.023438 26.300781 2.839844 25.316406 3.09375 24.15625C3.109375 24.089844 3.410156 23.398438 3.75 22.625C4.089844 21.851563 4.460938 20.914063 4.6875 19.875C4.925781 18.804688 5.007813 17.746094 5.03125 16.875C5.054688 16.003906 5.085938 15.226563 5.09375 15.1875C5.09375 15.175781 5.09375 15.167969 5.09375 15.15625C5.351563 14 5.925781 13.1875 6.75 12.6875C7.574219 12.1875 8.683594 12.019531 10.03125 12.3125C11.078125 12.539063 12.839844 13.542969 14.6875 14.9375C16.535156 16.332031 18.542969 18.066406 20.34375 19.71875C20.679688 19.996094 21.15625 20.027344 21.519531 19.789063C21.886719 19.554688 22.054688 19.105469 21.9375 18.6875C21.148438 16.425781 20.390625 13.933594 19.90625 11.71875C19.421875 9.503906 19.234375 7.507813 19.4375 6.46875C19.703125 5.113281 20.332031 4.183594 21.125 3.625C21.523438 3.34375 21.96875 3.160156 22.46875 3.0625C22.71875 3.015625 22.972656 2.996094 23.25 3 Z M 37.375 39.9375C40.246094 42.277344 43.347656 44.464844 46.78125 45.90625C46.742188 46.070313 46.632813 46.292969 46.46875 46.5C46.144531 46.914063 45.769531 47.117188 45.4375 47.03125C45.523438 47.054688 45.136719 46.90625 44.71875 46.625C44.300781 46.34375 43.765625 45.925781 43.125 45.40625C41.847656 44.367188 40.210938 42.914063 38.4375 41.125C38.097656 40.78125 37.722656 40.300781 37.375 39.9375Z" />
</svg>