<?xml version="1.0" encoding="utf-8"?>
<svg xmlns="http://www.w3.org/2000/svg" viewBox="0 0 50 50" width="515" height="515">
  <path d="M3.9003906 4C2.3003906 4 1 5.3003906 1 6.9003906L1 9L1 10L1 11L1 46L49 46L49 11L49 9L49 6.9003906C49 5.3003906 47.699609 4 46.099609 4L3.9003906 4 z M 3.9003906 6L46.099609 6C46.499609 6 47 6.5003906 47 6.9003906L47 9L3 9L3 6.9003906C3 6.5003906 3.5003906 6 3.9003906 6 z M 3 11L47 11L47 44L3 44L3 11 z M 28.777344 15.986328 A 1.0001 1.0001 0 0 0 27.873047 16.623047L19.273438 37.722656 A 1.0004864 1.0004864 0 1 0 21.126953 38.476562L29.726562 17.376953 A 1.0001 1.0001 0 0 0 28.777344 15.986328 z M 16.441406 21.693359 A 1.0001 1.0001 0 0 0 15.896484 21.835938L9.1972656 25.736328 A 1.0001 1.0001 0 0 0 9.2070312 27.470703L15.90625 31.269531 A 1.0001571 1.0001571 0 0 0 16.892578 29.529297L11.707031 26.589844L16.902344 23.564453 A 1.0001 1.0001 0 0 0 16.441406 21.693359 z M 33.529297 21.693359 A 1.0001 1.0001 0 0 0 33.097656 23.564453L38.292969 26.589844L33.107422 29.529297 A 1.0001571 1.0001571 0 0 0 34.09375 31.269531L40.792969 27.470703 A 1.0001 1.0001 0 0 0 40.802734 25.736328L34.103516 21.835938 A 1.0001 1.0001 0 0 0 33.628906 21.693359 A 1.0001 1.0001 0 0 0 33.529297 21.693359 z" />
</svg>