<?xml version="1.0" encoding="utf-8"?>
<svg xmlns="http://www.w3.org/2000/svg" viewBox="0 0 50 50" width="515" height="515">
  <path d="M29.984375 1.984375C29.9375 1.988281 29.886719 1.992188 29.839844 2L7 2L7 48L43 48L43 15.167969C43.019531 15.058594 43.019531 14.949219 43 14.84375L43 14.585938L42.808594 14.390625C42.753906 14.320313 42.6875 14.257813 42.617188 14.203125L30.792969 2.375C30.738281 2.304688 30.675781 2.242188 30.605469 2.1875L30.414063 2L30.15625 2C30.097656 1.992188 30.042969 1.984375 29.984375 1.984375 Z M 9 4L29 4L29 16L41 16L41 46L9 46 Z M 31 5.414063L39.585938 14L31 14 Z M 26 22L22 38L24 38L28 22 Z M 18.140625 24.484375L14.832031 30L18.140625 35.515625L19.859375 34.484375L17.167969 30L19.859375 25.515625 Z M 31.855469 24.484375L30.140625 25.515625L32.832031 30L30.140625 34.484375L31.859375 35.515625L35.167969 30Z" />
</svg>