<?xml version="1.0" encoding="utf-8"?>
<svg xmlns="http://www.w3.org/2000/svg" width="515" height="515" viewBox="0 0 50 50">
  <path d="M23.984375 0.98632812 A 1.0001 1.0001 0 0 0 23 2C23 5.0544662 21.832874 5.9652694 20.339844 7.3027344C18.846813 8.6401993 17.015625 10.409129 17.015625 14 A 1.0001 1.0001 0 1 0 19.015625 14C19.015625 11.015871 20.176812 10.135754 21.675781 8.7929688C23.174751 7.4501836 25 5.6495338 25 2 A 1.0001 1.0001 0 0 0 23.984375 0.98632812 z M 28.992188 5.9863281 A 1.0001 1.0001 0 0 0 28.007812 7C28.007812 8.9531111 27.337131 9.4168827 26.339844 10.304688C25.342557 11.192491 24 12.511859 24 15 A 1.0001 1.0001 0 1 0 26 15C26 13.124141 26.661256 12.695024 27.667969 11.798828C28.674682 10.902632 30.007812 9.5468889 30.007812 7 A 1.0001 1.0001 0 0 0 28.992188 5.9863281 z M 10 18 A 1.0001 1.0001 0 0 0 9.0546875 19.328125C9.5396584 20.722894 12.300668 29.113816 13.53125 47.302734C13.625569 48.701048 14.719181 50 16.251953 50L29.748047 50C31.280819 50 32.374431 48.701048 32.46875 47.302734C32.678047 44.209165 32.939638 41.499482 33.21875 38.958984C35.94903 38.693608 38.526051 38.134924 40.535156 36.945312C42.571027 35.739854 43.996094 33.736216 43.996094 31.076172C43.996094 29.467766 43.493435 27.867252 42.228516 26.734375C40.963596 25.601498 39.060096 25 36.46875 25L35.423828 25C36.140518 21.788975 36.743309 19.909084 36.945312 19.328125 A 1.0001 1.0001 0 0 0 36 18L10 18 z M 11.283203 20L34.716797 20C33.905566 22.503493 31.610252 30.353456 30.472656 47.167969C30.440975 47.637655 30.113274 48 29.748047 48L16.251953 48C15.886726 48 15.559025 47.637655 15.527344 47.167969C14.389748 30.353456 12.094434 22.503493 11.283203 20 z M 34.990234 27L36.46875 27C38.752404 27 40.114201 27.523783 40.894531 28.222656C41.674862 28.92153 41.996094 29.857578 41.996094 31.076172C41.996094 33.079128 41.125457 34.272569 39.517578 35.224609C38.021327 36.110555 35.85081 36.642504 33.453125 36.912109C33.940178 32.916 34.476594 29.578118 34.990234 27 z" />
</svg>