<?xml version="1.0" encoding="utf-8"?>
<svg xmlns="http://www.w3.org/2000/svg" viewBox="0 0 50 50" width="515" height="515">
  <path d="M24.90625 -0.03125C24.863281 -0.0234375 24.820313 -0.0117188 24.78125 0C24.316406 0.105469 23.988281 0.523438 24 1L24 15.5625L18.71875 10.28125C18.476563 10.03125 18.121094 9.925781 17.78125 10C17.40625 10.066406 17.105469 10.339844 17 10.703125C16.894531 11.070313 17.003906 11.460938 17.28125 11.71875L24.15625 18.5625C24.230469 18.675781 24.324219 18.769531 24.4375 18.84375L25 19.40625L25.5625 18.84375C25.644531 18.78125 25.71875 18.707031 25.78125 18.625L32.71875 11.71875C33.117188 11.320313 33.117188 10.679688 32.71875 10.28125C32.320313 9.882813 31.679688 9.882813 31.28125 10.28125L26 15.5625L26 1C26.011719 0.710938 25.894531 0.433594 25.6875 0.238281C25.476563 0.0390625 25.191406 -0.0585938 24.90625 -0.03125 Z M 10.90625 16.96875C10.863281 16.976563 10.820313 16.988281 10.78125 17C10.40625 17.066406 10.105469 17.339844 10 17.703125C9.894531 18.070313 10.003906 18.460938 10.28125 18.71875L15.5625 24L1 24C0.96875 24 0.9375 24 0.90625 24C0.875 24 0.84375 24 0.8125 24C0.261719 24.050781 -0.144531 24.542969 -0.09375 25.09375C-0.0429688 25.644531 0.449219 26.050781 1 26L15.5625 26L10.28125 31.28125C9.882813 31.679688 9.882813 32.320313 10.28125 32.71875C10.679688 33.117188 11.320313 33.117188 11.71875 32.71875L18.5625 25.84375C18.617188 25.808594 18.671875 25.765625 18.71875 25.71875L18.78125 25.625C18.804688 25.605469 18.824219 25.585938 18.84375 25.5625L19.40625 25L18.84375 24.4375C18.808594 24.382813 18.765625 24.328125 18.71875 24.28125L18.6875 24.28125C18.667969 24.257813 18.648438 24.238281 18.625 24.21875L11.71875 17.28125C11.511719 17.058594 11.210938 16.945313 10.90625 16.96875 Z M 38.875 17C38.652344 17.023438 38.441406 17.125 38.28125 17.28125L31.53125 24.0625C31.273438 24.164063 31.070313 24.367188 30.96875 24.625L30.59375 25L31 25.4375C31.097656 25.640625 31.265625 25.808594 31.46875 25.90625L38.28125 32.71875C38.679688 33.117188 39.320313 33.117188 39.71875 32.71875C40.117188 32.320313 40.117188 31.679688 39.71875 31.28125L34.4375 26L49 26C49.359375 26.003906 49.695313 25.816406 49.878906 25.503906C50.058594 25.191406 50.058594 24.808594 49.878906 24.496094C49.695313 24.183594 49.359375 23.996094 49 24L34.4375 24L39.71875 18.71875C40.042969 18.417969 40.128906 17.941406 39.933594 17.546875C39.742188 17.148438 39.308594 16.929688 38.875 17 Z M 25 23C23.894531 23 23 23.894531 23 25C23 26.105469 23.894531 27 25 27C26.105469 27 27 26.105469 27 25C27 23.894531 26.105469 23 25 23 Z M 25 30.59375L24.5 31.09375L24.40625 31.15625C24.304688 31.234375 24.222656 31.328125 24.15625 31.4375L17.28125 38.28125C16.882813 38.679688 16.882813 39.320313 17.28125 39.71875C17.679688 40.117188 18.320313 40.117188 18.71875 39.71875L24 34.4375L24 49C23.996094 49.359375 24.183594 49.695313 24.496094 49.878906C24.808594 50.058594 25.191406 50.058594 25.503906 49.878906C25.816406 49.695313 26.003906 49.359375 26 49L26 34.4375L31.28125 39.71875C31.679688 40.117188 32.320313 40.117188 32.71875 39.71875C33.117188 39.320313 33.117188 38.679688 32.71875 38.28125L25.84375 31.4375C25.78125 31.355469 25.707031 31.28125 25.625 31.21875Z" />
</svg>