<?xml version="1.0" encoding="utf-8"?>
<svg xmlns="http://www.w3.org/2000/svg" viewBox="0 0 50 50" width="515" height="515">
  <path d="M18 2C10.353979 2 7 7.0983298 7 11.148438C7 14.247127 8.6483639 16.570259 10.810547 17.980469C12.97273 19.390678 15.630613 20 18 20C19.022146 20 20.095543 19.871965 21.160156 19.621094C23.441348 22.027858 26.977244 23 30 23C32.378512 23 35.040865 22.355891 37.201172 20.904297C39.361478 19.452703 41 17.0895 41 13.960938C41 11.472899 39.891773 9.1768562 37.955078 7.5625C36.018383 5.9481438 33.279889 5 30 5C28.821389 5 27.747107 5.1225893 26.763672 5.3378906C26.511393 5.0667139 26.245582 4.8046534 25.955078 4.5625C24.018383 2.9481438 21.279889 2 18 2 z M 18 4C20.895111 4 23.156226 4.8329656 24.675781 6.0996094C24.949718 6.3279528 25.192977 6.5736424 25.419922 6.828125C25.419922 6.828125 25.421875 6.8300781 25.421875 6.8300781 A 1.0001 1.0001 0 0 0 25.798828 7.2949219C26.58343 8.3578356 27 9.6014352 27 10.960938C27 13.419372 25.829631 15.072485 24.085938 16.244141C22.342244 17.415796 20.005488 18 18 18C15.985387 18 13.644161 17.442681 11.902344 16.306641C10.160527 15.1706 9 13.568745 9 11.148438C9 8.1505432 11.208021 4 18 4 z M 30 7C32.895111 7 35.156226 7.8329656 36.675781 9.0996094C38.195336 10.366253 39 12.052974 39 13.960938C39 16.419373 37.829631 18.072485 36.085938 19.244141C34.342244 20.415796 32.005488 21 30 21C27.763466 21 25.171186 20.284752 23.371094 18.894531C24.006668 18.618446 24.622533 18.293107 25.201172 17.904297C27.361478 16.452703 29 14.089499 29 10.960938C29 9.6005199 28.65794 8.3022832 28.041016 7.1367188C28.646764 7.0506244 29.29539 7 30 7 z M 5.5 18C3.686936 18 2 19.21988 2 21C2 22.78012 3.686936 24 5.5 24C7.313064 24 9 22.78012 9 21C9 19.21988 7.313064 18 5.5 18 z M 44.5 18C42.686936 18 41 19.21988 41 21C41 22.78012 42.686936 24 44.5 24C46.313064 24 48 22.78012 48 21C48 19.21988 46.313064 18 44.5 18 z M 5.5 20C6.4483598 20 7 20.570981 7 21C7 21.429019 6.4483598 22 5.5 22C4.5516402 22 4 21.429019 4 21C4 20.570981 4.5516402 20 5.5 20 z M 44.5 20C45.44836 20 46 20.570981 46 21C46 21.429019 45.44836 22 44.5 22C43.55164 22 43 21.429019 43 21C43 20.570981 43.55164 20 44.5 20 z M 13.556641 24C11.29041 24 9.6074543 24.83619 8.5839844 26.128906C7.5605145 27.421622 7.1674053 29.041819 6.9726562 30.628906C6.7779074 32.215993 6.7885277 33.806488 6.7207031 35.072266C6.6528781 36.338044 6.3624879 37.223449 6.2929688 37.292969 A 1.0001 1.0001 0 0 0 6 38C6 38.554129 6.325531 39.040868 6.6699219 39.324219C7.0143127 39.60757 7.3963556 39.77831 7.8222656 39.923828C8.3102681 40.090561 8.9827887 40.153238 9.5878906 40.251953C9.4017544 40.416495 9.3358119 40.566612 8.9433594 40.748047C8.2559067 41.065864 7.3140546 41.366224 6.3417969 41.761719C5.3695392 42.157213 4.3493592 42.653248 3.5136719 43.474609C2.6779845 44.295971 2.0757233 45.473815 2.0019531 46.949219 A 1.0001 1.0001 0 0 0 3 48L24 48L27 48L47 48 A 1.0001 1.0001 0 0 0 47.998047 46.939453C47.90594 45.440788 47.249604 44.24598 46.365234 43.416016C45.480865 42.586051 44.409447 42.076937 43.382812 41.662109C42.356178 41.247282 41.359594 40.924227 40.630859 40.582031C39.942762 40.258917 39.62407 39.95558 39.5 39.697266L39.5 38.150391C39.54144 38.099101 39.619942 38.058201 39.662109 38.003906C39.845459 37.767837 40.016496 37.497644 40.177734 37.195312C40.41148 36.757027 40.547764 36.21534 40.679688 35.683594C40.908974 35.595034 41.128486 35.629324 41.332031 35.425781C41.786484 34.971329 42 34.291667 42 33.5C42 32.862561 41.822707 32.370475 41.599609 32.013672C41.647809 31.841507 41.661879 31.815177 41.722656 31.564453C41.855285 31.01736 42 30.377976 42 29.75C42 28.693857 41.72873 27.557239 41.021484 26.617188C40.431158 25.832542 39.4408 25.327897 38.283203 25.150391L37.890625 24.490234 A 1.0001 1.0001 0 0 0 37.03125 24C34.8655 24 33.110256 24.542196 31.875 25.576172C30.639744 26.610148 30 28.128576 30 29.75C30 30.377976 30.144715 31.01736 30.277344 31.564453C30.338124 31.815177 30.352184 31.841507 30.400391 32.013672C30.177293 32.370475 30 32.862561 30 33.5C30 34.291667 30.213516 34.971329 30.667969 35.425781C30.871514 35.629326 31.091026 35.595035 31.320312 35.683594C31.451964 36.215509 31.586507 36.756912 31.820312 37.195312C31.98161 37.497755 32.15428 37.769668 32.337891 38.005859C32.380111 38.060169 32.458474 38.101029 32.5 38.152344L32.5 39.703125C32.362047 40.001082 32.077471 40.289889 31.482422 40.605469C30.848625 40.941598 29.978083 41.262268 29.072266 41.681641C28.166448 42.101013 27.20946 42.626002 26.429688 43.464844C25.649914 44.303685 25.092043 45.473609 25.001953 46.939453 A 1.0001 1.0001 0 0 0 25 47L24.998047 47 A 1.0001 1.0001 0 0 0 24.998047 46.949219C24.924277 45.473815 24.322015 44.295971 23.486328 43.474609C22.650641 42.653248 21.630461 42.157213 20.658203 41.761719C19.685945 41.366224 18.744093 41.065864 18.056641 40.748047C17.641376 40.556065 17.56054 40.395239 17.375 40.222656C18.019375 40.100708 18.740721 40.01684 19.232422 39.828125C19.647895 39.668666 20.006153 39.49311 20.322266 39.244141C20.638378 38.995172 21 38.610479 21 38 A 1.0001 1.0001 0 0 0 20.707031 37.292969C20.586365 37.172302 20.295754 36.356456 20.201172 35.199219C20.10659 34.041982 20.102504 32.597902 19.980469 31.166016C19.858433 29.73413 19.639234 28.300165 18.953125 27.097656C18.355278 26.049839 17.21717 25.346601 15.824219 25.154297C15.537932 24.764946 14.885701 24 13.556641 24 z M 3.5 26 A 1.5 1.5 0 0 0 2 27.5 A 1.5 1.5 0 0 0 3.5 29 A 1.5 1.5 0 0 0 5 27.5 A 1.5 1.5 0 0 0 3.5 26 z M 13.556641 26C14.002005 26 14.402344 26.529297 14.402344 26.529297 A 1.0001 1.0001 0 0 0 15.25 27C16.359954 27 16.795484 27.354853 17.214844 28.089844C17.634203 28.824835 17.875942 30.01587 17.988281 31.333984C18.100621 32.652098 18.104348 34.083018 18.208984 35.363281C18.282924 36.267981 18.458582 37.079197 18.804688 37.814453C18.707317 37.866143 18.664688 37.903723 18.515625 37.960938C17.929821 38.185769 16.999743 38.400791 15.90625 38.503906 A 1.0001 1.0001 0 0 0 15 39.5L15 40.25 A 1.0001 1.0001 0 0 0 15.072266 40.621094C15.472743 41.622287 16.349562 42.16352 17.216797 42.564453C18.084032 42.965386 19.032805 43.258776 19.904297 43.613281C20.775789 43.967787 21.552484 44.378002 22.083984 44.900391C22.394493 45.205581 22.610747 45.572 22.769531 46L4.2304688 46C4.3892533 45.572 4.6055026 45.205581 4.9160156 44.900391C5.4475158 44.378002 6.2242108 43.967787 7.0957031 43.613281C7.9671954 43.258776 8.9159683 42.965386 9.7832031 42.564453C10.650438 42.16352 11.527257 41.622287 11.927734 40.621094 A 1.0001 1.0001 0 0 0 12 40.25L12 39.5 A 1.0001 1.0001 0 0 0 11.095703 38.503906C9.9983632 38.39793 9.0474299 38.228964 8.46875 38.03125C8.2872131 37.969225 8.2299337 37.924486 8.1367188 37.873047C8.5197543 37.075165 8.6648487 36.183668 8.71875 35.177734C8.791582 33.818512 8.7836552 32.284007 8.9570312 30.871094C9.1304074 29.458181 9.4934069 28.203378 10.152344 27.371094C10.81128 26.53881 11.739371 26 13.556641 26 z M 46.5 26 A 1.5 1.5 0 0 0 45 27.5 A 1.5 1.5 0 0 0 46.5 29 A 1.5 1.5 0 0 0 48 27.5 A 1.5 1.5 0 0 0 46.5 26 z M 36.503906 26.070312L36.765625 26.509766 A 1.0001 1.0001 0 0 0 37.625 27C38.561972 27 39.047621 27.322864 39.421875 27.820312C39.796129 28.317761 40 29.056143 40 29.75C40 29.997024 39.894715 30.60764 39.777344 31.091797C39.659972 31.575954 39.544922 31.955078 39.544922 31.955078 A 1.0001 1.0001 0 0 0 39.919922 33.0625C39.932977 33.081805 40 33.172583 40 33.5C40 33.958333 39.901019 34.028671 39.917969 34.011719C39.93492 33.994766 39.958333 34 39.875 34 A 1.0001 1.0001 0 0 0 38.880859 34.890625C38.839279 35.268471 38.643836 35.823069 38.414062 36.253906C38.299177 36.469325 38.175713 36.656725 38.082031 36.777344C37.988351 36.897962 37.874116 36.946039 38.042969 36.859375 A 1.0001 1.0001 0 0 0 37.5 37.75L37.5 40 A 1.0001 1.0001 0 0 0 37.566406 40.355469C37.96323 41.396284 38.86925 41.965243 39.779297 42.392578C40.689344 42.819914 41.697823 43.137828 42.632812 43.515625C43.567803 43.893422 44.413432 44.328183 44.996094 44.875C45.335751 45.193762 45.572697 45.567242 45.746094 46L27.423828 46C27.579409 45.61548 27.631922 45.108674 27.894531 44.826172C28.394446 44.288389 29.106177 43.869221 29.912109 43.496094C30.718042 43.122966 31.602531 42.80459 32.419922 42.371094C33.237312 41.937598 34.056982 41.344641 34.433594 40.355469 A 1.0001 1.0001 0 0 0 34.5 40L34.5 37.75 A 1.0001 1.0001 0 0 0 33.955078 36.859375C34.123724 36.945725 34.009686 36.897844 33.916016 36.777344C33.822346 36.656848 33.700764 36.469214 33.585938 36.253906C33.356282 35.823291 33.160346 35.268068 33.119141 34.890625 A 1.0001 1.0001 0 0 0 32.125 34C32.04167 34 32.065081 33.994799 32.082031 34.011719C32.098985 34.02867 32 33.958333 32 33.5C32 33.172583 32.067018 33.081805 32.080078 33.0625 A 1.0001 1.0001 0 0 0 32.455078 31.955078C32.455078 31.955078 32.340028 31.575954 32.222656 31.091797C32.105283 30.60764 32 29.997024 32 29.75C32 28.621424 32.377459 27.764852 33.158203 27.111328C33.850597 26.531757 34.992816 26.159087 36.503906 26.070312 z" />
</svg>