<?xml version="1.0" encoding="utf-8"?>
<svg xmlns="http://www.w3.org/2000/svg" viewBox="0 0 50 50" width="515" height="515">
  <path d="M4.9902344 3.9902344 A 1.0001 1.0001 0 0 0 4.2929688 5.7070312L18.585938 20L9 20 A 1.0001 1.0001 0 1 0 9 22L22 22L22 9 A 1.0001 1.0001 0 0 0 20.984375 7.9863281 A 1.0001 1.0001 0 0 0 20 9L20 18.585938L5.7070312 4.2929688 A 1.0001 1.0001 0 0 0 4.9902344 3.9902344 z M 44.980469 3.9902344 A 1.0001 1.0001 0 0 0 44.292969 4.2929688L30 18.585938L30 9 A 1.0001 1.0001 0 0 0 28.984375 7.9863281 A 1.0001 1.0001 0 0 0 28 9L28 22L41 22 A 1.0001 1.0001 0 1 0 41 20L31.414062 20L45.707031 5.7070312 A 1.0001 1.0001 0 0 0 44.980469 3.9902344 z M 9 28 A 1.0001 1.0001 0 1 0 9 30L18.585938 30L4.2929688 44.292969 A 1.0001 1.0001 0 1 0 5.7070312 45.707031L20 31.414062L20 41 A 1.0001 1.0001 0 1 0 22 41L22 28L9 28 z M 28 28L28 41 A 1.0001 1.0001 0 1 0 30 41L30 31.414062L42.292969 43.707031L44.292969 45.707031 A 1.0001 1.0001 0 0 0 45.109375 46.009766 A 1.0001 1.0001 0 0 0 45.207031 45.996094 A 1.0001 1.0001 0 0 0 45.707031 44.292969L43.763672 42.351562 A 1.0001 1.0001 0 0 0 43.707031 42.292969L31.414062 30L41 30 A 1.0001 1.0001 0 1 0 41 28L28 28 z" />
</svg>