<?xml version="1.0" encoding="utf-8"?>
<svg xmlns="http://www.w3.org/2000/svg" viewBox="0 0 50 50" width="515" height="515">
  <path d="M24.984375 3.9863281 A 1.0001 1.0001 0 0 0 24.839844 4L9 4C6.2504839 4 4 6.2504839 4 9L4 30.832031 A 1.0001 1.0001 0 0 0 4 31.158203L4 41C4 43.749516 6.2504839 46 9 46L24.832031 46 A 1.0001 1.0001 0 0 0 25.158203 46L41 46C43.749516 46 46 43.749516 46 41L46 19.167969 A 1.0001 1.0001 0 0 0 46 18.841797L46 9C46 6.2504839 43.749516 4 41 4L25.154297 4 A 1.0001 1.0001 0 0 0 24.984375 3.9863281 z M 9 6L24 6L24 18.832031 A 1.0001 1.0001 0 0 0 24 19.158203L24 30L6 30L6 9C6 7.3315161 7.3315161 6 9 6 z M 26 6L41 6C42.668484 6 44 7.3315161 44 9L44 18L26 18L26 6 z M 26 20L44 20L44 41C44 42.668484 42.668484 44 41 44L26 44L26 31.167969 A 1.0001 1.0001 0 0 0 26 30.841797L26 20 z M 6 32L24 32L24 44L9 44C7.3315161 44 6 42.668484 6 41L6 32 z" />
</svg>