<?xml version="1.0" encoding="utf-8"?>
<svg xmlns="http://www.w3.org/2000/svg" viewBox="0 0 50 50" width="515" height="515">
  <path d="M18.40625 5C10.632813 5 6.023438 7.023438 3.375 9.15625C2.050781 10.222656 1.214844 11.324219 0.71875 12.15625C0.222656 12.988281 0.03125 13.625 0.03125 13.625C0.0078125 13.71875 -0.00390625 13.8125 0 13.90625L0 44C0 44.550781 0.449219 45 1 45L49 45C49.550781 45 50 44.550781 50 44L50 27.5C50 27.46875 50 27.4375 50 27.40625C50 27.40625 49.757813 24.789063 47.40625 22.34375C45.101563 19.945313 40.753906 17.710938 33 17.625L30.96875 15.84375C30.894531 15.78125 30.808594 15.726563 30.71875 15.6875C30.71875 15.6875 28.261719 14.59375 25.8125 14.34375C25.804688 14.320313 25.789063 14.304688 25.78125 14.28125C25.667969 13.949219 25.539063 13.558594 25.34375 13.09375C24.953125 12.164063 24.375 10.992188 23.71875 9.84375C23.0625 8.695313 22.320313 7.558594 21.46875 6.65625C20.617188 5.753906 19.640625 5 18.40625 5 Z M 18.40625 7C18.722656 7 19.324219 7.316406 20 8.03125C20.675781 8.746094 21.394531 9.78125 22 10.84375C22.253906 11.289063 22.472656 11.722656 22.6875 12.15625C22.261719 12.691406 22 13.339844 22 14.1875L22 18.09375L25 18.09375C26 17.992188 27 18 28 18L28 16.78125C28.988281 17.101563 29.757813 17.445313 29.8125 17.46875L31.9375 19.34375C32.117188 19.503906 32.351563 19.59375 32.59375 19.59375C40.253906 19.59375 44.042969 21.746094 45.96875 23.75C47.894531 25.753906 48 27.59375 48 27.59375L48 43L46 43L46 40.59375C46 38.992188 44.898438 37.914063 43.5 37.8125C42.101563 37.710938 41 38.585938 41 40.1875L41 43L38 43L38 40C38 38.101563 36.699219 36.886719 35 36.6875C33.300781 36.488281 32 37.601563 32 39.5L32 43L28 43L28 39.09375C28 37.09375 26.699219 36 25 36C23.300781 36 22 37.195313 22 39.09375L22 43L18 43L18 39.40625C18 37.507813 16.699219 36.492188 15 36.59375C13.300781 36.695313 12 38.007813 12 39.90625L12 43L9 43L9 40.3125C9 38.710938 7.898438 37.804688 6.5 37.90625C5.101563 38.007813 4 39.085938 4 40.6875L4 43L2 43L2 14.09375C2.011719 14.054688 2.074219 13.796875 2.4375 13.1875C2.828125 12.535156 3.5 11.625 4.625 10.71875C6.878906 8.902344 10.980469 7 18.40625 7 Z M 15 12.09375C13.300781 12.292969 12 13.507813 12 15.40625L12 18.90625C13.898438 18.605469 15.898438 18.386719 18 18.1875L18 14.90625C18 13.007813 16.699219 11.894531 15 12.09375 Z M 6.5 13.90625C5.101563 14.007813 4 15.085938 4 16.6875L4 20.8125C5.398438 20.210938 7.101563 19.804688 9 19.40625L9 16.3125C9 14.710938 7.898438 13.804688 6.5 13.90625 Z M 25 23.90625C23.300781 23.90625 22 25 22 27L22 31L28 31L28 27C28 25.101563 26.699219 23.90625 25 23.90625 Z M 15 24.59375C13.300781 24.792969 12 26.007813 12 27.90625L12 31.5C13.898438 31.398438 15.898438 31.195313 18 31.09375L18 27.40625C18 25.507813 16.699219 24.394531 15 24.59375 Z M 35 24.59375C33.300781 24.492188 32 25.507813 32 27.40625L32 31.09375C34.101563 31.195313 36.101563 31.398438 38 31.5L38 27.90625C38 26.007813 36.699219 24.695313 35 24.59375 Z M 6.5 25.90625C5.101563 26.007813 4 27.085938 4 28.6875L4 32.5L4.40625 32.5C5.707031 32.300781 7.199219 32.011719 9 31.8125L9 28.3125C9 26.710938 7.898438 25.804688 6.5 25.90625 Z M 43 25.90625C41.851563 26.015625 41 26.824219 41 28.3125L41 31.8125C42.800781 32.011719 44.292969 32.300781 45.59375 32.5L46 32.5L46 28.6875C46 27.085938 44.898438 26.007813 43.5 25.90625C43.324219 25.894531 43.164063 25.890625 43 25.90625Z" />
</svg>