<?xml version="1.0" encoding="utf-8"?>
<svg xmlns="http://www.w3.org/2000/svg" viewBox="0 0 50 50" width="515" height="515">
  <path d="M10.394531 5C8.535156 5 7 6.523438 7 8.382813L7 9L5 9C3.355469 9 2 10.355469 2 12L2 35.109375C2 36.753906 3.355469 38.109375 5 38.109375L5.101563 38.109375L41.304688 43.988281L41.3125 43.988281C42.226563 44.125 43.011719 43.753906 43.652344 43.265625C44.292969 42.773438 44.84375 42.136719 44.984375 41.25L44.996094 41.207031L45.238281 38.082031C46.773438 37.957031 48 36.671875 48 35.109375L48 12C48 10.355469 46.644531 9 45 9L14 9L14 8.382813C14 6.414063 12.253906 5 10.394531 5 Z M 10.394531 7C11.179688 7 12 7.714844 12 8.382813L12 9L9 9L9 8.382813C9 7.609375 9.609375 7 10.394531 7 Z M 5 11L7 11L7 17.308594C7 18.839844 8.269531 20.09375 9.796875 20.09375L10 20.09375C10.765625 20.09375 11.46875 19.804688 12.023438 19.328125C12.578125 18.851563 13 18.144531 13 17.308594L13 13C13.003906 12.640625 12.816406 12.304688 12.503906 12.121094C12.191406 11.941406 11.808594 11.941406 11.496094 12.121094C11.183594 12.304688 10.996094 12.640625 11 13L11 17.308594C11 17.460938 10.917969 17.640625 10.71875 17.8125C10.523438 17.984375 10.226563 18.09375 10 18.09375L9.796875 18.09375C9.34375 18.09375 9 17.75 9 17.308594L9 11L45 11C45.566406 11 46 11.433594 46 12L46 35.109375C46 35.671875 45.566406 36.109375 45 36.109375L5 36.109375C4.433594 36.109375 4 35.671875 4 35.109375L4 12C4 11.433594 4.433594 11 5 11 Z M 21 17C20.640625 16.996094 20.304688 17.183594 20.121094 17.496094C19.941406 17.808594 19.941406 18.191406 20.121094 18.503906C20.304688 18.816406 20.640625 19.003906 21 19L39 19C39.359375 19.003906 39.695313 18.816406 39.878906 18.503906C40.058594 18.191406 40.058594 17.808594 39.878906 17.496094C39.695313 17.183594 39.359375 16.996094 39 17 Z M 21 22C20.640625 21.996094 20.304688 22.183594 20.121094 22.496094C19.941406 22.808594 19.941406 23.191406 20.121094 23.503906C20.304688 23.816406 20.640625 24.003906 21 24L39 24C39.359375 24.003906 39.695313 23.816406 39.878906 23.503906C40.058594 23.191406 40.058594 22.808594 39.878906 22.496094C39.695313 22.183594 39.359375 21.996094 39 22 Z M 21 27C20.640625 26.996094 20.304688 27.183594 20.121094 27.496094C19.941406 27.808594 19.941406 28.191406 20.121094 28.503906C20.304688 28.816406 20.640625 29.003906 21 29L39 29C39.359375 29.003906 39.695313 28.816406 39.878906 28.503906C40.058594 28.191406 40.058594 27.808594 39.878906 27.496094C39.695313 27.183594 39.359375 26.996094 39 27 Z M 17.578125 38.109375L43.230469 38.109375L43.011719 40.933594C42.992188 41.03125 42.777344 41.417969 42.4375 41.671875C42.101563 41.933594 41.691406 42.023438 41.609375 42.011719Z" />
</svg>