<?xml version="1.0" encoding="utf-8"?>
<svg xmlns="http://www.w3.org/2000/svg" viewBox="0 0 50 50" width="515" height="515">
  <path d="M25.03125 2C17.125 2 12.179688 3.765625 9.1875 5.59375C7.691406 6.507813 6.695313 7.441406 6.0625 8.15625C5.429688 8.871094 5.125 9.4375 5.125 9.4375L5 9.65625L5 9.90625C5 27.175781 9.820313 36.984375 14.75 42.4375C19.679688 47.890625 24.8125 48.96875 24.8125 48.96875L25 49L25.21875 48.96875C25.21875 48.96875 30.324219 47.824219 35.25 42.34375C40.175781 36.863281 45 27.054688 45 9.90625L45 9.65625L44.875 9.46875C44.875 9.46875 44.59375 8.875 43.96875 8.15625C43.34375 7.4375 42.363281 6.507813 40.875 5.59375C37.902344 3.761719 32.9375 2 25.03125 2 Z M 25.03125 4C32.644531 4 37.1875 5.664063 39.8125 7.28125C41.125 8.089844 41.964844 8.894531 42.46875 9.46875C42.859375 9.917969 42.914063 10.054688 42.96875 10.15625C42.917969 26.757813 38.296875 35.9375 33.75 41C29.335938 45.910156 25.261719 46.871094 24.96875 46.9375C24.636719 46.863281 20.636719 45.945313 16.25 41.09375C11.703125 36.066406 7.082031 26.878906 7.03125 10.15625C7.089844 10.054688 7.132813 9.917969 7.53125 9.46875C8.042969 8.890625 8.894531 8.089844 10.21875 7.28125C12.867188 5.664063 17.417969 4 25.03125 4 Z M 18 16C15.125 16 12 20 12 20C12 20 14.589844 20.140625 17.375 19.84375C20.160156 19.546875 23 19 23 19C23 19 20.378906 16 18 16 Z M 32 16C29.621094 16 27 19 27 19C27 19 29.839844 19.546875 32.625 19.84375C35.410156 20.140625 38 20 38 20C38 20 34.875 16 32 16 Z M 14.8125 26C14.53125 26.050781 14.28125 26.21875 14.132813 26.464844C13.984375 26.710938 13.945313 27.007813 14.03125 27.28125C14.03125 27.28125 14.847656 30.117188 16.5625 33C18.277344 35.882813 21.011719 39 25 39C28.988281 39 31.722656 35.882813 33.4375 33C35.152344 30.117188 35.96875 27.28125 35.96875 27.28125C36.070313 26.925781 35.964844 26.542969 35.695313 26.285156C35.425781 26.03125 35.039063 25.945313 34.6875 26.0625C34.6875 26.0625 28.34375 28 25 28C21.65625 28 15.3125 26.0625 15.3125 26.0625C15.183594 26.015625 15.042969 25.992188 14.90625 26C14.875 26 14.84375 26 14.8125 26 Z M 16.59375 28.46875C18.582031 29.054688 22.003906 30 25 30C27.996094 30 31.417969 29.054688 33.40625 28.46875C33.023438 29.445313 32.476563 30.726563 31.71875 32C30.160156 34.617188 27.925781 37 25 37C22.074219 37 19.839844 34.617188 18.28125 32C17.523438 30.726563 16.976563 29.445313 16.59375 28.46875Z" />
</svg>