<?xml version="1.0" encoding="utf-8"?>
<svg xmlns="http://www.w3.org/2000/svg" width="515" height="515" viewBox="0 0 50 50">
  <path d="M19.546875 3C9.9654831 3 2 9.9613151 2 18.714844C2 22.91956 3.8808388 26.733885 6.8613281 29.550781L6.7636719 30.009766C6.0954213 31.980383 4.4404039 33.095327 3.4609375 33.449219L3.4589844 33.449219C2.8925269 33.654209 2.4166519 33.960073 2.1582031 34.498047C1.8997543 35.036021 2.0546916 35.775396 2.4433594 36.164062C3.3603693 37.081072 4.5477468 36.992006 5.4121094 37.001953C8.6748134 37.039413 12.520261 35.326685 14.849609 34.164062L14.876953 34.150391L15.673828 33.691406L15.367188 33.597656L15.400391 33.605469C16.700795 33.905824 18.059357 34 19.394531 34C27.820509 34 35.070747 28.965182 36.673828 21.716797L36.673828 21.714844C36.887401 20.74842 37 19.745217 37 18.714844C37 9.9688462 29.128267 3 19.546875 3 z M 19.546875 5C28.165483 5 35 11.172841 35 18.714844C35 19.600471 34.90313 20.459627 34.720703 21.285156C33.35097 27.473865 27.025827 32 19.394531 32C18.159086 32 16.946685 31.90635 15.859375 31.65625L15.423828 31.525391L13.943359 32.380859C11.731045 33.483889 7.9167418 35.030443 5.4355469 35.001953C5.0992893 34.998053 5.065384 34.931667 4.828125 34.904297C6.2490728 34.209439 7.8923408 32.950693 8.6699219 30.630859L8.6875 30.576172L9.0449219 28.888672L8.6054688 28.501953C5.7418935 25.994218 4 22.521822 4 18.714844C4 11.180372 10.928267 5 19.546875 5 z M 11 12L11 14L28 14L28 12L11 12 z M 11 17L11 19L28 19L28 17L11 17 z M 38.785156 21.195312C38.735156 21.514312 38.698906 21.836391 38.628906 22.150391C38.551906 22.497391 38.448609 22.833875 38.349609 23.171875C42.951609 24.947875 45.986328 28.532719 45.986328 32.511719C45.986328 35.365719 44.498875 38.03425 41.796875 40.03125L41.253906 40.433594L41.423828 41.087891C41.960828 43.154891 43.852109 44.223641 45.162109 44.931641C43.085109 45.215641 38.5785 44.747406 36.3125 42.066406L35.931641 41.615234L35.353516 41.730469C34.445516 41.911469 33.389 42 32.125 42C25.905 42 20.856625 39.590422 18.890625 35.982422C18.077625 35.967422 17.320328 35.914172 16.611328 35.826172C18.464328 40.741172 24.429 44 32.125 44C33.276 44 34.282594 43.931016 35.183594 43.791016C37.389594 46.027016 40.988391 46.996094 43.900391 46.996094C44.093391 46.996094 44.284703 46.991422 44.470703 46.982422C46.160703 46.905422 47.263047 46.515266 47.748047 45.822266C47.966047 45.511266 48.040078 45.144109 47.955078 44.787109C47.786078 44.072109 47.129703 43.719516 46.220703 43.228516C45.324703 42.745516 44.149609 42.110156 43.599609 41.160156C46.398609 38.849156 47.986328 35.736719 47.986328 32.511719C47.986328 27.606719 44.316156 23.227313 38.785156 21.195312 z M 11 22L11 24L23 24L23 22L11 22 z M 36.013672 28C35.514672 28.704 34.966328 29.374 34.361328 30L39 30L39 28L36.013672 28 z M 30.587891 33C29.209891 33.829 27.700703 34.502 26.095703 35L39 35L39 33L30.587891 33 z" />
</svg>