<?xml version="1.0" encoding="utf-8"?>
<svg xmlns="http://www.w3.org/2000/svg" viewBox="0 0 50 50" width="515" height="515">
  <path d="M25 11C17.300781 11 11 17.300781 11 25C11 32.605469 16.300781 39 24 39C25.082031 39 26.484375 38.683594 27.828125 38.433594C25.765625 43.707031 22.21875 45.5 22.21875 45.5L20.914063 46.101563L24.921875 50.109375L25.472656 49.96875C25.472656 49.96875 28.976563 49.050781 32.34375 45.457031C35.710938 41.863281 39 35.570313 39 25C39 17.300781 32.699219 11 25 11 Z M 25 13C31.609375 13 37 18.390625 37 25C37 35.15625 33.902344 40.863281 30.882813 44.089844C28.269531 46.882813 26.09375 47.632813 25.46875 47.828125L24.140625 46.5C25.507813 45.671875 28.714844 43.433594 30.390625 37.46875L30.910156 35.628906L29.105469 36.25C28.023438 36.625 25.316406 37 24 37C17.390625 37 13 31.703125 13 25C13 18.390625 18.390625 13 25 13Z" />
</svg>