<?xml version="1.0" encoding="utf-8"?>
<svg xmlns="http://www.w3.org/2000/svg" viewBox="0 0 50 50" width="515" height="515">
  <path d="M33.535156 3C26.163059 3 20 8.3305794 20 15.072266C20 18.249781 21.414689 21.128222 23.642578 23.279297C23.310161 24.109076 22.69817 24.8143 21.978516 25.388672C21.555619 25.726195 21.137447 26.014266 20.773438 26.324219C20.591431 26.479195 20.417071 26.634968 20.251953 26.876953C20.086835 27.118939 19.909993 27.551035 20.035156 28.009766L20.144531 28.410156L20.507812 28.615234C22.121333 29.529743 24.091732 29.003936 25.972656 28.419922C27.75786 27.865628 29.385854 27.125221 30.302734 26.732422C31.194837 26.902765 32.10424 27 33 27C40.358075 27 47 21.865431 47 15.072266C47 8.3372936 40.907156 3 33.535156 3 z M 21.960938 3.1757812 A 1.0001 1.0001 0 0 0 21.890625 3.1816406C16.728538 3.7503972 13.198881 5.8546708 10.958984 8.8164062C8.7719243 11.708278 7.8227135 15.338054 7.3945312 19.074219L3.3417969 26.058594L3.3359375 26.066406C2.646307 27.307427 3.0876317 28.925449 4.3378906 29.621094L4.3574219 29.630859L7.4199219 31.162109L8.3984375 37.9375L8.4003906 37.943359C8.6154808 39.287826 9.3136279 40.53304 10.292969 41.470703C11.272309 42.408367 12.573122 43.05731 14.001953 43L17 43L17 46L17 47L17.832031 47 A 1.0001 1.0001 0 0 0 18.158203 47L19 47L19 45L19 41L13.941406 41L13.921875 41C13.156705 41.03069 12.347191 40.67018 11.675781 40.027344C11.004372 39.384507 10.51091 38.478439 10.375 37.628906L9.25 29.841797L5.3105469 27.873047C4.9828058 27.690692 4.897568 27.378042 5.0859375 27.039062L9.3066406 19.763672L9.3300781 19.552734C9.7210217 15.917402 10.636881 12.556701 12.552734 10.023438C14.468588 7.4901725 17.369459 5.6921647 22.109375 5.1699219 A 1.0001 1.0001 0 0 0 21.960938 3.1757812 z M 33.535156 5C39.951156 5 45 9.5492368 45 15.072266C45 20.537101 39.429925 25 33 25C32.072863 25 31.168408 24.93068 30.369141 24.746094L30.054688 24.673828L29.755859 24.800781C28.818075 25.197437 27.097435 25.97678 25.380859 26.509766C24.616451 26.747109 23.884459 26.869563 23.234375 26.941406C24.19759 26.171567 25.413437 25.037305 25.804688 23.298828L25.9375 22.710938L25.478516 22.318359C23.31005 20.469486 22 17.895268 22 15.072266C22 9.557951 27.119253 5 33.535156 5 z M 27.5 13 A 1.5 1.5 0 0 0 26 14.5 A 1.5 1.5 0 0 0 27.5 16 A 1.5 1.5 0 0 0 29 14.5 A 1.5 1.5 0 0 0 27.5 13 z M 33.5 13 A 1.5 1.5 0 0 0 32 14.5 A 1.5 1.5 0 0 0 33.5 16 A 1.5 1.5 0 0 0 35 14.5 A 1.5 1.5 0 0 0 33.5 13 z M 39.5 13 A 1.5 1.5 0 0 0 38 14.5 A 1.5 1.5 0 0 0 39.5 16 A 1.5 1.5 0 0 0 41 14.5 A 1.5 1.5 0 0 0 39.5 13 z M 40.382812 27.986328 A 1.0001 1.0001 0 0 0 39.478516 28.619141C39.100187 29.536042 38.66543 30.372064 38.171875 31.058594L38.167969 31.064453L38.164062 31.070312C36.22388 33.843559 35 37.112482 35 40.59375L35 46L35 47L35.832031 47 A 1.0001 1.0001 0 0 0 36.158203 47L37 47L37 45L37 40.59375C37 37.585145 38.055356 34.716856 39.794922 32.226562L39.802734 32.216797C40.415825 31.361796 40.908141 30.393981 41.326172 29.380859 A 1.0001 1.0001 0 0 0 40.382812 27.986328 z" />
</svg>