<?xml version="1.0" encoding="utf-8"?>
<svg xmlns="http://www.w3.org/2000/svg" viewBox="0 0 50 50" width="515" height="515">
  <path d="M2 2L2 36.097656L7 36.097656L7 41.097656L12 41.097656L12 46.097656L40.386719 46.097656L42.59375 48.308594C42.691406 48.410156 42.808594 48.488281 42.941406 48.542969L43.097656 48.699219C44.699219 50.300781 47.199219 50.398438 48.902344 48.699219C50.5 47.097656 50.300781 44.5 48.902344 42.902344L48.199219 42.199219L48.15625 42.242188L47 41.09375L47 12L42 12L42 7L37 7L37 2 Z M 4 4L35 4L35 7L7 7L7 34.097656L4 34.097656 Z M 9 9L40 9L40 12L12 12L12 39.097656L9 39.097656 Z M 14 14L45 14L45 39.109375L32.605469 26.792969C32.480469 26.667969 32.328125 26.578125 32.15625 26.53125L26.15625 24.933594C26.0625 24.90625 25.960938 24.898438 25.859375 24.902344C25.554688 24.914063 25.269531 25.0625 25.089844 25.3125C24.910156 25.558594 24.855469 25.875 24.9375 26.171875L26.640625 32.171875C26.683594 32.335938 26.773438 32.484375 26.890625 32.609375L38.386719 44.097656L14 44.097656 Z M 31.386719 28.398438L46.742188 43.65625L43.757813 46.640625L28.488281 31.375L28.457031 31.261719Z" />
</svg>