<?xml version="1.0" encoding="utf-8"?>
<svg xmlns="http://www.w3.org/2000/svg" viewBox="0 0 50 50" width="515" height="515">
  <path d="M2 2L2 40L19 40L19 48L48 48L48 21.59375L47.71875 21.28125L36.71875 10.28125L36.40625 10L27.4375 10L19.71875 2.28125L19.40625 2 Z M 4 4L18 4L18 15L29 15L29 38L4 38 Z M 20 5.4375L26 11.40625L26 11.4375C26.007813 11.457031 26.019531 11.480469 26.03125 11.5C26.117188 11.640625 26.234375 11.757813 26.375 11.84375C26.40625 11.867188 26.4375 11.886719 26.46875 11.90625L27.5625 13L20 13 Z M 29.4375 12L35 12L35 23L46 23L46 46L21 46L21 40L31 40L31 36.4375L33.28125 38.71875L34.71875 37.28125L31.4375 34L41 34L41 32L31.4375 32L34.71875 28.71875L33.28125 27.28125L31 29.5625L31 13.59375L30.71875 13.28125 Z M 37 13.4375L44.5625 21L37 21 Z M 17.71875 20.28125L16.28125 21.71875L19.5625 25L10 25L10 27L19.5625 27L16.28125 30.28125L17.71875 31.71875L22.71875 26.71875L23.40625 26L22.71875 25.28125Z" />
</svg>