<?xml version="1.0" encoding="utf-8"?>
<svg xmlns="http://www.w3.org/2000/svg" viewBox="0 0 50 50" width="515" height="515">
  <path d="M0 8L0 42L36.496094 42C35.850094 41.357 35.177281 40.686 34.488281 40L2 40L2 37.765625L16.013672 26.857422C17.229721 27.889858 19.263559 29.6313 19.548828 29.859375C21.382828 31.431375 23.272 31.599609 24 31.599609C24.362 31.599609 25.012875 31.557219 25.796875 31.324219L25.486328 31.013672C25.179328 30.706672 24.854187 30.205047 24.742188 29.623047L24.714844 29.525391C24.390844 29.585391 24.134 29.599609 24 29.599609C23.606 29.599609 22.213219 29.508359 20.824219 28.318359C19.450219 27.219359 4.135 14.085906 2 12.253906L2 10L46 10L46 12.253906C44.746 13.328906 38.948797 18.300219 34.091797 22.449219C34.121797 22.487219 34.155594 22.512688 34.183594 22.554688L35.503906 23.875C39.334906 20.602 43.715047 16.845672 45.998047 14.888672L45.998047 34.371094L47.998047 36.371094L47.998047 8L0 8 z M 2 14.888672C4.8929471 17.369291 10.222399 21.928643 14.455078 25.535156L2 35.232422L2 14.888672 z M 25.941406 22C25.651063 21.999953 25.390234 22.111688 25.240234 22.335938C25.040234 22.634937 24.939063 23.032078 25.039062 23.330078L26.746094 29.332031C26.793094 29.496031 26.875094 29.639766 26.996094 29.759766C30.991094 33.736766 42.745125 45.431641 42.828125 45.431641L43.128906 45.730469C44.727906 47.323469 47.324828 47.522469 48.923828 45.730469C50.422828 44.137469 50.324219 41.747687 48.824219 40.054688L48.525391 39.757812L48.363281 39.595703L48.123047 39.357422L32.554688 23.847656C32.429688 23.723656 32.273516 23.634844 32.103516 23.589844L26.238281 22.037109C26.138281 22.012109 26.038187 22.000016 25.941406 22 z M 27.439453 24.425781L31.4375 25.521484L46.775391 40.701172L43.826172 43.638672L43.779297 43.685547L28.638672 28.507812L27.439453 24.425781 z" />
</svg>