<?xml version="1.0" encoding="utf-8"?>
<svg xmlns="http://www.w3.org/2000/svg" viewBox="0 0 50 50" width="515" height="515">
  <path d="M24.984375 1.9863281 A 1.0001 1.0001 0 0 0 24.714844 2.0292969C12.215295 2.1839774 2.1881595 12.20852 2.0292969 24.707031 A 1.0001 1.0001 0 0 0 2.0292969 25.285156C2.1839776 37.784705 12.20852 47.811841 24.707031 47.970703 A 1.0001 1.0001 0 0 0 25.285156 47.970703C37.784705 47.816022 47.811841 37.79148 47.970703 25.292969 A 1.0001 1.0001 0 0 0 47.970703 24.714844C47.816022 12.215295 37.79148 2.1881595 25.292969 2.0292969 A 1.0001 1.0001 0 0 0 24.984375 1.9863281 z M 24 4.0996094L24 5 A 1.0001 1.0001 0 1 0 26 5L26 4.0996094C36.844073 4.6105295 45.389471 13.155927 45.900391 24L45 24 A 1.0001 1.0001 0 1 0 45 26L45.900391 26C45.389471 36.844073 36.844073 45.389471 26 45.900391L26 45 A 1.0001 1.0001 0 1 0 24 45L24 45.900391C13.155927 45.389471 4.6105295 36.844073 4.0996094 26L5 26 A 1.0001 1.0001 0 1 0 5 24L4.0996094 24C4.6105295 13.155927 13.155927 4.6105295 24 4.0996094 z M 36.966797 12 A 1.0001 1.0001 0 0 0 36.439453 12.171875L22.138672 21.873047 A 1.0001 1.0001 0 0 0 21.873047 22.138672L12.171875 36.439453 A 1.0001 1.0001 0 0 0 13.560547 37.828125L27.861328 28.126953 A 1.0001 1.0001 0 0 0 28.126953 27.861328L37.828125 13.560547 A 1.0001 1.0001 0 0 0 36.966797 12 z M 23.419922 23.419922L26.580078 26.580078L16.755859 33.244141L23.419922 23.419922 z" />
</svg>