<?xml version="1.0" encoding="utf-8"?>
<svg xmlns="http://www.w3.org/2000/svg" viewBox="0 0 50 50" width="515" height="515">
  <path d="M16.6875 7C12.425781 7.167969 9 10.699219 9 15C9 17.390625 10.050781 19.53125 11.71875 21L6 21C4.355469 21 3.097656 22.277344 2.28125 23.90625C1.464844 25.535156 1 27.65625 1 30C1 32.34375 1.464844 34.464844 2.28125 36.09375C3.097656 37.722656 4.355469 39 6 39L9 39C9 41.199219 10.800781 43 13 43C15.199219 43 17 41.199219 17 39L33 39C33 41.199219 34.800781 43 37 43C39.199219 43 41 41.199219 41 39L44 39C45.644531 39 46.902344 37.722656 47.71875 36.09375C48.535156 34.464844 49 32.34375 49 30C49 27.65625 48.535156 25.535156 47.71875 23.90625C46.902344 22.277344 45.644531 21 44 21L37.96875 21C38.609375 20.160156 39 19.132813 39 18C39 15.917969 37.695313 14.15625 35.875 13.40625C35.855469 13.394531 35.832031 13.382813 35.8125 13.375C35.800781 13.371094 35.792969 13.347656 35.78125 13.34375C35.691406 13.25 35.585938 13.175781 35.46875 13.125C35.46875 13.125 32.640625 11.582031 28.9375 10.0625C25.234375 8.542969 20.6875 7 17 7C16.9375 7 16.875 7 16.8125 7C16.769531 6.996094 16.730469 6.996094 16.6875 7 Z M 16.75 9C16.832031 9.011719 16.917969 9.011719 17 9C17.199219 9 17.414063 9.019531 17.625 9.03125C20.660156 9.335938 23 11.882813 23 15C23 18.324219 20.324219 21 17 21C13.675781 21 11 18.324219 11 15C11 11.757813 13.539063 9.128906 16.75 9 Z M 17 10C16.65625 10 16.324219 10.027344 16 10.09375L16 12.59375L14.25 10.84375C13.6875 11.214844 13.214844 11.6875 12.84375 12.25L14.59375 14L12.09375 14C12.027344 14.324219 12 14.65625 12 15C12 15.34375 12.027344 15.675781 12.09375 16L14.59375 16L12.84375 17.75C13.214844 18.3125 13.6875 18.785156 14.25 19.15625L16 17.40625L16 19.90625C16.324219 19.972656 16.65625 20 17 20C17.34375 20 17.675781 19.972656 18 19.90625L18 17.40625L19.75 19.15625C20.3125 18.785156 20.785156 18.3125 21.15625 17.75L19.40625 16L21.90625 16C21.972656 15.675781 22 15.34375 22 15C22 14.65625 21.972656 14.324219 21.90625 14L19.40625 14L21.15625 12.25C20.785156 11.6875 20.3125 11.214844 19.75 10.84375L18 12.59375L18 10.09375C17.675781 10.027344 17.34375 10 17 10 Z M 23.375 10.1875C25.011719 10.691406 26.65625 11.320313 28.15625 11.9375C29.558594 12.511719 30.746094 13.078125 31.78125 13.5625C30.148438 14.386719 29 16.054688 29 18C29 19.132813 29.390625 20.160156 30.03125 21L22.28125 21C23.949219 19.53125 25 17.390625 25 15C25 13.199219 24.386719 11.527344 23.375 10.1875 Z M 34 15C35.667969 15 37 16.332031 37 18C37 19.667969 35.667969 21 34 21C32.332031 21 31 19.667969 31 18C31 16.332031 32.332031 15 34 15 Z M 34 17C33.449219 17 33 17.449219 33 18C33 18.550781 33.449219 19 34 19C34.550781 19 35 18.550781 35 18C35 17.449219 34.550781 17 34 17 Z M 6 23L44 23C44.5625 23 45.304688 23.515625 45.9375 24.78125C46.570313 26.046875 47 27.925781 47 30C47 32.074219 46.570313 33.953125 45.9375 35.21875C45.304688 36.484375 44.5625 37 44 37L44 25L42 25L42 37L40.4375 37C39.742188 35.816406 38.464844 35 37 35C35.535156 35 34.257813 35.816406 33.5625 37L16.4375 37C15.742188 35.816406 14.464844 35 13 35C11.535156 35 10.257813 35.816406 9.5625 37L8 37L8 25L6 25L6 37C5.4375 37 4.695313 36.484375 4.0625 35.21875C3.429688 33.953125 3 32.074219 3 30C3 27.925781 3.429688 26.046875 4.0625 24.78125C4.695313 23.515625 5.4375 23 6 23 Z M 13 37C14.117188 37 15 37.882813 15 39C15 40.117188 14.117188 41 13 41C11.882813 41 11 40.117188 11 39C11 37.882813 11.882813 37 13 37 Z M 37 37C38.117188 37 39 37.882813 39 39C39 40.117188 38.117188 41 37 41C35.882813 41 35 40.117188 35 39C35 37.882813 35.882813 37 37 37Z" />
</svg>