<?xml version="1.0" encoding="utf-8"?>
<svg xmlns="http://www.w3.org/2000/svg" viewBox="0 0 523 523" width="515" height="515">
  <path d="M491.39453 20.839844 A 10.461046 10.461046 0 0 0 484.20312 24.003906L313.75977 194.44727L313.75977 94.099609 A 10.461046 10.461046 0 1 0 292.83984 94.099609L292.83984 230.06055L428.80078 230.06055 A 10.461046 10.461046 0 1 0 428.80078 209.14062L328.65234 209.14062L498.99609 38.796875 A 10.461046 10.461046 0 0 0 491.39453 20.839844 z M 94.099609 292.83984 A 10.461046 10.461046 0 1 0 94.099609 313.75977L194.44727 313.75977L24.003906 484.20312 A 10.461046 10.461046 0 1 0 38.796875 498.99609L209.24023 328.55273L209.24023 428.90039 A 10.461046 10.461046 0 1 0 230.16016 428.90039L230.16016 292.83984L94.099609 292.83984 z" />
</svg>