<?xml version="1.0" encoding="utf-8"?>
<svg xmlns="http://www.w3.org/2000/svg" viewBox="0 0 50 50" width="515" height="515">
  <path d="M23 0C15.773438 0 10.445313 2.496094 7 6.40625C3.554688 10.316406 2 15.558594 2 21C2 25.40625 3.375 29.515625 5.6875 32.875C7.78125 35.921875 9 39.507813 9 43.1875L9 50L11 50L11 43.1875C11 39.101563 9.640625 35.144531 7.375 31.8125L7.3125 31.71875C5.222656 28.679688 4 24.992188 4 21C4 15.941406 5.445313 11.183594 8.5 7.71875C11.554688 4.253906 16.226563 2 23 2C29.800781 2 34.214844 3.972656 37.125 7C40.035156 10.027344 41.464844 14.207031 42 18.71875L42.03125 18.9375L42.125 19.09375L46.84375 27.1875L46.8125 27.1875C47.0625 27.636719 46.9375 28.070313 46.5 28.3125L46.5 28.34375L42 30.59375L42 36.59375C42 40.335938 38.914063 43.253906 35.1875 42.90625L35.15625 42.90625L32.0625 42.6875L31 42.625L31 50L33 50L33 44.75L35 44.90625C35.011719 44.90625 35.019531 44.90625 35.03125 44.90625C39.890625 45.339844 44 41.441406 44 36.59375L44 31.8125L47.4375 30.09375L47.46875 30.09375L47.5 30.0625C48.863281 29.304688 49.3125 27.570313 48.5625 26.21875L48.5625 26.1875L43.9375 18.1875C43.34375 13.503906 41.808594 9.003906 38.5625 5.625C35.246094 2.175781 30.199219 0 23 0 Z M 24 10.40625C22.800781 10.40625 21.804688 10.507813 20.90625 10.90625C20.007813 11.207031 19.195313 11.707031 18.59375 12.40625C17.992188 13.105469 17.488281 13.914063 17.1875 14.8125C16.886719 15.8125 16.695313 16.789063 16.59375 17.6875L18.59375 17.6875C18.59375 16.886719 18.707031 16.105469 18.90625 15.40625C19.207031 14.707031 19.507813 14.09375 19.90625 13.59375C20.304688 13.09375 20.800781 12.707031 21.5 12.40625C22.199219 12.105469 22.914063 12 23.8125 12C24.511719 12 24.992188 12.113281 25.59375 12.3125C26.195313 12.511719 26.695313 12.789063 27.09375 13.1875C27.492188 13.585938 27.792969 13.992188 28.09375 14.59375C28.394531 15.195313 28.5 15.804688 28.5 16.40625C28.5 17.304688 28.304688 17.988281 27.90625 18.6875C27.507813 19.386719 27.007813 19.992188 26.40625 20.59375C25.804688 21.292969 25.1875 21.8125 24.6875 22.3125C24.1875 22.8125 23.800781 23.3125 23.5 23.8125C23.199219 24.3125 23.007813 24.894531 22.90625 25.59375C22.707031 26.292969 22.6875 27.09375 22.6875 28.09375L24.6875 28.09375C24.6875 27.09375 24.710938 26.3125 24.8125 25.8125C24.914063 25.3125 24.988281 24.898438 25.1875 24.5C25.386719 24.101563 25.695313 23.804688 26.09375 23.40625L27.6875 21.8125C28.488281 21.011719 29.1875 20.207031 29.6875 19.40625C30.1875 18.605469 30.5 17.605469 30.5 16.40625C30.5 15.507813 30.300781 14.605469 30 13.90625C29.699219 13.105469 29.195313 12.5 28.59375 12C27.992188 11.5 27.300781 11.113281 26.5 10.8125C25.699219 10.511719 24.898438 10.40625 24 10.40625 Z M 22.40625 30.3125L22.40625 33.6875L25.09375 33.6875L25.09375 30.3125Z" />
</svg>