<?xml version="1.0" encoding="utf-8"?>
<svg xmlns="http://www.w3.org/2000/svg" viewBox="0 0 50 50" width="515" height="515">
  <path d="M31.5 1.5859375L30.792969 2.2929688L27.585938 5.5L31.5 9.4140625L35.414062 5.5L31.5 1.5859375 z M 19 4 A 1.0001 1.0001 0 0 0 18 5L18 10 A 1.0001 1.0001 0 0 0 19 11L20 11C21.195444 11 21.455433 11.359475 21.710938 11.933594C21.966442 12.507713 22 13.3705 22 14C22 14.816372 21.901023 15.67478 21.761719 16.5C20.882678 16.190339 20.039182 16.005513 19.257812 16C18.374776 15.9937 17.496676 16.241605 16.869141 16.869141C16.601436 17.136845 16.422014 17.456621 16.283203 17.794922L16.265625 17.789062L5.2753906 45.648438L34.128906 35.769531L34.123047 35.751953C34.493463 35.612208 34.841565 35.419988 35.130859 35.130859C35.878844 34.382875 36.081646 33.30462 35.970703 32.226562C35.900758 31.546893 35.703905 30.829056 35.419922 30.083984C36.209455 30.036168 37.04915 30 38 30C39.425556 30 40.774341 30.172393 41.650391 30.476562C42.088416 30.628647 42.397045 30.814914 42.546875 30.957031C42.696705 31.099148 42.705078 31.140338 42.705078 31.25L42.705078 32 A 1.0001 1.0001 0 0 0 43.705078 33L48 33 A 1.0001 1.0001 0 0 0 49 31.970703C49 31.970703 48.970553 30.738394 48.970703 30.724609 A 1.0001 1.0001 0 0 0 48.970703 30.722656C48.989044 28.452518 47.559098 26.693113 45.794922 25.611328C44.030746 24.529543 41.889653 24 39.978516 24C36.815665 24 34.462978 24.820524 32.888672 25.632812C32.392263 24.958622 31.845232 24.279235 31.248047 23.603516C31.604695 23.489695 31.966658 23.383756 32.316406 23.289062C33.020957 23.098309 33.686891 22.941994 34.205078 22.826172C34.723265 22.710349 35.009332 22.660678 35.269531 22.587891C36.076797 22.361638 37.178765 22.085084 38.166016 21.425781C39.153266 20.766478 40 19.580663 40 18C40 17.567302 39.790164 17.326557 39.652344 17L40 17C42.137821 17 44 15.27381 44 13L44 11.625C44 11.625 44.0075 11.48876 44.101562 11.335938C44.195608 11.183113 44.270833 11 45 11L46 11 A 1.0001 1.0001 0 0 0 47 10L47 6.0019531 A 1.0001 1.0001 0 0 0 46 5.0019531L44.378906 5.0019531C41.721046 4.9997131 40.079363 6.2300339 39.201172 7.4003906C38.550039 8.2678002 38.349477 9.3397381 38.195312 10.259766C38.127696 10.663291 38.141242 10.70682 38.111328 11L38 11C36.277778 11 34.928325 11.624291 34.107422 12.609375C33.286518 13.594459 33 14.833333 33 16L33 17.357422C31.361022 17.897775 29.48395 18.775236 27.869141 20.302734C26.917246 19.493243 25.971162 18.769894 25.042969 18.166016C26.0679 16.358734 27 13.92033 27 11C27 9.2777778 26.429198 7.5387228 25.234375 6.2070312C24.039552 4.8753398 22.20868 4 19.925781 4L19.923828 4L19.910156 4L19 4 z M 31.5 4.4140625L32.585938 5.5L31.5 6.5859375L30.414062 5.5L31.5 4.4140625 z M 10.5 5.5859375L9.7929688 6.2929688L6.5859375 9.5L10.5 13.414062L14.414062 9.5L10.5 5.5859375 z M 20 6.0136719C21.744092 6.0336259 22.935606 6.639639 23.746094 7.5429688C24.570021 8.4612773 25 9.7222222 25 11C25 13.082062 24.393687 14.780689 23.6875 16.244141C23.79972 15.477704 24 14.799958 24 14C24 13.3705 24.033558 12.232225 23.539062 11.121094C23.044567 10.009963 21.804556 9 20 9L20 6.0136719 z M 44.376953 7.0019531 A 1.0001 1.0001 0 0 0 44.378906 7.0019531L45 7.0019531L45 9C43.729167 9 42.80439 9.6293873 42.398438 10.289062C41.992483 10.948741 42 11.625 42 11.625L42 13C42 14.22619 41.112179 15 40 15L38 15 A 1.0001 1.0001 0 0 0 37.175781 16.566406C37.176125 16.566906 37.253786 16.665216 37.259766 16.671875C37.265766 16.678575 37.269666 16.68333 37.273438 16.6875C37.281036 16.6958 37.289771 16.704457 37.300781 16.716797C37.322801 16.741477 37.354398 16.778257 37.392578 16.824219C37.468928 16.916139 37.570236 17.046577 37.667969 17.195312C37.863441 17.492779 38 17.865979 38 18C38 18.957337 37.660687 19.357022 37.054688 19.761719C36.448687 20.166416 35.550203 20.432362 34.730469 20.662109C34.763669 20.652809 34.302172 20.755509 33.767578 20.875C33.232984 20.99449 32.540996 21.157379 31.794922 21.359375C30.649334 21.669538 29.509078 22.167381 28.451172 22.697266C30.12585 20.613505 32.425233 19.480194 34.269531 18.962891 A 1.0001 1.0001 0 0 0 35 18L35 16C35 15.166667 35.213482 14.405541 35.642578 13.890625C36.071675 13.375709 36.722222 13 38 13L39 13 A 1.0001 1.0001 0 0 0 39.998047 12.052734C39.998047 12.052734 40.034387 11.387067 40.167969 10.589844C40.301555 9.7926201 40.600961 8.8631998 40.798828 8.5996094 A 1.0001 1.0001 0 0 0 40.800781 8.5996094C41.422781 7.770276 42.279595 7.0001892 44.376953 7.0019531 z M 10.5 8.4140625L11.585938 9.5L10.5 10.585938L9.4140625 9.5L10.5 8.4140625 z M 45.5 17L43 19.5L45.5 22L47.998047 19.5L45.5 17 z M 6.5 18L4 20.5L6.5 23L8.9980469 20.5L6.5 18 z M 19.242188 18C19.766386 18.003698 20.490556 18.195243 21.322266 18.53125C21.036322 19.623087 20.76081 20.428113 20.675781 20.685547 A 1.0001 1.0001 0 0 0 22.28125 21.753906C22.421477 21.631773 22.667114 21.402742 23.113281 20.894531C23.351632 20.623036 23.629605 20.279516 23.921875 19.886719C24.773362 20.421111 25.662036 21.068912 26.550781 21.810547C26.421369 21.987382 26.286207 22.154062 26.164062 22.34375L24.160156 25.458984 A 1.0001 1.0001 0 0 0 25.568359 26.822266L28.576172 24.746094C28.752643 24.62426 28.983498 24.498247 29.244141 24.373047C29.961415 25.145595 30.614766 25.924328 31.185547 26.689453C30.865859 26.935199 30.615998 27.152368 30.568359 27.199219 A 1.0001 1.0001 0 0 0 30.566406 27.201172L28.296875 29.443359 A 1.0001 1.0001 0 0 0 29.359375 31.087891C29.359407 31.087859 30.672023 30.589541 33.333984 30.267578C33.700879 31.104945 33.923071 31.854919 33.982422 32.431641C34.056232 33.148835 33.913812 33.519782 33.716797 33.716797C33.63981 33.79374 33.529442 33.858048 33.390625 33.908203L33.289062 33.943359C33.111617 33.989704 32.887308 34.011868 32.589844 33.994141C31.965712 33.956941 31.106876 33.722707 30.134766 33.28125C28.190545 32.398335 25.799172 30.709813 23.544922 28.455078C21.290605 26.200277 19.601813 23.809527 18.71875 21.865234C18.277218 20.893088 18.043113 20.032189 18.005859 19.408203C17.987347 19.098092 18.011887 18.863679 18.0625 18.683594C18.068392 18.66263 18.07738 18.648419 18.083984 18.628906C18.134803 18.478761 18.202213 18.364192 18.283203 18.283203C18.447667 18.118739 18.717224 17.996272 19.242188 18 z M 16.683594 22.179688C16.753058 22.350264 16.81753 22.519521 16.896484 22.693359C17.917921 24.942316 19.733176 27.470942 22.130859 29.869141C24.528609 32.267405 27.057611 34.08218 29.306641 35.103516C29.39725 35.144663 29.484519 35.176241 29.574219 35.214844L8.7246094 42.353516L16.683594 22.179688 z M 39.978516 26C41.501379 26 43.369176 26.469691 44.75 27.316406C46.130824 28.163121 46.982366 29.261263 46.970703 30.705078C46.969873 30.782038 46.974363 30.87802 46.976562 31L44.59375 31C44.516393 30.43096 44.310338 29.872471 43.923828 29.505859C43.472721 29.077976 42.917912 28.800806 42.304688 28.587891C41.078238 28.16206 39.574444 28 38 28C35.426366 28 33.665616 28.2637 32.138672 28.513672C32.368056 28.294646 34.834286 26 39.978516 26 z M 38.5 37.585938L37.792969 38.292969L34.585938 41.5L38.5 45.414062L42.414062 41.5L38.5 37.585938 z M 38.5 40.414062L39.585938 41.5L38.5 42.585938L37.414062 41.5L38.5 40.414062 z" />
</svg>