<?xml version="1.0" encoding="utf-8"?>
<svg xmlns="http://www.w3.org/2000/svg" viewBox="0 0 50 50" width="515" height="515">
  <path d="M41.1875 2.40625L30.1875 17.40625L31.8125 18.59375L42.8125 3.59375 Z M 20.9375 5.6875L19.0625 6.3125L21.0625 12.3125L22.9375 11.6875 Z M 10.75 6.34375L9.25 7.65625L18.25 17.65625L19.75 16.34375 Z M 28 8L19 27L24 27L22 42L31 24L26 24 Z M 7 17L7 21L1 21L1 29L7 29L7 33L9.40625 33L9.71875 32.71875L16.71875 25.71875L17.40625 25L16.71875 24.28125L9.71875 17.28125L9.40625 17 Z M 40.59375 17L40.28125 17.28125L33.28125 24.28125L32.59375 25L33.28125 25.71875L40.28125 32.71875L40.59375 33L43 33L43 29L49 29L49 21L43 21L43 17 Z M 9 19.4375L14.5625 25L9 30.5625L9 27L3 27L3 23L9 23 Z M 41 19.4375L41 23L47 23L47 27L41 27L41 30.5625L35.4375 25 Z M 17.4375 32.75L7.1875 46.40625L8.8125 47.59375L19.03125 33.9375 Z M 29.875 34.5L28.125 35.5L35.125 47.5L36.875 46.5 Z M 39.625 37.21875L38.375 38.78125L44.375 43.78125L45.625 42.21875Z" />
</svg>