<?xml version="1.0" encoding="utf-8"?>
<svg xmlns="http://www.w3.org/2000/svg" viewBox="0 0 50 50" width="515" height="515">
  <path d="M43.28125 2.28125L33.5625 12L31.3125 9.75C30.144531 8.582031 28.632813 8 27.09375 8C25.554688 8 24.011719 8.582031 22.84375 9.75L18.5 14.125L17.1875 12.8125C16.980469 12.589844 16.679688 12.476563 16.375 12.5C15.984375 12.539063 15.652344 12.800781 15.527344 13.167969C15.398438 13.539063 15.5 13.949219 15.78125 14.21875L35.78125 34.21875C36.023438 34.515625 36.410156 34.652344 36.785156 34.566406C37.15625 34.480469 37.449219 34.1875 37.535156 33.816406C37.621094 33.441406 37.484375 33.054688 37.1875 32.8125L35.875 31.5L40.125 27.28125L40.25 27.15625C42.585938 24.820313 42.585938 21.023438 40.25 18.6875L38 16.4375L47.71875 6.71875L46.28125 5.28125L36.5625 15L35 13.4375L44.71875 3.71875 Z M 27.0625 10C28.085938 10 29.121094 10.402344 29.90625 11.1875L38.8125 20.09375C40.382813 21.664063 40.382813 24.179688 38.8125 25.75L34.46875 30.09375L19.90625 15.53125L24.25 11.1875C25.035156 10.402344 26.039063 10 27.0625 10 Z M 13.3125 15.46875C12.9375 15.535156 12.636719 15.808594 12.53125 16.171875C12.425781 16.539063 12.535156 16.929688 12.8125 17.1875L14.125 18.5L9.75 22.84375C7.414063 25.179688 7.414063 28.976563 9.75 31.3125L12 33.5625L2.28125 43.28125L3.71875 44.71875L13.4375 35L15 36.5625L5.28125 46.28125L6.71875 47.71875L16.4375 38L18.6875 40.25C21.023438 42.585938 24.820313 42.585938 27.15625 40.25L31.5 35.875L32.8125 37.1875C33.054688 37.484375 33.441406 37.621094 33.816406 37.535156C34.1875 37.449219 34.480469 37.15625 34.566406 36.785156C34.652344 36.410156 34.515625 36.023438 34.21875 35.78125L14.21875 15.78125C14.03125 15.582031 13.773438 15.472656 13.5 15.46875C13.46875 15.46875 13.4375 15.46875 13.40625 15.46875C13.375 15.46875 13.34375 15.46875 13.3125 15.46875 Z M 15.53125 19.90625L30.09375 34.46875L25.75 38.8125C24.179688 40.382813 21.664063 40.382813 20.09375 38.8125L11.1875 29.90625C9.617188 28.335938 9.617188 25.820313 11.1875 24.25Z" />
</svg>