<?xml version="1.0" encoding="utf-8"?>
<svg xmlns="http://www.w3.org/2000/svg" viewBox="0 0 50 50" width="515" height="515">
  <path d="M25 2C12.308594 2 2 12.308594 2 25C2 37.691406 12.308594 48 25 48C37.691406 48 48 37.691406 48 25C48 12.308594 37.691406 2 25 2 Z M 25 4C36.609375 4 46 13.390625 46 25C46 36.609375 36.609375 46 25 46C13.390625 46 4 36.609375 4 25C4 13.390625 13.390625 4 25 4 Z M 25 16C20.042969 16 16 20.042969 16 25C16 29.957031 20.042969 34 25 34C29.957031 34 34 29.957031 34 25C34 20.042969 29.957031 16 25 16 Z M 25 18C28.878906 18 32 21.121094 32 25C32 28.878906 28.878906 32 25 32C21.121094 32 18 28.878906 18 25C18 21.121094 21.121094 18 25 18Z" />
</svg>