<?xml version="1.0" encoding="utf-8"?>
<svg xmlns="http://www.w3.org/2000/svg" viewBox="0 0 50 50" width="515" height="515">
  <path d="M41 2C37.145849 2 34 5.1458524 34 9C34 10.826601 34.744732 12.463949 35.898438 13.712891L27.525391 24L15.796875 24C15.290259 20.637238 12.499758 18 9 18C5.1458495 18 2 21.145852 2 25C2 28.854148 5.1458495 32 9 32C12.499758 32 15.290259 29.362762 15.796875 26L27.5 26L35.585938 36.75C34.648895 37.940917 34 39.373764 34 41C34 44.854148 37.145849 48 41 48C44.854151 48 48 44.854148 48 41C48 37.145852 44.854151 34 41 34C39.506497 34 38.19559 34.575979 37.056641 35.378906L29.269531 25.023438L37.498047 14.917969C38.544765 15.542597 39.697338 16 41 16C44.854151 16 48 12.854148 48 9C48 5.1458524 44.854151 2 41 2 z M 41 4C43.773271 4 46 6.2267307 46 9C46 11.773269 43.773271 14 41 14C38.226729 14 36 11.773269 36 9C36 6.2267307 38.226729 4 41 4 z M 9 20C11.773271 20 14 22.226731 14 25C14 27.773269 11.773271 30 9 30C6.226729 30 4 27.773269 4 25C4 22.226731 6.226729 20 9 20 z M 41 36C43.773271 36 46 38.226731 46 41C46 43.773269 43.773271 46 41 46C38.226729 46 36 43.773269 36 41C36 38.226731 38.226729 36 41 36 z" />
</svg>