<?xml version="1.0" encoding="utf-8"?>
<svg xmlns="http://www.w3.org/2000/svg" viewBox="0 0 50 50" width="515" height="515">
  <path d="M25.5 0C22.476563 0 20 2.476563 20 5.5C20 8.527344 22.476563 11 25.5 11C28.527344 11 31 8.527344 31 5.5C31 2.476563 28.527344 0 25.5 0 Z M 25.5 2C27.449219 2 29 3.558594 29 5.5C29 7.445313 27.449219 9 25.5 9C23.558594 9 22 7.445313 22 5.5C22 3.558594 23.558594 2 25.5 2 Z M 18 9.21875C18 9.21875 11.609375 9.546875 10.90625 9.59375C10.199219 9.640625 9.472656 9.871094 8.96875 10.375C8.789063 10.554688 8.398438 11.015625 7.75 11.71875C7.101563 12.421875 6.257813 13.328125 5.4375 14.21875C3.796875 16 2.1875 17.71875 2.1875 17.71875L2.21875 17.71875L2.21875 17.75C1.476563 18.558594 1.222656 19.550781 1.4375 20.3125C1.65625 21.082031 2.113281 21.5625 2.6875 21.84375C3.140625 22.066406 3.777344 22.257813 4.5 22.15625C4.796875 22.113281 5.101563 22.015625 5.40625 21.875L7.09375 22.71875C6.589844 23.777344 6.199219 24.941406 6.03125 25.5C5.914063 25.886719 4.550781 30.527344 3.15625 35.25C2.460938 37.609375 1.75 39.96875 1.21875 41.78125C0.6875 43.59375 0.332031 44.753906 0.25 45.0625C0.144531 45.472656 -0.0234375 46.289063 0.15625 47.25C0.335938 48.210938 1.035156 49.347656 2.375 49.8125C3.101563 50.066406 3.820313 50.039063 4.40625 49.8125C4.992188 49.585938 5.425781 49.164063 5.71875 48.78125C6.257813 48.074219 6.378906 47.429688 6.40625 47.3125L6.4375 47.3125L6.46875 47.1875L11.625 33.625L15.46875 37.1875L16.65625 46.59375L16.65625 46.6875L16.6875 46.6875C16.691406 46.773438 16.695313 47.421875 17.03125 48.1875C17.386719 49 18.296875 50 19.6875 50C20.285156 50 20.816406 49.898438 21.28125 49.65625C21.746094 49.414063 22.113281 49.011719 22.3125 48.59375C22.710938 47.753906 22.65625 46.929688 22.65625 46.125C22.65625 44.542969 22.34375 37.953125 22.3125 37.34375C22.273438 36.574219 22.085938 35.851563 21.71875 35.21875C21.71875 35.207031 21.71875 35.199219 21.71875 35.1875C21.246094 34.375 18.410156 29.246094 18.03125 28.5625L18.1875 28.25L23.71875 31.03125C23.964844 31.800781 24.308594 32.492188 24.84375 33.03125C25.421875 33.613281 26.332031 33.9375 27.21875 33.75C27.589844 33.671875 27.964844 33.519531 28.28125 33.3125L33.59375 35.9375C33.207031 36.535156 32.832031 37.058594 32.5 37.40625C32.027344 37.902344 31.691406 38.0625 31.5 38.0625C30.90625 38.0625 30.316406 38.109375 29.75 38.34375C29.183594 38.578125 28.660156 39.035156 28.375 39.65625C27.859375 40.777344 24.09375 48.5625 24.09375 48.5625C23.941406 48.875 23.960938 49.242188 24.148438 49.535156C24.332031 49.824219 24.652344 50.003906 25 50L49 50C49.347656 50.003906 49.667969 49.824219 49.851563 49.535156C50.039063 49.242188 50.058594 48.875 49.90625 48.5625C49.90625 48.5625 48.246094 45.039063 46.5 41.3125C44.753906 37.585938 42.878906 33.609375 42.59375 32.9375C42.175781 31.960938 41.714844 31.214844 41.125 30.71875C40.535156 30.222656 39.808594 30 39.15625 30C38.644531 30 37.734375 30.140625 37 30.875C36.371094 31.503906 35.691406 32.527344 34.65625 34.25L29.28125 31.53125C29.296875 31.144531 29.222656 30.757813 29.125 30.34375C28.972656 29.699219 28.3125 26.066406 27.71875 22.75C27.125 19.433594 26.5625 16.3125 26.5625 16.3125C26.449219 15.691406 26.144531 15.210938 25.84375 14.71875C25.84375 14.707031 25.84375 14.699219 25.84375 14.6875C25.828125 14.507813 25.761719 14.335938 25.65625 14.1875C25.65625 14.1875 25.597656 14.128906 25.59375 14.125C25.523438 14.03125 24.609375 12.800781 22.34375 11.25C20.136719 9.738281 19.152344 9.285156 18.25 9.25C18.214844 9.25 18.160156 9.21875 18.125 9.21875C18.09375 9.21875 18.0625 9.21875 18.03125 9.21875C18.019531 9.21875 18.011719 9.21875 18 9.21875 Z M 17.96875 11.21875C17.980469 11.21875 17.988281 11.21875 18 11.21875C18.050781 11.234375 18.101563 11.242188 18.15625 11.25C18.15625 11.25 18.1875 11.25 18.1875 11.25C18.417969 11.257813 19.046875 11.417969 21.21875 12.90625C23.328125 14.351563 23.9375 15.238281 23.96875 15.28125C23.96875 15.292969 23.96875 15.300781 23.96875 15.3125C23.996094 15.355469 24.027344 15.398438 24.0625 15.4375C24.28125 15.6875 24.496094 16.105469 24.59375 16.65625C24.59375 16.65625 25.15625 19.773438 25.75 23.09375C26.34375 26.414063 26.964844 29.839844 27.1875 30.78125C27.273438 31.136719 27.289063 31.339844 27.28125 31.46875C27.28125 31.484375 27.28125 31.488281 27.28125 31.5C27.222656 31.554688 27.167969 31.617188 27.125 31.6875C27.125 31.699219 27.125 31.707031 27.125 31.71875C27.0625 31.742188 26.992188 31.742188 26.8125 31.78125C26.523438 31.84375 26.460938 31.835938 26.25 31.625C26.039063 31.414063 25.785156 30.933594 25.59375 30.28125C25.585938 30.25 25.542969 30.070313 25.53125 30.03125C25.523438 30 25.511719 29.96875 25.5 29.9375C25.125 28.59375 23.78125 23.148438 23.03125 20.125C22.9375 19.734375 22.621094 19.4375 22.226563 19.371094C21.832031 19.300781 21.4375 19.476563 21.21875 19.8125L17.40625 25.625L10 21.90625C10.832031 20.738281 12.890625 17.824219 14.25 15.71875C14.464844 15.40625 14.480469 14.996094 14.296875 14.667969C14.109375 14.335938 13.753906 14.136719 13.375 14.15625L11 14.28125C10.753906 14.292969 10.519531 14.390625 10.34375 14.5625L5.34375 19.53125L5.3125 19.5625C5.203125 19.664063 5.097656 19.742188 5 19.8125C4.988281 19.820313 4.980469 19.835938 4.96875 19.84375C4.949219 19.851563 4.925781 19.863281 4.90625 19.875C4.851563 19.902344 4.800781 19.933594 4.75 19.96875C4.710938 19.992188 4.691406 20.042969 4.65625 20.0625C4.492188 20.144531 4.328125 20.171875 4.21875 20.1875C3.96875 20.222656 3.78125 20.167969 3.5625 20.0625C3.640625 20.101563 3.414063 19.921875 3.375 19.78125C3.335938 19.640625 3.261719 19.515625 3.65625 19.09375C3.667969 19.082031 3.675781 19.074219 3.6875 19.0625C3.6875 19.0625 5.265625 17.34375 6.90625 15.5625C7.726563 14.671875 8.570313 13.761719 9.21875 13.0625C9.867188 12.363281 10.375 11.8125 10.375 11.8125C10.5625 11.625 10.527344 11.625 11.03125 11.59375C11.53125 11.5625 17.746094 11.230469 17.96875 11.21875 Z M 11.375 16.34375C9.972656 18.394531 8.585938 20.382813 8.15625 21L7.1875 20.5 Z M 21.65625 22.8125C22.136719 24.765625 22.648438 26.765625 23.0625 28.4375L19.21875 26.53125 Z M 8.9375 23.625L16.40625 27.375L16 28.1875C15.863281 28.476563 15.875 28.8125 16.03125 29.09375C16.03125 29.09375 19.378906 35.203125 19.96875 36.21875C20.066406 36.386719 20.292969 37.082031 20.3125 37.46875C20.339844 38.011719 20.65625 44.832031 20.65625 46.125C20.65625 46.929688 20.589844 47.558594 20.5 47.75C20.453125 47.847656 20.460938 47.832031 20.375 47.875C20.289063 47.917969 20.066406 48 19.6875 48C19.125 48 19.019531 47.777344 18.84375 47.375C18.667969 46.972656 18.65625 46.53125 18.65625 46.53125C18.65625 46.5 18.65625 46.46875 18.65625 46.4375L17.4375 36.59375C17.410156 36.355469 17.300781 36.132813 17.125 35.96875L11.875 31.125C11.632813 30.90625 11.296875 30.824219 10.980469 30.898438C10.664063 30.972656 10.402344 31.199219 10.28125 31.5L4.5625 46.625C4.550781 46.65625 4.539063 46.6875 4.53125 46.71875C4.53125 46.71875 4.402344 47.230469 4.125 47.59375C3.988281 47.777344 3.832031 47.882813 3.6875 47.9375C3.542969 47.992188 3.386719 48.027344 3.03125 47.90625C2.332031 47.664063 2.214844 47.347656 2.125 46.875C2.035156 46.402344 2.121094 45.8125 2.1875 45.5625C2.191406 45.542969 2.59375 44.15625 3.125 42.34375C3.65625 40.53125 4.367188 38.171875 5.0625 35.8125C6.457031 31.09375 7.867188 26.300781 7.9375 26.0625C8.054688 25.675781 8.503906 24.539063 8.9375 23.625 Z M 38.78125 32C38.851563 31.976563 38.917969 32 39.15625 32C39.378906 32 39.546875 32.027344 39.8125 32.25C40.078125 32.472656 40.417969 32.933594 40.75 33.71875C41.125 34.601563 42.941406 38.429688 44.6875 42.15625C46.085938 45.144531 46.925781 46.980469 47.40625 48L26.59375 48C27.445313 46.234375 29.699219 41.558594 30.1875 40.5C30.269531 40.320313 30.339844 40.265625 30.53125 40.1875C30.722656 40.109375 31.050781 40.0625 31.5 40.0625C32.480469 40.0625 33.269531 39.476563 33.9375 38.78125C34.515625 38.175781 35.039063 37.394531 35.5625 36.53125C35.574219 36.519531 35.582031 36.511719 35.59375 36.5C35.601563 36.488281 35.617188 36.480469 35.625 36.46875C35.960938 36.292969 36.164063 35.941406 36.15625 35.5625C37.273438 33.699219 38.003906 32.714844 38.40625 32.3125C38.628906 32.089844 38.710938 32.023438 38.78125 32Z" />
</svg>