<?xml version="1.0" encoding="utf-8"?>
<svg xmlns="http://www.w3.org/2000/svg" viewBox="0 0 50 50" width="515" height="515">
  <path d="M3.90625 0C3.304688 0.0703125 2.792969 0.519531 2.59375 1.0625C2.589844 1.078125 2.566406 1.078125 2.5625 1.09375L0.0625 8.375C0.0234375 8.476563 0.00390625 8.582031 0 8.6875C0 8.835938 -0.0078125 9.09375 0.03125 9.375C0.0625 9.601563 0.183594 9.90625 0.40625 10.21875L0.34375 10.25L2.84375 14.125C2.855469 14.136719 2.863281 14.144531 2.875 14.15625C2.980469 14.316406 3.109375 14.488281 3.34375 14.625C3.578125 14.761719 3.941406 14.839844 4.25 14.75C4.871094 14.574219 5.054688 14.121094 5.15625 13.8125L7 8.15625L8.28125 8.625C8.289063 8.65625 8.304688 8.6875 8.3125 8.71875C8.320313 8.738281 8.332031 8.761719 8.34375 8.78125C9.089844 11.222656 9.753906 13.535156 10.28125 15.3125C10.796875 17.054688 11.09375 18.121094 11.34375 18.71875C11.351563 18.742188 11.367188 18.757813 11.375 18.78125C11.640625 19.542969 12.097656 20.210938 12.625 20.84375C12.636719 20.855469 12.644531 20.863281 12.65625 20.875C13.761719 22.070313 18.21875 27.167969 18.59375 27.59375L15.6875 43L10 43C9.96875 43 9.9375 43 9.90625 43C9.390625 43.046875 8.996094 43.480469 9 44L9 49C9 49.550781 9.449219 50 10 50L49 50C49.550781 50 50 49.550781 50 49L50 44C50 43.449219 49.550781 43 49 43L47.6875 43L36.125 26.4375C36.125 26.425781 36.125 26.417969 36.125 26.40625C35.570313 25.628906 34.835938 25.191406 34.125 24.90625L34.15625 24.875C34.085938 24.828125 33.980469 24.792969 33.90625 24.75C33.570313 24.546875 33.226563 24.335938 32.78125 24.15625C32.769531 24.15625 32.761719 24.15625 32.75 24.15625L25.15625 21.28125C23.613281 20.664063 21.804688 19.277344 20.40625 18.0625C19.085938 16.914063 18.253906 16.042969 18.15625 15.9375L14.9375 7.25C14.9375 7.238281 14.9375 7.230469 14.9375 7.21875C14.550781 6.277344 14.046875 5.457031 13.34375 4.875C12.640625 4.292969 11.65625 4.011719 10.6875 4.21875C9.726563 4.425781 8.933594 5.070313 8.53125 5.90625C8.441406 6.09375 8.367188 6.300781 8.3125 6.5L7.625 6.28125L8.65625 3.125C8.945313 2.253906 8.367188 1.402344 7.625 1.15625L4.53125 0.0625C4.316406 -0.0078125 4.105469 -0.0234375 3.90625 0 Z M 4.3125 2.09375L6.625 2.90625L5.46875 6.46875C5.441406 6.527344 5.421875 6.59375 5.40625 6.65625L3.71875 11.78125L2.03125 9.15625C2.019531 9.144531 2.011719 9.136719 2 9.125C2.019531 9.140625 2.035156 9.128906 2.03125 9.09375C2.023438 9.027344 2 8.917969 2 8.8125 Z M 11.40625 6.15625C11.65625 6.140625 11.820313 6.207031 12.0625 6.40625C12.378906 6.667969 12.753906 7.195313 13.0625 7.9375L13.0625 7.96875L16.375 16.84375C16.414063 16.96875 16.476563 17.085938 16.5625 17.1875C16.5625 17.1875 17.617188 18.308594 19.09375 19.59375C20.570313 20.878906 22.480469 22.34375 24.4375 23.125L32.03125 26.03125C32.488281 26.214844 32.816406 26.386719 33.03125 26.53125C33.109375 26.585938 33.191406 26.625 33.28125 26.65625C33.679688 26.789063 34.09375 27.054688 34.46875 27.5625C34.480469 27.578125 34.488281 27.578125 34.5 27.59375L45.25 43L41.96875 43L34.3125 32.3125C34.09375 32.003906 33.71875 31.847656 33.34375 31.90625C32.886719 31.976563 32.539063 32.351563 32.5 32.8125L31.46875 43L17.75 43L20.6875 27.375C20.761719 26.941406 20.546875 26.511719 20.15625 26.3125C20.144531 26.3125 20.136719 26.3125 20.125 26.3125C19.820313 25.964844 15.390625 20.902344 14.15625 19.5625C14.144531 19.546875 14.136719 19.542969 14.125 19.53125C13.683594 18.996094 13.382813 18.492188 13.25 18.09375C13.242188 18.0625 13.230469 18.03125 13.21875 18C13.171875 17.886719 12.742188 16.523438 12.21875 14.75C11.699219 12.996094 11.023438 10.710938 10.28125 8.28125C10.121094 7.59375 10.164063 7.0625 10.3125 6.75C10.460938 6.4375 10.6875 6.28125 11.125 6.1875C11.234375 6.164063 11.324219 6.160156 11.40625 6.15625 Z M 31 10C27.675781 10 25 12.675781 25 16C25 19.324219 27.675781 22 31 22C34.324219 22 37 19.324219 37 16C37 12.675781 34.324219 10 31 10 Z M 31 12C33.277344 12 35 13.722656 35 16C35 18.277344 33.277344 20 31 20C28.722656 20 27 18.277344 27 16C27 13.722656 28.722656 12 31 12 Z M 34.21875 35.625L39.53125 43L33.46875 43 Z M 11 45L48 45L48 48L11 48Z" />
</svg>