<?xml version="1.0" encoding="utf-8"?>
<svg xmlns="http://www.w3.org/2000/svg" viewBox="0 0 50 50" width="515" height="515">
  <path d="M13 3L13 8L8 8L8 45L23.1875 45C23.605469 46.15625 24.707031 47 26 47L45 47C46.644531 47 48 45.644531 48 44L48 31C48 29.355469 46.644531 28 45 28L42 28L42 8L37 8L37 3 Z M 15 5L35 5L35 8L17 8L17 10L40 10L40 28L26 28C24.355469 28 23 29.355469 23 31L23 43L10 43L10 10L15 10 Z M 14 13L14 15L18 15L18 13 Z M 23 13L23 15L27 15L27 13 Z M 32 13L32 15L36 15L36 13 Z M 14 18L14 20L18 20L18 18 Z M 23 18L23 20L27 20L27 18 Z M 32 18L32 20L36 20L36 18 Z M 14 23L14 25L18 25L18 23 Z M 23 23L23 25L27 25L27 23 Z M 32 23L32 25L36 25L36 23 Z M 14 28L14 30L18 30L18 28 Z M 26 30L45 30C45.566406 30 46 30.433594 46 31L46 44C46 44.566406 45.566406 45 45 45L26 45C25.433594 45 25 44.566406 25 44L25 31C25 30.433594 25.433594 30 26 30 Z M 35.472656 32C33.011719 32.042969 32.714844 33.8125 33.253906 35.835938C33.160156 35.894531 33 36.074219 33.042969 36.394531C33.117188 36.996094 33.363281 37.144531 33.527344 37.15625C33.585938 37.714844 33.964844 38.375 34.167969 38.480469C34.167969 38.878906 34.183594 39.183594 34.140625 39.621094C33.65625 40.898438 30.152344 40.539063 30 43L41 43C40.847656 40.539063 37.359375 40.898438 36.871094 39.621094C36.832031 39.183594 36.84375 38.882813 36.84375 38.484375C37.046875 38.378906 37.410156 37.71875 37.472656 37.15625C37.632813 37.144531 37.886719 36.992188 37.957031 36.394531C38 36.074219 37.839844 35.894531 37.746094 35.835938C38.003906 35.074219 38.546875 32.722656 36.75 32.480469C36.5625 32.160156 36.089844 32 35.472656 32 Z M 14 33L14 35L18 35L18 33 Z M 14 38L14 40L18 40L18 38Z" />
</svg>