<?xml version="1.0" encoding="utf-8"?>
<svg xmlns="http://www.w3.org/2000/svg" viewBox="0 0 50 50" width="515" height="515">
  <path d="M3 7C1.355469 7 0 8.355469 0 10L0 43C0 44.644531 1.355469 46 3 46L10 46C10.550781 46 11 45.550781 11 45L11 43.5C11 43.195313 10.863281 42.910156 10.625 42.71875C10.210938 42.371094 10 41.964844 10 41.5C10 40.625 10.625 40 11.5 40C12.375 40 13 40.625 13 41.5C13 41.964844 12.789063 42.371094 12.375 42.71875C12.136719 42.910156 12 43.195313 12 43.5L12 45C12 45.550781 12.449219 46 13 46L37 46C37.550781 46 38 45.550781 38 45L38 43.5C38 43.195313 37.863281 42.910156 37.625 42.71875C37.210938 42.371094 37 41.964844 37 41.5C37 40.625 37.625 40 38.5 40C39.375 40 40 40.625 40 41.5C40 41.964844 39.789063 42.371094 39.375 42.71875C39.136719 42.910156 39 43.195313 39 43.5L39 45C39 45.550781 39.449219 46 40 46L47 46C48.644531 46 50 44.644531 50 43L50 10C50 8.355469 48.644531 7 47 7 Z M 3 9L47 9C47.554688 9 48 9.445313 48 10L48 43C48 43.554688 47.554688 44 47 44L41 44L41 43.8125C41.558594 43.1875 42 42.417969 42 41.5C42 39.578125 40.421875 38 38.5 38C36.578125 38 35 39.578125 35 41.5C35 42.417969 35.441406 43.1875 36 43.8125L36 44L14 44L14 43.8125C14.558594 43.1875 15 42.417969 15 41.5C15 39.578125 13.421875 38 11.5 38C9.578125 38 8 39.578125 8 41.5C8 42.417969 8.441406 43.1875 9 43.8125L9 44L3 44C2.445313 44 2 43.554688 2 43L2 10C2 9.445313 2.445313 9 3 9 Z M 16.46875 13C14.027344 13.054688 12.292969 14.128906 11.5625 15.75C10.894531 17.230469 11.011719 18.960938 11.4375 20.75C11.199219 21.117188 11.054688 21.554688 11.125 22.09375L11.09375 22.09375C11.097656 22.121094 11.121094 22.128906 11.125 22.15625C11.222656 23.035156 11.640625 23.601563 12.15625 23.96875C12.265625 24.464844 12.378906 24.96875 12.59375 25.375C12.738281 25.644531 12.890625 25.875 13.0625 26.09375C13.09375 26.132813 13.15625 26.152344 13.1875 26.1875L13.1875 27.5625C13.0625 27.777344 12.835938 28.019531 12.28125 28.28125C11.671875 28.566406 10.835938 28.828125 9.96875 29.1875C9.101563 29.546875 8.167969 30 7.40625 30.75C6.644531 31.5 6.089844 32.59375 6 33.9375L5.9375 35L27.0625 35L27 33.9375C26.910156 32.59375 26.351563 31.5 25.59375 30.75C24.835938 30 23.917969 29.546875 23.0625 29.1875C22.207031 28.828125 21.417969 28.5625 20.84375 28.28125C20.3125 28.023438 20.089844 27.816406 20 27.625C19.957031 27.164063 19.980469 26.722656 20 26.1875C20.03125 26.144531 20.09375 26.105469 20.125 26.0625C20.289063 25.839844 20.433594 25.582031 20.5625 25.3125C20.757813 24.902344 20.871094 24.421875 20.96875 23.9375C21.097656 23.839844 21.277344 23.84375 21.375 23.71875C21.679688 23.320313 21.851563 22.835938 21.96875 22.1875L22 22.15625C22.089844 21.609375 21.917969 21.160156 21.6875 20.78125C21.941406 19.925781 22.203125 18.777344 22.09375 17.5C22.027344 16.730469 21.824219 15.90625 21.3125 15.21875C20.835938 14.578125 20.054688 14.136719 19.125 13.96875C18.855469 13.722656 18.640625 13.40625 18.3125 13.28125C17.757813 13.074219 17.140625 13 16.5 13 Z M 16.5 15C16.511719 15 16.519531 15 16.53125 15C16.972656 15.003906 17.355469 15.066406 17.59375 15.15625C17.839844 15.25 17.90625 15.34375 17.90625 15.34375L18.15625 15.8125L18.6875 15.90625C19.261719 15.976563 19.484375 16.132813 19.6875 16.40625C19.890625 16.679688 20.046875 17.125 20.09375 17.65625C20.183594 18.714844 19.859375 20.082031 19.65625 20.65625L19.375 21.5L20 21.84375C19.929688 22.1875 19.847656 22.34375 19.8125 22.40625L19.1875 22.40625L19.09375 23.3125C19.058594 23.65625 18.917969 24.113281 18.75 24.46875C18.664063 24.648438 18.59375 24.816406 18.53125 24.90625L18 25.1875L18 25.8125C18 26.527344 17.882813 27.097656 18 28.03125L18.0625 28.21875C18.394531 29.167969 19.171875 29.71875 19.9375 30.09375C20.703125 30.46875 21.554688 30.746094 22.3125 31.0625C23.070313 31.378906 23.726563 31.730469 24.1875 32.1875C24.386719 32.382813 24.398438 32.753906 24.53125 33L8.46875 33C8.601563 32.753906 8.613281 32.382813 8.8125 32.1875C9.273438 31.730469 9.949219 31.378906 10.71875 31.0625C11.488281 30.746094 12.335938 30.464844 13.125 30.09375C13.914063 29.722656 14.722656 29.234375 15.125 28.3125L15.1875 28.09375L15.1875 25.1875L14.75 24.96875C14.753906 24.972656 14.726563 24.941406 14.71875 24.9375L14.65625 24.90625C14.648438 24.898438 14.664063 24.882813 14.65625 24.875C14.582031 24.78125 14.46875 24.617188 14.375 24.4375C14.1875 24.078125 14.03125 23.621094 14 23.3125L13.90625 22.40625L13.21875 22.40625C13.199219 22.367188 13.128906 22.273438 13.09375 21.90625L13.09375 21.84375L13.6875 21.53125L13.46875 20.75C13 19.019531 12.957031 17.488281 13.375 16.5625C13.789063 15.640625 14.570313 15.050781 16.5 15 Z M 37.6875 17C33.085938 17 30 20.585938 30 24.6875C30 28.585938 33 31 36.5 31C37.898438 31 39.011719 30.8125 40.3125 30.3125L40.09375 29.1875C39.292969 29.585938 38.195313 29.8125 37.09375 29.8125C33.992188 29.8125 31.8125 27.898438 31.8125 24.5C31.8125 20.601563 34.488281 18.1875 37.6875 18.1875C40.886719 18.1875 42.59375 20.210938 42.59375 22.8125C42.59375 25.113281 41.492188 26.1875 40.59375 26.1875C39.992188 26.1875 39.894531 25.699219 40.09375 24.5L40.6875 20.8125C40.085938 20.511719 39.085938 20.3125 38.1875 20.3125C35.1875 20.3125 33.3125 22.5 33.3125 25C33.3125 26.601563 34.292969 27.59375 35.59375 27.59375C36.695313 27.59375 37.613281 27.09375 38.3125 26.09375C38.414063 27.09375 39.09375 27.59375 40.09375 27.59375C42.292969 27.59375 44 25.8125 44 22.8125C44 19.414063 41.386719 17 37.6875 17 Z M 37.8125 21.90625C38.011719 21.90625 38.207031 22 38.40625 22L38.1875 23.90625C37.988281 25.105469 37.207031 26 36.40625 26C35.804688 26 35.40625 25.613281 35.40625 24.8125C35.40625 23.210938 36.414063 21.90625 37.8125 21.90625Z" />
</svg>