<?xml version="1.0" encoding="utf-8"?>
<svg xmlns="http://www.w3.org/2000/svg" viewBox="0 0 50 50" width="515" height="515">
  <path d="M0 0L0 16L16 16L16 0 Z M 2 2L14 2L14 10.03125L11.875 8L11.34375 7.53125L10.71875 7.84375L8.90625 8.78125L6.21875 5.5625L5.5625 4.78125L4.8125 5.4375L2 7.84375 Z M 11.5 3C10.671875 3 10 3.671875 10 4.5C10 5.328125 10.671875 6 11.5 6C12.328125 6 13 5.328125 13 4.5C13 3.671875 12.328125 3 11.5 3 Z M 20.71875 4C20.167969 4.078125 19.78125 4.589844 19.859375 5.140625C19.9375 5.691406 20.449219 6.078125 21 6L49 6C49.359375 6.003906 49.695313 5.816406 49.878906 5.503906C50.058594 5.191406 50.058594 4.808594 49.878906 4.496094C49.695313 4.183594 49.359375 3.996094 49 4L21 4C20.96875 4 20.9375 4 20.90625 4C20.875 4 20.84375 4 20.8125 4C20.78125 4 20.75 4 20.71875 4 Z M 5.34375 7.625L7.875 10.65625L8.375 11.25L9.09375 10.90625L11 9.9375L14 12.78125L14 14L2 14L2 10.5 Z M 20.71875 10C20.167969 10.078125 19.78125 10.589844 19.859375 11.140625C19.9375 11.691406 20.449219 12.078125 21 12L49 12C49.359375 12.003906 49.695313 11.816406 49.878906 11.503906C50.058594 11.191406 50.058594 10.808594 49.878906 10.496094C49.695313 10.183594 49.359375 9.996094 49 10L21 10C20.96875 10 20.9375 10 20.90625 10C20.875 10 20.84375 10 20.8125 10C20.78125 10 20.75 10 20.71875 10 Z M 0 17L0 33L16 33L16 17 Z M 2 19L14 19L14 31L2 31 Z M 9.40625 20C9.292969 19.996094 9.171875 20.015625 9.0625 20.03125C8.621094 20.089844 8.210938 20.277344 7.90625 20.4375C7.632813 20.582031 7.613281 20.617188 7.4375 20.75C7.160156 20.613281 6.902344 20.445313 6.46875 20.375C5.855469 20.273438 5.003906 20.390625 4.375 21C3.585938 21.769531 3.582031 22.816406 3.71875 23.5C3.777344 23.789063 3.828125 23.796875 3.90625 24C3.761719 24.152344 3.71875 24.144531 3.5625 24.375C3.179688 24.941406 2.75 25.867188 3.125 26.875C3.316406 27.390625 3.707031 27.777344 4.09375 28C4.753906 28.378906 5.390625 28.457031 5.875 28.4375C6.132813 28.835938 6.535156 29.300781 7.15625 29.65625C7.492188 29.847656 7.929688 29.996094 8.40625 29.96875C8.96875 29.9375 9.433594 29.652344 9.75 29.34375C10.066406 29.035156 10.253906 28.6875 10.40625 28.375C10.550781 28.078125 10.558594 28.03125 10.625 27.8125C10.835938 27.769531 10.878906 27.792969 11.15625 27.6875C11.796875 27.449219 12.667969 26.953125 12.9375 25.90625C13.1875 24.9375 12.703125 24.136719 12.25 23.65625C11.980469 23.371094 11.816406 23.277344 11.59375 23.125C11.621094 22.902344 11.636719 22.871094 11.625 22.5625C11.597656 21.875 11.425781 20.859375 10.46875 20.3125C10.109375 20.105469 9.75 20.007813 9.40625 20 Z M 20.71875 21C20.167969 21.078125 19.78125 21.589844 19.859375 22.140625C19.9375 22.691406 20.449219 23.078125 21 23L49 23C49.359375 23.003906 49.695313 22.816406 49.878906 22.503906C50.058594 22.191406 50.058594 21.808594 49.878906 21.496094C49.695313 21.183594 49.359375 20.996094 49 21L21 21C20.96875 21 20.9375 21 20.90625 21C20.875 21 20.84375 21 20.8125 21C20.78125 21 20.75 21 20.71875 21 Z M 9.25 22.03125C9.359375 22.011719 9.441406 22.015625 9.46875 22.03125C9.519531 22.0625 9.609375 22.273438 9.625 22.65625C9.640625 23.039063 9.59375 23.375 9.59375 23.375L9.40625 24.15625L10.125 24.5C10.226563 24.558594 10.5625 24.796875 10.78125 25.03125C11 25.265625 11.015625 25.351563 11 25.40625C10.972656 25.511719 10.820313 25.683594 10.46875 25.8125C10.117188 25.941406 9.78125 25.96875 9.78125 25.96875L9.03125 26.03125L8.875 26.78125C8.875 26.78125 8.800781 27.144531 8.625 27.5C8.539063 27.679688 8.417969 27.835938 8.34375 27.90625C8.269531 27.976563 8.277344 27.96875 8.28125 27.96875C8.261719 27.96875 8.242188 27.984375 8.15625 27.9375C7.855469 27.765625 7.34375 26.9375 7.34375 26.9375L7 26.21875L6.25 26.375C6.25 26.375 5.320313 26.378906 5.09375 26.25C5.050781 26.226563 5.015625 26.226563 5 26.1875C4.941406 26.027344 5.019531 25.796875 5.21875 25.5C5.417969 25.203125 5.65625 24.96875 5.65625 24.96875L6.28125 24.4375L5.875 23.71875C5.875 23.71875 5.726563 23.433594 5.65625 23.09375C5.585938 22.753906 5.628906 22.585938 5.78125 22.4375C5.878906 22.339844 5.925781 22.304688 6.15625 22.34375C6.386719 22.382813 6.675781 22.527344 6.84375 22.625L6.875 22.625C6.972656 22.679688 7 22.71875 7 22.71875L7.65625 23.1875L8.25 22.625C8.25 22.625 8.503906 22.367188 8.84375 22.1875C9.011719 22.097656 9.140625 22.050781 9.25 22.03125 Z M 8.65625 23.0625C8.203125 23.179688 7.90625 24.53125 7.90625 24.53125C7.90625 24.53125 7.199219 22.917969 6.6875 23.34375C6.175781 23.769531 7.75 24.6875 7.75 24.6875C7.75 24.6875 6.011719 24.882813 6.21875 25.46875C6.425781 26.054688 7.84375 24.875 7.84375 24.875C7.84375 24.875 7.46875 26.667969 8.125 26.5625C8.78125 26.457031 8.0625 24.84375 8.0625 24.84375C8.0625 24.84375 9.652344 25.753906 9.75 25.09375C9.847656 24.4375 8.09375 24.65625 8.09375 24.65625C8.09375 24.65625 9.414063 23.417969 8.84375 23.09375C8.773438 23.054688 8.722656 23.046875 8.65625 23.0625 Z M 20.71875 27C20.167969 27.078125 19.78125 27.589844 19.859375 28.140625C19.9375 28.691406 20.449219 29.078125 21 29L49 29C49.359375 29.003906 49.695313 28.816406 49.878906 28.503906C50.058594 28.191406 50.058594 27.808594 49.878906 27.496094C49.695313 27.183594 49.359375 26.996094 49 27L21 27C20.96875 27 20.9375 27 20.90625 27C20.875 27 20.84375 27 20.8125 27C20.78125 27 20.75 27 20.71875 27 Z M 0 34L0 50L16 50L16 34 Z M 2 36L14 36L14 48L2 48 Z M 8 37.34375C8 37.34375 7.441406 39.023438 6.90625 39.25C6.371094 39.476563 4.6875 38.6875 4.6875 38.6875C4.6875 38.6875 5.429688 40.359375 5.25 40.90625C5.121094 41.296875 3.34375 42 3.34375 42C3.34375 42 5.066406 42.625 5.1875 43.09375C5.367188 43.789063 4.6875 45.3125 4.6875 45.3125C4.6875 45.3125 6.269531 44.445313 6.78125 44.71875C7.292969 44.992188 8 46.65625 8 46.65625C8 46.65625 8.558594 44.976563 9.09375 44.75C9.628906 44.523438 11.3125 45.3125 11.3125 45.3125C11.3125 45.3125 10.558594 43.640625 10.75 43.09375C10.898438 42.667969 12.65625 42 12.65625 42C12.65625 42 10.953125 41.332031 10.8125 40.90625C10.585938 40.222656 11.3125 38.6875 11.3125 38.6875C11.3125 38.6875 9.730469 39.554688 9.21875 39.28125C8.707031 39.007813 8 37.34375 8 37.34375 Z M 20.71875 38C20.167969 38.078125 19.78125 38.589844 19.859375 39.140625C19.9375 39.691406 20.449219 40.078125 21 40L49 40C49.359375 40.003906 49.695313 39.816406 49.878906 39.503906C50.058594 39.191406 50.058594 38.808594 49.878906 38.496094C49.695313 38.183594 49.359375 37.996094 49 38L21 38C20.96875 38 20.9375 38 20.90625 38C20.875 38 20.84375 38 20.8125 38C20.78125 38 20.75 38 20.71875 38 Z M 8 40.53125C8.8125 40.53125 9.46875 41.1875 9.46875 42C9.46875 42.8125 8.8125 43.46875 8 43.46875C7.1875 43.46875 6.53125 42.8125 6.53125 42C6.53125 41.1875 7.1875 40.53125 8 40.53125 Z M 20.71875 44C20.167969 44.078125 19.78125 44.589844 19.859375 45.140625C19.9375 45.691406 20.449219 46.078125 21 46L49 46C49.359375 46.003906 49.695313 45.816406 49.878906 45.503906C50.058594 45.191406 50.058594 44.808594 49.878906 44.496094C49.695313 44.183594 49.359375 43.996094 49 44L21 44C20.96875 44 20.9375 44 20.90625 44C20.875 44 20.84375 44 20.8125 44C20.78125 44 20.75 44 20.71875 44Z" />
</svg>