<?xml version="1.0" encoding="utf-8"?>
<svg xmlns="http://www.w3.org/2000/svg" viewBox="0 0 50 50" width="515" height="515">
  <path d="M25 4C13.414063 4 4 13.414063 4 25C4 36.585938 13.414063 46 25 46C36.585938 46 46 36.585938 46 25C46 24.378906 45.960938 23.78125 45.910156 23.203125C45.878906 22.855469 45.671875 22.546875 45.359375 22.390625C45.042969 22.234375 44.671875 22.253906 44.375 22.441406C43.824219 22.792969 43.191406 23 42.5 23C41.015625 23 39.769531 22.082031 39.253906 20.792969C39.148438 20.527344 38.933594 20.320313 38.667969 20.222656C38.398438 20.125 38.101563 20.144531 37.847656 20.28125C37.003906 20.738281 36.035156 21 35 21C31.675781 21 29 18.324219 29 15C29 13.964844 29.261719 12.996094 29.71875 12.152344C29.855469 11.898438 29.875 11.601563 29.777344 11.332031C29.679688 11.066406 29.472656 10.851563 29.207031 10.746094C27.917969 10.230469 27 8.984375 27 7.5C27 6.808594 27.207031 6.175781 27.558594 5.625C27.746094 5.328125 27.765625 4.957031 27.609375 4.640625C27.453125 4.328125 27.144531 4.121094 26.796875 4.089844C26.21875 4.039063 25.621094 4 25 4 Z M 38 4C36.894531 4 36 4.894531 36 6C36 7.105469 36.894531 8 38 8C39.105469 8 40 7.105469 40 6C40 4.894531 39.105469 4 38 4 Z M 25 6C25.144531 6 25.292969 6.015625 25.4375 6.023438C25.285156 6.519531 25 6.953125 25 7.5C25 9.4375 26.136719 10.984375 27.660156 11.960938C27.269531 12.90625 27 13.917969 27 15C27 19.40625 30.59375 23 35 23C36.082031 23 37.09375 22.730469 38.039063 22.339844C39.015625 23.863281 40.5625 25 42.5 25C43.046875 25 43.480469 24.714844 43.980469 24.5625C43.984375 24.707031 44 24.855469 44 25C44 35.503906 35.503906 44 25 44C14.496094 44 6 35.503906 6 25C6 14.496094 14.496094 6 25 6 Z M 36.5 12C35.671875 12 35 12.671875 35 13.5C35 14.328125 35.671875 15 36.5 15C37.328125 15 38 14.328125 38 13.5C38 12.671875 37.328125 12 36.5 12 Z M 21.5 15C20.671875 15 20 15.671875 20 16.5C20 17.328125 20.671875 18 21.5 18C22.328125 18 23 17.328125 23 16.5C23 15.671875 22.328125 15 21.5 15 Z M 45 15C44.449219 15 44 15.449219 44 16C44 16.550781 44.449219 17 45 17C45.550781 17 46 16.550781 46 16C46 15.449219 45.550781 15 45 15 Z M 15 20C13.34375 20 12 21.34375 12 23C12 24.65625 13.34375 26 15 26C16.65625 26 18 24.65625 18 23C18 21.34375 16.65625 20 15 20 Z M 24.5 24C23.671875 24 23 24.671875 23 25.5C23 26.328125 23.671875 27 24.5 27C25.328125 27 26 26.328125 26 25.5C26 24.671875 25.328125 24 24.5 24 Z M 17 31C15.894531 31 15 31.894531 15 33C15 34.105469 15.894531 35 17 35C18.105469 35 19 34.105469 19 33C19 31.894531 18.105469 31 17 31 Z M 30.5 32C29.121094 32 28 33.121094 28 34.5C28 35.878906 29.121094 37 30.5 37C31.878906 37 33 35.878906 33 34.5C33 33.121094 31.878906 32 30.5 32Z" />
</svg>