<?xml version="1.0" encoding="utf-8"?>
<svg xmlns="http://www.w3.org/2000/svg" viewBox="0 0 50 50" width="515" height="515">
  <path d="M25 2C12.264481 2 2 12.264481 2 25C2 37.735519 12.264481 48 25 48C37.735519 48 48 37.735519 48 25C48 12.264481 37.735519 2 25 2 z M 25 4C33.743042 4 41.177874 9.2440135 44.353516 16.783203C44.011173 16.705752 43.659039 16.630656 43.234375 16.5625C41.120468 16.223231 37.933724 16 33.400391 16C30.559856 16 29.262304 16.605287 27.300781 16.919922C26.856144 16.498556 26.16924 16 25 16C23.83076 16 23.143856 16.498556 22.699219 16.919922C20.737696 16.605287 19.440144 16 16.599609 16C12.062572 16 8.8716552 16.249581 6.7597656 16.601562C6.3291385 16.673334 5.9719496 16.750338 5.6269531 16.830078C8.7914968 9.2657997 16.238876 4 25 4 z M 16.599609 18C18.947872 18 20.137272 18.474148 22 18.816406L22 21C22 23.833333 21.319202 25.49515 20.203125 26.509766C19.087048 27.524381 17.366667 28 15 28C12.7 28 10.667087 27.303598 9.2460938 26.177734C7.8251002 25.05187 7 23.539141 7 21.699219C7 20.295238 6.4244419 19.414967 5.8164062 18.884766C6.191316 18.779503 6.4770962 18.676343 7.0898438 18.574219C9.0279541 18.2512 12.136646 18 16.599609 18 z M 25 18C25.546288 18 25.832826 18.229402 26 18.398438L26 21C26 24.166667 26.819202 26.50485 28.453125 27.990234C30.087048 29.475619 32.366667 30 35 30C37.7 30 40.167087 29.19523 41.996094 27.746094C43.8251 26.296958 45 24.159296 45 21.699219C45 20.519324 45.212763 20.440305 45.472656 20.294922C45.814179 21.806632 46 23.379621 46 25C46 36.664481 36.664481 46 25 46C13.335519 46 4 36.664481 4 25C4 23.380286 4.1860935 21.808017 4.5273438 20.296875C4.7875752 20.458308 5 20.61764 5 21.699219C5 24.159296 6.1748998 26.296958 8.0039062 27.746094C9.8329129 29.19523 12.3 30 15 30C17.633333 30 19.912952 29.475619 21.546875 27.990234C23.180798 26.50485 24 24.166667 24 21L24 18.398438C24.167174 18.229402 24.453712 18 25 18 z M 33.400391 18C37.867057 18 40.979922 18.226378 42.916016 18.537109C43.54556 18.638147 43.842037 18.744965 44.216797 18.851562C43.592687 19.364299 43 20.252802 43 21.699219C43 23.539141 42.1749 25.05187 40.753906 26.177734C39.332913 27.303598 37.3 28 35 28C32.633333 28 30.912952 27.524381 29.796875 26.509766C28.680798 25.49515 28 23.833333 28 21L28 18.816406C29.862728 18.474148 31.052128 18 33.400391 18 z M 38.988281 31.988281 A 1.0001 1.0001 0 0 0 38.232422 32.359375C38.232422 32.359375 33.555556 38 25 38C22.633333 38 21.03064 37.53011 20.03125 37.085938C19.03186 36.641764 18.707031 36.292969 18.707031 36.292969 A 1.0001 1.0001 0 1 0 17.292969 37.707031C17.292969 37.707031 17.96814 38.358236 19.21875 38.914062C20.46936 39.46989 22.366667 40 25 40C34.444444 40 39.767578 33.640625 39.767578 33.640625 A 1.0001 1.0001 0 0 0 38.988281 31.988281 z" />
</svg>