<?xml version="1.0" encoding="utf-8"?>
<svg xmlns="http://www.w3.org/2000/svg" width="515" height="515" viewBox="0 0 50 50">
  <path d="M34.029297 3 A 1.0001 1.0001 0 0 0 33.064453 3.6484375L30.119141 11.5L23.351562 20L17.724609 20L9.328125 19.007812 A 1.0001 1.0001 0 0 0 9.2109375 19L6.8886719 19C5.7935001 19 4.7306024 19.504031 3.7128906 19.955078C2.7273927 20.391849 1.9593347 20.799082 1.9082031 20.826172C1.9082031 20.826172 1.90625 20.828125 1.90625 20.828125C1.2151635 21.140385 0.62889319 21.652649 0.2890625 22.337891C-0.05119221 23.023987 -0.09779541 23.907175 0.26953125 24.691406 A 1.0001 1.0001 0 0 0 0.27148438 24.693359C0.88320582 25.998047 2.3699135 26.537316 3.6777344 26.166016L4 26.074219L4 38.910156C4 40.618074 5.0259081 42.26704 6.734375 42.802734C9.3961924 43.638496 12 41.612978 12 39L12 38.777344L13.478516 41.216797C13.478516 41.216797 13.480469 41.21875 13.480469 41.21875C14.23734 42.494435 15.735179 43.276695 17.259766 42.917969C19.613787 42.363547 20.67639 39.684843 19.517578 37.726562 A 1.0001 1.0001 0 0 0 19.490234 37.681641L18.408203 36.058594C19.851064 36.540365 21.727075 37 23.648438 37L30 37L30 38.910156C30 40.618074 31.025908 42.26704 32.734375 42.802734C35.396181 43.637205 38 41.612978 38 39L38 34.292969C38.397244 33.811745 41 30.580193 41 26.460938C41 24.369194 40.610115 22.834402 40.292969 21.804688C46.062945 21.266936 49.720703 17.693359 49.720703 17.693359 A 1.0001 1.0001 0 0 0 50 17L50 14 A 1.0001 1.0001 0 0 0 49.308594 13.048828L43.853516 11.285156L41.679688 9.2675781 A 1.0001 1.0001 0 0 0 41.242188 9.0292969L37.644531 8.1308594L34.857422 3.4863281 A 1.0001 1.0001 0 0 0 34.029297 3 z M 34.208984 6.2910156L36.142578 9.5136719 A 1.0001 1.0001 0 0 0 36.757812 9.9707031L40.507812 10.908203L42.654297 12.900391 A 1.0001 1.0001 0 0 0 43.027344 13.119141L48 14.728516L48 16.513672C47.629466 16.880618 44.423664 19.960544 39.066406 19.990234 A 1.0001 1.0001 0 0 0 38.603516 20.066406C35.666023 20.259711 33.726562 22.320314 33.726562 22.320312 A 1.0001 1.0001 0 1 0 35.193359 23.679688C35.193359 23.679688 36.54751 22.52842 38.326172 22.208984C38.594814 23.043972 39 24.490602 39 26.460938C39 29.877513 36.230469 33.361328 36.230469 33.361328 A 1.0001 1.0001 0 0 0 36 34L36 39C36 40.327022 34.804225 41.356061 33.332031 40.894531C32.546498 40.648225 32 39.816238 32 38.910156L32 36 A 1.0001 1.0001 0 0 0 31 35L23.648438 35C20.37914 35 16.445313 33.105469 16.445312 33.105469 A 1.0001 1.0001 0 0 0 16 33L11 33 A 1.0001 1.0001 0 0 0 10 34L10 35.064453 A 1.0001 1.0001 0 0 0 10 35.296875L10 39C10 40.327022 8.804214 41.35677 7.3320312 40.894531C6.5464981 40.648225 6 39.816238 6 38.910156L6 24.751953 A 1.0001 1.0001 0 0 0 4.7265625 23.791016L3.1328125 24.242188C2.7006334 24.364887 2.2383098 24.177068 2.0820312 23.84375C1.960358 23.583981 1.9807861 23.430716 2.0820312 23.226562C2.1832765 23.022409 2.4136836 22.793242 2.7304688 22.650391 A 1.0001 1.0001 0 0 0 2.7871094 22.621094C2.7871094 22.621094 3.5803992 22.201156 4.5234375 21.783203C5.4664754 21.365254 6.6868437 21 6.8886719 21L9.1523438 21L17.548828 21.992188 A 1.0001 1.0001 0 0 0 17.666016 22L23.832031 22 A 1.0001 1.0001 0 0 0 24.615234 21.623047L31.783203 12.623047 A 1.0001 1.0001 0 0 0 31.935547 12.351562L34.208984 6.2910156 z M 40 13 A 1 1 0 0 0 40 15 A 1 1 0 0 0 40 13 z M 12.050781 35L15.300781 35L17.796875 38.75C18.298526 39.6027 17.941829 40.702567 16.800781 40.970703C16.218339 41.107748 15.546809 40.784139 15.199219 40.197266 A 1.0001 1.0001 0 0 0 15.193359 40.189453L12.050781 35 z" />
</svg>