<?xml version="1.0" encoding="utf-8"?>
<svg xmlns="http://www.w3.org/2000/svg" viewBox="0 0 50 50" width="515" height="515">
  <path d="M25 0C21.699219 0 19 2.699219 19 6C19 9.300781 21.699219 12 25 12C28.300781 12 31 9.300781 31 6C31 2.699219 28.300781 0 25 0 Z M 25 2C27.222656 2 29 3.777344 29 6C29 8.222656 27.222656 10 25 10C22.777344 10 21 8.222656 21 6C21 3.777344 22.777344 2 25 2 Z M 20 13C19.035156 13 18.113281 13.257813 17.375 13.8125C16.636719 14.367188 16.097656 15.171875 15.75 16.15625C15.601563 16.570313 15.476563 17.144531 15.28125 17.96875C15.085938 18.792969 14.867188 19.808594 14.625 20.875C14.136719 23.007813 13.578125 25.371094 13.15625 26.6875C13.15625 26.699219 13.15625 26.707031 13.15625 26.71875C12.753906 28.023438 13.234375 29.339844 14.1875 30.15625C13.460938 30.546875 12.917969 31.222656 12.6875 32L9 32C6.253906 32 4 34.253906 4 37L4 47.6875C4 48.957031 5.042969 50 6.3125 50L7.6875 50C8.835938 50 9.703125 49.101563 9.875 48L10 48C10 47.445313 10.445313 47 11 47L14.90625 47L15 47.5625C15.011719 47.574219 15.019531 47.582031 15.03125 47.59375C15.324219 49.199219 16.859375 50.261719 18.46875 49.96875C19.914063 49.707031 20.933594 48.429688 20.90625 47L29 47C28.96875 48.429688 29.960938 49.707031 31.40625 49.96875C33.015625 50.261719 34.582031 49.199219 34.875 47.59375C34.875 47.582031 34.875 47.574219 34.875 47.5625L34.96875 47L40 47C40.554688 47 41 47.445313 41 48L41.125 48C41.296875 49.101563 42.164063 50 43.3125 50L44.6875 50C45.957031 50 47 48.957031 47 47.6875L47 37C47 34.253906 44.746094 32 42 32L37.09375 32C37.0625 32 37.03125 32 37 32C36.902344 32.007813 36.808594 32.027344 36.71875 32.0625C36.351563 31.570313 35.878906 31.226563 35.375 30.875C35.355469 30.863281 35.332031 30.851563 35.3125 30.84375L35.03125 30.65625C35.488281 30.40625 35.875 30.070313 36.1875 29.65625C36.800781 28.84375 36.9375 27.726563 36.65625 26.59375L36.6875 26.59375C36.683594 26.582031 36.660156 26.542969 36.65625 26.53125C36.445313 25.539063 35.976563 23.410156 35.46875 21.28125C34.953125 19.125 34.449219 17.070313 34.15625 16.1875C34.15625 16.175781 34.15625 16.167969 34.15625 16.15625C33.554688 14.476563 32.019531 13 29.8125 13 Z M 20 15L29.8125 15C31.195313 15 31.847656 15.710938 32.25 16.8125C32.25 16.816406 32.25 16.839844 32.25 16.84375C32.457031 17.476563 32.992188 19.589844 33.5 21.71875C34.011719 23.863281 34.523438 26.074219 34.71875 27C34.71875 27.019531 34.71875 27.042969 34.71875 27.0625C34.914063 27.808594 34.816406 28.171875 34.59375 28.46875C34.375 28.761719 33.90625 29.046875 33.125 29.21875C33.113281 29.222656 33.105469 29.214844 33.09375 29.21875L28.75 30.0625C28.761719 29.460938 28.628906 28.875 28.34375 28.375L31.34375 27.6875C31.609375 27.621094 31.832031 27.453125 31.96875 27.214844C32.105469 26.980469 32.136719 26.699219 32.0625 26.4375L30.96875 22.34375C30.84375 21.824219 30.335938 21.496094 29.8125 21.59375C29.535156 21.644531 29.296875 21.808594 29.148438 22.046875C29 22.285156 28.957031 22.574219 29.03125 22.84375L29.84375 25.96875L25.84375 26.9375C24.441406 26.621094 21.351563 25.910156 20.25 25.65625L20.78125 22.78125C20.886719 22.238281 20.527344 21.714844 19.984375 21.609375C19.441406 21.503906 18.917969 21.863281 18.8125 22.40625L18.125 26.21875C18.027344 26.742188 18.355469 27.25 18.875 27.375C18.875 27.375 24.203125 28.585938 25.75 28.9375C25.863281 28.964844 26.183594 29.046875 26.25 29.0625C26.253906 29.0625 26.277344 29.0625 26.28125 29.0625C26.851563 29.234375 27.070313 29.769531 26.9375 30.21875C26.9375 30.230469 26.9375 30.238281 26.9375 30.25C26.777344 30.839844 26.238281 31.074219 25.78125 30.9375C25.75 30.925781 25.71875 30.914063 25.6875 30.90625L16 28.90625C15.269531 28.714844 14.855469 28.046875 15.0625 27.3125C15.066406 27.300781 15.058594 27.292969 15.0625 27.28125C15.539063 25.796875 16.078125 23.476563 16.5625 21.34375C16.808594 20.273438 17.027344 19.246094 17.21875 18.4375C17.410156 17.628906 17.574219 16.980469 17.625 16.84375C17.636719 16.84375 17.644531 16.84375 17.65625 16.84375C17.910156 16.128906 18.203125 15.675781 18.5625 15.40625C18.921875 15.136719 19.367188 15 20 15 Z M 16.53125 31.0625L25.21875 32.84375L25.3125 32.875L25.3125 32.84375C26.183594 33.070313 26.996094 32.800781 27.6875 32.28125C27.691406 32.277344 27.714844 32.285156 27.71875 32.28125C27.738281 32.28125 27.761719 32.28125 27.78125 32.28125L32.375 31.40625C32.40625 31.429688 32.4375 31.449219 32.46875 31.46875L34.21875 32.53125L34.28125 32.5625C34.703125 32.867188 35.007813 33.140625 35.125 33.3125C35.25 33.496094 35.273438 33.539063 35.21875 33.8125C35.21875 33.824219 35.21875 33.832031 35.21875 33.84375L32.90625 47.21875C32.796875 47.816406 32.371094 48.140625 31.78125 48.03125C31.183594 47.921875 30.859375 47.464844 30.96875 46.875C30.980469 46.84375 30.992188 46.8125 31 46.78125L31.03125 46.375C31.03125 46.363281 31.03125 46.355469 31.03125 46.34375L31.0625 46.28125C31.113281 46.121094 31.125 45.949219 31.09375 45.78125L32 36.40625C32.050781 35.925781 31.746094 35.476563 31.28125 35.34375L25.28125 33.53125C25.105469 33.484375 24.925781 33.484375 24.75 33.53125L18.5625 35.03125C18.085938 35.152344 17.765625 35.601563 17.8125 36.09375L18.90625 46.8125C18.90625 46.832031 18.90625 46.855469 18.90625 46.875C19.015625 47.464844 18.722656 47.921875 18.125 48.03125C17.535156 48.140625 17.078125 47.816406 16.96875 47.21875L17 47.21875L16.8125 46.1875C16.8125 46.167969 16.8125 46.144531 16.8125 46.125L16.8125 46.09375C16.835938 45.902344 16.804688 45.707031 16.71875 45.53125L14.59375 33.03125C14.585938 33.011719 14.574219 32.988281 14.5625 32.96875C14.46875 32.550781 14.742188 32.113281 15.15625 31.90625C15.175781 31.898438 15.199219 31.886719 15.21875 31.875L16.40625 31.15625C16.449219 31.128906 16.492188 31.097656 16.53125 31.0625 Z M 9 34L12.71875 34L14.5625 45L11 45C9.476563 45 8.304688 46.207031 8.125 47.6875L8 47.6875C8 47.816406 7.816406 48 7.6875 48L6.3125 48C6.183594 48 6 47.816406 6 47.6875L6 37C6 35.34375 7.34375 34 9 34 Z M 37.1875 34L42 34C43.65625 34 45 35.34375 45 37L45 47.6875C45 47.816406 44.816406 48 44.6875 48L43.3125 48C43.183594 48 43 47.816406 43 47.6875L42.875 47.6875C42.695313 46.207031 41.523438 45 40 45L35.3125 45L37.1875 34.1875C37.191406 34.175781 37.183594 34.167969 37.1875 34.15625C37.199219 34.105469 37.179688 34.054688 37.1875 34 Z M 24.96875 35.53125L29.9375 37L29.15625 45L20.75 45L19.875 36.78125Z" />
</svg>