<?xml version="1.0" encoding="utf-8"?>
<svg xmlns="http://www.w3.org/2000/svg" viewBox="0 0 50 50" width="515" height="515">
  <path d="M25 2.9003906C20.069697 2.9003906 16 6.855327 16 11.800781C16 11.866154 16.01376 11.934254 16.015625 12L16 12C15 12 14.200083 11.91119 13.365234 12.375C12.94781 12.606903 12.59337 13.031107 12.419922 13.490234C12.246474 13.949362 12.199219 14.433333 12.199219 15 A 1.0001 1.0001 0 0 0 12.304688 15.447266C12.733132 16.304157 12.885866 17.169059 12.851562 17.683594C12.843563 17.80325 12.827914 17.809325 12.808594 17.880859C11.85672 17.507208 10.887893 17.300035 9.9707031 17.466797C8.8483558 17.67086 7.802128 18.529096 7.5234375 19.783203 A 1.0001 1.0001 0 0 0 7.5078125 19.880859C7.425278 20.568643 6.2847286 22.28595 5.140625 23.728516C4.5685732 24.449798 4.017032 25.12951 3.6113281 25.755859C3.4084762 26.069034 3.2362943 26.362046 3.1230469 26.716797C3.0097995 27.071548 2.9400832 27.636971 3.3105469 28.113281 A 1.0001 1.0001 0 0 0 3.7128906 28.421875C5.4422431 29.146333 6.3696802 29.924699 6.9160156 30.667969C7.462351 31.411239 7.6606515 32.156317 7.7871094 32.966797C7.9135673 33.777277 7.924998 34.639134 8.2519531 35.535156C8.5689596 36.403915 9.3385007 37.232935 10.505859 37.619141C10.583819 37.652551 10.681219 37.728687 10.794922 37.958984C10.908625 38.189282 11.005713 38.548704 11.058594 38.945312C11.164356 39.738529 11.093205 40.694405 11.015625 41.121094 A 1.0001 1.0001 0 0 0 11 41.300781C11 41.600781 10.92619 41.989104 11.205078 42.546875 A 1.0001 1.0001 0 0 0 11.226562 42.585938C11.488781 43.057929 11.952524 43.869867 12.6875 44.589844C13.422476 45.30982 14.50756 45.96554 15.849609 45.898438L15.769531 45.900391C17.206359 45.945291 19.012845 46.371959 20.5 46.734375C21.243577 46.915583 21.90423 47.079641 22.464844 47.167969C22.74515 47.212129 22.994019 47.243526 23.285156 47.222656C23.430725 47.212216 23.591525 47.190556 23.791016 47.105469C23.990507 47.020379 24.250313 46.835312 24.394531 46.546875C24.644374 46.118778 24.930074 45.486982 25.390625 44.734375C25.829408 44.017339 26.383104 43.394343 26.773438 43.113281C26.784347 43.116181 26.783442 43.113913 26.794922 43.117188C27.042152 43.187587 27.429572 43.331488 27.880859 43.527344C28.783435 43.919056 29.959737 44.510713 31.138672 45.125C32.317606 45.739287 33.502584 46.378436 34.457031 46.880859C34.934255 47.132071 35.352293 47.347263 35.693359 47.513672C36.023238 47.674622 36.194102 47.780514 36.554688 47.865234C37.354967 48.075617 37.883995 47.755258 38.416016 47.457031C38.952558 47.156271 39.485181 46.760182 39.990234 46.353516C40.495288 45.946849 40.966036 45.5287 41.335938 45.195312C41.705849 44.861885 42.065333 44.550609 42 44.599609 A 1.0001 1.0001 0 0 0 42.107422 44.507812C42.340893 44.274343 42.41429 43.966219 42.419922 43.777344C42.425522 43.588468 42.392401 43.471376 42.363281 43.375C42.305051 43.182247 42.237815 43.061886 42.167969 42.935547C42.028276 42.682868 41.860842 42.432219 41.6875 42.166016C41.379938 41.693688 41.108346 41.176546 41.029297 40.990234C41.034684 40.929247 41.040736 40.809925 41.091797 40.671875C41.200789 40.377193 41.391741 39.954944 41.634766 39.472656C42.120815 38.508081 42.812114 37.288782 43.503906 36.085938C44.195698 34.883091 44.888167 33.698203 45.394531 32.757812C45.647713 32.287619 45.852988 31.882328 46 31.533203C46.07351 31.358641 46.135463 31.204379 46.179688 31.011719C46.223908 30.819058 46.416218 30.519296 45.980469 29.974609 A 1.0001 1.0001 0 0 0 45.625 29.695312C44.353486 29.096954 43.586335 27.546294 43.195312 25.970703C42.859952 24.619394 42.865167 23.676783 42.857422 23.251953C43.126459 23.117793 43.5008 22.9531 43.900391 22.785156C44.326265 22.606166 44.76246 22.426819 45.125 22.261719C45.30627 22.179169 45.46678 22.102502 45.623047 22.011719C45.701177 21.966329 45.777214 21.919469 45.873047 21.841797C45.968877 21.764127 46.121894 21.694865 46.248047 21.316406 A 1.0001 1.0001 0 0 0 46.263672 21.267578C46.773897 19.430768 47.063215 18.075032 46.984375 16.908203C46.905535 15.741374 46.206466 14.685321 45.171875 14.271484C43.952301 13.783655 42.633338 14.059474 41.287109 14.318359C40.17025 14.53314 39.213511 14.755805 38.462891 14.890625L36.832031 12.445312 A 1.0001 1.0001 0 0 0 36 12L34 12L33.984375 12C33.986198 11.934192 34 11.866251 34 11.800781C34 6.8553269 29.930303 2.9003906 25 2.9003906 z M 25 4.9003906C28.869697 4.9003906 32 7.946236 32 11.800781C32 13.947637 30.136968 17.489716 28.177734 20.318359C26.591905 22.607901 25.551574 23.748201 25.003906 24.376953C24.457525 23.743314 23.410731 22.586478 21.822266 20.283203C19.861914 17.440693 18 13.887961 18 11.800781C18 7.946236 21.130303 4.9003906 25 4.9003906 z M 25 8C23.75 8 22.685226 8.5047556 22.001953 9.2734375C21.318681 10.042119 21 11.027778 21 12C21 12.972222 21.318681 13.957881 22.001953 14.726562C22.685226 15.495245 23.75 16 25 16C26.25 16 27.314774 15.495244 27.998047 14.726562C28.681319 13.957882 29 12.972222 29 12C29 11.027778 28.681319 10.042119 27.998047 9.2734375C27.314774 8.5047556 26.25 8 25 8 z M 25 10C25.749999 10 26.185226 10.245244 26.501953 10.601562C26.81868 10.957882 27 11.472222 27 12C27 12.527778 26.81868 13.042119 26.501953 13.398438C26.185226 13.754755 25.749999 14 25 14C24.250001 14 23.814774 13.754756 23.498047 13.398438C23.18132 13.042118 23 12.527778 23 12C23 11.472222 23.18132 10.957881 23.498047 10.601562C23.814774 10.245245 24.250001 10 25 10 z M 16 14L16.320312 14C16.985366 16.51101 18.605766 19.138615 20.177734 21.417969C22.217383 24.375459 24.251953 26.664062 24.251953 26.664062 A 1.0001 1.0001 0 0 0 25.744141 26.667969C25.744141 26.667969 27.781499 24.403388 29.822266 21.457031C31.399601 19.179757 33.02245 16.538372 33.683594 14L34 14L35.464844 14L37.167969 16.554688 A 1.0001 1.0001 0 0 0 38.117188 16.992188C39.116329 16.874641 40.410291 16.52236 41.664062 16.28125C42.917834 16.04014 44.147309 16.016736 44.427734 16.128906C44.893144 16.31507 44.944074 16.359798 44.990234 17.042969C45.032144 17.663203 44.794472 18.879055 44.396484 20.392578C44.356624 20.411738 44.343705 20.420076 44.296875 20.441406C43.99379 20.579431 43.561626 20.757897 43.125 20.941406C42.688374 21.124916 42.248493 21.311652 41.876953 21.501953C41.691183 21.597103 41.52509 21.687989 41.351562 21.816406C41.264803 21.880616 41.174435 21.951977 41.068359 22.080078C40.962284 22.208179 40.800781 22.421615 40.800781 22.800781C40.800781 22.950781 40.794881 24.603716 41.253906 26.453125C41.651808 28.056436 42.456749 29.876902 44.037109 30.998047C43.931669 31.224629 43.817088 31.46637 43.632812 31.808594C43.154801 32.696329 42.467192 33.88019 41.771484 35.089844C41.075776 36.299498 40.372935 37.535669 39.849609 38.574219C39.587947 39.093493 39.369524 39.560307 39.214844 39.978516C39.061499 40.393114 38.872964 40.678679 39.03125 41.330078C39.213839 42.130921 39.660954 42.719138 40.011719 43.257812C40.089079 43.376615 40.125026 43.440041 40.189453 43.541016C40.120783 43.604736 40.083552 43.633875 39.998047 43.710938C39.639823 44.0338 39.191822 44.428541 38.734375 44.796875C38.276928 45.165209 37.804083 45.507401 37.4375 45.712891C37.189104 45.852129 36.998979 45.871948 36.974609 45.892578C36.885809 45.856696 36.740665 45.799911 36.570312 45.716797C36.265285 45.567972 35.85637 45.358554 35.386719 45.111328C34.447416 44.616877 33.258565 43.974776 32.0625 43.351562C30.866435 42.72835 29.666956 42.123523 28.675781 41.693359C28.180194 41.478278 27.74066 41.306941 27.341797 41.193359C27.142365 41.136569 26.954221 41.090969 26.742188 41.072266C26.530152 41.053566 26.275786 41.025606 25.914062 41.226562 A 1.0001 1.0001 0 0 0 25.904297 41.232422C24.890394 41.811795 24.230722 42.797318 23.683594 43.691406C23.248195 44.402911 23.012441 44.892654 22.855469 45.199219C22.816599 45.194619 22.820241 45.19846 22.775391 45.191406C22.364129 45.126606 21.718532 44.972308 20.974609 44.791016C19.486764 44.428431 17.595204 43.95549 15.832031 43.900391 A 1.0001 1.0001 0 0 0 15.75 43.900391C15.092085 43.933234 14.577915 43.64018 14.087891 43.160156C13.606514 42.688603 13.232829 42.07021 12.994141 41.642578C13.061155 41.773111 13.004759 41.596028 13.001953 41.316406C13.110349 40.643153 13.175867 39.691068 13.041016 38.679688C12.968896 38.138796 12.842937 37.590796 12.587891 37.074219C12.332844 36.557641 11.915015 36.047841 11.292969 35.78125 A 1.0001 1.0001 0 0 0 11.1875 35.742188C10.417437 35.511169 10.297654 35.306712 10.130859 34.849609C9.9640649 34.392507 9.912214 33.610223 9.7636719 32.658203C9.6151298 31.706183 9.3247584 30.56923 8.5273438 29.484375C7.8480332 28.560197 6.7217606 27.725282 5.2148438 26.980469C5.2480648 26.922409 5.2455095 26.910989 5.2890625 26.84375C5.5958586 26.3701 6.1310362 25.69942 6.7089844 24.970703C7.8648808 23.513268 9.274722 21.931353 9.4921875 20.119141L9.4765625 20.216797C9.597872 19.670904 9.8004724 19.529531 10.328125 19.433594C10.855778 19.337654 11.701806 19.469064 12.552734 19.894531 A 1.0001 1.0001 0 0 0 13 20C13.583333 20 14.148173 19.633469 14.429688 19.205078C14.711201 18.776687 14.814807 18.309139 14.847656 17.816406C14.908174 16.908666 14.68851 15.873241 14.208984 14.822266C14.222227 14.509113 14.258561 14.283157 14.291016 14.197266C14.330066 14.093893 14.303367 14.1431 14.335938 14.125C14.401087 14.088809 15 14 16 14 z M 17 30 A 2 2 0 0 0 17 34 A 2 2 0 0 0 17 30 z M 40.970703 40.857422C40.985111 40.915055 40.980977 40.877372 40.988281 40.90625C40.987395 40.903336 40.977058 40.88504 40.976562 40.882812 A 1.0001 1.0001 0 0 0 40.970703 40.857422 z M 37.007812 45.917969C37.02483 45.923885 37.028114 45.926169 37.0625 45.935547 A 1.0001 1.0001 0 0 0 37.017578 45.923828C37.032873 45.927227 37.000427 45.916824 37.007812 45.917969 z" />
</svg>