<?xml version="1.0" encoding="utf-8"?>
<svg xmlns="http://www.w3.org/2000/svg" viewBox="0 0 50 50" width="515" height="515">
  <path d="M16.984375 10.986328 A 1.0001 1.0001 0 0 0 16.839844 11L2 11 A 1.0001 1.0001 0 0 0 1 12L1 38 A 1.0001 1.0001 0 0 0 2 39L16.832031 39 A 1.0001 1.0001 0 0 0 17.158203 39L32.832031 39 A 1.0001 1.0001 0 0 0 33.158203 39L48 39 A 1.0001 1.0001 0 0 0 49 38L49 12 A 1.0001 1.0001 0 0 0 48 11L33.154297 11 A 1.0001 1.0001 0 0 0 32.984375 10.986328 A 1.0001 1.0001 0 0 0 32.839844 11L17.154297 11 A 1.0001 1.0001 0 0 0 16.984375 10.986328 z M 3 13L16 13L16 37L3 37L3 13 z M 18 13L32 13L32 37L18 37L18 13 z M 34 13L47 13L47 37L34 37L34 13 z M 9.4902344 18.296875C6.3702344 18.296875 4.4550781 20.740406 4.4550781 24.941406C4.4550781 29.151406 6.3522344 31.630859 9.4902344 31.630859C12.628234 31.630859 14.527344 29.141219 14.527344 24.949219C14.527344 20.739219 12.601234 18.296875 9.4902344 18.296875 z M 24.994141 18.296875C21.874141 18.296875 19.958984 20.740406 19.958984 24.941406C19.958984 29.151406 21.856141 31.630859 24.994141 31.630859C28.132141 31.630859 30.03125 29.141219 30.03125 24.949219C30.03125 20.739219 28.105141 18.296875 24.994141 18.296875 z M 40.5 18.296875C37.38 18.296875 35.464844 20.740406 35.464844 24.941406C35.464844 29.151406 37.362 31.630859 40.5 31.630859C43.638 31.630859 45.535156 29.141219 45.535156 24.949219C45.535156 20.739219 43.611 18.296875 40.5 18.296875 z M 9.4902344 20.46875C10.941234 20.46875 11.837891 21.988406 11.837891 24.941406C11.837891 27.912406 10.949234 29.46975 9.4902344 29.46875C8.0392344 29.46875 7.1445312 27.903406 7.1445312 24.941406C7.1445312 21.996406 8.0492344 20.46875 9.4902344 20.46875 z M 24.994141 20.46875C26.445141 20.46875 27.341797 21.988406 27.341797 24.941406C27.341797 27.912406 26.454141 29.46975 24.994141 29.46875C23.543141 29.46875 22.648438 27.903406 22.648438 24.941406C22.648438 21.996406 23.553141 20.46875 24.994141 20.46875 z M 40.5 20.46875C41.951 20.46875 42.847656 21.988406 42.847656 24.941406C42.847656 27.912406 41.959 29.46975 40.5 29.46875C39.049 29.46875 38.152344 27.903406 38.152344 24.941406C38.152344 21.996406 39.059 20.46875 40.5 20.46875 z" />
</svg>