<?xml version="1.0" encoding="utf-8"?>
<svg xmlns="http://www.w3.org/2000/svg" viewBox="0 0 50 50" width="515" height="515">
  <path d="M11.4375 8.71875C7.878906 8.71875 4.980469 9.777344 3 11.75C1.019531 13.722656 0 16.566406 0 19.875C0 20.664063 0.195313 21.710938 0.4375 22.84375C0.632813 23.742188 0.878906 24.515625 1.09375 25.21875C0.910156 25.390625 0.742188 25.453125 0.5625 25.71875C0.191406 26.273438 -0.078125 27.09375 0.03125 28.03125C0.320313 30.472656 1.761719 31.382813 2.4375 31.75C2.664063 32.992188 3.246094 34.449219 4.25 35.96875C5.277344 37.523438 6.730469 38.980469 8.46875 39.875C8.488281 39.886719 8.511719 39.894531 8.53125 39.90625C9.207031 40.710938 10.230469 41.28125 11.375 41.28125C12.363281 41.28125 13.214844 40.8125 13.875 40.1875C15.839844 39.339844 17.394531 37.6875 18.53125 36C18.589844 35.914063 18.632813 35.832031 18.6875 35.75C18.808594 35.84375 18.945313 35.90625 19.09375 35.9375C19.09375 35.9375 20.585938 36.457031 22.5 36.96875C24.394531 37.476563 26.703125 37.988281 28.59375 38C30.085938 39.804688 31.949219 41 34 41C36.042969 41 37.886719 39.800781 39.375 38C39.425781 38.003906 39.480469 38.003906 39.53125 38C45.511719 38 49.25 36.96875 49.25 36.96875C49.609375 36.875 49.882813 36.589844 49.96875 36.230469C50.054688 35.871094 49.933594 35.492188 49.65625 35.25C48.023438 33.796875 47.851563 32.308594 48.0625 30.28125C48.273438 28.253906 49 25.855469 49 23.1875C49 20.886719 48.621094 18.175781 47.28125 15.9375C46 13.792969 43.6875 12.195313 40.40625 12.0625C39.917969 11.421875 37.953125 9 33.625 9C29.316406 9 26.0625 10.785156 23.9375 12.96875C23.160156 13.769531 22.53125 14.597656 22.03125 15.4375C21.898438 15.132813 21.746094 14.824219 21.5625 14.53125C20.777344 13.285156 19.359375 12.347656 17.53125 12.15625C17.136719 11.417969 15.589844 8.71875 11.4375 8.71875 Z M 11.4375 10.71875C15.144531 10.71875 16.0625 13.375 16.0625 13.375C16.214844 13.757813 16.589844 14.003906 17 14C18.480469 14 19.277344 14.648438 19.875 15.59375C20.472656 16.539063 20.71875 17.816406 20.71875 18.75C20.71875 21.296875 20.140625 23.804688 19.6875 25.1875C19.53125 25.636719 19.714844 26.132813 20.125 26.375C20.179688 26.410156 20.386719 26.570313 20.53125 26.8125C20.675781 27.054688 20.804688 27.34375 20.75 27.8125C20.625 28.871094 20.183594 29.453125 19.8125 29.8125C19.441406 30.171875 19.1875 30.25 19.1875 30.25C18.824219 30.382813 18.570313 30.710938 18.53125 31.09375C18.460938 31.773438 17.867188 33.402344 16.875 34.875C15.882813 36.347656 14.488281 37.726563 13.0625 38.34375C12.917969 38.40625 12.789063 38.503906 12.6875 38.625C12.363281 39.023438 11.914063 39.28125 11.375 39.28125C10.832031 39.28125 10.355469 39.023438 10.03125 38.625C9.929688 38.503906 9.800781 38.40625 9.65625 38.34375C8.246094 37.726563 6.910156 36.347656 5.9375 34.875C4.964844 33.402344 4.355469 31.78125 4.28125 31.09375C4.242188 30.710938 3.988281 30.382813 3.625 30.25C3.625 30.25 2.246094 29.902344 2 27.8125C1.949219 27.367188 2.058594 27.082031 2.21875 26.84375C2.378906 26.605469 2.617188 26.4375 2.71875 26.375C3.117188 26.125 3.285156 25.628906 3.125 25.1875C2.921875 24.601563 2.636719 23.476563 2.40625 22.40625C2.175781 21.335938 2 20.253906 2 19.875C2 16.964844 2.859375 14.726563 4.40625 13.1875C5.953125 11.648438 8.265625 10.71875 11.4375 10.71875 Z M 33.625 11C37.640625 11 39.15625 13.53125 39.15625 13.53125C39.339844 13.820313 39.65625 14 40 14C42.914063 14 44.507813 15.207031 45.5625 16.96875C46.617188 18.730469 47 21.128906 47 23.1875C47 25.480469 46.332031 27.792969 46.09375 30.09375C45.910156 31.871094 46.085938 33.707031 47.15625 35.34375C45.902344 35.59375 43.894531 35.898438 40.75 35.96875C42.113281 33.550781 43 30.515625 43 27.28125C43 20.984375 38.6875 17.65625 38.6875 17.65625L37.78125 16.96875L37.21875 17.96875C37.21875 17.96875 35.898438 20.335938 32.5 21.40625C31.308594 21.78125 29.542969 21.964844 27.96875 22.65625C27.183594 23.003906 26.433594 23.507813 25.875 24.28125C25.316406 25.054688 25 26.070313 25 27.28125C25 30.472656 25.835938 33.484375 27.15625 35.875C25.835938 35.707031 24.300781 35.378906 23 35.03125C21.15625 34.539063 19.75 34.03125 19.75 34.03125C19.71875 34.019531 19.6875 34.007813 19.65625 34C20.019531 33.214844 20.277344 32.464844 20.40625 31.78125C20.667969 31.648438 20.824219 31.628906 21.21875 31.25C21.867188 30.625 22.539063 29.578125 22.71875 28.0625C22.828125 27.148438 22.589844 26.347656 22.25 25.78125C22.089844 25.515625 21.925781 25.429688 21.75 25.25C22.152344 23.902344 22.535156 22.03125 22.65625 19.9375C22.699219 19.816406 22.722656 19.691406 22.71875 19.5625C22.71875 18.519531 23.574219 16.226563 25.375 14.375C27.175781 12.523438 29.863281 11 33.625 11 Z M 15.90625 15.96875C15.863281 15.976563 15.820313 15.988281 15.78125 16C15.550781 16.039063 15.339844 16.164063 15.1875 16.34375C15.1875 16.355469 15.1875 16.363281 15.1875 16.375C15.082031 16.492188 15.007813 16.628906 14.96875 16.78125C14.847656 16.945313 14.625 17.171875 14.21875 17.46875C13.507813 17.988281 12.324219 18.5625 10.3125 18.5625C8.820313 18.5625 7.4375 18.859375 6.3125 19.53125C5.1875 20.203125 4.324219 21.265625 4.03125 22.59375C3.902344 22.957031 3.996094 23.363281 4.265625 23.636719C4.539063 23.90625 4.945313 24 5.308594 23.871094C5.671875 23.742188 5.929688 23.414063 5.96875 23.03125C6.140625 22.257813 6.578125 21.6875 7.3125 21.25C8.046875 20.8125 9.109375 20.5625 10.3125 20.5625C12.710938 20.5625 14.371094 19.847656 15.40625 19.09375C15.597656 18.953125 15.753906 18.832031 15.90625 18.6875C16.410156 19.59375 17 21.042969 17 22.8125C16.996094 23.171875 17.183594 23.507813 17.496094 23.691406C17.808594 23.871094 18.191406 23.871094 18.503906 23.691406C18.816406 23.507813 19.003906 23.171875 19 22.8125C19 19.246094 17.132813 16.792969 16.875 16.46875C16.832031 16.398438 16.777344 16.335938 16.71875 16.28125C16.707031 16.269531 16.699219 16.261719 16.6875 16.25C16.667969 16.226563 16.648438 16.207031 16.625 16.1875C16.613281 16.1875 16.605469 16.1875 16.59375 16.1875C16.582031 16.175781 16.574219 16.167969 16.5625 16.15625C16.550781 16.144531 16.542969 16.136719 16.53125 16.125C16.511719 16.113281 16.488281 16.101563 16.46875 16.09375C16.457031 16.09375 16.449219 16.09375 16.4375 16.09375C16.417969 16.082031 16.394531 16.070313 16.375 16.0625C16.335938 16.050781 16.292969 16.039063 16.25 16.03125C16.230469 16.019531 16.207031 16.007813 16.1875 16C16.097656 15.976563 16 15.964844 15.90625 15.96875 Z M 38.125 19.96875C38.980469 20.75 41 22.855469 41 27.28125C41 30.449219 40.039063 33.460938 38.65625 35.625C37.273438 37.789063 35.519531 39 34 39C32.476563 39 30.726563 37.8125 29.34375 35.65625C27.960938 33.5 27 30.476563 27 27.28125C27 26.394531 27.207031 25.84375 27.5 25.4375C27.792969 25.03125 28.207031 24.722656 28.78125 24.46875C29.929688 23.964844 31.597656 23.785156 33.09375 23.3125C35.957031 22.410156 37.34375 20.953125 38.125 19.96875 Z M 7 26C6.449219 26 6 26.449219 6 27C6 27.550781 6.449219 28 7 28C7.550781 28 8 27.550781 8 27C8 26.449219 7.550781 26 7 26 Z M 16 26C15.449219 26 15 26.449219 15 27C15 27.550781 15.449219 28 16 28C16.550781 28 17 27.550781 17 27C17 26.449219 16.550781 26 16 26 Z M 30 27C29.449219 27 29 27.449219 29 28C29 28.550781 29.449219 29 30 29C30.550781 29 31 28.550781 31 28C31 27.449219 30.550781 27 30 27 Z M 38 27C37.449219 27 37 27.449219 37 28C37 28.550781 37.449219 29 38 29C38.550781 29 39 28.550781 39 28C39 27.449219 38.550781 27 38 27Z" />
</svg>