<?xml version="1.0" encoding="utf-8"?>
<svg xmlns="http://www.w3.org/2000/svg" viewBox="0 0 50 50" width="515" height="515">
  <path d="M4.9375 4.90625C3.652344 4.90625 2.390625 5.421875 1.40625 6.40625C-0.5625 8.375 -0.5625 11.53125 1.40625 13.5L3.40625 15.5C4.386719 16.480469 5.703125 16.886719 7.03125 16.84375L9.1875 19L7 21.15625C5.679688 21.121094 4.378906 21.527344 3.40625 22.5L1.40625 24.5C-0.5625 26.46875 -0.5625 29.625 1.40625 31.59375C3.375 33.5625 6.53125 33.5625 8.5 31.59375L10.5 29.59375C11.480469 28.613281 11.886719 27.296875 11.84375 25.96875L31.09375 6.71875C31.386719 6.4375 31.476563 6.003906 31.328125 5.628906C31.175781 5.25 30.8125 5.003906 30.40625 5L26.09375 5C24.257813 5 22.480469 5.703125 21.1875 7.09375C21.175781 7.105469 21.167969 7.113281 21.15625 7.125L14 14.1875L11.84375 12.03125C11.886719 10.703125 11.480469 9.386719 10.5 8.40625L8.5 6.40625C7.515625 5.421875 6.222656 4.90625 4.9375 4.90625 Z M 4.9375 6.875C5.699219 6.875 6.476563 7.195313 7.09375 7.8125L9.09375 9.8125C9.757813 10.476563 10.050781 11.472656 9.90625 12.34375C9.851563 12.664063 9.957031 12.988281 10.1875 13.21875L12.59375 15.625L10.625 17.59375L8.21875 15.1875C7.988281 14.957031 7.664063 14.851563 7.34375 14.90625C6.472656 15.050781 5.476563 14.757813 4.8125 14.09375L2.8125 12.09375C1.582031 10.863281 1.582031 9.042969 2.8125 7.8125C3.429688 7.195313 4.175781 6.875 4.9375 6.875 Z M 26.09375 7L27.96875 7L10.1875 24.78125C9.957031 25.011719 9.851563 25.335938 9.90625 25.65625C10.050781 26.527344 9.757813 27.523438 9.09375 28.1875L7.09375 30.1875C5.863281 31.417969 4.042969 31.417969 2.8125 30.1875C1.582031 28.957031 1.582031 27.136719 2.8125 25.90625L4.8125 23.90625C5.476563 23.242188 6.472656 22.949219 7.34375 23.09375C7.664063 23.148438 7.988281 23.042969 8.21875 22.8125L22.59375 8.5C22.605469 8.488281 22.613281 8.480469 22.625 8.46875C23.53125 7.480469 24.742188 7 26.09375 7 Z M 5.5 9.03125C5.101563 9.019531 4.707031 9.15625 4.40625 9.40625C3.804688 9.90625 3.804688 10.898438 4.40625 11.5L5.40625 12.5C6.007813 13.101563 6.992188 13.09375 7.59375 12.59375C8.195313 11.992188 8.195313 11.101563 7.59375 10.5L6.59375 9.5C6.292969 9.199219 5.898438 9.042969 5.5 9.03125 Z M 24.59375 16L22.59375 18L26 18L26 16 Z M 28 16L28 18L32 18L32 16 Z M 34 16L34 18L38 18L38 16 Z M 40 16L40 18L44 18L44 16 Z M 46 16L46 18L48 18L48 20L50 20L50 16 Z M 14 17.90625C13.390625 17.90625 12.90625 18.390625 12.90625 19C12.90625 19.609375 13.390625 20.09375 14 20.09375C14.609375 20.09375 15.09375 19.609375 15.09375 19C15.09375 18.390625 14.609375 17.90625 14 17.90625 Z M 20.21875 20.40625L18.78125 21.8125L27.96875 31L26.09375 31C24.742188 31 23.53125 30.519531 22.625 29.53125C22.613281 29.519531 22.605469 29.511719 22.59375 29.5L16.90625 23.78125L15.5 25.21875L21.15625 30.875C21.167969 30.886719 21.175781 30.894531 21.1875 30.90625C22.480469 32.296875 24.257813 33 26.09375 33L30.40625 33C30.8125 32.996094 31.175781 32.75 31.328125 32.371094C31.476563 31.996094 31.386719 31.5625 31.09375 31.28125 Z M 48 22L48 26L50 26L50 22 Z M 6.5625 24.9375C6.1875 24.9375 5.800781 25.105469 5.5 25.40625L4.5 26.40625C3.898438 27.007813 3.898438 27.898438 4.5 28.5C5.101563 29.101563 5.992188 29.101563 6.59375 28.5L7.59375 27.5C8.09375 27 8.09375 26.007813 7.59375 25.40625C7.292969 25.105469 6.9375 24.9375 6.5625 24.9375 Z M 48 28L48 32L50 32L50 28 Z M 12 32L10 34L10 38L12 38 Z M 48 34L48 38L50 38L50 34 Z M 10 40L10 44L14 44L14 42L12 42L12 40 Z M 48 40L48 42L46 42L46 44L50 44L50 40 Z M 16 42L16 44L20 44L20 42 Z M 22 42L22 44L26 44L26 42 Z M 28 42L28 44L32 44L32 42 Z M 34 42L34 44L38 44L38 42 Z M 40 42L40 44L44 44L44 42Z" />
</svg>