<?xml version="1.0" encoding="utf-8"?>
<svg xmlns="http://www.w3.org/2000/svg" viewBox="0 0 50 50" width="515" height="515">
  <path d="M5.101563 3C3.945313 3 3 3.945313 3 5.101563L3 44.902344C3 46.054688 3.945313 47 5.101563 47L16.902344 47C17.316406 47 17.703125 46.890625 18.03125 46.699219C18.34375 46.886719 18.707031 47 19.097656 47L30.265625 47C29.816406 46.375 29.425781 45.707031 29.101563 45L19.097656 45C19.050781 45 19 44.949219 19 44.902344L19 14.097656C19 14.050781 19.050781 14 19.097656 14L30.902344 14C30.949219 14 31 14.050781 31 14.097656L31 32.078125C31.597656 31.402344 32.265625 30.796875 33 30.265625L33 5.101563C33 5.050781 33.050781 5 33.097656 5L44.902344 5C44.949219 5 45 5.050781 45 5.101563L45 29.101563C45.707031 29.425781 46.375 29.816406 47 30.265625L47 5.101563C47 3.941406 46.058594 3 44.902344 3L33.097656 3C31.941406 3 31 3.941406 31 5.101563L31 12.011719C30.964844 12.007813 30.933594 12 30.902344 12L19.097656 12C19.066406 12 19.035156 12.007813 19 12.011719L19 5.101563C19 3.945313 18.054688 3 16.902344 3 Z M 5.101563 5L16.902344 5C16.945313 5 17 5.054688 17 5.101563L17 45C17 44.832031 16.945313 45 16.902344 45L5.101563 45C5.054688 45 5 44.945313 5 44.902344L5 5.101563C5 5.054688 5.054688 5 5.101563 5 Z M 8 11C7.640625 10.996094 7.304688 11.183594 7.121094 11.496094C6.941406 11.808594 6.941406 12.191406 7.121094 12.503906C7.304688 12.816406 7.640625 13.003906 8 13L14 13C14.359375 13.003906 14.695313 12.816406 14.878906 12.503906C15.058594 12.191406 15.058594 11.808594 14.878906 11.496094C14.695313 11.183594 14.359375 10.996094 14 11 Z M 36 11C35.640625 10.996094 35.304688 11.183594 35.121094 11.496094C34.941406 11.808594 34.941406 12.191406 35.121094 12.503906C35.304688 12.816406 35.640625 13.003906 36 13L42 13C42.359375 13.003906 42.695313 12.816406 42.878906 12.503906C43.058594 12.191406 43.058594 11.808594 42.878906 11.496094C42.695313 11.183594 42.359375 10.996094 42 11 Z M 22 20C21.640625 19.996094 21.304688 20.183594 21.121094 20.496094C20.941406 20.808594 20.941406 21.191406 21.121094 21.503906C21.304688 21.816406 21.640625 22.003906 22 22L28 22C28.359375 22.003906 28.695313 21.816406 28.878906 21.503906C29.058594 21.191406 29.058594 20.808594 28.878906 20.496094C28.695313 20.183594 28.359375 19.996094 28 20 Z M 40 30C34.488281 30 30 34.488281 30 40C30 45.511719 34.488281 50 40 50C45.511719 50 50 45.511719 50 40C50 34.488281 45.511719 30 40 30 Z M 40 32C44.429688 32 48 35.570313 48 40C48 44.429688 44.429688 48 40 48C35.570313 48 32 44.429688 32 40C32 35.570313 35.570313 32 40 32 Z M 8 34C7.640625 33.996094 7.304688 34.183594 7.121094 34.496094C6.941406 34.808594 6.941406 35.191406 7.121094 35.503906C7.304688 35.816406 7.640625 36.003906 8 36L14 36C14.359375 36.003906 14.695313 35.816406 14.878906 35.503906C15.058594 35.191406 15.058594 34.808594 14.878906 34.496094C14.695313 34.183594 14.359375 33.996094 14 34 Z M 44.238281 35.347656L38.847656 41.640625L35.597656 39.199219L34.402344 40.800781L39.152344 44.359375L45.761719 36.652344 Z M 8 38C7.640625 37.996094 7.304688 38.183594 7.121094 38.496094C6.941406 38.808594 6.941406 39.191406 7.121094 39.503906C7.304688 39.816406 7.640625 40.003906 8 40L14 40C14.359375 40.003906 14.695313 39.816406 14.878906 39.503906C15.058594 39.191406 15.058594 38.808594 14.878906 38.496094C14.695313 38.183594 14.359375 37.996094 14 38 Z M 22 39C21.449219 39 21 39.449219 21 40C21 40.550781 21.449219 41 22 41L28.050781 41C28.023438 40.667969 28 40.339844 28 40C28 39.660156 28.023438 39.332031 28.050781 39Z" />
</svg>