<?xml version="1.0" encoding="utf-8"?>
<svg xmlns="http://www.w3.org/2000/svg" viewBox="0 0 50 50" width="515" height="515">
  <path d="M11.03125 1.0625C10.96875 1.066406 10.90625 1.078125 10.84375 1.09375C10.378906 1.199219 10.050781 1.617188 10.0625 2.09375C10.0625 2.480469 10.015625 4.640625 10.75 6.8125C11.292969 8.421875 12.386719 10.125 14.21875 11.09375C13.917969 11.332031 13.636719 11.601563 13.375 11.875C11.863281 11.113281 9.925781 10.394531 7.875 10.375C5.785156 10.355469 4.011719 10.574219 2.6875 10.96875C2.027344 11.164063 1.484375 11.40625 1.03125 11.71875C0.578125 12.03125 0.09375 12.488281 0.09375 13.21875C0.09375 14.292969 0.640625 15.484375 1.71875 16.65625C2.796875 17.828125 4.511719 18.832031 6.78125 18.84375C8.179688 18.851563 9.402344 18.519531 10.53125 18.0625C10.308594 19.113281 10.140625 20.230469 9.96875 21.4375C9.964844 21.480469 9.964844 21.519531 9.96875 21.5625C9.96875 26.292969 11.554688 29.828125 13.09375 32.4375C13.863281 33.742188 14.59375 34.828125 15.125 35.71875C15.644531 36.589844 15.925781 37.246094 15.9375 37.625C15.914063 37.664063 15.894531 37.707031 15.875 37.75C15.800781 37.898438 15.667969 38.210938 15.5 38.75C15.234375 39.601563 15 40.917969 15 43.09375C15 44.832031 16.101563 46.363281 17.84375 47.375C19.585938 48.386719 22 48.96875 25 48.96875C28 48.96875 30.414063 48.386719 32.15625 47.375C33.898438 46.363281 35 44.828125 35 43.09375C35 40.917969 34.765625 39.605469 34.5 38.75C34.34375 38.253906 34.230469 37.949219 34.15625 37.78125C34.128906 37.738281 34.097656 37.695313 34.0625 37.65625C34.0625 37.640625 34.058594 37.625 34.0625 37.625C34.074219 37.246094 34.355469 36.589844 34.875 35.71875C35.40625 34.828125 36.136719 33.742188 36.90625 32.4375C38.445313 29.824219 40.03125 26.292969 40.03125 21.5625C40.035156 21.519531 40.035156 21.480469 40.03125 21.4375C39.859375 20.230469 39.691406 19.113281 39.46875 18.0625C40.597656 18.519531 41.820313 18.851563 43.21875 18.84375C45.488281 18.832031 47.203125 17.828125 48.28125 16.65625C49.359375 15.484375 49.90625 14.292969 49.90625 13.21875C49.90625 12.488281 49.421875 12.03125 48.96875 11.71875C48.515625 11.40625 47.972656 11.164063 47.3125 10.96875C45.988281 10.574219 44.214844 10.355469 42.125 10.375C40.074219 10.394531 38.136719 11.113281 36.625 11.875C36.363281 11.601563 36.082031 11.332031 35.78125 11.09375C37.613281 10.125 38.707031 8.421875 39.25 6.8125C39.984375 4.640625 39.9375 2.480469 39.9375 2.09375C39.941406 1.804688 39.816406 1.53125 39.601563 1.339844C39.386719 1.148438 39.097656 1.058594 38.8125 1.09375C38.496094 1.132813 38.21875 1.316406 38.0625 1.59375C36.785156 3.957031 35.519531 4.972656 34.125 5.5C32.84375 5.984375 31.335938 6.039063 29.53125 6.03125C29.492188 5.964844 29.445313 5.910156 29.40625 5.84375C29.003906 5.148438 28.636719 4.40625 27.9375 3.8125C27.238281 3.21875 26.242188 2.875 25 2.875C23.757813 2.875 22.761719 3.21875 22.0625 3.8125C21.363281 4.40625 20.996094 5.148438 20.59375 5.84375C20.554688 5.910156 20.507813 5.964844 20.46875 6.03125C18.664063 6.039063 17.15625 5.984375 15.875 5.5C14.480469 4.972656 13.214844 3.957031 11.9375 1.59375C11.761719 1.257813 11.410156 1.054688 11.03125 1.0625 Z M 25 4.875C25.914063 4.875 26.289063 5.058594 26.625 5.34375C26.960938 5.628906 27.28125 6.140625 27.6875 6.84375C28.46875 8.199219 29.683594 10.148438 32.6875 11.59375C32.820313 11.707031 32.984375 11.78125 33.15625 11.8125C34.8125 12.59375 35.777344 13.65625 36.5 15.21875C37.226563 16.796875 37.652344 18.933594 38.03125 21.5625C38.03125 25.851563 36.636719 28.945313 35.1875 31.40625C34.464844 32.636719 33.746094 33.703125 33.15625 34.6875C32.960938 35.015625 32.785156 35.335938 32.625 35.65625C32.5625 35.605469 32.5 35.542969 32.4375 35.5C31.871094 35.089844 31.398438 34.871094 31.0625 34.5625C30.726563 34.253906 30.453125 33.847656 30.1875 32.90625C29.9375 32.015625 29.769531 30.570313 29.75 28.53125C30.019531 27.957031 30.671875 27.410156 31.59375 26.90625C32.5625 26.378906 33.707031 26.027344 34.4375 25C34.691406 24.640625 34.695313 24.4375 34.75 24.15625C34.804688 23.875 34.847656 23.542969 34.875 23.1875C34.933594 22.476563 34.953125 21.628906 34.90625 20.75C34.859375 19.871094 34.742188 18.976563 34.53125 18.1875C34.320313 17.398438 34.0625 16.644531 33.28125 16.15625C31.035156 14.761719 27.839844 13.761719 25.1875 13.71875C25.125 13.71875 25.0625 13.71875 25 13.71875C24.96875 13.71875 24.9375 13.71875 24.90625 13.71875C24.863281 13.714844 24.824219 13.714844 24.78125 13.71875C22.136719 13.769531 18.957031 14.765625 16.71875 16.15625C15.9375 16.640625 15.679688 17.398438 15.46875 18.1875C15.257813 18.976563 15.140625 19.871094 15.09375 20.75C15.046875 21.628906 15.066406 22.476563 15.125 23.1875C15.152344 23.542969 15.195313 23.875 15.25 24.15625C15.304688 24.4375 15.304688 24.640625 15.5625 25C16.292969 26.027344 17.4375 26.378906 18.40625 26.90625C19.328125 27.410156 19.980469 27.957031 20.25 28.53125C20.230469 30.570313 20.0625 32.015625 19.8125 32.90625C19.546875 33.847656 19.273438 34.253906 18.9375 34.5625C18.601563 34.871094 18.128906 35.089844 17.5625 35.5C17.5 35.542969 17.4375 35.605469 17.375 35.65625C17.214844 35.335938 17.039063 35.015625 16.84375 34.6875C16.253906 33.703125 15.535156 32.636719 14.8125 31.40625C13.363281 28.945313 11.96875 25.851563 11.96875 21.5625C12.347656 18.933594 12.773438 16.796875 13.5 15.21875C14.226563 13.640625 15.21875 12.59375 16.90625 11.8125C17.070313 11.769531 17.222656 11.683594 17.34375 11.5625C20.320313 10.117188 21.535156 8.191406 22.3125 6.84375C22.71875 6.140625 23.039063 5.628906 23.375 5.34375C23.710938 5.058594 24.085938 4.875 25 4.875 Z M 12.53125 5.71875C13.351563 6.488281 14.238281 7.027344 15.15625 7.375C16.421875 7.851563 17.722656 7.964844 19.0625 8C18.464844 8.609375 17.636719 9.210938 16.4375 9.78125C14.210938 9.355469 13.199219 7.855469 12.625 6.15625C12.574219 6 12.574219 5.875 12.53125 5.71875 Z M 37.46875 5.71875C37.425781 5.875 37.425781 6 37.375 6.15625C36.800781 7.855469 35.789063 9.355469 33.5625 9.78125C32.363281 9.210938 31.535156 8.609375 30.9375 8C32.277344 7.964844 33.578125 7.851563 34.84375 7.375C35.761719 7.027344 36.648438 6.488281 37.46875 5.71875 Z M 7.84375 12.375C9.3125 12.390625 10.875 12.90625 12.15625 13.5C11.992188 13.78125 11.828125 14.074219 11.6875 14.375C11.515625 14.746094 11.359375 15.128906 11.21875 15.53125C9.773438 16.265625 8.386719 16.851563 6.78125 16.84375C5.085938 16.835938 3.960938 16.121094 3.1875 15.28125C2.476563 14.507813 2.234375 13.613281 2.1875 13.375C2.378906 13.246094 2.734375 13.058594 3.25 12.90625C4.308594 12.59375 5.917969 12.355469 7.84375 12.375 Z M 42.15625 12.375C44.082031 12.355469 45.691406 12.59375 46.75 12.90625C47.265625 13.058594 47.621094 13.246094 47.8125 13.375C47.765625 13.613281 47.523438 14.507813 46.8125 15.28125C46.039063 16.121094 44.914063 16.835938 43.21875 16.84375C41.613281 16.851563 40.226563 16.265625 38.78125 15.53125C38.640625 15.128906 38.484375 14.746094 38.3125 14.375C38.171875 14.074219 38.007813 13.78125 37.84375 13.5C39.125 12.90625 40.6875 12.390625 42.15625 12.375 Z M 24.84375 15.71875C24.894531 15.722656 24.949219 15.722656 25 15.71875C25.03125 15.71875 25.0625 15.71875 25.09375 15.71875C27.234375 15.746094 30.378906 16.714844 32.25 17.875C32.175781 17.828125 32.4375 18.136719 32.59375 18.71875C32.75 19.300781 32.863281 20.058594 32.90625 20.84375C32.949219 21.628906 32.925781 22.429688 32.875 23.03125C32.851563 23.332031 32.816406 23.582031 32.78125 23.75C32.769531 23.804688 32.765625 23.839844 32.75 23.875C32.570313 24.078125 31.683594 24.59375 30.65625 25.15625C29.589844 25.738281 28.320313 26.484375 27.78125 27.90625C27.738281 28.027344 27.714844 28.152344 27.71875 28.28125C27.71875 30.628906 27.910156 32.253906 28.25 33.46875C28.589844 34.683594 29.128906 35.484375 29.71875 36.03125C30.308594 36.578125 30.859375 36.84375 31.25 37.125C31.597656 37.375 31.871094 37.609375 32.125 38.125C32.226563 38.578125 32.441406 38.855469 32.59375 39.34375C32.785156 39.964844 32.988281 41.023438 33 42.9375C32.546875 42.753906 31.816406 42.539063 30.96875 42.625C30.507813 42.671875 30.011719 42.8125 29.53125 43.09375C28.757813 43.550781 28.328125 44.289063 28.15625 44.96875C27.992188 45.625 28 46.222656 28 46.71875C27.113281 46.875 26.105469 46.96875 25 46.96875C23.894531 46.96875 22.886719 46.875 22 46.71875C22 46.222656 22.007813 45.625 21.84375 44.96875C21.671875 44.289063 21.242188 43.550781 20.46875 43.09375C19.988281 42.8125 19.492188 42.671875 19.03125 42.625C18.183594 42.539063 17.453125 42.753906 17 42.9375C17.011719 41.023438 17.214844 39.964844 17.40625 39.34375C17.554688 38.863281 17.773438 38.59375 17.875 38.15625C18.128906 37.632813 18.402344 37.375 18.75 37.125C19.140625 36.84375 19.691406 36.578125 20.28125 36.03125C20.871094 35.484375 21.410156 34.683594 21.75 33.46875C22.089844 32.253906 22.28125 30.628906 22.28125 28.28125C22.285156 28.152344 22.261719 28.027344 22.21875 27.90625C21.679688 26.484375 20.410156 25.738281 19.34375 25.15625C18.316406 24.59375 17.429688 24.078125 17.25 23.875C17.234375 23.839844 17.230469 23.804688 17.21875 23.75C17.183594 23.582031 17.148438 23.332031 17.125 23.03125C17.074219 22.429688 17.050781 21.628906 17.09375 20.84375C17.136719 20.058594 17.25 19.300781 17.40625 18.71875C17.5625 18.136719 17.824219 17.828125 17.75 17.875C19.601563 16.722656 22.707031 15.761719 24.84375 15.71875 Z M 18.8125 44.625C19.03125 44.636719 19.246094 44.699219 19.4375 44.8125C19.730469 44.984375 19.824219 45.140625 19.90625 45.46875C19.953125 45.660156 19.957031 45.917969 19.96875 46.1875C19.542969 46.027344 19.175781 45.847656 18.84375 45.65625C18.382813 45.386719 18.027344 45.105469 17.75 44.8125C18.007813 44.726563 18.414063 44.601563 18.8125 44.625 Z M 31.1875 44.625C31.585938 44.601563 31.992188 44.726563 32.25 44.8125C31.972656 45.105469 31.617188 45.386719 31.15625 45.65625C30.824219 45.847656 30.457031 46.027344 30.03125 46.1875C30.042969 45.917969 30.046875 45.660156 30.09375 45.46875C30.175781 45.140625 30.269531 44.984375 30.5625 44.8125C30.753906 44.699219 30.96875 44.636719 31.1875 44.625Z" />
</svg>