<?xml version="1.0" encoding="utf-8"?>
<svg xmlns="http://www.w3.org/2000/svg" viewBox="0 0 50 50" width="515" height="515">
  <path d="M15.78125 10.125C13.246094 10.28125 11.523438 11.6875 10.6875 13.3125C10.433594 13.804688 10.054688 14.804688 9.5 16.21875C9.070313 17.308594 8.542969 18.671875 8.03125 20L5.09375 20C3.609375 20 2.507813 20.496094 1.84375 21.25C1.179688 22.003906 1 22.898438 1 23.59375C1 24.371094 1.40625 25.148438 2.03125 25.53125C2.65625 25.914063 3.355469 26 4.09375 26L5.75 26C5.59375 26.417969 5.0625 27.8125 5.0625 27.8125L5 28L5 40C5 41.644531 6.355469 43 8 43L12 43C13.644531 43 15 41.644531 15 40L15 39.1875L35 39.65625L35 40C35 41.644531 36.355469 43 38 43L42 43C43.644531 43 45 41.644531 45 40L45 37.90625L44.875 37.90625C44.953125 37.617188 45 37.320313 45 37C45 34.167969 44.410156 32.605469 43.5625 31.75C43.265625 31.449219 42.953125 31.371094 42.65625 31.25L42.5625 27.78125L44.53125 28.46875C45.226563 28.722656 45.90625 28.898438 46.625 28.75C47.34375 28.601563 47.984375 27.980469 48.25 27.25C48.488281 26.597656 48.644531 25.6875 48.28125 24.75C47.917969 23.8125 47.019531 22.976563 45.625 22.46875L42.46875 21.3125L41.78125 23.21875L44.9375 24.375C45.957031 24.75 46.273438 25.15625 46.40625 25.5C46.539063 25.84375 46.5 26.222656 46.375 26.5625C46.277344 26.824219 46.324219 26.757813 46.21875 26.78125C46.113281 26.804688 45.742188 26.785156 45.21875 26.59375L42.21875 25.53125L39.1875 22.6875C39.429688 22.296875 39.648438 22.042969 39.96875 21.21875C40.214844 20.589844 40.414063 19.878906 40.4375 19.125C40.460938 18.371094 40.269531 17.519531 39.65625 16.875C38.542969 15.703125 36.847656 15.351563 35.4375 15.125C34.246094 14.933594 33.546875 14.914063 33.25 14.90625C33.109375 14.761719 33.09375 14.71875 32.8125 14.5C32.28125 14.082031 31.457031 13.558594 30.21875 13C27.742188 11.882813 23.628906 10.667969 16.90625 10.125C16.511719 10.09375 16.144531 10.101563 15.78125 10.125 Z M 15.875 12.09375C16.144531 12.082031 16.4375 12.101563 16.75 12.125C23.300781 12.652344 27.195313 13.816406 29.40625 14.8125C30.511719 15.3125 31.199219 15.753906 31.59375 16.0625C31.988281 16.371094 32.03125 16.46875 32.03125 16.46875L32.3125 16.875L32.8125 16.875C32.8125 16.875 33.882813 16.894531 35.125 17.09375C36.367188 17.292969 37.730469 17.769531 38.1875 18.25C38.359375 18.429688 38.449219 18.660156 38.4375 19.0625C38.425781 19.464844 38.289063 19.972656 38.09375 20.46875C37.707031 21.460938 37.125 22.3125 37.125 22.3125L36.625 23.03125L37.28125 23.625L40.46875 26.625C40.441406 26.851563 40.394531 27.074219 40.3125 27.25C40.160156 27.566406 39.964844 27.753906 39.65625 27.875C39.046875 28.113281 37.5 27.996094 34.8125 26.09375C34.796875 26.082031 34.796875 26.074219 34.78125 26.0625C33.863281 24.453125 32.410156 23.378906 30.6875 22.875C28.796875 22.320313 26.664063 22.273438 24.46875 22.40625C20.082031 22.675781 15.386719 23.671875 12.9375 23.53125C11.457031 23.449219 10.492188 23.25 9.9375 23.03125C9.382813 22.8125 9.285156 22.640625 9.25 22.5625C9.234375 22.523438 9.234375 22.457031 9.25 22.375C9.355469 22.09375 9.359375 22.101563 9.46875 21.8125C10.121094 20.097656 10.792969 18.339844 11.34375 16.9375C11.894531 15.535156 12.386719 14.410156 12.46875 14.25C13.054688 13.113281 13.984375 12.171875 15.875 12.09375 Z M 5.09375 22L7.28125 22C6.902344 23.003906 6.808594 23.1875 6.5 24L4.09375 24C3.539063 24 3.1875 23.902344 3.09375 23.84375C3 23.785156 3 23.875 3 23.59375C3 23.230469 3.101563 22.835938 3.34375 22.5625C3.585938 22.289063 4.007813 22 5.09375 22 Z M 26.125 24.34375C27.617188 24.328125 28.984375 24.449219 30.125 24.78125C31.644531 25.226563 32.707031 25.953125 33.3125 27.28125L33.40625 27.53125L33.625 27.6875C36.589844 29.796875 38.742188 30.359375 40.375 29.71875C40.464844 29.683594 40.539063 29.636719 40.625 29.59375L40.6875 32L40.71875 33.125L41.84375 32.96875C41.898438 32.980469 41.972656 33.003906 42.125 33.15625C42.429688 33.464844 43 34.453125 43 37C43 37.5 42.90625 37.605469 42.8125 37.6875C42.722656 37.765625 42.476563 37.835938 42.125 37.84375L42.09375 37.84375L7.9375 37L7.90625 37C7.390625 37 7 36.625 7 36.15625L7 28.375C7.03125 28.285156 7.867188 26.070313 8.46875 24.46875C8.699219 24.617188 8.933594 24.761719 9.21875 24.875C10.089844 25.21875 11.234375 25.441406 12.84375 25.53125C15.914063 25.707031 20.441406 24.660156 24.59375 24.40625C25.113281 24.375 25.628906 24.347656 26.125 24.34375 Z M 11 27C9.355469 27 8 28.355469 8 30C8 30.886719 8.367188 31.675781 8.875 32.21875C9.382813 32.761719 9.996094 33.128906 10.59375 33.46875C11.441406 33.949219 12.019531 34.316406 12.6875 34.59375C13.355469 34.871094 14.074219 35 15 35C17.195313 35 19 33.199219 19 31C19 28.800781 17.195313 27 15 27 Z M 11 29L15 29C16.117188 29 17 29.882813 17 31C17 32.117188 16.117188 33 15 33C14.25 33 13.878906 32.933594 13.4375 32.75C12.996094 32.566406 12.445313 32.21875 11.5625 31.71875C11 31.402344 10.585938 31.101563 10.34375 30.84375C10.101563 30.585938 10 30.417969 10 30C10 29.4375 10.4375 29 11 29 Z M 34.625 30.53125C33.515625 30.550781 32.464844 31.1875 32.03125 32.25C31.425781 33.734375 32.164063 35.402344 33.65625 35.9375C34.523438 36.25 35.089844 36.292969 35.78125 36.21875L35.6875 35.09375C35.6875 35.082031 35.664063 35.097656 35.65625 35.09375L32.75 33.90625L35.28125 33.90625C35.296875 33.90625 35.316406 33.859375 35.3125 33.84375L34.8125 31.625L36.5625 33.625C36.570313 33.636719 36.582031 33.664063 36.59375 33.65625L38.1875 32.6875L37.6875 33.875L39.4375 34.1875L37.21875 34.9375L37.5625 35.9375C38.789063 35.726563 39.636719 35.386719 40.4375 34L39.28125 32.90625L39.3125 31.75C38.28125 32.0625 35.71875 30.71875 35.71875 30.71875C35.359375 30.589844 34.996094 30.523438 34.625 30.53125 Z M 7 38.84375C7.28125 38.9375 7.5625 38.996094 7.875 39C7.886719 39 7.894531 39 7.90625 39L13 39.125L13 40C13 40.5625 12.5625 41 12 41L8 41C7.4375 41 7 40.5625 7 40 Z M 37 39.71875L42.0625 39.84375L42.09375 39.84375C42.386719 39.84375 42.695313 39.820313 43 39.75L43 40C43 40.5625 42.5625 41 42 41L38 41C37.4375 41 37 40.5625 37 40Z" />
</svg>