<?xml version="1.0" encoding="utf-8"?>
<svg xmlns="http://www.w3.org/2000/svg" viewBox="0 0 50 50" width="515" height="515">
  <path d="M5 0C3.492188 0 2.199219 0.9375 1.34375 2.21875C0.488281 3.5 0 5.167969 0 7C0 8.832031 0.488281 10.5 1.34375 11.78125C2.199219 13.0625 3.492188 14 5 14L8 14L8 41C8 45.945313 12.054688 50 17 50L30 50C30.359375 50.003906 30.695313 49.816406 30.878906 49.503906C31.058594 49.191406 31.058594 48.808594 30.878906 48.496094C30.695313 48.183594 30.359375 47.996094 30 48L17 48C13.144531 48 10 44.855469 10 41L10 14L33 14L33 12C32.308594 12 31.59375 11.582031 31 10.6875C30.40625 9.792969 30 8.46875 30 7C30 5.53125 30.40625 4.207031 31 3.3125C31.585938 2.433594 32.285156 2.011719 32.96875 2C32.980469 2 32.988281 2 33 2C35.210938 2 38 4.414063 38 9L38 27C37.996094 27.359375 38.183594 27.695313 38.496094 27.878906C38.808594 28.058594 39.191406 28.058594 39.503906 27.878906C39.816406 27.695313 40.003906 27.359375 40 27L40 9C40 3.585938 36.589844 0 33 0 Z M 5 2L29.5625 2C29.5 2.085938 29.402344 2.128906 29.34375 2.21875C28.488281 3.5 28 5.167969 28 7C28 8.832031 28.488281 10.5 29.34375 11.78125C29.402344 11.871094 29.5 11.914063 29.5625 12L5 12C4.308594 12 3.59375 11.582031 3 10.6875C2.40625 9.792969 2 8.46875 2 7C2 5.53125 2.40625 4.207031 3 3.3125C3.59375 2.417969 4.308594 2 5 2 Z M 14.71875 21C14.167969 21.078125 13.78125 21.589844 13.859375 22.140625C13.9375 22.691406 14.449219 23.078125 15 23L17 23C17.359375 23.003906 17.695313 22.816406 17.878906 22.503906C18.058594 22.191406 18.058594 21.808594 17.878906 21.496094C17.695313 21.183594 17.359375 20.996094 17 21L15 21C14.96875 21 14.9375 21 14.90625 21C14.875 21 14.84375 21 14.8125 21C14.78125 21 14.75 21 14.71875 21 Z M 20.71875 21C20.167969 21.078125 19.78125 21.589844 19.859375 22.140625C19.9375 22.691406 20.449219 23.078125 21 23L33 23C33.359375 23.003906 33.695313 22.816406 33.878906 22.503906C34.058594 22.191406 34.058594 21.808594 33.878906 21.496094C33.695313 21.183594 33.359375 20.996094 33 21L21 21C20.96875 21 20.9375 21 20.90625 21C20.875 21 20.84375 21 20.8125 21C20.78125 21 20.75 21 20.71875 21 Z M 14.71875 27C14.167969 27.078125 13.78125 27.589844 13.859375 28.140625C13.9375 28.691406 14.449219 29.078125 15 29L17 29C17.359375 29.003906 17.695313 28.816406 17.878906 28.503906C18.058594 28.191406 18.058594 27.808594 17.878906 27.496094C17.695313 27.183594 17.359375 26.996094 17 27L15 27C14.96875 27 14.9375 27 14.90625 27C14.875 27 14.84375 27 14.8125 27C14.78125 27 14.75 27 14.71875 27 Z M 20.71875 27C20.167969 27.078125 19.78125 27.589844 19.859375 28.140625C19.9375 28.691406 20.449219 29.078125 21 29L33 29C33.359375 29.003906 33.695313 28.816406 33.878906 28.503906C34.058594 28.191406 34.058594 27.808594 33.878906 27.496094C33.695313 27.183594 33.359375 26.996094 33 27L21 27C20.96875 27 20.9375 27 20.90625 27C20.875 27 20.84375 27 20.8125 27C20.78125 27 20.75 27 20.71875 27 Z M 40 30C34.488281 30 30 34.488281 30 40C30 45.511719 34.488281 50 40 50C45.511719 50 50 45.511719 50 40C50 34.488281 45.511719 30 40 30 Z M 40 32C44.429688 32 48 35.570313 48 40C48 44.429688 44.429688 48 40 48C35.570313 48 32 44.429688 32 40C32 35.570313 35.570313 32 40 32 Z M 14.71875 33C14.167969 33.078125 13.78125 33.589844 13.859375 34.140625C13.9375 34.691406 14.449219 35.078125 15 35L17 35C17.359375 35.003906 17.695313 34.816406 17.878906 34.503906C18.058594 34.191406 18.058594 33.808594 17.878906 33.496094C17.695313 33.183594 17.359375 32.996094 17 33L15 33C14.96875 33 14.9375 33 14.90625 33C14.875 33 14.84375 33 14.8125 33C14.78125 33 14.75 33 14.71875 33 Z M 20.71875 33C20.167969 33.078125 19.78125 33.589844 19.859375 34.140625C19.9375 34.691406 20.449219 35.078125 21 35L29 35C29.359375 35.003906 29.695313 34.816406 29.878906 34.503906C30.058594 34.191406 30.058594 33.808594 29.878906 33.496094C29.695313 33.183594 29.359375 32.996094 29 33L21 33C20.96875 33 20.9375 33 20.90625 33C20.875 33 20.84375 33 20.8125 33C20.78125 33 20.75 33 20.71875 33 Z M 39 35L39 39L35 39L35 41L39 41L39 45L41 45L41 41L45 41L45 39L41 39L41 35 Z M 14.71875 39C14.167969 39.078125 13.78125 39.589844 13.859375 40.140625C13.9375 40.691406 14.449219 41.078125 15 41L17 41C17.359375 41.003906 17.695313 40.816406 17.878906 40.503906C18.058594 40.191406 18.058594 39.808594 17.878906 39.496094C17.695313 39.183594 17.359375 38.996094 17 39L15 39C14.96875 39 14.9375 39 14.90625 39C14.875 39 14.84375 39 14.8125 39C14.78125 39 14.75 39 14.71875 39 Z M 20.71875 39C20.167969 39.078125 19.78125 39.589844 19.859375 40.140625C19.9375 40.691406 20.449219 41.078125 21 41L27 41C27.359375 41.003906 27.695313 40.816406 27.878906 40.503906C28.058594 40.191406 28.058594 39.808594 27.878906 39.496094C27.695313 39.183594 27.359375 38.996094 27 39L21 39C20.96875 39 20.9375 39 20.90625 39C20.875 39 20.84375 39 20.8125 39C20.78125 39 20.75 39 20.71875 39Z" />
</svg>