<?xml version="1.0" encoding="utf-8"?>
<svg xmlns="http://www.w3.org/2000/svg" viewBox="0 0 50 50" width="515" height="515">
  <path d="M24.984375 2.984375C24.433594 2.996094 23.992188 3.449219 24 4L24 6C23.996094 6.359375 24.183594 6.695313 24.496094 6.878906C24.808594 7.058594 25.191406 7.058594 25.503906 6.878906C25.816406 6.695313 26.003906 6.359375 26 6L26 4C26.003906 3.730469 25.898438 3.46875 25.707031 3.277344C25.515625 3.085938 25.253906 2.980469 24.984375 2.984375 Z M 8.992188 7.992188C8.582031 7.992188 8.21875 8.238281 8.0625 8.613281C7.910156 8.992188 8 9.421875 8.292969 9.707031L10.292969 11.707031C10.542969 11.96875 10.917969 12.074219 11.265625 11.980469C11.617188 11.890625 11.890625 11.617188 11.980469 11.265625C12.074219 10.917969 11.96875 10.542969 11.707031 10.292969L9.707031 8.292969C9.519531 8.097656 9.261719 7.992188 8.992188 7.992188 Z M 40.980469 7.992188C40.71875 7.996094 40.472656 8.105469 40.292969 8.292969L38.292969 10.292969C38.03125 10.542969 37.925781 10.917969 38.019531 11.265625C38.109375 11.617188 38.382813 11.890625 38.734375 11.980469C39.082031 12.074219 39.457031 11.96875 39.707031 11.707031L41.707031 9.707031C42.003906 9.417969 42.089844 8.980469 41.929688 8.601563C41.769531 8.21875 41.394531 7.976563 40.980469 7.992188 Z M 22 10C20.519531 10 19.382813 10.929688 18.699219 12.136719C18.460938 12.09375 18.25 12 18 12C15.800781 12 14 13.800781 14 16C14 16.070313 14.03125 16.128906 14.035156 16.199219C12.3125 16.640625 11 18.144531 11 20C11 20.75 11.265625 21.414063 11.628906 22.015625C10.707031 22.746094 10 23.734375 10 25C10 26.265625 10.707031 27.253906 11.628906 27.984375C11.265625 28.585938 11 29.25 11 30C11 31.855469 12.3125 33.359375 14.035156 33.800781C14.03125 33.871094 14 33.929688 14 34C14 36.199219 15.800781 38 18 38C18.25 38 18.460938 37.90625 18.699219 37.863281C19.382813 39.070313 20.519531 40 22 40C23.195313 40 24.261719 39.457031 25 38.621094C25.730469 39.457031 26.789063 40 27.980469 40C29.460938 40 30.597656 39.070313 31.28125 37.863281C31.519531 37.90625 31.730469 38 31.980469 38C34.179688 38 35.980469 36.199219 35.980469 34C35.980469 33.929688 35.949219 33.875 35.941406 33.800781C37.667969 33.359375 38.980469 31.855469 38.980469 30C38.980469 29.25 38.714844 28.585938 38.351563 27.984375C39.273438 27.253906 39.980469 26.265625 39.980469 25C39.980469 23.734375 39.273438 22.746094 38.351563 22.015625C38.714844 21.414063 38.980469 20.75 38.980469 20C38.980469 18.144531 37.667969 16.640625 35.945313 16.199219C35.949219 16.128906 35.980469 16.070313 35.980469 16C35.980469 13.800781 34.179688 12 31.980469 12C31.730469 12 31.519531 12.09375 31.28125 12.136719C30.597656 10.929688 29.460938 10 27.980469 10C26.789063 10 25.730469 10.542969 25 11.378906C24.261719 10.542969 23.195313 10 22 10 Z M 22 12C23.066406 12 23.929688 12.824219 24 13.863281L24 21C21.800781 21 20 22.800781 20 25C19.996094 25.359375 20.183594 25.695313 20.496094 25.878906C20.808594 26.058594 21.191406 26.058594 21.503906 25.878906C21.816406 25.695313 22.003906 25.359375 22 25C22 23.882813 22.882813 23 24 23L24 36.136719C23.929688 37.175781 23.066406 38 22 38C21.070313 38 20.3125 37.375 20.082031 36.519531C20.007813 36.242188 19.820313 36.011719 19.5625 35.886719C19.308594 35.757813 19.007813 35.746094 18.746094 35.851563C18.503906 35.949219 18.257813 36 18 36C16.882813 36 16 35.117188 16 34C16 33.964844 16.007813 33.929688 16.011719 33.894531C16.320313 33.835938 16.671875 33.746094 17.046875 33.558594C18.011719 33.070313 19 31.863281 19 30C19.003906 29.730469 18.898438 29.46875 18.707031 29.277344C18.515625 29.085938 18.253906 28.980469 17.984375 28.984375C17.433594 28.996094 16.992188 29.449219 17 30C17 31.265625 16.582031 31.550781 16.144531 31.769531C15.707031 31.992188 15.246094 31.984375 15.246094 31.984375C15.242188 31.980469 15.238281 31.980469 15.234375 31.984375C15.203125 31.980469 15.175781 31.980469 15.144531 31.984375C15.136719 31.980469 15.132813 31.980469 15.125 31.984375C15.066406 31.984375 15.113281 31.984375 15.082031 31.988281C15.0625 31.992188 15.039063 31.992188 15.019531 32C15.027344 32 14.988281 32 15 32C13.882813 32 13 31.117188 13 30C13 29.417969 13.246094 28.910156 13.644531 28.539063C13.902344 28.300781 14.015625 27.949219 13.949219 27.609375C13.878906 27.269531 13.640625 26.988281 13.3125 26.867188C12.546875 26.585938 12 25.867188 12 25C12 24.132813 12.546875 23.414063 13.3125 23.132813C13.640625 23.011719 13.878906 22.730469 13.949219 22.390625C14.015625 22.050781 13.902344 21.699219 13.644531 21.460938C13.246094 21.089844 13 20.582031 13 20C13 19.027344 13.671875 18.234375 14.582031 18.046875C14.699219 18.242188 14.835938 18.449219 15.019531 18.664063C15.585938 19.316406 16.605469 20 18 20C18.359375 20.003906 18.695313 19.816406 18.878906 19.503906C19.058594 19.191406 19.058594 18.808594 18.878906 18.496094C18.695313 18.183594 18.359375 17.996094 18 18C17.207031 18 16.824219 17.691406 16.53125 17.355469C16.238281 17.019531 16.144531 16.71875 16.144531 16.71875C16.140625 16.703125 16.132813 16.691406 16.128906 16.675781C16.128906 16.671875 16.125 16.667969 16.125 16.660156C16.042969 16.433594 16 16.21875 16 16C16 14.882813 16.882813 14 18 14C18.257813 14 18.503906 14.050781 18.746094 14.148438C19.007813 14.253906 19.308594 14.242188 19.5625 14.113281C19.820313 13.988281 20.007813 13.757813 20.082031 13.480469C20.3125 12.625 21.070313 12 22 12 Z M 27.980469 12C28.910156 12 29.667969 12.625 29.898438 13.480469C29.972656 13.757813 30.160156 13.988281 30.417969 14.113281C30.671875 14.242188 30.972656 14.253906 31.234375 14.148438C31.476563 14.050781 31.722656 14 31.980469 14C33.097656 14 33.980469 14.882813 33.980469 16C33.980469 16.214844 33.9375 16.425781 33.859375 16.652344C33.855469 16.660156 33.851563 16.667969 33.847656 16.675781C33.839844 16.710938 33.828125 16.742188 33.820313 16.773438C33.816406 16.785156 33.8125 16.800781 33.8125 16.8125C33.8125 16.8125 33.757813 17.074219 33.507813 17.378906C33.257813 17.6875 32.910156 18 32 18C31.640625 17.996094 31.304688 18.183594 31.121094 18.496094C30.941406 18.808594 30.941406 19.191406 31.121094 19.503906C31.304688 19.816406 31.640625 20.003906 32 20C33.464844 20 34.511719 19.320313 35.0625 18.640625C35.222656 18.441406 35.34375 18.242188 35.441406 18.058594C36.328125 18.261719 36.980469 19.042969 36.980469 20C36.980469 20.582031 36.734375 21.089844 36.332031 21.460938C36.078125 21.699219 35.964844 22.050781 36.03125 22.390625C36.101563 22.730469 36.339844 23.011719 36.667969 23.132813C37.433594 23.414063 37.980469 24.132813 37.980469 25C37.980469 25.6875 37.632813 26.269531 37.109375 26.625C36.800781 26.429688 36.394531 26.238281 35.867188 26.121094C35.617188 26.066406 35.34375 26.039063 35.058594 26.046875C34.191406 26.074219 33.195313 26.421875 32.304688 27.28125C32.042969 27.527344 31.933594 27.898438 32.019531 28.246094C32.105469 28.597656 32.375 28.875 32.71875 28.972656C33.066406 29.070313 33.441406 28.972656 33.695313 28.71875C34.480469 27.960938 34.980469 27.972656 35.4375 28.074219C35.894531 28.175781 36.320313 28.527344 36.316406 28.527344C36.324219 28.53125 36.328125 28.535156 36.332031 28.539063C36.335938 28.539063 36.335938 28.539063 36.335938 28.542969C36.734375 28.914063 36.980469 29.417969 36.980469 30C36.980469 31.117188 36.097656 32 34.980469 32C35.070313 32 35.03125 31.992188 34.851563 31.984375C34.515625 31.960938 34.191406 32.113281 33.988281 32.382813C33.785156 32.652344 33.734375 33.003906 33.847656 33.324219C33.933594 33.558594 33.980469 33.777344 33.980469 34C33.980469 35.117188 33.097656 36 31.980469 36C31.722656 36 31.476563 35.949219 31.234375 35.851563C30.972656 35.746094 30.671875 35.757813 30.417969 35.886719C30.160156 36.011719 29.972656 36.242188 29.898438 36.519531C29.667969 37.375 28.910156 38 27.980469 38C26.914063 38 26.070313 37.183594 26 36.136719L26 30C26 28.882813 26.882813 28 28 28C28.359375 28.003906 28.695313 27.816406 28.878906 27.503906C29.058594 27.191406 29.058594 26.808594 28.878906 26.496094C28.695313 26.183594 28.359375 25.996094 28 26C27.269531 26 26.589844 26.214844 26 26.5625L26 13.863281C26.070313 12.8125 26.914063 12 27.980469 12 Z M 4 24C3.640625 23.996094 3.304688 24.183594 3.121094 24.496094C2.941406 24.808594 2.941406 25.191406 3.121094 25.503906C3.304688 25.816406 3.640625 26.003906 4 26L7 26C7.359375 26.003906 7.695313 25.816406 7.878906 25.503906C8.058594 25.191406 8.058594 24.808594 7.878906 24.496094C7.695313 24.183594 7.359375 23.996094 7 24 Z M 43 24C42.640625 23.996094 42.304688 24.183594 42.121094 24.496094C41.941406 24.808594 41.941406 25.191406 42.121094 25.503906C42.304688 25.816406 42.640625 26.003906 43 26L46 26C46.359375 26.003906 46.695313 25.816406 46.878906 25.503906C47.058594 25.191406 47.058594 24.808594 46.878906 24.496094C46.695313 24.183594 46.359375 23.996094 46 24 Z M 10.980469 37.988281C10.71875 37.996094 10.472656 38.105469 10.292969 38.292969L8.292969 40.292969C8.03125 40.542969 7.925781 40.917969 8.019531 41.265625C8.109375 41.617188 8.382813 41.890625 8.734375 41.980469C9.082031 42.074219 9.457031 41.96875 9.707031 41.707031L11.707031 39.707031C12.003906 39.417969 12.089844 38.980469 11.929688 38.601563C11.769531 38.21875 11.394531 37.976563 10.980469 37.988281 Z M 38.988281 37.988281C38.582031 37.992188 38.21875 38.238281 38.0625 38.613281C37.910156 38.992188 38 39.421875 38.292969 39.707031L40.292969 41.707031C40.542969 41.96875 40.917969 42.074219 41.265625 41.980469C41.617188 41.890625 41.890625 41.617188 41.980469 41.265625C42.074219 40.917969 41.96875 40.542969 41.707031 40.292969L39.707031 38.292969C39.519531 38.097656 39.261719 37.992188 38.988281 37.988281 Z M 24.984375 42.984375C24.433594 42.996094 23.992188 43.449219 24 44L24 46C23.996094 46.359375 24.183594 46.695313 24.496094 46.878906C24.808594 47.058594 25.191406 47.058594 25.503906 46.878906C25.816406 46.695313 26.003906 46.359375 26 46L26 44C26.003906 43.730469 25.898438 43.46875 25.707031 43.277344C25.515625 43.085938 25.253906 42.980469 24.984375 42.984375Z" />
</svg>