<?xml version="1.0" encoding="utf-8"?>
<svg xmlns="http://www.w3.org/2000/svg" viewBox="0 0 50 50" width="515" height="515">
  <path d="M44.34375 2C43.402344 2 42.433594 2.347656 41.71875 3.0625L40.375 4.4375L45.5625 9.625C45.558594 9.628906 46.9375 8.28125 46.9375 8.28125C48.371094 6.847656 48.371094 4.496094 46.9375 3.0625C46.21875 2.34375 45.285156 2 44.34375 2 Z M 38.75 5.9375L16.03125 28.65625L15.96875 28.96875L15.03125 33.8125L14.71875 35.28125L16.1875 34.96875L21.03125 34.03125L21.34375 33.96875L44.0625 11.25L42.625 9.84375L20.375 32.0625L17.9375 29.625L40.15625 7.375 Z M 3 10C2.445313 10 2 10.449219 2 11L2 47C2 47.550781 2.445313 48 3 48L39 48C39.554688 48 40 47.550781 40 47L40 18L38 20L38 46L4 46L4 12L30 12L32 10Z" />
</svg>