<?xml version="1.0" encoding="utf-8"?>
<svg xmlns="http://www.w3.org/2000/svg" viewBox="0 0 50 50" width="515" height="515">
  <path d="M0.84375 0C0.402344 0.0664063 0.0585938 0.417969 0 0.859375C-0.0585938 1.300781 0.183594 1.726563 0.59375 1.90625C0.59375 1.90625 3.730469 3.34375 6.875 5.875C10.019531 8.40625 13.015625 11.957031 13 16C12.996094 17.496094 12.347656 18.757813 11.21875 20.03125C10.089844 21.304688 8.507813 22.507813 6.875 23.8125C5.242188 25.117188 3.5625 26.519531 2.25 28.1875C0.9375 29.855469 0 31.832031 0 34.21875C0 40.136719 3.503906 44.140625 6.90625 46.5625C10.308594 48.984375 13.71875 49.96875 13.71875 49.96875C14.253906 50.125 14.8125 49.816406 14.96875 49.28125C15.125 48.746094 14.816406 48.1875 14.28125 48.03125C14.28125 48.03125 11.191406 47.140625 8.09375 44.9375C4.996094 42.734375 2 39.351563 2 34.21875C2 32.335938 2.691406 30.835938 3.8125 29.40625C4.933594 27.976563 6.511719 26.664063 8.125 25.375C9.738281 24.085938 11.40625 22.828125 12.71875 21.34375C14.03125 19.859375 14.992188 18.097656 15 16C15.019531 10.996094 11.488281 7.019531 8.125 4.3125C4.761719 1.605469 1.40625 0.09375 1.40625 0.09375C1.230469 0.0078125 1.035156 -0.0234375 0.84375 0 Z M 13.1875 0C12.777344 0.0546875 12.445313 0.355469 12.347656 0.757813C12.25 1.15625 12.410156 1.578125 12.75 1.8125C16.113281 4.339844 22.011719 7.890625 24.90625 12.34375C27.175781 15.835938 26.992188 18.882813 26.21875 22.34375C25.445313 25.804688 24 29.585938 24 34C24 36.832031 25.503906 39.265625 27.59375 41.25C29.683594 43.234375 32.378906 44.84375 35.0625 46.125C40.429688 48.691406 45.75 49.96875 45.75 49.96875C46.285156 50.105469 46.832031 49.785156 46.96875 49.25C47.105469 48.714844 46.785156 48.167969 46.25 48.03125C46.25 48.03125 41.070313 46.765625 35.9375 44.3125C33.371094 43.085938 30.816406 41.570313 28.96875 39.8125C27.121094 38.054688 26 36.128906 26 34C26 30.03125 27.367188 26.445313 28.1875 22.78125C29.007813 19.117188 29.195313 15.28125 26.59375 11.28125C23.300781 6.21875 17.105469 2.566406 13.9375 0.1875C13.722656 0.0273438 13.453125 -0.0390625 13.1875 0 Z M 43.25 0.03125C43.207031 0.0390625 43.164063 0.0507813 43.125 0.0625C42.902344 0.109375 42.707031 0.230469 42.5625 0.40625C41.957031 1.097656 41.367188 1.773438 40.8125 2.46875C40.480469 2.34375 40.15625 2.257813 39.8125 2.21875C38.207031 2.042969 36.558594 2.792969 35.71875 4.28125C35.523438 4.628906 35.296875 5 35.0625 5.40625C33.867188 7.476563 32.34375 10.089844 31.5 12.59375C30.941406 14.246094 31.511719 16.027344 32.78125 17.09375C28.746094 28.695313 30.375 38.0625 30.375 38.0625C30.421875 38.425781 30.667969 38.734375 31.011719 38.867188C31.351563 38.996094 31.738281 38.929688 32.019531 38.6875C32.296875 38.449219 32.421875 38.078125 32.34375 37.71875C32.34375 37.71875 30.816406 28.992188 34.59375 17.96875C34.875 18.027344 35.15625 18.0625 35.4375 18.0625C37.171875 18.0625 38.792969 16.96875 39.375 15.25C39.910156 13.660156 41.191406 11.394531 42.25 9.5625C42.496094 9.136719 42.726563 8.71875 42.9375 8.34375C43.8125 6.789063 43.566406 4.90625 42.46875 3.625C42.976563 2.988281 43.507813 2.351563 44.0625 1.71875C44.351563 1.417969 44.421875 0.96875 44.242188 0.59375C44.058594 0.21875 43.664063 -0.0078125 43.25 0.03125 Z M 39.15625 4.1875C39.566406 4.160156 39.984375 4.25 40.375 4.46875C40.394531 4.480469 40.417969 4.488281 40.4375 4.5C40.511719 4.5625 40.597656 4.617188 40.6875 4.65625C41.503906 5.300781 41.746094 6.441406 41.21875 7.375C41.011719 7.738281 40.777344 8.136719 40.53125 8.5625C39.472656 10.394531 38.125 12.652344 37.46875 14.59375C37.164063 15.496094 36.332031 16.0625 35.4375 16.0625C35.210938 16.0625 34.980469 16.015625 34.75 15.9375C34.609375 15.890625 34.46875 15.820313 34.34375 15.75C34.335938 15.746094 34.320313 15.753906 34.3125 15.75C33.460938 15.25 33.074219 14.226563 33.40625 13.25C34.152344 11.042969 35.617188 8.476563 36.8125 6.40625C37.046875 6 37.265625 5.640625 37.46875 5.28125C37.761719 4.761719 38.222656 4.398438 38.75 4.25C38.882813 4.214844 39.019531 4.195313 39.15625 4.1875 Z M 47.21875 11.96875C46.621094 11.96875 46.382813 12.160156 45.90625 12.40625C45.429688 12.652344 44.859375 13.007813 44.21875 13.5C42.9375 14.484375 41.359375 15.992188 39.84375 18.1875C36.816406 22.578125 34 29.660156 34 40.40625C33.996094 40.765625 34.183594 41.101563 34.496094 41.285156C34.808594 41.464844 35.191406 41.464844 35.503906 41.285156C35.816406 41.101563 36.003906 40.765625 36 40.40625C36 30.007813 38.710938 23.386719 41.5 19.34375C42.1875 18.347656 42.871094 17.511719 43.53125 16.8125C43.210938 17.347656 42.988281 17.519531 42.65625 18.1875C41.375 20.753906 40.0625 24.351563 39.15625 29.25C39.027344 29.464844 38.980469 29.722656 39.03125 29.96875C38.53125 32.890625 38.183594 36.261719 38.0625 40.15625C38.0625 40.1875 38.0625 40.21875 38.0625 40.25C38.0625 40.269531 38.03125 40.292969 38.03125 40.3125C38.027344 40.375 38.027344 40.4375 38.03125 40.5C38.007813 41.355469 38 42.21875 38 43.125C37.996094 43.484375 38.183594 43.820313 38.496094 44.003906C38.808594 44.183594 39.191406 44.183594 39.503906 44.003906C39.816406 43.820313 40.003906 43.484375 40 43.125C40 42.269531 40.011719 41.433594 40.03125 40.625C41.515625 36.273438 43.90625 32.011719 45.96875 28.78125C47.007813 27.15625 47.960938 25.773438 48.65625 24.78125C49.003906 24.285156 49.292969 23.871094 49.5 23.5625C49.605469 23.410156 49.710938 23.308594 49.78125 23.1875C49.816406 23.128906 49.839844 23.042969 49.875 22.96875C49.910156 22.894531 49.96875 22.859375 50 22.59375C50.019531 22.4375 50 22.230469 49.875 21.96875C49.75 21.707031 49.460938 21.449219 49.21875 21.375C48.734375 21.226563 48.53125 21.367188 48.34375 21.4375C47.972656 21.578125 47.671875 21.792969 47.28125 22.0625C46.503906 22.601563 45.519531 23.390625 44.46875 24.28125C43.535156 25.070313 42.597656 25.910156 41.75 26.6875C42.542969 23.445313 43.503906 20.925781 44.4375 19.0625C45.496094 16.941406 46.503906 15.605469 47.1875 14.78125C47.53125 14.367188 47.765625 14.101563 47.96875 13.84375C48.070313 13.714844 48.246094 13.707031 48.3125 13.15625C48.34375 12.878906 48.113281 12.347656 47.8125 12.15625C47.511719 11.964844 47.34375 11.96875 47.21875 11.96875 Z M 45.28125 26.25C44.9375 26.765625 44.6875 27.097656 44.3125 27.6875C43.0625 29.644531 41.6875 31.996094 40.4375 34.53125C40.601563 32.949219 40.792969 31.515625 41.03125 30.15625C41.6875 29.457031 43.519531 27.777344 45.28125 26.25Z" />
</svg>