<?xml version="1.0" encoding="utf-8"?>
<svg xmlns="http://www.w3.org/2000/svg" viewBox="0 0 50 50" width="515" height="515">
  <path d="M23.599609 2.8007812C21.518851 2.8007812 20.064526 3.710819 18.931641 4.6347656C18.214196 4.2161184 17.234411 3.8007813 15.699219 3.8007812C13.322353 3.8007812 11.634663 5.1008967 10.488281 6.8007812L10.03125 6.8007812C6.1866639 6.6842787 3.080411 9.8992951 3.0214844 13.697266C1.8314327 14.562011 1 15.873716 1 17.400391C1 18.78261 1.6940812 19.972786 2.6289062 20.892578C1.7499584 21.753293 1 22.799255 1 24.199219C1 25.628052 1.7185463 27.050402 3 27.964844L3 29C3 32.444444 5.4666667 35 8.5 35L8.6074219 35C8.8202863 35.401545 8.9561567 35.826994 9.3574219 36.152344C9.728584 36.453286 10.342644 36.491445 10.867188 36.636719L9.5292969 44L9.5 44L9 47L11 47L11.599609 44L11.5625 44L12.984375 36.179688 A 1.0001 1.0001 0 0 0 12 35C11.285185 35 10.892544 34.820919 10.617188 34.597656C10.341829 34.374393 10.164657 34.066434 10.058594 33.712891 A 1.0001 1.0001 0 0 0 9.0996094 33L8.5 33C6.5333333 33 5 31.555556 5 29L5 27.599609 A 1.0001 1.0001 0 0 0 4.3945312 26.681641C3.4171267 26.262753 3 25.313504 3 24.199219C3 23.22779 3.6306945 22.405127 4.5878906 21.708984 A 1.0001 1.0001 0 0 0 4.4785156 20.021484C3.7923008 19.647185 3 18.371819 3 17.400391C3 16.381343 3.6050365 15.415255 4.4472656 14.994141 A 1.0001 1.0001 0 0 0 5 14.099609L5 13.800781C5 11.046236 7.2501345 8.7164458 9.96875 8.7988281 A 1.0001 1.0001 0 0 0 10 8.8007812L10.900391 8.8007812 A 1.0001 1.0001 0 0 0 11.773438 8.2851562C12.658898 6.6913254 13.747045 5.8007813 15.699219 5.8007812C17.276997 5.8007812 18.001971 6.2816546 18.375 6.5800781 A 1.0001 1.0001 0 0 0 19.671875 6.5390625C20.698214 5.6060268 21.807947 4.81693 23.570312 4.8066406C25.801891 4.9998261 27.072979 5.4870416 28.292969 6.7070312 A 1.0001 1.0001 0 0 0 29.513672 6.8574219C30.856745 6.0515784 31.639997 6 33.300781 6C35.581028 6 37.864468 7.5144481 38.683594 9.3984375 A 1.0001 1.0001 0 0 0 39.599609 10C41.830474 10 43.611052 11.553307 44.019531 13.595703 A 1.0001 1.0001 0 0 0 44.771484 14.373047C45.518292 14.548766 46.113273 14.822778 46.488281 15.189453C46.86329 15.556128 47.099609 16.012512 47.099609 16.900391C47.099609 17.533724 46.954097 17.920744 46.796875 18.208984C46.639653 18.497225 46.509809 18.581967 46.267578 18.945312 A 1.0001 1.0001 0 0 0 46.474609 20.28125C46.474609 20.28125 46.55292 20.32221 46.726562 20.634766C46.900205 20.94732 47.099609 21.467448 47.099609 22.300781C47.099609 23.022711 46.865427 23.687479 46.341797 24.193359C45.818166 24.69924 44.958081 25.099609 43.5 25.099609L43.199219 25.099609 A 1.0001 1.0001 0 0 0 42.257812 25.767578C42.061926 26.322591 41.715086 26.597661 41.1875 26.810547C40.659914 27.023433 39.973468 27.099609 39.400391 27.099609L38.099609 27.099609 A 1.0001 1.0001 0 0 0 37.171875 27.728516C37.003891 28.148475 36.787875 28.508181 36.539062 28.734375C36.29025 28.960569 36.027778 29.099609 35.5 29.099609C34.45641 29.099609 34.2595 28.845438 33.806641 28.392578 A 1.0001 1.0001 0 0 0 32.128906 28.857422C32.002618 29.362575 31.578172 29.959975 30.990234 30.398438C30.402297 30.8369 29.6751 31.099609 29.099609 31.099609L28.099609 31.099609 A 1.0001 1.0001 0 0 0 27.099609 32.099609C27.099609 34.854155 24.854155 37.099609 22.099609 37.099609C19.756926 37.099609 17.782889 38.165872 16.335938 39.751953C15.253527 40.938442 14.43674 42.406622 13.849609 44L13.699219 44C13.499219 44.5 13.399219 45 13.199219 45.5C13.199219 45.5 13.000391 46.3 12.900391 47L15 47L15.173828 46.128906L15.267578 46.154297C15.786395 44.173358 16.661405 42.363528 17.814453 41.099609C18.967502 39.835691 20.342292 39.099609 22.099609 39.099609C25.591227 39.099609 28.388314 36.45684 28.896484 33.099609L29.099609 33.099609C30.224119 33.099609 31.298485 32.663491 32.185547 32.001953C32.701709 31.617019 33.125442 31.12843 33.474609 30.589844C34.007814 30.876032 34.6596 31.099609 35.5 31.099609C36.472222 31.099609 37.308579 30.73865 37.884766 30.214844C38.253279 29.879832 38.409804 29.483507 38.617188 29.099609L39.400391 29.099609C40.127314 29.099609 41.040086 29.02618 41.9375 28.664062C42.634493 28.382821 43.264557 27.80827 43.732422 27.0625C45.450326 27.01323 46.8262 26.506362 47.732422 25.630859C48.683791 24.71174 49.099609 23.478851 49.099609 22.300781C49.099609 21.134115 48.800968 20.251509 48.474609 19.664062C48.412159 19.551649 48.397929 19.577112 48.332031 19.482422C48.433759 19.338339 48.44856 19.357003 48.552734 19.166016C48.845512 18.629256 49.099609 17.867057 49.099609 16.900391C49.099609 15.588269 48.63671 14.493091 47.886719 13.759766C47.294435 13.180644 46.533085 12.941668 45.787109 12.707031C45.062134 10.204645 42.89808 8.3613853 40.201172 8.1054688C38.889627 5.6776821 36.212988 4 33.300781 4C31.788903 4 30.50186 4.2141307 29.107422 4.8964844C27.641604 3.6733742 25.926106 2.9896104 23.683594 2.8027344 A 1.0001 1.0001 0 0 0 23.599609 2.8007812 z M 28 10L28 12.203125C27.382413 12.334746 26.826417 12.562091 26.314453 12.900391L24.707031 11.292969L23.292969 12.707031L24.900391 14.314453C24.562091 14.826417 24.334746 15.382413 24.203125 16L22 16L22 18L24.203125 18C24.333227 18.610463 24.556362 19.160436 24.888672 19.667969L23.308594 21.175781L24.691406 22.623047L26.298828 21.089844C26.814622 21.433398 27.376203 21.663931 28 21.796875L28 24L30 24L30 21.796875C30.623797 21.663931 31.185378 21.433398 31.701172 21.089844L33.308594 22.623047L34.691406 21.175781L33.111328 19.667969C33.443638 19.160436 33.666773 18.610463 33.796875 18L36 18L36 16L33.796875 16C33.665254 15.382413 33.437909 14.826417 33.099609 14.314453L34.707031 12.707031L33.292969 11.292969L31.685547 12.900391C31.173583 12.562091 30.617587 12.334746 30 12.203125L30 10L28 10 z M 29 14C30.654545 14 32 15.345455 32 17C32 18.654545 30.654545 20 29 20C27.345455 20 26 18.654545 26 17C26 15.345455 27.345455 14 29 14 z M 16 18L16 20.201172C15.349025 20.325545 14.773569 20.530554 14.267578 20.853516L12.806641 19.392578L11.392578 20.806641L12.851562 22.265625C12.512434 22.808768 12.285724 23.382176 12.169922 24L10 24L10 26L12.169922 26C12.287004 26.624652 12.517841 27.204086 12.863281 27.751953L11.376953 29.308594L12.824219 30.691406L14.285156 29.158203C14.787035 29.475304 15.356775 29.675935 16 29.798828L16 32L18 32L18 29.798828C18.650975 29.674455 19.226431 29.469446 19.732422 29.146484L21.292969 30.707031L22.707031 29.292969L21.148438 27.734375C21.487565 27.191232 21.714276 26.617824 21.830078 26L24 26L24 24L21.830078 24C21.715658 23.38955 21.492535 22.823156 21.160156 22.285156L22.691406 20.824219L21.308594 19.376953L19.748047 20.865234C19.238298 20.536815 18.658144 20.326915 18 20.201172L18 18L16 18 z M 17 22C18.083333 22 18.768559 22.370244 19.251953 22.914062C19.735347 23.457881 20 24.222222 20 25C20 25.777778 19.735347 26.542118 19.251953 27.085938C18.768559 27.629756 18.083333 28 17 28C15.916667 28 15.231441 27.629756 14.748047 27.085938C14.264653 26.542119 14 25.777778 14 25C14 24.222222 14.264653 23.457882 14.748047 22.914062C15.231441 22.370244 15.916667 22 17 22 z" />
</svg>