<?xml version="1.0" encoding="utf-8"?>
<svg xmlns="http://www.w3.org/2000/svg" viewBox="0 0 50 50" width="515" height="515">
  <path d="M8.8125 3C8.335938 3.089844 7.992188 3.511719 8 4L8 8L4 8C3.96875 8 3.9375 8 3.90625 8C3.390625 8.046875 2.996094 8.480469 3 9L3 15C3 15.550781 3.449219 16 4 16L8 16L8 41C8 41.550781 8.449219 42 9 42L34 42L34 46C34 46.550781 34.449219 47 35 47L41 47C41.550781 47 42 46.550781 42 46L42 42L46 42C46.550781 42 47 41.550781 47 41L47 35C47 34.449219 46.550781 34 46 34L16 34L16 4C16 3.449219 15.550781 3 15 3L9 3C8.96875 3 8.9375 3 8.90625 3C8.875 3 8.84375 3 8.8125 3 Z M 10 5L14 5L14 35C14 35.550781 14.449219 36 15 36L45 36L45 40L10 40 Z M 17.8125 8C17.261719 8.050781 16.855469 8.542969 16.90625 9.09375C16.957031 9.644531 17.449219 10.050781 18 10L40 10L40 32C39.996094 32.359375 40.183594 32.695313 40.496094 32.878906C40.808594 33.058594 41.191406 33.058594 41.503906 32.878906C41.816406 32.695313 42.003906 32.359375 42 32L42 9C42 8.449219 41.550781 8 41 8L18 8C17.96875 8 17.9375 8 17.90625 8C17.875 8 17.84375 8 17.8125 8 Z M 5 10L8 10L8 14L5 14 Z M 17.8125 14C17.261719 14.050781 16.855469 14.542969 16.90625 15.09375C16.957031 15.644531 17.449219 16.050781 18 16L34 16L34 32C33.996094 32.359375 34.183594 32.695313 34.496094 32.878906C34.808594 33.058594 35.191406 33.058594 35.503906 32.878906C35.816406 32.695313 36.003906 32.359375 36 32L36 15C36 14.449219 35.550781 14 35 14L18 14C17.96875 14 17.9375 14 17.90625 14C17.875 14 17.84375 14 17.8125 14 Z M 36 42L40 42L40 45L36 45Z" />
</svg>