<?xml version="1.0" encoding="utf-8"?>
<svg xmlns="http://www.w3.org/2000/svg" viewBox="0 0 50 50" width="515" height="515">
  <path d="M25 6C22.800781 6 21 7.800781 21 10C21 11.183594 21.546875 12.234375 22.375 12.96875L15.5 24.875L8.71875 21.46875C8.898438 21.015625 9 20.515625 9 20C9 17.800781 7.199219 16 5 16C2.800781 16 1 17.800781 1 20C1 22.175781 2.769531 23.964844 4.9375 24L8 37.09375L8 43C8 43.550781 8.449219 44 9 44L41 44C41.550781 44 42 43.550781 42 43L42 37.09375L45.0625 24C47.230469 23.964844 49 22.175781 49 20C49 17.800781 47.199219 16 45 16C42.800781 16 41 17.800781 41 20C41 20.46875 41.097656 20.925781 41.25 21.34375L34.40625 24.78125L27.59375 13C28.441406 12.265625 29 11.199219 29 10C29 7.800781 27.199219 6 25 6 Z M 25 8C26.117188 8 27 8.882813 27 10C27 10.664063 26.675781 11.230469 26.1875 11.59375C26.144531 11.589844 26.105469 11.589844 26.0625 11.59375C25.804688 11.628906 25.566406 11.761719 25.40625 11.96875C25.273438 11.996094 25.140625 12 25 12C24.769531 12 24.546875 11.976563 24.34375 11.90625C24.324219 11.894531 24.300781 11.882813 24.28125 11.875C24.269531 11.871094 24.261719 11.847656 24.25 11.84375C24.238281 11.84375 24.230469 11.84375 24.21875 11.84375C24.207031 11.839844 24.199219 11.816406 24.1875 11.8125C24.128906 11.773438 24.066406 11.742188 24 11.71875C23.402344 11.375 23 10.746094 23 10C23 8.882813 23.882813 8 25 8 Z M 24.15625 13.90625C24.425781 13.964844 24.714844 14 25 14C25.273438 14 25.554688 13.960938 25.8125 13.90625L33.125 26.59375C33.386719 27.054688 33.960938 27.234375 34.4375 27L42.40625 23C42.628906 23.191406 42.863281 23.359375 43.125 23.5L40.21875 36L9.78125 36L6.875 23.5C7.089844 23.382813 7.28125 23.246094 7.46875 23.09375L15.4375 27.09375C15.921875 27.347656 16.519531 27.167969 16.78125 26.6875 Z M 5 18C6.117188 18 7 18.882813 7 20C7 20.378906 6.898438 20.730469 6.71875 21.03125C6.714844 21.035156 6.691406 21.027344 6.6875 21.03125C6.554688 21.128906 6.445313 21.257813 6.375 21.40625C6.375 21.417969 6.375 21.425781 6.375 21.4375C6.179688 21.625 5.949219 21.78125 5.6875 21.875C5.679688 21.878906 5.664063 21.871094 5.65625 21.875C5.527344 21.882813 5.398438 21.914063 5.28125 21.96875C5.269531 21.96875 5.261719 21.96875 5.25 21.96875C5.230469 21.972656 5.210938 21.996094 5.1875 22C5.125 22.003906 5.0625 22 5 22C3.882813 22 3 21.117188 3 20C3 18.882813 3.882813 18 5 18 Z M 45 18C46.117188 18 47 18.882813 47 20C47 21.117188 46.117188 22 45 22C44.890625 22 44.789063 21.984375 44.6875 21.96875C44.597656 21.933594 44.503906 21.914063 44.40625 21.90625C44.0625 21.800781 43.765625 21.601563 43.53125 21.34375C43.472656 21.210938 43.386719 21.09375 43.28125 21C43.113281 20.707031 43 20.367188 43 20C43 18.882813 43.882813 18 45 18 Z M 10 38L40 38L40 42L10 42Z" />
</svg>