<?xml version="1.0" encoding="utf-8"?>
<svg xmlns="http://www.w3.org/2000/svg" viewBox="0 0 50 50" width="515" height="515">
  <path d="M19 2C18.480469 2 18.046875 2.398438 18.003906 2.914063L17.003906 14.917969C17 14.945313 17 14.972656 17 15L16.15625 15C16.097656 14.992188 16.042969 14.984375 15.984375 14.984375C15.9375 14.988281 15.886719 14.992188 15.839844 15L14 15C11.25 15 9 17.25 9 20L9 22.824219C8.914063 23.0625 8.253906 24.867188 7.546875 27.136719C6.917969 29.140625 6.277344 31.308594 6.070313 33.003906C6.042969 33 6.015625 33 5.984375 33C5.707031 33.003906 5.449219 33.121094 5.261719 33.328125C5.078125 33.53125 4.984375 33.800781 5.003906 34.078125L6.003906 47.078125C6.042969 47.597656 6.476563 48 7 48L11 48C11.496094 48 11.921875 47.632813 11.988281 47.140625L12.527344 43.386719C12.597656 43.105469 12.65625 42.839844 12.742188 42.542969C13.277344 40.671875 14.175781 38.488281 15.453125 37L24 37C24.019531 37 24.039063 37 24.0625 37C26.726563 44.308594 33.535156 47.886719 33.535156 47.886719C33.820313 48.035156 34.160156 48.039063 34.449219 47.894531C34.449219 47.894531 45 42.605469 45 31L45 16C45 15.449219 44.550781 15 44 15L29 15C29 14.972656 28.996094 14.945313 28.996094 14.917969L27.996094 2.914063C27.953125 2.398438 27.519531 2 27 2 Z M 19.921875 4L26.078125 4L26.929688 14.191406L24 14.78125L24 9L26 9L26 7L20 7L20 9L22 9L22 14.78125L19.070313 14.191406 Z M 18.988281 16.21875L22.703125 16.957031C22.796875 16.988281 22.898438 17.003906 23 17L23 31C23 32.425781 23.164063 33.757813 23.453125 35L15.894531 35C15.46875 31.382813 15.191406 28.792969 15.089844 27.574219C14.976563 26.210938 15 26.078125 15 26.078125C15.023438 25.789063 14.925781 25.503906 14.726563 25.296875C14.527344 25.089844 14.25 24.976563 13.964844 24.984375C13.449219 25.003906 13.035156 25.410156 13 25.921875C13 25.921875 12.992188 26.351563 13.089844 27.589844C13.078125 27.609375 13.070313 27.628906 13.0625 27.648438L10.0625 35.648438C10.023438 35.761719 10 35.878906 10 36L10 36.585938L7.890625 34.472656C7.964844 34.328125 8.003906 34.164063 8 34C8 32.929688 8.714844 30.101563 9.453125 27.734375C10.140625 25.546875 10.726563 23.960938 10.828125 23.683594C11.246094 23.546875 12.210938 23.285156 13.589844 22.277344C15.054688 21.210938 16.589844 19.46875 16.925781 17L18 17C18.472656 17.007813 18.886719 16.679688 18.988281 16.21875 Z M 14 17L14.902344 17C14.59375 18.679688 13.542969 19.835938 12.410156 20.660156C11.910156 21.027344 11.429688 21.285156 11 21.5L11 20C11 18.332031 12.332031 17 14 17 Z M 25 17L43 17L43 31C43 40.589844 35.253906 45.148438 34.011719 45.828125C32.769531 45.117188 25 40.351563 25 31 Z M 32 19C32 19 33 19.5625 33 21L33 26L29 26C27.5625 26 27 25 27 25L27 29C27 29 27.582031 28 29 28L33 28L33 41C33 42.4375 32 43 32 43L36 43C36 43 35 42.417969 35 41L35 28L39 28C40.417969 28 41 29 41 29L41 25C41 25 40.4375 26 39 26L35 26L35 21C35 19.582031 36 19 36 19 Z M 13.542969 32.066406C13.664063 33.148438 13.777344 34.191406 13.957031 35.675781C13.179688 36.570313 12.558594 37.597656 12.0625 38.644531L12 38.585938L12 36.183594 Z M 7.203125 36.617188L10.203125 39.621094C10.261719 39.691406 10.324219 39.753906 10.394531 39.8125L10.9375 40.355469L10.558594 43.015625C10.160156 44.664063 10.003906 45.886719 10.003906 45.886719C10 45.925781 10 45.960938 10 46L7.925781 46Z" />
</svg>