<?xml version="1.0" encoding="utf-8"?>
<svg xmlns="http://www.w3.org/2000/svg" viewBox="0 0 50 50" width="515" height="515">
  <path d="M25 2C12.264481 2 2 12.264481 2 25C2 37.735519 12.264481 48 25 48C37.735519 48 48 37.735519 48 25C48 12.264481 37.735519 2 25 2 z M 25 4C36.664481 4 46 13.335519 46 25C46 36.664481 36.664481 46 25 46C13.335519 46 4 36.664481 4 25C4 13.335519 13.335519 4 25 4 z M 16 13C12.64023 13 10.310547 15.275391 10.310547 15.275391 A 1.0002018 1.0002018 0 1 0 11.689453 16.724609C11.689453 16.724609 13.55977 15 16 15C18.44023 15 20.310547 16.724609 20.310547 16.724609 A 1.0002018 1.0002018 0 1 0 21.689453 15.275391C21.689453 15.275391 19.35977 13 16 13 z M 34 13C30.64023 13 28.310547 15.275391 28.310547 15.275391 A 1.0002018 1.0002018 0 1 0 29.689453 16.724609C29.689453 16.724609 31.55977 15 34 15C36.44023 15 38.310547 16.724609 38.310547 16.724609 A 1.0002018 1.0002018 0 1 0 39.689453 15.275391C39.689453 15.275391 37.35977 13 34 13 z M 25 22C19.633333 22 16.484881 25.066456 14.873047 28.021484C13.261213 30.976513 13.003906 33.910156 13.003906 33.910156 A 1.0001 1.0001 0 0 0 14.164062 34.986328C14.164062 34.986328 20.133333 34 25 34C29.866667 34 35.835937 34.986328 35.835938 34.986328 A 1.0001 1.0001 0 0 0 36.996094 33.910156C36.996094 33.910156 36.738787 30.976513 35.126953 28.021484C33.515119 25.066456 30.366667 22 25 22 z M 25 24C29.633333 24 31.984881 26.433544 33.373047 28.978516C34.210979 30.514725 34.56745 31.837562 34.769531 32.820312C33.11187 32.56711 29.154411 32 25 32C20.845589 32 16.88813 32.56711 15.230469 32.820312C15.43255 31.837563 15.789021 30.514725 16.626953 28.978516C18.015119 26.433544 20.366667 24 25 24 z" />
</svg>