<?xml version="1.0" encoding="utf-8"?>
<svg xmlns="http://www.w3.org/2000/svg" viewBox="0 0 50 50" width="515" height="515">
  <path d="M0.8125 0C0.78125 0.0078125 0.75 0.0195313 0.71875 0.03125C0.6875 0.0390625 0.65625 0.0507813 0.625 0.0625C0.59375 0.0703125 0.5625 0.0820313 0.53125 0.09375C0.519531 0.105469 0.511719 0.113281 0.5 0.125C0.480469 0.132813 0.457031 0.144531 0.4375 0.15625C0.425781 0.167969 0.417969 0.175781 0.40625 0.1875C0.386719 0.195313 0.363281 0.207031 0.34375 0.21875C0.34375 0.230469 0.34375 0.238281 0.34375 0.25C0.324219 0.257813 0.300781 0.269531 0.28125 0.28125C0.269531 0.292969 0.261719 0.300781 0.25 0.3125C0.238281 0.324219 0.230469 0.332031 0.21875 0.34375C0.207031 0.363281 0.195313 0.386719 0.1875 0.40625C0.175781 0.417969 0.167969 0.425781 0.15625 0.4375C0.15625 0.449219 0.15625 0.457031 0.15625 0.46875C0.132813 0.488281 0.113281 0.507813 0.09375 0.53125C0.09375 0.542969 0.09375 0.550781 0.09375 0.5625C0.0820313 0.574219 0.0742188 0.582031 0.0625 0.59375C0.0625 0.613281 0.0625 0.636719 0.0625 0.65625C0.0507813 0.667969 0.0429688 0.675781 0.03125 0.6875C0.03125 0.707031 0.03125 0.730469 0.03125 0.75C0.0195313 0.761719 0.0117188 0.769531 0 0.78125C0 0.800781 0 0.824219 0 0.84375C-0.0195313 0.957031 -0.0195313 1.074219 0 1.1875L0 35C0 35.242188 0.0898438 35.476563 0.25 35.65625L12.1875 49.5625L12.25 49.65625C12.269531 49.679688 12.289063 49.699219 12.3125 49.71875C12.332031 49.742188 12.351563 49.761719 12.375 49.78125C12.40625 49.804688 12.4375 49.824219 12.46875 49.84375C12.488281 49.867188 12.507813 49.886719 12.53125 49.90625C12.542969 49.90625 12.550781 49.90625 12.5625 49.90625C12.582031 49.917969 12.605469 49.929688 12.625 49.9375C12.636719 49.9375 12.644531 49.9375 12.65625 49.9375C12.675781 49.949219 12.699219 49.960938 12.71875 49.96875C12.730469 49.96875 12.738281 49.96875 12.75 49.96875C12.8125 49.984375 12.875 49.996094 12.9375 50C12.980469 50.003906 13.019531 50.003906 13.0625 50L49 50C49.550781 50 50 49.550781 50 49L50 13.0625C50 13.042969 50 13.019531 50 13C50 12.988281 50 12.980469 50 12.96875C50 12.949219 50 12.925781 50 12.90625C50 12.894531 50 12.886719 50 12.875C49.992188 12.855469 49.980469 12.832031 49.96875 12.8125C49.96875 12.800781 49.96875 12.792969 49.96875 12.78125C49.960938 12.75 49.949219 12.71875 49.9375 12.6875C49.9375 12.675781 49.9375 12.667969 49.9375 12.65625C49.925781 12.644531 49.917969 12.636719 49.90625 12.625C49.90625 12.613281 49.90625 12.605469 49.90625 12.59375C49.886719 12.550781 49.867188 12.507813 49.84375 12.46875C49.835938 12.449219 49.824219 12.425781 49.8125 12.40625C49.765625 12.347656 49.714844 12.296875 49.65625 12.25L49.59375 12.1875C49.554688 12.152344 49.511719 12.121094 49.46875 12.09375L35.65625 0.25C35.476563 0.0898438 35.242188 0 35 0L1.09375 0C1.03125 -0.0078125 0.96875 -0.0078125 0.90625 0C0.875 0 0.84375 0 0.8125 0 Z M 3.4375 2L34.625 2L46.3125 12L13.4375 12 Z M 2.90625 4.375L4.625 6.09375C4.265625 6.246094 4 6.585938 4 7C4 7.550781 4.449219 8 5 8C5.414063 8 5.753906 7.734375 5.90625 7.375L7.625 9.09375C7.265625 9.246094 7 9.585938 7 10C7 10.550781 7.449219 11 8 11C8.414063 11 8.753906 10.734375 8.90625 10.375L10.625 12.09375C10.265625 12.246094 10 12.585938 10 13C10 13.550781 10.449219 14 11 14C11.414063 14 11.753906 13.734375 11.90625 13.375L12 13.4375L12 46.3125L4.84375 37.96875C4.898438 37.976563 4.941406 38 5 38C5.550781 38 6 37.550781 6 37C6 36.449219 5.550781 36 5 36C4.457031 36 4.015625 36.429688 4 36.96875L2.25 34.9375C2.671875 34.820313 3 34.460938 3 34C3 33.449219 2.550781 33 2 33L2 29C2.550781 29 3 28.550781 3 28C3 27.449219 2.550781 27 2 27L2 23C2.550781 23 3 22.550781 3 22C3 21.449219 2.550781 21 2 21L2 17C2.550781 17 3 16.550781 3 16C3 15.449219 2.550781 15 2 15L2 11C2.550781 11 3 10.550781 3 10C3 9.449219 2.550781 9 2 9L2 5C2.414063 5 2.753906 4.734375 2.90625 4.375 Z M 12 43C12 42.449219 11.550781 42 11 42C10.449219 42 10 42.449219 10 43C10 43.550781 10.449219 44 11 44C11.550781 44 12 43.550781 12 43 Z M 12 37C12 36.449219 11.550781 36 11 36C10.449219 36 10 36.449219 10 37C10 37.550781 10.449219 38 11 38C11.550781 38 12 37.550781 12 37 Z M 12 31C12 30.449219 11.550781 30 11 30C10.449219 30 10 30.449219 10 31C10 31.550781 10.449219 32 11 32C11.550781 32 12 31.550781 12 31 Z M 12 25C12 24.449219 11.550781 24 11 24C10.449219 24 10 24.449219 10 25C10 25.550781 10.449219 26 11 26C11.550781 26 12 25.550781 12 25 Z M 12 19C12 18.449219 11.550781 18 11 18C10.449219 18 10 18.449219 10 19C10 19.550781 10.449219 20 11 20C11.550781 20 12 19.550781 12 19 Z M 5 12C4.449219 12 4 12.449219 4 13C4 13.550781 4.449219 14 5 14C5.550781 14 6 13.550781 6 13C6 12.449219 5.550781 12 5 12 Z M 14 14L48 14L48 48L14 48 Z M 8 15C7.449219 15 7 15.449219 7 16C7 16.550781 7.449219 17 8 17C8.550781 17 9 16.550781 9 16C9 15.449219 8.550781 15 8 15 Z M 5 18C4.449219 18 4 18.449219 4 19C4 19.550781 4.449219 20 5 20C5.550781 20 6 19.550781 6 19C6 18.449219 5.550781 18 5 18 Z M 8 21C7.449219 21 7 21.449219 7 22C7 22.550781 7.449219 23 8 23C8.550781 23 9 22.550781 9 22C9 21.449219 8.550781 21 8 21 Z M 5 24C4.449219 24 4 24.449219 4 25C4 25.550781 4.449219 26 5 26C5.550781 26 6 25.550781 6 25C6 24.449219 5.550781 24 5 24 Z M 8 27C7.449219 27 7 27.449219 7 28C7 28.550781 7.449219 29 8 29C8.550781 29 9 28.550781 9 28C9 27.449219 8.550781 27 8 27 Z M 5 30C4.449219 30 4 30.449219 4 31C4 31.550781 4.449219 32 5 32C5.550781 32 6 31.550781 6 31C6 30.449219 5.550781 30 5 30 Z M 8 33C7.449219 33 7 33.449219 7 34C7 34.550781 7.449219 35 8 35C8.550781 35 9 34.550781 9 34C9 33.449219 8.550781 33 8 33 Z M 8 39C7.449219 39 7 39.449219 7 40C7 40.550781 7.449219 41 8 41C8.550781 41 9 40.550781 9 40C9 39.449219 8.550781 39 8 39Z" />
</svg>