<?xml version="1.0" encoding="utf-8"?>
<svg xmlns="http://www.w3.org/2000/svg" viewBox="0 0 50 50" width="515" height="515">
  <path d="M16 0C7.160156 0 0 7.160156 0 16C0 24.839844 7.160156 32 16 32C16.734375 32 17.449219 31.972656 18.15625 31.875C18.0625 32.574219 18 33.277344 18 34C18 42.824219 25.175781 50 34 50C42.824219 50 50 42.824219 50 34C50 25.175781 42.824219 18 34 18C33.277344 18 32.574219 18.0625 31.875 18.15625C31.972656 17.449219 32 16.734375 32 16C32 7.160156 24.839844 0 16 0 Z M 40.28125 0.28125L35.28125 5.28125L34.59375 6L35.28125 6.71875L40.28125 11.71875L41.71875 10.28125L38.4375 7L43 7C45.753906 7 48 9.246094 48 12L48 18L50 18L50 12C50 8.15625 46.84375 5 43 5L38.4375 5L41.71875 1.71875 Z M 16 2C23.761719 2 30 8.238281 30 16C30 16.941406 29.925781 17.773438 29.75 18.59375C24.34375 20.085938 20.085938 24.34375 18.59375 29.75C17.773438 29.925781 16.941406 30 16 30C8.238281 30 2 23.761719 2 16C2 8.238281 8.238281 2 16 2 Z M 17.09375 7.90625C15.292969 7.90625 13.914063 8.488281 12.8125 9.6875C11.8125 10.789063 11.210938 12.199219 10.8125 14L9.59375 14L9 15.3125L10.59375 15.3125L10.59375 16.40625L9.59375 16.40625L9 17.6875L10.6875 17.6875C11.386719 21.988281 13.492188 24.09375 17.09375 24.09375C18.394531 24.09375 19.5 23.695313 20.5 23.09375L20.5 20.8125C19.898438 21.414063 19.398438 21.800781 19 22C18.398438 22.300781 17.792969 22.40625 17.09375 22.40625C14.792969 22.40625 13.40625 20.792969 12.90625 17.59375L17.6875 17.59375L18.3125 16.3125L12.8125 16.3125L12.8125 15.1875L18.59375 15.1875L19.1875 13.90625L12.90625 13.90625C13.105469 12.605469 13.492188 11.707031 14.09375 10.90625C14.792969 10.007813 15.710938 9.5 16.8125 9.5C17.914063 9.5 19 10 20 11L21.09375 9.3125C19.792969 8.414063 18.394531 7.90625 17.09375 7.90625 Z M 34 20C41.742188 20 48 26.257813 48 34C48 41.742188 41.742188 48 34 48C26.257813 48 20 41.742188 20 34C20 26.257813 26.257813 20 34 20 Z M 33.59375 24.1875L33.59375 25.6875C32.992188 25.6875 32.414063 25.894531 31.8125 26.09375C31.210938 26.394531 30.710938 26.695313 30.3125 27.09375C29.914063 27.59375 29.511719 27.992188 29.3125 28.59375C29.011719 29.09375 28.90625 29.707031 28.90625 30.40625C28.90625 31.105469 28.988281 31.59375 29.1875 32.09375C29.289063 32.59375 29.601563 33.011719 30 33.3125C30.398438 33.613281 30.804688 33.894531 31.40625 34.09375C31.90625 34.292969 32.605469 34.488281 33.40625 34.6875L33.40625 40.59375C32.507813 40.394531 31.789063 40.101563 31.1875 39.5C30.6875 39 30.304688 38.195313 30.40625 37.09375L28.5 37.09375C28.601563 38.695313 29.101563 39.914063 30 40.8125C30.800781 41.710938 32 42.304688 33.5 42.40625L33.5 44.1875L34.6875 44.1875L34.6875 42.40625C35.488281 42.40625 36.085938 42.199219 36.6875 42C37.289063 41.699219 37.789063 41.398438 38.1875 41C38.585938 40.601563 38.988281 40.101563 39.1875 39.5C39.488281 39 39.59375 38.292969 39.59375 37.59375C39.59375 36.894531 39.488281 36.3125 39.1875 35.8125C38.988281 35.3125 38.710938 34.894531 38.3125 34.59375C37.914063 34.195313 37.492188 34.011719 37.09375 33.8125C36.695313 33.613281 36.394531 33.507813 36.09375 33.40625L34.8125 33L34.8125 27.5C36.210938 27.800781 37.011719 28.59375 37.3125 30.09375L39.1875 30.09375C38.886719 28.792969 38.386719 27.699219 37.6875 27C36.988281 26.300781 36.011719 25.789063 34.8125 25.6875L34.8125 24.1875 Z M 33.40625 27.59375L33.40625 32.8125C33.105469 32.710938 32.707031 32.507813 32.40625 32.40625C32.105469 32.207031 31.792969 32.105469 31.59375 31.90625C31.394531 31.707031 31.195313 31.488281 31.09375 31.1875C30.992188 30.886719 30.90625 30.585938 30.90625 30.1875C30.90625 29.386719 31.09375 28.710938 31.59375 28.3125C32.09375 27.8125 32.804688 27.59375 33.40625 27.59375 Z M 0 32L0 38C0 41.84375 3.15625 45 7 45L11.5625 45L8.28125 48.28125L9.71875 49.71875L14.71875 44.71875L15.40625 44L14.71875 43.28125L9.71875 38.28125L8.28125 39.71875L11.5625 43L7 43C4.246094 43 2 40.753906 2 38L2 32 Z M 34.6875 35.09375C35.085938 35.195313 35.414063 35.398438 35.8125 35.5C36.113281 35.601563 36.386719 35.800781 36.6875 36C36.988281 36.199219 37.210938 36.386719 37.3125 36.6875C37.414063 36.988281 37.5 37.414063 37.5 37.8125C37.5 38.210938 37.414063 38.699219 37.3125 39C37.210938 39.398438 36.988281 39.707031 36.6875 39.90625C36.488281 40.105469 36.113281 40.304688 35.8125 40.40625C35.511719 40.507813 35.085938 40.585938 34.6875 40.6875Z" />
</svg>