<?xml version="1.0" encoding="utf-8"?>
<svg xmlns="http://www.w3.org/2000/svg" viewBox="0 0 50 50" width="515" height="515">
  <path d="M2 5.9375L0 5.96875C0 5.96875 0 6.0625 0 6.0625C0 6.0625 0 6.09375 0 6.09375C-0.0078125 6.289063 -0.226563 13.539063 3.21875 20.9375C6.625 28.257813 13.863281 35.585938 28 35.9375L28 46.40625L29.59375 45.1875L48.59375 30.8125L49.65625 30L48.59375 29.1875L29.59375 14.8125L28 13.59375L28 23.90625C15.660156 23.652344 9.203125 19.261719 5.8125 14.875C2.320313 10.355469 2 5.9375 2 5.9375 Z M 3.03125 14.21875C3.417969 14.855469 3.71875 15.480469 4.21875 16.125C8.070313 21.105469 15.449219 26 29 26L30 26L30 17.625L46.34375 30L30 42.375L30 34L29 34C14.832031 34 8.289063 27.0625 5.03125 20.0625C4.085938 18.03125 3.480469 16.082031 3.03125 14.21875Z" />
</svg>