<?xml version="1.0" encoding="utf-8"?>
<svg xmlns="http://www.w3.org/2000/svg" viewBox="0 0 50 50" width="515" height="515">
  <path d="M43.90625 0C43.710938 -0.0078125 36.460938 -0.226563 29.0625 3.21875C21.742188 6.625 14.414063 13.863281 14.0625 28L3.59375 28L4.8125 29.59375L19.1875 48.59375L20 49.65625L20.8125 48.59375L35.1875 29.59375L36.40625 28L26.09375 28C26.347656 15.675781 30.738281 9.207031 35.125 5.8125C39.644531 2.316406 44.0625 2 44.0625 2L44.03125 0C44.03125 0 43.9375 0 43.9375 0C43.9375 0 43.90625 0 43.90625 0 Z M 35.78125 3.03125C35.144531 3.421875 34.519531 3.71875 33.875 4.21875C28.894531 8.074219 24 15.460938 24 29L24 30L32.375 30L20 46.34375L7.625 30L16 30L16 29C16 14.832031 22.9375 8.289063 29.9375 5.03125C31.96875 4.085938 33.917969 3.480469 35.78125 3.03125Z" />
</svg>