<?xml version="1.0" encoding="utf-8"?>
<svg xmlns="http://www.w3.org/2000/svg" viewBox="0 0 50 50" width="515" height="515">
  <path d="M5.96875 0L5.9375 2C5.9375 2 10.355469 2.320313 14.875 5.8125C19.261719 9.203125 23.652344 15.660156 23.90625 28L13.59375 28L14.8125 29.59375L29.1875 48.59375L30 49.65625L30.8125 48.59375L45.1875 29.59375L46.40625 28L35.9375 28C35.585938 13.863281 28.257813 6.625 20.9375 3.21875C13.539063 -0.226563 6.289063 -0.0078125 6.09375 0C6.09375 0 6.0625 0 6.0625 0C6.0625 0 5.96875 0 5.96875 0 Z M 14.21875 3.03125C16.082031 3.480469 18.03125 4.085938 20.0625 5.03125C27.0625 8.289063 34 14.832031 34 29L34 30L42.375 30L30 46.34375L17.625 30L26 30L26 29C26 15.449219 21.105469 8.070313 16.125 4.21875C15.480469 3.71875 14.855469 3.417969 14.21875 3.03125Z" />
</svg>