<?xml version="1.0" encoding="utf-8"?>
<svg xmlns="http://www.w3.org/2000/svg" viewBox="0 0 50 50" width="515" height="515">
  <path d="M22.800781 1.6992188C16.026863 1.6992188 11.001722 4.0128459 7.7421875 7.6582031C4.4826528 11.30356 3 16.206904 3 21.300781C3 25.405909 4.2615853 29.302823 6.4804688 32.472656C8.52231 35.389572 10.099609 38.615205 10.099609 41.900391L10.099609 48L12.099609 48L12.099609 41.900391C12.099609 37.985576 10.277299 34.409256 8.1191406 31.326172C6.1380239 28.496005 5 24.995653 5 21.300781C5 16.594659 6.3669566 12.19683 9.2324219 8.9921875C11.653089 6.2849919 15.158205 4.3794682 20 3.8515625L20 18.244141C17.413513 19.399817 15.599609 21.992968 15.599609 25C15.599609 29.075062 18.924935 32.400391 23 32.400391C24.768862 32.400391 26.396186 31.772915 27.671875 30.730469L32.740234 34.279297C32.632429 34.593389 32.400391 34.873876 32.400391 35.199219C32.400391 35.871441 32.620243 36.557882 33.103516 37.101562C33.586788 37.645244 34.349219 38 35.199219 38C36.049219 38 36.813602 37.645244 37.296875 37.101562C37.780148 36.557882 38 35.871441 38 35.199219C38 34.526997 37.780148 33.84251 37.296875 33.298828C36.813602 32.755146 36.049219 32.400391 35.199219 32.400391C34.746671 32.400391 34.32952 32.511488 33.955078 32.6875L29.044922 29.251953C29.895699 28.047006 30.400391 26.581128 30.400391 25C30.400391 21.992968 28.586487 19.399817 26 18.244141L26 3.8925781C30.566094 4.4109819 33.748564 6.0356156 35.96875 8.3320312C38.677406 11.133689 40.021901 15.004404 40.505859 19.214844L40.53125 19.421875L45.005859 27.148438C45.164247 27.467485 45.049389 27.897411 44.673828 28.140625L40 30.253906L40 35.800781C40 39.136679 37.223727 41.744952 33.902344 41.404297L33.886719 41.404297L30 41.126953L30 48L32 48L32 43.273438L33.699219 43.394531C38.176961 43.852583 42 40.264209 42 35.800781L42 31.544922L45.673828 29.882812L45.730469 29.847656C46.943352 29.089604 47.433436 27.528981 46.794922 26.251953L46.78125 26.224609L42.425781 18.705078C41.880811 14.319918 40.455107 10.096898 37.40625 6.9433594C34.289906 3.7200168 29.54671 1.6992187 22.800781 1.6992188 z M 22.800781 3.6992188C23.218678 3.6992188 23.601315 3.7285442 24 3.7441406L24 17.675781C23.671906 17.630972 23.34003 17.599609 23 17.599609C22.65997 17.599609 22.328094 17.630972 22 17.675781L22 3.7324219C22.270104 3.7244629 22.523208 3.6992188 22.800781 3.6992188 z M 23 19.599609C25.994185 19.599609 28.400391 22.005817 28.400391 25C28.400391 27.994183 25.994185 30.400391 23 30.400391C20.005815 30.400391 17.599609 27.994183 17.599609 25C17.599609 22.005817 20.005815 19.599609 23 19.599609 z M 23 21.199219C21.816667 21.199219 20.802283 21.678974 20.152344 22.410156C19.502405 23.141338 19.199219 24.077778 19.199219 25C19.199219 25.922222 19.502405 26.858662 20.152344 27.589844C20.802283 28.321026 21.816667 28.800781 23 28.800781C24.183333 28.800781 25.197717 28.321026 25.847656 27.589844C26.497595 26.858662 26.800781 25.922222 26.800781 25C26.800781 24.077778 26.497595 23.141338 25.847656 22.410156C25.197717 21.678974 24.183333 21.199219 23 21.199219 z M 23 23.199219C23.683333 23.199219 24.070122 23.421416 24.353516 23.740234C24.636909 24.059052 24.800781 24.522222 24.800781 25C24.800781 25.477778 24.636909 25.940948 24.353516 26.259766C24.070122 26.578584 23.683333 26.800781 23 26.800781C22.316667 26.800781 21.929878 26.578584 21.646484 26.259766C21.363091 25.940948 21.199219 25.477778 21.199219 25C21.199219 24.522222 21.363091 24.059052 21.646484 23.740234C21.929878 23.421416 22.316667 23.199219 23 23.199219 z M 35.199219 34.400391C35.549218 34.400391 35.686007 34.495631 35.802734 34.626953C35.919462 34.758271 36 34.971441 36 35.199219C36 35.426997 35.91946 35.642119 35.802734 35.773438C35.686007 35.904756 35.549218 36 35.199219 36C34.849219 36 34.714383 35.90476 34.597656 35.773438C34.480929 35.642119 34.400391 35.426997 34.400391 35.199219C34.400391 34.971441 34.480931 34.758271 34.597656 34.626953C34.714383 34.495635 34.849219 34.400391 35.199219 34.400391 z" />
</svg>