<?xml version="1.0" encoding="utf-8"?>
<svg xmlns="http://www.w3.org/2000/svg" viewBox="0 0 50 50" width="515" height="515">
  <path d="M28.09375 0C26.527344 -0.167969 25.417969 1.671875 26.28125 2.96875C26.300781 2.992188 26.320313 3.011719 26.34375 3.03125L29.5625 6.84375L26.59375 9.21875C26.5625 9.238281 26.53125 9.257813 26.5 9.28125C26.035156 9.746094 25.917969 10.519531 26.15625 11.0625C26.394531 11.605469 26.945313 12 27.59375 12L30.0625 12C30.554688 15.953125 33.910156 19 38 19C42.367188 19 45.898438 15.527344 46 11.1875C46 11.175781 46 11.167969 46 11.15625C46.003906 11.105469 46.003906 11.050781 46 11C46 10.96875 46 10.9375 46 10.90625L46 7.15625C46.003906 7.105469 46.003906 7.050781 46 7C46 6.96875 46 6.9375 46 6.90625L46 2.8125C46.003906 2.292969 45.609375 1.859375 45.09375 1.8125L28.125 0 Z M 28.09375 2.03125L44 3.6875L44 6L31.46875 6 Z M 14.375 6C14.25 6 14.125 6.007813 14 6.03125C13.96875 6.03125 13.9375 6.03125 13.90625 6.03125C13.875 6.039063 13.84375 6.050781 13.8125 6.0625L1.75 11.03125C1.121094 11.140625 0.570313 11.496094 0.28125 11.96875C-0.0742188 12.550781 -0.0703125 13.160156 0 13.65625C0.0117188 13.667969 0.0195313 13.675781 0.03125 13.6875L3.03125 28.375C3.039063 28.378906 3.03125 28.398438 3.03125 28.40625C3.105469 28.796875 3.304688 29.183594 3.59375 29.46875C3.636719 29.546875 3.6875 29.621094 3.75 29.6875L13.75 40.5625C13.761719 40.574219 13.769531 40.582031 13.78125 40.59375C14.683594 41.496094 15.898438 42 17.09375 42C18.214844 42 19.296875 41.582031 20.15625 40.84375L23.90625 37.59375L23.90625 49C23.90625 49.550781 24.355469 50 24.90625 50L27.875 50C28.152344 50.132813 28.472656 50.132813 28.75 50L48.90625 50C49.457031 50 49.90625 49.550781 49.90625 49L49.90625 27.71875C49.90625 27.707031 49.90625 27.699219 49.90625 27.6875C49.941406 26.300781 49.539063 25.03125 48.84375 23.96875C48.84375 23.957031 48.84375 23.949219 48.84375 23.9375C48.832031 23.917969 48.824219 23.894531 48.8125 23.875C48.742188 23.699219 48.621094 23.546875 48.46875 23.4375C47.261719 21.953125 45.398438 21 43.3125 21L31.8125 21C29.835938 21 27.519531 21.910156 26.0625 23.125C26.050781 23.136719 26.042969 23.144531 26.03125 23.15625L17.34375 30.9375L16 29.5625C16.113281 29.480469 16.226563 29.386719 16.3125 29.28125C16.695313 28.8125 16.789063 28.234375 16.6875 27.71875L13.6875 12.75C13.6875 12.742188 13.6875 12.726563 13.6875 12.71875L13.65625 12.71875C13.554688 12.195313 13.269531 11.691406 12.84375 11.40625C12.40625 11.113281 11.898438 11 11.40625 11L7.125 11L14.34375 8.03125L17.71875 25C17.832031 25.542969 18.363281 25.894531 18.90625 25.78125C19.449219 25.667969 19.800781 25.136719 19.6875 24.59375L16.28125 7.5C16.097656 6.578125 15.253906 5.996094 14.375 6 Z M 31.34375 8L44 8L44 10L31.1875 10C31.054688 9.972656 30.914063 9.972656 30.78125 10L28.8125 10L31.3125 8.03125 Z M 32.09375 12L43.90625 12C43.441406 14.871094 41.027344 17 38 17C34.972656 17 32.558594 14.871094 32.09375 12 Z M 2.25 13L11.40625 13C11.613281 13 11.707031 13.054688 11.71875 13.0625C11.71875 13.074219 11.71875 13.082031 11.71875 13.09375L14.6875 28C14.683594 28.003906 14.730469 28 14.59375 28L4.96875 28L1.96875 13.34375L2 13.34375C1.980469 13.195313 1.992188 13.144531 2 13.09375C2.0625 13.078125 2.128906 13.058594 2.1875 13.03125 Z M 31.8125 23L40.59375 23L25.90625 41.28125L25.90625 35.40625C25.90625 35.015625 25.675781 34.660156 25.320313 34.5C24.960938 34.339844 24.546875 34.398438 24.25 34.65625L18.84375 39.34375C18.304688 39.804688 17.773438 40 17.09375 40C16.503906 40 15.75 39.699219 15.25 39.21875L15.21875 39.1875L6.8125 30L13.5625 30L16.59375 33C16.972656 33.375 17.574219 33.386719 17.96875 33.03125L27.34375 24.65625C27.347656 24.652344 27.371094 24.660156 27.375 24.65625C28.328125 23.875 30.59375 23 31.8125 23 Z M 43.15625 23L43.3125 23C44.636719 23 45.804688 23.5 46.625 24.3125L27.875 48L25.90625 48L25.90625 44.46875 Z M 47.6875 26.15625C47.828125 26.625 47.921875 27.121094 47.90625 27.65625C47.90625 27.667969 47.90625 27.675781 47.90625 27.6875L47.90625 48L30.4375 48Z" />
</svg>