<?xml version="1.0" encoding="utf-8"?>
<svg xmlns="http://www.w3.org/2000/svg" viewBox="0 0 50 50" width="515" height="515">
  <path d="M18 2C16.416667 2 15.101892 2.6297556 14.251953 3.5859375C13.402014 4.5421194 13 5.7777779 13 7C13 8.2222221 13.402014 9.4578811 14.251953 10.414062C15.101892 11.370245 16.416667 12 18 12C18.43402 12 18.788186 11.850078 19.177734 11.761719L20.095703 13.771484C16.5166 15.846522 14 19.558674 14 24C14 25.160429 14.351967 26.208741 14.658203 27.269531L11.175781 28.314453C11.028638 28.072565 10.940571 27.802526 10.748047 27.585938C9.8981077 26.629756 8.5833329 26 7 26C5.4166671 26 4.1018922 26.629756 3.2519531 27.585938C2.402014 28.542119 2 29.777778 2 31C2 32.222222 2.402014 33.457881 3.2519531 34.414062C4.1018922 35.370244 5.4166671 36 7 36C8.5833329 36 9.8981077 35.370244 10.748047 34.414062C11.597986 33.457881 12 32.222222 12 31C12 30.7278 11.90372 30.465634 11.863281 30.195312L15.275391 29.169922C15.873377 30.406159 16.68356 31.492663 17.648438 32.417969 A 1.0001 1.0001 0 0 0 18.300781 32.996094C19.67808 34.130747 21.317958 34.964839 23.130859 35.421875L22.820312 38.037109C21.325171 38.087089 20.066317 38.669778 19.251953 39.585938C18.402014 40.542119 18 41.777778 18 43C18 44.222222 18.402014 45.457881 19.251953 46.414062C20.101892 47.370244 21.416667 48 23 48C24.583333 48 25.898108 47.370245 26.748047 46.414062C27.597986 45.457881 28 44.222222 28 43C28 41.777778 27.597986 40.542118 26.748047 39.585938C26.25319 39.029223 25.566006 38.638734 24.794922 38.363281L25.097656 35.818359C25.411535 35.842892 25.679739 36 26 36C29.372072 36 32.393913 34.596835 34.572266 32.363281L38.589844 35.710938C38.237354 36.436376 38 37.205565 38 38C38 39.222222 38.402014 40.457881 39.251953 41.414062C40.101892 42.370244 41.416667 43 43 43C44.583333 43 45.898108 42.370244 46.748047 41.414062C47.597986 40.457881 48 39.222222 48 38C48 36.777778 47.597986 35.542119 46.748047 34.585938C45.898108 33.629756 44.583333 33 43 33C41.712253 33 40.676312 33.486372 39.849609 34.15625L35.697266 30.695312C37.037669 28.758331 38 26.537845 38 24C38 21.049728 36.817808 18.445372 35.056641 16.357422L38.267578 13.146484C39.035379 13.636554 39.919494 14 41 14C42.583333 14 43.898108 13.370244 44.748047 12.414062C45.597986 11.457882 46 10.222222 46 9C46 7.7777779 45.597986 6.5421194 44.748047 5.5859375C43.898108 4.6297556 42.583333 4 41 4C39.416667 4 38.101892 4.6297556 37.251953 5.5859375C36.402014 6.5421194 36 7.7777779 36 9C36 9.9637064 36.329015 10.897472 36.851562 11.734375L33.642578 14.943359C31.554628 13.182192 28.950272 12 26 12C24.532504 12 23.164117 12.351549 21.865234 12.832031L21.005859 10.949219C21.250659 10.766298 21.550807 10.635958 21.748047 10.414062C22.597986 9.4578811 23 8.2222221 23 7C23 5.7777779 22.597986 4.5421194 21.748047 3.5859375C20.898108 2.6297556 19.583333 2 18 2 z M 18 4C19.083333 4 19.768559 4.3702444 20.251953 4.9140625C20.735347 5.4578806 21 6.2222221 21 7C21 7.7777779 20.735347 8.5421194 20.251953 9.0859375C19.768559 9.6297556 19.083333 10 18 10C16.916667 10 16.231441 9.6297556 15.748047 9.0859375C15.264653 8.5421194 15 7.7777779 15 7C15 6.2222221 15.264653 5.4578806 15.748047 4.9140625C16.231441 4.3702444 16.916667 4 18 4 z M 41 6C42.083333 6 42.768559 6.3702444 43.251953 6.9140625C43.735347 7.4578806 44 8.2222221 44 9C44 9.7777779 43.735347 10.542119 43.251953 11.085938C42.768559 11.629755 42.083333 12 41 12C39.916667 12 39.231441 11.629756 38.748047 11.085938C38.264653 10.542118 38 9.7777779 38 9C38 8.2222221 38.264653 7.4578806 38.748047 6.9140625C39.231441 6.3702444 39.916667 6 41 6 z M 26 14C31.564481 14 36 18.435519 36 24C36 26.577689 35.039795 28.905459 33.464844 30.669922C32.59056 29.986648 31.544514 29.69279 30.693359 29.431641C30.141554 29.262337 29.654666 29.10744 29.34375 28.953125C29.086959 28.825674 29.040839 28.749919 29 28.685547L29 27.544922C29.02513 27.505722 29.08285 27.466822 29.109375 27.425781C29.244066 27.217432 29.367344 26.984521 29.484375 26.728516C29.649535 26.367228 29.744715 25.936471 29.84375 25.515625C30.371438 25.175088 30.810771 24.645363 30.980469 23.796875C31.065669 23.370873 31.029697 22.964414 30.904297 22.613281C30.872247 22.523531 30.753254 22.466325 30.710938 22.380859C30.870732 21.75954 31 21.131795 31 20.300781C31 19.561892 30.857342 18.750328 30.388672 18.029297C29.968622 17.383067 29.216917 16.905564 28.314453 16.708984C27.715275 16.123334 26.909531 15.800781 26 15.800781C24.421429 15.800781 23.126092 16.238413 22.25 17.097656C21.373908 17.9569 21 19.159914 21 20.400391C21 20.944126 21.11359 21.643825 21.294922 22.337891C21.262802 22.421401 21.134883 22.500566 21.113281 22.576172C21.02527 22.884213 21 23.183333 21 23.5L21 23.554688L21.005859 23.611328C21.078309 24.263337 21.348036 24.802772 21.697266 25.173828C21.818808 25.302967 22.016885 25.297241 22.150391 25.392578C22.248941 25.799306 22.347237 26.211948 22.511719 26.582031C22.626373 26.840004 22.746666 27.078078 22.878906 27.292969C22.907196 27.338949 22.973896 27.385789 23 27.429688L23 28.6875C22.95655 28.75648 22.90276 28.838741 22.642578 28.972656C22.329461 29.133819 21.845087 29.298225 21.296875 29.472656C20.449937 29.742137 19.419571 30.03056 18.548828 30.685547C16.965611 28.919274 16 26.585235 16 24C16 18.435519 20.435519 14 26 14 z M 26 17.800781C26.677778 17.800781 27.005261 18.052388 27.042969 18.115234L27.292969 18.53125L27.775391 18.591797C28.323505 18.660307 28.529608 18.840171 28.710938 19.119141C28.892267 19.398107 29 19.83967 29 20.300781C29 21.234115 28.877569 21.963303 28.771484 22.228516L28.429688 23.082031L29.019531 23.376953C29.018654 23.390813 29.023031 23.387037 29.019531 23.404297C28.950481 23.74953 28.864627 23.860165 28.828125 23.900391L28.105469 23.900391L28.005859 24.789062C27.974709 25.069375 27.831954 25.533495 27.666016 25.896484C27.583046 26.077979 27.494997 26.238818 27.429688 26.339844C27.400201 26.385455 27.368109 26.414609 27.353516 26.427734L27 26.664062L27 29.193359L27.072266 29.371094C27.347485 30.059143 27.915994 30.476581 28.455078 30.744141C28.994162 31.011701 29.559227 31.175554 30.107422 31.34375C30.804458 31.557613 31.431551 31.788511 31.921875 32.070312C30.268142 33.280164 28.227917 34 26 34C23.78568 34 21.755824 33.290158 20.107422 32.09375C20.599272 31.826966 21.220277 31.593974 21.902344 31.376953C22.454132 31.201384 23.021711 31.02829 23.558594 30.751953C24.095477 30.475616 24.653937 30.055586 24.927734 29.371094L25 29.193359L25 26.564453L24.667969 26.34375C24.653568 26.331037 24.613908 26.295941 24.582031 26.244141C24.514271 26.134032 24.423236 25.961559 24.337891 25.769531C24.1672 25.385476 24.019925 24.89768 23.992188 24.675781L23.882812 23.800781L23.152344 23.800781C23.105874 23.751221 23.040641 23.628934 23.007812 23.423828C23.011612 23.349208 23.016208 23.304336 23.023438 23.255859L23.589844 22.972656L23.21875 22.105469C23.013834 21.627331 23 21.100391 23 20.400391C23 19.540867 23.226482 18.9431 23.650391 18.527344C24.074299 18.111587 24.778571 17.800781 26 17.800781 z M 7 28C8.0833326 28 8.7685595 28.370244 9.2519531 28.914062C9.7353468 29.457881 10 30.222222 10 31C10 31.777778 9.7353468 32.542118 9.2519531 33.085938C8.7685595 33.629756 8.0833326 34 7 34C5.9166674 34 5.2314405 33.629756 4.7480469 33.085938C4.2646532 32.542119 4 31.777778 4 31C4 30.222222 4.2646532 29.457882 4.7480469 28.914062C5.2314405 28.370244 5.9166674 28 7 28 z M 43 35C44.083333 35 44.768559 35.370244 45.251953 35.914062C45.735347 36.457881 46 37.222222 46 38C46 38.777778 45.735347 39.542119 45.251953 40.085938C44.768559 40.629756 44.083333 41 43 41C41.916667 41 41.231441 40.629756 40.748047 40.085938C40.264653 39.542119 40 38.777778 40 38C40 37.222222 40.264653 36.457881 40.748047 35.914062C41.231441 35.370244 41.916667 35 43 35 z M 23 40C24.083333 40 24.768559 40.370244 25.251953 40.914062C25.735347 41.457881 26 42.222222 26 43C26 43.777778 25.735347 44.542119 25.251953 45.085938C24.768559 45.629756 24.083333 46 23 46C21.916667 46 21.231441 45.629755 20.748047 45.085938C20.264653 44.542119 20 43.777778 20 43C20 42.222222 20.264653 41.457882 20.748047 40.914062C21.231441 40.370244 21.916667 40 23 40 z" />
</svg>