<?xml version="1.0" encoding="utf-8"?>
<svg xmlns="http://www.w3.org/2000/svg" viewBox="0 0 50 50" width="515" height="515">
  <path d="M7.625 2C4.699219 2 2.6875 3.230469 1.53125 4.75C0.375 6.269531 0 7.992188 0 9.1875C0 11.28125 0.898438 14.542969 4.9375 16.34375C8.953125 18.132813 13.355469 18.980469 17.09375 24.5C13.359375 30.03125 8.953125 30.867188 4.9375 32.65625C0.898438 34.457031 0 37.71875 0 39.8125C0 41.007813 0.375 42.730469 1.53125 44.25C2.6875 45.769531 4.699219 47 7.625 47C10.667969 47 12.734375 45.582031 13.90625 43.96875C15.078125 42.355469 15.4375 40.675781 15.4375 39.625C15.4375 38.058594 14.867188 36.089844 13.46875 34.84375C13.589844 34.742188 13.769531 34.566406 14.0625 34.40625C14.066406 34.402344 14.089844 34.410156 14.09375 34.40625C15.796875 33.488281 21.804688 29.824219 22.4375 29.4375L24.59375 30.96875L38.25 40.78125L38.28125 40.78125C38.3125 40.804688 39.78125 41.914063 41.90625 42.53125C44.054688 43.15625 47.019531 43.257813 49.625 41.125C49.871094 40.929688 50.011719 40.632813 50.003906 40.320313C50 40.007813 49.847656 39.714844 49.59375 39.53125L30.90625 25.75L29.21875 24.5L49.59375 9.46875C49.847656 9.285156 50 8.992188 50.003906 8.679688C50.011719 8.367188 49.871094 8.070313 49.625 7.875C48.324219 6.808594 46.929688 6.292969 45.59375 6.125C44.257813 5.957031 42.980469 6.15625 41.90625 6.46875C39.78125 7.085938 38.3125 8.195313 38.28125 8.21875C38.28125 8.21875 38.25 8.21875 38.25 8.21875L22.4375 19.5625C21.804688 19.175781 15.773438 15.5 14.09375 14.59375C13.792969 14.429688 13.597656 14.261719 13.46875 14.15625C14.867188 12.910156 15.4375 10.941406 15.4375 9.375C15.4375 8.324219 15.078125 6.644531 13.90625 5.03125C12.734375 3.417969 10.667969 2 7.625 2 Z M 7.625 4C10.078125 4 11.410156 5.019531 12.28125 6.21875C13.152344 7.417969 13.4375 8.90625 13.4375 9.375C13.4375 10.367188 12.8125 12.148438 12.09375 12.75C11.730469 13.050781 11.429688 13.445313 11.34375 13.9375C11.257813 14.429688 11.4375 14.910156 11.65625 15.21875C12.097656 15.835938 12.667969 16.097656 13.125 16.34375C14.394531 17.027344 19.09375 19.894531 20.65625 20.84375L18.46875 22.40625C18.371094 22.472656 18.285156 22.558594 18.21875 22.65625C14.203125 17.234375 9.3125 16.117188 5.75 14.53125C2.382813 13.03125 2 10.820313 2 9.1875C2 8.4375 2.300781 7.050781 3.125 5.96875C3.949219 4.886719 5.230469 4 7.625 4 Z M 7.34375 5.75C5.253906 5.75 3.527344 7.566406 3.78125 9.6875C4.039063 11.808594 5.925781 13.40625 8.03125 13.40625C10.230469 13.40625 11.691406 11.304688 11.4375 9.21875C11.183594 7.132813 9.339844 5.75 7.34375 5.75 Z M 7.34375 7.75C8.457031 7.75 9.34375 8.425781 9.46875 9.46875C9.59375 10.511719 8.941406 11.40625 8.03125 11.40625C7.027344 11.40625 5.902344 10.445313 5.78125 9.4375C5.660156 8.429688 6.324219 7.75 7.34375 7.75 Z M 44.5625 8.0625C44.808594 8.0625 45.0625 8.0625 45.3125 8.09375C45.933594 8.167969 46.585938 8.394531 47.21875 8.71875L22.125 27.25C21.894531 27.3125 21.695313 27.457031 21.5625 27.65625C21.152344 27.90625 14.570313 31.878906 13.125 32.65625C12.667969 32.902344 12.097656 33.164063 11.65625 33.78125C11.4375 34.089844 11.257813 34.570313 11.34375 35.0625C11.429688 35.554688 11.730469 35.949219 12.09375 36.25C12.8125 36.851563 13.4375 38.632813 13.4375 39.625C13.4375 40.09375 13.152344 41.582031 12.28125 42.78125C11.410156 43.980469 10.078125 45 7.625 45C5.230469 45 3.949219 44.113281 3.125 43.03125C2.300781 41.949219 2 40.5625 2 39.8125C2 38.179688 2.382813 35.96875 5.75 34.46875C9.777344 32.671875 15.507813 31.402344 19.75 23.9375L39.4375 9.84375C39.449219 9.832031 39.457031 9.824219 39.46875 9.8125C39.46875 9.8125 40.707031 8.886719 42.46875 8.375C43.128906 8.183594 43.828125 8.066406 44.5625 8.0625 Z M 23 22.90625C22.394531 22.90625 21.90625 23.394531 21.90625 24C21.90625 24.605469 22.394531 25.09375 23 25.09375C23.605469 25.09375 24.09375 24.605469 24.09375 24C24.09375 23.394531 23.605469 22.90625 23 22.90625 Z M 27.53125 25.75L29.71875 27.34375L47.21875 40.28125C45.5625 41.125 43.894531 41.039063 42.46875 40.625C40.707031 40.113281 39.46875 39.1875 39.46875 39.1875C39.457031 39.175781 39.449219 39.167969 39.4375 39.15625L25.75 29.34375L24.15625 28.21875 Z M 8.03125 35.59375C5.921875 35.59375 4.035156 37.191406 3.78125 39.3125C3.523438 41.433594 5.253906 43.25 7.34375 43.25C9.34375 43.25 11.183594 41.863281 11.4375 39.78125C11.691406 37.695313 10.230469 35.59375 8.03125 35.59375 Z M 8.03125 37.59375C8.941406 37.59375 9.59375 38.488281 9.46875 39.53125C9.34375 40.574219 8.457031 41.25 7.34375 41.25C6.324219 41.25 5.660156 40.570313 5.78125 39.5625C5.902344 38.558594 7.027344 37.59375 8.03125 37.59375Z" />
</svg>