<?xml version="1.0" encoding="utf-8"?>
<svg xmlns="http://www.w3.org/2000/svg" viewBox="0 0 50 50" width="515" height="515">
  <path d="M10.8125 0C10.335938 0.0898438 9.992188 0.511719 10 1L10 15C10 18.054688 11.523438 19.878906 12.875 21C13.550781 21.558594 14.179688 22 14.5625 22.34375C14.945313 22.6875 15 22.828125 15 23C15 23.949219 14.75 26.75 14.5 29.84375C14.25 32.9375 14 36.382813 14 39C14 43.71875 14.433594 46.320313 15.25 47.9375C15.65625 48.746094 16.207031 49.308594 16.8125 49.625C17.417969 49.941406 18.027344 50 18.5 50C18.972656 50 19.582031 49.941406 20.1875 49.625C20.792969 49.308594 21.34375 48.746094 21.75 47.9375C22.566406 46.320313 23 43.71875 23 39C23 36.382813 22.75 32.9375 22.5 29.84375C22.25 26.75 22 23.949219 22 23C22 22.828125 22.058594 22.679688 22.4375 22.34375C22.816406 22.007813 23.449219 21.617188 24.125 21.0625C25.480469 19.953125 27 18.097656 27 15L27 1C27 0.449219 26.550781 0 26 0L23 0C22.449219 0 22 0.449219 22 1L22 11.5C22 11.714844 21.714844 12 21.5 12C21.285156 12 21 11.714844 21 11.5L21 1C21 0.449219 20.550781 0 20 0L17 0C16.96875 0 16.9375 0 16.90625 0C16.390625 0.046875 15.996094 0.480469 16 1L16 11.5C16 11.714844 15.714844 12 15.5 12C15.285156 12 15 11.714844 15 11.5L15 1C15 0.449219 14.550781 0 14 0L11 0C10.96875 0 10.9375 0 10.90625 0C10.875 0 10.84375 0 10.8125 0 Z M 29.8125 0C29.335938 0.0898438 28.992188 0.511719 29 1L29 13C29 28.957031 28 32.378906 28 38C28 43.148438 28.351563 45.964844 29.09375 47.71875C29.464844 48.59375 29.980469 49.234375 30.625 49.59375C31.269531 49.953125 31.933594 50 32.5 50C33.066406 50 33.730469 49.953125 34.375 49.59375C35.019531 49.234375 35.535156 48.59375 35.90625 47.71875C36.648438 45.964844 37 43.148438 37 38C37 35.066406 36.1875 32.980469 35.40625 31.40625C34.625 29.832031 34 28.785156 34 28C34 27.25 34.269531 26.699219 34.75 26.0625C35.230469 25.425781 35.949219 24.765625 36.71875 24C38.261719 22.472656 40 20.378906 40 17C40 15.105469 39.75 11.046875 38.4375 7.3125C37.78125 5.445313 36.871094 3.652344 35.5 2.28125C34.128906 0.910156 32.257813 0 30 0C29.96875 0 29.9375 0 29.90625 0C29.875 0 29.84375 0 29.8125 0 Z M 12 2L13 2L13 11.5C13 12.882813 14.117188 14 15.5 14C16.882813 14 18 12.882813 18 11.5L18 2L19 2L19 11.5C19 12.882813 20.117188 14 21.5 14C22.882813 14 24 12.882813 24 11.5L24 2L25 2L25 15C25 17.503906 24.019531 18.5625 22.875 19.5C22.300781 19.96875 21.683594 20.382813 21.125 20.875C20.566406 21.367188 20 22.070313 20 23C20 24.25 20.25 26.917969 20.5 30C20.75 33.082031 21 36.515625 21 39C21 43.582031 20.503906 45.972656 19.96875 47.03125C19.703125 47.558594 19.453125 47.738281 19.25 47.84375C19.046875 47.949219 18.828125 48 18.5 48C18.171875 48 17.953125 47.949219 17.75 47.84375C17.546875 47.738281 17.296875 47.558594 17.03125 47.03125C16.496094 45.972656 16 43.582031 16 39C16 36.515625 16.25 33.082031 16.5 30C16.75 26.917969 17 24.25 17 23C17 22.070313 16.429688 21.34375 15.875 20.84375C15.320313 20.34375 14.699219 19.945313 14.125 19.46875C12.976563 18.515625 12 17.445313 12 15 Z M 31 2.1875C32.207031 2.398438 33.230469 2.855469 34.0625 3.6875C35.128906 4.753906 35.96875 6.285156 36.5625 7.96875C37.75 11.335938 38 15.292969 38 17C38 19.722656 36.738281 21.117188 35.28125 22.5625C34.550781 23.285156 33.769531 23.996094 33.125 24.84375C32.480469 25.691406 32 26.75 32 28C32 29.617188 32.875 30.828125 33.59375 32.28125C34.3125 33.734375 35 35.433594 35 38C35 43.050781 34.601563 45.742188 34.09375 46.9375C33.839844 47.535156 33.605469 47.734375 33.40625 47.84375C33.207031 47.953125 32.933594 48 32.5 48C32.066406 48 31.792969 47.953125 31.59375 47.84375C31.394531 47.734375 31.160156 47.535156 30.90625 46.9375C30.398438 45.742188 30 43.050781 30 38C30 32.621094 31 29.042969 31 13Z" />
</svg>