<?xml version="1.0" encoding="utf-8"?>
<svg xmlns="http://www.w3.org/2000/svg" viewBox="0 0 50 50" width="515" height="515">
  <path d="M19 2C16.25 2 14 4.25 14 7C14 9.75 16.25 12 19 12C21.75 12 24 9.75 24 7C24 4.25 21.75 2 19 2 Z M 19 4C20.667969 4 22 5.332031 22 7C22 8.667969 20.667969 10 19 10C17.332031 10 16 8.667969 16 7C16 5.332031 17.332031 4 19 4 Z M 26 12C25.882813 12 25.816406 12.015625 25.730469 12.027344C25.730469 12.023438 25.726563 12.023438 25.726563 12.027344C25.632813 12.019531 25.539063 12.027344 25.449219 12.046875L16.441406 14.054688C15.699219 14.195313 15.105469 14.652344 14.667969 15.222656L14.648438 15.238281C14.542969 15.316406 14.453125 15.417969 14.386719 15.53125L11.632813 20.125L6.847656 19.136719C6.785156 19.121094 6.71875 19.113281 6.65625 19.113281C6.652344 19.113281 6.648438 19.113281 6.648438 19.113281C6.441406 19.0625 6.242188 19 6 19C4.355469 19 3 20.355469 3 22C3 23.09375 3.671875 23.949219 4.550781 24.472656C4.683594 24.660156 4.878906 24.792969 5.101563 24.855469L5.164063 24.871094C5.226563 24.890625 5.320313 24.921875 5.460938 24.949219L5.386719 24.929688L12.820313 26.90625C12.914063 26.933594 13.011719 26.945313 13.109375 26.941406C13.113281 26.941406 13.113281 26.941406 13.117188 26.941406C13.242188 26.964844 13.351563 27 13.5 27C14.082031 27 14.574219 26.757813 15 26.421875L15 28.199219L12.300781 34.675781C12.273438 34.742188 12.253906 34.8125 12.242188 34.882813C12.101563 35.222656 12 35.59375 12 36C12 36.125 12.019531 36.214844 12.03125 36.316406C12.03125 36.320313 12.03125 36.320313 12.03125 36.324219C12.027344 36.417969 12.035156 36.507813 12.054688 36.597656L14.078125 45.242188C14.128906 45.457031 14.25 45.648438 14.421875 45.785156C14.957031 47.039063 16.0625 48 17.5 48C19.421875 48 21 46.421875 21 44.5C21 44.21875 20.925781 43.988281 20.863281 43.746094C20.871094 43.636719 20.863281 43.53125 20.835938 43.429688L19.066406 36.714844L20.222656 34.515625L21.054688 36.949219C21.066406 36.988281 21.082031 37.027344 21.101563 37.0625L21.558594 37.996094C21.585938 38.058594 21.625 38.117188 21.667969 38.171875L26.746094 44.664063C26.847656 44.796875 26.980469 44.898438 27.136719 44.964844C27.136719 44.964844 27.136719 44.964844 27.136719 44.96875C27.761719 45.566406 28.5625 46 29.5 46C31.421875 46 33 44.421875 33 42.5C33 41.867188 32.664063 41.371094 32.375 40.863281C32.378906 40.644531 32.3125 40.429688 32.183594 40.25L27 33.164063L27 20.183594L28.601563 22.125C28.65625 22.1875 28.71875 22.246094 28.785156 22.296875C29.230469 22.71875 29.832031 23 30.5 23C31 23 31.46875 22.847656 31.855469 22.597656L31.722656 22.671875L38.09375 19.785156L38.015625 19.816406C38.167969 19.761719 38.300781 19.699219 38.410156 19.640625C38.589844 19.554688 38.742188 19.414063 38.84375 19.242188C39.507813 18.695313 40 17.929688 40 17C40 15.355469 38.644531 14 37 14C36.691406 14 36.4375 14.117188 36.164063 14.203125C35.984375 14.191406 35.804688 14.226563 35.644531 14.308594L31.25 16.546875L28.308594 13.089844C28.214844 12.980469 28.101563 12.894531 27.972656 12.832031C27.445313 12.351563 26.777344 12 26 12 Z M 38.410156 19.640625L38.34375 19.671875L38.390625 19.652344C38.394531 19.648438 38.402344 19.644531 38.410156 19.640625 Z M 25.332031 13.964844C25.496094 14.027344 25.671875 14.046875 25.84375 14.019531C25.941406 14.003906 25.988281 14 26 14C26.308594 14 26.574219 14.136719 26.765625 14.367188C26.867188 14.492188 27 14.589844 27.148438 14.65625L26.949219 14.578125L30.238281 18.449219C30.539063 18.800781 31.039063 18.898438 31.453125 18.6875L36.382813 16.179688C36.441406 16.164063 36.5 16.140625 36.558594 16.113281C36.710938 16.035156 36.851563 16 37 16C37.566406 16 38 16.433594 38 17C38 17.378906 37.796875 17.6875 37.484375 17.863281C37.480469 17.867188 37.472656 17.871094 37.464844 17.875C37.40625 17.90625 37.371094 17.921875 37.34375 17.933594C37.316406 17.941406 37.292969 17.953125 37.265625 17.964844L30.898438 20.847656C30.855469 20.867188 30.8125 20.890625 30.769531 20.917969C30.6875 20.972656 30.597656 21 30.5 21C30.347656 21 30.230469 20.9375 30.128906 20.828125C29.976563 20.648438 29.761719 20.53125 29.53125 20.5L29.894531 20.550781L26.769531 16.765625C26.503906 16.4375 26.058594 16.316406 25.660156 16.460938C25.265625 16.601563 25 16.976563 25 17.402344L25 33.488281C25 33.703125 25.066406 33.910156 25.191406 34.078125L30.03125 40.699219L30.703125 40.105469C30.289063 40.46875 30.25 41.101563 30.617188 41.515625C30.859375 41.789063 31 42.121094 31 42.5C31 43.339844 30.339844 44 29.5 44C29.019531 44 28.609375 43.777344 28.328125 43.421875C28.296875 43.378906 28.261719 43.339844 28.222656 43.308594L23.308594 37.019531L22.925781 36.242188L21.363281 31.675781C21.234375 31.296875 20.894531 31.03125 20.496094 31C20.097656 30.96875 19.71875 31.179688 19.53125 31.53125L17.113281 36.125C17 36.347656 16.96875 36.605469 17.03125 36.84375L18.648438 42.972656L19.59375 42.722656C19.328125 42.792969 19.101563 42.972656 18.972656 43.21875C18.839844 43.464844 18.816406 43.75 18.90625 44.015625C18.96875 44.191406 19 44.347656 19 44.5C19 45.339844 18.339844 46 17.5 46C16.769531 46 16.175781 45.488281 16.03125 44.808594C15.9375 44.34375 15.527344 44.015625 15.054688 44.015625L15.84375 44.015625L14.046875 36.332031L14.019531 36.496094C14.039063 36.386719 14.039063 36.277344 14.019531 36.167969C14.003906 36.085938 14 36.03125 14 36C14 35.851563 14.035156 35.707031 14.109375 35.558594C14.15625 35.46875 14.1875 35.375 14.203125 35.277344L14.199219 35.328125L16.921875 28.785156C16.972656 28.664063 17 28.53125 17 28.402344L17 22.980469C17 22.519531 16.6875 22.117188 16.242188 22.007813C15.792969 21.898438 15.328125 22.105469 15.113281 22.511719L14.125 24.390625L14.457031 24.253906C14.234375 24.34375 14.050781 24.511719 13.9375 24.726563C13.851563 24.894531 13.699219 25 13.5 25C13.476563 25 13.441406 24.996094 13.371094 24.976563C13.148438 24.914063 12.910156 24.925781 12.699219 25.015625L13 24.886719L5.898438 23L6.359375 23.125L6.359375 23.886719C6.359375 23.457031 6.089844 23.078125 5.683594 22.9375C5.683594 22.9375 5.683594 22.9375 5.679688 22.9375C5.28125 22.804688 5 22.449219 5 22C5 21.433594 5.433594 21 6 21C6.09375 21 6.195313 21.015625 6.320313 21.0625C6.78125 21.21875 7.289063 21.019531 7.523438 20.59375L7.195313 21.25L11.921875 22.230469C12.339844 22.316406 12.765625 22.128906 12.984375 21.765625L15.996094 16.730469L15.855469 16.835938C15.96875 16.75 16.066406 16.644531 16.136719 16.515625C16.28125 16.257813 16.523438 16.074219 16.8125 16.019531C16.824219 16.019531 16.835938 16.015625 16.84375 16.015625L25.59375 14.0625 Z M 41.019531 21C40.460938 21 40 21.441406 40 22L40 30C40 30.550781 39.550781 31 39 31L37 31C35.34375 31 34 32.34375 34 34C34 35.65625 35.34375 37 37 37L38 37C40.210938 37 42 35.210938 42 33L42 25.5C42 25.238281 42.207031 25.007813 42.46875 25C43.5 24.980469 43.980469 26 46 26C46.550781 26 47 25.550781 47 25L47 23C47 22.449219 46.550781 22 46 22C43.261719 22 43.457031 21.003906 41.019531 21Z" />
</svg>