<?xml version="1.0" encoding="utf-8"?>
<svg xmlns="http://www.w3.org/2000/svg" viewBox="0 0 50 50" width="515" height="515">
  <path d="M9.8125 4C9.609375 4.035156 9.425781 4.136719 9.28125 4.28125L5.4375 8.15625C5.382813 8.191406 5.328125 8.234375 5.28125 8.28125C5.257813 8.300781 5.238281 8.320313 5.21875 8.34375C5.195313 8.375 5.175781 8.40625 5.15625 8.4375C5.117188 8.496094 5.085938 8.558594 5.0625 8.625C5.027344 8.714844 5.007813 8.808594 5 8.90625C4.992188 8.980469 4.992188 9.050781 5 9.125C5 9.15625 5 9.1875 5 9.21875L5 45C5 45.550781 5.449219 46 6 46L44 46C44.550781 46 45 45.550781 45 45L45 9.15625C45.003906 9.105469 45.003906 9.050781 45 9C45 8.988281 45 8.980469 45 8.96875C45 8.949219 45 8.925781 45 8.90625C45 8.886719 45 8.863281 45 8.84375C44.992188 8.800781 44.980469 8.757813 44.96875 8.71875C44.953125 8.664063 44.929688 8.613281 44.90625 8.5625C44.894531 8.550781 44.886719 8.542969 44.875 8.53125C44.839844 8.464844 44.796875 8.402344 44.75 8.34375C44.75 8.332031 44.75 8.324219 44.75 8.3125C44.738281 8.300781 44.730469 8.292969 44.71875 8.28125L44.6875 8.28125C44.667969 8.257813 44.648438 8.238281 44.625 8.21875L40.71875 4.28125C40.527344 4.09375 40.265625 3.992188 40 4L10 4C9.96875 4 9.9375 4 9.90625 4C9.875 4 9.84375 4 9.8125 4 Z M 10.4375 6L39.5625 6L41.5625 8L30 8C29.449219 8 29 8.449219 29 9C29 11.277344 27.277344 13 25 13C22.722656 13 21 11.277344 21 9C21 8.449219 20.550781 8 20 8L8.4375 8 Z M 7 10L19.1875 10C19.675781 12.828125 22.03125 15 25 15C27.96875 15 30.324219 12.828125 30.8125 10L43 10L43 44L7 44 Z M 34.28125 20.28125L23 31.5625L17.71875 26.28125L16.28125 27.71875L22.28125 33.71875L23 34.40625L23.71875 33.71875L35.71875 21.71875Z" />
</svg>