<?xml version="1.0" encoding="utf-8"?>
<svg xmlns="http://www.w3.org/2000/svg" viewBox="0 0 50 50" width="515" height="515">
  <path d="M25 1C19.3545 1 14.239922 2.0161444 10.447266 3.7226562C8.5509372 4.5759123 6.978214 5.601147 5.8417969 6.8105469C4.7343568 7.9891085 4.0407408 9.3842625 4.0058594 10.882812 A 1.0001 1.0001 0 0 0 4 11L4 40C4 41.54327 4.7053797 42.980053 5.8417969 44.189453C6.978214 45.398853 8.5509372 46.424088 10.447266 47.277344C14.239922 48.983856 19.3545 50 25 50C27.517135 50 29.929481 49.795586 32.166016 49.419922 A 1.0002021 1.0002021 0 1 0 31.833984 47.447266C29.712519 47.803602 27.408865 48 25 48C19.5975 48 14.712922 47.003363 11.267578 45.453125C9.5449063 44.678006 8.1881142 43.764632 7.3007812 42.820312C6.4134484 41.875994 6 40.94323 6 40L6 35.337891C7.1234422 36.480958 8.6314885 37.460332 10.447266 38.277344C14.239922 39.983856 19.3545 41 25 41C25.34296 41 25.684318 40.995401 26.021484 40.988281 A 1.0002308 1.0002308 0 1 0 25.978516 38.988281C25.653684 38.995152 25.32704 39 25 39C19.5975 39 14.712922 38.003363 11.267578 36.453125C9.5449063 35.678006 8.1881142 34.764632 7.3007812 33.820312C6.4134484 32.875994 6 31.94323 6 31L6 25.337891C7.1234422 26.480958 8.6314885 27.460332 10.447266 28.277344C14.239922 29.983856 19.3545 31 25 31C30.6455 31 35.760078 29.983856 39.552734 28.277344C41.368511 27.460332 42.876558 26.480958 44 25.337891L44 35 A 1.0001 1.0001 0 1 0 46 35L46 11 A 1.0001 1.0001 0 0 0 45.992188 10.876953C45.955591 9.3806722 45.26417 7.9875415 44.158203 6.8105469C43.021786 5.601147 41.449062 4.5759123 39.552734 3.7226562C35.760078 2.0161444 30.6455 1 25 1 z M 25 3C30.4025 3 35.287078 3.9966369 38.732422 5.546875C40.455094 6.3219941 41.811886 7.2353686 42.699219 8.1796875C43.586552 9.1240064 44 10.05677 44 11C44 11.94323 43.586552 12.875994 42.699219 13.820312C41.811886 14.764632 40.455094 15.678006 38.732422 16.453125C35.287078 18.003363 30.4025 19 25 19C19.5975 19 14.712922 18.003363 11.267578 16.453125C9.5449063 15.678006 8.1881142 14.764632 7.3007812 13.820312C6.4134484 12.875995 6 11.94323 6 11C6 10.05677 6.4134485 9.1240064 7.3007812 8.1796875C8.1881142 7.2353686 9.5449063 6.3219941 11.267578 5.546875C14.712922 3.9966369 19.5975 3 25 3 z M 6 15.337891C7.1234422 16.480958 8.6314885 17.460332 10.447266 18.277344C14.239922 19.983856 19.3545 21 25 21C30.6455 21 35.760078 19.983856 39.552734 18.277344C41.368511 17.460332 42.876558 16.480958 44 15.337891L44 21C44 21.94323 43.586552 22.875994 42.699219 23.820312C41.811886 24.764632 40.455094 25.678006 38.732422 26.453125C35.287078 28.003363 30.4025 29 25 29C19.5975 29 14.712922 28.003363 11.267578 26.453125C9.5449063 25.678006 8.1881142 24.764632 7.3007812 23.820312C6.4134484 22.875994 6 21.94323 6 21L6 15.337891 z M 40 32.984375L28.794922 41.5L40 50.015625L40 45L50 45L50 38L49 38L40 38L40 32.984375 z M 38 37.017578L38 40L48 40L48 43L38 43L38 45.982422L32.101562 41.5L38 37.017578 z" />
</svg>