<?xml version="1.0" encoding="utf-8"?>
<svg xmlns="http://www.w3.org/2000/svg" viewBox="0 0 50 50" width="515" height="515">
  <path d="M21 0C15.378906 0 10.265625 1.015625 6.46875 2.71875C4.570313 3.570313 2.984375 4.601563 1.84375 5.8125C0.757813 6.964844 0.0625 8.316406 0 9.78125C-0.00390625 9.832031 -0.00390625 9.886719 0 9.9375C0 9.957031 0 9.980469 0 10L0 19.8125C-0.0078125 19.875 -0.0078125 19.9375 0 20L0 29.8125C-0.0078125 29.875 -0.0078125 29.9375 0 30L0 39C0 40.550781 0.703125 41.976563 1.84375 43.1875C2.984375 44.398438 4.570313 45.429688 6.46875 46.28125C10.265625 47.984375 15.378906 49 21 49C23.871094 49 26.621094 48.6875 29.15625 48.28125C29.53125 48.253906 29.859375 48.015625 30.003906 47.667969C30.148438 47.320313 30.085938 46.917969 29.839844 46.632813C29.59375 46.347656 29.210938 46.222656 28.84375 46.3125C26.378906 46.707031 23.730469 47 21 47C15.621094 47 10.734375 46.015625 7.28125 44.46875C5.554688 43.695313 4.203125 42.789063 3.3125 41.84375C2.421875 40.898438 2 39.949219 2 39L2 34.34375C3.128906 35.488281 4.652344 36.464844 6.46875 37.28125C10.265625 38.984375 15.378906 40 21 40C22.738281 40 24.480469 39.894531 26.125 39.6875C26.511719 39.6875 26.863281 39.464844 27.027344 39.113281C27.195313 38.761719 27.140625 38.347656 26.894531 38.050781C26.648438 37.75 26.25 37.621094 25.875 37.71875C24.320313 37.914063 22.660156 38 21 38C15.621094 38 10.734375 37.015625 7.28125 35.46875C5.554688 34.695313 4.203125 33.789063 3.3125 32.84375C2.421875 31.898438 2 30.949219 2 30C2.007813 29.9375 2.007813 29.875 2 29.8125L2 24.34375C3.128906 25.488281 4.652344 26.464844 6.46875 27.28125C10.265625 28.984375 15.378906 30 21 30C26.621094 30 31.734375 28.984375 35.53125 27.28125C37.347656 26.464844 38.871094 25.488281 40 24.34375L40 29C39.996094 29.359375 40.183594 29.695313 40.496094 29.878906C40.808594 30.058594 41.191406 30.058594 41.503906 29.878906C41.816406 29.695313 42.003906 29.359375 42 29L42 10C42 9.96875 42 9.9375 42 9.90625C42 9.875 42 9.84375 42 9.8125C42 9.800781 42 9.792969 42 9.78125C41.992188 9.761719 41.980469 9.738281 41.96875 9.71875C41.886719 8.28125 41.226563 6.949219 40.15625 5.8125C39.015625 4.601563 37.429688 3.570313 35.53125 2.71875C31.734375 1.015625 26.621094 0 21 0 Z M 21 2C26.378906 2 31.265625 2.984375 34.71875 4.53125C36.445313 5.304688 37.796875 6.210938 38.6875 7.15625C39.578125 8.101563 40 9.050781 40 10C40 10.949219 39.578125 11.898438 38.6875 12.84375C37.796875 13.789063 36.445313 14.695313 34.71875 15.46875C31.265625 17.015625 26.378906 18 21 18C15.621094 18 10.734375 17.015625 7.28125 15.46875C5.554688 14.695313 4.203125 13.789063 3.3125 12.84375C2.421875 11.898438 2 10.949219 2 10C2 9.96875 2 9.9375 2 9.90625C2.027344 8.988281 2.449219 8.070313 3.3125 7.15625C4.203125 6.210938 5.554688 5.304688 7.28125 4.53125C10.734375 2.984375 15.621094 2 21 2 Z M 2 14.34375C3.128906 15.488281 4.652344 16.464844 6.46875 17.28125C10.265625 18.984375 15.378906 20 21 20C26.621094 20 31.734375 18.984375 35.53125 17.28125C37.347656 16.464844 38.871094 15.488281 40 14.34375L40 20C40 20.949219 39.578125 21.898438 38.6875 22.84375C37.796875 23.789063 36.445313 24.695313 34.71875 25.46875C31.265625 27.015625 26.378906 28 21 28C15.621094 28 10.734375 27.015625 7.28125 25.46875C5.554688 24.695313 4.203125 23.789063 3.3125 22.84375C2.421875 21.898438 2 20.949219 2 20C2.007813 19.9375 2.007813 19.875 2 19.8125 Z M 37.8125 32C37.335938 32.089844 36.992188 32.511719 37 33L37 38L32 38C31.449219 38 31 38.449219 31 39L31 43C31 43.550781 31.449219 44 32 44L37 44L37 49C37 49.550781 37.449219 50 38 50L42 50C42.550781 50 43 49.550781 43 49L43 44L48 44C48.550781 44 49 43.550781 49 43L49 39C49 38.449219 48.550781 38 48 38L43 38L43 33C43 32.449219 42.550781 32 42 32L38 32C37.96875 32 37.9375 32 37.90625 32C37.875 32 37.84375 32 37.8125 32 Z M 39 34L41 34L41 39C41 39.550781 41.449219 40 42 40L47 40L47 42L42 42C41.449219 42 41 42.449219 41 43L41 48L39 48L39 43C39 42.449219 38.550781 42 38 42L33 42L33 40L38 40C38.550781 40 39 39.550781 39 39Z" />
</svg>