<?xml version="1.0" encoding="utf-8"?>
<svg xmlns="http://www.w3.org/2000/svg" viewBox="0 0 50 50" width="515" height="515">
  <path d="M21 0C15.355469 0 10.230469 1.011719 6.4375 2.71875C4.542969 3.570313 2.980469 4.601563 1.84375 5.8125C0.761719 6.964844 0.0664063 8.324219 0 9.78125C-0.00390625 9.832031 -0.00390625 9.886719 0 9.9375C0 9.957031 0 9.980469 0 10L0 19.8125C-0.0078125 19.875 -0.0078125 19.9375 0 20L0 29.8125C-0.0078125 29.875 -0.0078125 29.9375 0 30L0 39C0 41.800781 2.222656 44.113281 5.4375 45.78125C8.652344 47.449219 13.015625 48.574219 17.9375 48.90625C18.488281 48.941406 18.964844 48.519531 19 47.96875C19.035156 47.417969 18.613281 46.941406 18.0625 46.90625C13.363281 46.589844 9.222656 45.492188 6.34375 44C3.464844 42.507813 2 40.710938 2 39L2 34.34375C3.121094 35.488281 4.621094 36.464844 6.4375 37.28125C10.230469 38.988281 15.355469 40 21 40C21.359375 40.003906 21.695313 39.816406 21.878906 39.503906C22.058594 39.191406 22.058594 38.808594 21.878906 38.496094C21.695313 38.183594 21.359375 37.996094 21 38C15.597656 38 10.726563 36.988281 7.28125 35.4375C5.558594 34.664063 4.199219 33.757813 3.3125 32.8125C2.425781 31.867188 2 30.941406 2 30C2.007813 29.9375 2.007813 29.875 2 29.8125L2 24.34375C3.121094 25.488281 4.621094 26.464844 6.4375 27.28125C10.230469 28.988281 15.355469 30 21 30C23.882813 30 26.625 29.738281 29.125 29.25C29.667969 29.144531 30.027344 28.621094 29.921875 28.078125C29.816406 27.535156 29.292969 27.175781 28.75 27.28125C26.382813 27.742188 23.761719 28 21 28C15.597656 28 10.726563 26.988281 7.28125 25.4375C5.558594 24.664063 4.199219 23.757813 3.3125 22.8125C2.425781 21.867188 2 20.941406 2 20C2.007813 19.9375 2.007813 19.875 2 19.8125L2 14.34375C3.121094 15.488281 4.621094 16.464844 6.4375 17.28125C10.230469 18.988281 15.355469 20 21 20C26.644531 20 31.769531 18.988281 35.5625 17.28125C37.378906 16.464844 38.878906 15.488281 40 14.34375L40 19C39.996094 19.359375 40.183594 19.695313 40.496094 19.878906C40.808594 20.058594 41.191406 20.058594 41.503906 19.878906C41.816406 19.695313 42.003906 19.359375 42 19L42 10C42 9.96875 42 9.9375 42 9.90625C42 9.875 42 9.84375 42 9.8125C42 9.800781 42 9.792969 42 9.78125C41.992188 9.761719 41.980469 9.738281 41.96875 9.71875C41.886719 8.285156 41.222656 6.945313 40.15625 5.8125C39.019531 4.601563 37.457031 3.570313 35.5625 2.71875C31.769531 1.011719 26.644531 0 21 0 Z M 21 2C26.402344 2 31.273438 3.011719 34.71875 4.5625C36.441406 5.335938 37.800781 6.242188 38.6875 7.1875C39.574219 8.132813 40 9.058594 40 10C40 10.941406 39.574219 11.867188 38.6875 12.8125C37.800781 13.757813 36.441406 14.664063 34.71875 15.4375C31.273438 16.988281 26.402344 18 21 18C15.597656 18 10.726563 16.988281 7.28125 15.4375C5.558594 14.664063 4.199219 13.757813 3.3125 12.8125C2.425781 11.867188 2 10.941406 2 10C2 9.96875 2 9.9375 2 9.90625C2.027344 8.996094 2.453125 8.101563 3.3125 7.1875C4.199219 6.242188 5.558594 5.335938 7.28125 4.5625C10.726563 3.011719 15.597656 2 21 2 Z M 41 22C36.042969 22 32 26.042969 32 31C32 31.761719 32.257813 32.449219 32.4375 33.15625C32.425781 33.167969 32.417969 33.175781 32.40625 33.1875L22.28125 43.3125C22.101563 43.496094 22.003906 43.742188 22 44L22 49C22 49.550781 22.449219 50 23 50L28 50C28.265625 50.007813 28.527344 49.90625 28.71875 49.71875L29.4375 49L32 49C32.550781 49 33 48.550781 33 48L33 46L35 46C35.550781 46 36 45.550781 36 45L36 43L38 43C38.550781 43 39 42.550781 39 42L39 39.59375C39.660156 39.75 40.292969 40 41 40C45.957031 40 50 35.957031 50 31C50 26.042969 45.957031 22 41 22 Z M 41 24C44.875 24 48 27.121094 48 31C48 34.878906 44.875 38 41 38C37.125 38 34 34.878906 34 31C34 27.121094 37.125 24 41 24 Z M 44 27C42.894531 27 42 27.894531 42 29C42 30.105469 42.894531 31 44 31C45.105469 31 46 30.105469 46 29C46 27.894531 45.105469 27 44 27 Z M 33.1875 35.21875C33.46875 35.734375 33.816406 36.207031 34.1875 36.65625L27.21875 43.65625C26.921875 43.898438 26.785156 44.285156 26.871094 44.660156C26.957031 45.03125 27.25 45.324219 27.621094 45.410156C27.996094 45.496094 28.382813 45.359375 28.625 45.0625L35.65625 38.0625C36.085938 38.390625 36.515625 38.691406 37 38.9375L37 41L35 41C34.449219 41 34 41.449219 34 42L34 44L32 44C31.449219 44 31 44.449219 31 45L31 47L29 47C28.734375 46.992188 28.472656 47.09375 28.28125 47.28125L27.5625 48L24 48L24 44.4375Z" />
</svg>