<?xml version="1.0" encoding="utf-8"?>
<svg xmlns="http://www.w3.org/2000/svg" viewBox="0 0 50 50" width="515" height="515">
  <path d="M37.84375 0.09375C37.46875 0.160156 37.167969 0.433594 37.0625 0.796875C36.957031 1.164063 37.066406 1.554688 37.34375 1.8125L46.53125 11L1 11C0.96875 11 0.9375 11 0.90625 11C0.355469 11.027344 -0.0742188 11.496094 -0.046875 12.046875C-0.0195313 12.597656 0.449219 13.027344 1 13L46.53125 13L37.34375 22.1875C37.046875 22.429688 36.910156 22.816406 36.996094 23.191406C37.082031 23.5625 37.375 23.855469 37.746094 23.941406C38.121094 24.027344 38.507813 23.890625 38.75 23.59375L49.65625 12.71875L50.34375 12L49.65625 11.28125L38.75 0.40625C38.542969 0.183594 38.242188 0.0703125 37.9375 0.09375C37.90625 0.09375 37.875 0.09375 37.84375 0.09375 Z M 11.8125 26.09375C11.59375 26.132813 11.398438 26.242188 11.25 26.40625L0.34375 37.28125L-0.34375 38L0.34375 38.71875L11.25 49.59375C11.492188 49.890625 11.878906 50.027344 12.253906 49.941406C12.625 49.855469 12.917969 49.5625 13.003906 49.191406C13.089844 48.816406 12.953125 48.429688 12.65625 48.1875L3.46875 39L49 39C49.359375 39.003906 49.695313 38.816406 49.878906 38.503906C50.058594 38.191406 50.058594 37.808594 49.878906 37.496094C49.695313 37.183594 49.359375 36.996094 49 37L3.46875 37L12.65625 27.8125C12.980469 27.511719 13.066406 27.035156 12.871094 26.640625C12.679688 26.242188 12.246094 26.023438 11.8125 26.09375Z" />
</svg>