<?xml version="1.0" encoding="utf-8"?>
<svg xmlns="http://www.w3.org/2000/svg" viewBox="0 0 50 50" width="515" height="515">
  <path d="M25 0C19.3545 0 14.239922 1.0161444 10.447266 2.7226562C8.5509372 3.5759123 6.978214 4.601147 5.8417969 5.8105469C4.7053797 7.0199467 4 8.4567299 4 10L4 39C4 44.607 13.225 49 25 49C29.067 49 32.816 48.465828 36 47.548828L36 45.488281C32.994 46.418281 29.259 47 25 47C13.635 47 6 42.863 6 39L6 34.304688C9.3220329 37.69823 16.484537 40 25 40C27.01 40 28.934719 39.860141 30.761719 39.619141L31.392578 38.789062L32.511719 37.316406C30.256719 37.740406 27.751 38 25 38C13.635 38 6 33.863 6 30L6 24.337891C7.1234422 25.480958 8.6314885 26.460332 10.447266 27.277344C14.239922 28.983856 19.3545 30 25 30C30.6455 30 35.760078 28.983856 39.552734 27.277344C41.368511 26.460332 42.876558 25.480958 44 24.337891L44 28.777344L46 31.410156L46 10C46 8.4567299 45.29462 7.0199467 44.158203 5.8105469C43.021786 4.601147 41.449062 3.5759123 39.552734 2.7226562C35.760078 1.0161444 30.6455 2.9605947e-16 25 0 z M 25 2C30.4025 2 35.287078 2.9966369 38.732422 4.546875C40.455094 5.3219941 41.811886 6.2353686 42.699219 7.1796875C43.586552 8.1240064 44 9.0567701 44 10C44 10.94323 43.586552 11.875994 42.699219 12.820312C41.811886 13.764632 40.455094 14.678006 38.732422 15.453125C35.287078 17.003363 30.4025 18 25 18C19.5975 18 14.712922 17.003363 11.267578 15.453125C9.5449063 14.678006 8.1881142 13.764632 7.3007812 12.820312C6.4134484 11.875995 6 10.94323 6 10C6 9.0567701 6.4134485 8.1240064 7.3007812 7.1796875C8.1881142 6.2353686 9.5449063 5.3219941 11.267578 4.546875C14.712922 2.9966369 19.5975 2 25 2 z M 6 14.337891C7.1234422 15.480958 8.6314885 16.460332 10.447266 17.277344C14.239922 18.983856 19.3545 20 25 20C30.6455 20 35.760078 18.983856 39.552734 17.277344C41.368511 16.460332 42.876558 15.480958 44 14.337891L44 20C44 20.94323 43.586552 21.875994 42.699219 22.820312C41.811886 23.764632 40.455094 24.678006 38.732422 25.453125C35.287078 27.003363 30.4025 28 25 28C19.5975 28 14.712922 27.003363 11.267578 25.453125C9.5449063 24.678006 8.1881142 23.764632 7.3007812 22.820312C6.4134484 21.875994 6 20.94323 6 20L6 14.337891 z M 41.5 28.794922L32.984375 40L38 40L38 50L45 50L45 40L50 40L41.5 28.794922 z M 41.5 32.099609L45.984375 38L43 38L43 48L40 48L40 38L37.015625 38L41.5 32.099609 z" />
</svg>