<?xml version="1.0" encoding="utf-8"?>
<svg xmlns="http://www.w3.org/2000/svg" viewBox="0 0 50 50" width="515" height="515">
  <path d="M12 0C10.90625 0 10 0.90625 10 2L10 4L4 4C2.90625 4 2 4.90625 2 6L2 23C1.996094 23.359375 2.183594 23.695313 2.496094 23.878906C2.808594 24.058594 3.191406 24.058594 3.503906 23.878906C3.816406 23.695313 4.003906 23.359375 4 23L4 16L46 16L46 46L4 46L4 38C4.003906 37.640625 3.816406 37.304688 3.503906 37.121094C3.191406 36.941406 2.808594 36.941406 2.496094 37.121094C2.183594 37.304688 1.996094 37.640625 2 38L2 46C2 47.09375 2.90625 48 4 48L46 48C47.09375 48 48 47.09375 48 46L48 6C48 4.90625 47.09375 4 46 4L40 4L40 2C40 0.90625 39.09375 0 38 0L36 0C34.90625 0 34 0.90625 34 2L34 4L16 4L16 2C16 0.90625 15.09375 0 14 0 Z M 12 2L14 2L14 8L12 8L12 5.167969C12.019531 5.058594 12.019531 4.949219 12 4.84375 Z M 36 2L38 2L38 4.832031C37.980469 4.941406 37.980469 5.050781 38 5.15625L38 8L36 8 Z M 4 6L10 6L10 8C10 9.09375 10.90625 10 12 10L14 10C15.09375 10 16 9.09375 16 8L16 6L34 6L34 8C34 9.09375 34.90625 10 36 10L38 10C39.09375 10 40 9.09375 40 8L40 6L46 6L46 14L4 14 Z M 16.8125 22.136719C16.40625 22.128906 16.035156 22.367188 15.871094 22.738281C15.710938 23.113281 15.792969 23.546875 16.078125 23.839844L21.015625 29L3 29C2.640625 28.996094 2.304688 29.183594 2.121094 29.496094C1.941406 29.808594 1.941406 30.191406 2.121094 30.503906C2.304688 30.816406 2.640625 31.003906 3 31L20.535156 31L16.078125 35.660156C15.695313 36.0625 15.707031 36.695313 16.105469 37.074219C16.507813 37.457031 17.140625 37.445313 17.519531 37.046875L23.363281 30.9375C23.652344 30.828125 23.871094 30.597656 23.964844 30.308594L24.5 29.75L17.523438 22.453125C17.339844 22.257813 17.082031 22.140625 16.8125 22.136719Z" />
</svg>