<?xml version="1.0" encoding="utf-8"?>
<svg xmlns="http://www.w3.org/2000/svg" viewBox="0 0 50 50" width="515" height="515">
  <path d="M27.191406 3.0039062C26.455896 2.9815117 25.710313 3.0934063 24.992188 3.3476562L13.296875 7.4882812C11.283875 8.3172812 9.9292656 8.1227656 8.0722656 6.7597656L3 3.0429688L3 5.5195312L6.8886719 8.3671875C9.3196719 10.150188 11.384672 10.437516 14.013672 9.3535156L25.660156 5.2285156C26.934156 4.7785156 28.342828 4.9955 29.423828 5.8125L44.203125 16.755859C45.015125 17.316859 45.231656 18.368828 44.722656 19.173828C44.202656 19.998828 43.10925 20.246562 42.28125 19.726562L32.589844 14.115234C32.849472 13.623242 32.997584 13.071562 32.998047 12.5C32.998047 10.573 31.428047 9.0058594 29.498047 9.0058594C29.226047 9.0058594 28.955359 9.0376094 28.693359 9.0996094C28.03662 9.2553105 19.710922 11.744189 18.732422 12.037109C18.730543 12.037672 18.714715 12.042423 18.712891 12.042969 A 1 1 0 0 0 18 13 A 1 1 0 0 0 19 14 A 1 1 0 0 0 19.351562 13.935547 A 1 1 0 0 0 19.363281 13.931641C23.081508 12.819437 28.703864 11.150113 29.15625 11.042969C29.26725 11.015969 29.382047 11.001953 29.498047 11.001953C30.325047 11.001953 30.998047 11.674 30.998047 12.5C30.998047 13.033 30.720859 13.51125 30.255859 13.78125C30.011859 13.92325 28.619734 14.589703 28.052734 14.845703C27.389734 15.144703 26.00375 15.730641 24.34375 16.431641C22.39475 17.255641 20.070797 18.237469 18.091797 19.105469C15.477797 20.251469 12.468031 20.279594 9.8320312 19.183594L3 15.818359L3 18.046875L9.0058594 21.001953C12.198859 22.333953 15.779531 22.300547 18.894531 20.935547C20.866531 20.070547 23.182047 19.092484 25.123047 18.271484C26.804047 17.561484 28.205953 16.969016 28.876953 16.666016C29.304195 16.473098 30.64577 15.835981 31.123047 15.576172L41.246094 21.435547C42.972094 22.522547 45.304063 21.996234 46.414062 20.240234C46.829062 19.582234 47.018094 18.847 46.996094 18.125C46.964094 16.965 46.395234 15.839859 45.365234 15.130859L30.621094 4.2148438C29.616094 3.4535937 28.417256 3.0412305 27.191406 3.0039062 z M 27.007812 20.994141 A 1.0001 1.0001 0 0 0 26.556641 21.103516C26.556641 21.103516 25.843449 21.469218 25.220703 22.246094C24.830031 22.733457 24.467932 23.430265 24.238281 24.291016C23.774394 23.763653 23.185489 23.420692 22.669922 23.25C21.763921 22.950044 20.947266 23.003906 20.947266 23.003906 A 1.0001 1.0001 0 1 0 21.052734 25C21.052734 25 21.543266 24.98364 22.041016 25.148438C22.187085 25.196798 22.316341 25.252238 22.435547 25.316406C18.152031 26.354508 14.855535 29.919763 14.169922 34.345703C12.971638 34.739866 12 35.677441 12 37C12 38.352995 13.007308 39.319456 14.248047 39.6875C15.816772 43.993774 20.237937 47 25 47C29.762063 47 34.183228 43.993774 35.751953 39.6875C36.992692 39.319456 38 38.352995 38 37C38 35.677441 37.028362 34.739866 35.830078 34.345703C35.067403 29.422295 31.077909 25.552961 26.087891 25.056641C26.225377 24.329316 26.506766 23.836076 26.779297 23.496094C27.156551 23.02547 27.443359 22.896484 27.443359 22.896484 A 1.0001 1.0001 0 0 0 27.007812 20.994141 z M 24.880859 27.005859 A 1.0001 1.0001 0 0 0 25.125 27.005859C29.745866 27.069152 33.558567 30.597275 34.005859 35.099609L34.09375 36L35 36C35.56503 36 36 36.43497 36 37C36 37.56503 35.56503 38 35 38L34.265625 38L34.046875 38.701172C32.92187 42.283705 29.03876 45 25 45C20.96124 45 17.07813 42.283705 15.953125 38.701172L15.734375 38L15 38C14.43497 38 14 37.56503 14 37C14 36.43497 14.43497 36 15 36L15.90625 36L15.994141 35.099609C16.441625 30.595361 20.25734 27.066227 24.880859 27.005859 z M 21.5 34 A 1.5 1.5 0 0 0 20 35.5 A 1.5 1.5 0 0 0 21.5 37 A 1.5 1.5 0 0 0 23 35.5 A 1.5 1.5 0 0 0 21.5 34 z M 28.5 34 A 1.5 1.5 0 0 0 27 35.5 A 1.5 1.5 0 0 0 28.5 37 A 1.5 1.5 0 0 0 30 35.5 A 1.5 1.5 0 0 0 28.5 34 z M 27.990234 39.986328 A 1.0001 1.0001 0 0 0 27.292969 40.292969C27.292969 40.292969 27.183477 40.415097 26.802734 40.605469C26.421991 40.79584 25.833333 41 25 41C24.166667 41 23.578009 40.79584 23.197266 40.605469C22.816523 40.415097 22.707031 40.292969 22.707031 40.292969 A 1.0001 1.0001 0 0 0 21.990234 39.990234 A 1.0001 1.0001 0 0 0 21.292969 41.707031C21.292969 41.707031 21.683477 42.084903 22.302734 42.394531C22.921991 42.70416 23.833333 43 25 43C26.166667 43 27.078009 42.70416 27.697266 42.394531C28.316523 42.084903 28.707031 41.707031 28.707031 41.707031 A 1.0001 1.0001 0 0 0 27.990234 39.986328 z" />
</svg>