<?xml version="1.0" encoding="utf-8"?>
<svg xmlns="http://www.w3.org/2000/svg" viewBox="0 0 50 50" width="515" height="515">
  <path d="M25 3C22.254545 3 20 5.2545455 20 8C20 10.745455 22.254545 13 25 13C27.745455 13 30 10.745455 30 8C30 5.2545455 27.745455 3 25 3 z M 25 5C26.654545 5 28 6.3454545 28 8C28 9.6545455 26.654545 11 25 11C23.345455 11 22 9.6545455 22 8C22 6.3454545 23.345455 5 25 5 z M 20.5 14C17.466667 14 15 16.466667 15 19.5L15 30L11 30L11 24 A 1.0001 1.0001 0 0 0 9.984375 22.986328 A 1.0001 1.0001 0 0 0 9 24L9 30.832031 A 1.0001 1.0001 0 0 0 9 31.158203L9 38 A 1.0001 1.0001 0 1 0 11 38L11 32L15.1875 32C15.604757 33.157429 16.706491 34 18 34C19.293509 34 20.395243 33.157429 20.8125 32L29.1875 32C29.604757 33.157429 30.706491 34 32 34C33.293509 34 34.395243 33.157429 34.8125 32L39 32L39 38 A 1.0001 1.0001 0 1 0 41 38L41 31.167969 A 1.0001 1.0001 0 0 0 41 30.841797L41 24 A 1.0001 1.0001 0 0 0 39.984375 22.986328 A 1.0001 1.0001 0 0 0 39 24L39 30L35 30L35 19.5C35 16.466667 32.533333 14 29.5 14L20.5 14 z M 20.5 16L29.5 16C31.466667 16 33 17.533333 33 19.5L33 30.832031 A 1.0001 1.0001 0 0 0 32.988281 31.056641C32.957544 31.582998 32.534416 32 32 32C31.557031 32 31.19481 31.71148 31.0625 31.314453 A 1.0001 1.0001 0 0 0 31 30.539062L31 21 A 1.0001 1.0001 0 1 0 29 21L29 30L21 30L21 21 A 1.0001 1.0001 0 1 0 19 21L19 30.832031 A 1.0001 1.0001 0 0 0 18.988281 31.056641C18.957544 31.582998 18.534416 32 18 32C17.464917 32 17.041489 31.581982 17.011719 31.054688 A 1.0001 1.0001 0 0 0 17 30.841797L17 19.5C17 17.533333 18.533333 16 20.5 16 z M 5.984375 22.986328 A 1.0001 1.0001 0 0 0 5 24L5 30L4 30 A 1.0001 1.0001 0 1 0 4 32L5 32L5 38 A 1.0001 1.0001 0 1 0 7 38L7 31.167969 A 1.0001 1.0001 0 0 0 7 30.841797L7 24 A 1.0001 1.0001 0 0 0 5.984375 22.986328 z M 43.984375 22.986328 A 1.0001 1.0001 0 0 0 43 24L43 30.832031 A 1.0001 1.0001 0 0 0 43 31.158203L43 38 A 1.0001 1.0001 0 1 0 45 38L45 32L46 32 A 1.0001 1.0001 0 1 0 46 30L45 30L45 24 A 1.0001 1.0001 0 0 0 43.984375 22.986328 z M 22.199219 34L22.199219 34.099609L20.099609 44.199219C19.999609 44.499219 19.899219 44.700781 19.699219 44.800781C19.499219 44.900781 19.200391 45.000391 18.900391 44.900391C18.400391 44.800391 17.999609 44.299219 18.099609 43.699219L19.699219 35.699219C19.099219 35.899219 18.399219 36.099609 17.699219 36.099609L17.599609 36.099609L16.099609 43.300781C15.799609 44.900781 16.800391 46.500781 18.400391 46.800781C19.200391 47.000781 19.999219 46.800391 20.699219 46.400391C21.399219 46.000391 21.8 45.3 22 44.5L24.099609 34L22.199219 34 z M 25.800781 34.300781L27.900391 44.800781C28.100391 45.600781 28.499219 46.299219 29.199219 46.699219C29.699219 46.999219 30.300781 47.199219 30.800781 47.199219C31.000781 47.199219 31.200391 47.199609 31.400391 47.099609C32.200391 46.899609 32.900781 46.500781 33.300781 45.800781C33.700781 45.100781 33.899219 44.3 33.699219 43.5L32.300781 36.199219C31.500781 36.199219 30.799219 36.000781 30.199219 35.800781L31.800781 43.900391C31.900781 44.200391 31.799219 44.399219 31.699219 44.699219C31.599219 44.899219 31.299609 45.099609 31.099609 45.099609C30.799609 45.199609 30.600781 45.1 30.300781 45C30.100781 44.9 29.900391 44.600391 29.900391 44.400391L27.800781 34.300781L25.800781 34.300781 z" />
</svg>