<?xml version="1.0" encoding="utf-8"?>
<svg xmlns="http://www.w3.org/2000/svg" viewBox="0 0 50 50" width="515" height="515">
  <path d="M9.0996094 11.800781C6.6732936 11.800781 4.5996094 13.767448 4.5996094 16.300781L4.5996094 35.699219C4.5996094 38.125535 6.566276 40.199219 9.0996094 40.199219L40.900391 40.199219C43.326706 40.199219 45.400391 38.232552 45.400391 35.699219L45.400391 16.300781C45.400391 13.874465 43.433724 11.800781 40.900391 11.800781L9.0996094 11.800781 z M 9.0996094 13.800781L40.900391 13.800781C42.367057 13.800781 43.400391 14.927097 43.400391 16.300781L43.400391 35.699219C43.400391 37.165885 42.274075 38.199219 40.900391 38.199219L9.0996094 38.199219C7.6329427 38.199219 6.5996094 37.072903 6.5996094 35.699219L6.5996094 16.300781C6.5996094 14.834115 7.7259252 13.800781 9.0996094 13.800781 z M 11.800781 18C10.767448 18 9.9003906 18.867057 9.9003906 19.900391L9.9003906 22.5C9.9003906 23.533333 10.767448 24.400391 11.800781 24.400391L15.300781 24.400391C16.334115 24.400391 17.199219 23.533333 17.199219 22.5L17.199219 19.900391C17.199219 18.867057 16.334115 18 15.300781 18L11.800781 18 z M 27.599609 19.699219 A 1.0001 1.0001 0 1 0 27.599609 21.699219L39.099609 21.699219 A 1.0001 1.0001 0 1 0 39.099609 19.699219L27.599609 19.699219 z M 11.900391 20L15.199219 20L15.199219 22.400391L11.900391 22.400391L11.900391 20 z M 10.900391 28.5 A 1.0001 1.0001 0 1 0 10.900391 30.5L15.300781 30.5 A 1.0001 1.0001 0 1 0 15.300781 28.5L10.900391 28.5 z M 18.800781 28.5 A 1.0001 1.0001 0 1 0 18.800781 30.5L23.199219 30.5 A 1.0001 1.0001 0 1 0 23.199219 28.5L18.800781 28.5 z M 26.800781 28.5 A 1.0001 1.0001 0 1 0 26.800781 30.5L31.199219 30.5 A 1.0001 1.0001 0 1 0 31.199219 28.5L26.800781 28.5 z M 34.699219 28.5 A 1.0001 1.0001 0 1 0 34.699219 30.5L39.099609 30.5 A 1.0001 1.0001 0 1 0 39.099609 28.5L34.699219 28.5 z M 10.900391 32.900391 A 1.0001 1.0001 0 1 0 10.900391 34.900391L22.400391 34.900391 A 1.0001 1.0001 0 1 0 22.400391 32.900391L10.900391 32.900391 z" />
</svg>