<?xml version="1.0" encoding="utf-8"?>
<svg xmlns="http://www.w3.org/2000/svg" viewBox="0 0 50 50" width="515" height="515">
  <path d="M25 1C19.796875 1 14.703125 2.734375 11.25 6.59375C7.859375 10.386719 6.199219 16.21875 7.34375 24.0625C5.929688 25.5 5 27.578125 5 30.03125C5 31.996094 5.90625 33.726563 7.09375 35.09375C8.148438 36.308594 9.441406 37.191406 10.6875 37.75C11.957031 41.628906 14.648438 44.445313 17.40625 46.25C20.261719 48.117188 23.113281 49 25 49C26.878906 49 29.742188 48.105469 32.59375 46.25C35.34375 44.457031 38 41.695313 39.28125 37.84375C40.660156 37.28125 41.96875 36.320313 43 35.0625C44.15625 33.648438 45 31.90625 45 30.03125C45 27.613281 44.058594 25.515625 42.625 24.0625C43.648438 16.234375 41.972656 10.429688 38.625 6.625C35.214844 2.75 30.210938 1 25 1 Z M 25 3C29.769531 3 34.1875 4.566406 37.15625 7.9375C40.125 11.308594 41.742188 16.539063 40.65625 24.1875L40.5625 24.75L41 25.09375C42.160156 26.085938 43 27.910156 43 30.03125C43 31.3125 42.402344 32.671875 41.46875 33.8125C40.535156 34.953125 39.289063 35.859375 38.1875 36.21875L37.6875 36.375L37.53125 36.875C36.476563 40.40625 34.058594 42.925781 31.5 44.59375C28.941406 46.261719 26.183594 47 25 47C23.8125 47 21.035156 46.273438 18.46875 44.59375C15.902344 42.914063 13.480469 40.367188 12.4375 36.8125L12.3125 36.3125L11.84375 36.15625C10.835938 35.777344 9.554688 34.921875 8.59375 33.8125C7.632813 32.703125 7 31.378906 7 30.03125C7 27.804688 7.820313 26.019531 8.96875 25.0625L9.40625 24.6875L9.3125 24.15625C8.105469 16.503906 9.746094 11.265625 12.75 7.90625C15.753906 4.546875 20.230469 3 25 3 Z M 24.8125 16.3125C22.050781 16.3125 20.234375 18.042969 19.84375 20.5C19.816406 20.664063 19.894531 20.816406 20.0625 20.84375L21 21C21.167969 21.027344 21.285156 20.945313 21.3125 20.78125C21.703125 18.816406 22.941406 17.71875 24.78125 17.71875C26.652344 17.71875 28.0625 18.847656 28.0625 20.8125C28.0625 21.960938 27.769531 22.710938 26.375 24.375L24.84375 26.375C24.144531 27.25 23.9375 27.914063 23.9375 29.03125L23.9375 30.09375C23.9375 30.257813 24.050781 30.375 24.21875 30.375L25.1875 30.375C25.355469 30.375 25.46875 30.257813 25.46875 30.09375L25.46875 29.15625C25.46875 28.121094 25.621094 27.652344 26.375 26.75L27.90625 24.71875C29.136719 23.273438 29.59375 22.285156 29.59375 20.8125C29.59375 18.191406 27.6875 16.3125 24.8125 16.3125 Z M 24 32.75C23.832031 32.75 23.71875 32.867188 23.71875 33.03125L23.71875 34.875C23.71875 35.039063 23.832031 35.125 24 35.125L25.40625 35.125C25.574219 35.125 25.6875 35.039063 25.6875 34.875L25.6875 33.03125C25.6875 32.867188 25.574219 32.75 25.40625 32.75Z" />
</svg>