<?xml version="1.0" encoding="utf-8"?>
<svg xmlns="http://www.w3.org/2000/svg" viewBox="0 0 50 50" width="515" height="515">
  <path d="M28.90625 4.96875C28.863281 4.976563 28.820313 4.988281 28.78125 5C28.40625 5.066406 28.105469 5.339844 28 5.703125C27.894531 6.070313 28.003906 6.460938 28.28125 6.71875L45.5625 24L39 24C38.640625 23.996094 38.304688 24.183594 38.121094 24.496094C37.941406 24.808594 37.941406 25.191406 38.121094 25.503906C38.304688 25.816406 38.640625 26.003906 39 26L49 26L49 16C49.007813 15.691406 48.871094 15.398438 48.632813 15.203125C48.398438 15.007813 48.082031 14.933594 47.78125 15C47.316406 15.105469 46.988281 15.523438 47 16L47 22.5625L29.71875 5.28125C29.511719 5.058594 29.210938 4.945313 28.90625 4.96875 Z M 2 11L2 50L16 50L16 11 Z M 4 13L14 13L14 48L4 48 Z M 18 24L18 50L32 50L32 24 Z M 20 26L30 26L30 48L20 48 Z M 34 35L34 50L48 50L48 35 Z M 36 37L46 37L46 48L36 48Z" />
</svg>