<?xml version="1.0" encoding="utf-8"?>
<svg xmlns="http://www.w3.org/2000/svg" viewBox="0 0 50 50" width="515" height="515">
  <path d="M1.71875 0.28125L0.28125 1.71875L15.28125 16.71875L16 17.40625L16.71875 16.71875L20 13.4375L31.28125 24.71875L32 25.40625L32.71875 24.71875L36 21.4375L46.5625 32L40 32L40 34L50 34L50 23L48 23L48 30.5625L36.71875 19.28125L36 18.59375L35.28125 19.28125L32 22.5625L20.71875 11.28125L20 10.59375L19.28125 11.28125L16 14.5625 Z M 0 8L0 50L2 50L2 8 Z M 6 14L6 50L8 50L8 14 Z M 12 20L12 50L14 50L14 20 Z M 18 20L18 50L20 50L20 20 Z M 24 24L24 50L26 50L26 24 Z M 36 28L36 50L38 50L38 28 Z M 30 30L30 50L32 50L32 30 Z M 42 38L42 50L44 50L44 38 Z M 48 38L48 50L50 50L50 38Z" />
</svg>