<?xml version="1.0" encoding="utf-8"?>
<svg xmlns="http://www.w3.org/2000/svg" viewBox="0 0 50 50" width="515" height="515">
  <path d="M2.8125 0C1.277344 0 0 1.277344 0 2.8125L0 7.8125C-0.0078125 7.875 -0.0078125 7.9375 0 8L0 40C0 40.550781 0.449219 41 1 41L27 41C27.359375 41.003906 27.695313 40.816406 27.878906 40.503906C28.058594 40.191406 28.058594 39.808594 27.878906 39.496094C27.695313 39.183594 27.359375 38.996094 27 39L2 39L2 9L42 9L42 27C41.996094 27.359375 42.183594 27.695313 42.496094 27.878906C42.808594 28.058594 43.191406 28.058594 43.503906 27.878906C43.816406 27.695313 44.003906 27.359375 44 27L44 8C44.007813 7.9375 44.007813 7.875 44 7.8125L44 2.8125C44 1.277344 42.722656 0 41.1875 0 Z M 2.8125 2L41.1875 2C41.652344 2 42 2.347656 42 2.8125L42 7L2 7L2 2.8125C2 2.347656 2.347656 2 2.8125 2 Z M 7 15L7 17L11 17L11 15 Z M 14 15L14 17L37 17L37 15 Z M 7 20L7 22L11 22L11 20 Z M 14 20L14 22L37 22L37 20 Z M 7 25L7 27L11 27L11 25 Z M 14 25L14 27L37 27L37 25 Z M 7 30L7 32L11 32L11 30 Z M 14 30L14 32L30 32L30 30 Z M 40 30C34.488281 30 30 34.488281 30 40C30 45.511719 34.488281 50 40 50C45.511719 50 50 45.511719 50 40C50 34.488281 45.511719 30 40 30 Z M 40 32C44.429688 32 48 35.570313 48 40C48 44.429688 44.429688 48 40 48C35.570313 48 32 44.429688 32 40C32 35.570313 35.570313 32 40 32 Z M 36.40625 35.46875C36.363281 35.476563 36.320313 35.488281 36.28125 35.5C35.90625 35.566406 35.605469 35.839844 35.5 36.203125C35.394531 36.570313 35.503906 36.960938 35.78125 37.21875L38.5625 40L35.78125 42.78125C35.382813 43.179688 35.382813 43.820313 35.78125 44.21875C36.179688 44.617188 36.820313 44.617188 37.21875 44.21875L40 41.4375L42.78125 44.21875C43.179688 44.617188 43.820313 44.617188 44.21875 44.21875C44.617188 43.820313 44.617188 43.179688 44.21875 42.78125L41.4375 40L44.21875 37.21875C44.542969 36.917969 44.628906 36.441406 44.433594 36.046875C44.242188 35.648438 43.808594 35.429688 43.375 35.5C43.152344 35.523438 42.941406 35.625 42.78125 35.78125L40 38.5625L37.21875 35.78125C37.011719 35.558594 36.710938 35.445313 36.40625 35.46875Z" />
</svg>