<?xml version="1.0" encoding="utf-8"?>
<svg xmlns="http://www.w3.org/2000/svg" viewBox="0 0 50 50" width="515" height="515">
  <path d="M25 3C19.185 3 15.337484 6.586 15.021484 12.25C15.007484 12.496 15 12.746 15 13C14.998 14.647 15.405469 16.298797 15.855469 17.716797C15.423469 18.230797 15.005 19.012141 15 19.994141C15 20.099141 15.003578 20.340047 15.017578 20.498047C15.291578 22.605047 16.245984 23.610578 17.083984 24.017578C17.360984 25.915578 18.049 27.507125 19 28.453125L19 32.228516C18.422 33.614516 16.410797 34.415797 14.091797 35.341797C10.190797 36.899797 5.3349531 38.837313 5.0019531 44.945312L5 46L29.623047 46C29.255047 45.367 28.947219 44.699 28.699219 44L7.1210938 44C7.8520937 39.987 11.395031 38.571219 14.832031 37.199219C17.568031 36.106219 20.154266 35.075516 20.947266 32.728516L21 32.572266L21 27.5L20.599609 27.199219C19.938609 26.704219 19.187094 25.261203 18.996094 23.158203L18.943359 22.251953L18.03125 22.251953C17.82725 22.215953 17.199859 21.769109 17.005859 20.287109C17.000859 20.218109 17 20.069859 17 20.005859C17.004 19.249859 17.567266 18.824312 17.572266 18.820312L18.185547 18.390625L17.947266 17.681641C17.272266 15.669641 16.998 14.323156 17 13.035156C17.005 8.0791562 20.071 5 25 5C26.977 5 28.114281 5.8395937 28.488281 6.5585938L28.732422 7.0273438L29.257812 7.0898438C32.322812 7.4518438 32.985 10.171672 33 12.388672C33.015 14.543672 32.359922 16.680031 32.044922 17.707031L31.873047 18.478516L32.529297 18.882812C32.621297 18.940812 32.995953 19.320813 33.001953 20.007812C33.001953 20.071813 32.999141 20.219203 32.994141 20.283203C32.854141 21.893203 32.175953 22.245953 32.001953 22.251953L31.128906 22.251953L31.009766 23.115234C30.687766 25.478234 29.967391 26.776172 29.400391 27.201172L29 27.5L29 32.558594L29.064453 32.730469C29.223453 33.147469 29.452891 33.512516 29.712891 33.853516C30.088891 33.226516 30.519 32.635844 31 32.089844L31 28.449219C32.107 27.328219 32.635766 25.447453 32.884766 24.064453C33.792766 23.686453 34.794328 22.670172 34.986328 20.451172C34.995328 20.340172 35 20.100188 35 19.992188C34.993 19.011187 34.616531 18.201016 34.144531 17.666016C34.510531 16.421016 35.014 14.441047 35 12.373047C34.973 8.3640469 33.152422 5.7717344 29.982422 5.1777344C29.020422 3.8227344 27.167 3 25 3 z M 40 30C34.488997 30 30 34.488997 30 40C30 45.511003 34.488997 50 40 50C45.511003 50 50 45.511003 50 40C50 34.488997 45.511003 30 40 30 z M 40 32C44.430123 32 48 35.569877 48 40C48 44.430123 44.430123 48 40 48C35.569877 48 32 44.430123 32 40C32 35.569877 35.569877 32 40 32 z M 36.490234 35.490234 A 1.0001 1.0001 0 0 0 35.792969 37.207031L38.585938 40L35.792969 42.792969 A 1.0001 1.0001 0 1 0 37.207031 44.207031L40 41.414062L42.792969 44.207031 A 1.0001 1.0001 0 1 0 44.207031 42.792969L41.414062 40L44.207031 37.207031 A 1.0001 1.0001 0 0 0 43.480469 35.490234 A 1.0001 1.0001 0 0 0 42.792969 35.792969L40 38.585938L37.207031 35.792969 A 1.0001 1.0001 0 0 0 36.490234 35.490234 z" />
</svg>