<?xml version="1.0" encoding="utf-8"?>
<svg xmlns="http://www.w3.org/2000/svg" viewBox="0 0 50 50" width="515" height="515">
  <path d="M4 0L4 48L26 48C26.359375 48.003906 26.695313 47.816406 26.878906 47.503906C27.058594 47.191406 27.058594 46.808594 26.878906 46.496094C26.695313 46.183594 26.359375 45.996094 26 46L6 46L6 2L24 2L24 16L38 16L38 30C37.996094 30.359375 38.183594 30.695313 38.496094 30.878906C38.808594 31.058594 39.191406 31.058594 39.503906 30.878906C39.816406 30.695313 40.003906 30.359375 40 30L40 14.59375L39.71875 14.28125L25.71875 0.28125L25.40625 0 Z M 26 3.4375L36.5625 14L26 14 Z M 30.90625 29.96875C30.863281 29.976563 30.820313 29.988281 30.78125 30C30.40625 30.066406 30.105469 30.339844 30 30.703125C29.894531 31.070313 30.003906 31.460938 30.28125 31.71875L38.5625 40L30.28125 48.28125C29.882813 48.679688 29.882813 49.320313 30.28125 49.71875C30.679688 50.117188 31.320313 50.117188 31.71875 49.71875L40 41.4375L48.28125 49.71875C48.679688 50.117188 49.320313 50.117188 49.71875 49.71875C50.117188 49.320313 50.117188 48.679688 49.71875 48.28125L41.4375 40L49.71875 31.71875C50.042969 31.417969 50.128906 30.941406 49.933594 30.546875C49.742188 30.148438 49.308594 29.929688 48.875 30C48.652344 30.023438 48.441406 30.125 48.28125 30.28125L40 38.5625L31.71875 30.28125C31.511719 30.058594 31.210938 29.945313 30.90625 29.96875Z" />
</svg>