<?xml version="1.0" encoding="utf-8"?>
<svg xmlns="http://www.w3.org/2000/svg" viewBox="0 0 50 50" width="515" height="515">
  <path d="M14 2C13.449219 2 13 2.449219 13 3L13 23C13 23.550781 13.449219 24 14 24L26 24L26 28.191406C25.171875 28.539063 24.511719 29.25 24.320313 30.203125L24.320313 30.195313L22.921875 36.910156L18.773438 38.902344L12.699219 38.902344C12.671875 38.898438 12.648438 38.902344 12.625 38.902344C11.917969 38.957031 10.808594 39.078125 9.796875 39.777344C8.78125 40.472656 8 41.808594 8 43.699219L8 49C7.996094 49.359375 8.183594 49.695313 8.496094 49.878906C8.808594 50.058594 9.191406 50.058594 9.503906 49.878906C9.816406 49.695313 10.003906 49.359375 10 49L10 43.699219C10 42.292969 10.417969 41.777344 10.929688 41.421875C11.4375 41.074219 12.171875 40.945313 12.765625 40.902344L19 40.902344C19.148438 40.902344 19.296875 40.867188 19.433594 40.800781L24.234375 38.5C24.511719 38.367188 24.714844 38.109375 24.78125 37.804688L26.28125 30.605469C26.28125 30.601563 26.28125 30.597656 26.28125 30.59375C26.371094 30.148438 26.808594 29.882813 27.304688 29.980469C27.75 30.070313 28.019531 30.503906 27.921875 31C27.921875 31 27.921875 31.003906 27.921875 31.003906L26.222656 38.992188C26.222656 38.996094 26.21875 39 26.21875 39.003906C26.183594 39.175781 25.835938 39.808594 25.578125 40.015625C25.578125 40.015625 25.578125 40.019531 25.578125 40.019531L21.382813 43.3125C21.140625 43.503906 21 43.792969 21 44.097656L21 49C20.996094 49.359375 21.183594 49.695313 21.496094 49.878906C21.808594 50.058594 22.191406 50.058594 22.503906 49.878906C22.816406 49.695313 23.003906 49.359375 23 49L23 44.585938L26.816406 41.585938C26.820313 41.585938 26.824219 41.582031 26.824219 41.578125C27.566406 40.988281 28.015625 40.222656 28.179688 39.394531L29.878906 31.40625C29.878906 31.40625 29.878906 31.402344 29.878906 31.394531C30.160156 29.996094 29.363281 28.558594 28 28.113281L28 24L40 24C40.550781 24 41 23.550781 41 23L41 3C41 2.449219 40.550781 2 40 2 Z M 15 4L39 4L39 22L15 22 Z M 26 7L26 15L28 15L28 7 Z M 27 17C26.449219 17 26 17.449219 26 18C26 18.550781 26.449219 19 27 19C27.550781 19 28 18.550781 28 18C28 17.449219 27.550781 17 27 17 Z M 15.5 27C12.472656 27 10 29.472656 10 32.5C10 35.527344 12.472656 38 15.5 38C18.527344 38 21 35.527344 21 32.5C21 29.472656 18.527344 27 15.5 27 Z M 15.5 29C17.445313 29 19 30.554688 19 32.5C19 34.445313 17.445313 36 15.5 36C13.554688 36 12 34.445313 12 32.5C12 30.554688 13.554688 29 15.5 29Z" />
</svg>