<?xml version="1.0" encoding="utf-8"?>
<svg xmlns="http://www.w3.org/2000/svg" viewBox="0 0 50 50" width="515" height="515">
  <path d="M16 2C13.802706 2 12 3.8027056 12 6C12 8.1972944 13.802706 10 16 10C18.197294 10 20 8.1972944 20 6C20 3.8027056 18.197294 2 16 2 z M 34 2C31.802706 2 30 3.8027056 30 6C30 8.1972944 31.802706 10 34 10C36.197294 10 38 8.1972944 38 6C38 3.8027056 36.197294 2 34 2 z M 16 4C17.116414 4 18 4.8835859 18 6C18 7.1164141 17.116414 8 16 8C14.883586 8 14 7.1164141 14 6C14 4.8835859 14.883586 4 16 4 z M 34 4C35.116414 4 36 4.8835859 36 6C36 7.1164141 35.116414 8 34 8C32.883586 8 32 7.1164141 32 6C32 4.8835859 32.883586 4 34 4 z M 12.666016 11C10.6682 11 9 12.605884 9 14.59375L9 23L9 23.5C9 24.869063 10.130937 26 11.5 26C11.671133 26 11.838052 25.982817 12 25.949219L12 33C12 34.093063 12.906937 35 14 35L18 35C19.093063 35 20 34.093063 20 33L20 25.949219C20.161948 25.982817 20.328867 26 20.5 26C21.869063 26 23 24.869063 23 23.5L23 23L23 14.59375C23 12.605884 21.330489 11 19.332031 11L12.666016 11 z M 31.339844 11C30.227425 11 29.337972 11.490261 28.785156 12.054688C28.232341 12.619111 27.965171 13.228546 27.830078 13.617188 A 1.0001 1.0001 0 0 0 27.828125 13.623047C27.828125 13.623047 25.737398 19.774307 25.126953 21.599609 A 1.0001 1.0001 0 0 0 25.083984 21.787109L25.007812 22.371094 A 1.0001 1.0001 0 0 0 25 22.5C25 23.715997 25.893944 24.740378 27.052734 24.955078C26.953613 25.360545 26.961212 25.819788 27.267578 26.289062C27.588494 26.780625 28.194814 27 28.609375 27L30.117188 27L31.007812 34.125 A 1.0001 1.0001 0 0 0 32 35L36 35 A 1.0001 1.0001 0 0 0 36.992188 34.125L37.882812 27L39.398438 27C40.04533 27 40.374619 26.685797 40.613281 26.441406 A 1.0001 1.0001 0 0 0 40.736328 26.287109C41.005205 25.871964 41.014618 25.327859 40.943359 24.955078C42.103991 24.741918 43 23.71732 43 22.5 A 1.0001 1.0001 0 0 0 42.986328 22.330078L42.884766 21.748047 A 1.0001 1.0001 0 0 0 42.849609 21.603516C42.246531 19.779201 40.183594 13.626953 40.183594 13.626953 A 1.0001 1.0001 0 0 0 40.181641 13.621094C40.0486 13.23252 39.785129 12.62391 39.238281 12.058594C38.691433 11.493278 37.808434 11 36.703125 11L34.037109 11L31.339844 11 z M 12.666016 13L19.332031 13C20.279573 13 21 13.717616 21 14.59375L21 23L21 23.5C21 23.786937 20.786937 24 20.5 24C20.213063 24 20 23.786937 20 23.5L20 17 A 1.0001 1.0001 0 1 0 18 17L18 33L14 33L14 17 A 1.0001 1.0001 0 0 0 12.984375 15.986328 A 1.0001 1.0001 0 0 0 12 17L12 23.5C12 23.786937 11.786937 24 11.5 24C11.213063 24 11 23.786937 11 23.5L11 23L11 14.59375C11 13.717616 11.719831 13 12.666016 13 z M 31.339844 13L34.037109 13L36.703125 13C37.263816 13 37.548129 13.188035 37.800781 13.449219C38.053433 13.710403 38.22215 14.074146 38.289062 14.269531C38.292063 14.278531 40.307517 20.285726 40.925781 22.154297L40.986328 22.513672C40.975093 22.788732 40.779091 23 40.5 23 A 1.0001 1.0001 0 0 0 40.335938 23.013672L38.292969 16.693359 A 1.0001 1.0001 0 0 0 37.308594 15.986328 A 1.0001 1.0001 0 0 0 36.388672 17.306641L38.875 25L37.146484 25 A 1.0001 1.0001 0 0 0 36.853516 25L34.039062 25L34.037109 25L31.167969 25 A 1.0001 1.0001 0 0 0 30.958984 24.986328 A 1.0001 1.0001 0 0 0 30.837891 25L29.126953 25L31.642578 17.310547 A 1.0001 1.0001 0 0 0 30.699219 15.986328 A 1.0001 1.0001 0 0 0 29.742188 16.689453L27.673828 23.011719 A 1.0001 1.0001 0 0 0 27.5 23C27.217546 23 27.014333 22.787961 27.007812 22.507812L27.056641 22.136719C27.688364 20.250144 29.722656 14.267578 29.722656 14.267578C29.791566 14.07123 29.960043 13.713277 30.214844 13.453125C30.471527 13.19105 30.765263 13 31.339844 13 z M 32.132812 27L34.037109 27L34.039062 27L35.867188 27L35.117188 33L32.882812 33L32.132812 27 z M 10 31.099609C5.69 34.399609 2.4592969 39.129219 1.0292969 44.699219C0.88929687 45.239219 1.22 45.779922 1.75 45.919922C2.29 46.059922 2.8307031 45.729219 2.9707031 45.199219C4.1507031 40.609219 6.6497656 36.649453 10.009766 33.689453C9.9997656 33.629453 10 31.099609 10 31.099609 z M 40 31.109375C40 31.109375 40.000234 33.629219 39.990234 33.699219C43.350234 36.659219 45.859297 40.64 47.029297 45.25C47.149297 45.7 47.55 46 48 46C48.08 46 48.16 45.990703 48.25 45.970703C48.78 45.840703 49.110703 45.289766 48.970703 44.759766C47.550703 39.159766 44.31 34.419375 40 31.109375 z M 34.302734 35.65625C34.172578 35.668281 34.042422 35.704531 33.919922 35.769531C33.439922 36.039531 33.259531 36.640859 33.519531 37.130859C33.699531 37.460859 34.050391 37.650391 34.400391 37.650391C34.560391 37.650391 34.720859 37.619297 34.880859 37.529297C35.360859 37.269297 35.539297 36.659687 35.279297 36.179688C35.084297 35.812188 34.693203 35.620156 34.302734 35.65625 z M 15.642578 35.755859C15.256328 35.719766 14.864922 35.911797 14.669922 36.279297C14.399922 36.759297 14.580312 37.370859 15.070312 37.630859C15.220313 37.710859 15.379063 37.75 15.539062 37.75C15.899062 37.75 16.239922 37.560469 16.419922 37.230469C16.689922 36.740469 16.509531 36.139141 16.019531 35.869141C15.899531 35.804141 15.771328 35.767891 15.642578 35.755859 z M 8.4648438 36.140625 A 1 1 0 0 0 7.4648438 37.140625 A 1 1 0 0 0 8.4648438 38.140625 A 1 1 0 0 0 9.4648438 37.140625 A 1 1 0 0 0 8.4648438 36.140625 z M 41.535156 36.140625 A 1 1 0 0 0 40.535156 37.140625 A 1 1 0 0 0 41.535156 38.140625 A 1 1 0 0 0 42.535156 37.140625 A 1 1 0 0 0 41.535156 36.140625 z M 11.095703 37.363281 A 1 1 0 0 0 10.095703 38.363281 A 1 1 0 0 0 11.095703 39.363281 A 1 1 0 0 0 12.095703 38.363281 A 1 1 0 0 0 11.095703 37.363281 z M 38.904297 37.363281 A 1 1 0 0 0 37.904297 38.363281 A 1 1 0 0 0 38.904297 39.363281 A 1 1 0 0 0 39.904297 38.363281 A 1 1 0 0 0 38.904297 37.363281 z M 13.919922 38.373047 A 1 1 0 0 0 12.919922 39.373047 A 1 1 0 0 0 13.919922 40.373047 A 1 1 0 0 0 14.919922 39.373047 A 1 1 0 0 0 13.919922 38.373047 z M 36.080078 38.373047 A 1 1 0 0 0 35.080078 39.373047 A 1 1 0 0 0 36.080078 40.373047 A 1 1 0 0 0 37.080078 39.373047 A 1 1 0 0 0 36.080078 38.373047 z M 16.912109 39.152344 A 1 1 0 0 0 15.912109 40.152344 A 1 1 0 0 0 16.912109 41.152344 A 1 1 0 0 0 17.912109 40.152344 A 1 1 0 0 0 16.912109 39.152344 z M 33.087891 39.152344 A 1 1 0 0 0 32.087891 40.152344 A 1 1 0 0 0 33.087891 41.152344 A 1 1 0 0 0 34.087891 40.152344 A 1 1 0 0 0 33.087891 39.152344 z M 20.056641 39.689453 A 1 1 0 0 0 19.056641 40.689453 A 1 1 0 0 0 20.056641 41.689453 A 1 1 0 0 0 21.056641 40.689453 A 1 1 0 0 0 20.056641 39.689453 z M 29.943359 39.689453 A 1 1 0 0 0 28.943359 40.689453 A 1 1 0 0 0 29.943359 41.689453 A 1 1 0 0 0 30.943359 40.689453 A 1 1 0 0 0 29.943359 39.689453 z M 23.324219 39.964844 A 1 1 0 0 0 22.324219 40.964844 A 1 1 0 0 0 23.324219 41.964844 A 1 1 0 0 0 24.324219 40.964844 A 1 1 0 0 0 23.324219 39.964844 z M 26.675781 39.964844 A 1 1 0 0 0 25.675781 40.964844 A 1 1 0 0 0 26.675781 41.964844 A 1 1 0 0 0 27.675781 40.964844 A 1 1 0 0 0 26.675781 39.964844 z M 37.048828 41.041016C36.919453 41.037734 36.787656 41.059375 36.660156 41.109375C36.150156 41.319375 35.889609 41.900156 36.099609 42.410156C36.249609 42.810156 36.629297 43.039062 37.029297 43.039062C37.149297 43.039062 37.280391 43.020703 37.400391 42.970703C37.910391 42.770703 38.160938 42.189922 37.960938 41.669922C37.803438 41.287422 37.436953 41.050859 37.048828 41.041016 z M 12.90625 41.152344C12.514375 41.162656 12.15 41.399062 12 41.789062L12 41.779297C11.8 42.299297 12.050547 42.880078 12.560547 43.080078C12.680547 43.130078 12.809687 43.150391 12.929688 43.150391C13.329687 43.150391 13.709375 42.909531 13.859375 42.519531C14.059375 41.999531 13.810781 41.420703 13.300781 41.220703C13.170781 41.170703 13.036875 41.148906 12.90625 41.152344 z M 38.115234 43.898438C37.986953 43.879687 37.853203 43.884922 37.720703 43.919922C37.180703 44.059922 36.86 44.610625 37 45.140625C37.12 45.590625 37.530703 45.890625 37.970703 45.890625C38.060703 45.890625 38.140469 45.879375 38.230469 45.859375C38.760469 45.709375 39.079453 45.170625 38.939453 44.640625C38.834453 44.235625 38.500078 43.954688 38.115234 43.898438 z M 11.851562 44.007812C11.465312 44.064062 11.134297 44.345 11.029297 44.75C10.889297 45.28 11.22 45.830703 11.75 45.970703C11.83 45.990703 11.92 46 12 46C12.45 46 12.850703 45.7 12.970703 45.25C13.100703 44.71 12.78 44.169297 12.25 44.029297C12.115 43.994297 11.980313 43.989063 11.851562 44.007812 z" />
</svg>