<?xml version="1.0" encoding="utf-8"?>
<svg xmlns="http://www.w3.org/2000/svg" viewBox="0 0 50 50" width="515" height="515">
  <path d="M39.90625 7.96875C39.863281 7.976563 39.820313 7.988281 39.78125 8C39.316406 8.105469 38.988281 8.523438 39 9L39 38.53125L31.8125 31.34375C31.625 31.144531 31.367188 31.035156 31.09375 31.03125C30.6875 31.035156 30.324219 31.28125 30.171875 31.660156C30.023438 32.035156 30.113281 32.46875 30.40625 32.75L39.28125 41.65625L40 42.34375L40.71875 41.65625L49.59375 32.75C49.890625 32.507813 50.027344 32.121094 49.941406 31.746094C49.855469 31.375 49.5625 31.082031 49.191406 30.996094C48.816406 30.910156 48.429688 31.046875 48.1875 31.34375L41 38.53125L41 9C41.011719 8.710938 40.894531 8.433594 40.6875 8.238281C40.476563 8.039063 40.191406 7.941406 39.90625 7.96875 Z M 0.71875 8C0.167969 8.078125 -0.21875 8.589844 -0.140625 9.140625C-0.0625 9.691406 0.449219 10.078125 1 10L26 10C26.550781 10 27 9.550781 27 9C27 8.449219 26.550781 8 26 8L1 8C0.96875 8 0.9375 8 0.90625 8C0.875 8 0.84375 8 0.8125 8C0.78125 8 0.75 8 0.71875 8 Z M 0.71875 16C0.167969 16.078125 -0.21875 16.589844 -0.140625 17.140625C-0.0625 17.691406 0.449219 18.078125 1 18L19 18C19.550781 18 20 17.550781 20 17C20 16.449219 19.550781 16 19 16L1 16C0.96875 16 0.9375 16 0.90625 16C0.875 16 0.84375 16 0.8125 16C0.78125 16 0.75 16 0.71875 16 Z M 0.8125 24C0.261719 24.050781 -0.144531 24.542969 -0.09375 25.09375C-0.0429688 25.644531 0.449219 26.050781 1 26L15 26C15.550781 26 16 25.550781 16 25C16 24.449219 15.550781 24 15 24L1 24C0.96875 24 0.9375 24 0.90625 24C0.875 24 0.84375 24 0.8125 24 Z M 0.8125 32.03125C0.339844 32.148438 0.0234375 32.59375 0.0703125 33.082031C0.117188 33.566406 0.511719 33.945313 1 33.96875L11 33.96875C11.386719 34.035156 11.777344 33.867188 11.992188 33.539063C12.207031 33.210938 12.207031 32.789063 11.992188 32.460938C11.777344 32.132813 11.386719 31.964844 11 32.03125L1 32.03125C0.9375 32.023438 0.875 32.023438 0.8125 32.03125 Z M 0.8125 40.03125C0.308594 40.117188 -0.0390625 40.578125 0.0078125 41.085938C0.0585938 41.59375 0.488281 41.980469 1 41.96875L7 41.96875C7.375 42.015625 7.742188 41.839844 7.945313 41.523438C8.144531 41.203125 8.144531 40.796875 7.945313 40.476563C7.742188 40.160156 7.375 39.984375 7 40.03125L1 40.03125C0.9375 40.023438 0.875 40.023438 0.8125 40.03125Z" />
</svg>