<?xml version="1.0" encoding="utf-8"?>
<svg xmlns="http://www.w3.org/2000/svg" viewBox="0 0 50 50" width="515" height="515">
  <path d="M21 3C11.621094 3 4 10.621094 4 20C4 29.378906 11.621094 37 21 37C24.710938 37 28.140625 35.804688 30.9375 33.78125L44.09375 46.90625L46.90625 44.09375L33.90625 31.0625C36.460938 28.085938 38 24.222656 38 20C38 10.621094 30.378906 3 21 3 Z M 21 5C28.070313 5 33.96875 9.867188 35.5625 16.4375C31.863281 13.777344 26.761719 11.125 21 11.125C15.238281 11.125 10.136719 13.808594 6.4375 16.46875C8.023438 9.882813 13.921875 5 21 5 Z M 21 12.875C23.261719 12.875 25.460938 13.332031 27.5 14.0625C28.863281 15.597656 29.6875 17.59375 29.6875 19.8125C29.6875 24.628906 25.816406 28.53125 21 28.53125C16.183594 28.53125 12.3125 24.628906 12.3125 19.8125C12.3125 17.613281 13.101563 15.621094 14.4375 14.09375C16.503906 13.347656 18.707031 12.875 21 12.875 Z M 11.5625 15.34375C10.914063 16.695313 10.5625 18.210938 10.5625 19.8125C10.5625 25.566406 15.246094 30.25 21 30.25C26.753906 30.25 31.4375 25.566406 31.4375 19.8125C31.4375 18.226563 31.078125 16.722656 30.4375 15.375C32.460938 16.402344 34.28125 17.609375 35.78125 18.78125C35.839844 18.820313 35.902344 18.851563 35.96875 18.875C35.996094 19.25 36 19.621094 36 20C36 28.296875 29.296875 35 21 35C12.703125 35 6 28.296875 6 20C6 19.542969 6.023438 19.101563 6.0625 18.65625C6.296875 18.660156 6.519531 18.570313 6.6875 18.40625C8.089844 17.34375 9.742188 16.265625 11.5625 15.34375 Z M 21 15.46875C18.597656 15.46875 16.65625 17.410156 16.65625 19.8125C16.65625 22.214844 18.597656 24.1875 21 24.1875C23.402344 24.1875 25.34375 22.214844 25.34375 19.8125C25.34375 17.410156 23.402344 15.46875 21 15.46875Z" />
</svg>