<?xml version="1.0" encoding="utf-8"?>
<svg xmlns="http://www.w3.org/2000/svg" viewBox="0 0 50 50" width="515" height="515">
  <path d="M32 4.9980469C28.696297 4.9980469 25.998047 7.7039821 25.998047 11.011719C25.998047 12.595687 26.621224 14.038327 27.628906 15.115234C26.319911 15.352352 24.815954 15.935596 23.335938 17.251953 A 1.0001 1.0001 0 0 0 23.283203 17.302734C20.819906 19.838477 19.443941 22.698448 19 28.583984C18.898503 29.931556 19.180891 31.112127 19.800781 32L18 32L18 19 A 1.0001 1.0001 0 0 0 17 18L8 18 A 1.0001 1.0001 0 0 0 7 19L7 28C7 29.590957 7.6321666 31.117741 8.7578125 32.242188C9.3954894 32.880544 10.16521 33.352786 11 33.648438C11.000606 33.845819 11.001953 34.05803 11.001953 34.085938C11.001953 36.963122 12.769005 39.600094 15 41.363281L15 44 A 1.0001 1.0001 0 0 0 16 45L28.998047 45 A 1.0001 1.0001 0 0 0 29.998047 44L29.998047 41.369141C30.42874 41.034254 30.832672 40.66024 31.21875 40.267578C31.151731 40.762956 31.009766 41.861328 31.009766 41.861328 A 1.0001 1.0001 0 0 0 31 41.970703C31 41.970703 30.958851 42.700734 31.320312 43.470703C31.681773 44.240673 32.68799 45.080507 34.060547 44.998047C34.890267 44.947957 35.654041 44.710249 36.160156 44.148438C36.666271 43.586625 36.823156 42.93365 36.978516 42.210938 A 1.0001 1.0001 0 0 0 36.994141 42.109375C36.994141 42.109375 37.225731 39.987811 37.466797 37.675781C37.707863 35.363752 37.955618 32.924935 37.998047 32.048828C38.016417 31.672751 38.117371 30.858028 37.916016 30C39.186796 29.9982 41.998715 30.000006 42 30C42.833851 30 43.631161 29.731767 44.1875 29.169922C44.743833 28.608077 45 27.817413 45 27C45 26.182587 44.743839 25.391923 44.1875 24.830078C43.631161 24.268233 42.833851 24 42 24L36.625 24C35.796107 22.353491 34.959514 20.390382 34.037109 18.6875C33.694062 18.054187 33.339206 17.466613 32.955078 16.941406C35.80725 16.479001 38.001953 13.993438 38.001953 11.011719C38.001953 7.7039821 35.303703 4.9980469 32 4.9980469 z M 32 7.0019531C34.219145 7.0019531 35.998047 8.7833526 35.998047 11.011719C35.998047 13.240085 34.219145 15.023438 32 15.023438C29.780855 15.023438 28.001953 13.240085 28.001953 11.011719C28.001953 8.7833526 29.780855 7.0019531 32 7.0019531 z M 28.845703 16.957031C29.231577 16.943406 29.585905 16.965057 29.902344 16.996094 A 1.0001 1.0001 0 0 0 29.992188 17C30.182223 17.0016 30.490003 17.132116 30.914062 17.589844C31.338123 18.047572 31.811915 18.777775 32.279297 19.640625C33.214061 21.366326 34.135152 23.608324 35.115234 25.466797 A 1.0001 1.0001 0 0 0 36 26L42 26C42.438149 26 42.639964 26.109423 42.765625 26.236328C42.891286 26.363233 43 26.572413 43 27C43 27.427587 42.891286 27.636767 42.765625 27.763672C42.639964 27.890577 42.438149 28 42 28 A 1.0001 1.0001 0 0 0 41.996094 28C41.996094 28 38.574844 28.0028 34.998047 28C34.750711 28.000629 34.224314 27.999819 33.730469 28C33.640559 27.759122 33.539252 27.500681 33.414062 27.197266C33.12169 26.488657 32.748032 25.632015 32.376953 24.800781C31.634796 23.138314 30.90625 21.578125 30.90625 21.578125 A 1.0001 1.0001 0 0 0 29.009766 21.859375L28.009766 28.859375 A 1.0001 1.0001 0 0 0 29 30L32.998047 30C33.889146 30.000001 34.605431 30.001 35.001953 30C35.494356 29.9986 35.728466 30.09378 35.828125 30.158203C35.927785 30.222623 35.955304 30.261826 36 30.404297C36.08939 30.689238 36.032803 31.318742 36.001953 31.951172C35.970383 32.603065 35.71895 35.16278 35.478516 37.46875C35.242431 39.733001 35.021818 41.735984 35.013672 41.810547C34.878846 42.423344 34.742962 42.735973 34.675781 42.810547C34.607141 42.886737 34.517733 42.967043 33.939453 43.001953C33.24801 43.043493 33.253399 42.882124 33.130859 42.621094C33.011104 42.365994 33.002411 42.05744 33.001953 42.042969C33.014343 41.954099 33.270984 40.128197 33.527344 38.066406C33.625705 37.275334 33.708757 36.51333 33.789062 35.771484C33.913169 35.225775 33.998047 34.666237 33.998047 34.085938C33.998047 34.051428 33.9996 33.794801 34 33.544922C34.000377 33.295043 34.003647 33.134432 33.998047 32.966797 A 1.0001 1.0001 0 0 0 33.996094 32.939453C33.995754 32.934801 33.99645 32.928464 33.996094 32.923828 A 1.0001 1.0001 0 0 0 33.992188 32.886719 A 1.0001 1.0001 0 0 0 33.990234 32.867188 A 1.0001 1.0001 0 0 0 33.988281 32.857422 A 1.0001 1.0001 0 0 0 33.970703 32.769531 A 1.0001 1.0001 0 0 0 33.943359 32.673828 A 1.0001 1.0001 0 0 0 33.90625 32.582031 A 1.0001 1.0001 0 0 0 33.90625 32.580078 A 1.0001 1.0001 0 0 0 33.90625 32.578125 A 1.0001 1.0001 0 0 0 33.859375 32.492188 A 1.0001 1.0001 0 0 0 33.814453 32.421875 A 1.0001 1.0001 0 0 0 33.804688 32.408203 A 1.0001 1.0001 0 0 0 33.779297 32.375 A 1.0001 1.0001 0 0 0 33.765625 32.359375 A 1.0001 1.0001 0 0 0 33.726562 32.314453 A 1.0001 1.0001 0 0 0 33.712891 32.298828 A 1.0001 1.0001 0 0 0 33.695312 32.28125 A 1.0001 1.0001 0 0 0 33.646484 32.240234 A 1.0001 1.0001 0 0 0 33.638672 32.232422 A 1.0001 1.0001 0 0 0 33.59375 32.197266 A 1.0001 1.0001 0 0 0 33.580078 32.1875 A 1.0001 1.0001 0 0 0 33.53125 32.154297 A 1.0001 1.0001 0 0 0 33.509766 32.140625 A 1.0001 1.0001 0 0 0 33.494141 32.132812 A 1.0001 1.0001 0 0 0 33.441406 32.103516 A 1.0001 1.0001 0 0 0 33.421875 32.09375 A 1.0001 1.0001 0 0 0 33.40625 32.087891 A 1.0001 1.0001 0 0 0 33.347656 32.064453 A 1.0001 1.0001 0 0 0 33.330078 32.056641 A 1.0001 1.0001 0 0 0 33.289062 32.042969 A 1.0001 1.0001 0 0 0 33.271484 32.039062 A 1.0001 1.0001 0 0 0 33.195312 32.019531 A 1.0001 1.0001 0 0 0 33.191406 32.019531 A 1.0001 1.0001 0 0 0 33.134766 32.009766 A 1.0001 1.0001 0 0 0 33.123047 32.007812 A 1.0001 1.0001 0 0 0 33.060547 32.001953 A 1.0001 1.0001 0 0 0 33 32L32.998047 32L25 32C23.493371 32 22.405085 31.713583 21.806641 31.246094C21.208197 30.778605 20.89124 30.126501 20.996094 28.734375C21.419681 23.118681 22.481196 21.017053 24.683594 18.738281C26.24567 17.356984 27.688082 16.997908 28.845703 16.957031 z M 9 20L16 20L16 32L13 32C11.938957 32 10.921429 31.578479 10.171875 30.828125C9.4215209 30.078571 9 29.061043 9 28L9 20 z M 30.507812 25.521484C30.529692 25.570364 30.528871 25.568107 30.550781 25.617188C30.917578 26.438828 31.287185 27.282249 31.566406 27.958984C31.573106 27.975114 31.575501 27.98406 31.582031 28C30.96624 27.999783 30.519757 28.000194 30.152344 28L30.507812 25.521484 z M 13.001953 34L17 34L25 34L31.941406 34C31.922656 34.305766 31.927769 34.394147 31.886719 34.806641C31.867146 35.003328 31.833615 35.262932 31.810547 35.476562C31.357064 37.329135 30.066206 39.042368 28.429688 40.177734 A 1.0001 1.0001 0 0 0 27.998047 41L27.998047 43L17 43L17 41 A 1.0001 1.0001 0 0 0 16.576172 40.181641C14.585163 38.780792 13.001953 36.27805 13.001953 34.085938C13.001953 34.077038 13.001986 34.01737 13.001953 34 z" />
</svg>