<?xml version="1.0" encoding="utf-8"?>
<svg xmlns="http://www.w3.org/2000/svg" viewBox="0 0 50 50" width="515" height="515">
  <path d="M12 2C8.699219 2 6 4.699219 6 8L6 42.417969C6 45.59375 8.832031 48 12 48L44 48L44 46L12 46C9.839844 46 8 44.378906 8 42.417969C8 40.457031 9.800781 39 12 39L44 39L44 2 Z M 12 4L42 4L42 37L12 37C10.507813 37 9.09375 37.539063 8 38.417969L8 8C8 5.78125 9.78125 4 12 4 Z M 19.285156 13L14 28.421875L14 29L16 29L16 28.75L16.941406 26L24.058594 26L25 28.75L25 29L27 29L27 28.421875L21.714844 13 Z M 20.5 15.625L23.371094 24L17.628906 24 Z M 32 17C31.097656 17 30.277344 17.324219 29.746094 17.90625C29.210938 18.492188 29 19.253906 29 20L31 20C31 19.628906 31.101563 19.390625 31.222656 19.253906C31.347656 19.117188 31.527344 19 32 19C32.414063 19 32.542969 19.097656 32.703125 19.320313C32.867188 19.542969 33 19.964844 33 20.5L33 21.1875C32.683594 21.074219 32.351563 21 32 21L31 21C29.355469 21 28 22.355469 28 24L28 26C28 27.644531 29.355469 29 31 29L32 29C32.769531 29 33.464844 28.695313 34 28.214844C34.535156 28.695313 35.230469 29 36 29L36 27C35.433594 27 35 26.566406 35 26L35 20.5C35 19.660156 34.820313 18.832031 34.328125 18.148438C33.832031 17.464844 32.960938 17 32 17 Z M 31 23L32 23C32.554688 23 33 23.445313 33 24L33 26C33 26.554688 32.554688 27 32 27L31 27C30.445313 27 30 26.554688 30 26L30 24C30 23.445313 30.445313 23 31 23Z" />
</svg>