<?xml version="1.0" encoding="utf-8"?>
<svg xmlns="http://www.w3.org/2000/svg" viewBox="0 0 50 50" width="515" height="515">
  <path d="M14.90625 -0.03125C14.863281 -0.0234375 14.820313 -0.0117188 14.78125 0L11.875 0C11.84375 0 11.8125 0 11.78125 0C11.320313 0.0390625 10.945313 0.386719 10.875 0.84375C10.875 0.84375 10.40625 4.164063 9.9375 7.6875C9.703125 9.449219 9.488281 11.25 9.3125 12.75C9.136719 14.25 9 15.371094 9 16C9 16.824219 9.335938 17.503906 9.75 18.21875C10.164063 18.933594 10.699219 19.65625 11.21875 20.3125C12.101563 21.433594 12.730469 22.089844 12.96875 22.34375L12 45.96875C12 45.980469 12 45.988281 12 46C12 47.335938 12.695313 48.449219 13.65625 49.09375C14.617188 49.738281 15.808594 50 17 50C18.191406 50 19.382813 49.738281 20.34375 49.09375C21.304688 48.449219 22 47.335938 22 46C22 45.988281 22 45.980469 22 45.96875L21 22.34375C21.230469 22.097656 21.890625 21.417969 22.78125 20.28125C23.296875 19.621094 23.835938 18.898438 24.25 18.1875C24.664063 17.476563 25 16.820313 25 16C25 15.382813 24.863281 14.277344 24.6875 12.78125C24.511719 11.285156 24.296875 9.484375 24.0625 7.71875C23.59375 4.183594 23.125 0.875 23.125 0.875C23.0625 0.371094 22.632813 -0.00390625 22.125 0L19.1875 0C19.054688 -0.0273438 18.914063 -0.0273438 18.78125 0L15.1875 0C15.097656 -0.0234375 15 -0.0351563 14.90625 -0.03125 Z M 38 0C37.070313 0 36.28125 0.449219 35.4375 1.09375C34.59375 1.738281 33.734375 2.632813 32.9375 3.71875C31.339844 5.890625 30 8.867188 30 12.15625C30 17.222656 31.046875 20.59375 32.09375 22.90625C32.617188 24.0625 33.140625 24.9375 33.5 25.625C33.859375 26.3125 34 26.785156 34 27C34 31.414063 32 36.46875 32 46C32 47.257813 32.519531 48.347656 33.375 49.03125C34.230469 49.714844 35.324219 50 36.5 50C37.675781 50 38.769531 49.714844 39.625 49.03125C40.480469 48.347656 41 47.257813 41 46L41 3.8125C41 2.8125 40.894531 1.945313 40.40625 1.1875C39.917969 0.429688 38.984375 0 38 0 Z M 12.75 2L14 2L14 15C13.996094 15.359375 14.183594 15.695313 14.496094 15.878906C14.808594 16.058594 15.191406 16.058594 15.503906 15.878906C15.816406 15.695313 16.003906 15.359375 16 15L16 2L18 2L18 15C17.996094 15.359375 18.183594 15.695313 18.496094 15.878906C18.808594 16.058594 19.191406 16.058594 19.503906 15.878906C19.816406 15.695313 20.003906 15.359375 20 15L20 2L21.25 2C21.347656 2.695313 21.65625 4.894531 22.0625 7.96875C22.296875 9.730469 22.542969 11.550781 22.71875 13.03125C22.894531 14.511719 23 15.734375 23 16C23 16.066406 22.835938 16.605469 22.5 17.1875C22.164063 17.769531 21.703125 18.445313 21.21875 19.0625C20.253906 20.296875 19.28125 21.3125 19.28125 21.3125C19.09375 21.503906 18.992188 21.765625 19 22.03125L20 46C20 46.011719 20 46.019531 20 46.03125C19.992188 46.710938 19.730469 47.097656 19.21875 47.4375C18.699219 47.785156 17.878906 48 17 48C16.121094 48 15.300781 47.785156 14.78125 47.4375C14.269531 47.097656 14.007813 46.710938 14 46.03125L14 46L15 22.03125C15.007813 21.765625 14.90625 21.503906 14.71875 21.3125C14.71875 21.3125 13.746094 20.285156 12.78125 19.0625C12.300781 18.449219 11.835938 17.800781 11.5 17.21875C11.164063 16.636719 11 16.101563 11 16C11 15.707031 11.105469 14.484375 11.28125 13C11.457031 11.515625 11.703125 9.695313 11.9375 7.9375C12.347656 4.863281 12.652344 2.675781 12.75 2 Z M 38 2C38.546875 2 38.589844 2.082031 38.71875 2.28125C38.847656 2.480469 39 2.984375 39 3.8125L39 46C39 46.78125 38.792969 47.160156 38.40625 47.46875C38.019531 47.777344 37.363281 48 36.5 48C35.636719 48 35.011719 47.777344 34.625 47.46875C34.238281 47.160156 34 46.777344 34 46C34 36.75 36 31.980469 36 27C36 26.15625 35.640625 25.472656 35.25 24.71875C34.859375 23.964844 34.382813 23.121094 33.90625 22.0625C32.953125 19.949219 32 16.953125 32 12.15625C32 9.414063 33.136719 6.800781 34.53125 4.90625C35.226563 3.957031 35.996094 3.191406 36.65625 2.6875C37.316406 2.183594 37.910156 2 38 2Z" />
</svg>