<?xml version="1.0" encoding="utf-8"?>
<svg xmlns="http://www.w3.org/2000/svg" viewBox="0 0 50 50" width="515" height="515">
  <path d="M25 2C12.264481 2 2 12.264481 2 25C2 37.735519 12.264481 48 25 48C37.735519 48 48 37.735519 48 25C48 12.264481 37.735519 2 25 2 z M 25 4C36.664481 4 46 13.335519 46 25C46 36.664481 36.664481 46 25 46C13.335519 46 4 36.664481 4 25C4 13.335519 13.335519 4 25 4 z M 21.046875 21.990234 A 1.0001 1.0001 0 0 0 20.269531 22.316406C16.247392 26.619159 12.126953 26.007812 12.126953 26.007812 A 1.000277 1.000277 0 0 0 11.873047 27.992188C11.873047 27.992188 17.152608 28.580841 21.730469 23.683594 A 1.0001 1.0001 0 0 0 21.046875 21.990234 z M 29.023438 21.990234 A 1.0001 1.0001 0 0 0 28.269531 23.683594C32.847392 28.580841 38.126953 27.992188 38.126953 27.992188 A 1.000277 1.000277 0 0 0 37.873047 26.007812C37.873047 26.007812 33.752608 26.619159 29.730469 22.316406 A 1.0001 1.0001 0 0 0 29.023438 21.990234 z M 25 33C19.333333 33 16.142578 38.486328 16.142578 38.486328 A 1.0001 1.0001 0 1 0 17.857422 39.513672C17.857422 39.513672 20.666667 35 25 35C29.333333 35 32.142578 39.513672 32.142578 39.513672 A 1.0001 1.0001 0 1 0 33.857422 38.486328C33.857422 38.486328 30.666667 33 25 33 z" />
</svg>