<?xml version="1.0" encoding="utf-8"?>
<svg xmlns="http://www.w3.org/2000/svg" viewBox="0 0 50 50" width="515" height="515">
  <path d="M7 2C5.355469 2 4 3.355469 4 5L4 6.117188L0.398438 9L4 11.878906L4 13C4 14.644531 5.355469 16 7 16L37 16C38.644531 16 40 14.644531 40 13L40 5C40 3.355469 38.644531 2 37 2 Z M 7 4L37 4C37.566406 4 38 4.433594 38 5L38 13C38 13.566406 37.566406 14 37 14L7 14C6.433594 14 6 13.566406 6 13L6 10.921875L3.601563 9L6 7.078125L6 5C6 4.433594 6.433594 4 7 4 Z M 11 8C10.449219 8 10 8.449219 10 9C10 9.550781 10.449219 10 11 10C11.550781 10 12 9.550781 12 9C12 8.449219 11.550781 8 11 8 Z M 15 8C14.449219 8 14 8.449219 14 9C14 9.550781 14.449219 10 15 10C15.550781 10 16 9.550781 16 9C16 8.449219 15.550781 8 15 8 Z M 19 8C18.449219 8 18 8.449219 18 9C18 9.550781 18.449219 10 19 10C19.550781 10 20 9.550781 20 9C20 8.449219 19.550781 8 19 8 Z M 23 8C22.449219 8 22 8.449219 22 9C22 9.550781 22.449219 10 23 10C23.550781 10 24 9.550781 24 9C24 8.449219 23.550781 8 23 8 Z M 27 8C26.449219 8 26 8.449219 26 9C26 9.550781 26.449219 10 27 10C27.550781 10 28 9.550781 28 9C28 8.449219 27.550781 8 27 8 Z M 11 18C9.355469 18 8 19.355469 8 21L8 22.121094L4.398438 25L8 27.878906L8 29C8 30.644531 9.355469 32 11 32L41 32C42.644531 32 44 30.644531 44 29L44 21C44 19.355469 42.644531 18 41 18 Z M 11 20L41 20C41.566406 20 42 20.433594 42 21L42 29C42 29.566406 41.566406 30 41 30L11 30C10.433594 30 10 29.566406 10 29L10 26.921875L7.601563 25L10 23.078125L10 21C10 20.433594 10.433594 20 11 20 Z M 15 24C14.449219 24 14 24.449219 14 25C14 25.550781 14.449219 26 15 26C15.550781 26 16 25.550781 16 25C16 24.449219 15.550781 24 15 24 Z M 19 24C18.449219 24 18 24.449219 18 25C18 25.550781 18.449219 26 19 26C19.550781 26 20 25.550781 20 25C20 24.449219 19.550781 24 19 24 Z M 23 24C22.449219 24 22 24.449219 22 25C22 25.550781 22.449219 26 23 26C23.550781 26 24 25.550781 24 25C24 24.449219 23.550781 24 23 24 Z M 15 34C13.355469 34 12 35.355469 12 37L12 38.121094L8.398438 41L12 43.878906L12 45C12 46.644531 13.355469 48 15 48L45 48C46.644531 48 48 46.644531 48 45L48 37C48 35.355469 46.644531 34 45 34 Z M 15 36L45 36C45.566406 36 46 36.433594 46 37L46 45C46 45.566406 45.566406 46 45 46L15 46C14.433594 46 14 45.566406 14 45L14 42.921875L11.601563 41L14 39.078125L14 37C14 36.433594 14.433594 36 15 36 Z M 19 40C18.449219 40 18 40.449219 18 41C18 41.550781 18.449219 42 19 42C19.550781 42 20 41.550781 20 41C20 40.449219 19.550781 40 19 40 Z M 23 40C22.449219 40 22 40.449219 22 41C22 41.550781 22.449219 42 23 42C23.550781 42 24 41.550781 24 41C24 40.449219 23.550781 40 23 40 Z M 27 40C26.449219 40 26 40.449219 26 41C26 41.550781 26.449219 42 27 42C27.550781 42 28 41.550781 28 41C28 40.449219 27.550781 40 27 40 Z M 31 40C30.449219 40 30 40.449219 30 41C30 41.550781 30.449219 42 31 42C31.550781 42 32 41.550781 32 41C32 40.449219 31.550781 40 31 40 Z M 35 40C34.449219 40 34 40.449219 34 41C34 41.550781 34.449219 42 35 42C35.550781 42 36 41.550781 36 41C36 40.449219 35.550781 40 35 40 Z M 39 40C38.449219 40 38 40.449219 38 41C38 41.550781 38.449219 42 39 42C39.550781 42 40 41.550781 40 41C40 40.449219 39.550781 40 39 40Z" />
</svg>