<?xml version="1.0" encoding="utf-8"?>
<svg xmlns="http://www.w3.org/2000/svg" viewBox="0 0 50 50" width="515" height="515">
  <path d="M43.28125 2.28125L38.5625 7L36.3125 4.75C35.144531 3.582031 33.601563 3 32.0625 3C30.523438 3 29.011719 3.582031 27.84375 4.75L23 9.5625L21.71875 8.28125C21.476563 8.03125 21.121094 7.925781 20.78125 8C20.40625 8.066406 20.105469 8.339844 20 8.703125C19.894531 9.070313 20.003906 9.460938 20.28125 9.71875L25.0625 14.5L18.9375 20.65625L20.34375 22.0625L26.5 15.9375L34.0625 23.5L27.9375 29.65625L29.34375 31.0625L35.5 24.9375L40.28125 29.71875C40.679688 30.117188 41.320313 30.117188 41.71875 29.71875C42.117188 29.320313 42.117188 28.679688 41.71875 28.28125L40.4375 27L45.21875 22.15625C47.554688 19.820313 47.554688 15.992188 45.21875 13.65625L43 11.4375L47.71875 6.71875L46.28125 5.28125L41.5625 10L40 8.4375L44.71875 3.71875 Z M 32.0625 4.96875C33.085938 4.96875 34.121094 5.371094 34.90625 6.15625L43.8125 15.0625C45.382813 16.632813 45.382813 19.148438 43.8125 20.71875L43.8125 20.75L39 25.5625L24.4375 11L29.25 6.15625C30.035156 5.371094 31.039063 4.96875 32.0625 4.96875 Z M 8.90625 19.96875C8.863281 19.976563 8.820313 19.988281 8.78125 20C8.40625 20.066406 8.105469 20.339844 8 20.703125C7.894531 21.070313 8.003906 21.460938 8.28125 21.71875L9.5625 23L4.75 27.84375C2.414063 30.179688 2.414063 33.976563 4.75 36.3125L7 38.5625L2.28125 43.28125L3.71875 44.71875L8.4375 40L10 41.5625L5.28125 46.28125L6.71875 47.71875L11.4375 43L13.6875 45.25C16.023438 47.585938 19.820313 47.585938 22.15625 45.25L27 40.4375L28.28125 41.71875C28.679688 42.117188 29.320313 42.117188 29.71875 41.71875C30.117188 41.320313 30.117188 40.679688 29.71875 40.28125L9.71875 20.28125C9.511719 20.058594 9.210938 19.945313 8.90625 19.96875 Z M 11 24.4375L25.5625 39L20.75 43.84375C19.179688 45.414063 16.664063 45.414063 15.09375 43.84375L6.15625 34.90625C4.585938 33.335938 4.585938 30.820313 6.15625 29.25Z" />
</svg>