<?xml version="1.0" encoding="utf-8"?>
<svg xmlns="http://www.w3.org/2000/svg" viewBox="0 0 50 50" width="515" height="515">
  <path d="M33.5 0C30.472656 0 28 2.472656 28 5.5C28 8.527344 30.472656 11 33.5 11C36.527344 11 39 8.527344 39 5.5C39 2.472656 36.527344 0 33.5 0 Z M 33.5 11L32.59375 11C29.832031 11 27.316406 12.484375 25.9375 14.78125C25.925781 14.792969 25.917969 14.800781 25.90625 14.8125L23.09375 20L17.09375 20C15.628906 20 14.328125 21.023438 14.03125 22.5C14.019531 22.519531 14.007813 22.542969 14 22.5625C13.710938 24.433594 15.246094 26 17 26L24.8125 26C25.863281 26 26.832031 25.445313 27.34375 24.5L27.375 24.5C27.386719 24.480469 27.394531 24.457031 27.40625 24.4375L28.125 23.21875L29 48C29 48.011719 29 48.019531 29 48.03125C29.007813 48.597656 29.253906 49.066406 29.59375 49.40625C29.9375 49.75 30.417969 50 31 50L36.09375 50C37.117188 50 38.074219 49.171875 38.09375 48.03125C38.09375 48.019531 38.09375 48.011719 38.09375 48L38.46875 35L38.6875 35C40.222656 35 41.5 33.722656 41.5 32.1875L41.5 17.40625C41.5 13.800781 38.617188 10.902344 35 11 Z M 33.5 2C35.445313 2 37 3.554688 37 5.5C37 7.445313 35.445313 9 33.5 9C31.554688 9 30 7.445313 30 5.5C30 3.554688 31.554688 2 33.5 2 Z M 32.59375 13L35 13C35.011719 13 35.019531 13 35.03125 13C37.597656 12.917969 39.5 14.824219 39.5 17.40625L39.5 32.1875C39.5 32.652344 39.152344 33 38.6875 33L37.5 33C36.960938 33 36.515625 33.429688 36.5 33.96875L36.09375 47.96875C36.09375 47.980469 36.09375 47.988281 36.09375 48L31 48C31 47.988281 31 47.980469 31 47.96875L30 19.65625C29.992188 19.203125 29.683594 18.8125 29.242188 18.703125C28.804688 18.589844 28.34375 18.792969 28.125 19.1875L25.625 23.5C25.613281 23.519531 25.601563 23.542969 25.59375 23.5625C25.492188 23.765625 25.132813 24 24.8125 24L17 24C16.355469 24 15.886719 23.574219 16 22.84375C16.132813 22.359375 16.585938 22 17.09375 22L23.6875 22C24.066406 22.007813 24.417969 21.804688 24.59375 21.46875L27.65625 15.8125C27.664063 15.800781 27.679688 15.792969 27.6875 15.78125C28.714844 14.101563 30.570313 13 32.59375 13 Z M 16 27.5C15.5 27.5 14.992188 27.695313 14.59375 28.09375L13.09375 29.59375C12.292969 30.394531 12.292969 31.605469 13.09375 32.40625L14.59375 33.90625C14.992188 34.304688 15.5 34.5 16 34.5C16.5 34.5 17.007813 34.304688 17.40625 33.90625L18.90625 32.40625C19.707031 31.605469 19.707031 30.394531 18.90625 29.59375L17.40625 28.09375C17.007813 27.695313 16.5 27.5 16 27.5 Z M 16 29.5L17.5 31L16 32.5L14.5 31 Z M 7.875 30.96875C7.84375 30.976563 7.8125 30.988281 7.78125 31C7.265625 31.109375 6.921875 31.601563 7 32.125L8.90625 48.21875L8.90625 48.28125C9.085938 49.183594 9.871094 50 10.90625 50L19.09375 50C20.128906 50 20.914063 49.183594 21.09375 48.28125L21.09375 48.21875L23 32.125C23.070313 31.574219 22.675781 31.070313 22.125 31C21.574219 30.929688 21.070313 31.324219 21 31.875L19.09375 47.96875C19.09375 47.972656 19.082031 48 19.09375 48L10.90625 48C10.917969 48 10.90625 47.972656 10.90625 47.96875L9 31.875C8.976563 31.601563 8.84375 31.351563 8.632813 31.183594C8.417969 31.011719 8.144531 30.933594 7.875 30.96875 Z M 13 36C11.898438 36 11 36.898438 11 38L11 40C11 41.101563 11.898438 42 13 42L15 42C16.101563 42 17 41.101563 17 40L17 38C17 36.898438 16.101563 36 15 36 Z M 13 38L15 38L15 40L13 40Z" />
</svg>