<?xml version="1.0" encoding="utf-8"?>
<svg xmlns="http://www.w3.org/2000/svg" width="515" height="515" viewBox="0 0 50 50">
  <path d="M19 5C17.354937 5 16 6.3549372 16 8L16 11L3 11C1.3549372 11 0 12.354937 0 14L0 19.832031 A 1.0001 1.0001 0 0 0 0 20.158203L0 42C0 43.645063 1.3549372 45 3 45L47 45C48.645063 45 50 43.645063 50 42L50 20.167969 A 1.0001 1.0001 0 0 0 50 19.841797L50 14C50 12.354937 48.645063 11 47 11L34 11L34 8C34 6.3549372 32.645063 5 31 5L19 5 z M 19 7L31 7C31.562937 7 32 7.4370628 32 8L32 11L18 11L18 8C18 7.4370628 18.437063 7 19 7 z M 3 13L47 13C47.562937 13 48 13.437063 48 14L48 19L44 19C44 17.908145 43.093084 17 42 17L38 17C36.906916 17 36 17.908145 36 19L14 19C14 17.908145 13.093084 17 12 17L8 17C6.9069156 17 6 17.908145 6 19L2 19L2 14C2 13.437063 2.4370628 13 3 13 z M 8 19L12 19L12 19.832031 A 1.0001 1.0001 0 0 0 12 20.158203L12 21L8 21L8 20.167969 A 1.0001 1.0001 0 0 0 8 19.841797L8 19 z M 38 19L42 19L42 19.832031 A 1.0001 1.0001 0 0 0 42 20.158203L42 21L38 21L38 20.167969 A 1.0001 1.0001 0 0 0 38 19.841797L38 19 z M 2 21L6 21C6 22.091855 6.9069156 23 8 23L12 23C13.093084 23 14 22.091855 14 21L36 21C36 22.091855 36.906916 23 38 23L42 23C43.093084 23 44 22.091855 44 21L48 21L48 42C48 42.562937 47.562937 43 47 43L3 43C2.4370628 43 2 42.562937 2 42L2 21 z M 23 25L23 29L19 29L19 33L23 33L23 37L27 37L27 33L31 33L31 29L27 29L27 25L23 25 z" />
</svg>