<?xml version="1.0" encoding="utf-8"?>
<svg xmlns="http://www.w3.org/2000/svg" viewBox="0 0 50 50" width="515" height="515">
  <path d="M45 3C43.894531 3 43 3.894531 43 5C43 6.105469 43.894531 7 45 7C46.105469 7 47 6.105469 47 5C47 3.894531 46.105469 3 45 3 Z M 32.875 3.8125C32.820313 3.820313 32.769531 3.828125 32.71875 3.84375L28.34375 5.1875C26.902344 4.835938 25.492188 5.125 24.4375 5.59375C23.242188 6.125 22.40625 6.8125 22.40625 6.8125C22.144531 7.019531 22.003906 7.339844 22.027344 7.675781C22.050781 8.007813 22.242188 8.304688 22.53125 8.46875L26.40625 10.59375L24.4375 14.5L10.78125 23.3125L7.25 22.875C5.886719 22.707031 4.605469 23.648438 4.375 25C4.132813 26.417969 5.140625 27.789063 6.5625 28L8.71875 28.3125C8.820313 28.867188 9.070313 29.972656 9.8125 31.28125L3.0625 37.59375C1.679688 38.890625 1.664063 41.09375 3.03125 42.40625C4.28125 43.609375 6.273438 43.652344 7.5625 42.5C7.480469 42.664063 7.421875 42.78125 7.34375 42.9375C6.488281 44.671875 7.230469 46.8125 8.96875 47.65625L9.03125 47.65625C10.710938 48.453125 12.761719 47.785156 13.59375 46.125C15.808594 41.710938 20.597656 32.273438 20.78125 31.90625C21.386719 31.671875 25.617188 29.972656 30.375 26.3125L43.875 29.1875C45.652344 29.566406 47.464844 28.503906 47.9375 26.75C48.445313 24.875 47.269531 22.898438 45.375 22.46875L42.40625 21.8125L44.21875 21.5625C44.230469 21.5625 44.238281 21.5625 44.25 21.5625C46.085938 21.257813 47.320313 19.445313 46.9375 17.625C46.570313 15.875 44.847656 14.726563 43.09375 15.0625L34.125 16.71875L35.15625 13.6875L40.46875 10.875C40.792969 10.703125 40.996094 10.367188 41 10L41 6.40625C41.003906 5.898438 40.628906 5.46875 40.125 5.40625L36.15625 4.90625L33.34375 3.875C33.195313 3.816406 33.035156 3.796875 32.875 3.8125 Z M 32.96875 5.875L35.4375 6.78125C35.507813 6.808594 35.582031 6.832031 35.65625 6.84375L39 7.25L39 9.40625L33.875 12.125C33.640625 12.242188 33.460938 12.441406 33.375 12.6875L32 16.65625C31.867188 17.050781 31.992188 17.484375 32.3125 17.75C32.3125 17.75 33.773438 19.050781 33.625 21C33.582031 21.5 33.917969 21.953125 34.40625 22.0625L44.90625 24.4375C45.71875 24.621094 46.21875 25.414063 46 26.21875C45.796875 26.96875 45.070313 27.410156 44.3125 27.25L30.375 24.28125C30.078125 24.210938 29.769531 24.28125 29.53125 24.46875C24.542969 28.410156 19.65625 30.21875 19.65625 30.21875C19.410156 30.304688 19.210938 30.484375 19.09375 30.71875C19.09375 30.71875 14.070313 40.714844 11.8125 45.21875C11.457031 45.929688 10.605469 46.230469 9.875 45.875L9.84375 45.84375C9.078125 45.472656 8.75 44.574219 9.125 43.8125C10.835938 40.347656 13.90625 34.125 13.90625 34.125C14.117188 33.710938 14.011719 33.203125 13.65625 32.90625C10.953125 30.675781 10.5 27.3125 10.5 27.3125C10.449219 26.863281 10.101563 26.503906 9.65625 26.4375L6.84375 26.03125C6.507813 25.980469 6.285156 25.679688 6.34375 25.34375C6.398438 25.023438 6.679688 24.804688 7 24.84375L10.90625 25.34375C11.136719 25.371094 11.367188 25.3125 11.5625 25.1875L25.75 16.03125C25.910156 15.933594 26.039063 15.792969 26.125 15.625L28.625 10.625C28.859375 10.148438 28.679688 9.574219 28.21875 9.3125L25.03125 7.5625C25.148438 7.503906 25.125 7.492188 25.25 7.4375C26.195313 7.015625 27.324219 6.785156 28.1875 7.125C28.398438 7.199219 28.632813 7.199219 28.84375 7.125 Z M 34 7C33.449219 7 33 7.449219 33 8C33 8.550781 33.449219 9 34 9C34.550781 9 35 8.550781 35 8C35 7.449219 34.550781 7 34 7 Z M 43.71875 17C44.316406 17 44.839844 17.414063 44.96875 18.03125C45.121094 18.753906 44.652344 19.417969 43.9375 19.5625L36.75 20.5625L35.53125 20.28125C35.472656 19.609375 35.332031 19.039063 35.15625 18.5625L43.4375 17.03125C43.449219 17.03125 43.457031 17.03125 43.46875 17.03125C43.558594 17.015625 43.632813 17 43.71875 17 Z M 10.96875 32.90625C11.226563 33.21875 11.492188 33.527344 11.8125 33.84375C11.675781 34.121094 10.648438 36.207031 10 37.53125L6.21875 41C5.695313 41.480469 4.921875 41.460938 4.40625 40.96875C3.847656 40.429688 3.871094 39.5625 4.4375 39.03125Z" />
</svg>