<?xml version="1.0" encoding="utf-8"?>
<svg xmlns="http://www.w3.org/2000/svg" viewBox="0 0 50 50" width="515" height="515">
  <path d="M34 0C29.570313 0 26 3.570313 26 8C26 9.820313 26.738281 11.492188 27.8125 12.875L12.875 27.8125C11.519531 26.75 9.890625 26 8 26C3.570313 26 0 29.570313 0 34C0 38.429688 3.570313 42 8 42C8 46.429688 11.570313 50 16 50C20.429688 50 24 46.429688 24 42C24 40.179688 23.261719 38.507813 22.1875 37.125L37.125 22.1875C38.480469 23.25 40.109375 24 42 24C46.429688 24 50 20.429688 50 16C50 11.570313 46.429688 8 42 8C42 3.570313 38.429688 0 34 0 Z M 34 2C37.371094 2 40 4.628906 40 8C40 8.234375 39.90625 8.527344 39.90625 9.09375C39.90625 9.644531 40.355469 10.09375 40.90625 10.09375C41.472656 10.09375 41.765625 10 42 10C45.371094 10 48 12.628906 48 16C48 19.371094 45.371094 22 42 22C40.265625 22 38.855469 21.324219 37.71875 20.1875C37.53125 19.992188 37.269531 19.882813 37 19.882813C36.730469 19.882813 36.46875 19.992188 36.28125 20.1875L20.1875 36.28125C19.992188 36.46875 19.882813 36.730469 19.882813 37C19.882813 37.269531 19.992188 37.53125 20.1875 37.71875C21.304688 38.835938 22 40.378906 22 42C22 45.371094 19.371094 48 16 48C12.628906 48 10 45.371094 10 42C10 41.765625 10.09375 41.472656 10.09375 40.90625C10.09375 40.355469 9.644531 39.90625 9.09375 39.90625C8.527344 39.90625 8.234375 40 8 40C4.628906 40 2 37.371094 2 34C2 30.628906 4.628906 28 8 28C9.734375 28 11.144531 28.675781 12.28125 29.8125C12.46875 30.007813 12.730469 30.117188 13 30.117188C13.269531 30.117188 13.53125 30.007813 13.71875 29.8125L29.8125 13.71875C30.007813 13.53125 30.117188 13.269531 30.117188 13C30.117188 12.730469 30.007813 12.46875 29.8125 12.28125C28.695313 11.164063 28 9.621094 28 8C28 4.628906 30.628906 2 34 2Z" />
</svg>