<?xml version="1.0" encoding="utf-8"?>
<svg xmlns="http://www.w3.org/2000/svg" viewBox="0 0 50 50" width="515" height="515">
  <path d="M12 2C9.2504209 2 7 4.2504209 7 7C7 9.7495791 9.2504209 12 12 12C14.749579 12 17 9.7495791 17 7C17 4.2504209 14.749579 2 12 2 z M 12 4C13.668699 4 15 5.3313011 15 7C15 8.6686989 13.668699 10 12 10C10.331301 10 9 8.6686989 9 7C9 5.3313011 10.331301 4 12 4 z M 7.5 13C4.4744232 13 2 15.474423 2 18.5L2 31 A 1.0001 1.0001 0 0 0 2.0214844 31.216797C2.1359887 32.760669 3.4291225 34 5 34C5.3518425 34 5.6851085 33.92606 6 33.8125L6 44.5C6 46.421188 7.5788117 48 9.5 48C10.476925 48 11.362705 47.58945 12 46.935547C12.637295 47.58945 13.523075 48 14.5 48C16.421188 48 18 46.421188 18 44.5L18 19L29 19C30.64497 19 32 17.64497 32 16C32 14.428461 30.759624 13.135033 29.214844 13.021484 A 1.0001 1.0001 0 0 0 29 13L15 13 A 1.0001 1.0001 0 0 0 14.105469 13.552734L12 17.763672L9.8945312 13.552734 A 1.0001 1.0001 0 0 0 9 13L8.4003906 13L7.5 13 z M 7.5 15L8.3828125 15L11.105469 20.447266 A 1.0001 1.0001 0 0 0 12.894531 20.447266L15.617188 15L29 15C29.56503 15 30 15.43497 30 16C30 16.56503 29.56503 17 29 17L17 17 A 1.0001 1.0001 0 0 0 16 18L16 44.5C16 45.340812 15.340812 46 14.5 46C13.659188 46 13 45.340812 13 44.5L13 34 A 1.0001 1.0001 0 0 0 11.984375 32.986328 A 1.0001 1.0001 0 0 0 11 34L11 44.5C11 45.340812 10.340812 46 9.5 46C8.6591883 46 8 45.340812 8 44.5L8 21 A 1.0001 1.0001 0 0 0 6.984375 19.986328 A 1.0001 1.0001 0 0 0 6 21L6 31C6 31.56503 5.5650302 32 5 32C4.4349698 32 4 31.56503 4 31L4 18.5C4 16.555577 5.5555768 15 7.5 15 z M 32.244141 20.277344L32.011719 21.853516C32.011719 21.853516 31.876778 22.754663 31.759766 23.539062C31.011486 23.759276 30.348133 24.069317 29.882812 24.572266C29.408832 25.084577 29.195727 25.733162 29.097656 26.398438C29.053476 26.427837 29.025336 26.446689 28.974609 26.480469C28.692567 26.668309 28.318113 26.917883 27.943359 27.167969C27.193853 27.66814 26.445313 28.167969 26.445312 28.167969L26.064453 28.421875L26.007812 28.875C26.007812 28.875 25.965763 29.345815 26.001953 30.003906C26.003753 30.668365 26.356693 31.264971 26.767578 31.576172C27.179529 31.888151 27.580687 32 28 32L30.148438 32C30.304841 33.201453 31.13992 38.759256 32.822266 43.449219C32.571002 43.570913 32.228756 43.567909 32.042969 43.746094C31.576362 44.193606 31.334616 44.734727 31.193359 45.220703C30.910845 46.192656 31.003906 47.085937 31.003906 47.085938L31.082031 48L43.050781 48C43.836412 48 44.540442 47.699766 45.003906 47.248047C45.46737 46.796328 45.702379 46.251109 45.835938 45.763672C45.855574 45.692006 45.861231 45.628591 45.876953 45.558594C46.324031 45.138396 47.255172 44.132117 47.705078 42.669922C48.308935 40.707386 47.846324 37.903837 44.640625 35.232422L43.359375 36.767578C46.153676 39.096163 46.191065 40.792614 45.794922 42.080078C45.773736 42.148932 45.745227 42.211049 45.720703 42.277344C45.537853 41.685642 45.277049 41.131337 44.964844 40.605469C44.367666 39.599602 43.617196 38.642446 42.835938 37.451172C41.268642 35.061338 39.933113 32.619422 39.90625 32.570312C39.89095 32.535112 37.546816 27.146221 36.972656 24.765625C36.830161 24.17514 36.511228 23.778038 36.166016 23.384766C35.820803 22.991494 35.424306 22.627778 35.042969 22.304688C34.280294 21.658507 33.5625 21.171875 33.5625 21.171875L32.244141 20.277344 z M 33.738281 23.822266C33.743981 23.827066 33.74428 23.825278 33.75 23.830078C34.083913 24.112988 34.41876 24.42785 34.662109 24.705078C34.905459 24.982306 35.030839 25.24886 35.027344 25.234375C35.723311 28.120012 38.083984 33.404297 38.083984 33.404297L38.101562 33.441406L38.123047 33.478516C38.123047 33.478516 39.523035 36.046567 41.164062 38.548828C41.994805 39.815554 42.744318 40.783116 43.244141 41.625C43.743965 42.466895 44 43.139594 44 44L44 44.050781L44.005859 44.101562C44.005859 44.101562 44.05014 44.711201 43.90625 45.236328C43.83431 45.498891 43.723036 45.703672 43.609375 45.814453C43.495674 45.925236 43.39315 46 43.050781 46L33.089844 46C33.107044 45.896293 33.083441 45.882029 33.113281 45.779297C33.190021 45.515273 33.307841 45.306394 33.427734 45.191406C33.547625 45.076419 33.657631 45 34 45L37 45L37 44C37 44 37.01379 43.458752 37.269531 42.947266C37.525274 42.43578 37.833333 42 39 42L39 40C37.166667 40 35.974726 41.06422 35.480469 42.052734C35.239995 42.533683 35.306167 42.640148 35.246094 43L34.759766 43C32.992192 38.195659 31.992188 30.875 31.992188 30.875L31.882812 30L28 30L28 29.966797L27.998047 29.933594C27.978727 29.64691 27.992894 29.66606 27.996094 29.537109C28.261406 29.359911 28.524497 29.184542 29.052734 28.832031C29.427231 28.582117 29.802965 28.331691 30.083984 28.144531C30.224494 28.050951 30.340452 27.973934 30.421875 27.919922C30.460045 27.894602 30.489426 27.874718 30.509766 27.861328C30.502766 27.865428 30.46864 27.882872 30.46875 27.882812C30.468828 27.882772 30.503667 27.862996 30.529297 27.847656C30.541187 27.840556 30.556641 27.830078 30.556641 27.830078L31 28L31 27C31 26.48969 31.114325 26.183997 31.349609 25.929688C31.584893 25.675376 32.014289 25.425863 32.816406 25.294922L33.537109 25.177734L33.644531 24.457031C33.693191 24.132346 33.694391 24.116494 33.738281 23.822266 z" />
</svg>