<?xml version="1.0" encoding="utf-8"?>
<svg xmlns="http://www.w3.org/2000/svg" viewBox="0 0 50 50" width="515" height="515">
  <path d="M16.839844 2.015625C16.558594 2.035156 16.289063 2.105469 16.058594 2.222656C15.128906 2.691406 14.753906 3.5625 14.597656 4.34375C14.417969 5.25 14.625 6.035156 14.640625 7.125C14.660156 8.214844 14.5625 9.449219 14.078125 10.613281L14.140625 10.640625C13.554688 11.046875 12.855469 11.492188 11.9375 12C7.949219 14.21875 5.484375 18.054688 4.003906 21.625C2.523438 25.191406 2 28.441406 2 30C2 32.976563 1.945313 38.472656 7.242188 44.652344C10.5625 48.523438 16.035156 49.230469 20.996094 48.828125C25.957031 48.429688 30.460938 46.949219 32.46875 45.882813C39.144531 42.34375 43.128906 37.707031 45.261719 33.523438C46.074219 31.921875 46.617188 30.386719 46.941406 28.996094C46.941406 28.988281 46.945313 28.984375 46.945313 28.980469C46.949219 28.964844 46.953125 28.949219 46.957031 28.933594C46.957031 28.933594 47.023438 28.671875 47.082031 28.269531C47.113281 28.101563 47.160156 27.925781 47.183594 27.761719C47.4375 26.066406 47.371094 24.675781 46.921875 23.609375C45.265625 19.714844 46 17.382813 46 15C46 13.636719 45.417969 11.773438 44.777344 9.90625C44.136719 8.039063 43.492188 6.40625 43.011719 5.601563C42.628906 4.960938 42.101563 4.1875 41.257813 3.6875C40.835938 3.433594 40.277344 3.253906 39.683594 3.367188C39.089844 3.484375 38.566406 3.882813 38.1875 4.417969C37.738281 5.042969 36.496094 6.3125 35.414063 7.335938C34.535156 8.171875 34.035156 8.609375 33.765625 8.84375C32.980469 8.578125 30.246094 7.742188 26.65625 8.273438C26.554688 8.230469 26.445313 8.203125 26.339844 8.164063L26.375 8.070313C26.375 8.070313 22.195313 6.351563 19.238281 3.183594C18.746094 2.65625 18.246094 2.292969 17.6875 2.113281C17.410156 2.023438 17.121094 1.992188 16.839844 2.015625 Z M 16.953125 4.007813C16.988281 3.992188 16.964844 3.980469 17.078125 4.015625C17.1875 4.050781 17.441406 4.1875 17.777344 4.546875C18.855469 5.703125 20.046875 6.652344 21.175781 7.4375C20.304688 7.488281 19.457031 7.625 18.671875 7.859375C17.8125 8.121094 17.160156 8.476563 16.550781 8.882813C16.625 8.246094 16.648438 7.636719 16.640625 7.09375C16.621094 5.863281 16.554688 4.769531 16.5625 4.734375C16.628906 4.390625 16.890625 4.042969 16.953125 4.007813 Z M 40.0625 5.335938C40.058594 5.335938 40.09375 5.320313 40.234375 5.40625C40.519531 5.574219 41.003906 6.144531 41.296875 6.632813C41.492188 6.953125 42.269531 8.761719 42.886719 10.554688C43.5 12.347656 44 14.363281 44 15C44 16.609375 43.464844 19.074219 44.398438 22.417969C43.464844 21.941406 42.382813 21.675781 41.191406 21.738281C39.433594 21.832031 37.488281 22.601563 35.390625 24.207031C32.539063 26.394531 31.867188 27 28 27C27.640625 26.996094 27.304688 27.183594 27.121094 27.496094C26.941406 27.808594 26.941406 28.191406 27.121094 28.503906C27.304688 28.816406 27.640625 29.003906 28 29C32.132813 29 33.738281 27.992188 36.609375 25.792969C38.472656 24.363281 40.042969 23.800781 41.296875 23.734375C42.550781 23.671875 43.535156 24.070313 44.355469 24.765625C44.945313 25.265625 45.15625 26.109375 45.175781 26.9375C45.183594 27.328125 45.148438 27.679688 45.109375 27.945313C44.855469 29.308594 44.347656 30.90625 43.476563 32.613281C41.53125 36.4375 37.859375 40.761719 31.53125 44.117188C29.980469 44.9375 25.484375 46.460938 20.832031 46.835938C16.183594 47.210938 11.4375 46.476563 8.757813 43.347656C3.835938 37.605469 4 33.023438 4 30C4 29.136719 4.332031 26.773438 5.21875 24.113281C5.527344 24.25 5.929688 24.457031 6.40625 24.808594C6.855469 25.132813 7.480469 25.039063 7.808594 24.59375C8.132813 24.144531 8.039063 23.519531 7.59375 23.191406C6.964844 22.734375 6.375 22.445313 5.914063 22.253906C7.292969 18.984375 9.523438 15.628906 12.910156 13.75C14.902344 12.640625 16.046875 11.742188 16.902344 11.089844C17.757813 10.4375 18.261719 10.070313 19.246094 9.777344C21.238281 9.179688 23.988281 9.273438 26.234375 10.195313L26.496094 10.300781L26.777344 10.253906C30.394531 9.660156 33.691406 10.878906 33.691406 10.878906L34.253906 11.09375L34.707031 10.699219C34.707031 10.699219 35.675781 9.84375 36.789063 8.789063C37.066406 8.527344 37.34375 8.246094 37.625 7.96875C37.640625 10.539063 37.039063 12.722656 37.039063 12.722656L36.933594 13.097656L37.105469 13.449219C37.105469 13.449219 38.195313 15.714844 40.550781 16.894531C41.046875 17.140625 41.648438 16.941406 41.894531 16.449219C42.140625 15.953125 41.941406 15.351563 41.449219 15.105469C40.011719 14.386719 39.257813 13.136719 39.0625 12.796875C39.234375 12.152344 39.949219 9.332031 39.5 5.972656C39.605469 5.84375 39.726563 5.703125 39.8125 5.582031C39.996094 5.328125 40.066406 5.332031 40.0625 5.335938 Z M 12.5 19C11.25 19 10 20.875 10 20.875C10 20.875 10 23.6875 11.875 23.6875C13.75 23.6875 15 20.5625 15 20.5625C15 20.5625 13.75 19 12.5 19 Z M 12.5 19.761719C12.648438 19.761719 12.792969 19.800781 12.9375 19.855469C12.09375 20.105469 11.472656 20.882813 11.472656 21.808594C11.472656 22.222656 11.597656 22.605469 11.8125 22.925781C10.792969 22.683594 10.792969 21.042969 10.792969 21.042969C10.792969 21.042969 11.644531 19.761719 12.5 19.761719 Z M 24.847656 20C22.113281 20 22 22.65625 22 22.65625C22 22.65625 23.1875 25.242188 25.402344 24.980469C27.617188 24.71875 29 22.359375 29 22.359375C29 22.359375 29 22.097656 27.890625 21.046875C26.785156 20 25.65625 20 24.847656 20 Z M 24.324219 20.792969C24.484375 20.792969 24.671875 20.792969 24.875 20.839844C24.035156 21.492188 23.648438 22.046875 23.511719 23.46875C23.128906 22.984375 22.875 22.699219 22.875 22.699219C22.875 22.699219 23.269531 20.792969 24.324219 20.792969 Z M 9.226563 26.074219C8.40625 26.117188 7.410156 26.589844 7.148438 28.144531C6.890625 29.703125 8.445313 32.03125 9.742188 32.03125C9.742188 32.03125 10.164063 32.164063 11.199219 31.90625C12.234375 31.644531 14.152344 30.21875 14.925781 28.144531C15.707031 26.074219 10.542969 26.003906 9.226563 26.074219 Z M 10.375 33.042969C8.8125 32.964844 7.5625 34.5625 7.5625 34.5625C7.5625 34.5625 9.457031 35.765625 11.375 36.207031C19.230469 38.015625 21.8125 34.625 21.8125 34.625C21.8125 34.625 18.570313 35.65625 15.007813 35.230469C12.871094 34.972656 11.621094 33.105469 10.375 33.042969 Z M 10.703125 37.804688C10.296875 37.804688 9.933594 38.054688 9.78125 38.429688C9.628906 38.808594 9.722656 39.242188 10.015625 39.523438C10.988281 40.492188 12.644531 41.238281 14.558594 41.238281C14.917969 41.242188 15.253906 41.054688 15.433594 40.742188C15.617188 40.429688 15.617188 40.046875 15.433594 39.734375C15.253906 39.421875 14.917969 39.234375 14.558594 39.238281C13.230469 39.238281 11.878906 38.558594 11.421875 38.105469C11.234375 37.914063 10.976563 37.804688 10.703125 37.804688Z" />
</svg>