<?xml version="1.0" encoding="utf-8"?>
<svg xmlns="http://www.w3.org/2000/svg" viewBox="0 0 50 50" width="515" height="515">
  <path d="M30.59375 0.09375C30.4375 0.109375 30.289063 0.164063 30.15625 0.25C29.820313 0.464844 28.5 1.054688 26.875 1.65625C25.25 2.257813 23.25 2.945313 21.28125 3.625C19.3125 4.304688 17.359375 4.984375 15.8125 5.5625C15.039063 5.851563 14.382813 6.109375 13.84375 6.34375C13.304688 6.578125 12.941406 6.710938 12.5625 7.03125C12.054688 7.460938 11.519531 8.152344 10.8125 9.09375C10.105469 10.035156 9.300781 11.179688 8.53125 12.375C7.761719 13.570313 7.019531 14.8125 6.46875 15.90625C5.917969 17 5.5 17.859375 5.5 18.8125C5.5 19.210938 5.574219 19.308594 5.65625 19.625C5.738281 19.941406 5.855469 20.34375 6 20.8125C6.292969 21.75 6.6875 22.976563 7.1875 24.3125C8.117188 26.792969 9.324219 29.660156 10.625 31.90625C8.953125 33.816406 8 36.289063 8 39C8 45.046875 12.953125 50 19 50C25.046875 50 30 45.046875 30 39C30 36.039063 28.84375 33.308594 26.9375 31.34375C27.777344 30.964844 29.046875 30.507813 30.53125 29.875C32.621094 28.984375 35.117188 27.664063 37.34375 25.28125C39.625 22.832031 40.675781 19.300781 41.78125 16.09375C42.886719 12.886719 44.0625 10.046875 45.875 8.8125C46.285156 8.523438 46.417969 7.976563 46.1875 7.53125C44.78125 4.835938 41.71875 3.101563 38.65625 1.90625C35.59375 0.710938 32.527344 0.09375 30.6875 0.09375C30.65625 0.09375 30.625 0.09375 30.59375 0.09375 Z M 30.84375 2.125C32.253906 2.152344 35.171875 2.671875 37.9375 3.75C40.492188 4.746094 42.726563 6.261719 43.90625 7.9375C41.925781 9.789063 40.890625 12.589844 39.90625 15.4375C38.789063 18.679688 37.695313 21.953125 35.875 23.90625C33.898438 26.023438 31.707031 27.195313 29.75 28.03125C27.808594 28.859375 26.121094 29.257813 24.90625 30.1875C24.894531 30.195313 24.886719 30.210938 24.875 30.21875C23.8125 31.007813 22.53125 32.25 21.09375 33.3125C19.640625 34.382813 18.074219 35.1875 16.6875 35.1875C15.128906 35.1875 13.328125 33.773438 13.1875 32.3125C13.089844 31.214844 13.515625 30.191406 14.28125 29.1875C15.046875 28.183594 16.152344 27.242188 17.3125 26.46875C19.632813 24.921875 22.0625 24.03125 22.0625 24.03125C22.238281 23.960938 22.390625 23.839844 22.5 23.6875C22.5 23.6875 23.511719 22.292969 24.6875 20.78125C25.277344 20.027344 25.917969 19.242188 26.46875 18.59375C27.019531 17.945313 27.550781 17.410156 27.71875 17.28125C28.089844 16.988281 28.199219 16.472656 27.988281 16.050781C27.777344 15.628906 27.300781 15.414063 26.84375 15.53125C26.84375 15.53125 25.554688 15.867188 23.96875 15.9375C22.382813 16.007813 20.617188 15.734375 19.78125 14.96875C19.550781 14.757813 19.238281 14.667969 18.929688 14.722656C18.625 14.777344 18.359375 14.972656 18.21875 15.25C18.21875 15.25 16.238281 18.75 13.59375 19.3125C13.253906 19.378906 12.972656 19.621094 12.851563 19.945313C12.730469 20.269531 12.789063 20.632813 13 20.90625C13 20.90625 13.820313 21.925781 14 24.1875C14.015625 24.40625 14.101563 24.617188 14.25 24.78125C14.25 24.78125 14.4375 24.984375 14.65625 25.28125C14.824219 25.511719 14.949219 25.710938 15.03125 25.875C14.207031 26.527344 13.328125 27.128906 12.6875 27.96875C12.320313 28.449219 12.0625 29.007813 11.8125 29.5625C10.832031 27.671875 9.808594 25.617188 9.0625 23.625C8.574219 22.324219 8.183594 21.113281 7.90625 20.21875C7.765625 19.769531 7.664063 19.394531 7.59375 19.125C7.550781 18.960938 7.542969 18.804688 7.53125 18.75C7.554688 18.582031 7.773438 17.757813 8.25 16.8125C8.753906 15.816406 9.476563 14.625 10.21875 13.46875C10.960938 12.3125 11.734375 11.175781 12.40625 10.28125C13.078125 9.386719 13.703125 8.679688 13.84375 8.5625C13.789063 8.609375 14.140625 8.367188 14.625 8.15625C15.109375 7.945313 15.777344 7.71875 16.53125 7.4375C18.042969 6.875 19.96875 6.179688 21.9375 5.5C23.90625 4.820313 25.902344 4.144531 27.5625 3.53125C29.035156 2.984375 30.070313 2.558594 30.84375 2.125 Z M 19.46875 16.9375C20.914063 17.730469 22.5625 18.003906 24.03125 17.9375C24.289063 17.925781 24.261719 17.894531 24.5 17.875C24.042969 18.425781 23.578125 18.984375 23.125 19.5625C22.019531 20.980469 21.238281 22.085938 21.09375 22.28125C20.746094 22.414063 18.785156 23.207031 16.5625 24.625C16.457031 24.464844 16.382813 24.234375 16.28125 24.09375C16.082031 23.824219 15.996094 23.730469 15.90625 23.625C15.75 22.398438 15.488281 21.402344 15.1875 20.75C17.695313 19.664063 18.96875 17.832031 19.46875 16.9375 Z M 25.25 32.5C26.945313 34.113281 28 36.429688 28 39C28 43.953125 23.953125 48 19 48C14.046875 48 10 43.953125 10 39C10 37.054688 10.589844 35.285156 11.625 33.84375C12.441406 35.847656 14.511719 37.1875 16.6875 37.1875C18.800781 37.1875 20.683594 36.117188 22.28125 34.9375C23.46875 34.0625 24.4375 33.1875 25.25 32.5Z" />
</svg>