<?xml version="1.0" encoding="utf-8"?>
<svg xmlns="http://www.w3.org/2000/svg" viewBox="0 0 50 50" width="515" height="515">
  <path d="M6.8125 0C6.335938 0.0898438 5.992188 0.511719 6 1L6 49C6 49.550781 6.449219 50 7 50L43 50C43.550781 50 44 49.550781 44 49L44 1C44 0.449219 43.550781 0 43 0L7 0C6.96875 0 6.9375 0 6.90625 0C6.875 0 6.84375 0 6.8125 0 Z M 8 2L42 2L42 48L40 48L40 5C40 4.449219 39.550781 4 39 4L11 4C10.96875 4 10.9375 4 10.90625 4C10.390625 4.046875 9.996094 4.480469 10 5L10 48L8 48 Z M 12 6L38 6L38 48L12 48 Z M 32 24C30.894531 24 30 24.894531 30 26C30 27.105469 30.894531 28 32 28C33.105469 28 34 27.105469 34 26C34 24.894531 33.105469 24 32 24Z" />
</svg>