<?xml version="1.0" encoding="utf-8"?>
<svg xmlns="http://www.w3.org/2000/svg" viewBox="0 0 50 50" width="515" height="515">
  <path d="M19 0C14.04 0 10 4.04 10 9C10 11.66 11.16 14.049219 13 15.699219L13 12.599609C12.36 11.549609 12 10.32 12 9C12 5.14 15.14 2 19 2C22.86 2 26 5.14 26 9C26 10.32 25.64 11.549609 25 12.599609L25 15.699219C26.84 14.049219 28 11.66 28 9C28 4.04 23.96 0 19 0 z M 19 6C18.061905 6 17.101661 6.3187851 16.328125 6.9746094C15.554589 7.6304336 15 8.6696889 15 9.9003906L15 29.445312C14.555768 29.605691 14.154989 29.659144 13.347656 30.355469C12.170348 31.370898 11 33.178282 11 35.900391C11 40.410147 13.786021 43.309883 14.957031 45.138672C16.702619 47.865073 19.483502 50 22.900391 50L32 50C36.945455 50 41 45.945455 41 41L41 26C41 25.252381 40.973343 24.120069 40.449219 23.039062C39.925094 21.958056 38.709524 21 37 21C36.05824 21 35.308313 21.316019 34.699219 21.757812C34.547086 21.233306 34.35423 20.744483 34.042969 20.339844C33.338976 19.424654 32.2 19 31 19C29.883454 19 29.01815 19.410469 28.355469 19.972656C27.694458 18.868479 26.563425 18 25 18C24.220738 18 23.574734 18.25413 23 18.599609L23 10C23 8.7333333 22.457002 7.6703213 21.681641 6.9960938C20.906279 6.3218661 19.938095 6 19 6 z M 19 8C19.461905 8 19.994502 8.1781338 20.369141 8.5039062C20.743779 8.8296788 21 9.2666667 21 10L21 22L21 26 A 1.0001 1.0001 0 0 0 21.005859 26.099609 A 1.0001 1.0001 0 0 0 21.083984 26.388672 A 1.0001 1.0001 0 0 0 21.128906 26.478516 A 1.0001 1.0001 0 0 0 21.244141 26.640625 A 1.0001 1.0001 0 0 0 21.3125 26.712891 A 1.0001 1.0001 0 0 0 21.470703 26.835938 A 1.0001 1.0001 0 0 0 21.746094 26.953125 A 1.0001 1.0001 0 0 0 22.335938 26.927734 A 1.0001 1.0001 0 0 0 22.429688 26.888672 A 1.0001 1.0001 0 0 0 22.677734 26.722656 A 1.0001 1.0001 0 0 0 22.746094 26.650391 A 1.0001 1.0001 0 0 0 22.810547 26.572266 A 1.0001 1.0001 0 0 0 22.974609 26.210938 A 1.0001 1.0001 0 0 0 22.992188 26.113281 A 1.0001 1.0001 0 0 0 23 26.013672 A 1.0001 1.0001 0 0 0 23 26L23 22C23 21.12381 23.661404 20 25 20C26.338596 20 27 21.12381 27 22L27 23L27 25 A 1.0001 1.0001 0 0 0 27.005859 25.099609 A 1.0001 1.0001 0 0 0 27.023438 25.199219 A 1.0001 1.0001 0 0 0 27.388672 25.777344 A 1.0001 1.0001 0 0 0 27.470703 25.835938 A 1.0001 1.0001 0 0 0 27.746094 25.953125 A 1.0001 1.0001 0 0 0 27.84375 25.974609 A 1.0001 1.0001 0 0 0 28.042969 25.984375 A 1.0001 1.0001 0 0 0 28.142578 25.976562 A 1.0001 1.0001 0 0 0 28.240234 25.957031 A 1.0001 1.0001 0 0 0 28.429688 25.888672 A 1.0001 1.0001 0 0 0 28.599609 25.785156 A 1.0001 1.0001 0 0 0 28.810547 25.572266 A 1.0001 1.0001 0 0 0 28.910156 25.400391 A 1.0001 1.0001 0 0 0 28.992188 25.113281 A 1.0001 1.0001 0 0 0 29 25.013672 A 1.0001 1.0001 0 0 0 29 25L29 23C29 22.466667 29.142472 21.941643 29.416016 21.601562C29.689559 21.261482 30.081884 21 31 21C31.8 21 32.161024 21.175737 32.457031 21.560547C32.753039 21.945357 33 22.719048 33 24L33 26 A 1.0001 1.0001 0 0 0 33.019531 26.199219 A 1.0001 1.0001 0 0 0 33.234375 26.644531 A 1.0001 1.0001 0 0 0 33.302734 26.716797 A 1.0001 1.0001 0 0 0 33.378906 26.783203 A 1.0001 1.0001 0 0 0 33.638672 26.931641 A 1.0001 1.0001 0 0 0 33.732422 26.962891 A 1.0001 1.0001 0 0 0 33.830078 26.986328 A 1.0001 1.0001 0 0 0 34 27 A 1.0001 1.0001 0 0 0 34.099609 26.994141 A 1.0001 1.0001 0 0 0 34.199219 26.980469 A 1.0001 1.0001 0 0 0 34.644531 26.765625 A 1.0001 1.0001 0 0 0 34.716797 26.697266 A 1.0001 1.0001 0 0 0 34.783203 26.621094 A 1.0001 1.0001 0 0 0 34.841797 26.541016 A 1.0001 1.0001 0 0 0 34.890625 26.453125 A 1.0001 1.0001 0 0 0 34.931641 26.361328 A 1.0001 1.0001 0 0 0 34.986328 26.169922 A 1.0001 1.0001 0 0 0 35 26C35 25.347619 35.07373 24.481103 35.349609 23.912109C35.625485 23.343116 35.909524 23 37 23C38.090476 23 38.374515 23.343116 38.650391 23.912109C38.926266 24.481103 39 25.347619 39 26L39 41C39 44.854545 35.854545 48 32 48L22.900391 48C20.31728 48 18.12899 46.382146 16.642578 44.060547C15.253588 41.891335 13 39.590635 13 35.900391C13 33.722499 13.829652 32.578712 14.652344 31.869141C15.475035 31.159569 16.242188 30.970703 16.242188 30.970703 A 1.0001 1.0001 0 0 0 17 30L17 9.9003906C17 9.2310924 17.24463 8.8191757 17.621094 8.5C17.997557 8.1808243 18.538095 8 19 8 z" />
</svg>