<?xml version="1.0" encoding="utf-8"?>
<svg xmlns="http://www.w3.org/2000/svg" viewBox="0 0 50 50" width="515" height="515">
  <path d="M21 4 A 1.0001 1.0001 0 0 0 20.005859 4.9003906C20.006734 4.8917206 19.870701 5.3205269 19.644531 5.5878906C19.418361 5.8552544 19.185784 6 18.894531 6L16.15625 6C16.15625 6 16.154297 5.9980469 16.154297 5.9980469C16.079427 5.9101119 15.972649 5.7263991 15.916016 5.5976562L15.90625 5.6132812 A 1.0001 1.0001 0 0 0 15 5L5 5 A 1.0001 1.0001 0 0 0 4 6L4 14C4 17.128384 4.9434591 20.878187 5 21.101562L4.9921875 22.632812L4.3125 23.273438 A 1.0001 1.0001 0 0 0 4 24L4 28 A 1.0001 1.0001 0 0 0 4.2929688 28.707031L5 29.414062L5 33.837891L4.0507812 36.683594 A 1.0001 1.0001 0 0 0 4.0292969 37.242188L4.9589844 40.960938L4.0507812 43.683594 A 1.0001 1.0001 0 0 0 5 45L19 45 A 1.0001 1.0001 0 0 0 19.707031 44.707031L19.810547 44.603516C19.857727 44.669416 19.856403 44.697276 19.908203 44.763672C20.338748 45.315571 20.966 46 22 46L25 46C25.833333 46 26.447266 45.644531 26.947266 45.394531C27.447266 45.144531 27.833333 45 28 45L33 45 A 1.0001 1.0001 0 0 0 33.707031 44.707031L33.933594 44.480469C34.069129 44.654181 34.231403 44.830128 34.365234 44.998047C34.531866 45.207121 34.701012 45.414495 34.949219 45.611328C35.197426 45.808162 35.574077 46 36 46L41 46 A 1.0001 1.0001 0 0 0 42 45L42 44.28125L44.757812 44.970703 A 1.0001 1.0001 0 0 0 46 43.994141C46 43.994141 45.9363 34.125481 46 29.011719 A 1.0001 1.0001 0 0 0 45.707031 28.292969L45 27.585938L45 23 A 1.0001 1.0001 0 0 0 44.707031 22.292969L44.216797 21.802734L44.822266 20.591797L45.707031 19.707031 A 1.0001 1.0001 0 0 0 46 19C46 17.990667 45.986328 14.990993 45.986328 13.990234 A 1.0001 1.0001 0 0 0 45.957031 13.75L45.058594 10.117188L45.894531 8.4472656 A 1.0001 1.0001 0 0 0 46 8L46 6 A 1.0001 1.0001 0 0 0 45 5L41 5C40.677958 5 40.337503 5.089813 40 5.1777344L40 5 A 1.0001 1.0001 0 0 0 39 4L33 4C32.216131 4 31.432666 4.2487348 30.941406 4.796875C30.6329 5.1411017 30.529089 5.5851329 30.376953 6L29.474609 6C29.413804 5.9249163 29.405447 5.9304366 29.332031 5.8203125C29.138924 5.530651 29 5.1666667 29 5 A 1.0001 1.0001 0 0 0 28 4L21 4 z M 21.578125 6L27.345703 6C27.472278 6.3058184 27.520092 6.7078718 27.667969 6.9296875C27.974861 7.390026 28.292969 7.7070313 28.292969 7.7070312 A 1.0001 1.0001 0 0 0 29 8L31 8 A 1.0001 1.0001 0 0 0 31.957031 7.2871094C32.162772 6.6011453 32.344447 6.2279223 32.429688 6.1328125C32.514927 6.0377027 32.517869 6 33 6L38 6L38 7 A 1.0001 1.0001 0 0 0 39.714844 7.6992188C40.147728 7.2577627 40.369441 7.0947739 40.453125 7.0546875C40.536809 7.0146011 40.603094 7 41 7L44 7L44 7.7636719L43.105469 9.5527344 A 1.0001 1.0001 0 0 0 43.029297 10.240234L43.986328 14.113281C43.986927 15.108404 43.996127 17.431885 43.998047 18.587891L43.292969 19.292969 A 1.0001 1.0001 0 0 0 43.105469 19.552734L42.105469 21.552734 A 1.0001 1.0001 0 0 0 42.292969 22.707031L43 23.414062L43 28 A 1.0001 1.0001 0 0 0 43.292969 28.707031L44 29.414062C43.94935 34.212972 43.9915 41.316583 44 42.71875L41.242188 42.029297 A 1.0001 1.0001 0 0 0 40 43L40 44L36.152344 44C36.110034 43.96027 36.039636 43.892357 35.927734 43.751953C35.663248 43.4201 35.278803 42.86474 34.707031 42.292969 A 1.0001 1.0001 0 0 0 33.292969 42.292969L32.585938 43L28 43C27.166667 43 26.552734 43.355469 26.052734 43.605469C25.552734 43.855469 25.166667 44 25 44L22 44C22.034 44 21.756326 43.881804 21.484375 43.533203C21.212424 43.184602 20.984054 42.739521 20.902344 42.568359 A 1.0001 1.0001 0 0 0 19.292969 42.292969L18.585938 43L6.3886719 43L6.9492188 41.316406 A 1.0001 1.0001 0 0 0 6.9707031 40.757812L6.0410156 37.039062L6.9492188 34.316406 A 1.0001 1.0001 0 0 0 7 34L7 29 A 1.0001 1.0001 0 0 0 6.7070312 28.292969L6 27.585938L6 24.431641L6.6757812 23.791016 A 1.0001 1.0001 0 0 0 6.9882812 23.070312L7 21.005859 A 1.0001 1.0001 0 0 0 6.9707031 20.757812C6.9707031 20.757812 6 16.777778 6 14L6 7L14.449219 7C14.517029 7.1023178 14.542309 7.1909189 14.630859 7.2949219C14.898487 7.6092374 15.327769 8 16 8L18.894531 8C19.895278 8 20.684295 7.4572456 21.171875 6.8808594C21.412953 6.5958724 21.441636 6.2902995 21.578125 6 z M 34.070312 11 A 1.0001 1.0001 0 0 0 33.777344 11.050781L27.6875 13.050781 A 1.0001 1.0001 0 0 0 27.40625 14.804688L35.525391 20.804688 A 1.0001 1.0001 0 0 0 37.105469 20.166016L38.119141 14.166016 A 1.0001 1.0001 0 0 0 37.681641 13.164062L34.638672 11.164062 A 1.0001 1.0001 0 0 0 34.070312 11 z M 14.685547 11.001953 A 1.0001 1.0001 0 0 0 14.492188 11.029297L10.759766 11.955078 A 1.0001 1.0001 0 0 0 10.238281 13.574219L30.771484 37.648438 A 1.0001 1.0001 0 0 0 31.533203 38L36.199219 38 A 1.0001 1.0001 0 0 0 37.117188 37.396484L39.917969 30.916016 A 1.0001 1.0001 0 0 0 39.607422 29.724609L15.339844 11.205078 A 1.0001 1.0001 0 0 0 14.685547 11.001953 z M 14.507812 13.085938L37.771484 30.839844L35.542969 36L31.994141 36L12.810547 13.507812L14.507812 13.085938 z M 33.943359 13.099609L36.039062 14.476562L35.404297 18.228516L30.150391 14.345703L33.943359 13.099609 z M 12.984375 27 A 1.0001 1.0001 0 0 0 12.039062 27.724609L10.039062 34.724609 A 1.0001 1.0001 0 0 0 10.400391 35.800781L14.400391 38.800781 A 1.0001 1.0001 0 0 0 15.316406 38.949219L21.316406 36.949219 A 1.0001 1.0001 0 0 0 21.707031 35.292969L13.707031 27.292969 A 1.0001 1.0001 0 0 0 12.984375 27 z M 13.494141 29.908203L19.148438 35.5625L15.181641 36.884766L12.150391 34.613281L13.494141 29.908203 z" clip-rule="evenodd" />
</svg>