<?xml version="1.0" encoding="utf-8"?>
<svg xmlns="http://www.w3.org/2000/svg" viewBox="0 0 50 50" width="515" height="515">
  <path d="M27.980469 3.992188C27.71875 3.996094 27.472656 4.105469 27.292969 4.292969L6.585938 25L27.292969 45.707031C27.542969 45.96875 27.917969 46.074219 28.265625 45.980469C28.617188 45.890625 28.890625 45.617188 28.980469 45.265625C29.074219 44.917969 28.96875 44.542969 28.707031 44.292969L9.414063 25L28.707031 5.707031C29.003906 5.417969 29.089844 4.980469 28.929688 4.601563C28.769531 4.21875 28.394531 3.976563 27.980469 3.992188 Z M 40.980469 3.992188C40.71875 3.996094 40.472656 4.105469 40.292969 4.292969L19.585938 25L40.292969 45.707031C40.542969 45.96875 40.917969 46.074219 41.265625 45.980469C41.617188 45.890625 41.890625 45.617188 41.980469 45.265625C42.074219 44.917969 41.96875 44.542969 41.707031 44.292969L22.414063 25L41.707031 5.707031C42.003906 5.417969 42.089844 4.980469 41.929688 4.601563C41.769531 4.21875 41.394531 3.976563 40.980469 3.992188Z" />
</svg>