<?xml version="1.0" encoding="utf-8"?>
<svg xmlns="http://www.w3.org/2000/svg" viewBox="0 0 50 50" width="515" height="515">
  <path d="M25 6.585938L4.292969 27.292969C4.03125 27.542969 3.925781 27.917969 4.019531 28.265625C4.109375 28.617188 4.382813 28.890625 4.734375 28.980469C5.082031 29.074219 5.457031 28.96875 5.707031 28.707031L25 9.414063L44.292969 28.707031C44.542969 28.96875 44.917969 29.074219 45.265625 28.980469C45.617188 28.890625 45.890625 28.617188 45.980469 28.265625C46.074219 27.917969 45.96875 27.542969 45.707031 27.292969 Z M 25 19.585938L4.292969 40.292969C4.03125 40.542969 3.925781 40.917969 4.019531 41.265625C4.109375 41.617188 4.382813 41.890625 4.734375 41.980469C5.082031 42.074219 5.457031 41.96875 5.707031 41.707031L25 22.414063L44.292969 41.707031C44.542969 41.96875 44.917969 42.074219 45.265625 41.980469C45.617188 41.890625 45.890625 41.617188 45.980469 41.265625C46.074219 40.917969 45.96875 40.542969 45.707031 40.292969Z" />
</svg>