<?xml version="1.0" encoding="utf-8"?>
<svg xmlns="http://www.w3.org/2000/svg" viewBox="0 0 523 523" width="515" height="515">
  <path d="M52.191406 83.535156 A 10.461046 10.461046 0 0 0 44.904297 101.49609L261.5 318.0918L478.0957 101.49609 A 10.461046 10.461046 0 1 0 463.30273 86.703125L261.5 288.50781L59.697266 86.703125 A 10.461046 10.461046 0 0 0 52.191406 83.535156 z M 52.191406 219.53516 A 10.461046 10.461046 0 0 0 44.904297 237.49609L261.5 454.0918L478.0957 237.49609 A 10.461046 10.461046 0 1 0 463.30273 222.70312L261.5 424.50781L59.697266 222.70312 A 10.461046 10.461046 0 0 0 52.191406 219.53516 z" />
</svg>