<?xml version="1.0" encoding="utf-8"?>
<svg xmlns="http://www.w3.org/2000/svg" viewBox="0 0 50 50" width="515" height="515">
  <path d="M24.984375 1.9863281 A 1.0001 1.0001 0 0 0 24.814453 2.0039062C12.165452 2.1036249 2 12.326763 2 25C2 37.735519 12.264481 48 25 48C37.735519 48 48 37.735519 48 25C48 12.326763 37.834548 2.1036249 25.185547 2.0039062C25.184893 2.0039011 25.184248 2.0039114 25.183594 2.0039062 A 1.0001 1.0001 0 0 0 24.984375 1.9863281 z M 24 4.0253906L24 16.203125C19.532294 16.724715 16 20.395705 16 25C16 29.958717 20.041279 34 25 34C27.11366 34 28.977273 33.156281 30.515625 31.929688L39.132812 40.546875C35.409811 43.929664 30.469463 46 25 46C13.335519 46 4 36.664481 4 25C4 13.671189 12.807009 4.5415923 24 4.0253906 z M 26 4.0253906C26.220061 4.0355395 26.438083 4.0535518 26.65625 4.0703125L26 4.7460938L26 4.0253906 z M 29.121094 4.4003906C30.003462 4.5735026 30.863325 4.8052261 31.701172 5.0839844L26 10.785156L26 7.6015625 A 1.0001 1.0001 0 0 0 26.117188 7.4960938L29.121094 4.4003906 z M 33.734375 5.8789062C34.428361 6.1937888 35.091819 6.5597381 35.742188 6.9453125L26.402344 16.283203C26.266043 16.260831 26.138259 16.219266 26 16.203125L26 13.613281L33.734375 5.8789062 z M 37.445312 8.0703125C38.142377 8.5818195 38.806624 9.132368 39.433594 9.7246094L30.642578 18.158203C30.032581 17.654579 29.410136 17.162708 28.681641 16.832031L37.445312 8.0703125 z M 40.820312 11.166016C41.083465 11.467149 41.336293 11.775675 41.582031 12.091797 A 1 1 0 0 0 42 14 A 1 1 0 0 0 42.714844 13.699219C43.184636 14.437878 43.623946 15.199369 44 15.998047 A 1 1 0 0 0 44.337891 16.75C44.941068 18.174942 45.387338 19.684402 45.666016 21.253906 A 1 1 0 0 0 45 21 A 1 1 0 0 0 45 23 A 1 1 0 0 0 45.851562 22.521484C45.945721 23.334492 46 24.160236 46 25C46 25.839764 45.945721 26.665508 45.851562 27.478516 A 1 1 0 0 0 45 27 A 1 1 0 0 0 45 29 A 1 1 0 0 0 45.666016 28.746094C45.38723 30.316202 44.941418 31.826525 44.337891 33.251953 A 1 1 0 0 0 44 34.001953C43.623707 34.801139 43.184992 35.563646 42.714844 36.302734 A 1 1 0 0 0 42 36 A 1 1 0 0 0 41.582031 37.908203C41.253323 38.331059 40.906523 38.736994 40.546875 39.132812L31.929688 30.515625C32.3081 30.041031 32.643547 29.532347 32.935547 28.998047 A 1 1 0 0 0 33 29 A 1 1 0 0 0 33.669922 27.257812C33.881149 26.542304 34 25.78913 34 25C34 24.211158 33.877471 23.459751 33.664062 22.746094 A 1 1 0 0 0 33 21 A 1 1 0 0 0 32.925781 21.003906C32.658014 20.516839 32.353846 20.050581 32.015625 19.611328L40.820312 11.166016 z M 39 15 A 1 1 0 0 0 39 17 A 1 1 0 0 0 39 15 z M 36 18 A 1 1 0 0 0 36 20 A 1 1 0 0 0 36 18 z M 42 18 A 1 1 0 0 0 42 20 A 1 1 0 0 0 42 18 z M 24.945312 18.011719 A 1.0001 1.0001 0 0 0 25.056641 18.011719C28.906476 18.043907 32 21.142295 32 25C32 28.877839 28.877841 32 25 32C21.122159 32 18 28.877839 18 25C18 21.141628 21.094546 18.042849 24.945312 18.011719 z M 39 21 A 1 1 0 0 0 39 23 A 1 1 0 0 0 39 21 z M 36 24 A 1 1 0 0 0 36 26 A 1 1 0 0 0 36 24 z M 42 24 A 1 1 0 0 0 42 26 A 1 1 0 0 0 42 24 z M 39 27 A 1 1 0 0 0 39 29 A 1 1 0 0 0 39 27 z M 36 30 A 1 1 0 0 0 36 32 A 1 1 0 0 0 36 30 z M 42 30 A 1 1 0 0 0 42 32 A 1 1 0 0 0 42 30 z M 39 33 A 1 1 0 0 0 39 35 A 1 1 0 0 0 39 33 z" />
</svg>