<?xml version="1.0" encoding="utf-8"?>
<svg xmlns="http://www.w3.org/2000/svg" viewBox="0 0 50 50" width="515" height="515">
  <path d="M12.875 2L11.757813 2.28125C10.113281 2.691406 7 4.21875 7 8C7 9.695313 7.480469 11.089844 7.820313 11.859375C7.140625 12.785156 6 14.8125 6 18C6 22.132813 8.863281 24.675781 10.015625 25.53125C10.226563 29.699219 12.914063 32.71875 17.054688 33.671875C13.746094 37.609375 10.496094 41.28125 8.328125 43.261719C8.117188 43.449219 8 43.71875 8 44C8 45.851563 11.496094 48 16 48C20.855469 48 24.453125 46.898438 26.695313 44.71875C26.890625 44.53125 27 44.269531 27 44L27 38.875C31.605469 38.144531 39 35.148438 39 28C39 25.796875 38.570313 23.414063 38.265625 22L43 22C43.367188 22 43.707031 21.796875 43.882813 21.472656C44.058594 21.148438 44.035156 20.753906 43.832031 20.445313L41.960938 17.640625C41.789063 16.484375 40.875 12 37 12C33.546875 12 32.019531 14.261719 30.25 16.878906C30.125 17.0625 29.984375 17.261719 29.855469 17.449219C29.042969 15.296875 28 11.148438 28 4L28 3L27 3C21.4375 3 21.03125 8 21 10.46875C19.839844 11.390625 18.828125 13.171875 18.546875 15.230469C15.890625 12.226563 13.53125 8.222656 12.996094 3.144531 Z M 11.183594 4.667969C13.332031 17.726563 26.015625 23.640625 26.570313 23.90625C26.582031 23.910156 26.589844 23.910156 26.597656 23.914063L27.265625 24.234375C28.980469 22.035156 30.273438 20.328125 30.8125 19.582031C31.203125 19.039063 31.5625 18.507813 31.90625 18C33.679688 15.371094 34.714844 14 37 14C39.546875 14 40 18.0625 40.003906 18.097656C40.023438 18.261719 40.078125 18.417969 40.167969 18.554688L41.128906 20L37 20C36.6875 20 36.394531 20.144531 36.207031 20.390625C36.019531 20.636719 35.953125 20.957031 36.03125 21.257813C36.042969 21.292969 37 24.925781 37 28C37 35.738281 26.007813 36.996094 25.894531 37.003906C25.386719 37.0625 25 37.488281 25 38L25 43.558594C23.128906 45.15625 20.027344 46 16 46C12.875 46 10.835938 44.835938 10.203125 44.246094C12.628906 41.921875 16.039063 38.019531 19.402344 33.980469C19.601563 33.988281 19.796875 34 20 34C20.550781 34 21 33.550781 21 33C21 32.449219 20.550781 32 20 32C15.140625 32 12 29.253906 12 25L12 24.4375L11.519531 24.144531C11.484375 24.125 8 21.953125 8 18C8 14.460938 9.632813 12.78125 9.695313 12.71875L10.261719 12.171875L9.859375 11.488281C9.851563 11.476563 9 9.984375 9 8C9 6.015625 10.234375 5.195313 11.183594 4.667969 Z M 26.007813 5.078125C26.128906 13.222656 27.585938 17.457031 28.496094 19.347656C28.019531 19.988281 27.425781 20.765625 26.691406 21.714844C25.519531 21.078125 23.074219 19.625 20.535156 17.277344C20.144531 14.8125 21.429688 12.457031 22.484375 11.875L23 11.589844L23 11C23 7.695313 23.53125 5.515625 26.007813 5.078125Z" />
</svg>