<?xml version="1.0" encoding="utf-8"?>
<svg xmlns="http://www.w3.org/2000/svg" viewBox="0 0 50 50" width="515" height="515">
  <path d="M5 4C3.3545455 4 2 5.3545455 2 7L2 16L2 26L2 43C2 44.645455 3.3545455 46 5 46L45 46C46.645455 46 48 44.645455 48 43L48 26L48 16L48 11C48 9.3545455 46.645455 8 45 8L18 8C18.06944 8 17.95032 7.99708 17.705078 7.7167969C17.459833 7.4365165 17.160156 6.9707031 16.847656 6.4707031C16.535156 5.9707031 16.209833 5.4365165 15.798828 4.9667969C15.387823 4.4970773 14.819444 4 14 4L5 4 z M 5 6L14 6C13.93056 6 14.04968 6.00292 14.294922 6.2832031C14.540167 6.5634835 14.839844 7.0292969 15.152344 7.5292969C15.464844 8.0292969 15.790167 8.5634835 16.201172 9.0332031C16.612177 9.5029227 17.180556 10 18 10L45 10C45.554545 10 46 10.445455 46 11L46 13.1875C45.685079 13.07397 45.351946 13 45 13L5 13C4.6480538 13 4.3149207 13.07397 4 13.1875L4 7C4 6.4454545 4.4454545 6 5 6 z M 5 15L45 15C45.554545 15 46 15.445455 46 16L46 26L46 43C46 43.554545 45.554545 44 45 44L5 44C4.4454545 44 4 43.554545 4 43L4 26L4 16C4 15.445455 4.4454545 15 5 15 z" />
</svg>