<?xml version="1.0" encoding="utf-8"?>
<svg xmlns="http://www.w3.org/2000/svg" viewBox="0 0 50 50" width="515" height="515">
  <path d="M29 4C23.805395 4 19.6756 7.1535267 17.623047 11.599609C16.274333 10.677074 14.625017 10 13 10C11.277778 10 9.5024818 10.583456 8.1679688 11.917969C6.9592545 13.126683 6.2490085 14.996489 6.109375 17.330078C2.4915446 18.704882 0 21.955442 0 26.199219C0 31.554774 4.4666667 36 10 36L18 36 A 1.0001 1.0001 0 1 0 18 34L10 34C5.5333333 34 2 30.443663 2 26.199219C2 22.489463 4.0601214 19.944846 7.2929688 18.957031 A 1.0001 1.0001 0 0 0 8 18C8 15.7 8.6665444 14.247518 9.5820312 13.332031C10.497518 12.416544 11.722222 12 13 12C14.347059 12 16.471526 12.885588 17.292969 13.707031 A 1.0001 1.0001 0 0 0 18.939453 13.339844C20.515454 8.9826654 24.223077 6 29 6C35.182587 6 40 10.719608 40 17L40 19 A 1.0001 1.0001 0 0 0 41 20C44.854545 20 48 23.145455 48 27C48 30.945455 45.52 34 41 34L32 34 A 1.0001 1.0001 0 1 0 32 36L41 36C46.48 36 50 31.854545 50 27C50 22.408551 46.457983 18.726989 42 18.203125L42 17C42 9.6803922 36.217413 4 29 4 z" />
</svg>