<?xml version="1.0" encoding="utf-8"?>
<svg xmlns="http://www.w3.org/2000/svg" viewBox="0 0 50 50" width="515" height="515">
  <path d="M25 2C12.308594 2 2 12.308594 2 25C2 37.691406 12.308594 48 25 48C37.691406 48 48 37.691406 48 25C48 12.308594 37.691406 2 25 2 Z M 25 4C36.609375 4 46 13.390625 46 25C46 36.609375 36.609375 46 25 46C13.390625 46 4 36.609375 4 25C4 13.390625 13.390625 4 25 4 Z M 14.90625 20.96875C14.863281 20.976563 14.820313 20.988281 14.78125 21C14.40625 21.066406 14.105469 21.339844 14 21.703125C13.894531 22.070313 14.003906 22.460938 14.28125 22.71875L24.28125 32.71875C24.46875 32.914063 24.730469 33.023438 25 33.023438C25.269531 33.023438 25.53125 32.914063 25.71875 32.71875L35.71875 22.71875C36.117188 22.320313 36.117188 21.679688 35.71875 21.28125C35.320313 20.882813 34.679688 20.882813 34.28125 21.28125L25 30.5625L15.71875 21.28125C15.511719 21.058594 15.210938 20.945313 14.90625 20.96875Z" />
</svg>