<?xml version="1.0" encoding="utf-8"?>
<svg xmlns="http://www.w3.org/2000/svg" viewBox="0 0 50 50" width="515" height="515">
  <path d="M24.984375 0.984375C24.433594 0.996094 23.992188 1.449219 24 2L24 45.253906L15.691406 37.28125C15.5 37.089844 15.238281 36.984375 14.96875 36.988281C14.5625 37 14.199219 37.253906 14.054688 37.632813C13.910156 38.011719 14.007813 38.441406 14.308594 38.71875L25 48.984375L35.691406 38.71875C35.953125 38.472656 36.0625 38.105469 35.976563 37.757813C35.890625 37.410156 35.625 37.132813 35.28125 37.035156C34.933594 36.933594 34.5625 37.027344 34.308594 37.28125L26 45.253906L26 2C26.003906 1.730469 25.898438 1.46875 25.707031 1.277344C25.515625 1.085938 25.253906 0.980469 24.984375 0.984375Z" />
</svg>