<?xml version="1.0" encoding="utf-8"?>
<svg xmlns="http://www.w3.org/2000/svg" viewBox="0 0 50 50" width="515" height="515">
  <path d="M25 3C24.449219 3 24 3.449219 24 4C24 4.550781 24.449219 5 25 5C25.550781 5 26 4.550781 26 4C26 3.449219 25.550781 3 25 3 Z M 25 7C24.449219 7 24 7.449219 24 8C24 8.550781 24.449219 9 25 9C25.550781 9 26 8.550781 26 8C26 7.449219 25.550781 7 25 7 Z M 25 11C24.449219 11 24 11.449219 24 12C24 12.550781 24.449219 13 25 13C25.550781 13 26 12.550781 26 12C26 11.449219 25.550781 11 25 11 Z M 24.90625 14.96875C24.863281 14.976563 24.820313 14.988281 24.78125 15C24.316406 15.105469 23.988281 15.523438 24 16L24 37.5625L17.71875 31.28125C17.476563 31.03125 17.121094 30.925781 16.78125 31C16.40625 31.066406 16.105469 31.339844 16 31.703125C15.894531 32.070313 16.003906 32.460938 16.28125 32.71875L24.15625 40.5625C24.191406 40.617188 24.234375 40.671875 24.28125 40.71875C24.300781 40.742188 24.320313 40.761719 24.34375 40.78125C24.402344 40.828125 24.464844 40.871094 24.53125 40.90625C24.550781 40.917969 24.574219 40.929688 24.59375 40.9375C24.605469 40.9375 24.613281 40.9375 24.625 40.9375C24.644531 40.949219 24.667969 40.960938 24.6875 40.96875C24.726563 40.980469 24.769531 40.992188 24.8125 41C24.917969 41.015625 25.019531 41.015625 25.125 41C25.144531 41 25.167969 41 25.1875 41C25.273438 40.980469 25.359375 40.949219 25.4375 40.90625C25.570313 40.839844 25.6875 40.742188 25.78125 40.625L33.71875 32.71875C34.117188 32.320313 34.117188 31.679688 33.71875 31.28125C33.320313 30.882813 32.679688 30.882813 32.28125 31.28125L26 37.5625L26 16C26.011719 15.710938 25.894531 15.433594 25.6875 15.238281C25.476563 15.039063 25.191406 14.941406 24.90625 14.96875 Z M 2 33L2 45C2 46.644531 3.355469 48 5 48L45 48C46.644531 48 48 46.644531 48 45L48 33L46 33L46 45C46 45.566406 45.566406 46 45 46L5 46C4.433594 46 4 45.566406 4 45L4 33Z" />
</svg>