<?xml version="1.0" encoding="utf-8"?>
<svg xmlns="http://www.w3.org/2000/svg" viewBox="0 0 50 50" width="515" height="515">
  <path d="M22.8125 0C22.335938 0.0898438 21.992188 0.511719 22 1L22 5.6875C19.636719 6.816406 18 9.21875 18 12C18 13.105469 18.257813 14.160156 18.71875 15.09375L10.5625 33L5.71875 33C5.371094 32.402344 4.738281 32 4 32C2.894531 32 2 32.894531 2 34C2 35.105469 2.894531 36 4 36C4.738281 36 5.371094 35.597656 5.71875 35L9.65625 35L6.34375 42.28125C5.804688 43.472656 6.105469 44.832031 7 45.6875L5.6875 48.59375C5.488281 48.925781 5.5 49.339844 5.710938 49.660156C5.925781 49.980469 6.304688 50.152344 6.6875 50.097656C7.066406 50.042969 7.386719 49.773438 7.5 49.40625L8.8125 46.5C10.035156 46.597656 11.25 45.953125 11.78125 44.78125L16.25 35L22 35L22 37C22 37.550781 22.449219 38 23 38L27 38C27.550781 38 28 37.550781 28 37L28 35L33.75 35L38.21875 44.78125C38.75 45.953125 39.964844 46.597656 41.1875 46.5L42.5 49.40625C42.613281 49.773438 42.933594 50.042969 43.3125 50.097656C43.695313 50.152344 44.074219 49.980469 44.289063 49.660156C44.5 49.339844 44.511719 48.925781 44.3125 48.59375L43 45.6875C43.894531 44.832031 44.195313 43.472656 43.65625 42.28125L40.34375 35L44.28125 35C44.628906 35.597656 45.261719 36 46 36C47.105469 36 48 35.105469 48 34C48 32.894531 47.105469 32 46 32C45.261719 32 44.628906 32.402344 44.28125 33L39.4375 33L31.28125 15.09375C31.742188 14.160156 32 13.105469 32 12C32 9.21875 30.363281 6.816406 28 5.6875L28 1C28 0.449219 27.550781 0 27 0L23 0C22.96875 0 22.9375 0 22.90625 0C22.875 0 22.84375 0 22.8125 0 Z M 24 2L26 2L26 5.09375C25.671875 5.046875 25.339844 5 25 5C24.660156 5 24.328125 5.046875 24 5.09375 Z M 25 7C27.773438 7 30 9.226563 30 12C30 14.773438 27.773438 17 25 17C22.226563 17 20 14.773438 20 12C20 9.226563 22.226563 7 25 7 Z M 25 8C22.800781 8 21 9.800781 21 12C21 14.199219 22.800781 16 25 16C27.199219 16 29 14.199219 29 12C29 9.800781 27.199219 8 25 8 Z M 25 10C26.117188 10 27 10.882813 27 12C27 13.117188 26.117188 14 25 14C23.882813 14 23 13.117188 23 12C23 10.882813 23.882813 10 25 10 Z M 20.09375 16.96875C20.578125 17.449219 21.113281 17.863281 21.71875 18.1875L9.96875 43.9375C9.765625 44.386719 9.296875 44.605469 8.84375 44.5C8.832031 44.488281 8.824219 44.480469 8.8125 44.46875C8.734375 44.425781 8.648438 44.394531 8.5625 44.375C8.128906 44.117188 7.941406 43.601563 8.15625 43.125 Z M 29.90625 16.96875L41.84375 43.125C42.058594 43.601563 41.871094 44.117188 41.4375 44.375C41.40625 44.394531 41.375 44.414063 41.34375 44.4375C40.828125 44.671875 40.265625 44.453125 40.03125 43.9375L35.78125 34.625C36.019531 34.328125 36.066406 33.925781 35.910156 33.582031C35.75 33.234375 35.410156 33.011719 35.03125 33L28.28125 18.1875C28.886719 17.863281 29.421875 17.449219 29.90625 16.96875 Z M 23.59375 18.84375L23.625 18.84375C24.070313 18.933594 24.527344 19 25 19C25.472656 19 25.929688 18.933594 26.375 18.84375L32.84375 33L28 33L28 31C28 30.449219 27.550781 30 27 30L23 30C22.96875 30 22.9375 30 22.90625 30C22.875 30 22.84375 30 22.8125 30C22.335938 30.089844 21.992188 30.511719 22 31L22 33L17.15625 33 Z M 24 32L26 32L26 33.53125C25.867188 33.808594 25.867188 34.128906 26 34.40625L26 36L24 36L24 34.1875C24.027344 34.054688 24.027344 33.914063 24 33.78125Z" />
</svg>