<?xml version="1.0" encoding="utf-8"?>
<svg xmlns="http://www.w3.org/2000/svg" viewBox="0 0 523 523" width="515" height="515">
  <path d="M261.5 21.306641L165.20312 117.60352 A 10.461046 10.461046 0 1 0 179.99609 132.39648L251.03906 61.353516L251.03906 251.03906L61.353516 251.03906L132.39648 179.99609 A 10.461046 10.461046 0 1 0 117.60352 165.20312L21.306641 261.5L117.60352 357.79688 A 10.461046 10.461046 0 1 0 132.39648 343.00391L61.353516 271.96094L251.03906 271.96094L251.03906 461.64648L179.99609 390.60352 A 10.461046 10.461046 0 1 0 165.20312 405.39648L261.5 501.69336L357.79688 405.39648 A 10.461046 10.461046 0 1 0 343.00391 390.60352L271.96094 461.64648L271.96094 271.96094L461.14648 271.96094L390.10352 343.00391 A 10.461046 10.461046 0 1 0 404.89648 357.79688L501.19336 261.5L404.89648 165.20312 A 10.461046 10.461046 0 1 0 390.10352 179.99609L461.14648 251.03906L271.96094 251.03906L271.96094 61.353516L343.00391 132.39648 A 10.461046 10.461046 0 1 0 357.79688 117.60352L261.5 21.306641 z" />
</svg>