<?xml version="1.0" encoding="utf-8"?>
<svg xmlns="http://www.w3.org/2000/svg" viewBox="0 0 50 50" width="515" height="515">
  <path d="M9.15625 2.109375C9.125 2.105469 9.097656 2.109375 9.082031 2.125C8.664063 2.566406 10.414063 5.570313 14.304688 6.992188C17.183594 8.039063 21.441406 9.269531 23.992188 11.484375C24.292969 11.4375 24.761719 11.132813 25.222656 10.828125C25.746094 10.476563 26.347656 10.078125 27.054688 9.8125C21.84375 6.40625 16.488281 5.40625 14.230469 4.90625C12.378906 4.496094 9.679688 2.195313 9.15625 2.109375 Z M 1.148438 5C1.113281 5 1.085938 5.007813 1.070313 5.023438C0.597656 5.523438 2.496094 8.296875 6.703125 9.867188C9.195313 10.796875 12.882813 12.027344 15.574219 13.664063C14.8125 13.839844 13.972656 14.109375 13.058594 14.519531L11.464844 15.230469L12.878906 16.246094C13.246094 16.503906 13.394531 17.101563 13.410156 17.683594C12.621094 17.554688 11.257813 17.28125 8.226563 18.683594L6.695313 19.394531L8.054688 20.394531C8.054688 20.394531 8.742188 20.90625 9.425781 21.535156C9.605469 21.703125 9.742188 21.871094 9.902344 22.042969C7.941406 22.199219 6.195313 22.792969 4.9375 23.863281L3.460938 25.125L5.335938 25.59375C5.832031 25.71875 6.292969 26.078125 6.660156 26.496094C5.425781 26.53125 4.082031 26.742188 2.851563 27.96875L2 28.824219L2.992188 29.503906C3.292969 29.707031 3.277344 29.761719 3.207031 30.074219C3.136719 30.386719 2.835938 30.863281 2.390625 31.207031L1.914063 31.578125L2.015625 32.171875C2.015625 32.171875 2.648438 35.863281 5.078125 39.550781C7.503906 43.238281 11.871094 47 19 47L20 47L20 46C20 45.082031 20.476563 42.554688 21.304688 40.472656C21.71875 39.433594 22.222656 38.484375 22.730469 37.859375C23.238281 37.230469 23.671875 37 24 37C24.59375 37 25.386719 37.449219 26.140625 38.15625C26.890625 38.867188 27.558594 39.746094 28.066406 40.355469C29.300781 41.835938 30.179688 42.949219 31.226563 43.761719C31.34375 43.851563 31.472656 43.921875 31.59375 44L30 46C30 46 32.320313 45.925781 34.0625 44.925781C34.382813 44.96875 34.710938 45 35.058594 45C37.460938 45 39 43.59375 39 42L39 41.238281L38.265625 41.035156C38.265625 41.035156 38.070313 40.972656 37.78125 40.847656C37.988281 39.933594 38 39 38 39L36.46875 40.125C36.195313 39.9375 35.90625 39.730469 35.605469 39.46875C35.984375 38.410156 36 37 36 37L34.375 38.199219C34.292969 38.101563 34.210938 38.019531 34.128906 37.917969C33.984375 37.726563 33.832031 37.480469 33.679688 37.222656C33.984375 36.203125 34 35 34 35L32.925781 35.792969C32.847656 35.621094 32.757813 35.417969 32.671875 35.238281C32.984375 34.21875 33 33 33 33L31.988281 33.746094C31.929688 33.617188 31.878906 33.507813 31.824219 33.378906C31.1875 31.980469 30.4375 30.609375 29.535156 29.40625C29.976563 29.316406 30.527344 29.273438 31.109375 29.316406C32.269531 29.40625 33.460938 29.835938 34.148438 30.558594L33 32C33 32 34.175781 31.992188 35.308594 31.765625C35.585938 32.035156 35.875 32.285156 36.167969 32.535156L35 34C35 34 36.371094 33.992188 37.582031 33.703125C37.84375 33.910156 38.09375 34.101563 38.355469 34.300781L37 36C37 36 38.734375 35.992188 40.019531 35.589844C40.214844 35.738281 40.382813 35.886719 40.5625 36.039063L39 38C39 38 40.882813 37.988281 42.183594 37.53125C42.328125 37.691406 42.464844 37.847656 42.59375 38.003906L41 40C41 40 42.328125 40.039063 43.53125 39.765625L43.792969 40.84375L44.859375 40.417969C44.859375 40.417969 45.871094 40.015625 46.875 39.195313C47.882813 38.375 49 37.023438 49 35.160156C49 34.660156 49 32.78125 47.554688 31.335938L47.554688 31.332031C47.179688 30.957031 46.789063 30.691406 46.417969 30.496094C47.648438 27.863281 46 25 46 25C46 25 45.519531 27.796875 43.777344 28.691406L38.917969 23.3125C38.949219 22.957031 39.039063 22.355469 38.886719 21.234375C38.691406 19.828125 38.140625 18.039063 36.484375 17.125C33.988281 15.75 33.359375 14.535156 32.675781 13.386719C32.335938 12.8125 31.980469 12.195313 31.328125 11.71875C30.671875 11.238281 29.792969 11 28.679688 11C27.480469 11 26.644531 11.679688 25.914063 12.167969C25.183594 12.65625 24.574219 13 23.917969 13C22.976563 13 22.257813 13.121094 21.675781 13.265625C15.5625 9.152344 9 8.105469 6.359375 7.523438C4.261719 7.058594 1.679688 5.023438 1.148438 5 Z M 28.679688 13C29.535156 13 29.890625 13.144531 30.144531 13.328125C30.398438 13.515625 30.625 13.847656 30.957031 14.40625C31.617188 15.523438 32.675781 17.308594 35.515625 18.875C36.335938 19.324219 36.75 20.394531 36.90625 21.503906C37.058594 22.617188 36.9375 23.589844 36.9375 23.589844L36.878906 24.046875L44.164063 32.105469L44.683594 32.042969C44.683594 32.042969 44.757813 32.019531 45.035156 32.089844C45.3125 32.15625 45.707031 32.316406 46.140625 32.75C46.96875 33.582031 47 34.699219 47 35.160156C47 36.222656 46.363281 37.035156 45.613281 37.644531C45.222656 37.964844 45.117188 37.972656 44.832031 38.125C44.035156 36.519531 42.742188 35.175781 41.203125 33.96875C39.292969 32.472656 37.199219 31.023438 35.761719 29.347656L35.757813 29.347656C34.585938 27.984375 32.835938 27.441406 31.261719 27.324219C30.472656 27.261719 29.714844 27.308594 29.046875 27.453125C28.375 27.601563 27.78125 27.804688 27.292969 28.292969L26.578125 29.011719L27.300781 29.71875C28.292969 30.679688 29.1875 32.410156 30 34.203125C30.8125 36 31.53125 37.832031 32.550781 39.144531C34.140625 41.183594 35.625 42.007813 36.628906 42.457031C36.347656 42.726563 35.871094 43 35.058594 43C33.835938 43 33.207031 42.769531 32.453125 42.183594C31.699219 41.59375 30.84375 40.566406 29.601563 39.074219C29.160156 38.542969 28.429688 37.566406 27.511719 36.703125C26.589844 35.835938 25.4375 35 24 35C22.828125 35 21.886719 35.71875 21.175781 36.59375C20.464844 37.472656 19.90625 38.574219 19.445313 39.734375C18.703125 41.597656 18.308594 43.425781 18.148438 44.890625C12.285156 44.59375 8.820313 41.597656 6.746094 38.449219C4.804688 35.5 4.230469 32.886719 4.109375 32.28125C4.597656 31.773438 5.003906 31.203125 5.15625 30.519531C5.265625 30.042969 5.207031 29.511719 5.015625 29.015625C6.019531 28.453125 7.074219 28.425781 8.335938 28.472656L9.75 28.527344L9.328125 27.175781C9.054688 26.304688 8.367188 25.414063 7.476563 24.675781C8.578125 24.070313 9.824219 23.65625 11.476563 23.867188L12.65625 24.019531L12.601563 22.828125C12.570313 22.136719 12.246094 21.699219 11.910156 21.265625C11.574219 20.835938 11.175781 20.429688 10.785156 20.066406C10.707031 19.996094 10.707031 20.007813 10.628906 19.9375C12.542969 19.394531 13.074219 20.035156 14.566406 19.6875L15.101563 19.566406L15.28125 19.046875C15.628906 18.054688 15.441406 16.976563 14.96875 16C16.09375 15.625 17.054688 15.445313 17.8125 15.410156C18.546875 16.199219 19 17.058594 19 18C19 18 23 19 24 15C24 15 23.996094 14.996094 23.996094 14.996094C25.285156 14.972656 26.265625 14.335938 27.019531 13.832031C27.792969 13.320313 28.347656 13 28.679688 13 Z M 18.515625 20.160156C16.484375 20.195313 14.757813 20.484375 14.703125 20.8125C14.652344 21.105469 17.378906 20.914063 20.003906 23.023438C20.394531 23.335938 21.207031 22.800781 21.304688 21.699219C21.386719 20.789063 21.109375 20.265625 20.59375 20.222656C19.902344 20.167969 19.191406 20.152344 18.515625 20.160156 Z M 32 22C30.644531 22 29 23 29 23C30.886719 24.886719 33.203125 25 35 25C35 25 34.171875 22 32 22 Z M 18.785156 24.140625C18.667969 24.128906 18.546875 24.140625 18.425781 24.1875C15.292969 25.332031 13.695313 27.3125 13.84375 27.734375C13.941406 28.015625 15.9375 26.332031 19.253906 26.921875C19.746094 27.011719 20.203125 26.152344 19.757813 25.136719C19.484375 24.507813 19.144531 24.1875 18.785156 24.140625 Z M 17.902344 28.96875C17.804688 28.988281 17.714844 29.03125 17.632813 29.097656C15.503906 30.824219 14.792969 32.789063 15.019531 33.078125C15.167969 33.265625 16.269531 31.429688 19.003906 31.003906C19.410156 30.941406 19.535156 30.152344 18.921875 29.484375C18.539063 29.070313 18.191406 28.910156 17.902344 28.96875Z" />
</svg>