<?xml version="1.0" encoding="utf-8"?>
<svg xmlns="http://www.w3.org/2000/svg" viewBox="0 0 50 50" width="515" height="515">
  <path d="M2 14L2 16L48 16L48 14 Z M 2 24L2 26L48 26L48 24 Z M 2 34L2 36L48 36L48 34 Z M 17.8125 41C17.433594 41.058594 17.121094 41.328125 17.007813 41.691406C16.894531 42.058594 17 42.457031 17.28125 42.71875L24.28125 49.71875C24.46875 49.914063 24.730469 50.023438 25 50.023438C25.269531 50.023438 25.53125 49.914063 25.71875 49.71875L32.71875 42.71875C33.015625 42.433594 33.105469 41.992188 32.945313 41.613281C32.789063 41.234375 32.410156 40.992188 32 41L18 41C17.96875 41 17.9375 41 17.90625 41C17.875 41 17.84375 41 17.8125 41 Z M 20.4375 43L29.5625 43L25 47.5625Z" />
</svg>