<?xml version="1.0" encoding="utf-8"?>
<svg xmlns="http://www.w3.org/2000/svg" viewBox="0 0 50 50" width="515" height="515">
  <path d="M24 0C23.445313 0 23 0.445313 23 1L23 3.4375C21.242188 4.214844 20 5.964844 20 8C20 8.355469 20.023438 8.699219 20.09375 9.03125L13.8125 26L8 26C7.96875 26 7.9375 26 7.90625 26C7.875 26 7.84375 26 7.8125 26C7.261719 26.050781 6.855469 26.542969 6.90625 27.09375C6.957031 27.644531 7.449219 28.050781 8 28L13.0625 28L8.3125 40.84375C8.238281 41.054688 8.238281 41.289063 8.3125 41.5L10 47.125L10 49C9.996094 49.359375 10.183594 49.695313 10.496094 49.878906C10.808594 50.058594 11.191406 50.058594 11.503906 49.878906C11.816406 49.695313 12.003906 49.359375 12 49L12 47.125L19.34375 28L23 28L23 31C23 31.554688 23.445313 32 24 32L26 32C26.554688 32 27 31.554688 27 31L27 28L30.65625 28L38 47.125L38 49C37.996094 49.359375 38.183594 49.695313 38.496094 49.878906C38.808594 50.058594 39.191406 50.058594 39.503906 49.878906C39.816406 49.695313 40.003906 49.359375 40 49L40 47.125L41.6875 41.5C41.761719 41.289063 41.761719 41.054688 41.6875 40.84375L36.9375 28L42 28C42.359375 28.003906 42.695313 27.816406 42.878906 27.503906C43.058594 27.191406 43.058594 26.808594 42.878906 26.496094C42.695313 26.183594 42.359375 25.996094 42 26L36.1875 26L29.90625 9.03125C29.976563 8.699219 30 8.355469 30 8C30 5.964844 28.757813 4.214844 27 3.4375L27 1C27 0.445313 26.554688 0 26 0 Z M 25 5C26.667969 5 28 6.332031 28 8C28 8.207031 27.976563 8.398438 27.9375 8.59375C27.886719 8.703125 27.855469 8.816406 27.84375 8.9375C27.515625 9.953125 26.65625 10.722656 25.59375 10.9375C25.53125 10.949219 25.46875 10.960938 25.40625 10.96875C25.269531 10.988281 25.140625 11 25 11C24.878906 11 24.773438 10.980469 24.65625 10.96875C24.582031 10.960938 24.511719 10.953125 24.4375 10.9375C24.425781 10.9375 24.417969 10.9375 24.40625 10.9375C24.386719 10.933594 24.363281 10.941406 24.34375 10.9375C23.308594 10.707031 22.480469 9.933594 22.15625 8.9375C22.148438 8.839844 22.128906 8.746094 22.09375 8.65625C22.089844 8.644531 22.066406 8.636719 22.0625 8.625C22.0625 8.613281 22.0625 8.605469 22.0625 8.59375C22.023438 8.398438 22 8.207031 22 8C22 6.332031 23.332031 5 25 5 Z M 21.375 11.40625C21.855469 11.917969 22.4375 12.320313 23.09375 12.59375L17.84375 26.28125C17.648438 26.480469 17.546875 26.753906 17.5625 27.03125L11.125 43.8125L10.3125 41.1875L15.40625 27.46875C15.453125 27.378906 15.484375 27.285156 15.5 27.1875 Z M 28.625 11.40625L34.4375 27L34.4375 27.03125C34.4375 27.050781 34.4375 27.074219 34.4375 27.09375C34.457031 27.289063 34.53125 27.472656 34.65625 27.625L39.6875 41.1875L38.875 43.8125L32.34375 26.78125C32.335938 26.738281 32.324219 26.695313 32.3125 26.65625L32.28125 26.59375L26.90625 12.59375C27.5625 12.320313 28.144531 11.917969 28.625 11.40625 Z M 25 13.21875L29.90625 26L27 26L27 23C27 22.445313 26.554688 22 26 22L24 22C23.445313 22 23 22.445313 23 23L23 26L20.09375 26Z" />
</svg>