<?xml version="1.0" encoding="utf-8"?>
<svg xmlns="http://www.w3.org/2000/svg" viewBox="0 0 50 50" width="515" height="515">
  <path d="M24.90625 0.96875C24.863281 0.976563 24.820313 0.988281 24.78125 1C24.316406 1.105469 23.988281 1.523438 24 2L24 4.1875L20 5.03125C20 5.019531 20 5.011719 20 5C20.003906 4.710938 19.878906 4.4375 19.664063 4.246094C19.449219 4.054688 19.160156 3.964844 18.875 4C18.8125 4.015625 18.746094 4.035156 18.6875 4.0625L15.6875 5.0625C15.28125 5.195313 15.003906 5.574219 15 6C15 6.039063 15 6.085938 15 6.125L10.78125 7.03125C10.398438 7.070313 10.070313 7.328125 9.941406 7.691406C9.8125 8.054688 9.90625 8.460938 10.175781 8.734375C10.449219 9.003906 10.855469 9.097656 11.21875 8.96875L15.0625 8.125C15.363281 14.464844 16.839844 21.253906 16.96875 21.84375C16.96875 21.875 16.96875 21.90625 16.96875 21.9375C16.859375 22.3125 12.605469 37.085938 11.03125 45.8125C10.933594 46.347656 11.28125 46.859375 11.8125 46.96875C11.8125 46.96875 16.917969 48 25 48C33.082031 48 38.1875 46.96875 38.1875 46.96875C38.71875 46.859375 39.066406 46.347656 38.96875 45.8125C37.394531 37.085938 33.140625 22.3125 33.03125 21.9375C33.121094 21.527344 34.632813 14.570313 34.9375 8.125L38.78125 8.96875C39.144531 9.097656 39.550781 9.003906 39.824219 8.734375C40.09375 8.460938 40.1875 8.054688 40.058594 7.691406C39.929688 7.328125 39.601563 7.070313 39.21875 7.03125L35 6.125C35 6.085938 35 6.039063 35 6C34.996094 5.574219 34.71875 5.195313 34.3125 5.0625L31.3125 4.0625C31.011719 3.964844 30.679688 4.011719 30.417969 4.199219C30.160156 4.382813 30.003906 4.679688 30 5C30 5.011719 30 5.019531 30 5.03125L26 4.1875L26 2C26.011719 1.710938 25.894531 1.433594 25.6875 1.238281C25.476563 1.039063 25.191406 0.941406 24.90625 0.96875 Z M 25 6L25.03125 6L29.84375 7.0625C29.472656 9.304688 28.476563 10.332031 27.375 11.25C26.675781 11.832031 25.894531 12.324219 25.21875 13.03125C25.128906 13.125 25.082031 13.273438 25 13.375C24.921875 13.28125 24.863281 13.148438 24.78125 13.0625C24.105469 12.359375 23.355469 11.863281 22.65625 11.28125C21.554688 10.359375 20.535156 9.3125 20.15625 7.0625 Z M 18.15625 6.3125C18.492188 9.679688 19.925781 11.628906 21.34375 12.8125C22.144531 13.480469 22.894531 13.96875 23.34375 14.4375C23.792969 14.90625 24 15.273438 24 16L26 16C26 15.253906 26.207031 14.878906 26.65625 14.40625C27.105469 13.933594 27.824219 13.445313 28.625 12.78125C30.042969 11.605469 31.507813 9.679688 31.84375 6.3125L32.9375 6.6875C32.828125 12.648438 31.453125 19.71875 31.15625 21.1875C29.96875 21.449219 27.148438 22 25 22C22.851563 22 20.03125 21.449219 18.84375 21.1875C18.550781 19.742188 17.207031 12.871094 17.0625 6.96875C17.0625 6.9375 17.0625 6.90625 17.0625 6.875C17.0625 6.8125 17.0625 6.75 17.0625 6.6875 Z M 18.71875 23.1875C20.089844 23.488281 22.710938 24 25 24C27.289063 24 29.910156 23.488281 31.28125 23.1875C31.9375 25.492188 35.265625 37.28125 36.78125 45.15625C35.570313 45.367188 31.730469 46 25 46C18.269531 46 14.429688 45.367188 13.21875 45.15625C14.734375 37.28125 18.0625 25.492188 18.71875 23.1875Z" />
</svg>