<?xml version="1.0" encoding="utf-8"?>
<svg xmlns="http://www.w3.org/2000/svg" viewBox="0 0 50 50" width="515" height="515">
  <path d="M4.75 7C3.472656 7 2.332031 7.597656 1.46875 8.46875C0.605469 9.339844 0 10.53125 0 11.8125L0 23.1875C0 24.46875 0.605469 25.660156 1.46875 26.53125C2.332031 27.402344 3.472656 28 4.75 28L5.53125 28C6.304688 28 6.417969 28.1875 6.59375 28.59375C6.769531 29 6.792969 29.722656 6.6875 30.28125C6.574219 30.886719 5.925781 33.878906 5.3125 36.625C4.703125 39.355469 4.132813 41.878906 4.125 41.90625C4.125 41.90625 4.125 41.9375 4.125 41.9375C3.941406 42.65625 3.898438 43.386719 4.28125 44.03125C4.667969 44.683594 5.480469 45 6.21875 45L16.34375 45C16.957031 45 17.582031 44.808594 18.09375 44.40625C18.605469 44.003906 19 43.335938 19 42.5625C19 41.78125 18.636719 41.128906 18.25 40.65625C17.863281 40.183594 17.433594 39.84375 17.09375 39.53125C16.753906 39.21875 16.539063 38.9375 16.4375 38.71875C16.335938 38.5 16.265625 38.328125 16.40625 37.90625C16.992188 36.121094 17.1875 35.402344 17.625 34C17.625 33.996094 17.65625 34.003906 17.65625 34L22 34C22.550781 34 23 33.550781 23 33C23 30.960938 23.449219 29.625 23.875 28.8125C24.089844 28.40625 24.273438 28.15625 24.40625 28L25.46875 28C25.820313 28 26.0625 27.929688 26.375 27.84375C26.6875 27.757813 27.042969 27.644531 27.4375 27.5C28.226563 27.214844 29.160156 26.828125 30.0625 26.40625C30.964844 25.984375 31.808594 25.511719 32.5 25.0625C32.84375 24.839844 33.148438 24.628906 33.40625 24.375C33.519531 24.265625 33.644531 24.148438 33.75 24L38.40625 24C39.101563 24 39.480469 23.722656 39.9375 23.40625C40.394531 23.089844 40.855469 22.683594 41.28125 22.25C41.707031 21.816406 42.097656 21.339844 42.40625 20.875C42.597656 20.585938 42.765625 20.320313 42.875 20L47.25 20L50 18.625L50 16.375L47.25 15L42.875 15C42.765625 14.679688 42.597656 14.414063 42.40625 14.125C42.097656 13.660156 41.707031 13.183594 41.28125 12.75C40.855469 12.316406 40.394531 11.910156 39.9375 11.59375C39.480469 11.277344 39.101563 11 38.40625 11L33.75 11C33.644531 10.851563 33.519531 10.734375 33.40625 10.625C33.148438 10.371094 32.84375 10.160156 32.5 9.9375C31.808594 9.488281 30.964844 9.015625 30.0625 8.59375C29.160156 8.171875 28.226563 7.785156 27.4375 7.5C27.042969 7.355469 26.6875 7.242188 26.375 7.15625C26.0625 7.070313 25.820313 7 25.46875 7 Z M 4.75 9L25.46875 9C25.375 9 25.574219 9.027344 25.8125 9.09375C26.050781 9.160156 26.390625 9.242188 26.75 9.375C27.46875 9.636719 28.339844 10.007813 29.1875 10.40625C30.035156 10.804688 30.878906 11.230469 31.4375 11.59375C31.675781 11.746094 31.824219 11.898438 31.9375 12C31.945313 12.097656 31.964844 12.191406 32 12.28125L32 22.8125C32 22.84375 32 22.875 32 22.90625L32 22.96875C31.894531 23.070313 31.699219 23.234375 31.4375 23.40625C30.878906 23.769531 30.035156 24.195313 29.1875 24.59375C28.339844 24.992188 27.46875 25.363281 26.75 25.625C26.390625 25.757813 26.050781 25.839844 25.8125 25.90625C25.574219 25.972656 25.375 26 25.46875 26L4.75 26C4.144531 26 3.425781 25.648438 2.875 25.09375C2.324219 24.539063 2 23.808594 2 23.1875L2 11.8125C2 11.191406 2.324219 10.460938 2.875 9.90625C3.425781 9.351563 4.144531 9 4.75 9 Z M 34 13L38.34375 13C38.355469 13.019531 38.578125 13.089844 38.8125 13.25C39.125 13.464844 39.492188 13.800781 39.84375 14.15625C40.195313 14.511719 40.539063 14.898438 40.75 15.21875C40.910156 15.457031 40.980469 15.695313 41 15.71875L41 19.34375C40.96875 19.421875 40.878906 19.589844 40.75 19.78125C40.539063 20.101563 40.195313 20.488281 39.84375 20.84375C39.492188 21.199219 39.125 21.535156 38.8125 21.75C38.578125 21.910156 38.355469 21.980469 38.34375 22L34 22 Z M 43 17L46.75 17L47.75 17.5L46.75 18L43 18 Z M 8.5 28L18.0625 28C18.027344 28.042969 17.972656 28.082031 17.9375 28.125C17.171875 29.117188 16.78125 30.09375 16.78125 30.09375L16.78125 30.125L16.75 30.15625C16.75 30.15625 15.59375 34.035156 14.53125 37.28125C14.261719 38.105469 14.328125 38.933594 14.625 39.5625C14.921875 40.191406 15.355469 40.636719 15.75 41C16.144531 41.363281 16.503906 41.648438 16.71875 41.90625C16.933594 42.164063 17 42.332031 17 42.5625C17 42.710938 16.957031 42.753906 16.84375 42.84375C16.730469 42.933594 16.511719 43 16.34375 43L6.21875 43C5.933594 43 6.019531 42.980469 6.03125 43C6.042969 43.019531 5.949219 42.832031 6.0625 42.40625L6.0625 42.375C6.0625 42.375 6.667969 39.8125 7.28125 37.0625C7.894531 34.3125 8.507813 31.449219 8.65625 30.65625C8.800781 29.871094 8.839844 28.917969 8.5 28 Z M 21.75 28L22.09375 28C21.632813 28.914063 21.257813 30.277344 21.125 32L18.28125 32C18.34375 31.800781 18.652344 30.824219 18.65625 30.8125C18.65625 30.8125 18.6875 30.78125 18.6875 30.78125C18.6875 30.78125 18.6875 30.75 18.6875 30.75C18.710938 30.691406 18.957031 30.046875 19.5 29.34375C20.066406 28.609375 20.828125 28 21.75 28Z" />
</svg>