<?xml version="1.0" encoding="utf-8"?>
<svg xmlns="http://www.w3.org/2000/svg" viewBox="0 0 50 50" width="515" height="515">
  <path d="M7 9C4.25 9 2 11.25 2 14L2 36C2 38.75 4.25 41 7 41L43 41C45.75 41 48 38.75 48 36L48 14C48 11.25 45.75 9 43 9 Z M 7 11L43 11C44.667969 11 46 12.332031 46 14L46 36C46 37.667969 44.667969 39 43 39L7 39C5.332031 39 4 37.667969 4 36L4 14C4 12.332031 5.332031 11 7 11 Z M 23 12C22.449219 12 22 12.449219 22 13C22 13.550781 22.449219 14 23 14C23.550781 14 24 13.550781 24 13C24 12.449219 23.550781 12 23 12 Z M 13.4375 14C10.898438 14 9.953125 15.976563 10.6875 17.65625C10.59375 17.714844 10.460938 17.890625 10.5 18.21875C10.570313 18.832031 10.8125 18.988281 10.96875 19C11.027344 19.574219 11.394531 20.269531 11.59375 20.375C11.59375 20.785156 11.601563 21.082031 11.5625 21.53125C11.089844 22.839844 8.148438 22.476563 8 25L18 25C17.851563 22.476563 14.695313 22.839844 14.21875 21.53125C14.179688 21.082031 14.1875 20.785156 14.1875 20.375C14.386719 20.269531 14.753906 19.574219 14.8125 19C14.96875 18.988281 15.210938 18.832031 15.28125 18.21875C15.320313 17.890625 15.1875 17.691406 15.0625 17.65625C15.53125 17.042969 15.453125 14.5625 13.6875 14.5625 Z M 23 15C22.449219 15 22 15.449219 22 16C22 16.550781 22.449219 17 23 17C23.550781 17 24 16.550781 24 16C24 15.449219 23.550781 15 23 15 Z M 23 18C22.449219 18 22 18.449219 22 19C22 19.550781 22.449219 20 23 20C23.550781 20 24 19.550781 24 19C24 18.449219 23.550781 18 23 18 Z M 27.8125 18C27.261719 18.050781 26.855469 18.542969 26.90625 19.09375C26.957031 19.644531 27.449219 20.050781 28 20L41 20C41.359375 20.003906 41.695313 19.816406 41.878906 19.503906C42.058594 19.191406 42.058594 18.808594 41.878906 18.496094C41.695313 18.183594 41.359375 17.996094 41 18L28 18C27.96875 18 27.9375 18 27.90625 18C27.875 18 27.84375 18 27.8125 18 Z M 23 21C22.449219 21 22 21.449219 22 22C22 22.550781 22.449219 23 23 23C23.550781 23 24 22.550781 24 22C24 21.449219 23.550781 21 23 21 Z M 27.8125 22C27.261719 22.050781 26.855469 22.542969 26.90625 23.09375C26.957031 23.644531 27.449219 24.050781 28 24L38 24C38.359375 24.003906 38.695313 23.816406 38.878906 23.503906C39.058594 23.191406 39.058594 22.808594 38.878906 22.496094C38.695313 22.183594 38.359375 21.996094 38 22L28 22C27.96875 22 27.9375 22 27.90625 22C27.875 22 27.84375 22 27.8125 22 Z M 23 24C22.449219 24 22 24.449219 22 25C22 25.550781 22.449219 26 23 26C23.550781 26 24 25.550781 24 25C24 24.449219 23.550781 24 23 24 Z M 27.8125 26C27.261719 26.050781 26.855469 26.542969 26.90625 27.09375C26.957031 27.644531 27.449219 28.050781 28 28L41 28C41.359375 28.003906 41.695313 27.816406 41.878906 27.503906C42.058594 27.191406 42.058594 26.808594 41.878906 26.496094C41.695313 26.183594 41.359375 25.996094 41 26L28 26C27.96875 26 27.9375 26 27.90625 26C27.875 26 27.84375 26 27.8125 26 Z M 10.71875 27C9.863281 27 9.082031 27.5625 8.8125 28.375L8.0625 30.6875L8 30.84375L8 35.5C8 35.777344 8.222656 36 8.5 36L9.5 36C9.777344 36 10 35.777344 10 35.5L10 35L16 35L16 35.5C16 35.777344 16.222656 36 16.5 36L17.5 36C17.777344 36 18 35.777344 18 35.5L18 30.84375L17.9375 30.6875L17.1875 28.375C16.917969 27.558594 16.136719 27 15.28125 27 Z M 23 27C22.449219 27 22 27.449219 22 28C22 28.550781 22.449219 29 23 29C23.550781 29 24 28.550781 24 28C24 27.449219 23.550781 27 23 27 Z M 10.71875 29L15.28125 29L15.96875 31L10.03125 31 Z M 23 30C22.449219 30 22 30.449219 22 31C22 31.550781 22.449219 32 23 32C23.550781 32 24 31.550781 24 31C24 30.449219 23.550781 30 23 30 Z M 27.8125 30C27.261719 30.050781 26.855469 30.542969 26.90625 31.09375C26.957031 31.644531 27.449219 32.050781 28 32L38 32C38.359375 32.003906 38.695313 31.816406 38.878906 31.503906C39.058594 31.191406 39.058594 30.808594 38.878906 30.496094C38.695313 30.183594 38.359375 29.996094 38 30L28 30C27.96875 30 27.9375 30 27.90625 30C27.875 30 27.84375 30 27.8125 30 Z M 10 32C10.550781 32 11 32.449219 11 33C11 33.550781 10.550781 34 10 34C9.449219 34 9 33.550781 9 33C9 32.449219 9.449219 32 10 32 Z M 16 32C16.550781 32 17 32.449219 17 33C17 33.550781 16.550781 34 16 34C15.449219 34 15 33.550781 15 33C15 32.449219 15.449219 32 16 32 Z M 23 33C22.449219 33 22 33.449219 22 34C22 34.550781 22.449219 35 23 35C23.550781 35 24 34.550781 24 34C24 33.449219 23.550781 33 23 33 Z M 23 36C22.449219 36 22 36.449219 22 37C22 37.550781 22.449219 38 23 38C23.550781 38 24 37.550781 24 37C24 36.449219 23.550781 36 23 36Z" />
</svg>