<?xml version="1.0" encoding="utf-8"?>
<svg xmlns="http://www.w3.org/2000/svg" viewBox="0 0 50 50" width="515" height="515">
  <path d="M25 0C19.972656 0 16 4.550781 16 10C16 15.449219 19.972656 20 25 20C30.027344 20 34 15.449219 34 10C34 4.550781 30.027344 0 25 0 Z M 25 2C28.808594 2 32 5.511719 32 10C32 14.488281 28.808594 18 25 18C21.191406 18 18 14.488281 18 10C18 5.511719 21.191406 2 25 2 Z M 25 21.0625C19.15625 21.0625 15.496094 21.910156 12.28125 23.15625C11.234375 23.5625 10.496094 24.371094 9.84375 25.28125C9.191406 26.191406 8.597656 27.246094 7.90625 28.3125C5.800781 31.554688 2.035156 37.15625 0.84375 39.46875C-0.0390625 41.179688 -0.171875 42.867188 0.65625 44.46875C1.441406 45.988281 2.46875 47.832031 3.40625 49.46875L3.65625 49.9375L10.9375 49.9375L10.9375 49C10.9375 42.402344 17.152344 36.9375 25 36.9375C32.847656 36.9375 39.0625 42.402344 39.0625 49L39.0625 49.9375L46.3125 49.9375L46.59375 49.46875C47.53125 47.832031 48.558594 45.988281 49.34375 44.46875C50.171875 42.867188 50.039063 41.179688 49.15625 39.46875C48.550781 38.296875 47.238281 36.292969 45.84375 34.15625C44.449219 32.019531 42.992188 29.800781 42.125 28.34375C40.808594 26.128906 39.832031 23.882813 37.71875 23.125C34.449219 21.949219 30.851563 21.0625 25 21.0625 Z M 25 22.9375C30.664063 22.9375 33.910156 23.742188 37.0625 24.875C38.117188 25.253906 39.179688 27.007813 40.53125 29.28125C41.441406 30.8125 42.890625 33.054688 44.28125 35.1875C45.671875 37.320313 47.003906 39.382813 47.5 40.34375C48.234375 41.765625 48.285156 42.472656 47.6875 43.625C46.996094 44.960938 46.074219 46.5625 45.21875 48.0625L40.8125 48.0625C40.246094 40.761719 33.355469 35.0625 25 35.0625C16.644531 35.0625 9.753906 40.761719 9.1875 48.0625L4.75 48.0625C3.894531 46.5625 3.003906 44.960938 2.3125 43.625C1.714844 42.472656 1.765625 41.765625 2.5 40.34375C3.507813 38.390625 7.347656 32.578125 9.46875 29.3125C10.199219 28.1875 10.8125 27.128906 11.375 26.34375C11.9375 25.558594 12.445313 25.078125 12.96875 24.875C16.003906 23.699219 19.328125 22.9375 25 22.9375 Z M 25 39C18.492188 39 13 43.359375 13 48.96875C12.996094 49.328125 13.183594 49.664063 13.496094 49.847656C13.808594 50.027344 14.191406 50.027344 14.503906 49.847656C14.816406 49.664063 15.003906 49.328125 15 48.96875C15 44.691406 19.378906 41 25 41C30.621094 41 35 44.691406 35 48.96875C34.996094 49.328125 35.183594 49.664063 35.496094 49.847656C35.808594 50.027344 36.191406 50.027344 36.503906 49.847656C36.816406 49.664063 37.003906 49.328125 37 48.96875C37 43.359375 31.507813 39 25 39Z" />
</svg>