<?xml version="1.0" encoding="utf-8"?>
<svg xmlns="http://www.w3.org/2000/svg" viewBox="0 0 50 50" width="515" height="515">
  <path d="M15.5 2C12.472656 2 10 4.472656 10 7.5C10 10.527344 12.472656 13 15.5 13C18.527344 13 21 10.527344 21 7.5C21 4.472656 18.527344 2 15.5 2 Z M 15.5 4C17.445313 4 19 5.554688 19 7.5C19 9.445313 17.445313 11 15.5 11C13.554688 11 12 9.445313 12 7.5C12 5.554688 13.554688 4 15.5 4 Z M 4 11L4 13L10.34375 17.21875C10.507813 16.6875 10.71875 16.171875 11 15.6875 Z M 40 11.96875C39.9375 11.972656 39.875 11.984375 39.8125 12C39.488281 12.066406 39.222656 12.289063 39.09375 12.59375L37.5625 15.96875C36.90625 14.855469 35.59375 14.238281 34.28125 14.5625C34.269531 14.566406 34.261719 14.558594 34.25 14.5625L26.375 16.5L17.875 14.1875C17.007813 13.941406 16.097656 13.890625 15.21875 14.0625C15.207031 14.0625 15.199219 14.0625 15.1875 14.0625C12.269531 14.71875 10.40625 17.640625 11.0625 20.5625C11.101563 20.738281 11.160156 20.917969 11.21875 21.09375L11.21875 21.125L14.84375 33.53125C15.476563 35.75 17.300781 37.351563 19.4375 37.78125L17 43L19 43L21.40625 37.8125C21.566406 37.792969 21.714844 37.785156 21.875 37.75L32.03125 35.53125L36.9375 45.875C37.773438 47.730469 39.957031 48.554688 41.8125 47.71875C43.527344 46.945313 44.320313 45.003906 43.78125 43.25C43.777344 43.238281 43.785156 43.230469 43.78125 43.21875C43.742188 43.09375 43.742188 42.964844 43.6875 42.84375L43.65625 42.75C43.636719 42.71875 43.617188 42.6875 43.59375 42.65625L37.6875 29.375C37.050781 27.941406 35.628906 27.011719 34.0625 27L24.6875 27L22.9375 21.84375L26.3125 22.375C26.953125 22.464844 27.621094 22.4375 28.25 22.28125L35.53125 20.4375L34.09375 23.59375C33.894531 23.925781 33.90625 24.339844 34.117188 24.660156C34.332031 24.980469 34.710938 25.152344 35.09375 25.097656C35.472656 25.042969 35.792969 24.773438 35.90625 24.40625L40.90625 13.40625C41.058594 13.09375 41.039063 12.726563 40.851563 12.433594C40.667969 12.144531 40.347656 11.964844 40 11.96875 Z M 16.46875 15.96875C16.75 15.976563 17.039063 16.015625 17.3125 16.09375C17.324219 16.09375 17.332031 16.09375 17.34375 16.09375L26.09375 18.5C26.257813 18.542969 26.429688 18.542969 26.59375 18.5L34.75 16.5C35.296875 16.359375 35.828125 16.671875 35.96875 17.21875C36.105469 17.757813 35.8125 18.285156 35.28125 18.4375C35.273438 18.441406 35.257813 18.433594 35.25 18.4375L27.75 20.34375C27.371094 20.4375 26.980469 20.429688 26.59375 20.375L26.59375 20.40625L21.625 19.625C21.273438 19.5625 20.917969 19.6875 20.683594 19.957031C20.453125 20.226563 20.382813 20.601563 20.5 20.9375L23.0625 28.3125C23.140625 28.570313 23.324219 28.785156 23.5625 28.90625L20.34375 35.84375C18.691406 35.742188 17.226563 34.664063 16.75 33C16.75 32.988281 16.75 32.980469 16.75 32.96875L13.125 20.53125C13.125 20.519531 13.125 20.511719 13.125 20.5C13.085938 20.386719 13.058594 20.25 13.03125 20.125C12.613281 18.269531 13.746094 16.464844 15.59375 16.03125C15.605469 16.027344 15.613281 16.035156 15.625 16.03125C15.90625 15.976563 16.1875 15.960938 16.46875 15.96875 Z M 25.53125 29L34.0625 29C34.835938 29.015625 35.527344 29.476563 35.84375 30.1875L41.84375 43.65625C42.234375 44.523438 41.867188 45.515625 41 45.90625C40.132813 46.296875 39.140625 45.898438 38.75 45.03125L33.46875 33.96875C33.265625 33.566406 32.816406 33.347656 32.375 33.4375L22.46875 35.5625Z" />
</svg>