<?xml version="1.0" encoding="utf-8"?>
<svg xmlns="http://www.w3.org/2000/svg" viewBox="0 0 50 50" width="515" height="515">
  <path d="M15.5 1C15.34375 1.015625 15.195313 1.070313 15.0625 1.15625L0.46875 10.5625C0.199219 10.738281 0.03125 11.035156 0.0195313 11.359375C0.0078125 11.679688 0.152344 11.988281 0.40625 12.1875L9.34375 18.96875L0.40625 25.6875C0.128906 25.886719 -0.03125 26.214844 -0.0117188 26.558594C0.0078125 26.898438 0.199219 27.207031 0.5 27.375L9 32.375L9 39.09375C8.996094 39.429688 9.160156 39.746094 9.4375 39.9375L24.4375 49.84375C24.777344 50.074219 25.222656 50.074219 25.5625 49.84375L40.5625 40.03125C40.839844 39.839844 41.003906 39.523438 41 39.1875L41 32.4375L49.5 27.34375C49.769531 27.179688 49.945313 26.898438 49.976563 26.585938C50.007813 26.273438 49.890625 25.960938 49.65625 25.75L41.25 18.625L49.625 11.78125C49.875 11.578125 50.015625 11.265625 49.996094 10.945313C49.976563 10.621094 49.804688 10.328125 49.53125 10.15625L35.34375 1.15625C35.140625 1.023438 34.898438 0.96875 34.65625 1C34.472656 1.023438 34.300781 1.101563 34.15625 1.21875L25.03125 8.8125L16.25 1.25C16.046875 1.066406 15.773438 0.976563 15.5 1 Z M 15.53125 3.25L23.34375 9.96875L11.03125 17.78125L2.75 11.46875 Z M 34.875 3.25L47.28125 11.09375L39.59375 17.375L26.75 9.9375 Z M 25 11.28125L37.75 18.625L24.96875 26.625L12.875 19 Z M 39.59375 19.8125L47.3125 26.375L39.6875 30.9375L39.59375 30.96875C39.503906 31.007813 39.417969 31.0625 39.34375 31.125L34.6875 33.90625L26.75 27.875 Z M 11.0625 20.21875L23.25 27.875L15.53125 33.90625L2.8125 26.40625 Z M 25.03125 29.0625L34 35.90625C34.328125 36.15625 34.773438 36.179688 35.125 35.96875L39 33.65625L39 38.65625L25 47.78125L11 38.53125L11 33.5625L15.09375 35.96875C15.453125 36.171875 15.898438 36.136719 16.21875 35.875Z" />
</svg>