<?xml version="1.0" encoding="utf-8"?>
<svg xmlns="http://www.w3.org/2000/svg" viewBox="0 0 50 50" width="515" height="515">
  <path d="M25 2C12.303827 2 2 12.359516 2 24 A 1.0001 1.0001 0 0 0 2.5449219 24.892578L17 33.929688L17 34L17 48L33 48L33 33.929688L47.515625 24.857422 A 1.0001 1.0001 0 0 0 48 24C48 12.359516 37.696173 2 25 2 z M 22.220703 4.2070312C18.790294 8.0809293 16.575527 14.456005 16.103516 21.273438C14.566904 19.870003 12.415642 19 10 19C7.8109381 19 5.8569849 19.743359 4.3417969 20.908203C5.8229687 12.573512 13.067226 5.4348428 22.220703 4.2070312 z M 27.779297 4.2070312C36.932774 5.4348428 44.177032 12.573512 45.658203 20.908203C44.143015 19.743359 42.189062 19 40 19C37.584358 19 35.433096 19.870003 33.896484 21.273438C33.424473 14.456005 31.209706 8.0809293 27.779297 4.2070312 z M 25 4.2832031C28.511655 7.2662518 31.307554 13.981649 31.882812 21.271484C30.148214 19.855977 27.72394 19 25 19C22.27606 19 19.851786 19.855977 18.117188 21.271484C18.692446 13.981649 21.488345 7.2662518 25 4.2832031 z M 10 21C12.890641 21 15.256891 22.515664 16.083984 24.402344 A 1.0001 1.0001 0 0 0 16.181641 24.576172L21.234375 33L19.287109 33L4.3417969 23.660156C5.4016505 22.134983 7.5018747 21 10 21 z M 25 21C28.124377 21 30.706818 22.348926 31.828125 24.011719L26.433594 33L23.566406 33L18.171875 24.011719C19.293182 22.348927 21.875623 21 25 21 z M 40 21C42.498125 21 44.59835 22.134983 45.658203 23.660156L30.712891 33L28.765625 33L33.837891 24.546875 A 1.0001 1.0001 0 0 0 33.916016 24.402344C34.743109 22.515662 37.109359 21 40 21 z M 19 35L22.96875 35L31 35L31 46L19 46L19 35 z M 23 37 A 1.0001 1.0001 0 1 0 23 39L27 39 A 1.0001 1.0001 0 1 0 27 37L23 37 z" />
</svg>