<?xml version="1.0" encoding="utf-8"?>
<svg xmlns="http://www.w3.org/2000/svg" viewBox="0 0 523 523" width="515" height="515">
  <path d="M115.09961 41.839844C74.752615 41.839844 41.839844 74.752615 41.839844 115.09961L41.839844 408C41.839844 448.26331 74.752615 481.16016 115.09961 481.16016L408 481.16016C448.34699 481.16016 481.25977 448.24738 481.25977 407.90039L481.25977 115.09961C481.25977 74.752615 448.34699 41.839844 408 41.839844L115.09961 41.839844 z M 115.09961 62.759766L408 62.759766C437.05301 62.759766 460.33984 86.046602 460.33984 115.09961L460.33984 407.90039C460.33984 436.9534 437.05301 460.24023 408 460.24023L115.09961 460.24023C86.046602 460.24023 62.759766 436.93669 62.759766 408L62.759766 115.09961C62.759766 86.046602 86.046602 62.759766 115.09961 62.759766 z M 408.12109 188.13867 A 10.461046 10.461046 0 0 0 400.80859 191.00977L261.5 319.4707L122.19141 191.00977 A 10.461046 10.461046 0 1 0 108.00977 206.39062L261.5 347.92773L414.99023 206.39062 A 10.461046 10.461046 0 0 0 408.12109 188.13867 z" />
</svg>