<?xml version="1.0" encoding="utf-8"?>
<svg xmlns="http://www.w3.org/2000/svg" viewBox="0 0 50 50" width="515" height="515">
  <path d="M2.8125 3C2.359375 3.082031 2.023438 3.460938 1.992188 3.917969C1.960938 4.378906 2.25 4.796875 2.6875 4.9375L8 6.71875L8 14L10 14L10 7.375L14.6875 8.9375C15.039063 9.117188 15.460938 9.074219 15.769531 8.828125C16.078125 8.582031 16.210938 8.179688 16.113281 7.796875C16.015625 7.417969 15.703125 7.128906 15.3125 7.0625L10.96875 5.59375C10.78125 4.683594 9.96875 4 9 4C8.488281 4 8.042969 4.214844 7.6875 4.53125L3.3125 3.0625C3.152344 3 2.980469 2.976563 2.8125 3 Z M 42 4C40.894531 4 40 4.894531 40 6L44 6C44 4.894531 43.105469 4 42 4 Z M 35.71875 7C35.167969 7.078125 34.78125 7.589844 34.859375 8.140625C34.9375 8.691406 35.449219 9.078125 36 9L48 9C48.359375 9.003906 48.695313 8.816406 48.878906 8.503906C49.058594 8.191406 49.058594 7.808594 48.878906 7.496094C48.695313 7.183594 48.359375 6.996094 48 7L36 7C35.96875 7 35.9375 7 35.90625 7C35.875 7 35.84375 7 35.8125 7C35.78125 7 35.75 7 35.71875 7 Z M 35.71875 10C35.167969 10.078125 34.78125 10.589844 34.859375 11.140625C34.9375 11.691406 35.449219 12.078125 36 12L41 12L41 14L43 14L43 12L48 12C48.359375 12.003906 48.695313 11.816406 48.878906 11.503906C49.058594 11.191406 49.058594 10.808594 48.878906 10.496094C48.695313 10.183594 48.359375 9.996094 48 10L36 10C35.96875 10 35.9375 10 35.90625 10C35.875 10 35.84375 10 35.8125 10C35.78125 10 35.75 10 35.71875 10 Z M 1.8125 15C1.335938 15.089844 0.992188 15.511719 1 16L1 26C1 26.550781 1.449219 27 2 27L8 27L8 46C7.996094 46.359375 8.183594 46.695313 8.496094 46.878906C8.808594 47.058594 9.191406 47.058594 9.503906 46.878906C9.816406 46.695313 10.003906 46.359375 10 46L10 27L12.375 27C11.503906 28.824219 11 30.847656 11 33C11 37.003906 12.675781 40.632813 15.375 43.1875L13.28125 45.28125C12.882813 45.679688 12.882813 46.320313 13.28125 46.71875C13.679688 47.117188 14.320313 47.117188 14.71875 46.71875L17 44.4375C19.273438 46.03125 22.015625 47 25 47C27.984375 47 30.726563 46.03125 33 44.4375L35.28125 46.71875C35.679688 47.117188 36.320313 47.117188 36.71875 46.71875C37.117188 46.320313 37.117188 45.679688 36.71875 45.28125L34.625 43.1875C37.324219 40.632813 39 37.003906 39 33C39 30.847656 38.496094 28.824219 37.625 27L40 27L40 46C39.996094 46.359375 40.183594 46.695313 40.496094 46.878906C40.808594 47.058594 41.191406 47.058594 41.503906 46.878906C41.816406 46.695313 42.003906 46.359375 42 46L42 27L48 27C48.550781 27 49 26.550781 49 26L49 16C49 15.449219 48.550781 15 48 15L34 15C33.96875 15 33.9375 15 33.90625 15C33.875 15 33.84375 15 33.8125 15C33.335938 15.089844 32.992188 15.511719 33 16L33 21.53125C30.730469 19.941406 27.976563 19 25 19C22.023438 19 19.269531 19.941406 17 21.53125L17 16C17 15.449219 16.550781 15 16 15L2 15C1.96875 15 1.9375 15 1.90625 15C1.875 15 1.84375 15 1.8125 15 Z M 3 17L5 17L5 23L7 23L7 17L11 17L11 23L13 23L13 17L15 17L15 23.1875C14.457031 23.742188 13.976563 24.363281 13.53125 25L9.1875 25C9.054688 24.972656 8.914063 24.972656 8.78125 25L3 25 Z M 35 17L37 17L37 23L39 23L39 17L43 17L43 23L45 23L45 17L47 17L47 25L41.1875 25C41.054688 24.972656 40.914063 24.972656 40.78125 25L36.46875 25C36.023438 24.363281 35.542969 23.742188 35 23.1875 Z M 25 21C31.640625 21 37 26.359375 37 33C37 39.640625 31.640625 45 25 45C18.359375 45 13 39.640625 13 33C13 26.359375 18.359375 21 25 21 Z M 30 35C28.894531 35 28 35.894531 28 37C28 38.105469 28.894531 39 30 39C31.105469 39 32 38.105469 32 37C32 35.894531 31.105469 35 30 35Z" />
</svg>