<?xml version="1.0" encoding="utf-8"?>
<svg xmlns="http://www.w3.org/2000/svg" viewBox="0 0 50 50" width="515" height="515">
  <path d="M40 5L40 8.0585938C38.532443 8.2211305 37.351126 8.7389846 36.509766 9.515625C35.484415 10.462102 35 11.75 35 13C35 14.772556 35.828601 16.132464 36.960938 16.947266C38.093272 17.762067 39.454499 18.144747 40.757812 18.470703C41.719769 18.711192 42.864286 19.073444 43.683594 19.636719C44.502902 20.199993 45 20.833333 45 22C45 22.75 44.734415 23.462102 44.134766 24.015625C43.535116 24.569148 42.559524 25 41 25C38.733333 25 37.937542 24.321752 37.486328 23.554688C37.035114 22.787623 37 21.75 37 21L35 21C35 21.75 34.96489 23.212377 35.763672 24.570312C36.459956 25.753995 37.845866 26.718778 40 26.947266L40 30L42 30L42 26.941406C43.467557 26.778869 44.648874 26.261015 45.490234 25.484375C46.515585 24.537898 47 23.25 47 22C47 20.166667 45.997098 18.800007 44.816406 17.988281C43.635714 17.176556 42.280231 16.788808 41.242188 16.529297C39.9985 16.218253 38.85982 15.850167 38.128906 15.324219C37.397992 14.79827 37 14.227444 37 13C37 12.25 37.265585 11.537898 37.865234 10.984375C38.464884 10.430852 39.440476 10 41 10C43.266667 10 44.062458 10.67825 44.513672 11.445312C44.964886 12.212378 45 13.25 45 14L47 14C47 13.25 47.03511 11.787621 46.236328 10.429688C45.540044 9.2460043 44.154134 8.2812217 42 8.0527344L42 5L40 5 z M 7 10L7 12.078125C5.8667941 12.239355 4.9328946 12.666941 4.2617188 13.304688C3.40133 14.122222 3 15.228556 3 16.294922C3 17.795227 3.6947768 18.981018 4.640625 19.681641C5.5864732 20.382263 6.7008741 20.698872 7.75 20.96875C8.5112127 21.164762 9.4022922 21.458309 10.021484 21.896484C10.640677 22.33466 11 22.793334 11 23.705078C11 24.285712 10.800939 24.828378 10.361328 25.246094C9.921717 25.663809 9.2039286 26 8 26C6.25 26 5.7063053 25.468944 5.3691406 24.878906C5.031976 24.288868 5 23.5 5 23L3 23C3 23.5 2.968024 24.711132 3.6308594 25.871094C4.1889726 26.847792 5.3166453 27.682381 7 27.923828L7 30L9 30L9 27.921875C10.133206 27.760645 11.067106 27.333059 11.738281 26.695312C12.59867 25.877778 13 24.771444 13 23.705078C13 22.145823 12.158541 20.957746 11.177734 20.263672C10.196927 19.569598 9.0887873 19.247238 8.25 19.03125C7.2621259 18.777128 6.376933 18.477846 5.8320312 18.074219C5.2871295 17.670591 5 17.265617 5 16.294922C5 15.714288 5.1990606 15.171622 5.6386719 14.753906C6.0782832 14.336191 6.7960714 14 8 14C9.75 14 10.293695 14.531056 10.630859 15.121094C10.968024 15.711132 11 16.5 11 17L13 17C13 16.5 13.03198 15.288868 12.369141 14.128906C11.811027 13.152208 10.683355 12.317619 9 12.076172L9 10L7 10 z M 23 10L23 12.078125C21.866794 12.239355 20.932894 12.666941 20.261719 13.304688C19.40133 14.122222 19 15.228556 19 16.294922C19 17.795227 19.694777 18.981018 20.640625 19.681641C21.586473 20.382263 22.700874 20.698872 23.75 20.96875C24.511213 21.164762 25.402291 21.458309 26.021484 21.896484C26.640677 22.33466 27 22.793334 27 23.705078C27 24.285712 26.800939 24.828378 26.361328 25.246094C25.921717 25.663809 25.203929 26 24 26C22.25 26 21.706305 25.468944 21.369141 24.878906C21.031976 24.288868 21 23.5 21 23L19 23C19 23.5 18.96802 24.711132 19.630859 25.871094C20.188973 26.847792 21.316645 27.682381 23 27.923828L23 30L25 30L25 27.921875C26.133206 27.760645 27.067106 27.333059 27.738281 26.695312C28.59867 25.877778 29 24.771444 29 23.705078C29 22.145823 28.158541 20.957746 27.177734 20.263672C26.196927 19.569598 25.088787 19.247238 24.25 19.03125C23.262126 18.777128 22.376933 18.477846 21.832031 18.074219C21.287129 17.670591 21 17.265617 21 16.294922C21 15.714288 21.199061 15.171622 21.638672 14.753906C22.078283 14.336191 22.796071 14 24 14C25.75 14 26.293695 14.531056 26.630859 15.121094C26.968024 15.711132 27 16.5 27 17L29 17C29 16.5 29.03198 15.288868 28.369141 14.128906C27.811027 13.152208 26.683355 12.317619 25 12.076172L25 10L23 10 z M 41 33.919922L41 36L41 39L30.728516 39 A 2 2 0 0 0 29 38 A 2 2 0 0 0 27.271484 39L17.730469 39 A 2 2 0 0 0 16 38 A 2 2 0 0 0 14.271484 39L4.7304688 39 A 2 2 0 0 0 3 38 A 2 2 0 0 0 1 40 A 2 2 0 0 0 3 42 A 2 2 0 0 0 4.7285156 41L14.269531 41 A 2 2 0 0 0 16 42 A 2 2 0 0 0 17.728516 41L27.269531 41 A 2 2 0 0 0 29 42 A 2 2 0 0 0 30.730469 41L41 41L41 46.080078L48.601562 40L41 33.919922 z M 43 38.082031L45.398438 40L43 41.917969L43 38.082031 z" />
</svg>