<?xml version="1.0" encoding="utf-8"?>
<svg xmlns="http://www.w3.org/2000/svg" viewBox="0 0 50 50" width="515" height="515">
  <path d="M25 3C18.382813 3 13 8.382813 13 15C13 18.585938 14.589844 21.800781 17.089844 24L14.5 24C13.671875 24 13 24.671875 13 25.5C13 26.328125 13.671875 27 14.5 27L35.5 27C36.328125 27 37 26.328125 37 25.5C37 24.671875 36.328125 24 35.5 24L32.910156 24C35.410156 21.800781 37 18.585938 37 15C37 8.382813 31.617188 3 25 3 Z M 25 5C30.535156 5 35 9.464844 35 15C35 20.535156 30.535156 25 25 25C19.464844 25 15 20.535156 15 15C15 9.464844 19.464844 5 25 5 Z M 24 7L24 9.109375C23.726563 9.164063 23.433594 9.234375 23.125 9.359375C22.148438 9.757813 21 10.824219 21 12.496094C21 13.648438 21.628906 14.59375 22.390625 15.09375C23.148438 15.59375 23.980469 15.796875 24.730469 16.007813C25.476563 16.21875 26.132813 16.433594 26.5 16.683594C26.863281 16.929688 27 17.078125 27 17.6875L27 17.714844C27 17.714844 27.003906 17.992188 26.804688 18.308594C26.605469 18.621094 26.28125 19 25 19C23.796875 19 23.496094 18.5625 23.25 18.0625C23.003906 17.558594 23 17.019531 23 17.019531L21 16.980469C21 16.980469 20.964844 17.941406 21.453125 18.9375C21.847656 19.742188 22.710938 20.582031 24 20.878906L24 23L26 23L26 20.90625C27.226563 20.675781 28.066406 20.050781 28.492188 19.378906C29.023438 18.539063 28.996094 17.683594 28.996094 17.671875C28.988281 16.507813 28.382813 15.550781 27.625 15.03125C26.867188 14.511719 26.023438 14.296875 25.269531 14.082031C24.519531 13.871094 23.851563 13.660156 23.484375 13.421875C23.121094 13.183594 23 13.066406 23 12.496094C23 11.605469 23.351563 11.425781 23.875 11.214844C24.390625 11.007813 24.933594 11.003906 24.957031 11.003906C24.976563 11.003906 25.507813 11.050781 26.03125 11.328125C26.566406 11.613281 27 11.949219 27 13L29 13C29 11.238281 27.933594 10.074219 26.96875 9.5625C26.625 9.378906 26.296875 9.269531 26 9.1875L26 7 Z M 5 11C3.355469 11 2 12.355469 2 14L2 35.832031C1.980469 35.941406 1.980469 36.050781 2 36.15625L2 38C2 39.644531 3.355469 41 5 41L18.820313 41L18.152344 45L16 45C15.640625 44.996094 15.304688 45.183594 15.121094 45.496094C14.941406 45.808594 14.941406 46.191406 15.121094 46.503906C15.304688 46.816406 15.640625 47.003906 16 47L34 47C34.359375 47.003906 34.695313 46.816406 34.878906 46.503906C35.058594 46.191406 35.058594 45.808594 34.878906 45.496094C34.695313 45.183594 34.359375 44.996094 34 45L31.847656 45L31.179688 41L45 41C46.644531 41 48 39.644531 48 38L48 36.167969C48.019531 36.058594 48.019531 35.949219 48 35.84375L48 14C48 12.355469 46.644531 11 45 11L38.410156 11C38.605469 11.648438 38.742188 12.316406 38.84375 13L45 13C45.566406 13 46 13.433594 46 14L46 35L4 35L4 14C4 13.433594 4.433594 13 5 13L11.15625 13C11.257813 12.316406 11.394531 11.648438 11.589844 11 Z M 4 37L46 37L46 38C46 38.566406 45.566406 39 45 39L5 39C4.433594 39 4 38.566406 4 38 Z M 20.847656 41L29.152344 41L29.820313 45L20.179688 45Z" />
</svg>