<?xml version="1.0" encoding="utf-8"?>
<svg xmlns="http://www.w3.org/2000/svg" viewBox="0 0 50 50" width="515" height="515">
  <path d="M7 7C5.355469 7 4 8.355469 4 10L4 32C4 32.75 4.285156 33.441406 4.75 33.96875L0.40625 39.78125C0.125 40.160156 0 40.609375 0 41C0 41.007813 0 41.023438 0 41.03125L0 42C-0.015625 43.644531 1.355469 45 3 45L47 45C48.644531 45 50.015625 43.644531 50 42L50 41.03125C50 41.023438 50 41.007813 50 41C50 40.609375 49.878906 40.160156 49.59375 39.78125L45.25 33.96875C45.714844 33.441406 46 32.75 46 32L46 10C46 8.355469 44.644531 7 43 7 Z M 7 9L43 9C43.566406 9 44 9.433594 44 10L44 32C44 32.566406 43.566406 33 43 33L7 33C6.433594 33 6 32.566406 6 32L6 10C6 9.433594 6.433594 9 7 9 Z M 24 11L24 31L26 31L26 11 Z M 9.71875 12C9.167969 12.078125 8.78125 12.589844 8.859375 13.140625C8.9375 13.691406 9.449219 14.078125 10 14L20 14C20.359375 14.003906 20.695313 13.816406 20.878906 13.503906C21.058594 13.191406 21.058594 12.808594 20.878906 12.496094C20.695313 12.183594 20.359375 11.996094 20 12L10 12C9.96875 12 9.9375 12 9.90625 12C9.875 12 9.84375 12 9.8125 12C9.78125 12 9.75 12 9.71875 12 Z M 29.71875 12C29.167969 12.078125 28.78125 12.589844 28.859375 13.140625C28.9375 13.691406 29.449219 14.078125 30 14L40 14C40.359375 14.003906 40.695313 13.816406 40.878906 13.503906C41.058594 13.191406 41.058594 12.808594 40.878906 12.496094C40.695313 12.183594 40.359375 11.996094 40 12L30 12C29.96875 12 29.9375 12 29.90625 12C29.875 12 29.84375 12 29.8125 12C29.78125 12 29.75 12 29.71875 12 Z M 9.71875 16C9.167969 16.078125 8.78125 16.589844 8.859375 17.140625C8.9375 17.691406 9.449219 18.078125 10 18L17 18C17.359375 18.003906 17.695313 17.816406 17.878906 17.503906C18.058594 17.191406 18.058594 16.808594 17.878906 16.496094C17.695313 16.183594 17.359375 15.996094 17 16L10 16C9.96875 16 9.9375 16 9.90625 16C9.875 16 9.84375 16 9.8125 16C9.78125 16 9.75 16 9.71875 16 Z M 29.71875 16C29.167969 16.078125 28.78125 16.589844 28.859375 17.140625C28.9375 17.691406 29.449219 18.078125 30 18L37 18C37.359375 18.003906 37.695313 17.816406 37.878906 17.503906C38.058594 17.191406 38.058594 16.808594 37.878906 16.496094C37.695313 16.183594 37.359375 15.996094 37 16L30 16C29.96875 16 29.9375 16 29.90625 16C29.875 16 29.84375 16 29.8125 16C29.78125 16 29.75 16 29.71875 16 Z M 9.71875 20C9.167969 20.078125 8.78125 20.589844 8.859375 21.140625C8.9375 21.691406 9.449219 22.078125 10 22L20 22C20.359375 22.003906 20.695313 21.816406 20.878906 21.503906C21.058594 21.191406 21.058594 20.808594 20.878906 20.496094C20.695313 20.183594 20.359375 19.996094 20 20L10 20C9.96875 20 9.9375 20 9.90625 20C9.875 20 9.84375 20 9.8125 20C9.78125 20 9.75 20 9.71875 20 Z M 29.71875 20C29.167969 20.078125 28.78125 20.589844 28.859375 21.140625C28.9375 21.691406 29.449219 22.078125 30 22L40 22C40.359375 22.003906 40.695313 21.816406 40.878906 21.503906C41.058594 21.191406 41.058594 20.808594 40.878906 20.496094C40.695313 20.183594 40.359375 19.996094 40 20L30 20C29.96875 20 29.9375 20 29.90625 20C29.875 20 29.84375 20 29.8125 20C29.78125 20 29.75 20 29.71875 20 Z M 9.71875 24C9.167969 24.078125 8.78125 24.589844 8.859375 25.140625C8.9375 25.691406 9.449219 26.078125 10 26L17 26C17.359375 26.003906 17.695313 25.816406 17.878906 25.503906C18.058594 25.191406 18.058594 24.808594 17.878906 24.496094C17.695313 24.183594 17.359375 23.996094 17 24L10 24C9.96875 24 9.9375 24 9.90625 24C9.875 24 9.84375 24 9.8125 24C9.78125 24 9.75 24 9.71875 24 Z M 29.71875 24C29.167969 24.078125 28.78125 24.589844 28.859375 25.140625C28.9375 25.691406 29.449219 26.078125 30 26L37 26C37.359375 26.003906 37.695313 25.816406 37.878906 25.503906C38.058594 25.191406 38.058594 24.808594 37.878906 24.496094C37.695313 24.183594 37.359375 23.996094 37 24L30 24C29.96875 24 29.9375 24 29.90625 24C29.875 24 29.84375 24 29.8125 24C29.78125 24 29.75 24 29.71875 24 Z M 9.71875 28C9.167969 28.078125 8.78125 28.589844 8.859375 29.140625C8.9375 29.691406 9.449219 30.078125 10 30L20 30C20.359375 30.003906 20.695313 29.816406 20.878906 29.503906C21.058594 29.191406 21.058594 28.808594 20.878906 28.496094C20.695313 28.183594 20.359375 27.996094 20 28L10 28C9.96875 28 9.9375 28 9.90625 28C9.875 28 9.84375 28 9.8125 28C9.78125 28 9.75 28 9.71875 28 Z M 29.71875 28C29.167969 28.078125 28.78125 28.589844 28.859375 29.140625C28.9375 29.691406 29.449219 30.078125 30 30L40 30C40.359375 30.003906 40.695313 29.816406 40.878906 29.503906C41.058594 29.191406 41.058594 28.808594 40.878906 28.496094C40.695313 28.183594 40.359375 27.996094 40 28L30 28C29.96875 28 29.9375 28 29.90625 28C29.875 28 29.84375 28 29.8125 28C29.78125 28 29.75 28 29.71875 28 Z M 6.75 35L43.5 35C43.507813 35 43.527344 34.992188 43.53125 35L48 40.96875L48 42C48.003906 42.558594 47.558594 43 47 43L3 43C2.441406 43 1.996094 42.558594 2 42L2 40.96875L6.3125 35.21875C6.457031 35.144531 6.601563 35.074219 6.75 35 Z M 19.5 38C19.160156 38 18.839844 38.183594 18.65625 38.46875L17 41L33 41L31.34375 38.46875C31.160156 38.183594 30.839844 38 30.5 38Z" />
</svg>