<?xml version="1.0" encoding="utf-8"?>
<svg xmlns="http://www.w3.org/2000/svg" viewBox="0 0 50 50" width="515" height="515">
  <path d="M15.53125 2.582031C15.339844 2.59375 15.152344 2.65625 15 2.769531C5.492188 9.390625 3.148438 22.496094 9.769531 32C13.636719 37.554688 19.71875 40.640625 26 40.949219L26 44.054688C21.980469 44.324219 17.636719 46.070313 17.636719 46.070313C17.1875 46.246094 16.933594 46.714844 17.019531 47.1875C17.109375 47.65625 17.519531 48 18 48L26.832031 48C26.941406 48.019531 27.050781 48.019531 27.15625 48L36 48C36.480469 48 36.890625 47.65625 36.980469 47.1875C37.066406 46.714844 36.8125 46.246094 36.363281 46.070313C36.363281 46.070313 32.019531 44.324219 28 44.054688L28 40.953125C31.820313 40.773438 35.636719 39.574219 39 37.230469C39.308594 37.03125 39.480469 36.683594 39.453125 36.316406C39.425781 35.953125 39.203125 35.636719 38.871094 35.484375C38.539063 35.332031 38.152344 35.371094 37.859375 35.589844C34.585938 37.867188 30.851563 38.972656 27.152344 39C27.09375 38.992188 27.039063 38.984375 26.984375 38.984375C26.957031 38.988281 26.929688 38.988281 26.902344 38.988281C20.9375 38.957031 15.082031 36.132813 11.410156 30.859375C5.40625 22.238281 7.519531 10.414063 16.140625 4.410156C16.496094 4.167969 16.660156 3.726563 16.542969 3.3125C16.429688 2.894531 16.058594 2.601563 15.628906 2.582031C15.597656 2.582031 15.5625 2.582031 15.53125 2.582031 Z M 27 3C23.460938 3 20.171875 4.089844 17.449219 5.945313C17.394531 5.980469 17.335938 6.011719 17.28125 6.046875C17.121094 6.160156 16.972656 6.285156 16.828125 6.414063C12.691406 9.515625 10 14.441406 10 20C10 20.351563 10.03125 20.695313 10.050781 21.039063C9.957031 21.308594 9.976563 21.605469 10.109375 21.859375C10.742188 27.675781 14.324219 32.609375 19.328125 35.152344C19.523438 35.40625 19.832031 35.558594 20.15625 35.550781C22.253906 36.476563 24.5625 37 27 37C30.566406 37 33.875 35.894531 36.609375 34.011719C36.644531 33.988281 36.679688 33.96875 36.714844 33.945313C36.863281 33.84375 37 33.734375 37.136719 33.621094C41.292969 30.519531 44 25.578125 44 20C44 19.65625 43.96875 19.324219 43.949219 18.984375C44.066406 18.695313 44.042969 18.363281 43.886719 18.09375C43.234375 12.285156 39.648438 7.367188 34.648438 4.835938C34.457031 4.597656 34.164063 4.457031 33.859375 4.457031C31.757813 3.527344 29.441406 3 27 3 Z M 27 5C28.632813 5 30.203125 5.269531 31.671875 5.75L28.125 8.21875C27.304688 7.597656 26.476563 7.050781 25.652344 6.601563C24.804688 6.140625 23.953125 5.785156 23.113281 5.523438C24.355469 5.195313 25.652344 5 27 5 Z M 33.902344 6.6875C35.769531 7.65625 37.402344 9 38.707031 10.625L33.789063 14.050781C32.523438 12.351563 31.164063 10.84375 29.757813 9.574219 Z M 20.308594 7.101563C21.53125 7.042969 23.03125 7.453125 24.695313 8.359375C25.25 8.660156 25.816406 9.027344 26.390625 9.429688L22.664063 12.027344L19.34375 7.257813C19.644531 7.171875 19.964844 7.113281 20.308594 7.101563 Z M 17.707031 8.414063L21.023438 13.171875L17.300781 15.761719C17.121094 15.085938 16.972656 14.425781 16.878906 13.800781C16.53125 11.398438 16.863281 9.546875 17.707031 8.414063 Z M 28.066406 10.753906C29.472656 11.972656 30.863281 13.476563 32.144531 15.195313L27.25 18.609375L23.832031 13.703125 Z M 14.769531 11.324219C14.722656 12.203125 14.761719 13.132813 14.902344 14.09375C15.039063 15.019531 15.265625 15.984375 15.5625 16.972656L12.03125 19.433594C12.140625 16.414063 13.132813 13.628906 14.769531 11.324219 Z M 39.84375 12.269531C40.902344 14.027344 41.609375 16.011719 41.875 18.140625L37.734375 21.027344C37.03125 19.265625 36.09375 17.46875 34.933594 15.691406 Z M 22.191406 14.847656L25.609375 19.75L20.714844 23.160156C19.542969 21.359375 18.617188 19.535156 17.957031 17.796875 Z M 33.292969 16.832031C34.464844 18.636719 35.386719 20.464844 36.042969 22.207031L31.808594 25.15625L28.390625 20.25 Z M 16.265625 18.972656C16.964844 20.730469 17.910156 22.53125 19.066406 24.308594L14.15625 27.730469C13.097656 25.972656 12.390625 23.988281 12.125 21.855469 Z M 41.96875 20.566406C41.859375 23.589844 40.863281 26.375 39.222656 28.683594C39.273438 27.796875 39.234375 26.867188 39.09375 25.902344C38.960938 24.976563 38.734375 24.011719 38.4375 23.027344 Z M 26.75 21.390625L30.167969 26.296875L25.9375 29.246094C24.527344 28.023438 23.136719 26.527344 21.851563 24.804688 Z M 36.699219 24.238281C36.878906 24.910156 37.023438 25.570313 37.113281 26.191406C37.464844 28.597656 37.132813 30.445313 36.285156 31.578125L32.976563 26.828125 Z M 20.207031 25.949219C21.472656 27.652344 22.835938 29.15625 24.246094 30.421875L20.097656 33.3125C18.230469 32.34375 16.597656 31 15.292969 29.375 Z M 31.335938 27.972656L34.644531 32.722656C33.285156 33.125 31.433594 32.796875 29.300781 31.636719C28.75 31.332031 28.183594 30.96875 27.613281 30.566406 Z M 25.875 31.777344C26.695313 32.398438 27.523438 32.941406 28.34375 33.390625C29.195313 33.855469 30.054688 34.214844 30.894531 34.472656C29.652344 34.804688 28.351563 35 27 35C25.367188 35 23.796875 34.730469 22.324219 34.25Z" />
</svg>