<?xml version="1.0" encoding="utf-8"?>
<svg xmlns="http://www.w3.org/2000/svg" viewBox="0 0 50 50" width="515" height="515">
  <path d="M20.1875 3.015625C19.636719 2.914063 19.121094 3.269531 19.015625 3.8125L18.03125 9L8 9C7.449219 9 7 9.449219 7 10L7 34L3 34L3 36L12.886719 36L11.015625 45.8125C10.914063 46.355469 11.269531 46.878906 11.8125 46.984375C11.875 46.996094 11.941406 47 12 47C12.472656 47 12.890625 46.667969 12.984375 46.1875L14.921875 36L24 36L24 43C23.996094 43.359375 24.183594 43.695313 24.496094 43.878906C24.808594 44.058594 25.191406 44.058594 25.503906 43.878906C25.816406 43.695313 26.003906 43.359375 26 43L26 36L35.078125 36L37.015625 46.1875C37.109375 46.667969 37.527344 47 38 47C38.058594 47 38.125 46.996094 38.1875 46.984375C38.730469 46.878906 39.085938 46.355469 38.984375 45.8125L37.113281 36L47 36L47 34L43 34L43 10C43 9.449219 42.550781 9 42 9L31.96875 9L30.984375 3.8125C30.878906 3.269531 30.363281 2.917969 29.8125 3.015625C29.269531 3.121094 28.914063 3.644531 29.015625 4.1875L29.933594 9L20.066406 9L20.984375 4.1875C21.085938 3.644531 20.730469 3.121094 20.1875 3.015625 Z M 9 11L41 11L41 34L25.15625 34C25.097656 33.992188 25.042969 33.984375 24.984375 33.984375C24.9375 33.988281 24.886719 33.992188 24.839844 34L9 34 Z M 14.5 14C13.671875 14 13 14.671875 13 15.5C13 16.328125 13.671875 17 14.5 17C15.328125 17 16 16.328125 16 15.5C16 14.671875 15.328125 14 14.5 14 Z M 28.894531 16.917969C28.585938 16.910156 28.292969 17.046875 28.097656 17.285156L24.378906 21.839844L21.800781 18.402344C21.617188 18.15625 21.332031 18.007813 21.027344 18C20.71875 17.992188 20.421875 18.128906 20.226563 18.367188L11.226563 29.367188C10.980469 29.667969 10.933594 30.078125 11.097656 30.429688C11.261719 30.777344 11.613281 31 12 31L38 31C38.378906 31 38.726563 30.785156 38.894531 30.445313C39.066406 30.105469 39.027344 29.699219 38.796875 29.394531L29.671875 17.3125C29.484375 17.070313 29.203125 16.925781 28.894531 16.917969 Z M 28.84375 19.535156L35.988281 29L21.109375 29 Z M 20.964844 20.621094L23.074219 23.433594L18.527344 29L14.109375 29Z" />
</svg>