<?xml version="1.0" encoding="utf-8"?>
<svg xmlns="http://www.w3.org/2000/svg" viewBox="0 0 50 50" width="515" height="515">
  <path d="M6 3C4.355469 3 3 4.355469 3 6L3 38.832031C2.980469 38.941406 2.980469 39.050781 3 39.15625L3 44C3 45.644531 4.355469 47 6 47L44 47C45.644531 47 47 45.644531 47 44L47 39.167969C47.019531 39.058594 47.019531 38.949219 47 38.84375L47 6C47 4.355469 45.644531 3 44 3 Z M 6 5L44 5C44.554688 5 45 5.445313 45 6L45 38L41.1875 38C41.175781 37.992188 41.164063 37.988281 41.113281 37.921875C40.972656 37.730469 40.777344 37.351563 40.605469 36.867188C40.261719 35.894531 40 34.484375 40 33C39.992188 32.453125 39.546875 32.015625 39 32.015625C38.453125 32.015625 38.007813 32.453125 38 33C38 34.441406 37.757813 35.863281 37.425781 36.84375C37.261719 37.335938 37.066406 37.714844 36.925781 37.90625C36.871094 37.984375 36.855469 37.992188 36.84375 38L33.5625 38C33.46875 37.679688 33.359375 37.1875 33.25 36.542969C33.023438 35.175781 32.808594 33.242188 32.621094 31.125C32.25 26.890625 32 21.894531 32 19C31.992188 18.453125 31.546875 18.015625 31 18.015625C30.453125 18.015625 30.007813 18.453125 30 19C30 21.84375 29.75 26.84375 29.378906 31.089844C29.191406 33.210938 28.976563 35.152344 28.75 36.527344C28.640625 37.179688 28.53125 37.675781 28.4375 38L23.671875 38C23.660156 37.9375 23.652344 37.925781 23.640625 37.855469C23.53125 37.289063 23.417969 36.414063 23.300781 35.332031C23.074219 33.175781 22.851563 30.183594 22.660156 26.941406C22.273438 20.457031 22 12.953125 22 9C21.996094 8.730469 21.882813 8.472656 21.6875 8.289063C21.488281 8.101563 21.226563 8.003906 20.957031 8.015625C20.425781 8.039063 20.007813 8.46875 20 9C20 12.902344 19.726563 20.40625 19.339844 26.902344C19.148438 30.148438 18.925781 33.152344 18.699219 35.320313C18.582031 36.402344 18.46875 37.285156 18.359375 37.851563C18.347656 37.925781 18.339844 37.9375 18.328125 38L15.472656 38C15.40625 37.824219 15.324219 37.609375 15.234375 37.265625C15.015625 36.429688 14.800781 35.214844 14.613281 33.910156C14.246094 31.304688 14 28.28125 14 27C13.992188 26.453125 13.546875 26.015625 13 26.015625C12.453125 26.015625 12.007813 26.453125 12 27C12 28.28125 11.753906 31.304688 11.386719 33.910156C11.199219 35.214844 10.984375 36.429688 10.765625 37.265625C10.675781 37.609375 10.59375 37.824219 10.527344 38L5 38L5 6C5 5.445313 5.445313 5 6 5 Z M 21 31.441406C21.105469 32.820313 21.199219 34.46875 21.3125 35.542969C21.429688 36.648438 21.546875 37.554688 21.671875 38.222656C21.738281 38.558594 21.796875 38.828125 21.886719 39.082031C21.929688 39.210938 21.976563 39.332031 22.089844 39.5C22.199219 39.664063 22.460938 40 23 40L29 40C29.328125 40 29.59375 39.847656 29.75 39.714844C29.902344 39.582031 29.980469 39.460938 30.046875 39.347656C30.183594 39.121094 30.253906 38.914063 30.328125 38.671875C30.476563 38.191406 30.601563 37.585938 30.71875 36.855469C30.824219 36.226563 30.902344 35.25 31 34.464844C31.09375 35.257813 31.175781 36.238281 31.28125 36.871094C31.398438 37.601563 31.523438 38.199219 31.671875 38.675781C31.746094 38.917969 31.820313 39.125 31.953125 39.351563C32.019531 39.464844 32.101563 39.585938 32.253906 39.71875C32.40625 39.847656 32.675781 40 33 40L37 40C37.734375 40 38.210938 39.539063 38.542969 39.089844C38.738281 38.820313 38.863281 38.453125 39.011719 38.121094C39.164063 38.464844 39.300781 38.832031 39.5 39.105469C39.820313 39.539063 40.257813 40 41 40L45 40L45 44C45 44.554688 44.554688 45 44 45L6 45C5.445313 45 5 44.554688 5 44L5 40L11 40C11.445313 40 11.757813 39.753906 11.925781 39.570313C12.09375 39.386719 12.1875 39.214844 12.277344 39.03125C12.449219 38.667969 12.578125 38.257813 12.703125 37.769531C12.816406 37.332031 12.898438 36.699219 13 36.164063C13.101563 36.699219 13.183594 37.332031 13.296875 37.769531C13.421875 38.257813 13.550781 38.667969 13.722656 39.03125C13.8125 39.214844 13.90625 39.386719 14.074219 39.570313C14.242188 39.753906 14.554688 40 15 40L19 40C19.539063 40 19.800781 39.660156 19.910156 39.496094C20.023438 39.332031 20.070313 39.210938 20.113281 39.082031C20.203125 38.828125 20.265625 38.554688 20.328125 38.21875C20.453125 37.546875 20.570313 36.640625 20.6875 35.527344C20.800781 34.460938 20.894531 32.816406 21 31.441406Z" />
</svg>