<?xml version="1.0" encoding="utf-8"?>
<svg xmlns="http://www.w3.org/2000/svg" viewBox="0 0 50 50" width="515" height="515">
  <path d="M21.980469 2C18.136719 2.085938 15.375 3.199219 13.765625 5.3125C11.949219 7.703125 11.632813 11.265625 12.796875 16.195313C12.386719 16.726563 12.011719 17.574219 12.109375 18.734375C12.402344 20.898438 13.226563 21.789063 13.898438 22.152344C14.234375 23.953125 15.21875 25.863281 16.101563 26.765625C16.105469 26.988281 16.109375 27.203125 16.113281 27.417969C16.132813 28.375 16.144531 29.203125 16.019531 30.265625C15.472656 31.671875 13.441406 32.476563 11.09375 33.40625C7.191406 34.953125 2.335938 36.878906 2 42.949219L1.945313 44L29 44C29 43 29.207031 42.691406 29 42L24.765625 42C24.265625 38.757813 22.5 35.800781 22.5 35.800781L23.234375 35.15625L25.21875 37.625C25.410156 37.859375 25.691406 38 25.992188 38C26.292969 38.003906 26.582031 37.867188 26.769531 37.636719L29.425781 34.421875C30.605469 35.316406 32 36.117188 33.550781 36.894531L34.449219 37.34375L35.34375 35.550781L34.449219 35.105469C32.648438 34.207031 31.144531 33.289063 30.042969 32.328125C29.976563 32.257813 29.90625 32.199219 29.828125 32.148438C29.800781 32.125 29.765625 32.101563 29.742188 32.078125C28.621094 31.027344 28.007813 29.976563 27.890625 28.738281L27.8125 27.902344C27.804688 27.527344 27.800781 27.160156 27.800781 26.753906C28.667969 25.839844 29.589844 23.925781 29.972656 22.191406C30.691406 21.851563 31.589844 20.96875 31.796875 18.683594C31.890625 17.558594 31.582031 16.730469 31.15625 16.199219C31.816406 14.128906 32.9375 9.535156 31.09375 6.488281C30.253906 5.101563 28.941406 4.230469 27.183594 3.882813C26.21875 2.664063 24.398438 2 21.980469 2 Z M 22 4C23.890625 4 25.253906 4.476563 25.734375 5.304688L25.980469 5.722656L26.457031 5.789063C27.835938 5.984375 28.792969 6.550781 29.378906 7.523438C30.664063 9.640625 30.007813 13.5 29.058594 16.160156L28.742188 16.984375L29.535156 17.382813C29.625 17.445313 29.863281 17.789063 29.804688 18.507813C29.667969 19.988281 29.199219 20.382813 29.097656 20.402344L28.234375 20.402344L28.109375 21.261719C27.835938 23.183594 26.683594 25.15625 26.304688 25.433594L25.800781 25.71875L25.800781 26.300781C25.800781 26.898438 25.804688 27.410156 25.8125 27.933594L25.804688 27.933594L25.8125 27.992188C25.816406 28.34375 25.828125 28.753906 25.84375 29.121094L22 31.253906L18.105469 29.09375C18.125 28.503906 18.121094 27.945313 18.109375 27.378906C18.105469 27.035156 18.097656 26.679688 18.097656 26.296875L18.035156 25.734375L17.609375 25.4375C17.214844 25.167969 15.972656 23.171875 15.796875 21.304688L15.78125 20.40625L14.875 20.40625C14.730469 20.351563 14.285156 19.878906 14.09375 18.515625C14.027344 17.679688 14.453125 17.332031 14.453125 17.332031L15.046875 16.9375L14.871094 16.253906C13.707031 11.667969 13.867188 8.484375 15.359375 6.523438C16.578125 4.921875 18.820313 4.070313 22 4 Z M 45.015625 30C44.25 30 43.484375 30.289063 42.902344 30.875C42.902344 30.875 42.726563 31.050781 42.578125 31.199219L42.574219 31.195313L31.328125 42.441406C31.203125 42.566406 31.113281 42.71875 31.066406 42.890625L30.03125 46.738281C29.941406 47.085938 30.039063 47.453125 30.292969 47.707031C30.480469 47.894531 30.738281 48 31 48C31.085938 48 31.175781 47.988281 31.261719 47.96875L35.109375 46.933594C35.28125 46.886719 35.433594 46.796875 35.558594 46.671875L46.804688 35.421875L46.800781 35.421875C46.949219 35.269531 47.125 35.09375 47.125 35.09375C48.289063 33.929688 48.292969 32.039063 47.125 30.875C46.542969 30.289063 45.777344 30 45.015625 30 Z M 26.441406 30.921875C26.796875 31.707031 27.320313 32.417969 27.941406 33.074219L26.011719 35.417969L24.3125 33.308594C24.128906 33.035156 23.9375 32.800781 23.746094 32.597656L23.730469 32.582031L25.589844 31.550781C25.96875 31.304688 26.230469 31.105469 26.441406 30.921875 Z M 17.773438 31.195313L20.269531 32.582031L17.988281 35.417969L16.121094 33.152344C16.84375 32.617188 17.414063 31.984375 17.773438 31.195313 Z M 43.808594 32.792969L45.207031 34.191406L34.332031 45.070313L32.414063 45.585938L32.929688 43.667969 Z M 14.375 34.179688L17.230469 37.636719C17.417969 37.867188 17.707031 38.003906 18.007813 38C18.308594 38 18.589844 37.859375 18.78125 37.625L20.742188 35.1875L21.5 35.800781C21.5 35.800781 19.746094 38.8125 19.242188 42L4.121094 42C4.855469 38.027344 8.398438 36.625 11.828125 35.265625C12.714844 34.914063 13.578125 34.566406 14.375 34.179688Z" />
</svg>