<?xml version="1.0" encoding="utf-8"?>
<svg xmlns="http://www.w3.org/2000/svg" viewBox="0 0 50 50" width="515" height="515">
  <path d="M36.90625 -0.0625C35.859375 -0.0625 34.828125 0.328125 34.03125 1.125L33.71875 1.4375C33.671875 1.476563 33.632813 1.515625 33.59375 1.5625L33.34375 1.84375L17.84375 17.3125C17.722656 17.433594 17.636719 17.585938 17.59375 17.75L15.96875 23.75C15.875 24.101563 15.976563 24.472656 16.234375 24.726563C16.496094 24.980469 16.871094 25.070313 17.21875 24.96875L23.1875 23.34375C23.363281 23.304688 23.527344 23.21875 23.65625 23.09375L39.125 7.625C39.125 7.625 39.261719 7.488281 39.375 7.375C39.421875 7.328125 39.464844 7.273438 39.5 7.21875C39.652344 7.066406 39.8125 6.90625 39.8125 6.90625C41.410156 5.308594 41.40625 2.71875 39.8125 1.125C39.015625 0.328125 37.953125 -0.0625 36.90625 -0.0625 Z M 34.75 3.25L37.6875 6.1875L22.375 21.53125L19.4375 18.625L19.46875 18.5 Z M 3 9C1.347656 9 0 10.347656 0 12L0 38C0 39.652344 1.347656 41 3 41L47 41C48.652344 41 50 39.652344 50 38L50 12C50 10.347656 48.652344 9 47 9L39.71875 9L37.71875 11L47 11C47.550781 11 48 11.449219 48 12L48 38C48 38.550781 47.550781 39 47 39L3 39C2.449219 39 2 38.550781 2 38L2 12C2 11.449219 2.449219 11 3 11L22.125 11L24.125 9Z" />
</svg>