<?xml version="1.0" encoding="utf-8"?>
<svg xmlns="http://www.w3.org/2000/svg" viewBox="0 0 50 50" width="515" height="515">
  <path d="M25 2C12.309295 2 2 12.309295 2 25C2 37.690705 12.309295 48 25 48C37.690705 48 48 37.690705 48 25C48 12.309295 37.690705 2 25 2 z M 25 4C36.609824 4 46 13.390176 46 25C46 36.609824 36.609824 46 25 46C13.390176 46 4 36.609824 4 25C4 13.390176 13.390176 4 25 4 z M 25.017578 14 A 1.0001 1.0001 0 0 0 24.59375 14.085938L6.59375 22.085938 A 1.0001 1.0001 0 0 0 6.4179688 23.814453L9 25.658203L9 31.279297C8.4051922 31.626887 8 32.265006 8 33C8 34.1 10 37 10 37C10 37 12 34.1 12 33C12 32.265006 11.594808 31.626887 11 31.279297L11 27.087891L13 28.515625L13 30C13 30.509624 13.285805 30.908011 13.558594 31.150391C13.831383 31.39277 14.129717 31.551527 14.46875 31.697266C15.146816 31.988743 16.003625 32.209466 17.042969 32.398438C19.121656 32.776381 21.913303 33 25 33C28.086697 33 30.878344 32.776381 32.957031 32.398438C33.996375 32.209466 34.853184 31.988743 35.53125 31.697266C35.870283 31.551527 36.168617 31.39277 36.441406 31.150391C36.714195 30.908011 37 30.509624 37 30L37 28.515625L43.582031 23.814453 A 1.0001 1.0001 0 0 0 43.40625 22.085938L25.40625 14.085938 A 1.0001 1.0001 0 0 0 25.017578 14 z M 25 16.09375L40.994141 23.203125L37 26.056641L37 25C37 24.563864 36.788449 24.172146 36.546875 23.914062C36.305301 23.655979 36.028288 23.48234 35.71875 23.328125C35.099674 23.019696 34.323891 22.796835 33.337891 22.605469C31.365889 22.222735 28.571505 22 25 22C21.428495 22 18.634111 22.222735 16.662109 22.605469C15.676109 22.796835 14.900326 23.019696 14.28125 23.328125C13.971712 23.48234 13.694699 23.655979 13.453125 23.914062C13.211551 24.172147 13 24.563864 13 25L13 26.056641L9.0058594 23.203125L25 16.09375 z M 25 24C28.486495 24 31.193533 24.226093 32.957031 24.568359C33.838781 24.739493 34.487513 24.949445 34.828125 25.119141C34.941468 25.175611 34.96107 25.197061 35 25.226562L35 28.123047C34.414702 27.922287 33.756729 27.746962 32.957031 27.601562C30.878344 27.223619 28.086697 27 25 27C21.913303 27 19.121656 27.223619 17.042969 27.601562C16.243271 27.746962 15.585298 27.922287 15 28.123047L15 25.226562C15.03893 25.197063 15.05853 25.175612 15.171875 25.119141C15.512487 24.949445 16.161219 24.739493 17.042969 24.568359C18.806467 24.226093 21.513505 24 25 24 z M 25 29C27.988435 29 30.697079 29.224399 32.599609 29.570312C33.316516 29.70066 33.771838 29.853094 34.212891 30C33.771838 30.146906 33.316516 30.29934 32.599609 30.429688C30.697079 30.775602 27.988435 31 25 31C22.011565 31 19.302921 30.775601 17.400391 30.429688C16.683484 30.29934 16.228162 30.146906 15.787109 30C16.228162 29.853094 16.683484 29.70066 17.400391 29.570312C19.302921 29.224398 22.011565 29 25 29 z" />
</svg>