<?xml version="1.0" encoding="utf-8"?>
<svg xmlns="http://www.w3.org/2000/svg" viewBox="0 0 50 50" width="515" height="515">
  <path d="M25.5 4C22.474279 4 20 6.4742785 20 9.5C20 12.525721 22.474279 15 25.5 15C28.525721 15 31 12.525721 31 9.5C31 6.4742785 28.525721 4 25.5 4 z M 48 4.2402344C41.493046 5.1773621 35.944569 9.1019081 32.791016 14.574219L28.513672 16L21.158203 16C19.273602 16 17.497446 16.888114 16.365234 18.394531L16.416016 18.332031L10.853516 24.615234 A 1.0001 1.0001 0 0 0 10.804688 24.677734C9.6509761 26.211585 9.7557092 28.365951 11.052734 29.78125 A 1.0001 1.0001 0 0 0 11.054688 29.783203L17 36.228516L17 43C17 44.645063 18.354937 46 20 46C21.645063 46 23 44.645063 23 43L23 35.125C23 34.434065 22.760955 33.763966 22.324219 33.228516L18.804688 28.5625L24.458984 22L29.324219 22 A 1.0001 1.0001 0 0 0 29.640625 21.949219L30.267578 21.740234C30.095812 22.802426 30 23.889438 30 25C30 35.558 37.84 44.296766 48 45.759766L48 43.738281C38.947 42.293281 32 34.453 32 25C32 23.635213 32.146762 22.305156 32.421875 21.021484L35.949219 19.845703C37.665488 19.273613 38.515217 17.240387 37.652344 15.59375 A 1.0001 1.0001 0 0 0 37.652344 15.591797C37.199603 14.729371 36.382402 14.214115 35.494141 14.068359C38.388933 9.984108 42.848661 7.0832001 48 6.2597656L48 4.2402344 z M 25.5 6C27.444841 6 29 7.5551587 29 9.5C29 11.444841 27.444841 13 25.5 13C23.555159 13 22 11.444841 22 9.5C22 7.5551587 23.555159 6 25.5 6 z M 34.972656 16.023438C35.359419 16.027041 35.720587 16.216174 35.880859 16.521484C36.195986 17.122847 35.904139 17.753308 35.316406 17.949219L29.162109 20L24 20 A 1.0001 1.0001 0 0 0 23.242188 20.347656L16.761719 27.867188 A 1.0001 1.0001 0 0 0 16.722656 29.123047L20.75 34.462891 A 1.0001 1.0001 0 0 0 20.773438 34.492188C20.920699 34.672733 21 34.893935 21 35.125L21 43C21 43.562937 20.562937 44 20 44C19.437063 44 19 43.562937 19 43L19 35.837891 A 1.0001 1.0001 0 0 0 18.734375 35.160156L12.525391 28.429688L12.523438 28.427734C11.872148 27.715168 11.824104 26.659543 12.400391 25.886719L17.914062 19.658203 A 1.0001 1.0001 0 0 0 17.964844 19.595703C18.720681 18.590166 19.900804 18 21.158203 18L28.675781 18 A 1.0001 1.0001 0 0 0 28.992188 17.949219L34.583984 16.083984C34.712165 16.041258 34.843735 16.022236 34.972656 16.023438 z M 9.4921875 30.876953L8.3144531 35.443359L2.8789062 40.878906C2.2939062 41.463906 2.0019531 42.232 2.0019531 43C2.0019531 43.768 2.2939063 44.536094 2.8789062 45.121094C3.4459062 45.688094 4.198 46 5 46C5.802 46 6.5550937 45.687094 7.1210938 45.121094L13.121094 39.121094C13.486094 38.756094 13.751625 38.299734 13.890625 37.802734L14.316406 36.267578L12.722656 34.537109L11.964844 37.267578C11.918844 37.432578 11.829031 37.585031 11.707031 37.707031L5.7070312 43.707031C5.3300313 44.086031 4.6709688 44.086031 4.2929688 43.707031C3.9029687 43.317031 3.9029688 42.682969 4.2929688 42.292969L9.921875 36.664062C10.047875 36.538063 10.136641 36.380031 10.181641 36.207031L11.078125 32.738281L10.919922 32.564453L10.923828 32.560547L10.054688 31.611328C9.8426875 31.380328 9.6611875 31.130953 9.4921875 30.876953 z" />
</svg>