<?xml version="1.0" encoding="utf-8"?>
<svg xmlns="http://www.w3.org/2000/svg" viewBox="0 0 50 50" width="515" height="515">
  <path d="M15 1C11.019531 1 7.523438 3.835938 5.03125 7.75C2.539063 11.664063 1 16.746094 1 21.65625C1 30.636719 6.980469 35.984375 13.15625 36.875C14.058594 43.046875 19.375 49 28.34375 49C33.253906 49 38.335938 47.460938 42.25 44.96875C46.164063 42.476563 49 38.980469 49 35C49 31.019531 46.164063 27.523438 42.25 25.03125C38.5 22.644531 33.683594 21.15625 28.96875 21.03125C28.84375 16.316406 27.355469 11.5 24.96875 7.75C22.476563 3.835938 18.980469 1 15 1 Z M 15 3C17.980469 3 20.980469 5.28125 23.25 8.84375C25.417969 12.25 26.84375 16.761719 26.96875 21.0625C18.0625 21.691406 13.109375 28.390625 13 34.78125C7.917969 33.867188 3 29.523438 3 21.65625C3 17.179688 4.480469 12.40625 6.75 8.84375C9.019531 5.28125 12.019531 3 15 3 Z M 28.15625 23C28.167969 23 28.175781 23 28.1875 23C28.242188 23 28.289063 23 28.34375 23C32.820313 23 37.59375 24.480469 41.15625 26.75C44.71875 29.019531 47 32.019531 47 35C47 37.980469 44.71875 40.980469 41.15625 43.25C37.59375 45.519531 32.820313 47 28.34375 47C20.015625 47 15.597656 41.472656 15.0625 36.09375C15.0625 36.082031 15.0625 36.074219 15.0625 36.0625C15.058594 36.042969 15.0625 36.019531 15.0625 36C15.066406 35.894531 15.058594 35.789063 15.03125 35.6875C15.015625 35.457031 15 35.230469 15 35C15 29.410156 19.285156 23.265625 27.84375 23.03125C27.863281 23.03125 27.886719 23.03125 27.90625 23.03125C27.992188 23.03125 28.074219 23.019531 28.15625 23Z" />
</svg>