<?xml version="1.0" encoding="utf-8"?>
<svg xmlns="http://www.w3.org/2000/svg" viewBox="0 0 50 50" width="515" height="515">
  <path d="M24.59375 0L24.28125 3L22 3C21.96875 3 21.9375 3 21.90625 3C21.390625 3.046875 20.996094 3.480469 21 4L21 6C20.96875 6 20.9375 6 20.90625 6C20.390625 6.046875 19.996094 6.480469 20 7L20 10C20 10.550781 20.449219 11 21 11L21.59375 11C20.9375 17.148438 19.976563 21.558594 18.9375 25L17.6875 25C17.625 24.996094 17.5625 24.996094 17.5 25C17.21875 25.054688 16.972656 25.222656 16.824219 25.46875C16.675781 25.710938 16.636719 26.007813 16.71875 26.28125L17.53125 28.96875C16.496094 31.644531 15.453125 33.636719 14.65625 35.625C14.644531 35.65625 14.632813 35.6875 14.625 35.71875L7.125 48.5C6.945313 48.8125 6.945313 49.195313 7.128906 49.503906C7.308594 49.8125 7.640625 50.003906 8 50L16 50C16.527344 50 16.96875 49.589844 17 49.0625C17 49.0625 17.113281 47 18.1875 44.96875C19.261719 42.9375 21.101563 41 25 41C28.898438 41 30.738281 42.9375 31.8125 44.96875C32.886719 47 33 49.0625 33 49.0625C33.03125 49.589844 33.472656 50 34 50L42 50C42.359375 50.003906 42.691406 49.8125 42.871094 49.503906C43.054688 49.195313 43.054688 48.8125 42.875 48.5L35.40625 35.78125C35.40625 35.769531 35.40625 35.761719 35.40625 35.75L35.375 35.6875C35.367188 35.667969 35.355469 35.644531 35.34375 35.625C34.546875 33.636719 33.503906 31.644531 32.46875 28.96875L33.28125 26.28125C33.363281 25.976563 33.304688 25.652344 33.113281 25.402344C32.921875 25.152344 32.628906 25.003906 32.3125 25L31.15625 25C30.121094 21.5625 29.183594 17.148438 28.53125 11L29 11C29.550781 11 30 10.550781 30 10L30 7C30 6.449219 29.550781 6 29 6L29 4C29 3.449219 28.550781 3 28 3L25.71875 3L25.40625 0 Z M 23 5L27 5L27 6L23 6 Z M 22 8L28 8L28 9L22 9 Z M 23.5625 11L26.53125 11C27.160156 16.972656 28.054688 21.472656 29.0625 25L21.03125 25C22.039063 21.472656 22.933594 16.972656 23.5625 11 Z M 19.03125 27L30.96875 27L30.65625 28L26.78125 28C26.648438 27.972656 26.507813 27.972656 26.375 28L19.34375 28 Z M 19.25 30L22 30L20.375 35L17.125 35C17.765625 33.539063 18.464844 31.992188 19.25 30 Z M 24.125 30L25.875 30L27.5 35L22.5 35 Z M 28 30L30.75 30C31.535156 31.992188 32.234375 33.539063 32.875 35L29.625 35 Z M 16.1875 37L33.8125 37L40.25 48L34.875 48C34.753906 47.121094 34.464844 45.746094 33.5625 44.03125C32.261719 41.5625 29.601563 39 25 39C20.398438 39 17.738281 41.5625 16.4375 44.03125C15.535156 45.746094 15.246094 47.121094 15.125 48L9.75 48Z" />
</svg>