<?xml version="1.0" encoding="utf-8"?>
<svg xmlns="http://www.w3.org/2000/svg" viewBox="0 0 50 50" width="515" height="515">
  <path d="M29 2C26.25 2 24 4.25 24 7C24 9.75 26.25 12 29 12C31.75 12 34 9.75 34 7C34 4.25 31.75 2 29 2 Z M 29 4C30.667969 4 32 5.332031 32 7C32 8.667969 30.667969 10 29 10C27.332031 10 26 8.667969 26 7C26 5.332031 27.332031 4 29 4 Z M 21.09375 7.96875C20.351563 7.992188 19.617188 8.257813 19 8.78125C16.914063 10.550781 15.460938 13.5625 14.34375 16.53125C13.226563 19.5 12.53125 22.4375 12.21875 23.96875C11.8125 25.953125 12.261719 28.0625 13.6875 29.59375C13.699219 29.605469 13.707031 29.613281 13.71875 29.625L15.34375 31.4375L11.21875 43.71875L11.21875 43.75C10.664063 45.402344 11.542969 47.226563 13.1875 47.8125C14.902344 48.421875 16.804688 47.488281 17.34375 45.75L19.90625 37.59375L22.375 45.21875L22.40625 45.375L22.4375 45.375C22.816406 47.085938 24.476563 48.242188 26.21875 47.9375C28.003906 47.628906 29.230469 45.914063 28.9375 44.125C28.929688 44.082031 28.917969 44.039063 28.90625 44L25.375 33.125C25.34375 33.035156 25.304688 32.953125 25.25 32.875L21.03125 26.8125C21.027344 26.5 21.078125 22.421875 22.84375 18.84375L28.84375 27.65625C29.40625 28.480469 30.320313 28.9375 31.25 28.96875L36 48L38 48L33.09375 28.40625C34.394531 27.46875 34.765625 25.636719 33.875 24.28125L24.28125 9.65625C23.710938 8.78125 22.8125 8.207031 21.84375 8.03125C21.601563 7.988281 21.339844 7.960938 21.09375 7.96875 Z M 21.21875 10C21.328125 10 21.425781 10.011719 21.53125 10.03125C21.957031 10.117188 22.363281 10.351563 22.625 10.75L32.1875 25.375C32.507813 25.867188 32.398438 26.496094 31.90625 26.8125C31.425781 27.121094 30.789063 27.003906 30.46875 26.53125L23.53125 16.3125C23.34375 16.039063 23.035156 15.875 22.703125 15.875C22.371094 15.875 22.0625 16.039063 21.875 16.3125C18.699219 20.933594 19 27.09375 19 27.09375C19.011719 27.285156 19.074219 27.46875 19.1875 27.625L23.46875 33.75L23.46875 33.8125L26.96875 44.46875L26.96875 44.5C27.070313 45.214844 26.589844 45.84375 25.875 45.96875C25.140625 46.097656 24.46875 45.640625 24.34375 44.90625C24.335938 44.851563 24.328125 44.800781 24.3125 44.75L21.15625 34.96875C21.109375 34.839844 21.035156 34.722656 20.9375 34.625L17.34375 30.65625C17.277344 30.546875 17.195313 30.453125 17.09375 30.375L15.1875 28.25C15.175781 28.25 15.167969 28.25 15.15625 28.25C14.195313 27.230469 13.859375 25.785156 14.15625 24.34375C14.449219 22.917969 15.15625 20.078125 16.21875 17.25C17.28125 14.421875 18.773438 11.621094 20.3125 10.3125C20.566406 10.097656 20.894531 10 21.21875 10 Z M 16.90625 33.125L18.59375 35.03125L15.4375 45.15625C15.226563 45.835938 14.511719 46.175781 13.84375 45.9375C13.203125 45.707031 12.871094 45.019531 13.09375 44.375Z" />
</svg>