<?xml version="1.0" encoding="utf-8"?>
<svg xmlns="http://www.w3.org/2000/svg" viewBox="0 0 50 50" width="515" height="515">
  <path d="M8.90625 3.96875C8.863281 3.976563 8.820313 3.988281 8.78125 4C8.316406 4.105469 7.988281 4.523438 8 5L8 14.875C8 18.613281 8.90625 20.890625 10.21875 22.5625C11.382813 24.042969 12.734375 25.082031 14 26.4375L14 30L8 30C7.96875 30 7.9375 30 7.90625 30C7.476563 30.046875 7.125 30.359375 7.03125 30.78125L4.03125 44.78125C3.964844 45.074219 4.039063 45.382813 4.226563 45.621094C4.414063 45.855469 4.699219 45.996094 5 46L45 46C45.300781 45.996094 45.585938 45.855469 45.773438 45.621094C45.960938 45.382813 46.035156 45.074219 45.96875 44.78125L42.96875 30.78125C42.867188 30.328125 42.464844 30.003906 42 30L36 30L36 20C35.996094 19.449219 35.550781 19.003906 35 19L34.9375 19C34.636719 16.445313 33.242188 14.085938 31.78125 12.34375C30.152344 10.402344 24.75 4.34375 24.75 4.34375C24.527344 4.082031 24.183594 3.949219 23.84375 4C23.480469 4.054688 23.175781 4.304688 23.054688 4.652344C22.929688 4.996094 23.003906 5.382813 23.25 5.65625C23.25 5.65625 28.664063 11.804688 30.21875 13.65625C31.449219 15.121094 32.585938 17.105469 32.90625 19L21.03125 19L20.40625 17.625C20.292969 17.257813 19.972656 16.988281 19.59375 16.933594C19.210938 16.878906 18.832031 17.050781 18.617188 17.371094C18.40625 17.691406 18.394531 18.105469 18.59375 18.4375L22.84375 27.6875L22.84375 27.71875L22.875 27.71875C23.578125 29.035156 24.191406 30.414063 24.40625 31.46875C24.621094 32.523438 24.53125 33.050781 23.9375 33.5C23.242188 34.027344 22.476563 34.148438 21.625 33.90625C20.773438 33.664063 19.851563 33.019531 19.0625 31.90625C17.414063 29.574219 16.21875 25.96875 16.21875 25.96875L16.15625 25.78125L16.03125 25.625C15.992188 25.578125 15.945313 25.546875 15.90625 25.5C15.8125 25.285156 15.648438 25.105469 15.4375 25C14.054688 23.527344 12.714844 22.53125 11.78125 21.34375C10.714844 19.988281 10 18.308594 10 14.875L10 5C10.011719 4.710938 9.894531 4.433594 9.6875 4.238281C9.476563 4.039063 9.191406 3.941406 8.90625 3.96875 Z M 21.96875 21L34 21L34 38L16 38L16 30.625C16.414063 31.441406 16.878906 32.269531 17.4375 33.0625C18.441406 34.480469 19.710938 35.453125 21.09375 35.84375C22.476563 36.234375 23.972656 35.988281 25.15625 35.09375C26.445313 34.117188 26.667969 32.5 26.375 31.0625C26.085938 29.644531 25.375 28.195313 24.65625 26.84375L24.625 26.78125 Z M 8.8125 32L14 32L14 36L13 36C11.90625 36 11 36.90625 11 38C11 39.09375 11.90625 40 13 40L37 40C38.09375 40 39 39.09375 39 38C39 36.90625 38.09375 36 37 36L36 36L36 32L41.1875 32L43.78125 44L6.21875 44Z" />
</svg>