<?xml version="1.0" encoding="utf-8"?>
<svg xmlns="http://www.w3.org/2000/svg" viewBox="0 0 50 50" width="515" height="515">
  <path d="M4 5 A 1.0001 1.0001 0 0 0 3 6L3 44 A 1.0001 1.0001 0 0 0 4 45L46 45 A 1.0001 1.0001 0 0 0 47 44L47 6 A 1.0001 1.0001 0 0 0 46 5L4 5 z M 5 7L45 7L45 25L5 25L5 7 z M 9 10C8.4777778 10 7.9453899 10.191329 7.5683594 10.568359C7.1913289 10.94539 7 11.477778 7 12L7 20C7 20.522222 7.1913289 21.05461 7.5683594 21.431641C7.9453899 21.808671 8.4777778 22 9 22L24 22C24.522222 22 25.05461 21.808671 25.431641 21.431641C25.808671 21.05461 26 20.522222 26 20L26 12C26 11.477778 25.808671 10.94539 25.431641 10.568359C25.05461 10.191329 24.522222 10 24 10L9 10 z M 9 12L24 12L24 20L9 20L9 12 z M 20 13L20 19L22 19L22 13L20 13 z M 32 13 A 3 3 0 0 0 29 16 A 3 3 0 0 0 32 19 A 3 3 0 0 0 35 16 A 3 3 0 0 0 32 13 z M 40 13 A 3 3 0 0 0 37 16 A 3 3 0 0 0 40 19 A 3 3 0 0 0 43 16 A 3 3 0 0 0 40 13 z M 14 14L14 19L16 19L16 14L14 14 z M 17 15L17 19L19 19L19 15L17 15 z M 11 17L11 19L13 19L13 17L11 17 z M 5 27L9.0253906 27L9.3007812 38.300781C9.4007812 38.700781 9.6996094 39 10.099609 39L11.900391 39C12.300391 39 12.599609 38.700781 12.599609 38.300781L12.966797 27L15.025391 27L15.300781 38.300781C15.400781 38.700781 15.699609 39 16.099609 39L17.900391 39C18.300391 39 18.599609 38.700781 18.599609 38.300781L18.966797 27L21.025391 27L21.300781 38.300781C21.400781 38.700781 21.699609 39 22.099609 39L23.900391 39C24.300391 39 24.599609 38.700781 24.599609 38.300781L24.966797 27L31.025391 27L31.300781 38.300781C31.400781 38.700781 31.699609 39 32.099609 39L33.900391 39C34.300391 39 34.599609 38.700781 34.599609 38.300781L34.966797 27L37.025391 27L37.300781 38.300781C37.400781 38.700781 37.699609 39 38.099609 39L39.900391 39C40.300391 39 40.599609 38.700781 40.599609 38.300781L40.966797 27L45 27L45 43L5 43L5 27 z" />
</svg>