<?xml version="1.0" encoding="utf-8"?>
<svg xmlns="http://www.w3.org/2000/svg" viewBox="0 0 50 50" width="515" height="515">
  <path d="M34.09375 0C33.871094 0.0234375 33.660156 0.125 33.5 0.28125L28.125 5.65625C26.464844 4.28125 24.953125 3.117188 23.75 2.28125C23.058594 1.800781 22.445313 1.414063 21.9375 1.125C21.429688 0.835938 21.078125 0.632813 20.625 0.53125C20.523438 0.503906 20.417969 0.492188 20.3125 0.5C20.078125 0.515625 19.855469 0.617188 19.6875 0.78125L9.65625 10.75L9.59375 10.78125C9.511719 10.84375 9.4375 10.917969 9.375 11C9.375 11.011719 9.375 11.019531 9.375 11.03125C9.351563 11.050781 9.332031 11.070313 9.3125 11.09375C9.3125 11.105469 9.3125 11.113281 9.3125 11.125C9.300781 11.144531 9.289063 11.167969 9.28125 11.1875C9.28125 11.199219 9.28125 11.207031 9.28125 11.21875C9.269531 11.238281 9.257813 11.261719 9.25 11.28125C9.25 11.292969 9.25 11.300781 9.25 11.3125C9.238281 11.332031 9.226563 11.355469 9.21875 11.375C9.21875 11.386719 9.21875 11.394531 9.21875 11.40625L5.625 26.4375C5.621094 26.453125 5.628906 26.453125 5.625 26.46875C5.484375 27.007813 5.667969 27.269531 5.78125 27.53125C5.898438 27.800781 6.054688 28.039063 6.25 28.34375C6.644531 28.949219 7.179688 29.683594 7.875 30.53125C7.992188 30.675781 8.15625 30.878906 8.28125 31.03125L4.34375 34.96875C3.992188 35.324219 3.992188 35.894531 4.34375 36.25L6.84375 38.75L0.28125 45.28125C-0.117188 45.679688 -0.117188 46.320313 0.28125 46.71875C0.679688 47.117188 1.320313 47.117188 1.71875 46.71875L8.25 40.15625L9.84375 41.75L3.28125 48.28125C2.882813 48.679688 2.882813 49.320313 3.28125 49.71875C3.679688 50.117188 4.320313 50.117188 4.71875 49.71875L11.25 43.15625L13.75 45.65625C14.105469 46.007813 14.675781 46.007813 15.03125 45.65625L18.90625 41.78125C19.066406 41.914063 19.253906 42.0625 19.40625 42.1875C20.265625 42.886719 21.03125 43.429688 21.65625 43.8125C21.96875 44.003906 22.242188 44.171875 22.53125 44.28125C22.78125 44.375 23.09375 44.433594 23.53125 44.3125L23.53125 44.375L38.625 40.78125C38.996094 40.691406 39.285156 40.402344 39.375 40.03125L49.21875 30.21875C49.535156 29.902344 49.542969 29.535156 49.53125 29.34375C49.519531 29.152344 49.480469 29.023438 49.4375 28.90625C49.355469 28.667969 49.234375 28.472656 49.09375 28.21875C48.808594 27.710938 48.394531 27.054688 47.84375 26.28125C46.886719 24.933594 45.472656 23.144531 43.84375 21.1875L49.71875 15.3125C50.105469 14.921875 50.105469 14.296875 49.71875 13.90625L46.90625 11.09375C46.71875 10.894531 46.460938 10.785156 46.1875 10.78125C46.125 10.785156 46.0625 10.796875 46 10.8125C45.808594 10.855469 45.636719 10.953125 45.5 11.09375L39.8125 16.78125C38.800781 15.695313 37.746094 14.558594 36.59375 13.40625C35.242188 12.054688 33.90625 10.796875 32.625 9.59375L37.71875 4.5C38.105469 4.109375 38.105469 3.484375 37.71875 3.09375L34.90625 0.28125C34.691406 0.0703125 34.394531 -0.0351563 34.09375 0 Z M 34.1875 2.40625L35.59375 3.8125L30.6875 8.71875C30.511719 8.820313 30.367188 8.972656 30.28125 9.15625L26.5 12.90625L24.625 14.8125L23.21875 13.40625L28.53125 8.09375C28.933594 8.007813 29.242188 7.6875 29.3125 7.28125 Z M 20.625 2.6875C20.757813 2.75 20.78125 2.738281 20.96875 2.84375C21.398438 3.089844 21.9375 3.449219 22.59375 3.90625C23.703125 4.675781 25.148438 5.773438 26.71875 7.0625L21.09375 12.6875C20.707031 13.078125 20.707031 13.703125 21.09375 14.09375L23.90625 16.90625C24.296875 17.292969 24.921875 17.292969 25.3125 16.90625L31.21875 11C32.507813 12.210938 33.84375 13.46875 35.1875 14.8125C36.332031 15.957031 37.386719 17.09375 38.40625 18.1875L33.09375 23.5C32.707031 23.890625 32.707031 24.515625 33.09375 24.90625L35.90625 27.71875C36.296875 28.105469 36.921875 28.105469 37.3125 27.71875L42.40625 22.625C43.960938 24.492188 45.328125 26.183594 46.21875 27.4375C46.742188 28.175781 47.121094 28.792969 47.34375 29.1875C47.351563 29.199219 47.335938 29.207031 47.34375 29.21875L37.90625 38.6875C37.714844 38.605469 37.46875 38.453125 37.09375 38.21875C36.230469 37.679688 35.011719 36.785156 33.59375 35.625C30.757813 33.304688 27.078125 29.984375 23.5 26.40625C19.921875 22.828125 16.851563 19.398438 14.65625 16.6875C13.558594 15.332031 12.691406 14.144531 12.09375 13.21875C11.617188 12.476563 11.46875 12.09375 11.375 11.84375 Z M 46.1875 13.21875L47.59375 14.59375L42.15625 20.03125C41.785156 20.117188 41.492188 20.410156 41.40625 20.78125L36.59375 25.59375L35.21875 24.1875L37.09375 22.3125L40.21875 19.21875C40.507813 19.105469 40.726563 18.863281 40.8125 18.5625 Z M 10.53125 14.5C11.179688 15.488281 12.027344 16.652344 13.09375 17.96875C15.347656 20.757813 18.472656 24.191406 22.09375 27.8125C25.714844 31.433594 29.398438 34.808594 32.3125 37.1875C33.480469 38.144531 34.492188 38.871094 35.375 39.46875L23.25 42.40625C23.246094 42.40625 23.222656 42.40625 23.21875 42.40625C23.121094 42.367188 22.925781 42.269531 22.6875 42.125C22.191406 41.820313 21.503906 41.289063 20.6875 40.625C20.394531 40.386719 20.070313 40.117188 19.75 39.84375C19.667969 39.726563 19.5625 39.628906 19.4375 39.5625C19.429688 39.558594 19.414063 39.566406 19.40625 39.5625C19.394531 39.550781 19.386719 39.542969 19.375 39.53125C17.992188 38.324219 16.40625 36.820313 14.8125 35.1875C13.070313 33.402344 11.566406 31.742188 10.3125 30.28125C10.28125 30.257813 10.25 30.238281 10.21875 30.21875C9.964844 29.921875 9.660156 29.554688 9.4375 29.28125C8.769531 28.46875 8.230469 27.777344 7.90625 27.28125C7.75 27.042969 7.644531 26.859375 7.59375 26.75 Z M 9.5 32.40625C10.652344 33.714844 11.921875 35.105469 13.375 36.59375C14.816406 38.070313 16.230469 39.402344 17.53125 40.5625L14.375 43.6875L11.875 41.21875C11.835938 41.171875 11.796875 41.132813 11.75 41.09375L8.875 38.21875C8.835938 38.171875 8.796875 38.132813 8.75 38.09375L6.3125 35.625Z" />
</svg>