<?xml version="1.0" encoding="utf-8"?>
<svg xmlns="http://www.w3.org/2000/svg" viewBox="0 0 50 50" width="515" height="515">
  <path d="M24.8125 0C24.488281 0.0664063 24.222656 0.289063 24.09375 0.59375L13 24.59375C12.859375 24.90625 12.890625 25.269531 13.082031 25.554688C13.273438 25.839844 13.59375 26.007813 13.9375 26L25.34375 26L19.40625 37L15 37C14.691406 37 14.398438 37.144531 14.210938 37.386719C14.019531 37.632813 13.953125 37.949219 14.03125 38.25L17.03125 49.25C17.117188 49.578125 17.363281 49.84375 17.683594 49.949219C18.003906 50.058594 18.359375 49.992188 18.625 49.78125L32.625 38.78125C32.957031 38.515625 33.085938 38.070313 32.945313 37.667969C32.804688 37.269531 32.425781 37 32 37L27.71875 37L36.875 20.5C37.054688 20.1875 37.054688 19.804688 36.871094 19.496094C36.691406 19.1875 36.359375 18.996094 36 19L24.59375 19L32.90625 1.4375C33.058594 1.125 33.039063 0.757813 32.851563 0.464844C32.667969 0.175781 32.347656 -0.00390625 32 0L25 0C24.96875 0 24.9375 0 24.90625 0C24.875 0 24.84375 0 24.8125 0 Z M 25.625 2L30.40625 2L22.09375 19.5625C21.941406 19.875 21.960938 20.242188 22.148438 20.535156C22.332031 20.824219 22.652344 21.003906 23 21L34.28125 21L25.125 37.5C24.945313 37.8125 24.945313 38.195313 25.128906 38.503906C25.308594 38.8125 25.640625 39.003906 26 39L29.09375 39L18.5625 47.28125L16.3125 39L20 39C20.367188 38.996094 20.703125 38.792969 20.875 38.46875L27.875 25.46875C28.039063 25.160156 28.03125 24.789063 27.851563 24.488281C27.671875 24.1875 27.347656 24.003906 27 24L15.5 24Z" />
</svg>