<?xml version="1.0" encoding="utf-8"?>
<svg xmlns="http://www.w3.org/2000/svg" viewBox="0 0 50 50" width="515" height="515">
  <path d="M27 3C25.640625 3 24.445313 3.546875 23.34375 4.28125C23.292969 4.273438 18.300781 3.503906 14.84375 4C11.789063 4.4375 8.566406 5.574219 6.09375 8.1875C3.621094 10.800781 2 14.84375 2 20.78125C2 26.347656 4.015625 33.09375 4.0625 33.25C4.0625 33.25 4.09375 33.34375 4.09375 33.34375L5 45.09375C5.046875 45.609375 5.480469 46.003906 6 46L13 46C13.519531 46.003906 13.953125 45.609375 14 45.09375L14.90625 34.6875C15.675781 34.808594 16.695313 35 18 35C19.3125 35 20.316406 34.765625 21.09375 34.625L22 45.09375C22.046875 45.609375 22.480469 46.003906 23 46L30 46C30.550781 46 31 45.550781 31 45C31 44.820313 31 44.671875 31 44.5C31.035156 37.730469 31.722656 34.246094 32.53125 31.75C33.234375 29.578125 34.027344 27.882813 34.625 25.5625C36.203125 26.222656 37.84375 26.699219 38.90625 27.34375C40.242188 28.152344 41.082031 29.160156 41 32.15625C40.972656 33.148438 40.769531 33.957031 40.5 34.40625C40.230469 34.855469 40.042969 35 39.46875 35C38.96875 35 38.414063 34.585938 37.96875 34.03125C37.523438 33.476563 37.28125 32.9375 37.28125 32.9375C37.164063 32.65625 36.929688 32.441406 36.636719 32.359375C36.34375 32.273438 36.03125 32.324219 35.78125 32.5L33.4375 34.1875C33.078125 34.453125 32.9375 34.925781 33.09375 35.34375C33.09375 35.34375 34.957031 40 40 40C41.585938 40 42.984375 39.265625 44.03125 38.09375C45.078125 36.921875 45.832031 35.351563 46.40625 33.4375C47.558594 29.613281 48 24.4375 48 18.59375C48 12.605469 46.199219 8.660156 43.6875 6.25C41.175781 3.839844 38.035156 3 35.53125 3C33.105469 3 31.730469 3.785156 31.03125 4.25C30.371094 3.761719 29.144531 3 27 3 Z M 27 5C29.171875 5 30.3125 6.125 30.3125 6.125C30.675781 6.488281 31.257813 6.515625 31.65625 6.1875C31.65625 6.1875 32.972656 5 35.53125 5C37.59375 5 40.207031 5.695313 42.28125 7.6875C44.355469 9.679688 46 13 46 18.59375C46 24.332031 45.546875 29.367188 44.5 32.84375C43.976563 34.582031 43.316406 35.9375 42.5625 36.78125C41.808594 37.625 41.023438 38 40 38C36.875 38 35.78125 36.082031 35.375 35.25L36.0625 34.75C36.207031 34.988281 36.191406 35.011719 36.40625 35.28125C37.03125 36.0625 38.042969 37 39.46875 37C40.660156 37 41.671875 36.351563 42.21875 35.4375C42.765625 34.523438 42.96875 33.386719 43 32.1875C43.09375 28.722656 41.730469 26.710938 39.9375 25.625C38.144531 24.539063 36.113281 24.175781 34.46875 23.3125C34.191406 23.167969 33.863281 23.164063 33.578125 23.300781C33.296875 23.433594 33.09375 23.695313 33.03125 24C32.503906 26.816406 31.519531 28.359375 30.625 31.125C29.824219 33.597656 29.222656 37.175781 29.09375 43.0625C28.617188 43.195313 28.253906 43.535156 28.09375 44L27.90625 44C27.703125 43.414063 27.15625 43 26.5 43C25.84375 43 25.296875 43.414063 25.09375 44L23.90625 44L23 33.4375C22.976563 33.152344 22.835938 32.890625 22.609375 32.71875C22.382813 32.546875 22.09375 32.476563 21.8125 32.53125C21.8125 32.53125 19.378906 33 18 33C16.59375 33 14.15625 32.59375 14.15625 32.59375C13.882813 32.550781 13.597656 32.621094 13.378906 32.792969C13.160156 32.964844 13.023438 33.222656 13 33.5L12.1875 43.03125C11.667969 43.136719 11.265625 43.507813 11.09375 44L10.90625 44C10.703125 43.414063 10.15625 43 9.5 43C8.84375 43 8.296875 43.414063 8.09375 44L6.9375 44L6.0625 32.96875C6.058594 32.90625 6.046875 32.84375 6.03125 32.78125C6.03125 32.78125 4 25.902344 4 20.78125C4 15.203125 5.460938 11.75 7.53125 9.5625C9.601563 7.375 12.382813 6.398438 15.15625 6C17.117188 5.71875 19.546875 5.886719 21.25 6.0625C19.871094 7.761719 19 9.925781 19 12.0625C19 19.832031 22.628906 26.847656 27.625 28.9375C28.058594 29.105469 28.550781 28.949219 28.8125 28.5625C29.046875 28.214844 29.285156 27.75 29.59375 27.09375C29.902344 26.4375 30.269531 25.636719 30.65625 24.71875C31.429688 22.878906 32.292969 20.660156 32.96875 18.6875C33.148438 18.160156 32.871094 17.585938 32.34375 17.40625C31.816406 17.226563 31.242188 17.503906 31.0625 18.03125C30.410156 19.941406 29.570313 22.136719 28.8125 23.9375C28.433594 24.839844 28.074219 25.625 27.78125 26.25C27.714844 26.394531 27.71875 26.40625 27.65625 26.53125C24.171875 24.488281 21 18.710938 21 12.0625C21 10.460938 21.707031 8.621094 22.84375 7.25C23.980469 5.878906 25.488281 5 27 5 Z M 41 15C40.445313 15 40 15.449219 40 16C40 16.550781 40.445313 17 41 17C41.554688 17 42 16.550781 42 16C42 15.449219 41.554688 15 41 15Z" />
</svg>