<?xml version="1.0" encoding="utf-8"?>
<svg xmlns="http://www.w3.org/2000/svg" viewBox="0 0 50 50" width="515" height="515">
  <path d="M15.875 0C15.617188 0.0351563 15.378906 0.167969 15.21875 0.375L10.21875 6.375C9.976563 6.675781 9.929688 7.085938 10.097656 7.433594C10.265625 7.78125 10.617188 8 11 8L21 8C21.382813 8 21.734375 7.78125 21.902344 7.433594C22.070313 7.085938 22.023438 6.675781 21.78125 6.375L16.78125 0.375C16.566406 0.101563 16.222656 -0.0429688 15.875 0 Z M 29.8125 0C29.460938 0.0625 29.171875 0.308594 29.046875 0.640625C28.925781 0.976563 28.992188 1.351563 29.21875 1.625L34.21875 7.625C34.410156 7.863281 34.695313 8 35 8C35.304688 8 35.589844 7.863281 35.78125 7.625L40.78125 1.625C41.023438 1.324219 41.070313 0.914063 40.902344 0.566406C40.734375 0.21875 40.382813 0 40 0L30 0C29.96875 0 29.9375 0 29.90625 0C29.875 0 29.84375 0 29.8125 0 Z M 32.125 2L37.875 2L35 5.4375 Z M 16 2.5625L18.875 6L13.125 6 Z M 3 10C1.355469 10 0 11.355469 0 13L0 47C0 48.644531 1.355469 50 3 50L47 50C48.644531 50 50 48.644531 50 47L50 13C50 11.355469 48.644531 10 47 10 Z M 3 12L47 12C47.554688 12 48 12.445313 48 13L48 47C48 47.554688 47.554688 48 47 48L3 48C2.445313 48 2 47.554688 2 47L2 13C2 12.445313 2.445313 12 3 12 Z M 11 14C8.800781 14 7 15.800781 7 18C7 20.199219 8.800781 22 11 22C13.199219 22 15 20.199219 15 18C15 15.800781 13.199219 14 11 14 Z M 11 22C7.675781 22 5 24.675781 5 28L5 35C4.996094 35.386719 5.214844 35.738281 5.5625 35.90625L7 36.625L7 45C7 45.550781 7.449219 46 8 46L14 46C14.550781 46 15 45.550781 15 45L15 36.625L16.4375 35.90625C16.785156 35.738281 17.003906 35.386719 17 35L17 28C17 24.675781 14.324219 22 11 22 Z M 25 14C22.800781 14 21 15.800781 21 18C21 20.199219 22.800781 22 25 22C27.199219 22 29 20.199219 29 18C29 15.800781 27.199219 14 25 14 Z M 25 22C21.675781 22 19 24.675781 19 28L19 35C18.996094 35.386719 19.214844 35.738281 19.5625 35.90625L21 36.625L21 45C21 45.550781 21.449219 46 22 46L28 46C28.550781 46 29 45.550781 29 45L29 36.625L30.4375 35.90625C30.785156 35.738281 31.003906 35.386719 31 35L31 28C31 24.675781 28.324219 22 25 22 Z M 39 14C36.800781 14 35 15.800781 35 18C35 20.199219 36.800781 22 39 22C41.199219 22 43 20.199219 43 18C43 15.800781 41.199219 14 39 14 Z M 39 22C35.675781 22 33 24.675781 33 28L33 35C32.996094 35.386719 33.214844 35.738281 33.5625 35.90625L35 36.625L35 45C35 45.550781 35.449219 46 36 46L42 46C42.550781 46 43 45.550781 43 45L43 36.625L44.4375 35.90625C44.785156 35.738281 45.003906 35.386719 45 35L45 28C45 24.675781 42.324219 22 39 22 Z M 11 16C12.117188 16 13 16.882813 13 18C13 19.117188 12.117188 20 11 20C9.882813 20 9 19.117188 9 18C9 16.882813 9.882813 16 11 16 Z M 25 16C26.117188 16 27 16.882813 27 18C27 19.117188 26.117188 20 25 20C23.882813 20 23 19.117188 23 18C23 16.882813 23.882813 16 25 16 Z M 39 16C40.117188 16 41 16.882813 41 18C41 19.117188 40.117188 20 39 20C37.882813 20 37 19.117188 37 18C37 16.882813 37.882813 16 39 16 Z M 11 24C13.277344 24 15 25.722656 15 28L15 34.375L13.5625 35.09375C13.214844 35.261719 12.996094 35.613281 13 36L13 44L9 44L9 36C9.003906 35.613281 8.785156 35.261719 8.4375 35.09375L7 34.375L7 28C7 25.722656 8.722656 24 11 24 Z M 25 24C27.277344 24 29 25.722656 29 28L29 34.375L27.5625 35.09375C27.214844 35.261719 26.996094 35.613281 27 36L27 44L23 44L23 36C23.003906 35.613281 22.785156 35.261719 22.4375 35.09375L21 34.375L21 28C21 25.722656 22.722656 24 25 24 Z M 39 24C41.277344 24 43 25.722656 43 28L43 34.375L41.5625 35.09375C41.214844 35.261719 40.996094 35.613281 41 36L41 44L37 44L37 36C37.003906 35.613281 36.785156 35.261719 36.4375 35.09375L35 34.375L35 28C35 25.722656 36.722656 24 39 24Z" />
</svg>