<?xml version="1.0" encoding="utf-8"?>
<svg xmlns="http://www.w3.org/2000/svg" viewBox="0 0 50 50" width="515" height="515">
  <path d="M8 12C5.253906 12 3 14.253906 3 17L3 33C3 35.746094 5.253906 38 8 38L40 38C42.746094 38 45 35.746094 45 33L45 30L47 30C47.550781 30 48 29.550781 48 29L48 21C48 20.449219 47.550781 20 47 20L45 20L45 17C45 14.253906 42.746094 12 40 12 Z M 8 14L40 14C41.65625 14 43 15.34375 43 17L43 21C43 21.550781 43.449219 22 44 22L46 22L46 28L44 28C43.449219 28 43 28.449219 43 29L43 33C43 34.65625 41.65625 36 40 36L8 36C6.34375 36 5 34.65625 5 33L5 17C5 15.34375 6.34375 14 8 14Z" />
</svg>