<?xml version="1.0" encoding="utf-8"?>
<svg xmlns="http://www.w3.org/2000/svg" viewBox="0 0 50 50" width="515" height="515">
  <path d="M46.980469 1.9902344 A 1.0001 1.0001 0 0 0 46.292969 2.2929688L40.53125 8.0546875C36.439103 4.302337 30.986114 2 25 2C12.309534 2 2 12.309534 2 25C2 30.985227 4.3097978 36.431436 8.0625 40.523438L2.2929688 46.292969 A 1.0001 1.0001 0 1 0 3.7070312 47.707031L47.707031 3.7070312 A 1.0001 1.0001 0 0 0 46.980469 1.9902344 z M 25 4C30.444872 4 35.384784 6.0777288 39.115234 9.4707031L9.4707031 39.115234C6.0767245 35.384601 4 30.444955 4 25C4 13.390466 13.390466 4 25 4 z M 43.251953 10.996094L41.808594 12.439453C44.517594 16.043453 46 20.386 46 25C46 36.609534 36.609534 46 25 46C20.385 46 16.042453 44.517594 12.439453 41.808594L10.996094 43.251953C14.964737 46.315694 19.791267 47.97753 24.914062 47.996094 A 1.0001 1.0001 0 0 0 24.929688 47.998047C24.953285 47.998117 24.97639 48 25 48C37.690466 48 48 37.690466 48 25C48 24.966543 47.996234 24.933822 47.996094 24.900391 A 1.0001 1.0001 0 0 0 47.996094 24.898438C47.974185 19.782467 46.313555 14.960679 43.251953 10.996094 z" />
</svg>