<?xml version="1.0" encoding="utf-8"?>
<svg xmlns="http://www.w3.org/2000/svg" viewBox="0 0 50 50" width="515" height="515">
  <path d="M6 1L6 5C6 6.644531 7.355469 8 9 8L11 8L11 14.71875C11 17.726563 12.496094 20.550781 15 22.21875L19.1875 25L15 27.78125C12.496094 29.449219 11 32.273438 11 35.28125L11 42L9 42C7.355469 42 6 43.355469 6 45L6 49L44 49L44 45C44 43.355469 42.644531 42 41 42L39 42L39 35.28125C39 32.273438 37.503906 29.449219 35 27.78125L30.8125 25L35 22.21875C37.503906 20.550781 39 17.726563 39 14.71875L39 8L41 8C42.644531 8 44 6.644531 44 5L44 1 Z M 8 3L42 3L42 5C42 5.566406 41.566406 6 41 6L9 6C8.433594 6 8 5.566406 8 5 Z M 13 8L37 8L37 14.71875C37 17.058594 35.824219 19.234375 33.875 20.53125L28.4375 24.15625L27.1875 25L28.4375 25.84375L33.875 29.46875C35.824219 30.769531 37 32.941406 37 35.28125L37 42L13 42L13 35.28125C13 32.941406 14.175781 30.769531 16.125 29.46875L21.5625 25.84375L22.8125 25L21.5625 24.15625L16.125 20.53125C14.175781 19.234375 13 17.058594 13 14.71875 Z M 9 44L41 44C41.566406 44 42 44.433594 42 45L42 47L8 47L8 45C8 44.433594 8.433594 44 9 44Z" />
</svg>