<?xml version="1.0" encoding="utf-8"?>
<svg xmlns="http://www.w3.org/2000/svg" viewBox="0 0 50 50" width="515" height="515">
  <path d="M25 13C16.902344 13 11.675781 14.21875 8.3125 15.625C4.949219 17.03125 3.386719 18.71875 2.9375 19.15625C2.355469 19.722656 2.230469 20.402344 2.125 21.125C2.019531 21.847656 1.984375 22.636719 2 23.4375C2.035156 25.039063 2.21875 26.613281 2.34375 27.34375C2.636719 29.066406 3.941406 30.226563 5.34375 29.96875C6.179688 29.816406 13.351563 28.332031 14.4375 28.0625C15.601563 27.769531 16.175781 26.75 16.5 25.65625C16.683594 25.042969 16.953125 23.714844 17.21875 22.40625C17.414063 21.449219 17.511719 20.976563 17.59375 20.5625C18.195313 20.417969 20.089844 20 25 20C29.941406 20 31.835938 20.460938 32.40625 20.625C32.484375 21.015625 32.582031 21.511719 32.78125 22.46875C33.046875 23.75 33.316406 25.050781 33.5 25.65625C33.824219 26.746094 34.398438 27.785156 35.59375 28.0625C36.070313 28.171875 38.089844 28.59375 40.15625 29.03125C42.222656 29.46875 44.175781 29.882813 44.6875 29.96875C46.074219 30.199219 47.359375 29.105469 47.65625 27.375C47.78125 26.644531 47.964844 25.070313 48 23.46875C48.015625 22.667969 47.980469 21.847656 47.875 21.125C47.769531 20.402344 47.648438 19.753906 47.0625 19.1875C46.613281 18.75 45.050781 17.03125 41.6875 15.625C38.324219 14.21875 33.09375 13 25 13 Z M 25 15C32.890625 15 37.839844 16.21875 40.90625 17.5C43.972656 18.78125 45.085938 20.007813 45.6875 20.59375C45.628906 20.535156 45.828125 20.898438 45.90625 21.4375C45.984375 21.976563 46.015625 22.671875 46 23.40625C45.96875 24.871094 45.785156 26.449219 45.6875 27.03125C45.53125 27.925781 44.878906 27.980469 45 28C44.792969 27.964844 42.65625 27.53125 40.59375 27.09375C38.53125 26.65625 36.398438 26.210938 36.03125 26.125C36.074219 26.132813 35.613281 25.761719 35.40625 25.0625C35.320313 24.773438 35.015625 23.335938 34.75 22.0625C34.484375 20.789063 34.25 19.625 34.25 19.625L34.125 19.0625L33.59375 18.875C33.59375 18.875 30.996094 18 25 18C19.019531 18 16.4375 18.75 16.4375 18.75L15.875 18.90625L15.75 19.5C15.75 19.5 15.511719 20.699219 15.25 22C14.988281 23.300781 14.679688 24.78125 14.59375 25.0625C14.386719 25.753906 13.917969 26.128906 13.9375 26.125C13.289063 26.285156 5.425781 27.917969 4.96875 28C5.082031 27.980469 4.496094 27.9375 4.34375 27.03125C4.242188 26.449219 4.03125 24.871094 4 23.40625C3.984375 22.675781 4.015625 21.945313 4.09375 21.40625C4.171875 20.867188 4.371094 20.535156 4.3125 20.59375C4.914063 20.007813 6.027344 18.75 9.09375 17.46875C12.160156 16.1875 17.105469 15 25 15 Z M 24.90625 27.96875C24.863281 27.976563 24.820313 27.988281 24.78125 28C24.316406 28.105469 23.988281 28.523438 24 29L24 42.5625L20.71875 39.28125C20.476563 39.03125 20.121094 38.925781 19.78125 39C19.40625 39.066406 19.105469 39.339844 19 39.703125C18.894531 40.070313 19.003906 40.460938 19.28125 40.71875L24.15625 45.5625C24.175781 45.59375 24.195313 45.625 24.21875 45.65625L24.28125 45.71875C24.328125 45.765625 24.382813 45.808594 24.4375 45.84375L25 46.40625L25.5625 45.84375C25.644531 45.78125 25.71875 45.707031 25.78125 45.625L30.71875 40.71875C31.117188 40.320313 31.117188 39.679688 30.71875 39.28125C30.320313 38.882813 29.679688 38.882813 29.28125 39.28125L26 42.5625L26 29C26.011719 28.710938 25.894531 28.433594 25.6875 28.238281C25.476563 28.039063 25.191406 27.941406 24.90625 27.96875Z" />
</svg>