<?xml version="1.0" encoding="utf-8"?>
<svg xmlns="http://www.w3.org/2000/svg" viewBox="0 0 50 50" width="515" height="515">
  <path d="M0.8125 17C0.335938 17.089844 -0.0078125 17.511719 0 18L0 24C0 24.417969 0.261719 24.792969 0.65625 24.9375L8 27.6875L8 39C8 39.550781 8.449219 40 9 40L32 40C32.324219 39.996094 32.628906 39.832031 32.8125 39.5625L46.5 20L49 20C49.359375 20.003906 49.695313 19.816406 49.878906 19.503906C50.058594 19.191406 50.058594 18.808594 49.878906 18.496094C49.695313 18.183594 49.359375 17.996094 49 18L45 18C44.96875 18 44.9375 18 44.90625 18C44.75 18.015625 44.601563 18.070313 44.46875 18.15625L33 25.21875L33 24C33 23.449219 32.550781 23 32 23L22 23L22 22L25 22C25.550781 22 26 21.550781 26 21L26 18C26 17.449219 25.550781 17 25 17L17 17C16.96875 17 16.9375 17 16.90625 17C16.390625 17.046875 15.996094 17.480469 16 18L16 21C16 21.550781 16.449219 22 17 22L20 22L20 23L9.625 23L7.90625 19.5625C7.785156 19.324219 7.570313 19.140625 7.3125 19.0625L1.3125 17.0625C1.183594 17.015625 1.042969 16.992188 0.90625 17C0.875 17 0.84375 17 0.8125 17 Z M 18 19L24 19L24 20L21.1875 20C21.054688 19.972656 20.914063 19.972656 20.78125 20L18 20 Z M 2 19.375L6.28125 20.8125L8 24.25L8 25.5625L2 23.3125 Z M 43.1875 21.28125L31.5 38L10 38L10 27.28125C10.058594 27.089844 10.058594 26.878906 10 26.6875L10 25L31 25L31 27C31 27.363281 31.199219 27.695313 31.515625 27.871094C31.835938 28.046875 32.222656 28.035156 32.53125 27.84375 Z M 48 27C48 27 46 30.894531 46 32C46 33.105469 46.894531 34 48 34C49.105469 34 50 33.105469 50 32C50 30.894531 48 27 48 27Z" />
</svg>