<?xml version="1.0" encoding="utf-8"?>
<svg xmlns="http://www.w3.org/2000/svg" viewBox="0 0 50 50" width="515" height="515">
  <path d="M20.8125 5C20.335938 5.089844 19.992188 5.511719 20 6L20 10C20 10.550781 20.449219 11 21 11L25 11L25 14L20 14C19.25 14 18.527344 14.304688 18 14.84375C17.980469 14.851563 17.957031 14.863281 17.9375 14.875L13.53125 20L11 20C10.164063 20 9.4375 20.375 8.90625 20.90625C8.375 21.4375 8 22.164063 8 23L8 26L6 26L6 21C6 20.449219 5.550781 20 5 20L1 20C0.96875 20 0.9375 20 0.90625 20C0.390625 20.046875 -0.00390625 20.480469 0 21L0 37C0 37.550781 0.449219 38 1 38L5 38C5.550781 38 6 37.550781 6 37L6 32L8 32L8 35C8 35.839844 8.371094 36.5625 8.90625 37.09375C9.441406 37.625 10.171875 38 11 38L13.53125 38L17.9375 43.125C17.957031 43.136719 17.980469 43.148438 18 43.15625C18.523438 43.691406 19.25 44 20 44L32.84375 44C33.59375 44 34.320313 43.691406 34.84375 43.15625L42.1875 35.6875C42.714844 35.152344 43 34.433594 43 33.6875L43 32L44 32L44 36C44.003906 36.550781 44.449219 36.996094 45 37L49 37C49.550781 36.996094 49.996094 36.550781 50 36L50 20C49.996094 19.449219 49.550781 19.003906 49 19L45 19C44.449219 19.003906 44.003906 19.449219 44 20L44 24L43 24L43 16.84375C43 15.292969 41.738281 14 40.1875 14L31 14L31 11L35 11C35.550781 11 36 10.550781 36 10L36 6C36 5.449219 35.550781 5 35 5L21 5C20.96875 5 20.9375 5 20.90625 5C20.875 5 20.84375 5 20.8125 5 Z M 22 7L34 7L34 9L30 9C29.449219 9 29 9.449219 29 10L29 14L27 14L27 10C27 9.449219 26.550781 9 26 9L22 9 Z M 20 16L40.1875 16C40.632813 16 41 16.359375 41 16.84375L41 25C41.003906 25.550781 41.449219 25.996094 42 26L45 26C45.550781 25.996094 45.996094 25.550781 46 25L46 21L48 21L48 35L46 35L46 31C45.996094 30.449219 45.550781 30.003906 45 30L42 30C41.449219 30.003906 41.003906 30.449219 41 31L41 33.6875C41 33.917969 40.902344 34.125 40.75 34.28125L33.40625 41.75C33.253906 41.90625 33.050781 42 32.84375 42L20 42C19.792969 42 19.589844 41.90625 19.4375 41.75L14.75 36.34375C14.5625 36.128906 14.289063 36 14 36L11 36C10.832031 36 10.558594 35.871094 10.34375 35.65625C10.128906 35.441406 10 35.179688 10 35L10 23C10 22.835938 10.125 22.5625 10.34375 22.34375C10.5625 22.125 10.835938 22 11 22L14 22C14.289063 22 14.5625 21.871094 14.75 21.65625L19.4375 16.25C19.589844 16.09375 19.792969 16 20 16 Z M 27 20L22 30L27 30L24 39L32 28L27 28L32 20 Z M 2 22L4 22L4 27C4 27.550781 4.449219 28 5 28L8 28L8 30L5 30C4.449219 30 4 30.449219 4 31L4 36L2 36Z" />
</svg>