<?xml version="1.0" encoding="utf-8"?>
<svg xmlns="http://www.w3.org/2000/svg" viewBox="0 0 50 50" width="515" height="515">
  <path d="M22.205078 2 A 1.0001 1.0001 0 0 0 21.21875 2.8398438L20.419922 7.7324219C18.864495 8.1456084 17.40015 8.7582972 16.042969 9.546875L11.996094 6.6542969 A 1.0001 1.0001 0 0 0 10.707031 6.7617188L6.8183594 10.650391 A 1.0001 1.0001 0 0 0 6.7050781 11.929688L9.5625 16.011719C8.7675488 17.373822 8.1504932 18.844871 7.734375 20.40625L2.8359375 21.222656 A 1.0001 1.0001 0 0 0 2 22.208984L2 27.708984 A 1.0001 1.0001 0 0 0 2.8261719 28.693359L7.7265625 29.5625C8.1396708 31.123636 8.7529064 32.594118 9.5449219 33.957031L6.6523438 38 A 1.0001 1.0001 0 0 0 6.7597656 39.289062L10.648438 43.177734 A 1.0001 1.0001 0 0 0 11.927734 43.291016L16.009766 40.435547C17.371756 41.232238 18.841562 41.848632 20.402344 42.263672L21.220703 47.166016 A 1.0001 1.0001 0 0 0 22.207031 48.001953L27.707031 48.001953 A 1.0001 1.0001 0 0 0 28.691406 47.175781L29.560547 42.275391C31.138387 41.858503 32.623178 41.235998 33.998047 40.431641L38.072266 43.289062 A 1.0001 1.0001 0 0 0 39.353516 43.177734L43.242188 39.289062 A 1.0001 1.0001 0 0 0 43.345703 37.998047L40.449219 33.972656C41.247538 32.603712 41.867149 31.124276 42.28125 29.552734L47.173828 28.693359 A 1.0001 1.0001 0 0 0 48 27.708984L48 22.208984 A 1.0001 1.0001 0 0 0 47.162109 21.222656L42.269531 20.421875C41.852595 18.851916 41.231973 17.373663 40.431641 16.005859L43.289062 11.935547 A 1.0001 1.0001 0 0 0 43.177734 10.654297L39.289062 6.765625 A 1.0001 1.0001 0 0 0 37.998047 6.6601562L33.970703 9.5546875C32.600661 8.7557777 31.120791 8.1374157 29.548828 7.7226562L28.691406 2.828125 A 1.0001 1.0001 0 0 0 27.705078 2L22.205078 2 z M 23.056641 4L26.865234 4L27.683594 8.6601562 A 1.0001 1.0001 0 0 0 28.451172 9.4648438C30.279417 9.8699714 31.984369 10.591695 33.519531 11.568359 A 1.0001 1.0001 0 0 0 34.640625 11.535156L38.476562 8.7792969L41.169922 11.474609L38.447266 15.351562 A 1.0001 1.0001 0 0 0 38.423828 16.464844C39.401064 17.9966 40.124239 19.702918 40.53125 21.529297 A 1.0001 1.0001 0 0 0 41.345703 22.298828L46 23.058594L46 26.869141L41.339844 27.6875 A 1.0001 1.0001 0 0 0 40.537109 28.455078C40.133006 30.282001 39.411088 31.988491 38.435547 33.521484 A 1.0001 1.0001 0 0 0 38.466797 34.642578L41.226562 38.476562L38.533203 41.169922L34.650391 38.447266 A 1.0001 1.0001 0 0 0 33.539062 38.423828C32.002378 39.404029 30.296538 40.126055 28.464844 40.533203 A 1.0001 1.0001 0 0 0 27.697266 41.333984L26.869141 46.001953L23.054688 46.001953L22.277344 41.335938 A 1.0001 1.0001 0 0 0 21.507812 40.525391C19.6895 40.119232 17.995427 39.401909 16.46875 38.427734 A 1.0001 1.0001 0 0 0 15.357422 38.451172L11.46875 41.169922L8.7734375 38.474609L11.525391 34.625 A 1.0001 1.0001 0 0 0 11.558594 33.507812C10.58908 31.97769 9.8709707 30.283699 9.4667969 28.466797 A 1.0001 1.0001 0 0 0 8.6660156 27.699219L4 26.871094L4 23.056641L8.6621094 22.28125 A 1.0001 1.0001 0 0 0 9.4726562 21.511719C9.8796872 19.69371 10.600077 17.997687 11.572266 16.46875 A 1.0001 1.0001 0 0 0 11.546875 15.359375L8.8261719 11.470703L11.523438 8.7734375L15.376953 11.527344 A 1.0001 1.0001 0 0 0 16.492188 11.558594C18.018483 10.591939 19.713539 9.874815 21.527344 9.4707031 A 1.0001 1.0001 0 0 0 22.296875 8.65625L23.056641 4 z M 25 13C18.384314 13 13 18.385313 13 24.998047C13 31.612602 18.384314 37 25 37C31.615686 37 37 31.612602 37 24.998047C37 18.385313 31.615686 13 25 13 z M 25 15C30.534314 15 35 19.46678 35 24.998047C35 30.531492 30.534314 35 25 35C19.465686 35 15 30.531492 15 24.998047C15 19.46678 19.465686 15 25 15 z M 25 19C21.698136 19 19 21.698136 19 25C19 28.301864 21.698136 31 25 31C28.301864 31 31 28.301864 31 25C31 21.698136 28.301864 19 25 19 z M 25 21C27.220984 21 29 22.779016 29 25C29 27.220984 27.220984 29 25 29C22.779016 29 21 27.220984 21 25C21 22.779016 22.779016 21 25 21 z" />
</svg>