<?xml version="1.0" encoding="utf-8"?>
<svg xmlns="http://www.w3.org/2000/svg" viewBox="0 0 50 50" width="515" height="515">
  <path d="M20.4375 18C18.988281 18 17.675781 18.605469 16.6875 19.59375C16.683594 19.59375 16.519531 19.757813 16.5 19.78125C15.097656 21.246094 10.925781 25 7.5 25C5.074219 25 2.589844 24.5 1.03125 21C1.03125 21 -0.339844 32 13.0625 32C17.921875 32 21.597656 31.003906 24 28.625C24.289063 28.367188 24.546875 28.066406 24.78125 27.75C24.78125 27.75 24.78125 27.71875 24.78125 27.71875C24.859375 27.609375 24.925781 27.488281 25 27.375C25.074219 27.488281 25.140625 27.609375 25.21875 27.71875C25.21875 27.71875 25.21875 27.75 25.21875 27.75C25.453125 28.066406 25.710938 28.367188 26 28.625C28.402344 31.003906 32.078125 32 36.9375 32C50.339844 32 48.96875 21 48.96875 21C47.410156 24.5 44.925781 25 42.5 25C39.074219 25 34.902344 21.25 33.5 19.78125C33.480469 19.757813 33.316406 19.59375 33.3125 19.59375C32.324219 18.605469 31.011719 18 29.5625 18C27.683594 18 26.003906 19.019531 25 20.5625C23.996094 19.019531 22.316406 18 20.4375 18 Z M 20.4375 20C22.394531 20 24 21.792969 24 24C24 24.9375 23.722656 25.835938 23.1875 26.5625L23.125 26.625C22.976563 26.816406 22.824219 26.976563 22.65625 27.125L22.59375 27.1875C20.691406 29.070313 17.570313 30 13.0625 30C9.285156 30 6.535156 29.046875 4.875 27.1875C4.707031 26.996094 4.546875 26.824219 4.40625 26.625C5.5 26.941406 6.5625 27 7.5 27C12.128906 27 17.027344 22.140625 17.96875 21.15625L18.125 21C18.777344 20.347656 19.578125 20 20.4375 20 Z M 29.5625 20C30.421875 20 31.222656 20.347656 31.875 21L32.03125 21.125C32.042969 21.136719 32.023438 21.148438 32.03125 21.15625C32.960938 22.128906 37.871094 27 42.5 27C43.433594 27 44.5 26.941406 45.59375 26.625C45.453125 26.824219 45.292969 27 45.125 27.1875C43.46875 29.046875 40.714844 30 36.9375 30C32.429688 30 29.308594 29.070313 27.40625 27.1875L27.34375 27.125C27.183594 26.980469 27.039063 26.835938 26.875 26.625L26.8125 26.5625C26.277344 25.835938 26 24.9375 26 24C26 21.792969 27.605469 20 29.5625 20Z" />
</svg>