<?xml version="1.0" encoding="utf-8"?>
<svg xmlns="http://www.w3.org/2000/svg" width="515" height="515" viewBox="0 0 50 50">
  <path d="M13 0C11.355541 0 10 1.3544268 10 3L10 22L12 22L12 3C12 2.4355732 12.436459 2 13 2L47 2C47.563541 2 48 2.4355732 48 3L48 47C48 47.562937 47.562937 48 47 48L13 48C12.437063 48 12 47.562937 12 47L12 28L10 28L10 47C10 48.645063 11.354937 50 13 50L47 50C48.645063 50 50 48.645063 50 47L50 3C50 1.3544268 48.644459 0 47 0L13 0 z M 22.042969 13.099609 A 1.0001 1.0001 0 0 0 21.347656 14.816406L30.529297 24L1 24 A 1.0001 1.0001 0 1 0 1 26L30.529297 26L21.345703 35.183594 A 1.0001 1.0001 0 1 0 22.759766 36.597656L34.357422 25L22.761719 13.402344 A 1.0001 1.0001 0 0 0 22.042969 13.099609 z" />
</svg>