<?xml version="1.0" encoding="utf-8"?>
<svg xmlns="http://www.w3.org/2000/svg" viewBox="0 0 50 50" width="515" height="515">
  <path d="M8 3L8 7L5 7L5 47L29 47L29 42.335938C29.317955 42.644155 29.650127 42.905701 29.986328 43.107422C30.758958 43.570999 31.42402 43.765804 31.931641 43.861328C31.351362 45.537816 31 47.268453 31 49 A 1.0001 1.0001 0 1 0 33 49C33 47.739091 33.227382 46.4368 33.621094 45.140625C34.480279 45.883719 35.613252 46.460763 36.982422 46.773438C39.334622 47.310603 42.257219 46.956364 44.675781 44.736328C47.292027 42.334729 47.727019 39.333053 47.953125 36.648438C48.179231 33.963819 48.266199 31.571249 49.789062 29.613281 A 1.0001 1.0001 0 0 0 49.232422 28.027344C47.743435 27.671005 46.336689 27.426836 45 27.269531L45 13L29 13L29 7L26 7L26 3L8 3 z M 10 5L24 5L24 9L25 9L27 9L27 37L27 45L19 45L19 39L15 39L15 45L7 45L7 9L10 9L10 5 z M 10 11L10 13L12 13L12 11L10 11 z M 14 11L14 13L16 13L16 11L14 11 z M 18 11L18 13L20 13L20 11L18 11 z M 22 11L22 13L24 13L24 11L22 11 z M 10 15L10 19L12 19L12 15L10 15 z M 14 15L14 19L16 19L16 15L14 15 z M 18 15L18 19L20 19L20 15L18 15 z M 22 15L22 19L24 19L24 15L22 15 z M 29 15L43 15L43 27.103516C42.531372 27.079586 42.064886 27.056978 41.617188 27.056641C40.860917 27.05607 40.134156 27.088452 39.4375 27.150391C36.77197 27.38738 34.545602 28.062007 32.744141 29L31 29L31 30.082031C30.210919 30.662813 29.554606 31.304557 29 31.974609L29 15 z M 31 17L31 19L33 19L33 17L31 17 z M 35 17L35 19L37 19L37 17L35 17 z M 39 17L39 19L41 19L41 17L39 17 z M 10 21L10 25L12 25L12 21L10 21 z M 14 21L14 25L16 25L16 21L14 21 z M 18 21L18 25L20 25L20 21L18 21 z M 22 21L22 25L24 25L24 21L22 21 z M 31 21L31 23L33 23L33 21L31 21 z M 35 21L35 23L37 23L37 21L35 21 z M 39 21L39 23L41 23L41 21L39 21 z M 31 25L31 27L33 27L33 25L31 25 z M 35 25L35 27L37 27L37 25L35 25 z M 39 25L39 27L41 27L41 25L39 25 z M 10 27L10 31L12 31L12 27L10 27 z M 14 27L14 31L16 31L16 27L14 27 z M 18 27L18 31L20 31L20 27L18 27 z M 22 27L22 31L24 31L24 27L22 27 z M 41.375 29.064453C43.17048 29.072825 45.201522 29.305007 47.414062 29.746094C46.27603 31.945927 46.140715 34.322736 45.958984 36.480469C45.739341 39.088352 45.424973 41.335271 43.324219 43.263672C41.405781 45.024636 39.270534 45.245054 37.427734 44.824219C36.078517 44.516102 34.952629 43.75201 34.357422 43.164062C34.932774 41.845489 35.655786 40.558578 36.490234 39.361328C38.545912 36.411883 41.227072 34.003491 43.447266 32.894531 A 1.0001 1.0001 0 0 0 43.005859 30.994141 A 1.0001 1.0001 0 0 0 42.552734 31.105469C39.891928 32.434509 37.073682 35.025742 34.849609 38.216797C34.030771 39.391651 33.294776 40.649734 32.689453 41.958984C32.364061 41.928306 31.761145 41.841095 31.013672 41.392578C30.015876 40.7939 29 39.722222 29 37C29 34.333333 32.094246 29.793843 39.660156 29.130859C40.204357 29.083172 40.776507 29.061663 41.375 29.064453 z M 10 33L10 37L12 37L12 33L10 33 z M 14 33L14 37L16 37L16 33L14 33 z M 18 33L18 37L20 37L20 33L18 33 z M 22 33L22 37L24 37L24 33L22 33 z M 10 39L10 43L12 43L12 39L10 39 z M 22 39L22 43L24 43L24 39L22 39 z" />
</svg>