<?xml version="1.0" encoding="utf-8"?>
<svg xmlns="http://www.w3.org/2000/svg" viewBox="0 0 50 50" width="515" height="515">
  <path d="M30.9375 3C30.160156 2.996094 29.371094 3.316406 28.78125 3.90625L3.90625 28.78125C2.679688 29.890625 2.734375 31.828125 3.90625 33L17 46.09375C18.152344 47.246094 20.066406 47.246094 21.21875 46.09375L46.0625 21.25C46.074219 21.238281 46.082031 21.230469 46.09375 21.21875C47.320313 20.109375 47.265625 18.171875 46.09375 17L33.0625 3.9375C33.054688 3.929688 33.039063 3.945313 33.03125 3.9375C33.019531 3.925781 33.011719 3.917969 33 3.90625C32.453125 3.3125 31.695313 3.003906 30.9375 3 Z M 30.9375 5C31.183594 4.996094 31.414063 5.082031 31.5625 5.25C31.570313 5.269531 31.582031 5.292969 31.59375 5.3125L44.6875 18.40625C45.105469 18.824219 45.089844 19.453125 44.75 19.75C44.730469 19.757813 44.707031 19.769531 44.6875 19.78125L32.9375 31.53125L18.46875 17.0625L30.21875 5.3125C30.425781 5.105469 30.691406 5.003906 30.9375 5 Z M 31 6C30.449219 6 30 6.449219 30 7C30 7.550781 30.449219 8 31 8C31.550781 8 32 7.550781 32 7C32 6.449219 31.550781 6 31 6 Z M 28 9C27.449219 9 27 9.449219 27 10C27 10.550781 27.449219 11 28 11C28.550781 11 29 10.550781 29 10C29 9.449219 28.550781 9 28 9 Z M 34 9C33.449219 9 33 9.449219 33 10C33 10.550781 33.449219 11 34 11C34.550781 11 35 10.550781 35 10C35 9.449219 34.550781 9 34 9 Z M 25 12C24.449219 12 24 12.449219 24 13C24 13.550781 24.449219 14 25 14C25.550781 14 26 13.550781 26 13C26 12.449219 25.550781 12 25 12 Z M 31 12C30.449219 12 30 12.449219 30 13C30 13.550781 30.449219 14 31 14C31.550781 14 32 13.550781 32 13C32 12.449219 31.550781 12 31 12 Z M 37 12C36.449219 12 36 12.449219 36 13C36 13.550781 36.449219 14 37 14C37.550781 14 38 13.550781 38 13C38 12.449219 37.550781 12 37 12 Z M 22 15C21.449219 15 21 15.449219 21 16C21 16.550781 21.449219 17 22 17C22.550781 17 23 16.550781 23 16C23 15.449219 22.550781 15 22 15 Z M 28 15C27.449219 15 27 15.449219 27 16C27 16.550781 27.449219 17 28 17C28.550781 17 29 16.550781 29 16C29 15.449219 28.550781 15 28 15 Z M 34 15C33.449219 15 33 15.449219 33 16C33 16.550781 33.449219 17 34 17C34.550781 17 35 16.550781 35 16C35 15.449219 34.550781 15 34 15 Z M 40 15C39.449219 15 39 15.449219 39 16C39 16.550781 39.449219 17 40 17C40.550781 17 41 16.550781 41 16C41 15.449219 40.550781 15 40 15 Z M 25 18C24.449219 18 24 18.449219 24 19C24 19.550781 24.449219 20 25 20C25.550781 20 26 19.550781 26 19C26 18.449219 25.550781 18 25 18 Z M 31 18C30.449219 18 30 18.449219 30 19C30 19.550781 30.449219 20 31 20C31.550781 20 32 19.550781 32 19C32 18.449219 31.550781 18 31 18 Z M 37 18C36.449219 18 36 18.449219 36 19C36 19.550781 36.449219 20 37 20C37.550781 20 38 19.550781 38 19C38 18.449219 37.550781 18 37 18 Z M 43 18C42.449219 18 42 18.449219 42 19C42 19.550781 42.449219 20 43 20C43.550781 20 44 19.550781 44 19C44 18.449219 43.550781 18 43 18 Z M 17.0625 18.46875L31.53125 32.9375L19.78125 44.6875C19.335938 45.132813 18.851563 45.132813 18.40625 44.6875L5.3125 31.59375C4.894531 31.175781 4.910156 30.546875 5.25 30.25C5.269531 30.242188 5.292969 30.230469 5.3125 30.21875 Z M 28 21C27.449219 21 27 21.449219 27 22C27 22.550781 27.449219 23 28 23C28.550781 23 29 22.550781 29 22C29 21.449219 28.550781 21 28 21 Z M 34 21C33.449219 21 33 21.449219 33 22C33 22.550781 33.449219 23 34 23C34.550781 23 35 22.550781 35 22C35 21.449219 34.550781 21 34 21 Z M 40 21C39.449219 21 39 21.449219 39 22C39 22.550781 39.449219 23 40 23C40.550781 23 41 22.550781 41 22C41 21.449219 40.550781 21 40 21 Z M 31 24C30.449219 24 30 24.449219 30 25C30 25.550781 30.449219 26 31 26C31.550781 26 32 25.550781 32 25C32 24.449219 31.550781 24 31 24 Z M 37 24C36.449219 24 36 24.449219 36 25C36 25.550781 36.449219 26 37 26C37.550781 26 38 25.550781 38 25C38 24.449219 37.550781 24 37 24 Z M 34 27C33.449219 27 33 27.449219 33 28C33 28.550781 33.449219 29 34 29C34.550781 29 35 28.550781 35 28C35 27.449219 34.550781 27 34 27Z" />
</svg>