<?xml version="1.0" encoding="utf-8"?>
<svg xmlns="http://www.w3.org/2000/svg" viewBox="0 0 50 50" width="515" height="515">
  <path d="M4 7C2.355469 7 1 8.355469 1 10L1 40C1 41.644531 2.355469 43 4 43L46 43C47.644531 43 49 41.644531 49 40L49 10C49 8.355469 47.644531 7 46 7 Z M 4 9L24 9L24 41L4 41C3.433594 41 3 40.566406 3 40L3 10C3 9.433594 3.433594 9 4 9 Z M 26 9L46 9C46.566406 9 47 9.433594 47 10L47 40C47 40.566406 46.566406 41 46 41L26 41 Z M 29 14L29 16L44 16L44 14 Z M 29 19L29 21L44 21L44 19 Z M 29 24L29 26L44 26L44 24 Z M 29 29L29 31L44 31L44 29 Z M 29 34L29 36L44 36L44 34Z" />
</svg>