<?xml version="1.0" encoding="utf-8"?>
<svg xmlns="http://www.w3.org/2000/svg" viewBox="0 0 50 50" width="515" height="515">
  <path d="M9 4C6.2504839 4 4 6.2504839 4 9L4 41C4 43.749516 6.2504839 46 9 46L41 46C43.749516 46 46 43.749516 46 41L46 9C46 6.2504839 43.749516 4 41 4L9 4 z M 9 6L41 6C42.668484 6 44 7.3315161 44 9L44 41C44 42.668484 42.668484 44 41 44L9 44C7.3315161 44 6 42.668484 6 41L6 9C6 7.3315161 7.3315161 6 9 6 z M 11 13L11 31L15 31L15 34L19 34L19 37L31 37L31 34L35 34L35 31L39 31L39 13L38 13L11 13 z M 13 15L37 15L37 29L33 29L33 32L29 32L29 35L21 35L21 32L17 32L17 29L13 29L13 15 z M 15 17L15 24L17 24L17 17L15 17 z M 18 17L18 24L20 24L20 17L18 17 z M 21 17L21 24L23 24L23 17L21 17 z M 24 17L24 24L26 24L26 17L24 17 z M 27 17L27 24L29 24L29 17L27 17 z M 30 17L30 24L32 24L32 17L30 17 z M 33 17L33 24L35 24L35 17L33 17 z" />
</svg>