<?xml version="1.0" encoding="utf-8"?>
<svg xmlns="http://www.w3.org/2000/svg" viewBox="0 0 50 50" width="515" height="515">
  <path d="M25 2C12.309295 2 2 12.309295 2 25C2 37.690705 12.309295 48 25 48C37.690705 48 48 37.690705 48 25C48 12.309295 37.690705 2 25 2 z M 25 4C36.609824 4 46 13.390176 46 25C46 36.609824 36.609824 46 25 46C13.390176 46 4 36.609824 4 25C4 13.390176 13.390176 4 25 4 z M 26.400391 12.699219C23.700391 12.699219 18.299219 13.899609 16.699219 22.099609L15 22.099609L14.400391 23.599609L16.599609 23.599609C16.499609 23.899609 16.5 24.700391 16.5 24.900391L16.5 25.599609L15 25.599609L14.400391 27.099609L16.599609 27.099609C17.799609 36.099609 23.399219 37.199219 26.199219 37.199219C28.499219 37.199219 30.400781 36.5 32.300781 35L32.300781 32.400391C29.500781 35.300391 27.600391 35.300781 26.400391 35.300781C24.200391 35.300781 19.900391 34.399609 18.900391 27.099609L28.400391 27.099609L29 25.599609L18.699219 25.599609L18.699219 25.099609C18.699219 24.599609 18.700781 24.199609 18.800781 23.599609L29.599609 23.599609L30.199219 22.099609L19 22.099609C20.3 15.499609 24.300391 14.699219 26.400391 14.699219C28.500391 14.699219 30.300781 15.500781 31.800781 17.300781L32.699219 15.300781C31.299219 13.600781 29.200391 12.699219 26.400391 12.699219 z" />
</svg>