<?xml version="1.0" encoding="utf-8"?>
<svg xmlns="http://www.w3.org/2000/svg" viewBox="0 0 50 50" width="515" height="515">
  <path d="M12 0C10.90625 0 10 0.90625 10 2L10 4L4 4C3.476563 4 2.945313 4.191406 2.570313 4.570313C2.191406 4.945313 2 5.476563 2 6L2 46C2 46.523438 2.191406 47.054688 2.570313 47.433594C2.945313 47.808594 3.476563 48 4 48L34.027344 48C35.695313 49.25 37.757813 50 40 50C45.515625 50 50 45.515625 50 40C50 37.757813 49.25 35.695313 48 34.027344L48 6C48 5.476563 47.808594 4.945313 47.433594 4.570313C47.054688 4.191406 46.523438 4 46 4L40 4L40 2C40 0.90625 39.09375 0 38 0L36 0C34.90625 0 34 0.90625 34 2L34 4L16 4L16 2C16 0.90625 15.09375 0 14 0 Z M 12 2L14 2L14 8L12 8 Z M 36 2L38 2L38 8L36 8 Z M 4 6L10 6L10 8C10 9.09375 10.90625 10 12 10L14 10C15.09375 10 16 9.09375 16 8L16 6L34 6L34 8C34 9.09375 34.90625 10 36 10L38 10C39.09375 10 40 9.09375 40 8L40 6L46 6L46 13L4 13 Z M 4 15L46 15L46 32.019531C44.328125 30.757813 42.253906 30 40 30C35.527344 30 31.734375 32.949219 30.457031 37.007813L30.234375 36.15625L29 31.519531L35 26.640625L27.28125 26.222656L24.5 19L21.71875 26.222656L14 26.640625L20 31.519531L18.011719 39L24.5 34.796875L30.132813 38.445313C30.054688 38.953125 30 39.46875 30 40C30 42.253906 30.757813 44.328125 32.019531 46L4 46 Z M 24.5 24.5625L25.414063 26.941406L25.878906 28.152344L27.171875 28.21875L29.71875 28.359375L27.734375 29.96875L26.734375 30.78125L27.066406 32.03125L27.722656 34.5L25.585938 33.113281L24.5 32.410156L23.410156 33.113281L21.277344 34.5L21.933594 32.03125L22.265625 30.78125L21.261719 29.96875L19.28125 28.359375L21.828125 28.21875L23.121094 28.152344L23.582031 26.941406 Z M 40 32C44.410156 32 48 35.589844 48 40C48 44.410156 44.410156 48 40 48C35.589844 48 32 44.410156 32 40C32 35.589844 35.589844 32 40 32 Z M 39 34L39 38.886719C38.683594 39.167969 38.5 39.574219 38.5 40C38.5 40.828125 39.171875 41.5 40 41.5C40.097656 41.5 40.195313 41.488281 40.292969 41.46875L43.402344 43.800781L44.597656 42.199219L41.496094 39.871094C41.460938 39.488281 41.285156 39.136719 41 38.886719L41 34Z" />
</svg>