<?xml version="1.0" encoding="utf-8"?>
<svg xmlns="http://www.w3.org/2000/svg" viewBox="0 0 50 50" width="515" height="515">
  <path d="M18.070313 2C16.480469 2 14.953125 2.632813 13.828125 3.757813L6.78125 10.800781C5.640625 11.945313 5.003906 13.503906 5.027344 15.125L5.039063 15.929688L5.039063 15.953125C5.039063 15.988281 5.039063 16.019531 5.039063 16.050781C5.007813 20.234375 5.398438 25.292969 6.316406 28.230469C7.121094 30.8125 8.859375 33.226563 11.730469 33.839844L18.777344 35.445313C18.78125 35.445313 18.785156 35.445313 18.792969 35.449219C21.023438 35.925781 23.226563 34.410156 23.578125 32.15625C23.585938 32.125 23.585938 32.097656 23.589844 32.066406L23.753906 29.625C25.03125 31.265625 27.0625 32 29 32L32 32C34.21875 32 36 33.78125 36 36L36 39C36 40.667969 34.667969 42 33 42L30.109375 42C29.566406 42 29.085938 41.628906 29.015625 41.175781C28.90625 40.503906 29.378906 40 30 40L32 40C32.550781 40 33 39.550781 33 39L33 35C33 34.449219 32.550781 34 32 34L29 34C25.699219 34 23 36.699219 23 40L23 42C23 45.300781 25.699219 48 29 48L34 48C36.230469 48 38.09375 47.257813 39.488281 45.984375C40.886719 44.714844 41.824219 42.964844 42.480469 40.96875C43.789063 36.972656 44 31.90625 44 27C44 20.078125 43.835938 15.582031 42.96875 11.46875C42.667969 10.050781 42.097656 8.761719 41.136719 7.757813C40.171875 6.753906 38.828125 6.082031 37.15625 5.8125C37.140625 5.808594 37.121094 5.808594 37.101563 5.804688C37.101563 5.804688 31.136719 5.222656 27.75 5.054688C27.511719 4.34375 27.125 3.6875 26.542969 3.191406C25.707031 2.480469 24.605469 2 23.40625 2 Z M 19 4L23.40625 4C24.046875 4 24.746094 4.289063 25.246094 4.714844C25.746094 5.140625 26 5.671875 26 6C26 6.539063 26.429688 6.984375 26.96875 7C29.910156 7.089844 36.800781 7.785156 36.859375 7.789063C38.175781 8.003906 39.050781 8.476563 39.691406 9.144531C40.335938 9.8125 40.765625 10.722656 41.011719 11.882813C41.828125 15.753906 42 20.113281 42 27C42 31.84375 41.75 36.777344 40.578125 40.34375C39.996094 42.128906 39.191406 43.550781 38.140625 44.503906C37.09375 45.460938 35.808594 46 34 46L29 46C26.78125 46 25 44.21875 25 42L25 40C25 37.78125 26.78125 36 29 36L31 36L31 38L30 38C28.191406 38 26.742188 39.660156 27.039063 41.496094C27.285156 43.007813 28.65625 44 30.109375 44L33 44C35.75 44 38 41.75 38 39L38 36C38 32.699219 35.300781 30 32 30L29 30C27.320313 30 25.742188 29.371094 24.996094 28.007813C24.996094 28.007813 24.996094 28.007813 24.996094 28.003906C24.769531 27.59375 23.921875 25.613281 23.921875 25.613281C23.742188 25.1875 23.292969 24.941406 22.835938 25.015625C22.378906 25.089844 22.035156 25.46875 22 25.933594L21.601563 31.855469C21.417969 32.996094 20.34375 33.734375 19.210938 33.492188L12.160156 31.890625C12.15625 31.886719 12.152344 31.886719 12.148438 31.886719C10.164063 31.460938 8.898438 29.792969 8.226563 27.636719C8.226563 27.632813 8.226563 27.632813 8.226563 27.632813C7.457031 25.175781 7 20.007813 7.039063 15.953125C7.039063 15.953125 7.039063 15.953125 7.039063 15.949219C7.050781 14.855469 7.910156 14 9 14L14 14C15.09375 14 16 13.09375 16 12L16 7C16 5.332031 17.332031 4 19 4 Z M 14.046875 6.367188C14.019531 6.578125 14 6.785156 14 7L14 12L9 12C8.777344 12 8.558594 12.03125 8.34375 12.066406 Z M 34.5 20C33.117188 20 32 21.121094 32 22.5C32 22.679688 32.019531 22.851563 32.058594 23.019531C32.203125 23.011719 32.347656 23 32.5 23C34.210938 23 35.683594 23.429688 36.441406 24.054688C36.785156 23.628906 37 23.09375 37 22.5C37 21.117188 35.882813 20 34.5 20Z" />
</svg>