<?xml version="1.0" encoding="utf-8"?>
<svg xmlns="http://www.w3.org/2000/svg" viewBox="0 0 50 50" width="515" height="515">
  <path d="M7 0L7 50L43 50L43 14.59375L42.71875 14.28125L28.71875 0.28125L28.40625 0 Z M 9 2L27 2L27 16L41 16L41 48L9 48 Z M 29 3.4375L39.5625 14L29 14 Z M 19.875 19.75C19.546875 19.804688 19.398438 19.972656 19.3125 20.0625C19.226563 20.152344 19.203125 20.207031 19.15625 20.28125C19.058594 20.429688 18.960938 20.59375 18.875 20.78125C18.703125 21.152344 18.527344 21.625 18.3125 22.21875C17.878906 23.402344 17.335938 24.996094 16.8125 26.71875C16.394531 28.101563 15.996094 29.5625 15.625 30.96875C15.601563 31.007813 15.578125 31.050781 15.5625 31.09375C15.46875 31.242188 15.425781 31.417969 15.4375 31.59375C14.957031 33.449219 14.574219 35.160156 14.375 36.375C14.269531 36.695313 14.363281 37.050781 14.613281 37.277344C14.867188 37.503906 15.230469 37.558594 15.535156 37.417969C15.84375 37.273438 16.039063 36.964844 16.03125 36.625C16.203125 35.578125 16.554688 34.03125 17 32.3125L23.03125 31.9375C23.449219 33.433594 23.800781 34.875 24.0625 36.15625C24.082031 36.484375 24.289063 36.777344 24.59375 36.898438C24.902344 37.023438 25.253906 36.957031 25.492188 36.730469C25.734375 36.503906 25.820313 36.15625 25.71875 35.84375C24.804688 31.378906 23.023438 25.140625 20.78125 20.25C20.628906 19.898438 20.253906 19.691406 19.875 19.75 Z M 19.90625 22.8125C20.890625 25.203125 21.78125 27.796875 22.53125 30.28125L17.46875 30.59375C17.78125 29.464844 18.105469 28.316406 18.4375 27.21875C18.953125 25.515625 19.492188 23.945313 19.90625 22.8125 Z M 31.9375 26.03125C31.511719 26.113281 31.214844 26.503906 31.25 26.9375L31.40625 30.09375L28.5625 30.25C28.238281 30.234375 27.929688 30.402344 27.773438 30.6875C27.617188 30.972656 27.636719 31.324219 27.824219 31.589844C28.011719 31.855469 28.335938 31.992188 28.65625 31.9375L31.5 31.78125L31.65625 34.53125C31.628906 34.859375 31.792969 35.167969 32.078125 35.335938C32.359375 35.5 32.714844 35.484375 32.984375 35.300781C33.253906 35.117188 33.394531 34.792969 33.34375 34.46875L33.1875 31.71875L36.03125 31.5625C36.507813 31.546875 36.875 31.148438 36.859375 30.671875C36.84375 30.195313 36.445313 29.828125 35.96875 29.84375L33.09375 30L32.9375 26.84375C32.929688 26.613281 32.828125 26.398438 32.65625 26.246094C32.484375 26.09375 32.261719 26.015625 32.03125 26.03125C32 26.03125 31.96875 26.03125 31.9375 26.03125Z" />
</svg>