<?xml version="1.0" encoding="utf-8"?>
<svg xmlns="http://www.w3.org/2000/svg" viewBox="0 0 50 50" width="515" height="515">
  <path d="M24 6L24 9.0585938C20.336655 9.3481308 18.1796 11.16861 17.130859 13.003906C15.988378 15.003248 16 17 16 17C16 19.546296 17.213309 21.461278 18.869141 22.806641C20.524972 24.152004 22.599609 25.041016 24.599609 25.916016C26.599609 26.791016 28.524972 27.652004 29.869141 28.744141C31.213309 29.836278 32 31.046296 32 33C32 33 31.98838 34.503248 31.130859 36.003906C30.27334 37.504565 28.708333 39 25 39C21.333333 39 19.775274 37.31422 18.894531 35.552734C18.013788 33.791248 18 32 18 32L16 32C16 32 15.98621 34.208752 17.105469 36.447266C18.135176 38.506681 20.288456 40.624563 24 40.951172L24 44L26 44L26 40.941406C29.663345 40.651869 31.8204 38.83139 32.869141 36.996094C34.011622 34.996752 34 33 34 33C34 30.453704 32.786691 28.538722 31.130859 27.193359C29.475028 25.847996 27.400391 24.958984 25.400391 24.083984C23.400391 23.208984 21.475028 22.347996 20.130859 21.255859C18.786691 20.163722 18 18.953704 18 17C18 17 18.01162 15.496752 18.869141 13.996094C19.72666 12.495435 21.291667 11 25 11C28.666667 11 30.224726 12.68578 31.105469 14.447266C31.986212 16.208752 32 18 32 18L34 18C34 18 34.01379 15.791248 32.894531 13.552734C31.864824 11.493319 29.711544 9.3754371 26 9.0488281L26 6L24 6 z M 40.955078 8.9902344 A 1.0001 1.0001 0 0 0 40.318359 10.730469L45.962891 16L35.806641 16C35.932641 16.693 36 17.369 36 18L45.962891 18L40.318359 23.269531 A 1.0001 1.0001 0 1 0 41.681641 24.730469L49.964844 17L41.681641 9.2695312 A 1.0001 1.0001 0 0 0 40.955078 8.9902344 z M 2 16C1.447 16 1 16.447 1 17C1 17.553 1.447 18 2 18L14.054688 18C14.023687 17.676 14 17.346 14 17C14 16.679 14.025453 16.342 14.064453 16L2 16 z M 8.9804688 24.990234 A 1.0001 1.0001 0 0 0 8.2929688 25.292969L0.5859375 33L8.2929688 40.707031 A 1.0001 1.0001 0 1 0 9.7070312 39.292969L4.4140625 34L14.193359 34C14.067359 33.307 14 32.631 14 32L4.4140625 32L9.7070312 26.707031 A 1.0001 1.0001 0 0 0 8.9804688 24.990234 z M 35.945312 32C35.976312 32.324 36 32.654 36 33C36 33.321 35.974547 33.658 35.935547 34L48.5 34C49.053 34 49.5 33.553 49.5 33C49.5 32.447 49.053 32 48.5 32L35.945312 32 z" />
</svg>