<?xml version="1.0" encoding="utf-8"?>
<svg xmlns="http://www.w3.org/2000/svg" viewBox="0 0 50 50" width="515" height="515">
  <path d="M22.8125 0C22.335938 0.0898438 21.992188 0.511719 22 1L22 39C22 39.550781 22.449219 40 23 40L27 40C27.550781 40 28 39.550781 28 39L28 1C28 0.449219 27.550781 0 27 0L23 0C22.96875 0 22.9375 0 22.90625 0C22.875 0 22.84375 0 22.8125 0 Z M 24 2L26 2L26 38L24 38 Z M 22.8125 44C22.335938 44.089844 21.992188 44.511719 22 45L22 49C22 49.550781 22.449219 50 23 50L27 50C27.550781 50 28 49.550781 28 49L28 45C28 44.449219 27.550781 44 27 44L23 44C22.96875 44 22.9375 44 22.90625 44C22.875 44 22.84375 44 22.8125 44 Z M 24 46L26 46L26 48L24 48Z" />
</svg>