<?xml version="1.0" encoding="utf-8"?>
<svg xmlns="http://www.w3.org/2000/svg" viewBox="0 0 50 50" width="515" height="515">
  <path d="M12 2C9.25 2 7 4.25 7 7C7 9.75 9.25 12 12 12C14.75 12 17 9.75 17 7C17 4.25 14.75 2 12 2 Z M 12 4C13.667969 4 15 5.332031 15 7C15 8.667969 13.667969 10 12 10C10.332031 10 9 8.667969 9 7C9 5.332031 10.332031 4 12 4 Z M 24 4C23.449219 4 23 4.449219 23 5L23 11L25 11L25 6L44 6L44 39L25 39L25 21L23 21L23 39.777344L21.070313 44.628906C20.949219 44.9375 20.984375 45.289063 21.171875 45.5625C21.359375 45.835938 21.667969 46 22 46L47 46C47.332031 46 47.644531 45.835938 47.828125 45.558594C48.015625 45.28125 48.050781 44.929688 47.925781 44.625L46.011719 39.921875C46.007813 39.894531 46.003906 39.867188 46 39.84375L46 5C46 4.449219 45.550781 4 45 4 Z M 28 8C27.449219 8 27 8.449219 27 9L27 11L29 11L29 10L40 10L40 28L29 28L29 21L27 21L27 29C27 29.550781 27.449219 30 28 30L41 30C41.550781 30 42 29.550781 42 29L42 9C42 8.449219 41.550781 8 41 8 Z M 7.5 13C4.472656 13 2 15.472656 2 18.5L2 31C2 31.074219 2.007813 31.144531 2.023438 31.21875C2.136719 32.761719 3.429688 34 5 34C5.351563 34 5.683594 33.925781 6 33.8125L6 44.5C6 46.421875 7.578125 48 9.5 48C10.476563 48 11.363281 47.589844 12 46.9375C12.636719 47.589844 13.523438 48 14.5 48C16.421875 48 18 46.421875 18 44.5L18 19L29 19C30.644531 19 32 17.644531 32 16C32 14.429688 30.757813 13.136719 29.214844 13.019531C29.144531 13.007813 29.070313 13 29 13L15 13C14.621094 13 14.273438 13.214844 14.105469 13.550781L12 17.765625L9.894531 13.550781C9.726563 13.214844 9.378906 13 9 13 Z M 7.5 15L8.382813 15L10.890625 20.019531C10.394531 20.078125 10 20.484375 10 21L10 25C10 25.550781 10.449219 26 11 26L13 26C13.550781 26 14 25.550781 14 25L14 21C14 20.484375 13.605469 20.078125 13.109375 20.019531L15.617188 15L29 15C29.566406 15 30 15.433594 30 16C30 16.566406 29.566406 17 29 17L17 17C16.449219 17 16 17.449219 16 18L16 44.5C16 45.339844 15.339844 46 14.5 46C13.660156 46 13 45.339844 13 44.5L13 34C13.003906 33.730469 12.898438 33.46875 12.707031 33.277344C12.515625 33.085938 12.253906 32.980469 11.984375 32.984375C11.433594 32.996094 10.992188 33.449219 11 34L11 44.5C11 45.339844 10.339844 46 9.5 46C8.660156 46 8 45.339844 8 44.5L8 20.125C8.003906 19.855469 7.898438 19.59375 7.707031 19.402344C7.515625 19.210938 7.253906 19.105469 6.984375 19.109375C6.433594 19.121094 5.992188 19.574219 6 20.125L6 31C6 31.566406 5.566406 32 5 32C4.433594 32 4 31.566406 4 31L4 18.5C4 16.554688 5.554688 15 7.5 15 Z M 24.667969 41L44.292969 41L45.515625 44L23.472656 44Z" />
</svg>