<?xml version="1.0" encoding="utf-8"?>
<svg xmlns="http://www.w3.org/2000/svg" viewBox="0 0 50 50" width="515" height="515">
  <path d="M7 3C6.45 3 6 3.45 6 4L6 31C6 31.55 6.45 32 7 32L10.359375 32C9.769375 31.48 9.3308594 30.79 9.1308594 30L8 30L8 5L42 5L42 30L40.869141 30C40.669141 30.79 40.230625 31.48 39.640625 32L43 32C43.55 32 44 31.55 44 31L44 4C44 3.45 43.55 3 43 3L7 3 z M 11 7C10.45 7 10 7.45 10 8L10 26.359375C10.52 25.769375 11.21 25.330859 12 25.130859L12 9L38 9L38 25.130859C38.79 25.330859 39.48 25.769375 40 26.359375L40 8C40 7.45 39.55 7 39 7L11 7 z M 15.640625 26C16.230625 26.52 16.669141 27.21 16.869141 28L33.130859 28C33.330859 27.21 33.769375 26.52 34.359375 26L15.640625 26 z M 13 27C12.26 27 11.619531 27.4 11.269531 28C11.099531 28.29 11 28.64 11 29C11 29.36 11.099531 29.71 11.269531 30C11.357031 30.15 11.463203 30.288281 11.583984 30.410156C11.695273 30.522452 11.82233 30.615898 11.957031 30.699219C11.957031 30.699219 11.957031 30.701172 11.957031 30.701172C11.519983 35.262806 6.8773197 39 1 39L1 41C5.5899108 41 9.6819853 38.962504 12 35.851562L12 46L10 46L10 48L16 48L16 46L14 46L14 35.851562C16.318015 38.962505 20.410089 41 25 41C29.589911 41 33.681985 38.962505 36 35.851562L36 46L34 46L34 48L40 48L40 46L38 46L38 35.851562C40.318015 38.962504 44.410089 41 49 41L49 39C43.12268 39 38.480017 35.262806 38.042969 30.701172C38.042907 30.700527 38.04303 30.699863 38.042969 30.699219C38.323861 30.52547 38.562346 30.288211 38.730469 30C38.900469 29.71 39 29.36 39 29C39 28.64 38.900469 28.29 38.730469 28C38.380469 27.4 37.74 27 37 27C36.445 27 35.946328 27.224219 35.583984 27.589844C35.463203 27.711719 35.357031 27.85 35.269531 28C35.099531 28.29 35 28.64 35 29C35 29.36 35.099531 29.71 35.269531 30C35.437654 30.288211 35.676139 30.52547 35.957031 30.699219C35.957374 30.69943 35.956689 30.70096 35.957031 30.701172C35.519983 35.262806 30.87732 39 25 39C19.12268 39 14.480017 35.260853 14.042969 30.699219C14.323861 30.52547 14.562346 30.288211 14.730469 30C14.900469 29.71 15 29.36 15 29C15 28.64 14.900469 28.29 14.730469 28C14.380469 27.4 13.74 27 13 27 z M 16.869141 30C16.669141 30.79 16.230625 31.48 15.640625 32L34.359375 32C33.769375 31.48 33.330859 30.79 33.130859 30L16.869141 30 z" />
</svg>