<?xml version="1.0" encoding="utf-8"?>
<svg xmlns="http://www.w3.org/2000/svg" viewBox="0 0 50 50" width="515" height="515">
  <path d="M7 0C6.398438 0 6 0.398438 6 1L6 35L8 34L8 2L42 2L42 23L38.21875 23L32.5 17.375L32.5 17.40625C32.492188 17.398438 32.476563 17.414063 32.46875 17.40625C30.988281 15.9375 28.992188 15 26.90625 15L18 15C16.894531 15 15.832031 15.617188 15.34375 16.65625C15.332031 16.683594 15.292969 16.691406 15.28125 16.71875L11.3125 24.65625C10.574219 26.132813 11.179688 27.949219 12.65625 28.6875C12.695313 28.710938 12.738281 28.730469 12.78125 28.75C13.082031 28.851563 13.476563 29 14 29C15.082031 29 16.089844 28.398438 16.65625 27.40625C16.667969 27.386719 16.679688 27.363281 16.6875 27.34375L19.8125 21L21.90625 21L18.3125 28.65625L18.3125 28.6875C18.082031 29.15625 17.949219 29.65625 17.875 30.15625C17.820313 30.242188 17.777344 30.335938 17.75 30.4375L16.25 36L10 36C7.789063 36 6 37.789063 6 40L6 41C6 41.550781 6.449219 42 7 42L19.40625 42C20.621094 42 21.628906 41.113281 22.125 40L22.6875 38.625L30.71875 48.4375C30.738281 48.460938 30.757813 48.480469 30.78125 48.5C31.167969 48.886719 31.492188 49.253906 31.90625 49.5625C32.320313 49.871094 32.890625 50.09375 33.5 50.09375L36.40625 50.09375C36.765625 50.097656 37.097656 49.90625 37.277344 49.597656C37.460938 49.289063 37.460938 48.90625 37.28125 48.59375L27.1875 30.96875L31.625 24.9375L34.78125 28.09375C34.808594 28.128906 34.839844 28.160156 34.875 28.1875C35.503906 28.6875 36.234375 29 37 29L42 29L42 50L44 50L44 1C44 0.398438 43.601563 0 43 0 Z M 32.5 4C29.472656 4 27 6.472656 27 9.5C27 12.527344 29.472656 15 32.5 15C35.527344 15 38 12.527344 38 9.5C38 6.472656 35.527344 4 32.5 4 Z M 32.5 6C34.445313 6 36 7.554688 36 9.5C36 11.445313 34.445313 13 32.5 13C30.554688 13 29 11.445313 29 9.5C29 7.554688 30.554688 6 32.5 6 Z M 18 17L26.90625 17C28.410156 17 29.976563 17.695313 31.09375 18.8125L37.09375 24.71875C37.285156 24.90625 37.546875 25.007813 37.8125 25L42 25L42 27L37 27C36.792969 27 36.527344 26.910156 36.21875 26.6875L36.1875 26.65625C36.160156 26.636719 36.152344 26.648438 36.125 26.625L32.21875 22.6875C32.011719 22.476563 31.71875 22.367188 31.425781 22.390625C31.128906 22.414063 30.859375 22.570313 30.6875 22.8125L25.1875 30.3125C24.949219 30.632813 24.925781 31.0625 25.125 31.40625L34.6875 48.09375L33.5 48.09375C33.308594 48.09375 33.28125 48.078125 33.09375 47.9375C32.921875 47.808594 32.648438 47.527344 32.28125 47.15625C32.253906 47.128906 32.25 47.125 32.21875 47.09375L20.46875 32.78125C20.46875 32.769531 20.46875 32.761719 20.46875 32.75C19.722656 31.855469 19.574219 30.605469 20.09375 29.5625C20.09375 29.550781 20.09375 29.542969 20.09375 29.53125L24.40625 20.4375C24.558594 20.125 24.539063 19.757813 24.351563 19.464844C24.167969 19.175781 23.847656 18.996094 23.5 19L19.1875 19C18.8125 19.007813 18.476563 19.226563 18.3125 19.5625L14.9375 26.40625C14.707031 26.8125 14.320313 27 14 27C13.9375 27 13.734375 26.9375 13.53125 26.875C13.039063 26.605469 12.839844 26.070313 13.09375 25.5625L17.09375 17.5625C17.105469 17.542969 17.117188 17.519531 17.125 17.5C17.257813 17.191406 17.535156 17 18 17 Z M 18.875 33.9375C18.898438 33.96875 18.914063 34 18.9375 34.03125L21.28125 36.875L20.28125 39.1875C19.976563 39.875 19.789063 40 19.40625 40L8 40C8 38.808594 8.808594 38 10 38L17 38C17.457031 38 17.855469 37.691406 17.96875 37.25 Z M 6 44L6 50L8 50L8 44Z" />
</svg>