<?xml version="1.0" encoding="utf-8"?>
<svg xmlns="http://www.w3.org/2000/svg" viewBox="0 0 50 50" width="515" height="515">
  <path d="M6 6L6 18 A 1.0001 1.0001 0 1 0 8 18L8 9.4140625L20.292969 21.707031 A 1.0001 1.0001 0 1 0 21.707031 20.292969L9.4140625 8L18 8 A 1.0001 1.0001 0 1 0 18 6L6 6 z M 32 6 A 1.0001 1.0001 0 0 0 31.929688 7.9980469 A 1.0001 1.0001 0 0 0 32 8L40.496094 8L28.291016 20.294922 A 1.0001 1.0001 0 0 0 28.912109 22.011719 A 1.0001 1.0001 0 0 0 29.011719 22.013672 A 1.0001 1.0001 0 0 0 29.708984 21.705078L42 9.3242188L42 18 A 1.0001 1.0001 0 1 0 44 18L44 6L32 6 z M 20.984375 27.990234 A 1.0001 1.0001 0 0 0 20.294922 28.291016L8 40.496094L8 32 A 1.0001 1.0001 0 1 0 6 32L6 44L18 44 A 1.0001 1.0001 0 0 0 18.099609 43.996094 A 1.0001 1.0001 0 0 0 18 42L9.3242188 42L21.705078 29.708984 A 1.0001 1.0001 0 0 0 20.984375 27.990234 z M 28.990234 27.990234 A 1.0001 1.0001 0 0 0 28.292969 29.707031L40.585938 42L32 42 A 1.0001 1.0001 0 0 0 31.929688 43.998047 A 1.0001 1.0001 0 0 0 32 44L44 44L44 32 A 1.0001 1.0001 0 1 0 42 32L42 40.585938L29.707031 28.292969 A 1.0001 1.0001 0 0 0 28.990234 27.990234 z" />
</svg>