<?xml version="1.0" encoding="utf-8"?>
<svg xmlns="http://www.w3.org/2000/svg" viewBox="0 0 50 50" width="515" height="515">
  <path d="M18.5 2C17.128906 2 16 3.132813 16 4.5C16 5.671875 16.902344 6.519531 18 6.78125L18 41C18 44.855469 21.148438 48 25 48C28.851563 48 32 44.855469 32 41L32 6.78125C33.097656 6.519531 34 5.671875 34 4.5C34 3.132813 32.871094 2 31.5 2 Z M 18.5 4L31.5 4C31.789063 4 32 4.210938 32 4.5C32 4.789063 31.789063 5 31.5 5L23 5L23 7L30 7L30 13L20 13L20 7L21 7L21 5L18.5 5C18.210938 5 18 4.789063 18 4.5C18 4.210938 18.210938 4 18.5 4 Z M 20 15L30 15L30 41C30 43.773438 27.773438 46 25 46C22.226563 46 20 43.773438 20 41 Z M 26 21C24.894531 21 24 21.894531 24 23C24 24.105469 24.894531 25 26 25C27.105469 25 28 24.105469 28 23C28 21.894531 27.105469 21 26 21 Z M 23.5 31C22.671875 31 22 31.671875 22 32.5C22 33.328125 22.671875 34 23.5 34C24.328125 34 25 33.328125 25 32.5C25 31.671875 24.328125 31 23.5 31Z" />
</svg>