<?xml version="1.0" encoding="utf-8"?>
<svg xmlns="http://www.w3.org/2000/svg" viewBox="0 0 50 50" width="515" height="515">
  <path d="M24 3 A 1.0001 1.0001 0 0 0 23 4L23 7 A 1.0001 1.0001 0 0 0 23.251953 7.6640625L31 16.380859L31 25 A 1.0001 1.0001 0 0 0 31.445312 25.832031L37.445312 29.832031 A 1.0001 1.0001 0 0 0 39 29L39 16.380859L46.748047 7.6640625 A 1.0001 1.0001 0 0 0 47 7L47 4 A 1.0001 1.0001 0 0 0 46 3L24 3 z M 19.962891 3.5292969 A 1.0001 1.0001 0 0 0 19.794922 3.5527344C15.438059 4.4668134 12.432831 6.6391112 10.511719 9.4824219C8.6386475 12.25463 7.7894699 15.615916 7.3925781 19.078125L3.3457031 26.050781 A 1.0001 1.0001 0 0 0 3.3359375 26.066406C2.646307 27.307427 3.0876317 28.925449 4.3378906 29.621094 A 1.0001 1.0001 0 0 0 4.3769531 29.640625L7.4199219 31.162109L8.3984375 37.929688 A 1.0001 1.0001 0 0 0 8.4003906 37.943359C8.6154808 39.287826 9.3136279 40.53304 10.292969 41.470703C11.272309 42.408367 12.573122 43.05731 14.001953 43L17 43L17 46L17 47L17.832031 47 A 1.0001 1.0001 0 0 0 18.158203 47L19 47L19 45L19 42 A 1.0001 1.0001 0 0 0 18 41L13.962891 41 A 1.0001 1.0001 0 0 0 13.921875 41C13.15671 41.03069 12.347191 40.67018 11.675781 40.027344C11.004372 39.384507 10.51091 38.478439 10.375 37.628906L9.3242188 30.359375 A 1.0001 1.0001 0 0 0 8.78125 29.607422L5.3105469 27.873047C4.9828058 27.690692 4.897568 27.378042 5.0859375 27.039062L9.2011719 19.947266 A 1.0001 1.0001 0 0 0 9.3300781 19.552734C9.692593 16.182076 10.516284 13.049003 12.169922 10.601562C13.82356 8.1541236 16.277941 6.3336871 20.205078 5.5097656 A 1.0001 1.0001 0 0 0 19.962891 3.5292969 z M 25 5L45 5L45 6.6191406L37.550781 15L32.449219 15L25 6.6191406L25 5 z M 33 17L37 17L37 27.130859L33 24.464844L33 17 z M 38.146484 31.988281 A 1.0001 1.0001 0 0 0 37.265625 32.5C35.859067 34.938244 35 37.690903 35 40.59375L35 45L35 46L35 47L35.832031 47 A 1.0001 1.0001 0 0 0 36.158203 47L37 47L37 46L37 45L37 40.59375C37 38.084597 37.740604 35.679756 38.998047 33.5 A 1.0001 1.0001 0 0 0 38.146484 31.988281 z" />
</svg>