<?xml version="1.0" encoding="utf-8"?>
<svg xmlns="http://www.w3.org/2000/svg" viewBox="0 0 50 50" width="515" height="515">
  <path d="M17.90625 7C7.96875 7 -0.09375 15.0625 -0.09375 25C-0.09375 34.9375 7.96875 43 17.90625 43C19.128906 43 20.316406 42.855469 21.46875 42.625C22.519531 42.8125 23.6875 43 24.90625 43C26.128906 43 27.316406 42.855469 28.46875 42.625C29.519531 42.8125 30.6875 43 31.90625 43C41.84375 43 49.90625 34.9375 49.90625 25C49.90625 15.0625 41.84375 7 31.90625 7C30.753906 7 29.570313 7.101563 28.4375 7.375C27.292969 7.148438 26.117188 7 24.90625 7C23.753906 7 22.570313 7.101563 21.4375 7.375C20.292969 7.148438 19.117188 7 17.90625 7 Z M 17.90625 9C18.925781 9 19.90625 9.101563 20.875 9.28125C21.0625 9.390625 21.285156 9.433594 21.5 9.40625C28.613281 11.035156 33.90625 17.378906 33.90625 25C33.90625 32.640625 28.582031 38.988281 21.4375 40.59375C21.273438 40.597656 21.113281 40.640625 20.96875 40.71875C19.972656 40.910156 18.960938 41 17.90625 41C9.046875 41 1.90625 33.859375 1.90625 25C1.90625 16.140625 9.046875 9 17.90625 9 Z M 26.28125 9.09375C26.820313 9.140625 27.351563 9.183594 27.875 9.28125C28.0625 9.390625 28.285156 9.433594 28.5 9.40625C35.613281 11.035156 40.90625 17.378906 40.90625 25C40.90625 32.640625 35.582031 38.988281 28.4375 40.59375C28.273438 40.597656 28.113281 40.640625 27.96875 40.71875C27.417969 40.824219 26.851563 40.859375 26.28125 40.90625C32.003906 37.890625 35.90625 31.917969 35.90625 25C35.90625 18.082031 32.003906 12.109375 26.28125 9.09375 Z M 33.28125 9.09375C41.488281 9.796875 47.90625 16.609375 47.90625 25C47.90625 33.390625 41.488281 40.203125 33.28125 40.90625C39.003906 37.890625 42.90625 31.917969 42.90625 25C42.90625 18.082031 39.003906 12.109375 33.28125 9.09375 Z M 17.5 16.5C17.398438 17.199219 17.207031 17.695313 16.90625 18.09375C16.605469 18.492188 16.210938 18.894531 15.8125 19.09375C15.3125 19.292969 14.8125 19.492188 14.3125 19.59375C13.710938 19.695313 13.195313 19.6875 12.59375 19.6875L12.59375 21.3125L17 21.3125L17 33.5L19 33.5L19 16.5Z" />
</svg>