<?xml version="1.0" encoding="utf-8"?>
<svg xmlns="http://www.w3.org/2000/svg" viewBox="0 0 50 50" width="515" height="515">
  <path d="M25 7C15.060993 7 7 15.060993 7 25C7 34.939007 15.060993 43 25 43C34.939007 43 43 34.939007 43 25C43 15.060993 34.939007 7 25 7 z M 25 9C33.860993 9 41 16.139007 41 25C41 33.860993 33.860993 41 25 41C16.139007 41 9 33.860993 9 25C9 16.139007 16.139007 9 25 9 z M 24 14L24 16.199219C22.4 16.399219 19.5 17.799219 19.5 21.199219C19.5 27.599219 28.800781 24.299609 28.800781 29.099609C28.800781 30.699609 28.1 32.199219 25 32.199219C21.9 32.199219 21 29.8 21 28.5L19 28.5C19.3 32.8 22.3 33.799609 24 34.099609L24 36L26 36L26 34.099609C27.5 33.999609 31 32.900391 31 28.900391C31 25.600391 28.299219 24.699609 25.699219 24.099609C23.599219 23.599609 21.699219 23.1 21.699219 21C21.699219 20.1 22.099609 18.099609 25.099609 18.099609C27.199609 18.099609 28.2 19.4 28.5 21L30.5 21C29.9 18.8 28.9 16.800781 26 16.300781L26 14L24 14 z" />
</svg>