<?xml version="1.0" encoding="utf-8"?>
<svg xmlns="http://www.w3.org/2000/svg" viewBox="0 0 50 50" width="515" height="515">
  <path d="M15 0C6.753906 0 0 6.753906 0 15C0 23.246094 6.753906 30 15 30C15.796875 30 16.628906 29.882813 17.34375 29.78125C17.726563 29.769531 18.066406 29.539063 18.222656 29.1875C18.378906 28.835938 18.320313 28.429688 18.074219 28.136719C17.824219 27.84375 17.433594 27.71875 17.0625 27.8125C16.375 27.910156 15.605469 28 15 28C7.84375 28 2 22.15625 2 15C2 7.84375 7.84375 2 15 2C20.855469 2 25.863281 5.90625 27.4375 11.28125C27.59375 11.816406 28.152344 12.125 28.6875 11.96875C29.222656 11.8125 29.53125 11.253906 29.375 10.71875C27.550781 4.496094 21.746094 0 15 0 Z M 14.90625 4.96875C14.863281 4.976563 14.820313 4.988281 14.78125 5C14.316406 5.105469 13.988281 5.523438 14 6L14 13.5C13.519531 13.824219 13.1875 14.378906 13.1875 15C13.1875 15.105469 13.234375 15.214844 13.25 15.3125L9.59375 19C9.296875 19.242188 9.160156 19.628906 9.246094 20.003906C9.332031 20.375 9.625 20.667969 9.996094 20.753906C10.371094 20.839844 10.757813 20.703125 11 20.40625L14.6875 16.75C14.785156 16.765625 14.894531 16.8125 15 16.8125C15.992188 16.8125 16.8125 15.992188 16.8125 15C16.8125 14.378906 16.480469 13.824219 16 13.5L16 6C16.011719 5.710938 15.894531 5.433594 15.6875 5.238281C15.476563 5.039063 15.191406 4.941406 14.90625 4.96875 Z M 29.34375 14.1875C29.039063 14.234375 28.773438 14.417969 28.625 14.6875L9.125 48.5C8.945313 48.8125 8.945313 49.195313 9.128906 49.503906C9.308594 49.8125 9.640625 50.003906 10 50L49 50C49.359375 50.003906 49.691406 49.8125 49.871094 49.503906C50.054688 49.195313 50.054688 48.8125 49.875 48.5L30.375 14.6875C30.183594 14.355469 29.820313 14.160156 29.4375 14.1875C29.40625 14.1875 29.375 14.1875 29.34375 14.1875 Z M 29.5 17.21875L47.25 48L11.75 48 Z M 28.5 27C28.300781 27 28.1875 27.113281 28.1875 27.3125L28.1875 38.6875C28.1875 38.886719 28.300781 39 28.5 39L30.40625 39C30.605469 39 30.6875 38.886719 30.6875 38.6875L30.6875 27.3125C30.6875 27.113281 30.605469 27 30.40625 27 Z M 28.5 41.3125C28.300781 41.3125 28.1875 41.394531 28.1875 41.59375L28.1875 43.6875C28.1875 43.886719 28.300781 44 28.5 44L30.5 44C30.699219 44 30.8125 43.886719 30.8125 43.6875L30.8125 41.59375C30.8125 41.394531 30.699219 41.3125 30.5 41.3125Z" />
</svg>