<?xml version="1.0" encoding="utf-8"?>
<svg xmlns="http://www.w3.org/2000/svg" viewBox="0 0 50 50" width="515" height="515">
  <path d="M0.78125 -0.03125C0.300781 0.078125 -0.0390625 0.507813 -0.03125 1L-0.03125 49C-0.0273438 49.566406 0.433594 50.027344 1 50.03125L31 50.03125C31.566406 50.027344 32.027344 49.566406 32.03125 49L32.03125 39L29.96875 39L29.96875 47.96875L2.03125 47.96875L2.03125 2.03125L29.96875 2.03125L29.96875 11L32.03125 11L32.03125 1C32.027344 0.433594 31.566406 -0.0273438 31 -0.03125L1 -0.03125C0.925781 -0.0390625 0.855469 -0.0390625 0.78125 -0.03125 Z M 38.90625 15.09375C38.53125 15.160156 38.230469 15.433594 38.125 15.796875C38.019531 16.164063 38.128906 16.554688 38.40625 16.8125L45.5625 24L16 24C15.96875 24 15.9375 24 15.90625 24C15.355469 24.027344 14.925781 24.496094 14.953125 25.046875C14.980469 25.597656 15.449219 26.027344 16 26L45.5625 26L38.40625 33.1875C38.109375 33.429688 37.972656 33.816406 38.058594 34.191406C38.144531 34.5625 38.4375 34.855469 38.808594 34.941406C39.183594 35.027344 39.570313 34.890625 39.8125 34.59375L48.71875 25.71875L49.40625 25L48.71875 24.28125L39.8125 15.40625C39.605469 15.183594 39.304688 15.070313 39 15.09375C38.96875 15.09375 38.9375 15.09375 38.90625 15.09375Z" />
</svg>