<?xml version="1.0" encoding="utf-8"?>
<svg xmlns="http://www.w3.org/2000/svg" viewBox="0 0 50 50" width="515" height="515">
  <path d="M7 2L7 48L37.296875 48L35.595703 46L9 46L9 4L28 4L28 16.984375L41 16.984375L41 29L43 29L43 15.599609L42.744141 15.34375 A 1.0001 1.0001 0 0 0 42.625 15.222656L29.400391 2L7 2 z M 30 5.4003906L39.583984 14.984375L30 14.984375L30 5.4003906 z M 18.460938 23C16.361937 23 13.964844 24.62625 13.964844 29.15625C13.964844 32.79525 15.503266 35 18.197266 35C18.967266 35 19.579688 34.878125 19.929688 34.703125L19.703125 33.128906C19.423125 33.232906 18.985828 33.339844 18.548828 33.339844C17.131828 33.339844 15.941406 32.201156 15.941406 29.035156C15.941406 25.816156 17.252297 24.644531 18.529297 24.644531C19.089297 24.644531 19.370391 24.747672 19.650391 24.888672L20 23.296875C19.771 23.155875 19.230937 23 18.460938 23 z M 28.451172 23L31.15625 35L33.240234 35L36 23L33.935547 23L32.972656 28.341797C32.722656 29.730797 32.456875 31.261281 32.296875 32.738281L32.242188 32.738281C32.064188 31.279281 31.76225 29.694953 31.53125 28.376953L30.535156 23L28.451172 23 z M 25.382812 23.001953C23.177812 23.001953 21.935547 24.452063 21.935547 26.289062C21.935547 27.566063 22.846203 28.737172 24.158203 29.576172C25.121203 30.242172 25.697266 30.784516 25.697266 31.728516C25.697266 32.709516 25.067109 33.375 23.912109 33.375C23.299109 33.375 22.53075 33.164344 22.09375 32.902344L21.777344 34.511719C22.145344 34.757719 23.037109 35.001953 23.912109 35.001953C26.030109 35.001953 27.533203 33.654109 27.533203 31.537109C27.533203 30.278109 26.940125 29.141109 25.453125 28.162109C24.245125 27.393109 23.773438 26.9725 23.773438 26.0625C23.773437 25.3435 24.280656 24.628906 25.347656 24.628906C25.977656 24.628906 26.469781 24.819297 26.800781 25.029297L27.132812 23.421875C26.818812 23.228875 26.133813 23.001953 25.382812 23.001953 z M 38 31L38 40L33 40L41.496094 50L50 40L45 40L45 31L38 31 z M 40 33L43 33L43 42L45.599609 42L41.496094 47L37.400391 42L40 42L40 33 z" />
</svg>