<?xml version="1.0" encoding="utf-8"?>
<svg xmlns="http://www.w3.org/2000/svg" viewBox="0 0 50 50" width="515" height="515">
  <path d="M25 2C12.3 2 2 12.3 2 25C2 37.7 12.3 48 25 48C37.7 48 48 37.7 48 25C48 12.3 37.7 2 25 2 z M 25 4C36.6 4 46 13.4 46 25C46 36.6 36.6 46 25 46C13.4 46 4 36.6 4 25C4 13.4 13.4 4 25 4 z M 26.5 10C23.8 10 21.799609 10.900391 20.599609 12.400391C19.399609 13.900391 19 15.999219 19 18.199219L19 20L17 20C16.5 20 16 20.5 16 21L16 26C16 26.5 16.5 27 17 27L19 27L19 39C19 39.5 19.5 40 20 40L26 40C26.5 40 27 39.5 27 39L27 27L31 27C31.125 27 31.244141 26.98125 31.353516 26.945312C31.681641 26.8375 31.925 26.574219 32 26.199219L33 21.199219C33.1 20.899219 33.000781 20.600391 32.800781 20.400391C32.600781 20.100391 32.3 20 32 20L27 20L27 17.800781C27 17.550781 27.000391 17.424609 27.025391 17.349609C27.050391 17.274609 27.099219 17.249219 27.199219 17.199219C27.299219 17.099219 27.899219 17 28.699219 17L32 17C32.5 17 33 16.5 33 16L33 12C33 11.6 32.700781 11.199609 32.300781 11.099609C32.300781 11.099609 29.4 10 26.5 10 z M 26.599609 11.900391C28.499609 11.900391 30.2 12.399219 31 12.699219L31 15L28.699219 15C27.599219 15 26.799609 15.099609 26.099609 15.599609C25.399609 15.999609 25 16.900781 25 17.800781L25 21C25 21.5 25.5 22 26 22L30.800781 22L30.199219 25L26 25C25.875 25 25.75 25.03125 25.632812 25.085938C25.28125 25.25 25 25.625 25 26L25 38L21 38L21 26C21 25.875 20.96875 25.75 20.914062 25.632812C20.75 25.28125 20.375 25 20 25L18 25L18 22L20 22C20.125 22 20.25 21.96875 20.367188 21.914062C20.71875 21.75 21 21.375 21 21L21 18.199219C21 17.699219 21.024219 17.232031 21.074219 16.792969C21.224219 15.475781 21.599219 14.424609 22.199219 13.599609C22.999219 12.599609 24.299609 11.900391 26.599609 11.900391 z" />
</svg>