<?xml version="1.0" encoding="utf-8"?>
<svg xmlns="http://www.w3.org/2000/svg" viewBox="0 0 50 50" width="515" height="515">
  <path d="M18.818359 4.0058594C17.270944 4.1080516 16 5.4169161 16 7L16 15C16 16.242048 16.771323 17.361065 17.931641 17.802734L23.580078 19.955078L22.351562 24.548828L18.167969 22.421875L18.199219 22.439453C16.913231 21.725946 15.306806 21.895087 14.197266 22.865234L7.203125 28.859375 A 1.0001 1.0001 0 0 0 7.1953125 28.865234C5.7495162 30.130087 5.601064 32.358331 6.8652344 33.804688C7.5526081 34.590854 8.5291332 35 9.5019531 35C10.31883 35 11.14456 34.711508 11.804688 34.134766L16.978516 29.720703L19.863281 31.091797L16.099609 33.296875C15.078827 33.743389 14.324464 34.648613 14.082031 35.740234L12.097656 42.683594 A 1.0001 1.0001 0 0 0 12.082031 42.742188C11.666316 44.61638 12.86364 46.498696 14.738281 46.916016C14.994992 46.973526 15.251583 47.001953 15.501953 47.001953C17.109268 47.001953 18.555634 45.880787 18.916016 44.259766L18.898438 44.330078L20.476562 39.072266L27.460938 36.148438C29.589692 35.257519 31.193581 33.439264 31.8125 31.214844L33.857422 23.873047L36.244141 24.78125L34.189453 30.943359C33.734135 32.307859 34.220313 33.907461 35.558594 34.632812 A 1.0001 1.0001 0 0 0 35.5625 34.634766C36.019933 34.880243 36.516509 35 37 35C38.259143 35 39.429939 34.196048 39.845703 32.947266L42.845703 23.949219L42.845703 23.947266C43.349743 22.433116 42.56171 20.765096 41.068359 20.197266L22 12.933594L22 7.1074219C22 5.6555986 21.009361 4.2853725 19.496094 4.0390625C19.266676 4.0017111 19.039419 3.9912605 18.818359 4.0058594 z M 33.238281 5C30.489218 5 28.240234 7.2503431 28.240234 9.9980469C28.240234 12.747261 30.489218 15 33.238281 15C35.991122 15 38.240234 12.746959 38.240234 9.9980469C38.240234 7.2506451 35.991122 5 33.238281 5 z M 18.933594 6C19.01159 5.9962557 19.091949 6.0000233 19.175781 6.0136719C19.628514 6.0873618 20 6.5672452 20 7.1074219L20 13.621094 A 1.0001 1.0001 0 0 0 20.644531 14.556641L40.355469 22.066406 A 1.0001 1.0001 0 0 0 40.357422 22.066406C40.867421 22.260328 41.12183 22.799081 40.949219 23.316406L37.949219 32.316406 A 1.0001 1.0001 0 0 0 37.947266 32.316406C37.80503 32.743624 37.414857 33 37 33C36.840839 33 36.67879 32.96383 36.511719 32.875C36.511719 32.875 36.511719 32.873047 36.511719 32.873047C36.113096 32.655735 35.915487 32.086978 36.085938 31.576172L38.443359 24.503906 A 1.0001 1.0001 0 0 0 37.851562 23.251953L33.544922 21.613281 A 1.0001 1.0001 0 0 0 32.226562 22.279297L29.886719 30.677734C29.431638 32.313314 28.252746 33.647653 26.6875 34.302734L19.267578 37.410156 A 1.0001 1.0001 0 0 0 18.695312 38.044922L16.982422 43.755859 A 1.0001 1.0001 0 0 0 16.962891 43.826172C16.805272 44.53515 16.186638 45.001953 15.501953 45.001953C15.392323 45.001953 15.285071 44.989334 15.175781 44.964844 A 1.0001 1.0001 0 0 0 15.173828 44.964844C14.356147 44.783474 13.859108 43.998263 14.037109 43.179688L16.021484 36.232422 A 1.0001 1.0001 0 0 0 16.035156 36.173828C16.142707 35.689551 16.482007 35.292083 16.943359 35.107422 A 1.0001 1.0001 0 0 0 17.076172 35.041016L22.505859 31.863281 A 1.0001 1.0001 0 0 0 22.429688 30.097656L17.251953 27.636719 A 1.0001 1.0001 0 0 0 16.173828 27.777344L10.498047 32.621094 A 1.0001 1.0001 0 0 0 10.488281 32.628906C10.198489 32.882227 9.8530764 33 9.5019531 33C9.082773 33 8.6717199 32.832115 8.3710938 32.488281C7.817264 31.854637 7.8795125 30.924198 8.5117188 30.371094L15.503906 24.376953 A 1.0001 1.0001 0 0 0 15.511719 24.371094C15.99013 23.952333 16.673049 23.87931 17.228516 24.1875 A 1.0001 1.0001 0 0 0 17.261719 24.205078L22.546875 26.890625 A 1.0001 1.0001 0 0 0 23.966797 26.257812L25.744141 19.599609 A 1.0001 1.0001 0 0 0 25.134766 18.40625L18.644531 15.933594C18.254849 15.785263 18 15.417952 18 15L18 7C18 6.4568339 18.387623 6.0262101 18.933594 6 z M 33.238281 7C34.911441 7 36.240234 8.3314486 36.240234 9.9980469C36.240234 11.667134 34.911441 13 33.238281 13C31.571344 13 30.240234 11.666833 30.240234 9.9980469C30.240234 8.3317507 31.571344 7 33.238281 7 z" />
</svg>