<?xml version="1.0" encoding="utf-8"?>
<svg xmlns="http://www.w3.org/2000/svg" viewBox="0 0 50 50" width="515" height="515">
  <path d="M14 2C12.416667 2 11.101892 2.6297556 10.251953 3.5859375C9.4020141 4.5421194 9 5.7777779 9 7C9 8.2222221 9.4020141 9.4578811 10.251953 10.414062C11.101892 11.370245 12.416667 12 14 12C15.583333 12 16.898108 11.370244 17.748047 10.414062C18.597986 9.4578811 19 8.2222221 19 7C19 5.7777779 18.597986 4.5421194 17.748047 3.5859375C16.898108 2.6297556 15.583333 2 14 2 z M 35 2C33.416667 2 32.101892 2.6297556 31.251953 3.5859375C30.402014 4.5421194 30 5.7777779 30 7C30 8.2222221 30.402014 9.4578811 31.251953 10.414062C32.101892 11.370245 33.416667 12 35 12C36.583333 12 37.898108 11.370244 38.748047 10.414062C39.597986 9.4578811 40 8.2222221 40 7C40 5.7777779 39.597986 4.5421194 38.748047 3.5859375C37.898108 2.6297556 36.583333 2 35 2 z M 14 4C15.083333 4 15.768559 4.3702444 16.251953 4.9140625C16.735347 5.4578806 17 6.2222221 17 7C17 7.7777779 16.735347 8.5421194 16.251953 9.0859375C15.768559 9.6297556 15.083333 10 14 10C12.916667 10 12.231441 9.6297556 11.748047 9.0859375C11.264653 8.5421194 11 7.7777779 11 7C11 6.2222221 11.264653 5.4578806 11.748047 4.9140625C12.231441 4.3702444 12.916667 4 14 4 z M 35 4C36.083333 4 36.768559 4.3702444 37.251953 4.9140625C37.735347 5.4578806 38 6.2222221 38 7C38 7.7777779 37.735347 8.5421194 37.251953 9.0859375C36.768559 9.6297556 36.083333 10 35 10C33.916667 10 33.231441 9.6297556 32.748047 9.0859375C32.264653 8.5421194 32 7.7777779 32 7C32 6.2222221 32.264653 5.4578806 32.748047 4.9140625C33.231441 4.3702444 33.916667 4 35 4 z M 9.5 13C6.4666667 13 4 15.466667 4 18.5L4 31 A 1.0001 1.0001 0 0 0 4.3046875 31.732422C4.6658195 32.983851 5.639062 34 7 34C7.3519462 34 7.6850793 33.92603 8 33.8125L8 45.300781C8 46.7193 9.1658852 48 10.699219 48L12.400391 48C13.051353 48 13.644309 47.703131 14.126953 47.289062C14.589139 47.679127 15.13447 48 15.800781 48L17.5 48C18.918519 48 20.199219 46.834115 20.199219 45.300781L20.199219 38.876953C20.456068 38.949509 20.721289 39 21 39L21 45.5C21 46.883333 22.116667 48 23.5 48L26.5 48C27.883333 48 29 46.883333 29 45.5L29 39C29.388462 39 29.657961 38.720979 30 38.583984L30 45C30 46.645455 31.354545 48 33 48C33.777194 48 34.464685 47.658317 35 47.166016C35.535315 47.658317 36.222806 48 37 48C38.645455 48 40 46.645455 40 45L40 37L42.599609 37C43.344054 37 43.789571 36.624492 44.107422 36.306641 A 1.0001 1.0001 0 0 0 44.232422 36.154297C44.603099 35.598281 44.599237 34.871556 44.470703 34.357422 A 1.0001 1.0001 0 0 0 44.449219 34.283203L44.019531 32.994141C44.046645 32.994861 44.07228 33 44.099609 33C45.109133 33 46.020996 32.487109 46.509766 31.705078C46.997556 30.924614 47.07961 29.918484 46.742188 28.96875C46.74181 28.96765 46.742565 28.964091 46.742188 28.962891C46.346644 27.775513 45.650472 25.588145 44.953125 23.396484 A 1.0001 1.0001 0 0 0 44.949219 23.382812C43.851135 20.088562 42.751953 16.691406 42.751953 16.691406 A 1.0001 1.0001 0 0 0 42.712891 16.59375C42.504509 16.124952 42.114163 15.257773 41.378906 14.476562C40.64365 13.695353 39.491667 13 38 13L36 13L32 13C30.466667 13 29.311601 13.774335 28.59375 14.492188 A 1.0001 1.0001 0 1 0 30.007812 15.90625C30.489961 15.424101 31.133333 15 32 15L36 15L38 15C38.908333 15 39.457131 15.353866 39.921875 15.847656C40.379481 16.333863 40.678881 16.952241 40.871094 17.382812C40.894964 17.456592 41.961012 20.746319 43.050781 24.015625C43.749309 26.211 44.447141 28.403922 44.851562 29.617188 A 1.0001 1.0001 0 0 0 44.857422 29.636719C45.017631 30.085303 44.950683 30.426562 44.814453 30.644531C44.678183 30.862501 44.490086 31 44.099609 31C43.644054 31 43.333861 30.67828 43.261719 30.425781 A 1.0001 1.0001 0 0 0 43.251953 30.390625L41.951172 26.390625 A 1.0001 1.0001 0 0 0 41.949219 26.382812L41.148438 23.984375 A 1.0001 1.0001 0 0 0 41.130859 23.935547L40.230469 21.634766 A 1.0001 1.0001 0 0 0 40.224609 21.621094 A 1.0001 1.0001 0 0 0 40.191406 21.542969 A 1.0001 1.0001 0 0 0 40.169922 21.5 A 1.0001 1.0001 0 0 0 40.162109 21.488281 A 1.0001 1.0001 0 0 0 38.357422 22.335938L42.533203 34.865234C42.569623 34.997339 42.571017 35.00203 42.560547 35L39 35L36 35L35 35L32 35L32 29C32 26.790196 30.209804 25 28 25L22 25C19.790196 25 18 26.790196 18 29L18 36C18 36.366209 18.076757 36.713397 18.199219 37.039062L18.199219 45.300781C18.199219 45.767448 17.881481 46 17.5 46L15.800781 46C15.334115 46 15.099609 45.682263 15.099609 45.300781 A 1.0001 1.0001 0 0 0 15 44.880859L15 32.699219 A 1.0001 1.0001 0 1 0 13 32.699219L13 45.400391C12.926625 45.743567 12.727527 46 12.400391 46L10.699219 46C10.232552 46 10 45.682263 10 45.300781L10 31L10 21 A 1.0001 1.0001 0 0 0 8.984375 19.986328 A 1.0001 1.0001 0 0 0 8 21L8 31C8 31.554545 7.5545455 32 7 32C6.4454545 32 6 31.554545 6 31L6 18.5C6 16.533333 7.5333333 15 9.5 15L18.5 15C19.3 15 19.995474 15.238954 20.519531 15.613281 A 1.0001 1.0001 0 1 0 21.681641 13.986328C20.805698 13.360655 19.7 13 18.5 13L9.5 13 z M 25 16C23.75 16 22.685226 16.504756 22.001953 17.273438C21.318681 18.042119 21 19.027778 21 20C21 20.972222 21.318681 21.957881 22.001953 22.726562C22.685226 23.495244 23.75 24 25 24C26.25 24 27.314774 23.495244 27.998047 22.726562C28.681319 21.957881 29 20.972222 29 20C29 19.027778 28.681319 18.042119 27.998047 17.273438C27.314774 16.504756 26.25 16 25 16 z M 25 18C25.749999 18 26.185226 18.245244 26.501953 18.601562C26.81868 18.957881 27 19.472222 27 20C27 20.527778 26.81868 21.042119 26.501953 21.398438C26.185226 21.754756 25.749999 22 25 22C24.250001 22 23.814774 21.754756 23.498047 21.398438C23.18132 21.042119 23 20.527778 23 20C23 19.472222 23.18132 18.957881 23.498047 18.601562C23.814774 18.245244 24.250001 18 25 18 z M 22 27L28 27C29.190196 27 30 27.809804 30 29L30 36C30 36.554545 29.554545 37 29 37L28 37 A 1.0001 1.0001 0 0 0 27 38L27 45.5C27 45.716667 26.716667 46 26.5 46L23.5 46C23.283333 46 23 45.716667 23 45.5L23 38 A 1.0001 1.0001 0 0 0 22 37L21 37C20.662051 37 20.380008 36.823104 20.199219 36.568359L20.199219 31 A 1.0001 1.0001 0 0 0 20 30.388672L20 29C20 27.809804 20.809804 27 22 27 z M 32 37L34 37L34 45C34 45.554545 33.554545 46 33 46C32.445455 46 32 45.554545 32 45L32 37 z M 36 37L38 37L38 45C38 45.554545 37.554545 46 37 46C36.445455 46 36 45.554545 36 45L36 37 z" />
</svg>