<?xml version="1.0" encoding="utf-8"?>
<svg xmlns="http://www.w3.org/2000/svg" viewBox="0 0 50 50" width="515" height="515">
  <path d="M33.5625 0.03125L32.5625 2.65625L30.15625 9L24.0625 5.90625L21.5 4.625L22.6875 7.21875L25.53125 13.40625L19 15.5625L16.3125 16.4375L18.9375 17.4375L24.4375 19.5625L17.78125 26.28125C17.707031 26.355469 17.644531 26.4375 17.59375 26.53125L2 42.09375L1.96875 42.125C0.734375 43.496094 0.707031 45.613281 2 46.90625L3.125 48.03125C4.496094 49.265625 6.613281 49.292969 7.90625 48L23.71875 32.21875L25.3125 30.59375L30.09375 25.8125L31.84375 31.03125L32.71875 33.625L33.71875 31.0625L36.21875 24.6875L42.25 27.6875L44.75 28.9375L40.875 20.21875L47.3125 18.15625L49.96875 17.28125L47.375 16.28125L41 13.78125L44.09375 7.75L45.375 5.21875L42.78125 6.375L36.59375 9.15625L34.4375 2.6875 Z M 33.4375 5.96875L35.0625 10.8125L35.40625 11.875L36.40625 11.40625L41.03125 9.375L38.71875 13.84375L38.21875 14.8125L39.25 15.21875L44.03125 17.09375L39.1875 18.65625L38.125 19L38.59375 20L40.65625 24.65625L35.15625 21.90625L34.78125 22.9375L32.875 27.78125L31.6875 24.21875L34.90625 21C36.199219 19.707031 36.171875 17.589844 34.9375 16.21875L34.875 16.15625L33.71875 15.09375C33.707031 15.082031 33.699219 15.074219 33.6875 15.0625C33.003906 14.398438 32.121094 14.09375 31.3125 14.09375C30.492188 14.09375 29.59375 14.40625 28.90625 15.09375L28.875 15.09375L26 18L22.28125 16.5625L27.21875 14.9375L28.28125 14.59375L27.8125 13.59375L25.6875 8.96875L30.25 11.28125L31.25 11.78125L31.625 10.75 Z M 31.3125 16.09375C31.691406 16.09375 31.96875 16.1875 32.28125 16.5L32.3125 16.53125L33.46875 17.5625C34.035156 18.191406 34.007813 19.085938 33.5 19.59375L24.59375 28.46875L21.53125 25.40625L30.3125 16.5C30.625 16.1875 30.933594 16.09375 31.3125 16.09375 Z M 20.125 26.8125L23.1875 29.875L22.28125 30.78125C22.234375 30.828125 22.191406 30.882813 22.15625 30.9375L6.5 46.59375C6 47.09375 5.128906 47.128906 4.5 46.59375L4.46875 46.5625L3.5625 45.625L3.40625 45.5C2.90625 45 2.871094 44.128906 3.40625 43.5L19.03125 27.875C19.0625 27.855469 19.09375 27.835938 19.125 27.8125 Z M 41 33.25L40.0625 35.625L38.8125 38.8125L35.625 40.0625L33.25 41L35.625 41.9375L38.8125 43.1875L40.0625 46.375L41 48.75L41.9375 46.375L43.1875 43.1875L46.375 41.9375L48.75 41L46.375 40.0625L43.1875 38.8125L41.9375 35.625 Z M 28.1875 34L27.1875 36.5L24.6875 37.5L27.1875 38.5L28.1875 41L29.1875 38.5L31.6875 37.5L29.1875 36.5 Z M 41 38.78125L41.46875 39.96875L41.625 40.375L42.03125 40.53125L43.21875 41L42.03125 41.46875L41.625 41.625L41.46875 42.03125L41 43.21875L40.53125 42.03125L40.375 41.625L39.96875 41.46875L38.78125 41L39.96875 40.53125L40.375 40.375L40.53125 39.96875Z" />
</svg>