<?xml version="1.0" encoding="utf-8"?>
<svg xmlns="http://www.w3.org/2000/svg" viewBox="0 0 50 50" width="515" height="515">
  <path d="M22 0C19.789063 0 18 1.789063 18 4L18 20C18 22.210938 19.789063 24 22 24L37.625 24L45.34375 30.75C45.640625 31.007813 46.054688 31.066406 46.414063 30.90625C46.769531 30.746094 47 30.390625 47 30L47 23.8125C48.714844 23.363281 50 21.855469 50 20L50 4C50 1.789063 48.210938 0 46 0 Z M 22 2L46 2C47.191406 2 48 2.808594 48 4L48 20C48 21.191406 47.191406 22 46 22C45.449219 22 45 22.449219 45 23L45 27.8125L38.65625 22.25C38.476563 22.089844 38.242188 22 38 22L22 22C20.808594 22 20 21.191406 20 20L20 4C20 2.808594 20.808594 2 22 2 Z M 33 6.09375L30.5 17.59375L32.3125 17.59375L32.90625 14.59375L35.09375 14.59375L35.6875 17.59375L37.5 17.59375L35.09375 6.09375 Z M 34 8L34.09375 8C34.195313 8.800781 34.300781 9.894531 34.5 10.59375L35 13.1875L33.09375 13.1875L33.59375 10.59375C33.695313 9.894531 33.898438 8.800781 34 8 Z M 4 19C1.789063 19 0 20.789063 0 23L0 39C0 40.855469 1.285156 42.363281 3 42.8125L3 49C3 49.390625 3.230469 49.746094 3.585938 49.90625C3.945313 50.066406 4.359375 50.007813 4.65625 49.75L12.375 43L28 43C30.210938 43 32 41.210938 32 39L32 25L30 25L30 39C30 40.191406 29.191406 41 28 41L12 41C11.757813 41 11.523438 41.089844 11.34375 41.25L5 46.8125L5 42C5 41.449219 4.550781 41 4 41C2.808594 41 2 40.191406 2 39L2 23C2 21.808594 2.808594 21 4 21L17 21L17 19 Z M 15.59375 25C13.292969 25 12 27.414063 12 30.8125C12 34.710938 13.304688 36.6875 15.40625 36.6875C15.507813 36.6875 15.707031 36.804688 15.90625 36.90625C16.605469 37.304688 17.789063 37.914063 18.6875 38.3125L19.3125 36.90625C18.613281 36.707031 17.792969 36.394531 17.09375 36.09375L17.09375 36C18.195313 35.398438 18.90625 33.6875 18.90625 30.6875C18.90625 27.585938 17.992188 25 15.59375 25 Z M 15.5 26.5C16.601563 26.5 17 28.488281 17 30.6875C17 33.085938 16.601563 35.09375 15.5 35.09375C14.300781 35.09375 13.90625 33.085938 13.90625 30.6875C13.90625 28.585938 14.300781 26.5 15.5 26.5Z" />
</svg>