<?xml version="1.0" encoding="utf-8"?>
<svg xmlns="http://www.w3.org/2000/svg" viewBox="0 0 50 50" width="515" height="515">
  <path d="M24.990234 2 A 1.0001 1.0001 0 0 0 24.619141 2.0761719L7.6191406 9.0761719 A 1.0001 1.0001 0 0 0 7.0917969 9.5800781L1.0917969 22.580078 A 1.0001 1.0001 0 0 0 2 24L4 24L4 45 A 1.0001 1.0001 0 0 0 5 46L45 46 A 1.0001 1.0001 0 0 0 46 45L46 24L48 24 A 1.0001 1.0001 0 0 0 48.908203 22.580078L42.908203 9.5800781 A 1.0001 1.0001 0 0 0 42.380859 9.0761719L25.380859 2.0761719 A 1.0001 1.0001 0 0 0 24.990234 2 z M 25 4.0820312L41.255859 10.773438L46.435547 22L45 22 A 1.0001 1.0001 0 0 0 44 23L44 44L6 44L6 23 A 1.0001 1.0001 0 0 0 5 22L3.5644531 22L8.7441406 10.775391L25 4.0820312 z M 21 11 A 1.0001 1.0001 0 0 0 20 12L20 20 A 1.0001 1.0001 0 0 0 21 21L29 21 A 1.0001 1.0001 0 0 0 30 20L30 12 A 1.0001 1.0001 0 0 0 29 11L21 11 z M 22 13L28 13L28 19L22 19L22 13 z M 15 26 A 1.0001 1.0001 0 0 0 14 27L14 41 A 1.0001 1.0001 0 0 0 15 42L35 42 A 1.0001 1.0001 0 0 0 36 41L36 27 A 1.0001 1.0001 0 0 0 35 26L15 26 z M 18.171875 28L31.828125 28L25 32.779297L18.171875 28 z M 16 28.919922L23.257812 34L16 39.080078L16 28.919922 z M 34 28.919922L34 39.080078L26.742188 34L34 28.919922 z M 25 35.220703L31.828125 40L18.171875 40L25 35.220703 z" />
</svg>