<?xml version="1.0" encoding="utf-8"?>
<svg xmlns="http://www.w3.org/2000/svg" viewBox="0 0 50 50" width="515" height="515">
  <path d="M25 2C21.699219 2 19 4.699219 19 8C19 10.261719 20.265625 12.238281 22.125 13.261719C14.121094 14.632813 8 21.609375 8 30C8 31.644531 9.355469 33 11 33C12.644531 33 14 31.644531 14 30C14 28.652344 14.289063 27.386719 14.734375 26.195313C15.152344 27.929688 15.867188 29.515625 17.007813 30.8125L17.007813 44.5C17.007813 46.421875 18.585938 48 20.507813 48C22.429688 48 24.007813 46.421875 24.007813 44.5L24.007813 34.398438C24.339844 34.429688 24.660156 34.5 25 34.5C25.34375 34.5 25.664063 34.429688 26 34.394531L26 44.5C26 46.421875 27.578125 48 29.5 48C31.421875 48 33 46.421875 33 44.5L33 30.800781C34.136719 29.511719 34.851563 27.925781 35.265625 26.195313C35.710938 27.386719 36 28.652344 36 30C36 31.65625 37.367188 33 38.996094 33C40.363281 33 41.34375 31.976563 41.699219 30.714844C41.890625 30.527344 42 30.269531 42 30C42 21.609375 35.878906 14.632813 27.875 13.261719C29.734375 12.238281 31 10.261719 31 8C31 4.699219 28.300781 2 25 2 Z M 25 4C27.222656 4 29 5.777344 29 8C29 10.222656 27.222656 12 25 12C22.777344 12 21 10.222656 21 8C21 5.777344 22.777344 4 25 4 Z M 24.9375 15L25.0625 15C33.3125 15.035156 39.984375 21.71875 40 29.972656C39.996094 29.984375 39.996094 29.992188 39.996094 30C39.996094 30.5625 39.558594 31 38.996094 31C38.417969 31 38 30.601563 38 30C38 27.15625 37.082031 24.519531 35.53125 22.375C35.265625 22.015625 34.792969 21.871094 34.375 22.027344C33.953125 22.179688 33.6875 22.597656 33.722656 23.042969C33.742188 23.273438 33.75 23.511719 33.75 23.75C33.75 26.121094 32.808594 28.261719 31.28125 29.839844C31.101563 30.023438 31 30.273438 31 30.53125L31 44.5C31 45.339844 30.339844 46 29.5 46C28.660156 46 28 45.339844 28 44.5L28 33.296875C28 32.992188 27.863281 32.707031 27.632813 32.515625C27.398438 32.328125 27.089844 32.253906 26.796875 32.3125C26.214844 32.433594 25.617188 32.5 25 32.5C24.386719 32.5 23.789063 32.4375 23.210938 32.316406C22.917969 32.253906 22.609375 32.332031 22.375 32.519531C22.144531 32.710938 22.007813 32.996094 22.007813 33.296875L22.007813 44.5C22.007813 45.339844 21.347656 46 20.507813 46C19.667969 46 19.007813 45.339844 19.007813 44.5L19.007813 30.542969C19.007813 30.28125 18.90625 30.03125 18.722656 29.84375C17.191406 28.269531 16.25 26.125 16.25 23.75C16.25 23.511719 16.257813 23.277344 16.277344 23.039063C16.3125 22.59375 16.042969 22.179688 15.625 22.027344C15.203125 21.871094 14.734375 22.015625 14.46875 22.375C12.917969 24.519531 12 27.15625 12 30C12 30.5625 11.5625 31 11 31C10.4375 31 10 30.5625 10 30C10 21.730469 16.675781 15.035156 24.9375 15Z" />
</svg>