<?xml version="1.0" encoding="utf-8"?>
<svg xmlns="http://www.w3.org/2000/svg" viewBox="0 0 50 50" width="515" height="515">
  <path d="M5 4C3.3550302 4 2 5.3550302 2 7L2 16L2 26L2 43C2 44.64497 3.3550302 46 5 46L45 46C46.64497 46 48 44.64497 48 43L48 26L48 16L48 11C48 9.3550302 46.64497 8 45 8L18 8C18.08657 8 17.96899 8.000364 17.724609 7.71875C17.480227 7.437136 17.179419 6.9699412 16.865234 6.46875C16.55105 5.9675588 16.221777 5.4327899 15.806641 4.9628906C15.391504 4.4929914 14.818754 4 14 4L5 4 z M 5 6L14 6C13.93925 6 14.06114 6.00701 14.308594 6.2871094C14.556051 6.5672101 14.857231 7.0324412 15.169922 7.53125C15.482613 8.0300588 15.806429 8.562864 16.212891 9.03125C16.619352 9.499636 17.178927 10 18 10L45 10C45.56503 10 46 10.43497 46 11L46 13.1875C45.685108 13.07394 45.351843 13 45 13L5 13C4.6481575 13 4.3148915 13.07394 4 13.1875L4 7C4 6.4349698 4.4349698 6 5 6 z M 5 15L45 15C45.56503 15 46 15.43497 46 16L46 26L46 43C46 43.56503 45.56503 44 45 44L5 44C4.4349698 44 4 43.56503 4 43L4 26L4 16C4 15.43497 4.4349698 15 5 15 z M 20.714844 20C17.061376 20 14 22.772122 14 26.267578C14 29.498825 16.727445 32.678611 19.287109 35.275391C21.846774 37.87217 24.396484 39.796875 24.396484 39.796875L24.996094 40.25L25.597656 39.800781C25.597656 39.800781 28.149759 37.898778 30.710938 35.3125C33.272115 32.726222 36 29.534329 36 26.267578C36 22.772122 32.938624 20 29.285156 20C27.564735 20 26.144769 20.796614 25 21.769531C23.855231 20.796614 22.435265 20 20.714844 20 z M 20.714844 22C22.084338 22 23.373807 22.738033 24.273438 23.6875L25 24.453125L25.726562 23.6875C26.626193 22.738033 27.915662 22 29.285156 22C31.941688 22 34 23.945034 34 26.267578C34 28.268827 31.727884 31.443528 29.289062 33.90625C27.150185 36.066089 25.499548 37.292977 25.003906 37.671875C24.50904 37.289107 22.853941 36.045143 20.712891 33.873047C18.272555 31.397326 16 28.210331 16 26.267578C16 23.945034 18.058312 22 20.714844 22 z" />
</svg>