<?xml version="1.0" encoding="utf-8"?>
<svg xmlns="http://www.w3.org/2000/svg" viewBox="0 0 50 50" width="515" height="515">
  <path d="M21 3L21 4L21 13L19 13C17.354545 13 16 14.354545 16 16L16 38C16 39.645455 17.354545 41 19 41L20.896484 41C20.622707 44.308818 17.870591 47 14.5 47C11.129409 47 8.3772934 44.308818 8.1035156 41L11 41C12.645455 41 14 39.645455 14 38L14 10C14 8.3545455 12.645455 7 11 7L3 7C1.3545455 7 0 8.3545455 0 10L0 38C0 39.645455 1.3545455 41 3 41L6.1015625 41C6.3784045 45.413097 10.023823 49 14.5 49C18.976177 49 22.621596 45.413097 22.898438 41L47 41C48.645455 41 50 39.645455 50 38L50 16C50 14.354545 48.645455 13 47 13L45 13L45 3L21 3 z M 23 5L43 5L43 17L23 17L23 5 z M 3 9L11 9C11.554545 9 12 9.4454545 12 10L12 38C12 38.554545 11.554545 39 11 39L3 39C2.4454545 39 2 38.554545 2 38L2 10C2 9.4454545 2.4454545 9 3 9 z M 19 15L21 15L21 19L45 19L45 15L47 15C47.554545 15 48 15.445455 48 16L48 38C48 38.554545 47.554545 39 47 39L19 39C18.445455 39 18 38.554545 18 38L18 16C18 15.445455 18.445455 15 19 15 z M 27 21 A 2 2 0 0 0 27 25 A 2 2 0 0 0 27 21 z M 33 21 A 2 2 0 0 0 33 25 A 2 2 0 0 0 33 21 z M 39 21 A 2 2 0 0 0 39 25 A 2 2 0 0 0 39 21 z M 27 27 A 2 2 0 0 0 27 31 A 2 2 0 0 0 27 27 z M 33 27 A 2 2 0 0 0 33 31 A 2 2 0 0 0 33 27 z M 39 27 A 2 2 0 0 0 39 31 A 2 2 0 0 0 39 27 z M 27 33 A 2 2 0 0 0 27 37 A 2 2 0 0 0 27 33 z M 33 33 A 2 2 0 0 0 33 37 A 2 2 0 0 0 33 33 z M 39 33 A 2 2 0 0 0 39 37 A 2 2 0 0 0 39 33 z" />
</svg>