<?xml version="1.0" encoding="utf-8"?>
<svg xmlns="http://www.w3.org/2000/svg" viewBox="0 0 50 50" width="515" height="515">
  <path d="M45.15625 2.003906C44.886719 2.019531 44.617188 2.058594 44.34375 2.109375C43.257813 2.324219 42.035156 2.8125 40.660156 3.492188C39.140625 4.25 37.425781 5.265625 35.625 6.429688C35.5 6.480469 35.390625 6.554688 35.296875 6.648438C33.949219 7.527344 32.5625 8.472656 31.140625 9.496094C30.621094 9.871094 30.09375 10.265625 29.570313 10.652344C29.453125 10.707031 29.347656 10.785156 29.261719 10.878906C27.308594 12.328125 25.355469 13.84375 23.488281 15.347656C23.402344 15.402344 23.324219 15.464844 23.257813 15.542969C21.160156 17.242188 19.199219 18.902344 17.46875 20.429688C17.375 20.488281 17.292969 20.5625 17.222656 20.652344C15.703125 22 14.363281 23.242188 13.34375 24.257813C7.746094 29.855469 7.898438 38.457031 8.03125 40.558594L2.292969 46.292969C1.902344 46.683594 1.902344 47.316406 2.292969 47.707031C2.683594 48.097656 3.320313 48.097656 3.710938 47.707031L9.445313 41.96875C11.519531 42.097656 19.898438 42.234375 25.5 36.875C25.648438 36.792969 25.773438 36.671875 25.863281 36.527344C27.285156 35.09375 29.101563 33.101563 31.078125 30.796875C31.195313 30.707031 31.292969 30.59375 31.359375 30.46875C31.359375 30.464844 31.359375 30.464844 31.359375 30.464844C34.328125 26.988281 37.621094 22.863281 40.503906 18.859375C40.535156 18.816406 40.5625 18.773438 40.59375 18.730469C40.695313 18.632813 40.777344 18.519531 40.832031 18.390625C43.167969 15.113281 45.207031 11.957031 46.503906 9.335938C47.1875 7.960938 47.671875 6.742188 47.886719 5.65625C48.101563 4.566406 48.074219 3.464844 47.300781 2.695313C46.917969 2.308594 46.449219 2.113281 45.941406 2.035156C45.6875 1.996094 45.425781 1.988281 45.15625 2.003906 Z M 44.4375 4.148438L37 11.585938L37 7.921875C38.65625 6.863281 40.203125 5.953125 41.550781 5.285156C42.6875 4.722656 43.675781 4.339844 44.4375 4.148438 Z M 45.84375 5.570313C45.65625 6.332031 45.273438 7.316406 44.714844 8.449219C43.527344 10.839844 41.597656 13.855469 39.363281 17L34.417969 17L36.617188 14.800781C36.683594 14.75 36.742188 14.6875 36.792969 14.625 Z M 35 9.242188L35 13.585938L31 17.585938L31 12.082031C31.4375 11.761719 31.875 11.429688 32.308594 11.121094C33.21875 10.464844 34.117188 9.839844 35 9.242188 Z M 29 13.578125L29 19.585938L25.375 23.210938C25.308594 23.261719 25.25 23.320313 25.199219 23.390625L25 23.585938L25 16.707031C26.304688 15.660156 27.648438 14.609375 29 13.578125 Z M 23 18.34375L23 25.585938L19.375 29.210938C19.308594 29.261719 19.25 29.320313 19.199219 29.390625L19 29.585938L19 21.769531C20.242188 20.675781 21.546875 19.546875 23 18.34375 Z M 32.417969 19L37.917969 19C36.933594 20.335938 35.917969 21.675781 34.878906 23L28.417969 23L30.625 20.796875C30.6875 20.746094 30.742188 20.6875 30.792969 20.625 Z M 17 23.546875L17 31.585938L13.378906 35.203125C13.308594 35.261719 13.246094 35.324219 13.1875 35.394531L10.078125 38.511719C10.085938 35.71875 10.601563 29.828125 14.761719 25.671875C15.378906 25.054688 16.15625 24.324219 17 23.546875 Z M 26.417969 25L33.292969 25C32.144531 26.421875 31.050781 27.71875 29.957031 29L22.417969 29L24.621094 26.796875C24.683594 26.746094 24.742188 26.6875 24.792969 26.625 Z M 20.417969 31L28.230469 31C26.855469 32.558594 25.582031 33.964844 24.558594 35L16.417969 35L18.621094 32.796875C18.683594 32.746094 18.742188 32.6875 18.792969 32.625 Z M 14.417969 37L22.15625 37C18.316406 39.542969 13.824219 39.917969 11.492188 39.921875Z" />
</svg>