<?xml version="1.0" encoding="utf-8"?>
<svg xmlns="http://www.w3.org/2000/svg" viewBox="0 0 50 50" width="515" height="515">
  <path d="M8 0.083984375L7.1894531 2.1875L6.0136719 5.2382812L0.49804688 5.5351562L4.7851562 9.0175781L3.3652344 14.353516L8 11.353516L12.636719 14.351562L11.214844 9.0175781L15.501953 5.5351562L9.9882812 5.2382812L8 0.083984375 z M 8 4.9140625L8.7714844 6.9121094L10.908203 7.0273438L9.2460938 8.3769531L9.796875 10.445312L8 9.2832031L6.203125 10.447266L6.7539062 8.3769531L5.0917969 7.0273438L7.2304688 6.9121094L8 4.9140625 z M 20 6.0175781L20 7.9824219L50 7.9824219L50 6.0175781L20 6.0175781 z M 8 17.583984L7.1894531 19.6875L6.0136719 22.738281L0.49804688 23.035156L4.7851562 26.517578L3.3652344 31.853516L8 28.853516L12.636719 31.851562L11.214844 26.517578L15.501953 23.035156L9.9882812 22.738281L8 17.583984 z M 8 22.414062L8.7714844 24.412109L10.908203 24.527344L9.2460938 25.876953L9.796875 27.945312L8 26.783203L6.203125 27.947266L6.7539062 25.876953L5.0917969 24.527344L7.2304688 24.412109L8 22.414062 z M 20 24.017578L20 25.982422L50 25.982422L50 24.017578L20 24.017578 z M 8 34.583984L7.1894531 36.6875L6.0136719 39.738281L0.49804688 40.035156L4.7851562 43.517578L3.3652344 48.853516L8 45.853516L12.636719 48.851562L11.214844 43.517578L15.501953 40.035156L9.9882812 39.738281L8 34.583984 z M 8 39.414062L8.7714844 41.412109L10.908203 41.527344L9.2460938 42.876953L9.796875 44.945312L8 43.783203L6.203125 44.947266L6.7539062 42.876953L5.0917969 41.527344L7.2304688 41.412109L8 39.414062 z M 20 42.017578L20 43.982422L50 43.982422L50 42.017578L20 42.017578 z" />
</svg>