<?xml version="1.0" encoding="utf-8"?>
<svg xmlns="http://www.w3.org/2000/svg" viewBox="0 0 50 50" width="515" height="515">
  <path d="M24.5 2C19.260993 2 15 6.2609929 15 11.5C15 13.52158 15.664437 15.402949 16.677734 16.867188C16.677734 16.867188 16.677734 16.869141 16.677734 16.869141C16.928425 17.241926 17.126877 17.443245 17.267578 17.654297L17.271484 17.660156L17.275391 17.666016C19.069654 20.275853 17.548731 24.034197 14.228516 24.615234L14.224609 24.615234L14.220703 24.615234C14.220703 24.615234 13.680301 24.714674 13.056641 24.8125C12.43298 24.910201 11.659524 25 11.5 25C6.2609929 25 2 29.260993 2 34.5C2 39.739007 6.2609929 44 11.5 44C14.855556 44 17.868853 42.217256 19.548828 39.529297L19.572266 39.490234L19.59375 39.447266C19.59375 39.447266 20.404054 37.927702 20.673828 36.722656C21.481806 34.854096 23.160404 33.949219 24.900391 33.949219C26.638152 33.949219 28.31384 34.853139 29.123047 36.716797C29.123047 36.716797 29.123047 36.71875 29.123047 36.71875C29.391611 37.924651 30.205078 39.447266 30.205078 39.447266L30.226562 39.490234L30.251953 39.529297C31.931935 42.217209 34.945226 44 38.300781 44C43.539788 44 47.800781 39.739007 47.800781 34.5C47.800781 29.289362 43.739007 25 38.5 25C37.522222 25 35.064453 24.613281 35.064453 24.613281L35.0625 24.613281L35.060547 24.613281C31.474714 24.029541 29.928534 19.86119 32.183594 17.021484L32.199219 17.001953L32.212891 16.980469C33.325564 15.422849 34 13.522222 34 11.5C34 6.2609929 29.739007 2 24.5 2 z M 24.5 4C28.660993 4 32 7.3390071 32 11.5C32 13.077778 31.473355 14.575974 30.585938 15.818359L30.617188 15.777344C27.473174 19.736471 29.725266 25.766845 34.736328 26.585938C34.736328 26.585938 37.077778 27 38.5 27C42.660993 27 45.800781 30.310638 45.800781 34.5C45.800781 38.660993 42.461774 42 38.300781 42C35.667181 42 33.292068 40.589885 31.96875 38.492188C31.92978 38.408907 31.255667 36.955438 31.099609 36.341797L31.099609 36.201172L31.023438 36.017578C29.917465 33.339963 27.386175 31.949219 24.900391 31.949219C22.414606 31.949219 19.881362 33.339963 18.775391 36.017578L18.699219 36.201172L18.699219 36.345703C18.541389 36.96158 17.868966 38.409086 17.830078 38.492188C16.506757 40.58988 14.1336 42 11.5 42C7.3390071 42 4 38.660993 4 34.5C4 30.339007 7.3390071 27 11.5 27C12.040476 27 12.715848 26.88928 13.367188 26.787109C14.015289 26.685446 14.566738 26.586943 14.572266 26.585938L14.578125 26.583984C19.252865 25.76125 21.526604 20.323499 18.923828 16.535156C18.671557 16.15919 18.473348 15.958069 18.332031 15.746094L18.328125 15.738281L18.322266 15.730469C17.536102 14.594928 17 13.077778 17 11.5C17 7.3390071 20.339007 4 24.5 4 z M 24.5 6C21.466667 6 19 8.4666667 19 11.5C19 14.533333 21.466667 17 24.5 17C27.533333 17 30 14.533333 30 11.5C30 8.4666667 27.533333 6 24.5 6 z M 24.5 8C26.466667 8 28 9.5333333 28 11.5C28 13.466667 26.466667 15 24.5 15C22.533333 15 21 13.466667 21 11.5C21 9.5333333 22.533333 8 24.5 8 z M 24.5 10C23.7 10 23 10.7 23 11.5C23 12.3 23.7 13 24.5 13C25.3 13 26 12.3 26 11.5C26 10.7 25.3 10 24.5 10 z M 24.5 23C23.1 23 22 24.1 22 25.5C22 26.9 23.1 28 24.5 28C25.9 28 27 26.9 27 25.5C27 24.1 25.9 23 24.5 23 z M 11.5 29C8.4666667 29 6 31.466667 6 34.5C6 37.533333 8.4666667 40 11.5 40C14.533333 40 17 37.533333 17 34.5C17 31.466667 14.533333 29 11.5 29 z M 38.5 29C35.466667 29 33 31.466667 33 34.5C33 37.533333 35.466667 40 38.5 40C41.533333 40 44 37.533333 44 34.5C44 31.466667 41.533333 29 38.5 29 z M 11.5 31C13.466667 31 15 32.533333 15 34.5C15 36.466667 13.466667 38 11.5 38C9.5333333 38 8 36.466667 8 34.5C8 32.533333 9.5333333 31 11.5 31 z M 38.5 31C40.466667 31 42 32.533333 42 34.5C42 36.466667 40.466667 38 38.5 38C36.533333 38 35 36.466667 35 34.5C35 32.533333 36.533333 31 38.5 31 z M 11.5 33C10.7 33 10 33.7 10 34.5C10 35.3 10.7 36 11.5 36C12.3 36 13 35.3 13 34.5C13 33.7 12.4 33 11.5 33 z M 38.5 33C37.7 33 37 33.7 37 34.5C37 35.3 37.7 36 38.5 36C39.3 36 40 35.3 40 34.5C40 33.7 39.3 33 38.5 33 z" />
</svg>