<?xml version="1.0" encoding="utf-8"?>
<svg xmlns="http://www.w3.org/2000/svg" viewBox="0 0 50 50" width="515" height="515">
  <path d="M9.8125 1C9.550781 1.050781 9.320313 1.207031 9.175781 1.429688C9.027344 1.652344 8.976563 1.925781 9.03125 2.1875L12.65625 20L12.40625 20L5.40625 13.28125C5.101563 12.976563 4.636719 12.902344 4.25 13.09375L0.5625 14.90625C0.320313 15.019531 0.136719 15.226563 0.046875 15.480469C-0.0390625 15.734375 -0.0234375 16.011719 0.09375 16.25L3.6875 23.3125L3.6875 26.59375L0.09375 33.75C-0.0234375 33.988281 -0.0390625 34.265625 0.046875 34.519531C0.136719 34.773438 0.320313 34.980469 0.5625 35.09375L4.25 36.90625C4.636719 37.097656 5.101563 37.023438 5.40625 36.71875L12.40625 30L12.78125 30L9.03125 47.78125C8.964844 48.078125 9.035156 48.386719 9.222656 48.621094C9.414063 48.859375 9.699219 48.996094 10 49L13.90625 49C14.195313 49 14.46875 48.875 14.65625 48.65625L20.5 41.96875L24.09375 41.96875C24.464844 42.007813 24.820313 41.832031 25.019531 41.515625C25.214844 41.199219 25.214844 40.800781 25.019531 40.484375C24.820313 40.167969 24.464844 39.992188 24.09375 40.03125L22.1875 40.03125L30.9375 30L37.90625 30C43.890625 30 49.59375 25.8125 49.59375 25.8125C49.855469 25.625 50.011719 25.320313 50.011719 25C50.011719 24.679688 49.855469 24.375 49.59375 24.1875C49.59375 24.1875 43.984375 20 37.90625 20L30.9375 20L22.1875 9.96875L24.09375 9.96875C24.464844 10.007813 24.820313 9.832031 25.019531 9.515625C25.214844 9.199219 25.214844 8.800781 25.019531 8.484375C24.820313 8.167969 24.464844 7.992188 24.09375 8.03125L20.5 8.03125L14.65625 1.34375C14.46875 1.125 14.195313 1 13.90625 1L10 1C9.96875 1 9.9375 1 9.90625 1C9.875 1 9.84375 1 9.8125 1 Z M 11.21875 3L13.46875 3L29.75 21.65625C29.9375 21.875 30.210938 22 30.5 22L37.90625 22C41.929688 22 45.355469 23.992188 46.96875 25C45.335938 26.007813 41.851563 28 37.90625 28L30.5 28C30.210938 28 29.9375 28.125 29.75 28.34375L13.46875 47L11.21875 47L14.96875 29.21875C15.035156 28.921875 14.964844 28.613281 14.777344 28.378906C14.585938 28.140625 14.300781 28.003906 14 28L12 28C11.742188 28.003906 11.496094 28.101563 11.3125 28.28125L4.5 34.78125L2.34375 33.75L5.59375 27.25C5.65625 27.113281 5.691406 26.964844 5.6875 26.8125L5.6875 23.09375C5.691406 22.941406 5.65625 22.792969 5.59375 22.65625L2.34375 16.25L4.5 15.21875L11.3125 21.71875C11.496094 21.898438 11.742188 21.996094 12 22L13.90625 22C14.203125 21.996094 14.480469 21.859375 14.667969 21.632813C14.855469 21.402344 14.929688 21.101563 14.875 20.8125Z" />
</svg>