<?xml version="1.0" encoding="utf-8"?>
<svg xmlns="http://www.w3.org/2000/svg" viewBox="0 0 50 50" width="515" height="515">
  <path d="M15.5 2C13.027344 2 11 4.027344 11 6.5C11 8.972656 13.027344 11 15.5 11C17.972656 11 20 8.972656 20 6.5C20 4.027344 17.972656 2 15.5 2 Z M 40.5 3C38.027344 3 36 5.027344 36 7.5C36 9.972656 38.027344 12 40.5 12C42.972656 12 45 9.972656 45 7.5C45 5.027344 42.972656 3 40.5 3 Z M 15.5 4C16.890625 4 18 5.109375 18 6.5C18 7.890625 16.890625 9 15.5 9C14.109375 9 13 7.890625 13 6.5C13 5.109375 14.109375 4 15.5 4 Z M 40.5 5C41.890625 5 43 6.109375 43 7.5C43 8.890625 41.890625 10 40.5 10C39.109375 10 38 8.890625 38 7.5C38 6.109375 39.109375 5 40.5 5 Z M 31.09375 7.78125C30.914063 7.789063 30.742188 7.800781 30.5625 7.84375L11.96875 12.15625C10.816406 12.421875 9.75 13.015625 8.9375 13.875L3.53125 19.625C2.546875 20.667969 2.320313 22.238281 3 23.5C3.800781 24.988281 5.621094 25.628906 7.1875 25L8 24.6875L8 34.53125L5.15625 43.9375C5.152344 43.949219 5.160156 43.957031 5.15625 43.96875C4.675781 45.566406 5.539063 47.300781 7.125 47.84375C8.789063 48.414063 10.621094 47.46875 11.125 45.78125L13.84375 36.71875C13.863281 36.648438 13.871094 36.574219 13.875 36.5L14.1875 32.5625L16 35.96875L16 45C16 46.644531 17.355469 48 19 48C20.644531 48 22 46.644531 22 45L22 35.28125C22 34.671875 21.875 34.039063 21.65625 33.46875L17.96875 23.78125L19.75 16.8125L32 13.40625C33.550781 12.972656 34.457031 11.285156 33.96875 9.75C33.574219 8.507813 32.359375 7.734375 31.09375 7.78125 Z M 31.03125 9.78125C31.484375 9.675781 31.921875 9.933594 32.0625 10.375C32.214844 10.855469 31.957031 11.332031 31.46875 11.46875L18.65625 15.03125C18.316406 15.132813 18.054688 15.40625 17.96875 15.75L15.9375 23.59375C15.886719 23.789063 15.898438 23.996094 15.96875 24.1875L19.8125 34.1875C19.941406 34.53125 20 34.914063 20 35.28125L20 45C20 45.566406 19.566406 46 19 46C18.433594 46 18 45.566406 18 45L18 35.75C17.996094 35.585938 17.953125 35.425781 17.875 35.28125L14.34375 28.53125C14.136719 28.144531 13.699219 27.941406 13.269531 28.027344C12.835938 28.113281 12.511719 28.46875 12.46875 28.90625L11.90625 36.15625L11.875 36.21875L9.21875 45.1875C9.03125 45.8125 8.398438 46.148438 7.78125 45.9375C7.191406 45.734375 6.875 45.125 7.0625 44.53125L9.96875 34.90625C9.992188 34.816406 10.003906 34.71875 10 34.625L10 23.875L13.78125 22.375C15.121094 21.835938 15.796875 20.296875 15.3125 18.9375C14.796875 17.5 13.164063 16.765625 11.75 17.34375L8.75 18.5625C8.382813 18.671875 8.113281 18.976563 8.046875 19.351563C7.984375 19.726563 8.136719 20.105469 8.445313 20.332031C8.753906 20.554688 9.164063 20.582031 9.5 20.40625L12.5 19.21875C12.882813 19.0625 13.265625 19.234375 13.40625 19.625C13.535156 19.992188 13.390625 20.355469 13.03125 20.5L6.4375 23.15625C5.796875 23.414063 5.109375 23.167969 4.78125 22.5625C4.507813 22.050781 4.570313 21.421875 4.96875 21L10.40625 15.25C10.949219 14.675781 11.640625 14.269531 12.40625 14.09375 Z M 37.375 12.5625C36.917969 12.558594 36.472656 12.613281 36.03125 12.71875C35.148438 12.929688 34.328125 13.347656 33.625 13.96875L28 18.9375L22.6875 20.125C21.214844 20.457031 20.265625 21.929688 20.59375 23.40625C20.917969 24.855469 22.382813 25.816406 23.84375 25.53125L29.5 24.40625C29.644531 24.382813 29.785156 24.332031 29.90625 24.25L32.3125 22.5L30.65625 27.53125L26.625 33.4375C26.238281 34.003906 25.972656 34.671875 25.84375 35.34375L24.09375 44.59375C24.082031 44.605469 24.074219 44.613281 24.0625 44.625C23.808594 46.164063 24.84375 47.640625 26.375 47.9375C27.949219 48.246094 29.492188 47.167969 29.78125 45.59375C29.78125 45.585938 29.773438 45.566406 29.78125 45.5625L31.5 37.09375L35.375 31.8125L38.96875 45.6875C39.410156 47.335938 41.140625 48.320313 42.78125 47.84375C44.363281 47.382813 45.320313 45.71875 44.90625 44.125L41.3125 29.84375L41.90625 27.59375C43.34375 28.539063 45.269531 28.363281 46.46875 27.09375C47.304688 26.207031 47.636719 24.964844 47.34375 23.78125L45.8125 17.625C45.316406 15.628906 43.769531 14.050781 41.78125 13.53125L38.75 12.75C38.296875 12.632813 37.832031 12.566406 37.375 12.5625 Z M 37.375 14.5625C37.667969 14.566406 37.957031 14.609375 38.25 14.6875L41.28125 15.46875C42.566406 15.804688 43.554688 16.835938 43.875 18.125L45.40625 24.25C45.535156 24.773438 45.402344 25.324219 45.03125 25.71875C44.464844 26.320313 43.558594 26.386719 42.90625 25.875L38.75 22.59375C38.453125 22.359375 38.390625 21.984375 38.625 21.6875C38.855469 21.398438 39.265625 21.339844 39.5625 21.5625L42.25 23.59375C42.699219 23.929688 43.335938 23.839844 43.671875 23.390625C44.007813 22.941406 43.917969 22.304688 43.46875 21.96875L40.75 19.9375C39.601563 19.082031 37.949219 19.3125 37.0625 20.4375C36.15625 21.582031 36.355469 23.28125 37.5 24.1875L40.15625 26.28125L39.3125 29.59375C39.269531 29.757813 39.269531 29.929688 39.3125 30.09375L42.96875 44.625C43.117188 45.191406 42.78125 45.773438 42.21875 45.9375C41.632813 46.109375 41.066406 45.777344 40.90625 45.1875L36.78125 29.3125C36.6875 28.933594 36.382813 28.644531 36 28.570313C35.617188 28.5 35.226563 28.652344 35 28.96875L29.71875 36.09375C29.636719 36.214844 29.585938 36.355469 29.5625 36.5L27.84375 45.1875C27.832031 45.199219 27.824219 45.207031 27.8125 45.21875C27.726563 45.734375 27.261719 46.066406 26.75 45.96875C26.257813 45.875 25.980469 45.429688 26.0625 44.9375L26.03125 44.9375L27.8125 35.71875L27.8125 35.6875C27.890625 35.292969 28.054688 34.894531 28.28125 34.5625L32.40625 28.53125C32.460938 28.453125 32.5 28.371094 32.53125 28.28125L35.15625 20.15625C35.289063 19.746094 35.144531 19.296875 34.796875 19.039063C34.449219 18.785156 33.976563 18.78125 33.625 19.03125L28.90625 22.46875L23.4375 23.5625C23.019531 23.644531 22.65625 23.382813 22.5625 22.96875C22.46875 22.546875 22.703125 22.15625 23.125 22.0625L28.6875 20.8125C28.847656 20.777344 29 20.703125 29.125 20.59375L34.9375 15.46875C35.390625 15.070313 35.929688 14.792969 36.5 14.65625C36.785156 14.589844 37.082031 14.558594 37.375 14.5625Z" />
</svg>