<?xml version="1.0" encoding="utf-8"?>
<svg xmlns="http://www.w3.org/2000/svg" viewBox="0 0 50 50" width="515" height="515">
  <path d="M22.6875 3C22.4375 3 22.199219 3.113281 22 3.3125L21.28125 4C16.882813 4.070313 13.207031 4.738281 10.53125 5.96875C7.808594 7.222656 6 9.210938 6 11.6875C6 13.59375 6.847656 15.242188 8.15625 16.46875C8.25 16.558594 8.367188 16.632813 8.46875 16.71875L3.1875 22C2.386719 22.800781 2 23.898438 2 25C2 26.101563 2.386719 27.199219 3.1875 28L19 43.8125C19.800781 44.613281 20.800781 45 22 45C23.101563 45 24.199219 44.613281 25 43.8125L43 25.78125C43.964844 26.863281 45 28.300781 45 29.6875C45 31.921875 44 36.054688 44 39C44 40.644531 45.355469 42 47 42C48.644531 42 50 40.644531 50 39L50 28.3125C50 23.859375 46.449219 20.246094 42.5 17.46875C38.722656 14.808594 34.476563 12.894531 31.9375 11.84375L23.40625 3.3125C23.207031 3.113281 22.9375 3 22.6875 3 Z M 22.59375 5.40625L30.3125 13.09375C30.363281 13.175781 30.425781 13.25 30.5 13.3125L41.5 24.3125L23.5 42.3125C22.699219 43.113281 21.207031 43.113281 20.40625 42.3125L4.59375 26.5C4.195313 26.101563 4 25.601563 4 25C4 24.398438 4.195313 23.90625 4.59375 23.40625L10.125 17.875C11.058594 18.414063 12.082031 18.878906 13.1875 19.25C16.566406 20.386719 20.589844 20.828125 24.25 20.9375C24.585938 21.566406 25.234375 22 26 22C27.105469 22 28 21.105469 28 20C28 18.894531 27.105469 18 26 18C25.285156 18 24.667969 18.375 24.3125 18.9375C20.777344 18.824219 16.894531 18.382813 13.8125 17.34375C12.023438 16.742188 10.535156 15.9375 9.53125 15C8.527344 14.0625 8 13.03125 8 11.6875C8 10.164063 9.046875 8.851563 11.375 7.78125C13.265625 6.910156 15.949219 6.3125 19.1875 6.09375L11.1875 14C11.6875 14.398438 12.398438 14.699219 13 15 Z M 36.03125 15.9375C37.777344 16.835938 39.652344 17.882813 41.375 19.09375C45.101563 21.714844 48 24.964844 48 28.3125L48 39C48 39.554688 47.554688 40 47 40C46.445313 40 46 39.554688 46 39C46 36.546875 47 32.453125 47 29.6875C47 26.835938 44.839844 24.714844 43.71875 23.59375L43.6875 23.59375Z" />
</svg>