<?xml version="1.0" encoding="utf-8"?>
<svg xmlns="http://www.w3.org/2000/svg" width="515" height="515" viewBox="0 0 50 50">
  <path d="M24 2C21.012171 2 18.409273 2.6079138 16.167969 3.578125 A 1.0003209 1.0003209 0 1 0 16.962891 5.4140625C18.967587 4.5462737 21.281829 4 24 4C27.998179 4 31.293647 4.9167913 34.039062 6.3457031 A 1.0002334 1.0002334 0 1 0 34.960938 4.5703125C31.942353 2.9992244 28.305821 2 24 2 z M 13.244141 5.3261719 A 1.0001 1.0001 0 0 0 12.712891 5.5136719C9.9085205 7.4723209 7.8667308 9.9140881 6.3554688 11.974609C5.5998377 13.00487 4.9753648 13.942456 4.46875 14.667969C3.9621352 15.393482 3.5201312 15.916171 3.3925781 16.015625 A 1.0005663 1.0005663 0 1 0 4.6230469 17.59375C5.1854938 17.155204 5.5816773 16.568206 6.109375 15.8125C6.6370727 15.056794 7.2431779 14.142864 7.9667969 13.15625C9.4140348 11.183022 11.321745 8.9266478 13.859375 7.1542969 A 1.0001 1.0001 0 0 0 13.34375 5.3261719 A 1.0001 1.0001 0 0 0 13.244141 5.3261719 z M 24.958984 7 A 1.0001 1.0001 0 0 0 24.941406 8.9980469C35.106113 9.5921383 39.413952 15.253439 41.234375 21.658203C43.054798 28.062967 42.079864 35.275051 41.214844 37.941406 A 1.0009081 1.0009081 0 1 0 43.119141 38.558594C44.159119 35.352949 45.132033 28.055814 43.158203 21.111328C41.184379 14.166842 35.955887 7.6388617 25.058594 7.0019531 A 1.0001 1.0001 0 0 0 24.958984 7 z M 38.404297 7.0527344 A 1.0001 1.0001 0 0 0 37.828125 8.8847656C45.647879 14.284745 46.900391 26.488281 46.900391 26.488281 A 1.0003144 1.0003144 0 1 0 48.892578 26.304688C48.892578 26.304688 47.833089 13.362302 38.964844 7.2382812 A 1.0001 1.0001 0 0 0 38.404297 7.0527344 z M 20.90625 7.375 A 1.0001 1.0001 0 0 0 20.736328 7.3964844C13.825834 8.7684444 10.494253 13.544472 7.90625 17.572266 A 1.0006597 1.0006597 0 1 0 9.5898438 18.654297C12.149841 14.67009 14.951447 10.583462 21.126953 9.3574219 A 1.0001 1.0001 0 0 0 20.90625 7.375 z M 25 12C21.523718 12 18.854795 13.120788 16.800781 14.787109 A 1.0001 1.0001 0 1 0 18.060547 16.339844C19.810533 14.920165 21.940282 14 25 14C25.883262 14 26.72685 14.07537 27.53125 14.21875 A 1.0001 1.0001 0 1 0 27.882812 12.25C26.959213 12.085377 25.996738 12 25 12 z M 31.369141 13.453125 A 1.0001 1.0001 0 0 0 30.941406 15.351562C35.321086 17.585116 38 22.445615 38 29C38 30.946585 37.754807 33.015553 37.398438 34.974609 A 1.0001 1.0001 0 1 0 39.365234 35.332031C39.736864 33.289088 40 31.113415 40 29C40 21.890385 36.98793 16.188806 31.849609 13.568359 A 1.0001 1.0001 0 0 0 31.369141 13.453125 z M 25 17C22.396182 17 20.375331 17.82382 18.847656 19.111328C17.319981 20.398836 16.272118 22.093809 15.34375 23.837891 A 1.0001 1.0001 0 1 0 17.109375 24.777344C17.994007 23.115426 18.932394 21.655617 20.136719 20.640625C21.341044 19.625633 22.798818 19 25 19C27.076442 19 28.599885 19.652463 29.789062 20.689453C30.97824 21.726444 31.824554 23.184382 32.347656 24.792969 A 1.000281 1.000281 0 1 0 34.25 24.173828C33.641103 22.301415 32.633589 20.5159 31.103516 19.181641C29.573443 17.847381 27.512558 17 25 17 z M 14.644531 17.576172 A 1.0001 1.0001 0 0 0 13.810547 17.994141C11.815614 20.693106 10.390361 23.70348 8.734375 25.853516C7.0783894 28.003551 5.4143255 29.272557 2.4921875 29.003906 A 1.0003149 1.0003149 0 0 0 2.3085938 30.996094C5.9344557 31.329443 8.4615953 29.484934 10.318359 27.074219C12.175124 24.663504 13.583854 21.665676 15.419922 19.181641 A 1.0001 1.0001 0 0 0 14.644531 17.576172 z M 6.5859375 20.394531 A 1.0001 1.0001 0 0 0 5.7539062 20.814453C4.5815 22.413102 3.4121732 23.558152 1.9667969 24.054688 A 1.0001 1.0001 0 1 0 2.6171875 25.945312C4.6358112 25.251849 6.0915938 23.735445 7.3671875 21.996094 A 1.0001 1.0001 0 0 0 6.5859375 20.394531 z M 23.419922 21.375 A 1.0001 1.0001 0 0 0 22.970703 21.501953C21.22752 22.447163 20.408971 24.354104 19.734375 26.257812C19.059779 28.161521 18.537348 30.173 17.857422 31.482422C15.895992 35.260934 12.135112 39 7 39 A 1.0001 1.0001 0 1 0 7 41C13.096888 41 17.434289 36.635785 19.630859 32.404297C20.487933 30.753719 20.99094 28.704072 21.621094 26.925781C22.251247 25.14749 23.015012 23.752555 23.923828 23.259766 A 1.0001 1.0001 0 0 0 23.419922 21.375 z M 26.982422 21.558594 A 1.0001 1.0001 0 0 0 26.421875 23.394531C27.408762 24.064741 28 25.851917 28 28.130859C28 29.638262 27.448992 33.186458 26.023438 36.851562C24.597883 40.516667 22.305603 44.335706 18.945312 46.734375 A 1.0001 1.0001 0 1 0 20.107422 48.361328C23.928132 45.633998 26.372476 41.474317 27.888672 37.576172C29.404868 33.678027 30 30.080457 30 28.130859C30 25.539802 29.450035 23.034025 27.544922 21.740234 A 1.0001 1.0001 0 0 0 26.982422 21.558594 z M 24.953125 25.986328 A 1.0001 1.0001 0 0 0 24.001953 26.933594C24.001953 26.933594 23.77813 30.227823 22.054688 34.097656 A 1.0006712 1.0006712 0 1 0 23.882812 34.912109C25.75337 30.711943 25.998047 27.066406 25.998047 27.066406 A 1.0001 1.0001 0 0 0 24.953125 25.986328 z M 14.306641 27.005859 A 1.0001 1.0001 0 0 0 13.441406 27.544922C12.475873 29.342442 11.416298 30.960799 9.9746094 32.111328C8.5329207 33.261857 6.7085999 34 3.9707031 34 A 1.0001 1.0001 0 1 0 3.9707031 36C7.0838064 36 9.4438919 35.091799 11.220703 33.673828C12.997514 32.255857 14.187658 30.382667 15.203125 28.492188 A 1.0001 1.0001 0 0 0 14.306641 27.005859 z M 33.984375 27.986328 A 1.0001 1.0001 0 0 0 33 29C33 39.372533 26.978516 47.03125 26.978516 47.03125 A 1.0001 1.0001 0 1 0 28.546875 48.271484C28.546875 48.271484 35 40.145467 35 29 A 1.0001 1.0001 0 0 0 33.984375 27.986328 z M 21.150391 36.78125 A 1.0001 1.0001 0 0 0 20.339844 37.242188C18.611737 39.861513 16.102724 42.36394 12.394531 43.984375 A 1.0001 1.0001 0 1 0 13.195312 45.816406C17.29512 44.024841 20.111872 41.218471 22.009766 38.341797 A 1.0001 1.0001 0 0 0 21.150391 36.78125 z M 37.380859 38.355469 A 1.0001 1.0001 0 0 0 36.466797 39.113281C35.682735 42.080321 34.898438 44.144531 34.898438 44.144531 A 1.0001 1.0001 0 1 0 36.767578 44.855469C36.767578 44.855469 37.590453 42.68996 38.400391 39.625 A 1.0001 1.0001 0 0 0 37.480469 38.355469 A 1.0001 1.0001 0 0 0 37.380859 38.355469 z" />
</svg>