<?xml version="1.0" encoding="utf-8"?>
<svg xmlns="http://www.w3.org/2000/svg" viewBox="0 0 50 50" width="515" height="515">
  <path d="M20 4C19.0625 4 18.105469 4.320313 17.328125 4.976563C16.554688 5.628906 16 6.667969 16 7.898438L16 29.3125L12.65625 25.445313C12.648438 25.4375 12.640625 25.429688 12.632813 25.421875C10.953125 23.613281 8.082031 23.625 6.3125 25.378906C4.511719 27.066406 4.527344 29.941406 6.292969 31.707031L6.210938 31.613281L17.800781 46.5C19.488281 48.75 22.105469 50 24.902344 50L33 50C37.945313 50 42 45.945313 42 41L42 23C42 22.253906 41.976563 21.121094 41.453125 20.039063C40.925781 18.957031 39.710938 18 38 18C37.058594 18 36.308594 18.316406 35.703125 18.757813C35.550781 18.234375 35.355469 17.746094 35.046875 17.339844C34.339844 16.425781 33.203125 16 32 16C30.886719 16 30.019531 16.410156 29.359375 16.972656C28.695313 15.867188 27.566406 15 26 15C25.222656 15 24.578125 15.253906 24 15.597656L24 8C24 6.734375 23.457031 5.671875 22.683594 4.996094C21.910156 4.320313 20.941406 4 20 4 Z M 20 6C20.464844 6 20.996094 6.179688 21.371094 6.503906C21.746094 6.828125 22 7.265625 22 8L22 18.933594C22 18.953125 22 18.976563 22 19L22 23C21.996094 23.359375 22.183594 23.695313 22.496094 23.878906C22.808594 24.058594 23.191406 24.058594 23.503906 23.878906C23.816406 23.695313 24.003906 23.359375 24 23L24 19.039063C24 19.03125 24 19.023438 24 19.015625C24.003906 19.007813 24.003906 19.003906 24 19C24 18.125 24.664063 17 26 17C27.332031 17 27.992188 18.109375 28 18.984375C28 18.988281 28 18.996094 28 19L28 22C28.007813 22.546875 28.453125 22.984375 29 22.984375C29.546875 22.984375 29.992188 22.546875 30 22L30 20.039063C30 20.027344 30 20.011719 30 20C30 19.464844 30.144531 18.941406 30.417969 18.601563C30.691406 18.261719 31.082031 18 32 18C32.800781 18 33.164063 18.175781 33.457031 18.5625C33.753906 18.945313 34 19.71875 34 21L34 23C34.003906 23.066406 34.011719 23.132813 34.027344 23.199219C34.046875 23.296875 34.082031 23.390625 34.128906 23.480469C34.148438 23.507813 34.164063 23.535156 34.1875 23.5625C34.222656 23.617188 34.269531 23.667969 34.316406 23.714844C34.363281 23.757813 34.417969 23.800781 34.472656 23.835938C34.5 23.851563 34.53125 23.867188 34.5625 23.882813C34.621094 23.914063 34.683594 23.9375 34.75 23.953125C34.878906 23.988281 35.011719 23.996094 35.144531 23.976563C35.242188 23.960938 35.339844 23.933594 35.433594 23.890625C35.460938 23.875 35.492188 23.859375 35.519531 23.84375C35.578125 23.808594 35.628906 23.769531 35.679688 23.722656C35.703125 23.699219 35.726563 23.675781 35.75 23.652344C35.859375 23.523438 35.9375 23.375 35.976563 23.210938C35.984375 23.179688 35.988281 23.144531 35.996094 23.113281C36 23.082031 36 23.046875 36 23.015625C36.003906 23.007813 36.003906 23.003906 36 23C36 22.347656 36.074219 21.480469 36.351563 20.910156C36.628906 20.34375 36.910156 20 38 20C39.09375 20 39.375 20.34375 39.652344 20.910156C39.929688 21.480469 40 22.347656 40 23L40 41C40 44.855469 36.855469 48 33 48L24.902344 48C22.695313 48 20.710938 47.050781 19.402344 45.300781C19.398438 45.296875 19.394531 45.289063 19.390625 45.285156L7.789063 30.386719C7.761719 30.351563 7.734375 30.320313 7.707031 30.292969C6.675781 29.261719 6.691406 27.75 7.679688 26.832031C7.6875 26.824219 7.699219 26.816406 7.707031 26.808594C8.734375 25.777344 10.25 25.792969 11.167969 26.78125L16.246094 32.65625C16.515625 32.96875 16.957031 33.082031 17.347656 32.9375C17.738281 32.789063 18 32.417969 18 32L18 7.898438C18 7.230469 18.246094 6.820313 18.625 6.5C19 6.179688 19.539063 6 20 6Z" />
</svg>