<?xml version="1.0" encoding="utf-8"?>
<svg xmlns="http://www.w3.org/2000/svg" viewBox="0 0 50 50" width="515" height="515">
  <path d="M21.894531 0 A 1.0001 1.0001 0 0 0 20.904297 0.91210938C20.284814 7.8693803 16.271374 12.443296 12.203125 17.1875C8.1348762 21.931704 4 26.881987 4 34.300781C4 39.442877 6.2836272 43.416187 9.2792969 46.039062C12.274967 48.661938 15.94697 50 19 50 A 1.0001 1.0001 0 1 0 19 48C16.55303 48 13.225033 46.837281 10.595703 44.535156C7.9663729 42.233031 6 38.858685 6 34.300781C6 27.619576 9.663952 23.219077 13.720703 18.488281C17.466379 14.120247 21.405145 9.4058103 22.542969 2.7070312C37.751237 13.321032 44 24.135179 44 32.300781C44 39.997489 39.25589 46.166922 34.619141 48.076172 A 1.0001 1.0001 0 1 0 35.380859 49.923828C40.94411 47.633078 46 40.804073 46 32.300781C46 22.891418 38.917639 11.278943 22.458984 0.171875 A 1.0001 1.0001 0 0 0 21.894531 0 z M 25.794922 15.400391 A 1.0001 1.0001 0 0 0 24.814453 16.572266C25.428056 20.082075 25.567994 22.95418 25.371094 25.123047C25.174193 27.291914 24.611466 28.738031 24.03125 29.408203C23.451034 30.078375 23.024791 30.18046 22.15625 29.810547C21.287709 29.440634 20.074875 28.358132 18.837891 26.455078 A 1.0001 1.0001 0 0 0 17.197266 26.404297C13.446828 31.45697 13.598509 35.484669 14.90625 38.085938C16.213991 40.687204 18.535156 41.884766 18.535156 41.884766 A 1.0001 1.0001 0 1 0 19.464844 40.115234C19.464844 40.115234 17.685618 39.161233 16.693359 37.1875C15.790314 35.391225 15.570163 32.700421 18.111328 28.740234C19.169128 30.100594 20.239083 31.167434 21.373047 31.650391C22.845131 32.277353 24.510685 31.909125 25.542969 30.716797C26.575253 29.524469 27.144557 27.713945 27.363281 25.304688C27.515832 23.624336 27.403451 21.533779 27.154297 19.253906C29.844719 21.938634 32.041555 24.842877 32.925781 27.960938C34.036568 31.877921 33.492142 36.016533 30.291016 40.412109 A 1.0001 1.0001 0 1 0 31.908203 41.587891C35.407077 36.783467 36.113823 31.872078 34.849609 27.414062C33.585396 22.956048 30.444078 18.968047 26.439453 15.630859 A 1.0001 1.0001 0 0 0 25.794922 15.400391 z" />
</svg>