<?xml version="1.0" encoding="utf-8"?>
<svg xmlns="http://www.w3.org/2000/svg" viewBox="0 0 50 50" width="515" height="515">
  <path d="M14 0C11.800781 0 10 1.800781 10 4C10 5.214844 10.570313 6.296875 11.4375 7.03125C10.621094 7.375 9.886719 7.785156 9.25 8.28125C7.421875 9.714844 6.410156 11.695313 6.03125 13.8125C5.894531 14.183594 5.988281 14.601563 6.273438 14.878906C6.558594 15.15625 6.980469 15.234375 7.347656 15.085938C7.714844 14.9375 7.957031 14.582031 7.96875 14.1875C8.277344 12.46875 9.085938 10.953125 10.5 9.84375C11.753906 8.863281 13.523438 8.175781 16 8.03125L16 12.1875C14.230469 12.664063 12.695313 14.027344 11.5 15.625C10.011719 17.617188 9 20.042969 9 22.21875L9 45.3125C9 47.882813 11.089844 50 13.65625 50L28.34375 50C30.910156 50 33 47.882813 33 45.3125L33 22.21875C33 20.042969 31.988281 17.617188 30.5 15.625C29.304688 14.027344 27.769531 12.664063 26 12.1875L26 10L29.25 10C29.28125 10.082031 29.304688 10.171875 29.34375 10.25C29.574219 10.6875 29.933594 11.101563 30.53125 11.28125C30.550781 11.292969 30.574219 11.304688 30.59375 11.3125L42.78125 13.96875C43.078125 14.035156 43.386719 13.964844 43.621094 13.777344C43.859375 13.585938 43.996094 13.300781 44 13L44 2C44.003906 1.710938 43.878906 1.4375 43.664063 1.246094C43.449219 1.054688 43.160156 0.964844 42.875 1C42.84375 1.007813 42.8125 1.019531 42.78125 1.03125L30.59375 3.6875C30.574219 3.695313 30.550781 3.707031 30.53125 3.71875C29.933594 3.898438 29.574219 4.3125 29.34375 4.75C29.304688 4.828125 29.28125 4.917969 29.25 5L26 5L26 3.84375C26 2.242188 24.601563 1 23 1L19 1C18.320313 1 17.671875 1.210938 17.15625 1.59375C16.421875 0.640625 15.285156 0 14 0 Z M 14 2C15.117188 2 16 2.882813 16 4C16 5.117188 15.117188 6 14 6C12.882813 6 12 5.117188 12 4C12 2.882813 12.882813 2 14 2 Z M 19 3L23 3C23.609375 3 24 3.421875 24 3.84375L24 5.6875C23.941406 5.882813 23.941406 6.085938 24 6.28125L24 8.6875C23.941406 8.882813 23.941406 9.085938 24 9.28125L24 12L18 12L18 7.1875C18.027344 7.054688 18.027344 6.914063 18 6.78125L18 3.84375C18 3.421875 18.390625 3 19 3 Z M 42 3.25L42 11.75L31.125 9.375C31.125 9.375 31.125 9.34375 31.125 9.34375C31.136719 9.34375 31.144531 9.347656 31.125 9.3125C31.074219 9.214844 31.015625 9.042969 31 8.875C31 8.84375 31 8.8125 31 8.78125L31 6.21875C31.003906 6.175781 31.003906 6.136719 31 6.09375C31.019531 5.9375 31.078125 5.777344 31.125 5.6875C31.144531 5.652344 31.136719 5.65625 31.125 5.65625C31.125 5.65625 31.125 5.625 31.125 5.625 Z M 26 7L29 7L29 8L26 8 Z M 17.21875 14C17.261719 13.996094 17.304688 14 17.34375 14L24.65625 14C25.988281 14 27.644531 15.121094 28.90625 16.8125C30.167969 18.503906 31 20.707031 31 22.21875L31 45.3125C31 46.808594 29.824219 48 28.34375 48L13.65625 48C12.175781 48 11 46.808594 11 45.3125L11 22.21875C11 20.707031 11.832031 18.503906 13.09375 16.8125C14.320313 15.171875 15.910156 14.066406 17.21875 14Z" />
</svg>