<?xml version="1.0" encoding="utf-8"?>
<svg xmlns="http://www.w3.org/2000/svg" viewBox="0 0 50 50" width="515" height="515">
  <path d="M19.8125 0C19.488281 0.0546875 19.210938 0.269531 19.074219 0.570313C18.9375 0.867188 18.957031 1.21875 19.125 1.5C20.65625 4.261719 21.066406 6.609375 20.96875 8.34375C20.871094 10.078125 20.164063 11.167969 19.84375 11.375C19.613281 11.523438 19.539063 11.511719 19.28125 11.46875C19.023438 11.425781 18.628906 11.277344 18.125 11.09375C17.121094 10.722656 15.558594 10.34375 13.8125 11.21875C13.542969 11.355469 13.347656 11.609375 13.289063 11.910156C13.226563 12.207031 13.304688 12.515625 13.5 12.75C13.820313 13.125 14.195313 13.925781 14.375 14.71875C14.554688 15.511719 14.53125 16.304688 14.34375 16.71875C14 17.476563 11.40625 18.992188 11.40625 23.28125C11.40625 24.742188 11.621094 26.269531 12.5625 28L3 28C1.355469 28 0 29.355469 0 31L0 37C0 37.765625 0.300781 38.46875 0.78125 39C0.300781 39.53125 0 40.234375 0 41L0 47C0 48.644531 1.355469 50 3 50L31 50C31.765625 50 32.46875 49.699219 33 49.21875C33.53125 49.699219 34.234375 50 35 50L47 50C48.644531 50 50 48.644531 50 47L50 41C50 40.234375 49.699219 39.53125 49.21875 39C49.699219 38.46875 50 37.765625 50 37L50 31C50 29.355469 48.644531 28 47 28L38.71875 28C39.363281 25.136719 38.507813 22.972656 37.40625 21.46875C36.773438 20.601563 36.082031 19.925781 35.625 19.34375C35.167969 18.761719 34.992188 18.351563 35 18.03125C35.03125 16.800781 35.964844 14.863281 36.0625 12.75C36.113281 11.695313 35.882813 10.539063 35.125 9.53125C34.367188 8.523438 33.148438 7.707031 31.34375 7.0625C31.011719 6.933594 30.632813 6.996094 30.355469 7.222656C30.078125 7.445313 29.941406 7.804688 30 8.15625C30.1875 9.414063 30.15625 10.574219 29.9375 11.21875C29.828125 11.542969 29.6875 11.710938 29.59375 11.78125C29.5 11.851563 29.425781 11.882813 29.15625 11.84375C28.570313 11.761719 28.6875 11.746094 28.65625 11.65625C28.625 11.566406 28.613281 11.097656 28.71875 10.4375C28.933594 9.113281 29.390625 7.023438 28.3125 4.84375C26.660156 1.511719 23.03125 0 20 0C19.96875 0 19.9375 0 19.90625 0C19.875 0 19.84375 0 19.8125 0 Z M 21.625 2.40625C23.574219 2.839844 25.574219 3.824219 26.53125 5.75C27.285156 7.277344 26.976563 8.710938 26.75 10.125C26.636719 10.832031 26.472656 11.523438 26.75 12.3125C27.027344 13.101563 27.890625 13.703125 28.875 13.84375C29.5625 13.941406 30.261719 13.761719 30.78125 13.375C31.300781 12.988281 31.617188 12.457031 31.8125 11.875C32.042969 11.199219 32.101563 10.421875 32.09375 9.625C32.746094 9.996094 33.253906 10.351563 33.53125 10.71875C33.980469 11.3125 34.097656 11.914063 34.0625 12.65625C33.992188 14.140625 33.046875 15.996094 33 17.96875C32.976563 19.011719 33.507813 19.851563 34.0625 20.5625C34.617188 21.273438 35.25 21.933594 35.78125 22.65625C36.761719 23.992188 37.453125 25.433594 36.6875 28L31.90625 28C32.214844 26.828125 32.289063 25.65625 32 24.5625C31.597656 23.03125 30.53125 21.707031 28.9375 20.71875C28.582031 20.503906 28.128906 20.535156 27.804688 20.789063C27.480469 21.046875 27.34375 21.480469 27.46875 21.875C27.71875 22.644531 27.621094 23.382813 27.40625 23.84375C27.191406 24.304688 26.957031 24.5 26.5 24.5C26.320313 24.5 26.144531 24.347656 25.96875 23.90625C25.792969 23.464844 25.828125 22.839844 25.90625 22.6875C27.179688 20.1875 27.417969 18.3125 27 16.84375C26.582031 15.375 25.550781 14.511719 24.78125 13.90625C24.570313 13.734375 24.300781 13.65625 24.03125 13.6875C23.757813 13.726563 23.511719 13.875 23.351563 14.097656C23.191406 14.324219 23.132813 14.605469 23.1875 14.875C23.421875 16.007813 23.289063 16.769531 22.96875 17.46875C22.648438 18.167969 22.09375 18.808594 21.4375 19.53125C20.125 20.972656 18.375 22.808594 18.375 25.875C18.375 26.140625 18.390625 26.984375 18.6875 28.03125C18.046875 28.101563 17.457031 28.367188 17 28.78125C16.46875 28.300781 15.765625 28 15 28L14.9375 28C13.558594 26.089844 13.40625 24.890625 13.40625 23.28125C13.40625 19.742188 15.222656 19.589844 16.15625 17.53125C16.625 16.488281 16.589844 15.324219 16.34375 14.25C16.214844 13.679688 15.898438 13.25 15.65625 12.75C16.28125 12.65625 16.832031 12.746094 17.4375 12.96875C17.882813 13.132813 18.34375 13.339844 18.9375 13.4375C19.53125 13.535156 20.296875 13.445313 20.9375 13.03125C22.164063 12.238281 22.84375 10.632813 22.96875 8.46875C23.066406 6.78125 22.566406 4.664063 21.625 2.40625 Z M 25.03125 17.34375C25.039063 17.367188 25.054688 17.382813 25.0625 17.40625C25.300781 18.246094 25.265625 19.542969 24.125 21.78125C24.113281 21.78125 24.105469 21.78125 24.09375 21.78125C23.628906 22.703125 23.730469 23.714844 24.09375 24.625C24.457031 25.535156 25.285156 26.5 26.5 26.5C27.730469 26.5 28.746094 25.695313 29.21875 24.6875C29.34375 24.421875 29.371094 24.105469 29.4375 23.8125C29.726563 24.214844 29.945313 24.648438 30.0625 25.09375C30.285156 25.941406 30.195313 26.914063 29.8125 28L20.8125 28C20.398438 26.972656 20.375 26.199219 20.375 25.875C20.375 23.53125 21.554688 22.359375 22.90625 20.875C23.582031 20.132813 24.304688 19.324219 24.78125 18.28125C24.910156 17.996094 24.949219 17.664063 25.03125 17.34375 Z M 3 30L15 30C15.566406 30 16 30.433594 16 31L16 37C16 37.566406 15.566406 38 15 38L3 38C2.433594 38 2 37.566406 2 37L2 31C2 30.433594 2.433594 30 3 30 Z M 19 30L37.125 30C37.316406 30.058594 37.527344 30.058594 37.71875 30L47 30C47.566406 30 48 30.433594 48 31L48 37C48 37.566406 47.566406 38 47 38L19 38C18.433594 38 18 37.566406 18 37L18 31C18 30.433594 18.433594 30 19 30 Z M 3 40L31 40C31.566406 40 32 40.433594 32 41L32 47C32 47.566406 31.566406 48 31 48L3 48C2.433594 48 2 47.566406 2 47L2 41C2 40.433594 2.433594 40 3 40 Z M 35 40L47 40C47.566406 40 48 40.433594 48 41L48 47C48 47.566406 47.566406 48 47 48L35 48C34.433594 48 34 47.566406 34 47L34 41C34 40.433594 34.433594 40 35 40Z" />
</svg>