<?xml version="1.0" encoding="utf-8"?>
<svg xmlns="http://www.w3.org/2000/svg" viewBox="0 0 50 50" width="515" height="515">
  <path d="M28.949219 4.2714844C27.933253 4.2714844 26.918793 4.6356379 26.125 5.3632812 A 1.0001 1.0001 0 0 0 26.09375 5.3925781L24.304688 7.1816406C23.318874 6.865701 22.239775 6.8403236 21.21875 7.140625 A 1.0001 1.0001 0 0 0 21.207031 7.1445312L15.007812 9.0429688 A 1.0001 1.0001 0 0 0 14.998047 9.046875C12.684908 9.77734 11.022142 11.914575 10.900391 14.349609 A 1.0001 1.0001 0 0 0 10.900391 14.355469L10.417969 25.367188L3.2929688 32.492188 A 1.0001 1.0001 0 1 0 4.7070312 33.90625L12.107422 26.507812 A 1.0001 1.0001 0 0 0 12.398438 25.84375L12.898438 14.449219C12.976537 12.887181 14.110979 11.429391 15.59375 10.957031L15.597656 10.955078L21.787109 9.0585938C23.084327 8.6797131 24.52471 9.1396051 25.267578 10.253906 A 1.0001 1.0001 0 0 0 25.271484 10.261719L27.296875 13.25 A 1.0001 1.0001 0 0 0 27.792969 13.982422L29.46875 16.455078C29.977177 17.217718 29.768345 18.213576 29.111328 18.691406C28.426435 19.18951 27.522187 19.069124 26.947266 18.433594L24.171875 15.064453 A 1.0001 1.0001 0 0 0 23.21875 14.716797L20.517578 15.216797 A 1.0001 1.0001 0 0 0 19.898438 16.798828C19.898438 16.798828 21.252085 18.614211 22.445312 20.976562C23.638541 23.338915 24.546231 26.225835 24.037109 28.027344 A 1.0006968 1.0006968 0 1 0 25.962891 28.572266C26.753769 25.773774 25.51224 22.611867 24.230469 20.074219C23.326567 18.284676 22.80949 17.642753 22.306641 16.919922L23.001953 16.791016L25.427734 19.736328 A 1.0001 1.0001 0 0 0 25.457031 19.769531C26.425457 20.84556 27.933312 21.231979 29.271484 20.808594C29.201931 21.880155 29.562955 22.977017 30.392578 23.806641C31.07208 24.486142 31.941326 24.856808 32.828125 24.949219C32.516922 26.244915 32.872302 27.686755 33.892578 28.707031C35.447697 30.26215 37.971361 30.273288 39.548828 28.753906C39.429844 28.905448 39.320158 29.057732 39.175781 29.208984L32.693359 35.693359C30.771917 37.614802 27.892867 38.232918 25.244141 37.261719L21.251953 35.763672 A 1.0003362 1.0003362 0 1 0 20.548828 37.636719L23.822266 38.863281L17.693359 44.992188 A 1.0001 1.0001 0 1 0 19.107422 46.40625L26.052734 39.460938C28.976672 40.013353 31.99152 39.223324 34.107422 37.107422L40.607422 30.607422 A 1.0001 1.0001 0 0 0 40.623047 30.589844C42.4992 28.624349 42.703303 26.40913 42.705078 25.519531L43.017578 25.197266L42.976562 25.236328C44.593353 23.754271 44.577321 21.188082 43.021484 19.613281C42.465024 19.012755 41.758814 18.637361 41.009766 18.486328C41.695089 17.041055 41.425618 15.231305 40.220703 14.011719C39.532605 13.269144 38.610441 12.910658 37.666016 12.855469C38.071849 11.514618 37.783934 9.9883012 36.720703 8.9121094C35.978154 8.110773 34.969365 7.7125697 33.947266 7.7109375C33.612316 7.7104034 33.279194 7.7678898 32.951172 7.8515625C32.863235 6.9566159 32.492139 6.0780765 31.806641 5.3925781 A 1.0001 1.0001 0 0 0 31.775391 5.3632812C30.981602 4.6356355 29.965185 4.2714844 28.949219 4.2714844 z M 28.9375 6.2832031C29.466401 6.28259 29.995428 6.4657778 30.402344 6.8300781C31.208656 7.6563832 31.194647 8.8559197 30.423828 9.5625 A 1.0001 1.0001 0 0 0 30.392578 9.59375L30.193359 9.7929688L28.509766 11.476562L26.931641 9.1445312L26.927734 9.1386719C26.69097 8.7846371 26.40512 8.4863188 26.099609 8.2148438L27.476562 6.8378906C27.879826 6.4682329 28.408599 6.2838163 28.9375 6.2832031 z M 33.927734 9.6894531C34.424297 9.6878438 34.907464 9.8868007 35.263672 10.275391 A 1.0001 1.0001 0 0 0 35.292969 10.306641C36.119774 11.133445 36.101398 12.350085 35.324219 13.0625 A 1.0001 1.0001 0 0 0 35.300781 13.085938L31.673828 16.640625C31.580399 16.191066 31.402945 15.750901 31.132812 15.345703 A 1.0001 1.0001 0 0 0 31.126953 15.339844L29.652344 13.162109L31.548828 11.263672 A 1.0001 1.0001 0 0 0 31.552734 11.259766L31.607422 11.207031L31.775391 11.037109L32.507812 10.306641C32.921215 9.8932381 33.431172 9.6910625 33.927734 9.6894531 z M 37.427734 14.789062C37.924267 14.787463 38.407465 14.98641 38.763672 15.375 A 1.0001 1.0001 0 0 0 38.792969 15.40625C39.619774 16.233055 39.601398 17.449695 38.824219 18.162109 A 1.0001 1.0001 0 0 0 38.792969 18.193359L34.59375 22.392578 A 1.0001 1.0001 0 0 0 34.5625 22.423828C33.850085 23.201008 32.633445 23.219383 31.806641 22.392578C30.979836 21.565773 30.998211 20.349133 31.775391 19.636719 A 1.0001 1.0001 0 0 0 31.806641 19.607422L36.007812 15.40625C36.421216 14.992848 36.931202 14.790706 37.427734 14.789062 z M 40.228516 20.390625C40.725048 20.389025 41.206293 20.587974 41.5625 20.976562 A 1.0001 1.0001 0 0 0 41.59375 21.007812C42.420555 21.834618 42.40218 23.051257 41.625 23.763672 A 1.0001 1.0001 0 0 0 41.582031 23.802734L38.193359 27.292969C37.366555 28.119774 36.133445 28.119774 35.306641 27.292969C34.479836 26.466164 34.498211 25.249524 35.275391 24.537109 A 1.0001 1.0001 0 0 0 35.306641 24.507812L36.037109 23.775391L38.806641 21.007812C39.220043 20.59441 39.731983 20.392267 40.228516 20.390625 z" />
</svg>