<?xml version="1.0" encoding="utf-8"?>
<svg xmlns="http://www.w3.org/2000/svg" viewBox="0 0 50 50" width="515" height="515">
  <path d="M6 6L6 18C5.996094 18.359375 6.183594 18.695313 6.496094 18.878906C6.808594 19.058594 7.191406 19.058594 7.503906 18.878906C7.816406 18.695313 8.003906 18.359375 8 18L8 9.414063L17.292969 18.707031C17.457031 18.878906 17.675781 18.984375 17.90625 19.011719C17.941406 19.011719 17.972656 19.015625 18.007813 19.015625C18.042969 19.015625 18.074219 19.011719 18.109375 19.011719C18.140625 19.007813 18.175781 19.003906 18.207031 18.996094C18.574219 18.925781 18.867188 18.65625 18.972656 18.296875C19.078125 17.9375 18.976563 17.550781 18.707031 17.292969L9.414063 8L18 8C18.359375 8.003906 18.695313 7.816406 18.878906 7.503906C19.058594 7.191406 19.058594 6.808594 18.878906 6.496094C18.695313 6.183594 18.359375 5.996094 18 6 Z M 32 6C31.640625 5.996094 31.304688 6.183594 31.121094 6.496094C30.941406 6.808594 30.941406 7.191406 31.121094 7.503906C31.304688 7.816406 31.640625 8.003906 32 8L40.585938 8L31.292969 17.292969C31.03125 17.542969 30.925781 17.917969 31.019531 18.265625C31.109375 18.617188 31.382813 18.890625 31.734375 18.980469C32.082031 19.074219 32.457031 18.96875 32.707031 18.707031L42 9.414063L42 18C41.992188 18.523438 42.394531 18.964844 42.917969 19.011719C42.949219 19.011719 42.980469 19.015625 43.015625 19.015625C43.566406 19.003906 44.007813 18.550781 44 18L44 6 Z M 6.984375 30.984375C6.433594 30.996094 5.992188 31.449219 6 32L6 44L18 44C18.359375 44.003906 18.695313 43.816406 18.878906 43.503906C19.058594 43.191406 19.058594 42.808594 18.878906 42.496094C18.695313 42.183594 18.359375 41.996094 18 42L9.414063 42L18.707031 32.707031C19.003906 32.417969 19.089844 31.980469 18.929688 31.601563C18.769531 31.21875 18.394531 30.976563 17.980469 30.988281C17.71875 30.996094 17.472656 31.105469 17.292969 31.292969L8 40.585938L8 32C8.003906 31.730469 7.898438 31.46875 7.707031 31.277344C7.515625 31.085938 7.253906 30.980469 6.984375 30.984375 Z M 42.984375 30.984375C42.949219 30.988281 42.917969 30.988281 42.886719 30.992188C42.820313 31 42.753906 31.015625 42.6875 31.035156C42.273438 31.171875 41.992188 31.5625 42 32L42 40.585938L32.707031 31.292969C32.519531 31.097656 32.261719 30.992188 31.988281 30.988281C31.597656 30.992188 31.238281 31.222656 31.078125 31.582031C30.917969 31.941406 30.980469 32.363281 31.246094 32.65625C31.261719 32.671875 31.277344 32.691406 31.292969 32.707031L40.585938 42L32 42C31.460938 41.996094 31.015625 42.425781 30.996094 42.964844C30.976563 43.503906 31.390625 43.960938 31.929688 44C31.953125 44 31.976563 44 32 44L44 44L44 32C44.003906 31.730469 43.898438 31.46875 43.707031 31.277344C43.515625 31.085938 43.253906 30.980469 42.984375 30.984375Z" />
</svg>