<?xml version="1.0" encoding="utf-8"?>
<svg xmlns="http://www.w3.org/2000/svg" viewBox="0 0 50 50" width="515" height="515">
  <path d="M26.09375 3.59375C22.957031 3.59375 20.40625 6.175781 20.40625 9.3125C20.40625 11.964844 22.226563 14.1875 24.6875 14.8125C23.578125 14.949219 22.515625 15.417969 21.6875 16.28125C21.675781 16.292969 21.667969 16.300781 21.65625 16.3125L11.96875 26L5 26C1.886719 26 -0.492188 28.90625 0.125 32L2.71875 44.15625L2.71875 44.21875L2.75 44.21875C3.058594 45.84375 4.472656 47 6.09375 47C8.277344 47 9.871094 44.953125 9.46875 42.8125C9.46875 42.800781 9.46875 42.792969 9.46875 42.78125L7.34375 33L9.1875 33C9.074219 33.316406 9 33.648438 9 34C9 35.644531 10.355469 37 12 37L21 37C21.265625 37.007813 21.527344 36.90625 21.71875 36.71875L31.21875 27.1875L33.03125 28.125L33.15625 28.1875L33.15625 28.15625C33.640625 28.445313 34.164063 28.59375 34.6875 28.59375C35.453125 28.59375 36.183594 28.347656 36.71875 27.8125L39.4375 25.0625C39.472656 25.117188 39.515625 25.171875 39.5625 25.21875L43.03125 28.6875C43.421875 29.074219 44.046875 29.074219 44.4375 28.6875L46.28125 26.84375L47.1875 27.78125L48.625 26.40625L47.6875 25.4375L49.75 23.375C50.136719 22.984375 50.136719 22.359375 49.75 21.96875L46.28125 18.5C46.234375 18.441406 46.183594 18.390625 46.125 18.34375C45.929688 18.21875 45.699219 18.160156 45.46875 18.1875C45.230469 18.214844 45.007813 18.324219 44.84375 18.5L43.5 19.84375C43.566406 19.03125 43.332031 18.207031 42.71875 17.59375C42.078125 16.953125 41.1875 16.707031 40.34375 16.8125L41.71875 15.4375C41.914063 15.25 42.023438 14.988281 42.023438 14.71875C42.023438 14.449219 41.914063 14.1875 41.71875 14L38.25 10.53125C38.210938 10.484375 38.171875 10.445313 38.125 10.40625C37.898438 10.25 37.613281 10.191406 37.34375 10.25C37.152344 10.292969 36.980469 10.390625 36.84375 10.53125L34.8125 12.5625L33.8125 11.5L32.375 12.875L33.40625 13.96875L31.53125 15.84375C31.144531 16.234375 31.144531 16.859375 31.53125 17.25L35 20.71875C35.097656 20.816406 35.214844 20.890625 35.34375 20.9375L34.625 21.6875L29.09375 16.28125C28.421875 15.609375 27.601563 15.199219 26.75 14.96875C29.589844 14.648438 31.8125 12.230469 31.8125 9.3125C31.8125 6.175781 29.230469 3.59375 26.09375 3.59375 Z M 26.09375 5.59375C28.148438 5.59375 29.8125 7.257813 29.8125 9.3125C29.8125 11.367188 28.148438 13 26.09375 13C24.039063 13 22.40625 11.367188 22.40625 9.3125C22.40625 7.257813 24.039063 5.59375 26.09375 5.59375 Z M 37.53125 12.65625L39.59375 14.71875L35.6875 18.59375L33.65625 16.5625 Z M 25.375 16.71875C26.199219 16.71875 27.023438 17.054688 27.6875 17.71875L33.90625 23.8125C34.296875 24.199219 34.921875 24.199219 35.3125 23.8125L40.09375 19C40.390625 18.703125 40.984375 18.703125 41.28125 19C41.570313 19.289063 41.625 19.886719 41.28125 20.3125C41.273438 20.324219 41.261719 20.332031 41.25 20.34375L35.28125 26.40625C35.21875 26.46875 34.921875 26.59375 34.6875 26.59375C34.453125 26.59375 34.242188 26.527344 34.15625 26.46875C34.125 26.445313 34.09375 26.425781 34.0625 26.40625L27.5625 23.09375C27.175781 22.902344 26.710938 22.976563 26.40625 23.28125L26.34375 23.34375L26.28125 23.28125L19.6875 29.875C18.722656 30.550781 17.496094 31 16.5 31L6.09375 31C5.792969 31.003906 5.507813 31.140625 5.316406 31.378906C5.128906 31.613281 5.058594 31.921875 5.125 32.21875L7.53125 43.1875L7.53125 43.21875C7.710938 44.261719 7.097656 45 6.09375 45C5.339844 45 4.808594 44.582031 4.6875 43.84375C4.6875 43.824219 4.6875 43.800781 4.6875 43.78125L2.0625 31.59375L2.09375 31.59375C1.710938 29.6875 3.113281 28 5 28L12.40625 28C12.664063 27.996094 12.910156 27.898438 13.09375 27.71875L23.09375 17.71875C23.105469 17.707031 23.113281 17.699219 23.125 17.6875C23.734375 17.042969 24.550781 16.71875 25.375 16.71875 Z M 45.5625 20.625L47.625 22.65625L43.71875 26.5625L41.6875 24.5 Z M 27.3125 25.21875L29.34375 26.25L20.5625 35L12 35C11.445313 35 11 34.554688 11 34C11 33.445313 11.445313 33 12 33L19 33C19.265625 33.007813 19.527344 32.90625 19.71875 32.71875L21.25 31.21875C21.441406 31.0625 21.636719 30.894531 21.8125 30.71875Z" />
</svg>