<?xml version="1.0" encoding="utf-8"?>
<svg xmlns="http://www.w3.org/2000/svg" viewBox="0 0 50 50" width="515" height="515">
  <path d="M0.8125 7C0.335938 7.089844 -0.0078125 7.511719 0 8L0 42C0 42.550781 0.449219 43 1 43L49 43C49.550781 43 50 42.550781 50 42L50 8C50 7.96875 50 7.9375 50 7.90625C49.953125 7.390625 49.519531 6.996094 49 7L1 7C0.96875 7 0.9375 7 0.90625 7C0.875 7 0.84375 7 0.8125 7 Z M 2 9L48 9L48 41L2 41 Z M 25 11.59375L24.375 12.84375L23 13.03125L24 14L23.78125 15.375L25 14.75L26.21875 15.375L26 14L27 13.03125L25.625 12.84375 Z M 19.09375 13.375L18.46875 14.625L17.09375 14.8125L18.09375 15.78125L17.84375 17.15625L19.09375 16.5L20.3125 17.15625L20.09375 15.78125L21.09375 14.8125L19.71875 14.625 Z M 30.90625 13.375L30.28125 14.625L28.90625 14.8125L29.90625 15.78125L29.6875 17.15625L30.90625 16.5L32.15625 17.15625L31.90625 15.78125L32.90625 14.8125L31.53125 14.625 Z M 14.875 17.25L14.28125 18.46875L12.90625 18.6875L13.90625 19.65625L13.65625 21.03125L14.875 20.375L16.125 21.03125L15.875 19.65625L16.875 18.6875L15.5 18.46875 Z M 35.125 17.25L34.5 18.46875L33.125 18.6875L34.125 19.65625L33.875 21.03125L35.125 20.375L36.34375 21.03125L36.09375 19.65625L37.09375 18.6875L35.71875 18.46875 Z M 13.5 23.09375L12.875 24.34375L11.5 24.5625L12.5 25.53125L12.25 26.90625L13.5 26.25L14.71875 26.90625L14.5 25.53125L15.46875 24.5625L14.09375 24.34375 Z M 36.5 23.09375L35.90625 24.34375L34.53125 24.5625L35.5 25.53125L35.28125 26.90625L36.5 26.25L37.75 26.90625L37.5 25.53125L38.5 24.5625L37.125 24.34375 Z M 14.875 28.28125L14.28125 29.53125L12.90625 29.71875L13.90625 30.6875L13.65625 32.0625L14.875 31.40625L16.125 32.0625L15.875 30.6875L16.875 29.71875L15.5 29.53125 Z M 35.125 28.28125L34.5 29.53125L33.125 29.71875L34.125 30.6875L33.875 32.0625L35.125 31.40625L36.34375 32.0625L36.09375 30.6875L37.09375 29.71875L35.71875 29.53125 Z M 19.09375 32.1875L18.46875 33.4375L17.09375 33.65625L18.09375 34.625L17.84375 35.96875L19.09375 35.34375L20.3125 35.96875L20.09375 34.625L21.09375 33.65625L19.71875 33.4375 Z M 30.90625 32.1875L30.28125 33.4375L28.90625 33.65625L29.90625 34.625L29.6875 35.96875L30.90625 35.34375L32.15625 35.96875L31.90625 34.625L32.90625 33.65625L31.53125 33.4375 Z M 25 34.625L24.375 35.875L23 36.0625L24 37.03125L23.78125 38.40625L25 37.75L26.21875 38.40625L26 37.03125L27 36.0625L25.625 35.875Z" />
</svg>