<?xml version="1.0" encoding="utf-8"?>
<svg xmlns="http://www.w3.org/2000/svg" viewBox="0 0 50 50" width="515" height="515">
  <path d="M26.1875 3.25C25.9375 3.292969 25.714844 3.425781 25.5625 3.625L6.5 27.375C6.257813 27.675781 6.210938 28.085938 6.378906 28.433594C6.546875 28.78125 6.898438 29 7.28125 29L17.75 29L12.75 45.4375C12.566406 45.910156 12.765625 46.441406 13.210938 46.679688C13.65625 46.917969 14.207031 46.789063 14.5 46.375L33.5 22.625C33.742188 22.324219 33.789063 21.914063 33.621094 21.566406C33.453125 21.21875 33.101563 21 32.71875 21L22.625 21L27.28125 4.53125C27.371094 4.222656 27.308594 3.886719 27.109375 3.632813C26.910156 3.378906 26.601563 3.238281 26.28125 3.25C26.25 3.25 26.21875 3.25 26.1875 3.25 Z M 40.3125 4C39.9375 4.070313 39.632813 4.347656 39.53125 4.71875L36.03125 16.71875C35.875 17.253906 36.183594 17.8125 36.71875 17.96875C37.253906 18.125 37.8125 17.816406 37.96875 17.28125L38.625 15L43.375 15L44.03125 17.28125C44.1875 17.816406 44.746094 18.125 45.28125 17.96875C45.816406 17.8125 46.125 17.253906 45.96875 16.71875L42.46875 4.71875C42.34375 4.289063 41.949219 3.996094 41.5 4L40.5 4C40.46875 4 40.4375 4 40.40625 4C40.375 4 40.34375 4 40.3125 4 Z M 41 6.875L42.78125 13L39.21875 13 Z M 24.03125 8.71875L20.3125 21.71875C20.222656 22.023438 20.285156 22.351563 20.472656 22.601563C20.664063 22.855469 20.964844 23.003906 21.28125 23L30.625 23L16.1875 41.09375L20.09375 28.28125C20.183594 27.976563 20.121094 27.648438 19.933594 27.398438C19.742188 27.144531 19.441406 26.996094 19.125 27L9.375 27Z" />
</svg>