<?xml version="1.0" encoding="utf-8"?>
<svg xmlns="http://www.w3.org/2000/svg" viewBox="0 0 50 50" width="515" height="515">
  <path d="M30.9375 1C30.492188 1.019531 29.9375 1.230469 29.625 1.65625C29.601563 1.6875 29.582031 1.71875 29.5625 1.75L22.78125 13.8125L22.71875 13.90625C22.164063 14.691406 21.992188 15.636719 22.125 16.5625L1.625 39.125C1.613281 39.136719 1.605469 39.144531 1.59375 39.15625C0.523438 40.375 0.929688 42.167969 2.0625 43.3125C2.074219 43.3125 2.082031 43.3125 2.09375 43.3125L6.6875 47.90625C7.257813 48.476563 7.953125 48.855469 8.6875 48.96875C9.421875 49.082031 10.234375 48.914063 10.84375 48.375C10.855469 48.375 10.863281 48.375 10.875 48.375L33.4375 27.875C34.367188 28.003906 35.308594 27.832031 36.09375 27.28125C36.113281 27.265625 36.136719 27.265625 36.15625 27.25L36.21875 27.21875L48.25 20.4375C48.28125 20.417969 48.3125 20.398438 48.34375 20.375C48.765625 20.0625 48.980469 19.507813 49 19.0625C49.019531 18.617188 48.902344 18.222656 48.75 17.8125C48.445313 16.992188 47.921875 16.121094 47.21875 15.125C45.8125 13.132813 43.703125 10.734375 41.46875 8.5C39.234375 6.265625 36.867188 4.1875 34.875 2.78125C33.878906 2.078125 33.007813 1.554688 32.1875 1.25C31.777344 1.097656 31.382813 0.980469 30.9375 1 Z M 31.15625 3.03125C31.234375 3.042969 31.308594 3.054688 31.5 3.125C32.019531 3.316406 32.800781 3.757813 33.71875 4.40625C35.554688 5.703125 37.886719 7.761719 40.0625 9.9375C42.238281 12.113281 44.296875 14.414063 45.59375 16.25C46.242188 17.167969 46.683594 17.980469 46.875 18.5C46.945313 18.691406 46.957031 18.765625 46.96875 18.84375L35.125 25.53125C35.082031 25.558594 35.039063 25.589844 35 25.625C34.683594 25.867188 34.140625 25.953125 33.5625 25.84375C33.503906 25.816406 33.4375 25.796875 33.375 25.78125C32.871094 25.652344 32.363281 25.394531 31.9375 24.96875L25.03125 18.0625C24.054688 17.078125 23.902344 15.625 24.375 15C24.410156 14.972656 24.441406 14.941406 24.46875 14.90625 Z M 22.9375 18.625C23.136719 18.921875 23.367188 19.210938 23.625 19.46875L30.53125 26.375C30.792969 26.636719 31.074219 26.863281 31.375 27.0625L9.53125 46.90625C9.445313 46.984375 9.277344 47.042969 9 47C8.722656 46.957031 8.371094 46.777344 8.09375 46.5L3.5 41.90625C2.941406 41.339844 2.9375 40.644531 3.09375 40.46875 Z M 20.0625 26.9375C19.292969 26.9375 18.519531 27.230469 17.9375 27.8125C17.515625 28.234375 16.238281 29.511719 15.8125 29.9375C14.648438 31.101563 14.648438 33.023438 15.8125 34.1875C16.976563 35.351563 18.898438 35.351563 20.0625 34.1875C20.484375 33.765625 21.761719 32.488281 22.1875 32.0625C23.351563 30.898438 23.351563 28.976563 22.1875 27.8125C21.605469 27.230469 20.832031 26.9375 20.0625 26.9375 Z M 20.0625 28.9375C20.316406 28.9375 20.582031 29.019531 20.78125 29.21875C21.179688 29.617188 21.179688 30.257813 20.78125 30.65625C20.355469 31.082031 19.082031 32.355469 18.65625 32.78125C18.257813 33.179688 17.617188 33.179688 17.21875 32.78125C16.820313 32.382813 16.820313 31.742188 17.21875 31.34375C17.640625 30.921875 18.917969 29.648438 19.34375 29.21875C19.542969 29.019531 19.808594 28.9375 20.0625 28.9375Z" />
</svg>