<?xml version="1.0" encoding="utf-8"?>
<svg xmlns="http://www.w3.org/2000/svg" viewBox="0 0 50 50" width="515" height="515">
  <path d="M31.1875 3.25C30.9375 3.292969 30.714844 3.425781 30.5625 3.625L11.5 27.375C11.257813 27.675781 11.210938 28.085938 11.378906 28.433594C11.546875 28.78125 11.898438 29 12.28125 29L22.75 29L17.75 45.4375C17.566406 45.910156 17.765625 46.441406 18.210938 46.679688C18.65625 46.917969 19.207031 46.789063 19.5 46.375L38.5 22.625C38.742188 22.324219 38.789063 21.914063 38.621094 21.566406C38.453125 21.21875 38.101563 21 37.71875 21L27.625 21L32.28125 4.53125C32.371094 4.222656 32.308594 3.886719 32.109375 3.632813C31.910156 3.378906 31.601563 3.238281 31.28125 3.25C31.25 3.25 31.21875 3.25 31.1875 3.25 Z M 29.03125 8.71875L25.3125 21.71875C25.222656 22.023438 25.285156 22.351563 25.472656 22.601563C25.664063 22.855469 25.964844 23.003906 26.28125 23L35.625 23L21.1875 41.09375L25.09375 28.28125C25.183594 27.976563 25.121094 27.648438 24.933594 27.398438C24.742188 27.144531 24.441406 26.996094 24.125 27L14.375 27Z" />
</svg>