<?xml version="1.0" encoding="utf-8"?>
<svg xmlns="http://www.w3.org/2000/svg" viewBox="0 0 50 50" width="515" height="515">
  <path d="M25 2C21.226923 2 18.560787 4.8881554 16.867188 7.5664062C15.553819 9.6433604 14.916702 11.332162 14.626953 12.154297C14.354885 12.127327 14.34393 12.099609 13.900391 12.099609C12.333724 12.099609 9.8105161 12.244564 7.3769531 13.150391C4.9433902 14.056217 2.5424754 15.819811 1.640625 18.919922L1.6386719 18.923828L1.6367188 18.929688C0.51650631 22.90644 2.405248 26.374001 4.4453125 28.71875C6.0178855 30.526188 7.4293902 31.52645 8.1367188 32C7.8753398 32.801223 7.3888559 34.431524 7.2265625 36.794922C7.0154762 39.868866 7.5158961 43.72835 10.558594 46.265625C10.558594 46.265625 10.560547 46.267578 10.560547 46.267578C12.05758 47.531646 13.82436 48 15.5 48C20.262169 48 24.239046 44.83734 25.046875 44.173828C25.896625 44.753104 30.194213 47.599609 35 47.599609C36.539449 47.599609 38.066364 47.252271 39.445312 46.335938C41.004809 45.332504 41.915505 43.792477 42.378906 42.167969C42.843035 40.540909 42.896638 38.805171 42.785156 37.205078C42.605934 34.632717 42.076359 32.76357 41.837891 31.974609C42.488167 31.48974 43.912086 30.381275 45.494141 28.476562C47.493298 26.069682 49.392096 22.648757 48.363281 18.933594L48.363281 18.931641L48.363281 18.929688C47.436005 15.626359 44.453494 13.918351 41.65625 13.056641C39.01997 12.244517 36.543161 12.129599 35.400391 12.117188C35.132268 11.336299 34.501453 9.6169476 33.169922 7.515625C31.486735 4.8593452 28.810101 2 25 2 z M 25 4C27.789899 4 29.963656 6.1922173 31.480469 8.5859375C32.997282 10.979658 33.744141 13.392578 33.744141 13.392578L33.960938 14.099609L35.099609 14.099609C35.979434 14.099609 38.590604 14.20546 41.068359 14.96875C43.5446 15.731573 45.761345 17.072974 46.435547 19.466797C47.206732 22.251633 45.755921 25.031099 43.955078 27.199219C42.154236 29.367338 40.128906 30.779297 40.128906 30.779297L39.513672 31.205078L39.751953 31.916016C39.751953 31.916016 40.587027 34.443936 40.789062 37.34375C40.890082 38.793657 40.825322 40.3212 40.455078 41.619141C40.084832 42.917081 39.445382 43.961519 38.359375 44.658203L38.353516 44.662109L38.345703 44.667969C37.327047 45.347073 36.257143 45.599609 35 45.599609C30.7 45.599609 25.568359 42.177734 25.568359 42.177734L24.943359 41.744141L24.359375 42.232422C24.359375 42.232422 19.632624 46 15.5 46C14.177778 46 12.947398 45.668532 11.845703 44.736328L11.84375 44.734375L11.839844 44.732422C9.4846093 42.769729 9.0337944 39.681941 9.2226562 36.931641C9.4115182 34.18134 10.236328 31.949219 10.236328 31.949219L10.525391 31.175781L9.8203125 30.746094C9.8203125 30.746094 7.7650137 29.486501 5.9550781 27.40625C4.1467267 25.32782 2.6856228 22.598343 3.5605469 19.478516C3.5605469 19.478516 3.5625 19.476562 3.5625 19.476562C4.2612152 17.07854 6.008615 15.794254 8.0742188 15.025391C10.140656 14.256217 12.467057 14.099609 13.900391 14.099609C14.726317 14.099609 15.103516 14.179687 15.103516 14.179688L15.984375 14.357422L16.253906 13.5C16.253906 13.5 17.027194 11.056515 18.558594 8.6347656C20.089994 6.2130165 22.273077 4 25 4 z M 25 18C22.3 18 24.5 25.099609 24.5 25.099609C24.5 25.099609 18.599219 20.700781 17.699219 23.300781C16.799219 25.900781 24.300781 25.900391 24.300781 25.900391C24.300781 25.900391 18.6 30.200391 20.5 31.900391C22.4 33.600391 25 26.5 25 26.5C25 26.5 27.4 33.600391 29.5 31.900391C31.6 30.200391 25.699219 25.900391 25.699219 25.900391C25.699219 25.900391 33.300781 25.900781 32.300781 23.300781C31.300781 20.800781 25.5 25.099609 25.5 25.099609C25.5 25.099609 27.7 18 25 18 z" />
</svg>