<?xml version="1.0" encoding="utf-8"?>
<svg xmlns="http://www.w3.org/2000/svg" viewBox="0 0 50 50" width="515" height="515">
  <path d="M16 0L16 12L24 12L24 22L6 22L6 35L0 35L0 47L14 47L14 35L8 35L8 24L24 24L24 35L18 35L18 47L32 47L32 35L26 35L26 24L42 24L42 35L36 35L36 47L50 47L50 35L44 35L44 22L26 22L26 12L34 12L34 0 Z M 18 2L32 2L32 10L25.21875 10C25.117188 9.972656 25.011719 9.960938 24.90625 9.96875C24.875 9.976563 24.84375 9.988281 24.8125 10L18 10 Z M 2 37L12 37L12 45L2 45 Z M 20 37L30 37L30 45L20 45 Z M 38 37L48 37L48 45L38 45Z" />
</svg>