<?xml version="1.0" encoding="utf-8"?>
<svg xmlns="http://www.w3.org/2000/svg" viewBox="0 0 50 50" width="515" height="515">
  <path d="M3 6C1.3545455 6 0 7.3545455 0 9L0 15C0 16.645455 1.3545455 18 3 18L11 18C12.645455 18 14 16.645455 14 15L14 13L20 13L20 15C20 16.645455 21.354545 18 23 18L31 18C32.645455 18 34 16.645455 34 15L34 13L39 13C40.654545 13 42 14.345455 42 16L42 19L39 19C37.354545 19 36 20.354545 36 22L36 28C36 29.645455 37.354545 31 39 31L42 31L42 34C42 35.654545 40.654545 37 39 37L34 37L34 35C34 33.354545 32.645455 32 31 32L23 32C21.354545 32 20 33.354545 20 35L20 37L14 37L14 35C14 33.354545 12.645455 32 11 32L3 32C1.3545455 32 0 33.354545 0 35L0 41C0 42.645455 1.3545455 44 3 44L11 44C12.645455 44 14 42.645455 14 41L14 39L20 39L20 41C20 42.645455 21.354545 44 23 44L31 44C32.645455 44 34 42.645455 34 41L34 39L39 39C41.745455 39 44 36.745455 44 34L44 31L47 31C48.645455 31 50 29.645455 50 28L50 22C50 20.354545 48.645455 19 47 19L44 19L44 16C44 13.254545 41.745455 11 39 11L34 11L34 9C34 7.3545455 32.645455 6 31 6L23 6C21.354545 6 20 7.3545455 20 9L20 11L14 11L14 9C14 7.3545455 12.645455 6 11 6L3 6 z M 3 8L11 8C11.554545 8 12 8.4454545 12 9L12 15C12 15.554545 11.554545 16 11 16L3 16C2.4454545 16 2 15.554545 2 15L2 9C2 8.4454545 2.4454545 8 3 8 z M 23 8L31 8C31.554545 8 32 8.4454545 32 9L32 15C32 15.554545 31.554545 16 31 16L23 16C22.445455 16 22 15.554545 22 15L22 9C22 8.4454545 22.445455 8 23 8 z M 39 21L47 21C47.554545 21 48 21.445455 48 22L48 28C48 28.554545 47.554545 29 47 29L39 29C38.445455 29 38 28.554545 38 28L38 22C38 21.445455 38.445455 21 39 21 z M 3 34L11 34C11.554545 34 12 34.445455 12 35L12 41C12 41.554545 11.554545 42 11 42L3 42C2.4454545 42 2 41.554545 2 41L2 35C2 34.445455 2.4454545 34 3 34 z M 23 34L31 34C31.554545 34 32 34.445455 32 35L32 41C32 41.554545 31.554545 42 31 42L23 42C22.445455 42 22 41.554545 22 41L22 35C22 34.445455 22.445455 34 23 34 z" />
</svg>