<?xml version="1.0" encoding="utf-8"?>
<svg xmlns="http://www.w3.org/2000/svg" viewBox="0 0 50 50" width="515" height="515">
  <path d="M37.310547 0.37304688 A 1.0001 1.0001 0 0 0 37.029297 0.4140625L10.865234 8.1933594 A 1.0001 1.0001 0 0 0 10.193359 8.8652344L2.4140625 35.029297 A 1.0001 1.0001 0 0 0 3.5976562 36.289062L6 35.734375L6 41.1875C4.8425715 41.604757 4 42.706491 4 44C4 44.57803 4.1850925 45.011271 4.3964844 45.492188C4.6078762 45.973104 4.8732018 46.462865 5.1347656 46.914062C5.6578934 47.816459 6.1777344 48.568359 6.1777344 48.568359L7 49.761719L7.8222656 48.568359C7.8222656 48.568359 8.3421066 47.816459 8.8652344 46.914062C9.1267982 46.462865 9.3921238 45.973104 9.6035156 45.492188C9.8149075 45.011271 10 44.57803 10 44C10 42.706491 9.1574285 41.604757 8 41.1875L8 35.273438L15.986328 33.429688C17.263927 38.199335 20.129681 42.226489 24.773438 46.814453 A 1.0001 1.0001 0 0 0 26.183594 46.810547C31.790964 41.206098 37.558306 38.966175 40.580078 39.8125 A 1.0001 1.0001 0 0 0 41.8125 38.580078C40.966139 35.558993 43.205217 29.792829 48.810547 24.185547 A 1.0001 1.0001 0 0 0 48.814453 22.775391C44.226663 18.131809 40.199547 15.262576 35.429688 13.984375L38.289062 1.5976562 A 1.0001 1.0001 0 0 0 37.310547 0.37304688 z M 35.953125 2.8203125L30.115234 28.115234L4.8203125 33.953125L11.955078 9.9550781L35.953125 2.8203125 z M 34.980469 15.929688C39.066567 17.04233 42.579693 19.472519 46.720703 23.552734C41.86425 28.656618 39.395753 33.783905 39.824219 37.824219C35.782915 37.39615 30.654603 39.864995 25.550781 44.720703C21.471585 40.580389 19.044019 37.066221 17.931641 32.980469L31.175781 29.923828 A 1.0001 1.0001 0 0 0 31.923828 29.175781L34.980469 15.929688 z M 7 43C7.5545455 43 8 43.445455 8 44C8 43.97197 7.935092 44.315291 7.7714844 44.6875C7.6078762 45.059709 7.3732018 45.498854 7.1347656 45.910156C7.0674809 46.026222 7.0660933 46.015482 7 46.125C6.9339067 46.015482 6.9325191 46.026222 6.8652344 45.910156C6.6267982 45.498854 6.3921238 45.059709 6.2285156 44.6875C6.0649075 44.315291 6 43.97197 6 44C6 43.445455 6.4454545 43 7 43 z" />
</svg>