<?xml version="1.0" encoding="utf-8"?>
<svg xmlns="http://www.w3.org/2000/svg" viewBox="0 0 50 50" width="515" height="515">
  <path d="M33 2C32.0625 2 31.085938 2.324219 30.3125 3C29.539063 3.675781 29 4.734375 29 6L29 18.59375C28.421875 18.257813 27.765625 18 27 18C25.753906 18 24.710938 18.542969 24.03125 19.3125C23.855469 19.511719 23.753906 19.75 23.625 19.96875C22.960938 19.410156 22.105469 19 21 19C19.625 19 18.496094 19.847656 17.875 20.96875C17.726563 21.238281 17.671875 21.574219 17.5625 21.875C16.90625 21.378906 16.089844 21 15 21C13.402344 21 12.246094 21.949219 11.6875 23C11.128906 24.050781 11 25.179688 11 26L11 26.84375C10.996094 26.894531 10.996094 26.949219 11 27L11 39C11 43.957031 15.042969 48 20 48L30.46875 48C33.007813 48 35.359375 46.625 36.59375 44.40625L39.875 38.5C39.875 38.488281 39.875 38.480469 39.875 38.46875C40.300781 37.621094 40.976563 35.855469 41 33.90625C41.027344 31.425781 39.941406 29.710938 38.8125 28.71875C38.246094 28.222656 37.679688 27.90625 37.21875 27.6875C37.105469 27.632813 37.101563 27.636719 37 27.59375L37 5.9375C37 4.699219 36.460938 3.628906 35.6875 2.96875C34.914063 2.308594 33.9375 2 33 2 Z M 33 4C33.460938 4 34 4.179688 34.375 4.5C34.75 4.820313 35 5.253906 35 5.9375L35 26.875L31 25.5625L31 22C31.007813 21.9375 31.007813 21.875 31 21.8125L31 6C31 5.265625 31.25 4.824219 31.625 4.5C32 4.175781 32.539063 4 33 4 Z M 27 20C27.699219 20 28.132813 20.246094 28.46875 20.625C28.757813 20.953125 28.953125 21.40625 29 21.8125C28.996094 21.855469 28.996094 21.894531 29 21.9375C29 21.957031 29 21.980469 29 22L29 24.90625L26.875 24.21875C26.289063 24.027344 25.707031 23.980469 25.125 24.03125C25.082031 24.035156 25.042969 24.058594 25 24.0625L25 22C25.007813 21.9375 25.007813 21.875 25 21.8125C25.046875 21.40625 25.242188 20.953125 25.53125 20.625C25.867188 20.246094 26.300781 20 27 20 Z M 21 21C21.90625 21 22.285156 21.25 22.5625 21.59375C22.839844 21.9375 23 22.46875 23 23L23 24.78125C22.1875 25.316406 21.542969 26.105469 21.21875 27.09375C20.785156 28.414063 21.023438 29.78125 21.71875 30.875C21.496094 30.957031 21.253906 31 21 31C19.882813 31 19 30.117188 19 29L19 25.125C19.003906 25.082031 19.003906 25.042969 19 25C19 23.746094 19.246094 22.625 19.625 21.9375C20.003906 21.25 20.375 21 21 21 Z M 15 23C16.035156 23 16.417969 23.28125 16.65625 23.59375C16.894531 23.90625 17 24.417969 17 25C17 25.03125 17 25.0625 17 25.09375L17 30C17 31.117188 16.117188 32 15 32C13.882813 32 13 31.117188 13 30L13 27C13 26.96875 13 26.9375 13 26.90625L13 26C13 25.417969 13.121094 24.535156 13.4375 23.9375C13.753906 23.339844 14.097656 23 15 23 Z M 25.28125 26C25.605469 25.972656 25.953125 26.015625 26.28125 26.125L35.625 29.1875C35.644531 29.199219 35.667969 29.210938 35.6875 29.21875C35.71875 29.230469 35.75 29.242188 35.78125 29.25C35.925781 29.292969 36.097656 29.335938 36.375 29.46875C36.710938 29.628906 37.109375 29.875 37.5 30.21875C38.285156 30.90625 39.023438 31.945313 39 33.875C38.984375 35.34375 38.367188 37.015625 38.09375 37.5625L34.84375 43.4375C33.960938 45.027344 32.285156 46 30.46875 46L20 46C16.121094 46 13 42.878906 13 39L13 33.4375C13.59375 33.785156 14.265625 34 15 34C16.464844 34 17.742188 33.183594 18.4375 32C19.136719 32.601563 20.011719 33 21 33C21.804688 33 22.558594 32.757813 23.1875 32.34375C23.464844 32.507813 23.777344 32.644531 24.09375 32.75L30.1875 34.75L31.0625 37.3125C31.128906 37.703125 31.417969 38.015625 31.796875 38.113281C32.179688 38.210938 32.582031 38.078125 32.828125 37.769531C33.074219 37.460938 33.117188 37.039063 32.9375 36.6875L31.9375 33.65625C31.847656 33.351563 31.613281 33.105469 31.3125 33L24.71875 30.84375C24.515625 30.777344 24.328125 30.667969 24.15625 30.5625C24.039063 30.292969 23.8125 30.085938 23.53125 30C23.039063 29.375 22.855469 28.542969 23.125 27.71875C23.449219 26.730469 24.308594 26.078125 25.28125 26Z" />
</svg>