<?xml version="1.0" encoding="utf-8"?>
<svg xmlns="http://www.w3.org/2000/svg" viewBox="0 0 50 50" width="515" height="515">
  <path d="M16.048828 8C15.289415 8 14.50325 8.2290675 13.904297 8.8164062 A 1.0001 1.0001 0 0 0 13.902344 8.8183594C13.928554 8.7925953 7.0547569 15.537211 4.4667969 18.076172C3.1190041 19.398446 2.4213621 20.380436 2.078125 21.34375C1.7392434 22.29484 1.7884543 23.085908 1.7519531 23.888672C1.6661631 24.854094 1.2986239 28.867067 1.0039062 32.083984 A 1.0003147 1.0003147 0 0 0 2.9960938 32.267578C3.2910974 29.047537 3.6574791 25.032087 3.7441406 24.056641 A 1.0001 1.0001 0 0 0 3.7480469 24.017578C3.7927783 23.090979 3.7626746 22.572061 3.9609375 22.015625C4.1592004 21.459189 4.6289334 20.720632 5.8691406 19.503906C8.4569077 16.965135 15.145161 10.401243 15.304688 10.244141C15.427733 10.123479 15.725241 10 16.048828 10C16.372415 10 16.669922 10.123479 16.792969 10.244141C16.902196 10.35125 16.949297 10.474963 16.925781 10.794922C16.902261 11.114881 16.765677 11.55665 16.585938 11.945312C16.445813 12.247814 16.34101 12.533081 15.878906 13.199219C15.430558 13.845527 14.638208 14.817772 13.291016 16.1875C9.7014972 16.974176 7 20.180155 7 24C7 28.406433 10.593567 32 15 32C16.64523 32 18.175359 31.497814 19.449219 30.640625 A 1.0001 1.0001 0 0 0 19.707031 30.671875C20.017881 30.671875 19.986249 30.638955 20.158203 30.849609C20.481347 31.245066 20.513229 31.460978 20.498047 31.585938C20.482867 31.710895 20.396833 31.917137 19.986328 32.228516C19.477468 32.613773 14.027948 36.75953 13.486328 37.162109 A 1.0001 1.0001 0 0 0 13.470703 37.173828C11.344905 38.823221 9.5138445 39.272993 6.0898438 38.873047 A 1.0001 1.0001 0 1 0 5.8574219 40.859375C9.5734211 41.293429 12.225117 40.670513 14.695312 38.753906C15.366541 38.254544 20.715533 34.187452 21.195312 33.824219 A 1.0001 1.0001 0 0 0 21.195312 33.822266C21.869808 33.310644 22.383854 32.639417 22.482422 31.828125C22.580992 31.016833 22.241887 30.238528 21.707031 29.583984C21.545808 29.386475 21.351656 29.236885 21.148438 29.107422C21.963659 28.12818 22.549683 26.952991 22.824219 25.664062C23.045914 25.523691 23.446604 25.294599 24.117188 25.126953C24.982102 24.910725 26.020023 24.882422 27.171875 25.648438C27.448016 26.958035 28.047965 28.148925 28.880859 29.138672C28.698883 29.262049 28.526881 29.406025 28.380859 29.585938C27.848456 30.240531 27.511638 31.016381 27.609375 31.826172C27.707115 32.635963 28.218634 33.310184 28.890625 33.822266C29.371359 34.188446 34.684415 38.248035 35.359375 38.751953C37.819336 40.668959 40.462447 41.293588 44.162109 40.859375 A 1.0001 1.0001 0 1 0 43.929688 38.873047C40.52335 39.272834 38.70393 38.824777 36.587891 37.175781 A 1.0001 1.0001 0 0 0 36.572266 37.162109C36.03547 36.761772 30.601514 32.611286 30.101562 32.230469C29.693554 31.919551 29.609013 31.712397 29.59375 31.585938C29.57849 31.459477 29.612 31.243062 29.933594 30.847656C30.104208 30.637443 30.066842 30.671875 30.375 30.671875 A 1.0001 1.0001 0 0 0 30.572266 30.654297C30.572729 30.654606 30.573756 30.653988 30.574219 30.654297C31.843589 31.502253 33.364468 32 35 32C39.406433 32 43 28.406433 43 24C43 20.240682 40.38142 17.081733 36.876953 16.232422C35.499106 14.835201 34.69765 13.878501 34.234375 13.234375C33.763018 12.579012 33.636379 12.272896 33.490234 11.951172C33.312092 11.559515 33.174351 11.116591 33.150391 10.794922C33.126431 10.473252 33.173891 10.349857 33.28125 10.244141C33.403431 10.123829 33.695549 10 34.015625 10C34.335701 10 34.629772 10.123829 34.751953 10.244141C34.794983 10.286521 41.568441 16.962864 44.144531 19.501953C45.378895 20.718587 45.845311 21.45662 46.042969 22.013672C46.240626 22.570724 46.211683 23.091461 46.255859 24.017578 A 1.0001 1.0001 0 0 0 46.259766 24.056641C46.345546 25.033554 46.709888 29.047383 47.003906 32.267578 A 1.0002257 1.0002257 0 1 0 48.996094 32.085938C48.702119 28.866135 48.33617 24.839946 48.251953 23.880859C48.216693 23.080881 48.26364 22.290423 47.927734 21.34375C47.586142 20.381052 46.890464 19.400491 45.548828 18.078125C42.972872 15.53921 36.245222 8.9059831 36.15625 8.8183594C35.559431 8.2306714 34.773549 8 34.015625 8C33.257701 8 32.473772 8.2306714 31.876953 8.8183594C31.265312 9.4206432 31.10496 10.254779 31.15625 10.943359C31.20754 11.63194 31.428111 12.251953 31.667969 12.779297C31.804824 13.080573 32.054185 13.627707 32.611328 14.402344C32.931661 14.847726 33.405254 15.417186 33.988281 16.072266C32.369195 16.280068 30.898541 16.970417 29.728516 18L20.271484 18C19.127461 16.993298 17.695611 16.312301 16.119141 16.087891C16.732967 15.391529 17.19622 14.808723 17.521484 14.339844C18.07063 13.548232 18.307514 12.985657 18.400391 12.785156C18.64565 12.254819 18.869188 11.631698 18.919922 10.941406C18.970652 10.251115 18.806132 9.4172975 18.193359 8.8164062C17.594407 8.2290675 16.808241 8 16.048828 8 z M 15 18C18.325553 18 21 20.674447 21 24C21 27.325553 18.325553 30 15 30C11.674447 30 9 27.325553 9 24C9 20.674447 11.674447 18 15 18 z M 35 18C38.325553 18 41 20.674447 41 24C41 27.325553 38.325553 30 35 30C31.674447 30 29 27.325553 29 24C29 20.674447 31.674447 18 35 18 z M 21.914062 20L28.085938 20C27.502059 21.004159 27.143869 22.147282 27.044922 23.363281C26.6767 23.229705 26.310906 23.128376 25.955078 23.074219C25.740979 23.041633 25.530203 23.022313 25.324219 23.013672C24.706265 22.98775 24.130778 23.061056 23.632812 23.185547C23.386405 23.247149 23.173161 23.329108 22.958984 23.408203C22.865752 22.175339 22.505116 21.016499 21.914062 20 z" />
</svg>