<?xml version="1.0" encoding="utf-8"?>
<svg xmlns="http://www.w3.org/2000/svg" viewBox="0 0 50 50" width="515" height="515">
  <path d="M13.917969 3 A 1.0001 1.0001 0 0 0 12.982422 3.6484375L2.0644531 32.648438 A 1.0001 1.0001 0 0 0 3 34L7.5332031 34 A 1.0001 1.0001 0 0 0 8.4726562 33.347656L11.1875 26L20.794922 26L23.339844 32.880859 A 1.0004623 1.0004623 0 0 0 23.353516 32.912109L20.064453 41.648438 A 1.0001 1.0001 0 0 0 21 43L25.533203 43 A 1.0001 1.0001 0 0 0 26.472656 42.347656L29.1875 35L38.794922 35L41.511719 42.347656 A 1.0001 1.0001 0 0 0 42.449219 43L46.984375 43 A 1.0001 1.0001 0 0 0 47.919922 41.648438L37.001953 12.648438 A 1.0001 1.0001 0 0 0 36.066406 12L31.917969 12 A 1.0001 1.0001 0 0 0 30.982422 12.648438L26.6875 24.058594L19.001953 3.6484375 A 1.0001 1.0001 0 0 0 18.066406 3L13.917969 3 z M 14.609375 5L17.373047 5L25.566406 26.761719 A 1.0003362 1.0003362 0 0 0 25.623047 26.884766L24.427734 30.056641L22.429688 24.652344 A 1.0001 1.0001 0 0 0 21.492188 24L10.492188 24 A 1.0001 1.0001 0 0 0 9.5546875 24.652344L6.8378906 32L4.4453125 32L14.609375 5 z M 16.013672 9 A 1.0001 1.0001 0 0 0 15.052734 9.6582031L11.052734 20.675781 A 1.0001 1.0001 0 0 0 11.992188 22.017578L19.992188 22.017578 A 1.0001 1.0001 0 0 0 20.931641 20.675781L16.931641 9.6582031 A 1.0001 1.0001 0 0 0 16.013672 9 z M 15.992188 12.929688L18.566406 20.017578L13.417969 20.017578L15.992188 12.929688 z M 32.609375 14L35.375 14L45.539062 41L43.146484 41L40.429688 33.652344 A 1.0001 1.0001 0 0 0 39.492188 33L28.492188 33 A 1.0001 1.0001 0 0 0 27.554688 33.652344L24.837891 41L22.445312 41L32.609375 14 z M 34.013672 18 A 1.0001 1.0001 0 0 0 33.052734 18.658203L29.052734 29.675781 A 1.0001 1.0001 0 0 0 29.992188 31.017578L37.992188 31.017578 A 1.0001 1.0001 0 0 0 38.931641 29.675781L34.931641 18.658203 A 1.0001 1.0001 0 0 0 34.013672 18 z M 33.992188 21.929688L36.566406 29.017578L31.417969 29.017578L33.992188 21.929688 z M 20.984375 45 A 1.0001 1.0001 0 1 0 20.984375 47L46.984375 47 A 1.0001 1.0001 0 1 0 46.984375 45L20.984375 45 z" />
</svg>