<?xml version="1.0" encoding="utf-8"?>
<svg xmlns="http://www.w3.org/2000/svg" viewBox="0 0 50 50" width="515" height="515">
  <path d="M17 1.933594L16.652344 2.0625C16.652344 2.0625 11.320313 4.039063 2.773438 6.023438L2 6.203125L2 31C2 35.582031 5.765625 39.6875 9.351563 42.761719C12.933594 45.832031 16.503906 47.871094 16.503906 47.871094L17 48.152344L17.496094 47.871094C17.496094 47.871094 21.066406 45.832031 24.652344 42.761719C28.234375 39.6875 32 35.582031 32 31L32 6.203125L31.226563 6.023438C22.679688 4.039063 17.347656 2.0625 17.347656 2.0625 Z M 40.953125 2C40.609375 2.019531 40.296875 2.210938 40.125 2.511719L36.425781 9.109375L36.46875 9.046875C36.125 9.558594 36 10.132813 36 10.699219C36 10.714844 36 10.730469 36 10.746094L36.964844 31.214844L35.3125 31.777344L35.25 31.804688C34.554688 32.152344 34 32.800781 34 33.699219L34 35C34 35.523438 34.191406 36.054688 34.566406 36.433594C34.945313 36.808594 35.476563 37 36 37L38 37L38 41.457031C37.441406 42.128906 37.078125 42.96875 37.058594 43.90625C37.003906 46.101563 38.761719 47.949219 40.957031 48C43.15625 48.050781 45.003906 46.292969 45.054688 44.097656C45.082031 43.03125 44.671875 42.046875 44 41.3125L44 37L46 37C46.523438 37 47.054688 36.808594 47.433594 36.433594C47.808594 36.054688 48 35.523438 48 35L48 33.699219C48 32.800781 47.4375 32.054688 46.542969 31.828125L46.636719 31.859375L45.03125 31.285156L46 10.644531C46 10.632813 46 10.617188 46 10.597656C46 10.03125 45.875 9.457031 45.53125 8.945313L45.566406 9.007813L41.871094 2.507813C41.683594 2.179688 41.328125 1.984375 40.953125 2 Z M 17 4.054688C17.453125 4.21875 22.289063 5.921875 30 7.765625L30 31C30 34.417969 26.765625 38.3125 23.347656 41.238281C20.328125 43.828125 17.660156 45.429688 17 45.816406C16.339844 45.429688 13.671875 43.828125 10.652344 41.238281C7.234375 38.3125 4 34.417969 4 31L4 7.765625C11.710938 5.921875 16.546875 4.21875 17 4.054688 Z M 41.003906 5.03125L43.828125 9.992188C43.839844 10.015625 43.855469 10.035156 43.867188 10.054688C43.925781 10.140625 44 10.367188 44 10.597656L43.066406 30.578125L41.011719 29.84375L38.933594 30.546875L38 10.699219C38 10.464844 38.074219 10.242188 38.132813 10.15625C38.148438 10.132813 38.160156 10.113281 38.171875 10.089844 Z M 17 5.902344L16.585938 6.089844C16.585938 6.089844 12.285156 8.039063 6.824219 9.015625L6 9.164063L6 30C6 33.636719 8.75 36.769531 11.335938 39.074219C13.921875 41.375 16.5 42.863281 16.5 42.863281L17 43.15625L17.5 42.863281C17.5 42.863281 20.078125 41.375 22.664063 39.074219C25.25 36.769531 28 33.636719 28 30L28 9.164063L27.175781 9.015625C21.714844 8.039063 17.414063 6.089844 17.414063 6.089844 Z M 17 8.070313C17.535156 8.308594 21.121094 9.777344 26 10.765625L26 21.234375L8.40625 10.675781C13.070313 9.691406 16.480469 8.300781 17 8.070313 Z M 8 12.765625L26 23.566406L26 26.234375L8 15.433594 Z M 8 17.765625L26 28.566406L26 30C26 30.375 25.941406 30.757813 25.847656 31.144531L8 20.433594 Z M 8 22.765625L25.113281 33.03125C24.238281 34.660156 22.820313 36.257813 21.335938 37.578125C19.171875 39.503906 17.425781 40.511719 17 40.765625C16.574219 40.511719 14.828125 39.503906 12.664063 37.578125C10.25 35.429688 8 32.5625 8 30 Z M 40.988281 31.957031L46 33.753906L46 35L36 35L36 33.699219C36 33.78125 36.054688 33.675781 36.121094 33.613281 Z M 40 37L42 37L42 40.121094C41.726563 40.050781 41.445313 40.007813 41.152344 40C40.75 39.992188 40.367188 40.0625 40 40.164063 Z M 41.105469 42C42.21875 42.027344 43.082031 42.933594 43.054688 44.046875C43.027344 45.164063 42.125 46.027344 41.007813 46C39.890625 45.972656 39.03125 45.070313 39.058594 43.953125C39.082031 42.835938 39.988281 41.976563 41.105469 42Z" />
</svg>