<?xml version="1.0" encoding="utf-8"?>
<svg xmlns="http://www.w3.org/2000/svg" viewBox="0 0 50 50" width="515" height="515">
  <path d="M32.40625 0C31.359375 -0.00390625 30.363281 0.558594 29.65625 1.34375C29.203125 1.847656 28.835938 2.441406 28.5625 3.125C28.5 2.976563 28.453125 2.828125 28.375 2.6875C27.871094 1.804688 27 1.101563 25.9375 1C24.875 0.898438 23.917969 1.449219 23.25 2.21875C22.929688 2.585938 22.671875 3 22.46875 3.46875C22.039063 3.183594 21.558594 3 21 3C19.335938 2.996094 18.175781 4.484375 18.03125 6.15625C17.679688 6.023438 17.304688 5.957031 16.90625 6.03125C16.140625 6.164063 15.570313 6.742188 15.28125 7.375C15.03125 7.917969 14.980469 8.523438 15.0625 9.15625C14.703125 9.015625 14.3125 8.957031 13.90625 9.03125C13.140625 9.164063 12.570313 9.742188 12.28125 10.375C11.992188 11.007813 11.941406 11.730469 12.09375 12.46875C12.25 13.207031 12.585938 13.839844 13.09375 14.3125C13.601563 14.785156 14.328125 15.109375 15.09375 14.96875C15.855469 14.828125 16.429688 14.257813 16.71875 13.625C16.96875 13.082031 17.023438 12.476563 16.9375 11.84375C17.296875 11.984375 17.6875 12.042969 18.09375 11.96875C18.855469 11.828125 19.429688 11.257813 19.71875 10.625C19.839844 10.359375 19.898438 10.074219 19.9375 9.78125C20.265625 9.925781 20.613281 10 21 10C21.875 10 22.597656 9.597656 23.125 8.96875C23.628906 9.515625 24.289063 9.925781 25.0625 10C26.125 10.097656 27.082031 9.550781 27.75 8.78125C27.949219 8.554688 28.125 8.296875 28.28125 8.03125C28.355469 8.277344 28.429688 8.523438 28.53125 8.75C29.03125 9.855469 29.941406 10.773438 31.15625 10.96875C32.371094 11.167969 33.535156 10.554688 34.34375 9.65625C35.152344 8.757813 35.691406 7.535156 35.90625 6.125C36.121094 4.714844 35.96875 3.355469 35.46875 2.25C34.96875 1.144531 34.058594 0.230469 32.84375 0.03125C32.691406 0.0078125 32.554688 0 32.40625 0 Z M 32.21875 2C32.328125 1.984375 32.429688 1.984375 32.53125 2C32.929688 2.066406 33.3125 2.40625 33.625 3.09375C33.9375 3.78125 34.097656 4.753906 33.9375 5.8125C33.777344 6.875 33.335938 7.796875 32.84375 8.34375C32.351563 8.890625 31.898438 9.066406 31.5 9C31.488281 9 31.480469 9 31.46875 9C31.070313 8.933594 30.6875 8.59375 30.375 7.90625C30.0625 7.21875 29.902344 6.246094 30.0625 5.1875C30.222656 4.125 30.660156 3.207031 31.15625 2.65625C31.527344 2.246094 31.890625 2.046875 32.21875 2 Z M 25.5 3C25.582031 2.984375 25.671875 2.992188 25.75 3C26.054688 3.027344 26.359375 3.222656 26.625 3.6875C26.890625 4.152344 27.042969 4.851563 26.96875 5.625C26.890625 6.398438 26.605469 7.058594 26.25 7.46875C25.894531 7.878906 25.550781 8.027344 25.25 8C24.945313 7.972656 24.640625 7.777344 24.375 7.3125C24.109375 6.847656 23.953125 6.148438 24.03125 5.375C24.109375 4.601563 24.394531 3.941406 24.75 3.53125C25.015625 3.222656 25.257813 3.050781 25.5 3 Z M 21 5C21.425781 5 22 5.550781 22 6.5C22 7.445313 21.425781 8 21 8C20.566406 8 20 7.445313 20 6.5C20 5.550781 20.574219 5 21 5 Z M 17.25 8C17.261719 8 17.269531 8 17.28125 8C17.3125 7.996094 17.367188 8.003906 17.53125 8.15625C17.695313 8.308594 17.894531 8.578125 17.96875 8.9375C18.042969 9.292969 17.988281 9.632813 17.90625 9.8125C17.824219 9.992188 17.75 9.996094 17.71875 10C17.691406 10.003906 17.632813 9.996094 17.46875 9.84375C17.304688 9.691406 17.105469 9.421875 17.03125 9.0625C16.957031 8.703125 17.011719 8.367188 17.09375 8.1875C17.175781 8.007813 17.21875 8.003906 17.25 8 Z M 14.25 11C14.261719 11 14.269531 11 14.28125 11C14.3125 10.996094 14.367188 11.003906 14.53125 11.15625C14.695313 11.308594 14.894531 11.578125 14.96875 11.9375C15.042969 12.292969 14.988281 12.632813 14.90625 12.8125C14.824219 12.992188 14.75 12.996094 14.71875 13C14.691406 13.003906 14.632813 12.996094 14.46875 12.84375C14.304688 12.691406 14.105469 12.421875 14.03125 12.0625C13.957031 11.703125 14.011719 11.367188 14.09375 11.1875C14.175781 11.007813 14.21875 11.003906 14.25 11 Z M 27.84375 12C26.015625 12 22.777344 12.398438 19.8125 13.9375C16.847656 15.476563 14.136719 18.332031 14 22.875C13.867188 27.261719 15.207031 30.210938 16.46875 32.96875C17.730469 35.726563 18.90625 38.296875 18.90625 42.375C18.90625 44.152344 19.433594 45.976563 20.46875 47.4375C21.503906 48.898438 23.144531 50 25.15625 50C27.792969 50 29.6875 49.144531 30.8125 47.75C31.9375 46.355469 32.257813 44.601563 32.3125 42.84375C32.414063 39.488281 30.910156 37.414063 29.59375 35.78125C28.277344 34.148438 27.1875 32.9375 27.1875 30.5625C27.1875 27.519531 28.59375 26.246094 30.28125 24.65625C31.96875 23.066406 34 21.15625 34 17.71875C34 15.335938 32.921875 13.714844 31.59375 12.90625C30.265625 12.097656 28.828125 12 27.84375 12 Z M 27.84375 14C28.648438 14 29.753906 14.132813 30.5625 14.625C31.371094 15.117188 32 15.863281 32 17.71875C32 20.417969 30.617188 21.578125 28.90625 23.1875C27.195313 24.796875 25.1875 26.847656 25.1875 30.5625C25.1875 33.589844 26.773438 35.433594 28.0625 37.03125C29.351563 38.628906 30.398438 40.003906 30.3125 42.78125C30.265625 44.320313 29.960938 45.617188 29.25 46.5C28.539063 47.382813 27.398438 48 25.15625 48C23.84375 48 22.847656 47.347656 22.09375 46.28125C21.339844 45.214844 20.90625 43.746094 20.90625 42.375C20.90625 37.894531 19.539063 34.878906 18.28125 32.125C17.023438 29.371094 15.878906 26.875 16 22.90625C16.117188 19.097656 18.171875 17.007813 20.71875 15.6875C23.265625 14.367188 26.320313 14 27.84375 14Z" />
</svg>