<?xml version="1.0" encoding="utf-8"?>
<svg xmlns="http://www.w3.org/2000/svg" viewBox="0 0 50 50" width="515" height="515">
  <path d="M17.59375 0C17.445313 0 17.308594 0.0078125 17.15625 0.03125C15.941406 0.230469 15.03125 1.144531 14.53125 2.25C14.03125 3.355469 13.878906 4.714844 14.09375 6.125C14.308594 7.535156 14.847656 8.757813 15.65625 9.65625C16.464844 10.554688 17.628906 11.167969 18.84375 10.96875C20.058594 10.773438 20.96875 9.855469 21.46875 8.75C21.570313 8.523438 21.644531 8.277344 21.71875 8.03125C21.875 8.296875 22.050781 8.554688 22.25 8.78125C22.917969 9.550781 23.875 10.097656 24.9375 10C25.710938 9.925781 26.371094 9.515625 26.875 8.96875C27.402344 9.597656 28.125 10 29 10C29.386719 10 29.734375 9.925781 30.0625 9.78125C30.101563 10.074219 30.160156 10.359375 30.28125 10.625C30.570313 11.257813 31.144531 11.828125 31.90625 11.96875C32.3125 12.042969 32.703125 11.984375 33.0625 11.84375C32.976563 12.476563 33.03125 13.082031 33.28125 13.625C33.570313 14.257813 34.144531 14.828125 34.90625 14.96875C35.671875 15.105469 36.398438 14.785156 36.90625 14.3125C37.414063 13.839844 37.75 13.207031 37.90625 12.46875C38.058594 11.730469 38.007813 11.007813 37.71875 10.375C37.429688 9.742188 36.859375 9.164063 36.09375 9.03125C35.6875 8.957031 35.296875 9.015625 34.9375 9.15625C35.019531 8.523438 34.96875 7.917969 34.71875 7.375C34.429688 6.742188 33.859375 6.164063 33.09375 6.03125C32.695313 5.957031 32.320313 6.023438 31.96875 6.15625C31.820313 4.484375 30.664063 3 29 3C28.441406 3 27.960938 3.183594 27.53125 3.46875C27.328125 3 27.070313 2.585938 26.75 2.21875C26.082031 1.449219 25.125 0.898438 24.0625 1C23 1.101563 22.128906 1.804688 21.625 2.6875C21.546875 2.828125 21.5 2.976563 21.4375 3.125C21.164063 2.441406 20.796875 1.847656 20.34375 1.34375C19.636719 0.558594 18.640625 -0.00390625 17.59375 0 Z M 17.46875 2C17.867188 1.933594 18.347656 2.105469 18.84375 2.65625C19.339844 3.207031 19.777344 4.128906 19.9375 5.1875C20.097656 6.246094 19.9375 7.21875 19.625 7.90625C19.3125 8.59375 18.929688 8.933594 18.53125 9C18.519531 9 18.511719 9 18.5 9C18.101563 9.066406 17.648438 8.890625 17.15625 8.34375C16.664063 7.796875 16.222656 6.875 16.0625 5.8125C15.902344 4.753906 16.0625 3.78125 16.375 3.09375C16.6875 2.40625 17.070313 2.066406 17.46875 2 Z M 24.25 3C24.554688 2.972656 24.894531 3.121094 25.25 3.53125C25.605469 3.941406 25.890625 4.597656 25.96875 5.375C26.046875 6.148438 25.890625 6.847656 25.625 7.3125C25.359375 7.777344 25.054688 7.972656 24.75 8C24.449219 8.027344 24.105469 7.878906 23.75 7.46875C23.394531 7.058594 23.109375 6.398438 23.03125 5.625C22.957031 4.851563 23.109375 4.152344 23.375 3.6875C23.640625 3.222656 23.945313 3.027344 24.25 3 Z M 29 5C29.429688 5 30 5.550781 30 6.5C30 7.449219 29.429688 8 29 8C28.570313 8 28 7.449219 28 6.5C28 5.550781 28.570313 5 29 5 Z M 32.71875 8C32.730469 8 32.738281 8 32.75 8C32.78125 8.003906 32.824219 8.007813 32.90625 8.1875C32.988281 8.367188 33.042969 8.703125 32.96875 9.0625C32.894531 9.421875 32.695313 9.691406 32.53125 9.84375C32.382813 9.984375 32.316406 10.003906 32.28125 10C32.277344 10 32.253906 10 32.25 10C32.21875 9.992188 32.167969 9.976563 32.09375 9.8125C32.011719 9.632813 31.957031 9.292969 32.03125 8.9375C32.105469 8.578125 32.304688 8.308594 32.46875 8.15625C32.632813 8.003906 32.6875 7.996094 32.71875 8 Z M 35.71875 11C35.730469 11 35.738281 11 35.75 11C35.78125 11.003906 35.824219 11.007813 35.90625 11.1875C35.988281 11.367188 36.042969 11.703125 35.96875 12.0625C35.894531 12.421875 35.695313 12.691406 35.53125 12.84375C35.382813 12.984375 35.316406 13.003906 35.28125 13C35.277344 13 35.253906 13 35.25 13C35.21875 12.992188 35.167969 12.976563 35.09375 12.8125C35.011719 12.632813 34.957031 12.292969 35.03125 11.9375C35.105469 11.578125 35.304688 11.308594 35.46875 11.15625C35.632813 11.003906 35.6875 10.996094 35.71875 11 Z M 22.15625 12C21.171875 12 19.734375 12.097656 18.40625 12.90625C17.078125 13.714844 16 15.335938 16 17.71875C16 21.15625 18.03125 23.066406 19.71875 24.65625C21.40625 26.246094 22.8125 27.519531 22.8125 30.5625C22.8125 32.9375 21.722656 34.148438 20.40625 35.78125C19.089844 37.414063 17.585938 39.488281 17.6875 42.84375C17.742188 44.601563 18.0625 46.355469 19.1875 47.75C20.3125 49.144531 22.207031 50 24.84375 50C26.855469 50 28.496094 48.898438 29.53125 47.4375C30.566406 45.976563 31.09375 44.152344 31.09375 42.375C31.09375 38.296875 32.269531 35.726563 33.53125 32.96875C34.792969 30.210938 36.132813 27.261719 36 22.875C35.863281 18.332031 33.152344 15.476563 30.1875 13.9375C27.222656 12.398438 23.984375 12 22.15625 12 Z M 22.15625 14C23.679688 14 26.734375 14.367188 29.28125 15.6875C31.828125 17.007813 33.882813 19.097656 34 22.90625C34.121094 26.875 32.976563 29.371094 31.71875 32.125C30.460938 34.878906 29.09375 37.894531 29.09375 42.375C29.09375 43.746094 28.628906 45.214844 27.875 46.28125C27.121094 47.347656 26.15625 48 24.84375 48C22.601563 48 21.460938 47.382813 20.75 46.5C20.039063 45.617188 19.734375 44.320313 19.6875 42.78125C19.601563 40.003906 20.648438 38.628906 21.9375 37.03125C23.226563 35.433594 24.8125 33.589844 24.8125 30.5625C24.8125 26.847656 22.804688 24.796875 21.09375 23.1875C19.382813 21.578125 18 20.417969 18 17.71875C18 15.863281 18.628906 15.117188 19.4375 14.625C20.246094 14.132813 21.351563 14 22.15625 14Z" />
</svg>