<?xml version="1.0" encoding="utf-8"?>
<svg xmlns="http://www.w3.org/2000/svg" viewBox="0 0 50 50" width="515" height="515">
  <path d="M35.03125 0C34.714844 0.0390625 34.4375 0.222656 34.28125 0.5L26.78125 13.9375C26.644531 14.183594 26.613281 14.476563 26.703125 14.746094C26.792969 15.011719 26.992188 15.230469 27.25 15.34375C27.25 15.34375 28.171875 15.722656 29.3125 16.09375L27.59375 19.03125C27.296875 18.601563 26.953125 18.25 26.59375 18C26.09375 17.652344 25.804688 17.613281 25.40625 17.46875C25.664063 16.804688 26 16.164063 26 15.40625C26 12.929688 24.4375 10.851563 22.28125 10.03125C22.292969 9.894531 22.3125 9.773438 22.3125 9.625C22.3125 5.394531 18.972656 1.90625 14.84375 1.90625C12.035156 1.90625 9.640625 3.578125 8.375 5.9375C5.722656 6.40625 3.6875 8.722656 3.6875 11.5625C3.6875 11.808594 3.722656 12.042969 3.75 12.28125C2.601563 13.640625 1.84375 15.375 1.84375 17.3125C1.84375 18.070313 2 18.753906 2.1875 19.40625C2.011719 19.960938 1.84375 20.535156 1.84375 21.15625C1.84375 21.667969 1.972656 22.132813 2.09375 22.59375C0.871094 23.660156 0 25.140625 0 26.90625C0 29.398438 1.574219 31.472656 3.75 32.28125C3.738281 32.421875 3.6875 32.542969 3.6875 32.6875C3.6875 35.859375 6.203125 38.46875 9.3125 38.46875C10.035156 38.46875 10.785156 38.570313 11.59375 38.46875C11.820313 38.441406 12.046875 38.332031 12.28125 38.25C12.597656 40.347656 12.6875 42.058594 12.53125 43.15625C12.335938 44.53125 11.941406 45.203125 11.5 45.6875C11.058594 46.171875 10.527344 46.425781 9.96875 46.84375C9.6875 47.054688 9.394531 47.351563 9.1875 47.78125C8.980469 48.210938 8.945313 48.726563 9.0625 49.21875C9.101563 49.601563 9.359375 49.929688 9.722656 50.058594C10.085938 50.1875 10.492188 50.09375 10.765625 49.824219C11.035156 49.550781 11.128906 49.144531 11 48.78125C10.957031 48.609375 10.972656 48.644531 10.96875 48.65625C10.964844 48.667969 11.019531 48.59375 11.1875 48.46875C11.523438 48.21875 12.265625 47.800781 12.96875 47.03125C13.671875 46.261719 14.292969 45.136719 14.53125 43.4375C14.6875 42.34375 14.679688 40.984375 14.5 39.34375C14.960938 39.488281 15.40625 39.539063 15.8125 39.53125C16.085938 39.527344 16.355469 39.507813 16.59375 39.46875C16.773438 43.621094 17.800781 45.921875 18.9375 47.28125C19.5625 48.027344 20.222656 48.511719 20.59375 48.8125C20.78125 48.964844 20.878906 49.058594 20.90625 49.09375C21.011719 49.570313 21.445313 49.898438 21.929688 49.875C22.417969 49.851563 22.816406 49.484375 22.875 49C22.875 48.574219 22.710938 48.152344 22.5 47.875C22.289063 47.597656 22.0625 47.429688 21.84375 47.25C21.402344 46.894531 20.960938 46.550781 20.5 46C19.714844 45.0625 18.984375 43.097656 18.75 39.71875C19.441406 39.847656 20.105469 39.835938 20.625 39.71875C20.863281 39.664063 21.0625 39.601563 21.25 39.53125C21.789063 39.859375 22.6875 40.316406 24.0625 40.78125C25.949219 41.417969 28.730469 42.046875 32.59375 42.25L32.65625 42.71875C32.660156 42.746094 32.652344 42.753906 32.65625 42.78125C32.851563 44.765625 32.675781 45.949219 32.40625 46.53125C32.132813 47.117188 31.878906 47.21875 31.46875 47.3125C31.058594 47.40625 30.527344 47.378906 29.9375 47.40625C29.640625 47.417969 29.277344 47.382813 28.84375 47.71875C28.410156 48.054688 28.257813 48.75 28.34375 49.1875C28.40625 49.648438 28.777344 50.003906 29.238281 50.046875C29.699219 50.09375 30.132813 49.8125 30.28125 49.375C30.652344 49.378906 31.1875 49.445313 31.90625 49.28125C32.734375 49.089844 33.703125 48.480469 34.21875 47.375C34.734375 46.269531 34.886719 44.761719 34.65625 42.53125C34.65625 42.511719 34.65625 42.488281 34.65625 42.46875L34.625 42.3125C34.867188 42.316406 35.097656 42.3125 35.34375 42.3125C35.96875 42.3125 36.550781 42.300781 37.125 42.28125C37.125 42.648438 37.136719 42.964844 37.125 43.5C37.089844 45.382813 37.183594 46.589844 37.46875 47.5C37.753906 48.410156 38.394531 49.070313 39.0625 49.28125C39.730469 49.492188 40.242188 49.421875 40.53125 49.4375C40.820313 49.453125 40.804688 49.417969 40.96875 49.625C41.3125 50.058594 41.945313 50.125 42.375 49.78125C42.808594 49.4375 42.875 48.804688 42.53125 48.375C41.988281 47.699219 41.171875 47.46875 40.625 47.4375C40.078125 47.40625 39.738281 47.402344 39.65625 47.375C39.574219 47.347656 39.539063 47.4375 39.375 46.90625C39.210938 46.375 39.09375 45.3125 39.125 43.53125C39.136719 42.957031 39.125 42.597656 39.125 42.1875C42.421875 41.9375 44.78125 41.363281 46.4375 40.78125C47.550781 40.390625 48.320313 40 48.84375 39.6875C49.367188 39.375 49.6875 39.09375 49.6875 39.09375C50.046875 38.761719 50.109375 38.21875 49.84375 37.8125L44.3125 29.28125C44.328125 29.277344 44.359375 29.285156 44.375 29.28125C45.273438 28.921875 45.894531 28.574219 46.3125 28.28125C46.730469 27.988281 46.96875 27.6875 46.96875 27.6875C47.253906 27.367188 47.304688 26.902344 47.09375 26.53125L41.03125 16.125C41.582031 15.945313 42.101563 15.761719 42.4375 15.625C42.640625 15.542969 42.796875 15.457031 42.90625 15.40625C42.960938 15.382813 43 15.359375 43.03125 15.34375C43.046875 15.335938 43.054688 15.347656 43.0625 15.34375C43.070313 15.339844 43.09375 15.34375 43.09375 15.34375L42.625 14.4375L43.5 13.9375L36.03125 0.5C35.832031 0.144531 35.433594 -0.0507813 35.03125 0 Z M 35.15625 3.0625L41.25 13.9375C40.929688 14.0625 40.621094 14.167969 40.15625 14.3125C38.878906 14.707031 37.125 15.09375 35.25 15.09375C32.375 15.09375 30.183594 14.335938 29.09375 13.90625 Z M 14.84375 3.90625C17.847656 3.90625 20.3125 6.433594 20.3125 9.625C20.3125 9.890625 20.269531 10.195313 20.21875 10.53125C20.144531 11.0625 20.503906 11.5625 21.03125 11.65625C22.703125 11.96875 24 13.511719 24 15.40625C24 16.191406 23.757813 16.894531 23.375 17.5C23.203125 17.761719 23.164063 18.085938 23.269531 18.382813C23.375 18.675781 23.609375 18.90625 23.90625 19C24.359375 19.15625 24.9375 19.308594 25.4375 19.65625C25.917969 19.992188 26.25 20.378906 26.3125 21.21875L23.21875 26.53125C22.984375 26.925781 23.050781 27.425781 23.375 27.75C23.375 27.75 23.71875 28.097656 24.34375 28.46875C24.710938 28.6875 25.457031 28.941406 26.0625 29.1875L20.59375 37.625C20.464844 37.671875 20.359375 37.710938 20.1875 37.75C19.644531 37.871094 18.953125 37.882813 18.15625 37.375C18.136719 37.363281 18.113281 37.359375 18.09375 37.34375C18.082031 37.332031 18.074219 37.324219 18.0625 37.3125C18.042969 37.300781 18.019531 37.289063 18 37.28125C17.988281 37.28125 17.980469 37.28125 17.96875 37.28125C17.949219 37.269531 17.925781 37.257813 17.90625 37.25C17.894531 37.238281 17.886719 37.230469 17.875 37.21875C17.855469 37.21875 17.832031 37.21875 17.8125 37.21875C17.800781 37.207031 17.792969 37.199219 17.78125 37.1875C17.761719 37.1875 17.738281 37.1875 17.71875 37.1875C17.707031 37.1875 17.699219 37.1875 17.6875 37.1875C17.667969 37.1875 17.644531 37.1875 17.625 37.1875C17.59375 37.1875 17.5625 37.1875 17.53125 37.1875C17.4375 37.183594 17.34375 37.195313 17.25 37.21875C17.21875 37.226563 17.1875 37.238281 17.15625 37.25C17.15625 37.25 16.5 37.519531 15.78125 37.53125C15.0625 37.542969 14.503906 37.484375 14.09375 36.5625C14.085938 36.53125 14.074219 36.5 14.0625 36.46875C14.0625 36.457031 14.0625 36.449219 14.0625 36.4375C14.054688 36.402344 14.039063 36.378906 14.03125 36.34375C13.957031 35.945313 13.648438 35.628906 13.25 35.546875C12.851563 35.464844 12.445313 35.632813 12.21875 35.96875C11.960938 36.355469 11.808594 36.410156 11.34375 36.46875C10.878906 36.527344 10.164063 36.46875 9.3125 36.46875C7.324219 36.46875 5.6875 34.820313 5.6875 32.6875C5.6875 32.410156 5.722656 32.125 5.78125 31.84375C5.835938 31.582031 5.785156 31.308594 5.636719 31.085938C5.492188 30.863281 5.261719 30.707031 5 30.65625C3.320313 30.347656 2 28.804688 2 26.90625C2 25.53125 2.703125 24.355469 3.71875 23.6875C4.089844 23.429688 4.246094 22.957031 4.09375 22.53125C3.933594 22.09375 3.84375 21.628906 3.84375 21.15625C3.84375 20.65625 3.953125 20.167969 4.125 19.71875C4.199219 19.507813 4.199219 19.273438 4.125 19.0625C3.945313 18.476563 3.84375 17.90625 3.84375 17.3125C3.84375 15.699219 4.484375 14.253906 5.5 13.21875C5.730469 12.988281 5.835938 12.664063 5.78125 12.34375C5.730469 12.09375 5.6875 11.828125 5.6875 11.5625C5.6875 9.515625 7.214844 7.90625 9.09375 7.78125C9.464844 7.753906 9.789063 7.527344 9.9375 7.1875C10.820313 5.238281 12.667969 3.90625 14.84375 3.90625 Z M 31.40625 16.5C32.613281 16.769531 33.78125 17.09375 35.25 17.09375C36.640625 17.09375 37.871094 16.871094 39 16.625L44.90625 26.75C44.609375 26.941406 44.261719 27.183594 43.625 27.4375C42.105469 28.042969 39.484375 28.6875 35.28125 28.6875C31.960938 28.6875 29.636719 28.28125 28 27.8125C27.957031 27.800781 27.886719 27.792969 27.84375 27.78125C27.785156 27.753906 27.71875 27.734375 27.65625 27.71875C26.609375 27.390625 25.851563 27.011719 25.40625 26.75 Z M 28.03125 29.84375C29.820313 30.304688 32.105469 30.6875 35.28125 30.6875C38.394531 30.6875 40.539063 30.292969 42.28125 29.84375L47.625 38.0625C47.214844 38.296875 46.679688 38.589844 45.78125 38.90625C43.796875 39.605469 40.496094 40.3125 35.34375 40.3125C30.191406 40.3125 26.765625 39.578125 24.6875 38.875C23.222656 38.378906 23.074219 38.1875 22.75 37.96875Z" />
</svg>