<?xml version="1.0" encoding="utf-8"?>
<svg xmlns="http://www.w3.org/2000/svg" viewBox="0 0 50 50" width="515" height="515">
  <path d="M25 2C18.363281 2 13 7.363281 13 14L13 18L9 18C7.355469 18 6 19.355469 6 21L6 45C6 46.644531 7.355469 48 9 48L41 48C42.644531 48 44 46.644531 44 45L44 21C44 19.355469 42.644531 18 41 18L37 18L37 14C37 7.363281 31.636719 2 25 2 Z M 25 4C30.566406 4 35 8.433594 35 14L35 18L15 18L15 14C15 8.433594 19.433594 4 25 4 Z M 9 20L41 20C41.554688 20 42 20.445313 42 21L42 45C42 45.554688 41.554688 46 41 46L9 46C8.445313 46 8 45.554688 8 45L8 21C8 20.445313 8.445313 20 9 20 Z M 25 25C22.253906 25 20 27.253906 20 30L22 30C22 28.34375 23.34375 27 25 27C26.65625 27 28 28.34375 28 30C28 30.804688 27.8125 31.246094 27.5625 31.59375C27.3125 31.941406 26.96875 32.195313 26.53125 32.4375C26.09375 32.679688 25.59375 32.894531 25.09375 33.21875C24.59375 33.542969 24 34.183594 24 35L24 37L26 37L26 35C26 34.96875 25.90625 35.039063 26.15625 34.875C26.40625 34.710938 26.90625 34.496094 27.46875 34.1875C28.03125 33.878906 28.6875 33.472656 29.1875 32.78125C29.6875 32.089844 30 31.144531 30 30C30 27.253906 27.746094 25 25 25 Z M 24 38L24 40L26 40L26 38Z" />
</svg>