<?xml version="1.0" encoding="utf-8"?>
<svg xmlns="http://www.w3.org/2000/svg" viewBox="0 0 50 50" width="515" height="515">
  <path d="M25 0C20.308594 0 14.023438 1.300781 9.65625 5.28125C5.367188 9.1875 3.230469 15.753906 6.5 25.40625C6.292969 25.582031 6.089844 25.769531 5.90625 26C5.359375 26.695313 5 27.667969 5 28.8125C5 30.097656 5.507813 31.382813 6.3125 32.46875C6.976563 33.363281 7.933594 34.023438 9.03125 34.34375C10.53125 37.894531 12.417969 41.667969 14.9375 44.65625C17.539063 47.738281 20.886719 50 25 50C29.113281 50 32.460938 47.738281 35.0625 44.65625C37.582031 41.667969 39.46875 37.894531 40.96875 34.34375C42.066406 34.023438 43.023438 33.363281 43.6875 32.46875C44.492188 31.382813 45 30.097656 45 28.8125C45 27.144531 44.25 25.964844 43.375 25.21875C45.75 17.441406 45.425781 11.621094 43.15625 7.8125C40.976563 4.152344 36.96875 2.652344 32.59375 3.28125C30.484375 0.863281 27.25 0 25 0 Z M 25 2C26.8125 2 29.886719 2.878906 31.40625 4.90625L31.78125 5.40625L32.375 5.28125C36.375 4.539063 39.585938 5.707031 41.4375 8.8125C42.914063 11.292969 43.464844 15.191406 42.46875 20.46875C41.910156 20.515625 40.757813 20.566406 39.96875 20.625C39.414063 17.925781 37.714844 16.558594 36.1875 15.4375C34.539063 14.226563 33.03125 13.171875 32.15625 10.125L31.46875 7.78125L30.3125 9.9375C29.394531 11.640625 27.925781 12.6875 26.0625 13.46875C24.199219 14.25 21.980469 14.710938 19.78125 15.15625C17.582031 15.601563 15.398438 16.023438 13.5625 16.875C11.921875 17.636719 10.523438 18.835938 9.90625 20.625C9.066406 20.5625 7.78125 20.484375 7.21875 20.4375C5.988281 13.832031 7.890625 9.582031 11 6.75C14.808594 3.277344 20.691406 2 25 2 Z M 30.90625 12.28125C32.023438 14.703125 33.632813 16.027344 35 17.03125C36.472656 18.113281 37.535156 18.832031 37.96875 20.78125C33.1875 21.121094 27.386719 21.5 25 21.5C22.605469 21.5 16.785156 21.121094 12 20.78125C12.453125 19.847656 13.253906 19.222656 14.40625 18.6875C15.910156 17.992188 17.988281 17.570313 20.1875 17.125C22.386719 16.679688 24.71875 16.203125 26.84375 15.3125C28.417969 14.652344 29.769531 13.605469 30.90625 12.28125 Z M 7.6875 22.46875C11.804688 22.804688 21.558594 23.5 25 23.5C28.390625 23.5 37.835938 22.839844 42.0625 22.5C41.890625 23.199219 41.695313 23.914063 41.46875 24.65625C40.445313 25.03125 39.714844 25.882813 39.03125 26.84375C38.257813 27.929688 37.527344 29.226563 36.75 30.46875C35.972656 31.710938 35.140625 32.898438 34.25 33.71875C33.359375 34.539063 32.484375 35 31.40625 35C29.410156 35 28.472656 34.570313 27.71875 34.125C27.339844 33.902344 27.019531 33.667969 26.59375 33.4375C26.167969 33.207031 25.621094 33 25 33C24.378906 33 23.832031 33.207031 23.40625 33.4375C22.980469 33.667969 22.660156 33.902344 22.28125 34.125C21.527344 34.570313 20.589844 35 18.59375 35C17.515625 35 16.632813 34.539063 15.75 33.71875C14.867188 32.898438 14.050781 31.742188 13.28125 30.5C12.511719 29.257813 11.78125 27.933594 11 26.84375C10.445313 26.066406 9.851563 25.347656 9.09375 24.90625C8.910156 24.636719 8.605469 24.472656 8.28125 24.46875C8.054688 23.78125 7.859375 23.113281 7.6875 22.46875 Z M 15 26.09375C15 29.09375 16.992188 31 18.59375 31C20.195313 31 22 29.699219 22 28.5C22 28.5 19.898438 26.792969 15 26.09375 Z M 35 26.09375C30.101563 26.792969 28 28.5 28 28.5C28 29.699219 29.804688 31 31.40625 31C33.007813 31 35 29.09375 35 26.09375 Z M 41.9375 26.625C42.554688 27 43 27.519531 43 28.8125C43 29.527344 42.664063 30.515625 42.09375 31.28125C41.523438 32.046875 40.761719 32.53125 40.09375 32.59375L39.5 32.65625L39.28125 33.21875C37.800781 36.773438 35.90625 40.527344 33.53125 43.34375C31.15625 46.160156 28.386719 48 25 48C21.613281 48 18.84375 46.160156 16.46875 43.34375C14.09375 40.527344 12.199219 36.773438 10.71875 33.21875L10.5 32.65625L9.90625 32.59375C9.238281 32.53125 8.476563 32.046875 7.90625 31.28125C7.335938 30.515625 7 29.527344 7 28.8125C7 28.054688 7.191406 27.605469 7.46875 27.25C7.640625 27.03125 7.867188 26.851563 8.125 26.6875C8.480469 26.933594 8.90625 27.375 9.375 28.03125C10.050781 28.976563 10.757813 30.234375 11.5625 31.53125C12.367188 32.828125 13.285156 34.148438 14.40625 35.1875C15.527344 36.226563 16.921875 37 18.59375 37C20.898438 37 22.335938 36.429688 23.28125 35.875C23.753906 35.597656 24.113281 35.332031 24.375 35.1875C24.636719 35.042969 24.769531 35 25 35C25.230469 35 25.363281 35.042969 25.625 35.1875C25.886719 35.332031 26.246094 35.597656 26.71875 35.875C27.664063 36.429688 29.101563 37 31.40625 37C33.078125 37 34.496094 36.226563 35.625 35.1875C36.753906 34.148438 37.65625 32.828125 38.46875 31.53125C39.28125 30.234375 39.980469 28.949219 40.65625 28C41.140625 27.320313 41.585938 26.855469 41.9375 26.625Z" />
</svg>