<?xml version="1.0" encoding="utf-8"?>
<svg xmlns="http://www.w3.org/2000/svg" viewBox="0 0 50 50" width="515" height="515">
  <path d="M3 8C1.355469 8 0 9.355469 0 11L0 35C0 36.644531 1.355469 38 3 38L7.09375 38C7.570313 40.835938 10.035156 43 13 43C15.964844 43 18.429688 40.835938 18.90625 38L28.1875 38C28.914063 38 29.558594 37.683594 30.0625 37.21875C30.578125 37.679688 31.238281 38 32 38L33.09375 38C33.570313 40.835938 36.035156 43 39 43C42.300781 43 45 40.300781 45 37C45 33.699219 42.300781 31 39 31C36.035156 31 33.570313 33.164063 33.09375 36L32 36C31.832031 36 31.5625 35.875 31.34375 35.65625C31.125 35.4375 31 35.167969 31 35L31 16C31 15.832031 31.125 15.5625 31.34375 15.34375C31.5625 15.125 31.832031 15 32 15L40 15C40.824219 15 41.972656 15.925781 42.6875 16.8125L42.8125 17L38 17C36.398438 17 35 18.292969 35 20L35 24C35 24.832031 35.375 25.5625 35.90625 26.09375C36.4375 26.625 37.167969 27 38 27L48 27L48 35C48 35.167969 47.875 35.4375 47.65625 35.65625C47.4375 35.875 47.167969 36 47 36L45 36L45 38L47 38C47.832031 38 48.5625 37.625 49.09375 37.09375C49.625 36.5625 50 35.832031 50 35L50 25.40625C50 24.28125 49.570313 23.25 49.1875 22.46875C48.804688 21.6875 48.40625 21.125 48.40625 21.125L48.40625 21.09375L44.3125 15.59375L44.28125 15.59375L44.28125 15.5625C43.394531 14.453125 41.972656 13 40 13L32 13C31.640625 13 31.3125 13.066406 31 13.1875L31 11C31 9.355469 29.644531 8 28 8 Z M 3 10L28 10C28.554688 10 29 10.445313 29 11L29 35.1875C29 35.652344 28.652344 36 28.1875 36L18.90625 36C18.429688 33.164063 15.964844 31 13 31C10.035156 31 7.570313 33.164063 7.09375 36L3 36C2.445313 36 2 35.554688 2 35L2 11C2 10.445313 2.445313 10 3 10 Z M 38 19L44.3125 19L46.78125 22.28125L46.8125 22.3125C46.832031 22.339844 47.101563 22.722656 47.40625 23.34375C47.660156 23.859375 47.792969 24.472656 47.875 25L38 25C37.832031 25 37.5625 24.875 37.34375 24.65625C37.125 24.4375 37 24.167969 37 24L37 20C37 19.507813 37.601563 19 38 19 Z M 5 20L5 25.8125L6.3125 25.8125L6.3125 23.40625L8.6875 23.40625L8.6875 22.40625L6.3125 22.40625L6.3125 21.09375L9 21.09375L9 20 Z M 10 20L10 25.59375L11.09375 25.59375L11.09375 23.40625L12.40625 23.40625C13.304688 23.40625 13.304688 24.101563 13.40625 25C13.40625 25.199219 13.398438 25.394531 13.5 25.59375L14.8125 25.59375C14.613281 25.394531 14.59375 24.695313 14.59375 24.59375C14.59375 23.195313 14.011719 23 13.8125 23C14.113281 22.898438 14.6875 22.492188 14.6875 21.59375C14.6875 20.292969 13.5 20 13 20 Z M 16 20L16 25.8125L20.3125 25.8125L20.3125 24.6875L17.1875 24.6875L17.1875 23.3125L20 23.3125L20 22.3125L17.1875 22.3125L17.1875 21.09375L20.1875 21.09375L20.1875 20 Z M 21.6875 20L21.6875 25.8125L26 25.8125L26 24.6875L22.90625 24.6875L22.90625 23.3125L25.6875 23.3125L25.6875 22.3125L22.90625 22.3125L22.90625 21.09375L25.90625 21.09375L25.90625 20 Z M 11.1875 21L12.59375 21C12.894531 21 13.5 21.113281 13.5 21.8125C13.5 22.613281 12.894531 22.59375 12.59375 22.59375L11.1875 22.59375 Z M 13 33C15.222656 33 17 34.777344 17 37C17 39.222656 15.222656 41 13 41C10.777344 41 9 39.222656 9 37C9 34.777344 10.777344 33 13 33 Z M 39 33C41.222656 33 43 34.777344 43 37C43 39.222656 41.222656 41 39 41C36.777344 41 35 39.222656 35 37C35 34.777344 36.777344 33 39 33Z" />
</svg>