<?xml version="1.0" encoding="utf-8"?>
<svg xmlns="http://www.w3.org/2000/svg" viewBox="0 0 50 50" width="515" height="515">
  <path d="M25 0C21.699219 0 19 2.699219 19 6C19 9.300781 21.699219 12 25 12C28.300781 12 31 9.300781 31 6C31 2.699219 28.300781 0 25 0 Z M 25 2C27.222656 2 29 3.777344 29 6C29 8.222656 27.222656 10 25 10C22.777344 10 21 8.222656 21 6C21 3.777344 22.777344 2 25 2 Z M 22 13C18.15625 13 15 16.15625 15 20L15 23L17 23L17 20C17 17.246094 19.246094 15 22 15L28 15C30.753906 15 33 17.246094 33 20L33 23L35 23L35 20C35 16.15625 31.84375 13 28 13 Z M 42 19L42 20L44 20L44 19 Z M 43 20C40.597656 20 38.5625 21.730469 38.09375 24L1 24C0.96875 24 0.9375 24 0.90625 24C0.390625 24.046875 -0.00390625 24.480469 0 25L0 29C0 29.550781 0.449219 30 1 30L2 30L2 49C2 49.550781 2.449219 50 3 50L47 50C47.550781 50 48 49.550781 48 49L48 30L49 30C49.550781 30 50 29.550781 50 29L50 25C50 24.449219 49.550781 24 49 24L47.90625 24C47.4375 21.730469 45.402344 20 43 20 Z M 43 22C44.300781 22 45.394531 22.84375 45.8125 24L40.1875 24C40.605469 22.84375 41.699219 22 43 22 Z M 2 26L48 26L48 28L3.1875 28C3.054688 27.972656 2.914063 27.972656 2.78125 28L2 28 Z M 4 30L46 30L46 48L4 48Z" />
</svg>