<?xml version="1.0" encoding="utf-8"?>
<svg xmlns="http://www.w3.org/2000/svg" viewBox="0 0 50 50" width="515" height="515">
  <path d="M25 1C16.421875 1 9.121094 5.191406 6.28125 11.070313C6.113281 11.035156 5.949219 11 5.800781 11C4.257813 11 3 12.316406 3 13.929688C3 14.375 3.101563 14.816406 3.289063 15.214844C3.101563 15.613281 3 16.050781 3 16.5C3 16.949219 3.101563 17.386719 3.289063 17.785156C3.101563 18.183594 3 18.621094 3 19.070313C3 20.4375 3.902344 21.578125 5.113281 21.902344C5.042969 22.257813 5 22.625 5 23C5 24.777344 5.8125 26.367188 7.105469 27.46875C7.324219 27.652344 7.777344 28.421875 8.105469 29.097656C8.039063 29.386719 8 29.679688 8 29.96875C8 31.28125 8.511719 32.617188 9.324219 33.746094C10.96875 39.503906 13.269531 41.167969 14.472656 42C16.078125 43.109375 17.632813 43.546875 17.632813 45C17.632813 46.648438 20.265625 48 22 48L28 48C29.738281 48 32.367188 46.648438 32.367188 45C32.367188 43.546875 33.921875 43.109375 35.527344 42C36.730469 41.167969 39.03125 39.503906 40.671875 33.75C41.488281 32.621094 42 31.285156 42 29.96875C42 29.679688 41.960938 29.390625 41.890625 29.097656C42.222656 28.421875 42.675781 27.652344 42.894531 27.46875C44.1875 26.367188 45 24.777344 45 23C45 22.625 44.957031 22.257813 44.886719 21.902344C46.097656 21.578125 47 20.4375 47 19.070313C47 18.625 46.898438 18.183594 46.710938 17.785156C46.898438 17.386719 47 16.949219 47 16.5C47 16.050781 46.898438 15.613281 46.710938 15.214844C46.898438 14.816406 47 14.378906 47 13.929688C47 12.316406 45.742188 11 44.199219 11C44.050781 11 43.886719 11.035156 43.71875 11.070313C40.878906 5.191406 33.578125 1 25 1 Z M 25 3C32.746094 3 39.347656 6.695313 41.878906 11.855469C41.617188 12 41.347656 12.152344 41.050781 12.328125C40.929688 12.402344 40.835938 12.460938 40.84375 12.460938C39.742188 12.878906 39 13.988281 39 15.214844C39 15.664063 39.101563 16.101563 39.289063 16.5C39.101563 16.898438 39 17.335938 39 17.785156C39 19.015625 39.742188 20.125 40.777344 20.511719C40.828125 20.539063 40.925781 20.59375 41.050781 20.671875C41.675781 21.042969 42.214844 21.339844 42.703125 21.566406C42.894531 22.027344 43 22.507813 43 23C43 24.128906 42.503906 25.175781 41.597656 25.941406C41.351563 26.15625 41.066406 26.550781 40.785156 26.996094C39.824219 25.839844 38.417969 25 37 25C38.277344 25.6875 39 26.546875 39 27.46875C39 29.402344 37.433594 30.96875 35.5 30.96875C33.980469 30.96875 31.410156 27.023438 29.539063 27C29.085938 27.617188 28.355469 28.023438 27.53125 28.023438C27.394531 28.023438 27.097656 28.125 27.03125 28.203125C26.882813 28.726563 25.941406 28.988281 25 28.988281C24.0625 28.988281 23.121094 28.726563 22.972656 28.203125C22.90625 28.125 22.609375 28.023438 22.472656 28.023438C21.644531 28.023438 20.917969 27.617188 20.464844 27C18.589844 27.023438 16.019531 30.96875 14.5 30.96875C12.570313 30.96875 11 29.402344 11 27.46875C11 26.546875 11.957031 25.597656 13 25C11.542969 25 10.152344 25.832031 9.203125 26.980469C8.925781 26.542969 8.648438 26.152344 8.398438 25.941406C7.496094 25.175781 7 24.128906 7 23C7 22.507813 7.105469 22.027344 7.296875 21.566406C7.78125 21.339844 8.320313 21.042969 8.945313 20.671875C9.074219 20.59375 9.160156 20.535156 9.152344 20.542969C10.257813 20.121094 11 19.015625 11 17.785156C11 17.335938 10.898438 16.898438 10.710938 16.5C10.898438 16.101563 11 15.664063 11 15.214844C11 13.984375 10.257813 12.878906 9.226563 12.492188C9.171875 12.464844 9.074219 12.40625 8.949219 12.328125C8.652344 12.152344 8.382813 12 8.121094 11.855469C10.652344 6.695313 17.253906 3 25 3 Z M 17 10C15.691406 10 14.316406 10.375 13 11.515625C12.3125 12.117188 12.375 13.113281 13.003906 12.804688C14.117188 12.261719 15.113281 12 16 12C18.6875 12 20.027344 15.148438 20.4375 15.5625C21.023438 16.148438 21.972656 16.148438 22.5625 15.5625C23.148438 14.976563 23.148438 14.027344 22.5625 13.4375C22.195313 13.074219 20.4375 10 17 10 Z M 33 10C29.5625 10 27.804688 13.074219 27.4375 13.4375C26.851563 14.027344 26.851563 14.976563 27.4375 15.5625C28.027344 16.148438 28.976563 16.148438 29.5625 15.5625C29.972656 15.148438 31.3125 12 34 12C34.886719 12 35.882813 12.261719 36.996094 12.804688C37.625 13.113281 37.6875 12.117188 37 11.515625C35.683594 10.375 34.308594 10 33 10 Z M 5.792969 13C5.988281 13.015625 6.515625 13.207031 7.925781 14.046875C8.195313 14.207031 8.386719 14.308594 8.445313 14.328125C8.777344 14.453125 9 14.8125 9 15.214844C9 15.519531 8.875 15.730469 8.765625 15.855469L8.226563 16.5L8.765625 17.144531C8.875 17.269531 9 17.484375 9 17.785156C9 18.1875 8.777344 18.546875 8.445313 18.671875C8.386719 18.691406 8.195313 18.792969 7.921875 18.953125C6.515625 19.792969 5.988281 19.984375 5.800781 20C5.359375 20 5 19.582031 5 19.070313C5 18.769531 5.125 18.554688 5.234375 18.429688L5.773438 17.785156L5.234375 17.140625C5.125 17.015625 5 16.800781 5 16.5C5 16.199219 5.125 15.984375 5.234375 15.859375L5.773438 15.214844L5.234375 14.570313C5.125 14.445313 5 14.230469 5 13.929688C5 13.417969 5.359375 13 5.792969 13 Z M 44.199219 13C44.640625 13 45 13.417969 45 13.929688C45 14.230469 44.875 14.445313 44.765625 14.570313L44.230469 15.214844L44.765625 15.859375C44.875 15.984375 45 16.199219 45 16.5C45 16.800781 44.875 17.015625 44.765625 17.140625L44.230469 17.785156L44.765625 18.425781C44.875 18.554688 45 18.769531 45 19.070313C45 19.582031 44.640625 20 44.207031 20C44.015625 19.988281 43.484375 19.792969 42.078125 18.953125C41.808594 18.792969 41.617188 18.691406 41.558594 18.671875C41.226563 18.546875 41 18.1875 41 17.785156C41 17.480469 41.125 17.269531 41.234375 17.140625L41.769531 16.5L41.234375 15.859375C41.125 15.730469 41 15.515625 41 15.214844C41 14.8125 41.222656 14.457031 41.550781 14.328125C41.613281 14.308594 41.804688 14.207031 42.074219 14.046875C43.484375 13.207031 44.011719 13.015625 44.199219 13 Z M 17.5 17.003906C15.996094 17.003906 14 17.851563 14 19.863281C14 21.859375 15.898438 20.597656 17.402344 20.597656C18.90625 20.597656 21 21.742188 21 20.199219C21 18.652344 19.003906 17.003906 17.5 17.003906 Z M 32.5 17.003906C30.996094 17.003906 29 18.652344 29 20.199219C29 21.742188 31.09375 20.597656 32.597656 20.597656C34.101563 20.597656 36 21.859375 36 19.863281C36 17.851563 34.003906 17.003906 32.5 17.003906 Z M 20.046875 29.308594C20.578125 29.648438 21.183594 29.878906 21.8125 29.972656C22.523438 30.625 23.632813 30.988281 25 30.988281C26.371094 30.988281 27.476563 30.625 28.1875 29.972656C28.820313 29.878906 29.421875 29.648438 29.953125 29.308594C30.4375 29.667969 31.058594 30.242188 31.445313 30.605469C32.753906 31.820313 33.992188 32.96875 35.5 32.96875C37.304688 32.96875 38.90625 32.097656 39.910156 30.75C39.554688 32.390625 38.144531 34.015625 36.574219 34.46875C34.769531 34.984375 33.964844 35 30 35L20 35C16.035156 35 15.230469 34.984375 13.425781 34.464844C11.851563 34.011719 10.445313 32.386719 10.089844 30.75C11.089844 32.097656 12.695313 32.96875 14.5 32.96875C16.011719 32.96875 17.246094 31.820313 18.558594 30.605469C18.945313 30.242188 19.5625 29.667969 20.046875 29.308594 Z M 12.3125 36.167969C12.5 36.242188 12.683594 36.332031 12.875 36.386719C14.953125 36.984375 15.992188 37 20 37L30 37C34.007813 37 35.046875 36.984375 37.125 36.386719C37.316406 36.332031 37.5 36.242188 37.6875 36.167969C36.4375 38.921875 35.105469 39.859375 34.390625 40.355469C34.046875 40.589844 33.6875 40.804688 33.34375 41.011719C32.101563 41.742188 30.414063 42.742188 30.371094 44.914063C30.136719 45.320313 28.914063 46 28 46L22 46C21.085938 46 19.863281 45.320313 19.628906 44.914063C19.585938 42.742188 17.898438 41.742188 16.65625 41.011719C16.3125 40.804688 15.953125 40.589844 15.609375 40.355469C14.894531 39.859375 13.5625 38.921875 12.3125 36.167969Z" />
</svg>