<?xml version="1.0" encoding="utf-8"?>
<svg xmlns="http://www.w3.org/2000/svg" viewBox="0 0 50 50" width="515" height="515">
  <path d="M11 2C10.014286 2 9.1880309 2.4994691 8.59375 3.09375 A 1.0001 1.0001 0 0 0 8.4355469 3.296875L6.4179688 6.7539062C6.1454714 7.110672 6 7.5565343 6 8L6 46C6 46.522222 6.1913289 47.05461 6.5683594 47.431641C6.9453899 47.808671 7.4777778 48 8 48L21 48 A 1.0001 1.0001 0 1 0 21 46L8 46L8 8L32 8L32 26 A 1.0001 1.0001 0 1 0 34 26L34 8C34 7.5075502 33.823832 7.0104044 33.488281 6.6386719 A 1.0002263 1.0002263 0 0 0 33.462891 6.59375L31.462891 3.1933594 A 1.0001 1.0001 0 0 0 31.400391 3.0996094C30.860391 2.3796094 30.032943 2 29.099609 2L11 2 z M 11 4L29.099609 4C29.362601 4 29.723404 4.2142393 29.791016 4.296875L30.792969 6L9.1757812 6L10.0625 4.4804688C10.42317 4.1279839 10.60844 4 11 4 z M 12 11C11.477778 11 10.94539 11.191329 10.568359 11.568359C10.191329 11.94539 10 12.477778 10 13L10 17C10 17.34613 10.091347 17.693134 10.257812 18C10.091347 18.306866 10 18.65387 10 19L10 23C10 23.522222 10.191329 24.05461 10.568359 24.431641C10.94539 24.808671 11.477778 25 12 25L28 25C28.522222 25 29.05461 24.808671 29.431641 24.431641C29.808671 24.05461 30 23.522222 30 23L30 19C30 18.65387 29.908653 18.306866 29.742188 18C29.908653 17.693134 30 17.34613 30 17L30 13C30 12.477778 29.808671 11.94539 29.431641 11.568359C29.05461 11.191329 28.522222 11 28 11L12 11 z M 12 13L28 13L28 17L12 17L12 13 z M 12 19L28 19L28 23L12 23L12 19 z M 25.994141 28C24.901078 28 23.994141 28.906937 23.994141 30L23.994141 48L24.003906 48C24.010174 49.067579 24.889779 50 25.994141 50L45.244141 50C46.448903 50 47.492902 49.124657 47.705078 47.939453L50 36.095703L50 36C50 34.906937 49.093063 34 48 34L47.994141 34L47.994141 32C47.994141 30.908145 47.087225 30 45.994141 30L32.712891 30C32.629297 29.898325 32.498357 29.705987 32.349609 29.46875C32.192097 29.217534 32.021012 28.932768 31.771484 28.650391C31.521957 28.368013 31.123394 28 30.494141 28L25.994141 28 z M 20 30 A 2 2 0 0 0 18 32 A 2 2 0 0 0 20 34 A 2 2 0 0 0 22 32 A 2 2 0 0 0 20 30 z M 25.994141 30L30.291016 30C30.374466 30.0989 30.507393 30.293839 30.65625 30.53125C30.812237 30.780034 30.978988 31.062919 31.222656 31.34375C31.466324 31.624581 31.856508 32 32.494141 32L45.994141 32L45.994141 34L28.494141 34C27.469758 34 26.619767 34.799032 26.515625 35.798828L25.994141 38.28125L25.994141 30 z M 28.494141 36L47.980469 36L45.738281 47.580078L45.736328 47.587891C45.692552 47.832699 45.493378 48 45.244141 48L25.994141 48L28.494141 36.103516L28.494141 36 z M 20 38 A 2 2 0 0 0 18 40 A 2 2 0 0 0 20 42 A 2 2 0 0 0 22 40 A 2 2 0 0 0 20 38 z" />
</svg>