<?xml version="1.0" encoding="utf-8"?>
<svg xmlns="http://www.w3.org/2000/svg" viewBox="0 0 50 50" width="515" height="515">
  <path d="M8 12C5.25 12 3 14.25 3 17L3 33C3 35.75 5.25 38 8 38L40 38C42.75 38 45 35.75 45 33L45 30L47 30C47.550781 30 48 29.550781 48 29L48 21C48 20.449219 47.550781 20 47 20L45 20L45 17C45 14.25 42.75 12 40 12 Z M 8 14L40 14C41.667969 14 43 15.332031 43 17L43 21C43 21.550781 43.449219 22 44 22L46 22L46 28L44 28C43.449219 28 43 28.449219 43 29L43 33C43 34.667969 41.667969 36 40 36L8 36C6.332031 36 5 34.667969 5 33L5 17C5 15.332031 6.332031 14 8 14 Z M 7.90625 15.96875C7.863281 15.976563 7.820313 15.988281 7.78125 16C7.316406 16.105469 6.988281 16.523438 7 17L7 33C6.996094 33.359375 7.183594 33.695313 7.496094 33.878906C7.808594 34.058594 8.191406 34.058594 8.503906 33.878906C8.816406 33.695313 9.003906 33.359375 9 33L9 17C9.011719 16.710938 8.894531 16.433594 8.6875 16.238281C8.476563 16.039063 8.191406 15.941406 7.90625 15.96875 Z M 11.90625 15.96875C11.863281 15.976563 11.820313 15.988281 11.78125 16C11.316406 16.105469 10.988281 16.523438 11 17L11 33C10.996094 33.359375 11.183594 33.695313 11.496094 33.878906C11.808594 34.058594 12.191406 34.058594 12.503906 33.878906C12.816406 33.695313 13.003906 33.359375 13 33L13 17C13.011719 16.710938 12.894531 16.433594 12.6875 16.238281C12.476563 16.039063 12.191406 15.941406 11.90625 15.96875 Z M 15.90625 15.96875C15.863281 15.976563 15.820313 15.988281 15.78125 16C15.316406 16.105469 14.988281 16.523438 15 17L15 33C14.996094 33.359375 15.183594 33.695313 15.496094 33.878906C15.808594 34.058594 16.191406 34.058594 16.503906 33.878906C16.816406 33.695313 17.003906 33.359375 17 33L17 17C17.011719 16.710938 16.894531 16.433594 16.6875 16.238281C16.476563 16.039063 16.191406 15.941406 15.90625 15.96875 Z M 19.90625 15.96875C19.863281 15.976563 19.820313 15.988281 19.78125 16C19.316406 16.105469 18.988281 16.523438 19 17L19 33C18.996094 33.359375 19.183594 33.695313 19.496094 33.878906C19.808594 34.058594 20.191406 34.058594 20.503906 33.878906C20.816406 33.695313 21.003906 33.359375 21 33L21 17C21.011719 16.710938 20.894531 16.433594 20.6875 16.238281C20.476563 16.039063 20.191406 15.941406 19.90625 15.96875 Z M 23.90625 15.96875C23.863281 15.976563 23.820313 15.988281 23.78125 16C23.316406 16.105469 22.988281 16.523438 23 17L23 33C22.996094 33.359375 23.183594 33.695313 23.496094 33.878906C23.808594 34.058594 24.191406 34.058594 24.503906 33.878906C24.816406 33.695313 25.003906 33.359375 25 33L25 17C25.011719 16.710938 24.894531 16.433594 24.6875 16.238281C24.476563 16.039063 24.191406 15.941406 23.90625 15.96875 Z M 27.90625 15.96875C27.863281 15.976563 27.820313 15.988281 27.78125 16C27.316406 16.105469 26.988281 16.523438 27 17L27 33C26.996094 33.359375 27.183594 33.695313 27.496094 33.878906C27.808594 34.058594 28.191406 34.058594 28.503906 33.878906C28.816406 33.695313 29.003906 33.359375 29 33L29 17C29.011719 16.710938 28.894531 16.433594 28.6875 16.238281C28.476563 16.039063 28.191406 15.941406 27.90625 15.96875 Z M 31.90625 15.96875C31.863281 15.976563 31.820313 15.988281 31.78125 16C31.316406 16.105469 30.988281 16.523438 31 17L31 33C30.996094 33.359375 31.183594 33.695313 31.496094 33.878906C31.808594 34.058594 32.191406 34.058594 32.503906 33.878906C32.816406 33.695313 33.003906 33.359375 33 33L33 17C33.011719 16.710938 32.894531 16.433594 32.6875 16.238281C32.476563 16.039063 32.191406 15.941406 31.90625 15.96875 Z M 35.90625 15.96875C35.863281 15.976563 35.820313 15.988281 35.78125 16C35.316406 16.105469 34.988281 16.523438 35 17L35 33C34.996094 33.359375 35.183594 33.695313 35.496094 33.878906C35.808594 34.058594 36.191406 34.058594 36.503906 33.878906C36.816406 33.695313 37.003906 33.359375 37 33L37 17C37.011719 16.710938 36.894531 16.433594 36.6875 16.238281C36.476563 16.039063 36.191406 15.941406 35.90625 15.96875 Z M 39.90625 15.96875C39.863281 15.976563 39.820313 15.988281 39.78125 16C39.316406 16.105469 38.988281 16.523438 39 17L39 33C38.996094 33.359375 39.183594 33.695313 39.496094 33.878906C39.808594 34.058594 40.191406 34.058594 40.503906 33.878906C40.816406 33.695313 41.003906 33.359375 41 33L41 17C41.011719 16.710938 40.894531 16.433594 40.6875 16.238281C40.476563 16.039063 40.191406 15.941406 39.90625 15.96875Z" />
</svg>