<?xml version="1.0" encoding="utf-8"?>
<svg xmlns="http://www.w3.org/2000/svg" viewBox="0 0 50 50" width="515" height="515">
  <path d="M25 2C12.309295 2 2 12.309295 2 25C2 37.690705 12.309295 48 25 48C37.690705 48 48 37.690705 48 25C48 12.309295 37.690705 2 25 2 z M 25 4C28.956498 4 32.641693 5.1105148 35.798828 7.0078125L30.849609 14.429688C31.349609 14.959688 31.750312 15.559453 32.070312 16.189453L37.455078 8.1132812C42.381487 11.750879 45.669542 17.473621 45.974609 24L30.730469 24C31.560469 24.5 32.320625 25.15 32.890625 26L45.974609 26C45.612159 33.75399 41.049308 40.382957 34.513672 43.708984L31.060547 36.039062C30.520547 36.459062 29.940078 36.800547 29.330078 37.060547L32.699219 44.541016C30.315217 45.479535 27.719836 46 25 46C13.390176 46 4 36.609824 4 25C4 13.390176 13.390176 4 25 4 z M 30.730469 24C30.710469 23.98 30.680391 23.959219 30.650391 23.949219L30.669922 24L30.730469 24 z M 24 11L24 14.052734C22.268 14.220734 20.861406 14.833625 19.816406 15.890625C17.990406 17.737625 17.999 20.239984 18 20.333984C18 24.635984 21.761203 25.472531 24.783203 26.144531C28.018203 26.861531 30 27.433 30 30C30 33.93 25.202 33.999 25 34C20.191 34 20.005 30.402188 20 29.992188L19 30L18 30C18 31.944 19.284 35.510125 24 35.953125L24 39L26 39L26 35.935547C28.498 35.629547 32 34.151 32 30C32 25.698 28.238797 24.861453 25.216797 24.189453C21.981797 23.472453 20 22.900172 20 20.326172C20 20.315172 20.005766 19.18075 20.634766 18.09375C21.437766 16.70475 22.907 16 25 16C28.805 16 28.991 19.604719 29 20.011719L31 19.986328C30.976 18.072328 29.868 14.587312 26 14.070312L26 11L24 11 z" />
</svg>