<?xml version="1.0" encoding="utf-8"?>
<svg xmlns="http://www.w3.org/2000/svg" viewBox="0 0 50 50" width="515" height="515">
  <path d="M24.964844 1 A 1.0001 1.0001 0 0 0 24.382812 1.2128906L1.3828125 19.212891 A 1.0002305 1.0002305 0 1 0 2.6171875 20.787109L4 19.705078L4 46 A 1.0001 1.0001 0 0 0 5 47L45 47 A 1.0001 1.0001 0 0 0 46 46L46 19.705078L47.382812 20.787109 A 1.0002308 1.0002308 0 1 0 48.617188 19.212891L25.617188 1.2128906 A 1.0001 1.0001 0 0 0 24.964844 1 z M 25 3.2695312L44 18.138672L44 45L40 45L40 41L40 40L40 33C41.093063 33 42 32.093063 42 31L42 29C42 27.906937 41.093063 27 40 27L38.486328 27L35.177734 20.3125L35.167969 20.291016C34.407779 18.923682 33.018716 18 31.519531 18L18.480469 18C16.981284 18 15.592256 18.923686 14.832031 20.291016L14.822266 20.3125L11.513672 27L10 27C8.9069372 27 8 27.906937 8 29L8 31C8 32.093063 8.9069372 33 10 33L10 40L10 41L10 45L6 45L6 18.138672L25 3.2695312 z M 18.480469 20L31.519531 20C31.991318 20 33.042091 20.592876 33.416016 21.259766L37.244141 29L40 29L40 31L37.550781 31L37.892578 32.261719C38.008344 32.689162 38 32.855 38 33L38 40L38 41L38 45L35 45L35 41L15 41L15 45L12 45L12 41L12 40L12 33C12 32.855 11.9917 32.689162 12.107422 32.261719L12.449219 31L10 31L10 29L12.755859 29L16.583984 21.259766C16.957909 20.592876 18.008682 20 18.480469 20 z M 19.074219 22 A 1.0001 1.0001 0 0 0 18.158203 22.597656L15.083984 29.597656 A 1.0001 1.0001 0 0 0 16 31L34 31 A 1.0001 1.0001 0 0 0 34.916016 29.597656L31.839844 22.597656 A 1.0001 1.0001 0 0 0 30.923828 22L19.074219 22 z M 19.726562 24L30.271484 24L32.46875 29L17.53125 29L19.726562 24 z M 17 33C15.35499 33 14 34.35499 14 36C14 37.64501 15.35499 39 17 39C18.64501 39 20 37.64501 20 36C20 34.35499 18.64501 33 17 33 z M 33 33C31.35499 33 30 34.35499 30 36C30 37.64501 31.35499 39 33 39C34.64501 39 36 37.64501 36 36C36 34.35499 34.64501 33 33 33 z M 17 35C17.564129 35 18 35.435871 18 36C18 36.564129 17.564129 37 17 37C16.435871 37 16 36.564129 16 36C16 35.435871 16.435871 35 17 35 z M 33 35C33.564129 35 34 35.435871 34 36C34 36.564129 33.564129 37 33 37C32.435871 37 32 36.564129 32 36C32 35.435871 32.435871 35 33 35 z M 17 43L33 43L33 45L17 45L17 43 z" />
</svg>