<?xml version="1.0" encoding="utf-8"?>
<svg xmlns="http://www.w3.org/2000/svg" viewBox="0 0 50 50" width="515" height="515">
  <path d="M38.046875 1.632813L28.535156 9.953125L29.292969 10.707031L35.046875 16.464844L37.675781 13.464844L37.789063 13.578125C38.167969 13.953125 38.1875 14.535156 37.839844 14.9375L33.417969 20L14.171875 20C14.101563 19.988281 14.03125 19.984375 13.957031 19.984375C13.917969 19.988281 13.878906 19.992188 13.839844 20L9 20C8.636719 20 8.300781 20.195313 8.125 20.515625L3.125 29.515625C2.953125 29.824219 2.957031 30.203125 3.136719 30.507813C3.316406 30.8125 3.644531 31 4 31L3.179688 31L5.019531 40.195313C5.113281 40.664063 5.523438 41 6 41L7.28125 41C7.109375 41.472656 7 41.972656 7 42.5C7 44.972656 9.027344 47 11.5 47C12.917969 47 14.171875 46.320313 15 45.285156C15.828125 46.320313 17.082031 47 18.5 47C20.972656 47 23 44.972656 23 42.5C23 41.972656 22.890625 41.472656 22.71875 41L28.800781 41L26.882813 39L21.285156 39C20.515625 38.382813 19.554688 38 18.5 38C17.082031 38 15.828125 38.679688 15 39.714844C14.171875 38.679688 12.917969 38 11.5 38C11.066406 38 10.65625 38.082031 10.261719 38.199219L14.761719 22L31.671875 22L24.734375 29.9375C23.707031 31.121094 23.773438 32.917969 24.878906 34.023438L31.28125 40.691406L31.507813 40.472656C31.195313 41.085938 31 41.769531 31 42.5C31 44.972656 33.027344 47 35.5 47C37.800781 47 39.695313 45.238281 39.949219 43L44 43C45.644531 43 47 41.644531 47 40L47 33.796875C47 33.101563 46.816406 32.417969 46.472656 31.8125L43.734375 27.015625C43.019531 25.769531 41.695313 25 40.261719 25L34 25C33.648438 25 33.316406 25.074219 33 25.1875L33 23.515625L34.324219 22L36.074219 20L39.347656 16.25C40.375 15.066406 40.3125 13.269531 39.203125 12.160156L38.996094 11.953125L43.371094 6.953125 Z M 37.953125 4.367188L40.628906 7.046875L37.578125 10.535156L35.519531 8.480469L34.109375 9.894531L36.257813 12.046875L34.953125 13.535156L31.464844 10.046875 Z M 29 12C28.449219 12 28 12.449219 28 13C28 13.550781 28.449219 14 29 14C29.550781 14 30 13.550781 30 13C30 12.449219 29.550781 12 29 12 Z M 25 14C24.449219 14 24 14.449219 24 15C24 15.550781 24.449219 16 25 16C25.550781 16 26 15.550781 26 15C26 14.449219 25.550781 14 25 14 Z M 31 14C30.449219 14 30 14.449219 30 15C30 15.550781 30.449219 16 31 16C31.550781 16 32 15.550781 32 15C32 14.449219 31.550781 14 31 14 Z M 28 15C27.449219 15 27 15.449219 27 16C27 16.550781 27.449219 17 28 17C28.550781 17 29 16.550781 29 16C29 15.449219 28.550781 15 28 15 Z M 26 17C25.449219 17 25 17.449219 25 18C25 18.550781 25.449219 19 26 19C26.550781 19 27 18.550781 27 18C27 17.449219 26.550781 17 26 17 Z M 30 17C29.449219 17 29 17.449219 29 18C29 18.550781 29.449219 19 30 19C30.550781 19 31 18.550781 31 18C31 17.449219 30.550781 17 30 17 Z M 38.730469 20L36.980469 22L41.699219 22L44.445313 23.832031C44.617188 23.945313 44.808594 24 45 24C45.320313 24 45.640625 23.84375 45.832031 23.554688C46.140625 23.09375 46.015625 22.472656 45.554688 22.167969L42.554688 20.167969C42.390625 20.058594 42.195313 20 42 20 Z M 9.585938 22L12.6875 22L8.039063 38.734375C8.011719 38.820313 7.996094 38.910156 7.992188 39L6.820313 39L5.054688 30.167969 Z M 31 25.804688L31 37.515625L26.300781 32.617188L26.292969 32.609375C25.914063 32.230469 25.894531 31.652344 26.242188 31.25L26.246094 31.25 Z M 34 27L38 27L38 33C38 34.09375 38.90625 35 40 35L45 35L45 40C45 40.554688 44.554688 41 44 41L39.71875 41C39.097656 39.261719 37.445313 38 35.5 38C34.578125 38 33.714844 38.285156 33 38.765625L33 28C33 27.445313 33.445313 27 34 27 Z M 40 27L40.261719 27C40.980469 27 41.640625 27.382813 41.996094 28.007813L44.734375 32.804688C44.773438 32.867188 44.789063 32.933594 44.816406 33L40 33 Z M 11.5 40C12.890625 40 14 41.109375 14 42.5C14 43.890625 12.890625 45 11.5 45C10.109375 45 9 43.890625 9 42.5C9 41.109375 10.109375 40 11.5 40 Z M 18.5 40C19.890625 40 21 41.109375 21 42.5C21 43.890625 19.890625 45 18.5 45C17.109375 45 16 43.890625 16 42.5C16 41.109375 17.109375 40 18.5 40 Z M 35.5 40C36.890625 40 38 41.109375 38 42.5C38 43.890625 36.890625 45 35.5 45C34.109375 45 33 43.890625 33 42.5C33 41.109375 34.109375 40 35.5 40Z" />
</svg>