<?xml version="1.0" encoding="utf-8"?>
<svg xmlns="http://www.w3.org/2000/svg" viewBox="0 0 50 50" width="515" height="515">
  <path d="M41 0C39.238281 0.136719 37.722656 1.027344 36.625 2.125L32.09375 6.6875L31.59375 6.1875C30.972656 5.566406 30.042969 5.214844 29.09375 5.5625C29.070313 5.570313 29.054688 5.554688 29.03125 5.5625L29.03125 5.59375L27.5625 6.0625L27.3125 5.78125C26.480469 4.949219 25.402344 4.53125 24.3125 4.53125C23.222656 4.53125 22.113281 4.949219 21.28125 5.78125L17.5 9.59375C16.777344 10.316406 16.558594 11.351563 16.8125 12.28125L4.28125 24.78125C3.679688 25.382813 3.488281 26.199219 3.65625 26.96875C1.398438 29.242188 0 32.421875 0 35.90625C0 40.582031 3.089844 47.535156 11.0625 49.9375L11.9375 47.0625C5.308594 45.066406 3 39.230469 3 35.90625C3 33.371094 3.921875 31.0625 5.4375 29.375L13.1875 37.09375C15.261719 39.167969 18.644531 39.167969 20.71875 37.09375L30.90625 26.90625C31.976563 27.976563 33.703125 27.9375 34.84375 26.9375L34.875 26.9375L35.84375 25.96875C36.511719 25.285156 36.878906 24.394531 37 23.4375L37 23.15625L36.09375 16.5625L36.0625 16.5625C36.113281 15.394531 35.746094 14.246094 34.90625 13.40625L34.4375 12.9375L34.9375 11.40625L34.96875 11.34375L34.96875 11.28125C35.125 10.503906 35.007813 9.601563 34.3125 8.90625L34.21875 8.8125L38.40625 4.625L38.75 4.25C39.453125 3.546875 40.382813 3.0625 41.21875 3L50 3L50 0 Z M 24.3125 6.5C24.875 6.5 25.4375 6.75 25.90625 7.21875L27.03125 8.34375L27.625 8.15625L29.71875 7.4375L29.78125 7.4375C29.8125 7.425781 30.023438 7.429688 30.1875 7.59375L32.90625 10.3125C33.007813 10.414063 33.0625 10.660156 33.03125 10.875C33.03125 10.886719 33.035156 10.894531 33.03125 10.90625L32.34375 12.875L32.15625 13.46875L33.5 14.8125C33.996094 15.308594 34.167969 15.851563 34.09375 16.59375L34.09375 16.84375L34.96875 23.25C34.882813 23.835938 34.703125 24.296875 34.40625 24.59375L33.53125 25.4375C33.074219 25.839844 32.640625 25.828125 32.3125 25.5L18.90625 12.09375C18.578125 11.765625 18.578125 11.328125 18.90625 11L22.71875 7.21875C23.1875 6.75 23.75 6.5 24.3125 6.5 Z M 17.96875 13.96875L29.5 25.5L19.28125 35.6875C17.957031 37.011719 15.917969 37.011719 14.59375 35.6875L14.5625 35.625L5.78125 26.875C5.773438 26.863281 5.789063 26.855469 5.78125 26.84375C5.625 26.621094 5.648438 26.289063 5.71875 26.21875 Z M 18.25 19.5C16.914063 19.5 15.59375 20 14.59375 21L10.28125 25.28125C9.328125 26.234375 9.328125 27.859375 10.28125 28.8125L14.40625 32.90625C15.796875 34.296875 18.117188 34.296875 19.5 32.8125C19.511719 32.800781 19.519531 32.792969 19.53125 32.78125L24.90625 27.40625C25.859375 26.453125 25.859375 24.859375 24.90625 23.90625L22 21L22 20.96875C21.796875 20.777344 21.566406 20.621094 21.34375 20.46875C21.289063 20.410156 21.226563 20.355469 21.15625 20.3125C21.136719 20.300781 21.113281 20.292969 21.09375 20.28125C21.0625 20.269531 21.03125 20.257813 21 20.25C20.148438 19.757813 19.199219 19.5 18.25 19.5 Z M 18.28125 21.5C18.511719 21.5 18.742188 21.546875 18.96875 21.59375C16.746094 24.59375 17 27.875 17 27.875C17.042969 28.425781 17.527344 28.839844 18.078125 28.796875C18.628906 28.753906 19.042969 28.269531 19 27.71875C19 27.71875 18.792969 25.003906 20.75 22.5625L23.5 25.3125C23.746094 25.558594 23.746094 25.753906 23.5 26L18.09375 31.40625L18.0625 31.40625L18.0625 31.4375C17.441406 32.121094 16.410156 32.097656 15.8125 31.5L11.71875 27.40625C11.472656 27.160156 11.472656 26.964844 11.71875 26.71875L15.78125 22.65625L16 22.40625C16.601563 21.804688 17.445313 21.5 18.28125 21.5Z" />
</svg>