<?xml version="1.0" encoding="utf-8"?>
<svg xmlns="http://www.w3.org/2000/svg" viewBox="0 0 50 50" width="515" height="515">
  <path d="M28.53125 0C28.433594 0.015625 28.339844 0.046875 28.25 0.09375C28.25 0.09375 9 9.503906 9 26.1875C9 31.46875 12.070313 35.007813 15.03125 37.09375C17.992188 39.179688 20.9375 39.96875 20.9375 39.96875C21.359375 40.097656 21.816406 39.933594 22.0625 39.566406C22.304688 39.199219 22.28125 38.714844 22 38.375C22 38.375 18 33.230469 18 26.3125C18 20.390625 21.492188 16.382813 23.71875 14.375C23.15625 18.378906 23.355469 21.554688 24.03125 23.53125C24.445313 24.742188 24.953125 25.613281 25.375 26.1875C25.796875 26.761719 26.15625 27.0625 26.15625 27.0625C26.4375 27.292969 26.824219 27.351563 27.164063 27.214844C27.5 27.078125 27.738281 26.769531 27.78125 26.40625C27.78125 26.40625 27.882813 25.375 28.1875 24.125C28.269531 23.789063 28.476563 23.535156 28.59375 23.1875C28.929688 24.40625 29.328125 25.523438 29.71875 26.53125C30.417969 28.324219 31 29.902344 31 31.90625C31 33.214844 30.382813 34.882813 29.71875 36.1875C29.054688 37.492188 28.375 38.40625 28.375 38.40625C28.109375 38.761719 28.113281 39.25 28.378906 39.605469C28.648438 39.957031 29.117188 40.09375 29.53125 39.9375C35.179688 37.980469 39 32.214844 39 26.1875C39 20.617188 35.914063 16.425781 33.3125 12.59375C30.710938 8.761719 28.613281 5.421875 29.65625 1.25C29.738281 0.941406 29.664063 0.609375 29.460938 0.363281C29.253906 0.113281 28.945313 -0.0195313 28.625 0C28.59375 0 28.5625 0 28.53125 0 Z M 27.5625 2.84375C27.363281 6.921875 29.410156 10.410156 31.65625 13.71875C34.28125 17.585938 37 21.359375 37 26.1875C37 30.214844 34.933594 34.144531 31.78125 36.46875C32.417969 35.121094 33 33.554688 33 31.90625C33 29.507813 32.296875 27.617188 31.59375 25.8125C30.890625 24.007813 30.1875 22.246094 30 19.90625C29.960938 19.507813 29.691406 19.171875 29.308594 19.046875C28.929688 18.925781 28.511719 19.042969 28.25 19.34375C27.152344 20.5625 26.625 22.207031 26.28125 23.59375C26.15625 23.320313 26.023438 23.222656 25.90625 22.875C25.210938 20.847656 24.753906 17.472656 25.96875 12.21875C26.050781 11.828125 25.894531 11.425781 25.570313 11.191406C25.242188 10.960938 24.808594 10.949219 24.46875 11.15625C24.46875 11.15625 16 16.53125 16 26.3125C16 31.238281 17.542969 34.609375 18.84375 36.90625C18.007813 36.511719 17.152344 36.152344 16.1875 35.46875C13.546875 33.605469 11 30.707031 11 26.1875C11 13.195313 23.796875 5.007813 27.5625 2.84375 Z M 10.40625 42C9.105469 42 8 43.105469 8 44.40625L8 49C8 49.550781 8.449219 50 9 50L41 50C41.550781 50 42 49.550781 42 49L42 44.40625C42 43.105469 40.894531 42 39.59375 42L37 42C36.449219 42 36 42.449219 36 43L36 45L35 45L35 43C35 42.449219 34.550781 42 34 42L30 42C29.449219 42 29 42.449219 29 43L29 45L28 45L28 43C28 42.449219 27.550781 42 27 42L23 42C22.449219 42 22 42.449219 22 43L22 45L21 45L21 43C21 42.449219 20.550781 42 20 42L16 42C15.449219 42 15 42.449219 15 43L15 45L14 45L14 43C14 42.449219 13.550781 42 13 42 Z M 10.40625 44L12 44L12 46C12 46.550781 12.449219 47 13 47L16 47C16.550781 47 17 46.550781 17 46L17 44L19 44L19 46C19 46.550781 19.449219 47 20 47L23 47C23.550781 47 24 46.550781 24 46L24 44L26 44L26 46C26 46.550781 26.449219 47 27 47L30 47C30.550781 47 31 46.550781 31 46L31 44L33 44L33 46C33 46.550781 33.449219 47 34 47L37 47C37.550781 47 38 46.550781 38 46L38 44L39.59375 44C39.894531 44 40 44.105469 40 44.40625L40 48L10 48L10 44.40625C10 44.105469 10.105469 44 10.40625 44Z" />
</svg>