<?xml version="1.0" encoding="utf-8"?>
<svg xmlns="http://www.w3.org/2000/svg" viewBox="0 0 50 50" width="515" height="515">
  <path d="M24.3125 2C23.420956 2 22.629965 2.6147375 22.414062 3.4824219L21.984375 5.2011719C20.499469 5.4266904 19.071602 5.809631 17.710938 6.3417969L16.482422 5.0722656C15.862388 4.4298699 14.871617 4.2925756 14.099609 4.7363281L14.097656 4.7363281L12.90625 5.4238281C12.131324 5.8704299 11.755045 6.7991264 12.001953 7.6582031L12.494141 9.3730469C11.341882 10.297108 10.29876 11.340649 9.375 12.492188L7.6582031 12.001953C6.799761 11.755812 5.8717255 12.130512 5.4257812 12.904297L4.7382812 14.095703C4.2933893 14.867662 4.4307859 15.859554 5.0722656 16.480469L6.34375 17.710938C5.8113519 19.071863 5.4264321 20.500169 5.2011719 21.984375L3.4824219 22.414062C2.6179581 22.630995 2 23.421529 2 24.3125L2 25.6875C2 26.578472 2.6136653 27.369436 3.4804688 27.585938L5.1992188 28.013672C5.4246013 29.498666 5.8097355 30.926346 6.3417969 32.287109L5.0722656 33.517578C4.4290841 34.13837 4.2909775 35.129589 4.7363281 35.902344L5.4238281 37.09375C5.8704299 37.868676 6.7991264 38.244955 7.6582031 37.998047L9.3710938 37.505859C10.295883 38.659215 11.339534 39.702542 12.492188 40.626953L12 42.341797C11.753859 43.200239 12.130512 44.128275 12.904297 44.574219L14.095703 45.261719C14.868458 45.707069 15.859676 45.568963 16.480469 44.925781L17.710938 43.65625C19.071946 44.188234 20.499504 44.573434 21.984375 44.798828L22.414062 46.517578L22.414062 46.519531C22.631987 47.383109 23.420956 48 24.3125 48L25.6875 48C26.579044 48 27.370443 47.383703 27.585938 46.515625L28.015625 44.798828C29.500683 44.573128 30.928759 44.189799 32.289062 43.658203L33.517578 44.927734C34.137612 45.57013 35.128383 45.707424 35.900391 45.263672L35.902344 45.263672L37.09375 44.576172L37.095703 44.574219C37.868335 44.127404 38.243549 43.201346 37.998047 42.34375L37.505859 40.626953C38.658165 39.702892 39.70124 38.659351 40.625 37.507812L42.341797 37.998047C43.200239 38.244188 44.128275 37.869488 44.574219 37.095703L45.261719 35.904297C45.706611 35.132338 45.569214 34.140446 44.927734 33.519531L44.925781 33.517578L43.65625 32.289062C44.18808 30.928497 44.573386 29.499983 44.798828 28.015625L46.515625 27.585938C47.381009 27.36965 48 26.579044 48 25.6875L48 24.3125C48 23.420985 47.384058 22.631209 46.519531 22.414062L44.800781 21.984375C44.57535 20.499894 44.19011 19.071258 43.658203 17.710938L44.927734 16.482422C45.57013 15.862388 45.709378 14.869664 45.265625 14.097656L45.263672 14.097656L44.576172 12.904297C44.129912 12.129964 43.202275 11.756184 42.34375 12.001953L42.341797 12.001953L40.626953 12.492188C39.702909 11.339947 38.659417 10.29673 37.507812 9.3730469L38 7.6582031L38 7.65625C38.244737 6.7992865 37.869151 5.8719432 37.097656 5.4257812L35.904297 4.7363281C35.131542 4.2909775 34.140324 4.4290841 33.519531 5.0722656L32.291016 6.34375C30.929487 5.8114154 29.50113 5.4266618 28.015625 5.2011719L27.585938 3.4824219L27.585938 3.4804688C27.368013 2.6168403 26.579044 2 25.6875 2L24.3125 2 z M 24.347656 4L25.654297 4L26.384766 6.9199219L27.074219 6.9980469C28.882535 7.2038175 30.605697 7.6721161 32.210938 8.3691406L32.847656 8.6445312L34.933594 6.4863281L36.066406 7.140625L35.238281 10.042969L35.792969 10.455078C37.221055 11.517134 38.483238 12.780451 39.544922 14.208984L39.957031 14.763672L42.861328 13.933594L43.513672 15.066406L41.357422 17.154297L41.632812 17.789062C42.329684 19.393002 42.798131 21.119379 43.003906 22.927734L43.082031 23.615234L46 24.345703L46 25.654297L43.080078 26.384766L43.001953 27.072266C42.796183 28.880582 42.327884 30.605697 41.630859 32.210938L41.355469 32.845703L43.511719 34.933594L42.859375 36.066406L39.957031 35.236328L39.542969 35.791016C38.480912 37.219102 37.219549 38.483238 35.791016 39.544922L35.236328 39.957031L36.064453 42.859375L34.931641 43.513672L32.845703 41.355469L32.210938 41.630859C30.606427 42.327031 28.880278 42.79817 27.072266 43.003906L26.382812 43.082031L25.652344 46L24.345703 46L23.615234 43.080078L22.925781 43.001953C21.117465 42.796183 19.394303 42.327884 17.789062 41.630859L17.152344 41.355469L15.066406 43.511719L13.933594 42.859375L14.761719 39.957031L14.207031 39.542969C12.778945 38.480912 11.516762 37.219549 10.455078 35.791016L10.042969 35.236328L7.1386719 36.064453L6.4863281 34.931641L8.6425781 32.845703L8.3671875 32.208984C7.670317 30.605046 7.2018687 28.880621 6.9960938 27.072266L6.9179688 26.382812L4 25.652344L4 24.345703L6.9199219 23.615234L6.9980469 22.927734C7.2038565 21.119075 7.6714174 19.393732 8.3691406 17.789062L8.6445312 17.154297L6.4882812 15.066406L7.140625 13.933594L10.042969 14.763672L10.457031 14.208984C11.519088 12.780898 12.780451 11.516762 14.208984 10.455078L14.763672 10.042969L13.935547 7.140625L15.068359 6.4863281L17.154297 8.6445312L17.791016 8.3691406C19.394954 7.6722701 21.119379 7.2018687 22.927734 6.9960938L23.617188 6.9179688L24.347656 4 z M 24 11.003906L22.847656 11.181641C19.331122 11.726289 16.242543 13.568998 14.103516 16.220703L13.369141 17.130859L21.21875 21.662109L21.755859 21.201172C22.214711 20.807871 22.74791 20.498357 23.333984 20.291016L24 20.056641L24 19.349609L24 11.003906 z M 26 11.003906L26 20.054688L26.666016 20.291016C27.25124 20.498352 27.783811 20.807316 28.244141 21.201172L28.783203 21.662109L29.394531 21.308594L36.630859 17.130859L35.896484 16.220703C33.75756 13.569126 30.669864 11.726275 27.152344 11.181641L26 11.003906 z M 22 13.566406L22 18.791016C21.693706 18.939151 21.402815 19.106913 21.123047 19.296875L16.587891 16.679688C18.069414 15.18571 19.90171 14.118898 22 13.566406 z M 28 13.566406C30.0987 14.118802 31.930649 15.1857 33.412109 16.679688L28.878906 19.296875C28.598651 19.106566 28.306633 18.939419 28 18.791016L28 13.566406 z M 12.373047 18.865234L11.951172 19.955078C11.346636 21.517423 11 23.216617 11 25C11 26.783383 11.346636 28.482577 11.951172 30.044922L12.373047 31.134766L20.214844 26.607422L20.087891 25.914062C20.031998 25.608805 20 25.304481 20 25C20 24.695519 20.032001 24.391194 20.087891 24.085938L20.214844 23.392578L12.373047 18.865234 z M 37.626953 18.865234L29.785156 23.392578L29.912109 24.085938C29.968002 24.391195 30 24.695519 30 25C30 25.304481 29.967999 25.608806 29.912109 25.914062L29.785156 26.607422L37.626953 31.134766L38.048828 30.044922C38.653363 28.482577 39 26.783383 39 25C39 23.216617 38.653364 21.517423 38.048828 19.955078L37.626953 18.865234 z M 13.589844 21.876953L18.052734 24.453125C18.037129 24.636825 18 24.809508 18 25C18 25.190492 18.037134 25.363175 18.052734 25.546875L13.589844 28.123047C13.307868 27.109671 13 26.101126 13 25C13 23.898874 13.307864 22.890329 13.589844 21.876953 z M 36.410156 21.876953C36.692136 22.890329 37 23.898874 37 25C37 26.101126 36.692136 27.109671 36.410156 28.123047L31.947266 25.546875C31.962871 25.363175 32 25.190492 32 25C32 24.809508 31.962866 24.636825 31.947266 24.453125L36.410156 21.876953 z M 21.216797 28.337891L20.605469 28.691406L13.369141 32.869141L14.103516 33.779297C16.24244 36.430874 19.330136 38.273725 22.847656 38.818359L24 38.996094L24 29.945312L23.333984 29.708984C22.74876 29.501648 22.216189 29.192684 21.755859 28.798828L21.216797 28.337891 z M 28.78125 28.337891L28.244141 28.798828C27.785289 29.192129 27.25209 29.501643 26.666016 29.708984L26 29.943359L26 30.650391L26 38.996094L27.152344 38.818359C30.668878 38.273711 33.757457 36.431002 35.896484 33.779297L36.630859 32.869141L28.78125 28.337891 z M 21.121094 30.703125C21.401346 30.893434 21.693367 31.060581 22 31.208984L22 36.433594C19.9013 35.881198 18.069351 34.814299 16.587891 33.320312L21.121094 30.703125 z M 28.876953 30.703125L33.412109 33.320312C31.930589 34.81429 30.09829 35.881102 28 36.433594L28 31.208984C28.306294 31.060849 28.597185 30.893087 28.876953 30.703125 z" />
</svg>