<?xml version="1.0" encoding="utf-8"?>
<svg xmlns="http://www.w3.org/2000/svg" viewBox="0 0 50 50" width="515" height="515">
  <path d="M28.5 2 A 1.0001 1.0001 0 0 0 27.529297 2.7578125L27.09375 4.5C25.615508 4.9577126 24.31042 5.742128 23.228516 6.7636719L21.488281 6.2421875 A 1.0001 1.0001 0 0 0 20.333984 6.7011719L18.833984 9.3007812 A 1.0001 1.0001 0 0 0 19.017578 10.53125L20.333984 11.761719C20.163097 12.517903 20 13.277057 20 14C20 14.722943 20.163097 15.482097 20.333984 16.238281L19.017578 17.46875 A 1.0001 1.0001 0 0 0 18.833984 18.699219L20.333984 21.298828 A 1.0001 1.0001 0 0 0 21.488281 21.757812L23.238281 21.232422C24.338232 22.25152 25.644423 23.007548 27.09375 23.498047L27.529297 25.242188 A 1.0001 1.0001 0 0 0 28.5 26L31.5 26 A 1.0001 1.0001 0 0 0 32.470703 25.242188L32.90625 23.5C34.384492 23.042287 35.68958 22.257872 36.771484 21.236328L38.511719 21.757812 A 1.0001 1.0001 0 0 0 39.666016 21.298828L41.166016 18.699219 A 1.0001 1.0001 0 0 0 40.982422 17.46875L39.660156 16.234375C39.831468 15.506879 40 14.781263 40 14C40 13.208336 39.836026 12.493541 39.666016 11.761719L40.982422 10.53125 A 1.0001 1.0001 0 0 0 41.166016 9.3007812L39.666016 6.7011719 A 1.0001 1.0001 0 0 0 38.511719 6.2421875L36.761719 6.7675781C35.661768 5.7484797 34.355577 4.9924521 32.90625 4.5019531L32.470703 2.7578125 A 1.0001 1.0001 0 0 0 31.5 2L28.5 2 z M 29.28125 4L30.71875 4L31 5.1230469L31 5.1992188 A 1.0001 1.0001 0 0 0 31.732422 6.1640625C33.381498 6.6221393 34.809703 7.4346327 35.865234 8.578125 A 1.0001 1.0001 0 0 0 37.046875 8.7949219L37.169922 8.7324219L38.330078 8.3847656L39.037109 9.6113281L38.222656 10.371094L38.152344 10.40625 A 1.0001 1.0001 0 0 0 37.650391 11.617188C37.915252 12.411773 38 13.066667 38 14C38 14.933333 37.90314 15.712077 37.664062 16.349609 A 1.0001 1.0001 0 0 0 38.152344 17.59375L38.222656 17.628906L39.037109 18.388672L38.330078 19.615234L37.169922 19.267578L37.046875 19.205078 A 1.0001 1.0001 0 0 0 35.865234 19.421875C34.792367 20.584148 33.361168 21.47356 31.783203 21.824219 A 1.0001 1.0001 0 0 0 31 22.800781L31 22.876953L30.71875 24L29.28125 24L29 22.876953L29 22.800781 A 1.0001 1.0001 0 0 0 28.267578 21.835938C26.618502 21.377861 25.190297 20.565367 24.134766 19.421875 A 1.0001 1.0001 0 0 0 22.953125 19.205078L22.830078 19.267578L21.669922 19.615234L20.962891 18.388672L21.777344 17.628906L21.847656 17.59375 A 1.0001 1.0001 0 0 0 22.349609 16.382812C22.091775 15.609306 22 14.825926 22 14C22 13.174074 22.09177 12.390696 22.349609 11.617188 A 1.0001 1.0001 0 0 0 21.847656 10.40625L21.777344 10.371094L20.962891 9.6113281L21.669922 8.3847656L22.830078 8.7324219L22.953125 8.7949219 A 1.0001 1.0001 0 0 0 24.134766 8.578125C25.207633 7.4158517 26.638832 6.5264403 28.216797 6.1757812 A 1.0001 1.0001 0 0 0 29 5.1992188L29 5.1230469L29.28125 4 z M 30 9C27.254545 9 25 11.254545 25 14C25 16.745455 27.254545 19 30 19C32.745455 19 35 16.745455 35 14C35 11.254545 32.745455 9 30 9 z M 30 11C31.654545 11 33 12.345455 33 14C33 15.654545 31.654545 17 30 17C28.345455 17 27 15.654545 27 14C27 12.345455 28.345455 11 30 11 z M 12.5 20 A 1.0001 1.0001 0 0 0 11.529297 20.757812L11.09375 22.5C9.6155078 22.957713 8.3104201 23.742128 7.2285156 24.763672L5.4882812 24.242188 A 1.0001 1.0001 0 0 0 4.3339844 24.701172L2.8339844 27.300781 A 1.0001 1.0001 0 0 0 3.0175781 28.53125L4.3339844 29.761719C4.1630971 30.517903 4 31.277057 4 32C4 32.722943 4.1630971 33.482097 4.3339844 34.238281L3.0175781 35.46875 A 1.0001 1.0001 0 0 0 2.8339844 36.699219L4.3339844 39.298828 A 1.0001 1.0001 0 0 0 5.4882812 39.757812L7.2382812 39.232422C8.3382317 40.25152 9.6444227 41.007548 11.09375 41.498047L11.529297 43.242188 A 1.0001 1.0001 0 0 0 12.5 44L15.5 44 A 1.0001 1.0001 0 0 0 16.470703 43.242188L16.90625 41.5C18.384492 41.042287 19.68958 40.257872 20.771484 39.236328L22.511719 39.757812 A 1.0001 1.0001 0 0 0 23.666016 39.298828L25.166016 36.699219 A 1.0001 1.0001 0 0 0 24.982422 35.46875L23.660156 34.234375C23.831468 33.506879 24 32.781263 24 32C24 31.208336 23.836026 30.493541 23.666016 29.761719L24.982422 28.53125 A 1.0001 1.0001 0 0 0 25.166016 27.300781L23.666016 24.701172 A 1.0001 1.0001 0 0 0 22.511719 24.242188L20.761719 24.767578C19.661768 23.74848 18.355577 22.992452 16.90625 22.501953L16.470703 20.757812 A 1.0001 1.0001 0 0 0 15.5 20L12.5 20 z M 13.28125 22L14.71875 22L15 23.123047L15 23.199219 A 1.0001 1.0001 0 0 0 15.732422 24.164062C17.381498 24.622139 18.809703 25.434633 19.865234 26.578125 A 1.0001 1.0001 0 0 0 21.046875 26.794922L21.169922 26.732422L22.330078 26.384766L23.037109 27.611328L22.222656 28.371094L22.152344 28.40625 A 1.0001 1.0001 0 0 0 21.650391 29.617188C21.915252 30.411776 22 31.066667 22 32C22 32.933333 21.903141 33.712077 21.664062 34.349609 A 1.0001 1.0001 0 0 0 22.152344 35.59375L22.222656 35.628906L23.037109 36.388672L22.330078 37.615234L21.169922 37.267578L21.046875 37.205078 A 1.0001 1.0001 0 0 0 19.865234 37.421875C18.792367 38.584148 17.361168 39.47356 15.783203 39.824219 A 1.0001 1.0001 0 0 0 15 40.800781L15 40.876953L14.71875 42L13.28125 42L13 40.876953L13 40.800781 A 1.0001 1.0001 0 0 0 12.267578 39.835938C10.618502 39.377861 9.190297 38.565367 8.1347656 37.421875 A 1.0001 1.0001 0 0 0 6.953125 37.205078L6.8300781 37.267578L5.6699219 37.615234L4.9628906 36.388672L5.7773438 35.628906L5.8476562 35.59375 A 1.0001 1.0001 0 0 0 6.3496094 34.382812C6.0917731 33.609305 6 32.825926 6 32C6 31.174074 6.0917731 30.390695 6.3496094 29.617188 A 1.0001 1.0001 0 0 0 5.8476562 28.40625L5.7773438 28.371094L4.9628906 27.611328L5.6699219 26.384766L6.8300781 26.732422L6.953125 26.794922 A 1.0001 1.0001 0 0 0 8.1347656 26.578125C9.2076333 25.415852 10.638832 24.52644 12.216797 24.175781 A 1.0001 1.0001 0 0 0 13 23.199219L13 23.123047L13.28125 22 z M 35.5 25 A 1.0001 1.0001 0 0 0 34.529297 25.757812L34.09375 27.5C32.615508 27.957713 31.31042 28.742128 30.228516 29.763672L28.488281 29.242188 A 1.0001 1.0001 0 0 0 27.333984 29.701172L25.833984 32.300781 A 1.0001 1.0001 0 0 0 26.017578 33.53125L27.333984 34.761719C27.163097 35.517903 27 36.277057 27 37C27 37.722943 27.163097 38.482097 27.333984 39.238281L26.017578 40.46875 A 1.0001 1.0001 0 0 0 25.833984 41.699219L27.333984 44.298828 A 1.0001 1.0001 0 0 0 28.488281 44.757812L30.238281 44.232422C31.338232 45.25152 32.644423 46.007548 34.09375 46.498047L34.529297 48.242188 A 1.0001 1.0001 0 0 0 35.5 49L38.5 49 A 1.0001 1.0001 0 0 0 39.470703 48.242188L39.90625 46.5C41.384492 46.042287 42.68958 45.257872 43.771484 44.236328L45.511719 44.757812 A 1.0001 1.0001 0 0 0 46.666016 44.298828L48.166016 41.699219 A 1.0001 1.0001 0 0 0 47.982422 40.46875L46.660156 39.234375C46.831468 38.506879 47 37.781263 47 37C47 36.208336 46.836026 35.493541 46.666016 34.761719L47.982422 33.53125 A 1.0001 1.0001 0 0 0 48.166016 32.300781L46.666016 29.701172 A 1.0001 1.0001 0 0 0 45.511719 29.242188L43.761719 29.767578C42.661768 28.74848 41.355577 27.992452 39.90625 27.501953L39.470703 25.757812 A 1.0001 1.0001 0 0 0 38.5 25L35.5 25 z M 14 27C11.254545 27 9 29.254545 9 32C9 34.745455 11.254545 37 14 37C16.745455 37 19 34.745455 19 32C19 29.254545 16.745455 27 14 27 z M 36.28125 27L37.71875 27L38 28.123047L38 28.199219 A 1.0001 1.0001 0 0 0 38.732422 29.164062C40.381498 29.622139 41.809703 30.434633 42.865234 31.578125 A 1.0001 1.0001 0 0 0 44.046875 31.794922L44.169922 31.732422L45.330078 31.384766L46.037109 32.611328L45.222656 33.371094L45.152344 33.40625 A 1.0001 1.0001 0 0 0 44.650391 34.617188C44.915252 35.411776 45 36.066667 45 37C45 37.933333 44.90314 38.712077 44.664062 39.349609 A 1.0001 1.0001 0 0 0 45.152344 40.59375L45.222656 40.628906L46.037109 41.388672L45.330078 42.615234L44.169922 42.267578L44.046875 42.205078 A 1.0001 1.0001 0 0 0 42.865234 42.421875C41.792367 43.584148 40.361168 44.47356 38.783203 44.824219 A 1.0001 1.0001 0 0 0 38 45.800781L38 45.876953L37.71875 47L36.28125 47L36 45.876953L36 45.800781 A 1.0001 1.0001 0 0 0 35.267578 44.835938C33.618502 44.37786 32.190297 43.565367 31.134766 42.421875 A 1.0001 1.0001 0 0 0 29.953125 42.205078L29.830078 42.267578L28.669922 42.615234L27.962891 41.388672L28.777344 40.628906L28.847656 40.59375 A 1.0001 1.0001 0 0 0 29.349609 39.382812C29.091775 38.609306 29 37.825926 29 37C29 36.174074 29.09177 35.390695 29.349609 34.617188 A 1.0001 1.0001 0 0 0 28.847656 33.40625L28.777344 33.371094L27.962891 32.611328L28.669922 31.384766L29.830078 31.732422L29.953125 31.794922 A 1.0001 1.0001 0 0 0 31.134766 31.578125C32.207633 30.415852 33.638832 29.52644 35.216797 29.175781 A 1.0001 1.0001 0 0 0 36 28.199219L36 28.123047L36.28125 27 z M 14 29C15.654545 29 17 30.345455 17 32C17 33.654545 15.654545 35 14 35C12.345455 35 11 33.654545 11 32C11 30.345455 12.345455 29 14 29 z M 37 32C34.254545 32 32 34.254545 32 37C32 39.745455 34.254545 42 37 42C39.745455 42 42 39.745455 42 37C42 34.254545 39.745455 32 37 32 z M 37 34C38.654545 34 40 35.345455 40 37C40 38.654545 38.654545 40 37 40C35.345455 40 34 38.654545 34 37C34 35.345455 35.345455 34 37 34 z" />
</svg>