<?xml version="1.0" encoding="utf-8"?>
<svg xmlns="http://www.w3.org/2000/svg" viewBox="0 0 50 50" width="515" height="515">
  <path d="M40 0L40 5L33 5L33 11L28 11L28 7L18 7L18 11L13 11L13 24L10 24L10 18L0 18L0 32L10 32L10 26L13 26L13 39L18 39L18 43L28 43L28 39L33 39L33 45L40 45L40 50L50 50L50 40L40 40L40 43L35 43L35 33L40 33L40 36L50 36L50 26L40 26L40 31L33 31L33 37L28 37L28 33L18 33L18 37L15 37L15 13L18 13L18 17L28 17L28 13L33 13L33 19L40 19L40 24L50 24L50 14L40 14L40 17L35 17L35 7L40 7L40 10L50 10L50 0 Z M 42 2L48 2L48 8L42 8 Z M 20 9L26 9L26 15L20 15 Z M 42 16L48 16L48 22L42 22 Z M 2 20L8 20L8 30L2 30 Z M 42 28L48 28L48 34L42 34 Z M 20 35L26 35L26 41L20 41 Z M 42 42L48 42L48 48L42 48Z" />
</svg>