<?xml version="1.0" encoding="utf-8"?>
<svg xmlns="http://www.w3.org/2000/svg" viewBox="0 0 50 50" width="515" height="515">
  <path d="M37.765625 1.445313L26.4375 17.671875L23.394531 19.703125L11.324219 24.042969C11.082031 24.097656 9.878906 24.398438 8.554688 25.25C8.136719 25.417969 5.851563 26.324219 4.101563 28.34375C2.28125 30.4375 1.121094 33.898438 3.125 38.453125L3.039063 38.0625L3.398438 38.0625C2.785156 39.113281 2.238281 39.707031 2.238281 39.707031L1.960938 40L1.960938 44.8125C1.960938 44.8125 1.945313 45.566406 2.34375 46.355469C2.738281 47.140625 3.726563 48 5.160156 48L9.265625 48L9.195313 46.9375C9.195313 46.9375 9.15625 46.070313 8.789063 45.144531C8.601563 44.683594 8.332031 44.179688 7.882813 43.757813C7.667969 43.558594 7.296875 43.53125 7 43.398438L7 43.242188C7.0625 43.136719 7.171875 42.964844 7.378906 42.703125C7.796875 42.179688 8.597656 41.339844 10 40.203125L10 44.8125C10 44.8125 9.984375 45.566406 10.378906 46.355469C10.777344 47.140625 11.765625 48 13.199219 48L17.066406 48L17.097656 47.03125C17.097656 47.03125 17.144531 46.140625 16.824219 45.183594C16.664063 44.703125 16.40625 44.175781 15.9375 43.738281C15.714844 43.527344 15.316406 43.511719 15 43.378906L15 43.273438C15.09375 43.078125 16.21875 40.847656 20.386719 36.46875C22.296875 36.628906 24.308594 36.785156 26 36.878906L26 44.867188L26.003906 44.921875C26.003906 44.921875 26.085938 45.675781 26.546875 46.429688C27.011719 47.183594 28.015625 48 29.449219 48L34.742188 48L34.59375 46.867188C34.59375 46.867188 34.480469 45.976563 34.019531 45.050781C33.675781 44.367188 32.9375 43.722656 32 43.355469L32 35.828125L32.011719 35.824219L32.226563 35.609375C32.699219 35.132813 34.1875 34.101563 35.539063 32.65625C36.535156 31.59375 37.496094 30.257813 38.003906 28.59375C38.136719 28.175781 38.273438 27.5 38.472656 26.507813C38.671875 25.511719 38.90625 24.273438 39.128906 23.015625C39.351563 21.757813 39.566406 20.488281 39.726563 19.421875C39.820313 18.796875 39.839844 18.445313 39.886719 18L44.71875 18C45.121094 18 45.738281 17.949219 46.421875 17.6875C46.761719 17.554688 47.125 17.367188 47.441406 17.039063C47.757813 16.710938 47.996094 16.203125 48 15.667969C48.0625 14.65625 47.996094 13.894531 47.996094 13.894531L47.933594 13.292969L47.367188 13.070313C47.367188 13.070313 45.972656 12.519531 44.578125 11.96875C43.882813 11.695313 43.1875 11.417969 42.660156 11.214844C42.535156 11.164063 42.457031 11.132813 42.355469 11.09375C42.332031 10.816406 42.34375 10.527344 42.277344 10.265625C42.15625 9.785156 41.898438 9.296875 41.503906 8.941406C40.863281 8.363281 39.988281 8.144531 38.878906 7.945313C38.589844 6.175781 38.1875 3.828125 38.1875 3.828125 Z M 36.621094 6.578125C36.789063 7.542969 36.882813 8.066406 37.019531 8.945313L37.136719 9.664063L37.855469 9.777344C39.308594 10.007813 39.996094 10.273438 40.167969 10.425781C40.25 10.503906 40.285156 10.546875 40.339844 10.75C40.390625 10.957031 40.421875 11.308594 40.421875 11.800781L40.421875 12.800781L41.234375 12.800781C41.257813 12.808594 41.269531 12.816406 41.296875 12.828125C41.449219 12.886719 41.667969 12.972656 41.929688 13.074219C42.453125 13.28125 43.148438 13.554688 43.84375 13.828125C44.925781 14.257813 45.570313 14.511719 46.003906 14.683594C46.015625 14.933594 46.042969 15.03125 46 15.589844L46 15.660156C46 15.6875 46.023438 15.625 46 15.65625C45.972656 15.683594 45.863281 15.757813 45.703125 15.820313C45.382813 15.945313 44.859375 16 44.71875 16L38.003906 16L38 16.996094C38 17.21875 37.902344 18.089844 37.75 19.125C37.59375 20.164063 37.382813 21.421875 37.160156 22.667969C36.9375 23.910156 36.707031 25.136719 36.511719 26.113281C36.316406 27.09375 36.128906 27.890625 36.09375 28L36.09375 28.007813C35.703125 29.285156 34.945313 30.367188 34.082031 31.285156L34.078125 31.285156C33 32.441406 31.875 33.21875 31.0625 33.96875L30 34.171875L30 45L31 45C31.644531 45 31.941406 45.371094 32.230469 45.949219C32.242188 45.972656 32.234375 45.972656 32.25 46L29.449219 46C28.679688 46 28.460938 45.722656 28.25 45.378906C28.046875 45.046875 28.003906 44.726563 28 44.714844L28 35L27.042969 34.960938C22.910156 34.785156 14.019531 33.90625 14.019531 33.90625L13.429688 33.84375L13.09375 34.332031C13.09375 34.332031 11.875 36.132813 8.894531 38.519531C7.300781 39.796875 6.367188 40.769531 5.816406 41.453125C5.542969 41.796875 5.363281 42.070313 5.246094 42.273438C5.128906 42.476563 5.054688 42.671875 5.054688 42.671875L5 42.832031L5 44.980469L5.976563 45C6.238281 45.003906 6.359375 45.070313 6.507813 45.214844C6.660156 45.359375 6.816406 45.605469 6.929688 45.886719C6.953125 45.941406 6.9375 45.945313 6.953125 46L5.160156 46C4.390625 46 4.285156 45.765625 4.128906 45.457031C3.972656 45.148438 3.960938 44.8125 3.960938 44.8125L3.960938 40.679688C4.433594 40.148438 7.117188 37.003906 7.117188 31.597656C7.117188 29.183594 8.25 27.890625 9.445313 27.058594C10.636719 26.222656 11.816406 25.980469 11.816406 25.980469L11.890625 25.96875L24.300781 21.5L27.859375 19.125 Z M 5.273438 30.078125C5.183594 30.554688 5.117188 31.054688 5.117188 31.597656C5.117188 33.3125 4.785156 34.757813 4.359375 35.964844C3.601563 33.257813 4.242188 31.433594 5.273438 30.078125 Z M 14.359375 35.9375C14.601563 35.960938 16.238281 36.113281 17.855469 36.253906C14.226563 40.265625 13.097656 42.570313 13.097656 42.570313L13 42.773438L13 45L14 45C14.324219 45 14.4375 45.074219 14.574219 45.199219C14.707031 45.324219 14.835938 45.546875 14.925781 45.816406C14.953125 45.902344 14.933594 45.914063 14.953125 46L13.199219 46C12.429688 46 12.324219 45.765625 12.167969 45.457031C12.011719 45.148438 12 44.8125 12 44.8125L12 40.578125C12.0625 40.4375 12.542969 39.363281 13.328125 37.152344C13.824219 36.609375 14.179688 36.171875 14.359375 35.9375Z" />
</svg>