<?xml version="1.0" encoding="utf-8"?>
<svg xmlns="http://www.w3.org/2000/svg" viewBox="0 0 50 50" width="515" height="515">
  <path d="M2 9L2 29L13 29L13 31C13 33.007813 12.382813 34.804688 11.441406 36.058594C10.503906 37.308594 9.296875 38 8 38L7 38L7 45L8 45C15.71875 45 22 38.71875 22 31L22 9 Z M 28 9L28 29L39 29L39 31C39 33.007813 38.382813 34.804688 37.441406 36.058594C36.503906 37.308594 35.296875 38 34 38L33 38L33 45L34 45C41.71875 45 48 38.71875 48 31L48 9 Z M 4 11L20 11L20 31C20 37.285156 15.144531 42.265625 9 42.796875L9 39.734375C10.585938 39.425781 12.03125 38.605469 13.042969 37.253906C14.273438 35.613281 15 33.410156 15 31L15 27L4 27 Z M 30 11L46 11L46 31C46 37.285156 41.144531 42.265625 35 42.796875L35 39.734375C36.585938 39.425781 38.03125 38.605469 39.042969 37.253906C40.273438 35.613281 41 33.410156 41 31L41 27L30 27Z" />
</svg>