<?xml version="1.0" encoding="utf-8"?>
<svg xmlns="http://www.w3.org/2000/svg" viewBox="0 0 50 50" width="515" height="515">
  <path d="M25 4C21.580769 4 19.067088 4.8895731 17.251953 6.2988281C15.436819 7.7080831 14.351209 9.5847938 13.578125 11.425781C12.805041 13.266769 12.322151 15.098767 11.777344 16.490234C11.232536 17.881702 10.67638 18.695601 9.953125 18.962891C5.1339232 20.58258 2 24.645647 2 30.099609 A 1.0001 1.0001 0 0 0 2.9511719 31.099609C5.383277 31.217673 6.7214845 31.798064 7.5019531 32.498047C8.2824218 33.19803 8.6081444 34.091814 8.7890625 35.166016C8.9699806 36.240217 8.9586255 37.433433 9.1582031 38.570312C9.2579921 39.138753 9.4142345 39.707416 9.7441406 40.232422C10.074047 40.757428 10.60653 41.211099 11.267578 41.443359 A 1.0001 1.0001 0 0 0 11.275391 41.445312C13.19377 42.1016 14.503932 42.505759 15.412109 43.029297C16.320287 43.552834 16.91311 44.162157 17.605469 45.546875C18.139424 46.713952 18.861197 47.885577 20.072266 48.742188C21.294733 49.606859 22.956362 50.099609 25.199219 50.099609 A 1.0001 1.0001 0 0 0 25.214844 50.099609C28.839052 50.045519 30.740805 48.336659 31.861328 46.703125C32.42159 45.886358 32.838627 45.109076 33.267578 44.542969C33.696529 43.976861 34.081157 43.635597 34.681641 43.458984 A 1.0001 1.0001 0 0 0 34.699219 43.453125C37.029506 42.721523 38.41414 41.506809 39.177734 40.164062C39.941329 38.821317 40.124606 37.446887 40.394531 36.367188C40.664456 35.287487 40.941476 34.576541 41.732422 34.050781C42.523368 33.525021 44.048268 33.130062 46.941406 33.298828 A 1.0001 1.0001 0 0 0 48 32.300781C48 29.750781 48.03206 26.949201 46.986328 24.439453C45.941748 21.932461 43.705099 19.831708 39.732422 18.927734C39.471325 18.865564 39.252731 18.718872 38.982422 18.365234C38.712113 18.011597 38.433437 17.46131 38.164062 16.78125C37.625315 15.42113 37.116588 13.565276 36.320312 11.685547C35.524038 9.805818 34.422543 7.8768717 32.621094 6.4121094C30.819644 4.9473471 28.333862 4 25 4 z M 25 6C27.966138 6 29.917074 6.7901529 31.359375 7.9628906C32.801676 9.1356283 33.74979 10.744573 34.478516 12.464844C35.207242 14.185115 35.699686 15.990198 36.304688 17.517578C36.607188 18.281268 36.935543 18.982153 37.392578 19.580078C37.849613 20.178003 38.478675 20.685213 39.267578 20.873047 A 1.0001 1.0001 0 0 0 39.279297 20.875C42.798427 21.672669 44.3094 23.218733 45.138672 25.208984C45.861856 26.944627 45.950823 29.124024 45.96875 31.339844C43.563904 31.316174 41.787566 31.613935 40.625 32.386719C39.272196 33.285959 38.760153 34.662512 38.455078 35.882812C38.150003 37.103113 37.969608 38.241575 37.439453 39.173828C36.909298 40.106082 36.069322 40.928477 34.099609 41.546875C33.009842 41.872877 32.238574 42.590613 31.673828 43.335938C31.105904 44.085454 30.690129 44.876532 30.212891 45.572266C29.25901 46.962862 28.260726 48.050472 25.189453 48.097656C23.239458 48.095956 22.052401 47.693504 21.226562 47.109375C20.39903 46.524047 19.874728 45.707605 19.410156 44.685547 A 1.0001 1.0001 0 0 0 19.394531 44.652344C18.586893 43.037053 17.628932 41.998338 16.412109 41.296875C15.197306 40.596577 13.80851 40.198469 11.931641 39.556641C11.667688 39.463901 11.560719 39.364057 11.4375 39.167969C11.314281 38.971881 11.204117 38.653044 11.128906 38.224609C10.978484 37.367739 10.980801 36.134783 10.761719 34.833984C10.542637 33.533186 10.055469 32.10158 8.8359375 31.007812C7.804245 30.082513 6.191254 29.535346 4.1132812 29.283203C4.3995185 25.036175 6.7160888 22.149975 10.617188 20.849609 A 1.0001 1.0001 0 0 0 10.646484 20.837891C12.22323 20.25518 13.029182 18.780408 13.640625 17.21875C14.252068 15.657092 14.719959 13.870731 15.421875 12.199219C16.123787 10.527708 17.0374 8.9977762 18.478516 7.8789062C19.919631 6.7600364 21.919231 6 25 6 z M 19.5 14C18.7 14 18 15.3 18 17C18 18.7 18.7 20 19.5 20C20.3 20 21 18.7 21 17C21 15.3 20.3 14 19.5 14 z M 26.5 14C25.7 14 25 15.3 25 17C25 18.7 25.7 20 26.5 20C27.3 20 28 18.7 28 17C28 15.3 27.3 14 26.5 14 z" />
</svg>