<?xml version="1.0" encoding="utf-8"?>
<svg xmlns="http://www.w3.org/2000/svg" viewBox="0 0 50 50" width="515" height="515">
  <path d="M25 0C22.617188 0 20.484375 1.199219 19.21875 3.03125C19.175781 3.050781 19.132813 3.070313 19.09375 3.09375C17.984375 3.570313 16.53125 4.300781 15.3125 5.6875C14.09375 7.074219 13.160156 9.101563 13 11.9375C12.984375 12.214844 13.082031 12.484375 13.269531 12.683594C13.460938 12.886719 13.722656 13 14 13L18 13C18.550781 13 19 12.550781 19 12C19 11.507813 19.011719 11.089844 19.03125 10.65625C20.265625 12.660156 22.484375 14 25 14C27.515625 14 29.734375 12.660156 30.96875 10.65625C30.988281 11.089844 31 11.507813 31 12C31 12.550781 31.449219 13 32 13L36 13C36.277344 13 36.539063 12.886719 36.730469 12.683594C36.917969 12.484375 37.015625 12.214844 37 11.9375C36.839844 9.101563 35.90625 7.074219 34.6875 5.6875C33.46875 4.300781 32.015625 3.570313 30.90625 3.09375C30.867188 3.082031 30.824219 3.070313 30.78125 3.0625C29.519531 1.21875 27.394531 0 25 0 Z M 25 2C27.773438 2 30 4.226563 30 7C30 9.773438 27.773438 12 25 12C22.226563 12 20 9.773438 20 7C20 4.226563 22.226563 2 25 2 Z M 17.5625 6.375C17.300781 7.492188 17.125 8.992188 17.0625 11L15.21875 11C15.5 9.222656 16.042969 7.878906 16.8125 7C17.039063 6.742188 17.316406 6.582031 17.5625 6.375 Z M 32.4375 6.375C32.683594 6.582031 32.960938 6.742188 33.1875 7C33.957031 7.878906 34.5 9.222656 34.78125 11L32.9375 11C32.875 8.992188 32.699219 7.492188 32.4375 6.375 Z M 22.90625 15C20.199219 15 17.703125 16.648438 16.75 19.15625L12.1875 31.1875L12.15625 31.25L12.1875 31.25C11.585938 32.695313 12.371094 34.382813 13.90625 34.84375C14.171875 34.921875 14.445313 34.964844 14.71875 34.96875L14.46875 35.65625C14.355469 35.960938 14.402344 36.304688 14.585938 36.570313C14.773438 36.839844 15.078125 37 15.40625 37L20 37L20 47C20 48.644531 21.355469 50 23 50C23.765625 50 24.46875 49.699219 25 49.21875C25.53125 49.699219 26.234375 50 27 50C28.644531 50 30 48.644531 30 47L30 37L34.59375 37C34.921875 37 35.226563 36.839844 35.414063 36.570313C35.597656 36.304688 35.644531 35.960938 35.53125 35.65625L35.28125 35C35.476563 34.980469 35.726563 34.914063 36 34.8125L36 34.84375C36.039063 34.832031 36.054688 34.792969 36.09375 34.78125C36.117188 34.769531 36.132813 34.792969 36.15625 34.78125L36.15625 34.75C37.597656 34.203125 38.191406 32.609375 37.75 31.28125C37.75 31.269531 37.75 31.261719 37.75 31.25L33.125 19.15625C32.171875 16.648438 29.707031 15 27 15 Z M 22.90625 17L27 17C28.894531 17 30.605469 18.148438 31.25 19.84375L35.84375 31.90625C35.980469 32.320313 35.832031 32.808594 35.40625 32.9375C35.351563 32.953125 35.300781 32.976563 35.25 33C35.289063 32.980469 35.292969 33 35.09375 33C34.878906 33 34.503906 32.753906 34.34375 32.4375C34.335938 32.421875 34.320313 32.421875 34.3125 32.40625L34.125 31.9375C34.117188 31.90625 34.105469 31.875 34.09375 31.84375L30.9375 23.625C30.730469 23.105469 30.144531 22.855469 29.625 23.0625C29.105469 23.269531 28.855469 23.855469 29.0625 24.375L32.21875 32.46875C32.222656 32.53125 32.234375 32.59375 32.25 32.65625L33.15625 35L16.84375 35L17.75 32.65625C17.777344 32.585938 17.800781 32.511719 17.8125 32.4375L20.9375 24.375C21.144531 23.855469 20.894531 23.269531 20.375 23.0625C19.855469 22.855469 19.269531 23.105469 19.0625 23.625L15.65625 32.4375C15.433594 32.988281 15.089844 33.113281 14.5 32.9375C14.054688 32.804688 13.847656 32.339844 14 32C14.011719 31.988281 14.019531 31.980469 14.03125 31.96875L18.625 19.84375C19.269531 18.148438 21.011719 17 22.90625 17 Z M 22 37L24 37L24 47C24 47.554688 23.554688 48 23 48C22.445313 48 22 47.554688 22 47 Z M 26 37L28 37L28 47C28 47.554688 27.554688 48 27 48C26.445313 48 26 47.554688 26 47Z" />
</svg>