<?xml version="1.0" encoding="utf-8"?>
<svg xmlns="http://www.w3.org/2000/svg" viewBox="0 0 50 50" width="515" height="515">
  <path d="M25 4C25.566406 4 26.097656 4.21875 26.496094 4.621094L45.378906 23.503906C46.207031 24.328125 46.207031 25.671875 45.378906 26.496094L26.496094 45.378906C26.097656 45.78125 25.566406 46 25 46C24.433594 46 23.902344 45.78125 23.503906 45.378906L4.621094 26.496094C3.792969 25.671875 3.792969 24.328125 4.621094 23.503906L16.941406 11.183594L19.214844 13.457031C18.667969 15.488281 19.21875 17.703125 20.757813 19.242188C21.125 19.609375 21.542969 19.925781 22 20.1875L22 29.816406C20.179688 30.867188 19 32.824219 19 35C19 38.308594 21.691406 41 25 41C28.308594 41 31 38.308594 31 35C31 32.824219 29.820313 30.867188 28 29.816406L28 22.242188L29.214844 23.457031C28.667969 25.488281 29.21875 27.703125 30.757813 29.242188C31.890625 30.375 33.398438 31 35 31C36.601563 31 38.109375 30.375 39.242188 29.242188C41.582031 26.902344 41.582031 23.097656 39.242188 20.757813C38.113281 19.628906 36.617188 19.007813 35.019531 19.007813C34.492188 19.007813 33.964844 19.078125 33.457031 19.214844L30.785156 16.542969C31.332031 14.511719 30.78125 12.296875 29.242188 10.757813C28.113281 9.628906 26.617188 9.007813 25.019531 9.007813C24.492188 9.007813 23.964844 9.078125 23.457031 9.214844L21.183594 6.941406L23.503906 4.621094C23.902344 4.21875 24.433594 4 25 4 M 25 2C23.945313 2 22.890625 2.402344 22.089844 3.207031L18.355469 6.941406L22.976563 11.5625C23.605469 11.195313 24.3125 11.007813 25.019531 11.007813C26.035156 11.007813 27.050781 11.394531 27.828125 12.171875C29.144531 13.488281 29.335938 15.488281 28.433594 17.019531L32.976563 21.5625C33.605469 21.195313 34.3125 21.007813 35.019531 21.007813C36.035156 21.007813 37.050781 21.394531 37.828125 22.171875C39.390625 23.734375 39.390625 26.265625 37.828125 27.828125C37.046875 28.609375 36.023438 29 35 29C33.976563 29 32.953125 28.609375 32.171875 27.828125C30.855469 26.511719 30.664063 24.511719 31.566406 22.976563L27.023438 18.433594C26.699219 18.625 26.355469 18.765625 26 18.855469L26 31.140625C27.722656 31.585938 29 33.136719 29 35C29 37.210938 27.210938 39 25 39C22.792969 39 21 37.210938 21 35C21 33.136719 22.277344 31.585938 24 31.140625L24 18.855469C23.332031 18.683594 22.695313 18.351563 22.171875 17.828125C20.855469 16.511719 20.664063 14.511719 21.566406 12.980469L16.941406 8.355469L3.207031 22.089844C1.597656 23.695313 1.597656 26.304688 3.207031 27.910156L22.089844 46.792969C22.890625 47.597656 23.945313 48 25 48C26.054688 48 27.109375 47.597656 27.910156 46.792969L46.792969 27.910156C48.402344 26.304688 48.402344 23.695313 46.792969 22.089844L27.910156 3.207031C27.109375 2.402344 26.054688 2 25 2Z" />
</svg>