<?xml version="1.0" encoding="utf-8"?>
<svg xmlns="http://www.w3.org/2000/svg" viewBox="0 0 50 50" width="515" height="515">
  <path d="M16 4C11.59375 4 8 7.59375 8 12C8 16.40625 11.59375 20 16 20C20.40625 20 24 16.40625 24 12C24 7.59375 20.40625 4 16 4 Z M 16 6C19.324219 6 22 8.675781 22 12C22 15.324219 19.324219 18 16 18C12.675781 18 10 15.324219 10 12C10 8.675781 12.675781 6 16 6 Z M 29 16C28.449219 16 28 16.449219 28 17L28 27C28 27.40625 28.246094 27.773438 28.625 27.925781L26.753906 29.695313L22.734375 25.324219C22.691406 25.273438 22.636719 25.226563 22.582031 25.183594C20.84375 23.234375 18.3125 22 15.5 22C10.617188 22 6.664063 25.738281 6.144531 30.484375C6.050781 30.640625 6 30.816406 6 31L6 47C6 47.550781 6.449219 48 7 48L24 48C24.550781 48 25 47.550781 25 47L25 41C25.003906 40.640625 24.816406 40.304688 24.503906 40.121094C24.191406 39.941406 23.808594 39.941406 23.496094 40.121094C23.183594 40.304688 22.996094 40.640625 23 41L23 46L8 46L8 31.214844C8.011719 31.164063 8.019531 31.109375 8.023438 31.058594C8.253906 27.117188 11.496094 24 15.5 24C18.019531 24 20.230469 25.234375 21.589844 27.132813C21.691406 27.273438 21.824219 27.382813 21.980469 27.457031L25.96875 31.796875C26.152344 31.996094 26.40625 32.109375 26.671875 32.121094C26.941406 32.128906 27.199219 32.03125 27.394531 31.847656L30.6875 28.726563C30.695313 28.71875 30.699219 28.714844 30.707031 28.707031C31.039063 28.375 31.324219 28.234375 31.769531 28.128906C32.21875 28.027344 32.832031 28 33.632813 28L40.800781 28C40.351563 29.71875 38.863281 31 37 31C36.371094 31 35.78125 30.839844 35.234375 30.566406C34.792969 30.347656 34.261719 30.480469 33.976563 30.875C33.890625 30.996094 33.828125 31.074219 33.78125 31.121094L28.121094 36.777344C27.332031 37.566406 26.082031 37.566406 25.292969 36.777344L18.222656 29.707031C17.972656 29.445313 17.597656 29.339844 17.25 29.433594C16.898438 29.523438 16.625 29.796875 16.535156 30.148438C16.441406 30.496094 16.546875 30.871094 16.808594 31.121094L23.878906 38.191406C25.433594 39.746094 27.980469 39.746094 29.535156 38.191406L35.171875 32.558594C35.757813 32.757813 36.332031 33 37 33C39.960938 33 42.429688 30.828125 42.90625 28L45 28C45.550781 28 46 27.550781 46 27L46 17C46 16.449219 45.550781 16 45 16 Z M 30 18L44 18L44 26L30 26Z" />
</svg>