<?xml version="1.0" encoding="utf-8"?>
<svg xmlns="http://www.w3.org/2000/svg" viewBox="0 0 50 50" width="515" height="515">
  <path d="M10.5 9C10.132813 9 9.578125 9.167969 9.1875 9.5C8.796875 9.832031 8.488281 10.273438 8.0625 10.96875C7.738281 11.496094 7.21875 12.621094 6.4375 14.28125C5.65625 15.941406 4.6875 18.015625 3.75 20.0625C1.875 24.152344 0.09375 28.09375 0.09375 28.09375C-0.0820313 28.390625 -0.09375 28.753906 0.0625 29.0625C0.0703125 29.082031 0.0820313 29.105469 0.09375 29.125C0.148438 29.308594 0.210938 29.46875 0.3125 29.59375C0.496094 29.816406 0.695313 29.921875 0.84375 30C1.144531 30.160156 1.355469 30.226563 1.5 30.3125C1.789063 30.488281 2 30.527344 2 31.6875C2 34.023438 2.664063 36.609375 4.46875 38.625C6.273438 40.640625 9.199219 42 13.40625 42C16.816406 42 19.355469 40.886719 20.90625 38.875C22.457031 36.863281 23 34.121094 23 31L23 28.5625C23.351563 28.339844 23.972656 28 25 28C26.027344 28 26.648438 28.339844 27 28.5625L27 31C27 34.121094 27.542969 36.863281 29.09375 38.875C30.644531 40.886719 33.183594 42 36.59375 42C40.800781 42 43.726563 40.65625 45.53125 38.65625C47.335938 36.65625 48 34.101563 48 31.8125C48 30.59375 48.226563 30.53125 48.5 30.375C48.636719 30.296875 48.824219 30.242188 49.125 30.09375C49.277344 30.019531 49.460938 29.910156 49.65625 29.6875C49.804688 29.515625 49.917969 29.273438 49.96875 29.03125C50.105469 28.726563 50.082031 28.375 49.90625 28.09375C49.90625 28.09375 48.125 24.152344 46.25 20.0625C45.3125 18.015625 44.34375 15.941406 43.5625 14.28125C42.78125 12.621094 42.261719 11.496094 41.9375 10.96875C41.511719 10.273438 41.203125 9.832031 40.8125 9.5C40.421875 9.167969 39.867188 9 39.5 9C39.050781 9 38.546875 9.210938 38.1875 9.53125C37.828125 9.851563 37.53125 10.285156 37.15625 10.875C36.566406 11.859375 36.15625 12.4375 36.15625 12.4375C35.84375 12.902344 35.972656 13.53125 36.4375 13.84375C36.902344 14.15625 37.53125 14.027344 37.84375 13.5625C37.84375 13.5625 38.246094 12.929688 38.84375 11.9375C38.851563 11.921875 38.835938 11.921875 38.84375 11.90625C39.144531 11.433594 39.382813 11.175781 39.5 11.0625C39.613281 11.160156 39.882813 11.4375 40.25 12.03125C40.324219 12.152344 41.003906 13.476563 41.78125 15.125C42.558594 16.773438 43.5 18.863281 44.4375 20.90625C45.820313 23.917969 46.519531 25.488281 47.125 26.8125C46.839844 26.75 46.585938 26.683594 46.25 26.625C44.132813 26.257813 40.941406 26 36.40625 26C33.464844 26 30.472656 26.660156 28.1875 26.96875C27.71875 26.640625 26.699219 26 25 26C23.300781 26 22.28125 26.640625 21.8125 26.96875C19.527344 26.660156 16.535156 26 13.59375 26C9.058594 26 5.863281 26.242188 3.75 26.59375C3.414063 26.648438 3.15625 26.71875 2.875 26.78125C3.484375 25.449219 4.1875 23.90625 5.5625 20.90625C6.5 18.863281 7.441406 16.773438 8.21875 15.125C8.996094 13.476563 9.675781 12.152344 9.75 12.03125L9.75 12C10.105469 11.429688 10.390625 11.160156 10.5 11.0625C10.617188 11.175781 10.855469 11.433594 11.15625 11.90625C11.164063 11.921875 11.148438 11.921875 11.15625 11.9375C11.753906 12.929688 12.15625 13.5625 12.15625 13.5625C12.46875 14.027344 13.097656 14.15625 13.5625 13.84375C14.027344 13.53125 14.15625 12.902344 13.84375 12.4375C13.84375 12.4375 13.433594 11.859375 12.84375 10.875C12.46875 10.285156 12.171875 9.851563 11.8125 9.53125C11.453125 9.210938 10.949219 9 10.5 9 Z M 13.59375 28C16.042969 28 18.679688 28.570313 21 28.90625L21 31C21 33.878906 20.460938 36.136719 19.3125 37.625C18.164063 39.113281 16.398438 40 13.40625 40C9.613281 40 7.332031 38.839844 5.9375 37.28125C4.542969 35.722656 4 33.652344 4 31.6875C4 30.265625 3.398438 29.386719 2.78125 28.875C3.160156 28.769531 3.46875 28.667969 4.09375 28.5625C6.03125 28.238281 9.128906 28 13.59375 28 Z M 36.40625 28C40.871094 28 43.972656 28.261719 45.90625 28.59375C46.554688 28.707031 46.871094 28.820313 47.25 28.9375C46.613281 29.441406 46 30.34375 46 31.8125C46 33.722656 45.457031 35.765625 44.0625 37.3125C42.667969 38.859375 40.386719 40 36.59375 40C33.601563 40 31.835938 39.113281 30.6875 37.625C29.539063 36.136719 29 33.878906 29 31L29 28.90625C31.320313 28.570313 33.957031 28 36.40625 28Z" />
</svg>