<?xml version="1.0" encoding="utf-8"?>
<svg xmlns="http://www.w3.org/2000/svg" viewBox="0 0 50 50" width="515" height="515">
  <path d="M25 2C21.695313 2 19 4.699219 19 8C19 11.300781 21.695313 14 25 14C28.300781 14 31 11.300781 31 8C31 4.699219 28.300781 2 25 2 Z M 25 4C27.21875 4 29 5.777344 29 8C29 10.222656 27.21875 12 25 12C22.777344 12 21 10.222656 21 8C21 5.777344 22.777344 4 25 4 Z M 25.027344 15C20.625 15 18.054688 16.167969 16.625 17.628906C15.195313 19.089844 15 20.714844 15 21.402344L15 31.199219C15 32.734375 16.261719 34 17.796875 34L19 34L19 45.332031C19 46.792969 20.203125 48 21.667969 48L28.332031 48C29.792969 48 31 46.792969 31 45.332031L31 34L32.199219 34C33.734375 34 35 32.734375 35 31.199219L35 21.402344C35 20.730469 34.820313 19.097656 33.402344 17.632813C31.984375 16.167969 29.429688 15 25.027344 15 Z M 25.027344 17C29.082031 17 31.007813 18.035156 31.964844 19.023438C32.921875 20.011719 33 21.078125 33 21.402344L33 31.199219C33 31.644531 32.644531 32 32.199219 32L31 32L31 24C31 23.730469 30.894531 23.46875 30.707031 23.277344C30.515625 23.089844 30.253906 22.984375 29.984375 22.984375C29.433594 22.992188 28.992188 23.449219 29 24L29 45.332031C29 45.707031 28.703125 46 28.332031 46L21.667969 46C21.292969 46 21 45.707031 21 45.332031L21 24C21 23.730469 20.894531 23.46875 20.707031 23.277344C20.515625 23.089844 20.253906 22.984375 19.984375 22.984375C19.433594 22.992188 18.992188 23.449219 19 24L19 32L17.796875 32C17.351563 32 17 31.644531 17 31.199219L17 21.402344C17 21.097656 17.085938 20.019531 18.054688 19.027344C19.023438 18.035156 20.96875 17 25.027344 17 Z M 13.355469 32.765625C6.945313 36.113281 2.902344 42.023438 1.046875 47.6875C0.878906 48.214844 1.164063 48.777344 1.6875 48.949219C1.792969 48.984375 1.898438 49 2 49C2.421875 49 2.8125 48.734375 2.953125 48.3125C3.632813 46.222656 4.644531 44.101563 5.976563 42.105469C6.25 41.707031 6.769531 40.9375 7.1875 40.457031C9.070313 38.089844 11.476563 36.003906 14.410156 34.488281C13.945313 34 13.578125 33.417969 13.355469 32.765625 Z M 36.789063 32.84375C36.550781 33.492188 36.167969 34.066406 35.691406 34.546875C38.578125 36.058594 40.949219 38.117188 42.8125 40.457031C43.125 40.792969 43.726563 41.6875 44.019531 42.105469C45.355469 44.101563 46.367188 46.222656 47.046875 48.3125C47.1875 48.734375 47.578125 49 48 49C48.101563 49 48.207031 48.984375 48.3125 48.949219C48.835938 48.777344 49.121094 48.214844 48.949219 47.6875C47.109375 42.066406 43.113281 36.207031 36.789063 32.84375 Z M 32.941406 37C32.8125 37.007813 32.683594 37.039063 32.5625 37.097656C32.0625 37.347656 31.859375 37.949219 32.097656 38.4375C32.28125 38.800781 32.628906 39 33 39C33.148438 39 33.300781 38.96875 33.4375 38.902344C33.9375 38.652344 34.140625 38.050781 33.902344 37.5625C33.714844 37.1875 33.328125 36.976563 32.941406 37 Z M 17.015625 37.105469C16.621094 37.078125 16.238281 37.285156 16.050781 37.660156C15.8125 38.148438 16.011719 38.75 16.5 39C16.648438 39.070313 16.800781 39.097656 16.949219 39.097656C17.320313 39.097656 17.667969 38.902344 17.839844 38.550781C18.089844 38.050781 17.890625 37.449219 17.402344 37.210938C17.277344 37.148438 17.144531 37.113281 17.015625 37.105469 Z M 34.300781 39.65625C34.171875 39.667969 34.042969 39.703125 33.921875 39.769531C33.441406 40.039063 33.257813 40.640625 33.519531 41.128906C33.699219 41.460938 34.050781 41.652344 34.402344 41.652344C34.558594 41.652344 34.722656 41.621094 34.878906 41.53125C35.359375 41.269531 35.539063 40.660156 35.28125 40.179688C35.085938 39.8125 34.691406 39.621094 34.300781 39.65625 Z M 15.640625 39.753906C15.257813 39.71875 14.863281 39.910156 14.671875 40.28125C14.398438 40.757813 14.582031 41.371094 15.070313 41.628906C15.21875 41.710938 15.378906 41.75 15.539063 41.75C15.898438 41.75 16.238281 41.558594 16.421875 41.230469C16.691406 40.742188 16.507813 40.140625 16.019531 39.871094C15.898438 39.804688 15.769531 39.769531 15.640625 39.753906 Z M 8.6875 40.8125C8.425781 40.8125 8.164063 40.90625 7.980469 41.089844C7.789063 41.28125 7.6875 41.539063 7.6875 41.800781C7.6875 42.0625 7.789063 42.320313 7.980469 42.511719C8.171875 42.691406 8.417969 42.800781 8.6875 42.800781C8.949219 42.800781 9.210938 42.691406 9.398438 42.511719C9.582031 42.320313 9.6875 42.0625 9.6875 41.800781C9.6875 41.539063 9.582031 41.28125 9.390625 41.089844C9.207031 40.90625 8.945313 40.8125 8.6875 40.8125 Z M 41.3125 40.8125C41.050781 40.8125 40.789063 40.90625 40.597656 41.089844C40.417969 41.28125 40.3125 41.539063 40.3125 41.800781C40.3125 42.0625 40.417969 42.320313 40.597656 42.511719C40.789063 42.691406 41.050781 42.800781 41.3125 42.800781C41.570313 42.800781 41.828125 42.691406 42.019531 42.511719C42.210938 42.320313 42.3125 42.0625 42.3125 41.800781C42.3125 41.539063 42.210938 41.28125 42.019531 41.089844C41.828125 40.90625 41.570313 40.8125 41.3125 40.8125 Z M 11.273438 41.761719C10.886719 41.808594 10.542969 42.082031 10.429688 42.480469C10.28125 43.011719 10.589844 43.5625 11.121094 43.710938C11.210938 43.742188 11.300781 43.75 11.390625 43.75C11.832031 43.75 12.230469 43.46875 12.347656 43.03125C12.507813 42.5 12.199219 41.949219 11.671875 41.789063C11.539063 41.75 11.402344 41.742188 11.273438 41.761719 Z M 38.722656 41.761719C38.597656 41.742188 38.460938 41.75 38.328125 41.789063C37.800781 41.949219 37.492188 42.5 37.640625 43.03125C37.769531 43.46875 38.167969 43.761719 38.597656 43.761719C38.699219 43.761719 38.789063 43.742188 38.878906 43.71875C39.410156 43.5625 39.71875 43.011719 39.570313 42.480469C39.449219 42.082031 39.109375 41.808594 38.722656 41.761719 Z M 13.992188 42.457031C13.609375 42.53125 13.289063 42.824219 13.199219 43.230469C13.089844 43.769531 13.429688 44.300781 13.96875 44.421875C14.039063 44.429688 14.109375 44.4375 14.179688 44.4375C14.640625 44.4375 15.058594 44.121094 15.160156 43.652344C15.269531 43.109375 14.929688 42.582031 14.390625 42.46875L14.390625 42.460938C14.253906 42.433594 14.121094 42.433594 13.992188 42.457031 Z M 35.609375 42.460938C35.070313 42.582031 34.71875 43.109375 34.839844 43.652344C34.941406 44.121094 35.359375 44.4375 35.820313 44.4375C35.890625 44.4375 35.960938 44.429688 36.03125 44.421875C36.570313 44.300781 36.910156 43.769531 36.800781 43.230469C36.679688 42.691406 36.148438 42.351563 35.609375 42.46875 Z M 17 43C16.738281 43 16.472656 43.09375 16.289063 43.28125C16.109375 43.46875 16 43.730469 16 43.988281C16 44.25 16.109375 44.507813 16.289063 44.6875C16.480469 44.878906 16.730469 44.988281 17 44.988281C17.269531 44.988281 17.519531 44.878906 17.710938 44.6875C17.890625 44.507813 18 44.25 18 43.988281C18 43.730469 17.890625 43.46875 17.710938 43.28125C17.527344 43.09375 17.261719 43 17 43 Z M 33 43C32.738281 43 32.472656 43.09375 32.289063 43.28125C32.109375 43.46875 32 43.71875 32 43.988281C32 44.25 32.109375 44.507813 32.289063 44.6875C32.480469 44.878906 32.730469 44.988281 33 44.988281C33.269531 44.988281 33.519531 44.878906 33.710938 44.6875C33.890625 44.507813 34 44.25 34 43.988281C34 43.730469 33.890625 43.46875 33.710938 43.28125C33.527344 43.09375 33.261719 43 33 43 Z M 37.046875 45.042969C36.917969 45.039063 36.789063 45.058594 36.660156 45.109375C36.148438 45.320313 35.890625 45.898438 36.097656 46.410156C36.25 46.808594 36.628906 47.039063 37.03125 47.039063C37.148438 47.039063 37.28125 47.019531 37.402344 46.96875C37.910156 46.769531 38.160156 46.191406 37.960938 45.671875C37.804688 45.289063 37.4375 45.050781 37.046875 45.042969 Z M 12.90625 45.152344C12.515625 45.164063 12.148438 45.398438 12 45.789063L12 45.78125C11.800781 46.300781 12.050781 46.878906 12.5625 47.078125C12.679688 47.128906 12.808594 47.152344 12.929688 47.152344C13.328125 47.152344 13.710938 46.910156 13.859375 46.519531C14.058594 46 13.8125 45.421875 13.300781 45.21875C13.171875 45.171875 13.035156 45.148438 12.90625 45.152344 Z M 38.113281 47.898438C37.988281 47.878906 37.851563 47.886719 37.71875 47.921875C37.179688 48.058594 36.859375 48.609375 37 49.140625C37.121094 49.589844 37.53125 49.890625 37.96875 49.890625C38.0625 49.890625 38.140625 49.878906 38.230469 49.859375C38.761719 49.710938 39.078125 49.171875 38.9375 48.640625C38.835938 48.234375 38.5 47.953125 38.113281 47.898438 Z M 11.851563 48.007813C11.464844 48.0625 11.132813 48.34375 11.03125 48.75C10.890625 49.28125 11.21875 49.832031 11.75 49.96875C11.828125 49.992188 11.921875 50 12 50C12.449219 50 12.851563 49.699219 12.96875 49.25C13.101563 48.710938 12.78125 48.167969 12.25 48.03125C12.113281 47.996094 11.980469 47.988281 11.851563 48.007813Z" />
</svg>