<?xml version="1.0" encoding="utf-8"?>
<svg xmlns="http://www.w3.org/2000/svg" viewBox="0 0 50 50" width="515" height="515">
  <path d="M19.8125 12C19.464844 12.070313 19.179688 12.320313 19.0625 12.65625L16.3125 20L12 20C11.96875 20 11.9375 20 11.90625 20C11.523438 20.039063 11.195313 20.292969 11.0625 20.65625L8.3125 28L4 28C3.96875 28 3.9375 28 3.90625 28C3.875 28 3.84375 28 3.8125 28C3.464844 28.070313 3.179688 28.320313 3.0625 28.65625L0.0625 36.65625C-0.0507813 36.960938 -0.00390625 37.304688 0.179688 37.570313C0.367188 37.839844 0.671875 38 1 38L33 38C33.03125 38 33.0625 38 33.09375 38L49 38C49.328125 38 49.632813 37.839844 49.820313 37.570313C50.003906 37.304688 50.050781 36.960938 49.9375 36.65625L46.9375 28.65625C46.792969 28.261719 46.417969 28 46 28L41.6875 28L38.9375 20.65625C38.792969 20.261719 38.417969 20 38 20L33.6875 20L30.9375 12.65625C30.792969 12.261719 30.417969 12 30 12L20 12C19.96875 12 19.9375 12 19.90625 12C19.875 12 19.84375 12 19.8125 12 Z M 20.6875 14L29.3125 14L31.5625 20L18.4375 20 Z M 12.6875 22L21.3125 22L23.5625 28L10.4375 28 Z M 23.4375 22L26.5625 22L25 26.15625 Z M 28.6875 22L37.3125 22L39.5625 28L26.4375 28 Z M 4.6875 30L13.3125 30L15.5625 36L2.4375 36 Z M 15.4375 30L18.5625 30L17 34.15625 Z M 20.6875 30L29.3125 30L31.5625 36L18.4375 36 Z M 31.4375 30L34.5625 30L33 34.15625 Z M 36.6875 30L45.3125 30L47.5625 36L34.4375 36Z" />
</svg>