<?xml version="1.0" encoding="utf-8"?>
<svg xmlns="http://www.w3.org/2000/svg" viewBox="0 0 50 50" width="515" height="515">
  <path d="M26.9375 1.96875C26.894531 1.976563 26.851563 1.988281 26.8125 2C26.519531 2.054688 26.269531 2.238281 26.125 2.5L25 4.4375L23.875 2.5C23.671875 2.132813 23.257813 1.933594 22.84375 2C22.511719 2.046875 22.226563 2.257813 22.082031 2.558594C21.9375 2.859375 21.953125 3.210938 22.125 3.5L23.84375 6.40625L20.5625 12.03125C20.230469 12.082031 19.910156 12.195313 19.625 12.34375L13.875 2.5C13.671875 2.132813 13.257813 1.933594 12.84375 2C12.511719 2.046875 12.226563 2.257813 12.082031 2.558594C11.9375 2.859375 11.953125 3.210938 12.125 3.5L18.21875 13.9375C18.089844 14.269531 18 14.621094 18 15L18 18.625C12.679688 21.226563 9 26.6875 9 33C9 41.824219 16.175781 49 25 49C33.824219 49 41 41.824219 41 33C41 26.6875 37.320313 21.226563 32 18.625L32 14.6875C32.007813 14.433594 31.917969 14.1875 31.75 14L37.875 3.5C38.152344 3.015625 37.984375 2.402344 37.5 2.125C37.015625 1.847656 36.402344 2.015625 36.125 2.5L29.40625 14L21.75 14L21.90625 13.71875C21.929688 13.6875 21.949219 13.65625 21.96875 13.625C22.03125 13.550781 22.085938 13.464844 22.125 13.375C22.136719 13.34375 22.148438 13.3125 22.15625 13.28125L25.65625 7.3125C25.679688 7.28125 25.699219 7.25 25.71875 7.21875C25.859375 7.082031 25.957031 6.910156 26 6.71875C26.011719 6.6875 26.023438 6.65625 26.03125 6.625L27.875 3.5C28.078125 3.179688 28.082031 2.769531 27.882813 2.441406C27.683594 2.117188 27.316406 1.933594 26.9375 1.96875 Z M 20 16L30 16L30 17.8125C28.421875 17.292969 26.75 17 25 17C23.25 17 21.578125 17.292969 20 17.8125 Z M 25 19C26.910156 19 28.746094 19.371094 30.40625 20.0625C30.417969 20.074219 30.425781 20.082031 30.4375 20.09375C30.445313 20.097656 30.460938 20.089844 30.46875 20.09375C30.546875 20.148438 30.628906 20.1875 30.71875 20.21875C30.726563 20.222656 30.742188 20.214844 30.75 20.21875C30.769531 20.230469 30.792969 20.242188 30.8125 20.25C35.652344 22.453125 39 27.328125 39 33C39 40.742188 32.742188 47 25 47C17.257813 47 11 40.742188 11 33C11 27.28125 14.410156 22.394531 19.3125 20.21875C19.390625 20.1875 19.464844 20.144531 19.53125 20.09375C21.207031 19.386719 23.0625 19 25 19 Z M 25 21C18.382813 21 13 26.382813 13 33C13 39.617188 18.382813 45 25 45C31.617188 45 37 39.617188 37 33C37 26.382813 31.617188 21 25 21 Z M 25 23C30.535156 23 35 27.464844 35 33C35 38.535156 30.535156 43 25 43C19.464844 43 15 38.535156 15 33C15 27.464844 19.464844 23 25 23 Z M 22 28L22 30L24 30L24 36L22 36L22 38L28 38L28 36L26 36L26 30L28 30L28 28Z" />
</svg>