<?xml version="1.0" encoding="utf-8"?>
<svg xmlns="http://www.w3.org/2000/svg" viewBox="0 0 50 50" width="515" height="515">
  <path d="M25 2C15.621094 2 8 9.621094 8 19C8 25.488281 11.648438 31.136719 17 34C16.96875 34 16.9375 34 16.90625 34C16.875 34 16.84375 34 16.8125 34C16.335938 34.089844 15.992188 34.511719 16 35L16 37C16.003906 37.425781 16.28125 37.804688 16.6875 37.9375C19.867188 38.996094 22 41.960938 22 45.3125L22 46L9.5 46C9.46875 46 9.4375 46 9.40625 46C9.375 46 9.34375 46 9.3125 46C8.761719 46.050781 8.355469 46.542969 8.40625 47.09375C8.457031 47.644531 8.949219 48.050781 9.5 48L40.5 48C40.859375 48.003906 41.195313 47.816406 41.378906 47.503906C41.558594 47.191406 41.558594 46.808594 41.378906 46.496094C41.195313 46.183594 40.859375 45.996094 40.5 46L28 46L28 45.3125C28 41.960938 30.132813 38.996094 33.3125 37.9375C33.71875 37.804688 33.996094 37.425781 34 37L34 35C34 34.449219 33.550781 34 33 34C38.351563 31.136719 42 25.488281 42 19C42 9.621094 34.378906 2 25 2 Z M 25 4C33.296875 4 40 10.703125 40 19C40 27.296875 33.296875 34 25 34C16.703125 34 10 27.296875 10 19C10 10.703125 16.703125 4 25 4 Z M 35 19C34.449219 19 34 19.449219 34 20C34 20.550781 34.449219 21 35 21C35.550781 21 36 20.550781 36 20C36 19.449219 35.550781 19 35 19 Z M 32 22C31.449219 22 31 22.449219 31 23C31 23.550781 31.449219 24 32 24C32.550781 24 33 23.550781 33 23C33 22.449219 32.550781 22 32 22 Z M 36 23C35.449219 23 35 23.449219 35 24C35 24.550781 35.449219 25 36 25C36.550781 25 37 24.550781 37 24C37 23.449219 36.550781 23 36 23 Z M 29 25C28.449219 25 28 25.449219 28 26C28 26.550781 28.449219 27 29 27C29.550781 27 30 26.550781 30 26C30 25.449219 29.550781 25 29 25 Z M 33 26C32.449219 26 32 26.449219 32 27C32 27.550781 32.449219 28 33 28C33.550781 28 34 27.550781 34 27C34 26.449219 33.550781 26 33 26 Z M 26 28C25.449219 28 25 28.449219 25 29C25 29.550781 25.449219 30 26 30C26.550781 30 27 29.550781 27 29C27 28.449219 26.550781 28 26 28 Z M 30 29C29.449219 29 29 29.449219 29 30C29 30.550781 29.449219 31 30 31C30.550781 31 31 30.550781 31 30C31 29.449219 30.550781 29 30 29 Z M 18 36L32 36L32 36.40625C28.417969 37.929688 26 41.371094 26 45.3125L26 46L24 46L24 45.3125C24 41.371094 21.582031 37.929688 18 36.40625Z" />
</svg>