<?xml version="1.0" encoding="utf-8"?>
<svg xmlns="http://www.w3.org/2000/svg" viewBox="0 0 50 50" width="515" height="515">
  <path d="M25.5 2C23.750001 2 22.310226 2.6922556 21.376953 3.7421875C20.443681 4.7921194 20 6.1527779 20 7.5C20 8.0042668 20.084209 8.5050612 20.210938 8.9960938L6.4082031 18.964844 A 1.0001546 1.0001546 0 0 0 6.2382812 19.125C6.2174958 19.143045 6.1918027 19.15002 6.171875 19.169922 A 1.0001 1.0001 0 0 0 6.1699219 19.169922C4.6160118 20.723832 4.6160118 23.274215 6.1699219 24.828125C7.7238319 26.382035 10.274215 26.382035 11.828125 24.828125C12.104673 24.551577 12.17049 24.189872 12.166016 23.960938C12.161516 23.732003 12.111976 23.571028 12.058594 23.421875C11.951816 23.12357 11.803706 22.869062 11.623047 22.589844C11.261728 22.031407 10.762865 21.414603 10.214844 20.830078C9.7938584 20.381051 9.3512839 19.979392 8.90625 19.628906L21.054688 10.853516C21.155228 10.992272 21.26152 11.12795 21.376953 11.257812C22.310226 12.307745 23.750001 13 25.5 13C27.249999 13 28.689774 12.307744 29.623047 11.257812C29.956074 10.883157 30.205585 10.460542 30.416016 10.021484L32.435547 11.197266L27.998047 13.28125C25.826538 14.300937 24.680342 16.735995 25.28125 19.058594L29.091797 33.789062L24.460938 42.785156L24.490234 42.734375C24.025474 43.523101 23.837858 44.572603 24.183594 45.615234C24.544481 46.704974 25.419006 47.569506 26.550781 47.873047C28.282316 48.338034 29.968234 47.441098 30.654297 45.998047L35.041016 37.193359L38.166016 45.517578L38.138672 45.435547C38.547986 46.909369 39.9002 48 41.5 48C43.421188 48 45 46.421188 45 44.5C45 43.980411 44.880512 43.491667 44.685547 43.060547L37.091797 22.945312 A 1.0001 1.0001 0 0 0 37.037109 22.826172C36.948389 22.251211 36.833741 21.675785 36.654297 21.101562L35.361328 16.097656L39.675781 13.697266C40.457096 13.280116 41 12.449622 41 11.5C41 10.49686 40.398479 9.6243037 39.541016 9.2304688L39.621094 9.2714844L28.976562 3.1445312C28.076752 2.4402995 26.88823 2 25.5 2 z M 10.042969 2.9902344 A 1.0001 1.0001 0 0 0 9.2675781 3.3203125C9.2675781 3.3203125 5 7.9670488 5 16 A 1.0001 1.0001 0 1 0 7 16C7 8.6609512 10.732422 4.6796875 10.732422 4.6796875 A 1.0001 1.0001 0 0 0 10.042969 2.9902344 z M 16.052734 3.9921875 A 1.0001 1.0001 0 0 0 15.423828 4.1835938C15.423828 4.1835938 12 6.6036689 12 11 A 1.0001 1.0001 0 1 0 14 11C14 7.6343311 16.576172 5.8164064 16.576172 5.8164062 A 1.0001 1.0001 0 0 0 16.052734 3.9921875 z M 25.5 4C26.253015 4 26.831858 4.1712873 27.308594 4.4355469 A 1.0001 1.0001 0 0 0 27.558594 4.6347656L27.810547 4.7792969C27.919565 4.8732063 28.032402 4.9639422 28.126953 5.0703125C28.69368 5.7078806 29 6.5972221 29 7.5C29 7.6973803 28.979977 7.8923327 28.951172 8.0859375 A 1.0001 1.0001 0 0 0 28.84375 8.5488281C28.701447 9.0640683 28.46866 9.5452668 28.126953 9.9296875C27.560226 10.567256 26.749999 11 25.5 11C24.250001 11 23.439774 10.567256 22.873047 9.9296875C22.30632 9.2921194 22 8.4027779 22 7.5C22 6.5972221 22.30632 5.7078806 22.873047 5.0703125C23.439774 4.4327444 24.250001 4 25.5 4 z M 30.921875 6.5722656L38.625 11.005859 A 1.0001 1.0001 0 0 0 38.705078 11.046875C38.879613 11.127036 39 11.29114 39 11.5C39 11.694378 38.895106 11.846737 38.732422 11.933594 A 1.0001 1.0001 0 0 0 38.71875 11.941406L33.712891 14.726562 A 1.0001 1.0001 0 0 0 33.232422 15.849609L34.732422 21.650391 A 1.0001 1.0001 0 0 0 34.746094 21.699219C35.200804 23.154292 35.292156 24.598298 35.107422 26.076172L33.962891 34.871094L28.857422 45.121094 A 1.0001 1.0001 0 0 0 28.847656 45.138672C28.550943 45.764126 27.899757 46.164145 27.070312 45.941406 A 1.0001 1.0001 0 0 0 27.068359 45.941406C26.634216 45.824956 26.231144 45.436589 26.082031 44.986328C25.917767 44.490959 25.997651 44.115274 26.212891 43.75 A 1.0001 1.0001 0 0 0 26.240234 43.701172L31.044922 34.365234 A 1.0001 1.0001 0 0 0 31.125 33.65625L27.21875 18.558594C26.855658 17.155192 27.535165 15.70811 28.847656 15.091797L35.013672 12.197266 A 1.0001 1.0001 0 0 0 35.089844 10.427734L30.957031 8.0234375C30.972089 7.8487819 31 7.674912 31 7.5C31 7.1899336 30.969438 6.8798035 30.921875 6.5722656 z M 7.4140625 20.994141C7.7814918 21.247875 8.2881564 21.698409 8.7558594 22.197266C9.2185707 22.690798 9.6397785 23.223363 9.90625 23.626953C9.1472103 24.042306 8.234124 24.06225 7.5859375 23.414062C6.9099341 22.738059 6.9332848 21.767081 7.4140625 20.994141 z M 36.871094 28.021484L42.837891 43.826172 A 1.0001 1.0001 0 0 0 42.863281 43.884766C42.952316 44.08165 43 44.285589 43 44.5C43 45.340812 42.340812 46 41.5 46C40.8038 46 40.243089 45.534615 40.066406 44.898438 A 1.0001 1.0001 0 0 0 40.039062 44.816406L36.072266 34.255859 A 1.0001 1.0001 0 0 0 36.0625 34.230469L36.871094 28.021484 z" />
</svg>