<?xml version="1.0" encoding="utf-8"?>
<svg xmlns="http://www.w3.org/2000/svg" viewBox="0 0 50 50" width="515" height="515">
  <path d="M28.90625 1.96875C28.863281 1.976563 28.820313 1.988281 28.78125 2L11.5 2C9.585938 2 8 3.558594 8 5.46875L8 43.90625C8 46.160156 9.867188 48 12.125 48L37.875 48C40.132813 48 42 46.160156 42 43.90625L42 15.1875C42.027344 15.054688 42.027344 14.914063 42 14.78125L42 14.5C42.007813 14.234375 41.90625 13.972656 41.71875 13.78125L30.21875 2.28125C30.027344 2.09375 29.765625 1.992188 29.5 2L29.1875 2C29.097656 1.976563 29 1.964844 28.90625 1.96875 Z M 11.5 4L28 4L28 12.34375C28 14.355469 29.644531 16 31.65625 16L40 16L40 43.90625C40 45.074219 39.054688 46 37.875 46L12.125 46C10.945313 46 10 45.074219 10 43.90625L10 5.46875C10 4.644531 10.660156 4 11.5 4 Z M 30 4.9375L39.0625 14L31.65625 14C30.722656 14 30 13.277344 30 12.34375 Z M 17 25C16.449219 25 16 25.449219 16 26C16 26.550781 16.449219 27 17 27C17.550781 27 18 26.550781 18 26C18 25.449219 17.550781 25 17 25 Z M 21 25L21 27L33 27L33 25 Z M 17 30C16.449219 30 16 30.449219 16 31C16 31.550781 16.449219 32 17 32C17.550781 32 18 31.550781 18 31C18 30.449219 17.550781 30 17 30 Z M 21 30L21 32L33 32L33 30 Z M 17 35C16.449219 35 16 35.449219 16 36C16 36.550781 16.449219 37 17 37C17.550781 37 18 36.550781 18 36C18 35.449219 17.550781 35 17 35 Z M 21 35L21 37L33 37L33 35Z" />
</svg>