<?xml version="1.0" encoding="utf-8"?>
<svg xmlns="http://www.w3.org/2000/svg" viewBox="0 0 50 50" width="515" height="515">
  <path d="M17.5 3L3 47L13.660156 47C16.250156 47 18.548375 45.338906 19.359375 42.878906L25 25.759766L30.642578 42.878906C31.452578 45.338906 33.749844 47 36.339844 47L47 47L32.5 3L31.75 3L17.5 3 z M 18.947266 5L29.734375 5L17.458984 42.251953C16.916984 43.895953 15.391156 45 13.660156 45L5.765625 45L18.947266 5 z M 31.447266 6.1953125L44.234375 45L36.339844 45C34.608844 45 33.083016 43.895953 32.541016 42.251953L26.052734 22.564453L31.447266 6.1953125 z" />
</svg>