<?xml version="1.0" encoding="utf-8"?>
<svg xmlns="http://www.w3.org/2000/svg" viewBox="0 0 50 50" width="515" height="515">
  <path d="M31.46875 1.9375L31.0625 2L4.875 5.71875L3.84375 5.84375L4 6.84375L7.40625 28.9375L7.4375 29.03125L7.4375 29.09375L13.25 47.3125L13.53125 48.25L14.5 47.96875L42.1875 39.65625L42.8125 39.46875L42.90625 38.8125L46 13.8125L46.0625 13.25L45.625 12.90625L31.8125 2.21875 Z M 30.9375 4.0625L42.65625 13.15625L31.96875 15.28125L26.625 9.53125L26.28125 9.125L25.75 9.21875L6.84375 12.09375L6.15625 7.53125 Z M 25.53125 11.28125L30.875 17.0625L31.25 17.5L31.8125 17.375L37.09375 16.3125C37.230469 16.703125 37.5625 17 38 17C38.550781 17 39 16.550781 39 16C39 15.976563 39 15.957031 39 15.9375L43.84375 14.96875L43.84375 15.03125C43.371094 15.109375 43 15.503906 43 16C43 16.40625 43.25 16.75 43.59375 16.90625L41.875 30.59375C41.714844 30.253906 41.398438 30 41 30C40.449219 30 40 30.449219 40 31C40 31.550781 40.449219 32 41 32C41.300781 32 41.566406 31.867188 41.75 31.65625L41.21875 36.0625C41.144531 36.042969 41.082031 36 41 36C40.449219 36 40 36.449219 40 37C40 37.507813 40.386719 37.902344 40.875 37.96875L32.90625 40.34375C32.949219 40.230469 33 40.128906 33 40C33 39.449219 32.550781 39 32 39C31.449219 39 31 39.449219 31 40C31 40.324219 31.164063 40.597656 31.40625 40.78125L24 43C24 42.449219 23.550781 42 23 42C22.449219 42 22 42.449219 22 43C22 43.210938 22.074219 43.402344 22.1875 43.5625L14.84375 45.75L13.15625 40.5C13.332031 40.792969 13.636719 41 14 41C14.550781 41 15 40.550781 15 40C15 39.449219 14.550781 39 14 39C13.449219 39 13 39.449219 13 40L10.375 31.78125C10.546875 31.917969 10.761719 32 11 32C11.058594 32 11.101563 31.976563 11.15625 31.96875L12.4375 36.28125L12.71875 37.1875L13.625 36.96875L16.25 36.34375C16.097656 36.519531 16 36.75 16 37C16 37.550781 16.449219 38 17 38C17.550781 38 18 37.550781 18 37C18 36.5625 17.707031 36.199219 17.3125 36.0625L23.53125 34.5625L24.8125 34.25L24.1875 33.125L23.5 31.84375C23.792969 31.667969 24 31.363281 24 31C24 30.449219 23.550781 30 23 30C22.835938 30 22.699219 30.054688 22.5625 30.125L21.78125 28.71875L21.4375 28.0625L20.96875 28.15625C20.976563 28.101563 21 28.058594 21 28C21 27.449219 20.550781 27 20 27C19.449219 27 19 27.449219 19 28C19 28.203125 19.085938 28.375 19.1875 28.53125L11.71875 30.03125L11.375 30.09375C11.253906 30.042969 11.136719 30 11 30C10.527344 30 10.167969 30.34375 10.0625 30.78125L9.375 28.65625L9.34375 28.53125L9.34375 28.5L8.46875 22.84375C8.773438 22.671875 9 22.375 9 22C9 21.527344 8.65625 21.167969 8.21875 21.0625L7.5625 16.875C7.699219 16.945313 7.835938 17 8 17C8.550781 17 9 16.550781 9 16C9 15.449219 8.550781 15 8 15C7.75 15 7.519531 15.097656 7.34375 15.25L7.15625 14.0625L10.21875 13.59375C10.402344 13.835938 10.675781 14 11 14C11.425781 14 11.761719 13.71875 11.90625 13.34375L16.0625 12.71875C16.035156 12.8125 16 12.898438 16 13C16 13.550781 16.449219 14 17 14C17.550781 14 18 13.550781 18 13C18 12.789063 17.925781 12.597656 17.8125 12.4375 Z M 23 12C22.449219 12 22 12.449219 22 13C22 13.550781 22.449219 14 23 14C23.550781 14 24 13.550781 24 13C24 12.449219 23.550781 12 23 12 Z M 14 15C13.449219 15 13 15.449219 13 16C13 16.550781 13.449219 17 14 17C14.550781 17 15 16.550781 15 16C15 15.449219 14.550781 15 14 15 Z M 20 15C19.449219 15 19 15.449219 19 16C19 16.316406 19.148438 16.597656 19.375 16.78125L11.4375 18.125C11.300781 18.054688 11.164063 18 11 18C10.699219 18 10.433594 18.132813 10.25 18.34375L9.84375 18.40625L8.5625 18.625L9.09375 19.8125L10.875 23.90625L10.9375 24.03125C10.417969 24.070313 10 24.472656 10 25C10 25.550781 10.449219 26 11 26C11.550781 26 12 25.550781 12 25C12 24.8125 11.933594 24.648438 11.84375 24.5L12 24.46875L19.625 22.9375L21.65625 26.3125L22 26.9375L22.71875 26.78125L28.1875 25.5625C28.367188 25.820313 28.660156 26 29 26C29.484375 26 29.878906 25.644531 29.96875 25.1875L32.21875 24.6875L33.8125 24.3125L32.78125 23.0625L32.5625 22.8125C32.820313 22.632813 33 22.339844 33 22C33 21.449219 32.550781 21 32 21C31.738281 21 31.492188 21.085938 31.3125 21.25L29.84375 19.46875C29.925781 19.324219 30 19.175781 30 19C30 18.449219 29.550781 18 29 18C28.886719 18 28.789063 18.027344 28.6875 18.0625L27 16C27 15.449219 26.550781 15 26 15C25.527344 15 25.167969 15.34375 25.0625 15.78125L20.8125 16.53125C20.914063 16.375 21 16.203125 21 16C21 15.449219 20.550781 15 20 15 Z M 25.8125 17.6875L30.1875 23.0625L22.96875 24.65625L20.96875 21.28125L20.59375 20.6875L19.90625 20.8125L12.40625 22.375L11.40625 20.15625 Z M 35 18C34.449219 18 34 18.449219 34 19C34 19.550781 34.449219 20 35 20C35.550781 20 36 19.550781 36 19C36 18.449219 35.550781 18 35 18 Z M 41 18C40.449219 18 40 18.449219 40 19C40 19.550781 40.449219 20 41 20C41.550781 20 42 19.550781 42 19C42 18.449219 41.550781 18 41 18 Z M 38 21C37.449219 21 37 21.449219 37 22C37 22.550781 37.449219 23 38 23C38.550781 23 39 22.550781 39 22C39 21.449219 38.550781 21 38 21 Z M 17 24C16.449219 24 16 24.449219 16 25C16 25.550781 16.449219 26 17 26C17.550781 26 18 25.550781 18 25C18 24.449219 17.550781 24 17 24 Z M 35 24C34.449219 24 34 24.449219 34 25C34 25.550781 34.449219 26 35 26C35.550781 26 36 25.550781 36 25C36 24.449219 35.550781 24 35 24 Z M 41 24C40.449219 24 40 24.449219 40 25C40 25.550781 40.449219 26 41 26C41.550781 26 42 25.550781 42 25C42 24.449219 41.550781 24 41 24 Z M 14 27C13.449219 27 13 27.449219 13 28C13 28.550781 13.449219 29 14 29C14.550781 29 15 28.550781 15 28C15 27.449219 14.550781 27 14 27 Z M 26 27C25.449219 27 25 27.449219 25 28C25 28.550781 25.449219 29 26 29C26.550781 29 27 28.550781 27 28C27 27.449219 26.550781 27 26 27 Z M 32 27C31.449219 27 31 27.449219 31 28C31 28.550781 31.449219 29 32 29C32.550781 29 33 28.550781 33 28C33 27.449219 32.550781 27 32 27 Z M 38 27C37.449219 27 37 27.449219 37 28C37 28.550781 37.449219 29 38 29C38.550781 29 39 28.550781 39 28C39 27.449219 38.550781 27 38 27 Z M 29 30C28.449219 30 28 30.449219 28 31C28 31.550781 28.449219 32 29 32C29.550781 32 30 31.550781 30 31C30 30.449219 29.550781 30 29 30 Z M 35 30C34.449219 30 34 30.449219 34 31C34 31.550781 34.449219 32 35 32C35.550781 32 36 31.550781 36 31C36 30.449219 35.550781 30 35 30 Z M 20.375 30.34375L21.8125 32.9375L14.0625 34.8125L13.15625 31.75 Z M 26 33C25.449219 33 25 33.449219 25 34C25 34.550781 25.449219 35 26 35C26.550781 35 27 34.550781 27 34C27 33.449219 26.550781 33 26 33 Z M 32 33C31.449219 33 31 33.449219 31 34C31 34.550781 31.449219 35 32 35C32.550781 35 33 34.550781 33 34C33 33.449219 32.550781 33 32 33 Z M 38 33C37.449219 33 37 33.449219 37 34C37 34.550781 37.449219 35 38 35C38.550781 35 39 34.550781 39 34C39 33.449219 38.550781 33 38 33 Z M 23 36C22.449219 36 22 36.449219 22 37C22 37.550781 22.449219 38 23 38C23.550781 38 24 37.550781 24 37C24 36.449219 23.550781 36 23 36 Z M 29 36C28.449219 36 28 36.449219 28 37C28 37.550781 28.449219 38 29 38C29.550781 38 30 37.550781 30 37C30 36.449219 29.550781 36 29 36 Z M 35 36C34.449219 36 34 36.449219 34 37C34 37.550781 34.449219 38 35 38C35.550781 38 36 37.550781 36 37C36 36.449219 35.550781 36 35 36 Z M 20 39C19.449219 39 19 39.449219 19 40C19 40.550781 19.449219 41 20 41C20.550781 41 21 40.550781 21 40C21 39.449219 20.550781 39 20 39 Z M 26 39C25.449219 39 25 39.449219 25 40C25 40.550781 25.449219 41 26 41C26.550781 41 27 40.550781 27 40C27 39.449219 26.550781 39 26 39 Z M 17 42C16.449219 42 16 42.449219 16 43C16 43.550781 16.449219 44 17 44C17.550781 44 18 43.550781 18 43C18 42.449219 17.550781 42 17 42Z" />
</svg>