<?xml version="1.0" encoding="utf-8"?>
<svg xmlns="http://www.w3.org/2000/svg" viewBox="0 0 50 50" width="515" height="515">
  <path d="M25 2C12.309295 2 2 12.309295 2 25C2 37.690705 12.309295 48 25 48C37.690705 48 48 37.690705 48 25C48 12.309295 37.690705 2 25 2 z M 25 4C36.609824 4 46 13.390176 46 25C46 36.609824 36.609824 46 25 46C13.390176 46 4 36.609824 4 25C4 13.390176 13.390176 4 25 4 z M 20 15C14.488666 15 10 19.488666 10 25C10 30.511334 14.488666 35 20 35C25.511334 35 30 30.511334 30 25C30 24.624525 29.979323 24.253877 29.939453 23.890625L29.841797 23L21 23L21 25L28 25C28 29.430666 24.430666 33 20 33C15.569334 33 12 29.430666 12 25C12 20.569334 15.569334 17 20 17C21.649667 17 23.173917 17.49591 24.445312 18.347656L24.445312 18.349609C24.756981 18.557683 25.054158 18.788646 25.333984 19.039062L26.667969 17.546875C26.319795 17.235246 25.948972 16.947473 25.556641 16.685547C23.968036 15.621293 22.052333 15 20 15 z M 36 20L36 23L33 23L33 25L36 25L36 28L38 28L38 25L41 25L41 23L38 23L38 20L36 20 z" />
</svg>