<?xml version="1.0" encoding="utf-8"?>
<svg xmlns="http://www.w3.org/2000/svg" viewBox="0 0 50 50" width="515" height="515">
  <path d="M12 1C11.476563 1 10.941406 1.183594 10.5625 1.5625C10.183594 1.941406 10 2.476563 10 3L10 47C10 47.523438 10.183594 48.058594 10.5625 48.4375C10.941406 48.816406 11.476563 49 12 49L38 49C38.523438 49 39.058594 48.816406 39.4375 48.4375C39.816406 48.058594 40 47.523438 40 47L40 3C40 2.476563 39.816406 1.941406 39.4375 1.5625C39.058594 1.183594 38.523438 1 38 1 Z M 12 3L38 3L38 47L12 47 Z M 14 5L14 29L36 29L36 5 Z M 16 7L34 7L34 27L16 27 Z M 25 30C23.894531 30 23 30.894531 23 32C23 33.105469 23.894531 34 25 34C26.105469 34 27 33.105469 27 32C27 30.894531 26.105469 30 25 30 Z M 18 35C15.789063 35 14 36.789063 14 39L14 41C14 43.210938 15.789063 45 18 45L32 45C34.210938 45 36 43.210938 36 41L36 39C36 36.789063 34.210938 35 32 35 Z M 18 37L20 37L20 39L16 39C16 37.808594 16.808594 37 18 37 Z M 22 37L28 37L28 39L22 39 Z M 30 37L32 37C33.191406 37 34 37.808594 34 39L30 39 Z M 16 41L20 41L20 43L18 43C16.808594 43 16 42.191406 16 41 Z M 22 41L28 41L28 43L22 43 Z M 30 41L34 41C34 42.191406 33.191406 43 32 43L30 43Z" />
</svg>