<?xml version="1.0" encoding="utf-8"?>
<svg xmlns="http://www.w3.org/2000/svg" viewBox="0 0 50 50" width="515" height="515">
  <path d="M35 3C32.802666 3 31 4.8026661 31 7L31 17L21 17C18.802666 17 17 18.802666 17 21L17 31L7 31C4.8026661 31 3 32.802666 3 35L3 43C3 45.197334 4.8026661 47 7 47L31 47L33 47L43 47C45.197334 47 47 45.197334 47 43L47 7C47 4.8026661 45.197334 3 43 3L35 3 z M 35 5L43 5C43.762173 5 44.408007 5.4168569 44.746094 6.0332031 A 1 1 0 0 0 44 7 A 1 1 0 0 0 45 8L45 12 A 1 1 0 0 0 44 13 A 1 1 0 0 0 45 14L45 19 A 1 1 0 0 0 44 20 A 1 1 0 0 0 45 21L45 25 A 1 1 0 0 0 44 26 A 1 1 0 0 0 45 27L45 30 A 1 1 0 0 0 44 31 A 1 1 0 0 0 45 32L45 36 A 1 1 0 0 0 44 37 A 1 1 0 0 0 45 38L45 42 A 1 1 0 0 0 44 43 A 1 1 0 0 0 44.746094 43.966797C44.408007 44.583143 43.762173 45 43 45L33 45L33 44 A 1 1 0 0 0 34 43 A 1 1 0 0 0 33 42L33 38 A 1 1 0 0 0 34 37 A 1 1 0 0 0 33 36L33 32 A 1 1 0 0 0 34 31 A 1 1 0 0 0 33 30L33 26 A 1 1 0 0 0 34 25 A 1 1 0 0 0 33 24L33 20 A 1 1 0 0 0 34 19 A 1 1 0 0 0 33.013672 18 A 1.0001 1.0001 0 0 0 33 17.841797L33 14 A 1 1 0 0 0 34 13 A 1 1 0 0 0 33 12L33 8 A 1 1 0 0 0 34 7 A 1 1 0 0 0 33.253906 6.0332031C33.591993 5.4168569 34.237827 5 35 5 z M 39 6 A 1 1 0 0 0 38 7 A 1 1 0 0 0 39 8 A 1 1 0 0 0 40 7 A 1 1 0 0 0 39 6 z M 36 9 A 1 1 0 0 0 35 10 A 1 1 0 0 0 36 11 A 1 1 0 0 0 37 10 A 1 1 0 0 0 36 9 z M 42 9 A 1 1 0 0 0 41 10 A 1 1 0 0 0 42 11 A 1 1 0 0 0 43 10 A 1 1 0 0 0 42 9 z M 39 12 A 1 1 0 0 0 38 13 A 1 1 0 0 0 39 14 A 1 1 0 0 0 40 13 A 1 1 0 0 0 39 12 z M 36 15 A 1 1 0 0 0 35 16 A 1 1 0 0 0 36 17 A 1 1 0 0 0 37 16 A 1 1 0 0 0 36 15 z M 42 15 A 1 1 0 0 0 41 16 A 1 1 0 0 0 42 17 A 1 1 0 0 0 43 16 A 1 1 0 0 0 42 15 z M 39 18 A 1 1 0 0 0 38 19 A 1 1 0 0 0 39 20 A 1 1 0 0 0 40 19 A 1 1 0 0 0 39 18 z M 21 19L31 19L31 45L7 45C5.8833339 45 5 44.116666 5 43L5 35C5 33.883334 5.8833339 33 7 33L18 33 A 1.0001 1.0001 0 0 0 19 32L19 21C19 19.883334 19.883334 19 21 19 z M 36 21 A 1 1 0 0 0 35 22 A 1 1 0 0 0 36 23 A 1 1 0 0 0 37 22 A 1 1 0 0 0 36 21 z M 42 21 A 1 1 0 0 0 41 22 A 1 1 0 0 0 42 23 A 1 1 0 0 0 43 22 A 1 1 0 0 0 42 21 z M 39 24 A 1 1 0 0 0 38 25 A 1 1 0 0 0 39 26 A 1 1 0 0 0 40 25 A 1 1 0 0 0 39 24 z M 36 27 A 1 1 0 0 0 35 28 A 1 1 0 0 0 36 29 A 1 1 0 0 0 37 28 A 1 1 0 0 0 36 27 z M 42 27 A 1 1 0 0 0 41 28 A 1 1 0 0 0 42 29 A 1 1 0 0 0 43 28 A 1 1 0 0 0 42 27 z M 39 30 A 1 1 0 0 0 38 31 A 1 1 0 0 0 39 32 A 1 1 0 0 0 40 31 A 1 1 0 0 0 39 30 z M 36 33 A 1 1 0 0 0 35 34 A 1 1 0 0 0 36 35 A 1 1 0 0 0 37 34 A 1 1 0 0 0 36 33 z M 42 33 A 1 1 0 0 0 41 34 A 1 1 0 0 0 42 35 A 1 1 0 0 0 43 34 A 1 1 0 0 0 42 33 z M 39 36 A 1 1 0 0 0 38 37 A 1 1 0 0 0 39 38 A 1 1 0 0 0 40 37 A 1 1 0 0 0 39 36 z M 36 39 A 1 1 0 0 0 35 40 A 1 1 0 0 0 36 41 A 1 1 0 0 0 37 40 A 1 1 0 0 0 36 39 z M 42 39 A 1 1 0 0 0 41 40 A 1 1 0 0 0 42 41 A 1 1 0 0 0 43 40 A 1 1 0 0 0 42 39 z M 39 42 A 1 1 0 0 0 38 43 A 1 1 0 0 0 39 44 A 1 1 0 0 0 40 43 A 1 1 0 0 0 39 42 z" />
</svg>