<?xml version="1.0" encoding="utf-8"?>
<svg xmlns="http://www.w3.org/2000/svg" viewBox="0 0 50 50" width="515" height="515">
  <path d="M4.9433594 4 A 1.0001 1.0001 0 0 0 4 5L4 43.09375C4 44.66261 5.2463594 46 6.8183594 46L35 46 A 1.0001 1.0001 0 0 0 35.707031 45.707031L45.707031 35.707031 A 1.0001 1.0001 0 0 0 46 35L46 5 A 1.0001 1.0001 0 0 0 44.400391 4.1992188L41 6.75L37.599609 4.1992188 A 1.0001 1.0001 0 0 0 36.400391 4.1992188L33 6.75L29.599609 4.1992188 A 1.0001 1.0001 0 0 0 28.400391 4.1992188L25 6.75L21.599609 4.1992188 A 1.0001 1.0001 0 0 0 20.400391 4.1992188L17 6.75L13.599609 4.1992188 A 1.0001 1.0001 0 0 0 13.042969 4 A 1.0001 1.0001 0 0 0 12.400391 4.1992188L9 6.75L5.5996094 4.1992188 A 1.0001 1.0001 0 0 0 5.0429688 4 A 1.0001 1.0001 0 0 0 4.9433594 4 z M 13 6.25L16.400391 8.8007812 A 1.0001 1.0001 0 0 0 17.599609 8.8007812L21 6.25L24.400391 8.8007812 A 1.0001 1.0001 0 0 0 25.599609 8.8007812L29 6.25L32.400391 8.8007812 A 1.0001 1.0001 0 0 0 33.599609 8.8007812L37 6.25L40.400391 8.8007812 A 1.0001 1.0001 0 0 0 41.599609 8.8007812L44 7L44 34L34 34L34 44L6.8183594 44C6.3903594 44 6 43.62289 6 43.09375L6 7L8.4003906 8.8007812 A 1.0001 1.0001 0 0 0 9.5996094 8.8007812L13 6.25 z M 8 11L8 12L8 17L42 17L42 11L8 11 z M 10 13L40 13L40 15L10 15L10 13 z M 8 21L8 22L8 35L23 35L23 21L8 21 z M 26 21L26 23L41 23L41 21L26 21 z M 10 23L21 23L21 33L10 33L10 23 z M 13.199219 25L12 26.199219L12 29.699219L13.199219 30.800781L17.800781 30.800781L19 29.699219L19 28.5L19 27.300781L17.800781 27.300781L16.699219 27.300781L15.5 28.5L17.800781 28.5L17.800781 29.699219L14.300781 29.699219L13.199219 29.699219L13.199219 26.199219L13.199219 25 z M 13.199219 26.199219L14.300781 26.199219L14.300781 29.699219L15.5 28.5L15.5 26.199219L19 26.199219L17.800781 25L14.300781 25L13.199219 26.199219 z M 26 25L26 27L41 27L41 25L26 25 z M 26 29L26 31L41 31L41 29L26 29 z M 26 34L26 36L32 36L32 34L26 34 z M 36 36L42.585938 36L36 42.585938L36 36 z M 8 37L8 39L23 39L23 37L8 37 z M 26 38L26 40L32 40L32 38L26 38 z" />
</svg>