<?xml version="1.0" encoding="utf-8"?>
<svg xmlns="http://www.w3.org/2000/svg" viewBox="0 0 50 50" width="515" height="515">
  <path d="M5 2C3.355469 2 2 3.355469 2 5L2 35C2 36.644531 3.355469 38 5 38L19 38L19 40L10 40C9.96875 40 9.9375 40 9.90625 40C9.636719 40.027344 9.386719 40.160156 9.21875 40.375L4.21875 46.375C3.976563 46.675781 3.929688 47.085938 4.097656 47.433594C4.265625 47.78125 4.617188 48 5 48L45 48C45.382813 48 45.734375 47.78125 45.902344 47.433594C46.070313 47.085938 46.023438 46.675781 45.78125 46.375L40.78125 40.375C40.589844 40.136719 40.304688 40 40 40L31 40L31 38L45 38C46.644531 38 48 36.644531 48 35L48 5C48 3.355469 46.644531 2 45 2 Z M 5 4L45 4C45.554688 4 46 4.445313 46 5L46 35C46 35.554688 45.554688 36 45 36L5 36C4.445313 36 4 35.554688 4 35L4 5C4 4.445313 4.445313 4 5 4 Z M 6 6L6 34L44 34L44 6 Z M 8 8L42 8L42 32L8 32 Z M 19.28125 11.28125L11.28125 19.28125L10.59375 20L11.28125 20.71875L19.28125 28.71875L20.71875 27.28125L13.4375 20L20.71875 12.71875 Z M 30.71875 11.28125L29.28125 12.71875L36.5625 20L29.28125 27.28125L30.71875 28.71875L38.71875 20.71875L39.40625 20L38.71875 19.28125 Z M 21 38L29 38L29 42L21 42 Z M 10.46875 42L19 42L19 44L31 44L31 42L39.53125 42L42.875 46L7.125 46Z" />
</svg>