<?xml version="1.0" encoding="utf-8"?>
<svg xmlns="http://www.w3.org/2000/svg" viewBox="0 0 50 50" width="515" height="515">
  <path d="M46.59375 0.09375L46.28125 0.28125L44.1875 2.40625L43.90625 3.25L44.40625 3.96875L45.3125 4L45.59375 3.8125L47.71875 1.71875L48 0.84375L47.46875 0.125 Z M 41.65625 5.03125L41.375 5.21875L39.25 7.34375L38.96875 8.1875L39.46875 8.9375L40.375 8.96875L40.65625 8.75L42.78125 6.625L43.0625 5.78125L42.5625 5.0625 Z M 8.6875 9.6875C8.460938 9.71875 8.25 9.832031 8.09375 10C6.066406 12.082031 3.667969 16.042969 3.125 21.03125C2.597656 25.902344 3.960938 31.71875 9.21875 37.28125L2.59375 44L1 44C0.96875 44 0.9375 44 0.90625 44C0.875 44 0.84375 44 0.8125 44C0.335938 44.089844 -0.0078125 44.511719 0 45L0 49C0 49.550781 0.449219 50 1 50L17 50C17.550781 50 18 49.550781 18 49L18 45.0625C18 45.042969 18 45.019531 18 45L18 43.0625C20.644531 43.941406 23.265625 44.175781 25.6875 43.96875C30.722656 43.535156 34.867188 41.351563 37 39.21875C37.195313 39.03125 37.304688 38.769531 37.304688 38.5C37.304688 38.230469 37.195313 37.96875 37 37.78125L27.09375 27.78125L28.375 22.84375C28.734375 22.9375 29.109375 23 29.5 23C31.972656 23 34 20.972656 34 18.5C34 16.027344 31.972656 14 29.5 14C27.027344 14 25 16.027344 25 18.5C25 18.511719 25 18.519531 25 18.53125L19.3125 19.90625L9.5 10C9.3125 9.800781 9.054688 9.691406 8.78125 9.6875C8.75 9.6875 8.71875 9.6875 8.6875 9.6875 Z M 36.71875 9.96875L36.40625 10.15625L34.28125 12.28125L34 13.15625L34.53125 13.875L35.40625 13.90625L35.71875 13.71875L37.84375 11.59375L38.125 10.75L37.59375 10 Z M 8.9375 12.28125L34.71875 38.34375C32.816406 39.890625 29.539063 41.621094 25.5 41.96875C23.042969 42.179688 20.390625 41.921875 17.71875 40.875C17.707031 40.863281 17.699219 40.855469 17.6875 40.84375C17.667969 40.835938 17.644531 40.820313 17.625 40.8125C17.472656 40.6875 17.289063 40.613281 17.09375 40.59375C15.210938 39.765625 13.320313 38.5625 11.5 36.8125C11.492188 36.792969 11.480469 36.769531 11.46875 36.75C11.457031 36.738281 11.449219 36.730469 11.4375 36.71875C11.34375 36.574219 11.214844 36.457031 11.0625 36.375C11.042969 36.355469 11.019531 36.332031 11 36.3125C5.78125 31 4.609375 25.710938 5.09375 21.25C5.523438 17.289063 7.363281 14.183594 8.9375 12.28125 Z M 29.5 16C30.890625 16 32 17.109375 32 18.5C32 19.890625 30.890625 21 29.5 21C29.054688 21 28.640625 20.886719 28.28125 20.6875C28.207031 20.625 28.121094 20.570313 28.03125 20.53125C27.625 20.242188 27.328125 19.824219 27.15625 19.34375C27.164063 19.160156 27.121094 18.976563 27.03125 18.8125C27.019531 18.707031 27 18.609375 27 18.5C27 17.109375 28.109375 16 29.5 16 Z M 25.46875 20.46875C25.734375 21.007813 26.113281 21.484375 26.5625 21.875L25.46875 26.125L20.9375 21.5625 Z M 10.625 38.6875C12.359375 40.261719 14.183594 41.410156 16 42.25L16 44L5.375 44 Z M 2 46L16 46L16 48L2 48Z" />
</svg>