<?xml version="1.0" encoding="utf-8"?>
<svg xmlns="http://www.w3.org/2000/svg" viewBox="0 0 50 50" width="515" height="515">
  <path d="M39.958984 1.9882812 A 1.0001 1.0001 0 0 0 39.107422 2.5488281C36.80276 7.1021529 33.98374 11.244951 30.462891 15.101562C29.259912 14.23171 27.908623 13.613675 26.457031 13.283203C28.779662 10.552737 30.927778 7.732545 32.580078 4.9902344C33.100078 5.0002344 33.949219 5.0600781 34.699219 5.3300781C34.849219 5.3800781 35.009922 5.4397656 35.169922 5.5097656C35.519922 4.9397656 35.859687 4.3595312 36.179688 3.7695312C35.829687 3.5995313 35.519844 3.4894531 35.339844 3.4394531C33.779844 2.8694531 31.999922 3 31.919922 3C31.599922 3.03 31.300625 3.21 31.140625 3.5C29.32766 6.6056641 26.788238 9.8713084 24.042969 13.001953C24.028481 13.001898 24.0145 13 24 13L24 13.050781C16.411201 21.69391 7.2242493 29.266496 7.0996094 29.369141C7.0922479 29.375275 7.0891773 29.384321 7.0820312 29.390625C6.3098387 29.96987 5.6186468 30.694538 5.0429688 31.523438C3.6122718 33.583447 2.8048589 36.287451 3.0019531 39.070312C3.3753982 44.350783 7.9195768 48.04052 13.199219 48C16.195666 47.97655 18.785089 46.714734 20.583984 44.613281L20.623047 44.640625C20.623047 44.640625 24.366534 39.332914 29.582031 32.958984L36.349609 38.759766 A 1.0001 1.0001 0 0 0 38 38L38 33.820312L42.195312 32.980469 A 1.0001 1.0001 0 0 0 42.650391 31.240234L35.980469 25.523438C38.897722 22.339237 41.975344 19.264885 44.974609 16.769531 A 1.0001 1.0001 0 0 0 45.244141 16.416016C45.738205 15.335464 46 14.125886 46 12.828125C46 8.2208571 43.742343 4.3916958 40.738281 2.3066406 A 1.0001 1.0001 0 0 0 39.958984 1.9882812 z M 40.335938 4.5097656C42.420332 6.3067869 44 9.2833564 44 12.828125C44 13.817244 43.791999 14.681548 43.449219 15.46875C40.785858 17.708138 38.095854 20.356327 35.513672 23.107422C34.896555 20.410493 33.65641 18.118208 31.978516 16.404297C35.327599 12.72815 38.067908 8.783412 40.335938 4.5097656 z M 24.921875 15.046875C29.461646 15.47925 33.14895 19.104108 33.890625 24.863281C32.758853 26.110447 31.649554 27.363399 30.589844 28.603516C29.56312 23.383534 26.234961 19.403474 21.917969 18.308594C22.92694 17.25493 23.931599 16.158707 24.921875 15.046875 z M 20.222656 20.042969C21.536624 20.162594 22.783857 20.599985 23.904297 21.316406C20.727396 24.30829 18.373047 26.220703 18.373047 26.220703 A 1.0001 1.0001 0 0 0 18.296875 27.710938C19.082506 28.487253 19.883221 30.124169 20.408203 31.908203C20.933185 33.692237 21.21875 35.632778 21.21875 37C21.21875 38.941329 20.806887 40.614503 20.078125 41.980469C19.69727 42.511988 18.982422 43.496094 18.982422 43.496094L19.015625 43.519531C17.596617 45.099878 15.573844 45.981294 13.183594 46C8.8212332 46.03348 5.2966018 43.151218 4.9980469 38.929688C4.8351411 36.629548 5.5262437 34.333303 6.6855469 32.664062C7.84485 30.994823 9.40975 30 11 30C12.72846 30 13.884404 30.712317 14.71875 31.824219C15.553096 32.93612 16 34.48905 16 36C16 37.835333 15.543598 39.117114 14.957031 39.902344C14.370465 40.687573 13.682619 41 13 41C12.317381 41 11.560049 40.638811 10.986328 40.050781C10.491288 39.543395 10.268803 38.888028 10.1875 38.28125L11.474609 36.976562L13.810547 34.650391C13.610547 33.920391 13.260781 33.290078 12.800781 32.830078L10.226562 35.402344L10.220703 35.396484L8.3476562 37.298828 A 1.0001 1.0001 0 0 0 8.0605469 38C8.0605469 39.319167 8.6668613 40.537248 9.5566406 41.449219C10.44642 42.361189 11.658619 43 13 43C14.341381 43 15.653113 42.312427 16.560547 41.097656C17.467981 39.882886 18 38.164667 18 36C18 34.10695 17.471764 32.160146 16.318359 30.623047C15.288195 29.250185 13.704136 28.241811 11.724609 28.041016C13.94133 26.088916 16.994691 23.301462 20.222656 20.042969 z M 25.480469 22.582031C27.358284 24.456413 28.650415 27.246773 28.935547 30.595703C26.736191 33.242463 24.770529 35.718111 23.185547 37.796875C23.20068 37.532877 23.21875 37.270767 23.21875 37C23.21875 35.367222 22.906643 33.307763 22.328125 31.341797C21.862652 29.75999 21.179746 28.337435 20.3125 27.167969C20.78954 26.779082 22.594414 25.314509 25.480469 22.582031 z M 34.640625 27.009766L39.789062 31.421875L36.804688 32.019531 A 1.0001 1.0001 0 0 0 36 33L36 35.826172L30.914062 31.464844C30.912946 31.42916 30.907572 31.394982 30.90625 31.359375C32.108497 29.92008 33.331221 28.477648 34.640625 27.009766 z" />
</svg>