<?xml version="1.0" encoding="utf-8"?>
<svg xmlns="http://www.w3.org/2000/svg" viewBox="0 0 50 50" width="515" height="515">
  <path d="M25 2C12.309295 2 2 12.309295 2 25C2 37.690705 12.309295 48 25 48C37.690705 48 48 37.690705 48 25C48 12.309295 37.690705 2 25 2 z M 25 4C36.609824 4 46 13.390176 46 25C46 36.609824 36.609824 46 25 46C13.390176 46 4 36.609824 4 25C4 13.390176 13.390176 4 25 4 z M 32.974609 14.986328 A 1.0001 1.0001 0 0 0 32.080078 16.394531L33.296875 19.234375L31.552734 20.105469 A 1.0001163 1.0001163 0 1 0 32.447266 21.894531L34.085938 21.074219L35.080078 23.394531 A 1.0009551 1.0009551 0 1 0 36.919922 22.605469L35.878906 20.177734L38.447266 18.894531 A 1.0001 1.0001 0 0 0 38.003906 16.994141 A 1.0001 1.0001 0 0 0 37.552734 17.105469L35.089844 18.335938L33.919922 15.605469 A 1.0001 1.0001 0 0 0 32.974609 14.986328 z M 18.316406 14.988281C18.150833 14.996648 17.977284 15.031611 17.792969 15.103516C17.080809 15.381724 16.889821 15.915031 16.705078 16.416016C16.520183 16.917414 16.396378 17.500467 16.294922 18.173828C16.092009 19.520551 16 21.217307 16 23C16 25.118379 16.140076 27.21688 16.388672 29.1875L14.552734 30.105469 A 1.0001163 1.0001163 0 1 0 15.447266 31.894531L16.703125 31.265625C17.048756 33.209683 17.507539 34.967981 18.072266 36.373047 A 1.0001 1.0001 0 1 0 19.927734 35.626953C19.38473 34.275934 18.92052 32.424504 18.582031 30.328125L26.640625 26.296875C28.041443 28.235861 29.30942 30.114729 30.140625 31.511719 A 1.0001908 1.0001908 0 1 0 31.859375 30.488281C31.019966 29.077502 29.806834 27.265857 28.458984 25.388672L29.447266 24.894531 A 1.0001 1.0001 0 0 0 29.003906 22.994141 A 1.0001 1.0001 0 0 0 28.552734 23.105469L27.257812 23.751953C26.485672 22.719705 25.698371 21.695089 24.912109 20.730469C23.590463 19.109015 22.306631 17.664364 21.189453 16.630859C20.630864 16.114107 20.118997 15.700098 19.611328 15.404297C19.357494 15.256396 19.088031 15.109176 18.789062 15.035156C18.639578 14.998146 18.48198 14.979915 18.316406 14.988281 z M 18.587891 17.097656C18.628041 17.112916 18.546369 17.096459 18.605469 17.130859C18.896788 17.300601 19.333464 17.64019 19.830078 18.099609C20.823306 19.018448 22.07435 20.415219 23.361328 21.994141C24.053166 22.842917 24.75471 23.745448 25.443359 24.660156L18.294922 28.234375C18.106766 26.552747 18 24.775921 18 23C18 21.287693 18.0929 19.65598 18.271484 18.470703C18.360774 17.878065 18.476114 17.394649 18.582031 17.107422C18.584331 17.101122 18.585491 17.103756 18.587891 17.097656 z" />
</svg>