<?xml version="1.0" encoding="utf-8"?>
<svg xmlns="http://www.w3.org/2000/svg" viewBox="0 0 50 50" width="515" height="515">
  <path d="M25 2C22.25 2 20 4.25 20 7C20 9.75 22.25 12 25 12C27.75 12 30 9.75 30 7C30 4.25 27.75 2 25 2 Z M 25 4C26.667969 4 28 5.332031 28 7C28 8.667969 26.667969 10 25 10C23.332031 10 22 8.667969 22 7C22 5.332031 23.332031 4 25 4 Z M 21 13C16.59375 13 13 16.59375 13 21L13 31.667969L15.953125 32.902344L17.074219 48L24.925781 48L26.578125 25.761719L30.21875 31.898438C30.082031 32.242188 30 32.609375 30 33L30 34L32 34L32 33C32 32.433594 32.433594 32 33 32C33.566406 32 34 32.433594 34 33L34 48L36 48L36 33C36 32.125 35.609375 31.335938 35 30.785156L35 29.761719L29.296875 18.523438L29.328125 18.597656C27.988281 15.3125 24.757813 13 21 13 Z M 21 15C23.9375 15 26.433594 16.800781 27.480469 19.355469L27.511719 19.425781L32.878906 30L31.417969 30L25.050781 19.277344L23.074219 46L18.925781 46L17.859375 31.53125L15 30.332031L15 21C15 17.675781 17.675781 15 21 15Z" />
</svg>