<?xml version="1.0" encoding="utf-8"?>
<svg xmlns="http://www.w3.org/2000/svg" viewBox="0 0 50 50" width="515" height="515">
  <path d="M4 4L4 46L46 46L46 44L6 44L6 4L4 4 z M 13 6 A 1 1 0 0 0 13 8 A 1 1 0 0 0 13 6 z M 23 6 A 1 1 0 0 0 23 8 A 1 1 0 0 0 23 6 z M 33 6 A 1 1 0 0 0 33 8 A 1 1 0 0 0 33 6 z M 43 6 A 1 1 0 0 0 43 8 A 1 1 0 0 0 43 6 z M 44.980469 13.990234 A 1.0001 1.0001 0 0 0 44.292969 14.292969L42.283203 16.302734L33 25.585938L23.746094 16.333984 A 1 1 0 0 0 23.701172 16.287109 A 1 1 0 0 0 23.640625 16.234375 A 1 1 0 0 0 23.632812 16.226562 A 1.0001 1.0001 0 0 0 23.597656 16.199219 A 1 1 0 0 0 23.585938 16.191406 A 1.0001 1.0001 0 0 0 23.53125 16.152344 A 1.0001 1.0001 0 0 0 23.515625 16.142578 A 1 1 0 0 0 23.466797 16.115234 A 1.0001 1.0001 0 0 0 23.451172 16.109375 A 1 1 0 0 0 23.378906 16.076172 A 1 1 0 0 0 23.375 16.074219 A 1.0001 1.0001 0 0 0 23.371094 16.072266 A 1 1 0 0 0 23.302734 16.048828 A 1 1 0 0 0 23.28125 16.041016 A 1.0001 1.0001 0 0 0 23.261719 16.037109 A 1 1 0 0 0 23.203125 16.021484 A 1 1 0 0 0 23.183594 16.017578 A 1.0001 1.0001 0 0 0 23.169922 16.015625 A 1 1 0 0 0 23.097656 16.005859 A 1 1 0 0 0 23.085938 16.003906 A 1.0001 1.0001 0 0 0 23.078125 16.003906 A 1 1 0 0 0 23 16 A 1.0001 1.0001 0 0 0 22.984375 16 A 1 1 0 0 0 22.900391 16.005859 A 1.0001 1.0001 0 0 0 22.833984 16.015625 A 1 1 0 0 0 22.787109 16.023438 A 1.0001 1.0001 0 0 0 22.734375 16.037109 A 1 1 0 0 0 22.705078 16.044922 A 1.0001 1.0001 0 0 0 22.65625 16.0625 A 1 1 0 0 0 22.597656 16.085938 A 1 1 0 0 0 22.521484 16.123047 A 1.0001 1.0001 0 0 0 22.470703 16.152344 A 1 1 0 0 0 22.423828 16.183594 A 1.0001 1.0001 0 0 0 22.355469 16.234375 A 1 1 0 0 0 22.351562 16.238281 A 1.0001 1.0001 0 0 0 22.292969 16.292969 A 1 1 0 0 0 22.283203 16.302734L12.283203 26.302734L8.2929688 30.292969 A 1.0001 1.0001 0 1 0 9.7070312 31.707031L13.716797 27.697266L23 18.414062L32.253906 27.666016L32.292969 27.707031 A 1.0001 1.0001 0 0 0 32.298828 27.712891 A 1 1 0 0 0 32.359375 27.765625 A 1.0001 1.0001 0 0 0 32.384766 27.787109 A 1 1 0 0 0 32.414062 27.808594 A 1.0001 1.0001 0 0 0 32.46875 27.847656 A 1 1 0 0 0 32.509766 27.871094 A 1.0001 1.0001 0 0 0 32.548828 27.890625 A 1 1 0 0 0 32.621094 27.923828 A 1.0001 1.0001 0 0 0 32.628906 27.927734 A 1 1 0 0 0 32.697266 27.951172 A 1.0001 1.0001 0 0 0 32.71875 27.958984 A 1 1 0 0 0 32.738281 27.962891 A 1 1 0 0 0 32.796875 27.978516 A 1.0001 1.0001 0 0 0 32.830078 27.984375 A 1 1 0 0 0 32.902344 27.994141 A 1.0001 1.0001 0 0 0 32.914062 27.996094 A 1 1 0 0 0 32.921875 27.996094 A 1 1 0 0 0 33 28 A 1.0001 1.0001 0 0 0 33.015625 28 A 1 1 0 0 0 33.099609 27.994141 A 1.0001 1.0001 0 0 0 33.166016 27.984375 A 1 1 0 0 0 33.212891 27.976562 A 1.0001 1.0001 0 0 0 33.265625 27.962891 A 1 1 0 0 0 33.294922 27.955078 A 1.0001 1.0001 0 0 0 33.34375 27.9375 A 1 1 0 0 0 33.402344 27.914062 A 1.0001 1.0001 0 0 0 33.447266 27.892578 A 1 1 0 0 0 33.478516 27.876953 A 1.0001 1.0001 0 0 0 33.529297 27.847656 A 1 1 0 0 0 33.576172 27.816406 A 1.0001 1.0001 0 0 0 33.648438 27.761719 A 1 1 0 0 0 33.65625 27.755859 A 1.0001 1.0001 0 0 0 33.707031 27.707031 A 1 1 0 0 0 33.716797 27.697266L43.716797 17.697266L45.707031 15.707031 A 1.0001 1.0001 0 0 0 44.980469 13.990234 z M 13 16 A 1 1 0 0 0 13 18 A 1 1 0 0 0 13 16 z M 33 16 A 1 1 0 0 0 33 18 A 1 1 0 0 0 33 16 z M 23 26 A 1 1 0 0 0 23 28 A 1 1 0 0 0 23 26 z M 43 26 A 1 1 0 0 0 43 28 A 1 1 0 0 0 43 26 z M 13 36 A 1 1 0 0 0 13 38 A 1 1 0 0 0 13 36 z M 23 36 A 1 1 0 0 0 23 38 A 1 1 0 0 0 23 36 z M 33 36 A 1 1 0 0 0 33 38 A 1 1 0 0 0 33 36 z M 43 36 A 1 1 0 0 0 43 38 A 1 1 0 0 0 43 36 z" />
</svg>