<?xml version="1.0" encoding="utf-8"?>
<svg xmlns="http://www.w3.org/2000/svg" viewBox="0 0 50 50" width="515" height="515">
  <path d="M7 2L7 48L43 48L43 47L43 14.585938L30.414062 2L7 2 z M 9 4L29 4L29 16L41 16L41 46L9 46L9 4 z M 31 5.4140625L39.585938 14L31 14L31 5.4140625 z M 36 23 A 2 2 0 0 0 34 25 A 2 2 0 0 0 34.136719 25.726562L28.298828 33.025391 A 2 2 0 0 0 28 33 A 2 2 0 0 0 27.597656 33.042969L21.896484 26.628906 A 2 2 0 0 0 22 26 A 2 2 0 0 0 20 24 A 2 2 0 0 0 18 26 A 2 2 0 0 0 18.068359 26.517578L14.515625 30.070312 A 2 2 0 0 0 14 30 A 2 2 0 0 0 12 32 A 2 2 0 0 0 14 34 A 2 2 0 0 0 16 32 A 2 2 0 0 0 15.931641 31.482422L19.484375 27.929688 A 2 2 0 0 0 20 28 A 2 2 0 0 0 20.402344 27.957031L26.103516 34.371094 A 2 2 0 0 0 26 35 A 2 2 0 0 0 28 37 A 2 2 0 0 0 30 35 A 2 2 0 0 0 29.863281 34.273438L35.701172 26.974609 A 2 2 0 0 0 36 27 A 2 2 0 0 0 38 25 A 2 2 0 0 0 36 23 z" />
</svg>