<?xml version="1.0" encoding="utf-8"?>
<svg xmlns="http://www.w3.org/2000/svg" viewBox="0 0 50 50" width="515" height="515">
  <path d="M28.78125 0C28.328125 0.0820313 27.992188 0.460938 27.960938 0.917969C27.929688 1.378906 28.21875 1.796875 28.65625 1.9375C28.65625 1.9375 29.0625 2.046875 29.59375 2.75C30.113281 3.4375 30.65625 4.671875 30.5 7C29.695313 7.8125 28.894531 8.710938 28.15625 9.71875C27.894531 10 27.816406 10.40625 27.953125 10.761719C28.09375 11.121094 28.421875 11.371094 28.808594 11.398438C29.191406 11.429688 29.554688 11.238281 29.75 10.90625C35.394531 3.230469 43.75 2 43.75 2C44.300781 1.921875 44.6875 1.410156 44.609375 0.859375C44.53125 0.308594 44.019531 -0.078125 43.46875 0C43.46875 0 37.855469 0.851563 32.46875 5.21875C32.304688 3.558594 31.796875 2.363281 31.1875 1.5625C30.347656 0.453125 29.28125 0.0625 29.28125 0.0625C29.121094 0 28.949219 -0.0234375 28.78125 0 Z M 21 6C17.699219 6 15 8.699219 15 12C15 15.300781 17.699219 18 21 18C24.300781 18 27 15.300781 27 12C27 8.699219 24.300781 6 21 6 Z M 21 8C23.222656 8 25 9.777344 25 12C25 14.222656 23.222656 16 21 16C18.777344 16 17 14.222656 17 12C17 9.777344 18.777344 8 21 8 Z M 33 11C29.699219 11 27 13.699219 27 17C27 20.300781 29.699219 23 33 23C36.300781 23 39 20.300781 39 17C39 13.699219 36.300781 11 33 11 Z M 33 13C35.222656 13 37 14.777344 37 17C37 19.222656 35.222656 21 33 21C30.777344 21 29 19.222656 29 17C29 14.777344 30.777344 13 33 13 Z M 12 14C8.699219 14 6 16.699219 6 20C6 23.300781 8.699219 26 12 26C15.300781 26 18 23.300781 18 20C18 16.699219 15.300781 14 12 14 Z M 12 16C14.222656 16 16 17.777344 16 20C16 22.222656 14.222656 24 12 24C9.777344 24 8 22.222656 8 20C8 17.777344 9.777344 16 12 16 Z M 23 19C19.699219 19 17 21.699219 17 25C17 28.300781 19.699219 31 23 31C26.300781 31 29 28.300781 29 25C29 21.699219 26.300781 19 23 19 Z M 23 21C25.222656 21 27 22.777344 27 25C27 27.222656 25.222656 29 23 29C20.777344 29 19 27.222656 19 25C19 22.777344 20.777344 21 23 21 Z M 35 23C31.699219 23 29 25.699219 29 29C29 32.300781 31.699219 35 35 35C38.300781 35 41 32.300781 41 29C41 25.699219 38.300781 23 35 23 Z M 35 25C37.222656 25 39 26.777344 39 29C39 31.222656 37.222656 33 35 33C32.777344 33 31 31.222656 31 29C31 26.777344 32.777344 25 35 25 Z M 13 26C9.699219 26 7 28.699219 7 32C7 35.300781 9.699219 38 13 38C16.300781 38 19 35.300781 19 32C19 28.699219 16.300781 26 13 26 Z M 13 28C15.222656 28 17 29.777344 17 32C17 34.222656 15.222656 36 13 36C10.777344 36 9 34.222656 9 32C9 29.777344 10.777344 28 13 28 Z M 25 31C21.699219 31 19 33.699219 19 37C19 40.300781 21.699219 43 25 43C28.300781 43 31 40.300781 31 37C31 33.699219 28.300781 31 25 31 Z M 25 33C27.222656 33 29 34.777344 29 37C29 39.222656 27.222656 41 25 41C22.777344 41 21 39.222656 21 37C21 34.777344 22.777344 33 25 33 Z M 15 38C11.699219 38 9 40.699219 9 44C9 47.300781 11.699219 50 15 50C18.300781 50 21 47.300781 21 44C21 40.699219 18.300781 38 15 38 Z M 15 40C17.222656 40 19 41.777344 19 44C19 46.222656 17.222656 48 15 48C12.777344 48 11 46.222656 11 44C11 41.777344 12.777344 40 15 40Z" />
</svg>