<?xml version="1.0" encoding="utf-8"?>
<svg xmlns="http://www.w3.org/2000/svg" viewBox="0 0 50 50" width="515" height="515">
  <path d="M21.90625 6.96875C21.863281 6.976563 21.820313 6.988281 21.78125 7L0 7L0 21.8125C-0.0273438 21.945313 -0.0273438 22.085938 0 22.21875L0 27.6875C-0.0585938 27.882813 -0.0585938 28.085938 0 28.28125L0 43L50 43L50 28.1875C50.027344 28.054688 50.027344 27.914063 50 27.78125L50 22.1875C50.027344 22.054688 50.027344 21.914063 50 21.78125L50 7L28.1875 7C28.054688 6.972656 27.914063 6.972656 27.78125 7L22.1875 7C22.097656 6.976563 22 6.964844 21.90625 6.96875 Z M 2 9L4.21875 9L18.4375 18.71875L20 19.78125L20 9L21 9L21 21L2 21L2 20L16.84375 20L14.15625 18.1875L2 9.875 Z M 7.71875 9L18 9L18 16 Z M 23 9L27 9L27 23L48 23L48 27L27 27L27 41L23 41L23 27L2 27L2 23L23 23 Z M 29 9L30 9L30 19.78125L31.5625 18.71875L45.78125 9L48 9L48 9.875L35.84375 18.1875L33.15625 20L48 20L48 21L29 21 Z M 32 9L42.28125 9L32 16 Z M 2 12.28125L10.375 18L2 18 Z M 48 12.28125L48 18L39.625 18 Z M 2 29L21 29L21 41L20 41L20 30.21875L18.4375 31.28125L4.21875 41L2 41L2 40.125L14.15625 31.8125L16.84375 30L2 30 Z M 29 29L48 29L48 30L33.15625 30L35.84375 31.8125L48 40.125L48 41L45.78125 41L31.5625 31.28125L30 30.21875L30 41L29 41 Z M 2 32L10.375 32L2 37.71875 Z M 39.625 32L48 32L48 37.71875 Z M 18 34L18 41L7.71875 41 Z M 32 34L42.28125 41L32 41Z" />
</svg>