<?xml version="1.0" encoding="utf-8"?>
<svg xmlns="http://www.w3.org/2000/svg" viewBox="0 0 50 50" width="515" height="515">
  <path d="M25 0C15.121094 0 7 7.261719 7 16.3125C7 21.085938 10.035156 25.085938 12.90625 28.4375C14.339844 30.113281 15.765625 31.640625 16.78125 32.96875C17.796875 34.296875 18.34375 35.410156 18.34375 36.09375L18.34375 37.46875C18.136719 37.472656 17 37.5 17 37.5C16.449219 37.5 16 37.949219 16 38.5L16 43.5C16 44.871094 17.132813 46 18.5 46L20.40625 46C20.730469 48.25 22.660156 50 25 50C27.339844 50 29.269531 48.25 29.59375 46L31.5 46C32.867188 46 34 44.871094 34 43.5C34 43.5 34.023438 42.320313 34.03125 41.09375C34.035156 40.480469 34.035156 39.863281 34.03125 39.375C34.03125 39.132813 34.035156 38.914063 34.03125 38.75C34.027344 38.667969 34.003906 38.601563 34 38.53125C33.996094 38.460938 34.027344 38.472656 33.9375 38.1875C33.9375 38.1875 33.824219 37.894531 33.75 37.8125C33.675781 37.730469 33.585938 37.691406 33.53125 37.65625C33.425781 37.585938 33.363281 37.550781 33.3125 37.53125C33.210938 37.496094 33.171875 37.507813 33.125 37.5C33.035156 37.484375 32.984375 37.476563 32.90625 37.46875C32.753906 37.457031 32.542969 37.445313 32.3125 37.4375C32.15625 37.433594 31.878906 37.441406 31.6875 37.4375L31.6875 36.125C31.6875 35.433594 32.234375 34.316406 33.25 33C34.265625 31.683594 35.660156 30.167969 37.09375 28.5C39.957031 25.164063 43 21.15625 43 16.3125C43 7.261719 34.878906 0 25 0 Z M 25 2C33.90625 2 41 8.460938 41 16.3125C41 20.300781 38.386719 23.9375 35.59375 27.1875C34.199219 28.8125 32.761719 30.34375 31.65625 31.78125C30.550781 33.21875 29.6875 34.585938 29.6875 36.125L29.6875 37.40625C28.46875 37.402344 27.074219 37.398438 25.59375 37.40625C27.195313 34.605469 27.941406 30.835938 28 26.875C28.589844 27.113281 29.21875 27.21875 29.875 27.15625C31.308594 27.023438 32.773438 26.394531 33.875 25.21875C34.699219 24.335938 35.097656 23.019531 35.15625 21.4375C35.214844 19.855469 34.894531 17.984375 34.0625 16.0625C32.402344 12.222656 28.605469 8.207031 21.53125 6C21.402344 5.953125 21.261719 5.929688 21.125 5.9375C20.621094 5.984375 20.230469 6.402344 20.21875 6.90625C20.140625 8.605469 19.011719 10.601563 17.875 13.09375C16.738281 15.585938 15.679688 18.613281 16.21875 22.40625C16.71875 25.9375 19.472656 27.679688 22.03125 27.96875C23.308594 28.113281 24.566406 27.9375 25.625 27.53125C25.757813 27.480469 25.875 27.40625 26 27.34375C25.859375 31.441406 24.859375 35.214844 23.1875 37.4375C21.835938 37.453125 21.285156 37.457031 20.34375 37.46875L20.34375 36.09375C20.34375 34.558594 19.484375 33.195313 18.375 31.75C17.265625 30.304688 15.839844 28.761719 14.4375 27.125C11.636719 23.855469 9 20.214844 9 16.3125C9 8.460938 16.09375 2 25 2 Z M 21.875 8.3125C27.789063 10.417969 30.867188 13.722656 32.21875 16.84375C32.933594 18.492188 33.203125 20.078125 33.15625 21.34375C33.109375 22.609375 32.703125 23.558594 32.4375 23.84375C31.714844 24.613281 30.625 25.101563 29.6875 25.1875C28.847656 25.265625 28.257813 25.058594 27.96875 24.71875C27.753906 20.476563 26.734375 16.167969 24.78125 12.75C24.589844 12.382813 24.191406 12.171875 23.78125 12.21875C23.449219 12.265625 23.164063 12.476563 23.019531 12.777344C22.875 13.078125 22.890625 13.429688 23.0625 13.71875C24.820313 16.792969 25.808594 20.886719 26 24.90625C25.859375 25.128906 25.503906 25.457031 24.90625 25.6875C24.191406 25.960938 23.207031 26.078125 22.25 25.96875C20.332031 25.753906 18.566406 24.796875 18.1875 22.125C17.71875 18.824219 18.609375 16.265625 19.6875 13.90625C20.5625 11.992188 21.445313 10.210938 21.875 8.3125 Z M 24.96875 39.40625C26.960938 39.394531 28.972656 39.394531 30.46875 39.40625C31.125 39.410156 31.617188 39.425781 32.03125 39.4375C32.035156 39.898438 32.035156 40.476563 32.03125 41.0625C32.023438 42.28125 32 43.46875 32 43.46875C32 43.480469 32 43.488281 32 43.5C32 43.785156 31.773438 44 31.5 44L18.5 44C18.226563 44 18 43.785156 18 43.5L18 39.5C18.820313 39.488281 21.480469 39.429688 24.96875 39.40625 Z M 22.4375 46L27.5625 46C27.273438 47.152344 26.253906 48 25 48C23.746094 48 22.726563 47.152344 22.4375 46Z" />
</svg>