<?xml version="1.0" encoding="utf-8"?>
<svg xmlns="http://www.w3.org/2000/svg" viewBox="0 0 50 50" width="515" height="515">
  <path d="M19.875 4.40625C15.203125 4.492188 12.21875 6.378906 10.9375 9.3125C9.714844 12.105469 9.988281 15.632813 10.875 19.28125C10.398438 19.839844 10.019531 20.589844 10.15625 21.71875C10.304688 22.949219 10.644531 23.824219 11.125 24.4375C11.390625 24.773438 11.738281 24.804688 12.0625 24.96875C12.238281 26.015625 12.53125 27.0625 12.96875 27.9375C13.21875 28.441406 13.503906 28.90625 13.78125 29.28125C13.90625 29.449219 14.085938 29.546875 14.21875 29.6875C14.226563 30.921875 14.230469 31.949219 14.125 33.25C13.800781 34.035156 13.042969 34.667969 11.8125 35.28125C10.542969 35.914063 8.890625 36.5 7.21875 37.21875C5.546875 37.9375 3.828125 38.8125 2.46875 40.1875C1.109375 41.5625 0.148438 43.449219 0 45.9375L-0.0625 47L40.0625 47L40 45.9375C39.894531 44.207031 39.40625 42.773438 38.65625 41.59375L50.0625 41.59375L50 40.53125C49.871094 38.402344 49.039063 36.746094 47.875 35.5625C46.710938 34.378906 45.253906 33.640625 43.84375 33.03125C42.433594 32.421875 41.050781 31.964844 40 31.4375C38.984375 30.929688 38.410156 30.417969 38.15625 29.8125C38.074219 28.761719 38.054688 27.90625 38.0625 26.90625C38.160156 26.796875 38.316406 26.71875 38.40625 26.59375C38.644531 26.265625 38.882813 25.867188 39.09375 25.4375C39.449219 24.707031 39.691406 23.84375 39.84375 22.96875C40.105469 22.824219 40.382813 22.800781 40.59375 22.53125C41.023438 21.984375 41.308594 21.242188 41.4375 20.1875L41.4375 20.15625C41.546875 19.242188 41.25 18.628906 40.875 18.125C41.289063 16.769531 41.796875 14.632813 41.625 12.40625C41.527344 11.179688 41.21875 9.941406 40.46875 8.90625C39.757813 7.921875 38.59375 7.199219 37.125 6.9375C36.171875 5.878906 34.667969 5.40625 32.90625 5.40625C30.480469 5.449219 28.597656 6.050781 27.21875 7.125C26.589844 6.734375 25.855469 6.449219 25.03125 6.28125C23.980469 4.917969 22.089844 4.40625 19.90625 4.40625 Z M 19.90625 6.40625C19.917969 6.40625 19.925781 6.40625 19.9375 6.40625C20.929688 6.410156 21.753906 6.558594 22.375 6.78125C22.382813 6.785156 22.398438 6.777344 22.40625 6.78125C22.507813 6.855469 22.625 6.902344 22.75 6.9375C22.769531 6.949219 22.792969 6.957031 22.8125 6.96875C23.203125 7.167969 23.484375 7.410156 23.625 7.65625L23.875 8.0625L24.34375 8.125C24.679688 8.171875 24.976563 8.257813 25.25 8.34375C25.097656 8.519531 25 8.75 25 9C25 9.550781 25.449219 10 26 10C26.398438 10 26.714844 9.746094 26.875 9.40625C26.949219 9.492188 27.027344 9.566406 27.09375 9.65625C27.65625 10.433594 27.96875 11.519531 28.0625 12.71875C28.25 15.117188 27.558594 17.910156 27.125 19.21875L26.875 20L27.5625 20.40625C27.519531 20.378906 27.945313 20.667969 27.84375 21.5C27.726563 22.480469 27.492188 22.988281 27.3125 23.21875C27.132813 23.449219 27.039063 23.4375 27.03125 23.4375L26.1875 23.5L26.09375 24.3125C26.035156 24.867188 25.84375 25.492188 25.625 26.09375C25.265625 26.246094 25 26.585938 25 27C25 27.128906 25.050781 27.230469 25.09375 27.34375C24.945313 27.621094 24.789063 27.910156 24.65625 28.09375C24.472656 28.347656 24.28125 28.488281 24.375 28.4375L23.84375 28.71875L23.84375 29.3125C23.84375 29.378906 23.84375 29.433594 23.84375 29.5C23.667969 29.207031 23.363281 29 23 29C22.449219 29 22 29.449219 22 30C22 30.550781 22.449219 31 23 31C23.363281 31 23.667969 30.792969 23.84375 30.5C23.835938 31.46875 23.828125 32.429688 23.9375 33.625L23.9375 33.75L24 33.875C24.570313 35.410156 25.890625 36.367188 27.34375 37.09375C28.507813 37.675781 29.816406 38.148438 31.09375 38.65625C31.050781 38.769531 31 38.871094 31 39C31 39.550781 31.449219 40 32 40C32.390625 40 32.710938 39.761719 32.875 39.4375C33.878906 39.929688 34.8125 40.484375 35.59375 41.15625C35.597656 41.160156 35.589844 41.183594 35.59375 41.1875C35.613281 41.210938 35.632813 41.230469 35.65625 41.25C35.480469 41.097656 35.25 41 35 41C34.449219 41 34 41.449219 34 42C34 42.550781 34.449219 43 35 43C35.550781 43 36 42.550781 36 42C36 41.738281 35.914063 41.492188 35.75 41.3125C35.8125 41.386719 35.886719 41.449219 35.96875 41.5C35.972656 41.503906 35.996094 41.496094 36 41.5C36.03125 41.53125 36.0625 41.5625 36.09375 41.59375C36.757813 42.269531 37.222656 43.132813 37.53125 44.15625C37.226563 44.328125 37 44.625 37 45L33 45C33 44.449219 32.550781 44 32 44C31.449219 44 31 44.449219 31 45L27 45C27 44.449219 26.550781 44 26 44C25.449219 44 25 44.449219 25 45L21 45C21 44.449219 20.550781 44 20 44C19.449219 44 19 44.449219 19 45L15 45C15 44.449219 14.550781 44 14 44C13.449219 44 13 44.449219 13 45L9 45C9 44.449219 8.550781 44 8 44C7.449219 44 7 44.449219 7 45L3 45C3 44.625 2.773438 44.328125 2.46875 44.15625C2.777344 43.132813 3.238281 42.269531 3.90625 41.59375C4.019531 41.480469 4.160156 41.390625 4.28125 41.28125C5.089844 40.5625 6.054688 39.953125 7.125 39.4375C7.289063 39.761719 7.609375 40 8 40C8.550781 40 9 39.550781 9 39C9 38.871094 8.949219 38.769531 8.90625 38.65625C10.195313 38.144531 11.511719 37.679688 12.6875 37.09375C14.144531 36.367188 15.492188 35.410156 16.0625 33.875L16.125 33.625C16.230469 32.46875 16.226563 31.53125 16.21875 30.59375C16.402344 30.835938 16.675781 31 17 31C17.550781 31 18 30.550781 18 30C18 29.449219 17.550781 29 17 29C16.675781 29 16.402344 29.164063 16.21875 29.40625C16.21875 29.375 16.21875 29.34375 16.21875 29.3125L16.21875 28.71875L15.6875 28.4375C15.777344 28.484375 15.5625 28.347656 15.375 28.09375C15.238281 27.910156 15.0625 27.652344 14.90625 27.375C14.957031 27.253906 15 27.136719 15 27C15 26.574219 14.71875 26.238281 14.34375 26.09375C14.128906 25.492188 13.964844 24.859375 13.90625 24.3125L13.8125 23.5L12.96875 23.4375C12.960938 23.4375 12.867188 23.449219 12.6875 23.21875C12.507813 22.988281 12.273438 22.480469 12.15625 21.5C12.058594 20.667969 12.480469 20.378906 12.4375 20.40625L13.09375 20L12.90625 19.28125C11.964844 15.65625 11.800781 12.363281 12.78125 10.125C12.882813 9.890625 12.996094 9.65625 13.125 9.4375C13.289063 9.761719 13.609375 10 14 10C14.550781 10 15 9.550781 15 9C15 8.5625 14.707031 8.199219 14.3125 8.0625C14.910156 7.5625 15.667969 7.152344 16.59375 6.875C16.722656 6.9375 16.847656 7 17 7C17.316406 7 17.597656 6.851563 17.78125 6.625C18.425781 6.515625 19.113281 6.421875 19.90625 6.40625 Z M 4.28125 41.28125C4.101563 41.460938 4 41.722656 4 42C4 42.550781 4.449219 43 5 43C5.550781 43 6 42.550781 6 42C6 41.449219 5.550781 41 5 41C4.722656 41 4.460938 41.101563 4.28125 41.28125 Z M 32.90625 7.40625C32.917969 7.40625 32.925781 7.40625 32.9375 7.40625C34.601563 7.414063 35.640625 7.90625 35.90625 8.375L36.15625 8.78125L36.625 8.875C37.761719 9.03125 38.394531 9.441406 38.84375 10.0625C39.292969 10.683594 39.546875 11.570313 39.625 12.5625C39.78125 14.546875 39.203125 16.910156 38.84375 18L38.59375 18.75L39.28125 19.15625C39.191406 19.101563 39.546875 19.292969 39.46875 19.9375C39.371094 20.746094 39.160156 21.148438 39.03125 21.3125C38.902344 21.476563 38.871094 21.441406 38.90625 21.4375L38.0625 21.5L38 22.3125C37.925781 23.015625 37.613281 23.878906 37.28125 24.5625C37.113281 24.902344 36.960938 25.203125 36.8125 25.40625C36.722656 25.527344 36.660156 25.617188 36.625 25.65625L36.59375 25.65625C36.589844 25.660156 36.59375 25.6875 36.59375 25.6875L36.0625 25.9375L36.0625 26.53125C36.0625 27.746094 36.027344 28.765625 36.15625 30.1875L36.15625 30.3125L36.21875 30.4375C36.722656 31.785156 37.886719 32.597656 39.125 33.21875C40.363281 33.839844 41.75 34.308594 43.0625 34.875C44.375 35.441406 45.566406 36.085938 46.4375 36.96875C47.09375 37.636719 47.503906 38.523438 47.75 39.59375L36.875 39.59375C35.644531 38.550781 34.222656 37.828125 32.8125 37.21875C31.148438 36.5 29.515625 35.914063 28.25 35.28125C27.035156 34.671875 26.269531 34.054688 25.9375 33.28125C25.828125 31.964844 25.835938 30.933594 25.84375 29.6875C25.976563 29.542969 26.15625 29.449219 26.28125 29.28125C26.554688 28.902344 26.816406 28.4375 27.0625 27.9375C27.488281 27.0625 27.796875 26.011719 27.96875 24.96875C28.28125 24.804688 28.617188 24.765625 28.875 24.4375C29.355469 23.824219 29.695313 22.949219 29.84375 21.71875C29.976563 20.625 29.609375 19.902344 29.15625 19.34375C29.644531 17.757813 30.269531 15.195313 30.0625 12.5625C29.949219 11.125 29.582031 9.691406 28.71875 8.5C28.714844 8.492188 28.722656 8.476563 28.71875 8.46875C29.660156 7.84375 31 7.445313 32.90625 7.40625 Z M 20 8C19.449219 8 19 8.449219 19 9C19 9.550781 19.449219 10 20 10C20.550781 10 21 9.550781 21 9C21 8.449219 20.550781 8 20 8 Z M 17 11C16.449219 11 16 11.449219 16 12C16 12.550781 16.449219 13 17 13C17.550781 13 18 12.550781 18 12C18 11.449219 17.550781 11 17 11 Z M 23 11C22.449219 11 22 11.449219 22 12C22 12.550781 22.449219 13 23 13C23.550781 13 24 12.550781 24 12C24 11.449219 23.550781 11 23 11 Z M 14 14C13.449219 14 13 14.449219 13 15C13 15.550781 13.449219 16 14 16C14.550781 16 15 15.550781 15 15C15 14.449219 14.550781 14 14 14 Z M 20 14C19.449219 14 19 14.449219 19 15C19 15.550781 19.449219 16 20 16C20.550781 16 21 15.550781 21 15C21 14.449219 20.550781 14 20 14 Z M 26 14C25.449219 14 25 14.449219 25 15C25 15.550781 25.449219 16 26 16C26.550781 16 27 15.550781 27 15C27 14.449219 26.550781 14 26 14 Z M 17 17C16.449219 17 16 17.449219 16 18C16 18.550781 16.449219 19 17 19C17.550781 19 18 18.550781 18 18C18 17.449219 17.550781 17 17 17 Z M 23 17C22.449219 17 22 17.449219 22 18C22 18.550781 22.449219 19 23 19C23.550781 19 24 18.550781 24 18C24 17.449219 23.550781 17 23 17 Z M 14 20C13.449219 20 13 20.449219 13 21C13 21.550781 13.449219 22 14 22C14.550781 22 15 21.550781 15 21C15 20.449219 14.550781 20 14 20 Z M 20 20C19.449219 20 19 20.449219 19 21C19 21.550781 19.449219 22 20 22C20.550781 22 21 21.550781 21 21C21 20.449219 20.550781 20 20 20 Z M 26 20C25.449219 20 25 20.449219 25 21C25 21.550781 25.449219 22 26 22C26.550781 22 27 21.550781 27 21C27 20.449219 26.550781 20 26 20 Z M 17 23C16.449219 23 16 23.449219 16 24C16 24.550781 16.449219 25 17 25C17.550781 25 18 24.550781 18 24C18 23.449219 17.550781 23 17 23 Z M 23 23C22.449219 23 22 23.449219 22 24C22 24.550781 22.449219 25 23 25C23.550781 25 24 24.550781 24 24C24 23.449219 23.550781 23 23 23 Z M 20 26C19.449219 26 19 26.449219 19 27C19 27.550781 19.449219 28 20 28C20.550781 28 21 27.550781 21 27C21 26.449219 20.550781 26 20 26 Z M 20 32C19.449219 32 19 32.449219 19 33C19 33.550781 19.449219 34 20 34C20.550781 34 21 33.550781 21 33C21 32.449219 20.550781 32 20 32 Z M 17 35C16.449219 35 16 35.449219 16 36C16 36.550781 16.449219 37 17 37C17.550781 37 18 36.550781 18 36C18 35.449219 17.550781 35 17 35 Z M 23 35C22.449219 35 22 35.449219 22 36C22 36.550781 22.449219 37 23 37C23.550781 37 24 36.550781 24 36C24 35.449219 23.550781 35 23 35 Z M 14 38C13.449219 38 13 38.449219 13 39C13 39.550781 13.449219 40 14 40C14.550781 40 15 39.550781 15 39C15 38.449219 14.550781 38 14 38 Z M 20 38C19.449219 38 19 38.449219 19 39C19 39.550781 19.449219 40 20 40C20.550781 40 21 39.550781 21 39C21 38.449219 20.550781 38 20 38 Z M 26 38C25.449219 38 25 38.449219 25 39C25 39.550781 25.449219 40 26 40C26.550781 40 27 39.550781 27 39C27 38.449219 26.550781 38 26 38 Z M 11 41C10.449219 41 10 41.449219 10 42C10 42.550781 10.449219 43 11 43C11.550781 43 12 42.550781 12 42C12 41.449219 11.550781 41 11 41 Z M 17 41C16.449219 41 16 41.449219 16 42C16 42.550781 16.449219 43 17 43C17.550781 43 18 42.550781 18 42C18 41.449219 17.550781 41 17 41 Z M 23 41C22.449219 41 22 41.449219 22 42C22 42.550781 22.449219 43 23 43C23.550781 43 24 42.550781 24 42C24 41.449219 23.550781 41 23 41 Z M 29 41C28.449219 41 28 41.449219 28 42C28 42.550781 28.449219 43 29 43C29.550781 43 30 42.550781 30 42C30 41.449219 29.550781 41 29 41Z" />
</svg>