<?xml version="1.0" encoding="utf-8"?>
<svg xmlns="http://www.w3.org/2000/svg" viewBox="0 0 50 50" width="515" height="515">
  <path d="M0 7L0 37L4 37C4.359375 37.003906 4.695313 36.816406 4.878906 36.503906C5.058594 36.191406 5.058594 35.808594 4.878906 35.496094C4.695313 35.183594 4.359375 34.996094 4 35L2 35L2 9L42 9L42 11C41.996094 11.359375 42.183594 11.695313 42.496094 11.878906C42.808594 12.058594 43.191406 12.058594 43.503906 11.878906C43.816406 11.695313 44.003906 11.359375 44 11L44 7 Z M 6 13L6 43L50 43L50 13 Z M 8 15L48 15L48 16.75C47.507813 17.152344 32.21875 29.679688 30.84375 30.84375C29.769531 31.753906 28.632813 31.90625 28 31.90625C27.367188 31.90625 26.230469 31.753906 25.15625 30.84375C23.78125 29.679688 8.492188 17.152344 8 16.75 Z M 8 19.3125C9.660156 20.675781 14.582031 24.71875 19.09375 28.4375L8 36.78125 Z M 48 19.3125L48 36.78125L36.90625 28.4375C41.417969 24.71875 46.339844 20.675781 48 19.3125 Z M 20.6875 29.78125C21.707031 30.621094 23.625 32.191406 23.84375 32.375C25.367188 33.664063 27.035156 33.90625 28 33.90625C28.964844 33.90625 30.632813 33.664063 32.15625 32.375C32.375 32.191406 34.292969 30.621094 35.3125 29.78125L48 39.28125L48 41L8 41L8 39.28125Z" />
</svg>