<?xml version="1.0" encoding="utf-8"?>
<svg xmlns="http://www.w3.org/2000/svg" viewBox="0 0 50 50" width="515" height="515">
  <path d="M5 2C2.2504839 2 0 4.2504839 0 7L0 31C0 33.749516 2.2504839 36 5 36L42 36L42 6L9.796875 6C9.3172207 3.7418136 7.3954602 2 5 2 z M 5 4C6.6684839 4 8 5.3315161 8 7L8 27.029297C7.1609431 26.392748 6.1279363 26 5 26C3.8720637 26 2.8390569 26.392748 2 27.029297L2 7C2 5.3315161 3.3315161 4 5 4 z M 10 8L40 8L40 34L5 34C3.3315161 34 2 32.668484 2 31C2 29.331516 3.3315161 28 5 28C6.6684839 28 8 29.331516 8 31L10 31L10 8 z M 44 10 A 1.0001 1.0001 0 1 0 44 12L44 38L9 38C8.2478825 38 7.5758531 37.717643 7.0390625 37.248047 A 1.0001 1.0001 0 1 0 5.7207031 38.751953C6.5899125 39.512357 7.7381175 40 9 40L46 40L46 10L44 10 z M 29 13L31.236328 15.236328L26.005859 20.183594L21.005859 14.933594L13.947266 21.605469L15.322266 23.060547L20.931641 17.755859L25.931641 23.005859L32.652344 16.652344L35 19L35 13L29 13 z M 48 14 A 1.0001 1.0001 0 1 0 48 16L48 42L13 42C12.247882 42 11.575854 41.717643 11.039062 41.248047 A 1.0001 1.0001 0 1 0 9.7207031 42.751953C10.589913 43.512357 11.738118 44 13 44L50 44L50 14L48 14 z M 14 27L14 29L35 29L35 27L14 27 z" />
</svg>