<?xml version="1.0" encoding="utf-8"?>
<svg xmlns="http://www.w3.org/2000/svg" viewBox="0 0 50 50" width="515" height="515">
  <path d="M14 5C9.59375 5 6 8.59375 6 13C6 17.40625 9.59375 21 14 21C18.40625 21 22 17.40625 22 13C22 8.59375 18.40625 5 14 5 Z M 14 7C17.324219 7 20 9.675781 20 13C20 16.324219 17.324219 19 14 19C10.675781 19 8 16.324219 8 13C8 9.675781 10.675781 7 14 7 Z M 40 18C36.699219 18 34 20.699219 34 24C34 24.945313 34.234375 25.828125 34.625 26.625L22.8125 23.34375C22.804688 23.339844 22.789063 23.347656 22.78125 23.34375C19.609375 22.292969 15.90625 22 14 22C12.183594 22 8.277344 22.285156 5 23.34375C4.988281 23.34375 4.980469 23.34375 4.96875 23.34375C1.976563 24.378906 0 27.191406 0 30.3125L0 43C0 43.550781 0.449219 44 1 44L27 44C27.550781 44 28 43.550781 28 43L28 35.15625L30.75 35.78125C30.273438 36.765625 30 37.871094 30 39L30 43C30 43.550781 30.449219 44 31 44L49 44C49.550781 44 50 43.550781 50 43L50 39C50 36.210938 48.371094 33.757813 45.96875 32.5C45.957031 32.5 45.949219 32.5 45.9375 32.5C43.910156 31.539063 41.722656 31 40 31C38.285156 31 36.113281 31.546875 34.09375 32.5C34.085938 32.503906 34.070313 32.496094 34.0625 32.5C33.246094 32.875 32.554688 33.410156 31.96875 34.03125L27.21875 32.9375C26.921875 32.871094 26.613281 32.941406 26.378906 33.128906C26.140625 33.320313 26.003906 33.605469 26 33.90625L26 42L2 42L2 30.3125C2 28.042969 3.402344 26.019531 5.59375 25.25C5.601563 25.246094 5.617188 25.253906 5.625 25.25C8.542969 24.3125 12.421875 24 14 24C15.6875 24 19.363281 24.308594 22.1875 25.25C22.199219 25.25 22.207031 25.25 22.21875 25.25L37.65625 29.53125L37.6875 29.53125C37.988281 29.65625 38.304688 29.738281 38.625 29.8125C38.65625 29.824219 38.6875 29.835938 38.71875 29.84375C39.128906 29.933594 39.5625 30 40 30C43.300781 30 46 27.300781 46 24C46 20.699219 43.300781 18 40 18 Z M 40 20C42.222656 20 44 21.777344 44 24C44 26.222656 42.222656 28 40 28C39.722656 28 39.449219 27.960938 39.1875 27.90625C39.15625 27.898438 39.125 27.882813 39.09375 27.875C39.0625 27.863281 39.03125 27.851563 39 27.84375C38.988281 27.839844 38.980469 27.847656 38.96875 27.84375L38.4375 27.6875C37 27.082031 36 25.664063 36 24C36 21.777344 37.777344 20 40 20 Z M 40 33C41.269531 33 43.269531 33.453125 45.03125 34.28125C45.042969 34.289063 45.050781 34.304688 45.0625 34.3125C46.835938 35.257813 48 37.003906 48 39L48 42L32 42L32 39C32 36.960938 33.074219 35.144531 34.90625 34.3125C34.917969 34.3125 34.925781 34.3125 34.9375 34.3125C36.710938 33.472656 38.722656 33 40 33Z" />
</svg>