<?xml version="1.0" encoding="utf-8"?>
<svg xmlns="http://www.w3.org/2000/svg" viewBox="0 0 50 50" width="515" height="515">
  <path d="M17.533203 8C7.8628684 8 0 15.845429 0 25.5C0 35.154571 7.8628684 43 17.533203 43C20.210166 43 22.730426 42.355862 25.001953 41.285156C27.272902 42.356832 29.791837 43 32.466797 43C42.137132 43 50 35.154571 50 25.5C50 15.845429 42.137132 8 32.466797 8C29.791172 8 27.268283 8.6396741 24.996094 9.7128906C22.725091 8.6414619 20.206632 8 17.533203 8 z M 17.533203 10C20.060603 10 22.441964 10.599903 24.548828 11.666016L24.998047 11.892578L25.484375 11.650391L25.486328 11.648438C27.58458 10.59276 29.952482 10 32.466797 10C41.058462 10 48 16.928571 48 25.5C48 34.071429 41.058462 41 32.466797 41C29.939397 41 27.559118 40.399192 25.453125 39.333984L25.001953 39.107422L24.550781 39.333984C22.443374 40.398493 20.062473 41 17.533203 41C8.9415381 41 2 34.071429 2 25.5C2 16.928571 8.9415381 10 17.533203 10 z M 17.533203 12C15.726734 12 14.000195 12.354187 12.421875 12.998047C7.4850352 15.011673 4.0097656 19.858626 4.0097656 25.5C4.0097656 32.945522 10.077887 39 17.535156 39C18.871009 39 20.164871 38.805268 21.386719 38.443359L23.052734 37.951172L21.789062 36.757812C19.37483 34.478553 17.756491 31.418058 17.197266 28L22 28L22 30L19.607422 30L20.316406 31.441406C21.271547 33.384103 22.679951 35.063384 24.404297 36.341797L25 36.783203L25.595703 36.341797C27.319196 35.061858 28.726502 33.384098 29.681641 31.441406L30.390625 30L28.052734 30L28.052734 28L32.802734 28C32.243533 31.418146 30.624508 34.479481 28.210938 36.759766L26.947266 37.953125L28.613281 38.445312C29.834644 38.805999 31.130023 39 32.466797 39C39.924066 39 45.992188 32.945522 45.992188 25.5C45.992188 18.054478 39.924066 12 32.466797 12C31.130023 12 29.834976 12.194777 28.613281 12.556641L26.949219 13.048828L28.210938 14.242188C29.040881 15.026075 29.78514 15.898906 30.425781 16.847656L30.425781 16.849609C31.274118 18.105484 31.87725 19.520001 32.330078 21L30.177734 21.003906C29.275951 18.487646 27.744176 16.266371 25.642578 14.693359C25.632248 14.685759 25.604071 14.663941 25.619141 14.675781L25.017578 14.203125L24.404297 14.658203C22.281039 16.233966 20.730928 18.468683 19.822266 21.003906L17.669922 21C18.122232 19.519687 18.726898 18.105826 19.576172 16.849609L19.576172 16.847656C20.216813 15.898906 20.959119 15.026075 21.789062 14.242188L23.052734 13.048828L21.386719 12.556641C20.164248 12.194914 18.869977 12 17.533203 12 z M 17.533203 14C18.107527 14 18.632902 14.15759 19.183594 14.238281C18.760238 14.735097 18.284453 15.185775 17.917969 15.728516C16.696221 17.535684 15.804595 19.584101 15.328125 21.787109L15.066406 22.998047L21.1875 23.005859L21.396484 22.283203C22.024771 20.126521 23.34572 18.305648 25.005859 16.873047C26.663269 18.304848 27.975664 20.128697 28.603516 22.283203L28.814453 23.005859L34.935547 22.998047L34.673828 21.787109C34.196369 19.58549 33.302707 17.535667 32.082031 15.728516C31.715547 15.185775 31.239762 14.735097 30.816406 14.238281C31.366941 14.157596 31.892473 14 32.466797 14C38.845527 14 43.992188 19.137522 43.992188 25.5C43.992188 31.862478 38.845527 37 32.466797 37C31.909114 37 31.398985 36.845606 30.863281 36.769531C33.132219 34.097993 34.661789 30.778857 34.994141 27.089844L35.09375 26L26.052734 26L26.052734 32L26.949219 32C26.388802 32.806209 25.744241 33.532774 25 34.171875C24.255756 33.533316 23.609559 32.806756 23.048828 32L24 32L24 26L14.90625 26L15.003906 27.089844C15.336271 30.779003 16.864926 34.098451 19.134766 36.769531C18.599973 36.845499 18.091584 37 17.535156 37C11.156426 37 6.0097656 31.862478 6.0097656 25.5C6.0097656 20.679374 8.9726212 16.563984 13.175781 14.849609C14.519461 14.301469 15.987672 14 17.533203 14 z" />
</svg>