<?xml version="1.0" encoding="utf-8"?>
<svg xmlns="http://www.w3.org/2000/svg" viewBox="0 0 50 50" width="515" height="515">
  <path d="M9 8C8.449219 8 8 8.449219 8 9L5 9C4.449219 9 4 9.449219 4 10L4 19C4 19.550781 4.449219 20 5 20C5.667969 20 6.449219 20.363281 7.042969 20.957031C7.636719 21.550781 8 22.332031 8 23C8 24.5 6.695313 26.148438 5.15625 28.59375C3.613281 31.035156 2 34.277344 2 39C2 39.058594 2.003906 39.117188 2.015625 39.171875C2.015625 39.171875 2.183594 40.003906 2.859375 40.699219C3.539063 41.394531 4.742188 42 6.550781 42L11.882813 42C13.058594 42 14.027344 41.8125 14.796875 41.28125C15.5625 40.746094 16 39.914063 16.21875 39.019531L18.777344 29L21.371094 29C21.449219 29.007813 21.53125 29.007813 21.609375 29L28.320313 29C28.75 29 29.132813 28.726563 29.269531 28.316406L31.71875 21L44 21C44.265625 21 44.519531 20.894531 44.707031 20.707031L45.414063 20L47 20C47.550781 20 48 19.550781 48 19L48 10C48 9.449219 47.550781 9 47 9L45.414063 9L44.707031 8.292969C44.519531 8.105469 44.265625 8 44 8L42 8C41.449219 8 41 8.449219 41 9L12.414063 9L11.707031 8.292969C11.519531 8.105469 11.265625 8 11 8 Z M 10 10L10.585938 10L11.292969 10.707031C11.480469 10.894531 11.734375 11 12 11L42 11C42.550781 11 43 10.550781 43 10L43.585938 10L44.292969 10.707031C44.480469 10.894531 44.734375 11 45 11L46 11L46 18L45 18C44.734375 18 44.480469 18.105469 44.292969 18.292969L43.585938 19L24 19C23.988281 19 23.976563 19 23.964844 19C23.753906 19.007813 23.554688 19.023438 23.359375 19.046875C23.355469 19.046875 23.351563 19.046875 23.351563 19.046875C23.214844 19.042969 23.078125 19.0625 22.953125 19.113281C21.722656 19.339844 20.75 19.878906 20.101563 20.644531C19.28125 21.617188 19 22.835938 19 24C19 25.265625 19.246094 26.253906 19.5625 27L18 27C17.542969 27 17.144531 27.308594 17.03125 27.75L14.277344 38.535156C14.277344 38.539063 14.277344 38.542969 14.277344 38.546875C14.125 39.15625 13.945313 39.433594 13.65625 39.636719C13.367188 39.835938 12.835938 40 11.882813 40L6.550781 40C5.160156 40 4.589844 39.605469 4.289063 39.300781C4.019531 39.023438 4.015625 38.894531 4.011719 38.867188C4.042969 34.671875 5.40625 31.941406 6.84375 29.65625C8.304688 27.351563 10 25.5 10 23C10 21.667969 9.363281 20.449219 8.457031 19.542969C7.789063 18.875 6.925781 18.457031 6 18.230469L6 11L9 11C9.550781 11 10 10.550781 10 10 Z M 21 13C20.640625 12.996094 20.304688 13.183594 20.121094 13.496094C19.941406 13.808594 19.941406 14.191406 20.121094 14.503906C20.304688 14.816406 20.640625 15.003906 21 15L27 15C27.359375 15.003906 27.695313 14.816406 27.878906 14.503906C28.058594 14.191406 28.058594 13.808594 27.878906 13.496094C27.695313 13.183594 27.359375 12.996094 27 13 Z M 24.203125 21L29.609375 21L27.601563 27L21.875 27C21.800781 26.917969 21.71875 26.816406 21.597656 26.613281C21.320313 26.140625 21 25.335938 21 24C21 23.164063 21.203125 22.441406 21.628906 21.9375C21.78125 21.757813 21.980469 21.601563 22.214844 21.464844C22.226563 21.691406 22.238281 21.925781 22.28125 22.179688C22.503906 23.464844 23.367188 25.082031 25.34375 25.828125C25.679688 25.964844 26.0625 25.90625 26.347656 25.679688C26.628906 25.449219 26.765625 25.085938 26.703125 24.730469C26.640625 24.371094 26.390625 24.074219 26.046875 23.953125C24.722656 23.457031 24.394531 22.65625 24.25 21.839844C24.199219 21.527344 24.195313 21.246094 24.203125 21Z" />
</svg>