<?xml version="1.0" encoding="utf-8"?>
<svg xmlns="http://www.w3.org/2000/svg" viewBox="0 0 50 50" width="515" height="515">
  <path d="M25 8C21.699219 8 19 10.699219 19 14C19 16.09375 20.082031 17.957031 21.71875 19.03125C18.996094 19.496094 16.855469 20.339844 16.6875 20.40625C16.679688 20.410156 16.53125 20.4375 16.53125 20.4375C16.441406 20.476563 16.355469 20.53125 16.28125 20.59375C16.25 20.613281 16.21875 20.632813 16.1875 20.65625C14.941406 21.070313 14.003906 21.945313 13.46875 23.125C13.316406 23.234375 13.195313 23.386719 13.125 23.5625L9.9375 31.875C9.652344 32.125 5.277344 35.976563 4.25 36.8125C2.65625 38.113281 2.699219 40.464844 4.09375 41.71875C4.765625 42.324219 5.652344 42.582031 6.5 42.46875C7.347656 42.355469 8.125 41.933594 8.875 41.34375C9.34375 40.972656 10.617188 39.988281 11.8125 39.03125C13.007813 38.074219 14.0625 37.234375 14.5 36.8125C15.175781 36.164063 15.667969 35.449219 16 34.8125C16.042969 34.730469 16.445313 33.957031 16.625 33.625L16.625 36.875C16.625 36.847656 16.574219 37.015625 16.34375 37.28125C16.113281 37.546875 15.742188 37.882813 15.28125 38.21875C14.355469 38.890625 13.148438 39.570313 12.15625 40.1875C10.960938 40.929688 9.828125 41.566406 8.9375 42.375C8.046875 43.183594 7.375 44.289063 7.375 45.625C7.375 47.160156 8.261719 48.386719 9.375 49.0625C10.488281 49.738281 11.816406 50 13.0625 50L34.59375 50C35.394531 50 37.214844 49.996094 38.9375 49.5625C39.796875 49.34375 40.667969 49.011719 41.375 48.4375C42.082031 47.863281 42.625 46.960938 42.625 45.90625C42.625 44.695313 42.074219 43.671875 41.34375 42.90625C40.613281 42.140625 39.710938 41.558594 38.78125 40.9375C37.003906 39.753906 35.542969 38.832031 34.59375 38.09375C34.117188 37.726563 33.78125 37.394531 33.59375 37.15625C33.40625 36.917969 33.375 36.832031 33.375 36.8125L33.375 33.65625C33.546875 33.980469 33.960938 34.734375 34 34.8125C34.332031 35.449219 34.824219 36.164063 35.5 36.8125C35.9375 37.234375 36.992188 38.074219 38.1875 39.03125C39.382813 39.988281 40.625 40.972656 41.09375 41.34375C41.84375 41.933594 42.652344 42.351563 43.5 42.46875C44.347656 42.585938 45.234375 42.324219 45.90625 41.71875C47.300781 40.464844 47.34375 38.113281 45.75 36.8125C44.722656 35.976563 40.347656 32.125 40.0625 31.875L36.875 23.5625C36.804688 23.386719 36.683594 23.234375 36.53125 23.125C35.9375 21.816406 34.839844 20.832031 33.40625 20.5L33.4375 20.4375C32.914063 20.238281 30.792969 19.46875 28.25 19.03125C29.898438 17.960938 31 16.101563 31 14C31 10.699219 28.300781 8 25 8 Z M 25 10C27.222656 10 29 11.777344 29 14C29 16.222656 27.222656 18 25 18C22.777344 18 21 16.222656 21 14C21 11.777344 22.777344 10 25 10 Z M 25 20.71875C28.292969 20.71875 32.085938 22.070313 32.71875 22.3125C32.769531 22.335938 32.820313 22.359375 32.875 22.375C33.859375 22.5625 34.648438 23.269531 34.9375 24.21875C34.960938 24.285156 34.992188 24.347656 35.03125 24.40625L35.0625 24.5C35.082031 24.523438 35.101563 24.542969 35.125 24.5625L38.28125 32.84375C38.34375 32.988281 38.441406 33.117188 38.5625 33.21875C38.5625 33.21875 43.246094 37.375 44.46875 38.375C45.15625 38.9375 45.082031 39.8125 44.59375 40.25C44.324219 40.492188 44.105469 40.515625 43.75 40.46875C43.394531 40.421875 42.902344 40.21875 42.34375 39.78125C41.875 39.410156 40.628906 38.417969 39.4375 37.46875C38.246094 36.519531 37.007813 35.503906 36.875 35.375C36.40625 34.921875 36.023438 34.339844 35.78125 33.875C35.546875 33.425781 34.117188 30.792969 33.25 29.1875C33.03125 28.792969 32.570313 28.589844 32.132813 28.703125C31.691406 28.8125 31.382813 29.203125 31.375 29.65625L31.375 36.8125C31.375 37.433594 31.675781 37.957031 32.03125 38.40625C32.386719 38.855469 32.832031 39.234375 33.375 39.65625C34.460938 40.496094 35.898438 41.421875 37.65625 42.59375C38.589844 43.214844 39.40625 43.757813 39.90625 44.28125C40.40625 44.804688 40.625 45.234375 40.625 45.90625C40.625 46.363281 40.484375 46.617188 40.125 46.90625C39.765625 47.195313 39.164063 47.449219 38.46875 47.625C37.082031 47.976563 35.371094 48 34.59375 48L22.46875 48C22.082031 48 20.847656 47.871094 19.90625 47.5C19.433594 47.316406 19.019531 47.050781 18.78125 46.8125C18.542969 46.574219 18.46875 46.398438 18.46875 46.09375C18.46875 45.777344 18.523438 45.609375 18.6875 45.40625C18.851563 45.203125 19.160156 44.988281 19.59375 44.78125C20.464844 44.371094 21.855469 44.058594 23.46875 43.78125C27.601563 43.074219 30.53125 42.59375 30.53125 42.59375C30.90625 42.566406 31.234375 42.328125 31.378906 41.980469C31.523438 41.632813 31.460938 41.230469 31.214844 40.945313C30.96875 40.660156 30.585938 40.535156 30.21875 40.625C30.21875 40.625 27.269531 41.101563 23.125 41.8125C21.46875 42.097656 19.949219 42.386719 18.71875 42.96875C18.101563 43.257813 17.546875 43.628906 17.125 44.15625C16.703125 44.683594 16.46875 45.367188 16.46875 46.09375C16.46875 46.847656 16.792969 47.492188 17.21875 48L13.0625 48C12.125 48 11.121094 47.761719 10.4375 47.34375C9.753906 46.925781 9.375 46.457031 9.375 45.625C9.375 44.890625 9.632813 44.464844 10.28125 43.875C10.929688 43.285156 11.964844 42.664063 13.1875 41.90625C14.125 41.324219 15.40625 40.617188 16.46875 39.84375C17 39.457031 17.480469 39.050781 17.875 38.59375C18.269531 38.136719 18.625 37.582031 18.625 36.875L18.625 29.65625C18.648438 29.179688 18.328125 28.75 17.863281 28.636719C17.398438 28.523438 16.921875 28.753906 16.71875 29.1875C15.851563 30.792969 14.449219 33.429688 14.21875 33.875C13.976563 34.339844 13.5625 34.921875 13.09375 35.375C12.960938 35.503906 11.753906 36.519531 10.5625 37.46875C9.371094 38.417969 8.125 39.410156 7.65625 39.78125C7.097656 40.21875 6.605469 40.421875 6.25 40.46875C5.894531 40.515625 5.675781 40.492188 5.40625 40.25C4.921875 39.8125 4.8125 38.9375 5.5 38.375C6.722656 37.378906 11.4375 33.21875 11.4375 33.21875C11.558594 33.117188 11.65625 32.988281 11.71875 32.84375L14.90625 24.5C14.917969 24.488281 14.925781 24.480469 14.9375 24.46875C14.992188 24.390625 15.03125 24.308594 15.0625 24.21875C15.351563 23.273438 16.125 22.566406 17.09375 22.375C17.195313 22.347656 17.289063 22.304688 17.375 22.25C17.40625 22.242188 17.4375 22.230469 17.46875 22.21875C17.796875 22.09375 21.515625 20.71875 25 20.71875Z" />
</svg>