<?xml version="1.0" encoding="utf-8"?>
<svg xmlns="http://www.w3.org/2000/svg" viewBox="0 0 50 50" width="515" height="515">
  <path d="M22 2C20.355469 2 19 3.355469 19 5L19 18.546875L14.113281 38.210938L14.109375 38.234375C14.089844 38.304688 14.078125 38.378906 14.078125 38.453125C14.042969 38.625 14 38.789063 14 39C14 40.644531 15.355469 42 17 42C18.457031 42 19.683594 40.949219 19.945313 39.558594L19.933594 39.609375L22.78125 28L27.738281 28L24.148438 43.492188C24.128906 43.582031 24.121094 43.675781 24.125 43.765625C24.070313 44 24 44.226563 24 44.5C24 46.421875 25.578125 48 27.5 48C29.203125 48 30.636719 46.765625 30.9375 45.140625L33.859375 32.5625L37.097656 45.335938C37.152344 45.558594 37.285156 45.75 37.46875 45.890625C38.023438 47.082031 39.101563 48 40.5 48C42.421875 48 44 46.421875 44 44.5C44 44.269531 43.953125 44.082031 43.914063 43.890625C43.917969 43.796875 43.90625 43.703125 43.886719 43.613281L38.832031 24.324219L38.847656 24.402344C38.09375 20.195313 34.414063 17 30 17L25 17L25 5C25 3.355469 23.644531 2 22 2 Z M 22 4C22.566406 4 23 4.433594 23 5L23 18C23 18.550781 23.449219 19 24 19L30 19C33.449219 19 36.292969 21.484375 36.878906 24.753906C36.886719 24.78125 36.890625 24.804688 36.898438 24.828125L41.703125 43.175781L42.636719 42.910156C42.113281 43.058594 41.804688 43.597656 41.941406 44.125C41.984375 44.273438 42 44.394531 42 44.5C42 45.339844 41.339844 46 40.5 46C39.785156 46 39.207031 45.511719 39.046875 44.851563C39.039063 44.804688 39.023438 44.761719 39.003906 44.71875L34.78125 28.082031C34.667969 27.636719 34.265625 27.324219 33.804688 27.328125C33.34375 27.335938 32.945313 27.652344 32.839844 28.105469L28.980469 44.730469C28.976563 44.746094 28.972656 44.761719 28.96875 44.777344C28.839844 45.472656 28.246094 46 27.5 46C26.660156 46 26 45.339844 26 44.5C26 44.359375 26.027344 44.210938 26.085938 44.035156C26.171875 43.777344 26.148438 43.5 26.023438 43.257813C25.894531 43.019531 25.679688 42.839844 25.421875 42.765625L26.3125 43.015625L29.972656 27.226563C30.042969 26.929688 29.972656 26.617188 29.785156 26.378906C29.59375 26.140625 29.304688 26 29 26L22 26C21.539063 26 21.140625 26.316406 21.03125 26.761719L17.988281 39.132813C17.984375 39.152344 17.980469 39.167969 17.980469 39.1875C17.890625 39.652344 17.5 40 17 40C16.433594 40 16 39.566406 16 39C16 38.9375 16.011719 38.855469 16.042969 38.734375C16.046875 38.730469 16.046875 38.722656 16.046875 38.714844L20.96875 18.90625C20.988281 18.828125 21 18.75 21 18.667969L21 5C21 4.433594 21.433594 4 22 4 Z M 11.5 15C8.472656 15 6 17.472656 6 20.5C6 23.527344 8.472656 26 11.5 26C14.527344 26 17 23.527344 17 20.5C17 17.472656 14.527344 15 11.5 15 Z M 11.5 17C13.445313 17 15 18.554688 15 20.5C15 22.445313 13.445313 24 11.5 24C9.554688 24 8 22.445313 8 20.5C8 18.554688 9.554688 17 11.5 17Z" />
</svg>