<?xml version="1.0" encoding="utf-8"?>
<svg xmlns="http://www.w3.org/2000/svg" viewBox="0 0 50 50" width="515" height="515">
  <path d="M21.902344 2C20.992188 2 20.210938 2.488281 19.667969 3.101563C19.121094 3.710938 18.730469 4.460938 18.390625 5.273438C17.773438 6.742188 17.34375 8.378906 16.90625 9.710938C15.710938 9.96875 14.496094 10.316406 13.546875 10.769531C12.976563 11.042969 12.492188 11.320313 12.097656 11.609375C11.902344 11.753906 11.730469 11.898438 11.566406 12.089844C11.40625 12.28125 11.199219 12.523438 11.199219 13C11.199219 13.585938 11.566406 13.980469 11.871094 14.203125C12.175781 14.429688 12.507813 14.578125 12.890625 14.71875C13.664063 14.996094 14.660156 15.214844 15.875 15.402344C15.949219 15.414063 16.046875 15.421875 16.125 15.433594C16.292969 16.039063 16.75 17.582031 17.535156 19L8 19C7.476563 19 6.945313 19.191406 6.570313 19.566406C6.191406 19.945313 6 20.476563 6 21L6 41C6 41.523438 6.191406 42.054688 6.570313 42.433594C6.945313 42.808594 7.476563 43 8 43L20.128906 43L20.011719 44.390625C19.867188 45.269531 18.945313 46 18 46L17 46C16.640625 45.996094 16.304688 46.183594 16.121094 46.496094C15.941406 46.808594 15.941406 47.191406 16.121094 47.503906C16.304688 47.816406 16.640625 48.003906 17 48L33 48C33.359375 48.003906 33.695313 47.816406 33.878906 47.503906C34.058594 47.191406 34.058594 46.808594 33.878906 46.496094C33.695313 46.183594 33.359375 45.996094 33 46L32 46C31.054688 46 30.132813 45.269531 29.988281 44.390625L29.871094 43L42 43C42.523438 43 43.054688 42.808594 43.433594 42.433594C43.808594 42.054688 44 41.523438 44 41L44 21C44 20.476563 43.808594 19.945313 43.433594 19.566406C43.054688 19.191406 42.523438 19 42 19L32.464844 19C33.238281 17.601563 33.691406 16.09375 33.867188 15.457031C34.015625 15.4375 34.1875 15.421875 34.328125 15.402344C35.539063 15.214844 36.539063 14.996094 37.308594 14.71875C37.695313 14.578125 38.023438 14.429688 38.328125 14.203125C38.632813 13.980469 39 13.585938 39 13C39 12.945313 38.996094 12.890625 38.984375 12.835938C38.914063 12.40625 38.726563 12.21875 38.5625 12.046875C38.398438 11.878906 38.222656 11.738281 38.027344 11.59375C37.628906 11.3125 37.132813 11.039063 36.5625 10.769531C35.605469 10.320313 34.394531 9.96875 33.203125 9.714844C32.828125 8.230469 32.417969 6.570313 31.777344 5.140625C31.414063 4.339844 30.996094 3.609375 30.433594 3.023438C29.867188 2.441406 29.085938 2 28.199219 2C27.113281 2 26.417969 2.695313 25.960938 3.113281C25.503906 3.53125 25.296875 3.699219 25 3.699219C24.703125 3.699219 24.5 3.535156 24.0625 3.125C23.625 2.710938 22.972656 2 21.902344 2 Z M 21.902344 4C22.027344 4 22.222656 4.136719 22.6875 4.578125C23.152344 5.015625 23.894531 5.699219 25 5.699219C26.105469 5.699219 26.84375 5.015625 27.3125 4.585938C27.785156 4.15625 27.984375 4 28.199219 4C28.460938 4 28.683594 4.09375 28.996094 4.417969C29.308594 4.742188 29.648438 5.285156 29.953125 5.960938C30.558594 7.308594 31.03125 9.144531 31.429688 10.742188C31.527344 11.132813 31.851563 11.425781 32.25 11.488281C33.417969 11.667969 34.726563 12.117188 35.710938 12.578125C35.960938 12.699219 36.101563 12.796875 36.300781 12.910156C35.738281 13.085938 35.019531 13.269531 34.023438 13.421875C31.75 13.773438 28.558594 14 25.097656 14C21.640625 14 18.453125 13.773438 16.175781 13.421875C15.160156 13.265625 14.40625 13.078125 13.84375 12.898438C14.035156 12.789063 14.164063 12.695313 14.40625 12.578125C15.371094 12.117188 16.683594 11.667969 17.851563 11.488281C18.21875 11.433594 18.523438 11.175781 18.644531 10.828125C19.167969 9.308594 19.644531 7.453125 20.234375 6.050781C20.53125 5.347656 20.859375 4.769531 21.160156 4.429688C21.464844 4.085938 21.660156 4 21.902344 4 Z M 19.199219 16.5C20.699219 16.699219 22.902344 17.199219 22.902344 17.699219C22.902344 18.097656 22.199219 18.699219 21.300781 18.800781C19.5 19.199219 19.199219 17 19.199219 16.5 Z M 30.800781 16.5C30.800781 17 30.5 19.199219 28.699219 18.800781C27.800781 18.699219 27.097656 18.097656 27.097656 17.699219C27.097656 17.199219 29.300781 16.699219 30.800781 16.5 Z M 8 21L42 21L42 41L29.699219 41L28.996094 32.914063C28.957031 32.390625 28.523438 31.984375 28 31.984375C27.714844 31.988281 27.445313 32.105469 27.257813 32.316406C27.066406 32.523438 26.976563 32.804688 27.003906 33.085938L28.003906 44.667969L28.011719 44.703125C28.085938 45.171875 28.25 45.609375 28.476563 46L21.484375 46C21.726563 45.617188 21.910156 45.1875 21.988281 44.703125L21.996094 44.667969L22.996094 33.085938C23.023438 32.800781 22.929688 32.515625 22.734375 32.304688C22.539063 32.09375 22.261719 31.976563 21.972656 31.984375C21.460938 32 21.039063 32.402344 21.003906 32.914063L20.300781 41L8 41Z" />
</svg>