<?xml version="1.0" encoding="utf-8"?>
<svg xmlns="http://www.w3.org/2000/svg" viewBox="0 0 50 50" width="515" height="515">
  <path d="M2 2C1.476563 2 0.941406 2.183594 0.5625 2.5625C0.183594 2.941406 0 3.476563 0 4L0 40C0 40.523438 0.183594 41.058594 0.5625 41.4375C0.941406 41.816406 1.476563 42 2 42L19 42L19 44L14.90625 44C13.261719 44 12 45.414063 12 47L12 50L38 50L38 47C38 45.355469 36.695313 44 35.09375 44L31 44L31 42L48 42C48.523438 42 49.058594 41.816406 49.4375 41.4375C49.816406 41.058594 50 40.523438 50 40L50 4C50 3.476563 49.816406 2.941406 49.4375 2.5625C49.058594 2.183594 48.523438 2 48 2 Z M 2 4L48 4L48 40L30.1875 40C30.054688 39.972656 29.914063 39.972656 29.78125 40L20.1875 40C20.054688 39.972656 19.914063 39.972656 19.78125 40L2 40 Z M 6 6C5.476563 6 4.941406 6.183594 4.5625 6.5625C4.183594 6.941406 4 7.476563 4 8L4 32C4 32.523438 4.183594 33.058594 4.5625 33.4375C4.941406 33.816406 5.476563 34 6 34L44 34C44.523438 34 45.058594 33.816406 45.4375 33.4375C45.816406 33.058594 46 32.523438 46 32L46 8C46 7.476563 45.816406 6.941406 45.4375 6.5625C45.058594 6.183594 44.523438 6 44 6 Z M 6 8L44 8L44 32L6 32 Z M 21.90625 10C20.996094 10 20.199219 10.480469 19.65625 11.09375C19.113281 11.707031 18.746094 12.46875 18.40625 13.28125C17.789063 14.746094 17.339844 16.386719 16.90625 17.71875C15.714844 17.972656 14.480469 18.328125 13.53125 18.78125C12.964844 19.050781 12.484375 19.304688 12.09375 19.59375C11.898438 19.738281 11.722656 19.902344 11.5625 20.09375C11.402344 20.285156 11.1875 20.523438 11.1875 21C11.1875 21.585938 11.570313 21.992188 11.875 22.21875C12.179688 22.445313 12.519531 22.578125 12.90625 22.71875C13.675781 22.996094 14.664063 23.21875 15.875 23.40625C16.277344 23.46875 16.742188 23.507813 17.1875 23.5625C17.402344 25.34375 18.070313 29 19.8125 29C22.511719 29 23.40625 27.09375 24.90625 27.09375C26.40625 27.09375 27.601563 29 30 29C31.726563 29 32.503906 25.394531 32.78125 23.59375C33.3125 23.53125 33.839844 23.480469 34.3125 23.40625C35.523438 23.21875 36.542969 22.996094 37.3125 22.71875C37.699219 22.578125 38.039063 22.445313 38.34375 22.21875C38.648438 21.992188 39 21.585938 39 21C39.003906 20.949219 39.003906 20.894531 39 20.84375C38.929688 20.414063 38.726563 20.234375 38.5625 20.0625C38.398438 19.890625 38.230469 19.734375 38.03125 19.59375C37.632813 19.3125 37.132813 19.050781 36.5625 18.78125C35.609375 18.332031 34.410156 17.972656 33.21875 17.71875C32.84375 16.230469 32.425781 14.5625 31.78125 13.125C31.421875 12.324219 31.003906 11.613281 30.4375 11.03125C29.871094 10.449219 29.074219 10 28.1875 10C27.101563 10 26.425781 10.707031 25.96875 11.125C25.511719 11.542969 25.296875 11.6875 25 11.6875C24.703125 11.6875 24.5 11.539063 24.0625 11.125C23.625 10.710938 22.976563 10 21.90625 10 Z M 21.90625 12C22.035156 12 22.222656 12.125 22.6875 12.5625C23.152344 13 23.894531 13.6875 25 13.6875C26.105469 13.6875 26.84375 13.023438 27.3125 12.59375C27.78125 12.164063 27.972656 12 28.1875 12C28.449219 12 28.6875 12.082031 29 12.40625C29.3125 12.730469 29.632813 13.292969 29.9375 13.96875C30.542969 15.316406 31.039063 17.152344 31.4375 18.75C31.53125 19.140625 31.851563 19.4375 32.25 19.5C33.417969 19.679688 34.734375 20.132813 35.71875 20.59375C35.96875 20.710938 36.113281 20.792969 36.3125 20.90625C35.75 21.085938 35.03125 21.28125 34.03125 21.4375C31.757813 21.789063 28.550781 22 25.09375 22C21.636719 22 18.460938 21.789063 16.1875 21.4375C15.160156 21.277344 14.375 21.089844 13.8125 20.90625C14.007813 20.792969 14.152344 20.683594 14.40625 20.5625C15.371094 20.101563 16.675781 19.679688 17.84375 19.5C18.222656 19.445313 18.539063 19.179688 18.65625 18.8125C19.179688 17.296875 19.628906 15.464844 20.21875 14.0625C20.515625 13.359375 20.851563 12.777344 21.15625 12.4375C21.460938 12.097656 21.664063 12 21.90625 12 Z M 19.1875 24.5C20.6875 24.699219 22.90625 25.1875 22.90625 25.6875C22.90625 26.085938 22.210938 26.710938 21.3125 26.8125C19.511719 27.210938 19.1875 25 19.1875 24.5 Z M 30.3125 24.5C30.3125 25 29.988281 27.210938 28.1875 26.8125C27.289063 26.613281 26.59375 26.085938 26.59375 25.6875C26.59375 25.289063 28.8125 24.800781 30.3125 24.5 Z M 43 35C41.898438 35 41 35.898438 41 37C41 38.101563 41.898438 39 43 39C44.101563 39 45 38.101563 45 37C45 35.898438 44.101563 35 43 35 Z M 21 42L29 42L29 44L21 44 Z M 14.90625 46L35.09375 46C35.492188 46 36 46.445313 36 47L36 48L14 48L14 47C14 46.386719 14.351563 46 14.90625 46Z" />
</svg>