<?xml version="1.0" encoding="utf-8"?>
<svg xmlns="http://www.w3.org/2000/svg" viewBox="0 0 50 50" width="515" height="515">
  <path d="M25 3C12.86158 3 3 12.86158 3 25C3 37.13842 12.86158 47 25 47C37.13842 47 47 37.13842 47 25C47 12.86158 37.13842 3 25 3 z M 25 5C36.05754 5 45 13.94246 45 25C45 36.05754 36.05754 45 25 45C13.94246 45 5 36.05754 5 25C5 13.94246 13.94246 5 25 5 z M 16.542969 11C16.294969 11.609 15.445313 12.947266 15.445312 12.947266C15.445312 12.947266 17.880922 25.009844 16.294922 26.464844C14.713922 27.924844 11.54375 28.172031 9.71875 26.957031C7.88875 25.737031 9.8378906 21.837891 9.8378906 21.837891C8.7408906 23.176891 7.8887187 24.760891 8.0117188 26.462891C8.1327188 28.171891 9.3513906 29.872094 12.275391 29.996094C15.197391 30.119094 17.268812 27.076375 17.757812 25.859375C18.246813 24.643375 17.392578 18.063422 17.392578 16.357422C17.392578 14.657422 18 13.681641 18 13.681641C17.15 13.192641 16.542969 11 16.542969 11 z M 27.220703 14.013672C27.182266 13.899297 26.961047 14.395266 25.810547 20.197266C24.272547 27.929266 16 29.863281 16 29.863281C20.611 30.591281 23.919656 28.293906 25.097656 25.878906C26.281656 23.459906 27.105469 18.384766 27.105469 18.384766C27.105469 25.638766 27.726 27.866891 29.5 28.712891C31.273 29.562891 34.701594 28.352766 37.183594 27.384766C38.763594 26.769766 40.611328 27.023437 40.611328 27.023438L42 24.625C42 24.625 40.015563 24.844141 38.601562 24.244141C37.182563 23.638141 35.174062 21.826406 33.164062 22.066406C31.240063 22.299406 30.183656 25.739344 30.097656 26.027344C30.142656 25.898344 30.404094 25.344469 31.746094 24.605469C33.283094 23.755469 36.353516 25.574219 36.353516 25.574219C34.938516 26.903219 32.334984 27.023297 30.208984 26.779297C28.081984 26.534297 28.171687 21.286969 28.054688 17.542969C27.933688 13.795969 27.226562 14.158203 27.226562 14.158203C27.226562 14.158203 27.233516 14.051797 27.220703 14.013672 z M 18.050781 16C18.050781 16 17.934781 16.332094 18.050781 17.996094C18.163781 19.668094 19.752813 19.443031 21.007812 20.332031C22.257812 21.219031 22.941406 24 22.941406 24C23.623406 17.778 18.050781 16 18.050781 16 z M 12 32L12 37L13.255859 37L13.255859 34.984375L15.220703 34.984375L15.220703 37L16.470703 37L16.470703 32L15.220703 32L15.220703 33.962891L13.255859 33.962891L13.255859 32L12 32 z M 19.279297 32L17.625 37L18.869141 37L19.1875 35.902344L20.796875 35.902344L21.103516 37L22.470703 37L20.8125 32L19.279297 32 z M 23.625 32L23.625 37L26.974609 37L26.974609 35.949219L24.878906 35.949219L24.878906 32L23.625 32 z M 29.806641 32L28.152344 37L29.396484 37L29.714844 35.902344L31.324219 35.902344L31.632812 37L33 37L31.341797 32L29.806641 32 z M 34.650391 32L34.650391 37L38 37L38 35.949219L35.904297 35.949219L35.904297 32L34.650391 32 z M 19.966797 33.126953L20.03125 33.126953L20.560547 34.988281L19.425781 34.988281L19.966797 33.126953 z M 30.494141 33.126953L30.558594 33.126953L31.089844 34.988281L29.953125 34.988281L30.494141 33.126953 z" />
</svg>