<?xml version="1.0" encoding="utf-8"?>
<svg xmlns="http://www.w3.org/2000/svg" viewBox="0 0 50 50" width="515" height="515">
  <path d="M26.273438 4.445313C26.148438 4.457031 26.027344 4.476563 25.902344 4.5C24.902344 4.699219 23.800781 5.5 22.800781 6.5L27.597656 9.5C28.199219 7.5 28.601563 5.5 27.300781 4.699219C27 4.472656 26.644531 4.417969 26.273438 4.445313 Z M 21.402344 8C20.886719 8.640625 20.066406 9.707031 19.117188 10.988281L9.199219 12.800781C8.597656 12.902344 8 13.398438 7.699219 14L3 25.5C2.800781 26.101563 2.597656 26.699219 2.699219 27.300781C2.898438 29.5 4.800781 31.199219 7 31C7.46875 30.953125 7.933594 30.855469 8.382813 30.691406L13 33.597656C13.644531 32.714844 14.925781 30.941406 16.214844 29.179688C18.890625 30.558594 25.699219 34 25.699219 34C27.898438 35.199219 30.5 35.402344 32.902344 34.902344L40.800781 33.199219L41.199219 36.097656L47 35.300781L44.402344 17.699219L38.597656 18.5L38.699219 19.300781L28.199219 12.699219C27.785156 12.46875 27.277344 12.15625 26.761719 11.890625C26.800781 11.808594 26.867188 11.675781 26.902344 11.597656 Z M 21.902344 10.800781L24.300781 12.300781C23.300781 14.300781 21.800781 17.199219 19.902344 20.300781L19.390625 21.183594L17.097656 20.597656C16.390625 20.488281 15.695313 20.570313 15.066406 20.8125C15.511719 20.0625 15.957031 19.3125 16.402344 18.597656C18.402344 15.398438 20.402344 12.601563 21.902344 10.800781 Z M 17.410156 13.367188C16.546875 14.601563 15.640625 15.921875 14.699219 17.402344C12.539063 20.953125 10.488281 24.792969 8.960938 27.65625C8.644531 28.246094 7.96875 28.902344 7 29C6.101563 29.101563 5.101563 28.5 4.800781 27.597656C4.601563 27.097656 4.699219 26.597656 4.898438 26.199219L9.300781 15.300781C9.402344 15 9.699219 14.800781 10 14.699219 Z M 25.847656 13.789063C26.371094 14.054688 26.914063 14.359375 27.199219 14.5L38.300781 21.5L39 21.5L40.402344 31.199219L32.402344 32.902344C30.402344 33.300781 28.300781 33.097656 26.5 32.199219L15.597656 26.699219C14.597656 26.199219 14.097656 25.101563 14.597656 24C15 23 16 22.5 17 22.699219L25.097656 24.699219L28.199219 20.199219L26.402344 19.097656L24.199219 22.402344L21.457031 21.703125C23.324219 18.652344 24.828125 15.839844 25.847656 13.789063 Z M 42.699219 20L44.699219 33.597656L42.902344 33.902344L40.902344 20.199219 Z M 12.5 25.296875C12.582031 25.738281 12.707031 26.175781 12.902344 26.597656C13.300781 27.398438 13.902344 27.898438 14.300781 28.199219C14.300781 28.199219 14.457031 28.28125 14.464844 28.28125L12.5 30.902344L10.199219 29.5C10.816406 28.351563 11.648438 26.828125 12.5 25.296875 Z M 6.898438 32.097656C5.800781 35.199219 5.800781 37.199219 5.800781 38L5.101563 39C4.898438 39.300781 5 39.699219 5.300781 39.902344C5.5 40 5.601563 40 5.800781 40C6 39.898438 6.101563 39.800781 6.300781 39.699219L6.898438 38.699219C7.601563 38.398438 9.398438 37.5 11.699219 35.097656Z" />
</svg>