<?xml version="1.0" encoding="utf-8"?>
<svg xmlns="http://www.w3.org/2000/svg" viewBox="0 0 50 50" width="515" height="515">
  <path d="M16.5 0C15.083334 0 13.893559 0.56725559 13.126953 1.4296875C12.360347 2.2921194 12 3.4027779 12 4.5C12 4.7248043 12.025993 4.9501462 12.056641 5.1738281C11.921147 5.1337315 11.785979 5.0943484 11.650391 5.0722656C10.94099 4.9567281 10.205458 5.1080857 9.6757812 5.5761719C9.1461049 6.044258 8.90791 6.7940288 9 7.5058594C9.092021 8.2171575 9.4598898 8.909156 10.060547 9.5703125C10.060547 9.5703125 10.060547 9.5722656 10.060547 9.5722656C10.759026 10.385233 14.043189 13.957251 15.392578 15.306641C15.792578 15.706641 16.301798 16.220516 17.103516 16.380859 A 1.0001 1.0001 0 0 0 17.132812 16.386719L20.339844 16.931641L13.558594 27.458984C13.519609 27.51433 10.961889 31.148453 9.4160156 34.134766C8.7311315 35.436046 9.1200692 37.018086 10.257812 37.640625C11.394483 38.262577 12.925267 37.924713 14.185547 36.726562C14.93306 36.032032 16.395591 34.531169 18.242188 32.671875C15.86264 37.616729 12.660996 44.275664 12.285156 45.027344C12.053045 45.491567 11.596952 46.229618 11.486328 47.169922C11.431018 47.640074 11.484928 48.204912 11.789062 48.707031C12.089479 49.203 12.600267 49.567947 13.214844 49.798828C13.884574 50.069036 14.597982 50.019564 15.154297 49.806641C15.715094 49.592015 16.151852 49.249017 16.507812 48.908203C17.219735 48.226576 17.644531 47.474609 17.644531 47.474609L17.621094 47.513672L33.628906 22.595703C34.506211 23.331379 35.993781 24.581081 36.458984 24.96875 A 1.0001 1.0001 0 0 0 36.519531 25.013672C36.588508 25.062941 36.586177 25.056159 36.599609 25.060547C36.594186 25.074106 36.56541 25.274487 36.519531 25.595703C36.311067 26.323398 35.658105 28.549524 35.4375 29.425781C35.436979 29.427581 35.436147 29.431794 35.435547 29.433594C35.333603 29.789634 35.161543 30.318776 35.201172 30.972656C35.241002 31.629904 35.703796 32.497925 36.529297 32.828125 A 1.0001 1.0001 0 0 0 36.558594 32.839844C37.483596 33.176208 38.427661 32.793624 38.96875 32.306641C39.509839 31.81966 39.824253 31.248618 40.019531 30.792969 A 1.0001 1.0001 0 0 0 40.029297 30.771484C40.195146 30.356862 41.22722 27.985221 41.853516 26.001953 A 1.0001 1.0001 0 0 0 41.890625 25.841797C41.994396 25.115398 42.186355 23.899568 41.414062 22.818359 A 1.0001 1.0001 0 0 0 41.382812 22.777344L35.982422 15.978516 A 1.0001 1.0001 0 0 0 35.90625 15.892578C35.60625 15.592578 35.22537 15.195693 34.646484 14.90625C34.223371 14.694693 33.457131 14.291798 32.804688 13.951172C33.032715 13.980083 33.264234 14 33.5 14C36.533333 14 39 11.533333 39 8.5C39 5.4666667 36.533333 3 33.5 3C30.466667 3 28 5.4666667 28 8.5C28 9.9417292 28.562195 11.250726 29.472656 12.232422C28.933772 11.963003 28.463645 11.738868 28.113281 11.591797C26.403271 10.796755 24.614152 10.704769 24.580078 10.703125L24.558594 10.701172L18.599609 10.228516C18.477325 10.121651 17.761807 9.5016852 17.130859 8.9570312C18.268146 8.815431 19.223702 8.3008252 19.873047 7.5703125C20.639653 6.7078806 21 5.5972221 21 4.5C21 3.4027779 20.639653 2.2921194 19.873047 1.4296875C19.106441 0.56725559 17.916666 0 16.5 0 z M 16.5 2C17.416666 2 17.976893 2.3077444 18.376953 2.7578125C18.777013 3.2078806 19 3.8472221 19 4.5C19 5.1527779 18.777013 5.7921194 18.376953 6.2421875C17.976893 6.6922556 17.416666 7 16.5 7C15.583334 7 15.023107 6.6922556 14.623047 6.2421875C14.222987 5.7921194 14 5.1527779 14 4.5C14 3.8472221 14.222987 3.2078806 14.623047 2.7578125C15.023107 2.3077444 15.583334 2 16.5 2 z M 33.5 5C35.466667 5 37 6.5333333 37 8.5C37 10.466667 35.466667 12 33.5 12C31.533333 12 30 10.466667 30 8.5C30 6.5333333 31.533333 5 33.5 5 z M 11.074219 7.0429688C11.124028 7.0319075 11.203138 7.0265189 11.328125 7.046875C11.578099 7.087587 11.978558 7.250122 12.443359 7.6542969 A 1.0001 1.0001 0 0 0 12.5 7.6992188C13.564889 8.4978854 17.542969 11.953125 17.542969 11.953125 A 1.0001 1.0001 0 0 0 18.121094 12.197266L24.419922 12.697266 A 1.0001 1.0001 0 0 0 24.441406 12.699219C24.441406 12.699219 26.006646 12.813258 27.277344 13.40625 A 1.0001 1.0001 0 0 0 27.314453 13.423828C27.814317 13.632105 29.069052 14.265468 30.339844 14.925781C31.610635 15.586094 32.929592 16.284132 33.751953 16.695312C33.964774 16.801724 34.181832 17.001513 34.464844 17.283203L39.787109 23.984375C40.005535 24.292994 39.993167 24.862319 39.90625 25.505859C39.331347 27.289548 38.413875 29.424032 38.179688 30.007812C38.074531 30.252239 37.839193 30.630859 37.630859 30.818359C37.432559 30.99683 37.412387 31.005567 37.261719 30.953125C37.175149 30.931065 37.205976 30.995316 37.197266 30.851562C37.187096 30.68381 37.263056 30.318562 37.361328 29.974609 A 1.0001 1.0001 0 0 0 37.371094 29.943359C37.552071 29.219449 38.257481 26.786313 38.460938 26.074219 A 1.0001 1.0001 0 0 0 38.490234 25.941406C38.530804 25.657403 38.647632 25.345456 38.595703 24.826172C38.543773 24.306888 38.170928 23.73621 37.681641 23.386719L37.740234 23.431641C37.148595 22.93859 34.042969 20.333984 34.042969 20.333984 A 1.0001 1.0001 0 0 0 32.558594 20.558594L15.9375 46.433594 A 1.0001 1.0001 0 0 0 15.912109 46.474609C15.912109 46.474609 15.588078 47.021471 15.125 47.464844C14.893461 47.68653 14.638031 47.863454 14.439453 47.939453C14.240875 48.015453 14.134577 48.021489 13.958984 47.949219 A 1.0001 1.0001 0 0 0 13.923828 47.935547C13.598737 47.815734 13.527109 47.714678 13.5 47.669922C13.47289 47.625162 13.452966 47.571642 13.472656 47.404297C13.512036 47.0696 13.80633 46.457652 14.074219 45.921875C14.737027 44.596258 22.601563 28.232422 22.601562 28.232422 A 1.0001 1.0001 0 0 0 20.988281 27.097656C20.988281 27.097656 14.110561 34.06949 12.820312 35.267578 A 1.0001 1.0001 0 0 0 12.810547 35.275391C11.971503 36.07448 11.404053 35.987227 11.216797 35.884766C11.029541 35.782305 10.870431 35.665126 11.185547 35.066406 A 1.0001 1.0001 0 0 0 11.1875 35.058594C12.630324 32.269135 15.21875 28.574219 15.21875 28.574219 A 1.0001 1.0001 0 0 0 15.240234 28.541016L22.839844 16.742188 A 1.0001 1.0001 0 0 0 22.167969 15.214844L17.494141 14.417969C17.297155 14.378139 17.205379 14.291316 16.806641 13.892578C15.561021 12.646969 12.076926 8.8547207 11.558594 8.25 A 1.0001 1.0001 0 0 0 11.539062 8.2265625C11.140519 7.7881668 11.00791 7.4319194 10.984375 7.25C10.96084 7.0680806 10.992176 7.0811325 11 7.0742188C11.0039 7.0707638 11.024409 7.05403 11.074219 7.0429688 z" />
</svg>