<?xml version="1.0" encoding="utf-8"?>
<svg xmlns="http://www.w3.org/2000/svg" viewBox="0 0 50 50" width="515" height="515">
  <path d="M19 5C17.808594 5 16.644531 5.707031 15.890625 6.914063L4.691406 22.3125C4.6875 22.3125 4.6875 22.316406 4.6875 22.316406C3.566406 23.882813 3 25.703125 3 27.597656L3 37C3 41.945313 7.054688 46 12 46L27 46C28.515625 46 29.777344 45.382813 30.628906 44.558594C31.484375 43.730469 32 42.734375 32 41.699219C32 40.835938 31.792969 40.125 31.582031 39.589844C32.554688 39.066406 34 38.074219 34 35.800781C34 34.398438 33.324219 33.449219 32.652344 32.835938C33.320313 32.164063 34 31.164063 34 29.699219C34 29.007813 33.734375 28.503906 33.484375 28L43 28C45.195313 28 47 26.195313 47 24C47 21.804688 45.195313 20 43 20L18.9375 20C19.273438 19.253906 19.511719 18.722656 20.125 17.328125C21.0625 15.207031 22.03125 12.996094 22.335938 12.152344C22.605469 11.425781 23 10.722656 23 9.601563C23 8.054688 22.402344 6.851563 21.597656 6.09375C20.792969 5.339844 19.851563 5 19 5 Z M 19 7C19.246094 7 19.808594 7.160156 20.230469 7.554688C20.648438 7.949219 21 8.542969 21 9.601563C21 10.277344 20.792969 10.570313 20.464844 11.449219C20.460938 11.453125 20.460938 11.457031 20.457031 11.464844C20.257813 12.019531 19.234375 14.398438 18.296875 16.519531C17.359375 18.644531 16.488281 20.589844 16.488281 20.589844C16.347656 20.898438 16.375 21.257813 16.5625 21.542969C16.746094 21.828125 17.0625 22 17.402344 22L43 22C44.105469 22 45 22.894531 45 24C45 25.105469 44.105469 26 43 26L31.464844 26C31.019531 26 30.632813 26.289063 30.503906 26.710938C30.378906 27.132813 30.542969 27.589844 30.910156 27.832031C31.425781 28.175781 32 28.695313 32 29.699219C32 31.164063 30.515625 32.023438 30.515625 32.023438C30.179688 32.210938 29.976563 32.574219 30 32.960938C30.027344 33.347656 30.269531 33.683594 30.628906 33.828125C30.628906 33.828125 32 34.335938 32 35.800781C32 37.449219 29.953125 38.261719 29.953125 38.261719C29.664063 38.371094 29.4375 38.605469 29.34375 38.902344C29.253906 39.199219 29.300781 39.519531 29.480469 39.773438C29.480469 39.773438 30 40.511719 30 41.699219C30 41.964844 29.765625 42.617188 29.246094 43.117188C28.722656 43.617188 27.984375 44 27 44L12 44C8.144531 44 5 40.855469 5 37L5 27.597656C5 26.09375 5.433594 24.714844 6.3125 23.480469L17.507813 8.085938C17.523438 8.0625 17.542969 8.039063 17.558594 8.015625C18.003906 7.265625 18.617188 7 19 7Z" />
</svg>