<?xml version="1.0" encoding="utf-8"?>
<svg xmlns="http://www.w3.org/2000/svg" viewBox="0 0 50 50" width="515" height="515">
  <path d="M30.25 2.0625C28.785156 2.03125 27.324219 2.75 26.46875 4.03125C25.859375 4.949219 25.679688 6.015625 25.84375 7.03125L21.875 9.125L18.5 5.78125C17.910156 5.191406 17.125 4.90625 16.34375 4.90625C15.5625 4.90625 14.777344 5.191406 14.1875 5.78125C14.1875 5.792969 14.1875 5.800781 14.1875 5.8125L11.25 8.78125C8.097656 8.515625 4.996094 9.378906 2.78125 11.59375C-1.566406 16.054688 -0.734375 23.703125 4.28125 28.71875C9.296875 33.734375 17.011719 34.464844 21.375 30.03125L21.375 30L21.40625 30C23.738281 27.855469 24.503906 24.730469 24.21875 21.59375L27.125 18.59375L27.09375 18.59375L27.09375 18.5625C28.253906 17.378906 28.269531 15.457031 27.09375 14.28125L23.375 10.59375L26.59375 8.90625C26.898438 9.335938 27.292969 9.726563 27.75 10.03125C28.042969 10.28125 28.457031 10.34375 28.808594 10.183594C29.164063 10.023438 29.394531 9.675781 29.398438 9.289063C29.40625 8.902344 29.191406 8.546875 28.84375 8.375C28.667969 8.257813 28.511719 8.09375 28.375 7.9375L28.875 7.6875C29.316406 7.484375 29.550781 6.996094 29.425781 6.523438C29.304688 6.054688 28.859375 5.738281 28.375 5.78125C28.222656 5.789063 28.070313 5.832031 27.9375 5.90625L27.8125 5.96875C27.859375 5.683594 27.960938 5.402344 28.125 5.15625C28.824219 4.109375 30.332031 3.761719 31.34375 4.4375C31.375 4.460938 31.40625 4.480469 31.4375 4.5C31.398438 4.480469 32.148438 4.945313 32.75 5.34375C33.027344 5.53125 33.273438 5.710938 33.5 5.875C33.6875 6.007813 33.839844 6.109375 34.03125 6.21875C35.078125 6.917969 35.457031 8.425781 34.78125 9.4375C34.769531 9.457031 34.757813 9.480469 34.75 9.5C34.582031 9.78125 34.230469 10.070313 33.75 10.3125C33.417969 10.464844 33.191406 10.789063 33.167969 11.15625C33.144531 11.519531 33.324219 11.871094 33.632813 12.066406C33.945313 12.261719 34.335938 12.273438 34.65625 12.09375C35.347656 11.746094 35.976563 11.238281 36.40625 10.5625L36.4375 10.5625C36.449219 10.542969 36.457031 10.519531 36.46875 10.5C37.738281 8.519531 37.089844 5.851563 35.15625 4.5625C35.125 4.539063 35.09375 4.519531 35.0625 4.5C35.140625 4.539063 34.910156 4.410156 34.6875 4.25C34.464844 4.089844 34.164063 3.871094 33.84375 3.65625C33.289063 3.289063 32.878906 3 32.46875 2.78125C32.429688 2.753906 32.382813 2.742188 32.34375 2.71875C31.882813 2.433594 31.382813 2.210938 30.875 2.125C30.667969 2.089844 30.460938 2.066406 30.25 2.0625 Z M 16.34375 6.90625C16.609375 6.90625 16.886719 7.011719 17.09375 7.21875L25.6875 15.71875C26.105469 16.136719 26.105469 16.769531 25.6875 17.1875C25.6875 17.199219 25.6875 17.207031 25.6875 17.21875L22.46875 20.5C22.269531 20.71875 22.175781 21.019531 22.21875 21.3125C22.589844 24.183594 21.941406 26.828125 20.03125 28.5625C20.011719 28.570313 19.988281 28.582031 19.96875 28.59375C16.527344 32.125 10.09375 31.65625 5.71875 27.28125C1.335938 22.898438 0.769531 16.539063 4.21875 13C6.070313 11.148438 8.710938 10.414063 11.5625 10.78125C11.871094 10.824219 12.183594 10.71875 12.40625 10.5L15.59375 7.21875L15.625 7.1875C15.828125 7 16.089844 6.90625 16.34375 6.90625 Z M 32.96875 7.28125C32.835938 7.308594 32.707031 7.359375 32.59375 7.4375C31.808594 7.886719 31.050781 8.507813 30.625 9.46875L30.59375 9.4375C30.585938 9.457031 30.601563 9.480469 30.59375 9.5C30.074219 10.585938 30.078125 11.804688 30.46875 12.84375C30.476563 12.875 30.488281 12.90625 30.5 12.9375C30.480469 12.898438 30.746094 13.605469 30.9375 14.28125C31.148438 15.011719 31.398438 15.597656 31.5625 15.9375C31.574219 15.960938 31.582031 16.039063 31.59375 16.0625L31.65625 16.03125C32.167969 17.328125 33.238281 18.269531 34.5 18.625L34.0625 22.09375L28.625 23C28.625 23.011719 28.625 23.019531 28.625 23.03125C27.019531 23.324219 25.949219 24.800781 26.09375 26.375C26.101563 26.40625 26.113281 26.4375 26.125 26.46875L26.75 30.53125C24.695313 32.875 23.578125 35.875 24 38.9375C24 38.949219 24 38.957031 24 38.96875C25.003906 45.101563 31.625 48.847656 38.65625 47.78125C45.714844 46.710938 50.886719 40.90625 49.875 34.84375C49.351563 31.699219 47.273438 29.304688 44.625 27.6875L44 23.53125C43.988281 23.53125 43.980469 23.53125 43.96875 23.53125C43.675781 21.925781 42.199219 20.855469 40.625 21C40.59375 21 40.5625 21 40.53125 21L36.125 21.75L36.53125 18.71875C36.765625 18.667969 36.96875 18.609375 37.15625 18.5625C37.175781 18.5625 37.199219 18.5625 37.21875 18.5625C38.433594 18.15625 39.214844 17.199219 39.6875 16.25C40.238281 15.152344 40.238281 13.898438 39.84375 12.84375C39.824219 12.8125 39.804688 12.78125 39.78125 12.75C39.800781 12.789063 39.566406 12.128906 39.375 11.46875C39.371094 11.457031 39.378906 11.449219 39.375 11.4375C39.234375 10.902344 38.992188 10.449219 38.9375 10.28125C38.871094 9.890625 38.582031 9.578125 38.203125 9.480469C37.820313 9.382813 37.417969 9.515625 37.171875 9.824219C36.925781 10.132813 36.882813 10.554688 37.0625 10.90625C37.203125 11.332031 37.375 11.691406 37.4375 11.9375C37.4375 11.949219 37.4375 11.957031 37.4375 11.96875C37.632813 12.652344 37.769531 13.140625 37.96875 13.5625C38.171875 14.105469 38.15625 14.84375 37.90625 15.34375C37.625 15.902344 37.273438 16.300781 36.8125 16.53125L36.90625 15.9375C36.957031 15.628906 36.859375 15.316406 36.644531 15.089844C36.429688 14.863281 36.121094 14.746094 35.8125 14.78125C35.339844 14.820313 34.964844 15.1875 34.90625 15.65625L34.78125 16.625C34.191406 16.375 33.664063 15.890625 33.4375 15.25C33.429688 15.21875 33.417969 15.1875 33.40625 15.15625C33.367188 15.074219 33.050781 14.335938 32.875 13.71875C32.679688 13.035156 32.511719 12.578125 32.3125 12.15625L32.34375 12.15625C32.140625 11.613281 32.15625 10.84375 32.40625 10.34375C32.40625 10.324219 32.40625 10.300781 32.40625 10.28125C32.585938 9.867188 32.992188 9.5 33.59375 9.15625C34 8.933594 34.199219 8.457031 34.074219 8.007813C33.945313 7.558594 33.527344 7.257813 33.0625 7.28125C33.03125 7.28125 33 7.28125 32.96875 7.28125 Z M 19.65625 11.84375C19.292969 11.84375 18.9375 12.011719 18.6875 12.3125C18.386719 12.613281 18.3125 12.914063 18.3125 13.3125L17.8125 13.8125C17.414063 14.210938 17.414063 14.789063 17.8125 15.1875C18.210938 15.585938 18.789063 15.585938 19.1875 15.1875L19.6875 14.6875C19.988281 14.6875 20.386719 14.613281 20.6875 14.3125C21.289063 13.710938 21.289063 12.8125 20.6875 12.3125C20.386719 12.011719 20.019531 11.84375 19.65625 11.84375 Z M 9.71875 12.8125C8.195313 12.898438 6.75 13.4375 5.6875 14.5C4.265625 15.921875 3.816406 18.003906 4.125 20.0625C4.433594 22.121094 5.488281 24.207031 7.1875 25.90625C7.199219 25.90625 7.207031 25.90625 7.21875 25.90625C8.917969 27.550781 11.007813 28.578125 13.0625 28.875C15.117188 29.171875 17.171875 28.734375 18.59375 27.3125C20.015625 25.890625 20.464844 23.808594 20.15625 21.75C19.847656 19.691406 18.792969 17.605469 17.09375 15.90625C15.390625 14.203125 13.308594 13.15625 11.25 12.875C10.734375 12.804688 10.226563 12.785156 9.71875 12.8125 Z M 9.8125 14.8125C10.179688 14.796875 10.570313 14.820313 10.96875 14.875C12.558594 15.09375 14.289063 15.914063 15.6875 17.3125C17.089844 18.714844 17.949219 20.46875 18.1875 22.0625C18.425781 23.65625 18.066406 25.027344 17.1875 25.90625C16.308594 26.785156 14.9375 27.136719 13.34375 26.90625C11.75 26.675781 9.992188 25.824219 8.59375 24.46875C7.203125 23.070313 6.363281 21.335938 6.125 19.75C5.886719 18.15625 6.214844 16.785156 7.09375 15.90625C7.757813 15.242188 8.707031 14.863281 9.8125 14.8125 Z M 40.78125 23C40.792969 23 40.800781 23 40.8125 23C41.40625 22.960938 41.878906 23.285156 42 23.84375L42.71875 28.34375C42.765625 28.648438 42.949219 28.914063 43.21875 29.0625C45.722656 30.453125 47.464844 32.5 47.90625 35.15625C48.695313 39.894531 44.484375 44.882813 38.34375 45.8125C32.1875 46.746094 26.8125 43.507813 26 38.65625C26 38.644531 26 38.636719 26 38.625C25.660156 36.070313 26.621094 33.5 28.53125 31.5C28.742188 31.273438 28.832031 30.960938 28.78125 30.65625L28.09375 26.21875C28.09375 26.207031 28.09375 26.199219 28.09375 26.1875L28.09375 26.15625C28.066406 25.5625 28.394531 25.074219 28.96875 24.96875L28.96875 25 Z M 35.09375 25C34.292969 25.101563 33.804688 25.886719 33.90625 26.6875C34.007813 27.085938 34.199219 27.394531 34.5 27.59375C34.5 27.792969 34.59375 28.085938 34.59375 28.1875C34.695313 28.6875 35.1875 29.101563 35.6875 29C36.1875 28.898438 36.601563 28.40625 36.5 27.90625C36.5 27.804688 36.40625 27.511719 36.40625 27.3125C36.707031 27.011719 36.789063 26.585938 36.6875 26.1875C36.585938 25.386719 35.894531 24.898438 35.09375 25 Z M 37.6875 29.75C37.113281 29.753906 36.527344 29.808594 35.9375 29.90625C33.582031 30.289063 31.535156 31.394531 30.09375 32.875C28.652344 34.355469 27.816406 36.277344 28.125 38.25C28.429688 40.269531 29.816406 41.882813 31.65625 42.84375C33.496094 43.804688 35.800781 44.164063 38.15625 43.78125C40.511719 43.398438 42.589844 42.324219 44.03125 40.84375C45.472656 39.363281 46.308594 37.410156 46 35.4375C45.695313 33.417969 44.277344 31.835938 42.4375 30.875C41.519531 30.394531 40.476563 30.039063 39.375 29.875C38.824219 29.792969 38.261719 29.746094 37.6875 29.75 Z M 37.6875 31.75C39.105469 31.742188 40.441406 32.070313 41.5 32.625C42.910156 33.363281 43.804688 34.46875 44 35.75C44.191406 36.976563 43.703125 38.292969 42.59375 39.4375C41.484375 40.582031 39.785156 41.496094 37.84375 41.8125C35.898438 42.128906 34.003906 41.800781 32.59375 41.0625C31.183594 40.324219 30.289063 39.21875 30.09375 37.9375C29.902344 36.710938 30.421875 35.394531 31.53125 34.25C32.640625 33.105469 34.308594 32.191406 36.25 31.875C36.734375 31.796875 37.214844 31.753906 37.6875 31.75Z" />
</svg>