<?xml version="1.0" encoding="utf-8"?>
<svg xmlns="http://www.w3.org/2000/svg" viewBox="0 0 50 50" width="515" height="515">
  <path d="M28 23C28.882813 23 30.542969 24.109375 31.925781 24.921875C35.023438 26.738281 38.878906 29 43 29C43.4375 29 43.851563 28.964844 44.238281 28.902344C42.382813 29.742188 40.097656 30 38 30C32.570313 30 28.433594 28.507813 26.660156 26.015625C26.660156 26.015625 25.433594 24.445313 25.355469 24.070313C25.355469 24.070313 26.152344 23 28 23 M 22 23C23.859375 23 24.644531 24.070313 24.644531 24.070313C24.496094 24.507813 23.339844 26.019531 23.339844 26.019531C21.589844 28.480469 17.429688 30 12 30C9.902344 30 7.617188 29.742188 5.761719 28.902344C6.148438 28.964844 6.5625 29 7 29C11.121094 29 14.976563 26.738281 18.074219 24.921875C19.457031 24.109375 21.140625 23 22 23 M 46.21875 18C44.421875 18 44 20 44 20C44 20 44.625 19 46 19C48 19 48 21.25 48 22C48 22.75 47.1875 27 43 27C36.9375 27 30.917969 21 28 21C27.339844 21 25.953125 21.089844 25 21.824219C24.046875 21.089844 22.660156 21 22 21C19.082031 21 13.0625 27 7 27C2.8125 27 2 22.75 2 22C2 21.25 2 19 4 19C5.375 19 6 20 6 20C6 20 5.578125 18 3.78125 18C1.863281 18 0 19.015625 0 23C0 27.542969 2.917969 32 12 32C18.710938 32 23.140625 29.90625 25 27.132813C26.859375 29.90625 31.289063 32 38 32C47.082031 32 50 27.542969 50 23C50 19.015625 48.136719 18 46.21875 18Z" />
</svg>