<?xml version="1.0" encoding="utf-8"?>
<svg xmlns="http://www.w3.org/2000/svg" width="515" height="515" viewBox="0 0 50 50">
  <path d="M25 0 A 1.0001 1.0001 0 0 0 24.521484 0.12304688L12.65625 6.59375 A 1.0001 1.0001 0 0 0 12 7.6953125L12 19.544922 A 1.0001 1.0001 0 0 0 12.367188 20.318359L24.259766 30.048828 A 1.0001 1.0001 0 0 0 25.746094 30.044922L37.632812 20.318359 A 1.0001 1.0001 0 0 0 38 19.544922L38 7.6894531 A 1.0001 1.0001 0 0 0 37.345703 6.5957031L25.478516 0.12304688 A 1.0001 1.0001 0 0 0 25 0 z M 25 2.1386719L35.033203 7.6113281L25 13.996094L14.966797 7.6113281L25 2.1386719 z M 3.5 9C1.6523718 9 0.13601375 10.464486 0.021484375 12.285156 A 1.0001 1.0001 0 0 0 0 12.5L0 27.408203C0 29.447616 0.22756793 30.717649 0.70117188 31.699219C1.1747758 32.680789 1.8203809 33.242727 2.421875 33.90625C2.9821597 34.524269 5.2396144 37.266672 7.2871094 39.779297C9.2190033 42.150059 10.804044 44.113 11 44.355469L11 49 A 1.0001 1.0001 0 1 0 13 49L13 44 A 1.0001 1.0001 0 0 0 12.777344 43.371094C12.777344 43.371094 10.888646 41.03225 8.8378906 38.515625C6.7871356 35.999 4.6250121 33.357481 3.9042969 32.5625C3.225791 31.814023 2.7898492 31.426758 2.5019531 30.830078C2.2140571 30.233398 2 29.29779 2 27.408203L2 12.5C2 11.659188 2.6591883 11 3.5 11C4.3408117 11 5 11.659188 5 12.5L5 23.091797C4.9335731 23.149501 4.8599478 23.194681 4.796875 23.257812C3.333235 24.721411 3.3340481 27.125064 4.796875 28.587891L12.728516 36.519531 A 1.0001 1.0001 0 1 0 14.142578 35.105469L6.2109375 27.173828C5.5121633 26.475054 5.5117759 25.37039 6.2109375 24.671875 A 1.0001 1.0001 0 0 0 6.2109375 24.669922C6.2708339 24.60997 6.3369955 24.561392 6.4023438 24.511719 A 1.0001 1.0001 0 0 0 6.65625 24.351562C7.322397 24.004024 8.1485659 24.105075 8.7128906 24.669922 A 1.0001 1.0001 0 0 0 8.7128906 24.671875L16.966797 32.923828C19.206068 35.162161 20 37.184899 20 41L20 49 A 1.0001 1.0001 0 1 0 22 49L22 41C22 36.869101 20.913588 34.041433 18.380859 31.509766L10.126953 23.257812C9.3953198 22.525502 8.4297907 22.158203 7.4628906 22.158203C7.3076659 22.158203 7.1542765 22.182249 7 22.201172L7 12.5 A 1.0001 1.0001 0 0 0 6.9765625 12.279297C6.8590161 10.461453 5.3455742 9 3.5 9 z M 46.5 9C44.652372 9 43.136014 10.464486 43.021484 12.285156 A 1.0001 1.0001 0 0 0 43 12.5L43 22.201172C42.845723 22.182249 42.692334 22.158203 42.537109 22.158203C41.570209 22.158203 40.60468 22.525502 39.873047 23.257812L31.619141 31.509766C29.086412 34.041433 28 36.869101 28 41L28 49 A 1.0001 1.0001 0 1 0 30 49L30 41C30 37.184899 30.793932 35.162161 33.033203 32.923828L41.287109 24.671875 A 1.0001 1.0001 0 0 0 41.287109 24.669922C41.853623 24.102885 42.684107 24.003031 43.351562 24.355469 A 1.0001 1.0001 0 0 0 43.59375 24.509766C43.660304 24.560111 43.72814 24.608943 43.789062 24.669922 A 1.0001 1.0001 0 0 0 43.789062 24.671875C44.488225 25.37039 44.487838 26.475054 43.789062 27.173828L35.857422 35.105469 A 1.0001 1.0001 0 1 0 37.271484 36.519531L45.203125 28.587891C46.665952 27.125064 46.666765 24.72141 45.203125 23.257812C45.140052 23.194681 45.066427 23.149501 45 23.091797L45 12.5C45 11.659188 45.659188 11 46.5 11C47.340812 11 48 11.659188 48 12.5L48 27.408203C48 29.29779 47.785943 30.233398 47.498047 30.830078C47.210151 31.426758 46.774209 31.814023 46.095703 32.5625C45.374988 33.357481 43.212864 35.999 41.162109 38.515625C39.111354 41.03225 37.222656 43.371094 37.222656 43.371094 A 1.0001 1.0001 0 0 0 37 44L37 49 A 1.0001 1.0001 0 1 0 39 49L39 44.355469C39.195956 44.113 40.780997 42.150059 42.712891 39.779297C44.760386 37.266672 47.01784 34.524269 47.578125 33.90625C48.179619 33.242727 48.825224 32.680789 49.298828 31.699219C49.772432 30.717649 50 29.447616 50 27.408203L50 12.5 A 1.0001 1.0001 0 0 0 49.976562 12.279297C49.859016 10.461453 48.345574 9 46.5 9 z M 14 9.3671875L24 15.730469L24 27.251953L14 19.070312L14 9.3671875 z M 36 9.3671875L36 19.070312L26 27.251953L26 15.730469L36 9.3671875 z" />
</svg>