<?xml version="1.0" encoding="utf-8"?>
<svg xmlns="http://www.w3.org/2000/svg" viewBox="0 0 50 50" width="515" height="515">
  <path d="M25 12C22.800781 12 21 13.800781 21 16C20.996094 16.359375 21.183594 16.695313 21.496094 16.878906C21.808594 17.058594 22.191406 17.058594 22.503906 16.878906C22.816406 16.695313 23.003906 16.359375 23 16C23 14.882813 23.882813 14 25 14C26.117188 14 27 14.882813 27 16C27 17.199219 26.570313 17.578125 25.875 18.15625C25.527344 18.445313 25.101563 18.71875 24.71875 19.15625C24.335938 19.59375 24 20.253906 24 21L24 22.375C23.457031 22.617188 19.054688 24.582031 14 26.875C8.640625 29.308594 3.25 31.765625 2.5625 32.09375C2.074219 32.328125 1.523438 32.574219 1 33C0.476563 33.425781 0 34.152344 0 35C0 36.644531 1.355469 38 3 38L47 38C48.644531 38 50 36.644531 50 35C50 34.136719 49.527344 33.394531 49 32.96875C48.472656 32.542969 47.910156 32.316406 47.4375 32.09375C46.15625 31.496094 27.066406 22.859375 26 22.375L26 21C26 20.769531 26.039063 20.671875 26.21875 20.46875C26.398438 20.265625 26.722656 20.023438 27.125 19.6875C27.929688 19.015625 29 17.851563 29 16C29 13.800781 27.199219 12 25 12 Z M 25 24.09375C25.746094 24.433594 45.5 33.410156 46.5625 33.90625C47.058594 34.136719 47.519531 34.347656 47.75 34.53125C47.980469 34.714844 48 34.757813 48 35C48 35.566406 47.566406 36 47 36L3 36C2.433594 36 2 35.566406 2 35C2 34.769531 2.019531 34.75 2.25 34.5625C2.480469 34.375 2.929688 34.148438 3.4375 33.90625C3.890625 33.6875 9.488281 31.148438 14.84375 28.71875C19.996094 26.382813 24.621094 24.265625 25 24.09375Z" />
</svg>