<?xml version="1.0" encoding="utf-8"?>
<svg xmlns="http://www.w3.org/2000/svg" viewBox="0 0 50 50" width="515" height="515">
  <path d="M14.8125 3C14.335938 3.089844 13.992188 3.511719 14 4L14 14L4 14C3.449219 14 3 14.449219 3 15L3 19C3 19.550781 3.449219 20 4 20L14 20L14 30L4 30C3.449219 30 3 30.449219 3 31L3 35C3 35.550781 3.449219 36 4 36L14 36L14 46C14 46.550781 14.449219 47 15 47L19 47C19.550781 47 20 46.550781 20 46L20 36L30 36L30 46C30 46.550781 30.449219 47 31 47L35 47C35.550781 47 36 46.550781 36 46L36 36L46 36C46.550781 36 47 35.550781 47 35L47 31C47 30.449219 46.550781 30 46 30L36 30L36 20L46 20C46.550781 20 47 19.550781 47 19L47 15C47 14.449219 46.550781 14 46 14L36 14L36 4C36 3.449219 35.550781 3 35 3L31 3C30.449219 3 30 3.449219 30 4L30 14L20 14L20 4C20 3.449219 19.550781 3 19 3L15 3C14.96875 3 14.9375 3 14.90625 3C14.875 3 14.84375 3 14.8125 3 Z M 16 5L18 5L18 15C18 15.550781 18.449219 16 19 16L31 16C31.550781 16 32 15.550781 32 15L32 5L34 5L34 15C34 15.550781 34.449219 16 35 16L45 16L45 18L35 18C34.449219 18 34 18.449219 34 19L34 31C34 31.550781 34.449219 32 35 32L45 32L45 34L35 34C34.449219 34 34 34.449219 34 35L34 45L32 45L32 35C32 34.449219 31.550781 34 31 34L19 34C18.449219 34 18 34.449219 18 35L18 45L16 45L16 35C16 34.449219 15.550781 34 15 34L5 34L5 32L15 32C15.550781 32 16 31.550781 16 31L16 19C16 18.449219 15.550781 18 15 18L5 18L5 16L15 16C15.550781 16 16 15.550781 16 15 Z M 18.8125 18C18.335938 18.089844 17.992188 18.511719 18 19L18 31C18 31.550781 18.449219 32 19 32L31 32C31.550781 32 32 31.550781 32 31L32 19C32 18.449219 31.550781 18 31 18L19 18C18.96875 18 18.9375 18 18.90625 18C18.875 18 18.84375 18 18.8125 18 Z M 20 20L30 20L30 30L20 30Z" />
</svg>