<?xml version="1.0" encoding="utf-8"?>
<svg xmlns="http://www.w3.org/2000/svg" viewBox="0 0 50 50" width="515" height="515">
  <path d="M7.6875 0C6.730469 0 5.96875 0.660156 5.8125 1.59375L0.09375 35.40625C0.0351563 35.59375 0 35.796875 0 36L0 48C0 49.09375 0.90625 50 2 50L48 50C49.09375 50 50 49.09375 50 48L50 36C50 35.703125 49.933594 35.410156 49.8125 35.15625L44.1875 1.59375C44.03125 0.660156 43.269531 0 42.3125 0 Z M 7.78125 2L42.21875 2L47.59375 34L2.375 34 Z M 25 7C20.945313 7 17.261719 8.175781 14.53125 10.125C11.800781 12.074219 10 14.859375 10 18C10 21.140625 11.800781 23.925781 14.53125 25.875C17.261719 27.824219 20.945313 29 25 29C29.054688 29 32.738281 27.824219 35.46875 25.875C38.199219 23.925781 40 21.140625 40 18C40 14.859375 38.199219 12.074219 35.46875 10.125C32.738281 8.175781 29.054688 7 25 7 Z M 25 9C28.667969 9 31.972656 10.078125 34.3125 11.75C36.652344 13.421875 38 15.617188 38 18C38 20.382813 36.652344 22.578125 34.3125 24.25C31.972656 25.921875 28.667969 27 25 27C21.332031 27 18.027344 25.921875 15.6875 24.25C13.347656 22.578125 12 20.382813 12 18C12 15.617188 13.347656 13.421875 15.6875 11.75C18.027344 10.078125 21.332031 9 25 9 Z M 25 15C23.34375 15 22 15.894531 22 17C22 18.105469 23.34375 19 25 19C26.65625 19 28 18.105469 28 17C28 15.894531 26.65625 15 25 15 Z M 2 36L47.96875 36C47.976563 36.019531 47.988281 36.042969 48 36.0625L48 48L2 48 Z M 40 40C38.894531 40 38 40.894531 38 42C38 43.105469 38.894531 44 40 44C41.105469 44 42 43.105469 42 42C42 40.894531 41.105469 40 40 40Z" />
</svg>