<?xml version="1.0" encoding="utf-8"?>
<svg xmlns="http://www.w3.org/2000/svg" viewBox="0 0 50 50" width="515" height="515">
  <path d="M25 1C15.691406 1 8.015625 8.089844 7.09375 17.15625C6.179688 17.453125 5.453125 18.179688 5.15625 19.09375C3.730469 19.378906 2.492188 20.355469 1.625 21.65625C0.589844 23.207031 0 25.25 0 27.5C0 29.75 0.589844 31.792969 1.625 33.34375C2.492188 34.644531 3.730469 35.621094 5.15625 35.90625C5.546875 37.109375 6.671875 38 8 38C9.644531 38 11 36.644531 11 35L11 20C11 18.757813 10.214844 17.703125 9.125 17.25C10 9.234375 16.75 3 25 3C33.25 3 40 9.234375 40.875 17.25C39.785156 17.703125 39 18.757813 39 20L39 35C39 36.644531 40.355469 38 42 38C43.328125 38 44.453125 37.109375 44.84375 35.90625C46.269531 35.621094 47.507813 34.644531 48.375 33.34375C49.410156 31.792969 50 29.75 50 27.5C50 25.25 49.410156 23.207031 48.375 21.65625C47.507813 20.355469 46.269531 19.378906 44.84375 19.09375C44.546875 18.179688 43.820313 17.453125 42.90625 17.15625C41.984375 8.089844 34.308594 1 25 1 Z M 8 19C8.5625 19 9 19.4375 9 20L9 35C9 35.5625 8.5625 36 8 36C7.4375 36 7 35.5625 7 35L7 20C7 19.4375 7.4375 19 8 19 Z M 42 19C42.5625 19 43 19.4375 43 20L43 35C43 35.5625 42.5625 36 42 36C41.4375 36 41 35.5625 41 35L41 20C41 19.4375 41.4375 19 42 19 Z M 5 21.21875L5 33.78125C4.378906 33.515625 3.789063 33.011719 3.28125 32.25C2.507813 31.089844 2 29.390625 2 27.5C2 25.609375 2.507813 23.910156 3.28125 22.75C3.789063 21.988281 4.378906 21.484375 5 21.21875 Z M 45 21.21875C45.621094 21.484375 46.210938 21.988281 46.71875 22.75C47.492188 23.910156 48 25.609375 48 27.5C48 29.390625 47.492188 31.089844 46.71875 32.25C46.210938 33.011719 45.621094 33.515625 45 33.78125Z" />
</svg>