<?xml version="1.0" encoding="utf-8"?>
<svg xmlns="http://www.w3.org/2000/svg" viewBox="0 0 50 50" width="515" height="515">
  <path d="M38 3C35.250421 3 33 5.2504209 33 8C33 10.749579 35.250421 13 38 13C40.749579 13 43 10.749579 43 8C43 5.2504209 40.749579 3 38 3 z M 8 5 A 2 2 0 0 0 6.2695312 6L3 6 A 1.0001 1.0001 0 0 0 2 7L2 15C2 21.278497 6.8526955 26.438848 13.001953 26.949219 A 1.0001 1.0001 0 0 0 13 27C13 29.492799 13.119187 32.938847 14.927734 35.865234C16.736282 38.791621 20.290171 41 26.443359 41C29.194236 41 31.388226 40.409719 33.115234 39.486328 A 1.0001 1.0001 0 0 0 33.503906 39.251953C35.091442 38.315552 36.267678 37.099139 37.072266 35.804688C38.780979 33.055644 39 30.120311 39 28.857422L39 26.855469C40.7157 26.405545 42 24.850107 42 23C42 20.802937 40.197063 19 38 19C35.802264 19 34 20.80334 34 23C34 24.849768 35.284049 26.405463 37 26.855469L37 28.857422C37 29.858533 36.775584 32.493544 35.373047 34.75C34.941139 35.444869 34.389796 36.104754 33.710938 36.699219L33.449219 31.703125L30 30.322266L30 24C30 19.569334 33.569334 16 38 16C42.430666 16 46 19.569334 46 24L46 30.322266L42.550781 31.703125L41.851562 45L34.152344 45L33.949219 41.320312C33.349219 41.650312 32.7 41.929922 32 42.169922L32.101562 44.103516 A 1.0004143 1.0004143 0 0 0 32.101562 44.177734L32.251953 47L43.748047 47L44.480469 33.083984L48 31.677734L48 24C48 18.488666 43.511334 14 38 14C32.488666 14 28 18.488666 28 24L28 31.677734L31.519531 33.083984L31.775391 37.951172C30.414635 38.589991 28.69687 39 26.443359 39C20.745548 39 18.079609 37.161816 16.628906 34.814453C15.178204 32.46709 15 29.412201 15 27 A 1.0001 1.0001 0 0 0 14.998047 26.949219C21.147304 26.438848 26 21.278497 26 15L26 7 A 1.0001 1.0001 0 0 0 25 6L21.728516 6 A 2 2 0 0 0 20 5 A 2 2 0 0 0 18 7 A 2 2 0 0 0 20 9 A 2 2 0 0 0 21.730469 8L24 8L24 15C24 20.534534 19.534534 25 14 25C8.4654664 25 4 20.534534 4 15L4 8L6.2714844 8 A 2 2 0 0 0 8 9 A 2 2 0 0 0 10 7 A 2 2 0 0 0 8 5 z M 38 5C39.668699 5 41 6.3313011 41 8C41 9.6686989 39.668699 11 38 11C36.331301 11 35 9.6686989 35 8C35 6.3313011 36.331301 5 38 5 z M 38 21C39.114937 21 40 21.885063 40 23C40 24.084092 39.16108 24.943105 38.089844 24.990234 A 1.0001 1.0001 0 0 0 37.984375 24.986328 A 1.0001 1.0001 0 0 0 37.908203 24.990234C36.836762 24.942153 36 24.08382 36 23C36 21.88466 36.883736 21 38 21 z" />
</svg>