<?xml version="1.0" encoding="utf-8"?>
<svg xmlns="http://www.w3.org/2000/svg" width="515" height="515" viewBox="0 0 50 50">
  <path d="M11 4C9.3545455 4 8 5.3545455 8 7L8 12L7 12 A 1.0001 1.0001 0 1 0 7 14L11 14 A 1.0001 1.0001 0 1 0 11 12L10 12L10 7C10 6.4454545 10.445455 6 11 6L39 6C39.554545 6 40 6.4454545 40 7L40 43C40 43.554545 39.554545 44 39 44L11 44C10.445455 44 10 43.554545 10 43L10 39L8 39L8 43C8 44.645455 9.3545455 46 11 46L39 46C40.645455 46 42 44.645455 42 43L42 7C42 5.3545455 40.645455 4 39 4L11 4 z M 8 15L8 18L7 18 A 1.0001 1.0001 0 1 0 7 20L11 20 A 1.0001 1.0001 0 1 0 11 18L10 18L10 15L8 15 z M 22 16L22 22L16 22L16 28L22 28L22 34L28 34L28 28L34 28L34 22L33 22L28 22L28 16L22 16 z M 24 18L26 18L26 24L32 24L32 26L26 26L26 32L24 32L24 26L18 26L18 24L24 24L24 18 z M 8 21L8 24L7 24 A 1.0001 1.0001 0 1 0 7 26L11 26 A 1.0001 1.0001 0 1 0 11 24L10 24L10 21L8 21 z M 8 27L8 30L7 30 A 1.0001 1.0001 0 1 0 7 32L11 32 A 1.0001 1.0001 0 1 0 11 30L10 30L10 27L8 27 z M 8 33L8 36L7 36 A 1.0001 1.0001 0 1 0 7 38L11 38 A 1.0001 1.0001 0 1 0 11 36L10 36L10 33L8 33 z" />
</svg>