<?xml version="1.0" encoding="utf-8"?>
<svg xmlns="http://www.w3.org/2000/svg" viewBox="0 0 50 50" width="515" height="515">
  <path d="M17.984375 2.9941406 A 1.0001 1.0001 0 0 0 17.535156 4.8847656C17.535156 4.8847656 21.349514 6.8285756 21.921875 11.751953C20.541441 10.879974 18.337506 10 15 10C7.935 10 3 15.346 3 23C3 30.106 6.774 38.896203 14 43.408203L14 41.003906C8.085 36.719906 5 29.173 5 23C5 16.523 9.112 12 15 12C20.260994 12 22.057365 14.40099 22.164062 14.550781C22.164732 14.551721 22.173292 14.561739 22.173828 14.5625C22.199495 14.600167 22.237928 14.62127 22.267578 14.654297C22.323104 14.716526 22.372639 14.783687 22.445312 14.832031C22.447103 14.833221 22.449377 14.832808 22.451172 14.833984C22.518786 14.878463 22.596567 14.89911 22.671875 14.925781C22.718218 14.942194 22.760428 14.971029 22.808594 14.980469C22.872531 14.992922 22.9357 14.982561 23 14.982422C23.0643 14.982561 23.127469 14.992922 23.191406 14.980469C23.239572 14.971029 23.281782 14.942194 23.328125 14.925781C23.403433 14.89911 23.481214 14.878463 23.548828 14.833984C23.550623 14.832808 23.552897 14.833221 23.554688 14.832031C23.627361 14.783687 23.676896 14.716488 23.732422 14.654297C23.764761 14.618076 23.809616 14.590692 23.835938 14.550781C23.942635 14.40099 25.739006 12 31 12C36.888 12 41 16.523 41 23C41 25.542 40.467453 28.316 39.439453 31L40 31C40.655 31 41.257953 30.783781 41.751953 30.425781C42.574953 27.909781 43 25.362 43 23C43 15.725808 38.538204 10.545952 32.03125 10.048828C32.51464 9.2515509 32.895288 8.3875185 33.191406 7.5546875C33.721955 6.0625188 34 4.8333333 34 4 A 1.0001 1.0001 0 0 0 33 3C32 3 29.666555 2.983269 27.355469 4.1738281C25.777938 4.9864958 24.246262 6.4151805 23.173828 8.65625C21.632447 4.8313162 18.464844 3.1152344 18.464844 3.1152344 A 1.0001 1.0001 0 0 0 17.984375 2.9941406 z M 31.742188 5.0761719C31.63587 5.642068 31.602807 6.0553386 31.308594 6.8828125C30.872651 8.1089005 30.203705 9.3615277 29.501953 10.070312C27.090905 10.278362 25.3693 10.961077 24.208984 11.664062C25.018231 8.3732625 26.619085 6.8014017 28.269531 5.9511719C29.529295 5.3022028 30.725091 5.1417603 31.742188 5.0761719 z M 45 23.111328L45 28C45 30.757 42.757 33 40 33L35.154297 33 A 1.0001 1.0001 0 0 0 34.984375 32.986328 A 1.0001 1.0001 0 0 0 34.839844 33L29.154297 33 A 1.0001 1.0001 0 0 0 28.984375 32.986328 A 1.0001 1.0001 0 0 0 28.839844 33L23.154297 33 A 1.0001 1.0001 0 0 0 22.984375 32.986328 A 1.0001 1.0001 0 0 0 22.839844 33L17 33C16.447 33 16 33.448 16 34L16 46C16 46.552 16.447 47 17 47L40 47C43.52 47 46.442687 44.388 46.929688 41C46.976687 40.673 47 40.339 47 40L47 28C47 26.098 46.235 24.373328 45 23.111328 z M 45 32.894531L45 40C45 42.757 42.757 45 40 45L18 45L18 35L22 35L22 39 A 1.0001 1.0001 0 1 0 24 39L24 35L28 35L28 41 A 1.0001 1.0001 0 1 0 30 41L30 35L34 35L34 40 A 1.0001 1.0001 0 1 0 36 40L36 35L40 35L40 41 A 1.0001 1.0001 0 1 0 42 41L42 34.703125C43.151255 34.359145 44.180558 33.731381 45 32.894531 z" />
</svg>