<?xml version="1.0" encoding="utf-8"?>
<svg xmlns="http://www.w3.org/2000/svg" viewBox="0 0 50 50" width="515" height="515">
  <path d="M0.8125 4C0.335938 4.089844 -0.0078125 4.511719 0 5L0 45C0 45.550781 0.449219 46 1 46L49 46C49.550781 46 50 45.550781 50 45L50 5C50 4.449219 49.550781 4 49 4L1 4C0.96875 4 0.9375 4 0.90625 4C0.875 4 0.84375 4 0.8125 4 Z M 2 6L48 6L48 44L2 44L2 26L9 26C9.265625 26.007813 9.527344 25.90625 9.71875 25.71875L12.625 22.8125L15.0625 29.34375C15.214844 29.753906 15.613281 30.019531 16.050781 29.996094C16.488281 29.976563 16.859375 29.671875 16.96875 29.25L20.4375 15.4375L22 39.0625C22.042969 39.53125 22.402344 39.90625 22.867188 39.964844C23.335938 40.027344 23.777344 39.753906 23.9375 39.3125L29.1875 23.59375L32.09375 29.4375C32.257813 29.789063 32.613281 30.015625 33 30.015625C33.386719 30.015625 33.742188 29.789063 33.90625 29.4375L35.625 26L40.28125 26C40.628906 26.597656 41.261719 27 42 27C43.105469 27 44 26.105469 44 25C44 23.894531 43.105469 23 42 23C41.261719 23 40.628906 23.402344 40.28125 24L35 24C34.613281 23.996094 34.261719 24.214844 34.09375 24.5625L33 26.75L29.90625 20.5625C29.726563 20.199219 29.347656 19.980469 28.941406 20.007813C28.539063 20.035156 28.191406 20.304688 28.0625 20.6875L23.65625 33.875L22 8.9375C21.984375 8.667969 21.859375 8.414063 21.652344 8.234375C21.445313 8.058594 21.175781 7.972656 20.90625 8C20.484375 8.039063 20.136719 8.339844 20.03125 8.75L15.8125 25.65625L13.9375 20.65625C13.824219 20.328125 13.550781 20.085938 13.214844 20.007813C12.875 19.933594 12.523438 20.035156 12.28125 20.28125L8.5625 24L2 24Z" />
</svg>