<?xml version="1.0" encoding="utf-8"?>
<svg xmlns="http://www.w3.org/2000/svg" viewBox="0 0 50 50" width="515" height="515">
  <path d="M26.5 3C19.058594 3 13 9.058594 13 16.5C12.996094 16.859375 13.183594 17.195313 13.496094 17.378906C13.808594 17.558594 14.191406 17.558594 14.503906 17.378906C14.816406 17.195313 15.003906 16.859375 15 16.5C15 10.140625 20.140625 5 26.5 5C32.859375 5 38 10.140625 38 16.5C38 22.808594 36.769531 25.074219 34.53125 27.90625C32.292969 30.738281 28.972656 34.050781 25.21875 41.65625C24.203125 43.6875 21.941406 45 19.5 45C15.953125 45 13 42.046875 13 38.5C13.003906 38.140625 12.816406 37.804688 12.503906 37.621094C12.191406 37.441406 11.808594 37.441406 11.496094 37.621094C11.183594 37.804688 10.996094 38.140625 11 38.5C11 43.152344 14.847656 47 19.5 47C22.65625 47 25.617188 45.332031 27 42.5625C27 42.550781 27 42.542969 27 42.53125C30.648438 35.136719 33.761719 32.117188 36.125 29.125C38.488281 26.132813 40 23.09375 40 16.5C40 9.058594 33.941406 3 26.5 3 Z M 26.5 8C21.847656 8 18 11.847656 18 16.5C18 17.351563 17.515625 17.933594 16.78125 18.71875C16.046875 19.503906 15 20.472656 15 22C15 23.34375 15.972656 24.4375 17.1875 24.84375C17.523438 24.957031 18.058594 25.238281 18.4375 25.5625C18.816406 25.886719 19 26.179688 19 26.5C19 26.648438 18.996094 26.667969 18.9375 26.75C18.878906 26.832031 18.71875 26.957031 18.5 27.09375C18.0625 27.367188 17.332031 27.636719 16.6875 28.28125C15.683594 29.285156 15 30.523438 15 32C15 34.746094 17.253906 37 20 37C20.359375 37.003906 20.695313 36.816406 20.878906 36.503906C21.058594 36.191406 21.058594 35.808594 20.878906 35.496094C20.695313 35.183594 20.359375 34.996094 20 35C18.34375 35 17 33.65625 17 32C17 31.078125 17.296875 30.515625 18.09375 29.71875C18.347656 29.464844 18.925781 29.183594 19.5625 28.78125C19.882813 28.582031 20.246094 28.347656 20.53125 27.96875C20.816406 27.589844 21 27.050781 21 26.5C21 25.417969 20.394531 24.582031 19.75 24.03125C19.105469 23.480469 18.378906 23.125 17.8125 22.9375C17.230469 22.742188 17 22.457031 17 22C17 21.425781 17.453125 20.910156 18.21875 20.09375C18.984375 19.277344 20 18.148438 20 16.5C20 12.953125 22.953125 10 26.5 10C30.046875 10 33 12.953125 33 16.5C32.996094 16.859375 33.183594 17.195313 33.496094 17.378906C33.808594 17.558594 34.191406 17.558594 34.503906 17.378906C34.816406 17.195313 35.003906 16.859375 35 16.5C35 11.847656 31.152344 8 26.5 8Z" />
</svg>