<?xml version="1.0" encoding="utf-8"?>
<svg xmlns="http://www.w3.org/2000/svg" viewBox="0 0 50 50" width="515" height="515">
  <path d="M14.71875 2C14.167969 2.078125 13.78125 2.589844 13.859375 3.140625C13.9375 3.691406 14.449219 4.078125 15 4L35 4C35.359375 4.003906 35.695313 3.816406 35.878906 3.503906C36.058594 3.191406 36.058594 2.808594 35.878906 2.496094C35.695313 2.183594 35.359375 1.996094 35 2L15 2C14.96875 2 14.9375 2 14.90625 2C14.875 2 14.84375 2 14.8125 2C14.78125 2 14.75 2 14.71875 2 Z M 24.9375 4.96875C24.894531 4.976563 24.851563 4.988281 24.8125 5C24.558594 5.050781 24.335938 5.195313 24.1875 5.40625L20.1875 10.71875C19.851563 11.167969 19.941406 11.804688 20.390625 12.140625C20.839844 12.476563 21.476563 12.386719 21.8125 11.9375L24 9.03125L24 40.96875L21.8125 38.0625C21.59375 37.753906 21.21875 37.597656 20.84375 37.65625C20.480469 37.699219 20.171875 37.9375 20.035156 38.273438C19.898438 38.613281 19.957031 39 20.1875 39.28125L24.1875 44.59375C24.375 44.855469 24.679688 45.011719 25 45.011719C25.320313 45.011719 25.625 44.855469 25.8125 44.59375L29.8125 39.28125C30.148438 38.832031 30.058594 38.195313 29.609375 37.859375C29.160156 37.523438 28.523438 37.613281 28.1875 38.0625L26 40.96875L26 9.03125L28.1875 11.9375C28.523438 12.386719 29.160156 12.476563 29.609375 12.140625C30.058594 11.804688 30.148438 11.167969 29.8125 10.71875L25.8125 5.40625C25.617188 5.117188 25.285156 4.953125 24.9375 4.96875 Z M 15 6C14.449219 6 14 6.449219 14 7C14 7.550781 14.449219 8 15 8C15.550781 8 16 7.550781 16 7C16 6.449219 15.550781 6 15 6 Z M 35 6C34.449219 6 34 6.449219 34 7C34 7.550781 34.449219 8 35 8C35.550781 8 36 7.550781 36 7C36 6.449219 35.550781 6 35 6 Z M 15 10C14.449219 10 14 10.449219 14 11C14 11.550781 14.449219 12 15 12C15.550781 12 16 11.550781 16 11C16 10.449219 15.550781 10 15 10 Z M 35 10C34.449219 10 34 10.449219 34 11C34 11.550781 34.449219 12 35 12C35.550781 12 36 11.550781 36 11C36 10.449219 35.550781 10 35 10 Z M 15 14C14.449219 14 14 14.449219 14 15C14 15.550781 14.449219 16 15 16C15.550781 16 16 15.550781 16 15C16 14.449219 15.550781 14 15 14 Z M 35 14C34.449219 14 34 14.449219 34 15C34 15.550781 34.449219 16 35 16C35.550781 16 36 15.550781 36 15C36 14.449219 35.550781 14 35 14 Z M 15 18C14.449219 18 14 18.449219 14 19C14 19.550781 14.449219 20 15 20C15.550781 20 16 19.550781 16 19C16 18.449219 15.550781 18 15 18 Z M 35 18C34.449219 18 34 18.449219 34 19C34 19.550781 34.449219 20 35 20C35.550781 20 36 19.550781 36 19C36 18.449219 35.550781 18 35 18 Z M 15 22C14.449219 22 14 22.449219 14 23C14 23.550781 14.449219 24 15 24C15.550781 24 16 23.550781 16 23C16 22.449219 15.550781 22 15 22 Z M 35 22C34.449219 22 34 22.449219 34 23C34 23.550781 34.449219 24 35 24C35.550781 24 36 23.550781 36 23C36 22.449219 35.550781 22 35 22 Z M 15 26C14.449219 26 14 26.449219 14 27C14 27.550781 14.449219 28 15 28C15.550781 28 16 27.550781 16 27C16 26.449219 15.550781 26 15 26 Z M 35 26C34.449219 26 34 26.449219 34 27C34 27.550781 34.449219 28 35 28C35.550781 28 36 27.550781 36 27C36 26.449219 35.550781 26 35 26 Z M 15 30C14.449219 30 14 30.449219 14 31C14 31.550781 14.449219 32 15 32C15.550781 32 16 31.550781 16 31C16 30.449219 15.550781 30 15 30 Z M 35 30C34.449219 30 34 30.449219 34 31C34 31.550781 34.449219 32 35 32C35.550781 32 36 31.550781 36 31C36 30.449219 35.550781 30 35 30 Z M 15 34C14.449219 34 14 34.449219 14 35C14 35.550781 14.449219 36 15 36C15.550781 36 16 35.550781 16 35C16 34.449219 15.550781 34 15 34 Z M 35 34C34.449219 34 34 34.449219 34 35C34 35.550781 34.449219 36 35 36C35.550781 36 36 35.550781 36 35C36 34.449219 35.550781 34 35 34 Z M 15 38C14.449219 38 14 38.449219 14 39C14 39.550781 14.449219 40 15 40C15.550781 40 16 39.550781 16 39C16 38.449219 15.550781 38 15 38 Z M 35 38C34.449219 38 34 38.449219 34 39C34 39.550781 34.449219 40 35 40C35.550781 40 36 39.550781 36 39C36 38.449219 35.550781 38 35 38 Z M 15 42C14.449219 42 14 42.449219 14 43C14 43.550781 14.449219 44 15 44C15.550781 44 16 43.550781 16 43C16 42.449219 15.550781 42 15 42 Z M 35 42C34.449219 42 34 42.449219 34 43C34 43.550781 34.449219 44 35 44C35.550781 44 36 43.550781 36 43C36 42.449219 35.550781 42 35 42 Z M 14.71875 46C14.167969 46.078125 13.78125 46.589844 13.859375 47.140625C13.9375 47.691406 14.449219 48.078125 15 48L35 48C35.359375 48.003906 35.695313 47.816406 35.878906 47.503906C36.058594 47.191406 36.058594 46.808594 35.878906 46.496094C35.695313 46.183594 35.359375 45.996094 35 46L15 46C14.96875 46 14.9375 46 14.90625 46C14.875 46 14.84375 46 14.8125 46C14.78125 46 14.75 46 14.71875 46Z" />
</svg>