<?xml version="1.0" encoding="utf-8"?>
<svg xmlns="http://www.w3.org/2000/svg" viewBox="0 0 50 50" width="515" height="515">
  <path d="M28.90625 8.96875C28.863281 8.976563 28.820313 8.988281 28.78125 9C28.316406 9.105469 27.988281 9.523438 28 10L28 10.84375L9.8125 10C8.804688 10 8 10.671875 8 11.5C8 12.328125 8.804688 13 9.8125 13L28 12.15625L28 14.4375C25.886719 15.097656 24.363281 16.441406 23.15625 18L9.59375 18C8.820313 16.230469 7.039063 15 5 15C2.25 15 0 17.25 0 20C0 22.75 2.25 25 5 25C6.648438 25 8.121094 24.203125 9.03125 22.96875C9.472656 23.085938 9.765625 23.15625 10.25 23.28125C13.253906 24.066406 16.875 25.011719 20 25.78125L20 28C20 29.835938 20.378906 31.28125 21.1875 32.375C21.996094 33.46875 23.191406 34.132813 24.5 34.5C27.117188 35.230469 30.386719 35 34 35C37.648438 35 41.457031 35.042969 44.53125 34.09375C46.070313 33.621094 47.441406 32.863281 48.4375 31.6875C49.433594 30.511719 50 28.933594 50 27C50 26.726563 49.898438 26.484375 49.875 26.21875C49.871094 26.1875 49.878906 26.15625 49.875 26.125C49.898438 25.933594 49.867188 25.738281 49.78125 25.5625C49.773438 25.53125 49.761719 25.5 49.75 25.46875C49.167969 22.3125 46.96875 19.578125 43.90625 17.625C42.550781 16.757813 40.929688 16.167969 39.3125 15.59375C39.125 15.375 38.851563 15.25 38.5625 15.25C38.554688 15.246094 38.539063 15.253906 38.53125 15.25C36.132813 14.496094 33.601563 14 31 14C30.648438 14 30.328125 14.03125 30 14.0625L30 12.15625L48.1875 13C49.195313 13 50 12.328125 50 11.5C50 10.671875 49.195313 10 48.1875 10L30 10.84375L30 10C30.011719 9.710938 29.894531 9.433594 29.6875 9.238281C29.476563 9.039063 29.191406 8.941406 28.90625 8.96875 Z M 31 16C32.101563 16 33.164063 16.28125 34.25 16.4375C34.011719 16.617188 33.699219 16.664063 33.5 16.90625C32.324219 18.347656 32 20.550781 32 24.25C32 25.503906 32.433594 26.710938 33.3125 27.59375C34.191406 28.476563 35.488281 29 37 29C41.09375 29 43.75 28.867188 45.65625 28.53125C46.535156 28.378906 47.257813 28.152344 47.875 27.875C47.742188 28.929688 47.433594 29.785156 46.90625 30.40625C46.230469 31.199219 45.238281 31.753906 43.9375 32.15625C41.335938 32.957031 37.648438 33 34 33C30.3125 33 27.085938 33.167969 25.03125 32.59375C24.003906 32.308594 23.300781 31.882813 22.8125 31.21875C22.324219 30.554688 22 29.554688 22 28L22 25C22 24.542969 21.691406 24.144531 21.25 24.03125C18.007813 23.238281 13.980469 22.1875 10.75 21.34375C9.136719 20.921875 7.722656 20.550781 6.6875 20.28125C6.222656 20.160156 5.855469 20.074219 5.5625 20L23.625 20C23.945313 20.003906 24.246094 19.851563 24.4375 19.59375C25.992188 17.429688 27.59375 16 31 16 Z M 5 17C5.882813 17 6.671875 17.398438 7.21875 18L4.78125 18C4.257813 18 3.769531 18.253906 3.46875 18.59375C3.167969 18.933594 3.007813 19.339844 2.96875 19.75C2.929688 20.160156 3.023438 20.601563 3.28125 21C3.53125 21.382813 3.976563 21.683594 4.46875 21.78125C4.492188 21.789063 4.554688 21.800781 4.59375 21.8125C4.675781 21.832031 4.789063 21.867188 4.9375 21.90625C5.234375 21.984375 5.671875 22.082031 6.1875 22.21875C6.347656 22.261719 6.636719 22.328125 6.8125 22.375C6.304688 22.757813 5.6875 23 5 23C3.332031 23 2 21.667969 2 20C2 18.332031 3.332031 17 5 17 Z M 38.25 17.28125C39.898438 17.828125 41.511719 18.464844 42.84375 19.3125C45.515625 21.015625 47.261719 23.203125 47.78125 25.59375C47.300781 26.007813 46.683594 26.320313 45.3125 26.5625C43.644531 26.855469 41.054688 27 37 27C35.925781 27 35.226563 26.667969 34.75 26.1875C34.273438 25.707031 34 25.042969 34 24.25C34 20.699219 34.457031 18.898438 35.0625 18.15625C35.363281 17.785156 35.691406 17.613281 36.25 17.46875C36.734375 17.34375 37.464844 17.292969 38.25 17.28125 Z M 48.09375 34.96875C48.019531 34.972656 47.945313 34.980469 47.875 35C47.503906 35.085938 47.210938 35.378906 47.125 35.75C47.128906 35.742188 47.105469 35.738281 47.09375 35.78125C47.070313 35.808594 46.992188 35.894531 46.65625 36.0625C45.925781 36.425781 44.121094 36.9375 40.375 36.9375L19.21875 36.9375C18.859375 36.933594 18.523438 37.121094 18.339844 37.433594C18.160156 37.746094 18.160156 38.128906 18.339844 38.441406C18.523438 38.753906 18.859375 38.941406 19.21875 38.9375L40.375 38.9375C44.289063 38.9375 46.359375 38.441406 47.5625 37.84375C48.164063 37.542969 48.546875 37.222656 48.78125 36.875C48.898438 36.703125 48.988281 36.523438 49.03125 36.375C49.074219 36.226563 49.0625 36.03125 49.0625 36.03125C49.078125 35.761719 48.984375 35.496094 48.804688 35.292969C48.621094 35.09375 48.363281 34.976563 48.09375 34.96875Z" />
</svg>