<?xml version="1.0" encoding="utf-8"?>
<svg xmlns="http://www.w3.org/2000/svg" viewBox="0 0 50 50" width="515" height="515">
  <path d="M21 7C19.355469 7 18 8.355469 18 10L18 15C18 16.644531 19.355469 18 21 18L24 18L24 22L11 22C8.253906 22 6 24.253906 6 27L6 32L3 32C1.355469 32 0 33.355469 0 35L0 40C0 41.644531 1.355469 43 3 43L11 43C12.644531 43 14 41.644531 14 40L14 35C14 33.355469 12.644531 32 11 32L8 32L8 27C8 25.34375 9.34375 24 11 24L24 24L24 32L21 32C19.355469 32 18 33.355469 18 35L18 40C18 41.644531 19.355469 43 21 43L29 43C30.644531 43 32 41.644531 32 40L32 35C32 33.355469 30.644531 32 29 32L26 32L26 24L39 24C40.65625 24 42 25.34375 42 27L42 32L39 32C37.355469 32 36 33.355469 36 35L36 40C36 41.644531 37.355469 43 39 43L47 43C48.644531 43 50 41.644531 50 40L50 35C50 33.355469 48.644531 32 47 32L44 32L44 27C44 24.253906 41.746094 22 39 22L26 22L26 18L29 18C30.644531 18 32 16.644531 32 15L32 10C32 8.355469 30.644531 7 29 7 Z M 21 9L29 9C29.554688 9 30 9.445313 30 10L30 15C30 15.554688 29.554688 16 29 16L21 16C20.445313 16 20 15.554688 20 15L20 10C20 9.445313 20.445313 9 21 9 Z M 3 34L11 34C11.554688 34 12 34.445313 12 35L12 40C12 40.554688 11.554688 41 11 41L3 41C2.445313 41 2 40.554688 2 40L2 35C2 34.445313 2.445313 34 3 34 Z M 21 34L29 34C29.554688 34 30 34.445313 30 35L30 40C30 40.554688 29.554688 41 29 41L21 41C20.445313 41 20 40.554688 20 40L20 35C20 34.445313 20.445313 34 21 34 Z M 39 34L47 34C47.554688 34 48 34.445313 48 35L48 40C48 40.554688 47.554688 41 47 41L39 41C38.445313 41 38 40.554688 38 40L38 35C38 34.445313 38.445313 34 39 34Z" />
</svg>