<?xml version="1.0" encoding="utf-8"?>
<svg xmlns="http://www.w3.org/2000/svg" viewBox="0 0 50 50" width="515" height="515">
  <path d="M25 2C12.309295 2 2 12.309295 2 25C2 37.690705 12.309295 48 25 48C37.690705 48 48 37.690705 48 25C48 12.309295 37.690705 2 25 2 z M 25 4C36.609824 4 46 13.390176 46 25C46 36.609824 36.609824 46 25 46C13.390176 46 4 36.609824 4 25C4 13.390176 13.390176 4 25 4 z M 25 6C14.518434 6 6 14.518434 6 25C6 35.481566 14.518434 44 25 44C35.481566 44 44 35.481566 44 25C44 14.518434 35.481566 6 25 6 z M 25 8C34.400685 8 42 15.599315 42 25C42 34.400685 34.400685 42 25 42C15.599315 42 8 34.400685 8 25C8 15.599315 15.599315 8 25 8 z M 24 13C23.448 13 23 13.448 23 14L23 27C23 27.552 23.448 28 24 28L26 28C26.552 28 27 27.552 27 27L27 14C27 13.448 26.552 13 26 13L24 13 z M 24 32C23.448 32 23 32.448 23 33L23 35C23 35.552 23.448 36 24 36L26 36C26.552 36 27 35.552 27 35L27 33C27 32.448 26.552 32 26 32L24 32 z" />
</svg>