<?xml version="1.0" encoding="utf-8"?>
<svg xmlns="http://www.w3.org/2000/svg" viewBox="0 0 50 50" width="515" height="515">
  <path d="M7.8125 3C7.335938 3.089844 6.992188 3.511719 7 4L7 8C7 8.550781 7.449219 9 8 9L11 9L11 12C11 12.550781 11.449219 13 12 13L13 13L13 15.3125C13 19.609375 15.578125 23.289063 19.25 25C15.578125 26.710938 13 30.390625 13 34.6875L13 37L12 37C11.96875 37 11.9375 37 11.90625 37C11.390625 37.046875 10.996094 37.480469 11 38L11 41L8 41C7.449219 41 7 41.449219 7 42L7 46C7 46.550781 7.449219 47 8 47L42 47C42.550781 47 43 46.550781 43 46L43 42C43 41.449219 42.550781 41 42 41L39 41L39 38C39 37.449219 38.550781 37 38 37L37 37L37 34.6875C37 30.390625 34.421875 26.710938 30.75 25C34.421875 23.289063 37 19.609375 37 15.3125L37 13L38 13C38.550781 13 39 12.550781 39 12L39 9L42 9C42.550781 9 43 8.550781 43 8L43 4C43 3.449219 42.550781 3 42 3L8 3C7.96875 3 7.9375 3 7.90625 3C7.875 3 7.84375 3 7.8125 3 Z M 9 5L41 5L41 7L38 7C37.449219 7 37 7.449219 37 8L37 11L13 11L13 8C13 7.449219 12.550781 7 12 7L9 7 Z M 15 13L35 13L35 15.3125C35 19.890625 31.394531 23.640625 26.90625 24C26.359375 24.007813 25.921875 24.453125 25.921875 25C25.921875 25.546875 26.359375 25.992188 26.90625 26C31.394531 26.359375 35 30.109375 35 34.6875L35 37L33.75 37C33.488281 36.203125 32.972656 34.875 32.09375 33.46875C30.75 31.316406 28.445313 29 25 29C21.554688 29 19.25 31.316406 17.90625 33.46875C17.027344 34.875 16.511719 36.203125 16.25 37L15 37L15 34.6875C15 30.109375 18.605469 26.359375 23.09375 26C23.640625 25.992188 24.078125 25.546875 24.078125 25C24.078125 24.453125 23.640625 24.007813 23.09375 24C18.605469 23.640625 15 19.890625 15 15.3125 Z M 17.8125 16C17.519531 16.054688 17.265625 16.234375 17.121094 16.496094C16.976563 16.753906 16.957031 17.066406 17.0625 17.34375C17.0625 17.34375 19.160156 23 25 23C30.839844 23 32.9375 17.34375 32.9375 17.34375C33.050781 17.039063 33.003906 16.695313 32.820313 16.429688C32.632813 16.160156 32.328125 16 32 16L18 16C17.96875 16 17.9375 16 17.90625 16C17.875 16 17.84375 16 17.8125 16 Z M 19.75 18L30.25 18C29.507813 19.28125 28.15625 21 25 21C21.84375 21 20.492188 19.28125 19.75 18 Z M 25 31C27.554688 31 29.25 32.683594 30.40625 34.53125C31.175781 35.761719 31.273438 36.308594 31.5 37L18.5 37C18.726563 36.308594 18.824219 35.761719 19.59375 34.53125C20.75 32.683594 22.445313 31 25 31 Z M 13 39L37 39L37 42C37 42.550781 37.449219 43 38 43L41 43L41 45L9 45L9 43L12 43C12.550781 43 13 42.550781 13 42Z" />
</svg>