<?xml version="1.0" encoding="utf-8"?>
<svg xmlns="http://www.w3.org/2000/svg" viewBox="0 0 50 50" width="515" height="515">
  <path d="M20.8125 2C20.664063 2.03125 20.527344 2.09375 20.40625 2.1875L2.40625 15.1875C2.0625 15.429688 1.910156 15.863281 2.019531 16.269531C2.132813 16.675781 2.488281 16.96875 2.90625 17L13.90625 18C13.9375 18 13.96875 18 14 18L20 18L20 28L22 29.65625L22 18L28 18C28.03125 18 28.0625 18 28.09375 18L39.09375 17C39.511719 16.96875 39.867188 16.675781 39.980469 16.269531C40.089844 15.863281 39.9375 15.429688 39.59375 15.1875L21.59375 2.1875C21.371094 2.019531 21.085938 1.949219 20.8125 2 Z M 21 5.25L26.375 16L15.625 16 Z M 18.28125 6.1875L13.40625 15.9375L5.78125 15.25 Z M 23.75 6.21875L36.21875 15.25L28.59375 15.9375 Z M 41.5 22C39.027344 22 37 24.027344 37 26.5C37 27.109375 37.121094 27.6875 37.34375 28.21875C36.519531 27.429688 35.378906 27.019531 34.25 27.09375C33.730469 27.128906 33.210938 27.28125 32.71875 27.53125L22.625 32.625L19.15625 29.75C18.597656 29.285156 17.914063 29.027344 17.21875 29C16.523438 28.972656 15.8125 29.171875 15.21875 29.59375L10.40625 33L8 33C6.355469 33 5 34.355469 5 36C5 36.351563 5.074219 36.683594 5.1875 37L3 37C2.96875 37 2.9375 37 2.90625 37C2.390625 37.046875 1.996094 37.480469 2 38L2 42C2 42.550781 2.449219 43 3 43L5 43L5 47C5 47.550781 5.449219 48 6 48L10 48C10.550781 48 11 47.550781 11 47L11 43L39 43L39 47C39 47.550781 39.449219 48 40 48L44 48C44.550781 48 45 47.550781 45 47L45 43L47 43C47.550781 43 48 42.550781 48 42L48 38C48 37.449219 47.550781 37 47 37L44.75 37L43.1875 31.5L46.3125 29.9375C46.835938 29.8125 47.167969 29.300781 47.066406 28.773438C46.964844 28.246094 46.46875 27.890625 45.9375 27.96875C45.875 27.972656 45.8125 27.984375 45.75 28C45.917969 27.53125 46 27.023438 46 26.5C46 24.027344 43.972656 22 41.5 22 Z M 41.5 24C42.890625 24 44 25.109375 44 26.5C44 27.890625 42.890625 29 41.5 29C40.109375 29 39 27.890625 39 26.5C39 25.109375 40.109375 24 41.5 24 Z M 34.40625 29.09375C34.671875 29.074219 34.941406 29.109375 35.1875 29.1875C35.675781 29.347656 36.089844 29.683594 36.34375 30.1875C36.851563 31.191406 36.472656 32.398438 35.46875 32.90625L27.34375 37L8 37C7.433594 37 7 36.566406 7 36C7 35.433594 7.433594 35 8 35L10.375 35C10.566406 35.058594 10.777344 35.058594 10.96875 35L22.15625 35C22.316406 35.007813 22.480469 34.976563 22.625 34.90625L22.75 34.84375L22.78125 34.84375C22.90625 34.804688 23.023438 34.742188 23.125 34.65625L23.15625 34.625C23.175781 34.617188 23.199219 34.605469 23.21875 34.59375L33.625 29.3125C33.875 29.183594 34.140625 29.113281 34.40625 29.09375 Z M 38.25 29.59375C38.769531 30.136719 39.425781 30.546875 40.15625 30.78125L38.5 31.59375C38.582031 30.929688 38.515625 30.246094 38.25 29.59375 Z M 17.125 31C17.390625 31.011719 17.660156 31.101563 17.875 31.28125L19.9375 33L13.875 33L16.375 31.21875C16.601563 31.058594 16.859375 30.988281 17.125 31 Z M 41.34375 32.4375L42.65625 37L32.25 37 Z M 4 39L46 39L46 41L4 41 Z M 7 43L9 43L9 46L7 46 Z M 41 43L43 43L43 46L41 46Z" />
</svg>