<?xml version="1.0" encoding="utf-8"?>
<svg xmlns="http://www.w3.org/2000/svg" viewBox="0 0 50 50" width="515" height="515">
  <path d="M13 3C9.6761905 3 7 5.6761905 7 9L7 42C7 45.32381 9.6761905 48 13 48L43 48L43 46L13 46C10.72381 46 9 44.27619 9 42C9 39.72381 10.72381 38 13 38L43 38L43 3L13 3 z M 13 5L41 5L41 36L13 36C11.445442 36 10.063689 36.624615 9 37.587891L9 9C9 6.7238095 10.72381 5 13 5 z M 23 9L23 15L18 15L18 21L23 21L23 32L29 32L29 21L34 21L34 15L29 15L29 9L23 9 z M 25 11L27 11L27 17L32 17L32 19L27 19L27 30L25 30L25 19L20 19L20 17L25 17L25 16L25 11 z" />
</svg>