<?xml version="1.0" encoding="utf-8"?>
<svg xmlns="http://www.w3.org/2000/svg" viewBox="0 0 50 50" width="515" height="515">
  <path d="M22.71875 0.3125L21.28125 1.6875L24.375 5L13.59375 5C8.855469 5 5 8.855469 5 13.59375L5 17.40625L7 17.40625L7 13.59375C7 9.933594 9.933594 7 13.59375 7L24.375 7L21.28125 10.3125L22.71875 11.6875L27.4375 6.6875L28.0625 6L27.4375 5.3125 Z M 32.59375 5L32.59375 7L36.40625 7C40.066406 7 43 9.933594 43 13.59375L43 24.375L39.6875 21.28125L38.3125 22.71875L43.3125 27.4375L44 28.0625L44.6875 27.4375L49.6875 22.71875L48.3125 21.28125L45 24.375L45 13.59375C45 8.855469 41.144531 5 36.40625 5 Z M 6 21.9375L5.3125 22.5625L0.3125 27.28125L1.6875 28.71875L5 25.625L5 36.40625C5 41.144531 8.855469 45 13.59375 45L17.40625 45L17.40625 43L13.59375 43C9.933594 43 7 40.066406 7 36.40625L7 25.625L10.3125 28.71875L11.6875 27.28125L6.6875 22.5625 Z M 43 32.59375L43 36.40625C43 40.066406 40.066406 43 36.40625 43L25.625 43L28.71875 39.6875L27.28125 38.3125L22.5625 43.3125L21.9375 44L22.5625 44.6875L27.28125 49.6875L28.71875 48.3125L25.625 45L36.40625 45C41.144531 45 45 41.144531 45 36.40625L45 32.59375Z" />
</svg>