<?xml version="1.0" encoding="utf-8"?>
<svg xmlns="http://www.w3.org/2000/svg" viewBox="0 0 50 50" width="515" height="515">
  <path d="M25 2C12.309295 2 2 12.309295 2 25C2 37.690705 12.309295 48 25 48C37.690705 48 48 37.690705 48 25C48 12.309295 37.690705 2 25 2 z M 25 4C36.609824 4 46 13.390176 46 25C46 36.609824 36.609824 46 25 46C13.390176 46 4 36.609824 4 25C4 13.390176 13.390176 4 25 4 z M 19 16C17.35503 16 16 17.35503 16 19L16 31C16 32.64497 17.35503 34 19 34L31 34C32.64497 34 34 32.64497 34 31L34 19C34 17.35503 32.64497 16 31 16L19 16 z M 19 18L31 18C31.56503 18 32 18.43497 32 19L32 31C32 31.56503 31.56503 32 31 32L19 32C18.43497 32 18 31.56503 18 31L18 19C18 18.43497 18.43497 18 19 18 z" />
</svg>