<?xml version="1.0" encoding="utf-8"?>
<svg xmlns="http://www.w3.org/2000/svg" viewBox="0 0 50 50" width="515" height="515">
  <path d="M24.964844 1 A 1.0001 1.0001 0 0 0 24.382812 1.2128906L1.3828125 19.212891 A 1.0002305 1.0002305 0 1 0 2.6171875 20.787109L4 19.705078L4 46 A 1.0001 1.0001 0 0 0 5 47L45 47 A 1.0001 1.0001 0 0 0 46 46L46 19.705078L47.382812 20.787109 A 1.0002308 1.0002308 0 1 0 48.617188 19.212891L25.617188 1.2128906 A 1.0001 1.0001 0 0 0 24.964844 1 z M 25 3.2695312L44 18.138672L44 45L6 45L6 18.138672L25 3.2695312 z M 22.617188 15.005859C22.257869 15.005859 21.92452 15.110596 21.626953 15.341797C21.329386 15.572997 21.068359 15.992057 21.068359 16.462891L21.072266 16.367188L20.84375 18.720703C20.461187 18.902932 20.089595 19.124631 19.730469 19.378906L17.484375 18.371094L17.4375 18.355469C16.782063 18.136195 16.098389 18.360569 15.679688 18.779297L15.587891 18.871094L13.232422 22.923828L13.263672 22.873047C13.044648 23.202181 12.938503 23.67679 13.050781 24.089844C13.16306 24.502898 13.437128 24.800881 13.724609 24.992188L13.740234 25.001953L15.826172 26.28125C15.809542 26.520605 15.753906 26.827565 15.753906 27.001953C15.753906 27.188042 15.796087 27.469876 15.810547 27.705078L14 29.007812C13.670166 29.227303 13.408556 29.626418 13.341797 29.994141C13.275037 30.361863 13.344095 30.658016 13.421875 30.890625L13.455078 30.988281L15.8125 35.042969L15.830078 35.068359C16.021074 35.355375 16.316983 35.629381 16.730469 35.742188C17.143954 35.854993 17.621608 35.747888 17.951172 35.527344L17.804688 35.609375L19.992188 34.628906C20.358432 34.866152 20.735126 35.090718 21.121094 35.296875L21.347656 37.634766L21.34375 37.537109C21.34375 38.007943 21.602824 38.428956 21.900391 38.660156C22.197958 38.891357 22.53326 38.996094 22.892578 38.996094L27.382812 38.996094C27.742131 38.996094 28.077433 38.891357 28.375 38.660156C28.672567 38.428956 28.933594 38.007943 28.933594 37.537109L28.927734 37.634766L29.15625 35.279297C29.539153 35.096891 29.912057 34.877638 30.271484 34.623047L32.517578 35.628906L32.564453 35.644531C33.21989 35.863805 33.90161 35.639431 34.320312 35.220703L34.414062 35.128906L36.738281 31.128906C36.957305 30.799772 37.06345 30.32321 36.951172 29.910156C36.838893 29.497102 36.562872 29.199118 36.275391 29.007812L36.269531 29.003906L34.195312 27.669922C34.207743 27.448381 34.248047 27.176545 34.248047 27C34.248047 26.814678 34.205796 26.531775 34.191406 26.296875L36.001953 24.992188C36.331787 24.772697 36.593397 24.373582 36.660156 24.005859C36.726916 23.638137 36.655955 23.341984 36.578125 23.109375L36.544922 23.013672L34.1875 18.958984L34.171875 18.933594C33.980879 18.646578 33.683017 18.370619 33.269531 18.257812C32.856046 18.145007 32.380345 18.252112 32.050781 18.472656L32.197266 18.390625L30.007812 19.373047C29.641804 19.136003 29.264623 18.911091 28.878906 18.705078L28.654297 16.367188L28.658203 16.462891C28.658203 15.992057 28.397176 15.572997 28.099609 15.341797C27.802042 15.110596 27.46674 15.005859 27.107422 15.005859L22.617188 15.005859 z M 23.021484 17.005859L26.705078 17.005859L26.990234 19.951172L27.486328 20.199219C28.189082 20.550116 28.777568 20.887306 29.367188 21.308594L29.833984 21.642578L32.691406 20.361328L34.556641 23.568359L32.048828 25.373047L32.175781 26.005859C32.247471 26.362733 32.248047 26.634 32.248047 27C32.248047 27.366 32.247472 27.637267 32.175781 27.994141L32.041016 28.662109L32.615234 29.03125L34.820312 30.449219L32.966797 33.640625L30.054688 32.333984L29.572266 32.748047C29.015305 33.225939 28.497007 33.519812 27.857422 33.759766L27.273438 33.980469L26.980469 36.996094L23.294922 36.996094L23.009766 34.048828L22.515625 33.802734C21.812871 33.451837 21.222433 33.112694 20.632812 32.691406L20.166016 32.359375L17.310547 33.638672L15.445312 30.431641L17.953125 28.626953L17.826172 27.994141C17.754432 27.636991 17.753906 27.368953 17.753906 27.001953C17.753906 26.629504 17.750803 26.373919 17.845703 25.994141L18.023438 25.28125L15.185547 23.542969L17.035156 20.361328L19.947266 21.666016L20.427734 21.253906C20.984695 20.776015 21.504946 20.480188 22.144531 20.240234L22.728516 20.021484L23.021484 17.005859 z M 25 22C22.23619 22 20 24.23619 20 27C20 29.76381 22.23619 32 25 32C27.76381 32 30 29.76381 30 27C30 24.23619 27.76381 22 25 22 z M 25 24C26.71619 24 28 25.28381 28 27C28 28.71619 26.71619 30 25 30C23.28381 30 22 28.71619 22 27C22 25.28381 23.28381 24 25 24 z" />
</svg>