<?xml version="1.0" encoding="utf-8"?>
<svg xmlns="http://www.w3.org/2000/svg" viewBox="0 0 50 50" width="515" height="515">
  <path d="M34.8125 3C34.335938 3.089844 33.992188 3.511719 34 4C34 4 34.019531 5.101563 34.3125 6.25C34.460938 6.824219 34.660156 7.425781 35.0625 7.96875C35.070313 7.980469 35.085938 7.988281 35.09375 8L32.4375 8L31.71875 7.28125C31.476563 7.03125 31.121094 6.925781 30.78125 7C30.40625 7.066406 30.105469 7.339844 30 7.703125C29.894531 8.070313 30.003906 8.460938 30.28125 8.71875L31.28125 9.71875C31.472656 9.90625 31.734375 10.007813 32 10L36 10L36 22.21875C35.671875 22.339844 35.371094 22.511719 35.09375 22.71875L30.6875 18.3125C30.675781 18.300781 30.667969 18.292969 30.65625 18.28125C30.65625 18.28125 30.335938 17.984375 29.875 17.6875C29.414063 17.390625 28.820313 17.03125 28 17.03125C27.285156 17.03125 26.652344 17.457031 26.25 17.96875C25.847656 18.480469 25.574219 19.082031 25.34375 19.8125C24.882813 21.277344 24.601563 23.234375 24.40625 25.53125C24.011719 30.128906 24 36.132813 24 42.03125C24 42.03125 24 42.835938 23.625 43.59375C23.25 44.351563 22.6875 45.03125 21 45.03125C19.3125 45.03125 18.75 44.328125 18.375 43.5625C18 42.796875 18 42 18 42L18 15C18 12.207031 15.757813 10 13 10C13.011719 9.710938 12.894531 9.433594 12.6875 9.238281C12.476563 9.039063 12.191406 8.941406 11.90625 8.96875C11.863281 8.976563 11.820313 8.988281 11.78125 9C11.316406 9.105469 10.988281 9.523438 11 10L4 10L4 12L11 12C10.996094 12.359375 11.183594 12.695313 11.496094 12.878906C11.808594 13.058594 12.191406 13.058594 12.503906 12.878906C12.816406 12.695313 13.003906 12.359375 13 12C14.742188 12 16 13.230469 16 15L16 42C16 42 15.980469 43.21875 16.59375 44.46875C17.207031 45.71875 18.648438 47.03125 21 47.03125C23.351563 47.03125 24.792969 45.710938 25.40625 44.46875C26.019531 43.226563 26 42.03125 26 42.03125C26 36.140625 26.023438 30.140625 26.40625 25.6875C26.597656 23.460938 26.875 21.632813 27.25 20.4375C27.4375 19.839844 27.652344 19.390625 27.8125 19.1875C27.972656 18.984375 27.988281 19.03125 28 19.03125C28.078125 19.03125 28.46875 19.171875 28.78125 19.375C29.074219 19.5625 29.253906 19.726563 29.28125 19.75L29.3125 19.78125L33.8125 24.25C33.367188 25.019531 33.085938 25.871094 33.03125 26.71875C33.03125 26.75 33.03125 26.78125 33.03125 26.8125C33.03125 26.835938 33 26.851563 33 26.875C33 26.886719 33 26.894531 33 26.90625C33 26.9375 33 26.96875 33 27C33.003906 27.0625 33.015625 27.125 33.03125 27.1875C33.03125 27.199219 33.03125 27.207031 33.03125 27.21875C33.03125 27.238281 33.03125 27.261719 33.03125 27.28125C33.042969 27.292969 33.050781 27.300781 33.0625 27.3125C33.078125 27.367188 33.101563 27.417969 33.125 27.46875L34 30.125L34 34.40625C33.519531 34.585938 32.71875 34.800781 31.4375 35.65625C29.808594 36.742188 28 38.496094 28 41C28 42.9375 29.238281 44.40625 30.34375 45.375C31.449219 46.34375 32.5625 46.90625 32.5625 46.90625C32.699219 46.96875 32.847656 47.003906 33 47L41 47C41.152344 47.003906 41.300781 46.96875 41.4375 46.90625C41.4375 46.90625 42.546875 46.371094 43.65625 45.40625C44.765625 44.441406 46 42.960938 46 41C46 38.496094 44.191406 36.742188 42.5625 35.65625C41.28125 34.800781 40.480469 34.585938 40 34.40625L40 30.125L40.84375 27.53125C40.855469 27.519531 40.863281 27.511719 40.875 27.5L40.9375 27.3125C40.949219 27.28125 40.960938 27.25 40.96875 27.21875C40.984375 27.15625 40.996094 27.09375 41 27.03125C41 27.019531 41 27.011719 41 27C41 26.058594 40.683594 25.105469 40.1875 24.25L42.40625 22.03125L41 20.625L40.28125 21.3125L38.90625 22.71875C38.628906 22.511719 38.328125 22.339844 38 22.21875L38 10L42 10C42.265625 10.007813 42.527344 9.90625 42.71875 9.71875L43.71875 8.71875C44.117188 8.320313 44.117188 7.679688 43.71875 7.28125C43.320313 6.882813 42.679688 6.882813 42.28125 7.28125L41.5625 8L38.90625 8C38.914063 7.988281 38.929688 7.980469 38.9375 7.96875C39.339844 7.425781 39.539063 6.824219 39.6875 6.25C39.980469 5.101563 40 4 40 4C40 3.449219 39.550781 3 39 3L35 3C34.96875 3 34.9375 3 34.90625 3C34.875 3 34.84375 3 34.8125 3 Z M 36.15625 5L37.84375 5C37.808594 5.308594 37.84375 5.386719 37.75 5.75C37.640625 6.175781 37.496094 6.574219 37.34375 6.78125C37.191406 6.988281 37.144531 7 37 7C36.855469 7 36.808594 6.988281 36.65625 6.78125C36.503906 6.574219 36.359375 6.175781 36.25 5.75C36.15625 5.386719 36.191406 5.308594 36.15625 5 Z M 36.9375 24.03125C36.96875 24.03125 37 24.03125 37.03125 24.03125C37.394531 24.046875 37.894531 24.363281 38.3125 24.96875C38.53125 25.28125 38.535156 25.632813 38.65625 26L35.34375 26C35.464844 25.632813 35.472656 25.28125 35.6875 24.96875C36.09375 24.378906 36.578125 24.058594 36.9375 24.03125 Z M 35.375 28L38.625 28L38.0625 29.6875C38.023438 29.789063 38.003906 29.894531 38 30L38 35C38.003906 35.425781 38.28125 35.804688 38.6875 35.9375C38.6875 35.9375 40.066406 36.429688 41.4375 37.34375C42.808594 38.257813 44 39.496094 44 41C44 42.085938 43.234375 43.101563 42.34375 43.875C41.515625 44.59375 40.804688 44.941406 40.6875 45L33.3125 45C33.195313 44.941406 32.484375 44.601563 31.65625 43.875C30.761719 43.089844 30 42.046875 30 41C30 39.496094 31.191406 38.257813 32.5625 37.34375C33.933594 36.429688 35.3125 35.9375 35.3125 35.9375C35.71875 35.804688 35.996094 35.425781 36 35L36 30C35.996094 29.894531 35.976563 29.789063 35.9375 29.6875Z" />
</svg>