<?xml version="1.0" encoding="utf-8"?>
<svg xmlns="http://www.w3.org/2000/svg" viewBox="0 0 50 50" width="515" height="515">
  <path d="M26 2C23.800781 2 22 3.800781 22 6C22 7.269531 22.628906 8.390625 23.5625 9.125C22.824219 9.457031 22.21875 10.101563 21.96875 10.9375L20.09375 17.1875C19.875 17.917969 19.914063 18.664063 20.15625 19.34375C19.257813 19.152344 18.289063 19 17.125 19C14.960938 19 13.128906 19.648438 11.875 20.875C11.691406 21.054688 11.53125 21.265625 11.375 21.46875C10.847656 21.246094 10.039063 21 9.0625 21C5.769531 21 2 24.25 2 30C2 30.550781 2.449219 31 3 31L6.03125 31C6.582031 31 7.03125 30.550781 7.03125 30C7.03125 30 7.050781 28.957031 7.5625 27.9375C7.980469 27.105469 8.632813 26.34375 10 26.09375C10.050781 27.929688 10.597656 29.109375 11.09375 29.875C11.355469 30.277344 11.566406 30.570313 11.6875 30.78125C11.808594 30.992188 11.84375 31.097656 11.84375 31.3125C11.84375 31.753906 11.542969 32.414063 10.90625 33.28125C10.269531 34.148438 9.363281 35.199219 8.40625 36.5C8.28125 36.671875 8.214844 36.882813 8.21875 37.09375L8.21875 47C8.21875 47.550781 8.667969 48 9.21875 48L12.125 48C12.675781 48 13.125 47.550781 13.125 47L13.125 38.84375C13.542969 38.613281 14.574219 38.097656 16.03125 36.84375C16.53125 36.414063 17.035156 35.945313 17.5 35.40625C17.488281 36.132813 17.386719 37 17.0625 37.96875C16.988281 38.179688 16.988281 38.414063 17.0625 38.625L20.25 47.34375C20.398438 47.75 20.789063 48.011719 21.21875 48L24.125 48C24.453125 48 24.757813 47.839844 24.945313 47.570313C25.128906 47.304688 25.175781 46.960938 25.0625 46.65625L22.0625 37.96875C22.371094 37.417969 23.332031 35.660156 23.46875 33.0625C25.246094 33.457031 27.496094 33.808594 30.21875 33.90625C29.769531 38.21875 29 43.875 29 43.875C28.980469 44.09375 29.035156 44.316406 29.15625 44.5C29.15625 44.5 29.371094 44.886719 29.59375 45.40625C29.816406 45.925781 30 46.582031 30 47C30 47.550781 30.449219 48 31 48L34 48C34.550781 48 35 47.550781 35 47C35 45.449219 34.289063 44.230469 34.03125 43.8125C34.039063 43.785156 34.109375 43.355469 34.125 43.28125L35.9375 44.625C36.152344 44.785156 36.421875 44.851563 36.6875 44.808594C36.949219 44.769531 37.1875 44.625 37.34375 44.40625L39.8125 40.96875C40.019531 40.691406 40.066406 40.324219 39.9375 40C39.9375 40 38.1875 35.53125 37.90625 30.34375C38.414063 29.488281 38.8125 28.375 38.8125 26.96875C38.8125 25.375 38.648438 23.367188 38.71875 21.625C38.777344 20.238281 39.035156 19.140625 39.40625 18.5625C39.550781 18.605469 39.703125 18.628906 39.84375 18.65625C41.015625 18.882813 41.957031 18.75 42.65625 18.53125C43.609375 18.820313 45.34375 19.28125 45.34375 19.28125C45.695313 19.371094 46.0625 19.261719 46.3125 19C47.464844 17.808594 47.5 15.902344 46.375 14.6875L44.40625 12.5625C44.195313 12.070313 43.0625 9.996094 40.34375 9.3125C40.367188 9.226563 40.386719 9.246094 40.40625 9.15625C40.585938 8.371094 40.59375 7.15625 39.71875 6.28125C39.476563 6.03125 39.121094 5.925781 38.78125 6C38.515625 6.046875 38.277344 6.199219 38.121094 6.421875C37.96875 6.644531 37.914063 6.921875 37.96875 7.1875C34.324219 8.117188 32.101563 10.660156 30.8125 13.125L27.5 12.15625C27.601563 11.320313 27.371094 10.488281 26.875 9.875C28.660156 9.472656 30 7.898438 30 6C30 3.800781 28.199219 2 26 2 Z M 26 4C27.117188 4 28 4.882813 28 6C28 7.117188 27.117188 8 26 8C24.882813 8 24 7.117188 24 6C24 4.882813 24.882813 4 26 4 Z M 38.25 9.25C38.183594 9.398438 38.125 9.5 38.125 9.5C37.945313 9.8125 37.945313 10.195313 38.128906 10.503906C38.308594 10.8125 38.640625 11.003906 39 11C41.882813 11 42.71875 13.59375 42.71875 13.59375C42.765625 13.722656 42.839844 13.839844 42.9375 13.9375L44.90625 16.03125C45.191406 16.339844 45.171875 16.753906 45.0625 17.125C44.375 16.941406 43.398438 16.671875 42.96875 16.53125C42.753906 16.46875 42.523438 16.476563 42.3125 16.5625C42.121094 16.640625 41.09375 16.855469 40.21875 16.6875C40.019531 16.648438 39.84375 16.566406 39.65625 16.5C39.570313 16.445313 39.476563 16.402344 39.375 16.375C38.859375 16.117188 38.398438 15.710938 38.09375 14.875C37.984375 14.519531 37.691406 14.253906 37.328125 14.183594C36.960938 14.113281 36.589844 14.25 36.359375 14.539063C36.125 14.828125 36.070313 15.222656 36.21875 15.5625C36.53125 16.421875 37.023438 17.074219 37.59375 17.5625C36.898438 18.660156 36.777344 20.128906 36.71875 21.5625C36.640625 23.496094 36.8125 25.535156 36.8125 26.96875C36.8125 29.621094 34.46875 31.15625 34.46875 31.15625C34.203125 31.320313 34.03125 31.597656 34 31.90625C33.453125 37.027344 32.03125 43.78125 32.03125 43.78125C31.972656 44.039063 32.015625 44.308594 32.15625 44.53125C32.15625 44.53125 32.410156 45.355469 32.65625 46L31.75 46C31.636719 45.515625 31.566406 44.972656 31.40625 44.59375C31.222656 44.167969 31.136719 44.066406 31.03125 43.875C31.070313 43.589844 31.929688 37.523438 32.34375 33.09375C32.371094 32.8125 32.277344 32.535156 32.085938 32.324219C31.894531 32.117188 31.625 32 31.34375 32C24.277344 32 19.0625 29.625 19.0625 29.625C18.75 29.472656 18.382813 29.492188 18.089844 29.679688C17.800781 29.863281 17.621094 30.183594 17.625 30.53125C17.625 32.238281 16.246094 33.996094 14.71875 35.3125C13.191406 36.628906 11.65625 37.4375 11.65625 37.4375C11.332031 37.609375 11.128906 37.945313 11.125 38.3125L11.125 46L10.21875 46L10.21875 37.40625C11.039063 36.324219 11.875 35.363281 12.53125 34.46875C13.25 33.488281 13.84375 32.488281 13.84375 31.3125C13.84375 30.71875 13.664063 30.179688 13.4375 29.78125C13.210938 29.382813 12.949219 29.09375 12.75 28.78125C12.347656 28.160156 12 27.480469 12 25.8125C12 24.273438 12.460938 23.117188 13.28125 22.3125C14.101563 21.507813 15.355469 21 17.125 21C19.265625 21 20.785156 21.644531 22.96875 21.9375L24.3125 22.75L22.875 26C22.371094 27.144531 22.878906 28.480469 24 29.03125C25.183594 29.613281 26.648438 29.078125 27.1875 27.875L29 23.625C29.339844 22.835938 29.339844 21.988281 29.09375 21.21875C29.480469 21.070313 29.832031 20.949219 30.0625 20.8125C30.445313 20.585938 30.71875 20.3125 30.71875 20.3125C30.867188 20.148438 30.953125 19.9375 30.96875 19.71875C30.96875 19.71875 31.113281 17.300781 32.25 14.75C33.277344 12.441406 35.027344 10.144531 38.25 9.25 Z M 24.625 10.875C24.742188 10.863281 24.875 10.871094 25 10.90625C25.488281 11.050781 25.761719 11.539063 25.625 12.03125L25.46875 12.59375C25.328125 13.121094 25.632813 13.660156 26.15625 13.8125L30 14.96875C29.929688 15.160156 29.839844 15.347656 29.78125 15.53125L25.9375 14.40625C25.675781 14.332031 25.394531 14.363281 25.160156 14.5C24.921875 14.636719 24.753906 14.859375 24.6875 15.125L23.90625 18.21875C23.800781 18.617188 23.949219 19.039063 24.28125 19.28125L26.71875 21.09375C27.265625 21.503906 27.460938 22.214844 27.1875 22.84375L25.34375 27.0625C25.257813 27.257813 25.066406 27.34375 24.875 27.25C24.699219 27.164063 24.640625 26.960938 24.71875 26.78125L26.5 22.75C26.714844 22.28125 26.539063 21.726563 26.09375 21.46875L24.0625 20.28125C24.023438 20.246094 23.980469 20.214844 23.9375 20.1875L23.90625 20.15625C23.847656 20.117188 23.785156 20.085938 23.71875 20.0625L22.625 19.40625C22.058594 19.066406 21.808594 18.414063 22 17.78125L23.875 11.53125C23.984375 11.164063 24.273438 10.914063 24.625 10.875 Z M 26.375 16.59375L29.28125 17.4375C29.125 18.210938 29.054688 18.808594 29.03125 19.09375C28.84375 19.203125 28.484375 19.363281 27.96875 19.53125C27.949219 19.515625 27.925781 19.511719 27.90625 19.5L26 18.0625 Z M 9.0625 23C9.578125 23 10.058594 23.125 10.40625 23.25C10.316406 23.511719 10.246094 23.785156 10.1875 24.0625C7.882813 24.335938 6.449219 25.730469 5.78125 27.0625C5.421875 27.78125 5.253906 28.457031 5.15625 29L4.15625 29C4.589844 24.90625 7.300781 23 9.0625 23 Z M 19.40625 31.84375C19.835938 32.019531 20.546875 32.289063 21.46875 32.5625C21.40625 35.300781 20.125 37.4375 20.125 37.4375C19.96875 37.691406 19.9375 38 20.03125 38.28125L22.71875 46L21.90625 46L19.03125 38.1875C19.820313 35.429688 19.292969 33.296875 19.125 32.71875C19.234375 32.429688 19.335938 32.148438 19.40625 31.84375 Z M 36.03125 32.375C36.496094 36.476563 37.628906 39.535156 37.875 40.1875L36.3125 42.40625L35.46875 41.75L36.375 40.3125C36.539063 40.0625 36.585938 39.753906 36.5 39.46875C36.5 39.46875 35.636719 36.789063 35.59375 35.4375C35.589844 35.375 35.578125 35.3125 35.5625 35.25C35.699219 34.320313 35.832031 33.378906 35.9375 32.46875C35.960938 32.453125 36.003906 32.394531 36.03125 32.375Z" />
</svg>