<?xml version="1.0" encoding="utf-8"?>
<svg xmlns="http://www.w3.org/2000/svg" viewBox="0 0 50 50" width="515" height="515">
  <path d="M38.125 2.9375C37.394531 2.957031 36.714844 3.0625 36.0625 3.21875C33.453125 3.851563 31.53125 5.480469 30.15625 7.3125C27.722656 10.558594 27.003906 14.046875 26.84375 14.90625C26.4375 15.078125 25.382813 15.46875 23.09375 15.46875C21.722656 15.46875 20.71875 15.214844 19.46875 14.9375C18.21875 14.660156 16.734375 14.34375 14.6875 14.34375C12.667969 14.34375 10.9375 14.914063 9.6875 16C8.789063 16.074219 6.863281 16.390625 4.96875 17.78125C2.390625 19.671875 -0.03125 23.535156 -0.03125 30.8125C-0.0273438 31.246094 0.246094 31.632813 0.65625 31.78125L5.9375 33.6875C6.277344 33.816406 6.660156 33.761719 6.949219 33.535156C7.234375 33.3125 7.386719 32.957031 7.34375 32.59375C7.34375 32.59375 6.984375 29.664063 7.09375 26.71875C7.136719 25.558594 7.257813 24.386719 7.46875 23.4375C7.6875 24.570313 8.140625 25.847656 8.5625 27.0625C9.101563 28.617188 9.542969 29.730469 9.625 29.9375L9.15625 34.375C9.144531 34.5 9.15625 34.628906 9.1875 34.75L11.6875 45.15625C11.6875 45.167969 11.6875 45.175781 11.6875 45.1875C11.984375 46.226563 12.996094 47.03125 14.09375 47.03125L16.40625 47.03125C16.714844 47.023438 17.003906 46.882813 17.199219 46.640625C17.390625 46.398438 17.46875 46.085938 17.40625 45.78125L15.125 35.4375C15.230469 35.320313 15.398438 35.105469 15.59375 34.84375C15.542969 35.027344 15.542969 35.222656 15.59375 35.40625L17.90625 42.6875C17.910156 42.703125 17.933594 42.703125 17.9375 42.71875C18.371094 44.09375 19.589844 45.09375 21.03125 45.125C21.054688 45.125 21.070313 45.15625 21.09375 45.15625L21.09375 45.125L22.75 45.25C23.101563 45.269531 23.4375 45.109375 23.644531 44.824219C23.855469 44.542969 23.90625 44.171875 23.78125 43.84375L20.875 35.75L23.84375 31.5C25.78125 31.605469 28.160156 31.46875 30.9375 30.9375L32.84375 44.40625C32.84375 44.417969 32.84375 44.425781 32.84375 44.4375L32.875 44.5625L32.90625 44.5625C32.992188 45.8125 33.96875 46.9375 35.3125 46.9375L37 46.9375C37.277344 46.933594 37.542969 46.820313 37.738281 46.621094C37.929688 46.421875 38.035156 46.152344 38.03125 45.875C38.03125 45.875 37.90625 41.867188 37.71875 37.625C37.625 35.503906 37.503906 33.304688 37.40625 31.53125C37.375 30.976563 37.339844 30.800781 37.3125 30.375L41.3125 31.71875L40.46875 36.6875C40.464844 36.699219 40.472656 36.707031 40.46875 36.71875C40.179688 38.097656 40.933594 39.519531 42.3125 40.03125L42.3125 40.0625L42.375 40.09375L43.5 40.5625C43.78125 40.675781 44.097656 40.664063 44.367188 40.527344C44.636719 40.386719 44.835938 40.136719 44.90625 39.84375L46.90625 31.4375C47.3125 29.816406 46.640625 28.027344 45.0625 27.28125L45.03125 27.25L38.875 24.15625C39.160156 22.789063 39.234375 21.402344 39.28125 20.125C39.332031 18.746094 39.324219 17.5 39.4375 16.5625C39.453125 16.449219 39.480469 16.476563 39.5 16.375C39.851563 16.710938 40.210938 17.046875 40.625 17.25C41.675781 17.765625 42.851563 17.917969 43.90625 17.71875C44.402344 17.625 45.140625 17.761719 45.75 17.96875C46.359375 18.175781 46.8125 18.40625 46.8125 18.40625C47.210938 18.625 47.703125 18.5625 48.03125 18.25L49.125 17.125C50.066406 16.183594 50.09375 14.820313 49.3125 13.84375C49.300781 13.832031 49.292969 13.824219 49.28125 13.8125L44.5625 8.375L46 6.5625C46.203125 6.320313 46.285156 6 46.226563 5.691406C46.164063 5.382813 45.96875 5.117188 45.6875 4.96875C43.785156 3.976563 42.039063 3.398438 40.4375 3.125C39.636719 2.988281 38.855469 2.917969 38.125 2.9375 Z M 38.21875 5.03125C38.804688 5.007813 39.417969 5.039063 40.09375 5.15625C41.082031 5.324219 42.277344 5.859375 43.46875 6.375L42.375 7.75C42.054688 8.144531 42.070313 8.714844 42.40625 9.09375L47.6875 15.15625C47.707031 15.179688 47.714844 15.597656 47.65625 15.65625L47.0625 16.25C46.828125 16.144531 46.792969 16.121094 46.4375 16C45.648438 15.730469 44.605469 15.480469 43.5 15.6875C42.953125 15.789063 42.1875 15.683594 41.5625 15.375C40.9375 15.066406 40.480469 14.605469 40.3125 13.9375C40.226563 13.59375 39.972656 13.320313 39.636719 13.207031C39.304688 13.09375 38.933594 13.15625 38.65625 13.375C37.726563 14.082031 37.511719 15.183594 37.375 16.3125C37.238281 17.441406 37.238281 18.726563 37.1875 20.0625C37.089844 22.734375 36.761719 25.527344 35.28125 27.34375C35.097656 27.570313 35.019531 27.867188 35.0625 28.15625C35.109375 28.460938 35.214844 29.894531 35.3125 31.65625C35.410156 33.417969 35.53125 35.601563 35.625 37.71875C35.789063 41.390625 35.90625 43.980469 35.9375 44.84375L35.3125 44.84375C35.121094 44.84375 34.9375 44.683594 34.9375 44.40625C34.941406 44.355469 34.941406 44.300781 34.9375 44.25L32.84375 29.65625C32.804688 29.363281 32.644531 29.101563 32.398438 28.933594C32.152344 28.765625 31.851563 28.710938 31.5625 28.78125C26.902344 29.847656 23.585938 29.613281 21.46875 29.125C19.351563 28.636719 18.53125 27.96875 18.53125 27.96875C18.273438 27.773438 17.9375 27.710938 17.625 27.792969C17.3125 27.878906 17.058594 28.105469 16.9375 28.40625C15.410156 32.21875 13.25 34.46875 13.25 34.46875C12.996094 34.722656 12.890625 35.085938 12.96875 35.4375L15.09375 44.96875L14.09375 44.96875C13.816406 44.96875 13.800781 44.933594 13.71875 44.65625L11.28125 34.46875L11.75 29.90625C11.761719 29.734375 11.726563 29.5625 11.65625 29.40625C11.65625 29.40625 11.097656 28.007813 10.53125 26.375C9.964844 24.742188 9.4375 22.71875 9.4375 22.1875C9.4375 21.566406 9.503906 21.011719 9.59375 20.5C9.640625 20.371094 9.664063 20.230469 9.65625 20.09375C9.859375 19.226563 10.207031 18.539063 10.65625 18C10.964844 17.894531 11.207031 17.652344 11.3125 17.34375C12.105469 16.753906 13.1875 16.4375 14.6875 16.4375C16.539063 16.4375 17.777344 16.695313 19 16.96875C20.222656 17.242188 21.464844 17.53125 23.09375 17.53125C26.277344 17.53125 28.15625 16.625 28.15625 16.625C28.453125 16.476563 28.660156 16.199219 28.71875 15.875C28.71875 15.875 29.460938 11.695313 31.8125 8.5625C32.988281 6.996094 34.523438 5.742188 36.5625 5.25C37.070313 5.125 37.632813 5.054688 38.21875 5.03125 Z M 7.96875 18.5C7.851563 18.796875 7.769531 19.113281 7.6875 19.4375C7.273438 19.644531 6.902344 19.914063 6.625 20.25C6.1875 20.777344 5.910156 21.410156 5.6875 22.09375C5.246094 23.457031 5.089844 25.046875 5.03125 26.625C4.945313 28.949219 5.089844 30.160156 5.1875 31.1875L2.09375 30.09375C2.257813 23.832031 4.277344 20.859375 6.21875 19.4375C6.832031 18.988281 7.425781 18.707031 7.96875 18.5 Z M 38.25 26.1875L44.125 29.125C44.136719 29.136719 44.144531 29.144531 44.15625 29.15625C44.746094 29.425781 45.066406 30.171875 44.875 30.9375C44.875 30.949219 44.875 30.957031 44.875 30.96875L43.15625 38.15625L43.09375 38.125C43.074219 38.125 43.050781 38.125 43.03125 38.125C42.679688 38.007813 42.445313 37.507813 42.53125 37.125C42.53125 37.105469 42.53125 37.082031 42.53125 37.0625L43.53125 31.1875C43.632813 30.675781 43.339844 30.167969 42.84375 30L37.25 28.09375C37.664063 27.492188 37.992188 26.847656 38.25 26.1875 Z M 18.65625 30.34375C19.261719 30.605469 20.019531 30.890625 21.03125 31.125C21.179688 31.160156 21.339844 31.1875 21.5 31.21875L18.84375 35C18.644531 35.28125 18.597656 35.644531 18.71875 35.96875L21.28125 43.0625L21.15625 43.0625C21.136719 43.0625 21.113281 43.0625 21.09375 43.0625C20.578125 43.0625 20.078125 42.671875 19.90625 42.09375L17.6875 35.09375C17.875 34.585938 18.65625 32.488281 18.65625 30.40625C18.65625 30.386719 18.65625 30.363281 18.65625 30.34375Z" />
</svg>