<?xml version="1.0" encoding="utf-8"?>
<svg xmlns="http://www.w3.org/2000/svg" viewBox="0 0 50 50" width="515" height="515">
  <path d="M25 2C24.859375 2 24.726563 2.011719 24.59375 2.03125C15.402344 2.25 8 9.761719 8 19C8 24.894531 11.476563 29.164063 14.78125 32.46875C16.433594 34.121094 18.058594 35.566406 19.21875 36.84375C20.378906 38.121094 21 39.183594 21 40C21 40.550781 21.449219 41 22 41L23.625 41C23.867188 41.097656 24.132813 41.097656 24.375 41L25.625 41C25.875 41.105469 26.15625 41.105469 26.40625 41L28 41C28.550781 41 29 40.550781 29 40C29 39.183594 29.621094 38.121094 30.78125 36.84375C31.941406 35.566406 33.566406 34.121094 35.21875 32.46875C38.523438 29.164063 42 24.894531 42 19C42 9.761719 34.597656 2.25 25.40625 2.03125C25.273438 2.011719 25.136719 2 25 2 Z M 25 4C25.066406 4 25.136719 4.003906 25.21875 4.03125C25.46875 4.109375 25.789063 4.328125 26.15625 4.8125C26.648438 5.460938 27.132813 6.515625 27.5625 7.875C28.421875 10.59375 29 14.527344 29 19C29 24.398438 28.050781 27.984375 27.0625 31.0625C26.179688 33.816406 25.253906 36.210938 25.0625 39L24.9375 39C24.75 36.152344 23.824219 33.753906 22.9375 31C21.949219 27.929688 21 24.378906 21 19C21 14.667969 21.574219 10.757813 22.4375 8C22.867188 6.621094 23.378906 5.515625 23.875 4.84375C24.246094 4.339844 24.546875 4.113281 24.78125 4.03125C24.859375 4.003906 24.9375 4 25 4 Z M 28.8125 5.4375C29.777344 6.128906 30.714844 7.046875 31.5625 8.1875C33.558594 10.871094 35 14.664063 35 19C35 24.25 32.90625 27.4375 30.6875 30.375C29.910156 31.402344 29.097656 32.398438 28.375 33.4375C28.558594 32.875 28.742188 32.300781 28.9375 31.6875C29.949219 28.535156 31 24.640625 31 19C31 14.359375 30.453125 10.285156 29.5 7.28125C29.285156 6.605469 29.070313 6 28.8125 5.4375 Z M 21.21875 5.46875C20.957031 6.050781 20.71875 6.675781 20.5 7.375C19.550781 10.410156 19 14.496094 19 19C19 24.621094 20.050781 28.484375 21.0625 31.625C21.265625 32.253906 21.4375 32.828125 21.625 33.40625C20.898438 32.359375 20.09375 31.34375 19.3125 30.3125C17.09375 27.382813 15 24.226563 15 19C15 14.808594 16.4375 11.003906 18.4375 8.28125C19.289063 7.121094 20.25 6.175781 21.21875 5.46875 Z M 17.84375 5.8125C17.484375 6.214844 17.144531 6.640625 16.8125 7.09375C14.558594 10.164063 13 14.355469 13 19C13 24.773438 15.40625 28.492188 17.6875 31.5C18.664063 32.789063 19.597656 33.941406 20.34375 35.09375C19.128906 33.808594 17.667969 32.480469 16.21875 31.03125C13.023438 27.835938 10 24.105469 10 19C10 13.296875 13.167969 8.351563 17.84375 5.8125 Z M 32.28125 5.90625C36.882813 8.464844 40 13.351563 40 19C40 24.105469 36.976563 27.835938 33.78125 31.03125C32.375 32.4375 30.972656 33.746094 29.78125 35C30.507813 33.90625 31.378906 32.796875 32.3125 31.5625C34.59375 28.539063 37 24.792969 37 19C37 14.222656 35.414063 10.039063 33.15625 7C32.875 6.621094 32.582031 6.25 32.28125 5.90625 Z M 21.8125 42C21.335938 42.089844 20.992188 42.511719 21 43L21 46C21 47.09375 21.90625 48 23 48L27 48C28.09375 48 29 47.09375 29 46L29 43C29 42.449219 28.550781 42 28 42L22 42C21.96875 42 21.9375 42 21.90625 42C21.875 42 21.84375 42 21.8125 42 Z M 23 44L27 44L27 46L23 46Z" />
</svg>