<?xml version="1.0" encoding="utf-8"?>
<svg xmlns="http://www.w3.org/2000/svg" viewBox="0 0 50 50" width="515" height="515">
  <path d="M17 2L15.90625 4.3125L13.40625 4.59375L15.3125 6.3125L14.8125 8.90625L17 7.59375L19.1875 8.90625L18.6875 6.3125L20.59375 4.59375L18.09375 4.3125 Z M 25 2L23.90625 4.3125L21.40625 4.59375L23.3125 6.3125L22.8125 8.90625L25 7.59375L27.1875 8.90625L26.6875 6.3125L28.59375 4.59375L26.09375 4.3125 Z M 33 2L31.90625 4.3125L29.40625 4.59375L31.3125 6.3125L30.8125 8.90625L33 7.59375L35.1875 8.90625L34.6875 6.3125L36.59375 4.59375L34.09375 4.3125 Z M 11.3125 9C8.414063 9 6 11.414063 6 14.3125L6 23L8 23L8 14.3125C8 12.511719 9.386719 11 11.1875 11L38.6875 11C40.488281 11 42 12.386719 42 14.1875L42 46L29 46L29 36C29 35.449219 28.550781 35 28 35L22 35C21.96875 35 21.9375 35 21.90625 35C21.875 35 21.84375 35 21.8125 35C21.335938 35.089844 20.992188 35.511719 21 36L21 46L8 46L8 35L6 35L6 47C6 47.601563 6.398438 48 7 48L43 48C43.601563 48 44 47.601563 44 47L44 14.3125C44 11.414063 41.585938 9 38.6875 9 Z M 12 15C11.398438 15 11 15.398438 11 16L11 18L12.40625 18L13 18.59375L13 17L17 17L17 21L15.40625 21L17.40625 23L18 23C18.601563 23 19 22.601563 19 22L19 16C19 15.398438 18.601563 15 18 15 Z M 21.8125 15C21.335938 15.089844 20.992188 15.511719 21 16L21 22C21 22.550781 21.449219 23 22 23L28 23C28.550781 23 29 22.550781 29 22L29 16C29 15.449219 28.550781 15 28 15L22 15C21.96875 15 21.9375 15 21.90625 15C21.875 15 21.84375 15 21.8125 15 Z M 31.8125 15C31.335938 15.089844 30.992188 15.511719 31 16L31 22C31 22.550781 31.449219 23 32 23L38 23C38.550781 23 39 22.550781 39 22L39 16C39 15.449219 38.550781 15 38 15L32 15C31.96875 15 31.9375 15 31.90625 15C31.875 15 31.84375 15 31.8125 15 Z M 23 17L27 17L27 21L23 21 Z M 33 17L37 17L37 21L33 21 Z M 10 20L10 25L3 25L3 33L10 33L10 38L11.625 38L11.90625 37.6875L19.71875 29.6875L20.40625 29L19.71875 28.3125L11.90625 20.3125L11.625 20 Z M 12 23.25L17.625 29L12 34.75L12 31L5 31L5 27L12 27 Z M 21.8125 25C21.335938 25.089844 20.992188 25.511719 21 26L21 32C21 32.550781 21.449219 33 22 33L28 33C28.550781 33 29 32.550781 29 32L29 26C29 25.449219 28.550781 25 28 25L22 25C21.96875 25 21.9375 25 21.90625 25C21.875 25 21.84375 25 21.8125 25 Z M 31.8125 25C31.335938 25.089844 30.992188 25.511719 31 26L31 32C31 32.550781 31.449219 33 32 33L38 33C38.550781 33 39 32.550781 39 32L39 26C39 25.449219 38.550781 25 38 25L32 25C31.96875 25 31.9375 25 31.90625 25C31.875 25 31.84375 25 31.8125 25 Z M 23 27L27 27L27 31L23 31 Z M 33 27L37 27L37 31L33 31 Z M 17.3125 35L15.3125 37L17 37L17 41L13 41L13 39.40625L12.40625 40L11 40L11 42C11 42.601563 11.398438 43 12 43L18 43C18.601563 43 19 42.601563 19 42L19 36C19 35.398438 18.601563 35 18 35 Z M 31.8125 35C31.335938 35.089844 30.992188 35.511719 31 36L31 42C31 42.550781 31.449219 43 32 43L38 43C38.550781 43 39 42.550781 39 42L39 36C39 35.449219 38.550781 35 38 35L32 35C31.96875 35 31.9375 35 31.90625 35C31.875 35 31.84375 35 31.8125 35 Z M 23 37L27 37L27 46L23 46 Z M 33 37L37 37L37 41L33 41Z" />
</svg>