<?xml version="1.0" encoding="utf-8"?>
<svg xmlns="http://www.w3.org/2000/svg" viewBox="0 0 50 50" width="515" height="515">
  <path d="M25 0C20.054688 0 16 4.054688 16 9C16 13.945313 20.054688 18 25 18C29.945313 18 34 13.945313 34 9C34 4.054688 29.945313 0 25 0 Z M 25 2C28.855469 2 32 5.144531 32 9C32 12.855469 28.855469 16 25 16C21.144531 16 18 12.855469 18 9C18 5.144531 21.144531 2 25 2 Z M 25 4.8125C24.335938 4.8125 23.8125 5.335938 23.8125 6C23.8125 6.664063 24.335938 7.1875 25 7.1875C25.664063 7.1875 26.1875 6.664063 26.1875 6C26.1875 5.335938 25.664063 4.8125 25 4.8125 Z M 24 8.3125L24 13L26 13L26 8.3125 Z M 3.5 22C1.578125 22 0 23.578125 0 25.5L0 50L7 50L7 46L43 46L43 50L50 50L50 34.5C50 32.578125 48.421875 31 46.5 31C45.953125 31 45.460938 31.148438 45 31.375L45 31C45 29.355469 43.644531 28 42 28L22 28C20.355469 28 19 29.355469 19 31L19 39L7 39L7 25.5C7 23.578125 5.421875 22 3.5 22 Z M 3.5 24C4.375 24 5 24.625 5 25.5L5 41L45 41L45 34.5C45 33.625 45.625 33 46.5 33C47.375 33 48 33.625 48 34.5L48 48L45 48L45 44L5 44L5 48L2 48L2 25.5C2 24.625 2.625 24 3.5 24 Z M 13 28C10.25 28 8 30.25 8 33C8 35.75 10.25 38 13 38C15.75 38 18 35.75 18 33C18 30.25 15.75 28 13 28 Z M 13 30C14.667969 30 16 31.332031 16 33C16 34.667969 14.667969 36 13 36C11.332031 36 10 34.667969 10 33C10 31.332031 11.332031 30 13 30 Z M 22 30L42 30C42.554688 30 43 30.445313 43 31L43 39L21 39L21 31C21 30.445313 21.445313 30 22 30Z" />
</svg>