<?xml version="1.0" encoding="utf-8"?>
<svg xmlns="http://www.w3.org/2000/svg" viewBox="0 0 50 50" width="515" height="515">
  <path d="M6.4707031 5 A 1.0001 1.0001 0 0 0 6.3320312 5.0097656C4.716503 5.0343892 3.2243785 5.4724718 2 6.2207031L2 8.7109375C3.06 7.6709375 4.6707031 7 6.4707031 7C8.85295 7 10.836252 8.194387 11.71875 9.765625 A 1.0001 1.0001 0 0 0 12.537109 10.275391C13.626818 10.333991 14.523851 10.674166 15.109375 11.154297C15.694899 11.634428 16 12.213297 16 13C16 13.249524 16.027846 13.450378 16.041016 13.640625C16.054186 13.830872 16.022441 14.033957 16.056641 13.894531 A 1.0001 1.0001 0 0 0 16.390625 14.904297C16.801931 15.242788 17.27865 15.979297 17.59375 16.806641C17.90885 17.633984 18.07598 18.554021 18.0625 19.166016 A 1.0002522 1.0002522 0 0 0 18.105469 19.480469L10.34375 26.246094 A 1.0001 1.0001 0 1 0 11.65625 27.753906L13 26.582031L13 34.791016C12.547424 34.694909 12.064936 34.508298 11.554688 34.167969C11.061761 33.83945 10.568206 33.652025 10.117188 33.574219C9.8916764 33.535316 9.6772938 33.523676 9.4785156 33.535156C9.2797375 33.546637 9.0965648 33.581238 8.9355469 33.634766C8.2914751 33.848877 8.1303333 34 8 34L5 34 A 1.0001 1.0001 0 0 0 4.3789062 34.207031C3.1732747 34.925117 2.5337753 35.041147 2.3300781 35.060547C2.2200781 35.020547 2.11 34.999766 2 35.009766L2 37.039062C2.52 37.109063 3.1904687 36.980391 3.9804688 36.650391C3.8204687 42.600391 2.8008594 43.900312 2.6308594 44.070312C2.2508594 44.220312 2 44.59 2 45C2 45.05 1.9997656 45.100391 2.0097656 45.150391C2.0797656 45.640391 2.51 46 3 46C3.05 46 3.1003906 46.000234 3.1503906 45.990234C4.1676969 45.836679 5.8401483 44.245615 5.9746094 36L7.0253906 36C7.0905073 40.35508 7.5304766 42.766621 8.0722656 44.121094C8.3649542 44.852815 8.6914578 45.315147 9.046875 45.611328C9.2245836 45.759419 9.4098035 45.86176 9.578125 45.921875C9.7464465 45.98199 10 46 10 46 A 1.0001 1.0001 0 0 0 10.310547 44.046875C10.279577 44.019005 10.126238 43.875166 9.9277344 43.378906C9.5384778 42.405765 9.0939826 40.036964 9.0371094 35.691406C9.1754844 35.620976 9.502213 35.554543 9.5664062 35.533203C9.7563347 35.470063 9.7671654 35.380068 10.445312 35.832031C11.286562 36.393133 12.158201 36.701462 13 36.814453L13 45 A 1.0001 1.0001 0 0 0 14 46L22.832031 46 A 1.0001 1.0001 0 0 0 23.158203 46L30.832031 46 A 1.0001 1.0001 0 0 0 31.158203 46L38.5 46L40 46L44 46C46.197334 46 48 44.197334 48 42C48 41.323537 47.785374 40.714451 47.486328 40.154297C48.339837 39.517086 49 38.642023 49 37.5C49 35.578812 47.421188 34 45.5 34C45.40879 34 45.343689 34.027606 45.257812 34.035156C44.558287 32.882847 43.442338 32 42 32C41.64598 32 41.312886 32.055128 41 32.152344L41 26.582031L42.34375 27.753906 A 1.0001 1.0001 0 1 0 43.65625 26.246094L38 21.316406L38 14L32 14L32 16.085938L27.65625 12.298828 A 1.0001 1.0001 0 0 0 27.017578 12.052734 A 1.0001 1.0001 0 0 0 26.34375 12.298828L19.947266 17.873047C19.846464 17.284556 19.686649 16.683217 19.462891 16.095703C19.143423 15.256889 18.607773 14.544959 18.017578 13.900391C18.014578 13.778289 18.042756 13.611755 18.035156 13.501953C18.018565 13.262452 18 13.030476 18 13C18 11.631703 17.365633 10.416541 16.378906 9.6074219C15.51281 8.8972199 14.3751 8.5195758 13.142578 8.3730469C11.775805 6.3372216 9.3123856 5 6.4707031 5 z M 27 14.378906L32.242188 18.947266 A 1.0001 1.0001 0 0 0 32.460938 19.138672L36.3125 22.496094 A 1.0001 1.0001 0 0 0 36.386719 22.560547L39.009766 24.847656 A 1.0001 1.0001 0 0 0 39 25L39 33.669922C38.892046 33.820192 38.789415 33.974932 38.697266 34.136719C38.462762 34.092341 38.249071 34 38 34C35.802666 34 34 35.802666 34 38C34 39.187547 34.62699 40.140934 35.455078 40.873047C35.189478 41.36665 35 41.904614 35 42.5C35 43.03801 35.134994 43.542844 35.355469 44L32 44L32 31L22 31L22 44L15 44L15 25 A 1.0001 1.0001 0 0 0 14.988281 24.849609L27 14.378906 z M 34 16L36 16L36 19.572266L34 17.828125L34 16 z M 24 33L30 33L30 44L24 44L24 33 z M 42 34C42.899701 34 43.635643 34.587487 43.892578 35.398438 A 1.0001 1.0001 0 0 0 45.107422 36.0625C45.264265 36.019928 45.388959 36 45.5 36C46.340812 36 47 36.659188 47 37.5C47 38.2018 46.527572 38.766993 45.884766 38.939453 A 1.0001 1.0001 0 0 0 45.427734 40.603516C45.783248 40.967783 46 41.451974 46 42C46 43.116666 45.116666 44 44 44L40 44L38.5 44C37.659188 44 37 43.340812 37 42.5C37 42.076117 37.170335 41.707044 37.449219 41.433594 A 1.0001 1.0001 0 0 0 37.167969 39.810547C36.478904 39.492774 36 38.812529 36 38C36 36.883334 36.883334 36 38 36C38.258291 36 38.505364 36.052509 38.744141 36.148438 A 1.0001 1.0001 0 0 0 40.082031 35.480469C40.168577 35.160375 40.329049 34.87195 40.544922 34.636719C40.546166 34.635363 40.54758 34.634165 40.548828 34.632812 A 1.0001 1.0001 0 0 0 40.787109 34.414062C41.120195 34.154282 41.538256 34 42 34 z" />
</svg>