<?xml version="1.0" encoding="utf-8"?>
<svg xmlns="http://www.w3.org/2000/svg" viewBox="0 0 50 50" width="515" height="515">
  <path d="M16.5 0C14.367188 0 12.191406 1.085938 10.4375 2.125C8.683594 3.164063 7.375 4.21875 7.375 4.21875C7.148438 4.394531 7.007813 4.660156 6.988281 4.949219C6.96875 5.234375 7.078125 5.515625 7.28125 5.71875C7.28125 5.71875 8.589844 7.011719 10.34375 8.3125C12.097656 9.613281 14.273438 11 16.5 11C19.535156 11 22 8.535156 22 5.5C22 2.464844 19.535156 0 16.5 0 Z M 16.5 2C18.464844 2 20 3.535156 20 5.5C20 7.464844 18.464844 9 16.5 9C15.226563 9 13.152344 7.886719 11.53125 6.6875C10.453125 5.890625 10.132813 5.539063 9.65625 5.09375C10.148438 4.730469 10.40625 4.484375 11.4375 3.875C13.058594 2.914063 15.132813 2 16.5 2 Z M 2.84375 10C2.492188 10.027344 2.125 10.132813 1.78125 10.3125C1.761719 10.324219 1.738281 10.300781 1.71875 10.3125C0.09375 11.097656 -0.34375 13.164063 0.53125 14.625L5.34375 22.53125L5.375 22.5C5.664063 23.027344 6.085938 23.394531 6.53125 23.625C7 23.867188 7.476563 24 8 24C8.320313 24 8.613281 23.917969 8.90625 23.8125L5.0625 35.6875C4.964844 35.988281 5.011719 36.320313 5.199219 36.582031C5.382813 36.839844 5.679688 36.996094 6 37L11 37L11 47C11 48.644531 12.355469 50 14 50C14.765625 50 15.46875 49.699219 16 49.21875C16.53125 49.699219 17.234375 50 18 50C19.644531 50 21 48.644531 21 47L21 37L24 37C24.316406 37.003906 24.617188 36.855469 24.808594 36.601563C24.996094 36.351563 25.058594 36.023438 24.96875 35.71875L24.75 35C24.800781 35.003906 24.855469 35 24.90625 35L25.1875 35C25.25 35.007813 25.3125 35.007813 25.375 35C25.554688 34.96875 25.710938 34.90625 25.875 34.84375L26.84375 35.71875L26.5625 36.03125C26.242188 36.394531 26.230469 36.933594 26.53125 37.3125L29.03125 40.4375C29.09375 40.511719 29.167969 40.574219 29.25 40.625C29.492188 42.292969 30.347656 44.234375 31.5625 46C33.011719 48.105469 35.058594 50 37.59375 50C37.859375 50.007813 38.121094 49.90625 38.3125 49.71875L48.21875 39.8125C48.550781 39.484375 48.613281 38.96875 48.363281 38.570313C48.117188 38.175781 47.628906 38.003906 47.1875 38.15625C47.1875 38.15625 45.855469 38.59375 43.34375 38.59375C40.917969 38.59375 37.460938 38.152344 33.34375 36.375C33.269531 36.261719 33.175781 36.167969 33.0625 36.09375L29.78125 33.78125C29.582031 33.636719 29.339844 33.570313 29.09375 33.59375C28.851563 33.628906 28.628906 33.75 28.46875 33.9375L28.1875 34.25L27.40625 33.53125C27.796875 32.839844 27.914063 32.050781 27.78125 31.25C27.78125 31.230469 27.78125 31.207031 27.78125 31.1875L24.375 16.625L24.375 16.5625L24.34375 16.5625C23.824219 13.90625 21.414063 12 18.59375 12L13.59375 12C11.578125 12 9.765625 12.988281 8.59375 14.625C8.582031 14.636719 8.574219 14.644531 8.5625 14.65625L8.03125 15.4375L5.65625 11.46875C5.644531 11.457031 5.636719 11.449219 5.625 11.4375C5.207031 10.808594 4.574219 10.34375 3.875 10.125C3.535156 10.019531 3.195313 9.972656 2.84375 10 Z M 3 11.96875C3.320313 11.949219 3.667969 12.148438 3.9375 12.53125C3.949219 12.546875 3.960938 12.546875 3.96875 12.5625L4.25 13.03125C4.117188 12.992188 3.980469 12.984375 3.84375 13C3.457031 13.058594 3.136719 13.335938 3.03125 13.714844C2.921875 14.089844 3.046875 14.496094 3.34375 14.75L9.59375 20.3125L8.78125 21.53125C8.507813 21.9375 8.414063 22 8 22C7.921875 22 7.644531 21.949219 7.4375 21.84375C7.230469 21.738281 7.105469 21.585938 7.09375 21.5625C7.085938 21.53125 7.074219 21.5 7.0625 21.46875L2.25 13.59375C1.9375 13.074219 2.101563 12.363281 2.625 12.125C2.648438 12.105469 2.667969 12.085938 2.6875 12.0625C2.785156 12.007813 2.894531 11.976563 3 11.96875 Z M 13.59375 14L18.59375 14C20.550781 14 22.097656 15.261719 22.40625 16.96875C22.414063 16.988281 22.425781 17.011719 22.4375 17.03125L25.8125 31.5625L25.8125 31.625C25.855469 31.984375 25.792969 32.328125 25.65625 32.5625C25.511719 32.8125 25.339844 32.949219 25.03125 33L24.90625 33C24.449219 33 24.066406 32.722656 23.96875 32.28125C23.96875 32.269531 23.96875 32.261719 23.96875 32.25L21.375 21.75C21.238281 21.214844 20.691406 20.894531 20.15625 21.03125C19.621094 21.167969 19.300781 21.714844 19.4375 22.25L20.78125 27.625L9.21875 17.3125L10.21875 15.78125C11.046875 14.621094 12.207031 14 13.59375 14 Z M 11.5625 22.0625L20.84375 30.34375C20.964844 30.464844 21.117188 30.550781 21.28125 30.59375L22.625 35L16.1875 35C16.054688 34.972656 15.914063 34.972656 15.78125 35L12.21875 35C12.117188 34.972656 12.011719 34.960938 11.90625 34.96875C11.875 34.976563 11.84375 34.988281 11.8125 35L7.375 35 Z M 47 29C45.355469 29 44 30.355469 44 32C44 33.644531 45.355469 35 47 35C48.644531 35 50 33.644531 50 32C50 30.355469 48.644531 29 47 29 Z M 47 31C47.5625 31 48 31.4375 48 32C48 32.5625 47.5625 33 47 33C46.4375 33 46 32.5625 46 32C46 31.4375 46.4375 31 47 31 Z M 40.5 33C39.671875 33 39 33.671875 39 34.5C39 35.328125 39.671875 36 40.5 36C41.328125 36 42 35.328125 42 34.5C42 33.671875 41.328125 33 40.5 33 Z M 29.34375 35.90625L31 37.0625L29.875 38.28125L28.625 36.71875 Z M 13 37L15 37L15 46.84375C15 46.875 15 46.90625 15 46.9375L15 47C15 47.554688 14.554688 48 14 48C13.445313 48 13 47.554688 13 47 Z M 17 37L19 37L19 47C19 47.554688 18.554688 48 18 48C17.445313 48 17 47.554688 17 47C17 46.96875 17 46.9375 17 46.90625 Z M 32.8125 38.25C37.058594 40.03125 40.738281 40.59375 43.34375 40.59375C43.921875 40.59375 44.238281 40.507813 44.71875 40.46875L40.59375 44.59375C37.417969 44.453125 35.78125 42.375 35.78125 42.375C35.554688 42.078125 35.179688 41.933594 34.8125 42C34.460938 42.0625 34.171875 42.308594 34.046875 42.640625C33.925781 42.976563 33.992188 43.351563 34.21875 43.625C34.21875 43.625 35.871094 45.628906 38.84375 46.34375L37.3125 47.875C35.917969 47.722656 34.390625 46.578125 33.21875 44.875C32.050781 43.175781 31.34375 41.136719 31.25 40Z" />
</svg>