<?xml version="1.0" encoding="utf-8"?>
<svg xmlns="http://www.w3.org/2000/svg" viewBox="0 0 50 50" width="515" height="515">
  <path d="M9 7L12 41L26 45L40 41C41 29.667 42 18.333 43 7L9 7 z M 11.183594 9L40.816406 9L38.128906 39.455078L26 42.919922L13.871094 39.455078L11.183594 9 z M 18.550781 15L17.589844 27L30.580078 27L30.169922 32L26 32.619141L21.880859 32L21.699219 30L17.839844 30L18.230469 35L25.990234 37L33.759766 35L34.75 23L22.089844 23L22.410156 19L30.769531 19L31 21L34.699219 21L34 15L18.550781 15 z" />
</svg>