<?xml version="1.0" encoding="utf-8"?>
<svg xmlns="http://www.w3.org/2000/svg" viewBox="0 0 50 50" width="515" height="515">
  <path d="M5.953125 4C5.441406 4 4.921875 4.1875 4.554688 4.554688C4.1875 4.921875 4 5.441406 4 5.953125L4 44.046875C4 44.554688 4.1875 45.078125 4.554688 45.445313C4.921875 45.8125 5.441406 46 5.953125 46L44.046875 46C44.554688 46 45.078125 45.8125 45.445313 45.445313C45.8125 45.078125 46 44.558594 46 44.046875L46 5.953125C46 5.441406 45.8125 4.921875 45.445313 4.554688C45.078125 4.1875 44.558594 4 44.046875 4 Z M 6 6L44 6L44 44L6 44 Z M 12.433594 20.890625L12.433594 31L14.394531 31L14.394531 26.769531L16.453125 26.769531L16.453125 31L18.417969 31L18.417969 20.890625L16.453125 20.890625L16.453125 24.941406L14.394531 24.941406L14.394531 20.890625 Z M 19.46875 20.890625L19.46875 22.703125L21.25 22.703125L21.25 31L23.21875 31L23.21875 22.703125L25.015625 22.703125L25.015625 20.890625 Z M 26.410156 20.890625L25.675781 31L27.375 31L27.535156 27.488281C27.597656 26.484375 27.65625 25.210938 27.6875 24.113281L27.734375 24.113281C27.882813 25.210938 28.152344 26.46875 28.347656 27.28125L29.1875 30.832031L30.582031 30.832031L31.453125 27.21875C31.644531 26.441406 31.917969 25.195313 32.097656 24.113281L32.140625 24.113281C32.113281 25.195313 32.1875 26.5 32.234375 27.460938L32.410156 31L34.167969 31L33.550781 20.890625L31.484375 20.890625L30.6875 24.550781C30.417969 25.824219 30.191406 26.96875 30.042969 28.09375L30.015625 28.09375C29.832031 26.949219 29.578125 25.824219 29.292969 24.550781L28.484375 20.890625 Z M 35.609375 20.890625L35.609375 31L40.167969 31L40.167969 29.335938L37.574219 29.335938L37.574219 20.890625Z" />
</svg>