<?xml version="1.0" encoding="utf-8"?>
<svg xmlns="http://www.w3.org/2000/svg" viewBox="0 0 50 50" width="515" height="515">
  <path d="M21.501953 3C19.028516 3 17.001953 5.0265633 17.001953 7.5C17.001953 9.9734367 19.028516 12 21.501953 12C23.97539 12 26.001953 9.9734367 26.001953 7.5C26.001953 5.0265633 23.97539 3 21.501953 3 z M 38 3C33.593567 3 30 6.5935666 30 11C30 15.406433 33.593567 19 38 19C42.406433 19 46 15.406433 46 11C46 6.5935666 42.406433 3 38 3 z M 21.501953 5C22.89451 5 24.001953 6.1074435 24.001953 7.5C24.001953 8.8925565 22.89451 10 21.501953 10C20.109397 10 19.001953 8.8925565 19.001953 7.5C19.001953 6.1074435 20.109397 5 21.501953 5 z M 38 5C41.325553 5 44 7.6744469 44 11C44 14.325553 41.325553 17 38 17C34.674447 17 32 14.325553 32 11C32 7.6744469 34.674447 5 38 5 z M 37 7L37 11 A 1.0001 1.0001 0 0 0 37.292969 11.707031L39.542969 13.957031L40.957031 12.542969L39 10.585938L39 7L37 7 z M 17.001953 13C16.479624 13 15.965027 13.136808 15.511719 13.396484L8.515625 17.394531C7.9995708 17.687915 7.5832861 18.12835 7.3183594 18.658203L4.3183594 24.658203C3.5828278 26.129266 4.1887308 27.947137 5.6601562 28.683594C6.0901772 28.898994 6.5517297 29.001953 7 29.001953C8.1009391 29.001953 9.1630623 28.387231 9.6855469 27.34375L12.242188 22.228516L13.25 21.832031L12.150391 25.494141 A 1.0001 1.0001 0 0 0 12.146484 25.503906C12.092834 25.689612 12.093268 25.751632 12.111328 25.677734 A 1.0001 1.0001 0 0 0 12.107422 25.6875C12.126872 25.6044 12.097114 25.66372 12.058594 25.869141 A 1.0001 1.0001 0 0 0 12.058594 25.875L11.986328 26.277344L11.984375 26.277344L11.982422 26.294922L10.222656 35.96875L5.8125 41.257812 A 1.0001 1.0001 0 0 0 5.8125 41.259766C4.5823827 42.736139 4.7841074 44.958249 6.2597656 46.1875C6.91086 46.730079 7.7119912 46.998047 8.5 46.998047C9.5018473 46.998047 10.501314 46.565174 11.189453 45.742188 A 1.0001 1.0001 0 0 0 11.189453 45.740234L16.189453 39.740234 A 1.0001 1.0001 0 0 0 16.191406 39.738281C16.574162 39.276191 16.837063 38.721083 16.945312 38.125L17.458984 35.296875L19.212891 36.880859L21.105469 44.351562C21.501393 45.930847 22.926821 47 24.498047 47C24.778016 47 25.065598 46.96571 25.349609 46.894531C27.213719 46.428504 28.360905 44.513634 27.896484 42.650391L25.896484 34.650391 A 1.0001 1.0001 0 0 0 25.896484 34.648438C25.76784 34.138102 25.524834 33.66362 25.189453 33.259766 A 1.0001 1.0001 0 0 0 25.189453 33.257812L21.328125 28.626953L22.546875 23.835938L23.335938 24.822266C23.681006 25.290361 24.15352 25.647891 24.701172 25.851562L29.951172 27.810547C31.490738 28.384605 33.233527 27.590106 33.808594 26.048828C34.387138 24.507037 33.590544 22.763496 32.048828 22.189453L27.634766 20.542969L23.457031 14.878906 A 1.0001 1.0001 0 0 0 23.425781 14.839844C23.222442 14.590736 22.994351 14.368497 22.751953 14.166016C22.748802 14.163371 22.716902 14.130944 22.716797 14.130859L22.607422 14.041016L22.605469 14.042969C21.739012 13.373681 20.669472 13 19.552734 13L17.001953 13 z M 17.001953 15L19.552734 15C20.229069 15 20.862477 15.220969 21.380859 15.623047L21.410156 15.646484C21.479228 15.701469 21.536937 15.77249 21.601562 15.833984C21.651577 15.902586 21.715726 16.003065 21.796875 16.193359C21.972348 16.604845 22.136968 17.307808 21.835938 18.517578L21.115234 21.353516 A 1.0001 1.0001 0 0 0 21.103516 21.396484L19.263672 28.628906 A 1.0001 1.0001 0 0 0 19.464844 29.515625L23.652344 34.539062C23.795818 34.712241 23.899699 34.916682 23.955078 35.134766L25.955078 43.134766C26.158658 43.951522 25.681125 44.751106 24.865234 44.955078 A 1.0001 1.0001 0 0 0 24.863281 44.955078C24.74207 44.985572 24.619445 45 24.498047 45C23.829833 45 23.217545 44.553165 23.044922 43.863281 A 1.0001 1.0001 0 0 0 23.044922 43.859375L21.076172 36.095703 A 1.0001 1.0001 0 0 0 20.777344 35.599609L17.578125 32.707031L17.466797 32.607422L14.802734 30.199219C14.077228 29.54356 13.717341 28.581114 13.835938 27.611328L13.835938 27.609375L13.957031 26.611328L14.025391 26.238281C14.007051 26.336081 14.021694 26.284167 14.052734 26.154297C14.087894 26.010479 14.084016 26.012656 14.066406 26.070312L15.755859 20.433594 A 1.0001 1.0001 0 0 0 14.431641 19.214844L11.154297 20.507812 A 1.0001 1.0001 0 0 0 10.625 20.990234L7.8964844 26.449219C7.716969 26.807738 7.3670609 27.001953 7 27.001953C6.8488889 27.001953 6.69816 26.968473 6.5546875 26.896484C6.0481129 26.642941 5.8530003 26.057671 6.1054688 25.552734L9.1054688 19.552734C9.1945418 19.374588 9.3339606 19.229429 9.5039062 19.132812 A 1.0001 1.0001 0 0 0 9.5058594 19.132812L16.505859 15.132812 A 1.0001 1.0001 0 0 0 16.505859 15.130859C16.656555 15.044583 16.828283 15 17.001953 15 z M 23.822266 18.742188L26.203125 21.96875 A 1.0001 1.0001 0 0 0 26.658203 22.3125L31.351562 24.0625C31.877848 24.258457 32.134956 24.819494 31.9375 25.345703 A 1.0001 1.0001 0 0 0 31.935547 25.349609C31.739797 25.875847 31.175416 26.131733 30.650391 25.935547L25.400391 23.978516 A 1.0001 1.0001 0 0 0 25.398438 23.978516C25.220088 23.912186 25.060243 23.790671 24.945312 23.634766 A 1.0001 1.0001 0 0 0 24.921875 23.603516L23.164062 21.40625L23.775391 19.003906L23.777344 19.001953C23.800193 18.910126 23.803275 18.831554 23.822266 18.742188 z M 13.101562 31.316406C13.216063 31.443664 13.334461 31.567528 13.462891 31.683594L15.712891 33.71875L14.976562 37.767578C14.930813 38.019495 14.819588 38.260981 14.652344 38.462891L9.6542969 44.458984C9.3524359 44.819998 8.9301527 44.998047 8.5 44.998047C8.1580088 44.998047 7.8259213 44.889765 7.5410156 44.652344C6.8966739 44.115595 6.8097735 43.184643 7.3476562 42.539062L11.927734 37.046875 A 1.0001 1.0001 0 0 0 12.144531 36.583984L13.101562 31.316406 z" />
</svg>