<?xml version="1.0" encoding="utf-8"?>
<svg xmlns="http://www.w3.org/2000/svg" viewBox="0 0 50 50" width="515" height="515">
  <path d="M25 0C20.054688 0 16 4.054688 16 9C16 9.519531 16.050781 10.007813 16.125 10.46875C12.578125 11.679688 10 15.058594 10 19C10 22.109375 11.640625 24.882813 14.125 26.5L24.09375 49.40625C24.257813 49.757813 24.613281 49.984375 25 49.984375C25.386719 49.984375 25.742188 49.757813 25.90625 49.40625L35.84375 26.5625C38.355469 24.972656 40 22.191406 40 19C40 15.0625 37.417969 11.710938 33.875 10.5C33.945313 10.015625 34 9.511719 34 9C34 4.054688 29.945313 0 25 0 Z M 25 2C28.855469 2 32 5.144531 32 9C32 9.296875 31.953125 9.660156 31.90625 10.03125C31.605469 10 31.308594 10 31 10C29.867188 10 28.761719 10.21875 27.84375 10.5625C27.324219 10.761719 27.066406 11.339844 27.265625 11.859375C27.464844 12.378906 28.042969 12.636719 28.5625 12.4375C29.242188 12.183594 30.132813 12 31 12C34.855469 12 38 15.144531 38 19C38 21.554688 36.699219 23.710938 34.6875 24.9375C34.617188 24.980469 34.554688 25.035156 34.5 25.09375C33.796875 25.25 30.128906 26 25 26C20.308594 26 16.839844 25.386719 15.71875 25.15625C15.707031 25.144531 15.699219 25.136719 15.6875 25.125C15.628906 25.085938 15.566406 25.054688 15.5 25.03125C13.398438 23.804688 12 21.53125 12 19C12 15.144531 15.144531 12 19 12C22.855469 12 26 15.144531 26 19C26 20.320313 25.644531 21.542969 25.03125 22.59375C24.804688 22.902344 24.773438 23.3125 24.949219 23.652344C25.128906 23.992188 25.484375 24.199219 25.867188 24.1875C26.253906 24.175781 26.59375 23.945313 26.75 23.59375C27.535156 22.246094 28 20.679688 28 19C28 14.054688 23.945313 10 19 10C18.691406 10 18.394531 10 18.09375 10.03125C18.039063 9.671875 18 9.316406 18 9C18 5.144531 21.144531 2 25 2 Z M 16.65625 27.3125C18.015625 27.554688 20.066406 27.828125 22.84375 27.9375L19.5 31.28125L17.5 29.28125 Z M 33.34375 27.3125L32.5 29.28125L30.5 31.3125L27.15625 27.9375C29.953125 27.832031 31.976563 27.558594 33.34375 27.3125 Z M 25 28.625L29.09375 32.71875L25.03125 36.84375L20.90625 32.6875 Z M 19.71875 34.34375L23.625 38.25L22.09375 39.8125 Z M 30.25 34.40625L27.9375 39.75L26.4375 38.25 Z M 25.03125 39.65625L27.09375 41.71875L25 46.5L22.9375 41.78125Z" />
</svg>