<?xml version="1.0" encoding="utf-8"?>
<svg xmlns="http://www.w3.org/2000/svg" width="515" height="515" viewBox="0 0 50 50">
  <path d="M29.691406 2.0039062C24.342563 2.1655197 20 6.686569 20 12.033203C20 14.852251 21.410562 17.054268 22.685547 18.841797C23.960532 20.629326 25 22.072146 25 23.052734L25 26C25 27.64497 26.35503 29 28 29L28.277344 29C28.623613 29.595634 29.261054 30 30 30C30.738946 30 31.376387 29.595634 31.722656 29L32 29C33.64497 29 35 27.64497 35 26L35 23C35 22.055556 36.038271 20.618686 37.314453 18.832031C38.590635 17.045377 40 14.833333 40 12C40 6.3866017 35.339395 1.8344001 29.691406 2.0039062 z M 29.751953 4.0039062C34.299961 3.8674125 38 7.4873983 38 12C38 14.166667 36.909365 15.954623 35.685547 17.667969C34.668889 19.09129 33.499546 20.415588 33.128906 22L31 22L31 13.414062L32.707031 11.707031 A 1.0001 1.0001 0 1 0 31.292969 10.292969L30 11.585938L28.707031 10.292969 A 1.0001 1.0001 0 0 0 27.990234 9.9902344 A 1.0001 1.0001 0 0 0 27.292969 11.707031L29 13.414062L29 22L26.859375 22C26.477914 20.420298 25.322914 19.093549 24.314453 17.679688C23.089438 15.962217 22 14.181155 22 12.033203C22 7.7758374 25.502796 4.1322929 29.751953 4.0039062 z M 27 24L33 24L33 26C33 26.56503 32.56503 27 32 27L28 27C27.43497 27 27 26.56503 27 26L27 24 z M 44.158203 27.996094C43.976081 27.99886 43.794527 28.015596 43.613281 28.044922C43.133363 28.122572 42.661767 28.295674 42.226562 28.568359L31.117188 35.414062C30.860975 35.273973 30.546838 35.11928 30.132812 34.919922C29.657061 34.690842 29.159549 34.455158 28.878906 34.328125C27.368214 33.644966 22.551898 31.658969 18.896484 30.054688C17.33274 29.368444 15.661395 29.015761 13.988281 29C12.315168 28.98424 10.638837 29.305948 9.0625 29.962891L2.6152344 32.646484 A 1.0001 1.0001 0 1 0 3.3847656 34.492188L9.8320312 31.808594C12.481356 30.70448 15.463286 30.731255 18.091797 31.884766C21.782383 33.504484 26.67738 35.52755 28.054688 36.150391C28.302045 36.262357 28.801627 36.497283 29.265625 36.720703C29.729623 36.944123 30.21732 37.193254 30.257812 37.216797C30.703995 37.476319 31 37.94087 31 38.5C31 39.340812 30.340812 40 29.5 40C29.380834 40 29.267782 39.986667 29.160156 39.960938 A 1.0001 1.0001 0 0 0 29.158203 39.958984C29.132973 39.952984 28.341821 39.732738 27.382812 39.451172C26.423804 39.169606 25.203555 38.807993 24.003906 38.451172C21.604609 37.73753 19.287109 37.042969 19.287109 37.042969 A 1.0001 1.0001 0 1 0 18.712891 38.957031C18.712891 38.957031 21.033844 39.65283 23.435547 40.367188C24.636398 40.724365 25.857071 41.086332 26.820312 41.369141C27.782628 41.651677 28.395226 41.83508 28.695312 41.90625C28.955734 41.968557 29.225166 42 29.5 42C31.421188 42 33 40.421188 33 38.5C33 37.906947 32.844175 37.349981 32.580078 36.859375L43.275391 30.269531 A 1.0001 1.0001 0 0 0 43.285156 30.265625C44.122074 29.737863 45.198996 29.981752 45.726562 30.818359C46.239013 31.630654 46.024802 32.675225 45.234375 33.220703 A 1.0001 1.0001 0 0 0 45.197266 33.246094L29.423828 45.197266C28.347119 46.01361 26.936059 46.233142 25.662109 45.78125L13.966797 41.632812L14.013672 41.652344C11.320349 40.540724 8.2378995 40.915072 5.8886719 42.638672L5.8886719 42.636719L2.4042969 45.193359 A 1.0004465 1.0004465 0 0 0 3.5878906 46.806641L7.0722656 44.25C8.861038 42.9376 11.199323 42.65362 13.25 43.5 A 1.0001 1.0001 0 0 0 13.296875 43.517578L24.994141 47.666016C26.900191 48.342124 29.021523 48.012671 30.632812 46.791016L46.40625 34.839844L46.369141 34.865234C48.02472 33.722711 48.491519 31.451705 47.417969 29.75C46.693184 28.600648 45.433055 27.976732 44.158203 27.996094 z" />
</svg>