<?xml version="1.0" encoding="utf-8"?>
<svg xmlns="http://www.w3.org/2000/svg" viewBox="0 0 50 50" width="515" height="515">
  <path d="M6 9C3.800781 9 2 10.800781 2 13L2 37C2 39.199219 3.800781 41 6 41L44 41C46.199219 41 48 39.199219 48 37L48 13C48 10.800781 46.199219 9 44 9 Z M 6 11L44 11C45.117188 11 46 11.882813 46 13L46 37C46 38.117188 45.117188 39 44 39L6 39C4.882813 39 4 38.117188 4 37L4 13C4 11.882813 4.882813 11 6 11 Z M 16.90625 15C14.6875 15.039063 13.121094 16.089844 12.5 17.5625C11.949219 18.875 12.058594 20.355469 12.375 21.78125C12.367188 21.792969 12.382813 21.800781 12.375 21.8125C12.199219 22.113281 12.042969 22.558594 12.0625 23.09375C12.089844 23.863281 12.375 24.441406 12.6875 24.8125C12.851563 25.007813 12.921875 25.027344 13.0625 25.125C13.222656 25.621094 13.398438 26.125 13.65625 26.46875C13.828125 26.699219 14.023438 26.808594 14.1875 26.96875C14.199219 27.394531 14.210938 27.789063 14.1875 28.1875C14.105469 28.347656 13.960938 28.519531 13.5 28.75C12.996094 29.003906 12.261719 29.261719 11.5 29.59375C10.738281 29.925781 9.929688 30.339844 9.25 31.03125C8.570313 31.722656 8.074219 32.714844 8 33.9375C7.984375 34.214844 8.082031 34.484375 8.269531 34.683594C8.460938 34.886719 8.722656 35 9 35L25 35C25.277344 35 25.539063 34.886719 25.730469 34.683594C25.917969 34.484375 26.015625 34.214844 26 33.9375C25.925781 32.714844 25.429688 31.722656 24.75 31.03125C24.070313 30.339844 23.261719 29.925781 22.5 29.59375C21.738281 29.261719 21.003906 29.003906 20.5 28.75C20.019531 28.507813 19.851563 28.320313 19.78125 28.15625C19.761719 27.769531 19.800781 27.382813 19.8125 26.96875C20 26.789063 20.238281 26.675781 20.40625 26.4375C20.652344 26.082031 20.800781 25.578125 20.9375 25.09375C21.273438 24.84375 21.90625 24.304688 21.90625 23.1875C21.90625 22.71875 21.671875 22.433594 21.53125 22.09375C21.765625 21.324219 22.0625 20.175781 21.9375 18.9375C21.867188 18.261719 21.679688 17.566406 21.1875 16.96875C20.78125 16.472656 20.101563 16.199219 19.375 16.09375C18.796875 15.460938 17.992188 15 16.9375 15C16.925781 15 16.917969 15 16.90625 15 Z M 16.9375 17C16.953125 17 16.953125 17 16.96875 17C17.601563 17.015625 18.027344 17.382813 18.09375 17.5C18.269531 17.800781 18.589844 17.992188 18.9375 18C19.386719 18 19.496094 18.09375 19.625 18.25C19.753906 18.40625 19.894531 18.722656 19.9375 19.15625C20.023438 20.023438 19.757813 21.222656 19.59375 21.71875C19.480469 22.050781 19.550781 22.421875 19.78125 22.6875C19.769531 22.699219 19.90625 22.925781 19.90625 23.1875C19.90625 23.371094 19.59375 23.65625 19.59375 23.65625C19.34375 23.804688 19.175781 24.058594 19.125 24.34375C19.078125 24.671875 18.933594 25.019531 18.75 25.28125C18.566406 25.542969 18.320313 25.746094 18.375 25.71875C18.039063 25.882813 17.820313 26.21875 17.8125 26.59375C17.8125 27.179688 17.738281 27.75 17.8125 28.5625C17.824219 28.648438 17.84375 28.730469 17.875 28.8125C18.203125 29.6875 18.933594 30.183594 19.625 30.53125C20.316406 30.878906 21.023438 31.148438 21.6875 31.4375C22.351563 31.726563 22.925781 32.042969 23.3125 32.4375C23.445313 32.574219 23.464844 32.835938 23.5625 33L10.4375 33C10.535156 32.835938 10.554688 32.574219 10.6875 32.4375C11.074219 32.042969 11.648438 31.726563 12.3125 31.4375C12.976563 31.148438 13.683594 30.878906 14.375 30.53125C15.066406 30.183594 15.800781 29.691406 16.125 28.8125C16.15625 28.730469 16.175781 28.648438 16.1875 28.5625C16.261719 27.746094 16.1875 27.179688 16.1875 26.59375C16.191406 26.234375 16 25.898438 15.6875 25.71875C15.703125 25.734375 15.695313 25.738281 15.65625 25.71875C15.597656 25.664063 15.402344 25.484375 15.25 25.28125C15.035156 24.996094 14.847656 24.609375 14.8125 24.34375C14.761719 24.015625 14.550781 23.734375 14.25 23.59375C14.25 23.59375 14.285156 23.609375 14.21875 23.53125C14.152344 23.453125 14.074219 23.332031 14.0625 23C14.058594 22.898438 14.15625 22.75 14.15625 22.75C14.40625 22.496094 14.503906 22.125 14.40625 21.78125C14.054688 20.429688 14.007813 19.140625 14.34375 18.34375C14.675781 17.554688 15.265625 17.039063 16.9375 17 Z M 28.8125 19C28.261719 19.050781 27.855469 19.542969 27.90625 20.09375C27.957031 20.644531 28.449219 21.050781 29 21L41 21C41.359375 21.003906 41.695313 20.816406 41.878906 20.503906C42.058594 20.191406 42.058594 19.808594 41.878906 19.496094C41.695313 19.183594 41.359375 18.996094 41 19L29 19C28.96875 19 28.9375 19 28.90625 19C28.875 19 28.84375 19 28.8125 19 Z M 28.8125 24C28.261719 24.050781 27.855469 24.542969 27.90625 25.09375C27.957031 25.644531 28.449219 26.050781 29 26L41 26C41.359375 26.003906 41.695313 25.816406 41.878906 25.503906C42.058594 25.191406 42.058594 24.808594 41.878906 24.496094C41.695313 24.183594 41.359375 23.996094 41 24L29 24C28.96875 24 28.9375 24 28.90625 24C28.875 24 28.84375 24 28.8125 24 Z M 28.8125 29C28.261719 29.050781 27.855469 29.542969 27.90625 30.09375C27.957031 30.644531 28.449219 31.050781 29 31L41 31C41.359375 31.003906 41.695313 30.816406 41.878906 30.503906C42.058594 30.191406 42.058594 29.808594 41.878906 29.496094C41.695313 29.183594 41.359375 28.996094 41 29L29 29C28.96875 29 28.9375 29 28.90625 29C28.875 29 28.84375 29 28.8125 29Z" />
</svg>