<?xml version="1.0" encoding="utf-8"?>
<svg xmlns="http://www.w3.org/2000/svg" viewBox="0 0 50 50" width="515" height="515">
  <path d="M3 5C1.355469 5 0 6.355469 0 8L0 37C0 38.644531 1.355469 40 3 40L20.40625 40L19.875 43.375C19.726563 44.3125 18.949219 45 18 45L17 45C16.96875 45 16.9375 45 16.90625 45C16.355469 45.027344 15.925781 45.496094 15.953125 46.046875C15.980469 46.597656 16.449219 47.027344 17 47L33 47C33.359375 47.003906 33.695313 46.816406 33.878906 46.503906C34.058594 46.191406 34.058594 45.808594 33.878906 45.496094C33.695313 45.183594 33.359375 44.996094 33 45L32 45C31.050781 45 30.273438 44.3125 30.125 43.375L29.59375 40L47 40C48.644531 40 50 38.644531 50 37L50 8C50 6.355469 48.644531 5 47 5 Z M 3 7L47 7C47.566406 7 48 7.433594 48 8L48 32L2 32L2 8C2 7.433594 2.433594 7 3 7 Z M 2 34L48 34L48 37C48 37.566406 47.566406 38 47 38L3 38C2.433594 38 2 37.566406 2 37 Z M 25 34.90625C24.398438 34.90625 23.90625 35.398438 23.90625 36C23.90625 36.601563 24.398438 37.09375 25 37.09375C25.601563 37.09375 26.09375 36.601563 26.09375 36C26.09375 35.398438 25.601563 34.90625 25 34.90625 Z M 22.46875 40L27.53125 40L28.125 43.6875C28.199219 44.160156 28.367188 44.601563 28.59375 45L21.40625 45C21.632813 44.601563 21.800781 44.160156 21.875 43.6875Z" />
</svg>