<?xml version="1.0" encoding="utf-8"?>
<svg xmlns="http://www.w3.org/2000/svg" viewBox="0 0 50 50" width="515" height="515">
  <path d="M3 7L3 8L3 43L47 43L47 7L3 7 z M 5 9L45 9L45 32.099609L36 32.099609L29.800781 28L24.544922 28L20.861328 23.90625L16.558594 24.785156L12.65625 18.929688L5 26.585938L5 9 z M 36 14C33.8 14 32 15.8 32 18C32 20.2 33.8 22 36 22C38.2 22 40 20.2 40 18C40 15.8 38.2 14 36 14 z M 36 16C37.1 16 38 16.9 38 18C38 19.1 37.1 20 36 20C34.9 20 34 19.1 34 18C34 16.9 34.9 16 36 16 z M 12.34375 22.070312L15.640625 27.013672L20.138672 26.09375L23.654297 30L29.199219 30L35.398438 34.099609L45 34.099609L45 41L5 41L5 29.414062L12.34375 22.070312 z" />
</svg>