<?xml version="1.0" encoding="utf-8"?>
<svg xmlns="http://www.w3.org/2000/svg" viewBox="0 0 50 50" width="515" height="515">
  <path d="M7 2L7 48L43 48L43 15.414063L29.410156 2 Z M 9 4L28 4L28 17L41 17L41 46L9 46 Z M 30 5.390625L39.734375 15L30 15 Z M 33.5 21.332031C32.457031 21.335938 31.609375 22.15625 31.609375 23.167969C31.613281 24.179688 32.457031 25 33.5 25C34.542969 25 35.386719 24.179688 35.390625 23.167969C35.390625 22.15625 34.542969 21.335938 33.5 21.332031 Z M 21.167969 24C20.835938 23.988281 20.519531 24.136719 20.324219 24.40625L12.863281 34.488281C12.640625 34.792969 12.605469 35.195313 12.773438 35.53125C12.945313 35.871094 13.289063 36.082031 13.667969 36.082031L28.425781 36.082031C28.449219 36.082031 28.472656 36.082031 28.496094 36.082031C28.5 36.082031 28.5 36.082031 28.503906 36.082031L35.015625 36C35.398438 35.996094 35.742188 35.769531 35.90625 35.421875C36.066406 35.074219 36.015625 34.667969 35.777344 34.371094L29.269531 26.386719C29.078125 26.148438 28.785156 26.011719 28.480469 26.015625C28.164063 26.023438 27.871094 26.175781 27.6875 26.429688L25.554688 29.363281L21.9375 24.410156C21.753906 24.164063 21.472656 24.011719 21.167969 24 Z M 21.125 26.6875L24.753906 31.660156C24.757813 31.667969 24.761719 31.671875 24.765625 31.675781L26.523438 34.082031L15.652344 34.082031 Z M 28.539063 28.65625L32.917969 34.027344L29 34.078125L26.796875 31.0625Z" />
</svg>