<?xml version="1.0" encoding="utf-8"?>
<svg xmlns="http://www.w3.org/2000/svg" viewBox="0 0 50 50" width="515" height="515">
  <path d="M1.78125 -0.03125C1.300781 0.078125 0.960938 0.507813 0.96875 1L0.96875 49C0.972656 49.566406 1.433594 50.027344 2 50.03125L32 50.03125C32.566406 50.027344 33.027344 49.566406 33.03125 49L33.03125 39L30.96875 39L30.96875 47.96875L3.03125 47.96875L3.03125 2.03125L30.96875 2.03125L30.96875 11L33.03125 11L33.03125 1C33.027344 0.433594 32.566406 -0.0273438 32 -0.03125L2 -0.03125C1.925781 -0.0390625 1.855469 -0.0390625 1.78125 -0.03125 Z M 24.78125 15.09375C24.554688 15.125 24.34375 15.238281 24.1875 15.40625L15.28125 24.28125L14.59375 25L15.28125 25.71875L24.1875 34.59375C24.429688 34.890625 24.816406 35.027344 25.191406 34.941406C25.5625 34.855469 25.855469 34.5625 25.941406 34.191406C26.027344 33.816406 25.890625 33.429688 25.59375 33.1875L18.4375 26L48 26C48.359375 26.003906 48.695313 25.816406 48.878906 25.503906C49.058594 25.191406 49.058594 24.808594 48.878906 24.496094C48.695313 24.183594 48.359375 23.996094 48 24L18.4375 24L25.59375 16.8125C25.90625 16.515625 25.996094 16.050781 25.8125 15.660156C25.625 15.265625 25.210938 15.039063 24.78125 15.09375Z" />
</svg>