<?xml version="1.0" encoding="utf-8"?>
<svg xmlns="http://www.w3.org/2000/svg" viewBox="0 0 50 50" width="515" height="515">
  <path d="M25 2C12.264481 2 2 12.264481 2 25C2 37.735519 12.264481 48 25 48C37.735519 48 48 37.735519 48 25C48 12.264481 37.735519 2 25 2 z M 25 4C36.664481 4 46 13.335519 46 25C46 36.664481 36.664481 46 25 46C13.335519 46 4 36.664481 4 25C4 13.335519 13.335519 4 25 4 z M 14.300781 15C11.982263 15 10 16.811374 10 19.099609C10 21.346006 11.346857 23.02231 12.753906 24.212891C14.160956 25.403471 15.732277 26.257939 16.369141 26.775391 A 1.0001 1.0001 0 0 0 17.630859 26.775391C18.277463 26.250025 19.846843 25.372654 21.25 24.171875C22.653157 22.971096 24 21.307017 24 19.099609C24 16.811374 22.017737 15 19.699219 15C18.785582 15 18.066399 15.460258 17.507812 15.943359C17.291252 16.130655 17.179448 16.311447 17 16.507812C16.820552 16.311447 16.708748 16.130655 16.492188 15.943359C15.933601 15.460258 15.214418 15 14.300781 15 z M 30.300781 15C27.982263 15 26 16.811374 26 19.099609C26 21.307017 27.346843 22.971096 28.75 24.171875C30.153157 25.372654 31.722537 26.250025 32.369141 26.775391 A 1.0001 1.0001 0 0 0 33.630859 26.775391C34.267723 26.257939 35.839044 25.403471 37.246094 24.212891C38.653143 23.02231 40 21.346006 40 19.099609C40 16.811374 38.017737 15 35.699219 15C34.785582 15 34.066399 15.460258 33.507812 15.943359C33.291252 16.130655 33.179448 16.311447 33 16.507812C32.820552 16.311447 32.708748 16.130655 32.492188 15.943359C31.933601 15.460258 31.214418 15 30.300781 15 z M 14.300781 17C14.487145 17 14.81718 17.140133 15.183594 17.457031C15.550007 17.77393 15.915219 18.220943 16.199219 18.599609 A 1.0001 1.0001 0 0 0 17.800781 18.599609C18.084781 18.220943 18.449993 17.77393 18.816406 17.457031C19.18282 17.140133 19.512855 17 19.699219 17C20.9807 17 22 17.987845 22 19.099609C22 20.492202 21.146061 21.628123 19.949219 22.652344C18.961774 23.497369 17.902393 24.130537 16.996094 24.775391C16.085961 24.134505 15.028561 23.518157 14.046875 22.6875C12.853925 21.67808 12 20.553213 12 19.099609C12 17.987845 13.0193 17 14.300781 17 z M 30.300781 17C30.487145 17 30.81718 17.140133 31.183594 17.457031C31.550007 17.77393 31.915219 18.220943 32.199219 18.599609 A 1.0001 1.0001 0 0 0 33.800781 18.599609C34.084781 18.220943 34.449993 17.77393 34.816406 17.457031C35.18282 17.140133 35.512855 17 35.699219 17C36.9807 17 38 17.987845 38 19.099609C38 20.553213 37.146075 21.67808 35.953125 22.6875C34.971439 23.518157 33.914039 24.134505 33.003906 24.775391C32.097607 24.130537 31.038226 23.497369 30.050781 22.652344C28.853939 21.628123 28 20.492202 28 19.099609C28 17.987845 29.0193 17 30.300781 17 z M 11.957031 28.988281 A 1.0001 1.0001 0 0 0 11.185547 30.582031C11.185547 30.582031 16.416667 38 25 38C33.583333 38 38.814453 30.582031 38.814453 30.582031 A 1.0010463 1.0010463 0 0 0 37.185547 29.417969C37.185547 29.417969 32.416667 36 25 36C17.583333 36 12.814453 29.417969 12.814453 29.417969 A 1.0001 1.0001 0 0 0 11.957031 28.988281 z" />
</svg>