<?xml version="1.0" encoding="utf-8"?>
<svg xmlns="http://www.w3.org/2000/svg" viewBox="0 0 50 50" width="515" height="515">
  <path d="M25.347656 2.0078125L25.298828 4.0078125L26.056641 4.0253906L26.070312 4.0273438L27.162109 4.1113281L27.173828 4.1113281L28.199219 4.2421875L29.208984 4.421875L29.228516 4.4257812L30.046875 4.6152344L30.496094 2.6660156L29.658203 2.4726562L29.634766 2.4667969L29.609375 2.4628906L28.525391 2.2695312L28.501953 2.2636719L28.476562 2.2617188L27.375 2.1210938L27.349609 2.1191406L27.324219 2.1171875L26.207031 2.03125L26.183594 2.0292969L26.158203 2.0292969L25.347656 2.0078125 z M 22.205078 2.1757812L21.523438 2.2617188L21.498047 2.2636719L21.474609 2.2695312L20.390625 2.4628906L20.365234 2.4667969L20.341797 2.4726562L19.277344 2.71875L19.251953 2.7246094L19.228516 2.7304688L18.185547 3.0273438L18.160156 3.0332031L18.136719 3.0410156L17.15625 3.3730469L17.796875 5.2675781L18.730469 4.9511719L18.746094 4.9472656L19.726562 4.6679688L19.730469 4.6679688L20.771484 4.4257812L20.791016 4.421875L21.800781 4.2421875L22.457031 4.1582031L22.205078 2.1757812 z M 33.492188 3.625L32.757812 5.4863281L33.152344 5.640625L34.117188 6.0761719L34.125 6.0800781L34.988281 6.5214844L35.009766 6.5351562L35.03125 6.5449219L35.867188 7.0273438L35.876953 7.0332031L36.755859 7.5957031L36.759766 7.5996094L36.941406 7.7285156L38.101562 6.0996094L37.880859 5.9414062L37.859375 5.9277344L37.839844 5.9160156L36.947266 5.34375L36.927734 5.3300781L36.90625 5.3183594L35.984375 4.7890625L35.964844 4.7753906L35.941406 4.765625L34.994141 4.2792969L34.972656 4.2675781L34.949219 4.2578125L33.974609 3.8183594L33.953125 3.8066406L33.929688 3.7988281L33.492188 3.625 z M 14.283203 4.6503906L14.058594 4.765625L14.035156 4.7753906L14.015625 4.7890625L13.09375 5.3183594L13.072266 5.3300781L13.052734 5.34375L12.160156 5.9160156L12.140625 5.9277344L12.119141 5.9414062L11.257812 6.5566406L11.238281 6.5703125L11.21875 6.5839844L10.388672 7.2382812L10.369141 7.2519531L10.351562 7.2675781L9.9667969 7.6015625L11.275391 9.1132812L11.623047 8.8105469L11.634766 8.8007812L12.416016 8.1855469L12.435547 8.171875L12.455078 8.15625L13.240234 7.5996094L13.246094 7.5957031L14.123047 7.0332031L14.132812 7.0273438L14.96875 6.5449219L14.990234 6.5332031L15.011719 6.5214844L15.193359 6.4296875L14.283203 4.6503906 z M 40.554688 8.0605469L39.173828 9.5078125L39.832031 10.132812L39.849609 10.150391L39.867188 10.167969L40.552734 10.888672L40.560547 10.898438L41.189453 11.623047L41.199219 11.634766L41.814453 12.416016L41.828125 12.435547L41.84375 12.455078L42.322266 13.128906L43.951172 11.970703L43.443359 11.257812L43.429688 11.238281L43.416016 11.21875L42.761719 10.388672L42.748047 10.369141L42.732422 10.351562L42.041016 9.5527344L42.025391 9.5351562L42.007812 9.5175781L41.279297 8.7539062L41.263672 8.7363281L41.246094 8.7207031L40.554688 8.0605469 z M 7.7363281 9.8105469L7.2675781 10.351562L7.2519531 10.369141L7.2382812 10.388672L6.5839844 11.21875L6.5703125 11.238281L6.5566406 11.257812L5.9414062 12.119141L5.9277344 12.140625L5.9160156 12.160156L5.34375 13.052734L5.3300781 13.072266L5.3183594 13.09375L4.7890625 14.015625L4.7753906 14.035156L4.765625 14.058594L4.7441406 14.099609L6.5058594 15.001953L6.5214844 15.011719L6.5234375 15.011719L6.5371094 14.986328L6.5449219 14.96875L7.0273438 14.132812L7.0332031 14.123047L7.5957031 13.246094L7.5996094 13.240234L8.15625 12.455078L8.171875 12.435547L8.1855469 12.416016L8.8007812 11.634766L8.8105469 11.623047L9.2480469 11.121094L7.7363281 9.8105469 z M 45.550781 14.675781L43.771484 15.585938L43.919922 15.875L43.923828 15.882812L44.359375 16.847656L44.734375 17.802734L45.048828 18.730469L45.052734 18.746094L45.332031 19.726562L45.332031 19.730469L45.404297 20.039062L47.353516 19.589844L47.28125 19.277344L47.275391 19.251953L47.269531 19.228516L46.972656 18.185547L46.966797 18.160156L46.958984 18.136719L46.611328 17.115234L46.603516 17.091797L46.595703 17.068359L46.201172 16.070312L46.193359 16.046875L46.181641 16.025391L45.742188 15.050781L45.732422 15.027344L45.720703 15.005859L45.550781 14.675781 z M 3.4648438 16.917969L3.4042969 17.068359L3.3964844 17.091797L3.3886719 17.115234L3.0410156 18.136719L3.0332031 18.160156L3.0273438 18.185547L2.7304688 19.228516L2.7246094 19.251953L2.71875 19.277344L2.4726562 20.341797L2.4667969 20.365234L2.4628906 20.390625L2.2695312 21.474609L2.2636719 21.498047L2.2617188 21.523438L2.2011719 22L4.1855469 22.251953L4.2421875 21.798828L4.421875 20.791016L4.4257812 20.771484L4.6679688 19.730469L4.6679688 19.726562L4.9472656 18.746094L4.9511719 18.730469L5.265625 17.802734L5.3242188 17.652344L3.4648438 16.917969 z M 47.884766 22.691406L45.890625 22.84375L45.972656 23.929688L45.974609 23.943359L46 25L45.974609 26.056641L45.972656 26.070312L45.888672 27.162109L45.888672 27.173828L45.757812 28.199219L45.578125 29.208984L45.574219 29.228516L45.457031 29.732422L47.40625 30.181641L47.527344 29.658203L47.533203 29.634766L47.537109 29.609375L47.730469 28.525391L47.736328 28.501953L47.738281 28.476562L47.878906 27.375L47.880859 27.349609L47.882812 27.324219L47.96875 26.207031L47.970703 26.183594L47.970703 26.158203L48 25.025391L47 25L48 24.974609L47.970703 23.841797L47.970703 23.816406L47.96875 23.792969L47.884766 22.691406 z M 4.0019531 25.091797L2.0039062 25.142578L2.0292969 26.158203L2.0292969 26.183594L2.03125 26.207031L2.1171875 27.324219L2.1191406 27.349609L2.1210938 27.375L2.2617188 28.476562L2.2636719 28.501953L2.2695312 28.525391L2.4628906 29.609375L2.4667969 29.634766L2.4726562 29.658203L2.6191406 30.296875L4.5683594 29.845703L4.4257812 29.228516L4.421875 29.208984L4.2421875 28.199219L4.1113281 27.173828L4.1113281 27.162109L4.0273438 26.070312L4.0253906 26.056641L4.0019531 25.091797 z M 44.632812 32.457031L44.359375 33.152344L43.923828 34.117188L43.919922 34.125L43.478516 34.988281L43.464844 35.009766L43.455078 35.03125L42.972656 35.867188L42.966797 35.876953L42.429688 36.716797L44.113281 37.796875L44.65625 36.947266L44.669922 36.927734L44.681641 36.90625L45.210938 35.984375L45.224609 35.964844L45.234375 35.941406L45.720703 34.994141L45.732422 34.972656L45.742188 34.949219L46.181641 33.974609L46.193359 33.953125L46.201172 33.929688L46.492188 33.191406L44.632812 32.457031 z M 5.4101562 32.568359L3.5507812 33.300781L3.7988281 33.929688L3.8066406 33.953125L3.8183594 33.974609L4.2578125 34.949219L4.2675781 34.972656L4.2792969 34.994141L4.765625 35.941406L4.7753906 35.964844L4.7890625 35.984375L5.3183594 36.90625L5.3300781 36.927734L5.34375 36.947266L5.9160156 37.839844L5.9277344 37.859375L5.9414062 37.880859L5.9804688 37.933594L7.609375 36.773438L7.5996094 36.759766L7.5976562 36.757812L7.0332031 35.876953L7.0273438 35.867188L6.5449219 35.03125L6.5351562 35.009766L6.5214844 34.988281L6.0800781 34.125L6.0761719 34.117188L5.640625 33.152344L5.4101562 32.568359 z M 40.675781 38.96875L40.560547 39.101562L40.552734 39.109375L39.867188 39.832031L39.849609 39.849609L39.832031 39.867188L39.111328 40.552734L39.101562 40.560547L38.376953 41.189453L38.365234 41.199219L37.583984 41.814453L37.564453 41.828125L37.544922 41.84375L37.132812 42.134766L38.292969 43.763672L38.742188 43.443359L38.761719 43.429688L38.78125 43.416016L39.611328 42.761719L39.630859 42.748047L39.648438 42.732422L40.447266 42.041016L40.464844 42.025391L40.482422 42.007812L41.246094 41.279297L41.263672 41.263672L41.279297 41.246094L42.007812 40.482422L42.025391 40.464844L42.041016 40.447266L42.1875 40.277344L40.675781 38.96875 z M 9.4023438 39.056641L7.890625 40.367188L7.9589844 40.447266L7.9746094 40.464844L7.9921875 40.482422L8.7207031 41.246094L8.7363281 41.263672L8.7539062 41.279297L9.5175781 42.007812L9.5351562 42.025391L9.5527344 42.041016L10.351562 42.732422L10.369141 42.748047L10.388672 42.761719L11.21875 43.416016L11.238281 43.429688L11.257812 43.443359L11.802734 43.832031L12.962891 42.203125L12.455078 41.84375L12.435547 41.828125L12.416016 41.814453L11.634766 41.199219L11.623047 41.189453L10.898438 40.560547L10.888672 40.552734L10.167969 39.867188L10.150391 39.849609L10.132812 39.832031L9.4511719 39.113281L9.4394531 39.101562L9.4023438 39.056641 z M 34.701172 43.623047L34.125 43.919922L34.115234 43.923828L33.152344 44.359375L32.197266 44.734375L31.269531 45.048828L31.253906 45.052734L30.228516 45.34375L30.773438 47.267578L31.814453 46.972656L31.839844 46.966797L31.863281 46.958984L32.884766 46.611328L32.908203 46.603516L32.931641 46.595703L33.929688 46.201172L33.953125 46.193359L33.974609 46.181641L34.949219 45.742188L34.972656 45.732422L34.994141 45.720703L35.613281 45.404297L34.701172 43.623047 z M 15.404297 43.677734L14.492188 45.457031L15.005859 45.720703L15.027344 45.732422L15.050781 45.742188L16.025391 46.181641L16.046875 46.193359L16.070312 46.201172L17.068359 46.595703L17.091797 46.603516L17.115234 46.611328L18.136719 46.958984L18.160156 46.966797L18.185547 46.972656L19.228516 47.269531L19.251953 47.275391L19.277344 47.28125L19.388672 47.306641L19.837891 45.359375L19.732422 45.333984L19.726562 45.332031L18.746094 45.052734L18.730469 45.048828L17.802734 44.734375L16.847656 44.359375L15.884766 43.923828L15.875 43.919922L15.404297 43.677734 z M 27.427734 45.855469L27.173828 45.888672L27.160156 45.890625L26.070312 45.972656L26.056641 45.974609L25 46L23.943359 45.974609L23.929688 45.972656L22.835938 45.888672L22.826172 45.888672L22.689453 45.871094L22.4375 47.855469L22.625 47.878906L22.650391 47.880859L22.675781 47.882812L23.792969 47.96875L23.816406 47.970703L23.841797 47.970703L24.974609 48L25 48L25.025391 48L26.158203 47.970703L26.183594 47.970703L26.207031 47.96875L27.324219 47.882812L27.349609 47.880859L27.375 47.878906L27.679688 47.839844L27.427734 45.855469 z" />
</svg>