<?xml version="1.0" encoding="utf-8"?>
<svg xmlns="http://www.w3.org/2000/svg" viewBox="0 0 50 50" width="515" height="515">
  <path d="M8.90625 8C8.515625 8.042969 8.183594 8.3125 8.0625 8.6875L2.15625 26.4375C2.144531 26.46875 2.132813 26.5 2.125 26.53125L2.09375 26.5625C2.082031 26.582031 2.070313 26.605469 2.0625 26.625L2.0625 26.6875C2.050781 26.699219 2.042969 26.707031 2.03125 26.71875C2.03125 26.738281 2.03125 26.761719 2.03125 26.78125C2.019531 26.792969 2.011719 26.800781 2 26.8125C2 26.832031 2 26.855469 2 26.875C2 26.886719 2 26.894531 2 26.90625C1.945313 27.089844 1.945313 27.285156 2 27.46875L2 42C2 42.550781 2.449219 43 3 43L47 43C47.550781 43 48 42.550781 48 42L48 27.40625C48.070313 27.179688 48.058594 26.9375 47.96875 26.71875C47.957031 26.707031 47.949219 26.699219 47.9375 26.6875L47.9375 26.65625C47.917969 26.613281 47.898438 26.570313 47.875 26.53125L41.9375 8.6875C41.804688 8.28125 41.425781 8.003906 41 8L9 8C8.96875 8 8.9375 8 8.90625 8 Z M 9.71875 10L40.28125 10L45.625 26L32 26C31.449219 26 31 26.449219 31 27C31 30.324219 28.324219 33 25 33C21.675781 33 19 30.324219 19 27C19 26.449219 18.550781 26 18 26L4.375 26 Z M 4 28L17.1875 28C17.703125 31.914063 20.949219 35 25 35C29.050781 35 32.296875 31.914063 32.8125 28L46 28L46 41L4 41Z" />
</svg>