<?xml version="1.0" encoding="utf-8"?>
<svg xmlns="http://www.w3.org/2000/svg" viewBox="0 0 50 50" width="515" height="515">
  <path d="M14.09375 11.90625C6.292969 12.007813 0 17.800781 0 25C0 32.199219 6.300781 38 14 38C18.699219 38 21.710938 35.914063 23.8125 33.3125C23.414063 32.710938 22.988281 32.101563 22.6875 31.5C20.886719 33.898438 18.300781 36 14 36C7.398438 36 2 31.101563 2 25C2 18.898438 7.398438 14 14 14C19.601563 14 22.292969 17.507813 24.09375 20.90625L25 22.5L26.09375 25L26.3125 25.40625C28.710938 30.40625 30.699219 34 36 34C41.5 34 46 30 46 25C46 20 41.5 16 36 16C32.300781 16 30.207031 17.800781 28.40625 20.5C28.804688 21.199219 29.105469 21.988281 29.40625 22.6875L29.5 22.59375C31.300781 19.394531 33 18 36 18C40.398438 18 44 21.101563 44 25C44 28.898438 40.398438 32 36 32C32.300781 32 30.710938 29.898438 28.3125 25L27.6875 23.8125C27.589844 23.421875 26.375 20.996094 26.125 20.5C26.144531 20.46875 26.167969 20.445313 26.1875 20.40625C25.789063 19.707031 25.492188 19.105469 25.09375 18.40625C23.09375 15.304688 19.894531 11.90625 14.09375 11.90625 Z M 36 12C31.300781 12 28.289063 14.1875 26.1875 16.6875C26.585938 17.289063 27.011719 17.898438 27.3125 18.5C29.210938 16 31.699219 14 36 14C42.601563 14 48 18.898438 48 25C48 31.101563 42.601563 36 36 36C30.398438 36 27.707031 32.492188 25.90625 29.09375L23.90625 25L23.875 25.0625L23.6875 24.6875C21.386719 19.6875 19.300781 16 14 16C8.5 16 4 20 4 25C4 30 8.5 34 14 34C17.699219 34 19.792969 32.207031 21.59375 29.40625C21.195313 28.605469 20.894531 27.886719 20.59375 27.1875L20.5 27.3125C18.699219 30.613281 17 32 14 32C9.601563 32 6 28.898438 6 25C6 21.101563 9.601563 18 14 18C17.699219 18 19.386719 20.199219 21.6875 25C21.886719 25.398438 22.113281 25.8125 22.3125 26.3125C22.511719 26.613281 22.613281 27.007813 22.8125 27.40625C22.820313 27.394531 22.835938 27.386719 22.84375 27.375C23.542969 29.152344 24.605469 30.90625 25 31.5C27 34.800781 30.199219 38 36 38C43.699219 38 50 32.199219 50 25C50 17.800781 43.699219 12 36 12Z" />
</svg>