<?xml version="1.0" encoding="utf-8"?>
<svg xmlns="http://www.w3.org/2000/svg" viewBox="0 0 50 50" width="515" height="515">
  <path d="M9 4C6.2504839 4 4 6.2504839 4 9L4 41C4 43.749516 6.2504839 46 9 46L41 46C43.749516 46 46 43.749516 46 41L46 9C46 6.2504839 43.749516 4 41 4L9 4 z M 9 6L41 6C42.668484 6 44 7.3315161 44 9L44 41C44 42.668484 42.668484 44 41 44L9 44C7.3315161 44 6 42.668484 6 41L6 9C6 7.3315161 7.3315161 6 9 6 z M 23.451172 12C23.179172 12 23 12.171688 23 12.429688L23 15.570312C23 15.827312 23.178172 16 23.451172 16L23.451172 15.998047L26.544922 15.998047C26.816922 15.998047 27 15.826359 27 15.568359L27 12.429688C27 12.172688 26.816922 12 26.544922 12L23.451172 12 z M 23.474609 20C23.190609 20 23 20.151953 23 20.376953L23 37.623047C23 37.848047 23.188609 37.998047 23.474609 37.998047L23.474609 38L26.523438 38C26.809437 38 27 37.848047 27 37.623047L27 20.376953C27 20.151953 26.810437 20 26.523438 20L23.474609 20 z" />
</svg>