<?xml version="1.0" encoding="utf-8"?>
<svg xmlns="http://www.w3.org/2000/svg" viewBox="0 0 50 50" width="515" height="515">
  <path d="M24.5 2C22.750001 2 21.310226 2.6922556 20.376953 3.7421875C19.443681 4.7921194 19 6.1527779 19 7.5C19 8.8472221 19.443681 10.207881 20.376953 11.257812C21.310226 12.307745 22.750001 13 24.5 13C26.249999 13 27.689774 12.307744 28.623047 11.257812C29.556319 10.207882 30 8.8472221 30 7.5C30 6.1527779 29.556319 4.7921194 28.623047 3.7421875C27.689774 2.6922556 26.249999 2 24.5 2 z M 24.5 4C25.749999 4 26.560226 4.4327444 27.126953 5.0703125C27.69368 5.7078806 28 6.5972221 28 7.5C28 8.4027779 27.69368 9.2921194 27.126953 9.9296875C26.560226 10.567256 25.749999 11 24.5 11C23.250001 11 22.439774 10.567256 21.873047 9.9296875C21.30632 9.2921194 21 8.4027779 21 7.5C21 6.5972221 21.30632 5.7078806 21.873047 5.0703125C22.439774 4.4327444 23.250001 4 24.5 4 z M 15 16 A 1.0001 1.0001 0 0 0 14 17L14 23 A 1.0001 1.0001 0 0 0 15 24L20 24L20 40L15 40 A 1.0001 1.0001 0 0 0 14 41L14 47 A 1.0001 1.0001 0 0 0 15 48L21 48L29 48L35 48 A 1.0001 1.0001 0 0 0 36 47L36 41 A 1.0001 1.0001 0 0 0 35 40L30 40L30 25L30 17 A 1.0001 1.0001 0 0 0 29 16L21 16L15 16 z M 16 18L21 18L28 18L28 25L28 41 A 1.0001 1.0001 0 0 0 29 42L34 42L34 46L29 46L21 46L16 46L16 42L21 42 A 1.0001 1.0001 0 0 0 22 41L22 23 A 1.0001 1.0001 0 0 0 21 22L16 22L16 18 z" />
</svg>