<?xml version="1.0" encoding="utf-8"?>
<svg xmlns="http://www.w3.org/2000/svg" viewBox="0 0 50 50" width="515" height="515">
  <path d="M27 2.5625L26.25 3.375L18.25 12.34375L16.75 14L23 14L23 18L5 18L5 21L2 21L2 47L45 47L45 44L49 44L49 18L31 18L31 14L37.25 14L35.75 12.34375L27.75 3.375 Z M 27 5.5625L32.78125 12L29 12L29 18L25 18L25 12L21.21875 12 Z M 7 20L9.3125 20C9.097656 20.394531 8.9375 20.773438 8.8125 21.0625C8.671875 21.382813 8.519531 21.605469 8.5625 21.5625C8.605469 21.519531 8.402344 21.65625 8.09375 21.78125C7.792969 21.902344 7.410156 22.035156 7 22.21875 Z M 12.5625 20L41.4375 20C42.320313 20 42.542969 20.304688 42.875 20.875C43.039063 21.160156 43.191406 21.519531 43.34375 21.875C43.496094 22.230469 43.617188 22.585938 44 22.96875C44.378906 23.347656 44.785156 23.476563 45.15625 23.625C45.527344 23.773438 45.875 23.921875 46.1875 24.0625C46.5 24.203125 46.761719 24.355469 46.875 24.46875C46.988281 24.582031 47 24.609375 47 24.75L47 37.25C47 37.390625 46.988281 37.417969 46.875 37.53125C46.761719 37.644531 46.5 37.796875 46.1875 37.9375C45.875 38.078125 45.527344 38.226563 45.15625 38.375C44.785156 38.523438 44.378906 38.652344 44 39.03125L44 39.0625C43.636719 39.4375 43.492188 39.777344 43.34375 40.125C43.191406 40.480469 43.039063 40.839844 42.875 41.125C42.542969 41.695313 42.320313 42 41.4375 42L12.5625 42C11.898438 42 11.617188 41.824219 11.375 41.5C11.292969 41.390625 11.207031 41.265625 11.125 41.125C10.960938 40.839844 10.808594 40.476563 10.65625 40.125C10.503906 39.773438 10.382813 39.414063 10 39.03125C9.621094 38.652344 9.214844 38.523438 8.84375 38.375C8.472656 38.226563 8.125 38.078125 7.8125 37.9375C7.5 37.796875 7.238281 37.644531 7.125 37.53125C7.011719 37.417969 7 37.390625 7 37.25L7 24.75C7 24.609375 7.011719 24.582031 7.125 24.46875C7.238281 24.355469 7.5 24.203125 7.8125 24.0625C8.125 23.921875 8.472656 23.773438 8.84375 23.625C9.214844 23.476563 9.621094 23.347656 10 22.96875C10.382813 22.585938 10.503906 22.226563 10.65625 21.875C10.808594 21.523438 10.960938 21.160156 11.125 20.875C11.457031 20.304688 11.679688 20 12.5625 20 Z M 44.6875 20L47 20L47 22.21875C46.589844 22.035156 46.207031 21.902344 45.90625 21.78125C45.601563 21.65625 45.394531 21.519531 45.4375 21.5625C45.480469 21.605469 45.328125 21.382813 45.1875 21.0625C45.0625 20.773438 44.902344 20.394531 44.6875 20 Z M 27 21C21.972656 21 18 25.550781 18 31C18 36.449219 21.972656 41 27 41C32.027344 41 36 36.449219 36 31C36 25.550781 32.027344 21 27 21 Z M 4 23L5 23L5 44L43 44L43 45L4 45 Z M 27 23C30.808594 23 34 26.511719 34 31C34 35.488281 30.808594 39 27 39C23.191406 39 20 35.488281 20 31C20 26.511719 23.191406 23 27 23 Z M 12.5 28C11.132813 28 10 29.132813 10 30.5C10 31.867188 11.132813 33 12.5 33C13.867188 33 15 31.867188 15 30.5C15 29.132813 13.867188 28 12.5 28 Z M 41.5 28C40.132813 28 39 29.132813 39 30.5C39 31.867188 40.132813 33 41.5 33C42.867188 33 44 31.867188 44 30.5C44 29.132813 42.867188 28 41.5 28 Z M 12.5 30C12.789063 30 13 30.210938 13 30.5C13 30.789063 12.789063 31 12.5 31C12.210938 31 12 30.789063 12 30.5C12 30.210938 12.210938 30 12.5 30 Z M 41.5 30C41.789063 30 42 30.210938 42 30.5C42 30.789063 41.789063 31 41.5 31C41.210938 31 41 30.789063 41 30.5C41 30.210938 41.210938 30 41.5 30 Z M 7 39.78125C7.410156 39.964844 7.792969 40.097656 8.09375 40.21875C8.402344 40.34375 8.605469 40.480469 8.5625 40.4375C8.519531 40.394531 8.671875 40.617188 8.8125 40.9375C8.9375 41.226563 9.097656 41.605469 9.3125 42L7 42 Z M 47 39.78125L47 42L44.6875 42C44.78125 41.828125 44.863281 41.660156 44.9375 41.5C45.027344 41.300781 45.117188 41.097656 45.1875 40.9375C45.328125 40.617188 45.480469 40.394531 45.4375 40.4375C45.394531 40.480469 45.601563 40.34375 45.90625 40.21875C46.207031 40.097656 46.589844 39.964844 47 39.78125Z" />
</svg>