<?xml version="1.0" encoding="utf-8"?>
<svg xmlns="http://www.w3.org/2000/svg" viewBox="0 0 50 50" width="515" height="515">
  <path d="M24.984375 1.9863281 A 1.0001 1.0001 0 0 0 24 3L24 18.585938L18.707031 13.292969 A 1.0001 1.0001 0 0 0 17.990234 12.990234 A 1.0001 1.0001 0 0 0 17.292969 14.707031L24.205078 21.619141 A 1.0001 1.0001 0 0 0 24.396484 21.810547L25 22.414062L25.607422 21.806641 A 1.0001 1.0001 0 0 0 25.796875 21.617188L32.707031 14.707031 A 1.0001 1.0001 0 1 0 31.292969 13.292969L26 18.585938L26 3 A 1.0001 1.0001 0 0 0 24.984375 1.9863281 z M 3 21 A 1.0001 1.0001 0 1 0 3 23L9 23C11.220375 23 13 24.779625 13 27L13 34.585938L8.7070312 30.292969 A 1.0001 1.0001 0 0 0 7.9902344 29.990234 A 1.0001 1.0001 0 0 0 7.2929688 31.707031L13.205078 37.619141 A 1.0001 1.0001 0 0 0 13.396484 37.810547L14 38.414062L14.607422 37.806641 A 1.0001 1.0001 0 0 0 14.792969 37.623047 A 1.0001 1.0001 0 0 0 14.796875 37.617188L20.707031 31.707031 A 1.0001 1.0001 0 0 0 19.990234 29.986328 A 1.0001 1.0001 0 0 0 19.292969 30.292969L15 34.585938L15 27C15 23.698375 12.301625 21 9 21L3 21 z M 41 21C37.698375 21 35 23.698375 35 27L35 34.585938L30.707031 30.292969 A 1.0001 1.0001 0 0 0 29.990234 29.990234 A 1.0001 1.0001 0 0 0 29.292969 31.707031L35.205078 37.619141 A 1.0001 1.0001 0 0 0 35.396484 37.810547L36 38.414062L36.607422 37.806641 A 1.0001 1.0001 0 0 0 36.792969 37.623047 A 1.0001 1.0001 0 0 0 36.796875 37.617188L42.707031 31.707031 A 1.0001 1.0001 0 1 0 41.292969 30.292969L37 34.585938L37 27C37 24.779625 38.779625 23 41 23L47 23 A 1.0001 1.0001 0 1 0 47 21L41 21 z M 2.984375 37.986328 A 1.0001 1.0001 0 0 0 2 39L2 48L48 48L48 39 A 1.0001 1.0001 0 1 0 46 39L46 46L4 46L4 39 A 1.0001 1.0001 0 0 0 2.984375 37.986328 z" />
</svg>