<?xml version="1.0" encoding="utf-8"?>
<svg xmlns="http://www.w3.org/2000/svg" viewBox="0 0 50 50" width="515" height="515">
  <path d="M41.1875 3C37.34375 3 35.402344 5.359375 35.25 8.3125L37.59375 8.3125C37.742188 6.359375 39.03125 5.125 41.09375 5.125C43.132813 5.125 44.46875 6.367188 44.46875 8.0625C44.46875 9.527344 43.835938 10.402344 42.25 11.375C40.378906 12.496094 39.515625 13.726563 39.53125 15.53125L39.53125 16.78125L41.90625 16.78125L41.90625 15.90625C41.90625 14.46875 42.421875 13.679688 44.15625 12.65625C45.90625 11.601563 47 10.082031 47 7.9375C47 5.121094 44.632813 3 41.1875 3 Z M 20.96875 5C16.28125 5.085938 13.300781 7.105469 12 10.125C10.761719 13 10.988281 16.617188 11.875 20.28125C11.398438 20.839844 11.019531 21.589844 11.15625 22.71875C11.304688 23.949219 11.644531 24.824219 12.125 25.4375C12.390625 25.773438 12.738281 25.804688 13.0625 25.96875C13.238281 27.015625 13.53125 28.0625 13.96875 28.9375C14.21875 29.441406 14.503906 29.90625 14.78125 30.28125C14.90625 30.449219 15.085938 30.546875 15.21875 30.6875C15.226563 31.933594 15.234375 32.960938 15.125 34.28125C14.789063 35.078125 14.066406 35.707031 12.9375 36.3125C11.761719 36.941406 10.234375 37.5 8.6875 38.21875C7.140625 38.9375 5.539063 39.839844 4.28125 41.21875C3.023438 42.597656 2.148438 44.46875 2 46.9375L1.9375 48L40.0625 48L40 46.9375C39.851563 44.46875 38.972656 42.597656 37.71875 41.21875C36.464844 39.839844 34.886719 38.941406 33.34375 38.21875C31.800781 37.496094 30.296875 36.941406 29.125 36.3125C28.003906 35.707031 27.273438 35.082031 26.9375 34.28125C26.828125 32.964844 26.835938 31.933594 26.84375 30.6875C26.976563 30.542969 27.15625 30.449219 27.28125 30.28125C27.554688 29.902344 27.816406 29.4375 28.0625 28.9375C28.488281 28.0625 28.796875 27.011719 28.96875 25.96875C29.28125 25.804688 29.617188 25.765625 29.875 25.4375C30.355469 24.824219 30.695313 23.949219 30.84375 22.71875C30.976563 21.625 30.609375 20.902344 30.15625 20.34375C30.644531 18.757813 31.269531 16.195313 31.0625 13.5625C30.949219 12.125 30.582031 10.691406 29.71875 9.5C28.90625 8.378906 27.589844 7.558594 25.90625 7.25C24.914063 5.949219 23.242188 5 21 5 Z M 21 7C21.011719 7 21.019531 7 21.03125 7C22.929688 7.011719 24.1875 7.886719 24.625 8.65625L24.875 9.0625L25.34375 9.125C26.734375 9.320313 27.53125 9.878906 28.09375 10.65625C28.65625 11.433594 28.96875 12.519531 29.0625 13.71875C29.25 16.117188 28.558594 18.910156 28.125 20.21875L27.875 21L28.5625 21.40625C28.519531 21.378906 28.945313 21.667969 28.84375 22.5C28.726563 23.480469 28.492188 23.988281 28.3125 24.21875C28.132813 24.449219 28.039063 24.4375 28.03125 24.4375L27.1875 24.5L27.09375 25.3125C27 26.175781 26.652344 27.234375 26.25 28.0625C26.046875 28.476563 25.839844 28.839844 25.65625 29.09375C25.472656 29.347656 25.28125 29.488281 25.375 29.4375L24.84375 29.71875L24.84375 30.3125C24.84375 31.761719 24.785156 32.949219 24.9375 34.625L24.9375 34.75L25 34.875C25.558594 36.378906 26.796875 37.332031 28.15625 38.0625C29.515625 38.792969 31.0625 39.359375 32.5 40.03125C33.9375 40.703125 35.246094 41.488281 36.21875 42.5625C36.996094 43.417969 37.515625 44.5625 37.78125 46L4.21875 46C4.488281 44.5625 5 43.417969 5.78125 42.5625C6.761719 41.488281 8.085938 40.703125 9.53125 40.03125C10.976563 39.359375 12.511719 38.792969 13.875 38.0625C15.238281 37.332031 16.5 36.382813 17.0625 34.875L17.125 34.625C17.277344 32.949219 17.21875 31.761719 17.21875 30.3125L17.21875 29.71875L16.6875 29.4375C16.777344 29.484375 16.5625 29.347656 16.375 29.09375C16.1875 28.839844 15.957031 28.476563 15.75 28.0625C15.335938 27.234375 14.996094 26.167969 14.90625 25.3125L14.8125 24.5L13.96875 24.4375C13.960938 24.4375 13.867188 24.449219 13.6875 24.21875C13.507813 23.988281 13.273438 23.480469 13.15625 22.5C13.058594 21.667969 13.480469 21.378906 13.4375 21.40625L14.09375 21L13.90625 20.28125C12.96875 16.664063 12.832031 13.285156 13.84375 10.9375C14.851563 8.597656 16.855469 7.085938 21 7 Z M 40.90625 19.3125C39.800781 19.3125 39 20.097656 39 21.21875C39 22.324219 39.796875 23.125 40.90625 23.125C42.015625 23.125 42.78125 22.324219 42.78125 21.21875C42.78125 20.097656 42.011719 19.3125 40.90625 19.3125Z" />
</svg>