<?xml version="1.0" encoding="utf-8"?>
<svg xmlns="http://www.w3.org/2000/svg" viewBox="0 0 50 50" width="515" height="515">
  <path d="M7 4C5.3550302 4 4 5.3550302 4 7L4 42C4 43.64497 5.3550302 45 7 45L39.369141 45L43.099609 48.699219C44.699609 50.299219 47.200391 50.399219 48.900391 48.699219C50.500391 47.099219 50.300391 44.500391 48.900391 42.900391L46 40.039062L46 7C46 5.3550302 44.64497 4 43 4L7 4 z M 7 6L43 6C43.56503 6 44 6.4349698 44 7L44 38.064453L34.701172 28.888672C34.577172 28.766672 34.425812 28.679766 34.257812 28.634766L28.257812 27.033203C27.907812 26.941203 27.539109 27.041828 27.287109 27.298828C27.035109 27.554828 26.939109 27.927437 27.037109 28.273438L28.738281 34.273438C28.785281 34.439437 28.873094 34.588938 28.996094 34.710938L37.353516 43L7 43C6.4349698 43 6 42.56503 6 42L6 7C6 6.4349698 6.4349698 6 7 6 z M 13 13 A 1.0001 1.0001 0 1 0 13 15L37 15 A 1.0001 1.0001 0 1 0 37 13L13 13 z M 13 20 A 1.0001 1.0001 0 1 0 13 22L37 22 A 1.0001 1.0001 0 1 0 37 20L13 20 z M 13 27 A 1.0001 1.0001 0 1 0 13 29L23 29 A 1.0001 1.0001 0 1 0 23 27L13 27 z M 33.486328 30.498047L46.740234 43.658203L43.755859 46.644531L30.591797 33.474609L30.558594 33.359375L33.486328 30.498047 z" />
</svg>