<?xml version="1.0" encoding="utf-8"?>
<svg xmlns="http://www.w3.org/2000/svg" viewBox="0 0 50 50" width="515" height="515">
  <path d="M16.8125 0C16.335938 0.0898438 15.992188 0.511719 16 1L16 2L8 2C6.355469 2 5 3.355469 5 5L5 47C5 48.644531 6.355469 50 8 50L42 50C43.644531 50 45 48.644531 45 47L45 5C45 3.355469 43.644531 2 42 2L34 2L34 1C34 0.449219 33.550781 0 33 0L17 0C16.96875 0 16.9375 0 16.90625 0C16.875 0 16.84375 0 16.8125 0 Z M 18 2L32 2L32 8L18 8 Z M 8 4L16 4L16 6L9 6L9 46L41 46L41 6L34 6L34 4L42 4C42.554688 4 43 4.445313 43 5L43 47C43 47.554688 42.554688 48 42 48L8 48C7.445313 48 7 47.554688 7 47L7 5C7 4.445313 7.445313 4 8 4 Z M 11 8L16 8L16 9C16 9.550781 16.449219 10 17 10L33 10C33.550781 10 34 9.550781 34 9L34 8L39 8L39 44L11 44 Z M 32.71875 18.625L32.15625 19.46875L24.03125 32.0625L18.65625 27.25L17.9375 26.59375L16.59375 28.0625L17.34375 28.75L23.53125 34.34375L24.40625 35.125L25.03125 34.15625L33.84375 20.53125L34.375 19.71875Z" />
</svg>