<?xml version="1.0" encoding="utf-8"?>
<svg xmlns="http://www.w3.org/2000/svg" viewBox="0 0 50 50" width="515" height="515">
  <path d="M12 3C7.0414839 3 3 7.0414839 3 12L3 38C3 42.958516 7.0414839 47 12 47L38 47C42.958516 47 47 42.958516 47 38L47 12C47 7.0414839 42.958516 3 38 3L12 3 z M 12 5L38 5C41.877484 5 45 8.1225161 45 12L45 38C45 41.877484 41.877484 45 38 45L12 45C8.1225161 45 5 41.877484 5 38L5 12C5 8.1225161 8.1225161 5 12 5 z M 38 7C36.904545 7 36 7.9045455 36 9L36 12C36 13.095455 36.904545 14 38 14L41 14C42.095455 14 43 13.095455 43 12L43 9C43 7.9045455 42.095455 7 41 7L38 7 z M 38 9L41 9L41 12L38 12L38 9 z M 25 12C21.331661 12 18.01623 13.540914 15.648438 16L8 16 A 1.0001 1.0001 0 0 0 7 17L7 37C7 40.301625 9.6983746 43 13 43L37 43C40.301625 43 43 40.301625 43 37L43 17 A 1.0001 1.0001 0 0 0 42 16L34.351562 16C31.98377 13.540914 28.668339 12 25 12 z M 25 14C31.073477 14 36 18.926523 36 25C36 31.073477 31.073477 36 25 36C18.926523 36 14 31.073477 14 25C14 18.926523 18.926523 14 25 14 z M 25 16 A 1.0001 1.0001 0 0 0 24.589844 16.083984C19.831681 16.311415 16 20.186041 16 25C16 29.959394 20.041635 34 25 34C29.958365 34 34 29.959394 34 25C34 20.187371 30.170385 16.313404 25.414062 16.083984 A 1.0001 1.0001 0 0 0 25 16 z M 9 18L14.068359 18C12.766308 20.024088 12 22.423973 12 25C12 32.158523 17.841477 38 25 38C32.158523 38 38 32.158523 38 25C38 22.423973 37.233692 20.024088 35.931641 18L41 18L41 37C41 39.220375 39.220375 41 37 41L13 41C10.779625 41 9 39.220375 9 37L9 18 z M 25 18C28.877635 18 32 21.121394 32 25C32 28.878606 28.877635 32 25 32C21.122365 32 18 28.878606 18 25C18 21.121394 21.122365 18 25 18 z" />
</svg>