<?xml version="1.0" encoding="utf-8"?>
<svg xmlns="http://www.w3.org/2000/svg" viewBox="0 0 50 50" width="515" height="515">
  <path d="M24 1.9003906C23.404022 1.9003906 22.820779 1.9655425 22.248047 2.0761719C10.876116 2.9709621 2 12.485652 2 24C2 36.2 11.9 46 24 46C26.1 46 28.1 45.699219 30 45.199219L30 43.900391L30 41.300781C28.476827 42.739334 26.8096 43.667599 25 43.921875L25 36L30 36L30 34L25 34L25 25L30 25L30 23L25 23L25 14L34.441406 14C35.298682 16.484838 35.854057 19.294352 36 22.300781L36.736328 23L36.599609 23L38.800781 25L43.960938 25C43.875887 26.463285 43.626579 27.916143 43.300781 29.300781L44.900391 30.800781C45.600391 28.700781 46 26.4 46 24C46 12.389957 37.031589 2.9616719 25.736328 2.0761719C25.189522 1.9695601 24.634265 1.9067423 24.070312 1.9023438 A 1.0001 1.0001 0 0 0 24 1.9003906 z M 22.974609 4.0253906C22.983014 4.0249655 22.991593 4.0258053 23 4.0253906L23 12L14.388672 12C14.77423 11.139062 15.190656 10.319572 15.650391 9.5761719C17.542966 6.5158363 19.960145 4.5779217 22.582031 4.0566406C22.713177 4.047429 22.842798 4.0320576 22.974609 4.0253906 z M 25 4.0253906C25.142868 4.0325143 25.283694 4.046498 25.425781 4.0566406C28.788334 4.7211816 31.735012 7.6865681 33.664062 12L25 12L25 4.0253906 z M 16.240234 5.5625C15.404924 6.431585 14.632351 7.4187975 13.949219 8.5234375C13.292525 9.5853255 12.712532 10.753399 12.205078 12L8.0234375 12C10.139269 9.1888636 12.960263 6.9440404 16.240234 5.5625 z M 31.730469 5.5664062C35.005919 6.9507732 37.826784 9.1961337 39.945312 12L35.765625 12C34.714999 9.4418094 33.342027 7.2468876 31.730469 5.5664062 z M 6.6933594 14L11.486328 14C10.617531 16.728944 10.108864 19.774786 10.027344 23L4.0253906 23C4.1862838 19.722276 5.1478678 16.668837 6.6933594 14 z M 13.59375 14L23 14L23 23L12.027344 23C12.116209 19.731732 12.673305 16.668445 13.59375 14 z M 36.492188 14L41.279297 14C42.838882 16.677073 43.811729 19.733368 43.974609 23L37.970703 23C37.887418 19.766224 37.367426 16.720998 36.492188 14 z M 4.0253906 25L10.033203 25C10.133 28.228686 10.656045 31.277779 11.544922 34L6.6972656 34C5.1478195 31.323012 4.1865161 28.266485 4.0253906 25 z M 12.033203 25L23 25L23 34L13.667969 34C12.724717 31.338133 12.142005 28.276575 12.033203 25 z M 33.951172 25.001953 A 1.0001 1.0001 0 0 0 33 26L33 45.300781 A 1.0001 1.0001 0 0 0 34.707031 46.007812L37.6875 43.027344L40.189453 48.515625 A 1.0001 1.0001 0 0 0 41.519531 49.007812L45.419922 47.207031 A 1.0001 1.0001 0 0 0 45.910156 45.884766L43.265625 40.099609L48 40.099609 A 1.0001 1.0001 0 0 0 48.683594 38.369141L34.683594 25.269531 A 1.0001 1.0001 0 0 0 33.951172 25.001953 z M 35 28.306641L45.466797 38.099609L41.900391 38.099609 A 1.0001 1.0001 0 0 0 41.005859 38.652344L40.90625 38.853516 A 1.0001 1.0001 0 0 0 40.890625 39.714844L43.675781 45.810547L41.59375 46.771484L38.910156 40.884766 A 1.0001 1.0001 0 0 0 37.292969 40.59375L35 42.886719L35 28.306641 z M 8.0253906 36L12.28125 36C12.769878 37.172397 13.327074 38.26937 13.949219 39.275391C14.721201 40.523703 15.608006 41.619182 16.572266 42.5625C13.145829 41.191344 10.205459 38.900065 8.0253906 36 z M 14.482422 36L23 36L23 43.818359C20.216783 43.430444 17.643367 41.447295 15.650391 38.224609C15.226673 37.539449 14.843486 36.785546 14.482422 36 z" />
</svg>