<?xml version="1.0" encoding="utf-8"?>
<svg xmlns="http://www.w3.org/2000/svg" viewBox="0 0 50 50" width="515" height="515">
  <path d="M15.199219 5 A 1.0001 1.0001 0 0 0 14.341797 5.4863281L10.162109 12.453125 A 1.0001 1.0001 0 0 0 10.148438 12.476562L10.142578 12.486328 A 1.0001 1.0001 0 0 0 10 13.208984L10 43 A 1.0001 1.0001 0 0 0 11 44L39 44 A 1.0001 1.0001 0 0 0 40 43L40 13.208984 A 1.0001 1.0001 0 0 0 39.857422 12.486328L35.658203 5.4863281 A 1.0001 1.0001 0 0 0 34.800781 5L15.199219 5 z M 15.765625 7L24 7L24 12L12.765625 12L15.765625 7 z M 26 7L34.234375 7L37.234375 12L26 12L26 7 z M 12 14L38 14L38 42L12 42L12 14 z M 45 15L45 18L42 18L42 20L45 20L45 23L50 19L45 15 z M 1 18 A 1.0001 1.0001 0 1 0 1 20L4 20L5 20L8 20L8 18L5 18L4 18L1 18 z M 20 18 A 1.0001 1.0001 0 1 0 20 20L30 20 A 1.0001 1.0001 0 1 0 30 18L20 18 z M 5 33L0 37L5 41L5 38L8 38L8 36L5 36L5 33 z M 42 36L42 38L46 38L49 38 A 1.0001 1.0001 0 1 0 49 36L46 36L42 36 z" />
</svg>