<?xml version="1.0" encoding="utf-8"?>
<svg xmlns="http://www.w3.org/2000/svg" viewBox="0 0 50 50" width="515" height="515">
  <path d="M24.984375 1.9863281 A 1.0001 1.0001 0 0 0 24.714844 2.0292969C12.215295 2.1839774 2.1881595 12.20852 2.0292969 24.707031 A 1.0001 1.0001 0 0 0 2.0292969 25.285156C2.1852164 37.884814 12.362242 48 25 48C37.735519 48 48 37.735519 48 25C48 12.364893 37.888938 2.1893982 25.292969 2.0292969 A 1.0001 1.0001 0 0 0 24.984375 1.9863281 z M 24 4.0996094L24 24L4.0996094 24C4.6105295 13.155927 13.155927 4.6105295 24 4.0996094 z M 26 4.0996094C37.182782 4.6264878 46 13.678432 46 25C46 30.467975 43.894817 35.376949 40.513672 39.099609L26 24.585938L26 4.0996094 z M 4.0996094 26L24.585938 26L39.099609 40.513672C35.376949 43.894817 30.467975 46 25 46C13.678432 46 4.6264878 37.182782 4.0996094 26 z" />
</svg>