<?xml version="1.0" encoding="utf-8"?>
<svg xmlns="http://www.w3.org/2000/svg" viewBox="0 0 50 50" width="515" height="515">
  <path d="M6 2L6 48L7 48L44 48L44 2L6 2 z M 8 4L42 4L42 46L8 46L8 4 z M 13 12L13 14L37 14L37 12L13 12 z M 13.984375 17.986328 A 1.0001 1.0001 0 0 0 13.294922 18.279297 A 1.0001 1.0001 0 0 0 13.275391 18.296875 A 1.0001 1.0001 0 0 0 13.263672 18.308594 A 1.0001 1.0001 0 0 0 13 19.158203L13 24.832031 A 1.0001 1.0001 0 0 0 13 25.158203L13 30.832031 A 1.0001 1.0001 0 0 0 13 31.158203L13 35 A 1.0001 1.0001 0 0 0 13.123047 35.496094 A 1.0001 1.0001 0 0 0 14 37L17.832031 37 A 1.0001 1.0001 0 0 0 18.158203 37L30.832031 37 A 1.0001 1.0001 0 0 0 31.158203 37L36 37 A 1.0001 1.0001 0 0 0 36.876953 35.494141 A 1.0001 1.0001 0 0 0 37 35L37 31.167969 A 1.0001 1.0001 0 0 0 37 30.841797L37 25.167969 A 1.0001 1.0001 0 0 0 37 24.841797L37 19.167969 A 1.0001 1.0001 0 0 0 36.707031 18.279297 A 1.0001 1.0001 0 0 0 36.705078 18.277344 A 1.0001 1.0001 0 0 0 36.699219 18.271484 A 1.0001 1.0001 0 0 0 36.691406 18.263672 A 1.0001 1.0001 0 0 0 35.984375 17.986328 A 1.0001 1.0001 0 0 0 35.839844 18L14.154297 18 A 1.0001 1.0001 0 0 0 13.984375 17.986328 z M 15 20L17 20L17 24L15 24L15 20 z M 19 20L30 20L30 24L19 24L19 20 z M 32 20L35 20L35 24L32 24L32 20 z M 15 26L17 26L17 30L15 30L15 26 z M 19 26L30 26L30 30L19 30L19 26 z M 32 26L35 26L35 30L32 30L32 26 z M 15 32L17 32L17 35L15 35L15 32 z M 19 32L30 32L30 35L19 35L19 32 z M 32 32L35 32L35 35L32 35L32 32 z M 25 40L25 42L37 42L37 40L25 40 z" />
</svg>