<?xml version="1.0" encoding="utf-8"?>
<svg xmlns="http://www.w3.org/2000/svg" viewBox="0 0 50 50" width="515" height="515">
  <path d="M6 6C4.136719 6 2.609375 6.921875 1.59375 8.09375C0.578125 9.265625 0 10.679688 0 12L0 38.375C0 41.464844 2.535156 44 5.625 44L44.375 44C47.464844 44 50 41.464844 50 38.375L50 11.84375C50 8.65625 47.148438 6 44 6 Z M 6 8L44 8C45.949219 8 48 9.9375 48 11.84375L48 38.375C48 40.382813 46.382813 42 44.375 42L5.625 42C3.613281 42 2 40.386719 2 38.375L2 12C2 11.320313 2.378906 10.234375 3.09375 9.40625C3.808594 8.578125 4.785156 8 6 8 Z M 6.8125 10C6.335938 10.089844 5.992188 10.511719 6 11L6 39C6 39.550781 6.449219 40 7 40L44 40C44.550781 40 45 39.550781 45 39L45 11C45 10.449219 44.550781 10 44 10L7 10C6.96875 10 6.9375 10 6.90625 10C6.875 10 6.84375 10 6.8125 10 Z M 8 12L43 12L43 38L8 38 Z M 4 23.5C3.171875 23.5 2.5 24.171875 2.5 25C2.5 25.828125 3.171875 26.5 4 26.5C4.828125 26.5 5.5 25.828125 5.5 25C5.5 24.171875 4.828125 23.5 4 23.5Z" />
</svg>