<?xml version="1.0" encoding="utf-8"?>
<svg xmlns="http://www.w3.org/2000/svg" viewBox="0 0 50 50" width="515" height="515">
  <path d="M25 2C12.264481 2 2 12.264481 2 25C2 37.735519 12.264481 48 25 48C37.735519 48 48 37.735519 48 25C48 12.264481 37.735519 2 25 2 z M 25 4C36.664481 4 46 13.335519 46 25C46 36.664481 36.664481 46 25 46C13.335519 46 4 36.664481 4 25C4 13.335519 13.335519 4 25 4 z M 34.023438 11.990234C33.95 11.984961 33.875781 11.9875 33.800781 12L20.099609 14.599609C19.499609 14.699609 19 15.3 19 16L19 29.300781C19 29.800781 18.699219 30.200781 18.199219 30.300781L14.800781 31.199219L14.5 31.300781C13.2 31.700781 12.2 32.799219 12 34.199219L12 35.199219C12.3 36.999219 13.899219 38.199219 15.699219 38.199219L15.800781 38.199219C18.600781 38.199219 20.900391 35.899609 20.900391 33.099609L20.900391 22.300781C20.900391 21.600781 21.4 21.000391 22 20.900391L31.699219 19C32.299219 18.9 32.900391 19.4 32.900391 20L32.900391 26.199219C32.900391 26.699219 32.599609 27.099219 32.099609 27.199219L28.699219 28.099609L28.400391 28.199219C27.100391 28.599219 26.100391 29.699609 25.900391 31.099609L25.900391 32.099609C26.200391 33.899609 27.799609 35.099609 29.599609 35.099609L29.699219 35.099609C32.499219 35.099609 34.800781 32.8 34.800781 30L34.800781 13C34.975781 12.475 34.5375 12.027148 34.023438 11.990234 z" />
</svg>