<?xml version="1.0" encoding="utf-8"?>
<svg xmlns="http://www.w3.org/2000/svg" viewBox="0 0 50 50" width="515" height="515">
  <path d="M25 0C21.199219 0 16.605469 0.886719 16.03125 1C16.011719 1.003906 15.914063 1 15.90625 1C15.84375 1.003906 15.78125 1.015625 15.71875 1.03125C15.6875 1.039063 15.65625 1.050781 15.625 1.0625C15.242188 1.148438 14.945313 1.449219 14.863281 1.832031C14.785156 2.214844 14.933594 2.609375 15.25 2.84375C15.46875 3.378906 16.167969 5.160156 16.4375 6.875C14.707031 7.445313 12.09375 8.3125 11.90625 8.375C11.820313 8.394531 11.734375 8.425781 11.65625 8.46875C11.625 8.488281 11.59375 8.507813 11.5625 8.53125C11.28125 8.671875 6.761719 10.996094 4.9375 16.46875C4.574219 17.5625 3.347656 20.925781 2.21875 24.25C1.652344 25.914063 1.09375 27.5625 0.6875 28.9375C0.28125 30.3125 0 31.285156 0 32.125L0 48C0 48.550781 0.449219 49 1 49L8 49C8.550781 49 9 48.550781 9 48L9 33C9 33.125 9.027344 32.882813 9.125 32.59375C9.222656 32.304688 9.378906 31.90625 9.5625 31.46875C9.925781 30.597656 10.410156 29.507813 10.90625 28.46875C10.953125 28.371094 10.953125 28.378906 11 28.28125L11 44C11 44.550781 11.449219 45 12 45L38 45C38.550781 45 39 44.550781 39 44L39 28.28125C39.046875 28.378906 39.046875 28.371094 39.09375 28.46875C39.589844 29.507813 40.074219 30.597656 40.4375 31.46875C40.621094 31.90625 40.777344 32.304688 40.875 32.59375C40.972656 32.882813 41 33.125 41 33L41 48C41 48.550781 41.449219 49 42 49L49 49C49.550781 49 50 48.550781 50 48L50 32.125C50 31.285156 49.71875 30.3125 49.3125 28.9375C48.90625 27.5625 48.347656 25.914063 47.78125 24.25C46.652344 20.925781 45.425781 17.5625 45.0625 16.46875C43.332031 11.277344 39.265625 8.980469 38.59375 8.625C38.5625 8.601563 38.53125 8.582031 38.5 8.5625C38.476563 8.550781 38.34375 8.46875 38.34375 8.46875C38.253906 8.421875 38.160156 8.390625 38.0625 8.375C37.839844 8.300781 35.117188 7.378906 33.46875 6.84375C33.613281 4.972656 34 2.15625 34 2.15625C34 2.144531 34 2.136719 34 2.125C34 2.105469 34 2.082031 34 2.0625C34 2.050781 34 2.042969 34 2.03125C34 2.011719 34 1.988281 34 1.96875C34 1.957031 34 1.949219 34 1.9375C34 1.90625 34 1.875 34 1.84375C34 1.832031 34 1.824219 34 1.8125C33.992188 1.792969 33.980469 1.769531 33.96875 1.75C33.96875 1.738281 33.96875 1.730469 33.96875 1.71875C33.960938 1.699219 33.949219 1.675781 33.9375 1.65625C33.9375 1.644531 33.9375 1.636719 33.9375 1.625C33.929688 1.605469 33.917969 1.582031 33.90625 1.5625C33.894531 1.550781 33.886719 1.542969 33.875 1.53125C33.867188 1.511719 33.855469 1.488281 33.84375 1.46875C33.835938 1.449219 33.824219 1.425781 33.8125 1.40625C33.800781 1.394531 33.792969 1.386719 33.78125 1.375C33.773438 1.355469 33.761719 1.332031 33.75 1.3125C33.738281 1.3125 33.730469 1.3125 33.71875 1.3125C33.699219 1.289063 33.679688 1.269531 33.65625 1.25C33.644531 1.238281 33.636719 1.230469 33.625 1.21875C33.613281 1.207031 33.605469 1.199219 33.59375 1.1875C33.582031 1.175781 33.574219 1.167969 33.5625 1.15625C33.542969 1.144531 33.519531 1.132813 33.5 1.125C33.488281 1.125 33.480469 1.125 33.46875 1.125C33.449219 1.113281 33.425781 1.101563 33.40625 1.09375C33.394531 1.082031 33.386719 1.074219 33.375 1.0625C33.355469 1.0625 33.332031 1.0625 33.3125 1.0625C33.292969 1.050781 33.269531 1.039063 33.25 1.03125C33.25 1.03125 33.21875 1.03125 33.21875 1.03125C33.1875 1.019531 33.15625 1.007813 33.125 1C33.113281 0.996094 33.050781 1.003906 33.03125 1C32.472656 0.867188 28.75 0 25 0 Z M 25 2C26.980469 2 28.996094 2.273438 30.5 2.53125L28.125 4.1875C27.949219 4.308594 27.820313 4.484375 27.75 4.6875C27.75 4.6875 26.414063 9.1875 25 15.5C23.5625 9.15625 22.25 4.6875 22.25 4.6875C22.179688 4.453125 22.023438 4.253906 21.8125 4.125L19 2.53125C20.777344 2.277344 23.054688 2 25 2 Z M 31.75 4.0625C31.582031 5.296875 31.414063 6.246094 31.375 7.5C31.355469 7.957031 31.652344 8.371094 32.09375 8.5C33.078125 8.796875 35.824219 9.738281 36.78125 10.0625C36.476563 11.34375 35.070313 17.9375 36.9375 23.8125C36.929688 23.949219 36.953125 24.089844 37 24.21875L37 43L13 43L13 24.1875C13 24.167969 13 24.144531 13 24.125C13.007813 24.113281 13.023438 24.105469 13.03125 24.09375C13.042969 24.0625 13.054688 24.03125 13.0625 24C14.414063 21.339844 14.378906 17.824219 14.0625 14.84375C13.78125 12.199219 13.351563 10.722656 13.1875 10.0625C14.074219 9.761719 16.695313 8.886719 17.90625 8.5C18.347656 8.371094 18.644531 7.957031 18.625 7.5C18.570313 6.363281 18.203125 5.234375 17.875 4.21875L20.4375 5.65625C20.585938 6.117188 22.3125 11.34375 24.03125 20.125C24.152344 20.566406 24.554688 20.867188 25.011719 20.863281C25.46875 20.855469 25.863281 20.539063 25.96875 20.09375C27.613281 11.351563 29.386719 6.050781 29.53125 5.625 Z M 11.4375 10.9375C11.65625 11.921875 11.902344 13.277344 12.09375 15.0625C12.402344 17.980469 12.289063 21.402344 11.21875 23.34375C11.179688 23.402344 11.148438 23.464844 11.125 23.53125C11.101563 23.582031 11.078125 23.632813 11.0625 23.6875C10.949219 23.90625 10.042969 25.636719 9.09375 27.625C8.589844 28.683594 8.074219 29.757813 7.6875 30.6875C7.496094 31.152344 7.339844 31.570313 7.21875 31.9375C7.097656 32.304688 7 32.574219 7 33L7 47L2 47L2 32.125C2 31.996094 2.234375 30.859375 2.625 29.53125C3.015625 28.203125 3.53125 26.554688 4.09375 24.90625C5.214844 21.609375 6.445313 18.289063 6.84375 17.09375C7.9375 13.808594 10.128906 11.859375 11.4375 10.9375 Z M 38.625 11C39.941406 11.941406 42.082031 13.867188 43.15625 17.09375C43.554688 18.289063 44.785156 21.609375 45.90625 24.90625C46.46875 26.554688 46.984375 28.203125 47.375 29.53125C47.765625 30.859375 48 31.996094 48 32.125L48 47L43 47L43 33C43 32.574219 42.902344 32.304688 42.78125 31.9375C42.660156 31.570313 42.503906 31.152344 42.3125 30.6875C41.925781 29.757813 41.410156 28.683594 40.90625 27.625C39.949219 25.617188 39.03125 23.839844 38.9375 23.65625C37.425781 19.417969 38.164063 13.605469 38.625 11Z" />
</svg>