<?xml version="1.0" encoding="utf-8"?>
<svg xmlns="http://www.w3.org/2000/svg" viewBox="0 0 50 50" width="515" height="515">
  <path d="M6.6992188 4C5.2066261 4 4 5.2066262 4 6.6992188L4 43.300781C4 44.40234 4.7546537 45.165751 5.6992188 45.585938L5.6992188 46.099609L43.300781 46.099609C44.793374 46.099609 46 44.892983 46 43.400391L46 6.6992188C46 5.2066261 44.867057 4 43.400391 4L6.6992188 4 z M 6.6992188 6L43.400391 6C43.533724 6 44 6.3918113 44 6.6992188L44 43.400391C44 43.707798 43.608189 44.099609 43.300781 44.099609L7.6992188 44.099609L7.6992188 44L6.6992188 44C6.3918112 44 6 43.608189 6 43.300781L6 6.6992188C6 6.3918112 6.3918113 6 6.6992188 6 z M 23 23L23 35.599609C23 37.499609 22.3 38 21 38C19.6 38 18.699609 37.199609 18.099609 36.099609L15 38C15.9 39.9 18.099219 42 21.199219 42C24.699219 42 27 40.199219 27 36.199219L27 23L23 23 z M 35.400391 23.099609C32.000391 23.099609 29.800781 25.199609 29.800781 28.099609C29.800781 31.199609 31.600391 32.600781 34.400391 33.800781C36.000391 34.400781 38.2 35.099219 38 36.699219C38 37.799219 37.199609 38.599609 35.599609 38.599609C33.699609 38.599609 32.8 37.3 32 36L28.900391 38.099609C30.000391 40.299609 32.099609 42.099609 35.599609 42.099609C39.199609 42.099609 41.900391 40.200781 41.900391 36.800781C42.000391 33.300781 39.100781 31.700391 35.800781 30.400391C34.200781 29.700391 33.5 29.199609 33.5 28.099609C33.5 27.199609 34.200781 26.5 35.300781 26.5C36.400781 26.5 37.100781 26.899609 37.800781 28.099609L40.800781 26.199219C39.600781 23.899219 37.800391 23.099609 35.400391 23.099609 z" />
</svg>