<?xml version="1.0" encoding="utf-8"?>
<svg xmlns="http://www.w3.org/2000/svg" viewBox="0 0 50 50" width="515" height="515">
  <path d="M32.9375 1.9375C32.875 1.953125 32.808594 1.972656 32.75 2L16 2C15.96875 2 15.9375 2 15.90625 2C15.761719 2.023438 15.621094 2.074219 15.5 2.15625L0.5 11.15625C0.0742188 11.402344 -0.109375 11.917969 0.0625 12.375L4.0625 22.375C4.265625 22.878906 4.835938 23.128906 5.34375 22.9375L10 21.1875L10 47C10 47.550781 10.449219 48 11 48L39 48C39.550781 48 40 47.550781 40 47L40 21.1875L44.65625 22.9375C45.164063 23.128906 45.734375 22.878906 45.9375 22.375L49.9375 12.375C50.109375 11.917969 49.925781 11.402344 49.5 11.15625L34.5 2.15625C34.351563 2.0625 34.175781 2.007813 34 2L33.40625 2C33.257813 1.941406 33.097656 1.921875 32.9375 1.9375 Z M 16.25 4L16.5625 4L24.25 12.65625C24.441406 12.871094 24.714844 12.996094 25 12.996094C25.285156 12.996094 25.558594 12.871094 25.75 12.65625L33.4375 4L33.75 4L44.34375 10.34375L41.84375 16.5625C41.667969 16.898438 41.695313 17.308594 41.917969 17.617188C42.144531 17.925781 42.523438 18.078125 42.898438 18.015625C43.273438 17.949219 43.578125 17.679688 43.6875 17.3125L46.0625 11.40625L47.75 12.40625L44.4375 20.71875L39.34375 18.8125C39.039063 18.699219 38.695313 18.746094 38.429688 18.929688C38.160156 19.117188 38 19.421875 38 19.75L38 46L12 46L12 19.75C12 19.421875 11.839844 19.117188 11.570313 18.929688C11.304688 18.746094 10.960938 18.699219 10.65625 18.8125L5.5625 20.71875L2.25 12.40625L3.9375 11.40625L6.3125 17.3125C6.421875 17.679688 6.726563 17.949219 7.101563 18.015625C7.476563 18.078125 7.855469 17.925781 8.082031 17.617188C8.304688 17.308594 8.332031 16.898438 8.15625 16.5625L5.65625 10.34375 Z M 19.21875 4L30.78125 4L25 10.5 Z M 19.71875 21C19.167969 21.078125 18.78125 21.589844 18.859375 22.140625C18.9375 22.691406 19.449219 23.078125 20 23L20 29C19.96875 29 19.9375 29 19.90625 29C19.875 29 19.84375 29 19.8125 29C19.261719 29.050781 18.855469 29.542969 18.90625 30.09375C18.957031 30.644531 19.449219 31.050781 20 31L22 31C22.359375 31.003906 22.695313 30.816406 22.878906 30.503906C23.058594 30.191406 23.058594 29.808594 22.878906 29.496094C22.695313 29.183594 22.359375 28.996094 22 29L22 22C22 21.449219 21.550781 21 21 21L20 21C19.96875 21 19.9375 21 19.90625 21C19.875 21 19.84375 21 19.8125 21C19.78125 21 19.75 21 19.71875 21 Z M 28 21C26.355469 21 25 22.355469 25 24L25 28C25 29.644531 26.355469 31 28 31C29.644531 31 31 29.644531 31 28L31 24C31 22.355469 29.644531 21 28 21 Z M 28 23C28.566406 23 29 23.433594 29 24L29 28C29 28.566406 28.566406 29 28 29C27.433594 29 27 28.566406 27 28L27 24C27 23.433594 27.433594 23 28 23Z" />
</svg>