<?xml version="1.0" encoding="utf-8"?>
<svg xmlns="http://www.w3.org/2000/svg" viewBox="0 0 50 50" width="515" height="515">
  <path d="M20 2C18.355469 2 17 3.355469 17 5L17 7L4.917969 7C3.308594 7 2 8.296875 2 9.890625L2 40.109375C2 41.703125 3.308594 43 4.917969 43L28.757813 43L29.667969 42.09375C29.460938 41.738281 29.289063 41.371094 29.117188 41L4.917969 41C4.410156 41 4 40.601563 4 40.109375L4 27.832031C4.289063 27.933594 4.597656 28 4.917969 28L31.078125 28C31.761719 27.242188 32.53125 26.566406 33.378906 26L4.917969 26C4.410156 26 4 25.550781 4 25L4 9.890625C4 9.398438 4.410156 9 4.917969 9L17.832031 9C17.941406 9.019531 18.050781 9.019531 18.15625 9L31.832031 9C31.941406 9.019531 32.050781 9.019531 32.15625 9L45.082031 9C45.589844 9 46 9.398438 46 9.890625L46 25.628906C46.714844 26.046875 47.386719 26.53125 48 27.082031L48 9.890625C48 8.296875 46.691406 7 45.082031 7L33 7L33 5C33 3.355469 31.644531 2 30 2 Z M 20 4L30 4C30.5625 4 31 4.4375 31 5L31 7L19 7L19 5C19 4.4375 19.4375 4 20 4 Z M 25 20C23.894531 20 23 20.894531 23 22C23 23.105469 23.894531 24 25 24C26.105469 24 27 23.105469 27 22C27 20.894531 26.105469 20 25 20 Z M 40 26C34.488281 26 30 30.488281 30 36C30 38.398438 30.851563 40.597656 32.265625 42.324219L26.292969 48.292969L27.707031 49.707031L33.675781 43.734375C35.402344 45.148438 37.601563 46 40 46C45.511719 46 50 41.511719 50 36C50 30.488281 45.511719 26 40 26 Z M 40 28C44.429688 28 48 31.570313 48 36C48 40.429688 44.429688 44 40 44C35.570313 44 32 40.429688 32 36C32 31.570313 35.570313 28 40 28Z" />
</svg>