<?xml version="1.0" encoding="utf-8"?>
<svg xmlns="http://www.w3.org/2000/svg" viewBox="0 0 50 50" width="515" height="515">
  <path d="M25 2C12.308594 2 2 12.308594 2 25C2 37.691406 12.308594 48 25 48C37.691406 48 48 37.691406 48 25C48 12.308594 37.691406 2 25 2 Z M 25 4C36.609375 4 46 13.390625 46 25C46 36.609375 36.609375 46 25 46C13.390625 46 4 36.609375 4 25C4 13.390625 13.390625 4 25 4 Z M 22 11C20.90625 11 20 11.90625 20 13L20 20L13 20C11.90625 20 11 20.90625 11 22L11 28C11 29.09375 11.90625 30 13 30L20 30L20 37C20 38.09375 20.90625 39 22 39L28 39C29.09375 39 30 38.09375 30 37L30 30L37 30C38.09375 30 39 29.09375 39 28L39 22C39 20.90625 38.09375 20 37 20L30 20L30 13C30 11.90625 29.09375 11 28 11 Z M 22 13L28 13L28 22L37 22L37 28L28 28L28 37L22 37L22 28L13 28L13 22L22 22Z" />
</svg>