<?xml version="1.0" encoding="utf-8"?>
<svg xmlns="http://www.w3.org/2000/svg" viewBox="0 0 50 50" width="515" height="515">
  <path d="M26 3C22.145851 3 19 6.1458514 19 10C19 13.513828 21.617539 16.430748 25 16.919922L25 24.080078C21.945034 24.521851 19.521851 26.945034 19.080078 30L15 30L15 28C15 26.904545 14.095455 26 13 26L10 26C8.9045455 26 8 26.904545 8 28L8 30L6 30C3.8045455 30 2 31.804545 2 34L2 43C2 45.195455 3.8045455 47 6 47L44 47C46.195455 47 48 45.195455 48 43L48 34C48 31.804545 46.195455 30 44 30L32.919922 30C32.478149 26.945034 30.054966 24.521851 27 24.080078L27 16.919922C30.382461 16.430748 33 13.513828 33 10C33 6.1458514 29.854149 3 26 3 z M 26 5C28.773268 5 31 7.2267316 31 10C31 12.773268 28.773268 15 26 15C23.226732 15 21 12.773268 21 10C21 7.2267316 23.226732 5 26 5 z M 26 26C28.418215 26 30.325376 27.728131 30.798828 30L21.201172 30C21.674624 27.728131 23.581785 26 26 26 z M 10 28L13 28L13 30L10 30L10 28 z M 6 32L44 32C45.104545 32 46 32.895455 46 34L46 43C46 44.104545 45.104545 45 44 45L6 45C4.8954545 45 4 44.104545 4 43L4 34C4 32.895455 4.8954545 32 6 32 z" />
</svg>