<?xml version="1.0" encoding="utf-8"?>
<svg xmlns="http://www.w3.org/2000/svg" viewBox="0 0 50 50" width="515" height="515">
  <path d="M22.875 4C18.226563 4.085938 15.269531 5.828125 13.96875 8.625C12.730469 11.285156 12.992188 14.65625 13.875 18.28125C13.398438 18.839844 13.019531 19.589844 13.15625 20.71875C13.304688 21.949219 13.644531 22.824219 14.125 23.4375C14.390625 23.773438 14.738281 23.804688 15.0625 23.96875C15.238281 25.015625 15.53125 26.0625 15.96875 26.9375C16.21875 27.441406 16.503906 27.90625 16.78125 28.28125C16.90625 28.449219 17.085938 28.546875 17.21875 28.6875C17.226563 29.921875 17.230469 30.949219 17.125 32.25C16.800781 33.035156 16.042969 33.667969 14.8125 34.28125C13.542969 34.914063 11.890625 35.5 10.21875 36.21875C8.546875 36.9375 6.828125 37.8125 5.46875 39.1875C4.109375 40.5625 3.148438 42.449219 3 44.9375L2.9375 46L14.90625 46L15.3125 44L5.25 44C5.53125 42.585938 6.058594 41.449219 6.90625 40.59375C7.972656 39.515625 9.425781 38.707031 11 38.03125C12.574219 37.355469 14.230469 36.820313 15.6875 36.09375C16.652344 35.613281 17.574219 35.035156 18.25 34.25C18.425781 34.324219 18.617188 34.398438 18.84375 34.46875C19.003906 34.519531 19.1875 34.546875 19.375 34.59375L17.15625 44.78125L16.875 46L29.125 46L28.84375 44.78125L26.625 34.59375C26.8125 34.546875 26.996094 34.519531 27.15625 34.46875C27.410156 34.386719 27.621094 34.304688 27.8125 34.21875C28.527344 35.074219 29.570313 35.789063 30.9375 36.1875C31.292969 36.335938 31.699219 36.269531 31.988281 36.015625C32.277344 35.761719 32.394531 35.367188 32.289063 34.996094C32.183594 34.625 31.878906 34.347656 31.5 34.28125C30.035156 33.851563 29.242188 32.992188 28.9375 32.28125C28.828125 30.964844 28.835938 29.933594 28.84375 28.6875C28.976563 28.542969 29.15625 28.449219 29.28125 28.28125C29.554688 27.902344 29.816406 27.4375 30.0625 26.9375C30.488281 26.0625 30.796875 25.011719 30.96875 23.96875C31.28125 23.804688 31.617188 23.765625 31.875 23.4375C32.355469 22.824219 32.695313 21.949219 32.84375 20.71875C32.976563 19.625 32.609375 18.902344 32.15625 18.34375C32.636719 16.816406 33.269531 14.441406 33.0625 12.03125C32.949219 10.707031 32.5625 9.375 31.6875 8.28125C30.859375 7.246094 29.546875 6.542969 27.875 6.25C26.855469 4.933594 25.144531 4 22.90625 4 Z M 22.90625 6C22.917969 6 22.925781 6 22.9375 6C24.835938 6.011719 26.207031 6.921875 26.625 7.65625L26.875 8.0625L27.34375 8.125C28.757813 8.320313 29.574219 8.84375 30.125 9.53125C30.675781 10.21875 30.972656 11.15625 31.0625 12.21875C31.246094 14.34375 30.570313 16.875 30.125 18.21875L29.875 19L30.5625 19.40625C30.519531 19.378906 30.945313 19.667969 30.84375 20.5C30.726563 21.480469 30.492188 21.988281 30.3125 22.21875C30.132813 22.449219 30.039063 22.4375 30.03125 22.4375L29.1875 22.5L29.09375 23.3125C29 24.175781 28.652344 25.234375 28.25 26.0625C28.046875 26.476563 27.839844 26.839844 27.65625 27.09375C27.472656 27.347656 27.28125 27.488281 27.375 27.4375L26.84375 27.71875L26.84375 28.3125C26.84375 29.691406 26.78125 30.847656 26.90625 32.40625C26.792969 32.449219 26.734375 32.476563 26.5625 32.53125C25.871094 32.75 24.726563 33 23 33C21.273438 33 20.128906 32.75 19.4375 32.53125C19.296875 32.488281 19.253906 32.472656 19.15625 32.4375C19.285156 30.863281 19.21875 29.703125 19.21875 28.3125L19.21875 27.71875L18.6875 27.4375C18.777344 27.484375 18.5625 27.347656 18.375 27.09375C18.1875 26.839844 17.957031 26.476563 17.75 26.0625C17.335938 25.234375 16.996094 24.167969 16.90625 23.3125L16.8125 22.5L15.96875 22.4375C15.960938 22.4375 15.867188 22.449219 15.6875 22.21875C15.507813 21.988281 15.273438 21.480469 15.15625 20.5C15.058594 19.667969 15.480469 19.378906 15.4375 19.40625L16.09375 19L15.90625 18.28125C14.964844 14.652344 14.820313 11.539063 15.78125 9.46875C16.742188 7.40625 18.726563 6.085938 22.90625 6 Z M 40.40625 28.90625C40.183594 28.929688 39.972656 29.03125 39.8125 29.1875L39.1875 29.84375L38.75 30.25L33.4375 35.5625C33.140625 35.804688 33.003906 36.191406 33.089844 36.566406C33.175781 36.9375 33.46875 37.230469 33.839844 37.316406C34.214844 37.402344 34.601563 37.265625 34.84375 36.96875C35.292969 37.953125 36.007813 39.25 37.03125 40.46875L29.1875 48.28125C28.789063 48.679688 28.789063 49.320313 29.1875 49.71875C29.585938 50.117188 30.226563 50.117188 30.625 49.71875L38.4375 41.875C39.65625 42.898438 40.953125 43.613281 41.9375 44.0625C41.640625 44.304688 41.503906 44.691406 41.589844 45.066406C41.675781 45.4375 41.96875 45.730469 42.339844 45.816406C42.714844 45.902344 43.101563 45.765625 43.34375 45.46875L49.71875 39.09375C50.019531 38.804688 50.109375 38.355469 49.941406 37.972656C49.773438 37.589844 49.386719 37.351563 48.96875 37.375C48.707031 37.386719 48.460938 37.496094 48.28125 37.6875C47.753906 36.5 46.878906 34.847656 45.46875 33.4375C44.058594 32.027344 42.40625 31.152344 41.21875 30.625C41.53125 30.328125 41.621094 29.863281 41.4375 29.472656C41.25 29.078125 40.835938 28.851563 40.40625 28.90625 Z M 39.6875 32.15625C40.390625 32.421875 42.429688 33.214844 44.0625 34.84375C45.695313 36.472656 46.488281 38.515625 46.75 39.21875L45.125 40.875L43.46875 42.53125C42.796875 42.273438 40.824219 41.46875 39.25 39.96875C39.246094 39.964844 39.253906 39.941406 39.25 39.9375C39.1875 39.855469 39.113281 39.78125 39.03125 39.71875C38.984375 39.671875 38.929688 39.628906 38.875 39.59375C37.414063 38.03125 36.628906 36.097656 36.375 35.4375L38.03125 33.8125 Z M 21.34375 34.9375C21.84375 34.980469 22.390625 35 23 35C23.609375 35 24.15625 34.980469 24.65625 34.9375L26.625 44L19.375 44Z" />
</svg>