<?xml version="1.0" encoding="utf-8"?>
<svg xmlns="http://www.w3.org/2000/svg" viewBox="0 0 50 50" width="515" height="515">
  <path d="M25 2C22.25 2 20 4.25 20 7C20 9.75 22.25 12 25 12C27.75 12 30 9.75 30 7C30 4.25 27.75 2 25 2 Z M 25 4C26.667969 4 28 5.332031 28 7C28 8.667969 26.667969 10 25 10C23.332031 10 22 8.667969 22 7C22 5.332031 23.332031 4 25 4 Z M 10 9.03125C9.625 9.027344 9.253906 9.082031 8.90625 9.21875C8.191406 9.503906 7.574219 10.058594 7.25 10.8125C6.597656 12.324219 7.300781 14.101563 8.8125 14.75C8.824219 14.761719 8.832031 14.769531 8.84375 14.78125L20 19.03125L20 24.28125L10.96875 33.3125C9.679688 34.601563 9.679688 36.742188 10.96875 38.03125C12.257813 39.320313 14.398438 39.320313 15.6875 38.03125L25 28.71875L34.3125 38.03125C35.601563 39.320313 37.742188 39.320313 39.03125 38.03125C40.320313 36.742188 40.320313 34.601563 39.03125 33.3125L30 24.28125L30 19.03125L41.15625 14.78125C41.167969 14.769531 41.175781 14.761719 41.1875 14.75C42.699219 14.101563 43.398438 12.324219 42.75 10.8125C42.109375 9.324219 40.371094 8.644531 38.875 9.25L38.875 9.21875L38.8125 9.25L28.78125 13L21.21875 13L11.1875 9.25L11.125 9.21875L11.125 9.25C10.757813 9.101563 10.375 9.035156 10 9.03125 Z M 10 11C10.132813 11.003906 10.277344 11.039063 10.40625 11.09375C10.417969 11.09375 10.425781 11.09375 10.4375 11.09375L20.6875 14.9375C20.796875 14.976563 20.914063 15 21.03125 15L28.96875 15C29.085938 15 29.203125 14.976563 29.3125 14.9375L39.5625 11.09375C39.574219 11.09375 39.582031 11.09375 39.59375 11.09375C40.109375 10.871094 40.683594 11.074219 40.90625 11.59375C41.125 12.105469 40.9375 12.675781 40.4375 12.90625C40.429688 12.910156 40.414063 12.902344 40.40625 12.90625L28.65625 17.40625C28.261719 17.550781 28 17.925781 28 18.34375L28 24.71875C28.003906 24.976563 28.101563 25.222656 28.28125 25.40625L37.625 34.75C38.152344 35.277344 38.152344 36.097656 37.625 36.625C37.097656 37.152344 36.277344 37.152344 35.75 36.625L25.71875 26.59375C25.53125 26.398438 25.269531 26.289063 25 26.289063C24.730469 26.289063 24.46875 26.398438 24.28125 26.59375L14.25 36.625C13.722656 37.152344 12.902344 37.152344 12.375 36.625C11.847656 36.097656 11.847656 35.277344 12.375 34.75L21.71875 25.40625C21.898438 25.222656 21.996094 24.976563 22 24.71875L22 18.34375C22 17.925781 21.738281 17.550781 21.34375 17.40625L9.59375 12.90625C9.585938 12.902344 9.570313 12.910156 9.5625 12.90625C9.0625 12.675781 8.875 12.101563 9.09375 11.59375C9.207031 11.335938 9.390625 11.15625 9.625 11.0625C9.742188 11.015625 9.867188 10.996094 10 11 Z M 25 39C21.589844 39 18.71875 39.8125 18.71875 39.8125C18.183594 39.96875 17.875 40.527344 18.03125 41.0625C18.1875 41.597656 18.746094 41.90625 19.28125 41.75C19.28125 41.75 21.910156 41 25 41C28.089844 41 30.71875 41.75 30.71875 41.75C31.253906 41.90625 31.8125 41.597656 31.96875 41.0625C32.125 40.527344 31.816406 39.96875 31.28125 39.8125C31.28125 39.8125 28.410156 39 25 39 Z M 25 43C17.152344 43 10.5625 46.09375 10.5625 46.09375C10.0625 46.335938 9.851563 46.9375 10.09375 47.4375C10.335938 47.9375 10.9375 48.148438 11.4375 47.90625C11.4375 47.90625 17.679688 45 25 45C32.320313 45 38.5625 47.90625 38.5625 47.90625C39.0625 48.148438 39.664063 47.9375 39.90625 47.4375C40.148438 46.9375 39.9375 46.335938 39.4375 46.09375C39.4375 46.09375 32.847656 43 25 43Z" />
</svg>