<?xml version="1.0" encoding="utf-8"?>
<svg xmlns="http://www.w3.org/2000/svg" viewBox="0 0 50 50" width="515" height="515">
  <path d="M15 0C6.730469 0 0 6.730469 0 15C0 23.269531 6.730469 30 15 30C16.394531 30 17.738281 29.792969 19.019531 29.4375L19.292969 29.707031L24.585938 35L29 35L29 40L34 40L34 45L39 45L39 50L46.414063 50L50 46.414063L50 45.792969L47.890625 38.472656L29.707031 20.292969L29.203125 19.785156C29.710938 18.28125 30 16.675781 30 15C30 6.730469 23.269531 0 15 0 Z M 15 2C22.1875 2 28 7.8125 28 15C28 22.1875 22.1875 28 15 28C7.8125 28 2 22.1875 2 15C2 7.8125 7.8125 2 15 2 Z M 12.5 7C10.027344 7 8 9.027344 8 11.5C7.996094 13.972656 10.027344 16 12.5 16C14.972656 16 17 13.972656 17 11.5C17 9.027344 14.972656 6.996094 12.5 7 Z M 12.5 9C13.894531 8.996094 15 10.105469 15 11.5C15 12.894531 13.894531 14 12.5 14C11.105469 14 9.996094 12.894531 10 11.5C10 10.105469 11.105469 9 12.5 9 Z M 28.363281 21.777344L46.109375 39.527344L47.394531 43.984375L31.707031 28.292969L31 27.585938L29.585938 29L47.085938 46.5L45.585938 48L41 48L41 43L36 43L36 38L31 38L31 33L25.414063 33L21.101563 28.6875C24.242188 27.28125 26.808594 24.832031 28.363281 21.777344Z" />
</svg>