<?xml version="1.0" encoding="utf-8"?>
<svg xmlns="http://www.w3.org/2000/svg" viewBox="0 0 50 50" width="515" height="515">
  <path d="M36.9375 2.84375C36.9375 5.9375 36.214844 7.304688 35.28125 8.0625C34.347656 8.820313 32.925781 9.058594 31.3125 9.28125C29.699219 9.503906 27.898438 9.710938 26.40625 10.90625C25.167969 11.898438 24.3125 13.539063 24.0625 16L4 16C1.800781 16 0 17.800781 0 20L0 40C0 42.199219 1.800781 44 4 44L46 44C48.199219 44 50 42.199219 50 40L50 20C50 17.800781 48.199219 16 46 16L26.09375 16C26.308594 14.0625 26.910156 13.066406 27.65625 12.46875C28.585938 11.722656 29.976563 11.503906 31.59375 11.28125C33.210938 11.058594 35.039063 10.839844 36.53125 9.625C38.023438 8.410156 38.9375 6.269531 38.9375 2.84375 Z M 4 18L46 18C47.117188 18 48 18.882813 48 20L48 40C48 41.117188 47.117188 42 46 42L4 42C2.882813 42 2 41.117188 2 40L2 20C2 18.882813 2.882813 18 4 18 Z M 5 22L5 26L9 26L9 22 Z M 11 22L11 26L15 26L15 22 Z M 17 22L17 26L21 26L21 22 Z M 23 22L23 26L27 26L27 22 Z M 29 22L29 26L33 26L33 22 Z M 35 22L35 26L39 26L39 22 Z M 41 22L41 26L45 26L45 22 Z M 5 28L5 32L12 32L12 28 Z M 14 28L14 32L18 32L18 28 Z M 20 28L20 32L24 32L24 28 Z M 26 28L26 32L30 32L30 28 Z M 32 28L32 32L36 32L36 28 Z M 38 28L38 32L45 32L45 28 Z M 5 34L5 38L9 38L9 34 Z M 11 34L11 38L15 38L15 34 Z M 17 34L17 38L33 38L33 34 Z M 35 34L35 38L39 38L39 34 Z M 41 34L41 38L45 38L45 34Z" />
</svg>