<?xml version="1.0" encoding="utf-8"?>
<svg xmlns="http://www.w3.org/2000/svg" viewBox="0 0 50 50" width="515" height="515">
  <path d="M5 3C3.90625 3 3 3.90625 3 5L3 9C3 10.09375 3.90625 11 5 11L13 11C14.09375 11 15 10.09375 15 9L15 5C15 3.90625 14.09375 3 13 3 Z M 21 3C19.90625 3 19 3.90625 19 5L19 9C19 10.09375 19.90625 11 21 11L29 11C30.09375 11 31 10.09375 31 9L31 5C31 3.90625 30.09375 3 29 3 Z M 37 3C35.90625 3 35 3.90625 35 5L35 9C35 10.09375 35.90625 11 37 11L45 11C46.09375 11 47 10.09375 47 9L47 5C47 3.90625 46.09375 3 45 3 Z M 5 5L13 5L13 9L5 9 Z M 21 5L29 5L29 9L21 9 Z M 37 5L45 5L45 9L37 9 Z M 5 15C3.90625 15 3 15.90625 3 17L3 21C3 22.09375 3.90625 23 5 23L13 23C14.09375 23 15 22.09375 15 21L15 17C15 15.90625 14.09375 15 13 15 Z M 21 15C19.90625 15 19 15.90625 19 17L19 21C19 22.09375 19.90625 23 21 23L29 23C30.09375 23 31 22.09375 31 21L31 17C31 15.90625 30.09375 15 29 15 Z M 37 15C35.90625 15 35 15.90625 35 17L35 21C35 22.09375 35.90625 23 37 23L45 23C46.09375 23 47 22.09375 47 21L47 17C47 15.90625 46.09375 15 45 15 Z M 5 17L13 17L13 21L5 21 Z M 21 17L29 17L29 21L21 21 Z M 37 17L45 17L45 21L37 21 Z M 5 27C3.90625 27 3 27.90625 3 29L3 33C3 34.09375 3.90625 35 5 35L13 35C14.09375 35 15 34.09375 15 33L15 29C15 27.90625 14.09375 27 13 27 Z M 21 27C19.90625 27 19 27.90625 19 29L19 33C19 34.09375 19.90625 35 21 35L29 35C30.09375 35 31 34.09375 31 33L31 29C31 27.90625 30.09375 27 29 27 Z M 37 27C35.90625 27 35 27.90625 35 29L35 33C35 34.09375 35.90625 35 37 35L45 35C46.09375 35 47 34.09375 47 33L47 29C47 27.90625 46.09375 27 45 27 Z M 5 29L13 29L13 33L5 33 Z M 21 29L29 29L29 33L21 33 Z M 37 29L45 29L45 33L37 33 Z M 21 39C19.90625 39 19 39.90625 19 41L19 45C19 46.09375 19.90625 47 21 47L29 47C30.09375 47 31 46.09375 31 45L31 41C31 39.90625 30.09375 39 29 39 Z M 21 41L29 41L29 45L21 45Z" />
</svg>