<?xml version="1.0" encoding="utf-8"?>
<svg xmlns="http://www.w3.org/2000/svg" viewBox="0 0 50 50" width="515" height="515">
  <path d="M13.8125 2C13.335938 2.089844 12.992188 2.511719 13 3L13 21C13 21.550781 13.449219 22 14 22L23.1875 22C24.703125 22 26.132813 22.601563 27.21875 23.65625C27.238281 23.675781 27.261719 23.699219 27.28125 23.71875C27.300781 23.742188 27.320313 23.761719 27.34375 23.78125C27.355469 23.78125 27.363281 23.78125 27.375 23.78125C27.441406 23.84375 27.515625 23.894531 27.59375 23.9375C27.605469 23.9375 27.613281 23.9375 27.625 23.9375C27.644531 23.949219 27.667969 23.960938 27.6875 23.96875C27.699219 23.96875 27.707031 23.96875 27.71875 23.96875C27.96875 24.046875 28.238281 24.023438 28.46875 23.90625C28.5625 23.855469 28.644531 23.792969 28.71875 23.71875C28.742188 23.699219 28.761719 23.679688 28.78125 23.65625C29.867188 22.601563 31.296875 22 32.8125 22L42 22C42.550781 22 43 21.550781 43 21L43 3C43 2.449219 42.550781 2 42 2L31 2C29.800781 2 28.734375 2.558594 28 3.40625C27.265625 2.558594 26.199219 2 25 2L14 2C13.96875 2 13.9375 2 13.90625 2C13.875 2 13.84375 2 13.8125 2 Z M 15 4L25 4C26.117188 4 27 4.882813 27 6L27 21.15625C25.824219 20.480469 24.566406 20 23.1875 20L15 20 Z M 31 4L41 4L41 20L32.8125 20C31.433594 20 30.175781 20.480469 29 21.15625L29 6C29 4.882813 29.882813 4 31 4 Z M 44.15625 26.96875C43.976563 26.972656 43.804688 27 43.625 27.03125C43.140625 27.109375 42.65625 27.285156 42.21875 27.5625L31 34.5C30.378906 34.074219 29.660156 33.699219 28.875 33.34375C27.363281 32.660156 22.5625 30.667969 18.90625 29.0625C17.34375 28.375 15.671875 28.015625 14 28C12.328125 27.984375 10.640625 28.3125 9.0625 28.96875L2.625 31.65625C2.257813 31.765625 1.988281 32.070313 1.921875 32.445313C1.859375 32.820313 2.011719 33.199219 2.320313 33.425781C2.628906 33.648438 3.039063 33.675781 3.375 33.5L9.84375 30.8125C12.492188 29.707031 15.464844 29.722656 18.09375 30.875C21.785156 32.496094 26.683594 34.535156 28.0625 35.15625C28.859375 35.515625 29.519531 35.867188 30 36.21875C30.121094 36.441406 30.324219 36.609375 30.5625 36.6875C30.886719 37.03125 31 37.339844 31 37.6875C31 38.46875 30.78125 38.605469 30.4375 38.78125C30.09375 38.957031 29.570313 39 29.21875 39C29.011719 39 28.082031 38.835938 27.0625 38.5625C26.042969 38.289063 24.835938 37.933594 23.6875 37.5625C21.390625 36.820313 19.34375 36.0625 19.34375 36.0625C19.003906 35.914063 18.609375 35.96875 18.320313 36.203125C18.03125 36.433594 17.894531 36.804688 17.964844 37.171875C18.035156 37.535156 18.300781 37.828125 18.65625 37.9375C18.65625 37.9375 20.757813 38.679688 23.09375 39.4375C24.261719 39.816406 25.488281 40.210938 26.5625 40.5C27.636719 40.789063 28.480469 41 29.21875 41C29.6875 41 30.523438 40.972656 31.375 40.53125C32.226563 40.089844 33 39.078125 33 37.6875C33 37.035156 32.773438 36.457031 32.4375 35.9375L43.28125 29.28125C43.28125 29.269531 43.28125 29.261719 43.28125 29.25C44.117188 28.722656 45.191406 28.976563 45.71875 29.8125C46.230469 30.625 46.007813 31.671875 45.21875 32.21875L27.5625 44.28125C26.445313 45.042969 25.003906 45.171875 23.75 44.65625L14 40.65625C11.308594 39.542969 8.222656 39.902344 5.875 41.625L2.40625 44.1875C1.957031 44.515625 1.859375 45.144531 2.1875 45.59375C2.515625 46.042969 3.144531 46.140625 3.59375 45.8125L7.0625 43.25C8.851563 41.9375 11.199219 41.652344 13.25 42.5L23 46.53125C24.871094 47.304688 27.015625 47.078125 28.6875 45.9375L46.375 33.875C48.03125 32.734375 48.480469 30.453125 47.40625 28.75C46.679688 27.601563 45.425781 26.953125 44.15625 26.96875Z" />
</svg>