<?xml version="1.0" encoding="utf-8"?>
<svg xmlns="http://www.w3.org/2000/svg" viewBox="0 0 50 50" width="515" height="515">
  <path d="M11.085938 7C6.132813 7 2 10.660156 2 15.285156C2 19.75 4.546875 24.238281 7.597656 27.613281C7.242188 28.480469 7 29.261719 7 30C7 34 9.175781 37.328125 12.414063 39.558594C15.652344 41.789063 19.960938 43 24.5 43C29.039063 43 33.347656 41.789063 36.585938 39.558594C39.824219 37.328125 42 34 42 30C42 29.261719 41.757813 28.480469 41.402344 27.613281C44.453125 24.242188 47 19.75 47 15.285156C47 10.660156 42.867188 7 37.914063 7C34.371094 7 31.277344 8.855469 29.78125 11.625C28.269531 11.230469 26.464844 11 24.5 11C22.539063 11 20.734375 11.226563 19.21875 11.621094C17.722656 8.855469 14.628906 7 11.085938 7 Z M 11.085938 9C13.796875 9 16.035156 10.390625 17.222656 12.316406C16.460938 12.675781 15.824219 13.117188 15.402344 13.746094L15.390625 13.765625L15.386719 13.769531C15.386719 13.769531 15.382813 13.769531 15.382813 13.769531C15.382813 13.773438 15.378906 13.777344 15.375 13.78125L15.363281 13.796875C15.363281 13.796875 15.363281 13.800781 15.363281 13.800781L15.359375 13.808594C15.34375 13.832031 15.324219 13.863281 15.296875 13.90625C15.234375 14.003906 15.144531 14.144531 15.03125 14.324219C14.804688 14.679688 14.480469 15.191406 14.09375 15.8125C13.316406 17.0625 12.285156 18.753906 11.25 20.546875C10.273438 22.234375 9.308594 23.992188 8.539063 25.574219C6 22.539063 4 18.710938 4 15.285156C4 11.859375 7.109375 9 11.085938 9 Z M 37.914063 9C41.890625 9 45 11.859375 45 15.285156C45 18.710938 43 22.542969 40.460938 25.578125C39.691406 23.996094 38.726563 22.242188 37.75 20.550781C37.402344 19.945313 37.0625 19.382813 36.71875 18.8125C36.675781 18.734375 36.632813 18.652344 36.589844 18.578125C36.523438 18.46875 36.484375 18.410156 36.421875 18.300781C35.867188 17.378906 35.34375 16.519531 34.90625 15.816406C34.734375 15.542969 34.636719 15.386719 34.496094 15.15625C34.429688 15.050781 34.394531 15.003906 34.335938 14.90625C34.21875 14.722656 34.058594 14.460938 33.96875 14.324219C33.917969 14.242188 33.890625 14.199219 33.847656 14.136719C33.832031 14.105469 33.820313 14.09375 33.804688 14.066406C33.773438 14.019531 33.726563 13.945313 33.703125 13.910156C33.691406 13.886719 33.683594 13.875 33.671875 13.859375C33.65625 13.832031 33.644531 13.816406 33.636719 13.800781C33.636719 13.800781 33.636719 13.796875 33.636719 13.796875L33.625 13.785156C33.621094 13.78125 33.617188 13.773438 33.613281 13.769531L33.613281 13.765625C33.613281 13.765625 33.609375 13.761719 33.609375 13.761719L33.597656 13.746094C33.175781 13.117188 32.539063 12.675781 31.777344 12.316406C32.960938 10.390625 35.203125 9 37.914063 9 Z M 38.332031 12C38.015625 12 37.707031 12.042969 37.414063 12.117188L37.410156 12.117188C37.089844 12.199219 36.78125 12.328125 36.5 12.492188C36.019531 12.769531 35.859375 13.382813 36.136719 13.859375C36.410156 14.335938 37.023438 14.5 37.5 14.222656C37.628906 14.148438 37.765625 14.089844 37.910156 14.050781C38.046875 14.019531 38.1875 14 38.332031 14C38.957031 14 39.488281 14.335938 39.777344 14.832031L39.777344 14.835938C39.917969 15.082031 40 15.359375 40 15.667969C40 15.976563 39.917969 16.253906 39.777344 16.5C39.585938 16.808594 39.582031 17.199219 39.757813 17.515625C39.9375 17.832031 40.273438 18.023438 40.636719 18.023438C41 18.019531 41.332031 17.820313 41.507813 17.5C41.820313 16.960938 42 16.332031 42 15.667969C42 15.003906 41.820313 14.371094 41.507813 13.832031C40.875 12.734375 39.679688 12 38.332031 12 Z M 10.667969 12C9.320313 12 8.125 12.738281 7.492188 13.832031C7.179688 14.371094 7 15.003906 7 15.667969C7 16.332031 7.179688 16.960938 7.492188 17.5C7.667969 17.820313 8 18.019531 8.363281 18.023438C8.726563 18.023438 9.0625 17.832031 9.242188 17.515625C9.417969 17.199219 9.414063 16.808594 9.222656 16.5C9.082031 16.253906 9 15.976563 9 15.667969C9 15.359375 9.082031 15.082031 9.222656 14.835938L9.222656 14.832031C9.511719 14.335938 10.042969 14 10.667969 14C10.8125 14 10.949219 14.019531 11.085938 14.054688C11.234375 14.09375 11.371094 14.148438 11.5 14.222656C11.980469 14.5 12.589844 14.335938 12.867188 13.855469C13.140625 13.378906 12.976563 12.765625 12.5 12.488281C12.21875 12.328125 11.910156 12.199219 11.589844 12.117188L11.585938 12.117188C11.292969 12.042969 10.984375 12 10.667969 12 Z M 24.5 13C26.425781 13 28.191406 13.238281 29.535156 13.621094C29.855469 13.710938 30.148438 13.8125 30.414063 13.921875C30.433594 13.929688 30.453125 13.9375 30.46875 13.945313C31.007813 14.167969 31.421875 14.410156 31.675781 14.609375C31.804688 14.707031 31.894531 14.796875 31.9375 14.863281C31.941406 14.867188 31.945313 14.867188 31.945313 14.871094L31.960938 14.890625C31.96875 14.90625 31.976563 14.917969 31.988281 14.9375C32 14.957031 32.007813 14.96875 32.019531 14.988281C32.078125 15.082031 32.167969 15.21875 32.28125 15.394531C32.4375 15.640625 32.6875 16.046875 32.925781 16.425781C33.402344 17.1875 34.015625 18.183594 34.683594 19.292969C35.113281 20.011719 35.566406 20.765625 36.019531 21.550781C36.027344 21.566406 36.03125 21.578125 36.039063 21.589844C36.492188 22.375 36.941406 23.171875 37.371094 23.957031C37.542969 24.277344 37.695313 24.578125 37.859375 24.886719C38.117188 25.375 38.367188 25.859375 38.59375 26.316406C38.769531 26.667969 38.921875 27 39.070313 27.328125C39.652344 28.644531 40 29.769531 40 30C40 33.289063 38.28125 35.960938 35.453125 37.910156C32.621094 39.859375 28.679688 41 24.5 41C20.320313 41 16.378906 39.859375 13.546875 37.910156C10.71875 35.960938 9 33.289063 9 30C9 29.761719 9.34375 28.644531 9.921875 27.328125C10.074219 26.996094 10.234375 26.652344 10.417969 26.289063C10.617188 25.882813 10.839844 25.457031 11.0625 25.027344C12.699219 21.925781 14.871094 18.351563 16.128906 16.335938C16.339844 15.996094 16.578125 15.621094 16.71875 15.394531C16.832031 15.21875 16.917969 15.082031 16.980469 14.988281C17.007813 14.941406 17.03125 14.90625 17.046875 14.878906C17.050781 14.871094 17.058594 14.867188 17.0625 14.863281C17.105469 14.796875 17.195313 14.710938 17.316406 14.613281C17.328125 14.605469 17.347656 14.59375 17.359375 14.585938C17.613281 14.394531 18.007813 14.164063 18.527344 13.949219C18.546875 13.9375 18.570313 13.929688 18.59375 13.921875C18.855469 13.8125 19.144531 13.710938 19.464844 13.621094C20.808594 13.238281 22.574219 13 24.5 13 Z M 24.5 24C22.03125 24 20 26.03125 20 28.5L20 33.5C20 35.96875 22.03125 38 24.5 38C26.96875 38 29 35.96875 29 33.5L29 28.5C29 26.03125 26.96875 24 24.5 24 Z M 17.5 25C16.671875 25 16 25.671875 16 26.5C16 27.328125 16.671875 28 17.5 28C18.328125 28 19 27.328125 19 26.5C19 25.671875 18.328125 25 17.5 25 Z M 31.5 25C30.671875 25 30 25.671875 30 26.5C30 27.328125 30.671875 28 31.5 28C32.328125 28 33 27.328125 33 26.5C33 25.671875 32.328125 25 31.5 25 Z M 24.5 26C25.878906 26 27 27.121094 27 28.5L27 33.5C27 34.878906 25.878906 36 24.5 36C23.121094 36 22 34.878906 22 33.5L22 28.5C22 27.121094 23.121094 26 24.5 26Z" />
</svg>