<?xml version="1.0" encoding="utf-8"?>
<svg xmlns="http://www.w3.org/2000/svg" viewBox="0 0 50 50" width="515" height="515">
  <path d="M19 6C18.575 6 18.196641 6.2689219 18.056641 6.6699219C17.916641 7.0709219 18.044953 7.51725 18.376953 7.78125C19.155953 8.40225 19.688 9.1783906 20 10.150391L20 26.689453L10.242188 40.882812C9.8221875 41.493812 9.7751406 42.280547 10.119141 42.935547C10.464141 43.592547 11.140813 44 11.882812 44L38.117188 44C38.859187 44 39.534906 43.591547 39.878906 42.935547C40.223906 42.280547 40.177812 41.493812 39.757812 40.882812L30 26.689453L30 10.060547C30.132 9.0175469 30.583891 8.3457187 31.462891 7.8867188C31.870891 7.6737187 32.081656 7.2087188 31.972656 6.7617188C31.861656 6.3137187 31.461 6 31 6L19 6 z M 21.203125 8L28.574219 8C28.277219 8.55 28.087813 9.1797187 28.007812 9.8867188C28.002813 9.9237187 28 9.962 28 10L28 27C28 27.202 28.061781 27.400406 28.175781 27.566406L30.365234 30.75L19.634766 30.75L21.824219 27.566406C21.937219 27.400406 22 27.202 22 27L22 10C22 9.904 21.985984 9.8087969 21.958984 9.7167969C21.775984 9.0967969 21.523125 8.524 21.203125 8 z M 6 14C5.447 14 5 14.448 5 15L5 20.332031C1.964 21.733031 0.024 24.669188 0 27.992188C-0.018 30.417188 0.91128125 32.692438 2.6132812 34.398438C4.2912812 36.077438 6.5393125 37 8.9453125 37L9 37L10.294922 37L11.693359 35L8.9941406 35L8.9511719 35C7.0741719 35 5.3282969 34.285375 4.0292969 32.984375C2.7072969 31.660375 1.986 29.893812 2 28.007812C2.0050923 27.305577 2.1183884 26.631153 2.3261719 26L15.841797 26C15.930994 26.33157 15.992473 26.6712 16 27.021484C16.006 27.319484 16.002953 28.437844 16.001953 28.839844L17.902344 26.121094C17.458344 23.367094 15.26 21.203062 13 20.289062L13 15C13 14.448 12.553 14 12 14L6 14 z M 34 14C33.447 14 33 14.448 33 15L33 22.832031 A 1.0001 1.0001 0 0 0 33 23.158203L33 27.53125L34.939453 30.302734C34.970453 30.205734 35 30.108 35 30L35 24L46 24L46 35L38.222656 35L39.621094 37L47 37C47.553 37 48 36.552 48 36L48 23.167969 A 1.0001 1.0001 0 0 0 48 22.841797L48 18.029297C48.025 17.188297 48.6295 16.292437 49.4375 15.898438C49.8555 15.694437 50.078609 15.229391 49.974609 14.775391C49.869609 14.321391 49.466 14 49 14L34 14 z M 7 16L11 16L11 21C11 21.447 11.296563 21.839891 11.726562 21.962891C12.827729 22.276135 13.948204 23.016409 14.769531 24L3.4433594 24C4.1777437 23.101787 5.1547746 22.379789 6.3476562 21.9375C6.7386563 21.7925 7 21.418 7 21L7 16 z M 35 16L46.568359 16C46.224359 16.613 46.02 17.301 46 18L46 22L35 22L35 16 z M 18.259766 32.75L31.740234 32.75L38.099609 42L11.890625 42.015625L18.259766 32.75 z" />
</svg>