<?xml version="1.0" encoding="utf-8"?>
<svg xmlns="http://www.w3.org/2000/svg" viewBox="0 0 50 50" width="515" height="515">
  <path d="M25 2C23.355469 2 22 3.355469 22 5L22 6L5 6C4.96875 6 4.9375 6 4.90625 6C4.390625 6.046875 3.996094 6.480469 4 7L4 26C4 26.550781 4.449219 27 5 27L22 27L22 42.03125L22.40625 42.3125C22.40625 42.3125 22.722656 42.53125 23.15625 42.6875C23.589844 42.84375 24.203125 43 25 43C25.796875 43 26.410156 42.84375 26.84375 42.6875C27.277344 42.53125 27.59375 42.3125 27.59375 42.3125L28 42.03125L28 27L45 27C45.550781 27 46 26.550781 46 26L46 7C46 6.449219 45.550781 6 45 6L28 6L28 5C28 3.355469 26.644531 2 25 2 Z M 25 4C25.566406 4 26 4.433594 26 5L26 6L24 6L24 5C24 4.433594 24.433594 4 25 4 Z M 6 8L44 8L44 25L6 25 Z M 12.28125 11.78125C10.21875 11.78125 8.875 12.910156 8.875 14.59375C8.875 15.957031 9.683594 16.785156 11.3125 17.125L12.46875 17.375C13.566406 17.609375 14 17.960938 14 18.53125C14 19.207031 13.316406 19.65625 12.34375 19.65625C11.289063 19.65625 10.554688 19.191406 10.46875 18.46875L8.65625 18.46875C8.726563 20.132813 10.121094 21.1875 12.25 21.1875C14.492188 21.1875 15.875 20.082031 15.875 18.28125C15.875 16.894531 15.109375 16.128906 13.3125 15.75L12.21875 15.5C11.171875 15.277344 10.75 14.988281 10.75 14.4375C10.75 13.757813 11.378906 13.3125 12.3125 13.3125C13.214844 13.3125 13.851563 13.792969 13.9375 14.5L15.71875 14.5C15.664063 12.90625 14.25 11.78125 12.28125 11.78125 Z M 20.40625 12.03125L17.3125 20.96875L19.1875 20.96875L19.875 18.8125L23 18.8125L23.6875 20.96875L25.71875 20.96875L22.625 12.03125 Z M 27.5625 12.03125L27.5625 20.96875L33.40625 20.96875L33.40625 19.3125L29.4375 19.3125L29.4375 12.03125 Z M 35.40625 12.03125L35.40625 20.96875L41.34375 20.96875L41.34375 19.34375L37.28125 19.34375L37.28125 17.1875L41.09375 17.1875L41.09375 15.71875L37.28125 15.71875L37.28125 13.625L41.34375 13.625L41.34375 12.03125 Z M 21.40625 13.875L21.5 13.875L22.625 17.375L20.28125 17.375 Z M 24 27L26 27L26 40.84375C25.769531 40.917969 25.488281 41 25 41C24.511719 41 24.234375 40.917969 24 40.84375 Z M 8.8125 32C8.488281 32.066406 8.222656 32.289063 8.09375 32.59375L2.09375 46.59375C1.957031 46.902344 1.984375 47.257813 2.167969 47.542969C2.351563 47.824219 2.664063 47.996094 3 48L47 48C47.335938 47.996094 47.648438 47.824219 47.832031 47.542969C48.015625 47.257813 48.042969 46.902344 47.90625 46.59375L41.90625 32.59375C41.746094 32.234375 41.390625 32.003906 41 32L30 32L30 34L40.34375 34L45.5 46L4.5 46L9.65625 34L20 34L20 32L9 32C8.96875 32 8.9375 32 8.90625 32C8.875 32 8.84375 32 8.8125 32Z" />
</svg>