<?xml version="1.0" encoding="utf-8"?>
<svg xmlns="http://www.w3.org/2000/svg" width="515" height="515" viewBox="0 0 50 50">
  <path d="M25 2C12.308594 2 2 12.308594 2 25C2 37.691406 12.308594 48 25 48C37.691406 48 48 37.691406 48 25C48 12.308594 37.691406 2 25 2 Z M 25 4C36.609375 4 46 13.390625 46 25C46 36.609375 36.609375 46 25 46C13.390625 46 4 36.609375 4 25C4 13.390625 13.390625 4 25 4 Z M 16 12C14.355469 12 13 13.355469 13 15C13 16.644531 14.355469 18 16 18C17.644531 18 19 16.644531 19 15C19 13.355469 17.644531 12 16 12 Z M 16 14C16.5625 14 17 14.4375 17 15C17 15.5625 16.5625 16 16 16C15.4375 16 15 15.5625 15 15C15 14.4375 15.4375 14 16 14 Z M 14 19C13.449219 19 13 19.449219 13 20L13 35C13 35.550781 13.449219 36 14 36L18 36C18.550781 36 19 35.550781 19 35L19 20C19 19.449219 18.550781 19 18 19 Z M 22 19C21.449219 19 21 19.449219 21 20L21 35C21 35.550781 21.449219 36 22 36L26 36C26.550781 36 27 35.550781 27 35L27 27.5C27 26.121094 28.121094 25 29.5 25C30.878906 25 32 26.121094 32 27.5L32 35C32 35.550781 32.449219 36 33 36L37 36C37.550781 36 38 35.550781 38 35L38 26.5C38 22.371094 34.628906 19 30.5 19C29.214844 19 28.058594 19.417969 27 19.988281C26.996094 19.441406 26.546875 19 26 19 Z M 15 21L17 21L17 34L15 34 Z M 23 21L25 21L25 21.816406C25 22.21875 25.238281 22.578125 25.609375 22.738281C25.976562 22.894531 26.40625 22.816406 26.691406 22.535156C27.683594 21.585938 29.015625 21 30.5 21C33.550781 21 36 23.449219 36 26.5L36 34L34 34L34 27.5C34 25.03125 31.96875 23 29.5 23C27.03125 23 25 25.03125 25 27.5L25 34L23 34 Z M 23 21" />
</svg>