<?xml version="1.0" encoding="utf-8"?>
<svg xmlns="http://www.w3.org/2000/svg" viewBox="0 0 50 50" width="515" height="515">
  <path d="M7 9C4.2545455 9 2 11.254545 2 14L2 36C2 38.745455 4.2545455 41 7 41L43 41C45.745455 41 48 38.745455 48 36L48 14C48 11.254545 45.745455 9 43 9L7 9 z M 7 11L43 11C44.654545 11 46 12.345455 46 14L46 16L4 16L4 14C4 12.345455 5.3454545 11 7 11 z M 4 21L46 21L46 36C46 37.654545 44.654545 39 43 39L7 39C5.3454545 39 4 37.654545 4 36L4 21 z M 9 24 A 1.0001 1.0001 0 1 0 9 26L25 26 A 1.0001 1.0001 0 1 0 25 24L9 24 z" />
</svg>