<?xml version="1.0" encoding="utf-8"?>
<svg xmlns="http://www.w3.org/2000/svg" viewBox="0 0 50 50" width="515" height="515">
  <path d="M49.601563 8.898438C49.5 8.601563 49.199219 8.300781 48.898438 8.300781C48.601563 8.199219 48.199219 8.300781 48 8.601563L42.699219 13.898438C42.398438 14.199219 41.800781 14.199219 41.5 13.898438L36.199219 8.601563C35.898438 8.300781 35.898438 7.699219 36.199219 7.398438L41.5 2C41.699219 1.800781 41.800781 1.398438 41.800781 1.101563C41.699219 0.800781 41.5 0.5 41.199219 0.398438C37.199219 -1 30.800781 1.898438 28.199219 4.5C25.601563 7.101563 25.300781 10.699219 27.398438 14.601563L27.199219 14.800781L25 12.5C23.101563 10.398438 20.5 9.199219 17.601563 9.101563C14.699219 9 12.101563 10.101563 10.101563 12.101563L3.101563 19.101563C-0.898438 23.101563 -0.898438 29.601563 3.101563 33.601563L5 35.5L2 38.300781C1.199219 39.101563 0.300781 40.5 0 42.300781C-0.101563 43.800781 0 45.898438 2 48C3.601563 49.601563 5.300781 50 6.699219 50C7 50 7.398438 50 7.699219 49.898438C9.5 49.601563 10.898438 48.699219 11.699219 47.898438L15.101563 44.398438C15.300781 44.398438 15.5 44.5 15.800781 44.5C17.398438 44.5 18.898438 43.699219 19.699219 42.398438C20.199219 42.601563 20.800781 42.699219 21.300781 42.699219C23.601563 42.699219 25.5 41.101563 25.898438 38.898438C26.199219 39 26.5 39 26.800781 39C29.101563 39 31 37.398438 31.398438 35.199219C31.699219 35.300781 32 35.300781 32.300781 35.300781C34.898438 35.300781 37 33.199219 37 30.601563C37 29.199219 36.300781 27.800781 35.199219 26.898438L33.199219 24.898438L35.398438 22.699219C39.300781 24.800781 42.800781 24.5 45.5 21.898438C48.101563 19.199219 51 12.800781 49.601563 8.898438 Z M 10.300781 46.5C9.800781 47 8.699219 47.699219 7.398438 47.898438C5.898438 48.101563 4.601563 47.601563 3.5 46.5C2.300781 45.300781 1.898438 44 2.101563 42.601563C2.300781 41.300781 3 40.300781 3.5 39.699219L6.398438 36.898438L12.199219 42.699219C12.5 43 12.800781 43.300781 13.199219 43.601563 Z M 34 28.398438C34.699219 28.898438 35.101563 29.699219 35.101563 30.5C35.101563 32 33.898438 33.199219 32.398438 33.199219C31.898438 33.199219 31.5 33.101563 31 32.800781L29.199219 31.699219L29.5 33.800781C29.5 33.898438 29.5 34 29.5 34.199219C29.5 35.699219 28.300781 36.898438 26.800781 36.898438C26.300781 36.898438 25.898438 36.800781 25.398438 36.5L23.601563 35.398438L23.898438 37.5C23.898438 37.601563 23.898438 37.699219 23.898438 37.898438C23.898438 39.398438 22.699219 40.601563 21.199219 40.601563C20.699219 40.601563 20.101563 40.398438 19.699219 40.101563L18.601563 39.398438L18.199219 40.601563C17.800781 41.699219 16.800781 42.398438 15.699219 42.398438C14.898438 42.398438 14.101563 42 13.601563 41.398438L4.398438 32.199219C1.199219 29 1.199219 23.699219 4.398438 20.5L11.398438 13.5C13 11.898438 15.199219 11 17.5 11.101563C19.800781 11.199219 21.898438 12.101563 23.5 13.898438L25.800781 16.300781L25.199219 16.898438L25 16.601563C24.601563 16.199219 24 16.199219 23.601563 16.601563C23.199219 17 23.199219 17.601563 23.601563 18L33.898438 28.300781 Z M 44 20.398438C41.300781 23.101563 38 22 35.699219 20.5C35.300781 20.300781 34.800781 20.300781 34.5 20.699219L31.800781 23.398438L26.601563 18.199219L29.300781 15.5C29.601563 15.199219 29.699219 14.699219 29.5 14.300781C28.101563 11.898438 27 8.601563 29.601563 6C31.5 4.101563 35.601563 2.101563 38.699219 2L34.800781 5.898438C33.699219 7 33.699219 8.800781 34.800781 10L40.101563 15.300781C41.199219 16.398438 43 16.398438 44.199219 15.300781L48.101563 11.398438C48 14.398438 45.898438 18.5 44 20.398438Z" />
</svg>