<?xml version="1.0" encoding="utf-8"?>
<svg xmlns="http://www.w3.org/2000/svg" viewBox="0 0 50 50" width="515" height="515">
  <path d="M5 7C2.25 7 0 9.25 0 12L0 38C0 40.75 2.25 43 5 43L45 43C47.75 43 50 40.75 50 38L50 12C50 9.25 47.75 7 45 7 Z M 5 9L45 9C46.667969 9 48 10.332031 48 12L48 38C48 39.667969 46.667969 41 45 41L5 41C3.332031 41 2 39.667969 2 38L2 12C2 10.332031 3.332031 9 5 9 Z M 17 13C10.382813 13 5 18.382813 5 25C5 31.617188 10.382813 37 17 37C20.078125 37 22.875 35.816406 25 33.90625C27.125 35.816406 29.925781 37 33 37C39.617188 37 45 31.617188 45 25C45 18.382813 39.617188 13 33 13C29.925781 13 27.125 14.183594 25 16.09375C22.875 14.183594 20.078125 13 17 13 Z M 17 15C17.785156 15 18.550781 15.109375 19.28125 15.28125C19.101563 15.460938 19 15.722656 19 16C19 16.550781 19.449219 17 20 17C20.550781 17 21 16.550781 21 16C21 15.941406 20.976563 15.898438 20.96875 15.84375C22.058594 16.320313 23.058594 16.96875 23.90625 17.78125C23.984375 18.175781 24.292969 18.484375 24.6875 18.5625C25.308594 19.308594 25.804688 20.152344 26.1875 21.0625C26.121094 21.046875 26.070313 21 26 21C25.449219 21 25 21.449219 25 22C25 22.550781 25.449219 23 26 23C26.277344 23 26.539063 22.898438 26.71875 22.71875C26.886719 23.457031 27 24.210938 27 25C27 25.789063 26.890625 26.542969 26.71875 27.28125C26.539063 27.101563 26.277344 27 26 27C25.449219 27 25 27.449219 25 28C25 28.550781 25.449219 29 26 29C26.066406 29 26.125 28.980469 26.1875 28.96875C25.796875 29.871094 25.277344 30.695313 24.65625 31.4375C24.273438 31.527344 23.980469 31.832031 23.90625 32.21875C23.046875 33.042969 22.050781 33.710938 20.9375 34.1875C20.953125 34.121094 21 34.070313 21 34C21 33.449219 20.550781 33 20 33C19.449219 33 19 33.449219 19 34C19 34.292969 19.113281 34.566406 19.3125 34.75C18.570313 34.925781 17.792969 35 17 35C16.207031 35 15.429688 34.925781 14.6875 34.75C14.886719 34.566406 15 34.292969 15 34C15 33.449219 14.550781 33 14 33C13.449219 33 13 33.449219 13 34C13 34.070313 13.046875 34.121094 13.0625 34.1875C10.699219 33.179688 8.820313 31.300781 7.8125 28.9375C7.878906 28.953125 7.929688 29 8 29C8.550781 29 9 28.550781 9 28C9 27.449219 8.550781 27 8 27C7.707031 27 7.433594 27.113281 7.25 27.3125C7.074219 26.570313 7 25.792969 7 25C7 24.207031 7.074219 23.429688 7.25 22.6875C7.433594 22.886719 7.707031 23 8 23C8.550781 23 9 22.550781 9 22C9 21.449219 8.550781 21 8 21C7.929688 21 7.878906 21.046875 7.8125 21.0625C8.820313 18.699219 10.699219 16.820313 13.0625 15.8125C13.046875 15.878906 13 15.929688 13 16C13 16.550781 13.449219 17 14 17C14.550781 17 15 16.550781 15 16C15 15.707031 14.886719 15.433594 14.6875 15.25C15.429688 15.074219 16.207031 15 17 15 Z M 33 15C38.535156 15 43 19.464844 43 25C43 30.535156 38.535156 35 33 35C30.445313 35 28.109375 34.066406 26.34375 32.5C27.996094 30.441406 29 27.835938 29 25C29 22.164063 27.996094 19.558594 26.34375 17.5C28.109375 15.933594 30.445313 15 33 15 Z M 11 18C10.449219 18 10 18.449219 10 19C10 19.550781 10.449219 20 11 20C11.550781 20 12 19.550781 12 19C12 18.449219 11.550781 18 11 18 Z M 17 18C16.449219 18 16 18.449219 16 19C16 19.550781 16.449219 20 17 20C17.550781 20 18 19.550781 18 19C18 18.449219 17.550781 18 17 18 Z M 23 18C22.449219 18 22 18.449219 22 19C22 19.550781 22.449219 20 23 20C23.550781 20 24 19.550781 24 19C24 18.449219 23.550781 18 23 18 Z M 14 21C13.449219 21 13 21.449219 13 22C13 22.550781 13.449219 23 14 23C14.550781 23 15 22.550781 15 22C15 21.449219 14.550781 21 14 21 Z M 20 21C19.449219 21 19 21.449219 19 22C19 22.550781 19.449219 23 20 23C20.550781 23 21 22.550781 21 22C21 21.449219 20.550781 21 20 21 Z M 11 24C10.449219 24 10 24.449219 10 25C10 25.550781 10.449219 26 11 26C11.550781 26 12 25.550781 12 25C12 24.449219 11.550781 24 11 24 Z M 17 24C16.449219 24 16 24.449219 16 25C16 25.550781 16.449219 26 17 26C17.550781 26 18 25.550781 18 25C18 24.449219 17.550781 24 17 24 Z M 23 24C22.449219 24 22 24.449219 22 25C22 25.550781 22.449219 26 23 26C23.550781 26 24 25.550781 24 25C24 24.449219 23.550781 24 23 24 Z M 14 27C13.449219 27 13 27.449219 13 28C13 28.550781 13.449219 29 14 29C14.550781 29 15 28.550781 15 28C15 27.449219 14.550781 27 14 27 Z M 20 27C19.449219 27 19 27.449219 19 28C19 28.550781 19.449219 29 20 29C20.550781 29 21 28.550781 21 28C21 27.449219 20.550781 27 20 27 Z M 11 30C10.449219 30 10 30.449219 10 31C10 31.550781 10.449219 32 11 32C11.550781 32 12 31.550781 12 31C12 30.449219 11.550781 30 11 30 Z M 17 30C16.449219 30 16 30.449219 16 31C16 31.550781 16.449219 32 17 32C17.550781 32 18 31.550781 18 31C18 30.449219 17.550781 30 17 30 Z M 23 30C22.449219 30 22 30.449219 22 31C22 31.550781 22.449219 32 23 32C23.550781 32 24 31.550781 24 31C24 30.449219 23.550781 30 23 30Z" />
</svg>