<?xml version="1.0" encoding="utf-8"?>
<svg xmlns="http://www.w3.org/2000/svg" viewBox="0 0 50 50" width="515" height="515">
  <path d="M10.5 4C8.0265633 4 6 6.0265633 6 8.5C6 10.973437 8.0265633 13 10.5 13C12.973437 13 15 10.973437 15 8.5C15 6.0265633 12.973437 4 10.5 4 z M 39.5 4C37.026563 4 35 6.0265633 35 8.5C35 10.973437 37.026563 13 39.5 13C41.973437 13 44 10.973437 44 8.5C44 6.0265633 41.973437 4 39.5 4 z M 10.5 6C11.892557 6 13 7.1074435 13 8.5C13 9.8925565 11.892557 11 10.5 11C9.1074435 11 8 9.8925565 8 8.5C8 7.1074435 9.1074435 6 10.5 6 z M 39.5 6C40.892557 6 42 7.1074435 42 8.5C42 9.8925565 40.892557 11 39.5 11C38.107443 11 37 9.8925565 37 8.5C37 7.1074435 38.107443 6 39.5 6 z M 7.9980469 13.998047C4.6964215 13.998047 2 16.696904 2 19.998047L2 31C2 32.64497 3.3550302 34 5 34C5.3518425 34 5.6851085 33.92606 6 33.8125L6 34.457031L3.1914062 41.947266C2.6133336 43.4878 3.4067361 45.229768 4.9453125 45.808594L4.9472656 45.808594L4.9492188 45.810547C5.2909334 45.937716 5.6468283 46.001953 6 46.001953C7.2182305 46.001953 8.3595108 45.24877 8.8085938 44.054688L8.8085938 44.052734L10 40.875L10 43C10 44.64497 11.35503 46 13 46C14.64497 46 16 44.64497 16 43L16 24.6875L16.457031 25.488281C16.750234 26.001386 17.190176 26.41833 17.720703 26.683594L17.648438 26.644531L22.623047 29.666016L22.660156 29.685547C23.013742 29.861111 23.390388 29.943348 23.765625 29.972656 A 1.0001 1.0001 0 0 0 23.996094 30 A 1.0001 1.0001 0 0 0 24.003906 30C24.007215 29.999993 24.010364 29.998065 24.013672 29.998047C24.209256 29.997003 24.401763 29.970359 24.591797 29.931641C24.640869 29.921798 24.689487 29.914705 24.738281 29.902344C24.921235 29.855503 25.098401 29.791065 25.269531 29.710938C25.292514 29.700235 25.317033 29.696873 25.339844 29.685547L25.289062 29.708984L32.289062 26.708984 A 1.0001 1.0001 0 0 0 32.34375 26.683594C32.649469 26.530734 32.927121 26.327654 33.164062 26.080078 A 1.0001 1.0001 0 0 0 33.166016 26.076172C33.166891 26.07525 33.257326 25.96692 33.269531 25.949219C33.281741 25.931519 33.288222 25.920586 33.294922 25.910156C33.308332 25.889296 33.319221 25.872473 33.332031 25.851562C33.357651 25.809732 33.387721 25.757312 33.425781 25.693359C33.501901 25.565444 33.604689 25.391704 33.726562 25.183594C33.802281 25.054299 33.912155 24.865567 34 24.714844L34 43C34 44.64497 35.35503 46 37 46C37.768584 46 38.466647 45.695875 39 45.212891C39.533353 45.695875 40.231416 46 41 46C42.64497 46 44 44.64497 44 43L44 33.8125C44.314892 33.92606 44.648157 34 45 34C46.64497 34 48 32.64497 48 31L48 20C48 16.698616 45.303579 14 42.001953 14L35.640625 13.998047C34.35092 13.99862 33.389315 14.343336 32.738281 14.857422C32.087247 15.371508 31.778819 16.005105 31.605469 16.330078C30.824915 17.794098 29.064084 21.263509 28.84375 21.697266L24.189453 23.595703L21.242188 21.765625L18.164062 16.378906L18.205078 16.458984C18.205078 16.458984 16.963714 13.999268 14.0625 13.998047L7.9980469 13.998047 z M 7.9980469 15.998047L14.0625 15.998047C15.911286 15.998825 16.384766 17.291016 16.384766 17.291016L16.404297 17.332031L19.757812 23.197266L23.539062 25.544922 A 1.0001 1.0001 0 0 0 23.548828 25.550781L24.40625 26.083984L24.447266 26.105469C24.952203 26.357937 25.147247 26.941323 24.894531 27.447266C24.768867 27.695383 24.55973 27.858697 24.322266 27.939453C24.299521 27.947278 24.276645 27.958788 24.253906 27.964844C24.172836 27.985937 24.088591 27.999516 24.003906 28C24.001959 28.000011 23.999995 28 23.998047 28C23.853737 28 23.707183 27.965829 23.5625 27.896484L18.652344 24.912109L18.615234 24.894531C18.438196 24.806011 18.294093 24.668391 18.195312 24.496094L15.914062 20.503906L15.884766 20.519531 A 1.0001 1.0001 0 0 0 14.984375 19.986328 A 1.0001 1.0001 0 0 0 14 21L14 43C14 43.56503 13.56503 44 13 44C12.43497 44 12 43.56503 12 43L12 31 A 1.0001 1.0001 0 1 0 10 31L10 35C10 35.120556 9.979127 35.240558 9.9375 35.351562L6.9375 43.349609C6.782583 43.761524 6.4017695 44.001953 6 44.001953C5.8877738 44.001953 5.7680837 43.979837 5.6484375 43.935547L5.6464844 43.935547C5.1199917 43.734955 4.8651122 43.174466 5.0625 42.648438L8 34.820312L8 31L8 21 A 1.0001 1.0001 0 0 0 6.984375 19.986328 A 1.0001 1.0001 0 0 0 6 21L6 31C6 31.56503 5.5650302 32 5 32C4.4349698 32 4 31.56503 4 31L4 19.998047C4 17.777189 5.7776723 15.998047 7.9980469 15.998047 z M 35.640625 15.998047L42 16 A 1.0001 1.0001 0 0 0 42.001953 16C44.222281 16 46 17.779384 46 20L46 31C46 31.56503 45.56503 32 45 32C44.43497 32 44 31.56503 44 31L44 21 A 1.0001 1.0001 0 0 0 42.984375 19.986328 A 1.0001 1.0001 0 0 0 42 21L42 31L42 43C42 43.56503 41.56503 44 41 44C40.43497 44 40 43.56503 40 43L40 31 A 1.0001 1.0001 0 1 0 38 31L38 43C38 43.56503 37.56503 44 37 44C36.43497 44 36 43.56503 36 43L36 21.085938 A 1.0001 1.0001 0 0 0 35.632812 20.210938 A 1.0001 1.0001 0 0 0 35.576172 20.167969 A 1.0001 1.0001 0 0 0 35.552734 20.152344 A 1.0001 1.0001 0 0 0 35.535156 20.142578 A 1.0001 1.0001 0 0 0 35.464844 20.101562 A 1.0001 1.0001 0 0 0 35.402344 20.070312 A 1.0001 1.0001 0 0 0 35.388672 20.064453 A 1.0001 1.0001 0 0 0 35.308594 20.035156 A 1.0001 1.0001 0 0 0 35.28125 20.027344 A 1.0001 1.0001 0 0 0 35.212891 20.009766 A 1.0001 1.0001 0 0 0 35.199219 20.007812 A 1.0001 1.0001 0 0 0 35.113281 19.994141 A 1.0001 1.0001 0 0 0 35.111328 19.994141 A 1.0001 1.0001 0 0 0 34.984375 19.986328 A 1.0001 1.0001 0 0 0 34.083984 20.585938C34.037107 20.66695 33.483922 21.624693 32.876953 22.669922C32.56089 23.214197 32.243266 23.759814 32.001953 24.171875C31.881297 24.377905 31.778513 24.551755 31.707031 24.671875C31.691071 24.698695 31.684585 24.711242 31.671875 24.732422C31.607895 24.791482 31.539315 24.847317 31.458984 24.888672L26.978516 26.808594C26.930668 26.11728 26.649131 25.45814 26.169922 24.947266L29.941406 23.408203 A 1.0001 1.0001 0 0 0 30.455078 22.935547C30.455078 22.935547 32.575491 18.763836 33.371094 17.271484L33.371094 17.269531C33.564294 16.90735 33.707713 16.639619 33.978516 16.425781C34.249732 16.211617 34.68033 15.998474 35.640625 15.998047 z" />
</svg>