<?xml version="1.0" encoding="utf-8"?>
<svg xmlns="http://www.w3.org/2000/svg" viewBox="0 0 50 50" width="515" height="515">
  <path d="M25 6C22.802706 6 21 7.8027056 21 10C21 12.197294 22.802706 14 25 14C27.197294 14 29 12.197294 29 10C29 7.8027056 27.197294 6 25 6 z M 25 8C26.116414 8 27 8.8835859 27 10C27 11.116414 26.116414 12 25 12C23.883586 12 23 11.116414 23 10C23 8.8835859 23.883586 8 25 8 z M 8 9C5.8027056 9 4 10.802706 4 13C4 15.197294 5.8027056 17 8 17C10.197294 17 12 15.197294 12 13C12 10.802706 10.197294 9 8 9 z M 42 9C39.802706 9 38 10.802706 38 13C38 15.197294 39.802706 17 42 17C44.197294 17 46 15.197294 46 13C46 10.802706 44.197294 9 42 9 z M 8 11C9.1164141 11 10 11.883586 10 13C10 14.116414 9.1164141 15 8 15C6.8835859 15 6 14.116414 6 13C6 11.883586 6.8835859 11 8 11 z M 42 11C43.116414 11 44 11.883586 44 13C44 14.116414 43.116414 15 42 15C40.883586 15 40 14.116414 40 13C40 11.883586 40.883586 11 42 11 z M 24 15C20.698375 15 18 17.698375 18 21L18 25L15 25 A 1.0001 1.0001 0 1 0 15 27L18 27L32 27L35 27 A 1.0001 1.0001 0 1 0 35 25L32 25L32 21C32 17.698375 29.301625 15 26 15L24 15 z M 24 17L26 17C28.220375 17 30 18.779625 30 21L30 25L20 25L20 21C20 18.779625 21.779625 17 24 17 z M 8 18C5.8026661 18 4 19.802666 4 22 A 1.0001 1.0001 0 0 0 4 22.001953L4.0097656 31.25 A 1.0001 1.0001 0 0 0 4.0136719 31.332031C4.1862319 33.39616 5.9288889 35 8 35L13 35L13 41C13 42.645063 14.354937 44 16 44C17.645063 44 19 42.645063 19 41L19 33C19 30.803477 17.196523 29 15 29L12 29L12 22 A 1.0001 1.0001 0 0 0 11.994141 21.888672C11.762618 19.809522 10.184862 18 8 18 z M 42 18C39.815138 18 38.237423 19.809522 38.005859 21.888672 A 1.0001 1.0001 0 0 0 38 22L38 29L35 29C32.803477 29 31 30.803477 31 33L31 41C31 42.645063 32.354937 44 34 44C35.645063 44 37 42.645063 37 41L37 35L42 35C44.071111 35 45.813764 33.396159 45.986328 31.332031 A 1.0001 1.0001 0 0 0 45.990234 31.25L46 22.001953 A 1.0001 1.0001 0 0 0 46 22C46 19.802666 44.197334 18 42 18 z M 8 20C9.1241035 20 9.8509903 20.810884 10 22.097656L10 30 A 1.0001 1.0001 0 0 0 11 31L15 31C16.111477 31 17 31.888523 17 33L17 41C17 41.562937 16.562937 42 16 42C15.437063 42 15 41.562937 15 41L15 34 A 1.0001 1.0001 0 0 0 14 33L8 33C6.9542587 33 6.10154 32.215016 6.0097656 31.173828L6 21.998047C6.0010404 20.882314 6.8839921 20 8 20 z M 42 20C43.116666 20 44 20.883334 44 22L43.990234 31.173828C43.898494 32.215016 43.045741 33 42 33L36 33 A 1.0001 1.0001 0 0 0 35 34L35 41C35 41.562937 34.562937 42 34 42C33.437063 42 33 41.562937 33 41L33 33C33 31.888523 33.888523 31 35 31L39 31 A 1.0001 1.0001 0 0 0 40 30L40 22.097656C40.14901 20.810884 40.875897 20 42 20 z M 0.984375 22.986328 A 1.0001 1.0001 0 0 0 0 24L0 32C0 35.854334 3.1456661 39 7 39L10 39 A 1.0001 1.0001 0 1 0 10 37L7 37C4.2263339 37 2 34.773666 2 32L2 24 A 1.0001 1.0001 0 0 0 0.984375 22.986328 z M 48.984375 22.986328 A 1.0001 1.0001 0 0 0 48 24L48 32C48 34.773666 45.773666 37 43 37L40 37 A 1.0001 1.0001 0 1 0 40 39L43 39C46.854334 39 50 35.854334 50 32L50 24 A 1.0001 1.0001 0 0 0 48.984375 22.986328 z" />
</svg>