<?xml version="1.0" encoding="utf-8"?>
<svg xmlns="http://www.w3.org/2000/svg" viewBox="0 0 50 50" width="515" height="515">
  <path d="M6 0C4.0833339 0 2.5185588 0.75475559 1.5019531 1.8984375C0.48534744 3.0421194 1.4802974e-16 4.5277779 0 6C0 7.4722221 0.48534744 8.9578811 1.5019531 10.101562C2.5185588 11.245245 4.0833339 12 6 12C7.2858705 12 8.4154881 11.5033 9.3945312 10.808594L17.363281 18.777344C15.95777 20.500052 15 22.61024 15 25C15 26.972858 15.723339 28.70791 16.714844 30.259766L9.9648438 35.576172C8.9018616 34.623143 7.5324804 34 6 34C4.0833339 34 2.5185588 34.754756 1.5019531 35.898438C0.48534744 37.042119 1.4802974e-16 38.527778 0 40C0 41.472222 0.48534744 42.957881 1.5019531 44.101562C2.5185588 45.245244 4.0833339 46 6 46C9.3018654 46 12 43.301863 12 40C12 38.95472 11.657951 38.019933 11.183594 37.162109L17.835938 31.921875C19.655971 33.805978 22.181854 35 25 35C26.321726 35 27.572191 34.71273 28.728516 34.244141L31.386719 39.259766C31.095202 39.478232 30.737233 39.633747 30.501953 39.898438C29.485347 41.042119 29 42.527778 29 44C29 45.472222 29.485347 46.957881 30.501953 48.101562C31.518559 49.245244 33.083334 50 35 50C38.301865 50 41 47.301863 41 44C41 40.698137 38.301865 38 35 38C34.324742 38 33.756953 38.193917 33.177734 38.365234L30.425781 33.173828C32.278205 31.937394 33.680986 30.199868 34.384766 28.042969L38.033203 28.798828C38.031121 28.86692 38 28.931932 38 29C38 30.472222 38.485347 31.957882 39.501953 33.101562C40.518559 34.245244 42.083334 35 44 35C47.301865 35 50 32.301863 50 29C50 25.698137 47.301865 23 44 23C42.083334 23 40.518559 23.754756 39.501953 24.898438C38.993206 25.470778 38.617707 26.128965 38.369141 26.828125L34.78125 26.082031C34.823564 25.709571 35 25.383529 35 25C35 21.068877 32.663404 17.734256 29.353516 16.101562L30.958984 11.791016C31.314613 11.849168 31.614217 12 32 12C35.301865 12 38 9.3018628 38 6C38 2.6981372 35.301865 0 32 0C30.083334 0 28.518559 0.75475559 27.501953 1.8984375C26.485347 3.0421194 26 4.5277779 26 6C26 7.4722221 26.485347 8.9578811 27.501953 10.101562C27.911611 10.562428 28.468252 10.902331 29.042969 11.212891L27.443359 15.494141C26.641229 15.285868 25.866068 15 25 15C22.610239 15 20.500051 15.957769 18.777344 17.363281L10.808594 9.3945312C11.503299 8.4154875 12 7.2858695 12 6C12 2.6981372 9.3018654 0 6 0 z M 6 2C8.2209859 2 10 3.7790155 10 6C10 7.0283637 9.589062 7.9383984 8.9589844 8.6445312 A 1.0001 1.0001 0 0 0 8.6425781 8.9589844C7.9365895 9.5884187 7.0277768 10 6 10C4.5833342 10 3.6481071 9.5047556 2.9980469 8.7734375C2.3479866 8.0421194 2 7.0277779 2 6C2 4.9722221 2.3479866 3.9578806 2.9980469 3.2265625C3.6481071 2.4952444 4.5833342 2 6 2 z M 32 2C34.220986 2 36 3.7790155 36 6C36 8.2209845 34.220986 10 32 10C31.454073 10 31.035379 9.8705948 30.621094 9.7382812 A 1.0001 1.0001 0 0 0 30.363281 9.6894531C29.811126 9.4729683 29.350766 9.1702469 28.998047 8.7734375C28.347987 8.0421194 28 7.0277779 28 6C28 4.9722221 28.347987 3.9578806 28.998047 3.2265625C29.648107 2.4952444 30.583334 2 32 2 z M 25 17C25.979924 17 26.893347 17.234683 27.759766 17.554688 A 1.0001 1.0001 0 0 0 28.048828 17.613281 A 1.0001 1.0001 0 0 0 28.052734 17.613281C30.958451 18.810244 33 21.653806 33 25C33 29.430123 29.430126 33 25 33C20.569874 33 17 29.430123 17 25C17 20.569877 20.569874 17 25 17 z M 44 25C46.220986 25 48 26.779015 48 29C48 31.220985 46.220986 33 44 33C42.583334 33 41.648107 32.504756 40.998047 31.773438C40.347987 31.042119 40 30.027778 40 29C40 27.972222 40.347987 26.957882 40.998047 26.226562C41.648107 25.495244 42.583334 25 44 25 z M 6 36C8.2209859 36 10 37.779015 10 40C10 42.220985 8.2209859 44 6 44C4.5833342 44 3.6481071 43.504755 2.9980469 42.773438C2.3479866 42.042119 2 41.027778 2 40C2 38.972222 2.3479866 37.957881 2.9980469 37.226562C3.6481071 36.495244 4.5833342 36 6 36 z M 35 40C37.220986 40 39 41.779015 39 44C39 46.220985 37.220986 48 35 48C33.583334 48 32.648107 47.504755 31.998047 46.773438C31.347987 46.042119 31 45.027778 31 44C31 42.972222 31.347987 41.957882 31.998047 41.226562C32.227833 40.968054 32.545648 40.787725 32.855469 40.599609 A 1.0001 1.0001 0 0 0 33.433594 40.296875C33.885821 40.128756 34.379871 40 35 40 z" />
</svg>