<?xml version="1.0" encoding="utf-8"?>
<svg xmlns="http://www.w3.org/2000/svg" viewBox="0 0 50 50" width="515" height="515">
  <path d="M24.984375 1.9863281 A 1.0001 1.0001 0 0 0 24.203125 2.3828125L16.292969 10.292969 A 1.0001 1.0001 0 1 0 17.707031 11.707031L24 5.4140625L24 27 A 1.0001 1.0001 0 1 0 26 27L26 5.4140625L32.292969 11.707031 A 1.0001 1.0001 0 1 0 33.707031 10.292969L25.791016 2.3769531 A 1.0001 1.0001 0 0 0 24.984375 1.9863281 z M 37.939453 6.2382812 A 1.0001 1.0001 0 0 0 37.408203 8.0605469C42.617264 11.882371 46 18.038275 46 25C46 36.609534 36.609534 46 25 46C13.390466 46 4 36.609534 4 25C4 18.038275 7.3827357 11.882371 12.591797 8.0605469 A 1.0001 1.0001 0 0 0 12.033203 6.2460938 A 1.0001 1.0001 0 0 0 11.408203 6.4492188C5.7052643 10.633395 2 17.389725 2 25C2 37.690466 12.309534 48 25 48C37.690466 48 48 37.690466 48 25C48 17.389725 44.294736 10.633395 38.591797 6.4492188 A 1.0001 1.0001 0 0 0 37.939453 6.2382812 z" />
</svg>