<?xml version="1.0" encoding="utf-8"?>
<svg xmlns="http://www.w3.org/2000/svg" viewBox="0 0 50 50" width="515" height="515">
  <path d="M8 4C5.789063 4 4 5.789063 4 8L4 17L6 17L6 8C6 6.808594 6.808594 6 8 6L42 6C43.191406 6 44 6.808594 44 8L44 23L46 23L46 8C46 5.789063 44.210938 4 42 4 Z M 8.8125 8C8.335938 8.089844 7.992188 8.511719 8 9L8 17L10 17L10 10L40 10L40 23L42 23L42 9C42 8.449219 41.550781 8 41 8L9 8C8.96875 8 8.9375 8 8.90625 8C8.875 8 8.84375 8 8.8125 8 Z M 2 18C1.476563 18 0.941406 18.183594 0.5625 18.5625C0.183594 18.941406 0 19.476563 0 20L0 44C0 44.523438 0.183594 45.058594 0.5625 45.4375C0.941406 45.816406 1.476563 46 2 46L21 46C21.523438 46 22.058594 45.816406 22.4375 45.4375C22.816406 45.058594 23 44.523438 23 44L23 20C23 19.476563 22.816406 18.941406 22.4375 18.5625C22.058594 18.183594 21.523438 18 21 18 Z M 2 20L21 20L21 44L2 44 Z M 3.8125 21C3.335938 21.089844 2.992188 21.511719 3 22L3 40C3 40.550781 3.449219 41 4 41L19 41C19.550781 41 20 40.550781 20 40L20 22C20 21.449219 19.550781 21 19 21L4 21C3.96875 21 3.9375 21 3.90625 21C3.875 21 3.84375 21 3.8125 21 Z M 5 23L18 23L18 39L5 39 Z M 37 24C36.476563 24 35.941406 24.183594 35.5625 24.5625C35.183594 24.941406 35 25.476563 35 26L35 44C35 44.523438 35.183594 45.058594 35.5625 45.4375C35.941406 45.816406 36.476563 46 37 46L48 46C48.523438 46 49.058594 45.816406 49.4375 45.4375C49.816406 45.058594 50 44.523438 50 44L50 26C50 25.476563 49.816406 24.941406 49.4375 24.5625C49.058594 24.183594 48.523438 24 48 24 Z M 37 26L48 26L48 44L37 44 Z M 38.8125 27C38.335938 27.089844 37.992188 27.511719 38 28L38 40C38 40.550781 38.449219 41 39 41L46 41C46.550781 41 47 40.550781 47 40L47 28C47 27.449219 46.550781 27 46 27L39 27C38.96875 27 38.9375 27 38.90625 27C38.875 27 38.84375 27 38.8125 27 Z M 40 29L45 29L45 39L40 39 Z M 24 32L24 34L34 34L34 32 Z M 29 35L29 40L34 40L34 38L31 38L31 37L34 37L34 35 Z M 24 41L24 43L34 43L34 41 Z M 11.5 41.5C10.949219 41.5 10.5 41.949219 10.5 42.5C10.5 43.050781 10.949219 43.5 11.5 43.5C12.050781 43.5 12.5 43.050781 12.5 42.5C12.5 41.949219 12.050781 41.5 11.5 41.5 Z M 42.5 41.5C41.949219 41.5 41.5 41.949219 41.5 42.5C41.5 43.050781 41.949219 43.5 42.5 43.5C43.050781 43.5 43.5 43.050781 43.5 42.5C43.5 41.949219 43.050781 41.5 42.5 41.5Z" />
</svg>