<?xml version="1.0" encoding="utf-8"?>
<svg xmlns="http://www.w3.org/2000/svg" viewBox="0 0 50 50" width="515" height="515">
  <path d="M9.59375 4.0078125C9.3034556 3.9966451 9.0002668 4.0103135 8.6835938 4.0527344C6.326455 4.3679331 4.4411622 6.1485483 3.109375 7.4414062 A 1.0001 1.0001 0 0 0 3.1074219 7.4414062C1.0987884 9.3928323 0.00075184308 11.819859 0.00390625 15.5C0.00390625 16.192747 0.014258505 16.941736 0.068359375 17.748047C0.28627733 21.011863 0.55523548 27.349361 3.7109375 35.660156 A 1.0001 1.0001 0 0 0 3.7109375 35.662109C4.8173448 38.574445 6.8718052 41.083521 8.7851562 42.904297C9.7418319 43.814685 10.663332 44.549516 11.441406 45.074219C11.830443 45.33657 12.182102 45.545882 12.503906 45.703125C12.82571 45.860321 13.062115 46 13.537109 46C14.355562 46 14.938848 45.687628 15.660156 45.449219C16.381465 45.210809 17.166667 45 18 45C19.519444 45 21.701853 46 26 46C32.273328 46 36.360049 42.488922 38.75 39.072266C40.835311 36.09112 41.593705 33.495105 41.789062 32.783203C42.41782 32.59452 43.853303 32.118927 45.583984 30.875C47.751302 29.31724 50 26.605556 50 22.5C50 19.577356 49.09978 16.730341 47.318359 14.576172C45.536939 12.422002 42.838364 11 39.5 11C35.703582 11 32.769225 12.363718 30.84375 14.445312C29.03297 16.402912 28.187192 18.958588 28.083984 21.521484C27.396561 21.265892 26.590183 21 25.5 21C21.145192 21 18.575651 23.044273 17.326172 25.314453C16.87974 26.125576 16.714715 26.909069 16.517578 27.685547C15.636943 26.015561 14.483077 24.229919 12.386719 22.287109C9.6904426 19.788881 8.68944 17.231246 8.3046875 16.257812 A 1.0001 1.0001 0 0 0 8.3046875 16.255859C8.3591135 16.392544 8.2078526 15.909307 8.1289062 15.568359C8.0894333 15.397886 8.0524822 15.228715 8.0273438 15.101562C8.0205437 15.067193 8.0233712 15.110459 8.0195312 15.074219C8.0696772 15.025671 8.1706673 14.942125 8.34375 14.828125C8.4237868 14.775409 8.5543551 14.622861 8.6523438 14.5625C9.1919873 15.373853 9.9614458 16 10.998047 16C11.407003 16 11.829055 15.92441 12.3125 15.712891C12.554223 15.607131 12.808793 15.466402 13.046875 15.21875C13.077195 15.18721 13.076309 15.11644 13.105469 15.080078C13.514638 14.992248 13.877744 14.814149 14.191406 14.558594C14.451505 14.34668 14.690847 14.083343 14.857422 13.728516C14.874712 13.691686 14.851987 13.633186 14.867188 13.59375C15.299625 13.423727 15.673395 13.157034 15.900391 12.839844C16.143677 12.499889 16.287384 12.122683 16.351562 11.71875C16.396563 11.68298 16.468333 11.688617 16.507812 11.648438C16.774708 11.376781 16.897339 11.057723 16.955078 10.787109C17.070556 10.245881 16.988158 9.83048 16.892578 9.4980469C16.458847 7.9988633 15.332337 7.1681708 13.898438 6.1445312C13.251865 5.6825643 12.64581 5.1099342 11.828125 4.6445312C11.214861 4.2954791 10.464633 4.0413148 9.59375 4.0078125 z M 9.5351562 5.9960938C10.061719 6.0050704 10.432545 6.1509895 10.839844 6.3828125C11.382909 6.6919096 11.9609 7.2174513 12.736328 7.7714844C14.154428 8.7838449 14.734404 9.2359164 14.970703 10.052734C14.979903 10.085804 14.979105 10.139254 14.984375 10.205078 A 1.0001 1.0001 0 0 0 14.410156 11.390625C14.367276 11.234713 14.375336 11.533394 14.273438 11.675781C14.226277 11.741681 14.217773 11.761134 14.21875 11.769531 A 1.0001 1.0001 0 0 0 13.013672 12.914062C12.996712 12.937442 12.981284 12.964192 12.927734 13.007812C12.779932 13.128234 12.489402 13.080902 12.783203 13.167969 A 1.0001 1.0001 0 0 0 11.533203 13.869141 A 1.0001 1.0001 0 0 0 11.533203 13.871094C11.519743 13.878494 11.529399 13.873059 11.511719 13.880859C11.352913 13.950258 11.022091 14 10.998047 14C10.393027 14 10 13.606481 10 13 A 1.0001 1.0001 0 0 0 8.1601562 12.457031C8.0743754 12.589743 7.7164967 12.84385 7.2421875 13.15625C7.0050329 13.31245 6.7411078 13.490101 6.4882812 13.773438C6.2354547 14.056772 6 14.50544 6 15C6 15.323873 6.0330291 15.32934 6.0644531 15.488281C6.0958771 15.647223 6.1364101 15.83263 6.1796875 16.019531C6.2662415 16.393334 6.3028861 16.636456 6.4453125 16.994141C6.8269172 17.959618 8.0065079 20.954958 11.027344 23.753906C14.156952 26.654285 15.160112 29.115053 16.072266 31.375 A 1.0001 1.0001 0 0 0 18 31C18 30.129167 18.110807 28.040367 19.080078 26.279297C20.049349 24.518227 21.729808 23 25.5 23C27.453704 23 28.375 23.78125 28.375 23.78125 A 1.0001 1.0001 0 0 0 30 23L30 22C30 19.725 30.769225 17.473091 32.3125 15.804688C33.855775 14.136283 36.171418 13 39.5 13C42.286636 13 44.338061 14.113482 45.775391 15.851562C47.21272 17.589644 48 19.991644 48 22.5C48 25.894444 46.248698 27.93276 44.416016 29.25C42.583334 30.56724 40.757812 31.029297 40.757812 31.029297 A 1.0001 1.0001 0 0 0 40.029297 31.761719C40.029297 31.761719 39.268127 34.844391 37.111328 37.927734C34.954529 41.011078 31.539672 44 26 44C22.024147 44 20.230556 43 18 43C16.833333 43 15.824645 43.289191 15.033203 43.550781C14.271808 43.802441 13.69074 43.968874 13.59375 43.982422C13.548204 43.970157 13.472377 43.950955 13.380859 43.90625C13.179324 43.80777 12.891166 43.640289 12.558594 43.416016C11.893449 42.967468 11.042309 42.29269 10.162109 41.455078C8.4017109 39.779854 6.5266708 37.442836 5.5800781 34.951172C2.5297801 26.917967 2.2865352 20.941418 2.0644531 17.615234 A 1.0001 1.0001 0 0 0 2.0644531 17.613281C2.014554 16.869639 2.0039062 16.169253 2.0039062 15.5C2.0010608 12.180141 2.7885835 10.539574 4.5019531 8.875C5.770166 7.643858 7.5223573 6.2259576 8.9492188 6.0351562C9.1662957 6.0060771 9.3596352 5.9931015 9.5351562 5.9960938 z" />
</svg>