<?xml version="1.0" encoding="utf-8"?>
<svg xmlns="http://www.w3.org/2000/svg" viewBox="0 0 50 50" width="515" height="515">
  <path d="M25 1C22.800781 1 21 2.800781 21 5L21 6L12 6C10.355469 6 9 7.355469 9 9L9 46C9 47.644531 10.355469 49 12 49L38 49C39.644531 49 41 47.644531 41 46L41 9C41 7.355469 39.644531 6 38 6L29 6L29 5C29 2.800781 27.199219 1 25 1 Z M 25 3C26.117188 3 27 3.882813 27 5L27 6.8125C27 6.84375 27 6.875 27 6.90625L27 7C26.992188 7.074219 26.992188 7.144531 27 7.21875L27 9L23 9L23 7.1875C23.027344 7.054688 23.027344 6.914063 23 6.78125L23 5C23 3.882813 23.882813 3 25 3 Z M 25 4C24.449219 4 24 4.449219 24 5C24 5.550781 24.449219 6 25 6C25.550781 6 26 5.550781 26 5C26 4.449219 25.550781 4 25 4 Z M 12 8L21 8L21 10C21 10.550781 21.449219 11 22 11L28 11C28.550781 11 29 10.550781 29 10L29 8L38 8C38.566406 8 39 8.433594 39 9L39 46C39 46.566406 38.566406 47 38 47L12 47C11.433594 47 11 46.566406 11 46L11 9C11 8.433594 11.433594 8 12 8 Z M 24.9375 14C22.832031 14.039063 21.285156 14.976563 20.65625 16.40625C20.09375 17.683594 20.199219 19.167969 20.53125 20.65625C20.332031 20.992188 20.222656 21.410156 20.28125 21.90625C20.351563 22.492188 20.519531 22.972656 20.8125 23.34375C20.902344 23.457031 21.046875 23.445313 21.15625 23.53125C21.253906 23.953125 21.355469 24.375 21.53125 24.71875C21.648438 24.953125 21.761719 25.152344 21.90625 25.34375C21.921875 25.363281 21.953125 25.386719 21.96875 25.40625C21.972656 25.765625 21.960938 26.105469 21.9375 26.46875C21.871094 26.601563 21.726563 26.78125 21.28125 27C20.800781 27.238281 20.105469 27.46875 19.375 27.78125C18.644531 28.09375 17.875 28.496094 17.21875 29.15625C16.5625 29.816406 16.070313 30.769531 16 31.9375C15.984375 32.214844 16.082031 32.484375 16.269531 32.683594C16.460938 32.886719 16.722656 33 17 33L33 33C33.277344 33 33.539063 32.886719 33.730469 32.683594C33.917969 32.484375 34.015625 32.214844 34 31.9375C33.929688 30.769531 33.4375 29.820313 32.78125 29.15625C32.125 28.492188 31.355469 28.09375 30.625 27.78125C29.894531 27.46875 29.195313 27.238281 28.71875 27C28.277344 26.78125 28.128906 26.601563 28.0625 26.46875C28.039063 26.105469 28.027344 25.765625 28.03125 25.40625C28.050781 25.378906 28.105469 25.371094 28.125 25.34375C28.265625 25.148438 28.382813 24.921875 28.5 24.6875C28.667969 24.34375 28.75 23.945313 28.84375 23.53125C28.953125 23.445313 29.097656 23.457031 29.1875 23.34375C29.480469 22.972656 29.648438 22.492188 29.71875 21.90625C29.78125 21.390625 29.652344 20.96875 29.4375 20.625C29.640625 19.90625 29.898438 19.023438 29.8125 17.9375C29.761719 17.265625 29.574219 16.558594 29.125 15.9375C28.714844 15.371094 28.050781 14.980469 27.25 14.8125C26.636719 14.261719 25.839844 14 24.96875 14C24.957031 14 24.949219 14 24.9375 14 Z M 24.96875 16C25.722656 16 26.042969 16.242188 26.03125 16.21875C26.179688 16.488281 26.445313 16.671875 26.75 16.71875C27.207031 16.78125 27.382813 16.921875 27.53125 17.125C27.679688 17.328125 27.777344 17.660156 27.8125 18.09375C27.878906 18.960938 27.601563 20.101563 27.4375 20.59375C27.3125 20.972656 27.421875 21.390625 27.71875 21.65625C27.71875 21.667969 27.71875 21.675781 27.71875 21.6875C27.683594 21.976563 27.636719 22.011719 27.625 22.03125C27.273438 22.171875 27.03125 22.5 27 22.875C26.972656 23.140625 26.832031 23.515625 26.6875 23.8125C26.613281 23.960938 26.550781 24.085938 26.5 24.15625C26.199219 24.34375 26.023438 24.675781 26.03125 25.03125C26.03125 25.621094 26.027344 26.136719 26.09375 26.875C26.09375 26.960938 26.105469 27.042969 26.125 27.125C26.445313 27.976563 27.179688 28.449219 27.84375 28.78125C28.507813 29.113281 29.210938 29.355469 29.84375 29.625C30.476563 29.894531 31.011719 30.199219 31.375 30.5625C31.480469 30.667969 31.480469 30.878906 31.5625 31L18.4375 31C18.519531 30.878906 18.519531 30.667969 18.625 30.5625C18.988281 30.195313 19.554688 29.894531 20.1875 29.625C20.820313 29.355469 21.519531 29.113281 22.1875 28.78125C22.855469 28.449219 23.554688 27.976563 23.875 27.125C23.90625 27.042969 23.925781 26.960938 23.9375 26.875C24.003906 26.136719 23.96875 25.621094 23.96875 25.03125C23.980469 24.714844 23.839844 24.414063 23.59375 24.21875C23.589844 24.21875 23.542969 24.195313 23.53125 24.1875C23.5 24.164063 23.46875 24.144531 23.4375 24.125C23.488281 24.152344 23.507813 24.144531 23.53125 24.15625C23.476563 24.085938 23.386719 23.960938 23.3125 23.8125C23.164063 23.515625 23.027344 23.132813 23 22.875C22.96875 22.5 22.726563 22.171875 22.375 22.03125C22.367188 22.015625 22.316406 21.949219 22.28125 21.65625C22.542969 21.40625 22.652344 21.039063 22.5625 20.6875C22.183594 19.238281 22.175781 17.953125 22.5 17.21875C22.824219 16.484375 23.347656 16.03125 24.96875 16 Z M 17.8125 36C17.261719 36.050781 16.855469 36.542969 16.90625 37.09375C16.957031 37.644531 17.449219 38.050781 18 38L32 38C32.359375 38.003906 32.695313 37.816406 32.878906 37.503906C33.058594 37.191406 33.058594 36.808594 32.878906 36.496094C32.695313 36.183594 32.359375 35.996094 32 36L18 36C17.96875 36 17.9375 36 17.90625 36C17.875 36 17.84375 36 17.8125 36 Z M 17.8125 40C17.261719 40.050781 16.855469 40.542969 16.90625 41.09375C16.957031 41.644531 17.449219 42.050781 18 42L32 42C32.359375 42.003906 32.695313 41.816406 32.878906 41.503906C33.058594 41.191406 33.058594 40.808594 32.878906 40.496094C32.695313 40.183594 32.359375 39.996094 32 40L18 40C17.96875 40 17.9375 40 17.90625 40C17.875 40 17.84375 40 17.8125 40Z" />
</svg>