<?xml version="1.0" encoding="utf-8"?>
<svg xmlns="http://www.w3.org/2000/svg" viewBox="0 0 50 50" width="515" height="515">
  <path d="M9 4C6.2504839 4 4 6.2504839 4 9L4 41C4 43.749516 6.2504839 46 9 46L41 46C43.749516 46 46 43.749516 46 41L46 9C46 6.2504839 43.749516 4 41 4L9 4 z M 9 6L41 6C42.668484 6 44 7.3315161 44 9L44 41C44 42.668484 42.668484 44 41 44L9 44C7.3315161 44 6 42.668484 6 41L6 9C6 7.3315161 7.3315161 6 9 6 z M 19 14.167969L19 16L19 35.832031L35.849609 25L19 14.167969 z M 21 17.832031L32.150391 25L21 32.167969L21 17.832031 z" />
</svg>