<?xml version="1.0" encoding="utf-8"?>
<svg xmlns="http://www.w3.org/2000/svg" width="515" height="515" viewBox="0 0 50 50">
  <path d="M25 2C12.309288 2 2 12.309297 2 25C2 37.690703 12.309288 48 25 48C37.690712 48 48 37.690703 48 25C48 12.309297 37.690712 2 25 2 z M 25 4C36.609833 4 46 13.390175 46 25C46 36.609825 36.609833 46 25 46C13.390167 46 4 36.609825 4 25C4 13.390175 13.390167 4 25 4 z M 21.990234 13.990234 A 1.0001 1.0001 0 0 0 21.292969 15.707031L30.585938 25L21.292969 34.292969 A 1.0001 1.0001 0 1 0 22.707031 35.707031L32.707031 25.707031 A 1.0001 1.0001 0 0 0 32.707031 24.292969L22.707031 14.292969 A 1.0001 1.0001 0 0 0 21.990234 13.990234 z" />
</svg>