<?xml version="1.0" encoding="utf-8"?>
<svg xmlns="http://www.w3.org/2000/svg" width="515" height="515" viewBox="0 0 50 50">
  <path d="M26 2C13.300781 2 8.398438 10.199219 8 18L8 24.6875C7.300781 25.488281 7 26.511719 7 27.8125C7 30.113281 8.488281 32 10.6875 32.5C13.289063 39.300781 17.601563 48 25 48C29 48 32.101563 45.398438 34.5 42L31.90625 42C29.707031 44.699219 27.40625 46 24.90625 46C20.105469 46 15.988281 41.1875 12.1875 31.1875L12 30.59375L11.40625 30.5C10.105469 30.5 9 29.3125 9 27.8125C9 27.226563 9.109375 26.734375 9.28125 26.34375L12.5625 27.90625C12.875 28.058594 13.242188 28.039063 13.535156 27.851563C13.824219 27.667969 14.003906 27.347656 14 27L14 19.84375C14.691406 19.796875 16.511719 19.726563 19.53125 19C22.707031 18.238281 26.371094 16.875 28.90625 14.4375C31.589844 17.972656 35.058594 19.34375 36 19.65625L36 27C35.996094 27.347656 36.175781 27.667969 36.464844 27.851563C36.757813 28.039063 37.125 28.058594 37.4375 27.90625L39 27.125L39 30.4375C38.839844 30.472656 38.667969 30.5 38.5 30.5L37.90625 30.59375L37.6875 31.1875C36.6875 33.789063 35.6875 36.007813 34.6875 37.90625C35.886719 37.707031 37.011719 37.210938 37.8125 36.3125C38.414063 35.011719 38.90625 33.699219 39.40625 32.5C39.605469 32.449219 39.800781 32.367188 40 32.28125L40 33C40 36.371094 37.371094 39 34 39L29.8125 39C29.394531 37.84375 28.292969 37 27 37L25 37C23.355469 37 22 38.355469 22 40C22 41.644531 23.355469 43 25 43L27 43C28.292969 43 29.394531 42.15625 29.8125 41L34 41C38.429688 41 42 37.429688 42 33L42 32C43.644531 32 45 30.644531 45 29L45 25C45 23.355469 43.644531 22 42 22L42 18C41.601563 9.199219 36.707031 4.199219 28.40625 4L26.40625 2 Z M 25.59375 4L27.59375 6L28 6C38 6 39.800781 13.5 40 18L40 22C39.96875 22 39.9375 22 39.90625 22C39.390625 22.046875 38.996094 22.480469 39 23L39 24.875L38 25.375L38 19C38.003906 18.550781 37.710938 18.15625 37.28125 18.03125C37.28125 18.03125 32.296875 16.464844 29.84375 12.46875C29.644531 12.148438 29.28125 11.96875 28.90625 12C28.636719 12.027344 28.386719 12.160156 28.21875 12.375C26.226563 14.765625 22.433594 16.261719 19.09375 17.0625C15.753906 17.863281 12.9375 18 12.9375 18C12.410156 18.03125 12 18.472656 12 19L12 25.40625L9.90625 24.40625L9.90625 18C10.507813 7.898438 18.292969 4.101563 25.59375 4 Z M 41 24L42 24C42.554688 24 43 24.445313 43 25L43 29C43 29.554688 42.554688 30 42 30L41.1875 30C41.125 29.984375 41.0625 29.972656 41 29.96875L41 25.625C41.015625 25.519531 41.015625 25.417969 41 25.3125 Z M 25 39L27 39C27.554688 39 28 39.445313 28 40C28 40.554688 27.554688 41 27 41L25 41C24.445313 41 24 40.554688 24 40C24 39.445313 24.445313 39 25 39Z" />
</svg>