<?xml version="1.0" encoding="utf-8"?>
<svg xmlns="http://www.w3.org/2000/svg" viewBox="0 0 50 50" width="515" height="515">
  <path d="M26.78125 0C26.75 0.0078125 26.71875 0.0195313 26.6875 0.03125L10.6875 5.03125C10.269531 5.167969 9.992188 5.5625 10 6L10 46C10 46.457031 10.308594 46.855469 10.75 46.96875L26.75 50.96875C27.050781 51.046875 27.367188 50.980469 27.613281 50.789063C27.855469 50.601563 28 50.308594 28 50L28 1C28.003906 0.710938 27.878906 0.4375 27.664063 0.246094C27.449219 0.0546875 27.160156 -0.0351563 26.875 0C26.84375 0 26.8125 0 26.78125 0 Z M 26 2.375L26 48.71875L12 45.21875L12 6.75 Z M 30 4L30 6L38 6L38 45L30 45L30 47L39 47C39.550781 47 40 46.550781 40 46L40 5C40 4.449219 39.550781 4 39 4 Z M 24 24C23.449219 24 23 24.671875 23 25.5C23 26.328125 23.449219 27 24 27C24.550781 27 25 26.328125 25 25.5C25 24.671875 24.550781 24 24 24Z" />
</svg>