<?xml version="1.0" encoding="utf-8"?>
<svg xmlns="http://www.w3.org/2000/svg" viewBox="0 0 50 50" width="515" height="515">
  <path d="M26.3125 0C20.257813 0 14.421875 1.878906 10.09375 5.8125C5.765625 9.746094 3 15.710938 3 23.6875C3 36.703125 13.082031 50 27.40625 50L27.59375 50C27.605469 50 27.613281 50 27.625 50C30.585938 49.945313 33.417969 48.9375 35.53125 47.03125C37.644531 45.125 39 42.3125 39 38.8125C39 36.878906 38.082031 35.347656 37.625 34.15625C37.625 34.144531 37.625 34.136719 37.625 34.125C36.9375 32.390625 37.152344 31.59375 37.8125 30.71875C38.472656 29.84375 39.792969 28.976563 41.3125 27.875C44.347656 25.667969 48.050781 22.273438 48 14.90625C48 12.320313 46.574219 8.664063 43.15625 5.5625C39.738281 2.460938 34.316406 0 26.3125 0 Z M 26.3125 2C33.910156 2 38.8125 4.28125 41.84375 7.03125C44.875 9.78125 46 13.09375 46 14.90625C46.046875 21.636719 43.039063 24.132813 40.125 26.25C38.667969 27.308594 37.214844 28.203125 36.21875 29.53125C35.226563 30.851563 34.9375 32.691406 35.78125 34.84375C35.785156 34.851563 35.777344 34.867188 35.78125 34.875C36.320313 36.273438 37 37.554688 37 38.8125C37 41.8125 35.898438 44.019531 34.1875 45.5625C32.476563 47.105469 30.132813 47.953125 27.59375 48L27.40625 48C14.328125 48 5 35.671875 5 23.6875C5 16.164063 7.539063 10.824219 11.4375 7.28125C15.335938 3.738281 20.667969 2 26.3125 2 Z M 26.5 5C25.1875 5 24.035156 5.710938 23.25 6.71875C22.464844 7.726563 22 9.046875 22 10.5C22 11.953125 22.464844 13.273438 23.25 14.28125C24.035156 15.289063 25.1875 16 26.5 16C27.8125 16 28.964844 15.289063 29.75 14.28125C30.535156 13.273438 31 11.953125 31 10.5C31 9.046875 30.535156 7.726563 29.75 6.71875C28.964844 5.710938 27.8125 5 26.5 5 Z M 26.5 7C27.117188 7 27.707031 7.316406 28.1875 7.9375C28.667969 8.558594 29 9.46875 29 10.5C29 11.53125 28.667969 12.441406 28.1875 13.0625C27.707031 13.683594 27.117188 14 26.5 14C25.882813 14 25.292969 13.683594 24.8125 13.0625C24.332031 12.441406 24 11.53125 24 10.5C24 9.46875 24.332031 8.558594 24.8125 7.9375C25.292969 7.316406 25.882813 7 26.5 7 Z M 15.5 10C14.1875 10 13.035156 10.710938 12.25 11.71875C11.464844 12.726563 11 14.046875 11 15.5C11 16.953125 11.464844 18.273438 12.25 19.28125C13.035156 20.289063 14.1875 21 15.5 21C16.8125 21 17.964844 20.289063 18.75 19.28125C19.535156 18.273438 20 16.953125 20 15.5C20 14.046875 19.535156 12.726563 18.75 11.71875C17.964844 10.710938 16.8125 10 15.5 10 Z M 37.5 10C36.1875 10 35.035156 10.710938 34.25 11.71875C33.464844 12.726563 33 14.046875 33 15.5C33 16.953125 33.464844 18.273438 34.25 19.28125C35.035156 20.289063 36.1875 21 37.5 21C38.8125 21 39.964844 20.289063 40.75 19.28125C41.535156 18.273438 42 16.953125 42 15.5C42 14.046875 41.535156 12.726563 40.75 11.71875C39.964844 10.710938 38.8125 10 37.5 10 Z M 15.5 12C16.117188 12 16.707031 12.316406 17.1875 12.9375C17.667969 13.558594 18 14.46875 18 15.5C18 16.53125 17.667969 17.441406 17.1875 18.0625C16.707031 18.683594 16.117188 19 15.5 19C14.882813 19 14.292969 18.683594 13.8125 18.0625C13.332031 17.441406 13 16.53125 13 15.5C13 14.46875 13.332031 13.558594 13.8125 12.9375C14.292969 12.316406 14.882813 12 15.5 12 Z M 37.5 12C38.117188 12 38.707031 12.316406 39.1875 12.9375C39.667969 13.558594 40 14.46875 40 15.5C40 16.53125 39.667969 17.441406 39.1875 18.0625C38.707031 18.683594 38.117188 19 37.5 19C36.882813 19 36.292969 18.683594 35.8125 18.0625C35.332031 17.441406 35 16.53125 35 15.5C35 14.46875 35.332031 13.558594 35.8125 12.9375C36.292969 12.316406 36.882813 12 37.5 12 Z M 14.5 23C13.1875 23 12.035156 23.710938 11.25 24.71875C10.464844 25.726563 10 27.046875 10 28.5C10 29.953125 10.464844 31.273438 11.25 32.28125C12.035156 33.289063 13.1875 34 14.5 34C15.8125 34 16.964844 33.289063 17.75 32.28125C18.535156 31.273438 19 29.953125 19 28.5C19 27.046875 18.535156 25.726563 17.75 24.71875C16.964844 23.710938 15.8125 23 14.5 23 Z M 14.5 25C15.117188 25 15.707031 25.316406 16.1875 25.9375C16.667969 26.558594 17 27.46875 17 28.5C17 29.53125 16.667969 30.441406 16.1875 31.0625C15.707031 31.683594 15.117188 32 14.5 32C13.882813 32 13.292969 31.683594 12.8125 31.0625C12.332031 30.441406 12 29.53125 12 28.5C12 27.46875 12.332031 26.558594 12.8125 25.9375C13.292969 25.316406 13.882813 25 14.5 25 Z M 27 33C23.675781 33 21 35.675781 21 39C21 42.324219 23.675781 45 27 45C30.324219 45 33 42.324219 33 39C33 35.675781 30.324219 33 27 33 Z M 27 35C29.277344 35 31 36.722656 31 39C31 41.277344 29.277344 43 27 43C24.722656 43 23 41.277344 23 39C23 36.722656 24.722656 35 27 35Z" />
</svg>