<?xml version="1.0" encoding="utf-8"?>
<svg xmlns="http://www.w3.org/2000/svg" viewBox="0 0 50 50" width="515" height="515">
  <path d="M35.6875 2C35.460938 2.03125 35.25 2.144531 35.09375 2.3125L9.09375 28.28125C8.996094 28.390625 8.917969 28.515625 8.875 28.65625L2.0625 46.65625C1.929688 47.019531 2.019531 47.429688 2.296875 47.703125C2.570313 47.980469 2.980469 48.070313 3.34375 47.9375L21.34375 41.125C21.484375 41.082031 21.609375 41.003906 21.71875 40.90625L23 39.625C23.238281 39.523438 23.429688 39.332031 23.53125 39.09375L47.6875 14.90625C47.984375 14.664063 48.121094 14.277344 48.035156 13.902344C47.949219 13.53125 47.65625 13.238281 47.285156 13.152344C46.910156 13.066406 46.523438 13.203125 46.28125 13.5L22.34375 37.40625C21.625 37.074219 20.527344 36.703125 19.125 36.75C19.289063 36.304688 19.535156 36.039063 19.625 35.5C19.84375 34.199219 19.726563 32.601563 18.5625 31.4375C17.394531 30.269531 15.785156 30.160156 14.46875 30.40625C14.003906 30.492188 13.777344 30.730469 13.375 30.875C13.390625 30.734375 13.433594 30.710938 13.4375 30.5625C13.460938 29.695313 13.257813 28.621094 12.59375 27.65625L36.5 3.71875C36.796875 3.433594 36.886719 2.992188 36.726563 2.613281C36.570313 2.234375 36.191406 1.992188 35.78125 2C35.75 2 35.71875 2 35.6875 2 Z M 11.09375 29.15625C11.34375 29.613281 11.449219 30.058594 11.4375 30.5C11.421875 31.179688 11.203125 31.765625 11.0625 32.15625C10.910156 32.578125 11.054688 33.046875 11.417969 33.308594C11.78125 33.570313 12.273438 33.558594 12.625 33.28125C12.910156 33.058594 13.863281 32.550781 14.8125 32.375C15.761719 32.199219 16.605469 32.292969 17.15625 32.84375C17.710938 33.398438 17.816406 34.246094 17.65625 35.1875C17.496094 36.128906 17.003906 37.082031 16.8125 37.34375C16.535156 37.695313 16.523438 38.1875 16.785156 38.550781C17.046875 38.914063 17.515625 39.058594 17.9375 38.90625C19.207031 38.519531 20.195313 38.65625 20.875 38.875L20.40625 39.34375L9.375 43.53125L6.5 40.625L10.65625 29.59375Z" />
</svg>