<?xml version="1.0" encoding="utf-8"?>
<svg xmlns="http://www.w3.org/2000/svg" viewBox="0 0 50 50" width="515" height="515">
  <path d="M15.007812 3.1015625C8.9574315 2.9973357 4 7.9580048 4 14L4 36C4 39.061905 5.2100354 41.823317 7.1933594 43.806641C9.1766834 45.789965 11.938095 47 15 47C18.277727 47 21.195887 45.552554 23.191406 43.322266C25.824063 45.605819 29.248711 47 33 47C41.272431 47 48 40.272425 48 32C48 23.727575 41.272431 17 33 17C30.471966 17 28.091573 17.633527 26 18.742188L26 14.099609C26 8.0569459 21.049469 3.1061337 15.007812 3.1015625 z M 14.982422 5.0996094L14.990234 5.0996094L15 5.0996094C19.954545 5.0996094 24 9.1450643 24 14.099609L24 20.027344C22.550741 21.119443 21.306075 22.463079 20.332031 24L6 24L6 14C6 9.0454545 10.037518 5.009702 14.982422 5.0996094 z M 33 19C40.191552 19 46 24.808453 46 32C46 39.191547 40.191552 45 33 45C25.808448 45 20 39.191547 20 32C20 24.808453 25.808448 19 33 19 z M 40.080078 23.890625 A 1.0001 1.0001 0 0 0 39.392578 24.193359L25.193359 38.392578 A 1.0001 1.0001 0 1 0 26.607422 39.806641L40.806641 25.607422 A 1.0001 1.0001 0 0 0 40.080078 23.890625 z M 6 26L19.259766 26C19.068491 26.436387 18.899708 26.883061 18.75 27.339844 A 1 1 0 0 0 18 27 A 1 1 0 0 0 18 29 A 1 1 0 0 0 18.3125 28.949219C18.108133 29.934704 18 30.954729 18 32C18 32.338304 18.028633 32.669171 18.050781 33.001953 A 1 1 0 0 0 18 33 A 1 1 0 0 0 18 35 A 1 1 0 0 0 18.294922 34.955078C18.823514 37.590366 20.054398 39.968647 21.769531 41.910156C21.69559 41.994852 21.629868 42.086015 21.552734 42.167969 A 1 1 0 0 0 21 42 A 1 1 0 0 0 20.089844 43.416016C18.651155 44.405922 16.904131 45 15 45C13.077833 45 11.328974 44.431136 9.890625 43.453125 A 1 1 0 0 0 9 42 A 1 1 0 0 0 8.4199219 42.185547C6.9185796 40.586691 6 38.434723 6 36L6 35 A 1 1 0 0 0 6 33L6 29 A 1 1 0 0 0 6 27L6 26 z M 12 27 A 1 1 0 0 0 12 29 A 1 1 0 0 0 12 27 z M 9 30 A 1 1 0 0 0 9 32 A 1 1 0 0 0 9 30 z M 15 30 A 1 1 0 0 0 15 32 A 1 1 0 0 0 15 30 z M 12 33 A 1 1 0 0 0 12 35 A 1 1 0 0 0 12 33 z M 9 36 A 1 1 0 0 0 9 38 A 1 1 0 0 0 9 36 z M 15 36 A 1 1 0 0 0 15 38 A 1 1 0 0 0 15 36 z M 12 39 A 1 1 0 0 0 12 41 A 1 1 0 0 0 12 39 z M 18 39 A 1 1 0 0 0 18 41 A 1 1 0 0 0 18 39 z M 15 42 A 1 1 0 0 0 15 44 A 1 1 0 0 0 15 42 z" />
</svg>