<?xml version="1.0" encoding="utf-8"?>
<svg xmlns="http://www.w3.org/2000/svg" viewBox="0 0 50 50" width="515" height="515">
  <path d="M23.488281 4.007813C23.292969 3.996094 23.09375 4.007813 22.890625 4.042969C21.734375 4.25 20.949219 5.199219 20.761719 6.261719C20.761719 6.261719 20.761719 6.261719 20.761719 6.265625L18.046875 21.65625L14.753906 27.488281C14.753906 27.492188 14.753906 27.492188 14.753906 27.492188C14.578125 27.808594 14.246094 28 13.886719 28L10 28C10 27.449219 9.550781 27 9 27L3 27C2.449219 27 2 27.449219 2 28L2 45C2 45.550781 2.449219 46 3 46L9 46C9.550781 46 10 45.550781 10 45L10 42L16.125 42C20.003906 42 23.332031 39.207031 24.003906 35.390625L25 29.753906L25.996094 35.390625C26.667969 39.207031 29.996094 42 33.875 42L40 42L40 45C40 45.550781 40.449219 46 41 46L47 46C47.550781 46 48 45.550781 48 45L48 28C48 27.449219 47.550781 27 47 27L41 27C40.449219 27 40 27.449219 40 28L36.113281 28C35.753906 28 35.421875 27.808594 35.246094 27.492188C35.246094 27.492188 35.246094 27.492188 35.246094 27.488281L31.953125 21.65625L29.238281 6.265625C29.238281 6.261719 29.238281 6.261719 29.238281 6.261719C29.050781 5.199219 28.265625 4.25 27.109375 4.042969C26.324219 3.902344 25.570313 4.136719 25 4.59375C24.578125 4.253906 24.054688 4.035156 23.488281 4.007813 Z M 23.242188 6.011719C23.695313 5.929688 24 6.230469 24 6.632813L24 23.910156L22.035156 35.042969C21.53125 37.917969 19.046875 40 16.125 40L10 40L10 30L13.886719 30C14.964844 30 15.96875 29.414063 16.5 28.472656L16.496094 28.472656L19.871094 22.492188C19.925781 22.394531 19.964844 22.285156 19.984375 22.171875L22.730469 6.609375C22.785156 6.292969 23.019531 6.050781 23.242188 6.011719 Z M 26.757813 6.011719C26.980469 6.050781 27.214844 6.292969 27.269531 6.609375L30.015625 22.171875C30.035156 22.285156 30.074219 22.394531 30.128906 22.492188L33.503906 28.472656L33.5 28.472656C34.03125 29.414063 35.035156 30 36.113281 30L40 30L40 40L33.875 40C30.953125 40 28.46875 37.917969 27.964844 35.042969L26 23.910156L26 6.632813C26 6.230469 26.304688 5.929688 26.757813 6.011719 Z M 4 29L8 29L8 44L4 44 Z M 42 29L46 29L46 44L42 44Z" />
</svg>