<?xml version="1.0" encoding="utf-8"?>
<svg xmlns="http://www.w3.org/2000/svg" viewBox="0 0 50 50" width="515" height="515">
  <path d="M28.625 1.9941406C28.289456 1.9973906 27.945255 2.0129998 27.595703 2.0585938C26.896599 2.1497808 26.112492 2.3945967 25.546875 3.0410156L2.8925781 25.693359C1.7885171 26.79742 1.8213179 28.584855 2.8476562 29.757812L2.8691406 29.783203L20.292969 47.207031C21.39703 48.311092 23.186417 48.278294 24.359375 47.251953L24.382812 47.230469L47.107422 24.507812C48.245152 23.370079 48.099609 21.8 48.099609 20.5L48.099609 20.085938L48.074219 20.060547C48.071519 19.979467 48.068906 19.921924 48.066406 19.8125C48.057006 19.409233 48.049979 18.828247 48.042969 18.132812C48.028949 16.741944 48.017969 14.888327 48.011719 13.033203C47.999216 9.3229544 48 5.6 48 5.5C48 3.5761905 46.42381 2 44.5 2L29.599609 2C29.28743 2 28.960544 1.9908906 28.625 1.9941406 z M 28.642578 3.9980469C28.938284 3.9951445 29.261789 4 29.599609 4L44.5 4C45.37619 4 46 4.6238095 46 5.5C46 5.6 45.99921 9.326263 46.011719 13.041016C46.018019 14.898392 46.028859 16.752588 46.042969 18.152344C46.050069 18.852222 46.056636 19.436861 46.066406 19.857422C46.071306 20.067702 46.077694 20.235661 46.083984 20.365234C46.086884 20.425764 46.090683 20.475923 46.095703 20.53125C46.092303 21.80921 45.952482 22.834627 45.693359 23.09375L23.035156 45.75C22.608363 46.118909 22.00178 46.087717 21.707031 45.792969L4.3535156 28.441406L4.3515625 28.4375C3.9812489 28.01063 4.0115393 27.402523 4.3066406 27.107422L27.03125 4.3828125L27.052734 4.359375C27.187118 4.2057939 27.402619 4.0998282 27.853516 4.0410156C28.078964 4.0116094 28.346872 4.0009492 28.642578 3.9980469 z M 39 7C36.790196 7 35 8.7901961 35 11C35 13.209804 36.790196 15 39 15C41.209804 15 43 13.209804 43 11C43 8.7901961 41.209804 7 39 7 z M 39 9C40.190196 9 41 9.8098039 41 11C41 12.190196 40.190196 13 39 13C37.809804 13 37 12.190196 37 11C37 9.8098039 37.809804 9 39 9 z" />
</svg>