<?xml version="1.0" encoding="utf-8"?>
<svg xmlns="http://www.w3.org/2000/svg" viewBox="0 0 50 50" width="515" height="515">
  <path d="M25 2.3007812C22.744595 2.3007812 20.859789 3.553233 18.080078 4.9863281C15.300368 6.4194233 11.587053 8.1454441 5.7851562 9.4238281L5 9.5957031L5 10.400391C5 24.233234 9.8591239 33.493824 14.738281 39.246094C19.617439 44.998364 24.580078 47.306641 24.580078 47.306641L25.021484 47.511719L25.455078 47.291016C25.455078 47.291016 45 37.182013 45 10.400391L45 9.5957031L44.214844 9.4238281C38.412947 8.1454441 34.699632 6.4194233 31.919922 4.9863281C29.140211 3.553233 27.255405 2.3007813 25 2.3007812 z M 25 4.3007812C26.444595 4.3007812 28.158617 5.296767 31.003906 6.7636719C33.689612 8.1483022 37.4892 9.8268454 42.935547 11.125C42.582538 35.378765 26.27195 44.542656 24.984375 45.226562C24.366462 44.923682 20.528449 42.983376 16.261719 37.953125C11.732079 32.612918 7.2403346 24.04972 7.0625 11.125C12.50998 9.8267841 16.310051 8.148476 18.996094 6.7636719C21.841383 5.296767 23.555405 4.3007813 25 4.3007812 z M 32.703125 14.617188L32.160156 15.457031L24 28.070312L18.669922 23.257812L17.927734 22.587891L16.587891 24.072266L17.330078 24.742188L24.402344 31.128906L33.839844 16.542969L34.382812 15.703125L32.703125 14.617188 z" />
</svg>