<?xml version="1.0" encoding="utf-8"?>
<svg xmlns="http://www.w3.org/2000/svg" viewBox="0 0 50 50" width="515" height="515">
  <path d="M36.9375 9C34.128906 9 31.980469 10.027344 30.71875 11.625C30.472656 11.554688 30.203125 11.507813 29.9375 11.46875L29.46875 10.5625C29.304688 10.226563 28.96875 10.007813 28.59375 10C25.167969 10 22.660156 11.394531 21.3125 13.40625C20.6875 12.992188 19.902344 12.734375 19.0625 12.625L18.5625 11.5625C18.394531 11.214844 18.042969 10.996094 17.65625 11C13.964844 11 11.242188 12.496094 9.8125 14.71875C8.507813 16.75 8.429688 19.308594 9.25 21.6875C8.886719 22.164063 8.648438 22.789063 8.75 23.65625C8.859375 24.613281 9.109375 25.300781 9.5 25.8125C9.671875 26.035156 9.910156 26.050781 10.125 26.1875C10.261719 26.984375 10.492188 27.777344 10.8125 28.4375C11 28.828125 11.191406 29.167969 11.40625 29.46875C11.476563 29.570313 11.613281 29.628906 11.6875 29.71875C11.691406 30.609375 11.695313 31.355469 11.625 32.28125C11.40625 32.816406 10.957031 33.246094 10.15625 33.6875C9.320313 34.148438 8.214844 34.574219 7.0625 35.125C5.910156 35.675781 4.707031 36.382813 3.75 37.46875C2.792969 38.554688 2.109375 40.023438 2 41.9375C1.984375 42.214844 2.082031 42.484375 2.269531 42.683594C2.460938 42.886719 2.722656 43 3 43L30 43C30.277344 43 30.539063 42.886719 30.730469 42.683594C30.917969 42.484375 31.015625 42.214844 31 41.9375C30.933594 40.800781 30.640625 39.839844 30.21875 39L40 39C40.277344 39 40.539063 38.886719 40.730469 38.683594C40.917969 38.484375 41.015625 38.214844 41 37.9375C40.933594 36.792969 40.601563 35.820313 40.125 35L47 35C47.277344 35 47.539063 34.886719 47.730469 34.683594C47.917969 34.484375 48.015625 34.214844 48 33.9375C47.90625 32.351563 47.292969 31.113281 46.4375 30.21875C45.582031 29.324219 44.53125 28.757813 43.53125 28.3125C42.53125 27.867188 41.550781 27.519531 40.84375 27.15625C40.175781 26.8125 39.839844 26.496094 39.6875 26.15625C39.636719 25.484375 39.652344 24.929688 39.65625 24.28125C39.703125 24.21875 39.796875 24.160156 39.84375 24.09375C40.023438 23.839844 40.191406 23.539063 40.34375 23.21875C40.589844 22.703125 40.753906 22.085938 40.875 21.46875C41.039063 21.355469 41.242188 21.359375 41.375 21.1875C41.722656 20.738281 41.9375 20.136719 42.03125 19.34375C42.089844 18.839844 42.015625 18.375 41.84375 17.96875C41.808594 17.886719 41.671875 17.863281 41.625 17.78125C41.792969 17.351563 42.011719 16.945313 42.0625 16.4375C42.140625 15.621094 42.109375 14.738281 41.875 13.84375C41.640625 12.949219 41.214844 12.039063 40.5 11.34375C39.929688 10.789063 39.117188 10.484375 38.21875 10.34375L37.84375 9.5625C37.675781 9.214844 37.324219 8.996094 36.9375 9 Z M 36.40625 11.125L36.65625 11.65625C36.828125 11.980469 37.164063 12.183594 37.53125 12.1875C38.269531 12.1875 38.71875 12.414063 39.09375 12.78125C39.46875 13.148438 39.773438 13.710938 39.9375 14.34375C40.101563 14.976563 40.152344 15.667969 40.09375 16.25C40.035156 16.832031 39.832031 17.3125 39.78125 17.375C39.613281 17.59375 39.539063 17.867188 39.582031 18.140625C39.621094 18.414063 39.773438 18.65625 40 18.8125C40.011719 18.855469 40.050781 18.945313 40.03125 19.125C39.96875 19.652344 39.832031 19.863281 39.78125 19.9375C39.78125 19.949219 39.78125 19.957031 39.78125 19.96875C39.359375 20.0625 39.042969 20.414063 39 20.84375C38.953125 21.304688 38.753906 21.90625 38.53125 22.375C38.417969 22.609375 38.308594 22.808594 38.21875 22.9375C38.171875 23 38.113281 23.050781 38.09375 23.0625C37.816406 23.253906 37.652344 23.570313 37.65625 23.90625C37.65625 24.773438 37.59375 25.492188 37.6875 26.53125C37.699219 26.617188 37.71875 26.699219 37.75 26.78125C38.140625 27.84375 39.042969 28.476563 39.9375 28.9375C40.832031 29.398438 41.816406 29.757813 42.71875 30.15625C43.621094 30.554688 44.433594 31 45 31.59375C45.359375 31.96875 45.605469 32.445313 45.78125 33L38.3125 33C37.578125 32.460938 36.78125 32.0625 36 31.71875C34.867188 31.222656 33.753906 30.820313 32.9375 30.40625C32.15625 30.011719 31.746094 29.644531 31.5625 29.21875C31.5 28.425781 31.496094 27.761719 31.5 27C31.5625 26.921875 31.6875 26.867188 31.75 26.78125C31.949219 26.503906 32.140625 26.199219 32.3125 25.84375C32.59375 25.257813 32.777344 24.546875 32.90625 23.84375C33.105469 23.714844 33.339844 23.707031 33.5 23.5C33.875 23.019531 34.113281 22.375 34.21875 21.5C34.285156 20.949219 34.21875 20.433594 34.03125 20C33.984375 19.886719 33.816406 19.855469 33.75 19.75C33.945313 19.273438 34.191406 18.828125 34.25 18.25C34.339844 17.347656 34.292969 16.332031 34.03125 15.34375C33.773438 14.367188 33.304688 13.414063 32.53125 12.65625C33.335938 11.816406 34.609375 11.246094 36.40625 11.125 Z M 28 12.0625L28.375 12.8125C28.546875 13.136719 28.882813 13.339844 29.25 13.34375C29.75 13.34375 30.136719 13.433594 30.46875 13.59375C30.5 13.617188 30.53125 13.636719 30.5625 13.65625C30.574219 13.664063 30.582031 13.679688 30.59375 13.6875C30.632813 13.710938 30.675781 13.730469 30.71875 13.75C30.730469 13.757813 30.738281 13.773438 30.75 13.78125C30.769531 13.792969 30.792969 13.804688 30.8125 13.8125C30.917969 13.890625 31.027344 13.96875 31.125 14.0625C31.574219 14.496094 31.902344 15.117188 32.09375 15.84375C32.285156 16.570313 32.347656 17.394531 32.28125 18.0625C32.214844 18.730469 31.988281 19.238281 31.90625 19.34375C31.722656 19.570313 31.644531 19.871094 31.699219 20.160156C31.753906 20.449219 31.933594 20.699219 32.1875 20.84375C32.207031 20.898438 32.246094 21.011719 32.21875 21.25C32.144531 21.878906 31.980469 22.1875 31.90625 22.28125C31.882813 22.308594 31.882813 22.304688 31.875 22.3125C31.429688 22.378906 31.082031 22.738281 31.03125 23.1875C30.972656 23.726563 30.757813 24.433594 30.5 24.96875C30.371094 25.238281 30.234375 25.472656 30.125 25.625C30.070313 25.699219 29.996094 25.757813 29.96875 25.78125C29.679688 25.964844 29.5 26.28125 29.5 26.625C29.5 27.605469 29.457031 28.429688 29.5625 29.59375C29.574219 29.679688 29.59375 29.761719 29.625 29.84375C30.050781 31 31.027344 31.707031 32.03125 32.21875C33.035156 32.730469 34.15625 33.109375 35.1875 33.5625C35.925781 33.886719 36.613281 34.230469 37.1875 34.65625C37.273438 34.761719 37.378906 34.84375 37.5 34.90625C37.613281 35.003906 37.710938 35.113281 37.8125 35.21875C38.265625 35.6875 38.550781 36.28125 38.75 37L28.6875 37C27.761719 36.171875 26.699219 35.59375 25.65625 35.125C24.4375 34.574219 23.234375 34.152344 22.34375 33.6875C21.492188 33.242188 21.027344 32.796875 20.8125 32.28125C20.742188 31.355469 20.746094 30.609375 20.75 29.71875C20.824219 29.628906 20.960938 29.570313 21.03125 29.46875C21.242188 29.167969 21.441406 28.796875 21.625 28.40625C21.933594 27.746094 22.113281 26.976563 22.25 26.1875C22.472656 26.050781 22.730469 26.046875 22.90625 25.8125C23.292969 25.300781 23.546875 24.613281 23.65625 23.65625C23.726563 23.0625 23.660156 22.519531 23.46875 22.0625C23.414063 21.929688 23.238281 21.871094 23.15625 21.75C23.386719 21.210938 23.652344 20.703125 23.71875 20.03125C23.8125 19.042969 23.746094 17.957031 23.46875 16.875C23.300781 16.21875 23.039063 15.570313 22.6875 14.96875C23.476563 13.410156 25.167969 12.222656 28 12.0625 Z M 17.09375 13.125L17.5 13.9375C17.667969 14.285156 18.019531 14.503906 18.40625 14.5C19.359375 14.5 19.96875 14.816406 20.46875 15.3125C20.480469 15.324219 20.488281 15.332031 20.5 15.34375C20.5 15.355469 20.5 15.363281 20.5 15.375C20.566406 15.65625 20.746094 15.894531 21 16.03125C21.222656 16.417969 21.40625 16.855469 21.53125 17.34375C21.742188 18.167969 21.792969 19.085938 21.71875 19.84375C21.644531 20.601563 21.421875 21.226563 21.3125 21.375C21.140625 21.605469 21.078125 21.898438 21.136719 22.179688C21.195313 22.460938 21.375 22.703125 21.625 22.84375C21.65625 22.917969 21.722656 23.101563 21.6875 23.40625C21.605469 24.125 21.40625 24.5 21.3125 24.625C21.289063 24.65625 21.292969 24.648438 21.28125 24.65625C20.8125 24.714844 20.445313 25.089844 20.40625 25.5625C20.34375 26.183594 20.097656 26.953125 19.8125 27.5625C19.667969 27.867188 19.5 28.136719 19.375 28.3125C19.28125 28.445313 19.171875 28.53125 19.1875 28.53125C18.910156 28.722656 18.746094 29.039063 18.75 29.375C18.75 30.464844 18.699219 31.375 18.8125 32.65625C18.824219 32.742188 18.84375 32.824219 18.875 32.90625C19.320313 34.144531 20.328125 34.902344 21.40625 35.46875C22.484375 36.035156 23.695313 36.433594 24.8125 36.9375C25.808594 37.386719 26.730469 37.902344 27.4375 38.5625C27.449219 38.574219 27.457031 38.582031 27.46875 38.59375C27.507813 38.640625 27.546875 38.679688 27.59375 38.71875C27.625 38.75 27.65625 38.78125 27.6875 38.8125C28.214844 39.375 28.566406 40.109375 28.78125 41L4.21875 41C4.425781 40.09375 4.753906 39.34375 5.25 38.78125C5.933594 38.007813 6.859375 37.441406 7.90625 36.9375C8.953125 36.433594 10.097656 36.003906 11.125 35.4375C12.152344 34.871094 13.125 34.121094 13.5625 32.90625C13.59375 32.824219 13.613281 32.742188 13.625 32.65625C13.738281 31.375 13.6875 30.464844 13.6875 29.375C13.691406 29.015625 13.5 28.679688 13.1875 28.5C13.152344 28.464844 13.09375 28.402344 13.03125 28.3125C12.902344 28.136719 12.773438 27.867188 12.625 27.5625C12.332031 26.957031 12.0625 26.175781 12 25.5625C11.960938 25.089844 11.59375 24.714844 11.125 24.65625C11.113281 24.652344 11.109375 24.65625 11.09375 24.65625C11.085938 24.648438 11.105469 24.640625 11.09375 24.625C11 24.5 10.800781 24.125 10.71875 23.40625C10.671875 22.992188 10.820313 22.804688 10.84375 22.78125C11.246094 22.519531 11.402344 22.007813 11.21875 21.5625C10.34375 19.542969 10.460938 17.425781 11.5 15.8125C12.460938 14.316406 14.320313 13.28125 17.09375 13.125Z" />
</svg>