<?xml version="1.0" encoding="utf-8"?>
<svg xmlns="http://www.w3.org/2000/svg" viewBox="0 0 50 50" width="515" height="515">
  <path d="M16 5C8.28125 5 2 11.28125 2 19L2 41L22 41L22 21L11 21L11 19C11 16.992188 11.617188 15.195313 12.558594 13.941406C13.496094 12.691406 14.703125 12 16 12L17 12L17 5 Z M 42 5C34.28125 5 28 11.28125 28 19L28 41L48 41L48 21L37 21L37 19C37 16.992188 37.617188 15.195313 38.558594 13.941406C39.496094 12.691406 40.703125 12 42 12L43 12L43 5 Z M 15 7.203125L15 10.265625C13.414063 10.574219 11.96875 11.394531 10.957031 12.746094C9.726563 14.386719 9 16.589844 9 19L9 23L20 23L20 39L4 39L4 19C4 12.714844 8.855469 7.734375 15 7.203125 Z M 41 7.203125L41 10.265625C39.414063 10.574219 37.96875 11.394531 36.957031 12.746094C35.726563 14.386719 35 16.589844 35 19L35 23L46 23L46 39L30 39L30 19C30 12.714844 34.855469 7.734375 41 7.203125Z" />
</svg>