<?xml version="1.0" encoding="utf-8"?>
<svg xmlns="http://www.w3.org/2000/svg" viewBox="0 0 50 50" width="515" height="515">
  <path d="M24.984375 1.9863281 A 1.0001 1.0001 0 0 0 24.814453 2.0039062C12.237888 2.1031784 2.1084057 12.229427 2.0039062 24.804688 A 1.0001 1.0001 0 0 0 2.0039062 25.183594C2.102141 37.76107 12.228737 47.891604 24.804688 47.996094 A 1.0001 1.0001 0 0 0 25.183594 47.996094C37.76107 47.897859 47.891604 37.771263 47.996094 25.195312 A 1.0001 1.0001 0 0 0 47.994141 24.804688C47.958948 20.664327 46.820153 16.802224 44.935547 13.503906 A 1.0001 1.0001 0 1 0 43.199219 14.496094C44.79785 17.293916 45.801992 20.52893 45.966797 24L44 24 A 1.0001 1.0001 0 1 0 44 26L45.974609 26C45.473247 36.853995 36.853995 45.473247 26 45.974609L26 44 A 1.0001 1.0001 0 0 0 24.984375 42.986328 A 1.0001 1.0001 0 0 0 24 44L24 45.974609C13.146005 45.473247 4.5267535 36.853995 4.0253906 26L6 26 A 1.0001 1.0001 0 1 0 6 24L4.0234375 24C4.5248095 13.146126 13.145999 4.5267539 24 4.0253906L24 6 A 1.0001 1.0001 0 1 0 26 6L26 4.0429688C30.427366 4.2564387 34.526051 5.8520499 37.871094 8.3808594 A 1.000399 1.000399 0 1 0 39.078125 6.7851562C35.209579 3.8605843 30.397088 2.0543585 25.203125 2.0078125 A 1.0001 1.0001 0 0 0 24.984375 1.9863281 z M 47.037109 3.9902344 A 1.0001 1.0001 0 0 0 46.263672 4.3242188L24.96875 27.554688L16.707031 19.292969 A 1.0001 1.0001 0 1 0 15.292969 20.707031L25.03125 30.445312L47.736328 5.6757812 A 1.0001 1.0001 0 0 0 47.037109 3.9902344 z" />
</svg>