<?xml version="1.0" encoding="utf-8"?>
<svg xmlns="http://www.w3.org/2000/svg" viewBox="0 0 50 50" width="515" height="515">
  <path d="M25 2 A 1.0001 1.0001 0 1 0 25 4C36.609534 4 46 13.390466 46 25C46 36.609534 36.609534 46 25 46C13.390466 46 4 36.609534 4 25C4 18.776502 6.7056023 13.200205 11 9.3554688L11 17 A 1.0001 1.0001 0 1 0 13 17L13 7 A 1.0001 1.0001 0 0 0 12 6L2 6 A 1.0001 1.0001 0 1 0 2 8L9.5234375 8C4.9051803 12.207192 2 18.26679 2 25C2 37.690466 12.309534 48 25 48C37.690466 48 48 37.690466 48 25C48 12.309534 37.690466 2 25 2 z" />
</svg>