<?xml version="1.0" encoding="utf-8"?>
<svg xmlns="http://www.w3.org/2000/svg" viewBox="0 0 50 50" width="515" height="515">
  <path d="M7 2L7 48L43 48L43 2 Z M 9 4L41 4L41 46L9 46 Z M 17.40625 8C15.226563 8.039063 15.042969 9.714844 15.46875 11.34375C15.46875 11.34375 15.238281 11.582031 15.25 11.90625C15.273438 12.519531 15.6875 12.71875 15.6875 12.71875C15.765625 13.289063 16.257813 13.8125 16.4375 13.90625C16.4375 14.269531 16.472656 14.539063 16.4375 14.9375C16.007813 16.097656 13.132813 15.761719 13 18L21.875 18C21.742188 15.761719 18.871094 16.097656 18.4375 14.9375C18.402344 14.539063 18.4375 14.269531 18.4375 13.90625C18.683594 13.789063 19.105469 13.296875 19.1875 12.71875C19.1875 12.71875 19.625 12.453125 19.625 12C19.625 11.683594 19.492188 11.429688 19.40625 11.34375C19.636719 10.652344 20.046875 8.5625 18.53125 8.5625C18.367188 8.277344 17.953125 8 17.40625 8 Z M 27.71875 10C27.167969 10.078125 26.78125 10.589844 26.859375 11.140625C26.9375 11.691406 27.449219 12.078125 28 12L36 12C36.359375 12.003906 36.695313 11.816406 36.878906 11.503906C37.058594 11.191406 37.058594 10.808594 36.878906 10.496094C36.695313 10.183594 36.359375 9.996094 36 10L28 10C27.96875 10 27.9375 10 27.90625 10C27.875 10 27.84375 10 27.8125 10C27.78125 10 27.75 10 27.71875 10 Z M 27.71875 15C27.167969 15.078125 26.78125 15.589844 26.859375 16.140625C26.9375 16.691406 27.449219 17.078125 28 17L36 17C36.359375 17.003906 36.695313 16.816406 36.878906 16.503906C37.058594 16.191406 37.058594 15.808594 36.878906 15.496094C36.695313 15.183594 36.359375 14.996094 36 15L28 15C27.96875 15 27.9375 15 27.90625 15C27.875 15 27.84375 15 27.8125 15C27.78125 15 27.75 15 27.71875 15 Z M 13.71875 25C13.167969 25.078125 12.78125 25.589844 12.859375 26.140625C12.9375 26.691406 13.449219 27.078125 14 27L28 27C28.359375 27.003906 28.695313 26.816406 28.878906 26.503906C29.058594 26.191406 29.058594 25.808594 28.878906 25.496094C28.695313 25.183594 28.359375 24.996094 28 25L14 25C13.96875 25 13.9375 25 13.90625 25C13.875 25 13.84375 25 13.8125 25C13.78125 25 13.75 25 13.71875 25 Z M 32.71875 25C32.167969 25.078125 31.78125 25.589844 31.859375 26.140625C31.9375 26.691406 32.449219 27.078125 33 27L36 27C36.359375 27.003906 36.695313 26.816406 36.878906 26.503906C37.058594 26.191406 37.058594 25.808594 36.878906 25.496094C36.695313 25.183594 36.359375 24.996094 36 25L33 25C32.96875 25 32.9375 25 32.90625 25C32.875 25 32.84375 25 32.8125 25C32.78125 25 32.75 25 32.71875 25 Z M 13.71875 31C13.167969 31.078125 12.78125 31.589844 12.859375 32.140625C12.9375 32.691406 13.449219 33.078125 14 33L25 33C25.359375 33.003906 25.695313 32.816406 25.878906 32.503906C26.058594 32.191406 26.058594 31.808594 25.878906 31.496094C25.695313 31.183594 25.359375 30.996094 25 31L14 31C13.96875 31 13.9375 31 13.90625 31C13.875 31 13.84375 31 13.8125 31C13.78125 31 13.75 31 13.71875 31 Z M 32.71875 31C32.167969 31.078125 31.78125 31.589844 31.859375 32.140625C31.9375 32.691406 32.449219 33.078125 33 33L36 33C36.359375 33.003906 36.695313 32.816406 36.878906 32.503906C37.058594 32.191406 37.058594 31.808594 36.878906 31.496094C36.695313 31.183594 36.359375 30.996094 36 31L33 31C32.96875 31 32.9375 31 32.90625 31C32.875 31 32.84375 31 32.8125 31C32.78125 31 32.75 31 32.71875 31 Z M 13.71875 37C13.167969 37.078125 12.78125 37.589844 12.859375 38.140625C12.9375 38.691406 13.449219 39.078125 14 39L28 39C28.359375 39.003906 28.695313 38.816406 28.878906 38.503906C29.058594 38.191406 29.058594 37.808594 28.878906 37.496094C28.695313 37.183594 28.359375 36.996094 28 37L14 37C13.96875 37 13.9375 37 13.90625 37C13.875 37 13.84375 37 13.8125 37C13.78125 37 13.75 37 13.71875 37 Z M 32.71875 37C32.167969 37.078125 31.78125 37.589844 31.859375 38.140625C31.9375 38.691406 32.449219 39.078125 33 39L36 39C36.359375 39.003906 36.695313 38.816406 36.878906 38.503906C37.058594 38.191406 37.058594 37.808594 36.878906 37.496094C36.695313 37.183594 36.359375 36.996094 36 37L33 37C32.96875 37 32.9375 37 32.90625 37C32.875 37 32.84375 37 32.8125 37C32.78125 37 32.75 37 32.71875 37Z" />
</svg>