<?xml version="1.0" encoding="utf-8"?>
<svg xmlns="http://www.w3.org/2000/svg" viewBox="0 0 50 50" width="515" height="515">
  <path d="M47.8125 2.5C47.480469 2.5 47.1875 2.761719 47.1875 3.09375C47.1875 3.425781 47.480469 3.6875 47.8125 3.6875C48.144531 3.6875 48.40625 3.425781 48.40625 3.09375C48.40625 2.761719 48.144531 2.5 47.8125 2.5 Z M 46.1875 2.6875C45.855469 2.6875 45.59375 2.980469 45.59375 3.3125C45.59375 3.644531 45.855469 3.90625 46.1875 3.90625C46.519531 3.90625 46.8125 3.644531 46.8125 3.3125C46.8125 2.980469 46.519531 2.6875 46.1875 2.6875 Z M 44.59375 3C44.261719 3 44 3.261719 44 3.59375C44 3.925781 44.261719 4.1875 44.59375 4.1875C44.925781 4.1875 45.1875 3.925781 45.1875 3.59375C45.1875 3.261719 44.925781 3 44.59375 3 Z M 43 3.3125C42.667969 3.3125 42.40625 3.574219 42.40625 3.90625C42.40625 4.238281 42.667969 4.5 43 4.5C43.332031 4.5 43.59375 4.238281 43.59375 3.90625C43.59375 3.574219 43.332031 3.3125 43 3.3125 Z M 41.3125 3.6875C40.980469 3.6875 40.6875 3.980469 40.6875 4.3125C40.6875 4.644531 40.980469 4.90625 41.3125 4.90625C41.644531 4.90625 41.90625 4.644531 41.90625 4.3125C41.90625 3.980469 41.644531 3.6875 41.3125 3.6875 Z M 48 3.875C47.96875 3.882813 47.9375 3.894531 47.90625 3.90625L42.03125 5.03125C42.019531 5.03125 42.011719 5.03125 42 5.03125C41.25 5.179688 40.652344 5.558594 40.1875 5.90625C40.152344 5.933594 40.121094 5.964844 40.09375 6L24.03125 22.125C23.84375 21.320313 23.445313 20.507813 22.71875 19.78125C21.667969 18.730469 20.230469 18.203125 18.78125 18.1875C17.332031 18.171875 15.867188 18.695313 14.71875 19.78125C14.707031 19.78125 14.699219 19.78125 14.6875 19.78125C13.417969 21.050781 12.839844 22.578125 12.71875 23.90625C12.707031 23.917969 12.699219 23.925781 12.6875 23.9375C12.621094 24.988281 11.722656 25.753906 10.65625 25.6875C8.390625 25.578125 5.445313 26.023438 3.1875 28.28125C3.1875 28.292969 3.1875 28.300781 3.1875 28.3125C1.070313 30.480469 -0.0976563 33.234375 0 36.15625C0.0976563 39.078125 1.441406 42.117188 4.1875 44.8125C6.929688 47.554688 9.972656 48.898438 12.875 48.96875C15.777344 49.039063 18.476563 47.835938 20.59375 45.71875C23.109375 43.203125 23.210938 40.648438 23.5 38.53125C23.59375 37.753906 23.871094 37.386719 24.34375 37.03125C24.816406 36.675781 25.519531 36.410156 26.3125 36.09375C27.105469 35.777344 27.972656 35.410156 28.71875 34.71875C29.464844 34.027344 30 32.941406 30 31.59375C30 31.15625 29.808594 30.617188 29.4375 30.3125C29.066406 30.007813 28.671875 29.964844 28.34375 29.9375C27.691406 29.886719 27.105469 29.972656 26.53125 30C25.957031 30.027344 25.445313 29.996094 25.125 29.84375C24.894531 29.734375 24.71875 29.589844 24.5625 29.25L43.5 10.3125C43.78125 10.03125 43.859375 10 44.09375 10C44.125 10 44.15625 10 44.1875 10L45.28125 9.90625C45.324219 9.898438 45.367188 9.886719 45.40625 9.875C46.03125 9.75 46.734375 9.484375 47.3125 8.90625L49.71875 6.5C50.105469 6.109375 50.105469 5.484375 49.71875 5.09375L48.8125 4.1875C48.625 3.988281 48.367188 3.878906 48.09375 3.875C48.0625 3.875 48.03125 3.875 48 3.875 Z M 47.34375 6.0625L45.90625 7.5C45.683594 7.722656 45.375 7.832031 45 7.90625L44.09375 8L44 8L44 8.03125C43.273438 8.0625 42.589844 8.410156 42.09375 8.90625L22.84375 28.15625C22.730469 28.230469 22.636719 28.324219 22.5625 28.4375L21.40625 29.59375L20.40625 28.59375L41.40625 7.5C41.734375 7.253906 42.125 7.023438 42.375 6.96875L42.40625 6.96875 Z M 18.75 20.1875C19.695313 20.203125 20.632813 20.570313 21.28125 21.21875C22.253906 22.191406 22.296875 22.890625 22.125 24.03125L22.125 24.0625L18.28125 27.90625C17.894531 28.296875 17.894531 28.921875 18.28125 29.3125L20.6875 31.71875C21.078125 32.105469 21.703125 32.105469 22.09375 31.71875L23.125 30.6875C23.445313 31.121094 23.820313 31.453125 24.25 31.65625C25.070313 32.050781 25.925781 32.035156 26.625 32C27.1875 31.972656 27.570313 31.949219 27.875 31.9375C27.800781 32.5 27.6875 32.960938 27.375 33.25C26.980469 33.613281 26.332031 33.910156 25.5625 34.21875C24.792969 34.527344 23.917969 34.835938 23.125 35.4375C22.335938 36.03125 21.664063 36.992188 21.5 38.25C21.5 38.261719 21.5 38.269531 21.5 38.28125C21.195313 40.546875 21.261719 42.207031 19.1875 44.28125C17.402344 46.066406 15.230469 47.023438 12.90625 46.96875C10.582031 46.914063 8.050781 45.863281 5.59375 43.40625C5.59375 43.394531 5.59375 43.386719 5.59375 43.375C3.140625 40.96875 2.078125 38.445313 2 36.09375C1.921875 33.757813 2.828125 31.542969 4.59375 29.71875C4.605469 29.707031 4.613281 29.699219 4.625 29.6875C6.351563 27.984375 8.617188 27.601563 10.53125 27.6875C10.542969 27.6875 10.550781 27.6875 10.5625 27.6875C12.671875 27.800781 14.539063 26.214844 14.6875 24.09375C14.6875 24.082031 14.6875 24.074219 14.6875 24.0625C14.773438 23.195313 15.175781 22.136719 16.09375 21.21875C16.847656 20.503906 17.804688 20.171875 18.75 20.1875 Z M 15.15625 30.15625L13.65625 31.65625L18.03125 36.03125L19.53125 34.5625 Z M 10.96875 34.25L9.46875 35.71875L13.84375 40.125L15.34375 38.625 Z M 18 41C17.449219 41 17 41.449219 17 42C17 42.550781 17.449219 43 18 43C18.550781 43 19 42.550781 19 42C19 41.449219 18.550781 41 18 41 Z M 11 43C10.449219 43 10 43.449219 10 44C10 44.550781 10.449219 45 11 45C11.550781 45 12 44.550781 12 44C12 43.449219 11.550781 43 11 43 Z M 15 43C14.449219 43 14 43.449219 14 44C14 44.550781 14.449219 45 15 45C15.550781 45 16 44.550781 16 44C16 43.449219 15.550781 43 15 43Z" />
</svg>