<?xml version="1.0" encoding="utf-8"?>
<svg xmlns="http://www.w3.org/2000/svg" viewBox="0 0 50 50" width="515" height="515">
  <path d="M49.029297 0.98632812L47.986328 1C47.986328 1 40.598263 1.0827039 33.552734 4.6054688C31.266002 5.7488348 28.987055 7.3041927 26.912109 9.2753906L26.902344 9.2832031L26.892578 9.2929688C24.356754 11.828823 20.761961 16.03623 17.484375 20L9 20 A 1.0001 1.0001 0 0 0 8.2324219 20.359375L3.2324219 26.359375 A 1.0001 1.0001 0 0 0 3.7597656 27.970703L9.8398438 29.470703C9.7984973 29.523418 9.5136719 29.882812 9.5136719 29.882812L9.3945312 30.033203L9.3398438 30.21875C9.3398438 30.21875 9.2633484 30.561044 9.2871094 30.898438C9.2964565 31.031166 9.3274503 31.194017 9.3613281 31.359375 A 1.0001 1.0001 0 0 0 9.3476562 31.378906L7.1523438 34.970703C7.1523438 34.970703 7.0528898 35.155031 7.0195312 35.277344C6.9861733 35.399657 6.9688321 35.537752 6.9707031 35.685547C6.9744431 35.981138 7.0520011 36.308999 7.2246094 36.695312C7.5698263 37.467942 8.2931567 38.508 9.8925781 40.107422 A 1.0001 1.0001 0 0 0 9.9042969 40.119141C11.501148 41.664481 12.53834 42.379066 13.289062 42.730469C13.664424 42.90617 13.972368 42.992586 14.25 43.013672C14.388816 43.024212 14.520327 43.017574 14.638672 42.996094C14.757017 42.974574 14.947266 42.894531 14.947266 42.894531 A 1.0001 1.0001 0 0 0 15.021484 42.853516L18.621094 40.652344 A 1.0001 1.0001 0 0 0 18.642578 40.638672C18.807119 40.672293 18.969382 40.703582 19.101562 40.712891C19.438956 40.736651 19.78125 40.660156 19.78125 40.660156L19.966797 40.605469L20.117188 40.486328C20.117188 40.486328 20.476853 40.201354 20.529297 40.160156L22.029297 46.240234 A 1.0001 1.0001 0 0 0 23.640625 46.767578L29.640625 41.767578 A 1.0001 1.0001 0 0 0 30 41L30 32.496094C33.961281 29.208477 38.148197 25.610598 40.607422 23.107422L40.609375 23.105469C42.702566 21.011733 44.162765 18.71158 45.294922 16.447266C48.814131 9.4087963 49 2.0273436 49 2.0273438L49.029297 0.98632812 z M 46.861328 3.125C46.768138 4.6297433 46.350016 9.8644209 43.505859 15.552734C42.438384 17.687685 41.099078 19.78764 39.193359 21.693359L39.189453 21.695312L39.1875 21.699219C36.785261 24.145135 32.518603 27.800785 28.529297 31.107422 A 1.0001 1.0001 0 0 0 28.214844 31.367188C23.582856 35.199041 19.411388 38.492857 19.154297 38.695312C19.033548 38.681753 18.856434 38.657641 18.525391 38.523438C17.770932 38.217576 16.442994 37.427369 14.507812 35.492188C12.572631 33.557006 11.782424 32.229068 11.476562 31.474609C11.342398 31.143526 11.31825 30.966452 11.304688 30.845703C11.505287 30.590413 14.763741 26.455014 18.580078 21.824219 A 1.0001 1.0001 0 0 0 18.927734 21.404297C22.201823 17.441453 25.819062 13.19789 28.296875 10.71875C30.22 8.8932089 32.336653 7.4498374 34.447266 6.3945312C40.128392 3.5539679 45.356599 3.1989128 46.861328 3.125 z M 34 11C31.254545 11 29 13.254545 29 16C29 18.745455 31.254545 21 34 21C36.745455 21 39 18.745455 39 16C39 13.254545 36.745455 11 34 11 z M 34 13C35.654545 13 37 14.345455 37 16C37 17.654545 35.654545 19 34 19C32.345455 19 31 17.654545 31 16C31 14.345455 32.345455 13 34 13 z M 9.46875 22L15.833984 22C13.917243 24.345629 12.349625 26.302305 11.203125 27.746094L5.7910156 26.412109L9.46875 22 z M 10.347656 33.574219C10.918684 34.485898 11.759161 35.571661 13.09375 36.90625C14.428339 38.240839 15.514102 39.081316 16.425781 39.652344L14.269531 40.96875C14.225741 40.95607 14.242791 40.969573 14.136719 40.919922C13.713405 40.721784 12.797835 40.134905 11.300781 38.6875C9.8078388 37.193037 9.2301539 36.280359 9.0507812 35.878906C9.0042905 35.774855 9.0181934 35.800268 9.0097656 35.765625L10.347656 33.574219 z M 28 34.150391L28 40.53125L23.587891 44.208984L22.253906 38.794922C23.698992 37.645173 25.653868 36.073521 28 34.150391 z M 6.3867188 38.210938C4.7536971 39.481065 3.2836627 39.65822 1.9511719 40.958984C1.2849265 41.609367 0.77362818 42.526787 0.4609375 43.794922C0.14824682 45.063056 0 46.705556 0 49L0 50L1 50C5.6037037 50 7.8714303 49.271077 9.2246094 47.902344C10.577788 46.533611 10.795287 44.999237 11.8125 43.583984L10.1875 42.416016C8.9047131 44.200763 8.6226022 45.664827 7.8007812 46.496094C7.0737742 47.231457 5.4328014 47.767343 2.09375 47.898438C2.145929 46.447949 2.2107544 45.050438 2.4023438 44.273438C2.652153 43.260322 2.9639018 42.765243 3.3476562 42.390625C4.1151655 41.64139 5.6463029 41.318936 7.6132812 39.789062L6.3867188 38.210938 z" />
</svg>