<?xml version="1.0" encoding="utf-8"?>
<svg xmlns="http://www.w3.org/2000/svg" viewBox="0 0 50 50" width="515" height="515">
  <path d="M25 4C17.285156 4 12.328125 4.9375 9.128906 6.023438C5.929688 7.109375 4.425781 8.421875 3.933594 8.855469L3.929688 8.855469L3.929688 8.859375C3.3125 9.40625 3.214844 10.050781 3.109375 10.738281C3.007813 11.425781 2.988281 12.1875 3.003906 12.949219C3.039063 14.46875 3.21875 15.941406 3.34375 16.617188C3.644531 18.203125 4.914063 19.1875 6.222656 18.972656L6.226563 18.972656C6.507813 18.925781 6.886719 18.828125 7.476563 18.683594C8.070313 18.535156 8.800781 18.351563 9.539063 18.164063C11.015625 17.789063 12.558594 17.390625 12.90625 17.3125C14 17.066406 14.597656 16.148438 14.921875 15.15625L14.921875 15.160156C14.996094 14.929688 15.527344 13.636719 16 12.527344C16.371094 11.660156 16.574219 11.183594 16.714844 10.871094C17.246094 10.722656 19.996094 10 25 10C30 10 32.753906 10.722656 33.285156 10.871094C33.421875 11.183594 33.628906 11.660156 34 12.527344C34.472656 13.636719 35 14.925781 35.078125 15.160156C35.402344 16.144531 35.992188 17.085938 37.109375 17.320313C37.398438 17.382813 38.953125 17.78125 40.421875 18.15625C41.160156 18.347656 41.890625 18.535156 42.488281 18.683594C43.085938 18.832031 43.476563 18.929688 43.789063 18.980469C45.082031 19.171875 46.351563 18.214844 46.65625 16.621094C46.78125 15.945313 46.960938 14.472656 46.996094 12.949219C47.011719 12.1875 46.992188 11.425781 46.890625 10.738281C46.785156 10.054688 46.6875 9.402344 46.066406 8.859375L46.0625 8.859375C45.570313 8.421875 44.070313 7.109375 40.871094 6.023438C37.667969 4.941406 32.710938 4 25 4 Z M 25 6C32.550781 6 37.289063 6.921875 40.226563 7.921875C43.164063 8.917969 44.230469 9.90625 44.742188 10.359375C44.625 10.253906 44.835938 10.539063 44.910156 11.035156C44.984375 11.535156 45.011719 12.214844 44.996094 12.90625C44.964844 14.289063 44.777344 15.789063 44.6875 16.25C44.558594 16.929688 44 16.988281 44.089844 17C44.054688 16.996094 43.550781 16.886719 42.96875 16.742188C42.382813 16.597656 41.65625 16.410156 40.921875 16.222656C39.453125 15.84375 38.039063 15.472656 37.523438 15.363281L37.519531 15.363281C37.539063 15.367188 37.164063 15.101563 36.980469 14.535156L36.980469 14.53125C36.796875 13.992188 36.316406 12.863281 35.839844 11.742188C35.359375 10.621094 34.917969 9.601563 34.917969 9.601563L34.730469 9.171875L34.285156 9.039063C34.285156 9.039063 30.753906 8 25 8C19.246094 8 15.714844 9.039063 15.714844 9.039063L15.269531 9.171875L15.082031 9.601563C15.082031 9.601563 14.640625 10.621094 14.160156 11.738281C13.683594 12.859375 13.203125 13.992188 13.019531 14.53125L13.019531 14.535156C12.835938 15.09375 12.460938 15.363281 12.464844 15.363281C11.980469 15.472656 10.519531 15.847656 9.046875 16.222656C8.308594 16.410156 7.582031 16.597656 7 16.738281C6.421875 16.882813 5.925781 16.996094 5.898438 17C5.96875 16.988281 5.441406 16.941406 5.3125 16.25L5.3125 16.246094C5.222656 15.785156 5.035156 14.285156 5.003906 12.902344C4.988281 12.210938 5.011719 11.535156 5.085938 11.035156C5.164063 10.535156 5.375 10.25 5.257813 10.355469C5.769531 9.902344 6.835938 8.914063 9.773438 7.914063C12.707031 6.917969 17.449219 6 25 6 Z M 18 15C17.449219 15 17 15.449219 17 16L17 18.578125C16.554688 18.996094 13.230469 22.125 8.742188 27.347656C5.691406 30.898438 4.992188 34.511719 5 37.003906C5.003906 38.089844 5.261719 40.035156 5.511719 41.820313C5.761719 43.605469 6.011719 45.15625 6.011719 45.15625C6.089844 45.644531 6.507813 46 7 46L12 46C12.550781 46 13 45.550781 13 45L13 44L37 44L37 45C37 45.550781 37.449219 46 38 46L43 46C43.488281 46 43.90625 45.644531 43.984375 45.160156C43.984375 45.160156 44.238281 43.605469 44.488281 41.824219C44.738281 40.042969 44.996094 38.09375 45 37C45.003906 34.511719 44.300781 30.890625 41.257813 27.347656C36.769531 22.125 33.445313 18.996094 33 18.578125L33 16C33 15.449219 32.550781 15 32 15L28 15C27.449219 15 27 15.449219 27 16L27 18L23 18L23 16C23 15.449219 22.550781 15 22 15 Z M 19 17L21 17L21 19C21 19.550781 21.449219 20 22 20L28 20C28.550781 20 29 19.550781 29 19L29 17L31 17L31 19C31 19.277344 31.117188 19.542969 31.320313 19.734375C31.320313 19.734375 35.015625 23.152344 39.738281 28.652344C42.449219 31.804688 43.003906 34.875 43 37C43 37.730469 42.753906 39.785156 42.507813 41.546875C42.324219 42.855469 42.222656 43.480469 42.140625 44L39 44L39 43C39 42.449219 38.550781 42 38 42L12 42C11.449219 42 11 42.449219 11 43L11 44L7.859375 44C7.78125 43.480469 7.675781 42.851563 7.492188 41.542969C7.246094 39.777344 7.003906 37.726563 7 36.996094C6.992188 34.875 7.542969 31.816406 10.261719 28.652344C14.984375 23.152344 18.679688 19.734375 18.679688 19.734375C18.882813 19.542969 19 19.277344 19 19 Z M 17 25L17 27L21 27L21 25 Z M 23 25L23 27L27 27L27 25 Z M 29 25L29 27L33 27L33 25 Z M 17 29L17 31L21 31L21 29 Z M 23 29L23 31L27 31L27 29 Z M 29 29L29 31L33 31L33 29 Z M 17 33L17 35L21 35L21 33 Z M 23 33L23 35L27 35L27 33 Z M 29 33L29 35L33 35L33 33Z" />
</svg>