<?xml version="1.0" encoding="utf-8"?>
<svg xmlns="http://www.w3.org/2000/svg" viewBox="0 0 50 50" width="515" height="515">
  <path d="M32.214844 2.0625L27.855469 3.7753906L28.617188 7.5898438C28.320231 7.8892397 28.002463 8.2286969 27.666016 8.5976562L23.910156 7.7382812L22.052734 12.070312L25.306641 14.238281C25.275891 14.736921 25.276911 15.238059 25.306641 15.736328L21.962891 17.785156L23.675781 22.144531L27.488281 21.382812C27.798956 21.750529 28.138774 22.089048 28.505859 22.400391L27.638672 26.191406L31.970703 28.046875L34.140625 24.792969C34.638586 24.823599 35.139099 24.822659 35.636719 24.792969L37.685547 28.136719L42.052734 26.421875L41.185547 22.308594C41.549034 22.00117 41.883047 21.665337 42.191406 21.302734L46.083984 22.277344L46.419922 21.494141L47.958984 17.898438L44.59375 15.835938C44.62297 15.346113 44.62297 14.853105 44.59375 14.363281L47.9375 12.314453L46.21875 7.9375L42.302734 8.8085938C41.994383 8.4447135 41.658646 8.1092982 41.294922 7.8007812L42.160156 4.0097656L37.810547 2.1445312L35.742188 5.4101562C35.279707 5.3645942 34.78331 5.3833909 34.271484 5.4199219L32.214844 2.0625 z M 31.384766 4.5371094L33.220703 7.53125L33.916016 7.3769531C34.624606 7.2194885 35.281373 7.2936332 36.189453 7.3945312L36.810547 7.4628906L38.589844 4.6542969L39.839844 5.1914062L39.076172 8.5273438L39.619141 8.9140625C40.231169 9.3512259 40.748383 9.8684396 41.185547 10.480469L41.570312 11.019531L44.982422 10.261719L45.462891 11.486328L42.535156 13.279297L42.605469 13.910156C42.698289 14.745513 42.698289 15.453706 42.605469 16.289062L42.535156 16.919922L45.439453 18.701172L44.916016 19.921875L41.482422 19.064453L41.085938 19.619141C40.648773 20.231169 40.13156 20.748383 39.519531 21.185547L38.986328 21.566406L39.748047 25.177734L38.513672 25.662109L36.720703 22.736328L36.089844 22.806641C35.254487 22.899461 34.546295 22.899461 33.710938 22.806641L33.105469 22.738281L31.228516 25.552734L29.960938 25.009766L30.722656 21.673828L30.181641 21.287109C29.569612 20.849946 29.050445 20.330779 28.613281 19.71875L28.238281 19.193359L24.923828 19.855469L24.4375 18.615234L27.363281 16.820312L27.292969 16.189453C27.200149 15.354096 27.200149 14.645904 27.292969 13.810547L27.361328 13.205078L24.546875 11.330078L25.089844 10.060547L28.365234 10.808594L28.759766 10.351562C29.329137 9.6872962 29.90625 9.1074219 30.40625 8.6074219L30.785156 8.2285156L30.144531 5.0253906L31.384766 4.5371094 z M 35 10C32.254545 10 30 12.254545 30 15C30 17.745455 32.254545 20 35 20C37.745455 20 40 17.745455 40 15C40 12.254545 37.745455 10 35 10 z M 35 12C36.654545 12 38 13.345455 38 15C38 16.654545 36.654545 18 35 18C33.345455 18 32 16.654545 32 15C32 13.345455 33.345455 12 35 12 z M 13.544922 20L12.896484 24.113281C12.355405 24.287471 11.836518 24.503931 11.339844 24.769531L7.8945312 22.292969L4.4042969 25.78125L6.7734375 29.224609C6.5059907 29.760781 6.273054 30.290202 6.09375 30.814453L2 31.568359L2 36.431641L6.1074219 37.189453C6.2812998 37.733147 6.4993108 38.25289 6.765625 38.751953L4.2832031 42.097656L7.78125 45.595703L11.224609 43.226562C11.755373 43.491312 12.279517 43.720506 12.798828 43.898438L13.445312 48L18.332031 48L19.089844 43.892578C19.635993 43.717816 20.159109 43.498408 20.660156 43.230469L24.105469 45.707031L27.607422 42.207031L25.132812 38.761719C25.396155 38.231419 25.627269 37.70796 25.804688 37.189453L30 36.435547L30 35.599609L30 31.542969L25.785156 30.894531C25.611067 30.354323 25.396058 29.835766 25.130859 29.339844L27.597656 25.908203L24.121094 22.28125L20.662109 24.767578C20.136177 24.506371 19.616086 24.27788 19.101562 24.101562L18.455078 20L13.544922 20 z M 15.253906 22L16.746094 22L17.306641 25.556641L17.882812 25.748047C18.782813 26.048047 19.602924 26.331417 20.269531 26.748047L20.839844 27.103516L23.878906 24.917969L25.001953 26.091797L22.796875 29.160156L23.152344 29.730469C23.600733 30.447892 23.953672 31.255393 24.123047 32.017578L24.271484 32.683594L28 33.257812L28 34.763672L24.339844 35.419922L24.150391 35.984375C23.850391 36.884375 23.568973 37.702534 23.152344 38.369141L22.796875 38.939453L24.992188 41.994141L23.894531 43.091797L20.839844 40.896484L20.269531 41.251953C19.552108 41.700343 18.744607 42.055235 17.982422 42.224609L17.335938 42.367188L16.667969 46L15.154297 46L14.59375 42.443359L14.015625 42.251953C13.115625 41.951953 12.297466 41.668583 11.630859 41.251953L11.074219 40.904297L8.0195312 43.003906L6.9179688 41.902344L9.109375 38.947266L8.7480469 38.369141C8.2996573 37.651717 7.9447651 36.84617 7.7753906 36.083984L7.6328125 35.4375L4 34.767578L4 33.232422L7.5625 32.576172L7.7480469 32.015625C8.0480469 31.115625 8.3314175 30.297466 8.7480469 29.630859L9.0957031 29.074219L6.9960938 26.019531L8.1054688 24.908203L11.160156 27.103516L11.730469 26.748047C12.447892 26.299657 13.255393 25.944765 14.017578 25.775391L14.681641 25.628906L15.253906 22 z M 16 29C14.416667 29 13.101892 29.629756 12.251953 30.585938C11.402014 31.542119 11 32.777778 11 34C11 35.222222 11.402014 36.457881 12.251953 37.414062C13.101892 38.370244 14.416667 39 16 39C17.583333 39 18.898108 38.370244 19.748047 37.414062C20.597986 36.457881 21 35.222222 21 34C21 32.777778 20.597986 31.542119 19.748047 30.585938C18.898108 29.629756 17.583333 29 16 29 z M 16 31C17.083333 31 17.768559 31.370244 18.251953 31.914062C18.735347 32.457881 19 33.222222 19 34C19 34.777778 18.735347 35.542119 18.251953 36.085938C17.768559 36.629756 17.083333 37 16 37C14.916667 37 14.231441 36.629756 13.748047 36.085938C13.264653 35.542119 13 34.777778 13 34C13 33.222222 13.264653 32.457881 13.748047 31.914062C14.231441 31.370244 14.916667 31 16 31 z" />
</svg>