<?xml version="1.0" encoding="utf-8"?>
<svg xmlns="http://www.w3.org/2000/svg" viewBox="0 0 50 50" width="515" height="515">
  <path d="M38 2L38 48L48 48L48 2 Z M 40 4L46 4L46 46L40 46 Z M 26 13L26 48L36 48L36 13 Z M 28 15L34 15L34 18C33.449219 18 33 18.449219 33 19C33 19.550781 33.449219 20 34 20L34 24C33.449219 24 33 24.449219 33 25C33 25.550781 33.449219 26 34 26L34 30C33.449219 30 33 30.449219 33 31C33 31.550781 33.449219 32 34 32L34 36C33.449219 36 33 36.449219 33 37C33 37.550781 33.449219 38 34 38L34 42C33.449219 42 33 42.449219 33 43C33 43.550781 33.449219 44 34 44L34 46L32 46C32 45.449219 31.550781 45 31 45C30.449219 45 30 45.449219 30 46L28 46L28 44C28.550781 44 29 43.550781 29 43C29 42.449219 28.550781 42 28 42L28 38C28.550781 38 29 37.550781 29 37C29 36.449219 28.550781 36 28 36L28 32C28.550781 32 29 31.550781 29 31C29 30.449219 28.550781 30 28 30L28 26C28.550781 26 29 25.550781 29 25C29 24.449219 28.550781 24 28 24L28 20C28.550781 20 29 19.550781 29 19C29 18.449219 28.550781 18 28 18 Z M 31 15C30.449219 15 30 15.449219 30 16C30 16.550781 30.449219 17 31 17C31.550781 17 32 16.550781 32 16C32 15.449219 31.550781 15 31 15 Z M 31 21C30.449219 21 30 21.449219 30 22C30 22.550781 30.449219 23 31 23C31.550781 23 32 22.550781 32 22C32 21.449219 31.550781 21 31 21 Z M 14 24L14 48L24 48L24 24 Z M 16 26L22 26L22 30C21.449219 30 21 30.449219 21 31C21 31.550781 21.449219 32 22 32L22 36C21.449219 36 21 36.449219 21 37C21 37.550781 21.449219 38 22 38L22 42C21.449219 42 21 42.449219 21 43C21 43.550781 21.449219 44 22 44L22 46L20 46C20 45.449219 19.550781 45 19 45C18.449219 45 18 45.449219 18 46L16 46L16 44C16.550781 44 17 43.550781 17 43C17 42.449219 16.550781 42 16 42L16 38C16.550781 38 17 37.550781 17 37C17 36.449219 16.550781 36 16 36L16 32C16.550781 32 17 31.550781 17 31C17 30.449219 16.550781 30 16 30 Z M 19 27C18.449219 27 18 27.449219 18 28C18 28.550781 18.449219 29 19 29C19.550781 29 20 28.550781 20 28C20 27.449219 19.550781 27 19 27 Z M 31 27C30.449219 27 30 27.449219 30 28C30 28.550781 30.449219 29 31 29C31.550781 29 32 28.550781 32 28C32 27.449219 31.550781 27 31 27 Z M 19 33C18.449219 33 18 33.449219 18 34C18 34.550781 18.449219 35 19 35C19.550781 35 20 34.550781 20 34C20 33.449219 19.550781 33 19 33 Z M 31 33C30.449219 33 30 33.449219 30 34C30 34.550781 30.449219 35 31 35C31.550781 35 32 34.550781 32 34C32 33.449219 31.550781 33 31 33 Z M 2 35L2 48L12 48L12 35 Z M 5 37L9 37C9 37.550781 9.449219 38 10 38L10 42C9.449219 42 9 42.449219 9 43C9 43.550781 9.449219 44 10 44L10 46L8 46C8 45.449219 7.550781 45 7 45C6.449219 45 6 45.449219 6 46L4 46L4 44C4.550781 44 5 43.550781 5 43C5 42.449219 4.550781 42 4 42L4 38C4.550781 38 5 37.550781 5 37 Z M 7 39C6.449219 39 6 39.449219 6 40C6 40.550781 6.449219 41 7 41C7.550781 41 8 40.550781 8 40C8 39.449219 7.550781 39 7 39 Z M 19 39C18.449219 39 18 39.449219 18 40C18 40.550781 18.449219 41 19 41C19.550781 41 20 40.550781 20 40C20 39.449219 19.550781 39 19 39 Z M 31 39C30.449219 39 30 39.449219 30 40C30 40.550781 30.449219 41 31 41C31.550781 41 32 40.550781 32 40C32 39.449219 31.550781 39 31 39Z" />
</svg>