<?xml version="1.0" encoding="utf-8"?>
<svg xmlns="http://www.w3.org/2000/svg" viewBox="0 0 50 50" width="515" height="515">
  <path d="M25 2C12.308594 2 2 12.308594 2 25C2 37.691406 12.308594 48 25 48C37.691406 48 48 37.691406 48 25C48 12.308594 37.691406 2 25 2 Z M 25 4C36.609375 4 46 13.390625 46 25C46 36.609375 36.609375 46 25 46C13.390625 46 4 36.609375 4 25C4 13.390625 13.390625 4 25 4 Z M 24.875 17C24.652344 17.023438 24.441406 17.125 24.28125 17.28125L14.28125 27.28125C13.882813 27.679688 13.882813 28.320313 14.28125 28.71875C14.679688 29.117188 15.320313 29.117188 15.71875 28.71875L25 19.4375L34.28125 28.71875C34.679688 29.117188 35.320313 29.117188 35.71875 28.71875C36.117188 28.320313 36.117188 27.679688 35.71875 27.28125L25.71875 17.28125C25.496094 17.0625 25.183594 16.957031 24.875 17Z" />
</svg>