<?xml version="1.0" encoding="utf-8"?>
<svg xmlns="http://www.w3.org/2000/svg" width="515" height="515" viewBox="0 0 50 50">
  <path d="M24.984375 6.9863281 A 1.0001 1.0001 0 0 0 24.814453 7.0039062C20.612992 7.0373994 16.678519 8.2010241 13.298828 10.205078 A 1.0001 1.0001 0 0 0 13.064453 10.339844C9.629438 12.431545 6.788722 15.401273 4.84375 18.931641 A 1.0001 1.0001 0 0 0 4.71875 19.160156C3.0150275 22.337374 2.0361763 25.958959 2.0039062 29.804688 A 1.0001 1.0001 0 0 0 2.0058594 30.191406C2.0373414 34.416664 3.0936148 38.129607 5.1445312 41.529297 A 1.0001 1.0001 0 0 0 6.9980469 40.935547L7.0449219 41.550781L10.800781 39.376953 A 1.0001 1.0001 0 1 0 9.7988281 37.646484L6.4589844 39.578125C5.037322 36.94703 4.181104 34.182191 4.03125 31L8 31 A 1.0001 1.0001 0 1 0 8 29L4.0253906 29C4.1609055 26.101046 4.9017124 23.368194 6.09375 20.894531C6.6581341 21.199992 7.555118 21.684824 9.5742188 22.779297 A 1.0001 1.0001 0 1 0 10.527344 21.021484C8.5087574 19.92729 7.613699 19.440998 7.0488281 19.134766C8.6466024 16.498223 10.790428 14.233624 13.349609 12.525391L15.40625 15.951172 A 1.0001 1.0001 0 1 0 17.121094 14.921875L15.064453 11.494141C17.745967 10.053308 20.77672 9.1760665 24 9.0253906L24 13 A 1.0001 1.0001 0 1 0 26 13L26 9.0253906C28.899871 9.1609484 31.633147 9.9029903 34.107422 11.095703L32.220703 14.574219 A 1.0001 1.0001 0 1 0 33.978516 15.527344L35.865234 12.048828C38.501777 13.646602 40.766376 15.790428 42.474609 18.349609L39.048828 20.40625 A 1.0001 1.0001 0 1 0 40.078125 22.121094L43.505859 20.064453C44.946692 22.745967 45.823933 25.77672 45.974609 29L43 29L42 29 A 1.0001 1.0001 0 1 0 42 31L43 31L45.96875 31C45.818896 34.182191 44.962678 36.94703 43.541016 39.578125L40.201172 37.646484 A 1.0001 1.0001 0 1 0 39.199219 39.376953L42.955078 41.550781L43.001953 40.935547 A 1.0001 1.0001 0 0 0 44.855469 41.529297C46.90639 38.129607 47.962659 34.416664 47.994141 30.191406 A 1.0001 1.0001 0 0 0 48.009766 30.083984 A 1.0001 1.0001 0 0 0 48.013672 29.984375 A 1.0001 1.0001 0 0 0 47.996094 29.820312C47.963597 25.611035 46.79702 21.669449 44.787109 18.285156 A 1.0001 1.0001 0 0 0 44.667969 18.078125C42.572641 14.631849 39.594812 11.781707 36.052734 9.8339844 A 1.0001 1.0001 0 0 0 35.853516 9.7265625C32.669737 8.0165134 29.039293 7.0343197 25.183594 7.0039062 A 1.0001 1.0001 0 0 0 24.984375 6.9863281 z M 36.558594 22.179688 A 1.0001 1.0001 0 0 0 36.015625 22.326172L26.945312 27.689453C26.437467 27.270097 25.758875 27 25 27C24.083334 27 23.268559 27.379756 22.751953 27.960938C22.235347 28.542119 22 29.277778 22 30C22 30.722222 22.235347 31.457882 22.751953 32.039062C23.268559 32.620244 24.083334 33 25 33C25.916666 33 26.731441 32.620244 27.248047 32.039062C27.764653 31.457881 28 30.722222 28 30C28 29.806814 27.979869 29.61377 27.945312 29.421875L37.033203 24.046875 A 1.0001 1.0001 0 0 0 36.558594 22.179688 z M 25 29C25.400604 29 25.583306 29.11483 25.730469 29.273438 A 1.000376 1.000376 0 0 0 25.941406 29.658203C25.974129 29.766354 26 29.880288 26 30C26 30.277778 25.90201 30.542118 25.751953 30.710938C25.601893 30.879756 25.416666 31 25 31C24.583334 31 24.398107 30.879756 24.248047 30.710938C24.097986 30.542119 24 30.277778 24 30C24 29.722222 24.097986 29.457882 24.248047 29.289062C24.398107 29.120244 24.583334 29 25 29 z M 19 38 A 1.0001 1.0001 0 1 0 19 40L31 40 A 1.0001 1.0001 0 1 0 31 38L19 38 z" />
</svg>