<?xml version="1.0" encoding="utf-8"?>
<svg xmlns="http://www.w3.org/2000/svg" viewBox="0 0 50 50" width="515" height="515">
  <path d="M12 3C7.04 3 3 7.04 3 12L3 25.380859L16.419922 32.089844C16.919922 32.319844 17.140156 32.919922 16.910156 33.419922C16.740156 33.789922 16.38 34 16 34C15.86 34 15.720078 33.970156 15.580078 33.910156L3 27.619141L3 38C3 42.96 7.04 47 12 47L38 47C42.96 47 47 42.96 47 38L47 12C47 7.04 42.96 3 38 3L12 3 z M 12 5L38 5C41.86 5 45 8.14 45 12L45 38C45 41.86 41.86 45 38 45L12 45C8.14 45 5 41.86 5 38L5 30.859375L9.0195312 32.869141C9.0095313 33.079141 9 33.29 9 33.5C9 37.64 12.36 41 16.5 41C20.64 41 24 37.64 24 33.5C24 32.65 23.860078 31.819297 23.580078 31.029297L28.330078 27.449219C29.340078 27.819219 30.4 28 31.5 28C36.74 28 41 23.74 41 18.5C41 13.26 36.74 9 31.5 9C26.26 9 22 13.26 22 18.5C22 19.62 22.190312 20.71 22.570312 21.75L19.119141 26.470703C18.289141 26.160703 17.4 26 16.5 26C14.76 26 13.160625 26.589844 11.890625 27.589844L5 24.150391L5 12C5 8.14 8.14 5 12 5 z M 31.5 11C35.64 11 39 14.36 39 18.5C39 22.64 35.64 26 31.5 26C30.47 26 29.490078 25.800391 28.580078 25.400391C28.250078 25.250391 27.870078 25.299766 27.580078 25.509766L21.759766 29.900391C21.379766 30.190391 21.260937 30.700859 21.460938 31.130859C21.820938 31.870859 22 32.67 22 33.5C22 36.53 19.53 39 16.5 39C13.6 39 11.199531 36.729141 11.019531 33.869141L14.689453 35.699219L14.720703 35.710938L14.740234 35.720703C15.140234 35.910703 15.56 36 16 36C17.17 36 18.240703 35.319766 18.720703 34.259766C19.410703 32.769766 18.769062 30.999063 17.289062 30.289062L13.960938 28.630859C14.720937 28.230859 15.58 28 16.5 28C17.38 28 18.22 28.199609 19 28.599609C19.44 28.829609 19.979531 28.700781 20.269531 28.300781L23.369141 24.060547L24.509766 22.480469C24.719766 22.200469 24.769141 21.820234 24.619141 21.490234C24.209141 20.550234 24 19.54 24 18.5C24 14.36 27.36 11 31.5 11 z M 31.5 13C28.474279 13 26 15.474279 26 18.5C26 21.525721 28.474279 24 31.5 24C34.525721 24 37 21.525721 37 18.5C37 15.474279 34.525721 13 31.5 13 z M 31.5 15C33.444841 15 35 16.555159 35 18.5C35 20.444841 33.444841 22 31.5 22C29.555159 22 28 20.444841 28 18.5C28 16.555159 29.555159 15 31.5 15 z" />
</svg>