<?xml version="1.0" encoding="utf-8"?>
<svg xmlns="http://www.w3.org/2000/svg" viewBox="0 0 50 50" width="515" height="515">
  <path d="M21 2L21 5L23 5L23 6.0996094C12.38278 7.1161368 4 16.129071 4 27C4 38.545455 13.454545 48 25 48C36.545455 48 46 38.545455 46 27C46 16.129071 37.61722 7.1161368 27 6.0996094L27 5L29 5L29 2L21 2 z M 40.199219 5.1992188L38.199219 7.1992188L42.800781 11.800781L44.800781 9.8007812L40.199219 5.1992188 z M 25 8C35.454545 8 44 16.545455 44 27C44 37.454545 35.454545 46 25 46C14.545455 46 6 37.454545 6 27C6 16.545455 14.545455 8 25 8 z M 14.990234 15.990234 A 1.0001 1.0001 0 0 0 14.292969 17.707031L23.074219 26.488281C23.03029 26.652427 23 26.822498 23 27C23 28.1 23.9 29 25 29C25.177502 29 25.347573 28.96971 25.511719 28.925781L27.292969 30.707031 A 1.0001 1.0001 0 1 0 28.707031 29.292969L26.925781 27.511719C26.96971 27.347573 27 27.177502 27 27C27 25.9 26.1 25 25 25C24.822498 25 24.652427 25.03029 24.488281 25.074219L15.707031 16.292969 A 1.0001 1.0001 0 0 0 14.990234 15.990234 z" />
</svg>