<?xml version="1.0" encoding="utf-8"?>
<svg xmlns="http://www.w3.org/2000/svg" viewBox="0 0 50 50" width="515" height="515">
  <path d="M20.1875 5C19.011719 5 18 6.011719 18 7.1875L18 12L3.09375 12C1.394531 12 0 13.394531 0 15.09375L0 46.90625C0 48.605469 1.394531 50 3.09375 50L46.90625 50C48.605469 50 50 48.605469 50 46.90625L50 15.09375C50 13.394531 48.605469 12 46.90625 12L32 12L32 7.1875C32 6.011719 30.988281 5 29.8125 5 Z M 20 7C20.019531 6.980469 20.074219 7 20.1875 7L29.8125 7C30.035156 7 30 6.964844 30 7.1875L30 12L20 12L20 7.1875C20 7.074219 19.980469 7.019531 20 7 Z M 3.09375 14L46.90625 14C47.605469 14 48 14.394531 48 15.09375L48 46.90625C48 47.605469 47.605469 48 46.90625 48L3.09375 48C2.394531 48 2 47.605469 2 46.90625L2 15.09375C2 14.394531 2.394531 14 3.09375 14 Z M 26.5 18C23.472656 18 21 20.472656 21 23.5C21 26.527344 23.472656 29 26.5 29C29.527344 29 32 26.527344 32 23.5C32 20.472656 29.527344 18 26.5 18 Z M 26.5 20C28.445313 20 30 21.554688 30 23.5C30 25.445313 28.445313 27 26.5 27C24.554688 27 23 25.445313 23 23.5C23 21.554688 24.554688 20 26.5 20 Z M 41.65625 27.1875C41.429688 27.175781 41.1875 27.226563 40.96875 27.3125L40.9375 27.25L29 31.8125L28.84375 31.875L28.875 31.9375C27.957031 32.238281 27.46875 33.257813 27.8125 34.125L27.75 34.15625L29.75 39.4375L29.8125 39.40625C30.105469 40.347656 31.183594 40.871094 32.0625 40.5L32.0625 40.53125L32.15625 40.5L44.15625 35.9375L44.125 35.875C45.054688 35.582031 45.53125 34.558594 45.1875 33.6875L45.25 33.65625L43.25 28.34375L43.1875 28.375C42.96875 27.675781 42.335938 27.21875 41.65625 27.1875 Z M 41.4375 29.21875L43.28125 34.125L31.5625 38.5625L29.71875 33.6875Z" />
</svg>