<?xml version="1.0" encoding="utf-8"?>
<svg xmlns="http://www.w3.org/2000/svg" viewBox="0 0 50 50" width="515" height="515">
  <path d="M38.96875 0C35.675781 -0.0117188 28.804688 -0.121094 25.125 3.5625L24.46875 4.21875L24.46875 4.25C20.539063 8.207031 20.082031 14.121094 22.90625 18.5625L2.40625 37.3125L2.375 37.34375C1.476563 38.242188 0.53125 39.75 0.25 41.625C-0.03125 43.5 0.453125 45.734375 2.375 47.65625C4.296875 49.578125 6.53125 50.0625 8.40625 49.78125C10.28125 49.5 11.789063 48.554688 12.6875 47.65625L12.71875 47.65625L12.71875 47.625C12.71875 47.625 17.425781 42.300781 22.1875 37C24.570313 34.347656 26.953125 31.710938 28.78125 29.75C29.695313 28.769531 30.484375 27.953125 31.03125 27.40625C31.183594 27.253906 31.261719 27.167969 31.375 27.0625C35.820313 29.992188 41.796875 29.585938 45.78125 25.59375L46.4375 24.9375C48.234375 23.144531 49.066406 20.523438 49.5 17.96875C49.933594 15.414063 49.929688 12.890625 49.9375 11.21875C49.941406 10.835938 49.933594 10.460938 49.625 10.09375C49.316406 9.726563 48.738281 9.628906 48.4375 9.6875C47.835938 9.808594 47.59375 10.125 47.59375 10.125L47.5625 10.15625C47.5625 10.15625 41.84375 15.902344 41.0625 16.6875C41.03125 16.707031 41.023438 16.710938 40.96875 16.71875C40.789063 16.746094 40.507813 16.777344 40.15625 16.78125C39.457031 16.789063 38.496094 16.742188 37.5625 16.65625C36.628906 16.570313 35.691406 16.425781 34.96875 16.28125C34.605469 16.207031 34.300781 16.128906 34.09375 16.0625C34.019531 16.039063 33.976563 16.023438 33.9375 16C33.914063 15.964844 33.894531 15.929688 33.875 15.875C33.808594 15.675781 33.757813 15.351563 33.6875 15C33.546875 14.296875 33.421875 13.382813 33.34375 12.46875C33.265625 11.554688 33.222656 10.628906 33.25 9.9375C33.265625 9.589844 33.277344 9.308594 33.3125 9.125C33.332031 9.035156 33.363281 8.984375 33.375 8.96875C34.242188 8.101563 39.9375 2.4375 39.9375 2.4375L39.96875 2.40625L39.96875 2.375C39.96875 2.375 40.265625 2.164063 40.40625 1.59375C40.476563 1.308594 40.453125 0.753906 40.09375 0.40625C39.734375 0.0585938 39.347656 0 38.96875 0 Z M 37.65625 2C36.414063 3.242188 32.566406 7.089844 31.9375 7.71875C31.5625 8.09375 31.535156 8.414063 31.46875 8.75C31.402344 9.085938 31.359375 9.464844 31.34375 9.875C31.308594 10.691406 31.355469 11.648438 31.4375 12.625C31.519531 13.601563 31.648438 14.570313 31.8125 15.375C31.894531 15.777344 31.988281 16.152344 32.09375 16.46875C32.199219 16.785156 32.265625 17.046875 32.59375 17.375C32.929688 17.710938 33.179688 17.769531 33.5 17.875C33.820313 17.980469 34.183594 18.074219 34.59375 18.15625C35.414063 18.320313 36.417969 18.4375 37.40625 18.53125C38.394531 18.625 39.351563 18.695313 40.15625 18.6875C40.558594 18.683594 40.933594 18.640625 41.25 18.59375C41.566406 18.546875 41.835938 18.632813 42.28125 18.1875C42.773438 17.691406 46.699219 13.714844 47.96875 12.4375C47.945313 13.996094 47.949219 15.742188 47.625 17.65625C47.226563 20.015625 46.421875 22.265625 45.09375 23.59375L44.4375 24.25C40.574219 28.117188 34.628906 28.015625 30.84375 24.21875L25.84375 19.21875C22.0625 15.417969 21.964844 9.464844 25.8125 5.59375L26.46875 4.90625C28.957031 2.414063 34.210938 2.058594 37.65625 2 Z M 24 20C24.164063 20.1875 24.320313 20.382813 24.5 20.5625L29.5 25.5625C29.636719 25.699219 29.792969 25.808594 29.9375 25.9375C29.867188 26.007813 29.828125 26.046875 29.75 26.125C29.171875 26.699219 28.390625 27.511719 27.46875 28.5C25.625 30.476563 23.226563 33.125 20.84375 35.78125C16.089844 41.074219 11.433594 46.375 11.40625 46.40625L11.375 46.4375C10.765625 47.035156 9.515625 47.789063 8.125 48C6.71875 48.210938 5.207031 47.957031 3.65625 46.40625C2.105469 44.855469 1.820313 43.316406 2.03125 41.90625C2.242188 40.515625 3.027344 39.265625 3.625 38.65625L3.65625 38.625Z" />
</svg>