<?xml version="1.0" encoding="utf-8"?>
<svg xmlns="http://www.w3.org/2000/svg" viewBox="0 0 50 50" width="515" height="515">
  <path d="M19 2C18.477778 2 17.94539 2.1913289 17.568359 2.5683594C17.191329 2.9453899 17 3.4777778 17 4L9 4C7.346 4 6 5.346 6 7L6 45C6 46.654 7.346 48 9 48L41 48C42.388 48 43.559391 47.053484 43.900391 45.771484C43.965391 45.525484 44 45.266 44 45L44 7C44 5.346 42.654 4 41 4L33 4C33 3.4777778 32.808671 2.9453899 32.431641 2.5683594C32.05461 2.1913289 31.522222 2 31 2L19 2 z M 19 4L31 4L31 10L19 10L19 4 z M 9 6L17 6L17 8L10 8L10 44L40 44L40 8L33 8L33 6L41 6C41.551 6 42 6.448 42 7L42 45C42 45.552 41.551 46 41 46L9 46C8.449 46 8 45.552 8 45L8 7C8 6.448 8.449 6 9 6 z M 12 10L17 10C17 10.522222 17.191329 11.05461 17.568359 11.431641C17.94539 11.808671 18.477778 12 19 12L31 12C31.522222 12 32.05461 11.808671 32.431641 11.431641C32.808671 11.05461 33 10.522222 33 10L38 10L38 42L12 42L12 10 z M 33.994141 16.988281 A 1.0001 1.0001 0 0 0 33.175781 17.433594L23.541016 31.482422L16.675781 25.179688 A 1.0001 1.0001 0 1 0 15.324219 26.652344L23.886719 34.515625L34.824219 18.566406 A 1.0001 1.0001 0 0 0 33.994141 16.988281 z" />
</svg>