<?xml version="1.0" encoding="utf-8"?>
<svg xmlns="http://www.w3.org/2000/svg" viewBox="0 0 50 50" width="515" height="515">
  <path d="M23 15C20.266667 15 18.028883 16.316613 15.052734 17.804688C13.892487 18.384811 12.136488 19.156238 10.314453 20.871094 A 1.0001 1.0001 0 0 0 10.292969 20.892578C8.8376203 22.347926 8 24.585884 8 26.599609L8 36C8 40.945455 12.054545 45 17 45L36 45C37.516667 45 38.775498 44.380898 39.630859 43.556641C40.486221 42.732383 41 41.733834 41 40.699219C41 39.83606 40.791454 39.124512 40.582031 38.587891C41.554369 38.066867 43 37.072649 43 34.800781C43 33.396907 42.324564 32.448932 41.650391 31.835938C42.321435 31.162668 43 30.164355 43 28.699219C43 26.462657 41.591038 25.5405 40.759766 25.103516C40.84621 24.594455 41 23.82054 41 22.900391C41 20.933724 39.135173 19.099609 36.400391 19.099609C33.253947 19.007919 30.128684 19.008342 29.580078 19.007812C28.969745 17.683829 28.099116 16.632889 27.027344 16.009766C25.761318 15.273704 24.338889 15 23 15 z M 23 17C24.061111 17 25.13751 17.226296 26.021484 17.740234C26.905459 18.254173 27.62246 19.031441 28.050781 20.316406 A 1.0001 1.0001 0 0 0 29 21C29 21 32.994132 21.000286 36.371094 21.099609 A 1.0001 1.0001 0 0 0 36.400391 21.099609C38.265608 21.099609 39 22.267057 39 22.900391C39 23.700391 38.714844 25.425781 38.714844 25.425781 A 1.0001 1.0001 0 0 0 39.371094 26.544922C39.371094 26.544922 41 27.065885 41 28.699219C41 30.164298 39.517578 31.023436 39.517578 31.023438 A 1.0001 1.0001 0 0 0 39.628906 32.828125C39.628906 32.828125 41 33.335702 41 34.800781C41 36.450781 38.953125 37.261719 38.953125 37.261719 A 1.0001 1.0001 0 0 0 38.480469 38.773438C38.480469 38.773438 39 39.51033 39 40.699219C39 40.964603 38.763779 41.616445 38.244141 42.117188C37.724499 42.617929 36.983333 43 36 43L17 43C13.145455 43 10 39.854545 10 36L10 26.599609C10 25.216738 10.759731 23.263716 11.701172 22.316406C13.272751 20.842302 14.711805 20.21148 15.947266 19.59375C18.971117 18.081824 20.933333 17 23 17 z" />
</svg>