<?xml version="1.0" encoding="utf-8"?>
<svg xmlns="http://www.w3.org/2000/svg" viewBox="0 0 50 50" width="515" height="515">
  <path d="M14 -0.0625C13.945313 -0.0546875 13.894531 -0.046875 13.84375 -0.03125C13.824219 -0.0234375 13.800781 -0.0117188 13.78125 0C13.523438 0.0585938 13.296875 0.214844 13.15625 0.4375L5.90625 11.3125L1.78125 6.375C1.4375 5.941406 0.804688 5.875 0.375 6.21875C-0.0585938 6.5625 -0.125 7.195313 0.21875 7.625L5.21875 13.625C5.417969 13.878906 5.726563 14.023438 6.046875 14.011719C6.371094 14 6.667969 13.832031 6.84375 13.5625L14.84375 1.5625C15.09375 1.253906 15.136719 0.828125 14.953125 0.476563C14.769531 0.121094 14.394531 -0.0898438 14 -0.0625 Z M 20 7L20 9L50 9L50 7 Z M 14 16.9375C13.945313 16.945313 13.894531 16.953125 13.84375 16.96875C13.824219 16.976563 13.800781 16.988281 13.78125 17C13.523438 17.058594 13.296875 17.214844 13.15625 17.4375L5.90625 28.3125L1.78125 23.375C1.4375 22.941406 0.804688 22.875 0.375 23.21875C-0.0585938 23.5625 -0.125 24.195313 0.21875 24.625L5.21875 30.625C5.417969 30.878906 5.726563 31.023438 6.046875 31.011719C6.371094 31 6.667969 30.832031 6.84375 30.5625L14.84375 18.5625C15.09375 18.253906 15.136719 17.828125 14.953125 17.476563C14.769531 17.121094 14.394531 16.910156 14 16.9375 Z M 20 24L20 26L50 26L50 24 Z M 14 35.9375C13.945313 35.945313 13.894531 35.953125 13.84375 35.96875C13.824219 35.976563 13.800781 35.988281 13.78125 36C13.523438 36.058594 13.296875 36.214844 13.15625 36.4375L5.90625 47.3125L1.78125 42.375C1.4375 41.941406 0.804688 41.875 0.375 42.21875C-0.0585938 42.5625 -0.125 43.195313 0.21875 43.625L5.21875 49.625C5.417969 49.878906 5.726563 50.023438 6.046875 50.011719C6.371094 50 6.667969 49.832031 6.84375 49.5625L14.84375 37.5625C15.09375 37.253906 15.136719 36.828125 14.953125 36.476563C14.769531 36.121094 14.394531 35.910156 14 35.9375 Z M 20 43L20 45L50 45L50 43Z" />
</svg>