<?xml version="1.0" encoding="utf-8"?>
<svg xmlns="http://www.w3.org/2000/svg" viewBox="0 0 50 50" width="515" height="515">
  <path d="M25,6c11.6,0,21,8.1,21,18s-9.4,18-21,18c-1.8,0-3.5-0.2-5.3-0.6l-1.2-0.3L17.8,42c-0.7,0.8-3,3.2-6.8,3.8c0.7-1.3,1.3-2.6,1.6-4c0.3-1,0.3-1.6,0.3-2.1l0-1.1l-0.9-0.6C6.9,34.6,4,29.5,4,24C4,14.1,13.4,6,25,6 M25,4C12.3,4,2,12.9,2,24c0,6.5,3.5,12.1,9,15.7c0,0.2,0,0.6-0.3,1.6c-0.4,1.3-1.1,3.1-2.5,5.2l-1,1.5H9c6.2,0,9.8-4,10.3-4.7C21.1,43.7,23,44,25,44c12.7,0,23-8.9,23-20C48,12.9,37.7,4,25,4L25,4z" />
</svg>