<?xml version="1.0" encoding="utf-8"?>
<svg xmlns="http://www.w3.org/2000/svg" viewBox="0 0 50 50" width="515" height="515">
  <path d="M35 4C32.371094 4 30.636719 4.207031 29.53125 4.40625C28.507813 4.59375 28.046875 4.777344 27.96875 4.8125C27.960938 4.816406 27.84375 4.84375 27.84375 4.84375C26.746094 5.21875 25.042969 5.746094 24.21875 7.375C23.996094 7.816406 23.675781 8.652344 23.21875 9.84375C22.882813 10.722656 22.480469 11.785156 22.09375 12.8125C22.050781 12.796875 22 12.789063 21.96875 12.78125L21.96875 12.8125C21.871094 12.769531 21.46875 12.589844 20.46875 12.40625C19.363281 12.207031 17.628906 12 15 12C12.371094 12 10.636719 12.207031 9.53125 12.40625C8.507813 12.59375 8.046875 12.777344 7.96875 12.8125C7.960938 12.816406 7.84375 12.84375 7.84375 12.84375C6.746094 13.21875 5.042969 13.746094 4.21875 15.375C4.011719 15.78125 3.722656 16.5 3.3125 17.5625C3.054688 18.230469 2.734375 19.070313 2.4375 19.875L2.40625 19.875C2.335938 20.0625 2.121094 20.5 2 21.0625C1.976563 21.128906 1.960938 21.183594 1.9375 21.25C0.972656 23.828125 0.0625 26.28125 0.0625 26.28125L0 26.4375L0 36C0 37.09375 0.90625 38 2 38L6 38C7.09375 38 8 37.09375 8 36L8 35L16 35L16 44C16 45.09375 16.90625 46 18 46L22 46C23.09375 46 24 45.09375 24 44L24 43L38 43L38 44C38 45.09375 38.90625 46 40 46L44 46C45.09375 46 46 45.09375 46 44L46 34.4375L45.9375 34.28125C45.9375 34.28125 45.15625 32.144531 44.34375 30L48 30C49.09375 30 50 29.09375 50 28L50 18.4375L49.9375 18.28125C49.9375 18.28125 49.058594 15.914063 48.09375 13.375C47.917969 12.910156 47.832031 12.742188 47.65625 12.28125C47.585938 12.113281 47.53125 11.984375 47.5 11.90625C46.78125 10.035156 46.007813 7.972656 45.75 7.375C44.992188 5.617188 43.128906 5.128906 42.125 4.84375C42.082031 4.832031 42.007813 4.792969 41.96875 4.78125L41.96875 4.8125C41.871094 4.769531 41.46875 4.589844 40.46875 4.40625C39.363281 4.207031 37.628906 4 35 4 Z M 35 6C37.53125 6 39.132813 6.167969 40.09375 6.34375C41.054688 6.519531 41.28125 6.65625 41.28125 6.65625L41.34375 6.6875L41.4375 6.71875C42.324219 6.976563 43.675781 7.582031 43.9375 8.1875C44.128906 8.632813 44.914063 10.730469 45.625 12.59375C45.816406 13.09375 46.078125 13.847656 46 14.21875C45.960938 14.402344 45.933594 14.496094 45.65625 14.65625C45.378906 14.816406 44.804688 15 43.78125 15L25.53125 15C25.128906 14.320313 24.566406 13.851563 23.96875 13.53125C24.359375 12.503906 24.757813 11.4375 25.09375 10.5625C25.546875 9.382813 25.957031 8.367188 26 8.28125C26.347656 7.59375 27.546875 7.0625 28.625 6.6875L28.6875 6.6875L28.71875 6.65625C28.71875 6.65625 28.945313 6.519531 29.90625 6.34375C30.867188 6.167969 32.46875 6 35 6 Z M 15 14C17.53125 14 19.132813 14.167969 20.09375 14.34375C21.054688 14.519531 21.28125 14.65625 21.28125 14.65625L21.34375 14.6875L21.4375 14.71875C22.324219 14.976563 23.675781 15.582031 23.9375 16.1875C24.128906 16.628906 24.863281 18.570313 25.5625 20.40625C25.554688 20.40625 25.539063 20.40625 25.53125 20.40625C24.507813 20.59375 24.046875 20.777344 23.96875 20.8125C23.960938 20.816406 23.84375 20.84375 23.84375 20.84375C22.835938 21.1875 21.316406 21.664063 20.4375 23L6.21875 23C5.199219 23 4.601563 22.820313 4.3125 22.65625C4.023438 22.492188 3.980469 22.378906 3.9375 22.1875C3.894531 21.996094 3.925781 21.730469 4 21.4375C4.414063 20.324219 4.835938 19.1875 5.1875 18.28125C5.59375 17.230469 5.960938 16.359375 6 16.28125C6.347656 15.59375 7.546875 15.0625 8.625 14.6875L8.6875 14.6875L8.71875 14.65625C8.71875 14.65625 8.945313 14.519531 9.90625 14.34375C10.867188 14.167969 12.46875 14 15 14 Z M 47 16.15625C47.390625 17.195313 47.96875 18.730469 48 18.8125L48 24.59375C48 24.8125 47.824219 25 47.59375 25L42.375 25C42.175781 24.484375 41.84375 23.589844 41.75 23.375C41.628906 23.09375 41.449219 22.875 41.28125 22.65625C41.6875 22.886719 42.167969 23 42.65625 23C43.199219 23 43.679688 22.9375 44.09375 22.78125C44.507813 22.625 44.847656 22.425781 45.3125 22.1875C45.652344 22.015625 45.992188 21.835938 46.34375 21.5C46.695313 21.164063 47 20.585938 47 20C47 18.847656 45.976563 18 44.875 18L42.65625 18C41.25 18 40 19.070313 40 20.5C40 20.984375 40.164063 21.40625 40.40625 21.78125C39.617188 21.25 38.71875 21.011719 38.125 20.84375C38.082031 20.832031 38.007813 20.792969 37.96875 20.78125L37.96875 20.8125C37.871094 20.769531 37.46875 20.589844 36.46875 20.40625C35.363281 20.207031 33.628906 20 31 20C29.636719 20 28.515625 20.042969 27.59375 20.125C27.078125 18.773438 26.730469 17.898438 26.375 17L43.78125 17C45.019531 17 45.9375 16.824219 46.65625 16.40625C46.777344 16.335938 46.894531 16.242188 47 16.15625 Z M 42.65625 20L44.875 20C44.921875 20 44.949219 20.023438 44.96875 20.03125C44.90625 20.09375 44.691406 20.257813 44.40625 20.40625C44.394531 20.410156 44.386719 20.398438 44.375 20.40625C43.898438 20.648438 43.601563 20.832031 43.40625 20.90625C43.203125 20.980469 43.042969 21 42.65625 21C42.222656 21 42 20.726563 42 20.5C42 20.273438 42.222656 20 42.65625 20 Z M 31 22C33.53125 22 35.132813 22.167969 36.09375 22.34375C37.054688 22.519531 37.28125 22.65625 37.28125 22.65625L37.34375 22.6875L37.4375 22.71875C38.324219 22.976563 39.675781 23.582031 39.9375 24.1875C40.128906 24.632813 40.914063 26.730469 41.625 28.59375C41.816406 29.09375 42.078125 29.847656 42 30.21875C41.960938 30.402344 41.933594 30.496094 41.65625 30.65625C41.378906 30.816406 40.804688 31 39.78125 31L22.21875 31C21.199219 31 20.601563 30.820313 20.3125 30.65625C20.023438 30.492188 19.980469 30.378906 19.9375 30.1875C19.894531 29.996094 19.925781 29.730469 20 29.4375C20.414063 28.324219 20.835938 27.1875 21.1875 26.28125C21.59375 25.230469 21.960938 24.359375 22 24.28125C22.347656 23.59375 23.546875 23.0625 24.625 22.6875L24.6875 22.6875L24.71875 22.65625C24.71875 22.65625 24.945313 22.519531 25.90625 22.34375C26.867188 22.167969 28.46875 22 31 22 Z M 3 24.15625C3.109375 24.242188 3.21875 24.332031 3.34375 24.40625C4.066406 24.820313 4.980469 25 6.21875 25L19.53125 25C19.457031 25.191406 19.398438 25.339844 19.3125 25.5625C19.054688 26.230469 18.734375 27.070313 18.4375 27.875L18.40625 27.875C18.335938 28.0625 18.121094 28.5 18 29.0625C17.976563 29.128906 17.960938 29.183594 17.9375 29.25C17.21875 31.171875 16.835938 32.183594 16.53125 33L2.40625 33C2.175781 33 2 32.816406 2 32.59375L2 26.8125C2.03125 26.734375 2.617188 25.183594 3 24.15625 Z M 5.125 26C4.023438 26 3 26.847656 3 28C3 28.585938 3.304688 29.164063 3.65625 29.5C4.007813 29.835938 4.347656 30.015625 4.6875 30.1875C5.152344 30.425781 5.492188 30.625 5.90625 30.78125C6.320313 30.9375 6.800781 31 7.34375 31C8.75 31 10 29.929688 10 28.5C10 27.070313 8.75 26 7.34375 26 Z M 48 26.9375L48 28L44 28L44 27L47.59375 27C47.734375 27 47.863281 26.960938 48 26.9375 Z M 5.125 28L7.34375 28C7.777344 28 8 28.273438 8 28.5C8 28.726563 7.777344 29 7.34375 29C6.957031 29 6.796875 28.980469 6.59375 28.90625C6.398438 28.832031 6.101563 28.648438 5.625 28.40625C5.613281 28.398438 5.605469 28.414063 5.59375 28.40625C5.308594 28.257813 5.09375 28.125 5.03125 28.0625C4.992188 28.023438 4.996094 28.03125 5 28.03125C5.015625 28.023438 5.0625 28 5.125 28 Z M 19 32.15625C19.109375 32.242188 19.21875 32.332031 19.34375 32.40625C20.066406 32.820313 20.980469 33 22.21875 33L39.78125 33C41.019531 33 41.9375 32.824219 42.65625 32.40625C42.777344 32.335938 42.894531 32.242188 43 32.15625C43.390625 33.195313 43.96875 34.730469 44 34.8125L44 40.59375C44 40.8125 43.824219 41 43.59375 41L18.40625 41C18.175781 41 18 40.816406 18 40.59375L18 34.8125C18.03125 34.734375 18.617188 33.183594 19 32.15625 Z M 21.125 34C20.027344 34 19 34.847656 19 36C19 36.585938 19.304688 37.164063 19.65625 37.5C20.007813 37.835938 20.347656 38.015625 20.6875 38.1875C21.152344 38.425781 21.492188 38.625 21.90625 38.78125C22.320313 38.9375 22.800781 39 23.34375 39C24.75 39 26 37.929688 26 36.5C26 35.070313 24.75 34 23.34375 34 Z M 38.65625 34C37.25 34 36 35.070313 36 36.5C36 37.929688 37.25 39 38.65625 39C39.199219 39 39.679688 38.9375 40.09375 38.78125C40.507813 38.625 40.847656 38.425781 41.3125 38.1875C41.652344 38.015625 41.992188 37.835938 42.34375 37.5C42.695313 37.164063 43 36.585938 43 36C43 34.847656 41.972656 34 40.875 34 Z M 2 34.9375C2.136719 34.960938 2.265625 35 2.40625 35L6 35L6 36L2 36 Z M 21.125 36L23.34375 36C23.777344 36 24 36.273438 24 36.5C24 36.726563 23.777344 37 23.34375 37C22.957031 37 22.796875 36.980469 22.59375 36.90625C22.398438 36.832031 22.101563 36.648438 21.625 36.40625C21.613281 36.398438 21.605469 36.414063 21.59375 36.40625C21.308594 36.257813 21.09375 36.125 21.03125 36.0625C20.992188 36.023438 20.996094 36.03125 21 36.03125C21.015625 36.027344 21.0625 36 21.125 36 Z M 38.65625 36L40.875 36C40.921875 36 40.949219 36.023438 40.96875 36.03125C40.90625 36.09375 40.691406 36.257813 40.40625 36.40625C40.394531 36.410156 40.386719 36.398438 40.375 36.40625C39.898438 36.648438 39.601563 36.832031 39.40625 36.90625C39.203125 36.980469 39.042969 37 38.65625 37C38.222656 37 38 36.726563 38 36.5C38 36.273438 38.222656 36 38.65625 36 Z M 18 42.9375C18.136719 42.960938 18.265625 43 18.40625 43L22 43L22 44L18 44 Z M 44 42.9375L44 44L40 44L40 43L43.59375 43C43.734375 43 43.863281 42.960938 44 42.9375Z" />
</svg>