<?xml version="1.0" encoding="utf-8"?>
<svg xmlns="http://www.w3.org/2000/svg" viewBox="0 0 50 50" width="515" height="515">
  <path d="M10.402344 3C8.535156 3 7 4.535156 7 6.398438L7 24.597656C7 26.464844 8.535156 28 10.402344 28L28.597656 28C30.464844 28 32 26.464844 32 24.597656L32 6.398438C32 4.535156 30.464844 3 28.597656 3 Z M 10.402344 5L14 5C14 5.550781 14.449219 6 15 6C15.550781 6 16 5.550781 16 5L20 5C20 5.550781 20.449219 6 21 6C21.550781 6 22 5.550781 22 5L26 5C26 5.550781 26.449219 6 27 6C27.550781 6 28 5.550781 28 5L28.597656 5C29.386719 5 30 5.613281 30 6.398438L30 7C29.449219 7 29 7.449219 29 8C29 8.550781 29.449219 9 30 9L30 13C29.449219 13 29 13.449219 29 14C29 14.550781 29.449219 15 30 15L30 19C29.449219 19 29 19.449219 29 20C29 20.550781 29.449219 21 30 21L30 24.597656C30 24.742188 29.976563 24.875 29.9375 25.003906C29.433594 25.035156 29.035156 25.433594 29 25.9375C28.875 25.976563 28.742188 26 28.597656 26L25 26C25 25.449219 24.550781 25 24 25C23.449219 25 23 25.449219 23 26L19 26C19 25.449219 18.550781 25 18 25C17.449219 25 17 25.449219 17 26L13 26C13 25.449219 12.550781 25 12 25C11.449219 25 11 25.449219 11 26L10.402344 26C9.613281 26 9 25.386719 9 24.597656L9 24C9.550781 24 10 23.550781 10 23C10 22.449219 9.550781 22 9 22L9 18C9.550781 18 10 17.550781 10 17C10 16.449219 9.550781 16 9 16L9 12C9.550781 12 10 11.550781 10 11C10 10.449219 9.550781 10 9 10L9 6.398438C9 6.257813 9.023438 6.125 9.0625 5.996094C9.566406 5.964844 9.964844 5.566406 10 5.0625C10.125 5.023438 10.257813 5 10.402344 5 Z M 12 7C11.449219 7 11 7.449219 11 8C11 8.550781 11.449219 9 12 9C12.550781 9 13 8.550781 13 8C13 7.449219 12.550781 7 12 7 Z M 18 7C17.449219 7 17 7.449219 17 8C17 8.550781 17.449219 9 18 9C18.550781 9 19 8.550781 19 8C19 7.449219 18.550781 7 18 7 Z M 24 7C23.449219 7 23 7.449219 23 8C23 8.550781 23.449219 9 24 9C24.550781 9 25 8.550781 25 8C25 7.449219 24.550781 7 24 7 Z M 15 10C14.449219 10 14 10.449219 14 11C14 11.550781 14.449219 12 15 12C15.550781 12 16 11.550781 16 11C16 10.449219 15.550781 10 15 10 Z M 21 10C20.449219 10 20 10.449219 20 11C20 11.550781 20.449219 12 21 12C21.550781 12 22 11.550781 22 11C22 10.449219 21.550781 10 21 10 Z M 27 10C26.449219 10 26 10.449219 26 11C26 11.550781 26.449219 12 27 12C27.550781 12 28 11.550781 28 11C28 10.449219 27.550781 10 27 10 Z M 12 13C11.449219 13 11 13.449219 11 14C11 14.550781 11.449219 15 12 15C12.550781 15 13 14.550781 13 14C13 13.449219 12.550781 13 12 13 Z M 18 13C17.449219 13 17 13.449219 17 14C17 14.550781 17.449219 15 18 15C18.550781 15 19 14.550781 19 14C19 13.449219 18.550781 13 18 13 Z M 24 13C23.449219 13 23 13.449219 23 14C23 14.550781 23.449219 15 24 15C24.550781 15 25 14.550781 25 14C25 13.449219 24.550781 13 24 13 Z M 15 16C14.449219 16 14 16.449219 14 17C14 17.550781 14.449219 18 15 18C15.550781 18 16 17.550781 16 17C16 16.449219 15.550781 16 15 16 Z M 21 16C20.449219 16 20 16.449219 20 17C20 17.550781 20.449219 18 21 18C21.550781 18 22 17.550781 22 17C22 16.449219 21.550781 16 21 16 Z M 27 16C26.449219 16 26 16.449219 26 17C26 17.550781 26.449219 18 27 18C27.550781 18 28 17.550781 28 17C28 16.449219 27.550781 16 27 16 Z M 34 18L34 20L43.597656 20C44.386719 20 45 20.613281 45 21.402344L45 39.597656C45 40.386719 44.386719 41 43.597656 41L25.402344 41C24.613281 41 24 40.386719 24 39.597656L24 30L22 30L22 39.597656C22 41.464844 23.535156 43 25.402344 43L43.597656 43C45.464844 43 47 41.464844 47 39.597656L47 21.402344C47 19.535156 45.464844 18 43.597656 18 Z M 12 19C11.449219 19 11 19.449219 11 20C11 20.550781 11.449219 21 12 21C12.550781 21 13 20.550781 13 20C13 19.449219 12.550781 19 12 19 Z M 18 19C17.449219 19 17 19.449219 17 20C17 20.550781 17.449219 21 18 21C18.550781 21 19 20.550781 19 20C19 19.449219 18.550781 19 18 19 Z M 24 19C23.449219 19 23 19.449219 23 20C23 20.550781 23.449219 21 24 21C24.550781 21 25 20.550781 25 20C25 19.449219 24.550781 19 24 19 Z M 15 22C14.449219 22 14 22.449219 14 23C14 23.550781 14.449219 24 15 24C15.550781 24 16 23.550781 16 23C16 22.449219 15.550781 22 15 22 Z M 21 22C20.449219 22 20 22.449219 20 23C20 23.550781 20.449219 24 21 24C21.550781 24 22 23.550781 22 23C22 22.449219 21.550781 22 21 22 Z M 27 22C26.449219 22 26 22.449219 26 23C26 23.550781 26.449219 24 27 24C27.550781 24 28 23.550781 28 23C28 22.449219 27.550781 22 27 22 Z M 3.984375 29.984375C3.433594 29.996094 2.992188 30.449219 3 31L3 40C3 41.644531 4.355469 43 6 43L15.585938 43L13.292969 45.292969C13.03125 45.542969 12.925781 45.917969 13.019531 46.265625C13.109375 46.617188 13.382813 46.890625 13.734375 46.980469C14.082031 47.074219 14.457031 46.96875 14.707031 46.707031L18.621094 42.796875C18.867188 42.605469 19.011719 42.3125 19.011719 42C19.015625 41.691406 18.871094 41.398438 18.625 41.207031C18.621094 41.207031 18.621094 41.203125 18.617188 41.203125L14.707031 37.292969C14.519531 37.097656 14.261719 36.992188 13.988281 36.988281C13.582031 36.992188 13.21875 37.238281 13.0625 37.613281C12.910156 37.992188 13 38.421875 13.292969 38.707031L15.585938 41L6 41C5.433594 41 5 40.566406 5 40L5 31C5.003906 30.730469 4.898438 30.46875 4.707031 30.277344C4.515625 30.085938 4.253906 29.980469 3.984375 29.984375Z" />
</svg>