<?xml version="1.0" encoding="utf-8"?>
<svg xmlns="http://www.w3.org/2000/svg" viewBox="0 0 50 50" width="515" height="515">
  <path d="M16 2C14.354545 2 13 3.3545455 13 5L13 7L3 7C2.4 7 2 7.4 2 8C2 8.6 2.4 9 3 9L13 9L13 11C13 12.645455 14.354545 14 16 14L18 14C19.645455 14 21 12.645455 21 11L21 5C21 3.3545455 19.645455 2 18 2L16 2 z M 16 4L18 4C18.554545 4 19 4.4454545 19 5L19 11C19 11.554545 18.554545 12 18 12L16 12C15.445455 12 15 11.554545 15 11L15 5C15 4.4454545 15.445455 4 16 4 z M 22 7L22 9L47 9C47.6 9 48 8.6 48 8C48 7.4 47.6 7 47 7L22 7 z M 34 19C32.354545 19 31 20.354545 31 22L31 24L3 24C2.4 24 2 24.4 2 25C2 25.6 2.4 26 3 26L31 26L31 28C31 29.645455 32.354545 31 34 31L36 31C37.645455 31 39 29.645455 39 28L39 22C39 20.354545 37.645455 19 36 19L34 19 z M 34 21L36 21C36.554545 21 37 21.445455 37 22L37 28C37 28.554545 36.554545 29 36 29L34 29C33.445455 29 33 28.554545 33 28L33 22C33 21.445455 33.445455 21 34 21 z M 40 24L40 26L47 26C47.6 26 48 25.6 48 25C48 24.4 47.6 24 47 24L40 24 z M 13 36C11.354545 36 10 37.354545 10 39L10 41L3 41C2.4 41 2 41.4 2 42C2 42.6 2.4 43 3 43L10 43L10 45C10 46.645455 11.354545 48 13 48L15 48C16.645455 48 18 46.645455 18 45L18 39C18 37.354545 16.645455 36 15 36L13 36 z M 13 38L15 38C15.554545 38 16 38.445455 16 39L16 45C16 45.554545 15.554545 46 15 46L13 46C12.445455 46 12 45.554545 12 45L12 39C12 38.445455 12.445455 38 13 38 z M 19 41L19 43L47 43C47.6 43 48 42.6 48 42C48 41.4 47.6 41 47 41L19 41 z" />
</svg>