<?xml version="1.0" encoding="utf-8"?>
<svg xmlns="http://www.w3.org/2000/svg" viewBox="0 0 50 50" width="515" height="515">
  <path d="M0 7L0 39L50 39L50 7 Z M 2 9L48 9L48 37L2 37 Z M 20.625 16.59375C20.515625 16.59375 20.410156 16.632813 20.3125 16.6875C20.113281 16.800781 20 17.023438 20 17.25L20 29.96875C20 30.195313 20.117188 30.417969 20.3125 30.53125C20.410156 30.589844 20.515625 30.59375 20.625 30.59375C20.734375 30.59375 20.871094 30.589844 20.96875 30.53125L31.96875 24.15625C32.164063 24.042969 32.28125 23.820313 32.28125 23.59375C32.28125 23.367188 32.164063 23.175781 31.96875 23.0625L20.96875 16.6875C20.871094 16.632813 20.734375 16.59375 20.625 16.59375 Z M 10.8125 41C10.261719 41.050781 9.855469 41.542969 9.90625 42.09375C9.957031 42.644531 10.449219 43.050781 11 43L39 43C39.359375 43.003906 39.695313 42.816406 39.878906 42.503906C40.058594 42.191406 40.058594 41.808594 39.878906 41.496094C39.695313 41.183594 39.359375 40.996094 39 41L11 41C10.96875 41 10.9375 41 10.90625 41C10.875 41 10.84375 41 10.8125 41Z" />
</svg>