<?xml version="1.0" encoding="utf-8"?>
<svg xmlns="http://www.w3.org/2000/svg" viewBox="0 0 50 50" width="515" height="515">
  <path d="M40.449219 3C40.359375 2.996094 40.265625 3.007813 40.175781 3.03125L23.765625 7.03125C23.449219 7.105469 23.191406 7.328125 23.074219 7.628906L21.324219 12L16 12C15.722656 12 15.453125 12.117188 15.265625 12.324219L3.265625 25.324219C2.894531 25.722656 2.914063 26.347656 3.3125 26.722656L15.890625 38.722656C16.078125 38.902344 16.324219 39 16.582031 39L22.324219 39L24.074219 43.371094C24.199219 43.695313 24.488281 43.925781 24.828125 43.984375L42.289063 46.984375C42.816406 47.078125 43.320313 46.734375 43.4375 46.214844L46.976563 29.984375C47.03125 29.734375 46.988281 29.46875 46.855469 29.25L44.527344 25.429688L46.902344 20.429688C47.015625 20.191406 47.03125 19.917969 46.941406 19.671875L41.359375 3.671875C41.222656 3.28125 40.859375 3.015625 40.449219 3 Z M 39.769531 5.1875L44.921875 19.941406L43.445313 23.046875L39.953125 11.703125C39.824219 11.277344 39.421875 10.988281 38.972656 11C38.605469 11.011719 38.269531 11.222656 38.105469 11.550781L31.105469 25.550781C30.945313 25.871094 30.96875 26.25 31.164063 26.546875L39.164063 38.757813C39.382813 39.09375 39.785156 39.261719 40.179688 39.191406C40.570313 39.121094 40.886719 38.820313 40.972656 38.429688L43.453125 27.515625L44.9375 29.949219L41.6875 44.851563L25.71875 42.109375L24.601563 39.3125L36.183594 41.464844C36.578125 41.535156 36.980469 41.367188 37.199219 41.03125C37.421875 40.691406 37.421875 40.257813 37.195313 39.921875L28.828125 27.441406C28.644531 27.167969 28.332031 27 28 27L12 27C11.585938 27 11.214844 27.253906 11.066406 27.640625C10.917969 28.023438 11.023438 28.460938 11.328125 28.738281L20.414063 37L16.984375 37L5.402344 25.953125L16.4375 14L19.738281 14L11.261719 23.328125C10.992188 23.621094 10.925781 24.042969 11.085938 24.40625C11.246094 24.765625 11.605469 25 12 25L28 25C28.378906 25 28.726563 24.785156 28.894531 24.449219L35.894531 10.449219C36.046875 10.140625 36.035156 9.78125 35.859375 9.488281C35.683594 9.195313 35.375 9.011719 35.03125 9C34.945313 8.996094 34.859375 9.003906 34.777344 9.023438L23.640625 11.59375L24.734375 8.851563 Z M 33.15625 11.453125L27.382813 23L14.261719 23L22.53125 13.90625 Z M 38.78125 14.679688L41.964844 25.039063L39.546875 35.691406L33.152344 25.933594 Z M 14.585938 29L27.46875 29L34.210938 39.0625L23.464844 37.066406Z" />
</svg>