<?xml version="1.0" encoding="utf-8"?>
<svg xmlns="http://www.w3.org/2000/svg" viewBox="0 0 50 50" width="515" height="515">
  <path d="M25.037109 2 A 1.0001 1.0001 0 0 0 24.576172 2.09375L2.5761719 12.380859 A 1.0001 1.0001 0 0 0 2 13.285156L2 15 A 1.0001 1.0001 0 0 0 3 16L5 16C5 17.29975 5.8348345 18.43211 7 18.833984L7 37.150391C5.8280314 37.539726 5 38.695112 5 40L5 41L4.8457031 41C3.2400822 41 2 42.397208 2 44L2 47L48 47L48 44C48 42.397208 46.759918 41 45.154297 41L45 41L45 40C45 38.695112 44.171969 37.539726 43 37.150391L43 18.833984C44.165166 18.43211 45 17.29975 45 16L47 16 A 1.0001 1.0001 0 0 0 48 15L48 13.285156 A 1.0001 1.0001 0 0 0 47.423828 12.380859L25.423828 2.09375 A 1.0001 1.0001 0 0 0 25.037109 2 z M 25 4.1035156L46 13.921875L46 14L4 14L4 13.921875L25 4.1035156 z M 7 16L43 16C43 16.5883 42.580604 17 42.091797 17L22 17L18 17L7.9082031 17C7.4193959 17 7 16.5883 7 16 z M 9 19L11 19L11 37L9 37L9 19 z M 13 19L17 19L17 37L13 37L13 19 z M 19 19L21 19L21 37L19 37L19 19 z M 23 19L27 19L27 37L23 37L23 19 z M 29 19L31 19L31 37L29 37L29 19 z M 33 19L37 19L37 37L33 37L33 19 z M 39 19L41 19L41 37L39 37L39 19 z M 7.8457031 39L18 39L22 39L42.154297 39C42.588676 39 43 39.394792 43 40L43 41L7 41L7 40C7 39.394792 7.411324 39 7.8457031 39 z M 4.8457031 43L45.154297 43C45.588676 43 46 43.394792 46 44L46 45L4 45L4 44C4 43.394792 4.411324 43 4.8457031 43 z" />
</svg>