<?xml version="1.0" encoding="utf-8"?>
<svg xmlns="http://www.w3.org/2000/svg" viewBox="0 0 50 50" width="515" height="515">
  <path d="M24.699219 2C19.656779 2 15.67681 3.4778077 12.996094 6.2265625C10.315377 8.9753173 9 12.914424 9 17.599609C9 19.540222 9.8535123 23.223571 10.591797 25.433594C9.7931199 26.138316 8.8066937 27.307171 9.0058594 29.298828 A 1.0001 1.0001 0 0 0 9.0058594 29.306641C9.3934274 32.891645 11.69302 34.137195 12.447266 34.498047C12.737122 36.15892 13.603759 38.220371 15.019531 40.332031C16.540029 42.599892 18.622062 44.798424 21.164062 46.027344C22.064666 47.199646 23.419576 48 25 48C26.581419 48 27.937371 47.198964 28.837891 46.025391C31.380283 44.794983 33.440378 42.594704 34.935547 40.326172C36.328317 38.213003 37.170328 36.148526 37.455078 34.496094C38.209706 34.134699 40.491796 32.892255 40.888672 29.328125C41.184101 27.293712 40.107919 26.093243 39.402344 25.439453C40.108113 23.224273 41 19.797704 41 16C41 14.254167 40.643469 11.876384 39.46875 9.8066406C38.36746 7.8662717 36.375006 6.2745678 33.542969 6.0761719C32.27292 4.1136867 29.450094 2 24.699219 2 z M 24.699219 4C29.179774 4 31.415301 6.1429665 32.117188 7.46875 A 1.0001 1.0001 0 0 0 33 8C35.454762 8 36.805188 9.1627124 37.730469 10.792969C38.655749 12.423225 39 14.545833 39 16C39 19.72906 38.030482 23.346058 37.351562 25.382812 A 1.0001 1.0001 0 0 0 37.675781 26.480469C38.188478 26.890626 39.134475 27.555324 38.910156 29.050781 A 1.0001 1.0001 0 0 0 38.90625 29.091797C38.559693 32.297445 36.273438 32.955078 36.273438 32.955078 A 1.0001 1.0001 0 0 0 35.605469 33.792969C35.488383 34.885774 34.645936 37.130345 33.265625 39.224609C31.885314 41.318874 29.9764 43.312202 27.876953 44.294922 A 1.0001 1.0001 0 0 0 27.457031 44.664062C26.931773 45.489455 26.066667 46 25 46C23.933333 46 23.068221 45.48946 22.542969 44.664062 A 1.0001 1.0001 0 0 0 22.123047 44.294922C20.021134 43.311048 18.084803 41.314516 16.679688 39.21875C15.274572 37.122984 14.410754 34.874071 14.294922 33.792969 A 1.0001 1.0001 0 0 0 13.626953 32.955078C13.626953 32.955078 11.34451 32.296974 10.996094 29.095703C10.845219 27.562467 11.803782 26.831333 12.253906 26.53125 A 1.0001 1.0001 0 0 0 12.638672 25.353516C12.008937 23.644236 11 18.907453 11 17.599609C11 13.284795 12.183451 9.9242921 14.427734 7.6230469C16.672018 5.3218016 20.041659 4 24.699219 4 z M 32.537109 11.587891 A 1.0001 1.0001 0 0 0 32.421875 11.591797 A 1.0001 1.0001 0 0 0 32.337891 11.601562 A 1.0001 1.0001 0 0 0 31.570312 12.203125C31.555923 12.233555 31.163886 13.074734 30.011719 14.03125C28.838921 15.004861 26.970833 16 24 16C22.131982 16 19.796791 16.02329 17.771484 16.759766C16.758831 17.128003 15.805979 17.692229 15.105469 18.568359C14.404959 19.44449 14 20.615972 14 22 A 1.0001 1.0001 0 1 0 16 22C16 20.984028 16.257151 20.329729 16.666016 19.818359C17.074881 19.30699 17.680231 18.922387 18.455078 18.640625C20.004772 18.0771 22.168018 18 24 18C27.429167 18 29.811857 16.796673 31.289062 15.570312C31.804479 15.142421 32.094665 14.752709 32.414062 14.363281C33.278509 15.641634 35 18.42822 35 22 A 1.0001 1.0001 0 1 0 37 22C37 16.754867 33.710961 12.565338 33.433594 12.216797 A 1.0001 1.0001 0 0 0 32.537109 11.587891 z M 19.5 27 A 1.5 1.5 0 0 0 19.5 30 A 1.5 1.5 0 0 0 19.5 27 z M 30.5 27C29.7 27 29 27.7 29 28.5C29 29.3 29.7 30 30.5 30C31.3 30 32 29.3 32 28.5C32 27.7 31.3 27 30.5 27 z" />
</svg>