<?xml version="1.0" encoding="utf-8"?>
<svg xmlns="http://www.w3.org/2000/svg" viewBox="0 0 50 50" width="515" height="515">
  <path d="M10 2C5.59375 2 2 5.59375 2 10C2 14.40625 5.59375 18 10 18C14.40625 18 18 14.40625 18 10C18 5.59375 14.40625 2 10 2 Z M 10 4C13.324219 4 16 6.675781 16 10C16 13.324219 13.324219 16 10 16C6.675781 16 4 13.324219 4 10C4 6.675781 6.675781 4 10 4 Z M 38.90625 11.3125C37.914063 11.3125 37.09375 12.101563 37.09375 13.09375C37.09375 13.480469 37.230469 13.832031 37.4375 14.125C32.644531 14.871094 29 18.996094 29 24L28.8125 24C28.769531 23.996094 28.730469 23.996094 28.6875 24C28.136719 24.035156 27.714844 24.511719 27.75 25.0625C27.785156 25.613281 28.261719 26.035156 28.8125 26L31.53125 26L27.65625 29.78125L22.03125 21.4375C21.996094 21.382813 21.953125 21.328125 21.90625 21.28125C21.378906 20.753906 20.804688 20.652344 20.15625 20.5C19.507813 20.347656 18.800781 20.226563 18.09375 20.15625C16.679688 20.011719 15.355469 20 15 20C14.535156 20.003906 14.132813 20.328125 14.03125 20.78125L10 37.71875L5.96875 20.78125C5.867188 20.328125 5.464844 20.003906 5 20C4.179688 20 2.203125 20.195313 0.84375 20.40625C0.46875 20.433594 0.140625 20.671875 -0.00390625 21.019531C-0.148438 21.367188 -0.0859375 21.769531 0.160156 22.054688C0.40625 22.339844 0.789063 22.464844 1.15625 22.375C2.152344 22.222656 3.453125 22.117188 4.25 22.0625L9.03125 42.21875C9.144531 42.660156 9.542969 42.96875 10 42.96875C10.457031 42.96875 10.855469 42.660156 10.96875 42.21875L15.78125 22.03125C16.332031 22.046875 16.921875 22.058594 17.875 22.15625C18.53125 22.222656 19.210938 22.316406 19.71875 22.4375C20.207031 22.550781 20.511719 22.773438 20.46875 22.71875C20.46875 22.714844 20.503906 22.722656 20.5 22.71875L26.6875 31.875C26.855469 32.113281 27.113281 32.265625 27.402344 32.292969C27.691406 32.324219 27.976563 32.226563 28.1875 32.03125L34.40625 26L41.8125 26C41.570313 26.082031 41.414063 26.171875 41.15625 26.25C40.253906 26.519531 39.316406 26.761719 38.46875 27.03125C37.621094 27.300781 36.886719 27.488281 36.28125 28.09375C36.269531 28.113281 36.257813 28.136719 36.25 28.15625C36.25 28.15625 34.507813 30.160156 32.71875 32.25C31.824219 33.292969 30.9375 34.335938 30.21875 35.1875C29.5 36.039063 29.015625 36.578125 28.78125 36.90625L28.8125 36.90625C28.382813 37.480469 28.089844 37.765625 27.9375 37.875C27.785156 37.984375 27.773438 38 27.5 38C27.390625 38 27.265625 37.972656 27.03125 37.78125C26.796875 37.589844 26.507813 37.246094 26.15625 36.84375L21.75 31.84375C21.476563 31.53125 21.039063 31.421875 20.648438 31.570313C20.261719 31.714844 20.003906 32.085938 20 32.5L20 46L1 46C0.640625 45.996094 0.304688 46.183594 0.121094 46.496094C-0.0585938 46.808594 -0.0585938 47.191406 0.121094 47.503906C0.304688 47.816406 0.640625 48.003906 1 48L21 48C21.550781 48 22 47.550781 22 47L22 35.15625L24.65625 38.15625C25.003906 38.554688 25.34375 38.953125 25.78125 39.3125C26.21875 39.671875 26.808594 40 27.5 40C28.023438 40 28.621094 39.839844 29.09375 39.5C29.566406 39.160156 29.9375 38.71875 30.40625 38.09375C30.421875 38.070313 31.003906 37.34375 31.71875 36.5C32.433594 35.65625 33.355469 34.574219 34.25 33.53125C36.019531 31.460938 37.691406 29.53125 37.71875 29.5C37.71875 29.5 37.75 29.46875 37.75 29.46875C37.777344 29.453125 38.316406 29.175781 39.0625 28.9375C39.828125 28.695313 40.800781 28.4375 41.75 28.15625C42.699219 27.875 43.625 27.582031 44.40625 27.15625C44.796875 26.945313 45.132813 26.683594 45.4375 26.34375C45.527344 26.242188 45.609375 26.121094 45.6875 26L49.09375 26C49.453125 26.003906 49.789063 25.816406 49.972656 25.503906C50.152344 25.191406 50.152344 24.808594 49.972656 24.496094C49.789063 24.183594 49.453125 23.996094 49.09375 24L49 24C49 18.941406 45.273438 14.773438 40.40625 14.09375C40.601563 13.804688 40.6875 13.464844 40.6875 13.09375C40.6875 12.101563 39.898438 11.3125 38.90625 11.3125 Z M 39 16C43.464844 16 47 19.535156 47 24L31 24C31 19.535156 34.535156 16 39 16Z" />
</svg>