<?xml version="1.0" encoding="utf-8"?>
<svg xmlns="http://www.w3.org/2000/svg" viewBox="0 0 50 50" width="515" height="515">
  <path d="M19 6C9.746094 6 2 12.359375 2 20.5C2 24.894531 4.292969 28.679688 7.835938 31.324219L5.179688 39.304688L13.472656 34.167969C15.1875 34.707031 17.082031 35 19 35C19.746094 35 20.472656 34.945313 21.195313 34.863281C23.378906 39.105469 28.328125 42 34 42C35.722656 42 37.316406 41.675781 38.796875 41.234375L45.644531 45.066406L43.734375 38.515625C46.3125 36.375 48 33.394531 48 30C48 23.789063 42.597656 18.835938 35.75 18.105469C34.398438 11.125 27.324219 6 19 6 Z M 19 8C26.308594 8 32.328125 12.351563 33.703125 18.011719C26.183594 18.148438 20 23.355469 20 30C20 31.019531 20.160156 32.003906 20.4375 32.941406C19.964844 32.980469 19.484375 33 19 33C17.101563 33 15.199219 32.710938 13.632813 32.15625L13.183594 32L8.820313 34.699219L10.1875 30.59375L9.5625 30.171875C6.082031 27.820313 4 24.445313 4 20.5C4 13.640625 10.65625 8 19 8 Z M 13 14C11.898438 14 11 14.898438 11 16C11 17.101563 11.898438 18 13 18C14.101563 18 15 17.101563 15 16C15 14.898438 14.101563 14 13 14 Z M 25 14C23.898438 14 23 14.898438 23 16C23 17.101563 23.898438 18 25 18C26.101563 18 27 17.101563 27 16C27 14.898438 26.101563 14 25 14 Z M 34 20C40.746094 20 46 24.535156 46 30C46 32.957031 44.492188 35.550781 42.003906 37.394531L41.445313 37.8125L42.355469 40.933594L39.105469 39.109375L38.683594 39.25C37.285156 39.71875 35.6875 40 34 40C27.253906 40 22 35.464844 22 30C22 24.535156 27.253906 20 34 20 Z M 29.5 26C28.699219 26 28 26.699219 28 27.5C28 28.300781 28.699219 29 29.5 29C30.300781 29 31 28.300781 31 27.5C31 26.699219 30.300781 26 29.5 26 Z M 38.5 26C37.699219 26 37 26.699219 37 27.5C37 28.300781 37.699219 29 38.5 29C39.300781 29 40 28.300781 40 27.5C40 26.699219 39.300781 26 38.5 26Z" />
</svg>