<?xml version="1.0" encoding="utf-8"?>
<svg xmlns="http://www.w3.org/2000/svg" viewBox="0 0 50 50" width="515" height="515">
  <path d="M25 9C20.300781 9 16.046875 10.914063 12.96875 14L9 14C4.042969 14 0 18.042969 0 23L0 29C0 33.957031 4.042969 38 9 38L13 38C16.078125 41.066406 20.320313 43 25 43C29.691406 43 33.957031 41.082031 37.03125 38L41 38C45.957031 38 50 33.957031 50 29L50 23C50 18.042969 45.957031 14 41 14L37.03125 14C36.96875 13.917969 36.894531 13.84375 36.8125 13.78125C33.753906 10.824219 29.585938 9 25 9 Z M 25 11C28.378906 11 31.492188 12.117188 34 14L31 14C31 14 30.90625 13.988281 30.71875 14C30.160156 14.035156 28.867188 14.191406 27.5625 14.84375C25.824219 15.714844 24 17.667969 24 21L24 31C24 33.667969 22.824219 34.714844 21.5625 35.34375C20.300781 35.972656 19 36 19 36C18.9375 36.003906 18.875 36.015625 18.8125 36.03125C18.714844 36.046875 18.621094 36.078125 18.53125 36.125C18.441406 36.164063 18.355469 36.21875 18.28125 36.28125C18.257813 36.3125 18.238281 36.34375 18.21875 36.375C18.195313 36.394531 18.175781 36.414063 18.15625 36.4375C18.078125 36.550781 18.027344 36.679688 18 36.8125C17.984375 36.917969 17.984375 37.019531 18 37.125C18.003906 37.1875 18.015625 37.25 18.03125 37.3125C18.070313 37.4375 18.132813 37.554688 18.21875 37.65625C18.25 37.679688 18.28125 37.699219 18.3125 37.71875C18.402344 37.8125 18.507813 37.886719 18.625 37.9375C18.65625 37.949219 18.6875 37.960938 18.71875 37.96875C18.808594 37.992188 18.90625 38.003906 19 38L34 38C33.0625 38.707031 32.03125 39.308594 30.9375 39.78125C30.832031 39.34375 30.472656 39 30 39C29.449219 39 29 39.449219 29 40C29 40.152344 29.0625 40.277344 29.125 40.40625C27.816406 40.777344 26.429688 41 25 41C24.726563 41 24.457031 40.953125 24.1875 40.9375C24.640625 40.84375 25 40.480469 25 40C25 39.449219 24.550781 39 24 39C23.449219 39 23 39.449219 23 40C23 40.414063 23.265625 40.753906 23.625 40.90625C21.964844 40.753906 20.394531 40.339844 18.9375 39.6875C18.800781 39.292969 18.4375 39 18 39C17.871094 39 17.769531 39.050781 17.65625 39.09375C17.648438 39.089844 17.632813 39.097656 17.625 39.09375C16.941406 38.707031 16.300781 38.207031 15.6875 37.71875C15.878906 37.535156 16 37.285156 16 37C16 36.449219 15.550781 36 15 36C14.675781 36 14.402344 36.164063 14.21875 36.40625C14.175781 36.363281 14.132813 36.324219 14.09375 36.28125C13.886719 36.058594 13.585938 35.945313 13.28125 35.96875C13.226563 35.976563 13.175781 35.984375 13.125 36C13.113281 36 13.105469 36 13.09375 36L9 36C6.164063 36 3.757813 34.316406 2.65625 31.90625C2.769531 31.949219 2.871094 32 3 32C3.550781 32 4 31.550781 4 31C4 30.449219 3.550781 30 3 30C2.648438 30 2.367188 30.195313 2.1875 30.46875C2.085938 29.992188 2 29.507813 2 29L2 23C2 21.898438 2.269531 20.863281 2.71875 19.9375C2.8125 19.964844 2.898438 20 3 20C3.550781 20 4 19.550781 4 19C4 18.75 3.902344 18.519531 3.75 18.34375C4.273438 17.753906 4.898438 17.261719 5.59375 16.875C5.722656 16.9375 5.847656 17 6 17C6.4375 17 6.800781 16.707031 6.9375 16.3125C7.585938 16.113281 8.285156 16 9 16L11 16C11 16.550781 11.449219 17 12 17C12.550781 17 13 16.550781 13 16L13.34375 16C13.660156 16.011719 13.960938 15.871094 14.15625 15.625C14.226563 15.570313 14.289063 15.507813 14.34375 15.4375C17.0625 12.695313 20.828125 11 25 11 Z M 2 25C2 25.550781 2.449219 26 3 26C3.550781 26 4 25.550781 4 25C4 24.449219 3.550781 24 3 24C2.449219 24 2 24.449219 2 25 Z M 21 12C20.449219 12 20 12.449219 20 13C20 13.550781 20.449219 14 21 14C21.550781 14 22 13.550781 22 13C22 12.449219 21.550781 12 21 12 Z M 27 12C26.449219 12 26 12.449219 26 13C26 13.550781 26.449219 14 27 14C27.550781 14 28 13.550781 28 13C28 12.449219 27.550781 12 27 12 Z M 18 15C17.449219 15 17 15.449219 17 16C17 16.550781 17.449219 17 18 17C18.550781 17 19 16.550781 19 16C19 15.449219 18.550781 15 18 15 Z M 24 15C23.449219 15 23 15.449219 23 16C23 16.550781 23.449219 17 24 17C24.550781 17 25 16.550781 25 16C25 15.449219 24.550781 15 24 15 Z M 31 16L41 16C44.878906 16 48 19.121094 48 23L48 29C48 32.878906 44.878906 36 41 36L23.75 36C24.953125 34.925781 26 33.4375 26 31L26 21C26 18.332031 27.175781 17.285156 28.4375 16.65625C29.699219 16.027344 31 16 31 16 Z M 9 18C8.449219 18 8 18.449219 8 19C8 19.550781 8.449219 20 9 20C9.550781 20 10 19.550781 10 19C10 18.449219 9.550781 18 9 18 Z M 15 18C14.449219 18 14 18.449219 14 19C14 19.550781 14.449219 20 15 20C15.550781 20 16 19.550781 16 19C16 18.449219 15.550781 18 15 18 Z M 20.53125 20.0625C19.652344 20.0625 18.9375 20.71875 18.9375 21.53125C18.9375 22.34375 19.652344 23 20.53125 23C21.410156 23 22.125 22.34375 22.125 21.53125C22.125 20.71875 21.410156 20.0625 20.53125 20.0625 Z M 41.875 20.0625C40.996094 20.0625 40.28125 20.71875 40.28125 21.53125C40.28125 22.34375 40.996094 23 41.875 23C42.753906 23 43.46875 22.34375 43.46875 21.53125C43.46875 20.71875 42.753906 20.0625 41.875 20.0625 Z M 14.875 20.71875L13.96875 27.40625L12.8125 20.75L10.125 20.75L8.96875 27.40625L8.09375 20.75L5.0625 20.75L7.59375 32.125L10.28125 32.125L11.4375 25.125L12.625 32.125L15.34375 32.125L17.84375 20.71875 Z M 29.6875 20.75L29.6875 32.03125L32.625 32.03125L32.625 28.59375L38.1875 28.59375L38.1875 25.9375L32.625 25.9375L32.625 23.40625L38.78125 23.40625L38.78125 20.75 Z M 19.125 23.84375L19.125 32.0625L21.875 32.0625L21.875 23.84375 Z M 40.46875 23.84375L40.46875 32.0625L43.21875 32.0625L43.21875 23.84375 Z M 6 33C5.449219 33 5 33.449219 5 34C5 34.550781 5.449219 35 6 35C6.550781 35 7 34.550781 7 34C7 33.449219 6.550781 33 6 33 Z M 12 33C11.449219 33 11 33.449219 11 34C11 34.550781 11.449219 35 12 35C12.550781 35 13 34.550781 13 34C13 33.449219 12.550781 33 12 33 Z M 18 33C17.449219 33 17 33.449219 17 34C17 34.550781 17.449219 35 18 35C18.550781 35 19 34.550781 19 34C19 33.449219 18.550781 33 18 33Z" />
</svg>