<?xml version="1.0" encoding="utf-8"?>
<svg xmlns="http://www.w3.org/2000/svg" viewBox="0 0 50 50" width="515" height="515">
  <path d="M4 4C2.898438 4 2 4.898438 2 6L2 35C2 36.101563 2.898438 37 4 37L18.453125 37C18.195313 37.296875 17.871094 37.566406 17.464844 37.835938C16.636719 38.386719 15.523438 38.875 14.300781 39.40625C11.863281 40.464844 8.953125 41.699219 7.164063 44.453125C6.960938 44.761719 6.945313 45.15625 7.121094 45.476563C7.296875 45.800781 7.632813 46 8 46L42 46C42.367188 46 42.703125 45.800781 42.878906 45.476563C43.054688 45.15625 43.039063 44.765625 42.839844 44.457031C41.058594 41.703125 38.160156 40.472656 35.710938 39.421875C34.484375 38.898438 33.355469 38.417969 32.503906 37.875C32.070313 37.597656 31.726563 37.308594 31.453125 37L46 37C47.101563 37 48 36.101563 48 35L48 6C48 4.898438 47.101563 4 46 4 Z M 4 6L46 6L46 35L30.847656 35C30.820313 34.164063 30.808594 33.367188 30.808594 32.546875C30.9375 32.402344 31.113281 32.292969 31.234375 32.121094C31.457031 31.796875 31.679688 31.414063 31.890625 31L46 31L46 29L32.660156 29C32.773438 28.613281 32.886719 28.222656 32.964844 27.832031C33.285156 27.671875 33.644531 27.65625 33.894531 27.332031C34.375 26.703125 34.683594 25.816406 34.796875 24.589844C34.796875 24.589844 34.796875 24.585938 34.796875 24.582031C34.859375 23.855469 34.777344 23.207031 34.546875 22.65625C34.472656 22.476563 34.34375 22.316406 34.226563 22.15625C34.554688 21.449219 34.789063 20.664063 34.886719 19.75C35.023438 18.457031 34.945313 17 34.578125 15.589844C34.214844 14.175781 33.558594 12.796875 32.472656 11.738281C31.535156 10.828125 30.210938 10.285156 28.683594 10.128906L27.894531 8.554688C27.726563 8.214844 27.378906 8 27 8C22.042969 8 18.464844 9.945313 16.578125 12.8125C14.800781 15.511719 14.597656 18.941406 15.800781 22.109375C15.367188 22.660156 15.011719 23.378906 15.105469 24.484375C15.105469 24.5 15.105469 24.519531 15.109375 24.535156C15.277344 25.753906 15.613281 26.621094 16.078125 27.234375C16.3125 27.535156 16.644531 27.546875 16.933594 27.714844C17 28.148438 17.101563 28.578125 17.21875 29L4 29 Z M 26.410156 10.058594L27.105469 11.449219C27.273438 11.785156 27.621094 12 28 12C29.390625 12 30.335938 12.449219 31.078125 13.171875C31.824219 13.898438 32.347656 14.9375 32.644531 16.089844C32.941406 17.238281 33.007813 18.488281 32.898438 19.546875C32.789063 20.601563 32.457031 21.472656 32.214844 21.78125C32.015625 22.035156 31.949219 22.367188 32.039063 22.675781C32.128906 22.984375 32.359375 23.230469 32.660156 23.339844C32.664063 23.34375 32.671875 23.351563 32.703125 23.421875C32.773438 23.589844 32.84375 23.945313 32.800781 24.417969C32.714844 25.382813 32.472656 25.898438 32.304688 26.117188C32.136719 26.335938 32.066406 26.300781 32.097656 26.300781C31.605469 26.300781 31.183594 26.664063 31.109375 27.152344C30.984375 28.003906 30.613281 29.0625 30.203125 29.910156C29.996094 30.335938 29.777344 30.710938 29.59375 30.972656C29.410156 31.238281 29.207031 31.386719 29.304688 31.332031C28.992188 31.511719 28.800781 31.839844 28.800781 32.199219C28.800781 33.597656 28.800781 34.832031 28.902344 36.464844C28.90625 36.5625 28.929688 36.660156 28.964844 36.75C29.429688 38 30.371094 38.886719 31.433594 39.5625C32.492188 40.238281 33.703125 40.742188 34.921875 41.265625C36.625 41.992188 38.179688 42.882813 39.515625 44L10.496094 44C11.839844 42.878906 13.398438 41.980469 15.097656 41.242188C16.316406 40.710938 17.523438 40.199219 18.570313 39.503906C19.617188 38.808594 20.535156 37.886719 20.953125 36.609375C20.972656 36.550781 20.984375 36.488281 20.992188 36.421875C21.203125 34.726563 21.097656 33.554688 21.097656 32.097656C21.097656 31.742188 20.90625 31.410156 20.59375 31.234375C20.671875 31.273438 20.46875 31.121094 20.277344 30.863281C20.085938 30.609375 19.863281 30.25 19.65625 29.835938C19.238281 29.011719 18.878906 27.972656 18.796875 27.105469C18.746094 26.59375 18.316406 26.199219 17.800781 26.199219C17.949219 26.199219 17.851563 26.257813 17.671875 26.015625C17.488281 25.78125 17.238281 25.242188 17.101563 24.296875C17.050781 23.488281 17.539063 23.078125 17.453125 23.132813C17.859375 22.863281 18.011719 22.339844 17.8125 21.894531C16.585938 19.121094 16.761719 16.167969 18.25 13.910156C19.664063 11.765625 22.332031 10.207031 26.410156 10.058594 Z M 4 31L18.015625 31C18.226563 31.390625 18.445313 31.753906 18.671875 32.058594C18.792969 32.222656 18.960938 32.328125 19.09375 32.46875C19.101563 33.382813 19.128906 34.160156 19.09375 35L4 35 Z M 41 32L41 34L43 34L43 32Z" />
</svg>