<?xml version="1.0" encoding="utf-8"?>
<svg xmlns="http://www.w3.org/2000/svg" viewBox="0 0 50 50" width="515" height="515">
  <path d="M10 0C4.488281 0 0 4.488281 0 10C0 15.066406 3.792969 19.230469 8.6875 19.875L5.28125 23.28125C4.882813 23.679688 4.882813 24.320313 5.28125 24.71875C5.679688 25.117188 6.320313 25.117188 6.71875 24.71875L9 22.4375L9 30L1 30C0.96875 30 0.9375 30 0.90625 30C0.390625 30.046875 -0.00390625 30.480469 0 31L0 49C0 49.550781 0.449219 50 1 50L19 50C19.550781 50 20 49.550781 20 49L20 31C20 30.449219 19.550781 30 19 30L11 30L11 22.4375L13.28125 24.71875C13.679688 25.117188 14.320313 25.117188 14.71875 24.71875C15.117188 24.320313 15.117188 23.679688 14.71875 23.28125L11.3125 19.875C15.882813 19.269531 19.480469 15.613281 19.9375 11L27.5625 11L25.28125 13.28125C24.882813 13.679688 24.882813 14.320313 25.28125 14.71875C25.679688 15.117188 26.320313 15.117188 26.71875 14.71875L30.5 10.9375L39 19.4375L39 27.5625L36.71875 25.28125C36.476563 25.03125 36.121094 24.925781 35.78125 25C35.40625 25.066406 35.105469 25.339844 35 25.703125C34.894531 26.070313 35.003906 26.460938 35.28125 26.71875L38.6875 30.125C33.792969 30.769531 30 34.933594 30 40C30 45.511719 34.488281 50 40 50C45.511719 50 50 45.511719 50 40C50 34.933594 46.207031 30.769531 41.3125 30.125L44.71875 26.71875C45.117188 26.320313 45.117188 25.679688 44.71875 25.28125C44.320313 24.882813 43.679688 24.882813 43.28125 25.28125L41 27.5625L41 19.4375L49.71875 10.71875C49.914063 10.53125 50.023438 10.269531 50.023438 10C50.023438 9.730469 49.914063 9.46875 49.71875 9.28125L40.71875 0.28125C40.496094 0.0625 40.183594 -0.0429688 39.875 0C39.652344 0.0234375 39.441406 0.125 39.28125 0.28125L30.5 9.0625L26.71875 5.28125C26.511719 5.058594 26.210938 4.945313 25.90625 4.96875C25.863281 4.976563 25.820313 4.988281 25.78125 5C25.40625 5.066406 25.105469 5.339844 25 5.703125C24.894531 6.070313 25.003906 6.460938 25.28125 6.71875L27.5625 9L19.9375 9C19.4375 3.953125 15.175781 0 10 0 Z M 10 2C14.292969 2 17.753906 5.355469 17.96875 9.59375C17.875 9.847656 17.882813 10.128906 18 10.375C18 10.386719 18 10.394531 18 10.40625C17.785156 14.644531 14.292969 18 10 18C5.570313 18 2 14.429688 2 10C2 5.570313 5.570313 2 10 2 Z M 40 2.4375L47.5625 10L40 17.5625L32.4375 10 Z M 2 32L18 32L18 48L2 48 Z M 40 32C44.429688 32 48 35.570313 48 40C48 44.429688 44.429688 48 40 48C35.570313 48 32 44.429688 32 40C32 35.570313 35.570313 32 40 32Z" />
</svg>