<?xml version="1.0" encoding="utf-8"?>
<svg xmlns="http://www.w3.org/2000/svg" viewBox="0 0 50 50" width="515" height="515">
  <path d="M15 8C15 8 11.910505 7.9265832 9.5527344 9.1054688C8.6719913 9.5458402 8.436576 9.4664539 7.8085938 9.6757812C7.4946026 9.7804451 7.1126133 10.022451 6.8457031 10.337891C6.5787929 10.65333 6.3703759 11.02292 6.1054688 11.552734C5.635283 12.493106 5.1751175 13.16082 4.7929688 13.542969C4.4108199 13.925118 4.1666667 14 4 14C3.5 14 2.6350378 13.969813 1.7539062 14.322266C0.8727748 14.674718 -1.4802974e-16 15.666667 0 17C0 17.583333 0.063573285 18.073477 0.24804688 18.521484C0.43252046 18.969492 0.80486593 19.406309 1.3085938 19.574219C1.8123215 19.742128 2.30515 19.632469 2.6894531 19.453125C3.0205736 19.298602 3.2956099 19.064054 3.5664062 18.810547C3.5837902 18.812847 3.6073832 18.80974 3.6992188 18.84375C3.9401048 18.93297 4.3466589 19.185808 4.7246094 19.509766C5.1025598 19.833723 5.46673 20.227088 5.7089844 20.558594C5.8824164 20.795924 5.9542249 21.040036 5.9824219 21.072266C5.9513644 21.271537 5.75 21.726793 5.75 22.5C5.75 22.916667 5.8837186 23.428943 6.1992188 23.849609C6.5147188 24.270276 6.9632917 24.59981 7.5527344 24.894531C8.254592 25.24546 8.2896458 25.545886 8.3945312 26.070312C8.4469743 26.332527 8.4562053 26.622853 8.6132812 27.03125C8.6918192 27.235448 8.8295932 27.493708 9.0917969 27.699219C9.3540006 27.90473 9.7083333 28 10 28C9.916667 28 10.137647 28.03485 10.394531 28.181641C10.651416 28.328432 10.962894 28.551565 11.25 28.78125C11.824212 29.240619 12.292969 29.707031 12.292969 29.707031 A 1.0001 1.0001 0 0 0 13.853516 29.519531C13.853516 29.519531 15.346804 27.240567 13.882812 25.289062C13.746455 25.107287 13.712322 25.031487 13.617188 24.890625C13.640078 24.890098 13.66384 24.891571 13.6875 24.890625C13.891264 24.882525 14.246146 24.881325 14.599609 24.550781C14.953072 24.220204 14.983331 23.833121 14.996094 23.621094C15.008854 23.409066 15 23.236167 15 23C15 22.833333 15.188127 22.129163 15.482422 21.638672C15.629569 21.393426 15.798069 21.18959 15.919922 21.083984C16.041775 20.978379 16.083333 21 16 21C16.291667 21 16.641301 20.915 16.919922 20.685547C17.198543 20.456094 17.347332 20.123041 17.392578 19.851562C17.483068 19.308605 17.329158 18.921991 17.144531 18.552734C16.959903 18.183477 16.70699 17.842319 16.369141 17.552734C16.031292 17.263149 15.583333 17 15 17C15.08333 17 15.031291 17.013154 14.931641 16.927734C14.879301 16.882874 14.834631 16.801251 14.78125 16.730469C14.927474 16.666659 15.092657 16.692119 15.220703 16.580078C15.576583 16.268688 15.75 15.784722 15.75 15.375C15.75 14.555556 15.324882 13.91082 14.707031 13.292969C14.751661 13.337599 14.699626 13.324719 14.728516 13.064453C14.757436 12.804185 14.880061 12.404207 15.044922 12.019531C15.35208 11.302829 15.739158 10.701197 15.794922 10.615234C15.892188 10.520715 16.082023 10.322283 16.269531 9.9472656C16.391655 9.7030087 16.601795 9.2797622 16.316406 8.7089844C16.173712 8.4235955 15.897317 8.2108799 15.658203 8.1152344C15.419089 8.0195889 15.208333 8 15 8 z M 22 9C22 9 21.188571 8.99845 20.234375 9.1347656C19.280179 9.2710793 18.146522 9.4394151 17.292969 10.292969C16.792969 10.792969 16.219436 11.177629 15.925781 12.058594C15.852371 12.278835 15.802509 12.576083 15.894531 12.902344C15.986551 13.228604 16.233771 13.516129 16.478516 13.671875C16.968004 13.983368 17.416667 14 18 14C18.146617 14 18.204352 14.013161 18.242188 14.021484C18.245466 14.044541 18.25 14.061657 18.25 14.125C18.25 14.483333 18 15.166667 18 16C18 16.25 17.992999 16.530464 18.042969 16.855469C18.092969 17.180474 18.200707 17.718517 18.802734 18.019531C19.404762 18.320545 19.961265 18.084761 20.365234 17.837891C20.769204 17.591021 21.177568 17.236494 21.707031 16.707031C22.765957 15.648106 23.359433 14.791848 23.677734 13.996094C23.996035 13.200339 24 12.5 24 12C24 11.5 24.033546 10.936576 23.824219 10.308594C23.719555 9.9946024 23.526333 9.6433113 23.191406 9.3828125C22.856479 9.1223137 22.416667 9 22 9 z M 13.814453 10.099609C13.619293 10.419937 13.471257 10.609385 13.205078 11.230469C12.994939 11.720793 12.805066 12.258315 12.740234 12.841797C12.675404 13.425279 12.748334 14.162403 13.292969 14.707031C13.541085 14.955148 13.537157 15.02408 13.589844 15.140625C13.413571 15.189055 13.234434 15.187335 13.080078 15.314453C12.801457 15.543906 12.652668 15.876959 12.607422 16.148438C12.516932 16.691395 12.670842 17.078009 12.855469 17.447266C13.040097 17.816523 13.29301 18.157681 13.630859 18.447266C13.968708 18.736851 14.416667 19 15 19C14.91667 19 14.968709 18.986846 15.068359 19.072266C15.131249 19.126176 15.188985 19.221582 15.25 19.308594C15.041757 19.411036 14.770914 19.433958 14.611328 19.572266C14.264431 19.87291 13.995431 20.231574 13.767578 20.611328C13.331618 21.337928 13.058751 22.1023 13.033203 22.896484C12.764283 22.896426 12.505045 22.891284 12.171875 22.996094C11.819809 23.106862 11.297112 23.547173 11.216797 24.066406C11.136477 24.585639 11.303487 24.927637 11.488281 25.283203C11.673077 25.63877 11.929806 26.019126 12.283203 26.490234C12.415563 26.66667 12.336349 26.896128 12.349609 27.113281C12.048842 26.87901 11.732013 26.64067 11.386719 26.443359C11.116128 26.288736 10.776471 26.222617 10.447266 26.142578C10.428566 26.045748 10.408549 25.945097 10.355469 25.679688C10.210352 24.954111 9.745408 23.75454 8.4472656 23.105469C8.0367083 22.90019 7.8602812 22.729724 7.8007812 22.650391C7.7412813 22.571057 7.75 22.583333 7.75 22.5C7.75 22.333333 8 21.833333 8 21C8 20.25 7.6737613 19.8599 7.3222656 19.378906C6.97077 18.897912 6.5224402 18.416277 6.0253906 17.990234C5.5283411 17.564192 4.9973952 17.192033 4.3945312 16.96875C4.0930994 16.857109 3.7648322 16.77819 3.3925781 16.802734C3.020324 16.827279 2.5947454 16.991192 2.2929688 17.292969C2.1938962 17.392041 2.1385458 17.413821 2.0585938 17.472656C2.0321327 17.339558 2 17.259147 2 17C2 16.333333 2.1272253 16.325282 2.4960938 16.177734C2.8649621 16.030187 3.5 16 4 16C4.8333333 16 5.5891802 15.574882 6.2070312 14.957031C6.8248825 14.33918 7.3647171 13.506894 7.8945312 12.447266C8.1296241 11.97708 8.2962071 11.72167 8.3730469 11.630859C8.4498869 11.540049 8.3803973 11.594559 8.4414062 11.574219C8.5634241 11.533549 9.3280083 11.45416 10.447266 10.894531C11.503098 10.366615 12.820648 10.188561 13.814453 10.099609 z M 37.679688 11C35.87032 11 34.069404 11.843245 32.423828 12.748047C31.026357 13.516431 29.90155 14.246606 29.015625 14.753906C28.813223 14.551418 28.674975 14.249243 28.431641 14.125C27.876391 13.841499 27.268581 13.798424 26.738281 13.888672C25.677683 14.069169 24.840562 14.681591 24.234375 15.300781C23.395172 16.157986 23.448247 17.293361 23.599609 18.066406C23.670249 18.42716 23.721008 18.465165 23.810547 18.707031C23.461047 18.991308 23.067834 19.268863 22.46875 19.982422C22.051176 20.479787 21.649498 21.017522 21.492188 21.740234C21.413528 22.101591 21.413538 22.541521 21.599609 22.953125C21.785686 23.364729 22.140001 23.688912 22.535156 23.890625C23.806701 24.539703 25.067739 24.261718 25.804688 23.783203C26.191437 23.532078 26.204207 23.418525 26.390625 23.191406C26.457945 23.204146 26.476015 23.191187 26.546875 23.224609C26.73209 23.311989 26.886719 23.303829 26.886719 24C26.886719 25.176672 27.536247 26.088532 28.302734 26.826172C27.614162 26.540371 27.06642 26.173465 26.173828 26.015625 A 1.0001 1.0001 0 0 0 26 26C26 26 24.775021 25.98698 23.53125 26.646484C22.287479 27.305994 21 28.80687 21 31.242188C21 32.420555 21.170671 33.279722 21.755859 33.900391C22.341048 34.52106 23.198403 34.571747 23.775391 34.484375C24.352378 34.397005 24.8345 34.223397 25.146484 34.162109C25.239854 34.143769 25.259948 34.147031 25.306641 34.144531C25.526967 34.422255 25.778497 35.060171 25.884766 35.820312C25.997107 36.623894 26 37.4695 26 38C26 38.5305 25.98737 39.511125 26.140625 40.365234C26.217255 40.792289 26.232025 41.215062 26.746094 41.685547C27.003127 41.920789 27.517044 42.080651 27.90625 41.986328C28.295456 41.892008 28.52654 41.68468 28.726562 41.472656C29.226779 40.942428 29.997093 40.129636 30.662109 39.283203C30.985116 38.872081 31.281347 38.453683 31.521484 38.029297C31.531146 38.070153 31.540192 38.112785 31.5625 38.140625C31.8125 38.452625 32.6255 37.952625 32.9375 36.140625C33.2495 34.328625 32.4995 33.077625 32.0625 34.140625C32.0625 34.140625 31.815838 34.500404 31.666016 34.941406C31.644865 34.875866 31.610986 34.781169 31.597656 34.724609C31.506806 34.339152 31.456741 34.337181 31.728516 34.048828C32.684645 33.034375 32.807848 31.407011 32.029297 29.755859C31.765994 29.197448 31.190339 28.713287 30.669922 28.216797C31.272243 28.312857 32.002459 28.225397 32.517578 27.699219C32.549578 27.666529 32.543779 27.638279 32.574219 27.605469C32.746579 28.050519 32.927195 28.499954 33.169922 28.896484C33.315679 29.134601 33.473477 29.359897 33.703125 29.568359C33.932774 29.776822 34.277376 30 34.740234 30 A 1.0001 1.0001 0 0 0 35.740234 29C35.740234 28.572154 35.794974 28.618216 35.845703 28.462891C36.00496 28.605888 35.997001 28.618191 36.189453 28.775391C36.520801 29.046045 36.888329 29.321506 37.28125 29.550781C37.674171 29.780057 38.07297 30 38.658203 30C39.243437 30 39.807555 29.613914 40.064453 29.1875C40.321351 28.761086 40.392578 28.318033 40.392578 27.875C40.392578 27.425554 40.312208 26.962068 40.142578 26.515625C40.682778 26.176967 41.110027 25.732086 41.302734 25.240234C41.544753 24.622524 41.511034 24.145385 41.523438 23.664062C42.485383 23.305839 43.262342 22.616472 43.621094 21.761719C43.961537 20.950588 43.968066 20.059428 43.681641 19.236328C43.973155 18.888565 44.359476 18.75 44.902344 18.75C45.564714 18.75 46.169922 18.947266 46.169922 18.947266 A 1.0001 1.0001 0 0 0 46.947266 18.890625C46.947266 18.890625 47.987189 18.375429 48.855469 17.636719C49.289609 17.267364 49.737137 16.869124 49.935547 16.160156C50.034747 15.805672 50.019467 15.332691 49.8125 14.945312C49.605534 14.557934 49.271349 14.295745 48.90625 14.109375C48.176082 13.73665 47.286162 13.578353 46.232422 13.431641C45.178682 13.284928 43.995492 13.190402 42.876953 13.126953C41.476698 13.047523 41.013192 13.057905 40.236328 13.046875C40.291188 12.57019 40.179198 11.926414 39.705078 11.539062C39.171995 11.103539 38.527642 11 37.679688 11 z M 21.929688 11.005859C21.966922 11.155508 22 11.530423 22 12C22 12.5 22.004 12.799661 21.822266 13.253906C21.640567 13.708152 21.234043 14.351894 20.292969 15.292969C20.184216 15.401721 20.162662 15.398598 20.068359 15.486328C20.140566 15.138079 20.25 14.772395 20.25 14.125C20.25 13.679167 20.1588 13.110188 19.734375 12.650391C19.391239 12.27866 18.858076 12.186221 18.332031 12.125C18.487599 11.937104 18.494691 11.919372 18.707031 11.707031C18.853478 11.560585 19.719821 11.228921 20.515625 11.115234C21.273716 11.006936 21.868831 11.006211 21.929688 11.005859 z M 37.679688 13C38.03094 13 37.997351 13.018798 38.109375 13.048828C38.028345 13.167335 37.943359 13.300781 37.943359 13.300781 A 1.0001 1.0001 0 0 0 38.658203 15C38.658203 15 40.593499 14.999944 42.763672 15.123047C43.848758 15.184597 44.99074 15.277572 45.957031 15.412109C46.831822 15.533907 47.483887 15.716566 47.804688 15.845703C47.728698 15.944213 47.722198 15.974089 47.558594 16.113281C47.044885 16.550332 46.465773 16.852783 46.259766 16.964844C45.944846 16.87615 45.648721 16.75 44.902344 16.75C43.850964 16.75 42.36984 17.146644 41.677734 18.560547 A 1.0001 1.0001 0 0 0 41.861328 19.699219C41.884558 19.722949 42.037421 20.363982 41.775391 20.988281C41.513366 21.612581 41.086223 22 40.617188 22 A 1.0001 1.0001 0 0 0 39.617188 23C39.617188 23.5 39.587158 24.137768 39.441406 24.509766C39.295657 24.881764 39.297393 25 38.658203 25 A 1.0001 1.0001 0 0 0 37.943359 26.699219C38.199352 26.960703 38.392021 27.509104 38.392578 27.873047C38.334268 27.848457 38.358968 27.865049 38.289062 27.824219C38.039327 27.678494 37.735855 27.453955 37.455078 27.224609C36.893525 26.765918 36.433594 26.300781 36.433594 26.300781 A 1.0001 1.0001 0 0 0 35.720703 26C35.720703 26 35.46429 26.009004 35.244141 26.083984C35.023991 26.158944 34.754568 26.306713 34.515625 26.550781C34.461285 26.606291 34.436215 26.707878 34.386719 26.771484C34.369449 26.726264 34.350714 26.699844 34.333984 26.654297C33.991397 25.72177 33.753906 24.761719 33.753906 24.761719 A 1.0001 1.0001 0 0 0 31.78125 25C31.78125 25 31.790654 25.06406 31.708984 25.314453C31.629507 25.558 31.463182 25.902397 31.111328 26.271484C31.096872 26.270356 31.060694 26.270451 30.962891 26.251953C30.751772 26.212023 30.399602 26.059437 30.066406 25.816406C29.400019 25.330346 28.886719 24.510333 28.886719 24C28.886719 22.696167 28.126675 21.75864 27.400391 21.416016C26.674106 21.073391 25.986328 21.142578 25.986328 21.142578 A 1.0001 1.0001 0 0 0 25.205078 21.625C25.205078 21.625 25.027099 21.903983 24.716797 22.105469C24.41271 22.302918 24.132262 22.441492 23.474609 22.117188C23.518119 21.975124 23.700046 21.624849 24 21.267578C24.634102 20.512309 25.556641 19.794922 25.556641 19.794922 A 1.0001 1.0001 0 0 0 25.845703 18.560547C25.845703 18.560547 25.655888 18.160548 25.5625 17.683594C25.46911 17.206639 25.522309 16.842014 25.662109 16.699219C26.034923 16.318409 26.665817 15.930831 27.074219 15.861328C27.278419 15.826578 27.405437 15.846 27.523438 15.90625C27.641437 15.9665 27.794414 16.087293 27.966797 16.439453 A 1.0001 1.0001 0 0 0 29.320312 16.890625C30.420099 16.329224 31.849545 15.347151 33.386719 14.501953C34.923892 13.656756 36.551054 13 37.679688 13 z M 16 19C15.853391 19 15.780572 19.110789 15.650391 19.142578C15.796152 19.022548 15.958333 19 16 19 z M 25.923828 28.019531C28.603926 28.522359 29.756761 29.623493 30.220703 30.607422C30.692152 31.60727 30.315354 32.631187 30.271484 32.677734C29.543259 33.450382 29.493189 34.508301 29.652344 35.183594C29.811499 35.858887 30 36.329387 30 36.544922C30 36.495452 29.96145 36.727663 29.798828 37.019531C29.636207 37.311399 29.380382 37.676545 29.087891 38.048828C28.758463 38.468124 28.421157 38.814812 28.066406 39.205078C28.042001 38.766827 28 38.317798 28 38C28 37.4695 28.0029 36.52764 27.865234 35.542969C27.727576 34.558297 27.497569 33.495002 26.726562 32.677734C26.430271 32.363666 26.014948 32.194804 25.667969 32.150391C25.320989 32.105981 25.025648 32.146989 24.759766 32.199219C24.228 32.303681 23.772622 32.462685 23.474609 32.507812C23.176597 32.552943 23.221452 32.536424 23.212891 32.527344C23.204329 32.518263 23 32.184818 23 31.242188C23 29.435505 23.712521 28.815054 24.46875 28.414062C25.187493 28.03295 25.85263 28.021609 25.923828 28.019531 z M 14.425781 29.833984C14.222557 29.826334 13.996947 29.844513 13.757812 29.904297C13.279545 30.023864 12.752986 30.383935 12.443359 30.925781C12.133733 31.467628 12 32.138889 12 33C12 34.611111 12.247292 35.548671 12.667969 36.179688C12.736809 36.282941 12.82798 36.314715 12.90625 36.398438C12.82845 36.792311 12.710891 37.371347 12.515625 38.445312C12.389671 39.138061 12.264063 39.863671 12.167969 40.488281C12.071875 41.112891 12 41.583333 12 42C12 42.833333 12.311873 43.629163 12.767578 44.388672C12.995431 44.768426 13.264431 45.12709 13.611328 45.427734C13.958225 45.728379 14.416667 46 15 46C15.208333 46 15.427339 45.98399 15.681641 45.875C15.935942 45.766014 16.218748 45.509771 16.341797 45.222656C16.587895 44.648426 16.407799 44.309339 16.324219 44.058594C16.157057 43.557103 16 43.166667 16 43C16 42 15.94273 41.471329 16.707031 40.707031C17.442734 39.971329 18.12068 38.744968 18.769531 37.447266C19.093957 36.798414 19.385812 36.150658 19.605469 35.576172C19.825125 35.001685 20 34.583333 20 34C20 33.083333 19.479243 32.747707 19.033203 32.357422C18.587163 31.967137 18.054705 31.605724 17.529297 31.277344C16.47848 30.620584 15.447266 30.105469 15.447266 30.105469C15.447266 30.105469 15.035453 29.856936 14.425781 29.833984 z M 41 30C41 30 39 31 40 32C41 33 43 31 44 32C45 33 45 34 46 34C47 34 45 31 44 31C43 31 41 30 41 30 z M 14.242188 31.845703C14.285647 31.834843 14.552734 31.894531 14.552734 31.894531C14.552734 31.894531 15.52152 32.379416 16.470703 32.972656C16.945295 33.269276 17.412837 33.595363 17.716797 33.861328C17.856028 33.983156 17.914931 34.098754 17.951172 34.160156C17.927292 34.241576 17.890172 34.464082 17.738281 34.861328C17.551688 35.349342 17.281043 35.951586 16.980469 36.552734C16.37932 37.755032 15.557266 39.028671 15.292969 39.292969C14.327906 40.258032 14.14165 41.310803 14.080078 42.226562C14.070037 42.172571 14 42.02773 14 42C14 41.91667 14.05312 41.387109 14.144531 40.792969C14.235941 40.198829 14.360329 39.486939 14.484375 38.804688C14.732467 37.440182 14.980469 36.195312 14.980469 36.195312 A 1.0001 1.0001 0 0 0 14.330078 35.056641C14.249027 34.932621 14 34.379742 14 33C14 32.361111 14.116267 32.032372 14.181641 31.917969C14.247011 31.803565 14.220447 31.851143 14.242188 31.845703 z M 43.314453 34.630859C42.743592 34.648769 42.142177 34.810747 41.552734 35.105469C40.456196 35.653738 39.510073 36.33045 38.859375 37.162109C38.208677 37.993769 37.852009 39.160016 38.345703 40.195312C38.643799 40.819738 39.204982 41.299985 39.791016 41.445312C40.377049 41.590641 40.886892 41.478112 41.310547 41.357422C41.734202 41.236734 42.098315 41.088372 42.367188 41.003906C42.545302 40.947949 42.662385 40.942756 42.693359 40.935547C42.67721 40.936602 42.826576 41.014084 43.033203 41.226562C43.25392 41.453525 43.507911 41.767547 43.828125 42.070312C44.148339 42.37308 44.597965 42.780684 45.337891 42.720703C46.05726 42.662383 46.539803 42.110247 46.859375 41.494141C47.66319 40.150549 47.386629 38.638669 46.910156 37.587891 A 1.0001 1.0001 0 0 0 46.894531 37.552734C46.364723 36.493109 45.816316 35.574165 44.888672 35.017578C44.42485 34.739285 43.885314 34.61295 43.314453 34.630859 z M 43.341797 36.587891C43.552379 36.574506 43.700151 36.635715 43.861328 36.732422C44.179642 36.92341 44.626008 37.506106 45.089844 38.425781C45.356064 39.023084 45.446937 39.985944 45.146484 40.478516 A 1.0001 1.0001 0 0 0 45.119141 40.527344C44.945225 40.351144 44.735014 40.107837 44.466797 39.832031C44.163982 39.520649 43.814069 39.157716 43.205078 38.988281C42.606239 38.821799 42.155503 38.974451 41.769531 39.095703C41.383559 39.216956 41.037938 39.354906 40.761719 39.433594C40.485499 39.512284 40.304497 39.511616 40.273438 39.503906C40.242378 39.496206 40.260748 39.561056 40.152344 39.333984C40.038038 39.094281 40.056794 38.876122 40.433594 38.394531C40.810395 37.91294 41.543804 37.346262 42.447266 36.894531C42.857823 36.689253 43.131215 36.601275 43.341797 36.587891 z" />
</svg>