<?xml version="1.0" encoding="utf-8"?>
<svg xmlns="http://www.w3.org/2000/svg" viewBox="0 0 50 50" width="515" height="515">
  <path d="M35 2C31.930427 2 29.275803 3.7156188 27.933594 6.2421875C26.956732 6.0923617 25.978685 6 25 6C13.454545 6 4 15.454545 4 27C4 38.545455 13.454545 48 25 48C36.545455 48 46 38.545455 46 27C46 22.387879 44.525095 18.172199 42.007812 14.710938L41.90625 14.785156C42.558471 13.220697 43 11.593238 43 10C43 5.5700855 39.429915 2 35 2 z M 35 4C38.370085 4 41 6.6299145 41 10C41 12.497701 39.369798 15.793034 37.666016 18.373047C36.35673 20.35568 35.584372 21.178283 35.048828 21.796875C34.344929 20.918744 33.228864 19.54483 31.925781 17.4375C30.364553 14.912701 29 11.93156 29 10C29 6.6299145 31.629915 4 35 4 z M 35 6C33.75 6 32.685226 6.5047556 32.001953 7.2734375C31.318681 8.0421194 31 9.0277779 31 10C31 10.972222 31.318681 11.957881 32.001953 12.726562C32.685226 13.495245 33.75 14 35 14C36.25 14 37.314774 13.495244 37.998047 12.726562C38.681319 11.957882 39 10.972222 39 10C39 9.0277779 38.681319 8.0421194 37.998047 7.2734375C37.314774 6.5047556 36.25 6 35 6 z M 35 8C35.749999 8 36.185226 8.2452444 36.501953 8.6015625C36.81868 8.9578806 37 9.4722221 37 10C37 10.527778 36.81868 11.042119 36.501953 11.398438C36.185226 11.754755 35.749999 12 35 12C34.250001 12 33.814774 11.754756 33.498047 11.398438C33.18132 11.042118 33 10.527778 33 10C33 9.4722221 33.18132 8.9578806 33.498047 8.6015625C33.814774 8.2452444 34.250001 8 35 8 z M 24 8.2109375L24 16L17.929688 16C18.242638 15.119693 18.45526 14.075808 18.832031 13.322266C20.293489 10.39935 22.13036 8.6872547 24 8.2109375 z M 26 8.3417969C26.372819 8.4357637 26.740312 8.4995001 27.123047 8.6367188C27.047207 9.080489 27 9.5340508 27 10C27 11.935739 27.781972 14.016095 28.808594 16L26 16L26 8.3417969 z M 19.427734 8.8417969C18.532123 9.8397841 17.730334 11.053004 17.042969 12.427734C16.527964 13.457744 16.229764 14.792256 15.833984 16L9.5507812 16C11.951464 12.643014 15.403019 10.084823 19.427734 8.8417969 z M 8.28125 18L15.15625 18C14.542431 20.461278 14.174461 23.131005 14.101562 26L6.0507812 26C6.2026787 23.122312 6.9785678 20.404052 8.28125 18 z M 17.255859 18L24 18L24 26L16.101562 26C16.181362 23.079461 16.604155 20.426081 17.255859 18 z M 26 18L29.941406 18C30.037999 18.160136 30.127323 18.330951 30.224609 18.488281C31.717794 20.90304 33.165888 22.72861 33.826172 23.535156C33.880236 24.354475 33.921924 25.182707 33.949219 26L26 26L26 18 z M 40.242188 18L41.714844 18C43.022849 20.399996 43.811876 23.094836 43.960938 26L35.949219 26C35.928029 25.338798 35.886746 24.691694 35.851562 24.039062C36.017499 23.854953 37.627253 22.061043 39.333984 19.476562C39.640442 19.012499 39.941098 18.502411 40.242188 18 z M 6.0507812 28L14.101562 28C14.174463 30.868995 14.542431 33.538722 15.15625 36L8.28125 36C6.9785678 33.595948 6.2026787 30.877688 6.0507812 28 z M 16.101562 28L24 28L24 36L17.255859 36C16.604155 33.573919 16.181362 30.920539 16.101562 28 z M 26 28L33.898438 28C33.818638 30.920539 33.395845 33.573919 32.744141 36L26 36L26 28 z M 35.898438 28L43.949219 28C43.797321 30.877688 43.021432 33.595948 41.71875 36L34.84375 36C35.457569 33.538722 35.825539 30.868995 35.898438 28 z M 9.5507812 38L15.833984 38C16.229764 39.207744 16.527964 40.542256 17.042969 41.572266C17.730334 42.946996 18.532123 44.160216 19.427734 45.158203C15.403019 43.915177 11.951464 41.356986 9.5507812 38 z M 17.929688 38L24 38L24 45.789062C22.13036 45.312745 20.293489 43.60065 18.832031 40.677734C18.45526 39.924192 18.242638 38.880307 17.929688 38 z M 26 38L32.070312 38C31.757362 38.880307 31.54474 39.924192 31.167969 40.677734C29.706511 43.60065 27.86964 45.312745 26 45.789062L26 38 z M 34.166016 38L40.449219 38C38.048536 41.356986 34.596981 43.915177 30.572266 45.158203C31.467877 44.160216 32.269666 42.946996 32.957031 41.572266C33.472036 40.542256 33.770236 39.207744 34.166016 38 z" />
</svg>