<?xml version="1.0" encoding="utf-8"?>
<svg xmlns="http://www.w3.org/2000/svg" viewBox="0 0 50 50" width="515" height="515">
  <path d="M40 9L10 9C6.132813 9 3 12.132813 3 16L3 34C3 37.867188 6.132813 41 10 41L40 41C43.867188 41 47 37.867188 47 34L47 16C47 12.132813 43.867188 9 40 9 Z M 26.25 33.164063L24.113281 33.164063L24.113281 33L23.863281 33L23.863281 21.941406L19.753906 21.941406L19.753906 19.910156L19.992188 19.898438C22.359375 19.816406 23.902344 19.320313 24.296875 17.109375L24.335938 16.902344L26.25 16.902344Z" />
</svg>