<?xml version="1.0" encoding="utf-8"?>
<svg xmlns="http://www.w3.org/2000/svg" viewBox="0 0 50 50" width="515" height="515">
  <path d="M24.875 3.03125C20.175781 3.136719 17.183594 5.140625 15.894531 8.132813C14.664063 10.992188 14.914063 14.5625 15.785156 18.246094C15.324219 18.792969 14.9375 19.535156 15.035156 20.683594L15.035156 20.707031L15.042969 20.734375C15.207031 21.953125 15.546875 22.820313 16.011719 23.433594C16.242188 23.734375 16.574219 23.746094 16.863281 23.910156C17.03125 24.984375 17.34375 26.054688 17.78125 26.933594C18.03125 27.433594 18.300781 27.878906 18.574219 28.25C18.695313 28.421875 18.867188 28.53125 19 28.671875L19 32.253906C18.871094 32.589844 18.675781 32.890625 18.371094 33.1875C18.21875 33.332031 18.054688 33.472656 17.867188 33.609375L20.992188 37.414063L23.222656 34.640625L23.230469 34.644531L24.5 33.074219L21.085938 31.042969C21.058594 31.027344 21.027344 31.023438 21 31.011719L21 27.71875L20.496094 27.433594C20.574219 27.476563 20.371094 27.328125 20.1875 27.070313C20 26.8125 19.777344 26.453125 19.574219 26.042969C19.160156 25.214844 18.808594 24.175781 18.726563 23.304688L18.640625 22.402344L17.730469 22.402344C17.878906 22.402344 17.78125 22.457031 17.597656 22.21875C17.417969 21.980469 17.167969 21.441406 17.03125 20.5C16.980469 19.6875 17.46875 19.277344 17.386719 19.332031L17.972656 18.9375L17.800781 18.253906C16.878906 14.617188 16.738281 11.238281 17.734375 8.921875C18.730469 6.609375 20.722656 5.128906 24.910156 5.03125C26.921875 5.035156 28.21875 5.617188 28.636719 6.335938L28.878906 6.753906L29.359375 6.820313C30.730469 7.011719 31.53125 7.570313 32.113281 8.382813C32.699219 9.191406 33.03125 10.3125 33.152344 11.546875C33.390625 14.023438 32.75 16.917969 32.304688 18.164063L32.003906 19L32.796875 19.394531C32.664063 19.328125 33.125 19.625 33.046875 20.515625C32.960938 21.484375 32.71875 21.996094 32.550781 22.21875C32.382813 22.4375 32.3125 22.402344 32.34375 22.402344L31.480469 22.402344L31.355469 23.257813C31.226563 24.152344 30.851563 25.207031 30.429688 26.035156C30.21875 26.453125 30 26.8125 29.8125 27.070313C29.625 27.328125 29.425781 27.476563 29.503906 27.433594L29 27.71875L29 31.078125L25.546875 33.132813L26.816406 34.703125L26.824219 34.699219L29.007813 37.410156L32.121094 33.621094C31.9375 33.492188 31.777344 33.359375 31.625 33.222656C31.332031 32.957031 31.167969 32.65625 31 32.246094L31 28.671875C31.128906 28.53125 31.304688 28.421875 31.425781 28.25C31.699219 27.878906 31.964844 27.4375 32.214844 26.9375C32.660156 26.0625 33 24.996094 33.203125 23.9375C33.527344 23.773438 33.890625 23.757813 34.140625 23.433594C34.621094 22.800781 34.929688 21.917969 35.042969 20.691406L35.042969 20.683594C35.132813 19.621094 34.804688 18.859375 34.324219 18.28125C34.84375 16.644531 35.402344 14.039063 35.140625 11.359375C35 9.890625 34.609375 8.421875 33.734375 7.210938C32.941406 6.105469 31.664063 5.324219 30.066406 4.988281C29.007813 3.589844 27.09375 3.03125 24.902344 3.03125 Z M 33.921875 34.578125L29.773438 39.636719C29.582031 39.867188 29.300781 40 29 40L28.996094 40C28.691406 39.996094 28.410156 39.859375 28.21875 39.625L26.257813 37.1875L25.5 37.800781C25.5 37.800781 27.902344 41.800781 27.902344 45.597656L27.902344 46L45.058594 46L45 44.945313C44.664063 38.855469 39.796875 36.929688 35.886719 35.386719C35.191406 35.113281 34.53125 34.847656 33.921875 34.578125 Z M 16.078125 34.582031C15.464844 34.855469 14.796875 35.125 14.09375 35.40625C10.195313 36.949219 5.339844 38.875 5.003906 44.945313L4.945313 46L22.097656 46L22.097656 45.597656C22.097656 41.902344 24.5 37.800781 24.5 37.800781L23.746094 37.1875L21.78125 39.625C21.589844 39.859375 21.308594 39.996094 21.003906 40L21 40C20.703125 40 20.417969 39.867188 20.230469 39.636719Z" />
</svg>