<?xml version="1.0" encoding="utf-8"?>
<svg xmlns="http://www.w3.org/2000/svg" viewBox="0 0 50 50" width="515" height="515">
  <path d="M24.875 3.300781C20.183594 3.40625 17.210938 5.328125 15.933594 8.265625C14.714844 11.066406 14.980469 14.578125 15.855469 18.25C15.394531 18.796875 15.007813 19.535156 15.105469 20.683594L15.105469 20.707031L15.109375 20.734375C15.277344 21.953125 15.613281 22.820313 16.078125 23.433594C16.3125 23.734375 16.644531 23.746094 16.933594 23.910156C17.101563 24.988281 17.425781 26.058594 17.871094 26.9375C18.125 27.441406 18.394531 27.882813 18.671875 28.253906C18.792969 28.421875 18.960938 28.527344 19.09375 28.667969C19.105469 29.945313 19.160156 30.945313 19.011719 32.234375C18.71875 33.011719 17.976563 33.648438 16.757813 34.265625C15.503906 34.898438 13.859375 35.460938 12.191406 36.183594C10.523438 36.902344 8.820313 37.789063 7.460938 39.167969C6.101563 40.546875 5.140625 42.453125 5 44.945313L4.945313 46L45.058594 46L45 44.945313C44.859375 42.453125 43.90625 40.550781 42.554688 39.171875C41.203125 37.789063 39.503906 36.902344 37.832031 36.183594C36.164063 35.460938 34.511719 34.898438 33.238281 34.261719C32.007813 33.648438 31.230469 33.003906 30.890625 32.222656C30.816406 30.910156 30.808594 29.890625 30.808594 28.65625C30.933594 28.515625 31.105469 28.410156 31.222656 28.246094C31.492188 27.871094 31.75 27.425781 31.996094 26.929688C32.429688 26.050781 32.761719 24.988281 32.964844 23.933594C33.285156 23.769531 33.644531 23.757813 33.894531 23.433594C34.375 22.800781 34.683594 21.917969 34.796875 20.691406L34.796875 20.683594C34.886719 19.625 34.558594 18.867188 34.082031 18.289063C34.605469 16.6875 35.21875 14.136719 35.019531 11.511719C34.914063 10.074219 34.554688 8.632813 33.703125 7.441406C32.921875 6.355469 31.65625 5.585938 30.066406 5.253906C29.003906 3.859375 27.09375 3.300781 24.902344 3.300781 Z M 24.902344 5.300781C26.917969 5.300781 28.21875 5.886719 28.636719 6.601563L28.878906 7.023438L29.359375 7.089844C30.734375 7.28125 31.515625 7.828125 32.074219 8.605469C32.632813 9.382813 32.9375 10.464844 33.027344 11.664063C33.210938 14.066406 32.515625 16.882813 32.058594 18.164063L31.761719 19L32.550781 19.394531C32.417969 19.328125 32.878906 19.625 32.800781 20.515625C32.714844 21.484375 32.472656 21.996094 32.304688 22.21875C32.136719 22.4375 32.066406 22.402344 32.097656 22.402344L31.234375 22.402344L31.109375 23.257813C30.980469 24.160156 30.613281 25.214844 30.203125 26.046875C30 26.460938 29.78125 26.824219 29.597656 27.078125C29.417969 27.332031 29.222656 27.480469 29.304688 27.433594L28.800781 27.71875L28.800781 28.300781C28.800781 29.304688 28.8125 30.1875 28.84375 31.121094L25 33.253906L21.109375 31.09375C21.140625 30.128906 21.097656 29.273438 21.097656 28.300781L21.097656 27.71875L20.59375 27.433594C20.671875 27.472656 20.46875 27.320313 20.277344 27.0625C20.085938 26.808594 19.863281 26.449219 19.65625 26.035156C19.238281 25.210938 18.878906 24.171875 18.796875 23.304688L18.707031 22.402344L17.800781 22.402344C17.949219 22.402344 17.851563 22.457031 17.671875 22.21875C17.488281 21.980469 17.238281 21.441406 17.101563 20.496094C17.054688 19.6875 17.539063 19.277344 17.453125 19.332031L18.042969 18.9375L17.871094 18.253906C16.945313 14.609375 16.792969 11.300781 17.765625 9.0625C18.738281 6.824219 20.710938 5.398438 24.902344 5.300781 Z M 20.785156 33.203125L23.269531 34.582031L20.988281 37.417969L19.128906 35.160156C19.835938 34.640625 20.421875 34.007813 20.785156 33.203125 Z M 29.144531 33.238281C29.539063 34.035156 30.15625 34.644531 30.875 35.15625L29.011719 37.417969L26.730469 34.582031 Z M 17.375 36.179688L20.230469 39.636719C20.417969 39.867188 20.707031 40.003906 21.007813 40C21.308594 40 21.589844 39.859375 21.78125 39.625L23.742188 37.1875L24.5 37.800781C24.5 37.800781 22.746094 40.8125 22.242188 44L7.234375 44C7.511719 42.574219 8.039063 41.433594 8.886719 40.570313C9.949219 39.488281 11.414063 38.695313 12.984375 38.015625C14.457031 37.382813 15.996094 36.84375 17.375 36.179688 Z M 32.625 36.179688C34.015625 36.84375 35.570313 37.382813 37.042969 38.015625C38.609375 38.695313 40.066406 39.488281 41.125 40.566406C41.96875 41.429688 42.492188 42.574219 42.765625 44L27.765625 44C27.265625 40.757813 25.5 37.800781 25.5 37.800781L26.257813 37.1875L28.21875 39.625C28.410156 39.859375 28.691406 40 28.992188 40C29.292969 40.003906 29.582031 39.867188 29.769531 39.636719Z" />
</svg>