<?xml version="1.0" encoding="utf-8"?>
<svg xmlns="http://www.w3.org/2000/svg" viewBox="0 0 50 50" width="515" height="515">
  <path d="M25 6C23.354545 6 22 7.3545455 22 9L22 10.361328C20.048757 10.835209 18.349871 11.766141 17.037109 13.097656C15.087949 15.074661 14 17.877387 14 21.099609L14 28.900391C14 30.765789 12.996888 33.060138 11.949219 34.775391C11.948506 34.776591 11.948066 34.778097 11.947266 34.779297L10.167969 37.445312 A 1.0001 1.0001 0 0 0 11 39L20 39C20 41.745455 22.254545 44 25 44C27.745455 44 30 41.745455 30 39L39 39 A 1.0001 1.0001 0 0 0 39.832031 37.445312L38.052734 34.779297L38.050781 34.775391C36.994605 33.046261 36 30.865382 36 29L36 21.199219C36 17.976997 34.913118 15.154274 32.966797 13.152344C31.655004 11.803071 29.954869 10.851334 28 10.367188L28 9C28 7.3545455 26.645455 6 25 6 z M 25 8C25.554545 8 26 8.4454545 26 9L26 10.044922C25.671035 10.019939 25.339245 10 25 10C24.660783 10 24.328999 10.020474 24 10.044922L24 9C24 8.4454545 24.445455 8 25 8 z M 46.556641 9.4863281L44.841797 10.513672C46.851004 13.86235 48 17.781818 48 22C48 26.218182 46.851004 30.13765 44.841797 33.486328L46.556641 34.513672C48.747434 30.86235 50 26.581818 50 22C50 17.418182 48.747434 13.13765 46.556641 9.4863281 z M 3.4355469 9.4960938C1.2607059 13.224393 -2.9605947e-16 17.322222 0 22C0 26.692593 1.3553862 30.96822 3.4375 34.507812L5.1621094 33.492188C3.2442232 30.231781 2 26.307407 2 22C2 17.677778 3.1389034 13.975607 5.1640625 10.503906L3.4355469 9.4960938 z M 25 12C27.766667 12 29.979524 12.948805 31.533203 14.546875C33.086882 16.144945 34 18.421441 34 21.199219L34 29C34 31.533333 35.20469 33.951958 36.347656 35.822266 A 1.0001 1.0001 0 0 0 36.367188 35.855469L37.130859 37L12.869141 37L13.632812 35.855469 A 1.0001 1.0001 0 0 0 13.652344 35.822266C14.803905 33.937893 16 31.433724 16 28.900391L16 21.099609C16 18.321832 16.912051 16.074948 18.462891 14.501953C20.013731 12.928958 22.227778 12 25 12 z M 7.859375 12.160156C5.9656697 15.10592 5 18.328571 5 22C5 25.709524 6.162931 29.08654 7.8476562 31.824219L9.5507812 30.775391C8.0355067 28.313069 7 25.290476 7 22C7 18.671429 7.8347209 15.894471 9.5410156 13.240234L7.859375 12.160156 z M 42.140625 12.160156L40.458984 13.240234C42.159423 15.88536 43 18.776471 43 22C43 25.184314 41.965269 28.216202 40.439453 30.791016L42.160156 31.810547C43.834341 28.985361 45 25.615686 45 22C45 18.423529 44.040187 15.11503 42.140625 12.160156 z M 22 39L28 39C28 40.654545 26.654545 42 25 42C23.345455 42 22 40.654545 22 39 z" />
</svg>