<?xml version="1.0" encoding="utf-8"?>
<svg xmlns="http://www.w3.org/2000/svg" viewBox="0 0 50 50" width="515" height="515">
  <path d="M25 6C23.355469 6 22 7.355469 22 9L22 10.363281C17.171875 11.550781 14 15.613281 14 21.0625L14 28.863281C14 31.035156 12.71875 33.496094 11.980469 34.726563L10.167969 37.445313C9.964844 37.75 9.941406 38.148438 10.117188 38.472656C10.292969 38.796875 10.632813 39 11 39L39 39C39.367188 39 39.707031 38.796875 39.882813 38.472656C40.058594 38.148438 40.035156 37.753906 39.832031 37.445313L38.046875 34.765625C36.667969 32.472656 36 30.585938 36 29L36 21.199219C36 15.683594 32.828125 11.570313 28 10.371094L28 9C28 7.355469 26.644531 6 25 6 Z M 25 8C25.554688 8 26 8.445313 26 9L26 10.046875C25.671875 10.019531 25.339844 10 25 10C24.660156 10 24.328125 10.019531 24 10.046875L24 9C24 8.445313 24.445313 8 25 8 Z M 3.480469 9.476563C1.25 13.101563 0 17.417969 0 22C0 26.582031 1.25 30.898438 3.480469 34.523438L5.1875 33.476563C3.152344 30.167969 2 26.21875 2 22C2 17.78125 3.152344 13.832031 5.1875 10.523438 Z M 46.519531 9.476563L44.8125 10.523438C46.847656 13.832031 48 17.78125 48 22C48 26.21875 46.847656 30.167969 44.8125 33.476563L46.519531 34.523438C48.75 30.898438 50 26.582031 50 22C50 17.417969 48.75 13.101563 46.519531 9.476563 Z M 7.816406 12.140625C5.996094 15.082031 5 18.355469 5 22C5 25.671875 6.128906 29.046875 7.808594 31.847656L9.523438 30.816406C8.007813 28.285156 7 25.261719 7 22C7 18.710938 7.871094 15.851563 9.515625 13.191406 Z M 42.183594 12.140625L40.484375 13.191406C42.128906 15.851563 43 18.710938 43 22C43 25.261719 41.992188 28.285156 40.472656 30.816406L42.191406 31.847656C43.871094 29.046875 45 25.671875 45 22C45 18.355469 44.003906 15.082031 42.183594 12.140625 Z M 20.421875 41C21.199219 42.761719 22.953125 44 25 44C27.046875 44 28.800781 42.761719 29.578125 41Z" />
</svg>