<?xml version="1.0" encoding="utf-8"?>
<svg xmlns="http://www.w3.org/2000/svg" viewBox="0 0 50 50" width="515" height="515">
  <path d="M16.375 -0.03125C16.332031 -0.0234375 16.289063 -0.0117188 16.25 0C15.921875 0.0742188 15.652344 0.304688 15.53125 0.621094C15.410156 0.9375 15.457031 1.289063 15.65625 1.5625L17.78125 4.75C14.183594 6.640625 11.601563 9.902344 11 13.78125C11 13.792969 11 13.800781 11 13.8125C11 13.824219 11 13.832031 11 13.84375C11 13.875 11 13.90625 11 13.9375C11 13.957031 11 13.980469 11 14C10.996094 14.050781 10.996094 14.105469 11 14.15625L11 15.5625C10.40625 15.214844 9.734375 15 9 15C6.800781 15 5 16.800781 5 19L5 31C5 33.199219 6.800781 35 9 35C9.734375 35 10.40625 34.785156 11 34.4375L11 37C11 38.644531 12.355469 40 14 40L15 40L15 46C15 48.199219 16.800781 50 19 50C21.199219 50 23 48.199219 23 46L23 40L27 40L27 46C27 48.199219 28.800781 50 31 50C33.199219 50 35 48.199219 35 46L35 40L36 40C37.644531 40 39 38.644531 39 37L39 34.4375C39.59375 34.785156 40.265625 35 41 35C43.199219 35 45 33.199219 45 31L45 19C45 16.800781 43.199219 15 41 15C40.265625 15 39.59375 15.214844 39 15.5625L39 14.1875C39.011719 14.09375 39.011719 14 39 13.90625C39 13.894531 39 13.886719 39 13.875C39 13.863281 39 13.855469 39 13.84375C38.417969 9.9375 35.835938 6.648438 32.21875 4.75L34.34375 1.5625C34.589844 1.226563 34.597656 0.773438 34.367188 0.425781C34.140625 0.078125 33.71875 -0.09375 33.3125 0C33.054688 0.0585938 32.828125 0.214844 32.6875 0.4375L30.34375 3.90625C28.695313 3.3125 26.882813 3 25 3C23.117188 3 21.304688 3.3125 19.65625 3.90625L17.3125 0.4375C17.113281 0.117188 16.75 -0.0625 16.375 -0.03125 Z M 25 5C26.878906 5 28.640625 5.367188 30.1875 6.03125C30.21875 6.042969 30.25 6.054688 30.28125 6.0625C33.410156 7.433594 35.6875 10 36.5625 13L13.4375 13C14.300781 10.042969 16.53125 7.507813 19.59375 6.125C19.660156 6.101563 19.722656 6.070313 19.78125 6.03125C21.335938 5.359375 23.109375 5 25 5 Z M 19.5 8C18.667969 8 18 8.671875 18 9.5C18 10.332031 18.667969 11 19.5 11C20.328125 11 21 10.332031 21 9.5C21 8.671875 20.328125 8 19.5 8 Z M 30.5 8C29.671875 8 29 8.671875 29 9.5C29 10.332031 29.671875 11 30.5 11C31.332031 11 32 10.332031 32 9.5C32 8.671875 31.332031 8 30.5 8 Z M 13 15L37 15L37 37C37 37.5625 36.5625 38 36 38L28.1875 38C28.054688 37.972656 27.914063 37.972656 27.78125 38L16.1875 38C16.054688 37.972656 15.914063 37.972656 15.78125 38L14 38C13.4375 38 13 37.5625 13 37 Z M 9 17C10.117188 17 11 17.882813 11 19L11 31C11 32.117188 10.117188 33 9 33C7.882813 33 7 32.117188 7 31L7 19C7 17.882813 7.882813 17 9 17 Z M 41 17C42.117188 17 43 17.882813 43 19L43 31C43 32.117188 42.117188 33 41 33C39.882813 33 39 32.117188 39 31L39 19C39 17.882813 39.882813 17 41 17 Z M 17 40L21 40L21 46C21 47.117188 20.117188 48 19 48C17.882813 48 17 47.117188 17 46 Z M 29 40L33 40L33 46C33 47.117188 32.117188 48 31 48C29.882813 48 29 47.117188 29 46Z" />
</svg>