<?xml version="1.0" encoding="utf-8"?>
<svg xmlns="http://www.w3.org/2000/svg" width="515" height="515" viewBox="0 0 50 50">
  <path d="M20.064453 2.5234375 A 1.0001 1.0001 0 0 0 19.400391 2.7871094L15.847656 6.0429688L11.111328 6.8320312 A 1.0001 1.0001 0 0 0 10.347656 7.4472656L8.5722656 11.884766L4.6269531 14.648438 A 1.0001 1.0001 0 0 0 4.2011719 15.527344L4.4980469 20.363281L2.1308594 24.503906 A 1.0001 1.0001 0 0 0 2.1308594 25.496094L4.4980469 29.636719L4.2011719 34.472656 A 1.0001 1.0001 0 0 0 4.6269531 35.351562L8.5722656 38.115234L10.347656 42.552734 A 1.0001 1.0001 0 0 0 11.111328 43.167969L15.847656 43.957031L19.400391 47.212891 A 1.0001 1.0001 0 0 0 20.361328 47.433594L25 46.052734L29.638672 47.433594 A 1.0001 1.0001 0 0 0 30.599609 47.212891L34.152344 43.957031L38.888672 43.167969 A 1.0001 1.0001 0 0 0 39.652344 42.552734L41.427734 38.115234L45.373047 35.351562 A 1.0001 1.0001 0 0 0 45.798828 34.472656L45.501953 29.636719L47.869141 25.496094 A 1.0001 1.0001 0 0 0 47.869141 24.503906L45.501953 20.363281L45.798828 15.527344 A 1.0001 1.0001 0 0 0 45.373047 14.648438L41.427734 11.884766L39.652344 7.4472656 A 1.0001 1.0001 0 0 0 38.888672 6.8320312L34.152344 6.0429688L30.599609 2.7871094 A 1.0001 1.0001 0 0 0 29.638672 2.5664062L25 3.9472656L20.361328 2.5664062 A 1.0001 1.0001 0 0 0 20.064453 2.5234375 z M 20.333984 4.6445312L24.714844 5.9492188 A 1.0001 1.0001 0 0 0 25.285156 5.9492188L29.666016 4.6445312L33.019531 7.71875 A 1.0001 1.0001 0 0 0 33.53125 7.9667969L38.003906 8.7128906L39.681641 12.904297 A 1.0001 1.0001 0 0 0 40.037109 13.351562L43.767578 15.964844L43.488281 20.539062 A 1.0001 1.0001 0 0 0 43.617188 21.095703L45.847656 25L43.617188 28.904297 A 1.0001 1.0001 0 0 0 43.488281 29.460938L43.767578 34.035156L40.037109 36.648438 A 1.0001 1.0001 0 0 0 39.681641 37.095703L38.003906 41.287109L33.53125 42.033203 A 1.0001 1.0001 0 0 0 33.019531 42.28125L29.666016 45.355469L25.285156 44.050781 A 1.0001 1.0001 0 0 0 24.714844 44.050781L20.333984 45.355469L16.980469 42.28125 A 1.0001 1.0001 0 0 0 16.46875 42.033203L11.996094 41.287109L10.318359 37.095703 A 1.0001 1.0001 0 0 0 9.9628906 36.648438L6.2324219 34.035156L6.5117188 29.460938 A 1.0001 1.0001 0 0 0 6.3828125 28.904297L4.1523438 25L6.3828125 21.095703 A 1.0001 1.0001 0 0 0 6.5117188 20.539062L6.2324219 15.964844L9.9628906 13.351562 A 1.0001 1.0001 0 0 0 10.318359 12.904297L11.996094 8.7128906L16.46875 7.9667969 A 1.0001 1.0001 0 0 0 16.980469 7.71875L20.333984 4.6445312 z M 34.058594 14.458984L23.097656 31.46875L15.769531 24.857422L14.429688 26.341797L23.503906 34.53125L35.740234 15.541016L34.058594 14.458984 z" />
</svg>