<?xml version="1.0" encoding="utf-8"?>
<svg xmlns="http://www.w3.org/2000/svg" viewBox="0 0 50 50" width="515" height="515">
  <path d="M9 4C6.2504839 4 4 6.2504839 4 9L4 41C4 43.749516 6.2504839 46 9 46L41 46C43.749516 46 46 43.749516 46 41L46 9C46 6.2504839 43.749516 4 41 4L9 4 z M 9 6L41 6C42.668484 6 44 7.3315161 44 9L44 41C44 42.668484 42.668484 44 41 44L9 44C7.3315161 44 6 42.668484 6 41L6 9C6 7.3315161 7.3315161 6 9 6 z M 23.429688 9 A 1.0001 1.0001 0 0 0 22.449219 9.8066406L21.603516 14.107422C20.891022 14.330715 20.22708 14.608165 19.615234 14.941406L15.966797 12.548828 A 1.0001 1.0001 0 0 0 14.710938 12.679688L12.589844 14.806641 A 1.0001 1.0001 0 0 0 12.460938 16.058594L14.847656 19.716797C14.51555 20.329946 14.238789 20.995905 14.015625 21.708984L9.8183594 22.480469 A 1.0001 1.0001 0 0 0 9 23.464844L9 26.455078 A 1.0001 1.0001 0 0 0 9.8066406 27.4375L14.09375 28.283203C14.316845 28.999283 14.594012 29.667836 14.927734 30.283203L12.541016 33.941406 A 1.0001 1.0001 0 0 0 12.669922 35.193359L14.791016 37.318359 A 1.0001 1.0001 0 0 0 16.046875 37.449219L19.695312 35.056641C20.307243 35.389812 20.971128 35.669249 21.683594 35.892578L22.527344 40.191406 A 1.0001 1.0001 0 0 0 23.507812 41L26.492188 41 A 1.0001 1.0001 0 0 0 27.472656 40.193359L28.318359 35.892578C29.030853 35.669285 29.694795 35.391835 30.306641 35.058594L33.955078 37.451172 A 1.0001 1.0001 0 0 0 35.210938 37.320312L37.332031 35.193359 A 1.0001 1.0001 0 0 0 37.460938 33.941406L35.074219 30.283203C35.407549 29.667793 35.684806 28.999393 35.908203 28.283203L40.193359 27.4375 A 1.0001 1.0001 0 0 0 41 26.457031L41 23.464844 A 1.0001 1.0001 0 0 0 40 22.464844L39.947266 22.464844L35.748047 21.636719C35.525156 20.921341 35.249361 20.253506 34.916016 19.638672L37.302734 15.978516 A 1.0001 1.0001 0 0 0 37.173828 14.726562L35.052734 12.601562 A 1.0001 1.0001 0 0 0 33.794922 12.470703L30.146484 14.863281C29.536703 14.531297 28.875521 14.254329 28.166016 14.03125L27.398438 9.8203125 A 1.0001 1.0001 0 0 0 26.414062 9L23.429688 9 z M 24.251953 11L25.580078 11L26.292969 14.904297 A 1.0001 1.0001 0 0 0 27.066406 15.701172C28.012821 15.904221 28.847821 16.317085 29.755859 16.847656 A 1.0001 1.0001 0 0 0 30.808594 16.820312L34.210938 14.589844L35.185547 15.566406L32.957031 18.980469 A 1.0001 1.0001 0 0 0 32.931641 20.029297C33.460965 20.938772 33.871861 21.779586 34.074219 22.728516 A 1.0001 1.0001 0 0 0 34.859375 23.5L39 24.316406L39 25.634766L35.017578 26.421875 A 1.0001 1.0001 0 0 0 34.232422 27.193359C34.029081 28.142859 33.618442 28.982696 33.089844 29.892578 A 1.0001 1.0001 0 0 0 33.117188 30.939453L35.34375 34.355469L34.371094 35.332031L30.966797 33.101562 A 1.0001 1.0001 0 0 0 29.914062 33.074219C29.007565 33.604453 28.171146 34.015675 27.224609 34.21875 A 1.0001 1.0001 0 0 0 26.453125 35.003906L25.669922 39L24.332031 39L23.548828 35.003906 A 1.0001 1.0001 0 0 0 22.777344 34.21875C21.830929 34.015701 20.995929 33.602837 20.087891 33.072266 A 1.0001 1.0001 0 0 0 19.035156 33.099609L15.630859 35.330078L14.658203 34.353516L16.884766 30.939453 A 1.0001 1.0001 0 0 0 16.912109 29.890625C16.382788 28.981153 15.971889 28.142289 15.769531 27.193359 A 1.0001 1.0001 0 0 0 14.984375 26.419922L11 25.634766L11 24.296875L14.892578 23.582031 A 1.0001 1.0001 0 0 0 15.689453 22.806641C15.892794 21.857141 16.303433 21.017304 16.832031 20.107422 A 1.0001 1.0001 0 0 0 16.804688 19.060547L14.578125 15.644531L15.552734 14.667969L18.955078 16.898438 A 1.0001 1.0001 0 0 0 20.007812 16.925781C20.91431 16.395547 21.750729 15.984325 22.697266 15.78125 A 1.0001 1.0001 0 0 0 23.46875 14.996094L24.251953 11 z M 25 19C21.704545 19 19 21.704545 19 25C19 28.295455 21.704545 31 25 31C28.295455 31 31 28.295455 31 25C31 21.704545 28.295455 19 25 19 z M 25 21C27.204545 21 29 22.795455 29 25C29 27.204545 27.204545 29 25 29C22.795455 29 21 27.204545 21 25C21 22.795455 22.795455 21 25 21 z" />
</svg>