<?xml version="1.0" encoding="utf-8"?>
<svg xmlns="http://www.w3.org/2000/svg" viewBox="0 0 50 50" width="515" height="515">
  <path d="M24.84375 2.03125C24.40625 2.03125 23.96875 2.035156 23.53125 2.0625C19.109375 2.339844 14.707031 3.90625 10.9375 6.8125C5.296875 11.164063 2.003906 17.878906 2 25C2 25.671875 1.992188 26.375 2.09375 27.125L2.21875 28L8.1875 28L8.09375 26.90625C8.03125 26.277344 7.992188 25.632813 8 25C8.023438 15.597656 15.628906 8.039063 25.03125 8.0625C30.167969 8.074219 34.980469 10.433594 38.1875 14.40625L35.28125 17.28125L33.59375 19L47 19L47 5.59375L45.28125 7.28125L42.4375 10.15625C37.894531 4.828125 31.414063 2.003906 24.84375 2.03125 Z M 24.90625 4.03125C31.214844 4.011719 37.46875 6.800781 41.625 12.1875L42.3125 13.09375L43.125 12.28125L45 10.4375L45 17L38.4375 17L40.25 15.15625L40.875 14.5625L40.34375 13.875C36.777344 8.980469 31.117188 6.078125 25.0625 6.0625C14.582031 6.035156 6.027344 14.519531 6 25C5.996094 25.335938 6.015625 25.664063 6.03125 26L4.0625 26C4.050781 25.667969 4 25.359375 4 25C4.003906 18.496094 7.039063 12.347656 12.1875 8.375C15.636719 5.714844 19.621094 4.316406 23.65625 4.0625C24.078125 4.035156 24.484375 4.03125 24.90625 4.03125 Z M 41.78125 22L41.90625 23.125C42.953125 32.46875 36.25 40.859375 26.90625 41.90625C26.273438 41.976563 25.636719 42 25 42C19.835938 42 15.015625 39.601563 11.8125 35.59375L14.71875 32.71875L16.40625 31L3 31L3 44.40625L4.71875 42.71875L7.5625 39.84375C15.460938 49.109375 29.316406 50.703125 39.0625 43.1875C44.703125 38.835938 47.996094 32.121094 48 25C48 24.328125 48.007813 23.625 47.90625 22.875L47.78125 22 Z M 43.90625 24L45.9375 24C45.949219 24.332031 46 24.640625 46 25C45.996094 31.503906 42.960938 37.652344 37.8125 41.625C28.621094 48.714844 15.464844 47.003906 8.375 37.8125L7.6875 36.90625L6.875 37.71875L5 39.5625L5 33L11.5625 33L9.75 34.84375L9.15625 35.4375L9.625 36.125C13.183594 41.0625 18.914063 44 25 44C25.710938 44 26.417969 43.953125 27.125 43.875C37.160156 42.753906 44.425781 33.957031 43.90625 24Z" />
</svg>