<?xml version="1.0" encoding="utf-8"?>
<svg xmlns="http://www.w3.org/2000/svg" viewBox="0 0 50 50" width="515" height="515">
  <path d="M25 2C12.308594 2 2 12.308594 2 25C2 37.691406 12.308594 48 25 48C37.691406 48 48 37.691406 48 25C48 12.308594 37.691406 2 25 2 Z M 25 4C36.609375 4 46 13.390625 46 25C46 36.609375 36.609375 46 25 46C13.390625 46 4 36.609375 4 25C4 13.390625 13.390625 4 25 4 Z M 27.875 14C27.652344 14.023438 27.441406 14.125 27.28125 14.28125L17.28125 24.28125C17.085938 24.46875 16.976563 24.730469 16.976563 25C16.976563 25.269531 17.085938 25.53125 17.28125 25.71875L27.28125 35.71875C27.679688 36.117188 28.320313 36.117188 28.71875 35.71875C29.117188 35.320313 29.117188 34.679688 28.71875 34.28125L19.4375 25L28.71875 15.71875C29.042969 15.417969 29.128906 14.941406 28.933594 14.546875C28.742188 14.148438 28.308594 13.929688 27.875 14Z" />
</svg>