<?xml version="1.0" encoding="utf-8"?>
<svg xmlns="http://www.w3.org/2000/svg" viewBox="0 0 50 50" width="515" height="515">
  <path d="M25 2C19.488281 2 15 6.488281 15 12L15 14C14.996094 14.359375 15.183594 14.695313 15.496094 14.878906C15.808594 15.058594 16.191406 15.058594 16.503906 14.878906C16.816406 14.695313 17.003906 14.359375 17 14L17 12C17 7.570313 20.570313 4 25 4C29.429688 4 33 7.570313 33 12L33 14C32.996094 14.359375 33.183594 14.695313 33.496094 14.878906C33.808594 15.058594 34.191406 15.058594 34.503906 14.878906C34.816406 14.695313 35.003906 14.359375 35 14L35 12C35 6.488281 30.511719 2 25 2 Z M 16 16C14.894531 16 14 16.894531 14 18L9 18C8.96875 18 8.9375 18 8.90625 18C8.476563 18.042969 8.125 18.359375 8.03125 18.78125L5.03125 32C4.929688 32.503906 5.226563 33.003906 5.71875 33.15625C5.71875 33.15625 5.863281 33.183594 5.875 33.1875L4 45.84375C3.953125 46.136719 4.039063 46.429688 4.230469 46.652344C4.425781 46.878906 4.707031 47.003906 5 47L8 47L8 48L11 48L11 47L39 47L39 48L42 48L42 47L45 47C45.292969 47.003906 45.574219 46.878906 45.769531 46.652344C45.960938 46.429688 46.046875 46.136719 46 45.84375L44.125 33.1875C44.136719 33.183594 44.28125 33.15625 44.28125 33.15625C44.773438 33.003906 45.070313 32.503906 44.96875 32L41.96875 18.78125C41.867188 18.328125 41.464844 18.003906 41 18L36 18C36 16.894531 35.105469 16 34 16C32.894531 16 32 16.894531 32 18L18 18C18 16.894531 17.105469 16 16 16 Z M 9.78125 20L40.21875 20L42.8125 31.46875C41.550781 31.839844 34.007813 34 25 34C16.335938 34 9.167969 32.046875 7.5 31.5625C7.460938 31.539063 7.417969 31.519531 7.375 31.5C7.347656 31.492188 7.242188 31.476563 7.21875 31.46875C7.207031 31.46875 7.199219 31.46875 7.1875 31.46875 Z M 7.8125 33.71875C10.632813 34.4375 16.027344 35.636719 22.1875 35.9375C22.585938 37.125 23.679688 38 25 38C26.320313 38 27.414063 37.125 27.8125 35.9375C33.953125 35.640625 39.328125 34.441406 42.15625 33.71875L43.84375 45L6.15625 45Z" />
</svg>