<?xml version="1.0" encoding="utf-8"?>
<svg xmlns="http://www.w3.org/2000/svg" viewBox="0 0 50 50" width="515" height="515">
  <path d="M13.300781 4C10.345226 4 8 6.4933333 8 9.5L8 42C8 44.209804 9.7901961 46 12 46L41 46L41 44L12 44C10.809804 44 10 43.190196 10 42C10 40.809804 10.809804 40 12 40L41 40L41 4L13.300781 4 z M 13.300781 6L39 6L39 38L12 38C11.254943 38 10.597127 38.258805 10 38.613281L10 9.5C10 7.5066667 11.456337 6 13.300781 6 z M 16.800781 11C15.734115 11 15 11.867057 15 12.900391L15 16.099609C15 16.549609 15.133528 17.009723 15.449219 17.382812C15.76491 17.755902 16.284115 18 16.800781 18L34.199219 18C35.265885 18 36 17.132943 36 16.099609L36 12.900391C36 12.450391 35.866472 11.990277 35.550781 11.617188C35.23509 11.244097 34.715885 11 34.199219 11L16.800781 11 z M 17 13L34 13L34 16L17 16L17 13 z" />
</svg>