<?xml version="1.0" encoding="utf-8"?>
<svg xmlns="http://www.w3.org/2000/svg" viewBox="0 0 50 50" width="515" height="515">
  <path d="M6 2C3.800781 2 2 3.800781 2 6L2.015625 30.683594L2.03125 30.683594C2.023438 30.789063 2 30.890625 2 31C2 33.199219 3.800781 35 6 35L20.011719 35L20.015625 43.683594L20.0625 43.683594C20.054688 43.792969 20 43.886719 20 44C20 46.199219 21.800781 48 24 48L48 48L48 46L24 46C22.882813 46 22 45.117188 22 44C22 42.882813 22.882813 42 24 42L48 42L48 15L30 15L30 2 Z M 6 4L28 4L28 15L24 15C21.800781 15 20 16.800781 20 19L20.003906 27L6 27C5.277344 27 4.605469 27.210938 4.015625 27.550781L4 6C4 4.882813 4.882813 4 6 4 Z M 9 6C7.90625 6 7 6.90625 7 8L7 10C7 11.09375 7.90625 12 9 12L23 12C24.09375 12 25 11.09375 25 10L25 8C25 6.90625 24.09375 6 23 6 Z M 9 8L23 8L23 10L9 10 Z M 24 17L46 17L46 40L24 40C23.265625 40 22.609375 40.257813 22.015625 40.609375L22 19C22 17.882813 22.882813 17 24 17 Z M 27 19C25.90625 19 25 19.90625 25 21L25 23C25 24.09375 25.90625 25 27 25L41 25C42.09375 25 43 24.09375 43 23L43 21C43 19.90625 42.09375 19 41 19 Z M 27 21L41 21L41 23L27 23 Z M 6 29L20.007813 29L20.011719 33L6 33C4.882813 33 4 32.117188 4 31C4 29.882813 4.882813 29 6 29Z" />
</svg>