<?xml version="1.0" encoding="utf-8"?>
<svg xmlns="http://www.w3.org/2000/svg" viewBox="0 0 50 50" width="515" height="515">
  <path d="M25 2C20.390625 2 16.703125 4.566406 16.09375 8L3 8C1.347656 8 0 9.347656 0 11L0 28C0 28.550781 0.449219 29 1 29L20 29C20 27.347656 21.347656 26 23 26L27 26C28.652344 26 30 27.347656 30 29L49 29C49.550781 29 50 28.550781 50 28L50 11C50 9.347656 48.652344 8 47 8L33.90625 8C33.296875 4.566406 29.609375 2 25 2 Z M 25 4C28.449219 4 31.25 5.6875 31.875 8L18.125 8C18.75 5.6875 21.550781 4 25 4 Z M 23 28C22.449219 28 22 28.449219 22 29L22 31C22 31.550781 22.449219 32 23 32L27 32C27.550781 32 28 31.550781 28 31L28 29C28 28.449219 27.550781 28 27 28 Z M 0 30.8125L0 45C0 46.652344 1.347656 48 3 48L47 48C48.652344 48 50 46.652344 50 45L50 30.8125C49.6875 30.925781 49.351563 31 49 31L30 31C30 32.652344 28.652344 34 27 34L23 34C21.347656 34 20 32.652344 20 31L1 31C0.648438 31 0.3125 30.925781 0 30.8125Z" />
</svg>