<?xml version="1.0" encoding="utf-8"?>
<svg xmlns="http://www.w3.org/2000/svg" viewBox="0 0 50 50" width="515" height="515">
  <path d="M25.984375 1.984375C25.433594 1.996094 24.992188 2.449219 25 3C25 6.054688 23.832031 6.964844 22.339844 8.304688C20.847656 9.640625 19.015625 11.410156 19.015625 15C19.011719 15.359375 19.199219 15.695313 19.511719 15.878906C19.824219 16.058594 20.207031 16.058594 20.519531 15.878906C20.832031 15.695313 21.019531 15.359375 21.015625 15C21.015625 12.015625 22.175781 11.136719 23.675781 9.792969C25.175781 8.449219 27 6.648438 27 3C27.003906 2.730469 26.898438 2.46875 26.707031 2.277344C26.515625 2.085938 26.253906 1.980469 25.984375 1.984375 Z M 30.992188 6.984375C30.441406 6.996094 30 7.449219 30.007813 8C30.007813 9.953125 29.335938 10.417969 28.339844 11.304688C27.34375 12.191406 26 13.511719 26 16C25.996094 16.359375 26.183594 16.695313 26.496094 16.878906C26.808594 17.058594 27.191406 17.058594 27.503906 16.878906C27.816406 16.695313 28.003906 16.359375 28 16C28 14.125 28.660156 13.695313 29.667969 12.796875C30.675781 11.902344 32.007813 10.546875 32.007813 8C32.011719 7.730469 31.90625 7.46875 31.714844 7.277344C31.523438 7.085938 31.261719 6.980469 30.992188 6.984375 Z M 11 19C10.449219 19 10 19.449219 10 20L10 33C10 36.273438 11.589844 39.175781 14.027344 41L7 41C6.449219 41 6 41.449219 6 42C6 43.773438 7.019531 45.28125 8.347656 46.324219C9.675781 47.363281 11.347656 48 13 48L35 48C36.652344 48 38.324219 47.363281 39.652344 46.324219C40.980469 45.28125 42 43.773438 42 42C42 41.449219 41.550781 41 41 41L33.972656 41C36.171875 39.351563 37.679688 36.832031 37.953125 33.953125C40.15625 33.734375 41.769531 32.742188 42.699219 31.246094C43.726563 29.582031 43.972656 27.46875 43.984375 25.171875C43.988281 25.164063 43.988281 25.15625 43.988281 25.148438C43.996094 25.097656 44 25.050781 44 25C44 23.355469 42.644531 22 41 22L38 22L38 20C38 19.449219 37.550781 19 37 19 Z M 12 21L36 21L36 32.832031C35.984375 32.929688 35.980469 33.027344 35.996094 33.125C35.925781 37.496094 32.386719 41 28 41L20 41C15.570313 41 12 37.429688 12 33 Z M 38 24L41 24C41.566406 24 42 24.433594 42 25C42 27.214844 41.710938 29.042969 41 30.191406C40.402344 31.152344 39.558594 31.761719 38 31.9375 Z M 8.289063 43L39.710938 43C39.457031 43.632813 39.0625 44.242188 38.417969 44.75C37.4375 45.515625 36.109375 46 35 46L13 46C11.890625 46 10.5625 45.515625 9.582031 44.75C8.9375 44.242188 8.542969 43.632813 8.289063 43Z" />
</svg>