<?xml version="1.0" encoding="utf-8"?>
<svg xmlns="http://www.w3.org/2000/svg" viewBox="0 0 50 50" width="515" height="515">
  <path d="M11.550781 47C10.988281 47 10.246094 46.855469 9.457031 46.289063C9.394531 46.242188 3 41.5625 3 39L3.007813 38.847656C3.304688 32.796875 7.875 25.3125 16.59375 16.59375C25.308594 7.878906 32.792969 3.308594 38.84375 3.007813L38.945313 3.003906C38.972656 3.003906 39 3 39.027344 3C41.644531 3 46.242188 9.394531 46.289063 9.457031C47.472656 11.117188 47.042969 12.972656 45.96875 13.738281C45.269531 14.265625 37.878906 19.105469 36.976563 19.644531C36.007813 20.199219 34.679688 20.09375 33.496094 19.382813C32.792969 19 30.601563 17.746094 29.585938 17.160156C28.679688 17.785156 26.460938 19.464844 23.003906 22.988281C19.535156 26.453125 17.820313 28.679688 17.167969 29.59375C17.757813 30.617188 19.007813 32.804688 19.402344 33.53125C20.109375 34.824219 20.191406 36.160156 19.621094 37.015625C19.113281 37.863281 14.183594 45.347656 13.738281 45.964844C13.339844 46.527344 12.660156 46.898438 11.882813 46.980469C11.78125 46.992188 11.671875 47 11.550781 47Z" />
</svg>