<?xml version="1.0" encoding="utf-8"?>
<svg xmlns="http://www.w3.org/2000/svg" viewBox="0 0 50 50" width="515" height="515">
  <path d="M19.09375 5C18.011719 5 17.105469 5.625 16.5625 6.4375C16.5625 6.449219 16.5625 6.457031 16.5625 6.46875L14.96875 9L6 9C3.253906 9 1 11.253906 1 14L1 38C1 40.746094 3.253906 43 6 43L44 43C46.746094 43 49 40.746094 49 38L49 14C49 11.253906 46.746094 9 44 9L34.9375 9L33.34375 6.46875C33.34375 6.457031 33.34375 6.449219 33.34375 6.4375C32.800781 5.625 31.894531 5 30.8125 5 Z M 19.09375 7L30.8125 7C31.132813 7 31.398438 7.175781 31.65625 7.5625L33.5625 10.53125C33.746094 10.820313 34.0625 11 34.40625 11L44 11C45.65625 11 47 12.34375 47 14L47 38C47 39.65625 45.65625 41 44 41L6 41C4.34375 41 3 39.65625 3 38L3 14C3 12.34375 4.34375 11 6 11L15.5 11C15.84375 11 16.160156 10.820313 16.34375 10.53125L18.21875 7.5625L18.25 7.53125C18.5 7.179688 18.789063 7 19.09375 7 Z M 10 13C8.355469 13 7 14.355469 7 16C7 17.644531 8.355469 19 10 19C11.644531 19 13 17.644531 13 16C13 14.355469 11.644531 13 10 13 Z M 10 15C10.554688 15 11 15.445313 11 16C11 16.554688 10.554688 17 10 17C9.445313 17 9 16.554688 9 16C9 15.445313 9.445313 15 10 15 Z M 25 15C18.9375 15 14 19.9375 14 26C14 32.0625 18.9375 37 25 37C31.0625 37 36 32.0625 36 26C36 19.9375 31.0625 15 25 15 Z M 25 17C29.980469 17 34 21.019531 34 26C34 30.980469 29.980469 35 25 35C20.019531 35 16 30.980469 16 26C16 21.019531 20.019531 17 25 17Z" />
</svg>