<?xml version="1.0" encoding="utf-8"?>
<svg xmlns="http://www.w3.org/2000/svg" viewBox="0 0 50 50" width="515" height="515">
  <path d="M25 7.9003906C21.452381 7.9003906 19.119419 8.1533402 17.648438 8.4160156C16.177454 8.6786911 15.470703 8.9980469 15.470703 8.9980469C14.081677 9.4881989 11.754914 10.167935 10.710938 12.242188C10.434805 12.757892 10.057331 13.721139 9.5 15.130859C9.0574804 16.250174 8.5231366 17.641043 8.0019531 19L5.0996094 19C3.6073017 19 2.490237 19.469995 1.8242188 20.228516C1.1582005 20.987036 1 21.898094 1 22.599609C1 23.366276 1.4178858 24.142257 2.0351562 24.525391C2.6524268 24.908524 3.3470453 25 4.0996094 25L5.7246094 25C5.5782572 25.389697 5.0625 26.75 5.0625 26.75L5 26.919922L5 35.099609C5 36.410344 5.8720467 37.461635 7 37.839844L7 39C7 40.645455 8.3545455 42 10 42L14 42C15.645455 42 17 40.645455 17 39L17 38L33 38L33 39C33 40.645455 34.354545 42 36 42L40 42C41.645455 42 43 40.645455 43 39L43 37.841797C44.157382 37.460732 45 36.383382 45 35.099609L45 26.916016L44.933594 26.744141C44.933594 26.744141 44.417694 25.39404 44.267578 25L45.900391 25C46.627314 25 47.306018 24.94979 47.943359 24.576172C48.580701 24.202558 49 23.392034 49 22.599609C49 21.898094 48.841799 20.987036 48.175781 20.228516C47.509763 19.469995 46.392698 19 44.900391 19L41.964844 19C40.863583 16.136101 39.68507 13.074551 39.322266 12.212891L39.308594 12.181641L39.294922 12.152344C38.21914 10.000783 35.704864 9.3465387 34.394531 8.9433594L34.529297 8.9980469C34.529297 8.9980469 33.822545 8.6786911 32.351562 8.4160156C30.88058 8.1533407 28.547619 7.9003906 25 7.9003906 z M 25 9.9003906C28.452381 9.9003906 30.670983 10.147441 32 10.384766C33.329017 10.62209 33.669922 10.802734 33.669922 10.802734L33.736328 10.833984L33.806641 10.855469C35.093255 11.25135 36.96865 11.996489 37.498047 13.041016C37.810959 13.787694 38.926062 16.676582 39.966797 19.378906L39.888672 19.414062C40.151898 19.993161 40.567368 21.076497 40.433594 21.703125C40.366706 22.016439 40.259689 22.23953 39.792969 22.5C39.326248 22.76047 38.445161 23 37 23L12.900391 23C11.481948 23 10.622921 22.761411 10.169922 22.503906C9.7169228 22.246401 9.6093986 22.023445 9.5410156 21.703125C9.4042497 21.062484 9.7949939 20.012987 10.039062 19.341797L10.017578 19.333984C10.483676 18.119928 10.964636 16.863694 11.359375 15.865234C11.914567 14.460925 12.406958 13.310348 12.480469 13.173828L12.488281 13.160156L12.494141 13.146484C13.033266 12.068234 14.816442 11.348899 16.236328 10.841797L16.283203 10.824219L16.330078 10.802734C16.330078 10.802734 16.670983 10.62209 18 10.384766C19.329017 10.147441 21.547619 9.9003906 25 9.9003906 z M 5.0996094 21L7.2363281 21C6.8597399 21.990983 6.7824407 22.199768 6.4804688 23L4.0996094 23C3.5521735 23 3.1975733 22.893038 3.0898438 22.826172C2.9821141 22.759305 3 22.832943 3 22.599609C3 22.201125 3.0921901 21.813354 3.3261719 21.546875C3.5601537 21.280396 3.9919171 21 5.0996094 21 z M 42.738281 21L44.900391 21C46.008083 21 46.439846 21.280396 46.673828 21.546875C46.90781 21.813354 47 22.201125 47 22.599609C47 22.907185 47.019301 22.798224 46.931641 22.849609C46.843983 22.900995 46.473468 23 45.900391 23L43.503906 23C43.193161 22.186013 43.124671 22.009053 42.738281 21 z M 41.585938 23.587891C42.14794 25.056888 42.968389 27.200315 43 27.283203L43 35.099609C43 35.499609 42.499609 36 42.099609 36L7.9003906 36C7.433724 36 7 35.654155 7 35.099609L7 27.285156C7.0328845 27.197265 7.8432565 25.057744 8.3925781 23.601562C8.6169661 23.840976 8.8692206 24.064594 9.1816406 24.242188C10.075517 24.750307 11.268833 25 12.900391 25L37 25C38.654839 25 39.862424 24.751248 40.767578 24.246094C41.091915 24.065086 41.354364 23.834414 41.585938 23.587891 z M 11 26C9.3545455 26 8 27.354545 8 29C8 29.880769 8.3624336 30.666414 8.8710938 31.208984C9.3793768 31.751153 9.9807925 32.105328 10.59375 32.462891C11.430455 32.95507 12.001745 33.325465 12.671875 33.599609C13.342005 33.873753 14.071569 34 15 34C17.209804 34 19 32.209804 19 30C19 27.790196 17.209804 26 15 26L11 26 z M 35 26C32.790196 26 31 27.790196 31 30C31 32.209804 32.790196 34 35 34C35.928431 34 36.657995 33.873753 37.328125 33.599609C37.99777 33.325664 38.56858 32.954541 39.404297 32.462891C40.017723 32.105058 40.620246 31.751555 41.128906 31.208984C41.637566 30.666414 42 29.880769 42 29C42 27.354545 40.645455 26 39 26L35 26 z M 11 28L15 28C16.190196 28 17 28.809804 17 30C17 31.190196 16.190196 32 15 32C14.228431 32 13.857604 31.92586 13.427734 31.75C12.997864 31.574144 12.470716 31.246102 11.607422 30.738281 A 1.0001 1.0001 0 0 0 11.603516 30.736328C11.016936 30.394207 10.571418 30.099226 10.330078 29.841797C10.088738 29.584368 10 29.419231 10 29C10 28.445455 10.445455 28 11 28 z M 35 28L39 28C39.554545 28 40 28.445455 40 29C40 29.419231 39.91126 29.584368 39.669922 29.841797C39.428582 30.099226 38.983058 30.39416 38.396484 30.736328 A 1.0001 1.0001 0 0 0 38.392578 30.738281C37.529278 31.246055 37.002136 31.574144 36.572266 31.75C36.142396 31.925856 35.771569 32 35 32C33.809804 32 33 31.190196 33 30C33 28.809804 33.809804 28 35 28 z M 9 38L15 38L15 39C15 39.554545 14.554545 40 14 40L10 40C9.4454545 40 9 39.554545 9 39L9 38 z M 35 38L41 38L41 39C41 39.554545 40.554545 40 40 40L36 40C35.445455 40 35 39.554545 35 39L35 38 z" />
</svg>