<?xml version="1.0" encoding="utf-8"?>
<svg xmlns="http://www.w3.org/2000/svg" viewBox="0 0 50 50" width="515" height="515">
  <path d="M25 4.9003906C12.838462 4.9003906 3 13.385748 3 24.099609C3 30.23554 6.322312 35.637071 11.527344 39.117188C11.516764 39.341349 11.533144 39.636139 11.271484 40.601562C10.936144 41.838854 10.259771 43.576703 8.8828125 45.523438L7.7675781 47.099609L9.6992188 47.099609C15.650024 47.099609 19.02309 43.327228 19.615234 42.636719C21.352307 43.059152 23.134945 43.300781 25 43.300781C37.071264 43.300781 47 34.726276 47 24.099609C47 13.385748 37.161538 4.9003906 25 4.9003906 z M 25 6.9003906C36.238462 6.9003906 45 14.613471 45 24.099609C45 33.472943 36.128736 41.300781 25 41.300781C23.066667 41.300781 21.259768 41.106554 19.568359 40.636719L18.931641 40.458984L18.519531 40.974609C18.519531 40.974609 15.900195 43.95017 11.628906 44.763672C12.374831 43.39223 12.935963 42.110735 13.203125 41.125C13.592784 39.687291 13.599609 38.699219 13.599609 38.699219L13.599609 38.144531L13.128906 37.851562C8.0786247 34.707048 5 29.732943 5 24.099609C5 14.613471 13.761538 6.9003906 25 6.9003906 z M 15 22 A 2 2 0 0 0 15 26 A 2 2 0 0 0 15 22 z M 25 22 A 2 2 0 0 0 25 26 A 2 2 0 0 0 25 22 z M 35 22 A 2 2 0 0 0 35 26 A 2 2 0 0 0 35 22 z" />
</svg>