<?xml version="1.0" encoding="utf-8"?>
<svg xmlns="http://www.w3.org/2000/svg" viewBox="0 0 50 50" width="515" height="515">
  <path d="M1 0 A 1.0001 1.0001 0 0 0 0 1L0 13 A 1.0001 1.0001 0 0 0 1 14L13 14 A 1.0001 1.0001 0 0 0 14 13L14 1 A 1.0001 1.0001 0 0 0 13 0L1 0 z M 2 2L12 2L12 12L2 12L2 2 z M 10.255859 3.3300781L6.4101562 7.6054688L3.6503906 5.2402344L2.3496094 6.7597656L6.5898438 10.394531L11.744141 4.6699219L10.255859 3.3300781 z M 20 6.0175781L20 7.9824219L50 7.9824219L50 6.0175781L20 6.0175781 z M 1 18 A 1.0001 1.0001 0 0 0 0 19L0 31 A 1.0001 1.0001 0 0 0 1 32L13 32 A 1.0001 1.0001 0 0 0 14 31L14 19 A 1.0001 1.0001 0 0 0 13 18L1 18 z M 2 20L12 20L12 30L2 30L2 20 z M 10.255859 21.330078L6.4101562 25.605469L3.6503906 23.240234L2.3496094 24.759766L6.5898438 28.394531L11.744141 22.669922L10.255859 21.330078 z M 20 24.017578L20 25.982422L50 25.982422L50 24.017578L20 24.017578 z M 1 36 A 1.0001 1.0001 0 0 0 0 37L0 49 A 1.0001 1.0001 0 0 0 1 50L13 50 A 1.0001 1.0001 0 0 0 14 49L14 37 A 1.0001 1.0001 0 0 0 13 36L1 36 z M 2 38L12 38L12 48L2 48L2 38 z M 20 42.017578L20 43.982422L50 43.982422L50 42.017578L20 42.017578 z" />
</svg>