<?xml version="1.0" encoding="utf-8"?>
<svg xmlns="http://www.w3.org/2000/svg" viewBox="0 0 50 50" width="515" height="515">
  <path d="M13 0H1C.4 0 0 .4 0 1v12c0 .6.4 1 1 1h12c.6 0 1-.4 1-1V1C14 .4 13.6 0 13 0zM6.6 10.4L2.4 6.7l1.3-1.5 2.7 2.4 3.9-4.3 1.5 1.3L6.6 10.4zM13 36H1c-.6 0-1 .4-1 1v12c0 .6.4 1 1 1h12c.6 0 1-.4 1-1V37C14 36.4 13.6 36 13 36zM20 24H50V26H20zM20 42H50V44H20zM20 6H50V8H20zM13 18H1c-.6 0-1 .4-1 1v12c0 .6.4 1 1 1h12c.6 0 1-.4 1-1V19C14 18.4 13.6 18 13 18zM6.6 28.5l-4.2-3.7 1.3-1.5 2.7 2.4 3.9-4.3 1.5 1.3L6.6 28.5z" />
</svg>