<?xml version="1.0" encoding="utf-8"?>
<svg xmlns="http://www.w3.org/2000/svg" viewBox="0 0 50 50" width="515" height="515">
  <path d="M24.875 0C24.511719 0.0429688 24.199219 0.28125 24.0625 0.625L17.8125 16.125L1.15625 17.28125C0.757813 17.320313 0.421875 17.589844 0.296875 17.972656C0.175781 18.351563 0.292969 18.769531 0.59375 19.03125L13.40625 29.75L9.34375 45.96875C9.242188 46.363281 9.394531 46.78125 9.722656 47.023438C10.054688 47.261719 10.496094 47.277344 10.84375 47.0625L25 38.1875L39.15625 47.0625C39.503906 47.277344 39.945313 47.261719 40.277344 47.023438C40.605469 46.78125 40.757813 46.363281 40.65625 45.96875L36.59375 29.75L49.40625 19.03125C49.707031 18.769531 49.824219 18.351563 49.703125 17.972656C49.578125 17.589844 49.242188 17.320313 48.84375 17.28125L32.1875 16.125L25.9375 0.625C25.769531 0.195313 25.332031 -0.0625 24.875 0 Z M 25 3.71875L30.53125 17.46875C30.675781 17.828125 31.019531 18.074219 31.40625 18.09375L46.1875 19.09375L34.8125 28.625C34.515625 28.878906 34.394531 29.28125 34.5 29.65625L38.125 44.0625L25.53125 36.15625C25.207031 35.953125 24.792969 35.953125 24.46875 36.15625L11.875 44.0625L15.5 29.65625C15.605469 29.28125 15.484375 28.878906 15.1875 28.625L3.8125 19.09375L18.59375 18.09375C18.980469 18.074219 19.324219 17.828125 19.46875 17.46875Z" />
</svg>