<?xml version="1.0" encoding="utf-8"?>
<svg xmlns="http://www.w3.org/2000/svg" width="515" height="515" viewBox="0 0 50 50">
  <path d="M25 2C12.309288 2 2 12.309297 2 25C2 37.690703 12.309288 48 25 48C37.690712 48 48 37.690703 48 25C48 12.309297 37.690712 2 25 2 z M 25 4C32.987982 4 39.925647 8.4450299 43.476562 15L25 15 A 1.0001 1.0001 0 0 0 24.589844 15.082031C19.542813 15.298848 15.546629 19.247899 15.152344 24.248047L8.0351562 12.650391C11.851591 7.4136919 18.014801 4 25 4 z M 6.8242188 14.501953L16.476562 30.230469 A 1.0001 1.0001 0 0 0 16.978516 30.652344C18.791674 33.2146 21.631687 35 25 35C26.423665 35 27.7647 34.680002 28.992188 34.140625L22.320312 45.824219C11.979962 44.509804 4 35.701109 4 25C4 21.169738 5.0375752 17.591533 6.8242188 14.501953 z M 25 17C29.430126 17 33 20.569877 33 25C33 29.430123 29.430126 33 25 33C20.569874 33 17 29.430123 17 25C17 20.569877 20.569874 17 25 17 z M 30.683594 17L44.421875 17C45.436789 19.465341 46 22.165771 46 25C46 36.609825 36.609833 46 25 46C24.842174 46 24.686285 45.991734 24.529297 45.988281L33.683594 29.958984 A 1.0001 1.0001 0 0 0 33.822266 29.466797C34.517087 28.105991 35 26.628903 35 25C35 21.645308 33.228346 18.815267 30.683594 17 z" />
</svg>