<?xml version="1.0" encoding="utf-8"?>
<svg xmlns="http://www.w3.org/2000/svg" viewBox="0 0 50 50" width="515" height="515">
  <path d="M44.375 0C44.242188 0.0117188 44.097656 0.0546875 43.96875 0.09375L40.3125 1.21875C40.28125 1.21875 40.25 1.21875 40.21875 1.21875C40.050781 1.238281 39.886719 1.304688 39.75 1.40625L34.59375 2.96875C34.5625 2.96875 34.53125 2.96875 34.5 2.96875C34.332031 2.988281 34.167969 3.054688 34.03125 3.15625L28.75 4.75C28.652344 4.765625 28.558594 4.796875 28.46875 4.84375L23.03125 6.5C22.898438 6.515625 22.773438 6.558594 22.65625 6.625L17.375 8.25C17.34375 8.257813 17.3125 8.269531 17.28125 8.28125C17.183594 8.296875 17.089844 8.328125 17 8.375L11.5625 10.03125C11.464844 10.046875 11.371094 10.078125 11.28125 10.125L5.875 11.78125C5.855469 11.78125 5.832031 11.78125 5.8125 11.78125C5.667969 11.804688 5.527344 11.855469 5.40625 11.9375L1.90625 13C0.992188 13.28125 0.417969 14.171875 0.5 15.09375C0.5 15.105469 0.5 15.113281 0.5 15.125C0.503906 15.1875 0.515625 15.25 0.53125 15.3125C0.535156 15.375 0.546875 15.4375 0.5625 15.5C0.570313 15.542969 0.582031 15.585938 0.59375 15.625L0.90625 16.53125C0.355469 17.214844 0 18.0625 0 19C0 20.464844 0.816406 21.742188 2 22.4375L2 24.8125C2 24.84375 2 24.875 2 24.90625C1.992188 24.980469 1.992188 25.050781 2 25.125C2 25.15625 2 25.1875 2 25.21875L2 25.6875C1.941406 25.882813 1.941406 26.085938 2 26.28125L2 48C2 49.09375 2.90625 50 4 50L48 50C49.09375 50 50 49.09375 50 48L50 26.1875C50.027344 26.054688 50.027344 25.914063 50 25.78125L50 21.3125C50.058594 21.121094 50.058594 20.910156 50 20.71875L50 20C50 19.449219 49.550781 19 49 19L9.65625 19L13.71875 17.75C13.816406 17.734375 13.910156 17.703125 14 17.65625L19.65625 15.9375C19.6875 15.929688 19.71875 15.917969 19.75 15.90625L24.96875 14.3125C25.261719 14.355469 25.5625 14.261719 25.78125 14.0625L30.9375 12.46875C31.035156 12.453125 31.128906 12.421875 31.21875 12.375L36.4375 10.78125C36.738281 10.816406 37.035156 10.710938 37.25 10.5L42.125 9C42.429688 9.050781 42.742188 8.960938 42.96875 8.75L47.25 7.4375C47.507813 7.363281 47.726563 7.191406 47.855469 6.957031C47.984375 6.722656 48.015625 6.445313 47.9375 6.1875L47.6875 5.40625C47.671875 5.273438 47.628906 5.148438 47.5625 5.03125L46.46875 1.40625C46.1875 0.492188 45.296875 -0.0898438 44.375 0 Z M 44.5625 2L45.03125 3.53125L43.03125 2.46875 Z M 40.3125 3.3125L45.3125 5.9375L42.25 6.875L37.28125 4.25 Z M 34.59375 5.0625L39.5625 7.71875L36.5625 8.625L31.5625 6 Z M 28.875 6.8125L33.875 9.46875L30.84375 10.40625L25.8125 7.75 Z M 23.09375 8.59375L28.09375 11.25L25.09375 12.15625L20.09375 9.5 Z M 17.40625 10.34375L22.40625 13L19.34375 13.9375L14.34375 11.28125 Z M 11.65625 12.125L16.65625 14.75L13.625 15.6875L8.65625 13.03125 Z M 5.9375 13.875L10.90625 16.53125L7.875 17.4375L7.625 17.3125C6.984375 15.949219 5.597656 15 4 15C3.800781 15 3.597656 15.035156 3.40625 15.0625L2.90625 14.8125 Z M 4 17C4.835938 17 5.542969 17.5 5.84375 18.21875C5.855469 18.292969 5.878906 18.367188 5.90625 18.4375C5.917969 18.480469 5.957031 18.515625 5.96875 18.5625C5.972656 18.574219 5.964844 18.582031 5.96875 18.59375C5.929688 18.769531 5.941406 18.953125 6 19.125C6 19.136719 6 19.144531 6 19.15625C5.996094 19.230469 5.980469 19.304688 5.96875 19.375C5.957031 19.394531 5.945313 19.417969 5.9375 19.4375C5.847656 19.578125 5.792969 19.738281 5.78125 19.90625C5.453125 20.558594 4.789063 21 4 21C3.859375 21 3.726563 20.996094 3.59375 20.96875C3.582031 20.964844 3.574219 20.972656 3.5625 20.96875C3.550781 20.957031 3.542969 20.949219 3.53125 20.9375C3.507813 20.933594 3.492188 20.914063 3.46875 20.90625C3.4375 20.894531 3.40625 20.882813 3.375 20.875C3.34375 20.863281 3.3125 20.855469 3.28125 20.84375C3.261719 20.84375 3.238281 20.84375 3.21875 20.84375C3.199219 20.835938 3.175781 20.820313 3.15625 20.8125C2.472656 20.496094 2 19.8125 2 19C2 18.53125 2.144531 18.089844 2.40625 17.75C2.441406 17.703125 2.523438 17.699219 2.5625 17.65625C2.675781 17.582031 2.769531 17.488281 2.84375 17.375C2.855469 17.367188 2.863281 17.351563 2.875 17.34375C2.886719 17.332031 2.894531 17.324219 2.90625 17.3125C3.042969 17.222656 3.183594 17.148438 3.34375 17.09375C3.433594 17.0625 3.527344 17.050781 3.625 17.03125C3.746094 17.007813 3.871094 17 4 17 Z M 8.4375 21L11.5625 21L7.5625 25L4.4375 25 Z M 14.4375 21L17.5625 21L13.5625 25L10.4375 25 Z M 20.4375 21L23.5625 21L19.5625 25L16.4375 25 Z M 26.4375 21L29.5625 21L25.5625 25L22.4375 25 Z M 32.4375 21L35.5625 21L31.5625 25L28.4375 25 Z M 38.4375 21L41.5625 21L37.5625 25L34.4375 25 Z M 44.4375 21L47.5625 21L43.5625 25L40.4375 25 Z M 48 23.4375L48 25L46.4375 25 Z M 4 27L48 27L48 48L4 48Z" />
</svg>