<?xml version="1.0" encoding="utf-8"?>
<svg xmlns="http://www.w3.org/2000/svg" viewBox="0 0 50 50" width="515" height="515">
  <path d="M44.34375 0.03125C44.210938 0.0429688 44.101563 0.0546875 43.96875 0.09375L19.71875 7.53125L17.1875 8.3125L13.9375 9.3125L1.90625 13C1.394531 13.15625 0.96875 13.527344 0.71875 14C0.46875 14.472656 0.40625 14.988281 0.5625 15.5L0.875 16.53125C0.339844 17.210938 0 18.066406 0 19C0 20.476563 0.804688 21.746094 2 22.4375L2 48C2 49.101563 2.898438 50 4 50L48 50C49.101563 50 50 49.101563 50 48L50 20C50 19.449219 49.554688 19 49 19L9.625 19L47.28125 7.4375C47.535156 7.359375 47.71875 7.203125 47.84375 6.96875C47.96875 6.734375 48.015625 6.441406 47.9375 6.1875L47.625 5.25L46.46875 1.40625C46.183594 0.484375 45.269531 -0.0585938 44.34375 0.03125 Z M 42.4375 2.65625L45.1875 4.125L45.71875 5.8125L42.375 6.875L42.3125 6.875L37.3125 4.25L37.375 4.21875 Z M 30.625 6.34375L35.5625 8.96875L30.84375 10.40625L30.8125 10.40625L25.84375 7.75 Z M 19.46875 9.84375L24.34375 12.40625L19.34375 13.9375L14.375 11.28125 Z M 7.96875 13.25L12.96875 15.90625L7.875 17.4375L7.625 17.3125C6.988281 15.945313 5.605469 15 4 15C3.796875 15 3.601563 15.035156 3.40625 15.0625L2.90625 14.8125 Z M 4 17C5.101563 17 6 17.898438 6 19C6 20.101563 5.101563 21 4 21C2.898438 21 2 20.101563 2 19C2 18.417969 2.257813 17.898438 2.65625 17.53125C2.886719 17.320313 3.160156 17.148438 3.46875 17.0625C3.511719 17.050781 3.554688 17.046875 3.59375 17.03125C3.722656 17.003906 3.863281 17 4 17 Z M 8.40625 21L13.59375 21L9.59375 25L4.40625 25 Z M 20.40625 21L25.59375 21L21.59375 25L16.40625 25 Z M 32.40625 21L37.59375 21L33.59375 25L28.40625 25 Z M 44.40625 21L48 21L48 23L46 25L40.40625 25Z" />
</svg>