<?xml version="1.0" encoding="utf-8"?>
<svg xmlns="http://www.w3.org/2000/svg" viewBox="0 0 50 50" width="515" height="515">
  <path d="M9.8125 0C9.335938 0.0898438 8.992188 0.511719 9 1L9 3C8.996094 3.359375 9.183594 3.695313 9.496094 3.878906C9.808594 4.058594 10.191406 4.058594 10.503906 3.878906C10.816406 3.695313 11.003906 3.359375 11 3L11 2L46 2L46 25L41.90625 25L43 23L41.90625 21L33 21L33 25L22 25C21.96875 25 21.9375 25 21.90625 25C21.355469 25.027344 20.925781 25.496094 20.953125 26.046875C20.980469 26.597656 21.449219 27.027344 22 27L48 27L48 28L22 28C21.640625 27.996094 21.304688 28.183594 21.121094 28.496094C20.941406 28.808594 20.941406 29.191406 21.121094 29.503906C21.304688 29.816406 21.640625 30.003906 22 30L49 30C49.550781 30 50 29.550781 50 29L50 26C50 25.449219 49.550781 25 49 25L48 25L48 1C48 0.449219 47.550781 0 47 0L10 0C9.96875 0 9.9375 0 9.90625 0C9.875 0 9.84375 0 9.8125 0 Z M 12 5C8.699219 5 6 7.699219 6 11C6 14.300781 8.699219 17 12 17C15.300781 17 18 14.300781 18 11C18 7.699219 15.300781 5 12 5 Z M 12 17L9.6875 17C8.933594 17 7.835938 17.09375 6.8125 17.78125C5.789063 18.46875 5 19.792969 5 21.6875L5 32.4375C3.242188 33.214844 2 34.964844 2 37C2 38.515625 2.707031 39.863281 3.78125 40.78125C1.542969 41.953125 0 44.316406 0 47L0 49C0 49.550781 0.449219 50 1 50L13 50C13.03125 50 13.0625 50 13.09375 50L37 50C37.03125 50 37.0625 50 37.09375 50L49 50C49.550781 50 50 49.550781 50 49L50 47C50 44.316406 48.457031 41.953125 46.21875 40.78125C47.292969 39.863281 48 38.515625 48 37C48 34.25 45.75 32 43 32C40.25 32 38 34.25 38 37C38 38.515625 38.707031 39.863281 39.78125 40.78125C38.640625 41.378906 37.664063 42.308594 37 43.40625C36.332031 42.292969 35.371094 41.386719 34.21875 40.78125C35.292969 39.863281 36 38.515625 36 37C36 34.25 33.75 32 31 32C28.25 32 26 34.25 26 37C26 38.515625 26.707031 39.863281 27.78125 40.78125C26.640625 41.378906 25.664063 42.308594 25 43.40625C24.332031 42.300781 23.371094 41.382813 22.21875 40.78125C23.292969 39.863281 24 38.515625 24 37C24 34.59375 22.273438 32.5625 20 32.09375L20 23L24.28125 21.46875L24.3125 21.4375C24.320313 21.433594 24.335938 21.441406 24.34375 21.4375C25.195313 21.179688 25.894531 20.722656 26.375 20.09375L26.40625 20.09375L31.40625 13.625C31.40625 13.613281 31.40625 13.605469 31.40625 13.59375C32.328125 12.367188 32.1875 10.554688 30.90625 9.59375C30.292969 9.132813 29.539063 8.953125 28.8125 9.03125C28.085938 9.109375 27.386719 9.453125 26.90625 10.09375L22.625 15.625L16 17 Z M 12 7C14.222656 7 16 8.777344 16 11C16 13.222656 14.222656 15 12 15C9.777344 15 8 13.222656 8 11C8 8.777344 9.777344 7 12 7 Z M 29.03125 11.03125C29.25 11.003906 29.5 11.046875 29.6875 11.1875C30 11.421875 30.066406 12 29.8125 12.375C29.804688 12.382813 29.820313 12.398438 29.8125 12.40625L24.8125 18.875C24.8125 18.886719 24.8125 18.894531 24.8125 18.90625C24.703125 19.050781 24.226563 19.386719 23.71875 19.53125C23.699219 19.539063 23.675781 19.550781 23.65625 19.5625L18.65625 21.34375C18.25 21.492188 17.988281 21.882813 18 22.3125L18 32.09375C15.726563 32.5625 14 34.59375 14 37C14 38.515625 14.707031 39.863281 15.78125 40.78125C14.640625 41.378906 13.664063 42.308594 13 43.40625C12.332031 42.292969 11.371094 41.386719 10.21875 40.78125C11.292969 39.863281 12 38.515625 12 37C12 34.25 9.75 32 7 32L7 21.6875C7 20.28125 7.40625 19.773438 7.90625 19.4375C8.40625 19.101563 9.140625 19 9.6875 19L16 19C16.074219 18.996094 16.148438 18.988281 16.21875 18.96875L23.40625 17.46875C23.636719 17.425781 23.847656 17.304688 24 17.125L28.5 11.3125C28.621094 11.152344 28.8125 11.058594 29.03125 11.03125 Z M 7 34C8.667969 34 10 35.332031 10 37C10 38.667969 8.667969 40 7 40C5.332031 40 4 38.667969 4 37C4 35.648438 4.875 34.503906 6.09375 34.125C6.152344 34.105469 6.222656 34.109375 6.28125 34.09375C6.324219 34.085938 6.367188 34.074219 6.40625 34.0625C6.601563 34.023438 6.792969 34 7 34 Z M 31 34C32.667969 34 34 35.332031 34 37C34 38.667969 32.667969 40 31 40C29.332031 40 28 38.667969 28 37C28 35.332031 29.332031 34 31 34 Z M 43 34C44.667969 34 46 35.332031 46 37C46 38.667969 44.667969 40 43 40C41.332031 40 40 38.667969 40 37C40 35.332031 41.332031 34 43 34 Z M 18.75 34.03125C18.761719 34.03125 18.769531 34.03125 18.78125 34.03125C18.914063 34.058594 19.054688 34.058594 19.1875 34.03125C19.199219 34.03125 19.207031 34.03125 19.21875 34.03125C20.777344 34.148438 22 35.410156 22 37C22 38.667969 20.667969 40 19 40C17.332031 40 16 38.667969 16 37C16 35.417969 17.207031 34.160156 18.75 34.03125 Z M 7 42C9.753906 42 12 44.246094 12 47L12 48L2 48L2 47C2 44.246094 4.246094 42 7 42 Z M 19 42C21.753906 42 24 44.246094 24 47L24 48L14 48L14 47C14 44.246094 16.246094 42 19 42 Z M 31 42C33.753906 42 36 44.246094 36 47L36 48L26 48L26 47C26 44.246094 28.246094 42 31 42 Z M 43 42C45.753906 42 48 44.246094 48 47L48 48L38 48L38 47C38 44.246094 40.246094 42 43 42Z" />
</svg>