<?xml version="1.0" encoding="utf-8"?>
<svg xmlns="http://www.w3.org/2000/svg" viewBox="0 0 50 50" width="515" height="515">
  <path d="M29.099609 8.5996094C23.911455 8.5996094 19.49155 11.771794 17.445312 16.169922C16.310068 15.378763 15.006249 14.800781 13.5 14.800781C9.7885615 14.800781 6.7854963 17.759803 6.5761719 21.421875C2.7233834 22.673987 1.1842379e-15 26.213769 0 30.400391C0 35.653582 4.3464179 40 9.5996094 40L41.199219 40C46.041854 40 50 36.041854 50 31.199219C50 26.638871 46.449418 22.987143 41.996094 22.5625C42.035684 22.241279 42.099609 21.948065 42.099609 21.599609C42.099609 14.454155 36.245064 8.5996094 29.099609 8.5996094 z M 29.099609 10.599609C35.154155 10.599609 40.099609 15.545064 40.099609 21.599609C40.099609 22.088498 40.01406 22.636328 39.914062 23.236328 A 1.0001 1.0001 0 0 0 40.900391 24.400391L41.199219 24.400391C44.956583 24.400391 48 27.441854 48 31.199219C48 34.956583 44.956583 38 41.199219 38L9.5996094 38C5.4528009 38 2 34.547199 2 30.400391C2 26.850391 4.3767032 23.866579 7.7304688 23.072266 A 1.0001 1.0001 0 0 0 8.5 22.099609L8.5 21.800781C8.5 19.046236 10.745455 16.800781 13.5 16.800781C14.92549 16.800781 16.16517 17.37806 17.09375 18.306641 A 1.0001 1.0001 0 0 0 18.744141 17.927734C20.203241 13.732822 24.335507 10.599609 29.099609 10.599609 z" />
</svg>