<?xml version="1.0" encoding="utf-8"?>
<svg xmlns="http://www.w3.org/2000/svg" viewBox="0 0 50 50" width="515" height="515">
  <path d="M42.128906 22.257813C42.136719 22.066406 42.144531 21.878906 42.144531 21.695313C42.144531 14.445313 36.242188 8.546875 28.992188 8.546875C23.984375 8.546875 19.410156 11.441406 17.214844 15.878906C16.078125 15.128906 14.75 14.722656 13.355469 14.722656C9.652344 14.722656 6.609375 17.609375 6.363281 21.253906C2.582031 22.628906 0 26.257813 0 30.332031C0 35.660156 4.339844 40 9.671875 40L41.097656 40C46.007813 40 50 36.007813 50 31.097656C50 26.539063 46.554688 22.769531 42.128906 22.257813Z" />
</svg>