<?xml version="1.0" encoding="utf-8"?>
<svg xmlns="http://www.w3.org/2000/svg" viewBox="0 0 50 50" width="515" height="515">
  <path d="M18 2C9.93 2 7 7.4714375 7 11.148438C7 16.960437 12.534 20 18 20C23.333 20 29 16.832937 29 10.960938C29 5.7699375 24.374 2 18 2 z M 30 5C29.695 5 29.395609 5.0113438 29.099609 5.0273438C30.308609 6.7073437 31 8.7229375 31 10.960938C31 16.178937 27.448891 19.637625 23.087891 21.140625C25.265891 22.468625 27.89 23 30 23C35.333 23 41 19.832937 41 13.960938C41 8.7699375 36.374 5 30 5 z M 5.5 18C3.57 18 2 19.346 2 21C2 22.654 3.57 24 5.5 24C7.43 24 9 22.654 9 21C9 19.346 7.43 18 5.5 18 z M 44.5 18C42.57 18 41 19.346 41 21C41 22.654 42.57 24 44.5 24C46.43 24 48 22.654 48 21C48 19.346 46.43 18 44.5 18 z M 14.53125 24C9.34725 24 8 26.971 8 29.75C8 30.426 8.2247187 31.387187 8.3867188 31.992188C8.1757187 32.324187 8 32.81 8 33.5C8 34.828 8.5694844 35.539937 9.2714844 35.835938C9.5124844 36.716938 9.9920469 37.633359 10.498047 38.193359L10.498047 39.78125C10.163047 40.35825 9.1690938 40.780609 8.1210938 41.224609C6.0540937 42.099609 3.2259531 43.297453 3.0019531 46.939453C2.9849531 47.214453 3.0824844 47.484547 3.2714844 47.685547C3.4604844 47.885547 3.724 48 4 48L23.25 48L24 48L26 48L26.75 48L46 48C46.276 48 46.540516 47.886547 46.728516 47.685547C46.917516 47.484547 47.015047 47.2125 46.998047 46.9375C46.773047 43.2765 43.560844 42.085797 41.214844 41.216797C40.053844 40.785797 38.855 40.339438 38.5 39.773438L38.5 38.193359C39.006 37.633359 39.484563 36.717937 39.726562 35.835938C40.429563 35.541937 41 34.829 41 33.5C41 32.81 40.824281 32.324187 40.613281 31.992188C40.775281 31.387187 41 30.426 41 29.75C41 27.617 40.311844 25.333203 37.714844 25.033203L37.390625 24.488281C37.210625 24.185281 36.88425 24 36.53125 24C31.34725 24 30 26.971 30 29.75C30 30.426 30.224719 31.387187 30.386719 31.992188C30.175719 32.324187 30 32.81 30 33.5C30 34.828 30.569484 35.539937 31.271484 35.835938C31.512484 36.716938 31.992047 37.633359 32.498047 38.193359L32.498047 39.78125C32.163047 40.35825 31.169094 40.780609 30.121094 41.224609C28.054094 42.099609 25.225953 43.297453 25.001953 46.939453C25.00067 46.96021 25.009749 46.979317 25.009766 47L24.988281 47C24.988339 46.978688 24.999369 46.958892 24.998047 46.9375C24.773047 43.2765 21.560844 42.085797 19.214844 41.216797C18.053844 40.785797 16.855 40.339438 16.5 39.773438L16.5 38.193359C17.006 37.633359 17.484562 36.717937 17.726562 35.835938C18.429563 35.541937 19 34.829 19 33.5C19 32.81 18.824281 32.324187 18.613281 31.992188C18.775281 31.387187 19 30.426 19 29.75C19 27.617 18.311844 25.333203 15.714844 25.033203L15.390625 24.488281C15.210625 24.185281 14.88425 24 14.53125 24 z M 3.5 26 A 1.5 1.5 0 0 0 2 27.5 A 1.5 1.5 0 0 0 3.5 29 A 1.5 1.5 0 0 0 5 27.5 A 1.5 1.5 0 0 0 3.5 26 z M 46.5 26 A 1.5 1.5 0 0 0 45 27.5 A 1.5 1.5 0 0 0 46.5 29 A 1.5 1.5 0 0 0 48 27.5 A 1.5 1.5 0 0 0 46.5 26 z" />
</svg>