<?xml version="1.0" encoding="utf-8"?>
<svg xmlns="http://www.w3.org/2000/svg" viewBox="0 0 50 50" width="515" height="515">
  <path d="M45 2 A 2 2 0 0 0 43.179688 4.8261719L35.191406 16.011719 A 2 2 0 0 0 35 16 A 2 2 0 0 0 33.900391 16.332031L26.994141 12.878906 A 2 2 0 0 0 25 11 A 2 2 0 0 0 23.025391 13.300781L15.726562 19.138672 A 2 2 0 0 0 15 19 A 2 2 0 0 0 13.023438 20.714844L6.234375 23.429688 A 2 2 0 0 0 5 23 A 2 2 0 0 0 5 27 A 2 2 0 0 0 6.9765625 25.285156L13.765625 22.570312 A 2 2 0 0 0 15 23 A 2 2 0 0 0 16.974609 20.701172L24.273438 14.861328 A 2 2 0 0 0 25 15 A 2 2 0 0 0 26.101562 14.667969L33.005859 18.121094 A 2 2 0 0 0 35 20 A 2 2 0 0 0 36.820312 17.171875L44.810547 5.9882812 A 2 2 0 0 0 45 6 A 2 2 0 0 0 45 2 z M 41 15L41 16L41 50L49 50L49 15L41 15 z M 43 17L47 17L47 48L43 48L43 17 z M 21 24L21 25L21 50L29 50L29 24L21 24 z M 23 26L27 26L27 48L23 48L23 26 z M 31 29L31 30L31 50L39 50L39 29L31 29 z M 33 31L37 31L37 48L33 48L33 31 z M 11 32L11 33L11 50L19 50L19 32L11 32 z M 13 34L17 34L17 48L13 48L13 34 z M 1 36L1 37L1 50L9 50L9 36L1 36 z M 3 38L7 38L7 48L3 48L3 38 z" />
</svg>