<?xml version="1.0" encoding="utf-8"?>
<svg xmlns="http://www.w3.org/2000/svg" width="515" height="515" viewBox="0 0 50 50">
  <path d="M39.851562 1.9980469C39.113402 1.9980469 38.497935 2.3833271 38.025391 2.8339844C37.552846 3.2846417 37.151768 3.8375704 36.720703 4.4648438C35.858574 5.7193904 34.892803 7.2869547 33.515625 8.8359375C30.761269 11.933903 26.455053 15 18 15 A 1.0001 1.0001 0 0 0 17.886719 15.005859L7 15.005859C4.2534568 15.005859 2.0058594 17.253457 2.0058594 20L2.0058594 25C2.0058594 27.122866 3.3543908 28.933071 5.2324219 29.652344 A 1.0001 1.0001 0 0 0 5.4238281 29.816406C5.7490074 30.045876 6.620638 31.612462 7.3339844 34.189453C8.0473308 36.766445 8.7752145 40.330302 9.6054688 44.675781C9.7650923 45.512956 10.044874 46.349714 10.691406 47.001953C11.337938 47.654192 12.305332 47.998047 13.445312 47.998047L16.78125 47.998047C17.701653 47.998047 18.537674 47.821097 19.158203 47.251953C19.778732 46.68281 20 45.842606 20 45C20 43.241488 18.952919 42.031975 17.792969 40.873047C17.977826 41.057639 17.72249 40.718376 17.601562 40.138672C17.480635 39.558968 17.369537 38.717437 17.279297 37.666016C17.11713 35.776561 17.033486 33.11657 17.015625 29.994141L17.830078 29.994141 A 0.99459943 0.99459943 0 0 0 18.132812 29.998047 A 1.0001 1.0001 0 0 0 18.167969 30C26.655424 30 30.927224 33.290256 33.664062 36.632812C35.032483 38.304091 35.987871 39.998185 36.841797 41.347656C37.26876 42.022392 37.665361 42.614409 38.136719 43.097656C38.608077 43.580903 39.235026 44 40 44L40.074219 44C40.463999 44 40.859045 43.794393 41.103516 43.544922C41.347986 43.295451 41.502755 43.012088 41.642578 42.671875C41.922223 41.991449 42.136144 41.047856 42.332031 39.578125C42.62979 37.344045 42.816634 33.304124 42.910156 28L43.453125 28C45.896512 28 47.953125 26.059719 47.953125 23.585938C47.953125 21.112154 45.955173 19 43.453125 19L42.914062 19C42.816213 13.100669 42.575418 8.7831489 42.208984 6.4003906C41.982288 4.9262837 41.737642 3.9776341 41.433594 3.2988281C41.28157 2.9594251 41.116115 2.67971 40.871094 2.4394531C40.626073 2.1991963 40.247228 1.9980469 39.851562 1.9980469 z M 39.615234 4.1484375C39.787323 4.5399722 40.02333 5.3454431 40.232422 6.7050781C40.656029 9.4596142 41 14.43087 41 23C41 31.5739 40.717836 36.551666 40.349609 39.314453C40.168947 40.669957 39.959501 41.470422 39.802734 41.863281C39.733974 41.826621 39.718134 41.852771 39.568359 41.699219C39.292928 41.416841 38.934818 40.915108 38.53125 40.277344C37.724113 39.001815 36.708267 37.195909 35.210938 35.367188C32.310303 31.824582 27.490466 28.243537 18.994141 28.021484L18.994141 16.976562C27.321994 16.730029 32.099737 13.437121 35.009766 10.164062C36.522338 8.4627958 37.556082 6.7807971 38.369141 5.5976562C38.77567 5.0060858 39.131318 4.5415849 39.404297 4.28125C39.532831 4.1586694 39.545697 4.187914 39.615234 4.1484375 z M 7 16.994141L17.005859 16.994141L17.005859 28.005859L16.191406 28.005859 A 1.0001 1.0001 0 0 0 15.984375 27.986328 A 1.0001 1.0001 0 0 0 15.806641 28.005859L7 28.005859C5.3285432 28.005859 3.9941406 26.671457 3.9941406 25L3.9941406 20C3.9941406 18.328543 5.3285432 16.994141 7 16.994141 z M 42.957031 21L43.453125 21C44.815077 21 45.953125 22.19372 45.953125 23.585938C45.953125 24.978154 44.873738 26 43.453125 26L42.945312 26C42.95626 24.903826 43 24.240713 43 23C43 22.17318 42.96303 21.762071 42.957031 21 z M 8.0078125 29.994141L15.013672 29.994141C15.031016 33.155647 15.115304 35.856902 15.285156 37.835938C15.379536 38.93564 15.496303 39.836298 15.644531 40.546875C15.79276 41.257452 15.847502 41.756471 16.380859 42.289062C17.488909 43.396135 18 43.992512 18 45C18 45.530394 17.899657 45.690237 17.804688 45.777344C17.709718 45.864454 17.436847 45.998047 16.78125 45.998047L13.445312 45.998047C12.663293 45.998047 12.342796 45.827261 12.111328 45.59375C11.87986 45.360239 11.69269 44.942607 11.570312 44.300781C10.737568 39.942261 10.007872 36.351759 9.2617188 33.65625C8.8492036 32.166023 8.4795356 30.951791 8.0078125 29.994141 z" />
</svg>