<?xml version="1.0" encoding="utf-8"?>
<svg xmlns="http://www.w3.org/2000/svg" viewBox="0 0 50 50" width="515" height="515">
  <path d="M7.8007812 5C5.1610987 5 3 7.1610988 3 9.8007812L3 32.199219C3 34.838901 5.1610987 37 7.8007812 37L11.693359 37C11.820381 38.103326 11.807734 39.137879 11.515625 40.005859C11.151059 41.08914 10.462676 41.992246 9.1933594 42.736328 A 1.0001 1.0001 0 0 0 9.6992188 44.599609C13.744476 44.599609 18.417922 42.496554 20.775391 37L42.199219 37C44.838901 37 47 34.838901 47 32.199219L47 9.8007812C47 7.1610988 44.838901 5 42.199219 5L7.8007812 5 z M 7.8007812 7L42.199219 7C43.759536 7 45 8.2404639 45 9.8007812L45 32.199219C45 33.759536 43.759536 35 42.199219 35L20.199219 35 A 1.0001 1.0001 0 0 0 19.261719 35.654297C17.807653 39.601047 15.223843 41.494856 12.53125 42.220703C12.874773 41.715135 13.22033 41.208587 13.410156 40.644531C13.920591 39.127812 13.904521 37.476745 13.582031 35.810547 A 1.0001 1.0001 0 0 0 12.599609 35L7.8007812 35C6.2404638 35 5 33.759536 5 32.199219L5 9.8007812C5 8.2404639 6.2404638 7 7.8007812 7 z" />
</svg>