<?xml version="1.0" encoding="utf-8"?>
<svg xmlns="http://www.w3.org/2000/svg" viewBox="0 0 50 50" width="515" height="515">
  <path d="M2 2L2 36L5 36L5 5L37 5L37 2L2 2 z M 7 7L7 41L10 41L10 10L42 10L42 7L7 7 z M 12 12L12 46L40.34375 46C41.770793 47.413116 42.776475 48.400391 42.800781 48.400391L43.099609 48.699219C44.699609 50.299219 47.300391 50.499219 48.900391 48.699219C50.400391 47.099219 50.300781 44.7 48.800781 43L48.5 42.699219L46.900391 41.099609L46.900391 12L12 12 z M 27.400391 27.300781L31.392578 28.398438L28.566406 31.289062L27.400391 27.300781 z M 32.814453 29.804688L46.75 43.650391L43.800781 46.599609L43.75 46.650391L29.9375 32.748047L32.814453 29.804688 z" />
</svg>