<?xml version="1.0" encoding="utf-8"?>
<svg xmlns="http://www.w3.org/2000/svg" viewBox="0 0 50 50" width="515" height="515">
  <path d="M47 11L26 11L26 10C26 8.347656 24.652344 7 23 7L3 7C1.347656 7 0 8.347656 0 10L0 42C0 43.652344 1.347656 45 3 45L9 45L9 42L13 42L13 45L37 45L37 42L41 42L41 45L47 45C48.652344 45 50 43.652344 50 42L50 14C50 12.347656 48.652344 11 47 11 Z M 6 34C6.207031 30.421875 10.984375 30.941406 11.648438 29.085938C11.703125 28.449219 11.683594 28.007813 11.683594 27.425781C11.40625 27.277344 10.890625 26.316406 10.808594 25.5C10.589844 25.484375 10.25 25.261719 10.148438 24.390625C10.09375 23.921875 10.308594 23.660156 10.4375 23.578125C9.703125 20.632813 10.105469 18.0625 13.464844 18C14.304688 18 14.949219 18.234375 15.199219 18.695313C17.652344 19.046875 16.914063 22.472656 16.5625 23.578125C16.691406 23.660156 16.90625 23.925781 16.851563 24.390625C16.753906 25.265625 16.410156 25.484375 16.191406 25.503906C16.105469 26.316406 15.613281 27.277344 15.335938 27.429688C15.335938 28.007813 15.316406 28.449219 15.371094 29.085938C16.035156 30.941406 20.792969 30.421875 21 34 Z M 44 34L26 34L26 32L44 32 Z M 44 29L26 29L26 27L44 27 Z M 44 24L26 24L26 22L44 22Z" />
</svg>