<?xml version="1.0" encoding="utf-8"?>
<svg xmlns="http://www.w3.org/2000/svg" width="515" height="515" viewBox="0 0 50 50">
  <path d="M25 3C19.466667 3 15 7.4666667 15 13L15 19C15 22.234022 16.593115 25.125609 19 26.949219L19 31.5C19 31.604167 18.97677 31.704804 18.716797 31.947266C18.456827 32.189727 17.980596 32.491147 17.365234 32.798828C16.134511 33.41419 14.367952 34.074238 12.5625 34.951172C10.757048 35.828106 8.8937221 36.930064 7.4453125 38.537109C5.9969029 40.144154 5 42.28931 5 45L5 46L45 46L45 45C45 42.266667 44.004855 40.113357 42.554688 38.507812C41.10452 36.902269 39.237559 35.811527 37.431641 34.947266C35.625722 34.083005 33.860265 33.436976 32.632812 32.826172C32.019087 32.52077 31.545538 32.220489 31.287109 31.976562C31.028681 31.732637 31 31.625926 31 31.5L31 26.949219C33.406885 25.125609 35 22.234022 35 19L35 13C35 7.4666667 30.533333 3 25 3 z M 25 5C29.466667 5 33 8.5333333 33 13L33 19C33 21.755914 31.567963 24.252869 29.445312 25.667969L29 25.964844L29 31.5C29 32.274074 29.408819 32.95291 29.916016 33.431641C30.423212 33.910372 31.043413 34.269464 31.742188 34.617188C33.139735 35.312633 34.874278 35.941214 36.568359 36.751953C38.262441 37.562692 39.89548 38.546949 41.070312 39.847656C42.045189 40.926984 42.617116 42.302296 42.822266 44L7.1796875 44C7.3859927 42.323422 7.9551119 40.956315 8.9296875 39.875C10.106278 38.569545 11.742952 37.573066 13.4375 36.75C15.132048 35.926934 16.865489 35.285029 18.259766 34.587891C18.956904 34.239322 19.574423 33.881757 20.080078 33.410156C20.585733 32.938556 21 32.270833 21 31.5L21 25.964844L20.554688 25.667969C18.432037 24.252869 17 21.755914 17 19L17 13C17 8.5333333 20.533333 5 25 5 z" />
</svg>