<?xml version="1.0" encoding="utf-8"?>
<svg xmlns="http://www.w3.org/2000/svg" viewBox="0 0 50 50" width="515" height="515">
  <path d="M21 0C15.378906 0 10.265625 1.015625 6.46875 2.71875C4.570313 3.570313 2.984375 4.601563 1.84375 5.8125C0.757813 6.964844 0.0625 8.316406 0 9.78125C-0.00390625 9.832031 -0.00390625 9.886719 0 9.9375C0 9.957031 0 9.980469 0 10L0 19.8125C-0.0078125 19.875 -0.0078125 19.9375 0 20L0 29.8125C-0.0078125 29.875 -0.0078125 29.9375 0 30L0 39C0 40.550781 0.703125 41.976563 1.84375 43.1875C2.984375 44.398438 4.570313 45.429688 6.46875 46.28125C10.265625 47.984375 15.378906 49 21 49C23.132813 49 25.183594 48.90625 27.15625 48.59375C27.53125 48.566406 27.859375 48.328125 28.003906 47.980469C28.148438 47.632813 28.085938 47.230469 27.839844 46.945313C27.59375 46.660156 27.210938 46.535156 26.84375 46.625C25.015625 46.914063 23.066406 47 21 47C15.621094 47 10.734375 46.015625 7.28125 44.46875C5.554688 43.695313 4.203125 42.789063 3.3125 41.84375C2.421875 40.898438 2 39.949219 2 39L2 34.34375C3.128906 35.488281 4.652344 36.464844 6.46875 37.28125C10.265625 38.984375 15.378906 40 21 40C21.898438 40 22.742188 40.015625 23.625 39.90625C24.175781 39.835938 24.570313 39.332031 24.5 38.78125C24.429688 38.230469 23.925781 37.835938 23.375 37.90625C22.65625 37.996094 21.898438 38 21 38C15.621094 38 10.734375 37.015625 7.28125 35.46875C5.554688 34.695313 4.203125 33.789063 3.3125 32.84375C2.421875 31.898438 2 30.949219 2 30C2.007813 29.9375 2.007813 29.875 2 29.8125L2 24.34375C3.128906 25.488281 4.652344 26.464844 6.46875 27.28125C10.265625 28.984375 15.378906 30 21 30C26.621094 30 31.734375 28.984375 35.53125 27.28125C37.347656 26.464844 38.871094 25.488281 40 24.34375L40 25C39.996094 25.359375 40.183594 25.695313 40.496094 25.878906C40.808594 26.058594 41.191406 26.058594 41.503906 25.878906C41.816406 25.695313 42.003906 25.359375 42 25L42 10C42 9.96875 42 9.9375 42 9.90625C42 9.875 42 9.84375 42 9.8125C42 9.800781 42 9.792969 42 9.78125C41.992188 9.761719 41.980469 9.738281 41.96875 9.71875C41.886719 8.28125 41.226563 6.949219 40.15625 5.8125C39.015625 4.601563 37.429688 3.570313 35.53125 2.71875C31.734375 1.015625 26.621094 0 21 0 Z M 21 2C26.378906 2 31.265625 2.984375 34.71875 4.53125C36.445313 5.304688 37.796875 6.210938 38.6875 7.15625C39.578125 8.101563 40 9.050781 40 10C40 10.949219 39.578125 11.898438 38.6875 12.84375C37.796875 13.789063 36.445313 14.695313 34.71875 15.46875C31.265625 17.015625 26.378906 18 21 18C15.621094 18 10.734375 17.015625 7.28125 15.46875C5.554688 14.695313 4.203125 13.789063 3.3125 12.84375C2.421875 11.898438 2 10.949219 2 10C2 9.96875 2 9.9375 2 9.90625C2.027344 8.988281 2.449219 8.070313 3.3125 7.15625C4.203125 6.210938 5.554688 5.304688 7.28125 4.53125C10.734375 2.984375 15.621094 2 21 2 Z M 2 14.34375C3.128906 15.488281 4.652344 16.464844 6.46875 17.28125C10.265625 18.984375 15.378906 20 21 20C26.621094 20 31.734375 18.984375 35.53125 17.28125C37.347656 16.464844 38.871094 15.488281 40 14.34375L40 20C40 20.949219 39.578125 21.898438 38.6875 22.84375C37.796875 23.789063 36.445313 24.695313 34.71875 25.46875C31.265625 27.015625 26.378906 28 21 28C15.621094 28 10.734375 27.015625 7.28125 25.46875C5.554688 24.695313 4.203125 23.789063 3.3125 22.84375C2.421875 21.898438 2 20.949219 2 20C2.007813 19.9375 2.007813 19.875 2 19.8125 Z M 36.9375 28L36.8125 28.84375L36.40625 31.28125C36.070313 31.402344 35.746094 31.546875 35.4375 31.6875L32.6875 29.6875L29.6875 32.6875L30.1875 33.375L31.59375 35.375C31.441406 35.675781 31.320313 35.984375 31.21875 36.3125L28.84375 36.71875L28 36.84375L28 41.03125L28.84375 41.1875L31.1875 41.59375C31.308594 41.929688 31.425781 42.257813 31.5625 42.5625L30.1875 44.625L29.71875 45.3125L30.28125 45.90625L32.09375 47.71875L32.6875 48.28125L35.4375 46.40625C35.769531 46.558594 36.085938 46.714844 36.40625 46.8125L36.8125 49.25L36.9375 50.09375L41.15625 50.09375L41.28125 49.25L41.6875 46.8125C42.035156 46.6875 42.371094 46.550781 42.6875 46.40625L45.4375 48.28125L47.8125 45.90625L48.40625 45.28125L47.90625 44.59375L46.40625 42.625C46.554688 42.300781 46.71875 41.996094 46.8125 41.6875L49.1875 41.1875L50 41L50 36.84375L49.15625 36.71875L46.71875 36.3125C46.59375 35.964844 46.457031 35.628906 46.3125 35.3125L48.1875 32.5625L47.59375 32L45.90625 30.28125L45.28125 29.6875L44.59375 30.1875L42.625 31.6875C42.300781 31.539063 41.996094 31.375 41.6875 31.28125L41.28125 28.84375L41.15625 28 Z M 38.625 30L39.4375 30L39.8125 32.15625L39.90625 32.78125L40.53125 32.96875C41.230469 33.167969 41.820313 33.339844 42.25 33.625L42.84375 34.03125L43.40625 33.59375L45.125 32.34375L45.59375 32.8125L44.375 34.625L44.03125 35.125L44.3125 35.65625C44.59375 36.214844 44.855469 36.851563 45.03125 37.46875L45.21875 38.09375L45.84375 38.1875L48 38.5625L48 39.375L45.90625 39.8125L45.3125 39.9375L45.125 40.53125C44.925781 41.230469 44.753906 41.820313 44.46875 42.25L44.0625 42.84375L44.5 43.40625L45.78125 45.125L45.1875 45.71875L43.375 44.46875L42.875 44.15625L42.34375 44.40625C41.785156 44.6875 41.148438 44.949219 40.53125 45.125L39.90625 45.3125L39.8125 45.9375L39.4375 48.09375L38.625 48.09375L38.28125 45.9375L38.1875 45.3125L37.5625 45.125C36.863281 44.925781 36.273438 44.753906 35.84375 44.46875L35.28125 44.09375L34.75 44.46875L32.9375 45.71875L32.28125 45.0625L33.53125 43.25L33.84375 42.78125L33.59375 42.25C33.3125 41.691406 33.050781 41.054688 32.875 40.4375L32.6875 39.8125L32.0625 39.71875L30 39.375L30 38.53125L32.0625 38.1875L32.78125 38.0625L32.875 37.34375C32.949219 36.828125 33.203125 36.242188 33.53125 35.75L33.90625 35.1875L33.53125 34.625L32.3125 32.90625L32.90625 32.3125L34.71875 33.625L35.21875 33.96875L35.75 33.6875C36.308594 33.40625 36.945313 33.144531 37.5625 32.96875L38.1875 32.78125L38.28125 32.15625 Z M 39 35C36.789063 35 35 36.789063 35 39C35 41.210938 36.789063 43 39 43C41.210938 43 43 41.210938 43 39C43 36.789063 41.210938 35 39 35 Z M 39 37C40.191406 37 41 37.808594 41 39C41 40.191406 40.191406 41 39 41C37.808594 41 37 40.191406 37 39C37 37.808594 37.808594 37 39 37Z" />
</svg>