<?xml version="1.0" encoding="utf-8"?>
<svg xmlns="http://www.w3.org/2000/svg" viewBox="0 0 50 50" width="515" height="515">
  <path d="M25 7.1992188C21.012405 7.1992187 17.396534 7.9146249 14.689453 9.1328125C13.335912 9.7419063 12.204047 10.477085 11.371094 11.363281C10.59542 12.188537 10.095194 13.185986 10.027344 14.263672 A 1.0001 1.0001 0 0 0 10 14.5L10 21.5L10 28.5L10 35.5C10 36.675 10.541076 37.759168 11.376953 38.646484C12.21283 39.5338 13.347641 40.267369 14.703125 40.875C17.414092 42.090261 21.028788 42.800781 25 42.800781C28.971212 42.800781 32.585908 42.090261 35.296875 40.875C36.652359 40.267369 37.78717 39.5338 38.623047 38.646484C39.458924 37.759168 40 36.675 40 35.5L40 28.5L40 21.5L40 14.5 A 1.0001 1.0001 0 0 0 39.972656 14.259766C39.9038 13.18358 39.403646 12.187543 38.628906 11.363281C37.795953 10.477085 36.664088 9.7419063 35.310547 9.1328125C32.603466 7.9146249 28.987595 7.1992186 25 7.1992188 z M 25 9.1992188C28.744397 9.1992187 32.128363 9.8950676 34.488281 10.957031C35.66824 11.488013 36.587953 12.111175 37.171875 12.732422C37.755797 13.353669 38 13.930396 38 14.5C38 15.069604 37.755797 15.646331 37.171875 16.267578C36.587953 16.888825 35.66824 17.511987 34.488281 18.042969C32.128363 19.104933 28.744397 19.800781 25 19.800781C21.255603 19.800781 17.871637 19.104933 15.511719 18.042969C14.33176 17.511987 13.412047 16.888825 12.828125 16.267578C12.244203 15.646331 12 15.069604 12 14.5C12 13.930396 12.244203 13.353669 12.828125 12.732422C13.412047 12.111175 14.33176 11.488013 15.511719 10.957031C17.871637 9.8950675 21.255603 9.1992186 25 9.1992188 z M 12 18.226562C12.743328 18.854949 13.649189 19.399068 14.689453 19.867188C17.396534 21.085375 21.012405 21.800781 25 21.800781C28.987595 21.800781 32.603466 21.085374 35.310547 19.867188C36.350811 19.399068 37.256672 18.854949 38 18.226562L38 21.5C38 22.075 37.753966 22.653332 37.167969 23.275391C36.581971 23.89745 35.660532 24.520912 34.478516 25.050781C32.114483 26.11052 28.728788 26.800781 25 26.800781C21.271212 26.800781 17.885517 26.11052 15.521484 25.050781C14.339468 24.520912 13.418029 23.89745 12.832031 23.275391C12.246034 22.653332 12 22.075 12 21.5L12 18.226562 z M 12 25.228516C12.747114 25.859974 13.657394 26.406224 14.703125 26.875C17.414092 28.090261 21.028788 28.800781 25 28.800781C28.971212 28.800781 32.585908 28.090261 35.296875 26.875C36.342606 26.406224 37.252886 25.859974 38 25.228516L38 28.5C38 29.075 37.753966 29.653332 37.167969 30.275391C36.581971 30.89745 35.660532 31.520912 34.478516 32.050781C32.114483 33.11052 28.728788 33.800781 25 33.800781C21.271212 33.800781 17.885517 33.11052 15.521484 32.050781C14.339468 31.520912 13.418029 30.89745 12.832031 30.275391C12.246034 29.653332 12 29.075 12 28.5L12 25.228516 z M 12 32.228516C12.747114 32.859974 13.657394 33.406224 14.703125 33.875C17.414092 35.090261 21.028788 35.800781 25 35.800781C28.971212 35.800781 32.585908 35.090261 35.296875 33.875C36.342606 33.406224 37.252886 32.859974 38 32.228516L38 35.5C38 36.075 37.753966 36.653332 37.167969 37.275391C36.581971 37.89745 35.660532 38.520912 34.478516 39.050781C32.114483 40.11052 28.728788 40.800781 25 40.800781C21.271212 40.800781 17.885517 40.11052 15.521484 39.050781C14.339468 38.520912 13.418029 37.89745 12.832031 37.275391C12.246034 36.653332 12 36.075 12 35.5L12 32.228516 z" />
</svg>