<?xml version="1.0" encoding="utf-8"?>
<svg xmlns="http://www.w3.org/2000/svg" viewBox="0 0 50 50" width="515" height="515">
  <path d="M3.8007812 8C2.267448 8 1 9.2674481 1 10.800781L1 37C1 38.645455 2.3545455 40 4 40L8.0898438 40C8.5640707 42.843668 11.017707 45 14 45C16.982293 45 19.435929 42.843668 19.910156 40L28 40L30 40L33.089844 40C33.564071 42.843668 36.017707 45 39 45C41.982293 45 44.435929 42.843668 44.910156 40L46 40C46.833333 40 47.549896 39.614166 48.082031 39.082031C48.614166 38.549896 49 37.833333 49 37L49 27.400391C49 26.275881 48.581958 25.253826 48.197266 24.470703C47.812573 23.68758 47.419922 23.126953 47.419922 23.126953L47.410156 23.115234L43.291016 17.587891L43.28125 17.576172C42.394978 16.468249 40.971429 15 39 15L31 15C30.639063 15 30.311644 15.09933 30 15.224609L30 10.900391C30 9.3003902 28.699609 8 27.099609 8L3.8007812 8 z M 3.8007812 10L27.099609 10C27.499609 10 28 10.500391 28 10.900391L28 18L28 38L19.910156 38C19.435929 35.156332 16.982293 33 14 33C11.017707 33 8.5640707 35.156332 8.0898438 38L4 38C3.4454545 38 3 37.554545 3 37L3 10.800781C3 10.334115 3.3341146 10 3.8007812 10 z M 16 12C10.5 12 6 16.5 6 22C6 27.5 10.5 32 16 32C21.5 32 26 27.5 26 22C26 16.5 21.5 12 16 12 z M 16 14C20.4 14 24 17.6 24 22C24 26.4 20.4 30 16 30C11.6 30 8 26.4 8 22C8 17.6 11.6 14 16 14 z M 16 16L16 21L16 21.5L12.400391 24.199219L13.599609 25.800781L18 22.5L18 22L18 21L18 16L16 16 z M 31 17L35 17L35 26C35 26.833333 35.385834 27.549896 35.917969 28.082031C36.450104 28.614166 37.166667 29 38 29L47 29L47 37C47 37.166667 46.885834 37.450104 46.667969 37.667969C46.450104 37.885834 46.166667 38 46 38L44.910156 38C44.435929 35.156332 41.982293 33 39 33C36.017707 33 33.564071 35.156332 33.089844 38L30 38L30 18C30 17.833333 30.114166 17.549896 30.332031 17.332031C30.549896 17.114166 30.833333 17 31 17 z M 37 17L39 17C39.828571 17 41.00509 17.932144 41.71875 18.824219L45.78125 24.273438C45.78125 24.273438 46.087036 24.711639 46.402344 25.353516C46.655962 25.869811 46.801651 26.470822 46.882812 27L38 27C37.833333 27 37.549896 26.885834 37.332031 26.667969C37.114166 26.450104 37 26.166667 37 26L37 17 z M 14 35C16.27619 35 18 36.72381 18 39C18 41.27619 16.27619 43 14 43C11.72381 43 10 41.27619 10 39C10 36.72381 11.72381 35 14 35 z M 39 35C41.27619 35 43 36.72381 43 39C43 41.27619 41.27619 43 39 43C36.72381 43 35 41.27619 35 39C35 36.72381 36.72381 35 39 35 z" />
</svg>