<?xml version="1.0" encoding="utf-8"?>
<svg xmlns="http://www.w3.org/2000/svg" viewBox="0 0 50 50" width="515" height="515">
  <path d="M9.9003906 0.48632812L0.48632812 9.9003906L16.853516 26.267578L4.2929688 38.791016 A 1.0001 1.0001 0 0 0 4.0332031 39.242188L2.0332031 46.742188 A 1.0001 1.0001 0 0 0 3.2578125 47.966797L10.757812 45.966797 A 1.0001 1.0001 0 0 0 11.208984 45.707031L45.708984 11.105469L45.701172 11.097656L46.5 10.300781C48.4 8.4007812 48.4 5.3003906 46.5 3.4003906C44.6 1.5003906 41.499609 1.5003906 39.599609 3.4003906L38.800781 4.1992188L38.892578 4.2929688L26.28125 16.867188L9.9003906 0.48632812 z M 9.9003906 3.3144531L12.585938 6L11.292969 7.2929688L12.707031 8.7070312L14 7.4140625L15.585938 9L13.292969 11.292969L14.707031 12.707031L17 10.414062L18.585938 12L17.292969 13.292969L18.707031 14.707031L20 13.414062L21.585938 15L19.292969 17.292969L20.707031 18.707031L23 16.414062L24.865234 18.279297L18.269531 24.855469L3.3144531 9.9003906L9.9003906 3.3144531 z M 39.40625 4.8046875L44.824219 10.224609L44.291016 9.6933594L9.9921875 44.09375L5.90625 40.007812L40.306641 5.7089844L39.40625 4.8046875 z M 34.607422 25.193359L33.193359 26.607422L33.585938 27L31.292969 29.292969L32.707031 30.707031L35 28.414062L36.585938 30L35.292969 31.292969L36.707031 32.707031L38 31.414062L39.486328 32.900391L37.193359 35.193359L38.607422 36.607422L40.900391 34.314453L42.486328 35.900391L41.193359 37.193359L42.607422 38.607422L43.900391 37.314453L46.685547 40.099609L40.099609 46.685547L26.607422 33.193359L25.193359 34.607422L40.099609 49.513672L49.513672 40.099609L34.607422 25.193359 z" />
</svg>