<?xml version="1.0" encoding="utf-8"?>
<svg xmlns="http://www.w3.org/2000/svg" viewBox="0 0 50 50" width="515" height="515">
  <path d="M10.900391 1L1 10.900391L15.199219 25.099609L20.800781 19.400391L20.099609 18.599609L24.300781 14.400391L22.199219 12.300781L19.300781 15.099609L17.900391 13.699219L20.800781 10.900391L18.599609 8.6992188L14.400391 13L13 11.599609L17.199219 7.3007812L15.099609 5.1992188L12.300781 8L10.900391 6.5996094L13.699219 3.8007812L10.900391 1 z M 43.099609 2C41.899609 2 40.599219 2.5003906 39.699219 3.4003906L38.599609 4.5L37.900391 5.1992188L4.5058594 38.595703C4.2790408 38.734725 4.0781028 38.96491 4 39.199219L2 46.699219C1.9 47.099219 2.0007813 47.399219 2.3007812 47.699219C2.3159595 47.714397 2.3324343 47.720349 2.3476562 47.734375C2.3665031 47.75603 2.3796278 47.780018 2.4003906 47.800781C2.5003906 47.900781 2.7 48 3 48L3.3007812 48L10.800781 46L10.900391 46L11 46C11.1 46 11.200781 45.900781 11.300781 45.800781L45.599609 11.5L46.699219 10.400391C48.049219 8.9003906 48.385156 6.7789063 47.667969 5.0117188C47.549219 4.7179687 47.400781 4.434375 47.222656 4.1640625C47.044336 3.8935547 46.837109 3.6378906 46.599609 3.4003906C45.599609 2.4003906 44.399219 2 43.199219 2C43.183094 2 43.166551 2.005679 43.150391 2.0058594C43.133114 2.0056823 43.116921 2 43.099609 2 z M 43.099609 4C43.899609 4 44.599609 4.3007813 45.099609 4.8007812C46.199609 5.9007813 46.199609 7.7003906 45.099609 8.9003906C44.999609 9.0003906 44.900781 9.1007813 44.800781 9.3007812L40.699219 5.1992188C40.999219 4.9992187 41.099609 4.8007813 41.099609 4.8007812C41.599609 4.3007812 42.399609 4 43.099609 4 z M 36.300781 26.400391L33.5 29.199219L32 27.699219L24.900391 34.800781L39.099609 49L49 39.099609L46.900391 37L42.699219 41.300781L41.300781 39.800781L45.5 35.599609L43.400391 33.5L40.599609 36.300781L39.099609 34.900391L42 32.099609L39.800781 29.900391L35.599609 34.199219L34.199219 32.800781L38.400391 28.5L36.300781 26.400391 z M 5.5 41.5L8.421875 44.421875L4.4296875 45.492188L5.5 41.5 z" />
</svg>