<?xml version="1.0" encoding="utf-8"?>
<svg xmlns="http://www.w3.org/2000/svg" viewBox="0 0 50 50" width="515" height="515">
  <path d="M30.498047 2.9960938L30.421875 3.4648438C29.043922 3.1752807 27.604567 3 27 3C24.75 3 21.394656 3.2119219 20.847656 3.2949219C12.845656 4.5369219 8.4342344 9.715 7.3652344 19.125L3.3378906 26.066406C2.6248906 27.349406 3.0659063 28.910625 4.3789062 29.640625L7.4160156 31.160156L8.4003906 38.380859C8.8393906 41.118859 11.192281 43.108094 13.863281 42.996094L17 42.998047L17 47L35 47L37 47L37.017578 40.59375C37.017578 37.73275 37.924313 34.791797 39.820312 32.216797C40.543253 31.233987 41.481476 29.262897 42.251953 27.548828L44.669922 25.130859L42.201172 21.701172C42.451712 21.211054 42.66279 20.700778 42.833984 20.169922L47 19.439453L47 18.599609L47 14.5L42.830078 13.818359C42.657596 13.286858 42.44693 12.775932 42.195312 12.285156L44.623047 8.8242188L41.130859 5.3320312L37.710938 7.7890625C37.216893 7.534488 36.702406 7.3203921 36.166016 7.1464844L35.439453 2.9960938L30.498047 2.9960938 z M 32.199219 4.9960938L33.759766 4.9960938L34.400391 8.6582031L35.03125 8.8164062C35.855025 9.0219034 36.629348 9.347507 37.335938 9.7753906L37.900391 10.117188L40.917969 7.9472656L42.021484 9.0507812L39.876953 12.109375L40.210938 12.666016C40.634658 13.371322 40.957157 14.139176 41.162109 14.958984L41.322266 15.597656L45 16.199219L45 17.757812L41.318359 18.40625L41.162109 19.037109C40.959253 19.855683 40.636419 20.625091 40.212891 21.330078L39.875 21.894531L42.052734 24.919922L40.949219 26.023438L37.894531 23.878906L37.335938 24.21875C36.634633 24.645592 35.856812 24.973094 35.035156 25.181641L34.410156 25.339844L33.761719 29L32.197266 29L31.589844 25.349609L30.951172 25.191406C30.126043 24.987582 29.349166 24.663518 28.638672 24.236328L28.082031 23.900391L25.050781 26.023438L23.945312 24.917969L26.091797 21.916016L25.75 21.353516C25.317839 20.639511 24.992615 19.863434 24.787109 19.035156L24.630859 18.404297L21 17.761719L21 16.195312L24.630859 15.589844L24.791016 14.955078C24.998714 14.123389 25.323775 13.344631 25.753906 12.632812L26.091797 12.076172L23.974609 9.0488281L25.080078 7.9433594L28.087891 10.091797L28.650391 9.7539062C29.357327 9.3295664 30.135555 9.0067852 30.960938 8.8046875L31.603516 8.6484375L32.199219 4.9960938 z M 33 11.998047C30.250421 11.998047 28 14.248468 28 16.998047C28 19.747626 30.250421 21.998047 33 21.998047C35.749579 21.998047 38 19.747626 38 16.998047C38 14.248468 35.749579 11.998047 33 11.998047 z M 33 13.998047C34.668699 13.998047 36 15.329348 36 16.998047C36 18.666746 34.668699 19.998047 33 19.998047C31.331301 19.998047 30 18.666746 30 16.998047C30 15.329348 31.331301 13.998047 33 13.998047 z" />
</svg>