<?xml version="1.0" encoding="utf-8"?>
<svg xmlns="http://www.w3.org/2000/svg" viewBox="0 0 50 50" width="515" height="515">
  <path d="M30.498047 2.9960938L29.824219 7.1347656C29.28759 7.306387 28.772653 7.5168671 28.277344 7.7695312L24.863281 5.3300781L21.373047 8.8203125L23.773438 12.25C23.514982 12.750838 23.297388 13.271991 23.121094 13.816406L19 14.501953L19 19.4375L23.115234 20.166016C23.290496 20.709243 23.507394 21.229898 23.765625 21.730469L21.333984 25.132812L24.822266 28.625L28.259766 26.21875C28.757258 26.473819 29.275274 26.687804 29.814453 26.861328L30.501953 31L35.4375 31L36.173828 26.849609C36.711072 26.673866 37.227283 26.457872 37.722656 26.201172L41.175781 28.625L44.669922 25.130859L42.201172 21.701172C42.451712 21.211054 42.66279 20.700778 42.833984 20.169922L47 19.439453L47 18.599609L47 14.5L42.830078 13.818359C42.657596 13.286858 42.44693 12.775932 42.195312 12.285156L44.623047 8.8242188L41.130859 5.3320312L37.710938 7.7890625C37.216893 7.534488 36.702406 7.3203921 36.166016 7.1464844L35.439453 2.9960938L30.498047 2.9960938 z M 21.015625 3.28125 A 1.0001 1.0001 0 0 0 20.845703 3.2949219C16.069112 4.0363067 12.798817 6.1904509 10.722656 9.109375C8.6963508 11.958207 7.8053184 15.470076 7.3925781 19.078125L3.3417969 26.058594L3.3378906 26.066406C2.6485733 27.306863 3.088337 28.925636 4.3398438 29.621094L4.359375 29.630859L7.4160156 31.160156L8.4003906 38.369141L8.4023438 38.380859C8.8312394 41.061763 11.181506 43.105303 13.904297 42.996094L17 43L17 45L17 46L17 47L17.832031 47 A 1.0001 1.0001 0 0 0 18.158203 47L19 47L19 46L19 45L19 41L13.845703 40.996094L13.824219 40.996094C12.159009 41.062884 10.650057 39.771549 10.376953 38.064453L10.378906 38.087891L9.2558594 29.84375L5.3125 27.873047C4.9840066 27.690504 4.8972548 27.378605 5.0859375 27.039062L9.3066406 19.763672L9.3300781 19.552734C9.7080068 16.038392 10.572426 12.773607 12.353516 10.269531C14.134605 7.7654555 16.807888 5.9460996 21.154297 5.2714844 A 1.0001 1.0001 0 0 0 21.015625 3.28125 z M 32.199219 4.9960938L33.759766 4.9960938L34.400391 8.6582031L35.03125 8.8164062C35.855025 9.0219034 36.629348 9.347507 37.335938 9.7753906L37.900391 10.117188L40.917969 7.9472656L42.021484 9.0507812L39.876953 12.109375L40.210938 12.666016C40.634658 13.371322 40.957157 14.139176 41.162109 14.958984L41.322266 15.597656L45 16.199219L45 17.757812L41.318359 18.40625L41.162109 19.037109C40.959253 19.855683 40.636419 20.625091 40.212891 21.330078L39.875 21.894531L42.052734 24.919922L40.949219 26.023438L37.894531 23.878906L37.335938 24.21875C36.634633 24.645592 35.856812 24.973094 35.035156 25.181641L34.410156 25.339844L33.761719 29L32.197266 29L31.589844 25.349609L30.951172 25.191406C30.126043 24.987582 29.349166 24.663518 28.638672 24.236328L28.082031 23.900391L25.050781 26.023438L23.945312 24.917969L26.091797 21.916016L25.75 21.353516C25.317839 20.639511 24.992615 19.863434 24.787109 19.035156L24.630859 18.404297L21 17.761719L21 16.195312L24.630859 15.589844L24.791016 14.955078C24.998714 14.123389 25.323775 13.344631 25.753906 12.632812L26.091797 12.076172L23.974609 9.0488281L25.080078 7.9433594L28.087891 10.091797L28.650391 9.7539062C29.357327 9.3295664 30.135555 9.0067852 30.960938 8.8046875L31.603516 8.6484375L32.199219 4.9960938 z M 33 11.998047C30.250421 11.998047 28 14.248468 28 16.998047C28 19.747626 30.250421 21.998047 33 21.998047C35.749579 21.998047 38 19.747626 38 16.998047C38 14.248468 35.749579 11.998047 33 11.998047 z M 33 13.998047C34.668699 13.998047 36 15.329348 36 16.998047C36 18.666746 34.668699 19.998047 33 19.998047C31.331301 19.998047 30 18.666746 30 16.998047C30 15.329348 31.331301 13.998047 33 13.998047 z M 39.003906 30.630859 A 1.0001 1.0001 0 0 0 38.181641 31.070312C36.240355 33.843728 35.015625 37.112482 35.015625 40.59375L35.015625 45L35 45L35 47L35.847656 47 A 1.0001 1.0001 0 0 0 36.173828 47L37 47L37 46.1875 A 1.0001 1.0001 0 0 0 37.015625 46L37.015625 40.59375C37.015625 37.581018 38.073645 34.709382 39.818359 32.216797 A 1.0001 1.0001 0 0 0 39.003906 30.630859 z" />
</svg>