<?xml version="1.0" encoding="utf-8"?>
<svg xmlns="http://www.w3.org/2000/svg" viewBox="0 0 50 50" width="515" height="515">
  <path d="M29.984375 1.9863281 A 1.0001 1.0001 0 0 0 29.839844 2L7 2L7 48L43 48L43 47L43 15.167969 A 1.0001 1.0001 0 0 0 43 14.841797L43 14.585938L42.806641 14.392578 A 1.0001 1.0001 0 0 0 42.623047 14.207031 A 1.0001 1.0001 0 0 0 42.617188 14.203125L30.791016 2.3769531 A 1.0001 1.0001 0 0 0 30.603516 2.1894531L30.414062 2L30.154297 2 A 1.0001 1.0001 0 0 0 29.984375 1.9863281 z M 9 4L29 4L29 16L41 16L41 46L9 46L9 4 z M 31 5.4140625L39.585938 14L31 14L31 5.4140625 z M 15 22L15 24L35 24L35 22L15 22 z M 15 28L15 30L31 30L31 28L15 28 z M 15 34L15 36L35 36L35 34L15 34 z" />
</svg>