<?xml version="1.0" encoding="utf-8"?>
<svg xmlns="http://www.w3.org/2000/svg" viewBox="0 0 50 50" width="515" height="515">
  <path d="M20 2L20 7.7578125L30.236328 18.09375L30.242188 18L42 18L42 20L32 20L32 24L38 24L38 26L32 26L32 30L42 30L42 32L32 32L32 40L48 40L48 12.585938L47.707031 12.292969L37.707031 2.2929688L37.414062 2L20 2 z M 37 4.4140625L45.585938 13L37 13L37 4.4140625 z M 2 10L2 48L30 48L30 20.585938L29.707031 20.292969L19.707031 10.292969L19.414062 10L2 10 z M 19 12.414062L27.585938 21L19 21L19 12.414062 z M 8 26L24 26L24 28L8 28L8 26 z M 8 32L20 32L20 34L8 34L8 32 z M 8 38L24 38L24 40L8 40L8 38 z" />
</svg>