<?xml version="1.0" encoding="utf-8"?>
<svg xmlns="http://www.w3.org/2000/svg" viewBox="0 0 50 50" width="515" height="515">
  <path d="M11 4C6.039063 4 2 8.039063 2 13C2 15.832031 3.324219 18.347656 5.375 20L4 20C2.347656 20 1 21.347656 1 23L1 44C1 45.652344 2.347656 47 4 47L36 47C37.652344 47 39 45.652344 39 44L39 23C39 21.347656 37.652344 20 36 20L33.625 20C35.675781 18.347656 37 15.832031 37 13C37 8.039063 32.964844 4 28 4C24.0625 4 20.71875 6.535156 19.5 10.0625C18.28125 6.535156 14.9375 4 11 4 Z M 19.5 15.9375C20.058594 17.554688 21.066406 18.945313 22.375 20L16.625 20C17.933594 18.945313 18.941406 17.554688 19.5 15.9375 Z M 46.1875 24C44.882813 24 43.851563 25.191406 42.84375 26.34375C42.300781 26.964844 41.394531 28 41 28L40.9375 28L40.9375 40L41 40C41.417969 40 42.199219 40.980469 42.71875 41.625C43.652344 42.792969 44.617188 44 46 44L49 44L49 24Z" />
</svg>