<?xml version="1.0" encoding="utf-8"?>
<svg xmlns="http://www.w3.org/2000/svg" viewBox="0 0 50 50" width="515" height="515">
  <path d="M11 4C6.054688 4 2 8.054688 2 13C2 15.820313 3.324219 18.347656 5.375 20L4 20C2.355469 20 1 21.355469 1 23L1 44C1 45.644531 2.355469 47 4 47L36 47C37.644531 47 39 45.644531 39 44L39 40L41 40C41.078125 40 41.300781 40.082031 41.625 40.375C41.949219 40.667969 42.320313 41.125 42.71875 41.625C43.117188 42.125 43.53125 42.667969 44.03125 43.125C44.53125 43.582031 45.179688 44 46 44L49 44L49 24L46.1875 24C45.371094 24 44.765625 24.429688 44.25 24.875C43.734375 25.320313 43.28125 25.84375 42.84375 26.34375C42.40625 26.84375 41.976563 27.320313 41.625 27.625C41.273438 27.929688 41.03125 28 41 28L39 28L39 23C39 21.355469 37.644531 20 36 20L33.625 20C35.675781 18.347656 37 15.820313 37 13C37 8.054688 32.945313 4 28 4C24.074219 4 20.71875 6.566406 19.5 10.09375C18.28125 6.566406 14.925781 4 11 4 Z M 11 6C14.855469 6 18 9.144531 18 13C18 16.855469 14.855469 20 11 20C7.144531 20 4 16.855469 4 13C4 9.144531 7.144531 6 11 6 Z M 28 6C31.855469 6 35 9.144531 35 13C35 16.855469 31.855469 20 28 20C24.144531 20 21 16.855469 21 13C21 9.144531 24.144531 6 28 6 Z M 19.5 15.90625C20.058594 17.527344 21.0625 18.941406 22.375 20L16.625 20C17.9375 18.941406 18.941406 17.527344 19.5 15.90625 Z M 4 22L36 22C36.554688 22 37 22.445313 37 23L37 28.8125C36.972656 28.945313 36.972656 29.085938 37 29.21875L37 38.8125C36.972656 38.945313 36.972656 39.085938 37 39.21875L37 44C37 44.554688 36.554688 45 36 45L4 45C3.445313 45 3 44.554688 3 44L3 23C3 22.445313 3.445313 22 4 22 Z M 46.1875 26L47 26L47 42L46 42C45.921875 42 45.699219 41.917969 45.375 41.625C45.050781 41.332031 44.679688 40.875 44.28125 40.375C43.882813 39.875 43.46875 39.332031 42.96875 38.875C42.46875 38.417969 41.820313 38 41 38L39 38L39 30L41 30C41.816406 30 42.421875 29.570313 42.9375 29.125C43.453125 28.679688 43.90625 28.15625 44.34375 27.65625C44.78125 27.15625 45.210938 26.679688 45.5625 26.375C45.914063 26.070313 46.15625 26 46.1875 26Z" />
</svg>