<?xml version="1.0" encoding="utf-8"?>
<svg xmlns="http://www.w3.org/2000/svg" viewBox="0 0 50 50" width="515" height="515">
  <path d="M25 3C23.894531 3 23 3.894531 23 5C23 6.105469 23.894531 7 25 7C26.105469 7 27 6.105469 27 5C27 3.894531 26.105469 3 25 3 Z M 25 9C23.894531 9 23 9.894531 23 11C23 12.105469 23.894531 13 25 13C26.105469 13 27 12.105469 27 11C27 9.894531 26.105469 9 25 9 Z M 24.78125 14.96875C23.75 15.082031 22.976563 15.964844 23 17L23 34.1875L19.40625 30.59375C19.03125 30.199219 18.511719 29.972656 17.96875 29.96875C17.15625 29.976563 16.429688 30.472656 16.128906 31.226563C15.824219 31.980469 16.011719 32.839844 16.59375 33.40625L23.34375 40.125C23.371094 40.179688 23.402344 40.230469 23.4375 40.28125L23.59375 40.40625C24.019531 40.835938 24.613281 41.046875 25.214844 40.988281C25.816406 40.925781 26.355469 40.597656 26.6875 40.09375L33.40625 33.40625C34.003906 32.925781 34.273438 32.148438 34.101563 31.402344C33.929688 30.652344 33.347656 30.070313 32.597656 29.898438C31.851563 29.726563 31.074219 29.996094 30.59375 30.59375L27 34.1875L27 17C27.007813 16.457031 26.796875 15.9375 26.414063 15.554688C26.03125 15.171875 25.511719 14.960938 24.96875 14.96875C24.90625 14.964844 24.84375 14.964844 24.78125 14.96875 Z M 2 33L2 44.90625C2 46.589844 3.410156 48 5.09375 48L44.90625 48C46.589844 48 48 46.589844 48 44.90625L48 33L44 33L44 44L6 44L6 33Z" />
</svg>