<?xml version="1.0" encoding="utf-8"?>
<svg xmlns="http://www.w3.org/2000/svg" viewBox="0 0 50 50" width="515" height="515">
  <path d="M11 9 A 1.0001 1.0001 0 0 0 10 10L10 13L5 13 A 1.0001 1.0001 0 0 0 4 14L4 21L1 21 A 1.0001 1.0001 0 0 0 0 22L0 28 A 1.0001 1.0001 0 0 0 1 29L4 29L4 36 A 1.0001 1.0001 0 0 0 5 37L10 37L10 40 A 1.0001 1.0001 0 0 0 11 41L18 41 A 1.0001 1.0001 0 0 0 19 40L19 29L31 29L31 40 A 1.0001 1.0001 0 0 0 32 41L39 41 A 1.0001 1.0001 0 0 0 40 40L40 37L45 37 A 1.0001 1.0001 0 0 0 46 36L46 29L49 29 A 1.0001 1.0001 0 0 0 50 28L50 22 A 1.0001 1.0001 0 0 0 49 21L46 21L46 14 A 1.0001 1.0001 0 0 0 45 13L40 13L40 10 A 1.0001 1.0001 0 0 0 39 9L32 9 A 1.0001 1.0001 0 0 0 31 10L31 21L19 21L19 10 A 1.0001 1.0001 0 0 0 18 9L11 9 z M 12 11L17 11L17 22L17 28L17 39L12 39L12 36L12 14L12 11 z M 33 11L38 11L38 14L38 36L38 39L33 39L33 28L33 22L33 11 z M 6 15L10 15L10 35L6 35L6 28L6 22L6 15 z M 40 15L44 15L44 22L44 28L44 35L40 35L40 15 z M 2 23L4 23L4 27L2 27L2 23 z M 19 23L31 23L31 27L19 27L19 23 z M 46 23L48 23L48 27L46 27L46 23 z" />
</svg>