<?xml version="1.0" encoding="utf-8"?>
<svg xmlns="http://www.w3.org/2000/svg" viewBox="0 0 50 50" width="515" height="515">
  <path d="M14 9C12.894531 9 12 9.894531 12 11L12 39C12 40.105469 12.894531 41 14 41L16 41C17.105469 41 18 40.105469 18 39L18 28L32 28L32 39C32 40.105469 32.894531 41 34 41L36 41C37.105469 41 38 40.105469 38 39L38 11C38 9.894531 37.105469 9 36 9L34 9C32.894531 9 32 9.894531 32 11L32 22L18 22L18 11C18 9.894531 17.105469 9 16 9 Z M 7 13C5.894531 13 5 13.894531 5 15L5 35C5 36.105469 5.894531 37 7 37L10 37L10 13 Z M 40 13L40 37L43 37C44.105469 37 45 36.105469 45 35L45 15C45 13.894531 44.105469 13 43 13 Z M 1 22C0.449219 22 0 22.449219 0 23L0 27C0 27.550781 0.449219 28 1 28L3 28L3 22 Z M 47 22L47 28L49 28C49.550781 28 50 27.550781 50 27L50 23C50 22.449219 49.550781 22 49 22Z" />
</svg>