<?xml version="1.0" encoding="utf-8"?>
<svg xmlns="http://www.w3.org/2000/svg" viewBox="0 0 50 50" width="515" height="515">
  <path d="M43.050781 1.9746094C41.800781 1.9746094 40.549609 2.4503906 39.599609 3.4003906L38.800781 4.1992188L45.699219 11.099609L46.5 10.300781C48.4 8.4007812 48.4 5.3003906 46.5 3.4003906C45.55 2.4503906 44.300781 1.9746094 43.050781 1.9746094 z M 37.482422 6.0898438 A 1.0001 1.0001 0 0 0 36.794922 6.3925781L4.2949219 38.791016 A 1.0001 1.0001 0 0 0 4.0332031 39.242188L2.0332031 46.742188 A 1.0001 1.0001 0 0 0 3.2578125 47.966797L10.757812 45.966797 A 1.0001 1.0001 0 0 0 11.208984 45.705078L43.607422 13.205078 A 1.0001 1.0001 0 1 0 42.191406 11.794922L9.9921875 44.09375L5.90625 40.007812L38.205078 7.8085938 A 1.0001 1.0001 0 0 0 37.482422 6.0898438 z" />
</svg>