<?xml version="1.0" encoding="utf-8"?>
<svg xmlns="http://www.w3.org/2000/svg" viewBox="0 0 50 50" width="515" height="515">
  <path d="M8 20C4.6875 20 2 22.6875 2 26C2 29.3125 4.6875 32 8 32C11.3125 32 14 29.3125 14 26C14 22.6875 11.3125 20 8 20 Z M 25 20C21.6875 20 19 22.6875 19 26C19 29.3125 21.6875 32 25 32C28.3125 32 31 29.3125 31 26C31 22.6875 28.3125 20 25 20 Z M 42 20C38.6875 20 36 22.6875 36 26C36 29.3125 38.6875 32 42 32C45.3125 32 48 29.3125 48 26C48 22.6875 45.3125 20 42 20Z" />
</svg>