<?xml version="1.0" encoding="utf-8"?>
<svg xmlns="http://www.w3.org/2000/svg" viewBox="0 0 50 50" width="515" height="515">
  <path d="M8 20C4.699219 20 2 22.699219 2 26C2 29.300781 4.699219 32 8 32C11.300781 32 14 29.300781 14 26C14 22.699219 11.300781 20 8 20 Z M 25 20C21.699219 20 19 22.699219 19 26C19 29.300781 21.699219 32 25 32C28.300781 32 31 29.300781 31 26C31 22.699219 28.300781 20 25 20 Z M 42 20C38.699219 20 36 22.699219 36 26C36 29.300781 38.699219 32 42 32C45.300781 32 48 29.300781 48 26C48 22.699219 45.300781 20 42 20 Z M 8 22C10.222656 22 12 23.777344 12 26C12 28.222656 10.222656 30 8 30C5.777344 30 4 28.222656 4 26C4 23.777344 5.777344 22 8 22 Z M 25 22C27.222656 22 29 23.777344 29 26C29 28.222656 27.222656 30 25 30C22.777344 30 21 28.222656 21 26C21 23.777344 22.777344 22 25 22 Z M 42 22C44.222656 22 46 23.777344 46 26C46 28.222656 44.222656 30 42 30C39.777344 30 38 28.222656 38 26C38 23.777344 39.777344 22 42 22Z" />
</svg>