<?xml version="1.0" encoding="utf-8"?>
<svg xmlns="http://www.w3.org/2000/svg" viewBox="0 0 50 50" width="515" height="515">
  <path d="M25 12C11.670079 12 1.2402344 24.349609 1.2402344 24.349609 A 1.0001 1.0001 0 0 0 1.2402344 25.650391C1.2402344 25.650391 11.670079 38 25 38C38.329921 38 48.759766 25.650391 48.759766 25.650391 A 1.0001 1.0001 0 0 0 48.759766 24.349609C48.759766 24.349609 38.329921 12 25 12 z M 25 14C27.666112 14 30.212194 14.553163 32.568359 15.404297C34.139995 17.208282 35 19.393698 35 22C35 27.564481 30.564481 32 25 32C19.435519 32 15 27.564481 15 22C15 19.529654 15.953508 17.215563 17.443359 15.400391C19.796306 14.551646 22.338246 14 25 14 z M 14.193359 16.810547C13.442083 18.392394 13 20.15076 13 22C13 28.635519 18.364481 34 25 34C31.635519 34 37 28.635519 37 22C37 20.133827 36.599868 18.400669 35.869141 16.841797C41.528438 19.719577 45.586723 23.897166 46.605469 25C45.01112 26.725948 35.992156 36 25 36C14.007844 36 4.9888798 26.725948 3.3945312 25C4.4169897 23.893147 8.501685 19.689196 14.193359 16.810547 z M 25 17 A 5 5 0 0 0 25 27 A 5 5 0 0 0 25 17 z" />
</svg>