<?xml version="1.0" encoding="utf-8"?>
<svg xmlns="http://www.w3.org/2000/svg" viewBox="0 0 50 50" width="515" height="515">
  <path d="M11.300781 2C6.1645496 2 2 6.1645496 2 11.300781L2 38.800781C2 43.937013 6.1645496 48.099609 11.300781 48.099609L38.800781 48.099609C43.937013 48.099609 48.099609 43.937013 48.099609 38.800781L48.099609 11.289062L48.099609 11.277344C47.988214 6.1531405 43.848929 2 38.800781 2L11.300781 2 z M 11.300781 4L38.800781 4C42.752633 4 46.011005 7.2464683 46.099609 11.322266L46.099609 38.800781C46.099609 42.864549 42.864549 46.099609 38.800781 46.099609L33 46.099609L33 29L37.847656 29L39.179688 21L33 21L33 19C33 18.45 33.05476 18.405705 33.251953 18.279297C33.44915 18.152889 34.029365 18 35 18L39 18L39 11.271484L38.306641 11.048828C38.306641 11.048828 35.129885 10 32 10C29.096296 10 26.957792 10.953443 25.679688 12.632812C24.401582 14.312183 24 16.536525 24 19L24 21L21 21L21 29L24 29L24 46.099609L11.300781 46.099609C7.2370133 46.099609 4 42.864549 4 38.800781L4 11.300781C4 7.2370133 7.2370133 4 11.300781 4 z M 32 12C34.168683 12 36.174546 12.537635 37 12.773438L37 16L35 16C33.870635 16 32.949678 16.09711 32.171875 16.595703C31.394072 17.094295 31 18.05 31 19L31 23L36.820312 23L36.152344 27L31 27L31 46.099609L26 46.099609L26 27L23 27L23 23L26 23L26 19C26 16.763475 26.399589 14.98938 27.271484 13.84375C28.14338 12.69812 29.503704 12 32 12 z" />
</svg>