<?xml version="1.0" encoding="utf-8"?>
<svg xmlns="http://www.w3.org/2000/svg" viewBox="0 0 50 50" width="515" height="515">
  <path d="M33 5L17 5L17 1C17 0.449219 16.550781 0 16 0L13 0C12.449219 0 12 0.449219 12 1L12 40C12 43.71875 15.496094 46 18 46L33 46C35.757813 46 38 43.757813 38 41L38 10C38 7.242188 35.757813 5 33 5 Z M 19 42C17.894531 42 17 41.105469 17 40C17 38.894531 17.894531 38 19 38C20.105469 38 21 38.894531 21 40C21 41.105469 20.105469 42 19 42 Z M 19 36C17.894531 36 17 35.105469 17 34C17 32.894531 17.894531 32 19 32C20.105469 32 21 32.894531 21 34C21 35.105469 20.105469 36 19 36 Z M 19 30C17.894531 30 17 29.105469 17 28C17 26.894531 17.894531 26 19 26C20.105469 26 21 26.894531 21 28C21 29.105469 20.105469 30 19 30 Z M 25 42C23.894531 42 23 41.105469 23 40C23 38.894531 23.894531 38 25 38C26.105469 38 27 38.894531 27 40C27 41.105469 26.105469 42 25 42 Z M 25 36C23.894531 36 23 35.105469 23 34C23 32.894531 23.894531 32 25 32C26.105469 32 27 32.894531 27 34C27 35.105469 26.105469 36 25 36 Z M 25 30C23.894531 30 23 29.105469 23 28C23 26.894531 23.894531 26 25 26C26.105469 26 27 26.894531 27 28C27 29.105469 26.105469 30 25 30 Z M 31 42C29.894531 42 29 41.105469 29 40C29 38.894531 29.894531 38 31 38C32.105469 38 33 38.894531 33 40C33 41.105469 32.105469 42 31 42 Z M 31 36C29.894531 36 29 35.105469 29 34C29 32.894531 29.894531 32 31 32C32.105469 32 33 32.894531 33 34C33 35.105469 32.105469 36 31 36 Z M 31 30C29.894531 30 29 29.105469 29 28C29 26.894531 29.894531 26 31 26C32.105469 26 33 26.894531 33 28C33 29.105469 32.105469 30 31 30 Z M 33 21C33 22.101563 32.101563 23 31 23L19 23C17.898438 23 17 22.101563 17 21L17 13C17 11.898438 17.898438 11 19 11L31 11C32.101563 11 33 11.898438 33 13Z" />
</svg>