<?xml version="1.0" encoding="utf-8"?>
<svg xmlns="http://www.w3.org/2000/svg" viewBox="0 0 50 50" width="515" height="515">
  <path d="M25 2C12.309295 2 2 12.309295 2 25C2 37.10445 11.38131 47.035383 23.259766 47.927734C23.283183 47.929635 23.306615 47.931766 23.330078 47.933594C23.882405 47.973392 24.437631 48 25 48C25.562369 48 26.117595 47.973392 26.669922 47.933594C26.693385 47.931766 26.716817 47.929635 26.740234 47.927734C38.61869 47.035383 48 37.10445 48 25C48 12.309295 37.690705 2 25 2 z M 25 4C36.609824 4 46 13.390176 46 25C46 30.74713 43.693205 35.9449 39.960938 39.734375C38.247134 38.673375 35.834016 38.420141 34.041016 37.824219C32.017016 37.152219 29.611 36.126 29 35C31.418 34.694 37 33.661719 37 31.386719C37 31.104719 36.880875 30.836484 36.671875 30.646484C35.982875 30.022484 36.022688 26.768297 36.054688 24.154297C36.115688 19.188297 36.185391 13.559797 33.275391 10.716797C32.133391 9.5997969 30.632453 9.0314375 28.814453 9.0234375C27.888453 8.3844375 26.557156 8.0214844 25.035156 8.0214844L25.019531 8.0214844C14.594531 8.7714844 14.342781 18.501453 14.175781 24.939453C14.112781 27.361453 14.042891 30.105469 13.337891 30.730469C13.123891 30.920469 13 31.192516 13 31.478516C13 33.649516 17.016 34.49 21 35C20.436 36.168 17.038 37.329 15 38C13.232285 38.582306 11.550788 38.71222 10.027344 39.722656C6.3019163 35.934184 4 30.741167 4 25C4 13.390176 13.390176 4 25 4 z" />
</svg>