<?xml version="1.0" encoding="utf-8"?>
<svg xmlns="http://www.w3.org/2000/svg" viewBox="0 0 50 50" width="515" height="515">
  <path d="M1 0 A 1.0001 1.0001 0 0 0 0 1L0 4 A 1.0001 1.0001 0 0 0 0.27148438 4.6855469L16 21.396484L16 39 A 1.0001 1.0001 0 0 0 16.486328 39.857422L26.486328 45.857422 A 1.0001 1.0001 0 0 0 28 45L28 21.396484L43.632812 4.7871094 A 1.0001 1.0001 0 0 0 43.929688 4.3789062 A 1.0001 1.0001 0 0 0 43.9375 4.3632812 A 1.0001 1.0001 0 0 0 44 3.8496094L44 1 A 1.0001 1.0001 0 0 0 43 0L1 0 z M 2 2L42 2L42 3.6035156L26.568359 20L17.431641 20L2 3.6035156L2 2 z M 18 22L26 22L26 43.234375L18 38.433594L18 22 z" />
</svg>