<?xml version="1.0" encoding="utf-8"?>
<svg xmlns="http://www.w3.org/2000/svg" viewBox="0 0 50 50" width="515" height="515">
  <path d="M19.875 0.40625C19.414063 0.414063 18.992188 0.425781 18.5625 0.46875C18.457031 0.480469 18.355469 0.488281 18.25 0.5C17.929688 0.539063 17.613281 0.597656 17.3125 0.65625C17.109375 0.695313 16.914063 0.734375 16.71875 0.78125C16.550781 0.820313 16.378906 0.859375 16.21875 0.90625C14.359375 1.4375 12.90625 2.390625 11.875 3.75C9.941406 6.296875 9.589844 10.144531 10.8125 15.21875C10.363281 15.769531 10.023438 16.605469 10.15625 17.71875C10.421875 19.921875 11.277344 20.828125 12 21.1875C12.34375 22.917969 13.296875 24.863281 14.21875 25.78125L14.21875 26.25C14.226563 27.265625 14.222656 28.144531 14.125 29.28125C13.511719 30.6875 11.476563 31.511719 9.125 32.4375C7.191406 33.199219 5.054688 34.066406 3.3125 35.46875C3.292969 35.484375 3.269531 35.484375 3.25 35.5C1.5 36.929688 0.183594 38.90625 0 41.9375L-0.0625 43L28.875 43C30.691406 44.847656 33.210938 46 36 46C38.394531 46 40.589844 45.160156 42.3125 43.75L48.28125 49.71875L49.71875 48.28125L43.75 42.3125C45.160156 40.589844 46 38.394531 46 36C46 30.484375 41.515625 26 36 26C32.375 26 29.222656 27.949219 27.46875 30.84375C27.042969 30.582031 26.660156 30.3125 26.375 30C26.230469 29.839844 26.078125 29.65625 25.96875 29.4375C25.988281 29.40625 26.011719 29.375 26.03125 29.34375C26.019531 29.324219 25.980469 29.304688 25.96875 29.28125C25.871094 28.148438 25.898438 27.292969 25.90625 26.28125L25.90625 25.78125C26.804688 24.863281 27.726563 22.921875 28.0625 21.1875C28.136719 21.148438 28.207031 21.082031 28.28125 21.03125C28.375 20.96875 28.46875 20.898438 28.5625 20.8125C29.125 20.308594 29.707031 19.386719 29.90625 17.71875C30.039063 16.628906 29.71875 15.800781 29.28125 15.25C29.859375 13.269531 31.050781 8.144531 29 4.84375C28.238281 3.617188 27.125 2.78125 25.6875 2.375C25.503906 2.320313 25.316406 2.289063 25.125 2.25C24.644531 1.640625 23.929688 1.1875 23.03125 0.875C22.832031 0.804688 22.625 0.710938 22.40625 0.65625C22.386719 0.652344 22.363281 0.660156 22.34375 0.65625C22.121094 0.601563 21.898438 0.539063 21.65625 0.5C21.636719 0.496094 21.613281 0.503906 21.59375 0.5C21.085938 0.425781 20.523438 0.40625 19.9375 0.40625C19.917969 0.40625 19.894531 0.40625 19.875 0.40625 Z M 36 28C40.410156 28 44 31.589844 44 36C44 40.410156 40.410156 44 36 44C31.589844 44 28 40.410156 28 36C28 31.589844 31.589844 28 36 28Z" />
</svg>