<?xml version="1.0" encoding="utf-8"?>
<svg xmlns="http://www.w3.org/2000/svg" viewBox="0 0 50 50" width="515" height="515">
  <path d="M13 0C7.9826599 0 4.8944056 0.50356787 3.0136719 1.0371094C2.073305 1.3038801 1.4349279 1.578976 1.0117188 1.8046875C0.78748997 1.9242762 0.76375418 1.9635772 0.640625 2.0546875 A 1.0001 1.0001 0 0 0 0.021484375 2.7910156 A 1.0001 1.0001 0 0 0 0.005859375 2.890625 A 1.0001 1.0001 0 0 0 0 2.9824219 A 1.0001 1.0001 0 0 0 0 2.9902344 A 1.0001 1.0001 0 0 0 0 3L0 30L0 49 A 1.0001 1.0001 0 1 0 2 49L2 30.708984C2.2735428 30.582134 2.6744914 30.356248 4.2070312 29.970703C6.1166053 29.490307 9.0323045 29 13 29C16.885391 29 19.777801 29.954372 23.300781 30.960938C26.823761 31.967503 30.937955 33 37 33C43.998507 33 49.492188 29.871094 49.492188 29.871094 A 1.0001 1.0001 0 0 0 50 29L50 4 A 1.0001 1.0001 0 0 0 48.513672 3.125C47.69614 3.5791846 43.03545 6 37 6C32.2 6 28.867181 4.5797416 25.355469 3.0800781C21.843757 1.5804147 18.15202 2.9605947e-16 13 0 z" />
</svg>