<?xml version="1.0" encoding="utf-8"?>
<svg xmlns="http://www.w3.org/2000/svg" viewBox="0 0 50 50" width="515" height="515">
  <path d="M36.90625 -0.03125C36.863281 -0.0234375 36.820313 -0.0117188 36.78125 0C36.316406 0.105469 35.988281 0.523438 36 1L36 15C35.996094 15.359375 36.183594 15.695313 36.496094 15.878906C36.808594 16.058594 37.191406 16.058594 37.503906 15.878906C37.816406 15.695313 38.003906 15.359375 38 15L38 1C38.011719 0.710938 37.894531 0.433594 37.6875 0.238281C37.476563 0.0390625 37.191406 -0.0585938 36.90625 -0.03125 Z M 42.90625 -0.03125C42.863281 -0.0234375 42.820313 -0.0117188 42.78125 0C42.316406 0.105469 41.988281 0.523438 42 1L42 15C41.996094 15.359375 42.183594 15.695313 42.496094 15.878906C42.808594 16.058594 43.191406 16.058594 43.503906 15.878906C43.816406 15.695313 44.003906 15.359375 44 15L44 1C44.011719 0.710938 43.894531 0.433594 43.6875 0.238281C43.476563 0.0390625 43.191406 -0.0585938 42.90625 -0.03125 Z M 48.90625 -0.03125C48.863281 -0.0234375 48.820313 -0.0117188 48.78125 0C48.316406 0.105469 47.988281 0.523438 48 1L48 19C48 21.773438 45.773438 24 43 24C42.449219 24 42 24.449219 42 25L42 49C41.996094 49.359375 42.183594 49.695313 42.496094 49.878906C42.808594 50.058594 43.191406 50.058594 43.503906 49.878906C43.816406 49.695313 44.003906 49.359375 44 49L44 25.78125C47.363281 25.273438 50 22.5 50 19L50 1C50.011719 0.710938 49.894531 0.433594 49.6875 0.238281C49.476563 0.0390625 49.191406 -0.0585938 48.90625 -0.03125 Z M 1 0C0.449219 0 0 0.449219 0 1L0 18C0 25.304688 5 31.695313 12 33.5L12 43C12 46.316406 9.644531 48 5 48C4.449219 48 4 48.445313 4 49C4 49.554688 4.449219 50 5 50L27 50C27.554688 50 28 49.554688 28 49C28 48.445313 27.554688 48 27 48C22.355469 48 20 46.316406 20 43L20 33.5C27 31.695313 32 25.304688 32 18L32 1C32 0.449219 31.554688 0 31 0Z" />
</svg>