<?xml version="1.0" encoding="utf-8"?>
<svg xmlns="http://www.w3.org/2000/svg" viewBox="0 0 50 50" width="515" height="515">
  <path d="M19 2C17.417 2 16.103679 2.6299431 15.253906 3.5859375C14.404134 4.5419319 14.001953 5.7760747 14.001953 6.9980469C14.001953 8.220019 14.404134 9.4561154 15.253906 10.412109C16.103679 11.368104 17.417 11.998047 19 11.998047C20.583 11.998047 21.896321 11.368104 22.746094 10.412109C23.595866 9.4561154 23.998047 8.220019 23.998047 6.9980469C23.998047 5.7760747 23.595866 4.5419319 22.746094 3.5859375C21.896321 2.6299431 20.583 2 19 2 z M 30 2C28.416667 2 27.101892 2.6297556 26.251953 3.5859375C25.402014 4.5421194 25 5.7777779 25 7C25 8.2222221 25.402014 9.4578811 26.251953 10.414062C27.101892 11.370245 28.416667 12 30 12C31.583333 12 32.898108 11.370244 33.748047 10.414062C34.597986 9.4578811 35 8.2222221 35 7C35 5.7777779 34.597986 4.5421194 33.748047 3.5859375C32.898108 2.6297556 31.583333 2 30 2 z M 19 4C20.082999 4 20.768726 4.3704319 21.251953 4.9140625C21.73518 5.4576931 21.998047 6.220519 21.998047 6.9980469C21.998047 7.7755747 21.73518 8.5403538 21.251953 9.0839844C20.768726 9.627615 20.082999 9.9980469 19 9.9980469C17.917001 9.9980469 17.231274 9.627615 16.748047 9.0839844C16.26482 8.5403538 16.001953 7.7755747 16.001953 6.9980469C16.001953 6.220519 16.26482 5.4576931 16.748047 4.9140625C17.231274 4.3704319 17.917001 4 19 4 z M 30 4C31.083333 4 31.768559 4.3702444 32.251953 4.9140625C32.735347 5.4578806 33 6.2222221 33 7C33 7.7777779 32.735347 8.5421194 32.251953 9.0859375C31.768559 9.6297556 31.083333 10 30 10C28.916667 10 28.231441 9.6297556 27.748047 9.0859375C27.264653 8.5421194 27 7.7777779 27 7C27 6.2222221 27.264653 5.4578806 27.748047 4.9140625C28.231441 4.3702444 28.916667 4 30 4 z M 37.144531 11.003906C36.570936 10.977487 36.016857 11.112896 35.546875 11.375C35.546875 11.375 35.546875 11.373047 35.546875 11.373047C35.514035 11.388417 35.464675 11.410703 35.402344 11.439453C35.277688 11.496943 35.101076 11.579679 34.886719 11.677734C34.458005 11.873845 33.87902 12.136838 33.261719 12.417969C32.027116 12.980231 30.637824 13.611718 29.976562 13.912109C29.846609 13.971131 29.713395 14 29.566406 14L14.625 14 A 1.0001 1.0001 0 0 0 14.623047 14C13.363817 14.0014 12.116478 14.637682 11.453125 15.810547 A 1.0001 1.0001 0 0 0 11.384766 15.958984L9.3886719 21.435547C8.8819567 22.419612 8.8747036 23.591822 9.3867188 24.578125L9.3476562 24.496094L11.599609 30.001953 A 1.0001 1.0001 0 0 0 11.638672 30.085938C12.135031 31.039469 13.016182 31.668874 14 31.902344L14 44.707031C14 46.628639 15.699758 48 17.5 48C18.53746 48 19.361741 47.46708 20 46.738281C20.638281 47.467411 21.464217 48 22.501953 48C23.443083 48 24.350103 47.618593 25.007812 46.986328C25.664403 47.619357 26.565832 48 27.5 48C28.51474 48 29.48582 47.552826 30.150391 46.828125C30.729841 47.524118 31.515569 48 32.5 48C34.300242 48 36 46.628639 36 44.707031L36 31.892578C36.983659 31.659866 37.864863 31.032726 38.361328 30.080078L38.382812 30.039062L40.652344 24.492188L40.613281 24.574219C41.126077 23.586414 41.118723 22.410695 40.609375 21.425781L38.777344 16.402344C39.702416 15.712453 40.216703 14.490495 39.904297 13.242188C39.636814 12.169163 38.7991 11.34221 37.724609 11.085938 A 1.0001 1.0001 0 0 0 37.722656 11.085938C37.52972 11.040052 37.33573 11.012713 37.144531 11.003906 z M 36.857422 13.007812C36.979291 12.990372 37.111638 12.996022 37.259766 13.03125C37.577275 13.10698 37.884374 13.411588 37.962891 13.726562 A 1.0001 1.0001 0 0 0 37.964844 13.726562C38.095977 14.250542 37.864092 14.653498 37.498047 14.865234C37.583167 14.815854 37.440286 14.893644 37.304688 14.958984C37.169084 15.024324 36.980902 15.114538 36.755859 15.220703C36.305774 15.433034 35.707131 15.713486 35.058594 16.015625C33.761519 16.619903 32.26939 17.309917 31.376953 17.722656 A 1.0001 1.0001 0 0 0 31.375 17.724609C30.982938 17.906729 30.555462 18 30.119141 18L25 18 A 1.0001 1.0001 0 0 0 24 19L24 44.660156C24 44.668243 24.001895 44.675526 24.001953 44.683594 A 1.0001 1.0001 0 0 0 24.001953 44.707031C24.001953 45.351424 23.243711 46 22.501953 46C21.769623 46 21.135776 45.402595 21.001953 44.583984L21.001953 31.998047 A 1.0001 1.0001 0 1 0 19.001953 31.998047L19.001953 44.580078C18.869818 45.401124 18.233732 46 17.5 46C16.758242 46 16 45.351424 16 44.707031L16 20.998047 A 1.0001 1.0001 0 0 0 14.984375 19.984375 A 1.0001 1.0001 0 0 0 14 20.998047L14 29.771484C13.758111 29.627055 13.553179 29.422609 13.417969 29.166016L11.199219 23.738281 A 1.0001 1.0001 0 0 0 11.162109 23.65625C10.935825 23.220356 10.944396 22.724692 11.1875 22.296875 A 1.0001 1.0001 0 0 0 11.257812 22.144531L13.212891 16.785156C13.493122 16.307032 14.053946 16.001247 14.625 16L29.566406 16C29.989418 16 30.412688 15.9114 30.802734 15.734375C31.464473 15.433767 32.85615 14.801019 34.091797 14.238281C34.70962 13.956912 35.288058 13.693109 35.71875 13.496094C35.934096 13.397584 36.111933 13.315036 36.240234 13.255859C36.304384 13.226269 36.355428 13.203847 36.394531 13.185547C36.433631 13.167247 36.369631 13.206054 36.521484 13.121094L36.521484 13.123047C36.624163 13.065783 36.735553 13.025253 36.857422 13.007812 z M 36.984375 17.322266L38.771484 22.220703L38.8125 22.292969C39.055802 22.721132 39.064347 23.216119 38.837891 23.652344L38.818359 23.693359L36.582031 29.158203C36.446905 29.41434 36.241932 29.619606 36 29.763672L36 20.998047 A 1.0001 1.0001 0 0 0 34.984375 19.984375 A 1.0001 1.0001 0 0 0 34 20.998047L34 44.707031C34 45.351424 33.241758 46 32.5 46C31.767663 46 31.133815 45.402606 31 44.583984L31 31.998047 A 1.0001 1.0001 0 1 0 29 31.998047L29 44.652344 A 1.0001 1.0001 0 0 0 29 44.707031C29 45.352921 28.242282 46 27.5 46C26.758923 46 26.00139 45.375252 26 44.662109C25.999999 44.661454 26 44.660812 26 44.660156L26 44.65625L26 20L30.119141 20C30.842819 20 31.558859 19.842894 32.216797 19.537109C33.110554 19.123758 34.602998 18.433461 35.902344 17.828125C36.314341 17.636185 36.636223 17.485403 36.984375 17.322266 z" />
</svg>