<?xml version="1.0" encoding="utf-8"?>
<svg xmlns="http://www.w3.org/2000/svg" viewBox="0 0 50 50" width="515" height="515">
  <path d="M6 6L6 18 A 1.0001 1.0001 0 1 0 8 18L8 8L18 8 A 1.0001 1.0001 0 1 0 18 6L6 6 z M 32 6 A 1.0001 1.0001 0 1 0 32 8L42 8L42 18 A 1.0001 1.0001 0 1 0 44 18L44 6L32 6 z M 6.984375 30.986328 A 1.0001 1.0001 0 0 0 6 32L6 44L18 44 A 1.0001 1.0001 0 1 0 18 42L8 42L8 32 A 1.0001 1.0001 0 0 0 6.984375 30.986328 z M 42.984375 30.986328 A 1.0001 1.0001 0 0 0 42 32L42 42L32 42 A 1.0001 1.0001 0 1 0 32 44L44 44L44 32 A 1.0001 1.0001 0 0 0 42.984375 30.986328 z" />
</svg>