<?xml version="1.0" encoding="utf-8"?>
<svg xmlns="http://www.w3.org/2000/svg" viewBox="0 0 50 50" width="515" height="515">
  <path d="M24 2.1035156C20.731 2.7535156 17.824047 6.5455156 15.998047 11.978516L24 11.978516L24 2.1035156 z M 26 2.1035156L26 11.978516L34.001953 11.978516C32.175953 6.5455156 29.269 2.7535156 26 2.1035156 z M 18.908203 2.8242188C13.621203 4.2782187 9.0916875 7.5735156 6.0546875 11.978516L13.845703 11.978516C15.057703 8.0895156 16.806203 4.9242187 18.908203 2.8242188 z M 31.091797 2.8242188C33.193797 4.9232188 34.942297 8.0895156 36.154297 11.978516L43.945312 11.978516C40.908313 7.5745156 36.378797 4.2782187 31.091797 2.8242188 z M 4.7949219 14.021484C3.1649219 17.010484 2.1803906 20.4 2.0253906 24L12.011719 24C12.082719 20.412 12.525391 17.040484 13.275391 14.021484L4.7949219 14.021484 z M 15.384766 14.021484C14.580766 17.027484 14.090672 20.423 14.013672 24L24 24L24 14.021484L15.384766 14.021484 z M 26 14.021484L26 24L35.986328 24C35.908328 20.423 35.419234 17.027484 34.615234 14.021484L26 14.021484 z M 36.724609 14.021484C37.474609 17.039484 37.916328 20.412 37.986328 24L47.974609 24C47.819609 20.4 46.836078 17.010484 45.205078 14.021484L36.724609 14.021484 z M 2.0253906 26C2.1803906 29.6 3.1639219 32.989516 4.7949219 35.978516L13.275391 35.978516C12.525391 32.959516 12.083672 29.588 12.013672 26L2.0253906 26 z M 14.013672 26C14.091672 29.577 14.580766 32.972516 15.384766 35.978516L24 35.978516L24 26L14.013672 26 z M 26 26L26 35.978516L34.615234 35.978516C35.419234 32.972516 35.909328 29.578 35.986328 26L26 26 z M 37.988281 26C37.917281 29.588 37.474609 32.959516 36.724609 35.978516L45.205078 35.978516C46.835078 32.989516 47.819609 29.6 47.974609 26L37.988281 26 z M 6.0546875 38.021484C9.0916875 42.425484 13.621203 45.721781 18.908203 47.175781C16.806203 45.076781 15.057703 41.910484 13.845703 38.021484L6.0546875 38.021484 z M 15.998047 38.021484C17.824047 43.454484 20.731 47.246484 24 47.896484L24 38.021484L15.998047 38.021484 z M 26 38.021484L26 47.896484C29.269 47.246484 32.175953 43.454484 34.001953 38.021484L26 38.021484 z M 36.154297 38.021484C34.942297 41.910484 33.193797 45.075781 31.091797 47.175781C36.378797 45.721781 40.908312 42.426484 43.945312 38.021484L36.154297 38.021484 z" />
</svg>