<?xml version="1.0" encoding="utf-8"?>
<svg xmlns="http://www.w3.org/2000/svg" viewBox="0 0 50 50" width="515" height="515">
  <path d="M25 2C12.309288 2 2 12.309297 2 25C2 37.690703 12.309288 48 25 48C37.690712 48 48 37.690703 48 25C48 12.309297 37.690712 2 25 2 z M 24 4.1171875L24 12.978516L16.84375 12.978516C17.221497 11.864277 17.648263 10.828475 18.117188 9.890625C19.762863 6.5992691 21.848157 4.5956549 24 4.1171875 z M 26 4.1171875C28.151843 4.5956549 30.237137 6.5992691 31.882812 9.890625C32.351737 10.828475 32.778503 11.864277 33.15625 12.978516L26 12.978516L26 4.1171875 z M 19.181641 4.8203125C18.103823 5.9520279 17.142748 7.3668464 16.328125 8.9960938C15.724465 10.203414 15.201215 11.546048 14.748047 12.978516L7.7890625 12.978516C10.508878 9.0892432 14.504558 6.1636478 19.181641 4.8203125 z M 30.818359 4.8203125C35.495442 6.1636478 39.491122 9.0892432 42.210938 12.978516L35.251953 12.978516C34.798785 11.546048 34.275535 10.203414 33.671875 8.9960938C32.857252 7.3668464 31.896177 5.9520279 30.818359 4.8203125 z M 6.5136719 15.021484L14.173828 15.021484C13.495031 17.760714 13.095466 20.792198 13.025391 24L4.0253906 24C4.1768518 20.759749 5.0593562 17.713363 6.5136719 15.021484 z M 16.238281 15.021484L24 15.021484L24 24L15.025391 24C15.100796 20.760412 15.530139 17.711424 16.238281 15.021484 z M 26 15.021484L33.761719 15.021484C34.469861 17.711424 34.899204 20.760412 34.974609 24L26 24L26 15.021484 z M 35.826172 15.021484L43.486328 15.021484C44.940644 17.713363 45.823148 20.759749 45.974609 24L36.974609 24C36.904534 20.792198 36.504969 17.760714 35.826172 15.021484 z M 4.0253906 26L13.025391 26C13.095466 29.207802 13.495031 32.239286 14.173828 34.978516L6.5136719 34.978516C5.0593562 32.286637 4.1768518 29.240251 4.0253906 26 z M 15.025391 26L24 26L24 34.978516L16.238281 34.978516C15.530139 32.288576 15.100796 29.239588 15.025391 26 z M 26 26L34.974609 26C34.899204 29.239588 34.469861 32.288576 33.761719 34.978516L26 34.978516L26 26 z M 36.974609 26L45.974609 26C45.823148 29.240251 44.940644 32.286637 43.486328 34.978516L35.826172 34.978516C36.504969 32.239286 36.904534 29.207802 36.974609 26 z M 7.7890625 37.021484L14.748047 37.021484C15.201215 38.453952 15.724465 39.796586 16.328125 41.003906C17.142748 42.633154 18.103823 44.047972 19.181641 45.179688C14.504558 43.836352 10.508878 40.910757 7.7890625 37.021484 z M 16.84375 37.021484L24 37.021484L24 45.882812C21.848157 45.404345 19.762863 43.400731 18.117188 40.109375C17.648263 39.171525 17.221497 38.135723 16.84375 37.021484 z M 26 37.021484L33.15625 37.021484C32.778503 38.135723 32.351737 39.171525 31.882812 40.109375C30.237137 43.400731 28.151843 45.404345 26 45.882812L26 37.021484 z M 35.251953 37.021484L42.210938 37.021484C39.491122 40.910757 35.495442 43.836352 30.818359 45.179688C31.896177 44.047972 32.857252 42.633154 33.671875 41.003906C34.275535 39.796586 34.798785 38.453952 35.251953 37.021484 z" />
</svg>