<?xml version="1.0" encoding="utf-8"?>
<svg xmlns="http://www.w3.org/2000/svg" width="515" height="515" viewBox="0 0 50 50">
  <path d="M25.080078 2C12.389366 2 2.0800781 12.309297 2.0800781 25C2.0800781 37.690703 12.389366 48 25.080078 48C37.770791 48 48.080078 37.690703 48.080078 25C48.080078 12.309297 37.770791 2 25.080078 2 z M 25.080078 4C36.689911 4 46.080078 13.390175 46.080078 25C46.080078 36.609825 36.689911 46 25.080078 46C13.470245 46 4.0800781 36.609825 4.0800781 25C4.0800781 13.390175 13.470245 4 25.080078 4 z M 24.080078 6.1328125C21.488078 6.7708125 19.194375 9.841125 17.734375 14.203125C19.747375 14.615125 21.885078 14.857062 24.080078 14.914062L24.080078 6.1328125 z M 26.080078 6.1328125L26.080078 14.914062C28.297078 14.858062 30.435641 14.62275 32.431641 14.21875C30.971641 9.84875 28.674078 6.7708125 26.080078 6.1328125 z M 19.498047 6.8398438C16.292047 7.8268437 13.459656 9.6519687 11.222656 12.042969C12.583656 12.719969 14.111766 13.285375 15.759766 13.734375C16.692766 10.887375 17.972047 8.5258437 19.498047 6.8398438 z M 30.662109 6.8398438C32.191109 8.5288438 33.47325 10.897953 34.40625 13.751953C36.06925 13.298953 37.596594 12.725109 38.933594 12.037109C36.697594 9.6481094 33.865109 7.8258437 30.662109 6.8398438 z M 40.242188 13.599609C38.696188 14.438609 36.914984 15.132969 34.958984 15.667969C35.599984 18.186969 35.983688 21 36.054688 24L44.029297 24C43.825297 20.108 42.450187 16.528609 40.242188 13.599609 z M 9.9082031 13.611328C7.7052031 16.538328 6.3348594 20.113 6.1308594 24L14.105469 24C14.176469 20.994 14.561078 18.175344 15.205078 15.652344C13.267078 15.122344 11.481203 14.436328 9.9082031 13.611328 z M 17.162109 16.123047C16.547109 18.508047 16.178469 21.186 16.105469 24L24.080078 24L24.080078 16.914062C21.692078 16.854063 19.358109 16.584047 17.162109 16.123047 z M 33 16.138672C30.822 16.591672 28.490078 16.856063 26.080078 16.914062L26.080078 24L34.054688 24C33.981687 21.192 33.613 18.519672 33 16.138672 z M 6.1308594 26C6.3348594 29.892 7.7099687 33.471391 9.9179688 36.400391C11.463969 35.561391 13.245172 34.867031 15.201172 34.332031C14.560172 31.813031 14.176469 29 14.105469 26L6.1308594 26 z M 16.105469 26C16.178469 28.808 16.547156 31.480328 17.160156 33.861328C19.338156 33.408328 21.670078 33.143937 24.080078 33.085938L24.080078 26L16.105469 26 z M 26.080078 26L26.080078 33.085938C28.468078 33.145937 30.800094 33.415953 32.996094 33.876953C33.611094 31.491953 33.981687 28.814 34.054688 26L26.080078 26 z M 36.054688 26C35.983687 29.006 35.599078 31.824656 34.955078 34.347656C36.893078 34.877656 38.678953 35.563672 40.251953 36.388672C42.454953 33.461672 43.825297 29.887 44.029297 26L36.054688 26 z M 24.080078 35.085938C21.863078 35.141937 19.724516 35.37725 17.728516 35.78125C19.188516 40.15125 21.486078 43.229188 24.080078 43.867188L24.080078 35.085938 z M 26.080078 35.085938L26.080078 43.867188C28.672078 43.229187 30.965781 40.158875 32.425781 35.796875C30.412781 35.384875 28.275078 35.142938 26.080078 35.085938 z M 15.753906 36.248047C14.090906 36.701047 12.563562 37.274891 11.226562 37.962891C13.462562 40.351891 16.295047 42.174156 19.498047 43.160156C17.969047 41.471156 16.686906 39.102047 15.753906 36.248047 z M 34.400391 36.265625C33.467391 39.112625 32.186156 41.474156 30.660156 43.160156C33.866156 42.173156 36.7005 40.348031 38.9375 37.957031C37.5765 37.280031 36.048391 36.714625 34.400391 36.265625 z" />
</svg>