<?xml version="1.0" encoding="utf-8"?>
<svg xmlns="http://www.w3.org/2000/svg" viewBox="0 0 50 50" width="515" height="515">
  <path d="M5.5 7C3.0385965 7 1 9.0385965 1 11.5L1 38.5C1 40.961404 3.0385965 43 5.5 43L44.5 43C46.961404 43 49 40.961404 49 38.5L49 11.5C49 11.486654 48.996213 11.474258 48.996094 11.460938C48.996537 11.440306 49 11.421244 49 11.400391L48.990234 11.400391C48.934958 8.9848435 46.92738 7 44.5 7L5.5 7 z M 8.171875 9L41.865234 9L25 20.779297L8.171875 9 z M 4.8398438 9.1074219L25 23.220703L45.189453 9.1171875C46.192029 9.4257198 46.96467 10.363517 46.994141 11.4375C46.975926 11.681812 46.765817 12.080784 46.462891 12.412109C46.146099 12.7586 45.833984 12.976563 45.833984 12.976562L45.828125 12.980469L24.998047 27.775391L4.171875 13.080078L4.1660156 13.076172C4.1660156 13.076172 3.8539008 12.860163 3.5371094 12.513672C3.2203595 12.167182 3 11.739744 3 11.5C3 10.389458 3.8030909 9.4120336 4.8398438 9.1074219 z M 47 14.597656L47 38.5C47 39.838596 45.838596 41 44.5 41L44 41L44 16.732422L46.966797 14.625L46.974609 14.617188C46.974952 14.616953 46.998058 14.599 47 14.597656 z M 3 14.699219C3.0016742 14.700381 3.0230849 14.716556 3.0234375 14.716797L3.0273438 14.720703L3.0332031 14.724609L6 16.818359L6 41L5.5 41C4.1614035 41 3 39.838596 3 38.5L3 14.699219 z M 42 18.152344L42 41L8 41L8 18.228516L25.001953 30.224609L42 18.152344 z" />
</svg>