<?xml version="1.0" encoding="utf-8"?>
<svg xmlns="http://www.w3.org/2000/svg" viewBox="0 0 50 50" width="515" height="515">
  <path d="M34.230469 4.109375C33.212313 4.1691816 32.19892 4.4327663 31.251953 4.90625L25.744141 7.5996094L10.121094 7.5996094L1.2382812 5.4277344 A 1.0001 1.0001 0 0 0 0.93945312 5.3984375 A 1.0001 1.0001 0 0 0 0.76171875 7.3710938L9.8789062 9.5996094L21.652344 9.5996094L13.060547 13.800781L13.148438 13.763672C11.721815 14.298655 11.328527 16.216872 12.382812 17.291016C15.363459 20.581615 20.097406 21.675418 24.267578 20.029297L30.152344 17.767578L42.292969 29.90625C43.212219 30.8255 43.212219 32.274109 42.292969 33.193359C41.373719 34.11261 39.927063 34.11261 39.007812 33.193359 A 1.0001 1.0001 0 0 0 37.59375 34.607422C38.513 35.526672 38.513 36.973328 37.59375 37.892578C36.6745 38.811828 35.225891 38.811828 34.306641 37.892578L33.607422 37.193359 A 1.0001 1.0001 0 0 0 32.193359 38.607422C33.11261 39.526672 33.11261 40.973328 32.193359 41.892578C31.274109 42.811828 29.8255 42.811828 28.90625 41.892578L28.207031 41.193359 A 1.0001 1.0001 0 0 0 26.792969 42.607422C27.712219 43.526672 27.712219 44.973328 26.792969 45.892578C25.873719 46.811828 24.427063 46.811828 23.507812 45.892578L22.265625 44.648438L23.007812 43.90625C24.472081 42.441983 24.472081 40.058017 23.007812 38.59375C22.275679 37.861616 21.312096 37.494141 20.349609 37.494141C20.333286 37.494141 20.317103 37.497835 20.300781 37.498047C20.312932 36.519844 19.951121 35.537058 19.207031 34.792969C18.474898 34.060835 17.513268 33.695312 16.550781 33.695312C16.496504 33.695312 16.442914 33.708612 16.388672 33.710938C16.432287 32.694885 16.080061 31.665999 15.306641 30.892578C14.574507 30.160445 13.612877 29.794922 12.650391 29.794922C12.596113 29.794922 12.542524 29.808222 12.488281 29.810547C12.531471 28.794983 12.179288 27.765225 11.40625 26.992188C10.674116 26.260054 9.7124866 25.894531 8.75 25.894531C7.7875134 25.894531 6.8258836 26.260053 6.09375 26.992188L5.1738281 27.912109L1.171875 27.214844 A 1.0001 1.0001 0 0 0 0.97265625 27.197266 A 1.0001 1.0001 0 0 0 0.828125 29.185547L4.1152344 29.755859C3.8144264 30.989996 4.1325055 32.345396 5.09375 33.306641C5.8666776 34.079568 6.8952463 34.431739 7.9101562 34.388672C7.8669667 35.404236 8.2191497 36.433994 8.9921875 37.207031C9.7656082 37.980452 10.794494 38.332678 11.810547 38.289062C11.766932 39.305115 12.119158 40.334001 12.892578 41.107422C13.648066 41.86291 14.647616 42.221365 15.640625 42.197266C15.616875 43.184453 15.95682 44.169709 16.693359 44.90625C17.741291 45.954181 19.257849 46.239123 20.574219 45.787109L22.09375 47.306641C23.7745 48.98739 26.526281 48.98739 28.207031 47.306641C29.020725 46.492947 29.421432 45.426431 29.447266 44.353516C30.889927 44.734637 32.482364 44.431696 33.607422 43.306641C34.421116 42.492947 34.821822 41.426431 34.847656 40.353516C36.289835 40.733823 37.88324 40.431216 39.007812 39.306641C39.970625 38.343829 40.316057 37.038721 40.175781 35.775391C41.439112 35.915666 42.744219 35.570234 43.707031 34.607422C44.776899 33.537554 45.159351 32.034337 44.867188 30.648438L45.474609 30.041016L49.148438 29.488281 A 1.0001 1.0001 0 0 0 49.021484 27.498047 A 1.0001 1.0001 0 0 0 48.851562 27.511719L44.525391 28.160156L43.925781 28.759766C43.850747 28.671468 43.79032 28.575476 43.707031 28.492188L31.40625 16.193359 A 1.0001 1.0001 0 0 0 31.240234 16.054688 A 1.0003735 1.0003735 0 0 0 30.041016 15.666016L23.537109 18.167969L23.533203 18.169922C20.114034 19.519594 16.264501 18.621364 13.84375 15.931641L13.826172 15.912109L13.806641 15.892578C13.678045 15.763983 13.684334 15.69943 13.851562 15.636719L13.896484 15.619141L26.220703 9.5917969 A 1.0001 1.0001 0 0 0 26.832031 9.2949219L32.142578 6.6972656L32.146484 6.6953125C34.000589 5.76826 36.168184 5.9408975 37.863281 7.0976562L38.320312 7.6464844L38.433594 7.7246094C40.268202 8.9859023 42.49412 9.3398494 44.568359 8.7636719L49.208984 7.7773438 A 1.0001 1.0001 0 1 0 48.791016 5.8222656L44.0625 6.828125L44.033203 6.8359375C42.533355 7.2525654 40.989745 7.0051033 39.640625 6.1054688L39.183594 5.5566406L39.074219 5.4804688C37.925767 4.6765527 36.600447 4.2178352 35.248047 4.1171875C34.909947 4.0920256 34.569854 4.0894395 34.230469 4.109375 z M 8.75 27.855469C9.1875134 27.855469 9.6243211 28.038384 9.9921875 28.40625C10.72792 29.141983 10.72792 30.156845 9.9921875 30.892578L8.9921875 31.892578C8.2564546 32.628311 7.2435454 32.628311 6.5078125 31.892578C5.9100295 31.294795 5.8060731 30.51454 6.1796875 29.847656 A 1.0001 1.0001 0 0 0 6.5859375 29.328125L7.5078125 28.40625C7.8756789 28.038384 8.3124866 27.855469 8.75 27.855469 z M 12.650391 31.755859C13.087904 31.755859 13.524712 31.938774 13.892578 32.306641C14.628311 33.042373 14.628311 34.057236 13.892578 34.792969L12.892578 35.792969C12.156845 36.528702 11.141983 36.528702 10.40625 35.792969C9.6705171 35.057236 9.6705171 34.042373 10.40625 33.306641L11.40625 32.306641C11.774116 31.938774 12.212877 31.755859 12.650391 31.755859 z M 16.550781 35.65625C16.988295 35.65625 17.425102 35.839165 17.792969 36.207031C18.386652 36.800715 18.493342 37.574416 18.128906 38.238281C17.979101 38.3488 17.828887 38.458222 17.693359 38.59375L16.675781 39.609375L16.660156 39.626953C16.55116 39.746849 16.464912 39.879922 16.373047 40.009766C15.70157 40.397826 14.910794 40.297514 14.306641 39.693359C13.570908 38.957627 13.570908 37.942764 14.306641 37.207031L15.306641 36.207031C15.674507 35.839165 16.113268 35.65625 16.550781 35.65625 z M 20.349609 39.455078C20.787123 39.455078 21.225884 39.639947 21.59375 40.007812C22.329483 40.743546 22.329483 41.756455 21.59375 42.492188L20.59375 43.492188C19.858017 44.227919 18.843155 44.227919 18.107422 43.492188C17.629333 43.014099 17.536952 42.077804 17.880859 41.373047C17.990493 41.285687 18.105626 41.208827 18.207031 41.107422L19.207031 40.107422C19.342559 39.971894 19.45206 39.821732 19.5625 39.671875C19.814755 39.532984 20.081039 39.455078 20.349609 39.455078 z" />
</svg>