<?xml version="1.0" encoding="utf-8"?>
<svg xmlns="http://www.w3.org/2000/svg" viewBox="0 0 50 50" width="515" height="515">
  <path d="M15 3.976563C11.675781 3.976563 8.351563 5.25 5.800781 7.800781C0.699219 12.902344 0.699219 21.097656 5.800781 26.199219L8.867188 29.265625C8.824219 29.476563 8.800781 29.6875 8.800781 29.902344C8.800781 30.699219 9.097656 31.398438 9.699219 32L11.097656 33.402344C11.582031 33.980469 12.347656 34.273438 13.125 34.292969C13.175781 34.980469 13.460938 35.660156 14 36.199219L15.402344 37.597656C15.949219 38.148438 16.589844 38.433594 17.308594 38.480469C17.328125 39.246094 17.621094 39.921875 18.199219 40.5L19.597656 41.902344C20.082031 42.480469 20.847656 42.773438 21.621094 42.792969C21.664063 43.511719 21.949219 44.148438 22.5 44.699219L23.902344 46.097656C24.5 46.699219 25.199219 47 26 47C26.699219 47 27.5 46.699219 28.097656 46.097656L31.097656 43.097656C31.613281 42.628906 31.890625 42.011719 31.96875 41.363281C32.613281 41.285156 33.195313 41.003906 33.699219 40.5L35.5 38.699219C36.039063 38.160156 36.324219 37.480469 36.375 36.792969C37.152344 36.773438 37.917969 36.480469 38.402344 35.902344L39.800781 34.5C40.363281 33.984375 40.648438 33.292969 40.6875 32.582031C41.421875 32.539063 42.144531 32.246094 42.699219 31.597656L44.097656 30.199219C45.214844 29.175781 45.28125 27.46875 44.320313 26.265625C46.644531 23.878906 48 20.636719 48 17.199219C48 13.699219 46.699219 10.300781 44.199219 7.898438C39.097656 2.800781 30.800781 2.800781 25.699219 7.800781L24.949219 8.550781L24.199219 7.800781C21.648438 5.25 18.324219 3.976563 15 3.976563 Z M 15 6C17.800781 6 20.601563 7.097656 22.800781 9.199219L23.5 9.898438L18.402344 15C16.601563 16.800781 16.601563 19.699219 18.402344 21.5C19.300781 22.398438 20.5 22.902344 21.699219 22.902344C22.898438 22.902344 24 22.5 24.902344 21.597656L30.894531 15.605469L42.597656 27.5C43 27.898438 43 28.5 42.597656 28.902344L41.199219 30.300781C40.800781 30.699219 40.199219 30.699219 39.800781 30.300781L33.699219 24.300781C33.300781 23.902344 32.699219 23.902344 32.300781 24.300781C31.902344 24.699219 31.902344 25.300781 32.300781 25.699219L38.402344 31.699219C38.800781 32.097656 38.800781 32.699219 38.402344 33.097656L37 34.5C36.601563 34.898438 36 34.898438 35.597656 34.5L29.597656 28.5C29.386719 28.285156 29.117188 28.195313 28.847656 28.207031C28.582031 28.195313 28.3125 28.285156 28.097656 28.5C27.699219 28.898438 27.699219 29.5 28.097656 29.902344L34.097656 35.902344C34.300781 36.101563 34.402344 36.300781 34.402344 36.597656C34.402344 36.898438 34.300781 37.101563 34.097656 37.300781L32.300781 39.097656C32.070313 39.328125 31.777344 39.410156 31.496094 39.378906C31.382813 39.210938 31.25 39.050781 31.097656 38.902344L29.699219 37.5C29.167969 36.96875 28.429688 36.703125 27.683594 36.683594C27.644531 35.972656 27.359375 35.257813 26.800781 34.699219L25.402344 33.300781C24.886719 32.742188 24.199219 32.453125 23.492188 32.417969C23.472656 31.652344 23.179688 30.980469 22.597656 30.402344L21.199219 29C20.667969 28.46875 19.929688 28.203125 19.183594 28.183594C19.144531 27.472656 18.859375 26.757813 18.300781 26.199219L16.902344 24.800781C15.800781 23.601563 13.898438 23.601563 12.699219 24.800781L9.949219 27.550781L7.199219 24.800781C2.898438 20.5 2.898438 13.5 7.199219 9.199219C9.398438 7.097656 12.199219 6 15 6 Z M 34.902344 6.101563C37.699219 6.101563 40.5 7.199219 42.699219 9.300781L42.800781 9.398438C44.902344 11.5 46 14.199219 46 17.199219C46 20.03125 44.945313 22.761719 42.941406 24.84375L31.699219 13.597656C31.679688 13.582031 31.65625 13.574219 31.640625 13.558594C31.621094 13.539063 31.617188 13.515625 31.597656 13.5C31.199219 13.101563 30.597656 13.101563 30.199219 13.5L23.5 20.199219C22.5 21.199219 20.800781 21.199219 19.800781 20.199219C19.300781 19.699219 19 19 19 18.300781C19 17.601563 19.300781 16.902344 19.800781 16.402344L25.550781 10.652344L25.597656 10.699219L27.097656 9.300781C29.199219 7.199219 32.101563 6.101563 34.902344 6.101563 Z M 14.902344 25.800781C15.101563 25.800781 15.398438 25.898438 15.597656 26.097656L17 27.5C17.398438 27.898438 17.398438 28.5 17 28.902344L14 31.902344C13.601563 32.300781 13 32.300781 12.597656 31.902344L11.199219 30.5C11 30.300781 10.902344 30.101563 10.902344 29.800781C10.902344 29.5 11 29.300781 11.199219 29.097656L14.199219 26.097656C14.398438 25.898438 14.601563 25.800781 14.902344 25.800781 Z M 19.097656 30.097656C19.398438 30.097656 19.601563 30.199219 19.800781 30.402344L21.199219 31.800781C21.398438 32 21.5 32.199219 21.5 32.5C21.5 32.800781 21.398438 33 21.199219 33.199219L18.199219 36.199219C17.800781 36.597656 17.199219 36.597656 16.800781 36.199219L15.402344 34.800781C15 34.402344 15 33.800781 15.402344 33.402344L18.402344 30.402344C18.601563 30.199219 18.800781 30.097656 19.097656 30.097656 Z M 23.339844 34.300781C23.601563 34.300781 23.851563 34.398438 24 34.597656L25.402344 36C25.800781 36.398438 25.800781 37 25.402344 37.402344L22.402344 40.402344C22 40.800781 21.398438 40.800781 21 40.402344L19.597656 39C19.398438 38.800781 19.300781 38.601563 19.300781 38.300781C19.300781 38 19.398438 37.800781 19.597656 37.597656L22.597656 34.597656C22.800781 34.398438 23.074219 34.300781 23.339844 34.300781 Z M 27.597656 38.597656C27.898438 38.597656 28.101563 38.699219 28.300781 38.902344L29.699219 40.300781C29.898438 40.5 30 40.699219 30 41C30 41.300781 29.898438 41.5 29.699219 41.699219L26.699219 44.699219C26.300781 45.097656 25.699219 45.097656 25.300781 44.699219L23.902344 43.300781C23.699219 43.101563 23.597656 42.898438 23.597656 42.597656C23.597656 42.300781 23.699219 42.101563 23.902344 41.902344L26.902344 38.902344C27.101563 38.699219 27.300781 38.597656 27.597656 38.597656Z" />
</svg>