<?xml version="1.0" encoding="utf-8"?>
<svg xmlns="http://www.w3.org/2000/svg" viewBox="0 0 50 50" width="515" height="515">
  <path d="M25 2C12.264481 2 2 12.264481 2 25C2 37.735519 12.264481 48 25 48C37.735519 48 48 37.735519 48 25C48 12.264481 37.735519 2 25 2 z M 25 4C36.664481 4 46 13.335519 46 25C46 36.664481 36.664481 46 25 46C13.335519 46 4 36.664481 4 25C4 13.335519 13.335519 4 25 4 z M 17 19 A 3 3 0 0 0 17 25 A 3 3 0 0 0 17 19 z M 33 19 A 3 3 0 0 0 33 25 A 3 3 0 0 0 33 19 z M 11.957031 29.988281 A 1.0001 1.0001 0 0 0 11.185547 31.582031C11.185547 31.582031 16.416667 39 25 39C33.583333 39 38.814453 31.582031 38.814453 31.582031 A 1.0010463 1.0010463 0 0 0 37.185547 30.417969C37.185547 30.417969 32.416667 37 25 37C17.583333 37 12.814453 30.417969 12.814453 30.417969 A 1.0001 1.0001 0 0 0 11.957031 29.988281 z" />
</svg>