<?xml version="1.0" encoding="utf-8"?>
<svg xmlns="http://www.w3.org/2000/svg" viewBox="0 0 50 50" width="515" height="515">
  <path d="M25 3C16.422439 3 9.2481028 9.3650875 8.1933594 17.746094C7.2564513 18.029141 6.495909 18.729342 6.2207031 19.652344C5.146134 20.038099 4.2181273 20.84395 3.53125 21.869141C2.5645171 23.312026 2 25.216571 2 27.300781C2 29.37622 2.5345711 31.278589 3.4902344 32.726562C4.1755177 33.764871 5.120163 34.577733 6.2246094 34.958984C6.5895228 36.161912 7.7795525 37 9.0996094 37C10.684458 37 12.099609 35.799219 12.099609 34.199219L12.099609 20.400391C12.099609 19.187698 11.284798 18.207752 10.201172 17.802734C11.215765 10.503418 17.474756 5 25 5C32.514184 5 38.78035 10.595713 39.798828 17.802734C38.715202 18.207752 37.900391 19.187698 37.900391 20.400391L37.900391 34.199219C37.900391 35.454282 38.775638 36.453176 39.916016 36.830078C39.718198 38.315825 39.158748 39.472553 38.308594 40.314453C37.235975 41.376658 35.651418 42 33.5 42L30.175781 42C29.72766 40.934496 28.861486 40.099609 27.699219 40.099609L22.900391 40.099609L23 40.105469C21.349778 39.940447 20 41.354545 20 43C20 44.645455 21.367057 45.900391 22.900391 45.900391L27.699219 45.900391C28.938559 45.900391 29.76265 45.037869 30.189453 44L33.5 44C36.048582 44 38.214416 43.224123 39.716797 41.736328C40.968202 40.497072 41.709863 38.796824 41.925781 36.818359C42.80794 36.513546 43.513216 35.831986 43.777344 34.949219C44.852731 34.564316 45.781463 33.758223 46.46875 32.732422C47.435483 31.289537 48 29.384992 48 27.300781C48 25.216571 47.435483 23.312026 46.46875 21.869141C45.781873 20.84395 44.853866 20.038099 43.779297 19.652344C43.504091 18.729342 42.743549 18.029141 41.806641 17.746094C40.74857 9.4513418 33.583182 3 25 3 z M 9.0996094 19.599609C9.7147609 19.599609 10.099609 20.000391 10.099609 20.400391L10.099609 34.199219C10.099609 34.599219 9.7147609 35 9.0996094 35C8.4844579 35 8.0996094 34.599219 8.0996094 34.199219L8.0996094 20.400391C8.0996094 20.000391 8.4844579 19.599609 9.0996094 19.599609 z M 40.900391 19.599609C41.515542 19.599609 41.900391 20.000391 41.900391 20.400391L41.900391 34.199219C41.900391 34.599219 41.515542 35 40.900391 35C40.285239 35 39.900391 34.599219 39.900391 34.199219L39.900391 20.400391C39.900391 20.000391 40.285239 19.599609 40.900391 19.599609 z M 6.0996094 22L6.0996094 32.638672C5.766957 32.384085 5.4481151 32.061301 5.1601562 31.625C4.4658195 30.572975 4 29.025343 4 27.300781C4 25.584992 4.4850923 24.039537 5.1933594 22.982422C5.4740054 22.563547 5.7819586 22.252208 6.0996094 22 z M 43.900391 22C44.218041 22.252208 44.525995 22.563547 44.806641 22.982422C45.514908 24.039537 46 25.584992 46 27.300781C46 29.016571 45.514908 30.562026 44.806641 31.619141C44.526113 32.037839 44.217897 32.347808 43.900391 32.599609L43.900391 22 z M 22.800781 42.095703L22.849609 42.099609L27.699219 42.099609C28.165885 42.099609 28.599609 42.445455 28.599609 43C28.599609 43.466667 28.253764 43.900391 27.699219 43.900391L22.900391 43.900391C22.433724 43.900397 22 43.554545 22 43C22 42.445455 22.451004 42.060725 22.800781 42.095703 z" />
</svg>