<?xml version="1.0" encoding="utf-8"?>
<svg xmlns="http://www.w3.org/2000/svg" viewBox="0 0 50 50" width="515" height="515">
  <path d="M14.099609 4C6.3440542 4 -1.1842379e-15 10.461968 0 18.300781C0 26.431426 4.6652219 32.439829 9.9824219 37.042969C15.299622 41.646108 21.359677 45.008865 24.322266 47.736328 A 1.0001 1.0001 0 0 0 25.677734 47.736328C28.640323 45.008865 34.700378 41.646108 40.017578 37.042969C45.334778 32.439829 50 26.431426 50 18.300781C50 10.471101 43.748336 4 35.900391 4C31.428824 4 27.545391 6.1773346 24.998047 9.4433594C22.432941 6.1695069 18.488875 4 14.099609 4 z M 14.099609 6C18.244054 6 22.039928 8.2235018 24.158203 11.539062 A 1.0001 1.0001 0 0 0 25.841797 11.539062C27.967152 8.2124198 31.648217 6 35.900391 6C42.652445 6 48 11.530462 48 18.300781C48 25.670136 43.814831 31.10939 38.707031 35.53125C33.864231 39.723698 28.411545 42.827717 25 45.759766C21.588455 42.827717 16.135769 39.723698 11.292969 35.53125C6.1851685 31.10939 2 25.670136 2 18.300781C2 11.539594 7.4551653 6 14.099609 6 z" />
</svg>