<?xml version="1.0" encoding="utf-8"?>
<svg xmlns="http://www.w3.org/2000/svg" width="515" height="515" viewBox="0 0 50 50">
  <path d="M25 2C12.309288 2 2 12.309297 2 25C2 37.690703 12.309288 48 25 48C37.690712 48 48 37.690703 48 25C48 12.309297 37.690712 2 25 2 z M 25 4C36.609833 4 46 13.390175 46 25C46 36.609825 36.609833 46 25 46C13.390167 46 4 36.609825 4 25C4 13.390175 13.390167 4 25 4 z M 25.289062 12.507812C21.559062 12.507813 19.085875 14.767938 18.546875 18.210938C18.511875 18.426937 18.617984 18.569469 18.833984 18.605469L21.09375 19.001953C21.30975 19.037953 21.452281 18.929844 21.488281 18.714844C21.918281 16.526844 23.208797 15.306641 25.216797 15.306641C27.261797 15.306641 28.695312 16.598578 28.695312 18.642578C28.695313 19.862578 28.265719 20.687203 27.011719 22.408203L24.607422 25.707031C23.854422 26.748031 23.533203 27.5015 23.533203 28.9375L23.533203 30.40625C23.533203 30.62125 23.675625 30.765719 23.890625 30.761719L26.257812 30.761719C26.472813 30.761719 26.615234 30.619297 26.615234 30.404297L26.615234 29.257812C26.615234 28.038812 26.831828 27.536359 27.548828 26.568359L29.951172 23.267578C31.171172 21.581578 31.779297 20.327469 31.779297 18.605469C31.779297 15.054469 29.161062 12.507812 25.289062 12.507812 z M 23.712891 33.492188C23.496891 33.492187 23.353516 33.636562 23.353516 33.851562L23.353516 36.935547C23.353516 37.150547 23.495891 37.292969 23.712891 37.292969L26.439453 37.292969C26.653453 37.292969 26.796875 37.151547 26.796875 36.935547L26.796875 33.851562C26.796875 33.637563 26.654453 33.492188 26.439453 33.492188L23.712891 33.492188 z" />
</svg>