<?xml version="1.0" encoding="utf-8"?>
<svg xmlns="http://www.w3.org/2000/svg" viewBox="0 0 50 50" width="515" height="515">
  <path d="M25 2C16.175781 2 9 9.175781 9 18C9 24.34375 12.863281 31.664063 16.65625 37.5C20.449219 43.335938 24.25 47.65625 24.25 47.65625C24.441406 47.871094 24.714844 47.996094 25 47.996094C25.285156 47.996094 25.558594 47.871094 25.75 47.65625C25.75 47.65625 29.550781 43.328125 33.34375 37.5C37.136719 31.671875 41 24.375 41 18C41 9.175781 33.824219 2 25 2 Z M 25 4C32.742188 4 39 10.257813 39 18C39 23.539063 35.363281 30.742188 31.65625 36.4375C28.546875 41.210938 25.921875 44.355469 25 45.4375C24.082031 44.355469 21.457031 41.195313 18.34375 36.40625C14.636719 30.703125 11 23.5 11 18C11 10.257813 17.257813 4 25 4 Z M 25 11.84375L24.5 12.15625L17 16.65625L18 18.34375L18 26L32 26L32 18.34375L33 16.65625L25.5 12.15625 Z M 25 14.15625L30 17.15625L30 24L27 24L27 19L23 19L23 24L20 24L20 17.15625Z" />
</svg>