<?xml version="1.0" encoding="utf-8"?>
<svg xmlns="http://www.w3.org/2000/svg" viewBox="0 0 50 50" width="515" height="515">
  <path d="M25 2C16.179688 2 9 9.179688 9 18C9 30.078125 23.628906 46.945313 24.25 47.65625C24.441406 47.875 24.710938 48 25 48C25.289063 48 25.558594 47.871094 25.75 47.65625C26.371094 46.945313 41 30.152344 41 18C41 9.179688 33.820313 2 25 2 Z M 25 11.84375L33 16.65625L32 18.34375L32 26L18 26L18 18.34375L17 16.65625 Z M 25 14.15625L20 17.15625L20 24L23 24L23 19L27 19L27 24L30 24L30 17.15625Z" />
</svg>