<?xml version="1.0" encoding="utf-8"?>
<svg xmlns="http://www.w3.org/2000/svg" viewBox="0 0 50 50" width="515" height="515">
  <path d="M0 8L0 10L28.099609 10C28.499609 10 29 10.500391 29 10.900391L29 38L18.908203 38C18.427922 35.171661 15.960386 33 13 33C11.083334 33 9.5185588 33.754756 8.5019531 34.898438C7.7160789 35.782546 7.2561215 36.871355 7.0839844 38L3 38C2.4454545 38 2 37.554545 2 37L2 28L0 28L0 37C0 38.645455 1.3545455 40 3 40L7.0839844 40C7.2561215 41.128645 7.7160789 42.217454 8.5019531 43.101562C9.5185588 44.245244 11.083334 45 13 45C15.960386 45 18.427922 42.828339 18.908203 40L31 40L34.083984 40C34.256121 41.128645 34.716079 42.217454 35.501953 43.101562C36.518559 44.245244 38.083334 45 40 45C42.960386 45 45.427922 42.828339 45.908203 40L47 40C47.833333 40 48.549896 39.614166 49.082031 39.082031C49.614166 38.549896 50 37.833333 50 37L50 27.400391C50 26.275881 49.581958 25.253826 49.197266 24.470703C48.812573 23.68758 48.419922 23.126953 48.419922 23.126953L48.410156 23.115234L44.291016 17.587891L44.28125 17.576172C43.394978 16.468249 41.971429 15 40 15L32 15C31.641409 15 31.309956 15.08323 31 15.207031L31 10.900391C31 9.3003902 29.699609 8 28.099609 8L0 8 z M 0 12L0 14L18 14L18 12L0 12 z M 0 16L0 18L15 18L15 16L0 16 z M 32 17L36 17L36 26C36 26.833333 36.385834 27.549896 36.917969 28.082031C37.450104 28.614166 38.166667 29 39 29L48 29L48 37C48 37.166667 47.885834 37.450104 47.667969 37.667969C47.450104 37.885834 47.166667 38 47 38L45.908203 38C45.427922 35.171661 42.960386 33 40 33C38.083334 33 36.518559 33.754756 35.501953 34.898438C34.716079 35.782546 34.256121 36.871355 34.083984 38L31 38L31 18C31 17.833333 31.114166 17.549896 31.332031 17.332031C31.549896 17.114166 31.833333 17 32 17 z M 38 17L40 17C40.828571 17 42.00509 17.932144 42.71875 18.824219L46.78125 24.273438C46.78125 24.273438 47.087036 24.711639 47.402344 25.353516C47.655962 25.869811 47.801651 26.470822 47.882812 27L39 27C38.833333 27 38.549896 26.885834 38.332031 26.667969C38.114166 26.450104 38 26.166667 38 26L38 17 z M 0 20L0 22L12 22L12 20L0 20 z M 0 24L0 26L9 26L9 24L0 24 z M 13 35C15.220986 35 17 36.779015 17 39C17 41.220985 15.220986 43 13 43C11.583334 43 10.648107 42.504756 9.9980469 41.773438C9.3479866 41.042119 9 40.027778 9 39C9 37.972222 9.3479866 36.957881 9.9980469 36.226562C10.648107 35.495244 11.583334 35 13 35 z M 40 35C42.220986 35 44 36.779015 44 39C44 41.220985 42.220986 43 40 43C38.583334 43 37.648107 42.504756 36.998047 41.773438C36.347987 41.042119 36 40.027778 36 39C36 37.972222 36.347987 36.957881 36.998047 36.226562C37.648107 35.495244 38.583334 35 40 35 z" />
</svg>