<?xml version="1.0" encoding="utf-8"?>
<svg xmlns="http://www.w3.org/2000/svg" width="515" height="515" viewBox="0 0 50 50">
  <path d="M39 0L39 2L46.585938 2L34 14.585938L30 10.585938L18 22.585938L14 18.585938L0.29296875 32.292969L1.7070312 33.707031L14 21.414062L18 25.414062L30 13.414062L34 17.414062L48 3.4140625L48 11L50 11L50 0L39 0 z M 42 14L42 50L44 50L44 14L42 14 z M 48 15L48 50L50 50L50 15L48 15 z M 30 20L30 50L32 50L32 20L30 20 z M 36 20L36 50L38 50L38 20L36 20 z M 24 24L24 50L26 50L26 24L24 24 z M 12 28L12 50L14 50L14 28L12 28 z M 18 30L18 50L20 50L20 30L18 30 z M 6 34L6 50L8 50L8 34L6 34 z M 0 38L0 50L2 50L2 38L0 38 z" />
</svg>