<?xml version="1.0" encoding="utf-8"?>
<svg xmlns="http://www.w3.org/2000/svg" viewBox="0 0 50 50" width="515" height="515">
  <path d="M24.5 2C21.46875 2 19 4.46875 19 7.5C19 10.53125 21.46875 13 24.5 13C27.53125 13 30 10.53125 30 7.5C30 4.46875 27.53125 2 24.5 2 Z M 15 16C14.449219 16 14 16.445313 14 17L14 23C14 23.554688 14.449219 24 15 24L20 24L20 40L15 40C14.449219 40 14 40.445313 14 41L14 47C14 47.554688 14.449219 48 15 48L35 48C35.550781 48 36 47.554688 36 47L36 41C36 40.445313 35.550781 40 35 40L30 40L30 17C30 16.445313 29.550781 16 29 16Z" />
</svg>