<?xml version="1.0" encoding="utf-8"?>
<svg xmlns="http://www.w3.org/2000/svg" viewBox="0 0 50 50" width="515" height="515">
  <path d="M24.8,1.9c-1,0.1-1.8,1-1.8,2v25.7l-4.1-4.1c-0.4-0.4-1-0.7-1.6-0.6c-0.8,0.1-1.4,0.6-1.7,1.3c-0.3,0.7-0.1,1.6,0.5,2.1l8.9,8.9l8.9-8.9c0.5-0.5,0.7-1.2,0.6-1.9c-0.2-0.7-0.7-1.3-1.4-1.4s-1.4,0-1.9,0.5L27,29.7V4c0-0.5-0.2-1.1-0.6-1.4C26,2.1,25.5,1.9,25,1.9C24.9,1.9,24.8,1.9,24.8,1.9z M1,36v6.7c0,1.5,0.4,2.9,1.5,3.9S5,48,6.4,48h37.2c1.5,0,2.9-0.4,3.9-1.4s1.5-2.5,1.5-4V36h-4v6.6c0,0.7-0.2,1-0.3,1.1S44.3,44,43.6,44H6.4c-0.8,0-1-0.2-1.2-0.3S5,43.4,5,42.7V36H1z" />
</svg>