<?xml version="1.0" encoding="utf-8"?>
<svg xmlns="http://www.w3.org/2000/svg" viewBox="0 0 50 50" width="515" height="515">
  <path d="M23 0C15.773438 0 10.445313 2.496094 7 6.40625C3.554688 10.316406 2 15.558594 2 21C2 25.40625 3.375 29.515625 5.6875 32.875C7.78125 35.921875 9 39.507813 9 43.1875L9 50L11 50L11 43.1875C11 39.101563 9.640625 35.144531 7.375 31.8125L7.3125 31.71875C5.222656 28.679688 4 24.992188 4 21C4 15.941406 5.445313 11.183594 8.5 7.71875C11.554688 4.253906 16.226563 2 23 2C29.800781 2 34.214844 3.972656 37.125 7C40.035156 10.027344 41.464844 14.207031 42 18.71875L42.03125 18.9375L42.125 19.09375L46.84375 27.1875L46.8125 27.1875C47.0625 27.636719 46.9375 28.070313 46.5 28.3125L46.5 28.34375L42 30.59375L42 36.59375C42 40.335938 38.914063 43.253906 35.1875 42.90625L35.15625 42.90625L32.0625 42.6875L31 42.625L31 50L33 50L33 44.75L35 44.90625C35.011719 44.90625 35.019531 44.90625 35.03125 44.90625C39.890625 45.339844 44 41.441406 44 36.59375L44 31.8125L47.4375 30.09375L47.46875 30.09375L47.5 30.0625C48.863281 29.304688 49.3125 27.570313 48.5625 26.21875L48.5625 26.1875L43.9375 18.1875C43.34375 13.503906 41.808594 9.003906 38.5625 5.625C35.246094 2.175781 30.199219 0 23 0 Z M 19.65625 6L19.5 6.84375L19 9.8125C18.535156 9.953125 18.085938 10.148438 17.65625 10.375L15.1875 8.59375L14.5 8.09375L13.90625 8.6875L11.78125 10.78125L11.1875 11.40625L11.6875 12.09375L13.46875 14.5625C13.257813 14.96875 13.070313 15.417969 12.90625 15.90625L9.8125 16.53125L9 16.6875L9 21.34375L9.84375 21.5L12.8125 22C12.976563 22.488281 13.164063 22.9375 13.375 23.34375L11.59375 25.8125L11.09375 26.5L11.6875 27.09375L13.78125 29.21875L14.40625 29.8125L15.09375 29.3125L17.5625 27.53125C17.96875 27.742188 18.417969 27.929688 18.90625 28.09375L19.40625 31.0625L19.5625 31.90625L24.25 31.90625L24.375 31.0625L24.90625 28C25.375 27.832031 25.824219 27.648438 26.25 27.4375L28.8125 29.21875L29.5 29.6875L30.09375 29.09375L32.21875 27L32.8125 26.40625L32.3125 25.71875L30.53125 23.25C30.738281 22.851563 30.929688 22.414063 31.09375 21.9375L34.125 21.5L35 21.375L35 16.65625L34.15625 16.5L31.09375 16C30.949219 15.546875 30.765625 15.085938 30.53125 14.625L32.3125 12.0625L32.8125 11.375L32.21875 10.78125L30.09375 8.6875L29.5 8.09375L28.8125 8.59375L26.34375 10.375C25.9375 10.164063 25.488281 9.976563 25 9.8125L24.5 6.84375L24.34375 6 Z M 21.34375 8L22.65625 8L23.125 10.65625L23.21875 11.34375L23.875 11.46875C24.621094 11.632813 25.335938 11.996094 26 12.375L26.5625 12.6875L27.09375 12.3125L29.3125 10.71875L30.1875 11.625L28.59375 13.9375L28.1875 14.46875L28.5625 15.03125C29 15.730469 29.257813 16.433594 29.4375 17.15625L29.59375 17.78125L30.25 17.875L33 18.34375L33 19.625L29.5625 20.09375L29.4375 20.78125C29.273438 21.527344 28.910156 22.242188 28.53125 22.90625L28.21875 23.46875L28.59375 24L30.1875 26.1875L29.28125 27.09375L26.96875 25.46875L26.5 25.125L25.9375 25.40625C25.136719 25.804688 24.398438 26.183594 23.75 26.34375L23.125 26.5L23 27.125L22.53125 29.90625L21.25 29.90625L20.78125 27.21875L20.6875 26.5625L20.03125 26.4375C19.285156 26.273438 18.570313 25.910156 17.90625 25.53125L17.34375 25.21875L16.8125 25.59375L14.625 27.1875L13.71875 26.3125L15.3125 24.09375L15.6875 23.5625L15.375 23C14.996094 22.335938 14.632813 21.621094 14.46875 20.875L14.34375 20.21875L13.65625 20.125L11 19.65625L11 18.3125L13.78125 17.78125L14.4375 17.65625L14.5625 17.03125C14.726563 16.285156 15.089844 15.570313 15.46875 14.90625L15.78125 14.34375L15.40625 13.8125L13.8125 11.625L14.6875 10.71875L16.90625 12.3125L17.5 12.71875L18.09375 12.3125C18.65625 11.910156 19.308594 11.648438 20.125 11.46875L20.78125 11.34375L20.875 10.65625 Z M 22 14C19.253906 14 17 16.253906 17 19C17 21.746094 19.253906 24 22 24C24.746094 24 27 21.746094 27 19C27 16.253906 24.746094 14 22 14 Z M 22 16C23.65625 16 25 17.34375 25 19C25 20.65625 23.65625 22 22 22C20.34375 22 19 20.65625 19 19C19 17.34375 20.34375 16 22 16Z" />
</svg>