<?xml version="1.0" encoding="utf-8"?>
<svg xmlns="http://www.w3.org/2000/svg" viewBox="0 0 50 50" width="515" height="515">
  <path d="M17.8125 3C14.644531 3 12 5.886719 12 9L12 41C12 42.871094 12.917969 44.394531 14.09375 45.40625C15.269531 46.417969 16.683594 47 18 47L32.40625 47C35.464844 47 38 44.464844 38 41.40625L38 8.59375C38 5.535156 35.464844 3 32.40625 3 Z M 17.8125 5L32.40625 5C34.347656 5 36 6.652344 36 8.59375L36 41.40625C36 43.347656 34.347656 45 32.40625 45L18 45C17.316406 45 16.230469 44.617188 15.40625 43.90625C14.582031 43.195313 14 42.226563 14 41L14 9C14 7.113281 15.980469 5 17.8125 5 Z M 16.8125 8C16.335938 8.089844 15.992188 8.511719 16 9L16 40C16 40.550781 16.449219 41 17 41L33 41C33.550781 41 34 40.550781 34 40L34 9C34 8.449219 33.550781 8 33 8L17 8C16.96875 8 16.9375 8 16.90625 8C16.875 8 16.84375 8 16.8125 8 Z M 18 10L32 10L32 39L18 39 Z M 25 41.5C24.171875 41.5 23.5 42.171875 23.5 43C23.5 43.828125 24.171875 44.5 25 44.5C25.828125 44.5 26.5 43.828125 26.5 43C26.5 42.171875 25.828125 41.5 25 41.5Z" />
</svg>