<?xml version="1.0" encoding="utf-8"?>
<svg xmlns="http://www.w3.org/2000/svg" viewBox="0 0 50 50" width="515" height="515">
  <path d="M6 4.0058594C4.958 4.0058594 4.0058594 4.8699906 4.0058594 5.9003906L4.0058594 31C4.0058594 31.337437 4.0996404 31.630517 4.2402344 31.888672C4.1666222 32.00918 4.0994477 32.137204 4.0507812 32.283203 A 1.0001 1.0001 0 0 0 4.046875 32.296875L1.046875 41.695312 A 1.0001 1.0001 0 0 0 1.0195312 42.197266L1.0195312 45C1.0195312 45.517667 1.2091424 46.04508 1.5820312 46.417969C1.9549201 46.790858 2.4823333 46.980469 3 46.980469L47 46.980469C48.0224 46.980469 48.980469 46.144167 48.980469 45L48.980469 42.1875 A 1.0001 1.0001 0 0 0 48.955078 41.705078L46.054688 32.304688 A 1.0001 1.0001 0 0 0 46.048828 32.283203C45.984932 32.09147 45.896233 31.948006 45.800781 31.822266C45.919931 31.580637 45.994141 31.307306 45.994141 31L45.994141 5.9003906C45.994141 4.8699906 45.042 4.0058594 44 4.0058594L6 4.0058594 z M 5.9941406 5.9941406C5.9971894 5.9941956 5.996682 5.9941406 6 5.9941406L44 5.9941406C44.003318 5.9941406 44.002811 5.9941956 44.005859 5.9941406L44.005859 30.953125C44.003761 30.957711 43.998366 30.970366 43.984375 30.984375C43.973076 30.995674 43.965514 30.997027 43.958984 31L6.0410156 31C6.0344848 30.997026 6.0269236 30.995656 6.015625 30.984375C6.0000103 30.968763 5.9956081 30.951596 5.9941406 30.949219L5.9941406 5.9941406 z M 6 33L9.71875 33L9.0292969 35.757812 A 1.0001 1.0001 0 0 0 10 37L40 37 A 1.0001 1.0001 0 0 0 40.970703 35.757812L40.28125 33L44.099609 33C44.053669 33 44.135633 33.014546 44.189453 33.041016L46.644531 41L3.3691406 41L5.9042969 33.058594C5.9157092 33.045938 5.95 33 6 33 z M 11.78125 33L38.21875 33L38.71875 35L11.28125 35L11.78125 33 z M 21 38L20 40L30 40L29 38L21 38 z M 2.9804688 43L47.019531 43L47.019531 45C47.019531 45.05583 46.9776 45.019531 47 45.019531L3 45.019531C2.917667 45.019531 2.9439079 45.010333 2.9667969 45.033203C2.9896859 45.056093 2.9804687 45.08233 2.9804688 45L2.9804688 43 z" />
</svg>