<?xml version="1.0" encoding="utf-8"?>
<svg xmlns="http://www.w3.org/2000/svg" viewBox="0 0 50 50" width="515" height="515">
  <path d="M47 22L34 22L34 12C34 10.347656 32.652344 9 31 9L19 9C17.347656 9 16 10.347656 16 12L16 18L3 18C1.347656 18 0 19.347656 0 21L0 39.800781C0 40.351563 0.449219 40.800781 1 40.800781L49 40.800781C49.554688 40.800781 50 40.351563 50 39.800781L50 25C50 23.347656 48.652344 22 47 22 Z M 12 31L7 31C7 30.601563 7 30.300781 7.101563 30C7.199219 29.699219 7.300781 29.398438 7.398438 29.101563C7.5 28.800781 7.699219 28.5 8 28.300781C8.199219 28 8.5 27.800781 8.800781 27.5L9.5 26.898438C9.699219 26.699219 9.800781 26.597656 9.898438 26.5C10 26.402344 10.101563 26.199219 10.199219 26.101563C10.300781 26 10.300781 25.800781 10.300781 25.699219C10.300781 25.5 10.300781 25.402344 10.300781 25.101563C10.300781 24.402344 10 24.101563 9.5 24.101563C9.300781 24.101563 9.101563 24.101563 9 24.199219C8.898438 24.300781 8.800781 24.402344 8.699219 24.5C8.601563 24.601563 8.601563 24.800781 8.601563 25C8.601563 25.199219 8.601563 25.402344 8.601563 25.601563L7 25.601563L7 25.300781C7 24.5 7.199219 24 7.601563 23.601563C8 23.199219 8.601563 23 9.5 23C10.300781 23 10.898438 23.199219 11.300781 23.601563C11.699219 24 11.898438 24.5 11.898438 25.199219C11.898438 25.5 11.898438 25.699219 11.800781 25.902344C11.800781 26.101563 11.699219 26.300781 11.601563 26.5C11.5 26.703125 11.398438 26.902344 11.199219 27.101563C11 27.300781 10.800781 27.5 10.601563 27.703125L9.699219 28.601563C9.5 28.800781 9.300781 29 9.101563 29.199219C9.101563 29.398438 9 29.601563 9 29.699219L12 29.699219 Z M 26 22L24.398438 22L24.398438 16.398438L22.800781 16.398438L22.800781 15.300781L22.898438 15.300781C23.398438 15.300781 23.898438 15.199219 24.199219 15C24.5 14.800781 24.699219 14.5 24.800781 14L26 14 Z M 43 33.601563C42.898438 33.902344 42.800781 34.101563 42.601563 34.402344C42.398438 34.601563 42.101563 34.800781 41.800781 35C41.5 35.101563 41 35.199219 40.5 35.199219C39.699219 35.199219 39.101563 35 38.800781 34.597656C38.402344 34.199219 38.199219 33.597656 38.199219 32.800781L39.800781 32.800781C39.601563 33.097656 39.699219 33.398438 39.800781 33.699219C39.902344 33.898438 40.199219 34.097656 40.5 34.097656C40.699219 34.097656 40.898438 34.097656 41 33.996094C41.101563 33.898438 41.199219 33.796875 41.300781 33.699219C41.398438 33.601563 41.398438 33.398438 41.398438 33.300781C41.398438 33.101563 41.398438 33 41.398438 32.800781C41.398438 32.601563 41.398438 32.402344 41.398438 32.300781C41.398438 32.101563 41.300781 32 41.199219 31.902344C41.101563 31.800781 41 31.699219 40.898438 31.601563C40.800781 31.5 40.597656 31.5 40.398438 31.5L39.898438 31.5L39.898438 30.398438L40.398438 30.398438C40.597656 30.398438 40.699219 30.398438 40.800781 30.300781C40.898438 30.199219 41 30.097656 41.097656 30C41.199219 29.898438 41.199219 29.800781 41.300781 29.597656C41.300781 29.398438 41.398438 29.300781 41.398438 29.097656C41.398438 28.699219 41.300781 28.398438 41.199219 28.300781C41.097656 28.097656 40.898438 28.097656 40.597656 28.097656C40.398438 28.097656 40.300781 28.097656 40.199219 28.199219C40.097656 28.300781 40 28.398438 39.898438 28.5C39.800781 28.601563 39.800781 28.800781 39.800781 28.898438C39.800781 29.097656 39.800781 29.199219 39.800781 29.398438L38.300781 29.398438C38.300781 28.597656 38.5 28 38.902344 27.597656C39.300781 27.199219 39.898438 27 40.601563 27C41.300781 27 41.902344 27.199219 42.300781 27.5C42.699219 27.800781 42.902344 28.300781 42.902344 29.101563C42.902344 29.601563 42.800781 30 42.601563 30.300781C42.398438 30.601563 42.101563 30.800781 41.699219 30.898438C42.199219 31 42.597656 31.199219 42.800781 31.5C43 31.800781 43.101563 32.300781 43.101563 32.800781C43.101563 33.101563 43.101563 33.300781 43 33.601563Z" />
</svg>