<?xml version="1.0" encoding="utf-8"?>
<svg xmlns="http://www.w3.org/2000/svg" viewBox="0 0 50 50" width="515" height="515">
  <path d="M13.082031 12.980469C12.492188 12.960938 11.925781 13.203125 11.53125 13.640625L1.023438 25L11.53125 36.359375C12.011719 36.894531 12.746094 37.132813 13.453125 36.976563C14.15625 36.820313 14.722656 36.296875 14.933594 35.605469C15.144531 34.914063 14.96875 34.164063 14.46875 33.640625L8.324219 27L47 27C47.722656 27.011719 48.390625 26.632813 48.753906 26.007813C49.121094 25.386719 49.121094 24.613281 48.753906 23.992188C48.390625 23.367188 47.722656 22.988281 47 23L8.324219 23L14.46875 16.359375C15.011719 15.785156 15.167969 14.949219 14.867188 14.21875C14.570313 13.492188 13.871094 13.003906 13.082031 12.980469Z" />
</svg>