<?xml version="1.0" encoding="utf-8"?>
<svg xmlns="http://www.w3.org/2000/svg" viewBox="0 0 50 50" width="515" height="515">
  <path d="M0 14L0 16.800781C3 19.400781 20.299219 34.499609 21.699219 35.599609C23.099219 36.799609 24.5 37 25 37C25.5 37 26.900781 36.899609 28.300781 35.599609C29.800781 34.399609 48 18.500781 50 16.800781L50 14L0 14 z M 0 19.400391L0 44.5L15.099609 32.599609C10.199609 28.299609 3.2 22.200391 0 19.400391 z M 50 19.400391C46.9 22.100391 39.900391 28.199609 34.900391 32.599609L50 44.5L50 19.400391 z M 16.699219 33.900391L0 47.099609L0 50L50 50L50 47L33.300781 33.900391C31.400781 35.600391 29.999609 36.799609 29.599609 37.099609C27.699609 38.799609 25.8 39 25 39C24.2 39 22.300391 38.799609 20.400391 37.099609C20.000391 36.799609 18.599219 35.600391 16.699219 33.900391 z" />
</svg>