<?xml version="1.0" encoding="utf-8"?>
<svg xmlns="http://www.w3.org/2000/svg" viewBox="0 0 50 50" width="515" height="515">
  <path d="M1 14 A 1.0001 1.0001 0 0 0 0 15L0 49 A 1.0001 1.0001 0 0 0 1 50L49 50 A 1.0001 1.0001 0 0 0 50 49L50 15 A 1.0001 1.0001 0 0 0 49 14L1 14 z M 2 16L48 16L48 18.5625C47.554822 18.949573 29.817037 34.371329 28.345703 35.646484C27.053708 36.766213 25.678222 37.001953 25 37.001953C24.321778 37.001953 22.946292 36.766213 21.654297 35.646484C21.283372 35.325017 18.622671 33.011661 16.699219 31.339844L16.679688 31.314453L16.675781 31.318359C10.964447 26.354198 2.3324048 18.851519 2 18.5625L2 16 z M 2 21.205078C3.7473784 22.724565 9.8412768 28.022383 15.082031 32.578125L2 42.914062L2 21.205078 z M 48 21.205078L48 42.917969L34.890625 32.601562C40.128638 28.048214 46.248991 22.727721 48 21.205078 z M 16.617188 33.914062C17.85294 34.988115 20.062798 36.909112 20.345703 37.154297C22.053708 38.634568 23.878222 38.998047 25 38.998047C26.121778 38.998047 27.946292 38.634568 29.654297 37.154297C29.935055 36.910973 32.132585 34.998666 33.353516 33.9375L48 45.464844L48 48L2 48L2 45.464844L16.617188 33.914062 z" />
</svg>