<?xml version="1.0" encoding="utf-8"?>
<svg xmlns="http://www.w3.org/2000/svg" viewBox="0 0 50 50" width="515" height="515">
  <path d="M25 9C17.27961 9 11 15.27961 11 23C11 27.892198 13.179269 31.178294 15.238281 33.595703C16.267787 34.804408 17.266085 35.819777 17.958984 36.714844C18.651883 37.609911 19 38.330002 19 39L19 40L19 42.832031 A 1.0001 1.0001 0 0 0 19 43.158203L19 44C19 45.64497 20.35503 47 22 47L22.779297 47C23.328373 47.609333 24.115084 48 25 48C25.884916 48 26.671627 47.609333 27.220703 47L28 47C29.64497 47 31 45.64497 31 44L31 43.167969 A 1.0001 1.0001 0 0 0 31 42.841797L31 40L31 39C31 38.330002 31.346754 37.618283 32.039062 36.730469C32.731372 35.842654 33.729497 34.836617 34.759766 33.632812C36.820302 31.225205 39 27.934393 39 23C39 15.27961 32.72039 9 25 9 z M 25 11C31.63961 11 37 16.36039 37 23C37 27.360607 35.179698 30.06589 33.240234 32.332031C32.270503 33.465102 31.268627 34.464221 30.460938 35.5C29.870244 36.257502 29.460981 37.098734 29.230469 38L20.771484 38C20.541745 37.096531 20.131801 36.253393 19.541016 35.490234C18.733915 34.447645 17.732213 33.438249 16.761719 32.298828C14.820731 30.019987 13 27.312802 13 23C13 16.36039 18.36039 11 25 11 z M 21 40L29 40L29 42L24 42 A 1.0001 1.0001 0 1 0 24 44L29 44C29 44.56503 28.56503 45 28 45L22 45C21.43497 45 21 44.56503 21 44 A 1.0001 1.0001 0 1 0 21 42L21 40 z" />
</svg>