<?xml version="1.0" encoding="utf-8"?>
<svg xmlns="http://www.w3.org/2000/svg" viewBox="0 0 50 50" width="515" height="515">
  <path d="M9 4C6.2504839 4 4 6.2504839 4 9L4 41C4 43.749516 6.2504839 46 9 46L41 46C43.749516 46 46 43.749516 46 41L46 9C46 6.2504839 43.749516 4 41 4L9 4 z M 9 6L41 6C42.668484 6 44 7.3315161 44 9L44 41C44 42.668484 42.668484 44 41 44L9 44C7.3315161 44 6 42.668484 6 41L6 9C6 7.3315161 7.3315161 6 9 6 z M 25 10C16.297049 10 9 15.678331 9 22.947266C9 29.432462 14.784063 34.70004 22.335938 35.712891C22.335938 35.712891 22.337891 35.712891 22.337891 35.712891C22.536678 35.755374 22.765454 35.823119 22.900391 35.886719C22.927968 35.899717 22.92499 35.900858 22.939453 35.910156C22.936808 35.992303 22.962381 36.370293 22.923828 36.660156C22.914328 36.716266 22.750575 37.685545 22.716797 37.876953L22.716797 37.878906C22.670157 38.145846 22.493944 38.683413 22.949219 39.369141C23.176856 39.712004 23.648332 39.989421 24.089844 40.027344C24.531355 40.065264 24.936512 39.956154 25.388672 39.765625C26.423745 39.336822 28.490518 38.115392 30.876953 36.482422C33.261295 34.850883 35.83616 32.871381 37.521484 30.970703C39.813508 28.503964 41 25.843504 41 22.947266C41 15.679227 33.703032 10 25 10 z M 25 12C32.838968 12 39 17.041304 39 22.947266C39 25.319988 38.105988 27.408105 36.052734 29.615234L36.042969 29.625L36.035156 29.634766C34.573278 31.286637 32.063988 33.245345 29.748047 34.830078C27.492074 36.373777 25.386061 37.559635 24.75 37.839844C24.81529 37.455902 24.900391 36.957031 24.900391 36.957031L24.904297 36.939453L24.90625 36.921875C24.96188 36.503517 25.111583 35.868916 24.792969 35.083984L24.792969 35.082031L24.792969 35.080078C24.555561 34.50218 24.11359 34.248575 23.751953 34.078125C23.390316 33.907675 23.042681 33.819356 22.753906 33.757812L22.714844 33.748047L22.673828 33.744141C15.849442 32.857984 11 28.250827 11 22.947266C11 17.040201 17.160951 12 25 12 z M 23.992188 18.998047C23.488379 19.007393 23 19.391875 23 20L23 26C23 26.552 23.448 27 24 27C24.552 27 25 26.552 25 26L25 23.121094L27.185547 26.580078C27.751547 27.372078 29 26.973 29 26L29 20C29 19.448 28.552 19 28 19C27.448 19 27 19.448 27 20L27 23L24.814453 19.419922C24.602203 19.122922 24.294473 18.992439 23.992188 18.998047 z M 15 19C14.448 19 14 19.448 14 20L14 26C14 26.552 14.448 27 15 27L18 27C18.552 27 19 26.552 19 26C19 25.448 18.552 25 18 25L16 25L16 20C16 19.448 15.552 19 15 19 z M 21 19C20.448 19 20 19.448 20 20L20 26C20 26.552 20.448 27 21 27C21.552 27 22 26.552 22 26L22 20C22 19.448 21.552 19 21 19 z M 31 19C30.448 19 30 19.448 30 20L30 26C30 26.552 30.448 27 31 27L34 27C34.552 27 35 26.552 35 26C35 25.448 34.552 25 34 25L32 25L32 24L34 24C34.553 24 35 23.552 35 23C35 22.448 34.553 22 34 22L32 22L32 21L34 21C34.552 21 35 20.552 35 20C35 19.448 34.552 19 34 19L31 19 z" />
</svg>