<?xml version="1.0" encoding="utf-8"?>
<svg xmlns="http://www.w3.org/2000/svg" viewBox="0 0 50 50" width="515" height="515">
  <path d="M37.050781 3.9746094C34.750781 3.9746094 32.449219 4.8496094 30.699219 6.5996094L25.699219 11.5C23.199219 14 22.5 17.599219 23.5 20.699219L27.099609 17.099609C27.299609 16.099609 27.7 15.100781 28.5 14.300781L33.5 9.4003906C34.5 8.4003906 35.8 7.9003906 37 7.9003906C38.3 7.9003906 39.6 8.4003906 40.5 9.4003906C42.4 11.300391 42.4 14.5 40.5 16.5L35.5 21.5C34.7 22.3 33.699219 22.700391 32.699219 22.900391L29.099609 26.5C29.999609 26.8 31 27 32 27C34.3 27 36.600391 26.100391 38.400391 24.400391L43.400391 19.400391C46.900391 15.800391 46.900391 10.099609 43.400391 6.5996094C41.650391 4.8496094 39.350781 3.9746094 37.050781 3.9746094 z M 30.960938 16.980469 A 2.0002 2.0002 0 0 0 29.585938 17.585938L17.585938 29.585938 A 2.0002 2.0002 0 1 0 20.414062 32.414062L32.414062 20.414062 A 2.0002 2.0002 0 0 0 30.960938 16.980469 z M 18.306641 23.070312C15.869141 22.9625 13.375 23.824219 11.5 25.699219L6.5996094 30.699219C3.0996094 34.199219 3.0996094 39.900391 6.5996094 43.400391C8.3996094 45.100391 10.7 46 13 46C15.3 46 17.600391 45.100391 19.400391 43.400391L24.400391 38.400391C26.900391 35.900391 27.599609 32.299219 26.599609 29.199219L22.900391 32.800781C22.700391 33.800781 22.3 34.799609 21.5 35.599609L16.5 40.599609C14.6 42.499609 11.400391 42.499609 9.4003906 40.599609C7.5003906 38.699609 7.5003906 35.5 9.4003906 33.5L14.300781 28.5C15.100781 27.7 16.099609 27.299609 17.099609 27.099609L20.699219 23.5C19.924219 23.25 19.119141 23.10625 18.306641 23.070312 z" />
</svg>