<?xml version="1.0" encoding="utf-8"?>
<svg xmlns="http://www.w3.org/2000/svg" viewBox="0 0 50 50" width="515" height="515">
  <path d="M3 7 A 1.0001 1.0001 0 0 0 2 8L2 12 A 1.0001 1.0001 0 0 0 3 13L7 13 A 1.0001 1.0001 0 0 0 8 12L8 8 A 1.0001 1.0001 0 0 0 7 7L3 7 z M 4 9L6 9L6 11L4 11L4 9 z M 11 9 A 1.0001 1.0001 0 1 0 11 11L47 11 A 1.0001 1.0001 0 1 0 47 9L11 9 z M 3 17 A 1.0001 1.0001 0 0 0 2 18L2 22 A 1.0001 1.0001 0 0 0 3 23L7 23 A 1.0001 1.0001 0 0 0 8 22L8 18 A 1.0001 1.0001 0 0 0 7 17L3 17 z M 4 19L6 19L6 21L4 21L4 19 z M 11 19 A 1.0001 1.0001 0 1 0 11 21L47 21 A 1.0001 1.0001 0 1 0 47 19L11 19 z M 3 27 A 1.0001 1.0001 0 0 0 2 28L2 32 A 1.0001 1.0001 0 0 0 3 33L7 33 A 1.0001 1.0001 0 0 0 8 32L8 28 A 1.0001 1.0001 0 0 0 7 27L3 27 z M 4 29L6 29L6 31L4 31L4 29 z M 11 29 A 1.0001 1.0001 0 1 0 11 31L47 31 A 1.0001 1.0001 0 1 0 47 29L11 29 z M 3 37 A 1.0001 1.0001 0 0 0 2 38L2 42 A 1.0001 1.0001 0 0 0 3 43L7 43 A 1.0001 1.0001 0 0 0 8 42L8 38 A 1.0001 1.0001 0 0 0 7 37L3 37 z M 4 39L6 39L6 41L4 41L4 39 z M 11 39 A 1.0001 1.0001 0 1 0 11 41L47 41 A 1.0001 1.0001 0 1 0 47 39L11 39 z" />
</svg>