<?xml version="1.0" encoding="utf-8"?>
<svg xmlns="http://www.w3.org/2000/svg" viewBox="0 0 50 50" width="515" height="515">
  <path d="M5 5 A 1.0001 1.0001 0 0 0 4 6L4 11L3 11C1.3545455 11 0 12.354545 0 14L0 40C0 41.645455 1.3545455 43 3 43L5 43C9.6361702 43 14.301403 43.445516 17.847656 43.904297C19.620783 44.133687 21.114656 44.366006 22.1875 44.546875C22.723922 44.637305 23.153996 44.71591 23.460938 44.773438C23.767878 44.830967 24.011654 44.884746 23.957031 44.871094L24.076172 44.900391L24.199219 44.900391C24.276997 44.900384 24.477778 45 25 45C25.3 45 25.690695 44.9918 26.117188 44.849609L26.042969 44.871094C25.988349 44.884754 26.232122 44.830967 26.539062 44.773438C26.846004 44.715908 27.276078 44.637309 27.8125 44.546875C28.885344 44.366006 30.379217 44.133687 32.152344 43.904297C35.698598 43.445525 40.36383 43 45 43L47 43C48.645455 43 50 41.645455 50 40L50 14C50 12.354545 48.645455 11 47 11L46 11L46 6 A 1.0001 1.0001 0 0 0 45 5C35.023812 5 25.304898 6.9275753 25 6.9882812C24.695102 6.9275753 14.976188 5 5 5 z M 6 7.0429688C14.32298 7.1541825 22.083773 8.48817 24 8.8378906L24 38.810547C21.730953 38.400345 14.238118 37.149907 6 37.042969L6 7.0429688 z M 44 7.0429688L44 37.042969C35.761882 37.149907 28.269047 38.400345 26 38.810547L26 8.8378906C27.916227 8.48817 35.67702 7.1541825 44 7.0429688 z M 3 13L4 13L4 38 A 1.0001 1.0001 0 0 0 5 39C14.866667 39 24.804688 40.980469 24.804688 40.980469 A 1.0001 1.0001 0 0 0 25.195312 40.980469C25.195313 40.980469 35.133333 39 45 39 A 1.0001 1.0001 0 0 0 46 38L46 13L47 13C47.554545 13 48 13.445455 48 14L48 40C48 40.554545 47.554545 41 47 41L45 41C40.23617 41 35.500231 41.453703 31.896484 41.919922C30.094611 42.153031 28.576374 42.389462 27.480469 42.574219C26.932516 42.666599 26.490324 42.74659 26.169922 42.806641C25.849519 42.866691 25.711264 42.89103 25.556641 42.929688L25.519531 42.939453L25.484375 42.951172C25.31087 43.008972 25.3 43 25 43C24.94592 43 24.68283 42.959147 24.443359 42.929688C24.288736 42.891027 24.150481 42.866688 23.830078 42.806641C23.509676 42.746588 23.067484 42.666597 22.519531 42.574219C21.423626 42.389462 19.905389 42.153031 18.103516 41.919922C14.499769 41.453703 9.7638298 41 5 41L3 41C2.4454545 41 2 40.554545 2 40L2 14C2 13.445455 2.4454545 13 3 13 z" />
</svg>