<?xml version="1.0" encoding="utf-8"?>
<svg xmlns="http://www.w3.org/2000/svg" viewBox="0 0 50 50" width="515" height="515">
  <path d="M25 3C18.364481 3 13 8.3644809 13 15L13 20L9 20C7.3545455 20 6 21.354545 6 23L6 47C6 48.645455 7.3545455 50 9 50L41 50C42.645455 50 44 48.645455 44 47L44 23C44 21.354545 42.645455 20 41 20L37 20L37 15C37 8.3644809 31.635519 3 25 3 z M 25 5C30.564481 5 35 9.4355191 35 15L35 20L15 20L15 15C15 9.4355191 19.435519 5 25 5 z M 9 22L13.832031 22 A 1.0001 1.0001 0 0 0 14.158203 22L35.832031 22 A 1.0001 1.0001 0 0 0 36.158203 22L41 22C41.554545 22 42 22.445455 42 23L42 47C42 47.554545 41.554545 48 41 48L9 48C8.4454545 48 8 47.554545 8 47L8 23C8 22.445455 8.4454545 22 9 22 z M 25 30C23.3 30 22 31.3 22 33C22 33.9 22.4 34.699219 23 35.199219L23 38C23 39.1 23.9 40 25 40C26.1 40 27 39.1 27 38L27 35.199219C27.6 34.699219 28 33.9 28 33C28 31.3 26.7 30 25 30 z" />
</svg>