<?xml version="1.0" encoding="utf-8"?>
<svg xmlns="http://www.w3.org/2000/svg" viewBox="0 0 50 50" width="515" height="515">
  <path d="M25 2C12.309534 2 2 12.309534 2 25C2 37.690466 12.309534 48 25 48C34.742067 48 43.076492 41.930829 46.423828 33.363281 A 1.0001 1.0001 0 1 0 44.5625 32.636719C41.507836 40.455171 33.911933 46 25 46C13.390466 46 4 36.609534 4 25C4 13.390466 13.390466 4 25 4C33.911933 4 41.507836 9.5448298 44.5625 17.363281 A 1.0001 1.0001 0 1 0 46.423828 16.636719C43.076492 8.0691703 34.742067 2 25 2 z M 23.980469 15.990234 A 1.0001 1.0001 0 0 0 23.292969 16.292969L15.292969 24.292969 A 1.0001 1.0001 0 0 0 15.292969 25.707031L23.292969 33.707031 A 1.0001 1.0001 0 1 0 24.707031 32.292969L18.414062 26L47 26 A 1.0001 1.0001 0 1 0 47 24L18.414062 24L24.707031 17.707031 A 1.0001 1.0001 0 0 0 23.980469 15.990234 z" />
</svg>