<?xml version="1.0" encoding="utf-8"?>
<svg xmlns="http://www.w3.org/2000/svg" viewBox="0 0 50 50" width="515" height="515">
  <path d="M25.03125 1.96875C12.352374 1.96875 2.03125 12.289874 2.03125 24.96875C2.03125 37.647626 12.352374 47.96875 25.03125 47.96875C31.82721 47.96875 37.947124 44.999275 42.152344 40.302734 A 2.0002 2.0002 0 1 0 39.173828 37.634766C35.693048 41.522225 30.66529 43.96875 25.03125 43.96875C14.514126 43.96875 6.03125 35.485874 6.03125 24.96875C6.03125 14.451626 14.514126 5.96875 25.03125 5.96875C30.664196 5.96875 35.691944 8.4150538 39.173828 12.302734 A 2.0002 2.0002 0 1 0 42.152344 9.6347656C37.946228 4.9384466 31.826304 1.96875 25.03125 1.96875 z M 38.947266 15.949219 A 2.0002 2.0002 0 0 0 37.554688 19.382812L41.140625 22.96875L22.96875 22.96875 A 2.0002 2.0002 0 1 0 22.96875 26.96875L41.140625 26.96875L37.554688 30.554688 A 2.0002 2.0002 0 1 0 40.382812 33.382812L47.205078 26.560547 A 2.0002 2.0002 0 0 0 47.197266 23.369141L40.382812 16.554688 A 2.0002 2.0002 0 0 0 38.947266 15.949219 z" />
</svg>