<?xml version="1.0" encoding="utf-8"?>
<svg xmlns="http://www.w3.org/2000/svg" viewBox="0 0 50 50" width="515" height="515">
  <path d="M3 0C1.347656 0 0 1.347656 0 3L0 47C0 48.652344 1.347656 50 3 50L37 50C38.652344 50 40 48.652344 40 47L40 38.15625C39.457031 38.625 38.785156 38.90625 38.0625 38.90625C37.261719 38.90625 36.503906 38.566406 35.9375 38C34.765625 36.828125 34.765625 34.953125 35.9375 33.78125L40 29.6875L40 28L17 28C15.347656 28 14 26.652344 14 25C14 23.347656 15.347656 22 17 22L40 22L40 20.3125L35.9375 16.21875C35.371094 15.652344 35.0625 14.925781 35.0625 14.125C35.0625 13.324219 35.371094 12.566406 35.9375 12C36.503906 11.433594 37.261719 11.125 38.0625 11.125C38.785156 11.125 39.457031 11.375 40 11.84375L40 3C40 1.347656 38.652344 0 37 0 Z M 38.0625 13.125C37.808594 13.125 37.539063 13.210938 37.34375 13.40625C36.953125 13.796875 36.953125 14.421875 37.34375 14.8125L46.53125 24L17 24C16.449219 24 16 24.449219 16 25C16 25.550781 16.449219 26 17 26L46.53125 26L37.34375 35.1875C36.953125 35.578125 36.953125 36.203125 37.34375 36.59375C37.539063 36.789063 37.804688 36.90625 38.0625 36.90625C38.320313 36.90625 38.554688 36.789063 38.75 36.59375L50.34375 25L38.75 13.40625C38.554688 13.210938 38.316406 13.125 38.0625 13.125Z" />
</svg>