<?xml version="1.0" encoding="utf-8"?>
<svg xmlns="http://www.w3.org/2000/svg" width="515" height="515" viewBox="0 0 50 50">
  <path d="M25 2C12.309534 2 2 12.309534 2 25C2 37.690466 12.309534 48 25 48C32.610275 48 39.366605 44.294736 43.550781 38.591797 A 1.0001 1.0001 0 1 0 41.939453 37.408203C38.117629 42.617264 31.961725 46 25 46C13.390466 46 4 36.609534 4 25C4 13.390466 13.390466 4 25 4C31.961725 4 38.117629 7.3827357 41.939453 12.591797 A 1.0001 1.0001 0 1 0 43.550781 11.408203C39.366605 5.7052643 32.610275 2 25 2 z M 38.990234 15.990234 A 1.0001 1.0001 0 0 0 38.292969 17.707031L44.585938 24L23 24 A 1.0001 1.0001 0 1 0 23 26L44.585938 26L38.292969 32.292969 A 1.0001 1.0001 0 1 0 39.707031 33.707031L47.619141 25.794922 A 1.0001 1.0001 0 0 0 47.623047 24.207031 A 1.0001 1.0001 0 0 0 47.617188 24.203125L39.707031 16.292969 A 1.0001 1.0001 0 0 0 38.990234 15.990234 z" />
</svg>