<?xml version="1.0" encoding="utf-8"?>
<svg xmlns="http://www.w3.org/2000/svg" viewBox="0 0 50 50" width="515" height="515">
  <path d="M15 7C7.832031 7 2 12.832031 2 20C2 34.761719 18.679688 42.035156 24.359375 46.765625L25 47.300781L25.640625 46.765625C31.320313 42.035156 48 34.761719 48 20C48 12.832031 42.167969 7 35 7C30.945313 7 27.382813 8.925781 25 11.84375C22.617188 8.925781 19.054688 7 15 7 Z M 15 9C16.097656 9 17.148438 9.175781 18.148438 9.476563C18.050781 9.632813 18 9.816406 18 10C18 10.550781 18.449219 11 19 11C19.472656 11 19.878906 10.667969 19.980469 10.207031C21.671875 11.070313 23.121094 12.347656 24.167969 13.925781L24.886719 15.007813C24.382813 15.066406 24 15.492188 24 16C24 16.550781 24.449219 17 25 17C25.550781 17 26 16.550781 26 16C26 15.492188 25.617188 15.066406 25.113281 15.007813L25.832031 13.925781C27.023438 12.136719 28.71875 10.726563 30.71875 9.878906C30.578125 10.054688 30.5 10.273438 30.5 10.5C30.5 11.050781 30.949219 11.5 31.5 11.5C32.050781 11.5 32.5 11.050781 32.5 10.5C32.5 10.027344 32.167969 9.617188 31.703125 9.523438C32.746094 9.195313 33.847656 9 35 9C35.519531 9 36.03125 9.046875 36.53125 9.117188C36.203125 9.289063 36 9.628906 36 10C36 10.550781 36.449219 11 37 11C37.550781 11 38 10.550781 38 10C38 9.769531 37.921875 9.542969 37.773438 9.367188C41.882813 10.429688 45.046875 13.792969 45.8125 18.015625C45.34375 18.105469 45 18.519531 45 19C45 19.550781 45.449219 20 46 20C46 21.222656 45.867188 22.390625 45.625 23.507813C45.585938 23.503906 45.542969 23.5 45.5 23.5C44.949219 23.5 44.5 23.949219 44.5 24.5C44.5 24.894531 44.730469 25.25 45.09375 25.410156C44.792969 26.285156 44.421875 27.125 43.996094 27.933594C43.960938 27.40625 43.523438 27 43 27C42.449219 27 42 27.449219 42 28C42 28.550781 42.449219 29 43 29C43.160156 29 43.3125 28.960938 43.453125 28.890625C40.71875 33.4375 36.203125 36.949219 31.988281 39.878906C31.929688 39.378906 31.503906 39 31 39C30.449219 39 30 39.449219 30 40C30 40.371094 30.207031 40.710938 30.53125 40.882813C29.867188 41.335938 29.226563 41.773438 28.597656 42.203125C28.425781 42.070313 28.214844 42 28 42C27.449219 42 27 42.449219 27 43C27 43.09375 27.015625 43.1875 27.042969 43.28125C26.3125 43.792969 25.613281 44.292969 25 44.777344C24.386719 44.292969 23.6875 43.792969 22.957031 43.28125C22.984375 43.1875 23 43.09375 23 43C23 42.449219 22.550781 42 22 42C21.785156 42 21.574219 42.070313 21.402344 42.199219C20.773438 41.773438 20.132813 41.335938 19.46875 40.882813C19.792969 40.710938 20 40.371094 20 40C20 39.449219 19.550781 39 19 39C18.496094 39 18.070313 39.375 18.007813 39.875C13.796875 36.949219 9.28125 33.4375 6.546875 28.890625C6.6875 28.960938 6.84375 29 7 29C7.550781 29 8 28.550781 8 28C8 27.449219 7.550781 27 7 27C6.476563 27 6.039063 27.40625 6 27.925781C5.578125 27.121094 5.207031 26.285156 4.90625 25.414063C4.96875 25.285156 5 25.144531 5 25C5 24.65625 4.824219 24.335938 4.53125 24.152344C4.191406 22.84375 4 21.464844 4 20C4.550781 20 5 19.550781 5 19C5 18.519531 4.65625 18.105469 4.1875 18.015625C4.953125 13.792969 8.117188 10.425781 12.230469 9.363281C12.082031 9.542969 12 9.765625 12 10C12 10.550781 12.449219 11 13 11C13.550781 11 14 10.550781 14 10C14 9.628906 13.796875 9.289063 13.46875 9.117188C13.96875 9.046875 14.480469 9 15 9 Z M 10 12C9.449219 12 9 12.449219 9 13C9 13.550781 9.449219 14 10 14C10.550781 14 11 13.550781 11 13C11 12.449219 10.550781 12 10 12 Z M 16 12C15.449219 12 15 12.449219 15 13C15 13.550781 15.449219 14 16 14C16.550781 14 17 13.550781 17 13C17 12.449219 16.550781 12 16 12 Z M 22 12C21.449219 12 21 12.449219 21 13C21 13.550781 21.449219 14 22 14C22.550781 14 23 13.550781 23 13C23 12.449219 22.550781 12 22 12 Z M 34 12C33.449219 12 33 12.449219 33 13C33 13.550781 33.449219 14 34 14C34.550781 14 35 13.550781 35 13C35 12.449219 34.550781 12 34 12 Z M 40 12C39.449219 12 39 12.449219 39 13C39 13.550781 39.449219 14 40 14C40.550781 14 41 13.550781 41 13C41 12.449219 40.550781 12 40 12 Z M 28.5 12.5C27.949219 12.5 27.5 12.949219 27.5 13.5C27.5 14.050781 27.949219 14.5 28.5 14.5C29.050781 14.5 29.5 14.050781 29.5 13.5C29.5 12.949219 29.050781 12.5 28.5 12.5 Z M 7 15C6.449219 15 6 15.449219 6 16C6 16.550781 6.449219 17 7 17C7.550781 17 8 16.550781 8 16C8 15.449219 7.550781 15 7 15 Z M 13 15C12.449219 15 12 15.449219 12 16C12 16.550781 12.449219 17 13 17C13.550781 17 14 16.550781 14 16C14 15.449219 13.550781 15 13 15 Z M 19 15C18.449219 15 18 15.449219 18 16C18 16.550781 18.449219 17 19 17C19.550781 17 20 16.550781 20 16C20 15.449219 19.550781 15 19 15 Z M 31 15C30.449219 15 30 15.449219 30 16C30 16.550781 30.449219 17 31 17C31.550781 17 32 16.550781 32 16C32 15.449219 31.550781 15 31 15 Z M 37 15C36.449219 15 36 15.449219 36 16C36 16.550781 36.449219 17 37 17C37.550781 17 38 16.550781 38 16C38 15.449219 37.550781 15 37 15 Z M 43 15C42.449219 15 42 15.449219 42 16C42 16.550781 42.449219 17 43 17C43.550781 17 44 16.550781 44 16C44 15.449219 43.550781 15 43 15 Z M 10 18C9.449219 18 9 18.449219 9 19C9 19.550781 9.449219 20 10 20C10.550781 20 11 19.550781 11 19C11 18.449219 10.550781 18 10 18 Z M 16 18C15.449219 18 15 18.449219 15 19C15 19.550781 15.449219 20 16 20C16.550781 20 17 19.550781 17 19C17 18.449219 16.550781 18 16 18 Z M 22 18C21.449219 18 21 18.449219 21 19C21 19.550781 21.449219 20 22 20C22.550781 20 23 19.550781 23 19C23 18.449219 22.550781 18 22 18 Z M 28 18C27.449219 18 27 18.449219 27 19C27 19.550781 27.449219 20 28 20C28.550781 20 29 19.550781 29 19C29 18.449219 28.550781 18 28 18 Z M 34 18C33.449219 18 33 18.449219 33 19C33 19.550781 33.449219 20 34 20C34.550781 20 35 19.550781 35 19C35 18.449219 34.550781 18 34 18 Z M 40 18C39.449219 18 39 18.449219 39 19C39 19.550781 39.449219 20 40 20C40.550781 20 41 19.550781 41 19C41 18.449219 40.550781 18 40 18 Z M 7 21C6.449219 21 6 21.449219 6 22C6 22.550781 6.449219 23 7 23C7.550781 23 8 22.550781 8 22C8 21.449219 7.550781 21 7 21 Z M 13 21C12.449219 21 12 21.449219 12 22C12 22.550781 12.449219 23 13 23C13.550781 23 14 22.550781 14 22C14 21.449219 13.550781 21 13 21 Z M 19 21C18.449219 21 18 21.449219 18 22C18 22.550781 18.449219 23 19 23C19.550781 23 20 22.550781 20 22C20 21.449219 19.550781 21 19 21 Z M 25 21C24.449219 21 24 21.449219 24 22C24 22.550781 24.449219 23 25 23C25.550781 23 26 22.550781 26 22C26 21.449219 25.550781 21 25 21 Z M 31 21C30.449219 21 30 21.449219 30 22C30 22.550781 30.449219 23 31 23C31.550781 23 32 22.550781 32 22C32 21.449219 31.550781 21 31 21 Z M 37 21C36.449219 21 36 21.449219 36 22C36 22.550781 36.449219 23 37 23C37.550781 23 38 22.550781 38 22C38 21.449219 37.550781 21 37 21 Z M 43 21C42.449219 21 42 21.449219 42 22C42 22.550781 42.449219 23 43 23C43.550781 23 44 22.550781 44 22C44 21.449219 43.550781 21 43 21 Z M 10 24C9.449219 24 9 24.449219 9 25C9 25.550781 9.449219 26 10 26C10.550781 26 11 25.550781 11 25C11 24.449219 10.550781 24 10 24 Z M 16 24C15.449219 24 15 24.449219 15 25C15 25.550781 15.449219 26 16 26C16.550781 26 17 25.550781 17 25C17 24.449219 16.550781 24 16 24 Z M 22 24C21.449219 24 21 24.449219 21 25C21 25.550781 21.449219 26 22 26C22.550781 26 23 25.550781 23 25C23 24.449219 22.550781 24 22 24 Z M 28 24C27.449219 24 27 24.449219 27 25C27 25.550781 27.449219 26 28 26C28.550781 26 29 25.550781 29 25C29 24.449219 28.550781 24 28 24 Z M 34 24C33.449219 24 33 24.449219 33 25C33 25.550781 33.449219 26 34 26C34.550781 26 35 25.550781 35 25C35 24.449219 34.550781 24 34 24 Z M 40 24C39.449219 24 39 24.449219 39 25C39 25.550781 39.449219 26 40 26C40.550781 26 41 25.550781 41 25C41 24.449219 40.550781 24 40 24 Z M 13 27C12.449219 27 12 27.449219 12 28C12 28.550781 12.449219 29 13 29C13.550781 29 14 28.550781 14 28C14 27.449219 13.550781 27 13 27 Z M 19 27C18.449219 27 18 27.449219 18 28C18 28.550781 18.449219 29 19 29C19.550781 29 20 28.550781 20 28C20 27.449219 19.550781 27 19 27 Z M 25 27C24.449219 27 24 27.449219 24 28C24 28.550781 24.449219 29 25 29C25.550781 29 26 28.550781 26 28C26 27.449219 25.550781 27 25 27 Z M 31 27C30.449219 27 30 27.449219 30 28C30 28.550781 30.449219 29 31 29C31.550781 29 32 28.550781 32 28C32 27.449219 31.550781 27 31 27 Z M 37 27C36.449219 27 36 27.449219 36 28C36 28.550781 36.449219 29 37 29C37.550781 29 38 28.550781 38 28C38 27.449219 37.550781 27 37 27 Z M 10 30C9.449219 30 9 30.449219 9 31C9 31.550781 9.449219 32 10 32C10.550781 32 11 31.550781 11 31C11 30.449219 10.550781 30 10 30 Z M 16 30C15.449219 30 15 30.449219 15 31C15 31.550781 15.449219 32 16 32C16.550781 32 17 31.550781 17 31C17 30.449219 16.550781 30 16 30 Z M 22 30C21.449219 30 21 30.449219 21 31C21 31.550781 21.449219 32 22 32C22.550781 32 23 31.550781 23 31C23 30.449219 22.550781 30 22 30 Z M 28 30C27.449219 30 27 30.449219 27 31C27 31.550781 27.449219 32 28 32C28.550781 32 29 31.550781 29 31C29 30.449219 28.550781 30 28 30 Z M 34 30C33.449219 30 33 30.449219 33 31C33 31.550781 33.449219 32 34 32C34.550781 32 35 31.550781 35 31C35 30.449219 34.550781 30 34 30 Z M 40 30C39.449219 30 39 30.449219 39 31C39 31.550781 39.449219 32 40 32C40.550781 32 41 31.550781 41 31C41 30.449219 40.550781 30 40 30 Z M 13 33C12.449219 33 12 33.449219 12 34C12 34.550781 12.449219 35 13 35C13.550781 35 14 34.550781 14 34C14 33.449219 13.550781 33 13 33 Z M 19 33C18.449219 33 18 33.449219 18 34C18 34.550781 18.449219 35 19 35C19.550781 35 20 34.550781 20 34C20 33.449219 19.550781 33 19 33 Z M 25 33C24.449219 33 24 33.449219 24 34C24 34.550781 24.449219 35 25 35C25.550781 35 26 34.550781 26 34C26 33.449219 25.550781 33 25 33 Z M 31 33C30.449219 33 30 33.449219 30 34C30 34.550781 30.449219 35 31 35C31.550781 35 32 34.550781 32 34C32 33.449219 31.550781 33 31 33 Z M 37 33C36.449219 33 36 33.449219 36 34C36 34.550781 36.449219 35 37 35C37.550781 35 38 34.550781 38 34C38 33.449219 37.550781 33 37 33 Z M 16 36C15.449219 36 15 36.449219 15 37C15 37.550781 15.449219 38 16 38C16.550781 38 17 37.550781 17 37C17 36.449219 16.550781 36 16 36 Z M 22 36C21.449219 36 21 36.449219 21 37C21 37.550781 21.449219 38 22 38C22.550781 38 23 37.550781 23 37C23 36.449219 22.550781 36 22 36 Z M 28 36C27.449219 36 27 36.449219 27 37C27 37.550781 27.449219 38 28 38C28.550781 38 29 37.550781 29 37C29 36.449219 28.550781 36 28 36 Z M 34 36C33.449219 36 33 36.449219 33 37C33 37.550781 33.449219 38 34 38C34.550781 38 35 37.550781 35 37C35 36.449219 34.550781 36 34 36 Z M 25 39C24.449219 39 24 39.449219 24 40C24 40.550781 24.449219 41 25 41C25.550781 41 26 40.550781 26 40C26 39.449219 25.550781 39 25 39Z" />
</svg>