<?xml version="1.0" encoding="utf-8"?>
<svg xmlns="http://www.w3.org/2000/svg" viewBox="0 0 50 50" width="515" height="515">
  <path d="M41.054688 1.816406C40.839844 1.804688 40.621094 1.863281 40.433594 1.992188C40.371094 2.03125 34.371094 6 18 6C17.621094 6 17.277344 6.214844 17.105469 6.554688L2.179688 36.40625C1.90625 36.789063 1.933594 37.308594 2.246094 37.65625C2.261719 37.675781 2.277344 37.691406 2.289063 37.703125C2.308594 37.722656 2.324219 37.738281 2.34375 37.753906C2.34375 37.757813 2.34375 37.757813 2.34375 37.757813C2.363281 37.773438 2.378906 37.785156 2.398438 37.796875C2.675781 38.035156 14.480469 48 34 48C34.382813 48 34.730469 47.78125 34.898438 47.4375L47.914063 20.839844C48.066406 20.535156 48.058594 20.171875 47.882813 19.878906C47.710938 19.585938 47.402344 19.402344 47.0625 19.386719C46.660156 19.371094 46.289063 19.59375 46.117188 19.957031L33.394531 45.964844C27.089844 45.890625 21.675781 44.753906 17.238281 43.285156C20.789063 43.785156 24.855469 43.863281 29.359375 43.078125C29.675781 43.023438 29.945313 42.820313 30.089844 42.53125L46.105469 9.796875C46.269531 9.476563 46.246094 9.09375 46.050781 8.792969C45.855469 8.492188 45.511719 8.324219 45.15625 8.34375C44.789063 8.367188 44.464844 8.585938 44.3125 8.914063L28.53125 41.15625C20.859375 42.390625 14.558594 41.085938 10.207031 39.511719C11.691406 39.695313 13.296875 39.820313 14.957031 39.820313C18.242188 39.820313 21.710938 39.34375 24.703125 37.902344C24.90625 37.800781 25.074219 37.640625 25.171875 37.4375L41.898438 3.25C42.097656 2.84375 41.996094 2.355469 41.652344 2.058594C41.480469 1.910156 41.269531 1.828125 41.054688 1.816406Z" />
</svg>