<?xml version="1.0" encoding="utf-8"?>
<svg xmlns="http://www.w3.org/2000/svg" viewBox="0 0 50 50" width="515" height="515">
  <path d="M28 2C22.5 2 18 6.5 18 12C18 20.6 26.900781 31.199219 27.300781 31.699219C27.400781 31.899219 27.7 32 28 32C28.3 32 28.600781 31.899609 28.800781 31.599609C29.200781 31.199609 38 20.4 38 12C38 6.5 33.5 2 28 2 z M 2.8007812 6C2.3007812 6.1 2 6.5 2 7L2 43C2 43.4 2.2 43.700391 2.5 43.900391L13.5 49.900391C13.8 50.000391 14.000781 50.000391 14.300781 49.900391L25 44.099609L36.599609 49.900391C36.899609 50.000391 37.200391 50.000391 37.400391 49.900391L47.5 43.900391C47.8 43.700391 48 43.4 48 43L48 7C48 6.7 47.799609 6.2992188 47.599609 6.1992188C47.299609 5.9992187 46.999219 5.9992187 46.699219 6.1992188L39.900391 10.199219C40.000391 10.799219 40.099609 11.4 40.099609 12C40.099609 20.9 31.400391 31.700391 30.400391 32.900391C29.700391 33.600391 28.9 34 28 34C27.1 34 26.299219 33.6 25.699219 33C25.299219 32.5 16 21.4 16 12C16 11.6 15.999609 11.199219 16.099609 10.699219L14 11.900391L3.3007812 6.0996094C3.2007813 5.9996094 3.0007812 6 2.8007812 6 z M 28 9C30.2 9 32 10.8 32 13C32 15.2 30.2 17 28 17C25.8 17 24 15.2 24 13C24 10.8 25.8 9 28 9 z" />
</svg>