<?xml version="1.0" encoding="utf-8"?>
<svg xmlns="http://www.w3.org/2000/svg" viewBox="0 0 50 50" width="515" height="515">
  <path d="M25 2C12.318 2 2 12.317 2 25C2 37.683 12.318 48 25 48C37.682 48 48 37.683 48 25C48 12.317 37.682 2 25 2 z M 14.800781 11L17.005859 11 A 1.0001 1.0001 0 0 0 17 11.099609L17 19 A 1.0001 1.0001 0 1 0 19 19L19 11.099609 A 1.0001 1.0001 0 0 0 18.996094 11L19.800781 11L21.005859 11 A 1.0001 1.0001 0 0 0 21 11.099609L21 19 A 1.0001 1.0001 0 1 0 23 19L23 11.099609 A 1.0001 1.0001 0 0 0 22.996094 11L25.099609 11C25.099609 11 26 15.7 26 19C26 24.7 21.699219 23.8 21.699219 26C21.699219 28.2 23 30.2 23 35C23 39.8 21.3 41 20 41C18.7 41 17 40.1 17 35C17 29.9 18.300781 28.2 18.300781 26C18.300781 23.8 14 24.6 14 19C14 14 14.800781 11 14.800781 11 z M 30 11C35.1 13.5 36 17.999609 36 20.599609C36 24.999609 33 27.1 33 30C33 31.7 34 33 34 36C34 39 33.5 41 32 41C30.5 41 30 39.8 30 35L30 11 z" />
</svg>