<?xml version="1.0" encoding="utf-8"?>
<svg xmlns="http://www.w3.org/2000/svg" viewBox="0 0 50 50" width="515" height="515">
  <path d="M25 2C12.271692 2 2 12.271692 2 25C2 37.728308 12.271692 48 25 48C37.728308 48 48 37.728308 48 25C48 12.271692 37.728308 2 25 2 z M 25 4C36.655692 4 46 13.344308 46 25C46 36.655692 36.655692 46 25 46C13.344308 46 4 36.655692 4 25C4 13.344308 13.344308 4 25 4 z M 14.800781 10 A 1.0001 1.0001 0 0 0 13.833984 10.742188C13.833984 10.742188 13 13.893333 13 19C13 22.055952 14.348772 23.709516 15.564453 24.585938C16.172294 25.024148 16.717517 25.318208 17.003906 25.546875C17.290295 25.775542 17.300781 25.775758 17.300781 26C17.300781 27.806061 16 29.730065 16 35C16 37.661111 16.420677 39.351715 17.185547 40.474609C17.950417 41.597504 19.119231 42 20 42C20.957692 42 22.079379 41.486734 22.824219 40.345703C23.569058 39.204672 24 37.518056 24 35C24 30.019444 22.699219 27.806061 22.699219 26C22.699219 25.775758 22.702419 25.789527 22.986328 25.568359C23.270215 25.347191 23.81662 25.062371 24.427734 24.628906C25.649963 23.761977 27 22.101462 27 19C27 15.518182 26.082031 10.8125 26.082031 10.8125 A 1.0001 1.0001 0 0 0 25.099609 10L19.800781 10L14.800781 10 z M 29.955078 10.001953 A 1.0001 1.0001 0 0 0 29 11L29 35C29 37.434722 29.09386 38.98172 29.492188 40.128906C29.691351 40.702499 30.000704 41.207899 30.466797 41.546875C30.932889 41.885851 31.491667 42 32 42C32.597222 42 33.192712 41.766746 33.617188 41.380859C34.041663 40.994972 34.311131 40.500708 34.503906 39.960938C34.889457 38.881396 35 37.555556 35 36C35 32.777778 34 31.307843 34 30C34 28.894828 34.620223 27.793335 35.386719 26.324219C36.153214 24.855102 37 23.026882 37 20.599609C37 17.76884 35.923561 12.789851 30.439453 10.101562 A 1.0001 1.0001 0 0 0 29.955078 10.001953 z M 15.626953 12L17 12L17 19 A 1.0001 1.0001 0 1 0 19 19L19 12L19.800781 12L21 12L21 19 A 1.0001 1.0001 0 1 0 23 19L23 12L24.248047 12C24.437977 13.069096 25 16.344742 25 19C25 21.598538 24.199256 22.338023 23.271484 22.996094C22.807599 23.325129 22.280175 23.583277 21.757812 23.990234C21.23545 24.397191 20.699219 25.124242 20.699219 26C20.699219 28.593939 22 30.380556 22 35C22 37.281944 21.580551 38.594937 21.150391 39.253906C20.72023 39.912875 20.342308 40 20 40C19.580769 40 19.249973 39.951715 18.839844 39.349609C18.429714 38.747504 18 37.438889 18 35C18 30.069935 19.300781 28.593939 19.300781 26C19.300781 25.124242 18.771814 24.399458 18.251953 23.984375C17.732092 23.569292 17.201535 23.29968 16.734375 22.962891C15.800056 22.289312 15 21.544048 15 19C15 14.998721 15.440158 12.827516 15.626953 12 z M 31 12.914062C34.279728 15.263993 35 18.530831 35 20.599609C35 22.572337 34.346786 23.994507 33.613281 25.400391C32.879777 26.806274 32 28.205172 32 30C32 32.092157 33 33.222222 33 36C33 37.444444 32.860543 38.618604 32.621094 39.289062C32.501369 39.624293 32.364587 39.817528 32.273438 39.900391C32.182288 39.983254 32.152778 40 32 40C31.758333 40 31.692111 39.965708 31.642578 39.929688C31.593048 39.893667 31.496148 39.799063 31.382812 39.472656C31.156142 38.81984 31 37.365278 31 35L31 12.914062 z" />
</svg>