<?xml version="1.0" encoding="utf-8"?>
<svg xmlns="http://www.w3.org/2000/svg" viewBox="0 0 50 50" width="515" height="515">
  <path d="M24.5 6C22.57 6 21 7.57 21 9.5C21 11.43 22.57 13 24.5 13C26.43 13 28 11.43 28 9.5C28 7.57 26.43 6 24.5 6 z M 7.5 8C5.57 8 4 9.57 4 11.5C4 13.43 5.57 15 7.5 15C9.43 15 11 13.43 11 11.5C11 9.57 9.43 8 7.5 8 z M 41.5 8C39.57 8 38 9.57 38 11.5C38 13.43 39.57 15 41.5 15C43.43 15 45 13.43 45 11.5C45 9.57 43.43 8 41.5 8 z M 23 15C20.239 15 18 17.239 18 20L18 23L31 23L31 20C31 17.239 28.761 15 26 15L23 15 z M 7.5 17C5.567 17 4 18.567 4 20.5C4 21.673 4.0136719 30.789062 4.0136719 30.789062C4.1626719 32.589063 5.693 34 7.5 34L13 34L13 41.5C13 42.881 14.119 44 15.5 44C16.881 44 18 42.881 18 41.5L18 32C18 30.343 16.657 29 15 29L12 29C11.448 29 11 28.552 11 28L11 20.5C11 18.567 9.433 17 7.5 17 z M 41.5 17C39.567 17 38 18.567 38 20.5L38 28C38 28.552 37.552 29 37 29L34 29C32.343 29 31 30.343 31 32L31 41.5C31 42.881 32.119 44 33.5 44C34.881 44 36 42.881 36 41.5L36 34L41.5 34C43.307 34 44.837328 32.589063 44.986328 30.789062C44.986328 30.789062 45 20.808 45 20.5C45 18.567 43.433 17 41.5 17 z M 0.984375 21.986328 A 1.0001 1.0001 0 0 0 0 23L0 31C0 34.854334 3.1456661 38 7 38L10 38 A 1.0001 1.0001 0 1 0 10 36L7 36C4.2263339 36 2 33.773666 2 31L2 23 A 1.0001 1.0001 0 0 0 0.984375 21.986328 z M 47.984375 21.986328 A 1.0001 1.0001 0 0 0 47 23L47 31C47 33.773666 44.773666 36 42 36L39 36 A 1.0001 1.0001 0 1 0 39 38L42 38C45.854334 38 49 34.854334 49 31L49 23 A 1.0001 1.0001 0 0 0 47.984375 21.986328 z M 14 25 A 1.0001 1.0001 0 1 0 14 27L35 27 A 1.0001 1.0001 0 1 0 35 25L14 25 z" />
</svg>