<?xml version="1.0" encoding="utf-8"?>
<svg xmlns="http://www.w3.org/2000/svg" viewBox="0 0 50 50" width="515" height="515">
  <path d="M11 4 A 4 4 0 0 0 7 8 A 4 4 0 0 0 11 12 A 4 4 0 0 0 15 8 A 4 4 0 0 0 11 4 z M 39 4 A 4 4 0 0 0 35 8 A 4 4 0 0 0 39 12 A 4 4 0 0 0 43 8 A 4 4 0 0 0 39 4 z M 7.5039062 14C4.4659062 14 2 16.462 2 19.5L2 31C2 32.105 2.895 33 4 33C5.105 33 6 32.105 6 31L6 20.5C6 20.224 6.224 20 6.5 20C6.776 20 7 20.224 7 20.5L7 22L7 35.636719L4.1738281 43.173828C3.7798281 44.224828 4.2749844 45.513766 5.3339844 45.884766C5.5539844 45.961766 5.779 46 6 46C6.81 46 7.5710469 45.504172 7.8730469 44.701172L10.871094 36.703125C10.956094 36.478125 11 36.239047 11 35.998047L11 30.498047C11 30.222047 11.224 29.998047 11.5 29.998047C11.776 29.998047 12 30.222047 12 30.498047C12 30.598047 12.001953 31.000953 12.001953 31.001953C12.000953 31.165953 12 44 12 44C12 45.105 12.895 46 14 46C15.105 46 16 45.105 16 44L16 19.773438L18.558594 24.46875L23.970703 27.714844C24.292703 27.907844 24.647047 28 24.998047 28C25.736047 28 26.453688 27.591328 26.804688 26.861328C27.261688 25.912328 26.832688 24.765609 25.929688 24.224609L21.441406 21.53125L18.498047 16.224609C18.498047 16.224609 17 14 14 14L7.5039062 14 z M 36 14C33 14 31.501953 16.224609 31.501953 16.224609L28.558594 21.53125L26.943359 22.501953L27.058594 22.570312C27.974594 23.120313 28.623813 23.992297 28.882812 25.029297C28.957812 25.330297 28.987188 25.6345 28.992188 25.9375L31.443359 24.46875L34 19.773438L34 44C34 45.105 34.895 46 36 46C37.105 46 38 45.105 38 44C38 44 37.999047 31.165953 37.998047 31.001953C37.998047 31.000953 38 30.6 38 30.5C38 30.224 38.224 30 38.5 30C38.776 30 39 30.224 39 30.5L39 44C39 45.105 39.895 46 41 46C42.105 46 43 45.105 43 44L43 20.5C43 20.224 43.224 20 43.5 20C43.776 20 44 20.224 44 20.5L44 31C44 32.105 44.895 33 46 33C47.105 33 48 32.105 48 31L48 19.5C48 16.462 45.534094 14 42.496094 14L36 14 z" />
</svg>