<?xml version="1.0" encoding="utf-8"?>
<svg xmlns="http://www.w3.org/2000/svg" viewBox="0 0 50 50" width="515" height="515">
  <path d="M25 0C18.9 0 14 4.7992188 14 10.699219L14 11L21.5 11C22.1 11 22.5 11.4 22.5 12C22.5 12.6 22.1 13 21.5 13L14 13L14 15L21.5 15C22.1 15 22.5 15.4 22.5 16C22.5 16.6 22.1 17 21.5 17L14 17L14 19L21.5 19C22.1 19 22.5 19.4 22.5 20C22.5 20.6 22.1 21 21.5 21L14 21L14 23L14 23.300781C14 27.700781 16.799219 31.499609 20.699219 33.099609C20.799219 33.099609 20.900391 33.199219 20.900391 33.199219C21.100391 33.299219 21.299609 33.400391 21.599609 33.400391C21.799609 33.500391 22.000781 33.499609 22.300781 33.599609C22.400781 33.599609 22.499609 33.599219 22.599609 33.699219C22.899609 33.799219 23.2 33.800391 23.5 33.900391L23.599609 33.900391C23.899609 33.900391 24.299219 34 24.699219 34L25.099609 34C30.799609 34 35.5 29.699219 36 24.199219L36 23.300781L36 23L36 21L28.5 21C27.9 21 27.5 20.6 27.5 20C27.5 19.4 27.9 19 28.5 19L36 19L36 17L28.5 17C27.9 17 27.5 16.6 27.5 16C27.5 15.4 27.9 15 28.5 15L36 15L36 13L28.5 13C27.9 13 27.5 12.6 27.5 12C27.5 11.4 27.9 11 28.5 11L36 11L36 10.699219C36 4.7992188 31.1 -2.3684758e-15 25 0 z M 9.984375 16.986328 A 1.0001 1.0001 0 0 0 9 18L9 23C9 30.811566 14.598034 37.305848 22 38.710938L22 45L15 45C13.3 45 12 46.3 12 48L12 50L38 50L38 48C38 46.3 36.7 45 35 45L28 45L28 38.710938C35.401966 37.305848 41 30.811566 41 23L41 18 A 1.0001 1.0001 0 1 0 39 18L39 23C39 30.761847 32.761847 37 25 37C17.238153 37 11 30.761847 11 23L11 18 A 1.0001 1.0001 0 0 0 9.984375 16.986328 z" />
</svg>