<?xml version="1.0" encoding="utf-8"?>
<svg xmlns="http://www.w3.org/2000/svg" viewBox="0 0 50 50" width="515" height="515">
  <path d="M37.283203 6.9628906C37.194141 6.9628906 37.1 6.975 37 7C33.6 7.9 31.199219 9.7 29.699219 12.5C27.899219 12.1 26.100781 11.900391 24.300781 11.900391C19.000781 11.900391 14.600781 13.400391 10.800781 16.400391C8.9294865 17.843961 7.5491857 19.777098 6.7109375 22.070312C6.0484965 21.802863 4 20.999314 4 18.800781C4 17.700781 4.5003906 16.800391 5.4003906 16.400391C5.9003906 16.200391 6.1003906 15.599609 5.9003906 15.099609C5.7003906 14.599609 5.0996094 14.399609 4.5996094 14.599609C2.9996094 15.299609 2 16.900781 2 18.800781C2 21.824547 4.5075765 23.407129 6.1601562 23.960938C5.8300128 25.462054 5.7035748 27.083468 5.8007812 28.800781C6.0007813 33.400781 9.3003906 36.800391 11.400391 38.400391C11.700391 38.600391 11.699609 38.600391 11.599609 38.900391C11.299609 39.800391 10.699219 41.199219 10.699219 41.199219C10.399219 41.899219 10.500781 42.600781 10.800781 43.300781C11.100781 44.000781 11.600781 44.499219 12.300781 44.699219L15.5 45.900391C16.9 46.400391 18.5 45.700781 19 44.300781C19 44.300781 19.400781 43.200781 19.800781 42.300781C19.800781 42.200781 19.900391 42.099609 19.900391 42.099609C20.000391 42.099609 20.200391 42.199219 20.400391 42.199219C21.200391 42.399219 22.400391 42.599609 24.400391 42.599609C26.200391 42.599609 27.399219 42.500391 28.199219 42.400391C28.599219 42.400391 28.899609 42.300781 29.099609 42.300781L29.099609 42.400391C29.399609 43.400391 29.800781 44.300781 29.800781 44.300781C30.200781 45.400781 31.200781 46.099609 32.300781 46.099609C32.600781 46.099609 33.000781 46.000391 33.300781 45.900391L36.5 44.699219C37.2 44.399219 37.7 43.900781 38 43.300781C38.3 42.600781 38.299609 41.899219 38.099609 41.199219L37.599609 39.800781C37.599609 39.700781 37.6 39.699219 37.5 39.699219C37.5 39.699219 37.499219 39.6 37.699219 39.5C40.099219 38.2 41.899219 36.199219 43.199219 33.699219C43.399219 33.199219 43.500391 33.099609 43.900391 33.099609L45.5 33.099609C46.9 33.099609 48.099609 31.9 48.099609 30.5L48.099609 25.599609C47.999609 24.199609 46.800391 23 45.400391 23L43.800781 23L43.5 23C43.2 21.4 41.999219 16.799609 36.699219 14.599609C36.799219 12.699609 37.199219 11.100781 38.199219 8.3007812C38.299219 8.0007812 38.3 7.6007812 38 7.3007812C37.775 7.0757813 37.550391 6.9628906 37.283203 6.9628906 z M 36.5 23.099609C37.6 23.099609 38.400391 24 38.400391 25C38.400391 26.1 37.5 26.900391 36.5 26.900391C35.4 26.900391 34.599609 26 34.599609 25C34.599609 23.9 35.5 23.099609 36.5 23.099609 z" />
</svg>