<?xml version="1.0" encoding="utf-8"?>
<svg xmlns="http://www.w3.org/2000/svg" viewBox="0 0 50 50" width="515" height="515">
  <path d="M25 2.9375L0 15.53125L2 16.693359L2 31.1875C0.84257147 31.604757 0 32.706491 0 34C0 34.57803 0.1850925 35.011271 0.39648438 35.492188C0.60787623 35.973104 0.87320177 36.462865 1.1347656 36.914062C1.6578934 37.816459 2.1777344 38.568359 2.1777344 38.568359L3 39.761719L3.8222656 38.568359C3.8222656 38.568359 4.3421066 37.816459 4.8652344 36.914062C5.1267982 36.462865 5.3921238 35.973104 5.6035156 35.492188C5.8149075 35.011271 6 34.57803 6 34C6 32.706491 5.1574285 31.604757 4 31.1875L4 17.855469L25 30.0625L50 15.53125L25 2.9375 z M 11.199219 24.300781C8.7592188 28.520781 7.96 33.35 8 40C16.64 40 23 42.5 25 46C27 42.5 33.36 40 42 40C42.04 33.35 41.240781 28.520781 38.800781 24.300781L26.029297 31.720703C25.709297 31.910703 25.36 32 25 32C24.64 32 24.290703 31.910703 23.970703 31.720703L11.199219 24.300781 z M 3 33C3.5545455 33 4 33.445455 4 34C4 33.97197 3.935093 34.315291 3.7714844 34.6875C3.6078762 35.059709 3.3732018 35.498854 3.1347656 35.910156C3.0674809 36.026222 3.0660933 36.015482 3 36.125C2.9339067 36.015482 2.9325191 36.026222 2.8652344 35.910156C2.6267982 35.498854 2.3921238 35.059709 2.2285156 34.6875C2.0649075 34.315291 2 33.97197 2 34C2 33.445455 2.4454545 33 3 33 z" />
</svg>