<?xml version="1.0" encoding="utf-8"?>
<svg xmlns="http://www.w3.org/2000/svg" viewBox="0 0 50 50" width="515" height="515">
  <path d="M24.970703 1.9726562 A 2.0002 2.0002 0 0 0 23.40625 2.765625L16.585938 9.5859375 A 2.0002 2.0002 0 1 0 19.414062 12.414062L23 8.828125L23 27 A 2.0002 2.0002 0 1 0 27 27L27 8.828125L30.585938 12.414062 A 2.0002 2.0002 0 1 0 33.414062 9.5859375L26.585938 2.7578125 A 2.0002 2.0002 0 0 0 24.970703 1.9726562 z M 11.072266 7.2871094 A 2.0002 2.0002 0 0 0 9.6660156 7.8164062C4.9696966 12.022522 2 18.142446 2 24.9375C2 37.616376 12.321124 47.9375 25 47.9375C37.678876 47.9375 48 37.616376 48 24.9375C48 18.14154 45.030525 12.021626 40.333984 7.8164062 A 2.0002 2.0002 0 1 0 37.666016 10.796875C41.553475 14.277655 44 19.30346 44 24.9375C44 35.454624 35.517124 43.9375 25 43.9375C14.482876 43.9375 6 35.454624 6 24.9375C6 19.304554 8.4463038 14.276806 12.333984 10.794922 A 2.0002 2.0002 0 0 0 11.072266 7.2871094 z" />
</svg>