<?xml version="1.0" encoding="utf-8"?>
<svg xmlns="http://www.w3.org/2000/svg" width="515" height="515" viewBox="0 0 50 50">
  <path d="M9 4C6.2545455 4 4 6.2545455 4 9L4 41C4 43.745455 6.2545455 46 9 46L41 46C43.745455 46 46 43.745455 46 41L46 9C46 6.2545455 43.745455 4 41 4L9 4 z M 9 6L41 6C42.654545 6 44 7.3454545 44 9L44 41C44 42.354295 43.091958 43.487607 41.857422 43.859375C41.558322 42.259808 40.838139 40.976552 39.884766 40.007812C38.724321 38.828665 37.277728 38.081017 35.869141 37.472656C34.460553 36.864295 33.072569 36.389259 32.015625 35.863281C30.991548 35.353659 30.388357 34.827993 30.126953 34.222656C30.065283 33.196697 30.055638 32.351439 30.054688 31.439453C30.456052 31.03682 30.760403 30.568388 31.056641 29.960938C31.408195 29.240056 31.645125 28.361661 31.794922 27.478516C32.575669 27.036726 33.21308 26.213416 33.365234 24.701172L33.367188 24.697266L33.367188 24.691406C33.448588 23.801408 33.173691 23.182547 32.822266 22.697266C33.247428 21.344423 33.749529 19.235276 33.570312 17.027344C33.470723 15.800433 33.155754 14.557669 32.396484 13.525391C31.717658 12.602523 30.616457 11.964848 29.261719 11.677734C28.866634 11.140509 28.342458 10.712637 27.705078 10.460938C26.893569 10.140473 25.948966 10 24.910156 10L24.898438 10L24.886719 10C20.913546 10.09532 18.32908 11.746972 17.220703 14.251953C16.172861 16.620123 16.392977 19.539893 17.123047 22.554688C16.732547 23.03941 16.40062 23.697324 16.560547 24.652344C16.720692 26.177567 17.376685 26.97123 18.126953 27.394531C18.285431 28.259924 18.537004 29.126922 18.90625 29.851562C19.124939 30.280738 19.35953 30.666436 19.603516 30.994141C19.700776 31.124767 19.843975 31.210528 19.945312 31.324219C19.957712 32.33801 19.997423 33.136825 19.876953 34.148438C19.631933 34.775549 19.037046 35.307614 18.013672 35.830078C16.964371 36.365779 15.576459 36.847625 14.164062 37.460938C12.751667 38.074249 11.298163 38.824348 10.130859 40.003906C9.1714731 40.973364 8.4437818 42.257454 8.1425781 43.859375C6.9080423 43.487607 6 42.354295 6 41L6 9C6 7.3454545 7.3454545 6 9 6 z M 24.919922 12.001953C25.76382 12.003153 26.481059 12.128906 26.970703 12.322266C27.462694 12.516552 27.6911 12.748723 27.777344 12.9375L28.005859 13.441406L28.556641 13.513672C29.703692 13.66346 30.330988 14.093466 30.785156 14.710938C31.239324 15.328409 31.49601 16.201864 31.576172 17.189453C31.736496 19.164632 31.162156 21.522027 30.796875 22.572266L30.542969 23.304688L31.1875 23.734375C31.11695 23.687425 31.432529 23.861577 31.375 24.507812C31.375 24.507812 31.375 24.509766 31.375 24.509766C31.217542 25.990671 30.587574 25.927734 30.933594 25.927734L30.029297 25.927734L29.9375 26.826172C29.86375 27.559551 29.584168 28.414775 29.257812 29.083984C28.931458 29.753194 28.394298 30.262892 28.550781 30.173828L28.044922 30.460938L28.044922 31.042969C28.044922 32.205969 28.044532 33.225047 28.136719 34.599609L28.148438 34.751953L28.203125 34.894531C28.722353 36.23202 29.884163 37.036806 31.125 37.654297C32.365837 38.271788 33.765634 38.74258 35.076172 39.308594C36.386709 39.874608 37.591398 40.528586 38.458984 41.410156C39.128822 42.09079 39.622307 42.895312 39.859375 44L10.142578 44C10.381275 42.897582 10.877657 42.094274 11.552734 41.412109C12.427524 40.528136 13.641004 39.869188 14.958984 39.296875C16.276964 38.724562 17.681832 38.244409 18.921875 37.611328C20.161918 36.978248 21.319187 36.144032 21.806641 34.779297L21.841797 34.679688L21.855469 34.574219C22.049086 33.130693 21.955078 32.15824 21.955078 30.953125L21.955078 30.371094L21.449219 30.083984C21.534139 30.132234 21.364859 30.012764 21.207031 29.800781C21.049204 29.588798 20.862061 29.285935 20.6875 28.943359C20.338377 28.258209 20.041305 27.399218 19.970703 26.732422L19.876953 25.837891L19.015625 25.837891C18.953022 25.811913 18.649621 25.610892 18.535156 24.416016L18.53125 24.373047L18.523438 24.332031C18.418608 23.758962 18.707552 23.65325 18.720703 23.644531L19.316406 23.25L19.134766 22.556641C18.355598 19.583476 18.246957 16.874769 19.048828 15.0625C19.849494 13.25296 21.443035 12.08876 24.919922 12.001953 z" />
</svg>