<?xml version="1.0" encoding="utf-8"?>
<svg xmlns="http://www.w3.org/2000/svg" viewBox="0 0 50 50" width="515" height="515">
  <path d="M19.5 2C15.363281 2 12 5.363281 12 9.5C12 11.945313 13.183594 14.128906 15 15.5L15 12.65625C14.371094 11.761719 14 10.671875 14 9.5C14 6.464844 16.46875 4 19.5 4C22.53125 4 25 6.46875 25 9.5C25 10.671875 24.628906 11.761719 24 12.65625L24 15.5C25.816406 14.128906 27 11.945313 27 9.5C27 5.363281 23.636719 2 19.5 2 Z M 19.5 7.03125C18.535156 7.03125 17 7.695313 17 9.4375L17 34.0625L10.96875 28.03125C9.601563 26.664063 7.398438 26.664063 6.03125 28.03125C4.664063 29.398438 4.664063 31.601563 6.03125 32.96875L17 44C17.683594 44.683594 21.113281 48 25.78125 48C25.816406 48.003906 34 48 34 48C38.425781 48 43 44.632813 43 39L43 24.59375C43 23.21875 42.253906 22 40.53125 22C38.808594 22 38.03125 23.1875 38.03125 24.53125L38.03125 27C38.03125 27.550781 37.585938 28 37.03125 28C36.476563 28 36 27.550781 36 27L36 22.46875C36.019531 21.261719 35.28125 20 33.53125 20C31.78125 20 31 21.355469 31 22.5L31 25C31 25.550781 30.554688 26 30 26C29.449219 26 28.96875 25.550781 28.96875 25L29 21.5C29 20.488281 28.210938 19 26.5 19C24.789063 19 24 20.488281 24 21.5L24 25C24 25.550781 23.550781 26 23 26C22.449219 26 22 25.550781 22 25L22 9.5625C22 7.722656 20.507813 7.03125 19.5 7.03125Z" />
</svg>