<?xml version="1.0" encoding="utf-8"?>
<svg xmlns="http://www.w3.org/2000/svg" viewBox="0 0 50 50" width="515" height="515">
  <path d="M21 2C16.59375 2 13 5.59375 13 10C13 12.953125 14.609375 15.523438 17 16.90625L17 32.34375L11.84375 27.15625C10.289063 25.601563 7.742188 25.601563 6.1875 27.15625C4.632813 28.710938 4.632813 31.257813 6.1875 32.8125L17.53125 44.1875C19.96875 46.625 23.273438 48 26.71875 48L34 48C38.957031 48 43 43.957031 43 39L43 26C43 23.800781 41.199219 22 39 22C38.167969 22 37.394531 22.246094 36.75 22.6875C36.203125 21.128906 34.738281 20 33 20C32.011719 20 31.136719 20.398438 30.4375 21C29.742188 19.816406 28.464844 19 27 19C26.265625 19 25.59375 19.214844 25 19.5625L25 16.90625C27.390625 15.523438 29 12.953125 29 10C29 5.59375 25.40625 2 21 2 Z M 21 4C24.324219 4 27 6.675781 27 10C27 11.78125 26.230469 13.375 25 14.46875L25 10C25 7.800781 23.199219 6 21 6C18.800781 6 17 7.800781 17 10L17 14.46875C15.769531 13.375 15 11.785156 15 10C15 6.675781 17.675781 4 21 4 Z M 21 8C22.117188 8 23 8.882813 23 10L23 16.1875C22.984375 16.292969 22.984375 16.394531 23 16.5L23 25C22.992188 25.308594 23.128906 25.601563 23.367188 25.796875C23.601563 25.992188 23.917969 26.066406 24.21875 26C24.320313 25.972656 24.414063 25.929688 24.5 25.875C24.519531 25.867188 24.542969 25.855469 24.5625 25.84375C24.621094 25.796875 24.671875 25.746094 24.71875 25.6875C24.898438 25.503906 24.996094 25.257813 25 25L25 23C25 21.882813 25.882813 21 27 21C28.117188 21 29 21.882813 29 23L29 25C29.003906 25.0625 29.015625 25.125 29.03125 25.1875C29.046875 25.285156 29.078125 25.378906 29.125 25.46875C29.164063 25.558594 29.21875 25.644531 29.28125 25.71875C29.328125 25.765625 29.382813 25.808594 29.4375 25.84375C29.46875 25.867188 29.5 25.886719 29.53125 25.90625C29.621094 25.953125 29.714844 25.984375 29.8125 26C29.945313 26.027344 30.085938 26.027344 30.21875 26C30.320313 25.972656 30.414063 25.929688 30.5 25.875C30.519531 25.867188 30.542969 25.855469 30.5625 25.84375C30.621094 25.796875 30.671875 25.746094 30.71875 25.6875C30.898438 25.503906 30.996094 25.257813 31 25L31 24C31 22.882813 31.882813 22 33 22C34.117188 22 35 22.882813 35 24L35 26C35 26.03125 35 26.0625 35 26.09375L35 27C34.996094 27.359375 35.183594 27.695313 35.496094 27.878906C35.808594 28.058594 36.191406 28.058594 36.503906 27.878906C36.816406 27.695313 37.003906 27.359375 37 27L37 26.15625C37.003906 26.105469 37.003906 26.050781 37 26C37 24.882813 37.882813 24 39 24C40.117188 24 41 24.882813 41 26L41 39C41 42.878906 37.878906 46 34 46L26.71875 46C23.800781 46 21 44.84375 18.9375 42.78125L7.59375 31.40625C6.804688 30.617188 6.804688 29.382813 7.59375 28.59375C8.382813 27.804688 9.617188 27.804688 10.40625 28.59375L17.15625 35.3125C17.191406 35.367188 17.234375 35.421875 17.28125 35.46875C17.300781 35.492188 17.320313 35.511719 17.34375 35.53125C17.476563 35.644531 17.640625 35.71875 17.8125 35.75C17.945313 35.777344 18.085938 35.777344 18.21875 35.75C18.28125 35.734375 18.347656 35.714844 18.40625 35.6875C18.4375 35.667969 18.46875 35.648438 18.5 35.625C18.785156 35.460938 18.972656 35.171875 19 34.84375C19 34.832031 19 34.824219 19 34.8125C19 34.792969 19 34.769531 19 34.75C19.003906 34.707031 19.003906 34.667969 19 34.625L19 16.4375C19.015625 16.332031 19.015625 16.230469 19 16.125L19 10C19 8.882813 19.882813 8 21 8Z" />
</svg>