<?xml version="1.0" encoding="utf-8"?>
<svg xmlns="http://www.w3.org/2000/svg" viewBox="0 0 50 50" width="515" height="515">
  <path d="M20.029297 3.0839844C19.899131 3.0924643 19.770741 3.1126004 19.644531 3.1445312C19.139694 3.272255 18.676559 3.5781298 18.34375 3.9941406L18.335938 4.0058594L15.802734 7.3515625L11.599609 7.53125C10.438419 7.53125 9.5154709 8.4110808 9.34375 9.4414062L9.34375 9.4472656L8.7128906 13.59375L5.109375 15.664062L5.1015625 15.669922C4.1781796 16.223952 3.7186891 17.316223 4.0820312 18.40625L4.0820312 18.410156L5.4316406 22.371094L3.15625 25.919922L3.1328125 25.966797C2.9154373 26.401547 2.7908646 26.888813 2.8339844 27.40625C2.8771044 27.923687 3.1305039 28.483309 3.5957031 28.855469L3.5371094 28.804688L6.59375 31.683594L6.2324219 35.857422L6.2324219 35.900391C6.2324219 36.930835 6.865758 37.875826 7.8945312 38.21875L7.9121094 38.224609L11.986328 39.402344L13.619141 43.304688L13.632812 43.333984C14.106063 44.280485 15.147044 44.825102 16.160156 44.65625L16.171875 44.652344L20.34375 43.837891L23.591797 46.455078L23.515625 46.384766C23.943898 46.812959 24.484778 46.96875 25 46.96875C25.257611 46.96875 25.515453 46.9321 25.785156 46.824219C25.993627 46.74083 26.229456 46.603861 26.416016 46.367188L29.556641 43.837891L33.726562 44.652344L33.740234 44.65625C34.77056 44.827971 35.934599 44.358311 36.318359 43.207031L36.292969 43.273438L37.914062 39.402344L41.966797 38.230469C43.065061 37.916679 43.842315 36.856625 43.65625 35.740234L43.664062 35.816406L43.304688 31.683594L46.375 28.794922L46.384766 28.785156C46.771732 28.39819 47.042656 27.896328 47.089844 27.330078C47.131626 26.828719 46.954505 26.294565 46.615234 25.876953L44.367188 22.371094L45.716797 18.410156L45.71875 18.40625C46.082092 17.316223 45.6226 16.223952 44.699219 15.669922L44.691406 15.664062L41.087891 13.59375L40.457031 9.4472656L40.455078 9.4414062C40.266111 8.3078764 39.337274 7.53125 38.199219 7.53125L33.996094 7.3515625L31.472656 4.015625L31.53125 4.1015625C30.948262 3.1299152 29.691133 2.8235323 28.667969 3.3339844L24.900391 5.1269531L21.117188 3.3261719L21.199219 3.3691406C20.822418 3.1430598 20.419795 3.0585445 20.029297 3.0839844 z M 20.201172 5.03125L20.242188 5.0546875L24.900391 7.2734375L29.525391 5.0703125L29.533203 5.0664062C29.709702 4.9781572 29.852482 5.0698862 29.869141 5.0976562L29.896484 5.1425781L33.003906 9.2480469L38.179688 9.46875L38.199219 9.46875C38.261159 9.46875 38.533856 9.6933692 38.544922 9.7597656L39.3125 14.806641L43.701172 17.330078L43.701172 17.332031C43.777962 17.379741 43.917383 17.683399 43.880859 17.792969L42.232422 22.628906L45.041016 27.011719L45.115234 27.083984C45.182614 27.151364 45.162966 27.136172 45.160156 27.169922C45.157356 27.203352 45.127996 27.302356 45.017578 27.414062C45.017578 27.414062 45.015625 27.416016 45.015625 27.416016L41.294922 30.916016L41.738281 36.021484L41.744141 36.058594C41.758081 36.142204 41.735341 36.28293 41.433594 36.369141L41.431641 36.369141L36.486328 37.798828L34.492188 42.558594L34.480469 42.59375C34.464229 42.64247 34.228268 42.77242 34.058594 42.744141L29.042969 41.763672L24.988281 45.029297C24.917521 45.022197 24.859376 44.990235 24.884766 45.015625L24.847656 44.978516L20.857422 41.763672L15.839844 42.744141C15.653531 42.775191 15.49571 42.718301 15.369141 42.466797L15.367188 42.466797L13.414062 37.798828L8.5058594 36.380859C8.5058594 36.380859 8.5058594 36.378906 8.5058594 36.378906C8.3367112 36.321456 8.1749104 36.073353 8.171875 35.904297L8.6054688 30.916016L4.8359375 27.367188L4.8046875 27.34375C4.7698865 27.31591 4.772506 27.326701 4.765625 27.244141C4.758905 27.163521 4.7871754 27.004991 4.8652344 26.84375L7.5683594 22.628906L5.9179688 17.792969C5.8814458 17.683399 6.0208636 17.379736 6.0976562 17.332031C6.0976562 17.332031 6.0976562 17.330078 6.0976562 17.330078L10.486328 14.806641L11.255859 9.7597656C11.284138 9.5900911 11.3608 9.46875 11.599609 9.46875L11.621094 9.46875L16.796875 9.2480469L19.855469 5.2050781L19.857422 5.203125C19.991977 5.0384895 20.205942 5.0341121 20.201172 5.03125 z M 12 21L12 29L13.400391 29L13.400391 23.099609L17.400391 29L19 29L19 21L17.599609 21L17.599609 26.900391L13.599609 21L12 21 z M 21 21L21 29L27 29L27 27.699219L22.400391 27.699219L22.400391 25.099609L26.599609 25.099609L26.599609 24L22.400391 24L22.400391 22.199219L27 22.199219L27 21L21 21 z M 28 21L30.199219 29L31.699219 29L33.5 22.900391L35.199219 29L36.699219 29L39 21L37.300781 21L35.800781 27.199219L34.199219 21L32.699219 21L31 27.199219L29.5 21L28 21 z" />
</svg>