<?xml version="1.0" encoding="utf-8"?>
<svg xmlns="http://www.w3.org/2000/svg" viewBox="0 0 524 524" width="515" height="515">
  <path d="M262 17.339844C129.24891 17.339844 21.439453 125.1493 21.439453 257.90039C21.439453 390.65148 129.24891 498.46094 262 498.46094C394.75109 498.46094 502.56055 390.65148 502.56055 257.90039C502.56055 125.1493 394.75109 17.339844 262 17.339844 z M 262 38.259766C269.06815 38.259766 276.05339 38.605466 282.94922 39.255859C283.43285 44.606784 287.92328 48.800781 293.40039 48.800781C297.85176 48.800781 301.64573 46.026571 303.17383 42.117188C329.82466 47.157119 354.7595 56.992893 377.05078 70.707031C377.55798 76.033865 382.04008 80.199219 387.5 80.199219C388.57195 80.199219 389.606 80.038595 390.58008 79.740234C397.35798 84.636641 403.84934 89.902412 410.01367 95.523438C408.99712 97.140306 408.40039 99.048283 408.40039 101.09961C408.40039 106.89961 413.10039 111.59961 418.90039 111.59961C420.94956 111.59961 422.85491 111.00287 424.4707 109.98828C430.09223 116.16093 435.35848 122.66046 440.25391 129.44727C439.96075 130.41357 439.80078 131.4378 439.80078 132.5C439.80078 137.94674 443.94555 142.42215 449.25391 142.94727C462.95878 165.24966 472.78342 190.19507 477.80859 216.85547C473.93832 218.40243 471.19922 222.17638 471.19922 226.59961C471.19922 232.0457 475.34488 236.52089 480.65234 237.04688C481.29681 243.91173 481.64063 250.86487 481.64062 257.90039C481.64062 265.00454 481.29172 272.0251 480.63477 278.95508C475.33566 279.48912 471.19922 283.96026 471.19922 289.40039C471.19922 293.80991 473.92026 297.57683 477.77148 299.13281C472.71918 325.8091 462.86158 350.76523 449.11914 373.07031C443.87606 373.65768 439.80078 378.0998 439.80078 383.5C439.80078 384.50862 439.94951 385.48114 440.21484 386.4043C435.29637 393.21873 430.00406 399.74477 424.35352 405.93945C422.76279 404.96946 420.90026 404.40039 418.90039 404.40039C413.10039 404.40039 408.40039 409.10039 408.40039 414.90039C408.40039 416.89774 408.96781 418.75823 409.93555 420.34766C403.73242 425.99851 397.19845 431.28974 390.375 436.20703C389.46045 435.94704 388.49803 435.80078 387.5 435.80078C382.11547 435.80078 377.68609 439.85314 377.07812 445.07422C354.77005 458.80305 329.81371 468.64758 303.13867 473.6875C301.58697 469.8272 297.81644 467.09961 293.40039 467.09961C287.95763 467.09961 283.48558 471.23823 282.95508 476.54102C276.05731 477.19177 269.07019 477.53906 262 477.53906C254.92981 477.53906 247.94269 477.19177 241.04492 476.54102C240.51442 471.23823 236.04237 467.09961 230.59961 467.09961C226.18356 467.09961 222.41303 469.8272 220.86133 473.6875C194.18629 468.64758 169.22995 458.80305 146.92188 445.07422C146.31391 439.85314 141.88453 435.80078 136.5 435.80078C135.50197 435.80078 134.53955 435.94704 133.625 436.20703C126.80155 431.28974 120.26758 425.99851 114.06445 420.34766C115.03219 418.75823 115.59961 416.89774 115.59961 414.90039C115.59961 409.10039 110.89961 404.40039 105.09961 404.40039C103.09974 404.40039 101.23721 404.96946 99.646484 405.93945C93.995936 399.74477 88.703633 393.21873 83.785156 386.4043C84.050489 385.48114 84.199219 384.50862 84.199219 383.5C84.199219 378.0998 80.123936 373.65768 74.880859 373.07031C61.138415 350.76523 51.280821 325.8091 46.228516 299.13281C50.079744 297.57683 52.800781 293.80991 52.800781 289.40039C52.800781 283.86646 48.664339 279.47661 43.365234 278.95312C42.708397 272.02377 42.359375 265.00387 42.359375 257.90039C42.359375 250.8302 42.706657 243.84308 43.357422 236.94531C48.581421 236.40771 52.800781 231.9375 52.800781 226.5C52.800781 222.07816 50.063654 218.36206 46.195312 216.8418C51.221286 190.18663 61.043602 165.24578 74.746094 142.94727C80.054454 142.42215 84.199219 137.94674 84.199219 132.5C84.199219 131.4378 84.039252 130.41357 83.746094 129.44727C88.641522 122.66046 93.907769 116.16093 99.529297 109.98828C101.14509 111.00287 103.05044 111.59961 105.09961 111.59961C110.89961 111.59961 115.59961 106.89961 115.59961 101.09961C115.59961 99.048283 115.00288 97.140306 113.98633 95.523438C120.15066 89.902412 126.64202 84.636641 133.41992 79.740234C134.394 80.038595 135.42805 80.199219 136.5 80.199219C141.95992 80.199219 146.44202 76.033865 146.94922 70.707031C169.2405 56.992893 194.17534 47.157119 220.82617 42.117188C222.35427 46.026571 226.14824 48.800781 230.59961 48.800781C236.07672 48.800781 240.56715 44.606784 241.05078 39.255859C247.94661 38.605466 254.93185 38.259766 262 38.259766 z M 199.19922 59.199219C193.39922 59.199219 188.69922 63.899219 188.69922 69.699219C188.69922 75.499219 193.39922 80.199219 199.19922 80.199219C204.99922 80.199219 209.69922 75.499219 209.69922 69.699219C209.69922 63.899219 204.99922 59.199219 199.19922 59.199219 z M 262 59.199219C256.2 59.199219 251.5 63.899219 251.5 69.699219C251.5 75.499219 256.2 80.199219 262 80.199219C267.8 80.199219 272.5 75.499219 272.5 69.699219C272.5 63.899219 267.8 59.199219 262 59.199219 z M 324.80078 59.199219C319.00078 59.199219 314.30078 63.899219 314.30078 69.699219C314.30078 75.499219 319.00078 80.199219 324.80078 80.199219C330.60078 80.199219 335.30078 75.499219 335.30078 69.699219C335.20078 63.899219 330.50078 59.199219 324.80078 59.199219 z M 167.90039 90.599609C162.10039 90.599609 157.40039 95.299609 157.40039 101.09961C157.40039 106.89961 162.10039 111.59961 167.90039 111.59961C173.70039 111.59961 178.40039 106.89961 178.40039 101.09961C178.40039 95.299609 173.60039 90.599609 167.90039 90.599609 z M 230.59961 90.599609C224.79961 90.599609 220.09961 95.299609 220.09961 101.09961C220.09961 106.89961 224.79961 111.59961 230.59961 111.59961C236.39961 111.59961 241.09961 106.89961 241.09961 101.09961C241.09961 95.299609 236.39961 90.599609 230.59961 90.599609 z M 293.40039 90.599609C287.60039 90.599609 282.90039 95.299609 282.90039 101.09961C282.90039 106.89961 287.60039 111.59961 293.40039 111.59961C299.20039 111.59961 303.90039 106.89961 303.90039 101.09961C303.90039 95.299609 299.20039 90.599609 293.40039 90.599609 z M 356.09961 90.599609C350.29961 90.599609 345.59961 95.299609 345.59961 101.09961C345.59961 106.89961 350.29961 111.59961 356.09961 111.59961C361.89961 111.59961 366.59961 106.89961 366.59961 101.09961C366.59961 95.299609 361.89961 90.599609 356.09961 90.599609 z M 136.5 122C130.7 122 126 126.7 126 132.5C126 138.3 130.7 143 136.5 143C142.3 143 147 138.3 147 132.5C147 126.7 142.3 122 136.5 122 z M 199.19922 122C193.39922 122 188.69922 126.7 188.69922 132.5C188.69922 138.3 193.39922 143 199.19922 143C204.99922 143 209.69922 138.3 209.69922 132.5C209.69922 126.7 204.99922 122 199.19922 122 z M 262 122C256.2 122 251.5 126.7 251.5 132.5C251.5 138.3 256.2 143 262 143C267.8 143 272.5 138.3 272.5 132.5C272.5 126.7 267.8 122 262 122 z M 324.80078 122C319.00078 122 314.30078 126.7 314.30078 132.5C314.30078 138.3 319.00078 143 324.80078 143C330.60078 143 335.30078 138.3 335.30078 132.5C335.30078 126.7 330.50078 122 324.80078 122 z M 387.5 122C381.7 122 377 126.7 377 132.5C377 138.3 381.7 143 387.5 143C393.3 143 398 138.3 398 132.5C398 126.7 393.3 122 387.5 122 z M 105.09961 153.30078C99.299609 153.30078 94.599609 158.00078 94.599609 163.80078C94.599609 169.60078 99.299609 174.30078 105.09961 174.30078C110.89961 174.30078 115.59961 169.60078 115.59961 163.80078C115.59961 158.00078 110.89961 153.30078 105.09961 153.30078 z M 167.90039 153.30078C162.10039 153.30078 157.40039 158.00078 157.40039 163.80078C157.40039 169.60078 162.10039 174.30078 167.90039 174.30078C173.70039 174.30078 178.40039 169.60078 178.40039 163.80078C178.40039 158.00078 173.60039 153.30078 167.90039 153.30078 z M 230.59961 153.30078C224.79961 153.30078 220.09961 158.00078 220.09961 163.80078C220.09961 169.60078 224.79961 174.30078 230.59961 174.30078C236.39961 174.30078 241.09961 169.60078 241.09961 163.80078C241.09961 158.00078 236.39961 153.30078 230.59961 153.30078 z M 293.40039 153.30078C287.60039 153.30078 282.90039 158.00078 282.90039 163.80078C282.90039 169.60078 287.60039 174.30078 293.40039 174.30078C299.20039 174.30078 303.90039 169.60078 303.90039 163.80078C303.90039 158.00078 299.20039 153.30078 293.40039 153.30078 z M 356.09961 153.30078C350.29961 153.30078 345.59961 158.00078 345.59961 163.80078C345.59961 169.60078 350.29961 174.30078 356.09961 174.30078C361.89961 174.30078 366.59961 169.60078 366.59961 163.80078C366.59961 158.00078 361.89961 153.30078 356.09961 153.30078 z M 418.90039 153.30078C413.10039 153.30078 408.40039 158.00078 408.40039 163.80078C408.40039 169.60078 413.10039 174.30078 418.90039 174.30078C424.70039 174.30078 429.40039 169.60078 429.40039 163.80078C429.40039 158.00078 424.70039 153.30078 418.90039 153.30078 z M 73.699219 184.69922C67.899219 184.69922 63.199219 189.39922 63.199219 195.19922C63.199219 200.99922 67.899219 205.69922 73.699219 205.69922C79.499219 205.69922 84.199219 200.99922 84.199219 195.19922C84.199219 189.39922 79.499219 184.69922 73.699219 184.69922 z M 136.5 184.69922C130.7 184.69922 126 189.39922 126 195.19922C126 200.99922 130.7 205.69922 136.5 205.69922C142.3 205.69922 147 200.99922 147 195.19922C146.9 189.39922 142.3 184.69922 136.5 184.69922 z M 199.19922 184.69922C193.39922 184.69922 188.69922 189.39922 188.69922 195.19922C188.69922 200.99922 193.39922 205.69922 199.19922 205.69922C204.99922 205.69922 209.69922 200.99922 209.69922 195.19922C209.69922 189.39922 204.99922 184.69922 199.19922 184.69922 z M 262 184.69922C256.2 184.69922 251.5 189.39922 251.5 195.19922C251.5 200.99922 256.2 205.69922 262 205.69922C267.8 205.69922 272.5 200.99922 272.5 195.19922C272.5 189.39922 267.8 184.69922 262 184.69922 z M 324.80078 184.69922C319.00078 184.69922 314.30078 189.39922 314.30078 195.19922C314.30078 200.99922 319.00078 205.69922 324.80078 205.69922C330.60078 205.69922 335.30078 200.99922 335.30078 195.19922C335.20078 189.39922 330.50078 184.69922 324.80078 184.69922 z M 387.5 184.69922C381.7 184.69922 377 189.39922 377 195.19922C377 200.99922 381.7 205.69922 387.5 205.69922C393.3 205.69922 398 200.99922 398 195.19922C398 189.39922 393.3 184.69922 387.5 184.69922 z M 450.30078 184.69922C444.50078 184.69922 439.80078 189.39922 439.80078 195.19922C439.80078 200.99922 444.50078 205.69922 450.30078 205.69922C456.10078 205.69922 460.80078 200.99922 460.80078 195.19922C460.70078 189.39922 456.10078 184.69922 450.30078 184.69922 z M 105.09961 216.09961C99.299609 216.09961 94.599609 220.79961 94.599609 226.59961C94.599609 232.39961 99.299609 237.09961 105.09961 237.09961C110.89961 237.09961 115.59961 232.39961 115.59961 226.59961C115.59961 220.79961 110.89961 216.09961 105.09961 216.09961 z M 167.90039 216.09961C162.10039 216.09961 157.40039 220.79961 157.40039 226.59961C157.40039 232.39961 162.10039 237.09961 167.90039 237.09961C173.70039 237.09961 178.40039 232.39961 178.40039 226.59961C178.40039 220.79961 173.60039 216.09961 167.90039 216.09961 z M 230.59961 216.09961C224.79961 216.09961 220.09961 220.79961 220.09961 226.59961C220.09961 232.39961 224.79961 237.09961 230.59961 237.09961C236.39961 237.09961 241.09961 232.39961 241.09961 226.59961C241.09961 220.79961 236.39961 216.09961 230.59961 216.09961 z M 293.40039 216.09961C287.60039 216.09961 282.90039 220.79961 282.90039 226.59961C282.90039 232.39961 287.60039 237.09961 293.40039 237.09961C299.20039 237.09961 303.90039 232.39961 303.90039 226.59961C303.90039 220.79961 299.20039 216.09961 293.40039 216.09961 z M 356.09961 216.09961C350.29961 216.09961 345.59961 220.79961 345.59961 226.59961C345.59961 232.39961 350.29961 237.09961 356.09961 237.09961C361.89961 237.09961 366.59961 232.39961 366.59961 226.59961C366.59961 220.79961 361.89961 216.09961 356.09961 216.09961 z M 418.90039 216.09961C413.10039 216.09961 408.40039 220.79961 408.40039 226.59961C408.40039 232.39961 413.10039 237.09961 418.90039 237.09961C424.70039 237.09961 429.40039 232.39961 429.40039 226.59961C429.40039 220.79961 424.70039 216.09961 418.90039 216.09961 z M 73.699219 247.5C67.899219 247.5 63.199219 252.2 63.199219 258C63.199219 263.8 67.899219 268.5 73.699219 268.5C79.499219 268.5 84.199219 263.8 84.199219 258C84.199219 252.2 79.499219 247.5 73.699219 247.5 z M 136.5 247.5C130.7 247.5 126 252.2 126 258C126 263.8 130.7 268.5 136.5 268.5C142.3 268.5 147 263.8 147 258C147 252.2 142.3 247.5 136.5 247.5 z M 199.19922 247.5C193.39922 247.5 188.69922 252.2 188.69922 258C188.69922 263.8 193.39922 268.5 199.19922 268.5C204.99922 268.5 209.69922 263.8 209.69922 258C209.69922 252.2 204.99922 247.5 199.19922 247.5 z M 262 247.5C256.2 247.5 251.5 252.2 251.5 258C251.5 263.8 256.2 268.5 262 268.5C267.8 268.5 272.5 263.8 272.5 258C272.5 252.2 267.8 247.5 262 247.5 z M 324.80078 247.5C319.00078 247.5 314.30078 252.2 314.30078 258C314.30078 263.8 319.00078 268.5 324.80078 268.5C330.60078 268.5 335.30078 263.8 335.30078 258C335.30078 252.2 330.50078 247.5 324.80078 247.5 z M 387.5 247.5C381.7 247.5 377 252.2 377 258C377 263.8 381.7 268.5 387.5 268.5C393.3 268.5 398 263.8 398 258C398 252.2 393.3 247.5 387.5 247.5 z M 450.30078 247.5C444.50078 247.5 439.80078 252.2 439.80078 258C439.80078 263.8 444.50078 268.5 450.30078 268.5C456.10078 268.5 460.80078 263.8 460.80078 258C460.80078 252.2 456.10078 247.5 450.30078 247.5 z M 105.09961 278.90039C99.299609 278.90039 94.599609 283.60039 94.599609 289.40039C94.599609 295.20039 99.299609 299.90039 105.09961 299.90039C110.89961 299.90039 115.59961 295.20039 115.59961 289.40039C115.59961 283.50039 110.89961 278.90039 105.09961 278.90039 z M 167.90039 278.90039C162.10039 278.90039 157.40039 283.60039 157.40039 289.40039C157.40039 295.20039 162.10039 299.90039 167.90039 299.90039C173.70039 299.90039 178.40039 295.20039 178.40039 289.40039C178.30039 283.50039 173.60039 278.90039 167.90039 278.90039 z M 230.59961 278.90039C224.79961 278.90039 220.09961 283.60039 220.09961 289.40039C220.09961 295.20039 224.79961 299.90039 230.59961 299.90039C236.39961 299.90039 241.09961 295.20039 241.09961 289.40039C241.09961 283.50039 236.39961 278.90039 230.59961 278.90039 z M 293.40039 278.90039C287.60039 278.90039 282.90039 283.60039 282.90039 289.40039C282.90039 295.20039 287.60039 299.90039 293.40039 299.90039C299.20039 299.90039 303.90039 295.20039 303.90039 289.40039C303.80039 283.50039 299.20039 278.90039 293.40039 278.90039 z M 356.09961 278.90039C350.29961 278.90039 345.59961 283.60039 345.59961 289.40039C345.59961 295.20039 350.29961 299.90039 356.09961 299.90039C361.89961 299.90039 366.59961 295.20039 366.59961 289.40039C366.59961 283.50039 361.89961 278.90039 356.09961 278.90039 z M 418.90039 278.90039C413.10039 278.90039 408.40039 283.60039 408.40039 289.40039C408.40039 295.20039 413.10039 299.90039 418.90039 299.90039C424.70039 299.90039 429.40039 295.20039 429.40039 289.40039C429.40039 283.50039 424.70039 278.90039 418.90039 278.90039 z M 73.699219 310.19922C67.899219 310.19922 63.199219 314.89922 63.199219 320.69922C63.199219 326.49922 67.899219 331.19922 73.699219 331.19922C79.499219 331.19922 84.199219 326.49922 84.199219 320.69922C84.199219 314.89922 79.499219 310.19922 73.699219 310.19922 z M 136.5 310.19922C130.7 310.19922 126 314.89922 126 320.69922C126 326.49922 130.7 331.19922 136.5 331.19922C142.3 331.19922 147 326.49922 147 320.69922C146.9 314.89922 142.3 310.19922 136.5 310.19922 z M 199.19922 310.19922C193.39922 310.19922 188.69922 314.89922 188.69922 320.69922C188.69922 326.49922 193.39922 331.19922 199.19922 331.19922C204.99922 331.19922 209.69922 326.49922 209.69922 320.69922C209.69922 314.89922 204.99922 310.19922 199.19922 310.19922 z M 262 310.19922C256.2 310.19922 251.5 314.89922 251.5 320.69922C251.5 326.49922 256.2 331.19922 262 331.19922C267.8 331.19922 272.5 326.49922 272.5 320.69922C272.5 314.89922 267.8 310.19922 262 310.19922 z M 324.80078 310.19922C319.00078 310.19922 314.30078 314.89922 314.30078 320.69922C314.30078 326.49922 319.00078 331.19922 324.80078 331.19922C330.60078 331.19922 335.30078 326.49922 335.30078 320.69922C335.20078 314.89922 330.50078 310.19922 324.80078 310.19922 z M 387.5 310.19922C381.7 310.19922 377 314.89922 377 320.69922C377 326.49922 381.7 331.19922 387.5 331.19922C393.3 331.19922 398 326.49922 398 320.69922C398 314.89922 393.3 310.19922 387.5 310.19922 z M 450.30078 310.19922C444.50078 310.19922 439.80078 314.89922 439.80078 320.69922C439.80078 326.49922 444.50078 331.19922 450.30078 331.19922C456.10078 331.19922 460.80078 326.49922 460.80078 320.69922C460.70078 314.89922 456.10078 310.19922 450.30078 310.19922 z M 105.09961 341.59961C99.299609 341.59961 94.599609 346.29961 94.599609 352.09961C94.599609 357.89961 99.299609 362.59961 105.09961 362.59961C110.89961 362.59961 115.59961 357.89961 115.59961 352.09961C115.59961 346.29961 110.89961 341.59961 105.09961 341.59961 z M 167.90039 341.59961C162.10039 341.59961 157.40039 346.29961 157.40039 352.09961C157.40039 357.89961 162.10039 362.59961 167.90039 362.59961C173.70039 362.59961 178.40039 357.89961 178.40039 352.09961C178.40039 346.29961 173.60039 341.59961 167.90039 341.59961 z M 230.59961 341.59961C224.79961 341.59961 220.09961 346.29961 220.09961 352.09961C220.09961 357.89961 224.79961 362.59961 230.59961 362.59961C236.39961 362.59961 241.09961 357.89961 241.09961 352.09961C241.09961 346.29961 236.39961 341.59961 230.59961 341.59961 z M 293.40039 341.59961C287.60039 341.59961 282.90039 346.29961 282.90039 352.09961C282.90039 357.89961 287.60039 362.59961 293.40039 362.59961C299.20039 362.59961 303.90039 357.89961 303.90039 352.09961C303.90039 346.29961 299.20039 341.59961 293.40039 341.59961 z M 356.09961 341.59961C350.29961 341.59961 345.59961 346.29961 345.59961 352.09961C345.59961 357.89961 350.29961 362.59961 356.09961 362.59961C361.89961 362.59961 366.59961 357.89961 366.59961 352.09961C366.59961 346.29961 361.89961 341.59961 356.09961 341.59961 z M 418.90039 341.59961C413.10039 341.59961 408.40039 346.29961 408.40039 352.09961C408.40039 357.89961 413.10039 362.59961 418.90039 362.59961C424.70039 362.59961 429.40039 357.89961 429.40039 352.09961C429.40039 346.29961 424.70039 341.59961 418.90039 341.59961 z M 136.5 373C130.7 373 126 377.7 126 383.5C126 389.3 130.7 394 136.5 394C142.3 394 147 389.3 147 383.5C147 377.7 142.3 373 136.5 373 z M 199.19922 373C193.39922 373 188.69922 377.7 188.69922 383.5C188.69922 389.3 193.39922 394 199.19922 394C204.99922 394 209.69922 389.3 209.69922 383.5C209.69922 377.7 204.99922 373 199.19922 373 z M 262 373C256.2 373 251.5 377.7 251.5 383.5C251.5 389.3 256.2 394 262 394C267.8 394 272.5 389.3 272.5 383.5C272.5 377.7 267.8 373 262 373 z M 324.80078 373C319.00078 373 314.30078 377.7 314.30078 383.5C314.30078 389.3 319.00078 394 324.80078 394C330.60078 394 335.30078 389.3 335.30078 383.5C335.30078 377.7 330.50078 373 324.80078 373 z M 387.5 373C381.7 373 377 377.7 377 383.5C377 389.3 381.7 394 387.5 394C393.3 394 398 389.3 398 383.5C398 377.7 393.3 373 387.5 373 z M 167.90039 404.40039C162.10039 404.40039 157.40039 409.10039 157.40039 414.90039C157.40039 420.70039 162.10039 425.40039 167.90039 425.40039C173.70039 425.40039 178.40039 420.70039 178.40039 414.90039C178.30039 409.10039 173.60039 404.40039 167.90039 404.40039 z M 230.59961 404.40039C224.79961 404.40039 220.09961 409.10039 220.09961 414.90039C220.09961 420.70039 224.79961 425.40039 230.59961 425.40039C236.39961 425.40039 241.09961 420.70039 241.09961 414.90039C241.09961 409.10039 236.39961 404.40039 230.59961 404.40039 z M 293.40039 404.40039C287.60039 404.40039 282.90039 409.10039 282.90039 414.90039C282.90039 420.70039 287.60039 425.40039 293.40039 425.40039C299.20039 425.40039 303.90039 420.70039 303.90039 414.90039C303.80039 409.10039 299.20039 404.40039 293.40039 404.40039 z M 356.09961 404.40039C350.29961 404.40039 345.59961 409.10039 345.59961 414.90039C345.59961 420.70039 350.29961 425.40039 356.09961 425.40039C361.89961 425.40039 366.59961 420.70039 366.59961 414.90039C366.59961 409.10039 361.89961 404.40039 356.09961 404.40039 z M 199.19922 435.80078C193.39922 435.80078 188.69922 440.50078 188.69922 446.30078C188.69922 452.10078 193.39922 456.80078 199.19922 456.80078C204.99922 456.80078 209.69922 452.10078 209.69922 446.30078C209.69922 440.50078 204.99922 435.80078 199.19922 435.80078 z M 262 435.80078C256.2 435.80078 251.5 440.50078 251.5 446.30078C251.5 452.10078 256.2 456.80078 262 456.80078C267.8 456.80078 272.5 451.99922 272.5 446.19922C272.5 440.39922 267.8 435.80078 262 435.80078 z M 324.80078 435.80078C319.00078 435.80078 314.30078 440.50078 314.30078 446.30078C314.30078 452.10078 319.00078 456.80078 324.80078 456.80078C330.60078 456.80078 335.30078 452.10078 335.30078 446.30078C335.30078 440.50078 330.50078 435.80078 324.80078 435.80078 z" />
</svg>