<?xml version="1.0" encoding="utf-8"?>
<svg xmlns="http://www.w3.org/2000/svg" viewBox="0 0 50 50" width="515" height="515">
  <path d="M25 2C23.35499 2 22 3.3549904 22 5C22 6.2931586 22.84267 7.3951413 24 7.8125L24 12 A 1.0001 1.0001 0 1 0 26 12L26 7.8125C27.15733 7.3951413 28 6.2931586 28 5C28 3.3549904 26.64501 2 25 2 z M 25 4C25.564129 4 26 4.4358706 26 5C26 5.5438301 25.591188 5.9584257 25.056641 5.9882812 A 1.0001 1.0001 0 0 0 24.984375 5.9863281 A 1.0001 1.0001 0 0 0 24.941406 5.9882812C24.407841 5.957487 24 5.543157 24 5C24 4.4358706 24.435871 4 25 4 z M 7 11C5.3549904 11 4 12.35499 4 14C4 15.64501 5.3549904 17 7 17C7.7122981 17 8.3618222 16.736097 8.8789062 16.314453L16.486328 20.859375 A 1.0011914 1.0011914 0 1 0 17.513672 19.140625L9.9355469 14.615234C9.9777274 14.416379 10 14.210596 10 14C10 12.35499 8.6450096 11 7 11 z M 43 11C41.35499 11 40 12.35499 40 14C40 14.210596 40.022273 14.416379 40.064453 14.615234L32.486328 19.140625 A 1.0011914 1.0011914 0 1 0 33.513672 20.859375L41.121094 16.314453C41.638178 16.736097 42.287702 17 43 17C44.64501 17 46 15.64501 46 14C46 12.35499 44.64501 11 43 11 z M 7 13C7.5641294 13 8 13.435871 8 14C8 14.564129 7.5641294 15 7 15C6.4358706 15 6 14.564129 6 14C6 13.435871 6.4358706 13 7 13 z M 43 13C43.564129 13 44 13.435871 44 14C44 14.564129 43.564129 15 43 15C42.435871 15 42 14.564129 42 14C42 13.435871 42.435871 13 43 13 z M 25.726562 15C20.999562 15 19.677578 17.969453 20.767578 21.689453C20.618578 21.786453 20.371594 22.093625 20.433594 22.640625C20.548594 23.658625 20.940453 23.9165 21.189453 23.9375C21.189453 25.0775 22.683 26.223391 23 26.400391L23 28.337891C22.28 30.395891 17 30.000578 17 33.392578C17 33.710578 17.174187 34 17.492188 34L32.507812 34C32.825813 34 33 33.710578 33 33.392578C33 30.000578 27.72 30.394891 27 28.337891L27 26.400391C27.316 26.224391 28.791016 25.030125 28.791016 23.953125C29.040016 23.932125 29.431875 23.67325 29.546875 22.65625C29.608875 22.11025 29.414891 21.765078 29.212891 21.705078C30.002891 19.203078 29.429 16 26 16L25.726562 15 z M 14.017578 30.714844 A 1.0001 1.0001 0 0 0 13.478516 30.869141L8.8730469 33.681641C8.3567923 33.262646 7.7098022 33 7 33C5.3549904 33 4 34.35499 4 36C4 37.64501 5.3549904 39 7 39C8.6450096 39 10 37.64501 10 36C10 35.787244 9.9766204 35.579655 9.9335938 35.378906L14.519531 32.576172 A 1.0001 1.0001 0 0 0 14.017578 30.714844 z M 35.951172 30.716797 A 1.0001 1.0001 0 0 0 35.478516 32.576172L40.066406 35.378906C40.02338 35.579655 40 35.787244 40 36C40 37.64501 41.35499 39 43 39C44.64501 39 46 37.64501 46 36C46 34.35499 44.64501 33 43 33C42.290198 33 41.643208 33.262646 41.126953 33.681641L36.521484 30.869141 A 1.0001 1.0001 0 0 0 35.951172 30.716797 z M 7 35C7.5641294 35 8 35.435871 8 36C8 36.564129 7.5641294 37 7 37C6.4358706 37 6 36.564129 6 36C6 35.435871 6.4358706 35 7 35 z M 43 35C43.564129 35 44 35.435871 44 36C44 36.564129 43.564129 37 43 37C42.435871 37 42 36.564129 42 36C42 35.435871 42.435871 35 43 35 z M 24.984375 35.986328 A 1.0001 1.0001 0 0 0 24 37L24 42.1875C22.84267 42.604859 22 43.706841 22 45C22 46.64501 23.35499 48 25 48C26.64501 48 28 46.64501 28 45C28 43.706841 27.15733 42.604859 26 42.1875L26 37 A 1.0001 1.0001 0 0 0 24.984375 35.986328 z M 24.943359 44.011719 A 1.0001 1.0001 0 0 0 25.058594 44.011719C25.592159 44.042513 26 44.456843 26 45C26 45.564129 25.564129 46 25 46C24.435871 46 24 45.564129 24 45C24 44.45617 24.408812 44.041574 24.943359 44.011719 z" />
</svg>