<?xml version="1.0" encoding="utf-8"?>
<svg xmlns="http://www.w3.org/2000/svg" viewBox="0 0 50 50" width="515" height="515">
  <path d="M26 2C13.300781 2 8.398438 10.199219 8 18L8 24.6875C7.300781 25.488281 7 26.511719 7 27.8125C7 30.113281 8.488281 32 10.6875 32.5C13.289063 39.300781 17.601563 48 25 48C28.683594 48 31.59375 45.789063 33.90625 42.78125C34.296875 42.34375 34.785156 41.660156 35.25 40.90625C39.082031 40.308594 42 37.003906 42 33L42 32C43.652344 32 45 30.652344 45 29L45 25C45 23.347656 43.652344 22 42 22L40 22C39.445313 22 39 22.449219 39 23L39 31C39 31.554688 39.445313 32 40 32L40 33C40 35.390625 38.660156 37.40625 36.6875 38.375C37.195313 37.4375 37.636719 36.601563 37.78125 36.3125C37.789063 36.304688 37.804688 36.320313 37.8125 36.3125C38.207031 35.457031 38.539063 34.605469 38.875 33.78125C38.167969 33.496094 37.601563 32.941406 37.28125 32.25C36.636719 33.851563 35.988281 35.3125 35.34375 36.625C35.257813 36.757813 35.179688 36.890625 35.09375 37.0625C34.765625 37.722656 34.386719 38.382813 34 39L29.8125 39C29.394531 37.84375 28.300781 37 27 37L25 37C23.347656 37 22 38.347656 22 40C22 41.652344 23.347656 43 25 43L27 43C28.300781 43 29.394531 42.15625 29.8125 41L32.625 41C32.308594 41.425781 31.90625 42 31.90625 42C29.707031 44.699219 27.40625 46 24.90625 46C20.105469 46 15.988281 41.1875 12.1875 31.1875L12 30.59375L11.40625 30.5C10.105469 30.5 9 29.3125 9 27.8125C9 27.144531 9.121094 26.5625 9.34375 26.15625L11.6875 26.9375C11.992188 27.039063 12.332031 27 12.59375 26.8125C12.855469 26.625 13 26.320313 13 26L13 19.9375C15.882813 19.691406 24.464844 18.625 28.875 14.5625C31.351563 17.664063 35.34375 19.214844 37 19.75L37 23C37 21.699219 37.839844 20.601563 39 20.1875C39.152344 20.132813 39.308594 20.089844 39.46875 20.0625C39.640625 20.027344 39.820313 20 40 20L42 20L42 18C41.601563 9.199219 36.707031 4.199219 28.40625 4L26.40625 2Z" />
</svg>