<?xml version="1.0" encoding="utf-8"?>
<svg xmlns="http://www.w3.org/2000/svg" viewBox="0 0 50 50" width="515" height="515">
  <path d="M3 4C1.355469 4 0 5.355469 0 7L0 43.90625C-0.0625 44.136719 -0.0390625 44.378906 0.0625 44.59375C0.34375 45.957031 1.5625 47 3 47L42 47C43.492188 47 44.71875 45.875 44.9375 44.4375C44.945313 44.375 44.964844 44.3125 44.96875 44.25C44.96875 44.230469 44.96875 44.207031 44.96875 44.1875L45 44.03125C45 44.019531 45 44.011719 45 44L49.96875 17.1875L50 17.09375L50 17C50 15.355469 48.644531 14 47 14L47 11C47 9.355469 45.644531 8 44 8L18.03125 8C18.035156 8.003906 18.023438 8 18 8C17.96875 7.976563 17.878906 7.902344 17.71875 7.71875C17.472656 7.4375 17.1875 6.96875 16.875 6.46875C16.5625 5.96875 16.226563 5.4375 15.8125 4.96875C15.398438 4.5 14.820313 4 14 4 Z M 3 6L14 6C13.9375 6 14.066406 6 14.3125 6.28125C14.558594 6.5625 14.84375 7.03125 15.15625 7.53125C15.46875 8.03125 15.8125 8.5625 16.21875 9.03125C16.625 9.5 17.179688 10 18 10L44 10C44.5625 10 45 10.4375 45 11L45 14L8 14C6.425781 14 5.171875 15.265625 5.0625 16.8125L5.03125 16.8125L5 17L2 33.1875L2 7C2 6.4375 2.4375 6 3 6 Z M 8 16L47 16C47.5625 16 48 16.4375 48 17L43.09375 43.53125L43.0625 43.59375C43.050781 43.632813 43.039063 43.675781 43.03125 43.71875C43.019531 43.757813 43.007813 43.800781 43 43.84375C43 43.863281 43 43.886719 43 43.90625C43 43.917969 43 43.925781 43 43.9375C42.984375 43.988281 42.976563 44.039063 42.96875 44.09375C42.964844 44.125 42.972656 44.15625 42.96875 44.1875C42.964844 44.230469 42.964844 44.269531 42.96875 44.3125C42.84375 44.71875 42.457031 45 42 45L3 45C2.4375 45 2 44.5625 2 44L6.96875 17.1875L7 17.09375L7 17C7 16.4375 7.4375 16 8 16Z" />
</svg>