<?xml version="1.0" encoding="utf-8"?>
<svg xmlns="http://www.w3.org/2000/svg" viewBox="0 0 50 50" width="515" height="515">
  <path d="M26.6875 0L10.6875 5C10.289063 5.199219 10 5.601563 10 6L10 45C10 45.5 10.3125 45.898438 10.8125 46L26.8125 50L27 50C27.199219 50 27.394531 49.914063 27.59375 49.8125C27.792969 49.613281 28 49.300781 28 49L28 1C28 0.699219 27.792969 0.386719 27.59375 0.1875C27.292969 -0.0117188 26.988281 0 26.6875 0 Z M 30 4L30 6L38 6L38 44L30 44L30 46L39 46C39.550781 46 40 45.550781 40 45L40 5C40 4.449219 39.550781 4 39 4 Z M 24 24C24.601563 24 25 24.699219 25 25.5C25 26.300781 24.601563 27 24 27C23.398438 27 23 26.300781 23 25.5C23 24.699219 23.398438 24 24 24Z" />
</svg>