<?xml version="1.0" encoding="utf-8"?>
<svg xmlns="http://www.w3.org/2000/svg" viewBox="0 0 50 50" width="515" height="515">
  <path d="M25 0C23.199219 0 21.585938 0.554688 20.34375 1.59375C18.921875 2.78125 1.707031 18.035156 0.40625 19.1875L8 25.21875L8 18C8 17.449219 8.449219 17 9 17L41 17C41.554688 17 42 17.449219 42 18L42 25.15625L49.53125 19.125C47.714844 17.511719 31.191406 2.878906 29.65625 1.59375C28.414063 0.554688 26.800781 0 25 0 Z M 50 21.3125L35.28125 33.09375C39.746094 36.585938 45.847656 41.347656 50 44.59375 Z M 0 21.4375L0 44.46875C3.90625 41.4375 10.125 36.605469 14.6875 33.0625 Z M 15 22C14.449219 22 14 22.449219 14 23C14 23.550781 14.449219 24 15 24L35 24C35.554688 24 36 23.550781 36 23C36 22.449219 35.554688 22 35 22 Z M 15 27C14.449219 27 14 27.445313 14 28C14 28.554688 14.449219 29 15 29L19.9375 29C20.148438 28.835938 20.320313 28.722656 20.40625 28.65625C22.21875 27.242188 24.050781 27.015625 24.875 27 Z M 25.125 27C25.949219 27.019531 27.78125 27.238281 29.59375 28.65625C29.675781 28.71875 29.851563 28.835938 30.0625 29L35 29C35.554688 29 36 28.554688 36 28C36 27.445313 35.554688 27 35 27 Z M 25 29C24.457031 29 23.042969 29.109375 21.625 30.21875C20.433594 31.152344 5.878906 42.4375 0 47L0 49C0 49.554688 0.449219 50 1 50L49 50C49.554688 50 50 49.554688 50 49L50 47.15625C43.441406 42.023438 29.519531 31.113281 28.375 30.21875C26.957031 29.109375 25.542969 29 25 29Z" />
</svg>