<?xml version="1.0" encoding="utf-8"?>
<svg xmlns="http://www.w3.org/2000/svg" viewBox="0 0 50 50" width="515" height="515">
  <path d="M42.900391 2.9003906C41.800391 2.9003906 40.8 3.2996094 40 4.0996094L39.177734 4.921875 A 1.0001 1.0001 0 0 0 38.685547 4.8007812 A 1.0001 1.0001 0 0 0 37.992188 5.09375L6.59375 36.492188 A 1.0001 1.0001 0 0 0 6.3632812 36.849609L3.0644531 45.648438 A 1.0001 1.0001 0 0 0 4.3515625 46.935547L13.150391 43.636719 A 1.0001 1.0001 0 0 0 13.507812 43.40625L44.90625 12.007812 A 1.0001 1.0001 0 0 0 44.998047 10.703125L45.800781 9.9003906C47.400781 8.3003906 47.400781 5.6996094 45.800781 4.0996094C45.000781 3.2996094 44.000391 2.9003906 42.900391 2.9003906 z M 38.699219 7.2148438L42.785156 11.300781L39.492188 14.59375L35.40625 10.507812L38.699219 7.2148438 z M 8.0488281 38.048828L9 39L11 39L11 41L11.951172 41.951172L7.078125 43.777344L6.2226562 42.921875L8.0488281 38.048828 z" />
</svg>