<?xml version="1.0" encoding="utf-8"?>
<svg xmlns="http://www.w3.org/2000/svg" viewBox="0 0 50 50" width="515" height="515">
  <path d="M26.800781 5C22.342845 5 19.089703 6.7717451 17.365234 9.3867188C17.010969 9.9239245 16.737763 10.496983 16.517578 11.087891L16.300781 10.599609C16.100781 10.199609 15.800391 10 15.400391 10C12.100391 10 9.5 11.3 8 13.5C6.7 15.4 6.5007813 17.799609 7.3007812 20.099609C7.1007812 20.499609 6.9 21.200391 7 21.900391C7.2 23.500391 7.8007812 24.2 8.3007812 24.5C8.6007813 25.7 9.2007813 26.999219 9.8007812 27.699219C9.8007812 28.399219 9.7992187 29.1 9.6992188 30C9.2992188 30.8 8 31.4 6.5 32C3.9 33.1 0.3 34.5 0 39C0 39.3 0.10078125 39.600781 0.30078125 39.800781C0.50078125 40.000781 0.7 40.099609 1 40.099609L7.203125 40.099609C7.0499529 40.671066 6.9420308 41.280648 6.9023438 41.939453 A 1.0001 1.0001 0 0 0 7.9003906 43L42.099609 43 A 1.0001 1.0001 0 0 0 43.097656 41.939453C43.05564 41.241984 42.938144 40.599646 42.769531 40L49 40C49.3 40 49.499219 39.899609 49.699219 39.599609C49.899219 39.399609 50 39.200391 50 38.900391C49.7 34.400391 46.199609 33.000391 43.599609 31.900391C42.199609 31.300391 40.800391 30.700391 40.400391 29.900391C40.300391 29.100391 40.300781 28.399609 40.300781 27.599609C40.900781 26.899609 41.499219 25.6 41.699219 24.5C42.199219 24.2 42.8 23.500391 43 21.900391C43.1 21.200391 42.999219 20.599609 42.699219 20.099609C43.299219 18.599609 43.300781 15.999609 42.300781 14.099609C41.500781 12.499609 40.199609 11.600391 38.599609 11.400391L38.199219 10.599609C38.099219 10.199609 37.700781 10 37.300781 10C35.748758 10 34.382113 10.185559 33.191406 10.546875C32.838277 9.7564069 32.369684 9.010284 31.724609 8.390625C30.874142 7.573666 29.67751 7.0899819 28.308594 6.9335938L27.712891 5.59375 A 1.0001 1.0001 0 0 0 26.800781 5 z M 26.177734 7.0605469L26.685547 8.2070312 A 1.0001 1.0001 0 0 0 27.599609 8.8007812C28.842971 8.8007812 29.677623 9.1978551 30.339844 9.8339844C31.002064 10.470114 31.474811 11.389509 31.746094 12.408203C32.017377 13.426898 32.082899 14.533478 31.990234 15.462891C31.897574 16.392303 31.602167 17.147193 31.419922 17.375 A 1.0001 1.0001 0 0 0 31.777344 18.90625C31.780675 18.906967 31.792913 18.909329 31.816406 18.964844C31.873616 19.100077 31.929677 19.390348 31.900391 19.779297C31.766301 20.63641 31.536174 21.13471 31.375 21.349609C31.294031 21.457568 31.240223 21.493085 31.222656 21.503906 A 1.0001 1.0001 0 0 0 30.306641 22.388672C30.223701 23.135145 29.926485 24.09311 29.580078 24.841797C29.406875 25.21614 29.220099 25.543113 29.066406 25.757812C28.912713 25.972514 28.743174 26.050359 28.90625 25.980469 A 1.0001 1.0001 0 0 0 28.300781 26.900391C28.300781 28.200391 28.300382 29.236192 28.402344 30.765625 A 1.0001 1.0001 0 0 0 28.464844 31.056641C29.00125 32.464707 30.226264 33.313347 31.544922 33.966797C32.86358 34.620247 34.359948 35.121141 35.765625 35.730469C37.171302 36.339797 38.468848 37.049204 39.412109 38.019531C40.143013 38.771407 40.600771 39.76923 40.861328 41L9.1386719 41C9.3992287 39.76923 9.856987 38.771407 10.587891 38.019531C11.531152 37.049204 12.828698 36.339797 14.234375 35.730469C15.640052 35.121141 17.13642 34.620247 18.455078 33.966797C19.773736 33.313347 20.99875 32.464707 21.535156 31.056641 A 1.0001 1.0001 0 0 0 21.597656 30.771484C21.700308 29.334354 21.699219 28.200391 21.699219 26.900391 A 1.0001 1.0001 0 0 0 21.09375 25.980469C21.230414 26.039039 21.0581 25.954119 20.896484 25.744141C20.734872 25.534162 20.540182 25.219036 20.357422 24.853516C19.991902 24.122476 19.676159 23.177418 19.59375 22.394531 A 1.0001 1.0001 0 0 0 18.796875 21.519531C18.699415 21.500041 18.169581 21.516031 17.996094 19.808594C17.926274 19.040558 18.29526 18.804462 18.253906 18.832031 A 1.0001 1.0001 0 0 0 18.617188 17.599609C17.538062 15.126616 17.709625 12.498308 19.035156 10.488281C20.283974 8.594582 22.620469 7.2187351 26.177734 7.0605469 z M 14.800781 12L15.099609 12.900391C15.29581 13.292792 15.589841 13.490593 15.978516 13.498047C15.867726 14.92361 16.081392 16.399663 16.605469 17.818359C16.220981 18.337863 15.914596 19.007822 16.003906 19.990234 A 1.0001 1.0001 0 0 0 16.005859 20C16.181697 21.758373 16.971602 22.592399 17.740234 23.044922C17.902574 24.000269 18.173137 24.957602 18.568359 25.748047C18.798099 26.207527 19.045987 26.616619 19.3125 26.962891C19.413535 27.094162 19.581035 27.171375 19.689453 27.287109C19.688556 28.343401 19.682255 29.301373 19.609375 30.419922C19.323113 31.076009 18.656208 31.633786 17.566406 32.173828C16.431939 32.736003 14.946276 33.241359 13.439453 33.894531C11.93263 34.547703 10.387208 35.356656 9.1523438 36.626953C8.7059977 37.086107 8.3075367 37.611283 7.9726562 38.199219L2.0996094 38.199219C2.7996094 35.799219 4.8992188 34.9 7.1992188 34C9.0992187 33.2 10.999609 32.399219 11.599609 30.699219C11.699609 30.599219 11.699219 30.500391 11.699219 30.400391C11.799219 29.100391 11.800781 28.300781 11.800781 27.300781C11.800781 27.000781 11.700391 26.7 11.400391 26.5C11.100391 26.3 10.399219 24.899219 10.199219 23.699219C10.099219 23.199219 9.7007813 22.900781 9.3007812 22.800781C9.3007812 22.700781 9.1 22.399219 9 21.699219C9 21.399219 8.9996094 21.199609 9.0996094 21.099609C9.3996094 20.899609 9.6003906 20.300391 9.4003906 19.900391C8.6003906 18.100391 8.6992188 16.099609 9.6992188 14.599609C10.699219 12.999609 12.500781 12.1 14.800781 12 z M 36.699219 12L37.099609 12.800781C37.199609 13.200781 37.6 13.400391 38 13.400391C39.2 13.400391 40.099609 13.9 40.599609 15C41.399609 16.7 41.199219 19.099219 40.699219 19.699219C40.499219 19.999219 40.4 20.299609 40.5 20.599609C40.6 20.799609 40.700391 20.999609 40.900391 21.099609L40.900391 21.599609C40.800391 22.299609 40.699609 22.599219 40.599609 22.699219C40.099609 22.699219 39.699219 23.099609 39.699219 23.599609C39.599219 24.699609 38.899219 25.999219 38.699219 26.199219C38.399219 26.399219 38.199219 26.699609 38.199219 27.099609C38.199219 28.199609 38.200781 29.099219 38.300781 30.199219C38.400781 30.299219 38.400391 30.4 38.400391 30.5C39.100391 32.3 40.900781 33.000781 42.800781 33.800781C45.000781 34.700781 47.200781 35.6 47.800781 38L42 38C41.968541 38 41.944393 38.013455 41.914062 38.015625C41.602891 37.503299 41.246119 37.036849 40.847656 36.626953C39.612792 35.356656 38.06737 34.547703 36.560547 33.894531C35.053724 33.241359 33.568061 32.736003 32.433594 32.173828C31.345079 31.634424 30.679453 31.076944 30.392578 30.421875C30.318808 29.224567 30.311297 28.315993 30.310547 27.265625C30.418344 27.143074 30.595409 27.058706 30.693359 26.921875C30.949041 26.564701 31.180235 26.144797 31.394531 25.681641C31.768561 24.873254 32.025387 23.927047 32.177734 23.001953C32.444608 22.838441 32.767121 22.827433 32.974609 22.550781C33.410609 21.969448 33.721505 21.163277 33.888672 20.048828 A 1.0001 1.0001 0 0 0 33.896484 19.990234C33.959104 19.301462 33.873924 18.695434 33.658203 18.185547C33.604533 18.0587 33.42782 18.017319 33.355469 17.898438C33.676063 17.243738 33.895588 16.513446 33.980469 15.662109C34.080698 14.656819 34.026885 13.543547 33.796875 12.4375C34.651391 12.206772 35.64666 12.075183 36.699219 12 z" />
</svg>