<?xml version="1.0" encoding="utf-8"?>
<svg xmlns="http://www.w3.org/2000/svg" viewBox="0 0 50 50" width="515" height="515">
  <path d="M26.052734 4.0917969C10.761734 5.2487969 17.534109 25.492609 14.037109 28.599609C14.037109 30.165609 16.991937 30.820344 21.210938 31.277344C21.198937 31.568344 21.174141 31.926344 21.119141 32.527344C19.367141 37.238344 7.546 35.916 7 45L45 45C44.455 35.916 32.685594 37.238344 30.933594 32.527344C30.907594 32.240344 30.888047 31.779734 30.873047 31.302734C35.218047 30.856734 38.255859 29.70825 38.255859 28.53125C35.007859 25.60425 41.07025 4.8026094 29.78125 5.2246094C29.07225 4.6246094 27.832734 4.0917969 26.052734 4.0917969 z" />
</svg>