<?xml version="1.0" encoding="utf-8"?>
<svg xmlns="http://www.w3.org/2000/svg" viewBox="0 0 50 50" width="515" height="515">
  <path d="M25 2C20.59375 2 17 5.59375 17 10C17 14.40625 20.59375 18 25 18C29.40625 18 33 14.40625 33 10C33 5.59375 29.40625 2 25 2 Z M 25 4C28.324219 4 31 6.675781 31 10C31 13.324219 28.324219 16 25 16C21.675781 16 19 13.324219 19 10C19 6.675781 21.675781 4 25 4 Z M 19.984375 19.984375C19.933594 19.988281 19.886719 19.992188 19.835938 20L18 20C16.140625 20 14.589844 20.648438 13.453125 21.367188C12.316406 22.085938 11.605469 22.835938 11.265625 23.285156C9.382813 25.785156 5.203125 32.640625 5.203125 32.640625C5.199219 32.644531 5.195313 32.648438 5.191406 32.65625C4.429688 33.960938 3.980469 35.230469 4.0625 36.527344C4.144531 37.820313 4.789063 39.03125 5.882813 40.121094L10.5 44.742188C11.816406 46.058594 13.871094 46.109375 15.320313 45.019531L15.503906 47.089844C15.53125 47.449219 15.746094 47.765625 16.074219 47.921875C16.402344 48.074219 16.785156 48.042969 17.082031 47.832031C17.375 47.621094 17.535156 47.269531 17.496094 46.910156L15.992188 29.910156C15.953125 29.496094 15.664063 29.148438 15.265625 29.039063C14.863281 28.925781 14.433594 29.074219 14.1875 29.410156L9.898438 35.289063C9.609375 35.6875 9.652344 36.238281 10 36.585938L14.328125 40.914063C15.003906 41.589844 15.003906 42.652344 14.328125 43.328125C13.652344 44.003906 12.589844 44.003906 11.917969 43.328125L7.296875 38.707031C6.433594 37.84375 6.105469 37.136719 6.058594 36.394531C6.011719 35.65625 6.269531 34.777344 6.921875 33.664063C6.9375 33.636719 11.195313 26.699219 12.863281 24.488281C12.863281 24.488281 12.863281 24.488281 12.863281 24.484375C12.988281 24.320313 13.617188 23.628906 14.519531 23.058594C15.425781 22.488281 16.609375 22 18 22L19.332031 22L23.550781 32.125L22.035156 36.167969C21.914063 36.496094 22.09375 36.855469 22.4375 36.96875L25.339844 37.964844C25.683594 38.078125 26.058594 37.910156 26.183594 37.582031L27.960938 32.832031C28.082031 32.503906 27.90625 32.144531 27.5625 32.03125L26.625 31.707031L30.667969 22L32 22C33.390625 22 34.574219 22.488281 35.480469 23.058594C36.382813 23.628906 37.011719 24.320313 37.136719 24.484375C37.136719 24.488281 37.136719 24.488281 37.136719 24.488281C38.804688 26.699219 43.0625 33.636719 43.078125 33.664063C43.730469 34.777344 43.988281 35.65625 43.941406 36.394531C43.894531 37.136719 43.566406 37.84375 42.703125 38.707031L38.082031 43.328125C37.410156 44.003906 36.347656 44.003906 35.671875 43.328125C34.996094 42.652344 34.996094 41.589844 35.671875 40.914063L40 36.585938C40.347656 36.238281 40.390625 35.6875 40.097656 35.289063L35.8125 29.410156C35.566406 29.074219 35.136719 28.925781 34.734375 29.039063C34.335938 29.148438 34.046875 29.496094 34.007813 29.910156L32.503906 46.910156C32.464844 47.269531 32.625 47.621094 32.917969 47.832031C33.214844 48.042969 33.597656 48.074219 33.925781 47.921875C34.253906 47.765625 34.46875 47.449219 34.496094 47.089844L34.679688 45.019531C36.128906 46.109375 38.183594 46.058594 39.5 44.742188L44.121094 40.121094C45.210938 39.03125 45.855469 37.820313 45.9375 36.527344C46.019531 35.230469 45.570313 33.960938 44.808594 32.65625C44.804688 32.648438 44.800781 32.644531 44.796875 32.640625C44.796875 32.640625 40.617188 25.785156 38.734375 23.285156C38.394531 22.835938 37.683594 22.085938 36.546875 21.367188C35.410156 20.648438 33.859375 20 32 20L20.15625 20C20.097656 19.992188 20.042969 19.984375 19.984375 19.984375 Z M 21.5 22L28.5 22L25 30.398438 Z M 14.234375 32.742188L14.746094 38.5L12.019531 35.777344 Z M 35.765625 32.742188L37.980469 35.777344L35.253906 38.5Z" />
</svg>