<?xml version="1.0" encoding="utf-8"?>
<svg xmlns="http://www.w3.org/2000/svg" viewBox="0 0 50 50" width="515" height="515">
  <path d="M9 3C7.3545455 3 6 4.3545455 6 6L6 8.8320312 A 1.0001 1.0001 0 0 0 6 9.1582031L6 39.832031 A 1.0001 1.0001 0 0 0 6 40.158203L6 44C6 45.645455 7.3545455 47 9 47L29 47C30.645455 47 32 45.645455 32 44L32 40.167969 A 1.0001 1.0001 0 0 0 32 39.841797L32 9.1679688 A 1.0001 1.0001 0 0 0 32 8.8417969L32 6C32 4.3545455 30.645455 3 29 3L9 3 z M 9 5L29 5C29.554545 5 30 5.4454545 30 6L30 8L8 8L8 6C8 5.4454545 8.4454545 5 9 5 z M 8 10L30 10L30 39L8 39L8 10 z M 8 41L30 41L30 44C30 44.554545 29.554545 45 29 45L9 45C8.4454545 45 8 44.554545 8 44L8 41 z M 16 42 A 1.0001 1.0001 0 1 0 16 44L22 44 A 1.0001 1.0001 0 1 0 22 42L16 42 z" />
</svg>