<?xml version="1.0" encoding="utf-8"?>
<svg xmlns="http://www.w3.org/2000/svg" viewBox="0 0 50 50" width="515" height="515">
  <path d="M0 4L0 46L50 46L50 4 Z M 2 6L48 6L48 44L2 44 Z M 4 8L4 30.78125C3.972656 30.914063 3.972656 31.054688 4 31.1875L4 42L46 42L46 37.15625C46.027344 37.023438 46.027344 36.882813 46 36.75L46 8 Z M 6 10L44 10L44 34.5625L34.71875 25.28125C34.496094 25.0625 34.183594 24.957031 33.875 25C33.652344 25.023438 33.441406 25.125 33.28125 25.28125L29.03125 29.53125L18.75 18.3125C18.519531 18.0625 18.179688 17.941406 17.84375 18C17.644531 18.027344 17.460938 18.117188 17.3125 18.25L6 28.6875 Z M 35 15C33.34375 15 32 16.34375 32 18C32 19.65625 33.34375 21 35 21C36.65625 21 38 19.65625 38 18C38 16.34375 36.65625 15 35 15 Z M 17.9375 20.4375L27.59375 30.96875L25.28125 33.28125C24.882813 33.679688 24.882813 34.320313 25.28125 34.71875C25.679688 35.117188 26.320313 35.117188 26.71875 34.71875L29.5625 31.84375C29.703125 31.757813 29.820313 31.640625 29.90625 31.5L34 27.4375L44 37.4375L44 40L6 40L6 31.46875Z" />
</svg>