<?xml version="1.0" encoding="utf-8"?>
<svg xmlns="http://www.w3.org/2000/svg" width="515" height="515" viewBox="0 0 50 50">
  <path d="M35 1C31.437374 1 27.887307 2.4071117 25.107422 5.0800781 A 1.0001 1.0001 0 0 0 25.046875 5.140625C25.052575 5.134065 24.632987 5.5748496 24.060547 6.1542969C23.488107 6.7337442 22.705342 7.5200502 21.783203 8.4453125C19.938925 10.295837 17.537109 12.699219 15.130859 15.105469C12.724609 17.511719 10.313914 19.92202 8.4550781 21.787109C7.5256603 22.719654 6.7341456 23.514659 6.1484375 24.107422C5.5848441 24.677803 5.272869 24.994708 5.09375 25.193359C5.09243 25.194659 5.0911737 25.195966 5.0898438 25.197266C-0.38278721 30.674176 -0.3880836 39.524245 5.09375 44.90625C7.7823148 47.594819 11.345098 49 15 49C18.654902 49 22.121927 47.584009 24.892578 44.919922 A 1.0001 1.0001 0 0 0 24.90625 44.90625L45.007812 24.806641C50.486785 19.327668 50.490283 10.468568 45 5.0859375 A 1.0001 1.0001 0 0 0 44.992188 5.0800781C42.21229 2.4071123 38.654902 1 35 1 z M 35 3C38.143332 3 41.184062 4.1931228 43.603516 6.5175781C48.309188 11.135298 48.313459 18.672903 43.59375 23.392578L35.199219 31.785156L18.238281 14.824219C20.004431 13.057767 21.824602 11.238654 23.201172 9.8574219C24.124345 8.9311217 24.907987 8.142037 25.484375 7.5585938C26.028048 7.0082655 26.307288 6.727986 26.492188 6.5214844C28.912302 4.1944508 31.962626 3 35 3 z M 16.824219 16.238281L33.785156 33.199219L23.501953 43.482422C22.424427 44.517436 21.244185 45.312712 19.994141 45.892578 A 1 1 0 0 0 19 45 A 1 1 0 0 0 18.175781 46.564453C17.149932 46.847365 16.088804 47 15 47C14.479852 47 13.964505 46.955703 13.453125 46.890625 A 1 1 0 0 0 13 45 A 1 1 0 0 0 12.265625 46.677734C10.131244 46.185182 8.1375974 45.121972 6.5078125 43.492188 A 1.0001 1.0001 0 0 0 6.5 43.486328C4.81782 41.837132 3.7462075 39.813042 3.265625 37.679688 A 1 1 0 0 0 4 38 A 1 1 0 0 0 4 36 A 1 1 0 0 0 3.078125 36.615234C2.8699379 35.018205 2.9838192 33.386191 3.4316406 31.820312 A 1 1 0 0 0 4 32 A 1 1 0 0 0 4.1230469 30.007812C4.7020919 28.783114 5.4882653 27.626969 6.5078125 26.607422 A 1.0001 1.0001 0 0 0 6.546875 26.564453C6.573184 26.534853 6.9903956 26.10255 7.5722656 25.513672C8.1541357 24.924794 8.9446522 24.128784 9.8730469 23.197266C11.729836 21.33423 14.138672 18.925781 16.544922 16.519531C16.646197 16.418256 16.722995 16.339505 16.824219 16.238281 z M 16 18 A 1 1 0 0 0 16 20 A 1 1 0 0 0 16 18 z M 13 21 A 1 1 0 0 0 13 23 A 1 1 0 0 0 13 21 z M 19 21 A 1 1 0 0 0 19 23 A 1 1 0 0 0 19 21 z M 10 24 A 1 1 0 0 0 10 26 A 1 1 0 0 0 10 24 z M 16 24 A 1 1 0 0 0 16 26 A 1 1 0 0 0 16 24 z M 22 24 A 1 1 0 0 0 22 26 A 1 1 0 0 0 22 24 z M 7 27 A 1 1 0 0 0 7 29 A 1 1 0 0 0 7 27 z M 13 27 A 1 1 0 0 0 13 29 A 1 1 0 0 0 13 27 z M 19 27 A 1 1 0 0 0 19 29 A 1 1 0 0 0 19 27 z M 25 27 A 1 1 0 0 0 25 29 A 1 1 0 0 0 25 27 z M 10 30 A 1 1 0 0 0 10 32 A 1 1 0 0 0 10 30 z M 16 30 A 1 1 0 0 0 16 32 A 1 1 0 0 0 16 30 z M 22 30 A 1 1 0 0 0 22 32 A 1 1 0 0 0 22 30 z M 28 30 A 1 1 0 0 0 28 32 A 1 1 0 0 0 28 30 z M 7 33 A 1 1 0 0 0 7 35 A 1 1 0 0 0 7 33 z M 13 33 A 1 1 0 0 0 13 35 A 1 1 0 0 0 13 33 z M 19 33 A 1 1 0 0 0 19 35 A 1 1 0 0 0 19 33 z M 25 33 A 1 1 0 0 0 25 35 A 1 1 0 0 0 25 33 z M 31 33 A 1 1 0 0 0 31 35 A 1 1 0 0 0 31 33 z M 10 36 A 1 1 0 0 0 10 38 A 1 1 0 0 0 10 36 z M 16 36 A 1 1 0 0 0 16 38 A 1 1 0 0 0 16 36 z M 22 36 A 1 1 0 0 0 22 38 A 1 1 0 0 0 22 36 z M 28 36 A 1 1 0 0 0 28 38 A 1 1 0 0 0 28 36 z M 7 39 A 1 1 0 0 0 7 41 A 1 1 0 0 0 7 39 z M 13 39 A 1 1 0 0 0 13 41 A 1 1 0 0 0 13 39 z M 19 39 A 1 1 0 0 0 19 41 A 1 1 0 0 0 19 39 z M 25 39 A 1 1 0 0 0 25 41 A 1 1 0 0 0 25 39 z M 10 42 A 1 1 0 0 0 10 44 A 1 1 0 0 0 10 42 z M 16 42 A 1 1 0 0 0 16 44 A 1 1 0 0 0 16 42 z M 22 42 A 1 1 0 0 0 22 44 A 1 1 0 0 0 22 42 z" />
</svg>