<?xml version="1.0" encoding="utf-8"?>
<svg xmlns="http://www.w3.org/2000/svg" width="515" height="515" viewBox="0 0 50 50">
  <path d="M25 2C12.308594 2 2 12.308594 2 25C2 37.691406 12.308594 48 25 48C37.691406 48 48 37.691406 48 25C48 12.308594 37.691406 2 25 2 Z M 25 4C36.609375 4 46 13.390625 46 25C46 36.609375 36.609375 46 25 46C13.390625 46 4 36.609375 4 25C4 13.390625 13.390625 4 25 4 Z M 25.570312 11C17.925781 11 13 16.417969 13 21.648438C13 26.75 15.824219 27.949219 16.417969 28.292969C17.007812 28.636719 17.425781 28.394531 17.558594 27.921875L17.914062 26.5C17.914062 26.5 18.078125 26.121094 17.75 25.722656C17.347656 25.238281 16.480469 24.351562 16.480469 22.148438C16.480469 18.214844 19.582031 13.933594 25.210938 13.933594C30.734375 13.933594 32.625 17.53125 32.625 20.507812C32.625 24.210938 30.851562 29.746094 27.109375 29.746094C24.785156 29.746094 24.113281 27.949219 24.113281 27.074219C24.101562 26.773438 24.167969 26.476562 24.199219 26.332031C24.226562 26.191406 25.171875 23.183594 25.472656 22.109375C26.148438 19.703125 25.570312 17.703125 23.359375 17.703125C20.242188 17.703125 19.121094 22.089844 20.488281 24.894531L18.265625 34.003906C18.265625 34.003906 17.957031 35.496094 17.894531 36.375C17.804688 37.726562 17.996094 39.722656 18.0625 40.320312C18.109375 40.753906 18.113281 40.960938 18.308594 41C18.503906 41.035156 18.839844 40.703125 19.109375 40.300781C19.453125 39.796875 20.609375 38.164062 21.078125 37.125C21.496094 36.199219 21.570312 36.175781 22.003906 34.535156C22.441406 32.894531 23.027344 30.585938 23.027344 30.585938C23.027344 30.585938 24.246094 32.722656 27.542969 32.722656C32.230469 32.722656 37 28.640625 37 21.003906C37 14.816406 31.640625 11 25.570312 11 Z M 25.570312 11" />
</svg>