<?xml version="1.0" encoding="utf-8"?>
<svg xmlns="http://www.w3.org/2000/svg" width="515" height="515" viewBox="0 0 50 50">
  <path d="M25 0.072265625C17.318248 0.072265625 11.072266 6.3182479 11.072266 14C11.072266 20.368347 14.407052 27.682438 17.691406 33.484375C20.97576 39.286312 24.263672 43.566406 24.263672 43.566406 A 0.92859285 0.92859285 0 0 0 25.740234 43.560547C25.740234 43.560547 29.025502 39.212143 32.308594 33.376953C35.591685 27.541804 38.927734 20.235793 38.927734 14C38.927734 6.3182479 32.681752 0.072265625 25 0.072265625 z M 25 1.9277344C31.678248 1.9277344 37.072266 7.3217521 37.072266 14C37.072266 19.553207 33.908315 26.747284 30.691406 32.464844C28.063003 37.136427 25.869294 40.204183 24.996094 41.400391C24.118697 40.216079 21.931238 37.201361 19.308594 32.568359C16.092948 26.887797 12.927734 19.701653 12.927734 14C12.927734 7.3217521 18.321752 1.9277344 25 1.9277344 z M 25 8.0351562C21.165035 8.0351562 18.035156 11.165038 18.035156 15C18.035156 18.834962 21.165035 21.964844 25 21.964844C28.834965 21.964844 31.964844 18.834962 31.964844 15C31.964844 11.165038 28.834965 8.0351562 25 8.0351562 z M 25 9.9648438C27.792457 9.9648438 30.035156 12.207545 30.035156 15C30.035156 17.792455 27.792457 20.035156 25 20.035156C22.207543 20.035156 19.964844 17.792455 19.964844 15C19.964844 12.207545 22.207543 9.9648437 25 9.9648438 z M 34.630859 34.152344 A 1.0001 1.0001 0 0 0 34.539062 36.144531C38.397906 36.711719 41.65087 37.618952 43.853516 38.685547C44.954839 39.218844 45.786672 39.794462 46.300781 40.332031C46.81489 40.869601 47 41.319285 47 41.736328C47 42.31094 46.617495 42.997322 45.59375 43.761719C44.570005 44.526115 42.974185 45.282715 40.962891 45.917969C36.940302 47.188476 31.267153 48 25 48C18.732847 48 13.059698 47.188476 9.0371094 45.917969C7.0258153 45.282715 5.4299953 44.526115 4.40625 43.761719C3.3825047 42.997322 3 42.31094 3 41.736328C3 41.318928 3.1851312 40.869617 3.6992188 40.332031C4.2133063 39.794446 5.0451735 39.21878 6.1464844 38.685547C8.3491062 37.619081 11.602052 36.711725 15.460938 36.144531 A 1.0001 1.0001 0 0 0 15.339844 34.154297 A 1.0001 1.0001 0 0 0 15.169922 34.166016C11.170806 34.753821 7.7662688 35.678732 5.2753906 36.884766C4.0299515 37.487783 3.006803 38.159867 2.2519531 38.949219C1.4971032 39.738571 1 40.695228 1 41.736328C1 43.166717 1.9053859 44.391881 3.2089844 45.365234C4.5125828 46.338588 6.2830127 47.146925 8.4335938 47.826172C12.734756 49.184665 18.562153 50 25 50C31.437847 50 37.265244 49.184665 41.566406 47.826172C43.716987 47.146925 45.487417 46.338588 46.791016 45.365234C48.094614 44.391881 49 43.166717 49 41.736328C49 40.695371 48.502875 39.738493 47.748047 38.949219C46.993218 38.159945 45.970036 37.489796 44.724609 36.886719C42.233755 35.680564 38.829235 34.753828 34.830078 34.166016 A 1.0001 1.0001 0 0 0 34.630859 34.152344 z" />
</svg>