<?xml version="1.0" encoding="utf-8"?>
<svg xmlns="http://www.w3.org/2000/svg" viewBox="0 0 50 50" width="515" height="515">
  <path d="M25 2C17.5 2 11.400391 8.0996094 11.400391 15.599609C11.400391 27.599609 23.699219 43.899609 24.199219 44.599609C24.399219 44.799609 24.7 45 25 45C25.3 45 25.600781 44.799609 25.800781 44.599609C26.300781 43.899609 38.599609 27.299609 38.599609 15.599609C38.599609 8.0996094 32.5 2 25 2 z M 25 9C28.3 9 31 11.7 31 15C31 18.4 28.4 21 25 21C21.6 21 19 18.4 19 15C19 11.7 21.7 9 25 9 z M 17.5 36.5C11.7 37.4 7 39.2 7 42C7 45.9 16.3 48 25 48C33.2 48 42 46.1 42 42C42 39.2 38.000391 37.499609 32.900391 36.599609C32.900391 36.599609 32.600781 36.5 32.300781 36.5C29.500781 41.4 26.899609 44.899219 26.599609 45.199219C26.199609 45.699219 25.6 46 25 46C24.4 46 23.800391 45.699219 23.400391 45.199219C23.200391 44.899219 20.499219 41.4 17.699219 36.5L17.5 36.5 z" />
</svg>