<?xml version="1.0" encoding="utf-8"?>
<svg xmlns="http://www.w3.org/2000/svg" width="515" height="515" viewBox="0 0 50 50">
  <path d="M25 2C12.308594 2 2 12.308594 2 25C2 37.691406 12.308594 48 25 48C37.691406 48 48 37.691406 48 25C48 12.308594 37.691406 2 25 2 Z M 25 4C36.609375 4 46 13.390625 46 25C46 36.609375 36.609375 46 25 46C13.390625 46 4 36.609375 4 25C4 13.390625 13.390625 4 25 4 Z M 17.957031 13.035156C17.691406 13.039062 17.4375 13.144531 17.25 13.332031C17.0625 13.519531 16.957031 13.773438 16.957031 14.042969L16.957031 14.0625C16.957031 14.066406 16.957031 14.066406 16.957031 14.070312L17.042969 36.035156C17.042969 36.394531 17.234375 36.726562 17.546875 36.902344C17.855469 37.082031 18.238281 37.078125 18.546875 36.898438L37.503906 25.828125C37.8125 25.648438 38.003906 25.316406 38 24.960938C38 24.601562 37.808594 24.273438 37.5 24.09375L18.457031 13.171875C18.304688 13.085938 18.132812 13.039062 17.957031 13.035156 Z M 18.964844 15.769531L35 24.972656L19.035156 34.296875 Z M 18.964844 15.769531" />
</svg>