<?xml version="1.0" encoding="utf-8"?>
<svg xmlns="http://www.w3.org/2000/svg" width="515" height="515" viewBox="0 0 50 50">
  <path d="M13 7 A 1.0001 1.0001 0 1 0 13 9L19.585938 9L2.2929688 26.292969 A 1.0001 1.0001 0 1 0 3.7070312 27.707031L21 10.414062L20.998047 17 A 1.0001 1.0001 0 1 0 22.998047 17L23 7L13 7 z M 34 11L34 12L34 50L48 50L48 11L34 11 z M 36 13L46 13L46 48L36 48L36 13 z M 18 24L18 25L18 50L32 50L32 24L18 24 z M 20 26L30 26L30 48L20 48L20 26 z M 2 35L2 36L2 50L16 50L16 35L2 35 z M 4 37L14 37L14 48L4 48L4 37 z" />
</svg>