<?xml version="1.0" encoding="utf-8"?>
<svg xmlns="http://www.w3.org/2000/svg" viewBox="0 0 50 50" width="515" height="515">
  <path d="M12 0 A 1.0001 1.0001 0 0 0 11 1L11 15L5 15C3.3545455 15 2 16.354545 2 18L2 36C2 37.645455 3.3545455 39 5 39L12 39L38 39L45 39C46.645455 39 48 37.645455 48 36L48 18C48 16.354545 46.645455 15 45 15L39 15L39 1 A 1.0001 1.0001 0 0 0 38 0L12 0 z M 13 2L37 2L37 15L13 15L13 2 z M 5 17L45 17C45.554545 17 46 17.445455 46 18L46 36C46 36.554545 45.554545 37 45 37L38 37L12 37L5 37C4.4454545 37 4 36.554545 4 36L4 18C4 17.445455 4.4454545 17 5 17 z M 42 20C40.9 20 40 20.9 40 22C40 23.1 40.9 24 42 24C43.1 24 44 23.1 44 22C44 20.9 43.1 20 42 20 z M 10 28 A 1.0001 1.0001 0 1 0 10 30L40 30 A 1.0001 1.0001 0 1 0 40 28L10 28 z" />
</svg>