<?xml version="1.0" encoding="utf-8"?>
<svg xmlns="http://www.w3.org/2000/svg" viewBox="0 0 50 50" width="515" height="515">
  <path d="M24.800781 1.8007812C23.734115 1.8007814 22.701172 1.9058594 21.701172 2.0058594 A 1.0001 1.0001 0 1 0 21.900391 3.9941406C22.900391 3.8941406 23.867448 3.8007813 24.800781 3.8007812C32.412505 3.8007812 39.082934 7.8248048 42.716797 13.900391L35.800781 13.900391 A 1.0001 1.0001 0 1 0 35.800781 15.900391L44.900391 15.900391 A 1.0001 1.0001 0 0 0 45.900391 14.900391L45.900391 5.9003906 A 1.0001 1.0001 0 0 0 44.884766 4.8867188 A 1.0001 1.0001 0 0 0 43.900391 5.9003906L43.900391 12.048828C39.813641 5.8485771 32.767283 1.8007812 24.800781 1.8007812 z M 5.9003906 4.0996094 A 1.0001 1.0001 0 1 0 5.9003906 6.0996094L12.048828 6.0996094C5.8485771 10.186359 1.8007812 17.232717 1.8007812 25.199219C1.8007814 26.265885 1.9058594 27.298828 2.0058594 28.298828 A 1.0001 1.0001 0 1 0 3.9941406 28.099609C3.8941406 27.099609 3.8007813 26.132552 3.8007812 25.199219C3.8007812 17.587495 7.8248048 10.917066 13.900391 7.2832031L13.900391 14.199219 A 1.0001 1.0001 0 1 0 15.900391 14.199219L15.900391 5.0996094 A 1.0001 1.0001 0 0 0 14.900391 4.0996094L5.9003906 4.0996094 z M 46.984375 20.785156 A 1.0001 1.0001 0 0 0 46.005859 21.900391C46.105859 22.900391 46.199219 23.867448 46.199219 24.800781C46.199219 32.412505 42.175195 39.082934 36.099609 42.716797L36.099609 35.800781 A 1.0001 1.0001 0 0 0 35.083984 34.785156 A 1.0001 1.0001 0 0 0 34.099609 35.800781L34.099609 44.900391 A 1.0001 1.0001 0 0 0 35.099609 45.900391L44.099609 45.900391 A 1.0001 1.0001 0 1 0 44.099609 43.900391L37.951172 43.900391C44.151423 39.813641 48.199219 32.767283 48.199219 24.800781C48.199219 23.734115 48.094141 22.701172 47.994141 21.701172 A 1.0001 1.0001 0 0 0 46.984375 20.785156 z M 5.0996094 34.099609 A 1.0001 1.0001 0 0 0 4.0996094 35.099609L4.0996094 44.099609 A 1.0001 1.0001 0 1 0 6.0996094 44.099609L6.0996094 37.951172C10.186359 44.151423 17.232717 48.199219 25.199219 48.199219C26.265885 48.199219 27.298828 48.094141 28.298828 47.994141 A 1.0001 1.0001 0 1 0 28.099609 46.005859C27.099609 46.105859 26.132552 46.199219 25.199219 46.199219C17.587495 46.199219 10.917066 42.175195 7.2832031 36.099609L14.199219 36.099609 A 1.0001 1.0001 0 1 0 14.199219 34.099609L5.0996094 34.099609 z" />
</svg>