<?xml version="1.0" encoding="utf-8"?>
<svg xmlns="http://www.w3.org/2000/svg" viewBox="0 0 50 50" width="515" height="515">
  <path d="M24.984375 3.9863281 A 1.0001 1.0001 0 0 0 24.839844 4L11 4 A 1.0001 1.0001 0 0 0 10.359375 4.2324219L4.3730469 9.2207031L4.359375 9.2324219 A 1.0001 1.0001 0 0 0 4.3261719 9.2636719 A 1.0001 1.0001 0 0 0 4.2832031 9.3027344 A 1.0001 1.0001 0 0 0 4 10.152344L4 45 A 1.0001 1.0001 0 0 0 5 46L45 46 A 1.0001 1.0001 0 0 0 46 45L46 10.144531 A 1.0001 1.0001 0 0 0 45.765625 9.3554688 A 1.0001 1.0001 0 0 0 45.761719 9.3496094 A 1.0001 1.0001 0 0 0 45.697266 9.2832031 A 1.0001 1.0001 0 0 0 45.640625 9.2324219L45.621094 9.2167969L39.640625 4.2324219 A 1.0001 1.0001 0 0 0 39 4L25.154297 4 A 1.0001 1.0001 0 0 0 24.984375 3.9863281 z M 11.361328 6L24 6L24 9L7.7617188 9L11.361328 6 z M 26 6L38.638672 6L42.238281 9L26 9L26 6 z M 6 11L24.832031 11 A 1.0001 1.0001 0 0 0 25.158203 11L44 11L44 44L6 44L6 11 z M 21.5 15C20.116667 15 19 16.116667 19 17.5C19 18.883333 20.116667 20 21.5 20L28.5 20C29.883333 20 31 18.883333 31 17.5C31 16.116667 29.883333 15 28.5 15L21.5 15 z M 21.5 17L28.5 17C28.716667 17 29 17.283333 29 17.5C29 17.716667 28.716667 18 28.5 18L21.5 18C21.283333 18 21 17.716667 21 17.5C21 17.283333 21.283333 17 21.5 17 z M 31 31L28 34L30 34L30 38L32 38L32 34L34 34L31 31 z M 38 31L35 34L37 34L37 38L39 38L39 34L41 34L38 31 z M 28 39L28 41L41 41L41 39L28 39 z" />
</svg>