<?xml version="1.0" encoding="utf-8"?>
<svg xmlns="http://www.w3.org/2000/svg" viewBox="0 0 50 50" width="515" height="515">
  <path d="M46.214844 7.847656C38.8125 6.222656 34.441406 3.921875 31.25 2.242188C28.769531 0.941406 26.980469 0 25 0C23.019531 0 21.230469 0.941406 18.75 2.242188C15.558594 3.921875 11.1875 6.222656 3.785156 7.847656L3 8.019531L3 8.824219C3 39.285156 24.363281 49.503906 24.582031 49.601563L25.019531 49.804688L25.453125 49.585938C25.667969 49.476563 47 38.273438 47 8.824219L47 8.019531 Z M 24.417969 31.15625L16.585938 24.070313L17.929688 22.589844L24.015625 28.09375L32.699219 14.617188L34.382813 15.699219Z" />
</svg>