<?xml version="1.0" encoding="utf-8"?>
<svg xmlns="http://www.w3.org/2000/svg" viewBox="0 0 50 50" width="515" height="515">
  <path d="M25 0C21.5 0 18.195313 1.292969 15.59375 3.59375C12.695313 6.195313 11 10 11 14C11 15.101563 11.898438 16 13 16L15 16C16.101563 16 17 15.101563 17 14C17 11.699219 17.988281 9.601563 19.6875 8C21.1875 6.699219 23 6 25 6C25.300781 6 25.605469 5.992188 25.90625 6.09375C29.605469 6.492188 32.507813 9.492188 32.90625 13.09375C33.304688 16.394531 31.585938 19.492188 28.6875 21.09375C24.488281 23.292969 21.90625 27.492188 21.90625 32.09375L21.90625 38C21.90625 39.101563 22.804688 40 23.90625 40L25.90625 40C27.007813 40 27.90625 39.101563 27.90625 38L27.90625 32.09375C27.90625 29.792969 29.300781 27.605469 31.5 26.40625C36.601563 23.707031 39.511719 18.199219 38.8125 12.5C38.210938 6 32.992188 0.792969 26.59375 0.09375C26.09375 -0.0078125 25.5 0 25 0 Z M 23 44C22.449219 44 22 44.445313 22 45L22 49C22 49.554688 22.449219 50 23 50L27 50C27.554688 50 28 49.554688 28 49L28 45C28 44.445313 27.554688 44 27 44Z" />
</svg>