<?xml version="1.0" encoding="utf-8"?>
<svg xmlns="http://www.w3.org/2000/svg" viewBox="0 0 50 50" width="515" height="515">
  <path d="M49 4L1 4C0.449219 4 0 4.449219 0 5L0 45C0 45.554688 0.449219 46 1 46L49 46C49.554688 46 50 45.554688 50 45L50 5C50 4.449219 49.554688 4 49 4 Z M 29 36L9 36L9 34L29 34 Z M 29 26L9 26L9 24L29 24 Z M 29 16L9 16L9 14L29 14 Z M 41.917969 33.773438L39.117188 37.773438C38.964844 37.996094 38.722656 38.148438 38.449219 38.1875C38.402344 38.195313 38.351563 38.199219 38.300781 38.199219C38.082031 38.199219 37.867188 38.128906 37.691406 37.992188L35.089844 35.992188C34.652344 35.65625 34.570313 35.027344 34.90625 34.589844C35.242188 34.152344 35.871094 34.070313 36.308594 34.40625L38.078125 35.769531L40.28125 32.625C40.597656 32.171875 41.21875 32.0625 41.671875 32.378906C42.125 32.695313 42.234375 33.320313 41.917969 33.773438 Z M 41.917969 23.773438L39.117188 27.773438C38.964844 27.996094 38.722656 28.148438 38.449219 28.1875C38.402344 28.195313 38.351563 28.199219 38.300781 28.199219C38.082031 28.199219 37.867188 28.128906 37.691406 27.992188L35.089844 25.992188C34.652344 25.65625 34.570313 25.027344 34.90625 24.589844C35.242188 24.152344 35.871094 24.070313 36.308594 24.40625L38.078125 25.769531L40.28125 22.628906C40.597656 22.175781 41.21875 22.0625 41.671875 22.382813C42.125 22.699219 42.234375 23.320313 41.917969 23.773438 Z M 41.917969 13.773438L39.117188 17.773438C38.964844 17.996094 38.722656 18.148438 38.449219 18.1875C38.402344 18.195313 38.351563 18.199219 38.300781 18.199219C38.082031 18.199219 37.867188 18.128906 37.691406 17.992188L35.089844 15.992188C34.652344 15.65625 34.570313 15.027344 34.90625 14.589844C35.242188 14.152344 35.871094 14.070313 36.308594 14.40625L38.078125 15.769531L40.28125 12.625C40.597656 12.171875 41.21875 12.0625 41.671875 12.378906C42.125 12.699219 42.234375 13.320313 41.917969 13.773438Z" />
</svg>