<?xml version="1.0" encoding="utf-8"?>
<svg xmlns="http://www.w3.org/2000/svg" viewBox="0 0 50 50" width="515" height="515">
  <path d="M17.832031 0C17.542969 0 17.265625 0.00390625 17 0.0117188L17 12C17 12.550781 16.550781 13 16 13C15.449219 13 15 12.550781 15 12L15 0.148438C12.550781 0.4375 11.601563 1.046875 11.398438 1.199219L11.0625 1.453125L11.007813 1.875C10.96875 2.207031 10 10 10 15C10 18.925781 12.253906 20.609375 13.746094 21.71875C14.417969 22.222656 15 22.65625 15 23C15 23.820313 14.84375 25.707031 14.660156 27.894531C14.363281 31.4375 13.996094 35.84375 14 39C14 47.222656 15.007813 49.996094 17.996094 50L18.015625 50C19 50 20.226563 49.761719 21.003906 47.898438C21.6875 46.269531 22.003906 43.441406 22 39C22 35.847656 21.636719 31.449219 21.34375 27.914063C21.160156 25.71875 21 23.820313 21 23C21 22.660156 21.574219 22.242188 22.234375 21.753906C23.734375 20.652344 26 18.988281 26 15C26 11.703125 25.035156 2.296875 24.996094 1.898438L24.941406 1.402344L24.515625 1.144531C24.375 1.058594 23.355469 0.488281 21 0.1875L21 12C21 12.550781 20.550781 13 20 13C19.449219 13 19 12.550781 19 12L19 0.0273438C18.628906 0.0117188 18.246094 0 17.832031 0 Z M 30.910156 0.00390625C30.75 0.0195313 30.589844 0.0703125 30.449219 0.164063C30.167969 0.347656 30 0.664063 30 1L30 12C30 12.207031 30.011719 13.296875 30.027344 14.734375C30.054688 17.550781 30.097656 21.707031 30.097656 23.152344C30.101563 24.046875 29.894531 26.992188 29.671875 30.109375C29.355469 34.589844 29 39.671875 29 42C29 47.527344 29.28125 49.949219 32 49.953125C34.28125 49.953125 37 47.878906 37 38C36.996094 34.753906 36.210938 32.375 35.640625 30.640625C35.28125 29.558594 35 28.699219 35 28C34.996094 26.597656 35.980469 24.824219 37.015625 22.953125C38.449219 20.367188 40.070313 17.4375 40.074219 14.074219C40.070313 11.664063 39.441406 3.527344 31.390625 0.0820313C31.238281 0.015625 31.074219 -0.0117188 30.910156 0.00390625Z" />
</svg>