<?xml version="1.0" encoding="utf-8"?>
<svg xmlns="http://www.w3.org/2000/svg" viewBox="0 0 50 50" width="515" height="515">
  <path d="M8.5 7C6.570313 7 5 8.570313 5 10.5C5 12.429688 6.570313 14 8.5 14C10.429688 14 12 12.429688 12 10.5C12 8.570313 10.429688 7 8.5 7 Z M 41.5 7C39.570313 7 38 8.570313 38 10.5C38 12.429688 39.570313 14 41.5 14C43.429688 14 45 12.429688 45 10.5C45 8.570313 43.429688 7 41.5 7 Z M 8.5 15C6.570313 15 5 16.570313 5 18.5L5.015625 28.789063C5.164063 30.589844 6.691406 32 8.5 32L11.46875 32L12.21875 27L12 27L11.996094 18.445313C11.769531 16.417969 10.335938 15 8.5 15 Z M 41.5 15C39.664063 15 38.230469 16.417969 38.003906 18.445313L38 27L37.78125 27L38.53125 32L41.5 32C43.308594 32 44.835938 30.589844 44.984375 28.789063L45 18.5C45 16.570313 43.429688 15 41.5 15 Z M 2.984375 15.984375C2.433594 15.996094 1.992188 16.449219 2 17L2 31.238281C2 31.257813 2 31.277344 2 31.296875C2.082031 32.644531 2.847656 33.796875 3.945313 34.445313L3.007813 42.890625C2.945313 43.4375 3.339844 43.933594 3.890625 43.992188C4.4375 44.054688 4.933594 43.660156 4.992188 43.109375L5.898438 34.996094C5.90625 34.996094 5.917969 35 5.929688 35L13.039063 35L12.011719 41.851563C11.980469 42.078125 12.023438 42.308594 12.136719 42.503906C12.339844 42.855469 13.261719 44 16.519531 44C18.355469 44 19.398438 43.59375 20 43.230469L20 36C20 35.449219 20.445313 35 21 35C21.554688 35 22 35.449219 22 36L22 43.300781C22.589844 43.65625 23.53125 44 25 44C26.46875 44 27.410156 43.65625 28 43.300781L28 38C28 37.449219 28.445313 37 29 37C29.554688 37 30 37.449219 30 38L30 43.191406C30.664063 43.558594 31.824219 44 33.566406 44C36.398438 44 37.597656 42.824219 37.722656 42.6875C37.9375 42.464844 38.035156 42.15625 37.988281 41.851563L36.960938 35L44.070313 35C44.082031 35 44.09375 34.996094 44.105469 34.996094L45.003906 43.109375C45.066406 43.660156 45.5625 44.054688 46.113281 43.996094C46.660156 43.933594 47.054688 43.4375 46.996094 42.890625L46.058594 34.445313C47.152344 33.796875 47.917969 32.644531 48 31.296875C48 31.277344 48 31.257813 48 31.238281L48 17C48.003906 16.730469 47.898438 16.46875 47.707031 16.277344C47.515625 16.085938 47.253906 15.980469 46.984375 15.984375C46.433594 15.996094 45.992188 16.449219 46 17L46 31.183594C45.9375 32.214844 45.101563 33 44.070313 33L36.660156 33L34.988281 21.851563C34.914063 21.363281 34.496094 21 34 21L16 21C15.503906 21 15.085938 21.363281 15.011719 21.851563L13.339844 33L5.929688 33C4.898438 33 4.0625 32.214844 4 31.183594L4 17C4.003906 16.730469 3.898438 16.46875 3.707031 16.277344C3.515625 16.085938 3.253906 15.980469 2.984375 15.984375Z" />
</svg>