<?xml version="1.0" encoding="utf-8"?>
<svg xmlns="http://www.w3.org/2000/svg" viewBox="0 0 50 50" width="515" height="515">
  <path d="M17.839844 0C15.511719 0 13.960938 0.257813 12.960938 0.539063C12.460938 0.675781 12.097656 0.820313 11.84375 0.941406C11.59375 1.0625 11.398438 1.203125 11.398438 1.203125L11.0625 1.453125L11.007813 1.875C11.007813 1.875 10 9.871094 10 15C10 18.085938 11.511719 19.925781 12.863281 21.039063C13.542969 21.597656 14.171875 22.015625 14.554688 22.355469C14.9375 22.695313 15 22.832031 15 23C15 23.941406 14.75 26.726563 14.5 29.816406C14.25 32.90625 13.996094 36.367188 14 39C14 43.757813 14.332031 46.320313 15.003906 47.917969C15.34375 48.714844 15.8125 49.296875 16.390625 49.625C16.964844 49.957031 17.550781 50 18 50C18.445313 50 19.035156 49.960938 19.609375 49.628906C20.1875 49.300781 20.660156 48.714844 20.996094 47.917969C21.667969 46.324219 22.003906 43.753906 22 39C22 36.371094 21.75 32.90625 21.5 29.816406C21.246094 26.726563 21 23.945313 21 23C21 22.828125 21.058594 22.703125 21.4375 22.371094C21.820313 22.039063 22.453125 21.625 23.128906 21.070313C24.488281 19.964844 26 18.121094 26 15C26 11.511719 24.996094 1.898438 24.996094 1.898438L24.941406 1.402344L24.515625 1.144531C24.515625 1.144531 23.925781 0.804688 22.859375 0.53125C21.792969 0.257813 20.167969 0 17.839844 0 Z M 31.003906 0C30.738281 0 30.484375 0.105469 30.292969 0.292969C30.105469 0.480469 30 0.734375 30 1L30 12C30 12.703125 30.097656 20.996094 30.097656 23.152344C30.101563 24.074219 29.828125 27.882813 29.550781 31.824219C29.277344 35.765625 29 39.910156 29 42C29 45.027344 29.089844 46.789063 29.476563 48.027344C29.671875 48.644531 29.980469 49.183594 30.46875 49.527344C30.957031 49.871094 31.515625 49.953125 32 49.953125C32 49.957031 32 49.957031 32 49.953125C33.109375 49.953125 34.527344 49.253906 35.460938 47.449219C36.394531 45.640625 37 42.769531 37 38C37 35.316406 36.464844 33.234375 35.953125 31.605469C35.441406 29.972656 35 28.785156 35 28C35 26.601563 36.128906 24.578125 37.410156 22.238281C38.695313 19.898438 40.070313 17.191406 40.074219 14.078125C40.074219 14.074219 40.074219 14.074219 40.074219 14.074219C40.074219 12.332031 39.796875 9.683594 38.570313 7.019531C37.34375 4.355469 35.128906 1.679688 31.394531 0.0820313C31.269531 0.0273438 31.136719 0 31.003906 0 Z M 17.839844 2C18.261719 2 18.632813 2.015625 19 2.03125L19 12C18.996094 12.359375 19.183594 12.695313 19.496094 12.878906C19.808594 13.058594 20.191406 13.058594 20.503906 12.878906C20.816406 12.695313 21.003906 12.359375 21 12L21 2.210938C21.539063 2.292969 22.011719 2.378906 22.363281 2.46875C22.910156 2.609375 22.90625 2.640625 23.050781 2.707031C23.136719 3.550781 24 12.0625 24 15C24 17.53125 23.011719 18.589844 21.867188 19.519531C21.296875 19.988281 20.679688 20.378906 20.121094 20.867188C19.5625 21.355469 19 22.074219 19 23C19 24.246094 19.253906 26.898438 19.503906 29.980469C19.753906 33.058594 20 36.5 20 39C20.003906 43.652344 19.597656 46.085938 19.15625 47.140625C18.933594 47.667969 18.746094 47.820313 18.617188 47.894531C18.488281 47.96875 18.320313 48 18.003906 48L18 48C17.683594 48 17.515625 47.96875 17.386719 47.890625C17.253906 47.816406 17.070313 47.664063 16.847656 47.140625C16.40625 46.085938 16 43.652344 16 39C15.996094 36.496094 16.242188 33.058594 16.496094 29.980469C16.746094 26.902344 17 24.246094 17 23C17 22.070313 16.441406 21.355469 15.886719 20.859375C15.328125 20.367188 14.710938 19.96875 14.136719 19.496094C12.992188 18.550781 12 17.488281 12 15C12 10.421875 12.832031 3.511719 12.933594 2.664063C13.082031 2.601563 13.214844 2.542969 13.5 2.460938C13.863281 2.359375 14.367188 2.257813 15 2.171875L15 12C14.996094 12.359375 15.183594 12.695313 15.496094 12.878906C15.808594 13.058594 16.191406 13.058594 16.503906 12.878906C16.816406 12.695313 17.003906 12.359375 17 12L17 2.023438C17.277344 2.015625 17.53125 2 17.839844 2 Z M 32 2.859375C34.273438 4.234375 35.878906 5.960938 36.75 7.855469C37.8125 10.160156 38.074219 12.550781 38.074219 14.078125C38.070313 16.589844 36.914063 18.988281 35.65625 21.277344C34.402344 23.566406 33 25.691406 33 28C33 29.398438 33.558594 30.65625 34.046875 32.203125C34.53125 33.75 35 35.578125 35 38C35 42.59375 34.371094 45.199219 33.683594 46.53125C32.996094 47.859375 32.417969 47.953125 32 47.953125C31.726563 47.953125 31.65625 47.914063 31.625 47.894531C31.59375 47.875 31.5 47.796875 31.386719 47.425781C31.152344 46.6875 31 44.972656 31 42C31 40.089844 31.273438 35.898438 31.546875 31.964844C31.820313 28.027344 32.101563 24.410156 32.097656 23.148438C32.097656 20.9375 32 12.523438 32 12Z" />
</svg>