<?xml version="1.0" encoding="utf-8"?>
<svg xmlns="http://www.w3.org/2000/svg" viewBox="0 0 50 50" width="515" height="515">
  <path d="M5 4C2.25 4 0 6.25 0 9L0 38C0 40.75 2.25 43 5 43L21 43C22.664063 43 24 44.351563 24 46C24 46.308594 24.144531 46.601563 24.386719 46.789063C24.632813 46.980469 24.949219 47.046875 25.25 46.96875C25.511719 46.902344 25.738281 46.734375 25.875 46.5C25.960938 46.347656 26.003906 46.175781 26 46C26 44.351563 27.335938 43 29 43L45 43C47.75 43 50 40.75 50 38L50 9C50 6.25 47.75 4 45 4L29 4C27.367188 4 25.914063 4.8125 25 6.03125C24.085938 4.8125 22.632813 4 21 4 Z M 5 6L21 6C22.667969 6 24 7.332031 24 9L24 42.125C23.152344 41.464844 22.148438 41 21 41L5 41C3.332031 41 2 39.667969 2 38L2 9C2 7.332031 3.332031 6 5 6 Z M 29 6L45 6C46.667969 6 48 7.332031 48 9L48 38C48 39.667969 46.667969 41 45 41L29 41C27.851563 41 26.847656 41.464844 26 42.125L26 9C26 7.332031 27.332031 6 29 6 Z M 12.40625 9C11.417969 9 10.558594 9.441406 9.875 10.0625C9.191406 10.683594 8.664063 11.460938 8.25 12.34375C7.421875 14.105469 7 16.210938 7 18C7 20.546875 7.9375 22.007813 8.8125 22.8125C9.25 23.214844 9.632813 23.476563 9.8125 23.65625C9.992188 23.835938 10 23.816406 10 24L10 32C10 34.160156 10.074219 35.4375 10.40625 36.40625C10.570313 36.890625 10.839844 37.335938 11.25 37.625C11.660156 37.914063 12.144531 38 12.53125 38C12.957031 38 13.453125 37.886719 13.84375 37.5625C14.234375 37.238281 14.472656 36.800781 14.625 36.3125C14.929688 35.335938 15 34.03125 15 32L15 24C15 23.816406 14.980469 23.832031 15.15625 23.65625C15.332031 23.480469 15.714844 23.242188 16.15625 22.84375C17.039063 22.046875 18 20.585938 18 18C18 16.082031 17.535156 13.988281 16.65625 12.25C15.777344 10.511719 14.351563 9 12.40625 9 Z M 12.40625 11C13.292969 11 14.171875 11.738281 14.875 13.125C15.578125 14.511719 16 16.417969 16 18C16 20.164063 15.460938 20.785156 14.84375 21.34375C14.535156 21.621094 14.167969 21.871094 13.78125 22.25C13.394531 22.628906 13 23.269531 13 24L13 32C13 33.96875 12.882813 35.164063 12.71875 35.6875C12.636719 35.949219 12.546875 36.011719 12.5625 36C12.578125 35.988281 12.648438 36 12.53125 36C12.375 36 12.382813 35.984375 12.40625 36C12.429688 36.015625 12.394531 36.015625 12.3125 35.78125C12.152344 35.3125 12 34.089844 12 32L12 24C12 23.269531 11.632813 22.636719 11.25 22.25C10.867188 21.863281 10.5 21.597656 10.1875 21.3125C9.5625 20.742188 9 20.121094 9 18C9 16.539063 9.390625 14.644531 10.0625 13.21875C10.398438 12.507813 10.808594 11.902344 11.21875 11.53125C11.628906 11.160156 11.976563 11 12.40625 11 Z M 29.71875 12C29.167969 12.078125 28.78125 12.589844 28.859375 13.140625C28.9375 13.691406 29.449219 14.078125 30 14L39 14C39.359375 14.003906 39.695313 13.816406 39.878906 13.503906C40.058594 13.191406 40.058594 12.808594 39.878906 12.496094C39.695313 12.183594 39.359375 11.996094 39 12L30 12C29.96875 12 29.9375 12 29.90625 12C29.875 12 29.84375 12 29.8125 12C29.78125 12 29.75 12 29.71875 12 Z M 42.71875 12C42.167969 12.078125 41.78125 12.589844 41.859375 13.140625C41.9375 13.691406 42.449219 14.078125 43 14L44 14C44.359375 14.003906 44.695313 13.816406 44.878906 13.503906C45.058594 13.191406 45.058594 12.808594 44.878906 12.496094C44.695313 12.183594 44.359375 11.996094 44 12L43 12C42.96875 12 42.9375 12 42.90625 12C42.875 12 42.84375 12 42.8125 12C42.78125 12 42.75 12 42.71875 12 Z M 29.71875 17C29.167969 17.078125 28.78125 17.589844 28.859375 18.140625C28.9375 18.691406 29.449219 19.078125 30 19L39 19C39.359375 19.003906 39.695313 18.816406 39.878906 18.503906C40.058594 18.191406 40.058594 17.808594 39.878906 17.496094C39.695313 17.183594 39.359375 16.996094 39 17L30 17C29.96875 17 29.9375 17 29.90625 17C29.875 17 29.84375 17 29.8125 17C29.78125 17 29.75 17 29.71875 17 Z M 42.71875 17C42.167969 17.078125 41.78125 17.589844 41.859375 18.140625C41.9375 18.691406 42.449219 19.078125 43 19L44 19C44.359375 19.003906 44.695313 18.816406 44.878906 18.503906C45.058594 18.191406 45.058594 17.808594 44.878906 17.496094C44.695313 17.183594 44.359375 16.996094 44 17L43 17C42.96875 17 42.9375 17 42.90625 17C42.875 17 42.84375 17 42.8125 17C42.78125 17 42.75 17 42.71875 17 Z M 29.71875 22C29.167969 22.078125 28.78125 22.589844 28.859375 23.140625C28.9375 23.691406 29.449219 24.078125 30 24L39 24C39.359375 24.003906 39.695313 23.816406 39.878906 23.503906C40.058594 23.191406 40.058594 22.808594 39.878906 22.496094C39.695313 22.183594 39.359375 21.996094 39 22L30 22C29.96875 22 29.9375 22 29.90625 22C29.875 22 29.84375 22 29.8125 22C29.78125 22 29.75 22 29.71875 22 Z M 42.71875 22C42.167969 22.078125 41.78125 22.589844 41.859375 23.140625C41.9375 23.691406 42.449219 24.078125 43 24L44 24C44.359375 24.003906 44.695313 23.816406 44.878906 23.503906C45.058594 23.191406 45.058594 22.808594 44.878906 22.496094C44.695313 22.183594 44.359375 21.996094 44 22L43 22C42.96875 22 42.9375 22 42.90625 22C42.875 22 42.84375 22 42.8125 22C42.78125 22 42.75 22 42.71875 22 Z M 29.71875 27C29.167969 27.078125 28.78125 27.589844 28.859375 28.140625C28.9375 28.691406 29.449219 29.078125 30 29L39 29C39.359375 29.003906 39.695313 28.816406 39.878906 28.503906C40.058594 28.191406 40.058594 27.808594 39.878906 27.496094C39.695313 27.183594 39.359375 26.996094 39 27L30 27C29.96875 27 29.9375 27 29.90625 27C29.875 27 29.84375 27 29.8125 27C29.78125 27 29.75 27 29.71875 27 Z M 42.71875 27C42.167969 27.078125 41.78125 27.589844 41.859375 28.140625C41.9375 28.691406 42.449219 29.078125 43 29L44 29C44.359375 29.003906 44.695313 28.816406 44.878906 28.503906C45.058594 28.191406 45.058594 27.808594 44.878906 27.496094C44.695313 27.183594 44.359375 26.996094 44 27L43 27C42.96875 27 42.9375 27 42.90625 27C42.875 27 42.84375 27 42.8125 27C42.78125 27 42.75 27 42.71875 27 Z M 29.71875 32C29.167969 32.078125 28.78125 32.589844 28.859375 33.140625C28.9375 33.691406 29.449219 34.078125 30 34L39 34C39.359375 34.003906 39.695313 33.816406 39.878906 33.503906C40.058594 33.191406 40.058594 32.808594 39.878906 32.496094C39.695313 32.183594 39.359375 31.996094 39 32L30 32C29.96875 32 29.9375 32 29.90625 32C29.875 32 29.84375 32 29.8125 32C29.78125 32 29.75 32 29.71875 32 Z M 42.71875 32C42.167969 32.078125 41.78125 32.589844 41.859375 33.140625C41.9375 33.691406 42.449219 34.078125 43 34L44 34C44.359375 34.003906 44.695313 33.816406 44.878906 33.503906C45.058594 33.191406 45.058594 32.808594 44.878906 32.496094C44.695313 32.183594 44.359375 31.996094 44 32L43 32C42.96875 32 42.9375 32 42.90625 32C42.875 32 42.84375 32 42.8125 32C42.78125 32 42.75 32 42.71875 32Z" />
</svg>