<?xml version="1.0" encoding="utf-8"?>
<svg xmlns="http://www.w3.org/2000/svg" viewBox="0 0 50 50" width="515" height="515">
  <path d="M35 2C33.416667 2 32.101892 2.6297556 31.251953 3.5859375C30.402014 4.5421194 30 5.7777779 30 7C30 8.2222221 30.402014 9.4578811 31.251953 10.414062C32.101892 11.370245 33.416667 12 35 12C36.583333 12 37.898108 11.370244 38.748047 10.414062C39.597986 9.4578811 40 8.2222221 40 7C40 5.7777779 39.597986 4.5421194 38.748047 3.5859375C37.898108 2.6297556 36.583333 2 35 2 z M 35 4C36.083333 4 36.768559 4.3702444 37.251953 4.9140625C37.735347 5.4578806 38 6.2222221 38 7C38 7.7777779 37.735347 8.5421194 37.251953 9.0859375C36.768559 9.6297556 36.083333 10 35 10C33.916667 10 33.231441 9.6297556 32.748047 9.0859375C32.264653 8.5421194 32 7.7777779 32 7C32 6.2222221 32.264653 5.4578806 32.748047 4.9140625C33.231441 4.3702444 33.916667 4 35 4 z M 20.074219 9.0566406C19.347589 9.057399 18.615942 9.2678477 17.984375 9.7128906 A 1.0001 1.0001 0 0 0 17.982422 9.7148438L11.296875 14.4375C10.533748 14.97642 10.083531 15.771972 10 16.558594C9.916469 17.345215 10.156557 18.09584 10.583984 18.695312C11.011412 19.294785 11.64333 19.766499 12.417969 19.939453C13.192608 20.112407 14.093641 19.935753 14.851562 19.380859L20.431641 15.296875L23.15625 16.150391C22.743836 16.825322 22.285547 17.573989 21.375 19.068359C20.123824 21.121763 18.863518 23.190259 18.585938 23.683594C18.311722 24.170947 18.071541 24.887992 18.046875 25.78125L14.699219 31L7.5 31C6.4186471 31 5.4816385 31.442478 4.8828125 32.117188C4.2839865 32.791896 4.004753 33.651247 4.0039062 34.498047C4.0030595 35.344847 4.2799086 36.207403 4.8789062 36.882812C5.477904 37.558222 6.4169 38 7.5 38L16.210938 38C17.658675 38 19.014797 37.287375 19.837891 36.097656L22.90625 31.779297C25.107381 33.114884 27.223772 34.448383 27.673828 34.736328L26.03125 42.806641C25.811325 43.88794 26.05748 44.909287 26.609375 45.636719C27.161273 46.364151 27.964395 46.799473 28.802734 46.955078C29.641074 47.110683 30.540923 46.994868 31.320312 46.537109C32.099703 46.079345 32.722343 45.24872 32.931641 44.191406L34.992188 33.785156C35.239309 32.536981 34.789223 31.249495 33.820312 30.425781L29.175781 26.478516L30.857422 23.111328L32.304688 26.294922C32.775823 27.3299 33.814272 28 34.953125 28L42 28C42.916094 28 43.730259 27.62045 44.246094 27.039062C44.761929 26.457677 44.996274 25.721833 44.996094 25C44.995913 24.278167 44.759917 23.542147 44.244141 22.960938C43.728364 22.379727 42.915782 22 42 22L36.671875 22L33.949219 15.335938C33.775547 14.353076 33.206219 13.448227 32.298828 12.902344L30.193359 11.634766L29.404297 11.160156 A 1.0001 1.0001 0 0 0 29.355469 11.130859 A 1.0001 1.0001 0 0 0 29.318359 11.109375 A 1.0001 1.0001 0 0 0 29.310547 11.105469 A 1.0001 1.0001 0 0 0 28.945312 10.990234L20.830078 9.1328125 A 1.0001 1.0001 0 0 0 20.794922 9.125C20.557538 9.079649 20.316429 9.0563878 20.074219 9.0566406 z M 20.099609 11.066406C20.213532 11.063124 20.322306 11.071195 20.419922 11.089844L28.472656 12.933594L29.162109 13.349609L31.267578 14.617188C31.685848 14.868817 31.941408 15.280261 32.003906 15.726562 A 1.0001 1.0001 0 0 0 32.013672 15.820312C32.034038 16.083752 31.990212 16.356003 31.867188 16.613281C31.867188 16.613281 31.867188 16.615234 31.867188 16.615234L30.037109 20.28125L30.025391 20.302734 A 1.0001 1.0001 0 0 0 29.980469 20.392578L27.037109 26.287109 A 1.0001 1.0001 0 0 0 27.283203 27.494141L32.525391 31.949219C32.94448 32.305505 33.136175 32.85666 33.029297 33.396484L30.970703 43.802734C30.861001 44.356921 30.620002 44.628452 30.306641 44.8125C29.99328 44.996548 29.570129 45.062926 29.167969 44.988281C28.765808 44.913631 28.411524 44.70499 28.201172 44.427734C27.99082 44.150479 27.870113 43.805279 27.992188 43.205078L29.773438 34.449219 A 1.0001 1.0001 0 0 0 29.333984 33.408203C29.333984 33.408203 24.960211 30.600628 21.826172 28.789062C20.533281 28.041768 20.17598 27.199885 20.072266 26.40625C19.968551 25.612615 20.258905 24.790556 20.330078 24.664062C20.483497 24.391398 21.831957 22.160971 23.082031 20.109375C24.332106 18.057779 25.529297 16.101563 25.529297 16.101562 A 1.0002171 1.0002171 0 0 0 24.990234 14.630859 A 1.0002171 1.0002171 0 0 0 24.988281 14.630859 A 1.0001 1.0001 0 0 0 24.978516 14.626953 A 1.0001 1.0001 0 0 0 24.902344 14.601562L20.546875 13.238281 A 1.0001 1.0001 0 0 0 19.658203 13.384766L13.669922 17.767578C13.315344 18.027177 13.082845 18.039484 12.853516 17.988281C12.624186 17.937081 12.382338 17.770855 12.212891 17.533203C12.043443 17.295551 11.964984 17.009269 11.990234 16.771484C12.015484 16.533699 12.101299 16.317394 12.451172 16.070312L19.136719 11.347656C19.373651 11.180699 19.757841 11.076252 20.099609 11.066406 z M 33.115234 18.587891L35.074219 23.378906 A 1.0001 1.0001 0 0 0 36 24L42 24C42.414718 24 42.600214 24.120273 42.75 24.289062C42.899786 24.457853 42.996024 24.721833 42.996094 25C42.996163 25.278167 42.899604 25.542324 42.75 25.710938C42.600397 25.879551 42.415406 26 42 26L34.953125 26C34.593978 26 34.273864 25.793818 34.125 25.466797L32.005859 20.810547L33.115234 18.587891 z M 18.710938 28.449219C19.151408 29.212153 19.829106 29.944354 20.824219 30.519531C20.945809 30.589814 21.067795 30.669947 21.191406 30.742188L18.201172 34.947266 A 1.0001 1.0001 0 0 0 18.193359 34.958984C17.742279 35.611862 17.004254 36 16.210938 36L7.5 36C6.9171 36 6.6074397 35.816778 6.375 35.554688C6.1425603 35.292597 6.003503 34.905153 6.0039062 34.501953C6.0043095 34.098753 6.1437166 33.708104 6.3769531 33.445312C6.6101896 33.182522 6.9203529 33 7.5 33L15.244141 33 A 1.0001 1.0001 0 0 0 16.085938 32.539062L18.710938 28.449219 z" />
</svg>