<?xml version="1.0" encoding="utf-8"?>
<svg xmlns="http://www.w3.org/2000/svg" viewBox="0 0 50 50" width="515" height="515">
  <path d="M5 2C3.347656 2 2 3.347656 2 5L2 45C2 46.652344 3.347656 48 5 48L45 48C46.652344 48 48 46.652344 48 45L48 28L46 30L46 45C46 45.550781 45.550781 46 45 46L40 46L40 36L38 38L38 46L12 46L12 28.8125C12 28.371094 12.371094 28 12.8125 28L32 28L34 26L12.8125 26C11.269531 26 10 27.269531 10 28.8125L10 46L5 46C4.449219 46 4 45.550781 4 45L4 5C4 4.449219 4.449219 4 5 4L10 4L10 19C10 20.09375 10.90625 21 12 21L35 21C36.09375 21 37 20.09375 37 19L37 4L37.59375 4L46 12.40625L46 16C47.101563 16 48 16.375 48 16.375L48 12C48 11.734375 47.90625 11.46875 47.71875 11.28125L38.71875 2.28125C38.53125 2.09375 38.265625 2 38 2 Z M 12 4L35 4L35 19L12 19 Z M 28.8125 6C28.335938 6.089844 27.992188 6.511719 28 7L28 16C28 16.550781 28.449219 17 29 17L32 17C32.550781 17 33 16.550781 33 16L33 7C33 6.449219 32.550781 6 32 6L29 6C28.96875 6 28.9375 6 28.90625 6C28.875 6 28.84375 6 28.8125 6 Z M 30 8L31 8L31 15L30 15 Z M 45.9375 18C44.894531 18 43.828125 18.390625 43.03125 19.1875L42.8125 19.4375C42.730469 19.488281 42.65625 19.550781 42.59375 19.625L26.90625 35.3125C26.777344 35.429688 26.679688 35.582031 26.625 35.75L25.03125 41.75C24.941406 42.09375 25.042969 42.457031 25.292969 42.707031C25.542969 42.957031 25.90625 43.058594 26.25 42.96875L32.25 41.375C32.417969 41.320313 32.570313 41.222656 32.6875 41.09375L48.125 25.65625C48.125 25.65625 48.257813 25.523438 48.375 25.40625C48.449219 25.34375 48.511719 25.269531 48.5625 25.1875C48.667969 25.082031 48.8125 24.96875 48.8125 24.96875C50.40625 23.375 50.402344 20.777344 48.8125 19.1875C48.015625 18.390625 46.980469 18 45.9375 18 Z M 43.75 21.28125L46.71875 24.25L31.46875 39.5L31.40625 39.53125L28.46875 36.59375L28.5 36.53125 Z M 6 41L6 43L8 43L8 41 Z M 42 41L42 43L44 43L44 41Z" />
</svg>