<?xml version="1.0" encoding="utf-8"?>
<svg xmlns="http://www.w3.org/2000/svg" width="515" height="515" viewBox="0 0 50 50">
  <path d="M25 2C23.354937 2 22 3.3549372 22 5L22 6.5585938C20.639517 5.6628788 19.055088 4.6745499 17.220703 4.2480469C16.315456 4.0376366 15.405271 3.9807587 14.521484 4C13.637697 4.0192413 12.780371 4.1157823 11.978516 4.2128906C11.264887 4.2993143 10.614396 4.370669 10.019531 4.4179688L10 4.3730469L9.9804688 4.421875C9.2543325 4.4783045 8.6294519 4.4920974 8.2265625 4.3984375 A 1.0005968 1.0005968 0 1 0 7.7734375 6.3476562C8.2148523 6.4502722 8.6710847 6.47799 9.1328125 6.4804688L1.9199219 23.994141L2.0722656 24.371094C2.0722656 24.371094 4.3333333 30 10 30C15.666667 30 17.927734 24.371094 17.927734 24.371094L18.080078 23.994141L10.818359 6.3613281C11.28265 6.3058184 11.74001 6.2552433 12.21875 6.1972656C13.783789 6.0077322 15.390072 5.8770862 16.767578 6.1972656C18.549953 6.6116758 20.321184 7.8823822 22 8.9492188L22 43L16 43C13.802666 43 12 44.802666 12 47L12 48L38 48L38 47C38 44.802666 36.197334 43 34 43L28 43L28 10.347656C29.941375 10.130368 32.024819 9.7925562 33.767578 10.197266C35.175717 10.524226 36.564383 11.28341 37.886719 12.064453C38.390022 12.361732 38.874672 12.647842 39.361328 12.925781L31.919922 30.994141L32.072266 31.371094C32.072266 31.371094 34.333333 37 40 37C45.666667 37 47.927734 31.371094 47.927734 31.371094L48.080078 30.994141L40.962891 13.710938C41.230343 13.812979 41.498026 13.910584 41.773438 13.974609 A 1.0005963 1.0005963 0 1 0 42.226562 12.025391C41.441902 11.84298 40.256961 11.140753 38.904297 10.341797C37.551633 9.5428402 35.999564 8.6610864 34.220703 8.2480469C32.958889 7.9550244 31.684667 7.9537267 30.486328 8.046875C29.594784 8.1161755 28.771176 8.228524 28 8.3242188L28 5C28 3.3549372 26.645063 2 25 2 z M 25 4C25.562937 4 26 4.4370628 26 5L26 43L24 43L24 5C24 4.4370628 24.437063 4 25 4 z M 10 9.625L15.505859 23L4.4941406 23L10 9.625 z M 40 16.625L45.507812 30L34.492188 30L40 16.625 z M 4.7148438 25L15.285156 25C14.487163 26.226117 12.858566 28 10 28C7.1414343 28 5.5128368 26.226117 4.7148438 25 z M 34.814453 32L45.185547 32C44.379138 33.291812 42.973705 35 40 35C37.026295 35 35.620862 33.291812 34.814453 32 z M 16 45L23 45L27 45L34 45C34.722954 45 35.238885 45.435884 35.589844 46L14.410156 46C14.761115 45.435884 15.277046 45 16 45 z" />
</svg>