<?xml version="1.0" encoding="utf-8"?>
<svg xmlns="http://www.w3.org/2000/svg" viewBox="0 0 50 50" width="515" height="515">
  <path d="M14 0C12.089844 0 10.242188 0.320313 8.5 1.085938C8.164063 1.21875 7.925781 1.527344 7.882813 1.890625C7.835938 2.253906 7.992188 2.609375 8.289063 2.820313C8.582031 3.035156 8.972656 3.070313 9.300781 2.914063C10.757813 2.277344 12.3125 2 14 2C20.664063 2 26 7.335938 26 14C26 20.664063 20.664063 26 14 26C7.335938 26 2 20.664063 2 14C2 10.960938 3.164063 8.242188 5 6.085938L5 8.699219C4.996094 9.058594 5.183594 9.394531 5.496094 9.578125C5.808594 9.757813 6.191406 9.757813 6.503906 9.578125C6.816406 9.394531 7.003906 9.058594 7 8.699219L7 3L1.300781 3C0.941406 2.996094 0.605469 3.183594 0.421875 3.496094C0.242188 3.808594 0.242188 4.191406 0.421875 4.503906C0.605469 4.816406 0.941406 5.003906 1.300781 5L3.292969 5C1.285156 7.449219 0 10.554688 0 14C0 17.816406 1.527344 21.269531 4 23.796875L4 46C4 47.105469 4.894531 48 6 48L46 48C47.105469 48 48 47.105469 48 46L48 15L27.953125 15C27.980469 14.667969 28 14.335938 28 14C28 13.664063 27.972656 13.332031 27.949219 13L48 13L48 6C48 4.839844 47.160156 4 46 4L41 4L41 2C41 0.90625 40.09375 0 39 0L37 0C35.90625 0 35 0.90625 35 2L35 4L23.796875 4C21.269531 1.527344 17.816406 0 14 0 Z M 37 2L39 2L39 8L37 8 Z M 13.984375 4.984375C13.433594 4.996094 12.992188 5.449219 13 6L13 13.839844C12.96875 14.054688 13.003906 14.273438 13.109375 14.464844C13.199219 14.644531 13.34375 14.792969 13.519531 14.890625L17.402344 17.800781C17.84375 18.132813 18.46875 18.042969 18.800781 17.597656C19.132813 17.15625 19.042969 16.53125 18.597656 16.199219L15 13.5L15 6C15.003906 5.730469 14.898438 5.46875 14.707031 5.277344C14.515625 5.085938 14.253906 4.980469 13.984375 4.984375 Z M 27 21L32 21L32 26L27 26 Z M 34 21L39 21L39 26L34 26 Z M 25 22.644531L25 22.714844L24.859375 22.832031C24.910156 22.773438 24.953125 22.707031 25 22.644531 Z M 13 28L18 28L18 33L13 33 Z M 20 28L25 28L25 33L20 33 Z M 27 28L32 28L32 33L27 33 Z M 34 28L39 28L39 33L34 33 Z M 13 35L18 35L18 40L13 40 Z M 20 35L25 35L25 40L20 40 Z M 27 35L32 35L32 40L27 40 Z M 34 35L39 35L39 40L34 40Z" />
</svg>