<?xml version="1.0" encoding="utf-8"?>
<svg xmlns="http://www.w3.org/2000/svg" viewBox="0 0 50 50" width="515" height="515">
  <path d="M16 2C14.088889 2 12.24218 2.3217808 10.5 3.0839844 A 1.0001 1.0001 0 1 0 11.300781 4.9160156C12.758602 4.2782192 14.311111 4 16 4C22.662963 4 28 9.337037 28 16C28 22.662963 22.662963 28 16 28C9.337037 28 4 22.662963 4 16C4 12.960748 5.1627205 10.240566 7 8.0859375L7 10.699219 A 1.0001 1.0001 0 1 0 9 10.699219L9 5L3.3007812 5 A 1.0001 1.0001 0 1 0 3.3007812 7L5.2929688 7C3.2837799 9.4487753 2 12.55414 2 16C2 23.737037 8.262963 30 16 30C23.737037 30 30 23.737037 30 16C30 8.262963 23.737037 2 16 2 z M 36.900391 3C35.867057 3 35 3.8670573 35 4.9003906L35 7L29.199219 7C29.599219 7.6 30.000781 8.3 30.300781 9L35 9L35 9.0996094C35 10.132943 35.955556 11 37 11L39.099609 11C40.132943 11 41 10.044444 41 9L46 9L46 13.900391L31.800781 13.900391C31.900781 14.600391 31.900391 15.200391 31.900391 15.900391L45.900391 15.900391L45.900391 45L8 45L8 29.800781C7.3 29.400781 6.6 28.900391 6 28.400391L6 45C6 46.1 6.9003906 47 7.9003906 47L46.099609 47C47.199609 47 48 46.099609 48 45.099609L48 8.9003906C48 7.9003906 47.099609 7 46.099609 7L41 7L41 4.9003906C41 3.8670573 40.044444 3 39 3L36.900391 3 z M 37 5L39 5L39 9L37 9L37 5 z M 15.984375 6.9863281 A 1.0001 1.0001 0 0 0 15 8L15 15.841797 A 1.0001 1.0001 0 0 0 15.105469 16.457031 A 1.0001 1.0001 0 0 0 15.521484 16.890625L19.400391 19.800781 A 1.0003905 1.0003905 0 1 0 20.599609 18.199219L17 15.5L17 8 A 1.0001 1.0001 0 0 0 15.984375 6.9863281 z M 31.699219 19C31.599219 19.7 31.399219 20.4 31.199219 21L33 21L33 26L28.5 26C27.8 26.9 26.9 27.7 26 28.5L26 33L21 33L21 31.199219C20.4 31.399219 19.7 31.599219 19 31.699219L19 33L14 33L14 31.900391C13.3 31.800391 12.7 31.7 12 31.5L12 42L42 42L42 19L31.699219 19 z M 35 21L40 21L40 26L35 26L35 21 z M 28 28L33 28L33 33L28 33L28 28 z M 35 28L40 28L40 33L35 33L35 28 z M 14 35L19 35L19 40L14 40L14 35 z M 21 35L26 35L26 40L21 40L21 35 z M 28 35L33 35L33 40L28 40L28 35 z M 35 35L40 35L40 40L35 40L35 35 z" />
</svg>