<?xml version="1.0" encoding="utf-8"?>
<svg xmlns="http://www.w3.org/2000/svg" viewBox="0 0 50 50" width="515" height="515">
  <path d="M15.21875 11C13.496094 11 11.882813 11.882813 10.96875 13.34375L7.40625 19.0625L4.28125 19.53125C1.824219 19.882813 0 21.988281 0 24.46875L0 31C0 32.644531 1.355469 34 3 34L5.09375 34C5.570313 36.835938 8.035156 39 11 39C13.964844 39 16.429688 36.835938 16.90625 34L33.09375 34C33.570313 36.835938 36.035156 39 39 39C41.964844 39 44.429688 36.835938 44.90625 34L47 34C48.644531 34 50 32.644531 50 31L50 25.375C50 22.9375 48.214844 20.871094 45.8125 20.46875L37.5625 19.0625L33 13C32.054688 11.742188 30.574219 11 29 11 Z M 15.21875 13L21 13L21 19L9.8125 19L12.6875 14.40625C13.238281 13.527344 14.183594 13 15.21875 13 Z M 23 13L29 13C29.945313 13 30.839844 13.433594 31.40625 14.1875L35 19L23 19 Z M 8.15625 21L36.84375 21L45.5 22.4375C46.953125 22.679688 48 23.902344 48 25.375L48 31C48 31.566406 47.566406 32 47 32L44.90625 32C44.429688 29.164063 41.964844 27 39 27C36.035156 27 33.570313 29.164063 33.09375 32L16.90625 32C16.429688 29.164063 13.964844 27 11 27C8.035156 27 5.570313 29.164063 5.09375 32L3 32C2.433594 32 2 31.566406 2 31L2 24.46875C2 22.96875 3.078125 21.710938 4.5625 21.5 Z M 11 29C13.222656 29 15 30.777344 15 33C15 35.222656 13.222656 37 11 37C8.777344 37 7 35.222656 7 33C7 30.777344 8.777344 29 11 29 Z M 39 29C41.222656 29 43 30.777344 43 33C43 35.222656 41.222656 37 39 37C36.777344 37 35 35.222656 35 33C35 30.777344 36.777344 29 39 29Z" />
</svg>