<?xml version="1.0" encoding="utf-8"?>
<svg xmlns="http://www.w3.org/2000/svg" viewBox="0 0 50 50" width="515" height="515">
  <path d="M15.21875 11C13.484375 11 11.890625 11.871094 10.96875 13.34375L7.40625 19.0625L4.28125 19.53125C1.835938 19.882813 0 21.996094 0 24.46875L0 31C0 32.652344 1.347656 34 3 34L5.09375 34C5.574219 36.832031 8.03125 39 11 39C13.96875 39 16.425781 36.832031 16.90625 34L33.09375 34C33.574219 36.832031 36.03125 39 39 39C41.96875 39 44.429688 36.832031 44.90625 34L47 34C48.652344 34 50 32.652344 50 31L50 25.375C50 22.921875 48.234375 20.871094 45.8125 20.46875L37.5625 19.09375L33 13C32.0625 11.746094 30.566406 11 29 11 Z M 15.21875 13L21 13L21 19L9.8125 19L12.6875 14.40625C13.238281 13.523438 14.179688 13 15.21875 13 Z M 23 13L29 13C29.9375 13 30.84375 13.4375 31.40625 14.1875L35 19L23 19 Z M 11 29C13.207031 29 15 30.792969 15 33C15 35.207031 13.207031 37 11 37C8.792969 37 7 35.207031 7 33C7 30.792969 8.792969 29 11 29 Z M 39 29C41.207031 29 43 30.792969 43 33C43 35.207031 41.207031 37 39 37C36.792969 37 35 35.207031 35 33C35 30.792969 36.792969 29 39 29Z" />
</svg>