<?xml version="1.0" encoding="utf-8"?>
<svg xmlns="http://www.w3.org/2000/svg" viewBox="0 0 50 50" width="515" height="515">
  <path d="M14 0C13.117188 0 12.46875 0.34375 12 0.71875C11.988281 0.726563 11.980469 0.742188 11.96875 0.75C11.828125 0.863281 11.703125 0.984375 11.59375 1.09375C11.574219 1.113281 11.550781 1.136719 11.53125 1.15625C11.527344 1.164063 11.535156 1.179688 11.53125 1.1875L9.75 3.1875C10.140625 3.070313 10.558594 3 11 3L39 3C39.441406 3 39.859375 3.066406 40.25 3.1875L38.40625 1.09375C37.90625 0.425781 36.988281 0 36.09375 0 Z M 11 5C9.839844 5 9 5.839844 9 7L9 48C9 49.160156 9.839844 50 11 50L39 50C40.160156 50 41 49.160156 41 48L41 7C41 5.839844 40.160156 5 39 5 Z M 16 10L34 10C34.601563 10 35 10.398438 35 11L35 16C35 16.601563 34.601563 17 34 17L16 17C15.398438 17 15 16.601563 15 16L15 11C15 10.398438 15.398438 10 16 10 Z M 16 19L34 19C34.601563 19 35 19.398438 35 20L35 25C35 25.601563 34.601563 26 34 26L16 26C15.398438 26 15 25.601563 15 25L15 20C15 19.398438 15.398438 19 16 19 Z M 25 32C26.101563 32 27 32.898438 27 34C27 35.101563 26.101563 36 25 36C23.898438 36 23 35.101563 23 34C23 32.898438 23.898438 32 25 32 Z M 25 39C26.101563 39 27 39.898438 27 41C27 42.101563 26.101563 43 25 43C23.898438 43 23 42.101563 23 41C23 39.898438 23.898438 39 25 39Z" />
</svg>