<?xml version="1.0" encoding="utf-8"?>
<svg xmlns="http://www.w3.org/2000/svg" viewBox="0 0 50 50" width="515" height="515">
  <path d="M32.300781 2L27.900391 3.6992188L28.699219 7.5L27.699219 8.5L24 7.5996094L22 12.099609L25.199219 14.199219L25.199219 15.800781L21.900391 17.800781L23.599609 22.199219L27.300781 21.400391C27.600781 21.800391 28.000391 22.2 28.400391 22.5L27.599609 26.199219L32 28L34.099609 24.800781L35.699219 24.800781L37.699219 28.099609L42.099609 26.400391L41.300781 22.400391C41.700781 22.100391 42.100391 21.700781 42.400391 21.300781L46.199219 22.300781L48.099609 17.900391L44.699219 15.900391L44.699219 14.400391L48 12.400391L46.300781 8L42.5 8.8007812C42.2 8.4007812 41.800391 7.9992187 41.400391 7.6992188L42.199219 4L37.900391 2.0996094L35.900391 5.3007812C35.400391 5.2007813 34.900781 5.2007812 34.300781 5.3007812L32.300781 2 z M 35 11.099609C37.2 11.099609 39 12.899609 39 15.099609C39 17.299609 37.2 19.099609 35 19.099609C32.8 19.099609 31 17.299609 31 15.099609C31 12.899609 32.8 11.099609 35 11.099609 z M 13.599609 20L13 24C12.4 24.2 11.900781 24.399219 11.300781 24.699219L7.9003906 22.300781L4.4003906 25.800781L6.6992188 29.199219C6.3992188 29.699219 6.2 30.300391 6 30.900391L2 31.599609L2 36.5L6 37.199219C6.2 37.799219 6.3992187 38.300391 6.6992188 38.900391L4.3007812 42.199219L7.8007812 45.699219L11.199219 43.400391C11.699219 43.700391 12.300391 43.899609 12.900391 44.099609L13.5 48.099609L18.400391 48.099609L19.099609 44.099609C19.699609 43.899609 20.200781 43.700391 20.800781 43.400391L24.199219 45.800781L27.699219 42.300781L25.300781 38.900391C25.600781 38.400391 25.8 37.799219 26 37.199219L30 36.400391L30 31.5L25.900391 30.900391C25.700391 30.300391 25.499219 29.799219 25.199219 29.199219L27.599609 25.900391L24.099609 22.300781L20.699219 24.699219C20.199219 24.399219 19.599609 24.2 19.099609 24L18.5 20L13.599609 20 z M 16 30C18.2 30 20 31.8 20 34C20 36.2 18.2 38 16 38C13.8 38 12 36.2 12 34C12 31.8 13.8 30 16 30 z" />
</svg>