<?xml version="1.0" encoding="utf-8"?>
<svg xmlns="http://www.w3.org/2000/svg" viewBox="0 0 50 50" width="515" height="515">
  <path d="M14 0C13.015625 0 12.1875 0.5 11.59375 1.09375C11.570313 1.113281 11.550781 1.132813 11.53125 1.15625L9.6875 3.4375C9.640625 3.472656 9.605469 3.519531 9.5625 3.5625C9.417969 3.707031 9.308594 3.878906 9.21875 4.0625C9.195313 4.101563 9.175781 4.144531 9.15625 4.1875C9.152344 4.199219 9.128906 4.207031 9.125 4.21875C9.125 4.238281 9.125 4.261719 9.125 4.28125C9.046875 4.511719 9 4.757813 9 5L9 48C9 48.523438 9.183594 49.058594 9.5625 49.4375C9.941406 49.816406 10.476563 50 11 50L39 50C39.523438 50 40.058594 49.816406 40.4375 49.4375C40.816406 49.058594 41 48.523438 41 48L41 5C41 4.527344 40.835938 4.054688 40.53125 3.6875C40.523438 3.667969 40.511719 3.644531 40.5 3.625C40.488281 3.613281 40.480469 3.605469 40.46875 3.59375C40.441406 3.550781 40.410156 3.507813 40.375 3.46875L38.40625 1.09375C38.402344 1.085938 38.378906 1.101563 38.375 1.09375C38.371094 1.089844 38.378906 1.066406 38.375 1.0625C37.835938 0.367188 37.011719 0 36.09375 0 Z M 14 2L36.09375 2C36.359375 2 36.753906 2.234375 36.8125 2.3125C36.824219 2.324219 36.832031 2.332031 36.84375 2.34375L37.375 3L12.59375 3L13 2.5L13.03125 2.5C13.414063 2.117188 13.597656 2 14 2 Z M 11 5L39 5L39 48L11 48 Z M 16 9C15.476563 9 14.941406 9.183594 14.5625 9.5625C14.183594 9.941406 14 10.476563 14 11L14 16C14 16.34375 14.085938 16.691406 14.25 17C14.085938 17.308594 14 17.65625 14 18L14 23C14 23.523438 14.183594 24.058594 14.5625 24.4375C14.941406 24.816406 15.476563 25 16 25L34 25C34.523438 25 35.058594 24.816406 35.4375 24.4375C35.816406 24.058594 36 23.523438 36 23L36 18C36 17.65625 35.914063 17.308594 35.75 17C35.914063 16.691406 36 16.34375 36 16L36 11C36 10.476563 35.816406 9.941406 35.4375 9.5625C35.058594 9.183594 34.523438 9 34 9 Z M 16 11L34 11L34 16L16 16 Z M 16 18L34 18L34 23L16 23 Z M 25 32C23.898438 32 23 32.898438 23 34C23 35.101563 23.898438 36 25 36C26.101563 36 27 35.101563 27 34C27 32.898438 26.101563 32 25 32 Z M 25 39C23.898438 39 23 39.898438 23 41C23 42.101563 23.898438 43 25 43C26.101563 43 27 42.101563 27 41C27 39.898438 26.101563 39 25 39Z" />
</svg>