<?xml version="1.0" encoding="utf-8"?>
<svg xmlns="http://www.w3.org/2000/svg" viewBox="0 0 50 50" width="515" height="515">
  <path d="M4 6L4 11.912109C3.962509 12.09439 3 16.78621 3 19.5C3 20.883333 3.2607661 22.202183 3.9902344 23.255859C3.9931251 23.260035 3.9970925 23.263414 4 23.267578L4 48L30 48L41 48L46 48L46 23.267578C46.002907 23.263414 46.006875 23.260035 46.009766 23.255859C46.739234 22.202183 47 20.883333 47 19.5C47 16.78621 46.037491 12.09439 46 11.912109L46 6L4 6 z M 6 8L44 8L44 11L39.167969 11 A 1.0001 1.0001 0 0 0 38.841797 11L32.167969 11 A 1.0001 1.0001 0 0 0 31.841797 11L25.167969 11 A 1.0001 1.0001 0 0 0 24.841797 11L18.167969 11 A 1.0001 1.0001 0 0 0 17.841797 11L11.167969 11 A 1.0001 1.0001 0 0 0 10.841797 11L6 11L6 8 z M 5.8730469 13L10 13L10 21.849609C9.3757658 22.507496 8.4687443 23 7.5 23C6.5166667 23 6.0302974 22.690464 5.6347656 22.119141C5.2392339 21.547817 5 20.616667 5 19.5C5 17.512668 5.7019938 13.908622 5.8730469 13 z M 12 13L17 13L17 21.849609C16.375766 22.507496 15.468744 23 14.5 23C13.531256 23 12.624234 22.507496 12 21.849609L12 13 z M 19 13L24 13L24 21.849609C23.375766 22.507496 22.468744 23 21.5 23C20.531256 23 19.624234 22.507496 19 21.849609L19 13 z M 26 13L31 13L31 21.849609C30.375766 22.507496 29.468744 23 28.5 23C27.531256 23 26.624234 22.507496 26 21.849609L26 13 z M 33 13L38 13L38 21.849609C37.375766 22.507496 36.468744 23 35.5 23C34.531256 23 33.624234 22.507496 33 21.849609L33 13 z M 40 13L44.126953 13C44.298006 13.908622 45 17.512668 45 19.5C45 20.616667 44.760766 21.547817 44.365234 22.119141C43.969703 22.690464 43.483333 23 42.5 23C41.531256 23 40.624234 22.507496 40 21.849609L40 13 z M 11 23.554688C11.956313 24.38397 13.130532 25 14.5 25C15.869468 25 17.043687 24.38397 18 23.554688C18.956313 24.38397 20.130532 25 21.5 25C22.869468 25 24.043687 24.38397 25 23.554688C25.956313 24.38397 27.130532 25 28.5 25C29.869468 25 31.043687 24.38397 32 23.554688C32.956313 24.38397 34.130532 25 35.5 25C36.869468 25 38.043687 24.38397 39 23.554688C39.956313 24.38397 41.130532 25 42.5 25C43.036744 25 43.539099 24.9104 44 24.751953L44 46L41 46L41 28L30 28L30 29L30 46L6 46L6 24.751953C6.4609012 24.9104 6.9632565 25 7.5 25C8.8694676 25 10.043687 24.38397 11 23.554688 z M 9 28L9 29L9 43L27 43L27 28L9 28 z M 11 30L25 30L25 41L11 41L11 30 z M 32 30L39 30L39 46L32 46L32 30 z" />
</svg>