<?xml version="1.0" encoding="utf-8"?>
<svg xmlns="http://www.w3.org/2000/svg" viewBox="0 0 50 50" width="515" height="515">
  <path d="M24.984375 1.9863281 A 1.0001 1.0001 0 0 0 24 3L24 25 A 1.0001 1.0001 0 1 0 26 25L26 3 A 1.0001 1.0001 0 0 0 24.984375 1.9863281 z M 18.037109 3.0957031 A 1.0001 1.0001 0 0 0 17.673828 3.1542969C8.5835786 6.2888655 2 14.86701 2 25C2 37.740984 12.360055 48 25 48C37.639945 48 48 37.740984 48 25C48 14.86701 41.416421 6.2888657 32.326172 3.1542969 A 1.0001 1.0001 0 1 0 31.673828 5.0449219C39.983579 7.910353 46 15.73299 46 25C46 36.659016 36.560055 46 25 46C13.439945 46 4 36.659016 4 25C4 15.73299 10.016421 7.910353 18.326172 5.0449219 A 1.0001 1.0001 0 0 0 18.037109 3.0957031 z" />
</svg>