<?xml version="1.0" encoding="utf-8"?>
<svg xmlns="http://www.w3.org/2000/svg" viewBox="0 0 50 50" width="515" height="515">
  <path d="M25 2C12.316406 2 2 12.316406 2 25C2 37.683594 12.316406 48 25 48C37.683594 48 48 37.683594 48 25C48 12.316406 37.683594 2 25 2 Z M 24 5C24 4.445313 24.445313 4 25 4C25.554688 4 26 4.445313 26 5L26 27C26 27.554688 25.554688 28 25 28C24.445313 28 24 27.554688 24 27 Z M 25 46.050781C13.421875 46.050781 4 36.632813 4 25.050781C4 16.019531 9.753906 8.019531 18.316406 5.144531C18.839844 4.96875 19.410156 5.25 19.585938 5.773438C19.761719 6.296875 19.480469 6.863281 18.953125 7.039063C11.207031 9.640625 6 16.878906 6 25.050781C6 35.527344 14.523438 44.050781 25 44.050781C35.476563 44.050781 44 35.527344 44 25.050781C44 16.878906 38.792969 9.640625 31.046875 7.039063C30.523438 6.863281 30.238281 6.296875 30.414063 5.773438C30.589844 5.25 31.160156 4.96875 31.683594 5.144531C40.246094 8.019531 46 16.019531 46 25.050781C46 36.632813 36.578125 46.050781 25 46.050781Z" />
</svg>