<?xml version="1.0" encoding="utf-8"?>
<svg xmlns="http://www.w3.org/2000/svg" viewBox="0 0 50 50" width="515" height="515">
  <path d="M15 1C13.35503 1 12 2.3550302 12 4L12 46C12 47.64497 13.35503 49 15 49L35 49C36.64497 49 38 47.64497 38 46L38 4C38 2.3550302 36.64497 1 35 1L15 1 z M 15 3L23.333984 3L23.683594 4.0507812C23.872594 4.6177813 24.403 5 25 5C25.597 5 26.127406 4.6177813 26.316406 4.0507812L26.666016 3L35 3C35.56503 3 36 3.4349698 36 4L36 46C36 46.56503 35.56503 47 35 47L15 47C14.43497 47 14 46.56503 14 46L14 4C14 3.4349698 14.43497 3 15 3 z M 16 5L16 45L34 45L34 5L28.080078 5C27.537078 6.206 26.344 7 25 7C23.656 7 22.462922 6.206 21.919922 5L16 5 z" />
</svg>