<?xml version="1.0" encoding="utf-8"?>
<svg xmlns="http://www.w3.org/2000/svg" viewBox="0 0 50 50" width="515" height="515">
  <path d="M43 8L7 8C4.242188 8 2 10.242188 2 13L2 37C2 39.757813 4.242188 42 7 42L11.140625 42C11.480469 44.894531 10.625 46.859375 8.484375 48.144531C8.101563 48.375 7.917969 48.835938 8.035156 49.265625C8.15625 49.699219 8.550781 50 9 50C11.558594 50 17.707031 49.203125 20.683594 42L43 42C45.757813 42 48 39.757813 48 37L48 13C48 10.242188 45.757813 8 43 8 Z M 15 27C13.894531 27 13 26.105469 13 25C13 23.894531 13.894531 23 15 23C16.105469 23 17 23.894531 17 25C17 26.105469 16.105469 27 15 27 Z M 25 27C23.894531 27 23 26.105469 23 25C23 23.894531 23.894531 23 25 23C26.105469 23 27 23.894531 27 25C27 26.105469 26.105469 27 25 27 Z M 35 27C33.894531 27 33 26.105469 33 25C33 23.894531 33.894531 23 35 23C36.105469 23 37 23.894531 37 25C37 26.105469 36.105469 27 35 27Z" />
</svg>