<?xml version="1.0" encoding="utf-8"?>
<svg xmlns="http://www.w3.org/2000/svg" viewBox="0 0 50 50" width="515" height="515">
  <path d="M24.5 3.0996094C23.507407 3.0996094 21.40009 3.230847 19.117188 4.25C16.834284 5.269153 14.381562 7.2213038 12.880859 10.705078 A 1.0001 1.0001 0 0 0 12.880859 10.707031C11.794805 13.241157 12.100065 17.001406 12.300781 20.099609C12.300781 20.43175 12.327356 20.585697 12.353516 20.833984C12.249791 20.862414 12.179624 20.900391 12 20.900391C11.505808 20.900391 10.866149 20.75286 10.207031 20.433594C9.9876886 20.286853 9.7773512 20.243863 9.6289062 20.222656C9.4358116 20.195066 9.2992187 20.199219 9.1992188 20.199219C8.6587425 20.199219 8.1243267 20.333021 7.625 20.621094C7.1256733 20.909167 6.6153914 21.418823 6.5097656 22.158203 A 1.0001 1.0001 0 0 0 6.5 22.300781C6.5 22.584115 6.59351 23.213151 7.0097656 23.728516C7.4213708 24.238122 8.0678568 24.672268 9.0878906 25.105469C9.4743975 25.288337 9.6886009 25.313051 9.6523438 25.294922 A 1.0001 1.0001 0 0 0 9.7832031 25.349609C10.233203 25.499609 10.782135 25.687428 11.216797 25.919922C11.651459 26.152416 11.909441 26.41911 11.970703 26.572266 A 1.0001 1.0001 0 0 0 12.005859 26.646484C12.126974 26.888713 12.130152 27.202587 11.804688 27.853516C11.717647 28.027587 11.727828 28.026517 11.636719 28.212891C11.545609 28.399264 11.411148 28.658967 11.234375 28.970703C10.88083 29.594175 10.352602 30.42297 9.6445312 31.271484C8.2283903 32.968513 6.1254012 34.717277 3.2304688 35.214844L3.4003906 35.199219C2.8003906 35.199219 2.5112187 35.526057 2.3242188 35.775391C2.1372147 36.024724 2 36.265885 2 36.699219C2 36.749219 1.94079 37.013724 2.1933594 37.392578C2.3116171 37.569965 2.4895071 37.550631 2.6640625 37.630859C2.9964122 38.117164 3.3757965 38.58969 4.1601562 38.947266C5.077445 39.365441 6.471501 39.714922 8.34375 40.011719C8.385766 40.149347 8.441433 40.347776 8.5234375 40.716797L8.5 40.5C8.5 41.022222 8.63998 41.380232 8.7304688 41.742188C8.8137578 42.075344 8.9895521 42.448219 9.3242188 42.699219C9.6588854 42.950219 10.03967 43 10.300781 43C10.500781 43 10.929225 42.999627 11.443359 42.871094L11.365234 42.886719C12.036326 42.77487 12.720431 42.599609 13.699219 42.599609C14.188108 42.599609 14.735937 42.687109 15.335938 42.787109C16.207144 42.932305 17.2125 43.608203 18.3125 44.408203C19.926574 45.618345 21.89934 47 24.800781 47L25 47L25.300781 47C28.15178 47 30.116177 45.657099 31.488281 44.408203C32.588281 43.608203 33.593642 42.93231 34.464844 42.787109C35.064844 42.687109 35.61072 42.599609 36.099609 42.599609C36.966276 42.599609 37.679788 42.779311 38.458984 42.890625L38.357422 42.871094C38.871552 42.999625 39.3 43 39.5 43L39.599609 43C39.86072 43 40.18989 42.95725 40.505859 42.759766C40.789474 42.582507 40.967655 42.282518 41.082031 42.001953C41.365741 41.464526 41.435472 40.957256 41.449219 40.916016 A 1.0001 1.0001 0 0 0 41.476562 40.816406C41.562002 40.431919 41.64264 40.205294 41.691406 40.097656C43.590738 39.757606 44.988164 39.384646 45.882812 38.970703C46.778757 38.556162 47.268397 38.068075 47.566406 37.554688C47.784352 37.222915 47.900391 36.784128 47.900391 36.699219C47.900391 36.265885 47.761219 36.024724 47.574219 35.775391C47.387221 35.526057 47.1 35.199219 46.5 35.199219L46.65625 35.212891C43.819199 34.762567 41.718769 33.04067 40.291016 31.34375C39.577139 30.49529 39.039662 29.659004 38.679688 29.025391C38.499699 28.708584 38.362792 28.4425 38.271484 28.251953C38.180177 28.061406 38.105598 27.855855 38.148438 27.984375 A 1.0001 1.0001 0 0 0 38.09375 27.853516C37.805871 27.277758 37.835623 26.919013 37.953125 26.550781C38.025105 26.395589 38.263411 26.144671 38.683594 25.919922C39.118256 25.687428 39.667187 25.499609 40.117188 25.349609 A 1.0001 1.0001 0 0 0 40.248047 25.294922C40.211907 25.312992 40.426553 25.286622 40.810547 25.105469C41.726708 24.723773 42.353066 24.32216 42.773438 23.865234C43.200181 23.401382 43.400391 22.850391 43.400391 22.400391C43.400391 21.233724 42.533414 20.557362 41.617188 20.251953 A 1.0001 1.0001 0 0 0 41.300781 20.199219C41.223001 20.199219 41.022222 20.099609 40.5 20.099609C40.3 20.099609 39.911287 20.025798 39.353516 20.304688C38.642958 20.659965 38.076997 20.800781 37.699219 20.800781C37.623439 20.800781 37.609809 20.778611 37.552734 20.769531C37.576414 20.575631 37.599609 20.468254 37.599609 20.199219L37.599609 20.125C37.799902 17.141531 38.214418 13.33969 37.009766 10.6875C35.458942 7.2161513 33.016064 5.2685705 30.748047 4.25C28.47854 3.2307606 26.392983 3.0996094 25.400391 3.0996094L25.300781 3.0996094L24.5 3.0996094 z M 24.5 5.0996094L25.300781 5.0996094L25.400391 5.0996094C26.207798 5.0996094 28.022241 5.2184582 29.927734 6.0742188C31.833228 6.9299792 33.838167 8.4834469 35.1875 11.507812 A 1.0001 1.0001 0 0 0 35.189453 11.513672C35.978773 13.250175 35.802249 17.022902 35.601562 20.033203 A 1.0001 1.0001 0 0 0 35.599609 20.099609L35.599609 20.199219C35.599609 20.432552 35.5 20.833724 35.5 21.400391 A 1.0001 1.0001 0 0 0 35.792969 22.107422C35.792969 22.107422 36.034259 22.334512 36.353516 22.494141C36.672773 22.653769 37.132552 22.800781 37.699219 22.800781C38.521441 22.800781 39.358604 22.538471 40.248047 22.09375C40.090276 22.17263 40.299997 22.099609 40.5 22.099609C40.54931 22.099609 40.80925 22.132689 41.007812 22.162109C41.185343 22.240504 41.304585 22.39831 41.361328 22.433594C41.345409 22.455715 41.343313 22.463538 41.300781 22.509766C41.152526 22.670913 40.780164 22.962189 40.019531 23.275391 A 1.0001 1.0001 0 0 0 39.953125 23.304688C39.991635 23.285428 39.79203 23.286598 39.353516 23.505859L39.484375 23.451172C39.034375 23.601172 38.380572 23.813744 37.740234 24.15625C37.099897 24.498756 36.411004 24.98128 36.072266 25.828125 A 1.0001 1.0001 0 0 0 36.050781 25.882812C35.779327 26.697177 35.804925 27.722148 36.296875 28.722656C36.344105 28.848077 36.381075 28.934209 36.46875 29.117188C36.579786 29.348906 36.735065 29.653916 36.939453 30.013672C37.348229 30.733184 37.948642 31.666819 38.759766 32.630859C40.220203 34.366625 42.433825 36.165541 45.378906 36.919922C45.250153 37.013012 45.319646 37.026281 45.042969 37.154297C44.33225 37.483137 43.080568 37.871989 41.035156 38.212891 A 1.0001 1.0001 0 0 0 40.882812 38.251953C40.416585 38.407362 40.096723 38.794836 39.917969 39.152344C39.745195 39.497891 39.641968 39.876481 39.537109 40.341797C39.401076 40.770515 39.365083 40.983412 39.380859 40.986328C39.221684 40.984728 39.075875 40.988228 38.841797 40.929688 A 1.0001 1.0001 0 0 0 38.742188 40.910156C38.121383 40.821466 37.232943 40.599609 36.099609 40.599609C35.388498 40.599609 34.734766 40.714453 34.134766 40.814453C32.605968 41.069253 31.4125 41.991016 30.3125 42.791016 A 1.0001 1.0001 0 0 0 30.222656 42.865234C28.997777 43.995799 27.593089 45 25.300781 45L25 45L24.800781 45C22.508474 45 21.084 43.988781 19.5 42.800781 A 1.0001 1.0001 0 0 0 19.488281 42.791016C18.388281 41.991016 17.19286 41.069253 15.664062 40.814453C15.064063 40.714453 14.41033 40.599609 13.699219 40.599609C12.478007 40.599609 11.564065 40.825911 11.035156 40.914062 A 1.0001 1.0001 0 0 0 10.957031 40.929688C10.803915 40.967968 10.714944 40.958897 10.605469 40.966797C10.56218 40.786845 10.5 40.547927 10.5 40.5 A 1.0001 1.0001 0 0 0 10.476562 40.283203C10.377413 39.837031 10.313443 39.470746 10.146484 39.074219C10.063004 38.875955 9.9473146 38.651144 9.7128906 38.443359C9.4784667 38.235575 9.1091147 38.099609 8.8007812 38.099609L8.9453125 38.111328C6.9523635 37.819677 5.7049022 37.452758 4.9902344 37.126953C4.7020615 36.99558 4.7688815 36.974842 4.6386719 36.876953C7.5652338 36.066096 9.7468018 34.269828 11.179688 32.552734C11.984117 31.588749 12.57503 30.661685 12.974609 29.957031C13.174399 29.604705 13.325487 29.308939 13.431641 29.091797C13.537794 28.874655 13.655786 28.623976 13.59375 28.748047C14.062137 27.811273 14.256054 26.739653 13.800781 25.791016C13.455717 24.972779 12.786769 24.492459 12.158203 24.15625C11.517865 23.813744 10.866016 23.601172 10.416016 23.451172L10.546875 23.505859C10.108363 23.286598 9.9087517 23.285431 9.9472656 23.304688 A 1.0001 1.0001 0 0 0 9.8886719 23.279297C9.0290286 22.917341 8.6751502 22.605339 8.5664062 22.470703C8.5261992 22.420923 8.5495256 22.420153 8.5410156 22.408203C8.5499956 22.398303 8.531146 22.407665 8.625 22.353516C8.7756733 22.266586 9.0396949 22.199219 9.1992188 22.199219C9.2512167 22.199219 9.2492956 22.200172 9.2753906 22.201172C10.187123 22.653276 11.117106 22.900391 12 22.900391C12.598148 22.900391 13.080762 22.757943 13.40625 22.613281C13.568994 22.540951 13.696094 22.469141 13.761719 22.431641 A 1.0001 1.0001 0 0 0 14.400391 21.5C14.400391 20.933333 14.300781 20.466276 14.300781 20.099609 A 1.0001 1.0001 0 0 0 14.298828 20.035156C14.099549 16.945597 14.012524 13.146005 14.71875 11.496094L14.71875 11.494141C16.018066 8.4790962 18.016862 6.9318557 19.933594 6.0761719C21.850691 5.2203249 23.692593 5.0996094 24.5 5.0996094 z M 41.529297 40.142578C41.518827 40.147078 41.526995 40.144638 41.515625 40.148438L41.365234 40.185547C41.443344 40.172527 41.453154 40.155738 41.529297 40.142578 z" />
</svg>