<?xml version="1.0" encoding="utf-8"?>
<svg xmlns="http://www.w3.org/2000/svg" viewBox="0 0 50 50" width="515" height="515">
  <path d="M45.414063 39.414063L38.414063 46.414063C38.023438 46.804688 37.511719 47 37 47C36.488281 47 35.976563 46.804688 35.585938 46.414063L28.585938 39.414063C27.804688 38.632813 27.804688 37.367188 28.585938 36.585938C29.367188 35.804688 30.632813 35.804688 31.414063 36.585938L35 40.171875L35 17C35 15.894531 35.894531 15 37 15C38.105469 15 39 15.894531 39 17L39 40.171875L42.585938 36.585938C43.367188 35.804688 44.632813 35.804688 45.414063 36.585938C46.195313 37.367188 46.195313 38.632813 45.414063 39.414063 Z M 37 7C38.105469 7 39 6.105469 39 5C39 3.894531 38.105469 3 37 3C35.894531 3 35 3.894531 35 5C35 6.105469 35.894531 7 37 7 Z M 37 13C38.105469 13 39 12.105469 39 11C39 9.894531 38.105469 9 37 9C35.894531 9 35 9.894531 35 11C35 12.105469 35.894531 13 37 13 Z M 14.414063 3.585938C13.632813 2.804688 12.367188 2.804688 11.585938 3.585938L4.585938 10.585938C3.804688 11.367188 3.804688 12.632813 4.585938 13.414063C5.367188 14.195313 6.632813 14.195313 7.414063 13.414063L11 9.828125L11 33C11 34.105469 11.894531 35 13 35C14.105469 35 15 34.105469 15 33L15 9.828125L18.585938 13.414063C18.976563 13.804688 19.488281 14 20 14C20.511719 14 21.023438 13.804688 21.414063 13.414063C22.195313 12.632813 22.195313 11.367188 21.414063 10.585938 Z M 13 43C11.894531 43 11 43.894531 11 45C11 46.105469 11.894531 47 13 47C14.105469 47 15 46.105469 15 45C15 43.894531 14.105469 43 13 43 Z M 13 37C11.894531 37 11 37.894531 11 39C11 40.105469 11.894531 41 13 41C14.105469 41 15 40.105469 15 39C15 37.894531 14.105469 37 13 37Z" />
</svg>