<?xml version="1.0" encoding="utf-8"?>
<svg xmlns="http://www.w3.org/2000/svg" viewBox="0 0 50 50" width="515" height="515">
  <path d="M26.1875 2.96875C25.875 2.972656 25.554688 3.027344 25.25 3.125C24.65625 3.316406 24.085938 3.675781 23.59375 4.1875C23.582031 4.199219 23.574219 4.207031 23.5625 4.21875L11.6875 16L5 16C3.355469 16 2 17.355469 2 19L2 31C2 32.644531 3.355469 34 5 34L11.8125 34L23.5 45.71875C24.628906 46.847656 26.070313 47.308594 27.25 46.75C28.429688 46.191406 29 44.855469 29 43.3125L29 6.3125C29 4.820313 28.265625 3.550781 27.09375 3.125C26.800781 3.019531 26.5 2.964844 26.1875 2.96875 Z M 26.15625 4.96875C26.25 4.96875 26.335938 4.976563 26.40625 5C26.683594 5.101563 27 5.402344 27 6.3125L27 43.3125C27 44.367188 26.621094 44.820313 26.375 44.9375C26.128906 45.054688 25.675781 45.050781 24.90625 44.28125L12.3125 31.6875C12.328125 31.703125 12 31.101563 12 30.6875L12 19.1875C12 19.054688 12.046875 18.785156 12.125 18.5625C12.203125 18.339844 12.359375 18.171875 12.3125 18.21875L25 5.625C25.011719 5.613281 25.019531 5.605469 25.03125 5.59375C25.484375 5.113281 25.871094 4.972656 26.15625 4.96875 Z M 31 8L31 10C39.253906 10 46 16.746094 46 25C46 33.253906 39.253906 40 31 40L31 42C40.34375 42 48 34.34375 48 25C48 15.65625 40.34375 8 31 8 Z M 31 14L31 16C35.953125 16 40 20.046875 40 25C40 29.953125 35.953125 34 31 34L31 36C37.046875 36 42 31.046875 42 25C42 18.953125 37.046875 14 31 14 Z M 5 18L10.21875 18C10.089844 18.375 10 18.757813 10 19.1875L10 30.6875C10 31.167969 10.074219 31.605469 10.21875 32L5 32C4.445313 32 4 31.554688 4 31L4 19C4 18.445313 4.445313 18 5 18 Z M 31 20L31 22C32.65625 22 34 23.34375 34 25C34 26.65625 32.65625 28 31 28L31 30C33.746094 30 36 27.746094 36 25C36 22.253906 33.746094 20 31 20Z" />
</svg>