<?xml version="1.0" encoding="utf-8"?>
<svg xmlns="http://www.w3.org/2000/svg" viewBox="0 0 50 50" width="515" height="515">
  <path d="M25 7C12.316406 7 2 17.316406 2 30C2 33.433594 2.683594 36.546875 4.054688 39.46875C4.117188 39.605469 4.183594 39.738281 4.246094 39.875C4.339844 40.058594 4.429688 40.246094 4.527344 40.429688C4.898438 41.152344 5.292969 41.863281 5.742188 42.546875C5.925781 42.828125 6.238281 43 6.578125 43L43.421875 43C43.761719 43 44.074219 42.828125 44.257813 42.546875C44.707031 41.863281 45.101563 41.152344 45.472656 40.429688C45.566406 40.246094 45.660156 40.058594 45.753906 39.875C45.816406 39.738281 45.882813 39.605469 45.945313 39.46875C47.316406 36.546875 48 33.433594 48 30C48 17.316406 37.683594 7 25 7 Z M 31 39L19 39C18.445313 39 18 38.550781 18 38C18 37.449219 18.445313 37 19 37L31 37C31.554688 37 32 37.449219 32 38C32 38.550781 31.554688 39 31 39 Z M 36.335938 24.507813L26.996094 29.980469C26.996094 29.988281 27 29.992188 27 30C27 31.105469 26.105469 32 25 32C23.894531 32 23 31.105469 23 30C23 28.894531 23.894531 28 25 28C25.355469 28 25.683594 28.101563 25.972656 28.261719L35.316406 22.785156C35.789063 22.503906 36.40625 22.660156 36.6875 23.136719C36.96875 23.613281 36.8125 24.226563 36.335938 24.507813 Z M 43.167969 40.5C42.980469 40.820313 42.644531 41 42.300781 41C42.253906 41 42.203125 40.988281 42.15625 40.980469C42.105469 40.988281 42.050781 41 42 41C41.808594 41 41.617188 40.945313 41.445313 40.832031L38.445313 38.832031C37.984375 38.527344 37.859375 37.90625 38.167969 37.445313C38.472656 36.984375 39.09375 36.859375 39.554688 37.167969L41.863281 38.707031C41.875 38.683594 41.886719 38.660156 41.898438 38.640625C41.902344 38.582031 41.902344 38.523438 41.945313 38.535156C41.949219 38.535156 41.953125 38.535156 41.953125 38.535156C43.140625 36.183594 43.828125 33.613281 43.96875 31L41 31C40.445313 31 40 30.554688 40 30C40 29.449219 40.445313 29 41 29L43.949219 29C43.808594 26.3125 43.113281 23.777344 41.964844 21.496094C41.941406 21.453125 41.90625 21.417969 41.882813 21.371094L39.523438 22.820313C39.359375 22.921875 39.179688 22.96875 39 22.96875C38.664063 22.96875 38.335938 22.796875 38.148438 22.488281C37.859375 22.019531 38.007813 21.402344 38.476563 21.113281L40.882813 19.640625C40.808594 19.527344 40.75 19.414063 40.6875 19.300781C39.195313 17.121094 37.253906 15.277344 35.003906 13.878906C34.964844 13.855469 34.917969 13.832031 34.878906 13.808594L33.4375 16.421875C33.253906 16.75 32.914063 16.9375 32.558594 16.9375C32.398438 16.9375 32.230469 16.898438 32.078125 16.8125C31.59375 16.546875 31.417969 15.9375 31.6875 15.453125L33.121094 12.855469C33.097656 12.84375 33.074219 12.828125 33.050781 12.816406C30.886719 11.796875 28.507813 11.183594 25.996094 11.050781L25.996094 14C25.996094 14.550781 25.550781 15 24.996094 15C24.445313 15 23.996094 14.550781 23.996094 14L23.996094 11.050781C21.273438 11.195313 18.699219 11.90625 16.394531 13.082031C16.3125 13.132813 16.226563 13.183594 16.144531 13.226563L17.683594 15.714844C17.972656 16.183594 17.828125 16.800781 17.355469 17.089844C17.191406 17.191406 17.011719 17.238281 16.832031 17.238281C16.496094 17.238281 16.171875 17.070313 15.980469 16.765625L14.429688 14.25C14.359375 14.296875 14.289063 14.332031 14.21875 14.371094C12.039063 15.882813 10.203125 17.835938 8.816406 20.097656L11.308594 21.453125C11.796875 21.71875 11.976563 22.324219 11.710938 22.808594C11.53125 23.144531 11.1875 23.332031 10.832031 23.332031C10.671875 23.332031 10.507813 23.292969 10.355469 23.210938L7.859375 21.855469C6.816406 24.042969 6.183594 26.453125 6.050781 29L9 29C9.554688 29 10 29.449219 10 30C10 30.550781 9.554688 31 9 31L6.03125 31C6.171875 33.59375 6.84375 36.140625 8.015625 38.476563C8.023438 38.496094 8.042969 38.515625 8.054688 38.53125C8.085938 38.59375 8.148438 38.699219 8.148438 38.699219L10.445313 37.167969C10.90625 36.859375 11.527344 36.984375 11.832031 37.445313C12.140625 37.902344 12.015625 38.523438 11.554688 38.832031L8.554688 40.832031C8.382813 40.945313 8.191406 41 8 41C7.988281 41 7.972656 40.96875 7.953125 40.949219C7.53125 41.0625 7.0625 40.902344 6.832031 40.5C4.980469 37.300781 4 33.671875 4 30C4 18.421875 13.421875 9 25 9C36.578125 9 46 18.421875 46 30C46 33.671875 45.019531 37.300781 43.167969 40.5Z" />
</svg>