<?xml version="1.0" encoding="utf-8"?>
<svg xmlns="http://www.w3.org/2000/svg" viewBox="0 0 50 50" width="515" height="515">
  <path d="M25 1.9902344C12.259661 1.9902344 1.9902344 12.259661 1.9902344 25C1.9902344 37.740339 12.259661 48.009766 25 48.009766C37.740339 48.009766 48.009766 37.740339 48.009766 25C48.009766 12.259661 37.740339 1.9902344 25 1.9902344 z M 25 4.0097656C36.659661 4.0097656 45.990234 13.340339 45.990234 25C45.990234 36.659661 36.659661 45.990234 25 45.990234C13.340339 45.990234 4.0097656 36.659661 4.0097656 25C4.0097656 13.340339 13.340339 4.0097656 25 4.0097656 z M 21.900391 13.900391C18.937172 13.900391 16.339413 14.180543 14.453125 14.460938C13.509981 14.601135 12.743977 14.740714 12.203125 14.845703C11.932699 14.898203 11.71738 14.943323 11.570312 14.972656C11.505653 14.985556 11.460803 14.99387 11.427734 15L11.365234 15L11.236328 15.035156C9.6811576 15.459294 8.7335762 17.026857 9.015625 18.578125C9.3194897 20.249381 11.01495 21.167597 12.576172 20.884766C12.576172 20.884766 12.578125 20.884766 12.578125 20.884766C12.601275 20.881066 12.619405 20.8788 12.640625 20.875C12.684365 20.8672 12.736915 20.85602 12.802734 20.84375C12.934366 20.81921 13.118209 20.785401 13.353516 20.744141C13.824128 20.661631 14.498466 20.551731 15.332031 20.441406C16.999115 20.220792 19.306994 20 21.900391 20L22 20C26.293939 20 32.549313 20.710241 37.5 23.566406L37.445312 23.53125C37.958661 23.873485 38.477778 24 39 24C40.05843 24 41.092073 23.394403 41.574219 22.345703C42.395998 20.986304 41.906844 19.1777 40.513672 18.341797L40.509766 18.339844L40.503906 18.335938C34.264648 14.696391 27.008844 13.900391 22 13.900391L21.900391 13.900391 z M 21.900391 15.900391L22 15.900391C26.789669 15.900391 33.730581 16.704717 39.490234 20.0625C40.054847 20.405243 40.153019 20.916956 39.867188 21.345703L39.816406 21.421875L39.78125 21.505859C39.648781 21.814965 39.319048 22 39 22C38.92222 22 38.64134 21.924959 38.554688 21.867188L38.527344 21.849609L38.5 21.833984C33.050687 18.69015 26.506061 18 22 18L21.900391 18C19.193787 18 16.801229 18.229634 15.068359 18.458984C14.201925 18.57366 13.4997 18.687196 13.007812 18.773438C12.761869 18.816557 12.567977 18.854218 12.435547 18.878906C12.383457 18.888606 12.350828 18.894811 12.320312 18.900391L12.310547 18.900391L12.220703 18.916016C11.582466 19.032059 11.080383 18.748747 10.984375 18.220703C10.867643 17.578675 11.119859 17.153884 11.75 16.974609C11.7526 16.97403 11.760672 16.973256 11.763672 16.972656C11.821422 16.962236 11.885643 16.949004 11.962891 16.933594C12.117385 16.902774 12.32316 16.861174 12.583984 16.810547C13.105632 16.709286 13.839238 16.574256 14.746094 16.439453C16.559806 16.169847 19.063609 15.900391 21.900391 15.900391 z M 22.099609 21.900391C19.588385 21.900391 17.416009 22.131097 15.824219 22.375C15.028323 22.496952 14.378137 22.621955 13.902344 22.724609C13.475179 22.816769 13.276867 22.865758 13.078125 22.927734C11.604468 23.259647 10.702681 24.791233 11.15625 26.261719C11.5164 27.724468 13.044888 28.638683 14.515625 28.148438L14.443359 28.169922C14.443359 28.169922 17.934115 27.300781 22.300781 27.300781C26.200781 27.300781 30.57623 27.876468 34.871094 30.548828L34.845703 30.53125C35.273714 30.816594 35.778559 31 36.300781 31C37.223556 31 38.07971 30.453453 38.609375 29.675781C39.54805 28.397454 39.086673 26.636934 37.830078 25.851562L37.826172 25.849609L37.824219 25.847656C32.403689 22.511946 26.688498 21.900391 22.099609 21.900391 z M 22.099609 23.900391C26.509117 23.900391 31.791649 24.487452 36.769531 27.548828C37.105832 27.759016 37.24 28.18 37 28.5L36.982422 28.521484L36.96875 28.544922C36.696758 28.952912 36.567448 29 36.300781 29C36.223001 29 36.12707 28.98185 35.955078 28.867188L35.941406 28.859375L35.927734 28.851562C31.222599 25.923922 26.400781 25.300781 22.300781 25.300781C17.667448 25.300781 13.957031 26.230469 13.957031 26.230469L13.919922 26.238281L13.882812 26.251953C13.573104 26.355189 13.143461 26.086006 13.076172 25.783203L13.064453 25.732422L13.048828 25.683594C12.945592 25.373886 13.214775 24.944243 13.517578 24.876953L13.566406 24.865234L13.617188 24.849609C13.549888 24.872039 13.887512 24.773908 14.324219 24.679688C14.760926 24.585468 15.372848 24.467112 16.126953 24.351562C17.635163 24.120466 19.710834 23.900391 22.099609 23.900391 z M 22.5 29C20.312698 29 18.398579 29.285165 17.011719 29.570312C16.318289 29.712888 15.755749 29.855764 15.361328 29.962891C15.164118 30.016451 15.008314 30.062081 14.904297 30.091797C14.890367 30.095797 14.887 30.096209 14.875 30.099609L14.794922 30.099609L14.605469 30.181641C14.001912 30.440308 13.55847 30.898684 13.28125 31.453125C13.00403 32.007566 12.89128 32.71702 13.181641 33.394531C13.667281 34.527692 15.004303 35.34116 16.351562 34.835938L16.306641 34.851562C16.306641 34.851562 18.962162 34 22.5 34C26.837037 34 29.811211 35.039644 32.160156 36.542969L31.992188 36.40625C32.427889 36.841952 32.977778 37 33.5 37C34.239226 37 35.074123 36.716648 35.527344 35.912109C36.280322 34.784425 35.949637 33.24974 34.880859 32.486328L34.878906 32.484375L34.876953 32.482422C31.278937 29.942674 27.133333 29 22.5 29 z M 22.5 31C26.865013 31 30.51773 31.856995 33.71875 34.115234C34.028012 34.337085 34.077272 34.551586 33.886719 34.818359L33.839844 34.882812L33.804688 34.953125C33.843199 34.876103 33.733333 35 33.5 35C33.42222 35 33.370548 34.956478 33.40625 34.992188L33.330078 34.916016L33.238281 34.857422C30.587228 33.160729 27.162963 32 22.5 32C18.637838 32 15.693359 32.947266 15.693359 32.947266L15.671875 32.955078L15.648438 32.962891C15.395698 33.057671 15.133891 32.872311 15.019531 32.605469C15.009931 32.582979 14.997533 32.493216 15.070312 32.347656C15.139822 32.208636 15.283974 32.083016 15.380859 32.035156C15.404569 32.028456 15.425255 32.021632 15.453125 32.013672C15.559655 31.983232 15.702288 31.942142 15.884766 31.892578C16.24972 31.793458 16.769992 31.661722 17.414062 31.529297C18.7022 31.264467 20.487302 31 22.5 31 z" />
</svg>