<?xml version="1.0" encoding="utf-8"?>
<svg xmlns="http://www.w3.org/2000/svg" viewBox="0 0 50 50" width="515" height="515">
  <path d="M25 1 A 1.0001 1.0001 0 0 0 24.068359 1.6386719L17.902344 17.535156L0.94921875 18.400391 A 1.0001 1.0001 0 0 0 0.3671875 20.173828L13.568359 30.966797L9.2324219 47.34375 A 1.0001 1.0001 0 0 0 10.740234 48.441406L25 39.289062L39.259766 48.441406 A 1.0001 1.0001 0 0 0 40.767578 47.34375L36.431641 30.966797L49.632812 20.173828 A 1.0001 1.0001 0 0 0 49.050781 18.400391L32.097656 17.535156L25.931641 1.6386719 A 1.0001 1.0001 0 0 0 25 1 z M 25 4.7636719L27.8125 12.017578 A 1 1 0 0 0 27 13 A 1 1 0 0 0 28 14 A 1 1 0 0 0 28.523438 13.849609L30.466797 18.861328 A 1.0001 1.0001 0 0 0 31.349609 19.498047L33.195312 19.591797 A 1 1 0 0 0 34 20 A 1 1 0 0 0 34.740234 19.671875L46.359375 20.265625L43.974609 22.214844 A 1 1 0 0 0 44 22 A 1 1 0 0 0 43 21 A 1 1 0 0 0 42 22 A 1 1 0 0 0 43 23 A 1 1 0 0 0 43.017578 22.998047L40.949219 24.689453 A 1 1 0 0 0 40 24 A 1 1 0 0 0 39 25 A 1 1 0 0 0 39.507812 25.869141L37.732422 27.320312 A 1 1 0 0 0 37 27 A 1 1 0 0 0 36 28 A 1 1 0 0 0 36.189453 28.582031L34.667969 29.826172 A 1.0001 1.0001 0 0 0 34.435547 30.101562 A 1 1 0 0 0 34 30 A 1 1 0 0 0 33 31 A 1 1 0 0 0 34 32 A 1 1 0 0 0 34.585938 31.808594L36.521484 39.123047 A 1 1 0 0 0 36 40 A 1 1 0 0 0 37 41 A 1 1 0 0 0 37.019531 40.998047L38.175781 45.369141L34.953125 43.298828 A 1 1 0 0 0 35 43 A 1 1 0 0 0 34 42 A 1 1 0 0 0 33.330078 42.257812L31.298828 40.953125 A 1 1 0 0 0 32 40 A 1 1 0 0 0 31 39 A 1 1 0 0 0 30 40 A 1 1 0 0 0 30.009766 40.126953L25.541016 37.257812 A 1.0001 1.0001 0 0 0 24.458984 37.257812L19.992188 40.125 A 1 1 0 0 0 20 40 A 1 1 0 0 0 19 39 A 1 1 0 0 0 18 40 A 1 1 0 0 0 18.703125 40.953125L16.669922 42.257812 A 1 1 0 0 0 16 42 A 1 1 0 0 0 15 43 A 1 1 0 0 0 15.046875 43.300781L11.824219 45.369141L12.980469 41 A 1 1 0 0 0 13 41 A 1 1 0 0 0 14 40 A 1 1 0 0 0 13.478516 39.123047L15.414062 31.808594 A 1 1 0 0 0 16 32 A 1 1 0 0 0 17 31 A 1 1 0 0 0 16 30 A 1 1 0 0 0 15.566406 30.101562 A 1.0001 1.0001 0 0 0 15.332031 29.826172L13.810547 28.582031 A 1 1 0 0 0 14 28 A 1 1 0 0 0 13 27 A 1 1 0 0 0 12.267578 27.320312L10.492188 25.869141 A 1 1 0 0 0 11 25 A 1 1 0 0 0 10 24 A 1 1 0 0 0 9.0507812 24.689453L6.984375 23 A 1 1 0 0 0 7 23 A 1 1 0 0 0 8 22 A 1 1 0 0 0 7 21 A 1 1 0 0 0 6 22 A 1 1 0 0 0 6.0234375 22.214844L3.640625 20.265625L15.259766 19.671875 A 1 1 0 0 0 16 20 A 1 1 0 0 0 16.804688 19.591797L18.650391 19.498047 A 1.0001 1.0001 0 0 0 19.533203 18.861328L21.476562 13.851562 A 1 1 0 0 0 22 14 A 1 1 0 0 0 23 13 A 1 1 0 0 0 22.1875 12.017578L25 4.7636719 z M 25 9 A 1 1 0 0 0 24 10 A 1 1 0 0 0 25 11 A 1 1 0 0 0 26 10 A 1 1 0 0 0 25 9 z M 25 15 A 1 1 0 0 0 24 16 A 1 1 0 0 0 25 17 A 1 1 0 0 0 26 16 A 1 1 0 0 0 25 15 z M 22 18 A 1 1 0 0 0 21 19 A 1 1 0 0 0 22 20 A 1 1 0 0 0 23 19 A 1 1 0 0 0 22 18 z M 28 18 A 1 1 0 0 0 27 19 A 1 1 0 0 0 28 20 A 1 1 0 0 0 29 19 A 1 1 0 0 0 28 18 z M 13 21 A 1 1 0 0 0 12 22 A 1 1 0 0 0 13 23 A 1 1 0 0 0 14 22 A 1 1 0 0 0 13 21 z M 19 21 A 1 1 0 0 0 18 22 A 1 1 0 0 0 19 23 A 1 1 0 0 0 20 22 A 1 1 0 0 0 19 21 z M 25 21 A 1 1 0 0 0 24 22 A 1 1 0 0 0 25 23 A 1 1 0 0 0 26 22 A 1 1 0 0 0 25 21 z M 31 21 A 1 1 0 0 0 30 22 A 1 1 0 0 0 31 23 A 1 1 0 0 0 32 22 A 1 1 0 0 0 31 21 z M 37 21 A 1 1 0 0 0 36 22 A 1 1 0 0 0 37 23 A 1 1 0 0 0 38 22 A 1 1 0 0 0 37 21 z M 16 24 A 1 1 0 0 0 15 25 A 1 1 0 0 0 16 26 A 1 1 0 0 0 17 25 A 1 1 0 0 0 16 24 z M 22 24 A 1 1 0 0 0 21 25 A 1 1 0 0 0 22 26 A 1 1 0 0 0 23 25 A 1 1 0 0 0 22 24 z M 28 24 A 1 1 0 0 0 27 25 A 1 1 0 0 0 28 26 A 1 1 0 0 0 29 25 A 1 1 0 0 0 28 24 z M 34 24 A 1 1 0 0 0 33 25 A 1 1 0 0 0 34 26 A 1 1 0 0 0 35 25 A 1 1 0 0 0 34 24 z M 19 27 A 1 1 0 0 0 18 28 A 1 1 0 0 0 19 29 A 1 1 0 0 0 20 28 A 1 1 0 0 0 19 27 z M 25 27 A 1 1 0 0 0 24 28 A 1 1 0 0 0 25 29 A 1 1 0 0 0 26 28 A 1 1 0 0 0 25 27 z M 31 27 A 1 1 0 0 0 30 28 A 1 1 0 0 0 31 29 A 1 1 0 0 0 32 28 A 1 1 0 0 0 31 27 z M 22 30 A 1 1 0 0 0 21 31 A 1 1 0 0 0 22 32 A 1 1 0 0 0 23 31 A 1 1 0 0 0 22 30 z M 28 30 A 1 1 0 0 0 27 31 A 1 1 0 0 0 28 32 A 1 1 0 0 0 29 31 A 1 1 0 0 0 28 30 z M 19 33 A 1 1 0 0 0 18 34 A 1 1 0 0 0 19 35 A 1 1 0 0 0 20 34 A 1 1 0 0 0 19 33 z M 25 33 A 1 1 0 0 0 24 34 A 1 1 0 0 0 25 35 A 1 1 0 0 0 26 34 A 1 1 0 0 0 25 33 z M 31 33 A 1 1 0 0 0 30 34 A 1 1 0 0 0 31 35 A 1 1 0 0 0 32 34 A 1 1 0 0 0 31 33 z M 16 36 A 1 1 0 0 0 15 37 A 1 1 0 0 0 16 38 A 1 1 0 0 0 17 37 A 1 1 0 0 0 16 36 z M 22 36 A 1 1 0 0 0 21 37 A 1 1 0 0 0 22 38 A 1 1 0 0 0 23 37 A 1 1 0 0 0 22 36 z M 28 36 A 1 1 0 0 0 27 37 A 1 1 0 0 0 28 38 A 1 1 0 0 0 29 37 A 1 1 0 0 0 28 36 z M 34 36 A 1 1 0 0 0 33 37 A 1 1 0 0 0 34 38 A 1 1 0 0 0 35 37 A 1 1 0 0 0 34 36 z" />
</svg>