<?xml version="1.0" encoding="utf-8"?>
<svg xmlns="http://www.w3.org/2000/svg" width="515" height="515" viewBox="0 0 50 50">
  <path d="M25 0C23.083334 0 21.518559 0.75475559 20.501953 1.8984375C19.485347 3.0421194 19 4.5277779 19 6C19 7.4722221 19.485347 8.9578811 20.501953 10.101562C21.518559 11.245245 23.083334 12 25 12C28.301865 12 31 9.3018628 31 6C31 2.6981372 28.301865 0 25 0 z M 25 2C27.220986 2 29 3.7790155 29 6C29 8.2209845 27.220986 10 25 10C23.583334 10 22.648107 9.5047556 21.998047 8.7734375C21.347987 8.0421194 21 7.0277779 21 6C21 4.9722221 21.347987 3.9578806 21.998047 3.2265625C22.648107 2.4952444 23.583334 2 25 2 z M 25.025391 13C20.623111 13 18.055265 14.168739 16.626953 15.628906C15.198641 17.089074 15 18.713501 15 19.400391L15 29.199219C15 30.73445 16.26555 32 17.800781 32L19 32L19 43.332031C19 44.793967 20.206033 46 21.667969 46L28.333984 46C29.795514 46 31 44.793967 31 43.332031L31 32L32.199219 32C33.73445 32 35 30.73445 35 29.199219L35 19.400391C35 18.731329 34.820407 17.096525 33.404297 15.632812C31.988186 14.169101 29.428152 13 25.025391 13 z M 25.025391 15C29.08063 15 31.010407 16.0349 31.966797 17.023438C32.923187 18.011975 33 19.078453 33 19.400391L33 29.199219C33 29.645987 32.645987 30 32.199219 30L31 30L31 22 A 1.0001 1.0001 0 1 0 29 22L29 31L29 43.332031C29 43.706095 28.706455 44 28.333984 44L21.667969 44C21.293905 44 21 43.706095 21 43.332031L21 31L21 22 A 1.0001 1.0001 0 1 0 19 22L19 30L17.800781 30C17.354013 30 17 29.645987 17 29.199219L17 19.400391C17 19.09628 17.0862 18.019426 18.056641 17.027344C19.027079 16.035261 20.970673 15 25.025391 15 z M 17.023438 36.560547 A 1.0001 1.0001 0 0 0 16.853516 36.574219C13.537916 37.062032 10.713559 37.827421 8.6308594 38.835938C7.5895096 39.340195 6.7284892 39.904243 6.0839844 40.578125C5.4394795 41.252009 5 42.085795 5 43C5 44.255939 5.7933698 45.314499 6.8945312 46.136719C7.9956927 46.958938 9.4750295 47.630315 11.263672 48.195312C14.840956 49.325311 19.666634 50 25 50C30.333366 50 35.159044 49.325311 38.736328 48.195312C40.52497 47.630314 42.004307 46.958938 43.105469 46.136719C44.20663 45.314499 45 44.255939 45 43C45 42.085795 44.56052 41.252007 43.916016 40.578125C43.271511 39.904243 42.41049 39.340195 41.369141 38.835938C39.286441 37.827421 36.462084 37.062032 33.146484 36.574219 A 1.0001 1.0001 0 1 0 32.853516 38.552734C36.028916 39.019921 38.703496 39.767735 40.498047 40.636719C41.395322 41.071211 42.066927 41.536804 42.470703 41.958984C42.87448 42.381165 43 42.709705 43 43C43 43.400061 42.729542 43.919923 41.908203 44.533203C41.086865 45.146484 39.784123 45.768061 38.134766 46.289062C34.83605 47.331066 30.162634 48 25 48C19.837366 48 15.16395 47.331066 11.865234 46.289062C10.215877 45.768062 8.9131355 45.146484 8.0917969 44.533203C7.2704583 43.919923 7 43.400061 7 43C7 42.709705 7.1255205 42.381165 7.5292969 41.958984C7.9330733 41.536804 8.6046779 41.071211 9.5019531 40.636719C11.296504 39.767735 13.971084 39.019921 17.146484 38.552734 A 1.0001 1.0001 0 0 0 17.023438 36.560547 z" />
</svg>