<?xml version="1.0" encoding="utf-8"?>
<svg xmlns="http://www.w3.org/2000/svg" viewBox="0 0 50 50" width="515" height="515">
  <path d="M25 1.96875C24.496094 1.972656 23.988281 2.105469 23.53125 2.367188C2.035156 15.441406 2.039063 15.929688 2 16.601563C1.984375 16.882813 2.519531 17.46875 3.984375 18.796875C3.972656 18.863281 3.964844 18.933594 3.96875 19C3.96875 22.0625 3.976563 29.621094 3.980469 31.28125C3.375 31.640625 3 32.292969 3 33C3 33.230469 3.042969 33.460938 3.121094 33.679688C2.445313 34.226563 2 35.042969 2 35.96875C2 37.148438 2.613281 38.152344 3.144531 39.035156C3.675781 39.921875 4.207031 40.609375 4.207031 40.609375C4.394531 40.855469 4.6875 41 4.996094 41C5.304688 41 5.597656 40.859375 5.789063 40.617188C5.789063 40.617188 6.320313 39.9375 6.855469 39.058594C7.390625 38.175781 8 37.160156 8 35.96875C8 35.042969 7.554688 34.226563 6.878906 33.679688C6.957031 33.460938 7 33.230469 7 33C7 32.304688 6.636719 31.660156 6.046875 31.296875C6.042969 29.875 6.039063 24.355469 6.035156 20.609375C7.375 21.796875 8.421875 22.730469 11 25L11 18C11 18 16.292969 15 25 15C33.707031 15 39 18 39 18L39 25C45.875 18.917969 48.03125 17.136719 48 16.597656C47.960938 15.925781 47.964844 15.441406 26.449219 2.359375C26.003906 2.097656 25.5 1.96875 25 1.96875 Z M 39 25C38.972656 25.023438 38.820313 24.96875 38.570313 24.859375C38.238281 24.75 37.703125 24.589844 37 24.410156L37 27.113281L38.109375 26.996094C38.113281 26.996094 38.875 26.933594 39.402344 27.40625C39.796875 27.761719 40 28.371094 40 29.222656C40 30.484375 39.214844 31.871094 37.894531 32.003906L37.285156 32.066406L37.066406 32.640625C33.644531 41.503906 29.585938 46 25.003906 46C25.003906 46 25 46 25 46C25 46 24.996094 46 24.996094 46C20.414063 46 16.355469 41.503906 12.933594 32.640625L12.714844 32.066406L12.105469 32.003906C10.785156 31.871094 10 30.484375 10 29.222656C10 28.378906 10.195313 27.773438 10.585938 27.414063C11.109375 26.933594 11.890625 26.996094 11.890625 26.996094L13 27.113281L13 24.410156C12.261719 24.601563 11.710938 24.765625 11.382813 24.871094C11.160156 24.972656 11.027344 25.023438 11 25L11 25.070313C10.46875 25.175781 9.828125 25.410156 9.261719 25.917969C8.425781 26.667969 8 27.78125 8 29.222656C8 31.472656 9.367188 33.367188 11.269531 33.878906C14.984375 43.25 19.601563 48 24.996094 48C24.996094 48 25 48 25 48C25 48 25.003906 48 25.003906 48C30.398438 48 35.011719 43.25 38.730469 33.878906C40.632813 33.363281 42 31.472656 42 29.222656C42 27.78125 41.574219 26.667969 40.738281 25.917969C40.171875 25.410156 39.53125 25.175781 39 25.070313 Z M 13 24.410156C15.308594 23.824219 19.511719 23 25 23C30.492188 23 34.691406 23.820313 37 24.410156L37 19.265625C35.160156 18.480469 30.910156 17 25 17C19.042969 17 14.828125 18.472656 13 19.257813 Z M 5 35C5.574219 35 6 35.433594 6 35.96875C6 36.253906 5.609375 37.25 5.144531 38.015625C5.074219 38.132813 5.074219 38.117188 5.003906 38.222656C4.933594 38.109375 4.929688 38.125 4.855469 38.003906C4.386719 37.230469 4 36.214844 4 35.96875C4 35.433594 4.425781 35 5 35Z" />
</svg>