<?xml version="1.0" encoding="utf-8"?>
<svg xmlns="http://www.w3.org/2000/svg" viewBox="0 0 50 50" width="515" height="515">
  <path d="M24.984375 3.9863281 A 1.0001 1.0001 0 0 0 24 5L24 11 A 1.0001 1.0001 0 1 0 26 11L26 5 A 1.0001 1.0001 0 0 0 24.984375 3.9863281 z M 10.888672 9.890625 A 1.0001 1.0001 0 0 0 10.193359 11.607422L14.392578 15.806641 A 1.0001 1.0001 0 1 0 15.806641 14.392578L11.607422 10.193359 A 1.0001 1.0001 0 0 0 10.888672 9.890625 z M 39.080078 9.890625 A 1.0001 1.0001 0 0 0 38.392578 10.193359L34.193359 14.392578 A 1.0001 1.0001 0 1 0 35.607422 15.806641L39.806641 11.607422 A 1.0001 1.0001 0 0 0 39.080078 9.890625 z M 25 15 A 1.0001 1.0001 0 0 0 24.591797 15.082031C19.260044 15.307579 15 19.611572 15 25C15 30.533333 19.466667 35 25 35C30.533333 35 35 30.533333 35 25C35 19.612238 30.740979 15.308576 25.410156 15.082031 A 1.0001 1.0001 0 0 0 25 15 z M 25 17C29.466667 17 33 20.533333 33 25C33 29.466667 29.466667 33 25 33C20.533333 33 17 29.466667 17 25C17 20.533333 20.533333 17 25 17 z M 5 24 A 1.0001 1.0001 0 1 0 5 26L11 26 A 1.0001 1.0001 0 1 0 11 24L5 24 z M 39 24 A 1.0001 1.0001 0 1 0 39 26L45 26 A 1.0001 1.0001 0 1 0 45 24L39 24 z M 15.080078 33.890625 A 1.0001 1.0001 0 0 0 14.392578 34.193359L10.193359 38.392578 A 1.0001 1.0001 0 1 0 11.607422 39.806641L15.806641 35.607422 A 1.0001 1.0001 0 0 0 15.080078 33.890625 z M 34.888672 33.890625 A 1.0001 1.0001 0 0 0 34.193359 35.607422L38.392578 39.806641 A 1.0001 1.0001 0 1 0 39.806641 38.392578L35.607422 34.193359 A 1.0001 1.0001 0 0 0 34.888672 33.890625 z M 24.984375 37.986328 A 1.0001 1.0001 0 0 0 24 39L24 45 A 1.0001 1.0001 0 1 0 26 45L26 39 A 1.0001 1.0001 0 0 0 24.984375 37.986328 z" />
</svg>