<?xml version="1.0" encoding="utf-8"?>
<svg xmlns="http://www.w3.org/2000/svg" viewBox="0 0 50 50" width="515" height="515">
  <path d="M22.5 13C22.011719 13 21.554688 13.148438 21.171875 13.390625L21.160156 13.390625L9.429688 19.242188L9.429688 19.25C8.585938 19.648438 8 20.503906 8 21.5C8 22.882813 9.117188 24 10.5 24C10.917969 24 11.304688 23.886719 11.652344 23.707031L11.65625 23.71875L21.582031 19.042969L24.792969 24.25L8.832031 33.96875C4.179688 32.574219 1.679688 30.265625 1.679688 30.265625C1.480469 30.078125 1.21875 29.980469 0.945313 29.992188C0.539063 30.007813 0.183594 30.269531 0.046875 30.652344C-0.0898438 31.035156 0.0195313 31.464844 0.320313 31.734375C0.320313 31.734375 6.085938 37 16 37C20.921875 37 24.386719 35.953125 27.371094 34.949219C30.351563 33.941406 32.8125 33 36 33C42.371094 33 48.457031 36.84375 48.457031 36.84375C48.925781 37.140625 49.542969 37.007813 49.84375 36.542969C50.140625 36.074219 50.007813 35.457031 49.542969 35.15625C49.542969 35.15625 43.160156 31 36 31C35.242188 31 34.527344 31.054688 33.832031 31.140625C33.941406 30.777344 34 30.394531 34 30C34 29.214844 33.765625 28.484375 33.375 27.871094L33.378906 27.859375L24.578125 14.113281C24.128906 13.441406 23.367188 13 22.5 13 Z M 40 18C37.238281 18 35 20.238281 35 23C35 25.761719 37.238281 28 40 28C42.761719 28 45 25.761719 45 23C45 20.238281 42.761719 18 40 18Z" />
</svg>