<?xml version="1.0" encoding="utf-8"?>
<svg xmlns="http://www.w3.org/2000/svg" viewBox="0 0 50 50" width="515" height="515">
  <path d="M25 2C12.308594 2 2 12.308594 2 25C2 37.691406 12.308594 48 25 48C37.691406 48 48 37.691406 48 25C48 12.308594 37.691406 2 25 2 Z M 25 4C36.609375 4 46 13.390625 46 25C46 36.609375 36.609375 46 25 46C13.390625 46 4 36.609375 4 25C4 13.390625 13.390625 4 25 4 Z M 25 11C17.28125 11 11 17.28125 11 25L13 25C13 18.359375 18.359375 13 25 13C28.574219 13 31.773438 14.5625 33.96875 17.03125L31 20L38 20L38 13L35.40625 15.59375C32.839844 12.757813 29.117188 11 25 11 Z M 37 25C37 31.640625 31.640625 37 25 37C21.417969 37 18.226563 35.449219 16.03125 32.96875L19 30L12 30L12 37L14.625 34.375C17.183594 37.214844 20.882813 39 25 39C32.71875 39 39 32.71875 39 25Z" />
</svg>