<?xml version="1.0" encoding="utf-8"?>
<svg xmlns="http://www.w3.org/2000/svg" viewBox="0 0 50 50" width="515" height="515">
  <path d="M25 2C12.316406 2 2 12.316406 2 25C2 37.683594 12.316406 48 25 48C37.683594 48 48 37.683594 48 25C48 12.316406 37.683594 2 25 2 Z M 25 11C29.003906 11 32.738281 12.707031 35.375 15.625L38 13L38 20L31 20L33.964844 17.035156C31.699219 14.488281 28.464844 13 25 13C18.382813 13 13 18.382813 13 25L11 25C11 17.28125 17.28125 11 25 11 Z M 25 39C21.007813 39 17.257813 37.296875 14.621094 34.378906L12 37L12 30L19 30L16.035156 32.964844C18.296875 35.511719 21.542969 37 25 37C31.617188 37 37 31.617188 37 25L39 25C39 32.71875 32.71875 39 25 39Z" />
</svg>