<?xml version="1.0" encoding="utf-8"?>
<svg xmlns="http://www.w3.org/2000/svg" viewBox="0 0 50 50" width="515" height="515">
  <path d="M1 10L1 20C1 23.347656 2.429688 24.515625 3.375 25.28125C3.902344 25.707031 4 25.804688 4 26L4 36C4 39.511719 3.65625 42 6 42C8.476563 42 8 38.8125 8 36L8 26C8 25.847656 8.011719 25.777344 8.5625 25.375C9.527344 24.664063 11 23.59375 11 20.15625L11 10L9 10L9 19C9 19.550781 8.554688 20 8 20C7.445313 20 7 19.550781 7 19L7 10L5 10L5 19C5 19.550781 4.554688 20 4 20C3.445313 20 3 19.550781 3 19L3 10 Z M 43.9375 10C43.769531 10.007813 43.613281 10.066406 43.46875 10.15625C43.175781 10.339844 43 10.65625 43 11L43 35.15625C43 38.613281 42.539063 42 45 42C47.152344 42 47 38.6875 47 35L47 28C47 27.113281 47.367188 26.230469 47.78125 25.21875C48.355469 23.808594 49 22.21875 49 20C49 18.800781 49.726563 12.6875 44.4375 10.09375C44.28125 10.015625 44.105469 9.992188 43.9375 10 Z M 26.5 11C18.503906 11 12 17.503906 12 25.5C12 33.496094 18.503906 40 26.5 40C34.496094 40 41 33.496094 41 25.5C41 17.503906 34.496094 11 26.5 11 Z M 25.9375 16.03125C26.488281 16.007813 26.96875 16.417969 27 16.96875C27.03125 17.519531 26.613281 17.96875 26.0625 18C22.105469 18.226563 19 21.527344 19 25.5C19 29.636719 22.363281 33 26.5 33C30.472656 33 33.773438 29.894531 34 25.9375C34.03125 25.386719 34.480469 24.972656 35.03125 25C35.582031 25.03125 36 25.511719 35.96875 26.0625C35.683594 31.078125 31.53125 35 26.5 35C21.261719 35 17 30.738281 17 25.5C17 20.46875 20.921875 16.320313 25.9375 16.03125Z" />
</svg>