<?xml version="1.0" encoding="utf-8"?>
<svg xmlns="http://www.w3.org/2000/svg" width="515" height="515" viewBox="0 0 50 50">
  <path d="M23 0L23 4.0976562C13.018777 5.046869 5.046869 13.018777 4.0976562 23L0 23L0 27L4.0976562 27C5.046869 36.981223 13.018777 44.953131 23 45.902344L23 50L27 50L27 45.902344C36.981223 44.953131 44.953131 36.981223 45.902344 27L50 27L50 23L45.902344 23C44.953131 13.018777 36.981223 5.046869 27 4.0976562L27 0L23 0 z M 23 8.1269531L23 11L27 11L27 8.1269531C34.805997 9.0369175 40.963083 15.194003 41.873047 23L39 23L39 27L41.873047 27C40.963083 34.805997 34.805997 40.963083 27 41.873047L27 39L23 39L23 41.873047C15.194003 40.963083 9.0369175 34.805997 8.1269531 27L11 27L11 23L8.1269531 23C9.0369175 15.194003 15.194003 9.0369175 23 8.1269531 z" />
</svg>