<?xml version="1.0" encoding="utf-8"?>
<svg xmlns="http://www.w3.org/2000/svg" viewBox="0 0 50 50" width="515" height="515">
  <path d="M24 0L24 4.0253906C13.245289 4.5367374 4.5367374 13.245289 4.0253906 24L0 24L0 26L4.0253906 26C4.5367374 36.754711 13.245289 45.463263 24 45.974609L24 50L26 50L26 45.974609C36.754711 45.463263 45.463263 36.754711 45.974609 26L50 26L50 24L45.974609 24C45.463263 13.245289 36.754711 4.5367374 26 4.0253906L26 0L24 0 z M 24 6.0507812L24 10L26 10L26 6.0507812C35.657563 6.5605514 43.439449 14.342437 43.949219 24L40 24L40 26L43.949219 26C43.439449 35.657563 35.657563 43.439449 26 43.949219L26 40L24 40L24 43.949219C14.342437 43.439449 6.5605514 35.657563 6.0507812 26L10 26L10 24L6.0507812 24C6.5605514 14.342437 14.342437 6.5605514 24 6.0507812 z" />
</svg>