<?xml version="1.0" encoding="utf-8"?>
<svg xmlns="http://www.w3.org/2000/svg" viewBox="0 0 50 50" width="515" height="515">
  <path d="M19 1C18.477778 1 17.94539 1.1913289 17.568359 1.5683594C17.191329 1.9453899 17 2.4777778 17 3L9 3C7.346 3 6 4.346 6 6L6 44C6 45.654 7.346 47 9 47L41 47C42.388 47 43.559391 46.053484 43.900391 44.771484C43.965391 44.525484 44 44.266 44 44L44 6C44 4.346 42.654 3 41 3L33 3C33 2.4777778 32.808671 1.9453899 32.431641 1.5683594C32.05461 1.1913289 31.522222 1 31 1L19 1 z M 19 3L31 3L31 9L19 9L19 3 z M 9 5L17 5L17 7L10 7L10 43L40 43L40 7L33 7L33 5L41 5C41.551 5 42 5.448 42 6L42 44C42 44.552 41.551 45 41 45L9 45C8.449 45 8 44.552 8 44L8 6C8 5.448 8.449 5 9 5 z M 12 9L17 9C17 9.5222222 17.191329 10.05461 17.568359 10.431641C17.94539 10.808671 18.477778 11 19 11L31 11C31.522222 11 32.05461 10.808671 32.431641 10.431641C32.808671 10.05461 33 9.5222222 33 9L38 9L38 41L12 41L12 9 z M 30.917969 17.001953C30.635594 17.010828 30.354984 17.059438 30.083984 17.148438C29.687023 17.278001 29.316534 17.501834 28.992188 17.802734L28.984375 17.794922L28.980469 17.789062L17.326172 29.443359C17.202172 29.567359 17.112406 29.720625 17.066406 29.890625L16.033203 33.740234C15.940203 34.085234 16.039969 34.454031 16.292969 34.707031C16.482969 34.897031 16.738 35 17 35C17.087 35 17.174766 34.989797 17.259766 34.966797L21.109375 33.933594C21.279375 33.887594 21.432641 33.797828 21.556641 33.673828L33.210938 22.019531L33.205078 22.015625L33.199219 22.009766C33.549058 21.63249 33.789012 21.190018 33.908203 20.720703C34.058203 20.128703 34.024641 19.500781 33.806641 18.925781C33.661641 18.542781 33.434953 18.182047 33.126953 17.873047C32.734953 17.481047 32.259766 17.22175 31.759766 17.09375C31.484266 17.02325 31.200344 16.993078 30.917969 17.001953 z M 29.806641 19.791016L31.208984 21.193359L20.332031 32.070312L18.414062 32.585938L18.929688 30.667969L29.806641 19.791016 z" />
</svg>