<?xml version="1.0" encoding="utf-8"?>
<svg xmlns="http://www.w3.org/2000/svg" viewBox="0 0 50 50" width="515" height="515">
  <path d="M49.207031 15.09375L46.105469 11.992188C45.746094 11.632813 45.171875 11.601563 44.773438 11.917969C43.878906 12.636719 42.878906 13 41.800781 13C39.207031 13 37.101563 10.890625 37.101563 8.300781C37.101563 7.222656 37.464844 6.222656 38.179688 5.324219C38.5 4.925781 38.46875 4.351563 38.109375 3.992188L35.007813 0.894531C33.953125 -0.164063 32.046875 -0.160156 30.996094 0.890625L25.632813 6.21875L27.007813 7.59375C27.398438 7.984375 27.398438 8.617188 27.007813 9.007813C26.8125 9.203125 26.554688 9.300781 26.300781 9.300781C26.042969 9.300781 25.789063 9.203125 25.59375 9.007813L24.214844 7.628906L0.792969 30.894531C0.265625 31.421875 -0.0234375 32.132813 -0.0234375 32.898438C-0.0234375 33.667969 0.265625 34.378906 0.792969 34.90625L3.894531 38.007813C4.253906 38.367188 4.824219 38.402344 5.226563 38.082031C6.175781 37.320313 7.269531 36.898438 8.300781 36.898438C10.890625 36.898438 13 39.007813 13 41.597656C13 42.734375 12.59375 43.8125 11.855469 44.628906C11.5 45.027344 11.515625 45.628906 11.894531 46.007813L14.992188 49.105469C15.519531 49.632813 16.234375 49.925781 17 49.925781C17.765625 49.925781 18.480469 49.632813 19.007813 49.105469L42.351563 25.761719L40.992188 24.40625C40.601563 24.015625 40.601563 23.382813 40.992188 22.992188C41.386719 22.601563 42.015625 22.601563 42.40625 22.992188L43.765625 24.347656L49.0625 19.050781C49.613281 18.609375 49.957031 17.953125 50.007813 17.234375C50.0625 16.4375 49.769531 15.65625 49.207031 15.09375 Z M 31.210938 13.210938C31.015625 13.40625 30.761719 13.503906 30.503906 13.503906C30.246094 13.503906 29.992188 13.40625 29.796875 13.210938L28.394531 11.808594C28.003906 11.417969 28.003906 10.785156 28.394531 10.394531C28.785156 10.003906 29.414063 10.003906 29.808594 10.394531L31.210938 11.796875C31.601563 12.1875 31.601563 12.820313 31.210938 13.210938 Z M 35.421875 17.421875C35.226563 17.617188 34.972656 17.714844 34.714844 17.714844C34.460938 17.714844 34.203125 17.617188 34.007813 17.421875L32.605469 16.019531C32.214844 15.628906 32.214844 14.992188 32.605469 14.605469C32.996094 14.214844 33.628906 14.214844 34.019531 14.605469L35.421875 16.007813C35.8125 16.398438 35.8125 17.03125 35.421875 17.421875 Z M 39.632813 21.632813C39.4375 21.828125 39.183594 21.925781 38.925781 21.925781C38.671875 21.925781 38.414063 21.828125 38.21875 21.632813L36.816406 20.230469C36.425781 19.839844 36.425781 19.207031 36.816406 18.816406C37.207031 18.425781 37.839844 18.425781 38.230469 18.816406L39.632813 20.21875C40.023438 20.609375 40.023438 21.242188 39.632813 21.632813Z" />
</svg>