<?xml version="1.0" encoding="utf-8"?>
<svg xmlns="http://www.w3.org/2000/svg" viewBox="0 0 50 50" width="515" height="515">
  <path d="M2 25C2 37.703125 12.296875 48 25 48C37.703125 48 48 37.703125 48 25C48 12.296875 37.703125 2 25 2C20.40625 2 16.136719 3.363281 12.546875 5.683594L12.546875 4.046875C12.546875 2.390625 11.199219 1.046875 9.546875 1.046875C7.890625 1.046875 6.546875 2.390625 6.546875 4.046875L6.546875 11.28125C3.691406 15.113281 2 19.855469 2 25 Z M 4 24.953125C4 21.648438 4.789063 18.316406 6.289063 15.324219L8.078125 16.222656C6.71875 18.9375 6 21.957031 6 24.953125C6 35.429688 14.523438 43.953125 25 43.953125C35.476563 43.953125 44 35.433594 44 24.953125C44 14.476563 35.476563 5.953125 25 5.953125C20.066406 5.953125 15.386719 7.859375 11.878906 11.226563L17.726563 11.226563C18.28125 11.226563 18.726563 11.675781 18.726563 12.226563C18.726563 12.777344 18.28125 13.226563 17.726563 13.226563L8.546875 13.226563L8.546875 4.046875C8.546875 3.492188 8.992188 3.046875 9.546875 3.046875C10.097656 3.046875 10.546875 3.492188 10.546875 4.046875L10.546875 9.734375C14.414063 6.039063 19.574219 3.953125 25 3.953125C36.578125 3.953125 46 13.375 46 24.953125C46 36.535156 36.578125 45.953125 25 45.953125C13.421875 45.953125 4 36.535156 4 24.953125 Z M 24 23.277344L24 9L26 9L26 23.277344C26.59375 23.625 27 24.261719 27 25C27 26.105469 26.105469 27 25 27C24.820313 27 24.652344 26.96875 24.488281 26.925781L17.707031 33.707031L16.292969 32.292969L23.074219 25.511719C23.03125 25.347656 23 25.179688 23 25C23 24.261719 23.402344 23.625 24 23.277344Z" />
</svg>