<?xml version="1.0" encoding="utf-8"?>
<svg xmlns="http://www.w3.org/2000/svg" viewBox="0 0 50 50" width="515" height="515">
  <path d="M13.09375 4.78125L7.90625 11.375L6 9.6875L3.34375 12.6875L6.84375 15.8125L8.4375 17.21875L9.75 15.53125L16.25 7.21875 Z M 19 9L19 13L46 13L46 9 Z M 13.09375 18.78125L7.90625 25.375L6 23.6875L3.34375 26.6875L6.84375 29.8125L8.4375 31.21875L9.75 29.53125L16.25 21.21875 Z M 19 23L19 27L46 27L46 23 Z M 13.09375 32.78125L7.90625 39.375L6 37.6875L3.34375 40.6875L6.84375 43.8125L8.4375 45.21875L9.75 43.53125L16.25 35.21875 Z M 19 37L19 41L46 41L46 37Z" />
</svg>