<?xml version="1.0" encoding="utf-8"?>
<svg xmlns="http://www.w3.org/2000/svg" viewBox="0 0 50 50" width="515" height="515">
  <path d="M12 0C10.90625 0 10 0.90625 10 2L10 4L4 4C2.839844 4 2 4.839844 2 6L2 13L48 13L48 6C48 4.839844 47.160156 4 46 4L40 4L40 2C40 0.90625 39.09375 0 38 0L36 0C34.90625 0 34 0.90625 34 2L34 4L16 4L16 2C16 0.90625 15.09375 0 14 0 Z M 12 2L14 2L14 8L12 8 Z M 36 2L38 2L38 8L36 8 Z M 2 15L2 46C2 47.105469 2.894531 48 4 48L46 48C47.105469 48 48 47.105469 48 46L48 15 Z M 32.703125 20.800781L34.382813 21.882813L24.421875 37.339844L16.589844 30.253906L17.929688 28.769531L24.015625 34.277344Z" />
</svg>