<?xml version="1.0" encoding="utf-8"?>
<svg xmlns="http://www.w3.org/2000/svg" viewBox="0 0 50 50" width="515" height="515">
  <path d="M12 0C10.90625 0 10 0.90625 10 2L10 4L4 4C2.929688 4 2 4.804688 2 5.957031L2 46.207031C2 46.78125 2.332031 47.335938 2.734375 47.621094C3.136719 47.902344 3.574219 48 4 48L46 48C46.425781 48 46.863281 47.902344 47.265625 47.621094C47.667969 47.335938 48 46.78125 48 46.207031L48 5.957031C48 4.910156 47.152344 4 46.082031 4L40 4L40 2C40 0.90625 39.09375 0 38 0L36 0C34.90625 0 34 0.90625 34 2L34 4L16 4L16 2C16 0.90625 15.09375 0 14 0 Z M 12 2L14 2L14 8L12 8 Z M 36 2L38 2L38 8L36 8 Z M 4 6L10 6L10 8C10 9.09375 10.90625 10 12 10L14 10C15.09375 10 16 9.09375 16 8L16 6L34 6L34 8C34 9.09375 34.90625 10 36 10L38 10C39.09375 10 40 9.09375 40 8L40 6L46 6L46 13L4 13 Z M 4 15L46 15L46 46L4 46 Z M 32.703125 20.617188L32.160156 21.457031L24.015625 34.09375L18.671875 29.257813L17.929688 28.589844L16.589844 30.070313L17.328125 30.742188L24.421875 37.15625L33.839844 22.542969L34.382813 21.703125Z" />
</svg>