<?xml version="1.0" encoding="utf-8"?>
<svg xmlns="http://www.w3.org/2000/svg" viewBox="0 0 50 50" width="515" height="515">
  <path d="M37.423828 1.9082031C33.910083 2.0015137 29.649219 4.1496094 27.699219 6.0996094C25.199219 8.5996094 25 11.999609 27 15.599609L24.900391 17.699219L25.699219 18.5C26.199219 18.3 26.800781 18.199219 27.300781 18.199219L28.900391 16.5C29.200391 16.2 29.3 15.600781 29 15.300781C27.9 13.600781 26.399609 10.299219 29.099609 7.6992188C30.699609 6.0992188 34.399219 4.1996094 37.199219 4.0996094L33.699219 7.5996094C32.699219 8.6996094 32.699219 10.400391 33.699219 11.400391L38.599609 16.300781C39.699609 17.300781 41.400391 17.300781 42.400391 16.300781L45.800781 12.900391C45.700781 15.700391 43.799219 19.4 42.199219 21C40.299219 22.9 37.7 22.9 34.5 21C34.1 20.8 33.600781 20.799219 33.300781 21.199219L32.300781 22.199219C32.500781 22.699219 32.6 23.300781 32.5 23.800781C32.8 23.800781 33.000781 23.900391 33.300781 23.900391L34.099609 23.099609C37.799609 25.099609 41.1 24.800391 43.5 22.400391C46 19.900391 48.700391 14.100391 47.400391 10.400391C47.300391 10.100391 46.999219 9.7992187 46.699219 9.6992188C46.399219 9.5992188 46.000781 9.7 45.800781 10L40.900391 14.900391C40.600391 15.200391 40.100781 15.100391 39.800781 14.900391L34.900391 10C35.000391 9.5 34.999219 8.9992188 35.199219 8.6992188L40.099609 3.8007812C40.299609 3.6007812 40.400391 3.2003906 40.400391 2.9003906C40.300391 2.6003906 40.099219 2.2992188 39.699219 2.1992188C39.005469 1.9742188 38.234692 1.8866699 37.423828 1.9082031 z M 5.4160156 2 A 1.0001 1.0001 0 0 0 4.6933594 2.2929688L2.3925781 4.59375 A 1.0001 1.0001 0 0 0 2.2382812 5.8085938L6.1386719 12.408203 A 1.0001 1.0001 0 0 0 7 12.900391L8.7871094 12.900391L21.234375 25.251953L21.09375 25.392578C20.061629 26.424699 20.104131 28.057364 21.041016 29.150391 A 1.0001 1.0001 0 0 0 21.09375 29.207031L21.693359 29.806641C22.439353 30.552634 23.447233 30.572962 24.375 30.289062L25.847656 31.761719C25.754306 33.011454 26.126503 34.241738 26.992188 35.107422L38.193359 46.306641C40.477926 48.591207 44.223247 48.591207 46.507812 46.306641 A 1.0001 1.0001 0 0 0 46.525391 46.287109C48.710929 43.980152 48.72684 40.211214 46.507812 37.992188L35.306641 26.792969C34.401487 25.887815 33.166156 25.586307 31.957031 25.642578L30.501953 24.1875C30.803182 23.266998 30.757233 22.241606 30.007812 21.492188L29.40625 20.892578C28.374129 19.860457 26.741464 19.90296 25.648438 20.839844 A 1.0001 1.0001 0 0 0 25.59375 20.892578L25.449219 21.035156L13.019531 8.6054688L13.099609 6.8457031 A 1.0001 1.0001 0 0 0 12.59375 5.9296875L5.8925781 2.1308594 A 1.0001 1.0001 0 0 0 5.4160156 2 z M 5.5683594 4.2460938L11.072266 7.3671875L11.001953 8.9550781 A 1.0001 1.0001 0 0 0 11.292969 9.7070312L24.035156 22.449219L22.648438 23.837891L9.9042969 11.189453 A 1.0001 1.0001 0 0 0 9.1992188 10.900391L7.5703125 10.900391L4.3554688 5.4589844L5.5683594 4.2460938 z M 27.525391 22.171875C27.725292 22.170267 27.908562 22.223013 27.992188 22.306641L28.59375 22.90625C28.957032 23.269532 28.900521 23.585806 28.693359 23.792969 A 1.0001 1.0001 0 0 0 28.693359 25.207031L30.792969 27.306641 A 1.0001 1.0001 0 0 0 31.679688 27.583984C32.48059 27.438366 33.357743 27.672194 33.892578 28.207031L45.09375 39.40625C46.471756 40.784256 46.485368 43.405686 45.080078 44.900391C43.563744 46.404269 41.118997 46.40414 39.607422 44.892578L28.40625 33.693359C27.841952 33.129062 27.573571 32.266699 27.765625 31.5625 A 1.0001 1.0001 0 0 0 27.507812 30.59375L25.40625 28.492188 A 1.0001 1.0001 0 0 0 24.119141 28.386719C23.785687 28.6249 23.314585 28.5997 23.107422 28.392578L22.558594 27.84375C22.300356 27.535617 22.340873 26.973579 22.507812 26.806641L26.955078 22.359375C27.108956 22.229448 27.325489 22.173483 27.525391 22.171875 z M 18.099609 24.699219L13.599609 29.199219C12.999609 29.099219 12.299219 29 11.699219 29C6.4992187 29 2.3007813 33.200391 2.3007812 38.400391C2.3007812 43.600391 6.4992187 47.800781 11.699219 47.800781C16.899219 47.800781 21.099609 43.600391 21.099609 38.400391C21.099609 37.600391 21.000391 37.000391 20.900391 36.400391L23.900391 33.400391C23.800391 33.100391 23.800781 32.799609 23.800781 32.599609L23.699219 32.599609C23.199219 32.599609 22.699219 32.500781 22.199219 32.300781L19 35.5C18.7 35.8 18.600781 36.199609 18.800781 36.599609C19.000781 37.199609 19.099609 37.8 19.099609 38.5C19.099609 42.6 15.799219 45.900391 11.699219 45.900391C7.5992188 45.900391 4.3007813 42.6 4.3007812 38.5C4.3007812 34.4 7.5992187 31.099609 11.699219 31.099609C12.299219 31.099609 12.999219 31.200781 13.699219 31.300781C13.999219 31.400781 14.399219 31.3 14.699219 31L18.5 27.099609C18.5 26.499609 18.600781 25.900391 18.800781 25.400391L18.099609 24.699219 z M 31.306641 29.792969L29.892578 31.207031L40.892578 42.207031L42.306641 40.792969L31.306641 29.792969 z M 12.585938 33.199219 A 1.0001 1.0001 0 0 0 12.332031 33.236328L8.03125 34.4375 A 1.0001 1.0001 0 0 0 7.3359375 35.130859L6.1367188 39.431641 A 1.0001 1.0001 0 0 0 6.3925781 40.40625L9.59375 43.607422 A 1.0001 1.0001 0 0 0 10.5625 43.865234L14.962891 42.664062 A 1.0001 1.0001 0 0 0 15.667969 41.947266L16.769531 37.648438 A 1.0001 1.0001 0 0 0 16.507812 36.693359L13.306641 33.492188 A 1.0001 1.0001 0 0 0 12.585938 33.199219 z M 12.306641 35.320312L14.689453 37.705078L13.875 40.888672L10.597656 41.783203L8.2207031 39.40625L9.1113281 36.210938L12.306641 35.320312 z" />
</svg>