<?xml version="1.0" encoding="utf-8"?>
<svg xmlns="http://www.w3.org/2000/svg" viewBox="0 0 50 50" width="515" height="515">
  <path d="M21 2C19.354545 2 18 3.3545455 18 5L18 7L8 7 A 1.0001 1.0001 0 1 0 8 9L9 9L9 45C9 46.7 10.3 48 12 48L38 48C39.7 48 41 46.7 41 45L41 9L42 9 A 1.0001 1.0001 0 1 0 42 7L32 7L32 5C32 3.3545455 30.645455 2 29 2L21 2 z M 21 4L29 4C29.554545 4 30 4.4454545 30 5L30 7L20 7L20 5C20 4.4454545 20.445455 4 21 4 z M 19 14C19.6 14 20 14.4 20 15L20 40C20 40.6 19.6 41 19 41C18.4 41 18 40.6 18 40L18 15C18 14.4 18.4 14 19 14 z M 25 14C25.6 14 26 14.4 26 15L26 40C26 40.6 25.6 41 25 41C24.4 41 24 40.6 24 40L24 15C24 14.4 24.4 14 25 14 z M 31 14C31.6 14 32 14.4 32 15L32 40C32 40.6 31.6 41 31 41C30.4 41 30 40.6 30 40L30 15C30 14.4 30.4 14 31 14 z" />
</svg>