<?xml version="1.0" encoding="utf-8"?>
<svg xmlns="http://www.w3.org/2000/svg" viewBox="0 0 50 50" width="515" height="515">
  <path d="M36 2C33.238281 2 31 4.238281 31 7C31 9.761719 33.238281 12 36 12C38.761719 12 41 9.761719 41 7C41 4.238281 38.761719 2 36 2 Z M 30.78125 13C29.679688 13 28.632813 13.546875 28.03125 14.46875L20.28125 26.3125C19.953125 26.835938 19.972656 27.441406 20.21875 27.96875L17.5625 31.8125L14.28125 29.53125C12.984375 28.632813 11.1875 28.953125 10.28125 30.25L4.625 38.34375C4.089844 39.117188 3.898438 40.074219 4.0625 41C4.21875 41.863281 4.6875 42.589844 5.375 43.125C6.117188 41.289063 7.902344 40 10 40C11.316406 40 12.511719 40.507813 13.40625 41.34375L21.9375 29C22.46875 28.957031 22.96875 28.671875 23.28125 28.1875L29.3125 19.46875L28.15625 25.6875C27.832031 27.433594 28.136719 29.214844 29.03125 30.75L38.28125 47C38.640625 47.617188 39.285156 48 40 48C41.449219 48 42.425781 46.515625 41.84375 45.1875L34.9375 29.21875L36.90625 18.71875C37.46875 15.746094 35.183594 13 32.15625 13 Z M 37.75 19.65625L36.71875 25.0625L42.3125 29.625C43.007813 30.191406 44.046875 30.09375 44.625 29.40625C45.210938 28.710938 45.101563 27.675781 44.40625 27.09375L38.6875 22.28125 Z M 27.53125 30.78125L25.8125 36.71875L20.3125 45.125C19.789063 45.921875 19.945313 47 20.6875 47.59375C21.503906 48.246094 22.6875 48.085938 23.3125 47.25L29.15625 39.46875L30.625 36.1875 Z M 10 42C8.347656 42 7 43.347656 7 45C7 46.652344 8.347656 48 10 48C11.652344 48 13 46.652344 13 45C13 43.347656 11.652344 42 10 42Z" />
</svg>