<?xml version="1.0" encoding="utf-8"?>
<svg xmlns="http://www.w3.org/2000/svg" viewBox="0 0 50 50" width="515" height="515">
  <path d="M26.5 2C24.750001 2 23.310226 2.6922556 22.376953 3.7421875C21.443681 4.7921194 21 6.1527779 21 7.5C21 8.8472221 21.443681 10.207881 22.376953 11.257812C23.310226 12.307745 24.750001 13 26.5 13C28.249999 13 29.689774 12.307744 30.623047 11.257812C31.556319 10.207882 32 8.8472221 32 7.5C32 6.1527779 31.556319 4.7921194 30.623047 3.7421875C29.689774 2.6922556 28.249999 2 26.5 2 z M 26.5 4C27.749999 4 28.560226 4.4327444 29.126953 5.0703125C29.69368 5.7078806 30 6.5972221 30 7.5C30 8.4027779 29.69368 9.2921194 29.126953 9.9296875C28.560226 10.567256 27.749999 11 26.5 11C25.250001 11 24.439774 10.567256 23.873047 9.9296875C23.30632 9.2921194 23 8.4027779 23 7.5C23 6.5972221 23.30632 5.7078806 23.873047 5.0703125C24.439774 4.4327444 25.250001 4 26.5 4 z M 17 12C16.114584 12 15.315896 12.397245 14.773438 13.001953L8.3984375 19.863281 A 1.0001 1.0001 0 0 0 8.3808594 19.884766C7.5385947 20.84321 7 22.107356 7 23.5C7 26.525577 9.4744232 29 12.5 29C13.506315 29 14.424589 28.67566 15.234375 28.199219C15.266667 28.959218 15.41892 29.705026 15.726562 30.376953L13.808594 36.53125L9.7382812 42.355469 A 1.0001 1.0001 0 0 0 9.5585938 42.947266C9.2980885 43.431682 9 43.906711 9 44.5C9 46.421188 10.578812 48 12.5 48C13.585662 48 14.489855 47.432976 15.128906 46.654297 A 1.0001 1.0001 0 0 0 15.474609 46.335938L19.992188 39.535156 A 1.0001 1.0001 0 0 0 20.097656 39.326172L21.410156 35.751953L24 37.960938L24 44.357422C24 46.145035 25.289105 47.797164 27.144531 47.982422C29.209247 48.18825 31 46.538776 31 44.5L31 35C31 34.165 30.651724 33.399542 30.097656 32.857422L25.117188 27.716797L26.564453 22.546875L30.160156 25.351562C31.074963 26.065741 32.327929 26.188026 33.363281 25.662109L36 24.328125L36 47 A 1.0001 1.0001 0 1 0 38 47L38 23.314453L39.376953 22.617188C40.910543 21.840667 41.462403 19.882927 40.5625 18.417969C40.004622 17.509031 39.01307 17.189395 38 17.197266L38 13.298828 A 1.0001 1.0001 0 1 0 36 13.298828L36 17.654297L32.175781 19.478516L27.009766 14.775391C26.642241 14.440868 26.197084 14.202216 25.714844 14.082031L21.728516 13.089844C20.887913 12.880871 20.066368 13.089528 19.388672 13.535156C18.858826 12.673921 18.075835 12 17 12 z M 17 14C17.56503 14 18 14.43497 18 15L18 15.638672L15.632812 25.023438 A 1.0001 1.0001 0 0 0 15.626953 25.037109C15.053593 26.199537 13.883362 27 12.5 27C10.555577 27 9 25.444423 9 23.5C9 22.619297 9.3338052 21.832371 9.8828125 21.207031C9.8828125 21.207031 9.8828125 21.205078 9.8828125 21.205078L16.25 14.349609 A 1.0001 1.0001 0 0 0 16.261719 14.335938C16.451259 14.124643 16.703416 14 17 14 z M 20.845703 15.009766C20.974194 14.990825 21.109457 14.997282 21.246094 15.03125L25.230469 16.023438C25.390229 16.063257 25.539634 16.142429 25.662109 16.253906L31.326172 21.410156 A 1.0001 1.0001 0 0 0 32.429688 21.574219L37.619141 19.097656C38.071356 18.88177 38.596841 19.037106 38.859375 19.464844C39.163472 19.959885 38.989066 20.570552 38.472656 20.832031L32.458984 23.878906 A 1.0001 1.0001 0 0 0 32.457031 23.878906C32.110383 24.054989 31.697819 24.015213 31.390625 23.775391L26.617188 20.050781 A 1.0001 1.0001 0 0 0 25.039062 20.570312L23.037109 27.730469 A 1.0001 1.0001 0 0 0 23.28125 28.695312L28.679688 34.267578 A 1.0001 1.0001 0 0 0 28.699219 34.287109C28.887199 34.470991 29 34.715 29 35L29 44.5C29 45.392558 28.268227 46.085078 27.341797 45.992188C26.593223 45.917445 26 45.185809 26 44.357422L26 37.5 A 1.0001 1.0001 0 0 0 25.648438 36.740234L21.824219 33.476562 A 1.0001 1.0001 0 0 0 21.382812 33.099609L18.091797 30.291016C17.222781 29.549686 16.849414 28.383594 17.128906 27.275391L20.033203 15.757812L20.033203 15.755859C20.137238 15.346682 20.46023 15.066587 20.845703 15.009766 z M 17.251953 32.205078L19.787109 34.367188L18.261719 38.525391L14.337891 44.433594L15.152344 44.921875 A 1.0001 1.0001 0 0 0 13.779297 45.265625C13.514627 45.707551 13.050224 46 12.5 46C11.659188 46 11 45.340812 11 44.5C11 44.146729 11.123135 43.833865 11.341797 43.564453 A 1.0001 1.0001 0 0 0 11.457031 43.386719L15.537109 37.550781 A 1.0001 1.0001 0 0 0 15.671875 37.275391L17.251953 32.205078 z" />
</svg>