<?xml version="1.0" encoding="utf-8"?>
<svg xmlns="http://www.w3.org/2000/svg" viewBox="0 0 50 50" width="515" height="515">
  <path d="M9 0C2.457031 0 0.1875 4.375 0.09375 4.5625C-0.152344 5.054688 0.0703125 5.660156 0.5625 5.90625C1.058594 6.152344 1.660156 5.929688 1.90625 5.4375C1.921875 5.40625 3.515625 2.300781 8.3125 2.03125L25.1875 44.8125C25.34375 45.207031 25.726563 45.4375 26.125 45.4375C26.246094 45.4375 26.382813 45.421875 26.5 45.375L48.875 36.625C49.390625 36.425781 49.636719 35.859375 49.4375 35.34375C49.234375 34.828125 48.667969 34.550781 48.15625 34.75L26.6875 43.15625L9.9375 0.625C9.789063 0.242188 9.410156 0 9 0 Z M 37.1875 0C37.058594 0 36.90625 0.0117188 36.78125 0.0625L16.34375 8.21875C15.832031 8.421875 15.578125 8.988281 15.78125 9.5L21.3125 23.40625L43.625 14.53125L38.09375 0.625C37.996094 0.378906 37.804688 0.199219 37.5625 0.09375C37.441406 0.0429688 37.316406 0 37.1875 0 Z M 32.15625 6.3125C32.546875 6.320313 32.910156 6.550781 33.0625 6.9375C33.265625 7.449219 33.011719 8.046875 32.5 8.25L25.0625 11.1875C24.941406 11.234375 24.808594 11.28125 24.6875 11.28125C24.289063 11.28125 23.9375 11.015625 23.78125 10.625C23.578125 10.113281 23.832031 9.546875 24.34375 9.34375L31.78125 6.375C31.910156 6.324219 32.027344 6.308594 32.15625 6.3125 Z M 44.375 16.40625L22.0625 25.25L27.625 39.21875C27.722656 39.464844 27.914063 39.675781 28.15625 39.78125C28.28125 39.835938 28.425781 39.875 28.5625 39.875C28.6875 39.875 28.820313 39.828125 28.9375 39.78125L49.375 31.65625C49.886719 31.453125 50.140625 30.859375 49.9375 30.34375 Z M 38.09375 21.15625C38.484375 21.164063 38.847656 21.394531 39 21.78125C39.203125 22.292969 38.949219 22.890625 38.4375 23.09375L31 26.0625C30.878906 26.113281 30.746094 26.125 30.625 26.125C30.226563 26.125 29.84375 25.890625 29.6875 25.5C29.484375 24.988281 29.738281 24.390625 30.25 24.1875L37.6875 21.25C37.816406 21.199219 37.964844 21.152344 38.09375 21.15625 Z M 19 40C16.242188 40 14 42.242188 14 45C14 47.757813 16.242188 50 19 50C21.757813 50 24 47.757813 24 45C24 42.242188 21.757813 40 19 40Z" />
</svg>