<?xml version="1.0" encoding="utf-8"?>
<svg xmlns="http://www.w3.org/2000/svg" viewBox="0 0 50 50" width="515" height="515">
  <path d="M4.6992188 8.0019531C3.2075151 8.0019531 2.0019531 9.2075148 2.0019531 10.699219L2.0019531 34.199219C2.0019531 35.731752 3.2682479 36.998047 4.8007812 36.998047L8.4414062 36.998047C8.5383499 38.202501 8.9679133 39.386998 9.8027344 40.326172C10.752673 41.394854 12.216667 42.099609 14 42.099609C16.912795 42.099609 19.319801 39.847301 19.574219 36.998047L28.300781 36.998047C29.008508 36.998047 29.646234 36.719933 30.126953 36.275391C30.58526 36.643725 31.149549 36.900391 31.800781 36.900391L32.933594 36.900391C33.013545 38.138391 33.445346 39.361609 34.302734 40.326172C35.252673 41.394854 36.716667 42.099609 38.5 42.099609C41.412137 42.099609 43.818885 39.848341 44.074219 37L45.199219 37C46.732552 37 48 35.732552 48 34.199219L48 25.400391C48 23.258724 46.509766 21.414063 46.509766 21.414062L46.507812 21.410156L42.777344 16.369141L42.748047 16.335938C41.914496 15.398128 40.711502 14 38.900391 14L31.800781 14C31.520501 14 31.254442 14.054232 30.998047 14.132812L30.998047 10.699219C30.998047 9.1666851 29.718522 8.0019531 28.300781 8.0019531L4.6992188 8.0019531 z M 4.6992188 9.9980469L28.300781 9.9980469C28.683041 9.9980469 29.001953 10.231752 29.001953 10.699219L29.001953 16.78125C29.001905 16.787917 29 16.794104 29 16.800781L29 34.099609C29 34.105706 29.00191 34.111105 29.001953 34.117188L29.001953 34.300781C29.001953 34.609078 28.609078 35.001953 28.300781 35.001953L19.390625 35.001953C18.73093 32.644066 16.561687 30.900391 14 30.900391C12.216667 30.900391 10.752673 31.605146 9.8027344 32.673828C9.2021096 33.349531 8.8236041 34.156445 8.609375 35.001953L4.8007812 35.001953C4.3333147 35.001953 3.9980469 34.666685 3.9980469 34.199219L3.9980469 10.699219C3.9980469 10.390922 4.3909223 9.9980469 4.6992188 9.9980469 z M 31.800781 16L38.900391 16C39.484717 16 40.468447 16.791931 41.232422 17.646484L41.494141 18L36.800781 18C35.308189 18 34 19.200781 34 20.800781L34 24.199219C34 25.732552 35.267448 27 36.800781 27L46 27L46 34.199219C46 34.665885 45.665885 35 45.199219 35L43.888672 35C43.228211 32.643276 41.060858 30.900391 38.5 30.900391C36.716667 30.900391 35.252673 31.605146 34.302734 32.673828C33.726172 33.322461 33.354851 34.092209 33.134766 34.900391L31.800781 34.900391C31.684115 34.900391 31.449896 34.811221 31.269531 34.630859C31.089166 34.450494 31 34.216276 31 34.099609L31 16.800781C31 16.334115 31.334115 16 31.800781 16 z M 36.800781 20L42.974609 20L44.888672 22.585938C44.888672 22.585938 45.750912 23.951491 45.955078 25L36.800781 25C36.334115 25 36 24.665885 36 24.199219L36 20.800781C36 20.400781 36.493374 20 36.800781 20 z M 14 32.900391C16.000072 32.900391 17.599609 34.499929 17.599609 36.5C17.599609 38.500071 16.000072 40.099609 14 40.099609C12.716667 40.099609 11.880269 39.654365 11.296875 38.998047C10.713481 38.341729 10.400391 37.427778 10.400391 36.5C10.400391 35.572222 10.713481 34.658271 11.296875 34.001953C11.880269 33.345635 12.716667 32.900391 14 32.900391 z M 38.5 32.900391C40.500072 32.900391 42.099609 34.499929 42.099609 36.5C42.099609 38.500071 40.500072 40.099609 38.5 40.099609C37.216667 40.099609 36.380269 39.654365 35.796875 38.998047C35.213481 38.341729 34.900391 37.427778 34.900391 36.5C34.900391 35.572222 35.213481 34.658271 35.796875 34.001953C36.380269 33.345635 37.216667 32.900391 38.5 32.900391 z" />
</svg>