<?xml version="1.0" encoding="utf-8"?>
<svg xmlns="http://www.w3.org/2000/svg" viewBox="0 0 50 50" width="515" height="515">
  <path d="M46.058594 26.007812C45.087474 26.056432 44.124712 26.461226 43.392578 27.193359L33.685547 36.900391L24.613281 36.900391L24.226562 36.515625L29.878906 35.384766C29.878906 35.384766 29.880859 35.384766 29.880859 35.384766C31.394646 35.108827 32.696713 33.961046 32.984375 32.378906 A 1.0001 1.0001 0 0 0 32.984375 32.373047C33.387744 30.087065 31.589017 28 29.300781 28L15.607422 27.900391 A 1.0001 1.0001 0 0 0 15.599609 27.900391C13.182149 27.900391 11.075057 29.037771 9.3691406 30.423828 A 1.0001 1.0001 0 0 0 9.3457031 30.443359L0.34570312 38.244141 A 1.0001 1.0001 0 0 0 0.25585938 39.669922L9.2558594 49.669922 A 1.0001 1.0001 0 0 0 10.675781 49.736328L14.376953 46.335938 A 1.0001 1.0001 0 0 0 14.40625 46.306641C14.629456 46.083418 14.866276 46 15.099609 46L33.5 46C34.842424 46 36.105782 45.509452 37.007812 44.607422 A 1.0001 1.0001 0 0 0 37.013672 44.601562L48.912109 32.501953 A 1.0001 1.0001 0 0 0 48.9375 32.476562C50.374087 30.909377 50.375957 28.430077 48.775391 26.962891 A 1.0001 1.0001 0 0 0 48.773438 26.960938C48.010272 26.26715 47.029714 25.959192 46.058594 26.007812 z M 46.140625 28.017578C46.617977 27.991288 47.087215 28.133307 47.423828 28.4375C48.222579 29.169688 48.226294 30.290452 47.464844 31.123047C47.464844 31.123047 47.462891 31.125 47.462891 31.125L35.59375 43.193359C35.095781 43.691329 34.357576 44 33.5 44L15.099609 44C14.332943 44 13.568963 44.315801 12.992188 44.892578L10.068359 47.580078L2.4257812 39.087891L10.630859 31.976562C12.124943 30.762621 13.81707 29.900391 15.599609 29.900391L29.292969 30 A 1.0001 1.0001 0 0 0 29.300781 30C30.411834 30 31.210807 30.910433 31.015625 32.023438C30.90254 32.640242 30.206391 33.291487 29.521484 33.416016 A 1.0001 1.0001 0 0 0 29.503906 33.419922L22.003906 34.919922 A 1.0001 1.0001 0 0 0 21.492188 36.607422L23.492188 38.607422 A 1.0001 1.0001 0 0 0 24.199219 38.900391L34.099609 38.900391 A 1.0001 1.0001 0 0 0 34.806641 38.607422L44.806641 28.607422C45.174507 28.239555 45.661745 28.043957 46.140625 28.017578 z" />
</svg>