<?xml version="1.0" encoding="utf-8"?>
<svg xmlns="http://www.w3.org/2000/svg" viewBox="0 0 50 50" width="515" height="515">
  <path d="M0 7L0 39L50 39L50 7 Z M 2 9L48 9L48 37L2 37 Z M 10.8125 41C10.261719 41.050781 9.855469 41.542969 9.90625 42.09375C9.957031 42.644531 10.449219 43.050781 11 43L39 43C39.359375 43.003906 39.695313 42.816406 39.878906 42.503906C40.058594 42.191406 40.058594 41.808594 39.878906 41.496094C39.695313 41.183594 39.359375 40.996094 39 41L11 41C10.96875 41 10.9375 41 10.90625 41C10.875 41 10.84375 41 10.8125 41Z" />
</svg>