<?xml version="1.0" encoding="utf-8"?>
<svg xmlns="http://www.w3.org/2000/svg" viewBox="0 0 50 50" width="515" height="515">
  <path d="M0 7L0 39L50 39L50 7 Z M 20.625 16.59375C20.734375 16.59375 20.871094 16.632813 20.96875 16.6875L31.96875 23.0625C32.164063 23.175781 32.28125 23.367188 32.28125 23.59375C32.28125 23.820313 32.164063 24.042969 31.96875 24.15625L20.96875 30.53125C20.871094 30.589844 20.734375 30.59375 20.625 30.59375C20.515625 30.59375 20.410156 30.589844 20.3125 30.53125C20.117188 30.417969 20 30.195313 20 29.96875L20 17.25C20 17.023438 20.113281 16.800781 20.3125 16.6875C20.410156 16.632813 20.515625 16.59375 20.625 16.59375 Z M 11 41C10.449219 41 10 41.445313 10 42C10 42.554688 10.449219 43 11 43L39 43C39.554688 43 40 42.554688 40 42C40 41.445313 39.554688 41 39 41Z" />
</svg>