<?xml version="1.0" encoding="utf-8"?>
<svg xmlns="http://www.w3.org/2000/svg" width="515" height="515" viewBox="0 0 50 50">
  <path d="M25 2C12.308594 2 2 12.308594 2 25C2 37.691406 12.308594 48 25 48C37.691406 48 48 37.691406 48 25C48 12.308594 37.691406 2 25 2 Z M 25 4C36.609375 4 46 13.390625 46 25C46 36.609375 36.609375 46 25 46C13.390625 46 4 36.609375 4 25C4 13.390625 13.390625 4 25 4 Z M 30.691406 14.058594C27.09375 14.058594 24.152344 17 24.152344 20.597656C24.152344 20.621094 24.160156 20.648438 24.160156 20.671875C20.347656 20.164062 16.972656 18.28125 14.65625 15.4375C14.445312 15.183594 14.128906 15.050781 13.800781 15.074219C13.472656 15.101562 13.179688 15.285156 13.015625 15.566406C12.453125 16.535156 12.128906 17.664062 12.128906 18.859375C12.128906 19.917969 12.425781 20.90625 12.878906 21.796875C12.417969 21.894531 12.085938 22.300781 12.085938 22.773438L12.085938 22.84375C12.085938 24.777344 12.992188 26.453125 14.332031 27.652344C14.058594 27.917969 13.957031 28.3125 14.074219 28.675781C14.628906 30.414062 15.933594 31.773438 17.5625 32.542969C16.257812 33.152344 14.859375 33.589844 13.320312 33.589844C12.910156 33.589844 12.511719 33.566406 12.121094 33.515625C11.65625 33.460938 11.214844 33.734375 11.058594 34.171875C10.898438 34.613281 11.066406 35.101562 11.460938 35.355469C14.066406 37.023438 17.167969 38 20.488281 38C25.859375 38 30.105469 35.742188 32.941406 32.527344C35.78125 29.308594 37.253906 25.152344 37.253906 21.238281C37.253906 21.121094 37.25 21.011719 37.246094 20.894531C38.21875 20.113281 39.136719 19.25 39.828125 18.210938C40.066406 17.859375 40.054688 17.398438 39.800781 17.058594C39.546875 16.71875 39.109375 16.574219 38.703125 16.699219C38.867188 16.382812 39.09375 16.113281 39.203125 15.769531C39.332031 15.375 39.199219 14.941406 38.875 14.683594C38.550781 14.425781 38.101562 14.390625 37.746094 14.605469C36.871094 15.121094 35.886719 15.464844 34.871094 15.703125C33.726562 14.726562 32.304688 14.058594 30.691406 14.058594 Z M 30.691406 16.058594C32.003906 16.058594 33.179688 16.605469 34.003906 17.488281C34.242188 17.742188 34.589844 17.855469 34.925781 17.789062C35.078125 17.757812 35.203125 17.664062 35.351562 17.625C35.332031 17.636719 35.320312 17.660156 35.300781 17.671875C34.914062 17.902344 34.730469 18.367188 34.855469 18.800781C34.980469 19.234375 35.378906 19.535156 35.832031 19.527344C35.761719 19.578125 35.722656 19.664062 35.652344 19.714844C35.378906 19.910156 35.222656 20.230469 35.238281 20.566406C35.246094 20.789062 35.253906 21.015625 35.253906 21.238281C35.253906 24.644531 33.941406 28.371094 31.441406 31.203125C28.945312 34.035156 25.308594 36 20.488281 36C18.835938 36 17.28125 35.667969 15.800781 35.167969C17.644531 34.777344 19.386719 34.125 20.816406 33.003906C21.148438 32.742188 21.28125 32.300781 21.144531 31.902344C21.011719 31.5 20.640625 31.226562 20.21875 31.21875C18.804688 31.191406 17.710938 30.390625 16.898438 29.359375C17.199219 29.320312 17.507812 29.320312 17.792969 29.238281C18.238281 29.117188 18.542969 28.703125 18.527344 28.242188C18.511719 27.777344 18.179688 27.386719 17.722656 27.296875C16.074219 26.960938 14.785156 25.722656 14.3125 24.121094C14.738281 24.222656 15.109375 24.453125 15.5625 24.46875C16.007812 24.480469 16.410156 24.199219 16.546875 23.773438C16.683594 23.347656 16.519531 22.886719 16.152344 22.636719C14.929688 21.820312 14.128906 20.441406 14.128906 18.859375C14.128906 18.53125 14.304688 18.269531 14.371094 17.964844C17.210938 20.777344 20.992188 22.644531 25.25 22.859375C25.5625 22.875 25.867188 22.742188 26.066406 22.5C26.269531 22.257812 26.34375 21.933594 26.269531 21.628906C26.195312 21.300781 26.152344 20.957031 26.152344 20.597656C26.152344 18.078125 28.171875 16.058594 30.691406 16.058594 Z M 30.691406 16.058594" />
</svg>