<?xml version="1.0" encoding="utf-8"?>
<svg xmlns="http://www.w3.org/2000/svg" viewBox="0 0 50 50" width="515" height="515">
  <path d="M17.40625 3.03125C16.882813 3.050781 16.390625 3.277344 16.03125 3.65625L6.09375 13.59375L4.65625 15L6.09375 16.40625L16.03125 26.34375C16.511719 26.941406 17.289063 27.210938 18.035156 27.039063C18.785156 26.867188 19.367188 26.285156 19.539063 25.535156C19.710938 24.789063 19.441406 24.011719 18.84375 23.53125L12.3125 17L22.9375 17C28.777344 17 32.753906 18.476563 35.25 20.71875C37.746094 22.960938 38.9375 26.050781 38.9375 30C38.9375 38.199219 36.25 43.03125 36.25 43.03125C35.714844 43.996094 36.066406 45.214844 37.03125 45.75C37.996094 46.285156 39.214844 45.933594 39.75 44.96875C39.75 44.96875 42.9375 39.109375 42.9375 30C42.9375 25.191406 41.324219 20.789063 37.90625 17.71875C34.488281 14.648438 29.453125 13 22.9375 13L12.3125 13L18.84375 6.46875C19.4375 5.894531 19.617188 5.019531 19.296875 4.257813C18.980469 3.5 18.230469 3.011719 17.40625 3.03125Z" />
</svg>