<?xml version="1.0" encoding="utf-8"?>
<svg xmlns="http://www.w3.org/2000/svg" viewBox="0 0 50 50" width="515" height="515">
  <path d="M19.402344 6C17.019531 6 14.96875 7.679688 14.5 10.011719L14.097656 12L9 12C6.238281 12 4 14.238281 4 17L4 38C4 40.761719 6.238281 43 9 43L41 43C43.761719 43 46 40.761719 46 38L46 17C46 14.238281 43.761719 12 41 12L35.902344 12L35.5 10.011719C35.03125 7.679688 32.980469 6 30.597656 6 Z M 25 17C30.519531 17 35 21.480469 35 27C35 32.519531 30.519531 37 25 37C19.480469 37 15 32.519531 15 27C15 21.480469 19.480469 17 25 17 Z M 25 19C20.589844 19 17 22.589844 17 27C17 31.410156 20.589844 35 25 35C29.410156 35 33 31.410156 33 27C33 22.589844 29.410156 19 25 19Z" />
</svg>