<?xml version="1.0" encoding="utf-8"?>
<svg xmlns="http://www.w3.org/2000/svg" viewBox="0 0 50 50" width="515" height="515">
  <path d="M25 2C12.264481 2 2 12.264481 2 25C2 37.735519 12.264481 48 25 48C37.735519 48 48 37.735519 48 25C48 12.264481 37.735519 2 25 2 z M 24 10L26.099609 10L26.099609 12.800781C30.899609 13.000781 32.899219 17.100391 32.699219 19.900391L30.599609 19.900391C30.499609 18.200391 29.899609 14.400391 25.099609 14.400391C20.399609 14.400391 19.5 17.100391 19.5 19.400391C19.5 26.300391 33.199219 21.699219 33.199219 30.699219C33.199219 31.699219 32.7 36.699219 26 37.199219L26 40L24 40L24 37.199219C21.3 36.899219 17.100391 36.000781 16.900391 29.300781L19 29.300781C18.8 35.600781 24.899609 35.599609 25.099609 35.599609C30.999609 35.599609 31.199219 31.599219 31.199219 30.699219C31.199219 23.599219 17.5 28.599219 17.5 19.199219C17.5 17.299219 18.4 13.100781 24 12.800781L24 10 z" />
</svg>