<?xml version="1.0" encoding="utf-8"?>
<svg xmlns="http://www.w3.org/2000/svg" viewBox="0 0 50 50" width="515" height="515">
  <path d="M24.699219 2C24.099219 2 23.500391 1.9996094 22.900391 2.0996094L22.699219 2.0996094C22.199219 2.0996094 21.699219 2.2007813 21.199219 2.3007812C20.699219 2.4007813 20.099609 2.4996094 19.599609 2.5996094L19.5 2.5996094C18.4 2.8996094 17.499609 3.1992187 16.599609 3.6992188C15.699609 4.0992188 14.899609 4.7007813 14.099609 5.3007812C13.699609 5.6007812 13.4 5.9007812 13 6.3007812C11.7 7.7007813 10.7 9.3007812 10 11.300781C9.8 11.800781 9.6996094 12.300781 9.5996094 12.800781C9.4996094 13.300781 9.4007813 13.699219 9.3007812 14.199219C9.2007813 14.499219 9.1992187 14.799609 9.1992188 15.099609C9.1992188 15.399609 9.0996094 15.600391 9.0996094 15.900391C8.9996094 16.400391 9 16.999609 9 17.599609C9 18.099609 9.0992188 18.800391 9.1992188 19.400391C9.2992187 20.100391 9.4996094 21.000781 9.5996094 21.800781C9.7996094 22.500781 9.8996094 23.200391 10.099609 23.900391C10.099609 24.000391 10.099219 24.099219 10.199219 24.199219C10.299219 24.599219 10.499609 25.1 10.599609 25.5C10.299609 25.8 9.9992187 25.900781 9.6992188 26.300781C9.1992188 27.000781 8.9 28.100781 9 29.300781C9.4 32.900781 11.700391 34.2 12.400391 34.5C12.700391 36.2 13.5 38.200781 15 40.300781C16.5 42.600781 18.599219 44.7 21.199219 46L21.300781 46.099609C22.200781 47.199609 23.499609 48 25.099609 48C26.699609 48 27.900391 47.199609 28.900391 46.099609L29 46C31.5 44.8 33.599609 42.600781 35.099609 40.300781C36.499609 38.200781 37.299609 36.1 37.599609 34.5C38.299609 34.2 40.599609 32.900781 41.099609 29.300781C41.199609 28.100781 40.900391 27.000781 40.400391 26.300781C40.100391 25.900781 39.8 25.7 39.5 25.5C39.7 25 39.9 24.399219 40 23.699219L40 23.599609C40 23.499609 39.999609 23.500391 40.099609 23.400391C40.299609 22.700391 40.4 22.000781 40.5 21.300781C40.7 20.500781 40.800391 19.7 40.900391 19C40.900391 18.8 40.9 18.600781 41 18.300781C41 17.900781 41.099609 17.499609 41.099609 17.099609L41.099609 15.900391L41.099609 15L41.099609 14.900391C41.099609 14.700391 41 14.399609 41 14.099609C41 13.999609 41.000391 13.799219 40.900391 13.699219C40.800391 13.599219 40.900781 13.400781 40.800781 13.300781C40.800781 13.200781 40.799219 13.1 40.699219 13C40.699219 12.8 40.599609 12.7 40.599609 12.5C40.599609 12.4 40.5 12.299219 40.5 12.199219C40.4 11.999219 40.400781 11.799219 40.300781 11.699219C40.300781 11.599219 40.199219 11.500391 40.199219 11.400391C40.099219 11.200391 40.1 11.100391 40 10.900391C39.9 10.600391 39.799609 10.399609 39.599609 10.099609C39.499609 9.9996094 39.500391 9.9007813 39.400391 9.8007812C39.300391 9.7007813 39.199609 9.5003906 39.099609 9.4003906C38.999609 9.3003906 39.000391 9.1996094 38.900391 9.0996094C38.800391 8.9996094 38.699609 8.7992187 38.599609 8.6992188L38.300781 8.4003906L38 8.0996094L37.699219 7.8007812C37.499219 7.6007812 37.3 7.4007812 37 7.3007812C36 6.6007812 34.800391 6.1 33.400391 6C33.100391 5.6 32.699609 5.0996094 32.099609 4.5996094C31.899609 4.3996094 31.600781 4.2 31.300781 4C31.300781 4 31.199219 4.0003906 31.199219 3.9003906C31.199219 3.9003906 31.099609 3.9007812 31.099609 3.8007812C30.799609 3.6007812 30.499219 3.4007812 30.199219 3.3007812C29.199219 2.8007812 28.000391 2.2996094 26.400391 2.0996094L26.199219 2.0996094L26 2.0996094C25.7 1.9996094 25.199219 2 24.699219 2 z M 32.5 14.400391C33.5 16.000391 35 18.9 35 22C35 23.7 35.700391 26.399219 37.900391 26.699219C38.100391 26.799219 38.399609 27.100391 38.599609 27.400391C38.899609 27.800391 39.1 28.299609 39 29.099609C38.6 32.299609 36.400391 32.900391 36.400391 32.900391C36.000391 33.000391 35.799219 33.399219 35.699219 33.699219C35.599219 34.799219 34.700391 36.999609 33.400391 39.099609C32.100391 41.199609 30.1 43.199219 28 44.199219C27.8 44.299219 27.699609 44.4 27.599609 44.5C26.999609 45.5 26 46 25 46C24 46 23 45.499219 22.5 44.699219C22.4 44.599219 22.299609 44.400391 22.099609 44.400391C19.999609 43.400391 18.099219 41.400781 16.699219 39.300781C15.299219 37.200781 14.400781 35.000391 14.300781 33.900391C14.300781 33.500391 13.999609 33.199609 13.599609 33.099609C13.599609 33.099609 11.4 32.399219 11 29.199219C10.9 28.399219 11.100391 27.9 11.400391 27.5C11.500391 27.3 11.700781 27.199609 11.800781 27.099609L12.099609 27.099609C14.099609 27.099609 14.799609 23.799609 15.099609 22.099609C15.699609 18.999609 19.199609 18.099609 24.099609 18.099609C28.699609 17.999609 31.3 15.800391 32.5 14.400391 z M 19.5 27 A 1.5 1.5 0 0 0 19.5 30 A 1.5 1.5 0 0 0 19.5 27 z M 30.5 27 A 1.5 1.5 0 0 0 30.5 30 A 1.5 1.5 0 0 0 30.5 27 z" />
</svg>