<?xml version="1.0" encoding="utf-8"?>
<svg xmlns="http://www.w3.org/2000/svg" viewBox="0 0 50 50" width="515" height="515">
  <path d="M25.876953 3.3007812C21.184533 3.406229 18.20951 5.3290644 16.933594 8.2636719C15.714522 11.067537 15.981503 14.578081 16.855469 18.248047C16.393608 18.79523 16.007846 19.535562 16.103516 20.683594L16.105469 20.708984L16.109375 20.734375C16.275819 21.954963 16.613605 22.821637 17.080078 23.431641C17.311455 23.73421 17.645992 23.746588 17.933594 23.912109C18.10251 24.988676 18.425381 26.060074 18.871094 26.939453C19.124708 27.439827 19.394721 27.884615 19.669922 28.255859C19.794272 28.423607 19.962859 28.52848 20.091797 28.667969C20.104197 29.946207 20.159779 30.946992 20.011719 32.236328C19.719827 33.010989 18.977337 33.647551 17.757812 34.263672C16.505237 34.896491 14.858678 35.460658 13.191406 36.181641C11.524134 36.902623 9.8186825 37.787449 8.4609375 39.167969C7.1031925 40.548489 6.1389459 42.452045 6.0019531 44.945312L5.9433594 46L46.056641 46L45.998047 44.945312C45.861154 42.453868 44.906153 40.551187 43.554688 39.169922C42.203221 37.788656 40.502117 36.902995 38.833984 36.181641C37.165852 35.460286 35.513047 34.896916 34.238281 34.261719C33.008425 33.648899 32.229544 33.003162 31.892578 32.222656C31.816518 30.911594 31.809194 29.892132 31.808594 28.658203C31.934859 28.517471 32.104949 28.411167 32.224609 28.244141C32.491523 27.871573 32.750976 27.426731 32.996094 26.929688C33.429524 26.050785 33.760635 24.989739 33.962891 23.933594C34.285216 23.770429 34.644707 23.758333 34.894531 23.431641C35.376036 22.801981 35.683419 21.917934 35.794922 20.691406L35.796875 20.6875L35.796875 20.683594C35.885125 19.624616 35.559244 18.868765 35.083984 18.289062C35.605323 16.687531 36.220519 14.136487 36.021484 11.511719C35.912469 10.074798 35.55598 8.6347332 34.701172 7.4414062C33.922603 6.3545109 32.657032 5.587044 31.066406 5.2539062C30.003473 3.8595809 28.092033 3.3007813 25.900391 3.3007812L25.888672 3.3007812L25.876953 3.3007812 z M 25.900391 5.3007812L25.902344 5.3007812C27.91919 5.301235 29.218839 5.8871508 29.636719 6.6035156L29.880859 7.0234375L30.361328 7.0898438C31.734567 7.2829555 32.516527 7.8269206 33.074219 8.6054688C33.631911 9.3840168 33.936304 10.463473 34.027344 11.664062C34.209424 14.065245 33.515727 16.884089 33.058594 18.164062L32.759766 18.998047L33.552734 19.394531C33.416078 19.326201 33.877153 19.62456 33.802734 20.517578C33.713264 21.482515 33.472421 21.997454 33.304688 22.216797C33.136192 22.437137 33.066276 22.400391 33.099609 22.400391L32.232422 22.400391L32.109375 23.257812C31.980431 24.160421 31.61289 25.214009 31.203125 26.044922C30.998242 26.460378 30.782695 26.822567 30.599609 27.078125C30.416523 27.333683 30.221441 27.47921 30.304688 27.431641L29.800781 27.71875L29.800781 28.300781C29.800781 29.800781 29.800564 30.934021 29.902344 32.5625L29.912109 32.714844L29.966797 32.857422C30.552815 34.38758 31.886094 35.323479 33.345703 36.050781C34.805313 36.778084 36.471648 37.338933 38.041016 38.017578C39.610383 38.696223 41.067092 39.487125 42.125 40.568359C42.969097 41.431068 43.49196 42.572464 43.765625 44L8.2363281 44C8.5114053 42.574007 9.0378271 41.433445 9.8867188 40.570312C10.950849 39.488334 12.414147 38.696596 13.984375 38.017578C15.554603 37.338561 17.213904 36.778509 18.658203 36.048828C20.102502 35.319148 21.420866 34.368565 21.947266 32.822266L21.980469 32.724609L21.992188 32.625C22.204272 30.928317 22.099609 29.756337 22.099609 28.300781L22.099609 27.71875L21.595703 27.431641C21.670043 27.474121 21.467768 27.321334 21.277344 27.064453C21.08692 26.807573 20.863183 26.447283 20.654297 26.035156C20.236525 25.210903 19.877451 24.171248 19.794922 23.304688L19.708984 22.400391L18.800781 22.400391C18.950781 22.400391 18.853451 22.456791 18.669922 22.216797C18.489652 21.981059 18.237143 21.442621 18.101562 20.496094C18.053142 19.688481 18.537592 19.277022 18.455078 19.332031L19.042969 18.939453L18.869141 18.253906C17.946285 14.611057 17.793494 11.300939 18.767578 9.0605469C19.739768 6.8245094 21.709653 5.4003162 25.900391 5.3007812 z" />
</svg>