<?xml version="1.0" encoding="utf-8"?>
<svg xmlns="http://www.w3.org/2000/svg" viewBox="0 0 50 50" width="515" height="515">
  <path d="M25 2C21.655 2 18.734766 3.9007813 17.259766 6.6757812C16.528766 6.4837812 15.778344 6.3886719 15.027344 6.3886719C12.808344 6.3886719 10.591203 7.2252031 8.9082031 8.9082031C6.6552031 11.161203 5.9177812 14.370766 6.6757812 17.259766C3.9017813 18.734766 2 21.655 2 25C2 28.345 3.9007813 31.265234 6.6757812 32.740234C5.9177812 35.628234 6.6571562 38.838797 8.9101562 41.091797C10.593156 42.774797 12.810297 43.611328 15.029297 43.611328C15.780297 43.611328 16.531719 43.516219 17.261719 43.324219C18.735719 46.099219 21.655 48 25 48C28.345 48 31.265234 46.099219 32.740234 43.324219C33.471234 43.516219 34.221656 43.611328 34.972656 43.611328C37.191656 43.611328 39.408797 42.774797 41.091797 41.091797C43.344797 38.838797 44.082219 35.629234 43.324219 32.740234C46.098219 31.265234 48 28.345 48 25C48 21.655 46.099219 18.734766 43.324219 17.259766C44.082219 14.371766 43.342844 11.161203 41.089844 8.9082031C39.406844 7.2252031 37.189703 6.3886719 34.970703 6.3886719C34.219703 6.3886719 33.468281 6.4837812 32.738281 6.6757812C31.264281 3.9007813 28.345 2 25 2 z M 25 4.1894531C27.428 4.1894531 29.654641 5.535125 30.806641 7.703125L31.619141 9.234375L33.296875 8.7949219C33.841875 8.6519219 34.405656 8.578125 34.972656 8.578125C36.707656 8.578125 38.330969 9.2460312 39.542969 10.457031C41.156969 12.071031 41.795031 14.464125 41.207031 16.703125L40.767578 18.380859L42.296875 19.193359C44.463875 20.345359 45.810547 22.572 45.810547 25C45.810547 27.428 44.464875 29.654641 42.296875 30.806641L40.767578 31.619141L41.207031 33.296875C41.794031 35.535875 41.156969 37.928969 39.542969 39.542969C38.330969 40.754969 36.706656 41.421875 34.972656 41.421875C34.406656 41.421875 33.842875 41.349078 33.296875 41.205078L31.619141 40.765625L30.806641 42.296875C29.654641 44.463875 27.428 45.810547 25 45.810547C22.572 45.810547 20.345359 44.464875 19.193359 42.296875L18.380859 40.765625L16.703125 41.205078C16.158125 41.348078 15.594344 41.421875 15.027344 41.421875C13.292344 41.421875 11.669031 40.753969 10.457031 39.542969C8.8430312 37.928969 8.2049687 35.535875 8.7929688 33.296875L9.2324219 31.619141L7.703125 30.806641C5.537125 29.654641 4.1894531 27.428 4.1894531 25C4.1894531 22.572 5.535125 20.345359 7.703125 19.193359L9.234375 18.380859L8.7949219 16.703125C8.2079219 14.464125 8.8430313 12.071031 10.457031 10.457031C11.669031 9.2450313 13.293344 8.578125 15.027344 8.578125C15.593344 8.578125 16.157125 8.6509219 16.703125 8.7949219L18.380859 9.234375L19.195312 7.703125C20.346312 5.536125 22.572 4.1894531 25 4.1894531 z M 34.150391 17.722656L21.714844 30.15625L15.849609 24.292969L14.435547 25.707031L21.714844 32.984375L35.564453 19.136719L34.150391 17.722656 z" />
</svg>