<?xml version="1.0" encoding="utf-8"?>
<svg xmlns="http://www.w3.org/2000/svg" viewBox="0 0 50 50" width="515" height="515">
  <path d="M12.8125 5C12.261719 5.050781 11.855469 5.542969 11.90625 6.09375C11.957031 6.644531 12.449219 7.050781 13 7L37 7C37.359375 7.003906 37.695313 6.816406 37.878906 6.503906C38.058594 6.191406 38.058594 5.808594 37.878906 5.496094C37.695313 5.183594 37.359375 4.996094 37 5L13 5C12.96875 5 12.9375 5 12.90625 5C12.875 5 12.84375 5 12.8125 5 Z M 7.8125 9C7.261719 9.050781 6.855469 9.542969 6.90625 10.09375C6.957031 10.644531 7.449219 11.050781 8 11L42 11C42.359375 11.003906 42.695313 10.816406 42.878906 10.503906C43.058594 10.191406 43.058594 9.808594 42.878906 9.496094C42.695313 9.183594 42.359375 8.996094 42 9L8 9C7.96875 9 7.9375 9 7.90625 9C7.875 9 7.84375 9 7.8125 9 Z M 3 13C2.445313 13 2 13.449219 2 14L2 44C2 44.550781 2.445313 45 3 45L47 45C47.554688 45 48 44.550781 48 44L48 14C48 13.449219 47.554688 13 47 13 Z M 20.1875 23L30.8125 29L20.1875 35Z" />
</svg>