<?xml version="1.0" encoding="utf-8"?>
<svg xmlns="http://www.w3.org/2000/svg" viewBox="0 0 50 50" width="515" height="515">
  <path d="M24.1875 3C23.2775 3 22.3325 3.43775 21.5625 4.21875L9.9375 15.8125C9.2965 16.3785 9 17.477 9 18.25L9 31.75C9 32.516 9.31625 33.605 9.90625 34.125L21.5 45.6875C22.555 46.7575 23.52725 47 24.15625 47C25.82425 47 27 45.4765 27 43.3125L27 6.3125C27 4.0345 25.5385 3 24.1875 3 z M 34.71875 12.125C34.27375 12.18 33.917469 12.526656 33.855469 12.972656C33.789469 13.413656 34.0275 13.84725 34.4375 14.03125C38.3395 16.13625 41 20.246 41 25C41 29.738 38.35175 33.85875 34.46875 35.96875C33.98475 36.23475 33.809125 36.844125 34.078125 37.328125C34.344125 37.812125 34.9535 37.98775 35.4375 37.71875C39.9455 35.26975 43 30.484 43 25C43 19.5 39.93725 14.695 35.40625 12.25C35.22625 12.148 35.0195 12.105 34.8125 12.125L34.71875 12.125 z M 3 15.96875C1.324 15.96875 -0.03125 17.324 -0.03125 19L-0.03125 31C-0.03125 32.676 1.324 34.03125 3 34.03125L7.46875 34.03125C7.14075 33.24625 7 32.41 7 31.75L7 18.25C7 17.594 7.164 16.76175 7.5 15.96875L3 15.96875 z M 30.53125 18.40625C30.04725 18.46525 29.67925 18.863563 29.65625 19.351562C29.63325 19.835563 29.9615 20.268047 30.4375 20.373047C32.4845 20.909047 34 22.777 34 25C34 27.223 32.4845 29.09 30.4375 29.625C29.9025 29.762 29.58275 30.30875 29.71875 30.84375C29.85475 31.37875 30.4025 31.6985 30.9375 31.5625C33.8525 30.8005 36 28.137 36 25C36 21.863 33.8485 19.1995 30.9375 18.4375C30.8055 18.3985 30.66825 18.39125 30.53125 18.40625 z" />
</svg>