<?xml version="1.0" encoding="utf-8"?>
<svg xmlns="http://www.w3.org/2000/svg" viewBox="0 0 50 50" width="515" height="515">
  <path d="M34.623047 3.0722656C33.83287 3.0835536 32.938213 3.2470696 31.845703 3.5332031 A 1.0001 1.0001 0 0 0 31.841797 3.5332031C28.811059 4.3413999 11.035156 9.2363281 11.035156 9.2363281 A 1.0001 1.0001 0 0 0 10.953125 9.2617188C8.1784601 10.28937 6.4082187 11.304667 5.3242188 12.75C4.2402187 14.195333 4 15.925 4 18L4 19L4 20.5L4 40.400391C4 43.460391 6.5396094 46 9.5996094 46L40.400391 46C43.460391 46 46 43.460391 46 40.400391L46 18.800781C46 15.634115 43.113333 13 40 13L38 13L38 7.6992188C38 6.8388652 37.961543 6.0962459 37.796875 5.4179688C37.632207 4.7396915 37.304705 4.0854621 36.724609 3.6503906C36.144514 3.2153192 35.413224 3.0609774 34.623047 3.0722656 z M 34.652344 5.0722656C35.174666 5.0648056 35.405486 5.1600716 35.525391 5.25C35.645295 5.339929 35.755684 5.485699 35.853516 5.8886719C35.951347 6.2916447 36 6.9095723 36 7.6992188L36 13L10 13C8.8491041 13 7.8274593 13.351129 6.9746094 13.892578C7.7008359 12.962291 9.0712929 12.096356 11.630859 11.146484C11.74372 11.115414 29.38906 6.2573718 32.353516 5.4667969C33.361006 5.2029304 34.130021 5.0797274 34.652344 5.0722656 z M 10 15L40 15C41.886667 15 44 16.967448 44 18.800781L44 40.400391C44 42.340391 42.340391 44 40.400391 44L9.5996094 44C7.6596094 44 6 42.340391 6 40.400391L6 20.5L6 19C6 18.316667 6.3837912 17.227749 7.0957031 16.402344C7.8076151 15.576939 8.7725806 15 10 15 z M 38.5 27C37.1 27 36 28.1 36 29.5C36 30.9 37.1 32 38.5 32C39.9 32 41 30.9 41 29.5C41 28.1 39.9 27 38.5 27 z" />
</svg>