<?xml version="1.0" encoding="utf-8"?>
<svg xmlns="http://www.w3.org/2000/svg" viewBox="0 0 50 50" width="515" height="515">
  <path d="M24.90625 0.15625C24.863281 0.164063 24.820313 0.175781 24.78125 0.1875C24.558594 0.234375 24.363281 0.355469 24.21875 0.53125C24.21875 0.53125 20.03125 5.621094 15.84375 12.09375C11.65625 18.566406 7.375 26.335938 7.375 32.375C7.375 42.09375 15.28125 50 25 50C34.71875 50 42.625 42.09375 42.625 32.375C42.625 26.335938 38.34375 18.566406 34.15625 12.09375C29.96875 5.621094 25.78125 0.53125 25.78125 0.53125C25.570313 0.265625 25.242188 0.125 24.90625 0.15625 Z M 25 2.8125C25.980469 4.027344 28.976563 7.757813 32.46875 13.15625C36.585938 19.519531 40.625 27.335938 40.625 32.375C40.625 41.011719 33.636719 48 25 48C16.363281 48 9.375 41.011719 9.375 32.375C9.375 27.335938 13.414063 19.519531 17.53125 13.15625C21.023438 7.757813 24.019531 4.027344 25 2.8125 Z M 24.25 11.125C23.996094 11.175781 23.773438 11.320313 23.625 11.53125C23.625 11.53125 21.171875 14.6875 18.71875 18.8125C16.265625 22.9375 13.75 27.96875 13.75 32.1875C13.75 37.484375 16.242188 40.691406 18.71875 42.40625C21.195313 44.121094 23.6875 44.46875 23.6875 44.46875C24.054688 44.558594 24.4375 44.433594 24.683594 44.148438C24.929688 43.863281 24.992188 43.460938 24.847656 43.113281C24.703125 42.765625 24.375 42.527344 24 42.5C24 42.5 21.945313 42.214844 19.875 40.78125C17.804688 39.347656 15.75 36.878906 15.75 32.1875C15.75 28.816406 18.054688 23.820313 20.4375 19.8125C22.820313 15.804688 25.1875 12.75 25.1875 12.75C25.453125 12.429688 25.492188 11.972656 25.285156 11.609375C25.074219 11.25 24.664063 11.054688 24.25 11.125Z" />
</svg>