<?xml version="1.0" encoding="utf-8"?>
<svg xmlns="http://www.w3.org/2000/svg" viewBox="0 0 50 50" width="515" height="515">
  <path d="M19 6C9.625 6 2 12.503906 2 20.5C2 24.769531 4.058594 28.609375 7.816406 31.390625L5.179688 39.304688L13.425781 34.199219C15.714844 34.917969 18.507813 35.171875 21.203125 34.875C23.390625 39.109375 28.332031 42 34 42C35.722656 42 37.316406 41.675781 38.796875 41.234375L45.644531 45.066406L43.734375 38.515625C46.3125 36.375 48 33.394531 48 30C48 23.789063 42.597656 18.835938 35.75 18.105469C34.40625 11.152344 27.367188 6 19 6 Z M 13 14C14.101563 14 15 14.898438 15 16C15 17.101563 14.101563 18 13 18C11.898438 18 11 17.101563 11 16C11 14.898438 11.898438 14 13 14 Z M 25 14C26.101563 14 27 14.898438 27 16C27 17.101563 26.101563 18 25 18C23.898438 18 23 17.101563 23 16C23 14.898438 23.898438 14 25 14 Z M 34 20C40.746094 20 46 24.535156 46 30C46 32.957031 44.492188 35.550781 42.003906 37.394531L41.445313 37.8125L42.355469 40.933594L39.105469 39.109375L38.683594 39.25C37.285156 39.71875 35.6875 40 34 40C27.253906 40 22 35.464844 22 30C22 24.535156 27.253906 20 34 20 Z M 29.5 26C28.699219 26 28 26.699219 28 27.5C28 28.300781 28.699219 29 29.5 29C30.300781 29 31 28.300781 31 27.5C31 26.699219 30.300781 26 29.5 26 Z M 38.5 26C37.699219 26 37 26.699219 37 27.5C37 28.300781 37.699219 29 38.5 29C39.300781 29 40 28.300781 40 27.5C40 26.699219 39.300781 26 38.5 26Z" />
</svg>