<?xml version="1.0" encoding="utf-8"?>
<svg xmlns="http://www.w3.org/2000/svg" viewBox="0 0 50 50" width="515" height="515">
  <path d="M25 7C15.636264 7 7.0844022 10.707428 0.8046875 16.78125L0.091796875 17.470703L5.5625 23.208984L6.2851562 22.527344C11.213536 17.888869 17.766667 15 25 15C32.233333 15 38.786464 17.888869 43.714844 22.527344L44.429688 23.201172L50.023438 17.474609L49.289062 16.775391C42.913357 10.708187 34.363736 7 25 7 z M 25 9C33.4748 9 41.176501 12.273329 47.111328 17.59375L44.310547 20.462891C39.12642 15.889468 32.414143 13 25 13C17.590328 13 10.882117 15.886509 5.6992188 20.455078L2.9726562 17.595703C8.8167417 12.275607 16.520358 9 25 9 z M 25 19.099609C18.840113 19.099609 13.187565 21.503142 9.1015625 25.484375L8.3945312 26.173828L13.871094 31.917969L14.59375 31.21875C17.316962 28.589442 20.963566 27 25 27C29.036434 27 32.678163 28.592226 35.292969 31.207031L36.007812 31.921875L41.623047 26.173828L40.888672 25.474609C36.714964 21.509587 31.159887 19.099609 25 19.099609 z M 25 21.099609C30.274888 21.099609 34.987264 23.071313 38.710938 26.292969L35.921875 29.148438C33.007583 26.580237 29.19745 25 25 25C20.796441 25 16.980964 26.586464 13.994141 29.150391L11.271484 26.294922C14.916412 23.079003 19.71902 21.099609 25 21.099609 z M 25 31C22.028395 31 19.380102 32.215451 17.414062 34.072266L16.681641 34.763672L25 43.445312L25.722656 42.691406L33.318359 34.763672L32.585938 34.072266C30.619899 32.215451 27.971605 31 25 31 z M 25 33C27.057674 33 28.841914 33.810337 30.355469 34.964844L25 40.554688L19.644531 34.964844C21.158086 33.810337 22.942326 33 25 33 z" />
</svg>