<?xml version="1.0" encoding="utf-8"?>
<svg xmlns="http://www.w3.org/2000/svg" viewBox="0 0 50 50" width="515" height="515">
  <path d="M25 2C21.699219 2 19 4.699219 19 8C19 11.300781 21.699219 14 25 14C28.300781 14 31 11.300781 31 8C31 4.699219 28.300781 2 25 2 Z M 25 4C27.222656 4 29 5.777344 29 8C29 10.222656 27.222656 12 25 12C22.777344 12 21 10.222656 21 8C21 5.777344 22.777344 4 25 4 Z M 24.8125 15C20.335938 15.015625 16.417969 18 15.21875 22.3125L13.21875 29.53125C12.726563 31.304688 13.851563 33.132813 15.65625 33.5L16.03125 33.59375L15.4375 35.71875C15.347656 36.023438 15.410156 36.351563 15.597656 36.601563C15.789063 36.855469 16.089844 37.003906 16.40625 37L20 37L20 45C20 46.644531 21.355469 48 23 48C23.765625 48 24.46875 47.699219 25 47.21875C25.53125 47.699219 26.234375 48 27 48C28.644531 48 30 46.644531 30 45L30 37L33.59375 37C33.910156 37.003906 34.210938 36.855469 34.402344 36.601563C34.589844 36.351563 34.652344 36.023438 34.5625 35.71875L33.96875 33.59375L34.34375 33.5C36.148438 33.132813 37.273438 31.304688 36.78125 29.53125L34.78125 22.3125C33.578125 17.988281 29.644531 15 25.15625 15L24.90625 15C24.875 15 24.84375 15 24.8125 15 Z M 24.84375 17C24.886719 17.003906 24.925781 17.003906 24.96875 17L25.09375 17C25.113281 17 25.136719 17 25.15625 17C28.753906 17 31.910156 19.375 32.875 22.84375L34.875 30.0625C35.066406 30.746094 34.632813 31.421875 33.9375 31.5625L33.4375 31.65625L30.96875 22.71875C30.832031 22.214844 30.328125 21.898438 29.8125 22C29.53125 22.050781 29.28125 22.21875 29.132813 22.464844C28.984375 22.710938 28.945313 23.007813 29.03125 23.28125L32.3125 35L25.0625 35C25.042969 35 25.019531 35 25 35L17.6875 35L20.96875 23.28125C21.066406 22.953125 20.992188 22.601563 20.773438 22.339844C20.550781 22.082031 20.210938 21.953125 19.875 22C19.472656 22.046875 19.140625 22.332031 19.03125 22.71875L16.5625 31.65625L16.0625 31.5625C15.367188 31.421875 14.933594 30.746094 15.125 30.0625L17.125 22.84375C18.089844 19.375 21.246094 17 24.84375 17 Z M 22 37L24 37L24 45C24 45.566406 23.566406 46 23 46C22.433594 46 22 45.566406 22 45 Z M 26 37L28 37L28 45C28 45.566406 27.566406 46 27 46C26.433594 46 26 45.566406 26 45Z" />
</svg>