<?xml version="1.0" encoding="utf-8"?>
<svg xmlns="http://www.w3.org/2000/svg" viewBox="0 0 50 50" width="515" height="515">
  <path d="M2 3C0.90625 3 0 3.90625 0 5L0 48C0 49.09375 0.90625 50 2 50L14 50C15.09375 50 16 49.09375 16 48L16 5C16 3.90625 15.09375 3 14 3 Z M 18 3L18 5L48 5L48 40L32.1875 40C32.054688 39.972656 31.914063 39.972656 31.78125 40L24.1875 40C24.054688 39.972656 23.914063 39.972656 23.78125 40L18 40L18 42L23 42L23 44L20.875 44C19.257813 44 18 45.386719 18 47L18 50L38 50L38 47C38 45.386719 36.742188 44 35.125 44L33 44L33 42L48 42C49.09375 42 50 41.09375 50 40L50 5C50 3.90625 49.09375 3 48 3 Z M 2 5L14 5L14 48L2 48 Z M 18 7L18 9L44 9L44 33L18 33L18 35L44 35C45.09375 35 46 34.09375 46 33L46 9C46 7.90625 45.09375 7 44 7 Z M 8 41C6.894531 41 6 41.894531 6 43C6 44.105469 6.894531 45 8 45C9.105469 45 10 44.105469 10 43C10 41.894531 9.105469 41 8 41 Z M 25 42L31 42L31 44L25 44 Z M 20.875 46L35.125 46C35.589844 46 36 46.410156 36 47L36 48L20 48L20 47C20 46.410156 20.410156 46 20.875 46Z" />
</svg>