<?xml version="1.0" encoding="utf-8"?>
<svg xmlns="http://www.w3.org/2000/svg" viewBox="0 0 50 50" width="515" height="515">
  <path d="M2 3C0.898438 3 0 3.898438 0 5L0 48C0 49.101563 0.898438 50 2 50L14 50C15.101563 50 16 49.101563 16 48L16 5C16 3.898438 15.101563 3 14 3 Z M 18 3L18 8L44 8C44.550781 8 45 8.449219 45 9L45 33C45 33.550781 44.550781 34 44 34L18 34L18 42L48 42C49.101563 42 50 41.101563 50 40L50 5C50 3.898438 49.101563 3 48 3 Z M 8 41C9.105469 41 10 41.894531 10 43C10 44.105469 9.105469 45 8 45C6.894531 45 6 44.105469 6 43C6 41.894531 6.894531 41 8 41 Z M 23 43L23 45L20.875 45C19.28125 45 18 46.347656 18 48L18 50L38 50L38 48C38 46.347656 36.71875 45 35.125 45L33 45L33 43Z" />
</svg>