<?xml version="1.0" encoding="utf-8"?>
<svg xmlns="http://www.w3.org/2000/svg" viewBox="0 0 50 50" width="515" height="515">
  <path d="M43 10.4C43 5.8 39.4 2 35 2s-8 3.8-8 8.4C27 15 35 26 35 26S43 15 43 10.4zM32 10c0-1.7 1.3-3 3-3s3 1.3 3 3-1.3 3-3 3S32 11.7 32 10zM16.9 36H24v-8h-8C16.1 30.8 16.4 33.5 16.9 36zM34 28h-8v8h7.1C33.6 33.5 33.9 30.8 34 28zM27.6 18H26v8h6.5C31.3 24.2 29.3 21.2 27.6 18zM26 38v9.9c0 0 0 0 0 0 2.7-.8 5.2-4.6 6.6-9.9H26zM26 14.6V16h.6C26.4 15.5 26.2 15 26 14.6zM24 47.9C24 47.9 24 47.9 24 47.9l0-9.9h-6.6C18.8 43.3 21.2 47.2 24 47.9zM17.4 16H24V6.1c0 0 0 0 0 0C21.2 6.8 18.8 10.7 17.4 16zM16 26h8v-8h-7.1C16.4 20.5 16.1 23.2 16 26zM36 28c-.1 2.8-.3 5.5-.8 8h8.8c1.2-2.4 1.9-5.1 2-8L36 28 36 28zM30.3 47.3c5.3-1.4 9.7-4.8 12.5-9.3h-8.1C33.7 41.9 32.2 45.2 30.3 47.3zM14.8 18H6.1c-1.2 2.4-1.9 5.1-2 8h10C14.1 23.2 14.4 20.5 14.8 18zM7.1 38c2.8 4.5 7.3 7.9 12.5 9.3-1.9-2.1-3.4-5.3-4.4-9.3H7.1zM37.5 26h8.5c-.1-2.9-.8-5.6-2-8h-1.5C40.7 21.2 38.7 24.2 37.5 26zM14 28h-10c.1 2.9.8 5.6 2 8h8.8C14.4 33.5 14.1 30.8 14 28zM19.7 6.7C14.4 8.1 9.9 11.5 7.1 16h8.1C16.3 12.1 17.8 8.8 19.7 6.7z" />
</svg>