<?xml version="1.0" encoding="utf-8"?>
<svg xmlns="http://www.w3.org/2000/svg" viewBox="0 0 50 50" width="515" height="515">
  <path d="M36 2C29.364481 2 24 7.3644809 24 14C24 15.505054 24.3565 16.941169 24.857422 18.228516L3.3925781 39.693359C1.499741 41.586196 1.499741 44.714585 3.3925781 46.607422C5.2854152 48.500259 8.4138031 48.500259 10.306641 46.607422L31.771484 25.142578C33.085188 25.638194 34.484483 26 36 26C42.635519 26 48 20.635519 48 14C48 12.688889 47.787889 11.377926 47.328125 10.228516L46.765625 8.8203125L45.693359 9.8925781L38.759766 16.826172L34.769531 15.230469L33.173828 11.240234L41.179688 3.234375L39.771484 2.671875C38.622074 2.212111 37.311111 2 36 2 z M 36 4C36.485152 4 36.885481 4.1647975 37.349609 4.2363281L30.826172 10.759766L33.230469 16.769531L39.240234 19.173828L45.763672 12.650391C45.835203 13.114519 46 13.514848 46 14C46 19.564481 41.564481 24 36 24C34.566667 24 33.20473 23.641592 31.894531 23.080078L31.271484 22.814453L8.8925781 45.193359C7.7854152 46.300522 5.9138035 46.300522 4.8066406 45.193359C3.6994777 44.086196 3.6994777 42.214585 4.8066406 41.107422L27.199219 18.714844L26.908203 18.080078C26.368166 16.909998 26 15.433333 26 14C26 8.4355191 30.435519 4 36 4 z" />
</svg>