<?xml version="1.0" encoding="utf-8"?>
<svg xmlns="http://www.w3.org/2000/svg" viewBox="0 0 50 50" width="515" height="515">
  <path d="M0 4L0 46L50 46L50 4 Z M 2 6L48 6L48 44L2 44 Z M 5 9L5 29.5C4.84375 29.792969 4.84375 30.144531 5 30.4375L5 41L45 41L45 30.75C45.015625 30.644531 45.015625 30.542969 45 30.4375L45 9 Z M 7 11L43 11L43 29.09375L35.375 26.0625C35.113281 25.957031 34.816406 25.96875 34.5625 26.09375L27.3125 29.71875L17.8125 16.40625C17.59375 16.097656 17.21875 15.941406 16.84375 16C16.613281 16.039063 16.402344 16.164063 16.25 16.34375L7 27.15625 Z M 33 15C30.800781 15 29 16.800781 29 19C29 21.199219 30.800781 23 33 23C35.199219 23 37 21.199219 37 19C37 16.800781 35.199219 15 33 15 Z M 33 17C34.117188 17 35 17.882813 35 19C35 20.117188 34.117188 21 33 21C31.882813 21 31 20.117188 31 19C31 17.882813 31.882813 17 33 17 Z M 16.90625 18.625L26.1875 31.59375C26.472656 31.988281 27 32.121094 27.4375 31.90625L35.03125 28.09375L43 31.28125L43 39L7 39L7 30.1875Z" />
</svg>